<?xml version="1.0" encoding="UTF-8"?>
<svg xmlns="http://www.w3.org/2000/svg" width="377.500mm" height="216.800mm" viewBox="-1327.744385 -605.142395 377.500427 216.800049">
    <path transform="matrix(-0.26455,0,0,-0.26455,-940.719971,-298.290283)" style="stroke:#000000;stroke-width:0.05mm;fill:none" d="M125.024811,1158.529907C121.859001,1154.719971,125.200996,1123.400024,130.440796,1107.773804C133.910995,1097.430054,135.016006,1090.209961,133.730881,1086.270386C132.638,1082.920044,131.492004,1081.969971,123.5,1077.745117C99.408096,1065.02002,77.931297,1040.930054,67.544258,1015C60.327202,996.981018,54.418499,986.593018,44.569794,974.610657C38.762699,967.544983,35.999401,963.09198,36.00079,960.799683C36.003201,956.867981,48.502201,936.205017,58.912342,922.922607C73.557701,904.237,77.355301,900.080994,83.926109,895.550964C90.522598,891.002991,91.228203,890.747986,95.760452,891.285217C98.411301,891.598999,106.637001,893.88501,114.040047,896.364014C132.891006,902.677002,142.764008,904.232971,152.76532,902.466003C171.214005,899.20697,181.386002,893.593018,195.56517,878.847595C205.451996,868.565002,209.953003,862.179016,216.250885,849.5C224.296997,833.301025,232,807.825989,232,797.417236C232,792.054016,235.731003,775.245972,238.571716,767.812317C241.509995,760.122009,251.628006,744.169006,260.771759,732.807983C267.104004,724.940979,270.039001,720.830994,284.209259,700C302.752014,672.741028,316.325012,645.689026,321.94278,624.795959C327.102997,605.606995,328.092987,592.768982,325.515228,578.5C324.720001,574.099976,324.053986,568.145996,324.034882,565.268555C324.015991,562.390991,323.519989,556.765991,322.932861,552.768555C322.346008,548.770996,321.471985,542.575012,320.991516,539C318.093994,517.458984,316.188995,507.791992,309.952789,483C300.752991,446.423004,286.842987,411.864014,276.649872,400.253998C272.638,395.684998,265.712006,392.347992,258.482605,391.501099C237.811996,389.07901,235.365005,387.053986,228.521378,366.69397L224.888824,355.887939L226.694412,352.203949C228.819,347.869995,236.322998,343.639008,245,341.883545C254.024994,340.058014,288.321991,339.850006,293.256531,341.590515C299.326996,343.731995,311.339996,353.192993,316.000092,359.500122C318.234985,362.524994,320.46701,365,320.960022,365C322.782013,365,340.02301,389.286011,348.999817,404.5C368.950989,438.311005,401.52301,502.261993,414.956421,534C421.738007,550.021973,423.295013,553.653015,425.249786,558C426.362,560.474976,430.101013,569.474976,433.558563,578C447.585999,612.591003,449.239014,616,451.985138,616C453.054993,616,454.332001,615.213013,454.822723,614.25C455.825989,612.28302,458.612,600.583008,462.500854,582C474.114014,526.507996,480.880005,510.493011,505.690338,479.784607C507.786011,477.19101,510.832001,473.365997,512.460205,471.284607C514.088013,469.203003,517.463013,465.190002,519.960205,462.367554C526.221985,455.287994,530.989014,449.299011,534.514648,444.082367C536.156982,441.653015,539.317993,437.602997,541.539307,435.082367C543.760986,432.562012,548.672974,426.225006,552.454773,421C561.651001,408.295013,568.755981,400.343994,572.182068,398.924591C576.255005,397.237,579.656982,398.980011,585.704956,405.850525C598.619995,420.52301,603.499023,441.274994,597.017639,453.96933C593.09198,461.65799,591.135986,463.911011,567.910339,487.5C555.455017,500.149994,544.103027,512.525024,542.68396,515C538.914978,521.572021,538.637024,525.830017,540.939331,541.763733C542.072998,549.609009,543,559.031982,543,562.703552C543,566.375,543.434998,571.882019,543.966492,574.939819C545.471008,583.598022,547.242981,603.892029,548.074097,622C548.491028,631.075012,549.143005,643.224976,549.523987,649C550.034973,656.749023,549.773987,662.487976,548.526001,670.904724C546.572998,684.080017,546.96698,687.635986,550.784668,691.293701C556.981995,697.231995,581.078003,702.351013,636.067261,709.41217C654.346985,711.76001,661.007019,712.487,688,715.086975C722.297974,718.390015,766.953979,719.835999,771,717.773743C772.588989,716.963989,775.504028,712.755981,779,706.223755C782.025024,700.572021,788.174011,689.096985,792.665466,680.723938C801.767029,663.754028,823.200989,621.268982,826.878357,612.907471C840.609985,581.687012,847.822998,558.132996,846.70874,548.150879C846.119019,542.867004,839.807007,530.249023,834.937622,524.618896C832.978027,522.354004,830.679016,519.47699,829.827393,518.22699C827.205017,514.377014,791.630005,478.783997,785.388306,473.766357C782.150024,471.162994,774.96698,465.751007,769.42749,461.73938C749.536011,447.337006,742.708984,441.303986,739.740845,435.506836C736.374023,428.932007,735.893005,425.128998,737.635071,418.858856C740.223999,409.541992,748.59198,402.994995,757.899231,403.003418C761.784973,403.006989,774.184998,407.670013,778.713196,410.830841C780.245972,411.901001,783.974976,414.319,787,416.204346C790.025024,418.089996,794.525024,420.89801,797,422.444641C799.474976,423.990997,803.75,426.911011,806.5,428.933258C815.062988,435.230011,838.361023,452.839996,841.285828,455.226868C861.533997,471.748993,868.520996,478.013,894.005493,502.5C939.200989,545.924988,939.632019,546.309021,942.437256,545.605103C943.828003,545.255981,947.203979,543.064026,949.937439,540.735107C952.671021,538.406006,957.27002,534.700012,960.155762,532.5C968.283997,526.304016,988.643982,506.22699,994.127197,499C1000.25,490.934998,1003.52002,481.110992,1002.606323,473.53598C1000.349976,454.760986,999.460999,449.678009,996.519409,438.613373C993.424011,426.971008,987.013977,413.131989,983.057983,409.55249C981.057983,407.743011,968.445984,405.054993,961.787537,405.019684C956.296021,404.990997,947.81897,401.455994,944.357178,397.752441C937.504028,390.420013,936.674988,388.415985,936.647156,379.115936C936.61499,368.306,938.187012,364.932007,944.77301,361.66861C947.372986,360.381012,952.763,358.803009,956.75,358.163422C960.737,357.523987,967.111023,356.484985,970.912659,355.856079C974.745972,355.221985,980.648987,355.002991,984.162659,355.36496C1001.669983,357.169006,1008.179993,358.96701,1012.849304,363.297729C1015.700012,365.94101,1023,376.919006,1023,378.565491C1023,379.718994,1023.789978,381.842987,1030.046143,397.5C1035.02002,409.951996,1038.839966,420.29599,1044.084961,435.577362C1046.73999,443.320007,1050.550049,453.445007,1052.534058,458.077362C1056.880005,468.213013,1066.349976,496.339996,1067.993652,504C1068.640015,507.024994,1069.579956,511.127014,1070.086792,513.116028C1070.589966,515.10498,1071,520.963989,1071,526.136108C1071,536.950989,1068.680054,546.724976,1063.844849,556.307373C1057.680054,568.515991,1049.030029,590.234985,1045.043091,603.5C1043.890015,607.349976,1042.52002,611.849976,1042.00647,613.5C1039.949951,620.117004,1035.170044,639.914001,1034.04187,646.5C1033.380005,650.349976,1032.430054,655.127014,1031.921387,657.116028C1030.47998,662.765015,1030.810059,686.989014,1032.43689,694.684631C1033.880005,701.531982,1040.5,722.468018,1043.284302,729C1044.109985,730.924988,1045.77002,734.974976,1046.994751,738C1048.209961,741.025024,1050.130005,745.525024,1051.247803,748C1059.650024,766.583984,1069.170044,796.325012,1071.086426,810C1072.199951,817.942993,1073.880005,836.702026,1074.810913,851.5C1075.189941,857.549988,1075.819946,862.986023,1076.203369,863.579102C1076.910034,864.664001,1079.079956,865.218994,1097.5,869.028015C1111.609985,871.947021,1124.449951,874.747986,1139.5,878.195984C1158.869995,882.632996,1163.76001,883.825012,1172,886.125549C1176.130005,887.276978,1186.25,889.922974,1194.5,892.00592C1218.469971,898.057007,1236.040039,902.744995,1242.5,904.811279C1245.800049,905.867004,1252.319946,907.749023,1257,908.994446C1270.839966,912.68103,1316.939941,928.442017,1328.5,933.439148C1330.699951,934.390015,1338.51001,937.627014,1345.8573,940.633118C1358.189941,945.677979,1393.02002,962.85498,1406.053101,970.320129C1411.859985,973.643982,1420.650024,979.906006,1431.868164,988.700256C1435.52002,991.559998,1439.699951,994.825989,1441.165527,995.95636C1444.369995,998.427979,1450.469971,1006.940002,1455.885498,1016.5C1466.689941,1035.579956,1465.050049,1058.089966,1451.354736,1078.675171C1443.689941,1090.199951,1437.26001,1097,1426.547241,1104.903198C1413.780029,1114.329956,1409.300049,1117.01001,1394,1124.378784C1368.819946,1136.51001,1340.589966,1144.349976,1303.5,1149.530273C1301.300049,1149.839966,1291.400024,1150.5,1281.5,1150.999146C1271.599976,1151.5,1260.630005,1152.209961,1257.116333,1152.584717C1248.880005,1153.459961,1220.699951,1151.189941,1216.16272,1149.294678C1211,1147.140015,1199.410034,1138.189941,1198.11853,1135.360718C1194.859985,1128.209961,1197.550049,1125.810059,1213,1122.083252C1231.040039,1117.73999,1245.880005,1115.339966,1269.5,1112.977905C1280.660034,1111.859985,1291.5,1110.449951,1300,1109.02356C1303.569946,1108.420044,1308.969971,1107.540039,1312,1107.069946C1328.579956,1104.47998,1357.630005,1095.73999,1369.382324,1089.807007C1374.72998,1087.109985,1390.810059,1075.689941,1399.77771,1068.228149C1403.359985,1065.23999,1403.380005,1065.140015,1402.596069,1052C1401.300049,1030.25,1398.310059,1022.26001,1387.805664,1012.441711C1380.439941,1005.559998,1373.290039,1001.52002,1359.914185,996.67511C1345.900024,991.601013,1310.099976,983.132019,1293.5,980.963562C1290.199951,980.531982,1281.430054,979.216003,1274,978.038696C1266.569946,976.861023,1256.219971,975.427002,1251,974.850525C1245.780029,974.273987,1238.130005,973.39502,1234,972.895447C1225.819946,971.905029,1210.040039,970.508972,1189,968.912842C1181.569946,968.349976,1150.699951,967.671021,1120.379272,967.404846C1066.98999,966.935974,1065.02002,966.986023,1057.538086,968.989807C1053.290039,970.127991,1047.52002,972.223999,1044.708618,973.647644C1039.609985,976.231018,1037.26001,977.64502,1025,985.527039C1021.419983,987.825012,1016.919983,990.656982,1015,991.820313C1009.530029,995.130005,979.786011,1010.179993,977,1011.055481C975.625,1011.48999,970.900024,1013.349976,966.5,1015.200928C962.099976,1017.049988,956.474976,1019.169983,954,1019.904175C951.525024,1020.640015,946.799988,1022.049988,943.5,1023.042175C920.322998,1029.98999,887.552002,1035.930054,855,1039.099365C800.607971,1044.390015,772.049988,1045.890015,712,1046.619629C661.377014,1047.22998,650.546021,1046.75,617.877014,1042.462036C578.419983,1037.280029,547.008972,1027.959961,495,1005.992615C477.028992,998.403992,460.016998,992.963013,448,990.961853C437.367004,989.190979,389.007996,989.10498,378,990.837585C358.862,993.848999,339.962006,999.734985,333,1004.8526C331.625,1005.859985,328.924988,1007.5,327,1008.483826C325.075012,1009.469971,321.924988,1011.549988,320,1013.113281C307.634003,1023.130005,301.985992,1028.170044,287.59848,1042C264.283997,1064.410034,249.507996,1076.099976,235.5,1083.207153C215.843994,1093.180054,194.169006,1108.530029,170.258072,1129.399658C164.089005,1134.790039,153.731995,1142.77002,142.880249,1150.5C140.565002,1152.150024,136.714996,1154.959961,134.326416,1156.75C129.591003,1160.290039,126.913002,1160.810059,125.024811,1158.529907z"/>
    <path transform="matrix(-0.26455,0,0,-0.26455,-940.719971,-298.290283)" style="stroke:#000000;stroke-width:0.05mm;fill:none" d="M1279.5,1136.109253C1307.22998,1134.47998,1340.560059,1127.98999,1365,1119.46875C1387.48999,1111.630005,1414.459961,1095.560059,1426.627686,1082.755127C1437.439941,1071.369995,1442,1065.219971,1442,1062.017212C1442,1058.459961,1440.140015,1057.75,1434.191406,1059.032227C1424.349976,1061.160034,1423.5,1061.969971,1421.043335,1071.619507C1419.550049,1077.469971,1416.689941,1080.619995,1409.648438,1084.174683C1406.27002,1085.880005,1398.52002,1090.579956,1392.43396,1094.61084C1379.880005,1102.930054,1370.540039,1107.449951,1356.821411,1111.846191C1331.900024,1119.829956,1307.900024,1124.339966,1270.803833,1127.99646C1241.430054,1130.890015,1232,1132.619995,1232,1135.102295C1232,1135.579956,1233.23999,1136.22998,1234.75,1136.568359C1236.26001,1136.900024,1237.949951,1137.349976,1238.5,1137.573486C1239.660034,1138.030029,1257.880005,1137.380005,1279.5,1136.109253z"/>
    <path transform="matrix(-0.26455,0,0,-0.26455,-940.719971,-298.290283)" style="stroke:#000000;stroke-width:0.05mm;fill:none" d="M153.372192,1123.128784C157.841995,1118.800049,170.807007,1108.319946,182.182816,1099.84314C201.270996,1085.619995,210.682999,1079.51001,231.199326,1068.013794C243.733002,1060.98999,255.459,1051.550049,273.5,1033.933105C304.817993,1003.359985,317.945007,993.474976,337.684143,985.610962C358.949005,977.138977,379.584015,974.005981,414,974.023743C456.019989,974.046021,459.798004,974.932007,513.093079,997.271851C554.966003,1014.820007,600.216003,1026.170044,644.5,1030.219482C662.328003,1031.849976,744.388977,1031.839966,770,1030.208496C780.174988,1029.560059,795.474976,1028.589966,804,1028.05127C819.291992,1027.089966,824.971008,1026.579956,854.5,1023.525818C897.062988,1019.130005,929.810974,1012.380005,956.639954,1002.476929C972.619019,996.580994,1001.950012,981.796021,1016.747375,972.182434C1032.890015,961.690979,1041.699951,957.112,1052,953.865173L1059.5,951.5L1105.02771,951.829712C1134.069946,952.039978,1154.170044,951.755981,1160.52771,951.046448C1173.540039,949.593994,1182.160034,950.325012,1236.5,957.487915C1246.949951,958.86499,1263.040039,961.210999,1272.260864,962.699707C1287.849976,965.218018,1289.140015,965.291016,1290.674927,963.753662C1292.069946,962.362,1292.119995,961.846985,1290.996338,960.495605C1290.26001,959.612976,1288.890015,958.478027,1287.950439,957.97345C1284.189941,955.961975,1210.930054,942.427979,1190.5,939.971741C1185.550049,939.377014,1179.699951,938.474976,1177.5,937.969238C1170.780029,936.422974,1167.199951,936.869995,1160.921753,940.03949C1151.959961,944.560974,1147.660034,945.039001,1131.023438,943.362976C1111.810059,941.427002,1056.130005,939.877014,1053.624756,941.208374C1052.589966,941.755981,1049.77002,943.715027,1047.351929,945.561218C1043.079956,948.822021,1041.76001,949.242981,1031.764404,950.515137C1027.72998,951.028992,1026.02002,952.041992,1020.235474,957.352417C1011.559998,965.314026,1005.51001,968.947021,981.796814,980.439636C959.375977,991.304993,948.72998,995.585999,933.5,999.861938C910.685974,1006.27002,890.809998,1009.780029,862,1012.499512C852.924988,1013.359985,840.325012,1014.690002,834,1015.466187C827.674988,1016.23999,815.075012,1017.159973,806,1017.51532C796.924988,1017.869995,779.848022,1019.02002,768.052002,1020.07782C751.213989,1021.590027,737.995972,1022,706.552002,1021.994324C654.018982,1021.98999,622.109985,1019.369995,598.223389,1013.114624C535.776001,996.757996,532.27301,995.632019,501.424744,981.998108C492.752014,978.164978,482.92099,973.344971,479.578156,971.287354C473.707001,967.672974,473.175995,967.544006,464,967.483582C456.316986,967.432983,453.501007,966.97699,449.275116,965.098389C445.454987,963.400024,443.035004,962.934998,440.275116,963.369995C428.264008,965.262024,424.528992,965.213989,419.212982,963.101501C413.364014,960.776978,409.251007,960.484009,403.993408,962.020691C402.071991,962.58197,394.424988,963.718018,387,964.545471C361.52301,967.383972,351.890015,969.541016,330.597809,977.174805C311.063995,984.177979,308.56601,985.625,296.83252,996.725037C291.149994,1002.099976,283.527008,1008.890015,279.894196,1011.807617C276.260986,1014.72998,269.770996,1021.179993,265.472931,1026.158203C252.292007,1041.410034,240.125,1050.949951,218.5,1063.010132C202.074005,1072.170044,184.296997,1084.26001,175.131485,1092.517334C166.132004,1100.619995,165.190994,1101.099976,156.600204,1101.865356L149.5,1102.5L147.281815,1107C146.061996,1109.469971,144.087006,1115.180054,142.892929,1119.66687C139.184006,1133.619995,141.684998,1134.449951,153.372192,1123.128784z"/>
    <path transform="matrix(-0.26455,0,0,-0.26455,-940.719971,-298.290283)" style="stroke:#000000;stroke-width:0.05mm;fill:none" d="M156.680481,1084.931396C158.225998,1084.339966,162.643005,1081.27002,166.49559,1078.094971C176.992996,1069.449951,196.875,1056.160034,211.5,1048.020386C231.731003,1036.75,240.020004,1029.98999,254.630325,1012.820313C258.692993,1008.049988,265.950012,1001.030029,270.75824,997.2323C275.56601,993.432983,283.549988,986.268005,288.5,981.310242C293.450012,976.353027,298.984985,971.531982,300.799683,970.596924C306.569,967.625,338.118988,956.958008,348.5,954.469055C354,953.150024,367.868011,950.700989,379.317871,949.026428C390.768005,947.35199,401.444,945.304016,403.043793,944.477356C405.330994,943.294983,406.290009,941.747986,407.535583,937.236755C408.407013,934.08197,410.921997,927.310974,413.12558,922.19104C415.32901,917.070984,419.402008,905.820984,422.176147,897.19104C428.532013,877.421021,429.283997,868.83197,426.047424,853C422.697998,836.616028,416.171997,814.812012,413.890472,812.383423C412.77301,811.19397,409.752991,809.633972,407.179138,808.917847C404.605988,808.202026,396.649994,804.664001,389.5,801.057739C382.350006,797.450989,372.479004,792.713989,367.563446,790.531677C357.018005,785.848999,349.51001,780.526978,338.25354,769.756958C329.112,761.01001,326.404999,760.202026,322.743378,765.129822C319.946991,768.893005,321.199005,771.512024,327.816223,775.745422C330.916992,777.729004,336.399994,782.119019,340.002106,785.501953C347.908997,792.927979,352.404999,795.627014,365.56488,800.845215C380.475006,806.757996,397.983002,815.429016,402.284424,819.032532C407.22699,823.171997,410.441986,829.698975,413.462799,841.723572C417.26001,856.838989,418.424988,868.232971,417.075958,877.06012C415.731995,885.853027,406.334015,914.43103,401.38739,924.765686C395.855011,936.322998,394.134003,937.059021,361.043304,942.006409C353.09201,943.195007,341.617004,945.66803,335.543304,947.502563C311.798004,954.672974,300.333008,958.21698,296.430298,959.592834C291.928986,961.179993,288.399994,964.286987,279.588287,974.422729C276.337006,978.163025,269.587006,984.250977,264.588287,987.95282C254.824997,995.182983,250.878006,999.190002,241.5,1011.396118C233.656998,1021.599976,223.149002,1029.900024,207.333893,1038.378662C191.529999,1046.849976,180.636002,1054.030029,171.556229,1061.961548C160.296997,1071.800049,155.751007,1071.890015,144,1062.526245C140.425003,1059.680054,133.675003,1054.599976,129,1051.252441C124.324997,1047.900024,118.174004,1042.76001,115.330711,1039.828979C101.037003,1025.089966,85.407303,998.955017,84.339241,988C83.997597,984.494995,84.320297,981.017029,85.228935,978.411377C89.418999,966.396973,114.912003,936.624023,125.370148,931.531311C131.628998,928.484009,149.322998,926.645996,163.352005,927.587952L172.5,928.201965L180.745285,922.851013C185.279999,919.90802,191.679993,915.968994,194.965973,914.098206C203.266998,909.372009,210.548996,902.61499,219.608093,891.229797C223.865997,885.877991,230.197006,878.505981,233.675186,874.847229C237.154007,871.187988,240.028,868.038025,240.062927,867.847229C240.098007,867.656006,240.481003,863.788025,240.914505,859.25116C241.664993,851.403992,241.936996,850.703979,246.514832,844.877808C251.173004,838.947998,251.350006,838.478027,252.055634,830.126648C252.457001,825.382019,253.552002,818.575012,254.490448,815C255.429001,811.424988,257.493988,801.75,259.080994,793.5C262.665009,774.864014,265.571991,768.661987,278.050781,753.021301C289.205994,739.039978,302.274994,720.934021,308.84668,710.358398C311.532013,706.036011,316.938995,697.575989,320.861847,691.55719C325.088013,685.072998,329.484009,676.721008,331.650024,671.05719C333.661011,665.801025,337.937988,654.854004,341.154694,646.731812C345.498993,635.760986,347.389008,629.396973,348.502594,621.982666C349.5,615.34198,351.039001,609.807007,353.100403,605.443298C356.470001,598.312012,356.468994,598.351013,353.747223,582.5C352.897003,577.549988,351.667999,569.674988,351.016479,565C350.36499,560.325012,348.247009,550.018982,346.311981,542.09845C342.501007,526.502014,342.468994,523.25,346.045013,515.165344C348.921997,508.661011,348.518005,504.266998,344.124298,494.282471C341.993011,489.437988,338.098999,479.406006,335.472137,471.98761C325.303986,443.274994,311.583008,413.742004,304.868042,406.112732C301.627991,402.432007,301,401.002991,301,397.313751C301,393.971008,301.591003,392.317993,303.454559,390.454559C308.756012,385.153015,319,388.718994,319,395.867188C319,397.493988,320.569,401.677002,322.487122,405.162628C330.214996,419.205994,345.089996,450.205994,349.508026,461.471619C352.089996,468.056,356.139008,477.299988,358.506561,482.013062C360.873993,486.72699,363.324005,492.588989,363.952087,495.041473C366.019012,503.114014,367.110992,504.787994,373.012115,508.92749C376.223999,511.179993,379.757996,514.48999,380.865967,516.283142C383.627991,520.752014,393.654999,550.544006,395.990753,561.221069C398.195007,571.296021,398.641998,572.276978,405.016357,581C410.838989,588.968994,416.141998,599.403992,419.608307,609.717224C424.252014,623.531006,422.463013,632.638,409.888397,659.193787C396.415985,687.64801,395.963989,692.677002,406.1008,701.354248C411.078003,705.61499,423.782013,712.354004,429.916443,713.989563C436.265991,715.682007,441.441986,713.937012,449.158173,707.50415C460.800995,697.797974,475.815002,677.575012,478.974762,667.346313C481.234009,660.031006,481.444,655.187012,480.481384,632.5C479.899994,618.786011,480.075989,613.697998,481.392883,606.17572C483.23999,595.627014,484.666992,592.353027,490.134827,586.122681C494.356995,581.312012,495.980011,576.85498,496.006165,570C496.080994,550.554993,502.494995,520.609985,507.518951,516.25C510.365997,513.778992,510.622986,513.723999,519.972168,513.591675C526.012024,513.505981,526.533997,513.315002,527.784424,510.733917C529.689026,506.803986,528.666992,504.743011,522.504456,500.091095C513.958984,493.639008,512.58197,494.226013,503.324188,508.265625C492.466003,524.731018,490.756989,529.492004,482.59256,566C479.600006,579.382019,470.498993,614.617981,469.080261,618.315125C467.513,622.400024,467.742004,625.937012,470,632.5C474.790009,646.421021,470.737,664.320007,458.638733,682.684509C448.709991,697.755981,441.929993,703.008972,432.434265,702.990234C422.735992,702.971008,412.059998,695.465027,410.590698,687.631775C409.487,681.75,413.546997,670.398987,419.673828,662.235474C423.411987,657.254028,426.740997,649.200012,428.010773,642.062988C428.640991,638.52301,430.246002,633.474976,431.577911,630.846252C432.910004,628.21698,434,624.344971,434,622.24115C434,618.434998,424.730988,595.156006,414.703156,573.77948C412.195007,568.432983,407.795013,557.857971,404.924469,550.27948C396.884003,529.049988,393.70401,521.914978,386.163635,508.187622C382.330994,501.209015,371.592987,480.200012,362.30246,461.5C344.226013,425.117004,331.213989,401.803986,325.085785,394.823029C322.998993,392.445007,319.234985,387.287994,316.723297,383.361237C309.184998,371.579987,305.628998,370.321991,301.02478,377.805298C299.398987,380.447998,296.252991,384.069,294.034027,385.852417C288.953003,389.934998,288.89801,392.179993,293.704376,399.137787C301.901001,411.002991,314.661987,443.332001,325.621918,480C331.209991,498.696014,332.244995,503.457001,333.560455,516.5C334.391998,524.75,336.149994,539.375,337.467377,549C342.971008,589.221008,343.235992,592.270996,342.068146,601.878906C337.087006,642.846008,313.678986,689.921997,271.399536,744C254.867004,765.145996,250.516006,774.723999,247.536911,796.528137C244.378998,819.635986,239.044006,837.671997,229.472046,857.595581C217.983002,881.51001,193.531006,905.752991,173.359665,913.229614C160.436996,918.02002,147.296997,918.883972,125.2211,916.397705C119.063004,915.703979,117.334,916.705017,116.437302,921.482544C115.450996,926.742004,112.538002,930.559998,106.260834,934.822876C97.070801,941.064026,89.785301,949.653992,84.459846,960.529541C80.451202,968.716003,78.987701,970.684998,74.384949,974.085022C67.883003,978.888,67.707497,980.263,72.45372,989.206787C74.353302,992.786011,77.277397,999.164001,78.951714,1003.378418C90.377403,1032.140015,107.377998,1051.939941,132.454514,1065.675781C138.886002,1069.199951,142.013,1071.609985,144.12056,1074.675293C145.703995,1076.97998,147,1079.280029,147,1079.78418C147,1081.060059,151.679993,1086,152.887146,1086C153.427994,1086,155.134995,1085.52002,156.680481,1084.931396z"/>
    <path transform="matrix(-0.26455,0,0,-0.26455,-940.719971,-298.290283)" style="stroke:#000000;stroke-width:0.05mm;fill:none" d="M166.543274,1044.888916C174.192993,1038.329956,180.194,1034.449951,195.276779,1026.314575C216.843002,1014.690002,222.406998,1009.960022,234.6315,992.84198C239.714005,985.726013,242.451004,983.059998,250.6315,977.252441C260.174988,970.478027,265.243011,965.643005,275.241425,953.77948C280.661011,947.348022,286.453003,944.221008,298,941.490234C302.125,940.515015,311.575012,937.737976,319,935.319397C333.095001,930.728027,348.869995,927.211975,367.5,924.507324C373.549988,923.629028,380.075012,922.103027,382,921.115784C386.32901,918.895996,389.016998,913.653992,395.647858,894.5C400.45401,880.617004,400.493988,880.395996,400.458466,868C400.415985,853.408997,397.730988,841.015991,393.205627,834.519714C389.924988,829.809998,378.229004,823.234009,362,816.972534C341.04599,808.888,339.412994,807.872009,324,793.326416C312.11499,782.109985,310.515991,781.393005,306.454559,785.454529C303.490997,788.41803,303.130005,793.929993,305.75,796.218323C306.712006,797.059021,309.278992,798.065979,311.453491,798.456848C318.782013,799.77301,322.395996,802.388977,325.85788,808.884766C329.924011,816.513977,332.39801,818.424988,340.196594,819.958923C349.102997,821.710999,370.755005,830.366028,376.58017,834.50238C387.018005,841.914001,390.487,849.911011,390.461853,866.5C390.436005,883.664001,384.260986,903.22998,376.916565,909.422485C371.838989,913.703003,368.69101,914.700012,353.184326,916.938721C334.782013,919.594971,332.109985,920.210999,315.5,925.627625C307.799988,928.138977,296.355988,931.260986,290.068176,932.566223C276.610992,935.359985,274.114014,936.867004,266.891541,946.556885C258.88501,957.299011,255.253006,960.771973,245,967.493347C233.470993,975.049988,230.057999,978.414978,224.702667,987.5C222.432999,991.349976,217.408997,997.690979,213.538101,1001.591492C207.455002,1007.719971,204.619995,1009.619995,192.651917,1015.591492C184.757004,1019.530029,176.117996,1024.709961,172.556839,1027.644165C164.673004,1034.140015,161.061996,1036,156.365387,1036C148.365005,1036,137.964005,1027.780029,132.623215,1017.243225C131.059006,1014.159973,127.396004,1009.840027,123.11718,1006.03418C112.332001,996.448975,110.513,989.296021,116.045082,978.225708C119.573997,971.164001,129.162994,961.700012,135.734222,958.793396C138.223007,957.692993,144.024994,956.560974,149.579346,956.091858C156.518997,955.505981,159.848007,954.757996,161.717468,953.361633C165.453995,950.572021,166.289993,947.580017,164.092789,944.866272C162.298996,942.651001,162.195999,942.643982,149.990326,943.838318C142.298996,944.591003,136.039993,945.77301,133.27533,946.996338C124.831001,950.731995,104.898003,972.718994,102.002777,981.491577C99.624802,988.697021,103.280998,997.517029,115.394241,1013.792786C126.233002,1028.359985,129.134995,1031.300049,142.384018,1041.157349C156.990005,1052.030029,158.037003,1052.189941,166.543274,1044.888916z"/>
    <path transform="matrix(-0.26455,0,0,-0.26455,-940.719971,-298.290283)" style="stroke:#000000;stroke-width:0.05mm;fill:none" d="M1427.40979,1042.861694C1432.390015,1040.959961,1433.619995,1040.849976,1438.650024,1041.858643C1446.079956,1043.349976,1447.390015,1042.369995,1446.75061,1035.756226C1446.300049,1031.109985,1443.119995,1026,1440.663208,1026C1440.119995,1026,1437.609985,1027.310059,1435.087524,1028.919067C1432.530029,1030.540039,1428.280029,1032.150024,1425.5,1032.546997C1418.170044,1033.589966,1417,1034.449951,1417,1038.835205C1417,1042.640015,1418.390015,1045,1420.610962,1045C1421.280029,1045,1424.339966,1044.040039,1427.40979,1042.861694z"/>
    <path transform="matrix(-0.26455,0,0,-0.26455,-940.719971,-298.290283)" style="stroke:#000000;stroke-width:0.05mm;fill:none" d="M159.315735,1016.846375C160.516998,1016.210022,163.645996,1013.77002,166.269028,1011.426514C169.294006,1008.719971,174.389008,1005.77002,180.201126,1003.362183C197.237,996.301025,203.335999,991.080017,211.927994,976.203857C217.875,965.90802,220.968002,962.752991,231.360352,956.380798C242.602997,949.487,246.302002,946.039978,255.077011,934.276001C264.591003,921.521973,268.105011,919.499023,286,916.477905C291.225006,915.596008,300.899994,913.078003,307.5,910.881958C323.273987,905.633972,332.944,903.349976,347.401794,901.454468C360.359985,899.755981,363.471008,898.60498,367.250092,894.114624C370.783997,889.914978,374.256989,876.328979,374.310638,866.5C374.395996,850.820984,367.701996,844.84198,341.392181,837.093262C330.251007,833.812012,327.295013,834.174988,319.899353,839.734924L313.600555,844.469788L303.968567,844.984924C294.615997,845.484985,294.151001,845.625977,287.918304,849.83606C280.924011,854.562012,282.027008,854.432983,265.892853,852.401489C261.730011,851.877014,261.07901,852.083984,259.142853,854.545532C256.652008,857.711975,256.321991,863.192993,258.513214,865.010986C262.299011,868.153015,281.091003,863.784973,319.102844,850.925171C327.593994,848.052979,332.343994,847,336.815338,847C347.648987,847,358.686005,852.705017,362.734497,860.398438C365.243011,865.164001,364.940002,875.426025,362.120056,881.252014C358.209015,889.33197,353.411987,891.517029,336.301819,893.017395C327.161011,893.81897,322.412994,894.883972,311.735565,898.532104C294.778015,904.325012,285.774994,906.58197,274.133392,907.960449C268.981995,908.570007,263.582001,909.690002,262.133392,910.44928C258.730988,912.232971,254.468002,916.88501,248.779755,925.025208C242.427002,934.116028,231.434006,944.161011,222.432449,949.101624C211.339996,955.190002,209.567001,957.051025,203.415771,969.077759C195.376999,984.79303,187.826004,990.687012,167,997.498413C156.082993,1001.070007,149.363007,1004.450012,147.952164,1007.089417C146.442993,1009.909973,148.410004,1014.609985,151.888046,1016.500427C155.115997,1018.25,156.524994,1018.320007,159.315735,1016.846375z"/>
    <path transform="matrix(-0.26455,0,0,-0.26455,-940.719971,-298.290283)" style="stroke:#000000;stroke-width:0.05mm;fill:none" d="M1423.69873,1015.496826C1433.900024,1012.469971,1433.25,1009.380005,1420.71167,1001.116272C1415.650024,997.778992,1408.400024,992.60199,1404.621094,989.610046C1397.359985,983.869019,1382.650024,975.815002,1367.263794,969.157898C1362.180054,966.960022,1355.430054,963.609009,1352.263794,961.711853C1344.069946,956.807983,1341.619995,956.400024,1339.156006,959.528748C1338.060059,960.919983,1336.859985,963.896973,1336.475586,966.144348C1335.5,971.900024,1337.540039,973.624023,1347,975.043701C1359.380005,976.901978,1379.47998,985.577026,1394.651367,995.606384C1400.829956,999.689026,1403.709961,1002.390015,1406.55188,1006.747925C1413.75,1017.799988,1414.560059,1018.210022,1423.69873,1015.496826z"/>
    <path transform="matrix(-0.26455,0,0,-0.26455,-940.719971,-298.290283)" style="stroke:#000000;stroke-width:0.05mm;fill:none" d="M765.5,1003.546387C771.549988,1002.700012,787.075012,1001.570007,800,1001.054626C812.924988,1000.539978,828.224976,999.434998,834,998.610535C839.775024,997.786011,852.599976,996.395996,862.5,995.522522C905.226013,991.752991,932.747986,984.963989,964.06012,970.472168C985.106995,960.731018,993.749023,956.22998,1001.674988,950.881897C1009.900024,945.333984,1012,942.812988,1012,938.503296C1012,933.924988,1004.22998,921.153015,995.732788,911.759705C986.020996,901.025024,983.794006,896.599976,983.21344,886.881287C982.676025,877.888,983.950989,873.265015,988.34729,868.257263C994.515991,861.231018,1003.830017,859.39502,1018.123291,862.38562C1021.77002,863.14801,1025.939941,863.54303,1027.401733,863.26355C1033.369995,862.122009,1035.170044,852.768982,1029.961304,849.979309C1027.52002,848.674011,994.70697,853.390015,987.519714,856.078491C981.156982,858.458984,976.440979,863.341003,975.299316,868.728638C974.859985,870.802979,974.5,879.494995,974.5,888.045227C974.5,906.025024,974.758972,906.742004,983.297241,912.409241C986.562988,914.577026,990.843994,918.90802,994.318481,923.56012C999.213989,930.11499,1000,931.775024,1000,935.567627C1000,941.825012,996.728027,944.883972,984,950.526489C978.224976,953.086975,966.525024,958.481995,958,962.516052C927.992004,976.716003,900.840027,982.989014,856.5,985.967041C848.799988,986.484009,836.650024,987.867981,829.5,989.042297C818.461975,990.85498,814.312012,991.073975,802,990.492798C789.669006,989.911011,785.780029,990.117004,776,991.872253C769.674988,993.007019,759.840027,994.401001,754.144043,994.968079C738.768982,996.5,682.708008,996.226013,656.922607,994.492798C620.890991,992.070984,611.348022,990.406982,593.5,983.434387C585.151978,980.172974,579.606018,978.742981,570.5,977.501648C553.848022,975.231995,544.663025,972.752991,529,966.300598C510.694,958.758972,498.372009,952.33197,496.097076,949.136353C489.485992,939.85199,491.322998,930.478027,506.444397,896.342224C511.835999,884.169983,512.017029,878.932007,507.678497,860.5C502.911987,840.245972,499,819.817017,499,815.174988C499,813.078003,499.707001,808.982971,500.570496,806.074585C502.011993,801.221008,504.201996,798.679016,527.229004,775.143127C541.026978,761.039001,555.679993,745.562988,559.789978,740.750305C571.784973,726.705994,575.268005,725.499023,594,728.889587C619.679016,733.538025,657.833984,738.125,695,741.032166C702.424988,741.612976,713.450012,742.758972,719.5,743.578613C728.077026,744.741028,735.552979,744.916016,753.441589,744.374817C775.570007,743.705017,776.560974,743.588013,781.387146,741.066406C789.018982,737.078979,799.650024,723.487,807.053284,708.25C810.327026,701.512024,814.513977,694.312012,816.358337,692.25C820.833008,687.244995,821.61499,685.586975,823.587769,676.913818C825.138977,670.094971,825.711975,669.093018,830.974548,664.01062C837.734985,657.481018,838.398987,656.338989,840.004639,648.5C840.679993,645.200012,844.627014,634.849976,848.774597,625.5C852.921997,616.150024,858.487976,603.549988,861.141907,597.5C863.796021,591.450012,866.91803,582.224976,868.079834,577C869.242004,571.775024,871.291016,562.869995,872.633789,557.210022C875.552979,544.908997,875.205017,542.05603,869.972595,535.409485C867.846985,532.708984,863.539978,527.125,860.401672,523C857.263,518.875,852.914001,513.632019,850.735901,511.348267C845.432007,505.786987,844.622009,500.138,848.390259,495C854.192993,487.088013,854.109009,483.658997,848.034302,480.517761C844.312988,478.593994,842.065979,479.539001,839.151794,484.254395C838.036987,486.058014,835.971985,488.617004,834.562378,489.941376C830.255981,493.987,831.078979,497.019012,838.75,505.360352C845.844971,513.075989,856.005981,528.702026,859.975769,538C865.481995,550.896973,860.596008,574.310974,845.055786,609.5C842.383972,615.549988,837.629028,626.349976,834.489014,633.5C829.416016,645.052002,821.77002,659.786011,800.497131,699C797.065979,705.325012,792.776978,713.333008,790.965271,716.796448C786.632996,725.078979,781.143005,730.460022,774.913696,732.528625C767.172974,735.099976,725.284973,733.958984,684.5,730.067505C678.450012,729.48999,668.864014,728.572021,663.198547,728.027588C642.192017,726.007996,601.114014,720.414001,581.382813,716.883972C565.926025,714.119019,564.739014,714.408997,562.046265,721.605896C560.29303,726.291992,557.291992,730.013,543.724854,744.324585C524.075012,765.052979,515.494019,773.705994,502.889221,785.504211C485.403992,801.870972,485.209015,803.327026,494.666534,847C501.640991,879.205994,501.536987,882.465027,492.882568,902.755981C485.850006,919.244995,484.162994,925.304016,482.919128,938.529175C481.890015,949.471985,481.938995,951.257996,483.325134,953.373474C486.22699,957.802002,521.752991,974.422974,543.326904,981.445007C548.921997,983.265991,559.260986,985.955017,566.301208,987.419739C573.34198,988.88501,584.142029,991.674011,590.301208,993.618042C610.593994,1000.02002,625.729004,1002.419983,662,1004.952087C681.913025,1006.340027,752.419006,1005.390015,765.5,1003.546387z"/>
    <path transform="matrix(-0.26455,0,0,-0.26455,-940.719971,-298.290283)" style="stroke:#000000;stroke-width:0.05mm;fill:none" d="M143.459579,990.036621C147.5,986.377991,150.459,984.653015,154.720169,983.47522C177.979004,977.044983,181.722,974.835999,187.014542,964.418335C188.947998,960.612976,191.367004,955.531006,192.391907,953.125244C194.929993,947.164001,200.149994,942.38501,210.258209,936.768738C222.901993,929.742981,227.804993,925.385986,237.179092,912.846375C241.843994,906.606018,247.306,900.057007,249.31636,898.292908C253.408997,894.702026,261.238007,892,267.550507,892C275.528015,892,288.575989,889.025024,305,883.461792C319.075012,878.69397,323.042999,877.762024,332,877.120544C343.259003,876.314026,346.475006,875.22998,347.537811,871.880859C348.494995,868.866028,345.082001,864.695984,340.760651,863.59967C337.790009,862.846008,334.798004,863.448975,322.356476,867.309082C270.641998,883.35498,269.816986,883.549011,260.292175,881.890442C250.069,880.109985,249.826004,880.296997,228.565094,906.360352C218.781998,918.353027,213.447006,922.705017,195.661118,933.19696C182.779007,940.796997,181,942.945007,181,950.902771C181,962.877991,172.716003,969.257996,153.034912,972.441528C143.143997,974.041016,137.932007,976.309998,133.550003,980.921875C129.757996,984.913025,129.473007,990.344971,132.910782,993.128845C136.279007,995.856018,137.393997,995.528992,143.459579,990.036621z"/>
    <path transform="matrix(-0.26455,0,0,-0.26455,-940.719971,-298.290283)" style="stroke:#000000;stroke-width:0.05mm;fill:none" d="M747.5,978.962769C754.099976,978.403992,765.307983,976.791992,772.406372,975.38092C784.375,973.002014,786.518982,972.866028,801.906372,973.50885C816.557983,974.120972,819.780029,973.953003,829.434875,972.075134C835.45697,970.903992,848.487,969.494019,858.434875,968.937927C898.234009,966.711975,925.619995,960.242004,951.438599,946.965576C958.622009,943.271973,967.093994,939.434021,970.264404,938.437439C977.502991,936.161987,979.718994,933.945984,978.42688,930.272583C977.258972,926.952026,971.754028,923.593018,968.730408,924.35553C967.504028,924.664978,963.817993,927.187988,960.539429,929.96228C950.838989,938.171021,931.77301,946.728027,911.432556,952.001648C896.085022,955.981018,881.133972,957.887024,856.545471,959.000122C839.776001,959.758972,833.403992,960.466003,825.186279,962.47644C812.737976,965.521973,806.716003,965.646973,800,963C793.565979,960.463989,788.838013,960.473999,781.406555,963.038391C778.15802,964.159973,769.875,966.052002,763,967.244751C751.833008,969.182007,746.768982,969.416992,715.5,969.456299C681.911987,969.497986,646.252991,968.015015,629.650208,965.88446C616.646973,964.216003,605.684998,960.523987,597.280701,954.983032L589.73407,950.007385L580.117065,950.636902C564.533997,951.656982,546.377991,947.898987,532.825317,940.848267C524.379028,936.453979,521,932.552979,521,927.197083C521,922.682007,522.47998,919.523987,526.830383,914.75769C532.08197,909.002991,533.083008,906.83197,534.056824,899.074707C534.515015,895.422974,536.036011,889.973999,537.435486,886.967407C540.604004,880.161011,540.603027,879.075012,537.42627,869.982178C533.945007,860.017029,528.039978,835.234985,527.326416,827.592285C526.921021,823.254028,527.25,819.651978,528.417847,815.634583C530.148987,809.679993,532.388,807.125,571.246399,766.760559C582.359009,755.218018,588.012024,754.08197,612.757874,758.422974C634.427002,762.223999,660.901001,765.151001,695,767.515015C700.224976,767.877014,710.049011,769.26001,716.83075,770.586853C731.926025,773.541016,731.481018,773.538025,753.037781,770.814758C768.812012,768.822021,771.289001,768.734009,777.669556,769.937622C781.570984,770.674011,785.981018,770.971008,787.468933,770.597168C791.083984,769.690002,807.783997,753.411987,814.729736,744.024597C817.791992,739.885986,822.549011,734.210999,825.301941,731.413086C828.932007,727.723999,831.362976,723.877991,834.150635,717.413086C836.265015,712.510986,837.995972,707.63501,837.997375,706.578735C838.000977,703.916016,835.127014,701,832.5,701C829.374023,701,827.697998,703.291992,823.24054,713.660889C818.893005,723.775024,813.867004,731.231995,802.822327,743.957947C791.23999,757.302979,786.096985,760.010986,772.383972,759.985352C768.047974,759.97699,757.299988,760.500977,748.5,761.149292C733.758972,762.234985,731.320007,762.161011,717.5,760.201904C709.25,759.03302,696.200012,757.586975,688.5,756.990234C654.452026,754.349976,617.89801,749.898987,593.298096,745.397766C580.879028,743.125,579.528992,743.731018,566.978271,757.195435C561.215027,763.377991,548.052979,777.080994,537.728821,787.646973C526.851013,798.780029,518.335999,808.344971,517.478821,810.396484C516.664978,812.343018,516,815.719971,516,817.901733C516,822.429993,521.958984,852.025024,524.97699,862.482849C529.403992,877.822998,528.674988,886.927979,521.773193,902.5C519.578979,907.450012,516.03302,915.445007,513.892212,920.266113C509.321014,930.562988,508.803986,936.338989,512.133911,939.91333C513.307007,941.172974,517.244995,943.546997,520.883911,945.18866C546.679993,956.827026,554.995972,959.336975,573.133423,960.963379C585.36499,962.059998,588.34198,962.85498,601.825378,968.624573C616.065979,974.718018,623.901978,975.796997,679.5,979.32251C692.013,980.116028,736.679016,979.880005,747.5,978.962769z"/>
    <path transform="matrix(-0.26455,0,0,-0.26455,-940.719971,-298.290283)" style="stroke:#000000;stroke-width:0.05mm;fill:none" d="M1318.788208,967.75C1320.099976,966.159973,1323,955.04303,1323,951.590942C1323,948.44397,1319.079956,945.718018,1311.199341,943.39325C1308.280029,942.53302,1303.109985,940.565002,1299.699341,939.020691C1284.119995,931.965027,1234.219971,918.030029,1196.133789,910.096924C1188.369995,908.479004,1177.349976,905.33197,1171.644775,903.102966C1165.939941,900.874023,1156.829956,897.932983,1151.389893,896.567444C1135,892.453003,1102.23999,885.981018,1090.000732,884.439087C1076.150024,882.695007,1069.300049,879.771973,1064.936157,873.753235C1060.699951,867.898987,1060.079956,864.778992,1058.472534,841.216675C1056.199951,807.791016,1050.77002,786.174988,1036.000854,751.80896C1026,728.525024,1019.640015,709.710022,1017.400085,696.718567C1016.530029,691.672974,1015.809998,680.823975,1015.713806,671.218567C1015.549988,655.414001,1015.72998,653.734985,1018.886719,640.5C1027.73999,603.427979,1035.099976,580.78302,1045.059082,560C1053.089966,543.254028,1056,534.661011,1056,527.747986C1056,522.229004,1051.300049,500.096985,1047.778442,489C1044.579956,478.927002,1041.050049,471.287994,1035.651001,462.735352C1031.650024,456.403015,1029.47998,451.005005,1028.516357,445C1027.339966,437.686005,1021.119995,419.302002,1015.885986,407.675018C1013.210022,401.721008,1010.119995,393.251007,1009.022583,388.851837C1007.929993,384.453003,1006.090027,379.537994,1004.949585,377.929199C1002.799988,374.903992,998.455017,373.087006,997.053711,374.62323C996.614014,375.105011,995.968018,380.498993,995.617798,386.60791L994.98175,397.71582L998.857788,402.60791C1004.140015,409.270996,1006.090027,413.42099,1010.829224,428C1016.210022,444.569,1016.76001,446.885986,1017.841125,457.855591C1018.890015,468.468994,1019.650024,469.640991,1027.267212,472.432098C1036.170044,475.692993,1039.660034,483.743988,1040.962036,504C1041.579956,513.544983,1042.290039,517.655029,1043.990234,521.387756C1048.459961,531.210999,1045.089966,543.961975,1034.404907,557.641724C1027.719971,566.203003,1026.140015,569.864014,1023.981079,581.862122C1022.909973,587.799011,1020.429993,597.570984,1018.467712,603.578308C1016.5,609.585022,1013.76001,619.224976,1012.376587,625C1010.98999,630.775024,1008.539978,639.66803,1006.927673,644.761963C1003.200012,656.546997,1003.219971,660.786011,1007.059082,687.354004C1012.22998,723.090027,1013.02002,725.755005,1027.85376,757.5C1037.01001,777.101013,1039.819946,785.684021,1040.62854,796.631897C1041.199951,804.286011,1041.810059,806.504028,1045.143433,812.835022C1049.339966,820.817017,1049.579956,822.585022,1047.83667,832.746887C1046.859985,838.432007,1046.939941,840.872986,1048.342896,847.816589C1049.26001,852.374023,1049.75,857.143982,1049.431519,858.41687C1048.349976,862.744995,1050.949951,868.47998,1059.236816,880C1069.849976,894.757996,1072.48999,896.333984,1084.996948,895.39917C1092.050049,894.872009,1096.390015,895.288025,1110.5,897.847717C1119.849976,899.544006,1131.550049,901.421997,1136.5,902.021362C1153.650024,904.098022,1157.579956,905.551025,1165.222412,912.645813C1171.089966,918.090027,1171.910034,918.396973,1186.019287,920.42627C1200.380005,922.491028,1230.380005,928.547974,1261,935.563171C1299.199951,944.314026,1303.079956,945.471008,1306.31311,949.053345C1308.910034,951.935974,1309.099976,952.705017,1308.839966,959.186646C1308.599976,965.143005,1308.839966,966.411011,1310.467896,967.60022C1312.839966,969.338013,1317.410034,969.419983,1318.788208,967.75z"/>
    <path transform="matrix(-0.26455,0,0,-0.26455,-940.719971,-298.290283)" style="stroke:#000000;stroke-width:0.05mm;fill:none" d="M66.350182,959.25C68.780197,954.987,72.252899,948.901978,74.067299,945.725769C78.469597,938.02002,84.9431,930.575012,92.385162,924.658997C105.375,914.333008,107.133003,911.607971,102.777496,908.556702C99.651703,906.367004,93.789299,906.591003,90.704247,909.018005C86.701302,912.166992,71.199097,931.27002,61.968147,944.429382C52.9734,957.252014,51.8088,960.921021,55.454987,964.950256C59.095402,968.973022,61.534801,967.697021,66.350182,959.25z"/>
    <path transform="matrix(-0.26455,0,0,-0.26455,-940.719971,-298.290283)" style="stroke:#000000;stroke-width:0.05mm;fill:none" d="M753.919189,951.987061C765.219971,950.254028,780.203003,946.218994,783,944.156006C784.375,943.142029,786.625,939.560974,788,936.198853C789.375,932.836975,791.820007,928.718018,793.434326,927.045715C800.299988,919.932007,819.742981,916.448975,860.5,915.03009C890.140991,913.997986,896.479004,913.049988,912,907.324463C929.513,900.864014,931.987976,897.953979,932.017334,883.782104C932.038025,873.973999,933.52301,858.507019,935.116516,851.5C939.927979,830.344971,954.625,819.372986,986.682495,813.003113C1003.159973,809.72998,1019.039978,804.435974,1021.855225,801.282043C1023.880005,799.018982,1024.119995,797.974976,1023.586914,793.943054C1022.619995,786.677002,1018.919983,776.997986,1010.168884,758.869507C998.505981,734.708984,996.606018,728.640015,993.048767,704.174744C991.375,692.666016,989.10498,678.869019,988.002991,673.514648C985.200989,659.895996,985.41803,655.619019,989.541382,643.181335C991.489014,637.307007,994.208008,628,995.582886,622.5C996.958008,617,999.862976,607.099976,1002.038818,600.5C1004.650024,592.567017,1006.47998,584.541016,1007.441589,576.819397C1009.039978,563.937988,1010.469971,560.288025,1017.178101,552.056091C1027.089966,539.890015,1029,536.804016,1029,532.968323C1029,523.687988,1022.659973,526.15802,1014.106873,538.768921C1010.849976,543.570984,1005.929993,550.143005,1003.163818,553.373962C996.344971,561.346985,995.39502,563.869019,996.846313,570.15448C998.765015,578.465027,998.254028,582.567993,993.984497,593.158508C991.776001,598.635986,988.35199,609.729004,986.375305,617.809082C984.398987,625.888977,980.955017,637,978.723145,642.5C973.671997,654.945984,973.536987,659.495972,977.780884,674.189575C981.773987,688.013977,984.997986,707.258972,985.894165,722.629517C986.601013,734.752991,986.632019,734.870972,990.31781,739.60199C993.838989,744.120972,994.622009,745.999023,996.972229,755.548218C997.52002,757.775024,999.830994,762.049988,1002.108398,765.048218C1007.409973,772.026001,1013,783.913025,1012.996277,788.184448C1012.98999,792.200989,1009.830017,797.682007,1006.752319,799.016479C1005.51001,799.552979,996.625,801.528992,987,803.406616C954.734009,809.702026,941.473999,816.89502,931.524231,833.5C926.242004,842.315002,925.015991,847.64801,923.976257,866.310425C922.919006,885.289001,921.718018,889.406982,915.689819,894.699219C911.325989,898.530029,899.909973,902.369019,888.051453,903.992981C883.487,904.617981,868.221008,905.28302,854.12616,905.470642C829.911987,905.79303,827.713013,905.982971,814.220825,908.904785C806.367004,910.606018,798.267029,912.695984,796.220825,913.549438C791.551025,915.497009,787.098999,919.752991,781.389038,927.728455C776.893005,934.008972,771.302979,938.174988,764.83429,940.066467C752.669006,943.624023,703.317993,945.289001,679.5,942.944397C674,942.403015,660.708008,941.557007,649.96228,941.065247C623.583008,939.856995,619.137024,938.909973,615.779663,933.786438C613.054993,929.627991,612.887024,925.767029,614.988342,915.55658C617.197998,904.815002,619.036011,900.799988,623.141846,897.740051C628.487,893.755981,633.208984,893.780029,661,897.927612C684.629028,901.453979,720.786011,902.940002,735.731567,900.99884C745.518005,899.728027,749.424988,897.486023,757.417603,888.555542C767.242981,877.578003,772.067017,875.078003,792.162964,870.550842C808.237976,866.929993,819.590027,863.257019,822.529114,860.726563C824.617004,858.929016,825.505981,856.572998,827.144348,848.5C828.26001,843,829.565002,836.700012,830.043213,834.5C830.521973,832.299988,830.934998,827.799988,830.962219,824.5C831.106995,806.906006,834.601013,799.197998,848.687988,785.397766C857.153992,777.104004,859,774.768005,859,772.347778C859,768.778992,857.40802,767,854.214355,767C852.590027,767,850.142029,768.833984,846.540955,772.75C843.632996,775.911987,837.763,782.294006,833.496521,786.931274C823.367004,797.942017,822.052002,800.927979,822.014343,813C821.97699,825.007019,820.504028,837.965027,818.487244,844.038513C816.471008,850.109985,811.062012,855.458984,804.432678,857.93927C801.536987,859.02301,792.942993,861.093994,785.334167,862.54248C766.59198,866.109985,763.846985,867.437012,754.202393,877.588806C748.405029,883.690979,744.570984,886.781982,740.344055,888.762268C734.760986,891.377991,733.695984,891.513977,716.5,891.815308C698.567993,892.129028,684.312012,890.940979,652,886.440125C644.377014,885.377991,637.296997,885.033997,631,885.418762C615.16803,886.385986,611.690002,888.171021,610.445435,895.965515C610.13501,897.908997,608.044006,907.69397,605.798218,917.708313C601.060974,938.833984,601.080017,938.942017,610.213013,943.393677C619.617981,947.978027,629.703979,949.877991,650.828979,951.04657C661.64801,951.64502,675,952.518005,680.5,952.987488C693.757019,954.117981,744.534973,953.426025,753.919189,951.987061z"/>
    <path transform="matrix(-0.26455,0,0,-0.26455,-940.719971,-298.290283)" style="stroke:#000000;stroke-width:0.05mm;fill:none" d="M464.747772,949.75C465.294006,949.062988,465.997009,943.775024,466.31076,938C466.983002,925.627991,469.100006,917.765015,476.804626,899.031494C482.196014,885.921021,482.371002,885.203979,482.405975,876C482.436005,868.077026,481.552002,862.515015,477.078064,842.5C470.313995,812.237976,469.89801,804.028992,474.6203,794C478.566986,785.617004,480.686005,783.190979,496.10788,769.403564C503.152008,763.106018,514.867004,751.325989,522.141235,743.226501C529.416016,735.127014,538.659973,725.064026,542.683655,720.864807C550.533997,712.671997,551.380005,710.362976,547.764526,706.995239C544.297974,703.765991,541.166992,704.783997,536.551331,710.641052C522.083008,729,517.778015,734.059021,507.407471,744.883667C501.036987,751.53302,492.151001,759.984009,487.66217,763.662354C470.589996,777.651978,467.977997,780.830994,463.525177,793.031616C459.588989,803.817993,459.742004,811.624023,464.261292,830.5C474.11499,871.659973,474.233002,878.11499,465.54892,900.871826C461.221008,912.213013,453,940.812988,453,944.528809C453,948.593018,455.615997,951,460.032532,951C462.079987,951,464.201996,950.437988,464.747772,949.75z"/>
    <path transform="matrix(-0.26455,0,0,-0.26455,-940.719971,-298.290283)" style="stroke:#000000;stroke-width:0.05mm;fill:none" d="M433.433716,947.848267C436.385986,946.502991,436.699005,945.710022,437.924072,936.458374C438.431,932.630981,442.514008,918.474976,446.996948,905C454.476013,882.52002,455.14801,879.840027,455.149384,872.5C455.151001,864.35498,452.558014,850.257996,446.930756,827.808472C442.128998,808.653015,443.269989,796.106018,451.418243,778.470581C455.549011,769.530029,459.632996,764.982971,472.407166,755.104065C484.94101,745.411011,505.954987,723.823975,515.598267,710.735657C519.596985,705.307983,524.861023,699.114014,527.295898,696.970764L531.722412,693.074402L532.515625,680.78717C534.685974,647.164978,533.273987,611.455994,528.510071,579.5C527.690002,574,526.627014,561.296021,526.14801,551.269226C525.234009,532.138,524.572021,529.632019,520.587524,530.201721C516.893005,530.72998,515.005005,536.390015,514.985291,547C514.974976,552.224976,514.536011,561.674988,514.008179,568C513.078003,579.148987,513.122009,579.637024,515.453186,584C516.776001,586.474976,518.992004,590.75,520.378784,593.5L522.900085,598.5L523.200073,636.5C523.588989,685.812988,523.851013,684.721008,506.392822,706.556213C487.723999,729.905029,474.812012,742.294983,457.131836,753.823547C449.987,758.482971,448.487,759.953979,446.872772,763.890015C445.833008,766.426025,443.39801,771.650024,441.462189,775.5C439.526001,779.349976,437.546997,784.978027,437.063416,788.005737C436.579987,791.033997,434.959015,796.495972,433.460724,800.143616L430.737091,806.775818L432.820648,813.637878C436.549011,825.91803,442.865997,852.721985,444.032776,861.210754C444.661011,865.786987,444.868011,872.411987,444.494751,876C443.671997,883.903992,432.382996,919.926025,426.943268,932.006714C422.360992,942.184021,421.890015,946.617981,425.25,947.968811C428.369995,949.223022,430.484985,949.192017,433.433716,947.848267z"/>
    <path transform="matrix(-0.26455,0,0,-0.26455,-940.719971,-298.290283)" style="stroke:#000000;stroke-width:0.05mm;fill:none" d="M820,946.420776C828.612976,943.749023,835.640015,942.945984,858.5,942.023132C872.945007,941.440002,885.843018,940.343994,893.177734,939.076538C906.85498,936.713013,924.60498,931.203979,934.5,926.250549C943.047974,921.971985,955.755981,913.323975,957.050232,910.906128C957.572998,909.929993,958,900.63501,958,890.24939C958,879.864014,958.48999,868.715027,959.089478,865.473877C961.255005,853.757996,966.471985,846.916992,976.699341,842.377563C983.354004,839.424011,1008.960022,834.062988,1020,833.312744C1025.469971,832.940979,1029.119995,832.192017,1030.25,831.212585C1032.689941,829.088013,1032.569946,822.823975,1030.039429,820.535706C1027.689941,818.406006,1024.900024,818.775024,1016.5,822.330261C1013.200012,823.72699,1004.419983,826.06897,997,827.535706C965.932007,833.671021,956.593994,839.184998,951.811157,854.21936C950.263977,859.083984,949.637024,864.896973,949.033508,880C948.158997,901.874023,947.163025,905.893982,941.35321,910.994751C936.45697,915.29303,927.552979,919.552979,914.132874,924.015503C897.346985,929.596985,887.835999,930.997986,860,931.986877C833.578979,932.924988,812.455017,935.195984,807.813049,937.59668C804.210999,939.458984,802.176025,943.469971,803.648743,945.804932C805.685974,949.033997,810.937012,949.231995,820,946.420776z"/>
    <path transform="matrix(-0.26455,0,0,-0.26455,-940.719971,-298.290283)" style="stroke:#000000;stroke-width:0.05mm;fill:none" d="M581.081238,933.994019C585.153015,932.862976,586.59198,930.669006,587.965149,923.5C588.492004,920.75,590.309998,912.424988,592.004456,905C593.698975,897.575012,594.953979,889.94397,594.793091,888.04248C594.468994,884.213989,592.228027,882.247009,578.81012,874.014709C564.911987,865.487,560.692993,859.937988,556.93457,845.244141C553.585999,832.150024,554.461975,824.702026,560.375427,816C565.640991,808.252991,586.044983,788.315002,591,786.076965C597.124023,783.309998,605.700989,783.421021,620.511292,786.459473C627.10498,787.812012,638.349976,789.382996,645.5,789.949768C658.900024,791.012024,686.249023,793.366028,703.057983,794.903259C710.723022,795.604004,713.872009,796.411987,718.960876,798.980225C723.434021,801.239014,726.218994,802.044006,728.402893,801.710754C730.106018,801.450989,738.382019,800.04303,746.79303,798.58197C757.005005,796.807983,764.755981,796.020996,770.121277,796.212708C777.116028,796.463013,778.341003,796.249023,779.578247,794.558899C780.359985,793.491028,781,791.633972,781,790.431335C781,784.883972,775.39801,784.294006,753.5,787.536987C733.570007,790.487976,727.815979,790.41803,714,787.055664C709.325012,785.91803,697.174988,784.309021,687,783.481262C650.659973,780.523987,635.252991,778.840027,618.018921,775.940674C598.403015,772.640991,592.187988,772.333984,588.069763,774.463928C583.731995,776.70697,548.236023,813.880981,545.978027,818.54541C544.890015,820.79303,544.01001,824.401978,544.021667,826.565735C544.059998,833.601013,550.611023,859.776001,554.72113,869.318909C556.526001,873.508972,558.729004,874.947998,567,877.340454C577.489014,880.374023,583.934021,888.421021,583.978027,898.539917C584.005005,904.721008,581.604004,914.286011,578.946777,918.586121C574.630005,925.570007,564.461975,926.802002,554.170532,921.586426C547.60498,918.258972,543.562988,918.210999,541.451965,921.432922C539.484009,924.437012,540.705017,927.278992,544.893555,929.444946C548.182007,931.145996,564.155029,933.958008,575.5,934.834412C576.599976,934.919006,579.112,934.541016,581.081238,933.994019z"/>
    <path transform="matrix(-0.26455,0,0,-0.26455,-940.719971,-298.290283)" style="stroke:#000000;stroke-width:0.05mm;fill:none" d="M1037.049683,932.474304C1039.430054,931.241028,1040,930.299988,1040,927.569519C1040,924.731018,1038.599976,922.630005,1031.25,914.437744C1015.719971,897.130005,1014,894.491028,1014,888C1014,886.315002,1013.349976,883.390991,1012.565918,881.503479C1009.549988,874.283997,1000.799988,876.609985,1000.195313,884.793762C999.815979,889.883972,1001.299988,892.765991,1008.541992,901C1017.859985,911.593018,1022.530029,918.39801,1024.97229,924.925842C1027.170044,930.809998,1029.910034,934,1032.772217,934C1033.5,934,1035.430054,933.312988,1037.049683,932.474304z"/>
    <path transform="matrix(-0.26455,0,0,-0.26455,-940.719971,-298.290283)" style="stroke:#000000;stroke-width:0.05mm;fill:none" d="M742.631836,926.587341C758.494019,924.908997,763.215027,923.065002,768.596436,916.447693C781.291992,900.835022,784.781982,898.848999,810,892.889221L827.5,888.753479L849.279419,888.907776C883.822021,889.153015,899.937012,886.754028,904.396362,880.705933C906.133972,878.348999,906.640991,875.336975,907.634338,861.444214C909.122009,840.653992,911.021973,834.088013,919.007813,822.149292C929.58197,806.341003,938.398987,800.153015,961.226379,792.519958C967.125977,790.546997,975.901001,788.452026,980.726379,787.863586C985.552002,787.275024,990.286987,786.374023,991.25,785.861755C993.86499,784.468994,993.484009,779.393005,990.545471,776.454529C987.487976,773.396973,985.838013,773.395996,979.28418,776.447937C976.414978,777.783997,970.565002,779.85498,966.28418,781.050659C954.526978,784.335022,933.642029,792.721985,928.275024,796.313721C924.913025,798.564026,920.776978,803.317993,914.193115,812.5C899.619995,832.823975,899.713989,832.580994,899.040771,851.504211C898.406006,869.343994,897.427002,872.447998,891.084167,876.722229C886.142029,880.052979,881.633972,880.508972,871.972656,878.657288C864.237976,877.174011,862.809021,877.158997,857.641663,878.505127C850.370972,880.398987,845.377991,880.39801,840,878.5C834.012024,876.387024,829.262024,876.629028,822.422424,879.394592C819.164978,880.711975,809.315979,883.453003,800.534607,885.486877C791.754028,887.520996,782.505981,890.22998,779.983887,891.508179C777.224976,892.906006,772.312012,897.231995,767.65033,902.366272C754.950989,916.354004,749.523987,917.960999,715,917.95874C692.643982,917.95697,659.585022,915.297974,646.222839,912.426392C636.739014,910.388,632.947998,911.296021,630.966919,916.079895C629.963989,918.502014,630.036987,919.406982,631.404175,921.49408C633.184998,924.211975,633.60199,924.286011,645.541016,924.022461C649.963989,923.924988,660.763977,924.552979,669.541016,925.417786C691.573975,927.590027,692.289978,927.630005,712,927.813538C721.625,927.903015,735.408997,927.351013,742.631836,926.587341z"/>
    <path transform="matrix(-0.26455,0,0,-0.26455,-940.719971,-298.290283)" style="stroke:#000000;stroke-width:0.05mm;fill:none" d="M1149.800049,926.799988C1151.849976,924.747986,1151.130005,922.116028,1148.070068,920.536255C1146.459961,919.703003,1140.23999,918.591003,1134.255981,918.065979C1128.27002,917.541016,1117.829956,916.164978,1111.051147,915.008728C1101.689941,913.411987,1095.219971,912.960999,1084.115234,913.130981C1071.819946,913.320007,1068.910034,913.070984,1065.753906,911.565613C1060.900024,909.247009,1051.900024,899.487,1045.86792,890C1038.47998,878.380005,1037.209961,877,1033.959106,877C1030,877,1028.599976,879.786987,1029.971313,884.893677C1030.900024,888.35498,1042.170044,902.632996,1047.285278,906.835449C1048.180054,907.570007,1050.589966,911.036011,1052.635986,914.53894C1055.060059,918.674988,1057.359985,921.320984,1059.216797,922.089783C1061.030029,922.840027,1069.650024,923.357971,1082.786133,923.506653C1099.98999,923.700989,1129.670044,926.018005,1133.5,927.464355C1136.030029,928.41803,1148.699951,927.901978,1149.800049,926.799988z"/>
    <path transform="matrix(-0.26455,0,0,-0.26455,-940.719971,-298.290283)" style="stroke:#000000;stroke-width:0.05mm;fill:none" d="M566.435364,904.932373C570.812988,900.728027,564.22998,891,557.00708,891C553.432007,891,550.828979,894.052979,550.705933,898.389832C550.588013,902.562012,553.020996,905.651978,557.41864,906.914551C561.166016,907.98999,563.870972,907.39502,566.435364,904.932373z"/>
    <path transform="matrix(-0.26455,0,0,-0.26455,-940.719971,-298.290283)" style="stroke:#000000;stroke-width:0.05mm;fill:none" d="M730.020935,874.401123C734.653992,873.025024,736.666016,871.502014,744.452393,863.472107C750.664978,857.065979,754.991028,853.502991,758.259155,852.102539C760.877014,850.981018,770.299988,848.723022,779.199585,847.084717C803.953003,842.528015,804.265015,842.156006,805.0495,816.186768C805.72699,793.781006,806.487976,791.476013,816.782593,780.660645C820.531006,776.721985,826.002991,770.664978,828.941223,767.200378C831.880005,763.736023,836.356995,759.51001,838.891907,757.811218C844.661987,753.942993,846,752.289978,846,749.031372C846,744.773987,843.296997,741.838989,839.701416,742.193787C837.098999,742.450012,835.489014,743.960022,829.776794,751.5C826.026978,756.450012,817.340027,766.133972,810.472961,773.020264L797.987305,785.540527L796.495056,794.020264C794.698975,804.224976,794.638,808.302002,796.154419,816.534485C797.232971,822.388977,797.151001,823.117981,794.904419,827.648376C790.758972,836.007996,785.112,838.304993,764.696289,839.93927C751.922974,840.961975,749.937012,841.991028,741.933716,851.740723C728.823975,867.710022,721.465027,868.981995,677.5,862.882813C655.856018,859.880005,651.094971,859.546997,629,859.494446C601.721985,859.429016,600.632019,859.21698,592.261292,852.35791C579.580994,841.96698,579.507019,829.905029,592.055115,818.569214C599.861023,811.517029,606.950012,810.419983,622.171021,813.90918C626.752014,814.958984,636.125,816.106018,643,816.458374C661.625977,817.411987,683.161011,819.744995,695.05835,822.098511C704.76001,824.017029,705.914001,824.062988,709.272766,822.659363C713.317017,820.969971,715.112,817.044983,713.003418,814.50415C711.190979,812.320007,705.380981,811.012024,697.470154,811.005554C693.604004,811.002991,685.054016,810.34198,678.470154,809.536804C671.887024,808.731995,659.525024,807.58197,651,806.982178C634.335999,805.809021,626.143005,804.742981,616.187927,802.452209C606.088989,800.129028,600.14801,800.517029,594.945801,803.839905C589.22998,807.491028,576.679993,820.747009,574.040588,825.920471C569.895996,834.044983,572.56897,847.299011,579.743591,854.188965C581.809998,856.172974,585.974976,859.28302,589,861.098877C592.025024,862.914978,596.791016,866.111023,599.590881,868.200684C605.315979,872.473022,608.458984,872.901001,616.408936,870.489197C623.599976,868.307983,643.958008,868.570007,661.757751,871.073486C698.242004,876.205017,720.322021,877.281006,730.020935,874.401123z"/>
    <path transform="matrix(-0.26455,0,0,-0.26455,-940.719971,-298.290283)" style="stroke:#000000;stroke-width:0.05mm;fill:none" d="M851.315735,862.850281C854.661011,861.088989,854.968018,860.122009,854.98468,851.284363C855.005005,840.473022,857.612976,822.109985,860.054993,815.58252C861.254028,812.377991,865.184998,806.533997,870.285034,800.375793C880.445984,788.106018,888.960999,775.012024,889.686462,770.544556C890.151978,767.676025,889.66803,766.588013,886.261169,762.851685C876.226013,751.844971,870.111023,741.393005,865.964294,728.158936C862.51001,717.133972,855.999023,711.890991,851.796021,716.75C847.859985,721.299011,849.018005,726.612,855.076355,731.797363C859.896973,735.924011,861.518982,738.939026,862.448059,745.5C863.330994,751.737976,864.757019,753.982971,870.415833,758.046936C882.432983,766.677002,880.343994,776.221985,862.304504,795.111633C856.577026,801.109009,851.192993,807.685974,850.340149,809.728394C849.487,811.770996,848.158997,819.736023,847.388367,827.428345C846.617981,835.120972,845.062012,844.713989,843.931213,848.745239C841.411011,857.728027,841.663025,861.03302,845,862.712097C848.096985,864.270996,848.596008,864.281982,851.315735,862.850281z"/>
    <path transform="matrix(-0.26455,0,0,-0.26455,-940.719971,-298.290283)" style="stroke:#000000;stroke-width:0.05mm;fill:none" d="M881.127563,861.344238C882.130981,860.133972,882.513,856.166016,882.546448,846.594238C882.60199,830.93103,884.051025,826.320007,892.705017,814.260315C895.768005,809.992004,900.513,803.182983,903.249756,799.128113C909.752991,789.492981,914.388977,784.442017,919.45697,781.472351C925.19397,778.109985,955.655029,766.445007,966.368103,763.50708C977.067993,760.572998,980,758.835999,980,755.431519C980,753.021973,976.078003,748,974.196167,748C973.703979,748,970.39502,749.54303,966.842041,751.427795C963.289001,753.312988,955.241028,756.747986,948.955933,759.060364C942.671021,761.372986,934.192993,764.786011,930.114441,766.644043C926.036011,768.502991,919.955017,770.726013,916.599854,771.585144C908.231995,773.728027,906.48999,775.083984,902.871155,782.270325C898.97699,790.004028,895.591003,795.020996,886.520081,806.5C882.607971,811.450012,878.682007,816.659973,877.793945,818.077515C874.89502,822.70697,873.228027,830.419983,871.919128,845.260132C870.862,857.25,870.86499,860.132019,871.938477,861.425842C873.65802,863.497986,879.383972,863.447021,881.127563,861.344238z"/>
    <path transform="matrix(-0.26455,0,0,-0.26455,-940.719971,-298.290283)" style="stroke:#000000;stroke-width:0.05mm;fill:none" d="M720.591125,848.098083C722.914001,847.04303,726.586975,843.929993,729.091125,840.894592C741.258972,826.140991,744.934998,824.252014,763.313293,823.299988C776.156982,822.63501,780,821.098022,780,816.627441C780,811.333008,776.603027,810.976013,755.5,814.050537C732.515991,817.398987,730.357971,818.395996,727.50592,826.982178C723.447998,839.197998,712.911011,842.30603,690,838.043518C676.294006,835.494019,663.468994,834.138977,642,832.972656C632.375,832.450012,622.025024,831.346985,619,830.522949C608.288025,827.603027,601,829.263,601,834.622437C601,841.666992,605.656982,843.468994,621.333435,842.489136C634.83197,841.645996,654.593018,843.117981,681.779114,846.991272C705.77301,850.409973,714.926025,850.671021,720.591125,848.098083z"/>
    <path transform="matrix(-0.26455,0,0,-0.26455,-940.719971,-298.290283)" style="stroke:#000000;stroke-width:0.05mm;fill:none" d="M280.28656,835.240662C281.858002,833.81897,282.088989,832.690979,281.563843,829.002563C279.542999,814.796997,279.488007,815.392029,283.523712,807.708862C286.90799,801.265015,287.328003,799.651001,287.478149,792.5C287.696014,782.130981,289.584991,778.205994,297.160492,772.376526C301.514008,769.026978,303.854004,766.250977,306.134888,761.732788C307.832001,758.370972,311.604004,753.117981,314.516724,750.060242C317.429993,747.002014,320.925995,742.025024,322.286438,739C323.647003,735.974976,326.859009,731.474976,329.425446,729C333.190002,725.369019,334.498993,723.148987,336.204407,717.5C338.345001,710.40802,339.502991,708.903992,349.305969,700.472656C351.812988,698.317017,353.015015,696.302002,353.482666,693.472656C355.028992,684.119995,359.682007,670.060974,368.201385,649C375.743011,630.35498,377.320007,625.528992,377.401459,620.832947C377.483002,616.132019,377.087006,614.724976,375.075684,612.582947C369.647003,606.799011,366.752014,610.187988,364.559052,624.897156C363.403992,632.640015,361.70401,638.512024,357.898315,647.897156C355.088013,654.828979,351.010986,665.627991,348.840179,671.895264C343.90799,686.130981,342.529999,688.885986,333.532837,702.5C329.533997,708.549988,322.403015,719.39801,317.685669,726.605713C308.157013,741.164978,297.122986,756.140015,288.661652,765.993774C281.026001,774.887024,278.252014,781.075989,275.507019,795.345093C274.221008,802.030029,272.006012,812.08197,270.584412,817.681213C267.32901,830.505005,267.260986,834.357971,270.25,836.495361C272.901001,838.390991,277.432007,837.823975,280.28656,835.240662z"/>
    <path transform="matrix(-0.26455,0,0,-0.26455,-940.719971,-298.290283)" style="stroke:#000000;stroke-width:0.05mm;fill:none" d="M310.75,827.010986C315.94101,823.846008,315.181,819.294006,308.615143,814.226501C305.02301,811.453979,300.878998,811.372009,298.477509,814.024841C296.234985,816.502991,295.852997,824.909973,297.872437,827.344788C299.790009,829.656982,306.70401,829.478027,310.75,827.010986z"/>
    <path transform="matrix(-0.26455,0,0,-0.26455,-940.719971,-298.290283)" style="stroke:#000000;stroke-width:0.05mm;fill:none" d="M417.984467,794.008301C420.31601,792.76001,421.47699,787.758972,420.051666,785.096558C419.351013,783.788025,416.536987,782.351013,412.063416,781.01886C402.924988,778.296997,378.768005,767.280029,371.805664,762.659119C368.760986,760.638,361.714996,754.713013,356.147034,749.492554C345.32901,739.348999,342.769989,738.22998,339,742C335.061005,745.939026,337.179993,750.585022,344.633636,754.348511C346.356995,755.218994,350.955994,758.856995,354.853119,762.433716C364.028015,770.854004,367.798004,773.171021,383.5,780.043701C390.649994,783.172974,400.325012,787.810974,405,790.350159C414.053986,795.267029,415.088013,795.559021,417.984467,794.008301z"/>
    <path transform="matrix(-0.26455,0,0,-0.26455,-940.719971,-298.290283)" style="stroke:#000000;stroke-width:0.05mm;fill:none" d="M428,767C430.75,764.25,430.621002,759.434998,427.75,757.638611C426.513,756.86499,421.225006,755.038025,416,753.580688C394.170013,747.48999,381.595001,738.984009,364.389984,718.671753C360.556,714.14502,357.075012,713.817993,354.023895,717.696777C350.298004,722.432983,351.527008,725.85199,358.626007,730.494019C361.994995,732.697021,368.075012,737.658997,372.135834,741.518982C380.252014,749.234009,385.942993,752.754028,399.5,758.444336C404.450012,760.521973,411.875,763.737,416,765.589722C424.822998,769.552002,425.381989,769.617981,428,767z"/>
    <path transform="matrix(-0.26455,0,0,-0.26455,-940.719971,-298.290283)" style="stroke:#000000;stroke-width:0.05mm;fill:none" d="M936.649658,745.993774C951.718018,739.940002,964.945984,734.427979,966.043945,733.743774C969.213013,731.77002,969.932007,727.054016,968.863159,715.253418C967.590027,701.190979,964.877991,688.02002,960.525024,674.763306C958.065979,667.273987,957,662.200012,957,657.988342C957,651.929993,957.466003,650.322021,964.471558,632.218323C966.447021,627.112976,969.366028,617.197021,970.958496,610.182922C972.551025,603.16803,975.461975,593.771973,977.426941,589.302612C982.275024,578.275024,982.060974,572,976.834778,572C973.986023,572,968.439026,577.591003,967.209351,581.701965C966.585022,583.791016,965.130981,590.38501,963.980103,596.35614C961.320984,610.14801,953.031006,635.986023,947.752747,646.935913C944.018005,654.684021,943.778015,655.663025,944.813538,658.935913C945.434021,660.895996,948.179993,669.156006,950.915833,677.290283C958.190979,698.91803,960.281006,708.030029,959.82312,716.124756C959.208984,726.98999,954.737,731.507996,942.98114,733.136536C934.903992,734.255981,931.760986,735.578003,925.099854,740.655396C916.482971,747.223999,908.862976,747.330994,901.635376,740.984741C897.312988,737.189026,892.43103,727.184021,890.36322,717.881226C887.351013,704.330994,884.320984,700.627014,870.007568,693C864.094971,689.848999,859.405029,686.325989,854.365784,681.25C850.40802,677.263,846.705994,674,846.140259,674C845.573975,674,843.885986,675.054016,842.389099,676.341736C839.359985,678.947021,838.710022,683.741028,841.010925,686.513123C843.28302,689.250977,856.18103,697.190979,862.230591,699.576599C873.379028,703.973022,876.778015,708.049988,881.885681,723.161865C885.585022,734.10498,887.11499,737.010986,893.833008,745.841736C900.370972,754.437012,903.341003,757,906.760986,757C908.130981,757,921.580994,752.046997,936.649658,745.993774z"/>
    <path transform="matrix(-0.26455,0,0,-0.26455,-940.719971,-298.290283)" style="stroke:#000000;stroke-width:0.05mm;fill:none" d="M453.624756,736.358215C459.653015,732.122986,468.734009,724.419983,474,719.078003C485.390991,707.520996,500.407013,688.448975,503.645935,681.425781C507.209015,673.697998,508.381989,659.104004,507.014313,639.5C506.274994,628.896973,506.216003,620.710999,506.839966,615.233154C507.712006,607.58197,507.260986,601.848999,505.572906,599.11792C504.386993,597.200012,501.117004,597.892029,499.467285,600.409546C496.264008,605.297974,495.582001,614.984985,496.898987,636.88501C498.73999,667.508972,496.889008,675.099976,482.962585,694.039551C473.687988,706.653015,454.877014,724.968994,447.5,728.570923C438.821014,732.807983,431.479004,732.577026,419.57666,727.694519C407.703003,722.823975,401.139008,718.765991,392.999817,711.264771C378.178009,697.60498,378.427002,688.5,394.575806,653.68634C403.964996,633.44397,405.308014,629.031006,404.753906,620.219177C404.377991,614.242004,403.562012,611.46698,400.195038,604.719177C397.938995,600.198975,393.52301,593.575012,390.381805,590C383.415985,582.072998,381.612,578.127014,379.617493,566.459229C377.837006,556.044006,371.114014,532.02301,368.651276,527.279663C366.816986,523.747009,363.609985,521.552002,361.47702,522.370422C359.136993,523.268005,358.662994,529.398987,360.486969,535.174988C364.989014,549.432983,366.257996,554.809998,369.009338,571.296753C370.643005,581.085022,372.437012,589.947021,372.995178,590.990967C373.553986,592.034973,376.730988,594.338989,380.056702,596.110901C387.553986,600.106995,390.524994,603.559021,392.595032,610.678894C395.141998,619.439026,394.187012,628.64502,389.607819,639.5C375.416992,673.137024,370,689.091003,370,697.250366C370,700.817993,370.882996,702.103027,380.25,712.174438C394.302002,727.28302,403.937012,733.596985,418.828125,737.455444C422.122009,738.309021,427.221008,740.125977,430.158783,741.493958C438.951996,745.588013,441.186005,745.098999,453.624756,736.358215z"/>
    <path transform="matrix(-0.26455,0,0,-0.26455,-940.719971,-298.290283)" style="stroke:#000000;stroke-width:0.05mm;fill:none" d="M919.405518,723.80542C920.145996,721.687012,919.784973,719.763977,917.715332,714.80542C916.268005,711.336975,914.137024,704.674988,912.979004,700C909.609009,686.388977,908.151001,684.815979,888.403137,673.5C883.604004,670.75,877.559998,666.598999,874.97113,664.276123C864.606995,654.974976,865.096985,650.471985,879.754822,620.332336C893.361023,592.35498,895.794006,584.77301,898.002869,563.472168C899.088989,552.994995,899.625,551.528992,904.632202,545.331726C906.484009,543.039001,908,540.411011,908,539.492249C908,538.572998,904.271973,534.148987,899.715027,529.660522C895.15802,525.171997,886.495972,516.210022,880.465027,509.743896C869.278992,497.751007,865.877014,495.661987,864.515869,499.950012C863.559021,502.964996,866.080017,506.800995,876.439026,518.088196C888.125977,530.822998,890.924988,534.718994,892.080322,539.861938C892.992004,543.919006,892.133972,550.898987,890.051575,556.36853C889.450989,557.945984,887.835022,564.921021,886.461487,571.86853C883.103027,588.849976,881.153992,594.468994,871.424866,615.203979C857.432983,645.023987,853.796021,656.828003,857.25,661.199829C860.606995,665.447998,876.971008,678.219971,883.801514,681.922241C899.377014,690.364014,902.981995,695.827026,907.018372,717.105286C908.346008,724.106018,911.018005,727.22699,915.323547,726.806519C917.695984,726.575012,918.69397,725.841003,919.405518,723.80542z"/>
    <path transform="matrix(-0.26455,0,0,-0.26455,-940.719971,-298.290283)" style="stroke:#000000;stroke-width:0.05mm;fill:none" d="M942.443298,714.777466C943.299011,713.554993,944,711.80603,944,710.889832C944,708.536011,932.117004,672.25,929.913574,667.876221C928.20697,664.489014,922.536011,661.002014,918.729736,660.999207C916.11499,660.997986,905.357971,655.099976,902.584106,652.147705C900.312988,649.72998,899.575989,647.879028,899.25177,643.772156C898.862,638.843018,899.174988,637.947021,904.062866,630C916.13501,610.370972,916.929993,608.39502,921.02124,587.854858C922.625977,579.799988,925.077026,570.184021,926.469116,566.485779C927.861023,562.788025,929,559.174988,929,558.457642C929,556.028015,923.901001,551,921.436768,551C917.85498,551,916.26001,555.148987,914.060059,570.194946C910.708008,593.119019,908.101013,601.129028,896.454224,624.286926C890.546021,636.033997,886,646.304016,886,647.9021C886,652.387024,888.960022,655.073975,901.540466,662.009155C915.695007,669.812012,921.963013,675.161987,924.870911,681.92157C926.049011,684.661011,928.401001,692.661987,930.096313,699.700989C931.791992,706.73999,933.823975,713.513,934.612671,714.75C936.468018,717.661987,940.413025,717.676025,942.443298,714.777466z"/>
    <path transform="matrix(-0.26455,0,0,-0.26455,-940.719971,-298.290283)" style="stroke:#000000;stroke-width:0.05mm;fill:none" d="M438.689056,682.75C442.795013,678.419983,450.381012,664.77301,452.993073,657.020569C457.286987,644.275024,456.332001,631,451.122467,631C447.062988,631,446.010986,633.187988,444.100128,645.592712C442.197998,657.94397,441.453003,659.541992,430.437439,674.897888C424.214996,683.572021,431.414001,690.422974,438.689056,682.75z"/>
    <path transform="matrix(-0.26455,0,0,-0.26455,-940.719971,-298.290283)" style="stroke:#000000;stroke-width:0.05mm;fill:none" d="M930.283203,644.239563C933.625,640.546997,944.174988,608.841003,947.547913,592.356567C949.364014,583.478027,951.833008,574.252991,953.033081,571.856567C957.338989,563.262024,963.61499,558.427002,973.5,556.088989C976.25,555.439026,979.469971,554.140015,980.655762,553.203247C982.981018,551.366028,992.255981,540.062988,1000.830627,528.616028C1008.419983,518.479004,1009.820007,517.143982,1016.21228,513.904358C1019.349976,512.312012,1022.380005,510.164001,1022.930481,509.129852C1026.810059,501.889008,1023.809998,488,1018.372314,488C1017.549988,488,1016,490.11499,1014.884277,492.75C1013.780029,495.362,1012.130005,499.264008,1011.211792,501.420563C1009.570007,505.283997,984.250977,533.601013,977.137878,539.534546C970.335022,545.208984,955.513977,555.752991,951.5,557.773621C949.299988,558.880981,946.672974,560.700989,945.663208,561.818237C943.89801,563.77002,940.163025,577.705994,936.5,596C933.541992,610.776978,929.359009,622.29303,924.602661,628.753357C917.223999,638.776978,916.656006,640.656006,920,644C922.515991,646.515991,928.10498,646.646973,930.283203,644.239563z"/>
    <path transform="matrix(-0.26455,0,0,-0.26455,-940.719971,-298.290283)" style="stroke:#000000;stroke-width:0.05mm;fill:none" d="M545.896423,488.46521C547.603027,486.520996,549,484.30899,549,483.549103C549,481.377991,536.953979,471,534.433167,471C531.335022,471,526,477.298004,526,480.955719C526,483.329987,527.02002,484.56601,531.75,487.920929C538.95697,493.033997,541.789001,493.143005,545.896423,488.46521z"/>
    <path transform="matrix(-0.26455,0,0,-0.26455,-940.719971,-298.290283)" style="stroke:#000000;stroke-width:0.05mm;fill:none" d="M823.895386,477.466339C829.870972,470.660004,830.447998,469.332001,828.62854,466.555847C827.747986,465.212006,824.335999,462.533997,821.046875,460.606781C817.757996,458.678986,810.439026,453.576996,804.783325,449.26825C799.127991,444.959991,789.325012,437.93399,783,433.656433C776.674988,429.377991,769.312012,424.330994,766.636963,422.439117C759.177002,417.164001,752.666992,418.300995,752.666687,424.879761C752.666992,429.010986,755.97998,432.415985,766.343933,438.937744C770.830017,441.76001,781.25,448.713013,789.5,454.388123C802.432007,463.283997,805.080017,465.570007,808.70575,470.975525C816.460999,482.536011,818.630981,483.463013,823.895386,477.466339z"/>
    <path transform="matrix(-0.26455,0,0,-0.26455,-940.719971,-298.290283)" style="stroke:#000000;stroke-width:0.05mm;fill:none" d="M565.586304,469.351501C568.531982,467.421997,571.370972,462.410004,570.623779,460.462036C570.336975,459.714996,568.617004,458.358002,566.801453,457.444733C564.986023,456.532013,561.349976,453.700012,558.722351,451.152802C554.077026,446.648987,553.870972,446.562012,551.2724,448.020569C547.770996,449.985992,544.575989,455.420013,545.720459,457.464966C547.16803,460.052002,559.999023,471,561.583008,471C562.401001,471,564.203003,470.257996,565.586304,469.351501z"/>
    <path transform="matrix(-0.26455,0,0,-0.26455,-940.719971,-298.290283)" style="stroke:#000000;stroke-width:0.05mm;fill:none" d="M581.76825,448.164368C585.258972,445.949005,585.161011,437.234985,581.532837,427.049652C577.513,415.766998,571.846008,416.388,565.566528,428.799988C563.424011,433.035004,564.153015,435.140991,568.899963,438.430695C571.010986,439.893005,574.16803,442.869995,575.916077,445.045166C579.262024,449.209015,579.72998,449.458008,581.76825,448.164368z"/>
    <path transform="matrix(-0.26455,0,0,-0.26455,-940.719971,-298.290283)" style="stroke:#000000;stroke-width:0.05mm;fill:none" d="M978.285522,385.848083C979.268005,383.839996,980.336975,379.950012,980.662048,377.205627C981.187988,372.764008,981.026001,372.143005,979.183105,371.558105C976.005005,370.549988,955.830017,373.842987,953.77124,375.707031C951.244995,377.993011,951.552002,382.356995,954.435913,385.14505C957.75,388.348999,963.322021,389.927002,970.5,389.694519C976.34198,389.505005,976.546997,389.403992,978.285522,385.848083z"/>
    <path transform="matrix(-0.26455,0,0,-0.26455,-940.719971,-298.290283)" style="stroke:#000000;stroke-width:0.05mm;fill:none" d="M282.43399,376.130249C284.94101,371.182007,289.436005,366.631012,292.902222,365.531036C299.906006,363.308014,291.671997,355,282.46637,355C276.325012,355,275,356.325989,275,362.470093C275,365.440002,274.615997,368.911987,274.146423,370.184906C271.391998,377.654999,272.446991,381,277.554596,381C279.436005,381,280.509003,379.928009,282.43399,376.130249z"/>
    <path transform="matrix(-0.26455,0,0,-0.26455,-940.719971,-298.290283)" style="stroke:#000000;stroke-width:0.05mm;fill:none" d="M257.341827,374.51532C258.89801,372.959015,260.71701,358.968994,259.598328,357.159088C258.522003,355.417999,253.326996,354.834991,249.081009,355.97818C243.667007,357.436005,241.718994,360.399994,243.037659,365.174225C245.319,373.436005,253.244995,378.612,257.341827,374.51532z"/>
</svg>
