<?xml version="1.0" encoding="UTF-8"?>
<svg xmlns="http://www.w3.org/2000/svg" width="258.401mm" height="182.393mm" viewBox="-353.318176 -495.395996 258.400696 182.393127">
    <path transform="matrix(-0.26455,0,0,-0.26455,-88.665329,-268.676422)" style="stroke:#000000;stroke-width:0.05mm;fill:none" d="M691.860779,855.0802C689.635742,853.270813,689.513672,852.595276,689.738037,843.3302C690.05957,830.05304,691.876221,814.931519,695.063843,799C695.559082,796.525024,696.694458,790.450012,697.586975,785.5C700.429077,769.736938,701.412415,767.610596,716.547058,744.5C725.347351,731.062073,727.753967,726.390686,728.598816,721.107483C729.40802,716.046753,727.523804,712.818054,722.166077,710.084717C720.073547,709.017212,716.022949,706.295288,713.164734,704.036011C704.08606,696.85968,667.051697,671.62262,661.055725,668.526367C653.898315,664.830261,644.467346,662.767456,630.5,661.843018C622.799988,661.333435,614.924988,660.929077,613,660.944397C604.434814,661.012878,578.778015,662.851379,571.5,663.918213C558.348083,665.84613,542.666443,667.11969,521.5,667.978882C510.5,668.425354,496.100006,669.277527,489.5,669.872498C451.736664,673.276978,442.999969,674.190369,431,675.988586C420.138458,677.616211,408.053864,678.993958,395.5,680.035889C389.450012,680.538025,381.799988,681.297852,378.5,681.724426C375.200012,682.151001,364.625,682.159058,355,681.74231C345.375,681.325623,324.085052,680.78894,307.688995,680.549744C288.431396,680.268799,276.597992,679.692383,274.262329,678.92157C271.814667,678.11377,267.338959,677.942139,260.407593,678.390259C253.218353,678.855042,247.983917,678.63031,242.834259,677.635803C238.800415,676.856812,232.125,675.703247,228,675.072327C207.181885,671.888367,173.388504,663.43689,159,657.815918C137.627731,649.466736,123.663879,639.915833,108.047768,622.965942C90.151985,603.541687,87.467552,598.709839,80.956268,574.202942C78.040733,563.229553,76.933258,557.610535,75.890343,548.5C73.866417,530.81958,73.753716,526.835266,75.062614,519.237854C77.130623,507.234192,76.615868,442.693329,74.396133,435.673401C73.496407,432.828033,72.432854,425.774994,72.032684,420C71.403931,410.9263,70.777084,408.277466,67.41806,400.5C61.881458,387.680603,51.739861,371.089355,42.473843,359.692291C38.08823,354.298035,32.587502,347.385895,30.25,344.332001L26,338.779419L26,288.639343C26,250.550385,25.677002,236.937073,24.65613,231.999634C23.713787,227.441986,23.444981,220.420685,23.756458,208.5C24.165148,192.858948,24.39122,191.168167,26.584524,187.348892C31.809633,178.250259,46.901054,168.79715,58,167.670563C61.025002,167.36351,69.523514,167.683365,76.885582,168.381332C87.867104,169.42244,90.51622,169.985489,91.635582,171.516312C93.580078,174.175552,93.312584,178.022217,90.941338,181.5C89.816322,183.149994,87.506538,187.199997,85.808487,190.5C82.682373,196.575302,79.298813,201.180252,70.877205,210.821136C60.791466,222.367081,60.526909,228.653244,67.881592,282C69.534698,293.990692,74.172462,302.557098,87.254684,317.784058C97.61277,329.840302,102.484123,332.4375,106.472603,328.030273C107.453018,326.94693,110.723808,318.734436,113.74102,309.780273C118.470421,295.744904,119.314644,292.07547,119.863434,283.169128C120.399529,274.468811,120.812607,272.609741,122.480659,271.390228C126.684685,268.316711,130.176758,272.037659,132.437805,282C137.646866,304.951508,145.907242,330.281982,151.153473,339.391602C156.484482,348.648438,157.392334,351.408264,157.991745,360.179413C158.518906,367.893433,159.102463,369.895538,163.238297,378.179413C166.213181,384.137939,170.287598,390.205353,174.533768,395C178.186874,399.125,181.914291,403.747711,182.816925,405.272705C183.719543,406.797699,186.267487,409.26651,188.479019,410.758942C190.690567,412.251373,196.187881,416.881226,200.695313,421.047516C205.202728,425.213806,211.277725,429.937958,214.195313,431.545593C218.880753,434.12735,220.495438,434.470398,228.027176,434.484283L236.554352,434.5L242.027176,429.78891C247.589996,425.000336,252.922424,421.667816,260.979919,417.944244C265.963928,415.641022,267.195587,414.276489,266.451691,411.88208C265.329803,408.270813,267.820709,405.187744,274.395416,402.049896C278.205444,400.231567,282.176117,397.404236,283.983002,395.223083C287.859802,390.543274,293.273285,373.87796,294.937439,361.5C295.602966,356.549988,296.564301,350.61322,297.07373,348.30719C297.583191,346.001129,298.006897,340.826141,298.01535,336.80719C298.030365,329.659485,300.775024,316.188934,303.123352,311.737579C308.739349,301.092255,312.946869,296.875458,335.847809,278.941071C349.80368,268.01181,365.95816,251.493088,376.800659,237.064804C393.623016,214.679016,404.771606,205.988907,416.639984,206.010818C419.862976,206.016785,424.75,206.705887,427.5,207.54216C430.25,208.378448,436.701599,209.941772,441.836884,211.01622C446.972168,212.090668,453.332825,214.144852,455.971649,215.581085C462.192261,218.966766,470.144043,225.532745,471.81543,228.663681C473.699036,232.192154,472.406067,236.782455,468.933807,238.894073C466.261353,240.519272,448.71402,247.607208,436,252.197098C425.236328,256.082886,422.531006,257.552338,410.19809,266.212006C389.243103,280.925659,366.868561,306.189697,362.992645,319.513611C361.679108,324.029053,362.200073,358.080505,363.93335,381C364.494843,388.424988,365.302063,399.54718,365.727142,405.715942C366.740204,420.417694,367.027405,420.720001,377.005768,417.58728C384.551575,415.218262,385.424194,414.585419,394.361847,405C396.669586,402.524994,401.017334,399.149994,404.023499,397.5C407.698486,395.48291,410.002106,393.411102,411.054504,391.176514C413.934845,385.06073,416.254913,384.722839,426,389C429.759369,390.649994,434.185577,392,435.836029,392C439.92807,392,466.771027,384.536133,476,380.832123C488.695068,375.737,493.252899,374.257111,500,373.039429C510.418396,371.15918,526.998169,367.33139,530.514221,365.994598C533.908386,364.704132,536,362.105316,536,359.178558C536,357.705353,534.690186,352.450012,533.089355,347.5C531.488525,342.549988,529.435547,334.225006,528.527161,329C527.618774,323.774994,526.410828,316.799988,525.842834,313.5C524.858459,307.780853,523.74353,297.32785,522.384644,281.076385C521.695862,272.839233,522.797363,266.429596,526.762939,255.59993C530.533997,245.301376,531.997498,235.909988,531.999023,222C532.000427,208.69046,533.916382,195.867035,536.776917,190.021225C539.301941,184.861115,545.228333,182.342056,558,181.000153C563.775024,180.393387,572.69519,179.385529,577.822632,178.760483C584.93811,177.893112,588.200562,177.906296,591.602661,178.816223C594.363647,179.554672,598.703979,179.76265,603.00708,179.362717C615.264221,178.223541,615.916748,181.377151,606.369568,195.61319C597.438171,208.931015,590.921936,215.589447,583.433044,219.050217C580.096252,220.592239,576.726196,222.625,575.94397,223.567474C574.327942,225.51474,573.467041,232.06131,572.007874,253.5C570.675354,273.078369,571.302368,278.492981,576.095947,288.802429C578.219116,293.368774,580.667908,299.21875,581.537598,301.802429C582.407349,304.386078,585.045044,310.325012,587.39917,315C592.190125,324.514221,595.168701,332.155762,596.879639,339.322235C598.042053,344.190826,603.270325,353.347565,606.325012,355.864594C607.23584,356.615112,609.648987,357.802551,611.6875,358.503387C616.455505,360.142548,618.887939,359.051361,622.059509,353.850555C623.401794,351.649445,626.533081,348.345978,629.017883,346.509491C631.502747,344.673004,634.427734,342.173706,635.517883,340.955505C636.608032,339.737305,639.299988,337.597809,641.5,336.20108C643.700012,334.804352,648.06366,331.216949,651.197083,328.229034C654.737732,324.852814,660.983215,320.619904,667.697083,317.046021C687.70929,306.393311,701.44043,297.985931,712.325989,289.720337C718.280273,285.199158,725.447876,280.044983,728.253906,278.266632C731.059937,276.488312,734.513245,273.950317,735.927917,272.626678C737.342529,271.303009,740.373596,269.281219,742.663574,268.133789C746.713623,266.104431,750.344421,262.234924,756.86377,253C758.611023,250.524994,762.062256,246.024994,764.533203,243C767.00415,239.975006,770.805908,234.025909,772.981567,229.779816C780.399841,215.301849,783.825378,211.182526,791.883545,207.049515C793.872559,206.029327,796.61731,203.997757,797.982971,202.534912C803.801575,196.301971,806.409729,195.481094,819.664307,195.710983C827.816528,195.852371,834.742798,196.6073,840.664307,197.999863C855.784668,201.555756,857.36615,201.886093,862.322083,202.523743C871.542908,203.710129,873.548279,209.102158,866.933105,214.922028C859.107544,221.806778,812.472656,268.647614,809.552979,272.555511C807.932129,274.724976,804.05127,279.424988,800.928772,283C797.806335,286.575012,792.197266,293.549988,788.464233,298.5C782.531616,306.366638,762.431763,326.85498,727.75,360.387604C718.341125,369.484711,718,369.967499,718,374.186157C718,378.231293,718.466736,379.013367,724.25,384.658173C727.785278,388.108826,731.803101,391.06189,733.5,391.456879C735.150024,391.840942,738.772705,393.905701,741.550415,396.045227C748.598328,401.473816,753.482239,403.342804,758.73761,402.622498C764.512451,401.830963,767,404.192108,767,410.465057C767,415.490692,768.533752,420.64798,773.701782,433C782.1297,453.143372,786.175354,461.268768,790.364197,466.465118C795.371155,472.676392,798,477.473969,798,480.400146C798,484.341644,800.509827,489.641479,803.166504,491.309967C804.44989,492.116028,807.299988,493.087463,809.5,493.46875C815.427856,494.496063,817.770142,497.19928,818.513367,503.870911C819.43042,512.103699,820.631409,514.442139,826.530945,519.4823C830.090942,522.523682,832.411804,525.511414,833.569824,528.543701C834.774841,531.698975,836.528442,533.894287,839.366028,535.800049C845.163818,539.693909,845.790405,542.775208,842.62616,551.83197C839.54657,560.646423,840.205444,562.952881,846.701233,566.097412C850.72821,568.046875,852.238464,568.179749,864.797424,567.68988C872.333862,567.395935,882.099976,566.678711,886.5,566.096069C893.071533,565.22583,895.625305,565.318481,900.802185,566.614868C907.477356,568.286499,909.854187,568.172852,925,565.458008C933.253235,563.978577,935.549927,563.922363,942.5,565.029297C956.574402,567.270996,963.133179,571.358887,967.943054,580.887146C971.387085,587.709778,974.995728,591.457397,981.099731,594.550537C987.025085,597.553101,991.686462,601.493042,993.528931,605.055908C995.793762,609.435608,1000.941956,632.187012,1000.340332,635.157715C999.39502,639.825806,994.838013,643.023254,984.824768,646.044312C971.140503,650.172974,960.866638,654.025391,957.787537,656.182434C956.042664,657.404846,954.828369,659.39801,954.383362,661.769958C953.743958,665.178345,955.504517,680.108948,958.006958,692.5C961.751099,711.039673,959.868347,721.253479,949.410706,739.134094C944.395752,747.70874,939.530823,752.486633,926.620789,761.516113C916.19342,768.809265,891.251221,780.76239,882.571228,782.62616C878.919861,783.410156,869.325562,783.949829,858.5,783.980164C848.599976,784.007935,839.993958,784.361206,839.375488,784.76532C838.757019,785.169373,835.83197,788.690979,832.875488,792.591125C822.297302,806.54541,805.231323,826.572815,797.848816,833.695984C789.81665,841.445984,773.775085,846.838135,766.797913,844.133423C765.311768,843.557312,763.362183,841.667297,762.465515,839.93335C760.679688,836.479919,758.002991,815.3396,758.72699,810.406677C759.389465,805.893188,755.480347,801.485779,751.993347,802.814697C748.85022,804.012512,744.285156,808.544434,742.258057,812.479187C739.253296,818.31189,729.178223,832.532349,725.856506,835.629395C724.010437,837.350525,718.674988,841.343384,714,844.50238C709.325012,847.661377,704.375,851.260681,703,852.500793C700.301147,854.934998,696.710388,857,695.176514,857C694.651306,857,693.159241,856.136108,691.860779,855.0802z"/>
    <path transform="matrix(-0.26455,0,0,-0.26455,-88.665329,-268.676422)" style="stroke:#000000;stroke-width:0.05mm;fill:none" d="M717.285034,823.898315C719.989624,821.092407,723.090332,816.789429,724.175476,814.336182C726.017334,810.172424,726.040344,809.710571,724.521973,807.393188C722.516968,804.333191,718.725891,802.807495,714.105347,803.201172C709.579285,803.586792,707.51355,807.005005,705.899231,816.780151C704.434937,825.646912,705.467529,829,709.662415,829C711.606689,829,713.750977,827.56488,717.285034,823.898315z"/>
    <path transform="matrix(-0.26455,0,0,-0.26455,-88.665329,-268.676422)" style="stroke:#000000;stroke-width:0.05mm;fill:none" d="M782.282104,827.619202C788.769165,824.835632,794.166809,817.483032,792.641418,813.507935C791.629028,810.86969,785.705811,808.007629,781.25,808.003723C774.868652,807.998108,773,810.37561,773,818.5C773,823.666687,773.410278,825.410278,775,827C777.372131,829.372131,778.060547,829.430664,782.282104,827.619202z"/>
    <path transform="matrix(-0.26455,0,0,-0.26455,-88.665329,-268.676422)" style="stroke:#000000;stroke-width:0.05mm;fill:none" d="M813.537842,794.64978C826.128967,781.488831,828.280762,775.567566,823.461121,767.343445C820.258179,761.878052,817.376038,760.416016,808,759.500366C798.809143,758.602844,787.461548,755.793884,782.330933,753.146362C776.57489,750.176025,772.141785,744.975952,761.720398,728.969727C751.879272,713.854797,748.827026,710.951843,744.954651,713.024292C742.492188,714.342102,741.614685,717.876099,742.276489,723.809509C742.724792,727.828674,743.409546,729.000977,747.060425,732C756.035217,739.372375,758.720947,742.722656,761.129639,749.550537C762.43335,753.246216,764.625,757.485291,766,758.970764C770.197144,763.505127,792.440308,769.946228,804.027466,769.982666C812.544128,770.009399,817.239685,774.609131,814.935913,780.668518C813.503357,784.436462,811.119873,785.931458,806.486755,785.968201C801.126404,786.010681,777.302673,780.77356,768.268799,777.566833C759.281982,774.376831,756.9151,774.368774,748.596252,777.5C739.788269,780.815308,734.989746,780.703186,727.160217,776.999207C719.597412,773.421448,716.646057,773.239563,714.556702,776.222534C712.68988,778.887756,712.501221,785.36084,714.25,786.743103C715.750061,787.928711,733.318359,793,735.925598,793C736.935547,793,740.750732,791.875,744.403748,790.5C752.476501,787.461426,757.286499,787.35376,764.147339,790.058105C767.166382,791.248047,773.571411,792.481201,779.332581,792.981628C787.88623,793.724609,790.230774,794.346191,795.898193,797.373474C805.208984,802.346802,806.341431,802.171997,813.537842,794.64978z"/>
    <path transform="matrix(-0.26455,0,0,-0.26455,-88.665329,-268.676422)" style="stroke:#000000;stroke-width:0.05mm;fill:none" d="M881.035156,768.481812C886.244812,765.787842,885.833435,758.373962,880.229797,753.966125C875.965881,750.612122,869.429504,751.960449,866.882568,756.71936C864.850281,760.516724,865.163391,766.9151,867.463867,768.597229C869.995667,770.448547,877.352905,770.385986,881.035156,768.481812z"/>
    <path transform="matrix(-0.26455,0,0,-0.26455,-88.665329,-268.676422)" style="stroke:#000000;stroke-width:0.05mm;fill:none" d="M849.339905,767.176941C851.678528,764.592712,852.425659,757.281067,850.829834,752.59552C848.167053,744.777405,839.026306,741.942993,834.278076,747.463074C833.025146,748.919739,832.000366,750.648926,832.000793,751.305786C832.002197,753.404358,837.762695,764.762695,839.919434,766.919434C842.486755,769.486755,847.134583,769.61377,849.339905,767.176941z"/>
    <path transform="matrix(-0.26455,0,0,-0.26455,-88.665329,-268.676422)" style="stroke:#000000;stroke-width:0.05mm;fill:none" d="M743.43573,763.591309C749.280396,761.149231,749.329285,754.612183,743.548706,748.482971C739.197571,743.869385,734.986816,743.732117,730.933105,748.071655C727.797119,751.42865,726.156189,757.40741,727.682983,759.913269C728.956116,762.002747,734.901611,764.99646,737.782104,764.998474C739.037292,764.999329,741.581421,764.366089,743.43573,763.591309z"/>
    <path transform="matrix(-0.26455,0,0,-0.26455,-88.665329,-268.676422)" style="stroke:#000000;stroke-width:0.05mm;fill:none" d="M907.042847,756.977112C910.983032,754.868347,911.277466,752.454224,908.555908,744.569214C905.411743,735.459656,905.72876,733.34314,912.011597,721.5C917.468018,711.214661,920,703.545471,920,697.303833C920,693.791687,919.384216,692.31488,916.75,689.509766C912.859131,685.366394,902.992188,679.344238,897.806519,677.947937C892.652954,676.560181,887.332214,678.769897,886.402039,682.684082C881.33667,703.999512,878.393982,711.691711,873.142517,717.344482C871.689148,718.908936,867.944946,721.486572,864.822144,723.07251C856.141235,727.481018,854.157471,731.387878,858.072571,736.365112C859.759033,738.509094,860.977417,739,864.612427,739C867.137268,739,870.820557,738.111877,873.083435,736.957458C876.724182,735.100037,877.750854,733.573669,884.40802,720.120239C889.763428,709.297485,891.92334,703.769226,892.453186,699.528564C893.335205,692.468872,896.229248,688.992188,901.204529,689.01532C905.060181,689.033203,906.284241,689.709045,907.850281,692.684265C910.275696,697.292114,908.735352,702.468079,897.966125,725.897583C894.68634,733.03302,892.727295,738.660034,892.727295,740.945068C892.727295,744.835999,896.0177,753.25708,898.693176,756.21344C900.492676,758.201843,904.132324,758.534729,907.042847,756.977112z"/>
    <path transform="matrix(-0.26455,0,0,-0.26455,-88.665329,-268.676422)" style="stroke:#000000;stroke-width:0.05mm;fill:none" d="M816.744385,743.79718C818.681702,742.189331,818.237427,739.146545,815.694031,736.603149C814.425781,735.3349,809.49585,732.828186,804.738586,731.032654C799.981384,729.237183,794.30719,726.24292,792.129333,724.378723C786.227722,719.327148,769.607422,695.592712,766.479187,687.749329C762.942505,678.881775,760.613647,676,756.984131,676C753.211365,676,751,679.235229,751,684.754639C751,691.000366,753.179932,695.315796,759.867676,702.309143C763.12384,705.714111,769.381226,713.900024,773.772949,720.5C778.164734,727.099976,783.274902,733.939453,785.128967,735.698792C792.88855,743.06189,811.794983,747.904785,816.744385,743.79718z"/>
    <path transform="matrix(-0.26455,0,0,-0.26455,-88.665329,-268.676422)" style="stroke:#000000;stroke-width:0.05mm;fill:none" d="M933.169739,738.153931C936.547241,734.307129,942.241638,722.812073,944.569824,715.141052C947.437134,705.69342,945.891846,696.512939,941.23761,695.344788C937.186462,694.328003,934.932251,697.684021,933.301758,707.159302C932.378418,712.524963,930.770813,717.461792,928.794739,721C922.615784,732.063416,922,733.482117,922,736.654724C922,740.335632,924.96521,743.083374,928.063171,742.273254C929.126709,741.995117,931.424683,740.141418,933.169739,738.153931z"/>
    <path transform="matrix(-0.26455,0,0,-0.26455,-88.665329,-268.676422)" style="stroke:#000000;stroke-width:0.05mm;fill:none" d="M839.365112,728.927429C845.265747,724.286011,841.799866,719.640076,826.660278,711.896667C804.769348,700.700195,799.697449,695.224304,784.983643,666.900452C779.845154,657.009033,776.779053,652.228088,774.803467,651.026672C772.72345,649.761719,768.657288,649.139221,759.414917,648.670776C748.263611,648.105652,746.434875,648.247681,743.125366,649.936035C738.073914,652.513123,731.712341,659.047485,729.737366,663.687683C724.700989,675.520752,721,686.109985,721,688.68689C721,692.166565,724.96991,696.396362,729.823975,698.088501C732.597717,699.05542,733.391418,698.95575,735.078674,697.428833C736.892456,695.787354,737.010681,694.794556,736.431458,686.065125C735.820251,676.852051,735.903442,676.298157,738.692627,671.015442C742.69574,663.433655,748.781616,659.656555,756.871887,659.732727C767.361023,659.831543,771.526855,663.542053,778.905151,679.357727C784.046082,690.377563,791.035706,700.948242,798.422852,708.874939C801.209412,711.86499,805.379639,714.601929,811.597046,717.521179C816.600403,719.870422,822.28241,723.187073,824.223755,724.891602C828.296021,728.467102,832.789978,730.984985,835.115112,730.993835C836.003479,730.997253,837.915955,730.067322,839.365112,728.927429z"/>
    <path transform="matrix(-0.26455,0,0,-0.26455,-88.665329,-268.676422)" style="stroke:#000000;stroke-width:0.05mm;fill:none" d="M861.118286,707.915771C864.75708,705.324707,867.343506,700.343628,869.96814,690.872375C874.014648,676.270081,872.512024,673.763733,853.842102,663.974182C835.463257,654.33728,829,646.703918,829,634.634644C829,622.09845,837.033264,615.632935,852.5,615.720886C864.536682,615.789307,870.439026,618.394104,879.453857,627.615906C885.67926,633.984314,887.14856,635,890.136047,635C894.538025,635,896.005615,633.505249,895.978027,629.049988C895.911133,618.238281,885.364502,608,874.293945,608C872.658203,608,867.800964,607.099976,863.5,606C859.199036,604.900024,853.839539,604.006897,851.590027,604.015381C846.407837,604.03479,832.795532,607.432678,829.654297,609.490845C827.014343,611.220642,819.902649,619.367737,818.298462,622.5C813.289673,632.28009,818.561401,650.008728,830.198303,662.518555C834.519165,667.163574,838.693237,670.186584,847.465637,675.02417C853.828613,678.53302,859.660095,682.358459,860.4245,683.525146C862.970337,687.410583,862.792908,692.207092,860,695C857.01709,697.98291,852.058289,697.586792,847.398682,693.993469C845.254395,692.339844,841.025024,689.36969,838,687.393066C824.052673,678.27948,821.570618,676.2901,817.423523,670.900574C812.492188,664.492004,805.934265,652.810181,803.432312,645.977844C802.362915,643.057495,801.817139,638.551819,801.863098,633.023804C801.94873,622.730774,800.628357,620,795.565857,620C790.995911,620,787.41748,624.258667,786.567993,630.708435C785.795227,636.575684,786.836548,640.308716,791.32373,647.758118C793.226013,650.916138,796.916748,657.775024,799.525391,663C808.932495,681.842163,815.679443,689.328125,830.100647,696.924133C834.720276,699.357422,841.364807,703.294922,844.866272,705.674133C852.158569,710.629211,856.472046,711.224182,861.118286,707.915771z"/>
    <path transform="matrix(-0.26455,0,0,-0.26455,-88.665329,-268.676422)" style="stroke:#000000;stroke-width:0.05mm;fill:none" d="M938.389282,679.467834C940.175476,677.681702,940.686951,674.873901,941.535767,662.195557C942.259033,651.391846,942.315796,651.523499,932.81311,641.951721C924.250977,633.327209,923.128357,630.756165,920.483032,613.712097C920.057495,610.970215,918.318604,608.184509,914.186157,603.624512C910.448486,599.500122,907.617798,595.139099,905.988525,590.995056C902.014709,580.887329,900.959412,580.436462,882.171997,580.81958C865.033203,581.169067,861.676025,582.007996,861.202637,586.05957C860.64917,590.796753,863.709106,592.207092,876.236755,592.98877C890.132813,593.855835,894.039307,595.601013,900.290222,603.734375C906.928772,612.37207,909.789429,618.755127,910.849792,627.296265C911.364014,631.438171,912.581055,636.175049,913.55426,637.822632C914.527527,639.470154,918.868896,643.61615,923.201782,647.035889C930.612793,652.884949,934,657.050598,934,660.315491C934,661.093628,933.067322,662.915955,931.927429,664.365112C930.386902,666.323608,928.947632,667,926.320862,667C923.310547,667,921.72821,665.980835,915.643433,660.122742C905.874878,650.71814,904.229004,650.006592,892.851257,650.269104C881.487732,650.531311,878.434265,649.18396,869.5,639.965515C860.685547,630.870605,852.573547,627.808716,847.222534,631.556702C844.158569,633.702759,844.240051,638.887939,847.391235,642.288147C848.70636,643.707214,853.484497,646.729614,858.009216,649.004639C862.533875,651.279602,869.391418,655.239197,873.248169,657.803772L880.260437,662.466614L891.380188,663.014954C901.6297,663.520386,903.007202,663.834778,908.980713,667.031677C912.545105,668.93927,918.586121,672.862488,922.405212,675.75C929.867371,681.391968,935.220154,682.636963,938.389282,679.467834z"/>
    <path transform="matrix(-0.26455,0,0,-0.26455,-88.665329,-268.676422)" style="stroke:#000000;stroke-width:0.05mm;fill:none" d="M708.228271,677.25C709.074341,676.287476,711.19696,671.224976,712.94519,666C717.032349,653.784729,721.395874,647.200134,728.919983,641.894043C735.605713,637.179138,737.84375,633.445068,736.022949,630.042847C733.263245,624.886353,724.747192,625.493408,719.359863,631.230652C714.646545,636.250122,710.952759,642.233215,703.056641,657.638123C696.930481,669.589905,695.980408,672.094849,696.912659,673.836792C699.49707,678.665894,705.414734,680.450806,708.228271,677.25z"/>
    <path transform="matrix(-0.26455,0,0,-0.26455,-88.665329,-268.676422)" style="stroke:#000000;stroke-width:0.05mm;fill:none" d="M376.661743,664.900574C377.580566,663.001892,377.323425,658.527405,375.431793,643.5C371.926422,615.652832,372.409302,616.968506,363.017334,609.674988C351.615662,600.820801,347.859863,589.153259,353.609772,580.450195C355.045166,578.277588,359.205963,574.234924,362.855988,571.466492C368.753021,566.993774,369.804474,565.656799,372.293335,559.466492C375.968048,550.32666,379.543427,546.811951,389.074921,542.969788C395.215179,540.49469,397.914917,538.700562,401.831177,534.492798C404.563385,531.557251,408.30658,528.374695,410.149414,527.420532C413.936768,525.459534,422.881622,525.193481,427.315094,526.910034C432.160614,528.786133,439.089142,528.14624,447.35144,525.05957C451.669739,523.446289,456.067688,521.343689,457.124695,520.387146C460.484528,517.346558,464.890991,496.563019,463.616364,489.768555C462.718842,484.984467,452.499512,475.837799,433.764862,463.050385C427.756042,458.949036,425.019745,456.237732,421.504425,450.901794C416.516388,443.330414,413.476501,441.655945,409.149475,444.096252C405.434357,446.191406,404.369476,450.440552,406.447968,454.875732C410.682709,463.912018,412.693451,465.702057,425.613403,471.937683C444.19931,480.907867,451.973267,489.305267,451.994415,500.434265C452.003876,505.404053,448.41153,511.400421,443.90863,513.931213C439.603943,516.350586,437.496826,516.384216,415.361267,514.38739C407.920868,513.716125,406.488037,514.383484,395.350037,523.707336C390.867554,527.459717,383.242493,532.751282,378.405426,535.46637C366.575287,542.106689,363.484619,544.992615,361.452118,551.296631C358.704163,559.819641,355.546295,564.327026,349.207977,568.773071C345.942535,571.06366,342.565704,574.013855,341.703979,575.329041C339.204651,579.143494,336.780243,588.723022,337.492981,591.968018C338.325439,595.758179,344.758789,605.68457,351.63855,613.794006C361.388367,625.28656,363.771454,632.344543,364.707458,652.5C365.013947,659.099976,365.654175,665.256042,366.130157,666.180176C367.945831,669.705078,374.735901,668.880066,376.661743,664.900574z"/>
    <path transform="matrix(-0.26455,0,0,-0.26455,-88.665329,-268.676422)" style="stroke:#000000;stroke-width:0.05mm;fill:none" d="M349,666C351.286255,663.713745,351.417236,661.350647,349.970032,648.5C348.573822,636.102112,346.872253,631.595825,340.526306,623.48999C337.51651,619.645508,332.579163,612.868408,329.554413,608.42981C322.79953,598.517517,321.880188,597.700195,315,595.490723C311.975006,594.519226,303.875,591.364929,297,588.48114C290.125,585.597351,280.171326,581.597168,274.880707,579.591919C262.792786,575.010376,256.933777,571.145325,251.357101,564.073914C244.472351,555.343811,229.877274,525.292114,227.037949,514C225.134186,506.428711,223.793335,503.871918,221.211746,502.890411C215.88028,500.863373,212,505.265564,212,513.341125C212,516.835327,212.750778,518.817139,215.523071,522.640808C219.013779,527.455383,221.633514,532.511169,230.281311,551.12262C237.984909,567.701965,247.709595,580.323303,255.959854,584.449829C258.45694,585.698853,265.674988,588.430481,272,590.520203C285.951935,595.129822,303.596222,602.966248,310.834564,607.767944C318.122498,612.602539,330.286438,626.888,334.745148,635.848694C338.238342,642.86908,338.403931,643.666077,338.450867,653.687134C338.496704,663.474915,338.657959,664.304749,340.860779,666.08844C343.889221,668.540588,346.48761,668.51239,349,666z"/>
    <path transform="matrix(-0.26455,0,0,-0.26455,-88.665329,-268.676422)" style="stroke:#000000;stroke-width:0.05mm;fill:none" d="M322.088043,664.359253C323.850952,662.593994,324.219208,661.057922,324.187714,655.60083C324.120361,643.924072,321.114624,638.205811,308.857117,626.434998C298.094238,616.099487,284.905762,609.294434,263.247192,602.90094C249.671387,598.893494,243.885727,595.988098,238.551468,590.499573C232.133423,583.895874,222.514191,569.27655,217.370575,558.308777C206.071777,534.216309,206.113098,534.28949,203.109406,533.045288C200.731781,532.060486,199.664932,532.121887,197.223877,533.384216C191.06749,536.56781,191.349442,542.15625,198.039139,549.543213C200.810654,552.603638,203.930191,556.995911,204.971405,559.303772C206.012634,561.611694,208.176453,566.424988,209.779892,570C211.383331,573.575012,214.701889,578.974976,217.154449,582C219.60701,585.025024,224.059265,591.063416,227.048325,595.41864C233.966934,605.499512,238.026627,608.449036,247.830643,610.517761C272.059814,615.630249,283.335724,620.563904,294.271759,630.837402C298.247284,634.572144,303.075012,638.68396,305,639.974792C312.025604,644.685913,314,647.1297,314,651.114502C314,657.316345,307.493195,660.882996,301.684265,657.865295C300.48291,657.241211,294.457947,651.827148,288.295441,645.833984C274.370056,632.291382,269.794769,629.944336,249.502869,625.934021C228.63414,621.809692,225.479233,619.911743,216.505005,606.082458C213.083633,600.81012,208.158905,594.022217,205.561142,590.99823C199.603241,584.062683,196.548401,578.907043,193.988922,571.467773C191.542572,564.357361,188.621796,561,184.882385,561C179.494461,561,177.851654,566.546997,180.114578,577.098694C181.124725,581.808838,182.203888,583.275269,191.6315,592.748718C202.614471,603.785034,206.100891,608.694641,208.414703,616.382874C210.766769,624.198181,212.373138,625.740845,223.801529,631.159546C234.127716,636.055603,234.900177,636.257019,246,636.947449C265.177246,638.14032,273.596375,643.26709,277.972321,656.416809C279.376343,660.635864,280.951721,663.45166,282.334961,664.214417C285.821808,666.137085,292.614288,666.816223,306.725067,666.653015C318.795593,666.513367,320.13681,666.31311,322.088043,664.359253z"/>
    <path transform="matrix(-0.26455,0,0,-0.26455,-88.665329,-268.676422)" style="stroke:#000000;stroke-width:0.05mm;fill:none" d="M402.119537,663.880432C403.90976,662.09021,404.137177,661.041504,403.583191,657.130432C399.646332,629.337524,399.235687,622.581238,401.138092,616.899231C402.884491,611.683228,406.592438,607.315308,411.783875,604.358643C418.107269,600.757385,421.549805,597.462952,424.665894,592.030945C427.944794,586.315125,431.67041,582.254517,435.442078,580.285706C441.624847,577.05835,458.267303,579.276001,464.468048,584.153503C470.163879,588.63385,472.503723,599.044189,469.912476,608.376587C468.414307,613.772278,462.691833,619.514282,454.507629,623.834045C445.135651,628.780762,443.794647,631.23822,443.202515,644.551575C442.754944,654.615417,442.801849,654.892761,445.389221,657.480103C447.344879,659.435791,448.614777,659.948608,450.266663,659.449707C454.000854,658.32196,454.446838,657.264526,455.103241,647.982239C455.912354,636.540039,457.965363,633.558777,468.818726,628.065308C473.043427,625.926941,477.092072,623.196228,477.815735,621.997009C479.814026,618.685547,482,605.745422,482,597.227783C482,588.206726,480.097321,583.549011,473.343628,576.037292C468.435333,570.578125,463.401337,568.471375,457.735199,569.505188C455.955841,569.829834,451.373352,569.645325,447.551941,569.095093C437.021851,567.578979,432.699982,563.51355,430.973236,553.5C429.504944,544.985107,428.475769,543.096741,424.368073,541.380432C421.392395,540.137085,420.208557,540.085205,417.779266,541.091431C412.342285,543.343506,412.379639,547.87616,417.892975,554.893921C423.762726,562.365417,425.553711,569.783264,423.066986,576.323792C421.508148,580.423828,415.857117,586.104675,408.903778,590.561646C404.066956,593.661987,400.618744,597.018311,395.976105,603.144897C387.204346,614.720337,386.780487,616.227661,388.536163,629.60321C389.322052,635.590515,390.225464,644.541626,390.543762,649.494568C390.86203,654.447571,391.320587,659.481018,391.562714,660.680054C392.626282,665.946289,398.325806,667.674194,402.119537,663.880432z"/>
    <path transform="matrix(-0.26455,0,0,-0.26455,-88.665329,-268.676422)" style="stroke:#000000;stroke-width:0.05mm;fill:none" d="M259.94809,664.027771C264.60025,661.538025,262.938416,655.781982,256.757416,652.976379C249.21167,649.551331,240.558228,650.927673,239.349106,655.745178C238.438065,659.375061,240.485245,662.796631,244.210922,663.871094C248.62114,665.142944,257.695557,665.233276,259.94809,664.027771z"/>
    <path transform="matrix(-0.26455,0,0,-0.26455,-88.665329,-268.676422)" style="stroke:#000000;stroke-width:0.05mm;fill:none" d="M427.053406,661.157837C429.016113,659.568542,429.278229,658.573364,428.962982,653.907837C428.3909,645.441284,428.564728,637.096375,429.46701,629.711243C430.399445,622.079468,429.387024,618.953003,425.394104,617.133728C422.299774,615.723816,418.638733,617.09552,416.407593,620.500732C414.990021,622.664185,414.827881,624.441772,415.422974,631.295349C415.814819,635.807922,416.474701,643.875916,416.889435,649.224243C417.892212,662.157104,421.127838,665.956055,427.053406,661.157837z"/>
    <path transform="matrix(-0.26455,0,0,-0.26455,-88.665329,-268.676422)" style="stroke:#000000;stroke-width:0.05mm;fill:none" d="M684.709412,660.75C685.841309,659.512512,688.388306,654.723022,690.369446,650.10675C697.017822,634.615356,708.907654,618.233826,716.395752,614.248413C718.483093,613.137451,723.117493,612.412415,730.54303,612.035034C741.365662,611.485107,741.732056,611.387085,748.906555,607.124817C755.788025,603.036621,756.401367,602.377625,759.13269,596.137878C760.730774,592.487061,763.437195,586.86322,765.147034,583.640503C766.856812,580.417847,769.062805,574.643433,770.049255,570.808533C772.566833,561.021118,775.630554,556.888,783.985046,552.008728C791.639282,547.538391,793.123108,545.813477,796.136536,537.882813C797.23468,534.992676,799.903198,530.104675,802.066589,527.020569C805.404541,522.261963,806,520.636536,806,516.283264C806,509.584412,802.539795,505,797.483704,505C792.123413,505,790,508.588104,790,517.645752C790,528.626648,788.070435,531.878174,773.353699,545.696716C766.532837,552.101318,760.056396,558.79071,758.961609,560.562073C757.779419,562.474915,756.552856,567.118408,755.941162,571.996704C753.466125,591.735596,741.853271,602.302673,724.424561,600.675171C714.93335,599.788879,711.585938,601.177307,703.491272,609.357971C691.878845,621.093811,674,649.659851,674,656.477783C674,659.637695,677.260986,663,680.325684,663C681.604797,663,683.577454,661.987488,684.709412,660.75z"/>
    <path transform="matrix(-0.26455,0,0,-0.26455,-88.665329,-268.676422)" style="stroke:#000000;stroke-width:0.05mm;fill:none" d="M222.687439,658.214355C224.61615,656.987976,225.815186,652.688782,224.906906,650.256348C223.814514,647.33075,219.020447,644.441284,211.218948,642.006287C206.367203,640.492004,202.498749,640.092285,194.218948,640.249756C180.943771,640.502197,177.019272,638.970947,168.290604,630.13324C163.158676,624.937195,161.696579,624,158.722275,624C154.576431,624,149.499207,628.162781,148.425018,632.442749C147.385345,636.585083,150.822327,639.230042,163.5,644.043823C177.60817,649.400757,182.019318,650.705933,193.830048,653.018066C199.148529,654.059265,206.425003,655.796753,210,656.87915C217.0224,659.00531,220.815689,659.40448,222.687439,658.214355z"/>
    <path transform="matrix(-0.26455,0,0,-0.26455,-88.665329,-268.676422)" style="stroke:#000000;stroke-width:0.05mm;fill:none" d="M484.150299,655.297974C486.563507,653.210571,486.907715,650.772461,485.405975,646.404175C483.059021,639.577332,478.390381,638.117737,473.110718,642.560303C467.566162,647.225708,468.247711,656.208435,474.225372,657.251282C477.598114,657.839661,482.276306,656.918945,484.150299,655.297974z"/>
    <path transform="matrix(-0.26455,0,0,-0.26455,-88.665329,-268.676422)" style="stroke:#000000;stroke-width:0.05mm;fill:none" d="M511.777496,653.443298C515.02478,651.168823,514.622925,646.51001,510.341827,636.798462C505.814636,626.528687,505.10318,618.721008,507.387817,604.380676C509.435303,591.529114,509.487915,579.844238,507.515503,576.030029C506.699036,574.451111,503.967255,571.468201,501.444824,569.401306C494.962006,564.089111,492.851776,559.398926,492.287415,549.048279C491.93692,542.619812,491.07309,538.655823,488.803986,533.063232C484.89975,523.440674,485.16153,516.924377,489.808472,508.059326C493.162598,501.660553,493.734161,497.705444,491.88974,493.657318C489.520386,488.457184,482.068329,487.977966,479.602142,492.867157C478.871704,494.315216,477.982727,498.460968,477.626617,502.079926C477.270508,505.698883,476.275574,511.323883,475.415619,514.579895C473.056,523.514282,473.352386,527.64679,476.880066,535C479.669403,540.814209,479.998505,542.464417,479.999207,550.640808C480.000092,560.683716,479.536987,559.641968,490.218445,573.63031C497.429718,583.074158,498.494995,591.715698,495.117767,613.373413C493.116882,626.204956,493.268799,627.813721,497.395996,637.5C498.802094,640.799988,499.963196,644.220337,499.976257,645.100769C500.087799,652.62262,506.488831,657.147644,511.777496,653.443298z"/>
    <path transform="matrix(-0.26455,0,0,-0.26455,-88.665329,-268.676422)" style="stroke:#000000;stroke-width:0.05mm;fill:none" d="M544.077637,651.429749C546.259644,649.455078,546.644165,644.089783,544.847839,640.684265C544.214172,639.48291,541.603943,636.199524,539.047424,633.387756C536.490845,630.57605,533.859314,626.473816,533.199585,624.271729C530.535583,615.380249,532.305176,603.533386,538.551025,588.445007C542.679626,578.471436,542.627747,574.425537,538.327942,571.043335C534.870117,568.323364,530.736877,568.462158,527.305786,571.413269C524.603577,573.737488,524.495728,574.189758,524.383667,583.663269C524.319641,589.073486,523.532166,597.262207,522.633667,601.860474C520.053589,615.064209,520.436768,621.592468,524.38916,631.771545C526.253174,636.572205,528.104919,642.48468,528.50415,644.910461C529.553345,651.285461,532.971619,654.401306,538.153625,653.706238C540.354492,653.411011,543.020325,652.386597,544.077637,651.429749z"/>
    <path transform="matrix(-0.26455,0,0,-0.26455,-88.665329,-268.676422)" style="stroke:#000000;stroke-width:0.05mm;fill:none" d="M575.093872,648.70929C577.306641,647.327393,578.65155,644.076477,579.524353,638C579.879883,635.525024,582.14856,628.549988,584.565857,622.5C586.983093,616.450012,589.23999,610.092468,589.580994,608.372192C591.204712,600.182373,581.314636,595.62323,577.582275,602.840942C576.782471,604.387512,575.452454,609.523865,574.626648,614.255127C572.870544,624.316101,571.288208,627.738037,565.306274,634.411743C561.284912,638.898132,560.929443,639.71875,561.201843,643.887878C561.443298,647.584534,561.975281,648.698303,564,649.746338C566.684204,651.135681,572.005005,650.638306,575.093872,648.70929z"/>
    <path transform="matrix(-0.26455,0,0,-0.26455,-88.665329,-268.676422)" style="stroke:#000000;stroke-width:0.05mm;fill:none" d="M660.246155,649.25C661.102051,648.287476,663.10675,644.120361,664.70105,639.989746C669.314697,628.036621,685.344604,605.604797,696.894836,594.93866C702.884583,589.407349,704,587.869568,704,585.143188C704,579.120422,697.328918,575.148071,692.002014,577.998901C690.975464,578.548279,687.842773,582.793701,685.040405,587.433105C682.238098,592.07251,674.739685,602.535461,668.377258,610.684204C656.151917,626.341919,651.058167,635.304321,650.235291,642.60498C649.855408,645.974915,650.166443,647.526489,651.522156,649.024475C653.735291,651.469971,658.170166,651.584595,660.246155,649.25z"/>
    <path transform="matrix(-0.26455,0,0,-0.26455,-88.665329,-268.676422)" style="stroke:#000000;stroke-width:0.05mm;fill:none" d="M605.944214,646.055786C607.01355,644.98645,608.156006,642.398926,608.483032,640.305786C611.018066,624.080627,614.472717,612.963745,619.410461,605.141846C620.899475,602.783142,625.323059,597.398804,629.240723,593.176636C640.068054,581.507751,644.532654,574.878906,652.595947,558.5C656.657349,550.25,661.389893,540.937744,663.112671,537.806091C665.355896,533.728333,666.063965,531.390991,665.607239,529.57135C664.785522,526.297363,661.149658,525.354126,657.208069,527.392395C651.408997,530.391235,647.322083,536.655334,641.557556,551.380249C634.838501,568.543579,629.604492,576.622681,617.509766,588.5C612.469116,593.450012,607.617065,598.625,606.727295,600C605.837585,601.375,604.610413,605.650024,604.000305,609.5C603.390137,613.349976,600.890503,621.425537,598.445496,627.445557C593.988525,638.419373,592.958984,644.559021,595.200012,646.799988C597.124084,648.72406,603.733765,648.266235,605.944214,646.055786z"/>
    <path transform="matrix(-0.26455,0,0,-0.26455,-88.665329,-268.676422)" style="stroke:#000000;stroke-width:0.05mm;fill:none" d="M634.027588,646.466797C634.727417,645.623535,635.902649,641.460999,636.63916,637.216797C638.483521,626.588562,642.2901,619.508301,653.711548,605.461975C659.095215,598.841003,665.495972,590.291016,667.935425,586.461975C670.374939,582.632874,674.410583,576.366882,676.903503,572.537537C680.10791,567.615234,682.104675,562.993958,683.717957,556.766296C687.21936,543.249451,690.416687,539.321167,703.060974,533.001221C711.645142,528.710632,714,526.428101,714,522.398254C714,520.053101,713.244568,518.550903,711.293274,517.016052C707.855591,514.312012,704.870728,514.980591,699.757568,519.600098C697.652527,521.501831,692.773621,525.081177,688.915527,527.554138C681.953308,532.016785,681.861084,532.13446,676.590393,543.275208C659.244019,579.940491,656.5354,584.474182,642.10321,601C632.229553,612.30603,628.349548,619.135437,625.070679,630.979919C622.594238,639.925659,622.452515,644.309692,624.571411,646.428589C626.581604,648.438782,632.371521,648.462158,634.027588,646.466797z"/>
    <path transform="matrix(-0.26455,0,0,-0.26455,-88.665329,-268.676422)" style="stroke:#000000;stroke-width:0.05mm;fill:none" d="M967.927307,636.863342C972.642273,635.149658,977.772339,633.285339,979.327454,632.720398C985.385681,630.51947,986.565979,622.748596,981.986023,615.217407C978.646545,609.726074,974.511841,610.896423,969.063538,618.875366C963.918762,626.409668,960.987061,628.965576,956.689758,629.662903C953.587341,630.166382,952.657837,629.811707,949.929382,627.083252C947.266968,624.420837,946.863281,623.41156,947.38031,620.709961C947.736389,618.849243,949.418884,616.239014,951.382996,614.5C953.246643,612.849976,956.654968,609.860779,958.957031,607.857239C962.509399,604.765625,963.094116,603.721436,962.82135,600.956116C962.613647,598.850098,961.57489,597.010254,959.884155,595.753784C957.462646,593.954285,957.054138,593.924622,954.384155,595.354797C952.797913,596.204529,948.012512,600.193237,943.75,604.218628C936.308411,611.246155,936.000854,611.715759,936.021973,616.018738C936.05127,622.001892,938.865845,627.872681,944.692993,634.105347C952.162964,642.095154,953.195313,642.217651,967.927307,636.863342z"/>
    <path transform="matrix(-0.26455,0,0,-0.26455,-88.665329,-268.676422)" style="stroke:#000000;stroke-width:0.05mm;fill:none" d="M770.040588,632.463257C772.923523,629.854248,772.685852,623.59491,769.586121,620.495239C765.871155,616.780212,762.713745,616.433899,757.253174,619.142395C751.843018,621.825867,750.004517,625.262512,751.57843,629.75C753.351135,634.804443,765.483398,636.587463,770.040588,632.463257z"/>
    <path transform="matrix(-0.26455,0,0,-0.26455,-88.665329,-268.676422)" style="stroke:#000000;stroke-width:0.05mm;fill:none" d="M193.22467,623.670715C195.739563,619.717163,191.683151,612.730164,181.639587,603.715881C171.516846,594.630493,169.385727,593.816406,158.857559,595.012817C151.429276,595.856934,149.888458,596.407288,145,599.962463C141.975006,602.162415,136.007889,605.823425,131.739746,608.097961C123.432655,612.524963,121.748566,614.958008,123.829727,619.525635C125.181404,622.492249,130.508926,625.34137,133.357697,624.621155C134.535965,624.323242,137.896042,621.353638,140.824539,618.022034C152.880188,604.306946,165.408875,603.52002,175.740112,615.828918C182.790482,624.228943,185.822037,626.259094,189.98999,625.371643C191.359467,625.080017,192.815079,624.314636,193.22467,623.670715z"/>
    <path transform="matrix(-0.26455,0,0,-0.26455,-88.665329,-268.676422)" style="stroke:#000000;stroke-width:0.05mm;fill:none" d="M555.042847,622.977112C557.867554,621.465332,558.871704,618.997498,560.528748,609.4953C561.557312,603.597229,563.282349,598.452148,566.057434,593.005798C569.508057,586.233582,570.171997,583.890503,570.651062,576.794678C571.162415,569.21991,571.006592,568.201904,568.85553,565.065247C567.559998,563.176086,562.720154,558.676086,558.100342,555.065247C553.48053,551.454346,548.838135,547.340149,547.783936,545.922607C544.911133,542.05957,543.982666,536.46106,545.159241,530.096313C547.307007,518.478088,550.786865,515.473206,562,515.554138C570.994019,515.619019,577.153076,517.514465,589.86084,524.128174C600.364136,529.594604,602.73175,529.985229,605.751526,526.75C609.15979,523.098633,609.507813,519.701904,606.796692,516.550049C604.881897,514.323975,601.769348,513.086609,589.973633,509.862213C578.177429,506.637695,573.002625,505.760925,562,505.12262C552.567993,504.575439,547.394165,503.813416,544.830139,502.593811C540.272583,500.425934,523.062683,486.270752,520.816345,482.842499C517.417603,477.655273,512.914551,474,509.923065,474C504.002991,474,501.16748,480.57724,504.404999,486.799652C506.586975,490.993378,509.838684,493.480713,518.427307,497.525787C528.141968,502.101227,535.537842,509.019714,536.564514,514.49231C537.609741,520.063721,536.31665,529.419495,533.76416,534.753174C530.88623,540.76709,526.753235,543.489502,518.255981,544.968567C510.522949,546.314575,508,548.093567,508,552.200439C508,555.7323,511.971802,560,515.258789,560C516.551086,560,519.834045,558.585205,522.554199,556.856079C532.896423,550.281738,538.522156,550.885681,547.911194,559.578247C559.341919,570.161133,560.378113,576.750488,553.138123,592.818726C547.721008,604.841431,545.69751,613.320618,547.06427,618.270691C548.446289,623.27594,551.318542,624.970215,555.042847,622.977112z"/>
    <path transform="matrix(-0.26455,0,0,-0.26455,-88.665329,-268.676422)" style="stroke:#000000;stroke-width:0.05mm;fill:none" d="M448.961365,610.519958C452.664886,608.604797,456,604.330872,456,601.5C456,598.33075,452.479401,594.264221,449.0914,593.520081C439.899933,591.501282,432.124603,603.215515,438.454559,609.545471C441.24939,612.340271,444.803741,612.669983,448.961365,610.519958z"/>
    <path transform="matrix(-0.26455,0,0,-0.26455,-88.665329,-268.676422)" style="stroke:#000000;stroke-width:0.05mm;fill:none" d="M786.811462,606.96106C790.484009,603.539551,789.509094,594.677246,785.08667,591.281799C781.340515,588.405579,776.422058,591.098389,774.066589,597.315125C772.51825,601.401733,772.740356,603.400208,775.072571,606.365112C777.711609,609.720093,783.532776,610.015625,786.811462,606.96106z"/>
    <path transform="matrix(-0.26455,0,0,-0.26455,-88.665329,-268.676422)" style="stroke:#000000;stroke-width:0.05mm;fill:none" d="M813.974548,605.025452C817.409058,601.590942,817.335449,598.895386,813.49353,587.404358C808.53479,572.572876,804.516113,566.644714,797.666138,564.056519C793.899231,562.633179,788.625305,565.076172,787.001404,568.996582C785.432312,572.784729,786.554321,574.627869,793.091248,579C800.506958,583.959961,801.996155,586.408447,803.12439,595.495728C803.657776,599.792236,804.538818,604.138306,805.082275,605.153748C806.406921,607.628845,811.443848,607.556152,813.974548,605.025452z"/>
    <path transform="matrix(-0.26455,0,0,-0.26455,-88.665329,-268.676422)" style="stroke:#000000;stroke-width:0.05mm;fill:none" d="M122.707138,596.389832C133.565353,590.696777,135.178131,589.318726,134.797333,586.05957C134.254074,581.409973,130.697113,580.696045,117.303276,582.548279C104.492332,584.319885,102.44677,585.016968,101.523636,587.925537C100.773491,590.289001,103.091187,596.091187,105.912354,598.912354C109.066757,602.066772,113.00901,601.474609,122.707138,596.389832z"/>
    <path transform="matrix(-0.26455,0,0,-0.26455,-88.665329,-268.676422)" style="stroke:#000000;stroke-width:0.05mm;fill:none" d="M383.434021,596.460388C387.367035,590.457825,382.851196,582,375.713287,582C371.581116,582,367,586.041016,367,589.686035C367,596.125061,373.65744,601.712585,379.078003,599.822937C380.612518,599.288025,382.572723,597.774841,383.434021,596.460388z"/>
    <path transform="matrix(-0.26455,0,0,-0.26455,-88.665329,-268.676422)" style="stroke:#000000;stroke-width:0.05mm;fill:none" d="M936.363586,591.882568C941.264404,588.636414,944.379395,584.152222,943.437927,581.698792C942.018738,578.000488,931.830811,576.790344,925.25293,579.538757C918.823669,582.225098,918.184631,586.384644,923.400024,591.599976C927.640869,595.840881,930.30011,595.898865,936.363586,591.882568z"/>
    <path transform="matrix(-0.26455,0,0,-0.26455,-88.665329,-268.676422)" style="stroke:#000000;stroke-width:0.05mm;fill:none" d="M842.035156,590.481812C845.760864,588.555176,846.779724,584.838989,844.525513,581.398621C842.442383,578.21936,833.277466,573.853149,830.313965,574.628174C825.44458,575.901489,825.350525,584.550842,830.150452,589.660156C832.744629,592.421509,837.63092,592.759338,842.035156,590.481812z"/>
    <path transform="matrix(-0.26455,0,0,-0.26455,-88.665329,-268.676422)" style="stroke:#000000;stroke-width:0.05mm;fill:none" d="M599.606445,584.934204C604.753784,581.752991,617.409912,567.585938,620.79895,561.211731C622.469177,558.070251,625.685181,550.568237,627.945618,544.540466C634.691223,526.55249,638.480347,521.670471,651.283752,514.470642C655.312683,512.205017,659.416687,509.021484,660.630615,507.220184C663.684448,502.688568,671.000732,479.736206,670.996277,474.701416C670.991699,469.549652,669.378357,466.903381,659.636292,456.067871C655.466614,451.430206,651.327026,446.101532,650.437195,444.226379C648.664551,440.490814,648.886841,434.385712,651.048401,427.439575C653.598206,419.246002,649.143433,414.130554,642.300232,417.39389C637.511414,419.67749,635.524475,424.179504,635.61792,432.534637C635.755981,444.877594,636.277039,446.121002,645.411743,455.905457C656.261841,467.527374,658.336182,471.765167,657.835815,481.287598C657.159058,494.167206,650.20697,503.892975,636.381409,511.301727C632.596619,513.329895,628.781677,515.554199,627.903687,516.244629C625.977478,517.759399,623.712341,522.085083,622.009705,527.5C621.317993,529.700012,619.240479,534.02124,617.393005,537.102783C615.545593,540.184326,613.299561,545.584351,612.401855,549.102783C609.226868,561.547119,605.407654,566.207214,595.277771,569.997253C592.113342,571.181213,588.909424,572.660217,588.157959,573.283875C585.684326,575.336853,584.818115,579.146729,586.113892,582.274902C588.15271,587.197144,594.060791,588.361633,599.606445,584.934204z"/>
    <path transform="matrix(-0.26455,0,0,-0.26455,-88.665329,-268.676422)" style="stroke:#000000;stroke-width:0.05mm;fill:none" d="M733.759155,584.005432C740.289124,580.024048,742.937134,571.937134,739,568C736.40918,565.40918,731.787292,565.44043,726.322693,568.085815C718.53363,571.856445,715.734192,578.959229,720.174316,583.685547C722.958923,586.649597,729.182007,586.796143,733.759155,584.005432z"/>
    <path transform="matrix(-0.26455,0,0,-0.26455,-88.665329,-268.676422)" style="stroke:#000000;stroke-width:0.05mm;fill:none" d="M322.950714,580.026367C325.276093,578.78186,326.356323,574.534302,324.994568,571.989807C323.498352,569.194092,320.078552,567.691895,307,564.085205C293.197693,560.278931,278.948273,553.556946,273.58432,548.321716C264.590088,539.543335,256.893219,523.393616,254.409134,508.087799C252.914413,498.878052,250.49971,495,246.259949,495C239.296722,495,237.82869,499.658081,241.42012,510.356781C245.809723,523.433167,254.832047,543.23822,259.558044,550.17157C266.167084,559.867493,270.555786,562.82843,287.5,569.022949C292.450012,570.832642,301,574.260437,306.5,576.640259C316.785736,581.090942,319.801605,581.711731,322.950714,580.026367z"/>
    <path transform="matrix(-0.26455,0,0,-0.26455,-88.665329,-268.676422)" style="stroke:#000000;stroke-width:0.05mm;fill:none" d="M163,578C165.549698,575.450317,165.580444,570.464172,163.071854,566.350159C159.118088,559.866028,140.67717,555.473633,121.896957,556.542786C102.922531,557.622986,101.31559,555.884766,99.726212,532.560303C98.655258,516.843811,99.06913,512.915894,103.461349,497.111267C104.641022,492.866394,104.727119,490.801941,103.866943,487.385864C102.539413,482.11377,98.946831,478,95.670197,478C91.236633,478,90.5,480.267151,90.5,493.912445C90.5,500.835602,89.871124,512.125,89.102509,519C87.78508,530.783813,87.829987,532.351563,89.886299,546.362976C93.267372,569.401184,94.560425,571.152588,106.636101,569.049683C117.415863,567.172485,132.94783,566.605835,137.742767,567.914917C140.611542,568.698059,143.797729,570.842468,147.581497,574.536621C152.429153,579.269409,153.70047,580,157.08873,580C159.666672,580,161.681793,579.318237,163,578z"/>
    <path transform="matrix(-0.26455,0,0,-0.26455,-88.665329,-268.676422)" style="stroke:#000000;stroke-width:0.05mm;fill:none" d="M405.076935,575.076904C408.696381,571.457458,408.82019,568.075256,405.538208,562.475037C401.391266,555.398743,395.514008,554.402771,389.75,559.799438C384.796356,564.437378,386.445435,571.861511,393.366699,576.081909C397.902832,578.847961,401.625397,578.528442,405.076935,575.076904z"/>
    <path transform="matrix(-0.26455,0,0,-0.26455,-88.665329,-268.676422)" style="stroke:#000000;stroke-width:0.05mm;fill:none" d="M708.23291,562.875366C709.388672,562.256775,712.728455,559.800659,715.654602,557.417297C722.066345,552.194885,727.348633,550.605408,736,551.295227C740.444031,551.649597,743.607056,551.35614,746,550.367371C749.841736,548.779968,771.282288,528.118713,773.569824,523.799683C776.811523,517.678955,774.071533,511.666656,768.040405,511.666656C764.212708,511.666656,762.395935,513.280029,759.290283,519.437195C755.358521,527.232178,751.118103,532.654724,746.608826,535.653931C743.050537,538.02063,741.120239,538.476135,732.201904,539.053772C722.81958,539.661377,721.161865,540.088379,713.559998,543.855225C700.627136,550.263733,695.297607,558.293335,701.222534,562.443298C703.862793,564.292664,705.40686,564.387817,708.23291,562.875366z"/>
    <path transform="matrix(-0.26455,0,0,-0.26455,-88.665329,-268.676422)" style="stroke:#000000;stroke-width:0.05mm;fill:none" d="M825.652344,558.407898C826.586426,556.982239,827.541077,553.494751,827.773682,550.657898C828.147461,546.10022,827.807007,544.919312,824.848328,540.509705C821.41333,535.390137,819.577881,534.387146,815.511963,535.407654C812.444885,536.177429,809,543.332642,809,548.93335C809,552.597229,809.575867,553.811157,812.882324,557.117676C817.787781,562.023071,822.942322,562.543884,825.652344,558.407898z"/>
    <path transform="matrix(-0.26455,0,0,-0.26455,-88.665329,-268.676422)" style="stroke:#000000;stroke-width:0.05mm;fill:none" d="M341.055389,556.970337C343.721161,555.543701,346.239197,550.328979,345.45517,547.858704C344.556702,545.027954,339.891357,543.361023,330.5,542.515381C320.72525,541.635132,305.796143,537.95697,300.003296,535.001709C293.188843,531.525208,286.577332,524.657715,283.379517,517.734314C280.841705,512.239807,280.501526,510.37265,280.512787,502C280.527588,490.982239,282.181702,486.77887,288.88623,480.721741C295.73468,474.534607,300.926575,473.626556,324.952148,474.414063L345.5,475.087555L351.551819,472.179962C355.378479,470.341461,361.071075,466.035187,367.034119,460.46814C373.484985,454.445679,378.413147,450.780396,382.631653,448.867615C392.070618,444.587799,395.339111,438.784576,391.443298,433.222504C390.253937,431.524445,388.893433,431,385.677704,431C379.323608,431,375.318695,433.746979,369.6073,442.022766C363.607544,450.71637,354.806671,458.165588,347.042358,461.122131C342.107697,463.00116,339.59494,463.217072,324.125458,463.091095C305.586456,462.940125,290.51297,464.720032,284,467.829163C281.538452,469.004272,279.767456,470.98349,278.031006,474.5C276.673096,477.25,273.797577,482.556335,271.640991,486.29187C267.787201,492.967224,267.729126,493.217377,268.254089,500.876709C268.913513,510.497223,273.245178,523.517334,278.340149,531.193176C284.531219,540.520447,293.297638,545.483948,312.310944,550.427246C317.364929,551.741272,323.975006,553.945801,327,555.326233C332.916931,558.026367,337.976349,558.618225,341.055389,556.970337z"/>
    <path transform="matrix(-0.26455,0,0,-0.26455,-88.665329,-268.676422)" style="stroke:#000000;stroke-width:0.05mm;fill:none" d="M594.25,553.018982C597.184265,549.764038,597.585022,547.96167,596.023376,545.04364C594.867676,542.884155,569.29187,530,566.16095,530C563.793579,530,560,533.249634,560,535.277466C560,537.627075,563.067078,540.970947,568.80835,544.880798C571.938782,547.012634,575.400024,549.77594,576.5,551.021606C582.431274,557.738098,589.299072,558.510864,594.25,553.018982z"/>
    <path transform="matrix(-0.26455,0,0,-0.26455,-88.665329,-268.676422)" style="stroke:#000000;stroke-width:0.05mm;fill:none" d="M462.777496,553.443298C464.477234,552.252747,465,550.893799,465,547.665833C465,540.072083,460.325165,536.259705,453.335114,538.152954C445.162689,540.366455,442.294739,547.385681,447.454559,552.545471C449.44577,554.536682,450.913849,555,455.232025,555C458.431244,555,461.441711,554.378906,462.777496,553.443298z"/>
    <path transform="matrix(-0.26455,0,0,-0.26455,-88.665329,-268.676422)" style="stroke:#000000;stroke-width:0.05mm;fill:none" d="M176,548C181.052795,542.947205,176.960983,538.314331,163.600693,533.961121C154.438385,530.975708,153.052338,530.784607,144.983856,531.393677C129.450027,532.566345,126.966095,530.473694,123.417274,513.224548C123.15979,511.973083,122.050262,510.050262,120.951645,508.95166C119.383003,507.382996,118.536995,507.177429,117.011047,507.99408C113.866608,509.676941,112.94323,515.377808,113.945724,526.919189C115.212769,541.506165,114.884613,541.260498,134.249084,542.117859C149.558334,542.795715,155.750641,544.103699,163.5,548.296692C167.749771,550.59613,173.541321,550.458679,176,548z"/>
    <path transform="matrix(-0.26455,0,0,-0.26455,-88.665329,-268.676422)" style="stroke:#000000;stroke-width:0.05mm;fill:none" d="M515.401428,530.605652C524.929016,526.624756,523.789001,515.376282,513.45813,511.430878C509.263947,509.829071,508.46283,509.791107,506.157776,511.08493C500.547607,514.233826,499.621735,524.712646,504.520813,529.611755C507.233856,532.324768,510.559814,532.628601,515.401428,530.605652z"/>
    <path transform="matrix(-0.26455,0,0,-0.26455,-88.665329,-268.676422)" style="stroke:#000000;stroke-width:0.05mm;fill:none" d="M367.159546,524.86377C373.055847,521.488831,382.793488,514.813171,388.798706,510.0289C404.702637,497.358551,408.527863,496.23053,422.547302,500.076691C429.559357,502.000427,430.296783,502.035553,432.558472,500.55365C439.11731,496.256134,431.852203,488.919983,416.665253,484.505005C412.3685,483.25592,410.189087,483.087036,408.038971,483.836578C404.581635,485.041809,390.225098,494.605316,376.5,504.846008C357.995056,518.653137,352.669952,519.78363,326,515.566956C310.472107,513.111877,309.337982,512.781738,306.75,509.963318C303.487091,506.409882,303.30011,504.159485,305.984192,500.747223C308.991089,496.924591,311.911835,496.719299,322.706329,499.571991C329.483795,501.363098,335.425751,502.212524,342,502.330078C353.612396,502.537781,357.302643,501.080231,370.5,491.073364C375.450012,487.320038,382.200012,482.558624,385.5,480.492462C393.581024,475.432831,397,472.095612,397,469.267456C397,466.933228,393.002167,462,391.110565,462C388.283051,462,384.291504,464.638977,377.278503,471.144928C367.858734,479.883575,356.890869,487.210663,350.588318,488.975281C347.135498,489.942017,343.024628,490.069214,334.714417,489.466522C328.546478,489.019196,318.919678,488.618744,313.321472,488.576599C304.52774,488.510437,302.759094,488.781769,300.321472,490.571075C293.799713,495.358337,292.469574,504.119629,296.935547,512.873657C301.117523,521.070984,309.986023,525.080872,329.453125,527.576355C336.078918,528.425659,342.850006,529.502869,344.5,529.970093C352.172058,532.142578,355.917206,531.298645,367.159546,524.86377z"/>
    <path transform="matrix(-0.26455,0,0,-0.26455,-88.665329,-268.676422)" style="stroke:#000000;stroke-width:0.05mm;fill:none" d="M188.680389,521.912659C194.495605,519.097595,196.503677,516.24408,197.914581,508.790741C200.641083,494.387512,204.458633,487.958282,211.06955,486.636078C212.823914,486.285217,217.094955,486.52063,220.560745,487.159241C226.059128,488.172333,227.189575,488.105804,229.431091,486.637115C231.224777,485.461853,232,484.067291,232,482.0159C232,476.139404,226.205643,473.683289,212.247208,473.643036C206.927322,473.627686,205.37056,474.063477,201.812912,476.563873C196.32724,480.419342,190.414886,491.297424,188.584793,500.90213C187.024277,509.09198,185.000351,512.710815,181.48735,513.592529C177.235809,514.659607,174.072357,513.219604,172.243652,509.384735C170.5867,505.910095,170.614471,505.620239,173.366791,497.661011C184.630676,465.087708,197.23468,454.864197,220.5,459.429749C224.899994,460.293213,229.75795,460.999725,231.295456,460.999817C236.738449,461.000153,241.320755,453.170959,237.65715,450.130432C236.918579,449.517456,232.306076,448.815186,227.40715,448.569794C222.508209,448.324402,216.25,447.42569,213.5,446.572632C205.85112,444.199982,203.925446,444.568695,192.565598,450.581146C183.134964,455.572479,178,459.846893,178,462.705719C178,463.199066,175.456116,467.854584,172.346939,473.051361C163.169922,488.390015,162.051315,491.764618,162.023743,504.194244C162.002243,513.876953,162.213852,515.137085,164.260941,517.516968C166.798233,520.466736,175.718658,523.917786,180.93428,523.967346C182.82312,523.985291,186.308868,523.06073,188.680389,521.912659z"/>
    <path transform="matrix(-0.26455,0,0,-0.26455,-88.665329,-268.676422)" style="stroke:#000000;stroke-width:0.05mm;fill:none" d="M740.45105,520.75C742.333008,518.962524,745.755493,513.741638,748.056641,509.148071C752.216309,500.844391,752.236511,500.750427,751.550964,492.892151C750.500916,480.854248,752.409363,475.469574,760.557373,467.480408C768.605896,459.588837,768.741089,457.958557,762.626282,442.533203C760.220764,436.464935,757.402832,429.024994,756.364319,426C754.641418,420.98175,754.214294,420.5,751.488037,420.5C749.08313,420.5,748.148254,421.183014,746.697632,424C744.227844,428.796112,745.010437,433.595367,749.430054,440.755646C756.072998,451.518066,755.312439,457.304993,745.888367,467.704071C739.618958,474.622131,739.545044,474.852295,739.956238,486.182129C740.350098,497.035004,739.365173,500.347443,733.405396,508.214081C727.708435,515.733826,726.820313,519.03894,729.654968,522.171265C732.241516,525.029358,736.541626,524.463257,740.45105,520.75z"/>
    <path transform="matrix(-0.26455,0,0,-0.26455,-88.665329,-268.676422)" style="stroke:#000000;stroke-width:0.05mm;fill:none" d="M146.074631,514.410095C146.991699,513.305054,147.429718,509.111267,147.510773,500.660065C147.642883,486.884857,148.251083,484.959991,156.763107,471.377991C166.646149,455.608368,168.108414,449.970154,164.044006,443.304321C158.575134,434.335144,147.424988,434.498138,133.263,443.754333C123.813278,449.930634,113.030289,464.063324,113.009384,470.299652C112.98748,476.833496,118.819557,482.054504,122.618324,478.901794C123.494118,478.174957,125.910851,473.962219,127.988838,469.540131C137.572525,449.145538,149.526352,440.382019,154.539154,450.075714C156.725159,454.302979,155.039047,459.009003,149.872314,463.101135C146.84993,465.494904,144.569794,468.967224,140.490524,477.388245C137.526566,483.506866,134.801315,490.39032,134.434418,492.684784C133.574768,498.06073,136.495743,511.495728,139.087723,514.087708C141.415298,516.415283,144.299988,516.548401,146.074631,514.410095z"/>
    <path transform="matrix(-0.26455,0,0,-0.26455,-88.665329,-268.676422)" style="stroke:#000000;stroke-width:0.05mm;fill:none" d="M683.104126,514C684.704407,514,693.066956,505.77124,694.724854,502.565125C695.714233,500.651978,696.333923,496.693115,696.398132,491.876709C696.513611,483.205048,694.787048,480,690,480C686.387939,480,684.505859,482.413422,682.981506,489C682.281372,492.024994,680.424133,497.724976,678.854309,501.666595C677.284424,505.608215,676,509.51358,676,510.345154C676,512.523621,679.006042,515.21167,680.710754,514.557495C681.509766,514.250854,682.586853,514,683.104126,514z"/>
    <path transform="matrix(-0.26455,0,0,-0.26455,-88.665329,-268.676422)" style="stroke:#000000;stroke-width:0.05mm;fill:none" d="M628.157837,499.420013C634.018555,496.450165,639.622681,491.630371,641.551086,487.901215C644.030396,483.10675,643.423035,475.881805,640.163879,471.400024C636.905151,466.918884,629.587036,460.089264,627.747131,459.812195C627.061218,459.708893,620.875,459.59021,614,459.548492C602.240479,459.477081,601.045837,459.280853,593.833435,456.236298C587.39624,453.518982,584.910645,452.999115,578.333435,452.994415C568.442505,452.987396,563.891052,451.721252,559.315674,447.704041C554.150391,443.168823,552.046387,437.910522,552.031738,429.5C552.018433,421.87088,554.430908,415.17453,559.247375,409.471466C564.77002,402.93222,571.998108,391.526917,572.577698,388.437408C573.043701,385.95343,572.24408,382.972778,569.198547,375.841705C567.004211,370.703766,564.710388,364.64624,564.101074,362.380554C562.413696,356.106262,559.524658,353,555.376404,353C552.317017,353,551.713623,353.441132,550.367981,356.661652C548.306641,361.595245,549.219666,365.584717,553.908997,372.13324C562.188049,383.694794,561.503235,389.449005,550.469971,401.031555C546.413635,405.289764,542.875916,409.837158,542.608215,411.136871C542.340576,412.436584,541.559937,419.289215,540.873474,426.364899C539.642639,439.0513,539.657349,439.29007,541.930054,443.574158C545.659607,450.604492,554.320801,459.464142,559.704895,461.756348C562.396301,462.902161,569.025024,464.282043,574.814209,464.901611C580.487061,465.508728,590.32312,467.354218,596.67218,469.002716C605.320801,471.248291,610.458496,472,617.157654,472C629.637756,472,633,473.927429,633,481.081787C633,484.496613,630.190674,487.663055,626.29303,488.641296C622.547791,489.581299,609.433838,487.575867,595.259338,483.895508C588.807739,482.220398,577.897644,480.197845,571.014587,479.40097C552.536194,477.261627,545.704468,473.344116,534.507629,458.46701C527.79541,449.548523,526.311646,448.481995,518.694336,447.100372C507.912415,445.144714,504.473358,441.338287,501.416626,427.97699C499.475067,419.490204,499.176849,410.988403,500.42749,399.77655C501.076569,393.957428,500.976593,391.676727,500.022034,390.52655C496.936157,386.808289,484.987701,390.727905,483.125671,396.069305C482.272583,398.516541,482.671448,400.922577,485.396912,409.768951C487.21524,415.671021,489.921051,423.86203,491.40976,427.971161C495.327911,438.785828,495.7724,446.312531,492.825348,451.941467C489.693634,457.923096,486.249268,460.231842,479.639404,460.779999C475.031403,461.16214,473.388336,460.791901,468.934845,458.368011C461.145386,454.128448,455.616516,448.181824,451.085297,439.169617C448.867828,434.759338,446.041382,430.441956,444.80426,429.57547C437.311005,424.326965,429.200684,432.762085,433.232422,441.610748C434.427582,444.233856,466.531982,470.830261,471.856873,473.608582C475.38858,475.451324,482.427551,475.365479,486.506409,473.429932C488.326141,472.566406,491.957886,469.132385,494.576935,465.798767C505.483246,451.916779,515.430542,453.261169,529.954407,470.580139C536.483948,478.36618,543.799622,484.810791,549.390625,487.702026C551.21051,488.643127,558.13147,489.829498,566.474915,490.630585C580.408752,491.968414,598.685669,496.179718,611,500.889862C617.378052,503.329407,621.066589,503.013428,628.157837,499.420013z"/>
    <path transform="matrix(-0.26455,0,0,-0.26455,-88.665329,-268.676422)" style="stroke:#000000;stroke-width:0.05mm;fill:none" d="M720.150391,500.919495C724.595093,498.540771,726.517456,485.953918,723.650757,478C722.406555,474.547699,710.166016,458.56543,707.085266,456.370636C706.213379,455.749481,702.441589,454.324432,698.703552,453.203888C690.145935,450.63858,685.751587,447.301422,681.866577,440.417572C680.182129,437.432953,677.662415,434.093018,676.267151,432.995483C669.169983,427.412872,661.69342,434.564056,666.756592,442.092163C667.715454,443.517853,672.071228,448.592102,676.436035,453.368317C683.548462,461.151031,684.949524,462.211182,689.936035,463.58313C706.989746,468.275238,712.895264,475.925354,711.311279,491.272949C710.405762,500.046844,714.14856,504.131592,720.150391,500.919495z"/>
    <path transform="matrix(-0.26455,0,0,-0.26455,-88.665329,-268.676422)" style="stroke:#000000;stroke-width:0.05mm;fill:none" d="M782.545471,495.545441C785.713074,492.377869,785.788635,486.987366,782.75,480.962952C779.853577,475.22052,776.215271,473.718506,772.247986,476.62735C768.747986,479.193573,766.00354,484.553528,766.001526,488.826935C765.997864,496.722076,776.929443,501.161438,782.545471,495.545441z"/>
    <path transform="matrix(-0.26455,0,0,-0.26455,-88.665329,-268.676422)" style="stroke:#000000;stroke-width:0.05mm;fill:none" d="M258.249084,480.018707C261.733887,477.277557,264.239746,470.760773,263.031219,467.582153C261.218964,462.815491,255.680115,461.678192,250.288467,464.965637C244.447891,468.526825,244.319641,477.811066,250.070633,480.73526C253.475967,482.466766,255.345062,482.303009,258.249084,480.018707z"/>
    <path transform="matrix(-0.26455,0,0,-0.26455,-88.665329,-268.676422)" style="stroke:#000000;stroke-width:0.05mm;fill:none" d="M97.965103,462.018677C98.973595,461.478943,101.598473,457.758118,103.798157,453.750183C109.576408,443.221924,121.054604,433.145081,134.362061,426.917755C140.20253,424.184662,143.71936,423.3508,157.928864,421.329926C162.165573,420.727356,168,415.19986,168,411.788574C168,408.485382,164.505615,404.997406,161.211044,405.012054C159.719971,405.018677,156.667404,406.072205,154.427567,407.35321C152.187744,408.634216,145.212738,411.598907,138.927567,413.941406C125.41748,418.976685,122.084328,420.803925,111.56884,428.939606C107.206711,432.314514,101.055939,436.451874,97.900475,438.133728C91.207695,441.700958,89.577744,444.621155,89.531052,453.128235C89.487198,461.118103,92.908722,464.724762,97.965103,462.018677z"/>
    <path transform="matrix(-0.26455,0,0,-0.26455,-88.665329,-268.676422)" style="stroke:#000000;stroke-width:0.05mm;fill:none" d="M735.685547,457.825684C740.289063,453.500885,737.832947,445,731.979858,445C724.966736,445,721.585754,452.676666,726.454529,457.545441C729.487244,460.578125,732.653381,460.674255,735.685547,457.825684z"/>
    <path transform="matrix(-0.26455,0,0,-0.26455,-88.665329,-268.676422)" style="stroke:#000000;stroke-width:0.05mm;fill:none" d="M290.650635,450.869415C299.650482,449.25119,306.97406,448.705902,321.104919,448.601929C339.676788,448.46524,339.720215,448.459686,345.561951,445.472107C352.343018,442.00415,358,435.403534,358,430.95929C358,428.222504,355.656799,421.336151,352.330536,414.297363C350.001038,409.36792,346.68338,408.733704,330.388,410.102814C312.298096,411.62265,308.804474,411.613922,300.936798,410.029266C297.236481,409.283966,292.76236,409.009613,290.679901,409.400269C286.348358,410.212891,279,416.686707,279,419.690186C279,424.722015,285.752838,426.50177,295.155518,423.948029C297.544983,423.299072,307.149994,422.367004,316.5,421.876801C325.850006,421.386627,335.614471,420.720306,338.198822,420.396149C342.325043,419.878571,343.208557,420.117645,345.448822,422.35791C350.209229,427.118317,348.051117,434.058533,341.22052,435.955566C339.174225,436.523865,330.499298,436.991364,321.942902,436.994415C310.689728,436.998444,303.367371,437.554565,295.475433,439.004517C283.041656,441.28891,279.664032,440.978333,272.378265,436.880615C266.359528,433.495483,261.771759,433.232086,257.215424,436.010071C251.961182,439.213562,250.980392,444.848785,255.276871,447.148193C258.205627,448.715607,273.032898,452.810486,276.150635,452.912903C277.608459,452.960815,284.133484,452.041229,290.650635,450.869415z"/>
    <path transform="matrix(-0.26455,0,0,-0.26455,-88.665329,-268.676422)" style="stroke:#000000;stroke-width:0.05mm;fill:none" d="M618.365112,442.927429C625.059814,437.661407,617.7229,428.624817,605.647644,427.263763C602.555969,426.915283,600.893616,427.273193,599.224426,428.64679C596.460693,430.921112,594.988953,435.737793,596.121887,438.800537C598.149963,444.282898,613.112671,447.05899,618.365112,442.927429z"/>
    <path transform="matrix(-0.26455,0,0,-0.26455,-88.665329,-268.676422)" style="stroke:#000000;stroke-width:0.05mm;fill:none" d="M479.078918,441.852539C480.425537,439.336365,479.195709,434.307434,475.399658,426.807465C474.093353,424.226563,471.888245,418.151581,470.49939,413.307465C467.387848,402.454712,465.565002,400.595154,458.686035,401.256134C452.793732,401.822327,448.617615,404.701569,448.168243,408.50766C447.889832,410.865814,448.942719,412.377167,454.717468,417.908783C460.325806,423.280975,462.018433,425.664246,463.869385,430.795135C466.755402,438.795166,471.169617,444,475.06842,444C476.97168,444,478.314423,443.281006,479.078918,441.852539z"/>
    <path transform="matrix(-0.26455,0,0,-0.26455,-88.665329,-268.676422)" style="stroke:#000000;stroke-width:0.05mm;fill:none" d="M184.871887,438.894806C190.671692,436.872986,191.660156,431.506317,187.07692,426.923065C181.714157,421.560303,173.962143,424.131561,174.031799,431.25C174.06636,434.781921,175.383194,437.0047,178.5,438.792175C181.00621,440.229492,181.041595,440.230072,184.871887,438.894806z"/>
    <path transform="matrix(-0.26455,0,0,-0.26455,-88.665329,-268.676422)" style="stroke:#000000;stroke-width:0.05mm;fill:none" d="M718.979126,435.348755C728.736023,430.361786,730.774841,428.265411,733.350281,420.571869C736.58728,410.902039,735.102356,407.998169,723.855042,402.003448C715.784241,397.701721,710.813782,393.103699,707.076965,386.482391C703.651306,380.412476,701.212219,378.657654,697.497192,379.590057C690.948425,381.233704,690.342407,388.125305,695.979736,396.847321C700.444519,403.755219,703.98877,406.331909,711.416077,408.069672C717.882385,409.582611,721.540344,411.69574,722.914795,414.712311C724.598633,418.407898,724.216187,420.874725,721.545471,423.545441C718.211548,426.879395,713.757813,426.717499,705.752563,422.971405C700.505432,420.515961,698.792419,420.128418,696.701111,420.923523C688.652283,423.983704,692.316895,434.856079,702.637268,438.535187C708.328369,440.564026,709.051453,440.423035,718.979126,435.348755z"/>
    <path transform="matrix(-0.26455,0,0,-0.26455,-88.665329,-268.676422)" style="stroke:#000000;stroke-width:0.05mm;fill:none" d="M578.027832,436.985107C579.199341,436.358154,580.726135,433.277313,582.022278,428.92514C583.78125,423.018799,584.993225,421.014221,589.520264,416.523193C595.206177,410.882568,596.352844,408.407898,595.823669,402.919556C595.595337,400.550903,594.743469,399.139862,592.930725,398.127441C588.860596,395.854279,585.330627,397.350891,582.207397,402.673767C580.718323,405.211609,578.029053,409.360748,576.231201,411.894012C567.88031,423.661011,567,425.351776,567,429.623199C567,433.003632,567.530029,434.271729,569.634888,435.927429C572.534241,438.208099,575.131165,438.535339,578.027832,436.985107z"/>
    <path transform="matrix(-0.26455,0,0,-0.26455,-88.665329,-268.676422)" style="stroke:#000000;stroke-width:0.05mm;fill:none" d="M525.977112,428.042816C526.539673,426.991577,527,421.447662,527,415.723022C527,403.18692,528.642334,399.362549,536.733521,393.057678C542.296265,388.722992,543.867615,385.489624,542.056152,382.10495C540.29541,378.814972,536.657166,378.537933,528.720337,381.089478C517.89325,384.57019,517.753052,384.806,515.614929,403.135956C513.794495,418.741913,513.963135,422.998627,516.606873,428.174072C518.792908,432.453552,523.652954,432.385498,525.977112,428.042816z"/>
    <path transform="matrix(-0.26455,0,0,-0.26455,-88.665329,-268.676422)" style="stroke:#000000;stroke-width:0.05mm;fill:none" d="M420.461975,423.584686C429.874268,415.872009,432,413.403961,432,410.188629C432,406.337158,428.926392,404,423.861267,404C421.093018,404,418.297546,405.250732,412.704132,408.991852C401.882294,416.229919,399.587738,420.786865,404.25,425.781494C407.664948,429.43985,414.436218,428.522308,420.461975,423.584686z"/>
    <path transform="matrix(-0.26455,0,0,-0.26455,-88.665329,-268.676422)" style="stroke:#000000;stroke-width:0.05mm;fill:none" d="M95.315742,422.85376C96.517082,422.223328,99.642853,419.926941,102.261902,417.750671C110.325974,411.049957,121.986626,404.70459,134.881668,400C147.835602,395.273956,152,392.564423,152,388.862213C152,386.181183,148.321106,382,145.962158,382C145.033096,382,135.774048,386.351501,125.386475,391.670013C114.998917,396.988525,102.004547,403.626007,96.510109,406.420013C87.821075,410.838501,86.403648,411.918884,85.625,414.716705C84.257515,419.630341,86.404877,424,90.187065,424C91.806496,424,94.114403,423.484192,95.315742,422.85376z"/>
    <path transform="matrix(-0.26455,0,0,-0.26455,-88.665329,-268.676422)" style="stroke:#000000;stroke-width:0.05mm;fill:none" d="M625.75,413.363434C628.38031,410.470123,628.529297,408.924225,626.54718,405.091187C621.82782,395.965027,607.039612,401.438751,610.944641,410.866302C612.032959,413.493774,614.060852,415.066437,618,416.337921C620.43634,417.124329,623.346252,416.007477,625.75,413.363434z"/>
    <path transform="matrix(-0.26455,0,0,-0.26455,-88.665329,-268.676422)" style="stroke:#000000;stroke-width:0.05mm;fill:none" d="M681.389282,414.75C685.334961,411.200104,685.262878,405.444946,681.216064,400.915771C676.354187,395.474396,669.134033,396.972504,665.397644,404.197968C663.293884,408.266205,663.692261,410.8461,666.923096,414.076935C670.737061,417.8909,677.546143,418.207703,681.389282,414.75z"/>
    <path transform="matrix(-0.26455,0,0,-0.26455,-88.665329,-268.676422)" style="stroke:#000000;stroke-width:0.05mm;fill:none" d="M651.211487,399.102325C653.896301,396.703491,654.454529,395.480103,654.454529,391.995575C654.454529,386.598907,651.562561,383.986298,645.639221,384.031799C640.843323,384.068665,638.50592,385.539093,637.016602,389.456329C635.065308,394.588593,640.471069,401.936279,646.234253,401.98526C647.188049,401.993378,649.427795,400.696045,651.211487,399.102325z"/>
    <path transform="matrix(-0.26455,0,0,-0.26455,-88.665329,-268.676422)" style="stroke:#000000;stroke-width:0.05mm;fill:none" d="M333.323853,395.351776C347.424652,394.735809,348.222626,394.589874,349.684082,392.359406C351.645935,389.365234,350.72998,385.524414,347.558533,383.446381C345.437836,382.056885,343.932373,382.014923,335.007751,383.096558C326.994324,384.06778,323.185822,384.068329,316.85495,383.099182C309.806976,382.020233,308.546539,382.067108,306.376984,383.488647C303.087494,385.644012,301.562531,389.744476,302.932343,392.750885C304.380432,395.929077,307.604309,397.069977,313.5,396.490631C316.25,396.220428,325.170715,395.707947,333.323853,395.351776z"/>
    <path transform="matrix(-0.26455,0,0,-0.26455,-88.665329,-268.676422)" style="stroke:#000000;stroke-width:0.05mm;fill:none" d="M94.5,391.376923C97.800003,389.387085,109.785042,383.112427,121.133423,377.433289C139.743698,368.120026,141.876236,366.793793,142.882492,363.907227C144.23587,360.024933,143.107758,355.137421,138.963226,346.927155C137.401978,343.834351,135.147049,338.278015,133.952271,334.579773C132.757492,330.881531,130.762787,326.673187,129.519608,325.227905C127.32711,322.678955,127.181839,322.650848,124.679253,324.290588C121.634232,326.285767,119.814163,331.906158,120.962097,335.769196C121.408409,337.271149,123.399521,341.173523,125.386787,344.441162C128.103394,348.908051,129,351.484314,129,354.82309C129,360.920288,125.103951,364.368591,112.417343,369.5C99.947273,374.543823,83.044571,382.677368,80.75,384.73822C79.787498,385.602692,79,387.394806,79,388.720734C79,396.090576,84.98262,397.115784,94.5,391.376923z"/>
    <path transform="matrix(-0.26455,0,0,-0.26455,-88.665329,-268.676422)" style="stroke:#000000;stroke-width:0.05mm;fill:none" d="M619.547913,385.544434C625.299316,383.141327,626.042847,376.918732,620.89563,374.26474C619.578064,373.585358,615.41803,373.022858,611.651123,373.01474C603.603394,372.997406,599.130066,371.194336,595.147217,366.362457C591.244446,361.627686,585.840088,350.227295,582.040833,338.714783C580.264771,333.332916,577.688965,327.595398,576.316895,325.964783C573.528015,322.65036,571.547363,322.383911,561.615295,323.987091C558.251892,324.529999,553.353943,325.233856,550.731018,325.551208C547.232239,325.974548,545.555481,326.74881,544.435425,328.458221C542.483765,331.436798,543.457214,335.598267,546.585022,337.647675C548.675415,339.017334,549.621582,339.021484,555.473145,337.686737C565.882935,335.312256,569.591064,337.099792,573.35553,346.30722C574.748108,349.713257,577.731873,357.207581,579.986206,362.961273C584.216431,373.75827,587.543762,379.150299,591.175598,381.093994C596.286255,383.829132,606.904663,386.928375,611.282104,386.962616C613.912292,386.983185,617.631897,386.345001,619.547913,385.544434z"/>
    <path transform="matrix(-0.26455,0,0,-0.26455,-88.665329,-268.676422)" style="stroke:#000000;stroke-width:0.05mm;fill:none" d="M674.990112,382.00528C676.01239,381.458191,678.474243,378.334717,680.460999,375.064209C684.793335,367.932465,688.492615,365.447479,696.758972,364.116211C700.175354,363.56604,703.599243,362.752319,704.367615,362.307953C705.136047,361.863586,711.8927,355.616302,719.382385,348.42514C734.448975,333.959045,734.727844,333.403473,731.020752,325.236237C726.398621,315.052948,727.792419,307.998047,735.825684,300.915741C745.405823,292.469666,753.467102,290.573547,761.710144,294.827362C766.797913,297.45285,771.163086,297.613525,773.192993,295.25C777.867554,289.80722,775.833374,285.751404,765.783264,280.475922C757.810181,276.29071,755.035583,276.899109,741.427856,285.816559C726.929016,295.317963,717.223816,303.281158,715.900391,306.762054C715.156555,308.718353,715.416687,311.013092,716.956848,316.083832C719.412109,324.167328,719.539673,329.060516,717.411865,333.544464C714.973633,338.682709,706.677856,345.801361,699.223328,349.152191C682.873047,356.501678,676.079773,360.177673,671.66272,364.065704C663.782776,371.001892,662.132568,376.22348,666.454529,380.545441C669.056152,383.147095,671.936279,383.639679,674.990112,382.00528z"/>
    <path transform="matrix(-0.26455,0,0,-0.26455,-88.665329,-268.676422)" style="stroke:#000000;stroke-width:0.05mm;fill:none" d="M82.713417,366.926727C87.263458,364.136444,93.576813,360.972443,96.743103,359.89566C107.359428,356.285217,110.008614,354.813873,110.675262,352.157715C111.606499,348.447388,109.066521,344.656891,104.967201,343.639404C99.872665,342.374847,94.273201,344.280426,87.441589,349.603546C84.173714,352.149841,78.838516,355.527924,75.585602,357.110382C72.33268,358.692841,68.845177,360.735138,67.835602,361.648773C64.014877,365.106476,66.70517,372,71.875305,372C73.286232,372,78.163383,369.717041,82.713417,366.926727z"/>
    <path transform="matrix(-0.26455,0,0,-0.26455,-88.665329,-268.676422)" style="stroke:#000000;stroke-width:0.05mm;fill:none" d="M646.336487,368.632751C648.236145,367.83902,651.80658,364.468872,654.848267,360.598389C663.140564,350.0466,669.520325,345.84906,693.725464,335.019104C700.900146,331.80899,703.454529,328.875549,703.454529,323.846405C703.454529,320.975677,702.881958,319.386414,701.477295,318.358185C698.859192,316.441742,695.847961,317.275024,688.5,321.949341C685.200012,324.048584,678.840271,327.641449,674.36731,329.933472C669.894348,332.225494,663.369324,336.601257,659.86731,339.65741C656.365295,342.713531,650.036804,347.867584,645.804016,351.110809C641.571289,354.354034,637.408752,358.006012,636.554016,359.226318C634.291321,362.456787,634.591858,366.600739,637.222534,368.443298C639.95636,370.358185,642.100342,370.40274,646.336487,368.632751z"/>
    <path transform="matrix(-0.26455,0,0,-0.26455,-88.665329,-268.676422)" style="stroke:#000000;stroke-width:0.05mm;fill:none" d="M346.163055,366.91275C348.304871,365.766479,348.739471,359.139465,346.799988,357.200012C346.058075,356.458099,342.409241,356,337.241547,356C332.644409,356,325.738312,355.512054,321.894684,354.91571C315.931305,353.990448,314.548737,354.065643,312.468994,355.428345C307.545319,358.65448,308.494965,366.486481,314.015045,368.178711C317.343658,369.199127,343.840546,368.155701,346.163055,366.91275z"/>
    <path transform="matrix(-0.26455,0,0,-0.26455,-88.665329,-268.676422)" style="stroke:#000000;stroke-width:0.05mm;fill:none" d="M67.798599,344.86377C77.666313,339.039063,80,336.829681,80,333.312286C80,330.352386,74.968353,325,72.185806,325C71.103386,325,68.031273,326.830505,65.358887,329.06778C62.686497,331.305084,58.700001,334.057495,56.5,335.184296C54.299999,336.311096,51.712502,337.925323,50.75,338.771484C46.744892,342.292511,50.501625,350,56.222916,350C57.886147,350,62.763458,347.835876,67.798599,344.86377z"/>
    <path transform="matrix(-0.26455,0,0,-0.26455,-88.665329,-268.676422)" style="stroke:#000000;stroke-width:0.05mm;fill:none" d="M346.065735,339.964813C347.433655,339.232727,348,337.86499,348,335.293549C348,329.640656,345.82254,328,338.320038,328C334.513489,328,329.660095,327.19516,326.259674,326C316.083679,322.423431,313.145782,323.527008,312.274933,331.253113C311.600708,337.234924,314.084991,339.311066,322.852112,340.092651C334.168335,341.101501,344.043457,341.047119,346.065735,339.964813z"/>
    <path transform="matrix(-0.26455,0,0,-0.26455,-88.665329,-268.676422)" style="stroke:#000000;stroke-width:0.05mm;fill:none" d="M51.124825,321.135803C56.745075,317.571533,60.0014,313.52594,59.995396,310.115143C59.992867,308.676819,58.682476,304.125,57.083416,300C54.127102,292.373749,52.725857,283.350708,51.415115,263.5C50.593513,251.057144,49.147186,247.75946,44.70068,248.190842C39.118443,248.732391,38.762138,250.854385,40.079182,275.714386C40.713974,287.696472,41.289738,298.399994,41.358654,299.5C41.427574,300.600006,41.106411,305.610504,40.644962,310.63446C39.375393,324.456726,41.899689,326.986206,51.124825,321.135803z"/>
    <path transform="matrix(-0.26455,0,0,-0.26455,-88.665329,-268.676422)" style="stroke:#000000;stroke-width:0.05mm;fill:none" d="M753.364746,318.172089C756.079712,315.737671,757.189331,312.22229,755.964966,309.93454C754.531006,307.255157,749.282959,307.385559,746.314453,310.174316C743.753479,312.580261,743.179382,317.779419,745.246521,319.846527C746.746399,321.346405,750.744263,320.52182,753.364746,318.172089z"/>
    <path transform="matrix(-0.26455,0,0,-0.26455,-88.665329,-268.676422)" style="stroke:#000000;stroke-width:0.05mm;fill:none" d="M349.813202,310.503723C353.413757,307.47406,356.249146,300.84079,355.39621,297.442474C354.575714,294.173401,350.416199,291,346.951721,291C343.878204,291,328.775452,301.536804,327.651764,304.465118C325.420837,310.278809,329.131805,312.901123,339.673279,312.959961C345.895813,312.99469,347.239746,312.669159,349.813202,310.503723z"/>
    <path transform="matrix(-0.26455,0,0,-0.26455,-88.665329,-268.676422)" style="stroke:#000000;stroke-width:0.05mm;fill:none" d="M556.918091,309.929535C563.503845,308.806671,566,306.759125,566,302.479858C566,297.607452,562.657654,293.994659,558.177429,294.024445C554.059631,294.051819,546.879028,295.497925,542.81488,297.118317C537.482361,299.244446,537.377197,308.959076,542.667664,310.722534C545.404907,311.634949,547.647583,311.510162,556.918091,309.929535z"/>
    <path transform="matrix(-0.26455,0,0,-0.26455,-88.665329,-268.676422)" style="stroke:#000000;stroke-width:0.05mm;fill:none" d="M369.901215,283.551086C374.106079,281.376678,379,275.321838,379,272.293945C379,268.700928,376.302246,266,372.71344,266C369.094391,266,361.524536,273.06192,360.418091,277.470276C359.822205,279.844574,360.166687,280.746613,362.404327,282.671387C365.578796,285.401917,366.184601,285.473022,369.901215,283.551086z"/>
    <path transform="matrix(-0.26455,0,0,-0.26455,-88.665329,-268.676422)" style="stroke:#000000;stroke-width:0.05mm;fill:none" d="M548.201904,280.82135C554.262329,279.005615,556,276.056183,556,267.585297C556,263.655518,556.715698,254.82872,557.590454,247.970139C559.813293,230.541794,559.749084,228.024994,557.025574,225.819626C555.789673,224.818832,553.548035,224,552.044189,224C547.221008,224,546.057068,226.536972,545.478455,238.311066C544.961121,248.838272,544.168335,252.211899,538.579529,267.668518C536.453247,273.548981,536.179565,275.342133,537.056335,277.648163C538.810974,282.263214,541.15863,282.93158,548.201904,280.82135z"/>
    <path transform="matrix(-0.26455,0,0,-0.26455,-88.665329,-268.676422)" style="stroke:#000000;stroke-width:0.05mm;fill:none" d="M791.599976,271.600006C793.469971,269.730011,795,267.27066,795,266.134796C795,261.09436,782.295898,251.206955,777.398804,252.43605C773.512512,253.411438,770,257.749237,770,261.573212C770,265.235718,774.176331,269.392029,781.5,273.018005C786.853638,275.66861,787.64209,275.557892,791.599976,271.600006z"/>
    <path transform="matrix(-0.26455,0,0,-0.26455,-88.665329,-268.676422)" style="stroke:#000000;stroke-width:0.05mm;fill:none" d="M398,257.902618C405.433441,253.463974,406.853149,248.567459,402.25,243.244293C398.333862,238.715591,395.080078,238.220291,391.122406,241.550446C385.024933,246.681152,383.152527,254.152527,387,258C389.572601,260.572601,393.588074,260.537048,398,257.902618z"/>
    <path transform="matrix(-0.26455,0,0,-0.26455,-88.665329,-268.676422)" style="stroke:#000000;stroke-width:0.05mm;fill:none" d="M812.927429,248.365143C816.512573,243.807327,815.69928,242.004303,806.078491,233.181503C801.171631,228.681671,796.321777,225,795.300964,225C790.716553,225,785.998962,232.27066,787.504883,237.015305C787.862122,238.141006,791.813965,241.748062,796.286621,245.031006C805.736145,251.966919,809.500916,252.721222,812.927429,248.365143z"/>
    <path transform="matrix(-0.26455,0,0,-0.26455,-88.665329,-268.676422)" style="stroke:#000000;stroke-width:0.05mm;fill:none" d="M434.143341,237.681503C443.974854,235.052002,448,232.821426,448,230.002625C448,227.274857,443.467102,225.200851,434.827271,223.97551C430.817596,223.40683,425.953644,222.470383,424.018463,221.894516C418.072662,220.125137,412.003723,221.091507,409.712616,224.17244C407.743408,226.820557,407.74292,226.875061,409.660156,230.157791C412.241302,234.577347,419.499725,240.000839,422.827728,239.996613C424.297485,239.994751,429.389496,238.952942,434.143341,237.681503z"/>
    <path transform="matrix(-0.26455,0,0,-0.26455,-88.665329,-268.676422)" style="stroke:#000000;stroke-width:0.05mm;fill:none" d="M47.490833,232.010132C48.496677,230.898682,49.499229,227.859802,49.761894,225.126205C50.149841,221.088776,49.861767,219.861771,48.116077,218.116074C46.952232,216.95224,44.875,216,43.5,216C42.125,216,40.047768,216.95224,38.883923,218.116074C34.641361,222.358643,38.024494,234,43.5,234C44.704514,234,46.500389,233.104553,47.490833,232.010132z"/>
    <path transform="matrix(-0.26455,0,0,-0.26455,-88.665329,-268.676422)" style="stroke:#000000;stroke-width:0.05mm;fill:none" d="M831.282104,228.652878C835.238525,226.996582,842,219.688477,842,217.068542C842,214.533722,839.681274,212.308044,836.260315,211.559219C830.797424,210.363419,818.132874,209.251938,815.564575,209.742905C812.405518,210.346786,810.035522,213.419937,810.71759,216.027954C811.389343,218.596802,820.262634,226.775558,824.26593,228.515823C828.264221,230.253937,827.493591,230.238892,831.282104,228.652878z"/>
    <path transform="matrix(-0.26455,0,0,-0.26455,-88.665329,-268.676422)" style="stroke:#000000;stroke-width:0.05mm;fill:none" d="M574.299072,207.471054C590.039368,201.167084,591.83551,189.71846,576.569031,193.002228C573.781067,193.601898,567.284851,194.492737,562.132996,194.981857C554.572266,195.699677,552.306519,196.302872,550.382996,198.109894C547.514648,200.804565,547.192871,205.965302,549.75,208.261353C553.625916,211.741547,564.511108,211.391129,574.299072,207.471054z"/>
    <path transform="matrix(-0.26455,0,0,-0.26455,-88.665329,-268.676422)" style="stroke:#000000;stroke-width:0.05mm;fill:none" d="M57.831139,201.587326C61.723408,199.574554,69.795723,190.662094,70.588913,187.501755C72.380325,180.364197,62.278404,179.456467,50.066856,185.6577C44.17646,188.648941,42.057503,190.328156,40.500278,193.238953C38.250141,197.444931,38.902134,199.577255,43.098156,201.73526C46.344112,203.404633,54.474709,203.322998,57.831139,201.587326z"/>
</svg>
