<?xml version="1.0" encoding="UTF-8"?>
<svg xmlns="http://www.w3.org/2000/svg" width="164.027mm" height="164.000mm" viewBox="-1257.015625 -630.007996 164.027100 164.000183">
    <path transform="matrix(-1,0,0,-1,0,0)" style="stroke:#000000;stroke-width:0.05mm;fill:none" d="M1176.054688,466.007813C1196.828735,466.247162,1216.7323,474.388977,1231.71875,488.777344C1252.520996,508.677063,1261.353516,538.035095,1254.984375,566.109375C1251.504028,581.53949,1243.62146,595.628662,1232.292969,606.667969C1213.020264,625.505249,1185.717041,633.66217,1159.269531,628.484375C1136.755493,624.085815,1117.112915,610.458618,1105.109375,590.910156C1095.666016,575.548279,1091.560181,557.497681,1093.429688,539.5625C1094.178589,532.169189,1095.939941,524.913818,1098.664063,518L1154,518L1154,468.71875C1161.193481,466.813446,1168.613892,465.901367,1176.054688,466.007813z"/>
    <path transform="matrix(-1,0,0,-1,0,0)" style="stroke:#000000;stroke-width:0.05mm;fill:none" d="M1189.226563,548.023438C1185.959961,548.227783,1182.863403,549.550964,1180.457031,551.769531C1177.761841,554.260559,1175.953491,557.563477,1175.304688,561.175781C1174.537598,565.233459,1175.197632,569.43158,1177.171875,573.058594C1178.625366,575.730896,1180.822021,577.924805,1183.496094,579.375C1188.267944,581.9104,1194.077881,581.444336,1198.386719,578.183594C1201.05957,576.157898,1203.049072,573.363953,1204.089844,570.175781C1205.654663,565.461731,1205.197632,560.31073,1202.828125,555.945313C1201.495117,553.494263,1199.534912,551.441345,1197.148438,549.996094C1194.765503,548.558533,1192.005249,547.870178,1189.226563,548.023438z"/>
</svg>
