<?xml version="1.0" encoding="UTF-8"?>
<svg xmlns="http://www.w3.org/2000/svg" width="164.014mm" height="163.992mm" viewBox="-1257.007080 -629.999634 164.013550 163.991638">
    <path transform="matrix(-1,0,0,-1,0,0)" style="stroke:#000000;stroke-width:0.05mm;fill:none" d="M1176.05603,466.007996C1194.730347,466.219788,1212.767822,472.826782,1227.160034,484.727997C1239.739258,495.091339,1248.946777,508.966461,1253.608032,524.583984C1259.216431,543.482971,1257.850952,563.767334,1249.76001,581.744019C1240.664917,601.828796,1223.887817,617.421265,1203.192017,625.023987C1184.336182,631.901001,1163.618042,631.647888,1144.936035,624.312012C1131.377319,618.957886,1119.487793,610.091797,1110.488037,598.624023C1098.017944,582.769531,1091.848999,562.863892,1093.167969,542.736023C1093.696045,534.25415,1095.550659,525.907471,1098.66394,518L1154,518L1154,468.720001C1161.193726,466.81311,1168.614624,465.900696,1176.05603,466.007996z"/>
</svg>
