<?xml version="1.0" encoding="UTF-8"?>
<svg xmlns="http://www.w3.org/2000/svg" width="260.136mm" height="590.001mm" viewBox="-1468.358154 -962.847168 260.136353 590.000549">
    <path transform="matrix(-0.60454,0,0,-0.60454,-1028.661621,-358.29364)" style="stroke:#000000;stroke-width:0.05mm;fill:none" d="M528.007996,997.238892C524.593994,994.560974,524.254028,994.505981,512.697266,994.774841C498.162994,995.112976,497.691986,994.848022,488.526367,981.193848C480.506012,969.244995,474.799988,965.236023,453.363007,956.486633C447.661987,954.159973,440.604004,946.655029,437.504059,939.623596C435.110992,934.195984,432.768005,922.94397,432.792053,917C432.812988,911.781006,435,898.356995,436.376343,895C437.165009,893.075012,438.355988,890.041992,439.022156,888.260986C440.181,885.163025,453.063995,872,454.937195,872C455.432007,872,456.80899,870.427002,457.997589,868.503906C459.852997,865.502991,460.087006,863.981018,459.657593,857.753906C459.381989,853.763977,458.846985,848.80603,458.467438,846.736206C458.018005,844.28302,458.208008,842.455017,459.011444,841.486206C460.651001,839.51001,467.270996,839.580994,471.299652,841.618042C483.656006,847.866028,488.579987,857.140015,489.684235,876.25C490.214996,885.437012,490.552002,887,491.997803,887C492.928986,887,494.434998,886.177002,495.345001,885.171265C496.834991,883.525024,497,878.742981,497,837.352783C497,786.21698,496.713989,783.461975,490.906464,778.574768C486.240997,774.648987,483.90799,774.518005,471.706635,777.499573C452.406006,782.215027,431.449005,783.63501,419,781.070251C409.717987,779.15802,397.950012,772.926025,389.943451,765.683167C375.865997,752.947998,360.937012,741.947021,347.756531,734.59613C333.049988,726.393982,323.93399,710.075989,320.888641,686.5C320.320007,682.099976,319.338989,676.731018,318.707855,674.569275C316.973999,668.627991,317.098999,612.263,318.86377,604.5C320.480011,597.390991,325.855988,580.935974,327.039948,579.475464C329.658997,576.244995,333.915985,559.39801,333.964386,552.070984C334.011993,544.827026,332.067993,539.036011,320.007111,510.5C301.571991,466.881989,297.785004,455.552002,297.215942,442.315552C296.790985,432.442993,296.856995,432.053009,299.343567,429.565552C302.334015,426.575012,306.014008,426.252991,308.301788,428.780975C310.528992,431.242004,319.394012,450.105988,322.033325,458C323.229004,461.575012,324.619995,467.424988,325.125214,471C326.332001,479.536987,326.842987,481,328.618408,481C330.727997,481,333.041992,474.80899,334.422241,465.471405C335.075012,461.054993,336,456.80899,336.476837,456.037506C336.95401,455.265991,337.674011,441.778992,338.078003,426.067139C338.598999,405.79599,339.295013,395.177002,340.475372,389.5C341.390015,385.100006,342.160004,380.600006,342.18515,379.5C342.259003,376.296997,340,368.933014,337.318817,363.642456C334.622009,358.321014,334.627991,358.739014,336.907471,335.5C337.501007,329.450012,338.460999,323.149994,339.040741,321.5C342.502991,311.648987,343.252991,292.944,340.784485,278C338.778992,265.856995,337.153992,259.647003,331.615509,242.963165C326.457001,227.423004,325.121002,217.548996,326.971924,208.635315C328.979004,198.968002,333.14801,196.751007,340.169312,201.617325C344.601013,204.688004,346.489014,204.304993,347.316711,200.166382C348.359985,194.949005,354.475006,194.699005,357.089874,199.766571C360.729004,206.820999,365.631989,207.742004,371.103058,202.399353C375.68399,197.925995,378.451996,198.365997,379.963287,203.80751C381.213013,208.306,381.334991,226.481995,380.131622,228.815735C379.653992,229.742004,378.959015,232.188004,378.586304,234.25C377.756989,238.843002,379.174011,239.166,383.207336,235.301361C386.223999,232.410995,390.665985,231.412003,405.185272,230.353928C412.006989,229.856995,413.502014,230.082993,418.485504,232.364731C426.11499,235.856995,430,238.770004,430,240.997375C430,242.020996,428.265015,245.477997,426.14505,248.679291C424.024994,251.880997,421.537994,255.962997,420.618805,257.751099C419.618011,259.696991,416.440002,262.585999,412.700867,264.947296C409.265015,267.117004,405.565002,269.937988,404.477112,271.215881C401.201996,275.065002,397.178009,281.325012,396.055878,284.315094C394.753998,287.785004,394.747986,302.904999,396.044739,309C396.571014,311.475006,397.674988,316.875,398.496857,321C400.455994,330.830994,401.463989,335.544006,404.060608,347C405.244995,352.225006,406.548004,358.299988,406.95697,360.5C408.127014,366.794006,412.777008,384.399994,415.056488,391.167664C418.608002,401.709991,421.527008,406.244995,429.650116,413.838898C441.651001,425.05899,445.324005,429.225006,449.257599,436.080811C451.61499,440.190002,452.523987,443.014008,454.461334,452.25C455.154999,455.55899,457.876007,455.899994,460.494843,453.005707C461.765015,451.60199,462.438995,448.843994,462.769653,443.687775C463.308014,435.298004,462.428986,432.984985,456.126495,426.194794C452.726013,422.531006,452.040985,421.040985,451.52948,416.194794C451.199005,413.062988,450.494995,408.872986,449.964417,406.883972C448.718994,402.216003,448.720001,384.553009,449.965057,378.326294C450.496002,375.671997,451.368011,371.25,451.903992,368.5C453.528992,360.154999,455.657013,351.757996,457.418457,346.734985C461.050995,336.377014,465.447998,316.589996,467.137054,303C468.71701,290.286987,469.333008,233.283005,468.039398,219.5C467.002014,208.449005,466.406006,203.962006,463.520203,185.5C460.923004,168.884003,459.044006,153.371994,457.521942,136C455.522003,113.169998,455.266998,112.258003,448.786194,104.821518C441.459015,96.412804,441,95.348099,441,86.756874C441,82.349098,440.497009,78.759697,439.75,77.834839C439.062988,76.983803,435.493988,74.181099,431.821014,71.606613C423.213013,65.5737,419.903015,61.721199,415.546082,52.662769C411.15799,43.539501,410.63501,36.4496,414.25,35.088165C415.725006,34.5327,417.429993,34.716,419.200348,35.620388C423.394989,37.7635,424.671997,37.318401,427.175079,32.840881C430.440002,26.9995,432.087006,26.194099,436.480042,28.289097C441.786011,30.8195,445.561005,30.4396,450.523468,26.875765C455.886993,23.023701,457.68399,23.347799,464.843811,29.459356C467.769989,31.956699,470.984009,34,471.98703,34C472.98999,34,475.696014,32.424999,478,30.5C484.375,25.173901,487.552002,25.844,492.223572,33.5C496.040009,39.755199,496.802002,44.470501,495.874268,56.089371C495.367004,62.442299,495.425995,68.6437,496.025879,72C496.959015,77.217697,502.480011,89.541496,507.167999,96.869415C509.266998,100.151001,509.282013,100.412003,507.743286,106.869423C504.179993,121.82,503.803986,124.781998,504.297577,134.019379C504.882996,144.988998,506.158997,151.608002,509.645233,161.778656C511.76001,167.947006,512.077026,170.388,511.72287,177.778656C511.493011,182.574997,510.795013,188.524994,510.171631,191C507.656006,200.987,506.875,206.089996,505.888733,219C505.321014,226.425003,504.619995,235.425003,504.330566,239C504.040985,242.574997,504.278992,247.75,504.860443,250.5C505.44101,253.25,506.410004,261.350006,507.011993,268.5C507.614014,275.649994,508.782013,287.799988,509.606659,295.5C510.431,303.200012,511.549011,317.600006,512.090515,327.5C512.632019,337.399994,513.536987,347.75,514.101929,350.5C515.72699,358.411987,514.627991,409.347992,512.569641,421.5C510.031006,436.488007,509.643005,441,510.894836,441C511.493011,441,514.046021,439.424988,516.567932,437.5C521.797974,433.507996,525.275024,433.097992,532.65564,435.60437C539.828003,438.039001,548.380981,437.153992,555.932251,433.195953C563.544983,429.204987,566,429.884003,566,435.978485C566,440.307007,568.593994,443,572.762329,443C576.307007,443,582.612976,446.614014,586.763489,451.025574C588.81897,453.209991,590.984009,454.997009,591.575684,454.998352C594.216003,455.002014,596.848999,450.126007,598.391602,442.380005C599.93103,434.64801,599.914001,433.811005,598.027649,424.880005C596.937988,419.721008,595.804016,414.600006,595.50708,413.5C595.210022,412.399994,594.531982,406.325012,593.999756,400C593.468018,393.674988,592.335022,384,591.4823,378.5C588.512024,359.335999,587.617981,338.994995,588.801819,317.494965C589.987976,295.949005,591.601013,276.020996,592.483704,272C592.786011,270.625,593.711975,264.549988,594.543091,258.5C595.374023,252.449997,596.562012,244.574997,597.183167,241C599.432007,228.054993,598.067017,209.742996,594.190063,200.859421C588.685974,188.246002,588.299011,183.585007,590.965454,162C591.611023,156.774994,591.97699,148,591.777832,142.5C591.447021,133.343994,591.098999,131.850998,587.658813,124.810181C583.150024,115.583,581.007996,105.901001,582.955811,103.553223C584.700012,101.452003,585.940979,101.596001,588.73822,104.223793C591.781982,107.083,592.60199,105.891998,593.689087,97.03199C594.804993,87.942497,594.484009,61.591499,593.204163,57.163589C591.47699,51.186798,590.380005,42.626499,591.003418,39.985611C591.322998,38.630901,593.140991,36.4711,595.042419,35.186012C597.939026,33.228699,599.310974,32.9454,603.5,33.440407C606.25,33.7654,612.325012,34.286201,617,34.597862C625.461975,35.1619,625.513,35.150799,628.375977,32.146004C629.958008,30.485901,631.768005,28.086399,632.398987,26.813774C634.132996,23.3167,639.825989,23.121901,642.955566,26.452677C645.947021,29.6366,650.064026,29.7661,655.570984,26.849447C661.648987,23.6301,663.992004,24.6597,667.551392,32.114304C670.075989,37.402699,670.497009,39.454899,670.476196,46.395092L670.452393,54.5L661.822144,71.5C653.106018,88.669601,642.901978,113.045998,639.426819,125C637.72699,130.847,637.536011,135.216003,637.518677,168.5C637.504028,196.725006,637.177002,206.621994,636.135925,210.231659C634.866028,214.636002,635.008972,227.531006,636.464844,240C637.742981,250.944,638.169006,253.970993,639.07074,258.5C640.138977,263.868011,641.580017,282.466003,642.983948,309C643.575989,320.187012,644.539001,328.075989,645.974915,333.5C647.140015,337.899994,648.713013,344.424988,649.470703,348C650.228027,351.575012,652.01001,359.450012,653.429382,365.5C654.848999,371.549988,656.469971,378.975006,657.031555,382C657.593018,385.024994,658.491028,389.419006,659.026306,391.764343C659.562012,394.109985,660,400.333008,660,405.593811C660,413.315002,659.536987,416.348999,657.597168,421.329437C656.276001,424.722992,654.651001,429.231995,653.987,431.348907C650.440979,442.653992,657.007996,460.725006,673.247009,484.350159C680.973022,495.589996,680.965027,495.536011,680.763855,534.184998C680.633972,559.120972,680.914978,569.268982,681.792603,571.315125C683.284973,574.796021,683.474976,617.895996,682.024963,624.235657C681.489014,626.580994,680.625,633.224976,680.105225,639C679.585999,644.775024,678.231995,654,677.09729,659.5C675.961975,665,674.312988,673.099976,673.431213,677.5C672.549988,681.900024,671.616028,686.400024,671.356506,687.5C670.614014,690.646973,668.060974,706.661011,666.813843,716C664.856018,730.659973,658.859009,751.343994,653.076721,763.386597C648.518982,772.879028,646.437012,778.822021,644.628906,787.5C643.711975,791.900024,642.520996,797.419006,641.981201,799.764343C640.651978,805.541992,640.737976,828.95697,642.116394,836.439819C642.72998,839.77301,643.655029,844.828003,644.171326,847.673157C645.395996,854.424011,647.515015,856.400024,648.410095,851.627502C648.763,849.744019,649.973022,847.031982,651.098877,845.60144C653.948975,841.97699,661.143982,841.929993,666.404846,845.5C668.43103,846.875,670.34198,848,670.651733,848C670.960999,848,675.328979,851.093994,680.3573,854.876099C688.953003,861.341003,700.375,872.437988,707.759827,881.5C715.276001,890.721985,728.81897,921.700012,727.19165,925.946289C726.559021,927.598022,714.241028,939.682007,704.5,948.207886C699.392029,952.677979,682.789978,964.051025,677.249573,966.874756C674.911987,968.065979,671.890015,970.718994,670.533813,972.770569C664.392029,982.062012,662.064026,984.72998,657.035278,988.24353C651.143005,992.359985,647.965027,992.848022,642.345764,990.5C638.034973,988.698975,634.117004,988.591003,630.315125,990.167297C628.684998,990.843018,621.817993,991.369019,614,991.417297L600.5,991.5L592.223938,995.75C584.69397,999.617004,583.28302,1000,576.578674,1000C570.624023,1000,567.856018,999.424011,562.159546,997C553.226013,993.198975,549.718994,993.198975,544,997C538.057983,1000.950012,532.838989,1001.030029,528.007996,997.238892z"/>
    <path transform="matrix(-0.60454,0,0,-0.60454,-1028.661621,-358.29364)" style="stroke:#000000;stroke-width:0.05mm;fill:none" d="M589.408264,985.782898L598.5,981.565796L613.546143,981.032898C631.146973,980.408997,633.393005,979.554993,634.489502,973.062134C635.265015,968.473999,636.362,966.854004,647.855896,953.330994C658.497009,940.812012,658.687988,940.392029,657.146118,932.928528C655.221008,923.606018,657.19397,920.192017,669.648621,911.299805C681.55603,902.799011,682.429993,901.851013,681.560547,898.385132C680.604004,894.572021,670.705017,884.614014,662.53418,879.243103C656.08197,875.002014,648.94397,869.151001,639.014221,859.963745C634.702026,855.973999,633.398987,852.234985,631.959961,839.716187C628.661987,811.03302,633.021973,779.844971,643.145142,759.711243C647.947021,750.159973,655,729.140015,655,724.378235C655,720.622986,652.679993,718.789978,649.465271,720.006287C646.26001,721.218994,645.16803,723.143982,643.47113,730.569336C639.986023,745.817993,638.054993,750.771973,633.528748,756.07489C629.812988,760.429016,629.010986,762.140015,628.46698,766.874084C628.112,769.968018,626.546021,778.125,624.988647,785C622.362976,796.586975,622.132019,799.325989,621.828186,822.5L621.5,847.5L626.180908,856.5C631.330994,866.401978,634.577026,869.919006,646.5,878.519836C650.900024,881.69397,655.849976,885.552002,657.5,887.094543C659.150024,888.637024,662.111023,890.570007,664.07959,891.391541C668.494995,893.232971,670.25,895.255005,670.25,898.5C670.25,901.745972,668.536011,903.723022,665.061096,904.486572C662.247009,905.10498,650.827026,912.85199,649.453064,915.075928C649.047974,915.731018,648.39801,921.049988,648.006958,926.896118C647.21698,938.718018,646.119019,941.656982,639.611572,949.378723C637.349976,952.062012,633.474976,957.190002,631,960.774414C628.525024,964.359009,625.372986,968.130981,623.994629,969.158325C620.797974,971.541016,611.947021,972.987,600.519714,972.994202C591.953003,973,591.27002,973.166992,585.680359,976.616394C580.486023,979.822021,579.234985,980.184021,574.660645,979.80127C571.146973,979.507019,568.086975,978.432983,565.073059,976.434814C561.205994,973.870972,559.752014,973.504028,553.573059,973.529724C548.237976,973.552002,545.465027,974.10498,542.289856,975.779724C537.026978,978.554993,532.198975,978.596008,526.315613,975.916016C523.252014,974.520996,520.049011,973.901001,516.620483,974.0401C513.804016,974.155029,510.727997,974.192017,509.78479,974.124084C506.384003,973.877991,501.212006,967.924011,497.155823,959.585266C494.899994,954.945984,492.479004,950.781982,491.776733,950.331177C491.075012,949.880005,487.442993,948.986023,483.706268,948.343628C472.393005,946.398987,458.855988,937.465027,454.927917,929.351074C451.882996,923.062012,451.859985,910.857971,454.878235,903C457.825989,895.325989,464.839996,886.864014,470.699554,883.91571C478.477997,880.000977,479,879.333008,479,873.287842C479,865.836975,477.243988,859.554993,474.261292,856.336914C471.846008,853.731018,471.694,853.697998,470.37381,855.503479C469.549988,856.630005,469,859.927002,469,863.740784C469,871.929993,467.563995,874.557007,459.261932,881.553467C447.082001,891.81897,443.56601,899.638977,443.548462,916.5C443.528015,936.02002,448.992004,943.737976,468.999359,952.448792C483.140991,958.606018,487.152008,961.632019,493.64505,971.04303C496.475006,975.143982,500.192993,980.005981,501.90744,981.846741C505.002991,985.169983,505.069,985.187988,511.26239,984.404846C520.142029,983.281982,523.413025,983.669006,529.0047,986.50238C531.716003,987.875977,534.583008,989,535.376953,989C536.171021,989,539.672974,987.650024,543.160217,986.000793C546.646973,984.351013,550.849976,983.018982,552.5,983.04126C554.150024,983.062988,559.325012,984.619995,564,986.5C575.265015,991.031006,578.276978,990.945984,589.408264,985.782898z"/>
    <path transform="matrix(-0.60454,0,0,-0.60454,-1028.661621,-358.29364)" style="stroke:#000000;stroke-width:0.05mm;fill:none" d="M653.134644,978.75C654.468994,977.513,657.075012,974.25,658.925659,971.5C664.322998,963.479004,667.932983,960.182983,677.515747,954.52948C694.02002,944.791992,716,925.924988,716,921.494812C716,918.892029,711.085022,907.177002,706.771362,899.5C699.060974,885.776001,689.98999,875.237976,677.5,865.494141C661.630005,853.114014,659.288025,852.10498,656.451965,856.432922C654.111023,860.005005,655.729004,862.16803,665.414307,868.416321C677.130981,875.974976,687.317993,885.856018,690.599915,892.845032C692.059998,895.955017,695.25,900.646973,697.687439,903.271179C708.455017,914.862,707.469971,921.35498,693.233887,932.651062C681.843018,941.689026,678.598022,943.656982,672.7901,945.050354C668.765015,946.015991,667.117004,947.171997,663.21405,951.767029C660.620972,954.820007,655.648987,960.507996,652.164551,964.40863C644.838013,972.609009,642.64801,976.315979,643.515869,979.049988C644.401001,981.838989,649.991028,981.664978,653.134644,978.75z"/>
    <path transform="matrix(-0.60454,0,0,-0.60454,-1028.661621,-358.29364)" style="stroke:#000000;stroke-width:0.05mm;fill:none" d="M580.685547,966.825684C583.784973,963.914001,583.601013,960.757996,579.881897,953C577.606995,948.255005,576.643005,944.609985,576.310913,939.5C576.028015,935.14502,574.927002,930.346985,573.395447,926.801941C572.017029,923.611023,570.677002,918.109985,570.348572,914.301941C569.661987,906.330994,568.359009,903.882996,563.003174,900.502014C556.218994,896.218994,554.291016,889.093994,557.475342,880.069824C558.758972,876.432007,558.767029,875.103027,557.542358,869.851257C556.768005,866.531006,556.275024,863.294006,556.447021,862.657104C556.619019,862.020996,557.554016,858.997009,558.523682,855.936646C560.242004,850.515015,560.234985,850.210022,558.217346,843.936646C557.078979,840.395996,555.422974,833,554.538513,827.5C552.749023,816.377014,551.596985,814.231018,544.525085,808.849121C537.697998,803.653015,536.278015,800.836975,534.493835,788.955383C531.573975,769.51001,527.596008,757.224976,522.165161,750.879822C517.997986,746.010986,504.701996,737,501.686157,737C499.160004,737,495,740.744995,495,743.019348C495,745.359985,497.596008,747.320984,504.101685,749.895447C517.120972,755.046997,522.702026,766.53302,526.504272,796C527.390991,802.875,528.75,809.471985,529.523193,810.660767C530.296997,811.848999,532.632996,813.366028,534.7146,814.031372C542.965027,816.66803,545.103027,820.763,547.413269,838.356567C548.518982,846.775024,548.588989,853.130005,547.766663,870.187378C547.200989,881.908997,546.721008,893.012024,546.698853,894.858948C546.664978,897.698975,547.505005,898.960022,552.140137,903.025635C555.155029,905.669983,558.36499,909.557983,559.274353,911.666626C560.184021,913.775024,563.015991,924.031006,565.569397,934.458496C569.528992,950.629028,570.112976,954.283997,569.544189,959.311951C569,964.119995,569.19397,965.557007,570.593628,967.103455C572.908997,969.661987,577.809998,969.526978,580.685547,966.825684z"/>
    <path transform="matrix(-0.60454,0,0,-0.60454,-1028.661621,-358.29364)" style="stroke:#000000;stroke-width:0.05mm;fill:none" d="M539.088684,964.83429C539.825012,963.458984,539.700989,961.434021,538.652344,957.706665C537.846985,954.843018,536.440979,948.674988,535.527466,944C534.320984,937.822998,532.518982,932.98999,528.933472,926.314941C525.250977,919.458984,524,916.059021,524,912.907043C524,909.052979,524.523987,908.18103,530,902.92157C533.905029,899.171021,536.010986,896.346008,536.031311,894.829468C536.049011,893.547974,536.473022,883.049988,536.975403,871.5C537.879028,850.723022,537.08197,832.97699,535.001343,827.503479C533.690979,824.057007,529.630981,822.231995,527.397461,824.085083C525.953003,825.283997,525.848999,826.580017,526.603149,833.982117C527.080017,838.666992,527.47699,852.849976,527.485352,865.5C527.502014,892.270996,527.198975,893.450012,517.600952,903.890198C514.518982,907.242981,512,910.924988,512,912.078857C512,913.231995,513.544983,916.947998,515.432556,920.337524C517.320007,923.72699,520.945984,931.89801,523.489197,938.495361C527.538025,948.997986,528.080017,951.301025,527.847473,957.00238C527.700989,960.583984,527.947021,964.10498,528.393127,964.827087C530.445007,968.14801,537.312988,968.151978,539.088684,964.83429z"/>
    <path transform="matrix(-0.60454,0,0,-0.60454,-1028.661621,-358.29364)" style="stroke:#000000;stroke-width:0.05mm;fill:none" d="M516.065735,962.964844C518.914001,961.440979,518.533997,956.164978,514.928223,947.166565C513.239014,942.950012,510.955994,936.799988,509.855072,933.5C508.753998,930.200012,506.087006,924.768982,503.926849,921.430298C500.932007,916.802002,500,914.356018,500,911.128113C500,907.255981,500.600006,906.260986,507.052338,899.444702C510.931,895.346985,514.755981,890.434998,515.552307,888.528992C517.338989,884.252991,517.583008,849.653015,515.914856,837.254883C514.96698,830.213013,515.070984,828.325012,516.735901,822.345886C518.073975,817.539978,518.406006,814.45697,517.848938,812C517.413025,810.075012,516.599976,803.549988,516.042114,797.5C514.828979,784.335022,512.919006,776.367981,509.235565,769.108032C506.756989,764.223022,505.654999,763.239014,497.5,758.640625C486.71701,752.559998,486.157013,752.536987,468.5,757.474792C445.957001,763.778992,430.183014,764.440979,416.024567,759.678345C410.299988,757.752014,409.042999,756.830994,405.184326,751.724304C402.567993,748.263,399.153015,745.109985,396.65976,743.855408C390.26001,740.63501,374.015991,728.721008,369.058105,723.611267C366.098999,720.560974,362.928009,718.476013,359.558105,717.363159C356.776001,716.445007,353.554993,715.078979,352.399719,714.32959C349.112,712.195984,345.480011,704.474976,342.129578,692.5C338.115997,678.153992,336.812012,666.22699,337.047852,646C337.153992,636.924988,336.912994,627.008972,336.513916,623.963989C335.954987,619.700989,336.256989,616.825989,337.827332,611.463989C338.949005,607.633972,340.403992,601.697021,341.059448,598.27063C341.778015,594.515991,343.565002,590.004028,345.556427,586.912415C348.924011,581.684998,349.75,578.372986,349.895966,569.503052C349.998993,563.262024,352.22699,560.091003,357.822296,558.225891C362.506012,556.664978,364.468994,554.005005,363.573212,550.43573C362.615997,546.624023,360.201996,545.98999,352.982788,547.657837C349.431,548.479004,345.997986,549.586975,345.355072,550.1203C344.712006,550.653992,343.881012,553.882996,343.50946,557.295349C342.51001,566.465027,340.335999,574.250977,335.486725,586.024719C328.398987,603.234985,327.48999,609.36499,327.560852,639.5C327.640015,673.390015,330.408997,692.562988,337.560333,708.7323C341.290009,717.166016,344.648987,720.677002,354.5802,726.521606C365.218994,732.78302,388.5,750.010986,398.193848,758.795898C406.257996,766.104004,412.964996,769.367004,424.282623,771.487549C432.175995,772.96698,434.196014,772.981018,445.748016,771.639954C452.761993,770.825989,463.899994,768.750977,470.5,767.028931C483.35199,763.676025,486.487,763.677002,493.077698,767.039612C499.755005,770.445984,504.147003,777.228027,505.99881,786.993713C506.507996,789.679993,506.980988,812.776978,507.049408,838.320801C507.188995,890.559998,507.552002,887.848022,499.539764,894.413879C497.016998,896.481018,494.002014,900.046021,492.839569,902.336426C491.677002,904.625977,489.662994,907.771973,488.363342,909.326721C484.820007,913.565002,485.358002,915.463013,491.36377,919.899353C497.346008,924.31897,500,929.317017,500,936.165283C500,938.807983,501.227997,942.843994,503.419159,947.398865C505.299988,951.309021,507.149994,955.75,507.531525,957.269592C507.912994,958.789001,509.359985,960.924011,510.747223,962.015808C513.687012,964.328979,513.559998,964.30603,516.065735,962.964844z"/>
    <path transform="matrix(-0.60454,0,0,-0.60454,-1028.661621,-358.29364)" style="stroke:#000000;stroke-width:0.05mm;fill:none" d="M557.429199,962.675476C560.174011,960.66803,559.64502,955.627014,554.594971,935.658325C549.986023,917.435974,546.666992,909.664001,542.996704,908.498962C540.051025,907.564026,537.452026,908.713013,536.174988,911.515259C534.856018,914.409973,535.783997,917.518005,539.398438,922.318359C543.143005,927.289978,546.554016,939.77301,548.53772,955.76001C549.414001,962.817993,553.203003,965.765991,557.429199,962.675476z"/>
    <path transform="matrix(-0.60454,0,0,-0.60454,-1028.661621,-358.29364)" style="stroke:#000000;stroke-width:0.05mm;fill:none" d="M608.155457,962.449463C611.265991,962.088989,615.14801,960.97998,616.781616,959.986633C619.406006,958.390991,627.116028,949.138,633.775513,939.592468C636.340027,935.916016,637.986023,927.565979,637.994202,918.179626L638,911.859314L630.882019,905.179626C626.96698,901.505981,621.22998,896.79303,618.132019,894.705627C613.393982,891.513,611.86499,890.97998,608.5,891.342896C603.491028,891.882996,588.721008,897.349976,584.879456,900.085815C580.219971,903.403992,579.76001,905.104004,581.078247,914.12262C582.505981,923.88501,584.947021,927.552979,589.291809,926.462891C593.416992,925.427979,594.47998,922.656982,592.577209,917.901306C590.48999,912.684021,590.560974,907.687012,592.75,905.807007C596.630981,902.473999,606.674988,900.572998,612.390381,902.088928C617.922974,903.557007,626.453003,912.254028,628.001892,918.00708C630.150024,925.984009,626.362,936.492004,618.188721,945.22937C612.463989,951.349976,610.135986,952.575989,601.410217,954.065857C597.609985,954.715027,593.937988,955.695984,593.25,956.245483C589.656982,959.117981,594.205017,964.468994,599.5,963.598755C601.150024,963.328003,605.044983,962.809998,608.155457,962.449463z"/>
    <path transform="matrix(-0.60454,0,0,-0.60454,-1028.661621,-358.29364)" style="stroke:#000000;stroke-width:0.05mm;fill:none" d="M600.313599,943.738831C610.616028,940.263977,617.060974,932.651001,617.183167,923.812927C617.275024,917.171021,611.143005,910.994019,605.791016,912.337585C602.002014,913.289001,601.671997,915.614014,604.484802,921.559448C607.491028,927.914001,607.565002,929.080994,605.148926,932.064453C603.625977,933.945007,601.992981,934.452026,595.932861,934.925232C589.301025,935.442993,588.421021,935.762024,587.093445,938.134766C585.771973,940.495972,585.796997,941.041016,587.33252,943.384766C589.447021,946.612,591.619995,946.671021,600.313599,943.738831z"/>
    <path transform="matrix(-0.60454,0,0,-0.60454,-1028.661621,-358.29364)" style="stroke:#000000;stroke-width:0.05mm;fill:none" d="M489.323608,936.59906C490.425995,933.72699,487.049988,929.117981,481.443695,925.842346C470.192993,919.268982,469.617004,915.122009,478.507568,904.708252C484.816986,897.317993,485.950012,894.169006,483.196503,891.677856C480.709991,889.427002,477.484985,890.580994,472.593628,895.473022C463.022003,905.044983,460.307007,919.45697,466.654907,927.001709C473.700012,935.375,487.544006,941.236023,489.323608,936.59906z"/>
    <path transform="matrix(-0.60454,0,0,-0.60454,-1028.661621,-358.29364)" style="stroke:#000000;stroke-width:0.05mm;fill:none" d="M674.872498,933.565918C676.39801,932.776978,678.27002,931.380005,679.032532,930.460754C679.794983,929.541992,683.049011,927.004028,686.262207,924.82196C693.073975,920.195984,694.836975,916.926025,692.468323,913.311279C689.926025,909.43103,688.189026,909.416992,684.179443,913.244446C682.156006,915.176025,678.025024,918.463989,675,920.550415C668.411987,925.093994,667.073975,926.690002,667.031799,930.049988C666.973022,934.760986,669.966003,936.103027,674.872498,933.565918z"/>
    <path transform="matrix(-0.60454,0,0,-0.60454,-1028.661621,-358.29364)" style="stroke:#000000;stroke-width:0.05mm;fill:none" d="M650.419556,901.884583C654.830994,898.414001,653.557983,896.398987,641.5,887.77478C626.684998,877.177979,622.554016,872.947021,618.290344,864C612.356018,851.547974,612.606018,851.64502,595,855C589.22699,856.099976,581.265991,857,577.308655,857C571.007019,857,569.919983,857.276001,568.556702,859.222534C565.390015,863.744019,567.27002,870,571.795471,870C573.294006,870,579.015991,868.429993,584.510254,866.510071C601.458008,860.588989,609.56897,861.999023,612.088196,871.30365C614.416992,879.905029,615.030029,880.754028,621.734375,884.669678C625.341003,886.776001,632.049988,891.987,636.642212,896.25C641.234009,900.513,645.607971,904,646.361023,904C647.114014,904,648.940002,903.047974,650.419556,901.884583z"/>
    <path transform="matrix(-0.60454,0,0,-0.60454,-1028.661621,-358.29364)" style="stroke:#000000;stroke-width:0.05mm;fill:none" d="M580.44928,890.485779C583.16803,888.552979,587.104004,886.528015,589.196045,885.985779C591.288025,885.44397,594.780029,884.538025,596.955017,883.973572C603.77002,882.205017,605.726013,878.726013,602,875C599.255981,872.255981,596.586975,872.482971,589,876.105103C585.395996,877.825989,579.698975,879.565979,576.213867,880.011841C572.757019,880.453979,569.268982,881.362,568.463867,882.029968C566.317017,883.812012,566.630005,889.630005,569,892C571.874023,894.874023,574.827026,894.482971,580.44928,890.485779z"/>
    <path transform="matrix(-0.60454,0,0,-0.60454,-1028.661621,-358.29364)" style="stroke:#000000;stroke-width:0.05mm;fill:none" d="M597.872925,843.997192C603.578003,842.880005,608.627991,841.72998,609.095764,841.440796C611.421997,840.002991,612.198975,831.919983,611.543579,816C610.879028,799.864014,610.934021,799.190979,614.038147,785.5C615.783997,777.799988,617.276978,769.14801,617.356262,766.273254C617.494019,761.265991,617.304993,760.867004,612.860413,756.773254C608.335999,752.606018,606.018982,747.70697,606.005554,742.278137C606.000977,740.276978,602.992981,736.39502,591,722.907593C588.182983,719.73999,584.86499,717.875977,574,713.358032C557.52301,706.507019,555.577026,706.155029,549.96759,709.016541C542.710022,712.718994,537.625,711.64801,522.257263,703.179626C508.950012,695.846985,505.812012,694.973999,500.315094,697.077271C496.162994,698.666016,489.536987,698.39801,486.678162,696.52478C481.70401,693.265991,480.662994,689.015015,481.420929,675.069031L482.104523,662.493835L478.475464,651.996948C476.479004,646.223999,473.10199,638.799988,470.970306,635.5C468.838013,632.200012,466.135986,627.19397,464.965942,624.375549C462.565002,618.596008,461.911987,618.143982,449.506195,613.692444C442.751007,611.268982,440.208008,609.843994,439.093689,607.857849C437.772003,605.502991,437.796997,604.958984,439.33255,602.615234C441.546997,599.234985,445.707001,599.16803,451.32193,602.420776C453.619995,603.752014,457.846008,605.598999,460.713531,606.523926C465.778992,608.158997,466.105011,608.143005,472.213531,605.975098C480.335999,603.09198,484.699005,604.125977,491.956604,610.650879C498.195007,616.258972,499.542999,618.849976,504.888855,635.5C507.184998,642.650024,510.286987,650.75,511.78302,653.5C514.434021,658.374023,514.690002,658.549011,521.878906,660.425232C528.916016,662.262024,529.54303,662.273987,535.541443,660.675232C538.999023,659.754028,545.388,659,549.739807,659C559.182007,659,559.547974,658.713013,566.296875,646C571.515015,636.169983,573,630.127014,573,618.714844C573,610.546997,572.981995,610.48999,565.086731,594.014038C560.734009,584.93103,556.695984,575.700012,556.111572,573.5C554.60498,567.825989,552.549011,565.330017,548.246887,563.955383C544.940002,562.89801,541.094971,560.875977,522.033142,550.170288C513.482971,545.367981,508.839996,539.495972,501.171997,523.783142C492.980988,507,491.324005,505.256989,476.206573,497.512939C463.640015,491.075989,460.165985,486.178009,458.455414,472.489441C457.649994,466.040009,455.404999,463,451.448975,463C449.483002,463,448.56601,463.79599,447.449493,466.466614C445.795013,470.425995,446.613007,473.773987,452.031708,485.228943C453.662994,488.678009,454.998993,492.084991,454.999207,492.799652C455.002014,496.769989,458.029999,499.639008,465.160828,502.423767C481.416992,508.77301,485.423004,512.677979,493.967499,530.5C497.658997,538.200012,501.911987,545.95697,503.418762,547.738403C506.306,551.151978,517.56897,558.442017,532.354736,566.469116C537.224976,569.112976,542.625,572.692017,544.355896,574.422546C546.166016,576.231995,549.781006,582.651978,552.866089,589.534485C563.742981,613.797974,563.411011,612.778015,563.421143,622C563.437988,637.356995,557.85498,647.481018,547.707275,650.494263C540.200989,652.723022,526.325989,652.495972,522.361694,650.078918C518.18103,647.530029,514.721985,639.945984,512.062012,627.5C509.304993,614.598999,506.45401,609.955994,497.223785,603.33728C486.513,595.656982,482.644989,594.44397,472.66214,595.633972C462.85199,596.802979,455.628998,595.843018,447.800659,592.330078C440.204987,588.921021,437.852997,589.578003,434.09613,596.155334C427.210999,608.210999,429.067993,613.018982,443.589569,620.729675C449.040009,623.624023,454.752991,627.455994,456.283905,629.245972C460.550995,634.232971,468.791992,651.015015,470.46994,658.134766C471.390991,662.041016,471.980011,669.52301,471.994995,677.5C472.016998,688.992981,472.290009,691.080994,474.354492,695.51416C475.639008,698.271973,478.330994,702.268982,480.33786,704.396729C483.761993,708.028015,484.247986,708.226013,488.243134,707.624878C505.733002,704.994019,507.394012,705.299011,523.552246,714.105713C530.653992,717.976013,537.734009,721.396973,539.286743,721.707336C541.244995,722.098999,543.814026,721.408997,547.676392,719.455017C552.921997,716.801025,553.557007,716.703979,558.662842,717.774902C561.643005,718.400024,568.317993,720.91803,573.495911,723.371033C586.679993,729.616028,590.046021,733.382996,599.575806,752.556335L607.284546,768.065979L606.662231,774.782959C606.320007,778.47699,604.906006,785.302002,603.519958,789.948669C600.578979,799.807007,600.510986,801.419983,602.482056,814.546936C604.903015,830.671997,602.612976,834.815002,590.040405,837.062134C582.255005,838.453003,577.981018,837.427002,575.445374,833.557007C574.676025,832.382019,573.14502,825.294006,572.044983,817.805969C570.945007,810.317993,569.559021,803.125,568.965088,801.822754C568.372009,800.52002,565.469971,798.189026,562.517212,796.643433C556.098999,793.28302,554.585022,790.567993,553.088989,779.737976C552.499023,775.468994,551.296997,770.294006,550.416565,768.237976C549.536011,766.182007,548.411987,761.396973,547.917297,757.604187C547.171021,751.877991,546.357971,749.843018,543.125,745.604187C540.984009,742.796997,538.901001,739.375,538.49762,738C537.468994,734.497009,535.14801,732.112,530.5,729.781433C528.299988,728.677979,522.526978,725.5,517.670898,722.717896C509.575989,718.080994,508.194,717.622986,501.052185,717.209167C496.579987,716.950012,491.782013,717.247009,489.786133,717.905579C486.359985,719.036011,485.842987,719.698975,482.397675,727.368042C480.220001,732.216003,476.437012,734.55603,469.450043,735.376953C466.291992,735.747986,461.391998,737.382996,457.81189,739.259033C452.214996,742.192993,450.817993,742.497009,443.064514,742.466797C438.264008,742.447998,431.376007,741.646973,427.392242,740.643921C420.927002,739.015991,419.954987,738.992004,416.642242,740.376099C412.670013,742.036011,412.203003,743.416992,414.503113,746.700989C417.027008,750.304016,422.403992,751.385986,438,751.42981C451.751007,751.468018,452.996002,751.302979,462.088806,748.239929C467.363007,746.463013,474.067993,744.55603,476.989594,744.001953C483.541992,742.758972,484.631012,741.879028,487.46109,735.540039C490.373993,729.015991,492.891998,726.879028,498.397766,726.258606C501.980988,725.85498,504.174011,726.361023,509.365997,728.790466C523.692017,735.494019,531.674988,742.697021,536.2005,753C538.810974,758.942017,543.697998,777.948975,544.558289,785.5C545.570007,794.388977,547.156982,797.314026,553.511353,802.008423C560.362,807.06897,562.210999,810.789001,564.44165,824C566.718018,837.481995,568.671021,843.645996,571.264404,845.536072C573.997009,847.528015,582.291016,847.047974,597.872925,843.997192z"/>
    <path transform="matrix(-0.60454,0,0,-0.60454,-1028.661621,-358.29364)" style="stroke:#000000;stroke-width:0.05mm;fill:none" d="M592.432617,823.72821C593.127014,821.73999,592.919006,818.629028,591.696045,812.72821C589.416992,801.731995,589.51001,799.958984,592.993774,787.87915C597.307983,772.924011,597.182983,771.908997,588.985779,755.250305C581.039001,739.099976,578.46698,736.482971,565.5,731.352783C554.127014,726.853027,546.822021,728.171997,548.395813,734.440796C549.643005,739.40802,552.348999,741,559.549683,741C563.41803,741,567.288025,741.61499,569.002502,742.501282C572.914001,744.523987,577.112,750.866028,581.638794,761.592407C584.749023,768.961975,585.406982,771.71698,585.449219,777.546021C585.492981,783.572998,585.028015,785.525024,582.238464,791.046021C579.340027,796.781982,579.093994,797.888977,580.033569,801C580.61499,802.924988,581.445984,808.86499,581.881714,814.200684C582.773987,825.130005,583.867004,827.245972,588.39679,826.801086C590.716003,826.572998,591.700012,825.823975,592.432617,823.72821z"/>
    <path transform="matrix(-0.60454,0,0,-0.60454,-1028.661621,-358.29364)" style="stroke:#000000;stroke-width:0.05mm;fill:none" d="M573.443298,785.777466C575.89801,782.27301,575.286987,776.034973,571.443604,765.369263C567.833008,755.349976,566.090027,752.671021,562.5,751.627319C557.192993,750.083984,556.393005,755.242004,560.445374,764.8703C561.867981,768.250977,563.304016,773.825989,563.635193,777.258362C563.96698,780.690979,564.869995,784.513,565.642029,785.75C567.460999,788.664001,571.411011,788.677979,573.443298,785.777466z"/>
    <path transform="matrix(-0.60454,0,0,-0.60454,-1028.661621,-358.29364)" style="stroke:#000000;stroke-width:0.05mm;fill:none" d="M626.000122,748.76947C627.143005,747.54303,628.758972,744.054993,629.591492,741.01947C630.424011,737.984009,632.205994,731.833984,633.552368,727.353638C634.898987,722.872986,636,718.346008,636,717.293823C636,716.242004,633.974976,713.007996,631.5,710.108582C625.882019,703.526978,625.705994,700.830994,630.614624,696.608704C639.671021,688.820007,640.778992,687.267029,642.41571,680.07074C645.088013,668.322021,644.307007,663,639.910767,663C636.140991,663,633.892029,666.304993,633.051758,673.082703C631.976013,681.758972,630.278992,684.741028,622.514221,691.600464C614.63501,698.560974,614.22699,700.817017,619.53949,708.053833C624.091003,714.255005,626.409973,721,625.555664,725.555115C625.166992,727.624023,623.088989,731.085022,620.4505,734.055725C618.002991,736.812012,616,739.697021,616,740.468262C616,742.656006,617.97699,747.317017,619.724609,749.248169C621.836975,751.583008,623.497009,751.455994,626.000122,748.76947z"/>
    <path transform="matrix(-0.60454,0,0,-0.60454,-1028.661621,-358.29364)" style="stroke:#000000;stroke-width:0.05mm;fill:none" d="M410.5,732C416.423004,728.487,421.300995,728.190002,433.266693,730.614197C443.255005,732.638,451.338989,732.10498,454.210297,729.234131C456.088989,727.356018,456.17099,726.825989,455.013733,724.033142C453.104004,719.421997,450.755005,718.554993,445.2547,720.428894C439.545013,722.375,436.84201,722.385986,430.591064,720.489197C424.045013,718.502991,420.444,718.611023,413.5,721C404.906006,723.95697,400.19101,723.64801,394.389618,719.75C382.289001,711.617981,381.977997,701.512024,393.565826,692.951355C400.779999,687.622009,401.522003,682.997986,397.287872,669.750122C395.916992,665.460999,395.924011,664.765015,397.358276,662.575928C400.46701,657.83197,406.062012,658.471985,408.144928,663.810791C408.721985,665.289978,409.424988,671.224976,409.708191,677C410.265991,688.401001,411.049011,690,416.068695,690C420.619995,690,421.335999,688.044983,420.562012,677.742798C420.118011,671.838989,419.149994,666.992981,417.882385,664.328491C416.006989,660.388,410.14801,654.710999,405.315735,652.155457C401.614014,650.197021,396.43399,650.763977,393.206421,653.479736C387.76001,658.062988,387.217987,661.674011,389.638702,677.272461C390.464996,682.596985,388.526001,686.434998,383.005249,690.400757C378.588989,693.573975,378.156006,694.278015,377.000549,700.160217C374.653015,712.11499,374.661011,713.299011,377.099792,716.399719C381.557007,722.065979,400.563995,734.942017,404.5,734.960999C405.049988,734.963989,407.75,733.630981,410.5,732z"/>
    <path transform="matrix(-0.60454,0,0,-0.60454,-1028.661621,-358.29364)" style="stroke:#000000;stroke-width:0.05mm;fill:none" d="M613.428589,726.428589C614.29303,725.564026,615,723.856018,615,722.631653C615,720.757019,609.466003,711.067017,604.791565,704.756409C604.080994,703.796997,599.546997,701.882996,594.715942,700.500916C575.695984,695.062012,569.281006,690.588013,562.978882,678.366211C558.458984,669.60199,556.875,668.775024,545.655884,669.325562C536.125977,669.79303,533.281982,671.161987,534.416443,674.736755C535.276001,677.445007,539.171997,679,545.096741,679C552.291016,679,555.481995,680.992004,557.479309,686.728699C561.112976,697.166992,560.528992,696.721008,582.101746,705.541626C596.369019,711.375,598.64801,712.971985,602.654663,719.939209C607.424988,728.234009,610.044983,729.812012,613.428589,726.428589z"/>
    <path transform="matrix(-0.60454,0,0,-0.60454,-1028.661621,-358.29364)" style="stroke:#000000;stroke-width:0.05mm;fill:none" d="M474.024139,721.242188C477.007996,717.448975,476.471985,715.413025,470.987518,709.711304C463.31601,701.734985,461.811005,696.825989,460.960602,677C460.184998,658.908997,459.855011,657.385986,454.339294,646.374573C450.061005,637.833008,445.985992,633.708984,437.19693,629.024292C429.27301,624.801025,423.088013,619.453979,421.369873,615.342834C418.035004,607.359985,421.315002,594.379028,428.841736,585.778259C432.076996,582.08197,434.104004,578.645996,434.888428,575.528748C435.537994,572.950012,437.131989,569.776978,438.431061,568.478027C441.703003,565.205994,451.105988,562.614014,456.896484,563.388245C471.139008,565.291992,471.562988,565.294006,473.380768,563.476379C475.528992,561.328003,474.841003,557.565002,471.675873,554.157532C469.928986,552.276978,468.809998,551.922974,466,552.362793C464.075012,552.664001,458.063995,553.567993,452.641327,554.37146C445.834991,555.380005,440.812988,556.802002,436.421509,558.96405C430.091003,562.080994,430.039001,562.140991,425.498016,571.664368C422.989014,576.927002,419.582001,583.200989,417.927338,585.605591C416.27301,588.01001,414.32901,591.669983,413.608398,593.739014C411.822998,598.864014,410.640015,618.458984,411.966766,620.937866C412.533997,621.997009,418.574005,626.70697,425.389221,631.403992C432.204987,636.101013,439.61499,642.028015,441.857178,644.575073C449.035004,652.72998,452.343994,665.367981,451.908386,682.97229C451.673004,692.502014,451.906006,694.116028,454.3703,700C458.772003,710.510986,465.335999,723.088989,466.865875,723.944824C468.983002,725.130005,471.803986,724.065002,474.024139,721.242188z"/>
    <path transform="matrix(-0.60454,0,0,-0.60454,-1028.661621,-358.29364)" style="stroke:#000000;stroke-width:0.05mm;fill:none" d="M413.202332,709.809692C421.126007,707.768005,422.424011,707.684021,427.702332,708.870239C437.208008,711.007019,442.82901,711.385986,444.494843,710.004272C446.747009,708.13501,446.312988,704.221985,443.544495,701.453552L441.088959,698.998047L420.907501,699.309082C401.234009,699.612,400.678986,699.677979,398.863007,701.920837C396.363007,705.008972,396.511993,708.544983,399.222504,710.443298C402.139008,712.486023,402.959991,712.448975,413.202332,709.809692z"/>
    <path transform="matrix(-0.60454,0,0,-0.60454,-1028.661621,-358.29364)" style="stroke:#000000;stroke-width:0.05mm;fill:none" d="M655.298462,710.75C656.382019,709.94397,657.51001,706.432007,658.474182,700.867737C659.296021,696.119995,661.325989,685.710999,662.984558,677.735474C666.588989,660.401978,666.690002,658.354004,663.984314,657.494995C660.932007,656.526001,655.205017,658.797974,654.361633,661.311768C653.958008,662.515015,653.737976,666.424988,653.872742,670C654.137024,677.01001,651.89801,689.403992,649.574951,693.788879C648.784973,695.280029,646.531982,697.757019,644.569336,699.292603C642.606018,700.828979,641,702.866028,641,703.820129C641,709.307007,650.83197,714.072021,655.298462,710.75z"/>
    <path transform="matrix(-0.60454,0,0,-0.60454,-1028.661621,-358.29364)" style="stroke:#000000;stroke-width:0.05mm;fill:none" d="M365.710144,703.99115C368.048004,699.369995,367.300995,694.682007,363.415771,689.593445C358.727997,683.455017,358.039001,680.835999,357.317322,666.423218C356.427002,648.65802,356.386993,648.768005,368.115479,637.313599C373.641998,631.916016,378.65799,626.599976,379.261292,625.5C379.86499,624.400024,380.260986,620.33197,380.141541,616.46106C380.022003,612.590027,380.609985,606.515015,381.447601,602.96106C382.285004,599.406982,382.97699,593.687012,382.985229,590.248352L383,583.996704L378.177124,580.531799C375.278015,578.448975,372.283997,575.101013,370.671844,572.138428C369.196991,569.427979,367.283997,566.939026,366.422272,566.608521C363.963989,565.664978,361.263,567.674988,360.050079,571.348267C358.389008,576.380005,359.984009,579.327026,366.167267,582.653687C374.832001,587.315979,375.149994,589.138977,371.13443,611.097229C368.227997,626.992981,364.065002,633.401978,354.854584,636.161743C348.317993,638.119995,347.623993,640.073975,347.776886,656.088867C347.928009,671.981995,348.898987,678.47998,353.202698,692.428589C357.394989,706.015991,362.362,710.607971,365.710144,703.99115z"/>
    <path transform="matrix(-0.60454,0,0,-0.60454,-1028.661621,-358.29364)" style="stroke:#000000;stroke-width:0.05mm;fill:none" d="M548.428589,698.428589C552.864014,693.994019,548.710999,690.083984,537.727905,688.354248C528.232971,686.859009,525.448975,684.661987,524.35144,677.796265C523.54303,672.73999,520.950989,670,516.97522,670C513.484009,670,512,672.663025,512,678.930237C512,685.205017,515.112976,687.869995,533.919495,697.691833C539.109985,700.403015,546.099976,700.757996,548.428589,698.428589z"/>
    <path transform="matrix(-0.60454,0,0,-0.60454,-1028.661621,-358.29364)" style="stroke:#000000;stroke-width:0.05mm;fill:none" d="M612.600037,686.75C619.981995,679.719971,621.713013,676.677002,623.42926,667.705872C625.781006,655.414001,628.421021,653,639.512329,653C644.926025,653,646.671021,652.530029,650.661072,650C655.794983,646.744019,657.994995,646.405029,662.896362,648.113708C667.565979,649.742004,670,647.273987,670,640.912415C670,637.073975,669.620972,636.015015,668.073792,635.523438C666.963989,635.171021,660.291016,636.888977,652.327515,639.576294C642.994995,642.726013,635.948975,644.460022,630.626892,644.917725C620.036987,645.828003,620.252014,645.544983,614.080139,666.683472C612.927002,670.633972,610.828979,675.237976,609.418396,676.914551C603.763977,683.633972,592.822998,682.629028,584.466858,674.622864C580.463989,670.788025,580,669.872009,580,665.809814C580,662.616028,580.89502,659.684998,583.02887,655.888367C590.614014,642.39502,591.309998,640.223022,592.123474,627.52417C592.546997,620.911011,593.185974,612.799988,593.543945,609.5C594.169983,603.728027,594.060974,603.328979,590.684875,599C586.263977,593.33197,577.494019,575.973999,575.983643,569.90387C574.291016,563.103027,575.916992,558.466003,582.632202,550.940186C589.314026,543.452026,590.426025,541.02301,591.992004,530.5C592.646973,526.099976,594.697998,517.775024,596.549561,512C602.476013,493.519012,602.388977,490.640991,595.689087,483.747955C591.26001,479.19101,589.88501,476.604004,588.034058,469.345947C586.737976,464.264008,577.445984,455.196014,571.447571,453.159607C569.276001,452.421997,565.098022,450.203003,562.162537,448.2276C556.830017,444.639008,556.820007,444.636993,551.102356,445.817993C547.955017,446.467987,544.426025,447,543.26123,447C540.140015,447,538.325989,449.34201,537.576782,454.336609C537.182007,456.971008,535.507996,460.747009,533.455811,463.632935C531.554993,466.306,530,469.433014,530,470.581085C530,471.729004,533.599976,478.696014,538,486.062195C542.400024,493.428986,546,499.980988,546,500.622162C546,501.264008,547.30603,503.186005,548.901184,504.894257C552.739014,509.002991,556.322021,509.052002,557.991943,505.019409C559.809998,500.631012,558.721008,498.033997,551.498413,489.535645C543.231995,479.80899,541.729004,476.848999,541.78717,470.409851C541.840027,464.506989,543.758972,460.121002,547.614868,457.088287C550.953003,454.463013,553.48999,454.463013,560.513611,457.090973C568.890015,460.225006,575.573975,467.243011,583.623169,481.354126C591.843994,495.765991,592.028015,497.677002,586.677368,513.101807C584.655029,518.932983,583,524.872986,583,526.302551C583,533.671997,580.812988,539.161987,575.913696,544.086792C570.36499,549.664978,565,559.458008,565,564.009155C565,568.382019,571.223999,583.973999,577.125671,594.384644C583.76001,606.088989,584.664978,610.661987,583.233948,625.267395C581.97998,638.067017,579.900024,644.28302,573.167603,655.352234C570.875,659.120972,569,663.297974,569,664.635437C569,665.973022,570.099976,669.237,571.44458,671.890686C576.460999,681.791016,580.958984,685.244019,594.5,689.590393C605.080017,692.987,606.242004,692.804016,612.600037,686.75z"/>
    <path transform="matrix(-0.60454,0,0,-0.60454,-1028.661621,-358.29364)" style="stroke:#000000;stroke-width:0.05mm;fill:none" d="M441.263702,686.320618C442.623993,683.335022,440.860992,666.823975,438.420959,659.698425C436.183014,653.161011,429.705994,646.60498,416.534882,637.543762C405.794006,630.153992,405.446014,630.000977,399.534882,630.056458C396.216003,630.086975,392.096985,630.650024,390.382996,631.306458C386.186005,632.914001,369.156006,650.971008,367.983856,655.056213C366.622009,659.80603,368.283997,678.258972,370.35965,681.426147C373.921997,686.864014,379.769989,682.500977,378.627899,675.257263C376.79599,663.640991,376.764008,659.356018,378.485565,655.936218C380.596985,651.741028,388.515015,643.362,392.200348,641.42157C399.225006,637.723999,409.402008,641.14801,420.065094,650.796997C428.803986,658.705017,430.269989,662.098022,430.943146,675.974304C431.464996,686.72998,431.645996,687.520996,433.834412,688.608643C436.962006,690.163025,439.928986,689.249023,441.263702,686.320618z"/>
    <path transform="matrix(-0.60454,0,0,-0.60454,-1028.661621,-358.29364)" style="stroke:#000000;stroke-width:0.05mm;fill:none" d="M499.701447,686.496582C501.496002,685.23999,501.925995,683.721985,502.323425,677.246582C502.584991,672.986023,503.118011,668.05603,503.506897,666.29126C504.056,663.804016,503.431,661.218018,500.730682,654.79126C498.813995,650.231018,495.511993,641.336975,493.391418,635.025635C490.247009,625.666016,488.781006,622.763,485.439575,619.275635C481.242004,614.89502,477.598999,613.801025,475.200012,616.200012C473.140015,618.26001,473.84201,620.48999,478.901459,627.953613C482.315002,632.989014,485.234009,639.257996,488.517365,648.601379C493.549011,662.921997,493.569,663.133972,491.434204,679.613403C490.835999,684.228027,491,684.887024,493.108398,686.363403C495.993011,688.383972,496.977997,688.403992,499.701447,686.496582z"/>
    <path transform="matrix(-0.60454,0,0,-0.60454,-1028.661621,-358.29364)" style="stroke:#000000;stroke-width:0.05mm;fill:none" d="M602.350403,667.75C603.117981,666.513,604.494995,662.416992,605.409973,658.64917C606.325012,654.880981,608.471985,649.031006,610.181396,645.64917C613.161011,639.755005,613.242004,639.27002,612.144897,633.939819C609.010986,618.718018,611.870972,615.247986,629,613.492554C640.632996,612.299988,648.552979,610.10498,651.124084,607.36084C653.343994,604.991028,653.494995,604.09198,653.419983,593.662354C653.353027,584.315979,652.880005,581.057007,650.514343,573.628784L647.688721,564.757568L649.973694,543.808533C651.25,532.109985,652.046997,519.903015,651.779602,516.163635C650.978027,504.959991,644.442993,493,639.123413,493C635.130981,493,631.771973,496.908997,632.178467,501.082184C632.442993,503.796997,633.297974,504.846985,637,506.997498C640.447021,509,641.843018,510.591003,642.966431,513.798035C644.33197,517.697021,644.171997,519.809021,640.633606,544.548645L636.834229,571.112976L640.652771,576.657288C644.062012,581.606995,644.510986,582.981018,644.838379,589.470093C645.184021,596.314026,645.036987,596.927002,642.321411,599.966309C639.518982,603.103027,638.98999,603.257019,623.662903,605.430603C611.070007,607.216003,607.479004,608.077026,605.856506,609.699036C604.10498,611.450989,603.700989,613.705994,602.927612,626.061462C601.91803,642.19397,600.724976,646.700012,595.001465,656C590.567017,663.205017,590.289978,664.541016,592.556702,667.777466C594.724976,670.872986,600.421997,670.856995,602.350403,667.75z"/>
    <path transform="matrix(-0.60454,0,0,-0.60454,-1028.661621,-358.29364)" style="stroke:#000000;stroke-width:0.05mm;fill:none" d="M544.928894,640.248474C551.117981,637.093018,552.5,634.067993,552.5,623.676697C552.5,614.536011,552.474976,614.442993,546,600.003601C541.507996,589.987,538.393005,584.424988,535.918518,582.003601C533.948975,580.077026,525.625977,574.674988,517.423218,570C509.221008,565.325012,500.395996,559.551025,497.813843,557.168457C493.104004,552.823975,486.355011,541.138,482.411743,530.5C479.701996,523.190002,473.126007,517.072021,463.810974,513.193848C454.869995,509.471985,453.220001,509.337006,448.159973,511.918396C446.09201,512.973999,442.123993,514.25,439.343567,514.755737C436.04599,515.35498,432.812012,516.859985,430.046936,519.08252C426.354004,522.049988,425.080994,522.491028,420.184723,522.495178C415.195007,522.499023,414.42099,522.781006,413.296295,525C411.641998,528.263977,411.670013,531.166992,413.378876,533.503479C414.638,535.226013,415.135986,535.276001,419.128876,534.080322C421.53299,533.359985,426.649994,531.184998,430.5,529.24707C446.571991,521.155029,455.167999,519.372009,462.782104,522.55304C469.726013,525.453979,473.101013,529.984009,474.467651,538.239197C474.847992,540.536987,476.605988,543.734009,479.027832,546.532166C481.388,549.26001,483.591003,553.224976,484.519714,556.4198C486.251007,562.377014,487.503998,563.775024,494,567.002991C505.649994,572.791992,525.012024,585.289001,528.951233,589.562927C534.291016,595.356018,539.369019,606.218018,541.987366,617.445862C544.502014,628.231995,544.504028,630.495972,542,633C539.65802,635.34198,537.132996,635.549011,534.487549,633.614563C533.03302,632.551025,532.432983,630.403015,531.905518,624.364563C531.137024,615.567993,527.504028,605.375977,522.844238,598.943726C518.343994,592.731995,486.468994,573,480.93396,573C479.691986,573,476.259003,573.762024,473.304443,574.693176C468.718994,576.138977,467.088013,576.211975,462.156342,575.193176C452.632996,573.226013,448.317993,573.585999,446.404755,576.505005C444.200989,579.869019,445.675995,581.559021,452.564606,583.561829C456.493011,584.703979,461.453003,585.025024,471.699463,584.801697C485.122009,584.508972,485.688995,584.580994,490.86792,587.255188C499.132996,591.521973,509.73999,598.940002,513.181091,602.859009C517.61499,607.908997,520.594971,615.133972,522.488342,625.425659C524.255981,635.036987,525.982971,639.307983,528.75,640.919861C531.598022,642.578003,541.135986,642.182983,544.928894,640.248474z"/>
    <path transform="matrix(-0.60454,0,0,-0.60454,-1028.661621,-358.29364)" style="stroke:#000000;stroke-width:0.05mm;fill:none" d="M637.736572,633.011353C642.267029,631.924988,648.666016,629.903015,651.956421,628.518372C656.104004,626.77301,659.778992,626,663.934692,626C669.112976,626,670.099976,625.69397,671.184143,623.75C673.309998,619.937012,673.541992,585.320007,671.535889,571.25177C669.473999,556.791992,669.335999,550.982971,670.435059,524.973694C671.098999,509.264008,671.007996,503.515015,670.047668,500.473694C669.356995,498.287994,665.484985,491.54599,661.441528,485.491089C653.267029,473.247986,644.877014,454.352997,642.986023,443.922913C641.547974,435.992004,642.340027,430.424988,646.177307,421.5C652.070984,407.791992,651.252991,397.873993,640.818542,356.509399C633.36499,326.960999,632.119995,320.074005,632.052979,308.004578C631.971985,293.536987,629.955994,260.973999,628.878906,256.75C628.171997,253.975998,627.398987,253,625.9104,253C621.922974,253,621.413025,257.404999,621.6297,290C621.872986,326.641998,622.577026,333.507996,626.86438,341.105743C629.401978,345.60199,630,347.792999,630,352.595734C630,357.175995,630.695007,359.95401,633.046326,364.773895C638.169983,375.277008,642.89502,400.962006,640.998596,408.005188C640.453003,410.03299,638.627991,413.593994,636.943237,415.919647C634.68103,419.042999,633.505005,422.28299,632.44165,428.323761C631.650024,432.821014,631.002014,437.734009,631.001343,439.242065C631.000977,440.75,633.465027,447.73999,636.478516,454.774414C639.492004,461.80899,642.713989,470.924988,643.640015,475.032318C645.093018,481.480011,645.895996,483.04599,649.520142,486.5C661.468018,497.886993,664.111023,509.786011,660.983704,538.113403C659.179993,554.447021,659.325989,565.651978,661.422974,572C662.723022,575.934021,663.382019,581.80603,663.738403,592.626587C664.286011,609.265991,663.478027,613.801025,659.50061,616.407654C655.703003,618.895996,640.263,623.002991,632.119629,623.69165C626.849976,624.137024,624.143005,624.856995,622.839722,626.160278C619.232971,629.767029,621.594971,635.007019,626.821411,634.992981C628.294983,634.989014,633.205994,634.096985,637.736572,633.011353z"/>
    <path transform="matrix(-0.60454,0,0,-0.60454,-1028.661621,-358.29364)" style="stroke:#000000;stroke-width:0.05mm;fill:none" d="M353.769745,625.44873C356.968994,623.208008,358.105011,620.603027,360.286743,610.5C363.325989,596.427002,363.467987,594.174988,361.454803,591.950073C357.179993,587.226013,353.52301,590.754028,351.452911,601.600342C350.623993,605.945007,348.992004,612.327026,347.82663,615.782227C346.122009,620.838013,345.928009,622.546021,346.832733,624.532227C348.122009,627.361023,350.576996,627.684998,353.769745,625.44873z"/>
    <path transform="matrix(-0.60454,0,0,-0.60454,-1028.661621,-358.29364)" style="stroke:#000000;stroke-width:0.05mm;fill:none" d="M398.636139,619.542297C400.472992,618.255981,400.779999,616.76001,401.248749,606.792297C401.871002,593.565002,403.247009,589.02002,409.987762,577.922119C412.688995,573.474976,415.427002,568.184998,416.07135,566.168091C418.191986,559.53302,421.416992,554.840027,425.489258,552.461853C432.651001,548.280029,445.161987,544.289978,453.5,543.529968C457.899994,543.129028,462.062988,542.340027,462.75,541.777649C464.744995,540.145996,464.207001,537.116028,461.427612,534.336731C457.532013,530.440979,451.309998,531.374023,437,538.000366C428.571014,541.903015,423.977997,543.439026,419.800873,543.749084C412.960999,544.257019,411.891998,545.330994,410.892426,552.694824C410.445007,555.98999,408.971985,560.14502,407.280579,562.880127C405.709015,565.421021,403.812988,569.075012,403.066681,571C402.320007,572.924988,400.497986,576.075012,399.016998,578C394.962006,583.270996,394.329987,584.921997,393.659149,592C393.320007,595.575012,392.272003,602.38501,391.330475,607.134216C389.713989,615.286987,389.713989,615.914001,391.332184,618.384216C393.26001,621.327026,395.566986,621.692017,398.636139,619.542297z"/>
    <path transform="matrix(-0.60454,0,0,-0.60454,-1028.661621,-358.29364)" style="stroke:#000000;stroke-width:0.05mm;fill:none" d="M622.231689,595.082642C631.677979,594.210999,635,592.515991,635,588.567505C635,585.239014,632.195007,582,629.31134,582C627.89502,582,625.236023,582.927002,623.403503,584.059631C612.864014,590.572998,604.250977,587.609009,598.961548,575.647644C596.04303,569.046997,596.896973,565.093994,602.548462,559.051636C608.275024,552.929993,609.56897,549.612,610.958496,537.5C612.484985,524.187988,614.393982,516.872986,617.608032,512.016113C619.601013,509.005005,620.450989,506.112,621.004822,500.450806C621.804016,492.283997,623.254028,489.859985,629.734619,485.855011C631.531982,484.743988,633.273987,482.756012,633.605103,481.437256C634.489014,477.916992,630.513977,465.855988,624.916687,455.069733C622.224976,449.882996,619.762024,444.248993,619.443176,442.548859C619.124023,440.848999,619.525024,435.643005,620.33374,430.979126C621.911987,421.877014,621.263977,418.121002,617.588989,415.072845C614.439026,412.460999,612.95697,408.088013,612.055908,398.749878C611.565002,393.661987,610.594971,387.40799,609.901001,384.850128C608.796021,380.778015,608.851013,379.877014,610.342407,377.600128C612.372009,374.502991,616.163025,374.162994,618.838379,376.838379C620.315979,378.31601,620.80603,380.933014,621.333435,390.175018C622.047974,402.684998,623.242981,407.523987,625.979309,408.988922C627.882996,410.007996,630.080994,408.223999,631.368347,404.615204C632.245972,402.153992,628.31897,379.996002,625.807678,373.245911C623.439026,366.878998,621.377991,365.52301,616.235413,366.951447C614.18103,367.522003,610.41803,367.990997,607.872437,367.994415C601.763,368.002014,600.551025,369.532013,601.32373,376.268707C601.653992,379.145996,602.612976,387.790009,603.455627,395.477051C604.297974,403.164001,606.166016,413.514008,607.605469,418.477051C609.85498,426.231995,610.140991,428.695007,609.639709,436C609.31897,440.674988,608.767029,445.51001,608.413147,446.743713C607.89502,448.549988,608.85498,450.071991,613.335205,454.552582C619.504028,460.721008,623,468.200989,623,475.2276C623,478.983002,622.469971,479.869995,617.45105,484.503387L611.902039,489.626617L611.040894,497.563293C610.552979,502.062012,608.814026,509.161011,607.026978,513.951233C605.29303,518.598999,603.176025,527.148987,602.32251,532.951233C600.617981,544.541016,598.057007,550.736023,593.003967,555.5C588.89502,559.372986,587,563.075989,587,567.228577C587,573.359009,599.054993,595.344971,603.27179,596.904846C604.447021,597.340027,607.210999,597.291016,609.413879,596.795654C611.616028,596.301025,617.38501,595.530029,622.231689,595.082642z"/>
    <path transform="matrix(-0.60454,0,0,-0.60454,-1028.661621,-358.29364)" style="stroke:#000000;stroke-width:0.05mm;fill:none" d="M619.802002,574.602356C621.289001,573.833984,623.250977,572.370972,624.163452,571.352356C625.666992,569.672974,628.549011,555.539978,630.454163,540.5C630.802979,537.75,631.781982,532.267029,632.629639,528.315308C633.939026,522.213989,633.968018,520.705994,632.822388,518.315308C631.119019,514.760986,628.315002,514.697998,625.733337,518.155396C624.232971,520.164978,623.283997,524.541016,621.832764,536.155396C619.312988,556.310974,618.807983,557.955994,613.488403,563.352722C608.697998,568.211975,607.79303,571.650024,610.571411,574.428589C612.517029,576.374023,616.23999,576.44397,619.802002,574.602356z"/>
    <path transform="matrix(-0.60454,0,0,-0.60454,-1028.661621,-358.29364)" style="stroke:#000000;stroke-width:0.05mm;fill:none" d="M390.755157,572.75C393.31601,569.549011,393.059998,567.260986,389.689972,563.227356C387.839996,561.013,385.819,557.91803,385.19928,556.350342C383.391998,551.776978,380,532.374023,380,526.608215C380,514.700989,377.890015,504.714996,372.477173,491C365.071991,472.237,361,455.881989,361,444.901245C361,440.14801,360.098999,431.070007,358.997467,424.726776C356.997009,413.208008,356.997009,413.187012,358.984558,406.84726C360.507996,401.985992,360.97699,397.65799,360.987091,388.357971C360.997986,377.862,360.571014,374.609009,357.832764,364.357971C355.609009,356.03299,354.641998,350.115997,354.586395,344.5C354.515015,337.289001,354.803009,336.019989,357.503601,331.634125C359.152008,328.958008,361.071014,325.808014,361.769226,324.634125C362.730011,323.019012,362.972992,315.933014,362.769226,295.5L362.5,268.5L359.684692,264.352112C356.204987,259.225006,347.858002,233.121002,347.741577,227C347.694,224.524994,348.252991,220.869003,348.983185,218.875977C351.013,213.334,349.994995,212,343.731384,212C340.799011,212,337.859985,212.539993,337.200012,213.199997C334.666992,215.733002,336.470001,225.380997,343.554901,247.191177C350.329987,268.049011,352.016998,276.062988,352.683411,290.565369C353.309998,304.201996,352.108002,316.606995,349.42276,324.218903C348.623993,326.484009,347.23999,334.223999,346.348969,341.418793L344.728302,354.5L347.992981,362.5C352.252014,372.937988,352.95401,382.200989,350.377991,394.010773C348.877014,400.894012,348.515015,407.040009,348.463531,426.5C348.428986,439.700012,348.029999,453.463013,347.576569,457.08432L346.752777,463.668671L351.616791,466.08432C356.928009,468.721985,356.877991,468.630005,361.334198,484C362.690002,488.674988,365.285004,496.549988,367.102875,501.5C370.283997,510.165009,370.411011,511.076996,370.518036,526C370.602997,537.859985,370.992004,542.205017,372.17627,544.5C373.027008,546.150024,373.981995,550.125,374.298096,553.332458C374.75,557.919006,375.769012,560.541016,379.07016,565.607666C381.378998,569.151001,383.994995,572.474976,384.883911,572.994812C387.153015,574.320984,389.579987,574.218994,390.755157,572.75z"/>
    <path transform="matrix(-0.60454,0,0,-0.60454,-1028.661621,-358.29364)" style="stroke:#000000;stroke-width:0.05mm;fill:none" d="M400.250946,552.416809C402.381012,538.487,403.527008,507.072998,402.14505,500.5C401.566986,497.75,400.579987,492.350006,399.953247,488.5C399.325989,484.649994,398.161011,478.125,397.364746,474C396.567993,469.875,395.477997,464.024994,394.941498,461C393.246002,451.436005,390.850006,442.63501,388.815887,438.5C385.350006,431.451996,370.548004,410.003998,369.149292,410.002106C367.708008,410,367.854004,412.570007,369.970367,424.5C370.556,427.799988,371.681,437.25,372.471222,445.5C374.375,465.378998,376.248993,475.237,379.505615,482.5C380.984985,485.799988,383.003998,490.306,383.992065,492.513763C386.934998,499.091003,388.914001,508.765991,389.91861,521.5C390.440002,528.099976,391.752014,537.775024,392.834412,543C396.059998,558.567017,398.782013,562.02301,400.250946,552.416809z"/>
    <path transform="matrix(-0.60454,0,0,-0.60454,-1028.661621,-358.29364)" style="stroke:#000000;stroke-width:0.05mm;fill:none" d="M557.171265,553.345032C558.252014,552.367004,559,550.315002,559,548.330322C559,544.077026,555.554993,541.794006,545.81897,539.595337C532.757996,536.645996,527.362,531.107971,515.991577,508.983551C508.002991,493.440002,505.709015,490.893005,494.707092,485.352478C477.911011,476.894012,475.61499,472.069,480.108795,454.666626C481.872009,447.838989,482.113007,444.859985,481.577026,436.5C480.631012,421.726013,479.832001,419.196991,474.633301,414.52356C472.171997,412.311005,469.733002,409.600006,469.213043,408.5C467.411011,404.687012,466.990997,396.35199,467.986115,384.16983C469.062012,371.005005,470.113007,367.910004,475.579773,361.809662C479.160004,357.815002,479.183014,357.723999,481.452484,338.5C485.020996,308.274994,484.585999,296,479.946075,296C477.686005,296,477.303009,297.247009,476.004028,308.853943C474.268005,324.362,470.109009,343.605988,465.506378,357.432648C460.019012,373.916992,458.569,383.037994,459.253876,396.771149C459.971008,411.148987,461.269989,415.627991,466.602844,422.108337C469.042999,425.074005,471.529999,429.299988,472.128998,431.5C473.851013,437.821014,472.756012,450.70401,470.051605,455.947449C468.136993,459.660004,467.850006,461.395996,468.314667,466.447449C469.588013,480.289001,472.005005,483.641998,486.017883,491.009399C498.845001,497.752991,502.294006,501.63501,510.613312,518.695129C515.031982,527.755005,518.39502,533.242004,521.282654,536.100525C525.320984,540.098999,550.893982,554.875977,553.921265,554.960327C554.703003,554.981995,556.164978,554.255005,557.171265,553.345032z"/>
    <path transform="matrix(-0.60454,0,0,-0.60454,-1028.661621,-358.29364)" style="stroke:#000000;stroke-width:0.05mm;fill:none" d="M352.074615,537.473694C358.402008,535.241028,359.734009,533.609009,360.474579,527.176086C361.368011,519.421021,359.598999,509.48999,355.419373,498.79364C353.492004,493.862,351.480011,487.502991,350.948151,484.663116C349.993988,479.569,347.479004,474.993011,345.219055,474.239685C343.747009,473.748993,340.009003,479.796997,340.003723,482.675598C340.002014,483.872009,341.705994,488.377991,343.790527,492.689545C345.875,497.001007,348.880005,504.928009,350.468689,510.306213C354.364014,523.495972,353.502991,525.767029,343.509705,528.672058C340.06601,529.672974,339.312988,531.926025,341.032776,536.079102C342.45401,539.51001,345.289001,539.867981,352.074615,537.473694z"/>
    <path transform="matrix(-0.60454,0,0,-0.60454,-1028.661621,-358.29364)" style="stroke:#000000;stroke-width:0.05mm;fill:none" d="M569.881226,534.954895C570.900024,533.280029,572.03302,528.978027,572.400452,525.395508C572.768005,521.812988,574.44397,515.419983,576.125671,511.190613C579.65802,502.308014,580.046021,496.934998,577.513916,491.999329C573.689026,484.544006,565.705017,472.947998,562.396912,470.04361C558.570007,466.68399,553.619019,465.944,552.606995,468.581787C551.239014,472.145996,552.301025,474.398987,558.411316,480.905548C565.432007,488.381012,568.625977,493.759003,569.54657,499.658234C570.026978,502.734009,569.53302,504.696991,567.070313,509.5C565.379028,512.799988,563.054993,519.453979,561.905579,524.285583C559.965027,532.447998,559.93103,533.245972,561.431396,535.535583C563.742004,539.062988,567.541992,538.802002,569.881226,534.954895z"/>
    <path transform="matrix(-0.60454,0,0,-0.60454,-1028.661621,-358.29364)" style="stroke:#000000;stroke-width:0.05mm;fill:none" d="M551.37561,525.890442C552.877991,521.591003,551.468994,518.515015,547.094727,516.542725C541.913025,514.205994,538.609985,510.626007,536.002441,504.522736C534.833008,501.785004,531.70697,495.934998,529.056213,491.522736C526.405029,487.109985,523.164978,481.475006,521.855469,479C519.857971,475.225006,518.752014,474.290009,514.987366,473.194916C506.191986,470.636993,502.054993,468.18399,500.287567,464.476868C498.779999,461.31601,498.751007,460.438995,500.01004,456.220184C500.785004,453.623993,501.330994,449.25,501.223541,446.5C500.617004,430.972992,500.951996,424.625,502.884827,415C505.277008,403.088989,505.789001,376.623993,504.014465,356.611603C503.471985,350.5,502.571014,335.825012,502.011566,324C500.968994,301.976013,499.25,288.333008,496.404358,279.5C494.910004,274.863007,492.773987,253.065994,492.680054,241.5C492.598999,231.501007,494.863007,214.130997,498.39209,197.687454C500.376007,188.440994,502,179.095993,502,176.9216C502,174.746994,500.401001,166.787994,498.445984,159.234146C494.342987,143.376999,493.196991,130.292007,494.924103,119C497.515015,102.058998,497.502014,100.356003,494.744476,96.190071C490.018005,89.047798,486.187012,80.440201,484.960754,74.205986C483.933014,68.980598,484.002014,66.407097,485.397339,58.032604C487.540985,45.1679,486.433014,40,481.532532,40C476.346008,40,475.510986,43.629299,474.403687,71.012764L473.857117,84.525528L479.011444,90.41568C481.846008,93.655296,484.631012,97.474503,485.199463,98.902916C485.785004,100.375,486.309998,111.461998,486.409515,124.5C486.566986,145.093994,486.856995,148.755005,489.177643,159.5C493.027008,177.322006,493.281006,180.300995,491.923523,191.752075C490.536987,203.451004,488.467987,207.298996,482.908905,208.520004C478.376007,209.516006,477.365997,212.641998,479.29248,219.710968C480.584015,224.447998,480.837006,230.770004,480.685211,254.5L480.5,283.5L485.132477,285.947021C487.679993,287.292999,490.299988,289.251007,490.954498,290.298767C493.143005,293.803009,493.906006,308.610992,492.964355,329.2883C492.458008,340.404999,491.766998,351.352997,491.42807,353.618591C490.933014,356.931,491.43399,359.153015,493.988739,364.974365L497.165161,372.211548L496.832581,388.855774C496.510986,404.963013,496.411011,405.64801,493.741455,410.102417L490.98291,414.704865L491.60614,432.102417C492.113007,446.26001,491.928986,450.769012,490.614685,456.312042C489.72699,460.05899,489,464.160004,489,465.427185C489,469.265015,492.531006,472.548004,501.590546,477.132538C512.624023,482.716003,516.838989,487.369995,524.779785,502.732605C534.674988,521.877014,541.20697,529.372009,547.481934,528.780823C549.666016,528.575012,550.708008,527.802002,551.37561,525.890442z"/>
    <path transform="matrix(-0.60454,0,0,-0.60454,-1028.661621,-358.29364)" style="stroke:#000000;stroke-width:0.05mm;fill:none" d="M340.443298,519.777466C342.765015,516.463013,342.451996,514.856995,337.036133,502.290863C331.789001,490.117004,330.178986,488.083008,325.75,488.031799C322.039001,487.989014,322.108002,490.756012,326.033295,499.413147C327.701996,503.092987,330.007996,508.666992,331.159149,511.801453C333.136993,517.187012,336.42099,522,338.117615,522C338.540985,522,339.587006,521,340.443298,519.777466z"/>
    <path transform="matrix(-0.60454,0,0,-0.60454,-1028.661621,-358.29364)" style="stroke:#000000;stroke-width:0.05mm;fill:none" d="M423.596924,510.919556C425.388,509.433014,425.398987,504.681,423.619324,501.200348C422.859985,499.714996,420.563995,490.94101,418.516998,481.702087C414.667999,464.32901,414.542999,460.717987,417.585724,454.834229C419.809998,450.533997,419.309998,448.645996,414.639191,443.701538C412.240997,441.161987,408.335999,435.803009,405.962799,431.79245C403.588989,427.782013,397.51001,417.975006,392.454285,410C382.427002,394.18399,381.475006,391.914001,380.498444,381.5C380.138,377.649994,378.802002,369.549988,377.530609,363.5C376.259003,357.450012,374.89801,349.799988,374.506409,346.501038C373.640991,339.210999,371.627991,335,369.009491,335C363.809998,335,363.446014,344.020996,367.918762,362C370.096985,370.756989,371.209991,378.092987,371.635529,386.5L372.242615,398.5L377.023743,403.5C382.662994,409.39801,392.651001,424.411987,398.022644,435.065674C402.628998,444.201996,404.506012,450.639008,405.98822,462.380829C406.605011,467.265015,408.226013,476.714996,409.591644,483.380829C410.957001,490.04599,412.335999,499.100006,412.65625,503.5C413.321991,512.651978,414.459015,514.302002,419.165619,512.952515C420.830994,512.474976,422.825012,511.559998,423.596924,510.919556z"/>
    <path transform="matrix(-0.60454,0,0,-0.60454,-1028.661621,-358.29364)" style="stroke:#000000;stroke-width:0.05mm;fill:none" d="M444.171265,502.345001C446.667999,500.084991,446.493011,498.535004,442.889954,491C438.041992,480.863007,436,474.148987,436,468.346344C436,463.589996,436.406006,462.557007,439.708435,458.90097C442.765991,455.515991,443.389008,454.109009,443.260681,450.879395C443.003998,444.450012,438.234009,437.263,425.335846,423.87027C408.174988,406.053009,404.851013,398.799011,397.062836,362.174164C394.859985,351.813995,391.216003,335.949005,388.965302,326.918549C384.43399,308.735992,382.772003,291.109985,384.865906,283.440826C387.007996,275.596008,395.231995,265.664001,411.377838,251.423218C420.255005,243.593994,416.639008,239.544998,402.164917,241.105438C392.510986,242.145996,391.769012,242.834,392.57785,249.985413C393.062988,254.274002,392.820007,256.447998,391.587494,258.830811C389.911011,262.072998,381.424988,269.412994,378.152527,270.451599C374.026001,271.760986,373.647003,274.639008,374.30545,299.668304L374.929138,323.373444L378.000153,327.649719C382.02301,333.251007,383.623993,337.292999,384.478882,344C384.864014,347.024994,386.223999,354.450012,387.500793,360.5C388.777008,366.549988,390.346008,375.100006,390.987427,379.5C392.304993,388.542999,394.681,394.354004,402.161072,406.830688C411.759003,422.838989,417.308014,430.457001,424.676147,437.73764C433.303986,446.264008,433.776001,448.42099,429,457.5C427.350006,460.636993,425.997009,464.394989,425.993896,465.851532C425.985992,469.248993,433.998993,501.096985,435.278015,502.75C436.661011,504.536987,442.018005,504.292999,444.171265,502.345001z"/>
    <path transform="matrix(-0.60454,0,0,-0.60454,-1028.661621,-358.29364)" style="stroke:#000000;stroke-width:0.05mm;fill:none" d="M610.171265,477.345001C613.645996,474.200989,611.978027,467.105011,606.580505,462.062073C604.424988,460.048004,603.513977,459.786987,601.34491,460.562073C597.854004,461.80899,596.922974,464.734009,598.529175,469.407196C600.005005,473.700012,604.606995,479,606.858337,479C607.674988,479,609.164978,478.255005,610.171265,477.345001z"/>
    <path transform="matrix(-0.60454,0,0,-0.60454,-1028.661621,-358.29364)" style="stroke:#000000;stroke-width:0.05mm;fill:none" d="M522.573242,461.283905C523.517029,460.339996,525.559998,456.881012,527.112671,453.597839C530.116028,447.247986,529.763977,445,525.767517,445C522.455994,445,512.34198,450.95401,511.128143,453.618073C509.618011,456.933014,509.67099,457.312012,512.072571,460.365143C514.536987,463.498993,519.890015,463.96701,522.573242,461.283905z"/>
    <path transform="matrix(-0.60454,0,0,-0.60454,-1028.661621,-358.29364)" style="stroke:#000000;stroke-width:0.05mm;fill:none" d="M485.930115,402.770599C487.606995,397.959015,487.321014,373.813995,485.558563,371.441132C484.411011,369.895996,483.747986,369.722992,482.308563,370.592255C478.990997,372.596008,478.130005,376.283997,477.812103,389.843323C477.51001,402.727997,477.576996,403.235992,479.798859,405.036621C482.692993,407.381989,484.563995,406.69101,485.930115,402.770599z"/>
    <path transform="matrix(-0.60454,0,0,-0.60454,-1028.661621,-358.29364)" style="stroke:#000000;stroke-width:0.05mm;fill:none" d="M610.782898,357.850677C618.799011,356.43399,620,355.656006,620,351.877563C620,348.069,616.619019,344.669006,613.740173,345.582458C612.554016,345.959015,608.939026,346.57901,605.707703,346.95993C599.070007,347.743011,597.711975,349.023987,598.415344,353.839233C599.002014,357.854004,600.817017,360.283997,602.693115,359.56427C603.447998,359.274994,607.088989,358.502991,610.782898,357.850677z"/>
    <path transform="matrix(-0.60454,0,0,-0.60454,-1028.661621,-358.29364)" style="stroke:#000000;stroke-width:0.05mm;fill:none" d="M609.659912,335.487183C612.075989,333.903992,612.187012,333.493011,611.371826,329.147125C610.265015,323.247986,610.794006,273.891998,612.113281,260C612.661011,254.225006,613.742004,248.531006,614.514709,247.346786C615.286987,246.162994,617.849976,244.546997,620.209656,243.756851L624.5,242.320114L624.418396,237.410065C624.374023,234.710007,623.802979,229.992996,623.150635,226.927933C622.065979,221.830994,622.200989,220.509003,624.732239,211.427933L627.5,201.5L627.525757,165.5C627.554993,124.167,627.494019,124.598999,636.599243,101.839432C639.666016,94.173103,641.935974,87.276001,641.643188,86.512573C641.111023,85.126404,635.119019,83.016098,631.684265,83.005577C630.685974,83.002502,628.955017,83.489098,627.83783,84.086777C625.963013,85.090103,625.861023,85.776497,626.502686,93.029999C627.189026,100.781998,627.142029,101.008003,622.984131,110.03447L618.770142,119.182503L619.135071,160.485016C619.489014,200.511993,619.439026,201.854996,617.520325,203.976318C616.43103,205.179993,614.062988,206.783005,612.256226,207.537399C607.846985,209.380005,607.367004,211.192001,609.332703,218.571213C611.585999,227.026001,611.435974,231.082993,608.564148,239.42482C605.552979,248.171005,602.450012,270.035004,601.032288,292.5C600.442017,301.850006,599.515991,314,598.973938,319.5C597.799011,331.428986,597.737,336.399994,598.75,337.426483C599.906982,338.597992,606.775024,337.377991,609.659912,335.487183z"/>
    <path transform="matrix(-0.60454,0,0,-0.60454,-1028.661621,-358.29364)" style="stroke:#000000;stroke-width:0.05mm;fill:none" d="M378.600006,257.600006C380.470001,255.729996,382,253.324997,382,252.25499C382,249.945999,379.470001,247.520996,376,246.503342C372.393005,245.445007,369.201996,242.195999,368.462036,238.827087C368.109009,237.220001,368.56601,232.554001,369.477112,228.458282C370.388,224.362,370.990997,219.770996,370.816956,218.2556C370.540009,215.847,370.015015,215.460007,366.651917,215.183792C360.489014,214.677002,358.997986,216.768997,359.01059,225.904984C359.019012,232.164001,359.721008,235.507996,363.000153,244.909607C365.188995,251.184998,367.669006,257.372009,368.512604,258.659607C370.75,262.074005,374.522003,261.678009,378.600006,257.600006z"/>
    <path transform="matrix(-0.60454,0,0,-0.60454,-1028.661621,-358.29364)" style="stroke:#000000;stroke-width:0.05mm;fill:none" d="M481.717865,195C483.233002,190.645996,482.549988,179.149994,479.964661,165.5C476.725006,148.395996,475.756012,139.057999,475.500244,122.5C475.364014,113.699997,475.196014,105.721001,475.126587,104.769928C475.057007,103.818001,472.315002,100.077003,469.033295,96.455826C462.266998,88.989197,461.411011,86.355103,462.421204,76.102806C463.234009,67.854202,462.036011,66.007004,454.263794,63.522327C450.863007,62.435001,447.446014,60.3111,444.513794,57.461521C440.656006,53.712101,440,52.497398,440,49.102406C440,43.8801,438.457001,40,436.379608,40C433.973999,40,426.084015,45.194099,425.441315,47.20002C424.257996,50.895802,429.931,57.6558,441,65.738457C450.445007,72.635201,451.394989,74.0979,451.763214,82.298698C452.222992,92.5513,452.355011,92.904701,458.303192,99.772728C461.259003,103.185997,464.173004,107.669998,464.779449,109.738892C465.385986,111.807999,466.399994,120.925003,467.033447,130C467.666992,139.074997,469.065002,152.574997,470.14032,160C471.216003,167.425003,472.707001,178.449997,473.453461,184.5C474.200012,190.550003,475.135986,196.311005,475.532806,197.302872C476.73999,200.319,480.333008,198.981003,481.717865,195z"/>
    <path transform="matrix(-0.60454,0,0,-0.60454,-1028.661621,-358.29364)" style="stroke:#000000;stroke-width:0.05mm;fill:none" d="M608.130493,197.25C609.338013,195.783005,609.513,190.001999,609.212769,161.5C609.015991,142.800003,608.775024,124.574997,608.677307,121C608.528015,115.511002,609.015015,113.403,611.807373,107.446678C615.41803,99.745796,615.744995,97.235199,614.594482,86C613.994995,80.146698,614.138977,78.086502,615.247437,76.616646C617.942993,73.043404,633.458984,71.900002,641.268127,74.699127C645.877014,76.351097,646.098999,76.342903,647.905273,74.454071C648.932983,73.379303,652.142029,67.875298,655.03656,62.222874C661.017029,50.543301,662.380981,43.757401,659.6026,39.516266C656.091003,34.1563,651.005005,37.633499,650.990234,45.404987C650.97699,52.409401,647.223999,60.313202,642.826172,62.59808C640.359009,63.880199,635.385986,64.5513,623.560303,65.198135C614.268005,65.706398,607.039978,66.551697,606.22876,67.225105C605.247986,68.038902,604.950989,70.022903,605.223694,73.940109C605.435974,76.998001,605.083008,85.4216,604.437988,92.65918C603.249023,106.005997,602.197998,109.100998,597.546692,112.961258C595.328979,114.802002,595.627014,117.944,598.647888,124.542023C602.294006,132.507004,602.822998,144.309998,600.501587,165.894897C598.822021,181.514008,598.815002,182.882996,600.390076,188.956985C601.91803,194.847,604.237,199,606,199C606.380005,199,607.338013,198.212006,608.130493,197.25z"/>
    <path transform="matrix(-0.60454,0,0,-0.60454,-1028.661621,-358.29364)" style="stroke:#000000;stroke-width:0.05mm;fill:none" d="M611.661316,55.5C614.828979,54.674999,621.276001,54,625.98761,54C635.718994,54,638.343994,52.815201,640.605652,47.401424C643.346008,40.8428,641.403015,34.679699,637.513245,37.590851C636.844971,38.0909,634.31897,40.013802,631.89917,41.864014L627.5,45.228024L614.720703,44.608597C600.468994,43.917801,600.219971,44.027699,601.429382,50.475384C601.981018,53.416901,604.229004,57,605.522644,57C605.731995,57,608.494019,56.325001,611.661316,55.5z"/>
    <path transform="matrix(-0.60454,0,0,-0.60454,-1028.661621,-358.29364)" style="stroke:#000000;stroke-width:0.05mm;fill:none" d="M464.964813,53.065742C467.002991,49.257801,466.212006,43.576,463.25,40.75071C459.173004,36.8615,456.023987,35.950199,452.206787,37.555099C449.681,38.6171,449.001007,39.497799,449.003723,41.701725C449.015015,49.864899,461.803986,58.971001,464.964813,53.065742z"/>
</svg>
