<?xml version="1.0" encoding="UTF-8"?>
<svg xmlns="http://www.w3.org/2000/svg" width="400.000mm" height="269.528mm" viewBox="-1048.768555 -316.885803 400.000000 269.528412">
    <path transform="matrix(-0.411536,0,0,-0.411536,-638.059204,28.412445)" style="stroke:#000000;stroke-width:0.05mm;fill:none" d="M185.145233,837.674988C184.540405,836.946228,183.590881,834.133728,183.035172,831.424988C181.411057,823.508606,178.958084,812.780518,177.9077,809C177.372849,807.075012,176.500275,803.025024,175.968628,800C175.436981,796.974976,174.565659,792.055176,174.032349,789.067078C173.499039,786.078918,172.486084,783.060181,171.781342,782.358704C171.076599,781.657288,160.375,776.081238,148,769.967529C118.629349,755.457336,116.569641,754.120056,114.574844,748.265625C113.708679,745.723572,113,742.569275,113,741.256104C113,739.942932,112.583809,738.090881,112.075134,737.140381C110.620995,734.42334,93.994591,727.578369,80.367783,724.086731C72.027687,721.949768,30.71237,708.41864,27.75,706.853943C25.325617,705.573425,25.475008,699.373352,28.031267,695.180542C29.485228,692.795776,32.088669,690.923401,37.277531,688.53064C42.268402,686.229248,46.19939,683.452637,50,679.544312C60.006538,669.254211,67.63446,666.414185,87.362297,665.633728C95.136246,665.326172,98.643417,664.785156,99.697685,663.730896C100.99514,662.433411,100.832718,662.019043,98.335388,660.255493C96.775925,659.154175,90.099998,655.437317,83.5,651.995728C69.193314,644.535461,66.647049,642.375488,62.875195,634.5C59.767681,628.011658,59.435459,625.923401,61.035183,622.934265C62.427517,620.332642,64.67025,620.499512,69.043182,623.529907L72.693871,626.059875L79.096931,623.030701C87.388893,619.107971,91.102623,619.179993,105.121048,623.535156C117.286667,627.314758,136.856369,631.987854,143.624283,632.729431C149.406082,633.363037,153.519379,631.030762,155.021255,626.267395C157.174881,619.436829,160.392914,615.671692,167.108978,612.124573C177.011322,606.894592,176.241745,608.087036,181.700211,589.515869C182.02095,588.424622,184.903625,584.80304,188.106155,581.467957C193.021744,576.348877,194.145935,574.476807,195.321762,569.452087C198.576416,555.543823,205.975723,534.588867,209.006393,530.69696C212.447739,526.27771,213.937103,522.06189,216.461395,509.594879C219.295425,495.598114,222.311554,488.557404,229.552032,479.036804C234.935883,471.957489,267.160431,438.717072,272.638367,434.592163C282.253967,427.351563,289.927277,414.135925,298.529633,390C299.999817,385.875,302.547302,378.899994,304.190704,374.5C310.103607,358.668793,311.104126,354.423157,313.027863,337C314.986115,319.264587,318.904236,302.006042,322.606323,294.808716C323.575043,292.925415,324.134247,286.620758,324.469025,273.808716C325.027954,252.416412,324.350647,249.443069,315.131866,232.820724C306.609894,217.454727,306.329651,217.215698,293.526001,214.392715C281.554626,211.75325,278.064789,209.890411,269.266724,201.443405C266.082123,198.385834,264,195.528793,264,194.216461C264,191.041321,268.010132,188.874863,273.656433,188.999603C276.320404,189.058472,281.649994,188.676117,285.5,188.149963C289.350006,187.623795,298.646332,186.880905,306.158539,186.4991C317.274872,185.934113,320.846497,186.104172,325.347748,187.41272C332.057709,189.363358,331.596252,188.787109,344.236267,211C349.86557,220.8927,351.722565,223.869415,354.786652,227.912216C361.237579,236.423691,365.968079,247.959793,365.989166,255.231445C365.995117,257.283722,366.445831,262.008728,366.990723,265.731445C367.535645,269.454163,368.493958,278.125,369.120331,285C371.834045,314.785583,374.73877,343.190399,376.02298,352.5C376.554077,356.350006,377.441681,368.003815,377.995422,378.397339C379.026154,397.743073,380.000366,403.857513,382.440887,406.298035C383.891998,407.749115,398.705231,409.090027,419,409.60733C451.503326,410.435852,482.18692,412.601471,495.933655,415.037231C498.92218,415.566742,506.505493,416,512.785522,416C522.838806,416,526.074158,415.521149,539.851807,411.993958C560.729004,406.649261,560.707153,406.65979,563.553528,400.595062C566.790955,393.697083,574.158386,381.416626,581.926514,369.969818C598.794189,345.114288,611.303772,333.10849,633,320.953308C644.229675,314.661926,645.376648,314.075592,650.622009,311.944672C654.852051,310.226196,657.736206,307.655396,667.184326,297.181915C681.319641,281.512543,686.53894,273.404938,686.404114,267.326111C686.298279,262.551727,678.509399,245.591675,671.099121,234C668.813721,230.425003,666.169006,226.183685,665.221924,224.57486C664.274841,222.966034,662.072449,220.041031,660.327698,218.07486L657.155457,214.5L644.735962,214C633.226013,213.536621,632.026123,213.298431,628.351074,210.747635C619.027649,204.276291,614.778015,198.626816,616.283203,194.704437C616.929688,193.019684,630.656311,188.400269,639,187.059555C647.455627,185.700867,669.133362,185.871368,675.418762,187.345993C679.517151,188.30751,680.876892,189.250595,683.570862,193C686.536255,197.12709,696.452087,212.207428,704.299072,224.524185C706.05957,227.287476,708.287903,230.662476,709.250916,232.024185C710.825562,234.250778,717.257202,244.072311,731.489136,265.983215C734.162476,270.098969,736.798706,274.655823,737.347412,276.109528C738.81012,279.98465,736.546936,284.527588,731.384277,288.07962C727.520081,290.738251,726.013794,293.135895,717.437134,310.28006C712.148865,320.851044,706.276489,333.549988,704.387451,338.5C702.498413,343.450012,699.780212,350.036224,698.346985,353.136078C695.945923,358.329285,695.846191,361.55127,698.109802,360.796722C699.31842,360.39386,708.786255,351.900909,721.405457,339.899872C738.797852,323.359375,754.166077,313.842712,772.747437,308.10672C788.065247,303.378174,791.299316,299.814545,797.80127,280.5C799.46759,275.549988,802.331482,268.350006,804.165466,264.5L807.5,257.5L807.842957,238.188492C808.031616,227.567169,807.907837,217.769012,807.567993,216.414825C807.116943,214.617676,805.406494,213.27005,801.235107,211.425262C794.880432,208.614929,792.094666,206.359512,787.864441,200.59996C782.257385,192.965744,785.216125,188.513,796.5,187.603958C811.218506,186.418213,826.737122,185.053818,832.591858,184.430771C838.44281,183.808136,838.77301,183.895554,840.940247,186.641251C842.903992,189.129196,843.097717,190.14856,842.433411,194.5C841.550415,200.284073,841.586365,227.279358,842.512756,254.131027C843.110413,271.45462,843.001953,273.279205,840.967102,280.131042C838.018555,290.059265,836.938171,291.944702,829.7146,299.768768C820.439087,309.815338,817.1474,314.385284,813.849731,321.794525C812.208252,325.482544,809.78009,330.75,808.453796,333.5C806.219055,338.133789,799.202026,355.802185,794.950623,367.5C793.951172,370.25,791.741211,376.100006,790.039551,380.5C784.35083,395.209473,772.885071,431.186584,773.194397,433.356415C773.866333,438.069458,776.657654,435.124756,783.487854,422.497223C787.35614,415.345703,791.685547,407.920685,793.108704,405.997223C794.531921,404.073761,797.806396,398.575073,800.385315,393.777954C802.964233,388.980804,806.586853,383.074341,808.435486,380.652466C810.28418,378.23056,812.933533,374.212799,814.322937,371.72406C819.423279,362.588593,821.99353,359.122131,826.09491,355.847717C828.401184,354.00647,832.585815,350.441284,835.394104,347.925079C839.820984,343.958557,844.001709,340.756958,859.516113,329.452637C861.174988,328.243927,866.678467,325.172607,871.746155,322.627502C880.169739,318.396912,881.583618,317.999512,888.230042,317.994415C892.228516,317.991364,897.212158,317.513397,899.304871,316.932281C902.320007,316.095001,904.146057,316.21991,908.102966,317.53418C911.203918,318.564178,914.120117,318.919556,915.798096,318.471954C917.284119,318.075531,919.400024,317.623413,920.5,317.467224C932.196594,315.806396,932.592773,315.804382,933.915833,317.39859C934.64679,318.279358,936.479126,319,937.98761,319C939.496094,319,941.930359,319.94397,943.397095,321.097717C945.133484,322.463562,948.119873,323.381866,951.956726,323.729797C956.890381,324.177155,957.935913,324.608826,958.380432,326.38205C958.802917,328.067078,959.675842,328.5,962.651001,328.5C965.807861,328.5,966.487183,328.889587,967.010742,331C967.592346,333.344635,967.979492,333.481384,973.241638,333.200256C978.356506,332.927032,979.278748,333.220184,983.676208,336.517395C992.930969,343.456543,997.975342,352.914612,997.990234,363.355652C998.001282,371.094299,995.61792,381.623352,993.260559,384.25C991.072876,386.687683,986.679199,386.432709,983.326721,383.673492C981.772034,382.393951,977.791138,379.693939,974.480286,377.673492L968.460571,374L941.480286,374.009399C903.439636,374.022675,890.882996,376.69754,883.891052,386.277161C879.802856,391.878418,874.204529,403.11496,869.082336,416C866.786621,421.774994,862.841064,431,860.314453,436.5C845.674744,468.367889,841.373779,477.583252,836.511902,487.5C833.545776,493.549988,826.998169,507.274994,821.96167,518C798.05011,568.918762,798.302246,568.461609,789.594055,576.677917C785.245789,580.780518,778.945801,585.970764,775.594055,588.21167C772.24231,590.452576,768.599976,593.082703,767.5,594.056396C765.025757,596.246521,745.534668,608.188599,739.172302,611.412659C728.99585,616.569458,714.403625,620.306458,690,624.005371C675.652161,626.180115,635.447205,627.599426,536,629.441895C487.964996,630.331848,445.55896,634.939087,410.382538,643.089722C405.917938,644.124207,399.392914,645.397705,395.882538,645.919739C388.832581,646.96814,382.468506,648.62085,361.185089,654.93042C346.346649,659.329346,340.156738,662.520325,317.5,677.450562C313.100006,680.350037,301.399994,688.000671,291.5,694.451965C270.60849,708.065796,267.170593,710.530884,258.54599,718.081299C255.039566,721.151001,249.01416,725.321289,245.156204,727.348572C236.723114,731.780029,235.306427,733.831055,230.504364,748.560913C226.4646,760.952454,226.126663,761.575623,212.669876,781.447754C207.263306,789.431824,202.433807,797.209839,201.937653,798.732117C201.441498,800.254456,199.606705,805.774475,197.860321,810.99884C196.113937,816.223267,194.110794,823.80481,193.40889,827.846802C191.775574,837.252441,188.262299,841.430847,185.145233,837.674988z"/>
    <path transform="matrix(-0.411536,0,0,-0.411536,-638.059204,28.412445)" style="stroke:#000000;stroke-width:0.05mm;fill:none" d="M194.433731,790.75C197.449493,784.5625,202.882248,775.450012,206.5065,770.5C214.837601,759.121399,216.6418,755.649048,219.694855,745.118042C224.183289,729.635925,227.844055,724.564148,239.441589,717.760376C243.25946,715.520569,248.209457,712.030701,250.441589,710.005127C252.673706,707.979614,257.3125,704.433044,260.75,702.123901C268.232574,697.097473,269.013672,694.198364,263.75,690.989014C258.572845,687.832458,256.316956,688.403503,250.621002,694.312561C247.804443,697.234436,240.324997,703.456421,234,708.139221C227.675003,712.822021,220.900543,718.435242,218.945633,720.613037C213.196609,727.017578,208.980881,735.249146,208.406281,741.192078C207.332443,752.298523,207.006409,753.140625,201.549622,758.90155C198.633026,761.980713,195.329346,766.299988,194.208099,768.5C193.086853,770.700012,190.331345,774.278809,188.084732,776.452942C183.538452,780.852539,183.234406,782.491211,185.095993,792.561462C186.129242,798.150818,187.521713,802,188.510452,802C188.752487,802,191.417969,796.9375,194.433731,790.75z"/>
    <path transform="matrix(-0.411536,0,0,-0.411536,-638.059204,28.412445)" style="stroke:#000000;stroke-width:0.05mm;fill:none" d="M180.685547,769.825684C183.204391,767.459351,183.771378,762.876343,181.75,761.22168C181.0625,760.658875,176.871628,758.803528,172.436951,757.098633C168.002258,755.393738,161.702255,752.032776,158.436951,749.629883C154.719345,746.894165,150.497025,744.791382,147.141876,744.004822C143.337967,743.113037,140.40062,741.520264,137.015488,738.513733C131.767731,733.853027,127.596558,732.26001,125.40435,734.079407C123.501549,735.658569,123.627922,742.023804,125.6185,744.865723C126.539177,746.180176,133.329865,750.102905,141.3685,753.963867C149.140823,757.69696,160,763.269653,165.5,766.347717C171,769.42572,176.145996,771.956665,176.935547,771.972046C177.725098,771.987427,179.412598,771.021545,180.685547,769.825684z"/>
    <path transform="matrix(-0.411536,0,0,-0.411536,-638.059204,28.412445)" style="stroke:#000000;stroke-width:0.05mm;fill:none" d="M193.477997,751.75C196.806534,748.85791,197.886902,743.029785,195.531174,740.674011C194.291367,739.434204,192.078812,739,187.001144,739C180.785583,739,179.951553,738.753845,178.072586,736.365112C174.452698,731.763184,176.236374,716.755005,181.298203,709.224243C182.509186,707.422607,189.175018,701.479126,196.11116,696.016541C209.340103,685.598083,212.144089,682.006287,210.071579,678.133789C208.727142,675.621643,202.766815,674.32959,199.464203,675.834351C198.153687,676.431458,196.110703,678.850525,194.92421,681.210022C191.882462,687.258972,190.190964,688.924255,184.5,691.472412C179.013947,693.928894,178.314804,694.616455,172.024368,703.741821C168.093765,709.443909,167.655716,710.707336,166.958954,718.351746C166.539459,722.954224,165.477081,728.110535,164.598114,729.810242C162.502655,733.862427,162.567902,738.29895,164.752014,740.275574C165.715607,741.147644,169.48259,743.19751,173.123077,744.830872C176.76355,746.464233,181.667664,749.195496,184.021103,750.90033C189.126724,754.598816,190.09877,754.686157,193.477997,751.75z"/>
    <path transform="matrix(-0.411536,0,0,-0.411536,-638.059204,28.412445)" style="stroke:#000000;stroke-width:0.05mm;fill:none" d="M153.911972,727.232971C155.713074,720.371582,156.290482,711.411316,155.077576,709.144958C152.367706,704.081543,142.989349,708.612122,141.0168,715.937561C139.154709,722.852905,141.391876,729.42041,146.314713,731.490295C150.455856,733.231506,152.66188,731.9953,153.911972,727.232971z"/>
    <path transform="matrix(-0.411536,0,0,-0.411536,-638.059204,28.412445)" style="stroke:#000000;stroke-width:0.05mm;fill:none" d="M198.067093,729.964111C199.131668,729.394348,201.187851,726.581848,202.636368,723.714111C204.0849,720.846313,206.009659,717.553467,206.91362,716.396606C209.076111,713.62915,221.3629,703.049133,232,694.794983C236.675003,691.167297,242.962952,685.972412,245.973221,683.250793L251.446442,678.302368L252.057053,669.992493C252.602554,662.568665,252.957886,661.432983,255.389587,659.341309C258.602875,656.577393,263.197906,656.323303,270.408936,658.510803C278.575287,660.988159,283.088135,660.496216,288.640808,656.523193C291.313354,654.610962,296.424988,651.400818,300,649.389587C311.336639,643.011719,313.946442,641.061584,314.593079,638.485107C315.313171,635.61615,313.736877,633.230652,310.243256,631.902405C306.919464,630.638672,302.694702,632.717285,295.115814,639.345276C286.285767,647.067383,281.60437,648.505737,268.574097,647.500122C247.963669,645.909546,247.450851,646.214661,243.011871,662.7099C239.924896,674.181152,236.492065,679.218018,229.279572,682.858887C226.012817,684.507935,221.28511,688.137329,218.484177,691.146423C215.743347,694.090881,209.000656,700.236267,203.500427,704.802795C198.000183,709.369263,192.262497,714.736938,190.75,716.730896C187.115417,721.522461,187.071976,726.124878,190.634857,728.927429C193.586334,731.249084,195.23613,731.479187,198.067093,729.964111z"/>
    <path transform="matrix(-0.411536,0,0,-0.411536,-638.059204,28.412445)" style="stroke:#000000;stroke-width:0.05mm;fill:none" d="M127.409225,726.75C130.701889,721.659424,130.624924,714.885254,127.258629,713.49353C126.291382,713.093628,121.675003,712.397583,117,711.946838C109.380348,711.212158,107.257149,710.498047,96.5,705.052429C89.900002,701.711304,83.473045,698.982666,82.21788,698.988831C76.854027,699.015137,70,703.900146,70,707.696838C70,709.51709,74.584961,711.534424,81.907829,712.936157C90.598274,714.59967,111.343834,722.332642,116.943756,725.995911C122.398354,729.564148,125.446922,729.783813,127.409225,726.75z"/>
    <path transform="matrix(-0.411536,0,0,-0.411536,-638.059204,28.412445)" style="stroke:#000000;stroke-width:0.05mm;fill:none" d="M60.932125,705.036316C62.003063,704.463196,63.002441,702.386169,63.398228,699.911072C64.880974,690.638489,68.329689,688.589111,82.538803,688.536865L92.577599,688.5L99.290031,692.868286C107.214233,698.025085,112.034866,699.899231,117.5,699.947693C119.699997,699.967224,124.499031,700.75177,128.164505,701.69104C133.564148,703.074768,135.328949,703.171143,137.463074,702.198792C141.025543,700.575623,143.09024,695.557312,141.762573,691.748779C140.378952,687.779724,136.764511,686.527466,130.673706,687.906921C124.583145,689.286316,114.988533,689.31543,111.315102,687.965576C109.766792,687.396606,106.359383,684.64563,103.743073,681.852295L98.986137,676.773438L85.243073,677.186523C69.420845,677.66217,67.657944,678.283142,59,686.431091C55.974998,689.277954,50.912498,693.078552,47.75,694.876953C44.587502,696.675354,42,698.553406,42,699.050354C42,700.576233,46.254505,702.846741,52.013302,704.394104C58.793938,706.216064,58.735622,706.211853,60.932125,705.036316z"/>
    <path transform="matrix(-0.411536,0,0,-0.411536,-638.059204,28.412445)" style="stroke:#000000;stroke-width:0.05mm;fill:none" d="M163.424423,697.298096C167.951462,692.415894,167.769196,689.769958,162.341873,681.58374C159.678848,677.567017,156.722702,672.848755,155.772659,671.098755C153.228745,666.41272,148.123672,664.610962,139.624374,665.399414C134.31485,665.892029,130.750031,665.547119,123.973808,663.885315C113.695557,661.364563,110.744965,661.787292,108.986603,666.032349C107.352127,669.978333,108.773674,673.314453,113.026649,675.513794C115.638771,676.864563,118.181458,677.013489,128.820007,676.438843C147.430496,675.433655,151.273529,677.549194,152.582199,689.519836C152.941772,692.80896,153.868256,696.512512,154.641037,697.75C156.556351,700.817078,160.342026,700.622314,163.424423,697.298096z"/>
    <path transform="matrix(-0.411536,0,0,-0.411536,-638.059204,28.412445)" style="stroke:#000000;stroke-width:0.05mm;fill:none" d="M295,678.677734C302.975006,673.696228,314.899994,666.056519,321.5,661.700623C336.509766,651.794434,340.301971,649.875549,351.507141,646.516907C356.453217,645.034363,364.411041,642.500366,369.191162,640.885803C376.95285,638.26416,386.590485,636.213745,432,627.523254C447.763733,624.506348,488.182892,619.983398,499.282104,619.994324C502.46228,619.997437,506.624786,619.347961,508.532104,618.551025C511.844421,617.167053,512,616.874023,512,612.018921C512,606.393311,513.649902,601.667603,517.33075,596.750366C521.172363,591.618408,523.132874,587.152161,525.557739,578.008179C526.798645,573.328674,528.401367,567.577942,529.119263,565.22876C530.389954,561.070557,530.315063,560.739685,526.289063,552.72876C520.864502,541.935059,519.652649,536.757629,520.203064,526.728027C520.74469,516.860046,523.24884,511.245392,528.577148,507.952332C532.973389,505.235291,551.516052,502.279663,557.271362,503.378571C562.119324,504.304199,567.048828,508.672546,571.483521,515.972839C578.620422,527.721497,586.441711,532.134888,596.317871,529.986206C606.058838,527.866882,613.392273,524.672363,614.651306,522C615.299072,520.625,616.60437,513.268799,617.551941,505.652893C619.677002,488.573242,618.917847,483.927704,612.460327,474.495575C603.633057,461.60202,597.131897,445.491852,592.943054,426.131012C589.936157,412.233185,587.51355,406.719543,582.190918,401.66037C579.612122,399.209198,578.904358,398.980804,577.01709,399.990875C575.005127,401.067627,572,406.470337,572,409.010712C572,409.601959,574.001587,412.225555,576.447998,414.840942C582.157776,420.94516,583,423.334381,583,433.427582C583,441.201508,583.195435,441.970245,586.097412,445.612488C590.765991,451.471985,592,454.423004,592,459.727844C592,464.858032,592.908508,466.657959,599.096008,473.786652C604.479919,479.989563,608.241089,489.936218,608.270447,498.049194C608.317932,511.175049,602.995789,520,595.032471,520C588.834167,520,582.867615,515.071838,575.156311,503.583038C571.495361,498.128723,567.751709,493.20575,566.837097,492.643097C565.133179,491.594879,555.015564,492.591614,537,495.582489C532.325012,496.358612,526.837585,496.995056,524.805786,496.996796C518.828918,497.001984,516.586548,499.910187,512.852173,512.5C508.101257,528.516724,508.21637,537.175903,513.349548,549.911255C519.221619,564.479919,518.726013,569.075378,508.879303,591.364807C503.011566,604.647217,501.810883,606.529297,497.92215,608.540283C494.238525,610.445129,454.575958,614.022278,445.705475,613.249695C440.727417,612.816101,438.966187,613.177673,433.205475,615.816101C427.616272,618.375977,424.50235,619.048889,414.5,619.858276C406.455444,620.509277,399.935242,621.681519,394.719116,623.414673C389.484222,625.154053,384.766083,626,380.299957,626C374.801331,626,372.766907,626.505005,368.449371,628.94165C363.147369,631.93396,344.305176,638.588623,332.828888,641.522095C327.569305,642.866516,325.57074,644.043274,321,648.487061C317.975006,651.42804,312.41861,655.511963,308.652435,657.5625C304.886292,659.613037,298.382599,663.746155,294.199799,666.747192C282.985962,674.792786,281.294769,675.117493,272.789825,670.858093C268.255463,668.587219,265.637054,668.505798,263.571442,670.571411C260.851898,673.290955,261.655609,676.64447,265.75,679.661316C267.8125,681.180969,270.943878,683.940125,272.708618,685.792725C275.243347,688.453613,276.398499,689.011292,278.208618,688.447998C279.468872,688.055786,287.024994,683.65918,295,678.677734z"/>
    <path transform="matrix(-0.411536,0,0,-0.411536,-638.059204,28.412445)" style="stroke:#000000;stroke-width:0.05mm;fill:none" d="M182.242203,680.024109C188.328812,675.236389,186.492645,671.764648,166.5,650.259277C158.590164,641.750977,158.148285,641.554688,150.380554,643.098694C144.357071,644.295959,142.928696,644.171692,127.230492,641.084961C117.903038,639.250854,106.583824,636.291809,101.649651,634.397583C91.81842,630.623474,87.449028,630.218567,82.401131,632.613953C77.396278,634.988892,77.968544,637.370483,84.25,640.30835C108.507118,651.653503,107.584206,651.324219,113.255936,650.657654C117.142204,650.200867,120.507393,650.572266,125.55024,652.014343C130.34967,653.386902,135.515121,654,142.278931,654C148.278046,654,153.326553,654.527405,155.326645,655.363098C159.856384,657.255737,166.385742,665.000916,170.090881,672.876465C171.804733,676.519409,173.665512,680.0625,174.225937,680.75C175.733566,682.599487,179.388947,682.268494,182.242203,680.024109z"/>
    <path transform="matrix(-0.411536,0,0,-0.411536,-638.059204,28.412445)" style="stroke:#000000;stroke-width:0.05mm;fill:none" d="M227.687546,669.125305C228.890701,667.345642,231.274582,661.526917,232.985077,656.194763C239.422104,636.128662,241.547089,634.920532,268.5,636.003662C279.930573,636.463013,281.523407,635.90387,291.286407,628.004211C298.723663,621.98645,304.751221,619,309.459534,619C313.262177,619,315.287109,620.555725,321.793793,628.476074C323.873779,631.007996,324.527008,631.216187,328.802673,630.709778C334.871399,629.991028,354.037567,623.607605,360.5,620.15271L365.5,617.479736L365.596588,610.489868C365.736786,600.34436,365.728302,600.379028,368.973083,596.683411C374.008484,590.948425,382.521484,587.860413,395.925659,586.906555C402.291534,586.453613,409.92392,585.614319,412.886475,585.041504C428.003265,582.118652,434.884583,584.526062,438.501038,594.002747C441.541168,601.969177,442.371307,602.237122,462,601.588562C483.26651,600.885925,489.514252,599.839539,493.130585,596.374878C494.708038,594.863586,497.962799,588.871582,500.612885,582.600037C506.638275,568.340637,506.871185,563.188477,502.018951,551.5C496.326233,537.786926,496.887878,525.080688,504.167816,502.883698L507.321686,493.267426L503.752411,486.883698C499.281281,478.886993,497,470.228333,497,461.254883C497,457.428833,496.520782,452.923798,495.935089,451.243652C494.011688,445.726166,485.918488,444.45401,484.047516,449.375061C482.731079,452.837524,485.593658,467.912567,490.120941,481.359253C494.778992,495.194305,494.784393,495.764191,490.429321,514C488.434174,522.354248,487.664917,528.235474,487.617096,535.5C487.556824,544.662598,487.831177,546.166687,490.893616,553.461182C493.889008,560.596008,494.188568,562.159912,493.779877,568.52832C493.175049,577.95282,489.432892,585.075989,483.153107,588.756165C479.302551,591.012756,477.267212,591.421875,467.989899,591.804077C452.12738,592.457642,449.163208,591.111023,439.326233,578.782227L433.734772,571.774353L428.617371,572.335388C425.802826,572.643982,421.475006,573.350159,419,573.904724C416.524994,574.459229,409.082031,574.932495,402.460114,574.956421C387.226776,575.011536,381.427795,576.512268,368.783356,583.671631C356.944,590.375122,355.549927,592.092041,356.47641,598.828491C357.299438,604.812683,355.444397,609.848755,351.363129,612.709839C346.905212,615.835022,337.383789,619,332.440155,619C328.600067,619,327.333374,618.426697,323.62912,615.012268C318.115082,609.929626,313.446777,608,306.664215,608C301.595978,608,300.789063,608.367188,293.531464,613.975708C289.278473,617.262329,283.256531,621.199341,280.149384,622.72467C274.745331,625.377502,273.694427,625.519714,255.950073,625.998962C240.77063,626.408936,236.930328,626.808533,234.814377,628.198181C231.723862,630.227783,228,637.496887,228,641.5C228,645.641235,224.500198,652.254089,220.899612,654.916077C214.442688,659.68988,212.385391,670.055237,217.222366,673.443176C220.041931,675.418091,224.745148,673.477539,227.687546,669.125305z"/>
    <path transform="matrix(-0.411536,0,0,-0.411536,-638.059204,28.412445)" style="stroke:#000000;stroke-width:0.05mm;fill:none" d="M203,664C204.108078,662.891907,205,660.666687,205,659.010193C205,656.50769,204.132721,655.44458,199.678818,652.487366C193.483063,648.373596,181.253723,633.722534,178.195709,626.75C176.651978,623.230164,175.562912,622,173.990494,622C170.790588,622,168.190414,623.731079,166.510345,626.97998C163.765854,632.287231,164.489395,634.603027,170.065323,638.358032C175.008896,641.687256,181.278488,648.631409,189.830658,660.25C193.570862,665.331299,194.466461,666,197.53154,666C199.666672,666,201.768829,665.23114,203,664z"/>
    <path transform="matrix(-0.411536,0,0,-0.411536,-638.059204,28.412445)" style="stroke:#000000;stroke-width:0.05mm;fill:none" d="M213.985657,646.00769C215.005447,645.461914,216.3535,643.458923,216.981308,641.556641C218.509277,636.92688,217.178848,634.631531,211.214096,631.60675C205.507141,628.712708,204.231125,627.303894,199.97525,619.198608C196.690765,612.943298,192.072144,608,189.512161,608C187.718445,608,183,613.716492,183,615.889648C183,616.844543,184.399979,618.94751,186.111053,620.562927C187.822128,622.178284,191.820847,626.875,194.99707,631C206.585739,646.050354,209.54126,648.38623,213.985657,646.00769z"/>
    <path transform="matrix(-0.411536,0,0,-0.411536,-638.059204,28.412445)" style="stroke:#000000;stroke-width:0.05mm;fill:none" d="M226,623C227.100006,621.900024,228,620.141296,228,619.091736C228,618.042236,224.962494,613.650818,221.25,609.333069C217.537506,605.01532,212.111191,598.245972,209.191544,594.2901C206.271896,590.33429,202.955322,586.803223,201.821365,586.443298C199.130478,585.589233,195.101852,588.561279,192.5,593.319946C189.851974,598.163086,191.135315,600.148438,197.88327,601.647888C204.480606,603.113892,205.467545,603.992615,209.491394,611.98291C215.269577,623.456848,221.431183,627.568787,226,623z"/>
    <path transform="matrix(-0.411536,0,0,-0.411536,-638.059204,28.412445)" style="stroke:#000000;stroke-width:0.05mm;fill:none" d="M535.456421,617.655518C536.957703,616.557739,537.194763,615.420105,536.747986,611.456482C536.076111,605.495789,537.124817,602.528259,541.503357,598C545.313416,594.059692,551.491089,577.547485,550.354675,574.341431C548.345703,568.673767,541.225708,565.841248,539.077515,569.855164C538.531433,570.875488,537.599548,574.812988,537.006653,578.605164C535.9328,585.473328,532.441833,593.651306,525.52594,605.5C521.895081,611.720642,521.135803,615.735779,523.200012,617.799988C524.822571,619.422607,533.1745,619.324097,535.456421,617.655518z"/>
    <path transform="matrix(-0.411536,0,0,-0.411536,-638.059204,28.412445)" style="stroke:#000000;stroke-width:0.05mm;fill:none" d="M599,617.039246C686.584045,615.161499,714.841003,611.650024,736.826904,599.911743C756.01062,589.669495,783.072571,569.520752,788.41803,561.5C791.925598,556.237,799.745789,540.937256,801.963013,535C803.628174,530.541138,816.955811,501.979004,826.460449,482.5C838.623901,457.572083,842.21759,449.368317,841.837769,447.396088C841.601013,446.166748,839.64978,444.858826,836.205078,443.620575C831.707458,442.003784,828.976196,439.693207,817.578369,427.862976C810.232422,420.238342,803.529785,414,802.683594,414C799.70105,414,794.175476,423.408905,795.354126,426.480499C795.674194,427.314545,798.537964,429.143921,801.718018,430.545807C804.898132,431.947693,809.525024,435.012177,812,437.355804C814.474976,439.699432,818.625671,443.298553,821.223694,445.353851C829.697632,452.057617,829.612061,458.713867,820.918213,469.097656C818.396179,472.109985,816.127136,476.277405,815.022339,479.926178C814.034607,483.188568,811.833069,487.802277,810.130066,490.178894C808.303528,492.727905,806.60968,496.746002,805.999756,499.976654C805.037354,505.074341,803.143921,508.620239,797.91687,515.11377C796.759705,516.551392,795.17804,520.756104,794.402161,524.457642C792.847778,531.872742,784.883423,548.290527,779.941528,554.266785C774.807739,560.475098,757.88855,574.114929,752,576.792542C748.974976,578.16803,743.752319,581.902588,740.394043,585.091553C737.035767,588.280457,733.210754,591.118652,731.894043,591.398682C730.577332,591.67865,727.194824,592.36145,724.37738,592.916016C721.559937,593.47052,716.950745,595.356506,714.134766,597.106995C709.257019,600.13916,708.662048,600.263123,701.56189,599.726135C695.338623,599.255493,692.984741,599.553467,687.293945,601.532532C681.024719,603.712769,679.93988,603.810303,673.749939,602.75C667.961853,601.758545,666.355347,601.835938,662.260498,603.30365C656.916199,605.219116,651.146973,605.476135,646.084412,604.024231C643.657898,603.328308,640.791443,603.450439,636.091003,604.450012C625.228638,606.759949,605.944519,607.259583,598.624023,605.420776C592.945557,603.994385,591.621033,603.994812,584.077881,605.42572C573.533875,607.425903,564.279602,607.432617,559.519043,605.443542C554.150024,603.200195,550.971313,603.894531,548.282288,607.897888C545.553101,611.96106,545.314026,616.483215,547.75,617.965515C548.718933,618.555176,551.508423,618.779846,554,618.468994C556.474976,618.160156,576.724976,617.516785,599,617.039246z"/>
    <path transform="matrix(-0.411536,0,0,-0.411536,-638.059204,28.412445)" style="stroke:#000000;stroke-width:0.05mm;fill:none" d="M276,612.065613C283.604156,608.10614,293.109589,600.84198,294.101929,598.231934C294.620239,596.868652,294.766388,594.271667,294.426697,592.460938C294.068085,590.549438,294.47821,586.866821,295.404541,583.68042C297.494324,576.49176,297.449799,575.78125,294.437439,568.251526C291.366089,560.574341,291.744843,557.691528,296.586304,551.896667C298.471222,549.640625,300.264038,546.796143,300.570343,545.575745C300.884338,544.324646,299.539459,538.445129,297.487091,532.096497C292.936523,518.020264,289.920563,514.349487,278.537292,509.032715C274.116791,506.968048,268.512634,503.416016,266.083618,501.139374C260.78894,496.176788,258.081116,495.926483,254.588898,500.076721C250.131943,505.373505,251.650345,510.134552,258.239716,511.524078C260.032867,511.902222,263.974457,513.626526,266.99881,515.355835C270.023163,517.085083,274.737518,519.635864,277.47522,521.024109C282.945404,523.797974,286.427032,528.158447,288.083557,534.310242C289.448547,539.379456,288.608826,543.850952,284.919373,551.159729C281.440308,558.051697,281.2883,561.846436,284.118164,571.163086C289.841766,590.006836,280.682648,603.21106,260.866119,604.684265C248.317795,605.617188,241.758835,602.450439,234.790878,592.09491C233.090393,589.567688,229.585373,585.025024,227.001923,582C217.222595,570.549255,216.892197,566.407837,224.442245,549.914612C227.064362,544.186584,230.665604,535.450012,232.445007,530.5C234.224411,525.549988,236.677643,519.555603,237.896652,517.179077C239.153015,514.729736,240.474319,509.636505,240.947128,505.420471C241.936844,496.595215,243.231476,494.369568,250.497833,489.001617C253.825836,486.54306,256.822266,483.284363,258.109711,480.72348C260.945038,475.083771,262.553986,473.367279,268.702026,469.423309C271.594055,467.568085,274.643402,464.623901,275.569,462.793121C278.157104,457.674103,281.057556,454.981262,286.678467,452.47879C290.469574,450.790985,292.590607,449.011505,294.59552,445.83667C296.101746,443.451508,299.296783,438.485901,301.695618,434.802002C304.094421,431.118103,307.69873,424.143097,309.7052,419.302002C311.711639,414.460907,315.073792,408.208435,317.176636,405.407623C319.27948,402.606812,321,399.359985,321,398.192413C321,395.43811,315.340637,389,312.919464,389C310.492554,389,308.611023,392.071045,306.516235,399.451416C304.080719,408.032257,296.788269,423.141327,291.516663,430.52887C289.016449,434.032562,283.729492,439.734406,279.767792,443.199615C261.844452,458.876862,236.403839,486.50119,232.522766,494.5C231.188431,497.25,228.929916,504.899994,227.50383,511.5C225.459152,520.96283,223.661957,526.03717,219.003632,535.5C212.866852,547.966187,205.638214,570.090027,206.188263,574.722595C206.400696,576.51178,207.933456,578.352783,211,580.502075C213.475006,582.236816,216.974655,585.645996,218.776993,588.078064C220.579346,590.510132,224.315369,595.222656,227.079285,598.550293C229.843185,601.877991,233.209961,606.454285,234.561005,608.71991C235.912048,610.985474,238.251007,613.314148,239.758713,613.894714C241.361038,614.51178,248.524536,614.83783,257,614.679565C269.954987,614.437622,271.979492,614.159058,276,612.065613z"/>
    <path transform="matrix(-0.411536,0,0,-0.411536,-638.059204,28.412445)" style="stroke:#000000;stroke-width:0.05mm;fill:none" d="M388.774994,612.921936C399.303864,609.10022,400.441284,608.882324,413.689026,608.149719C424.481049,607.552856,427.252625,607.08136,428.939026,605.555176C431.812347,602.954834,431.513336,600.609741,427.923279,597.588867C424.615143,594.805298,421.520813,594.400757,415.993408,596.029236C414.072021,596.595276,406.064453,597.716797,398.198822,598.521423C382.846771,600.091919,381.269501,600.570679,378.077545,604.62854C375.605103,607.771729,375.404388,611.261536,377.571442,613.428589C379.656189,615.513367,381.91745,615.411072,388.774994,612.921936z"/>
    <path transform="matrix(-0.411536,0,0,-0.411536,-638.059204,28.412445)" style="stroke:#000000;stroke-width:0.05mm;fill:none" d="M341.794647,605.328735C346.242126,602.550659,347.39978,595.093872,343.777496,592.556702C341.247009,590.784302,334.807556,590.497437,331.944611,592.029663C329.559631,593.30603,327,598.102539,327,601.295349C327,607.122864,335.299927,609.38562,341.794647,605.328735z"/>
    <path transform="matrix(-0.411536,0,0,-0.411536,-638.059204,28.412445)" style="stroke:#000000;stroke-width:0.05mm;fill:none" d="M318.411102,594.923279C321.346497,591.434753,321.686096,588.424561,319.496887,585.299011C317.740601,582.791565,311.850983,580.595154,309.16745,581.446838C305.189056,582.709534,303.488983,592.672852,306.654999,596.171265C307.69873,597.324585,309.697205,598,312.066101,598C315.032745,598,316.366364,597.353333,318.411102,594.923279z"/>
    <path transform="matrix(-0.411536,0,0,-0.411536,-638.059204,28.412445)" style="stroke:#000000;stroke-width:0.05mm;fill:none" d="M584.56366,593.537842C588.531067,591.880127,590,589.380859,590,584.288269C590,576.794617,595.151733,573,605.325317,573C614.280762,573,617.891479,572.095276,619.650635,569.4104C621.517822,566.56073,620.674927,563.488342,617.445313,561.372192C615.235596,559.924377,613.985962,559.982178,601.911377,562.091248C586.538391,564.776428,584.53833,565.924255,583.531311,572.639648C582.473999,579.690613,581.40271,581.740356,577.801941,583.602417C574.952026,585.076172,573.757629,585.143555,568.764404,584.112244C562.123779,582.740601,559.477051,583.615051,557.926636,587.692871C556.592957,591.200806,557.569641,593.6604,560.795776,594.918152C564.278076,596.275757,580.227722,595.349548,584.56366,593.537842z"/>
    <path transform="matrix(-0.411536,0,0,-0.411536,-638.059204,28.412445)" style="stroke:#000000;stroke-width:0.05mm;fill:none" d="M624.287354,594.16156C635.118347,593.497314,636.94281,592.782166,636.98468,589.184265C637.008545,587.131775,634.976379,583.670471,632.632935,581.772217C629.821533,579.494934,626.191711,579.55835,620.859192,581.978027C618.054443,583.250732,614.300537,583.963928,610.331787,583.978027C602.675049,584.00531,601.29834,584.5224,599.470093,588.057861C596.659424,593.493042,600.198547,596.372864,608.5,595.405701C611.25,595.085266,618.354309,594.525391,624.287354,594.16156z"/>
    <path transform="matrix(-0.411536,0,0,-0.411536,-638.059204,28.412445)" style="stroke:#000000;stroke-width:0.05mm;fill:none" d="M267.683685,592.056641C272.166229,590.021484,275,585.920105,275,581.467651C275,580.020203,273.80426,575.385376,272.342804,571.167969C268.679657,560.597168,268.849518,556.749451,273.333344,548.731628C277.791077,540.760498,278.141785,536.050842,274.545441,532.454529C270.092407,528.001526,267.469391,529.467834,265.355072,537.592224C264.50946,540.841492,262.28363,546.825867,260.408783,550.890808C255.658936,561.189331,255.765152,565.486389,260.900391,570.777954C265.999329,576.032043,266.750336,578.515198,264.255188,581.870178C259.981384,587.616699,255.304321,585.495117,249.054291,574.974731C243.041138,564.853088,242.927979,562.490723,247.898849,550.856079C250.15448,545.576599,252,540.835205,252,540.319702C252,539.804138,253.574997,536.766785,255.5,533.570007C257.424988,530.37323,259,527.053711,259,526.193298C259,523.575562,254.871414,520,251.84874,520C248.271118,520,246.836151,522.206421,243.471878,532.880615C242.019104,537.489929,239.240509,544.689941,237.297211,548.880615C232.255554,559.752808,230.959061,564.370422,231.964157,567.875C232.696808,570.429626,236.623581,576.233826,245.155167,587.372803C250.2659,594.045471,259.208221,595.904602,267.683685,592.056641z"/>
    <path transform="matrix(-0.411536,0,0,-0.411536,-638.059204,28.412445)" style="stroke:#000000;stroke-width:0.05mm;fill:none" d="M659.08252,591.91748C660.873291,590.126709,661.069458,589.111267,660.482788,584.66748C659.556091,577.647644,658.104065,574.896912,654.069031,572.517273C652.187744,571.407776,648.702576,568.646729,646.324219,566.381592C642.47821,562.718628,642,561.766357,642,557.771118C642,554.536926,642.749146,552.189941,644.675415,549.389526C648.316467,544.09613,648.108521,540.602356,643.728027,533.474731C638.038635,524.217529,637.421143,519.870667,639.358032,502.711975C641.983154,479.456055,641.821838,478.553009,632.55426,464.624695C626.201843,455.077637,618.929504,438.331757,616.411682,427.45343C610.702393,402.786499,610.607605,402.563324,599.432251,387.451935C593.486389,379.411926,591.707703,378.072998,589.114075,379.684692C586.553162,381.276031,583,387.073364,583,389.660492C583,391.555756,584.056641,392.492493,588.322327,394.378998C591.249634,395.673584,594.606262,397.955261,595.781555,399.449402C598.835449,403.331787,601.847595,411.959167,604.178284,423.499329C607.460144,439.748993,614.230225,456.532318,622.309204,468.446625C629.237,478.663239,630.327148,482.748169,629.576233,495.67749C629.219238,501.825104,628.295776,510.755005,627.52417,515.521729C626.011169,524.868225,626.41864,527.30365,630.030396,530.5C631.273376,531.599976,633.155884,534.434692,634.213806,536.799316C636.509644,541.931091,636.052795,544.993469,631.753357,553.293213C626.834534,562.788574,628.786987,568.143616,638.784363,572.576965C644.777832,575.234802,647,578.903137,647,586.13916C647,588.647095,647.667542,591.080139,648.654968,592.171265C650.930725,594.685974,656.448303,594.551697,659.08252,591.91748z"/>
    <path transform="matrix(-0.411536,0,0,-0.411536,-638.059204,28.412445)" style="stroke:#000000;stroke-width:0.05mm;fill:none" d="M683.315735,590.850281C686.281189,589.289429,686.966736,588.059937,686.98468,584.270264C687.009216,579.094543,684.221375,573.334351,681.057739,572.023926C678.824463,571.098877,677.526367,571.171021,674.6297,572.381348L671,573.897949L671,580.948975C671,586.666687,671.378174,588.378174,673,590C675.230408,592.230408,679.953979,592.619751,683.315735,590.850281z"/>
    <path transform="matrix(-0.411536,0,0,-0.411536,-638.059204,28.412445)" style="stroke:#000000;stroke-width:0.05mm;fill:none" d="M709.171265,587.345032C711.657043,585.095398,711.468872,581.858826,708.513184,576.026062C707.145508,573.326965,705.078308,567.604431,703.919434,563.309326C700.763062,551.610474,700.794739,551.62915,682.723145,550.809875C674.350403,550.430359,665.198975,549.816528,662.386597,549.445801C657.766174,548.836792,657.115479,548.997009,655.636597,551.108398C653.218994,554.560059,653.635742,557.789612,656.923096,561.076904C660.510132,564.66394,664.716187,564.897766,671.519531,561.888306C677.395813,559.289001,685.694702,559.634949,689.729675,562.647522C695.004517,566.585754,696.346863,569.485474,696.949707,578.243958C697.262207,582.78479,697.87793,587.0625,698.317993,587.75C699.492371,589.584839,707.006042,589.304504,709.171265,587.345032z"/>
    <path transform="matrix(-0.411536,0,0,-0.411536,-638.059204,28.412445)" style="stroke:#000000;stroke-width:0.05mm;fill:none" d="M359.5,576.020081C378.344513,564.711792,378.39566,564.695679,398,563.906555C414.320129,563.249634,423.978546,562.147766,428.313293,560.448364C429.310577,560.057373,431.502167,556.825989,433.183472,553.267456C436.289673,546.693237,439.700653,544,444.920837,544C448.25766,544,451.716217,541.917175,452.991455,539.139709C453.658051,537.687866,454.798676,530.650024,455.526184,523.5C456.253693,516.349976,457.338745,507.480042,457.937408,503.788971C459.116608,496.51886,458.602386,492.821106,454.97699,482.5C451.655884,473.045197,450,462.691376,450,451.379913C450,440.113708,451.370453,434.942474,454.849609,433.080505C458.033173,431.376678,465.161285,431.812714,471.593445,434.104675C475.734741,435.580353,479.442627,436.139709,484,435.976349C496.133728,435.541382,497.837341,435.747986,501.06427,438.045776C505.505951,441.208527,506.937988,445.432739,507.929596,458.296906C509.116364,473.693024,513.241089,485.045258,518.111023,486.318787C519.259705,486.619171,522.742065,486.473724,525.849731,485.995575C528.957397,485.517456,538.223206,484.132629,546.440369,482.918182C562.523865,480.541168,563.523499,480.073242,567.194092,473.203369C568.346924,471.045715,570.743103,469.148895,574.694092,467.266357C580.007019,464.734894,580.52533,464.198303,580.798645,460.946686C581.143799,456.840118,577.992676,452,574.97406,452C573.937744,452,569.143494,455.971588,564.296631,460.845184C553.709961,471.490326,548.595642,473.867462,534.437866,474.72348C524.208618,475.34201,521.872925,474.588776,519.441772,469.88739C518.175598,467.438873,517.998962,465.093719,518.550171,458.04776C519.199829,449.743408,519.093872,449.016296,516.618774,444.792847C514.719238,441.551514,514,438.92215,514,435.218842C514,429.113403,511.82489,427.00235,505.527496,426.99585C503.312378,426.993561,492.725006,425.870422,482,424.5C461.636414,421.89798,448.821899,421.356812,444.697937,422.924744C442.493134,423.763,442.190338,424.627991,441.460022,432.174744C441.016937,436.753632,440.624725,448.600006,440.58847,458.5L440.522522,476.5L443.713226,484C448.020844,494.125366,448.36499,496.014099,446.831848,501.115723C446.070099,503.650482,445.511261,510.420349,445.507141,517.163757C445.500366,528.2099,445.367615,528.971252,443,531.541321C441.625,533.033875,437.673859,535.534973,434.219696,537.099304C429.731232,539.13208,427.44873,540.852661,426.219696,543.129822C421.044678,552.71814,417.350464,554.153442,401.5,552.73407C384.743073,551.233459,374.608368,553.791138,361.291199,562.881348C346.408264,573.040344,336.161499,572.212524,318.825562,559.4505C311.064911,553.737427,307.529388,553.48877,305.432037,558.508423C302.793762,564.822693,305.676544,569.671082,312.625977,570.607544C319.87381,571.584167,320.889954,572.01001,325.506165,576.00531C329.434418,579.405212,330.819824,580.008606,334.810822,580.057617C337.389862,580.089355,341.299988,580.482483,343.5,580.931274C348.850159,582.022705,350.174377,581.616272,359.5,576.020081z"/>
    <path transform="matrix(-0.411536,0,0,-0.411536,-638.059204,28.412445)" style="stroke:#000000;stroke-width:0.05mm;fill:none" d="M475.665649,579.827087C479.769836,577.853455,483.004272,572.444702,482.976257,567.602112C482.963196,565.345947,481.789154,560.799988,480.367249,557.5C475.123657,545.330627,474.709564,542.303711,476.502289,529.248108C477.389526,522.786621,478.989471,513.471069,480.057739,508.546814C481.125977,503.622559,482,498.141174,482,496.365967C482,494.590729,480.110748,487.594666,477.801666,480.819153C473.98584,469.622345,473.591339,467.536957,473.471436,457.929199C473.398895,452.115265,472.994446,446.800018,472.572632,446.117523C471.421356,444.25473,466.884399,442.812195,464.253662,443.472473C462.97525,443.793335,461.499756,445.185516,460.974823,446.566223C459.545074,450.326752,462.548126,468.634979,466.584351,480.764954C470.197693,491.623993,470.952606,500.263062,469.007904,508.5C468.488495,510.700012,467.582916,517.224976,466.995483,523C466.408051,528.775024,465.216644,536.552368,464.3479,540.282959L462.768402,547.065979L467.384186,555.01001C472.577484,563.947937,473.307892,568.692078,470,572C465.364838,576.635132,460.023926,573.001648,458.068237,563.882629C456.749237,557.732361,455.539612,555.359131,453.042542,554.022766C449.080719,551.902466,442,557.093079,442,562.117676C442,564.040894,443.833099,566.967163,448.146088,571.929138C451.526459,575.818115,454.338959,579.006775,454.396088,579.015076C454.453247,579.023315,456.299988,579.705444,458.5,580.530823C463.044769,582.235962,471.365814,581.894836,475.665649,579.827087z"/>
    <path transform="matrix(-0.411536,0,0,-0.411536,-638.059204,28.412445)" style="stroke:#000000;stroke-width:0.05mm;fill:none" d="M728.451599,580.584656C731.818726,579.177795,734,576.460938,734,573.673889C734,572.872192,731.949646,569.935852,729.443665,567.148621C720.336975,557.019775,722.238586,551.808472,738.588196,542.088257C748.632568,536.116638,754.895386,530.888306,761.15979,523.245178C764.263489,519.458374,767.594604,519.042053,770.811462,522.03894C773.918579,524.933716,773.704773,529.575745,770.337646,532.325684C768.873291,533.521545,764.465942,537.523743,760.543518,541.21936C755.844299,545.646851,751.132507,548.972168,746.729431,550.968628C743.054077,552.635132,739.318176,555.110962,738.427368,556.470459C736.922485,558.767273,736.938538,559.210083,738.65387,562.721191C740.207397,565.901062,741.061035,566.54718,744.039734,566.797852C747.049316,567.051025,748.408936,566.369873,753.117249,562.249695C756.162964,559.584473,761.366943,555.273132,764.68158,552.669006C771.972656,546.940796,775.550171,542.079834,780.353882,531.374146C784.80426,521.455872,785.094727,516.763428,781.407898,514.347656C776.078979,510.856049,762.601196,511.689697,754,516.042969C752.075012,517.017212,747.62616,520.443665,744.113647,523.657166C740.601135,526.870728,732.501099,533.133789,726.113647,537.575012C719.726135,542.016296,713.844727,546.814453,713.043884,548.23761C711.704224,550.618164,711.877075,551.691956,715.204407,561.662537C717.193542,567.623169,719.121887,573.961914,719.489685,575.748779C719.857483,577.535583,721.122864,579.673096,722.301697,580.498779C724.888428,582.310608,724.339233,582.302917,728.451599,580.584656z"/>
    <path transform="matrix(-0.411536,0,0,-0.411536,-638.059204,28.412445)" style="stroke:#000000;stroke-width:0.05mm;fill:none" d="M572.75,570.445313C577.536438,565.006165,576.059692,562.895874,561.024414,553.68927C554.419495,549.644836,551.164063,546.782959,546.274414,540.722351C539.609375,532.461182,538.663391,529.353271,541.556702,525.222534C543.161682,522.931091,547.293213,522.265869,549.85144,523.887024C550.594727,524.358032,552.872925,527.828918,554.914063,531.600159C558.018127,537.335083,559.678528,539.1474,565.062683,542.67749C568.60321,544.99884,573.728516,548.496033,576.452332,550.449036C582.220581,554.585083,584.346313,554.762878,594.262634,551.939026C599.221924,550.526794,604.332947,549.888489,610.5,549.911133C615.450012,549.929382,619.995117,549.619324,620.600281,549.222107C624.380615,546.741089,624.590576,539.74939,620.982788,536.484375C618.66626,534.388,615.853333,534.796265,607.086548,538.50116C602.777039,540.322388,598.145752,541.384766,592.96875,541.739624C586.214417,542.202576,584.600769,541.961731,579.882202,539.786621C573.189819,536.70166,567.555969,531.2724,562.971497,523.489929C558.347656,515.640625,554.748413,513.679565,546.278198,514.394409C539.196472,514.992065,534.734741,516.948975,532.428345,520.469055C530.159363,523.931885,530.415955,533.444275,532.951904,539.877991C537.972046,552.614197,540.942322,556.391418,546.802002,557.490662C552.989685,558.651489,556.043701,560.844482,558.17157,565.654907C561.081909,572.234253,563.515381,574.341187,567.354187,573.605225C569.084351,573.27356,571.512512,571.851563,572.75,570.445313z"/>
    <path transform="matrix(-0.411536,0,0,-0.411536,-638.059204,28.412445)" style="stroke:#000000;stroke-width:0.05mm;fill:none" d="M350.299652,556.370605C352.059845,555.474426,355.588898,553.221802,358.141968,551.364746C365.774445,545.813049,372.950226,543.088257,384.374756,541.403748C392.650452,540.183472,396.126099,540.075806,400.053009,540.917969C407.795746,542.578491,412.316589,542.285339,414.811432,539.96106C418.547424,536.480408,417.336517,533.245972,411.083862,530.004395C407.886688,528.346924,396.54892,528.563782,386,530.484192C381.325012,531.335266,373.766479,532.537231,369.203247,533.155151C361.932434,534.139771,360.572235,534.653442,358.203247,537.309326C351.696716,544.603882,350.103851,545.889893,346.809692,546.507874C339.661407,547.848877,328.518494,542.459351,323.167725,535.072876C321.564758,532.860046,318.117371,525.525879,315.506836,518.77478C307.945526,499.220398,307.38327,498.119873,304.308533,496.856079C292.306946,491.923004,288.225769,489.511749,283.339783,484.467133C280.05896,481.079773,277.200958,479,275.826996,479C272.956482,479,268,483.757507,268,486.512787C268,489.646851,271.164429,492.084991,284.042542,498.87323C290.39093,502.219543,296.781342,506.206116,298.2435,507.732269C301.653778,511.29184,306.30481,521.570801,309.510376,532.632568C312.407532,542.630066,312.920807,543.411316,318.433105,546.213867C320.669891,547.351074,325.08017,550.029968,328.233704,552.166931C331.387238,554.303955,334.987244,556.462097,336.233704,556.96283C339.875153,558.425659,346.839172,558.132446,350.299652,556.370605z"/>
    <path transform="matrix(-0.411536,0,0,-0.411536,-638.059204,28.412445)" style="stroke:#000000;stroke-width:0.05mm;fill:none" d="M708.662537,536.167847C711.873169,533.510193,717.424988,529.391846,721,527.016052C724.575012,524.640198,730.910828,519.6474,735.07959,515.920959C744.384888,507.602905,747.788635,505.793274,760.455383,502.429749C772.125183,499.330933,777.301208,499.55072,782.826416,503.37973C784.906006,504.820862,787.563171,506,788.73114,506C791.131104,506,795,501.647095,795,498.94693C795,495.107422,793.518677,494.004578,784.184387,490.894836L774.541504,487.682312L768.520752,489.825226C765.209351,491.003815,758.970093,492.636719,754.655701,493.453918C743.342529,495.596771,737.768982,498.568115,726.5,508.464233C714.073853,519.376526,705.542236,525.51825,699.870361,527.634216C694.34729,529.694702,675.130981,530.073364,669.914917,528.224487C661.044983,525.080505,658.432678,517.949707,661.555969,505.407166C663.145813,499.022888,663.23468,497.198883,662.200134,492.190186C659.500061,479.117706,661.876343,475.196808,673.5,473.545166C681.013733,472.477539,686.28772,469.741791,690.085083,464.942017C699.695251,452.795105,701.421814,451.602997,716.5,446.703369C724.200012,444.201294,733.424988,441.413666,737,440.508636C740.575012,439.603607,747.236206,437.734467,751.802673,436.35498C761.683411,433.370117,759.922119,436.459961,770.530945,403.5C774.779602,390.299988,781.348206,371.666504,785.127869,362.092224C788.907532,352.517975,792,343.435791,792,341.909637C792,338.983246,791.4151,338.623413,784.732422,337.438721C779.601929,336.529205,777,333.038574,777,327.065155C777,324.499329,776.460022,321.859985,775.799988,321.200012C773.926514,319.326538,768.886963,319.814209,764.5,322.293488C758.309021,325.792297,758.735413,327.661285,767.374939,334.895294C775.397644,341.612793,778,345.671631,778,351.466858C778,355.739227,777.048889,357.731903,771.901306,364.24408C769.210632,367.648041,767.937744,370.397736,767.493774,373.765167C766.495789,381.335022,757.028442,413.02771,754.138916,418.471863C750.606812,425.126526,747.105713,427.231903,734.306152,430.398193C717.771179,434.488556,705.352417,438.673553,696.026367,443.298126C687.943848,447.306091,687.413147,447.776917,684.526367,453.5C681.809326,458.886749,680.845337,459.832184,675.094849,462.75C663.967224,468.39621,657.303467,466.518158,652.151184,456.283844C644.950989,441.981567,638.119263,423.22879,636.000732,411.951508C633.306396,397.608673,631.875488,394.385315,623.911194,384.717621C613.910461,372.577942,613,371.085327,613,366.829773C613,361.335846,618.906006,355.150055,628.498779,350.596741C633.315796,348.310303,636.867432,345.803314,638.935669,343.229706C644.013489,336.911011,648.41394,335,657.886169,335C667.346191,335,668.249268,334.411194,672.890686,325.216522C674.512573,322.003632,678.575073,316.028046,681.918518,311.937439C686.871643,305.877472,687.997803,303.828156,687.998779,300.872437C687.999451,298.871948,687.329468,296.688385,686.505005,296.00415C684.233826,294.119232,681.11853,296.648071,672.62323,307.272583C663.035034,319.263977,661.461243,320.637787,654.516602,323.078644C635.010132,329.934601,613.436462,345.743439,601.077026,362.238342C596.140198,368.826965,596.080994,371.962463,600.856018,373.940338C604.842407,375.591583,608.599487,379.907959,615.705139,391C622.430176,401.497894,623.075745,403.150757,625.962097,417.259521C629.542053,434.759064,637.231995,452.544281,647.036438,466C652.349426,473.291656,653.023621,477.961517,651.311646,495.614044C649.21814,517.200378,649.337219,519.07196,653.341125,527.503052C655.257324,531.537964,657.876953,535.507202,659.162537,536.323547C662.309082,538.321533,667.835266,539.118042,684.476868,539.972168C692.189575,540.368042,699.473145,540.76123,700.662537,540.845947C701.935425,540.936646,705.226685,539.012024,708.662537,536.167847z"/>
    <path transform="matrix(-0.411536,0,0,-0.411536,-638.059204,28.412445)" style="stroke:#000000;stroke-width:0.05mm;fill:none" d="M347.365143,532.927429C348.814301,531.787476,350,530.085938,350,529.146118C350,528.206299,347.264069,524.751465,343.920135,521.468689C331.037231,508.82132,329.751282,501.60022,335.90274,476.447693C340.854431,456.200897,343.285431,448.504059,347.256653,440.5C352.908203,429.109161,358.900848,421.138824,365.10144,416.766052C369.844818,413.420929,371,412.071289,371,409.874573C371,407.367859,368.804474,403.994873,367.178558,404.003662C365.719635,404.011566,352.13559,409.642578,350.69873,410.835083C349.861084,411.530273,348.63913,414.335754,347.983307,417.069519C347.327515,419.803284,344.572601,425.404541,341.861328,429.516754C336.266754,438.002045,334.272552,442.334442,331.057587,452.987885C329.814758,457.106232,327.889343,462.256714,326.7789,464.433411C325.235992,467.457733,324.79361,470.134338,324.902985,475.783508C325.030304,482.360626,324.704102,483.773712,321.945282,488.595642C319.512878,492.847015,318.990997,494.682556,319.524292,497.110535C320.724884,502.576874,329.806305,524.113037,332.627319,528.183716C337.283386,534.902405,342.655914,536.631714,347.365143,532.927429z"/>
    <path transform="matrix(-0.411536,0,0,-0.411536,-638.059204,28.412445)" style="stroke:#000000;stroke-width:0.05mm;fill:none" d="M432.353973,525.547729C435.387482,522.736389,435.977997,517.12085,433.50061,514.643433C432.675934,513.818787,429.521027,512.834167,426.489685,512.455444C422.686462,511.980255,419.665192,510.815704,416.742004,508.698151C413.950531,506.676025,411.481659,505.693085,409.502899,505.81604C407.851318,505.918671,402.095795,506.00293,396.71286,506.003296C388.143005,506.003876,386.284241,506.32901,381.768402,508.617371C372.92099,513.100708,362.506775,511.437988,357.629303,504.763428C354.567169,500.573029,354.295563,491.881317,356.996124,484.5C359.478455,477.715057,361.10025,471.351318,363.521545,458.894775C365.781647,447.267426,368.206299,443.133667,374.604156,440C381.957855,436.398163,382.711304,435.5383,385.151154,427.962769C387.770172,419.830963,386.999756,418,380.959106,418C377.648438,418,376.868896,418.479431,374.861755,421.75C373.596039,423.8125,369.79834,428.451538,366.422485,432.058929C358.67395,440.338928,354.825195,448.358154,351.023834,464.143524C349.387207,470.939575,347.137329,479.64856,346.024078,483.496826C344.910828,487.345062,344,493.219452,344,496.551025C344,503.42041,346.052673,507.325073,354.687714,516.881348C359.307892,521.994446,359.785675,522.257935,364.272675,522.167908C366.869995,522.115723,374.849152,520.931641,382.004089,519.53656C396.916473,516.628845,408.311829,516.272644,413.782104,518.543152C415.826965,519.391907,419.135529,521.866882,421.134491,524.043152C425.411499,528.699524,428.505463,529.114441,432.353973,525.547729z"/>
    <path transform="matrix(-0.411536,0,0,-0.411536,-638.059204,28.412445)" style="stroke:#000000;stroke-width:0.05mm;fill:none" d="M688.870789,517.951172C699.029114,516.302856,704.686523,512.818726,719.200317,499.272552C730.985107,488.273468,738.72583,484.576691,756.208557,481.598297C760.998291,480.782318,765.805298,479.639374,766.890869,479.058411C769.705811,477.55191,770.445496,474.328857,768.616821,471.537933C765.95874,467.481171,762.501099,467.554077,748.628113,471.95932C741.629395,474.181702,735.362488,476.004395,734.701599,476.009766C731.055725,476.039398,722.014099,481.797272,714.701172,488.746368C697.664368,504.935516,692.841675,507.472565,681.058228,506.444672C673.781128,505.809875,673.117859,505.911255,672.099609,507.813812C670.478821,510.842346,670.760559,514.481445,672.75,516.214539C676.187195,519.208801,679.151733,519.528198,688.870789,517.951172z"/>
    <path transform="matrix(-0.411536,0,0,-0.411536,-638.059204,28.412445)" style="stroke:#000000;stroke-width:0.05mm;fill:none" d="M596.604675,504.480621C598.796631,501.135284,598.008301,496.655609,593.590637,487.353271C589.761108,479.289398,586.13623,475,583.151184,475C580.679688,475,575,480.253357,575,482.539368C575,483.49472,576.821838,486.252808,579.048523,488.668457C581.275208,491.084137,584.005493,495.184479,585.115906,497.780304C588.916992,506.666687,593.44281,509.306183,596.604675,504.480621z"/>
    <path transform="matrix(-0.411536,0,0,-0.411536,-638.059204,28.412445)" style="stroke:#000000;stroke-width:0.05mm;fill:none" d="M434.428558,501.428558C436.643463,499.213684,436.383942,495.691193,433.601349,490.200012C429.561554,482.227875,428.957458,478.015564,428.884308,457.308258C428.821594,439.567871,429.04364,436.773773,431.011139,430.543427L433.207977,423.586823L430.993195,421.793427C428.163971,419.502441,420.756531,419.386322,418.544556,421.598297C417.439789,422.703064,417.128204,424.1698,417.535522,426.348297C418.054077,429.121796,419.076294,474.491699,418.943604,488.844788C418.882629,495.441437,420.748627,498.528625,426.327972,501.061829C431.439178,503.382507,432.42981,503.427338,434.428558,501.428558z"/>
    <path transform="matrix(-0.411536,0,0,-0.411536,-638.059204,28.412445)" style="stroke:#000000;stroke-width:0.05mm;fill:none" d="M380.077606,497.429749C381.654449,496.002747,381.998474,494.324768,381.991425,488.095001C381.986084,483.361237,382.974731,476.287933,384.615723,469.319214C387.363098,457.652069,387.314789,452.457642,384.432098,449.574951C382.373871,447.516724,378.960144,448.936584,376.698029,452.791779C375.60376,454.656647,374.482208,459.718964,373.842346,465.681366C373.262787,471.081635,372.209717,477.075012,371.502167,479C370.794617,480.924988,369.258514,485.100891,368.088593,488.279785C365.927429,494.15213,366.271545,497.042114,369.399719,499.291046C371.132782,500.537018,377.958954,499.347137,380.077606,497.429749z"/>
    <path transform="matrix(-0.411536,0,0,-0.411536,-638.059204,28.412445)" style="stroke:#000000;stroke-width:0.05mm;fill:none" d="M406.588531,493.783539C407.539825,492.788422,407.627258,486.095795,406.9776,464C406.267548,439.849121,406.37204,434.540741,407.662354,429.213928C408.848755,424.31604,408.92157,422.610413,407.992035,421.490387C406.281097,419.428833,400.304596,418.540192,397.314178,419.90271C394.96698,420.972168,394.832031,421.394257,395.472321,425.663879C395.867889,428.301758,395.638947,432.9086,394.936676,436.44162C393.822723,442.045898,393.907013,443.180939,395.855072,448.810059C398.536102,456.557068,398.533813,456.710388,395.471344,474.670532C394.080597,482.826752,393.194061,490.531982,393.501282,491.793304C393.808472,493.054596,395.058868,494.509521,396.279907,495.026459C399.054352,496.20105,404.957916,495.489258,406.588531,493.783539z"/>
    <path transform="matrix(-0.411536,0,0,-0.411536,-638.059204,28.412445)" style="stroke:#000000;stroke-width:0.05mm;fill:none" d="M691.456482,492.764343C693.897095,491.518951,700.14209,486.370789,705.33429,481.323975C715.863892,471.089111,720.641968,468.262207,733.607788,464.596222C738.498535,463.21344,745.862732,460.900635,749.972717,459.456665C756.562378,457.14151,758.353149,456.911621,765.127075,457.511261C772.098145,458.128326,773.002625,457.997375,774.904358,456.095612C777.879883,453.120117,777.555176,449.644928,774.023926,446.673615C769.622498,442.970032,765.927185,442.486328,761.048584,444.97522C758.786194,446.129395,752.562195,448.202576,747.21759,449.582275C735.35199,452.645294,713.61261,459.631836,709.779419,461.614044C708.234924,462.412781,704.208374,466.432495,700.831543,470.546753C693.400574,479.600708,690.392517,481.574066,681.976257,482.91629C672.874451,484.367859,669.803345,488.418823,673.645813,493.904724C675.154114,496.058136,675.781494,496.203217,681.155334,495.641541C684.38031,495.304474,689.015869,494.009735,691.456482,492.764343z"/>
    <path transform="matrix(-0.411536,0,0,-0.411536,-638.059204,28.412445)" style="stroke:#000000;stroke-width:0.05mm;fill:none" d="M311.925934,484.589233C312.569916,483.813293,313.350677,481.613953,313.66095,479.701813C314.305725,475.728577,311.533325,472,307.934265,472C304.855377,472,301.917999,470.215942,297.865509,465.884583C295.866547,463.748077,293.538574,462,292.692261,462C290.157227,462,285,466.984009,285,469.433899C285,472.113312,285.961487,473.003113,296.809387,480.36264C305.317413,486.134766,309.640167,487.343414,311.925934,484.589233z"/>
    <path transform="matrix(-0.411536,0,0,-0.411536,-638.059204,28.412445)" style="stroke:#000000;stroke-width:0.05mm;fill:none" d="M801.927429,482.365143C804.03064,479.691376,804.569031,476.406403,803.23468,474.389526C802.830627,473.778778,800.924988,472.483063,799,471.510132C797.075012,470.537231,793.414734,468.224457,790.866028,466.370605C785.234009,462.274078,781.880737,462.06488,779.072571,465.634857C776.722107,468.623016,776.414429,471.848633,778.25,474.259583C779.554565,475.973083,796.626038,484.926605,798.677429,484.973236C799.325012,484.987946,800.787476,483.814301,801.927429,482.365143z"/>
    <path transform="matrix(-0.411536,0,0,-0.411536,-638.059204,28.412445)" style="stroke:#000000;stroke-width:0.05mm;fill:none" d="M812.545471,462.545441C817.172119,457.918762,815.57251,453.714111,807.25531,448.640259C804.089905,446.709229,799.493835,443.075195,797.041809,440.564636C792.024902,435.427979,790.256348,435.00824,787.289246,438.25C782.158325,443.855835,783.70343,448.497314,792.209778,453.031128C795.484192,454.776398,800.391541,458.18335,803.115051,460.602142C805.838501,463.020966,808.522217,465,809.078857,465C809.635498,465,811.195435,463.895447,812.545471,462.545441z"/>
    <path transform="matrix(-0.411536,0,0,-0.411536,-638.059204,28.412445)" style="stroke:#000000;stroke-width:0.05mm;fill:none" d="M544.702515,461.269409C547.769653,459.767578,553.028809,455.910614,556.389526,452.698364C559.750305,449.486145,564.161072,445.921875,566.191284,444.777832C568.221497,443.633759,570.411499,441.420807,571.057922,439.860168C572.626404,436.073517,571.483093,427.375427,568.689087,421.838257C566.880798,418.2547,565.944214,417.446198,563.305237,417.190765C559.754517,416.847076,555,419.41803,555,421.681732C555,422.480164,556.125,424.608398,557.5,426.411102C560.136292,429.867493,560.686096,433.849548,558.969727,437.056549C557.841492,439.164703,549.256958,445.792236,544.5,448.2276C542.849976,449.072357,539.474976,450.090698,537,450.490631C531.431091,451.390442,529,453.435638,529,457.220734C529,464.678833,534.724976,466.154938,544.702515,461.269409z"/>
    <path transform="matrix(-0.411536,0,0,-0.411536,-638.059204,28.412445)" style="stroke:#000000;stroke-width:0.05mm;fill:none" d="M316.357544,459.75C317.129578,458.512512,318.753326,454.125,319.965912,450C322.478394,441.452881,327.762665,430.441528,333.837219,421.094971C340.176483,411.341095,339.10376,405.276306,331.200562,406.188354C328.776306,406.468109,327.579193,408.352325,319.5,424.604889C314.549988,434.562561,309.077942,444.709869,307.339874,447.154449C305.601807,449.59903,304.051056,452.251831,303.893829,453.049561C303.386047,455.625488,304.917664,458.485931,307.742401,460.237183C311.556183,462.601593,314.689117,462.424408,316.357544,459.75z"/>
    <path transform="matrix(-0.411536,0,0,-0.411536,-638.059204,28.412445)" style="stroke:#000000;stroke-width:0.05mm;fill:none" d="M672.545471,451.545441C676.322205,447.768677,675.834473,443.828979,671.128723,440.10199C666.890625,436.745331,665.46167,433.886108,664.53479,426.907928C664.164734,424.122253,662.529785,420.188538,660.378357,416.907928C656.871948,411.560944,656.838501,411.4086,657.411011,403.390503C657.945984,395.898071,657.804321,395.023041,655.549255,391.890503C651.185913,385.829498,642.309387,371.544098,639.669495,366.334534C636.72345,360.520752,635.281494,359.657318,631.00708,361.147369C624.941345,363.261902,624.315247,368.993713,629.597351,374.053833C635.134521,379.358337,641.928589,389.361725,643.970581,395.216614C644.98407,398.122467,646.343018,404.100006,646.990417,408.5C647.741638,413.605438,650.101746,421.384583,653.513245,430C656.453369,437.424988,659.159973,444.719574,659.527893,446.210175C660.494812,450.127594,664.456665,454,667.497681,454C668.92395,454,671.195435,452.895447,672.545471,451.545441z"/>
    <path transform="matrix(-0.411536,0,0,-0.411536,-638.059204,28.412445)" style="stroke:#000000;stroke-width:0.05mm;fill:none" d="M536.379517,438.959198C543.736816,436.206482,546.723755,433.653992,548.147156,428.903259C549.161865,425.516296,549.103577,424.674988,547.760925,423.332367C546.31897,421.890411,545.27478,421.978119,535.924438,424.326508C523.402283,427.471466,522.2099,428.419556,523.858093,433.920746C524.919678,437.463989,528.079895,441,530.184998,441C530.59198,441,533.379517,440.081635,536.379517,438.959198z"/>
    <path transform="matrix(-0.411536,0,0,-0.411536,-638.059204,28.412445)" style="stroke:#000000;stroke-width:0.05mm;fill:none" d="M850.857605,431.746857C854.144531,425.120148,853.320984,422.394653,847.753113,421.47229C842.049316,420.527435,840.6203,419.68045,832.758057,412.584686C820.15741,401.212372,820.124573,397.115509,832.529114,384.026367C837.070862,379.233978,841.509277,373.915802,842.392334,372.20816C844.256104,368.604065,848.449768,365.249695,855.506958,361.71817C858.260803,360.340118,863.797729,356.268097,867.811279,352.66922C880.326233,341.447296,884.47345,340.275269,912.231079,340.116089C924.698303,340.044586,931.823181,340.453156,936.231079,341.492401C939.678955,342.305328,943.982971,342.977081,945.795471,342.985229C949.595276,343.002258,954,346.743835,954,349.954559C954,351.079559,953.055908,352.944092,951.902039,354.097961C949.521729,356.478271,946.421753,356.331604,939,353.48764C935.040466,351.970337,931.9104,351.837128,912.937683,352.378387C885.952515,353.148193,884.68396,353.522522,873.564453,363.996399C868.433228,368.829712,863.88501,372.204895,861.428711,373.002289C850.853027,376.435333,849.279846,380.970642,856.75,386.490326C865.376892,392.864716,867.034912,392.466858,872.195862,382.783875C880.790283,366.659149,894.702759,362.453949,935.614624,363.614838C958.319397,364.259094,958.767151,364.23288,960.864624,362.135376C962.282776,360.717224,963.001892,358.740448,963.005554,356.25C963.008667,354.1875,963.492798,350.765381,964.081482,348.645264C965.042236,345.185181,964.913696,344.535187,962.825928,342.296295C959.779846,339.029724,953.931885,336.191864,940.5672,331.494659L929.63446,327.652191L921.5672,328.796143C916.673401,329.490112,911.255615,329.62674,907.794495,329.143463C904.656433,328.705322,897.643433,328.655121,892.209961,329.031921C883.466736,329.638275,881.535889,330.138062,875.415466,333.379089C860.904236,341.063446,832.73877,363.625946,827.366089,371.869934C825.348083,374.966461,821.591125,380.649994,819.017273,384.5C807.805603,401.270844,806.743286,404.866699,812.134888,407.796509C813.85907,408.733429,821.579468,415.710602,829.291382,423.301331C845.577271,439.331299,846.848694,439.829193,850.857605,431.746857z"/>
    <path transform="matrix(-0.411536,0,0,-0.411536,-638.059204,28.412445)" style="stroke:#000000;stroke-width:0.05mm;fill:none" d="M695.166992,431.024384C702.367126,427.557312,710.542725,424.73526,722.132263,421.716522C731.280029,419.333801,739.87793,416.654785,741.23877,415.763123C742.599609,414.87146,744.68573,412.072662,745.874512,409.543549C748.382324,404.208466,755.987671,375.807312,755.994995,371.75C756.006775,365.269745,747.136353,362.468628,743.050842,367.662476C740.006226,371.533081,739.575439,374.48172,741.391541,379.020508C743.728271,384.860565,743.376831,389.709869,740.124817,396.5C735.494385,406.168182,732.222351,408.520111,719.230408,411.518921C715.528687,412.373383,707.099976,414.818481,700.5,416.952484C693.900024,419.086517,686.389709,421.142242,683.810425,421.520752C678.112,422.357025,675.493713,424.846588,676.422119,428.545837C677.195251,431.626068,681.272949,436,683.371521,436C684.175842,436,689.483826,433.760956,695.166992,431.024384z"/>
    <path transform="matrix(-0.411536,0,0,-0.411536,-638.059204,28.412445)" style="stroke:#000000;stroke-width:0.05mm;fill:none" d="M860.038757,409.924011C863.228699,403.671234,862.443542,400.9823,856.872314,399.080078C854.327087,398.211029,850.388306,395.8125,848.119446,393.75C843.425842,389.483276,843.877502,389.643066,840.656921,391.110443C837.179199,392.695007,835.409119,396.417603,836.567322,399.711029C837.688904,402.900269,852.463623,413.879883,855.729675,413.951263C857.354126,413.986786,858.523804,412.893616,860.038757,409.924011z"/>
    <path transform="matrix(-0.411536,0,0,-0.411536,-638.059204,28.412445)" style="stroke:#000000;stroke-width:0.05mm;fill:none" d="M685,409.674622C695.722229,406.156525,708.463928,402.374298,716,400.472626C723.860474,398.489105,727.921082,396.121765,730.25,392.164764C733.260498,387.049744,731.981262,380,728.042542,380C727.004639,380,724.208008,381.562866,721.827759,383.473053C719.44751,385.383209,715.474976,388.030762,713,389.356445C707.053711,392.541473,687.118347,397.796967,677.867188,398.618378C673.815247,398.978149,669.9375,399.716278,669.25,400.258698C667.473999,401.659851,667.701538,408.128845,669.62323,410.872498C671.535889,413.60321,673.490906,413.450928,685,409.674622z"/>
    <path transform="matrix(-0.411536,0,0,-0.411536,-638.059204,28.412445)" style="stroke:#000000;stroke-width:0.05mm;fill:none" d="M348.684906,397.845825C350.233215,397.211029,355.100006,396.423523,359.5,396.095825L367.5,395.5L367.799835,390.871277C368.127167,385.818085,366.028748,382.447601,363.100922,383.323822C351.769287,386.715118,348.346558,387.230286,344.401031,386.138489C335.72702,383.738251,330.089996,377.97818,329.266693,370.673737C328.613831,364.88147,329.282166,362.305084,332.703186,357.42691C335.107849,353.997955,335.53656,352.231964,336.084106,343.5C336.428986,338,337.52951,327.649994,338.529724,320.5C341.028595,302.636993,341.030884,297.226959,338.540436,295.405914C335.787689,293.393036,334.807526,293.96521,332.306488,299.044891C329.599182,304.543518,327.606293,314.216553,325.074158,334.149109C322.753998,352.412781,321.908905,356.46701,317.773773,369.172089C314.32666,379.763184,314.546997,381.211853,319.791016,382.43631C325.978149,383.881012,328.068054,385.354401,330.644318,390.08786C334.621033,397.394379,342.022705,400.577301,348.684906,397.845825z"/>
    <path transform="matrix(-0.411536,0,0,-0.411536,-638.059204,28.412445)" style="stroke:#000000;stroke-width:0.05mm;fill:none" d="M686.125,385.433228C700.26947,382.446808,707.249268,380.020691,712.053406,376.420746C713.949036,375.000275,718.463867,372.330933,722.086365,370.488861C730.3302,366.296844,738,359.075256,738,355.505188C738,351.396362,735.327942,345.998413,733.301025,346.012543C732.310486,346.01944,727.772766,349.615967,723.217285,354.004852C709.463867,367.255249,705.145691,370.092529,697.788086,370.713257C693.442749,371.079865,689.917603,372.132996,686.378296,374.121887C679.228088,378.139862,675.073975,377.965088,670.06012,373.435333C664.5849,368.488831,661,360.947052,661,354.375092C661,348.343842,659.322327,346,655.00531,346C651.778076,346,646.505371,349.959381,645.716797,352.974976C645.373474,354.287842,646.825317,357.465851,649.947998,362.236816C652.562622,366.231567,656.231445,372.119385,658.100952,375.320831C659.970398,378.522278,662.770264,382.684784,664.322815,384.570831C667.832275,388.834137,669.672668,388.906952,686.125,385.433228z"/>
    <path transform="matrix(-0.411536,0,0,-0.411536,-638.059204,28.412445)" style="stroke:#000000;stroke-width:0.05mm;fill:none" d="M366.046692,372.958679C367.237823,371.075592,367.264526,364.362823,366.089661,362.167511C365.319794,360.729034,363.583496,360.474426,354.839661,360.517761C343.608307,360.573425,342.350128,360.948883,340.936676,364.666534C339.550598,368.312256,340.86322,372.039276,343.996704,373.354919C348.124176,375.087921,364.890442,374.786621,366.046692,372.958679z"/>
    <path transform="matrix(-0.411536,0,0,-0.411536,-638.059204,28.412445)" style="stroke:#000000;stroke-width:0.05mm;fill:none" d="M987.0802,368.850159C990.643921,362.191223,982.259583,345.259949,975.847839,346.167633C973.697937,346.471985,973.440613,347.132263,972.795715,354C971.978821,362.699463,973.031555,364.980957,979.593994,368.733551C984.478882,371.526855,985.638,371.544891,987.0802,368.850159z"/>
    <path transform="matrix(-0.411536,0,0,-0.411536,-638.059204,28.412445)" style="stroke:#000000;stroke-width:0.05mm;fill:none" d="M684,363C685.427551,361.572449,686,359.666656,686,356.341736C686,351.190552,687.952454,346.534882,703.645691,314.264587C708.790588,303.68512,713,293.911835,713,292.546143C713,290.728546,711.593018,288.984253,707.75,286.037628C704.862488,283.823639,701.352722,281.088928,699.9505,279.960541C696.652222,277.306335,694.456177,278.185486,691.908081,283.180206C689.537476,287.826904,690.104187,290.55835,693.621948,291.441254C697.131226,292.322021,701,296.422516,701,299.261169C701,300.55484,697.159851,307.661163,692.466309,315.05307C687.772766,322.444946,683.407959,330.243958,682.766724,332.384186C682.125488,334.524414,679.440674,338.63913,676.800415,341.527985C672.798096,345.907166,672.000916,347.42215,672.005554,350.640198C672.021912,361.934814,678.445679,368.554291,684,363z"/>
    <path transform="matrix(-0.411536,0,0,-0.411536,-638.059204,28.412445)" style="stroke:#000000;stroke-width:0.05mm;fill:none" d="M764,357C767.440735,353.559265,766.607483,349.607361,761.550049,345.379852C758.866394,343.136566,756.27533,339.742981,755.022217,336.830078C753.213013,332.624451,752.564636,332,750.007019,332C746.547729,332,740,337.259888,740,340.038727C740,341.046082,741.767151,343.136963,743.927002,344.68515C746.086853,346.233307,748.574036,348.715088,749.454102,350.200195C752.172485,354.787476,757.018372,359,759.576904,359C760.909607,359,762.900024,358.100006,764,357z"/>
    <path transform="matrix(-0.411536,0,0,-0.411536,-638.059204,28.412445)" style="stroke:#000000;stroke-width:0.05mm;fill:none" d="M363.06723,349.419006C364.141663,348.12439,364.150604,346.53949,363.116669,340.669006C362.422211,336.726044,361.441895,325.751526,360.938232,316.281158C360.43454,306.810791,359.607849,297.135803,359.101135,294.781158C358.594421,292.426514,357.858856,287.125,357.466522,283C356.283783,270.564667,356.592133,270.875763,345.782043,271.212341C336.733063,271.49408,336.523621,271.555939,335.588409,274.222015C334.990631,275.926178,334.982544,278.349426,335.566803,280.702423C336.447601,284.249756,336.780792,284.507568,341.5,285.293884C344.25,285.752075,347.502258,287.0672,348.727234,288.2164C350.927979,290.281006,350.948273,290.556732,350.434998,311.402924C350.149261,323.006317,349.48703,334.075012,348.963318,336C347.784973,340.331421,347.74765,346.053467,348.886047,347.849854C350.68396,350.686981,361.061859,351.835297,363.06723,349.419006z"/>
    <path transform="matrix(-0.411536,0,0,-0.411536,-638.059204,28.412445)" style="stroke:#000000;stroke-width:0.05mm;fill:none" d="M799.201782,327C800.137756,325.075012,802.264709,320.434509,803.928345,316.687805C805.59198,312.941101,810.226196,305.622986,814.226563,300.425323C825.205139,286.16098,827.841919,282.202698,829.047058,278.177307C830.821716,272.249298,831.794067,249.450409,830.739197,238.5C830.209351,233,829.97821,221.631958,830.225525,213.237671C830.55127,202.182495,830.347351,197.703217,829.485718,196.988144C828.003418,195.757965,804.173828,196.909729,803.344482,198.251633C802.537964,199.55658,805.048706,201.856171,810.612305,204.90834C819.4375,209.749771,819.412415,209.658737,819.394104,236.763138C819.383118,253.147247,818.977478,261.893921,818.084778,265C817.373352,267.475006,813.053406,277.201355,808.484863,286.614136C800.105042,303.879395,797.618103,307.358704,788.525146,314.538483C783.875854,318.209595,784.063049,320.377075,789.586609,326.83017C794.041077,332.034149,796.730957,332.081665,799.201782,327z"/>
    <path transform="matrix(-0.411536,0,0,-0.411536,-638.059204,28.412445)" style="stroke:#000000;stroke-width:0.05mm;fill:none" d="M724.23468,280.600281C726.22644,277.617401,724.699097,274.133423,717.395752,265C713.217651,259.774994,708.657227,253.475006,707.261475,251C701.051331,239.987991,679.19043,205.451538,676.229065,201.97406C673.559509,198.839325,671.904663,197.913208,667.229065,196.93721C656.58136,194.7146,633,196.919357,633,200.137466C633,200.586502,634.146423,201.705078,635.547668,202.623184C637.487976,203.894531,640.654114,204.323563,648.828613,204.422867C663.485596,204.600906,666.469727,206.330826,675.286377,219.760666C685.18689,234.841492,694.577515,251.957123,696.558899,258.532593C698.675232,265.555817,700.013977,267.212738,706.017761,270.23996C708.991028,271.739136,711.576538,274.152557,713.697754,277.408691C715.456482,280.108459,717.457214,282.664551,718.14386,283.088898C719.460815,283.902802,722.993225,282.459503,724.23468,280.600281z"/>
    <path transform="matrix(-0.411536,0,0,-0.411536,-638.059204,28.412445)" style="stroke:#000000;stroke-width:0.05mm;fill:none" d="M353.428558,259.428558C356.618805,256.238342,354.344818,249.673965,345.213654,235.714325C342.412659,231.43219,336.614075,221.578003,332.327911,213.816132C322.425171,195.883072,323.472717,196.434479,301.578552,197.630356C290.269348,198.248077,285.536407,198.866226,285.240479,199.764221C284.696075,201.416183,290.173981,203.662247,297.705414,204.875153C312.438385,207.247833,316.540802,209.840469,321.977753,220.214783C323.789429,223.671646,327.53598,230.236313,330.303406,234.802902C334.793915,242.212784,335.400391,243.904053,335.942139,250.527496C336.276031,254.609436,336.988129,258.384857,337.524597,258.917328C338.061066,259.449768,340.975006,260.052979,344,260.257721C347.024994,260.462494,350.030365,260.713287,350.678558,260.815002C351.326782,260.916748,352.564301,260.292847,353.428558,259.428558z"/>
</svg>
