<?xml version="1.0" encoding="UTF-8"?>
<svg xmlns="http://www.w3.org/2000/svg" width="90.000mm" height="90.000mm" viewBox="-1243.816406 -674.785156 90.000000 90.000000">
    <path transform="matrix(-1,0,0,-1,0,0)" style="stroke:#000000;stroke-width:0.05mm;fill:none" d="M1243.816406,658.066406L1221.984375,674.785156L1153.816406,674.785156L1153.816406,601.5L1175.648438,584.785156L1243.816406,584.785156L1243.816406,658.066406z"/>
    <path transform="matrix(-1,0,0,-1,0,0)" style="stroke:#000000;stroke-width:0.05mm;fill:none" d="M1220.457031,644.652344C1216.957275,647.356934,1213.42749,650.049927,1209.894531,652.710938C1209.849365,652.736877,1209.807129,652.767029,1209.761719,652.792969L1209.746094,652.800781C1209.724854,652.769775,1209.704224,652.738525,1209.683594,652.707031L1209.402344,652.285156C1209.30896,652.132629,1209.211426,651.982727,1209.109375,651.835938C1207.534546,649.418823,1205.900757,646.920776,1204.316406,644.507813C1203.44812,645.116516,1202.596069,645.747986,1201.761719,646.402344L1201.503906,646.601563C1198.797607,648.693115,1196.073486,650.765869,1193.335938,652.816406L1193.320313,652.792969L1193.277344,652.730469L1193.207031,652.625L1193.113281,652.480469C1191.37915,649.814819,1189.641357,647.15271,1187.898438,644.492188C1187.859741,644.516724,1187.821289,644.54187,1187.785156,644.570313C1184.147095,647.306763,1180.537354,650.061279,1176.9375,652.847656L1176.9375,661.242188C1176.92749,662.61438,1176.936646,663.987488,1176.964844,665.359375L1176.978516,665.417969C1177.054565,665.35791,1177.130737,665.298096,1177.207031,665.238281C1180.714478,662.544922,1184.366821,659.751465,1187.884766,657.072266L1187.898438,657.097656L1187.941406,657.160156L1188.011719,657.265625L1188.101563,657.40625L1188.21875,657.582031C1188.31543,657.732666,1188.413086,657.881958,1188.511719,658.03125C1189.45874,659.484741,1189.929443,660.205933,1190.878906,661.660156L1191.148438,662.074219C1191.843506,663.141846,1192.507568,664.157471,1193.207031,665.222656C1193.243408,665.280151,1193.279663,665.337341,1193.316406,665.394531L1193.347656,665.412109C1193.365356,665.397278,1193.385132,665.386475,1193.402344,665.371094L1193.449219,665.335938L1193.585938,665.234375C1197.045288,662.608643,1200.779175,659.765381,1204.230469,657.128906L1204.300781,657.078125C1206.125732,659.884644,1207.9104,662.615112,1209.75,665.414063C1209.76416,665.414917,1209.776978,665.419373,1209.792969,665.414063C1213.425903,662.647217,1217.060669,659.864014,1220.679688,657.078125L1220.6875,650.773438L1220.695313,644.464844L1220.457031,644.652344z"/>
    <path transform="matrix(-1,0,0,-1,0,0)" style="stroke:#000000;stroke-width:0.05mm;fill:none" d="M1220.503906,619.449219C1216.978149,622.172485,1213.448486,624.865601,1209.890625,627.546875C1209.84314,627.57666,1209.795166,627.605713,1209.746094,627.632813C1209.702026,627.567566,1209.658325,627.502014,1209.613281,627.4375L1209.519531,627.292969C1207.778442,624.623535,1206.065063,622.004639,1204.316406,619.339844C1204.265747,619.367737,1204.213989,619.39325,1204.167969,619.429688C1201.351685,621.542297,1198.556641,623.669128,1195.769531,625.820313C1194.969727,626.448486,1194.157104,627.059753,1193.332031,627.654297L1193.320313,627.625L1193.277344,627.5625L1193.113281,627.316406L1193,627.136719L1192.859375,626.925781L1192.703125,626.6875L1192.527344,626.417969C1191.011719,624.090332,1189.436523,621.674316,1187.917969,619.347656L1187.886719,619.330078C1186.049316,620.699829,1184.220093,622.087646,1182.40625,623.488281L1176.9375,627.683594L1176.9375,636.074219C1176.927246,637.446716,1176.936401,638.819092,1176.964844,640.191406L1176.978516,640.255859C1180.58667,637.475586,1184.266846,634.658203,1187.890625,631.902344C1187.908569,631.932678,1187.922241,631.965271,1187.941406,631.996094L1188.011719,632.097656C1189.549072,634.45874,1191.156982,636.922607,1192.699219,639.28125C1192.906738,639.597412,1193.110596,639.909424,1193.316406,640.226563C1193.331543,640.2323,1193.347168,640.233948,1193.363281,640.230469C1193.437988,640.176392,1193.515015,640.120361,1193.589844,640.066406L1193.773438,639.929688C1197.24292,637.278564,1200.822266,634.553955,1204.300781,631.916016C1206.105835,634.689819,1207.931763,637.480835,1209.75,640.246094L1209.777344,640.263672C1209.793213,640.24646,1209.8125,640.239868,1209.828125,640.222656C1213.456299,637.459106,1217.06543,634.695679,1220.679688,631.914063L1220.6875,625.605469L1220.695313,619.300781L1220.503906,619.449219z"/>
    <path transform="matrix(-1,0,0,-1,0,0)" style="stroke:#000000;stroke-width:0.05mm;fill:none" d="M1220.519531,594.269531C1220.489014,594.293579,1220.460449,594.31604,1220.429688,594.339844C1216.90625,597.047363,1213.293457,599.813477,1209.761719,602.507813C1207.988403,599.78125,1206.101196,596.900391,1204.310547,594.185547C1204.225464,594.228394,1204.146851,594.281311,1204.066406,594.332031C1200.788208,596.809204,1197.545654,599.278687,1194.285156,601.78125C1193.977661,602.029846,1193.659424,602.264771,1193.332031,602.486328L1193.320313,602.460938C1191.480957,599.647095,1189.794434,597.062134,1187.960938,594.246094L1187.917969,594.179688L1187.886719,594.162109C1186.048706,595.536499,1184.223877,596.922363,1182.40625,598.324219L1176.9375,602.515625L1176.9375,615.109375C1177.002563,615.060974,1177.067505,615.012878,1177.132813,614.964844C1180.729736,612.198608,1184.281738,609.481079,1187.890625,606.734375C1187.904663,606.767578,1187.925293,606.796204,1187.941406,606.828125L1188.011719,606.929688C1189.561523,609.312134,1191.14209,611.734497,1192.699219,614.113281C1192.90625,614.428162,1193.111328,614.742371,1193.316406,615.058594L1193.347656,615.076172C1196.977783,612.328003,1200.64917,609.535034,1204.265625,606.769531L1204.300781,606.748047C1206.099609,609.50708,1207.944336,612.328369,1209.75,615.082031L1209.777344,615.095703L1209.792969,615.082031C1209.820557,615.060547,1209.851318,615.03717,1209.878906,615.015625C1213.470337,612.282898,1217.104126,609.500671,1220.679688,606.746094L1220.6875,600.4375L1220.695313,594.132813L1220.519531,594.269531z"/>
</svg>
