<?xml version="1.0" encoding="UTF-8"?>
<svg xmlns="http://www.w3.org/2000/svg" width="333.109mm" height="300.030mm" viewBox="-1297.032227 -829.533325 333.109497 300.029602">
    <path transform="matrix(-1,0,0,-1,0,0)" style="stroke:#000000;stroke-width:0.05mm;fill:#000000;fill-rule:evenodd" d="M1269.323364,668.312317C1279.775757,678.714355,1287.635742,691.429321,1292.268677,705.429504C1300.125732,729.244324,1298.205688,755.205322,1286.932739,777.605286C1282.685669,785.983337,1277.225708,793.682373,1270.710083,800.449036C1240.395752,832.245361,1192.075684,838.754333,1154.424927,816.113098C1145.691772,810.535339,1137.651733,803.939331,1130.475708,796.464661C1121.19873,806.440369,1110.215698,814.678345,1098.042114,820.792786C1070.937744,833.35437,1039.483765,832.322327,1013.260925,818.011536C994.496765,807.806335,979.758789,791.52533,971.467957,771.839661C956.365784,736.458374,964.347778,695.447327,991.616394,668.312317L1130.475708,529.503723L1269.323364,668.312317M1131.977783,790.161377C1131.977783,789.332947,1131.306152,788.661377,1130.477783,788.661377C1129.649414,788.661377,1128.977783,789.332947,1128.977783,790.161377C1128.977783,790.989807,1129.649414,791.661377,1130.477783,791.661377C1131.306152,791.661377,1131.977783,790.989807,1131.977783,790.161377M1194.905396,608.292786C1195.445679,609.050354,1196.025757,609.781372,1196.643799,610.480286C1198.215698,612.20636,1199.855713,613.864319,1201.573364,615.449036C1203.385742,617.19635,1205.285767,618.853333,1207.268677,620.413879L1194.378052,607.527161L1194.905396,608.292786M1055.431641,823.128418L1055.146484,823.206543C1055.015137,823.268372,1054.89502,823.348328,1054.775391,823.433105L1054.669922,823.530762L1054.576172,823.63623C1054.485107,823.751343,1054.415039,823.876343,1054.345703,824.007324C1054.285156,824.197327,1054.245117,824.391357,1054.228516,824.589355L1054.259766,824.890137C1054.295166,825.069336,1054.375244,825.236328,1054.466797,825.394043L1054.572266,825.538574C1054.655029,825.629333,1054.735107,825.710327,1054.830078,825.788574C1055.085205,825.985352,1055.405029,826.090332,1055.728516,826.089355C1055.925049,826.073364,1056.125244,826.029358,1056.310547,825.972168C1056.485107,825.882385,1056.64502,825.773376,1056.791016,825.651855C1056.855225,825.578369,1056.915039,825.50238,1056.970703,825.425293C1057.025146,825.343384,1057.065186,825.258362,1057.111328,825.171387C1057.175049,824.982361,1057.215088,824.787354,1057.228516,824.589355C1057.215088,824.440369,1057.195068,824.292358,1057.158203,824.147949C1057.085205,823.916382,1056.955078,823.707336,1056.791016,823.526855L1056.568359,823.347168C1056.39502,823.25238,1056.215088,823.175354,1056.029297,823.120605C1055.835205,823.082336,1055.625244,823.083374,1055.431641,823.128418M1204.974609,823.108887L1204.798828,823.147949C1204.685059,823.190369,1204.575195,823.238342,1204.462891,823.296387L1204.310547,823.401855L1204.169922,823.526855C1204.105225,823.599365,1204.045166,823.67334,1203.982422,823.749512L1203.908203,823.874512L1203.845703,824.007324C1203.775146,824.194336,1203.745117,824.391357,1203.728516,824.589355L1203.759766,824.890137L1203.826172,825.097168C1203.885254,825.233337,1203.955078,825.360352,1204.033203,825.483887L1204.169922,825.651855C1204.305176,825.784363,1204.465088,825.897339,1204.646484,825.972168C1204.835205,826.047363,1205.025146,826.084351,1205.228516,826.089355C1205.425049,826.08136,1205.625244,826.044373,1205.810547,825.972168C1206.085205,825.863342,1206.315186,825.677368,1206.470703,825.429199L1206.603516,825.16748L1206.697266,824.890137L1206.728516,824.589355C1206.715088,824.391357,1206.665039,824.197327,1206.611328,824.007324C1206.515137,823.838379,1206.415039,823.675354,1206.291016,823.526855C1206.215088,823.462341,1206.14502,823.406372,1206.064453,823.347168C1205.855225,823.199341,1205.605225,823.109375,1205.341797,823.093262C1205.215088,823.088379,1205.095215,823.096375,1204.974609,823.108887M989.342957,686.433411C983.96875,694.026367,979.89679,702.460327,977.292175,711.390442C978.306763,710.770325,979.163757,709.924377,979.796082,708.917786C980.47876,707.766357,981.033752,706.544373,981.452332,705.273254C981.953796,703.689331,982.57074,702.145325,983.299988,700.652161C984.041748,699.099365,984.87677,697.592346,985.799988,696.140442C986.630798,694.756348,987.411743,693.342346,988.139832,691.902161C988.620789,690.970337,989.057739,690.016357,989.448425,689.042786C989.805786,688.090332,990.071777,687.107361,990.2453,686.105286C990.331787,685.71637,990.395752,685.322327,990.436707,684.925598L989.342957,686.433411M1026.741333,811.070129C1025.614746,811.146362,1024.515747,811.44635,1023.507019,811.952942C1029.006714,814.457336,1034.759766,816.364319,1040.667114,817.640442C1038.452759,815.452332,1035.871704,813.671326,1033.042114,812.374817C1031.236694,811.555359,1029.285767,811.10437,1027.303833,811.046692L1026.741333,811.070129M1285.088989,740.222473C1283.115723,741.283325,1281.185669,742.408325,1279.288208,743.593567C1278.505737,744.051331,1277.795654,744.618347,1277.163208,745.273254C1276.665649,745.843323,1276.345703,746.537354,1276.194458,747.277161C1275.995728,748.177368,1275.975708,749.108337,1276.139771,750.015442C1276.505737,751.906372,1277.365723,753.66333,1278.639771,755.109192C1279.665649,756.297363,1280.925659,757.248352,1282.358521,757.894348C1282.815674,758.084351,1283.285767,758.240356,1283.772583,758.351379C1285.555664,752.120361,1286.615723,745.704346,1286.932739,739.230286L1285.088989,740.222473M1252.905396,666.206848L1252.827271,666.296692C1251.625732,667.714355,1250.915649,669.484375,1250.796021,671.339661C1250.695679,673.65033,1251.475708,675.912354,1252.987427,677.663879C1254.345703,679.270325,1256.105713,680.490356,1258.081177,681.202942C1259.395752,681.695374,1260.765747,682.055359,1262.155396,682.277161C1263.295654,682.407349,1264.445679,682.261353,1265.522583,681.859192C1266.185669,681.634338,1266.825684,681.371338,1267.460083,681.070129C1265.785767,679.07135,1264.015747,677.148376,1262.171021,675.304504L1252.979614,666.120911L1252.905396,666.206848M1043.788208,630.296692C1045.885742,631.681335,1048.35376,632.399353,1050.866333,632.351379C1052.772705,632.395325,1054.657715,631.93335,1056.327271,631.011536C1057.852783,630.149353,1059.056763,628.813354,1059.756958,627.206848C1060.309692,625.934326,1060.513794,624.537354,1060.346802,623.159973C1060.224731,621.352356,1059.371704,619.671326,1057.983521,618.507629C1057.547729,618.131348,1057.075684,617.800354,1056.573364,617.519348L1043.788208,630.296692M975.178894,736.441223C974.759766,736.495361,974.345764,736.58136,973.940613,736.702942C974.108765,745.137329,975.557739,753.497375,978.237488,761.495911C979.654785,758.954346,981.064758,756.449341,982.499207,753.917786C983.186768,752.675354,983.821777,751.405334,984.40155,750.109192C985.124756,748.596375,985.572754,746.96637,985.725769,745.296692C985.822754,743.325378,985.076782,741.404358,983.674988,740.015442C982.949768,739.295349,982.141785,738.66333,981.268738,738.132629C980.351746,737.546326,979.362793,737.082336,978.327332,736.749817C977.308777,736.438354,976.23877,736.333374,975.178894,736.441223M1107.124146,566.984192C1110.440796,567.024353,1113.768799,567.054321,1117.085083,567.074036C1118.618774,567.067383,1120.14978,567.04834,1121.682739,567.015442C1122.748779,566.986328,1123.808716,566.849365,1124.846802,566.605286C1126.133789,566.24231,1127.259766,565.452393,1128.042114,564.367004C1129.308716,562.767334,1129.903687,560.737305,1129.702271,558.706848C1129.50769,556.432373,1128.513794,554.300354,1126.893677,552.691223C1125.866699,551.754333,1124.550781,551.198364,1123.163208,551.113098C1123.115723,551.103394,1123.066772,551.101318,1123.018677,551.093567L1107.124146,566.984192M1140.667114,605.265442C1138.322754,605.459351,1136.068726,606.257324,1134.124146,607.581848L1134.100708,607.581848C1132.963745,608.326355,1131.931763,609.221375,1131.034302,610.242004C1129.810791,611.660339,1129.108765,613.455322,1129.042114,615.327942C1129.02771,616.679321,1129.230713,618.02533,1129.643677,619.312317C1130.20874,621.076355,1130.956787,622.77533,1131.878052,624.382629C1132.417725,625.294373,1133.066772,626.136353,1133.811646,626.890442C1134.388794,627.458374,1135.050781,627.931335,1135.776489,628.288879C1137.236694,629.003357,1138.924683,629.092346,1140.452271,628.534973C1141.523682,628.139343,1142.503784,627.529358,1143.331177,626.742004C1145.615723,624.530334,1147.459717,621.904358,1148.764771,619.003723C1149.229736,617.921326,1149.582764,616.794373,1149.819458,615.640442C1150.131714,614.146362,1150.118774,612.601318,1149.780396,611.113098C1149.305786,609.20636,1148.086792,607.569336,1146.397583,606.566223C1144.861694,605.649353,1143.095703,605.188354,1141.307739,605.238098L1140.667114,605.265442M1024.799927,772.011536C1023.279785,771.993347,1021.775757,772.325378,1020.405457,772.984192C1018.923767,773.734375,1017.756775,774.986328,1017.116394,776.519348C1016.676758,777.52832,1016.40979,778.605347,1016.331238,779.702942C1016.196777,780.763367,1016.216797,781.836365,1016.393738,782.890442C1016.707764,784.609375,1017.74176,786.114319,1019.237488,787.019348C1019.709778,787.319336,1020.214783,787.563354,1020.741394,787.749817C1021.884766,788.166321,1023.069763,788.460327,1024.276489,788.624817C1027.117798,788.976318,1030.101685,789.350342,1032.940552,789.710754C1034.11377,789.895325,1035.292725,790.034363,1036.475708,790.128723C1036.770752,790.137329,1037.066772,790.139343,1037.362427,790.136536C1038.697754,790.113342,1039.984741,789.638367,1041.018677,788.792786C1041.931763,788.064331,1042.712769,787.184326,1043.327271,786.191223C1044.114746,784.853333,1044.34668,783.258362,1043.979614,781.749817C1043.94873,781.537354,1043.889771,781.329346,1043.811646,781.128723L1043.811646,781.093567C1043.403687,779.865356,1042.822754,778.700378,1042.085083,777.636536C1041.272705,776.544373,1040.210693,775.66333,1038.987427,775.066223C1038.310791,774.718323,1037.604736,774.429321,1036.878052,774.202942C1035.469727,773.758362,1034.040771,773.380371,1032.596802,773.070129C1031.790771,772.904358,1030.983765,772.734375,1030.178833,772.562317C1028.830688,772.306335,1027.46875,772.126343,1026.100708,772.023254C1025.666748,772.014343,1025.233765,772.011353,1024.799927,772.011536M1007.460144,762.546692C1005.88678,762.645325,1004.370789,763.180359,1003.085144,764.093567C1002.156799,764.768372,1001.357788,765.606323,1000.721863,766.562317C1000.128784,767.464355,999.625793,768.422363,999.217957,769.421692C998.691772,770.665344,998.249756,771.942322,997.897644,773.245911C997.598755,774.245361,997.325745,775.252319,997.077332,776.265442C996.144775,779.738342,995.029785,783.159363,993.737488,786.515442L992.96405,788.398254C996.260742,792.467346,999.939758,796.212341,1003.948425,799.581848C1004.283752,799.031372,1004.605774,798.474365,1004.917175,797.909973C1006.214783,795.516357,1007.543762,793.136353,1008.90155,790.777161C1010.305786,788.197327,1011.236755,785.387329,1011.65155,782.480286C1012.24176,779.915344,1013.14978,777.43335,1014.354675,775.093567C1014.852783,774.092346,1015.270752,773.052368,1015.604675,771.984192C1016.08075,770.389343,1015.921753,768.672363,1015.163269,767.191223C1014.859741,766.579346,1014.485779,766.006348,1014.049988,765.480286C1014.014771,765.435364,1013.975769,765.395325,1013.940613,765.351379C1012.514771,763.726318,1010.510742,762.723328,1008.354675,762.558411C1008.056763,762.537354,1007.757751,762.530334,1007.460144,762.546692M1133.823364,754.222473C1131.932739,754.232361,1130.080688,754.754333,1128.463989,755.734192L1127.979614,756.054504C1126.779785,756.91333,1125.855713,758.102356,1125.327271,759.480286C1125.025757,760.349365,1124.873779,761.263367,1124.881958,762.183411C1124.856689,763.834351,1124.957764,765.485352,1125.186646,767.120911C1125.364746,768.684326,1125.474731,770.255371,1125.518677,771.827942C1125.754761,777.090332,1125.852783,782.357361,1125.811646,787.624817C1128.641724,786.125366,1132.019775,786.078369,1134.893677,787.492004C1135.876709,787.974365,1136.772705,788.615356,1137.546021,789.390442C1138.608765,790.500366,1139.691772,791.588318,1140.796021,792.656067C1140.418701,785.603333,1140.499756,778.534363,1141.038208,771.492004C1141.115723,770.352356,1141.226685,769.214355,1141.374146,768.081848C1141.449707,767.559326,1141.542725,767.039368,1141.651489,766.523254C1141.951782,765.266357,1142.223755,764.003357,1142.467896,762.734192C1142.580688,762.121338,1142.634766,761.498352,1142.620239,760.874817C1142.60376,759.851318,1142.273682,758.857361,1141.674927,758.027161C1140.835693,756.800354,1139.686768,755.815369,1138.342896,755.179504C1136.929688,754.517334,1135.383789,754.191345,1133.823364,754.222473M1011.217957,662.855286C1011.913757,668.217346,1012.516785,673.593323,1013.02655,678.976379C1013.250793,681.438354,1013.617798,683.885376,1014.124207,686.304504L1014.186707,686.597473C1014.364746,687.500366,1014.675781,688.371338,1015.108582,689.183411C1015.304749,689.465332,1015.503784,689.745361,1015.706238,690.023254C1016.76178,691.233337,1018.234741,692.003357,1019.831238,692.179504C1021.02179,692.317322,1022.227783,692.19635,1023.366394,691.824036C1024.569702,691.450378,1025.710693,690.897339,1026.749146,690.183411C1028.038696,689.374329,1029.099731,688.248352,1029.831177,686.913879C1030.564697,685.512329,1030.858765,683.922363,1030.674927,682.351379C1030.547729,681.122375,1030.256714,679.916321,1029.807739,678.765442C1029.467773,677.834351,1029.080688,676.922363,1028.647583,676.031067C1027.994751,674.660339,1027.432739,673.248352,1026.963989,671.804504C1026.454712,670.139343,1026.117798,668.425354,1025.960083,666.691223L1025.858521,665.390442C1025.720703,662.297363,1025.686768,659.200378,1025.756958,656.105286C1025.802734,653.53833,1025.775757,650.971375,1025.674927,648.406067L1011.217957,662.855286M1202.819458,798.503723C1202.695679,798.504333,1202.565674,798.517334,1202.436646,798.534973C1201.205688,798.702332,1199.995728,799.04834,1198.858521,799.558411C1196.015747,800.877319,1193.245728,802.334351,1190.553833,803.925598C1190.075684,804.234375,1189.595703,804.535339,1189.116333,804.831848C1188.755737,805.086365,1188.395752,805.334351,1188.022583,805.574036C1186.895752,806.361328,1185.825684,807.231323,1184.827393,808.175598C1183.535767,809.365356,1182.525757,810.827332,1181.866333,812.456848C1181.345703,813.855347,1181.265747,815.375366,1181.612427,816.824036C1187.695679,818.410339,1193.945679,819.306335,1200.229614,819.495911C1199.265747,818.534363,1198.365723,817.509338,1197.530396,816.429504C1197.265747,815.929321,1197.155762,815.363342,1197.206299,814.800598C1197.235718,814.425354,1197.355713,814.06134,1197.557739,813.745911L1197.698486,813.550598C1197.905762,813.304321,1198.175781,813.111328,1198.483521,812.999817C1198.695679,812.909363,1198.925781,812.852356,1199.163208,812.839661C1199.715698,812.781372,1200.265747,812.847351,1200.788208,813.031067C1201.315796,813.286377,1201.785767,813.632324,1202.194458,814.054504C1203.195679,815.092346,1204.115723,816.212341,1204.940552,817.402161C1205.445679,818.096375,1205.965698,818.779358,1206.499146,819.449036C1213.725708,819.133362,1220.885742,817.879333,1227.788208,815.718567C1225.935669,814.699341,1224.065674,813.666321,1222.221802,812.636536C1220.415649,811.539368,1218.715698,810.284363,1217.135864,808.886536C1216.045654,807.918335,1214.995728,806.910339,1213.979614,805.863098C1212.835693,804.675354,1211.685669,803.498352,1210.514771,802.335754C1209.885742,801.728333,1209.225708,801.146362,1208.553833,800.589661C1208.085693,800.223328,1207.585693,799.884338,1207.077271,799.574036C1205.915649,798.874329,1204.575684,798.500366,1203.217896,798.495911L1202.819458,798.503723M1128.370239,569.273254C1127.896729,569.312378,1127.426758,569.386353,1126.963989,569.495911C1125.167725,569.901367,1123.410767,570.466309,1121.713989,571.183411C1120.709717,571.605347,1119.638794,571.847351,1118.549927,571.898254C1117.729736,571.949341,1116.906738,571.955322,1116.085083,571.917786C1111.702759,571.723389,1107.32373,571.470337,1102.948364,571.159973L1089.397583,584.710754C1090.973755,584.849365,1092.551758,584.955322,1094.131958,585.031067C1098.880737,585.240356,1103.623779,585.532349,1108.362427,585.909973C1109.956787,586.047363,1111.547729,586.211304,1113.135864,586.402161C1114.97168,586.745361,1116.826782,586.973389,1118.690552,587.085754L1118.827271,587.113098C1121.290771,587.282349,1123.766724,587.118347,1126.186646,586.624817C1128.08374,586.20636,1129.923706,585.56134,1131.667114,584.702942C1132.830688,584.146362,1133.876709,583.372314,1134.749146,582.421692C1134.855713,582.272339,1134.97168,582.129333,1135.092896,581.992004C1136.321777,580.255371,1136.707764,578.059326,1136.143677,576.007629C1135.494751,573.520386,1133.89978,571.386353,1131.698364,570.058411C1130.687744,569.482361,1129.531738,569.208374,1128.370239,569.273254M1242.897583,675.800598C1241.515747,675.866333,1240.145752,676.197327,1238.889771,676.777161C1237.145752,677.59137,1235.615723,678.82135,1234.456177,680.359192C1234.145752,680.797363,1233.865723,681.261353,1233.635864,681.749817C1233.405762,682.254333,1233.245728,682.78833,1233.155396,683.335754C1233.015747,684.717346,1233.235718,686.112366,1233.807739,687.378723C1234.005737,687.83136,1234.245728,688.269348,1234.506958,688.687317C1234.835693,689.176331,1235.205688,689.637329,1235.612427,690.062317C1236.415649,690.894348,1237.315674,691.632324,1238.284302,692.261536C1239.785767,693.226318,1241.365723,694.064331,1243.003052,694.765442C1245.555664,695.868347,1248.155762,696.848328,1250.803833,697.702942C1252.515747,698.246338,1254.065674,698.732361,1255.780396,699.261536C1257.295654,699.721375,1258.825684,700.131348,1260.366333,700.492004C1261.915649,700.836365,1263.485718,701.065369,1265.069458,701.175598C1267.775757,701.320374,1270.475708,700.755371,1272.901489,699.534973C1274.585693,698.661377,1276.185669,697.631348,1277.674927,696.456848C1275.535767,692.274353,1273.035767,688.285339,1270.202271,684.534973C1269.625732,684.978333,1268.985718,685.329346,1268.299927,685.570129C1267.595703,685.834351,1266.855713,686.008362,1266.108521,686.085754C1264.745728,686.21936,1263.375732,686.231323,1262.018677,686.120911C1260.465698,686.059326,1258.935669,685.825378,1257.436646,685.421692C1256.125732,685.023376,1254.895752,684.372375,1253.835083,683.507629C1253.055664,682.909363,1252.325684,682.259338,1251.643677,681.558411C1250.745728,680.641357,1249.855713,679.713318,1248.983521,678.773254C1248.315674,678.07135,1247.585693,677.428345,1246.803833,676.847473C1245.665649,676.05835,1244.285767,675.685364,1242.897583,675.800598M1130.850708,545.960754L1130.385864,547.421692L1130.354614,547.495911L1130.338989,547.574036C1130.248779,548.059326,1130.275757,548.559326,1130.421021,549.031067C1131.085693,551.148315,1131.72876,553.275391,1132.346802,555.406067C1132.874756,557.317383,1133.319702,559.250366,1133.682739,561.199036C1133.806763,561.754333,1133.953735,562.304321,1134.124146,562.847473C1135.016724,565.449341,1136.087769,567.987305,1137.331177,570.441223C1138.161743,572.143311,1139.057739,573.814331,1140.014771,575.449036C1140.639771,576.497314,1141.330688,577.504333,1142.085083,578.464661C1142.605713,579.089355,1143.22168,579.628357,1143.909302,580.062317C1146.148682,581.431335,1148.500732,582.606323,1150.940552,583.574036C1155.02771,585.428345,1159.006714,587.512329,1162.858521,589.816223L1170.034302,594.120911C1170.712769,594.512329,1171.513794,594.633362,1172.276489,594.456848C1173.734741,594.106323,1175.197754,593.747314,1176.651489,593.382629C1177.665771,593.164307,1178.695679,592.996338,1179.721802,592.878723L1157.003052,570.167786C1154.6427,568.504333,1152.586792,566.447388,1150.924927,564.085754L1131.331177,544.503723L1130.850708,545.960754M1017.268738,790.781067C1016.487793,790.830322,1015.726746,791.045349,1015.030457,791.402161C1013.910767,791.959351,1012.937744,792.771362,1012.194519,793.777161L1012.132019,793.839661C1010.966797,795.358337,1009.912781,796.960327,1008.979675,798.632629C1008.361755,799.800354,1007.730774,800.959351,1007.085144,802.113098C1010.667786,804.858337,1014.465759,807.309326,1018.444519,809.441223C1018.964783,808.876343,1019.566772,808.395325,1020.229675,808.007629C1020.579773,807.81134,1020.949768,807.652344,1021.331238,807.527161C1021.855774,807.389343,1022.391785,807.29834,1022.9328,807.253723C1026.744751,806.949341,1030.579712,807.394348,1034.221802,808.562317C1035.247681,808.893372,1036.226685,809.356323,1037.131958,809.941223C1038.03772,810.52533,1038.908691,811.160339,1039.745239,811.839661C1042.406738,813.93634,1044.88269,816.257324,1047.147583,818.777161C1053.02478,819.570374,1058.969727,819.739319,1064.881958,819.281067C1064.389771,818.464355,1063.879761,817.658325,1063.354614,816.863098C1060.598755,812.884338,1057.489746,809.162354,1054.065552,805.742004C1051.736694,803.372375,1049.374756,801.040344,1046.975708,798.742004C1046.064697,797.872375,1045.116699,797.040344,1044.135864,796.249817C1043.316772,795.609375,1042.437744,795.050354,1041.510864,794.577942L1041.292114,794.472473C1039.918701,793.867371,1038.440796,793.531372,1036.940552,793.488098C1035.588745,793.420349,1034.234741,793.40332,1032.881958,793.437317C1031.131714,793.438354,1029.38269,793.336365,1027.643677,793.132629C1026.27771,792.943359,1024.929688,792.644348,1023.612488,792.238098C1022.402771,791.835327,1021.183777,791.462341,1019.956238,791.117004C1019.270752,790.932373,1018.567749,790.818359,1017.858582,790.777161C1017.661743,790.766357,1017.464783,790.768372,1017.268738,790.781067M1094.956177,764.847473C1094.018799,764.929321,1093.088745,765.084351,1092.174927,765.312317C1090.672729,765.660339,1089.196777,766.111328,1087.756958,766.663879L1087.674927,766.679504C1084.811768,767.738342,1082.016724,768.974365,1079.307739,770.382629C1077.607788,771.246338,1075.94873,772.187378,1074.335083,773.202942C1073.035767,774.026367,1071.775757,774.908325,1070.557739,775.847473C1069.489746,776.690369,1068.526733,777.657349,1067.690552,778.730286C1067.09668,779.574341,1066.66272,780.520325,1066.405396,781.519348C1065.934692,783.145325,1065.982788,784.878357,1066.553833,786.472473L1066.706177,786.863098C1067.088745,787.758362,1067.616699,788.584351,1068.272583,789.304504C1069.393799,790.608337,1070.794678,791.642334,1072.370239,792.331848C1073.578735,792.835327,1074.88269,793.067322,1076.190552,793.015442C1077.936768,792.954346,1079.590698,792.222351,1080.811646,790.972473C1081.292725,790.422363,1081.724731,789.83136,1082.104614,789.206848C1082.828735,788.055359,1083.494751,786.869324,1084.100708,785.652161C1084.542725,784.783325,1084.993774,783.920349,1085.456177,783.062317C1085.871704,782.330322,1086.311768,781.612366,1086.776489,780.909973C1087.148682,780.369324,1087.602783,779.891357,1088.120239,779.488098C1088.539795,779.189331,1089.051758,779.054321,1089.565552,779.089661C1090.035767,779.086365,1090.502686,779.161377,1090.948364,779.312317L1091.245239,779.456848C1091.733765,779.838318,1092.092773,780.362366,1092.268677,780.956848C1092.307739,781.180359,1092.312744,781.409363,1092.268677,781.632629C1092.069702,782.356323,1091.753784,783.043335,1091.331177,783.663879C1090.422729,785.006348,1089.411743,786.277344,1088.307739,787.464661C1086.94873,788.878357,1085.646729,790.345337,1084.405396,791.863098C1083.582764,792.847351,1082.896729,793.938354,1082.362427,795.105286C1082.250732,795.330322,1082.157715,795.564331,1082.100708,795.808411C1081.701782,796.94635,1081.551758,798.157349,1081.659302,799.359192C1081.793701,800.592346,1082.067749,801.805359,1082.475708,802.976379C1082.98877,804.519348,1083.564697,806.040344,1084.202271,807.534973C1085.052734,809.90033,1085.779785,812.30835,1086.378052,814.749817C1088.856689,813.882324,1091.291748,812.895325,1093.674927,811.792786C1095.85376,810.70636,1097.989746,809.534363,1100.077271,808.281067C1099.182739,807.534363,1098.413696,806.649353,1097.799927,805.659973C1097.202759,804.617371,1097.031738,803.385376,1097.319458,802.218567C1097.487793,801.375366,1097.748779,800.553345,1098.092896,799.765442C1098.687744,798.338318,1099.376709,796.952332,1100.155396,795.617004C1101.436768,793.452332,1102.696777,791.30835,1103.963989,789.136536L1104.042114,788.980286L1104.116333,788.824036C1104.189697,788.637329,1104.252686,788.44635,1104.307739,788.253723C1104.335693,788.103333,1104.35376,787.952332,1104.370239,787.800598L1104.370239,779.374817C1104.361694,778.155334,1104.320679,776.93634,1104.245239,775.718567C1104.189697,775.185364,1104.140747,774.651367,1104.100708,774.117004C1103.989746,773.086365,1103.799683,772.065369,1103.534302,771.062317C1103.224731,769.866333,1102.699707,768.736328,1101.987427,767.726379C1100.737793,766.087341,1098.859741,765.046326,1096.807739,764.851379C1096.192749,764.785339,1095.571777,764.784363,1094.956177,764.847473M1228.862427,772.335754C1227.035767,772.429321,1225.255737,772.932373,1223.651489,773.808411C1222.555664,774.394348,1221.535767,775.107361,1220.604614,775.933411C1219.175659,777.168335,1217.875732,778.549377,1216.725708,780.054504C1214.995728,782.260376,1213.395752,784.573364,1211.956177,786.980286C1211.335693,788.033325,1210.815674,789.145325,1210.417114,790.300598C1209.965698,791.764343,1209.885742,793.32135,1210.213989,794.820129C1210.405762,795.568359,1210.695679,796.286377,1211.085083,796.952942C1211.685669,797.986328,1212.395752,798.94635,1213.217896,799.816223C1214.495728,801.172363,1215.865723,802.435364,1217.323364,803.597473C1218.955688,804.907349,1220.645752,806.154358,1222.370239,807.335754C1225.785767,809.660339,1229.285767,811.867371,1232.858521,813.952942C1238.215698,811.902344,1243.335693,809.301331,1248.155396,806.191223C1246.435669,805.277344,1244.755737,804.300354,1243.116333,803.261536C1239.395752,800.895325,1235.715698,798.475342,1232.069458,796.003723C1230.335693,794.869324,1228.565674,793.782349,1226.768677,792.742004C1225.765747,792.097351,1225.035767,791.10437,1224.721802,789.952942C1224.675659,789.730347,1224.645752,789.504333,1224.643677,789.277161C1224.615723,788.728333,1224.845703,788.199341,1225.253052,787.831848C1225.875732,787.210327,1226.715698,786.862366,1227.592896,786.874817C1227.685669,786.879333,1227.785767,786.891357,1227.874146,786.909973C1228.715698,787.365356,1229.525757,787.883362,1230.299927,788.456848C1231.685669,789.498352,1233.035767,790.59137,1234.338989,791.734192C1237.575684,794.450378,1240.965698,796.962341,1244.510864,799.257629C1245.255737,799.772339,1246.025757,800.259338,1246.803833,800.718567L1246.862427,800.749817C1247.325684,801.013367,1247.785767,801.282349,1248.245239,801.558411C1248.285767,801.590332,1248.335693,801.623352,1248.378052,801.656067L1249.827271,802.464661L1249.893677,802.488098C1250.585693,802.860352,1251.285767,803.222351,1251.987427,803.574036C1256.025757,800.649353,1259.805664,797.370361,1263.260864,793.777161C1262.635742,793.509338,1262.025757,793.214355,1261.421021,792.894348C1258.695679,791.478333,1256.095703,789.828369,1253.651489,787.964661C1251.345703,786.230347,1249.135742,784.364319,1247.042114,782.374817C1244.875732,780.289368,1242.585693,778.34436,1240.171021,776.550598C1238.635742,775.440369,1237.005737,774.478333,1235.292114,773.679504C1233.285767,772.736328,1231.085693,772.274353,1228.862427,772.335754M1165.698364,733.320129C1165.582764,733.336365,1165.466797,733.347351,1165.350708,733.351379L1165.155396,733.351379C1163.884766,733.468323,1162.623779,733.674377,1161.381958,733.968567C1159.75769,734.33136,1158.15271,734.774353,1156.573364,735.296692C1154.380737,736.020325,1152.120728,736.518372,1149.827271,736.784973C1147.765747,737.007324,1145.689697,737.055359,1143.620239,736.929504C1141.509766,736.823364,1139.404785,736.639343,1137.307739,736.378723C1134.381714,736.066345,1131.430786,736.05835,1128.503052,736.355286C1127.976685,736.42334,1127.452759,736.510376,1126.932739,736.617004C1126.47168,736.734375,1126.009766,736.846375,1125.546021,736.952942C1125.08374,737.074341,1124.627686,737.221375,1124.182739,737.398254L1123.628052,737.558411C1121.057739,738.497375,1118.571777,739.65332,1116.198364,741.015442C1114.916748,741.772339,1113.675781,742.59436,1112.479614,743.480286C1111.403687,744.300354,1110.386719,745.193359,1109.432739,746.152161C1108.304688,747.322327,1107.490723,748.758362,1107.069458,750.327942C1106.686768,751.769348,1106.379761,753.22937,1106.147583,754.702942C1105.709717,757.368347,1105.261719,760.033325,1104.803833,762.695129C1104.797729,762.724365,1104.793701,762.747375,1104.788208,762.777161L1104.753052,763.058411C1104.735718,763.434326,1104.785767,763.812378,1104.909302,764.167786L1106.819458,769.824036C1107.369751,771.340332,1107.801758,772.897339,1108.112427,774.480286C1108.227783,775.116333,1108.322754,775.756348,1108.397583,776.398254C1108.646729,779.509338,1108.644775,782.635376,1108.393677,785.745911C1108.264771,787.305359,1107.94873,788.84436,1107.452271,790.327942C1106.86377,791.895325,1106.104736,793.392334,1105.186646,794.792786C1104.170776,796.352356,1103.376709,798.045349,1102.827271,799.824036C1102.325684,801.485352,1102.292725,803.253357,1102.741333,804.929504C1102.875732,805.402344,1103.056763,805.861328,1103.284302,806.296692C1110.210693,801.836365,1116.579712,796.563354,1122.253052,790.589661C1122.545776,787.656372,1122.661743,784.708374,1122.600708,781.761536C1122.543701,779.907349,1122.410767,778.057373,1122.202271,776.214661C1121.816772,772.818359,1121.35376,769.429321,1120.811646,766.054504C1120.492798,763.968323,1120.337769,761.860352,1120.346802,759.749817C1120.35376,758.464355,1120.762695,757.214355,1121.503052,756.163879C1122.227783,755.056335,1123.148682,754.09137,1124.217896,753.312317C1126.049683,751.931335,1128.165771,750.977356,1130.413208,750.519348C1131.674683,750.235352,1132.96875,750.118347,1134.260864,750.167786C1135.151733,750.242371,1136.029785,750.425354,1136.874146,750.718567C1138.247681,751.215332,1139.610718,751.738342,1140.963989,752.288879C1142.164795,752.789368,1143.416748,753.157349,1144.698364,753.382629C1145.602783,753.51532,1146.522705,753.498352,1147.421021,753.331848C1147.891724,753.256348,1148.356689,753.148376,1148.811646,753.007629C1151.560791,752.252319,1154.340698,751.615356,1157.143677,751.097473C1158.374756,750.838318,1159.606689,750.59436,1160.842896,750.363098C1162.664795,750.008362,1164.470703,749.572327,1166.253052,749.054504C1167.607788,748.672363,1168.903687,748.109375,1170.108521,747.382629C1171.723755,746.316345,1173.097778,744.924377,1174.143677,743.296692L1174.315552,742.999817C1174.908691,741.928345,1175.121704,740.687378,1174.917114,739.480286C1174.896729,739.430359,1174.878784,739.380371,1174.874146,739.327942C1174.72876,738.623352,1174.45874,737.950378,1174.077271,737.339661C1174.012695,737.228333,1173.946777,737.118347,1173.874146,737.011536C1173.443726,736.350342,1172.936768,735.743347,1172.362427,735.202942C1171.481689,734.425354,1170.420776,733.879333,1169.276489,733.613098C1168.620728,733.44635,1167.94873,733.350342,1167.272583,733.327942C1167.22876,733.323364,1167.183716,733.318359,1167.139771,733.312317C1166.65979,733.293335,1166.178711,733.296326,1165.698364,733.320129M1238.588989,652.288879C1238.475708,653.513367,1238.165649,654.709351,1237.651489,655.827942C1237.075684,656.992371,1236.275757,658.02832,1235.280396,658.867004C1233.965698,659.815369,1232.585693,660.672363,1231.151489,661.433411C1229.965698,662.069336,1228.755737,662.660339,1227.522583,663.206848C1227.065674,663.392334,1226.605713,663.560364,1226.139771,663.710754C1225.705688,663.749329,1225.265747,663.832336,1224.850708,663.968567C1222.875732,664.620361,1220.975708,665.470337,1219.171021,666.503723C1217.665649,667.370361,1216.425659,668.631348,1215.592896,670.152161C1215.075684,671.161377,1214.715698,672.246338,1214.530396,673.367004C1214.325684,674.596375,1214.215698,675.839355,1214.194458,677.085754C1214.145752,680.072327,1214.225708,683.059326,1214.436646,686.038879C1214.575684,688.041321,1214.935669,690.022339,1215.506958,691.945129C1215.725708,692.669373,1215.995728,693.375366,1216.323364,694.058411C1216.985718,695.514343,1217.795654,696.90033,1218.737427,698.195129C1220.435669,700.55835,1222.255737,702.827332,1224.198364,704.992004C1224.895752,705.784363,1225.625732,706.539368,1226.405396,707.253723C1228.405762,709.09436,1230.715698,710.576355,1233.221802,711.632629C1234.515747,712.201355,1235.845703,712.693359,1237.194458,713.105286C1239.435669,713.802368,1241.705688,714.439331,1243.979614,715.015442C1249.275757,716.360352,1254.545654,717.790344,1259.796021,719.304504C1260.215698,719.404358,1260.635742,719.522339,1261.049927,719.663879C1263.215698,720.279358,1265.425659,720.748352,1267.659302,721.070129C1267.935669,721.086365,1268.215698,721.112366,1268.491333,721.152161C1269.745728,721.204346,1271.015747,721.06134,1272.225708,720.726379C1273.365723,720.439331,1274.475708,720.053345,1275.553833,719.574036C1277.765747,718.601318,1279.895752,717.445374,1281.924927,716.120911L1281.948364,716.120911C1282.125732,715.96637,1282.325684,715.832336,1282.534302,715.714661C1283.195679,715.314331,1283.845703,714.880371,1284.467896,714.413879C1283.255737,709.545349,1281.595703,704.797363,1279.514771,700.230286C1277.705688,701.589355,1275.795654,702.802368,1273.803833,703.859192C1271.845703,704.863342,1269.675659,705.412354,1267.475708,705.464661C1265.745728,705.484375,1264.005737,705.322327,1262.307739,704.984192C1260.045654,704.537354,1257.805664,703.995361,1255.588989,703.359192C1251.515747,702.213318,1247.475708,700.970337,1243.467896,699.632629C1242.095703,699.151367,1240.735718,698.621338,1239.401489,698.042786C1237.425659,697.159363,1235.605713,695.958374,1234.010864,694.488098C1233.085693,693.563354,1232.275757,692.526367,1231.596802,691.402161C1230.325684,689.372375,1229.385742,687.149353,1228.819458,684.820129C1228.425659,683.035339,1228.485718,681.18335,1228.963989,679.421692C1229.325684,678.360352,1230.005737,677.438354,1230.909302,676.777161L1231.210083,676.550598C1232.485718,675.71936,1233.855713,675.037354,1235.292114,674.519348C1236.685669,673.993347,1238.105713,673.499329,1239.522583,673.038879C1241.205688,672.444336,1242.825684,671.679321,1244.354614,670.757629C1246.415649,669.467346,1248.195679,667.776367,1249.592896,665.784973C1250.035767,665.190369,1250.435669,664.569336,1250.796021,663.925598L1238.635864,651.777161L1238.588989,652.288879M1055.721802,651.761536C1053.530762,651.865356,1051.433716,652.681335,1049.749146,654.085754C1048.59668,655.000366,1047.78479,656.27533,1047.448364,657.706848C1047.115723,659.398376,1047.489746,661.15033,1048.483521,662.558411C1048.666748,662.847351,1048.870728,663.122375,1049.092896,663.382629C1049.265747,663.596375,1049.451782,663.799377,1049.651489,663.988098C1050.44873,664.797363,1051.34668,665.499329,1052.323364,666.077942L1052.413208,666.144348C1054.071777,667.134338,1055.836792,667.93335,1057.674927,668.527161C1058.897705,668.877319,1060.104736,669.280334,1061.292114,669.734192C1062.356689,670.148376,1063.34375,670.740356,1064.210083,671.484192C1064.618774,671.823364,1065.011719,672.181335,1065.385864,672.558411C1066.59668,673.804321,1067.827759,675.031372,1069.077271,676.238098C1070.028687,677.162354,1071.068726,677.990356,1072.182739,678.710754C1073.630737,679.584351,1075.268799,680.096375,1076.956177,680.202942C1078.121704,680.290344,1079.291748,680.323364,1080.460083,680.300598C1081.599731,680.324341,1082.734741,680.454346,1083.850708,680.687317C1084.481689,680.843323,1085.080688,681.109375,1085.620239,681.472473C1086.1427,681.876343,1086.545776,682.414368,1086.780396,683.031067L1086.971802,683.542786C1087.28772,684.616333,1087.483765,685.722351,1087.553833,686.839661C1087.664795,688.223328,1087.699707,689.612366,1087.659302,690.999817C1087.602783,692.909363,1087.640747,694.820374,1087.772583,696.726379C1087.858765,697.701355,1088.030762,698.667358,1088.284302,699.613098C1088.625732,700.79834,1089.289795,701.865356,1090.202271,702.695129C1090.896729,703.276367,1091.707764,703.701355,1092.581177,703.937317C1093.229736,704.109375,1093.894775,704.209351,1094.565552,704.238098C1095.685791,704.31134,1096.809692,704.244324,1097.913208,704.038879C1099.1427,703.769348,1100.291748,703.213318,1101.264771,702.413879C1102.669678,701.328369,1103.834717,699.963318,1104.686646,698.406067C1104.90271,698.008362,1105.080688,697.59137,1105.217896,697.159973C1105.473755,696.368347,1105.492798,695.519348,1105.268677,694.718567L1105.116333,694.238098C1104.467773,692.619324,1103.65271,691.073364,1102.682739,689.624817C1102.266724,688.982361,1101.845703,688.343323,1101.421021,687.706848C1100.888794,686.882324,1100.444702,686.003357,1100.096802,685.085754C1099.919678,684.552368,1099.836792,683.991333,1099.850708,683.429504C1099.944702,682.631348,1100.222778,681.866333,1100.659302,681.191223C1100.883789,680.888367,1101.158691,680.627319,1101.471802,680.417786C1101.881714,680.108337,1102.320679,679.838318,1102.780396,679.609192C1104.423706,678.777344,1106.110718,678.036377,1107.835083,677.390442C1109.954712,676.503357,1112.134766,675.767334,1114.358521,675.187317C1116.493774,674.678345,1118.704712,674.560364,1120.881958,674.839661C1122.879761,675.126343,1124.855713,675.541321,1126.799927,676.081848C1127.693726,676.294373,1128.598755,676.455322,1129.510864,676.566223C1130.746704,676.688354,1131.98877,676.425354,1133.073364,675.820129C1133.920776,675.384338,1134.694702,674.820374,1135.370239,674.148254C1136.190796,673.277344,1136.732788,672.181335,1136.924927,670.999817C1137.294678,668.609375,1137.064697,666.165344,1136.253052,663.886536C1135.967773,663.107361,1135.545776,662.384338,1135.003052,661.757629C1134.281738,660.971375,1133.420776,660.327332,1132.463989,659.855286C1131.50769,659.352356,1130.489746,658.975342,1129.436646,658.734192C1128.654785,658.540344,1127.861694,658.395325,1127.061646,658.300598C1126.715698,658.241333,1126.365723,658.209351,1126.014771,658.210754C1123.351685,657.999329,1120.671753,658.217346,1118.077271,658.855286C1117.442749,659.003357,1116.819702,659.192322,1116.210083,659.421692C1115.943726,659.481323,1115.686768,659.574341,1115.440552,659.691223C1115.286743,659.738342,1115.134766,659.791321,1114.987427,659.855286C1111.226685,661.349365,1107.183716,662.961365,1103.428833,664.464661C1102.621704,664.809326,1101.804688,665.131348,1100.979614,665.429504C1099.483765,666.062378,1097.942749,666.583374,1096.370239,666.988098L1095.467896,667.191223C1094.900757,667.306335,1094.326782,667.384338,1093.749146,667.421692C1091.360718,667.573364,1088.965698,667.575378,1086.577271,667.429504C1085.84668,667.361328,1085.124756,667.222351,1084.421021,667.015442C1082.1427,666.227356,1079.959717,665.189331,1077.909302,663.921692C1075.476685,662.473328,1073.157715,660.842346,1070.971802,659.042786C1069.176758,657.60437,1067.307739,656.263367,1065.370239,655.023254C1064.089722,654.209351,1062.743774,653.502319,1061.346802,652.909973C1059.575684,652.129333,1057.657715,651.738342,1055.721802,651.761536M1076.436646,683.589661C1075.372681,683.619324,1074.342773,683.965332,1073.475708,684.581848C1072.431763,685.348328,1071.589722,686.357361,1071.018677,687.519348C1070.506714,688.565369,1070.012695,689.619324,1069.538208,690.683411C1069.084717,691.655334,1068.612793,692.617371,1068.120239,693.570129C1067.584717,694.586365,1066.962769,695.555359,1066.260864,696.464661C1065.481689,697.396362,1064.564697,698.202332,1063.538208,698.851379C1062.783691,699.346375,1061.995728,699.787354,1061.178833,700.171692C1059.444702,701.02832,1057.669678,701.797363,1055.858521,702.476379C1052.633789,703.732361,1049.389771,704.945374,1046.131958,706.113098L1041.796021,707.734192C1038.532715,708.975342,1035.327759,710.369324,1032.194458,711.909973C1031.700684,712.16333,1031.207764,712.416321,1030.713989,712.671692L1030.659302,712.695129C1027.441772,714.348328,1024.385742,716.29834,1021.530457,718.519348C1021.199768,718.81134,1020.858765,719.09137,1020.507019,719.359192C1020.166748,719.679321,1019.806763,719.97937,1019.428894,720.253723C1017.987793,721.468323,1016.467773,722.585327,1014.878113,723.597473C1013.627747,724.360352,1012.303772,724.993347,1010.924988,725.488098C1008.061768,726.40033,1005.081787,726.896362,1002.077332,726.960754C999.622742,726.984375,997.181763,726.592346,994.858582,725.800598C992.460754,724.958374,990.212769,723.737366,988.202332,722.183411C987.224792,721.405334,986.259766,720.610352,985.3078,719.800598C984.466797,719.095337,983.581787,718.443359,982.659363,717.847473C981.51178,717.117371,980.234741,716.613342,978.897644,716.363098C977.94574,716.202332,976.974792,716.190369,976.018738,716.327942C974.785767,721.70636,974.094788,727.194336,973.956238,732.710754C975.952759,732.511353,977.961792,732.476318,979.96405,732.605286L980.217957,732.648254C980.578796,732.846375,980.922791,733.075378,981.241394,733.335754C982.561768,734.325378,983.803772,735.416321,984.956238,736.597473L989.178894,740.902161L989.378113,741.093567C989.477783,741.174377,989.58075,741.248352,989.686707,741.320129C989.796753,741.385376,989.906799,741.449341,990.018738,741.511536C990.283752,741.637329,990.564758,741.725342,990.854675,741.769348C991.086792,741.797363,991.319763,741.80835,991.553894,741.808411C993.71875,741.57135,995.881775,741.352356,998.049988,741.152161C998.317749,741.128357,998.58374,741.100342,998.850769,741.070129C1005.147766,740.573364,1011.448792,740.125366,1017.753113,739.726379L1019.522644,739.574036C1020.309753,739.493347,1021.038757,739.127319,1021.58905,738.558411C1023.35376,736.857361,1025.088745,735.126343,1026.796021,733.367004C1028.366699,731.837341,1030.076782,730.45636,1031.901489,729.242004C1033.293701,728.297363,1034.726685,727.412354,1036.194458,726.589661C1039.916748,724.543335,1043.734741,722.678345,1047.635864,720.999817C1050.154785,719.892334,1052.687744,718.820374,1055.237427,717.784973C1062.807739,714.57135,1070.172729,710.895325,1077.292114,706.777161C1078.401733,706.129333,1079.482788,705.434326,1080.530396,704.691223C1081.229736,704.202332,1081.869751,703.632324,1082.432739,702.992004C1083.420776,701.803345,1084.020752,700.340332,1084.155396,698.800598C1084.225708,698.220337,1084.271729,697.638367,1084.292114,697.054504C1084.350708,695.35437,1084.338745,693.652344,1084.256958,691.952942C1084.213745,691.35437,1084.138794,690.758362,1084.034302,690.167786C1083.768799,688.822327,1083.133789,687.577332,1082.198364,686.574036C1081.493774,685.777344,1080.680786,685.083374,1079.784302,684.511536C1078.780762,683.888367,1077.617798,683.569336,1076.436646,683.589661M1175.186646,624.359192C1173.640747,624.473328,1172.169678,625.068359,1170.979614,626.062317C1170.231689,626.639343,1169.556763,627.303345,1168.963989,628.038879C1168.324707,628.823364,1167.733765,629.647339,1167.194458,630.503723C1166.213745,632.019348,1165.305786,633.580322,1164.475708,635.183411C1163.34375,637.190369,1162.385742,639.290344,1161.612427,641.460754C1160.936768,643.453369,1160.465698,645.509338,1160.206177,647.597473C1160.15271,647.889343,1160.11377,648.184326,1160.088989,648.480286C1159.753784,651.655334,1159.522705,654.840332,1159.397583,658.031067C1159.227783,662.29834,1159.021729,666.560364,1158.780396,670.824036C1158.604736,673.432373,1158.366699,676.036377,1158.065552,678.632629C1157.963745,679.404358,1157.841797,680.172363,1157.698364,680.937317C1157.334717,682.324341,1157.039795,683.728333,1156.811646,685.144348C1156.707764,685.905334,1156.725708,686.678345,1156.866333,687.433411C1156.993774,688.074341,1157.222778,688.691345,1157.542114,689.261536C1157.754761,689.648376,1157.998779,690.017334,1158.268677,690.367004C1158.307739,690.426331,1158.351685,690.481323,1158.397583,690.534973C1158.420776,690.562378,1158.444702,690.590332,1158.467896,690.617004C1159.266724,691.541321,1160.272705,692.263367,1161.405396,692.718567C1163.835693,693.732361,1166.580688,693.671326,1168.963989,692.550598L1170.924927,691.617004C1171.370728,691.385376,1171.75769,691.055359,1172.061646,690.656067C1172.40979,690.184326,1172.602783,689.616333,1172.620239,689.031067C1172.806763,684.165344,1173.013794,679.253357,1173.237427,674.390442C1173.499756,668.960327,1173.925781,663.540344,1174.514771,658.136536C1175.070679,654.212341,1175.479736,650.267334,1175.741333,646.312317C1175.780762,645.21637,1175.808716,644.119324,1175.827271,643.023254C1175.820679,642.614319,1175.880737,642.208374,1175.995239,641.816223C1176.015747,641.751343,1176.045776,641.691345,1176.077271,641.632629L1176.116333,641.558411C1176.686768,640.757324,1177.423706,640.087341,1178.276489,639.597473C1178.485718,639.504333,1178.715698,639.464355,1178.940552,639.495911L1179.108521,639.519348L1179.424927,639.640442C1180.105713,639.957336,1180.695679,640.45636,1181.108521,641.085754C1181.175781,641.231323,1181.225708,641.378357,1181.284302,641.527161C1181.395752,642.082336,1181.435791,642.65033,1181.385986,643.214661C1181.285767,644.197327,1181.125732,645.17334,1180.909302,646.136536C1179.735718,651.060364,1178.885742,656.055359,1178.354614,661.089661C1177.885742,665.507324,1177.525757,669.938354,1177.292114,674.374817C1177.040771,678.270325,1176.729736,682.164368,1176.358521,686.050598C1176.27771,686.953369,1176.25769,687.860352,1176.299927,688.765442C1176.347778,689.736328,1176.615723,690.68335,1177.085083,691.534973C1177.615723,692.486328,1178.425781,693.253357,1179.405396,693.738098C1179.925781,694.016357,1180.485718,694.235352,1181.061646,694.382629C1182.485718,694.760376,1183.945679,694.973328,1185.421021,695.015442C1186.895752,695.064331,1188.325684,694.493347,1189.358521,693.445129C1190.425781,692.384338,1191.145752,691.030334,1191.436646,689.558411C1191.615723,688.666321,1191.735718,687.763367,1191.796021,686.855286C1191.955688,684.190369,1192.005737,681.520325,1191.960083,678.851379C1191.965698,675.895325,1192.035767,672.941345,1192.159302,669.988098C1192.285767,667.530334,1192.535767,665.080322,1192.913208,662.648254C1193.405762,659.648376,1194.305786,656.730347,1195.596802,653.976379C1196.455688,652.181335,1197.215698,650.34137,1197.878052,648.464661C1198.045776,647.965332,1198.165771,647.454346,1198.260986,646.937317C1198.345703,646.291321,1198.295776,645.635376,1198.104614,645.011536C1198.035767,644.746338,1197.945679,644.485352,1197.850708,644.230286C1197.225708,642.77533,1196.425781,641.401367,1195.475708,640.136536L1195.085083,639.581848C1192.045776,635.52533,1188.545776,631.832336,1184.659302,628.574036C1183.145752,627.339355,1181.505737,626.268372,1179.772583,625.378723L1179.499146,625.253723C1178.315796,624.694336,1177.02478,624.385376,1175.713989,624.347473L1175.186646,624.359192M1014.014832,743.886536C1012.459778,743.925354,1010.905762,744.009338,1009.354675,744.136536C1005.32074,744.380371,1001.296753,744.772339,997.292175,745.312317C995.920776,745.474365,994.559753,745.71936,993.217957,746.046692C992.405762,746.246338,991.661743,746.659363,991.0578,747.238098C990.544739,747.755371,990.079773,748.317322,989.667175,748.917786C988.382751,750.855347,987.254761,752.891357,986.292175,755.007629C984.391785,758.926331,982.314758,762.756348,980.069519,766.488098C982.587769,772.776367,985.85376,778.738342,989.796082,784.245911C990.768799,781.482361,991.697754,778.703369,992.581238,775.909973C993.407776,773.426331,994.319763,770.971375,995.315613,768.550598C995.931763,767.106323,996.632751,765.698364,997.413269,764.335754C997.983765,763.339355,998.657776,762.405334,999.421082,761.546692C1000.719788,760.130371,1002.383789,759.099365,1004.229675,758.566223C1005.903748,758.012329,1007.667786,757.773376,1009.428894,757.863098C1011.283752,758.042358,1013.012756,758.883362,1014.299988,760.230286C1014.98877,760.901367,1015.60675,761.641357,1016.139832,762.441223C1016.805786,763.397339,1017.566772,764.284363,1018.409363,765.089661C1019.615784,766.253357,1021.084778,767.111328,1022.690613,767.593567C1023.700745,767.906372,1024.737793,768.123352,1025.788208,768.242004C1026.397705,768.336365,1027.011719,768.401367,1027.628052,768.437317C1029.153687,768.554321,1030.682739,768.660339,1032.210083,768.757629C1033.751709,768.914368,1035.260742,769.29834,1036.690552,769.894348C1039.048706,770.90332,1041.352783,772.035339,1043.592896,773.284973C1044.585693,773.839355,1045.533691,774.470337,1046.428833,775.171692C1046.874756,775.537354,1047.28772,775.940369,1047.667114,776.374817L1047.819458,776.574036C1048.15271,777.041321,1048.369751,777.58136,1048.460083,778.148254C1048.532715,778.59137,1048.541748,779.042358,1048.483521,779.488098C1048.320679,780.757324,1048.009766,782.003357,1047.553833,783.199036C1047.456787,783.543335,1047.34375,783.883362,1047.210083,784.214661C1047.138794,784.540344,1047.049683,784.861328,1046.940552,785.175598C1046.550781,786.556335,1046.322754,787.976318,1046.264771,789.409973C1046.263794,790.158325,1046.388794,790.902344,1046.635864,791.609192C1046.896729,792.214355,1047.223755,792.78833,1047.612427,793.320129C1048.25769,794.200378,1048.951782,795.044373,1049.690552,795.847473C1051.769775,798.09436,1053.945679,800.249329,1056.213989,802.304504C1058.09375,804.060364,1059.936768,805.857361,1061.741333,807.691223C1062.765747,808.767334,1063.736694,809.892334,1064.651489,811.062317C1066.058716,813.013367,1067.260742,815.105347,1068.237427,817.304504C1068.459717,817.83136,1068.691772,818.353333,1068.932739,818.870911C1073.564697,818.28833,1078.139771,817.322327,1082.612427,815.984192C1081.453735,812.217346,1080.230713,808.473328,1078.940552,804.749817C1078.482788,803.513367,1077.960693,802.300354,1077.378052,801.117004C1077.219727,800.885376,1077.076782,800.644348,1076.956177,800.390442C1075.944702,798.735352,1074.47168,797.411377,1072.717896,796.581848C1071.883789,796.147339,1071.036743,795.736328,1070.178833,795.351379C1068.571777,794.621338,1067.056763,793.704346,1065.663208,792.620911C1064.207764,791.430359,1063.102783,789.867371,1062.467896,788.097473C1061.801758,786.303345,1061.423706,784.415344,1061.346802,782.503723C1061.337769,781.669373,1061.440796,780.838318,1061.651489,780.031067C1061.992798,778.953369,1062.540771,777.951355,1063.268677,777.085754C1064.130737,776.049377,1065.094727,775.103333,1066.147583,774.261536C1067.842773,772.920349,1069.618774,771.68634,1071.467896,770.566223C1075.740723,767.995361,1080.119751,765.60437,1084.592896,763.402161C1085.243774,763.080322,1085.914795,762.799377,1086.600708,762.562317C1087.455688,762.286377,1088.34375,762.129333,1089.241333,762.097473C1090.232788,762.055359,1091.225708,762.03833,1092.217896,762.046692C1093.36377,762.035339,1094.50769,761.938354,1095.639771,761.757629C1096.6427,761.613342,1097.619751,761.325378,1098.542114,760.906067C1099.672729,760.373352,1100.64978,759.562378,1101.378052,758.546692L1101.733521,758.015442C1102.449707,756.756348,1102.922729,755.374329,1103.128052,753.941223C1103.246704,752.925354,1103.168701,751.895325,1102.893677,750.909973C1102.361694,749.10437,1101.119751,747.592346,1099.448364,746.726379C1098.302734,746.113342,1097.031738,745.770325,1095.733521,745.726379C1094.82373,745.68634,1093.911743,745.733337,1093.010864,745.863098C1090.437744,746.272339,1087.914795,746.951355,1085.483521,747.886536C1082.472778,749.002319,1079.53479,750.305359,1076.686646,751.788879C1072.255737,754.059326,1067.963745,756.592346,1063.835083,759.374817C1061.817749,760.721375,1059.692749,761.90033,1057.483521,762.902161C1056.598755,763.282349,1055.673706,763.560364,1054.725708,763.730286C1053.762695,763.884338,1052.77478,763.713318,1051.924927,763.234192C1051.410767,762.948364,1050.944702,762.585327,1050.530396,762.167786C1049.635742,761.250366,1048.809692,760.268372,1048.057739,759.230286C1047.420776,758.42334,1046.72168,757.667358,1045.967896,756.968567C1044.723755,755.872375,1043.181763,755.168335,1041.538208,754.945129C1040.237793,754.760376,1038.925781,754.674377,1037.612427,754.687317C1035.684692,754.704346,1033.756714,754.659363,1031.831177,754.550598C1030.980713,754.477356,1030.137695,754.332336,1029.311646,754.117004C1028.415771,753.848328,1027.616699,753.330322,1026.995239,752.632629C1026.184692,751.713318,1025.450684,750.72937,1024.799927,749.691223C1024.051758,748.560364,1023.210754,747.494324,1022.284363,746.503723C1021.847778,746.05835,1021.382751,745.641357,1020.893738,745.253723C1019.904785,744.475342,1018.703796,744.014343,1017.448425,743.929504C1016.304749,743.859375,1015.15979,743.845337,1014.014832,743.886536M1224.850708,733.523254C1223.595703,733.611328,1222.405762,734.111328,1221.460083,734.937317C1220.415649,735.837341,1219.605713,736.976318,1219.100708,738.257629C1218.155762,740.529358,1218.075684,743.066345,1218.870239,745.394348C1219.375732,746.818359,1220.385742,748.010376,1221.702271,748.749817C1222.645752,749.293335,1223.675659,749.656372,1224.749146,749.820129C1225.825684,750.008362,1226.905762,750.09436,1227.999146,750.077942C1229.765747,750.093323,1231.535767,750.238342,1233.284302,750.511536C1237.365723,751.124329,1241.385742,752.042358,1245.331177,753.257629C1248.515747,754.194336,1251.615723,755.40332,1254.588989,756.870911C1256.265747,757.928345,1257.815674,759.170349,1259.210083,760.574036C1262.115723,763.724365,1265.035767,766.850342,1267.991333,769.952942C1268.905762,770.908325,1269.775757,771.894348,1270.620239,772.909973C1271.075684,773.480347,1271.525757,774.06134,1271.956177,774.652161L1272.057739,774.827942C1272.155762,775.065369,1272.225708,775.316345,1272.253052,775.574036L1272.256958,775.757629C1272.235718,776.066345,1272.155762,776.368347,1272.026489,776.648254C1271.865723,776.943359,1271.645752,777.201355,1271.370239,777.398254C1270.965698,777.699341,1270.475708,777.873352,1269.975708,777.898254C1269.485718,777.948364,1268.995728,777.916321,1268.518677,777.800598C1268.135742,777.695374,1267.775757,777.491333,1267.499146,777.206848C1267.135742,776.878357,1266.805664,776.517334,1266.499146,776.132629C1265.885742,775.399353,1265.305664,774.628357,1264.788208,773.824036C1262.745728,770.684326,1260.355713,767.78833,1257.663208,765.191223C1257.215698,764.769348,1256.765747,764.359375,1256.303833,763.960754C1253.005737,761.121338,1249.195679,758.931335,1245.081177,757.503723C1244.645752,757.327332,1244.195679,757.172363,1243.741333,757.038879L1243.713989,757.038879C1242.785767,756.750366,1241.855713,756.490356,1240.917114,756.261536C1240.545654,756.154358,1240.165649,756.067322,1239.780396,755.999817C1235.435669,755.114319,1231.075684,754.301331,1226.710083,753.562317C1225.915649,753.431335,1225.105713,753.312378,1224.307739,753.206848L1224.292114,753.199036C1222.945679,753.003357,1221.595703,752.92334,1220.237427,752.960754C1219.275757,752.993347,1218.335693,753.269348,1217.506958,753.765442C1216.925659,754.177368,1216.385742,754.641357,1215.893677,755.152161C1214.485718,756.541321,1213.135742,757.985352,1211.842896,759.480286C1207.485718,764.422363,1203.285767,769.509338,1199.264893,774.730286L1197.346802,777.136536C1195.825684,779.000366,1194.055786,780.649353,1192.088989,782.038879C1190.955688,782.874329,1189.805786,783.678345,1188.628052,784.449036C1184.615723,787.141357,1180.465698,789.634338,1176.210083,791.917786C1175.408691,792.325378,1174.597778,792.713318,1173.776489,793.077942C1173.041748,793.43335,1172.309692,793.795349,1171.581177,794.163879C1170.203735,794.904358,1168.961792,795.874329,1167.909302,797.031067C1167.78479,797.210327,1167.640747,797.376343,1167.483521,797.527161C1166.880737,798.289368,1166.317749,799.082336,1165.796021,799.902161C1165.140747,800.926331,1164.47168,801.939331,1163.788208,802.945129C1163.366699,803.52533,1162.925781,804.092346,1162.467896,804.644348C1161.975708,805.225342,1161.385742,805.71637,1160.725708,806.097473C1160.026733,806.475342,1159.263794,806.720337,1158.475708,806.824036C1160.520752,808.142334,1162.634766,809.351318,1164.807739,810.445129C1167.673706,811.90033,1170.621704,813.189331,1173.635864,814.304504C1175.419678,812.795349,1177.09375,811.162354,1178.647583,809.417786C1179.855713,807.823364,1181.235718,806.364319,1182.760986,805.066223C1185.465698,802.685364,1188.435791,800.611328,1191.600708,798.882629C1193.115723,798.075378,1194.695679,797.399353,1196.327393,796.863098C1197.905762,796.289368,1199.465698,795.665344,1201.00708,794.992004C1201.595703,794.713318,1202.175659,794.409363,1202.733521,794.081848C1204.055664,793.268372,1205.175659,792.155334,1205.995239,790.831848C1206.585693,789.89032,1207.105713,788.907349,1207.553833,787.890442C1209.925659,782.867371,1213.075684,778.251343,1216.893677,774.214661C1218.165649,772.855347,1219.555664,771.620361,1221.057739,770.527161C1221.495728,770.224365,1221.955688,769.943359,1222.421021,769.687317C1223.585693,769.119324,1224.845703,768.757324,1226.139771,768.617004C1227.455688,768.454346,1228.785767,768.430359,1230.104614,768.546692C1233.055664,768.770325,1235.955688,769.486328,1238.667114,770.663879C1241.005737,771.618347,1243.165649,772.954346,1245.069458,774.617004C1246.595703,775.945374,1248.065674,777.349365,1249.452271,778.824036C1253.055664,783.063354,1257.465698,786.537354,1262.436646,789.042786C1263.645752,789.631348,1264.875732,790.165344,1266.131958,790.640442C1273.385742,782.406372,1278.945679,772.824341,1282.491333,762.441223C1281.105713,761.213318,1279.565674,760.178345,1277.897583,759.367004C1275.985718,758.393372,1274.465698,756.801331,1273.577271,754.847473C1273.165649,753.855347,1272.825684,752.840332,1272.530396,751.808411C1272.455688,751.605347,1272.385742,751.405334,1272.299927,751.206848C1272.235718,751.068359,1272.175659,750.928345,1272.116333,750.784973C1271.685669,749.718323,1271.075684,748.730347,1270.315552,747.863098C1269.925659,747.395325,1269.445679,747.008362,1268.901489,746.722473C1268.475708,746.497375,1268.045654,746.284363,1267.612427,746.085754C1265.735718,745.270325,1263.825684,744.52832,1261.893677,743.863098C1252.355713,740.537354,1242.695679,737.584351,1232.932739,735.011536C1231.415649,734.630371,1229.885742,734.272339,1228.354614,733.937317C1227.315674,733.690369,1226.255737,733.546326,1225.186646,733.507629L1224.850708,733.523254M1139.737427,584.429504C1139.291748,584.485352,1138.851685,584.576355,1138.421021,584.702942C1137.328735,585.046387,1136.295776,585.559326,1135.362427,586.222473C1134.430786,586.926392,1133.541748,587.601318,1132.612427,588.308411C1131.441772,589.162354,1130.177734,589.877319,1128.842896,590.441223C1127.369751,590.967346,1125.832764,591.293335,1124.272583,591.409973C1123.157715,591.493347,1122.03772,591.505371,1120.921021,591.445129C1119.408691,591.390381,1117.898682,591.268311,1116.397583,591.077942C1114.143799,590.792358,1111.891724,590.484375,1109.643677,590.152161L1108.643677,590.023254L1108.628052,590.023254L1105.049927,589.632629L1104.917114,589.624817L1102.604614,589.413879L1102.573364,589.413879C1099.15979,589.127319,1095.733765,588.987305,1092.307739,588.995911C1090.799683,588.990356,1089.292725,588.931335,1087.788208,588.820129C1087.031738,588.759338,1086.275757,588.679321,1085.522583,588.581848L1073.018677,601.077942C1073.7677,601.569336,1074.540771,602.023315,1075.335083,602.437317C1076.044678,602.774353,1076.807739,602.988342,1077.588989,603.070129C1078.675781,603.225342,1079.769775,603.322388,1080.866333,603.359192C1083.654785,603.504333,1086.445679,603.557373,1089.237427,603.519348C1093.600708,603.438354,1097.964722,603.535339,1102.319458,603.808411C1105.685791,604.043335,1109.035767,604.478394,1112.350708,605.109192C1114.837769,605.617371,1117.286743,606.29834,1119.678833,607.148254C1120.894775,607.537354,1122.147705,607.801331,1123.417114,607.933411C1125.280762,608.055359,1127.140747,607.636353,1128.772583,606.726379C1129.59375,606.293335,1130.378784,605.793335,1131.116333,605.230286C1131.921753,604.593384,1132.740723,603.975342,1133.573364,603.374817C1135.52478,602.007324,1137.759766,601.099365,1140.112427,600.722473C1143.268799,600.292358,1146.47168,601.078369,1149.069458,602.921692C1150.559692,603.929321,1151.872681,605.178345,1152.952271,606.617004C1153.664795,607.619324,1154.176758,608.749329,1154.460083,609.945129C1154.651733,610.888367,1154.706787,611.853333,1154.624146,612.812317C1154.490723,614.30835,1154.204712,615.785339,1153.768677,617.222473C1153.295776,618.976318,1152.627686,620.672363,1151.776489,622.277161C1150.891724,623.845337,1149.836792,625.310364,1148.628052,626.644348C1148.276733,627.03833,1147.91272,627.421326,1147.538208,627.792786C1145.881714,629.458374,1144.214722,631.105347,1142.530396,632.742004C1142.009766,633.261353,1141.695679,633.953369,1141.643677,634.687317L1141.643677,642.488098C1141.633789,643.95636,1141.559692,645.424377,1141.421021,646.886536C1141.251709,648.247375,1140.918701,649.582336,1140.428833,650.863098C1139.842773,652.27832,1139.40271,653.749329,1139.112427,655.253723C1138.717773,657.598328,1138.90271,660.004333,1139.651489,662.261536C1139.84375,662.812378,1140.023682,663.367371,1140.194458,663.925598C1140.422729,664.70636,1140.582764,665.504333,1140.671021,666.312317C1141.040771,669.080322,1141.0177,671.886353,1140.600708,674.648254C1140.477783,675.363342,1140.269775,676.06134,1139.979614,676.726379C1139.176758,678.066345,1138.064697,679.193359,1136.733521,680.011536C1136.5177,680.139343,1136.295776,680.258362,1136.069458,680.367004C1135.693726,680.483337,1135.301758,680.532349,1134.909302,680.527161C1133.864746,680.536377,1132.820679,680.495361,1131.780396,680.406067L1124.963989,679.890442L1118.147583,679.382629C1116.629761,679.281372,1115.105713,679.310364,1113.592896,679.468567C1112.98877,679.537354,1112.388794,679.64032,1111.796021,679.777161C1110.947754,679.983337,1110.128784,680.300354,1109.362427,680.718567C1107.850708,681.577332,1106.675781,682.92334,1106.022583,684.534973C1105.326782,686.084351,1105.119751,687.809326,1105.424927,689.480286C1105.785767,691.355347,1106.788696,693.046326,1108.260864,694.261536C1108.505737,694.430359,1108.762695,694.58136,1109.030396,694.710754C1109.775757,695.067322,1110.569702,695.313354,1111.385864,695.441223C1113.283691,695.816345,1115.223755,695.926331,1117.151489,695.769348C1117.657715,695.720337,1118.157715,695.614319,1118.643677,695.464661C1118.829712,695.398376,1119.010742,695.320374,1119.186646,695.230286C1119.618774,695.18634,1120.050781,695.147339,1120.483521,695.113098C1124.496704,694.862366,1128.513794,694.691345,1132.534302,694.601379C1134.96875,694.493347,1137.39978,694.33136,1139.827271,694.117004C1140.970703,694.005371,1142.110718,693.859375,1143.245239,693.679504C1143.760742,693.589355,1144.260742,693.502319,1144.776489,693.413879C1145.856689,693.191345,1146.920776,692.90033,1147.963989,692.542786C1148.874756,692.235352,1149.731689,691.790344,1150.506958,691.222473C1151.160767,690.746338,1151.712769,690.144348,1152.124146,689.449036C1152.215698,689.269348,1152.306763,689.089355,1152.397583,688.909973L1152.405396,688.863098L1152.428833,688.831848C1152.78479,687.874329,1153.050781,686.886353,1153.217896,685.878723C1153.396729,684.871338,1153.556763,683.861328,1153.698364,682.847473C1154.285767,677.937378,1154.663696,673.004333,1154.831177,668.062317C1154.959717,664.810364,1155.041748,661.55835,1155.077271,658.304504C1155.125732,654.796326,1155.354736,651.293335,1155.764771,647.808411C1156.03772,645.708374,1156.493774,643.637329,1157.128052,641.617004C1158.384766,637.739319,1160.184692,634.059326,1162.475708,630.687317C1163.655762,628.872375,1164.96875,627.147339,1166.405396,625.527161C1167.214722,624.618347,1167.952759,623.647339,1168.612427,622.624817C1169.242798,621.641357,1169.678711,620.545349,1169.897583,619.398254C1170.088745,618.312378,1170.097778,617.202332,1169.924927,616.113098C1169.706787,614.71637,1169.403687,613.333374,1169.018677,611.972473C1168.645752,610.439331,1168.379761,608.882324,1168.221802,607.312317C1168.091797,606.175354,1168.032715,605.031372,1168.046021,603.886536C1168.032715,602.810303,1167.91272,601.73938,1167.686646,600.687317C1167.303711,599.189331,1166.53772,597.815308,1165.463989,596.702942C1164.77771,595.977356,1164.016724,595.325317,1163.194458,594.757629C1161.90979,593.863342,1160.574707,593.043335,1159.194458,592.304504C1155.630737,590.360352,1152.021729,588.500366,1148.370239,586.726379C1146.906738,586.001343,1145.3927,585.383362,1143.838989,584.878723C1142.727783,584.53833,1141.571777,584.370361,1140.409302,584.378723L1139.737427,584.429504M1179.823486,596.054504C1178.695679,596.086304,1177.595703,596.326355,1176.557739,596.761536C1175.962769,596.998352,1175.386719,597.280334,1174.835083,597.605286C1173.273682,598.609375,1172.264771,600.279358,1172.100708,602.128723C1171.977783,603.346313,1172.003784,604.574341,1172.178833,605.784973C1172.485718,608.301331,1172.936768,610.797363,1173.530396,613.261536C1173.815796,614.339355,1174.204712,615.387329,1174.690552,616.390442C1175.367798,617.715332,1176.317749,618.882324,1177.479614,619.812317C1178.405762,620.547363,1179.415771,621.188354,1180.467896,621.726379L1180.499146,621.749817C1181.015747,622.030334,1181.535767,622.301331,1182.061646,622.562317C1183.565796,623.387329,1184.995728,624.332336,1186.346802,625.386536C1190.135742,628.218323,1193.555786,631.501343,1196.546021,635.163879C1197.435791,636.297363,1198.275757,637.462341,1199.077393,638.656067C1199.265747,638.917358,1199.455688,639.180359,1199.647583,639.445129C1200.575684,640.720337,1201.625732,641.899353,1202.792114,642.964661C1203.245728,643.353333,1203.775757,643.659363,1204.335083,643.867004C1204.415649,643.89032,1204.495728,643.920349,1204.581177,643.945129C1205.135742,644.076355,1205.695679,644.15332,1206.260864,644.175598C1208.285767,644.239319,1210.325684,644.20636,1212.346802,644.077942C1214.295654,643.920349,1216.245728,643.799377,1218.202271,643.714661C1218.645752,643.705322,1219.085693,643.727356,1219.530396,643.784973C1219.765747,643.953369,1219.985718,644.147339,1220.178833,644.367004C1220.355713,644.547363,1220.525757,644.741333,1220.674927,644.945129C1220.765747,645.084351,1220.845703,645.22937,1220.921021,645.378723C1221.055664,645.658325,1221.125732,645.963318,1221.131958,646.273254C1221.125732,646.497375,1221.085693,646.71936,1221.018677,646.933411C1220.855713,647.35437,1220.605713,647.735352,1220.292114,648.066223C1220.065674,648.322327,1219.825684,648.55835,1219.557739,648.769348L1219.475708,648.800598C1218.985718,648.865356,1218.495728,648.883362,1218.010864,648.855286C1215.765747,648.737366,1213.515747,648.600342,1211.268677,648.445129C1209.905762,648.347351,1208.525757,648.352356,1207.163208,648.460754C1206.295654,648.535339,1205.435669,648.71936,1204.612427,649.011536C1202.885742,649.666321,1201.465698,650.951355,1200.651489,652.609192C1200.365723,653.130371,1200.115723,653.668335,1199.909302,654.222473C1199.825684,654.39032,1199.765747,654.564331,1199.706299,654.742004C1199.695679,654.772339,1199.695679,654.794373,1199.682739,654.824036C1199.495728,655.374329,1199.305786,655.926331,1199.124146,656.480286L1199.124146,656.495911C1197.825684,660.438354,1196.895752,664.493347,1196.354614,668.609192C1196.045776,671.208374,1195.865723,673.823364,1195.835083,676.441223C1195.845703,678.816345,1195.795776,681.190369,1195.686646,683.562317C1195.595703,685.260376,1195.435791,686.955322,1195.202393,688.640442C1195.085693,689.105347,1194.995728,689.574341,1194.917114,690.046692C1194.515747,691.712341,1194.445679,693.439331,1194.706299,695.132629C1194.945679,696.532349,1195.485718,697.864319,1196.284302,699.042786C1196.755737,699.84436,1197.315796,700.597351,1197.936646,701.288879L1198.229614,701.656067C1198.875732,702.369324,1199.515747,703.088318,1200.139893,703.816223C1200.285767,704.003357,1200.445679,704.180359,1200.604614,704.351379C1205.075684,709.736328,1209.375732,715.253357,1213.510864,720.898254C1214.185669,721.843323,1214.855713,722.799377,1215.499146,723.765442C1216.305664,725.156372,1217.295654,726.435364,1218.432739,727.570129C1219.945679,728.973328,1221.855713,729.861328,1223.905396,730.113098C1225.125732,730.294373,1226.365723,730.367371,1227.596802,730.331848C1229.325684,730.378357,1231.045654,730.586365,1232.729614,730.952942C1233.435669,731.098328,1234.145752,731.254333,1234.850708,731.421692C1238.615723,732.350342,1242.365723,733.370361,1246.077271,734.480286C1251.255737,735.958374,1256.395752,737.550354,1261.499146,739.253723C1263.035767,739.761353,1264.545654,740.328369,1266.034302,740.952942C1267.285767,741.478333,1268.585693,741.861328,1269.924927,742.093567C1271.345703,742.31134,1272.795654,742.185364,1274.163208,741.726379C1275.585693,741.199341,1276.935669,740.502319,1278.190552,739.652161L1278.573364,739.406067C1281.355713,737.697327,1284.175659,736.042358,1287.026489,734.441223C1286.985718,729.143372,1286.455688,723.860352,1285.421021,718.663879C1283.115723,720.238342,1280.735718,721.690369,1278.276489,723.011536C1276.935669,723.711365,1275.545654,724.325378,1274.124146,724.847473C1273.105713,725.197327,1272.055664,725.454346,1270.995239,725.617004C1270.375732,725.702332,1269.745728,725.746338,1269.124146,725.749817C1268.405762,725.670349,1267.695679,725.552368,1266.995239,725.398254C1264.005737,724.742371,1261.045654,723.960327,1258.124146,723.054504C1251.645752,721.080322,1245.115723,719.302368,1238.534302,717.722473C1236.865723,717.335327,1235.205688,716.892334,1233.565552,716.394348C1232.335693,716.021362,1231.125732,715.593323,1229.928833,715.113098C1228.125732,714.373352,1226.485718,713.306335,1225.073364,711.964661C1224.345703,711.274353,1223.655762,710.555359,1222.987427,709.808411C1219.335693,705.605347,1215.995728,701.143372,1212.995239,696.456848C1212.025757,694.931335,1211.215698,693.307373,1210.588989,691.613098C1210.315674,690.759338,1210.145752,689.872375,1210.092896,688.976379C1210.055664,688.534363,1210.035767,688.09137,1210.018677,687.648254C1209.935669,683.532349,1209.975708,679.41333,1210.163208,675.300598C1210.235718,674.06134,1210.335693,672.823364,1210.475708,671.589661C1210.615723,670.529358,1210.815674,669.480347,1211.096802,668.449036C1211.315674,667.68335,1211.625732,666.949341,1212.030396,666.261536C1212.595703,665.340332,1213.375732,664.57135,1214.303833,664.015442C1214.935669,663.608337,1215.605713,663.263367,1216.299927,662.984192C1217.955688,662.295349,1219.645752,661.709351,1221.374146,661.230286C1223.145752,660.695374,1224.895752,660.077332,1226.616333,659.378723C1227.925659,658.838318,1229.185669,658.171326,1230.366333,657.390442C1231.525757,656.593323,1232.505737,655.573364,1233.268677,654.390442C1233.955688,653.241333,1234.415649,651.968323,1234.624146,650.644348C1234.785767,649.776367,1234.865723,648.897339,1234.874146,648.015442L1216.827271,629.968567C1214.815674,629.425354,1212.815674,628.802368,1210.850708,628.101379C1210.615723,628.008362,1210.375732,627.907349,1210.147583,627.800598C1209.475708,627.323364,1208.805664,626.827332,1208.163208,626.312317C1203.475708,622.496338,1198.915771,618.511353,1194.514893,614.367004C1193.725708,613.612366,1192.945679,612.846375,1192.178833,612.070129C1190.965698,610.669373,1189.995728,609.07135,1189.315552,607.343567C1188.725708,605.563354,1188.025757,603.819336,1187.233521,602.120911L1186.620239,600.894348C1186.235718,600.170349,1185.795776,599.483337,1185.280396,598.843567C1184.675781,598.075317,1183.935791,597.418335,1183.104614,596.902161C1182.105713,596.32135,1180.975708,596.027344,1179.823486,596.054504M1163.272583,715.218567C1161.086792,715.276367,1158.90271,715.410339,1156.725708,715.620911C1156.23877,715.66333,1155.752686,715.721375,1155.268677,715.792786L1155.163208,715.792786C1153.97876,715.93634,1152.798706,716.111328,1151.624146,716.320129L1149.741333,716.581848C1146.518799,716.945374,1143.280762,717.159363,1140.038208,717.222473C1137.71875,717.277344,1135.397705,717.304321,1133.077271,717.304504C1130.997681,717.335327,1128.919678,717.43634,1126.846802,717.609192C1123.717773,717.84137,1120.633789,718.500366,1117.682739,719.566223C1115.806763,720.279358,1113.986694,721.129333,1112.237427,722.113098C1110.788696,722.945374,1109.329712,723.766357,1107.866333,724.574036C1106.712769,725.178345,1105.5177,725.703369,1104.292114,726.144348C1102.982788,726.547363,1101.637695,726.822327,1100.276489,726.968567C1098.48877,727.148376,1096.696777,727.270325,1094.901489,727.335754C1091.970703,727.445374,1089.069702,727.564331,1086.139771,727.695129C1086.080688,727.698364,1086.022705,727.704346,1085.963989,727.710754C1085.806763,727.728333,1085.651733,727.760376,1085.499146,727.800598C1085.320679,727.836365,1085.148682,727.899353,1084.987427,727.984192L1073.186646,733.609192C1068.167725,736.014343,1063.114746,738.343323,1058.026489,740.597473C1057.492798,740.796326,1056.964722,741.011353,1056.444458,741.245911C1053.957764,742.336365,1051.666748,743.827332,1049.659302,745.656067C1048.72168,746.497375,1047.934692,747.492371,1047.331177,748.597473C1046.788696,749.563354,1046.570679,750.676331,1046.698364,751.777161C1046.842773,752.736328,1047.215698,753.646362,1047.788208,754.429504C1048.750732,755.764343,1050.032715,756.836365,1051.514771,757.550598C1052.83374,758.254333,1054.318726,758.586365,1055.811646,758.519348C1056.689697,758.40332,1057.545776,758.162354,1058.354614,757.800598C1059.879761,757.144348,1061.340698,756.351318,1062.721802,755.429504C1063.872681,754.662354,1065.035767,753.91333,1066.210083,753.183411C1072.455688,749.574341,1078.913696,746.347351,1085.549927,743.519348C1086.715698,743.036377,1087.90271,742.609375,1089.108521,742.238098C1090.207764,741.977356,1091.330688,741.83136,1092.460083,741.800598C1093.043701,741.772339,1093.628784,741.785339,1094.210083,741.839661C1095.864746,742.076355,1097.513794,742.302368,1099.171021,742.519348C1099.571777,742.559326,1099.97168,742.607361,1100.370239,742.663879L1100.385864,742.663879C1101.656738,742.832336,1102.940796,742.886353,1104.221802,742.824036C1105.672729,742.690369,1107.066772,742.194336,1108.276489,741.382629C1108.381714,741.318359,1108.485718,741.251343,1108.588989,741.183411C1109.38269,740.607361,1110.177734,740.037354,1110.979614,739.472473C1114.689697,737.010376,1118.673706,734.987366,1122.850708,733.445129C1124.094727,732.998352,1125.366699,732.635376,1126.659302,732.359192C1128.261719,732.135376,1129.877686,732.023376,1131.495239,732.023254C1134.122681,731.981323,1136.751709,732.043335,1139.374146,732.206848C1141.410767,732.305359,1143.44873,732.371338,1145.487427,732.406067C1148.033691,732.41333,1150.572754,732.146362,1153.061646,731.609192C1155.291748,731.122375,1157.518799,730.610352,1159.737427,730.074036C1161.584717,729.672363,1163.455688,729.389343,1165.338989,729.226379C1167.316772,729.126343,1169.291748,729.465332,1171.124146,730.214661C1172.558716,730.756348,1173.950684,731.405334,1175.288208,732.156067C1176.332764,732.766357,1177.281738,733.527344,1178.104614,734.413879C1178.955688,735.362366,1179.535767,736.526367,1179.780396,737.781067C1180.005737,739.320374,1179.805786,740.893372,1179.19458,742.324036C1178.585693,743.805359,1177.755737,745.18634,1176.737427,746.421692C1175.309692,748.221375,1173.623779,749.799377,1171.733521,751.105286C1170.082764,752.139343,1168.280762,752.911377,1166.393677,753.394348C1165.330688,753.688354,1164.258789,753.949341,1163.178833,754.175598C1160.674683,754.630371,1158.178711,755.117371,1155.686646,755.636536C1154.591797,755.886353,1153.501709,756.156372,1152.417114,756.445129C1151.937744,756.599365,1151.462769,756.766357,1150.991333,756.945129C1150.379761,757.202332,1149.791748,757.513367,1149.237427,757.878723L1149.210083,757.894348C1148.371704,758.505371,1147.682739,759.299377,1147.194458,760.214661C1146.762695,761.148376,1146.442749,762.129333,1146.237427,763.136536C1146.028687,764.122375,1145.84668,765.113342,1145.690552,766.109192C1145.336792,768.512329,1145.078735,770.928345,1144.917114,773.351379C1144.52478,778.766357,1144.419678,784.198364,1144.604614,789.624817C1144.63269,791.704346,1144.722778,793.781372,1144.874146,795.855286C1144.90271,796.070374,1144.930786,796.28833,1144.956177,796.503723C1147.756714,798.974365,1150.671753,801.313354,1153.690552,803.511536C1154.209717,803.454346,1154.723755,803.356323,1155.225708,803.210754C1156.676758,802.828369,1158.060791,802.22937,1159.335083,801.437317C1159.98877,801.02533,1160.587769,800.532349,1161.116333,799.968567C1162.550781,798.393372,1163.237793,796.276367,1162.995239,794.159973C1162.845703,792.90033,1162.491699,791.67334,1161.948364,790.527161C1161.513794,789.582336,1161.006714,788.67334,1160.428833,787.808411C1159.849731,786.992371,1159.300781,786.154358,1158.784302,785.296692C1158.540771,784.862366,1158.358765,784.397339,1158.241333,783.913879C1158.185791,783.687378,1158.154785,783.455322,1158.139771,783.222473C1157.990723,781.200378,1158.045776,779.167358,1158.303833,777.156067C1158.535767,775.40033,1159.057739,773.69635,1159.850708,772.113098C1160.225708,771.41333,1160.705688,770.77533,1161.276489,770.222473L1161.374146,770.159973C1161.960693,769.866333,1162.562744,769.607361,1163.178833,769.382629C1164.299683,768.951355,1165.443726,768.580322,1166.604614,768.273254C1168.021729,767.912354,1169.434692,767.533325,1170.842896,767.136536C1173.669678,766.352356,1176.367798,765.160339,1178.850708,763.597473C1181.085693,762.077332,1183.095703,760.257324,1184.835083,758.187317L1185.245239,757.734192C1187.095703,755.532349,1188.875732,753.279358,1190.596802,750.976379C1191.185791,750.177368,1191.745728,749.361328,1192.280396,748.531067C1193.025757,747.406372,1193.675781,746.222351,1194.229614,744.992004C1195.165771,742.856323,1195.595703,740.532349,1195.475708,738.202942C1195.465698,736.830322,1195.235718,735.468323,1194.796021,734.167786C1194.495728,733.32135,1194.105713,732.505371,1193.647583,731.730286C1192.765747,730.15332,1191.775757,728.64032,1190.682739,727.202942L1189.835083,726.085754L1189.780396,726.007629L1188.963989,725.015442C1188.645752,724.681335,1188.335693,724.335327,1188.042114,723.976379C1186.705688,722.492371,1185.235718,721.129333,1183.651489,719.906067C1182.175781,718.766357,1180.575684,717.805359,1178.870239,717.042786C1177.441772,716.442322,1175.940796,716.032349,1174.405396,715.820129C1172.292725,715.493347,1170.160767,715.304321,1168.022583,715.253723C1166.439697,715.195374,1164.855713,715.18335,1163.272583,715.218567M1153.440552,695.663879C1152.1427,695.733337,1150.856689,695.95636,1149.612427,696.331848C1148.927734,696.549377,1148.248779,696.786377,1147.577271,697.042786C1145.851685,697.652344,1144.058716,698.049377,1142.237427,698.226379C1141.180786,698.347351,1140.122681,698.444336,1139.061646,698.519348C1135.07373,698.762329,1131.082764,698.950378,1127.088989,699.081848L1120.874146,699.367004C1118.549683,699.474365,1116.232788,699.705322,1113.932739,700.062317C1112.558716,700.29834,1111.212769,700.677368,1109.917114,701.191223C1108.36377,701.879333,1106.91272,702.77832,1105.604614,703.863098C1104.592773,704.736328,1103.560791,705.587341,1102.510864,706.413879C1101.510742,707.239319,1100.38269,707.896362,1099.171021,708.359192C1098.475708,708.612366,1097.73877,708.731323,1096.999146,708.710754C1096.247681,708.700378,1095.500732,708.600342,1094.772583,708.413879C1094.004761,708.215332,1093.23877,708.008362,1092.475708,707.792786C1091.101685,707.381348,1089.693726,707.093323,1088.268677,706.933411C1086.689697,706.800354,1085.102783,707.088318,1083.671021,707.769348C1082.812744,708.155334,1081.981689,708.597351,1081.182739,709.093567L1080.987427,709.222473C1079.182739,710.333374,1077.341797,711.384338,1075.467896,712.374817C1067.864746,716.373352,1060.097778,720.050354,1052.186646,723.398254C1046.066772,726.088318,1040.135742,729.191345,1034.436646,732.687317C1033.136719,733.484375,1031.866699,734.329346,1030.628052,735.218567C1029.807739,735.807373,1029.032715,736.457336,1028.307739,737.159973C1027.384766,738.014343,1026.634766,739.03833,1026.096802,740.175598C1025.28479,742.068359,1025.502686,744.245361,1026.667114,745.945129C1027.929688,747.762329,1029.676758,749.189331,1031.710083,750.062317C1032.690796,750.458374,1033.731689,750.682373,1034.788208,750.726379C1036.099731,750.827332,1037.418701,750.749329,1038.710083,750.495911C1039.934692,750.241333,1041.074707,749.675354,1042.018677,748.855286C1042.676758,748.289368,1043.27771,747.660339,1043.811646,746.976379C1044.623779,745.924377,1045.39978,744.845337,1046.139771,743.742004C1047.395752,741.972351,1049.035767,740.509338,1050.936646,739.464661C1052.189697,738.72937,1053.492798,738.082336,1054.835083,737.527161C1056.088745,737.017334,1057.329712,736.508362,1058.581177,735.992004C1063.825684,733.731323,1068.992798,731.294373,1074.073364,728.687317C1076.296753,727.574341,1078.546753,726.516357,1080.823364,725.515442C1083.123779,724.547363,1085.557739,723.93335,1088.042114,723.691223C1089.722778,723.497375,1091.410767,723.366333,1093.100708,723.296692L1101.565552,722.792786C1101.985718,722.754333,1102.394775,722.637329,1102.772583,722.449036L1111.331177,717.984192L1119.299927,713.839661C1125.957764,713.652344,1132.621704,713.425354,1139.276489,713.159973C1141.280762,713.060364,1143.289795,712.945374,1145.292114,712.816223L1145.506958,712.784973C1146.538696,712.762329,1147.565796,712.648376,1148.577271,712.449036C1148.751709,712.406372,1148.922729,712.349365,1149.085083,712.273254C1149.133789,712.252319,1149.181763,712.232361,1149.229614,712.210754C1149.318726,712.170349,1149.410767,712.134338,1149.503052,712.101379L1149.530396,712.085754C1150.951782,711.781372,1152.3927,711.576355,1153.842896,711.472473C1158.501709,711.067322,1163.179688,710.921326,1167.854614,711.034973C1170.913696,711.141357,1173.960693,711.468323,1176.971802,712.015442C1178.335693,712.274353,1179.685791,712.643372,1180.995239,713.120911C1182.895752,713.834351,1184.655762,714.872375,1186.19458,716.187317C1187.145752,716.96936,1188.035767,717.820374,1188.866333,718.734192C1191.405762,721.535339,1193.735718,724.514343,1195.842896,727.648254C1196.885742,729.224365,1197.815796,730.873352,1198.624146,732.581848C1199.405762,734.27533,1199.905762,736.083374,1200.116333,737.937317C1200.265747,739.67334,1200.075684,741.421326,1199.557739,743.085754C1199.075684,744.599365,1198.435791,746.056335,1197.651489,747.433411C1196.795776,748.983337,1195.835693,750.471375,1194.780396,751.886536C1192.825684,754.602356,1190.745728,757.221375,1188.538208,759.734192C1186.535767,762.109375,1184.385742,764.363342,1182.116333,766.484192C1180.415771,768.01532,1178.425781,769.200378,1176.276489,769.976379C1174.22876,770.643372,1172.150757,771.214355,1170.049927,771.687317C1168.315796,772.092346,1166.685791,772.856323,1165.268677,773.933411C1163.38269,775.43634,1162.224731,777.670349,1162.085083,780.077942C1161.84375,783.085327,1162.913696,786.049377,1165.018677,788.210754C1165.781738,788.983337,1166.70874,789.575378,1167.729614,789.945129C1169.032715,790.419373,1170.474731,790.339355,1171.713989,789.718567C1173.475708,788.942322,1175.185791,788.054321,1176.835083,787.062317C1180.465698,784.951355,1183.995728,782.68335,1187.424927,780.265442C1189.235718,778.992371,1190.955688,777.601318,1192.585083,776.101379C1194.525757,774.273376,1196.335693,772.301331,1197.983521,770.202942C1198.945679,769.02832,1199.885742,767.834351,1200.796021,766.624817C1203.575684,763.106323,1206.415649,759.635376,1209.307739,756.214661C1210.145752,755.252319,1210.975708,754.27533,1211.784302,753.284973C1212.345703,752.572327,1212.865723,751.825378,1213.327271,751.046692C1214.005737,749.80835,1214.395752,748.428345,1214.460083,747.015442C1214.455688,744.074341,1214.745728,741.141357,1215.299927,738.253723C1215.405762,737.613342,1215.485718,736.967346,1215.530396,736.320129C1215.615723,735.385376,1215.635742,734.445374,1215.592896,733.507629C1215.565674,733.080322,1215.525757,732.655334,1215.448364,732.234192C1215.235718,731.386353,1214.895752,730.574341,1214.444458,729.824036C1213.485718,728.135376,1212.445679,726.496338,1211.323364,724.909973C1206.795654,718.451355,1201.985718,712.194336,1196.913208,706.156067C1195.735718,704.758362,1194.495728,703.415344,1193.19458,702.132629C1192.105713,701.076355,1190.865723,700.185364,1189.514893,699.488098C1188.075684,698.787354,1186.505737,698.386353,1184.901489,698.312317C1184.305786,698.272339,1183.705688,698.250366,1183.100708,698.245911C1182.075684,698.147339,1181.055786,697.93335,1180.073486,697.609192C1179.305786,697.386353,1178.515747,697.227356,1177.721802,697.136536C1175.847778,696.897339,1173.964722,696.734375,1172.077271,696.648254L1172.026489,696.640442C1170.703735,696.568359,1169.378784,696.527344,1168.053833,696.519348C1164.956787,696.449341,1161.861694,696.301331,1158.772583,696.074036C1157.993774,696.007324,1157.217773,695.918335,1156.444458,695.808411C1155.44873,695.681335,1154.443726,695.632324,1153.440552,695.663879M1059.452271,614.648254C1060.44873,614.944336,1061.426758,615.303345,1062.378052,615.722473C1063.115723,616.059326,1063.796753,616.506348,1064.401489,617.046692C1064.814697,617.458374,1065.106689,617.975342,1065.237427,618.542786C1065.310791,618.79834,1065.345703,619.062378,1065.346802,619.327942C1065.379761,620.40033,1065.27478,621.473328,1065.034302,622.519348C1064.424683,625.28833,1063.565796,627.995361,1062.467896,630.609192C1062.092773,631.470337,1061.617798,632.283325,1061.053833,633.034973C1060.372681,633.866333,1059.475708,634.494324,1058.460083,634.847473C1057.803711,635.102356,1057.122681,635.287354,1056.428833,635.406067C1054.386719,635.759338,1052.32373,635.973328,1050.253052,636.046692C1048.564697,636.170349,1046.868774,636.159363,1045.182739,636.011536C1044.446777,635.921326,1043.724731,635.737366,1043.034302,635.464661C1042.070679,635.01532,1041.200684,634.387329,1040.467896,633.617004L1030.069458,644.015442C1030.269775,644.981323,1030.36377,645.96637,1030.350708,646.952942C1030.292725,650.450378,1030.170776,653.948364,1029.987427,657.441223C1029.877686,659.656372,1029.84375,661.875366,1029.885864,664.093567C1029.927734,664.818359,1029.991699,665.541321,1030.077271,666.261536C1030.197754,667.222351,1030.388794,668.17334,1030.651489,669.105286C1031.340698,671.611328,1032.140747,674.084351,1033.049927,676.519348C1033.416748,677.485352,1033.867798,678.417358,1034.397583,679.304504C1035.227783,680.675354,1036.477783,681.743347,1037.963989,682.343567C1039.002686,682.710327,1040.092773,682.911377,1041.194458,682.937317C1042.888794,682.95636,1044.58374,682.875366,1046.268677,682.695129C1047.606689,682.573364,1048.94873,682.508362,1050.292114,682.499817L1050.487427,682.523254L1050.682739,682.558411C1051.27771,683.009338,1051.764771,683.588318,1052.104614,684.253723C1052.46875,685.076355,1052.341797,686.034363,1051.780396,686.738098C1051.526733,687.064331,1051.223755,687.349365,1050.881958,687.581848L1050.772583,687.609192C1050.043701,687.628357,1049.313721,687.598328,1048.588989,687.519348C1046.263794,687.249329,1043.933716,687.020325,1041.600708,686.831848C1040.52478,686.758362,1039.445679,686.763367,1038.370239,686.847473C1036.946777,686.951355,1035.576782,687.43634,1034.405396,688.253723C1033.604736,688.848328,1032.869751,689.52533,1032.210083,690.273254C1031.35376,691.261353,1030.449707,692.207336,1029.503052,693.109192C1029.101685,693.508362,1028.669678,693.876343,1028.210083,694.206848C1027.292725,694.861328,1026.241699,695.304321,1025.131958,695.499817C1024.327759,695.659363,1023.515747,695.769348,1022.698425,695.831848C1020.549744,695.971375,1018.417786,696.292358,1016.323425,696.792786C1015.569763,696.952332,1014.849792,697.242371,1014.194519,697.648254C1013.651794,698.017334,1013.14679,698.437378,1012.6828,698.902161C1010.929749,700.644348,1009.308777,702.514343,1007.831238,704.495911C1007.252747,705.251343,1006.647766,705.985352,1006.018738,706.699036C1005.188782,707.619324,1004.285767,708.470337,1003.319519,709.245911C1002.76178,709.665344,1002.147766,710.004333,1001.4953,710.253723C1001.028748,710.432373,1000.50177,710.355347,1000.108582,710.046692C999.572754,709.664368,999.154785,709.139343,998.90155,708.531067C998.710754,708.026367,998.707764,707.471375,998.882019,706.960754C999.041748,706.489319,999.285767,706.051331,999.596863,705.663879C1000.062744,705.016357,1000.618774,704.438354,1001.2453,703.945129C1001.829773,703.473328,1002.431763,703.024353,1003.049988,702.597473C1003.063782,702.589355,1003.078796,702.583374,1003.092957,702.574036C1003.601746,702.230347,1004.086792,701.852356,1004.546082,701.445129L1004.58905,701.406067L1005.194519,700.886536L1005.2453,700.855286C1006.267761,699.967346,1007.216797,698.998352,1008.081238,697.956848C1008.851746,697.046326,1009.519775,696.053345,1010.073425,694.995911C1010.64679,693.95636,1010.949768,692.78833,1010.948425,691.601379C1010.939758,690.689331,1010.854797,689.780334,1010.694519,688.882629C1010.598755,688.282349,1010.480774,687.685364,1010.33905,687.093567L1010.331238,687.077942C1010.206787,686.551331,1010.073792,686.026367,1009.9328,685.503723C1009.426758,683.116333,1009.051758,680.702332,1008.811707,678.273254C1008.506775,674.34137,1008.087769,670.418335,1007.553894,666.511536L998.6828,675.382629C997.322754,676.736328,996.010742,678.136353,994.749207,679.581848C994.900757,681.200378,994.948792,682.827332,994.893738,684.452942C994.777771,686.681335,994.215759,688.863342,993.241394,690.870911C992.602783,692.281372,991.874756,693.65033,991.061707,694.968567C989.46875,697.501343,987.966797,700.090332,986.5578,702.730286C986.100769,703.584351,985.669739,704.453369,985.268738,705.335754C984.89679,706.149353,984.575745,706.985352,984.3078,707.839661C984.019775,708.703369,983.847778,709.602356,983.796082,710.511536C983.729797,711.703369,983.993774,712.889343,984.5578,713.941223C985.280762,715.228333,986.247742,716.361328,987.405457,717.277161C988.540771,718.201355,989.764771,719.008362,991.061707,719.687317C994.432739,721.485352,998.117798,722.617371,1001.917175,723.023254C1002.322754,723.018372,1002.72876,723.039368,1003.132019,723.085754C1004.139771,723.121338,1005.147766,723.059326,1006.143738,722.902161C1006.889771,722.768372,1007.623779,722.569336,1008.335144,722.308411C1010.041748,721.709351,1011.653748,720.870361,1013.124207,719.816223C1014.020752,719.177368,1014.884766,718.493347,1015.71405,717.769348C1016.614746,717.002319,1017.504761,716.233337,1018.393738,715.452942C1019.235779,714.715332,1020.123779,714.033325,1021.053894,713.409973C1022.302795,712.550354,1023.588745,711.745361,1024.909302,710.999817C1028.875732,708.768372,1032.982788,706.797363,1037.206177,705.101379C1041.212769,703.46637,1045.290771,702.014343,1049.428833,700.749817C1050.254761,700.46936,1051.078735,700.191345,1051.905396,699.913879L1051.948364,699.902161C1052.476685,699.709351,1053.008789,699.517334,1053.538208,699.327942L1053.620239,699.304504C1055.329712,698.679321,1057.008789,697.973328,1058.651489,697.191223C1059.424683,696.801331,1060.15271,696.326355,1060.819458,695.773254C1063.34375,693.796326,1065.414795,691.301331,1066.893677,688.456848C1067.405762,687.463318,1067.78479,686.405334,1068.018677,685.312317C1068.327759,683.586365,1068.009766,681.80835,1067.128052,680.292786C1066.584717,679.301331,1065.894775,678.398376,1065.081177,677.613098C1063.965698,676.493347,1062.71875,675.513367,1061.366333,674.695129C1059.400757,673.47937,1057.32373,672.453369,1055.163208,671.632629C1053.683716,671.09436,1052.217773,670.521362,1050.764771,669.913879C1050.09375,669.630371,1049.428711,669.33136,1048.772583,669.015442C1047.910767,668.583374,1047.088745,668.076355,1046.315552,667.499817C1045.502686,666.846375,1044.896729,665.973328,1044.565552,664.984192C1044.338745,664.352356,1044.180786,663.697327,1044.092896,663.031067C1043.874756,661.648376,1043.73877,660.254333,1043.682739,658.855286C1043.548706,657.189331,1043.556763,655.51532,1043.706177,653.851379C1043.779785,653.209351,1043.939697,652.579346,1044.182739,651.980286C1044.44873,651.437378,1044.868774,650.985352,1045.389771,650.679504C1045.82373,650.417358,1046.286743,650.207336,1046.768677,650.050598C1047.431763,649.80835,1048.112793,649.615356,1048.803833,649.472473C1051.827759,648.860352,1054.888794,648.457336,1057.967896,648.265442C1059.018799,648.202332,1060.071777,648.218323,1061.120239,648.312317C1062.690796,648.476318,1064.209717,648.973328,1065.573364,649.769348C1066.430786,650.258362,1067.247681,650.813354,1068.018677,651.429504C1069.418701,652.514343,1070.779785,653.648376,1072.100708,654.827942C1073.633789,656.131348,1075.226685,657.363342,1076.874146,658.519348L1077.010864,658.589661C1079.030762,660.02832,1081.246704,661.170349,1083.588989,661.984192C1083.888794,662.063354,1084.183716,662.157349,1084.475708,662.261536C1084.810791,662.342346,1085.143799,662.428345,1085.475708,662.519348C1085.801758,662.585327,1086.126709,662.651367,1086.452271,662.718567L1086.514771,662.726379L1086.538208,662.734192L1087.331177,662.847473C1087.39978,662.862366,1087.46875,662.873352,1087.538208,662.878723C1089.217773,663.083374,1090.916748,663.085327,1092.596802,662.886536C1094.956787,662.620361,1097.286743,662.130371,1099.553833,661.421692C1103.118774,660.335327,1106.635742,659.099365,1110.096802,657.718567C1111.001709,657.337341,1111.896729,656.93335,1112.780396,656.503723C1113.760742,656.018372,1114.678711,655.41333,1115.510864,654.702942C1116.94873,653.461365,1117.827759,651.692322,1117.948364,649.796692C1117.986694,649.33136,1117.987793,648.863342,1117.948364,648.398254C1117.788696,646.886353,1117.473755,645.394348,1117.010864,643.945129C1116.436768,641.96936,1115.797729,640.012329,1115.096802,638.077942C1114.505737,636.486328,1113.78479,634.94635,1112.940552,633.472473C1112.204712,632.197327,1111.278687,631.042358,1110.194458,630.046692C1109.933716,629.81134,1109.665771,629.584351,1109.389771,629.367004C1108.335693,628.557373,1107.16272,627.916321,1105.913208,627.464661C1104.566772,626.960327,1103.170776,626.597351,1101.749146,626.382629C1101.46875,626.335327,1101.187744,626.293335,1100.905396,626.257629L1100.866333,626.245911C1100.358765,626.193359,1099.851685,626.132324,1099.346802,626.062317C1098.835693,626.027344,1098.3927,625.996338,1097.881958,625.960754L1097.850708,625.952942C1094.61377,625.747375,1091.370728,625.655334,1088.128052,625.679504C1087.226685,625.681335,1086.327759,625.792358,1085.452271,626.007629C1084.234741,626.347351,1083.139771,627.030334,1082.299927,627.976379C1081.071777,629.170349,1080.182739,630.669373,1079.725708,632.320129C1079.0177,635.09137,1079.830688,638.030334,1081.862427,640.042786C1083.52771,641.654358,1085.695679,642.645325,1088.003052,642.855286C1089.479736,642.988342,1090.966797,642.920349,1092.424927,642.652161C1093.917725,642.438354,1095.385742,642.07135,1096.803833,641.558411C1098.089722,641.133362,1099.427734,640.888367,1100.780396,640.831848C1101.407715,640.827332,1102.031738,640.909363,1102.635864,641.077942C1103.053711,641.236328,1103.391724,641.554321,1103.569458,641.964661C1103.896729,642.634338,1103.922729,643.412354,1103.639771,644.101379C1103.351685,644.917358,1102.788696,645.607361,1102.046021,646.050598C1101.933716,646.099365,1101.818726,646.143372,1101.698364,646.167786C1100.816772,646.401367,1099.917725,646.564331,1099.010864,646.656067C1096.77771,646.928345,1094.53772,647.131348,1092.292114,647.265442C1091.012695,647.342346,1089.730713,647.334351,1088.452271,647.242004C1086.915771,647.09137,1085.417725,646.671326,1084.026489,646.003723C1083.080688,645.573364,1082.16272,645.085327,1081.276489,644.542786C1079.672729,643.675354,1078.217773,642.557373,1076.967896,641.230286C1075.825684,639.919373,1075.192749,638.242371,1075.182739,636.503723C1075.166748,635.304321,1075.305786,634.108337,1075.596802,632.945129L1075.741333,632.320129C1076.334717,630.126343,1077.10376,627.984375,1078.042114,625.913879C1078.381714,625.193359,1078.800781,624.513367,1079.292114,623.886536C1079.543701,623.585327,1079.838745,623.322327,1080.171021,623.113098C1080.896729,622.68335,1081.697754,622.394348,1082.530396,622.261536C1083.433716,622.106323,1084.345703,622.000366,1085.260864,621.945129C1087.837769,621.824341,1090.417725,621.810364,1092.995239,621.902161C1096.575684,621.957336,1100.15271,622.132324,1103.721802,622.425598C1104.976685,622.563354,1106.220703,622.786377,1107.444458,623.093567C1108.741699,623.434326,1109.939697,624.079346,1110.936646,624.976379C1112.125732,626.037354,1113.178711,627.240356,1114.073364,628.558411C1116.187744,631.624329,1118.040771,634.862366,1119.612427,638.238098C1120.15271,639.442322,1120.548706,640.70636,1120.792114,642.003723C1120.990723,643.289368,1121.137695,644.58136,1121.233521,645.878723C1121.344727,647.087341,1121.516724,648.289368,1121.749146,649.480286C1121.928711,650.329346,1122.205688,651.155334,1122.573364,651.941223C1123.423706,653.744324,1125.089722,655.02832,1127.049927,655.390442C1127.195679,655.427368,1127.342773,655.458374,1127.491333,655.480286C1128.742798,655.668335,1130.014771,655.669373,1131.264771,655.476379C1133.317749,655.118347,1135.070679,653.791321,1135.983521,651.917786C1136.47876,650.93335,1136.820679,649.880371,1136.995239,648.792786L1137.010864,648.749817C1137.10376,648.204346,1137.182739,647.655334,1137.245239,647.105286C1137.461792,644.631348,1137.473755,642.143372,1137.280396,639.667786C1137.175781,638.362366,1136.904785,637.075378,1136.471802,635.839661C1135.897705,634.322327,1134.980713,632.959351,1133.792114,631.855286C1132.956787,631.072327,1132.056763,630.361328,1131.100708,629.730286C1130.241699,629.103333,1129.473755,628.358337,1128.819458,627.519348C1128.183716,626.638367,1127.669678,625.675354,1127.292114,624.656067C1126.729736,623.113342,1126.278687,621.532349,1125.944458,619.925598C1125.677734,618.78833,1125.360718,617.66333,1124.995239,616.554504C1124.646729,615.556335,1124.156738,614.614319,1123.538208,613.757629C1123.199707,613.340332,1122.82373,612.955322,1122.413208,612.609192C1121.661743,612.080322,1120.825684,611.68335,1119.940552,611.437317C1118.063721,610.826355,1116.160767,610.295349,1114.237427,609.847473C1111.316772,609.15332,1108.376709,608.545349,1105.421021,608.023254L1104.370239,607.863098L1104.346802,607.855286C1103.610718,607.753357,1102.871704,607.667358,1102.131958,607.597473C1100.076782,607.425354,1098.013794,607.361328,1095.952271,607.406067L1094.284302,607.449036L1083.018677,607.816223C1080.8927,607.912354,1078.762695,607.862366,1076.643677,607.667786C1075.378784,607.522339,1074.157715,607.118347,1073.057739,606.476379C1072.165771,605.958374,1071.319702,605.363342,1070.530396,604.699036L1069.901489,604.199036L1059.452271,614.648254"/>
</svg>
