<?xml version="1.0" encoding="UTF-8"?>
<svg xmlns="http://www.w3.org/2000/svg" width="333.113mm" height="300.029mm" viewBox="-1261.330322 -844.833740 333.112976 300.029053">
    <path transform="matrix(-1,0,0,-1,0,0)" style="stroke:#000000;stroke-width:0.05mm;fill:none" d="M1233.625,683.613281C1250.832031,700.738647,1260.750488,723.854675,1261.304688,748.125C1261.738159,766.038513,1257.062378,783.704834,1247.824219,799.058594C1243.471436,806.252197,1238.19043,812.841614,1232.117188,818.65625C1212.412354,837.59491,1185.430908,847.003174,1158.222656,844.421875C1144.248779,843.101013,1130.750488,838.655579,1118.726563,831.414063C1109.993652,825.83606,1101.954224,819.240356,1094.777344,811.765625C1085.498047,821.738281,1074.515015,829.976563,1062.34375,836.09375C1032.673584,849.839661,997.999268,847.232056,970.71875,829.203125C954.652771,818.608398,942.215332,803.34906,935.078125,785.476563C920.896912,750.421692,929.108948,710.282104,955.917969,683.613281L1094.777344,544.804688L1233.625,683.613281z"/>
    <path transform="matrix(-1,0,0,-1,0,0)" style="stroke:#000000;stroke-width:0.05mm;fill:none" d="M1169.457031,838.394531C1169.335938,838.403503,1169.216187,838.423279,1169.097656,838.449219L1168.929688,838.515625L1168.761719,838.597656L1168.609375,838.703125C1168.487183,838.806519,1168.381958,838.926819,1168.28125,839.050781L1168.207031,839.175781L1168.144531,839.308594C1168.009766,839.658569,1168.001587,840.04425,1168.125,840.398438C1168.212891,840.652283,1168.370361,840.876526,1168.578125,841.046875L1168.691406,841.132813C1168.769165,841.191162,1168.854858,841.237915,1168.945313,841.273438C1169.271606,841.404175,1169.632568,841.422974,1169.96875,841.320313C1170.085327,841.280151,1170.198364,841.230774,1170.308594,841.175781C1170.428467,841.09613,1170.542114,841.007446,1170.640625,840.902344C1170.800415,840.688049,1170.921997,840.448303,1170.996094,840.191406L1171.027344,839.890625L1170.984375,839.59375L1170.910156,839.308594C1170.818359,839.138916,1170.708618,838.980042,1170.589844,838.828125C1170.519531,838.761841,1170.440918,838.705933,1170.363281,838.648438C1170.254395,838.581604,1170.141968,838.520691,1170.023438,838.472656L1169.835938,838.417969L1169.640625,838.394531L1169.457031,838.394531z"/>
    <path transform="matrix(-1,0,0,-1,0,0)" style="stroke:#000000;stroke-width:0.05mm;fill:none" d="M1019.878906,838.402344L1019.730469,838.429688C1019.564453,838.464844,1019.404358,838.523499,1019.257813,838.609375C1019.152588,838.671631,1019.059021,838.75,1018.96875,838.832031C1018.884216,838.916626,1018.817505,839.015869,1018.753906,839.117188L1018.644531,839.308594C1018.590332,839.499268,1018.550781,839.693787,1018.527344,839.890625C1018.526917,840.036499,1018.548523,840.181641,1018.59375,840.320313C1018.622742,840.40741,1018.659973,840.491333,1018.699219,840.574219L1018.765625,840.695313C1018.866943,840.843933,1018.987366,840.978882,1019.128906,841.089844L1019.332031,841.21875C1019.479309,841.283752,1019.632568,841.333618,1019.789063,841.371094L1020.027344,841.390625C1020.224487,841.369141,1020.418945,841.328735,1020.609375,841.273438C1020.784302,841.190857,1020.94574,841.082214,1021.089844,840.953125C1021.152893,840.880127,1021.210632,840.802917,1021.269531,840.726563C1021.318848,840.643311,1021.36554,840.558533,1021.410156,840.472656L1021.488281,840.183594L1021.527344,839.890625C1021.512878,839.742188,1021.49115,839.594482,1021.457031,839.449219C1021.414246,839.335632,1021.367004,839.223816,1021.308594,839.117188C1021.189331,838.936584,1021.040649,838.777954,1020.867188,838.648438L1020.605469,838.519531L1020.328125,838.421875C1020.179382,838.400146,1020.028992,838.393616,1019.878906,838.402344z"/>
    <path transform="matrix(-1,0,0,-1,0,0)" style="stroke:#000000;stroke-width:0.05mm;fill:none" d="M981.570313,806.082031C980.632446,806.149231,979.72406,806.437805,978.917969,806.921875C977.949402,807.487183,977.105347,808.242615,976.433594,809.140625C975.265747,810.658081,974.211731,812.26001,973.28125,813.933594C972.663208,815.10083,972.031372,816.261292,971.386719,817.414063C974.968933,820.15979,978.767822,822.610474,982.746094,824.742188C983.397095,824.022278,984.186584,823.440369,985.070313,823.039063C985.631836,822.807434,986.223694,822.657654,986.828125,822.597656C991.041992,822.184082,995.294678,822.710083,999.28125,824.136719C1000.524963,824.65686,1001.695618,825.336182,1002.765625,826.15625C1005.915894,828.502136,1008.824707,831.155945,1011.449219,834.078125C1017.326599,834.868225,1023.270813,835.037231,1029.183594,834.582031C1028.076904,832.722046,1026.854492,830.933289,1025.523438,829.226563C1023.322754,826.34259,1020.932007,823.608643,1018.367188,821.042969C1015.824402,818.443604,1013.22998,815.894897,1010.585938,813.398438C1009.705444,812.576294,1008.779602,811.804199,1007.8125,811.085938C1007.110901,810.58728,1006.368042,810.149414,1005.59375,809.773438C1004.220093,809.168152,1002.742615,808.833679,1001.242188,808.789063C999.890564,808.718079,998.536621,808.701355,997.183594,808.738281C995.433105,808.736938,993.684204,808.635132,991.945313,808.433594C990.579956,808.242859,989.231995,807.943542,987.914063,807.539063C986.703857,807.137634,985.484924,806.764099,984.257813,806.417969C983.384033,806.170593,982.478027,806.055237,981.570313,806.082031z"/>
    <path transform="matrix(-1,0,0,-1,0,0)" style="stroke:#000000;stroke-width:0.05mm;fill:none" d="M1167.121094,813.804688L1166.929688,813.8125C1165.627319,813.967773,1164.356323,814.32135,1163.160156,814.859375C1160.320801,816.175842,1157.549316,817.633484,1154.855469,819.226563C1153.405518,820.10553,1152.010132,821.071106,1150.675781,822.117188C1149.796143,822.818115,1148.972656,823.586853,1148.214844,824.417969C1147.353027,825.410828,1146.660767,826.538879,1146.167969,827.757813C1145.649902,829.155823,1145.559692,830.676819,1145.914063,832.125C1152,833.710815,1158.244995,834.607239,1164.53125,834.796875C1163.566406,833.833923,1162.664307,832.810059,1161.832031,831.730469C1161.526855,831.1427,1161.421021,830.470459,1161.546875,829.820313L1161.617188,829.550781L1161.722656,829.289063C1161.838867,829.063965,1161.986572,828.856689,1162.164063,828.675781C1162.279785,828.562317,1162.411255,828.465332,1162.558594,828.398438C1162.790039,828.288025,1163.032959,828.202759,1163.285156,828.15625C1163.482544,828.135925,1163.680542,828.121277,1163.878906,828.117188C1164.291626,828.120544,1164.699585,828.197876,1165.089844,828.332031C1165.61377,828.590332,1166.09021,828.935425,1166.496094,829.355469C1167.499756,830.395935,1168.417847,831.515564,1169.242188,832.703125C1169.745117,833.397949,1170.264771,834.080322,1170.800781,834.75C1178.028564,834.431519,1185.184448,833.177612,1192.089844,831.019531C1190.243896,830.004456,1188.363525,828.963318,1186.523438,827.9375C1184.098511,826.456726,1181.852783,824.700439,1179.832031,822.703125C1178.71936,821.6203,1177.628296,820.515991,1176.558594,819.390625L1174.816406,817.636719C1173.980103,816.811523,1173.083252,816.05011,1172.132813,815.359375C1171.209106,814.678284,1170.152222,814.199341,1169.03125,813.953125C1168.40271,813.827698,1167.761475,813.777161,1167.121094,813.804688z"/>
    <path transform="matrix(-1,0,0,-1,0,0)" style="stroke:#000000;stroke-width:0.05mm;fill:none" d="M978.316406,759.1875C976.760864,759.223022,975.206726,759.306519,973.65625,759.4375C969.277649,759.703491,964.910767,760.141357,960.566406,760.75C959.438538,760.912964,958.320679,761.139343,957.21875,761.429688C956.347717,761.712036,955.571716,762.231079,954.984375,762.933594C954.421997,763.55481,953.923096,764.230591,953.492188,764.949219C952.402954,766.666321,951.43457,768.457092,950.59375,770.308594C948.689697,774.22522,946.613403,778.055786,944.371094,781.789063C946.888,788.077637,950.153748,794.039917,954.097656,799.546875C955.06958,796.783386,955.998291,794.003662,956.882813,791.210938C957.817566,788.348694,958.88916,785.532959,960.09375,782.773438C960.703613,781.441162,961.393372,780.146973,962.160156,778.898438C962.751282,777.968689,963.444092,777.107666,964.226563,776.332031C965.442505,775.176514,966.919434,774.331665,968.53125,773.867188C970.204895,773.309265,971.968628,773.072083,973.730469,773.164063C975.585632,773.342529,977.314148,774.183594,978.601563,775.53125C979.292114,776.200256,979.90741,776.942627,980.441406,777.742188C981.339172,779.04718,982.423523,780.213318,983.660156,781.203125C984.87793,782.115112,986.2724,782.763245,987.753906,783.109375C989.126587,783.431824,990.522888,783.642883,991.929688,783.738281C993.457703,783.855591,994.982361,783.962158,996.511719,784.058594C998.052979,784.215515,999.562866,784.597778,1000.992188,785.195313C1003.616394,786.305054,1006.167175,787.581177,1008.628906,789.015625C1009.485535,789.526855,1010.297913,790.108582,1011.058594,790.753906C1011.446777,791.093811,1011.802063,791.469482,1012.121094,791.875C1012.513367,792.439209,1012.754272,793.095947,1012.804688,793.78125C1012.83197,794.117065,1012.828247,794.454895,1012.785156,794.789063C1012.622864,796.058411,1012.311401,797.304321,1011.855469,798.5C1011.758057,798.844116,1011.642212,799.182678,1011.511719,799.515625C1011.374268,800.008728,1011.237305,800.502502,1011.101563,800.996094C1010.797913,802.213074,1010.619019,803.457703,1010.566406,804.710938C1010.549683,805.62561,1010.746643,806.531677,1011.144531,807.355469C1011.492615,808.039612,1011.916382,808.682495,1012.40625,809.273438C1012.907776,809.920837,1013.437073,810.546326,1013.992188,811.148438C1016.071411,813.394897,1018.248047,815.549255,1020.515625,817.605469C1022.394348,819.363647,1024.237061,821.159424,1026.042969,822.992188C1027.067749,824.067444,1028.039063,825.192444,1028.953125,826.363281C1030.525879,828.548096,1031.842651,830.906128,1032.878906,833.390625L1033.234375,834.171875C1037.866089,833.58844,1042.441528,832.622803,1046.914063,831.285156C1045.752808,827.520142,1044.528687,823.774841,1043.242188,820.050781C1042.784668,818.81366,1042.262817,817.601196,1041.679688,816.417969C1041.522095,816.185974,1041.379395,815.944153,1041.257813,815.691406C1040.244995,814.037109,1038.771973,812.714233,1037.019531,811.882813C1036.186523,811.44574,1035.339722,811.035278,1034.480469,810.652344C1032.873535,809.922058,1031.357544,809.006287,1029.964844,807.921875C1028.510132,806.730835,1027.406006,805.167542,1026.769531,803.398438C1026.104858,801.604126,1025.725952,799.716614,1025.648438,797.804688C1025.637451,796.97052,1025.741089,796.138916,1025.953125,795.332031C1026.292725,794.253235,1026.843872,793.25354,1027.570313,792.386719C1028.43103,791.349487,1029.395386,790.402832,1030.449219,789.5625C1032.636719,787.838745,1034.952271,786.283936,1037.375,784.910156C1041.291748,782.60437,1045.299072,780.455444,1049.386719,778.46875C1050.481934,777.933105,1051.660278,777.58783,1052.871094,777.445313C1054.085327,777.361572,1055.30249,777.329041,1056.519531,777.347656C1057.918945,777.334045,1059.314209,777.191162,1060.6875,776.921875C1061.583618,776.734009,1062.44812,776.419495,1063.257813,775.992188C1064.726563,775.181152,1065.875732,773.895386,1066.523438,772.347656C1067.089966,771.131226,1067.416748,769.816956,1067.480469,768.476563C1067.565796,766.284912,1066.617065,764.179993,1064.917969,762.792969C1063.519409,761.700256,1061.809204,761.08197,1060.035156,761.027344C1058.79834,760.975342,1057.559937,761.077576,1056.347656,761.328125C1054.10791,761.746033,1051.911011,762.368042,1049.785156,763.1875C1046.192017,764.525818,1042.698975,766.118652,1039.332031,767.953125C1035.22229,770.147888,1031.231201,772.557373,1027.375,775.171875C1025.584839,776.311646,1023.717102,777.324768,1021.785156,778.203125C1020.791504,778.640442,1019.740601,778.934082,1018.664063,779.074219C1017.515137,779.150146,1016.381042,778.782654,1015.492188,778.050781C1015.013245,777.665649,1014.572388,777.235657,1014.171875,776.769531C1013.530701,776.054138,1012.925415,775.307434,1012.359375,774.53125C1011.720642,773.725891,1011.021484,772.970398,1010.269531,772.269531C1009.024231,771.173706,1007.483582,770.468994,1005.839844,770.246094C1004.539551,770.061951,1003.227295,769.975952,1001.914063,769.988281C999.986145,770.003296,998.057922,769.957642,996.132813,769.851563C995.282532,769.776245,994.439819,769.631409,993.613281,769.417969C992.718628,769.147705,991.919617,768.630432,991.296875,767.933594C990.484863,767.015625,989.750244,766.031982,989.101563,764.992188C988.275574,763.725647,987.32135,762.547546,986.253906,761.476563C985.700684,760.922852,985.083252,760.437256,984.414063,760.03125C983.596741,759.568909,982.686951,759.293213,981.75,759.230469C980.606873,759.160522,979.460999,759.146423,978.316406,759.1875z"/>
    <path transform="matrix(-1,0,0,-1,0,0)" style="stroke:#000000;stroke-width:0.05mm;fill:none" d="M991.042969,826.371094C989.916016,826.441284,988.81604,826.743958,987.808594,827.253906C993.308105,829.759521,999.061401,831.666138,1004.96875,832.941406C1002.581421,830.573669,999.760803,828.687378,996.660156,827.386719C995.049255,826.746582,993.338257,826.394653,991.605469,826.347656L991.042969,826.371094z"/>
    <path transform="matrix(-1,0,0,-1,0,0)" style="stroke:#000000;stroke-width:0.05mm;fill:none" d="M1059.71875,780.113281C1058.624756,780.178528,1057.539429,780.346008,1056.476563,780.613281C1054.973633,780.958313,1053.497437,781.410522,1052.058594,781.964844L1051.976563,781.980469C1047.322388,783.702209,1042.853394,785.887634,1038.636719,788.503906C1037.041626,789.494507,1035.518433,790.596313,1034.078125,791.800781C1033.316528,792.47937,1032.618896,793.22644,1031.992188,794.03125C1031.282593,795.053589,1030.794067,796.212341,1030.554688,797.433594C1030.120239,799.509705,1030.526611,801.674072,1031.6875,803.449219C1033.003052,805.433594,1034.905884,806.956238,1037.128906,807.808594C1038.618652,808.343445,1040.226074,808.459106,1041.777344,808.144531C1043.41394,807.777649,1044.848877,806.801575,1045.796875,805.417969C1046.768921,803.992554,1047.639893,802.500793,1048.402344,800.953125C1049.010742,799.696472,1049.676636,798.468506,1050.398438,797.273438L1051.078125,796.210938C1051.481323,795.613708,1051.990967,795.095764,1052.582031,794.683594C1052.693726,794.622559,1052.806152,794.563049,1052.925781,794.519531C1053.046997,794.482727,1053.169189,794.448975,1053.292969,794.421875C1053.95166,794.341309,1054.619263,794.406982,1055.25,794.613281C1055.425659,794.67926,1055.59021,794.773132,1055.722656,794.90625L1055.886719,795.070313L1056.039063,795.242188C1056.278198,795.544678,1056.461426,795.887878,1056.570313,796.257813L1056.589844,796.425781C1056.598877,796.53894,1056.597656,796.652344,1056.59375,796.765625L1056.570313,796.933594C1056.370605,797.657288,1056.054443,798.343689,1055.632813,798.964844C1054.437988,800.707336,1053.087402,802.337708,1051.597656,803.835938C1050.493774,805.034973,1049.428223,806.268677,1048.402344,807.535156C1047.591309,808.565369,1046.934448,809.707764,1046.449219,810.925781L1046.402344,811.109375C1046.00415,812.24823,1045.852173,813.458618,1045.960938,814.660156C1046.093628,815.893188,1046.366699,817.107178,1046.777344,818.277344C1047.289551,819.820007,1047.865479,821.341064,1048.503906,822.835938C1049.351807,825.202209,1050.078491,827.610107,1050.679688,830.050781C1053.157715,829.182129,1055.592896,828.195313,1057.976563,827.09375C1060.154053,826.004211,1062.289795,824.832764,1064.378906,823.582031C1063.480957,822.839539,1062.71167,821.953613,1062.101563,820.960938C1061.49646,819.921265,1061.321655,818.684509,1061.621094,817.519531C1061.787842,816.675842,1062.046997,815.853027,1062.394531,815.066406C1062.987915,813.638794,1063.677368,812.253052,1064.457031,810.917969C1065.728027,808.77124,1067.008667,806.592285,1068.265625,804.4375C1068.498291,804.028076,1068.634033,803.571045,1068.671875,803.101563L1068.671875,794.675781C1068.680298,792.659546,1068.557495,790.644836,1068.304688,788.644531C1068.159668,787.5672,1067.910889,786.506226,1067.5625,785.476563C1067.212158,784.482544,1066.70105,783.552856,1066.046875,782.726563C1064.586182,781.015503,1062.432739,780.051758,1060.183594,780.101563L1059.71875,780.113281z"/>
    <path transform="matrix(-1,0,0,-1,0,0)" style="stroke:#000000;stroke-width:0.05mm;fill:none" d="M1189.152344,748.824219C1187.898804,748.917664,1186.709229,749.412231,1185.761719,750.238281C1184.486938,751.346924,1183.560059,752.800354,1183.085938,754.421875C1182.382813,756.651978,1182.488525,759.058228,1183.382813,761.21875C1184,762.538147,1185.051147,763.605591,1186.359375,764.246094C1187.204224,764.679321,1188.112305,764.976746,1189.050781,765.121094C1190.124146,765.305115,1191.211914,765.392822,1192.300781,765.378906C1194.070923,765.391235,1195.837524,765.536011,1197.585938,765.8125C1203.307983,766.670593,1208.923462,768.129272,1214.339844,770.164063C1215.88562,770.765991,1217.404053,771.43573,1218.890625,772.171875C1220.56604,773.2276,1222.115967,774.470215,1223.511719,775.875C1226.643799,779.265442,1229.791626,782.627869,1232.96875,785.976563C1234.146362,787.232666,1235.244995,788.56073,1236.257813,789.953125L1236.359375,790.128906L1236.425781,790.308594C1236.508179,790.550476,1236.554932,790.80304,1236.558594,791.058594C1236.534546,791.366638,1236.452759,791.666626,1236.328125,791.949219C1236.247192,792.095642,1236.156494,792.236694,1236.042969,792.359375C1235.935547,792.489014,1235.807617,792.599426,1235.671875,792.699219C1235.262329,792.992004,1234.779419,793.163391,1234.277344,793.199219C1233.789185,793.244385,1233.296509,793.218018,1232.820313,793.101563C1232.433105,793.000061,1232.082275,792.792542,1231.800781,792.507813C1231.272705,792.003967,1230.786255,791.458313,1230.347656,790.875C1229.896729,790.315125,1229.476685,789.730957,1229.089844,789.125C1226.88623,785.725525,1224.265381,782.615601,1221.289063,779.867188C1217.837158,776.734314,1213.787109,774.332275,1209.382813,772.804688C1208.943726,772.628967,1208.496948,772.472839,1208.042969,772.339844L1208.015625,772.339844C1207.092896,772.047302,1206.160156,771.787903,1205.21875,771.5625C1204.845337,771.45282,1204.46582,771.36554,1204.082031,771.300781C1199.345337,770.322876,1194.58728,769.447632,1189.8125,768.675781L1188.609375,768.507813L1188.59375,768.5C1187.133667,768.276672,1185.654541,768.204773,1184.179688,768.285156C1182.977417,768.38501,1181.845093,768.893433,1180.96875,769.722656C1179.981323,770.634277,1179.032715,771.587097,1178.125,772.578125C1173.594971,777.588501,1169.244507,782.758301,1165.082031,788.078125C1163.956543,789.545898,1162.811646,790.999512,1161.648438,792.4375C1160.123901,794.300232,1158.355103,795.948853,1156.390625,797.339844C1151.31897,800.976013,1146.014771,804.276001,1140.511719,807.21875C1139.709106,807.62323,1138.897827,808.010193,1138.078125,808.378906C1137.341187,808.730713,1136.609619,809.092529,1135.882813,809.464844C1134.502808,810.201721,1133.26123,811.172546,1132.210938,812.332031C1132.078125,812.505005,1131.938232,812.672607,1131.785156,812.828125C1131.180664,813.58905,1130.617432,814.381958,1130.097656,815.203125C1129.439575,816.224304,1128.769897,817.239319,1128.089844,818.246094C1127.665771,818.824768,1127.225464,819.391296,1126.769531,819.945313C1126.023926,820.839417,1125.041382,821.505249,1123.933594,821.863281C1123.556152,821.98291,1123.169922,822.073425,1122.777344,822.125C1126.86792,824.721436,1131.189575,826.933838,1135.6875,828.734375C1136.432373,829.037842,1137.182495,829.328369,1137.9375,829.605469C1139.719116,828.094421,1141.393555,826.461426,1142.949219,824.71875C1144.156616,823.121765,1145.536011,821.662537,1147.0625,820.367188C1149.770386,817.98407,1152.735107,815.909912,1155.902344,814.183594C1157.415649,813.37323,1158.99707,812.696899,1160.628906,812.164063C1162.207642,811.588257,1163.768066,810.964294,1165.308594,810.292969C1165.896362,810.013489,1166.472778,809.710449,1167.035156,809.382813C1168.358154,808.565125,1169.475586,807.453674,1170.296875,806.132813C1170.88501,805.190247,1171.405518,804.207214,1171.855469,803.191406C1174.420532,797.741333,1177.911255,792.777405,1182.171875,788.519531C1183.167236,787.545837,1184.232788,786.646545,1185.359375,785.828125C1185.799927,785.526245,1186.254639,785.245544,1186.722656,784.988281C1187.890747,784.418579,1189.14917,784.056152,1190.441406,783.917969C1192.125122,783.718994,1193.827026,783.731262,1195.507813,783.953125C1198.393066,784.300659,1201.204224,785.107178,1203.835938,786.339844C1205.84375,787.259766,1207.708496,788.464355,1209.371094,789.917969C1210.901733,791.245911,1212.364502,792.649963,1213.753906,794.125C1217.570068,798.62793,1222.308105,802.25946,1227.648438,804.773438C1228.562622,805.195984,1229.491577,805.585388,1230.433594,805.941406C1237.686523,797.707886,1243.245605,788.125427,1246.792969,777.742188C1245.410156,776.511353,1243.863892,775.477722,1242.199219,774.667969C1240.040405,773.569519,1238.387451,771.6828,1237.582031,769.398438C1237.302734,768.645386,1237.052612,767.881714,1236.832031,767.109375C1236.474854,766.082153,1235.996216,765.101196,1235.40625,764.1875C1235.00354,763.570007,1234.517334,763.011536,1233.964844,762.523438C1233.728516,762.33136,1233.474487,762.161743,1233.203125,762.023438C1232.326782,761.559998,1231.42395,761.148376,1230.5,760.789063C1229.082275,760.203003,1227.646606,759.661377,1226.195313,759.164063C1216.661133,755.83667,1206.999878,752.883911,1197.234375,750.3125C1195.455078,749.863831,1193.666626,749.449463,1191.871094,749.070313C1191.084595,748.922974,1190.287964,748.836975,1189.488281,748.808594L1189.152344,748.824219z"/>
    <path transform="matrix(-1,0,0,-1,0,0)" style="stroke:#000000;stroke-width:0.05mm;fill:none" d="M1193.164063,787.636719C1191.024536,787.751221,1188.951172,788.418396,1187.144531,789.570313C1185.76709,790.462036,1184.495605,791.507202,1183.351563,792.683594C1182.281006,793.780457,1181.288574,794.95105,1180.382813,796.1875C1178.702515,798.378601,1177.174438,800.682251,1175.808594,803.082031C1175.381592,803.892822,1175.017578,804.735291,1174.71875,805.601563C1174.262207,807.065491,1174.189819,808.62262,1174.515625,810.121094C1174.704102,810.869507,1174.996582,811.587952,1175.386719,812.253906C1175.981934,813.289307,1176.698364,814.250061,1177.519531,815.117188C1179.161133,816.849487,1180.94751,818.43866,1182.859375,819.867188C1184.102783,820.827393,1185.374268,821.75116,1186.671875,822.636719C1190.090332,824.963501,1193.588257,827.17041,1197.160156,829.253906C1202.512817,827.2005,1207.639038,824.599426,1212.457031,821.492188C1210.740479,820.580444,1209.05957,819.60321,1207.417969,818.5625C1203.700562,816.197021,1200.017822,813.777466,1196.371094,811.304688C1194.634277,810.169434,1192.866699,809.081482,1191.070313,808.042969C1190.697144,807.801819,1190.361084,807.508667,1190.0625,807.179688C1189.493652,806.541931,1189.110596,805.760132,1188.964844,804.917969C1188.909302,804.604675,1188.927368,804.282349,1189.015625,803.976563C1189.058105,803.848206,1189.1073,803.722107,1189.175781,803.605469C1189.284302,803.434265,1189.411377,803.276123,1189.554688,803.132813L1189.796875,802.910156C1190.425781,802.39563,1191.224365,802.132385,1192.035156,802.1875L1192.175781,802.210938C1193.02124,802.666321,1193.831909,803.183594,1194.601563,803.757813C1195.988281,804.799622,1197.335449,805.893005,1198.640625,807.035156C1202.051025,809.889771,1205.636108,812.528992,1209.375,814.9375C1210.41272,815.609863,1211.470337,816.251099,1212.546875,816.859375C1212.588135,816.895691,1212.634766,816.924622,1212.679688,816.957031L1214.128906,817.765625L1214.195313,817.789063C1214.887939,818.161438,1215.585815,818.52301,1216.289063,818.875C1220.329224,815.949219,1224.102051,812.670837,1227.5625,809.078125C1225.546265,808.156433,1223.597534,807.093872,1221.730469,805.898438C1219.829346,804.680359,1217.997314,803.357849,1216.242188,801.9375C1214.255005,800.351929,1212.346558,798.670166,1210.523438,796.898438C1208.433228,794.9375,1206.217529,793.114685,1203.890625,791.441406C1202.303711,790.340881,1200.608643,789.405518,1198.832031,788.648438C1197.032227,787.925598,1195.102783,787.581055,1193.164063,787.636719z"/>
    <path transform="matrix(-1,0,0,-1,0,0)" style="stroke:#000000;stroke-width:0.05mm;fill:none" d="M1130,748.621094C1129.820801,748.653198,1129.638428,748.665894,1129.457031,748.652344C1127.772461,748.817017,1126.104248,749.119141,1124.46875,749.554688C1122.979858,749.935608,1121.504883,750.369446,1120.046875,750.855469C1116.120483,752.037476,1112.013306,752.503296,1107.921875,752.230469C1105.811646,752.122864,1103.706299,751.939148,1101.609375,751.679688C1098.68335,751.364258,1095.7323,751.355957,1092.804688,751.65625C1091.572021,751.832703,1090.354004,752.098816,1089.160156,752.453125C1088.758301,752.612549,1088.347656,752.749023,1087.929688,752.859375C1084.298828,754.160889,1080.854004,755.932068,1077.683594,758.128906C1076.096558,759.223145,1074.63501,760.488831,1073.324219,761.902344C1072.403564,762.983337,1071.737549,764.257141,1071.371094,765.628906C1070.986572,767.069885,1070.678467,768.530151,1070.449219,770.003906C1070.009766,772.679565,1069.565186,775.324036,1069.105469,777.996094C1069.100098,778.023376,1069.094971,778.050781,1069.089844,778.078125C1069.026489,778.450562,1069.039917,778.832031,1069.128906,779.199219L1069.210938,779.46875C1069.970337,781.737671,1070.737915,784.006287,1071.511719,786.269531C1072.090088,788.034607,1072.48877,789.853821,1072.699219,791.699219C1072.966187,795.0047,1072.94519,798.327087,1072.636719,801.628906C1072.482788,802.98938,1072.186401,804.329895,1071.753906,805.628906C1071.072266,807.409485,1070.187012,809.105408,1069.117188,810.683594C1068.159424,812.260498,1067.43335,813.966614,1066.960938,815.75C1066.557861,817.469177,1066.667603,819.268616,1067.277344,820.925781C1067.366943,821.155579,1067.469971,821.379944,1067.585938,821.597656C1074.511963,817.136292,1080.879883,811.863037,1086.554688,805.890625C1086.898804,802.495911,1086.995361,799.080627,1086.84375,795.671875C1086.720093,793.429749,1086.504761,791.19342,1086.199219,788.96875C1085.881226,786.425354,1085.518921,783.886353,1085.113281,781.355469C1084.793945,779.269287,1084.639038,777.161255,1084.648438,775.050781C1084.651489,773.764465,1085.055786,772.510681,1085.804688,771.464844C1086.526855,770.355774,1087.447876,769.389954,1088.519531,768.613281C1090.350708,767.232056,1092.467163,766.277222,1094.714844,765.820313C1095.97644,765.534912,1097.27002,765.418213,1098.5625,765.46875C1099.453491,765.540344,1100.331421,765.726196,1101.175781,766.019531C1102.548584,766.517456,1103.912354,767.04126,1105.265625,767.589844C1106.466675,768.089722,1107.719116,768.455811,1109,768.683594C1110.142212,768.843445,1111.304932,768.779297,1112.421875,768.492188C1115.397461,767.662048,1118.408203,766.96344,1121.445313,766.398438C1122.675293,766.138306,1123.908569,765.893372,1125.144531,765.664063C1127.313721,765.25177,1129.455566,764.707764,1131.558594,764.035156C1132.550537,763.677917,1133.505127,763.224426,1134.410156,762.683594C1136.123535,761.556702,1137.561279,760.058777,1138.617188,758.300781C1139.203247,757.226929,1139.413452,755.989014,1139.21875,754.78125C1139.154297,754.557556,1139.095459,754.332275,1139.042969,754.105469C1138.701904,753.098389,1138.168457,752.167236,1137.472656,751.363281C1136.490723,750.128174,1135.116333,749.265625,1133.578125,748.914063C1132.405518,748.645386,1131.200684,748.547119,1130,748.621094z"/>
    <path transform="matrix(-1,0,0,-1,0,0)" style="stroke:#000000;stroke-width:0.05mm;fill:none" d="M1128.761719,730.5C1125.057129,730.528564,1121.358643,730.806519,1117.691406,731.332031C1116.47937,731.541687,1115.262817,731.72522,1114.042969,731.882813C1110.82019,732.245972,1107.582397,732.459717,1104.339844,732.523438C1102.018921,732.574158,1099.700439,732.601501,1097.378906,732.605469C1094.90686,732.640381,1092.437378,732.7771,1089.976563,733.015625C1086.244873,733.411255,1082.606567,734.43335,1079.214844,736.039063C1078.30481,736.461304,1077.412231,736.920227,1076.539063,737.414063C1075.087036,738.24646,1073.63269,739.065186,1072.167969,739.875C1071.011841,740.475464,1069.818115,741.000183,1068.59375,741.445313C1066.850342,741.968872,1065.051636,742.285767,1063.234375,742.390625C1061.892456,742.502991,1060.548706,742.585022,1059.203125,742.636719C1056.234741,742.750122,1053.319336,742.869751,1050.351563,743C1050.244629,743.014709,1050.137939,743.030334,1050.03125,743.046875C1049.772705,743.086975,1049.520752,743.164001,1049.289063,743.285156C1044.110718,745.763428,1038.902954,748.242432,1033.714844,750.699219C1029.93689,752.473083,1026.142822,754.205383,1022.328125,755.898438C1019.086731,757.078003,1016.121094,758.909058,1013.613281,761.277344C1012.6203,762.23468,1011.828003,763.380432,1011.285156,764.648438C1010.743652,766.12439,1010.89856,767.765747,1011.695313,769.121094C1012.676147,770.739868,1014.107117,772.038696,1015.816406,772.851563C1017.135986,773.553711,1018.620056,773.888855,1020.113281,773.820313C1020.990662,773.702698,1021.846375,773.458984,1022.65625,773.101563C1024.18103,772.445557,1025.642334,771.651184,1027.023438,770.730469C1028.173706,769.963013,1029.33728,769.214111,1030.511719,768.484375C1036.756836,764.874512,1043.215332,761.647095,1049.851563,758.820313C1051.016235,758.335571,1052.203735,757.907715,1053.410156,757.539063C1055.080078,757.143921,1056.800781,757.009216,1058.511719,757.140625C1060.164673,757.378174,1061.816895,757.604492,1063.472656,757.820313C1063.873291,757.860779,1064.273193,757.90863,1064.671875,757.964844C1065.948608,758.129639,1067.237305,758.182678,1068.523438,758.125C1070.097046,757.967529,1071.602051,757.401184,1072.890625,756.484375C1073.683838,755.907837,1074.479736,755.338318,1075.28125,754.773438C1079.262085,752.119019,1083.56665,749.985596,1088.089844,748.425781C1089.033081,748.12146,1089.991455,747.866272,1090.960938,747.660156C1092.562866,747.4328,1094.178955,747.320801,1095.796875,747.324219C1098.424561,747.279236,1101.052979,747.340515,1103.675781,747.507813C1105.712891,747.603577,1107.749878,747.670044,1109.789063,747.707031C1112.335083,747.71344,1114.87439,747.446106,1117.363281,746.910156C1119.59314,746.421387,1121.819702,745.909424,1124.039063,745.375C1125.885742,744.970276,1127.756958,744.686951,1129.640625,744.527344C1131.618164,744.428406,1133.593384,744.765442,1135.425781,745.515625C1137.006226,746.099792,1138.529175,746.828796,1139.976563,747.691406C1141.006836,748.339783,1141.929565,749.144775,1142.710938,750.078125C1143.397217,750.958069,1143.866699,751.987122,1144.082031,753.082031C1144.303833,754.621582,1144.101807,756.192383,1143.496094,757.625C1142.884644,759.105042,1142.056763,760.486267,1141.039063,761.722656C1139.61084,763.521729,1137.924683,765.100098,1136.035156,766.40625C1134.384277,767.440735,1132.582642,768.212219,1130.695313,768.695313C1129.018799,769.162354,1127.318481,769.539368,1125.601563,769.824219C1123.725952,770.177612,1121.856689,770.54834,1119.988281,770.9375C1118.892456,771.1828,1117.80249,771.452209,1116.71875,771.746094C1115.753052,772.014832,1114.826416,772.408325,1113.960938,772.914063L1113.539063,773.179688C1112.471069,773.937683,1111.656738,774.998535,1111.191406,776.222656C1110.911011,776.940918,1110.692749,777.681885,1110.539063,778.4375C1109.977051,781.210876,1109.581909,784.015259,1109.355469,786.835938C1108.850464,792.851868,1108.700439,798.892273,1108.90625,804.925781C1108.923706,807.113892,1109.026489,809.300476,1109.214844,811.480469L1109.257813,811.804688C1112.058594,814.275513,1114.973022,816.613953,1117.992188,818.8125C1119.624512,818.579651,1121.203247,818.065002,1122.660156,817.292969C1123.814819,816.734253,1124.842773,815.944153,1125.675781,814.96875C1127.039917,813.296509,1127.609619,811.112854,1127.230469,808.988281C1127.004761,807.636963,1126.558716,806.331787,1125.910156,805.125C1125.442383,804.207275,1124.904175,803.327087,1124.300781,802.492188C1123.798096,801.77594,1123.335083,801.032715,1122.914063,800.265625C1122.641968,799.722412,1122.484131,799.129517,1122.441406,798.523438C1122.245117,796.058594,1122.376343,793.578735,1122.832031,791.148438C1123.117065,789.854065,1123.55957,788.599487,1124.152344,787.414063C1124.523315,786.71167,1125.005371,786.073853,1125.578125,785.523438C1126.189209,785.194031,1126.825195,784.913086,1127.480469,784.683594C1128.600952,784.250488,1129.744751,783.880493,1130.90625,783.574219C1132.681274,783.136536,1134.445068,782.653137,1136.195313,782.125C1138.641235,781.347473,1140.978516,780.262756,1143.152344,778.898438C1145.383667,777.375305,1147.396973,775.555115,1149.136719,773.488281L1149.546875,773.035156C1151.555664,770.646362,1153.484985,768.191772,1155.332031,765.675781C1156.361816,764.255737,1157.286377,762.762329,1158.097656,761.207031C1159.331177,758.834045,1159.9104,756.175049,1159.777344,753.503906C1159.763916,751.220886,1159.131226,748.984497,1157.949219,747.03125C1156.829834,745.051758,1155.554565,743.164612,1154.136719,741.386719L1154.082031,741.308594C1153.680908,740.783447,1153.25,740.281921,1152.792969,739.804688C1150.747803,737.387329,1148.337402,735.30481,1145.648438,733.632813C1144.198364,732.728271,1142.624756,732.038086,1140.976563,731.585938C1140.231201,731.380859,1139.473022,731.225647,1138.707031,731.121094C1136.200684,730.744568,1133.671143,730.543701,1131.136719,730.519531C1130.345337,730.500244,1129.553345,730.493347,1128.761719,730.5z"/>
    <path transform="matrix(-1,0,0,-1,0,0)" style="stroke:#000000;stroke-width:0.05mm;fill:none" d="M971.761719,777.847656C969.452026,777.994019,967.300964,779.07428,965.804688,780.839844C965.17627,781.57843,964.637451,782.388794,964.199219,783.253906C963.357544,784.947083,962.687256,786.720093,962.199219,788.546875C961.900085,789.546143,961.626221,790.55304,961.378906,791.566406C960.445007,795.038879,959.330017,798.460266,958.039063,801.816406L957.265625,803.699219C960.562988,807.768005,964.24115,811.512756,968.25,814.882813C968.929443,813.745422,969.577759,812.590088,970.195313,811.417969C971.179077,809.627625,972.181885,807.847351,973.203125,806.078125C974.605286,803.497803,975.536316,800.688171,975.953125,797.78125C976.543274,795.216064,977.451416,792.734741,978.65625,790.394531C979.150757,789.391113,979.568787,788.351685,979.90625,787.285156C980.427673,785.518555,980.178101,783.613831,979.222656,782.039063C977.715149,779.356384,974.836975,777.738586,971.761719,777.847656z"/>
    <path transform="matrix(-1,0,0,-1,0,0)" style="stroke:#000000;stroke-width:0.05mm;fill:none" d="M1097.417969,769.550781C1095.386963,769.688416,1093.445313,770.434937,1091.84375,771.691406C1090.854004,772.515625,1090.091309,773.579102,1089.628906,774.78125C1089.325195,775.64978,1089.173828,776.564331,1089.183594,777.484375C1089.155884,779.13562,1089.25769,780.78656,1089.488281,782.421875C1089.664307,783.985596,1089.775024,785.555969,1089.820313,787.128906C1090.05542,792.391174,1090.153198,797.658386,1090.113281,802.925781C1093.988403,800.874817,1098.747803,801.590759,1101.847656,804.691406C1102.910156,805.800415,1103.993652,806.889465,1105.097656,807.957031C1104.686646,800.333862,1104.814331,792.691101,1105.480469,785.085938C1105.571167,783.990051,1105.728516,782.900635,1105.953125,781.824219C1106.253784,780.567505,1106.525757,779.304138,1106.769531,778.035156C1106.938843,777.171753,1106.964478,776.286621,1106.851563,775.414063C1106.683105,774.47644,1106.265381,773.60144,1105.644531,772.878906C1104.597778,771.546204,1103.173828,770.559631,1101.558594,770.046875C1100.22522,769.607239,1098.817383,769.437866,1097.417969,769.550781z"/>
    <path transform="matrix(-1,0,0,-1,0,0)" style="stroke:#000000;stroke-width:0.05mm;fill:none" d="M1094.476563,803.992188C1094.286499,804.03717,1094.104248,804.110718,1093.941406,804.21875L1093.71875,804.402344L1093.535156,804.621094C1093.373047,804.871765,1093.289063,805.162903,1093.277344,805.460938L1093.308594,805.761719L1093.394531,806.046875L1093.535156,806.300781C1093.765503,806.615173,1094.098022,806.836975,1094.476563,806.929688C1094.77417,806.993774,1095.085449,806.967957,1095.363281,806.84375C1095.533813,806.755188,1095.69458,806.649414,1095.839844,806.523438L1096.023438,806.300781L1096.160156,806.046875C1096.234863,805.860474,1096.269287,805.661499,1096.277344,805.460938C1096.275879,805.261292,1096.230957,805.065491,1096.160156,804.878906L1096.023438,804.621094L1095.839844,804.402344L1095.617188,804.21875C1095.45459,804.110291,1095.272461,804.035706,1095.082031,803.992188C1094.882446,803.950928,1094.677002,803.955139,1094.476563,803.992188z"/>
    <path transform="matrix(-1,0,0,-1,0,0)" style="stroke:#000000;stroke-width:0.05mm;fill:none" d="M1117.742188,710.964844C1116.083252,711.05249,1114.447266,711.392334,1112.890625,711.972656C1110.856812,712.786072,1108.718628,713.30957,1106.539063,713.527344C1105.48291,713.64856,1104.423828,713.746216,1103.363281,713.820313C1099.375366,714.060669,1095.383545,714.248169,1091.390625,714.382813L1085.175781,714.667969C1082.851074,714.773376,1080.533936,715.005676,1078.234375,715.363281C1076.860107,715.598206,1075.51416,715.976501,1074.21875,716.492188C1072.663818,717.17749,1071.212158,718.07666,1069.90625,719.164063C1068.769897,720.141602,1067.610718,721.092407,1066.429688,722.015625C1065.383911,722.821716,1064.203613,723.436401,1062.941406,723.824219C1062.22168,724.004272,1061.476196,724.061279,1060.738281,723.984375C1060.176514,723.945435,1059.619751,723.85437,1059.074219,723.714844C1057.960083,723.417847,1056.849487,723.116211,1055.738281,722.808594C1054.696045,722.547729,1053.637695,722.356262,1052.570313,722.234375C1050.990601,722.099426,1049.403564,722.387695,1047.972656,723.070313C1047.041504,723.483704,1046.143921,723.969177,1045.289063,724.523438C1043.483643,725.633484,1041.642944,726.684753,1039.769531,727.675781C1032.164795,731.670898,1024.397949,735.348389,1016.488281,738.699219C1009.662354,741.683899,1003.082336,745.201233,996.808594,749.21875C995.744751,749.905334,994.71875,750.648926,993.734375,751.445313C993.10553,751.970947,992.509216,752.534302,991.949219,753.132813C991.229553,753.924927,990.657776,754.839355,990.257813,755.832031C989.615356,757.64679,989.87854,759.659424,990.96875,761.246094C992.2323,763.0625,993.979187,764.488892,996.011719,765.363281C996.991089,765.762268,998.033203,765.984985,999.089844,766.027344C1000.556946,766.146912,1002.033752,766.032104,1003.464844,765.6875C1004.728821,765.332031,1005.879028,764.653809,1006.800781,763.71875C1007.510742,763.037292,1008.151855,762.287598,1008.714844,761.480469C1009.309326,760.681519,1009.885132,759.868958,1010.441406,759.042969C1011.697388,757.273621,1013.337036,755.811279,1015.238281,754.765625C1016.490173,754.028137,1017.79303,753.380859,1019.136719,752.828125C1023.038879,751.263489,1026.891357,749.576294,1030.6875,747.769531C1033.27002,746.551208,1035.833618,745.290283,1038.375,743.988281C1040.5979,742.874268,1042.848633,741.816711,1045.125,740.816406C1047.425659,739.848145,1049.859131,739.232178,1052.34375,738.992188C1054.024292,738.795959,1055.71167,738.664429,1057.402344,738.597656L1065.867188,738.09375L1066.179688,738.050781C1066.489014,737.987488,1066.789551,737.886719,1067.074219,737.75L1075.632813,733.285156L1083.601563,729.140625C1090.269775,728.950562,1096.912354,728.724487,1103.578125,728.460938C1105.584473,728.361877,1107.589111,728.247314,1109.59375,728.117188C1109.920776,728.068176,1110.251343,728.048157,1110.582031,728.050781C1111.353271,727.999512,1112.120483,727.898987,1112.878906,727.75C1113.202026,727.643555,1113.520264,727.522827,1113.832031,727.386719C1115.253418,727.081421,1116.694458,726.876282,1118.144531,726.773438C1123.18335,726.32373,1128.245605,726.19458,1133.300781,726.386719C1136.323242,726.535645,1139.32959,726.918274,1142.292969,727.53125C1143.559204,727.817627,1144.799072,728.2099,1146,728.703125C1147.631226,729.398315,1149.147217,730.337402,1150.496094,731.488281C1151.80542,732.5802,1153.014526,733.786926,1154.109375,735.09375C1156.284912,737.582275,1158.300415,740.206116,1160.144531,742.949219C1161.185303,744.526978,1162.11438,746.17572,1162.925781,747.882813C1163.702759,749.578003,1164.206055,751.38562,1164.417969,753.238281C1164.564575,754.974365,1164.37561,756.722656,1163.859375,758.386719C1163.376221,759.898071,1162.737549,761.355164,1161.953125,762.734375C1161.095703,764.280701,1160.136475,765.76825,1159.082031,767.1875C1156.888916,770.207458,1154.552979,773.12085,1152.082031,775.917969C1150.295898,777.969543,1148.405396,779.927917,1146.417969,781.785156C1144.712036,783.311218,1142.729736,784.496338,1140.578125,785.277344C1138.529419,785.940979,1136.451782,786.512024,1134.351563,786.988281C1132.465942,787.41687,1130.70874,788.286133,1129.222656,789.523438C1127.392944,791.153564,1126.349731,793.490845,1126.355469,795.941406C1126.263672,799.044861,1127.571899,802.025452,1129.921875,804.054688C1130.81604,804.794006,1131.88562,805.289551,1133.027344,805.496094C1134.048706,805.645874,1135.091064,805.47876,1136.015625,805.019531C1137.775269,804.23938,1139.485352,803.352234,1141.136719,802.363281C1145.244873,799.979919,1149.226685,797.385254,1153.066406,794.589844C1154.65979,793.39386,1156.175659,792.098206,1157.605469,790.710938C1159.2771,789.078979,1160.840088,787.339478,1162.285156,785.503906C1163.245728,784.329712,1164.183472,783.136414,1165.097656,781.925781C1168.2677,777.901855,1171.522461,773.94519,1174.859375,770.058594L1176.085938,768.585938C1176.649536,767.875061,1177.165283,767.127441,1177.628906,766.347656C1178.308472,765.107788,1178.69519,763.72876,1178.761719,762.316406C1178.761353,759.375671,1179.042725,756.441772,1179.601563,753.554688C1179.854248,751.986023,1179.952271,750.396423,1179.894531,748.808594C1179.869263,748.381836,1179.819946,747.956909,1179.75,747.535156C1179.536743,746.686462,1179.198486,745.874084,1178.746094,745.125C1177.78772,743.43634,1176.746094,741.796326,1175.625,740.210938C1170.839844,733.374878,1165.7323,726.769531,1160.320313,720.417969C1159.292969,719.242859,1158.21106,718.116638,1157.078125,717.042969C1155.946655,716.015137,1154.661499,715.170715,1153.269531,714.539063C1151.979248,713.992981,1150.602661,713.678589,1149.203125,713.613281C1148.60376,713.572632,1148.003174,713.550049,1147.402344,713.546875C1146.372803,713.44696,1145.357544,713.233398,1144.375,712.910156C1143.605713,712.687439,1142.81897,712.53009,1142.023438,712.4375C1138.815186,712.047607,1135.58728,711.841492,1132.355469,711.820313C1129.258179,711.750488,1126.16394,711.602051,1123.074219,711.375C1122.295898,711.308105,1121.519531,711.219482,1120.746094,711.109375C1119.750366,710.980225,1118.745728,710.930786,1117.742188,710.964844z"/>
    <path transform="matrix(-1,0,0,-1,0,0)" style="stroke:#000000;stroke-width:0.05mm;fill:none" d="M989.101563,787.3125C987.369995,787.280457,985.662598,787.721619,984.164063,788.589844C982.820313,789.434631,981.799988,790.706055,981.261719,792.199219C980.912048,793.097168,980.697998,794.04248,980.632813,795.003906C980.472595,796.171814,980.515625,797.358887,980.761719,798.511719L980.84375,798.824219C981.365479,800.559753,982.617371,801.98175,984.269531,802.726563C984.797363,802.975464,985.344666,803.181091,985.90625,803.339844C986.779846,803.605957,987.673462,803.801147,988.578125,803.925781C991.426758,804.277588,994.395142,804.649658,997.242188,805.011719C998.414856,805.195862,999.594055,805.335083,1000.777344,805.429688C1001.734497,805.508301,1002.698242,805.389343,1003.605469,805.074219C1004.628418,804.662231,1005.544678,804.024597,1006.289063,803.210938C1006.936584,802.552612,1007.479553,801.799438,1007.898438,800.976563C1008.46106,799.747192,1008.597534,798.365295,1008.28125,797.050781C1008.244385,796.838623,1008.195923,796.62854,1008.113281,796.429688L1008.113281,796.394531C1007.703064,795.166748,1007.122131,794.002808,1006.386719,792.9375C1005.451111,791.696106,1004.204834,790.72345,1002.773438,790.117188C1001.91626,789.730896,1001.027527,789.418762,1000.117188,789.183594C997.59729,788.477539,995.036621,787.926941,992.449219,787.535156C991.342041,787.362732,990.221802,787.287537,989.101563,787.3125z"/>
    <path transform="matrix(-1,0,0,-1,0,0)" style="stroke:#000000;stroke-width:0.05mm;fill:none" d="M939.878906,751.710938C939.324097,751.747681,938.775085,751.845154,938.242188,752.003906C938.40979,760.438293,939.858643,768.797974,942.539063,776.796875C943.94812,774.272034,945.375366,771.734314,946.800781,769.21875C947.695801,767.612854,948.494385,765.955078,949.191406,764.253906C949.63031,763.077454,949.911255,761.847961,950.027344,760.597656C950.125305,758.626099,949.378235,756.706421,947.976563,755.316406C946.46521,753.835449,944.636902,752.718201,942.628906,752.050781C941.738403,751.78064,940.80835,751.664368,939.878906,751.710938z"/>
    <path transform="matrix(-1,0,0,-1,0,0)" style="stroke:#000000;stroke-width:0.05mm;fill:none" d="M1249.390625,755.523438C1247.220459,756.68927,1245.093872,757.934875,1243.015625,759.257813C1242.370117,759.686401,1241.787842,760.203247,1241.285156,760.792969C1240.828979,761.418335,1240.535767,762.147278,1240.429688,762.914063C1240.254272,763.949097,1240.312622,765.010315,1240.601563,766.019531C1241.477417,769.323242,1243.844116,772.029114,1247.003906,773.332031C1247.35437,773.458923,1247.711304,773.567444,1248.074219,773.652344C1249.854858,767.42041,1250.915283,761.004761,1251.234375,754.53125L1249.390625,755.523438z"/>
    <path transform="matrix(-1,0,0,-1,0,0)" style="stroke:#000000;stroke-width:0.05mm;fill:none" d="M1143.703125,611.375C1142.564331,611.471802,1141.450806,611.765137,1140.414063,612.246094C1139.754395,612.512207,1139.135864,612.871033,1138.578125,613.3125C1137.328979,614.336609,1136.547241,615.820984,1136.402344,617.429688C1136.276978,618.646973,1136.303467,619.875061,1136.480469,621.085938C1136.785645,623.602295,1137.236816,626.098633,1137.832031,628.5625C1138.154053,629.82312,1138.634033,631.037842,1139.257813,632.179688C1140.064941,633.559509,1141.168701,634.742249,1142.488281,635.644531C1143.225708,636.166199,1143.998657,636.635437,1144.800781,637.050781C1145.31604,637.332153,1145.837158,637.602844,1146.363281,637.863281C1147.865601,638.6875,1149.298706,639.631836,1150.648438,640.6875C1154.434692,643.517883,1157.859985,646.801514,1160.847656,650.464844C1161.822144,651.731995,1162.76001,653.026672,1163.660156,654.347656C1164.658203,655.775146,1165.80957,657.088867,1167.09375,658.265625C1167.612305,658.717651,1168.222656,659.052673,1168.882813,659.246094C1169.434204,659.375488,1169.996704,659.45105,1170.5625,659.476563C1173.080078,659.55719,1175.60022,659.486511,1178.109375,659.265625C1179.683228,659.14801,1181.258667,659.063477,1182.835938,659.011719C1183.169189,659.014954,1183.501953,659.039795,1183.832031,659.085938C1184.335327,659.463074,1184.765625,659.927917,1185.105469,660.457031C1185.18811,660.59552,1185.251709,660.743713,1185.308594,660.894531C1185.377075,661.115417,1185.421143,661.34314,1185.433594,661.574219C1185.429688,661.798767,1185.392822,662.021912,1185.320313,662.234375C1184.990234,662.95636,1184.487915,663.58551,1183.859375,664.070313L1183.777344,664.101563C1183.291626,664.163452,1182.801392,664.183044,1182.3125,664.15625C1180.063721,664.037659,1177.816895,663.90094,1175.570313,663.746094C1173.986572,663.621887,1172.394409,663.6521,1170.816406,663.835938C1170.052979,663.94342,1169.306396,664.147278,1168.59375,664.441406C1167.006348,665.12793,1165.716064,666.358093,1164.953125,667.910156C1164.437012,668.879333,1164.017578,669.897217,1163.703125,670.949219L1163.425781,671.78125L1163.425781,671.796875C1161.49353,677.60498,1160.40332,683.660034,1160.1875,689.777344C1160.140015,691.02533,1160.121704,692.274597,1160.132813,693.523438C1160.12207,695.729614,1160.046509,697.934998,1159.90625,700.136719C1159.811401,701.408813,1159.677246,702.677612,1159.503906,703.941406C1159.389404,704.406006,1159.294189,704.875122,1159.21875,705.347656C1158.768677,707.185059,1158.732422,709.099304,1159.109375,710.953125C1159.387939,712.164856,1159.887817,713.31488,1160.585938,714.34375C1161.060303,715.145752,1161.61377,715.898254,1162.238281,716.589844L1162.53125,716.957031C1164.502686,719.147339,1166.401855,721.40094,1168.226563,723.714844C1171.515991,727.803467,1174.711914,731.965698,1177.8125,736.199219C1178.488892,737.145081,1179.1521,738.101318,1179.800781,739.066406C1180.60791,740.457581,1181.59436,741.736572,1182.734375,742.871094C1184.24646,744.272339,1186.160645,745.164001,1188.207031,745.414063C1189.428467,745.596436,1190.66394,745.668823,1191.898438,745.632813C1193.985962,745.701111,1196.060669,745.985535,1198.089844,746.480469C1202.21814,747.458252,1206.316406,748.559143,1210.378906,749.78125C1215.943726,751.364136,1221.466919,753.085815,1226.945313,754.945313C1228.087891,755.348755,1229.218628,755.785156,1230.335938,756.253906C1231.746826,756.859192,1233.235107,757.264771,1234.757813,757.460938C1236.392578,757.608704,1238.036499,757.309082,1239.515625,756.597656C1240.691284,756.072449,1241.815552,755.438904,1242.875,754.707031C1245.658936,752.99585,1248.477905,751.34021,1251.328125,749.742188C1251.290161,744.444275,1250.752563,739.161804,1249.722656,733.964844C1247.419434,735.538879,1245.034546,736.990112,1242.578125,738.3125C1241.234253,739.011719,1239.84729,739.624878,1238.425781,740.148438C1237.111816,740.606445,1235.745972,740.899292,1234.359375,741.015625C1233.869507,741.077637,1233.372803,741.070435,1232.886719,740.984375C1232.352905,740.912231,1231.822388,740.817627,1231.296875,740.699219C1228.307861,740.043945,1225.348389,739.262024,1222.425781,738.355469C1215.540527,736.256958,1208.591064,734.37854,1201.585938,732.722656C1199.397217,732.195496,1197.241089,731.540588,1195.128906,730.761719C1192.745239,729.933777,1190.589722,728.556396,1188.835938,726.742188C1188.303833,726.213684,1187.787964,725.669373,1187.289063,725.109375C1183.484009,720.741394,1180.024292,716.084167,1176.941406,711.179688C1176.125488,709.825317,1175.439453,708.396912,1174.890625,706.914063C1174.557007,705.844482,1174.37561,704.733337,1174.347656,703.613281L1174.320313,702.949219C1174.214111,698.5224,1174.281738,694.093384,1174.523438,689.671875C1174.597534,688.475769,1174.721558,687.283447,1174.894531,686.097656C1175.046387,685.108765,1175.275024,684.133179,1175.578125,683.179688C1175.857666,682.358704,1176.265015,681.586487,1176.792969,680.898438C1177.294556,680.264099,1177.909302,679.727844,1178.605469,679.316406C1179.235474,678.90802,1179.903564,678.561584,1180.601563,678.285156C1182.254028,677.593384,1183.948853,677.00769,1185.675781,676.53125C1187.793701,675.903442,1189.869385,675.141113,1191.890625,674.25C1193.014404,673.729126,1194.08667,673.103882,1195.09375,672.382813C1196.205933,671.537231,1197.131348,670.471558,1197.816406,669.253906C1198.464233,668.020691,1198.876343,666.677307,1199.03125,665.292969C1199.121338,664.637878,1199.169189,663.977661,1199.175781,663.316406L1181.128906,645.269531C1178.98584,644.705505,1176.872559,644.033997,1174.796875,643.257813L1174.449219,643.101563C1173.773315,642.625,1173.11145,642.128906,1172.464844,641.613281C1167.773193,637.796692,1163.220947,633.8125,1158.816406,629.667969C1158.027344,628.912598,1157.249023,628.147095,1156.480469,627.371094C1155.265869,625.968628,1154.297852,624.370483,1153.617188,622.644531C1152.886353,620.428589,1151.985229,618.2724,1150.921875,616.195313C1150.383789,615.137695,1149.682495,614.171448,1148.847656,613.328125C1147.919434,612.36676,1146.717896,611.712769,1145.40625,611.457031C1144.844604,611.355347,1144.272095,611.329041,1143.703125,611.375z"/>
    <path transform="matrix(-1,0,0,-1,0,0)" style="stroke:#000000;stroke-width:0.05mm;fill:none" d="M1040.339844,698.914063C1039.25293,699.030334,1038.224976,699.46875,1037.394531,700.179688C1036.522949,700.902222,1035.814087,701.801575,1035.320313,702.820313C1034.807617,703.866089,1034.314331,704.920654,1033.839844,705.984375C1033.384888,706.955383,1032.912231,707.917419,1032.421875,708.871094C1031.884155,709.886292,1031.263184,710.855225,1030.5625,711.765625C1029.632202,712.866272,1028.516113,713.795288,1027.265625,714.511719C1026.266724,715.101196,1025.233398,715.630249,1024.171875,716.097656C1022.855591,716.706238,1021.517517,717.266724,1020.160156,717.777344C1016.933472,719.033203,1013.692627,720.244873,1010.433594,721.414063C1008.161987,722.236511,1005.903625,723.095947,1003.660156,723.992188C1000.975708,725.080505,998.338013,726.280823,995.753906,727.589844C992.247681,729.331665,988.92395,731.418762,985.832031,733.820313C985.502136,734.113708,985.160156,734.393188,984.808594,734.660156C984.46759,734.979858,984.108032,735.279175,983.730469,735.554688C982.287048,736.765991,980.76709,737.883118,979.179688,738.898438C977.928162,739.65863,976.603821,740.291809,975.226563,740.789063C972.070801,741.802612,968.77124,742.296387,965.457031,742.25C961.711853,742.12439,958.062256,741.035034,954.859375,739.089844C954.042542,738.602661,953.255615,738.067017,952.503906,737.484375C951.526611,736.705627,950.56134,735.911011,949.609375,735.101563C948.518066,734.163757,947.333923,733.339905,946.074219,732.644531C944.525085,731.832581,942.7854,731.454712,941.039063,731.550781L940.320313,731.628906C939.086487,737.00708,938.395508,742.495544,938.257813,748.011719C940.254211,747.812134,942.263489,747.776611,944.265625,747.90625L944.519531,747.949219C944.882813,748.143433,945.225525,748.374146,945.542969,748.636719C946.861816,749.628601,948.103821,750.718872,949.257813,751.898438L953.480469,756.203125C953.928406,756.668579,954.517517,756.97345,955.15625,757.070313C955.388306,757.097412,955.621826,757.107422,955.855469,757.109375C958.162048,756.866943,960.441589,756.636963,962.75,756.414063L963.152344,756.371094C969.448975,755.871582,975.751099,755.423584,982.054688,755.027344L983.824219,754.875C984.610779,754.789673,985.34082,754.428284,985.890625,753.859375C987.654663,752.157532,989.390503,750.426819,991.097656,748.667969C992.666809,747.136414,994.376099,745.75531,996.203125,744.542969C998.479126,743.008484,1000.851074,741.621338,1003.304688,740.390625C1006.130432,738.920715,1009.010315,737.556396,1011.9375,736.300781C1014.455078,735.190369,1016.988892,734.118774,1019.539063,733.085938C1027.407593,729.753418,1035.050293,725.910645,1042.417969,721.582031C1043.424927,720.972778,1044.401123,720.314087,1045.34375,719.609375C1046.00293,719.099182,1046.589722,718.501831,1047.085938,717.832031C1047.865601,716.732117,1048.338135,715.444458,1048.457031,714.101563C1048.627563,712.248657,1048.677246,710.386719,1048.605469,708.527344C1048.603394,707.501953,1048.512329,706.478821,1048.335938,705.46875C1048.070435,704.123291,1047.434692,702.87854,1046.5,701.875C1045.796753,701.077026,1044.983154,700.383667,1044.085938,699.8125C1042.966675,699.117004,1041.652832,698.80188,1040.339844,698.914063z"/>
    <path transform="matrix(-1,0,0,-1,0,0)" style="stroke:#000000;stroke-width:0.05mm;fill:none" d="M1023.753906,629.949219C1024.949829,630.288513,1026.111084,630.740112,1027.222656,631.296875C1027.756958,631.585571,1028.25354,631.939392,1028.703125,632.347656C1029.165771,632.804443,1029.475708,633.394409,1029.585938,634.035156C1029.640015,634.228333,1029.664551,634.429321,1029.648438,634.628906C1029.679688,635.70166,1029.575073,636.774109,1029.335938,637.820313C1028.723877,640.588196,1027.865356,643.295776,1026.769531,645.910156C1026.393555,646.770752,1025.920776,647.585938,1025.355469,648.335938C1024.673218,649.166382,1023.776611,649.794678,1022.761719,650.148438C1022.10437,650.400024,1021.423889,650.586304,1020.730469,650.707031C1018.68866,651.05957,1016.625366,651.273987,1014.554688,651.347656C1012.866272,651.470093,1011.170898,651.458618,1009.484375,651.3125C1008.612061,651.220215,1007.762451,650.975586,1006.976563,650.585938C1006.153137,650.156799,1005.40686,649.593262,1004.769531,648.917969L994.371094,659.316406C994.568359,660.282898,994.662354,661.267578,994.652344,662.253906C994.569336,666.305542,994.424866,670.35498,994.21875,674.402344C994.163452,676.065918,994.153076,677.730347,994.1875,679.394531C994.240417,680.603943,994.382935,681.807678,994.613281,682.996094C994.708801,683.470276,994.822266,683.940613,994.953125,684.40625C995.697693,687.164856,996.594971,689.880005,997.640625,692.539063C998.021667,693.435974,998.486633,694.294739,999.027344,695.105469C1000.170349,696.704346,1001.911743,697.775269,1003.855469,698.066406C1004.396912,698.166809,1004.945618,698.222961,1005.496094,698.238281C1007.190796,698.257446,1008.885132,698.176819,1010.570313,697.996094C1011.908081,697.873718,1013.250488,697.808594,1014.59375,697.800781C1014.724792,697.81427,1014.854736,697.835938,1014.984375,697.859375L1015.410156,698.21875C1015.813904,698.605774,1016.147949,699.058716,1016.40625,699.554688C1016.543884,699.855835,1016.607056,700.184509,1016.609375,700.515625C1016.604004,701.173767,1016.344543,701.804443,1015.882813,702.273438C1015.670898,702.499695,1015.437073,702.704346,1015.183594,702.882813L1015.074219,702.910156C1014.345154,702.929016,1013.615601,702.899475,1012.890625,702.820313C1010.565918,702.549744,1008.235291,702.320557,1005.902344,702.132813C1004.648987,702.040405,1003.389709,702.064392,1002.140625,702.203125C1000.653503,702.409302,999.256714,703.038147,998.117188,704.015625C997.29834,704.710266,996.542969,705.476624,995.859375,706.304688C995.015076,707.245544,994.120422,708.139954,993.179688,708.984375C991.95636,710.049683,990.439026,710.719421,988.828125,710.910156C987.955872,711.048889,987.077209,711.142883,986.195313,711.191406C984.126526,711.367004,982.076233,711.717163,980.066406,712.238281C979.039917,712.55188,978.105042,713.110535,977.339844,713.863281C975.445251,715.695801,973.703552,717.680115,972.132813,719.796875C971.014832,721.310242,969.740723,722.701965,968.332031,723.949219C967.978149,724.279602,967.597595,724.580322,967.191406,724.84375C966.703064,725.167969,966.174011,725.42627,965.617188,725.609375C965.381592,725.674194,965.131836,725.666504,964.898438,725.59375C964.783142,725.555176,964.671265,725.507446,964.5625,725.453125C963.894958,725.029175,963.390503,724.390869,963.140625,723.640625L963.09375,723.445313C963.021973,723.049683,963.056885,722.64325,963.183594,722.261719C963.344788,721.791138,963.58667,721.352478,963.898438,720.964844C964.362244,720.31543,964.91687,719.735901,965.546875,719.246094C966.129395,718.759644,966.73822,718.305542,967.371094,717.886719C968.115356,717.36676,968.824951,716.79895,969.496094,716.1875L969.546875,716.15625C971.024353,714.881165,972.338928,713.428833,973.460938,711.832031C973.964294,711.094299,974.397949,710.311279,974.753906,709.492188C975.16333,708.452515,975.326843,707.331665,975.226563,706.21875C975.118103,704.653381,974.853943,703.102722,974.4375,701.589844L974.234375,700.804688C973.727661,698.417053,973.353577,696.003235,973.113281,693.574219C972.808777,689.642395,972.389343,685.719788,971.855469,681.8125L962.984375,690.683594C961.622253,692.03479,960.310303,693.435486,959.050781,694.882813C959.200073,696.501953,959.24823,698.128784,959.195313,699.753906C959.078125,701.981995,958.516724,704.164429,957.542969,706.171875C956.900757,707.580994,956.173096,708.949585,955.363281,710.269531C953.504333,713.208618,951.778442,716.229797,950.191406,719.324219C949.452393,720.751221,948.856689,722.248108,948.414063,723.792969C948.151001,724.739197,948.049377,725.722839,948.109375,726.703125C948.192261,727.778137,948.546875,728.81488,949.140625,729.714844C949.828308,730.807312,950.696533,731.77478,951.707031,732.578125C953.21936,733.7948,954.876282,734.819885,956.640625,735.628906C959.659485,737.058411,962.897339,737.970154,966.21875,738.324219C966.624634,738.31604,967.03064,738.337036,967.433594,738.386719C968.821228,738.444824,970.2099,738.300232,971.554688,737.953125C973.924683,737.270813,976.142456,736.142212,978.089844,734.628906C979.213806,733.767151,980.304382,732.862915,981.359375,731.917969C982.208923,731.141968,983.087036,730.397827,983.992188,729.6875C986.117554,728.113403,988.361328,726.705811,990.703125,725.476563C994.682983,723.327332,998.794006,721.430542,1003.011719,719.796875C1006.533264,718.405823,1010.109131,717.15625,1013.730469,716.050781C1014.554871,715.767334,1015.379517,715.488953,1016.207031,715.214844C1018.5047,714.433716,1020.756958,713.52478,1022.953125,712.492188C1023.899902,712.001465,1024.783936,711.398132,1025.585938,710.695313C1028.123535,708.606384,1030.16272,705.977539,1031.554688,703C1031.885376,702.230591,1032.143311,701.431824,1032.320313,700.613281C1032.628784,698.887573,1032.312134,697.108521,1031.429688,695.59375C1030.782227,694.432861,1029.947021,693.387024,1028.957031,692.5C1027.735229,691.359192,1026.381714,690.368225,1024.925781,689.546875C1022.838867,688.328491,1020.63855,687.315552,1018.355469,686.523438C1016.56366,685.865356,1014.801514,685.128845,1013.074219,684.316406C1012.212158,683.884583,1011.389587,683.377869,1010.617188,682.800781C1009.804077,682.14801,1009.196838,681.274353,1008.867188,680.285156C1008.641296,679.652527,1008.482544,678.997986,1008.394531,678.332031C1008.177307,676.949158,1008.040527,675.554932,1007.984375,674.15625C1007.84729,672.490784,1007.854919,670.816467,1008.007813,669.152344C1008.074097,668.432495,1008.269348,667.730042,1008.589844,667.082031L1008.710938,666.890625C1009.045105,666.417908,1009.495789,666.039551,1010.019531,665.792969C1011.003113,665.329285,1012.039368,664.987671,1013.105469,664.773438C1016.386169,664.10321,1019.713806,663.687744,1023.058594,663.53125C1024.044312,663.502747,1025.03064,663.555176,1026.007813,663.6875C1027.615723,663.948853,1029.14978,664.549622,1030.507813,665.449219C1031.13855,665.837463,1031.743286,666.266235,1032.320313,666.730469C1033.720093,667.81543,1035.081787,668.948975,1036.402344,670.128906C1037.936768,671.430969,1039.529541,672.66272,1041.175781,673.820313L1041.3125,673.890625C1043.33374,675.327393,1045.548828,676.46936,1047.890625,677.285156C1048.190674,677.362488,1048.48645,677.45575,1048.777344,677.5625C1051.706665,678.3797,1054.77832,678.554565,1057.78125,678.074219C1059.839966,677.792786,1061.871704,677.340942,1063.855469,676.722656C1067.419189,675.634033,1070.936646,674.398499,1074.398438,673.019531C1075.302856,672.637024,1076.197754,672.23175,1077.082031,671.804688C1078.169067,671.266724,1079.176392,670.581055,1080.074219,669.765625C1081.446655,668.452881,1082.236694,666.644958,1082.269531,664.746094C1082.282837,664.397034,1082.276245,664.047546,1082.25,663.699219C1082.089478,662.18689,1081.775024,660.694885,1081.3125,659.246094C1080.736938,657.27063,1080.098389,655.313843,1079.398438,653.378906C1078.746094,651.61322,1077.928711,649.912964,1076.957031,648.300781C1075.655518,646.188782,1073.796875,644.476929,1071.585938,643.351563C1071.140991,643.12915,1070.683472,642.932678,1070.214844,642.765625C1068.598755,642.167969,1066.917969,641.762756,1065.207031,641.558594L1065.167969,641.546875C1064.660645,641.493713,1064.153931,641.431946,1063.648438,641.363281C1063.223999,641.333984,1062.608276,641.29126,1062.183594,641.261719L1062.152344,641.253906C1058.691406,641.023743,1055.222046,640.939026,1051.753906,641C1050.92041,641.045715,1050.096069,641.195862,1049.300781,641.449219C1048.260376,641.818909,1047.332764,642.450073,1046.601563,643.277344C1045.23877,644.593384,1044.30127,646.286987,1043.910156,648.140625C1043.340332,651.222412,1044.60144,654.357422,1047.148438,656.183594C1048.805908,657.414185,1050.796631,658.114563,1052.859375,658.195313C1054.153442,658.267029,1055.451416,658.185425,1056.726563,657.953125C1058.218872,657.734558,1059.685791,657.368469,1061.105469,656.859375C1062.390381,656.432129,1063.729004,656.186951,1065.082031,656.132813C1065.70874,656.133362,1066.332275,656.216553,1066.9375,656.378906C1067.09021,656.441956,1067.231812,656.526855,1067.367188,656.621094L1067.492188,656.726563C1068.019531,657.306702,1068.240356,658.100952,1068.09375,658.871094C1068.055908,659.051758,1068.008423,659.230347,1067.941406,659.402344C1067.659302,660.22052,1067.092529,660.910828,1066.347656,661.351563L1066.175781,661.417969L1066,661.46875C1065.118286,661.701233,1064.219604,661.864014,1063.3125,661.957031C1060.762329,662.277222,1058.200562,662.493469,1055.632813,662.605469C1054.480103,662.647888,1053.325806,662.603699,1052.179688,662.472656C1050.843506,662.283386,1049.545044,661.887878,1048.328125,661.304688C1047.182129,660.764771,1046.065918,660.163635,1044.984375,659.503906C1043.61145,658.694214,1042.360718,657.693054,1041.269531,656.53125C1040.120972,655.224487,1039.485718,653.544434,1039.484375,651.804688C1039.466675,650.60553,1039.606079,649.409241,1039.898438,648.246094C1040.529907,645.633911,1041.440063,643.097473,1042.613281,640.679688C1042.938843,640.066406,1043.331543,639.491089,1043.789063,638.96875C1043.994019,638.757141,1044.222778,638.570007,1044.472656,638.414063C1045.197388,637.982117,1045.998901,637.695496,1046.832031,637.5625C1047.735718,637.407104,1048.647217,637.301697,1049.5625,637.246094C1052.139038,637.124817,1054.719238,637.110413,1057.296875,637.203125C1060.877319,637.257385,1064.454712,637.432068,1068.023438,637.726563C1069.445557,637.871948,1070.852051,638.142334,1072.226563,638.535156C1073.529053,638.968872,1074.712036,639.702148,1075.675781,640.679688C1076.686279,641.640259,1077.59082,642.706543,1078.375,643.859375C1080.489136,646.925171,1082.342041,650.163086,1083.914063,653.539063C1084.451294,654.744568,1084.848145,656.007935,1085.09375,657.304688C1085.290039,658.590271,1085.43689,659.882935,1085.535156,661.179688C1085.650757,662.605896,1085.874512,664.021362,1086.203125,665.414063C1086.401245,666.163269,1086.68335,666.887695,1087.042969,667.574219C1087.980957,669.273071,1089.65332,670.440796,1091.570313,670.742188C1093.019165,670.995422,1094.502075,670.982666,1095.945313,670.699219C1097.979736,670.208252,1099.659424,668.776978,1100.460938,666.84375C1100.864258,665.953491,1101.14978,665.014526,1101.3125,664.050781C1101.550537,662.584351,1101.681396,661.1026,1101.703125,659.617188C1101.765259,657.739075,1101.687988,655.858948,1101.472656,653.992188C1101.311768,652.818298,1100.998413,651.670349,1100.539063,650.578125C1099.841919,649.020386,1098.783325,647.651123,1097.453125,646.582031C1096.803833,646.021301,1096.11853,645.503601,1095.402344,645.03125C1094.54187,644.40509,1093.773193,643.661316,1093.121094,642.820313C1092.481079,641.941772,1091.968506,640.977295,1091.59375,639.957031C1091.029175,638.415344,1090.578857,636.83429,1090.246094,635.226563C1089.979248,634.089539,1089.662231,632.964783,1089.296875,631.855469C1088.950073,630.857178,1088.459595,629.914612,1087.839844,629.058594C1087.501831,628.641174,1087.125854,628.25592,1086.714844,627.910156C1085.963135,627.38208,1085.126587,626.986816,1084.242188,626.738281C1081.646851,625.906006,1079.01062,625.20697,1076.34375,624.644531C1073.803589,624.066956,1071.244629,623.57312,1068.671875,623.164063L1068.648438,623.15625C1065.866699,622.782166,1063.05957,622.631836,1060.253906,622.707031L1058.585938,622.75L1047.320313,623.117188C1045.194458,623.212402,1043.064453,623.162964,1040.945313,622.96875C1039.422119,622.787842,1037.964722,622.241699,1036.699219,621.375C1035.830688,620.80011,1034.997437,620.173645,1034.203125,619.5L1023.753906,629.949219z"/>
    <path transform="matrix(-1,0,0,-1,0,0)" style="stroke:#000000;stroke-width:0.05mm;fill:none" d="M1202.890625,667.589844C1202.777344,668.813599,1202.462036,670.010254,1201.953125,671.128906C1201.374878,672.290955,1200.567993,673.32373,1199.582031,674.167969C1197.428711,675.684814,1195.13916,676.998108,1192.742188,678.089844C1191.998413,678.452087,1191.229492,678.76001,1190.441406,679.011719C1190.001953,679.037964,1189.567871,679.124268,1189.152344,679.269531C1186.967896,679.979736,1184.875244,680.946228,1182.917969,682.148438C1180.812622,683.556702,1179.367432,685.758667,1178.910156,688.25C1178.651489,689.614136,1178.513428,690.998352,1178.496094,692.386719C1178.434082,695.624084,1178.535889,698.862732,1178.800781,702.089844C1178.992432,704.215393,1179.454956,706.307617,1180.175781,708.316406C1180.911987,710.154907,1181.87439,711.894409,1183.039063,713.496094C1185.039063,716.289001,1187.220947,718.94696,1189.570313,721.453125C1191.822266,723.800354,1194.52832,725.664612,1197.523438,726.933594C1198.818237,727.500366,1200.144775,727.991821,1201.496094,728.40625C1203.740479,729.103149,1206.00293,729.740112,1208.28125,730.316406C1213.577637,731.658203,1218.849487,733.087891,1224.097656,734.605469C1224.520874,734.705933,1224.939331,734.825928,1225.351563,734.964844C1227.520996,735.579712,1229.729004,736.049561,1231.960938,736.371094C1232.23938,736.385376,1232.516846,736.41394,1232.792969,736.453125C1234.052246,736.504211,1235.311768,736.360046,1236.527344,736.027344C1237.958496,735.656738,1239.349121,735.144531,1240.679688,734.5C1242.602783,733.598938,1244.463867,732.570801,1246.25,731.421875C1246.595337,731.163025,1246.954834,730.923767,1247.328125,730.707031C1247.822266,730.396545,1248.30249,730.064697,1248.769531,729.714844C1247.55481,724.845703,1245.897095,720.097961,1243.816406,715.53125C1242.008423,716.885193,1240.099121,718.098328,1238.105469,719.160156C1235.750366,720.362061,1233.115601,720.909546,1230.476563,720.746094C1229.177612,720.6922,1227.884644,720.538025,1226.609375,720.285156C1224.348022,719.837891,1222.106445,719.295654,1219.890625,718.660156C1215.821777,717.513489,1211.779663,716.270752,1207.769531,714.933594C1206.136353,714.372498,1204.533813,713.725952,1202.96875,712.996094C1201.272095,712.153931,1199.704834,711.073242,1198.3125,709.789063C1197.181885,708.641846,1196.213989,707.344788,1195.4375,705.933594C1194.397339,704.113953,1193.618042,702.157288,1193.121094,700.121094C1192.729126,698.33667,1192.77771,696.483276,1193.265625,694.722656C1193.676025,693.54364,1194.467163,692.535156,1195.511719,691.851563C1196.788452,691.017456,1198.158447,690.335693,1199.59375,689.820313C1200.991699,689.29248,1202.402222,688.798889,1203.824219,688.339844C1205.506714,687.741821,1207.125488,686.977844,1208.65625,686.058594C1210.71582,684.766174,1212.49646,683.075317,1213.894531,681.085938C1214.335571,680.492981,1214.737061,679.871582,1215.097656,679.226563L1202.9375,667.078125L1202.890625,667.589844z"/>
    <path transform="matrix(-1,0,0,-1,0,0)" style="stroke:#000000;stroke-width:0.05mm;fill:none" d="M953.644531,701.734375C948.26825,709.325684,944.195557,717.760376,941.59375,726.691406C942.607483,726.071045,943.462402,725.223206,944.097656,724.21875C944.778442,723.06665,945.332886,721.844482,945.753906,720.574219C946.390747,718.58136,947.201599,716.648376,948.175781,714.796875C948.765625,713.649231,949.408508,712.529785,950.101563,711.441406C951.35083,709.391235,952.468079,707.263245,953.445313,705.070313C953.959473,703.89801,954.329529,702.667786,954.546875,701.40625C954.635559,701.017456,954.700195,700.623535,954.738281,700.226563L953.644531,701.734375z"/>
    <path transform="matrix(-1,0,0,-1,0,0)" style="stroke:#000000;stroke-width:0.05mm;fill:none" d="M1019.613281,667.089844C1017.380554,667.288208,1015.276428,668.221985,1013.632813,669.746094C1012.609985,670.692139,1011.931274,671.951111,1011.695313,673.324219C1011.464294,674.919617,1011.856079,676.541992,1012.785156,677.859375C1013.119263,678.378479,1013.51239,678.856812,1013.953125,679.289063C1014.955261,680.28595,1016.096191,681.132813,1017.339844,681.804688C1019.09137,682.789063,1020.954956,683.559082,1022.890625,684.097656C1023.939331,684.417664,1024.9729,684.785583,1025.988281,685.199219C1026.903809,685.59906,1027.755371,686.132446,1028.511719,686.785156C1028.918823,687.126221,1029.310913,687.484863,1029.6875,687.859375C1030.898315,689.105103,1032.129272,690.332214,1033.378906,691.539063C1034.3302,692.463379,1035.370483,693.291504,1036.484375,694.011719C1037.93457,694.881042,1039.570679,695.392212,1041.257813,695.503906C1042.423584,695.590698,1043.592896,695.623535,1044.761719,695.601563C1045.901611,695.621826,1047.036987,695.751953,1048.152344,695.988281C1048.783691,696.14386,1049.382446,696.410156,1049.921875,696.773438L1050.109375,696.929688C1050.305176,697.081543,1050.476074,697.264038,1050.609375,697.472656L1050.75,697.671875C1050.973755,698.038574,1051.151489,698.431824,1051.273438,698.84375C1051.588745,699.917786,1051.784424,701.023499,1051.855469,702.140625C1051.986328,704.000977,1052.012207,705.867188,1051.933594,707.730469C1051.914063,709.407715,1051.987549,711.084656,1052.152344,712.753906C1052.261963,713.635864,1052.454346,714.505554,1052.726563,715.351563C1053.132568,716.472961,1053.839722,717.460083,1054.769531,718.207031C1055.678467,718.878235,1056.745972,719.301697,1057.867188,719.441406C1059.312622,719.638123,1060.780151,719.603699,1062.214844,719.339844C1063.444946,719.072144,1064.591919,718.511841,1065.566406,717.714844C1067.158081,716.4953,1068.432495,714.9104,1069.28125,713.09375C1069.641479,712.323608,1069.78772,711.469788,1069.691406,710.625C1069.650269,710.252319,1069.558105,709.88678,1069.417969,709.539063C1068.769043,707.921082,1067.953125,706.375061,1066.984375,704.925781C1066.567383,704.285278,1066.145752,703.644348,1065.722656,703.007813C1065.188232,702.184326,1064.745117,701.305176,1064.398438,700.386719C1064.221924,699.852966,1064.143188,699.292542,1064.152344,698.730469C1064.244263,697.835388,1064.58374,696.983276,1065.136719,696.273438C1065.263184,696.134216,1065.399536,696.004456,1065.542969,695.882813C1066.024536,695.511353,1066.539673,695.185425,1067.082031,694.910156C1068.724121,694.076599,1070.411621,693.335754,1072.136719,692.691406C1074.255737,691.802063,1076.435913,691.066345,1078.660156,690.488281C1080.795654,689.978638,1083.005859,689.861694,1085.183594,690.140625C1087.181274,690.424683,1089.158203,690.839844,1091.101563,691.382813C1091.995972,691.592285,1092.900879,691.753601,1093.8125,691.867188C1095.048218,691.990356,1096.292236,691.72937,1097.375,691.121094C1098.220947,690.683411,1098.995972,690.120361,1099.671875,689.449219C1100.488647,688.575562,1101.029541,687.480469,1101.226563,686.300781C1101.597168,683.910767,1101.365479,681.466125,1100.554688,679.1875C1100.027832,677.777527,1099.061646,676.573853,1097.796875,675.757813C1096.557129,674.94696,1095.182861,674.363281,1093.738281,674.035156C1092.699097,673.78418,1091.643066,673.609619,1090.578125,673.515625C1089.492554,673.442993,1088.404053,673.42218,1087.316406,673.453125C1085.1604,673.535156,1083.025513,673.907166,1080.96875,674.558594C1080.686646,674.656128,1080.402588,674.748474,1080.117188,674.835938L1079.925781,674.90625C1075.450928,676.664185,1070.966553,678.455933,1066.511719,680.265625C1065.71814,680.556213,1064.930054,680.862061,1064.148438,681.183594C1062.724121,681.730408,1061.260376,682.168213,1059.769531,682.492188C1059.202026,682.605347,1058.628052,682.68219,1058.050781,682.722656C1055.662598,682.871765,1053.267456,682.874573,1050.878906,682.730469C1049.846069,682.639343,1048.83252,682.395935,1047.871094,682.007813C1045.898682,681.264832,1044.003174,680.331787,1042.210938,679.222656C1039.778442,677.774048,1037.459351,676.142944,1035.273438,674.34375C1033.1875,672.662109,1030.991333,671.121887,1028.699219,669.734375C1027.504028,669.043884,1026.259766,668.442139,1024.976563,667.933594C1023.267578,667.279785,1021.44043,666.992188,1019.613281,667.089844z"/>
    <path transform="matrix(-1,0,0,-1,0,0)" style="stroke:#000000;stroke-width:0.05mm;fill:none" d="M1207.199219,691.101563C1205.082886,691.20166,1203.04187,691.918396,1201.328125,693.164063C1200.234497,693.932373,1199.287109,694.889893,1198.53125,695.992188C1197.984741,696.785156,1197.61377,697.686523,1197.457031,698.636719C1197.283936,700.396545,1197.692139,702.164795,1198.617188,703.671875C1198.985229,704.282288,1199.418213,704.851257,1199.914063,705.363281C1200.717773,706.196045,1201.614258,706.933838,1202.585938,707.5625C1204.086548,708.526855,1205.664673,709.364868,1207.304688,710.066406C1209.856201,711.170532,1212.459473,712.15094,1215.105469,713.003906C1217.133667,713.665894,1219.171631,714.297363,1221.21875,714.898438C1222.73938,715.341675,1224.278687,715.718201,1225.832031,716.027344C1227.167725,716.281982,1228.520264,716.438965,1229.878906,716.496094C1232.65918,716.550598,1235.403076,715.860901,1237.828125,714.5C1239.283936,713.701355,1240.671387,712.784241,1241.976563,711.757813C1239.83728,707.574097,1237.336914,703.5849,1234.503906,699.835938C1233.616943,700.496521,1232.599121,700.959351,1231.519531,701.199219C1231.153564,701.282654,1230.782959,701.342834,1230.410156,701.386719C1228.855957,701.524475,1227.292725,701.52478,1225.738281,701.390625C1224.386475,701.298035,1223.046875,701.074158,1221.738281,700.722656C1220.425781,700.322021,1219.201538,699.674194,1218.136719,698.808594C1217.359863,698.212891,1216.627319,697.561584,1215.945313,696.859375C1215.047607,695.94104,1214.161377,695.013245,1213.285156,694.074219C1212.614868,693.371216,1211.886353,692.726135,1211.105469,692.148438C1209.965942,691.353638,1208.583618,690.984131,1207.199219,691.101563z"/>
    <path transform="matrix(-1,0,0,-1,0,0)" style="stroke:#000000;stroke-width:0.05mm;fill:none" d="M1104.039063,599.730469C1102.598755,599.940002,1101.223999,600.46991,1100.015625,601.28125L1099.664063,601.523438C1098.743408,602.212524,1097.825928,602.908508,1096.914063,603.609375C1095.744141,604.463562,1094.47937,605.179688,1093.144531,605.742188C1091.405151,606.360779,1089.579712,606.704163,1087.734375,606.757813C1085.383057,606.808716,1083.031494,606.681824,1080.699219,606.378906C1078.443848,606.093628,1076.194336,605.785217,1073.945313,605.453125C1073.608887,605.394531,1073.27002,605.351563,1072.929688,605.324219L1069.351563,604.933594L1069.21875,604.925781L1066.90625,604.714844L1066.875,604.714844C1063.460693,604.427124,1060.035889,604.287537,1056.609375,604.296875C1054.341309,604.29895,1052.075317,604.160645,1049.824219,603.882813L1037.320313,616.378906C1038.069702,616.869629,1038.842651,617.323608,1039.636719,617.738281C1040.347778,618.072632,1041.109497,618.285461,1041.890625,618.371094C1042.977295,618.524719,1044.071167,618.621399,1045.167969,618.660156C1048.501099,618.827881,1051.839233,618.873596,1055.175781,618.796875C1059.415405,618.755493,1063.654663,618.892395,1067.882813,619.207031C1071.141846,619.473816,1074.381104,619.941895,1077.582031,620.609375C1079.750977,621.089294,1081.887939,621.703918,1083.980469,622.449219C1085.196777,622.836609,1086.449341,623.099792,1087.71875,623.234375C1089.58252,623.352295,1091.44043,622.931885,1093.074219,622.027344C1093.895386,621.594238,1094.679199,621.093506,1095.417969,620.53125C1096.223633,619.895081,1097.042603,619.276428,1097.875,618.675781C1099.984985,617.184387,1102.436523,616.248962,1105.003906,615.957031C1107.973633,615.692322,1110.940674,616.495728,1113.371094,618.222656C1114.993042,619.311035,1116.397095,620.692932,1117.511719,622.296875C1118.228027,623.403137,1118.69458,624.652039,1118.878906,625.957031C1118.970581,626.672119,1118.986572,627.394897,1118.925781,628.113281C1118.756592,629.832703,1118.407959,631.529785,1117.882813,633.175781C1117.368774,634.916687,1116.648926,636.589905,1115.738281,638.160156C1114.647339,639.95929,1113.337402,641.615906,1111.839844,643.09375C1110.18042,644.75708,1108.514893,646.403198,1106.832031,648.042969C1106.506836,648.364624,1106.254272,648.753662,1106.109375,649.1875C1106.018677,649.445679,1105.966797,649.715454,1105.945313,649.988281L1105.945313,657.789063C1105.935181,659.257751,1105.861206,660.725281,1105.722656,662.1875C1105.54895,663.547302,1105.216187,664.882141,1104.730469,666.164063C1104.1427,667.578735,1103.701294,669.049927,1103.414063,670.554688C1103.0177,672.899536,1103.203003,675.305847,1103.953125,677.5625C1104.300293,678.489868,1104.578125,679.441833,1104.785156,680.410156C1105.34021,683.562561,1105.379639,686.784119,1104.902344,689.949219C1104.775757,690.663513,1104.568481,691.361206,1104.28125,692.027344C1103.351685,693.588928,1101.994629,694.85144,1100.371094,695.667969C1099.994141,695.778625,1099.603638,695.838257,1099.210938,695.828125C1098.166626,695.836426,1097.122437,695.796631,1096.082031,695.707031L1089.265625,695.191406L1082.449219,694.683594C1080.627808,694.55365,1078.797607,694.625061,1076.992188,694.898438C1075.608887,695.102661,1074.285522,695.601013,1073.113281,696.363281C1071.859985,697.218567,1070.890869,698.428406,1070.324219,699.835938C1069.001221,702.736145,1069.47876,706.140625,1071.546875,708.566406C1071.855469,708.927551,1072.196411,709.259766,1072.5625,709.5625C1073.505859,710.178528,1074.57251,710.580139,1075.6875,710.742188C1077.709595,711.14679,1079.781372,711.242126,1081.832031,711.023438C1082.306885,710.954773,1082.772949,710.833679,1083.21875,710.65625L1083.488281,710.53125C1083.920288,710.487305,1084.352295,710.44812,1084.785156,710.414063C1088.797974,710.161987,1092.816406,709.991333,1096.835938,709.902344C1099.556763,709.785767,1102.27417,709.594299,1104.984375,709.328125C1106.630371,709.152527,1108.265625,708.888062,1109.882813,708.535156C1110.921753,708.289551,1111.942505,707.972778,1112.9375,707.585938C1113.789795,707.232605,1114.57959,706.744263,1115.277344,706.140625L1115.707031,705.71875C1115.97583,705.418579,1116.214844,705.093323,1116.425781,704.75L1116.699219,704.210938C1117.070068,703.229492,1117.34436,702.214172,1117.519531,701.179688C1117.919678,698.955444,1118.213135,696.713318,1118.398438,694.460938C1118.830566,689.959106,1119.104248,685.442871,1119.21875,680.921875C1119.307617,678.04657,1119.368896,675.165527,1119.402344,672.289063C1119.486328,668.954895,1119.744263,665.627441,1120.175781,662.320313C1120.606079,659.480225,1121.377686,656.702454,1122.472656,654.046875C1123.619019,651.216248,1125.062012,648.514954,1126.777344,645.988281C1127.957031,644.172852,1129.27063,642.448059,1130.707031,640.828125C1131.616699,639.812317,1132.431396,638.715393,1133.140625,637.550781C1134.198608,635.691406,1134.581055,633.523804,1134.226563,631.414063C1134.008301,630.016785,1133.706177,628.633972,1133.320313,627.273438C1132.674316,624.626526,1132.347656,621.912109,1132.347656,619.1875C1132.33313,618.111938,1132.211182,617.040588,1131.988281,615.988281C1131.532227,614.246033,1130.573853,612.676514,1129.234375,611.472656C1128.694336,610.954895,1128.113159,610.481689,1127.496094,610.058594C1126.211914,609.163452,1124.876099,608.344604,1123.496094,607.605469C1119.578369,605.455688,1115.598999,603.421143,1111.5625,601.503906C1110.316895,600.932129,1109.032471,600.449219,1107.71875,600.058594C1106.521729,599.729675,1105.275391,599.618408,1104.039063,599.730469z"/>
    <path transform="matrix(-1,0,0,-1,0,0)" style="stroke:#000000;stroke-width:0.05mm;fill:none" d="M1139.488281,639.660156C1137.94104,639.768372,1136.467529,640.364075,1135.28125,641.363281C1134.338135,642.102173,1133.500977,642.967102,1132.792969,643.933594C1131.286865,646.01001,1129.944946,648.200439,1128.777344,650.484375C1127.508179,652.716797,1126.466309,655.070923,1125.667969,657.511719C1125.044556,659.556396,1124.617065,661.65564,1124.390625,663.78125C1124.053223,666.956055,1123.82251,670.141663,1123.699219,673.332031C1123.528687,677.598877,1123.322998,681.861328,1123.082031,686.125C1122.90332,688.733093,1122.665039,691.336365,1122.367188,693.933594C1122.265747,694.705078,1122.143066,695.47345,1122,696.238281C1121.633545,697.624756,1121.338135,699.028992,1121.113281,700.445313C1120.925293,701.695374,1121.098877,702.973816,1121.621094,704.125C1122.584106,706.202942,1124.418579,707.74762,1126.628906,708.347656C1128.826782,709.003845,1131.188965,708.825684,1133.265625,707.851563L1135.226563,706.917969C1135.801025,706.61438,1136.275146,706.152161,1136.59375,705.585938L1136.6875,705.390625C1136.829712,705.054871,1136.91333,704.696533,1136.921875,704.332031C1137.106201,699.463867,1137.312988,694.55719,1137.539063,689.691406C1137.800049,684.261719,1138.225952,678.841309,1138.816406,673.4375C1139.369873,669.512451,1139.778931,665.56842,1140.042969,661.613281C1140.075195,660.48407,1140.109863,659.144897,1140.136719,658.015625L1140.167969,657.714844C1140.19397,657.444336,1140.264282,657.179993,1140.378906,656.933594L1140.417969,656.859375C1140.98645,656.055969,1141.723389,655.38623,1142.578125,654.898438L1142.738281,654.835938C1142.84729,654.808838,1142.95874,654.796326,1143.070313,654.785156C1143.18335,654.801697,1143.296387,654.8172,1143.410156,654.820313C1144.229614,655.111084,1144.930664,655.661438,1145.410156,656.386719C1145.546143,656.654968,1145.631836,656.946289,1145.65625,657.246094C1145.738037,657.912964,1145.717651,658.588196,1145.601563,659.25C1145.504395,659.98468,1145.373047,660.714355,1145.210938,661.4375C1144.036621,666.361328,1143.183228,671.35614,1142.65625,676.390625C1142.182617,680.808411,1141.828369,685.238831,1141.59375,689.675781C1141.314453,693.795898,1140.986206,697.914917,1140.609375,702.027344C1140.562744,702.827698,1140.569092,703.630188,1140.628906,704.429688C1140.749146,705.685669,1141.261475,706.87207,1142.09375,707.820313C1142.654297,708.429749,1143.338135,708.913757,1144.101563,709.234375C1144.850342,709.557495,1145.634644,709.790405,1146.4375,709.933594C1147.698242,710.200928,1148.984863,710.325806,1150.273438,710.304688C1151.747803,710.194519,1153.109863,709.47876,1154.042969,708.332031C1155.047607,707.162537,1155.677856,705.718506,1155.859375,704.1875C1155.970703,703.514526,1156.050171,702.836731,1156.097656,702.15625C1156.251709,699.491333,1156.306274,696.821411,1156.261719,694.152344C1156.268311,691.196655,1156.334717,688.241943,1156.460938,685.289063C1156.591064,682.450562,1156.910522,679.623901,1157.417969,676.828125C1157.93396,674.219543,1158.7677,671.684021,1159.898438,669.277344C1160.821777,667.366516,1161.623169,665.39917,1162.296875,663.386719C1162.402832,663.008118,1162.489746,662.624634,1162.5625,662.238281C1162.646729,661.592346,1162.596924,660.935364,1162.40625,660.3125C1162.287964,659.854736,1162.124634,659.409607,1161.910156,658.988281C1161.324463,657.733826,1160.609375,656.544006,1159.777344,655.4375L1159.386719,654.882813C1156.203735,650.624817,1152.509521,646.774231,1148.386719,643.417969C1146.960205,642.30896,1145.423706,641.34906,1143.800781,640.554688C1142.456299,639.913391,1140.976929,639.606445,1139.488281,639.660156z"/>
    <path transform="matrix(-1,0,0,-1,0,0)" style="stroke:#000000;stroke-width:0.05mm;fill:none" d="M975.519531,678.15625C976.213562,683.51947,976.816528,688.893738,977.328125,694.277344C977.573425,697.067627,978.013306,699.837402,978.644531,702.566406C978.822266,703.233887,979.080505,703.877319,979.410156,704.484375C979.606506,704.766174,979.806091,705.046265,980.007813,705.324219C981.274658,706.762817,983.110779,707.57019,985.027344,707.535156C986.081177,707.534302,987.127014,707.347839,988.113281,706.976563C989.690613,706.414917,991.145081,705.555481,992.398438,704.445313C993.394714,703.539001,994.150269,702.399292,994.597656,701.128906C994.989258,700.014709,995.118164,698.82489,994.976563,697.652344C994.809082,696.177795,994.426453,694.735901,993.84375,693.371094C993.419983,692.332458,992.963989,691.30719,992.476563,690.296875C991.926514,689.056152,991.460815,687.779785,991.082031,686.476563C990.559692,684.588684,990.250549,682.648132,990.160156,680.691406C990.021362,677.598328,989.987427,674.501648,990.058594,671.40625C990.101196,668.839417,990.073975,666.2724,989.976563,663.707031L975.519531,678.15625z"/>
    <path transform="matrix(-1,0,0,-1,0,0)" style="stroke:#000000;stroke-width:0.05mm;fill:none" d="M1217.207031,681.507813C1215.660767,683.271912,1214.908569,685.594543,1215.132813,687.929688C1215.313843,689.79071,1216.06604,691.550415,1217.289063,692.964844C1218.647461,694.570496,1220.404053,695.791077,1222.382813,696.503906C1223.701904,696.996155,1225.066528,697.356689,1226.457031,697.578125C1227.59668,697.705627,1228.75,697.561279,1229.824219,697.160156C1230.484009,696.932983,1231.130981,696.669617,1231.761719,696.371094C1230.083496,694.373108,1228.318726,692.449463,1226.472656,690.605469L1217.28125,681.421875L1217.207031,681.507813z"/>
    <path transform="matrix(-1,0,0,-1,0,0)" style="stroke:#000000;stroke-width:0.05mm;fill:none" d="M1008.089844,645.597656C1010.187866,646.981201,1012.655273,647.697815,1015.167969,647.652344C1017.29718,647.705566,1019.393188,647.118469,1021.183594,645.964844C1023.344727,644.514465,1024.659546,642.098389,1024.703125,639.496094C1024.718628,638.587219,1024.590454,637.681641,1024.324219,636.8125C1023.83844,635.363953,1022.880249,634.119568,1021.605469,633.277344C1021.371033,633.111023,1021.127014,632.958618,1020.875,632.820313L1008.089844,645.597656z"/>
    <path transform="matrix(-1,0,0,-1,0,0)" style="stroke:#000000;stroke-width:0.05mm;fill:none" d="M1104.96875,620.566406C1102.624268,620.76001,1100.370483,621.559082,1098.425781,622.882813L1098.402344,622.882813C1097.062988,623.746521,1095.880005,624.831238,1094.902344,626.089844C1093.740967,627.695801,1093.196777,629.666443,1093.371094,631.640625C1093.468506,632.880798,1093.735474,634.101685,1094.164063,635.269531C1094.776978,637.052246,1095.595581,638.757263,1096.601563,640.351563C1097.153076,641.182495,1097.812134,641.93634,1098.558594,642.597656C1099.326294,643.257751,1100.230835,643.739258,1101.207031,644.007813C1102.378906,644.313477,1103.616577,644.252197,1104.753906,643.835938C1105.825195,643.439758,1106.805298,642.830261,1107.632813,642.042969C1109.914917,639.828491,1111.758301,637.203125,1113.066406,634.304688C1113.692505,632.875244,1114.104736,631.361633,1114.292969,629.8125C1114.442139,628.430481,1114.298218,627.032532,1113.867188,625.710938C1113.210083,623.883728,1111.862061,622.386963,1110.113281,621.542969C1108.521729,620.748108,1106.740845,620.409119,1104.96875,620.566406z"/>
    <path transform="matrix(-1,0,0,-1,0,0)" style="stroke:#000000;stroke-width:0.05mm;fill:none" d="M1159.207031,623.59375C1159.749023,624.351929,1160.328491,625.082642,1160.945313,625.78125C1162.516968,627.507019,1164.161743,629.164673,1165.875,630.75C1167.688965,632.49939,1169.589844,634.156433,1171.570313,635.714844L1158.679688,622.828125L1159.207031,623.59375z"/>
    <path transform="matrix(-1,0,0,-1,0,0)" style="stroke:#000000;stroke-width:0.05mm;fill:none" d="M1095.152344,561.261719L1094.6875,562.722656C1094.667114,562.772339,1094.645996,562.821289,1094.640625,562.875C1094.54187,563.359192,1094.575684,563.860168,1094.722656,564.332031C1095.389038,566.449951,1096.030762,568.574463,1096.648438,570.707031C1097.175781,572.618225,1097.621826,574.550903,1097.984375,576.5C1098.263916,577.725464,1098.646729,578.92511,1099.128906,580.085938C1099.862305,582.014587,1100.698364,583.902527,1101.632813,585.742188C1102.588379,587.723206,1103.644409,589.654053,1104.796875,591.527344C1105.290649,592.298523,1105.821533,593.045166,1106.386719,593.765625C1106.906006,594.391724,1107.521606,594.931396,1108.210938,595.363281C1110.449829,596.733032,1112.802246,597.90802,1115.242188,598.875C1119.329224,600.729431,1123.308472,602.813416,1127.160156,605.117188L1134.335938,609.421875C1134.925781,609.763855,1135.612915,609.896423,1136.289063,609.808594L1136.578125,609.757813C1138.03894,609.406982,1139.49585,609.049316,1140.953125,608.683594C1141.967896,608.466248,1142.992432,608.297607,1144.023438,608.179688L1121.304688,585.46875C1118.944824,583.804932,1116.888916,581.747559,1115.226563,579.386719L1095.632813,559.804688L1095.152344,561.261719z"/>
    <path transform="matrix(-1,0,0,-1,0,0)" style="stroke:#000000;stroke-width:0.05mm;fill:none" d="M1092.671875,584.574219C1092.19751,584.607605,1091.726807,584.681152,1091.265625,584.796875C1089.33728,585.240479,1087.452148,585.854797,1085.632813,586.632813C1084.543701,587.028992,1083.393311,587.232239,1082.234375,587.226563C1081.618652,587.250122,1081.002197,587.247131,1080.386719,587.21875C1076.004395,587.023804,1071.625488,586.77124,1067.25,586.460938L1053.699219,600.011719C1055.275146,600.149719,1056.853394,600.256531,1058.433594,600.332031C1063.181885,600.53894,1067.926392,600.83197,1072.664063,601.210938C1074.258179,601.349426,1075.848755,601.513489,1077.4375,601.703125C1079.27356,602.043213,1081.128418,602.271484,1082.992188,602.386719L1083.128906,602.414063C1085.835449,602.605835,1088.555176,602.38385,1091.195313,601.757813C1093.157959,601.270752,1095.047852,600.527344,1096.816406,599.546875C1097.642822,599.046143,1098.394165,598.431519,1099.050781,597.722656C1099.422241,597.277344,1099.739258,596.78949,1099.996094,596.269531C1100.810791,594.573364,1100.92334,592.623535,1100.3125,590.84375C1099.554565,588.40387,1097.866455,586.360596,1095.613281,585.15625C1094.696167,584.721558,1093.685547,584.522766,1092.671875,584.574219z"/>
    <path transform="matrix(-1,0,0,-1,0,0)" style="stroke:#000000;stroke-width:0.05mm;fill:none" d="M1071.425781,582.285156C1074.773438,582.323242,1078.038818,582.352539,1081.386719,582.375C1082.920044,582.36853,1084.451172,582.348938,1085.984375,582.316406C1087.050171,582.286499,1088.109985,582.147888,1089.148438,581.90625C1090.435181,581.541382,1091.561279,580.752747,1092.34375,579.667969C1093.786499,577.829468,1094.353027,575.450928,1093.890625,573.160156C1093.550293,571.199646,1092.6073,569.394226,1091.195313,567.992188C1090.299561,567.174683,1089.180908,566.641052,1087.980469,566.46875C1087.751343,566.443604,1087.549316,566.420898,1087.320313,566.394531L1071.425781,582.285156z"/>
</svg>
