<?xml version="1.0" encoding="UTF-8"?>
<svg xmlns="http://www.w3.org/2000/svg" width="590.000mm" height="416.444mm" viewBox="-1094.999756 -708.221802 589.999512 416.443604">
    <path transform="matrix(-0.603889,0,0,-0.603889,-490.506897,-190.693817)" style="stroke:#000000;stroke-width:0.05mm;fill:none" d="M995.448853,856.23468C994.870972,855.830994,992.896973,852.799988,991.063354,849.5C988.036011,844.052979,984.455017,838.969971,975.58197,827.524719C973.887024,825.338013,972.049988,823.034973,971.5,822.407166C970.950012,821.778992,968.25,818.453003,965.5,815.015137C947.794983,792.88501,927.16803,771.101013,909.427856,755.799194C899.184998,746.963989,897.609009,745.786011,882.034363,735.325073C871.971008,728.565979,827.046021,705,824.224426,705C823.643982,705,817.559021,702.187988,810.702209,698.75C796.992004,691.877014,787.614014,687.536987,784.433167,686.59436C783.219971,686.234985,778.05603,687.468018,771.933167,689.579041C766.195007,691.557983,756.395996,694.260986,750.158752,695.585693C743.921021,696.911011,738.315979,698.304993,737.702698,698.683716C737.090027,699.062988,731.393005,699.732971,725.043945,700.174194C718.695007,700.61499,709.450012,701.515015,704.5,702.174866C693.513977,703.638977,627.76001,703.606995,611,702.130127C604.674988,701.572998,590.5,700.382996,579.5,699.486267C558.955994,697.812012,550.590027,697.028015,531.5,694.988953C518.40802,693.591003,480.842987,694.228027,473.5,695.972229C470.75,696.625977,466.25,697.809998,463.5,698.603455C460.75,699.396973,454.869995,700.927002,450.433594,702.002991C445.997009,703.078979,440.372009,704.671997,437.933594,705.543945C435.47699,706.421997,428.595001,707.370972,422.5,707.671814C406.731995,708.450012,373.684998,716.599976,361.480835,722.720032C359.290985,723.817993,356.365997,724.987976,354.979736,725.319519C353.593994,725.651001,350.444,727.216003,347.979736,728.797302C318.531006,747.692993,314.274994,751.039978,295.714447,769.888733C289.546997,776.153015,283.554993,782.228027,282.40097,783.388733C278.291992,787.521973,261.079987,803.596985,254.442902,809.5C250.733002,812.799988,246.528,817.362,245.098526,819.637451C241.957993,824.638,235.391998,831.843994,230.838623,835.287964C229.001999,836.677002,223.570007,839.005005,218.767258,840.461731C210.255005,843.044006,209.498001,843.099976,188.767258,842.698059C166.772995,842.271973,154.798004,841.111023,146.946838,838.64447C139.503006,836.30603,119.752998,826.04303,116.222603,822.677917C114.264999,820.812988,112.355003,817.567993,111.480347,814.621826C109.821999,809.036987,104.832001,799.66803,101.637047,796.140137C98.3759,792.539001,90.367897,787.731995,81.5,784.052734C71.938904,780.085999,46.7113,771.732971,39,769.981079C28.4956,767.594971,24,763.94397,24,757.798767C24,749.859009,33.132301,724.820007,39.016911,716.625977C42.617298,711.612976,49.7635,706.361023,58.290199,702.463501C63.943501,699.879028,68.026604,698.973999,82.679054,697.05365C86.627502,696.536011,91.802498,695.080994,94.179054,693.819641C98.150101,691.711975,100.120003,691.484985,118.5,691.013123C140.766998,690.442017,136.787003,691.513977,153.74707,681.521484C163.438995,675.812012,181.218002,657.659973,185.037674,649.576111C186.636002,646.19397,189.445007,641.643005,191.279999,639.463074C193.115005,637.28302,195.625,633.835999,196.858063,631.801453C198.091003,629.767029,201.214996,626.325012,203.799759,624.151489C207.345001,621.171021,209.852005,617.567017,214,609.485596C217.024994,603.593018,221.110992,596.909973,223.080902,594.635559C228.796997,588.033997,237.792007,574.695007,240.465302,568.85675C241.822006,565.893982,243.595001,559.026001,244.417755,553.548096C245.410004,546.945007,246.595993,542.684998,247.955154,540.846802C249.080002,539.325989,250,537.66803,250,537.162964C250,536.65802,250.636002,535.71698,251.412827,535.072327C252.190002,534.427002,254.466003,528.781006,256.470978,522.524109C258.476013,516.267029,260.653015,510.72699,261.308167,510.212921C261.963989,509.697998,264.075012,509.023987,266,508.713776C271.342987,507.852997,280.973999,502.181,282.264008,499.134857C284.847992,493.036011,300.449005,470.574005,304.841492,466.629089C305.987,465.600006,307.445007,463.181,308.081268,461.253723C308.71701,459.325989,311.013,455.217987,313.183441,452.124634C315.354004,449.031006,318.934998,442.674988,321.141418,438L325.153809,429.5L325.025177,398C324.881989,363.039001,323.696014,348.065002,319.520721,328.5C318.152008,322.085999,315.744995,308.867004,312.841888,291.814941C311.953003,286.593994,311.984009,284.128998,312.982971,280.560822C313.776001,277.729004,313.985992,274.377014,313.535553,271.74588C312.664001,266.652008,312.665985,265.049011,313.551605,258.366089C314.299988,252.718002,314.760986,253.451996,305.866882,246.124496C303.319,244.024994,299.65799,241.332993,297.73111,240.142822C293.519989,237.539993,287.042999,228.455002,286.103851,223.832443C285.442993,220.580002,285.28299,220.488007,279.463287,220C275.56601,219.673004,272.44101,218.744995,270.442963,217.319305C265.123993,213.524994,253.024994,200.106003,250.807007,195.539658C248.791,191.389008,248.764999,191.007996,250.333939,188.613098C253.425003,183.895004,268.721008,181.949997,295.186676,182.907791L312.873322,183.548218L321.611877,188.024109C332.282013,193.488998,335.787994,197.416,336.673279,204.889038C337.394012,210.970993,340.019012,213.535004,344.400696,212.435577C352.348999,210.440994,360.699005,216.406998,363.807739,226.30368C364.877991,229.712006,366.02301,233.960007,366.350952,235.744141C366.678986,237.528,367.890991,240.903,369.043823,243.244141C370.196991,245.585007,371.947998,250.046005,372.936584,253.158279C373.924988,256.269989,375.692993,260.165009,376.866577,261.812653C378.040009,263.460999,379,265.278992,379,265.853485C379,266.428009,380.60199,268.119995,382.55896,269.612762C388.118988,273.854004,389.484009,277.298004,388.034119,283.427063C386.627991,289.368988,387.192993,319.238007,388.933716,331C389.544006,335.125,390.696991,344.350006,391.495087,351.5C392.292999,358.649994,393.424011,367.200012,394.007233,370.5C394.591003,373.799988,395.730988,383.25,396.540375,391.5C398.471008,411.17099,399.687988,419.549011,400.960266,421.925751C401.532013,422.993988,402,425.665985,402,427.862823C402,433.90799,404.032013,435.385986,410.915924,434.344482C419.096008,433.106995,444.259003,433.337006,453.5,434.732544C467.231995,436.807007,479.507996,439.856995,489,443.553528C490.924988,444.303009,494.524994,445.470001,497,446.146729C499.475006,446.822998,502.977997,448.641998,504.78479,450.188507C506.627991,451.765991,509.260986,453.002991,510.78479,453.006165C512.278015,453.01001,514.757019,453.667999,516.292236,454.468781C520.461975,456.644012,524.047974,457.14801,555.318115,459.96048C564.603027,460.79599,567.10498,461.427002,572.968689,464.415436L579.801147,467.89743L609.327759,467.969208C641.007996,468.04599,648.213013,468.789001,653.919495,472.56543C658.046021,475.29599,664.445984,477.308014,674.103638,478.911438C677.736023,479.514008,682.906006,480.669006,685.593567,481.478119C691.559998,483.273987,692.01001,482.929993,695.376831,474C696.724976,470.424988,699.177002,463.997009,700.825684,459.715027C704.164978,451.04599,717.390991,430.424011,721.920288,426.824219C723.528992,425.54599,725.963013,421.950989,727.330017,418.834686C728.697021,415.718994,730.755005,412.665985,731.904236,412.051239C733.052979,411.436005,734.848999,409.260986,735.895081,407.216553C736.940979,405.171997,752.130005,388.940002,769.648315,371.145447L801.5,338.790894L807.884888,326.145447C818.513977,305.095001,819.507019,301.35199,819.462585,282.5L819.425171,266.5L815.248901,254.288361C812.952026,247.572006,809.953003,239.867004,808.584167,237.166107C805.812988,231.697998,802.804993,229.990005,792.639954,228.110504C785.995972,226.882004,786.796021,227.302002,776.837891,219.815903C765.947998,211.628998,763.265991,207.494995,765.709534,202.659744C766.499023,201.098007,766.916992,199.227005,766.639771,198.503693C765.802979,196.324005,769.401001,193.994995,775.111816,193.018768C778.075012,192.511993,782.072021,191.626007,783.993408,191.048706C785.914978,190.472,788.926025,190,790.684387,190C794.565979,190,795.377991,188.923004,793.915344,185.713547C793.02301,183.755005,793.16803,182.613007,794.652649,179.888611C795.669006,178.024994,796.724976,175.149994,797,173.5C797.804993,168.667007,802.625,166.813995,812.5,167.539459C816.900024,167.863007,822.525024,168.550995,825,169.068985C846.458008,173.557999,851.275024,174.373001,856.696777,174.432236C860.210022,174.470993,863.432983,175.037994,864.138977,175.742249C866.046021,177.643997,868.997986,186.113998,868.999207,189.684906C869,191.436996,869.487,194.136993,870.082336,195.684906C871.08197,198.285995,871.551025,200.473007,874.114502,214.5C874.617004,217.25,875.719971,227.375,876.565613,237C877.411011,246.625,878.575989,259.225006,879.154541,265C880.788025,281.315002,881.002014,285.050995,881.589966,307.518677L882.139709,328.537384L877.017395,335.518677C874.200012,339.358002,869.270996,345.200012,866.063232,348.5C846.914978,368.200989,832.61499,386.098999,828.388306,395.656647C825.619995,401.916992,819.997986,422.963989,820.016907,427C820.039001,431.877014,824.765015,448.885986,826.8255,451.50528C828.271973,453.345001,828.747009,455.013,828.366333,456.918365C828.062988,458.433014,828.346008,461.43399,828.995361,463.586182C830.603027,468.920013,832.018005,490.819,832.99469,525.5C833.44397,541.450012,834.112976,556.299988,834.481628,558.5C834.958008,561.346008,834.442993,565.096008,832.696228,571.5C831.346008,576.450012,829.289001,583.968994,828.126709,588.20813C823.434021,605.317993,816.008972,620.927002,809.518127,627.325378C807.03302,629.775024,805,632.69397,805,633.812012C805,634.929993,806.820007,639.367004,809.043762,643.672241C814.405029,654.049011,821.088013,659.15802,836.315735,664.52002C839.525024,665.650024,841.427002,666.994019,842.017883,668.546997C843.062988,671.296021,845.075012,672.473999,853.919556,675.512939C857.539001,676.757019,865,679.421021,870.5,681.434204C881.166016,685.338013,894.45697,690.075012,902.285583,692.761902C905.239014,693.776001,907.994995,695.61499,909.483887,697.567749C911.039978,699.607971,914.310974,701.731995,918.698303,703.54895C927.64801,707.257019,929,708.495972,929,712.996094C929,717.000977,927.137024,715.739014,954,729.92511C954.85498,730.377014,955.822021,732.945984,956.248169,735.903198C956.659973,738.755005,957.840027,742.757019,958.870789,744.794556C962.705994,752.375977,967.489014,760.633972,970.573608,765C972.322021,767.474976,974.471008,770.849976,975.348938,772.5C976.22699,774.150024,978.757019,777.508972,980.972412,779.963745C985.448975,784.924988,985.984009,787.369019,983,789.232056C981.900024,789.919006,981,791.257019,981,792.205627C981,794.877991,983.859009,802.710022,988.044373,811.5C993.197998,822.323975,1001,845.945984,1001,850.723694C1001,855.862,998.486023,858.357971,995.448853,856.23468z"/>
    <path transform="matrix(-0.603889,0,0,-0.603889,-490.506897,-190.693817)" style="stroke:#000000;stroke-width:0.05mm;fill:none" d="M210.381866,830.130554C211.973999,828.370972,211.953995,827.95697,210.036865,823.093506C208.917007,820.250977,208,816.127014,208,813.927795C208,805.991028,202.968002,801.854004,192.201828,800.939026C187.190994,800.513,184.059006,799.687988,182.208023,798.305969C176.089996,793.737976,172.350006,780.530029,174.946518,772.662048C176.701996,767.343018,181.826996,763.375,188.689819,762.020081C197.787003,760.224976,199.395996,759.525024,201,756.6698C202.335999,754.291016,202.332993,753.700012,200.96846,751.25C199.998993,749.508972,198.445007,748.383972,196.735138,748.185181C193.095993,747.760986,175.199005,755.65802,171.900513,759.142944C169.475998,761.703979,162,778.565002,162,781.470581C162,782.187988,163.537003,785.01001,165.416092,787.741699C168.554993,792.304016,169.973007,795.934021,171.470413,803.237366C172.313995,807.351013,175.481995,808.786987,187.016296,810.285339C192.781998,811.033997,198.507004,812.189026,199.73819,812.852295C203.162994,814.697021,203.707993,818.617981,200.947983,821.555359C198.292007,824.382019,195.996994,824.552002,187,822.583374C174.574005,819.86499,167.455002,818.971008,159.814621,819.169067C152.779999,819.351013,151.509995,819.059998,144.814621,815.731384C131.886002,809.302979,127,803.630981,127,795.049194C127,792.768005,127.652,789.640015,128.448914,788.098755C130.690002,783.765015,136.550995,779.166992,140.728622,778.465088C146.522003,777.492004,150.727997,776.03302,151.935928,774.577209C152.539001,773.851013,154.145004,769.984009,155.505371,765.984192C158.841003,756.177002,162.128998,750.84198,166.703552,747.81488C171.615997,744.564026,185.475998,738.468994,190,737.570374C196.363998,736.30603,198.957993,734.80603,201.133347,731.132324C202.315994,729.13501,205.100998,724.64502,207.321289,721.155396L211.3582,714.810791L210.076904,707.155396C207.686005,692.872986,204.216995,686,199.39827,686C196.871994,686,193,690.296021,193,693.100037C193,694.106995,194.283997,696.408997,195.853348,698.21521C201.561996,704.786987,202.373001,709.380981,199.096878,716.59375C196.507996,722.294983,190.682999,726.817993,181.944443,729.914917C172.710999,733.187012,153.335999,743.504028,152.104477,745.804749C151.602997,746.742981,150.701996,750.161011,150.103043,753.400452C148.156006,763.932007,143.348007,769.120972,134.276505,770.481201C127.596001,771.482971,126.573997,772.239014,124.089607,778.013306C122.885002,780.815002,120.346001,784.825012,118.449303,786.924438C116.552002,789.023987,115.000999,791.588013,115.002373,792.621216C115.005997,795.124023,122.737,813.007996,124.823883,815.338074C126.837997,817.588013,147.167999,827.452026,152,828.524109C160,830.299011,177.511993,831.741028,192.595016,831.866089C207.145004,831.987,208.852005,831.820984,210.381866,830.130554z"/>
    <path transform="matrix(-0.603889,0,0,-0.603889,-490.506897,-190.693817)" style="stroke:#000000;stroke-width:0.05mm;fill:none" d="M229.133636,822.169067C230.985001,820.062012,234.514999,815.51001,236.977158,812.054199C239.440002,808.598022,244.389999,803.254028,247.977158,800.177979C251.565002,797.10199,266.200012,783.083008,280.5,769.024658C307.553986,742.427002,316.130005,735.47998,339.5,721.226501C351.372986,713.984985,360.580994,710.164001,377.202606,705.57959C383.966003,703.713989,392.865997,701.245972,396.979889,700.094055C401.093994,698.942017,406.35199,698,408.664795,698C410.977997,698,414.078003,697.539978,415.555664,696.978821C417.92099,696.078979,418.167999,695.572998,417.621826,692.728821C416.852997,688.723999,412.778992,685,409.166016,685C407.669006,685,403.15799,686.575012,399.142456,688.498962C395.127014,690.422974,388.384003,692.880981,384.157288,693.959839C379.931,695.039001,374.45401,696.658997,371.986603,697.561157C369.519012,698.463013,363.949005,699.580994,359.608307,700.046753C353.132996,700.741028,351.069,701.413025,348.108307,703.790894C346.123993,705.38501,337.975006,710.875,330,715.990662C322.024994,721.106995,313.024994,727.171021,310,729.467285C306.975006,731.763,302.019012,735.044983,298.985901,736.759521C295.640991,738.651001,292.218994,741.653992,290.287048,744.395081C288.535004,746.880005,285.166992,750.294983,282.801147,751.983154C280.436005,753.671997,276.915009,757.39801,274.97818,760.263428C272.925995,763.299988,269.151001,766.999023,265.932251,769.129395C262.894012,771.140015,259.209015,774.596985,257.743073,776.812073C256.277008,779.026978,251.798004,783.622009,247.789017,787.023499C243.779999,790.424988,238.25,795.843018,235.5,799.063232C232.75,802.283997,228.419006,806.489014,225.876465,808.408569C223.334,810.328003,220.970993,812.632996,220.626465,813.531006C219.792999,815.703003,219.822998,824.48999,220.666672,825.333313C222.404007,827.070984,226.011002,825.721985,229.133636,822.169067z"/>
    <path transform="matrix(-0.603889,0,0,-0.603889,-490.506897,-190.693817)" style="stroke:#000000;stroke-width:0.05mm;fill:none" d="M158.418213,807.393005C160.697998,806.518005,160.367004,802.65802,157.533142,797.06543C154.231995,790.551025,150.580002,787.721985,146.565613,788.569031C142.835007,789.356018,139,792.697021,139,795.158508C139,797.802979,143.783005,802.539001,149.398941,805.45575C154.524994,808.117981,155.809998,808.393982,158.418213,807.393005z"/>
    <path transform="matrix(-0.603889,0,0,-0.603889,-490.506897,-190.693817)" style="stroke:#000000;stroke-width:0.05mm;fill:none" d="M226.299774,791.801147C230.259995,787.434021,236.761993,781.161987,240.747894,777.863281C249.028,771.010986,250.613998,767.724976,247.039963,764.831299C244.110001,762.458008,237.809998,762.413025,235.820419,764.75C235.001007,765.713013,233.313004,768.525024,232.068863,771C229.011993,777.080994,227.671005,778.458008,219.255539,784.151794C210.378998,790.156982,208.169998,793.080994,209.969833,796.443665C211.445007,799.200012,214.716995,800.887024,217.285416,800.215088C218.283005,799.953979,222.339996,796.16803,226.299774,791.801147z"/>
    <path transform="matrix(-0.603889,0,0,-0.603889,-490.506897,-190.693817)" style="stroke:#000000;stroke-width:0.05mm;fill:none" d="M971,793.934265C971,785.859985,970.583984,784.875,963.43335,776C960.552979,772.424988,956.239014,765.674988,953.8479,761C949.528015,752.55603,949.476013,752.500977,945.75531,752.613586C943.533997,752.68103,940.380981,753.804993,938.00531,755.377808C932.200989,759.218994,932.557007,761.757996,939.662537,767.179321C943.026001,769.745972,948.512024,775.763977,953.173767,782C969.690002,804.094971,971,804.971985,971,793.934265z"/>
    <path transform="matrix(-0.603889,0,0,-0.603889,-490.506897,-190.693817)" style="stroke:#000000;stroke-width:0.05mm;fill:none" d="M197.525833,788.23468C198.089996,787.830994,200.024002,785.607971,201.823212,783.296265C203.623001,780.984009,207.501999,777.715027,210.443756,776.032166C216.873001,772.354004,222.332001,766.554993,223.932922,761.703247C224.977997,758.536011,224.826004,757.591003,222.553604,753.105774C218.903,745.901978,219.195999,742.439026,224,736C226.199997,733.051025,228,729.919983,228,729.04187C228,726.302979,225.001007,723,222.514725,723C219.438995,723,217.824997,724.700012,213.418137,732.580017C209.389999,739.78302,209.264008,742.650024,212.601013,751.17627C214.391006,755.750977,214.388,755.958008,212.441742,760.67627C209.921005,766.786987,203.684006,771.211975,195.249069,772.871216C191.761002,773.557007,188.522003,774.870972,187.480881,776.021118C183.371002,780.562012,187.246994,789.015015,193.424316,788.98468C195.115997,788.976013,196.962006,788.638977,197.525833,788.23468z"/>
    <path transform="matrix(-0.603889,0,0,-0.603889,-490.506897,-190.693817)" style="stroke:#000000;stroke-width:0.05mm;fill:none" d="M110.989014,778.75C116.260002,769.61499,116.688004,766.901001,114.038643,759.396545C111.246002,751.487,111.552002,741.447998,114.715584,737.129822C118.975998,731.314026,127.063004,729.598999,136.591064,732.489197C144.119003,734.77301,147.580002,734.396973,153.869186,730.610291C161.889999,725.781982,172.660004,720.554993,178.591019,718.612305C187.246002,715.778015,190.865997,710.497009,187.587189,705.492737C185.065994,701.643982,181.462997,702.267029,173.759796,707.882629C170.076004,710.567993,162.886002,714.955994,157.781204,717.632629L148.5,722.5L130.983719,722.521423C115.199997,722.541016,113.123001,722.744019,109.984482,724.577026C106.735001,726.474976,106.422997,727.109009,105.328743,734.055603C104.683998,738.150024,103.578003,743.411987,102.871384,745.75C101.809998,749.262024,101.824997,750.737976,102.958618,754.25C103.712997,756.588013,104.367996,760.974976,104.414177,764C104.482002,768.450989,103.973999,770.26001,101.74897,773.482117C98.4702,778.231995,98.370102,779.369995,101,782C104.599998,785.599976,107.598999,784.625,110.989014,778.75z"/>
    <path transform="matrix(-0.603889,0,0,-0.603889,-490.506897,-190.693817)" style="stroke:#000000;stroke-width:0.05mm;fill:none" d="M90.69455,771.343445C91.841003,769.593994,92.446297,766.661987,92.467606,762.757019C92.495201,757.710022,92.148399,756.541992,90.139214,754.913574C85.698799,751.314026,82.993797,752.994995,79.535667,761.5C76.836502,768.138977,77.323196,770.263977,82.107986,772.735229C85.9375,774.713013,88.789803,774.25,90.69455,771.343445z"/>
    <path transform="matrix(-0.603889,0,0,-0.603889,-490.506897,-190.693817)" style="stroke:#000000;stroke-width:0.05mm;fill:none" d="M66.769936,764.75C68.086098,763.129028,71.188499,751.674988,71.746849,746.375732C72.238197,741.713013,69.860703,736,67.428864,736C64.348602,736,61.254799,740.507996,60.5051,746.088501C60.105301,749.065002,59.153,753.017029,58.38905,754.872131C57.625099,756.72699,57,759.289001,57,760.56543C57,764.698975,64.279999,767.817017,66.769936,764.75z"/>
    <path transform="matrix(-0.603889,0,0,-0.603889,-490.506897,-190.693817)" style="stroke:#000000;stroke-width:0.05mm;fill:none" d="M45.966049,758.540894C46.632099,757.737976,47.565399,753.987976,48.040134,750.207703C49.889099,735.481995,55.528,726.26001,64.060402,724.006836C66.502197,723.362,72.047401,721.244019,76.383003,719.301147C83.751198,715.999023,84.710899,715.812012,91.078323,716.439087C97.249496,717.046997,98.436897,716.846008,103.69532,714.305176C109.324997,711.585022,110.018997,711.497009,126.664673,711.384216C143.716995,711.268982,143.873001,711.247986,150.558121,708.119568C154.259003,706.388,160.035004,703.026978,163.393463,700.651245C166.751999,698.276001,171.910995,695.033997,174.858826,693.447693C178.757004,691.349976,181.143005,689.117981,183.610214,685.260254C185.475998,682.343018,189.014008,678.539001,191.472015,676.806641C194.108002,674.948975,196.729996,671.979004,197.8638,669.566345C198.921005,667.317017,201.623001,663.254028,203.867538,660.537476C206.112,657.820984,208.641006,653.567993,209.486511,651.085571C211.679001,644.651001,215.421005,639.677979,221.552795,635.047913C226.022003,631.672974,227.251007,630.017029,229.152237,624.802612C230.813004,620.247986,232.852005,617.163025,236.766144,613.279297C239.705994,610.362,242.804001,606.31897,243.650558,604.293945C244.496994,602.268982,246.884995,598.112,248.957611,595.05603C251.029999,592,254.093002,586.799988,255.762909,583.5C260.799988,573.546997,265.612,570.45697,274.441437,571.504089C278.872986,572.030029,280.40799,571.664001,286.831482,568.552124C296.049988,564.085999,301.51001,563.856995,308,567.66394C311.981995,570,313.479004,570.288025,321,570.169006C330.506012,570.018005,331.352997,570.405029,335.321472,576.707031C338.588989,581.895996,341.006012,583.328003,344.348969,582.057434C349.993988,579.911011,348.778992,573.827026,341.35022,567.037109C335.065002,561.291992,331.332001,559.981995,323.288757,560.697021C318.062988,561.161011,316.82901,560.861023,310.607849,557.605713C302.882996,553.565002,301.716003,553.38501,296.728119,555.469116C294.794006,556.276978,287.877014,558.343994,281.355988,560.0625C272.080994,562.507019,268.145996,563.083008,263.280334,562.710999C259.463013,562.419006,256.484009,562.672974,255.567383,563.367615C254.746002,563.98999,252.800003,567.650024,251.242752,571.5C248.360992,578.625977,241.371994,589.695007,232.934814,600.5C230.358002,603.799988,226.080994,610.549988,223.430237,615.5C220.498993,620.974976,216.186996,627.046021,212.422134,631C206.927002,636.770996,199.513,647.330017,192,660.083008C190.625,662.416992,184.774994,669.133972,179,675.008423C170.957993,683.189026,165.925003,687.288025,157.5,692.515747C151.449997,696.27002,144.516006,699.940002,142.091064,700.670776C139.225998,701.533997,132.145004,702,121.871964,702C107.660004,702,105.277,702.255981,98.298203,704.534302C94.028198,705.927979,85.967903,707.710022,80.386299,708.493164C63.701,710.835022,51.4729,716.89502,46.628906,725.220886C42.5112,732.299011,34.8055,753.088989,35.408852,755.492859C36.372398,759.33197,43.581902,761.414001,45.966049,758.540894z"/>
    <path transform="matrix(-0.603889,0,0,-0.603889,-490.506897,-190.693817)" style="stroke:#000000;stroke-width:0.05mm;fill:none" d="M133.382599,759.044617C136.179993,757.981018,138.442993,754.875977,139.384949,750.810303C140.951996,744.04303,129.313995,739.424988,124.784767,745.017456C122.483002,747.859985,122.774002,753.47998,125.433006,757.538086C127.154999,760.166016,129.341995,760.580994,133.382599,759.044617z"/>
    <path transform="matrix(-0.603889,0,0,-0.603889,-490.506897,-190.693817)" style="stroke:#000000;stroke-width:0.05mm;fill:none" d="M262.777496,757.443298C265.725006,755.379028,265.712006,750.755981,262.75,747.934387C258.489014,743.875,255.977997,742.765991,249.24855,741.968994C245.537003,741.528992,241.084,740.859985,239.354172,740.480774C233.485001,739.195007,229.522003,746.447998,233.919388,750.427063C235.477005,751.836975,236.863998,752.036011,241.279922,751.484253C247.352005,750.726013,250.770004,751.958008,254.924316,756.404968C257.709991,759.387024,259.638,759.642029,262.777496,757.443298z"/>
    <path transform="matrix(-0.603889,0,0,-0.603889,-490.506897,-190.693817)" style="stroke:#000000;stroke-width:0.05mm;fill:none" d="M927.927307,748.617676C930.172974,744.984009,933.030029,743.499023,939.75,742.473083C944.468018,741.752991,945.39502,739.538025,942.282166,736.424988C940.018005,734.161011,933.085999,731.049988,930.244446,731.021973C927.213989,730.992004,916,741.911987,916,744.892883C916,747.840027,920.315002,752,923.372986,752C925.093994,752,926.46698,750.97998,927.927307,748.617676z"/>
    <path transform="matrix(-0.603889,0,0,-0.603889,-490.506897,-190.693817)" style="stroke:#000000;stroke-width:0.05mm;fill:none" d="M90.938568,742.25C93.549301,740.13501,95.200302,733.656982,93.960052,730.394958C92.792702,727.325012,88.8218,726.416992,84.206795,728.166321C81.305496,729.265991,80.429001,730.184021,80.173203,732.393066C79.755997,735.995972,81.682602,740.664001,84.360321,742.539856C87.066803,744.435974,88.308403,744.380981,90.938568,742.25z"/>
    <path transform="matrix(-0.603889,0,0,-0.603889,-490.506897,-190.693817)" style="stroke:#000000;stroke-width:0.05mm;fill:none" d="M278.545441,740.545471C281.605988,737.484985,281.626007,735.906006,278.64856,732.326721C274.796997,727.695984,274,725.437988,274,719.150513C274,712.362,273.891998,712.219971,261.5,702.777893C253.225006,696.471985,248.600998,690.04303,246.911041,682.493103C245.397003,675.728027,246.470993,671.471985,251.6203,663.823608C256.516998,656.549988,258,653.510986,258,650.749634C258,647.64801,256.221008,646,252.871429,646C249.190002,646,247.431,648.005005,245.60733,654.278809C244.725006,657.312988,242.102005,662.094971,239.435287,665.528137C235.147995,671.047974,234.841995,671.822998,235.382523,675.771484C236.139999,681.299988,243.470001,700.755005,245.744904,703.274963C246.710007,704.343994,250.057999,706.510986,253.185104,708.091003C261.700989,712.393005,264.264008,716.364014,264.977356,726.354065C265.609009,735.210999,266.593994,737.749023,270.62854,740.922424C274.049011,743.612976,275.549988,743.541016,278.545441,740.545471z"/>
    <path transform="matrix(-0.603889,0,0,-0.603889,-490.506897,-190.693817)" style="stroke:#000000;stroke-width:0.05mm;fill:none" d="M908.759766,734.847351C909.71698,733.663025,912.658997,730.26001,915.297424,727.284424C920.500977,721.416992,920.710999,719.620972,916.710754,715.25C913.294983,711.518005,909.494019,712.252991,906.357483,717.25C904.890015,719.588013,902.184998,723.268005,900.344971,725.429993C898.505005,727.591003,897,729.763977,897,730.256897C897,732.004028,902.877014,737,904.932861,737C906.080994,737,907.802979,736.031006,908.759766,734.847351z"/>
    <path transform="matrix(-0.603889,0,0,-0.603889,-490.506897,-190.693817)" style="stroke:#000000;stroke-width:0.05mm;fill:none" d="M253.29541,728.904785C255.608002,725.213013,250.932007,717.773987,245.431351,716.393433C242.227997,715.588989,240.057999,716.715027,238.071838,720.211548C236.175003,723.551025,238.102005,728.487976,241.850708,729.89502C245.710007,731.343994,252.115005,730.789978,253.29541,728.904785z"/>
    <path transform="matrix(-0.603889,0,0,-0.603889,-490.506897,-190.693817)" style="stroke:#000000;stroke-width:0.05mm;fill:none" d="M298.099976,723.789307C300.519989,722.02301,311.105011,714.869019,321.622406,707.890564C332.140015,700.911987,341.479004,694.153992,342.376801,692.872437C343.640991,691.067017,343.875,689.187012,343.415771,684.521179C342.881012,679.093018,343.127014,677.934998,345.911377,672.768921C347.609985,669.617004,349,665.679016,349,664.018921C349,660.530029,345.949005,657,342.934265,657C337.373993,657,334.653992,662.281982,335.693695,671.061462C336.523987,678.070984,334.463989,684.317993,329.601074,689.537292C322.806,696.830017,301.778015,710.684021,293.975342,713.007324C286.037994,715.370972,284.513,716.817017,285.381439,721.157166C286.73999,727.947998,291.149994,728.861023,298.099976,723.789307z"/>
    <path transform="matrix(-0.603889,0,0,-0.603889,-490.506897,-190.693817)" style="stroke:#000000;stroke-width:0.05mm;fill:none" d="M891.302673,718.5C892.914978,715.75,895.536011,712.017029,897.127197,710.203491C899.473022,707.531006,899.823975,706.539001,898.980652,704.963806C897.497986,702.19397,892.411987,699.830017,888.711487,700.191406C885.934021,700.463013,885.330017,701.094971,883.737915,705.397949C882.741028,708.09198,881.041992,711.536011,879.962708,713.052368C877.268982,716.835022,877.487,718.390015,881.137878,721.462585C885.482971,725.119019,887.822021,724.437012,891.302673,718.5z"/>
    <path transform="matrix(-0.603889,0,0,-0.603889,-490.506897,-190.693817)" style="stroke:#000000;stroke-width:0.05mm;fill:none" d="M232.530594,710.652893C234.589996,707.713013,234.481995,707.109009,230.034149,696.699219C227.852997,691.593994,225.574005,684.960999,224.970428,681.958435C224.367004,678.955994,223.389008,675.244995,222.798462,673.710144C220.669998,668.182007,214.695999,666.304016,211,670C207.897995,673.10199,208.503998,676.630005,213.019394,681.759399C217.348999,686.677979,219.358994,692.14801,220.902725,703.215576C221.973999,710.896973,222.404999,711.843994,225.315033,712.920837C228.182999,713.981995,230.768005,713.169006,232.530594,710.652893z"/>
    <path transform="matrix(-0.603889,0,0,-0.603889,-490.506897,-190.693817)" style="stroke:#000000;stroke-width:0.05mm;fill:none" d="M871.191772,705C872.671997,701.974976,873.909973,698.723022,873.941772,697.773071C874.015991,695.562988,870.580017,693.414001,865.555237,692.530396C863.385986,692.148987,859.393982,690.713013,856.684387,689.340088C850.401978,686.156006,847.666016,686.773987,845.012146,691.976135C841.523987,698.814026,842.752014,701.541992,850.432556,704.011353C852.594971,704.70697,856.419983,706.580994,858.932556,708.176819C865.528015,712.366028,867.885986,711.755005,871.191772,705z"/>
    <path transform="matrix(-0.603889,0,0,-0.603889,-490.506897,-190.693817)" style="stroke:#000000;stroke-width:0.05mm;fill:none" d="M292.644287,701.331665C299.056,698.765015,316.042999,686.971985,320.773895,681.804443C325.451996,676.692993,325.553986,669.437012,320.980804,666.989746C317.993011,665.390991,314.627991,667.828003,311.616547,673.77002C308.585999,679.750977,299.415985,688.486023,293.353546,691.167786C284.70401,694.994019,274.695007,691.085022,270.843018,682.377991C267.645996,675.151001,269.424988,670.078003,278.43631,660.726501C281.496002,657.551025,284,654.033997,284,652.910767C284,650.578003,282.22699,646.851013,280.600281,645.76532C278.653015,644.465027,273.19101,644.952026,271.572937,646.569946C270,648.143005,269.623993,649.328979,268.524261,656.186279C268.199005,658.213989,266.325989,662.208984,264.362335,665.063843C257.325012,675.294006,256.618011,680.382019,261.342377,686.786377C264.941986,691.666016,280.901001,704,283.614624,704C284.915009,704,288.977997,702.799011,292.644287,701.331665z"/>
    <path transform="matrix(-0.603889,0,0,-0.603889,-490.506897,-190.693817)" style="stroke:#000000;stroke-width:0.05mm;fill:none" d="M435.684906,694.954956C440.52301,693.158997,440.994995,691.656006,438.866791,684.819824C437.07901,679.075989,437.036987,677.515015,438.17337,658.990479C439.372986,639.437012,439.364014,639.226013,437.103363,633.387207C435.850006,630.148987,434.433014,624.799988,433.955505,621.5C432.665009,612.583984,428.256989,609.937988,422.75,614.773254C420.319,616.90802,420.583008,620.729004,423.515594,625.858337C428.470001,634.526001,429.252991,639.554016,428.573334,658.340515C428.231995,667.778015,427.707001,679.374023,427.406586,684.10907C426.95401,691.252991,427.140015,692.997009,428.501953,694.35907C430.415009,696.271973,431.822998,696.388977,435.684906,694.954956z"/>
    <path transform="matrix(-0.603889,0,0,-0.603889,-490.506897,-190.693817)" style="stroke:#000000;stroke-width:0.05mm;fill:none" d="M834.536255,688.75C835.880981,685.862,836.984985,682.528015,836.990234,681.338867C837.005005,678.085999,831.411011,673.827026,827.610352,674.197083C824.896973,674.460999,824.088013,675.310974,821.27301,680.858704C818.781982,685.767029,818.275024,687.64502,819.048157,689.089966C820.442993,691.695984,824.879028,693.911987,828.796021,693.959961C831.807983,693.997009,832.302979,693.547974,834.536255,688.75z"/>
    <path transform="matrix(-0.603889,0,0,-0.603889,-490.506897,-190.693817)" style="stroke:#000000;stroke-width:0.05mm;fill:none" d="M629.998596,692.022034C632.135986,690.671021,631.533997,673.278015,629.262756,670.75C627.283997,668.547974,624.200012,668.508972,621.828735,670.654968C620.320984,672.018982,620,673.854004,620,681.098267C620,689.046021,620.213013,690.034973,622.222534,691.443298C624.731018,693.200012,627.776978,693.427002,629.998596,692.022034z"/>
    <path transform="matrix(-0.603889,0,0,-0.603889,-490.506897,-190.693817)" style="stroke:#000000;stroke-width:0.05mm;fill:none" d="M650.729614,692.188232C651.573975,691.651978,651.914978,688.541016,651.8172,682.254761C651.685974,673.791992,651.921021,672.60199,654.944397,666.461365C660.392029,655.395996,663.000977,654.299988,693,650.478455C709.935974,648.320984,711.122986,647.705994,715.5802,638.779175C717.578979,634.776001,720.945984,629.182983,723.062805,626.352051C727.984009,619.768982,728.51001,617.455994,726.571594,610.929199C725.702026,608,724.307007,601.356995,723.471436,596.165771C722.594971,590.71698,720.632019,583.721008,718.827698,579.613708C714.888977,570.646973,714.130981,564.768005,716.377502,560.600525C719.164001,555.432007,727.265015,551,733.927673,551C738.320007,551,744.752014,554.955994,748.632874,560.045837C752.94397,565.700012,755.151978,566.625,766.560974,567.562866C773.979004,568.171997,775.03302,568.017029,779.77771,565.61261C783.130005,563.914001,786.554016,563,789.565613,563C795.578003,563,799.942993,560.838013,802.781311,556.455261C805.531982,552.20697,809.97699,549.348999,815.205017,548.465332C822.03302,547.312012,822.205994,546.507019,821.577332,518.826294C820.817993,485.414001,820.416016,478.877991,818.483704,468.5C816.52002,457.955994,812.159973,442.041992,810.743103,440.25C809.27301,438.390015,806.664001,438.733002,804.097717,441.123596C801.208984,443.815002,801.593994,448.89801,805.339966,457.5C807.469971,462.391998,807.95697,465.067993,807.976257,471.991333C807.999023,480.075989,808.171021,480.730988,811.572693,485.670074L815.145386,490.857483L813.072693,500.633484C810.590027,512.343018,810.546997,514.072021,812.548401,521.882568C815.263,532.479004,811.973999,538.872986,799.692261,546.874756C791.585022,552.156982,782.789001,555.70697,774.270813,557.133423C765.838013,558.546021,760.835999,557.35498,754.792053,552.49353C739.892029,540.508972,739.869995,540.495972,735.076294,540.575867C729.356018,540.671021,710.710999,549.984009,707.554016,554.323303C704.174011,558.969971,704.65802,570.370972,708.665405,580.5C713.22699,592.028992,716,603.812988,715.999207,611.666626C715.997986,622.40802,709.377991,634.695007,701.60376,638.383728C695.965027,641.059998,678.161987,644.27002,669.655518,644.145752C665.341003,644.083008,660.929993,644.502014,659.854248,645.078003C657.312012,646.437988,643.138977,665.479004,642.554565,668.319031C641.508972,673.400024,641.359985,690.960022,642.35437,691.954346C643.572998,693.172974,648.942993,693.322998,650.729614,692.188232z"/>
    <path transform="matrix(-0.603889,0,0,-0.603889,-490.506897,-190.693817)" style="stroke:#000000;stroke-width:0.05mm;fill:none" d="M672.462524,691.394653C673.487976,690.369019,673.825989,689.026978,673.397583,687.677307C672.109009,683.617981,672.687012,678.002991,674.613647,675.864685C677.351013,672.825989,679.388977,672.28302,692.602417,671.068909C727.015991,667.90802,731,666.388,731,656.420837C731,649.632019,735.945984,641.677979,742.200317,638.410706C748.026978,635.367004,759.797974,637.677979,764.307312,642.750793C766.5,645.218018,772.971008,659.789978,772.987793,662.299683C772.994995,663.289001,772.328003,665.398987,771.506653,666.987122C769.343018,671.171997,756.507996,675,744.642395,675C738.333008,675,734.687988,675.546021,730.816772,677.072205C725.416016,679.200989,705.223999,681.945007,694.700317,681.980469C687.73999,682.004028,683.27301,684.065979,682.367004,687.673767C681.43103,691.403015,684.210022,693.244019,690,692.732422C707.427002,691.192017,728.036011,688.619995,736.5,686.931458C742,685.833984,748.974976,684.491028,752,683.948181C760.031006,682.505981,782.29303,674.934021,783.75,673.148804C785.965027,670.434998,785.208008,664.822998,781.975464,660C780.317017,657.525024,777.369995,650.440002,775.426208,644.256531C773.111023,636.888977,771.254028,632.671021,770.040649,632.02179C768.148987,631.008972,752.950012,628.382019,742.932617,627.336548C737.401001,626.758972,737.343018,626.781006,733.907898,630.794495C732.005981,633.015991,728.138977,639.518005,725.312805,645.244446C722.22699,651.497009,719.155029,656.323975,717.621033,657.328735C715.046021,659.015991,711.213989,659.677979,687.5,662.53009C667.768005,664.903015,664.922974,667.129028,662.846252,681.812927C661.934021,688.263977,661.960022,690.247009,662.971497,691.465698C664.640991,693.47699,670.424011,693.434021,672.462524,691.394653z"/>
    <path transform="matrix(-0.603889,0,0,-0.603889,-490.506897,-190.693817)" style="stroke:#000000;stroke-width:0.05mm;fill:none" d="M608.528931,689.328247C610.473022,687.38501,609.890991,681.015991,607.426392,677.25C604.013977,672.034973,596.323975,676.169006,595.304626,683.765564C594.85498,687.117004,595.132996,687.97998,597.10907,689.363892C600.153015,691.495972,606.380981,691.476013,608.528931,689.328247z"/>
    <path transform="matrix(-0.603889,0,0,-0.603889,-490.506897,-190.693817)" style="stroke:#000000;stroke-width:0.05mm;fill:none" d="M374.221832,685.094421C397.343994,678.29303,395.988007,679.732971,396.592255,661.345581C397.149994,644.374023,396.557007,642.914001,386.140167,635.622131C379.678009,631.098999,378.381012,630.575012,373.712524,630.605042C370.752991,630.624023,364.760986,631.872009,359.849701,633.492981C351.735992,636.169983,350.963989,636.257996,347.396912,634.900024C342.473999,633.026001,338.790009,626.241028,338.189301,617.94043C337.459991,607.85199,342.095001,603.197998,356.982391,599.072083C367.359009,596.197021,368.419006,594.901001,368.848694,584.567993C369.080994,578.999023,368.675995,574.39801,367.642639,570.842651C366.002014,565.200012,355.441986,547.719971,351.87796,544.75C349.174988,542.497009,342.273987,542.442017,339.828735,544.654968C336.220001,547.921021,337.830994,550.632019,346.75769,556.323914C352.522003,559.999023,356.423004,565.690002,358.540649,573.512085C359.987,578.854004,360.098999,580.726013,359.161743,583.854492C357.548004,589.242004,355.324005,590.830994,346.968597,592.573669C342.941986,593.413025,339.269012,594.333984,338.807281,594.619141C337.179993,595.625,328.088989,609.799011,327.457336,612.314026C326.576996,615.822021,329.39801,624.98999,334.215576,634.275513C340.96701,647.289001,345.372009,649.137024,357.130066,643.886292C375.537994,635.666016,388.681,642.669006,387.782135,660.218018C387.175995,672.062988,381.42099,676.5,366.666595,676.5C358.591003,676.5,357.669006,676.703003,355.916595,678.860779C352.501007,683.067993,354.329987,689,359.043274,689C360.088013,689,366.919006,687.242004,374.221832,685.094421z"/>
    <path transform="matrix(-0.603889,0,0,-0.603889,-490.506897,-190.693817)" style="stroke:#000000;stroke-width:0.05mm;fill:none" d="M460.684906,687.925903C466.140991,685.843994,489.643005,683.041016,501.815735,683.020813C508.588989,683.008972,515.002014,682.533997,516.065735,681.964844C520.038025,679.838989,517.617981,674.041992,512.207214,672.72345C508.609985,671.846985,473,675.643005,468.083252,677.426392C463.187988,679.202026,461.121002,678.895996,458.504578,676.005066C456.891998,674.223022,456.847992,673.244995,457.976379,664.280579C458.653015,658.901001,459.835999,653.284973,460.603699,651.799683C463.113007,646.947998,462.403015,642.203003,458.600006,638.400024C454.487,634.286987,453.683014,634.205994,452.074432,637.735962C449.039001,644.39801,448.205994,684.132996,451.03006,687.536194C452.462006,689.262024,456.733002,689.434021,460.684906,687.925903z"/>
    <path transform="matrix(-0.603889,0,0,-0.603889,-490.506897,-190.693817)" style="stroke:#000000;stroke-width:0.05mm;fill:none" d="M583.606384,688.23468C584.215027,687.830994,584.948975,684.482971,585.237549,680.795837C585.846008,673.026001,588.090027,668.539001,593.054077,665.1651C596.612976,662.745972,596.520996,662.75,608.294617,664.624817C614.942017,665.684021,618.598999,659.661987,613.89502,655.404968C612.127014,653.804993,610.247986,653.504028,602.14502,653.523682C591.879028,653.549011,588.565002,654.594971,584.312927,659.154968C581.666016,661.992981,576.705994,672.544983,574.612,679.791565C573.158997,684.81897,573.18103,685.18103,575.041565,687.041565C576.995972,688.995972,581.512024,689.625,583.606384,688.23468z"/>
    <path transform="matrix(-0.603889,0,0,-0.603889,-490.506897,-190.693817)" style="stroke:#000000;stroke-width:0.05mm;fill:none" d="M562.428589,685.428589C563.437988,684.419006,564,682.06897,564,678.85907C564,668.585999,573.820007,650.893982,582.516479,645.5C587.302002,642.531006,587.505005,642.5,601.926453,642.460754C611.213989,642.435974,617.273987,641.992004,618.634644,641.237305C624.570984,637.94397,633.625,623.210999,634.71759,615.068665C635.143005,611.901001,634.840027,611.000977,632.89093,609.636108C629.841003,607.5,625.700989,607.552002,623.784363,609.75C622.945007,610.713013,622.025024,614.23999,621.738892,617.58783C620.58197,631.130981,614.611023,634.789001,597.33374,632.536438C592.585999,631.91803,589.661011,632.140015,584.623047,633.504089C578.666992,635.116028,577.414978,635.960022,570.691162,642.887756C564.932983,648.820984,562.903992,651.713013,561.493286,656C560.497986,659.025024,557.504028,665.960022,554.841431,671.411316C552.179016,676.862976,550,681.900024,550,682.604614C550,686.340027,559.38501,688.473022,562.428589,685.428589z"/>
    <path transform="matrix(-0.603889,0,0,-0.603889,-490.506897,-190.693817)" style="stroke:#000000;stroke-width:0.05mm;fill:none" d="M537.272766,684.086426C539.291992,683.31897,539.851013,682.112,540.776672,676.528625C541.559998,671.797974,543.171997,667.669006,546.370422,662.1922C551.588013,653.258972,552.601013,649.991028,551.049866,647.09314C548.47699,642.286987,540.786011,646.23999,538.967834,653.303589C536.721008,662.031006,535.703979,664.219971,531.803284,668.727234C529.596985,671.276001,527.33197,674.372009,526.769287,675.606995C524.039001,681.599976,530.369019,686.710999,537.272766,684.086426z"/>
    <path transform="matrix(-0.603889,0,0,-0.603889,-490.506897,-190.693817)" style="stroke:#000000;stroke-width:0.05mm;fill:none" d="M810.721863,676.5C814.672974,669.142029,814.781982,666.76001,811.293274,664.016052C807.575012,661.091003,804.447998,662.026978,799.25,667.620483C793.343018,673.976013,793.416992,678.036011,799.5,681.338013C804.791992,684.210999,807.119995,683.20697,810.721863,676.5z"/>
    <path transform="matrix(-0.603889,0,0,-0.603889,-490.506897,-190.693817)" style="stroke:#000000;stroke-width:0.05mm;fill:none" d="M293.788391,677.734619C297.027008,674.698975,304.752991,663.781006,306.019928,660.447571C306.782013,658.44397,306.644989,656.150024,305.49173,651.620239C303.670013,644.460022,297.44101,630.708984,295.033417,628.530273C294.114014,627.697998,289.298004,625.85498,284.329865,624.433594L275.297546,621.849426L269.178894,624.424683C261.371002,627.710999,259.520996,627.661011,252.617279,623.977356C248.473007,621.765991,246.487,621.203979,245.215332,621.884766C240.242996,624.546021,237.509995,631.518982,240.474762,633.979065C242.863007,635.960999,266.088013,636.278992,270.604156,634.392029C274.881012,632.60498,281.35199,632.611023,284.799652,634.404968C290.373993,637.304993,294.619995,643.948975,295.635559,651.357788C296.571991,658.187012,294.634003,662.455994,288.496674,667.090271C282.919006,671.302002,282,672.637024,282,676.532104C282,681.38501,289.118011,682.112,293.788391,677.734619z"/>
    <path transform="matrix(-0.603889,0,0,-0.603889,-490.506897,-190.693817)" style="stroke:#000000;stroke-width:0.05mm;fill:none" d="M415.558868,674.582703C417.276001,673.328979,417.537994,671.659973,417.828735,660.120422C418.209991,644.979004,417.191986,638.963989,412.727448,629.994446C409.505005,623.520996,409.470001,623.48999,401.497589,620.272644C393.17099,616.913025,390.446991,616.43103,388.114655,617.907959C385.084991,619.827026,387.766998,623.776001,394.946564,627.968811C402.298004,632.262024,404.985992,635.229004,406.915283,641.178894C408.290985,645.422974,408.541992,655.564026,407.507111,665.144775C406.863007,671.106995,407.006012,672.005981,408.894775,673.894775C411.36499,676.36499,412.901001,676.52301,415.558868,674.582703z"/>
    <path transform="matrix(-0.603889,0,0,-0.603889,-490.506897,-190.693817)" style="stroke:#000000;stroke-width:0.05mm;fill:none" d="M371.871887,664.894836C380.035004,662.049011,377.984985,651.97998,369.25,652.014771C359.701996,652.052002,354.71701,660.926025,362.10434,664.735229C365.085999,666.27301,367.791992,666.317017,371.871887,664.894836z"/>
    <path transform="matrix(-0.603889,0,0,-0.603889,-490.506897,-190.693817)" style="stroke:#000000;stroke-width:0.05mm;fill:none" d="M493,662.487061C500.645996,661.65802,509.572998,661.288025,513.585815,661.634399C522.268005,662.383972,524.281982,661.447021,526.506897,655.621216C527.81897,652.185974,527.940002,650.755981,527.058777,649.109802C525.552002,646.294983,522.47998,646.432983,515.499268,649.628967C508.578003,652.796997,492.553009,654.328003,481.843719,652.844421C473.752014,651.723022,471.63501,652.546997,470.018707,657.443359C469.158997,660.047974,469.164001,661.437012,470.03717,663.069458C471.040985,664.945984,471.755005,665.151001,475.348572,664.594177C477.631989,664.241028,485.575012,663.291992,493,662.487061z"/>
    <path transform="matrix(-0.603889,0,0,-0.603889,-490.506897,-190.693817)" style="stroke:#000000;stroke-width:0.05mm;fill:none" d="M755.374084,663.047852C760.55603,661.078003,760.781982,655.669983,755.872681,651.096008C753.655029,649.030029,749.710022,648.406006,746.5448,649.621155C742.518005,651.166016,740.452026,660.999023,743.75,662.919922C745.976013,664.21698,752.122009,664.283997,755.374084,663.047852z"/>
    <path transform="matrix(-0.603889,0,0,-0.603889,-490.506897,-190.693817)" style="stroke:#000000;stroke-width:0.05mm;fill:none" d="M232.397568,656.253601C234.645004,653.046997,235.389008,650.843018,235.436935,647.253601C235.496994,642.752991,235.348007,642.482971,232.651352,642.174072C230.367004,641.913025,228.949997,642.737976,225.499435,646.339233C220.352005,651.710999,218.979004,656.215027,221.604691,659.115662C224.582993,662.406006,228.884995,661.265015,232.397568,656.253601z"/>
    <path transform="matrix(-0.603889,0,0,-0.603889,-490.506897,-190.693817)" style="stroke:#000000;stroke-width:0.05mm;fill:none" d="M634.216003,658.75C635.094971,658.062988,637.468018,654.877014,639.488708,651.670471C641.51001,648.463989,645.375977,643.396973,648.081604,640.409912C651.835999,636.263977,653.000977,634.211975,653.005554,631.739441C653.015015,626.04303,654.945984,621.254028,658.487793,618.144897C661.646973,615.370972,664.838013,614.127991,676.802917,611.009399C684.169983,609.088989,684.127991,605.651978,676.515137,587.481567C674.010986,581.504028,671.682983,574.872986,671.343201,572.744934C670.939026,570.21698,671.708008,564.080017,673.564697,555.030151C677.132019,537.638,677.01001,537.26001,666.244324,532.347534C658.13501,528.64801,630.888977,521,625.815613,521C621.260986,521,619,522.661987,619,526.009521C619,530.143005,622.630981,531.737,636.098755,533.513C654.15802,535.89502,661.755005,538.690979,664.47937,543.960144C666.619019,548.096985,666.385986,551.143005,663.385498,558.271973C661.125,563.642029,660.830994,565.523987,661.215454,572.161133C661.616028,579.088013,662.060974,580.458008,665.763672,586.169312C670.572998,593.588013,671.489014,596.583984,670.080383,600.288574C668.820984,603.60199,664.531982,606.315979,656.127808,609.119141C652.622986,610.288025,648.973022,612.026978,648.017395,612.982605C647.060974,613.939026,645.716003,617.70697,645.027222,621.355896C643.43103,629.817017,638.697021,637.841003,630.975586,645.177124C624.421997,651.403015,623.471008,654.471008,627,658C629.288025,660.288025,631.901978,660.559998,634.216003,658.75z"/>
    <path transform="matrix(-0.603889,0,0,-0.603889,-490.506897,-190.693817)" style="stroke:#000000;stroke-width:0.05mm;fill:none" d="M328.25,654.802307C330.778015,651.879028,330.467987,650.262024,325.993073,643C321.781006,636.164978,320.131989,632.219971,317.514771,622.710632C315.688995,616.078003,313.257996,614.190979,308.749573,615.90509C304.778992,617.414978,304.11499,621.435974,307.007202,626.457458C312.213989,635.497986,314.229004,640.117004,316.029907,647.133606C318.738007,657.687012,323.286987,660.541992,328.25,654.802307z"/>
    <path transform="matrix(-0.603889,0,0,-0.603889,-490.506897,-190.693817)" style="stroke:#000000;stroke-width:0.05mm;fill:none" d="M797.434875,656.02478C800.948975,654.689026,800.812012,650.747009,797,643.5C792.120972,634.224976,792.864014,629.825989,800.891296,620.448364C806.245972,614.192993,813.442017,599.406006,816.498108,588.380188C817.393982,585.145996,819.481018,577.91803,821.135498,572.318115C823.52301,564.234009,823.914978,561.710022,823.036438,560.068115C821.684021,557.541016,819.734985,557.455017,815.835205,559.75C810.31897,562.997009,808.52002,567.374023,808.50946,577.57428C808.500977,586.120972,808.312012,586.934998,805.256653,591.57428C801.643982,597.060974,799.184021,602.077026,796.492676,609.443604C795.380005,612.489014,792.442993,616.799011,788.843323,620.668396C782.531982,627.453003,781.994995,629.280029,784.414856,635.729736C785.192993,637.802979,786.775024,642.742004,787.929565,646.703552C789.284973,651.354004,790.812012,654.455017,792.237183,655.453552C794.85199,657.284973,794.283997,657.223022,797.434875,656.02478z"/>
    <path transform="matrix(-0.603889,0,0,-0.603889,-490.506897,-190.693817)" style="stroke:#000000;stroke-width:0.05mm;fill:none" d="M506.771088,640.475342C515.281006,637.947998,517.520996,635.328979,519.92218,625.102783C521.065002,620.234985,522.013977,613.15802,522.030884,609.376221C522.10498,592.79303,524.671997,583.239014,531.429443,574.388672C535.427002,569.153015,536.163025,563.942993,533.345032,560.828735C529.549011,556.633972,523.810974,560.403015,521.407715,568.669556C520.521973,571.716003,518.427979,577.133972,516.7547,580.710449C513.903992,586.801025,513.663025,588.254028,512.934021,603.66449C512.26001,617.924988,511.846008,620.741028,509.828156,624.807983C506.716003,631.080017,502.152008,633.333008,492.557434,633.333313C483.980988,633.333008,480.109985,631.682983,477.698975,626.99884C475.638,622.994995,475.911011,618.666016,479.051575,605.568115C481.282013,596.265015,481.507996,589.562988,479.712219,586.013C478.890991,584.390015,475.265015,581.947021,469.272827,578.980408C455.26001,572.04303,453.641998,570.034973,448.117798,552.738037C445.622986,544.926025,445,541.252991,445,534.349121C445,525.10199,448.053009,504.936005,450.504364,497.987671C452.411011,492.584015,452.38501,491.083008,450.345001,488.828735C448.257996,486.52301,441.770996,486.367004,439.934998,488.578308C439.056,489.638,438.700012,492.678009,438.851837,497.828308C438.989014,502.472992,438.238007,509.839996,436.94696,516.5C435.302002,524.991028,434.912994,530.008972,435.242615,538.5C435.644989,548.869995,435.880005,549.890991,439.3349,556.322693C441.351013,560.075012,443.002991,564.349976,443.005585,565.822693C443.023987,574.77002,447.869995,580.463013,458.470154,583.990051C462.131989,585.208008,466.268005,587.187012,467.662018,588.385681C471.34201,591.551025,471.765015,597.646973,468.990997,607.532043C464.799988,622.466003,468.095001,637.937988,476.052673,640.693542C481.138,642.453979,500.572998,642.315979,506.771088,640.475342z"/>
    <path transform="matrix(-0.603889,0,0,-0.603889,-490.506897,-190.693817)" style="stroke:#000000;stroke-width:0.05mm;fill:none" d="M537.48468,638.418091C540.96698,636.135986,541.801025,632.434998,542.88269,614.461243C543.992004,596.018982,545.327026,591.403015,552.601257,580.853088C558.909973,571.703003,559.307007,567.783997,554.925537,557.920227C550.52002,548.004028,549.98999,540.573975,553.026917,531.338196C556.257019,521.515015,558.554993,517.320984,564.62616,510.170013C570.54303,503.200012,571.632996,498.945007,568,497C565.315002,495.562988,563.846008,496.487,555.803711,504.679291C548.791016,511.821991,547,515.008972,547,520.343323C547,522.111023,545.424988,526.843018,543.5,530.85968C538.768982,540.731018,538.737,546.291992,543.359619,555.099304C545.20697,558.619995,547.010986,562.718994,547.36853,564.209717C548.234009,567.822998,546.255005,573.237,541.409241,580.51178C535.351013,589.606018,534.853027,591.369019,533.914246,607.030701C533.310974,617.099976,532.422974,623.36499,531.021606,627.437195C529.909973,630.669006,529,634.278015,529,635.456543C529,639.866028,533.093994,641.294983,537.48468,638.418091z"/>
    <path transform="matrix(-0.603889,0,0,-0.603889,-490.506897,-190.693817)" style="stroke:#000000;stroke-width:0.05mm;fill:none" d="M561.088928,636.719055C566.013977,633.400024,566.741028,630.372009,564.598938,622.111572C561.757019,611.156006,564.169006,602.617981,575.338257,584.091064C582.221008,572.674011,582.416992,570.309021,577.468994,558.356812C571.049988,542.848999,571.65802,537.127991,581.25061,522.786316C585.531982,516.385986,588.336975,513.301025,591.631775,511.369934C595.900024,508.868988,596.593018,508.765991,604.32312,509.48175C608.820007,509.89801,616.794983,510.148987,622.044617,510.039032C628.314026,509.90799,633.794983,510.410004,638.016785,511.504333C653.093018,515.411011,667.974976,520.380981,674.455505,523.674133C679.804016,526.390991,682.22998,527.093018,684.955505,526.71051C688.497986,526.213013,704.570007,518.757019,719.321167,510.767731C726.109009,507.09201,728.119019,506.481995,734.532104,506.158508C743.862,505.687012,749.059021,507.388,757.626038,513.71405C761.190002,516.346008,765.499023,519.513,767.201294,520.75C772.361023,524.502014,778.085022,523.669983,780.602051,518.802612C781.979004,516.140991,781.973999,515.609009,780.552429,513.439697C778.927002,510.958008,777.570984,510.463013,770.188538,509.648956C766.724976,509.266998,764.85199,508.20401,760.661743,504.241425C753.504028,497.471985,748.664978,496.045013,733.996704,496.379089L722.493408,496.6409L716.011658,501.412506C708.276001,507.106995,693.091003,514.588013,687.481995,515.467468C684.164978,515.987976,679.791016,514.882996,662.398621,509.131805C650.812988,505.300995,638.671021,501.643005,635.416626,501.004395C631.700012,500.274994,621.877014,499.964996,609,500.171295C585.359985,500.549988,583.810974,500.998993,579.347961,508.755554C577.846985,511.36499,574.702026,515.974976,572.361084,519C566.715027,526.294983,563.846008,533.054016,563.251221,540.459167C562.822998,545.796997,563.205017,547.609009,566.381531,555.282104C572.059021,568.997986,571.541016,573.366028,562.684692,586.446594C556.296021,595.882019,555.205017,599.88501,554.04657,618.15033C553.476013,627.143005,553.007019,634.804993,553.004639,635.178589C552.997986,636.109985,555.961975,639,556.923523,639C557.353027,639,559.22699,637.973999,561.088928,636.719055z"/>
    <path transform="matrix(-0.603889,0,0,-0.603889,-490.506897,-190.693817)" style="stroke:#000000;stroke-width:0.05mm;fill:none" d="M682.919006,631.517944C689.252014,630.117004,695.427002,628.119995,697.093079,626.933716C700.411987,624.570007,703.512024,619.122009,704.478882,613.953491C705.383972,609.116028,702.578979,596.534973,697.810364,584.03772C692.961975,571.33197,692.16803,564.794006,694.411194,556.040283C696.932007,546.202026,699.085999,544.109985,715.029541,536.020081C736.130005,525.312988,739.958984,525.48999,755,537.867737C764.754028,545.893982,768.150024,546.948975,776.881836,544.663208C785.327026,542.453003,797.742004,535.429993,800.152527,531.5C803.742004,525.64801,801.773987,519.554993,796.492126,520.164185C794.302002,520.416992,792.481995,521.950989,789.130981,526.368042C784.119019,532.974976,780.390991,535,773.24353,535C767.491028,535,763.06897,532.911011,755.83844,526.777283C748.049011,520.169983,743.184021,518,736.158264,518C730.635986,518,728.866028,518.692017,709.902222,528.258118C694.840027,535.856018,689.260986,539.161987,688.385681,541.008118C686.245972,545.518982,682.692993,566.750977,683.325134,571.248962C683.653992,573.586975,685.937988,580.450012,688.400452,586.5C694.226013,600.809998,695.820984,609.127014,693.706116,614.172241C691.614014,619.164978,688.981995,620.612,678.791443,622.377197C674.002014,623.20697,669.169006,624.374023,668.053223,624.971497C665.098022,626.552979,664.231018,630.965027,666.543701,632.655579C669.005981,634.455994,669.921021,634.393005,682.919006,631.517944z"/>
    <path transform="matrix(-0.603889,0,0,-0.603889,-490.506897,-190.693817)" style="stroke:#000000;stroke-width:0.05mm;fill:none" d="M455.107666,630.25C455.73999,628.606018,455.903992,624.658997,455.515289,620.438721C454.980988,614.635986,455.233002,612.40802,456.931854,607.938721C459.677002,600.71698,459.600006,597.439026,456.6409,595.500366C453.152008,593.213989,451.108002,594.59198,447.886261,601.400635C443.951996,609.713989,443.622986,612.317993,445.41568,620.917603C447.625,631.513,452.730011,636.429016,455.107666,630.25z"/>
    <path transform="matrix(-0.603889,0,0,-0.603889,-490.506897,-190.693817)" style="stroke:#000000;stroke-width:0.05mm;fill:none" d="M361.140808,621.021973C363.981995,619.732971,367.700012,619.036011,371.815735,619.021973C382.468994,618.984985,384.54599,616.346008,378.600006,610.400024C373.903992,605.703979,372.490997,605.784973,355.178436,611.734741C350.016998,613.508972,348.076996,616.679993,349.818054,620.5C351.244995,623.632019,355.006989,623.804993,361.140808,621.021973z"/>
    <path transform="matrix(-0.603889,0,0,-0.603889,-490.506897,-190.693817)" style="stroke:#000000;stroke-width:0.05mm;fill:none" d="M496.342682,621.889709C500.039001,620.205994,500.998993,616.872986,501.007568,605.702942C501.018005,591.633972,502.459991,583.992981,507.061157,573.623718C509.227997,568.742004,511,563.487,511,561.946289C511,558.718018,506.997009,555,503.520142,555C499.536011,555,497.971985,557.98999,498.171234,565.222229C498.332001,571.04303,497.996002,572.330017,495.175903,576.725891C492.119995,581.487976,492,582.075989,492,592.248474C492,600.005005,491.471008,604.51001,490.012909,609.160889C487.458008,617.310974,487.496002,619.533997,490.222504,621.443298C492.871002,623.299011,493.197998,623.322021,496.342682,621.889709z"/>
    <path transform="matrix(-0.603889,0,0,-0.603889,-490.506897,-190.693817)" style="stroke:#000000;stroke-width:0.05mm;fill:none" d="M585.443298,620.777466C586.427979,619.370972,587,616.372009,587,612.612793C587,607.530029,587.599976,605.572998,591.148682,599.085327C593.429993,594.913025,597.143005,588.799988,599.398682,585.5C603.416992,579.622009,603.497009,579.335022,603.357361,571.417358C603.226013,563.978027,602.880005,562.703979,599.011108,555.417358C595.336975,548.497986,594.86499,546.890991,595.264954,542.666565C595.778015,537.247009,597.229004,535.424011,604,531.695007C609.862,528.46698,611.47998,524.617004,608.11908,521.895325C602.880005,517.653015,596.057007,520.75,590.002563,530.11731C583.661011,539.929016,583.56897,543.625,589.340759,556.807129C595.408997,570.669006,594.991028,574.888977,586.189575,588.609741C576.955994,603.005005,573.002991,615.398987,575.912231,620.835938C577.536987,623.872009,583.299988,623.836975,585.443298,620.777466z"/>
    <path transform="matrix(-0.603889,0,0,-0.603889,-490.506897,-190.693817)" style="stroke:#000000;stroke-width:0.05mm;fill:none" d="M608.491211,620.009705C609.671997,618.705017,610.507996,615.663025,610.91925,611.180603C611.650024,603.208984,613.749023,599.421021,618.545654,597.416504C623.445007,595.369019,627.302002,595.656982,634.715759,598.623169C642.223022,601.627014,649.565979,601.453979,653.98584,598.170288C657.515015,595.547974,657.799988,591.570007,654.609619,589.479858C652.416992,588.04303,651.393982,587.992004,646.532166,589.0802C641.612,590.18103,639.51001,590.059021,628.429871,588.026611C618.906982,586.280029,615.33197,585.982971,613.557495,586.79187C611.197998,587.867004,602.559021,601.226013,599.602173,608.372131C597.708984,612.947021,597.51001,619.109985,599.200012,620.799988C601.096985,622.697021,606.473022,622.23999,608.491211,620.009705z"/>
    <path transform="matrix(-0.603889,0,0,-0.603889,-490.506897,-190.693817)" style="stroke:#000000;stroke-width:0.05mm;fill:none" d="M779.666687,613.666687C785.072021,608.260986,786,606.812012,786,603.773682C786,600.122986,784.796997,599,780.88739,599C779.815002,599,776.786987,601.219971,774.158203,603.933533C768.539978,609.731995,765.502991,610.728027,758.147583,609.185303C748.56897,607.176025,745.77002,604.177979,743.545105,593.545715C742.518982,588.638977,742.387024,585.273987,743.059448,581.154907C744.223999,574.023987,743.013977,570.098022,738.404175,566.049988C734.513,562.632996,731.541016,562.200012,728.828735,564.654968C726.351013,566.89801,726.505005,568.325989,730.003906,575.507935C731.896973,579.393982,733.361023,584.460999,733.963501,589.211975C735.388,600.450989,737.929993,610.692017,739.897461,613.121704C741.296021,614.848999,744.20697,615.723022,754.571045,617.529419C773.487976,620.825989,772.328979,621.005005,779.666687,613.666687z"/>
    <path transform="matrix(-0.603889,0,0,-0.603889,-490.506897,-190.693817)" style="stroke:#000000;stroke-width:0.05mm;fill:none" d="M266.247406,613.02002C268.174011,611.505005,268.928009,609.734985,269.459351,605.479126C270.057007,600.698975,270.774994,599.278992,274.577057,595.36731C279.596985,590.203003,280.421997,586.109009,276.935303,583.667236C272.877991,580.825012,267.877991,583.83197,264.739166,591C263.654999,593.474976,260.75,598.487976,258.282349,602.14093C254.932007,607.099976,253.970993,609.33197,254.485947,610.955688C255.781006,615.034973,262.243988,616.169006,266.247406,613.02002z"/>
    <path transform="matrix(-0.603889,0,0,-0.603889,-490.506897,-190.693817)" style="stroke:#000000;stroke-width:0.05mm;fill:none" d="M295.315735,613.850281C298.26001,612.299988,298.96701,611.059998,298.98468,607.404968C299.005005,603.312012,296.162994,600.88501,290.616608,600.260254C286.78299,599.828003,285.787994,600.120972,283.576019,602.333069C280.794006,605.11499,280.106995,610.017029,282.25,611.787415C283.51001,612.828003,289.376007,614.742981,291.815735,614.90979C292.539001,614.958984,294.114014,614.482971,295.315735,613.850281z"/>
    <path transform="matrix(-0.603889,0,0,-0.603889,-490.506897,-190.693817)" style="stroke:#000000;stroke-width:0.05mm;fill:none" d="M414.428558,609.428589C416.078003,607.778992,416.480988,604.267029,415.23468,602.399719C413.822998,600.286011,410.095001,599,405.315735,598.978027C402.666992,598.966003,398.571014,598.080017,396.212372,597.010071C390.274994,594.315002,388.75,590.445984,389.598846,580.230103C390.084991,574.38501,389.868011,571.609009,388.711121,568.844543C387.869995,566.833984,386.645996,562.614014,385.993042,559.466431C385.114014,555.231018,383.828003,552.671997,381.044464,549.621887C375.963013,544.052002,375,541.947021,375,536.403625C375,533.099976,375.794006,530.320984,377.636353,527.177124C382.576996,518.745972,380.410004,511.584015,372.102936,508.889221C364.239014,506.338013,350.096008,498.903015,347.707886,496.064697C344.781006,492.587006,342.828003,487.438995,340.473145,477C339.542999,472.875,337.683014,467.15799,336.339905,464.296173C334.054993,459.425995,329.069,454,326.877808,454C325.158997,454,321.10199,458.746002,320.387177,461.593506C319.817993,463.860992,320.177002,464.731995,322.379822,466.429626C331.634003,473.561005,331.312012,473.036011,331.993927,482.106873C332.549988,489.513,333.131989,491.42099,336.94281,498.330902C339.317993,502.638,342.214996,506.559998,343.380493,507.046936C344.54599,507.533997,350.354004,509.800995,356.286346,512.085999C365.243011,515.534973,367.334991,516.747009,368.617706,519.227661C370.484985,522.838989,369.929993,525.465027,365.98288,531.688049C364.34201,534.275024,363,537.156982,363,538.091858C363,539.026978,365.713989,543.882996,369.030365,548.883972C378.682007,563.435974,379.26001,565.218018,379.765533,582C380.234985,597.59198,380.360992,597.979004,386.371246,602.26239C389.765991,604.682007,406.338013,610.669983,410.178558,610.864258C411.652008,610.939026,413.563995,610.29303,414.428558,609.428589z"/>
    <path transform="matrix(-0.603889,0,0,-0.603889,-490.506897,-190.693817)" style="stroke:#000000;stroke-width:0.05mm;fill:none" d="M317.728149,604.25C320.803009,601.48999,328,589.580017,328,587.251709C328,583.130005,322.667999,580.036987,318.972076,582.014954C317.815002,582.633972,315.992004,585.185974,314.920593,587.685242C313.848999,590.184998,312.07901,593.484985,310.986298,595.019226C308.350006,598.721985,308.445007,602.497986,311.222504,604.443298C314.075012,606.440979,315.328003,606.403992,317.728149,604.25z"/>
    <path transform="matrix(-0.603889,0,0,-0.603889,-490.506897,-190.693817)" style="stroke:#000000;stroke-width:0.05mm;fill:none" d="M434.743134,600.562683C441.846985,594.585022,442.756012,584.820007,436.266418,584.189209C433.605011,583.93103,432.30899,584.638977,428.534485,588.412903C422.362,594.585999,422.540009,599.914978,429,602.290588C431.445007,603.190002,431.718994,603.106995,434.743134,600.562683z"/>
    <path transform="matrix(-0.603889,0,0,-0.603889,-490.506897,-190.693817)" style="stroke:#000000;stroke-width:0.05mm;fill:none" d="M767.75,594.406616C769.98999,591.900024,770.775024,586.182983,769.378845,582.5448C768.531006,580.335999,763.747986,578,760.072693,578C755.650024,578,753.609009,581.575989,754.245911,588.207397C755.132996,597.434998,762.161011,600.661987,767.75,594.406616z"/>
    <path transform="matrix(-0.603889,0,0,-0.603889,-490.506897,-190.693817)" style="stroke:#000000;stroke-width:0.05mm;fill:none" d="M302.772705,587.208313C307.984985,580.997986,302.980988,574.491028,294.862793,576.922974C292.696014,577.572021,290.25,579.216003,289.30545,580.656555C287.798004,582.95697,287.774994,583.508972,289.089722,585.850769C292.261993,591.502014,298.639008,592.13501,302.772705,587.208313z"/>
    <path transform="matrix(-0.603889,0,0,-0.603889,-490.506897,-190.693817)" style="stroke:#000000;stroke-width:0.05mm;fill:none" d="M792.694153,589.501648C795.903015,587.254028,798.362,580.083008,797.080139,576.710754C796.226013,574.463989,795.440002,574,792.492615,574C787.484009,574,782.20697,576.452026,780.862244,579.402954C779.359985,582.700989,781.291992,587.546021,784.888062,589.500366C788.273987,591.341003,790.067993,591.341003,792.694153,589.501648z"/>
    <path transform="matrix(-0.603889,0,0,-0.603889,-490.506897,-190.693817)" style="stroke:#000000;stroke-width:0.05mm;fill:none" d="M418,583.084351C420.475006,580.377014,424.403992,577.000977,426.73111,575.580566C431.272003,572.809998,432.665985,569.810974,431.534271,565.25C430.77301,562.182007,427.281006,558,425.480682,558C423.540985,558,421.352997,561.205994,419.587189,566.632385C417.479004,573.112,415.748993,574.651001,408.959167,576.08252C402.078003,577.53302,401,578.426025,401,582.670715C401,585.570984,401.497986,586.31897,404.25,587.548096C409.315002,589.809998,412.92099,588.640015,418,583.084351z"/>
    <path transform="matrix(-0.603889,0,0,-0.603889,-490.506897,-190.693817)" style="stroke:#000000;stroke-width:0.05mm;fill:none" d="M648.75,576.739685C652.273987,573.963989,648.60498,568,643.373169,568C641.549011,568,635.755981,567.054016,630.500671,565.898499C619.825989,563.551025,616.458008,563.900024,614.805481,567.527588C612.838013,571.844971,615.007019,574.755981,620.697021,575.432922C623.338989,575.747009,629.325012,576.612976,634,577.357849C642.554016,578.719971,646.442993,578.557007,648.75,576.739685z"/>
    <path transform="matrix(-0.603889,0,0,-0.603889,-490.506897,-190.693817)" style="stroke:#000000;stroke-width:0.05mm;fill:none" d="M486.635437,568.316345C487.549988,564.672974,486.186005,562.89801,480.245728,560C473.132996,556.530029,470.210999,553.447021,468.454559,547.558716C464.35199,533.809998,465.69101,517.732971,471.942139,505.668823C476.535004,496.804993,476.627014,496.350006,474.345001,493.828735C472.34201,491.61499,465.779999,491.355011,464.065094,493.42157C462.709015,495.056,458.768005,511.834015,456.997986,523.513367C455.552002,533.052979,456.266998,540.575989,459.631866,551.228088C462.605011,560.640015,466.528992,565.109009,475.955109,569.819702C482.957001,573.317993,485.468994,572.965027,486.635437,568.316345z"/>
    <path transform="matrix(-0.603889,0,0,-0.603889,-490.506897,-190.693817)" style="stroke:#000000;stroke-width:0.05mm;fill:none" d="M406.035187,565.481812C412.666992,562.052979,410.906006,552,403.673767,552C397.118011,552,394.549011,559.640015,399.454559,564.545471C402.347992,567.439026,402.270996,567.427979,406.035187,565.481812z"/>
    <path transform="matrix(-0.603889,0,0,-0.603889,-490.506897,-190.693817)" style="stroke:#000000;stroke-width:0.05mm;fill:none" d="M652.618774,555.459045C653.958008,553.416016,654.062012,552.432007,653.154114,550.438965C651.645996,547.129028,649.466003,546.442017,636.437683,545.169983C629.692017,544.510986,623.513977,543.291992,620.604736,542.044922C614.60199,539.471985,611.539978,539.460022,609,542C606.619019,544.380981,606.5,546.132996,608.463013,549.928467C610.39801,553.669983,611.758972,554.070007,620.289795,553.407654C626.090027,552.95697,629.258972,553.330017,636.5,555.316406C648.450989,558.594971,650.552002,558.612976,652.618774,555.459045z"/>
    <path transform="matrix(-0.603889,0,0,-0.603889,-490.506897,-190.693817)" style="stroke:#000000;stroke-width:0.05mm;fill:none" d="M278.371185,548.962524C285.59201,547.291992,292.722992,545.442993,294.216736,544.85498C297.587006,543.528015,298.552002,540.747009,296.969452,536.92627C295.394012,533.122986,291.36499,533.01001,285.245453,536.596313C278.585999,540.499023,275.812012,541.007996,269.370331,539.510925C263.694,538.190979,263.647003,538.198975,260.882263,540.963867C257.927002,543.919006,256.411011,548.02301,257.360779,550.497742C258.231995,552.767029,263.631989,552.372986,278.371185,548.962524z"/>
    <path transform="matrix(-0.603889,0,0,-0.603889,-490.506897,-190.693817)" style="stroke:#000000;stroke-width:0.05mm;fill:none" d="M493.377045,548.776917C494.221008,547.429016,493.768005,545.658997,491.295319,540.644653C489.557007,537.119995,487.834991,532.638977,487.469391,530.688477C486.472992,525.375,488.613007,517.286011,492.944092,510C496.052002,504.772003,497.054993,501.78299,498.068481,494.72644L499.329041,485.952881L496.559326,483.061951C491.937012,478.237,482.109009,474.17099,465.819794,470.344818C446.726013,465.859985,428.221008,464.584991,424.966278,467.530518C422.428986,469.826996,422.467987,473.053986,425.072571,476.365143C427.584015,479.557007,430.804993,479.725006,436.859192,476.978027C442.839996,474.264008,447.446991,474.540009,454.474548,478.031372C459.380005,480.468994,461.705994,481.002014,467.474548,481.009766C472.747009,481.016998,475.747986,481.605988,479.5,483.368042C490.362,488.470001,491.118011,492.532013,483.898773,507C478.822998,517.171021,478.645996,517.812988,478.225372,527.505554C477.696991,539.68103,478.929993,544.921997,483.158539,548.479919C486.713013,551.471008,491.60199,551.612976,493.377045,548.776917z"/>
    <path transform="matrix(-0.603889,0,0,-0.603889,-490.506897,-190.693817)" style="stroke:#000000;stroke-width:0.05mm;fill:none" d="M527,549C531.283997,544.716003,528.919006,540.539978,521.316528,538.961914C517.468018,538.163025,514.71698,536.870972,512.813477,534.967285C510.173004,532.325989,510,531.63501,510,523.699341C510,514.629028,508.880005,512.268982,505.137451,513.45636C499.703003,515.18103,497.621002,525.348999,500.914734,534.085266C503.324005,540.476013,505.138,542.39502,513.5,547.402161C520.281982,551.463013,524.086975,551.913025,527,549z"/>
    <path transform="matrix(-0.603889,0,0,-0.603889,-490.506897,-190.693817)" style="stroke:#000000;stroke-width:0.05mm;fill:none" d="M326.298523,549.076599C331.613007,547.05603,330.467987,542.531006,323.62851,538.522461C318.436005,535.47998,316.472992,533.364014,315.66272,529.939087C314.540009,525.195984,316.923004,519.794006,322.610535,514.18573C328.144012,508.730011,329.125,505.970001,326.964813,501.934265C325.45401,499.110992,320.825989,499.446991,317.664124,502.608612C314.604004,505.669006,305,523.091003,305,525.582397C305,527.093994,307.119995,533.849976,310.246582,542.29718C311.25,545.007996,314.832001,547.495972,319.99353,549.065674C323.450012,550.117004,323.561005,550.117004,326.298523,549.076599z"/>
    <path transform="matrix(-0.603889,0,0,-0.603889,-490.506897,-190.693817)" style="stroke:#000000;stroke-width:0.05mm;fill:none" d="M422.970306,547.535767C423.838013,546.48999,423.98999,543.703003,423.50177,537.785767C422.967987,531.31897,423.277008,527.127991,424.908997,518.699219C427.235992,506.678009,427.707001,491.106995,425.799988,489.200012C423.699005,487.098999,419.303986,487.798004,417.1138,490.582458C413.876007,494.699005,413.714996,496.634003,416.034393,503.603333C418.436005,510.821014,418.264008,513.356995,414.868744,520.75C412.325989,526.286987,411.468994,532.976013,412.458221,539.569946C413.559998,546.919983,419.651001,551.534973,422.970306,547.535767z"/>
    <path transform="matrix(-0.603889,0,0,-0.603889,-490.506897,-190.693817)" style="stroke:#000000;stroke-width:0.05mm;fill:none" d="M399,542C401.477997,539.521973,401.667999,533.39502,399.345001,530.828735C397.174011,528.429993,390.859985,528.382996,388.747925,530.75C384.322998,535.708008,387.609985,544,394,544C395.666992,544,397.889008,543.111023,399,542z"/>
    <path transform="matrix(-0.603889,0,0,-0.603889,-490.506897,-190.693817)" style="stroke:#000000;stroke-width:0.05mm;fill:none" d="M354.171265,530.345032C358.476013,526.450012,355.625,523.122986,345.392181,520.099731C336.309998,517.416992,334.875,517.458984,331.583435,520.510254C328.056,523.778992,328.263,528.83197,332,530.712463C335.895996,532.672974,351.891998,532.40802,354.171265,530.345032z"/>
    <path transform="matrix(-0.603889,0,0,-0.603889,-490.506897,-190.693817)" style="stroke:#000000;stroke-width:0.05mm;fill:none" d="M530.945496,529.029175C533.124023,527.862976,536,521.075989,536,517.102234C536,513.953979,534.552979,512.307007,531.5,511.982422C524.281982,511.214996,521,513.817017,521,520.308899C521,524.820984,522.15802,527.017029,525.5,528.845276C528.004028,530.215027,528.687012,530.237976,530.945496,529.029175z"/>
    <path transform="matrix(-0.603889,0,0,-0.603889,-490.506897,-190.693817)" style="stroke:#000000;stroke-width:0.05mm;fill:none" d="M279.783234,526.636536C282.377014,525.336975,286.121002,523.749023,288.102936,523.107483C292.80899,521.585022,294.709991,519.335999,300.450989,508.5C306.894012,496.338989,309.272003,493.403015,315.045013,490.477173C321.069,487.424011,322.242004,484.355988,319.406097,479.059998C317.186005,474.914001,313.80899,473.958008,310.848236,476.63736C308.076996,479.144989,298.97699,492.285004,292.984314,502.430389C287.618011,511.515991,283.976013,514.515015,275.182068,517.092041C266.192993,519.726013,263.897003,529,272.233246,529C273.791992,529,277.188995,527.935974,279.783234,526.636536z"/>
    <path transform="matrix(-0.603889,0,0,-0.603889,-490.506897,-190.693817)" style="stroke:#000000;stroke-width:0.05mm;fill:none" d="M403.545441,517.545471C406.248993,514.84198,406.964996,508.36499,404.799988,506.200012C401.542999,502.942993,390.858002,507.082001,390.169647,511.866821C389.641998,515.536011,394.423004,519.765015,399.295441,519.936584C400.28299,519.971008,402.195007,518.89502,403.545441,517.545471z"/>
    <path transform="matrix(-0.603889,0,0,-0.603889,-490.506897,-190.693817)" style="stroke:#000000;stroke-width:0.05mm;fill:none" d="M798.032104,508.982819C800.020996,507.917999,803,499.545013,803,495.018494C803,489.841003,797.965027,488.242004,794.279297,492.25C791.000977,495.815002,788.007996,501.299011,788.003723,503.75C787.995972,508.451996,793.580017,511.365997,798.032104,508.982819z"/>
    <path transform="matrix(-0.603889,0,0,-0.603889,-490.506897,-190.693817)" style="stroke:#000000;stroke-width:0.05mm;fill:none" d="M520.4245,501.762329C524.377014,499.766998,526.994995,499.743011,538.239136,501.599121C541.86499,502.197998,542.273987,501.936005,551.739136,492.986877C562.664978,482.656006,564.984009,479.669006,564.993408,475.910522C565.000977,472.890015,561.760986,471,556.575378,471C552.567993,471,551.096985,472.563995,550.310547,477.660767C549.049011,485.829987,545.906006,488.891998,536.652832,490.965759C533.221985,491.734985,530.179993,491.618011,524.30072,490.493042C514.260986,488.571991,513.39502,488.605011,511,491C508.475006,493.524994,508.235992,501.092987,510.605377,503.462524C512.377014,505.234009,514.156982,504.925995,520.4245,501.762329z"/>
    <path transform="matrix(-0.603889,0,0,-0.603889,-490.506897,-190.693817)" style="stroke:#000000;stroke-width:0.05mm;fill:none" d="M698,499.353821C706.671021,494.815002,713.883972,489.428009,714.927307,486.71225C715.39502,485.496002,716.234009,481.481995,716.791382,477.794434C717.573975,472.617004,719.242004,468.437988,724.107727,459.459259C729.45697,449.588013,731.247986,447.196014,735.955078,443.638397C740.473022,440.222992,742.241028,437.950012,745.5,431.364899C750.588989,421.082001,752.419006,418.593994,763.453064,406.963257C768.429016,401.717987,774.179993,395.34201,776.2323,392.793976C778.77301,389.640991,781.966003,387.214996,786.2323,385.197968C790.976013,382.954987,793.338013,381.050995,795.946655,377.367218C797.84198,374.690002,802.361023,369.350006,805.987915,365.5C809.61499,361.649994,814.335022,356.25,816.47644,353.5C818.617981,350.75,822.700989,346.01001,825.548889,342.967133C833.416016,334.562012,833.629028,331.269012,826.554016,327.459167C821.192993,324.571991,820.523987,325.149994,814.928223,337.5C812.073975,343.799988,809.494019,346.790985,789.128296,367.415314C776.682983,380.019012,763.023987,393.743988,758.775513,397.915314C750.54303,405.998993,740.015015,419.127991,736.922363,425.166138C735.890015,427.183014,732.723022,431.458008,729.884644,434.666138C721.898987,443.694,713.560974,457.001007,710.471924,465.648621C708.929016,469.96701,706.807007,475.869995,705.755798,478.765594C702.383972,488.054993,696.648987,493,689.246704,493C682.562988,493,659.286011,487.088013,650.711975,483.211975L642.5,479.5L609.510498,479.186646C576.664978,478.875,576.513,478.882996,574.760498,481.047424C572.536987,483.794006,572.494995,488.35199,574.674011,490.531158C576.481018,492.338989,578.23999,492.20401,587.953552,489.516449C592.411011,488.28299,597.432007,488.122009,615.453552,488.632782L637.5,489.258087L659,496.045654C670.825012,499.778992,681.400024,503.041992,682.5,503.297791C686.138977,504.143005,691.416016,502.799988,698,499.353821z"/>
    <path transform="matrix(-0.603889,0,0,-0.603889,-490.506897,-190.693817)" style="stroke:#000000;stroke-width:0.05mm;fill:none" d="M387.299652,498.25C389.059998,497.287994,393.187988,495.600006,396.47287,494.5C402.140015,492.60199,402.716003,492.095001,407.72287,484.59198C415.276001,473.27301,414.919006,467,406.720734,467C403.31601,467,401.251007,469.729004,399.904175,476.011169C399.122009,479.65799,397.828003,482.291992,395.963654,484.033966C391.115997,488.562988,381.917999,490.227997,374.899231,487.847046C366.915009,485.139008,364.122009,481.177002,359.497162,466C356.781006,457.084991,348.598999,441.434998,344.204742,436.75C340.834991,433.156006,336.843994,433.110992,334.072571,436.634857C332.933014,438.084015,332,440.529999,332,442.071381C332,444.427002,332.834991,445.321014,337.25,447.686523C341.782013,450.11499,342.936005,451.390015,345.68811,457.004425C347.441986,460.582001,350.20401,468.395996,351.827972,474.368408C353.450989,480.341003,355.662994,486.414001,356.743225,487.863983C358.895996,490.753998,377.942993,499.971985,381.799652,499.989471C383.063995,499.994995,385.539001,499.212006,387.299652,498.25z"/>
    <path transform="matrix(-0.603889,0,0,-0.603889,-490.506897,-190.693817)" style="stroke:#000000;stroke-width:0.05mm;fill:none" d="M776.467346,498.374146C777.364014,498.029999,779.421021,495.127991,781.03717,491.9263C782.690002,488.653015,785.585999,484.877991,787.654175,483.302155C795.429993,477.377991,796,476.511993,796,470.613678C796,467.002991,794.978027,462.364014,793,457C787.747986,442.756989,789.56897,434.727997,798.789856,431.471466C809.22998,427.783997,807.5,430.820007,813.466003,405.720428C815.39801,397.59201,817.648987,389.644989,818.468445,388.061066C822.083008,381.070007,841.388977,357.80899,857.111633,341.5C871.090027,327,870.999023,327.199005,871.005676,311.110443C871.010986,299.292999,869.961975,284.153992,868.383179,273.262146C867.791992,269.186005,865.239014,267.778015,859.966492,268.621338C851.849976,269.919006,851.002991,273.894989,857.10968,282.023315L861.219421,287.492828L860.544495,296.120453C860.106995,301.718994,860.307983,306.869995,861.117798,310.791473C863.286987,321.295013,859.892029,327.70401,848.731201,334.175079C845.612,335.984009,843.406006,338.243988,841.920959,341.154877C840.713013,343.522003,837.164978,348.169006,834.03656,351.479828C830.90802,354.790985,826.301025,360.200012,823.798035,363.5C821.294983,366.799988,816.213989,372.875,812.506897,377C804.536011,385.868988,803.643982,387.838013,804.592346,394.479065C805.682007,402.109985,805.13501,406.998993,802.57666,412.5C799.840027,418.384003,798.31897,420.063995,789.009033,427.492767C777.997986,436.278015,776.85498,440.493011,782,453.341034C785.479004,462.028015,785.997986,470.071014,783.337036,474.027496C782.421997,475.386993,778.596985,479.714996,774.837036,483.643433C767.359009,491.455994,766.281006,494.682007,770.222534,497.443298C772.640991,499.138,773.963989,499.334991,776.467346,498.374146z"/>
    <path transform="matrix(-0.603889,0,0,-0.603889,-490.506897,-190.693817)" style="stroke:#000000;stroke-width:0.05mm;fill:none" d="M757.028015,486.985016C758.070984,486.427002,760.367004,483.838989,762.130432,481.235016C763.893982,478.631012,767.060974,474.597992,769.168213,472.272339C773.810974,467.149994,774.109985,463.584991,770.599487,455.219879C769.278992,452.074005,767.687012,447.587006,767.060974,445.25C764.79303,436.778992,769.093994,429.147003,782.277771,418.246307C786.437988,414.807007,790.776978,410.479004,791.920715,408.628296C794.065002,405.160004,794.63501,399.550995,793.092041,397.114655C791.677002,394.880005,787.369995,396.623993,784.284302,400.681641C782.752991,402.695007,777,409.118988,771.5,414.956573C760.869995,426.23999,755,435.528015,755,441.066803C755,443.203003,756.254028,446.174988,758.583313,449.556458C764.258972,457.798004,763.388977,465.526001,756,472.5C749.898987,478.257996,748.406006,483.769989,752.222534,486.443298C754.856018,488.287994,754.638977,488.263,757.028015,486.985016z"/>
    <path transform="matrix(-0.603889,0,0,-0.603889,-490.506897,-190.693817)" style="stroke:#000000;stroke-width:0.05mm;fill:none" d="M736.737549,484.471252C738.01001,483.579987,739.182007,481.391998,739.547424,479.221252C740.614014,472.894989,741.044006,472.016998,745.588379,466.900482C750.429016,461.450989,751.338989,457.135986,748.345032,453.828735C746.263,451.528015,743.807983,451.501007,741.163147,453.75C738.844971,455.721008,729.361023,473.252991,727.948486,478.179688C726.174988,484.362,731.476013,488.157013,736.737549,484.471252z"/>
    <path transform="matrix(-0.603889,0,0,-0.603889,-490.506897,-190.693817)" style="stroke:#000000;stroke-width:0.05mm;fill:none" d="M538.363647,477.363647C541.289001,474.438995,541.726013,471.846985,539.592773,470.077026C538.81897,469.434998,533.296997,468.511993,527.321594,468.026154C515.70697,467.082001,508.864014,465.040985,498.5,459.428558C487.330994,453.381012,464.904999,447.255005,445.439606,444.935303C437.425995,443.980011,432.847992,444.002991,422.939606,445.045166C403.68399,447.071014,400.636993,446.946014,397.485046,444C396.014008,442.625,394.234009,440.375,393.529694,439C391.157013,434.368011,388.065002,416.644012,385.504822,393C381.720001,358.048004,379.052002,337.265991,377.992737,334.480896C376.958008,331.76001,376.597992,331.645996,369.920959,331.950256C366.261993,332.117004,364.721008,331.635986,362.24881,329.555908C358.201996,326.151001,356.998993,320.697998,356.057343,301.489899C355.259003,285.208008,353.903015,280.355988,349.488831,277.994019C347.490997,276.924988,346.782013,276.936005,345.430847,278.057404C343.48999,279.667999,343.692993,283.605988,346.90567,306.675201C350.266998,330.812012,353.884003,340,360.025085,340C364.230011,340,368.729004,341.937012,370.381409,344.459351C372.661011,347.938995,374.300995,363.018005,373.752197,375.448273C373.31601,385.308014,373.51001,387.117004,375.550537,392.222107C378.30899,399.126007,378.678009,402.450012,377.649841,411.142212C376.93399,417.190002,377.192993,418.845001,380.538361,429.642212C384.769012,443.294006,389.183014,452.282013,392.987366,454.990997C395.489014,456.772003,396.537994,456.816986,411.07132,455.768219C437.365997,453.869995,447.532013,454.294006,463.268402,457.940674C485.007996,462.979004,494.639008,466.684998,503.423401,473.389679C507.196014,476.269989,508.733002,476.76001,515.652283,477.293671C520.005005,477.628998,524.676025,478.346985,526.03302,478.88858C530.773987,480.781006,535.534973,480.191986,538.363647,477.363647z"/>
    <path transform="matrix(-0.603889,0,0,-0.603889,-490.506897,-190.693817)" style="stroke:#000000;stroke-width:0.05mm;fill:none" d="M388.297729,473.81369C390.006012,471.515991,390.123993,470.720001,389.111023,468.31369C388.459991,466.765991,386.171997,464.253998,384.02652,462.73056C379.391998,459.438995,375.662994,452.109009,370.030701,435.217133C367.927002,428.90799,365.596985,423.359009,364.852905,422.887909C362.704987,421.527008,360.403015,421.852997,357.910797,423.871155C354.906006,426.303986,354.841003,431.563995,357.765411,435.670563C361.326996,440.671997,368.56601,455.951996,371.411926,464.475494C374.802002,474.628998,377.084991,477.196014,382.368347,476.796844C385.266998,476.578003,386.825012,475.794006,388.297729,473.81369z"/>
    <path transform="matrix(-0.603889,0,0,-0.603889,-490.506897,-190.693817)" style="stroke:#000000;stroke-width:0.05mm;fill:none" d="M345.427063,423.430084C347.940002,420.916992,348.308014,417.444,346.605499,412.298096C343.048004,401.542999,343.661011,392.515991,348.23877,388.274292C349.481995,387.122009,352.313995,385.697998,354.530884,385.109863C362.302002,383.049011,362.460999,382.72699,362.826538,368.230682C363.102997,357.26001,362.903015,355.04599,361.505096,353.647949C359.044006,351.187012,356.102997,351.600006,354.97525,354.565094C354.438995,355.976013,354,360.946014,354,365.610565C354,373.281006,353.765991,374.325012,351.545441,376.545441C349.53299,378.558014,348.097992,379,343.580627,379C339.156006,379,337.865997,379.381012,337.035187,380.934265C336.423004,382.078003,336,390.837006,336,402.362823C336,418.752014,336.25,422.106995,337.571442,423.428558C339.585999,425.442993,343.412994,425.444,345.427063,423.430084z"/>
    <path transform="matrix(-0.603889,0,0,-0.603889,-490.506897,-190.693817)" style="stroke:#000000;stroke-width:0.05mm;fill:none" d="M365.964813,411.065735C367.347992,408.480988,367.281006,400.710999,365.848236,397.566284C362.070007,389.273987,352.690002,397.794006,356.003265,406.508575C358.380005,412.760986,363.743988,415.214996,365.964813,411.065735z"/>
    <path transform="matrix(-0.603889,0,0,-0.603889,-490.506897,-190.693817)" style="stroke:#000000;stroke-width:0.05mm;fill:none" d="M342.359833,366.75C343.15799,365.472992,344.036987,360.347992,344.392822,354.895508C344.955994,346.265015,344.77301,344.635986,342.588928,338.83252C340.138,332.321014,337.964996,321.309998,334.011932,295.369507C331.570007,279.342987,331.940002,276.07901,336.957428,269.447937C340.729004,264.462006,341.002991,259.277008,337.696198,255.433212C335.756012,253.177002,334.890991,252.865005,332.208405,253.454224C326.860992,254.628998,325.001007,258.09201,324.994202,266.884857C324.990997,271.072998,324.545013,277.200012,324.002777,280.5C322.895996,287.237,324.347992,298.003998,330.477539,328.5C332.356995,337.850006,334.20401,349.774994,334.582245,355C335.399994,366.286987,336.246002,369,338.952209,369C340.053009,369,341.587006,367.987,342.359833,366.75z"/>
    <path transform="matrix(-0.603889,0,0,-0.603889,-490.506897,-190.693817)" style="stroke:#000000;stroke-width:0.05mm;fill:none" d="M847.685547,320.825684C852.721008,316.096008,849.551025,309,842.403198,309C840.669983,309,837.35498,308.330994,835.036133,307.512756C830.03302,305.747009,827.357971,306.726013,826.364563,310.683655C825.461975,314.278992,826.541992,315.605988,833.5,319.451233C840.69397,323.427002,844.520996,323.798004,847.685547,320.825684z"/>
    <path transform="matrix(-0.603889,0,0,-0.603889,-490.506897,-190.693817)" style="stroke:#000000;stroke-width:0.05mm;fill:none" d="M376.42868,319.157623C377.345001,316.148987,376.757996,281.540009,375.75766,279.608551C375.218994,278.567993,372.812012,275.186005,370.409729,272.091736C365.34201,265.56601,357.13501,246.201004,354.59082,234.76355C353.669006,230.621994,352.147003,226.574005,351.207764,225.768768C348.539001,223.479996,346.343994,223.028,344.487061,224.385788C343.053986,225.434006,342.839996,226.987,343.156525,234.067108C343.505005,241.869003,343.80899,242.895004,347.209808,247.779587C349.600006,251.212006,351.110992,254.710999,351.527222,257.779602C352.539001,265.234009,352.910004,265.957001,358.498108,271.376404C365.602997,278.266998,367,283.056,367,300.532288C367,307.774994,367.473999,315.061005,368.052765,316.721497C369.709015,321.471008,375.234985,323.07901,376.42868,319.157623z"/>
    <path transform="matrix(-0.603889,0,0,-0.603889,-490.506897,-190.693817)" style="stroke:#000000;stroke-width:0.05mm;fill:none" d="M847.799988,296.799988C849.900024,294.700012,849.104004,291.312988,845.493286,286.991974C841.195007,281.846985,840.567993,279.536011,841.421631,271.990051C841.974976,267.095001,841.72998,265.390991,839.976563,261.954102C838.815002,259.677002,837.286987,254.817993,836.581604,251.157043C834.810974,241.970001,829.469971,229.664993,825.022766,224.526306C822.979004,222.164993,820.297974,218.600006,819.064392,216.604218C816.369995,212.244003,814.276001,211,809.630859,211C804.614014,211,801.218018,209.455994,796.332886,204.952713C793.481018,202.324005,791.116028,201.001999,789.272339,201.005569C784.781982,201.014999,779.247986,202.912003,778.571228,204.674988C777.151978,208.373993,786.830994,214.949997,797.590759,217.597885C813.919006,221.615997,817.739014,226.128998,825.868225,251.004211C830.56897,265.389008,832.330017,275.958008,831.39856,284.194031C830.513,292.018005,832.030029,295.537994,836.838867,296.818329C842.039978,298.203003,846.403992,298.196014,847.799988,296.799988z"/>
    <path transform="matrix(-0.603889,0,0,-0.603889,-490.506897,-190.693817)" style="stroke:#000000;stroke-width:0.05mm;fill:none" d="M865.799988,256.799988C867.27301,255.326996,867.375,248.569,865.964844,245.934265C864.768005,243.699005,861.606995,243.466003,855.616028,245.172516C849.617004,246.882004,847.715027,248.815002,848.433899,252.47702C848.76001,254.139999,849.781982,256.062988,850.70459,256.75C852.851013,258.348999,864.213013,258.386993,865.799988,256.799988z"/>
    <path transform="matrix(-0.603889,0,0,-0.603889,-490.506897,-190.693817)" style="stroke:#000000;stroke-width:0.05mm;fill:none" d="M328.365143,243.927414C330.471985,242.270004,331,241.005005,331,237.611084C331,235.276993,331.463989,230.858002,332.030762,227.791458C333.020996,222.432999,332.920013,221.929001,329.435181,214.857803C327.44101,210.811005,325.063995,205.936996,324.154419,204.026047C322.944,201.483994,320.907013,199.740005,316.565369,197.526047C310.765991,194.569,310.287994,194.498001,295.565369,194.422821C287.278992,194.380005,278.436005,194.026001,275.912262,193.63588C270.367004,192.778,266,194.192993,266,196.847885C266,199.585999,274.105011,206.651993,278.891632,208.085678C282.743011,209.240005,283.36499,209.113998,289.690002,205.905075C300.274994,200.535004,309.631012,202.033997,316.528839,210.206146C323.550995,218.524994,324.763,226.843994,319.981812,233.900482C318.34201,236.320999,317,238.712997,317,239.216217C317,241.167007,319.230011,244.153,321.315369,244.993027C324.608002,246.320007,325.494995,246.184998,328.365143,243.927414z"/>
    <path transform="matrix(-0.603889,0,0,-0.603889,-490.506897,-190.693817)" style="stroke:#000000;stroke-width:0.05mm;fill:none" d="M855.5,234.133514C864.887024,231.776993,865.478027,230.569,863.439087,217.910904C862.60498,212.735001,861.041016,204.154007,859.961609,198.842911C858.882996,193.531998,858,188.951004,858,188.664352C858,187.119995,854.473999,185,851.903809,185C846.221008,185,846.228027,193.244995,851.922241,207.464722C853.61499,211.692001,855,216.141998,855,217.353058C855,220.755997,852.187988,223.990005,847.474426,226.010956C842.810974,228.009995,841.260986,230.751007,842.979797,233.962234C844.29303,236.416,846.299011,236.444,855.5,234.133514z"/>
    <path transform="matrix(-0.603889,0,0,-0.603889,-490.506897,-190.693817)" style="stroke:#000000;stroke-width:0.05mm;fill:none" d="M309.799988,230.800003C310.459991,230.139999,311,227.619995,311,225.199997C311,221.529007,310.436005,220.235992,307.600006,217.399994C305.296997,215.097,303.265015,214,301.299988,214C296.020996,214,294.65799,217.438004,297.614166,223.299667C301.255005,230.518005,306.718994,233.880997,309.799988,230.800003z"/>
    <path transform="matrix(-0.603889,0,0,-0.603889,-490.506897,-190.693817)" style="stroke:#000000;stroke-width:0.05mm;fill:none" d="M841.405151,215.805374C842.16803,213.623993,841.742981,211.800003,839.173584,206.225632C835.570984,198.410995,835.437012,197.186996,837.450012,190.499802C839.187988,184.723999,838.307007,182.445999,833.967346,181.492828C829.638977,180.542007,828.364014,182.106995,827.642578,189.259445C827.296021,192.692001,826.72998,197.841003,826.383728,200.702789C825.846008,205.151993,826.122009,206.528,828.292664,210.202789C832.192017,216.804001,834.801025,219.160004,837.824097,218.807495C839.64502,218.595001,840.755005,217.664993,841.405151,215.805374z"/>
    <path transform="matrix(-0.603889,0,0,-0.603889,-490.506897,-190.693817)" style="stroke:#000000;stroke-width:0.05mm;fill:none" d="M814.33606,197.75C815.096008,196.511993,816.315002,192.179993,817.043762,188.121597C818.286011,181.205002,818.252014,180.656998,816.49353,179.371597C810.283997,174.830994,804,181.656006,804,192.942825C804,199.035004,811.424988,202.488998,814.33606,197.75z"/>
</svg>
