<?xml version="1.0" encoding="UTF-8"?>
<svg xmlns="http://www.w3.org/2000/svg" width="400.000mm" height="226.545mm" viewBox="-1386.941406 -696.842285 400.000122 226.545349">
    <path transform="matrix(-0.410697,0,0,-0.410697,-976.961914,-373.370697)" style="stroke:#000000;stroke-width:0.05mm;fill:none" d="M614.5,787.047607C613.400024,786.548767,610.561768,786.108948,608.19281,786.070313C605.823853,786.031616,601.998901,785.590637,599.69281,785.090332C597.38678,784.590027,592.349976,783.645935,588.5,782.992371C577.191711,781.072754,567.050964,778.442505,541.5,770.80188C536,769.157227,524.525024,765.615234,516,762.930847C507.475006,760.246521,498.024994,757.333618,495,756.457764C474.215454,750.43988,462.144623,747.245483,455,745.872131C451.975006,745.290649,447.475006,744.394958,445,743.881714C430.471405,740.868774,396.771698,738.747131,388,740.293091C385.524994,740.729309,379.450012,741.50885,374.5,742.025391C369.549988,742.541931,363.024994,743.386658,360,743.902588C353.913361,744.940735,343.18512,746.722778,335.5,747.97229C330.948151,748.712402,325.641205,749.730225,314.5,752C312.299988,752.448181,307.799988,753.348206,304.5,754C301.200012,754.651794,296.475006,755.595337,294,756.09668C291.524994,756.598083,286.575012,757.492249,283,758.083801C279.424988,758.675354,274.024994,759.573669,271,760.080078C265.114349,761.065369,256.650177,762.295166,243,764.148193C227.625183,766.235413,198.120636,765.454102,186.5,762.652039C185.399994,762.386841,181.800003,761.640503,178.5,760.99353C175.199997,760.346558,168.899994,758.999451,164.5,758C160.100006,757.000549,153.800003,755.643494,150.5,754.984375C147.199997,754.325256,143.375,753.429932,142,752.994812C140.625,752.559692,136.125,751.658936,132,750.993164C112.710709,747.879761,108.186699,744.602356,87.735741,718.926147C83.10363,713.110474,77.446083,705.685486,75.163414,702.426147C72.880753,699.166748,66.509727,690.424988,61.005581,683C36.988911,650.601868,30.017275,638.389893,27.038052,623.5C26.377775,620.200012,25.362583,615.57666,24.78207,613.225891C23.382036,607.55658,25.139528,592.043945,28.433079,581C29.335201,577.974976,30.759542,571.900024,31.59828,567.5C33.558769,557.215332,35.291512,516.771423,33.976074,512C33.445366,510.075012,33.008644,505.614563,33.005577,502.087891C33.00251,498.561218,32.242821,493.273743,31.317377,490.337891C29.757788,485.39032,29.753082,484.616119,31.253017,479.75C32.143063,476.862488,33.179131,469.774994,33.555393,464C34.025326,456.787292,34.72015,452.952118,35.774738,451.75C38.072258,449.131073,42.226917,449.572327,45.190723,452.75C49.648853,457.529846,50.101082,458.884613,53.118641,476.5C54.20369,482.834106,53.642906,495.289124,52.040859,500.437592C45.512611,521.417236,41.821926,572.111511,46.704556,573.735657C47.397621,573.966248,49.679455,570.604187,52.078236,565.818176C57.676277,554.649048,62.93861,546.061584,78.084114,523.379883C91.577316,503.172668,100.29258,487.136169,102.603943,478.262238C103.371773,475.314331,104,468.638153,104,463.426239C104,454.523743,103.780136,453.512665,100.368202,446.725037C98.370705,442.751251,95.493607,437.688538,93.97464,435.474548C91.035507,431.190521,86.817139,424.236359,81.288033,414.560089C75.856812,405.055145,72,392.046936,72,383.233582C72,379.107727,72.418312,374.104828,72.929573,372.116028C73.440842,370.127197,74.375626,365.799988,75.006882,362.5C75.63813,359.200012,76.823593,354.024994,77.641243,351C78.4589,347.975006,79.795776,342.799988,80.612083,339.5C81.428391,336.200012,82.994545,330.350006,84.092422,326.5C85.1903,322.649994,86.976166,316.350006,88.061012,312.5C91.120445,301.642456,96.159546,284.802704,97.280815,281.689117C100.16127,273.690552,113.857231,268.505524,138.5,266.08432C143.449997,265.597961,148.437698,264.817535,149.583771,264.350037C151.853088,263.424316,156.261566,258.606506,160.115784,252.840134C163.516998,247.751511,173.736496,240.326981,180.58075,237.972214C185.580383,236.25209,189.009323,236.000549,207.406555,236.004288L228.5,236.00856L233,239C235.475006,240.645294,238.001816,241.993362,238.615143,241.995712C239.22847,241.998077,240.958923,242.966446,242.460602,244.147675C246.64624,247.440094,245.385788,250.797699,236.760101,259.332825C232.767044,263.283966,227.925003,267.597961,226,268.919434C224.074997,270.240936,216.106094,277.748993,208.291306,285.604004C196.829926,297.12442,193.395889,301.249542,190.530914,306.938629C183.033188,321.827118,181.775101,330.639191,183.812027,354C185.712387,375.794556,190.127441,384.9664,206.19574,400.5C212.453995,406.549988,220.032654,413.410828,223.037186,415.746277C238.841995,428.031433,242.460754,431.147552,253.5,441.977875C265.812775,454.057587,271.597595,458,277.009827,458C281.824158,458,284.993347,455.818939,294.129974,446.217926C299.592957,440.477295,306.328217,434.813751,313.055634,430.303772C324.058716,422.927429,344.225494,412.238129,352.265411,409.520813C360.713165,406.66568,384.279907,400.866669,392,399.743408C402.453949,398.222382,436.877167,398.312805,445.5,399.883911C449.350006,400.585419,454.75,401.525177,457.5,401.97229C460.25,402.419434,465.200012,403.331879,468.5,404C476.597015,405.639313,483.926941,406.816559,493.5,408.015228C497.899994,408.566132,503.500214,409.293732,505.944916,409.63208C510.289185,410.233307,522.850464,408.505127,526.167847,406.849792C527.196899,406.336334,528.492859,403.237305,529.551392,398.758789C535.336487,374.282867,537.645874,351.797058,540.00238,297C542.037231,249.682785,541.878235,250.511398,550.237732,243.661392C558.169312,237.162048,562.862122,235.812347,575.465637,236.405533C608.00415,237.937012,622.049377,238.889954,627,239.902069C630.025024,240.520508,633.965881,241.266571,635.757568,241.559982C637.589661,241.860016,639.651672,243.064987,640.469849,244.31366C641.71814,246.21875,641.730774,247.099121,640.558838,250.516922C639.807678,252.707611,637.925293,255.399994,636.375793,256.5C627.233704,262.989899,612.987976,274.369476,609.882141,277.663239C604.348816,283.531403,603.762512,287.513489,603.946899,317.975586C604.111328,345.145721,604.635864,349.113617,608.153015,349.790955C609.809937,350.110046,611.777161,344.57193,623.53064,306.5C630.558716,283.734711,635.958313,275.250854,648.722717,266.918152C660.423523,259.279816,672.837158,256,690.046448,256C705.731628,256,708.217834,256.982544,711.539795,264.49411C714.528015,271.250916,714.608582,274.334442,711.976807,281.212494C709.135803,288.637451,709.176697,288.595306,689.417419,304.444305C674.945862,316.052002,669.550598,323.991882,665.393555,339.798798C663.765869,345.987854,663.407715,386.964081,664.929565,392.883972C665.440857,394.872803,666.385498,399.200012,667.02887,402.5C667.672241,405.799988,669.909241,415.700012,672,424.5C676.344177,442.784637,677.880981,450.19104,680.93457,467.560181C681.520569,470.893311,682,475.566406,682,477.944885C682,482.048645,682.466064,482.744659,691.129456,491.578857C697.62738,498.204895,702.167297,501.870331,706.879456,504.295166C713.872803,507.893829,726.078796,510.699005,730.220703,509.659454C731.572205,509.320251,736.237915,506.7117,740.588989,503.862671C750.496582,497.375305,776.686829,484.538757,784,482.585754C787.025024,481.777924,791.974976,480.450439,795,479.635803C798.025024,478.821136,803.200012,477.63327,806.5,476.996063C809.799988,476.358887,814.299988,475.400269,816.5,474.865784C821.618958,473.622192,873.440918,474.377655,881.5,475.813354C889.432739,477.226563,901.250671,480.277557,907.686707,482.573914C912.503662,484.292572,913.002869,484.307404,914.688538,482.78186C915.68689,481.878387,917.808411,480.643127,919.403137,480.036835C921.922363,479.07901,922.840027,479.28772,926.401306,481.628387C941.393188,491.481964,948,505.143921,948,526.29126C948,532.634399,948.499878,535.04718,950.887878,540.231079C957.490784,554.564636,965.605957,573.89386,970.265259,586.385376C971.929932,590.848389,974.822937,598.549988,976.694153,603.5C988.593567,634.978455,994.721375,656.497375,997.197144,675.5C998.808044,687.864258,998.493835,754.700012,996.815308,756.722534C996.232239,757.42511,994.910217,758,993.877563,758C992.270874,758,992,757.215027,992,752.559021C992,749.566467,991.549988,746.839905,991,746.5C990.450012,746.160095,990,743.235107,990,740C990,736.764893,989.615967,733.880676,989.146545,733.590576C988.677124,733.300476,988.0047,729.960327,987.652222,726.168091C984.964661,697.250977,973.383423,669.168457,953.01886,642.188293C949.983459,638.16687,946.468933,633.441895,945.20874,631.688293C942.150085,627.43219,918.281799,604,917.005127,604C915.745117,604,915.666565,604.825684,915.530579,619.5C915.469421,626.099976,914.591614,636.674988,913.579834,643C912.568115,649.325012,911.605591,657.650024,911.440918,661.5C911.038818,670.900391,909.77832,677.244873,908.209412,677.765442C907.499634,678.000977,905.416992,676.601257,903.58136,674.654968C901.08606,672.009155,899.799133,669.272156,898.481201,663.808105C895.463013,651.294983,891.652771,645.555115,882.02417,639.016418C876.444641,635.227417,861.719177,628.91156,855.253479,627.53418C849.484985,626.305359,845.184265,628.68927,834.291992,639.153137C828.65448,644.568909,823.596741,649,823.052551,649C821.049377,649,808.083923,667.674072,808.023376,670.646484C808.010498,671.277039,811.487488,673.93634,815.75,676.555969C826.291687,683.034729,826.697815,683.456177,828.581177,689.873169C830.395386,696.054443,830.129822,710.179932,827.986572,721.5C824.184998,741.579163,820.451477,744.047913,815.480957,729.769226C813.922974,725.293762,810.661011,718.677368,808.232117,715.06604C805.803162,711.454712,803.202148,707.375,802.452087,706C800.63855,702.675659,790.575317,692,789.255188,692C787.726624,692,787.049744,694.295593,784.979736,706.5C782.097595,723.49292,781.912109,724.228821,779.399963,728.64209C776.620422,733.525085,764.444275,745,762.04248,745C760.092163,745,756.543274,741.357971,752.205872,734.90509C748.978455,730.103516,742.659302,724,740.915527,724C738.079895,724,726.263977,731.889099,719,738.632324C717.075012,740.419312,713.846252,743.145569,711.825012,744.690674C709.803772,746.23584,703.72876,750.906067,698.325012,755.069092C675.40332,772.727722,656.641968,782.476013,638.5,786.15387C631.442749,787.584595,616.879761,788.126892,614.5,787.047607z"/>
    <path transform="matrix(-0.410697,0,0,-0.410697,-976.961914,-373.370697)" style="stroke:#000000;stroke-width:0.05mm;fill:none" d="M646,771.089355C664.664368,764.767395,681.335999,753.977722,711.499023,728.699036C718.972961,722.435364,727.178711,716.266418,729.734009,714.990234C740.526794,709.600037,749.898132,711.886536,757.128723,721.674255C760.483948,726.216064,761.59375,727.067078,763.825256,726.809143C769.156921,726.192932,773.468689,712.391541,769.065735,710.035156C768.001892,709.46582,765.388,709,763.257141,709C761.126282,709,755.584167,707.606262,750.941406,705.902832C745.481323,703.899536,739.795044,702.615173,734.841187,702.266235C726.388428,701.670776,726.237183,701.750427,719.840637,710.166809C717.978088,712.617554,715.401794,714.314758,711.241821,715.831543C706.507263,717.557861,704.275269,719.178101,700.239136,723.818481C694.701477,730.185303,673.81073,746.365601,663.806213,752.036621C647.302612,761.391541,631.354736,765.679565,616.885742,764.652527C596.130493,763.17926,569.426086,757.064758,559.197388,751.443604C553.528503,748.328247,552.013733,747.955933,544.131104,747.73999C535.891968,747.514343,535.042175,747.281677,529.933716,743.852173C525.399475,740.808105,523.347595,740.107544,517.538269,739.619995C512.070007,739.161072,509.495667,738.353943,505.538269,735.857727C501.269165,733.164978,499.195343,732.580627,491.954041,732.030029C484.758057,731.48291,482.472321,730.844849,477.484253,727.991028C472.089111,724.904175,470.799194,724.592651,463.030212,724.500305C455.839508,724.414734,453.680817,723.974915,449.283234,721.699402C444.27829,719.109619,443.441345,719,428.668091,719C414.441742,719,413.062378,718.836914,410.545532,716.857178C408.170471,714.988953,407.884766,714.187927,408.316193,710.607178C408.754395,706.970337,410.93634,699.660767,414.318298,690.5C416.03595,685.84729,423.458527,678.47998,435.575623,669.400818C447.825745,660.221985,453.801636,654.269348,456.938049,648.121399C458.082123,645.878845,460.614105,636.295715,462.564636,626.825623C468.426361,598.366211,470.752869,593.423645,482.720795,584.00531C491.312866,577.243591,493.267456,574.712463,493.397827,570.178894C493.479736,567.330872,492.977264,566.327637,490.865234,565.122498C488.494812,563.769836,487.975861,563.785828,485.692749,565.281738C484.296997,566.196289,481.942444,569.172424,480.460449,571.895325C478.312836,575.841248,476.566986,577.485107,471.859314,579.994324C468.610718,581.725769,465.323639,584.122925,464.554688,585.321228C461.728638,589.725464,456.172272,607.914917,453.084076,622.871826C448.330841,645.893066,445.569,650.125244,426.45578,663.676819C407.64328,677.015198,404.352142,682.729126,399.486328,710.5C398.047363,718.712646,397.53363,724.111267,398.091248,725.159912C399.124268,727.102539,405.713318,728.441528,409.811005,727.541504C413.947662,726.632935,438.253571,729.655151,454.5,733.098145C470.272034,736.440552,496.240906,743.593872,521.5,751.553711C564.915222,765.235046,582.443115,769.86377,602.5,772.944214C621.225525,775.82019,633.589478,775.292969,646,771.089355z"/>
    <path transform="matrix(-0.410697,0,0,-0.410697,-976.961914,-373.370697)" style="stroke:#000000;stroke-width:0.05mm;fill:none" d="M256.762482,749.475891C270.368103,747.537598,291.625,743.925903,304,741.449829C330.320221,736.183594,373.059143,729,378.070892,729C379.987152,729,382.606293,728.263611,383.891235,727.363647C386.020233,725.872437,386.171539,725.229309,385.596893,720.113647C385.106232,715.745667,385.654144,711.504333,388.066162,701C394.557007,672.732117,397.324219,668.399841,418.531525,653.304321C433.292938,642.797058,436.594696,638.462585,438.949707,626.5C441.840576,611.815369,446.478638,594.047913,448.73877,589C452.301941,581.041809,453.010498,578.157776,452.033691,575.588623C450.989899,572.843262,445.96109,570.560181,443.016449,571.494812C440.375641,572.332947,439.468353,574.696106,438.599243,583C438.225098,586.575012,436.62616,593.775024,435.046082,599C433.466003,604.224976,431.674164,611.200012,431.064178,614.5C427.770569,632.31897,424.597565,637.184631,409.768677,647.155579C390.811279,659.902466,384.073944,670.710632,379.523712,695.675171C376.182953,714.003845,375.999084,714.626709,373.11261,717.39209C370.959076,719.455322,368.686462,720.320923,363.400604,721.091309C332.158966,725.644409,314.602905,728.550293,303.5,731.00592C285.079437,735.079956,281.120483,735.78064,266.599121,737.536987C259.503632,738.395203,250.053635,739.75885,245.599121,740.567322C233.578842,742.748962,214.956833,743.424561,204.031586,742.075317C191.611847,740.541504,135.738174,729.573975,130.139832,727.570984C124.947166,725.713135,119.468933,721.804993,115.321899,717C112.142677,713.316345,95.6381,691.446838,75.5,664.233643C50.355228,630.254822,45.445473,618.580811,48.574432,600.212402C50.383896,589.590027,50.011215,586.708679,46.533085,584.429749C40.630177,580.562012,38.179585,585.12738,37.370132,601.5C36.895855,611.09314,37.144196,613.724976,39.311909,622.077942C43.297287,637.43512,44.988674,640.232239,75.958344,682.682068C102.048744,718.44397,114.150383,732.493591,121.513344,735.570007C125.326759,737.163391,181.997116,749.413086,194.832947,751.418579C211.089371,753.958557,229.308105,753.387024,256.762482,749.475891z"/>
    <path transform="matrix(-0.410697,0,0,-0.410697,-976.961914,-373.370697)" style="stroke:#000000;stroke-width:0.05mm;fill:none" d="M636.228455,749.47821C644.793762,747.309814,661.196228,739.121643,668.63501,733.30072C672.009216,730.660339,678.390198,725.691284,682.814941,722.258362C687.239685,718.8255,691.146729,715.112976,691.497314,714.008362C692.472168,710.937073,691.160706,708.13446,687.978821,706.489014C682.300903,703.552856,680.641296,704.46698,675.590332,713.312622C670.81366,721.677917,653.308533,733.361694,638.886353,737.810547C622.938721,742.72998,607.984985,742.781128,588.693604,737.982239C572.081055,733.84967,570.3125,731.678894,568.476013,713.165466C566.827454,696.546753,566.099915,694.022339,558.196716,677.5C551.89386,664.323364,551.5,663.085876,551.5,656.458191C551.5,648.079895,553.650879,643.283203,562.798157,631.262146C566.046692,626.992981,570.111145,621.006226,571.830261,617.958191C575.658875,611.170044,579.255493,607.6203,584.5,605.453491C592.236511,602.25708,594.127991,598.44043,589.483765,595.3974C586.232422,593.267029,577.873169,593.957581,574.260315,596.654968C572.835388,597.718811,569.606445,602.303894,567.084778,606.843994C564.563171,611.384094,558.937927,619.914063,554.584351,625.799377C545.195984,638.490845,542.533142,643.526978,541.116028,651.271545C539.600037,659.556335,540.894226,664.612183,548.486328,680.064941C554.051575,691.392395,555.482239,695.424072,557.516357,705.512451C558.92041,712.475769,559.947388,721.110779,559.966736,726.115112C560.009766,737.2547,561.139587,738.786499,572.247498,742.764343C595.482117,751.085022,619.80127,753.636963,636.228455,749.47821z"/>
    <path transform="matrix(-0.410697,0,0,-0.410697,-976.961914,-373.370697)" style="stroke:#000000;stroke-width:0.05mm;fill:none" d="M547.183105,732.497437C548.089844,730.507385,547.798706,726.77478,545.761536,714.272583C543.234741,698.76532,543.102173,698.3573,536.068359,684.432129C527.488342,667.445984,526.087524,661.637085,527.82312,650.241821C529.353638,640.193176,533.884705,631.123169,543.331421,619.198303C547.384216,614.082336,552.856018,605.757324,555.491028,600.698303C558.125977,595.639221,561.455933,590.221313,562.89093,588.658447C569.044006,581.957031,580.072632,579.537537,591.746765,582.327942C597.138123,583.616638,598.781311,583.632813,603.746765,582.446167C615.31604,579.681335,623.269287,580.917053,630.781311,586.64679C638.338501,592.410889,639.97583,600.167358,635.5,609C632.232666,615.447815,632.230347,619.449585,635.492737,621.587158C639.051392,623.918945,642.810608,622.713013,644.448242,618.714417C646.359436,614.047974,648.369873,598.974121,647.779602,593.737122C647.146179,588.117004,645.364868,585.74353,636.839355,579.159485C626.640808,571.283447,624.526672,570.638428,611.5,571.42865C605.450012,571.795654,593.299988,572.18927,584.5,572.303467C570.192932,572.489075,567.97229,572.753662,563.512451,574.804321C556.16864,578.181152,554.330383,580.355225,548.424133,592.649475C544.670959,600.461853,540.550415,606.95166,534.657043,614.332153C523.80249,627.925903,522.552368,630.032104,520.112488,638.836548C517.882385,646.884155,516.359558,663.772644,517.375671,669.188782C517.730164,671.07843,520.022278,675.672791,522.469299,679.398438C526.97229,686.254395,534.189453,703.421021,536.039551,711.676392C536.818237,715.151245,536.68512,717.627686,535.456177,722.527954C533.254578,731.306824,535.367676,734.900757,542.771423,734.969604C545.307312,734.993164,546.299255,734.437317,547.183105,732.497437z"/>
    <path transform="matrix(-0.410697,0,0,-0.410697,-976.961914,-373.370697)" style="stroke:#000000;stroke-width:0.05mm;fill:none" d="M240.650635,727.967957C247.167786,726.850281,258.537994,725.263611,265.917755,724.441956C279.926361,722.882324,289.066376,721.235107,302.476593,717.853271C309.590912,716.059143,327.043671,713.230286,351.955261,709.833374C361.720245,708.501831,364.517548,706.538635,365.451111,700.361755C367.009857,690.04834,372.404938,670.745667,375.506683,664.384583C380.251312,654.654175,389.815277,644.57605,401.61319,636.874451C413.036224,629.417603,415.174988,626.27002,417.872223,612.94635C418.923981,607.750854,420.732819,600.702209,421.891876,597.282654C423.050934,593.863159,424.731506,586.213135,425.626495,580.282654C427.098785,570.526733,427.106781,569.15033,425.710388,565.827759C422.691711,558.645142,415.502747,556.957886,413.058655,562.858398C412.057465,565.275513,412.218872,566.910095,414.056,572.958496C416.787537,581.951416,416.286896,586.494507,411.521576,595.957153C408.720581,601.519165,408,604.118286,408,608.659302C408,618.989441,403.239227,625.380127,391,631.479675C383.966705,634.984741,381.362183,637.399719,378.453705,643.112732C377.16214,645.64978,373.83905,649.623047,371.069031,651.9422C365.497894,656.606628,365.688751,656.135193,360.923248,677C355.501923,700.736023,355.765442,700.531189,326.856964,703.475586C316.310883,704.549683,306.047211,706.37677,295.356964,709.083008C283.304108,712.134155,276.2164,713.321533,265.812714,714.032288C258.284698,714.54657,248.159698,715.839294,243.312698,716.905029C238.465714,717.970703,231.976807,719.146851,228.892883,719.518677C221.37944,720.424561,200.368179,718.454529,185,715.403259C178.125,714.038269,166.649994,712.046936,159.5,710.978088C137.532227,707.694092,134.419449,706.142883,129,695.778503C126.730026,691.437317,124.094254,688.0672,121.5,686.188904C116.088295,682.270691,114.69677,680.449768,112.100853,673.889221C110.473244,669.775879,108.451744,667.0448,104.526215,663.655701C100.459846,660.145081,98.764,657.805542,97.477074,653.930969C96.095779,649.772278,94.705132,647.992371,89.955612,644.304016C84.182655,639.820923,82.106934,636.499207,80.539192,629.235168C80.151649,627.439514,78.060028,623.725342,75.891144,620.981506C69.253418,612.584167,68.596703,608.543762,72.156311,598.003174C74.023872,592.473022,74.157784,591.039001,73.156311,587.294617C70.302444,576.624329,72.452431,569.86554,81.920029,559.744629C86.120636,555.25415,88.844666,551.223938,90.453049,547.119812C91.75248,543.804077,95.49427,537.358154,98.768143,532.795593C106.01545,522.695496,115.072868,507.271881,120.082497,496.5C125.77655,484.256409,127.202606,476.053284,126.822235,457.730682L126.5,442.208344L119.848434,432.354156C107.777077,414.470673,98.914368,400.008759,97.405693,395.732697C95.028465,388.994934,94.66066,381.213654,96.354797,373.5C111.547478,304.325256,112.576599,300.580322,117.943718,294.938873C123.800941,288.782288,134.668915,286.647278,152.868515,288.077972L158.237045,288.5L164.824295,281C168.447296,276.875,173.850998,271.25,176.832535,268.5C191.050858,255.385818,192,254.322968,192,251.515625C192,248.804474,191.89653,248.755478,187.136093,249.212906C180.567749,249.84404,174.793884,254.143738,166.556366,264.53833C158.179825,275.108307,154.86496,276.820496,140.268753,278.116241C123.79216,279.578918,114.19603,282.232086,110.323074,286.395752C108.575768,288.274231,106.71563,291.316132,106.189438,293.155579C105.663246,294.994995,103.404716,302.799988,101.170494,310.5C90.662468,346.714661,84.786507,372.917999,84.800606,383.5C84.817299,396.029144,87.680237,402.762909,103.204865,426.787537C115.839745,446.34024,116.503464,448.150574,116.48156,463C116.468018,472.183502,115.980019,477.091919,114.642273,481.5C111.380135,492.249237,101.549889,510.015961,84.487648,536C68.316246,560.62738,60,575.3302,60,579.293213C60,580.337646,60.737633,583.729553,61.639187,586.830811C63.165955,592.082703,63.160999,593.09259,61.566921,601.556152C59.927467,610.260681,59.932854,610.872192,61.694992,616.091797C64.700188,624.993469,73.464081,639.77887,83.949448,653.63678C89.358978,660.786316,97.770844,672.068909,102.642479,678.70929C119.250587,701.34729,127.100189,711.037903,130.827057,713.504272C135.201004,716.398804,139.92897,717.558838,170,723.115662C210.876068,730.669189,220.889084,731.356873,240.650635,727.967957z"/>
    <path transform="matrix(-0.410697,0,0,-0.410697,-976.961914,-373.370697)" style="stroke:#000000;stroke-width:0.05mm;fill:none" d="M630.932068,725.957214C643.850281,722.871826,651.32782,718.814941,660.25,710.051208C666.662109,703.752991,668,701.895569,668,699.291992C668,695.483765,664.125793,692,659.890808,692C656.88092,692,654.998718,694.514526,653.573853,700.439026C651.712891,708.176819,645.333496,712.450195,632.555176,714.518738C628.085876,715.242188,621.520142,716.817627,617.9646,718.019714C610.629395,720.499573,604.193298,720.260254,598.216431,717.285522C592.061218,714.221924,590.760193,711.40686,589.898499,699.287537C589.13678,688.575012,589.087891,688.416565,582.861816,676.5C577.244324,665.74823,576.587341,663.875916,576.546082,658.5C576.477905,649.622864,579.483154,644.378052,591.26947,632.804321C599.681519,624.544006,601.095703,622.698059,600.821655,620.335815C600.61438,618.549316,599.521057,617.018311,597.74762,616.031555C593.307983,613.561096,588.755615,616.692688,581.504517,627.205322C578.202026,631.993225,573.278198,639.087891,570.562683,642.971191C566.314575,649.046021,565.570679,650.832214,565.233826,655.765869C564.871277,661.076416,565.253418,662.333191,570.407043,672.779907C577.89801,687.964355,579.904907,694.541504,580.932312,707.27417C582.197449,722.953369,583.510742,724.33728,600,727.367371C610.005371,729.205994,619.057861,728.793274,630.932068,725.957214z"/>
    <path transform="matrix(-0.410697,0,0,-0.410697,-976.961914,-373.370697)" style="stroke:#000000;stroke-width:0.05mm;fill:none" d="M521.547852,725.309326C524.605469,722.251648,523.015259,711.371887,517.630493,698.508057C512.013916,685.090576,510.267883,682.596436,506.207397,682.190857C503.629425,681.933289,502.852631,682.384338,501.556274,684.891174C499.074127,689.691101,499.659668,691.647156,505.470795,697.968262C511.742767,704.790588,512.775879,707.650085,511.156342,713.705322C509.398682,720.276917,509.708099,722.625244,512.634888,724.927429C515.828186,727.43927,519.270386,727.586792,521.547852,725.309326z"/>
    <path transform="matrix(-0.410697,0,0,-0.410697,-976.961914,-373.370697)" style="stroke:#000000;stroke-width:0.05mm;fill:none" d="M497.450012,717.887634C499.12262,716.324829,498.479279,710.119202,496.347839,707.256348C493.536072,703.479736,489.983398,702.350037,486.046478,703.980774C482.451172,705.469971,479.600403,710.165649,480.524323,713.076599C482.131439,718.140198,493.669525,721.4198,497.450012,717.887634z"/>
    <path transform="matrix(-0.410697,0,0,-0.410697,-976.961914,-373.370697)" style="stroke:#000000;stroke-width:0.05mm;fill:none" d="M468,710C470.766144,707.233826,470.52597,702.778503,467.411102,699.076721C464.356476,695.446533,460.981812,695.103943,456.313812,697.950256C449.920807,701.848328,449.326202,707.414063,455,710.248474C459.764496,712.628601,465.480652,712.519348,468,710z"/>
    <path transform="matrix(-0.410697,0,0,-0.410697,-976.961914,-373.370697)" style="stroke:#000000;stroke-width:0.05mm;fill:none" d="M240.800369,703.878479C245.111832,702.62262,253.025162,701.605774,263,701.02594C277.892334,700.160278,280.954132,699.603699,301,694.118225C305.125,692.98938,315.627106,691.434326,324.338013,690.662476C345.858429,688.755554,344.811859,689.664368,349.859894,668.5C352.670654,656.715576,352.607635,654.623108,349.365143,652.072571C346.28186,649.647278,344.11731,649.462524,341.469452,651.398682C339.770172,652.641235,339.58786,653.914978,339.836487,662.80719L340.116394,672.816956L336.645569,676.287781C332.026672,680.906677,325.716034,682.405762,314.740295,681.491516C307.139587,680.858398,305.878204,681.025879,300.176331,683.425781C286.203796,689.306763,265.377472,692.57019,252.994705,690.819031L245.016541,689.690796L239.75827,692.99231C233.193283,697.114319,227.370102,697.833191,219.395477,695.506165C214.270523,694.010681,212.638672,693.947571,206.909729,695.023193C199.882507,696.34259,195.360321,695.55835,190.044098,692.098389C188.229813,690.917603,184.83345,690.464539,177.044098,690.364258C167.765182,690.244873,165.562439,689.854919,158.68631,687.114258C150.002701,683.653259,145.542465,683.231323,142.222504,685.556702C139.373764,687.552063,139.398422,690.086243,142.293015,692.805542C145.455017,695.776062,148.641235,696.672058,162.5,698.487671C169.100006,699.352356,180.145645,701.180115,187.045883,702.549377C210.432175,707.190002,227.945251,707.623047,240.800369,703.878479z"/>
    <path transform="matrix(-0.410697,0,0,-0.410697,-976.961914,-373.370697)" style="stroke:#000000;stroke-width:0.05mm;fill:none" d="M436.239899,705.02594C437.706055,703.872681,439.214447,701.205444,439.867737,698.611023C441.444641,692.348572,445.09491,688.481812,451.791504,685.97998C458.536499,683.460144,460.137421,682.147583,463.532806,676.353821C464.935669,673.960022,468.526062,670.19696,471.511475,667.991516C474.496857,665.786072,477.358795,663.19812,477.871277,662.240479C478.383789,661.282898,480.218353,653.749512,481.94809,645.499695C489.144562,611.176636,489.241028,610.944397,501.882721,597.516052C510.733521,588.114441,518.212219,575.816223,519.616394,568.354187C520.824402,561.934265,513.284546,558.624512,508.454559,563.454529C506.421875,565.487183,506,566.890076,506,571.616699C506,579.339539,503.218262,583.815491,493.125153,592.332947C482.104065,601.633423,480.100677,605.891357,475.051758,630.745178C470.611511,652.602905,468.648651,657.205078,460,666.036072C456.975006,669.124817,450.225006,674.826843,445,678.707275C435.746796,685.579224,428.991882,691.954712,425.647797,696.972534C423.706268,699.885742,423.46286,705.616577,425.25,706.337708C428.273376,707.557678,433.870667,706.889587,436.239899,705.02594z"/>
    <path transform="matrix(-0.410697,0,0,-0.410697,-976.961914,-373.370697)" style="stroke:#000000;stroke-width:0.05mm;fill:none" d="M614.406738,705.103027C616.005615,703.336304,616.016296,702.687073,614.561768,695.645203C613.702759,691.486694,613,686.759949,613,685.141235C613,683.210266,611.465088,680.156311,608.536682,676.26062C603.148193,669.092346,602,666.284058,602,660.272766C602,652.964478,605.424255,648.199402,614.078918,643.464294C622.032349,639.112854,624.990356,635.486084,624.996277,630.078735C625.000854,625.883667,622.572876,623,619.036133,623C615.40625,623,613.541931,624.674194,610.975891,630.238403C609.515503,633.405029,606.12085,637.383606,600.742432,642.232178C592.564026,649.604919,590,653.58197,590,658.894836C590,660.577271,592.657043,666.939575,596.15863,673.641663C602.104126,685.021667,602.338196,685.753845,602.922974,694.805847C603.418213,702.471191,603.880371,704.439331,605.455505,705.591125C608.164673,707.572083,612.38031,707.342224,614.406738,705.103027z"/>
    <path transform="matrix(-0.410697,0,0,-0.410697,-976.961914,-373.370697)" style="stroke:#000000;stroke-width:0.05mm;fill:none" d="M708.928467,702.536987C713.394592,700.227478,714.393005,695.570618,711.067261,692.560852C710.004211,691.598816,704.921143,689.122925,699.771484,687.058777C694.621887,684.99469,686.086243,680.762024,680.803406,677.652954C675.520569,674.543823,670.797729,672,670.308228,672C669.818665,672,665.85498,669.75,661.5,667C657.14502,664.25,652.473877,662,651.119629,662C645.309326,662,642.784729,669.633606,647.25,673.700745C650.724365,676.865234,652.970947,677.711243,660,678.502136C667.89624,679.390503,671.06543,680.914246,674.71228,685.575562C678.018311,689.801208,681.813477,692,685.801086,692C690.947266,692,694.698608,694.013855,698.954651,699.061279C703.443909,704.385315,704.585205,704.78302,708.928467,702.536987z"/>
    <path transform="matrix(-0.410697,0,0,-0.410697,-976.961914,-373.370697)" style="stroke:#000000;stroke-width:0.05mm;fill:none" d="M818,698.53479C818,694.983154,817.375977,693.358887,814.950012,690.595825C811.885864,687.105957,805.917664,684.314819,804.023193,685.485657C801.78241,686.870544,812.922791,703,816.120117,703C817.67926,703,818,702.23822,818,698.53479z"/>
    <path transform="matrix(-0.410697,0,0,-0.410697,-976.961914,-373.370697)" style="stroke:#000000;stroke-width:0.05mm;fill:none" d="M639.541077,697.658936C641.378662,695.82135,643.192261,693.082214,643.571289,691.571899C644.511108,687.827515,641.387817,683.773621,636.635132,682.56897C633.573792,681.79303,632.506958,681.976624,630.230957,683.670776C627.908936,685.399231,627.4552,686.545532,627.200867,691.325745C626.805237,698.761658,628.062622,701,632.635193,701C635.343628,701,637.002625,700.197388,639.541077,697.658936z"/>
    <path transform="matrix(-0.410697,0,0,-0.410697,-976.961914,-373.370697)" style="stroke:#000000;stroke-width:0.05mm;fill:none" d="M773.77356,696.75C775.606201,694.500793,776.977112,687.825745,775.986572,685.974915C774.597656,683.3797,772.678345,682.994446,766.305603,684.031616C761.19397,684.863586,758.931763,684.573059,746.51709,681.490356C738.15387,679.413696,729.878174,676.645752,726,674.628113C722.424988,672.768188,717.25,670.078003,714.5,668.649902C711.75,667.221802,704.160889,663.539734,697.635376,660.46759C687.878601,655.874146,684.467957,653.648682,678.437561,647.940918C674.404297,644.123413,670.385437,641,669.506714,641C667.01947,641,663,645.627075,663,648.490295C663,649.909912,664.012512,652.006775,665.25,653.149963C669.048096,656.658508,697.009277,671.834717,705.818054,675.168701C711.418579,677.28833,715.704651,679.727112,718.937195,682.633423C724.665039,687.783264,727.535522,689,733.957153,689C738.944824,689,758.931946,693.771362,765.036621,696.419434C769.312439,698.274109,772.435486,698.392334,773.77356,696.75z"/>
    <path transform="matrix(-0.410697,0,0,-0.410697,-976.961914,-373.370697)" style="stroke:#000000;stroke-width:0.05mm;fill:none" d="M486.685547,690.825684C491.185699,686.598022,488.160217,677,482.327423,677C479.124847,677,473,682.966064,473,686.085571C473,692.200439,481.929871,695.293396,486.685547,690.825684z"/>
    <path transform="matrix(-0.410697,0,0,-0.410697,-976.961914,-373.370697)" style="stroke:#000000;stroke-width:0.05mm;fill:none" d="M232.777496,682.443298C233.999878,681.587097,235,679.960083,235,678.827637C235,676.564148,225.029739,655.547485,218.715057,644.5C213.102127,634.680237,208.805206,629.658875,204.341202,627.702881C202.228546,626.777161,191.5,623.959534,180.5,621.441467C164.751831,617.836487,157.204834,616.642578,145,615.8255C124.926506,614.481628,117.555687,615.085083,107,618.936707C93.014435,624.039795,91.821381,625.174316,94.668953,630.663025C97.462013,636.046631,101.575668,636.457764,106.795258,631.874878C111.808281,627.473389,115.220161,626.317017,125.5,625.535217C137.413757,624.629211,155.081726,626.269348,173.5,629.99115C202.210144,635.792664,204.626526,637.481995,215.875351,659.615967C219.377869,666.507813,220,668.657166,220,673.865967C220,678.666687,220.434738,680.434753,222,682C224.414185,684.414185,229.655853,684.629761,232.777496,682.443298z"/>
    <path transform="matrix(-0.410697,0,0,-0.410697,-976.961914,-373.370697)" style="stroke:#000000;stroke-width:0.05mm;fill:none" d="M206.460953,681.652222C209.159882,679.678711,208.037506,673.642578,203.031799,663.210449C197.834229,652.378418,193.321381,647.904602,185.386749,645.71814C174.836105,642.81073,158.753006,639.963135,146.179626,638.776245C120.181602,636.322205,103.502129,642.740906,111.025009,652.304688C113.558746,655.525818,117.623146,655.862854,121.115143,653.141418C127.225418,648.379456,129.928436,647.694153,139.963913,648.36261C154.73085,649.346191,174.870911,652.602661,181.5,655.078613C184.800003,656.311157,188.962494,658.77771,190.75,660.559814C193.823975,663.624512,194.000824,664.198059,194.01532,671.150024C194.023727,675.192505,194.361237,678.988464,194.76532,679.585449C196.982803,682.861694,203.284073,683.97522,206.460953,681.652222z"/>
    <path transform="matrix(-0.410697,0,0,-0.410697,-976.961914,-373.370697)" style="stroke:#000000;stroke-width:0.05mm;fill:none" d="M799,681.125732C799,680.644897,798.325012,678.338318,797.5,676C795.714355,670.939026,795.559387,664.709961,797.143738,661.684265C799.961426,656.303345,811.438782,642.842102,817.18689,638.176636C820.659119,635.358459,826.619629,629.606995,830.432495,625.395691C843.130188,611.371216,849.871704,610.720581,874.865723,621.107361C884.193237,624.983643,891.312866,629.480774,895.924316,634.409119C900.105713,638.877808,902.121887,637.449463,903.396179,629.115845C904.121643,624.37146,902.591858,618.068237,900.672424,617.892883C900.027588,617.833923,896.977783,617.659851,893.89502,617.506042C889.386963,617.281128,886.451355,616.240723,878.89502,612.190002C866.559692,605.577393,859.816956,603.715881,847.984619,603.65625C835.800171,603.594849,832.60675,605.250854,825.074402,615.536621C822.090332,619.611511,815.90094,626.136902,811.32019,630.037415C804.146179,636.146057,796.966553,644.322144,788.335876,656.21167C786.228577,659.114624,784,668.605591,784,674.676941C784,677.860107,786.174072,680.47052,789.5,681.280762C792.991882,682.13147,799,682.033386,799,681.125732z"/>
    <path transform="matrix(-0.410697,0,0,-0.410697,-976.961914,-373.370697)" style="stroke:#000000;stroke-width:0.05mm;fill:none" d="M180.800003,676.799988C183.410797,674.189209,181.669128,669.482239,177.214127,667.108948C174.658386,665.747498,162.306488,663.600525,147.585846,661.959045C128.643387,659.846863,119.035278,665.116638,126.341736,673.610901C129.298462,677.048279,133.528351,677.184082,138.019928,673.985779C143.398026,670.15625,149.716156,670.257996,161.5,674.363953C171.90419,677.989136,178.747162,678.852844,180.800003,676.799988z"/>
    <path transform="matrix(-0.410697,0,0,-0.410697,-976.961914,-373.370697)" style="stroke:#000000;stroke-width:0.05mm;fill:none" d="M281.5,675.57196C293.443146,672.675171,296.158905,671.698242,298.344818,669.512329C300.616608,667.24054,300.418732,664.468018,297.811432,662.03894C294.423981,658.883057,289.381226,659.388123,282.966278,663.525757C276.184875,667.899719,270.906982,669.381714,264.714661,668.650757C257.716858,667.824707,254.582504,665.075989,250.512711,656.196167C243.007278,639.820129,227.656677,614.729431,222.037094,609.652466C218.085587,606.08252,216.930267,605.73114,200.064865,602.969604C195.975525,602.300049,186.525528,599.973511,179.064865,597.799622C165.950363,593.978271,164.786194,593.816833,144,592.936096C132.175003,592.435059,120.12355,591.735901,117.219002,591.382385C112.409851,590.796997,111.471703,591.033691,106.719002,594.031494C102.376213,596.770691,100.190742,597.425354,93.701645,597.930908C88.447281,598.340271,85.589958,599.021484,84.94281,600.019226C82.075478,604.439758,82.800705,610.148499,86.543648,612.6203C88.311302,613.787659,89.05407,613.699341,92.043648,611.966553C108.643349,602.344971,113.824112,601.389404,141.570908,602.831299C160.037186,603.790955,164.159317,604.334717,176.600983,607.452148C184.356522,609.395447,194.447617,611.695923,199.025635,612.564331C208.035721,614.27356,215.248779,617.430725,218.64325,621.151001C224.236618,627.28125,241.579941,658.375793,245.947906,670.105042C247.239395,673.573059,248.886368,676.12085,250.267609,676.787354C254.483093,678.821594,270.704529,678.190369,281.5,675.57196z"/>
    <path transform="matrix(-0.410697,0,0,-0.410697,-976.961914,-373.370697)" style="stroke:#000000;stroke-width:0.05mm;fill:none" d="M501.777496,671.443298C503.795349,670.029907,504,669.054504,504,660.850403C504,648.615845,507.174622,633.266968,511.518372,624.5C513.425903,620.650024,518.608826,613.224976,523.03595,608C528.493896,601.55835,532.368286,595.76355,535.070679,590C543.371094,572.29718,544.42218,570.629761,549.405334,567.259827C558.608643,561.03595,564.709167,559.832825,592.5,558.760925C630.80957,557.283264,628.679688,556.95813,641.28241,566.20752C655.621948,576.731506,659.56311,581.33313,661.039001,589.274902C661.910889,593.96637,660.40094,609.830933,658.454346,616.431519C656.236816,623.950867,656.547119,627.498596,659.634888,629.927429C662.818909,632.432007,664.747131,632.538818,667.171265,630.345032C668.633118,629.022034,669.003906,627.166382,669.019531,621.095032C669.030212,616.917786,669.687378,607.729492,670.479858,600.676636C672.833069,579.732422,672.080322,578.191223,651.78241,562.396545C634.01532,548.571167,629.955017,546.521362,622.103333,547.412964C619.021484,547.762939,605.25,548.428223,591.5,548.891357C563.989075,549.818115,559.619812,550.647888,545.90387,557.550598C535.6073,562.732483,533.510559,564.935425,531.587097,572.592651C528.679199,584.16925,523.345825,593.142273,511.834717,605.824646C502.313049,616.315125,500.517365,620.241272,497.014343,638.227905C495.378479,646.627563,493.297058,656.046936,492.388977,659.159851C490.287598,666.363525,491.06665,669.689758,495.284851,671.523804C499.344727,673.289001,499.138733,673.291565,501.777496,671.443298z"/>
    <path transform="matrix(-0.410697,0,0,-0.410697,-976.961914,-373.370697)" style="stroke:#000000;stroke-width:0.05mm;fill:none" d="M630.75,669.406616C631.987488,668.021606,633,665.729187,633,664.312256C633,658.688538,626.447205,652.197815,622.261841,653.675842C616.494995,655.712341,614.517883,661.233215,617.494263,666.988953C620.788147,673.358643,626.317627,674.367126,630.75,669.406616z"/>
    <path transform="matrix(-0.410697,0,0,-0.410697,-976.961914,-373.370697)" style="stroke:#000000;stroke-width:0.05mm;fill:none" d="M770.629272,669.727661C773.00531,667.204468,773.171997,664.171997,771.051147,662.051147C769.385742,660.385742,767.723083,660,762.210083,660C753.30127,660,745.967834,658.002258,735.261047,652.658691C730.442505,650.253845,723.349976,647.042236,719.5,645.521851C692.17627,634.731506,689.147644,629.428772,693.538025,600.065857C694.796326,591.650574,694.87439,587.946533,693.967346,579.703369C693.357544,574.161499,692.219482,568.391296,691.438293,566.880676C688.653442,561.495422,641.504578,524.785461,635.140259,523.047241C633.647827,522.639587,630.109009,522.932861,627,523.721863C623.42395,524.629333,611.530579,525.400391,593,525.926025C562.181213,526.800293,559.612122,527.207153,542.806885,533.87439C538.788086,535.468811,532.125,537.771301,528,538.991028C523.875,540.210754,519.9375,541.66687,519.25,542.226807C517.337036,543.784851,517.762573,548.762573,520,551C522.829712,553.829712,527.395325,553.509827,532.319824,550.136841C539.642761,545.121094,547.246826,541.981812,563,537.470764C564.375,537.077026,576.525024,536.378967,590,535.919495C603.474976,535.460022,618.63446,534.786499,623.687744,534.422729C635.185242,533.595032,636.633972,534.233765,654.5,548.007141C685.451233,571.868286,686.649231,574.066772,683.565308,601.345398C681.301514,621.368896,681.457214,630.593689,684.123779,634.43811C687.288452,639.000732,694.676086,644.678589,702,648.177185C705.575012,649.884949,715.25,654.540771,723.5,658.523499C736.841431,664.964111,749.025452,669.12677,761,671.335327C764.49707,671.980286,769.256287,671.18573,770.629272,669.727661z"/>
    <path transform="matrix(-0.410697,0,0,-0.410697,-976.961914,-373.370697)" style="stroke:#000000;stroke-width:0.05mm;fill:none" d="M325.139221,667.088379C327.01123,665.57251,327.5,664.208435,327.5,660.5C327.5,654.940247,324.730225,652,319.492798,652C312.306793,652,306.81842,663.658142,312.222504,667.443298C315.345215,669.630493,322.233521,669.441223,325.139221,667.088379z"/>
    <path transform="matrix(-0.410697,0,0,-0.410697,-976.961914,-373.370697)" style="stroke:#000000;stroke-width:0.05mm;fill:none" d="M981,656.551636C981,652.140503,977.095276,639.788208,971.574829,626.735779C969.193787,621.106079,966.468689,614.105713,965.519043,611.179382C963.509888,604.988403,961.637939,603.902649,955.424377,605.324524C949.206482,606.747375,946.389832,605.156982,937.880798,595.418457C928.99353,585.247009,926.712708,580.978088,924.578125,570.520813C922.656189,561.104858,915.982056,546.689575,912.483093,544.396973C911.126831,543.508301,906.750793,542.405396,902.758606,541.946106C898.766357,541.486755,892.950989,540.22345,889.835571,539.138794C876.445618,534.476807,868.65271,533.499512,845,533.515869L822.5,533.531494L813,536.686523C807.775024,538.421814,800.972717,540.346619,797.883789,540.963928C791.856018,542.168518,787.563171,545.519531,788.159485,548.55481C788.694214,551.276672,793.652039,554.407043,797.253784,554.296997C799.039185,554.242432,804.33905,552.185547,809.031189,549.726135C820.434326,543.749207,827.296997,542.656982,849.861694,543.227905C865.283936,543.618103,869.00769,544.054932,879.5,546.704834C886.099976,548.371704,894.05426,550.269836,897.176147,550.922913C904.560059,552.467651,910.123169,556.568481,913.098572,562.660156C915.044189,566.643494,915.480835,569.181274,915.565979,577C915.685242,587.949707,916.355591,589.464966,922.884277,593.542603C925.422913,595.128174,931.341431,600.042175,936.03656,604.462708C940.731689,608.88324,947.085815,614.613037,950.156799,617.195557C954.243103,620.631958,957.551514,624.922607,962.49408,633.195557C971.653442,648.526672,979.232361,660,980.200317,660C980.640137,660,981,658.448242,981,656.551636z"/>
    <path transform="matrix(-0.410697,0,0,-0.410697,-976.961914,-373.370697)" style="stroke:#000000;stroke-width:0.05mm;fill:none" d="M275.042816,653.977112C280.097382,651.271973,279.448578,644.317566,273.87265,641.434143C268.192719,638.496948,263.844147,633.583496,259.864258,625.606201C256.175842,618.213135,251.587585,610.930603,238.503494,591.702026C235.959366,587.963135,232.751007,584.475647,231.37381,583.952026C229.996597,583.428406,225.827789,583,222.109787,583C211.820618,583,194.967148,579.568054,180.242325,574.474365L166.984665,569.888184L150.742325,570.194092C135.496017,570.481262,134.241821,570.362,130.289841,568.25C123.573357,564.660583,118.928642,565.303528,116.411491,570.171143C114.635506,573.60553,115.303986,576.557129,118.210022,578.112427C119.414078,578.756775,129.980881,579.559509,143.392303,580.025452C156.101532,580.46698,168.300003,581.359375,170.5,582.008484C172.699997,582.657593,179.449997,584.668213,185.5,586.476501C191.550003,588.28479,200.550003,590.305908,205.5,590.967957C226.385132,593.761108,228.45369,594.750305,235.88826,605.5C243.872086,617.043884,257.077942,639.059631,260.18161,646C261.780304,649.575012,263.829468,653.0625,264.735291,653.75C266.725922,655.260803,272.410126,655.386047,275.042816,653.977112z"/>
    <path transform="matrix(-0.410697,0,0,-0.410697,-976.961914,-373.370697)" style="stroke:#000000;stroke-width:0.05mm;fill:none" d="M650.256409,647.869812C652.547302,644.787964,652.027161,640.575562,648.858276,636.546936C645.999573,632.91272,639.965027,632.957703,637.072571,636.634888C634.07959,640.439819,634.406128,644.559998,637.984375,648.138245C641.850525,652.004333,647.271179,651.885803,650.256409,647.869812z"/>
    <path transform="matrix(-0.410697,0,0,-0.410697,-976.961914,-373.370697)" style="stroke:#000000;stroke-width:0.05mm;fill:none" d="M301.684906,647.933411C308.832733,645.225159,311.06723,639.29071,306.540405,635.037964C301.86731,630.647827,292.190491,632.738586,289.953735,638.621704C288.486877,642.479797,289.84726,646.026062,293.384735,647.565796C297.224701,649.237122,298.137238,649.277588,301.684906,647.933411z"/>
    <path transform="matrix(-0.410697,0,0,-0.410697,-976.961914,-373.370697)" style="stroke:#000000;stroke-width:0.05mm;fill:none" d="M777.061462,647.967102C778.122925,647.398987,782.143066,642.722717,785.994995,637.575378C790.232361,631.913025,796.331421,625.409973,801.436707,621.110901C807.433594,616.060913,811.561462,611.479797,815.704773,605.276062C820.790222,597.661743,822.289734,596.160767,827.445801,593.523438C832.836548,590.766113,834.375244,590.470154,844.928406,590.160889C859.810303,589.724731,866.78894,591.329285,883,598.914185C889.875,602.13092,896.683228,605.036133,898.129395,605.370178C901.791687,606.216187,905.737305,602.917297,906.606812,598.282471C907.17157,595.272034,906.915527,594.350037,905.108704,592.886902C903.335693,591.451233,901.677734,591.220398,896.214722,591.648682C889.680847,592.16095,889.312439,592.060608,882.535461,587.92511C873.60498,582.475464,869.701599,581.352539,854.981506,579.998291C837.490112,578.389099,831.315491,579.487976,819.5,586.312805C809.550598,592.059692,808.231445,593.507263,805.943848,601.188538C803.724976,608.639038,802.444092,609.979248,793,614.732056C788.124573,617.185669,787.045105,618.332886,783.494019,624.834534C779.315613,632.484802,776.797058,634.92688,771.100769,636.851501C763.43988,639.43988,756.419006,637.893311,748.22522,631.812439C743.925232,628.621216,741.468445,627.637268,734.930603,626.487793C730.519592,625.71228,725.08429,624.05127,722.852112,622.796753C715.142395,618.463623,713.016174,608.909729,716.961182,596.327026C718.576416,591.175293,718.800659,588.362793,718.316711,579.327026C717.66394,567.138794,716.641479,565,711.467468,565C706.920837,565,705.603088,567.017212,706.399719,572.758057C708.106995,585.062256,708.1521,590.959839,706.612671,600.619324C705.725708,606.184937,705,613.100403,705,615.987C705,620.723145,705.365967,621.598633,708.75,624.958557C711.426758,627.616211,715.361938,629.774719,722.5,632.500549C728,634.600891,736.547485,638.332214,741.494446,640.79248C748.837036,644.444092,752.31543,645.520935,760.43396,646.65564C765.903687,647.420166,770.593689,648.260376,770.85614,648.522827C771.679077,649.345764,775.049438,649.043945,777.061462,647.967102z"/>
    <path transform="matrix(-0.410697,0,0,-0.410697,-976.961914,-373.370697)" style="stroke:#000000;stroke-width:0.05mm;fill:none" d="M363.486328,641.832092C366.685669,639.315491,369.259735,633.840454,368.353668,631.479309C367.339783,628.837158,363.310394,627.840881,358.652557,629.08075C353.065979,630.567749,351,632.61261,351,636.654968C351,643.346008,357.916138,646.213623,363.486328,641.832092z"/>
    <path transform="matrix(-0.410697,0,0,-0.410697,-976.961914,-373.370697)" style="stroke:#000000;stroke-width:0.05mm;fill:none" d="M336.545013,639.950256C340.681458,635.379578,337.873993,627.435974,330.742096,623.53125C326.23172,621.061829,322.155365,622.188843,320.10199,626.473083C315.878693,635.284729,330.16806,646.996704,336.545013,639.950256z"/>
    <path transform="matrix(-0.410697,0,0,-0.410697,-976.961914,-373.370697)" style="stroke:#000000;stroke-width:0.05mm;fill:none" d="M285.522583,626.605896C287.722168,623.248901,286.68927,620.255188,280.817139,612.967957C270.348999,599.977112,260.909943,584.417603,258.997437,577C256.554962,567.526855,252.393814,565.366394,247.588898,571.076721C244.153839,575.159058,244.324371,577.96167,248.326843,583.2052C254.238556,590.949951,267.217316,611.311035,270.68277,618.2771C272.537048,622.004517,274.941986,625.942017,276.0271,627.0271C278.813629,629.81366,283.558685,629.603149,285.522583,626.605896z"/>
    <path transform="matrix(-0.410697,0,0,-0.410697,-976.961914,-373.370697)" style="stroke:#000000;stroke-width:0.05mm;fill:none" d="M770.599976,620.599976C773.187256,618.012756,774,616.353027,774,613.656677C774,609.152588,771.147034,607,765.17749,607C761.532471,607,760.231079,607.568909,757.400024,610.400024C751.110229,616.689758,754.246582,624,763.234863,624C766.410889,624,767.876648,623.323364,770.599976,620.599976z"/>
    <path transform="matrix(-0.410697,0,0,-0.410697,-976.961914,-373.370697)" style="stroke:#000000;stroke-width:0.05mm;fill:none" d="M384.611633,620.049438C393.976593,614.67804,397.549561,607.89917,392.777496,604.556702C389.723358,602.41748,388.412079,602.570068,381.418762,605.87854C372.075653,610.298584,368.48526,616.563782,372.654999,621.171265C375.01059,623.77417,378.725159,623.425659,384.611633,620.049438z"/>
    <path transform="matrix(-0.410697,0,0,-0.410697,-976.961914,-373.370697)" style="stroke:#000000;stroke-width:0.05mm;fill:none" d="M309.75,619.722351C313.598358,616.744568,309.003113,606.50531,301.120605,600.49408C298.395416,598.415771,295.242188,595.466248,294.113434,593.939575C290.912811,589.610474,282.744629,573.770203,276.407043,559.602173C269.60672,544.399658,266.296265,540.466919,259.43335,539.437744C252.127441,538.342163,248.281723,540.077026,241.739059,547.419922C237.629929,552.031616,234.116776,554.801758,229.48645,557.081299C223.295425,560.129089,222.589706,560.252319,214.247406,559.741577C203.802994,559.102112,192.919296,555.838135,177.614258,548.755371L166.728516,543.717773L161.614258,546.009583C153.879532,549.475708,149.393585,549.615784,143.697083,546.568909C137.567307,543.290283,134.690567,543.306641,132.072586,546.634888C129.192078,550.296814,129.422699,553.576477,132.711929,555.726929C135.064713,557.265198,137.94519,557.502747,154.461929,557.520813L173.5,557.541687L182.487839,561.372559C195.817978,567.054321,204.714432,569.073364,219.272964,569.721008L232.045929,570.289246L236.772964,565.26416C246.742157,554.666443,252.776184,550,256.51059,550C260.95871,550,263.475067,552.493286,265.32959,558.738098C266.12146,561.404663,269.958801,570.09198,273.856995,578.043213C279.030945,588.59668,282.585693,594.390015,287.022736,599.5C290.365692,603.349976,294.637268,609.49469,296.515106,613.154907C300.71933,621.349548,304.940155,623.444031,309.75,619.722351z"/>
    <path transform="matrix(-0.410697,0,0,-0.410697,-976.961914,-373.370697)" style="stroke:#000000;stroke-width:0.05mm;fill:none" d="M355.950775,617.035034C359.290527,614.656921,360.84317,610.560242,359.319916,608.145386C358.783905,607.295654,357.181824,605.731689,355.759735,604.669922C348.66861,599.375671,337.789429,611.68988,343.744476,618.270142C345.958069,620.716125,351.580078,620.147278,355.950775,617.035034z"/>
    <path transform="matrix(-0.410697,0,0,-0.410697,-976.961914,-373.370697)" style="stroke:#000000;stroke-width:0.05mm;fill:none" d="M741.865967,611.913452C747.509399,605.856018,743.948242,595.006897,736.244629,594.787903C732.349854,594.677185,731.077942,595.569214,729.397949,599.589966C727.252869,604.723877,727.663635,607.817444,730.923096,611.076904C734.471558,614.625427,739.015808,614.972839,741.865967,611.913452z"/>
    <path transform="matrix(-0.410697,0,0,-0.410697,-976.961914,-373.370697)" style="stroke:#000000;stroke-width:0.05mm;fill:none" d="M328.102661,609.945068C329.186798,609.364868,331.118347,606.528259,332.39502,603.641479C333.914764,600.205017,336.232635,597.211792,339.108124,594.972229C344.51886,590.758118,344.965546,590.146423,344.98468,586.924316C345.007324,583.11554,340.993164,579.782837,336.859406,580.178467C333.831757,580.468262,333.203735,581.112854,330.5,586.705444C328.850006,590.118469,325.8125,594.637451,323.75,596.74762C319.266327,601.334961,318.868347,604.959229,322.454559,608.545471C325.249786,611.340698,325.417297,611.382202,328.102661,609.945068z"/>
    <path transform="matrix(-0.410697,0,0,-0.410697,-976.961914,-373.370697)" style="stroke:#000000;stroke-width:0.05mm;fill:none" d="M621.75,607.445313C624.13739,604.732361,624.63446,601.054016,623.021118,598.039429C621.979675,596.093506,617.082092,593.996338,613.600769,594.005554C609.513611,594.016418,604.009766,596.113159,602.970337,598.055359C601.29126,601.19281,604.36554,606.469055,609.334106,608.977173C614.416321,611.542664,618.598389,611.026672,621.75,607.445313z"/>
    <path transform="matrix(-0.410697,0,0,-0.410697,-976.961914,-373.370697)" style="stroke:#000000;stroke-width:0.05mm;fill:none" d="M791.545471,600.545471C794.325256,597.765625,794.744873,593.863098,792.467224,591.972778C791.624146,591.273132,787.46167,589.161377,783.217224,587.280029C767.262878,580.208313,765.14563,579.843018,758.251038,582.972595C753.139099,585.29303,751.135315,588.806824,752.818054,592.5C754.190674,595.512573,757.036316,595.721191,764.531006,593.358704C771.433655,591.1828,774.05304,592.018127,779.101379,598.005188C784.030273,603.850586,787.526611,604.56427,791.545471,600.545471z"/>
    <path transform="matrix(-0.410697,0,0,-0.410697,-976.961914,-373.370697)" style="stroke:#000000;stroke-width:0.05mm;fill:none" d="M374,595C378.805908,590.194092,374.19519,581.372009,366.326019,580.316772C362.726868,579.834167,361.781891,580.127197,359.464264,582.444824C357.280365,584.628723,356.889893,585.72937,357.381287,588.316284C358.747223,595.507019,369.263519,599.73645,374,595z"/>
    <path transform="matrix(-0.410697,0,0,-0.410697,-976.961914,-373.370697)" style="stroke:#000000;stroke-width:0.05mm;fill:none" d="M397.055389,592.970337C402.098389,590.271423,403.83429,578.581421,399.825684,574.314453C396.890503,571.190063,393.444244,571.401917,389.923065,574.923096C387.829346,577.016785,387,578.818665,387,581.273865C387,586.468201,388.91333,590.884949,391.856079,592.483582C395.097198,594.244385,394.737762,594.210693,397.055389,592.970337z"/>
    <path transform="matrix(-0.410697,0,0,-0.410697,-976.961914,-373.370697)" style="stroke:#000000;stroke-width:0.05mm;fill:none" d="M957.808472,589.823608C957.978149,588.361023,956.938721,584.839233,955.498657,581.997375C954.058594,579.155579,950.256226,570.456116,947.04895,562.665222C943.841675,554.874329,939.990723,545.799988,938.491211,542.5C936.223999,537.510376,935.629883,534.395081,934.963257,524C933.973206,508.560883,932.768616,504.800934,926.840393,498.644806L922.164917,493.789642L916.832458,494.587341C909.508667,495.682953,907.729248,495.492584,897.461243,492.515167C879.945618,487.436127,873.248352,486.803009,842.100952,487.281525C811.545837,487.750977,806.686035,488.43277,786,495.152283C778.47876,497.595428,758.261169,507.488861,750.099426,512.720154C747.019775,514.694092,741.799988,517.589233,738.5,519.153748C727.234802,524.49469,712.137939,522.381958,698.398376,513.541809C691.359802,509.013092,673.618347,492.079407,671.37207,487.746002C670.586914,486.231293,669.289124,479.706299,668.488037,473.246002C666.515198,457.334869,663.406799,440.35849,660.47821,429.5C659.143188,424.549988,656.419617,413.075012,654.425903,404L650.800964,387.5L651.483521,366.941376C652.082947,348.888763,651.973755,346.223114,650.588074,345.07309C649.275391,343.983673,648.591431,344.037689,646.520874,345.394348C645.151855,346.291382,643.814087,348.032104,643.548096,349.262665C641.61261,358.215668,640.593933,371.601074,640.868958,384.465607C641.177734,398.90976,641.296265,399.641479,644.270264,405.465607C646.845581,410.508972,647.426514,412.968719,647.807373,420.442993C648.191589,427.982941,648.791565,430.48877,651.631531,436.414795C654.744568,442.910614,655,444.18219,655,453.184753C655,460.567932,655.484131,464.154205,657,468C658.441467,471.656982,659,475.432068,659,481.517395L659,489.960724L666.071411,497.730377C676.521545,509.212372,690.102539,520.117065,702,526.578857C716.146729,534.262268,716.490173,534.332458,727.896179,531.875244C741.437805,528.957947,751.133972,524.971924,764.71875,516.737793C778.523804,508.370117,785.815063,505.380951,803.5,500.838867L816.5,497.5L846.5,497.506195C875.99292,497.512299,876.669006,497.558258,886.5,500.224945C892,501.716858,900.880493,503.371979,906.234436,503.903015C917.481873,505.018585,921.319275,506.803406,924.095154,512.210144C926.304443,516.513245,926.485962,521.026855,924.781616,529.278442L923.563232,535.177246L928.686646,544.838623C931.504517,550.152405,935.254639,559.224976,937.020325,565C940.60437,576.72229,943.568848,583.145752,947.613037,587.951965C952.259644,593.474121,957.278137,594.395386,957.808472,589.823608z"/>
    <path transform="matrix(-0.410697,0,0,-0.410697,-976.961914,-373.370697)" style="stroke:#000000;stroke-width:0.05mm;fill:none" d="M314.26709,589.25C317.967102,585.144287,317.493256,582.628418,311.823181,576.273865C308.752197,572.832153,305.483551,567.797852,304.113434,564.399536C300.451752,555.317383,288.297577,532.055298,284.454742,526.774414C282.563416,524.175293,279.27005,521.158081,277.136139,520.069458C273.255432,518.089661,255.418442,514,250.664352,514C247.173889,514,245,516.513184,245,520.548401C245,525.765503,248.080429,527.310242,256.775391,526.453491C269.575806,525.192139,276.807098,530.688904,285.120941,548C302.452789,584.088318,306.571716,591,310.746216,591C311.815308,591,313.399719,590.212524,314.26709,589.25z"/>
    <path transform="matrix(-0.410697,0,0,-0.410697,-976.961914,-373.370697)" style="stroke:#000000;stroke-width:0.05mm;fill:none" d="M98.228714,583.677795C105.208588,580.761414,106.518791,575.009888,101.449341,569.539856C97.168526,564.920776,91.459312,566.695007,87.097389,574C83.08773,580.715027,85.328659,586.69519,91.480522,585.696899C93.203377,585.417297,96.240059,584.508728,98.228714,583.677795z"/>
    <path transform="matrix(-0.410697,0,0,-0.410697,-976.961914,-373.370697)" style="stroke:#000000;stroke-width:0.05mm;fill:none" d="M744.958618,577.12262C752.10376,569.865723,757.911194,567.593628,767.833557,568.173035C773.565979,568.507813,776.274475,569.433655,787.165161,574.781189C794.130981,578.201538,800.473694,581,801.260132,581C802.046509,581,805.4646,579.206665,808.855835,577.014771C823.866638,567.312805,830.409363,565.566711,849,566.30127C867.153259,567.018555,876.519531,569.076782,886.653931,574.575684C895.587952,579.423279,900.293518,580.188599,901.964844,577.065735C903.670654,573.878357,903.156433,571.206665,900.2005,567.898376C897.931152,565.358521,895.895447,564.43042,889.4505,562.997437C885.077698,562.025208,877.674988,560.178345,873,558.893372C865.53833,556.842468,862.240051,556.553589,846,556.528564C825.261108,556.496521,823.440674,556.866943,812.562683,563.33252C806.680725,566.828552,804.612183,567.513062,798.964661,567.832153C791.197815,568.270996,787.66925,566.844482,781.760864,560.876709C779.663452,558.75824,776.821289,556.742249,775.445007,556.396851C769.876892,554.999329,737.646179,565.993652,732.549988,571.02887C730.283569,573.268188,729.936157,579.013245,731.922424,581.406555C734.680908,584.730347,738.801331,583.376282,744.958618,577.12262z"/>
    <path transform="matrix(-0.410697,0,0,-0.410697,-976.961914,-373.370697)" style="stroke:#000000;stroke-width:0.05mm;fill:none" d="M354.065735,571.964844C357.300781,570.233459,356.537415,564.227966,351.679077,553.188782C349.302582,547.788879,345.085388,539.574829,342.307556,534.935364C339.529694,530.295898,336.226837,523.355652,334.967896,519.512512C332.496124,511.967163,328.939758,507.524963,324.473358,506.403961C317.689545,504.701324,316.410217,510.005707,321.55603,518.5C323.555145,521.799988,326.55307,527.200012,328.218048,530.5C329.883026,533.799988,333.628784,540.549988,336.541931,545.5C339.960175,551.308167,342.261688,556.609924,343.031586,560.449402C344.560852,568.075745,345.720276,570.550232,348.364075,571.830383C351.158966,573.183716,351.761658,573.197937,354.065735,571.964844z"/>
    <path transform="matrix(-0.410697,0,0,-0.410697,-976.961914,-373.370697)" style="stroke:#000000;stroke-width:0.05mm;fill:none" d="M329.799988,570.799988C331.942993,568.657043,331.102295,562.743713,327.838043,557C321.436707,545.736267,312.540985,529.235779,308.422516,520.986511C305.509186,515.151184,302.897766,511.448975,300.121002,509.217499C297.892883,507.42691,294.695435,503.964203,293.015564,501.522614C289.738129,496.759003,285.911804,495.016174,278.707855,495.005585C272.680267,494.996704,260.039429,492.05368,254.948608,489.473969C249.952072,486.942017,244.363815,482.19281,228.5,466.996429C223,461.727844,215.350006,455.209167,211.5,452.510529C207.649994,449.811859,199.77388,443.080505,193.997513,437.551941C181.415192,425.509399,174.954453,421,170.283096,421C166.259094,421,162,424.734772,162,428.263428C162,432.707825,164.242172,434.317749,171.474548,435.066345C179.376389,435.884216,182.184967,437.634735,186.725433,444.57196C188.49942,447.282379,190.670227,450.528809,191.549438,451.786224C192.428665,453.043671,196.012436,455.425842,199.513367,457.079956C204.027023,459.212524,209.169022,463.168457,217.189362,470.67868C223.410217,476.503876,230.975006,483.331757,234,485.851776C237.024994,488.371765,242.013565,492.772369,245.085693,495.63089C249.730865,499.953064,251.498856,500.9422,255.585693,501.505432C267.165192,503.101227,279.681458,506.079315,283.928101,508.249146C290.869263,511.795746,297.586243,521.592407,309.735199,545.888611C315.617462,557.652344,321.266083,568.339844,322.287689,569.638611C324.28952,572.183533,327.863892,572.736145,329.799988,570.799988z"/>
    <path transform="matrix(-0.410697,0,0,-0.410697,-976.961914,-373.370697)" style="stroke:#000000;stroke-width:0.05mm;fill:none" d="M378.777496,569.443298C381.71637,567.384827,381.609924,563.843445,378.403473,557C376.986115,553.974976,374.792572,548.799988,373.528931,545.5C372.265259,542.200012,369.154297,535.551514,366.615692,530.725525C364.077057,525.899597,362,521.071167,362,519.995789C362,516.083191,358.757355,509.925873,355.92572,508.461578C351.940155,506.400574,350.287781,506.631165,348.400391,509.511688C346.189636,512.885681,347.083221,516.833862,351.90033,524.975769C359.947113,538.576416,366.145844,552.240295,367.504883,559.372681C368.538818,564.799011,369.481354,567.017273,371.485565,568.741211C374.589569,571.411194,375.801331,571.527893,378.777496,569.443298z"/>
    <path transform="matrix(-0.410697,0,0,-0.410697,-976.961914,-373.370697)" style="stroke:#000000;stroke-width:0.05mm;fill:none" d="M466.759155,568.005432C469.705475,566.208984,473.986847,560.706726,473.996277,558.704529C474.005676,556.69989,468.88504,553,466.101227,553C459.114807,553,454.178955,563.178955,458.883911,567.883911C461.501404,570.501404,462.636627,570.518921,466.759155,568.005432z"/>
    <path transform="matrix(-0.410697,0,0,-0.410697,-976.961914,-373.370697)" style="stroke:#000000;stroke-width:0.05mm;fill:none" d="M400.600281,561.23468C401.205444,560.830627,402.250885,559.455566,402.923492,558.178955C404.011169,556.114624,403.427673,554.400574,397.647034,542.678955C391.541595,530.298706,389.942963,525.768433,388.518646,516.810303C387.874664,512.760071,383.230713,508,379.923279,508C378.865479,508,377.070679,508.929321,375.934845,510.065155C373.263885,512.736084,373.891968,515.753723,379.459625,527C381.774048,531.674988,385.132599,539.325012,386.923035,544C392.209991,557.804626,393.263794,560.046143,394.923157,561.016785C396.837677,562.136719,399.118317,562.224243,400.600281,561.23468z"/>
    <path transform="matrix(-0.410697,0,0,-0.410697,-976.961914,-373.370697)" style="stroke:#000000;stroke-width:0.05mm;fill:none" d="M445.411102,557.923279C448.834686,553.854614,448.88916,548.798218,445.545441,545.454529C439.374237,539.283325,430.533081,545.398315,433.031494,554.109802C435.149567,561.495117,440.911957,563.270203,445.411102,557.923279z"/>
    <path transform="matrix(-0.410697,0,0,-0.410697,-976.961914,-373.370697)" style="stroke:#000000;stroke-width:0.05mm;fill:none" d="M112.315742,557.83667C115.528809,556.125366,116.764595,554.029724,117.518913,549.013184C118.41584,543.048218,119.976288,540.31366,125.323944,535.335815C128.883423,532.022461,130.023697,530.11676,130.904648,526.009033C132.388763,519.088806,133.434998,517.281677,139.015121,512C143.694458,507.570923,143.788879,507.358154,145.006271,498.5C145.686554,493.549988,147.538437,485.608612,149.121567,480.852509C152.475494,470.776489,152.51561,470.174164,150.386261,461.862518C148.87883,455.978424,148.890137,455.048645,150.557846,447.746735C152.250061,440.337555,152.254089,439.6474,150.6353,434.511993C149.489105,430.875854,147.725357,428.009766,145.272232,425.797028C137.385147,418.682831,136.012451,416.757416,133.992844,409.975952C132.304672,404.307373,131.169586,402.439026,127.395973,399.11734C122.204956,394.548035,119,388.980255,119,384.531525C119,382.856445,120.102242,377.479675,121.449417,372.583099C122.7966,367.686523,124.400978,358.464691,125.014717,352.090118C125.628448,345.715546,126.801056,337.350006,127.620514,333.5C128.439972,329.649994,129.542572,323.575012,130.07074,320C130.598923,316.424988,131.856064,312.375,132.86441,311C135.300201,307.678467,140.167023,307.167023,142.94104,309.94104C145.51947,312.51947,145.558517,316.483124,143.061127,322.128906C140.557312,327.789185,139.218353,336.13797,138.015488,353.58963C137.408997,362.38913,136.289963,370.086121,135.03508,374.08963C132.36026,382.623322,132.457275,385.548187,135.516647,388.607544C138.583908,391.674805,141.250076,391.181152,145.357803,386.785339C148.029373,383.926453,148.187225,383.296112,147.78006,377.113556C147.043304,365.926331,148.766647,338.206299,151.082108,324C155.008194,299.911987,154.906418,299.662079,141.373947,300.160187C131.561035,300.521393,128.817596,301.664856,124.815536,307.061798C122.876701,309.676392,118.146751,329.957764,115.052307,348.925232C114.007568,355.328949,112.156342,364.377991,110.938469,369.03418C106.891632,384.506104,107.996964,391.244629,116.509941,403C118.302284,405.475006,121.835068,411.006561,124.360565,415.292358C126.88607,419.578156,130.712646,425.203156,132.864075,427.792358C139.865112,436.217957,140.000717,436.786804,139.993622,457.700348C139.987625,475.39444,139.810043,477.173889,136.973938,487.959412C134.376709,497.836456,132.703033,501.633759,124.853149,515.459412C119.844048,524.281738,113.169403,535.099976,110.020615,539.5C103.01902,549.283752,102,551.174866,102,554.384583C102,558.506714,107.562622,560.368164,112.315742,557.83667z"/>
    <path transform="matrix(-0.410697,0,0,-0.410697,-976.961914,-373.370697)" style="stroke:#000000;stroke-width:0.05mm;fill:none" d="M733,555.843262C737.288696,553.209656,761.001099,544.546387,766.5,543.604187C772.969788,542.495544,775.600281,541.080872,778.955688,536.905518C783.551758,531.18634,785.425964,530.250793,800.171814,526.315247C824.756653,519.753784,824.410217,519.795959,849.5,520.311768C873.801147,520.811401,877.81012,521.40332,897.926208,527.462097C902.560669,528.857971,907.140991,530,908.104797,530C910.874634,530,913,527.156921,913,523.451599C913,518.674988,909.985352,516.981384,900.315369,516.325745C896.016907,516.034241,888.224976,514.604248,883,513.147888C873.801331,510.583984,872.643677,510.5,846.5,510.5L819.5,510.5L805,514.304749C789.198242,518.45105,782.17572,521.267761,775.102356,526.29657C772.571045,528.096191,768.854248,530.525879,766.842834,531.695801C760.42395,535.429382,739.787109,542.776917,731.091492,544.424805C721.381042,546.264954,720,547.120239,720,551.293701C720,557.777649,726.274292,559.973389,733,555.843262z"/>
    <path transform="matrix(-0.410697,0,0,-0.410697,-976.961914,-373.370697)" style="stroke:#000000;stroke-width:0.05mm;fill:none" d="M705.698303,554.498779C708.407043,552.601501,709.640198,547.476318,707.894226,545.372559C707.188721,544.522522,703.133423,542.078247,698.882385,539.940857C686.084778,533.506348,664.779419,516.600525,655.191528,505.272156C649.36145,498.383759,646.575134,497.424896,642.943054,501.056976C641.451416,502.548615,640.970459,504.127075,641.193054,506.800171C641.474915,510.185394,642.165588,510.936096,649.650635,515.993225C654.133545,519.021973,659.669617,523.207703,661.953186,525.294861C664.236694,527.382019,671.368896,532.962585,677.80249,537.696106C684.236145,542.429688,691.835571,548.484497,694.690125,551.151306C700.193604,556.292664,702.246033,556.916809,705.698303,554.498779z"/>
    <path transform="matrix(-0.410697,0,0,-0.410697,-976.961914,-373.370697)" style="stroke:#000000;stroke-width:0.05mm;fill:none" d="M504.545441,550.545471C509.710815,545.380127,506.743378,541.531738,496.447693,540.043762C483.483459,538.170044,479.75,539.135376,479.75,544.361145C479.75,549.879028,485.307129,552.660583,496.795441,552.892883C501.167908,552.981323,502.518738,552.572144,504.545441,550.545471z"/>
    <path transform="matrix(-0.410697,0,0,-0.410697,-976.961914,-373.370697)" style="stroke:#000000;stroke-width:0.05mm;fill:none" d="M421.545441,546.545471C425.250671,542.84021,424.725494,540.306335,418.691711,532.776611C416.139893,529.592163,415.603577,527.864929,414.986176,520.842834C414.389221,514.05304,413.876221,512.318176,412.021362,510.816223C407.30896,507.000336,401.520752,510.076355,401.697235,516.302734C401.810242,520.289063,411.487701,543.688721,414.289398,546.75C416.92627,549.631165,418.504242,549.58667,421.545441,546.545471z"/>
    <path transform="matrix(-0.410697,0,0,-0.410697,-976.961914,-373.370697)" style="stroke:#000000;stroke-width:0.05mm;fill:none" d="M224.738998,544.442749C227.561417,543.036316,231.474777,540.109985,233.435333,537.93988C238.194473,532.672119,238.133057,529.686401,233.212234,527.094299C229.881516,525.339844,227.044739,526.618286,222.240051,532.039185C217.058807,537.884888,214.03064,538.728088,206.266647,536.487122C193.828003,532.89679,180.826889,523.135437,172.65004,511.247437C166.467361,502.258698,166.291092,497.109741,171.931793,490.266571C175.502014,485.935272,175.885941,481.885956,173,479C170.506226,476.506226,165.839874,476.41449,163.666077,478.816498C161.707306,480.980896,156.76947,502.0289,157.199036,506.382813C157.42807,508.704224,158.694885,510.33374,162.5,513.201538C167.490616,516.962769,168.340088,518.289856,171.495605,527.255066C173.151398,531.959351,173.293823,532.070435,184.834641,537.65979C205.108887,547.478882,215.203064,549.194702,224.738998,544.442749z"/>
    <path transform="matrix(-0.410697,0,0,-0.410697,-976.961914,-373.370697)" style="stroke:#000000;stroke-width:0.05mm;fill:none" d="M467.75,541.010986C472.668884,538.011841,471.842987,532.521545,466.02002,529.510376C459.472107,526.124268,452.971893,528.573914,453.031799,534.404968C453.107391,541.760986,460.832855,545.228394,467.75,541.010986z"/>
    <path transform="matrix(-0.410697,0,0,-0.410697,-976.961914,-373.370697)" style="stroke:#000000;stroke-width:0.05mm;fill:none" d="M156.434906,535.02478C158.36795,534.289795,159,533.340637,159,531.172607C159,527.349792,155.127075,521.768677,151.61792,520.534607C149.098648,519.648621,148.482452,519.89563,145.843155,522.849487C140.355484,528.991272,143.181763,535.941345,151.184906,535.985229C152.661591,535.993347,155.024094,535.561157,156.434906,535.02478z"/>
    <path transform="matrix(-0.410697,0,0,-0.410697,-976.961914,-373.370697)" style="stroke:#000000;stroke-width:0.05mm;fill:none" d="M441.685547,529.825684C444.59436,527.093018,444.680664,522.837402,441.917969,518.36731C438.128479,512.235779,433.423492,510.401794,429.828735,513.654968C427.733063,515.551575,427.351563,521.872437,429.124969,525.315735C432.564728,531.994446,437.493317,533.764099,441.685547,529.825684z"/>
    <path transform="matrix(-0.410697,0,0,-0.410697,-976.961914,-373.370697)" style="stroke:#000000;stroke-width:0.05mm;fill:none" d="M534.188538,522.98175C561.550415,513.527283,564.414917,513.039551,595,512.62793C622.909546,512.252319,627.29248,511.528717,629.904968,506.865234C631.227417,504.504608,631.203796,503.959991,629.677856,501.631104C627.069153,497.649719,623.94812,497.395691,617.299438,500.623566C612.930542,502.744629,610.143311,503.412933,606,503.332886C562.45697,502.491547,565.285278,502.149506,537,511.677948C513.921692,519.452332,509.296509,519.854492,492,515.590881C472.66214,510.824036,467.273926,512.947632,475.845154,521.957886L479.690338,526L488.595154,526.061096C494.425659,526.101074,499.398834,526.756165,503,527.958496C506.024994,528.968506,509.709839,529.841003,511.188507,529.8974C512.667175,529.953857,523.017212,526.841797,534.188538,522.98175z"/>
    <path transform="matrix(-0.410697,0,0,-0.410697,-976.961914,-373.370697)" style="stroke:#000000;stroke-width:0.05mm;fill:none" d="M213.800003,522.799988C216.888382,519.711609,214.720779,516.215149,205.54689,509.487427C203.372696,507.892944,198.843796,503.756012,195.482666,500.294189C187.289154,491.855225,182.000504,491.720215,181.999619,499.950012C181.999268,503.083862,182.90773,504.355316,189.749619,510.796661C194.012329,514.809814,199.489655,519.422302,201.921448,521.046631C206.544968,524.134949,211.703583,524.896423,213.800003,522.799988z"/>
    <path transform="matrix(-0.410697,0,0,-0.410697,-976.961914,-373.370697)" style="stroke:#000000;stroke-width:0.05mm;fill:none" d="M467.244293,514.869263C469.608948,513.60376,468.319611,511.213196,463,507C457.65921,502.77002,456.635254,500.721436,456.018646,493.032867C455.55899,487.301392,455.192383,486.393677,452.795837,485.053375C450.297882,483.656403,449.878448,483.701324,447.295837,485.642456C444.744232,487.560272,444.500854,488.301025,444.509766,494.121918C444.518707,499.968994,444.870392,501.012634,448.733948,506.657104C454.519989,515.110352,457.49118,517.318054,461.954712,516.480652C463.884369,516.118652,466.264679,515.393555,467.244293,514.869263z"/>
    <path transform="matrix(-0.410697,0,0,-0.410697,-976.961914,-373.370697)" style="stroke:#000000;stroke-width:0.05mm;fill:none" d="M234.433731,513.848267C239.930191,511.343872,238.904892,506.533325,231.669891,500.880707C228.826447,498.659149,220.491898,491.364685,213.148682,484.670776C199.231247,471.983948,192.752548,467,190.178253,467C187.339493,467,185,470.162537,185,474C185,478.48056,186.904953,480.407654,193.582901,482.682617C197.067993,483.869904,200.439041,486.271454,205.158157,490.928864C208.820145,494.542999,214.220154,499.789734,217.158157,502.588287C220.096176,505.38681,223.898911,509.32431,225.608704,511.338287C228.9263,515.246033,230.428299,515.673218,234.433731,513.848267z"/>
    <path transform="matrix(-0.410697,0,0,-0.410697,-976.961914,-373.370697)" style="stroke:#000000;stroke-width:0.05mm;fill:none" d="M533.552185,498.983002C543.715515,495.673645,555.286438,492.272461,559.265442,491.424835C566.804749,489.818726,585.992554,489.171265,601.560303,489.99765C611.919312,490.547516,616,488.997314,616,484.512146C616,479.97995,613.410706,479.512177,588.5,479.544037C562.086304,479.57782,561.341309,479.698578,535,488.215485L516.5,494.197083L506,493.708344C498.190216,493.344818,493.597595,492.550964,488.07486,490.609802C480.200684,487.842163,472.189667,487.210358,470.200012,489.200012C468.314758,491.085236,468.788574,494.479797,471.317871,497.208954C473.279144,499.325226,474.886566,499.819092,481.767059,500.419281C486.239288,500.809387,492.733765,501.965271,496.199188,502.987854C507.45929,506.310547,512.810852,505.736786,533.552185,498.983002z"/>
    <path transform="matrix(-0.410697,0,0,-0.410697,-976.961914,-373.370697)" style="stroke:#000000;stroke-width:0.05mm;fill:none" d="M429.511688,500.987091C433.326508,496.771729,431.023926,486.094543,425.952911,484.485046C422.811157,483.487915,418.330536,485.787781,416.957611,489.102295C415.346222,492.992615,416.40741,499.065369,419.080383,501.25C421.996277,503.633179,427.236542,503.501099,429.511688,500.987091z"/>
    <path transform="matrix(-0.410697,0,0,-0.410697,-976.961914,-373.370697)" style="stroke:#000000;stroke-width:0.05mm;fill:none" d="M346.428558,500.428558C349.228088,497.629059,348.146332,489.289185,344.512329,485.655182C339.087097,480.22995,328.335114,489.1521,332.014099,496.026367C333.188049,498.219879,340.163788,501.938599,343.178558,501.978027C344.101776,501.990112,345.564301,501.292847,346.428558,500.428558z"/>
    <path transform="matrix(-0.410697,0,0,-0.410697,-976.961914,-373.370697)" style="stroke:#000000;stroke-width:0.05mm;fill:none" d="M372.925934,500.589233C373.569916,499.813293,374.344116,497.654388,374.646393,495.791656C375.247284,492.088745,374.397858,489.909668,367.710999,478C363.92746,471.261353,363.163452,470.467682,360.184662,470.181763C353.523468,469.542389,351.985687,474.862183,356.897644,481.553009C358.491333,483.723846,360.312378,487.524994,360.944397,490C363.398499,499.610077,365.062836,501.904358,369.627563,501.969604C370.797699,501.986328,372.281982,501.365143,372.925934,500.589233z"/>
    <path transform="matrix(-0.410697,0,0,-0.410697,-976.961914,-373.370697)" style="stroke:#000000;stroke-width:0.05mm;fill:none" d="M402.530396,496.941254C404.670288,492.803131,404.336121,489.245209,401.545441,486.454559C396.452271,481.361389,387,484.98764,387,492.034729C387,500.993347,398.548279,504.641785,402.530396,496.941254z"/>
    <path transform="matrix(-0.410697,0,0,-0.410697,-976.961914,-373.370697)" style="stroke:#000000;stroke-width:0.05mm;fill:none" d="M315.421539,497.75C316.22876,496.512512,317.386383,493.271667,317.99408,490.548126C320.334534,480.058655,324.594635,475.458618,335.146332,472.027191C342.650757,469.586761,343.343048,469.179291,344.850281,466.315735C347.352814,461.561371,345.02948,456,340.540802,456C337.922485,456,331.260406,460.156128,324.373505,466.085938C315.530487,473.700043,302,488.818604,302,491.085419C302,492.248444,303.529999,494.730011,305.399994,496.600006C309.43399,500.634003,313.254395,501.072388,315.421539,497.75z"/>
    <path transform="matrix(-0.410697,0,0,-0.410697,-976.961914,-373.370697)" style="stroke:#000000;stroke-width:0.05mm;fill:none" d="M643.545471,486.545441C646.385437,483.705444,646.788208,478.822205,644.612,473.6138C643.040771,469.853394,640.916443,468.97226,636.332886,470.17984C629.922607,471.868652,625.723511,480.764252,629.25,485.18454C632.789795,489.62149,639.80188,490.289032,643.545471,486.545441z"/>
    <path transform="matrix(-0.410697,0,0,-0.410697,-976.961914,-373.370697)" style="stroke:#000000;stroke-width:0.05mm;fill:none" d="M291.049652,481.474335C292.672333,480.635193,294,479.586884,294,479.144745C294,477.653931,305.396088,465.733246,314.971008,457.208374C323.671692,449.461853,326.773468,447.522156,338.412476,442.549103C340.564362,441.629669,344.905762,438.849823,348.060059,436.371643C354.457123,431.345825,360.879272,429,368.241302,429C371.659027,429,375.356842,428.006042,380.332397,425.75C387.234802,422.620239,387.999451,422.496613,401,422.408722C408.424988,422.35849,416.072021,421.79599,417.993408,421.158722C423.371948,419.374725,429.026184,419.765442,437.403259,422.5C442.542084,424.17749,447.314301,425,451.908234,425C455.673767,425,461.847382,425.64679,465.62735,426.437286C484.464325,430.376648,505.736938,433.221344,512.548584,432.711884C524.193787,431.840912,545.306702,423.835388,547.01123,419.644501C547.490967,418.465027,548.166565,414.916687,548.512512,411.759308C548.990845,407.394043,550.023132,404.758484,552.820801,400.759308C556.499084,395.501312,556.499939,395.49762,556.238647,386C555.8526,371.965576,558.261414,353.897614,561.915466,343.420105C565.300232,333.71463,565.591675,329.696136,563.806335,317.34787C562.773499,310.204651,562.844238,308.108643,564.330994,301.79599C565.998108,294.717865,565.988281,294.261261,564.002808,286.504486C562.499939,280.633087,562.127258,276.997253,562.600037,272.818573C563.919434,261.156677,568.973999,257.485413,582.71759,258.206757C590.246521,258.601929,591.423889,258.959503,596.33667,262.343079C600.04425,264.896576,602.302185,265.83609,603.607178,265.368256C606.550964,264.312897,618.736084,255.130066,619.364014,253.493805C620.43103,250.713257,616.265503,249.742264,606.432617,250.479462C599.520386,250.997696,594.388733,250.724716,586.401001,249.41391C569.281067,246.604462,559.794128,249.019257,555.709961,257.225952C554.144836,260.37085,553.796814,265.577332,552.939941,298.661407C552.307434,323.082764,551.429443,339.691315,550.463867,345.5C549.640991,350.450012,548.115234,361.924988,547.073181,371C545.022827,388.857239,541.7901,404.435699,538.980225,410C535.630859,416.63269,530.837708,419.320526,518.532349,421.4664C508.452026,423.224243,504.924896,422.852875,461.348907,415.445404C437.961182,411.469757,433.520294,411,419.322662,411C399.397919,411,390.745209,412.085114,371.130341,417.043579C358.472015,420.24353,353.140686,422.183716,343.091919,427.247406C323.992523,436.871826,311.958435,445.263733,300.5,456.948639C289.088379,468.585754,284.894623,471.206665,277.773499,471.151489C268.832031,471.082245,261.519562,466.668365,247.169235,452.678497C240.201157,445.885468,227.975006,435.112671,220,428.738983C212.024994,422.365295,200.754028,412.480621,194.953415,406.773041C186.103653,398.065247,183.664902,394.956055,179.795456,387.447815C173.471497,375.17691,172.102249,369.70282,171.167816,352.955811C169.923981,330.663208,172.08136,316.892059,179.115952,302.22049C182.727478,294.688141,184.59346,292.431061,199.792862,277.209717C208.981796,268.007538,218.651978,259.019897,221.282181,257.237152C226.708649,253.559158,227.808441,251.679031,225.887436,249.36438C224.773087,248.021652,222.933792,247.832108,214.813583,248.223114C209.049713,248.500671,204.448395,249.212906,203.53801,249.968445C202.508301,250.823044,202,252.995087,202,256.540649C202,259.453339,201.720932,262.56369,201.379837,263.452545C201.038742,264.3414,197.414551,267.586273,193.32608,270.663361C189.23761,273.740417,183.779175,278.755249,181.196243,281.807373C178.613312,284.859497,174.137497,289.972534,171.25,293.169678C166.213776,298.745941,165.998642,299.217102,165.966797,304.741302C165.948532,307.9086,165.017456,314.774994,163.89772,320C162.325394,327.336975,161.735367,334.777618,161.306335,352.679108C161.000809,365.427643,161.058136,377.496399,161.433762,379.498566C161.929535,382.141266,163.718231,384.695679,167.960617,388.819458C172.373657,393.1091,174.084793,395.601837,174.949051,399C177.022644,407.153046,177.937653,408.496033,183.782639,411.96521C186.927185,413.831604,194,419.693237,199.5,424.991089C205,430.288971,214.000916,438.015198,219.502029,442.160522C225.003143,446.305878,230.178146,450.514496,231.002029,451.513062C235.655762,457.153442,257.383881,475.960175,261.460693,477.876526C264.084991,479.110077,270.342438,480.719177,275.366089,481.45224C287.542236,483.229034,287.656097,483.229187,291.049652,481.474335z"/>
    <path transform="matrix(-0.410697,0,0,-0.410697,-976.961914,-373.370697)" style="stroke:#000000;stroke-width:0.05mm;fill:none" d="M534,475.037506C557.843262,467.18158,559.20929,466.936157,582.5,466.323975C600.118469,465.86087,604.517578,466.039185,609.819397,467.431366C616.789734,469.261658,619.45575,468.885406,621.084778,465.841553C622.499573,463.198029,620.679504,458.622192,617.682434,457.287659C614.762512,455.987488,572.654785,455.732574,562.219299,456.951874C556.843323,457.580017,548.073669,459.911041,537.219299,463.596985C516.752014,470.547333,507.861481,471.494476,494,468.201385C479.7789,464.822845,465.800873,462.86499,462.5,463.789246C458.477692,464.915527,456.649811,468.696991,458.107056,472.877289C459.552734,477.024353,462.464691,477.637695,470.448212,475.476654C477.493256,473.569641,477.693054,473.596069,493.5,478.52655C505.635559,482.311829,514.147522,481.578522,534,475.037506z"/>
    <path transform="matrix(-0.410697,0,0,-0.410697,-976.961914,-373.370697)" style="stroke:#000000;stroke-width:0.05mm;fill:none" d="M389.025696,473.472656C391.942963,470.36734,392.188324,464.970581,389.545013,462.049744C384.991394,457.018036,375.090607,461.703094,376.403656,468.268219C377.843262,475.466278,384.553497,478.233093,389.025696,473.472656z"/>
    <path transform="matrix(-0.410697,0,0,-0.410697,-976.961914,-373.370697)" style="stroke:#000000;stroke-width:0.05mm;fill:none" d="M415.927429,473.365143C418.82135,469.686096,418.768951,462.447388,415.825684,459.314453C413.206421,456.526367,409.06662,456.315735,405.981903,458.813568C402.621399,461.53476,402.061218,469.559998,404.974213,473.25C407.941772,477.009125,413.019104,477.062469,415.927429,473.365143z"/>
    <path transform="matrix(-0.410697,0,0,-0.410697,-976.961914,-373.370697)" style="stroke:#000000;stroke-width:0.05mm;fill:none" d="M443.411102,472.923279C448.498474,466.877258,445.585541,458,438.514252,458C432.903046,458,428.97052,463.743774,430.469513,469.75C432.192078,476.6521,438.891296,478.294769,443.411102,472.923279z"/>
    <path transform="matrix(-0.410697,0,0,-0.410697,-976.961914,-373.370697)" style="stroke:#000000;stroke-width:0.05mm;fill:none" d="M175.101257,464.447632C176.752319,463.593842,178.468155,461.908661,178.91423,460.70282C180.719986,455.821381,175.05098,448.369354,168.754425,447.347565C163.805893,446.544525,161.453995,449.999817,162.375076,456.719788C163.494354,464.885834,168.442917,467.890808,175.101257,464.447632z"/>
    <path transform="matrix(-0.410697,0,0,-0.410697,-976.961914,-373.370697)" style="stroke:#000000;stroke-width:0.05mm;fill:none" d="M368.385132,455.911713C371.207092,453.691956,374,449.070679,374,446.621094C374,440.13681,360.411682,440.84729,355.092377,447.60968C352.294403,451.166718,352.444305,452.354614,356.076721,455.411102C359.868164,458.601379,364.715118,458.798523,368.385132,455.911713z"/>
    <path transform="matrix(-0.410697,0,0,-0.410697,-976.961914,-373.370697)" style="stroke:#000000;stroke-width:0.05mm;fill:none" d="M640.799988,456.799988C643.87262,453.727386,641.127502,440.250977,636.904785,437.677643C633.97699,435.893402,629.988525,437.783203,628.336304,441.737518C626.475342,446.191467,627.782898,451.873779,631.531311,455.622223C634.101196,458.192108,638.80957,458.790405,640.799988,456.799988z"/>
    <path transform="matrix(-0.410697,0,0,-0.410697,-976.961914,-373.370697)" style="stroke:#000000;stroke-width:0.05mm;fill:none" d="M537.067993,449.906128L555.5,443.568237L584.731628,443.421844C606.591919,443.312347,614.346069,442.957672,615.481628,442.015259C617.661316,440.206238,617.35376,435.35376,614.904114,432.904114C612.585449,430.585449,609.215088,430.614746,600.83606,433.026398C596.701233,434.216492,595.478455,434.158752,590.057312,432.517334C583.94989,430.668182,583.933472,430.668732,576.564209,432.979858C569.18634,435.293671,569.185486,435.293701,562.129639,433.463654L555.073364,431.633484L546.286682,435.758575C526.005432,445.280029,510.73053,447.895996,494.5,444.627594C485.282623,442.771454,460.752594,438.943939,453.7211,438.264709C448.255646,437.736755,446,439.029053,446,442.688171C446,446.229858,447.639801,448.76236,451.087341,450.545166C453.682922,451.88739,455.142731,451.942047,461.307709,450.927856C468.121094,449.807007,469.395599,449.933838,485.5,453.335327C509.424988,458.388611,513.112183,458.143402,537.067993,449.906128z"/>
    <path transform="matrix(-0.410697,0,0,-0.410697,-976.961914,-373.370697)" style="stroke:#000000;stroke-width:0.05mm;fill:none" d="M399.908813,448.54715C401.45401,447.748108,403.311859,445.661346,404.037323,443.909912C405.151001,441.221252,405.129028,440.318787,403.896332,438.112762C402.720398,436.008392,401.566925,435.436523,397.96814,435.173737C391.932434,434.733002,386.341858,436.548645,384.343445,439.598602C382.790741,441.968323,382.811096,442.270935,384.693878,444.807251C388.465942,449.888641,394.463715,451.362915,399.908813,448.54715z"/>
    <path transform="matrix(-0.410697,0,0,-0.410697,-976.961914,-373.370697)" style="stroke:#000000;stroke-width:0.05mm;fill:none" d="M432.600006,445.600006C439.25415,438.945862,436.060913,433.547668,425.452972,433.517883C417.956543,433.496857,415.641815,435.09433,415.785645,440.189606C415.913666,444.725189,420.683258,449,425.615784,449C428.358612,449,429.998138,448.201874,432.600006,445.600006z"/>
    <path transform="matrix(-0.410697,0,0,-0.410697,-976.961914,-373.370697)" style="stroke:#000000;stroke-width:0.05mm;fill:none" d="M633,425C634.099976,423.899994,634.997498,421.987488,634.994446,420.75C634.985596,417.189392,632.947083,410.664093,631.245605,408.75C629.153442,406.396362,624.853638,406.54068,621.634888,409.072571C619.534729,410.724548,619,411.998505,619,415.350067C619,420.34024,621.098511,423.700409,625.378296,425.56308C629.615479,427.407196,630.670776,427.329224,633,425z"/>
    <path transform="matrix(-0.410697,0,0,-0.410697,-976.961914,-373.370697)" style="stroke:#000000;stroke-width:0.05mm;fill:none" d="M575.75,418.74472C577.007263,417.575012,578,415.464111,578,413.960541C578,408.396667,570.404846,402.642578,566.101074,404.945892C560.725891,407.822632,559.328613,418.330811,564,420.747192C567.227661,422.416748,572.829224,421.462128,575.75,418.74472z"/>
    <path transform="matrix(-0.410697,0,0,-0.410697,-976.961914,-373.370697)" style="stroke:#000000;stroke-width:0.05mm;fill:none" d="M603.4552,419.378815C604.34552,419.03717,605.730835,417.487457,606.53363,415.935028C609.455688,410.284271,604.195435,404.219757,597.337219,405.332703C590.229492,406.486145,586.523621,413.606171,590.654968,418.171265C592.333191,420.025696,599.90741,420.740234,603.4552,419.378815z"/>
    <path transform="matrix(-0.410697,0,0,-0.410697,-976.961914,-373.370697)" style="stroke:#000000;stroke-width:0.05mm;fill:none" d="M161.179016,411.974823C164.500412,408.653442,164.489944,406.314087,161.12767,400.505493C158.705521,396.321045,154.948196,395.177399,150.535706,397.281586C144.921432,399.958832,144.53595,405.918182,149.588608,411.922943C153.057907,416.045959,157.089828,416.064026,161.179016,411.974823z"/>
    <path transform="matrix(-0.410697,0,0,-0.410697,-976.961914,-373.370697)" style="stroke:#000000;stroke-width:0.05mm;fill:none" d="M591.351196,394.093231C594.289917,391.15451,592.644348,388.259735,586.487122,385.536743C579.279297,382.34906,577.527588,378.992645,578.365723,369.975006C579.442932,358.384186,579.997253,356.959259,585.613892,351.342651L590.904358,346.052155L590.801331,324.276062C590.744629,312.299225,590.300293,301.712494,589.813965,300.75C588.536072,298.221161,581.618958,298.381073,579,301C576.506226,303.493744,576.393127,308.85141,578.608032,319.561554C580.871155,330.505127,580.167297,337.101593,575.776978,346.091064C570.93158,356.012482,570.068604,359.558655,569.337219,372.553406C568.428711,388.696167,569.924011,392.005096,579.759094,395.615021C584.217285,397.251404,588.793823,396.650604,591.351196,394.093231z"/>
    <path transform="matrix(-0.410697,0,0,-0.410697,-976.961914,-373.370697)" style="stroke:#000000;stroke-width:0.05mm;fill:none" d="M621.216248,395.956726C626.22522,394.565613,628,392.551239,628,388.257324C628,380.590637,622.53833,379.091125,612.283691,383.942383C607.63562,386.141296,605.904602,387.531891,605.422058,389.45459C603.934448,395.381561,611.730713,398.591125,621.216248,395.956726z"/>
    <path transform="matrix(-0.410697,0,0,-0.410697,-976.961914,-373.370697)" style="stroke:#000000;stroke-width:0.05mm;fill:none" d="M602.02002,375.489655C607.890808,372.453766,608.814392,365.660522,604.009583,360.855743C600.052063,356.898193,596.402344,357.252777,593.282288,361.897888C590.232056,366.439026,590.2995,371.390411,593.454529,374.545441C596.300781,377.391663,597.983276,377.577148,602.02002,375.489655z"/>
    <path transform="matrix(-0.410697,0,0,-0.410697,-976.961914,-373.370697)" style="stroke:#000000;stroke-width:0.05mm;fill:none" d="M627.853882,367.25C628.45697,365.737488,629.390198,361.799988,629.927673,358.5C631.480835,348.964844,634.002502,337.863831,635.0672,335.87439C637.23761,331.81897,641.866211,331.014801,647.519958,333.710907C652.333313,336.006226,653.709167,334.970856,657.157166,326.458832C661.604736,315.479218,668.182983,306.823395,679.406982,297.181976C696.663086,282.358948,701,277.746429,701,274.216705C701,272.143463,700.262268,270.59671,698.777466,269.556702C696.268372,267.799225,688.47876,267.487274,684.535828,268.986359C682.014343,269.945038,681.959778,270.151123,682.592285,276.324982C683.008484,280.387177,682.832703,283.444061,682.104736,284.804321C681.478577,285.974243,677.860046,288.745605,674.063477,290.962921C665.646729,295.878571,660.971375,301.148773,656.287964,311C654.326904,315.125,651.806396,319.512512,650.68689,320.75C648.104431,323.604614,642.483521,323.724854,639,321C633.911682,317.019836,632.33905,318.869537,627.5224,334.5C625.488525,341.100006,622.289001,349.538055,620.412231,353.25119C618.535522,356.964355,617,361.351868,617,363.00119C617,369.453735,625.628418,372.83136,627.853882,367.25z"/>
    <path transform="matrix(-0.410697,0,0,-0.410697,-976.961914,-373.370697)" style="stroke:#000000;stroke-width:0.05mm;fill:none" d="M642.402039,308.898407C643.871521,307.742523,646.464172,304.030029,648.163574,300.648407C652.795593,291.431,654.379395,289.5896,661.984802,284.579132C668.873535,280.040833,672.682739,275.221588,671.60376,272.409729C670.11676,268.534821,658.531006,273.444183,650.032532,281.550385C637.159302,293.829376,630.298401,318.419128,642.402039,308.898407z"/>
    <path transform="matrix(-0.410697,0,0,-0.410697,-976.961914,-373.370697)" style="stroke:#000000;stroke-width:0.05mm;fill:none" d="M590.598694,287.568542C593.298889,285.677246,595.425293,278.663177,594.067566,276.12619C592.854126,273.858948,586.11261,271,581.979736,271C577.527222,271,574.634949,274.362976,575.341736,278.718353C576.146606,283.678223,578.500305,286.798187,582.255188,287.882568C586.921082,289.230011,588.30072,289.178101,590.598694,287.568542z"/>
</svg>
