<?xml version="1.0" encoding="UTF-8"?>
<svg xmlns="http://www.w3.org/2000/svg" width="253.603mm" height="400.000mm" viewBox="-1448.034302 -700.179688 253.603149 399.999908">
    <path transform="matrix(-0.410099,0,0,-0.410099,-1111.065674,-290.080688)" style="stroke:#000000;stroke-width:0.05mm;fill:none" d="M431.200012,998.799988C429.459656,997.059692,429.71405,995.305786,432.193146,991.952637C433.861115,989.696594,434.107574,988.707581,433.222382,987.822388C432.337189,986.937195,430.319519,987.357849,424.796417,989.579224C418.165558,992.246155,416.489807,992.49884,405.517151,992.486694C389.874451,992.469421,379.639008,989.89563,363.5,981.921143C337.969971,969.306458,321.25827,955.219116,303.292175,931.168152C296.50116,922.077148,285.678101,902.026489,279.720673,887.5C275.633118,877.532959,269.652313,857.625916,268.454315,850C268.065491,847.525024,266.657288,842.248901,265.324982,838.275269C263.437622,832.646362,263.141968,830.60321,263.986481,829.025269C265.625458,825.96283,268.597076,826.585571,271.707367,830.643372C273.243317,832.647217,278.254456,838.384705,282.843201,843.393372C292.425018,853.851929,303.340118,867.210571,311.70285,878.713806C314.891266,883.099609,320.018188,889.797241,323.095947,893.597534C328.302704,900.02655,329.184875,900.665894,335.779633,902.789856C339.677856,904.045349,347.284668,905.495972,352.683655,906.013428C358.082642,906.530884,365.649994,907.39978,369.5,907.944397C379.057404,909.296326,380.618164,909.239014,382.386078,907.471069C384.525909,905.331238,383.545471,903.579468,377.963318,899.569092C375.106384,897.516602,371.041382,893.007141,368.043976,888.565125C358.186279,873.956665,358.672485,872.831421,375.283569,871.810852C391.887909,870.79071,400.991516,869.405579,410.190125,866.499756C416.302124,864.56897,419.471802,864.069519,422.464935,864.565552C428.852844,865.624207,438.265747,869.492065,444.455078,873.601563C448.989044,876.611938,451.326996,877.468384,455.917267,877.800415C461.249115,878.186096,461.846405,878.010681,463.841888,875.473877C466.567657,872.008606,466.544189,871.453308,463.545441,868.454529C461.564728,866.473816,460.068726,865.996216,455.795441,865.980286C452.431671,865.967712,447.399384,864.837708,442,862.882385C425.931488,857.063477,422.841736,856.547791,411.248627,857.750122C400.385376,858.87677,398.825409,858.750244,375.644653,854.862427C338.323761,848.603088,307.601135,832.438843,278.165649,803.575256C251.800018,777.721924,235.217087,752.446716,221.036011,716.5C218.215317,709.349976,215.505142,701.924988,215.013397,700C214.521652,698.075012,213.022018,692.224976,211.680893,687C205.330307,662.258362,202.634247,638.515808,203.408615,614.151062C204.1474,590.906006,205.282837,574.374207,206.20343,573.459045C207.879822,571.792603,211.747559,574.309692,215,579.183838C216.925003,582.068604,221.390625,587.59491,224.923615,591.464478C228.456589,595.333984,234.503754,602.775024,238.361755,608C242.219757,613.224976,247.249084,619.75,249.53804,622.5C255.238007,629.348083,269.072815,651.25116,274.803497,662.5C275.924286,664.700012,279.287384,668.895813,282.277069,671.824036C286.946045,676.397034,288.177399,677.102417,291.005585,676.824036C294.908722,676.439941,296.540497,674.289673,295.642914,670.713318C295.007874,668.183228,293.720856,666.776123,285.539063,659.666931C281.741882,656.367554,281.561798,655.936584,281.183624,649.243896C280.752045,641.606079,281.958801,638,284.946289,638C286.894409,638,291.984833,643.2724,292.020172,645.326721C292.031281,645.972046,294.660217,650.034912,297.862274,654.355408C312.291382,673.824341,321.089691,699.743286,316.958191,710.609985C316.385193,712.117065,314.360199,715.072693,312.458191,717.177979C306.97937,723.242371,308.535919,728,315.99884,728C322.323761,728,323.379913,725.7099,324.875763,708.751831C326.029938,695.667297,325.983917,693.470886,324.401398,686.106506C323.124603,680.164795,322.94812,677.651917,323.751221,676.848755C325.573883,675.026123,329.702484,676.782532,331.880981,680.307434C334.967407,685.301392,351.984833,700.510803,359.69397,705.165466C363.437286,707.425659,368.402435,711.013,370.727661,713.137451C376.951782,718.824036,383,717.811829,383,711.083557C383,707.319214,381.270142,706.00116,368.501251,700.035828C353.271454,692.920898,351.472534,690.981812,348.986115,679C342.6604,648.517212,339.45871,604.496094,340.476563,562C341.631317,513.787292,349.259888,472.002258,362.47583,441.5C364.858856,436,367.313568,429.607758,367.930725,427.295013C368.547882,424.982239,369.748108,422.394745,370.59787,421.545013C374.282471,417.860382,377.217773,420.939117,378.850342,430.200745C379.499969,433.886169,381.151062,440.186157,382.519409,444.200745C383.887756,448.215332,386.572815,459.149994,388.486176,468.5C390.399567,477.850006,392.658295,488.649994,393.505615,492.5C396.656982,506.819061,400.429596,543.350403,399.768524,553.145508C399.462067,557.686096,398.645294,559.868652,395.595184,564.297241C391.120605,570.794189,391.372772,573.42218,396.683746,575.641235C401.425934,577.62262,402.260803,576.723755,405.942474,565.672668C408.302185,558.5896,409.043396,554.482483,409.189697,547.679138C409.405609,537.63916,410.423065,535.38739,414.30368,536.361389C416.542694,536.92334,417.283539,538.173035,419.457703,545.05542C420.854218,549.476196,422.677856,554.410156,423.510254,556.019836C432.053192,572.540039,443.615204,622.832275,444.705383,648.214111C445.237976,660.613525,446.079437,662.744324,449.957397,661.513489C453.022614,660.540649,458,656.0448,458,654.249023C458,653.383728,457.271851,650.365906,456.381927,647.542664C454.34613,641.084351,455.447205,628.369019,458.191467,626.646057C460.569397,625.153076,463.773987,628.260925,464.626984,632.887268C464.993317,634.874268,467.782043,643.700012,470.824097,652.5C475.577667,666.250977,476.372559,669.606018,476.47934,676.368469C476.582825,682.924133,476.928589,684.475098,478.551758,685.664307C480.291046,686.938538,480.687683,686.860352,482.25,684.935059C483.212494,683.748901,484,681.728821,484,680.445923C484,677.405518,487.532379,674.896423,490.365509,675.924377C491.53949,676.350281,494.864349,680.479065,497.75412,685.099426C504.044037,695.156067,509.847168,712.022827,510.707123,722.747192C511.026733,726.733093,511.816559,730.4328,512.46228,730.968689C514.692383,732.819519,517.820129,729.089478,521.037781,720.742065C525.938171,708.029236,533.766296,690.944702,536.495544,687.00647C539.183594,683.127625,545.082397,668.739807,547.563904,660.009644C548.425293,656.979309,552.009705,648.368591,555.529236,640.874695C559.495422,632.429932,563.063232,622.924561,564.912964,615.874695C569.052612,600.097351,572.463501,590.005737,576.073669,582.854065C578.245544,578.551636,580.29541,571.271912,583.036255,558.128174C587.684692,535.836304,588.820068,531.713379,592.923889,522.221741C595.12738,517.125305,596.332825,512.328796,596.945068,506.22171C598.712463,488.591644,602.059631,470.550049,605.132507,462.090118C607.85968,454.582153,608.416382,451.232391,609.551514,435.5C611.529846,408.0802,612.958984,398.995972,617.26001,386.5C619.171692,380.945984,619.307678,378.530212,619.089661,354C618.871094,329.40686,619.018005,326.816406,621.131042,318C623.667664,307.416168,623.859985,300.817902,622.194885,281.5C620.707886,264.249054,620.723816,241.061081,622.228088,233C623.87323,224.184464,623.718567,216.387848,621.662842,204.5C620.711731,199,619.474854,190.675003,618.914246,186C618.353638,181.324997,617.416626,174.569626,616.83197,170.988068C615.839294,164.906433,616.16925,149.653,617.592896,135.811066C618.043152,131.433304,617.60022,128.09137,615.671021,121.311073C605.732056,86.37973,600.864136,49.76474,604.888916,40.211777C607.277954,34.541405,614.403015,31.508947,637.528015,26.320471C644.157837,24.83296,649.877258,24.550209,671.5,24.641008C697.072815,24.748392,697.697144,24.80061,709.5,27.819353C721.635193,30.923105,727.195923,32.925724,730.08667,35.233379C733.873596,38.256477,734.362793,41.045235,734.255798,59C734.161194,74.863976,733.633057,80.950279,731.001831,96.5C730.536499,99.25,729.627502,104.650002,728.981812,108.5C728.336182,112.349998,727.176147,118.29248,726.403992,121.705513C724.171875,131.571213,724.430847,132.8965,729.5,137.550476L734,141.681931L734,150.80658C734,166.734573,727.809875,201.730148,722.042664,218.406555C719.161255,226.73848,719.390381,228.369797,724.12738,233.248856L728.254761,237.5L727.616272,245.81839C726.671143,258.132568,722.463501,275.671173,715.337585,297C713.408142,302.774994,711.339905,309.584381,710.741455,312.131989C709.703308,316.551331,709.799072,316.962036,712.826721,321.078979C714.572021,323.45224,716,326.625946,716,328.131622C716,336.985657,707.763062,365.198334,698.85199,386.866272C694.415649,397.653442,694.32074,398.454468,697,402.5C698.092773,404.149994,698.989807,407.105438,698.993408,409.067627C699.006409,416.097229,691.768982,438.357727,684.547363,453.5C675.787354,471.868011,675.624939,472.373993,677.39209,475.791382C681.003723,482.775421,678.285034,492.483002,665.297302,518.977844C655.309814,539.352173,654.822083,540.771851,656.153503,545.593689C656.925964,548.391479,656.776917,550.405823,655.504456,554.362915C653.167114,561.631531,645.22345,577.61145,637.540588,590.5C631.132324,601.250244,630.996033,601.624878,631.535767,607C632.026306,611.884888,631.682922,613.338806,628.465576,620C624.168274,628.897217,616.188782,642.203857,610.259827,650.359985C606.382568,655.693726,606,656.753479,606,662.159668C606,668.411682,604.662781,671.969788,600.046814,678C598.573303,679.924988,596.178162,683.574036,594.724365,686.108948C593.270508,688.643921,590.150269,693.084839,587.790466,695.977722C581.708191,703.434082,580.011292,706.194702,580.005249,708.643005C579.996643,712.157654,582.869446,712.249695,589.897522,708.959778C596.63678,705.805054,602.203308,704.387939,619,701.550964C631.672302,699.410583,673.63031,699.796692,675.054932,702.066833C676.096069,703.725891,675.363098,706.814636,673.394226,709.064941C670.053101,712.883606,669.771301,716.470215,671.891602,728.190674C674.007568,739.887085,676,761.481201,676,772.717407L676,779.148499L681.75,785.177429C689.273743,793.066162,691.907898,794.377869,698.936279,793.735474C706.625427,793.032654,720.413452,787.539124,724.250061,783.649719C725.958862,781.917358,729.674255,776.224976,732.50647,771C737.827087,761.184326,741.031311,758.240356,745.017151,759.505432C747.633423,760.335815,749.312805,763.617554,748.591736,766.490479C748.273682,767.757813,746.397461,770.728882,744.422424,773.092896C742.447327,775.456848,739.560059,779.890564,738.006226,782.945496C732.971069,792.845032,726.62915,797.164673,708.738037,802.880981C698.132568,806.269531,691.42041,806.799072,687.200317,804.5802C685.715149,803.799316,682.474976,801.072021,680,798.519531C672.325073,790.60437,670.174622,789.687866,661.151306,790.486633C656.193237,790.925476,651.795776,790.752808,649.041199,790.011108C640.758545,787.780823,629.941345,773.831421,626.932007,761.5C625.159851,754.238098,624.310974,753,621.10437,753C617.899414,753,613.578796,755.690063,603.5,763.960815C592.952637,772.616028,591.659851,773.088257,575.791809,774.081604C553.29248,775.490051,552.884644,775.732544,546.536743,791.478394C542.667847,801.075256,542.175415,805.377686,544.556702,808.777466C546.302368,811.269775,552.294434,811.907776,553.690979,809.75C554.135925,809.0625,554.5,804.82373,554.5,800.330505C554.5,790.712402,556.012573,787.858704,563.058533,784.183044C567.23822,782.002625,568.211243,781.904785,579.566467,782.523132C594.593872,783.341431,596.604797,782.615356,605.823975,773.042236C614.827698,763.692749,618.228638,763.558105,622.680908,772.374817C628.013184,782.934143,636.325928,793.173035,642.871277,797.243408C646.040405,799.214172,647.838196,799.5,657.065491,799.5C666.916565,799.5,667.912537,799.686035,671.795715,802.251099C674.223938,803.855103,676.851196,806.773865,678.096741,809.251099C682.329346,817.669434,684.069885,818.2948,695.355652,815.452576C714.292847,810.683411,739.276917,800.298157,742.342529,795.921326C743.25415,794.619873,744.009888,792.192627,744.021973,790.527466C744.060364,785.236023,747.395264,779.614258,752.887512,775.582581C761.000366,769.627197,761.317749,767.903687,755.643555,760.615845C749.989197,753.353455,736.519348,749.480652,732.141479,753.858521C731.119324,754.880676,729.067566,758.897705,727.582092,762.785217C720.414307,781.543091,700.463989,790.90509,689.564514,780.62561C684.271606,775.633728,682.693909,768.605469,682.802124,750.5C682.87262,738.708313,682.475586,733.860229,680.945862,727.833374C678.927124,719.879639,678.499939,714.2948,679.76532,712.399719C680.169373,711.794556,681.625,710.704285,683,709.976868C685.565125,708.619873,706.176147,703.634277,716,701.994446C720.763672,701.19928,733.423462,698.928223,742.259155,697.283813C746.287354,696.534119,748.054688,698.49353,747.754028,703.375732L747.5,707.5L759,707.438721C772.533142,707.366577,777.540527,706.0979,792.511169,698.948486C802.130188,694.354797,803.283142,693.484924,808.196655,687.114075C811.113464,683.332153,814.284729,678.802673,815.243896,677.048584C816.539185,674.679688,817.568054,673.941711,819.243896,674.179626C822.711792,674.672058,822.521912,678.338745,818.449768,689.515442C816.449036,695.006958,813.931152,701.917236,812.854492,704.871582C807.846863,718.612915,796.773438,733.049438,785.838867,740.092285C783.275269,741.743469,780.885193,743.85675,780.52771,744.788452C779.669006,747.026062,783.355774,750,786.988342,750C790.90387,750,792.506042,752.194458,790.816956,755.243958C788.602478,759.242065,766.697815,779.470459,760.694824,783.061035C752.494812,787.965698,751.872009,791.018738,759.130615,790.729309C764.255615,790.524963,766.814758,793.140381,764.662048,796.382446C763.225586,798.545898,763.00824,798.687561,755.5,802.355408C752.75,803.698853,746.22345,806.980957,740.996582,809.648987C729.572266,815.48053,725.645203,817.128662,713.671631,821.116882C695.319763,827.229614,684.822693,829.534363,664.093384,832.002502C657.052185,832.840881,654.827332,832.732544,650.395935,831.335693C646.049805,829.965698,644.827881,829.897949,643.552551,830.95636C640.464783,833.518982,641.71283,835.983032,647.36438,838.482422C653.132385,841.033325,654.926392,843.930725,652.339539,846.517578C651.240356,847.61676,648.431946,848,641.475647,848C632.810669,848,627,849.23584,627,851.078735C627,854.221313,631.682434,858,635.57666,858C638.459045,858,649.198364,863.938843,656.5,869.570679C666.601135,877.361755,678,888.386902,678,890.365845C678,891.301697,676.43103,892.993164,674.513428,894.124573C671.576416,895.857483,671.187378,896.481567,672.045166,898.084473C672.619995,899.158447,675.03009,900.482361,677.578674,901.124146C680.062012,901.749451,684.660217,903.944641,687.796936,906.002319C695.212341,910.866943,717.495056,931.033447,722.031555,936.985718C723.973877,939.534241,729.036377,944.970947,733.281555,949.067383C741.302124,956.806885,742.419922,959.169739,738.941345,961.031372C736.088257,962.55835,731.777344,961.39917,727.414368,957.931946C721.440002,953.184082,717.736511,954.189453,713.281372,961.768372C710.940552,965.750549,710.5,967.631714,710.5,973.64502C710.5,983.935852,711.933105,985.305664,722.211243,984.838867C728.014465,984.575317,730.384216,984.03717,731.720337,982.679443C733.427673,980.944458,733.410034,980.79718,731.286133,979.054443C730.068481,978.055359,727.082825,976.939575,724.651306,976.574951C719.350769,975.78009,716.727661,973.243652,717.175049,969.345825C717.674683,964.992859,721.638184,963.502502,727.177795,965.584656C735.178162,968.591675,754.450684,974.023743,760.5,974.976746C763.799988,975.496582,769.963074,975.583008,774.19574,975.168823C778.428345,974.754578,782.815857,974.75769,783.94574,975.175598C786.323792,976.055298,786.656433,979.210327,784.555054,980.954285C782.727051,982.471436,742.163147,992.584595,731.5,994.181702C716.060303,996.494263,678.517151,996.965698,662.5,995.048218C628.318787,990.956238,592.99054,978.369812,572.5,962.983948C561.074524,954.404785,543.64093,938.515564,538.873901,932.336548C533.761108,925.709412,533.126038,922.763916,534.324768,911.237854C535.191345,902.905396,535.107483,901.776245,533.489014,899.987854C530.42688,896.604248,525.788818,897.573975,523.455688,902.085693C522.15094,904.608765,522.165588,905.41156,523.585938,909.214478C527.096313,918.613403,526.296753,949.151001,522.275879,959.25C520.74231,963.101807,518.172363,964.168518,516.252747,961.75C514.597107,959.664063,513.900574,948.853943,515.029846,942.771545C516.263428,936.127258,515.197815,932.991211,511.714813,933.01532C506.738617,933.049744,504.830719,937.039551,506.062927,944.834534C506.574005,948.067688,506.514435,951.146912,505.910004,952.736694C501.944122,963.167786,481.401794,980.859192,463,989.691589C456.05426,993.025391,436.114014,1000,433.528625,1000C432.907898,1000,431.859985,999.460022,431.200012,998.799988z"/>
    <path transform="matrix(-0.410099,0,0,-0.410099,-1111.065674,-290.080688)" style="stroke:#000000;stroke-width:0.05mm;fill:none" d="M679.5,982.5C679.5,980.003113,679.098999,979.5,677.109009,979.5C673.907959,979.5,672.153503,982.275146,673.970459,984.464417C674.715454,985.362061,676.264343,985.96228,677.412476,985.798279C678.999023,985.571594,679.5,984.780029,679.5,982.5z"/>
    <path transform="matrix(-0.410099,0,0,-0.410099,-1111.065674,-290.080688)" style="stroke:#000000;stroke-width:0.05mm;fill:none" d="M698.018555,984.990051C699.680908,984.100403,699.884155,982.8797,699.725403,974.740051C699.567627,966.653198,699.868896,964.813599,702.139404,960C703.566223,956.974976,706.593567,952.512634,708.866821,950.083618C713.476501,945.158081,713.944763,942.944763,711,940C706.762939,935.762939,704.19928,937.543274,698.705383,948.53772C690.262085,965.43457,688.234009,974.224976,691.062561,981.664551C692.659363,985.864441,694.627014,986.805176,698.018555,984.990051z"/>
    <path transform="matrix(-0.410099,0,0,-0.410099,-1111.065674,-290.080688)" style="stroke:#000000;stroke-width:0.05mm;fill:none" d="M458.896027,979.497498C470.744324,973.730835,475.632965,970.327026,485.215057,961.172363C493.868408,952.904968,494.870697,950.690979,494.799713,940C494.72403,928.602356,498.013245,924.147888,507.692444,922.5401C509.99826,922.157043,512.393311,921.231018,513.014709,920.4823C514.573853,918.603577,513.856384,913.924805,511.812958,912.645691C509.911072,911.455139,502.368378,912.99115,495.409271,915.986145C490.433044,918.127747,488.703674,921.843384,486.426727,935.28595C484.456818,946.915527,482.118286,951.806152,475.095367,958.983398C468.211914,966.018127,462.883087,968.833862,454.867645,969.671631C447.49176,970.442566,442,974.382629,442,978.903564C442,985.359497,446.525085,985.518555,458.896027,979.497498z"/>
    <path transform="matrix(-0.410099,0,0,-0.410099,-1111.065674,-290.080688)" style="stroke:#000000;stroke-width:0.05mm;fill:none" d="M658.957336,982.022827C659.961548,981.485413,661.978516,979.005981,663.439453,976.513062C665.454041,973.075439,667.487732,971.277771,671.857727,969.071838C675.026794,967.472107,678.139343,965.537048,678.774475,964.771729C679.409607,964.00647,682.216003,958.248169,685.010864,951.975586C687.805725,945.703064,691.421631,938.410706,693.046204,935.770447C694.670776,933.130188,696,929.980896,696,928.772034C696,927.397888,693.88208,924.57135,690.34906,921.230408C681.19165,912.57074,674.061279,909.938721,670.205322,913.794678C669.218262,914.781738,666.677185,920.454834,664.558472,926.40155C658.011963,944.776001,652.575378,950.556396,642.001953,950.384338C622.804382,950.07196,586.825684,932.232483,580.423218,919.851501C576.687439,912.627319,579.18689,906.886292,591.770691,893.787292C599.231262,886.02124,601.854065,882.591309,602.348877,879.953674C603.374695,874.485779,600.498474,865.365173,595.268127,857.5C592.707886,853.650024,587.759277,844.875,584.27124,838C577.458618,824.572083,577.04895,821.846069,581.536133,819.801575C585.69696,817.905762,588.206177,820.198181,593.060181,830.329834C595.476563,835.373413,600.071106,843.621277,603.270264,848.658447C609.818115,858.967957,612.759644,866.38446,613.629333,874.77655C614.681091,884.924988,613.171387,887.983582,601.423401,899.506042C592.375671,908.380005,591,910.163513,591,913.01947C591,917.869751,596.398132,922.378357,611.060913,929.774536C623.053772,935.824036,633.377808,939,641.049622,939C646.161438,939,649.528198,934.675354,655.0625,921C661.290833,905.609619,661.946167,903.15271,661.976135,895.078613C661.999512,888.791748,661.908569,888.56958,657.637817,884.477417C655.238586,882.178589,650.30249,878.176147,646.668762,875.583191C641.444458,871.855164,639.375427,870.934692,636.781006,871.184326C633.872559,871.464172,633.463806,871.877075,633.181335,874.820801C632.718628,879.64325,635.066833,882.527588,640.587341,883.917664C646.550415,885.419189,651.583557,890.263123,652.55365,895.434204C653.424805,900.078003,651.256042,908.412537,646.495117,918.716919C642.290039,927.818237,639.5495,929.364624,629.22229,928.463318C619.210815,927.5896,618.36084,927.285339,617.042847,924.103455C614.62616,918.268982,618.510559,915.332397,627.084839,916.511658C633.668457,917.417175,636.226257,915.683899,638.91626,908.494324C641.723694,900.990662,641.62915,897.458313,638.567078,895.451965C635.333374,893.333191,633.124207,894.572998,629.179321,900.720581C627.491089,903.351379,624.756653,906.303223,623.102722,907.280212C621.448792,908.257263,617.486572,911.289856,614.297791,914.019409C607.468445,919.865234,602.758972,920.759888,600.851624,916.57373C598.95166,912.403748,600.58374,909.241394,606.633057,905.371765C613.771118,900.805603,619.736023,895.411133,621.571289,891.862183C623.863342,887.429749,622.513123,866.942688,619.537292,861C618.297913,858.525024,616.704102,854.700012,615.995483,852.5C615.286926,850.299988,612.813416,845.799988,610.498901,842.5C608.184387,839.200012,604.764282,833.575012,602.898682,830C601.033081,826.424988,596.949463,820.852173,593.823975,817.615967C588.169861,811.761597,588.116516,811.734314,583.239441,812.202942C580.543457,812.462036,576.574158,813.534851,574.418823,814.586975C570.690674,816.406921,570.505249,816.718933,570.608521,821C570.672546,823.655762,573.015381,832.050049,576.325195,841.482666C581.486694,856.1922,582.265137,857.740845,586.0979,860.924561C590.820862,864.847717,593.001709,869.208374,592.996277,874.717896C592.99176,879.28595,591.019775,882.686035,583.821228,890.537598C575.802979,899.283203,568.221863,909.713379,567.50238,912.989258C566.562805,917.266907,568.862366,920.742554,578.832214,930.114014C593.625122,944.019043,609.367615,952.133118,633.285461,958.180664L645.805054,961.346191L650.641846,959.498962C660.28186,955.817444,669.683838,943.213135,672.033997,930.820618C673.36969,923.777527,675.326233,921,678.951599,921C686.28833,921,686.729431,927.010986,680.445618,941.359436C674.987488,953.822449,672.84082,956.892639,664.817749,963.71051C657.096313,970.272034,653.445984,972.002319,647.348877,971.990906C638.551514,971.974304,612.332581,964.217468,599.929382,957.961914C589.682556,952.793823,576.585876,943.270874,567.240356,934.192871C555.590149,922.875977,553.064758,917.255188,556.062988,909.315125C557.324341,905.974609,565.925232,894.386108,574.706116,884.196045C581.259705,876.590637,582.616577,872.586548,579.513,870.010803C576.443909,867.463684,573.536499,869.742798,566.492188,880.218018C562.68927,885.873108,557.033081,893.200012,553.922852,896.5C546.843933,904.010803,546.23999,905.200989,545.413208,913.270996C544.460876,922.566162,546.561951,926.40387,558.758728,937.647217C585.571045,962.363708,605.304749,972.649719,641,980.514648C652.87677,983.131531,656.341919,983.422546,658.957336,982.022827z"/>
    <path transform="matrix(-0.410099,0,0,-0.410099,-1111.065674,-290.080688)" style="stroke:#000000;stroke-width:0.05mm;fill:none" d="M423,978.350403C428.541748,975.778015,430.349304,974.221252,435.261047,967.790466C439.901367,961.715088,441.232635,959.108948,442.104218,954.394043C443.376251,947.512939,444.370209,945.486511,450.355255,937.572327C456.890503,928.930542,459.934845,917.071533,459.980194,900.078735C460.001251,892.186646,458.530823,889,454.868073,889C451.221558,889,450.107574,892.78656,450.161072,905C450.219757,918.405579,448.759827,923.391846,441.57196,934.335632C439.125916,938.059753,436.359131,943.220276,435.423492,945.803406C430.100677,960.499084,426.176727,966.187622,418.5,970.337646C415.067413,972.193237,412.939606,972.49231,403.5,972.445923C394.528351,972.401855,391.525116,971.987,387.212982,970.195923C378.775208,966.691345,374,967.552063,374,972.577576C374,975.905884,376.33963,977.199951,386.843506,979.681152C400.908539,983.00354,414.01474,982.521118,423,978.350403z"/>
    <path transform="matrix(-0.410099,0,0,-0.410099,-1111.065674,-290.080688)" style="stroke:#000000;stroke-width:0.05mm;fill:none" d="M366.699097,963.327454C369.998291,959.001526,370.250397,954.280701,367.607239,946.322876C365.631531,940.374573,362.095276,936.399475,357.97403,935.494324C354.032745,934.628662,350,931.274292,350,928.861694C350,922.084106,356.039337,921.105408,365.5,926.349976C372.992798,930.503601,375.219147,933.751404,378.12265,944.763794C379.494781,949.96814,381.300476,954.37793,382.589081,955.67157C385.383911,958.477295,396.822083,962,403.137451,962C408.625488,962,414.339813,959.968872,417.680084,956.830811C418.894165,955.690247,421.507538,950.575989,423.487579,945.465759C425.467621,940.35553,428.849426,933.448669,431.002655,930.117188C438.226898,918.93988,438.275604,918.768982,439.127777,901.606689C439.624756,891.598267,439.555237,885.037476,438.940094,883.888062C437.529419,881.252197,430.292297,877.289795,424.544159,876.006042C418.081604,874.562805,410.562286,876.212219,408.373108,879.553284C406.98645,881.669617,407.036865,882.576599,408.923309,889.452698C412.926025,904.042786,411.071411,911.911499,401.99884,918.831421C395.752441,923.595703,394.571442,925.635437,394.571442,931.659485C394.571442,937.559753,396.799133,941,400.619812,941C403.208832,941,404.486389,939.092468,406.548889,932.147278C407.315826,929.564758,409.979156,924.712158,412.467377,921.36377C419.813904,911.4776,421.64151,903.30011,418.471161,894.5C416.623566,889.371521,416.608246,884.570007,418.434662,883.054199C419.223755,882.399353,421.361237,882.006714,423.184662,882.181763C427.624847,882.607971,429.848297,887.208435,430.6474,897.622559C431.534973,909.189697,429.914063,915.396484,423.457764,925.153503C420.486237,929.644226,417.306641,935.609253,416.391998,938.40918C413.849731,946.191833,412.194305,948.910767,408.701447,951.040466C402.53595,954.799805,392.147064,952.826904,388.09201,947.126709C385.558258,943.565002,383,934.595215,383,929.273071C383,922.638489,380.46283,920.704712,369.008942,918.609192C363.831604,917.661987,356.802399,916.62616,353.388489,916.307373C347.65625,915.772095,346.983154,915.925903,344.590668,918.31842C342.485901,920.423218,342,921.85791,342,925.96814C342,928.750549,342.5625,931.960388,343.25,933.101074C343.9375,934.241699,348.374725,938.246216,353.110504,942.000061C357.846283,945.753845,361.956726,949.72644,362.244812,950.828125C363.145935,954.274048,360.815247,957.465149,357.138214,957.820007C354.380341,958.086121,353.205627,957.489807,350.161011,954.278259C348.147461,952.154297,343.886322,948.220764,340.691864,945.537109C330.732758,937.170532,328.186249,930.392151,331.487244,921.036133C332.580811,917.936646,332.695251,916.299072,331.919586,914.849731C329.985718,911.236267,326.824524,913.02301,321.621582,920.670288C315.578979,929.551697,315.714783,930.393982,324.863556,940.776306C336.762848,954.279968,354.116608,967,360.640289,967C363.217682,967,364.483276,966.232849,366.699097,963.327454z"/>
    <path transform="matrix(-0.410099,0,0,-0.410099,-1111.065674,-290.080688)" style="stroke:#000000;stroke-width:0.05mm;fill:none" d="M466.180237,951.97467C472.313934,945.528748,472.491333,945.111511,477.649445,925C480.481415,913.958069,480.746063,910.415039,479.495697,900.28479C478.173828,889.575623,480.391022,886.88916,495,881.498901C501.945435,878.936279,503.262848,877.946655,512.816467,868.115845C518.49054,862.2771,523.805359,856.232056,524.627136,854.682312C526.765869,850.649292,526.07666,847.5672,522.954712,847.203308C520.872314,846.960632,519.006592,848.447693,512.695618,855.380493C502.291077,866.810181,493.384552,873.350586,483.90921,876.519531C479.023315,878.153564,475.294861,880.126587,473.445984,882.056396L470.573547,885.054565L470.841675,898.346313C471.247986,918.490662,467.078735,936.016418,460.099915,943.5C455.772461,948.140442,454,951.207703,454,954.055847C454,957.318726,454.671936,958,457.890015,958C459.715027,958,462.087585,956.275635,466.180237,951.97467z"/>
    <path transform="matrix(-0.410099,0,0,-0.410099,-1111.065674,-290.080688)" style="stroke:#000000;stroke-width:0.05mm;fill:none" d="M313.993713,912.849976C317.360596,908.202148,317.808319,904.550659,315.345001,901.828735C312.919769,899.148865,309.538544,899.588257,305.53479,903.103577C301.500977,906.645325,301.146362,909.087646,303.989044,913.75C306.854218,918.449219,310.152588,918.152527,313.993713,912.849976z"/>
    <path transform="matrix(-0.410099,0,0,-0.410099,-1111.065674,-290.080688)" style="stroke:#000000;stroke-width:0.05mm;fill:none" d="M400,901.322632C400,895.596191,396.231323,884.275452,393.745331,882.53418C389.900665,879.841248,381.387451,881.289795,380.216949,884.83606C379.974396,885.570923,382.055328,888.278625,384.841248,890.853271C387.784607,893.573425,390.823395,897.621765,392.095276,900.517212C394.626465,906.279602,395.703522,907.229004,398.196106,905.89502C399.422791,905.238525,400,903.775452,400,901.322632z"/>
    <path transform="matrix(-0.410099,0,0,-0.410099,-1111.065674,-290.080688)" style="stroke:#000000;stroke-width:0.05mm;fill:none" d="M502.915924,901.871033C507.658966,900.269287,510.971985,898.164246,516.293945,893.371033C520.184509,889.866943,523.716003,887,524.141724,887C524.567383,887,526.165588,884.862488,527.693298,882.25C529.220947,879.637512,533.31897,873.996704,536.799988,869.714966C546.703247,857.53363,548.45166,852.365906,545.5,844C542.574402,835.708069,544.205322,830,549.5,830C552.077454,830,554.580566,832.024963,555.378723,834.75592C556.534912,838.711609,558,848.6427,558,852.523926C558,858.059509,553.504578,866.78186,546.415955,875C539.259705,883.29657,537.186584,887.315002,538.960144,889.451965C540.915527,891.808105,544.340027,891.307434,547.181885,888.25C548.587708,886.737488,552.964966,880.775024,556.909119,875C560.853271,869.224976,565.057434,863.252625,566.25177,861.728088C569.166382,858.007507,568.875061,853.316711,564.943237,840.661072C561.289368,828.899963,558.750977,823.502136,556.460815,822.623352C555.567383,822.280518,552.828979,822,550.375366,822C546.462036,822,545.318665,822.55719,541.062683,826.538147C534.412964,832.758179,533.340393,835.615845,535.393677,841.641968C537.629761,848.20459,537.447815,854.753235,534.913757,858.909851C531.265198,864.894653,513.075745,884.761353,508.423279,887.843018C505.954498,889.478271,501.748688,891.340576,499.077057,891.981506C493.441315,893.333496,490,896.122864,490,899.338928C490,904.429077,493.379395,905.091553,502.915924,901.871033z"/>
    <path transform="matrix(-0.410099,0,0,-0.410099,-1111.065674,-290.080688)" style="stroke:#000000;stroke-width:0.05mm;fill:none" d="M301.365143,892.927429C302.814301,891.787476,303.996216,889.875,303.991577,888.677429C303.984283,886.792175,294.841278,872.858215,290.259613,867.75C288.17749,865.428589,285.285156,865.526184,284.517822,867.943848C283.680359,870.58252,291.589264,889.873779,294.687683,892.75C297.661621,895.51062,298.067413,895.521423,301.365143,892.927429z"/>
    <path transform="matrix(-0.410099,0,0,-0.410099,-1111.065674,-290.080688)" style="stroke:#000000;stroke-width:0.05mm;fill:none" d="M487.478943,862.911194C494.060211,858.737488,515.90625,837.221619,516.675781,834.15564C517.4104,831.228821,514.693726,825.690857,511.15976,822.911011C507.972504,820.403931,500.596405,820.40155,494.00647,822.905518C491.24826,823.953613,483.191772,828.896362,476.10318,833.889465C469.014587,838.882568,462.012207,843.425049,460.542328,843.983887C453.589233,846.627441,440.469971,844.351379,428.05014,838.346741C420.650299,834.769104,420.549622,834.751587,413.05014,835.730591C408.897552,836.272644,403.343689,836.50824,400.708221,836.254089C394.921448,835.695984,390.645264,837.288391,389.156555,840.555725C387.802887,843.526733,388.540344,845.71936,391.1745,846.555359C392.26886,846.90271,400.214783,846.883972,408.832123,846.513733L424.5,845.840515L437.5,850.037415C444.649994,852.345764,452.975006,854.450195,456,854.713989C460.744171,855.127686,461.980988,854.844055,465,852.650024C466.924988,851.251099,472.325012,847.540344,477,844.403992C481.674988,841.267639,488.475098,836.293701,492.111328,833.350769C499.718903,827.193665,503.862366,826.334106,506.50351,830.365051C508.647919,833.637756,507.142334,837.137634,502.322876,840.083435C500.220306,841.368591,495.799988,844.515686,492.5,847.076965C489.200012,849.638245,485.091431,852.452393,483.369873,853.330566C478.618958,855.754211,474,859.973083,474,861.888916C474,866.841309,480.504028,867.334595,487.478943,862.911194z"/>
    <path transform="matrix(-0.410099,0,0,-0.410099,-1111.065674,-290.080688)" style="stroke:#000000;stroke-width:0.05mm;fill:none" d="M375.75,841.145264C376.712494,840.125183,378.728241,836.991516,380.229431,834.18158C384.166412,826.812317,386.947296,825.621094,401.646545,825.007263C415.427002,824.431763,416.855682,823.751038,420.111511,816.209229C422.839783,809.889526,431.180023,801.624695,442.528717,793.99469C458.218201,783.44635,472.280426,777.234619,489.163391,773.394653C497.203552,771.565979,500.106598,768.724121,498.20282,764.545776C496.39859,760.585938,493.851318,760.634705,483.835205,764.821045C478.700836,766.96698,469.569,770.442444,463.542236,772.544189C446.99765,778.313965,429.164978,791.073914,416.613403,806.123535C409.720276,814.388611,406.100922,816,394.430115,816C384.295013,816,381.358826,817.237549,378.212646,822.835449C373.662842,830.930725,366.674835,834.36792,359.548279,832.01593C357.578156,831.365723,353.461395,829.325439,350.399933,827.481873C347.33844,825.638367,342.558136,823.642029,339.777008,823.045593C332.5065,821.486328,328.123932,819.140381,326.455963,815.914795C324.437744,812.012024,324.625549,809.044739,327.350983,801.772827C330.627777,793.029785,331.216003,788.958313,330.012665,783.349792C326.617004,767.523193,318.179657,758.992737,305.934265,759.005798C297.455017,759.014832,288.807159,760.748413,286.692505,762.863037C284.129089,765.426453,285.286346,768.796509,289.311157,770.48877C292.023651,771.629272,293.061523,771.552429,297.252747,769.900391C299.904449,768.855164,304.081085,768,306.534149,768C310.237701,768,311.659912,768.601379,314.918579,771.54541C319.12738,775.347839,322,781.934998,322,787.783813C322,792.782654,319.45401,801.805237,315.90094,809.39801C313.000305,815.596497,312.896881,816.193665,314.34198,818.39917C317.604889,823.379028,341.922638,835.288391,359.5,840.514832C369.327576,843.436951,373.437256,843.596375,375.75,841.145264z"/>
    <path transform="matrix(-0.410099,0,0,-0.410099,-1111.065674,-290.080688)" style="stroke:#000000;stroke-width:0.05mm;fill:none" d="M629.171265,837.345032C632.077759,834.714661,631.361572,832.381104,625.75,826.197388C620.756836,820.695129,617.201965,816.348633,605.270996,801.157776C599.193787,793.420166,596.075256,791.71698,593.030273,794.472595C589.533752,797.636902,590.576965,799.868103,599.77179,808.891663C605.942017,814.946899,609.990723,820.020935,613.423157,826C616.106995,830.674988,619.213135,835.512512,620.325745,836.75C622.711792,839.403931,626.606689,839.665894,629.171265,837.345032z"/>
    <path transform="matrix(-0.410099,0,0,-0.410099,-1111.065674,-290.080688)" style="stroke:#000000;stroke-width:0.05mm;fill:none" d="M460.751007,830.75C463.590424,828.962524,469.940247,824.73584,474.861725,821.357422C485.927582,813.761108,493.093109,810.976624,503.805573,810.110046C512.417175,809.413452,513.953979,808.558899,513.98468,804.450012C514.023193,799.291992,510.305206,798.904602,496.339142,802.611572C483.993317,805.888428,476.903198,809.099915,465.482971,816.587769C448.897369,827.462463,442.415344,829.200439,439.805481,823.472412C437.933228,819.363281,440.008698,816.513245,446.684692,814.025879C449.883118,812.834167,456.697418,809.145142,461.827576,805.828003C473.481567,798.292603,480.001862,795.608887,496.838959,791.417664C504.175385,789.591431,510.883606,787.512878,511.746094,786.798645C513.976501,784.951599,520,772.03064,520,769.093201C520,767.738464,518.485779,763.67572,516.63501,760.065002C514.784302,756.454224,512.5,751.143188,511.558868,748.262695C509.743225,742.705688,506.157135,739,502.595032,739C499.022339,739,486.042419,742.882568,476,746.955078C470.774994,749.074036,461.497253,752.383484,455.382751,754.309509C449.26828,756.235535,442.743286,758.586121,440.882751,759.533081C436.008881,762.013733,425.199463,770.948547,412.681732,782.843506C406.694916,788.532471,400.28183,793.819946,398.43042,794.593506C390.817078,797.774597,381.647736,795.606628,374.852753,789.01886C369.800293,784.120483,368.957581,781.950073,361.84848,755.525269C358.304993,742.354126,358.545227,742.693054,346.933075,734.481201C338.30722,728.381165,334.954468,727.14502,333.09903,729.380676C330.820099,732.126648,332.284668,735.323608,337.5,738.987427C340.25,740.919373,344.557739,744.553284,347.072784,747.062805C352.069702,752.048889,353.975983,756.920837,359.960297,780C363.456024,793.481628,363.568542,793.612061,380.441162,803.735229C383.237213,805.412842,398.214661,805.355835,402.282104,803.652161C404.051941,802.910828,408.136017,799.29895,411.357819,795.625671C417.77356,788.310913,435.59787,773.500488,443.5,768.918335C446.25,767.323669,452.774994,764.612061,458,762.892517C463.225006,761.172974,472.899994,757.499451,479.5,754.729187C497.333252,747.243958,502.733856,747.935974,507.571625,758.326355C510.704559,765.055176,510.847626,772.65271,507.911713,776.385132C504.984589,780.106323,502.162689,781.350403,488.631226,784.88501C474.673645,788.530945,462.326416,794.16803,448.5,803.20697C437.255463,810.557983,432.825043,814.764954,430.52771,820.272827C428.054352,826.20282,429.787415,828.267944,440.464935,832.114136C448.499878,835.008423,454.642731,834.595398,460.751007,830.75z"/>
    <path transform="matrix(-0.410099,0,0,-0.410099,-1111.065674,-290.080688)" style="stroke:#000000;stroke-width:0.05mm;fill:none" d="M532.411133,819.923279C536.358643,815.231873,535.382996,811.208496,529.873901,809.459961C524.521729,807.761292,519.659119,816.755859,523.584656,821.093567C526.116882,823.891602,529.443054,823.450623,532.411133,819.923279z"/>
    <path transform="matrix(-0.410099,0,0,-0.410099,-1111.065674,-290.080688)" style="stroke:#000000;stroke-width:0.05mm;fill:none" d="M667.065735,820.964844C669.975525,819.407532,669.597961,814.615479,666.365112,812.072571C661.160767,807.978821,653,810.376892,653,816C653,817.849304,653.798645,819.445984,655.222534,820.443298C657.756836,822.218384,664.193787,822.501831,667.065735,820.964844z"/>
    <path transform="matrix(-0.410099,0,0,-0.410099,-1111.065674,-290.080688)" style="stroke:#000000;stroke-width:0.05mm;fill:none" d="M367.363434,818.75C371.382782,815.095947,371.595825,812.441956,368.146606,808.992737C364.342224,805.188354,361.842255,805.210327,358.588898,809.076721C355.488068,812.761841,355.279327,816.279297,358,819C360.632568,821.632568,364.300385,821.534668,367.363434,818.75z"/>
    <path transform="matrix(-0.410099,0,0,-0.410099,-1111.065674,-290.080688)" style="stroke:#000000;stroke-width:0.05mm;fill:none" d="M641.631287,817.125122C643.513184,813.330017,641.569458,809.795288,635.086548,805.22345C631.87677,802.959839,627.154236,798.270996,624.592041,794.803894C614.000061,780.470886,613.819702,780.331787,610.536438,783.959717C607.286926,787.550415,607.667969,788.134766,630.651184,814.805664C634.315002,819.057373,635.742737,820.050598,637.83844,819.805664C639.396423,819.623596,640.929749,818.539917,641.631287,817.125122z"/>
    <path transform="matrix(-0.410099,0,0,-0.410099,-1111.065674,-290.080688)" style="stroke:#000000;stroke-width:0.05mm;fill:none" d="M345.791138,809.538391C346.85611,808.184509,348.740906,804.36676,349.979614,801.054565L352.231781,795.032288L349.082703,781.766174C345.713959,767.574585,342.277832,758.076233,339.326294,754.796997C338.321838,753.68103,333.765747,749.938538,329.20163,746.480347C321.292114,740.487366,320.508881,740.134094,312.486053,738.940491C304.677521,737.778748,303.542084,737.84436,296.784424,739.84729C288.311279,742.358643,285.162994,742.512756,280.671204,740.635986C273.484375,737.633118,266.76004,725.291687,261.887604,706.161743C259.340881,696.162903,257.919678,692.82666,251.920883,682.764954C248.07283,676.310669,244.071014,670.573181,243.027954,670.014954C240.256866,668.531921,237.631073,668.750732,229.85434,671.112854C220.447067,673.970215,219.30159,675.72522,221.42749,684.023438C223.325729,691.432983,233.750259,719.461975,238.637192,730.296143C244.311829,742.876587,249.578247,751.529968,261.58374,768C274.332001,785.488953,294.811737,807.530457,299.290283,808.581909C302.872833,809.423035,305.144043,807.417175,307.922607,800.958252C310.37326,795.261597,311.526672,788.234558,310.610321,784.583557C309.679321,780.874207,305.751648,778.527344,302.967957,780.017151C300.696747,781.232666,300.708954,780.923157,302.514374,791.505554C303.084137,794.845032,302.843719,795.831482,301.068604,797.437927C299.373901,798.971558,298.390747,799.171814,296.250641,798.419189C293.248901,797.363525,291.521332,794.56427,289.963135,788.231262C289.078979,784.637878,288.044617,783.386108,283.424835,780.318726C278.807648,777.253113,277.39978,775.550293,274.552246,769.587463C272.623932,765.5495,269.355469,760.778931,266.955933,758.5C257.567993,749.583984,249.19577,734.133789,241.096817,710.779175C238.301849,702.719482,234.437836,693.509521,232.510101,690.312561C228.978271,684.455444,228.470123,682.544434,229.636383,679.505188C230.579391,677.047729,234.557617,675.841309,237.418961,677.14502C240.679199,678.630493,247.075974,692.004333,252.476196,708.625488C259.536469,730.356018,268.804352,746.778992,276.151093,750.578125C279.174988,752.141846,279.858368,752.129333,287.434967,750.371338C292.460236,749.205322,299.269043,748.5,305.5,748.5C314.024902,748.5,316.163788,748.844299,320,750.833923C330.470764,756.264648,337.375214,766.31012,340.600159,780.805603C342.476532,789.239502,342.079559,794.151123,338.904816,801.781189C337.112091,806.089783,336.914581,807.51709,337.832275,809.531189C339.321228,812.799133,343.22345,812.802673,345.791138,809.538391z"/>
    <path transform="matrix(-0.410099,0,0,-0.410099,-1111.065674,-290.080688)" style="stroke:#000000;stroke-width:0.05mm;fill:none" d="M577.365112,801.927429C580.149109,799.737549,580.805054,796.205078,578.799988,794.200012C576.703796,792.103821,569.335876,792.723083,567.03894,795.188538C564.753113,797.64209,564.520569,799.235596,566.035156,802.065735C567.47522,804.756531,573.867737,804.678467,577.365112,801.927429z"/>
    <path transform="matrix(-0.410099,0,0,-0.410099,-1111.065674,-290.080688)" style="stroke:#000000;stroke-width:0.05mm;fill:none" d="M531.186523,797.067932C532.537415,796.00531,534.223755,793.19281,534.93396,790.817932C535.644165,788.443054,537.325989,784.325317,538.671326,781.667358C542.155212,774.784424,541.593323,772.579163,536.257385,772.192871L532.014832,771.885742L527.007385,782.582153C524.253357,788.46521,522,793.665955,522,794.139343C522,795.502441,525.860535,799,527.365112,799C528.115967,799,529.835571,798.130554,531.186523,797.067932z"/>
    <path transform="matrix(-0.410099,0,0,-0.410099,-1111.065674,-290.080688)" style="stroke:#000000;stroke-width:0.05mm;fill:none" d="M395.527679,782.986572C397.815186,781.879211,401.141449,779.163086,402.919342,776.950745C406.473114,772.528564,430.918427,751.670837,435.163849,749.438477C436.628967,748.668091,442.703949,746.635986,448.663849,744.922791C454.623718,743.209534,464.899994,739.626831,471.5,736.961243C478.100006,734.295654,486.424988,731.335999,490,730.384216C493.575012,729.432434,497.287506,727.986938,498.25,727.171875C501.483734,724.433655,499.801544,717,495.948151,717C494.858337,717,489.136688,719.419556,483.233337,722.376831C472.005646,728.001282,449.181946,736.497314,442.75,737.446594C440.6875,737.750977,437.413879,738.247498,435.475311,738.549927C432.829285,738.962769,429.380615,741.417236,421.641357,748.395752C415.971283,753.508423,408.785431,759.572876,405.672852,761.872314C402.414825,764.279175,399.160706,767.724854,398.00351,769.993103C393.378235,779.059387,385,777.433655,385,767.469849C385,764.888306,383.924652,760.384827,382.5,757C377.936768,746.158203,379.600311,739.004089,387.755554,734.398315C401.067841,726.880005,402.578888,725.038818,404.06839,714.520996C405.134491,706.992859,404.330902,703.847717,399.696564,697.410339C393.890137,689.344849,391.506561,687.213501,386.908295,685.975281C375.283722,682.845154,368.261505,676.525696,366.080078,667.231506C364.525879,660.609741,362,640.575012,362,634.869324C362,628.417358,364.520172,625.856934,374.646362,622.020691C384.417206,618.319153,388,615.159973,388,610.245972C388,604.614868,382.49469,600.013855,371.685913,596.611816C360.011597,592.937256,359.003143,591.415833,359.018524,577.5C359.030975,566.212769,360.80957,557.282715,364.492859,550.014099C367.997925,543.097168,367.846649,537.968628,364.031372,534.367615C359.564911,530.152039,358.378113,526.598083,360.404175,523.50592C364.027588,517.975891,372.667358,521.549988,376.922089,530.33905C380.28302,537.281799,379.808746,545.96936,375.599792,554.559998C371.213654,563.51239,370.012451,568.062378,370.005585,575.75C369.998749,583.41803,371.090271,584.713257,380.63147,588.359192C393.52121,593.284607,398.942291,600.124817,398.971436,611.5C398.995239,620.785156,395.814789,624.463928,382.529083,630.518372C372.698761,634.99823,372.35614,635.851501,374.39325,650.77948C376.489807,666.143127,378.303406,669.975647,385.073456,673.349304C392.124847,676.863159,397.113373,676.777771,405.175171,673.005188C409.823914,670.829834,413.753448,669.835999,419.537445,669.372803C430.511871,668.494019,434,666.973938,434,663.070068C434,659.262268,431.685516,658.545715,421.676697,659.254944C416.652618,659.610962,412.276398,660.726624,407.08667,662.974548C391.142212,669.88092,382.665497,665.166687,382.546417,649.326721C382.48288,640.875427,384.316498,638.633484,396.154114,632.688965C402.665436,629.419189,406.097443,627.081543,406.867279,625.391907C408.470154,621.874023,408.272095,609.464844,406.504761,602.679626C403.942657,592.843018,401.482239,589.081665,396.186707,586.906067C378.200043,579.516418,375.166229,573.251526,383.621796,560.95929C389.183899,552.873413,389.398285,551.617493,387.989075,535.374146C387.069336,524.7724,386.285309,520.338928,385.063293,518.829834C383.316101,516.67218,374.5867,514.573975,362.255981,513.347961L356.011963,512.727112L354.505981,516.331421C353.391205,518.999451,352.994904,523.905701,352.980316,535.217896C352.968903,544.098145,352.355133,553.851257,351.515228,558.5C348.876404,573.104858,350.022095,598.44519,353.477905,601.911133C354.637238,603.073792,357.775787,603.634094,365.17865,604C374.78772,604.474915,375.397797,604.637939,377.342804,607.25L379.390503,610L377.312561,612.75C375.255341,615.472534,375.134216,615.496887,365.180237,615.189148C351.316406,614.760498,351.567291,614.321777,353.548492,635.531128C355.456512,655.956665,358.654327,675.336365,361.000702,680.693298C362.720093,684.618774,363.625031,685.266296,375.168701,690.830139C391.395264,698.651062,395,702.574951,395,712.417236C395,718.912415,391.814911,722.822144,383.031219,727.109131C375.076782,730.991394,371.353271,734.678406,370.421875,739.595032C370.03653,741.629211,371.270935,748.141479,374.023346,758.595032C378.552246,775.795532,379.57962,778.386292,383.154999,781.622742C387.431519,785.493835,389.807373,785.755737,395.527679,782.986572z"/>
    <path transform="matrix(-0.410099,0,0,-0.410099,-1111.065674,-290.080688)" style="stroke:#000000;stroke-width:0.05mm;fill:none" d="M661.349304,779.057312C664.493347,777.861938,665.356628,775.141113,665.175049,767C664.928711,755.959229,661.243103,726.835205,658.810425,716.706116C657.525452,711.355652,655.349182,710.812683,636.67981,711.184448C622.355591,711.469727,620.698608,711.68634,619.417358,713.441101C617.660583,715.847168,617.660828,716.154907,619.422302,718.558899C620.721191,720.331543,621.91687,720.47229,633.199646,720.180908C650.794617,719.726501,651.677368,720.609863,654.003601,741C654.59967,746.224976,655.967712,753.494873,657.043701,757.155212C660.251648,768.068604,659.466492,771,653.335205,771C650.994263,771,649.736938,770.377014,648.892212,768.798645C647.376099,765.965759,644.276611,751.776733,643.095215,742.260864C641.726746,731.238159,641.257813,730.922424,626.938416,731.382202C615.18927,731.75946,615.178223,731.762146,607.561035,736.096008C603.369202,738.481018,597.365601,742.578491,594.219727,745.201599C586.640137,751.521606,579.961304,754,570.509521,754C562.098755,754,558.699768,755.168823,557.137085,758.59845C555.326782,762.571716,557.439087,764.861938,562.233398,764.123962C562.636841,764.061829,568.261841,763.549805,574.733398,762.986023C587.894653,761.839478,588.055908,761.767029,602.879089,750.346985C611.547302,743.668823,619.774902,740,626.082947,740C631.824951,740,634.442383,742.976868,635.860474,751.120117C639.603577,772.614624,649.568237,783.536438,661.349304,779.057312z"/>
    <path transform="matrix(-0.410099,0,0,-0.410099,-1111.065674,-290.080688)" style="stroke:#000000;stroke-width:0.05mm;fill:none" d="M709.010193,770.75C713.808533,767.484253,715.752441,764.413513,719.326355,754.453796C721.947632,747.148804,723.134827,745.145874,726.00708,743.182617C729.15155,741.033203,730.248108,740.848328,737,741.329651C749.916321,742.250427,754.559204,744.244446,762.107178,752.112549C769.037109,759.336426,771.225647,760.31543,773.006348,756.988098C773.843323,755.424255,773.617615,753.92395,771.992676,750.250549C767.966797,741.149353,763.833801,738.801147,744.185608,734.45166C733.18042,732.015503,731.178711,731.840454,725.357788,732.804993C715.5401,734.431824,715.056458,735.104736,711.921387,751.5C709.928772,761.920471,708.666138,764,704.331909,764C701.481079,764,698.57428,759.808899,699.302307,756.748169C703.507813,739.067017,704.904236,729.534973,703.927551,725.176636C703.355103,722.622253,702.16748,719.737549,701.288391,718.766174C699.156982,716.411011,694.739075,716.525818,692.505066,718.994385C690.773926,720.907288,690.77179,721.253479,692.452576,727.462891C693.909607,732.84552,694.083496,736.044006,693.484131,746.436035C692.648743,760.919495,693.299988,766.840393,696.123291,770.429626C698.761353,773.783325,704.349121,773.922241,709.010193,770.75z"/>
    <path transform="matrix(-0.410099,0,0,-0.410099,-1111.065674,-290.080688)" style="stroke:#000000;stroke-width:0.05mm;fill:none" d="M543.826904,758.164124C545.297119,756.60437,547.559021,753.523926,548.853394,751.318665C552.367371,745.331604,555.660522,743.856567,567.410339,743.00647C578.516663,742.203003,581.794067,740.987732,588.017273,735.365417C590.161072,733.42865,595.421692,729.966614,599.70752,727.671997C606.683716,723.937012,607.532288,723.166504,607.808411,720.316467C608.195068,716.32489,605.679016,714.658081,601.204285,715.941406C596.041016,717.422241,585.305542,723.909546,580.488281,728.4599C574.989319,733.654175,570.46051,735,558.480286,735C550.326843,735,549.687927,735.158203,547.00415,737.84198C545.441101,739.40509,543.651978,742.578796,543.02832,744.894714C541.067383,752.177246,536.887146,754.71051,532.222534,751.443298C528.93811,749.142822,529.45459,745.550415,534.371094,736.5C540.590759,725.050537,542.444275,724,556.425354,724C570.610535,724,572.553772,722.987854,571.567322,716.113037C571.203247,713.575867,570.648376,709.025024,570.334229,706C570.020142,702.974976,569.100586,699.744507,568.290894,698.821045C566.685852,696.990662,552.273987,692,548.593262,692C544.341797,692,540.941162,698.169739,543.365356,701.484985C544.454651,702.974609,546.500244,703.482849,553.217102,703.932495C562.476563,704.552368,565,705.807617,565,709.793701C565,715.94043,560.814331,717.078796,547.546997,714.540344C537.825012,712.680237,535.945923,713.373657,533.159973,719.849792C531.971985,722.611328,531,725.283142,531,725.787109C531,726.291077,528.974976,729.78656,526.5,733.55481C521.138062,741.718567,520.928894,744.232483,524.911072,752.650085C528.309631,759.833984,529.811584,760.928528,536.326904,760.969604C540.354492,760.994934,541.596497,760.530334,543.826904,758.164124z"/>
    <path transform="matrix(-0.410099,0,0,-0.410099,-1111.065674,-290.080688)" style="stroke:#000000;stroke-width:0.05mm;fill:none" d="M409.923279,743.936584C416.014099,738.401672,421.44809,733.03125,421.998779,732.002319C422.549438,730.973328,423.001678,727.064392,423.003723,723.315735C423.010559,710.864868,426.206665,708.288086,448.033508,703.136047C463.362793,699.517639,468,697.29126,468,693.549866C468,689.22052,465.136139,688.731079,455.83194,691.470337C432.636688,698.299133,421.972046,701.78833,419.655304,703.306274C416.896454,705.113953,415.014618,710.279053,415.005585,716.068481C414.996552,721.841187,412.274475,729.357483,408.766357,733.296448C406.969849,735.313538,402.809418,738.448486,399.520905,740.263C392.370667,744.208374,390.030121,747.575928,391.775635,751.406921C392.65799,753.343506,393.702942,754,395.903046,754C398.235535,754,401.155151,751.904358,409.923279,743.936584z"/>
    <path transform="matrix(-0.410099,0,0,-0.410099,-1111.065674,-290.080688)" style="stroke:#000000;stroke-width:0.05mm;fill:none" d="M778.065735,731.964844C780.922668,730.435852,780.49646,726.017395,777.100891,721.962219L774.201782,718.5L765.350891,718.748474C753.750854,719.074158,746.455933,717.659424,741.5,714.123047C735.871643,710.106873,734.587646,709.894104,724.808899,711.357056C715.331604,712.774963,713,714.007507,713,717.599365C713,721.39386,716.84845,723.274109,722.125,722.057556C728.595642,720.565735,733.289368,720.777283,741.833374,722.945862C746.050049,724.016113,752.721619,725.55835,756.65918,726.373169C760.596741,727.187927,765.993103,729.012268,768.651184,730.427246C774.006348,733.278015,775.236572,733.478943,778.065735,731.964844z"/>
    <path transform="matrix(-0.410099,0,0,-0.410099,-1111.065674,-290.080688)" style="stroke:#000000;stroke-width:0.05mm;fill:none" d="M295.065735,728.964844C296.278595,728.315735,297,726.874084,297,725.099548C297,722.78186,296.049316,721.656494,291.75,718.884705C284.843048,714.431763,282.21106,709.222412,281.443115,698.484863C280.617432,686.940063,280.506073,686.642761,274.475555,679.884277C271.451752,676.495422,265.780518,668.272644,261.872833,661.611389C241.067368,626.145508,239.11084,624.183472,231.347214,631C227.003296,634.814026,222.709976,635.013184,220.412811,631.507263C218.088455,627.959839,219.317749,624.479858,223.986664,621.390137C226.15889,619.952637,228.218292,617.887573,228.563095,616.801208C229.320297,614.415466,223.457748,604.463074,219.577286,601.546631C217.229141,599.781799,216.828476,599.742981,215.427383,601.144043C213.303497,603.267944,212.378082,634.190491,214.324402,638C215.571198,640.440369,215.832214,640.492981,225.262756,640.204651C239.023819,639.783875,242.851181,642.25354,246.029205,653.604309C246.709198,656.03302,248.933502,659.928101,250.972122,662.260071C254.264587,666.026306,266.080719,683.545288,268.970856,688.945557C269.572449,690.06958,271.14212,695.829224,272.459076,701.744629C275.163971,713.894653,278.922119,723.193054,282.767548,727.25C285.575256,730.212097,291.255249,731.00415,295.065735,728.964844z"/>
    <path transform="matrix(-0.410099,0,0,-0.410099,-1111.065674,-290.080688)" style="stroke:#000000;stroke-width:0.05mm;fill:none" d="M363.428558,728.428589C366.935303,724.921875,364.848511,721.179016,356.736084,716.425171C353.306244,714.415222,348.278259,711.002075,345.562836,708.840393C339.983612,704.398865,337.002594,704.179565,335.626465,708.109558C333.848206,713.187927,335.514343,715.865723,342.364716,718.939331C345.828705,720.493469,350.201202,723.096741,352.081421,724.724304C358.413147,730.205261,360.854797,731.00238,363.428558,728.428589z"/>
    <path transform="matrix(-0.410099,0,0,-0.410099,-1111.065674,-290.080688)" style="stroke:#000000;stroke-width:0.05mm;fill:none" d="M454.199738,722.47876C461.514893,719.992065,473.462494,714.999146,480.75,711.383362C492.82251,705.393433,494,704.570862,494,702.127136C494,698.61969,491.406616,695,488.893646,695C486.115204,695,481.956757,697.316467,479,700.51123C472.739685,707.275452,464.151337,711.100891,446.668365,714.912415C441.810974,715.971375,436.97348,717.619019,435.918365,718.573853C432.348602,721.804443,434.032776,727,438.64975,727C439.887085,727,446.884613,724.965454,454.199738,722.47876z"/>
    <path transform="matrix(-0.410099,0,0,-0.410099,-1111.065674,-290.080688)" style="stroke:#000000;stroke-width:0.05mm;fill:none" d="M794.971863,717.308594C799.592285,711.434753,794.199402,707.343933,788.405518,712.327637C785.8526,714.52356,785.690002,715.024292,786.764526,717.382507C788.36792,720.901672,792.172546,720.867432,794.971863,717.308594z"/>
    <path transform="matrix(-0.410099,0,0,-0.410099,-1111.065674,-290.080688)" style="stroke:#000000;stroke-width:0.05mm;fill:none" d="M303.698303,709.498779C304.877136,708.673096,306.136047,706.657104,306.49588,705.018799C307.27301,701.48053,305.408752,691.430359,303.385376,688.25C301.622131,685.478516,298.0383,685.337585,294.860779,687.914795C292.866669,689.532166,292.51944,690.674744,292.625183,695.271545C292.797485,702.762573,294.616882,707.724976,297.831024,709.470459C301.193054,711.296326,301.132355,711.296021,303.698303,709.498779z"/>
    <path transform="matrix(-0.410099,0,0,-0.410099,-1111.065674,-290.080688)" style="stroke:#000000;stroke-width:0.05mm;fill:none" d="M418.799652,691.62439C422.137451,689.924072,447.177429,682.257019,456,680.233948C463.329193,678.553345,466,676.732544,466,673.416443C466,671.096863,463.643768,668,461.878906,668C461.340881,668,459.590851,668.677368,457.989929,669.505188C456.389008,670.333069,452.203064,671.677429,448.687805,672.492676C445.172546,673.307922,439.75351,675.13916,436.645477,676.562012C433.310699,678.088745,427.08902,679.69458,421.466125,680.47998C411.129028,681.923706,407,683.84021,407,687.194336C407,692.293701,413.036713,694.560181,418.799652,691.62439z"/>
    <path transform="matrix(-0.410099,0,0,-0.410099,-1111.065674,-290.080688)" style="stroke:#000000;stroke-width:0.05mm;fill:none" d="M581.255188,686.870178C583.689697,683.596741,582.903137,680.606018,579.216736,679.119812C574.881226,677.371887,559.142029,673,557.184875,673C552.8255,673,551.445496,678.972595,555.25,681.374207C556.487488,682.155396,559.974976,683.524658,563,684.416992C566.025024,685.309326,570.075012,686.920715,572,687.997803C576.42749,690.475159,578.788025,690.187561,581.255188,686.870178z"/>
    <path transform="matrix(-0.410099,0,0,-0.410099,-1111.065674,-290.080688)" style="stroke:#000000;stroke-width:0.05mm;fill:none" d="M593.443298,668.777466C595.536621,665.788818,595.436035,661.299133,593.25,660.152283C592.287476,659.647278,587.888489,658.7547,583.474487,658.168701C579.060425,657.582703,573.435425,656.18988,570.974487,655.073547C564.997681,652.362488,562.39502,652.467529,560.40802,655.5C558.90741,657.790222,558.903381,658.203552,560.35968,660.426147C561.589172,662.302612,563.705505,663.243042,569.700439,664.576782C573.963562,665.525208,579.712463,667.354065,582.475769,668.640869C588.76886,671.57135,591.462891,671.604919,593.443298,668.777466z"/>
    <path transform="matrix(-0.410099,0,0,-0.410099,-1111.065674,-290.080688)" style="stroke:#000000;stroke-width:0.05mm;fill:none" d="M225.806412,661.563782C232.198425,659.862305,234,658.509827,234,655.41272C234,652.584412,231.354065,651,226.630844,651C217.595947,651,213.150574,656.150574,218,661C219.100006,662.099976,220.112503,662.994629,220.25,662.988159C220.387497,662.981628,222.887878,662.340637,225.806412,661.563782z"/>
    <path transform="matrix(-0.410099,0,0,-0.410099,-1111.065674,-290.080688)" style="stroke:#000000;stroke-width:0.05mm;fill:none" d="M406.110382,651.25C410.647827,648.893433,412.842804,648.450562,421.452667,648.154602C426.978699,647.964661,432.0625,647.347046,432.75,646.782166C434.71814,645.165039,434.281464,640.221008,432.065735,639.035156C431.001892,638.46582,425.939392,638.010193,420.815735,638.022644C412.667114,638.042419,410.498627,638.449585,403.507294,641.272644C394.696106,644.830505,391.866699,648.013916,393.989777,651.980896C395.506866,654.815552,399.736115,654.560547,406.110382,651.25z"/>
    <path transform="matrix(-0.410099,0,0,-0.410099,-1111.065674,-290.080688)" style="stroke:#000000;stroke-width:0.05mm;fill:none" d="M600.701477,644.75C605.994385,639.189819,620,614.190369,620,610.302917C620,607.770691,616.111938,605.165039,610.637573,604.028564C601.214966,602.072449,598.892944,605.138062,602.978027,614.140808C605.575256,619.864563,605.501526,621.600891,602.396606,627.831604C597.343689,637.971497,589.269226,640.767334,578.7229,636.028809C573.527771,633.69458,570.602295,634.006042,568.963745,637.067749C567.700439,639.428223,569.079529,642.437012,572.187012,644.100098C574.920898,645.563232,587.130615,647.792358,593.053833,647.909729C596.949768,647.986938,598.054626,647.530457,600.701477,644.75z"/>
    <path transform="matrix(-0.410099,0,0,-0.410099,-1111.065674,-290.080688)" style="stroke:#000000;stroke-width:0.05mm;fill:none" d="M428.777496,626.443298C431.604156,624.46344,431.5867,624.040527,428.03656,608.484863C422.40448,583.806824,420.066315,575.521667,418.387573,574.294128C415.898529,572.474121,413.268219,574.372681,411.885651,578.987305C410.820038,582.544067,410.962646,583.52533,413.303131,588.740662C417.292084,597.629272,419,605.564758,419,615.210083C419,622.666687,419.303375,624.303406,421,626C423.402618,628.402588,425.786224,628.538452,428.777496,626.443298z"/>
    <path transform="matrix(-0.410099,0,0,-0.410099,-1111.065674,-290.080688)" style="stroke:#000000;stroke-width:0.05mm;fill:none" d="M589.777466,625.443298C592.611816,623.458069,592.646423,619.715637,589.888062,613.479858C586.262695,605.284058,588.698914,597.510742,596.071106,593.751526C600.300232,591.595032,604.896851,591.541016,613.542969,593.546204C619.581726,594.946655,620.43573,594.944519,622.605042,593.523132C625.881042,591.376648,625.940613,586.308105,622.704346,585.077698C619.779358,583.965637,592.223633,583.375,589.298035,584.361633C587.994263,584.801392,586.072083,587.224487,584.585693,590.302124C581.71759,596.240601,576,615.48938,576,619.206543C576,622.107056,578.6073,624.762573,582.642578,625.971802C586.769165,627.208435,587.315186,627.167969,589.777466,625.443298z"/>
    <path transform="matrix(-0.410099,0,0,-0.410099,-1111.065674,-290.080688)" style="stroke:#000000;stroke-width:0.05mm;fill:none" d="M634.759766,572.75C635.919373,571.512512,638.551758,566.951477,640.609497,562.614319C643.73645,556.023743,644.464478,553.22699,645.04248,545.584961C645.578491,538.497925,646.457214,534.793518,648.949158,529.115906C652.656128,520.669861,652.448547,517.842651,647.98584,515.994141C643.331787,514.066345,632.611084,515.243042,625.5,518.462158C622.185425,519.962646,616.814575,521.422119,613.5,521.723022C610.200012,522.022644,606.67688,522.692444,605.670898,523.211426C603.307495,524.430664,598.374512,534.878967,596.971558,541.636902C595.123169,550.540527,597.646851,552.40509,613.256897,553.669312C619.893005,554.206726,621.301758,554.036865,623.006897,552.493774C625.084778,550.613281,625.609009,546.510315,624.079956,544.095093C622.933777,542.284668,618.51593,542.443481,613.704163,544.468079C607.306946,547.159668,602.836304,543.772766,604.425903,537.439087C605.200928,534.351135,609.286011,532.269958,616.093628,531.494751C625.081665,530.471313,625.984253,530.092957,630.484619,525.462402C635.275513,520.532959,637.936646,519.936646,641.08667,523.08667C643.761414,525.761414,642.991089,529.325989,638.795715,533.687012C635.835999,536.76355,635.72583,537.202698,635.614929,546.364441C635.491516,556.557312,634.490601,559.051331,628.826416,563.280273C625.546997,565.728699,615.023621,565.751282,603.397339,563.3349C593.849365,561.350403,592,562.040405,592,567.58728C592,572.293457,593.948914,572.980774,607.684265,573.118286C614.182922,573.183411,620.849976,573.580139,622.5,574C628.491943,575.524719,632.547119,575.111206,634.759766,572.75z"/>
    <path transform="matrix(-0.410099,0,0,-0.410099,-1111.065674,-290.080688)" style="stroke:#000000;stroke-width:0.05mm;fill:none" d="M622.181763,507.917603C632.837158,503.969116,642.449036,503.116486,650.364563,505.417603C659.352234,508.030396,660.748169,506.984528,665.368225,494.176697C668.476196,485.560608,668.658997,482.035431,666.157959,478.946777C664.569763,476.985382,663.019653,476.576233,654.907959,475.977264C644.196533,475.18631,633.391785,476.228912,629.054077,478.472015C625.30603,480.410248,623.020081,480.402802,620.222534,478.443298C617.464294,476.511383,617.278503,471.962921,619.862183,469.624695C624.230469,465.671478,640.849731,463.557037,655.244751,465.123047C664.176758,466.094757,665.309753,466.029633,667.062012,464.443909C669.71814,462.0401,669.491394,459.368073,666.462769,457.383667C664.231995,455.921997,661.329468,455.781128,642.429626,456.217438C616.912964,456.806488,617.494385,456.544891,613.483582,469.241364C610.162354,479.754883,610.189514,484.422852,613.584961,486.647614C615.902771,488.166321,617.065186,488.213531,624.834961,487.104462C640.937134,484.80603,647.480835,484.087982,652.726929,484.043915C657.220154,484.006165,658.183167,484.349915,659.587158,486.492706C661.699341,489.716248,660.786926,493.320435,657.476929,494.828552C656.062866,495.472839,650.989563,496.00061,646.202942,496.001373C641.416321,496.002106,633.674988,496.67868,629,497.504822C624.325012,498.330994,618.291443,498.931488,615.592163,498.839264C611.574097,498.702026,610.350342,499.084076,608.842163,500.946594C606.361084,504.01059,606.519531,507.550079,609.222534,509.443298C612.190369,511.522095,612.577698,511.476501,622.181763,507.917603z"/>
    <path transform="matrix(-0.410099,0,0,-0.410099,-1111.065674,-290.080688)" style="stroke:#000000;stroke-width:0.05mm;fill:none" d="M382.799988,503.799988C383.459991,503.140015,384,501.125366,384,499.323059C384,494.952698,380.443665,492.504028,375.306946,493.337616C373.297089,493.663757,369.607117,493.472229,367.107056,492.911926C361.264893,491.602692,358.188507,492.400696,357.430206,495.422089C356.337494,499.775757,358.41153,501.787994,364.746429,502.520294C367.910889,502.886078,371.850006,503.55307,373.5,504.002502C377.977631,505.222107,381.453583,505.146393,382.799988,503.799988z"/>
    <path transform="matrix(-0.410099,0,0,-0.410099,-1111.065674,-290.080688)" style="stroke:#000000;stroke-width:0.05mm;fill:none" d="M378.132263,479.60907C378.959808,477.792816,378.834473,475.674377,377.610809,470.795197C376.724854,467.262543,376,463.005615,376,461.335327C376,459.665039,375.497467,456.856873,374.88327,455.094971C373.526062,451.201691,370.218781,451.153564,368.356354,455C366.966644,457.870148,363,474.136536,363,476.965271C363,480.37915,365.766357,482,371.592865,482C376.369476,482,377.17749,481.70459,378.132263,479.60907z"/>
    <path transform="matrix(-0.410099,0,0,-0.410099,-1111.065674,-290.080688)" style="stroke:#000000;stroke-width:0.05mm;fill:none" d="M676.226746,445.25C678.636719,442.505524,679.144287,439.578949,677.580078,437.44754C676.330139,435.744415,675.231384,435.555878,668.825378,435.945221C659.167725,436.532196,648.967346,436.394257,635.411804,435.493347C622.206421,434.615723,620,435.329102,620,440.476166C620,442.349365,620.5625,444.234955,621.25,444.666351C621.9375,445.097778,631.724976,445.33255,643,445.18811C654.275024,445.043671,664.849976,445.353577,666.5,445.876801C671.203491,447.368256,674.556396,447.152191,676.226746,445.25z"/>
    <path transform="matrix(-0.410099,0,0,-0.410099,-1111.065674,-290.080688)" style="stroke:#000000;stroke-width:0.05mm;fill:none" d="M674.427307,424.785278C683.444763,425.017059,685.34906,424.017029,686.953186,418.207367C688.092285,414.08197,686.849854,411,684.047729,411C683.012695,411,680.171753,411.854767,677.734558,412.899445C672.515564,415.136566,661.451294,417,653.387207,417C645.228943,417,641.988159,420.096191,645.75,424.296509C647.36261,426.097076,648.245789,426.184967,657,425.415985C662.224976,424.957031,670.067261,424.673187,674.427307,424.785278z"/>
    <path transform="matrix(-0.410099,0,0,-0.410099,-1111.065674,-290.080688)" style="stroke:#000000;stroke-width:0.05mm;fill:none" d="M631.428589,422.428558C633.426636,420.430511,633.395691,420.668945,633.452271,406.835724C633.494202,396.587677,633.755493,394.827179,635.604553,392.335724C639.318176,387.331818,642.874817,386.004883,654.903381,385.135651C664.661011,384.430542,666.333008,384.037689,668.605896,381.91626C671.722473,379.007355,674.375122,374.034454,675.970337,368.110077C678.457153,358.874847,675.008728,356,661.444031,356C656.683594,356,650.172913,356.677826,646.975891,357.506256C640.492981,359.186127,636.848633,358.454254,635.060669,355.113342C633.731201,352.629272,635.146057,348.527374,637.827271,347.092438C638.884888,346.526428,645.768921,345.764954,653.125122,345.400299C672.529419,344.438416,682.027832,346.717621,686.040466,353.298553C688.695862,357.653473,688.517944,363.604492,685.460022,372.713837C679.364563,390.871979,673.334778,396,658.079163,396C649.015381,396,645.214233,397.29834,644.36438,400.684418C643.191223,405.358551,645.467834,406.336395,655.985901,405.676147C665.809082,405.059479,673.799194,403.154968,680.164795,399.912811C682.816223,398.562408,684.171265,397.002899,685.065125,394.273132C685.744629,392.197906,688.221252,385.709473,690.568726,379.854401C692.91626,373.999329,695.815674,365.720642,697.011963,361.457367C699.469055,352.700775,699.006165,350.299225,694.295532,347.363708C692.757996,346.405548,689.529419,344.054047,687.120972,342.138123C683.165833,338.991852,681.907349,338.58139,674.120972,337.898376C662.768311,336.902527,633.824219,336.824493,632.312561,337.785675C630.109619,339.186432,629,344.087067,629,352.415863C629,361.910034,630.301575,366.643555,633.161743,367.551331C635.635315,368.336426,651.136902,366.20813,656.375732,364.364166C661.527344,362.550903,664.94812,362.643036,667.171265,364.654999C671.176575,368.279755,668.115967,374.414581,661.805786,375.409851C655.959412,376.33194,644.656799,377.900452,639,378.574707C635.974976,378.935272,632.730042,379.634918,631.789001,380.129456C629.592041,381.283997,625.4198,394.464172,623.495544,406.328369C621.691223,417.453217,621.623596,421.223602,623.200012,422.799988C624.899048,424.499023,629.568909,424.288239,631.428589,422.428558z"/>
    <path transform="matrix(-0.410099,0,0,-0.410099,-1111.065674,-290.080688)" style="stroke:#000000;stroke-width:0.05mm;fill:none" d="M703.443298,335.777496C705.523682,332.807343,705.406494,330.717163,702.882446,325.769562C701.717773,323.486633,700.376465,318.525696,699.901794,314.745239C699.427124,310.964783,698.747375,307.400299,698.391357,306.824188C697.499878,305.381775,688.550659,301.571075,682.5,300.057465C679.75,299.369537,671.155396,298.479156,663.400879,298.078857C651.118408,297.444824,648.898987,297.06427,646.175964,295.125305C641.713501,291.947723,640.396851,286.855621,641.818909,278.273987C642.90271,271.733368,642.842529,271.302948,640.05072,265.624084C636.390869,258.179596,637.468018,254,643.046387,254C645.762939,254,646.472595,254.633118,651.802124,261.811737C653.234253,263.740723,655.66925,264.518829,666.509216,266.511475C690.193542,270.865173,707.888062,273.13028,709.881226,272.063568C712.207031,270.818848,713.577515,267.42627,715.487854,258.184631C718.459229,243.80986,717.169189,239.279007,710.419006,240.382233C693.308289,243.178741,682.28833,241.81459,666.244934,234.913971C655.26886,230.192947,644.314331,227.042648,638.785156,227.017136C634.653625,226.998077,632.408264,229.560333,633.51123,233.035446C634.163879,235.09166,634.47522,235.191971,645.186646,236.796967C649.565125,237.453018,654.701721,239.240005,660.066711,241.973618C672.456909,248.286728,681.106079,250.289963,695.763611,250.241364C707.153137,250.203613,708.133118,250.351959,709.513611,252.322861C711.620728,255.331268,711.366089,257.307465,708.527588,259.974091C706.141724,262.215485,705.642639,262.275238,694.277588,261.680817C678.084167,260.833832,666.674744,258.07486,656.55603,252.559143C647.897095,247.839157,638.425049,245.50769,634.292114,247.079041C630.399475,248.559021,630.358459,249.5923,632.881531,282.644379C633.936218,296.460938,635.596802,302.423126,638.658691,303.386749C644.009338,305.070648,653.002441,306.224915,666,306.895996C687.615662,308.012054,691.98877,310.908661,691.996277,324.115143C692.000244,331.210236,693.999573,335.246765,698.388123,337.019928C701.48645,338.27179,701.739868,338.209503,703.443298,335.777496z"/>
    <path transform="matrix(-0.410099,0,0,-0.410099,-1111.065674,-290.080688)" style="stroke:#000000;stroke-width:0.05mm;fill:none" d="M679.799988,325.799988C680.460022,325.140015,681,323.800385,681,322.823059C681,319.367279,677.070374,318.261688,662.5,317.618011C654.799988,317.277863,645.799988,316.340698,642.5,315.5354C634.873901,313.674438,635.348816,313.651215,633,316C630.726074,318.273895,630.347961,323.213959,632.322388,324.85257C633.13269,325.525116,640.198975,326.066528,650.572388,326.250885C659.882568,326.416351,669.997498,326.652618,673.049988,326.775879C676.324463,326.908112,679.092041,326.507996,679.799988,325.799988z"/>
    <path transform="matrix(-0.410099,0,0,-0.410099,-1111.065674,-290.080688)" style="stroke:#000000;stroke-width:0.05mm;fill:none" d="M705.964844,293.065735C706.53418,292.001892,707,289.742249,707,288.044312C707,284.074341,705.695251,283.560577,690.5,281.54718C683.900024,280.672668,673.681702,279.04068,667.792725,277.920532C656.311218,275.736633,653.739746,276.093994,652.484802,280.047913C652.109985,281.228821,652.471741,283.071014,653.338074,284.39325C654.728882,286.515808,655.770081,286.736237,667.171021,287.321594C680.504089,288.006134,689.940186,289.863098,695.793884,292.954437C700.634521,295.510742,704.632874,295.554474,705.964844,293.065735z"/>
    <path transform="matrix(-0.410099,0,0,-0.410099,-1111.065674,-290.080688)" style="stroke:#000000;stroke-width:0.05mm;fill:none" d="M706,229.712082C707.541748,228.936005,708.618774,227.434265,708.809937,225.794083C709.26593,221.881149,706.275452,220.670685,698.145691,221.477463C689.793091,222.306351,683.942871,221.018753,672.803833,215.899979C667.329651,213.384415,660.845764,211.334335,655.303833,210.366867C641.384033,207.936844,639.023621,207.145996,637.82251,204.509842C636.467285,201.535431,637.182983,199.581421,640.399658,197.47377C642.672485,195.984589,643.402039,195.970093,648.20343,197.318741C651.116516,198.136993,656.650024,199.323868,660.5,199.956253C664.846741,200.670227,671.290344,202.886337,677.5,205.803009L687.5,210.5L699.338257,210.5C713.886169,210.5,713.745544,210.622665,717.378113,194.763962C723.507813,168.003479,723.205627,165.526154,713.487488,162.863312C702.824463,159.941589,689.407471,157.680908,686.725342,158.354095C685.286499,158.71521,682.018799,160.820007,679.463684,163.031403C672.089905,169.413391,667.589355,171.285477,658.40863,171.789734C647.437012,172.392349,639.702209,170.199646,636.965271,165.710876C634.581543,161.801392,634.30365,152.247238,636.45282,148.091187C638.175964,144.759079,641.231873,143.397141,650,142.053696C654.996704,141.288101,657.020386,140.460007,658.75,138.473129C662.937439,133.662857,660.751038,122.095123,654.861816,117.901627C653.169495,116.696587,648.979553,115.387993,644.851868,114.775352C632.927795,113.005562,628.817444,107.197693,625.87207,87.957085C623.852173,74.76255,626.820496,69.485519,638.428162,65.634842C645.457031,63.303101,659.641602,63.473881,668.757446,66C680.287231,69.195076,683,68.503944,683,62.371429C683,56.814182,681.729797,56.353584,664.320923,55.597946C646.597534,54.828655,642.114929,55.408325,630.833435,59.928329C626.616821,61.617748,622.73999,63,622.218262,63C621.696594,63,620.084045,63.932663,618.634888,65.072578C616.7724,66.537575,616.001709,68.076637,616.00592,70.322578C616.02771,82.095802,624.464355,117.859596,628.078491,121.5C629.834656,123.268898,631.15741,123.465103,639.525513,123.197983C648.487854,122.911888,649.11908,123.028168,651.493408,125.402527C654.522095,128.431198,654.650024,130.34996,652,133C650.302734,134.697281,648.666687,135,641.191101,135C635.670288,135,631.78064,135.466583,630.770508,136.25C628.198425,138.244812,627.009766,144.678741,627.029419,156.5C627.047974,167.645569,628.016785,174.416779,629.85614,176.256149C630.412537,176.812546,634.610046,177.629837,639.183899,178.072372C643.757751,178.514908,652.114258,179.371521,657.753967,179.975967C670.823059,181.376663,674.455261,180.505676,678.969177,174.888733C683.637573,169.079559,689.69574,166.578766,697.200012,167.363113C708.910706,168.587128,712.525452,172.411819,711.782715,182.79274C710.790161,196.665237,705.752258,202.482361,694.892639,202.295425C688.813232,202.190765,684.408875,200.385361,679.231689,195.875778C675.38147,192.522079,675.839355,192.626755,656,190.56456C635.230286,188.40567,633.399475,188.460739,631.538879,191.300278C630.209229,193.329651,630.199097,194.634476,631.452881,202.379669C633.360779,214.165878,634.458984,215.677505,641.723755,216.517075C651.753357,217.676178,659.586548,219.815964,668.681274,223.881042C677.222351,227.698639,682.807617,229.569214,688,230.351151C693.823975,231.228195,703.683533,230.878143,706,229.712082z"/>
    <path transform="matrix(-0.410099,0,0,-0.410099,-1111.065674,-290.080688)" style="stroke:#000000;stroke-width:0.05mm;fill:none" d="M699.443298,188.777496C701.466187,185.889435,701.424866,182.126938,699.345032,179.828735C695.440979,175.514816,686,179.557281,686,185.542831C686,190.499512,696.472229,193.019287,699.443298,188.777496z"/>
    <path transform="matrix(-0.410099,0,0,-0.410099,-1111.065674,-290.080688)" style="stroke:#000000;stroke-width:0.05mm;fill:none" d="M665.608398,158.999115C667.867981,158.030365,671.743408,155.271759,674.22052,152.868881L678.724243,148.5L679.39386,134.62294C679.947754,123.144928,679.805176,120.378868,678.569275,118.62294C677.747375,117.455322,674.44928,112.687759,671.240051,108.028358C664.756042,98.614212,661.644653,96.282982,654.413147,95.420464C644.92688,94.289024,642.039063,91.964828,643.396973,86.55442C644.482422,82.229744,648.429993,81.700867,658.806213,84.489983C669.238892,87.29425,671.836487,88.841545,675.181702,94.244141C676.456787,96.303413,679.156799,100.660408,681.181702,103.926353C686.135315,111.915741,688.861877,113.657562,694.003357,112.117142C696.155334,111.472389,699.509949,109.441643,701.458008,107.604347C705.574524,103.72197,705.926453,100.777924,703.436035,91.056831C702.294006,86.598999,701.94519,81.114372,702.143005,70.726067C702.734253,39.680424,702.072815,36,695.901733,36C690.382507,36,688.28241,43.702946,691.640991,51.627876C694.761108,58.990082,694.951538,61.808418,692.866638,69.768265C690.901062,77.272697,690.901062,77.334473,692.864685,83.403427C693.949585,86.756538,695.637573,91.581139,696.615723,94.124748C698.300598,98.506172,698.30365,98.887619,696.674011,101.374748C693.191772,106.689293,687.051453,103.760551,684.991882,95.80275C683.161072,88.728775,680.867615,83.188408,679.132813,81.648705C677.170837,79.907356,665.037659,76.217026,657.039429,74.928947C649.13855,73.65654,641.210144,75.185478,638.25,78.552353C635.656494,81.502243,635.419312,85.230553,637.361389,92.522568C639.741821,101.460762,641.651917,103.146233,651,104.557259C656.912292,105.449669,660.026489,107.127197,663.845398,111.476723C669.759155,118.212097,671.463623,122.680809,671.482666,131.5C671.505188,141.898346,669.343323,146.570465,663.038086,149.75C660.584045,150.987503,657.117737,152,655.335144,152C650.541992,152,647,153.928436,647,156.538071C647,161.984024,655.900391,163.161133,665.608398,158.999115z"/>
    <path transform="matrix(-0.410099,0,0,-0.410099,-1111.065674,-290.080688)" style="stroke:#000000;stroke-width:0.05mm;fill:none" d="M721.799988,151.800003C723.856018,149.743988,723.123352,145.969513,720.076904,142.92308C716.806641,139.652817,712.613953,139.136551,705.830688,141.168869C702.386169,142.200882,701.61145,142.101303,699.214661,140.318542C695.567261,137.60556,695.286865,134.622238,698.387756,131.521301C700.242065,129.667007,701.966858,129,704.907471,129C710.721619,129,713.672241,127.276337,715.44574,122.843964C717.533447,117.626251,717.413025,114.291397,715.091919,113.049187C713.53186,112.214287,712.301697,112.757011,708.34729,116.024727C705.687195,118.222931,701.483276,120.76236,699.005371,121.667923C691.817932,124.294533,690.624268,125.958153,690.170959,133.980362C689.475891,146.281525,690.22937,147.241669,702.012695,149.069916C705.997742,149.688217,710.887634,150.793732,712.87915,151.526596C717.501648,153.227676,720.286926,153.313049,721.799988,151.800003z"/>
    <path transform="matrix(-0.410099,0,0,-0.410099,-1111.065674,-290.080688)" style="stroke:#000000;stroke-width:0.05mm;fill:none" d="M720.95282,93.624153C722.21637,90.300659,724.445801,52.189743,723.630737,47.845245C722.77533,43.285427,720.008728,40.754852,716.33844,41.175045L713.5,41.5L713.524658,66.5C713.550659,92.866127,714.03241,96,718.059937,96C719.234253,96,720.419617,95.026505,720.95282,93.624153z"/>
    <path transform="matrix(-0.410099,0,0,-0.410099,-1111.065674,-290.080688)" style="stroke:#000000;stroke-width:0.05mm;fill:none" d="M624.793701,50.516003C636.230713,45.191498,639.339844,44.648544,658.830505,44.571995C675.77533,44.505444,677.268372,44.353256,678.580505,42.558872C680.652771,39.72504,680.321899,37.257027,677.633545,35.495533C675.567932,34.142101,673.24762,34.079575,659.383545,35.003731C644.702942,35.982319,623.268677,39.730835,618.828003,42.096268C614.292053,44.512428,612.555969,49.155945,615.200012,51.799999C616.939697,53.5397,618.847107,53.284412,624.793701,50.516003z"/>
</svg>
