<?xml version="1.0" encoding="UTF-8"?>
<svg xmlns="http://www.w3.org/2000/svg" width="400.001mm" height="296.759mm" viewBox="-1007.458496 -656.605591 400.000977 296.759033">
    <path transform="matrix(-1,0,0,-1,0,0)" style="stroke:none;fill:#000000;fill-rule:evenodd" d="M668.635803,656.208862C666.921326,655.856567,663.745239,654.566895,660.043762,652.719971C654.04541,649.727112,644.37439,643.890869,643.124207,642.509399C642.742065,642.087158,641.793823,639.847168,641.016968,637.531738C640.240112,635.216187,639.307739,632.993774,638.944946,632.592896C638.582153,632.192017,637.44104,631.602905,636.409058,631.283813C635.377075,630.964661,631.310669,629.468262,627.372681,627.958435C617.737793,624.264465,618.006104,624.371582,615.916626,623.385864C614.903992,622.908203,612.847961,621.96936,611.347717,621.299561C607.571411,619.613708,607.03479,618.711975,607.698181,615.166809C607.979004,613.665894,608.662231,611.26532,609.216431,609.832214C611.074768,605.026611,616.061096,598.610718,619.938293,596.036377L622.130737,594.580688L630.377441,594.784302C634.913147,594.89624,640.005005,595.121338,641.692749,595.284546C647.202332,595.817139,663.077698,595.48822,668.491638,594.729309C671.999939,594.237549,677.627502,592.881348,678.814148,592.241699C680.72522,591.21167,685.515747,584.356689,689.583374,576.831787C690.31012,575.487427,691.138428,574.111328,691.424072,573.773743C692.452087,572.559082,697.300232,565.121094,697.50592,564.443115C700.37677,554.979492,702.622864,546.64502,703.646973,541.655945C706.4021,528.234192,706.981201,526.429871,709.619385,523.048096C710.261963,522.224426,710.859741,520.819702,711.015747,519.766724C711.374695,517.344482,712.052795,516.385437,714.186768,515.281921C716.943604,513.856262,717.384399,513.30835,717.384399,511.30719C717.384399,509.571594,717.509583,509.400146,721.782715,505.283417C724.201782,502.952911,727.016418,500.333191,728.037537,499.461823C730.140808,497.666931,734.151489,493.199615,735.505554,491.143372C736.002747,490.388336,736.917297,489.017029,737.537903,488.096008C739.191284,485.642151,741.820557,480.125549,742.339844,478.020874C742.587891,477.015503,743.071472,473.523224,743.414551,470.260315C744.569092,459.277466,744.735596,457.787048,744.991577,456.144836C745.49762,452.898102,746.099731,436.10376,746.436462,415.844116C746.625366,404.480164,746.843201,392.604736,746.920593,389.454346C747.031433,384.944611,746.907593,383.140015,746.338318,380.969788C745.940674,379.453674,745.615356,377.050964,745.615356,375.630432C745.615356,374.167145,745.402527,372.834839,745.124329,372.556702C744.817139,372.249481,743.290771,372.065704,741.04657,372.065704C737.486389,372.065704,737.448975,372.054962,736.014099,370.620056C734.886963,369.49292,734.565613,368.839386,734.555664,367.653778C734.548279,366.77243,734.119141,365.445068,733.534912,364.496552C732.348572,362.570435,732.24231,361.196472,733.238708,360.667511C733.642822,360.453003,737.341125,360.365387,741.728455,360.46637C746.809265,360.583282,750.36438,360.476074,751.991089,360.15686C756.231995,359.324585,757.280273,360.015869,757.875488,364.037415C758.046082,365.190063,758.565186,367.513977,759.029053,369.201721C759.49292,370.889435,760.044556,374.049133,760.254883,376.223267C760.547607,379.249023,760.842896,380.437561,761.513794,381.290436C762.08728,382.019531,762.390259,382.986938,762.390259,384.089172C762.390259,385.015625,762.765625,387.706512,763.224426,390.068848C763.837769,393.226715,764.044678,395.82666,764.00592,399.887512C763.976929,402.925415,764.148621,407.436218,764.387329,409.91156C766.367554,430.440552,766.600891,432.487457,767.489075,437.119629C767.855835,439.032349,768.330688,442.346436,768.544312,444.484222C768.757935,446.622009,769.050232,448.83136,769.19397,449.393951C769.337708,449.956543,769.580627,452.257935,769.733765,454.50824C769.886963,456.758545,770.451294,460.209747,770.987976,462.177612C771.9375,465.659302,771.944946,465.8078,771.266418,467.70105C770.239319,470.566528,770.369751,471.223328,772.631348,474.574768L774.689514,477.624878L782.739746,477.624878C790.842163,477.624878,795.884216,478.131958,801.845886,479.546295C806.637085,480.682983,815.223267,483.574005,818.239197,485.06604C823.800659,487.817352,838.757202,493.644409,844.832764,495.426819C846.182922,495.822937,849.036743,496.793121,851.1745,497.582825C857.034302,499.747437,859.300903,500.164093,867.335693,500.553528C871.38623,500.749847,875.453125,501.027069,876.373291,501.169556C878.781189,501.54245,879.244446,500.89856,879.594849,496.692078C879.792358,494.321228,880.087646,493.045959,880.522705,492.684875C880.873779,492.393555,882.83728,492.03186,884.886108,491.881104L888.611206,491.607025L892.498047,493.8992C894.635864,495.159912,897.280151,496.800903,898.374268,497.545898C899.468384,498.290833,900.668823,498.900391,901.041748,498.900391C902.468994,498.900391,911.536377,488.852112,915.616638,482.748901C917.084717,480.552948,927.478149,466.454651,929.740906,463.589874C930.239197,462.959045,931.867493,461.458313,933.359375,460.254883C934.851257,459.051453,937.268677,457.093994,938.731323,455.904938C945.396851,450.486389,947.641296,448.690002,949.164551,447.554443C950.064636,446.883423,951.754883,445.503845,952.920593,444.488708C954.086304,443.473633,956.919861,441.078094,959.217407,439.165344C965.740784,433.734406,968.072327,431.470337,971.225586,427.504761C975.698486,421.879547,978.118164,418.009674,979.411682,414.412109C980.05896,412.611877,980.919678,410.473755,981.324341,409.660675C982.844849,406.605804,986.460938,390.741394,985.981201,389.230133C985.792358,388.634979,984.559448,387.928223,979.719849,385.640869C978.197266,384.921265,977.819702,384.369751,976.448364,380.862305C975.041321,377.263641,974.989197,376.797546,975.765991,374.763367C976.470947,372.917694,976.469727,372.905701,975.370483,370.803558C974.424438,368.994263,974.334106,368.535522,974.733582,367.571045C975.475464,365.779907,976.716309,365.35907,980.347046,365.667145C984.826416,366.047211,994.300903,364.586456,995.032349,363.402985C995.1474,363.216858,996.029053,363.064545,996.991516,363.064545C998.328796,363.064545,999.28833,363.426392,1001.060181,364.598816C1003.428833,366.16629,1004.186523,367.482666,1004.192139,370.040466C1004.193359,370.614258,1004.424561,371.313538,1004.705811,371.59436C1005.064209,371.952148,1005.25769,374.222382,1005.352295,379.179779C1005.481079,385.920441,1005.440063,386.368774,1004.483887,388.672729C1003.932007,390.002747,1003.272827,392.333679,1003.019104,393.852631C1002.765381,395.371582,1002.353821,397.810608,1002.104492,399.272705C1001.855164,400.734802,1001.777771,402.253754,1001.932495,402.648132C1002.622314,404.406097,1003.120361,410.509338,1003.144897,417.503052L1003.171509,425.094604L1001.748413,427.936218C1000.622559,430.184387,999.041687,432.10376,994.179321,437.126038C990.79895,440.617493,986.468262,445.485931,984.555481,447.944733C982.6427,450.403534,980.151428,453.438538,979.019165,454.689209C977.886963,455.93985,976.262573,457.975769,975.409424,459.213409C974.556274,460.45105,973.227234,462.358337,972.455994,463.451813C970.725708,465.905029,970.573242,468.01947,972.00647,469.68573C973.950378,471.945679,976.299805,469.821655,975.205017,466.794067C974.182617,463.966522,974.800354,462.693115,977.600037,461.857239C978.162598,461.68927,979.451416,460.822693,980.46405,459.931519C982.610107,458.042786,984.361206,457.088318,987.252808,456.23114C988.398682,455.891418,990.147827,455.198822,991.139648,454.692017C994.716797,452.864075,1003.125122,450.090729,1005.217285,450.048737C1007.067749,450.011597,1007.276001,450.099487,1007.39917,450.969849C1007.656616,452.788422,1007.119446,453.780945,1005.527832,454.427643C996.507751,458.092712,986.393188,464.245605,982.191162,468.623718C979.533569,471.3927,978.265991,473.923828,977.270569,478.44931C976.849121,480.365417,976.290527,482.332581,976.029297,482.820709C975.441895,483.918335,975.379944,496.071991,975.948975,498.587646C976.166016,499.547272,976.546753,503.3703,976.795044,507.083252C977.248169,513.859863,977.538391,517.225586,978.41333,525.849121C978.862305,530.273804,978.835938,530.700684,977.87146,534.645691C977.313965,536.926147,976.740967,539.642395,976.598145,540.681885C976.304993,542.815857,974.985596,546.641296,973.294189,550.261475C972.461609,552.043518,971.038208,553.82135,968.023621,556.844543C963.997803,560.881897,963.739075,561.06073,957.756531,563.942139C948.985352,568.166687,948.624634,568.325378,945.255249,569.441895C939.816711,571.244141,934.777954,572.368774,926.866211,573.546143C924.728394,573.864258,921.874634,574.433838,920.524414,574.811768C919.174255,575.189697,916.320435,575.664429,914.182739,575.866699C906.977966,576.548279,898.865479,577.130127,894.748352,577.260559C890.598022,577.39209,881.223511,578.026733,876.745972,578.47937C875.395874,578.615906,869.043884,578.912537,862.630554,579.13855C856.217224,579.364624,846.182922,579.737427,840.332153,579.967163C834.481445,580.196777,826.28833,580.433228,822.125244,580.492432C816.463501,580.57312,813.9375,580.7771,812.101257,581.302124C809.555176,582.030151,798.948486,584.716675,794.303467,585.810059C790.05072,586.811035,783.681885,588.094543,780.801758,588.530884C774.290344,589.517456,768.371155,591.328003,763.004822,593.974487C760.078979,595.417358,756.043274,597.297241,754.036621,598.151855C751.410095,599.270508,749.977539,600.164124,748.922302,601.342163C746.29126,604.279358,731.418213,618.891724,727.111694,622.770447C719.248474,629.852661,715.137207,633.447327,713.497498,634.673828C712.597412,635.347168,710.664185,636.839111,709.201477,637.989136C707.738831,639.139282,705.539734,640.843262,704.314697,641.775757C703.089661,642.708252,700.696167,644.781311,698.99585,646.382446C694.299561,650.804626,692.103577,652.48291,688.744324,654.217163C685.767578,655.753845,685.510437,655.809937,680.152283,656.091553C677.11438,656.251221,673.892334,656.46875,672.992249,656.574829C672.092163,656.680908,670.131714,656.516174,668.635803,656.208862M804.312622,552.923889C805.857483,551.216797,803.739136,548.769043,801.465088,549.633667C799.443298,550.402344,800.627441,553.725708,802.923096,553.725708C803.288208,553.725708,803.913513,553.364868,804.312622,552.923889M801.464966,560.940918C802.701416,559.053894,800.709106,556.797607,798.737915,557.852539C797.202515,558.674255,798.277039,561.908569,800.085449,561.908569C800.495483,561.908569,801.116211,561.473145,801.464966,560.940918M743.910278,366.595459C744.131165,365.448883,743.17511,364.701111,741.488159,364.701111C739.670288,364.701111,738.740417,365.762421,739.596313,366.860382C740.569702,368.109009,743.655151,367.919525,743.910278,366.595459M752.263916,477.134857C753.85498,475.294769,752.401245,472.985718,749.788635,473.203278C748.593567,473.302826,748.164551,473.571991,747.72168,474.500366C746.31897,477.440735,750.102173,479.634949,752.263916,477.134857M696.659729,641.998535L697.496094,640.873413L696.659729,639.74823C695.119629,637.67627,692.426575,638.167175,692.426575,640.519897C692.426575,643.396484,694.96228,644.282166,696.659729,641.998535M991.951538,405.647003C994.077698,403.520874,993.195923,400.705811,990.403809,400.705811C989.205017,400.705811,988.932983,400.900513,988.421509,402.124664C986.753296,406.117096,989.119995,408.478577,991.951538,405.647003M893.725464,509.947266C896.19812,507.474609,892.280884,504.296082,889.711182,506.690063C888.519775,507.800049,888.581177,508.885071,889.893799,509.917603C891.254639,510.988037,892.673706,510.999023,893.725464,509.947266M962.083984,556.212036C963.513245,554.782776,963.581299,554.038269,962.384521,552.92334C960.45813,551.12854,957.961121,552.39502,957.961121,555.16687C957.961121,557.648315,960.104431,558.19165,962.083984,556.212036M844.408691,503.008301C845.952759,501.302185,844.194824,499.309509,841.14563,499.309509C838.665161,499.309509,838.198914,501.952515,840.462585,503.181671C842.002136,504.017639,843.557129,503.949341,844.408691,503.008301M764.053711,454.698425C765.824951,453.750488,764.624146,448.984802,762.614075,448.984802C759.371216,448.984802,758.34436,453.241882,761.279358,454.517975C762.890503,455.218506,763.061157,455.229614,764.053711,454.698425M634.743103,602.900513C635.77533,602.064697,635.982361,600.071472,635.095276,599.509583C634.149048,598.910217,631.167175,599.086914,630.470459,599.78363C628.229736,602.024414,632.225403,604.939209,634.743103,602.900513M753.006836,468.200195C754.197327,467.563049,754.042847,465.602417,752.720154,464.561951C750.619934,462.909912,748.47937,463.742798,748.47937,466.212036C748.47937,468.205444,750.960815,469.295166,753.006836,468.200195M754.686584,449.125977C756.392212,447.582397,754.995483,444.484222,752.593994,444.484222C750.485718,444.484222,749.244812,447.646118,750.75885,449.160156C751.599915,450.001221,753.73999,449.982605,754.686584,449.125977M779.884216,485.499817C782.902466,483.934448,781.99054,482.125488,778.183228,482.125488C775.300049,482.125488,773.846252,482.877777,773.846252,484.369751C773.846252,486.731873,776.537476,487.235565,779.884216,485.499817M769.038818,481.809082C770.704224,480.34668,769.360962,476.80661,767.140747,476.80661C764.406067,476.80661,763.299561,480.167389,765.430725,482.000488C766.63855,483.039429,767.701965,482.983032,769.038818,481.809082M889.654419,501.140198C891.192139,500.344971,891.263672,498.867004,889.819458,497.730957C887.688782,496.054993,884.973877,496.145111,884.30127,497.914154C883.262939,500.645081,886.656738,502.690308,889.654419,501.140198M909.830811,502.889526C911.297974,501.555695,911.533386,500.342529,910.521362,499.330444C909.443604,498.252747,909.186523,498.272552,907.667786,499.550476C906.832153,500.253632,906.408936,500.982605,906.408936,501.718933C906.408936,503.875702,908.107056,504.456604,909.830811,502.889526M725.807495,533.476013C726.630981,532.219238,726.319824,530.710693,724.955505,529.346375C723.026489,527.417358,720.657532,528.598145,720.657532,531.488647C720.657532,534.11853,724.432129,535.575134,725.807495,533.476013M781.619995,541.860535C783.555847,539.924683,781.407104,536.956909,778.346863,537.339722C776.783813,537.535278,776.09729,540.779907,777.35321,542.035889C778.267395,542.950012,780.627502,542.853027,781.619995,541.860535M873.128052,554.312256C873.972046,553.468323,874.12793,553.012024,873.922852,551.986572C873.137573,548.060059,868.7677,548.397583,868.7677,552.384766C868.7677,553.915405,869.969604,555.362305,871.241211,555.362305C871.701416,555.362305,872.550537,554.889771,873.128052,554.312256M754.398438,426.30484C754.94165,424.786072,753.958252,423.049591,752.455811,422.874695C751.557129,422.770111,751.26001,422.965576,750.907227,423.893311C750.353638,425.349518,750.755493,427.567078,751.666626,428.083679C752.588623,428.606415,753.874756,427.768951,754.398438,426.30484M883.246338,509.008667C884.390625,508.171936,883.991638,505.795349,882.595093,505.129333C881.677124,504.69162,881.248291,504.702209,880.077393,505.191437C877.292725,506.354919,877.948853,509.538147,880.973267,509.538147C881.825195,509.538147,882.848022,509.299866,883.246338,509.008667M753.395691,582.442627C754.737976,581.355713,754.155701,580.105835,751.73584,578.879639C748.374207,577.176147,746.220032,577.711731,746.506348,580.17981C746.789673,582.622437,751.331482,584.114197,753.395691,582.442627M972.053345,479.17041C973.51123,477.089142,972.369751,474.760864,969.891541,474.760864C967.061768,474.760864,965.386963,477.989075,967.462524,479.442841C968.850952,480.415405,971.282471,480.271118,972.053345,479.17041M743.895752,494.704376C744.892029,493.503906,744.877625,492.08429,743.857117,490.897858C742.872375,489.753021,742.841003,489.746338,741.763245,490.452515C740.212708,491.468475,739.695435,493.023132,740.499573,494.250458C741.20105,495.321075,743.166016,495.583679,743.895752,494.704376M965.084778,471.04718C966.925293,468.859802,966.352661,465.350586,964.155212,465.350586C961.686096,465.350586,959.26355,470.171692,960.906982,471.815033C961.869141,472.777191,963.95105,472.394562,965.084778,471.04718M762.708374,443.84729C764.53125,442.570496,763.506531,438.347046,761.373901,438.347046C760.201355,438.347046,758.707947,440.107391,758.707947,441.489441C758.707947,442.543396,760.360352,444.484222,761.257751,444.484222C761.55542,444.484222,762.208252,444.197601,762.708374,443.84729M703.622864,636.34314C704.242249,635.855957,704.700928,635.085205,704.700928,634.531616C704.700928,632.346741,700.715759,630.990723,699.203979,632.661194C698.370483,633.582275,698.620728,634.862427,699.909546,636.270508C700.959961,637.418213,702.22467,637.442871,703.622864,636.34314M947.641479,479.442841C949.478271,478.156311,948.407471,474.762939,945.824097,473.683533C943.220337,472.595642,941.321655,474.579529,942.422668,477.237549C943.454224,479.727844,945.812073,480.724182,947.641479,479.442841M761.189697,433.013794C761.793335,432.690735,761.981079,432.150513,761.981079,430.736603C761.981079,428.372314,761.405457,427.300171,760.136047,427.300171C759.444763,427.300171,758.946289,427.671082,758.513855,428.507263C757.632813,430.211151,757.735718,431.274902,758.893921,432.433044C760.035339,433.574493,760.107788,433.592834,761.189697,433.013794M689.610718,592.233398C691.237915,590.606201,691.642578,589.109985,690.708191,588.175659C689.720032,587.1875,688.37854,587.631836,687.124695,589.362793C685.589478,591.482056,685.273376,592.476807,685.896606,593.227722C686.724609,594.225464,687.945557,593.89856,689.610718,592.233398M754.207336,438.756195C755.302063,437.661499,755.26825,435.589478,754.136047,434.384277C753.045227,433.223145,752.405273,433.193695,751.343323,434.255615C750.409912,435.189087,750.201111,438.268616,751.016052,439.083496C751.761169,439.828644,753.291931,439.671631,754.207336,438.756195M990.719543,374.915344C991.700867,374.390137,991.784607,372.22937,990.874023,370.929321C989.701538,369.255371,985.782959,369.923492,985.782959,371.797333C985.782959,372.995087,986.497192,373.917969,988.033203,374.704956C989.490784,375.451721,989.688354,375.467194,990.719543,374.915344M680.806885,601.431885C682.458923,599.779907,682.711853,597.807922,681.364258,597.08667C680.534668,596.6427,679.77478,596.744507,677.557861,597.596619C674.798401,598.657227,675.801636,602.65332,678.863464,602.796997C679.167236,602.81134,680.041809,602.197021,680.806885,601.431885M794.682922,554.693359C795.757019,553.327881,795.785156,551.218628,794.741943,550.274536C793.738281,549.366211,792.616333,549.703674,791.252869,551.324097C789.999451,552.813721,789.935425,553.858215,791.030334,554.953125C792.17218,556.094971,793.663879,555.988892,794.682922,554.693359M959.997253,481.78595C962.952881,479.581482,960.453613,476.052887,956.727295,477.169312C953.906494,478.014465,953.100647,480.166229,954.922607,481.988159C955.799255,482.864807,956.225708,483.000488,957.470154,482.798523C958.292236,482.665131,959.429382,482.209473,959.997253,481.78595M787.048157,502.684967C788.129883,501.48468,788.33728,499.835999,787.55658,498.64447C786.944092,497.709717,786.65332,497.603516,785.229431,497.794495C782.148132,498.207764,781.080933,500.444275,783.033447,502.396698C784.221436,503.584717,786.114807,503.720642,787.048157,502.684967M760.50531,420.515808C760.966675,419.313599,760.75769,416.85022,760.11676,415.935181C759.298767,414.767334,758.219238,414.781616,756.827637,415.978577C755.563599,417.065918,755.638489,418.225586,757.092163,420.073669C758.069946,421.316742,760.097168,421.579376,760.50531,420.515808M845.440125,544.116577C846.439636,543.212036,846.483582,542.354919,845.595337,541.086853C845.026245,540.274414,844.679016,540.164246,843.278198,540.352173C840.311096,540.750122,838.452759,542.994873,839.773315,544.585999C840.496155,545.457031,844.307861,545.141235,845.440125,544.116577M670.073059,605.248169C670.942932,604.563965,671.151123,604.05603,671.151123,602.61792C671.151123,600.42572,670.363586,599.549805,668.392395,599.549805C665.340271,599.549805,664.326721,602.607849,666.619019,604.900146C668.03833,606.319458,668.634705,606.379517,670.073059,605.248169M971.32666,506.422668C972.008362,505.382233,971.784851,503.450684,970.919006,502.899902C969.409546,501.939697,965.661011,503.302124,965.224976,504.969421C965.105103,505.427856,965.264893,506.171021,965.579956,506.620911C966.617554,508.102234,970.30957,507.974915,971.32666,506.422668M951.638,458.209137C952.796387,457.050781,952.946167,455.328766,952.005371,453.985565C951.15979,452.778381,949.718872,452.834778,948.173035,454.135498C946.662964,455.406128,946.528564,456.909058,947.803833,458.266479C948.954224,459.490967,950.377441,459.469666,951.638,458.209137M948.653076,497.77179C950.001953,496.48877,950.166138,494.636169,948.986816,494.005066C947.594849,493.260071,945.720276,493.510834,944.645325,494.585785C943.416077,495.815033,943.356018,497.387878,944.494812,498.526703C945.551819,499.58371,947.030396,499.315308,948.653076,497.77179M902.949829,513.034424C905.05896,510.925354,903.852783,505.446686,901.279358,505.446686C900.009155,505.446686,899.601685,506.279358,899.248047,509.597351C898.988281,512.03418,899.047607,512.405334,899.81958,513.177368C900.942383,514.30011,901.719666,514.264648,902.949829,513.034424M756.969055,591.5625C758.097961,590.263306,758.101929,590.110596,757.041687,588.762695C756.139526,587.615784,754.409119,587.328918,752.986267,588.090393C751.858032,588.694214,751.534729,590.769104,752.370239,592.044312C752.965454,592.952698,753.265869,593.064819,754.554443,592.859741C755.437561,592.719238,756.424927,592.188782,756.969055,591.5625M762.594788,473.424255C764.056458,472.700653,764.845093,471.789673,764.845093,470.825012C764.845093,469.606079,763.621582,468.96402,761.154358,468.888184C758.867126,468.817932,757.47699,469.788513,757.486755,471.448853C757.501648,473.971558,759.740479,474.837402,762.594788,473.424255M757.388,389.926758C758.384766,388.929962,758.185547,385.978241,757.059937,385.066772C755.076599,383.460815,751.752502,385.342041,751.752502,388.070465C751.752502,390.093079,752.946411,391.021942,755.184204,390.740204C756.059021,390.630066,757.050781,390.264008,757.388,389.926758M765.886536,587.089539C767.055664,585.92041,767.087402,585.673889,766.308044,583.808716C765.592224,582.095581,763.169189,581.210083,761.401245,582.015625C759.777344,582.755554,759.930176,584.897217,761.735596,586.702698C763.384094,588.351196,764.519104,588.45697,765.886536,587.089539M996.750244,426.771118C998.198853,425.229156,998.670105,423.376007,997.908997,422.214417C996.311096,419.775726,991.510925,421.03479,991.510925,423.892578C991.510925,425.128723,993.924744,427.70929,995.080994,427.70929C995.514282,427.70929,996.265503,427.287109,996.750244,426.771118M997.238953,396.2052C999.020142,394.424011,997.65979,391.822174,994.443481,390.858551C992.185608,390.182068,990.692627,391.067322,990.692627,393.082642C990.692627,394.73291,991.626526,395.664246,994.034912,396.415771C996.367188,397.143585,996.295898,397.148285,997.238953,396.2052M874.925171,573.13562C876.329834,571.443115,873.475647,568.86438,870.199707,568.866211C867.167297,568.867859,864.532227,571.507568,865.908081,573.165344C866.652954,574.062805,874.17627,574.037964,874.925171,573.13562M968.998352,459.627716C970.063599,459.057617,971.462891,456.655243,971.462891,455.396484C971.462891,454.03418,969.994446,452.667114,968.531128,452.667114C966.997314,452.667114,966.005737,454.240967,965.968506,456.734985C965.926392,459.550537,967.081665,460.653503,968.998352,459.627716M937.969849,470.912842C938.337769,470.105347,938.249634,469.628937,937.479065,468.257843C936.483154,466.485779,935.553711,465.953491,934.094849,466.319641C932.942505,466.608856,931.642517,468.786346,931.982544,469.857697C932.333252,470.962708,934.106995,471.860626,935.978394,471.880493C937.219543,471.893677,937.609131,471.704346,937.969849,470.912842M872.190247,509.917603C872.966309,509.307068,873.268311,508.690857,873.268311,507.717407C873.268311,506.113129,872.629395,505.490723,870.65332,505.170074C868.459351,504.814026,867.131104,505.836639,867.131104,507.881775C867.131104,508.788879,867.409058,509.757629,867.774048,510.12262C868.677917,511.026428,870.912476,510.922729,872.190247,509.917603M998.512085,414.718994C999.003418,413.446899,998.699707,410.27655,998.006592,409.441406C997.264282,408.546906,995.7323,408.798981,994.813782,409.966736C993.80957,411.243347,993.726929,412.968048,994.590027,414.637024C995.10083,415.624817,995.474365,415.844116,996.645874,415.844116C997.829529,415.844116,998.152771,415.649231,998.512085,414.718994M937.472534,497.841156C938.479492,496.993866,938.731323,496.46463,938.731323,495.196106C938.731323,493.561096,937.981384,492.763245,936.44458,492.763245C935.30603,492.763245,932.594177,495.897064,932.594177,497.21283C932.594177,498.703094,932.837646,498.900391,934.676758,498.900391C935.733276,498.900391,936.607178,498.569336,937.472534,497.841156M967.091431,447.286987C967.583008,447.028259,968.120422,446.614014,968.285767,446.366394C969.256653,444.912323,967.745239,441.423157,965.949097,440.972351C964.635864,440.642761,962.973877,441.680908,962.631592,443.044739C962.32666,444.259644,963.648438,446.597717,965.011597,447.254761C966.20874,447.831818,966.06073,447.829529,967.091431,447.286987M988.974243,417.808014C989.60144,417.180847,989.608032,414.55957,988.985962,413.194153C988.486694,412.098389,987.059204,411.48938,985.969971,411.907379C985.211914,412.198273,984.146362,414.596863,984.146362,416.01236C984.146362,416.595154,984.53241,417.295593,985.055664,417.662079C986.135742,418.41861,988.283691,418.498596,988.974243,417.808014M755.639343,410.697784C758.339233,410.235474,759.506958,409.422852,759.519958,407.997345C759.532837,406.583344,758.367615,406.024658,755.405579,406.024658C752.233948,406.024658,750.934204,406.797729,750.934204,408.684113C750.934204,409.947144,752.368896,411.456848,753.307739,411.181702C753.690002,411.069702,754.739258,410.851929,755.639343,410.697784M756.824341,400.725647C758.655457,400.300873,759.102051,399.77356,759.11084,398.025909C759.119812,396.238892,758.451111,395.796082,755.74353,395.796082C753.749756,395.796082,753.184814,395.963135,752.347595,396.800323C751.240234,397.907684,751.073181,398.981293,751.854797,399.966827C752.770569,401.121521,754.186035,401.337646,756.824341,400.725647M850.890686,574.408264C851.684631,573.614319,852.212952,567.994141,851.601074,566.850952C850.947754,565.630127,848.901001,565.555786,848.003662,566.720215C847.223755,567.732178,847.323914,573.546997,848.135132,574.358276C848.939026,575.16217,850.115479,575.183472,850.890686,574.408264M946.081543,467.014038C946.902405,465.480286,946.551758,464.155457,944.830811,462.288452C943.909912,461.289429,942.791992,460.356354,942.346558,460.214996C941.3479,459.89801,939.95874,461.057068,939.95874,462.207275C939.95874,463.185303,942.223389,466.833099,943.175842,467.389374C944.277039,468.032471,945.630005,467.857727,946.081543,467.014038M680.179016,650.865234C680.868286,650.034668,680.165039,644.646851,679.168945,643.126587C678.282837,641.77417,676.704773,641.77124,675.820801,643.120361C675.20166,644.065308,675.204102,644.3573,675.854004,647.109497C676.566162,650.125732,677.53125,651.511108,678.920044,651.511108C679.317627,651.511108,679.884155,651.220459,680.179016,650.865234M973.507263,531.428955C974.186157,530.610962,973.674805,523.205627,972.850281,521.914734C972.121582,520.773926,970.609558,520.720947,969.631226,521.801941C968.410339,523.151001,969.282532,529.491638,970.94104,531.324341C971.735901,532.202637,972.828247,532.247131,973.507263,531.428955M722.713318,541.643799C723.094177,541.184875,723.119141,540.768738,722.806885,540.083435C722.261353,538.886169,719.276245,537.90271,714.2677,537.270081C710.115662,536.745667,709.201477,537.020264,709.201477,538.791931C709.201477,540.158081,709.969666,540.577393,713.328674,541.044861C714.996765,541.277039,716.913879,541.631714,717.588989,541.83313C719.595093,542.431641,722.137451,542.337708,722.713318,541.643799M862.763611,516.397339C863.462524,514.967102,863.469116,514.727051,862.865906,512.6521C862.511414,511.432739,862.221436,509.629822,862.221436,508.64563C862.221436,506.516479,861.310059,505.037537,859.997986,505.037537C858.480103,505.037537,857.993835,505.992004,858.277283,508.4151C858.415344,509.595337,858.647644,511.941833,858.793457,513.629578C859.125488,517.471924,859.484131,518.218201,860.919189,518.052368C861.720703,517.959778,862.218262,517.513367,862.763611,516.397339M815.567505,575.426086C815.986938,575.160767,816.26001,573.890137,816.467285,571.238647C816.63446,569.099487,817.219299,565.99823,817.802307,564.158875C819.329895,559.339722,819.127686,556.99884,817.183838,556.99884C816.132874,556.99884,815.613586,557.888428,815.127014,560.522705C814.882263,561.847534,814.213074,564.404358,813.639893,566.20459C811.633545,572.506042,812.631958,577.282532,815.567505,575.426086M991.171875,384.89035C992.130493,384.022766,992.13324,382.204895,991.177246,381.339722C990.768677,380.969971,989.802063,380.546936,989.029236,380.399597C987.28894,380.067871,985.525696,379.203583,984.012695,377.940735C982.610168,376.770172,981.023926,376.674316,980.685791,377.739685C980.382202,378.696167,980.97168,380.299744,981.914551,381.082275C982.800354,381.817383,989.52832,385.507141,990.046753,385.542053C990.254028,385.55603,990.760376,385.262756,991.171875,384.89035M717.198853,559.044556C717.945862,559.044556,718.67511,557.639893,718.357666,556.812561C717.936096,555.713989,716.608948,555.280334,712.512512,554.902649C710.353882,554.703613,708.005798,554.430969,707.294434,554.296753C706.215759,554.09314,705.887573,554.225891,705.317078,555.096558C704.545227,556.274536,704.78064,557.591797,705.841614,558.03241C706.740234,558.405518,715.368469,559.379333,716.088135,559.188843C716.387817,559.109497,716.887695,559.044556,717.198853,559.044556M753.993347,379.769318C755.736267,378.975159,755.783081,378.073395,754.446045,371.042847C753.527832,366.214417,753.085449,365.347656,751.458069,365.188507C750.440796,365.08902,750.018127,365.288269,749.469177,366.126099C748.798584,367.149567,748.81543,367.297607,749.911499,370.020325C750.878479,372.422363,751.016235,373.232971,750.821777,375.377136C750.577148,378.075012,751.030884,379.687439,752.116333,379.977539C752.478821,380.074402,752.812744,380.175018,752.858398,380.201141C752.904053,380.227234,753.414795,380.032898,753.993347,379.769318M724.023376,550.617126C724.938599,548.608398,722.910706,547.196045,719.072083,547.168884C718.256348,547.163086,716.023987,546.799622,714.111206,546.361084C709.503357,545.304749,708.125977,545.312744,707.544556,546.399231C706.962524,547.486694,707.342346,549.050476,708.277405,549.416504C708.673157,549.571411,710.930115,549.861084,713.292969,550.060181C715.655762,550.259216,718.573975,550.775146,719.777893,551.206604C722.30072,552.110718,723.413208,551.956299,724.023376,550.617126M960.086914,491.628235C963.005432,489.631531,964.364807,489.082672,967.054321,488.814972C969.962524,488.525513,970.644592,488.14856,970.644592,486.830627C970.644592,485.57132,969.742554,484.923981,967.678101,484.701843C966.262451,484.5495,965.445313,484.777405,963.280029,485.928345C961.817261,486.705811,959.573975,487.642792,958.2948,488.010498C954.809326,489.012421,953.178589,491.537048,955.132813,492.905823C956.205444,493.657104,957.675537,493.277954,960.086914,491.628235M671.146667,650.90271C671.699585,650.236572,671.485229,648.845581,670.657471,647.728271C670.342041,647.30249,669.136597,646.84082,667.673401,646.585449C664.577881,646.045166,663.322083,645.575989,660.513367,643.910461C659.275696,643.176514,657.754333,642.448608,657.132629,642.292725C655.105957,641.784851,653.980408,643.703796,655.501343,645.073853C656.687134,646.141907,668.4104,651.504761,669.566711,651.508057C670.157959,651.509766,670.868958,651.237366,671.146667,650.90271M766.07251,462.606659C766.07251,461.033997,764.974243,460.032104,763.247375,460.029419C760.554932,460.025238,758.649414,459.204407,756.405273,457.08194C754.653259,455.424988,753.885071,454.985107,752.463318,454.82489C750.390381,454.591217,749.575745,455.263794,749.77948,457.040649C749.895325,458.050903,750.2229,458.29718,752.47699,459.068817C753.888123,459.55188,755.82135,460.577515,756.77301,461.348022C759.199097,463.312256,759.433289,463.424561,762.185669,463.943298C765.07019,464.486938,766.07251,464.142242,766.07251,462.606659M999.91394,386.516296C1000.519043,385.911194,1000.580688,384.989685,1000.42688,378.844849C1000.297119,373.656494,1000.084106,371.475159,999.598511,370.359772C998.78717,368.496368,997.644165,367.792328,996.631958,368.532471C996.048523,368.959106,995.9646,369.402313,996.189453,370.869202C996.342041,371.864807,996.564392,375.671967,996.683594,379.329498C996.885559,385.528778,996.959473,386.021057,997.774353,386.591797C998.878662,387.365265,999.071777,387.358459,999.91394,386.516296M615.656311,616.222412C615.973511,615.716187,616.538757,614.35376,616.912354,613.195007C617.893433,610.1521,619.760559,607.56189,622.482849,605.467102C624.976196,603.548523,625.559143,602.576294,625.162842,600.997437C624.603882,598.770386,622.585815,599.387451,619.639343,602.686523C616.538818,606.158081,613.994202,610.050537,613.035706,612.787903C612.263611,614.99292,612.247925,615.261658,612.838745,616.16333C613.645935,617.395264,614.904907,617.421692,615.656311,616.222412M650.311646,640.449829C652.140442,639.471069,650.528381,634.655762,646.25708,628.338623C643.775269,624.668091,642.493652,623.677917,640.101135,623.58252C636.585632,623.442322,636.223694,625.776367,639.512146,627.381042C643.215393,629.18811,644.185913,630.52063,645.763062,635.963623C646.330322,637.921143,647.021851,639.365601,647.673035,639.95282C648.820496,640.98761,649.180176,641.05542,650.311646,640.449829M711.484741,583.821899C712.243591,582.784119,712.217712,582.167297,711.380249,581.329834C710.77655,580.726135,710.034119,580.678772,705.140808,580.931641C700.108398,581.19165,699.357361,581.138062,697.145935,580.360229C694.16803,579.312805,694.251282,579.31366,693.244873,580.320068C692.152039,581.412903,692.208374,582.953003,693.374634,583.870361C694.221069,584.536133,695.211243,584.616089,702.613342,584.616089C710.348022,584.616089,710.942993,584.562805,711.484741,583.821899M824.650208,496.58667C825.596436,495.730408,825.611328,494.302338,824.682434,493.495667C824.288635,493.153687,822.49353,492.225098,820.693237,491.432129C818.893005,490.639191,815.947205,489.327759,814.146973,488.517822C812.346741,487.707886,810.455566,487.042969,809.944458,487.040222C808.602905,487.03299,807.940308,488.658936,808.618042,490.295105C809.154907,491.591309,809.452759,491.720398,812.919556,492.159241C815.308899,492.46167,817.66864,493.737396,819.648376,495.796997C821.241028,497.453796,823.327942,497.783325,824.650208,496.58667M740.754211,524.528625C741.254883,523.429749,740.751282,522.212036,738.468506,519.001892C736.432007,516.138,735.595032,514.207458,734.573242,510.016968C733.272156,504.681152,731.520996,502.738464,729.588623,504.487244C728.63031,505.354553,728.635071,506.709412,729.60083,507.948669C730.935791,509.661591,731.592712,511.317749,731.882446,513.700989C732.095886,515.456543,732.543945,516.554016,733.719666,518.201538C734.57489,519.399963,735.67572,521.170532,736.165955,522.136292C737.845093,525.444092,739.858704,526.493958,740.754211,524.528625M799.53833,579.153625C799.829651,578.782532,799.961304,578.053101,799.830933,577.532715C799.700562,577.012329,799.338623,574.643005,799.026672,572.267578C798.526123,568.456299,798.31073,567.773987,797.194641,566.462891C796.498962,565.645752,795.33374,564.196411,794.605225,563.242065C793.161804,561.351318,791.772827,560.71344,790.820435,561.503845C789.780396,562.367004,790.13324,563.381287,792.46167,566.221985C795.133179,569.481201,795.940063,571.814819,795.940063,576.282593C795.940063,578.879395,796.071106,579.536865,796.656067,579.874817C797.533569,580.381836,798.82843,580.057861,799.53833,579.153625M921.63678,496.848358C926.018066,496.346375,926.963013,495.934875,928.269897,493.960022C928.834045,493.107483,930.129883,491.470642,931.149536,490.322632C933.180542,488.035736,933.213501,487.944214,932.538757,486.463257C931.442383,484.056946,929.601257,484.697815,928.118774,488.001831C926.810791,490.917267,924.725464,492.946075,922.390564,493.574768C921.042236,493.937866,920.369995,493.871643,918.410217,493.182861C915.572693,492.185547,914.849365,492.155029,914.007324,492.997009C913.034485,493.96991,913.223755,495.457214,914.442505,496.415833C915.658936,497.372742,916.578125,497.427979,921.63678,496.848358M974.87146,438.244751C975.418945,437.513428,976.187988,436.27063,976.580444,435.483032C977.890991,432.853149,981.207275,428.720215,983.094604,427.364838C985.891357,425.356384,986.010986,423.332703,983.391968,422.336945C981.939209,421.784607,980.999756,422.573578,977.88855,426.958801C976.398315,429.059326,974.066711,432.02948,972.707214,433.559174C970.097351,436.49585,969.844971,437.198303,970.872314,438.665161C971.8526,440.064636,973.650696,439.87561,974.87146,438.244751M807.830688,577.220825C808.26062,576.702759,808.270447,576.116699,807.880737,574.229919C807.148743,570.685913,807.256836,569.751404,809.05249,564.096558C810.973816,558.045776,811.06311,556.045715,809.420471,555.854309C807.890747,555.676147,807.053101,556.875366,806.751526,559.675537C806.589905,561.175781,805.948608,563.229614,805.08374,565.016418L803.678589,567.919678L804.04248,572.263306C804.242615,574.652344,804.641296,576.890076,804.928467,577.236084C805.604736,578.050903,807.148499,578.042847,807.830688,577.220825M921.269714,535.124146C921.944702,534.449219,922.429993,525.663147,922.258423,517.22406C922.178833,513.309143,922.031006,512.301147,921.451416,511.72168C920.89093,511.161255,920.505737,511.095276,919.617554,511.407623C917.878418,512.019226,917.581848,513.482788,918.398499,517.423096C919.247437,521.519348,919.28125,526.091797,918.486938,529.381592C917.678589,532.729309,917.721741,533.943481,918.683289,534.905029C919.654114,535.875854,920.450562,535.943359,921.269714,535.124146M632.161011,622.609253C634.758484,618.792847,636.824707,617.963989,641.748413,618.763611C644.89209,619.27417,645.075745,619.260742,645.874207,618.46228C646.937988,617.398499,646.604248,615.794556,645.116211,614.81958C644.115417,614.163818,643.890686,614.163452,641.338135,614.813477C639.845459,615.193604,637.092163,615.768555,635.219788,616.091064C633.347412,616.413696,631.359375,616.976501,630.802002,617.341675C628.705139,618.715576,627.507568,622.023987,628.681946,623.198364C629.565735,624.082153,631.366089,623.777283,632.161011,622.609253M719.968445,576.576538C721.971619,575.522095,722.011963,573.956055,720.056946,573.13916C719.016846,572.70459,716.875488,572.546326,712.034912,572.546326C707.244202,572.546326,704.647156,572.356934,702.573364,571.856445C699.422852,571.095947,698.787964,571.25824,697.748169,573.089539C697.183716,574.083618,697.203674,574.232056,698.010132,575.038574C698.833435,575.861816,699.252441,575.908203,705.378418,575.853699C710.171936,575.811096,712.300903,575.952271,713.503967,576.392578C715.493958,577.120972,718.75769,577.213867,719.968445,576.576538M954.394226,472.132141C954.714844,471.811523,955.099731,470.506836,955.249451,469.23291C955.578491,466.433289,956.191406,465.187317,958.165649,463.304871C960.337158,461.234314,960.688721,460.295807,961.00061,455.735687C961.261597,451.921143,961.214478,451.519653,960.304443,449.803101C959.103394,447.537628,957.57959,446.826172,956.336914,447.950745C955.239075,448.944275,955.282349,449.398987,956.733643,452.118713C957.408813,453.383789,957.959351,454.991333,957.957153,455.690979C957.951416,457.520782,956.263367,460.822998,954.483398,462.486572C951.557861,465.220703,950.086182,470.202698,951.6828,471.966949C952.494019,472.863373,953.595886,472.930511,954.394226,472.132141M971.724426,540.26709C972.488586,538.728516,971.807251,537.673828,969.185486,536.337036C967.672607,535.565674,966.503784,534.631714,966.039673,533.823364C964.971558,531.963074,964.113525,527.433777,964.105347,523.612366C964.093506,518.065063,965.094299,516.627258,969.267212,516.196533C971.682251,515.947327,972.769409,515.043335,972.391602,513.598633C972.125977,512.582642,970.710449,512.231934,968.116028,512.539185C962.542725,513.199219,959.944946,517.870728,960.596741,526.061096C961.137329,532.854919,964.13562,538.515259,968.394287,540.781738C970.011536,541.642517,971.126892,541.470093,971.724426,540.26709M715.09137,531.120483C715.415771,530.614136,715.879883,529.445435,716.122681,528.523193C716.365479,527.601013,717.113831,526.128113,717.785645,525.250061C718.457458,524.372009,719.782288,522.548889,720.729675,521.19873C721.677124,519.848572,723.455261,517.791931,724.681152,516.628479C726.723877,514.689758,726.887695,514.401489,726.642944,513.177612C726.328003,511.603088,725.310303,510.356415,724.339844,510.356415C723.322754,510.356415,722.433289,511.545776,721.891907,513.629578C721.517761,515.06958,720.809021,516.050049,718.638489,518.130127C716.923523,519.773621,715.615723,521.434937,715.215088,522.47876C714.858521,523.407837,713.819885,525.323486,712.906982,526.735901C711.200317,529.376465,710.880798,530.692627,711.73822,531.550049C712.565186,532.377075,714.440125,532.136841,715.09137,531.120483M785.07666,512.271973C785.642944,510.652649,784.718689,509.176727,782.324646,507.877197C778.235474,505.657471,776.43512,502.726257,776.803833,498.888641C777.066589,496.154297,778.523682,494.595734,781.608643,493.749146C785.393555,492.710449,785.711426,492.506927,785.711426,491.122253C785.711426,489.322479,784.447754,488.950653,781.824585,489.978546C780.699463,490.419434,779.146484,490.968231,778.373535,491.19809C776.054138,491.887817,775.145142,492.72876,774.319885,494.948059C772.0177,501.139191,772.823547,503.653992,779.300354,510.490875C781.897095,513.231934,782.503357,513.674561,783.50415,513.559448C784.358398,513.461243,784.782166,513.114319,785.07666,512.271973M745.615356,572.955444C746.065369,572.505432,746.433594,571.953064,746.433594,571.728027C746.433594,570.807495,744.74292,569.745605,741.90509,568.883606C738.952393,567.986816,738.791687,567.86499,732.921143,562.0755C728.363281,557.580566,726.694946,556.180542,725.896423,556.180542C724.551575,556.180542,723.83667,557.056519,724.003418,558.499939C724.107605,559.401917,724.742371,560.041748,727.029541,561.550293C728.708252,562.657593,731.438416,565.106201,733.530273,567.380798C736.845093,570.985107,737.388733,571.401001,740.250977,572.522461C743.965881,573.978088,744.545898,574.024902,745.615356,572.955444M976.341309,450.228973C976.744629,450.013153,979.22052,446.995239,981.843384,443.522461C984.466187,440.049744,987.293579,436.68866,988.126465,436.053406C990.507141,434.237549,991.101807,433.512146,991.101807,432.423889C991.101807,431.096344,989.51532,430.033325,988.073975,430.395081C986.674988,430.746185,983.815491,433.961426,981.421997,437.874512C979.237427,441.446136,977.588745,443.346344,975.609619,444.573608C973.852295,445.66333,972.881226,447.806519,973.560425,449.096436C974.356567,450.608459,975.080994,450.903473,976.341309,450.228973M820.41156,550.845764C821.486206,549.844543,821.616882,547.794983,820.630249,547.416382C820.257996,547.27356,818.631226,547.276489,817.015137,547.422974C813.592651,547.733093,813.272217,547.604919,809.862122,544.562195C807.169678,542.15979,804.400635,541.109131,799.768433,540.732483C797.403564,540.540161,797.213623,540.591431,796.55249,541.600464C795.703369,542.896362,796.004822,544.560059,797.154846,544.925049C797.596924,545.06543,799.051025,544.965271,800.38623,544.702576C803.777466,544.0354,805.304077,544.624451,808.720337,547.918579C811.722961,550.813843,813.561462,551.600586,817.445251,551.652344C818.990173,551.672974,819.74353,551.46814,820.41156,550.845764M899.631531,571.757324C900.604614,570.682129,900.119995,569.365356,898.497986,568.67749C897.785889,568.375488,896.415527,567.803223,895.452759,567.405945C893.362915,566.543457,885.977661,559.097534,883.735229,555.592041C881.947754,552.797729,880.604004,552.027283,879.407104,553.110474C877.647705,554.702698,878.197388,555.648193,884.538574,561.937988C887.81189,565.184692,890.958984,568.639771,891.532288,569.615845C892.737061,571.667175,894.32373,572.507202,897.037537,572.530273C898.389099,572.54187,899.118225,572.324585,899.631531,571.757324M825.193848,505.651367C830.598633,502.970306,833.387207,501.116913,834.072632,499.750122C834.846619,498.20694,834.562927,497.189819,833.147339,496.432251C831.85614,495.741211,830.768188,496.350464,829.440613,498.508148C828.079163,500.720764,826.499329,501.860229,823.796021,502.579346C821.121094,503.290955,818.879517,502.537659,816.47821,500.120239C814.15564,497.782043,812.955933,497.114624,811.660217,497.439819C810.403259,497.75531,809.923584,499.492462,810.708618,500.886353C811.457642,502.2164,820.047607,506.675659,821.849976,506.670105C822.563965,506.667908,824.068726,506.209473,825.193848,505.651367M741.012207,602.720703C744.031006,599.739075,746.761169,596.803894,747.079224,596.19812C747.551147,595.299316,747.575928,594.508911,747.213867,591.9021C746.517822,586.890625,746.519104,586.893921,744.999817,586.169434C743.669067,585.53479,743.539734,585.539185,742.760254,586.244568C741.693359,587.210083,741.717773,587.696167,742.955872,590.139526C743.518433,591.249695,743.97876,592.53833,743.97876,593.003052C743.97876,595.589111,741.305176,598.793579,736.617432,601.826111C733.174072,604.053589,732.522705,604.683533,732.522705,605.786255C732.522705,606.9104,733.661133,608.141846,734.700195,608.141846C735.20752,608.141846,737.629883,606.061401,741.012207,602.720703M622.864258,620.42041C623.28241,620.196594,624.007629,618.85321,624.485474,617.417236C625.317444,614.917358,626.617371,613.226013,628.395569,612.3302C628.845581,612.103394,630.87085,611.70343,632.896118,611.441345C639.418945,610.597168,642.152405,609.586182,642.919617,607.734009C643.185852,607.091187,643.432983,605.333496,643.468811,603.828064C643.52124,601.622864,643.394714,601.001099,642.817871,600.629272C641.671509,599.89032,640.725952,600.818481,640.196106,603.202759C639.313293,607.175781,637.433716,608.315247,631.88739,608.239807C626.119995,608.161377,624.346069,609.326782,621.435364,615.10675C619.768982,618.415649,619.67688,619.319519,620.917419,620.188416C621.993103,620.941895,621.90863,620.931824,622.864258,620.42041M723.528198,619.265625C724.759644,618.268433,724.393555,617.247681,721.738892,614.276184C720.581543,612.980835,719.052856,611.194824,718.341675,610.307251C717.154785,608.825928,716.701843,608.603638,712.818237,607.596313C710.491516,606.992798,708.127502,606.501465,707.564941,606.504395C705.61438,606.514771,703.465637,607.364319,702.792786,608.391296C702.167725,609.345215,702.168152,609.466736,702.798462,610.097046C703.355103,610.653687,704.194092,610.755676,707.464478,610.664307C713.222534,610.503418,715.117065,611.466431,718.891235,616.473145C720.773926,618.970581,721.781616,620.00708,722.326965,620.00708C722.48407,620.00708,723.024658,619.673401,723.528198,619.265625M771.479187,576.590454C773.856628,575.974243,775.429077,575.796692,776.938477,575.974121C779.733398,576.302551,781.619995,575.656372,781.619995,574.370605C781.619995,572.341064,779.103516,571.692688,774.618103,572.566528C767.560364,573.941528,763.124451,573.771729,757.766479,571.921387C754.383423,570.753113,752.692444,570.725098,752.003174,571.825928C751.645935,572.396484,751.759338,572.728577,752.575684,573.502075C754.294373,575.130493,757.569031,576.217407,762.040649,576.643433C764.329346,576.861511,766.295532,577.133545,766.409973,577.247986C766.794922,577.632935,768.121521,577.460815,771.479187,576.590454M692.817017,633.326782C693.086914,633.001587,693.247559,632.314087,693.174011,631.798889C693.040649,630.864746,692.578125,630.505798,688.349365,628.05426C687.099609,627.329712,685.466919,625.901062,684.648071,624.81543C682.786133,622.346924,679.836975,615.369324,679.075562,611.631226C678.284058,607.745239,676.606323,606.332764,674.763306,608.000732C673.603455,609.050354,673.833252,610.098694,676.424683,615.581665C677.749939,618.38562,679.327271,622.046509,679.92981,623.716919C681.104187,626.972595,681.785034,627.955383,683.469727,628.826538C684.057739,629.130615,685.784668,630.400574,687.307312,631.648682C690.177246,634.001099,691.837708,634.506836,692.817017,633.326782M824.498291,575.328491C824.768372,575.058472,824.992493,573.815674,824.996399,572.566772C825.000305,571.317871,825.278259,569.007202,825.614014,567.432007C825.949829,565.856812,826.518921,562.726868,826.878662,560.476563C827.863342,554.316956,828.638,552.617249,831.783386,549.715393C833.844727,547.813599,834.433533,547.021606,834.329834,546.289978C834.239624,545.653076,833.876709,545.293213,833.232849,545.202026C830.354248,544.794617,828.307739,546.607544,825.755859,551.825806C824.039368,555.335938,823.761108,556.250122,823.756592,558.394531C823.753662,559.777161,823.209961,563.049561,822.534729,565.748169C821.182678,571.151917,820.910706,574.235229,821.701965,575.18866C822.325989,575.940552,823.81189,576.014893,824.498291,575.328491M730.203979,613.434265C731.035828,612.246643,730.632446,611.197754,728.779297,609.72998C724.166931,606.077026,725.327637,603.295898,733.796387,597.70813C735.959656,596.280884,737.846802,594.807495,737.990112,594.43396C738.703613,592.574707,737.746765,591.090942,736.108032,591.515442C734.725891,591.873474,725.146362,599.998474,723.678833,602.057373C721.343689,605.333618,721.41394,605.892517,724.725891,610.392151C727.762085,614.517151,728.974121,615.190186,730.203979,613.434265M870.342896,543.366455C870.589355,543.06958,871.084961,541.550598,871.444397,539.990967C872.605713,534.951904,874.525757,529.736206,875.77948,528.21521C877.39502,526.25531,879.47229,525.689026,882.873535,526.281372C884.265869,526.523804,885.977905,526.722168,886.678101,526.722168C888.960938,526.722168,889.833923,524.022705,887.887939,522.981262C887.370361,522.704224,885.059448,522.5979,881.694397,522.696228C876.9823,522.833923,876.142151,522.967041,874.817078,523.786011C873.05072,524.877686,871.838623,527.20166,870.191528,532.654785C869.579834,534.680054,868.549316,537.34967,867.90155,538.587341C866.549072,541.171387,866.479004,541.740662,867.358887,542.996887C868.065063,544.005066,869.650024,544.201355,870.342896,543.366455M674.451172,627.357239C674.886414,627.124268,675.243652,626.52594,675.245056,626.027527C675.247864,625.030273,670.665955,614.749268,669.411499,612.937988C668.962463,612.289673,667.283875,611.147522,665.503052,610.278564C661.639465,608.393433,660.885559,607.403748,660.548218,603.773682C660.243591,600.496338,659.980042,599.958984,658.677307,599.958984C656.931274,599.958984,656.343506,601.006958,656.640076,603.591125C657.248169,608.889893,657.94342,609.946777,662.616943,612.67627C666.398499,614.884766,667.79071,616.67334,669.643188,621.702576C671.081299,625.607056,672.387329,627.780762,673.295044,627.780762C673.495605,627.780762,674.015869,627.59021,674.451172,627.357239M927.711304,568.440491C929.131165,567.680664,928.749023,565.515747,926.797485,563.263184C925.859558,562.180603,924.496887,559.989746,923.769287,558.394653C922.904785,556.499268,921.417969,554.344177,919.477905,552.1745C917.005615,549.409546,915.955811,548.580444,913.198059,547.214722C911.376831,546.312866,908.936401,544.739136,907.774902,543.717712C904.902161,541.191162,902.726685,541.276978,902.726685,543.916748C902.726685,545.371216,903.903381,546.352234,908.250122,548.521484C914.700439,551.74054,917.477783,554.338135,921.032654,560.476563C921.944885,562.051758,923.011353,564.319153,923.402466,565.515137C924.454102,568.730408,925.651123,569.543091,927.711304,568.440491M778.373779,520.979797C778.927307,520.683533,779.165161,520.121094,779.165161,519.108276C779.165161,517.920654,778.771912,517.242676,776.978394,515.338074C772.563721,510.650024,769.766479,506.957611,768.904419,504.680115C767.764893,501.669495,767.992432,497.439697,769.509583,493.430511C770.094543,491.884766,770.57312,490.33429,770.57312,489.984985C770.57312,488.180603,767.338379,487.04248,766.549927,488.569519C766.346558,488.963318,766.062012,490.482239,765.917542,491.944946C765.773132,493.407623,765.355042,496.264221,764.988525,498.292908C764.372498,501.702393,764.372559,502.155212,764.98938,504.277069C765.726868,506.813904,767.557617,509.699097,770.794189,513.424988C771.96698,514.775146,773.518188,516.847534,774.241333,518.030273C775.335449,519.819946,776.837891,521.40332,777.441895,521.40332C777.519165,521.40332,777.938477,521.212708,778.373779,520.979797M817.396912,541.360352C818.274109,540.108032,818.195679,539.291138,817.099365,538.26123C815.646912,536.896729,808.027954,533.89093,803.621216,532.943909C801.432556,532.473572,798.947021,531.766235,798.097778,531.372131C796.099304,530.444641,790.823486,525.160706,788.75708,522.017029C787.092041,519.483887,785.847412,518.804993,784.666077,519.7854C784.340942,520.055298,784.07489,520.826172,784.07489,521.498474C784.07489,522.515503,785.019165,523.692688,789.695923,528.506104C792.787476,531.687988,795.695496,534.507568,796.158081,534.771729C796.620667,535.03595,798.542236,535.46344,800.428223,535.72168C805.303467,536.38916,809.781433,537.898682,811.710632,539.524841C815.299866,542.550354,816.330383,542.883057,817.396912,541.360352M716.730774,602.577148C717.083191,602.441895,718.180115,601.199097,719.168457,599.81543C721.610229,596.396851,728.212891,590.600769,733.545593,587.194641C736.946777,585.022217,740.705566,581.089111,740.705566,579.702637C740.705566,578.306396,739.601929,577.389832,738.097168,577.536255C737.037354,577.639343,736.634033,578.003052,735.738892,579.663086C734.220032,582.479492,732.893066,583.758911,728.439941,586.700562C726.126709,588.228638,723.048706,590.796387,720.862122,593.022278C718.836853,595.083923,716.443359,597.141357,715.543213,597.594238C713.182922,598.781921,712.47467,599.52655,712.47467,600.820313C712.47467,601.477905,712.778992,602.141296,713.190674,602.381104C713.995911,602.850098,715.764221,602.947998,716.730774,602.577148M909.191162,571.237061C910.501343,569.92688,908.992859,565.723633,906.358276,563.343445C905.473633,562.54425,903.143921,561.132813,901.181152,560.206909C898.197388,558.799377,897.042236,557.945679,894.134644,554.99939C889.787598,550.594543,888.730469,548.555359,888.497009,544.124878C888.37262,541.763794,888.140503,540.693604,887.67334,540.326233C886.80542,539.643921,886.143311,539.681641,885.367249,540.457764C884.568237,541.256775,884.509399,546.273621,885.273987,548.410767C886.066528,550.625977,888.852173,554.489014,892.299683,558.153687C895.381958,561.430176,896.249512,561.997314,902.013428,564.50293C903.706909,565.239136,905.177612,567.269897,905.179993,568.875244C905.18335,571.146484,907.762878,572.665283,909.191162,571.237061M859.742188,574.206604C860.098389,573.981262,860.438477,572.800659,860.601807,571.222961C860.956177,567.798828,861.754395,566.690063,865.021851,565.08313C867.317017,563.954285,868.173218,563.751953,870.602905,563.764404C875.158203,563.787659,878.156982,565.8479,880.221558,570.372803C881.257935,572.644165,881.527466,572.932678,882.843262,573.179565C885.077881,573.598755,886.360901,573.138855,886.360901,571.918701C886.360901,571.173096,885.173767,569.679077,881.962585,566.383423C879.543579,563.900696,877.011963,561.531921,876.336914,561.119507C874.763733,560.158447,868.22644,559.72876,866.470642,560.471069C865.821289,560.745605,863.665527,562.019653,861.679993,563.302246C857.746338,565.843506,857.214478,566.603027,856.703491,570.409241C856.27356,573.611206,857.755737,575.46344,859.742188,574.206604M667.862061,631.492676C668.354431,630.572754,668.133667,629.867798,666.585693,627.416016C665.961792,626.427856,665.065002,624.458618,664.592896,623.039917C663.460999,619.63855,662.668518,618.710327,658.718079,616.158691C653.118286,612.541748,651.927979,610.586914,651.923584,605.000244C651.921204,601.911133,651.29303,600.601929,649.938538,600.862732C648.687317,601.103699,648.205566,602.852051,648.327393,606.709839C648.441284,610.319092,648.481201,610.449829,650.33844,613.296021C651.909058,615.703125,652.679016,616.450195,654.838989,617.662781C659.063232,620.034241,660.590515,622.021912,662.205261,627.249878C663.152161,630.315552,664.791077,632.281372,666.400085,632.281372C667.00824,632.281372,667.615234,631.953918,667.862061,631.492676M833.353516,574.500977C833.795532,573.869934,833.990479,572.631714,833.990479,570.454712C833.990479,566.998901,834.903198,561.385742,835.87915,558.839966C837.474609,554.678101,841.068298,552.881592,848.310486,552.62561C853.9646,552.425781,854.690002,552.295654,855.025513,551.421265C855.453674,550.305542,854.905518,549.341431,853.450195,548.650879C851.546387,547.747437,850.07959,547.830444,846.917847,549.020508C845.423218,549.58313,843.330017,550.047424,842.266296,550.052368C839.700317,550.064331,837.481934,551.149414,835.106323,553.554565C832.758057,555.932068,832.447815,556.868774,830.894714,566.270874C829.948486,571.999146,829.82373,573.48761,830.217285,574.35144C830.830994,575.698364,832.460449,575.776123,833.353516,574.500977M755.638489,531.895264C756.477539,530.614685,756.127563,529.816895,753.389038,526.767944C748.873047,521.739807,743.562927,511.718872,742.307678,505.855835C741.849976,503.718048,741.164185,501.437439,740.783691,500.787811C739.845337,499.18573,737.568237,497.980652,736.529602,498.536499C735.192078,499.252319,735.233032,500.100403,736.711182,502.298401C738.726318,505.2948,738.645203,505.102356,739.716431,509.428467C740.482117,512.52063,741.12677,514.019165,742.764709,516.513977C743.907166,518.25415,745.216614,520.664063,745.674561,521.869324C746.132568,523.074585,747.309448,524.999695,748.289917,526.147339C749.270386,527.295044,750.380493,529.00354,750.756836,529.94397C751.90271,532.807922,754.389282,533.801819,755.638489,531.895264M717.791565,624.511353C718.424561,623.328491,717.56604,621.931274,714.229187,618.71405C711.099976,615.697021,710.550781,615.514099,704.905518,615.609009C700.088074,615.689941,696.811157,614.007446,696.280884,611.180664C695.744629,608.322083,699.032104,603.857178,702.608521,602.586792C703.64679,602.217957,704.989441,601.735107,705.592102,601.513855C708.91394,600.294067,706.38446,596.992249,702.871277,597.96228C700.691467,598.564148,693.43927,605.772888,692.880188,607.893433C692.296692,610.106628,693.004761,613.082336,694.618286,615.197754C696.697388,617.923706,697.934082,618.427124,703.501343,618.813965C709.401733,619.223938,710.581604,619.715454,713.375488,622.927734C715.613403,625.500732,716.996582,625.996704,717.791565,624.511353M949.875732,488.201538C950.926086,487.652588,951.251953,485.878723,950.449829,485.076569C949.872253,484.499023,949.484253,484.477356,947.405884,484.906616C942.451538,485.929932,941.019287,485.244263,938.602051,480.692017C937.192993,478.03833,936.789368,477.758728,931.468323,475.750183C929.102051,474.856964,928.309326,474.717651,927.553345,475.062134C926.547852,475.520203,919.392639,484.993835,918.929077,486.480652C918.661987,487.337372,919.515015,488.671783,920.329834,488.671783C921.695801,488.671783,922.87207,487.425903,924.686523,484.05719C926.27771,481.102905,926.990479,480.193878,928.213135,479.559387C931.267212,477.974457,934.650879,479.919403,937.201721,484.725983C937.994507,486.219818,939.102051,487.60791,939.95874,488.181458C941.301514,489.080261,941.633179,489.122375,945.277649,488.856567C947.415405,488.700684,949.484497,488.405914,949.875732,488.201538M968.121704,549.390381C968.815918,548.904175,969.021973,548.413574,968.928711,547.469482C968.816528,546.334229,968.546753,546.101685,966.348572,545.245361C963.118896,543.987305,960.724792,541.419067,958.437622,536.759033C956.029846,531.853088,955.361206,528.50885,955.653931,522.835327C955.944031,517.211182,956.712463,514.585754,958.76123,512.218567C959.637207,511.206482,960.475098,509.996399,960.623291,509.52951C961.239441,507.588196,958.564575,506.782715,956.609253,508.32077C955.295166,509.354431,953.718506,512.65918,953.002808,515.879883C952.670898,517.373169,952.453369,521.010132,952.447449,525.1651L952.437683,531.995422L955.915405,538.849854C959.377808,545.674011,959.402954,545.709473,961.606934,546.88092C962.824463,547.528076,964.478271,548.504395,965.28186,549.050476C967.013611,550.227234,966.939575,550.218384,968.121704,549.390381M827.644531,541.495789C828.68866,540.833679,830.658752,540.096069,832.119202,539.820496C833.815125,539.500488,835.637573,538.765381,837.325745,537.720337C838.754272,536.835999,840.918274,535.819458,842.134644,535.461304C844.905273,534.645386,845.536682,533.949341,848.261414,528.707031C849.472046,526.377686,851.216187,523.291321,852.137268,521.848389C854.044556,518.860474,854.104126,518.239014,853.395813,508.730713C853.03656,503.908386,852.960754,503.600037,852.018738,503.1315C850.763428,502.507172,849.664429,503.034546,849.060669,504.550995C848.715942,505.41687,848.8172,506.41217,849.536072,509.223053C850.879333,514.475647,850.618713,517.455383,848.43042,521.864563C845.939331,526.88385,843.660461,530.211243,841.781982,531.572021C839.330688,533.347717,831.927917,536.464355,827.899414,537.416748C825.961304,537.874878,824.053345,538.538391,823.659546,538.891113C822.962036,539.51593,822.66687,541.856567,823.216309,542.406006C823.837524,543.027222,825.897461,542.60376,827.644531,541.495789M936.272095,549.434998C936.998535,548.559631,936.544312,547.271973,934.60791,544.717834C933.672363,543.483887,932.350586,541.305725,931.670654,539.877563L930.434326,537.280945L930.505493,524.943848C930.573792,513.101685,930.612976,512.533691,931.483154,510.786835C932.832581,508.077637,934.036499,507.391235,937.942261,507.104248C941.517578,506.841522,942.413635,506.286926,942.413635,504.336853C942.413635,502.597961,940.813354,502.306335,937.188782,503.384827C935.449341,503.902405,933.430786,504.499329,932.703064,504.711273C931.39209,505.093109,928.931641,507.564636,927.895264,509.540771C927.502441,510.289612,927.28833,513.987183,927.10144,523.24707C926.960571,530.221558,926.830811,536.604431,926.812988,537.431274C926.787964,538.594177,927.209351,539.535339,928.673706,541.587463C929.714844,543.046509,930.92981,545.295776,931.373657,546.585876C931.817505,547.875977,932.388306,549.181641,932.64209,549.487427C933.259033,550.230774,935.640198,550.19635,936.272095,549.434998M936.890198,558.255554C943.930786,556.768616,945.158081,555.866089,945.570313,551.872498C945.894043,548.735107,945.145264,546.316101,942.38562,541.584351C938.945801,535.686584,938.558105,533.881592,938.907593,525.392822C939.062744,521.623779,939.341919,517.576721,939.528076,516.399292C939.714233,515.221802,939.717285,513.865967,939.534912,513.38623C939.035706,512.073242,937.588013,511.871735,936.49646,512.963257C935.594971,513.864807,935.578125,514.06958,935.517456,524.904175L935.455688,535.927917L936.692383,538.382813C937.37262,539.732971,938.74707,542.108276,939.746765,543.661194C941.957153,547.094971,942.783691,550.18457,941.953735,551.910706C940.725891,554.464233,936.714111,555.84314,933.001343,554.987732C930.489014,554.408875,929.892944,554.439697,929.145691,555.18689C928.21167,556.120972,928.355591,557.298035,929.549866,558.49231C930.324829,559.267334,930.883179,559.484863,931.697876,559.32959C932.303345,559.214111,934.639893,558.730835,936.890198,558.255554M689.102783,648.414063C689.977722,647.301697,689.862305,646.435303,688.5755,644.455933C688.245422,643.948242,687.675659,642.208191,687.309326,640.589111C686.739014,638.068604,686.406677,637.431763,684.996948,636.158081C682.049194,633.494995,679.769348,632.281128,677.719604,632.283447C675.620544,632.285828,673.381165,633.442383,671.964294,635.255859C669.850098,637.961792,666.681641,638.319031,662.860107,636.282166C659.801086,634.651733,658.448914,632.849182,656.999146,628.468994C655.661011,624.425903,653.170776,621.490417,651.270874,621.716431C648.801758,622.010071,649.061584,623.908081,652.083008,627.648254C652.842163,628.588013,653.945801,630.619751,654.535583,632.163208C655.125366,633.706665,655.890015,635.372131,656.234741,635.864319C656.579468,636.356445,659.007629,637.798706,661.630676,639.069336C665.337463,640.864868,666.844299,641.38623,668.395081,641.409546C670.319275,641.438599,670.475647,641.350342,672.7854,638.930603C676.152649,635.403015,678.596497,635.03186,681.525085,637.603149C683.238342,639.107422,684.473816,641.896729,685.064453,645.593933C685.311951,647.143311,685.711365,648.648193,685.952026,648.938171C686.667786,649.800537,688.214539,649.543213,689.102783,648.414063M781.619995,550.608948L785.097717,550.381409L787.7854,547.654114C789.876465,545.532227,790.580322,544.500916,790.956299,543.007935C791.599365,540.453918,791.566162,538.379456,790.860657,537.032715C789.94574,535.286377,781.031006,526.722168,780.128052,526.722168C778.999084,526.722168,778.346863,527.511047,778.346863,528.876648C778.346863,530.717468,779.045471,531.58905,781.335632,532.605469C787.769958,535.46106,789.80957,541.530212,785.642456,545.421021C783.701843,547.23291,781.760071,547.710632,777.581421,547.404053C775.16272,547.226563,772.746094,547.301636,771.035095,547.6073C768.493774,548.061279,768.127686,548.024414,765.226685,547.02301C759.466675,545.034546,753.824097,545.164063,753.146118,547.300293C752.648682,548.867554,754.244812,549.632751,758.037231,549.64502C760.03833,549.651489,762.510376,549.971741,764.231384,550.44751C767.155518,551.255737,771.165771,551.29303,781.619995,550.608948M918.449463,570.266846C918.803101,569.913208,919.090637,569.222778,919.08844,568.732544C919.078369,566.491943,914.649414,559.066772,911.856689,556.608521C910.838867,555.712585,907.99707,553.951904,905.541565,552.695923C900.841919,550.291992,898.508911,548.365479,897.566711,546.110352C896.218628,542.883911,897.283997,540.259827,900.874756,537.962891C903.584351,536.229614,904.05304,535.374878,904.90741,530.60907C906.390503,522.336182,906.154541,519.324341,903.998901,519.016113C902.348389,518.780029,902.114014,519.492859,902.096802,524.799255C902.074219,531.740295,901.019043,533.992432,896.08606,537.628052C894.622253,538.706909,894.040955,539.461609,893.700806,540.724854C893.135376,542.824585,893.744934,546.656799,894.955994,548.616394C896.444214,551.024292,900.25647,554.11908,904.119629,556.055298C906.166382,557.081055,908.505493,558.444458,909.317749,559.085022C911.576782,560.866577,913.669983,564.224365,914.344238,567.148315C914.671509,568.567505,915.15979,569.994385,915.429321,570.319214C916.076233,571.098633,917.644897,571.071411,918.449463,570.266846M779.165161,559.249146C782.428101,559.249146,785.327881,559.10022,785.609131,558.918091C786.448242,558.375122,786.204346,556.663452,785.193604,556.00116C784.3927,555.47644,783.061401,555.453125,775.412048,555.830139C766.995117,556.244995,766.376282,556.223999,762.888977,555.405273C760.871216,554.931519,758.132568,554.543945,756.80304,554.543945C752.396057,554.543945,748.320251,552.892456,743.515869,549.160034C739.429443,545.985413,739.700012,540.149536,744.154419,535.387451C746.247803,533.149414,746.48584,531.971191,745.134888,530.533142C743.426636,528.714783,741.657898,529.783752,740.474976,533.349487C740.079224,534.542603,739.140625,536.802368,738.389343,538.371216C735.769043,543.842773,736.641663,547.297119,741.858398,552.104004C746.159973,556.067627,748.03772,556.907104,754.258667,557.647705C757.043335,557.979248,760.794556,558.608154,762.594788,559.04541C765.250305,559.69043,766.562805,559.784668,769.550293,559.5448C771.575562,559.382202,775.902222,559.249146,779.165161,559.249146M826.480469,523.811218C833.009583,521.797058,837.10083,518.596863,835.966492,516.391296C835.346069,515.184937,833.818176,515.583008,830.954407,517.697021C825.893066,521.433167,822.950439,521.690247,815.37439,519.058167C812.674072,518.119995,809.443237,517.072754,808.194885,516.731079C806.871399,516.368774,805.264038,515.538269,804.339478,514.739075C802.881531,513.47876,802.739258,513.167175,802.57312,510.869598C802.411255,508.632263,802.531616,508.12146,803.723267,505.988159C804.87854,503.920105,805.079712,503.118256,805.247009,499.914825C805.419678,496.608093,805.328674,495.960205,804.372192,493.687683C803.566833,491.774231,803.304626,490.452087,803.304626,488.304199C803.304626,485.014038,802.765259,484.171204,800.65979,484.171204C798.380981,484.171204,798.246826,485.694946,800.034302,491.275024C802.375671,498.584442,802.365906,500.713959,799.964844,506.356262C798.954468,508.730652,798.750122,509.700104,798.894043,511.435516C799.217896,515.340698,802.441406,518.764282,806.960815,520.00293C810.366821,520.93634,815.020142,522.423157,818.238403,523.606323C821.734619,524.891602,822.885437,524.920227,826.480469,523.811218M926.607178,549.548706C927.199524,548.603638,925.788513,545.721741,923.538086,543.280273C922.24469,541.877197,921.298645,541.28479,919.547058,540.781372C913.114685,538.932556,911.908386,536.808228,913.3349,529.841431C914.394165,524.668335,914.403137,521.97229,913.374023,518.102478C912.39093,514.40564,912.358032,513.235352,913.181519,511.263855C914.612305,507.838745,917.680542,505.855835,921.549561,505.855835C923.647522,505.855835,924.197388,505.697784,925.043579,504.851563C926.199097,503.696106,926.311401,502.90155,925.42334,502.16452C924.714478,501.576233,919.583923,501.851379,917.666199,502.580505C916.175171,503.147369,910.0177,508.873413,909.393677,510.273315C908.618042,512.013428,908.773926,515.019714,909.763184,517.398987C910.909546,520.15625,910.91394,525.409851,909.775146,531.747742C909.339233,534.174194,909.065186,536.592468,909.166382,537.121643C909.470764,538.713867,912.523315,541.27002,916.547241,543.302307C919.204407,544.644226,920.670898,545.667236,921.433777,546.710999C924.172607,550.458252,925.560059,551.21936,926.607178,549.548706M770.894348,542.167358C771.12616,541.886108,771.50769,540.613525,771.742188,539.339417C771.976685,538.065308,772.453979,536.339783,772.802856,535.504883C773.482666,533.877808,773.603149,529.867798,773.069458,526.626587C772.714355,524.469788,769.978271,520.162598,765.489502,514.694031C760.056213,508.074768,758.76062,503.949615,760.092407,497.509705C760.457397,495.744781,760.848389,492.527893,760.961304,490.361115C761.145813,486.818329,761.052979,486.091797,760.039551,483.148315C759.104797,480.433624,758.749695,479.852112,757.958191,479.740021C756.825989,479.579651,755.434814,480.710999,755.434814,481.792053C755.434814,482.21405,755.930542,483.704437,756.536499,485.104095C757.957764,488.386902,758.025574,492.715729,756.728638,497.370667C756.242065,499.117126,755.848267,501.51062,755.853638,502.689545C755.871216,506.57312,758.978455,512.438232,764.467407,518.948425C766.080078,520.861206,767.971436,523.622925,768.67041,525.085571C769.753906,527.352905,769.93811,528.19751,769.919434,530.813599C769.900574,533.461548,769.685425,534.351379,768.349976,537.304749C767.052551,540.174133,766.874268,540.88501,767.247009,541.703064C767.588562,542.452698,768.013794,542.678833,769.082275,542.678833C769.847107,542.678833,770.662598,542.448669,770.894348,542.167358M841.529358,575.012695C842.570923,574.616699,842.575134,574.595581,842.536316,569.903076C842.50415,566.008667,842.633789,564.924194,843.283997,563.652161C844.477234,561.317688,846.238586,560.568359,849.742493,560.904541C855.233643,561.431335,855.339844,561.411377,859.008118,559.164185C863.34375,556.508057,863.800171,555.754822,863.92627,551.047546C864.013184,547.799927,863.90741,547.159912,863.020752,545.568176C862.454102,544.550781,861.482239,543.515442,860.789429,543.190918C855.901184,540.901123,855.025879,540.343262,854.281982,539.043335C853.577393,537.812134,853.544983,537.450073,853.990234,535.785339C854.265747,534.755249,855.391968,532.432739,856.492981,530.624207C858.842651,526.764648,859.206299,525.592896,858.397583,524.488037C857.897949,523.805542,857.656738,523.755981,856.779175,524.155884C856.026062,524.499023,854.965393,526.188171,852.847473,530.417358C851.252258,533.602783,849.947083,536.711121,849.947083,537.324829C849.947083,537.938477,850.453369,539.438599,851.072205,540.658264C852.117432,542.718323,852.386292,542.948914,854.855591,543.902527C860.838623,546.213135,862.612061,550.800903,859.105591,554.8974C857.263916,557.04895,855.556152,557.56488,850.594299,557.468628C844.077698,557.342285,841.094543,558.614929,840.100952,561.945313C839.731262,563.18457,838.491028,571.890747,838.491028,573.246765C838.491028,573.732849,839.897888,575.410339,840.305542,575.410339C840.403442,575.410339,840.954163,575.231384,841.529358,575.012695M749.72876,543.243713C751.686768,541.1875,753.231445,540.633057,757.003052,540.633057C761.082214,540.633057,761.864014,540.077209,763.579285,535.956848C765.062256,532.394653,765.226379,529.4422,764.081543,526.92218C763.671509,526.019531,762.081177,523.810181,760.547363,522.012451C754.615356,515.05957,750.525024,507.140747,750.525024,502.609406C750.525024,501.805664,750.902832,499.859863,751.364502,498.28537C752.595154,494.08847,752.908203,491.726379,752.519897,489.568359C751.569153,484.284241,748.283936,481.103577,745.954407,483.211761C744.818237,484.239929,745.025879,484.87561,747.217651,487.078888C750.255188,490.132446,750.430542,492.558105,747.967712,497.456909C746.862976,499.654297,746.762451,500.169189,746.968933,502.571228C747.095215,504.040222,747.559692,506.393616,748.00116,507.801025C749.231995,511.725098,753.973633,519.746521,757.194702,523.353638C760.706299,527.286011,761.286133,528.392456,761.319092,531.222778C761.372498,535.812561,758.845764,537.769043,752.86499,537.769043C749.517517,537.769043,749.25061,537.835388,747.930298,538.994629C746.084412,540.615295,745.347961,542.380249,745.958435,543.720093C746.626953,545.187378,748.049133,545.007751,749.72876,543.243713M879.391052,546.388C879.624023,545.952759,879.81488,544.065552,879.815186,542.194275C879.81604,538.003601,880.559631,536.263428,882.821777,535.158691C884.223694,534.47406,884.704468,534.440308,887.194336,534.851501C889.142212,535.173157,890.328186,535.185608,891.099243,534.892456C892.934753,534.19458,895.337524,532.051514,896.298096,530.255554C897.104736,528.747437,897.192993,528.039978,897.109619,523.752319C896.997253,517.977905,896.518677,516.711731,894.234558,516.144775C893.391968,515.935669,891.413818,515.442932,889.838623,515.049866C887.915222,514.569885,885.160583,514.315491,881.451172,514.27533C876.705933,514.223938,875.52417,514.347046,873.063721,515.148865C868.869141,516.515869,868.570068,516.737671,866.338135,520.137634C864.794556,522.489014,864.145508,523.97229,863.669067,526.237732C862.991821,529.457947,862.714966,530.117126,860.95697,532.694275C859.41748,534.951111,859.126038,536.251831,859.970703,537.096558C860.340576,537.466431,861.09314,537.769043,861.642944,537.769043C863.014893,537.769043,863.878906,536.21521,865.709717,530.455322C868.423523,521.917236,870.535645,519.105408,874.945679,518.159607C876.070557,517.918396,879.513367,517.729065,882.596436,517.738892C889.37439,517.760559,891.765991,518.392822,893.20459,520.543213C895.222473,523.55957,893.917358,529.354004,890.86145,530.945862C889.633057,531.585754,888.801025,531.657227,885.008362,531.448608L880.587219,531.205444L879.458862,532.339294C878.613953,533.188293,878.003052,534.665771,877.026855,538.221436C875.556763,543.575928,875.421387,545.349548,876.400269,546.431152C877.286072,547.409912,878.856262,547.387268,879.391052,546.388M940.699707,565.962952C946.068359,564.399048,952.397034,561.494629,953.0354,560.30188C953.339111,559.734436,953.415588,558.443848,953.250366,556.675598C953.045044,554.477783,953.162842,553.448303,953.840942,551.513672C954.306824,550.184509,954.69043,548.80365,954.693481,548.445068C954.696472,548.086487,953.085449,544.487183,951.113403,540.446655L947.527954,533.100281L947.558472,525.10376C947.603088,513.428223,948.850342,508.802155,953.000122,504.920502C954.496704,503.52063,955.670166,502.858582,957.772949,502.227722C959.306519,501.767639,961.518799,500.73172,962.689148,499.925659C964.021973,499.007751,965.730713,498.273804,967.262268,497.961365C970.885986,497.222198,972.02301,495.83667,970.365906,494.179596C969.225952,493.039581,966.553955,493.618927,963.088623,495.757507C961.42804,496.782288,958.839844,498.000519,957.337158,498.464661C955.407104,499.060791,953.72113,499.999451,951.594971,501.661621C949.057617,503.645264,948.315674,504.524963,946.869263,507.265198C944.998047,510.809875,944.907593,511.301697,944.042603,522.630737C943.337769,531.861694,943.574585,533.161987,947.244873,540.213684C950.213623,545.917603,950.345093,546.288818,950.514038,549.446228C950.73468,553.568298,950.043091,557.030396,948.674072,558.657471C946.912476,560.750977,944.337036,561.741333,936.981384,563.15387C934.224121,563.68335,933.018799,564.908997,933.806946,566.381714C934.422241,567.531494,935.550659,567.462891,940.699707,565.962952M776.629517,584.634644C778.136597,584.307373,781.533813,583.642883,784.178772,583.15802C787.384277,582.570435,789.345459,581.995117,790.060364,581.432739C791.112061,580.605469,791.129272,580.512695,790.942627,576.669983C790.823242,574.213989,790.50769,572.279663,790.09729,571.488525C788.995972,569.365601,785.738037,565.626221,784.357666,564.900757C782.849365,564.108032,777.006104,563.96228,769.550293,564.53125C765.447632,564.84436,764.6698,564.783203,760.753662,563.839111C758.390869,563.269531,754.90863,562.678955,753.015381,562.526672C746.194641,561.978149,742.528015,560.087769,736.912598,554.225098C733.174805,550.322632,731.902405,547.582825,731.93042,543.49707C731.948975,540.791077,732.154358,539.981262,733.669067,536.643372C735.910706,531.703491,735.930359,530.279236,733.796204,527.420654C732.921387,526.248901,731.814331,524.510376,731.33606,523.557312C729.799561,520.495483,727.621338,519.912476,726.380554,522.230957C725.805359,523.305664,726.336426,524.244751,728.479187,525.941833C730.347595,527.421631,731.681519,529.896484,731.695435,531.909058C731.700378,532.624023,731.044678,534.46521,730.238342,536.000488C728.058838,540.150269,727.776245,542.754333,728.973145,547.659363C730.088013,552.227661,730.809204,553.254272,737.189636,559.354004C740.612061,562.625854,741.457886,563.210388,744.463989,564.381226C747.25592,565.46875,748.708984,565.761536,752.570801,566.015015C755.733276,566.222595,758.080811,566.617065,759.730835,567.218262C763.105835,568.447876,767.840515,568.696411,772.414246,567.884094C777.952332,566.900452,780.291016,567.00946,782.901001,568.372925C784.772095,569.350403,785.289063,569.895813,786.425415,572.090942C788.113159,575.351196,788.16156,577.114624,786.606079,578.670105C785.228943,580.047241,782.757263,580.619995,776.967285,580.903748C772.588623,581.118408,771.391418,581.661133,771.391418,583.431763C771.391418,584.356323,772.312073,585.192993,773.356323,585.217346C773.649475,585.224182,775.122437,584.961975,776.629517,584.634644M710.908142,630.376831C711.972229,629.413818,711.838501,628.425842,710.426453,626.817627C708.55542,624.686646,706.760498,624.036133,701.722717,623.66333C698.167175,623.400146,696.793213,623.110474,695.04541,622.255371C691.084106,620.317261,688.004944,615.27887,687.615417,610.097717C687.303345,605.947205,688.40332,604.032593,694.289856,598.479675C700.624023,592.504578,702.337402,591.792725,706.988464,593.203674C711.38031,594.536011,713.361755,593.814453,717.30603,589.446716C719.163208,587.390137,721.526428,585.430786,724.653259,583.354919C729.520081,580.124023,731.485107,578.018433,731.950928,575.535278C732.096924,574.75708,732.022827,573.695435,731.786255,573.176208C731.014832,571.483154,726.523499,567.056335,724.090332,565.590881L721.712769,564.158875L715.763977,564.095093C712.216675,564.057068,708.665466,563.780884,706.967102,563.410889C703.763,562.713013,702.816895,562.963013,702.401733,564.617065C702.21582,565.357788,702.364441,565.886963,702.908325,566.420776C703.586121,567.085999,704.679871,567.208008,712.065491,567.4422C719.797363,567.687317,720.617371,567.785889,722.55658,568.703613C725.50531,570.098999,728.022095,572.907837,728.022095,574.803345C728.022095,576.885132,725.783386,579.087891,721.479004,581.241272C718.579773,582.691711,717.789917,583.308167,716.70813,584.964722C713.592346,589.735962,711.852051,590.568359,706.584412,589.806763C702.455627,589.209778,700.45752,589.197571,698.443237,589.756958C697.153503,590.115112,696.58783,590.660645,695.101196,592.979858C693.709229,595.151428,692.706665,596.162964,690.587891,597.533142C688.74585,598.724487,687.607422,599.797729,687.071289,600.848633C686.635254,601.703369,685.728638,603.269714,685.056519,604.329468C684.10376,605.831848,683.834595,606.724976,683.834595,608.383423C683.834595,612.740417,687.086304,620.516479,689.915466,622.925049C690.805725,623.682983,692.720154,624.901428,694.1698,625.632813C696.541016,626.829041,697.162659,626.962524,700.36438,626.962524C704.352478,626.962524,705.38208,627.338928,707.542908,629.587036C709.108643,631.216003,709.80127,631.37854,710.908142,630.376831M826.19397,532.669312C831.852661,531.216675,836.98175,528.941772,839.30249,526.855164C841.851135,524.563782,845.003418,518.622986,845.325195,515.5047C845.720459,511.675232,844.293274,509.055115,841.529846,508.536682C840.764771,508.393158,839.353882,507.919403,838.394409,507.483887C835.467712,506.155518,833.98877,506.398163,829.554626,508.934174C822.844604,512.771912,821.324097,512.803894,814.338318,509.254242C809.990356,507.044922,809.834778,506.999756,808.834595,507.655151C807.604675,508.460999,807.443848,510.318298,808.52124,511.273651C808.915039,511.622864,810.43396,512.209961,811.896667,512.578369C813.359375,512.946777,815.977051,513.794312,817.713745,514.461731C822.600037,516.3396,824.77478,516.070313,828.950806,513.070129C830.083374,512.25647,831.674683,511.313049,832.487061,510.973572C835.459229,509.73175,839.702759,510.459412,841.097046,512.449951C842.653137,514.671631,841.490601,519.435608,838.610596,522.638916C836.397339,525.100525,834.381958,526.33783,829.952209,527.954468C823.571899,530.28302,820.756653,530.249634,814.890991,527.775757C813.073608,527.009277,809.778625,525.90094,807.568787,525.312744C802.355103,523.92511,800.434814,522.931702,798.009827,520.367676C793.407593,515.501404,792.539612,510.941772,795.099243,505.077728C797.076782,500.547302,797.123352,498.762115,795.404602,493.376953C794.614624,490.901611,793.890625,487.820557,793.795837,486.530121C793.596436,483.815796,792.789307,482.671417,790.812683,482.300598C789.171875,481.992798,787.757202,482.691589,787.757202,483.809875C787.757202,484.270386,788.374939,485.414642,789.130005,486.352631C790.667175,488.262146,791.439453,490.199707,791.439453,492.146515C791.439453,492.865295,791.807678,494.523682,792.257751,495.831787C793.496887,499.433411,793.343994,501.545319,791.607178,504.818176C790.166626,507.532684,790.140991,507.663391,790.277466,511.590149L790.416626,515.594177L792.776794,519.067383C796.557007,524.630188,799.456116,526.894165,804.122925,527.927734C807.573669,528.692017,812.388062,530.322327,816.318176,532.057434C818.274414,532.921082,820.427307,533.635254,821.102417,533.64447C821.777527,533.653687,824.068665,533.214844,826.19397,532.669312"/>
</svg>
