<?xml version="1.0" encoding="UTF-8"?>
<svg xmlns="http://www.w3.org/2000/svg" width="200.007mm" height="199.997mm" viewBox="-758.404724 -676.998291 200.006531 199.996582">
    <path transform="matrix(-1,0,0,-1,710.099976,117.5)" style="stroke:#000000;stroke-width:0.05mm;fill:none" d="M1369.734375,594.507813C1395.001221,594.78656,1419.219482,604.652527,1437.488281,622.109375C1450.388306,634.384399,1459.773193,649.884033,1464.671875,667.003906C1470.459839,687.350281,1469.67688,709.004028,1462.433594,728.878906C1457.145752,743.291748,1448.612793,756.294678,1437.496094,766.882813C1423.637939,780.124268,1406.256592,789.090454,1387.433594,792.707031L1387.382813,792.714844L1386.207031,792.933594C1385.799194,793.019409,1385.388794,793.091553,1384.976563,793.152344C1371.165894,795.434082,1357.03186,794.816711,1343.472656,791.339844C1325.390869,786.668213,1308.981812,777.018738,1296.109375,763.488281L1296.03125,763.410156L1294.539063,761.808594L1294.457031,761.710938C1283.234009,749.376221,1275.283447,734.424133,1271.332031,718.222656C1266.059937,696.532166,1268.171265,673.703369,1277.332031,653.347656C1289.140625,627.26178,1311.538208,607.469727,1338.878906,598.960938C1348.868774,595.875671,1359.279907,594.373108,1369.734375,594.507813z"/>
    <path transform="matrix(-1,0,0,-1,710.099976,117.5)" style="stroke:#000000;stroke-width:0.05mm;fill:none" d="M1407.511719,743.34375L1407.3125,743.371094C1407.117188,743.417358,1406.927002,743.483887,1406.753906,743.585938C1406.227295,744.013,1405.737061,744.483215,1405.289063,744.992188C1401.650757,748.950867,1398.208008,753.084473,1394.972656,757.378906C1393.893677,758.727356,1392.648315,759.933838,1391.265625,760.96875C1387.780273,763.502258,1384.111572,765.773315,1380.289063,767.761719C1379.24939,768.20575,1378.241333,768.72052,1377.273438,769.304688C1376.704102,769.685669,1376.213867,770.172424,1375.816406,770.730469C1375.235474,771.495605,1374.699097,772.29364,1374.210938,773.121094C1373.682617,773.92572,1373.088745,774.685425,1372.433594,775.390625C1372.072876,775.747375,1371.668701,776.056946,1371.230469,776.3125C1370.473145,776.717468,1369.640381,776.96051,1368.785156,777.039063C1367.353027,777.161743,1365.913086,777.164124,1364.480469,777.046875C1363.740479,777.003296,1362.998901,776.989929,1362.257813,777.007813L1361.945313,777.03125C1361.672241,777.047302,1361.404907,777.110229,1361.152344,777.214844C1361.107544,777.256714,1361.057861,777.291199,1361.015625,777.335938C1359.87854,778.657349,1358.800415,780.028198,1357.785156,781.445313C1356.758179,782.803467,1355.707031,784.143799,1354.632813,785.464844C1356.576782,785.756775,1358.529541,785.985962,1360.488281,786.152344C1360.896606,785.351929,1361.439575,784.627441,1362.097656,784.015625L1362.339844,783.816406C1362.868408,783.408813,1363.471313,783.108398,1364.113281,782.925781C1364.818604,782.701172,1365.545166,782.550659,1366.28125,782.472656C1367.432983,782.350647,1368.586914,782.249023,1369.742188,782.167969C1370.523926,782.131409,1371.295654,781.978638,1372.035156,781.722656C1372.517212,781.548706,1372.977661,781.320129,1373.40625,781.039063C1375.893799,779.567383,1378.136108,777.715942,1380.050781,775.550781C1381.229736,774.073059,1382.578857,772.739746,1384.070313,771.578125C1385.988647,770.038269,1388.09436,768.747559,1390.335938,767.734375C1391.609619,767.258179,1392.875732,766.77771,1394.144531,766.289063C1394.773682,766.019653,1395.377319,765.694214,1395.945313,765.3125C1396.263306,765.0672,1396.5448,764.778625,1396.785156,764.457031C1397.104736,764.00769,1397.384644,763.531189,1397.617188,763.03125C1399.26709,759.386475,1401.533203,756.053772,1404.316406,753.179688C1405.065918,752.393311,1405.883545,751.674744,1406.761719,751.035156C1407.360596,750.606934,1408.003906,750.245117,1408.679688,749.953125C1409.974365,749.473694,1411.350586,749.254211,1412.730469,749.300781C1416.348267,749.363647,1419.869385,750.479614,1422.863281,752.511719C1424.639038,753.831421,1426.263672,755.343262,1427.703125,757.023438C1429.039307,758.486084,1430.546631,759.782532,1432.191406,760.886719C1433.288574,759.835754,1434.358154,758.755798,1435.398438,757.648438C1434.941772,757.157104,1434.52356,756.631592,1434.144531,756.078125C1433.042114,754.40271,1431.809692,752.81665,1430.457031,751.335938C1429.178101,749.996155,1427.733521,748.825012,1426.160156,747.847656C1424.03833,746.589478,1421.721313,745.694458,1419.304688,745.199219C1416.495361,744.641296,1413.681641,744.118225,1410.859375,743.628906C1409.865601,743.464478,1408.862183,743.36377,1407.855469,743.328125L1407.511719,743.34375z"/>
    <path transform="matrix(-1,0,0,-1,710.099976,117.5)" style="stroke:#000000;stroke-width:0.05mm;fill:none" d="M1379.078125,784.566406L1378.761719,784.632813C1378.338013,784.746582,1377.935425,784.926819,1377.566406,785.164063C1377.375854,785.294128,1377.202271,785.446533,1377.039063,785.609375C1376.883911,785.761475,1376.763184,785.944031,1376.679688,786.144531C1378.043701,786.033325,1379.403687,785.878235,1380.757813,785.679688L1381.382813,785.609375C1381.19104,785.361755,1380.961914,785.145264,1380.703125,784.96875L1380.457031,784.816406L1380.199219,784.695313C1380.021729,784.636597,1379.840942,784.58783,1379.65625,784.558594C1379.463501,784.551697,1379.270752,784.556885,1379.078125,784.566406z"/>
    <path transform="matrix(-1,0,0,-1,710.099976,117.5)" style="stroke:#000000;stroke-width:0.05mm;fill:none" d="M1396.714844,771.8125L1396.480469,771.828125C1395.738403,771.961609,1395.022949,772.211975,1394.355469,772.5625C1392.764038,773.312561,1391.212402,774.144165,1389.707031,775.054688C1388.95752,775.524719,1388.230591,776.029724,1387.527344,776.566406C1386.776489,777.127502,1386.131836,777.818054,1385.617188,778.601563L1385.472656,778.847656C1385.356201,779.071106,1385.258301,779.303894,1385.191406,779.546875L1385.121094,779.917969C1385.098999,780.124207,1385.091675,780.331726,1385.097656,780.539063C1385.111938,780.782349,1385.159546,781.023254,1385.257813,781.246094C1385.596436,782.074036,1386.087402,782.831482,1386.703125,783.480469C1387.055908,783.782043,1387.376587,784.120056,1387.648438,784.496094C1389.324951,784.149475,1390.989746,783.749878,1392.640625,783.296875C1392.339111,782.95752,1392.050903,782.606323,1391.785156,782.238281C1391.65686,782.101929,1391.564697,781.934631,1391.515625,781.753906C1391.419067,781.514771,1391.343506,781.2677,1391.289063,781.015625C1391.250977,780.795654,1391.221191,780.574341,1391.207031,780.351563C1391.210449,780.13446,1391.231689,779.918518,1391.257813,779.703125C1391.281494,779.56897,1391.313721,779.436584,1391.347656,779.304688C1391.443237,778.941589,1391.610962,778.601501,1391.835938,778.300781L1392.023438,778.0625C1392.16333,777.916565,1392.315308,777.78302,1392.472656,777.65625C1392.643066,777.540771,1392.81958,777.434875,1393,777.335938C1393.232788,777.222778,1393.480469,777.143799,1393.734375,777.09375C1394.254272,776.993286,1394.78833,776.98761,1395.308594,777.085938C1395.574829,777.132996,1395.83728,777.200134,1396.089844,777.296875L1396.382813,777.4375C1396.810913,777.683105,1397.203735,777.985046,1397.550781,778.335938C1398.352417,779.185547,1399.089478,780.093994,1399.753906,781.054688C1401.679688,780.365662,1403.579346,779.60614,1405.449219,778.777344C1404.797241,778.255798,1404.164063,777.711121,1403.550781,777.144531C1402.333496,775.930786,1401.113281,774.700073,1399.910156,773.472656C1399.417847,772.998169,1398.876953,772.576843,1398.296875,772.214844C1398.150146,772.137207,1398.001099,772.063721,1397.847656,772C1397.48999,771.850525,1397.101929,771.790894,1396.714844,771.8125z"/>
    <path transform="matrix(-1,0,0,-1,710.099976,117.5)" style="stroke:#000000;stroke-width:0.05mm;fill:none" d="M1353.269531,744.136719C1352.328857,744.188538,1351.42749,744.530212,1350.6875,745.113281L1350.492188,745.296875C1350.122192,745.688721,1349.87854,746.184326,1349.808594,746.71875C1349.724487,747.97406,1349.786621,749.234741,1349.988281,750.476563C1350.233887,753.709106,1350.352417,756.949646,1350.34375,760.191406C1350.361938,763.856384,1350.364624,767.487915,1350.351563,771.152344C1349.747925,772.35022,1349.136719,773.541565,1348.515625,774.730469C1347.841797,776.06366,1346.918701,777.25531,1345.800781,778.246094C1344.802368,779.002502,1343.742554,779.807556,1342.746094,780.566406C1342.088013,781.092285,1341.464111,781.659546,1340.875,782.261719L1341.089844,782.34375L1343.175781,782.976563C1344.547119,783.361938,1345.92627,783.718811,1347.3125,784.046875C1349.681152,781.461304,1351.942017,778.779419,1354.089844,776.007813C1354.770508,775.132874,1355.406738,774.223999,1355.996094,773.285156C1356.247437,772.846313,1356.430786,772.372009,1356.542969,771.878906C1356.596436,771.286194,1356.567017,770.688843,1356.449219,770.105469C1356.236694,769.145691,1356.09375,768.171875,1356.023438,767.191406C1355.724609,762.56012,1355.744019,757.913696,1356.082031,753.285156C1356.165405,752.24292,1356.280151,751.203308,1356.425781,750.167969C1356.587891,749.357178,1356.761353,748.548279,1356.945313,747.742188C1357.048584,747.277954,1357.099487,746.803711,1357.097656,746.328125C1357.073486,746.22052,1357.046753,746.113586,1357.015625,746.007813C1356.720215,745.427307,1356.255249,744.949524,1355.679688,744.644531C1354.94043,744.25061,1354.104858,744.074097,1353.269531,744.136719z"/>
    <path transform="matrix(-1,0,0,-1,710.099976,117.5)" style="stroke:#000000;stroke-width:0.05mm;fill:none" d="M1329.554688,750.753906C1328.431885,750.847168,1327.327148,751.092102,1326.269531,751.480469C1324.009277,752.221375,1321.820679,753.165466,1319.730469,754.300781C1317.969849,755.220154,1316.302002,756.307312,1314.75,757.546875C1314.335205,757.906006,1313.956665,758.305054,1313.625,758.742188C1313.10498,759.559814,1312.921387,760.544861,1313.105469,761.496094C1313.172485,761.731201,1313.259155,761.960449,1313.375,762.175781C1313.903198,763.082581,1314.688721,763.811218,1315.628906,764.277344C1316.33667,764.618652,1317.137451,764.717285,1317.90625,764.554688C1318.250488,764.471252,1318.568726,764.305908,1318.839844,764.078125L1319.03125,763.894531C1319.465576,763.326538,1319.851318,762.722961,1320.183594,762.089844C1320.697021,761.146118,1321.19873,760.194946,1321.6875,759.238281C1322.141235,758.372192,1322.715454,757.574524,1323.394531,756.871094C1323.976563,756.304077,1324.746826,755.970215,1325.558594,755.933594C1326.112671,755.899658,1326.668457,755.966003,1327.199219,756.128906L1327.40625,756.207031C1327.816772,756.369141,1328.181274,756.629272,1328.472656,756.960938C1328.60437,757.118103,1328.730225,757.280029,1328.851563,757.445313C1328.943481,757.583374,1329.024292,757.728271,1329.101563,757.875C1329.406372,758.484009,1329.482422,759.181335,1329.324219,759.84375C1329.246582,760.231384,1329.106812,760.603577,1328.921875,760.953125C1328.321411,762.026306,1327.592041,763.021912,1326.753906,763.921875C1325.689331,765.041992,1324.671509,766.205811,1323.703125,767.410156C1323.308838,767.940979,1323.014648,768.539185,1322.835938,769.175781C1322.748535,769.548096,1322.718262,769.931702,1322.753906,770.3125C1322.84729,771.067017,1323.02832,771.808289,1323.296875,772.519531C1323.633911,773.419434,1323.978394,774.319763,1324.328125,775.214844C1327.270996,776.845764,1330.30896,778.299072,1333.425781,779.566406C1332.759766,778.846191,1332.038574,778.179199,1331.269531,777.570313C1330.630127,777.012146,1330.057495,776.382019,1329.558594,775.695313C1328.926514,774.78064,1328.633057,773.672913,1328.742188,772.566406C1328.799683,771.830872,1328.971924,771.10907,1329.25,770.425781C1329.69165,769.306641,1330.217529,768.222595,1330.824219,767.183594C1331.611694,765.825012,1332.399536,764.480103,1333.199219,763.128906C1333.212158,761.074402,1333.209473,759.015564,1333.191406,756.960938C1333.155884,755.737305,1333.014282,754.518982,1332.765625,753.320313C1332.618408,752.743591,1332.358276,752.201843,1332,751.726563L1331.878906,751.585938C1331.485962,751.183105,1330.979492,750.909546,1330.425781,750.808594L1330.089844,750.761719C1329.911621,750.75177,1329.733154,750.750488,1329.554688,750.753906z"/>
    <path transform="matrix(-1,0,0,-1,710.099976,117.5)" style="stroke:#000000;stroke-width:0.05mm;fill:none" d="M1373.589844,731.066406L1372.945313,731.113281C1371.239624,731.344727,1369.562622,731.75354,1367.941406,732.332031C1365.727661,733.023315,1363.420654,733.368958,1361.101563,733.355469C1359.210815,733.357361,1357.322144,733.227905,1355.449219,732.96875C1354.030151,732.834534,1352.603271,732.803406,1351.179688,732.875C1350.011719,732.961914,1348.860962,733.209229,1347.761719,733.613281C1345.49939,734.403442,1343.366211,735.522095,1341.429688,736.933594C1340.748535,737.439636,1340.106567,737.996399,1339.507813,738.597656C1339.077026,739.077026,1338.766113,739.651367,1338.597656,740.273438C1338.425903,740.82605,1338.292603,741.389832,1338.199219,741.960938C1337.842773,743.926636,1337.50647,745.898254,1337.191406,747.871094L1338.382813,751.417969C1339.06543,753.249023,1339.45459,755.176392,1339.535156,757.128906C1339.625,758.847656,1339.596313,760.570374,1339.449219,762.285156C1339.334473,763.350281,1339.108032,764.400269,1338.773438,765.417969C1338.369873,766.53772,1337.836548,767.606384,1337.183594,768.601563C1336.567627,769.519531,1336.108154,770.533142,1335.824219,771.601563C1335.568237,772.681519,1335.823486,773.821533,1336.527344,774.679688C1336.690186,774.903809,1336.881836,775.105896,1337.105469,775.269531C1337.213623,775.35675,1337.334229,775.427185,1337.460938,775.484375L1337.648438,775.566406C1338.153809,775.73645,1338.702393,775.717163,1339.199219,775.523438L1339.398438,775.441406C1340.544678,774.814636,1341.508667,773.901917,1342.199219,772.792969C1342.762329,771.943909,1343.190308,771.012329,1343.464844,770.03125C1343.887939,768.527588,1344.174805,766.988831,1344.320313,765.433594C1344.666382,762.537781,1344.693726,759.612793,1344.402344,756.710938C1344.177246,754.519348,1343.888062,752.334839,1343.535156,750.160156C1343.407959,749.306763,1343.307495,748.449585,1343.234375,747.589844C1343.158447,746.656067,1343.165649,745.717468,1343.257813,744.785156C1343.37915,744.095276,1343.623901,743.432678,1343.984375,742.832031C1344.501465,741.911804,1345.193726,741.101685,1346.023438,740.449219C1347.789429,739.027466,1349.928833,738.147217,1352.183594,737.910156C1353.609375,737.714355,1355.061401,737.899353,1356.394531,738.441406C1357.296021,738.772644,1358.192261,739.119141,1359.082031,739.480469C1359.673096,739.702698,1360.289795,739.849304,1360.917969,739.914063C1361.285767,739.93811,1361.654419,739.890503,1362.007813,739.785156C1363.46936,739.375061,1364.945679,739.01947,1366.433594,738.71875C1368.366089,738.358215,1370.290771,737.958435,1372.207031,737.519531C1372.97876,737.325745,1373.73584,737.077759,1374.472656,736.777344C1375.562744,736.247314,1376.480103,735.419312,1377.121094,734.390625L1377.210938,734.191406L1377.289063,733.984375C1377.310059,733.886108,1377.325928,733.786926,1377.339844,733.6875C1377.340942,733.585144,1377.340576,733.482971,1377.320313,733.382813L1377.195313,733.015625C1377.0979,732.77887,1376.971436,732.555725,1376.828125,732.34375C1376.636597,732.047607,1376.388306,731.791443,1376.09375,731.597656L1375.808594,731.425781C1375.317383,731.193726,1374.781494,731.070801,1374.238281,731.0625L1373.589844,731.066406z"/>
    <path transform="matrix(-1,0,0,-1,710.099976,117.5)" style="stroke:#000000;stroke-width:0.05mm;fill:none" d="M1413.054688,755.449219C1412.501587,755.459717,1411.953979,755.562378,1411.433594,755.75C1411.197754,755.829773,1410.968628,755.927612,1410.742188,756.03125C1409.492554,756.702332,1408.386597,757.611816,1407.480469,758.703125C1405.95752,760.483948,1404.624512,762.41864,1403.503906,764.476563C1403.204468,765.083984,1403.021118,765.742126,1402.976563,766.417969L1402.972656,766.675781C1402.993652,766.935852,1403.046387,767.19165,1403.121094,767.441406L1403.273438,767.796875C1403.379639,768.033752,1403.515503,768.255676,1403.664063,768.46875C1404.427734,769.501587,1405.324951,770.428284,1406.328125,771.230469C1408.199951,772.764587,1410.169312,774.175903,1412.222656,775.457031C1414.023682,774.500732,1415.7854,773.472595,1417.503906,772.375C1415.804199,771.210327,1414.081055,770.079834,1412.335938,768.984375L1411.039063,768.191406C1410.611938,767.985107,1410.223511,767.708557,1409.878906,767.382813C1409.016357,766.598083,1408.476563,765.520325,1408.367188,764.359375C1408.3479,764.093811,1408.361084,763.826355,1408.417969,763.566406L1408.472656,763.304688C1408.54834,763.098999,1408.629028,762.895264,1408.71875,762.695313L1408.878906,762.433594C1408.993286,762.256714,1409.128418,762.094299,1409.277344,761.945313C1409.559326,761.663879,1409.885376,761.43103,1410.238281,761.246094L1410.488281,761.125C1410.746704,761.01886,1411.012329,760.931152,1411.285156,760.871094C1411.673828,760.795105,1412.071045,760.773865,1412.464844,760.816406L1412.757813,760.882813L1413.039063,760.984375C1413.399902,761.156494,1413.74707,761.356201,1414.074219,761.585938C1415.052368,762.225342,1415.97876,762.940735,1416.84375,763.726563C1418.863037,765.429749,1420.971436,767.024719,1423.160156,768.503906C1424.653931,767.405762,1426.110474,766.25824,1427.527344,765.0625C1425.613647,763.622314,1423.791748,762.063782,1422.074219,760.394531C1420.951538,759.352966,1419.762939,758.384644,1418.515625,757.496094C1417.428345,756.725037,1416.231689,756.121582,1414.964844,755.707031C1414.515747,755.584473,1414.057861,755.495667,1413.59375,755.457031C1413.414185,755.4505,1413.234375,755.447327,1413.054688,755.449219z"/>
    <path transform="matrix(-1,0,0,-1,710.099976,117.5)" style="stroke:#000000;stroke-width:0.05mm;fill:none" d="M1372.464844,719.753906C1370.076782,719.774475,1367.693726,719.975708,1365.335938,720.355469L1363.65625,720.601563C1360.273682,720.954041,1356.873047,721.105591,1353.472656,721.054688C1351.670288,721.072815,1349.869995,721.179871,1348.078125,721.375C1345.842896,721.668518,1343.678101,722.359497,1341.6875,723.417969C1340.52356,724.04895,1339.366699,724.690491,1338.214844,725.34375C1336.471802,726.320374,1334.543823,726.921631,1332.554688,727.109375C1331.941895,727.179504,1331.327026,727.229065,1330.710938,727.257813C1328.396362,727.373657,1326.077881,727.471375,1323.761719,727.550781C1319.233154,729.742004,1314.682129,731.897034,1310.117188,734.011719C1308.786987,734.62616,1307.444092,735.213867,1306.089844,735.773438C1305.0448,736.240234,1304.047363,736.80719,1303.113281,737.46875C1302.355347,738.027405,1301.69104,738.703125,1301.148438,739.472656C1301.051147,739.653381,1300.975464,739.844849,1300.921875,740.042969C1300.883057,740.217468,1300.877563,740.397217,1300.902344,740.574219C1300.953735,740.734375,1301.01062,740.8927,1301.078125,741.046875C1301.453003,741.671143,1301.986084,742.185913,1302.625,742.535156C1302.896606,742.700317,1303.187134,742.83252,1303.492188,742.921875L1303.957031,743.03125L1304.433594,743.078125C1304.638306,743.062378,1304.839966,743.022827,1305.039063,742.972656C1305.237427,742.918884,1305.428711,742.843506,1305.617188,742.761719C1306.811523,742.219666,1307.94751,741.557312,1309.007813,740.785156C1311.239502,739.391663,1313.540649,738.112732,1315.902344,736.953125C1318.525757,735.602783,1321.215332,734.385193,1323.960938,733.304688C1325.803345,732.63324,1327.786743,732.445374,1329.722656,732.757813C1330.92627,732.956543,1332.136719,733.111633,1333.351563,733.222656C1333.78125,733.264771,1334.212769,733.286682,1334.644531,733.285156C1335.216919,733.260803,1335.775757,733.096252,1336.261719,732.792969C1336.657349,732.57312,1337.031006,732.315979,1337.382813,732.03125C1340.364136,729.901489,1343.658691,728.248901,1347.148438,727.132813C1348.445923,726.746338,1349.790771,726.543823,1351.144531,726.527344C1353.486572,726.483582,1355.829712,726.531738,1358.167969,726.671875C1359.810181,726.776428,1361.457764,726.760803,1363.097656,726.625C1364.886841,726.363037,1366.659302,725.997742,1368.40625,725.53125C1369.710571,725.225037,1371.030151,724.987671,1372.359375,724.820313C1373.913696,724.651611,1375.485474,724.826233,1376.964844,725.332031C1378.271729,725.769165,1379.525757,726.350403,1380.703125,727.066406C1381.530396,727.603271,1382.268555,728.266113,1382.890625,729.03125C1383.972534,730.448364,1384.38501,732.265869,1384.023438,734.011719C1383.854858,734.920959,1383.531982,735.794739,1383.066406,736.59375C1382.204834,738.143555,1381.079834,739.531372,1379.742188,740.695313C1378.422974,741.87262,1376.870972,742.759888,1375.1875,743.300781C1374.473389,743.548584,1373.742065,743.743225,1373,743.886719C1371.223999,744.244873,1369.414429,744.604736,1367.636719,744.953125C1366.69458,745.150269,1365.765625,745.405457,1364.855469,745.71875C1364.416138,745.902954,1364.025757,746.185486,1363.710938,746.542969C1363.584717,746.710205,1363.484741,746.895508,1363.40625,747.089844C1363.102905,747.979858,1362.891602,748.898682,1362.777344,749.832031C1362.38916,752.525696,1362.162231,755.240234,1362.097656,757.960938C1362.003418,761.286804,1362.049072,764.615479,1362.234375,767.9375C1362.27356,768.433838,1362.359497,768.925354,1362.488281,769.40625C1362.56189,769.612915,1362.665405,769.807861,1362.800781,769.980469L1363.015625,770.226563L1363.265625,770.441406C1363.473877,770.613953,1363.703003,770.758911,1363.941406,770.886719C1364.241943,771.037292,1364.563843,771.139343,1364.894531,771.199219L1365.15625,771.222656L1365.417969,771.222656C1366.712402,771.101196,1367.941528,770.601929,1368.953125,769.785156C1369.182861,769.564331,1369.384033,769.315369,1369.542969,769.039063C1369.621094,768.892029,1369.688721,768.739746,1369.742188,768.582031L1369.816406,768.289063C1369.840698,768.146912,1369.849243,768.003174,1369.859375,767.859375L1369.859375,767.648438L1369.847656,767.433594L1369.792969,767.089844C1369.642822,766.293518,1369.334106,765.536194,1368.894531,764.855469C1368.415894,764.122559,1367.941162,763.389282,1367.46875,762.652344C1367.109619,762.036316,1366.886841,761.35022,1366.816406,760.640625C1366.695923,759.101868,1366.747314,757.55481,1366.96875,756.027344C1367.175537,754.753479,1367.588989,753.522217,1368.1875,752.378906C1368.539673,751.758118,1368.997314,751.203552,1369.535156,750.734375C1369.718262,750.619019,1369.907959,750.514221,1370.105469,750.425781C1371.196045,749.927307,1372.327759,749.52417,1373.488281,749.222656C1374.699829,748.929199,1375.901245,748.594482,1377.089844,748.21875C1378.730347,747.676147,1380.264648,746.85437,1381.625,745.789063C1382.35437,745.20459,1383.031494,744.557678,1383.648438,743.855469C1385.152588,742.136414,1386.572144,740.345276,1387.902344,738.488281C1388.432739,737.72937,1388.913574,736.937073,1389.34375,736.117188C1389.963867,734.851807,1390.238159,733.444519,1390.136719,732.039063L1390.113281,731.714844C1390.052856,731.063293,1389.883423,730.426208,1389.609375,729.832031C1388.275146,727.233948,1386.473267,724.904236,1384.292969,722.960938C1383.347778,722.133484,1382.300171,721.431213,1381.175781,720.871094C1380.60791,720.605225,1380.011841,720.403748,1379.398438,720.273438C1377.716431,719.934753,1376.004883,719.763245,1374.289063,719.761719C1373.68103,719.748535,1373.072998,719.745728,1372.464844,719.753906z"/>
    <path transform="matrix(-1,0,0,-1,710.099976,117.5)" style="stroke:#000000;stroke-width:0.05mm;fill:none" d="M1365.824219,707.535156C1364.873047,707.602722,1363.937012,707.810425,1363.046875,708.152344C1362.053467,708.548584,1361.018066,708.830078,1359.960938,708.992188C1358.307495,709.219238,1356.644165,709.366638,1354.976563,709.433594C1351.461792,709.559875,1347.949219,709.719971,1344.4375,709.914063C1343.146484,709.994507,1341.862305,710.161255,1340.59375,710.414063C1339.658936,710.633118,1338.771118,711.019531,1337.976563,711.558594C1337.303467,711.9953,1336.668701,712.488159,1336.078125,713.03125C1335.178467,713.857239,1334.171997,714.558594,1333.085938,715.117188C1331.932617,715.647339,1330.646484,715.81842,1329.394531,715.609375C1328.741455,715.49762,1328.0979,715.336548,1327.46875,715.128906C1326.65332,714.893921,1325.823486,714.712769,1324.984375,714.585938C1324.235718,714.505432,1323.480225,714.64386,1322.804688,714.976563C1322.244629,715.251831,1321.702515,715.561646,1321.179688,715.902344C1319.20752,717.07196,1317.19165,718.166382,1315.136719,719.183594C1311.271973,721.143738,1307.34021,722.967529,1303.347656,724.652344C1299.705078,726.247986,1296.171509,728.08136,1292.769531,730.140625C1292.005127,730.613281,1291.249756,731.100098,1290.503906,731.601563C1289.748291,732.122192,1289.050293,732.721741,1288.417969,733.386719C1288.189209,733.662781,1287.996826,733.967346,1287.855469,734.296875C1287.797119,734.479187,1287.755127,734.666199,1287.726563,734.855469C1287.71814,735.044067,1287.745728,735.231445,1287.792969,735.414063C1287.841797,735.6073,1287.913574,735.794434,1288.023438,735.960938C1288.620361,736.875916,1289.490234,737.578918,1290.507813,737.976563C1291.182495,738.177673,1291.886841,738.260986,1292.589844,738.222656C1293.021606,738.212769,1293.45105,738.154541,1293.867188,738.039063L1294.117188,737.949219C1294.613037,737.74646,1295.047729,737.41803,1295.382813,737C1295.926392,736.378235,1296.424194,735.717896,1296.871094,735.023438C1297.76123,733.660095,1298.941895,732.510437,1300.328125,731.65625C1301.795166,730.787842,1303.337891,730.054321,1304.9375,729.464844C1308.048828,728.172363,1311.106079,726.753052,1314.101563,725.210938C1315.818359,724.351746,1317.55188,723.526062,1319.300781,722.734375C1321.167358,721.918579,1323.156982,721.420349,1325.1875,721.257813C1326.802246,721.114136,1328.419922,721.003418,1330.039063,720.925781L1333.207031,720.734375L1338.558594,717.953125L1343.921875,715.160156C1347.82373,715.0495,1351.720215,714.919373,1355.621094,714.769531C1356.856445,714.709167,1358.057129,714.653015,1359.292969,714.597656C1360.265625,714.545349,1361.236328,714.459534,1362.203125,714.339844C1362.344238,714.293274,1362.482422,714.238403,1362.617188,714.175781C1363.364014,713.978699,1364.12561,713.842896,1364.894531,713.769531C1368.61145,713.377808,1372.352905,713.273438,1376.085938,713.457031C1378.035034,713.57019,1379.971313,713.844299,1381.875,714.277344C1383.389648,714.63855,1384.831665,715.254517,1386.140625,716.097656C1386.987305,716.648071,1387.772461,717.287781,1388.480469,718.007813C1390.91687,720.506165,1393.050049,723.283203,1394.835938,726.28125C1395.546631,727.53186,1396.105469,728.862854,1396.5,730.246094C1397.024414,732.289612,1396.904907,734.445496,1396.15625,736.417969C1395.610962,737.935486,1394.861938,739.371826,1393.929688,740.6875C1392.664063,742.582214,1391.282837,744.397095,1389.792969,746.121094C1388.296021,747.94043,1386.684326,749.662354,1384.96875,751.277344C1383.547607,752.569458,1381.853027,753.52356,1380.011719,754.070313C1378.82312,754.440613,1377.620483,754.76416,1376.40625,755.039063C1375.699585,755.232605,1375.028687,755.538574,1374.421875,755.949219C1373.623047,756.532715,1373.11145,757.432434,1373.027344,758.417969C1372.847412,759.948669,1373.447632,761.467041,1374.628906,762.457031C1374.902466,762.663696,1375.216431,762.810547,1375.550781,762.886719L1375.816406,762.902344L1375.921875,762.890625C1376.098877,762.843567,1376.269897,762.778809,1376.441406,762.714844C1376.853394,762.545776,1377.25708,762.356873,1377.648438,762.144531C1380.68811,760.500122,1383.616211,758.657654,1386.414063,756.628906C1387.159546,756.069519,1387.886475,755.485901,1388.59375,754.878906C1390.011963,753.559692,1391.319824,752.126648,1392.503906,750.59375C1394.966919,747.413574,1397.510864,744.296448,1400.132813,741.246094C1400.519409,740.776062,1400.894287,740.296631,1401.257813,739.808594C1401.731689,739.17804,1401.996216,738.413635,1402.007813,737.625C1402.004761,735.764465,1402.182617,733.908081,1402.539063,732.082031C1402.704468,731.081909,1402.75354,730.065979,1402.683594,729.054688C1402.656006,728.890259,1402.607544,728.730713,1402.550781,728.574219C1402.091064,727.625488,1401.553467,726.716614,1400.945313,725.855469C1398.33728,722.045715,1395.55835,718.355774,1392.617188,714.796875C1391.703247,713.670776,1390.750977,712.576233,1389.761719,711.515625C1389.16748,710.901123,1388.501587,710.360413,1387.777344,709.90625C1386.922363,709.425537,1385.95752,709.174744,1384.976563,709.175781C1383.822876,709.168213,1382.677856,708.974121,1381.585938,708.601563C1380.16394,708.345276,1378.725342,708.192871,1377.28125,708.144531C1374.99353,708.082031,1372.704102,707.998657,1370.417969,707.894531C1369.176636,707.815918,1367.937866,707.701416,1366.703125,707.550781C1366.411011,707.524048,1366.117188,707.518921,1365.824219,707.535156z"/>
    <path transform="matrix(-1,0,0,-1,710.099976,117.5)" style="stroke:#000000;stroke-width:0.05mm;fill:none" d="M1328.5625,738.855469C1327.692017,738.947754,1326.832886,739.125732,1325.996094,739.382813C1324.681274,739.75061,1323.394409,740.212097,1322.144531,740.761719C1318.240723,742.453918,1314.507813,744.515625,1310.996094,746.917969C1309.653564,747.799927,1308.253174,748.590698,1306.804688,749.285156C1305.952637,749.670654,1305.052612,749.93988,1304.128906,750.085938C1303.139038,750.198059,1302.139771,749.985657,1301.28125,749.480469C1300.523315,748.992798,1299.852417,748.381592,1299.296875,747.671875C1298.812256,747.049927,1298.313721,746.43866,1297.800781,745.839844C1297.38855,745.360474,1296.866333,744.987549,1296.277344,744.757813C1295.802734,744.608826,1295.3125,744.516785,1294.816406,744.480469C1293.611572,744.42157,1292.405518,744.396851,1291.199219,744.40625C1292.826294,746.929138,1294.581055,749.367249,1296.457031,751.710938C1297.671265,752.298218,1298.830566,752.992493,1299.921875,753.785156C1300.569946,754.28833,1301.12085,754.905823,1301.542969,755.609375C1301.948608,756.369751,1302.121338,757.233582,1302.023438,758.089844L1303.398438,759.503906L1303.417969,759.527344L1304.9375,761.007813L1304.96875,761.03125L1306.574219,762.542969C1306.607788,762.572021,1306.653931,762.611694,1306.6875,762.640625C1306.378296,761.445313,1306.263794,760.207825,1306.355469,758.976563C1306.490112,757.828125,1306.91687,756.732544,1307.601563,755.800781C1308.463623,754.648315,1309.503906,753.640747,1310.683594,752.816406C1312.25,751.653687,1313.892944,750.597717,1315.601563,749.65625C1317.80249,748.386658,1320.051758,747.202148,1322.34375,746.105469C1323.512329,745.551392,1324.792725,745.273804,1326.085938,745.289063C1326.708374,745.287781,1327.330811,745.279907,1327.953125,745.265625C1328.676147,745.223755,1329.393799,745.115662,1330.097656,744.945313L1330.472656,744.816406C1330.716187,744.715088,1330.942383,744.577576,1331.152344,744.417969C1331.384033,744.223694,1331.584839,743.996521,1331.753906,743.746094C1332.280518,742.946838,1332.51709,741.991821,1332.425781,741.039063C1332.375854,740.699341,1332.253174,740.374023,1332.066406,740.085938C1331.894287,739.811157,1331.666626,739.574585,1331.394531,739.398438L1331.191406,739.269531C1330.768921,739.028931,1330.30127,738.875427,1329.816406,738.839844C1329.398438,738.821472,1328.979858,738.826416,1328.5625,738.855469z"/>
    <path transform="matrix(-1,0,0,-1,710.099976,117.5)" style="stroke:#000000;stroke-width:0.05mm;fill:none" d="M1410.347656,731.203125C1410.191406,731.234741,1410.040771,731.288147,1409.894531,731.351563C1409.525513,731.536255,1409.21167,731.817078,1408.988281,732.164063C1408.369385,733.009705,1408.086914,734.054932,1408.191406,735.097656C1408.195313,735.325806,1408.228638,735.552368,1408.285156,735.773438C1408.367798,736.09375,1408.512207,736.394043,1408.703125,736.664063L1408.902344,736.886719C1409.276489,737.230042,1409.738647,737.460205,1410.234375,737.570313C1410.761353,737.708008,1411.302979,737.782471,1411.847656,737.785156C1413.404297,737.77832,1414.958374,737.909729,1416.492188,738.175781C1420.187988,738.766235,1423.810303,739.748901,1427.296875,741.109375C1428.181763,741.471008,1429.050537,741.87085,1429.902344,742.304688C1431.107056,743.041138,1432.215088,743.924988,1433.199219,744.9375C1435.006104,746.892212,1436.819336,748.827515,1438.652344,750.757813L1440.0625,752.3125C1441.290649,750.797913,1442.470947,749.244934,1443.601563,747.65625L1443.335938,747.496094C1442.777832,747.219116,1442.237549,746.907471,1441.71875,746.5625C1441.344727,746.308228,1440.995605,746.01886,1440.679688,745.695313C1439.617065,744.595459,1438.870972,743.228455,1438.527344,741.738281C1438.343384,741.13855,1438.088501,740.562805,1437.761719,740.027344C1437.643433,739.831787,1437.502075,739.652161,1437.351563,739.480469C1437.257813,739.402832,1437.160645,739.329773,1437.0625,739.257813C1436.462402,738.930115,1435.839355,738.646545,1435.199219,738.40625C1432.032593,737.218079,1428.829102,736.130493,1425.59375,735.144531C1421.49707,733.840515,1417.359375,732.66803,1413.1875,731.628906C1412.331177,731.422668,1411.462036,731.273865,1410.585938,731.183594L1410.347656,731.203125z"/>
    <path transform="matrix(-1,0,0,-1,710.099976,117.5)" style="stroke:#000000;stroke-width:0.05mm;fill:none" d="M1451.101563,733.984375C1449.098755,735.017944,1447.13623,736.128052,1445.21875,737.3125C1444.919312,737.502686,1444.643921,737.728882,1444.40625,737.992188L1444.375,738.046875C1444.340454,738.173401,1444.3125,738.301025,1444.273438,738.425781C1444.219849,738.622803,1444.208496,738.829224,1444.238281,739.03125C1444.258667,739.192627,1444.291138,739.351807,1444.320313,739.511719C1444.477783,740.160339,1444.764526,740.771057,1445.175781,741.296875L1445.53125,741.726563C1445.906006,742.138428,1446.354004,742.476685,1446.847656,742.734375C1448.675537,739.800171,1450.324707,736.758362,1451.785156,733.625L1451.101563,733.984375z"/>
    <path transform="matrix(-1,0,0,-1,710.099976,117.5)" style="stroke:#000000;stroke-width:0.05mm;fill:none" d="M1381.992188,645.304688C1381.19873,645.385925,1380.445068,645.693665,1379.828125,646.199219C1379.731323,646.294922,1379.645874,646.401123,1379.566406,646.511719C1379.331421,646.922058,1379.216431,647.390564,1379.230469,647.863281C1379.245483,648.870972,1379.352417,649.875183,1379.550781,650.863281C1379.724365,652.134888,1380.009521,653.388794,1380.40625,654.609375C1380.699341,655.437378,1381.207642,656.171753,1381.878906,656.738281C1382.507935,657.255798,1383.204712,657.685181,1383.949219,658.015625C1385.801147,659.007629,1387.537109,660.202515,1389.125,661.578125C1391.161377,663.27002,1393.002075,665.184448,1394.613281,667.285156C1395.24292,668.179138,1395.881958,669.065491,1396.53125,669.945313C1396.949219,670.483887,1397.425049,670.975037,1397.953125,671.40625L1398.0625,671.480469C1398.132446,671.504883,1398.202148,671.530151,1398.273438,671.550781C1398.981934,671.623535,1399.694458,671.649658,1400.40625,671.625C1402.143799,671.565002,1403.879517,671.469849,1405.613281,671.339844C1406.164185,671.316406,1406.71582,671.326172,1407.265625,671.367188L1407.480469,671.410156C1407.622681,671.448914,1407.762085,671.497437,1407.894531,671.5625L1408.089844,671.671875C1408.703491,672.106506,1409.214233,672.671936,1409.574219,673.332031C1409.736084,673.632019,1409.837646,673.960022,1409.890625,674.296875C1410.023804,675.148438,1409.808716,676.017456,1409.296875,676.710938C1408.944092,677.172363,1408.531616,677.584534,1408.070313,677.9375L1407.878906,678.046875C1407.744141,678.109314,1407.604004,678.159302,1407.460938,678.199219C1407.296143,678.235291,1407.128784,678.256409,1406.960938,678.273438C1405.674805,678.286438,1404.389038,678.227539,1403.109375,678.097656C1402.015869,678.024658,1400.920166,677.991028,1399.824219,677.996094C1399.270996,678.027771,1398.724854,678.138611,1398.207031,678.335938C1397.67688,678.563904,1397.243164,678.972473,1396.984375,679.488281C1396.600464,680.210938,1396.294922,680.972656,1396.078125,681.761719C1394.841919,685.461487,1394.184326,689.330017,1394.128906,693.230469C1394.14209,695.306519,1394.077148,697.38208,1393.933594,699.453125C1393.863892,700.230408,1393.771362,701.005493,1393.65625,701.777344C1393.385742,702.720947,1393.277832,703.703918,1393.339844,704.683594C1393.435059,705.510437,1393.739868,706.298584,1394.222656,706.976563C1394.786865,707.761414,1395.404175,708.506653,1396.070313,709.207031C1399.187866,712.893066,1402.164185,716.696655,1404.992188,720.609375L1405.953125,721.984375C1406.431274,722.827087,1407.019653,723.602295,1407.703125,724.289063C1408.268311,724.792725,1408.959106,725.133728,1409.703125,725.273438C1410.422852,725.418091,1411.157104,725.477173,1411.890625,725.449219C1413.386841,725.470947,1414.875732,725.663025,1416.328125,726.023438C1418.962646,726.640869,1421.577271,727.340454,1424.167969,728.121094C1427.802612,729.144104,1431.407227,730.272217,1434.976563,731.503906C1435.776489,731.812866,1436.563477,732.122559,1437.359375,732.441406C1437.665405,732.549683,1437.976074,732.644104,1438.292969,732.714844L1438.613281,732.777344C1438.934692,732.831848,1439.260132,732.855652,1439.585938,732.863281C1439.963501,732.842529,1440.335693,732.764954,1440.691406,732.636719C1441.078613,732.495667,1441.451538,732.318909,1441.808594,732.113281C1446.294678,729.349609,1450.880737,726.752869,1455.558594,724.328125C1456.351318,722.002014,1457.053711,719.646118,1457.664063,717.265625C1456.950073,717.382935,1456.255615,717.597351,1455.597656,717.898438C1454.763916,718.251831,1453.956909,718.665466,1453.183594,719.136719C1451.195313,720.338623,1449.235352,721.586304,1447.304688,722.878906C1445.690796,723.910156,1443.986816,724.792908,1442.214844,725.519531C1440.915161,726.020691,1439.540771,726.302002,1438.148438,726.34375C1437.85791,726.337036,1437.568237,726.311462,1437.28125,726.265625C1435.437134,725.917969,1433.612915,725.471985,1431.816406,724.929688C1427.28479,723.529846,1422.708252,722.280396,1418.09375,721.183594C1416.522949,720.802368,1414.972656,720.341003,1413.449219,719.800781C1412.462036,719.433838,1411.520996,718.953125,1410.648438,718.363281C1409.702637,717.706299,1408.844238,716.931458,1408.097656,716.054688C1405.632202,713.277222,1403.385864,710.312439,1401.378906,707.1875C1400.714111,706.102173,1400.14978,704.958374,1399.695313,703.769531C1399.414307,702.88031,1399.260132,701.95575,1399.238281,701.023438C1399.171875,698.356689,1399.19519,695.688538,1399.308594,693.023438C1399.362305,691.875305,1399.474854,690.73053,1399.644531,689.59375C1399.802979,688.631165,1400.086548,687.693665,1400.488281,686.804688C1401.04187,685.684204,1401.921997,684.757263,1403.015625,684.152344C1403.927002,683.643372,1404.885986,683.224365,1405.878906,682.902344C1407.310425,682.47345,1408.731567,682.009583,1410.140625,681.511719C1411.008301,681.181213,1411.842163,680.768066,1412.632813,680.28125C1413.260986,679.88031,1413.783325,679.333252,1414.148438,678.683594L1414.3125,678.34375C1414.41333,678.109131,1414.489136,677.86499,1414.550781,677.617188C1414.848145,676.19989,1414.856812,674.737488,1414.578125,673.316406C1414.238159,671.80127,1413.389282,670.448303,1412.171875,669.484375C1411.362061,668.820862,1410.457397,668.282776,1409.488281,667.886719C1408.031372,667.27832,1406.524414,666.797485,1404.984375,666.449219C1403.466064,666.058289,1401.972412,665.577209,1400.511719,665.007813C1400.001099,664.739319,1399.524536,664.410522,1399.089844,664.03125C1395.550415,661.1922,1392.148071,658.186218,1388.894531,655.023438C1387.822388,653.908508,1386.97998,652.593445,1386.417969,651.152344C1385.961548,649.73999,1385.380249,648.371033,1384.679688,647.0625C1384.532471,646.785217,1384.352173,646.527222,1384.152344,646.285156C1383.947754,646.045593,1383.712769,645.834961,1383.464844,645.640625C1383.200562,645.463928,1382.904541,645.338013,1382.589844,645.292969C1382.484253,645.289917,1382.378906,645.286804,1382.273438,645.28125L1381.992188,645.304688z"/>
    <path transform="matrix(-1,0,0,-1,710.099976,117.5)" style="stroke:#000000;stroke-width:0.05mm;fill:none" d="M1317.503906,700.007813L1317.320313,700.046875L1317.144531,700.105469L1316.976563,700.183594L1316.660156,700.410156C1316.464844,700.578003,1316.295898,700.773376,1316.148438,700.984375C1315.734253,701.74353,1315.358276,702.52301,1315.023438,703.320313C1314.505859,704.440857,1313.923096,705.53009,1313.277344,706.582031C1312.584229,707.624084,1311.683838,708.511963,1310.632813,709.191406C1309.465698,709.928223,1308.230591,710.55127,1306.945313,711.054688C1304.006836,712.239441,1301.042358,713.359619,1298.054688,714.414063C1294.938965,715.544556,1291.90564,716.890137,1288.976563,718.441406C1286.933472,719.572205,1285.012085,720.910217,1283.242188,722.433594C1282.611938,722.948914,1281.968628,723.447754,1281.3125,723.929688L1281.351563,724.078125L1282,725.9375C1282.471802,727.200989,1282.965454,728.456665,1283.480469,729.703125C1284.492798,728.640625,1285.549561,727.621155,1286.648438,726.648438C1288.349487,725.28186,1290.173584,724.07605,1292.097656,723.046875C1295.690186,721.157593,1299.380371,719.4599,1303.152344,717.960938C1307.820068,715.992493,1312.368286,713.751587,1316.773438,711.25C1317.714478,710.711792,1318.62085,710.115112,1319.488281,709.464844C1319.605103,709.368835,1319.712036,709.26178,1319.816406,709.152344C1319.959351,709.006958,1320.078369,708.841431,1320.191406,708.671875C1320.412231,708.296448,1320.546997,707.876099,1320.574219,707.441406C1320.723755,705.846436,1320.710205,704.240784,1320.535156,702.648438C1320.497192,702.425293,1320.43689,702.206055,1320.34375,702L1320.25,701.824219C1319.881348,701.242188,1319.398193,700.742432,1318.828125,700.355469C1318.561768,700.17926,1318.260254,700.060913,1317.945313,700.007813C1317.79834,699.994995,1317.650635,699.991455,1317.503906,700.007813z"/>
    <path transform="matrix(-1,0,0,-1,710.099976,117.5)" style="stroke:#000000;stroke-width:0.05mm;fill:none" d="M1359.910156,602.894531C1358.571045,603.018311,1357.234985,603.170532,1355.902344,603.351563C1355.604248,605.237915,1355.178101,607.101746,1354.625,608.929688C1354.138672,610.448486,1353.646484,611.958862,1353.144531,613.472656C1353.55957,614.752808,1353.950317,616.040955,1354.316406,617.335938C1354.69751,618.6604,1355.01123,620.003418,1355.257813,621.359375C1355.312988,621.614258,1355.383057,621.865662,1355.464844,622.113281C1356.468262,624.917297,1357.759033,627.609985,1359.316406,630.148438C1359.629028,630.630737,1359.980835,631.086243,1360.367188,631.511719L1360.574219,631.675781C1360.787842,631.83313,1361.009277,631.97937,1361.238281,632.113281C1362.484985,632.81134,1363.773926,633.43103,1365.097656,633.96875C1367.670288,635.13623,1370.175537,636.446838,1372.601563,637.894531L1377.078125,640.585938L1379.542969,639.984375C1381.359619,639.565674,1383.217773,639.354065,1385.082031,639.351563C1385.617188,639.365173,1386.150757,639.413879,1386.679688,639.496094C1387.723633,639.673706,1388.64502,640.280457,1389.222656,641.167969C1389.716553,641.931885,1390.105957,642.758484,1390.382813,643.625C1390.805908,644.980347,1391.292236,646.315002,1391.839844,647.625C1392.463867,649.016968,1393.321045,650.291931,1394.371094,651.398438C1395.235962,652.369019,1396.151611,653.293213,1397.113281,654.167969C1398.665283,655.681824,1400.336182,657.068909,1402.109375,658.316406C1403.390259,659.18335,1404.787109,659.86499,1406.257813,660.34375C1408.000977,660.823975,1409.732178,661.347595,1411.449219,661.914063C1412.807983,662.388428,1414.106689,663.01947,1415.320313,663.792969C1417.05127,664.960449,1418.415039,666.595825,1419.253906,668.507813C1420.146362,670.446716,1420.680908,672.531067,1420.832031,674.660156C1420.991211,676.338135,1420.942993,678.029297,1420.6875,679.695313C1420.357666,681.446411,1419.417236,683.022766,1418.039063,684.152344C1416.678101,685.135986,1415.222778,685.981995,1413.695313,686.679688C1412.976563,687.059082,1412.216187,687.353577,1411.429688,687.558594L1411.199219,687.574219C1410.519409,687.763184,1409.858154,688.013611,1409.222656,688.320313C1408.428711,688.630493,1407.688477,689.063477,1407.027344,689.601563C1406.586548,689.993958,1406.245117,690.486023,1406.039063,691.039063C1405.781982,691.783691,1405.643921,692.564087,1405.625,693.351563C1405.513794,695.88324,1405.602417,698.4198,1405.890625,700.9375C1406.141602,702.579346,1406.742554,704.148193,1407.65625,705.535156C1409.012939,707.531738,1410.536621,709.409607,1412.210938,711.148438C1413.434814,712.354736,1414.878784,713.315063,1416.464844,713.976563C1417.897705,714.555359,1419.366943,715.039673,1420.863281,715.425781C1424.957031,716.466797,1429.035034,717.572632,1433.09375,718.742188C1434.481689,719.136597,1435.891602,719.448242,1437.316406,719.675781C1437.825684,719.732056,1438.339966,719.725159,1438.847656,719.65625C1439.918457,719.451477,1440.955933,719.09967,1441.929688,718.609375C1443.859253,717.670898,1445.690186,716.541809,1447.394531,715.238281C1448.650757,714.3302,1449.946045,713.477417,1451.277344,712.683594C1452.234863,712.142456,1453.240234,711.690735,1454.28125,711.335938C1455.828003,710.862488,1457.448853,710.680054,1459.0625,710.792969C1459.388062,709.010925,1459.652954,707.218201,1459.855469,705.417969C1458.137817,705.277832,1456.41272,705.250427,1454.691406,705.335938C1453.359375,705.425537,1452.060059,705.791687,1450.878906,706.414063C1450.094482,706.811401,1449.345215,707.274719,1448.640625,707.800781C1447.359131,708.767212,1446.070557,709.722656,1444.773438,710.667969C1443.636597,711.465698,1442.433228,712.164246,1441.175781,712.753906C1439.538574,713.465454,1437.753174,713.769348,1435.972656,713.640625C1434.62146,713.562622,1433.280762,713.355835,1431.96875,713.023438C1428.395142,712.13446,1424.860474,711.094421,1421.375,709.90625C1420.231934,709.511719,1419.111572,709.054321,1418.019531,708.535156C1416.585938,707.819458,1415.295654,706.846863,1414.214844,705.664063C1412.686157,703.828125,1411.595215,701.668213,1411.027344,699.347656C1410.674438,697.800537,1410.745361,696.186768,1411.242188,694.679688C1411.558105,693.85553,1412.088379,693.130798,1412.773438,692.574219C1413.225464,692.188354,1413.720581,691.855957,1414.25,691.585938C1415.54834,690.925903,1416.904053,690.385559,1418.300781,689.972656C1419.452271,689.603943,1420.558228,689.105896,1421.597656,688.488281C1422.917725,687.640137,1424.019531,686.492249,1424.816406,685.140625C1425.178223,684.567505,1425.500122,683.970032,1425.777344,683.351563C1426.025269,682.898682,1426.223755,682.420044,1426.359375,681.921875L1426.386719,681.746094C1426.452637,680.934326,1426.425537,680.11792,1426.304688,679.3125C1425.820313,675.798096,1425.266846,672.293518,1424.644531,668.800781C1424.309692,667.141846,1423.741089,665.538879,1422.957031,664.039063C1421.717896,661.813293,1419.792969,660.046753,1417.46875,659.003906C1416.721069,658.652405,1415.958374,658.333679,1415.183594,658.046875C1413.628418,657.475098,1412.069458,656.918091,1410.503906,656.375C1407.522095,655.26886,1404.710815,653.748535,1402.152344,651.859375C1401.373535,651.264465,1400.635986,650.617188,1399.945313,649.921875C1398.293091,648.111816,1396.882935,646.095032,1395.75,643.921875C1395.230347,642.874634,1394.881348,641.750916,1394.714844,640.59375C1394.532104,638.836487,1395.175537,637.095154,1396.457031,635.878906C1396.728882,635.628601,1397.022583,635.403015,1397.335938,635.207031C1398.455688,634.5448,1399.62915,633.977661,1400.84375,633.511719C1401.953369,633.0755,1403.00708,632.508789,1403.980469,631.820313L1404.511719,631.398438C1404.630859,631.280884,1404.733643,631.148438,1404.824219,631.007813C1405.136597,630.300171,1405.388916,629.567383,1405.574219,628.816406C1406.274414,626.220642,1406.880493,623.600647,1407.390625,620.960938C1407.854736,618.601196,1408.391479,616.256409,1409,613.929688C1409.241455,613.345337,1409.390259,612.727173,1409.449219,612.097656C1407.272461,611.004028,1405.04895,610.005371,1402.785156,609.105469C1402.846436,610.604858,1402.882935,612.10498,1402.894531,613.605469C1402.902344,616.075195,1402.661255,618.539368,1402.175781,620.960938C1401.893555,622.303955,1401.488159,623.618103,1400.964844,624.886719C1400.692383,625.499939,1400.356079,626.082703,1399.960938,626.625C1397.973389,629.235291,1395.503052,631.439514,1392.683594,633.117188C1391.147339,633.978455,1389.437256,634.484253,1387.679688,634.597656C1385.828735,634.680359,1383.974243,634.63855,1382.128906,634.472656C1379.173462,634.302979,1376.269775,633.622375,1373.546875,632.460938C1371.860474,631.733826,1370.225098,630.893494,1368.652344,629.945313C1367.241943,629.093201,1365.924438,628.096069,1364.722656,626.96875C1362.480225,624.784363,1360.894531,622.015869,1360.144531,618.976563C1359.627563,617.159668,1359.419556,615.268738,1359.527344,613.382813C1359.651855,611.682739,1359.881714,609.992004,1360.214844,608.320313C1360.542725,606.652283,1360.860229,604.984314,1361.167969,603.3125L1361.25,602.785156L1359.910156,602.894531z"/>
    <path transform="matrix(-1,0,0,-1,710.099976,117.5)" style="stroke:#000000;stroke-width:0.05mm;fill:none" d="M1305.226563,645.535156C1304.477661,645.605774,1303.775513,645.934326,1303.246094,646.46875C1303.06897,646.647583,1302.907715,646.841736,1302.773438,647.054688C1302.348633,647.707092,1302.166504,648.490112,1302.269531,649.261719C1302.394409,650.280396,1302.993408,651.182495,1303.886719,651.6875C1304.974854,652.31897,1306.135864,652.815857,1307.34375,653.167969C1308.454956,653.479858,1309.525024,653.922974,1310.53125,654.488281C1310.946045,654.735596,1311.317871,655.05011,1311.621094,655.425781C1312.149048,656.041382,1312.466797,656.809082,1312.535156,657.617188C1312.583618,657.953613,1312.592896,658.294678,1312.558594,658.632813C1312.459106,659.892273,1312.209351,661.135193,1311.816406,662.335938C1311.418091,663.758789,1310.896606,665.144226,1310.257813,666.476563C1309.830811,667.312439,1309.228882,668.046326,1308.496094,668.632813C1307.707153,669.188965,1306.809814,669.572327,1305.863281,669.761719C1304.535522,670.035889,1303.187012,670.198486,1301.832031,670.246094C1300.473877,670.369263,1299.107178,670.36322,1297.75,670.230469C1296.826538,670.114502,1295.940552,669.795776,1295.152344,669.300781C1294.349854,668.766602,1293.630615,668.117371,1293.015625,667.375C1291.635254,665.711792,1290.270996,664.036438,1288.921875,662.347656C1287.880615,661.062439,1286.803223,659.806763,1285.691406,658.582031C1285.262573,658.150269,1284.800659,657.752625,1284.308594,657.394531C1283.418457,659.375366,1282.605469,661.389893,1281.871094,663.433594C1282.786865,663.812256,1283.637451,664.33252,1284.390625,664.976563C1286.375366,666.683716,1288.108276,668.663147,1289.539063,670.855469C1290.247192,671.974976,1290.638794,673.265442,1290.664063,674.589844C1290.704834,675.451477,1290.699585,676.314697,1290.648438,677.175781C1290.557739,679.450256,1290.470825,681.763794,1290.390625,684.039063C1290.331421,685.332458,1290.417847,686.628357,1290.648438,687.902344C1291.135742,689.858521,1291.758545,691.778442,1292.511719,693.648438L1292.722656,694.101563C1292.962158,694.544189,1293.281982,694.937988,1293.664063,695.265625L1294.003906,695.464844C1294.356689,695.646606,1294.741577,695.757141,1295.136719,695.792969C1296.316162,695.860168,1297.499146,695.822144,1298.671875,695.679688C1299.58667,695.604919,1300.504028,695.565674,1301.421875,695.5625C1301.617798,695.573364,1301.812866,695.597778,1302,695.65625C1302.384033,695.770569,1302.729858,695.984802,1303.011719,696.269531C1303.531738,696.719604,1303.937744,697.287476,1304.183594,697.929688C1304.456299,698.640686,1304.482544,699.422363,1304.265625,700.152344C1303.947998,701.062927,1303.310425,701.826965,1302.472656,702.304688C1302.223022,702.420044,1301.954224,702.489441,1301.679688,702.503906C1300.968262,702.516479,1300.256836,702.479126,1299.550781,702.390625C1297.887329,702.176819,1296.215088,702.038757,1294.539063,701.976563C1293.96936,701.974731,1293.405273,702.08667,1292.878906,702.304688L1292.5625,702.472656C1292.360107,702.606201,1292.168213,702.755066,1291.992188,702.921875C1291.35022,703.572083,1290.721191,704.234924,1290.105469,704.910156C1289.426025,705.647522,1288.639526,706.278809,1287.769531,706.777344C1286.924438,707.188904,1286.013306,707.447876,1285.078125,707.542969C1284.040894,707.637207,1283.005371,707.751892,1281.972656,707.886719C1281.25415,707.986084,1280.547485,708.15741,1279.863281,708.398438C1279.780396,708.4505,1279.697754,708.502869,1279.617188,708.558594C1278.982178,709.098877,1278.393677,709.691345,1277.855469,710.328125C1278.265991,712.668579,1278.762329,714.99292,1279.34375,717.296875C1280.651611,716.076782,1282.095215,715.010864,1283.644531,714.117188C1285.693726,712.891541,1287.81897,711.797791,1290.007813,710.84375C1292.963989,709.510498,1295.999756,708.361267,1299.097656,707.402344C1300.793457,706.873291,1302.469116,706.281921,1304.121094,705.628906C1304.753784,705.35968,1305.37793,705.070679,1305.992188,704.761719C1307.733521,703.606384,1309.136108,702.009827,1310.0625,700.136719C1310.199585,699.839966,1310.321533,699.536377,1310.425781,699.226563C1310.495728,698.996948,1310.535889,698.759338,1310.546875,698.519531C1310.551636,698.358948,1310.549194,698.198181,1310.527344,698.039063L1310.484375,697.800781L1310.425781,697.566406C1310.141846,696.779907,1309.654907,696.083313,1309.023438,695.535156C1308.197876,694.769836,1307.273438,694.118347,1306.273438,693.601563C1305.105347,692.972168,1303.887695,692.439209,1302.632813,692.007813C1301.212402,691.50824,1299.836304,690.890381,1298.519531,690.160156C1297.702271,689.682129,1297.003174,689.026428,1296.472656,688.242188C1296.046021,687.561035,1295.759033,686.801575,1295.632813,686.007813C1295.264648,683.938232,1295.143555,681.832642,1295.269531,679.734375C1295.297852,679.350403,1295.3479,678.968445,1295.417969,678.589844C1295.578491,677.829224,1295.944946,677.128723,1296.464844,676.550781C1297.074585,675.977478,1297.8125,675.558289,1298.617188,675.328125C1299.782227,674.96344,1300.978882,674.708374,1302.191406,674.566406C1303.875366,674.299744,1305.576538,674.156311,1307.28125,674.136719C1309.114014,674.156555,1310.899048,674.722351,1312.414063,675.753906C1312.907837,676.067688,1313.380493,676.413147,1313.832031,676.785156C1314.776001,677.550903,1315.706909,678.332214,1316.625,679.128906C1318.076904,680.372742,1319.668335,681.44342,1321.367188,682.320313C1323.292969,683.228882,1325.437134,683.570374,1327.550781,683.3125C1328.879395,683.15155,1330.19165,682.875671,1331.472656,682.488281C1333.91333,681.745056,1336.316162,680.882202,1338.671875,679.902344C1339.463867,679.581848,1340.203125,679.143982,1340.863281,678.601563L1341.007813,678.457031C1341.190674,678.254639,1341.344482,678.027893,1341.460938,677.78125C1341.516968,677.65448,1341.561279,677.523193,1341.601563,677.390625C1341.654541,677.142639,1341.682007,676.890198,1341.6875,676.636719C1341.696411,676.144409,1341.639404,675.65332,1341.519531,675.175781C1341.075317,673.378967,1340.516968,671.612366,1339.847656,669.886719C1339.559326,669.152344,1339.217896,668.43988,1338.828125,667.753906C1338.230469,666.72467,1337.383179,665.863342,1336.363281,665.25C1335.816895,664.938171,1335.232788,664.697571,1334.625,664.535156C1333.39624,664.218872,1332.138428,664.029114,1330.871094,663.96875C1329.103638,663.881592,1327.335571,663.819092,1325.566406,663.78125C1324.980225,663.77655,1324.394775,663.821899,1323.816406,663.917969C1323.50708,663.983948,1323.221191,664.130188,1322.984375,664.339844C1322.373657,664.821045,1321.895142,665.450378,1321.605469,666.171875C1321.27417,667.023193,1321.327881,667.977051,1321.753906,668.785156L1321.929688,669.082031L1322.136719,669.359375C1322.960693,670.265625,1324.119263,670.796326,1325.34375,670.824219C1326.765137,670.840332,1328.178589,670.612488,1329.523438,670.152344C1329.95166,670.005859,1330.385254,669.875427,1330.824219,669.765625C1331.849365,669.526672,1332.908447,669.472961,1333.953125,669.601563C1334.489502,669.680481,1334.997314,669.894287,1335.425781,670.226563C1335.772949,670.508118,1336.054932,670.86145,1336.253906,671.261719C1336.417236,671.57312,1336.530762,671.909058,1336.574219,672.257813C1336.723755,673.424072,1336.350342,674.595581,1335.558594,675.464844C1335.008179,676.107239,1334.246338,676.532471,1333.410156,676.660156C1330.972534,677.081421,1328.504883,677.304016,1326.03125,677.324219C1325.155151,677.295471,1324.283081,677.190674,1323.425781,677.007813C1322.112671,676.621155,1320.858276,676.057861,1319.695313,675.335938C1318.532227,674.691895,1317.474854,673.87323,1316.5625,672.90625C1315.592896,671.807617,1315.029053,670.409607,1314.972656,668.945313C1314.914917,667.879333,1315.037476,666.811279,1315.332031,665.785156C1315.796997,663.859985,1316.512207,662.004089,1317.460938,660.265625C1318.042969,659.333557,1318.917358,658.6203,1319.949219,658.242188C1320.720825,657.991333,1321.519165,657.83197,1322.328125,657.769531C1322.756592,657.72583,1323.186646,657.698486,1323.617188,657.6875C1327.010986,657.619202,1330.406128,657.698792,1333.792969,657.925781C1334.816528,658.005737,1335.834961,658.141418,1336.84375,658.332031C1337.797729,658.530823,1338.710571,658.891724,1339.542969,659.398438C1340.49585,660.063416,1341.338623,660.873657,1342.039063,661.800781C1343.785767,664.139282,1345.265747,666.665588,1346.453125,669.332031C1346.65271,669.819458,1346.825562,670.317383,1346.96875,670.824219C1347.240723,671.985718,1347.413086,673.168335,1347.480469,674.359375C1347.539551,675.339966,1347.718872,676.309631,1348.015625,677.246094C1348.151855,677.612183,1348.367798,677.94342,1348.65625,678.207031C1348.778564,678.297119,1348.905273,678.381104,1349.039063,678.453125C1349.514771,678.65918,1350.028442,678.762207,1350.546875,678.761719C1351.018188,678.779663,1351.489502,678.724915,1351.941406,678.589844L1352.097656,678.527344C1352.524292,678.339905,1352.874023,678.012512,1353.09375,677.601563C1353.370605,677.099854,1353.554443,676.552002,1353.632813,675.984375C1353.920166,674.008484,1353.93396,672.002808,1353.671875,670.023438C1353.525635,668.977661,1353.038452,668.009583,1352.289063,667.265625C1351.882813,666.849182,1351.432617,666.477966,1350.945313,666.160156C1349.454468,665.168091,1348.315674,663.729248,1347.691406,662.050781C1347.286133,661.054321,1346.984375,660.018799,1346.789063,658.960938C1346.60083,658.113342,1346.35437,657.279785,1346.054688,656.464844L1345.859375,656.070313C1345.71228,655.816284,1345.539429,655.578125,1345.34375,655.359375L1345.222656,655.25C1344.836548,654.998413,1344.40979,654.815186,1343.960938,654.710938C1340.947266,653.82489,1337.879761,653.13324,1334.777344,652.640625C1333.117188,652.425903,1331.442993,652.339722,1329.769531,652.382813C1326.860962,652.469482,1323.947998,652.562256,1321.039063,652.660156C1319.855103,652.68335,1318.670776,652.638306,1317.492188,652.523438C1316.544312,652.412537,1315.625732,652.12384,1314.785156,651.671875C1313.831421,651.121643,1312.934082,650.479004,1312.105469,649.753906C1310.759644,648.59436,1309.355591,647.504517,1307.898438,646.488281C1307.463257,646.183411,1307.004028,645.914124,1306.523438,645.6875L1306.328125,645.617188L1306.125,645.566406C1305.828735,645.511414,1305.526001,645.501831,1305.226563,645.535156z"/>
    <path transform="matrix(-1,0,0,-1,710.099976,117.5)" style="stroke:#000000;stroke-width:0.05mm;fill:none" d="M1304.640625,680.105469C1303.450195,680.180786,1302.347534,680.75824,1301.609375,681.695313C1301.447144,681.953003,1301.340454,682.241577,1301.296875,682.542969C1301.285278,682.749023,1301.304688,682.955322,1301.351563,683.15625C1301.436401,683.46991,1301.576294,683.766052,1301.769531,684.027344C1302.021118,684.39447,1302.331055,684.717896,1302.6875,684.984375C1303.731567,685.788452,1304.906616,686.405884,1306.160156,686.8125C1306.761963,687.02655,1307.370605,687.221497,1307.984375,687.398438C1309.270874,687.791748,1310.456909,688.459534,1311.457031,689.359375C1312.015137,689.857605,1312.547241,690.384155,1313.050781,690.9375C1313.829224,691.750732,1314.661743,692.510376,1315.542969,693.210938C1315.961304,693.510925,1316.421631,693.747925,1316.910156,693.910156C1317.684082,694.110352,1318.482178,694.19989,1319.28125,694.175781C1320.387207,694.14209,1321.493408,694.235229,1322.578125,694.453125C1323.265747,694.608032,1323.915405,694.897339,1324.496094,695.296875C1325.275879,695.938049,1325.828491,696.812805,1326.070313,697.792969C1326.371704,699.025208,1326.518188,700.290039,1326.511719,701.558594C1326.488525,702.830505,1326.490967,704.103149,1326.519531,705.375C1326.533569,706.134766,1326.637207,706.890503,1326.832031,707.625L1326.902344,707.8125L1326.976563,708L1327.0625,708.167969C1327.140259,708.285278,1327.224609,708.397888,1327.3125,708.507813L1327.488281,708.679688C1327.61853,708.779541,1327.760742,708.862,1327.910156,708.929688C1328.510132,709.116333,1329.138184,709.196472,1329.765625,709.164063C1330.672485,709.164856,1331.544189,708.82135,1332.214844,708.210938C1332.89856,707.631775,1333.44104,706.90448,1333.796875,706.082031C1333.820068,706.010071,1333.837524,705.936646,1333.855469,705.863281L1333.859375,705.75C1333.850464,705.638794,1333.828125,705.52887,1333.785156,705.425781C1333.336914,704.333801,1332.758423,703.299988,1332.066406,702.34375C1331.588867,701.627136,1331.163696,700.876892,1330.796875,700.097656C1330.53418,699.491638,1330.393677,698.840088,1330.382813,698.179688C1330.401001,697.085327,1330.794189,696.031128,1331.496094,695.191406C1331.937134,694.745178,1332.444458,694.369812,1333,694.078125C1334.022461,693.538147,1335.078125,693.063721,1336.160156,692.65625C1337.545898,692.077209,1338.963623,691.577759,1340.40625,691.160156C1342.634521,690.558777,1344.977783,690.52655,1347.222656,691.0625C1348.229492,691.275757,1349.232178,691.507324,1350.230469,691.757813C1350.661865,691.847656,1351.104126,691.87207,1351.542969,691.832031C1351.865479,691.747681,1352.17041,691.608398,1352.449219,691.425781C1352.686279,691.286804,1352.902344,691.115173,1353.097656,690.921875L1353.199219,690.800781L1353.289063,690.679688C1353.368164,690.54541,1353.433228,690.403564,1353.488281,690.257813C1353.813599,688.838684,1353.656006,687.353577,1353.046875,686.03125C1352.849854,685.721497,1352.589233,685.457703,1352.289063,685.246094C1351.61145,684.81311,1350.858154,684.512634,1350.070313,684.351563C1347.683838,683.865356,1345.210571,684.032104,1342.910156,684.832031C1340.216797,685.887024,1337.527832,686.96051,1334.847656,688.050781C1333.717163,688.507385,1332.573242,688.930725,1331.417969,689.320313C1330.220459,689.693909,1328.976685,689.898987,1327.722656,689.929688C1326.631958,689.968811,1325.540161,689.971252,1324.449219,689.9375C1323.357178,689.890747,1322.280029,689.666626,1321.261719,689.269531C1319.523071,688.568054,1317.861938,687.688538,1316.304688,686.644531C1315.147339,685.891724,1314.033447,685.074341,1312.96875,684.195313C1311.89502,683.346924,1310.783325,682.547913,1309.636719,681.800781C1308.710693,681.226135,1307.726318,680.751282,1306.699219,680.386719C1306.035767,680.169128,1305.338135,680.075256,1304.640625,680.105469z"/>
    <path transform="matrix(-1,0,0,-1,710.099976,117.5)" style="stroke:#000000;stroke-width:0.05mm;fill:none" d="M1450.136719,693.695313C1449.227295,693.684692,1448.318359,693.742798,1447.417969,693.871094C1446.716919,694.072266,1446.009521,694.250854,1445.296875,694.40625C1444.928589,694.561462,1444.584106,694.769348,1444.289063,695.039063C1443.529907,695.780273,1442.865356,696.612488,1442.308594,697.515625C1441.809082,698.237183,1441.251221,698.916565,1440.640625,699.546875C1439.344604,700.805847,1437.622681,701.533997,1435.816406,701.578125C1433.963745,701.705261,1432.102661,701.542725,1430.300781,701.09375C1429.094116,700.735229,1427.974976,700.128784,1427.023438,699.304688C1426.003784,698.401794,1425.037109,697.440735,1424.128906,696.425781C1423.734741,696.013916,1423.297974,695.645203,1422.824219,695.328125C1422.639893,695.242615,1422.447021,695.177979,1422.25,695.128906C1421.146362,695.065186,1420.052246,695.373657,1419.152344,696.015625C1418.498657,696.424194,1417.967896,697.001343,1417.601563,697.679688C1417.524414,697.837036,1417.470093,698.004333,1417.433594,698.175781C1417.362549,698.913208,1417.553467,699.6521,1417.96875,700.265625C1418.383057,700.845093,1418.89502,701.348083,1419.480469,701.753906C1420.58667,702.509888,1421.775391,703.137634,1423.023438,703.625C1426.258667,704.926758,1429.580566,706.002319,1432.964844,706.84375C1433.952637,707.07135,1434.959595,707.205811,1435.972656,707.242188C1437.365479,707.257935,1438.737061,706.900146,1439.945313,706.207031C1441.422852,705.338257,1442.809448,704.323486,1444.085938,703.179688C1445.457153,702.050171,1446.920654,701.037598,1448.460938,700.152344C1449.03833,699.833191,1449.662109,699.607422,1450.308594,699.476563C1451.302124,699.275879,1452.311035,699.159851,1453.324219,699.128906C1455.675903,698.997009,1458.033813,699.018127,1460.382813,699.191406C1460.462769,697.507751,1460.503174,695.822266,1460.503906,694.136719C1457.058228,693.81012,1453.597778,693.662781,1450.136719,693.695313z"/>
    <path transform="matrix(-1,0,0,-1,710.099976,117.5)" style="stroke:#000000;stroke-width:0.05mm;fill:none" d="M1302.265625,632.070313C1302.123535,632.087402,1301.98291,632.114868,1301.84375,632.148438C1301.705933,632.180298,1301.571655,632.225891,1301.441406,632.28125C1301.03833,632.454163,1300.662842,632.685303,1300.328125,632.96875C1300.062256,633.171265,1299.816406,633.398499,1299.585938,633.640625C1297.647827,635.64801,1295.94751,637.872314,1294.519531,640.269531C1292.871948,642.932983,1291.393555,645.69751,1290.09375,648.546875C1289.686768,649.453735,1289.343994,650.388123,1289.070313,651.34375L1289.027344,651.589844C1289.014893,651.755005,1289.015137,651.920593,1289.023438,652.085938L1289.058594,652.328125C1289.095337,652.489807,1289.143677,652.648499,1289.199219,652.804688C1289.560425,653.559998,1290.032471,654.25708,1290.601563,654.871094C1291.963257,656.396851,1293.316528,657.935303,1294.65625,659.480469C1295.334473,660.326233,1296.032715,661.155884,1296.75,661.96875C1297.503296,662.79248,1298.428223,663.441406,1299.464844,663.855469C1300.900879,664.385925,1302.484497,664.350098,1303.894531,663.753906L1304.164063,663.605469C1304.600464,663.330627,1304.973755,662.968079,1305.265625,662.542969C1305.764282,661.70459,1305.856812,660.687622,1305.527344,659.769531L1305.40625,659.515625C1305.067505,658.972412,1304.570801,658.545959,1303.984375,658.289063C1303.198853,657.915649,1302.388062,657.597717,1301.558594,657.335938C1300.30896,656.955994,1299.124512,656.38855,1298.042969,655.65625C1296.810913,654.785095,1295.976807,653.458069,1295.734375,651.96875C1295.415039,650.037231,1295.702515,648.05365,1296.558594,646.292969C1297.380127,644.43396,1298.442749,642.691223,1299.71875,641.109375C1300.401367,640.322083,1301.231445,639.675903,1302.164063,639.210938C1303.241943,638.721069,1304.443237,638.57251,1305.609375,638.777344C1306.700562,638.954895,1307.756836,639.303711,1308.738281,639.8125C1310.020508,640.433716,1311.24292,641.171387,1312.390625,642.015625C1313.259521,642.653015,1314.124268,643.296326,1314.984375,643.945313C1315.912231,644.646179,1316.900635,645.262817,1317.9375,645.789063C1318.104858,645.842712,1318.274414,645.889343,1318.449219,645.910156C1319.217529,646.028076,1319.992554,646.098755,1320.769531,646.121094C1323.140991,646.210144,1325.51416,646.230957,1327.886719,646.183594C1331.531616,646.159424,1335.173096,646.40625,1338.78125,646.921875C1340.931885,647.269409,1343.047974,647.803589,1345.105469,648.519531C1345.772095,648.75177,1346.464844,648.901855,1347.167969,648.964844C1347.756836,648.982788,1348.344116,648.889954,1348.894531,648.679688C1349.723633,648.308594,1350.497314,647.82428,1351.191406,647.238281C1352.545166,646.112061,1354.109375,645.266541,1355.792969,644.75C1358.490234,643.98645,1361.385864,644.419006,1363.742188,645.9375C1365.127563,646.797607,1366.312988,647.943542,1367.222656,649.296875C1368.145386,650.771667,1368.533691,652.518555,1368.328125,654.246094C1368.243896,655.219543,1368.053345,656.180725,1367.761719,657.113281C1367.342285,658.692383,1366.690186,660.2005,1365.824219,661.585938C1365.110229,662.652588,1364.295288,663.648071,1363.390625,664.558594C1362.351074,665.602173,1361.302734,666.641418,1360.25,667.671875L1360.25,671.878906C1360.249634,672.895447,1360.214355,673.911621,1360.144531,674.925781C1360.036255,676.144348,1359.75293,677.340698,1359.308594,678.480469C1358.954224,679.307983,1358.709839,680.17865,1358.585938,681.070313C1358.465698,682.067871,1358.557007,683.07959,1358.855469,684.039063C1359.341675,685.315186,1359.635986,686.656921,1359.726563,688.019531C1359.866211,689.620361,1359.815063,691.232178,1359.570313,692.820313C1359.48291,693.293274,1359.360229,693.758911,1359.207031,694.214844C1358.937378,694.880127,1358.541382,695.487183,1358.039063,696C1357.36499,696.794617,1356.519043,697.425598,1355.566406,697.847656C1355.258179,697.963867,1354.934326,698.03302,1354.605469,698.050781C1354.104736,698.108765,1353.599243,698.112061,1353.097656,698.0625C1349.917603,697.837952,1346.763916,697.604797,1343.585938,697.359375C1342.37207,697.258911,1341.149902,697.341003,1339.960938,697.605469C1339.42395,697.752686,1338.93103,698.027344,1338.519531,698.402344L1338.34375,698.589844C1338.171265,698.783081,1338.024048,698.998169,1337.917969,699.234375C1337.637085,699.781799,1337.50354,700.392944,1337.527344,701.007813C1337.579834,701.875244,1337.967285,702.687805,1338.609375,703.273438C1338.708984,703.335205,1338.814087,703.38739,1338.921875,703.433594C1340.289673,703.871094,1341.736328,704.003784,1343.160156,703.816406L1343.28125,703.789063C1343.35083,703.765686,1343.421021,703.744812,1343.488281,703.714844C1343.531616,703.690735,1343.575073,703.667114,1343.617188,703.640625L1343.65625,703.609375L1343.742188,703.585938L1343.832031,703.566406C1344.427368,703.490601,1345.025513,703.437744,1345.625,703.410156C1347.545654,703.281494,1349.469849,703.200745,1351.394531,703.167969C1353.540405,703.100891,1355.683472,702.962708,1357.820313,702.753906C1359.10437,702.606628,1360.373169,702.348389,1361.613281,701.984375C1362.126221,701.80957,1362.602905,701.542542,1363.015625,701.191406C1363.094238,701.112976,1363.168091,701.029785,1363.230469,700.9375C1363.401611,700.646729,1363.525635,700.330444,1363.59375,700C1363.890381,698.643921,1364.097656,697.269897,1364.214844,695.886719C1364.64502,691.465881,1364.86792,687.027649,1364.882813,682.585938C1364.914917,680.86676,1364.99292,679.14856,1365.117188,677.433594C1365.238647,675.99707,1365.451294,674.569702,1365.753906,673.160156C1366.537109,669.955078,1367.877686,666.912415,1369.714844,664.171875C1370.451294,663.025085,1371.274536,661.936401,1372.175781,660.914063C1372.692261,660.312561,1373.180176,659.687195,1373.636719,659.039063C1374.129028,658.279907,1374.333862,657.36908,1374.210938,656.472656C1374.125732,655.664429,1373.963379,654.866028,1373.722656,654.089844C1373.25293,652.250122,1373.011475,650.35968,1373.003906,648.460938C1373.007813,647.817932,1372.925293,647.177551,1372.765625,646.554688C1372.56543,645.934265,1372.208252,645.377258,1371.734375,644.929688C1370.990479,644.26532,1370.176147,643.684387,1369.304688,643.199219C1366.707642,641.742432,1364.064087,640.36908,1361.378906,639.082031C1360.551514,638.702881,1359.699219,638.380859,1358.828125,638.117188L1358.578125,638.0625C1358.411621,638.030518,1358.243164,638.010498,1358.074219,637.996094C1357.421875,637.948364,1356.769653,638.084839,1356.191406,638.390625C1355.475586,638.810303,1354.798096,639.292114,1354.167969,639.832031C1352.099976,641.494507,1349.52832,642.406372,1346.875,642.421875C1344.679443,642.423828,1342.487305,642.247498,1340.320313,641.894531C1335.904785,641.203857,1331.441895,640.858093,1326.972656,640.859375C1325.829712,640.850037,1324.687866,640.78772,1323.550781,640.671875C1321.648438,640.456848,1319.790039,639.953552,1318.039063,639.179688C1316.900146,638.674194,1315.796143,638.093445,1314.734375,637.441406C1311.43103,635.43689,1307.935791,633.767212,1304.300781,632.457031C1303.781982,632.276978,1303.24646,632.150085,1302.703125,632.070313C1302.557373,632.065186,1302.411499,632.066772,1302.265625,632.070313z"/>
    <path transform="matrix(-1,0,0,-1,710.099976,117.5)" style="stroke:#000000;stroke-width:0.05mm;fill:none" d="M1379.53125,662.960938L1379.347656,662.976563C1379.044922,663.021606,1378.750366,663.109863,1378.472656,663.238281C1377.839844,663.581421,1377.29126,664.059937,1376.855469,664.632813C1375.975708,665.790588,1375.196899,667.021667,1374.527344,668.3125C1373.824341,669.560974,1373.208862,670.856812,1372.6875,672.191406C1372.230835,673.546326,1371.920776,674.946228,1371.761719,676.367188C1371.5,678.899048,1371.334595,681.439941,1371.265625,683.984375C1371.1521,687.703125,1370.903442,691.416565,1370.519531,695.117188C1370.366211,696.264404,1370.140503,697.400818,1369.84375,698.519531C1369.741699,698.97998,1369.690552,699.450256,1369.6875,699.921875C1369.703003,700.034302,1369.719604,700.146606,1369.742188,700.257813L1369.800781,700.410156L1369.847656,700.566406C1370.119263,701.188965,1370.605225,701.692627,1371.214844,701.992188C1372.189941,702.459656,1373.311646,702.52124,1374.328125,702.152344C1374.847046,701.937134,1375.356689,701.700073,1375.855469,701.441406C1375.97998,698.304993,1376.109863,695.224731,1376.25,692.089844C1376.439087,687.928589,1376.809082,683.777405,1377.359375,679.648438C1377.570557,677.885498,1377.725586,676.116577,1377.824219,674.34375C1377.803223,673.570679,1377.830078,672.796936,1377.90625,672.027344C1377.938965,671.820374,1377.984985,671.61554,1378.054688,671.417969C1378.151489,671.152283,1378.281982,670.899902,1378.449219,670.671875C1378.988281,669.922546,1379.702759,669.3172,1380.527344,668.902344C1381.187744,668.600281,1381.946045,668.592407,1382.613281,668.878906C1383.294922,669.171875,1383.898926,669.618408,1384.375,670.1875C1384.707275,670.627014,1384.932373,671.137695,1385.03125,671.679688C1385.139038,672.547424,1385.096924,673.427063,1384.910156,674.28125C1384.572998,675.804688,1384.254028,677.332336,1383.953125,678.863281C1383.367065,682.220459,1382.962769,685.606995,1382.742188,689.007813C1382.502441,692.882446,1382.214844,696.749695,1381.878906,700.617188C1381.86731,701.051025,1381.925537,701.483459,1382.039063,701.902344L1382.144531,702.144531L1382.292969,702.363281L1382.472656,702.554688C1382.703857,702.743347,1382.967285,702.889038,1383.253906,702.972656C1384.0177,703.210815,1384.809814,703.34375,1385.609375,703.371094C1385.822754,703.382629,1386.036011,703.362549,1386.246094,703.324219C1386.557861,703.227417,1386.827881,703.031738,1387.027344,702.773438C1387.459106,702.213074,1387.713745,701.537781,1387.761719,700.832031C1387.885498,699.670898,1387.94397,698.503662,1387.9375,697.335938C1387.936157,695.456055,1387.949219,693.578735,1387.976563,691.699219C1388.027832,689.457764,1388.206665,687.22113,1388.511719,685C1388.812866,683.134888,1389.330688,681.311401,1390.054688,679.566406C1390.6521,678.334656,1391.18811,677.074158,1391.660156,675.789063C1391.759033,675.516663,1391.837036,675.237122,1391.894531,674.953125L1391.902344,674.855469C1391.874634,674.645813,1391.826416,674.439575,1391.761719,674.238281C1391.43396,673.470276,1391.015503,672.74408,1390.511719,672.078125C1388.681274,669.554688,1386.546631,667.266724,1384.15625,665.265625C1383.448486,664.689575,1382.700562,664.164673,1381.917969,663.695313C1381.292358,663.335144,1380.60791,663.087585,1379.894531,662.976563C1379.774414,662.956848,1379.652954,662.95874,1379.53125,662.960938z"/>
    <path transform="matrix(-1,0,0,-1,710.099976,117.5)" style="stroke:#000000;stroke-width:0.05mm;fill:none" d="M1279.371094,671.632813C1278.855347,673.661255,1278.403564,675.705017,1278.015625,677.761719L1278.015625,678.007813C1278.093872,679.531311,1278.224243,681.051819,1278.40625,682.566406C1278.959961,686.554565,1279.423462,690.553589,1279.796875,694.5625C1279.944458,696.051392,1280.147583,697.53418,1280.40625,699.007813C1280.507935,699.530701,1280.651978,700.044495,1280.839844,700.542969C1280.90271,700.643433,1280.966187,700.743408,1281.035156,700.839844C1281.19104,701.046875,1281.391235,701.214355,1281.613281,701.347656C1281.851685,701.48938,1282.115845,701.583557,1282.390625,701.621094L1282.597656,701.644531C1283.512085,701.650757,1284.409668,701.39386,1285.175781,700.894531C1285.838745,700.530334,1286.404175,700.010315,1286.808594,699.371094C1286.889648,699.217163,1286.958374,699.057312,1287.019531,698.894531L1287.089844,698.640625C1287.244995,697.805969,1287.160278,696.944702,1286.855469,696.152344C1286.577515,695.342224,1286.244995,694.551941,1285.863281,693.785156C1285.010498,691.994446,1284.463867,690.073425,1284.25,688.101563C1284.135132,687.063721,1284.072876,686.020691,1284.0625,684.976563C1284.054688,682.732117,1284.057251,680.50177,1284.070313,678.257813C1284.081787,677.109131,1284.018799,675.960999,1283.882813,674.820313C1283.741821,673.994324,1283.44104,673.203674,1282.992188,672.496094C1282.299927,671.226501,1281.215698,670.214478,1279.902344,669.609375L1279.371094,671.632813z"/>
    <path transform="matrix(-1,0,0,-1,710.099976,117.5)" style="stroke:#000000;stroke-width:0.05mm;fill:none" d="M1431.535156,687.191406L1431.207031,687.230469L1430.972656,687.296875C1430.816406,687.344727,1430.667847,687.41217,1430.519531,687.480469C1429.892212,687.812927,1429.371826,688.314575,1429.003906,688.921875C1428.814209,689.247437,1428.662598,689.593323,1428.550781,689.953125C1428.325928,690.962646,1428.539307,692.019043,1429.136719,692.863281C1429.585815,693.503235,1430.170044,694.03595,1430.847656,694.425781C1431.783203,694.915344,1432.790039,695.254883,1433.832031,695.425781C1434.317383,695.481262,1434.808105,695.411743,1435.261719,695.230469C1435.9198,695.006165,1436.551514,694.710632,1437.144531,694.347656C1437.384033,694.182861,1437.598633,693.985229,1437.789063,693.765625L1438.046875,693.417969L1438.152344,693.230469C1438.20459,693.105774,1438.247314,692.977417,1438.285156,692.847656C1438.33667,692.612793,1438.349243,692.371033,1438.316406,692.132813L1438.265625,691.824219C1438.054321,691.141357,1437.669922,690.523682,1437.144531,690.039063C1436.086426,688.986145,1434.839111,688.142639,1433.46875,687.550781C1433.061646,687.397766,1432.64209,687.280457,1432.214844,687.199219C1431.989868,687.164917,1431.761353,687.166138,1431.535156,687.191406z"/>
    <path transform="matrix(-1,0,0,-1,710.099976,117.5)" style="stroke:#000000;stroke-width:0.05mm;fill:none" d="M1414.835938,616.84375L1414.433594,618.425781L1413.582031,622.207031C1412.906006,625.185181,1412.242188,628.154053,1411.585938,631.136719L1411.539063,631.417969C1411.407593,632.281067,1411.548462,633.163757,1411.945313,633.941406C1412.216064,634.499084,1412.555298,635.02063,1412.953125,635.496094C1414.262085,637.083862,1415.610229,638.639038,1416.996094,640.160156C1417.86377,641.160645,1418.667114,642.214966,1419.402344,643.316406C1419.663086,643.757996,1419.865356,644.23175,1420,644.726563C1420.056396,645.000427,1420.064697,645.282043,1420.023438,645.558594C1419.99646,645.692932,1419.954468,645.823425,1419.910156,645.953125C1419.767456,646.300049,1419.568115,646.620789,1419.320313,646.902344C1418.835083,647.536926,1418.231445,648.071472,1417.542969,648.476563C1417.335083,648.574219,1417.118774,648.653015,1416.894531,648.703125C1416.690308,648.72229,1416.484741,648.722046,1416.28125,648.695313C1415.875977,648.603455,1415.496948,648.421875,1415.167969,648.167969C1414.571655,647.719971,1414.030518,647.202637,1413.558594,646.625C1412.378418,645.211853,1411.274414,643.736816,1410.25,642.207031C1409.356323,640.912476,1408.346924,639.701843,1407.234375,638.589844C1406.819702,638.23938,1406.335205,637.979858,1405.808594,637.847656C1405.714722,637.83728,1405.621704,637.822937,1405.527344,637.824219L1405.378906,637.839844L1405.230469,637.863281C1404.35498,638.117554,1403.53772,638.540771,1402.828125,639.113281C1402.503052,639.399475,1402.239624,639.748779,1402.046875,640.136719C1401.993774,640.278198,1401.946655,640.421875,1401.902344,640.566406L1401.863281,640.792969C1401.835205,641.041016,1401.844482,641.290955,1401.871094,641.539063C1401.887817,641.789307,1401.948486,642.034851,1402.046875,642.265625C1402.37439,643.08136,1402.850098,643.829407,1403.449219,644.472656C1404.221191,645.313843,1405.061768,646.089355,1405.960938,646.792969C1407.88855,648.453796,1410.103027,649.749023,1412.496094,650.613281C1413.620728,651.012817,1414.759277,651.371277,1415.910156,651.6875C1417.238525,652.078918,1418.55188,652.519409,1419.847656,653.007813C1421.177979,653.543884,1422.413452,654.290894,1423.503906,655.222656C1424.904541,656.497009,1426.208008,657.874268,1427.402344,659.34375C1428.591064,660.856201,1429.456665,662.596436,1429.945313,664.457031C1430.43396,666.388977,1430.816162,668.346436,1431.089844,670.320313C1431.457886,673.051392,1431.917725,675.768799,1432.46875,678.46875C1432.590698,678.990784,1432.727539,679.509216,1432.878906,680.023438C1432.922974,680.139771,1432.970215,680.254822,1433.023438,680.367188C1433.270386,680.676575,1433.576538,680.932495,1433.917969,681.132813C1434.633667,681.587341,1435.410156,681.937622,1436.222656,682.179688C1437.294434,682.605469,1438.297485,683.187317,1439.199219,683.90625C1440.194092,684.672913,1441.137451,685.504272,1442.023438,686.394531C1442.504272,686.833008,1443.011108,687.242188,1443.542969,687.617188C1443.772827,687.772644,1444.037476,687.868713,1444.3125,687.90625L1444.625,687.945313C1444.83374,687.953552,1445.042847,687.948853,1445.25,687.921875C1447.636841,687.574097,1450.039551,687.347534,1452.449219,687.242188C1455.065063,687.172729,1457.681274,687.367126,1460.257813,687.824219C1460.126587,685.816895,1459.918213,683.815491,1459.632813,681.824219C1458.91626,681.55481,1458.16272,681.396973,1457.398438,681.351563C1456.098267,681.296448,1454.795776,681.374268,1453.511719,681.585938C1451.751709,681.892151,1449.9729,682.077271,1448.1875,682.140625C1447.105103,682.127197,1446.033081,681.926758,1445.019531,681.546875C1442.116699,680.54187,1439.596069,678.664551,1437.800781,676.171875C1437.317017,675.452881,1436.915771,674.681702,1436.609375,673.871094C1435.629272,671.001465,1435.115601,667.993225,1435.089844,664.960938C1435.10437,663.067139,1435.697754,661.223633,1436.789063,659.675781C1437.341553,658.862061,1437.946777,658.085449,1438.601563,657.351563C1439.349487,656.505066,1440.074951,655.63855,1440.777344,654.753906C1442.232544,652.74884,1443.489746,650.607239,1444.53125,648.359375C1445.064819,647.293213,1445.613037,646.234619,1446.175781,645.183594L1445.964844,644.84375C1445.157227,643.604797,1444.328857,642.379333,1443.480469,641.167969L1443.457031,641.144531L1442.390625,639.679688C1442.160522,640.198547,1441.972656,640.735291,1441.832031,641.285156C1441.553345,642.221375,1441.308716,643.167358,1441.097656,644.121094C1440.782227,645.443298,1440.111694,646.654297,1439.160156,647.625C1438.474365,648.335571,1437.79126,649.05127,1437.113281,649.769531C1436.378418,650.560486,1435.907715,651.561035,1435.777344,652.632813C1435.68811,653.474304,1435.480835,654.29895,1435.160156,655.082031C1435.072998,655.276428,1434.969971,655.46344,1434.851563,655.640625C1434.495117,656.186035,1433.997314,656.62384,1433.410156,656.90625C1432.375,657.343384,1431.192627,657.256287,1430.230469,656.675781L1430.019531,656.53125C1429.139526,655.844482,1428.542114,654.858826,1428.335938,653.761719C1428.153931,652.691528,1427.779663,651.663574,1427.238281,650.722656C1426.829102,650.017029,1426.359985,649.347839,1425.835938,648.722656C1425.237305,647.900085,1424.70752,647.029663,1424.25,646.121094C1423.758789,645.054504,1423.374023,643.942078,1423.097656,642.800781C1422.535889,640.464172,1421.595215,638.235413,1420.3125,636.203125C1419.662354,635.123474,1419.060791,634.015381,1418.507813,632.882813C1418.136719,632.074707,1417.898682,631.211975,1417.800781,630.328125C1417.538574,627.176514,1418.032959,624.008118,1419.242188,621.085938C1419.61377,620.237976,1420.069702,619.429688,1420.601563,618.671875C1418.873291,617.469971,1417.098267,616.336426,1415.28125,615.273438L1414.835938,616.84375z"/>
    <path transform="matrix(-1,0,0,-1,710.099976,117.5)" style="stroke:#000000;stroke-width:0.05mm;fill:none" d="M1449.308594,652.96875C1448.808105,654.057373,1448.252686,655.119995,1447.644531,656.152344C1446.863525,657.448975,1445.947388,658.659241,1444.910156,659.761719C1444.029541,660.645874,1443.244263,661.620239,1442.566406,662.667969C1442.117432,663.337708,1441.760132,664.065002,1441.511719,664.832031C1441.187622,665.840149,1441.094849,666.908386,1441.242188,667.957031C1441.45166,669.6922,1442.049805,671.357605,1442.988281,672.832031C1443.832886,674.096985,1445.124756,674.996094,1446.605469,675.34375C1447.479004,675.565735,1448.381714,675.653442,1449.28125,675.597656C1450.762329,675.551941,1452.235352,675.362366,1453.679688,675.03125C1454.875977,674.765625,1456.095215,674.616333,1457.320313,674.585938C1457.681396,674.587952,1458.038574,674.652893,1458.382813,674.761719C1457.855469,672.366211,1457.231567,669.993286,1456.511719,667.648438C1455.883789,667.5354,1455.235352,667.649658,1454.6875,667.976563C1453.851196,668.482361,1453.061157,669.061035,1452.324219,669.703125C1451.389404,670.426086,1450.280762,670.890076,1449.109375,671.046875C1448.33606,671.101501,1447.565308,670.918823,1446.898438,670.523438C1446.751343,670.409912,1446.608154,670.291382,1446.480469,670.15625C1446.340332,670.005066,1446.214722,669.841492,1446.097656,669.671875C1445.761475,669.134705,1445.578491,668.516296,1445.5625,667.882813C1445.495239,667.140381,1445.631592,666.393372,1445.957031,665.722656C1446.215942,665.268311,1446.572754,664.878601,1446.992188,664.566406C1447.787109,664.015015,1448.659912,663.585449,1449.582031,663.292969C1450.207764,663.066406,1450.819702,662.803345,1451.414063,662.503906C1451.632568,662.38269,1451.837769,662.237854,1452.011719,662.058594L1452.183594,661.878906L1452.335938,661.683594C1452.615601,661.27179,1452.806274,660.807129,1452.910156,660.320313C1453.064575,659.759583,1453.174683,659.1875,1453.238281,658.609375C1452.241699,656.242676,1451.137817,653.922302,1449.929688,651.65625L1449.308594,652.96875z"/>
    <path transform="matrix(-1,0,0,-1,710.099976,117.5)" style="stroke:#000000;stroke-width:0.05mm;fill:none" d="M1358.03125,651.027344C1356.535645,651.146057,1355.116333,651.735291,1353.976563,652.710938C1353.437256,653.118591,1352.993408,653.639465,1352.679688,654.238281L1352.523438,654.648438C1352.388428,655.063843,1352.34021,655.502136,1352.375,655.9375C1352.43689,656.693909,1352.62146,657.435364,1352.929688,658.128906C1353.285889,659.119446,1353.776245,660.056458,1354.386719,660.914063C1354.74585,661.393555,1355.233887,661.761475,1355.792969,661.976563C1356.083008,662.049011,1356.383667,662.064087,1356.679688,662.023438L1356.96875,661.953125C1357.584595,661.71167,1358.129761,661.318848,1358.550781,660.808594C1359.885864,659.419067,1360.891968,657.747803,1361.496094,655.917969C1361.742798,655.120911,1361.802734,654.277832,1361.675781,653.453125L1361.621094,653.222656C1361.531982,652.914917,1361.400757,652.620178,1361.214844,652.359375C1360.712769,651.70697,1359.986206,651.265869,1359.175781,651.121094C1358.800171,651.039185,1358.415283,651.007446,1358.03125,651.027344z"/>
    <path transform="matrix(-1,0,0,-1,710.099976,117.5)" style="stroke:#000000;stroke-width:0.05mm;fill:none" d="M1425.65625,623.078125C1425.147217,623.723572,1424.756958,624.454895,1424.507813,625.238281C1424.180542,626.218018,1424.034668,627.24939,1424.082031,628.28125C1424.150024,629.202759,1424.37207,630.106506,1424.742188,630.953125C1425.298462,632.202515,1425.932617,633.415894,1426.640625,634.585938C1427.697754,636.620972,1428.514771,638.772156,1429.074219,640.996094C1429.384644,642.100525,1429.733765,643.193542,1430.121094,644.273438C1430.341553,644.838257,1430.748291,645.312378,1431.28125,645.601563C1431.402466,645.657654,1431.525146,645.710449,1431.648438,645.761719C1431.772461,645.79248,1431.897705,645.817627,1432.023438,645.839844C1432.145874,645.841797,1432.268433,645.841064,1432.390625,645.832031C1432.577759,645.798767,1432.760742,645.743896,1432.929688,645.65625C1433.050781,645.567444,1433.169434,645.475403,1433.28125,645.375L1433.472656,645.167969C1434.112915,644.361816,1434.62854,643.463928,1435,642.503906C1435.383789,641.639648,1435.639038,640.723755,1435.753906,639.785156C1435.816528,638.692383,1435.471802,637.614136,1434.785156,636.761719C1434.210938,636.03717,1433.546753,635.38855,1432.808594,634.832031C1431.869263,634.0625,1431.123413,633.083923,1430.625,631.976563C1429.931152,630.222351,1429.869019,628.280762,1430.457031,626.488281C1429.006836,625.166138,1427.512573,623.893372,1425.976563,622.671875L1425.65625,623.078125z"/>
    <path transform="matrix(-1,0,0,-1,710.099976,117.5)" style="stroke:#000000;stroke-width:0.05mm;fill:none" d="M1310.921875,622.738281C1309.342041,624.019958,1307.799683,625.347473,1306.296875,626.71875C1306.79834,626.894348,1307.311035,627.036133,1307.832031,627.140625C1308.564453,627.31366,1309.284058,627.536865,1309.984375,627.8125C1311.30896,628.317871,1312.588501,628.934204,1313.808594,629.65625C1315.840698,630.849854,1317.916382,631.968079,1320.03125,633.007813C1321.665527,633.745605,1323.410278,634.209412,1325.195313,634.378906C1326.279053,634.502808,1327.367188,634.587341,1328.457031,634.632813C1331.428589,634.757202,1334.398315,634.935547,1337.363281,635.167969C1338.513306,635.269897,1339.661743,635.387085,1340.808594,635.519531C1342.562988,635.852539,1344.347412,636.001282,1346.132813,635.964844C1348.071533,635.884766,1349.966309,635.362732,1351.671875,634.4375C1352.092773,634.195679,1352.465454,633.878479,1352.769531,633.5L1352.910156,633.28125C1353.040161,633.065125,1353.123657,632.823914,1353.160156,632.574219C1353.229004,632.133728,1353.203857,631.683838,1353.085938,631.253906C1352.816406,630.231445,1352.156372,629.356995,1351.25,628.8125C1351.064697,628.703979,1350.862915,628.628418,1350.65625,628.570313C1350.529907,628.546448,1350.401733,628.536743,1350.273438,628.53125L1350.078125,628.550781C1348.852051,628.780579,1347.655396,629.146423,1346.511719,629.644531C1345.286499,630.104004,1343.977295,630.295837,1342.671875,630.207031C1338.717773,630.062744,1334.768188,629.808716,1330.828125,629.445313C1329.084229,629.275818,1327.348145,629.032166,1325.625,628.714844C1322.658081,628.118896,1319.815552,627.017456,1317.222656,625.457031C1315.415527,624.358582,1313.657471,623.181702,1311.953125,621.929688L1310.921875,622.738281z"/>
    <path transform="matrix(-1,0,0,-1,710.099976,117.5)" style="stroke:#000000;stroke-width:0.05mm;fill:none" d="M1367.625,602.503906C1367.436523,604.289307,1367.15625,606.063782,1366.785156,607.820313C1366.537476,609.041565,1366.344238,610.273193,1366.207031,611.511719C1366.043457,613,1366.030029,614.500916,1366.164063,615.992188C1366.309326,617.130615,1366.622437,618.240967,1367.089844,619.289063C1368.252075,621.618958,1370.09729,623.538635,1372.378906,624.792969C1375.908081,626.844971,1379.847046,628.091187,1383.914063,628.445313C1387.048218,628.65387,1390.133667,627.585693,1392.464844,625.480469C1394.210083,623.813538,1395.440186,621.680725,1396.011719,619.335938C1396.520386,617.416931,1396.742432,615.433228,1396.671875,613.449219C1396.611816,611.221985,1396.484131,608.996887,1396.289063,606.777344C1394.475586,606.19574,1392.642456,605.677246,1390.792969,605.222656C1390.834717,606.197266,1390.906738,607.170349,1391.007813,608.140625C1391.15625,609.851746,1391.240723,611.567749,1391.261719,613.285156C1391.248535,614.516785,1391.141846,615.745667,1390.941406,616.960938C1390.740479,618.134399,1390.322876,619.26001,1389.710938,620.28125C1388.942871,621.437683,1387.770874,622.265991,1386.425781,622.609375C1384.98291,622.939453,1383.495728,623.027161,1382.023438,622.875C1380.643799,622.751343,1379.287109,622.441162,1377.992188,621.949219C1376.714478,621.453796,1375.530273,620.745544,1374.488281,619.855469C1373.602295,619.050476,1372.893799,618.069885,1372.40625,616.976563C1372.023804,616.231934,1371.796753,615.417358,1371.742188,614.582031C1371.686035,613.913757,1371.689941,613.24176,1371.753906,612.574219C1371.960571,609.233154,1372.336426,605.904724,1372.878906,602.601563C1371.128906,602.516541,1369.376953,602.483887,1367.625,602.503906z"/>
    <path transform="matrix(-1,0,0,-1,710.099976,117.5)" style="stroke:#000000;stroke-width:0.05mm;fill:none" d="M1321.484375,615.402344C1320.120728,616.212036,1318.78064,617.059937,1317.464844,617.945313C1318.514893,618.743469,1319.599243,619.495544,1320.714844,620.199219C1322.617432,621.356934,1324.709595,622.169983,1326.894531,622.601563C1328.853149,622.95636,1330.834839,623.168945,1332.824219,623.238281C1337.121826,623.39856,1341.422485,623.451904,1345.722656,623.398438C1346.259521,623.378784,1346.793701,623.313538,1347.320313,623.207031C1347.484131,623.163574,1347.640991,623.098511,1347.792969,623.023438L1347.921875,622.929688C1348.638062,622.376953,1349.052734,621.518066,1349.046875,620.613281C1349.056396,620.143188,1348.987549,619.674133,1348.832031,619.230469C1348.607666,618.567139,1348.211792,617.974731,1347.679688,617.519531C1347.554932,617.440491,1347.422363,617.375732,1347.289063,617.3125C1346.751831,617.17041,1346.192871,617.129639,1345.640625,617.191406C1344.046143,617.342896,1342.460693,617.577698,1340.890625,617.894531C1339.901245,618.07428,1338.899658,618.178589,1337.894531,618.207031C1334.697388,618.341248,1331.495972,618.06958,1328.367188,617.398438C1326.237671,616.908691,1324.206421,616.062012,1322.359375,614.894531L1321.484375,615.402344z"/>
    <path transform="matrix(-1,0,0,-1,710.099976,117.5)" style="stroke:#000000;stroke-width:0.05mm;fill:none" d="M1378.929688,605.296875L1378.609375,607.472656C1378.356567,608.695251,1378.176758,609.931824,1378.070313,611.175781C1377.992798,612.199646,1378.098999,613.229187,1378.386719,614.214844C1378.727051,615.220642,1379.508911,616.018127,1380.511719,616.367188C1381.568604,616.747314,1382.730835,616.708801,1383.757813,616.253906C1384.11499,616.039612,1384.414673,615.742981,1384.636719,615.390625C1384.853516,615.049561,1385.000732,614.669983,1385.078125,614.273438C1385.244995,613.158752,1385.194092,612.0224,1384.933594,610.925781C1384.59729,608.901917,1384.440552,606.852234,1384.464844,604.800781L1384.464844,603.878906C1382.72229,603.568909,1380.970093,603.316101,1379.210938,603.121094L1378.929688,605.296875z"/>
    <path transform="matrix(-1,0,0,-1,710.099976,117.5)" style="stroke:#000000;stroke-width:0.05mm;fill:none" d="M1348,604.796875C1341.618774,606.237793,1335.41394,608.371765,1329.496094,611.160156C1331.055908,611.531738,1332.654297,611.71698,1334.257813,611.710938C1337.337646,611.713623,1340.41626,611.580811,1343.484375,611.3125C1344.282593,611.235535,1345.073975,611.098572,1345.851563,610.902344C1346.416016,610.752502,1346.939453,610.477783,1347.382813,610.097656C1347.712891,609.798218,1347.969116,609.426208,1348.132813,609.011719C1348.530762,607.943787,1348.84021,606.845093,1349.058594,605.726563C1349.133789,605.323303,1349.207642,604.923096,1349.28125,604.519531L1348,604.796875z"/>
    <circle transform="matrix(-1,0,0,-1,-676.046997,-577)" style="stroke:#000000;stroke-width:0.05mm;fill:none" r="0.496887" cx="0" cy="0"/>
</svg>
