<?xml version="1.0" encoding="UTF-8"?>
<svg xmlns="http://www.w3.org/2000/svg" width="379.102mm" height="253.626mm" viewBox="-1001.402344 -898.844788 379.101563 253.626038">
    <path transform="matrix(-1,0,0,-1,5,-4.092651)" style="stroke:#000000;stroke-width:0.05mm;fill:none" d="M797.816406,798.378906L797.816406,802.898438L805.332031,798.523438L805.347656,805.320313L797.714844,809.710938L797.707031,813.988281L805.339844,809.597656L805.339844,816.382813L797.699219,820.789063L797.714844,830.070313L801.09375,828.1875C800.546082,827.115906,800.495972,825.856689,800.96875,824.75C801.812134,822.750977,804.089722,821.779846,806.113281,822.5625C808.139648,823.344849,809.168823,825.603088,808.4375,827.648438L808.316406,827.953125C807.826843,829.034424,806.877808,829.837708,805.734375,830.15625C805.428162,830.245056,805.111572,830.292236,804.792969,830.304688L804.847656,834.101563L812.875,829.46875L812.875,820.753906L818.75,817.363281L818.75,826.074219L822.46875,823.9375L822.46875,815.226563L828.355469,811.816406L828.335938,820.519531L832.296875,818.183594L835.253906,819.886719L835.25,823.269531L831.335938,825.523438L838.960938,829.929688L833.066406,833.3125L825.457031,828.917969L821.742188,831.054688L829.367188,835.457031L823.492188,838.851563L815.882813,834.457031L807.855469,839.089844L811.210938,841.027344C811.341919,840.822998,811.491577,840.631409,811.65625,840.453125C812.430054,839.621948,813.525024,839.163208,814.660156,839.195313C815.547363,839.213623,816.404114,839.523499,817.09375,840.082031C818.767517,841.435791,819.074402,843.869751,817.785156,845.59375C817.049683,846.587341,815.892273,847.182617,814.65625,847.199219C814.143799,847.22168,813.632019,847.133179,813.15625,846.941406C812.600769,846.740417,812.100769,846.410156,811.695313,845.980469C811.490601,845.765442,811.310303,845.528687,811.152344,845.277344L807.890625,847.222656L815.917969,851.859375L823.453125,847.519531L829.328125,850.910156L821.792969,855.25L825.5,857.394531L833.039063,853.054688L838.882813,856.425781L831.347656,860.765625L835.214844,863L835.191406,866.414063L832.277344,868.089844L828.359375,865.828125L828.371094,874.632813L822.496094,871.242188L822.484375,862.4375L818.804688,860.3125L818.800781,869.109375L812.925781,865.714844L812.929688,856.921875L804.902344,852.285156L804.804688,856.167969C806.919983,856.205505,808.642334,857.882263,808.730469,859.996094C808.793274,861.400024,808.116577,862.735107,806.945313,863.511719C805.197693,864.653076,802.866699,864.255859,801.59375,862.601563C800.650208,861.384766,800.489441,859.733826,801.183594,858.359375L797.875,856.449219L797.882813,865.742188L805.414063,870.089844L805.410156,876.875L797.882813,872.527344L797.875,876.804688L805.421875,881.164063L805.421875,887.949219L797.875,883.59375L797.878906,888.070313L797.105469,888.507813L797.382813,888.742188C797.598328,888.962708,797.794128,889.202209,797.949219,889.46875C798.10614,889.728394,798.222412,890.009888,798.308594,890.300781C798.631287,891.423157,798.373169,892.633301,797.617188,893.523438C796.701965,894.59198,795.238647,895.009399,793.894531,894.59375C793.280334,894.404114,792.729309,894.047852,792.3125,893.558594C792.159424,893.385498,792.023376,893.197693,791.917969,892.992188C791.751526,892.699158,791.622864,892.386047,791.542969,892.058594C791.243347,890.733459,791.727356,889.354431,792.792969,888.511719L792,888.054688L791.996094,883.539063L784.382813,887.941406L784.382813,881.152344L791.996094,876.753906L792.003906,872.476563L784.390625,876.878906L784.390625,870.089844L792.003906,865.691406L792.003906,856.421875L788.601563,858.308594C789.626099,860.162231,789.035706,862.491821,787.253906,863.636719C786.741577,863.967651,786.160217,864.177063,785.554688,864.25C784.715942,864.349731,783.866638,864.184753,783.128906,863.773438C781.200134,862.706116,780.490051,860.282532,781.539063,858.34375C782.228577,857.065369,783.555542,856.25946,785.007813,856.234375L784.945313,852.410156L776.894531,857.050781L776.902344,865.746094L771.0625,869.226563L771.050781,860.527344L767.351563,862.671875L767.351563,871.386719L761.476563,874.78125L761.476563,866.066406L757.597656,868.300781L754.65625,866.605469L754.660156,863.222656L758.566406,860.984375L750.941406,856.582031L756.890625,853.058594L764.515625,857.460938L768.21875,855.316406L760.589844,850.914063L766.46875,847.519531L774.09375,851.921875L782.128906,847.273438L778.773438,845.335938C778.445007,845.870789,778.001099,846.325378,777.472656,846.664063C775.672058,847.788818,773.309448,847.320435,772.074219,845.59375L771.929688,845.371094C771.178711,844.160645,771.135742,842.640198,771.8125,841.386719C772.809631,839.516907,775.094788,838.749634,777.015625,839.644531C777.728149,839.96991,778.32782,840.499329,778.742188,841.164063L782.015625,839.203125L773.988281,834.566406L766.445313,838.921875L760.566406,835.53125L768.113281,831.175781L764.40625,829.03125L756.875,833.398438L751,830.007813L758.527344,825.640625L754.675781,823.414063L754.699219,820.003906L757.613281,818.328125L761.515625,820.578125L761.519531,811.785156L767.394531,815.175781L767.390625,823.972656L771.101563,826.113281L771.089844,817.308594L776.964844,820.699219L776.976563,829.503906L785.003906,834.140625L785.085938,830.289063C782.91095,830.25946,781.162537,828.491577,781.144531,826.316406L781.160156,825.914063C781.315125,824.21167,782.523499,822.790405,784.179688,822.367188C786.285095,821.833679,788.435364,823.067688,789.03125,825.15625C789.179504,825.645264,789.221069,826.159729,789.167969,826.667969C789.115234,827.173645,788.973816,827.666565,788.738281,828.117188L792.027344,830.019531L792.027344,820.75L784.484375,816.394531L784.484375,809.605469L791.996094,813.945313L791.988281,809.660156L784.457031,805.3125L784.457031,798.527344L791.941406,802.84375L791.941406,798.394531L794.890625,796.695313L797.816406,798.378906z"/>
    <path transform="matrix(-1,0,0,-1,5,-4.092651)" style="stroke:#000000;stroke-width:0.05mm;fill:none" d="M794.867188,889.769531L794.644531,889.789063L794.4375,889.855469C794.28125,889.919373,794.136108,890.005981,794,890.105469L793.789063,890.304688C793.643921,890.500793,793.53717,890.722473,793.484375,890.960938L793.457031,891.21875C793.457947,891.453125,793.504272,891.684937,793.601563,891.898438L793.703125,892.097656C793.874695,892.330688,794.103821,892.513,794.363281,892.640625L794.652344,892.71875L794.796875,892.746094L794.945313,892.753906C795.144592,892.740173,795.340637,892.69989,795.53125,892.640625C795.890259,892.485413,796.176208,892.198608,796.332031,891.839844L796.417969,891.558594C796.442566,891.358765,796.438232,891.157166,796.417969,890.957031C796.314514,890.487122,795.997009,890.092834,795.558594,889.894531L795.316406,889.804688L795.09375,889.769531L794.867188,889.769531z"/>
    <path transform="matrix(-1,0,0,-1,5,-4.092651)" style="stroke:#000000;stroke-width:0.05mm;fill:none" d="M789.046875,840.003906L783.429688,843.355469L789.035156,846.699219L789.160156,853.191406L794.847656,850.054688L800.542969,853.238281L800.652344,846.707031L806.242188,843.363281L800.648438,840.003906L800.523438,833.511719L794.835938,836.648438L789.128906,833.480469L789.046875,840.003906z"/>
    <path transform="matrix(-1,0,0,-1,97.111755,-6.210938)" style="stroke:#000000;stroke-width:0.05mm;fill:none" d="M806.558594,645.722656L803.625,652.441406L810.578125,650.035156L809.53125,658.59375L817.101563,655.683594L818.441406,663.628906L825.332031,658.445313L826.722656,665.671875L831.074219,659.769531L840.589844,662.824219L838.457031,672.640625L831.183594,673.449219L836.683594,678.269531L828.738281,681.648438L835.058594,686.753906L828.734375,691.855469L836.679688,695.222656L831.171875,700.050781L838.457031,700.851563L840.5625,710.628906L831.042969,713.695313L826.703125,707.789063L825.277344,714.96875L818.386719,709.773438L817.132813,717.804688L809.535156,714.871094L810.582031,723.441406L803.664063,721.074219L806.609375,727.804688L800.882813,732.988281C801.516052,733.31134,802.019592,733.842224,802.316406,734.488281C802.452759,734.764954,802.554504,735.057373,802.617188,735.359375C802.754028,736.041931,802.682678,736.750061,802.410156,737.390625L802.3125,737.605469C801.467712,739.285767,799.44812,740.00116,797.734375,739.226563C797.349426,739.052734,797.003113,738.805054,796.707031,738.503906C796.488647,738.287659,796.300171,738.042847,796.152344,737.773438C795.708252,737.016968,795.569824,736.11792,795.777344,735.265625C795.92804,734.549194,796.309448,733.900696,796.863281,733.421875C797.049805,733.235535,797.268921,733.084351,797.507813,732.972656L791.761719,727.75L794.695313,721.035156L787.742188,723.441406L788.789063,714.882813L781.21875,717.792969L779.964844,709.769531L773.066406,714.96875L771.675781,707.742188L767.324219,713.644531L757.796875,710.605469L759.929688,700.832031L767.203125,700.023438L761.703125,695.199219L769.648438,691.824219L763.328125,686.71875L769.613281,681.613281L761.667969,678.246094L767.171875,673.417969L759.886719,672.617188L757.78125,662.839844L767.304688,659.773438L771.640625,665.679688L773.070313,658.496094L779.957031,663.695313L781.234375,655.699219L788.832031,658.628906L787.75,650.085938L794.695313,652.445313L791.742188,645.730469L799.15625,639.007813L806.558594,645.722656z"/>
    <path transform="matrix(-1,0,0,-1,97.111755,-6.210938)" style="stroke:#000000;stroke-width:0.05mm;fill:none" d="M798.878906,734.570313L798.671875,734.628906L798.472656,734.71875L798.289063,734.835938L798.121094,734.976563C797.990845,735.11969,797.886658,735.283691,797.800781,735.457031L797.738281,735.652344C797.712524,735.785217,797.69519,735.919495,797.6875,736.054688C797.706665,736.361328,797.802307,736.658203,797.972656,736.914063L798.121094,737.101563C798.22876,737.201172,798.344116,737.292297,798.472656,737.363281L798.671875,737.449219C798.790222,737.485657,798.912109,737.509399,799.035156,737.523438C799.183899,737.53894,799.333801,737.529053,799.480469,737.5L799.695313,737.445313L799.894531,737.359375L800.082031,737.242188C800.209351,737.131042,800.324768,737.007446,800.429688,736.875C800.478149,736.791199,800.519775,736.703979,800.5625,736.617188L800.613281,736.480469L800.652344,736.339844L800.683594,736.039063C800.668518,735.75415,800.59314,735.475159,800.453125,735.226563L800.390625,735.136719C800.344299,735.079834,800.299927,735.021973,800.242188,734.976563C800.093079,734.814209,799.903381,734.69281,799.691406,734.632813L799.511719,734.582031C799.376709,734.554443,799.239197,734.545044,799.101563,734.542969L798.878906,734.570313z"/>
    <path transform="matrix(-1,0,0,-1,97.111755,-6.210938)" style="stroke:#000000;stroke-width:0.05mm;fill:none" d="M793.742188,714.640625L799.105469,710.992188L804.476563,714.628906L799.113281,701.40625L793.742188,714.640625z"/>
    <path transform="matrix(-1,0,0,-1,97.111755,-6.210938)" style="stroke:#000000;stroke-width:0.05mm;fill:none" d="M806.386719,703.421875L810.320313,706.058594L810.015625,701.320313L807.101563,700.472656L806.386719,703.421875z"/>
    <path transform="matrix(-1,0,0,-1,97.111755,-6.210938)" style="stroke:#000000;stroke-width:0.05mm;fill:none" d="M788.304688,701.332031L787.996094,706.054688L791.933594,703.425781L791.222656,700.46875L788.304688,701.332031z"/>
    <path transform="matrix(-1,0,0,-1,97.111755,-6.210938)" style="stroke:#000000;stroke-width:0.05mm;fill:none" d="M772.238281,696.015625L778.082031,698.832031L777.59375,705.3125L786.367188,694.046875L772.238281,696.015625z"/>
    <path transform="matrix(-1,0,0,-1,97.111755,-6.210938)" style="stroke:#000000;stroke-width:0.05mm;fill:none" d="M820.566406,705.292969L820.035156,698.800781L825.933594,696L811.800781,694.046875L820.566406,705.292969z"/>
    <path transform="matrix(-1,0,0,-1,97.111755,-6.210938)" style="stroke:#000000;stroke-width:0.05mm;fill:none" d="M790.8125,678.632813L793.648438,683.546875L787.976563,683.546875L785.214844,686.703125L787.984375,689.910156L793.648438,689.925781L790.820313,694.820313L792.171875,698.789063L796.328125,698L799.15625,693.105469L802,698L806.113281,698.8125L807.515625,694.828125L804.679688,689.914063L810.351563,689.914063L813.117188,686.757813L810.34375,683.550781L804.671875,683.550781L807.507813,678.636719L806.160156,674.671875L802,675.457031L799.164063,680.371094L796.328125,675.457031L792.214844,674.648438L790.8125,678.632813z"/>
    <path transform="matrix(-1,0,0,-1,97.111755,-6.210938)" style="stroke:#000000;stroke-width:0.05mm;fill:none" d="M815.035156,686.730469L817.226563,688.832031L821.480469,686.726563L817.230469,684.636719L815.035156,686.730469z"/>
    <path transform="matrix(-1,0,0,-1,97.111755,-6.210938)" style="stroke:#000000;stroke-width:0.05mm;fill:none" d="M776.847656,686.730469L781.097656,688.820313L783.292969,686.726563L781.101563,684.628906L776.847656,686.730469z"/>
    <path transform="matrix(-1,0,0,-1,97.111755,-6.210938)" style="stroke:#000000;stroke-width:0.05mm;fill:none" d="M811.890625,679.390625L826.042969,677.417969L820.199219,674.597656L820.632813,668.105469L811.890625,679.390625z"/>
    <path transform="matrix(-1,0,0,-1,97.111755,-6.210938)" style="stroke:#000000;stroke-width:0.05mm;fill:none" d="M778.1875,674.621094L772.300781,677.40625L786.425781,679.375L777.667969,668.109375L778.1875,674.621094z"/>
    <path transform="matrix(-1,0,0,-1,97.111755,-6.210938)" style="stroke:#000000;stroke-width:0.05mm;fill:none" d="M788.3125,672.136719L791.226563,672.984375L791.945313,670.039063L788.007813,667.402344L788.3125,672.136719z"/>
    <path transform="matrix(-1,0,0,-1,97.111755,-6.210938)" style="stroke:#000000;stroke-width:0.05mm;fill:none" d="M806.378906,670.023438L807.089844,672.980469L810.007813,672.117188L810.308594,667.410156L806.378906,670.023438z"/>
    <path transform="matrix(-1,0,0,-1,97.111755,-6.210938)" style="stroke:#000000;stroke-width:0.05mm;fill:none" d="M799.117188,662.46875L793.753906,658.816406L799.117188,672.039063L804.488281,658.804688L799.117188,662.46875z"/>
    <path transform="matrix(-1,0,0,-1,56.707031,-246.789917)" style="stroke:#000000;stroke-width:0.05mm;fill:none" d="M1016.601563,563.585938L1021.78125,560.882813L1021.761719,564.359375L1016.617188,567.042969L1016.609375,570.355469L1023.429688,566.734375L1023.4375,570.207031L1016.613281,573.800781L1016.605469,577.117188L1024.667969,572.824219L1024.648438,576.34375L1016.605469,580.5625L1016.609375,583.777344L1028.042969,577.660156L1028.445313,590.609375L1031.230469,589.007813L1030.863281,579.929688L1033.917969,578.164063L1034.214844,587.285156L1037.097656,585.628906L1036.796875,577.921875L1039.808594,576.191406L1040.082031,583.90625L1042.949219,582.242188L1042.683594,576.4375L1045.703125,574.691406L1046.042969,580.625L1055.140625,575.367188L1056.664063,578.023438L1047.5625,583.257813L1052.5,586.386719L1049.382813,588.078125L1044.5,584.9375L1041.632813,586.597656L1048.171875,590.695313L1045.160156,592.425781L1038.648438,588.320313L1035.78125,589.984375L1043.523438,594.820313L1040.398438,596.523438L1032.730469,591.671875L1029.945313,593.273438L1040.96875,600.132813L1029.953125,606.976563L1032.746094,608.589844L1040.421875,603.710938L1043.472656,605.472656L1035.734375,610.316406L1038.605469,611.972656L1045.117188,607.855469L1048.132813,609.597656L1041.59375,613.699219L1044.449219,615.347656L1049.347656,612.203125L1052.367188,613.945313L1047.4375,617.074219L1056.539063,622.328125L1055,624.992188L1045.898438,619.738281L1045.664063,625.554688L1042.648438,623.8125L1042.910156,618.011719L1040.054688,616.363281L1039.773438,624.078125L1036.753906,622.335938L1037.066406,614.640625L1034.195313,612.980469L1033.878906,622.089844L1030.828125,620.328125L1031.125,611.101563L1028.332031,609.488281L1027.910156,622.453125L1016.46875,616.316406L1016.464844,619.550781L1024.503906,623.761719L1024.585938,627.320313L1016.53125,623.03125L1016.523438,626.347656L1023.34375,629.921875L1023.339844,633.410156L1016.523438,629.792969L1016.523438,633.089844L1021.679688,635.765625L1021.773438,639.3125L1016.613281,636.609375L1016.613281,645.453125L1016.835938,645.570313C1018.401184,646.512207,1018.978943,648.497864,1018.164063,650.132813L1018.042969,650.351563C1017.956177,650.495117,1017.858521,650.63147,1017.757813,650.765625C1017.54248,651.026001,1017.292725,651.255859,1017.015625,651.449219C1016.153992,652.036133,1015.077148,652.210388,1014.074219,651.925781C1013.428406,651.736633,1012.848877,651.370728,1012.402344,650.867188C1011.954224,650.362244,1011.665833,649.735291,1011.574219,649.066406C1011.356323,647.540649,1012.163879,646.054321,1013.558594,645.398438L1013.558594,636.601563L1008.394531,639.3125L1008.40625,635.808594L1013.554688,633.152344L1013.5625,629.839844L1006.742188,633.457031L1006.746094,629.96875L1013.5625,626.394531L1013.554688,623.070313L1005.507813,627.371094L1005.511719,623.839844L1013.554688,619.625L1013.546875,616.410156L1002.132813,622.535156L1001.707031,609.59375L998.917969,611.195313L999.289063,620.269531L996.25,622.046875L995.933594,612.917969L993.066406,614.582031L993.179688,622.246094L990.160156,623.992188L989.886719,616.277344L987.019531,617.9375L987.277344,623.71875L984.265625,625.488281L984.019531,619.652344L974.933594,624.898438L973.414063,622.265625L982.496094,617.019531L977.578125,613.902344L980.695313,612.210938L985.574219,615.328125L988.429688,613.679688L981.890625,609.582031L984.910156,607.835938L991.414063,611.957031L994.296875,610.304688L986.554688,605.46875L989.679688,603.761719L997.363281,608.625L1000.160156,607.007813L989.125,600.167969L1000.140625,593.320313L997.347656,591.707031L989.664063,596.5625L986.628906,594.808594L994.429688,589.980469L991.492188,588.28125L984.980469,592.402344L981.960938,590.660156L988.503906,586.558594L985.644531,584.910156L980.757813,588.035156L977.722656,586.285156L982.644531,583.175781L973.558594,577.929688L975.078125,575.296875L984.179688,580.550781L984.414063,574.734375L987.449219,576.488281L987.183594,582.285156L990.039063,583.933594L990.367188,576.246094L993.386719,577.988281L993.074219,585.6875L995.949219,587.347656L996.214844,578.207031L999.25,579.960938L998.886719,589.042969L1001.679688,590.65625L1002.289063,577.734375L1013.730469,583.871094L1013.726563,580.65625L1005.671875,576.433594L1005.589844,572.875L1013.644531,577.160156L1013.636719,573.839844L1006.824219,570.25L1006.816406,566.777344L1013.636719,570.390625L1013.644531,567.078125L1008.496094,564.425781L1008.402344,560.882813L1013.5625,563.585938L1013.5625,553.09375L1016.609375,553.078125L1016.601563,563.585938z"/>
    <path transform="matrix(-1,0,0,-1,56.707031,-246.789917)" style="stroke:#000000;stroke-width:0.05mm;fill:none" d="M1014.730469,647.097656L1014.523438,647.160156C1014.389771,647.216187,1014.264099,647.287964,1014.140625,647.363281L1013.972656,647.503906C1013.910583,647.577637,1013.849976,647.65271,1013.792969,647.730469C1013.677795,647.889771,1013.604553,648.075256,1013.574219,648.269531L1013.535156,648.566406L1013.554688,648.785156C1013.580261,648.931946,1013.630127,649.072144,1013.683594,649.210938L1013.789063,649.40625C1013.903442,649.560242,1014.03894,649.697327,1014.195313,649.808594C1014.531982,650.026733,1014.939148,650.108765,1015.332031,650.027344L1015.617188,649.949219L1015.875,649.808594C1016.195251,649.584045,1016.422424,649.249878,1016.503906,648.867188L1016.535156,648.566406L1016.503906,648.265625C1016.451172,648.077026,1016.377747,647.894958,1016.277344,647.726563C1016.106323,647.492798,1015.877991,647.309082,1015.617188,647.183594C1015.507446,647.145752,1015.395752,647.113525,1015.28125,647.09375L1014.769531,647.09375L1014.730469,647.097656z"/>
    <path transform="matrix(-1,0,0,-1,56.707031,-246.789917)" style="stroke:#000000;stroke-width:0.05mm;fill:none" d="M1020.277344,609.054688L1016.636719,607.125L1016.636719,612.949219L1025.152344,617.480469L1025.519531,607.800781L1020.445313,604.871094L1020.277344,609.054688z"/>
    <path transform="matrix(-1,0,0,-1,56.707031,-246.789917)" style="stroke:#000000;stroke-width:0.05mm;fill:none" d="M1004.710938,607.839844L1005.054688,617.476563L1013.589844,612.964844L1013.589844,607.101563L1009.921875,609.046875L1009.761719,604.910156L1004.710938,607.839844z"/>
    <path transform="matrix(-1,0,0,-1,56.707031,-246.789917)" style="stroke:#000000;stroke-width:0.05mm;fill:none" d="M995.046875,600.183594L1003.21875,605.308594L1008.285156,602.386719L1004.761719,600.183594L1008.222656,597.898438L1003.21875,595.074219L995.046875,600.183594z"/>
    <path transform="matrix(-1,0,0,-1,56.707031,-246.789917)" style="stroke:#000000;stroke-width:0.05mm;fill:none" d="M1021.914063,597.800781L1025.4375,600.003906L1021.980469,602.289063L1026.984375,605.113281L1035.164063,599.992188L1026.992188,594.863281L1021.914063,597.800781z"/>
    <path transform="matrix(-1,0,0,-1,56.707031,-246.789917)" style="stroke:#000000;stroke-width:0.05mm;fill:none" d="M1004.617188,592.351563L1009.675781,595.269531L1009.925781,591.132813L1013.5625,593.0625L1013.570313,587.222656L1005.046875,582.710938L1004.617188,592.351563z"/>
    <path transform="matrix(-1,0,0,-1,56.707031,-246.789917)" style="stroke:#000000;stroke-width:0.05mm;fill:none" d="M1016.695313,587.230469L1016.691406,593.09375L1020.363281,591.144531L1020.515625,595.257813L1025.574219,592.355469L1025.214844,582.707031L1016.695313,587.230469z"/>
    <path transform="matrix(-1,0,0,-1,16.03125,-10.246094)" style="stroke:#000000;stroke-width:0.05mm;fill:none" d="M977.3125,640.792969L982.128906,638.050781L983.296875,641.292969L977.386719,644.710938L977.386719,647.75L984.21875,643.773438L985.34375,647.015625L977.398438,651.652344L977.390625,662.5L981.953125,658.710938L984.039063,664.328125L986.5625,659.960938L983.339844,651.230469L986.265625,649.535156L988.730469,656.203125L990.742188,652.71875L993.679688,654.417969L991.675781,657.882813L998.660156,656.691406L998.65625,660.074219L989.5,661.65625L986.976563,666.023438L992.867188,665.015625L991.886719,670.871094L1001.257813,665.429688L1001.304688,656.226563L1004.671875,655.582031L1004.648438,663.488281L1007.28125,661.96875L1007.265625,655.175781L1010.671875,654.574219L1010.644531,660.035156L1015.683594,657.125L1017.433594,660.101563L1012.402344,663L1017.121094,665.722656L1014.902344,668.382813L1009.042969,665L1006.410156,666.519531L1013.246094,670.46875L1011,673.0625L1002.972656,668.429688L993.59375,673.847656L999.191406,675.902344L995.351563,680.515625L1000.402344,680.519531L1006.355469,673.359375L1009.292969,675.054688L1004.769531,680.515625L1008.773438,680.515625L1008.761719,683.910156L1004.757813,683.910156L1009.296875,689.359375L1006.371094,691.050781L1000.414063,683.90625L995.363281,683.902344L999.144531,688.480469L993.546875,690.539063L1003.003906,696L1010.992188,691.429688L1013.238281,694.03125L1006.390625,697.953125L1008.941406,699.425781L1014.855469,696.011719L1017.085938,698.671875L1012.347656,701.394531L1017.371094,704.292969L1015.65625,707.265625L1010.617188,704.355469L1010.628906,709.820313L1007.226563,709.226563L1007.226563,702.398438L1004.59375,700.878906L1004.621094,708.769531L1001.246094,708.125L1001.207031,698.921875L991.832031,693.507813L992.8125,699.339844L986.957031,698.355469L989.484375,702.726563L998.660156,704.300781L998.644531,707.695313L991.660156,706.488281L993.652344,709.972656L990.726563,711.664063L988.722656,708.199219L986.273438,714.851563L983.335938,713.15625L986.550781,704.4375L984.019531,700.066406L981.957031,705.679688L977.359375,701.851563L977.375,712.691406L985.402344,717.324219L984.261719,720.5625L977.421875,716.613281L977.421875,719.652344L983.332031,723.066406L982.121094,726.304688L977.402344,723.582031L977.410156,728.734375C978.929443,729.584717,979.585938,731.427979,978.945313,733.046875C978.771545,733.476257,978.522705,733.871704,978.203125,734.207031C976.864929,735.575623,974.676392,735.627075,973.285156,734.3125C972.378052,733.457031,971.997986,732.182983,972.28125,730.96875C972.416931,730.403687,972.689392,729.880798,973.074219,729.445313C973.334534,729.163635,973.63501,728.922241,973.964844,728.726563L973.972656,723.589844L969.246094,726.324219L968.0625,723.070313L973.976563,719.65625L973.964844,716.628906L967.15625,720.597656L966.015625,717.347656L973.910156,712.722656L973.921875,701.878906L969.34375,705.65625L967.277344,700.035156L964.757813,704.398438L967.980469,713.132813L965.027344,714.832031L962.578125,708.171875L960.578125,711.640625L957.640625,709.945313L959.640625,706.476563L952.648438,707.683594L952.648438,704.28125L961.820313,702.703125L964.339844,698.335938L958.441406,699.363281L959.421875,693.507813L950.035156,698.941406L950.007813,708.148438L946.621094,708.785156L946.71875,700.902344L944.097656,702.402344L944.09375,709.230469L940.6875,709.832031L940.6875,704.375L935.671875,707.28125L933.949219,704.296875L938.984375,701.398438L934.261719,698.675781L936.480469,696.015625L942.390625,699.429688L944.96875,697.855469L938.144531,693.914063L940.378906,691.308594L948.40625,695.945313L957.800781,690.535156L952.191406,688.453125L956.03125,683.84375L950.972656,683.855469L945.03125,691L942.09375,689.300781L946.628906,683.851563L942.628906,683.851563L942.613281,680.464844L946.617188,680.460938L942.066406,675.074219L944.992188,673.378906L950.949219,680.523438L955.984375,680.519531L952.207031,675.9375L957.800781,673.882813L948.425781,668.46875L940.425781,673.054688L938.191406,670.4375L945.039063,666.515625L942.40625,664.992188L936.496094,668.410156L934.277344,665.761719L939.007813,663.054688L933.96875,660.144531L935.691406,657.15625L940.714844,660.058594L940.710938,654.617188L944.113281,655.210938L944.121094,662.023438L946.738281,663.535156L946.726563,655.652344L950.085938,656.285156L950.132813,665.515625L959.507813,670.929688L958.5,665.039063L964.355469,666.019531L961.824219,661.648438L952.652344,660.078125L952.648438,656.671875L959.652344,657.890625L957.632813,654.414063L960.585938,652.710938L962.585938,656.179688L965.035156,649.523438L967.972656,651.222656L964.75,659.957031L967.277344,664.328125L969.351563,658.695313L973.933594,662.515625L973.933594,651.6875L965.90625,647.050781L967.046875,643.816406L973.871094,647.753906L973.863281,644.730469L967.96875,641.328125L969.144531,638.070313L973.867188,640.792969L973.882813,634.980469L977.3125,634.972656L977.3125,640.792969z"/>
    <path transform="matrix(-1,0,0,-1,16.03125,-10.246094)" style="stroke:#000000;stroke-width:0.05mm;fill:none" d="M975.605469,730.28125C975.421204,730.290344,975.239197,730.327637,975.070313,730.402344L974.925781,730.476563C974.773865,730.563843,974.638916,730.678284,974.53125,730.816406C974.473755,730.893616,974.422852,730.975159,974.375,731.058594L974.304688,731.1875L974.226563,731.4375L974.195313,731.691406C974.195129,731.865295,974.214478,732.038574,974.257813,732.207031L974.335938,732.414063L974.464844,732.632813L974.625,732.832031C974.729919,732.932129,974.849976,733.013062,974.972656,733.089844C975.263306,733.231934,975.588257,733.286438,975.910156,733.253906C976.056519,733.232605,976.19574,733.182373,976.332031,733.125L976.527344,733.015625C976.643799,732.93042,976.74646,732.828613,976.839844,732.71875L976.96875,732.542969C977.050476,732.393616,977.112488,732.234741,977.15625,732.070313L977.1875,731.769531C977.18866,731.452942,977.085876,731.144836,976.902344,730.886719L976.800781,730.761719L976.683594,730.648438L976.558594,730.546875C976.345093,730.394592,976.092773,730.309143,975.832031,730.28125L975.605469,730.28125z"/>
    <path transform="matrix(-1,0,0,-1,16.03125,-10.246094)" style="stroke:#000000;stroke-width:0.05mm;fill:none" d="M977.347656,697.496094L980.441406,700.074219L981.839844,696.28125L977.339844,688.503906L977.347656,697.496094z"/>
    <path transform="matrix(-1,0,0,-1,16.03125,-10.246094)" style="stroke:#000000;stroke-width:0.05mm;fill:none" d="M969.484375,696.210938L970.882813,700.015625L973.941406,697.5L973.980469,688.425781L969.484375,696.210938z"/>
    <path transform="matrix(-1,0,0,-1,16.03125,-10.246094)" style="stroke:#000000;stroke-width:0.05mm;fill:none" d="M963.203125,691.300781L962.515625,695.269531L966.511719,694.582031L971.003906,686.792969L963.203125,691.300781z"/>
    <path transform="matrix(-1,0,0,-1,16.03125,-10.246094)" style="stroke:#000000;stroke-width:0.05mm;fill:none" d="M984.722656,694.585938L988.71875,695.265625L988.035156,691.296875L980.21875,686.78125L984.722656,694.585938z"/>
    <path transform="matrix(-1,0,0,-1,16.03125,-10.246094)" style="stroke:#000000;stroke-width:0.05mm;fill:none" d="M981.945313,683.863281L989.730469,688.359375L993.449219,686.929688L990.941406,683.855469L981.945313,683.863281z"/>
    <path transform="matrix(-1,0,0,-1,16.03125,-10.246094)" style="stroke:#000000;stroke-width:0.05mm;fill:none" d="M960.308594,683.851563L957.722656,686.960938L961.5,688.347656L969.320313,683.851563L960.308594,683.851563z"/>
    <path transform="matrix(-1,0,0,-1,16.03125,-10.246094)" style="stroke:#000000;stroke-width:0.05mm;fill:none" d="M957.773438,677.417969L960.367188,680.523438L969.363281,680.515625L961.464844,675.953125L957.773438,677.417969z"/>
    <path transform="matrix(-1,0,0,-1,16.03125,-10.246094)" style="stroke:#000000;stroke-width:0.05mm;fill:none" d="M981.921875,680.488281L990.917969,680.480469L993.507813,677.371094L989.726563,675.980469L981.921875,680.488281z"/>
    <path transform="matrix(-1,0,0,-1,16.03125,-10.246094)" style="stroke:#000000;stroke-width:0.05mm;fill:none" d="M984.800781,669.796875L980.304688,677.585938L988.089844,673.066406L988.777344,669.097656L984.800781,669.796875z"/>
    <path transform="matrix(-1,0,0,-1,16.03125,-10.246094)" style="stroke:#000000;stroke-width:0.05mm;fill:none" d="M963.175781,673.027344L970.980469,677.53125L966.480469,669.753906L962.492188,669.054688L963.175781,673.027344z"/>
    <path transform="matrix(-1,0,0,-1,16.03125,-10.246094)" style="stroke:#000000;stroke-width:0.05mm;fill:none" d="M977.367188,666.875L977.320313,675.96875L981.824219,668.164063L980.425781,664.359375L977.367188,666.875z"/>
    <path transform="matrix(-1,0,0,-1,16.03125,-10.246094)" style="stroke:#000000;stroke-width:0.05mm;fill:none" d="M969.40625,668.058594L973.894531,675.855469L973.898438,666.84375L970.804688,664.265625L969.40625,668.058594z"/>
    <path transform="matrix(-1,0,0,-1,-74.302734,-159.039063)" style="stroke:#000000;stroke-width:0.05mm;fill:none" d="M844.851563,574.578125L853.992188,569.277344L853.988281,573.878906L844.851563,579.179688L844.839844,583.753906L853.996094,578.464844L853.992188,583.066406L844.839844,588.355469L844.855469,597.226563L850.015625,594.257813L849.992188,589.960938L853.980469,587.683594L853.992188,591.96875L857.5625,589.898438L857.535156,594.507813L853.988281,596.570313L853.960938,602.292969L861.410156,598.03125L861.402344,587.472656L865.386719,585.171875L865.394531,595.726563L869.34375,593.449219L869.363281,582.882813L873.296875,580.554688L873.40625,591.191406L882.457031,585.96875L884.453125,589.414063L875.390625,594.648438L884.527344,599.925781L880.558594,602.234375L871.40625,596.953125L867.441406,599.222656L876.59375,604.507813L872.519531,606.777344L863.371094,601.496094L855.703125,605.910156L860.859375,608.886719L864.589844,606.757813L868.523438,609.03125L864.808594,611.164063L868.371094,613.222656L864.371094,615.515625L860.824219,613.46875L855.867188,616.34375L863.316406,620.644531L872.460938,615.371094L876.523438,617.714844L867.378906,622.988281L871.34375,625.277344L880.488281,620.003906L884.421875,622.277344L875.277344,627.550781L884.363281,632.796875L882.371094,636.246094L873.316406,631.019531L873.320313,641.578125L869.355469,639.289063L869.269531,628.683594L865.304688,626.394531L865.3125,636.953125L861.328125,634.652344L861.289063,624.226563L853.601563,619.785156L853.644531,625.71875L857.398438,627.890625L857.371094,632.496094L853.648438,630.347656L853.648438,634.457031L849.652344,632.148438L849.664063,628.046875L844.6875,625.175781L844.722656,633.753906L853.839844,639.019531L853.855469,643.632813L844.703125,638.347656L844.703125,642.90625L853.855469,648.191406L853.851563,652.792969L844.703125,647.507813L844.707031,656.621094C845.010925,656.812744,845.28125,657.052002,845.515625,657.324219C845.659485,657.512329,845.791687,657.708984,845.910156,657.914063C846.137512,658.338562,846.279663,658.804565,846.308594,659.285156C846.365723,659.835571,846.280334,660.391418,846.058594,660.898438C845.885315,661.320618,845.632935,661.70636,845.308594,662.027344C844.516724,662.828125,843.384644,663.194763,842.273438,663.011719C842.046265,662.971313,841.821899,662.916016,841.605469,662.835938C839.871643,662.194824,838.937073,660.313782,839.480469,658.546875C839.694275,657.839478,840.1297,657.219727,840.71875,656.773438L840.722656,647.503906L831.585938,652.800781L831.589844,648.265625L840.730469,642.96875L840.738281,638.390625L831.59375,643.664063L831.597656,639.0625L840.726563,633.78125L840.734375,624.902344L835.613281,627.875L835.640625,632.171875L831.648438,634.449219L831.640625,630.164063L828.070313,632.234375L828.082031,627.617188L831.640625,625.5625L831.628906,619.839844L824.179688,624.101563L824.1875,634.65625L820.1875,636.949219L820.195313,626.402344L816.238281,628.699219L816.226563,639.246094L812.253906,641.53125L812.261719,630.984375L803.210938,636.207031L801.21875,632.765625L810.277344,627.527344L801.128906,622.242188L805.109375,619.941406L814.261719,625.226563L818.21875,622.929688L809.070313,617.644531L813.128906,615.324219L822.265625,620.597656L829.964844,616.160156L824.84375,613.203125L821.109375,615.328125L817.128906,613.03125L820.84375,610.894531L817.28125,608.835938L821.28125,606.542969L824.828125,608.589844L829.75,605.738281L822.269531,601.417969L813.148438,606.6875L809.167969,604.386719L818.289063,599.121094L814.335938,596.839844L805.203125,602.097656L801.21875,599.800781L810.371094,594.550781L801.300781,589.3125L803.292969,585.863281L812.363281,591.097656L812.34375,580.53125L816.324219,582.832031L816.332031,593.390625L820.3125,595.6875L820.316406,585.113281L824.296875,587.414063L824.292969,597.988281L831.96875,602.417969L831.992188,596.480469L828.1875,594.285156L828.214844,589.675781L831.941406,591.824219L831.9375,587.714844L835.933594,590.023438L835.921875,594.125L840.835938,596.960938L840.800781,588.378906L831.664063,583.105469L831.667969,578.503906L840.820313,583.789063L840.820313,579.226563L831.683594,573.953125L831.675781,569.367188L840.8125,574.640625L840.855469,564.113281L844.839844,564.101563L844.851563,574.578125z"/>
    <path transform="matrix(-1,0,0,-1,-74.302734,-159.039063)" style="stroke:#000000;stroke-width:0.05mm;fill:none" d="M842.519531,658.089844L842.3125,658.152344L842.113281,658.242188C841.924683,658.350342,841.762085,658.496399,841.628906,658.667969L841.503906,658.847656C841.434814,658.991577,841.383667,659.143616,841.355469,659.300781C841.312805,659.532288,841.331848,659.769348,841.394531,659.996094L841.472656,660.203125L841.578125,660.398438L841.761719,660.621094C841.913574,660.737976,842.072205,660.845764,842.238281,660.941406C842.427795,661.004944,842.624878,661.043396,842.824219,661.058594C843.023071,661.050232,843.219116,661.009216,843.40625,660.941406L843.660156,660.800781C843.980896,660.576355,844.20575,660.240967,844.292969,659.859375L844.324219,659.558594L844.292969,659.257813L844.253906,659.117188C844.220947,659.02478,844.180359,658.935486,844.136719,658.847656C844.023926,658.635193,843.861511,658.453796,843.664063,658.316406L843.4375,658.195313C843.148438,658.071411,842.829468,658.03656,842.519531,658.089844z"/>
    <path transform="matrix(-1,0,0,-1,-74.302734,-159.039063)" style="stroke:#000000;stroke-width:0.05mm;fill:none" d="M844.78125,620.453125L849.710938,623.300781L849.71875,617.351563L844.789063,614.507813L844.78125,620.453125z"/>
    <path transform="matrix(-1,0,0,-1,-74.302734,-159.039063)" style="stroke:#000000;stroke-width:0.05mm;fill:none" d="M835.648438,617.472656L835.640625,623.160156L840.800781,620.191406L840.796875,614.492188L835.648438,617.472656z"/>
    <path transform="matrix(-1,0,0,-1,-74.302734,-159.039063)" style="stroke:#000000;stroke-width:0.05mm;fill:none" d="M846.78125,611.054688L851.9375,614.03125L856.875,611.1875L851.71875,608.210938L846.78125,611.054688z"/>
    <path transform="matrix(-1,0,0,-1,-74.302734,-159.039063)" style="stroke:#000000;stroke-width:0.05mm;fill:none" d="M828.734375,610.910156L833.886719,613.886719L838.808594,611.035156L833.671875,608.066406L828.734375,610.910156z"/>
    <path transform="matrix(-1,0,0,-1,-74.302734,-159.039063)" style="stroke:#000000;stroke-width:0.05mm;fill:none" d="M844.804688,601.910156L844.8125,607.605469L849.957031,604.625L849.96875,598.9375L844.804688,601.910156z"/>
    <path transform="matrix(-1,0,0,-1,-74.302734,-159.039063)" style="stroke:#000000;stroke-width:0.05mm;fill:none" d="M835.890625,604.746094L840.820313,607.589844L840.828125,601.644531L835.898438,598.800781L835.890625,604.746094z"/>
    <path transform="matrix(-1,0,0,-1,264.046875,-161.390625)" style="stroke:#000000;stroke-width:0.05mm;fill:none" d="M934.207031,571.828125L931.476563,574.851563L931.527344,585.886719L934.648438,591.304688L936.726563,587.710938L933.429688,583.667969L935.101563,579.773438L938.773438,584.160156L940.082031,581.898438L936.148438,577.292969L937.828125,573.382813L942.074219,578.445313L943.355469,576.230469L938.890625,570.914063L940.550781,566.992188L945.363281,572.746094L946.753906,570.339844L952.855469,573.859375L951.492188,576.222656L958.882813,577.511719L956.320313,580.914063L949.480469,579.703125L948.203125,581.921875L954.710938,583.066406L952.164063,586.476563L946.183594,585.421875L944.894531,587.652344L950.53125,588.636719L947.996094,592.03125L942.84375,591.199219L940.730469,594.859375L946.894531,594.863281L956.550781,589.265625L957.789063,585.484375L965.527344,587.511719L963.410156,595.21875L959.425781,594.371094L949.835938,599.859375L946.699219,605.285156L950.96875,605.308594L952.699219,600.527344L956.917969,600.011719L955.003906,605.328125L957.554688,605.320313L959.632813,599.609375L964.023438,598.976563L961.75,605.175781L964.316406,605.179688L966.691406,598.652344L970.910156,598.132813L968.324219,605.203125L971.050781,605.195313L971.042969,612.210938L968.34375,612.214844L970.894531,619.253906L966.691406,618.753906L964.300781,612.214844L961.75,612.21875L964.011719,618.425781L959.796875,617.941406L957.707031,612.214844L955.15625,612.222656L957.105469,617.628906L952.882813,617.117188L951.117188,612.246094L946.847656,612.222656L949.933594,617.554688L959.566406,623.117188L963.375,622.382813L965.523438,630.042969L957.8125,632.015625L956.550781,628.160156L947.011719,622.65625L940.742188,622.652344L942.894531,626.335938L947.964844,625.492188L950.515625,628.894531L944.859375,629.910156L946.128906,632.121094L952.128906,631.066406L954.667969,634.460938L948.160156,635.605469L949.433594,637.816406L956.289063,636.617188L958.828125,640.007813L951.457031,641.320313L952.804688,643.660156L946.769531,647.324219L945.40625,644.976563L940.574219,650.75L938.90625,646.851563L943.378906,641.515625L942.09375,639.292969L937.851563,644.378906L936.175781,640.460938L940.074219,635.816406L938.804688,633.605469L935.15625,637.921875L933.488281,634.027344L936.816406,630.042969L934.664063,626.355469L931.578125,631.703125L931.566406,642.847656L934.242188,645.808594L930.222656,649.859375C930.885132,650.181152,931.429565,650.702332,931.777344,651.351563L931.929688,651.675781C932.520508,653.111084,932.093567,654.76416,930.878906,655.730469L930.675781,655.882813C930.295471,656.144714,929.864868,656.322266,929.414063,656.421875C928.583923,656.59021,927.721191,656.457764,926.980469,656.046875C926.495972,655.782349,926.084717,655.401123,925.785156,654.9375C925.549805,654.591492,925.377258,654.205811,925.289063,653.796875C924.94574,652.296143,925.617432,650.747742,926.945313,649.96875L927.058594,649.910156L922.992188,645.796875L925.710938,642.789063L925.660156,631.753906L922.539063,626.335938L920.425781,629.996094L923.765625,633.957031L922.085938,637.871094L918.46875,633.425781L917.1875,635.640625L921.09375,640.292969L919.425781,644.1875L915.167969,639.140625L913.898438,641.339844L918.351563,646.671875L916.699219,650.578125L911.871094,644.8125L910.507813,647.175781L904.421875,643.660156L905.785156,641.300781L898.394531,640.011719L900.949219,636.625L907.796875,637.816406L909.066406,635.617188L902.558594,634.472656L905.105469,631.0625L911.085938,632.117188L912.328125,629.964844L906.691406,628.980469L909.339844,625.542969L914.441406,626.457031L916.566406,622.777344L910.394531,622.789063L900.746094,628.375L899.496094,632.167969L891.648438,630.078125L893.773438,622.359375L897.734375,623.210938L907.324219,617.722656L910.570313,612.101563L906.300781,612.078125L904.515625,616.957031L900.304688,617.460938L902.21875,612.140625L899.667969,612.148438L897.601563,617.84375L893.367188,618.355469L895.632813,612.128906L893.085938,612.132813L890.699219,618.675781L886.488281,619.179688L889.074219,612.109375L886.359375,612.105469L886.347656,605.078125L889.0625,605.082031L886.511719,598.042969L890.71875,598.542969L893.109375,605.082031L895.660156,605.078125L893.398438,598.871094L897.605469,599.375L899.679688,605.085938L902.246094,605.09375L900.292969,599.683594L904.515625,600.195313L906.28125,605.070313L910.550781,605.09375L907.449219,599.75L897.816406,594.1875L893.914063,595.015625L891.765625,587.351563L899.472656,585.382813L900.726563,589.253906L910.199219,594.722656L916.460938,594.742188L914.308594,591.058594L909.203125,591.964844L906.648438,588.5625L912.308594,587.546875L911.023438,585.328125L905.035156,586.390625L902.507813,582.980469L909.015625,581.835938L907.742188,579.625L900.886719,580.824219L898.347656,577.433594L905.71875,576.121094L904.355469,573.773438L910.449219,570.269531L911.800781,572.632813L916.632813,566.859375L918.289063,570.773438L913.828125,576.09375L915.097656,578.304688L919.347656,573.246094L921.03125,577.148438L917.121094,581.808594L918.394531,584.019531L922.039063,579.703125L923.699219,583.613281L920.371094,587.601563L922.523438,591.285156L925.613281,585.9375L925.625,574.792969L922.945313,571.832031L928.570313,566.132813L934.207031,571.828125z"/>
    <path transform="matrix(-1,0,0,-1,264.046875,-161.390625)" style="stroke:#000000;stroke-width:0.05mm;fill:none" d="M928.390625,651.53125L928.183594,651.589844L927.984375,651.679688C927.861023,651.756897,927.742798,651.842102,927.632813,651.9375C927.499023,652.07782,927.393921,652.242065,927.3125,652.417969C927.254211,652.607666,927.213379,652.802307,927.195313,653L927.214844,653.21875C927.280396,653.738953,927.624756,654.182312,928.109375,654.382813L928.398438,654.460938L928.695313,654.5C929.19574,654.500732,929.666382,654.253845,929.941406,653.835938L930.078125,653.582031L930.164063,653.300781L930.195313,653L930.164063,652.699219C930.140198,652.603577,930.10791,652.510498,930.074219,652.417969C929.963257,652.149414,929.778198,651.917175,929.535156,651.757813C929.200378,651.530457,928.787231,651.450928,928.390625,651.53125z"/>
    <path transform="matrix(-1,0,0,-1,264.046875,-161.390625)" style="stroke:#000000;stroke-width:0.05mm;fill:none" d="M924.800781,595.125L928.203125,600.984375L922.128906,604.5L918.738281,598.625L911.027344,598.625L914.882813,605.300781L921.667969,605.300781L921.660156,612.320313L914.835938,612.277344L910.980469,618.957031L918.6875,618.953125L922.042969,613.140625L928.046875,616.609375L924.65625,622.484375L928.5,629.136719L932.464844,622.453125L929.125,616.632813L935.199219,613.117188L938.59375,618.992188L946.300781,618.992188L942.441406,612.332031L935.664063,612.3125L935.671875,605.296875L942.445313,605.3125L946.304688,598.632813L938.59375,598.636719L935.210938,604.496094L929.128906,600.984375L932.511719,595.121094L928.660156,588.445313L924.800781,595.125z"/>
    <path transform="matrix(-1,0,0,-1,8,-4.483154)" style="stroke:#000000;stroke-width:0.05mm;fill:none" d="M841.414063,728.765625L853.097656,722.027344L853.097656,727.808594L841.414063,734.546875L841.414063,739.707031L853.132813,732.941406L853.132813,738.722656L841.414063,745.488281L841.414063,755.164063L845.347656,748.355469L849.683594,745.851563L849.679688,750.859375L845.75,757.664063L854.210938,752.726563L854.199219,739.210938L859.21875,736.304688L859.21875,749.835938L863.683594,747.253906L863.679688,733.765625L868.640625,730.957031L868.628906,744.4375L876.449219,739.941406L878.9375,744.265625L871.136719,748.773438L882.773438,755.492188L877.765625,758.382813L866.0625,751.625L861.726563,754.28125L873.460938,761.054688L868.4375,763.9375L856.71875,757.167969L848.328125,762.023438L856.1875,762.019531L860.539063,764.53125L856.183594,767.027344L848.34375,767.039063L856.726563,771.878906L868.441406,765.117188L873.453125,768.007813L861.734375,774.769531L866.199219,777.347656L877.882813,770.457031L882.957031,773.386719L871.261719,780.144531L879.066406,784.648438L876.5625,788.984375L868.742188,784.46875L868.753906,797.984375L863.746094,795.089844L863.742188,781.601563L859.214844,778.988281L859.214844,792.519531L854.207031,789.625L854.203125,776.097656L845.792969,771.238281L849.734375,778.054688L849.734375,783.0625L845.398438,780.558594L841.488281,773.761719L841.488281,783.441406L853.273438,790.242188L853.265625,796.039063L841.398438,789.191406L841.40625,794.332031L853.160156,801.117188L853.160156,806.898438L841.472656,800.148438L841.433594,809.175781C842.038086,809.753052,842.41095,810.533691,842.472656,811.367188C842.576294,812.572815,842.056763,813.748962,841.089844,814.476563C840.920105,814.600891,840.743469,814.715881,840.554688,814.808594L840.269531,814.933594C838.867615,815.484558,837.269043,815.078979,836.304688,813.921875L836.148438,813.722656C835.148254,812.343994,835.294128,810.441101,836.496094,809.234375L836.441406,809.234375L836.429688,800.210938L824.734375,806.96875L824.734375,801.1875L836.496094,794.492188L836.484375,789.328125L824.753906,796.105469L824.777344,790.320313L836.496094,783.554688L836.488281,773.855469L832.558594,780.660156L828.214844,783.183594L828.226563,778.160156L832.144531,771.367188L823.765625,776.203125L823.75,789.726563L818.75,792.640625L818.75,779.109375L814.292969,781.675781L814.296875,795.164063L809.28125,798.066406L809.300781,784.464844L801.496094,788.972656L798.992188,784.632813L806.792969,780.128906L795.074219,773.359375L800.015625,770.585938L811.703125,777.332031L816.171875,774.753906L804.449219,767.984375L809.472656,765.105469L821.195313,771.871094L829.574219,767.035156L821.714844,767.035156L817.367188,764.523438L821.71875,762.027344L829.574219,762.027344L821.179688,757.179688L809.484375,763.9375L804.476563,761.042969L816.195313,754.28125L811.730469,751.703125L800.046875,758.445313L795.023438,755.542969L806.707031,748.800781L798.902344,744.296875L801.40625,739.960938L809.210938,744.46875L809.214844,730.960938L814.222656,733.855469L814.21875,747.359375L818.679688,749.9375L818.6875,736.390625L823.699219,739.28125L823.699219,752.8125L832.082031,757.652344L828.152344,750.84375L828.140625,745.828125L832.488281,748.339844L836.433594,755.15625L836.425781,745.453125L824.722656,738.695313L824.703125,732.90625L836.421875,739.671875L836.425781,734.515625L824.738281,727.765625L824.734375,721.984375L836.457031,728.753906L836.40625,719.753906L841.414063,719.753906L841.414063,728.765625z"/>
    <path transform="matrix(-1,0,0,-1,8,-4.483154)" style="stroke:#000000;stroke-width:0.05mm;fill:none" d="M838.683594,810.210938C838.579041,810.238525,838.4776,810.276184,838.378906,810.320313C838.280029,810.365356,838.186279,810.419983,838.09375,810.476563L837.925781,810.617188C837.863037,810.691528,837.802856,810.767761,837.742188,810.84375L837.667969,810.964844L837.585938,811.171875C837.533875,811.336853,837.502502,811.507324,837.488281,811.679688L837.503906,811.902344L837.554688,812.117188C837.605774,812.256348,837.670044,812.390076,837.742188,812.519531C837.969482,812.838928,838.307434,813.06134,838.691406,813.140625L838.988281,813.179688C839.185242,813.157043,839.3797,813.116943,839.570313,813.0625L839.824219,812.921875C839.980713,812.809448,840.113708,812.668884,840.230469,812.515625C840.343323,812.355896,840.4151,812.171753,840.457031,811.980469L840.488281,811.679688C840.477051,811.483215,840.436218,811.289734,840.367188,811.105469C840.259888,810.885864,840.117554,810.685242,839.9375,810.519531L839.824219,810.433594C839.677307,810.345764,839.521667,810.273071,839.355469,810.230469L839.132813,810.191406C838.983154,810.171082,838.832397,810.185181,838.683594,810.210938z"/>
    <path transform="matrix(-1,0,0,-1,8,-4.483154)" style="stroke:#000000;stroke-width:0.05mm;fill:none" d="M834.742188,762.011719L834.75,766.855469L838.957031,769.285156L843.140625,766.859375L843.148438,762.027344L838.941406,759.597656L834.742188,762.011719z"/>
    <path transform="matrix(-1,0,0,-1,180.478516,-311.714844)" style="stroke:#000000;stroke-width:0.05mm;fill:none" d="M888.046875,487.585938L888.039063,492.527344L891.636719,490.449219L895.144531,496.5L887.933594,500.535156L887.933594,507.621094L892.355469,505.035156L895.058594,509.550781L898.765625,503.128906L900.839844,506.46875L904.804688,506.613281L901.09375,513.035156L906.179688,513.019531L906.175781,518.175781L912.28125,514.613281L912.273438,506.390625L919.269531,506.402344L919.328125,510.527344L923.628906,508.042969L927.136719,514.09375L922.84375,516.558594L926.441406,518.636719L922.945313,524.6875L915.867188,520.601563L909.730469,524.144531L914.160156,526.703125L911.566406,531.199219L918.992188,531.203125L917,534.65625L918.957031,538.160156L911.5625,538.175781L914.128906,542.589844L909.648438,545.160156L915.71875,548.664063L922.824219,544.546875L926.332031,550.597656L922.664063,552.761719L926.96875,555.246094L923.472656,561.296875L919.1875,558.824219L919.195313,562.960938L912.191406,562.964844L912.203125,554.792969L906.070313,551.25L906.085938,556.375L900.894531,556.355469L904.597656,562.773438L900.605469,562.824219L898.605469,566.292969L894.9375,559.894531L892.386719,564.308594L887.941406,561.742188L887.9375,568.824219L895.050781,572.929688L891.574219,578.953125L887.945313,576.855469L887.945313,581.824219L887.519531,581.824219C888.488403,583.407471,888.048584,585.472961,886.515625,586.519531C884.939392,587.593994,882.794678,587.214722,881.683594,585.664063C880.868958,584.526428,880.818176,583.01001,881.554688,581.820313L880.96875,581.820313L880.976563,576.878906L877.378906,578.957031L873.882813,572.890625L880.96875,568.804688L880.972656,561.722656L876.53125,564.296875L873.953125,559.789063L870.246094,566.210938L868.199219,562.78125L864.113281,562.777344L867.824219,556.355469L862.722656,556.363281L862.851563,551.28125L856.726563,554.808594L856.730469,563.03125L849.695313,563.097656L849.75,558.851563L845.449219,561.332031L841.941406,555.285156L846.214844,552.808594L842.621094,550.730469L846.105469,544.695313L853.1875,548.78125L859.320313,545.238281L854.890625,542.679688L857.429688,538.28125L850.003906,538.277344L851.996094,534.824219L850.039063,531.316406L857.433594,531.304688L854.863281,526.890625L859.347656,524.316406L853.214844,520.777344L846.105469,524.894531L842.609375,518.828125L846.277344,516.664063L841.972656,514.179688L845.488281,508.097656L849.773438,510.570313L849.773438,506.417969L856.765625,506.429688L856.757813,514.601563L862.890625,518.144531L862.875,513.019531L868.0625,513.039063L864.363281,506.621094L868.351563,506.570313L870.355469,503.101563L874.023438,509.5L876.5625,505.101563L881.027344,507.679688L881.027344,500.59375L873.914063,496.488281L877.410156,490.4375L881.039063,492.53125L881.039063,487.5625L888.046875,487.585938z"/>
    <path transform="matrix(-1,0,0,-1,180.478516,-311.714844)" style="stroke:#000000;stroke-width:0.05mm;fill:none" d="M884.230469,582.167969C884.042969,582.2146,883.864685,582.291077,883.699219,582.390625C883.455078,582.555237,883.266113,582.788635,883.148438,583.058594L883.101563,583.195313C883.074524,583.32959,883.053345,583.464966,883.042969,583.601563C883.039368,583.772156,883.066406,583.941467,883.113281,584.105469C883.220642,584.42926,883.433044,584.708191,883.71875,584.894531L883.949219,585.019531C884.138794,585.083008,884.335938,585.120056,884.535156,585.136719C884.933044,585.137146,885.316223,584.980347,885.59375,584.695313L885.78125,584.472656C886.188171,583.878418,886.110168,583.076233,885.59375,582.574219L885.375,582.394531C885.205566,582.288086,885.020081,582.209106,884.824219,582.167969C884.627625,582.13501,884.427063,582.134888,884.230469,582.167969z"/>
    <path transform="matrix(-1,0,0,-1,180.478516,-311.714844)" style="stroke:#000000;stroke-width:0.05mm;fill:none" d="M877.453125,553.761719L878.753906,556.03125L880.949219,554.75L880.941406,547.722656L877.453125,553.761719z"/>
    <path transform="matrix(-1,0,0,-1,180.478516,-311.714844)" style="stroke:#000000;stroke-width:0.05mm;fill:none" d="M887.9375,554.738281L890.167969,556.027344L891.4375,553.828125L887.933594,547.738281L887.9375,554.738281z"/>
    <path transform="matrix(-1,0,0,-1,180.478516,-311.714844)" style="stroke:#000000;stroke-width:0.05mm;fill:none" d="M868.847656,547.722656L868.832031,550.304688L871.398438,550.308594L874.902344,544.238281L868.847656,547.722656z"/>
    <path transform="matrix(-1,0,0,-1,180.478516,-311.714844)" style="stroke:#000000;stroke-width:0.05mm;fill:none" d="M897.464844,550.285156L900.085938,550.300781L900.074219,547.769531L893.988281,544.253906L897.464844,550.285156z"/>
    <path transform="matrix(-1,0,0,-1,180.478516,-311.714844)" style="stroke:#000000;stroke-width:0.05mm;fill:none" d="M881.792969,529.933594L876.300781,526.765625L876.296875,529.886719L873.59375,531.453125L879.085938,534.621094L873.542969,537.84375L876.257813,539.410156L876.25,542.535156L881.777344,539.300781L881.726563,545.695313L884.367188,544.308594L887.066406,545.867188L887.101563,539.464844L892.589844,542.632813L892.605469,539.496094L895.296875,537.945313L889.808594,534.777344L895.347656,531.554688L892.636719,529.988281L892.71875,526.695313L887.191406,529.925781L887.242188,523.535156L884.523438,525.089844L881.828125,523.53125L881.792969,529.933594z"/>
    <path transform="matrix(-1,0,0,-1,180.478516,-311.714844)" style="stroke:#000000;stroke-width:0.05mm;fill:none" d="M903.550781,541.707031L905.796875,540.410156L904.515625,538.21875L897.5,538.210938L903.550781,541.707031z"/>
    <path transform="matrix(-1,0,0,-1,180.478516,-311.714844)" style="stroke:#000000;stroke-width:0.05mm;fill:none" d="M863.121094,540.433594L865.320313,541.703125L871.421875,538.183594L864.429688,538.167969L863.121094,540.433594z"/>
    <path transform="matrix(-1,0,0,-1,180.478516,-311.714844)" style="stroke:#000000;stroke-width:0.05mm;fill:none" d="M897.496094,531.210938L904.480469,531.238281L905.785156,528.972656L903.585938,527.703125L897.496094,531.210938z"/>
    <path transform="matrix(-1,0,0,-1,180.478516,-311.714844)" style="stroke:#000000;stroke-width:0.05mm;fill:none" d="M863.121094,528.980469L864.417969,531.183594L871.410156,531.195313L865.355469,527.703125L863.121094,528.980469z"/>
    <path transform="matrix(-1,0,0,-1,180.478516,-311.714844)" style="stroke:#000000;stroke-width:0.05mm;fill:none" d="M894.003906,525.167969L900.0625,521.6875L900.074219,519.105469L897.507813,519.101563L894.003906,525.167969z"/>
    <path transform="matrix(-1,0,0,-1,180.478516,-311.714844)" style="stroke:#000000;stroke-width:0.05mm;fill:none" d="M868.835938,521.640625L874.917969,525.152344L871.453125,519.105469L868.828125,519.089844L868.835938,521.640625z"/>
    <path transform="matrix(-1,0,0,-1,180.478516,-311.714844)" style="stroke:#000000;stroke-width:0.05mm;fill:none" d="M877.472656,515.582031L880.976563,521.671875L880.972656,514.667969L878.742188,513.382813L877.472656,515.582031z"/>
    <path transform="matrix(-1,0,0,-1,180.478516,-311.714844)" style="stroke:#000000;stroke-width:0.05mm;fill:none" d="M887.984375,514.648438L887.976563,521.667969L891.453125,515.648438L890.152344,513.375L887.984375,514.648438z"/>
    <path transform="matrix(-1,0,0,-1,10,-4.848328)" style="stroke:#000000;stroke-width:0.05mm;fill:none" d="M886.007813,798.238281L889.742188,796.128906L889.753906,801.328125L886.015625,803.441406L886.023438,806.695313L893.441406,802.433594L893.449219,807.632813L886.03125,811.894531L886.023438,815.191406L897.167969,808.761719L897.167969,813.960938L888.273438,819.113281L900.800781,826.34375L900.816406,816.054688L905.320313,813.464844L905.351563,826.351563L908.207031,824.695313L908.199219,816.046875L912.703125,813.457031L912.753906,822.03125L915.601563,820.375L915.585938,815.953125L920.097656,813.351563L919.992188,817.816406L923.191406,815.976563L925.449219,819.894531L922.265625,821.695313L926.015625,823.863281L921.527344,826.511719L917.808594,824.367188L914.984375,825.992188L922.449219,830.296875L917.945313,832.886719L910.480469,828.585938L907.625,830.238281L918.769531,836.671875L914.265625,839.265625L905.375,834.136719L905.351563,848.632813L914.230469,843.519531L918.742188,846.121094L907.625,852.519531L910.464844,854.160156L917.878906,849.894531L922.390625,852.503906L914.945313,856.742188L917.785156,858.382813L921.625,856.183594L926.144531,858.792969L922.296875,860.992188L925.503906,862.839844L923.257813,866.734375L920.046875,864.886719L920.070313,869.214844L915.558594,866.617188L915.535156,862.28125L912.695313,860.640625L912.6875,869.222656L908.175781,866.625L908.183594,858.03125L905.375,856.417969L905.34375,869.257813L900.824219,866.648438L900.839844,856.367188L888.296875,863.640625L897.175781,868.769531L897.183594,873.96875L885.9375,867.472656L885.929688,870.769531L893.425781,875.097656L893.433594,880.296875L885.894531,875.945313L885.910156,879.199219L889.734375,881.40625L889.71875,886.648438L885.894531,884.441406L885.902344,887.769531L886.207031,888.039063C886.967712,888.795654,887.338135,889.862,887.199219,890.925781C887.152161,891.368469,887.013367,891.796814,886.792969,892.183594L886.621094,892.460938C886.058289,893.285034,885.172363,893.829956,884.183594,893.964844C883.625,894.042358,883.056091,893.977295,882.527344,893.78125C881.919922,893.560974,881.38092,893.181946,880.984375,892.671875C880.458069,892.014893,880.187744,891.188354,880.230469,890.347656L880.253906,890.066406C880.31311,889.645142,880.437195,889.235168,880.636719,888.859375C880.8255,888.489136,881.084656,888.159241,881.398438,887.886719L881.375,884.449219L877.617188,886.601563L877.609375,881.398438L881.40625,879.175781L881.398438,875.921875L873.96875,880.214844L873.960938,875.023438L881.390625,870.71875L881.375,867.464844L870.257813,873.855469L870.246094,868.65625L879.128906,863.542969L866.601563,856.3125L866.609375,866.558594L862.097656,869.238281L862.078125,856.417969L859.246094,858.03125L859.296875,866.609375L854.792969,869.199219L854.742188,860.625L851.910156,862.246094L851.929688,866.671875L847.367188,869.28125L847.367188,864.816406L844.191406,866.625L841.921875,862.734375L845.097656,860.9375L841.3125,858.742188L845.839844,856.121094L849.625,858.304688L852.457031,856.6875L844.992188,852.375L849.496094,849.785156L856.960938,854.097656L859.808594,852.441406L848.671875,846.007813L853.175781,843.40625L862.0625,848.542969L862.078125,834.039063L853.183594,839.191406L848.671875,836.585938L859.847656,830.175781L857.007813,828.535156L849.535156,832.816406L845.023438,830.207031L852.496094,825.929688L849.65625,824.289063L845.945313,826.511719L841.464844,823.929688L845.273438,821.710938L842.0625,819.863281L844.3125,815.96875L847.519531,817.816406L847.472656,813.519531L851.953125,816.105469L851.953125,820.472656L854.792969,822.113281L854.777344,813.558594L859.296875,816.167969L859.3125,824.71875L862.152344,826.359375L862.128906,813.527344L866.640625,816.136719L866.648438,826.382813L879.191406,819.113281L870.3125,813.984375L870.304688,808.785156L881.550781,815.28125L881.527344,811.96875L873.992188,807.617188L873.984375,802.417969L881.480469,806.742188L881.472656,803.488281L877.648438,801.28125L877.664063,796.039063L881.480469,798.246094L881.457031,794.59375L885.976563,794.585938L886.007813,798.238281z"/>
    <path transform="matrix(-1,0,0,-1,10,-4.848328)" style="stroke:#000000;stroke-width:0.05mm;fill:none" d="M883.648438,889C883.335632,889.021606,883.0354,889.134155,882.789063,889.328125L882.664063,889.433594L882.523438,889.597656C882.396057,889.779358,882.308716,889.985474,882.265625,890.203125C882.247986,890.300232,882.233582,890.397949,882.222656,890.496094L882.238281,890.71875C882.269714,890.875305,882.325195,891.024841,882.386719,891.171875C882.464172,891.310974,882.560303,891.438049,882.664063,891.558594L882.769531,891.65625C882.84845,891.71051,882.926147,891.766357,883.007813,891.816406C883.117676,891.871094,883.232788,891.914307,883.351563,891.945313L883.574219,891.980469L883.800781,891.984375C884.023499,891.97229,884.240173,891.912415,884.441406,891.816406L884.566406,891.746094C884.646118,891.691772,884.716125,891.625732,884.785156,891.558594C884.886414,891.452454,884.96991,891.331787,885.046875,891.207031L885.105469,891.078125C885.177368,890.866394,885.220154,890.645813,885.21875,890.421875C885.213928,890.298218,885.192078,890.175781,885.152344,890.058594C885.111328,889.944885,885.064636,889.833374,885.007813,889.726563L884.886719,889.546875L884.738281,889.390625C884.557617,889.251221,884.358521,889.138245,884.144531,889.058594C884.035767,889.035767,883.926514,889.015198,883.816406,889L883.648438,889z"/>
    <path transform="matrix(-1,0,0,-1,10,-4.848328)" style="stroke:#000000;stroke-width:0.05mm;fill:none" d="M876.0625,855.652344L876.179688,855.867188C876.15094,856.123047,876.116699,856.378235,876.078125,856.632813L883.796875,861.089844L891.445313,856.671875C891.344543,856.453918,891.287476,856.219177,891.261719,855.980469L891.40625,855.558594L883.75,851.160156L876.0625,855.652344z"/>
    <path transform="matrix(-1,0,0,-1,10,-4.848328)" style="stroke:#000000;stroke-width:0.05mm;fill:none" d="M892.292969,846.289063L892.414063,855.117188L892.753906,855.242188C892.885071,855.38092,893.015076,855.519897,893.144531,855.660156L900.847656,851.226563L900.875,842.355469L900.664063,842.382813L900.28125,842.207031C900.153381,842.116882,900.033264,842.016174,899.921875,841.90625L892.292969,846.289063z"/>
    <path transform="matrix(-1,0,0,-1,10,-4.848328)" style="stroke:#000000;stroke-width:0.05mm;fill:none" d="M867.304688,842.148438C867.087769,842.219421,866.870483,842.288452,866.652344,842.355469L866.648438,851.1875L874.367188,855.644531L874.589844,855.339844L874.941406,855.152344L875.207031,855.113281L875.230469,846.242188L867.554688,841.882813L867.304688,842.148438z"/>
    <path transform="matrix(-1,0,0,-1,10,-4.848328)" style="stroke:#000000;stroke-width:0.05mm;fill:none" d="M879.296875,838.78125L874.925781,841.308594L879.292969,843.832031L879.308594,848.9375L883.699219,846.375L888.179688,848.960938L888.179688,843.910156L892.570313,841.351563L888.09375,838.765625L888.09375,833.71875L883.6875,836.222656L879.320313,833.699219L879.296875,838.78125z"/>
    <path transform="matrix(-1,0,0,-1,10,-4.848328)" style="stroke:#000000;stroke-width:0.05mm;fill:none" d="M892.910156,827.292969L892.628906,827.546875L892.347656,827.53125L892.300781,836.4375L899.890625,840.867188C900.076843,840.688843,900.279907,840.528931,900.5,840.394531L900.863281,840.359375L900.886719,831.488281L893.203125,827.054688L892.910156,827.292969z"/>
    <path transform="matrix(-1,0,0,-1,10,-4.848328)" style="stroke:#000000;stroke-width:0.05mm;fill:none" d="M866.625,831.46875L866.636719,840.359375L866.929688,840.386719L867.21875,840.449219L867.539063,840.734375L867.570313,840.847656L875.21875,836.429688L875.222656,827.59375L875.128906,827.589844L874.757813,827.472656C874.620117,827.315735,874.483582,827.157837,874.351563,826.996094L866.625,831.46875z"/>
    <path transform="matrix(-1,0,0,-1,10,-4.848328)" style="stroke:#000000;stroke-width:0.05mm;fill:none" d="M876.050781,825.988281L876.238281,826.335938L876.269531,826.53125C876.264587,826.663086,876.243896,826.793396,876.214844,826.921875L876.136719,827.105469L883.746094,831.496094L891.472656,827.027344L891.351563,826.8125L891.34375,826.617188C891.339661,826.42157,891.384033,826.22876,891.457031,826.046875L883.699219,821.570313L876.050781,825.988281z"/>
    <path transform="matrix(-1,0,0,-1,11.177734,-5.460938)" style="stroke:#000000;stroke-width:0.05mm;fill:none" d="M887.839844,639.859375L887.851563,648.921875L891.535156,646.769531L894.445313,651.808594L887.867188,655.609375L887.863281,660.210938L896.457031,655.261719L899.351563,660.292969L887.882813,666.921875L887.882813,671.523438L890.019531,675.238281L895.347656,666.007813L898.566406,664.140625L898.558594,667.863281L893.265625,677.03125L897.5625,677.003906L901.449219,674.753906L901.441406,661.5L907.261719,661.5L907.257813,671.40625L911.292969,669.09375L911.292969,661.492188L917.097656,661.484375L917.089844,665.761719L924.945313,661.238281L927.855469,666.175781L919.992188,670.710938L923.667969,672.832031L920.765625,677.859375L914.183594,674.058594L910.199219,676.359375L918.773438,681.308594L915.863281,686.351563L904.382813,679.722656L900.492188,681.972656L898.324219,685.730469L909.003906,685.773438L912.214844,687.628906L909.003906,689.476563L898.316406,689.449219L900.453125,693.167969L904.417969,695.457031L915.902344,688.835938L918.800781,693.871094L910.230469,698.8125L914.210938,701.109375L920.894531,697.324219L923.804688,702.367188L920.105469,704.511719L927.957031,709.046875L925.046875,714.085938L917.195313,709.554688L917.1875,713.832031L911.363281,713.832031L911.363281,706.230469L907.382813,703.933594L907.375,713.839844L901.578125,713.832031L901.570313,700.578125L897.605469,698.285156L893.316406,698.296875L898.683594,707.539063L898.679688,711.257813L895.46875,709.40625L890.101563,700.160156L887.921875,703.933594L887.910156,708.445313L899.386719,715.070313L896.488281,720.097656L887.914063,715.148438L887.910156,719.75L894.445313,723.519531L891.542969,728.546875L887.867188,726.421875L887.871094,735.253906C888.966003,736.77063,888.659668,738.88324,887.179688,740.027344C886.521667,740.541443,885.701416,740.802917,884.867188,740.765625C884.390381,740.73938,883.923645,740.618713,883.492188,740.414063L883.074219,740.179688C882.947815,740.094421,882.827209,740.000977,882.710938,739.902344C882.596375,739.800964,882.48938,739.691528,882.386719,739.578125C881.809692,738.908081,881.500427,738.047913,881.527344,737.164063C881.531494,736.855103,881.584534,736.549133,881.675781,736.253906C881.772888,735.960632,881.898315,735.677124,882.066406,735.417969L882.0625,726.433594L878.359375,728.578125L875.457031,723.5625L882.039063,719.761719L882.039063,715.160156L873.472656,720.101563L870.558594,715.0625L882.042969,708.441406L882.046875,703.949219L879.914063,700.230469L874.628906,709.382813L871.410156,711.25L871.417969,707.527344L876.738281,698.3125L872.453125,698.320313L868.476563,700.609375L868.472656,713.855469L862.667969,713.863281L862.660156,703.972656L858.679688,706.273438L858.679688,713.875L852.867188,713.855469L852.890625,709.589844L845.027344,714.125L842.128906,709.09375L849.992188,704.558594L846.316406,702.433594L849.21875,697.410156L855.800781,701.210938L859.703125,698.859375L851.132813,693.910156L854.03125,688.886719L865.511719,695.511719L869.375,693.269531L871.542969,689.511719L860.972656,689.511719L857.761719,687.65625L860.980469,685.789063L871.550781,685.792969L869.433594,682.042969L865.550781,679.800781L854.0625,686.421875L851.160156,681.40625L859.738281,676.445313L855.757813,674.148438L849.175781,677.945313L846.261719,672.90625L849.960938,670.757813L842.09375,666.21875L844.996094,661.191406L852.863281,665.734375L852.871094,661.457031L858.695313,661.457031L858.695313,669.058594L862.675781,671.355469L862.667969,661.546875L868.472656,661.539063L868.484375,674.792969L872.367188,677.039063L876.671875,676.996094L871.367188,667.832031L871.367188,664.128906L874.578125,665.984375L879.867188,675.136719L882.027344,671.398438L882.03125,666.902344L870.628906,660.324219L873.578125,655.214844L882.152344,660.167969L882.152344,655.566406L875.523438,651.738281L878.425781,646.710938L882.101563,648.835938L882.097656,639.757813L887.839844,639.859375z"/>
    <path transform="matrix(-1,0,0,-1,11.177734,-5.460938)" style="stroke:#000000;stroke-width:0.05mm;fill:none" d="M884.941406,735.785156L884.71875,735.804688C884.578796,735.842346,884.446167,735.900635,884.316406,735.964844L884.132813,736.078125L883.960938,736.210938L883.824219,736.378906C883.754211,736.477722,883.690491,736.580933,883.640625,736.691406C883.575623,736.879211,883.539856,737.075378,883.523438,737.273438L883.542969,737.492188C883.574585,737.637329,883.617981,737.779541,883.671875,737.917969C883.786987,738.159668,883.962524,738.368835,884.191406,738.507813C884.352417,738.619873,884.532959,738.701233,884.726563,738.734375L885.023438,738.773438C885.220825,738.753601,885.4151,738.711975,885.605469,738.65625L885.859375,738.515625C885.972961,738.426758,886.083008,738.333252,886.175781,738.222656L886.265625,738.109375C886.321167,738.02887,886.360229,737.939758,886.402344,737.851563C886.435242,737.760071,886.466187,737.667969,886.492188,737.574219L886.523438,737.273438L886.5,737.050781C886.468628,736.905579,886.425415,736.763306,886.371094,736.625L886.265625,736.433594C886.208923,736.356873,886.145386,736.28595,886.082031,736.214844C886.01416,736.147583,885.938293,736.090088,885.863281,736.03125L885.605469,735.890625C885.462158,735.845642,885.316528,735.808105,885.167969,735.785156L884.941406,735.785156z"/>
    <path transform="matrix(-1,0,0,-1,11.177734,-5.460938)" style="stroke:#000000;stroke-width:0.05mm;fill:none" d="M882.125,696.429688L885.070313,701.492188L888.015625,696.386719L885.082031,691.308594L882.125,696.429688z"/>
    <path transform="matrix(-1,0,0,-1,11.177734,-5.460938)" style="stroke:#000000;stroke-width:0.05mm;fill:none" d="M875.96875,689.515625L873.058594,694.558594L878.929688,694.585938L881.859375,689.511719L875.96875,689.515625z"/>
    <path transform="matrix(-1,0,0,-1,11.177734,-5.460938)" style="stroke:#000000;stroke-width:0.05mm;fill:none" d="M891.230469,694.5625L897.0625,694.546875L894.175781,689.539063L888.3125,689.535156L891.230469,694.5625z"/>
    <path transform="matrix(-1,0,0,-1,11.177734,-5.460938)" style="stroke:#000000;stroke-width:0.05mm;fill:none" d="M891.246094,680.742188L888.308594,685.832031L894.144531,685.773438L897.113281,680.742188L891.246094,680.742188z"/>
    <path transform="matrix(-1,0,0,-1,11.177734,-5.460938)" style="stroke:#000000;stroke-width:0.05mm;fill:none" d="M875.960938,685.828125L881.890625,685.828125L878.898438,680.699219L872.9375,680.679688L875.960938,685.828125z"/>
    <path transform="matrix(-1,0,0,-1,11.177734,-5.460938)" style="stroke:#000000;stroke-width:0.05mm;fill:none" d="M882.148438,678.890625L885.097656,683.976563L888.007813,678.933594L885.027344,673.832031L882.148438,678.890625z"/>
    <path transform="matrix(-1,0,0,-1,140.406006,74.578125)" style="stroke:#000000;stroke-width:0.05mm;fill:none" d="M928.082031,724.929688L933.414063,719.804688L936.441406,731.007813L929.179688,738.371094C929.282715,738.468445,929.371277,738.580017,929.441406,738.703125L933.949219,736.191406L936.898438,741.273438L940.675781,734.734375L949.507813,739.832031L945.730469,746.375L951.636719,746.402344L951.605469,751.703125L951.828125,751.675781L952.050781,751.683594L954.878906,741.648438L966.121094,738.644531L964.367188,745.824219L971.476563,747.898438L963.265625,756.117188L953.378906,753.53125L953.351563,753.640625C953.309021,753.74353,953.265137,753.845886,953.207031,753.941406L957.585938,756.46875L954.640625,761.566406L962.121094,761.617188L962.167969,771.890625L954.644531,771.816406L957.582031,776.917969L953.210938,779.484375C953.252563,779.551941,953.29303,779.620178,953.328125,779.691406C953.358459,779.765198,953.378845,779.84198,953.402344,779.917969L963.140625,777.597656L971.238281,785.78125L964.164063,787.859375L965.902344,795.023438L954.777344,792.082031L951.921875,781.796875L951.730469,781.789063L951.617188,781.761719L951.578125,787.316406L945.664063,787.367188L949.492188,793.84375L940.574219,798.941406L936.8125,792.445313L933.84375,797.585938L929.214844,794.914063L929.125,795.078125L929.023438,795.238281L936.347656,802.660156L933.324219,813.878906L931.597656,812.179688C931.58606,812.310364,931.571411,812.440735,931.550781,812.570313C931.228333,814.404297,929.523987,815.660522,927.675781,815.433594C926.111694,815.237854,924.869873,814.024414,924.640625,812.464844C924.620789,812.313293,924.611389,812.160645,924.609375,812.007813L922.714844,813.820313L919.683594,802.609375L926.800781,795.339844L926.730469,795.269531L926.621094,795.128906L926.53125,794.972656L922.171875,797.433594L919.199219,792.328125L915.425781,798.867188L906.589844,793.769531L910.367188,787.226563L904.484375,787.222656L904.515625,781.792969C904.441467,781.805603,904.366943,781.814819,904.292969,781.828125L904.121094,781.820313L901.359375,791.773438L890.132813,794.769531L891.902344,787.597656L884.738281,785.585938L892.929688,777.398438L902.785156,779.914063C902.828247,779.769104,902.888916,779.629822,902.972656,779.503906L898.636719,777L901.617188,771.839844L894.09375,771.765625L894.085938,761.523438L901.609375,761.582031L898.652344,756.476563L902.859375,753.988281C902.792664,753.92218,902.724426,753.857605,902.65625,753.792969C902.596619,753.718811,902.541138,753.641541,902.488281,753.5625L892.96875,756.066406L884.832031,747.855469L891.945313,745.804688L890.167969,738.613281L901.332031,741.578125L904.027344,751.328125C904.189575,751.355408,904.346741,751.407471,904.492188,751.484375L904.507813,746.332031L910.417969,746.324219L906.597656,739.851563L915.46875,734.738281L919.296875,741.214844L922.246094,736.109375L926.816406,738.75L926.910156,738.589844L927.027344,738.449219L919.703125,731.023438L922.722656,719.796875L928.082031,724.929688z"/>
    <path transform="matrix(-1,0,0,-1,140.406006,74.578125)" style="stroke:#000000;stroke-width:0.05mm;fill:none" d="M927.800781,810.496094C927.660522,810.533203,927.525635,810.58667,927.394531,810.648438C927.096497,810.814453,926.855957,811.068604,926.722656,811.382813C926.558105,811.777222,926.566223,812.223572,926.75,812.609375L926.859375,812.804688L927.042969,813.027344C927.189575,813.151489,927.349609,813.25824,927.519531,813.347656C927.896606,813.487183,928.310669,813.487976,928.6875,813.347656L928.941406,813.207031L929.164063,813.023438C929.297424,812.883301,929.403442,812.720581,929.488281,812.546875C929.553772,812.359009,929.595154,812.163635,929.605469,811.964844L929.574219,811.664063C929.546021,811.570557,929.517273,811.477234,929.480469,811.386719C929.415527,811.202148,929.307739,811.035034,929.164063,810.902344L928.945313,810.722656L928.6875,810.582031C928.475342,810.502197,928.249939,810.462585,928.023438,810.472656L927.800781,810.496094z"/>
    <path transform="matrix(-1,0,0,-1,140.406006,74.578125)" style="stroke:#000000;stroke-width:0.05mm;fill:none" d="M922.457031,777.359375L922.601563,777.894531C922.455872,778.112305,922.293335,778.318115,922.121094,778.515625L928.007813,788.765625L933.890625,778.574219L933.515625,778.125L933.511719,777.941406L933.527344,777.757813L933.558594,777.574219L933.605469,777.394531L933.679688,777.34375L928.101563,774.410156L922.457031,777.359375z"/>
    <path transform="matrix(-1,0,0,-1,140.406006,74.578125)" style="stroke:#000000;stroke-width:0.05mm;fill:none" d="M934.730469,770.5625L934.519531,776.996094L934.863281,777.058594L935.160156,777.324219L935.246094,777.554688L935.316406,777.789063L947.207031,777.800781L941.191406,767.453125L940.714844,767.542969L940.25,767.484375L940.058594,767.238281L934.730469,770.5625z"/>
    <path transform="matrix(-1,0,0,-1,140.406006,74.578125)" style="stroke:#000000;stroke-width:0.05mm;fill:none" d="M916.019531,767.5L915.773438,767.671875L915.417969,767.726563L914.898438,767.425781L908.933594,777.753906L920.757813,777.726563C920.879517,777.498352,920.997192,777.268188,921.109375,777.035156C921.307922,776.944702,921.518433,776.882324,921.734375,776.851563L921.5,770.597656L916.257813,767.332031L916.019531,767.5z"/>
    <path transform="matrix(-1,0,0,-1,140.406006,74.578125)" style="stroke:#000000;stroke-width:0.05mm;fill:none" d="M914.921875,766.109375L915.285156,765.894531L915.550781,765.921875C915.723083,765.9646,915.888855,766.028809,916.046875,766.109375L916.261719,766.261719L921.519531,762.933594L921.714844,756.644531C921.565918,756.625122,921.419128,756.590027,921.28125,756.53125C921.032532,756.337585,920.867676,756.056458,920.8125,755.746094L908.96875,755.726563L914.921875,766.109375z"/>
    <path transform="matrix(-1,0,0,-1,140.406006,74.578125)" style="stroke:#000000;stroke-width:0.05mm;fill:none" d="M935.300781,755.898438L935.179688,756.261719C934.986023,756.412598,934.786743,756.555908,934.582031,756.691406L934.453125,756.675781L934.722656,762.945313L939.941406,766.242188L940.144531,765.984375C940.376709,765.907166,940.612671,765.84198,940.851563,765.789063L941.257813,765.980469L947.089844,755.71875L935.242188,755.707031L935.300781,755.898438z"/>
    <path transform="matrix(-1,0,0,-1,140.406006,74.578125)" style="stroke:#000000;stroke-width:0.05mm;fill:none" d="M922.113281,754.925781L922.449219,755.164063L922.667969,755.488281L922.542969,756.199219L928.121094,759.132813L933.597656,756.226563L933.488281,755.996094C933.475098,755.841492,933.469543,755.686401,933.46875,755.53125L933.621094,755.273438L933.8125,755.039063L933.949219,754.960938L928.015625,744.707031L922.113281,754.925781z"/>
    <path transform="matrix(-1,0,0,-1,7,-5.608643)" style="stroke:#000000;stroke-width:0.05mm;fill:none" d="M759.867188,721.617188L758.054688,725.386719L761.675781,723.902344L764.523438,727.496094L760.164063,729.261719L761.621094,736.824219L759.441406,743.121094L765.425781,740.6875L764.433594,733.585938L767.796875,732.210938L768.371094,735.21875L769.898438,731.347656L774.835938,729.359375L775.582031,734.628906L772.996094,737.886719L775.886719,736.882813L776.378906,740.484375L769.730469,743.171875L770.617188,749.570313L774.980469,744.535156L782.257813,742.015625L781.605469,737.359375L786.140625,738.027344L786.664063,741.90625L789.023438,738.449219L796.890625,739.546875L793.921875,746.949219L789.742188,747.257813L792.84375,749.667969L791.136719,753.925781L787.363281,751.042969L781.546875,756.074219L775.015625,757.335938L780.109375,761.304688L785.765625,756.886719L788.628906,759.117188L786.300781,761.113281L790.425781,760.496094L794.621094,763.796875L790.421875,767.066406L786.304688,766.445313L788.625,768.46875L785.761719,770.6875L780.113281,766.273438L774.917969,770.1875L781.453125,771.433594L787.273438,776.484375L791.074219,773.605469L792.789063,777.871094L789.648438,780.339844L793.785156,780.589844L796.777344,787.945313L788.902344,789.15625L786.621094,785.699219L786.050781,789.652344L781.5,790.300781L782.09375,785.566406L774.808594,783.054688L770.460938,778.019531L769.570313,784.417969L776.21875,787.101563L775.730469,790.691406L772.816406,789.695313L775.410156,792.949219L774.730469,798.097656L769.78125,796.101563L768.246094,792.238281L767.683594,795.25L764.316406,793.886719L765.316406,786.777344L759.332031,784.351563L761.507813,790.636719L760.054688,798.191406L764.441406,800.015625L761.605469,803.625L757.964844,802.144531L759.792969,805.914063L756.183594,810.613281C757.897461,811.297913,758.779785,813.199951,758.203125,814.953125C757.885193,815.918762,757.159302,816.696167,756.21875,817.082031C756.018738,817.174438,755.806519,817.236877,755.589844,817.277344L755.265625,817.328125C753.414734,817.532837,751.729248,816.251343,751.425781,814.414063C751.403687,814.257202,751.388672,814.099487,751.378906,813.941406C751.343445,812.494507,752.204834,811.176453,753.542969,810.625L749.941406,806.03125L751.753906,802.261719L748.136719,803.746094L745.296875,800.136719L749.65625,798.371094L748.199219,790.808594L750.378906,784.511719L744.382813,786.960938L745.425781,793.980469L742.0625,795.359375L741.484375,792.351563L739.957031,796.21875L735.023438,798.207031L734.273438,792.9375L736.863281,789.679688L733.96875,790.6875L733.480469,787.085938L740.082031,784.476563L739.203125,778.058594L734.839844,783.097656L727.5625,785.46875L728.214844,790.125L723.683594,789.480469L723.144531,785.59375L720.789063,789.046875L712.875,787.925781L715.84375,780.519531L720.023438,780.214844L716.917969,777.800781L718.628906,773.542969L722.402344,776.429688L728.21875,771.394531L734.746094,770.136719L729.652344,766.167969L723.996094,770.585938L721.148438,768.363281L723.574219,766.425781L719.460938,767.023438L715.253906,763.742188L719.453125,760.472656L723.570313,761.09375L721.25,759.066406L724.117188,756.847656L729.765625,761.265625L734.859375,757.292969L728.324219,756.046875L722.507813,750.996094L718.703125,753.871094L717.007813,749.617188L720.144531,747.148438L716.007813,746.902344L713.03125,739.488281L720.929688,738.375L723.214844,741.835938L723.785156,737.882813L728.316406,737.222656L727.726563,741.957031L735.007813,744.46875L739.355469,749.507813L740.246094,743.105469L733.597656,740.421875L734.085938,736.832031L737,737.828125L734.40625,734.574219L735.136719,729.304688L740.09375,731.285156L741.554688,735.277344L742.136719,732.273438L745.484375,733.628906L744.484375,740.734375L750.46875,743.164063L748.296875,736.878906L749.746094,729.324219L745.363281,727.5L748.195313,723.890625L751.835938,725.371094L750.011719,721.597656L754.9375,715.324219L759.867188,721.617188z"/>
    <path transform="matrix(-1,0,0,-1,7,-5.608643)" style="stroke:#000000;stroke-width:0.05mm;fill:none" d="M754.742188,812.363281L754.574219,812.382813C754.471985,812.417419,754.369446,812.45105,754.269531,812.492188L754.121094,812.566406C754.014587,812.633789,753.914368,812.710022,753.816406,812.789063L753.671875,812.957031C753.587769,813.075989,753.524597,813.207703,753.472656,813.34375C753.412598,813.506104,753.38562,813.678345,753.378906,813.851563C753.388611,813.999573,753.414856,814.145813,753.453125,814.289063C753.502563,814.427673,753.561096,814.562805,753.632813,814.691406C753.764832,814.863586,753.924255,815.011902,754.101563,815.136719C754.253906,815.215088,754.414673,815.275452,754.582031,815.3125L754.804688,815.339844L755.027344,815.332031C755.175598,815.319031,755.319397,815.280151,755.460938,815.234375L755.65625,815.136719L755.832031,815.011719C755.940674,814.915161,756.035034,814.804504,756.121094,814.6875C756.227966,814.53656,756.296753,814.363403,756.339844,814.183594C756.379639,813.926025,756.368164,813.663818,756.308594,813.410156L756.257813,813.273438C756.211853,813.186401,756.16571,813.099426,756.121094,813.011719C755.952026,812.776428,755.722961,812.592224,755.460938,812.46875L755.246094,812.402344L755.078125,812.375C754.966492,812.360962,754.854431,812.363037,754.742188,812.363281z"/>
    <path transform="matrix(-1,0,0,-1,7,-5.608643)" style="stroke:#000000;stroke-width:0.05mm;fill:none" d="M759.296875,777.78125L764.09375,779.777344L764.75,774.636719L760.652344,773.832031L759.296875,777.78125z"/>
    <path transform="matrix(-1,0,0,-1,7,-5.608643)" style="stroke:#000000;stroke-width:0.05mm;fill:none" d="M744.933594,774.625L745.605469,779.765625L750.394531,777.777344L749.035156,773.824219L744.933594,774.625z"/>
    <path transform="matrix(-1,0,0,-1,7,-5.608643)" style="stroke:#000000;stroke-width:0.05mm;fill:none" d="M751.410156,757.769531L741.539063,756.03125L747.972656,763.726563L741.539063,771.421875L751.410156,769.671875L754.800781,779.078125L758.230469,769.652344L768.125,771.382813L761.71875,763.722656L768.167969,756.035156L758.277344,757.777344L754.859375,748.351563L751.410156,757.769531z"/>
    <path transform="matrix(-1,0,0,-1,7,-5.608643)" style="stroke:#000000;stroke-width:0.05mm;fill:none" d="M766.464844,763.765625L769.210938,766.914063L773.328125,763.746094L769.203125,760.617188L766.464844,763.765625z"/>
    <path transform="matrix(-1,0,0,-1,7,-5.608643)" style="stroke:#000000;stroke-width:0.05mm;fill:none" d="M736.351563,763.761719L740.488281,766.898438L743.226563,763.75L740.484375,760.605469L736.351563,763.761719z"/>
    <path transform="matrix(-1,0,0,-1,7,-5.608643)" style="stroke:#000000;stroke-width:0.05mm;fill:none" d="M759.363281,749.667969L760.722656,753.621094L764.824219,752.820313L764.152344,747.679688L759.363281,749.667969z"/>
    <path transform="matrix(-1,0,0,-1,7,-5.608643)" style="stroke:#000000;stroke-width:0.05mm;fill:none" d="M744.867188,752.902344L749.085938,753.605469L750.320313,749.757813L745.523438,747.757813L744.867188,752.902344z"/>
</svg>
