<?xml version="1.0" encoding="UTF-8"?>
<svg xmlns="http://www.w3.org/2000/svg" width="400.000mm" height="229.319mm" viewBox="-1576.200317 -288.951202 400.000000 229.319366">
    <path transform="matrix(-0.409836,0,0,-0.409836,-1166.364258,35.51178)" style="stroke:#000000;stroke-width:0.05mm;fill:none" d="M811,791.391357C795.085571,788.383606,774.541504,782.318481,766.510193,778.256897C759.781921,774.854248,751.099243,768.853577,747.841797,765.35498C746.379761,763.784729,743.599304,759.575012,741.662964,756C736.681152,746.802124,734.232361,736.413818,731.526611,713C726.92572,673.186218,718.981995,641.745361,707.793945,619.0672C701.760864,606.838196,692.931946,596.767517,681.694092,589.296631C673.660522,583.955933,655.699524,575.677734,647.526978,573.549011C644.473938,572.753845,641.583496,571.860596,641.103821,571.564148C640.012634,570.889771,622.299744,567.496277,611,565.796753C594.418213,563.302795,502.904877,564.788452,480,567.923462C475.875,568.488037,465.299988,569.414978,456.5,569.983276C447.700012,570.551636,437.575012,571.475769,434,572.036987C421.879303,573.939697,387.640503,575.304138,350.5,575.364624C302.886505,575.442139,293.163696,574.292175,272.917389,566.188599C256.680176,559.689697,243.272232,551.530273,191.988022,516.93927C168.510315,501.103668,155.345261,493.148376,136.546661,483.437531C108.129898,468.758209,78.523918,461.688477,41.420868,460.722015C33.127346,460.505981,25.814846,460.003601,25.170868,459.605591C24.526892,459.207611,24,457.776245,24,456.424805C24,453.367249,27.087004,451.914825,39.5,449.132202C58.767056,444.81311,62.103405,444.542053,95,444.623474C116.477791,444.676666,118.15876,444.823822,132,447.862885C149.435562,451.691132,159.199722,454.792664,172.5,460.727448C197.502167,471.88382,217.094879,482.512726,231,492.463257C240.250778,499.08316,241.58075,497.761139,237.205856,486.294586C234.1884,478.385895,231.837631,467.359344,227.975769,443C224.362579,420.209167,221.271942,408.377808,216.088989,397.49588C210.459808,385.677063,206.600983,381.776764,198.245544,379.460602C186.617157,376.237152,180.313538,372.954865,178.971313,369.42453C178.483826,368.142365,178.476456,362.61673,178.954498,356.820709C179.631042,348.618103,180.661072,344.139862,183.973389,335C188.138641,323.506622,192.064972,311.842987,200.636612,285.5C213.899902,244.738266,231.304367,230.25296,264.502197,232.346237C273.880768,232.937592,281.127319,234.900269,284.200348,237.68132C287.283539,240.471558,286.264252,246.134354,280.813019,256.5C276.41864,264.856079,270.948975,268.538086,261.324005,269.619446C258.120819,269.97934,254.707794,270.680542,253.739563,271.177673C252.771317,271.674805,249.891937,276.225708,247.340942,281.290771L242.702759,290.5L241.874268,309C241.004608,328.419373,241.025085,328.653717,244.261047,336.304443C247.597885,344.193695,253.289017,346.199554,279,348.54834C294.464325,349.96106,305.591614,351.704498,316,354.345551C323.949188,356.36261,337.269775,361.693848,341.452454,364.532288C343.43396,365.876984,346.319641,367.631042,347.865112,368.430237C349.410553,369.229431,357.931274,375.269043,366.800049,381.851593C382.755157,393.693756,389.908997,397.805939,402.180939,402.18927C407.994324,404.265747,410.22052,404.446564,430,404.448853C451.427734,404.451355,459.443024,403.679047,483,399.34201C499.182495,396.362671,527.865112,388.775024,548,382.147034C587.906372,369.010651,601.154541,364.977661,624.5,358.858948C647.444885,352.845215,692.449524,343.885406,710.963928,341.645142C722.071045,340.301178,720.848999,341.758087,726.935242,322.604431C729.188965,315.511841,733.031555,305.516907,735.474426,300.393463C740.589966,289.664368,745.342346,276.647461,747.429443,267.64798C750.078186,256.226898,753.048401,249.829102,758.260559,244.318008C766.185974,235.938065,774.24408,233.977814,803.648804,233.276703C822.653931,232.823547,825.064331,233.229889,830.230469,237.757874C832.763855,239.978378,833.457947,245.21373,831.675842,248.660004C828.398499,254.99765,813.651611,266,808.434387,266C805.103455,266,800.089783,269.265961,797.565918,273.079803C792.837891,280.224274,790.401245,302.687592,792.945618,315.673706C793.465698,318.328156,794.359924,323.988922,794.9328,328.253174C796.702209,341.423645,799.751221,346.135223,818.32782,364.405029C827.222534,373.152802,837.518799,382.719543,841.208435,385.66449C844.898132,388.609406,849.233215,392.927155,850.842041,395.25946C852.450867,397.591766,854.775879,400.399994,856.008667,401.5C863.132751,407.856659,874.594604,429.626129,877.696289,442.691315C879.784912,451.489319,880.560303,476.257172,879.036377,485.5C876.124084,503.163879,873.628052,515.49585,870.535461,527.5C861.521851,562.486938,860.710938,567.237366,860.719971,585C860.732422,609.449463,864.661316,630.30304,871.595947,642.726379C876.74823,651.956665,882.953613,656.0495,896.5,659.152222C904.582825,661.003601,908.94281,661.795349,937,666.506897C956.674927,669.810852,962.921265,671.426697,970.176575,675.089111C976.759583,678.412231,979.700806,681.947144,986.743347,695C989.265686,699.674988,993.280334,706.754822,995.664734,710.732971C998.06543,714.738342,1000,719.234436,1000,720.808655C1000,728.486572,984.495544,734.59552,951.5,739.918213C934.415833,742.674194,922.726074,745.481628,910.5,749.764893C898.494202,753.971008,891.540405,758.220398,887.015869,764.115845C880.748718,772.281921,877.516724,775.174561,871,778.450378C864.270691,781.833008,850.17511,786.726807,839.177063,789.49884C832.789551,791.108826,815.610229,792.262695,811,791.391357z"/>
    <path transform="matrix(-0.409836,0,0,-0.409836,-1166.364258,35.51178)" style="stroke:#000000;stroke-width:0.05mm;fill:none" d="M840.158813,778.636475C857.37793,774.295227,868.14856,769.803284,872.849548,765.002625C892.20105,745.240845,892.235107,745.180603,888.416687,737.495361C886.027771,732.687317,883.663757,731.083862,881.25,732.634277C879.828247,733.547485,879.553284,734.953369,879.783997,740.12915C880.10083,747.236328,879.038757,749.512146,873,754.66687C863.015076,763.190002,853.65332,767.979675,844.808167,769.090271C841.062317,769.560669,835.688049,770.938965,832.865356,772.153259C826.921997,774.710022,823.945862,774.876709,815,773.15387C811.424988,772.465332,806.25,771.481445,803.5,770.967346C795.066895,769.39093,778.746948,764.187866,776.051453,762.21637C774.648132,761.190002,770.645508,758.836365,767.156677,756.986023C758.795288,752.551575,756.098877,748.895813,754.848511,740.299011C753.884399,733.670532,753.368591,731.763733,750.303894,723.5C749.208923,720.547424,748.985962,717.405151,749.452332,711.5C749.978577,704.837341,749.735474,702.522034,747.998108,697.649719C746.236633,692.7099,746.016418,690.511963,746.583191,683.526917C747.19928,675.933594,747.079712,675.079712,745.127197,673.127197C742.615967,670.615967,738.776489,670.359436,736.933777,672.579773C735.847656,673.888489,735.90741,675.561401,737.281799,682.329773C738.194336,686.823425,739.665344,697.025024,740.55072,705C744.221313,738.063721,748.890686,753.503967,757.299805,760.384338C767.113953,768.414368,784.906433,775.618225,805.817017,780.028137C818.661255,782.736816,824.897278,782.484131,840.158813,778.636475z"/>
    <path transform="matrix(-0.409836,0,0,-0.409836,-1166.364258,35.51178)" style="stroke:#000000;stroke-width:0.05mm;fill:none" d="M828.530762,762.601196C831.009033,760.789001,830.815063,754.269043,828.048767,746.398499C825.35083,738.722351,823.818604,737.301575,815.572205,734.829407C811.682495,733.663269,805.361023,731.142883,801.524475,729.228455C795.049988,725.997742,794.065918,725.788208,787.822937,726.311646C782.345581,726.770813,779.834656,727.623779,774.298401,730.905762C765.54071,736.097473,765,736.599548,765,739.539429C765,742.271545,768.175049,746,770.501648,746C771.327576,746,773.591675,743.789124,775.53302,741.086914C781.186951,733.217041,786.299805,732.29541,798.686035,736.913147C802.983704,738.515442,808.730835,740.613281,811.457336,741.575073C814.183899,742.536865,817.462769,744.371887,818.743774,745.652832C820.789429,747.698486,821.050964,748.84729,820.893372,755.093506C820.763489,760.238708,821.09906,762.449036,822.106934,763.08728C824.125916,764.365723,826.347473,764.197632,828.530762,762.601196z"/>
    <path transform="matrix(-0.409836,0,0,-0.409836,-1166.364258,35.51178)" style="stroke:#000000;stroke-width:0.05mm;fill:none" d="M810.049561,759.440247C811.845886,757.275879,810.169128,752.882568,806.986816,751.415344C805.61908,750.784729,800.84082,749.068665,796.368469,747.601868C789.466248,745.338074,787.837463,745.116943,785.594482,746.138916C782.439575,747.576355,781.130371,751.55896,783.149109,753.577698C783.923767,754.352295,787.135132,755.462585,790.285583,756.044983C793.435974,756.62738,797.923035,757.970642,800.256836,759.029968C805.430359,761.378357,808.339905,761.500305,810.049561,759.440247z"/>
    <path transform="matrix(-0.409836,0,0,-0.409836,-1166.364258,35.51178)" style="stroke:#000000;stroke-width:0.05mm;fill:none" d="M857.598877,752.881714C866.681335,747.311951,869,744.945618,869,741.246094C869,736.407654,864.121216,737.308472,856.499146,743.55426C854.161255,745.469971,849.830017,747.858032,846.874207,748.861145C840.820557,750.915527,838.453186,754.431274,841.031555,757.538025C843.17511,760.120789,848.010498,758.76178,857.598877,752.881714z"/>
    <path transform="matrix(-0.409836,0,0,-0.409836,-1166.364258,35.51178)" style="stroke:#000000;stroke-width:0.05mm;fill:none" d="M908.434387,738.673096C909.231628,737.409241,908.248047,734.717346,904.085144,726.769958C896.297913,711.903442,894.09436,709.90564,890,714C886.953674,717.046326,887.566711,719.654968,892.50647,724.665588C895.696472,727.901367,897.468994,730.80542,898.573975,734.606445C899.432556,737.559814,900.865784,740.385132,901.759033,740.88501C903.732117,741.989197,907.032471,740.89563,908.434387,738.673096z"/>
    <path transform="matrix(-0.409836,0,0,-0.409836,-1166.364258,35.51178)" style="stroke:#000000;stroke-width:0.05mm;fill:none" d="M842.530396,739.551758C844.436829,738.755188,848.828186,736.082886,852.289001,733.613342C856.562988,730.563477,860.915955,728.49707,865.859619,727.171143C876.233398,724.388855,879.876404,720.374634,876.964844,714.934265C875.448547,712.101074,872.368896,712.559448,867.133972,716.3974C864.585266,718.265991,856.90094,722.557739,850.057617,725.934631C836.235718,732.755188,835,733.56427,835,735.793701C835,737.170471,837.712097,741,838.687134,741C838.894531,741,840.624023,740.348267,842.530396,739.551758z"/>
    <path transform="matrix(-0.409836,0,0,-0.409836,-1166.364258,35.51178)" style="stroke:#000000;stroke-width:0.05mm;fill:none" d="M936.506775,732.547424C942.55304,731.198486,951.549988,729.57196,956.5,728.932861C961.450012,728.293762,966.287476,727.356628,967.25,726.850281C969.589844,725.619324,969.470154,721.735474,967.024109,719.521851C965.123901,717.802124,964.78894,717.812927,958.274109,719.803162C954.54834,720.941406,949.474976,721.866089,947,721.858032C944.215637,721.848999,940.304382,722.855896,936.740906,724.499146C927.523132,728.749878,922.696228,726.293518,918.074341,715C916.836304,711.974976,914.11499,706.575012,912.026917,703C906.755127,693.974243,905,688.145752,905,679.665039C905,671.669983,904.107605,670,899.835205,670C894.794189,670,893.508728,676.374451,896.971191,684.201904C898.055298,686.652832,899.241943,691.32251,899.608093,694.579041C900.352112,701.196594,901.208984,703.362915,904.520874,707C905.772949,708.375,909.461182,714.698059,912.716858,721.051208C915.972534,727.404419,918.969666,733.141907,919.377136,733.801208C920.465454,735.562134,924.228394,735.286682,936.506775,732.547424z"/>
    <path transform="matrix(-0.409836,0,0,-0.409836,-1166.364258,35.51178)" style="stroke:#000000;stroke-width:0.05mm;fill:none" d="M830.702087,724.496094C831.882996,723.669006,838.68866,720.042603,845.825806,716.437439C863.216187,707.653259,865.581055,705.497742,868.248596,696C870.911194,686.519897,871.05542,682.097351,868.75,680.626648C865.68158,678.669128,863.647156,681.123352,861.5,689.372559C858.655945,700.299194,856.516785,702.483948,840.8349,710.4776C829.619507,716.19458,826.701538,717.275818,822.476624,717.280334C813.264465,717.290161,807.011414,711.710022,807.003723,703.472534C806.998962,698.326416,805.275024,695.940369,797.98468,690.989624C794.740479,688.786499,790.379272,684.888428,788.293091,682.327148C779.726929,671.810364,777.5224,669.845459,770.499329,666.467468C762.006348,662.382507,756.647888,661.920959,754.932312,665.126465C754.112,666.659241,754.092712,667.90802,754.863098,669.598877C755.949707,671.983765,757.036011,672.401428,764.966492,673.483459C770.775024,674.276001,775.164368,677.722229,779.232544,684.684387C781.885254,689.224182,783.666382,690.928162,788.476746,693.527954C796.005432,697.596924,798.736145,701.147522,800.059998,708.589294C801.911621,718.997742,801.906921,718.993042,814.972656,723.566345C822.688293,726.26709,827.746826,726.56604,830.702087,724.496094z"/>
    <path transform="matrix(-0.409836,0,0,-0.409836,-1166.364258,35.51178)" style="stroke:#000000;stroke-width:0.05mm;fill:none" d="M769,722C771.261414,719.738586,771.370728,719.105286,770.08374,715.720276C767.930786,710.057617,762.133972,708.012634,759.926575,712.137146C758.642944,714.535706,759.29126,720.44104,761.074036,722.589233C762.757141,724.617188,766.674011,724.325989,769,722z"/>
    <path transform="matrix(-0.409836,0,0,-0.409836,-1166.364258,35.51178)" style="stroke:#000000;stroke-width:0.05mm;fill:none" d="M986.065735,721.964844C988.827515,720.486755,988.453979,717.181946,984.939392,712C983.260742,709.525024,980.119324,704.035767,977.958496,699.801697C973.332581,690.737488,969.064148,685.583557,964.075378,683.038452C962.087646,682.024414,955.415344,680.189331,949.247986,678.960571C940.148071,677.147522,937.748596,676.963745,936.517273,677.985657C934.345154,679.788391,934.602844,685.330627,936.957886,687.461914C938.737488,689.072388,939.507141,689.116272,945.40741,687.943481C950.419128,686.947327,952.775696,686.915833,955.74469,687.805359C961.119995,689.415833,967.608704,695.253601,969.039124,699.766113C969.690125,701.819763,971.693054,706.200012,973.490112,709.5C975.28717,712.799988,977.092102,716.625,977.50116,718C978.974182,722.952148,981.787415,724.254517,986.065735,721.964844z"/>
    <path transform="matrix(-0.409836,0,0,-0.409836,-1166.364258,35.51178)" style="stroke:#000000;stroke-width:0.05mm;fill:none" d="M788.799988,714.799988C789.460022,714.140015,790,712.305359,790,710.723083C790,707.335876,785.197144,702,782.148376,702C780.059875,702,777,704.438904,777,706.103577C777,707.906982,780.074646,714.42804,781.288757,715.199646C783.138,716.374817,787.454834,716.145142,788.799988,714.799988z"/>
    <path transform="matrix(-0.409836,0,0,-0.409836,-1166.364258,35.51178)" style="stroke:#000000;stroke-width:0.05mm;fill:none" d="M934.875,714.098389C938.263,711.952393,935.32074,701.553833,929.457581,694.952271C924.707642,689.604065,924.646606,689.430603,924.5578,681.028381C924.506042,676.125977,924.224304,675.423096,921.849609,674.271545C913.316345,670.133667,912.783325,683.393738,920.939697,696.906982C923.128357,700.533142,925.618347,705.486145,926.472961,707.913635C928.886536,714.769409,931.166321,716.447571,934.875,714.098389z"/>
    <path transform="matrix(-0.409836,0,0,-0.409836,-1166.364258,35.51178)" style="stroke:#000000;stroke-width:0.05mm;fill:none" d="M956.315735,709.850281C960.872559,707.451782,961.08728,704.933411,957.076904,700.923096C951.471008,695.3172,943.766541,697.924438,945.492859,704.84314C946.890015,710.442505,951.307739,712.486328,956.315735,709.850281z"/>
    <path transform="matrix(-0.409836,0,0,-0.409836,-1166.364258,35.51178)" style="stroke:#000000;stroke-width:0.05mm;fill:none" d="M837.35614,700.432068C847.047974,695.354248,848.413086,694.302063,850.084167,690.62207C851.113708,688.354919,851.965942,685.69458,851.978027,684.710144C851.990112,683.725769,852.900024,681.156189,854,679C856.729431,673.649841,856.541199,669.796631,853.366089,666.023254C851.469055,663.768738,850.028503,662.977905,848.21698,663.196472C844.064697,663.69751,843.391296,666.035461,845.445313,672.819458C847.253052,678.789856,847.250793,678.850464,845.058228,683.3797C842.407043,688.856323,836.638306,693.340393,830.217224,694.91571C818.944641,697.681274,817.515564,698.365723,817.192932,701.15332C816.809143,704.469177,820.371887,707.326233,824,706.612061C825.375,706.34137,831.385254,703.560425,837.35614,700.432068z"/>
    <path transform="matrix(-0.409836,0,0,-0.409836,-1166.364258,35.51178)" style="stroke:#000000;stroke-width:0.05mm;fill:none" d="M887.171265,703.345032C888.458862,702.179749,889,700.270264,889,696.89209C889,688.430725,885.237793,683.753113,881.823608,687.969543C879.245605,691.153198,877.481567,700.16272,878.912598,702.83667C880.317261,705.461365,884.545166,705.721619,887.171265,703.345032z"/>
    <path transform="matrix(-0.409836,0,0,-0.409836,-1166.364258,35.51178)" style="stroke:#000000;stroke-width:0.05mm;fill:none" d="M768.777466,698.443298C773.979309,694.799805,768.474426,684,761.415466,684C758.63385,684,757.925781,684.44751,757.401428,686.536804C755.940002,692.359436,759.941223,700,764.451782,700C765.608582,700,767.555115,699.2995,768.777466,698.443298z"/>
    <path transform="matrix(-0.409836,0,0,-0.409836,-1166.364258,35.51178)" style="stroke:#000000;stroke-width:0.05mm;fill:none" d="M822.788452,686.072693C833.864136,683.195984,837.588257,679.836243,835.020203,675.037781C833.543396,672.27832,831.410767,672.493835,825.5,676C815.444885,681.964478,807.287842,679.373169,801,668.216858C797.948364,662.80249,796.282959,661.197571,788,655.689026C769.310059,643.259277,765.308899,641.791199,761.523193,645.974365C758.703735,649.089844,761.391174,652.218628,768.646851,654.267822C776.137756,656.383423,786.032288,662.902771,790.779846,668.850891C799.415527,679.670288,809.468018,687.943054,814,687.960083C814.825012,687.963196,818.779785,687.113831,822.788452,686.072693z"/>
    <path transform="matrix(-0.409836,0,0,-0.409836,-1166.364258,35.51178)" style="stroke:#000000;stroke-width:0.05mm;fill:none" d="M884.171265,674.345032C886.484863,672.251221,886.522095,668.729187,884.25,666.904968C883.287476,666.132263,880.425293,664.458252,877.889526,663.185059C872.311279,660.384155,867.168579,655.217102,863.273804,648.5C859.759155,642.438477,856.152222,641.31189,853.452393,645.432312C851.090881,649.036438,852.282043,652.521667,856.863708,655.414001C858.968018,656.742371,862.254089,660.005127,864.166199,662.664612C867.317444,667.047546,878.838379,676,881.327515,676C881.885803,676,883.165466,675.255249,884.171265,674.345032z"/>
    <path transform="matrix(-0.409836,0,0,-0.409836,-1166.364258,35.51178)" style="stroke:#000000;stroke-width:0.05mm;fill:none" d="M826.173462,664.094604C835.792053,659.650818,840.565002,655.045105,841.534912,649.271362C843.094299,639.988342,844.720886,637.4198,851.106079,634.157471C855.809814,631.754272,856.851868,629.597107,854.930054,626.241394C853.744568,624.171204,852.678772,623.549561,850.577271,623.702332C845.410217,624.078003,843.124939,626.726868,836.977844,639.465149C830.59436,652.693176,828.258118,655.363892,821.619446,657.022339C814.19574,658.876892,811,660.761169,811,663.283813C811,669.089966,814.908936,669.298828,826.173462,664.094604z"/>
    <path transform="matrix(-0.409836,0,0,-0.409836,-1166.364258,35.51178)" style="stroke:#000000;stroke-width:0.05mm;fill:none" d="M744.979736,659.248474C746.893616,658.286804,749.121826,656.30542,749.931396,654.845398C752.85199,649.578064,747.539795,647.576294,737.410034,650.126953C731.958252,651.499756,730.315918,653.934265,732.037598,658.090698C733.093201,660.639221,733.7547,660.999817,737.371338,660.998474C739.64209,660.99762,743.065857,660.210083,744.979736,659.248474z"/>
    <path transform="matrix(-0.409836,0,0,-0.409836,-1166.364258,35.51178)" style="stroke:#000000;stroke-width:0.05mm;fill:none" d="M812.939819,648.961487C817.031677,647.294067,820.939392,645.465271,821.623535,644.897461C822.307739,644.329651,825.439148,638.734619,828.582336,632.46405C833.354004,622.944763,834.087402,620.810303,833.026184,619.531494C829.99823,615.883057,822,620.0495,822,625.275208C822,626.576599,820.762512,630.084534,819.25,633.070679C812.775574,645.853088,800.318054,646.133179,789.738403,633.734253C784.441956,627.527039,780.801758,626.027283,776.285583,628.191833C774.349487,629.119812,773.5,630.280762,773.5,631.998901C773.5,633.983582,774.720459,635.163635,779.691711,637.985413C783.097107,639.918457,789.322327,643.862488,793.525452,646.75C797.728638,649.637512,802.142334,651.998474,803.333801,651.996582C804.525208,651.99469,808.8479,650.628906,812.939819,648.961487z"/>
    <path transform="matrix(-0.409836,0,0,-0.409836,-1166.364258,35.51178)" style="stroke:#000000;stroke-width:0.05mm;fill:none" d="M735,640C738.21698,638.731995,742.432068,638,746.516785,638C754.570679,638,760.790344,635.683594,761.620789,632.374817C762.900696,627.275146,757.753174,625.533875,750.435852,628.591248C748.341187,629.466431,742.400085,630.434753,737.233398,630.742981C726.721191,631.370117,724.440613,632.563843,725.482422,636.893738C725.991943,639.011658,728.433411,642,729.654114,642C729.80365,642,732.20929,641.099976,735,640z"/>
    <path transform="matrix(-0.409836,0,0,-0.409836,-1166.364258,35.51178)" style="stroke:#000000;stroke-width:0.05mm;fill:none" d="M810.098083,627.60675C812.376282,623.870667,812.567383,618.715759,810.491516,616.992981C806.807617,613.935608,797,618.908142,797,623.833252C797,626.245239,799.814392,629.995789,802.319702,630.922546C805.513428,632.104004,808.002869,631.042786,810.098083,627.60675z"/>
    <path transform="matrix(-0.409836,0,0,-0.409836,-1166.364258,35.51178)" style="stroke:#000000;stroke-width:0.05mm;fill:none" d="M737.92865,619.962891C746.972168,618.863098,750.67627,617.529053,752.402649,614.75C753.800293,612.500122,752.234924,609.835999,748.794312,608.608948C746.872864,607.923706,744.933716,608.351318,740.397888,610.460388C727.667969,616.379578,721.342163,612.783264,716.789856,597.038818C715.809021,593.646484,714.421936,591.782227,711,589.257385C698.903076,580.331726,684.335571,569.167419,681.033752,566.291809C674.400513,560.514709,668.661011,560.027893,665.991394,565.016052C664.412659,567.966003,665.863159,569.408813,674.407837,573.388184C689.112854,580.236389,706.278015,595.173279,712.45929,606.5C721.740356,623.506836,720.718018,622.309387,725.360596,621.61084C727.637268,621.26825,733.292908,620.526672,737.92865,619.962891z"/>
    <path transform="matrix(-0.409836,0,0,-0.409836,-1166.364258,35.51178)" style="stroke:#000000;stroke-width:0.05mm;fill:none" d="M780.800232,617.365723C787.043335,616.861694,788.327026,616.430481,789.665222,614.388184C791.090088,612.213562,791.083557,611.776428,789.59198,609.5C787.659485,606.550659,787.407288,606.533569,776.179626,608.588867C764.179932,610.785522,763,611.350098,763,614.895203C763,618.418884,764.216248,619.082336,769.5,618.440796C771.700012,618.173645,776.785095,617.68988,780.800232,617.365723z"/>
    <path transform="matrix(-0.409836,0,0,-0.409836,-1166.364258,35.51178)" style="stroke:#000000;stroke-width:0.05mm;fill:none" d="M850.828247,612.195251C851.699219,611.083618,851.963196,609.030579,851.59491,606.231934C850.018738,594.253723,849.765686,579.434387,851.001648,571.489319C852.063843,564.661438,852.069641,562.788818,851.032593,561.539246C849.214783,559.348938,844.299438,559.571899,843.052856,561.901245C842.130981,563.623779,841.784058,576.937683,842.177429,595.5C842.259033,599.349976,841.697327,604.458191,840.929199,606.851563C839.581726,611.049988,839.617798,611.272095,841.953064,613.163086C844.705261,615.391663,848.661926,614.960205,850.828247,612.195251z"/>
    <path transform="matrix(-0.409836,0,0,-0.409836,-1166.364258,35.51178)" style="stroke:#000000;stroke-width:0.05mm;fill:none" d="M825.810181,607.974365C831.399475,604.56665,834.516907,593.088318,830.849243,589.420654C828.148682,586.720154,825.311584,589.316284,820.853638,598.567139C817.524902,605.474792,817.003479,607.299255,818.011047,608.513306C819.683167,610.528137,821.869263,610.377075,825.810181,607.974365z"/>
    <path transform="matrix(-0.409836,0,0,-0.409836,-1166.364258,35.51178)" style="stroke:#000000;stroke-width:0.05mm;fill:none" d="M810.165405,596.5C815.398315,586.405151,816.068665,582.642273,812.932922,580.964111C809.906677,579.344482,806.550049,581.937439,804.719971,587.308533C803.893921,589.732788,801.819031,593.647644,800.109009,596.008179C795.457092,602.429993,796.422852,606.391357,802.495056,605.795105C805.177551,605.531677,806.000671,604.534241,810.165405,596.5z"/>
    <path transform="matrix(-0.409836,0,0,-0.409836,-1166.364258,35.51178)" style="stroke:#000000;stroke-width:0.05mm;fill:none" d="M738,599.5C744.065491,596.426392,747.213989,596.368591,754.040588,599.205627L759.3479,601.411255L772.302856,598.776855C783.881226,596.422363,785.625061,595.789551,788.714233,592.821228C792.86261,588.835144,795,585.002319,795,581.549683C795,580.147339,794.811829,579,794.581787,579C794.351746,579,793.480347,578.737854,792.645325,578.417419C791.673889,578.044617,788.802124,579.997742,784.671265,583.840637C780.668457,587.564453,776.749634,590.25354,774.357727,590.917664C768.884155,592.4375,757.457153,592.233154,751,590.5C747.974976,589.688049,743.892639,589.018372,741.928162,589.011841C737.003845,588.995483,729.167969,591.817627,727.981384,594.034851C726.329468,597.121399,728.75354,601.565308,732.283264,601.921082C732.71405,601.964478,735.28656,600.875,738,599.5z"/>
    <path transform="matrix(-0.409836,0,0,-0.409836,-1166.364258,35.51178)" style="stroke:#000000;stroke-width:0.05mm;fill:none" d="M733.235229,579.287109C735.585266,577.1604,735.467041,574.440491,732.947876,572.676025C731.482117,571.649414,729.124695,571.377808,724.697876,571.725525C718.755676,572.192261,718.248718,572.043884,712.408386,568.129211C705.788635,563.692017,698.50177,556.259094,695.78656,551.174133C693.810425,547.473328,691.998718,546.532532,688.526611,547.403931C685.574768,548.144836,683.650024,551.32196,684.510559,554.033264C685.690063,557.749573,715.227112,580.422241,720.881042,581.951355C724.175049,582.842224,730.912354,581.389282,733.235229,579.287109z"/>
    <path transform="matrix(-0.409836,0,0,-0.409836,-1166.364258,35.51178)" style="stroke:#000000;stroke-width:0.05mm;fill:none" d="M769.744019,581.073425C774.752197,579.637085,785.431763,569.495544,788.15863,563.586609C789.446411,560.796082,791.962524,556.061523,793.75,553.065308C798.18457,545.63208,798.061951,540,793.465576,540C790.37146,540,787.883301,543.377625,784.085388,552.733521C779.927002,562.977295,775.264648,569.209412,769.769104,571.869751C759.907593,576.643616,752.013,573.227295,748.71283,562.757935C747.776794,559.788452,745.843628,556.265625,744.41687,554.929443C742.009216,552.6745,741.174866,552.520203,732.803101,552.781555C724.685852,553.034912,723.353333,552.811096,719.48584,550.544556C716.104675,548.56311,714.47522,546.583984,711.844177,541.263C708.583435,534.668762,708.290466,534.392822,700.101624,530.203125C693.744263,526.950562,691.021973,526.055908,688.900208,526.521912C681.994873,528.038574,664,542.774048,664,546.912048C664,548.035034,665.143433,549.703125,666.540955,550.618774C670.18103,553.003845,673.171814,551.299622,676.650879,544.85791C680.102295,538.467468,684.508484,535.614502,690.921692,535.617615C696.947571,535.620605,700.060547,537.797668,704.832214,545.346008C709.33844,552.474365,716.712769,559.638855,720.529785,560.596863C721.986206,560.962402,725.686829,561.002502,728.753357,560.686035C738.293152,559.701416,742.727966,562.943054,744.385925,572.112732C745.236755,576.818604,747.767944,578.988586,754.232666,580.55426C760.71936,582.125244,765.516724,582.285767,769.744019,581.073425z"/>
    <path transform="matrix(-0.409836,0,0,-0.409836,-1166.364258,35.51178)" style="stroke:#000000;stroke-width:0.05mm;fill:none" d="M830.012146,576.485413C830.703491,575.652344,831.487854,571.913818,831.755188,568.177429C832.148315,562.683105,831.917725,561.060547,830.549194,559.692078C828.367554,557.510437,825.727173,557.539001,823.711609,559.766174C821.743652,561.940735,819.78656,570.232483,820.660889,572.691406C822.418579,577.634583,827.385803,579.649902,830.012146,576.485413z"/>
    <path transform="matrix(-0.409836,0,0,-0.409836,-1166.364258,35.51178)" style="stroke:#000000;stroke-width:0.05mm;fill:none" d="M808,570C809.099976,568.900024,810,567.289246,810,566.420532C810,565.55188,811.209473,561.839355,812.687744,558.170532C814.617859,553.380432,815.317383,549.999084,815.16925,546.175598C814.904663,539.347168,816.401672,533.864563,819.553345,530.118958C823.03595,525.980103,826.734192,525.420532,834.253784,527.894531C837.689209,529.024841,843.875,530.362122,848,530.866333C856.984802,531.964417,859.424805,530.902954,860.903687,525.252686C866.682007,503.175964,868.870911,490.615631,867.362976,488.187561C865.663757,485.451477,857.216064,483.167511,848.472534,483.08017C835.875732,482.954376,833.539124,480.119751,832.055054,463.163452C831.398193,455.657959,830.375366,451.420532,827.474915,444.188049C823.096008,433.268951,820.450256,430.679932,816.134766,433.091034C811.842834,435.488953,812.207947,438.908752,817.405884,444.998352C822.124695,450.526581,822.633118,452.079834,824.770996,467.5C826.047302,476.705475,829.755737,485.766632,833.328186,488.408539C835.754395,490.202759,837.578613,490.5,846.163635,490.5C855.473328,490.5,856.304321,490.664551,858.085449,492.860779C860.387451,495.69931,860.38092,495.491058,858.481384,505.5C856.405884,516.43634,855.213074,519.737305,852.700989,521.496887C849.579224,523.683472,846.007141,523.375671,833.647339,519.855225C820.153381,516.01178,819.818726,516.133606,812.649902,527.5C808.015442,534.848022,807.587524,536.04364,807.398987,542.170776C807.111572,551.510315,806.368958,554.129028,802.440979,559.653809C798.900452,564.633606,797.82666,570.359863,800.25,571.337708C802.980591,572.439514,806.098694,571.901306,808,570z"/>
    <path transform="matrix(-0.409836,0,0,-0.409836,-1166.364258,35.51178)" style="stroke:#000000;stroke-width:0.05mm;fill:none" d="M406,564.160217C417.274994,563.521667,435.725006,562.106018,447,561.014282C458.274994,559.922607,472.899994,558.508667,479.5,557.872253C486.100006,557.23584,492.287506,556.313416,493.25,555.822388C494.301331,555.286072,495,553.786499,495,552.066345C495,550.491577,496.385651,546.569885,498.079224,543.351563C499.772827,540.133179,501.616364,535.025391,502.175995,532.000793C502.773743,528.770142,504.391113,524.873108,506.096741,522.553833C509.688934,517.669189,510.124542,510.591888,507.062653,506.860779C504.223083,503.400604,501.778412,505.32486,500.406555,512.099915C498.978973,519.150208,491.430847,540.566772,488.970612,544.547546C486.222748,548.993652,483.083191,550.04718,469.523712,551.072876C462.910675,551.573181,451.424988,552.631348,444,553.424438C418.210999,556.178955,396.697205,557.2229,364.5,557.282104C361.200012,557.288147,347.25,557.327881,333.5,557.3703C303.539795,557.462708,297.785187,556.626587,282,549.887573C266.969208,543.470581,259.651154,539.696533,247.5,532.095398C242,528.654846,232.550003,523.030945,226.5,519.597778C220.449997,516.164673,208.414383,508.747711,199.754181,503.115692C183.562088,492.585388,177,489.848175,177,493.624329C177,494.97998,184.240707,500.327209,202.75,512.640503C262.800659,552.589294,280.233643,561.371643,305.674774,564.491821C318.751831,566.095581,375.115143,565.909302,406,564.160217z"/>
    <path transform="matrix(-0.409836,0,0,-0.409836,-1166.364258,35.51178)" style="stroke:#000000;stroke-width:0.05mm;fill:none" d="M657.069885,561.316101C660.091187,553.369568,648.912109,548.174805,643.746887,555.125122C640.293396,559.772034,644.192566,563.800903,652.27478,563.936584C655.477417,563.990417,656.204163,563.593262,657.069885,561.316101z"/>
    <path transform="matrix(-0.409836,0,0,-0.409836,-1166.364258,35.51178)" style="stroke:#000000;stroke-width:0.05mm;fill:none" d="M767.128113,560.871887C768.298645,559.701355,771.268738,554.437256,773.728333,549.173767C776.187988,543.910278,779.228088,538.230469,780.484131,536.55188C783.857483,532.043884,784.422607,529.293884,782.559875,526.45105C781.676575,525.102966,780.367737,524,779.651245,524C777.334106,524,774.228394,528.337891,771.417969,535.5C768.233826,543.61438,765.943298,547.275208,761.322571,551.634888C757.660095,555.090454,757.09198,558.339172,759.654968,561.171265C761.844238,563.590332,764.516724,563.483276,767.128113,560.871887z"/>
    <path transform="matrix(-0.409836,0,0,-0.409836,-1166.364258,35.51178)" style="stroke:#000000;stroke-width:0.05mm;fill:none" d="M632.428589,557.428589C636.802673,553.054443,632.684875,550.145447,619.825195,548.525146C614.146362,547.809631,608.233215,546.723755,606.684875,546.112122C600.408691,543.63269,594,545.890686,594,550.581482C594,553.777527,596.155151,554.540344,607.5,555.359436C612.450012,555.716797,618.75,556.641907,621.5,557.415161C628.195129,559.297852,630.556396,559.30072,632.428589,557.428589z"/>
    <path transform="matrix(-0.409836,0,0,-0.409836,-1166.364258,35.51178)" style="stroke:#000000;stroke-width:0.05mm;fill:none" d="M534.57019,554.140015C538.221497,553.16394,539.881775,549.230774,538.200317,545.540283C536.619141,542.070007,533.328125,542.257019,527.025024,546.175232L521.917175,549.350464L515.445068,548.064026C510.398834,547.060974,508.653992,547.042236,507.525208,547.979065C505.320374,549.808899,504.683472,552.913696,506.15036,554.681152C507.278046,556.039917,509.192383,556.17041,519.553162,555.594788C526.201172,555.225403,532.958801,554.570801,534.57019,554.140015z"/>
    <path transform="matrix(-0.409836,0,0,-0.409836,-1166.364258,35.51178)" style="stroke:#000000;stroke-width:0.05mm;fill:none" d="M555.904419,554.080261C556.676819,553.591187,557.660461,550.59967,558.090271,547.432373C558.951111,541.088928,561.006592,538.32251,567.611938,534.61731C570.168152,533.183472,572.458618,530.637817,574.480957,526.983093C578.664001,519.423584,583.72821,516.843811,593.652893,517.216858C602.258606,517.540283,603.665283,516.582581,608.036011,507.42453C612.489258,498.093597,617.947266,496.087708,628.239258,499.999481C634.065308,502.213837,641.953857,502.612854,645.315735,500.863251C646.51709,500.238037,652.674988,494.43454,659,487.966553C667.218689,479.562042,672.217651,475.316376,676.519836,473.086639C679.830811,471.370667,683.179138,468.96167,683.960693,467.733337C686.101685,464.368408,687.222046,437.283264,685.345703,434.25C683.715271,431.614197,679.864746,431.278107,677.571411,433.571442C675.62793,435.514923,675.617737,437.168579,677.510803,443.408936C679.414551,449.684387,679.406616,456.091095,677.48938,460.679626C675.662781,465.0513,673.940186,466.446381,667.789856,468.534821C663.91626,469.850189,662.295715,471.232269,658.664917,476.317108C652.577759,484.84201,645.103027,491.589233,640.078369,493.094666C636.326294,494.218811,634.956177,494.07135,626.523499,491.635681C620.801941,489.983063,616.148804,489.175537,614.595093,489.565491C611.85199,490.253967,607.407043,494.843994,602.310913,502.250671C598.241821,508.164642,594.525146,510.042633,585.996338,510.494324C577.974915,510.919098,576.023743,512.010071,570.218445,519.316162C567.863586,522.279785,562.188904,528.338257,557.608032,532.779419C549.366394,540.769653,548,543.157349,548,549.568298C548,550.843384,549.000122,552.587097,550.222534,553.443298C552.751892,555.214966,553.907471,555.344482,555.904419,554.080261z"/>
    <path transform="matrix(-0.409836,0,0,-0.409836,-1166.364258,35.51178)" style="stroke:#000000;stroke-width:0.05mm;fill:none" d="M581.434875,554.02478C585.061096,552.646057,584.832581,548.878357,580.923279,545.588867C579.231079,544.164978,576.735596,543,575.377808,543C569.993286,543,565.608643,551.507751,569.75,553.919922C571.992737,555.226135,578.130127,555.28125,581.434875,554.02478z"/>
    <path transform="matrix(-0.409836,0,0,-0.409836,-1166.364258,35.51178)" style="stroke:#000000;stroke-width:0.05mm;fill:none" d="M854.171265,549.345032C856.260315,547.454468,856.5672,543.967163,854.799988,542.200012C854.106384,541.506409,850.783508,541,846.92572,541C843.254883,541,838.338318,540.325012,836,539.5C829.684265,537.271667,827.123962,537.543762,825.975098,540.565491C823.888489,546.05365,828.026184,548.921509,838.315125,549.118286C841.716797,549.183411,845.849976,549.580139,847.5,550C852.010071,551.147644,852.200012,551.128967,854.171265,549.345032z"/>
    <path transform="matrix(-0.409836,0,0,-0.409836,-1166.364258,35.51178)" style="stroke:#000000;stroke-width:0.05mm;fill:none" d="M350.335175,546.739624C354.644501,546.871399,359.032013,546.518066,360.085175,545.954407C362.712585,544.548279,362.485626,541.394714,359.545441,538.454529C356.710876,535.619934,353.148468,535.330688,347.147827,537.447815C340.604858,539.756348,332.60257,540.201111,315.925323,539.183289C299.576263,538.185425,297.153931,537.524719,291.067322,532.403198C289.071136,530.723511,285.507782,529.233398,281.456818,528.384216C272.674194,526.543213,269.244232,524.971619,263.883759,520.332153C261.365112,518.152283,257.773407,515.757019,255.902191,515.009338C254.030991,514.261719,250.024994,511.968994,247,509.914459C243.737015,507.698303,239.669708,505.897034,237,505.485809C233.82457,504.996704,228.820633,502.441895,220,496.806366C195.988922,481.465576,170.53801,469.135773,165.519043,470.412872C163.456604,470.937653,158,478.961365,158,481.46933C158,483.516724,160.844345,486,163.189407,486C164.315018,486,166.773529,484.649994,168.652786,483C170.532028,481.350006,173.139053,480,174.446182,480C178.988312,480,192.590179,486.792694,208,496.756561C216.524994,502.268768,229.815445,510.126953,237.534332,514.219238C245.253204,518.311462,254.928207,523.940979,259.034332,526.729248C263.140442,529.517517,271.450012,533.814392,277.5,536.277832C283.549988,538.741272,291.279602,541.941101,294.67691,543.388611C302.063721,546.53595,319.272003,548.208496,333.5,547.161987C338.450012,546.797913,346.025818,546.607849,350.335175,546.739624z"/>
    <path transform="matrix(-0.409836,0,0,-0.409836,-1166.364258,35.51178)" style="stroke:#000000;stroke-width:0.05mm;fill:none" d="M381.777496,546.443298C383.220642,545.432495,384,543.851501,384,541.934753C384,537.414124,369.712769,521.893372,361.939148,517.969299C354.773529,514.352112,353.71817,514.324036,346.644196,517.562622C337.933319,521.550598,329.869934,522.429138,319.075684,520.566345C314.083557,519.704834,308.749451,519,307.222076,519C301.480164,519,297.606506,524.648682,301.806854,526.896606C302.800629,527.428467,311.238129,528.169861,320.556854,528.544067C336.57251,529.187317,337.855804,529.099854,344,526.946716C353.064697,523.770142,358.036591,523.94397,363.267639,527.620483C368.460876,531.270447,372,536.366089,372,540.193359C372,543.213806,375.820831,548,378.232025,548C378.959656,548,380.555115,547.2995,381.777496,546.443298z"/>
    <path transform="matrix(-0.409836,0,0,-0.409836,-1166.364258,35.51178)" style="stroke:#000000;stroke-width:0.05mm;fill:none" d="M445,543.0224C455.174988,541.972717,466.519958,540.829285,470.211029,540.481506C479.877106,539.57074,480.853973,538.491882,486.415436,522.585388C491.660431,507.584045,491.969788,503.671234,487.947815,503.202667C484.166229,502.762115,482.317078,505.549286,480.475311,514.46582C478.443726,524.301392,475.861725,529.503052,472.026703,531.486206C470.34729,532.354675,463.988068,533.444641,457.286499,534.012634C450.803925,534.562134,440.100006,535.669983,433.5,536.47467C418.769989,538.270447,412.307983,538.348572,404.908905,536.820313C399.923126,535.790527,398.867218,535.856995,396.598724,537.343384C393.563568,539.332031,393.118011,543.34906,395.75,544.995056C398.054718,546.436401,420.698578,545.529419,445,543.0224z"/>
    <path transform="matrix(-0.409836,0,0,-0.409836,-1166.364258,35.51178)" style="stroke:#000000;stroke-width:0.05mm;fill:none" d="M755.402649,542.663086C756.449097,541.473389,759.091431,536.716614,761.274536,532.092468C763.457642,527.468384,766.53894,521.642761,768.121887,519.146729C771.249634,514.214783,771.643738,511.506958,769.817261,507.49826C768.919739,505.528381,768.015442,504.974457,766.067261,505.201202C763.817688,505.463013,763.208801,506.428101,761.146851,513C757.170105,525.674988,756.817017,526.330566,750.821533,532.170532C744.536621,538.292419,743.755127,540.755127,747.051147,544.051147C749.459351,546.459351,752.509399,545.952393,755.402649,542.663086z"/>
    <path transform="matrix(-0.409836,0,0,-0.409836,-1166.364258,35.51178)" style="stroke:#000000;stroke-width:0.05mm;fill:none" d="M650.822571,541.050903C652.790466,540.486511,657.682129,536.723267,662.890198,531.76709C668.32428,526.595886,674.279846,522.049683,678.581177,519.789429C685.941528,515.921692,688.312256,513.779907,691.934753,507.725769C695.246277,502.191345,698.893494,500.648499,706.691223,501.483582C713.753784,502.239899,716,501.291199,716,497.55188C716,494.916809,712.470581,491.383087,709,490.543365C704.193542,489.380402,692.650208,496.103638,682.564453,505.940369C676.650085,511.708618,671.356201,515.852356,667.331238,517.863831C663.023438,520.016724,660.184204,522.309021,657.919617,525.462402C653.725708,531.302307,647.480042,534.463074,641.68158,533.679932C629.976624,532.099182,619.974121,529.704773,615.36676,527.380554C609.775818,524.560242,606.521667,524.781006,605.483765,528.051147C603.684631,533.719666,607.751465,536.336426,620.83136,537.926392C625.963623,538.550232,631.588623,539.685303,633.33136,540.448792C637.063782,542.083801,646.132385,542.395996,650.822571,541.050903z"/>
    <path transform="matrix(-0.409836,0,0,-0.409836,-1166.364258,35.51178)" style="stroke:#000000;stroke-width:0.05mm;fill:none" d="M733.799988,540.799988C735.701416,538.898621,735.239441,533.239441,733,531C730.686157,528.686157,725.287048,528.33844,722.566101,530.328003C720.058777,532.161377,720.292236,536.617676,723.049316,539.55249C725.578369,542.244507,731.650818,542.949158,733.799988,540.799988z"/>
    <path transform="matrix(-0.409836,0,0,-0.409836,-1166.364258,35.51178)" style="stroke:#000000;stroke-width:0.05mm;fill:none" d="M523.398132,535.741394C524.921082,533.310669,522.311829,528.833679,518.61438,527.533325C516.194336,526.682251,515.519714,526.874939,513.895325,528.88092C511.718689,531.56897,511.435822,535.035828,513.245483,536.84552C515.043213,538.643188,522.058044,537.88031,523.398132,535.741394z"/>
    <path transform="matrix(-0.409836,0,0,-0.409836,-1166.364258,35.51178)" style="stroke:#000000;stroke-width:0.05mm;fill:none" d="M594.428589,536.428589C599.266541,531.590576,593.149658,524.708801,586.957153,528.022888C581.315796,531.042114,583.055359,538,589.451599,538C591.324646,538,593.56427,537.292847,594.428589,536.428589z"/>
    <path transform="matrix(-0.409836,0,0,-0.409836,-1166.364258,35.51178)" style="stroke:#000000;stroke-width:0.05mm;fill:none" d="M543.5,531.084473C548.963745,527.609497,571,504.328827,571,502.031525C571,500.540253,567.958984,497.999786,566.178589,498.003723C562.64032,498.011627,558.128052,501.979828,555.014221,507.821899C546.329895,524.115417,538.08905,526.035461,529.619934,513.738708C524.596558,506.444946,524.011963,501.837921,527.22052,494.829559C529.90802,488.959167,539.689209,477.729218,544.102417,475.447052C545.631592,474.656281,550.818909,473.091492,555.629822,471.969727C560.440735,470.847961,565.781921,469.061829,567.499146,468.000549C569.21637,466.93924,575.243958,461.319641,580.89386,455.512543L591.166321,444.954193L590.532776,437.727081C589.984375,431.471527,590.177612,430.055298,591.970276,427.191864C594.704895,422.823761,600.971619,420.049835,608.168213,420.021973C615.231018,419.994598,616.911438,419.363068,618.076721,416.298126C619.438049,412.71759,617.619568,410,613.862305,410C609.857178,410,593.673401,415.431763,588.268372,418.590088C582.718933,421.832825,582.090027,423.252289,582.720825,431.111053C583.487915,440.66745,582.06488,443.876526,573.208435,452.562286C564.20752,461.38974,557.675476,465,550.704773,465C548.008423,465,544.362549,465.683197,542.602844,466.518219C536.956604,469.19754,526.67218,480.060211,521.70813,488.587891C516.936218,496.7854,516.19696,500.076721,517.886963,505.600769C518.374817,507.195343,519.289429,510.400909,519.919434,512.724304C520.806335,515.994995,522.080383,517.647278,525.563843,520.043945C528.03833,521.746399,531.193054,524.929626,532.574341,527.117737C534.665649,530.430542,537.476563,532.631836,540,532.932861C540.275024,532.965698,541.849976,532.133911,543.5,531.084473z"/>
    <path transform="matrix(-0.409836,0,0,-0.409836,-1166.364258,35.51178)" style="stroke:#000000;stroke-width:0.05mm;fill:none" d="M800.50293,527.75C804.877869,521.583496,810,511.838531,810,509.681732C810,508.346405,807.092041,501.358185,803.537842,494.152344C799.457703,485.88028,796.826599,479.173553,796.400085,475.958191C795.900269,472.190643,795.120483,470.469818,793.402893,469.344421C790.530273,467.462189,785.406372,468.372162,783.991516,471.015808C782.693848,473.440521,783.693542,475.871307,789.537048,484.5C796.121765,494.223145,801,504.701141,801,509.121368C801,511.858215,799.976624,514.161194,797,518.122681C792.899963,523.579285,792.085449,526.685425,794.200012,528.799988C796.066895,530.66687,798.750671,530.219788,800.50293,527.75z"/>
    <path transform="matrix(-0.409836,0,0,-0.409836,-1166.364258,35.51178)" style="stroke:#000000;stroke-width:0.05mm;fill:none" d="M394.954315,526.555054C397.300873,523.7276,395.615326,520.699219,388.779083,515.460205C385.082611,512.627319,378.668732,507.089905,374.526093,503.154755C366.154388,495.202484,363.200073,494.238831,360.381195,498.540955C357.811462,502.46286,359.714447,505.284302,367.404907,508.95462C372.433014,511.354309,375.577484,513.888184,381.152985,520.032959C386.765198,526.218262,388.982666,528,391.068481,528C392.546112,528,394.294769,527.349792,394.954315,526.555054z"/>
    <path transform="matrix(-0.409836,0,0,-0.409836,-1166.364258,35.51178)" style="stroke:#000000;stroke-width:0.05mm;fill:none" d="M442.819244,524.93158C451.244843,523.869202,459.396637,523,460.934387,523C466.045502,523,468.696564,519.761169,470.57074,511.227051C474.37561,493.901367,480.017181,489.537415,493.531372,493.466095C499.994232,495.34491,504.927582,494.898834,507.197388,492.230438C508.006989,491.278687,511.331268,486.051117,514.584717,480.613617C518.898438,473.403931,522.124451,469.367218,526.5,465.70401C534.550537,458.96405,534.930908,458.348724,534.971924,452C535.021301,444.356293,537.275757,441.089691,545.232117,437.133209C552.265015,433.635956,555.166626,430.080841,553.351685,427.184906C552.770935,426.258209,551.428162,425.369171,550.367737,425.209259C548.333008,424.902435,535.937378,433.21463,530.190491,438.739655C527.160767,441.652344,526.88623,442.366974,527.469727,445.820953C528.574219,452.358337,525.858826,457.27832,518.624634,461.847137C513.049011,465.368469,512.276367,466.276855,510.733337,471.125336C508.322296,478.701294,505.565277,482.762787,501.526215,484.688904C498.479706,486.141663,497.056274,486.203094,490.269348,485.174774C480.604431,483.710358,476.414246,484.722626,471.124084,489.799835C468.035706,492.763885,467.126068,494.49469,466.551727,498.5C465.674194,504.619415,462.999115,510.87088,460.191681,513.362915C458.71344,514.675049,455.049133,515.606567,447.796509,516.513794C442.133423,517.222229,434.463684,518.374023,430.752655,519.073303C425.489746,520.065002,422.887939,520.086792,418.926361,519.172363C411.877991,517.54541,409.58371,517.69751,407.567322,519.925598C405.309814,522.420105,405.87854,525.114746,409.00885,526.755432C411.914215,528.278198,419.540405,527.866821,442.819244,524.93158z"/>
    <path transform="matrix(-0.409836,0,0,-0.409836,-1166.364258,35.51178)" style="stroke:#000000;stroke-width:0.05mm;fill:none" d="M745.729492,522.75C746.872498,521.512512,748.793884,517.125,749.99939,513C751.204834,508.875,753.498108,503.195221,755.09552,500.378265C760.21521,491.35025,758.838318,486.847839,747.951782,477.017853C741.81134,471.473358,739.801331,468.975952,738.957703,465.842896C736.386658,456.294708,745.310242,445.84198,754.55249,447.575836C756.448425,447.931488,761.712219,450.906708,766.249817,454.187408C774.102966,459.865295,774.716553,460.124084,779,459.565582C796.745117,457.251831,802.639038,457.88031,804.793457,462.315948C805.376892,463.517181,806.334534,467.988892,806.921509,472.253052C807.793091,478.584717,809.175659,482.374756,814.462708,492.925629C818.32251,500.628235,821.656128,506.056763,822.718384,506.369263C823.698242,506.657501,826.299988,507.209595,828.5,507.596069C830.700012,507.982544,834.945007,509.135681,837.933289,510.1586C840.921631,511.181488,844.135742,511.774292,845.075745,511.475952C847.660217,510.65567,849.428223,505.668701,848.048584,503.090729C847.064941,501.252777,846.015564,501,839.36908,501C833.967041,501,830.963745,500.500946,828.849365,499.251953C822.566284,495.540436,816.004883,481.297546,813.96875,466.950378C812.582947,457.185913,810.65155,452.341553,807.781067,451.430511C806.666748,451.076843,798.947693,450.722809,790.627563,450.643738C775.673645,450.501648,775.41748,450.461334,768.312134,447.130615C759.591064,443.04248,757.005493,440.459778,756.289429,435.121246C755.815857,431.590607,756.308716,430.109253,759.976746,424.038452L764.210693,417.031036L763.041809,410.265503C762.398926,406.544495,760.82074,401.700012,759.53479,399.5C756.451904,394.225922,743.710693,382,741.297241,382C738.651794,382,737,383.931824,737,387.025696C737,389.863434,739.063965,392.056335,745.741455,396.313171C750.649292,399.441864,754.596985,404.986389,755.48645,410C755.964294,412.693054,755.489685,414.652802,753.427979,418.5C751.717896,421.691132,750.483032,425.968567,750.014648,430.323547C749.142517,438.431366,747.383728,441.144409,740.5,445C733.189575,449.094604,731.603699,451.71582,731.163574,460.431915C730.687561,469.858002,732.175049,473.032654,740.522827,480.407135C750.921021,489.592987,751.148438,493.180511,742.390381,509.862885C737.651978,518.888611,737.007019,522.322266,739.75,523.919922C742.360901,525.440613,743.439331,525.229614,745.729492,522.75z"/>
    <path transform="matrix(-0.409836,0,0,-0.409836,-1166.364258,35.51178)" style="stroke:#000000;stroke-width:0.05mm;fill:none" d="M649.239807,519.952209C651.413757,517.267456,651.491089,514.652466,649.446777,512.955811C648.218201,511.936218,646.628601,511.902039,641.841675,512.792236C635.607422,513.95166,635.879028,513.997253,625.172058,509.994232C620.185486,508.129883,616.769409,509.938538,617.187195,514.221863C617.548218,517.923706,619.534424,518.877502,632,521.335083C641.593384,523.226379,646.935486,522.797852,649.239807,519.952209z"/>
    <path transform="matrix(-0.409836,0,0,-0.409836,-1166.364258,35.51178)" style="stroke:#000000;stroke-width:0.05mm;fill:none" d="M721.512146,519.35144C727.360168,516.566589,727.610901,516.279236,732.25,507.044769C734.862488,501.844391,737,496.308411,737,494.742584C737,492.588501,735.294434,490.093689,729.99176,484.491333C726.137268,480.418945,722.471558,475.829926,721.845764,474.293488C720.38855,470.715637,720.43042,455.765717,721.913025,450.295471C723.266663,445.301117,727.040039,440.533264,731.369141,438.347107C738.142883,434.926453,740.844116,430.244141,737.799988,427.200012C735.519226,424.91925,731.99231,425.932281,727.711365,430.097748C725.395142,432.351532,722.077087,435.299774,720.337952,436.649384C715.211243,440.627808,713.941284,445.393066,713.281799,463.125732L712.695862,478.880402L715.456665,481.190216C724.059692,488.387695,725.993347,490.44986,727.000305,493.500885C728.646484,498.488922,726.692871,504.54245,721.885315,509.350006L717.96283,513.272522L710.393677,512.586609C702.060303,511.831451,700,512.624451,700,516.58728C700,518.94635,701.950684,520.494568,706.941589,522.096741C710.726746,523.311768,714.812256,522.542053,721.512146,519.35144z"/>
    <path transform="matrix(-0.409836,0,0,-0.409836,-1166.364258,35.51178)" style="stroke:#000000;stroke-width:0.05mm;fill:none" d="M289.574951,516.735229C290.716187,516.055847,293.76355,514.087097,296.346893,512.360229C302.454132,508.277802,307.847015,507.5242,317.116272,509.457947C327.064423,511.533356,332.861267,511.39798,339.439728,508.936676C345.478149,506.677399,348.489716,503.629974,349.552887,498.703033C351.334076,490.448792,356.866638,484,362.166992,484C367.125793,484,371.277374,486.442169,381.064789,495.116638C392.120605,504.915222,397.810333,509.41748,400.261841,510.307007C402.578979,511.147827,406.710785,509.213959,407.284485,507.020142C408.021088,504.203308,406.369965,502.405426,400.875824,500.041931C397.825165,498.729584,392.764435,495.036285,388.546967,491.044464C384.612244,487.320221,379.402954,483.016937,376.970795,481.481567C370.608826,477.465424,362.346344,474.765015,358.801971,475.543488C354.075165,476.581665,349.144806,481.756348,344.968628,490.062378C340.722717,498.50708,337.757721,501.449615,331.906921,503.025055C327.600861,504.18457,324.706451,503.739197,317.595764,500.822998C311.677124,498.395691,310.055115,498.656281,297.305145,504.082916C287.890167,508.090149,287.338776,508.200562,279.957886,507.556732C273.737579,507.01413,272.099304,507.175415,271.055481,508.433136C269.418121,510.406067,270.219299,512.442383,273.471313,514.573181C278.283905,517.726501,286.138458,518.781067,289.574951,516.735229z"/>
    <path transform="matrix(-0.409836,0,0,-0.409836,-1166.364258,35.51178)" style="stroke:#000000;stroke-width:0.05mm;fill:none" d="M788,513C789.099976,511.899994,790,509.798889,790,508.330872C790,505.065887,785.415039,496.773682,778.93512,488.319336C776.102112,484.623108,773.809265,480.441437,773.413452,478.249146C772.352356,472.371399,771.015137,470.620056,763.004883,464.617004C755.244934,458.801514,751.72876,457.7435,750.15332,460.75C748.627686,463.66156,750.590942,466.67688,756.45459,470.427795C762.708313,474.428253,765.312988,478.029327,767.628845,485.876678C768.836304,489.96814,770.475891,492.478027,774.488037,496.376678C779.131958,500.889221,779.846008,502.128967,780.477661,506.77597C781.152954,511.743866,782.971741,515,785.071411,515C785.582153,515,786.900024,514.099976,788,513z"/>
    <path transform="matrix(-0.409836,0,0,-0.409836,-1166.364258,35.51178)" style="stroke:#000000;stroke-width:0.05mm;fill:none" d="M433.5,508C438.8461,506.899994,444.542969,506,446.159729,506C452.786011,506,458.286316,499.628235,456.504974,494.015686C455.559875,491.037964,452.336151,491.524933,446.53244,495.522095C442.010529,498.636444,440.151672,499.21048,430.476257,500.480499C419.310364,501.946136,416.428009,503.345825,417.707794,506.680878C418.201447,507.967346,421.159882,509.740479,423.139923,509.936615C423.491882,509.971466,428.1539,509.100006,433.5,508z"/>
    <path transform="matrix(-0.409836,0,0,-0.409836,-1166.364258,35.51178)" style="stroke:#000000;stroke-width:0.05mm;fill:none" d="M543.116028,507.360229C543.864502,506.458344,545.832092,502.970825,547.488464,499.610229C551.138977,492.203522,555.632935,489.327942,565.393982,488.152802C573.655029,487.158264,580.081543,482.954926,590.520447,471.718445C594.799561,467.112396,599.87561,462.778412,602.616394,461.390869C608.715576,458.30307,616.880432,458.174866,623.412598,461.064362C629.428528,463.725494,632.401611,463.348846,632.804382,459.874481C633.041504,457.829346,632.157349,456.428528,628.804382,453.537231C624.736145,450.029083,624.225708,449.860016,619.5,450.455597C616.75,450.802185,610.864075,451.403961,606.420166,451.792877L598.340271,452.5L587.759949,463.542206C575.901306,475.918518,570.797668,479.228638,560.106873,481.477539C551.023499,483.388275,548.385925,484.772797,543.282959,490.308868C536.192322,498.001282,534.350464,503.519806,537.654968,507.171265C539.703247,509.43457,541.347229,509.491455,543.116028,507.360229z"/>
    <path transform="matrix(-0.409836,0,0,-0.409836,-1166.364258,35.51178)" style="stroke:#000000;stroke-width:0.05mm;fill:none" d="M674.826782,498.75C682.922546,490.97522,687.356812,487.568787,693.189148,484.64386C702.414429,480.017365,702.996704,478.858368,703.007568,465.100769C703.018616,451.142181,704.5802,439.357605,706.910828,435.645172C707.996765,433.915344,711.948608,430.001129,715.692627,426.94693C721.165405,422.482544,722.56134,420.768524,722.812805,418.204132C723.067383,415.608582,722.656189,414.800476,720.605713,413.866211C718.221802,412.780029,717.530579,413.27594,707.803894,423.050354L697.522034,433.38266L696.832153,440.941315C696.452759,445.098602,696.107788,452.325012,696.065552,457C695.928467,472.18631,694.00177,475.788055,682.892273,481.625946C678.204895,484.089081,673.435425,487.991364,666.564087,494.985229C657.91095,503.792633,656.977478,505.089417,657.963867,506.932495C660.24176,511.188782,663.541748,509.587524,674.826782,498.75z"/>
    <path transform="matrix(-0.409836,0,0,-0.409836,-1166.364258,35.51178)" style="stroke:#000000;stroke-width:0.05mm;fill:none" d="M261.799988,503.799988C263.728851,501.871155,263.224548,499.615204,259.47113,493.38205C257.530273,490.158905,255.003311,484.368927,253.855682,480.515411C249.078674,464.475128,243.029648,430.381836,243.01059,419.390778C243.002197,414.544739,242.385544,412.130066,240.028336,407.712769C238.393921,404.649933,236.317062,398.892181,235.413101,394.917755C233.837082,387.988525,233.426788,387.335968,225.431137,379.041748C220.333939,373.754211,214.697998,369.05249,210.931946,366.945984C203.057785,362.541626,199.385071,359.360657,197.225723,355.07489C196.276566,353.191071,194.684311,351.166077,193.687347,350.57489C189.696579,348.208405,186.473663,356.855225,188.934265,363.327087C189.573227,365.007721,191.390594,366.33371,194.684265,367.52243C211.024261,373.4198,217.194901,378.159058,223.715897,389.819672C230.075989,401.192596,232.75267,411.055542,237.936874,442.220673C241.463211,463.419464,243.814621,474.54245,246.408966,482.296692C248.384033,488.199951,250,493.952759,250,495.080688C250,498.209991,251.797531,500.905731,255.313828,503.049774C259.022858,505.31134,260.15744,505.442566,261.799988,503.799988z"/>
    <path transform="matrix(-0.409836,0,0,-0.409836,-1166.364258,35.51178)" style="stroke:#000000;stroke-width:0.05mm;fill:none" d="M593.959229,494.832153C596.456665,491.989868,600.801453,487.314728,603.614319,484.442993C609.620728,478.310974,613.662903,477.156616,621.5,479.335327C624.25,480.099854,628.540161,481.304443,631.033691,482.012238C635.003906,483.13916,636.023071,483.082886,639.233582,481.559387C644.045654,479.27594,653,467.783508,653,463.890991C653,457.816254,648.214233,447.983887,642.050171,441.39444C634.44635,433.265991,632.755188,428.022705,635.06012,419.722656C636.590637,414.211273,641.28125,409.38559,646.796631,407.648041C653.84259,405.428314,658.165344,404.848419,673.181152,404.108643C688.389893,403.359344,691,402.290771,691,396.813629C691,392.869415,688.89032,392.33548,681.071472,394.300751C677.457153,395.209198,670,396.402466,664.5,396.952423C643.668762,399.035431,629,405.354156,629,412.244446C629,413.5289,628.340698,417.110931,627.534912,420.204559C626.360596,424.713226,626.287659,427.086395,627.167419,432.164642C628.197083,438.10791,628.659058,438.879181,634.632141,444.626923C641.732117,451.459106,644,455.774475,644,462.452118C644,465.979004,643.390442,467.650696,641.217529,470.08255C637.238281,474.536133,631.787292,474.967499,621.310547,471.657898C610.064514,468.105286,607.880188,468.819489,597.517578,479.4375C593.10791,483.955811,587.362488,489.335907,584.75,491.39325C582.137512,493.450623,580,495.688782,580,496.366943C580,498.570709,582.324768,500,585.90918,500C588.882996,500,590.111206,499.211517,593.959229,494.832153z"/>
    <path transform="matrix(-0.409836,0,0,-0.409836,-1166.364258,35.51178)" style="stroke:#000000;stroke-width:0.05mm;fill:none" d="M296.360901,493.38916C310.238403,487.906189,314.324432,481.938385,310.539734,472.680389C309.599792,470.381165,308.470428,465.457855,308.03006,461.739685C307.389618,456.33255,306.48291,453.895569,303.500305,449.564972C297.113831,440.292084,297.678162,430.189362,304.843231,425.523926C306.854462,424.214325,311.341217,422.596527,314.813812,421.928772C324.678528,420.031891,330.158203,415.305389,326.960144,411.451965C325.230804,409.368256,321.62915,409.656311,315.685913,412.353577C312.833679,413.648071,308.105804,415.494751,305.179565,416.457336C296.394196,419.347321,291.02359,426.453522,291.005585,435.211914C290.999268,438.280029,294.173676,448.228516,299.393707,461.5C305.460144,476.923401,304.045135,482.968689,293.439728,486.936676C282.061554,491.193787,275.42514,488.572113,272.558228,478.687531C266.702087,458.496613,262.003571,435.632324,262.001373,427.315094C261.999542,420.395081,262.930237,418.278564,269.966736,409.200836C276.7388,400.464294,277.963501,396.763885,275.59729,392.188171C274.718781,390.489288,274,386.826965,274,384.049652C274,376.541595,269.573486,373.017151,263.934265,376.035187C261.342377,377.422333,261.478699,378.718475,264.999207,386.160217C266.648773,389.647095,267.998779,393.820435,267.999207,395.434265C268.000519,400.316223,264.399841,406.274597,259.022125,410.289429L254,414.038788L254,421.920013C254,437.542389,262.67514,478.193146,267.992371,487.486664C272.593658,495.52887,274.519989,496.793701,282.360901,496.921051C285.733002,496.97583,290.020905,495.894073,296.360901,493.38916z"/>
    <path transform="matrix(-0.409836,0,0,-0.409836,-1166.364258,35.51178)" style="stroke:#000000;stroke-width:0.05mm;fill:none" d="M330.732147,491.475067C331.929596,490.636353,334.383759,487.183777,336.185852,483.802673C341.33075,474.149872,348.162018,467.299469,354.47226,465.465027C361.206207,463.507416,366.409424,464.559723,377.839142,470.190674C383.883545,473.168488,388.14151,476.227509,393.312714,481.30719C397.647034,485.564789,402.568909,489.286743,405.853149,490.790314L411.259155,493.265259L420.379578,491.669678C425.395813,490.792114,431.159241,489.817322,433.187195,489.50351C435.215149,489.189697,439.040131,487.485535,441.687195,485.716461C446.03064,482.81369,446.74704,481.768585,449.033203,475C450.426453,470.875,453.238953,465.328033,455.283203,462.673401C459.351166,457.390808,459.87677,454.626282,457.345001,451.828735C455.347443,449.62146,450.715179,449.43335,449.008148,451.490204C448.327911,452.309814,447.178314,456.092987,446.45343,459.897247C443.16214,477.170593,434.44458,484.119446,415.920441,484.235413C407.610718,484.287445,404.018646,482.431946,398.721619,475.351318C395.455322,470.985168,393.354767,469.519409,383.221619,464.535553C364.002441,455.082825,361.2034,454.505066,351.370453,457.96106C343.791168,460.624969,339.671967,463.999268,335.721008,470.780579C333.852386,473.987793,330.923401,477.378479,329.052734,478.5C324.288391,481.356323,320,485.583282,320,487.423065C320,489.748016,323.660492,493,326.277496,493C327.530121,493,329.534698,492.313782,330.732147,491.475067z"/>
    <path transform="matrix(-0.409836,0,0,-0.409836,-1166.364258,35.51178)" style="stroke:#000000;stroke-width:0.05mm;fill:none" d="M468.804718,478.25L474.255768,474.5L485.715912,474.5C496.553223,474.5,497.279938,474.371704,499.088013,472.139221C502.612183,467.787842,500.959259,463.990814,495.549988,464.011871C493.872498,464.018402,490.024994,464.688049,487,465.5C483.975006,466.311951,478.483673,466.981598,474.797058,466.988129C471.110443,466.994659,467.052185,467.474731,465.778748,468.054962C462.476563,469.559509,459,475.076355,459,478.81189C459,483.210358,461.829987,483.048187,468.804718,478.25z"/>
    <path transform="matrix(-0.409836,0,0,-0.409836,-1166.364258,35.51178)" style="stroke:#000000;stroke-width:0.05mm;fill:none" d="M290.799988,476.799988C292.567932,475.032074,292.228668,471.088318,289.870972,466C284.95755,455.395966,281.827637,444.417542,281.285461,435.885712C280.757294,427.574097,280.853638,427.054565,284.02713,421.100494C288.285278,413.111359,292.235779,409.749725,300.656494,406.949829C304.42041,405.698334,310.200012,403.39801,313.5,401.837982C316.799988,400.277954,320.226807,399.001221,321.115143,399.000793C323.663025,398.999542,328,395.065887,328,392.756165C328,389.591553,325.095154,387,321.547974,387C319.183838,387,317.427185,388.010773,314.452942,391.082428C309.339966,396.362885,306.430115,397.822723,297.680939,399.496796C287.778168,401.391571,287.434845,401.580841,284.359497,406.840973C282.861359,409.403442,279.927399,413.665497,277.8396,416.312225C272.409546,423.195923,271.723267,426.670593,273.546539,438.047852C274.379669,443.246521,276.140472,451.100006,277.459412,455.5C278.778381,459.899994,280.335724,466.149231,280.920166,469.387177C281.504639,472.625122,282.491791,475.887634,283.113861,476.637177C284.511414,478.321136,289.179993,478.420013,290.799988,476.799988z"/>
    <path transform="matrix(-0.409836,0,0,-0.409836,-1166.364258,35.51178)" style="stroke:#000000;stroke-width:0.05mm;fill:none" d="M149.504791,473.586121C152.640564,470.450348,153.708313,466.279755,151.850876,464.422302C151.076248,463.647675,147.755402,462.521576,144.471237,461.919861C141.187057,461.318115,134.899994,459.789124,130.5,458.522095C119.803719,455.441956,100.899643,452.608643,96.523018,453.429718C94.584244,453.793427,93,454.690216,93,455.423981C93,457.081482,96.476776,458.510803,105.5,460.562866C117.173454,463.217621,133.150742,468.8284,139.5,472.502747C142.800003,474.412476,145.857956,475.980591,146.295456,475.987488C146.732956,475.994354,148.177155,474.913757,149.504791,473.586121z"/>
    <path transform="matrix(-0.409836,0,0,-0.409836,-1166.364258,35.51178)" style="stroke:#000000;stroke-width:0.05mm;fill:none" d="M869.790771,466.004272C870.313965,448.918884,865.530029,432.763062,855.292847,417.043121C849.585266,408.278778,829.727356,387.70932,819.390869,379.854797C812.574707,374.675293,796.205017,356.922577,791.58374,349.698364C787.108459,342.702332,785.360718,337.990112,784.600891,330.871094C784.285645,327.916992,783.323975,318.926605,782.463928,310.892426C781.040405,297.594208,781.04248,295.400818,782.487305,286.421997C783.696533,278.907532,784.917603,275.051361,787.615723,270.226654C791.576111,263.144836,791.161499,261,785.832092,261C782.052185,261,778.407715,264.650543,777.211365,269.63504C771.526611,293.319641,770.860962,301.174683,773.893677,308.787018C775.662537,313.226929,776,316.191742,776,327.291046L776,340.508026L781.25,348.93454C784.137512,353.569122,789.633423,360.675293,793.463135,364.726044C797.292847,368.776794,801.567871,374.208069,802.963135,376.795532C805.073914,380.709808,806.67572,382.107788,812.5,385.118561C818.145874,388.037109,820.370544,389.931885,824,394.913239C826.522522,398.375336,830.803711,402.617188,833.74231,404.566071C839.861938,408.624634,848.160339,419.242004,853.370117,429.679016C858.947021,440.851471,861.194824,449.88031,861.472656,462.22522C861.737549,473.996002,862.65918,476.295197,866.914429,475.800568C869.468994,475.503601,869.503479,475.386078,869.790771,466.004272z"/>
    <path transform="matrix(-0.409836,0,0,-0.409836,-1166.364258,35.51178)" style="stroke:#000000;stroke-width:0.05mm;fill:none" d="M428.360931,471.260498C432.420258,468.940521,435.634003,462.345764,437.015991,453.5C438.923126,441.292908,442.667267,438.51593,455.769897,439.590454C461.424652,440.054169,464.976624,439.800018,469,438.643799C472.024994,437.774475,479.421509,436.575134,485.436676,435.978607C491.451843,435.38205,499.46875,434.242828,503.252045,433.446991C507.035339,432.651154,512.331116,432,515.020447,432C519.466614,432,520.990601,431.277771,531.823853,424.036346C541.088562,417.843445,544.132874,415.239746,545.51532,412.326538C547.571594,407.993256,548.529053,401.24411,547.608093,397.574738C546.859253,394.591034,543.179321,393.298492,540.109985,394.941132C538.277283,395.921967,538.061035,396.860352,538.266846,402.938995C538.549805,411.296509,537.278442,413.02951,526.840088,418.514709C521.385925,421.380798,517.095337,422.655731,506.704498,424.497955C483.795349,428.559631,459.693146,431.999268,453.995026,432.020111C445.371094,432.051666,435.970886,433.71637,433.916046,435.575958C432.883728,436.510193,431.799683,438.900299,431.50705,440.887299C428.070923,464.218201,426.237335,466.99295,415.714691,464.785797C412.75592,464.165192,409.584717,463.945374,408.667572,464.297333C406.044556,465.303864,406.641235,469.57019,409.75,472.036896C412.148254,473.93985,413.313629,474.14447,418.860931,473.636749C422.359436,473.316528,426.63443,472.247223,428.360931,471.260498z"/>
    <path transform="matrix(-0.409836,0,0,-0.409836,-1166.364258,35.51178)" style="stroke:#000000;stroke-width:0.05mm;fill:none" d="M850.574402,470.526794C851.99353,468.360901,852.051758,466.962921,851.042786,459.276794C848.896973,442.929596,842.354614,427.945313,833,417.952362C827.454956,412.0289,824.348816,411.119873,817.755371,413.490845C813.553223,415.001923,810.995117,415.166046,800.873047,414.574005C794.311707,414.190216,787.635742,413.42038,786.037659,412.863281C782.082092,411.484375,780,407.94519,780,402.600281C780,400.141724,779.563049,396.980865,779.028931,395.576141C776.978699,390.183502,765.746643,376.920288,759.387085,372.382141C752.114868,367.19281,751,365.617859,751,360.53363C751,354.985504,753.506165,350.216461,759.395508,344.557739L764.781433,339.382751L765.524902,328.475739C766.106018,319.949829,765.966125,317.032928,764.884155,315.114532C763.137817,312.018158,761.909424,311.614502,759.529358,313.354889C757.990723,314.47995,757.59967,316.201294,757.424927,322.618378C757.185242,331.420074,756.345947,334.18338,751.988586,340.516632C750.33667,342.917542,747.177307,348.620331,744.967712,353.189484C739.347046,364.812347,740.023254,367.487976,750.545349,375.25769C758.384949,381.0466,767.83667,391.376587,770.216553,396.756622C771.264099,399.124786,772.560974,403.86084,773.098511,407.281189C773.636047,410.701538,774.328369,414.33255,774.637085,415.350098C775.441589,418.002167,782.777527,420.925629,790.15686,421.534973C793.645569,421.823059,799.424988,422.531525,803,423.109344C808.342346,423.972809,810.279297,423.87854,813.875732,422.579956C825.238708,418.477081,830.718811,422.900757,838.553101,442.5C840.636169,447.711151,841.510376,451.978455,841.97406,459.198578C842.451355,466.629974,843.030945,469.37674,844.453491,470.948578C846.902344,473.654572,848.601746,473.537476,850.574402,470.526794z"/>
    <path transform="matrix(-0.409836,0,0,-0.409836,-1166.364258,35.51178)" style="stroke:#000000;stroke-width:0.05mm;fill:none" d="M326.486603,465.20694C327.593964,463.407959,329.413757,460.487976,330.530609,458.718048C333.012817,454.784302,346.079163,447.797089,354.460938,445.921326C362.469574,444.129059,368.108337,445.512451,383.01535,452.926697C389.731354,456.266998,396.284515,459,397.577942,459C399.791077,459,402,456.512482,402,454.020294C402,451.840607,397.089478,448,394.295441,447.994415C389.519958,447.984894,384.317932,446.080505,378.801971,442.322418C373.9711,439.031158,372.592499,438.62381,363.286713,437.738037L353.073425,436.7659L343.523468,441.411682C331.671082,447.177551,320.390869,454.401154,318.905579,457.176453C317.628693,459.562286,318.308044,465.461304,320.10965,467.632111C321.89267,469.780548,324.214935,468.897369,326.486603,465.20694z"/>
    <path transform="matrix(-0.409836,0,0,-0.409836,-1166.364258,35.51178)" style="stroke:#000000;stroke-width:0.05mm;fill:none" d="M667.58667,455.508087C669.101013,453.196869,669.092773,452.48996,667.472534,445.758087C665.181519,436.23941,664.519592,435.111664,660.169495,433.315765C655.101318,431.223389,653,429.130127,653,426.173767C653,423.38385,655.561523,420,657.673401,420C658.423279,420,661.166016,421.112152,663.768433,422.471436L668.5,424.942841L674.329407,423.136902C679.001221,421.689575,681.230652,421.515656,685.556824,422.260986C690.320801,423.081757,691.369202,422.934937,694.482117,421.011047C696.422119,419.812073,700.981934,415.42276,704.615112,411.256989C710.811157,404.152649,711.188538,403.442261,710.700317,399.802246C710.414001,397.667877,709.634216,395.264221,708.967468,394.460785C705.985718,390.868011,701.003479,394.625519,700.996277,400.472504C700.990417,405.206848,697.532837,409.87677,692.329102,412.178619C688.651306,413.805481,684.331726,414.395813,671.105774,415.079193C661.972595,415.551086,653.375,416.238434,652,416.606628C647.560303,417.795471,645,420.960846,645,425.260864C645,428.665436,645.76123,429.9729,650.866089,435.336548C657.612244,442.424744,658.534607,443.961182,660.018494,450.582397C661.759216,458.349915,664.539124,460.15921,667.58667,455.508087z"/>
    <path transform="matrix(-0.409836,0,0,-0.409836,-1166.364258,35.51178)" style="stroke:#000000;stroke-width:0.05mm;fill:none" d="M485,455C493.507843,452.770111,497.836823,452.549286,503.300385,454.066498C510.596405,456.092529,518.044128,451.296234,516.591187,445.507294C516.081482,443.476379,515.348022,443.001068,512.730957,443.005585C510.953918,443.008636,507.850525,443.469299,505.834534,444.029236C503.818512,444.589203,495.579102,445.677551,487.524719,446.447845C472.820648,447.854065,468,449.336395,468,452.45163C468,454.851807,470.997986,457.000793,474.321442,456.982849C476.069641,456.97345,480.875,456.081146,485,455z"/>
    <path transform="matrix(-0.409836,0,0,-0.409836,-1166.364258,35.51178)" style="stroke:#000000;stroke-width:0.05mm;fill:none" d="M560.097046,450.23291C570.92041,441.92453,575.224304,434.289856,571.726929,429.602539C569.1474,426.145355,565.829346,428.158447,562.483887,435.210358C559.867737,440.724823,558.870911,441.808105,554.395813,444C547.690857,447.284088,546,448.785614,546,451.45578C546,454.424927,546.747986,455,550.610168,455C552.98584,455,555.594727,453.689056,560.097046,450.23291z"/>
    <path transform="matrix(-0.409836,0,0,-0.409836,-1166.364258,35.51178)" style="stroke:#000000;stroke-width:0.05mm;fill:none" d="M418.39444,451.75C419.186737,450.512512,420.14505,446.504303,420.524048,442.842865C421.179779,436.507629,421.093597,436.107422,418.741516,434.566315C412.977966,430.789886,407.949982,437.371246,409.915405,446.119263C410.807129,450.08844,413.870758,454,416.087738,454C416.564117,454,417.602142,452.987488,418.39444,451.75z"/>
    <path transform="matrix(-0.409836,0,0,-0.409836,-1166.364258,35.51178)" style="stroke:#000000;stroke-width:0.05mm;fill:none" d="M323.330139,440.107239C327.591736,437.416229,333.77832,434.204834,337.078125,432.970795C342.331635,431.006104,346,428.07785,346,425.848907C346,425.460571,345.292847,424.435699,344.428558,423.571442C341.708923,420.851776,337.355225,421.672699,331.984863,425.917725C326.997314,429.860168,323.63562,431.305725,316.782135,432.455078C312.406769,433.188843,310,435.280396,310,438.348907C310,440.991272,312.620392,445,314.347626,445C315.026428,445,319.068573,442.798279,323.330139,440.107239z"/>
    <path transform="matrix(-0.409836,0,0,-0.409836,-1166.364258,35.51178)" style="stroke:#000000;stroke-width:0.05mm;fill:none" d="M616.051147,438.948853C618.332275,436.667694,617.957275,433.434509,615.149048,431.170654C613.158813,429.566284,604.791687,430.098083,602.533203,431.972473C600.707336,433.487762,600.510559,438.110596,602.200012,439.799988C602.859985,440.459991,605.784973,441,608.700012,441C612.710754,441,614.498962,440.501038,616.051147,438.948853z"/>
    <path transform="matrix(-0.409836,0,0,-0.409836,-1166.364258,35.51178)" style="stroke:#000000;stroke-width:0.05mm;fill:none" d="M801.065735,439.964813C802.182922,439.366913,803,437.87796,803,436.440063C803,433.103851,799.845886,432.005646,790.184875,431.978027C784.701721,431.962372,781.251099,431.389374,778.140808,429.978027C773.12384,427.701538,770.892639,427.507385,769.200012,429.200012C766.253906,432.146088,768.674316,436.865021,774,438.558289C779.999817,440.465912,798.347839,441.419403,801.065735,439.964813z"/>
    <path transform="matrix(-0.409836,0,0,-0.409836,-1166.364258,35.51178)" style="stroke:#000000;stroke-width:0.05mm;fill:none" d="M399.428558,436.428558C400.292847,435.564301,401,434.246948,401,433.50116C401,429.702271,388.093842,424.809052,383.938995,427.032654C379.908844,429.189514,382.22934,433.466919,389.029755,436.416534C393.55835,438.380768,397.471863,438.385284,399.428558,436.428558z"/>
    <path transform="matrix(-0.409836,0,0,-0.409836,-1166.364258,35.51178)" style="stroke:#000000;stroke-width:0.05mm;fill:none" d="M371.995178,425.009033C373.712738,421.799713,370.804657,417.32135,366.084778,415.907257C359.075378,413.80719,354.029785,416.99826,355.444885,422.636444C356.209961,425.684723,359.005035,426.855042,365.714813,426.936615C369.937286,426.987946,371.132385,426.621124,371.995178,425.009033z"/>
    <path transform="matrix(-0.409836,0,0,-0.409836,-1166.364258,35.51178)" style="stroke:#000000;stroke-width:0.05mm;fill:none" d="M433.006592,423.982452C434.927979,423.422821,442.125,422.513,449,421.960693C473.244965,420.012878,516.173645,412.482544,523.059814,408.969482C525.458069,407.746002,527.203735,406.036469,527.578125,404.544678C528.85321,399.464355,525.817993,398.785614,516.406555,402.046509C502.676514,406.803711,466.646667,412.778259,438.220093,415.011536C419.110107,416.512878,404.630524,414.389771,389.832397,407.916626C386.165192,406.312469,382.709839,405,382.153809,405C380.472107,405,378,408.018219,378,410.071442C378,413.63092,381.282379,415.643768,388.129486,416.283173C392.225006,416.665619,396.935516,418.000641,401.039001,419.941895C406.041199,422.308289,408.96759,423.021118,414,423.098877C417.575012,423.154144,421.625,423.559662,423,424C426.577454,425.145691,429.02774,425.141418,433.006592,423.982452z"/>
    <path transform="matrix(-0.409836,0,0,-0.409836,-1166.364258,35.51178)" style="stroke:#000000;stroke-width:0.05mm;fill:none" d="M566.984009,417.910004C569.779358,417.310516,574.414001,415.22168,577.283264,413.268158C588.59137,405.56897,604.407104,400,614.964539,400C620.61676,400,622.67627,399.488892,627.590149,396.866699C637.824097,391.405548,649.796997,388.001129,664,386.513763C667.575012,386.139374,673.200012,385.143494,676.5,384.30069C679.998413,383.407166,687.432739,382.712341,694.330994,382.634125C704.919922,382.514069,706.315613,382.290039,707.625061,380.5C709.703369,377.658875,709.025024,372.616089,706.5,372.136566C705.400024,371.927673,700.450012,372.481354,695.5,373.366974C690.549988,374.252625,677.049988,376.572113,665.5,378.521393C651.018555,380.965424,641.395935,383.172821,634.5,385.632721C629,387.594635,618.650024,390.459137,611.5,391.99826C595.6427,395.411743,585.606323,398.927338,576.889221,404.121887C572.303345,406.854584,568.627625,408.246063,564.889221,408.664581C556.609375,409.591492,553.277161,413.979431,558.222534,417.443298C560.868652,419.296722,560.587769,419.281769,566.984009,417.910004z"/>
    <path transform="matrix(-0.409836,0,0,-0.409836,-1166.364258,35.51178)" style="stroke:#000000;stroke-width:0.05mm;fill:none" d="M743.387756,414.856812C745.618225,411.672333,743.523438,407.663574,737.580872,403.744293C730.300171,398.942444,726.8125,394.103821,726.224976,387.989685C725.782043,383.379761,726.077942,382.404144,729.367981,377.627136C731.365601,374.726715,733,371.893799,733,371.331818C733,369.114197,729.104919,366.756836,726.514832,367.406921C722.138611,368.50528,720.541077,371.100769,719.151611,379.370056C717.98175,386.332367,718.026917,387.919922,719.555664,393.567474C721.102478,399.28186,722.120483,400.790863,729.605042,408.463013C738.329224,417.405914,740.799561,418.55191,743.387756,414.856812z"/>
    <path transform="matrix(-0.409836,0,0,-0.409836,-1166.364258,35.51178)" style="stroke:#000000;stroke-width:0.05mm;fill:none" d="M348.065735,410.964813C352.173981,408.766144,349.645782,402.483398,343.474335,399.55484C340.166718,397.98526,339.684509,397.976715,337.439728,399.44754C335.820435,400.508545,335.010681,401.963104,335.031799,403.773041C335.103271,409.900696,342.464569,413.962463,348.065735,410.964813z"/>
    <path transform="matrix(-0.409836,0,0,-0.409836,-1166.364258,35.51178)" style="stroke:#000000;stroke-width:0.05mm;fill:none" d="M370.498535,403.001617C373.16214,400.05838,371.771942,398.10733,361.525452,390.408508C331.652008,367.962677,318.073578,362.673431,280.834381,358.976807C269.100464,357.812012,257.25,356.233826,254.5,355.469727C246.559677,353.263458,240.462067,348.78241,235.994492,341.870178C230.198334,332.902405,229.832352,330.795471,231.066513,313.5C232.525085,293.059601,233.381454,288.821686,238.006897,279.153961C240.20311,274.563629,242,270.202698,242,269.462982C242,267.193481,240.035278,266.746857,237.46376,268.431793C232.12149,271.932159,225.956635,289.276459,223.520508,307.659912C222.657547,314.171967,221.523132,321.299988,220.999603,323.5C219.294449,330.665375,219.753693,332.323853,225.589569,340.0755C233.607437,350.725464,236.426636,353.44696,246.316605,360.084381L255.133209,366.001434L263.316589,365.377228C269.692169,364.8909,272.355408,365.111664,275.372131,366.376495C277.991791,367.474854,282.209656,368,288.412018,368C298.293243,368,306.704071,369.729736,312.1091,372.873413C313.974091,373.95813,317.75,375.166687,320.5,375.559113C327.632111,376.576843,329.823853,377.582916,334.699463,382.077087C337.075745,384.267456,342.333313,387.56955,346.382965,389.415039C352.478455,392.19281,354.308258,393.607941,357.012177,397.635223C358.808594,400.310852,360.976746,403.0625,361.830322,403.75C364.160431,405.62677,368.458649,405.255676,370.498535,403.001617z"/>
    <path transform="matrix(-0.409836,0,0,-0.409836,-1166.364258,35.51178)" style="stroke:#000000;stroke-width:0.05mm;fill:none" d="M814.454102,402.945892C816.30249,401.097504,812.759155,396.657043,807.971802,394.822449C801.71698,392.425476,795.879028,392.520691,792.634888,395.072571C786.979065,399.521423,790.019531,403.078339,800.333679,404.079224C808.289978,404.851318,812.920349,404.479675,814.454102,402.945892z"/>
    <path transform="matrix(-0.409836,0,0,-0.409836,-1166.364258,35.51178)" style="stroke:#000000;stroke-width:0.05mm;fill:none" d="M255.443298,399.777496C257.50824,396.829376,257.423676,395.747559,254.610687,389.125031C253.296555,386.031281,251.728775,381.671844,251.126709,379.437469C250.200211,375.998993,248.958252,374.641235,243.04213,370.598907C234.259445,364.597992,222.833817,354.072266,218.90683,348.364594C215.258453,343.061859,211.129532,342.346497,208.381195,346.540955C206.008911,350.16153,207.645813,353.044586,214.162598,356.723694C220.342041,360.212372,240.176102,377.930817,242.979538,382.466888C244.026688,384.161224,245.330719,388.324799,245.87738,391.719269C246.424057,395.113739,247.366104,398.815552,247.97084,399.945526C249.437485,402.685974,253.46962,402.595306,255.443298,399.777496z"/>
    <path transform="matrix(-0.409836,0,0,-0.409836,-1166.364258,35.51178)" style="stroke:#000000;stroke-width:0.05mm;fill:none" d="M572.997681,394.00116C582.641418,389.152405,592.39032,385.808136,606.711914,382.435822C612.645386,381.038696,622.900024,378.178772,629.5,376.080444C636.099976,373.982117,650.724976,370.598755,662,368.56189C673.275024,366.525024,687.089172,363.990326,692.69812,362.92926C698.307129,361.868164,705.297729,361,708.232788,361C711.167908,361,716.130005,360.100006,719.259705,359C722.389343,357.899994,725.761169,357,726.752502,357C730.271667,357,732.902466,353.867126,738.779602,342.677643C745.90033,329.120361,746.98999,326.040924,747.14801,319.028503C747.239746,314.957031,746.842896,313.358307,745.496216,312.373596C742.821716,310.417938,740.243713,312.352692,738.97583,317.266998C736.487671,326.911041,731.725525,340.922211,729.935364,343.865875C727.145691,348.453186,722.610962,350.786224,715.087769,351.50473C706.502319,352.324707,672.802063,358.231567,652.5,362.474854C627.863037,367.624207,569.683716,384.373322,559,389.392365C553.945923,391.766693,556.186218,398,562.093628,398C563.716553,398,568.623413,396.200531,572.997681,394.00116z"/>
    <path transform="matrix(-0.409836,0,0,-0.409836,-1166.364258,35.51178)" style="stroke:#000000;stroke-width:0.05mm;fill:none" d="M302,387.212341C304.236511,386.118164,305.5,384.788666,305.5,383.529541C305.5,380.391449,301.330017,378.959351,293.020996,379.243896C285.913269,379.487274,285.495483,379.63266,284.605194,382.172516C283.889954,384.212982,284.08725,385.484192,285.439392,387.547821C287.121216,390.114655,287.494354,390.217285,292.855164,389.587677C295.959839,389.223053,300.075012,388.154144,302,387.212341z"/>
    <path transform="matrix(-0.409836,0,0,-0.409836,-1166.364258,35.51178)" style="stroke:#000000;stroke-width:0.05mm;fill:none" d="M791.016235,384.187927C794.231384,381.584442,793.100159,379.210602,784.60498,370.734192C780.617371,366.755402,776.037476,361.024994,774.427368,358C771.913025,353.27597,771.09198,352.5,768.60791,352.5C764.962708,352.5,761.460327,356.724243,762.469421,359.903656C762.843689,361.082855,765.631409,363.880829,768.664307,366.121399C771.697266,368.361969,775.601074,372.285553,777.339417,374.840485C781.062073,380.31189,786.388428,386,787.789246,386C788.333313,386,789.785461,385.18457,791.016235,384.187927z"/>
    <path transform="matrix(-0.409836,0,0,-0.409836,-1166.364258,35.51178)" style="stroke:#000000;stroke-width:0.05mm;fill:none" d="M202.183456,338.25C207.42691,332.612183,208.401398,329.563507,214.034149,301.174957C216.331726,289.595367,221.549988,274.149963,225.362534,267.644348C229.160492,261.163635,235.210266,256.149902,240.193848,255.353012C245.371017,254.525146,249,251.145721,249,247.152451C249,241.890793,244.175766,242.260361,234.860733,248.235565C221.540344,256.780029,215.092972,269.040497,204.951874,305.110809C202.108337,315.224884,198.480896,326.293732,196.8909,329.708313C195.300903,333.122864,194,337.060364,194,338.458313C194,340.578186,194.466827,341,196.812912,341C198.594833,341,200.563232,339.992065,202.183456,338.25z"/>
    <path transform="matrix(-0.409836,0,0,-0.409836,-1166.364258,35.51178)" style="stroke:#000000;stroke-width:0.05mm;fill:none" d="M758.167175,302.278931C759.104736,301.469696,760.112183,298.577454,760.469238,295.669983C761.01416,291.232544,763.840332,278.156067,767.154724,264.736877C770.091797,252.845367,785.696411,247.065643,797.715881,253.417496C803.724487,256.592865,806.519104,256.387207,814.320374,252.195557C819.731201,249.288269,821.747742,246.605881,820.055359,244.566711C819.218018,243.5578,814.821106,243.333374,800.698608,243.578735C776.270386,244.003143,770.16394,245.451187,764.520752,252.157715C761.08606,256.239563,760.584229,257.584473,756.370422,274C754.464478,281.424988,751.801392,289.91687,750.452515,292.87085C749.103638,295.824799,748,299.326813,748,300.653076C748,304.736267,754.175964,305.723877,758.167175,302.278931z"/>
    <path transform="matrix(-0.409836,0,0,-0.409836,-1166.364258,35.51178)" style="stroke:#000000;stroke-width:0.05mm;fill:none" d="M269.052795,255.18251C274.080292,250.155014,275.093689,246.304047,272.039978,243.831284C269.575409,241.835602,264.923767,241.435257,262.052826,242.971725C260.105591,244.01387,257.236572,255.955734,258.458466,257.9328C259.978821,260.392761,265.197235,259.038055,269.052795,255.18251z"/>
</svg>
