<?xml version="1.0" encoding="UTF-8"?>
<svg xmlns="http://www.w3.org/2000/svg" width="257.983mm" height="233.305mm" viewBox="-767.496643 -253.428162 257.983215 233.305450">
    <path transform="matrix(-0.26455,0,0,-0.26455,-502.96405,-1.336792)" style="stroke:#000000;stroke-width:0.05mm;fill:none" d="M802.779541,949.929565C790.754944,946.3526,786.237366,944.279297,773.251953,936.378357C760.431641,928.577881,757.084595,925.835999,739.219971,908.5C725.9953,895.666687,724.426636,893.758911,720.396545,885.607117C717.978455,880.716003,716,876.306763,716,875.808777C716,875.310791,715.099976,873.040588,714,870.763855C712.900024,868.487122,712,866.037842,712,865.320984C712,864.604126,710.685974,860.976135,709.079956,857.258789C707.473938,853.541443,704.806213,847.125,703.151672,843C701.49707,838.875,698.699707,832.125,696.935242,828C695.170776,823.875,692.771057,818.25,691.602417,815.5C687.526123,805.907349,678.744202,794.355347,664.763245,780.194824C659.826233,775.194397,640.78479,758.062988,634.793335,753.231201C631.882019,750.883362,627.620239,747.373108,625.322754,745.430603C621.400024,742.113953,619.788696,740.886963,611,734.523987C609.075012,733.13031,605.474976,730.42804,603,728.518982C589.440918,718.060364,578.690186,711.941895,563.515869,706.047791C559.124634,704.342102,552.374634,701.095703,548.515869,698.833557C544.657166,696.571411,539.025024,693.261536,536,691.47821C528.760254,687.210327,518.325439,682,517.017639,682C516.445923,682,514.070618,681.130859,511.739105,680.068604C503.653137,676.384521,497.459442,674.651978,489.5,673.847717C485.100006,673.403137,479.024994,672.616394,476,672.099365C472.975006,671.582336,467.575012,670.7052,464,670.150146C457.404083,669.125977,441.238922,666.314209,410.5,660.84436C401.149994,659.180542,391.25,657.451599,388.5,657.002258C385.75,656.552917,380.575012,655.673828,377,655.048767C360.129303,652.09906,350.617706,650.755371,334,648.974365C315.31842,646.972168,290.514343,644.162598,280.5,642.914368C271.840363,641.834961,240.072479,639.969971,230.75,639.993713C227.587494,640.00177,222.1875,640.045349,218.75,640.090515C215.3125,640.135742,209.275101,639.860229,205.333572,639.478271C195.117538,638.48822,189.658493,640.500549,181.147446,648.393738C177.491348,651.784424,172.839569,655.785217,170.810165,657.284302C168.780746,658.783447,164.212341,662.820251,160.658157,666.255005C157.103973,669.689758,149.870651,676.325012,144.584137,681C139.297607,685.674988,132.166,691.997742,128.73613,695.050476C125.306259,698.10321,121.535477,701.253235,120.356613,702.050476C119.17775,702.847717,114.357353,706.143738,109.64463,709.375C101.302055,715.095032,97.077164,716.477173,94.823547,714.223572C92.747414,712.1474,90.815117,699.753845,91.943321,695.75C92.524498,693.6875,93.524948,690.087524,94.16655,687.75C96.78759,678.200928,107.910355,659.764282,128.280975,631.203247C130.910522,627.516479,134.184006,622.924988,135.555389,621C136.926773,619.075012,139.411285,615.700012,141.076523,613.5C146.201797,606.728821,150,600.673096,150,599.272644C150,598.538025,149.037338,595.138611,147.860764,591.718445C145.939972,586.13501,143.891724,569.366394,143.864258,559C143.848663,553.109131,145.849564,530.828308,146.917603,525C149.39743,511.467438,150.371948,502.96228,150.240417,496C149.931595,479.653717,148.122589,449.224701,147.178726,444.5C145.069717,433.94281,142.909897,425.610931,141.505875,422.615936C140.702469,420.902161,138.683426,415.345825,137.019135,410.268524C135.354828,405.191193,133.096344,399.566193,132.00029,397.768524C130.904251,395.970825,130.005798,393.950836,130.003738,393.279633C129.998108,391.441986,125.50312,382.003143,122.602501,377.738037C121.195351,375.668976,116.001038,365.964355,111.05957,356.172272C106.118111,346.380157,100.370705,336.153046,98.287552,333.445343C93.763916,327.56546,79.648628,313.569214,70.832878,306.222198C67.349792,303.319427,61.707909,298.594421,58.295353,295.722198C54.882797,292.850006,48.96043,287.883789,45.134541,284.686188L38.178379,278.872345L37.55669,268.186188C37.214756,262.308777,36.515221,247.149994,36.002159,234.5C35.207973,214.918594,34.290569,197.712784,32.563057,170C32.374489,166.975006,31.687635,160.675003,31.036713,156C30.38579,151.324997,29.464039,144.574997,28.988379,141C28.512716,137.425003,27.633411,132.024994,27.034365,129C25.084164,119.1521,24.029531,98.773857,25.331173,96.089935C26.965418,92.7202,31.059788,89.92704,35.891838,88.885506C38.151325,88.398476,41.912498,87.547302,44.25,86.994003C60.264133,83.203369,71.001114,82.211609,76.666573,83.999725C78.774956,84.665169,83.046524,86.962456,86.158951,89.104813C89.27137,91.247162,92.230431,93,92.734634,93C93.238838,93,94.629814,94.041504,95.825684,95.314453C97.508812,97.106056,98,98.859619,98,103.076843C98,107.790138,97.056099,110.457558,91.000351,122.857536C87.150543,130.74054,83.057587,138.514755,81.9049,140.13356C80.752205,141.752365,78.420296,146.997055,76.722862,151.788422C73.681168,160.374283,73.630829,160.831894,73.234367,183.5C72.837166,206.210632,72.865227,206.598404,75.464882,214.321762C78.159645,222.327713,89.42746,242.19873,96.111809,250.733047C98.165306,253.354874,101.734962,258.542664,104.044388,262.261475C110.697487,272.974823,114.8806,272.464783,121.351158,260.151276C127.570229,248.316376,130.704651,236.315948,131.310272,222.021881C131.478958,218.040558,131.195602,217.396942,128.756088,216.220245C125.23996,214.524216,124.157631,210.588287,126.496643,208.003708C127.457855,206.941574,130.295456,205.780289,132.865158,205.397385C135.414322,205.017532,138.850006,203.70166,140.5,202.473206C146.252045,198.19072,154.760193,195.998672,165.566574,196.01506C177.907257,196.033768,186.234299,198.851822,194.662674,205.861847C196.407242,207.312836,198.996826,209.308502,200.417313,210.296692C204.958328,213.455704,203.983337,217.102173,196.303299,225.683273C189.031906,233.807785,182.315567,238,176.570755,238C174.648102,238,170.597229,238.927063,167.568802,240.06015C162.80777,241.841476,161.657196,242.822678,159.067322,247.31015C151.921875,259.690979,151.783325,260.215973,150.867294,278.379639C150.018188,295.216278,150.029831,295.375092,152.409729,299.42215C158.04451,309.004272,184.74733,330.804626,226,359.501709C231.225006,363.136444,238.356277,368.097687,241.84729,370.526672C245.338303,372.955688,249.909256,376.418365,252.00499,378.221527C254.100708,380.024689,258.871399,383.975006,262.606567,387C269.83313,392.852631,290.293579,413.081604,295.80777,419.825592C301.83017,427.191162,304.92627,432.434967,306.538483,438C314.978882,467.134613,317.834106,472.213348,324.583618,470.0979C349.456421,462.302216,366.425598,456.304688,370.316437,453.934296C373.675018,451.888184,376.436676,451,379.440277,451C383.19632,451,384.527374,451.671997,389.83902,456.25C402.856201,467.469238,402.130524,467.218994,415.5,465.099091C419.350006,464.488617,426.100006,463.536224,430.5,462.982635C434.899994,462.429077,441.424988,461.572815,445,461.079865C450.890686,460.267639,454.489502,459.691833,470.5,457C473.25,456.537628,478.424988,455.675354,482,455.083832C485.575012,454.492279,490.75,453.535767,493.5,452.958221C502.451904,451.078217,507.403076,450.095673,513,449.08847C525.957092,446.756775,559.476379,436.485657,571.5,431.162628C579.601013,427.576233,582.175598,426.557648,587.28418,424.917938C590.465454,423.896851,594.515503,422.393707,596.28418,421.577637C600.440369,419.660004,629.786621,410,631.456055,410C632.15686,410,633.956177,409.035706,635.454468,407.857147C638.435059,405.512634,638.412292,406.27243,635.974731,390.5C634.883423,383.43869,633.975769,374.30426,632,350.5C631.406555,343.350006,630.497253,333,629.97937,327.5C629.461487,322,628.580994,312.549988,628.022644,306.5C627.027039,295.711884,626.174011,288.000732,624.095459,271C623.523865,266.325012,622.629456,258.899994,622.107971,254.5C619.602234,233.360153,615.781555,213.161118,612.375427,203.046295C610.994934,198.946762,609.361328,192.134033,608.745239,187.906906C607.757507,181.130219,607.827332,179.912476,609.335571,177.610611C610.611267,175.663651,611.890564,175,614.368042,175C618.888489,175,620.327698,172.99469,622.980652,163C625.801697,152.371918,626.867126,146.167923,628.046875,133.5C630.498901,107.170532,631.624207,99.084908,633.756775,92.471527C636.87146,82.81237,643.526306,75.030884,650.78833,72.55645C656.257874,70.692795,674.363098,70.446426,683.439819,72.112137C692.024841,73.687614,706.055542,78.504532,711.7005,81.814415C719.27002,86.252686,718.989441,89.770714,710.12207,101.609138C703.003479,111.112846,696.788025,117.173553,691.802246,119.472954C686.96521,121.703712,673.098389,136.255585,670.335632,142C666.106018,150.794296,665.138123,160.552505,666.318481,182.5C666.64386,188.550003,667.400146,196.425003,667.999146,200C668.598145,203.574997,669.309265,208.300003,669.579346,210.5C670.25,215.96199,671.758972,223.850327,674.839783,238C678.371643,254.220993,680.634216,264.203033,683.566345,276.5C686.546204,288.997284,688.695801,298.588654,692.082642,314.5C694.203735,324.464691,696.583496,327.538147,698.857727,323.25C700.028259,321.042969,698.554321,287.84436,697.071106,283.006592C696.481995,281.085236,696,276.837311,696,273.566803C696,270.296265,695.49762,264.893311,694.883606,261.560181C694.269592,258.227081,693.357239,253.231644,692.85614,250.459213C692.355042,247.686768,690.382446,242.312576,688.472534,238.516541C684.518127,230.65686,684.38208,229.584732,686.627747,223.972351C687.880249,220.842026,689.321045,219.362427,692.877747,217.55394C697.949646,214.975037,701.272705,211.128357,702.427124,206.5C703.455261,202.377853,705.15686,179.347672,705.197876,169C705.237549,158.968597,703.824951,144.036087,702.664673,142.221909C702.215088,141.518951,700.194092,140.168106,698.173645,139.220016C695.401306,137.919159,694.420288,136.800293,694.175049,134.659683C693.674011,130.285965,696.248474,128.234589,702.828186,127.76474C705.947693,127.541977,710.525024,126.640472,713,125.761391C715.474976,124.882317,719.643982,123.676376,722.264343,123.081535C728.118286,121.752655,754.21582,121.650429,758.429016,122.939873C760.118042,123.45681,764.200012,124.407455,767.5,125.052437C776.904297,126.890465,778.241516,127.442444,780.439148,130.39328L782.5,133.160461L778.63855,140.330231C765.892395,163.996674,762.657837,167.841995,753.318787,170.431503C744.375732,172.911194,741.235535,174.643875,739.45929,178.078781C737.221863,182.405396,736.471375,194.486023,737.828796,204.322678C738.449463,208.820206,739.409363,217.449997,739.961914,223.5C740.514404,229.550003,741.438416,237.425003,742.015198,241C742.59198,244.574997,743.486694,250.425003,744.003418,254C744.520142,257.575012,745.415039,262.524994,745.992126,265C746.569153,267.475006,747.486328,272.200012,748.030212,275.5C749.292419,283.158417,750.618896,290.175323,752,296.5C752.600525,299.25,753.476013,303.524994,753.945557,306C756.388184,318.875,758.409912,328.562714,759.945313,334.75C760.525391,337.087494,761.408508,340.6875,761.907776,342.75C762.407043,344.8125,764.428711,352.575012,766.40033,360C770.1922,374.279633,773.971863,392.229614,775.981201,405.5C777.98999,418.767242,787.69928,441.611633,796.697205,454.241394C830.390747,501.534943,834.434082,514.360962,838.075928,585.5C840.114502,625.320129,838.997681,642.398987,833.684875,652.649658C832.110352,655.6875,824.460693,663,822.857239,663C822.426758,663,820.169983,665.8125,817.842224,669.25C815.514465,672.6875,812.960205,676.157166,812.166077,676.960327C808.833313,680.331055,808.084534,684.208008,809.644897,690.013855C810.740662,694.090942,811.048401,699.994629,810.843018,713C810.688293,722.799744,811.062256,733.423706,811.692993,737.144592C812.312439,740.799133,816.319031,754.218994,820.596436,766.966492C831.629395,799.846619,831.710693,799.909729,862.5,799.476074C876.818542,799.274353,884.956055,798.439148,907,794.908752C913.195557,793.916565,915.569092,793.477173,927.826294,791.053284C934.940002,789.646545,955.303406,789.710999,960.124817,791.155579C966.017273,792.920959,973.90509,801.777527,986.920044,821.241516C997.822266,837.545837,1001.914856,848.553528,999.058716,853.890259C998.373535,855.170593,994.068176,857.883301,988.693359,860.421204C980.354736,864.358643,950.383179,875.925537,940.5,879.020447C933.109192,881.334839,927.536438,884.803162,921.774048,890.674805C916.153198,896.402283,916.027832,896.655334,914.941833,904.463379C913.610291,914.036682,912.588196,916.13147,906.32843,922.116699C896.60675,931.412109,868.876343,948.007629,857.085999,951.586365C853.779236,952.590088,846.921143,952.956421,832.5,952.89978C813.471191,952.824951,812.027954,952.680725,802.779541,949.929565z"/>
    <path transform="matrix(-0.26455,0,0,-0.26455,-502.96405,-1.336792)" style="stroke:#000000;stroke-width:0.05mm;fill:none" d="M856.548706,937.443542C859.325439,936.683228,865.625488,933.507996,870.548706,930.38739C875.471924,927.266785,882.523376,922.947266,886.218628,920.788452C892.345093,917.209229,898,912.052856,898,910.045715C898,907.664185,894.660339,906.738403,888.064087,907.291382C879.542542,908.005798,874.229126,910.618835,870.574585,915.892395C864.523804,924.623718,859.171448,926.941528,843.974487,927.411621C837.663513,927.606873,828.835266,928.099182,824.356079,928.505676L816.212158,929.24469L808.192627,925.158508C803.781921,922.911133,797.996643,920.539185,795.336548,919.887451C787.610291,917.994568,782.087402,914.680542,773,906.484375C768.325012,902.267883,761.001099,895.668762,756.724731,891.81958C748.180969,884.129517,745.903076,880.506104,743.434753,870.67981C741.488342,862.931152,739.27832,860.545471,734.046448,860.545471C725.812683,860.545471,725.087769,864.774902,731.233704,876.955139C738.540161,891.435364,763.054871,915.12384,782.272278,926.273621C791.711121,931.749939,803.80658,936.645691,812.5,938.508667C820.095276,940.13623,849.292725,939.430237,856.548706,937.443542z"/>
    <path transform="matrix(-0.26455,0,0,-0.26455,-502.96405,-1.336792)" style="stroke:#000000;stroke-width:0.05mm;fill:none" d="M828.58905,912.504395C830.585754,909.457031,830.066101,906.050842,825.809814,894.288086C821.807373,883.226685,816.485413,875.45929,807.737488,867.911499C803.803894,864.517517,798.886475,859.606812,796.809937,856.998779C792.028625,850.993652,787.812927,849.036255,784.112793,851.103271C782.183655,852.180908,781.420959,853.499573,781.197876,856.142761C780.807251,860.772217,783.889099,864.510925,793.396362,870.940979C802.299377,876.962402,810.393982,884.891785,813.147339,890.288818C814.979309,893.879822,815.180359,895.505615,814.647156,902.420044C814.086426,909.690979,814.224304,910.609863,816.190002,912.702271C819.351501,916.067505,826.327393,915.956177,828.58905,912.504395z"/>
    <path transform="matrix(-0.26455,0,0,-0.26455,-502.96405,-1.336792)" style="stroke:#000000;stroke-width:0.05mm;fill:none" d="M855.674194,911.515625C856.839783,910.699219,858.260376,908.691772,858.831116,907.054688C859.769348,904.36322,859.412842,903.379822,855.10968,896.789001C852.492188,892.78009,848.914307,885.900024,847.158875,881.5C842.592285,870.053772,839.173889,864.694092,829.941223,854.504883C825.458374,849.557556,820.937317,843.837219,819.894409,841.79303C818.851563,839.74884,817.013794,837.159119,815.810608,836.038147C811.158386,831.703979,804,834.848145,804,841.225708C804,844.023865,805.50592,845.912415,815.362915,855.475708C821.612549,861.539063,828.5177,869.27417,830.707703,872.664795C836.016663,880.88446,841.894592,894.769226,842.577209,900.702942C843.431396,908.12738,843.881287,909.738403,845.572937,911.430054C847.555542,913.412659,852.901184,913.457947,855.674194,911.515625z"/>
    <path transform="matrix(-0.26455,0,0,-0.26455,-502.96405,-1.336792)" style="stroke:#000000;stroke-width:0.05mm;fill:none" d="M800.393005,903.418213C802.710999,897.377625,799.339417,892.777832,785.146912,882.618469C770.461182,872.105957,768.031555,868.807434,766.930725,857.887573C766.373474,852.359863,765.464783,848.756287,764.198547,847.052612C759.983826,841.381958,745.116394,836.276062,729.938049,835.286499C719.480835,834.604736,717,835.585327,717,840.40033C717,844.367004,720.323303,849,723.168701,849C724.281616,849,727.710938,848.267761,730.789368,847.372864C735.388855,846.035767,737.261963,845.947815,741.298157,846.879456C750.685608,849.046326,753.917908,852.924683,757.166626,865.919739C759.399292,874.850586,761.576965,877.866089,772.285645,886.855713C776.803528,890.648376,781.625,894.993408,783,896.511292C789.697632,903.904907,798.81665,907.526184,800.393005,903.418213z"/>
    <path transform="matrix(-0.26455,0,0,-0.26455,-502.96405,-1.336792)" style="stroke:#000000;stroke-width:0.05mm;fill:none" d="M892.922546,893.509277L902.345154,893.5L908.422546,885.557556C916.48938,875.015198,923.610596,870.289551,938.831421,865.378296C957.279907,859.425537,980.932617,850.370911,983.057495,848.447937C985.262756,846.452271,985.52655,843.868835,983.850281,840.684265C981.221863,835.690613,978.579712,835.841248,971.00647,841.416321C964.913574,845.901672,954.28186,850.006104,939.5,853.579651C930.539734,855.745789,913.275574,862.441467,910.737488,864.734802C909.662964,865.705627,907.749451,868.525024,906.485168,871C902.143127,879.500183,895.144653,884,886.266541,884C877.368408,884,872.121338,879.444824,868.017395,868.157227C866.886169,865.045776,865.242859,860.549927,864.365723,858.166504C863.336975,855.371338,859.571899,850.429077,853.759155,844.243713C843.226257,833.035645,841.052551,828.944885,841.021973,820.273071C841.002563,814.780212,840.71106,813.856812,838.549194,812.440247C833.356567,809.037903,828.871033,813.51239,828.227417,822.736572C827.839417,828.297485,827.999023,828.745911,832.769592,835.5C835.488953,839.349976,840.478333,845.546509,843.857056,849.270081C851.480469,857.671448,853.507935,860.919678,858.980469,873.5C864.327698,885.792297,868.268372,892.326416,871.238647,893.825562C872.677551,894.551758,875.318481,894.703491,878.5,894.242737C881.25,893.844482,887.740173,893.514404,892.922546,893.509277z"/>
    <path transform="matrix(-0.26455,0,0,-0.26455,-502.96405,-1.336792)" style="stroke:#000000;stroke-width:0.05mm;fill:none" d="M892.927429,866.365112C895.775024,862.745056,895.527893,859.627563,891.985107,854.478394C890.326965,852.068298,888.053528,847.937195,886.933105,845.298218C885.601074,842.160889,882.508606,838.250061,877.999146,834C871.527832,827.901001,871.058777,827.163696,870.395691,822.049072C869.527527,815.352295,866.638916,812,861.736572,812C856.904358,812,854.576965,814.060486,854.695313,818.233948C854.838013,823.269409,857.246277,827.238953,865.536743,836.104004C874.112061,845.27356,877.196533,850.208557,879.534607,858.5C880.465149,861.799988,882.153992,865.512512,883.287598,866.75C886.127075,869.849854,890.317993,869.682495,892.927429,866.365112z"/>
    <path transform="matrix(-0.26455,0,0,-0.26455,-502.96405,-1.336792)" style="stroke:#000000;stroke-width:0.05mm;fill:none" d="M917.874146,845.58905C922.068359,843.713013,931.124512,840.960449,937.998901,839.472168C946.690857,837.590454,953.328796,835.416687,959.792175,832.335205C971.210754,826.891418,972.527771,824.943909,969.126404,818.532166C967.874756,816.172791,964.639099,811.983887,961.936096,809.223511C953.738708,800.852051,949.366638,800.520447,920.5,806.080627C912.25,807.669739,901.284546,809.404846,896.132385,809.936401C886.103394,810.97113,883,812.526978,883,816.520142C883,819.364258,886.557007,823.881104,889.754028,825.096558C891.730164,825.8479,893.61615,825.417419,898.872742,823.015076C904.809265,820.302002,932.043762,814.432007,948.5,812.318665C955.70636,811.393188,960.354553,817.731995,957.027771,823.94812C955.628479,826.562683,953.594238,827.181824,943.5,828.065369C931.761353,829.092834,906.675659,834.327271,903.491394,836.413696C900.369446,838.459229,900.190918,842.701721,903.072571,846.365112C905.83313,849.874573,908.619629,849.728455,917.874146,845.58905z"/>
    <path transform="matrix(-0.26455,0,0,-0.26455,-502.96405,-1.336792)" style="stroke:#000000;stroke-width:0.05mm;fill:none" d="M789.734131,835.413391C794.255188,832.502014,793.470581,825.889771,788.374084,823.952148C786.996765,823.428467,783.536621,822.994507,780.684875,822.987793C776.927795,822.978943,773.297058,821.995789,767.5,819.41748C754.102478,813.458801,751.963562,812.903931,738.5,811.894165C731.349976,811.35791,724.05072,810.694397,722.279419,810.4198C716.904419,809.586365,713.117004,805.380066,707.865173,794.411438C703.829102,785.981934,701.866089,783.16864,696.551636,778.197205C693.015076,774.888916,688.002258,769.395508,685.412109,765.989624C682.821899,762.583801,678.857056,758.518738,676.601318,756.956238C668.759583,751.524292,666.911377,749.759705,662.94281,743.915771C659.464539,738.793823,657.999146,737.598145,651.545898,734.616516C645.493835,731.820313,643.35083,730.168213,639.82019,725.576782C636.450012,721.194031,633.923645,719.176147,628.331238,716.40033C623.1745,713.840698,619.77124,711.242432,616.205505,707.142761C612.079468,702.398987,610.263672,701.137451,605.374207,699.617676C596.39856,696.82782,590.269043,693.098877,585.712158,687.65625C580.648499,681.608215,575.369019,679.051208,567.884888,679.021973C561.339417,678.996338,557,681.598694,557,685.5495C557,688.547607,559.609741,690.306152,568.593262,693.361633C577.105652,696.256897,581.510803,698.478394,594.455017,706.403381C610.288818,716.097473,644.174927,742.330505,658.5,755.983948C662.349976,759.653442,667.560303,764.420715,670.07843,766.577881C674.424744,770.301086,681.641235,778.173096,692.294556,790.81189C694.931519,793.940369,699.766541,801.955322,703.03894,808.622925C706.311401,815.290527,709.670654,821.311707,710.504028,822.003296C711.573914,822.891235,713.265259,823.01886,716.259583,822.437622C732.52356,819.280334,757.747803,824.275635,770.155884,833.110962C776.990845,837.977905,784.398804,838.84906,789.734131,835.413391z"/>
    <path transform="matrix(-0.26455,0,0,-0.26455,-502.96405,-1.336792)" style="stroke:#000000;stroke-width:0.05mm;fill:none" d="M812.102661,819.945068C814.047485,818.904236,818.000732,811.148315,819.362671,805.701477C819.892822,803.58136,819.11438,800.793457,816.151489,794.201477C811.554199,783.973083,799.561096,747.11322,798.049438,738.566345C797.472229,735.302856,797,723.692993,797,712.766663C797,697.128906,796.683105,692.287842,795.510986,690.021179C793.612915,686.350708,790.877625,685.494812,787.171143,687.411499C782.522766,689.815247,781.969482,693.038208,784.546448,702.701233C785.769897,707.288879,785.953003,711.351379,785.423279,722.152405C784.654602,737.824585,785.276367,741.518433,791.153015,756.193787C793.522644,762.111267,795.418091,768.910095,796.018555,773.646301C796.754761,779.45282,797.693909,782.380371,799.75116,785.281311C804.278748,791.665955,807,797.257019,807,800.174866C807,801.687988,806.099976,805.20929,805,808C803.900024,810.79071,803,814.38501,803,815.987305C803,820.344849,807.610229,822.349304,812.102661,819.945068z"/>
    <path transform="matrix(-0.26455,0,0,-0.26455,-502.96405,-1.336792)" style="stroke:#000000;stroke-width:0.05mm;fill:none" d="M790,807C792.679688,804.320313,792.612671,799.03479,789.861572,796.081787C787.8526,793.925415,787.230408,793.827576,779.581482,794.464722C771.44342,795.142578,771.43634,795.141052,763.741089,791.063965C756.042603,786.985168,756.042175,786.985107,747.703674,787.626038C740.806213,788.156189,738.705139,787.953918,735.547607,786.455566C731.373962,784.475037,727.254333,778.830627,725.002502,772.007629C723.265869,766.745483,716.672546,759.304626,709.567505,754.588623C703.045898,750.259766,698.494995,749.819519,696.881226,753.361389C695.291443,756.850525,697.850769,760.998779,704.97583,766.481384C711.737244,771.684204,715.574646,776.824707,719.057495,785.345032C723.314331,795.758667,727.181885,797.984192,741.039917,797.994446C749.996765,798.001038,757.024414,799.701111,769.937805,804.985229C780.957214,809.494263,786.908142,810.091858,790,807z"/>
    <path transform="matrix(-0.26455,0,0,-0.26455,-502.96405,-1.336792)" style="stroke:#000000;stroke-width:0.05mm;fill:none" d="M780.75,778.755188C782.9729,776.976746,782.094604,772.170166,777.362305,760.215576C774.811584,753.772034,772.26416,747.150024,771.701355,745.5C771.13855,743.849976,770.638062,733.350281,770.58905,722.167236L770.5,701.834473L767.694214,699.417236C764.13147,696.347839,761.550842,696.358276,758.454529,699.454529C755.477112,702.431946,755.379517,705.284607,758,712.740295C760.383972,719.523132,760.539917,725.218262,758.5,731C756.19165,737.542603,756.63501,740.313293,761.55957,750.11853C765.615784,758.195007,766.161255,760.082947,766.501038,767.221863C766.812561,773.76709,767.2854,775.674927,769.065796,777.570007C772.232971,780.941345,777.366577,781.462036,780.75,778.755188z"/>
    <path transform="matrix(-0.26455,0,0,-0.26455,-502.96405,-1.336792)" style="stroke:#000000;stroke-width:0.05mm;fill:none" d="M751.565308,771.540649C752.690369,769.823608,752.968262,768.088074,752.485962,765.790649C751.666565,761.887085,744.235413,747.506897,742.037537,745.571472C741.191895,744.826843,737.110779,742.817566,732.968384,741.106384C721.327881,736.297852,714.079834,727.841614,714.020386,719C713.980225,713.024414,719.07489,684.789795,721.238037,679C722.751526,674.949036,723.49823,669.679871,724.072388,659C724.50116,651.025024,725.315613,639.775024,725.882385,634C727.164612,620.934631,727.227844,590.82605,726.010132,573.172668C724.796082,555.571899,722.061035,549.763916,715.734436,551.351807C712.006287,552.287537,711.648193,555.781128,713.982544,568.442871C716.269531,580.847717,716.729004,608.577637,714.985901,629C714.446045,635.325012,713.562439,646.85437,713.022278,654.620911C712.426086,663.192505,710.870911,673.999573,709.06488,682.120911C702.499146,711.645508,701.329346,728.945923,705.519226,734.557922C706.625061,736.039001,711.798096,739.910156,717.014893,743.160522C729.221191,750.765686,735.130859,756.799927,737.430542,764.006714C738.394653,767.028015,740.292297,770.512512,741.647522,771.75C744.994507,774.806274,749.487732,774.711426,751.565308,771.540649z"/>
    <path transform="matrix(-0.26455,0,0,-0.26455,-502.96405,-1.336792)" style="stroke:#000000;stroke-width:0.05mm;fill:none" d="M689.651672,741C690.570251,739.029907,690.476807,736.936157,689.210938,731.121887C687.71582,724.254517,687.727722,722.886169,689.382751,711.355408C690.360718,704.541809,692.663452,691.436951,694.5,682.233521C696.336487,673.03009,698.131042,661.674988,698.487854,657C698.844666,652.325012,699.800354,640.776184,700.611572,631.335938C702.490295,609.472656,702.701233,583.481689,701.068726,575C700.380615,571.424988,699.462585,564.98645,699.028687,560.692078C698.415466,554.622864,697.728882,552.340332,695.945557,550.442078C693.162537,547.479675,689.691833,547.308167,687,550C684.490601,552.509399,684.49585,554.223999,687.035461,561.593445C691.657532,575.006104,692.960999,591.388367,691.046021,612C690.560608,617.224976,689.659363,627.799988,689.043274,635.5C687.166565,658.956238,686.060364,667.740662,683.006409,683.436951C681.394531,691.721619,679.617615,703.073181,679.057678,708.662659C678.497803,714.252136,677.130737,721.131287,676.019836,723.949646C673.615845,730.048645,673.488831,733.110779,675.480042,736.961365C679.076477,743.916138,687.211243,746.234375,689.651672,741z"/>
    <path transform="matrix(-0.26455,0,0,-0.26455,-502.96405,-1.336792)" style="stroke:#000000;stroke-width:0.05mm;fill:none" d="M744.781921,725.78186C745.915771,723.404968,745.759766,722.139893,743.539307,715.706665C740.243103,706.156738,740.326111,702.544312,744,695.659668C748.31842,687.567139,748.021179,682.082092,743.128845,679.583374C739.743225,677.854248,736.553772,679.027161,734.65802,682.698425C732.828674,686.24115,729.5,707.519409,729.5,715.670837C729.5,720.869446,729.89386,722.265259,732,724.530212C736.844299,729.739807,742.623779,730.305725,744.781921,725.78186z"/>
    <path transform="matrix(-0.26455,0,0,-0.26455,-502.96405,-1.336792)" style="stroke:#000000;stroke-width:0.05mm;fill:none" d="M661.917786,720.082214C663.183044,718.816956,664.024658,716.180115,664.391418,712.332214C664.936096,706.617798,668.585632,683.354858,671.424866,667.5C672.212769,663.099976,673.32782,652.974976,673.902771,645C674.477783,637.025024,675.677795,623.75,676.569519,615.5C678.740356,595.416626,678.116577,580.682251,674.537476,567.5C673.044189,562,671.152344,556.44989,670.333435,555.166504C665.756531,547.993591,651.824219,548.789978,628.910461,557.53418C623.863098,559.460327,615.964722,561.693481,611.358459,562.496704C601.957092,564.136169,598.710632,565.541931,594.813599,569.660706C590.697876,574.010681,590,577.081726,590,590.84259C590,605.551636,590.913513,608,596.401733,608C601.430786,608,603.428345,605.177734,602.577454,599.274475C600.700745,586.254028,600.69928,582.713867,602.569153,579.24176C605.113464,574.517151,610.415344,572.093506,619.732239,571.395874C626.256287,570.907349,628.968994,570.090271,636.675171,566.292725C647.389526,561.012634,653.102539,560.005737,658.314209,562.478882C667.75592,566.959229,669.923645,588.186707,664.545593,623.5C663.791748,628.450012,662.884521,638.314636,662.529541,645.421326C662.174622,652.528076,661.046326,662.428101,660.022278,667.421326C658.99823,672.414612,657.636536,681.224976,656.996338,687C656.134338,694.775696,655.057678,699.186462,652.846497,704C648.857361,712.684082,648.859741,715.59198,652.858887,719.165222C656.567383,722.47876,659.249695,722.750305,661.917786,720.082214z"/>
    <path transform="matrix(-0.26455,0,0,-0.26455,-502.96405,-1.336792)" style="stroke:#000000;stroke-width:0.05mm;fill:none" d="M638.747253,701.75C640.540161,699.491028,641.939331,693.647034,642.996948,684C643.569763,678.775024,644.929749,670.345337,646.019226,665.267456C647.182129,659.846924,648.002441,652.208435,648.00592,646.767456C648.009155,641.670349,648.712036,633,649.567932,627.5C652.46051,608.91156,652.855835,605.526367,653.545715,593.441833C654.224854,581.544861,654.2005,581.344604,651.72113,578.462158C649.520203,575.903442,648.866455,575.662354,646.456238,576.520325C644.942688,577.059143,642.837524,578.664429,641.778137,580.087585C639.928101,582.572998,639.915222,582.981262,641.452087,590.421631C643.359497,599.656067,642.428711,609.894348,638.331543,624.747498C636.620911,630.94873,635.975647,635.23114,636.37262,637.747498C638.39679,650.576965,638.301697,653.343506,635.617004,659.721985C633.514343,664.717773,632.99646,667.567017,632.981873,674.219849C632.965942,681.513794,632.608582,683.144348,629.981873,687.90979C626.438293,694.338562,626.234863,697.556702,629.174316,700.685547C631.57605,703.242065,637.077454,703.853821,638.747253,701.75z"/>
    <path transform="matrix(-0.26455,0,0,-0.26455,-502.96405,-1.336792)" style="stroke:#000000;stroke-width:0.05mm;fill:none" d="M127.011536,678.25C134.461395,670.6875,142.793961,662.920654,145.528366,660.990417C152.515289,656.058167,152.756012,652.873352,146.572739,647.173828C139.688339,640.828003,136.047852,641.873962,131.169388,651.599304C130.038422,653.853943,127.426498,657.903931,125.365112,660.599304C115.017647,674.12915,113.079803,676.878723,110.640038,681.492065C109.188019,684.237671,108,687.725159,108,689.242065C108,691.579956,108.416283,692,110.73317,692C112.921478,692,116.166603,689.258911,127.011536,678.25z"/>
    <path transform="matrix(-0.26455,0,0,-0.26455,-502.96405,-1.336792)" style="stroke:#000000;stroke-width:0.05mm;fill:none" d="M617.09314,682.614929C619.038635,679.424316,619.542358,675.358154,618.23468,673.399719C614.970764,668.511536,601.447998,669.135498,597.102966,674.374695C594.333496,677.714111,598.620667,682.730164,606.58429,685.467896C611.554382,687.176514,614.858521,686.279541,617.09314,682.614929z"/>
    <path transform="matrix(-0.26455,0,0,-0.26455,-502.96405,-1.336792)" style="stroke:#000000;stroke-width:0.05mm;fill:none" d="M773.076904,682.076904C778.979248,676.174622,775.270691,667.106018,766.924316,667.031799C760.501526,666.97467,756.391724,673.989258,759.418579,679.84259C762.499207,685.799805,768.39032,686.763489,773.076904,682.076904z"/>
    <path transform="matrix(-0.26455,0,0,-0.26455,-502.96405,-1.336792)" style="stroke:#000000;stroke-width:0.05mm;fill:none" d="M548.489197,673C553.098694,664.681396,555.520203,663.789307,571.251709,664.613831L584.003357,665.282166L589.751709,661.771301C598.315613,656.540771,601.888672,655.670898,611.515686,656.472778C619.12323,657.106506,620.012268,656.987732,621.917114,655.082886C624.423523,652.576477,624.702393,646.845276,622.428589,644.571411C619.994263,642.137085,614.18512,642.679565,602.095032,646.470215C596.007629,648.378784,587.248657,650.409912,582.630615,650.983765C578.012573,651.557617,571.636047,652.921021,568.460571,654.01355C555.127197,658.600952,546.064636,654.780884,540.212341,642.106506C537.41156,636.04071,536.429688,629.853638,537.425476,624.545654C537.7948,622.577026,541.197144,616.361389,544.986206,610.733154C552.951599,598.90155,554.189209,594.781555,550.996826,590.723145C549.54364,588.875671,547.920837,588,545.9505,588C542.45343,588,540.851746,590.220703,538.586548,598.209473C537.692627,601.362305,534.956787,606.735901,532.477051,610.209473C525.36377,620.173706,524.65802,622.286987,525.412231,631.363159C526.186157,640.676208,527.606934,643.786377,533.105591,648.204651C540.273193,653.963989,541.689941,659.678894,537.978027,667.859192C535.426208,673.48291,535.483887,675.521973,538.25,677.476318C542.272583,680.318359,545.124878,679.071411,548.489197,673z"/>
    <path transform="matrix(-0.26455,0,0,-0.26455,-502.96405,-1.336792)" style="stroke:#000000;stroke-width:0.05mm;fill:none" d="M797.906128,673.050232C798.882141,672.527893,802.022766,668.712646,804.885193,664.57196C807.74762,660.431274,812.309265,655.171814,815.022156,652.884338C817.734985,650.596802,820.844482,646.874512,821.932129,644.61261C824.904724,638.430481,827.345093,616.445557,826.051697,607.5C825.495056,603.650024,825.030701,594.905457,825.019836,588.067749C825.008911,581.22998,824.567261,571.779968,824.03833,567.067749C823.509399,562.355469,822.572998,553.549988,821.957458,547.5C820.072205,528.971985,817.331848,517.602356,811.282898,503.211548C807.431152,494.048096,804.789185,489.158966,802.771912,487.461548C799.230652,484.48175,798.563721,484.43631,796,487C791.842896,491.157135,793.881592,500.273193,801.044861,509.558167C803.233948,512.39563,805.689697,516.693298,806.502075,519.108582C810.16748,530.006165,815.517761,589.642395,815.419006,618.5C815.361877,635.195679,811.098572,643.710449,796.75,655.786011C788.737122,662.529602,788,663.452881,788,666.746216C788,672.737,792.792603,675.786926,797.906128,673.050232z"/>
    <path transform="matrix(-0.26455,0,0,-0.26455,-502.96405,-1.336792)" style="stroke:#000000;stroke-width:0.05mm;fill:none" d="M523.799988,666.799988C527.082886,663.51709,523.645081,655.970581,517.521851,653.018616C514.408752,651.517822,512.256653,651.209534,507.99762,651.654236C504.36499,652.033508,498.758209,651.516663,491.49762,650.133301C485.448944,648.980835,475.607239,647.327698,469.627197,646.459656C463.647186,645.591675,452.397186,643.561768,444.627197,641.948853C436.857239,640.335938,428.978424,639.012573,427.118683,639.008118C425.258972,639.003662,419.633972,637.564758,414.618683,635.810608C400.566162,630.895508,388.323792,631.829773,386.726135,637.93927C385.626129,642.145691,388.72876,643.906616,400,645.4729C405.774994,646.275452,417.700012,648.314575,426.5,650.004333C446.287781,653.803955,487.248413,660.557251,496,661.463074C499.575012,661.833069,505.649994,663.408447,509.5,664.963867C517.139404,668.050232,521.934143,668.665833,523.799988,666.799988z"/>
    <path transform="matrix(-0.26455,0,0,-0.26455,-502.96405,-1.336792)" style="stroke:#000000;stroke-width:0.05mm;fill:none" d="M748.671753,663.419128C751.111084,660.979858,751.223999,660.417603,750.730896,653.169128C750.4021,648.336975,750.751953,642.820068,751.676575,638.255432C752.796326,632.727539,752.901428,629.765564,752.120056,625.755432C751.556824,622.864929,751.113098,610.150024,751.133911,597.5C751.154785,584.849976,750.682983,570.662842,750.08551,565.972961C748.775757,555.692261,741.8396,531.585205,739.423096,528.914978C736.24884,525.407471,731.111206,526.903137,729.023865,531.942383C727.453674,535.733154,728.332336,539.36084,731.929871,543.940552C736.465637,549.7146,737.836975,553.2276,739.020569,562.104858C740.639709,574.249573,741.339966,629.925415,739.995239,639.604553C737.686401,656.223328,737.576843,661.874939,739.521912,664.024231C741.978271,666.738464,745.591431,666.499512,748.671753,663.419128z"/>
    <path transform="matrix(-0.26455,0,0,-0.26455,-502.96405,-1.336792)" style="stroke:#000000;stroke-width:0.05mm;fill:none" d="M779.615112,651.810303C788.674133,644.934326,797.046509,636.535889,799.132568,632.232239C801.06842,628.238586,801.431824,625.861267,801.46106,617C801.50647,603.224854,799.25946,563.403931,797.934265,554.5C797.361267,550.650024,796.260803,542.196411,795.488831,535.714172C793.971619,522.974609,791.801331,518,787.76062,518C781.811035,518,780.731689,523.435974,783.954041,537.171021C787.061951,550.418213,788.786011,566.571594,790.079773,594.563904C791.170959,618.17511,791.128662,621.096558,789.629883,625.608948C788.71991,628.348572,787.246338,631.630981,786.355225,632.903259C784.435059,635.644592,777.608032,638.947083,773.797058,638.978027C767.743591,639.027222,764.35968,642.542297,764.763428,648.361877C765.154358,653.997925,774.020752,656.05658,779.615112,651.810303z"/>
    <path transform="matrix(-0.26455,0,0,-0.26455,-502.96405,-1.336792)" style="stroke:#000000;stroke-width:0.05mm;fill:none" d="M169.992355,640.508118C173.710312,636.550537,173.102509,632.705627,167.916672,627.377441C159.986832,619.22998,154.890121,617.965027,150.588898,623.076721C149.165009,624.768921,147.994675,626.906433,147.988159,627.826721C147.981644,628.747009,151.244141,632.517883,155.238159,636.206482C163.377335,643.723145,166.199112,644.545837,169.992355,640.508118z"/>
    <path transform="matrix(-0.26455,0,0,-0.26455,-502.96405,-1.336792)" style="stroke:#000000;stroke-width:0.05mm;fill:none" d="M564.799988,639.799988C565.536987,639.062988,566,635.455566,566,630.450012C566,622.79071,566.195679,622.045105,569.25,618.064453C577.447327,607.381226,576.803223,609.603577,576.506775,593.025208C576.290283,580.918457,575.910217,577.511902,574.543213,575.425598C571.950073,571.467957,557.312256,565.135559,545.5,562.861328C540,561.802429,532.919312,560.275452,529.765076,559.468018C526.610901,558.660583,522.335876,558.006775,520.265076,558.015015C515.953796,558.032166,501.60434,562.255798,499.254517,564.199219C496.575745,566.414673,493.02005,575.281433,493.009766,579.771423C493.001587,583.343079,493.402863,584.22644,495.459045,585.163269C498.917511,586.739075,502.226135,584.340942,506.125031,577.432434C511.547699,567.823975,518.766968,565.938477,530.5625,571.049927C533.545044,572.342346,539.100647,573.505798,544.593872,573.988342C549.59552,574.427734,555.093628,575.51416,556.81189,576.40271C569.453247,582.939819,570.208801,599.835144,558.583374,616.016785C553.365051,623.280396,552,626.489868,552,631.495789C552,635.041199,552.56073,636.651611,554.454529,638.545471C557.133911,641.224792,562.700195,641.899841,564.799988,639.799988z"/>
    <path transform="matrix(-0.26455,0,0,-0.26455,-502.96405,-1.336792)" style="stroke:#000000;stroke-width:0.05mm;fill:none" d="M373.443298,637.777466C375.582245,634.723755,375.406921,632.127075,372.5,623.806885C369.365692,614.835815,369.364899,611.667175,372.495422,605.38501C374.359222,601.644897,377.233704,598.581482,383.851501,593.282593C394.550751,584.715698,398.894318,579.587341,403.14566,570.502441C407.329529,561.561646,408.088379,554.088379,405.114349,551.114319C400.131744,546.131775,394.504913,549.879578,393.457489,558.87854C392.121826,570.354187,388.073059,576.094788,371.5,590.011169C358.707001,600.753418,359.015076,600.096741,360.477844,613.508118C361.156891,619.733704,360.178467,628.765381,358.292603,633.679871C358.032745,634.356995,358.965149,636.056091,360.364624,637.455505C363.823334,640.914246,371.120422,641.093872,373.443298,637.777466z"/>
    <path transform="matrix(-0.26455,0,0,-0.26455,-502.96405,-1.336792)" style="stroke:#000000;stroke-width:0.05mm;fill:none" d="M509.777496,636.443298C511.3302,635.355713,512,633.865967,512,631.5C512,626.95874,509.088806,625,502.339203,625C494.528961,625,466.08728,621.169495,453.540375,618.427734C446.878754,616.972107,439.723724,614.622314,435.5,612.503113C427.613525,608.546265,425.509369,608.266418,421.972504,610.704102C418.356873,613.196106,417.067596,615.15918,417.031799,618.226929C416.988403,621.949097,420.076447,623.723511,428,624.529297C431.575012,624.892883,440.238159,626.510498,447.251465,628.124023C454.264771,629.737549,466.60434,631.972656,474.672699,633.090942C482.741058,634.209167,491.852905,635.733704,494.921234,636.47876C502.483185,638.314941,507.121185,638.303833,509.777496,636.443298z"/>
    <path transform="matrix(-0.26455,0,0,-0.26455,-502.96405,-1.336792)" style="stroke:#000000;stroke-width:0.05mm;fill:none" d="M342.021973,634.98822C344.369873,633.731689,345.797485,628.746887,346.622223,618.925537C347.310822,610.725281,346.407227,607.601257,343.096375,606.735474C339.741669,605.858154,337.223297,608.607361,336.004761,614.47699C333.860046,624.808167,330.506073,626.300049,313.707764,624.395264C301.949188,623.06189,294.967682,620.386902,291.797089,616C290.803345,614.625,289.369934,610.238647,288.611786,606.252502C287.853607,602.266357,286.499237,597.884705,285.60202,596.515381C283.134125,592.74884,276.90036,590.001831,270.789825,589.988159C267.880432,589.981628,263.024994,589.311951,260,588.5C248.081406,585.300903,242,587.544006,242,595.13916C242,600.547241,244.007492,601.33606,255.566238,600.469421C266.937195,599.616943,270.993835,600.282471,275.00647,603.658936C279.274902,607.250549,280.936096,610.933289,281.576874,618.224915C282.448303,628.141479,282.692535,628.749329,286.249542,629.854675C290.604492,631.208008,326.682861,635.583862,335.815735,635.866455C338.189392,635.93988,340.982208,635.544678,342.021973,634.98822z"/>
    <path transform="matrix(-0.26455,0,0,-0.26455,-502.96405,-1.336792)" style="stroke:#000000;stroke-width:0.05mm;fill:none" d="M598.337585,633.029175C603.376892,631.395264,610.102173,629.786011,613.282654,629.453186C620.705505,628.67627,623.589783,626.229126,625.602966,619C626.445374,615.974976,627.390503,608.226868,627.703247,601.781982C628.381348,587.809082,627.342957,585,621.5,585C616.172668,585,614.396851,588.37146,615.867371,595.693726C618.509094,608.847961,616.494995,615.849731,608.926025,619.823975C604.888733,621.943909,603.686218,622.092163,595.234558,621.512512L585.969116,620.877075L582.984558,623.861633C580.85022,625.995911,580,627.808167,580,630.223083C580,636.951355,584.23999,637.60022,598.337585,633.029175z"/>
    <path transform="matrix(-0.26455,0,0,-0.26455,-502.96405,-1.336792)" style="stroke:#000000;stroke-width:0.05mm;fill:none" d="M195.805267,626.474304C199.823151,625.636108,203.648163,625.293823,204.305267,625.713684C204.962372,626.133545,213.149994,626.513245,222.5,626.557495C231.850006,626.601746,245.408508,627.010986,252.630005,627.466919L265.76001,628.295898L267.47403,625.679993C269.597107,622.439758,268.550446,618.500122,264.828125,615.721008C262.5112,613.99115,261.618011,613.920654,254.89119,614.936218C249.557892,615.741455,245.968658,615.752502,242,614.975952C237.910233,614.17572,234.494904,614.218201,228.679993,615.141479C222.558289,616.113464,219.350952,616.124329,213.911438,615.191528C210.089737,614.536194,202.496323,614,197.037201,614C188.114334,614,186.840683,614.232971,184.430771,616.305908C181.279953,619.016113,180.899338,623.126282,183.529984,626.033142C185.670135,628.39801,186.450119,628.426025,195.805267,626.474304z"/>
    <path transform="matrix(-0.26455,0,0,-0.26455,-502.96405,-1.336792)" style="stroke:#000000;stroke-width:0.05mm;fill:none" d="M773.035156,624.481812C774.649902,623.64679,776.242065,621.883667,776.573364,620.563782C777.3526,617.458923,775.251831,569.99292,773.896973,560.09137C773.325623,555.916138,771.990112,548.567261,770.929077,543.760559C769.868103,538.953918,769,533.651978,769,531.978455C769,527.140747,766.461426,522.153931,763.638062,521.445313C759.899231,520.506897,757.35968,521.717468,755.955444,525.107483C754.833191,527.816895,755.09198,529.421753,758.328491,539.82428C760.326477,546.245911,762.424622,554.229248,762.991028,557.565002C764.436523,566.077454,765.735596,597.256531,765.222473,611.120605C764.805603,622.38385,764.863892,622.79126,767.118713,624.370605C769.929138,626.339111,769.460571,626.330322,773.035156,624.481812z"/>
    <path transform="matrix(-0.26455,0,0,-0.26455,-502.96405,-1.336792)" style="stroke:#000000;stroke-width:0.05mm;fill:none" d="M397.427887,618.594604C400.033569,617.505859,401.628906,615.595642,404.507538,610.117615C407.477173,604.466431,409.292877,602.336304,413.547852,599.512024C418.762207,596.050903,423,591.682068,423,589.767456C423,589.237915,424.851837,585.01416,427.115204,580.381348L431.230438,571.958069L430.771027,558.729004C430.242004,543.496155,427.709381,534.011902,422.954163,529.456055C420.525665,527.129456,418.861237,526.626099,410.819794,525.786682C399.145447,524.568054,382.106842,525.291809,379.161041,527.131531C376.820801,528.593018,375.453644,531.905334,372.015442,544.44397C369.041534,555.289307,365.778595,561.33197,359.13382,568.299683C347.326752,580.680481,341.135712,581.939392,322.5,575.748718C300.740662,568.520447,292.629364,567.370667,289,571C286.022339,573.977661,286.333313,579.330444,289.634857,581.927429C292.643494,584.294006,295.309631,584.473328,303.382843,582.85199C310.628967,581.396729,317.613586,582.822083,326.601196,587.590149C335.229462,592.167542,340.869598,593.379883,345.733887,591.70282C350.472565,590.069031,372.076721,571.993591,375.532806,566.771057C377.081604,564.430664,378.91037,559.182129,380.093506,553.682007C383.069733,539.84613,386.816925,535.861145,397.490051,535.181519C406.03772,534.637268,410.291321,535.532837,414.00647,538.658936C419.244934,543.066772,420.433258,546.439636,420.468384,557C420.505341,568.108704,418.851227,573.825745,412.965271,582.932434C407.788544,590.941833,401.931274,597.207458,394,603.219849C387.184692,608.38623,385.09433,611.058167,385.035431,614.678589C384.955261,619.607727,390.67627,621.415588,397.427887,618.594604z"/>
    <path transform="matrix(-0.26455,0,0,-0.26455,-502.96405,-1.336792)" style="stroke:#000000;stroke-width:0.05mm;fill:none" d="M320.666412,610.538513C321.857941,610.197388,323.289581,608.608093,323.847809,607.006775C325.221191,603.067078,322.539642,599.712585,316.32373,597.594666C307.731903,594.667114,302,596.408325,302,601.945923C302,606.092041,304.922333,609.027222,310.541534,610.524963C315.383362,611.815491,316.201965,611.816589,320.666412,610.538513z"/>
    <path transform="matrix(-0.26455,0,0,-0.26455,-502.96405,-1.336792)" style="stroke:#000000;stroke-width:0.05mm;fill:none" d="M517.187988,607.213684C521.138245,602.841248,526.455872,593.745789,527.389221,589.765259C527.859375,587.759949,527.492859,586.492859,526.015259,585.015259C521.970276,580.970276,518.074768,582.927917,513.963928,591.071472C508.95697,600.990173,503.518829,602.907166,491.846985,598.867859C486.761902,597.108093,484.272766,596.835022,477.593018,597.304443C466.909302,598.055237,462.045746,596.740662,456.216827,591.526611C450.379913,586.305359,447.964142,585,444.138336,585C440.306519,585,437,589.006531,437,593.649536C437,596.36676,437.615967,597.403992,440.141968,598.940125C448.720856,604.157288,484.208832,610.638184,505.633636,610.900452L513.767273,611L517.187988,607.213684z"/>
    <path transform="matrix(-0.26455,0,0,-0.26455,-502.96405,-1.336792)" style="stroke:#000000;stroke-width:0.05mm;fill:none" d="M174.443298,607.777466C176.461594,604.895935,176.392044,602.832825,174.021683,595.272034C169.028046,579.34375,167.173187,553.281372,169.874451,537C170.467575,533.424988,171.395752,525.438904,171.937042,519.253113C173.183945,505.004059,174.325897,500.837341,178.190521,496.435791C182.468246,491.563751,185.730438,490.103088,194.902313,488.953033C199.241898,488.408875,205.384628,487.071838,208.552795,485.981842C215.679077,483.530029,223.664749,483.397125,227.027496,485.674377C228.387375,486.595276,231.402451,489.070251,233.727661,491.174377C238.578522,495.563934,242.807022,496.192963,246,493C250.582458,488.417542,247.307922,484.098297,234.059509,477.25C224.800003,472.463623,220.154846,471.947296,209.5,474.519989C206.199997,475.316803,201.024994,475.976501,198,475.985931C192.307159,476.003723,189.009064,477.306061,182.240097,482.209137C180.183044,483.699158,176.064331,485.540405,173.087387,486.300842C166.205551,488.058685,164,490.660767,164,497.021973C164,499.662201,162.897858,508.94986,161.550781,517.661194C156.753052,548.687683,156.434235,570.27832,160.539536,586.144348C161.342789,589.248718,162,594.565796,162,597.960083C162,606.970947,163.910446,609.95697,169.693298,609.98468C171.871124,609.995117,173.381622,609.293213,174.443298,607.777466z"/>
    <path transform="matrix(-0.26455,0,0,-0.26455,-502.96405,-1.336792)" style="stroke:#000000;stroke-width:0.05mm;fill:none" d="M225.600296,601.23468C227.92041,599.685486,229.177399,595.758667,228.510056,592.144714C228.139893,590.140137,226.117996,585.349976,224.016953,581.5C218.920502,572.161133,217.583542,565.130371,218.381653,551.865173C219.063797,540.527588,221.958954,522.727295,224.459,514.5C225.294647,511.75,225.983215,508.037506,225.989182,506.25C226.009323,500.202911,219.270432,496.282349,214.372467,499.491608C211.819092,501.164642,211.774796,501.378876,212.42981,508.887726C212.946411,514.810059,212.64415,518.627014,211.111404,525.535889C208.429138,537.626282,206.638412,555.153381,207.327484,562.571777C207.637665,565.911255,209.265884,572.780457,210.945724,577.83667C212.862869,583.607056,214,589.071899,214,592.514893C214,596.666687,214.48616,598.486145,216,600C218.000214,602.000244,223.411545,602.696167,225.600296,601.23468z"/>
    <path transform="matrix(-0.26455,0,0,-0.26455,-502.96405,-1.336792)" style="stroke:#000000;stroke-width:0.05mm;fill:none" d="M199,599.021057C201.185425,597.639404,200.595932,590.8573,197.539246,582.215332C193.306641,570.248718,192.429276,561.819702,193.838699,546.663635C194.511978,539.423645,195.933762,529.224976,196.998215,524C199.444275,511.993286,199.483246,507.818359,197.175842,504.968842C195.627396,503.05658,194.90947,502.859924,192.425842,503.667603C188.417984,504.970978,186.003494,510.062805,186.001556,517.215637C186.000702,520.359192,185.259308,528.009216,184.354004,534.215637C181.906631,550.99408,182.235275,566.825256,185.353821,582.376709C188.368423,597.409729,189.683777,600.00647,194.273056,599.98468C196.047867,599.976257,198.175003,599.542603,199,599.021057z"/>
    <path transform="matrix(-0.26455,0,0,-0.26455,-502.96405,-1.336792)" style="stroke:#000000;stroke-width:0.05mm;fill:none" d="M476.912109,582.25C478.363556,581.05957,479.351501,578.599915,480.00177,574.557678C480.527557,571.289429,481.966919,565.801453,483.200378,562.362183L485.442993,556.10907L483.089539,550.804504C479.712952,543.193909,471.175873,514.860718,469.953186,507.20694C469.382385,503.63382,468.471405,499.880829,467.928802,498.866974C465.815155,494.917572,458.172943,495.280212,455.434326,499.459869C453.923035,501.766388,454.045258,502.336334,457.874725,510.841064C463.570679,523.490967,472.000183,551.812012,471.999207,558.295715C471.998657,562.000854,471.13446,565.326233,468.999207,569.839783C465.421417,577.402588,465.239532,580.353943,468.222504,582.443298C471.137146,584.484802,474.272369,584.415039,476.912109,582.25z"/>
    <path transform="matrix(-0.26455,0,0,-0.26455,-502.96405,-1.336792)" style="stroke:#000000;stroke-width:0.05mm;fill:none" d="M244,574C246.421326,571.578674,246.432068,571.117371,244.363525,558.396484C242.876785,549.25354,242.863342,547.447266,244.222153,539.396484C245.088638,534.262756,247.05098,527.66272,248.861862,523.791687C250.58783,520.102112,252,515.862549,252,514.370422C252,506.521515,241.564407,505.607849,239.11499,513.24231C235.03067,525.972473,231.394836,552.531677,232.341492,562.721802C232.936386,569.12561,234.992889,574.43103,237.228958,575.330688C239.835175,576.379333,242.057434,575.942566,244,574z"/>
    <path transform="matrix(-0.26455,0,0,-0.26455,-502.96405,-1.336792)" style="stroke:#000000;stroke-width:0.05mm;fill:none" d="M272.545441,573.545471C275.828522,570.26239,275.646393,567.879028,271.5,559.866699C268.571747,554.208252,268.003601,552.074036,268.021973,546.801697C268.072083,532.422729,275.10083,526,290.786377,526C300.275848,526,306.744995,527.802368,318.086121,533.60614C326.921722,538.127686,329.720398,538.755188,333.065735,536.964844C334.480011,536.207947,335,534.861145,335,531.955017C335,526.74762,332.848267,524.978271,323.815186,522.757874C319.891968,521.793518,314.402527,519.541687,311.616486,517.753906C305.872559,514.068054,305.040985,514.005554,284.86322,515.743286C268.982056,517.110962,267.027954,518.060181,263.08493,526.322021C257.727417,537.547668,256.7659,543.014221,258.040649,555C259.778687,571.342102,259.881104,571.761353,262.672028,573.956665C266.131775,576.678101,269.55542,576.535522,272.545441,573.545471z"/>
    <path transform="matrix(-0.26455,0,0,-0.26455,-502.96405,-1.336792)" style="stroke:#000000;stroke-width:0.05mm;fill:none" d="M453.765503,569.749573C456.734283,566.589478,458.19397,559.273132,457.042847,553.322815C455.410889,544.886963,449.979523,527.77356,446.308319,519.5C440.144165,505.608246,439.784424,504.956055,437.619659,503.747375C436.266205,502.991669,427.005432,502.318054,412,501.88382C386.064758,501.13324,378.541412,499.82608,367.196777,494.099335C361.129364,491.03653,358.404541,488.148987,356.083221,482.322296C353.475983,475.777924,348.223419,474.353485,342.215546,478.561584C339.220673,480.659271,339.429077,483.708221,342.946533,489.254669C346.148743,494.303986,350.900116,497.816193,358.124939,500.474487C360.668671,501.410431,364.943665,503.989868,367.624939,506.206604C370.306213,508.42334,373.399994,510.572174,374.5,510.981781C375.600006,511.391418,386.353394,511.788483,398.396454,511.864166C420.121582,512.000671,426.111084,512.716248,430.700592,515.723389C434.013763,517.894287,437.592255,524.358582,441.204773,534.698608C443.820374,542.185181,444.349762,545.367371,444.748413,556C445.098755,565.344238,445.607483,568.941833,446.763519,570.25C448.857544,572.619629,451.228424,572.450195,453.765503,569.749573z"/>
    <path transform="matrix(-0.26455,0,0,-0.26455,-502.96405,-1.336792)" style="stroke:#000000;stroke-width:0.05mm;fill:none" d="M342.367706,563.619751C346.628113,561.8396,352.398499,555.874878,354.936798,550.627258C357.265137,545.813782,362.984741,526.474548,362.993805,523.384888C363.007965,518.556335,354.342712,512.19519,349.430481,513.428101C345.902863,514.313477,345.465393,517.908752,347.99826,525.19873C351.739502,535.966736,348.31778,546.756592,339.780518,551.112C334.236877,553.940125,328.895447,553.328918,317.5,548.5625C296.05188,539.591248,289.447388,538.287048,284.634857,542.072571C281.352386,544.654541,281.073425,549.628296,284.032867,552.804932C285.847198,554.75238,287.05658,554.980835,295.282867,554.930237C301.641418,554.891113,305.89563,555.400391,309,556.572327C317.481964,559.774292,334.499603,564.908569,336.782104,564.954285C338.037292,564.979431,340.550812,564.378845,342.367706,563.619751z"/>
    <path transform="matrix(-0.26455,0,0,-0.26455,-502.96405,-1.336792)" style="stroke:#000000;stroke-width:0.05mm;fill:none" d="M586.950684,558.55249C589.811035,555.507751,589.924622,551.167175,587.20166,548.962219C585.995972,547.985901,582.359253,547.042603,578.361755,546.669312C573.37384,546.203552,569.43634,544.991882,563.535095,542.106873C558.975342,539.877625,553.248779,537.911377,550.295044,537.560852C547.432312,537.221069,543.213257,536.280884,540.919312,535.471558C535.141296,533.432922,530.737305,533.632202,527.634888,536.072571C524.320496,538.679688,524.1875,542.421509,527.335876,544.484436C528.620605,545.326233,533.45813,546.480042,538.085876,547.048523C550.452942,548.567688,560.963623,551.669861,570.261414,556.545044C579.888977,561.593201,583.667175,562.047607,586.950684,558.55249z"/>
    <path transform="matrix(-0.26455,0,0,-0.26455,-502.96405,-1.336792)" style="stroke:#000000;stroke-width:0.05mm;fill:none" d="M624.512512,544.173828C637.527405,539.690613,653.123596,536.048279,659.5,536.002869C661.700012,535.987183,666.768188,536.73877,670.762634,537.672974C677.870117,539.335327,678.08374,539.328186,680.762634,537.336975C684.446106,534.598999,684.965576,529.656738,681.91156,526.405884C679.045105,523.354675,673.979126,522.430481,667.861023,523.842712C665.193542,524.458435,658.171082,525.675598,652.255554,526.547485C642.355286,528.006714,612.119751,535.36261,605.802307,537.848999C601.792297,539.427185,599.44104,543.477844,600.801636,546.463989C602.772217,550.788879,606.297424,550.448425,624.512512,544.173828z"/>
    <path transform="matrix(-0.26455,0,0,-0.26455,-502.96405,-1.336792)" style="stroke:#000000;stroke-width:0.05mm;fill:none" d="M508.545441,545.545471C509.895447,544.195435,511,542.362061,511,541.471191C511,540.580383,508.58606,537.297424,505.635681,534.175781C502.685303,531.054077,499.677063,527.375,498.950745,526C498.188782,524.557617,497.380432,518.334412,497.039886,511.289612C496.546326,501.078705,496.109863,498.622437,494.374512,496.289612C491.984039,493.076111,488.719849,492.276794,485.350769,494.079865C481.995026,495.875793,482.266724,499.975403,486.911591,517.631348C491.518494,535.143005,494.51886,543.51886,497.114807,546.114807C499.873932,548.873901,505.49707,548.593811,508.545441,545.545471z"/>
    <path transform="matrix(-0.26455,0,0,-0.26455,-502.96405,-1.336792)" style="stroke:#000000;stroke-width:0.05mm;fill:none" d="M709.404785,538.86145C711.765869,537.785645,715,532.6474,715,529.971985C715,529.297791,716.826782,525.43689,719.05957,521.39209C722.45752,515.236572,723.260803,512.664368,723.988708,505.609406C724.46698,500.973694,726.286133,492.553986,728.031189,486.898956C732.704224,471.755768,732.290588,468.502625,722.44989,443C714.546692,422.518524,711.934998,418,708,418C704.696045,418,701,422.381897,701,426.29895C701,428.950958,702.119751,430.968384,706.144165,435.567383C712.03125,442.29483,713.120789,444.574249,716.527283,457.289215C719.376587,467.924469,719.642761,475.730743,717.445313,484.210999C716.590271,487.510803,714.81189,495.620911,713.493408,502.233459C710.993652,514.770508,708.377686,520.395996,703.588013,523.534302C697.807861,527.321594,697.084839,534.844727,702.159363,538.399109C704.873779,540.300293,706.078125,540.377136,709.404785,538.86145z"/>
    <path transform="matrix(-0.26455,0,0,-0.26455,-502.96405,-1.336792)" style="stroke:#000000;stroke-width:0.05mm;fill:none" d="M592.317932,530.013306C594.908142,528.370667,598.70874,526.173889,600.763733,525.131653C605.763611,522.595825,633.497314,515.605957,648.900146,512.999634C661.913269,510.797638,666.669861,509.310883,668.758118,506.792633C671.159912,503.896362,678.974304,479.603607,678.987305,474.992981C678.994263,472.514099,677.880615,466.439117,676.512451,461.492981C673.893005,452.023376,673.332031,443.887085,674.996643,439.508759C675.544861,438.066956,678.234314,434.517822,680.973267,431.621765C689.024963,423.108337,691.373718,414.155609,686.825684,409.314453C682.18219,404.371674,677.931702,407.155975,674.977478,417.075623C673.87085,420.791534,671.39209,426.007172,669.469116,428.665924C660.835754,440.602814,660.924683,440.231995,664.051636,451.262665C665.231628,455.425049,666.352173,463.18277,666.689026,469.521606C667.407471,483.041901,665.735718,490.073029,660.397522,495.98175C656.176575,500.65387,651.92688,502.184052,635.5,504.946686C619.263367,507.677338,609.302734,510.388702,598,515.15448C592.592957,517.434326,584.897644,519.75885,580.138855,520.549866C570.673096,522.12323,568.771118,523.229797,569.199463,526.914429C569.613831,530.479065,574.932739,532.99646,582.054199,532.998474C586.503845,532.999695,588.545044,532.406006,592.317932,530.013306z"/>
    <path transform="matrix(-0.26455,0,0,-0.26455,-502.96405,-1.336792)" style="stroke:#000000;stroke-width:0.05mm;fill:none" d="M523.545471,523.545471C526.8479,520.242981,526.684143,516.530273,523.076904,512.923096C519.910217,509.756348,518.070068,509.367554,514.684265,511.149719C509.941498,513.646118,509.614594,518.768433,513.923096,523.076904C517.49054,526.644348,520.309326,526.781616,523.545471,523.545471z"/>
    <path transform="matrix(-0.26455,0,0,-0.26455,-502.96405,-1.336792)" style="stroke:#000000;stroke-width:0.05mm;fill:none" d="M554.039978,522.168701C556.962158,519.802429,556.193115,516.337402,551.610901,511.224792C546.04303,505.012421,544.584534,501.330139,545.922607,496.863922C547.899109,490.267059,556.684387,485.529541,575.04187,481.161133C579.693848,480.054138,588.166809,477.327789,593.870667,475.1026C604.464478,470.969696,612.562805,469,618.961182,469C624.013367,469,627,466.646698,627,462.665802C627,457.894501,624.557434,455,620.531189,455C618.685669,455,610.048706,457.650879,601.337891,460.890839C592.627014,464.130798,578.075012,469.131805,569,472.004181C550.5672,477.83844,541.384216,481.698334,538.689331,484.74472C535.610901,488.22467,534.610474,499.213074,536.597656,507.719086C538.674805,516.610229,541.06543,520.689697,545.269714,522.517395C549.61499,524.406433,551.362305,524.336975,554.039978,522.168701z"/>
    <path transform="matrix(-0.26455,0,0,-0.26455,-502.96405,-1.336792)" style="stroke:#000000;stroke-width:0.05mm;fill:none" d="M746.397949,514.864563C749.847961,513.292603,750.287476,511.906067,750.951477,500.5C751.494324,491.174225,751.785278,490.094147,755.266785,484.480286C760.818298,475.528625,760.589661,473.876282,750.104492,447.163116C738.68512,418.069916,736.463928,410.805634,735.092041,398.065613C734.47406,392.326691,733.087524,382.651703,732.010925,376.565613C730.934326,370.479523,729.783997,363.330078,729.454651,360.677917C728.884338,356.085297,726.295044,352,723.954529,352C723.379517,352,721.804565,353.104553,720.454529,354.454559C717.276855,357.632202,717.303589,360.939209,720.617737,374.661346C722.383423,381.972015,723.45697,389.894226,723.915894,399C724.408875,408.782196,725.068054,413.38736,726.309387,415.722137C727.251648,417.494324,732.067505,429.508362,737.011292,442.420013C747.871765,470.784149,747.934021,471.380096,741.956909,489.752258C737.009033,504.960754,736.460205,511.332581,739.860779,514.087463C742.616943,516.320313,743.081665,516.375549,746.397949,514.864563z"/>
    <path transform="matrix(-0.26455,0,0,-0.26455,-502.96405,-1.336792)" style="stroke:#000000;stroke-width:0.05mm;fill:none" d="M694.967285,512.186523C696.953552,510.200287,698.11554,507.627686,698.919495,503.436554C699.545776,500.171448,701.036621,493.225006,702.232361,488C704.97937,475.997009,704.924255,467.712799,702.027283,457.171295C699.545593,448.140961,696.1297,443,692.611084,443C687.326294,443,686.612732,448.680756,690.5,459.806885C694.721191,471.888794,693.693848,483.42926,686.995972,499.169037C683.480103,507.431244,683.275269,510.275269,686,513C688.763916,515.763916,691.651917,515.501953,694.967285,512.186523z"/>
    <path transform="matrix(-0.26455,0,0,-0.26455,-502.96405,-1.336792)" style="stroke:#000000;stroke-width:0.05mm;fill:none" d="M334.367859,507.885193C336.012146,505.537628,335.669495,503.925751,332.58728,499.508972C331.43927,497.863922,329.149994,493.829041,327.5,490.542572C325.074371,485.711212,323.873657,484.388275,321.228638,483.632782C314.48877,481.707764,310.507568,486.782501,312.06134,495.318146C312.937653,500.132141,317.072937,504.578308,323.5,507.616699C329.691559,510.543762,332.457855,510.612122,334.367859,507.885193z"/>
    <path transform="matrix(-0.26455,0,0,-0.26455,-502.96405,-1.336792)" style="stroke:#000000;stroke-width:0.05mm;fill:none" d="M778.545471,507.545441C780.512634,505.578308,781,504.073761,781,499.968536C781,495.640289,780.546814,494.392975,778.076904,491.923065C771.742432,485.588593,765,490.008667,765,500.495789C765,506.168457,768.225098,510,773,510C774.948364,510,776.99823,509.092682,778.545471,507.545441z"/>
    <path transform="matrix(-0.26455,0,0,-0.26455,-502.96405,-1.336792)" style="stroke:#000000;stroke-width:0.05mm;fill:none" d="M587,503.928345C609.049255,496.145355,613.206726,494.972321,629.177979,492.027924C638.019104,490.39801,646.358459,488.339935,647.7099,487.454437C652.11908,484.565399,653.33075,479.764862,652.6203,468C651.647705,451.895905,649.429993,446,644.345032,446C641.527893,446,638,449.269867,638,451.880951C638,452.915466,639.125,456.750732,640.5,460.403778C643.498901,468.371185,643.615845,471.477783,641.073669,475.646912C638.769592,479.425507,635.933167,480.44632,622,482.511353C609.075867,484.426819,606.002197,485.238037,595.260986,489.568298C590.58551,491.453186,582.228943,493.903748,576.690796,495.013977C571.15271,496.124176,565.806702,497.769958,564.81073,498.671265C562.55304,500.714447,562.489441,503.778351,564.654968,506.171265C567.355408,509.155182,574.114319,508.476746,587,503.928345z"/>
    <path transform="matrix(-0.26455,0,0,-0.26455,-502.96405,-1.336792)" style="stroke:#000000;stroke-width:0.05mm;fill:none" d="M283.600922,502.165588C290.661163,501.742279,295.302094,501.000427,296.350922,500.127563C300.579071,496.608673,296.096497,490.591309,288.375549,489.421478C285.643219,489.007477,279.104187,489.209229,273.5,489.880432C264.902679,490.910126,263.184387,491.431122,261.25,493.594818C258.449463,496.727325,258.434906,498.011871,261.160645,501.477081C263.143127,503.997406,263.699677,504.166473,267.910645,503.527527C270.434784,503.144562,277.495422,502.531677,283.600922,502.165588z"/>
    <path transform="matrix(-0.26455,0,0,-0.26455,-502.96405,-1.336792)" style="stroke:#000000;stroke-width:0.05mm;fill:none" d="M520.927429,496.365143C526.62146,489.126373,519.587341,482.059296,511.071533,486.463013C506.52063,488.816376,505.829132,492.24176,509.072571,496.365143C510.671234,498.397491,512.026611,499,515,499C517.973389,499,519.328735,498.397491,520.927429,496.365143z"/>
    <path transform="matrix(-0.26455,0,0,-0.26455,-502.96405,-1.336792)" style="stroke:#000000;stroke-width:0.05mm;fill:none" d="M450.251404,485.30896C454.910309,482.891632,456.679718,482.569611,466,482.442719C471.774994,482.364105,477.850006,481.750214,479.5,481.078522C481.149994,480.40683,485.879333,479.471436,490.009644,478.999847C494.920197,478.439178,499.765625,477.074524,504.009644,475.056946C510.071869,472.175018,511.159668,471.986267,520.5,472.195648C529.911743,472.406586,530.852966,472.239227,536.5,469.350677C539.799988,467.662659,551.049988,463.454712,561.5,459.999695C571.950012,456.544678,587.370544,451.072205,595.767822,447.838654C604.165161,444.605133,614.354187,441.324585,618.410095,440.548553C622.465942,439.772522,628.42041,437.813019,631.642212,436.194061C634.864014,434.575104,639.969116,432.726044,642.987,432.084991C646.004822,431.443939,649.513367,430.238434,650.783752,429.406036C654.179199,427.181244,659.65509,418.092712,662.115173,410.598816L664.266785,404.044525L661.575317,395.772278C658.444763,386.150238,656.075928,363.988739,656.029297,343.886475C656.013184,336.949066,655.583984,329.074066,655.0755,326.386475C653.833496,319.822144,648.268677,282.016693,647.437927,274.5C647.073242,271.200012,646.096924,267.032623,645.268311,265.239166C643.821655,262.107758,640.197937,260.141602,638.176208,261.391083C636.572876,262.382019,636.147217,267.224182,637.128113,273.315033C638.461426,281.593811,639.899231,292.956055,641.01123,304C641.537292,309.225006,642.423279,317.325012,642.980103,322C643.536865,326.674988,644.442688,337.25,644.993042,345.5C646.810364,372.743011,647.849365,382.629486,650.050659,393.626007C652.731201,407.016418,651.952087,411.443329,645.900757,417.205536C642.659851,420.291595,639.793335,421.594147,628.754639,424.996857C610.714417,430.557831,603.33667,433.123688,583.5,440.735748C550.377563,453.446014,533.063171,458.557526,503.228546,464.433319C463.52005,472.253754,431.596344,477.098022,409.261475,478.692383C399.166504,479.412994,394.312225,477.83429,386.734589,471.366119C383.868927,468.920044,380.506348,466.663208,379.262146,466.350952C373.758148,464.969513,366.267029,470.035065,367.556183,474.266663C369.129181,479.429962,373.011993,481.912018,384.406525,485.038055C395.554138,488.096375,402.262268,488.642273,424.751404,488.32132C444.575989,488.038361,445.113434,487.974884,450.251404,485.30896z"/>
    <path transform="matrix(-0.26455,0,0,-0.26455,-502.96405,-1.336792)" style="stroke:#000000;stroke-width:0.05mm;fill:none" d="M302.065735,477.964813C304.765594,476.519897,304.536224,472.242126,301.385437,465.278503C299.947449,462.100342,297.339752,454.76532,295.590576,448.978516C290.485016,432.087616,282.754608,422.345367,256.5,399.714478C242.024658,387.237061,234.84346,381.844116,208,363.291992C201.125,358.540527,191.225006,351.216797,186,347.016998C180.774994,342.81723,172,335.967438,166.5,331.795288C156.346619,324.093201,151.775391,319.698059,144.063934,310.22345C141.701889,307.32135,138.900726,304.482056,137.839142,303.91391C135.428177,302.623596,112.522232,305.302399,106.238586,307.609497C102.323914,309.046814,100,311.374268,100,313.857544C100,315.756775,105.193352,321,107.074532,321C108.117737,321,111.940109,319.424988,115.568687,317.5C119.197266,315.575012,123.366234,314.002502,124.833054,314.005585C133.287247,314.023254,140.437302,318.964264,144.958725,327.913361C148.411896,334.748108,149.605515,335.831085,158.688492,340.370544C166.61348,344.331268,173.649963,349.69162,185,360.414459C189.27153,364.449921,196.804626,370.039551,202.5,373.399597C219.109299,383.198425,230.986816,391.920654,241.231705,401.842102C246.584137,407.025574,255.809143,414.919098,261.731689,419.383301C273.624969,428.347961,277.878082,433.628967,280.517944,442.709717C281.427032,445.836853,283.527039,451.082092,285.184631,454.365753C286.870239,457.704926,288.605957,463.213684,289.123138,466.865723C290.056519,473.456482,291.818329,476.54776,295.5,478.054657C298.273315,479.189728,299.816406,479.16864,302.065735,477.964813z"/>
    <path transform="matrix(-0.26455,0,0,-0.26455,-502.96405,-1.336792)" style="stroke:#000000;stroke-width:0.05mm;fill:none" d="M790.463562,476.040283C792.92511,473.320313,792.063904,470.931702,785.164612,461.342529C774.103943,445.969482,765.409973,423.119781,761.055786,397.979095C757.243958,375.969635,745.846436,330.592773,743.470703,327.967621C741.864929,326.193268,740.710022,326.077637,729.609497,326.579834C722.94928,326.881134,716.550903,327.316589,715.390869,327.547516C714.230835,327.778442,709.671021,330.649933,705.257874,333.928589C696.248413,340.62207,695.270508,342.377625,694.358276,353.4953C693.950195,358.468842,694.399902,363.863251,695.909241,372.098572C697.55658,381.087158,697.886963,385.622589,697.377258,392.253784C696.740295,400.539917,696.801575,400.892456,699.314331,403.405212C702.293945,406.384857,705.536987,406.728973,708.171265,404.345001C710.722412,402.036255,710.552002,394.999298,707.591187,380.387512C703.891602,362.129608,703.568787,357.995178,705.361389,351.828705C707.938965,342.962189,716.426331,337.06546,726.673279,337.021973C736.572205,336.97995,739.784363,342.499908,744.05481,366.891693C745.172607,373.276245,746.490417,380.075012,746.983276,382C747.476135,383.924988,748.602722,390.899994,749.486755,397.5C751.320801,411.192108,756.13031,426.505127,764.719543,446C767.748596,452.875,771.033752,461.263397,772.019897,464.6409C773.006042,468.018372,774.316284,471.722443,774.93158,472.872131C777.55011,477.764862,787.133728,479.719727,790.463562,476.040283z"/>
    <path transform="matrix(-0.26455,0,0,-0.26455,-502.96405,-1.336792)" style="stroke:#000000;stroke-width:0.05mm;fill:none" d="M274.167664,474.276794C275.819305,472.625122,276.121643,471.462006,275.609253,468.730682C274.528351,462.968933,272.135101,461.613281,264.261414,462.302704C255.726654,463.049988,252.602829,461.954376,243,454.845673C234.250427,448.368591,228.006485,444.996033,224.789841,445.009766C223.530426,445.015137,220.024994,446.207214,217,447.658813C210.018509,451.009033,203.086853,451.21521,197.5,448.2388C195.300003,447.066742,190.212326,443.154846,186.194061,439.545685C178.066284,432.245392,173.146851,429.366943,167.162766,428.410034C163.679276,427.852997,162.78566,428.123444,160.47522,430.433868C158.380386,432.528717,157.950745,433.679657,158.471939,435.800323C159.901794,441.618164,161.375092,442.686554,168.689789,443.20993C177.109283,443.812317,181.180084,445.832672,184.962082,451.285889C193.050308,462.948151,193.989243,463.275482,210.05426,460.033569C217.548065,458.521332,222.341843,458.048309,225.250687,458.534088C229.613678,459.262726,238.319122,463.261841,245.463013,467.819183C260.019867,477.105591,260.169678,477.169861,266.288849,476.757172C270.463898,476.475586,272.660309,475.784119,274.167664,474.276794z"/>
    <path transform="matrix(-0.26455,0,0,-0.26455,-502.96405,-1.336792)" style="stroke:#000000;stroke-width:0.05mm;fill:none" d="M175.296036,469.994446C178.608215,466.287781,178.27626,463.841217,173.906006,459.75C170.286667,456.361755,164.638763,455.937927,163.035187,458.934265C161.590164,461.634308,161.739548,471.332886,163.25,472.881897C165.450272,475.138336,172.130417,473.537079,175.296036,469.994446z"/>
    <path transform="matrix(-0.26455,0,0,-0.26455,-502.96405,-1.336792)" style="stroke:#000000;stroke-width:0.05mm;fill:none" d="M265.359619,445.803864C267.542419,442.318298,263.818909,437.66095,253.315765,430.739349C246.960007,426.550903,239.446304,420.229218,232,412.805298C220.271515,401.11203,209.367844,393.154541,192.5,383.97821C186.669037,380.806091,181.382019,376.624512,173,368.555359C155.661102,351.863678,147.465317,348.338074,137.01799,353.076935C128.947739,356.737579,127.192757,359.974792,130.62326,364.872498C132.467804,367.505981,135.078659,367.420013,143.313217,364.45462C147.368774,362.994141,148.755905,362.909912,152.125381,363.919434C157.834229,365.629822,163.187454,370.925171,167.495438,379.12326C171.078796,385.942413,171.497833,386.346619,177.864853,389.125397C187.818222,393.469391,193.228806,396.526642,207.334564,405.777252C218.672012,413.212372,220.621277,414.911926,224.045364,420.347107C230.237183,430.175598,230.504364,430.457184,236.845398,433.836914C240.167801,435.607727,245.274261,438.991669,248.193069,441.35675C251.111877,443.721832,254.399994,446.181976,255.5,446.82373C258.285034,448.448608,264.078674,447.849335,265.359619,445.803864z"/>
    <path transform="matrix(-0.26455,0,0,-0.26455,-502.96405,-1.336792)" style="stroke:#000000;stroke-width:0.05mm;fill:none" d="M212.051147,433.948853C214.386917,431.613068,213.97644,428.819244,210.784668,425.328674C207.505096,421.742126,185.06041,407.842499,176.637787,404.182068C167.84819,400.362152,163.279312,400.234283,156.366058,403.614655C151.415344,406.035431,149.946823,409.743683,152.435028,413.541199C154.083603,416.05722,154.512299,416.185883,158.850815,415.466614C161.407867,415.042694,166.199997,414.651794,169.5,414.597931C174.804398,414.511353,176.238083,414.951355,181.866409,418.393127C185.36792,420.534332,190.99292,424.849548,194.366409,427.982513C197.739883,431.115479,201.399994,434.187378,202.5,434.80899C205.622711,436.573639,209.802811,436.197174,212.051147,433.948853z"/>
    <path transform="matrix(-0.26455,0,0,-0.26455,-502.96405,-1.336792)" style="stroke:#000000;stroke-width:0.05mm;fill:none" d="M152.856262,391.704315C156.398758,388.764313,155.779236,382.359619,151.674225,379.484375C149.125809,377.699371,142.870438,377.529572,141.199997,379.200012C140.539993,379.859985,140,381.452942,140,382.739838C140,385.585144,143.459198,392.611633,145.223267,393.349609C146.897552,394.049988,151.128845,393.137939,152.856262,391.704315z"/>
    <path transform="matrix(-0.26455,0,0,-0.26455,-502.96405,-1.336792)" style="stroke:#000000;stroke-width:0.05mm;fill:none" d="M682.428589,392.428558C684.225098,390.632019,684.484619,383.70871,682.98822,377.5C680.797058,368.408936,679.931335,355.534851,681.037048,348.483032C683.315613,333.950684,683.319824,332.471039,681.101501,325.805054C679.92865,322.280609,678.271301,315.370148,677.418518,310.448486C674.706726,294.797485,662.869019,242.841003,660.86261,237.783249C659.394104,234.081421,657.145874,233.601913,647.642456,234.963669C634.993164,236.776184,634.546631,236.981461,634.197021,241.143829C633.726318,246.74942,635.819336,248.176666,643.375366,247.402527C649.084595,246.817596,649.816956,246.975128,652.711182,249.410431C656.516907,252.612717,657.117004,254.99527,663.44342,292.016907C665.932434,306.582611,668.669861,322.325012,669.526611,327C670.648438,333.121704,670.897949,338.207947,670.418396,345.178192C669.519897,358.237823,671.631348,384.166351,674.048096,389.75C675.505005,393.116211,676.404236,394,678.372314,394C679.738953,394,681.56427,393.292847,682.428589,392.428558z"/>
    <path transform="matrix(-0.26455,0,0,-0.26455,-502.96405,-1.336792)" style="stroke:#000000;stroke-width:0.05mm;fill:none" d="M129.923279,342.411102C136.104004,337.210358,132.531387,329,124.087646,329C118.989403,329,116,331.341278,116,335.334198C116,338.380951,118.11496,342.618683,120.442032,344.23468C122.620323,345.747375,126.947441,344.9151,129.923279,342.411102z"/>
    <path transform="matrix(-0.26455,0,0,-0.26455,-502.96405,-1.336792)" style="stroke:#000000;stroke-width:0.05mm;fill:none" d="M738.868164,311.281464C740.906616,310.005432,741.16095,309.236877,740.694885,305.761932C739.784729,298.976196,738.858032,298.602661,726.356384,299.9823C720.385376,300.641235,714.825012,301.522858,714,301.941467C711.567566,303.175659,711.534363,309.534363,713.947754,311.947754C715.853455,313.853455,716.784485,313.962311,726.2547,313.386658C732.584167,313.001923,737.405151,312.197296,738.868164,311.281464z"/>
    <path transform="matrix(-0.26455,0,0,-0.26455,-502.96405,-1.336792)" style="stroke:#000000;stroke-width:0.05mm;fill:none" d="M96.342316,297.331573C102.356339,293.227844,105.440796,292.415222,120.48246,290.971588C133.715317,289.701538,135.651291,289.047363,137.047867,285.374084C138.460419,281.658813,138.217804,270.680145,136.67659,268.572388C134.948303,266.208801,132.845825,267.511169,127.758362,274.096619C122.355133,281.090851,119.231316,282.453369,109.199997,282.191193C101.807808,281.998016,100.405563,282.264069,96.379456,284.623505C91.085304,287.726105,85.89785,288.032776,81.056831,285.529388C75.685852,282.751953,68.153069,275.100952,64.336121,268.546295C59.79232,260.743439,57.197433,258,54.36087,258C51.238304,258,49.639492,261.344055,50.422104,266.23822C51.400074,272.354095,53.298428,275.153778,60.080166,280.481812C63.518009,283.182739,69.968864,288.501801,74.415398,292.301941C82.967438,299.610779,87.401047,302.153748,89.947632,301.210663C90.801437,300.89447,93.679039,299.148895,96.342316,297.331573z"/>
    <path transform="matrix(-0.26455,0,0,-0.26455,-502.96405,-1.336792)" style="stroke:#000000;stroke-width:0.05mm;fill:none" d="M732.984558,285.00824C734.018555,284.454895,735.152588,283.094574,735.504639,281.985352C736.367188,279.267639,734.306213,273.331482,732.222412,272.53186C729.674622,271.554169,713.035034,274.107819,711.418213,275.724609C709.458557,277.684296,709.640808,282.941803,711.75,285.29483C713.323914,287.05072,714.385681,287.18515,722.302307,286.630768C727.143555,286.291748,731.950623,285.561615,732.984558,285.00824z"/>
    <path transform="matrix(-0.26455,0,0,-0.26455,-502.96405,-1.336792)" style="stroke:#000000;stroke-width:0.05mm;fill:none" d="M91.484138,270.049988C92.343948,267.340942,90.821396,264.804352,77.048531,246C60.050179,222.79184,58.626034,217.321442,59.180679,177.366348L59.5,154.363358L63.074303,147.431686C65.040169,143.619263,70.327667,133.475052,74.824303,124.889C79.709671,115.560684,83,108.084862,83,106.313316C83,101.757896,76.965691,97,71.188187,97C66.452263,97,65.515526,99.004822,66.99469,105.974991C68.420486,112.693634,67.727875,116.844116,63.637424,126.093338C60.369923,133.48175,56.73716,137.592758,50.83115,140.585556C44.75523,143.664459,43.615139,146.220703,44.905155,153.872437C46.305664,162.179565,46.9562,170.160767,48.135128,193.5C50.449547,239.318527,50.393806,238.675858,52.229038,240.702133C53.180008,241.75209,56.153687,243.173874,58.837208,243.861633C64.913651,245.418991,68.202515,248.761353,74.913528,260.199493C77.72084,264.984222,81.013863,269.596741,82.231369,270.449493C85.459373,272.71048,90.711708,272.483704,91.484138,270.049988z"/>
    <path transform="matrix(-0.26455,0,0,-0.26455,-502.96405,-1.336792)" style="stroke:#000000;stroke-width:0.05mm;fill:none" d="M721.422546,259.587555C728.691956,258.181519,731,256.438782,731,252.355927C731,248.822357,728.862427,245.001373,726.578552,244.452545C723.841431,243.794785,711.239624,247.47316,708.863647,249.623398C706.419922,251.834961,706.487549,256.487549,709,259C711.33136,261.33139,712.195374,261.372253,721.422546,259.587555z"/>
    <path transform="matrix(-0.26455,0,0,-0.26455,-502.96405,-1.336792)" style="stroke:#000000;stroke-width:0.05mm;fill:none" d="M149.334885,238.75C150.675049,236.962494,152.710403,233.630035,153.85788,231.344528C155.005356,229.059021,157.17601,226.220108,158.681564,225.035843C161.184647,223.06691,162.158676,222.940491,170.062225,223.558777C178.618683,224.228134,178.738419,224.205536,181.980774,221.308487C184.582489,218.983856,185.10701,217.912521,184.531372,216.098862C183.330704,212.315857,176.777451,210.046387,167,210.027542C156.745377,210.007767,151.848068,211.240128,147.987961,214.811722C145.519241,217.095917,144.92601,218.675812,144.04126,225.322357C143.468567,229.624664,143,235.137161,143,237.572357C143,241.2948,143.31044,242,144.949112,242C146.021118,242,147.99472,240.537506,149.334885,238.75z"/>
    <path transform="matrix(-0.26455,0,0,-0.26455,-502.96405,-1.336792)" style="stroke:#000000;stroke-width:0.05mm;fill:none" d="M716.271057,232.453659C721.276794,230.737701,724.437683,229.050705,725.153625,227.712936C725.972351,226.183167,725.940674,220.877014,725.033447,207.568069C723.616333,186.778168,724.203735,181.556549,729.172546,170.776642L732.353333,163.875809L730.638977,157.187912C729.649048,153.326141,729.046143,147.843781,729.21228,144.214203C729.428894,139.481705,729.129333,137.693924,728,136.979507C724.426575,134.718979,717.317749,136.885696,716.40741,140.512863C716.107849,141.70636,716.568665,146.403931,717.431396,150.951904C719.231567,160.441605,719.428528,169.685577,718.016663,178.418091C717.475891,181.763138,716.585693,190.973221,716.038513,198.884949C714.898743,215.36557,713.697876,218.393143,706,224.194031C701.210693,227.803085,699.737122,231.773376,702.12085,234.64563C703.611938,236.442245,705.479736,236.152908,716.271057,232.453659z"/>
    <path transform="matrix(-0.26455,0,0,-0.26455,-502.96405,-1.336792)" style="stroke:#000000;stroke-width:0.05mm;fill:none" d="M646,221.403687C653.628601,219.961044,657.001648,217.7332,656.998657,214.139221C656.997864,213.23764,656.323486,208.675003,655.5,204C654.676514,199.324997,654.002136,193.117157,654.001343,190.204803C654.00061,187.29245,653.254333,180.419846,652.343018,174.932343C650.792236,165.594757,650.795715,164.171097,652.397522,152.727524C653.338806,146.002396,654.984741,138.66983,656.055115,136.432953C658.098694,132.162338,675.647034,115.116539,686.588867,106.773705C694.035645,101.095711,699,95.58165,699,92.988258C699,90.589882,695.322449,88.084549,690.069458,86.904274C684.105164,85.564178,681.326782,87.027588,680.003601,92.2061C678.008423,100.01461,676.902649,101.747932,669.026428,109.412605C660.990906,117.23233,657.532104,119.277267,650.33905,120.460968C643.829224,121.532242,642.905212,123.264236,641.939331,136.205307C641.475159,142.424927,640.173889,151.465546,639.047668,156.295578C636.234741,168.359482,636.389587,170.097427,640.95105,177.660461C647.298218,188.184174,648.736938,200.811096,644.278564,206.864243C643.210876,208.313904,640.281921,210.194626,637.769775,211.04361C631.858276,213.041443,630,214.655838,630,217.793701C630,221.552216,632.84082,224.258392,635.956238,223.467651C637.355286,223.112549,641.875,222.183762,646,221.403687z"/>
    <path transform="matrix(-0.26455,0,0,-0.26455,-502.96405,-1.336792)" style="stroke:#000000;stroke-width:0.05mm;fill:none" d="M631.025574,199.180374C633.829041,196.910248,634.080078,190.578003,631.521362,186.672928C629.370667,183.39061,624.61792,182.976913,623.035156,185.934265C620.238464,191.159958,623.361816,200.331009,628.139221,200.921051C628.490784,200.964478,629.789673,200.181168,631.025574,199.180374z"/>
    <path transform="matrix(-0.26455,0,0,-0.26455,-502.96405,-1.336792)" style="stroke:#000000;stroke-width:0.05mm;fill:none" d="M753.929565,155.05014C755.435669,153.977722,758.11377,150.387604,759.880859,147.072113C763.672668,139.957977,763.127747,137.684952,757.23822,136.049332C751.882324,134.56189,747.792175,134.756851,745.122375,136.626831C742.972839,138.132416,742.825867,138.829041,743.15033,145.973694C743.358765,150.563385,744.057251,154.364044,744.872925,155.346863C746.711121,157.561752,750.580383,157.434982,753.929565,155.05014z"/>
    <path transform="matrix(-0.26455,0,0,-0.26455,-502.96405,-1.336792)" style="stroke:#000000;stroke-width:0.05mm;fill:none" d="M47.342716,125.945061C48.90583,124.715515,50.566654,121.830963,51.477573,118.763557C53.297092,112.636574,53.476269,102.876266,51.799999,101.199997C49.836761,99.236763,43.560143,99.771553,40.522614,102.160873C37.820168,104.286621,37.782051,104.471184,38.177624,113.515694C38.461864,120.014603,39.087791,123.485039,40.312923,125.354828C42.398045,128.537125,43.888359,128.662262,47.342716,125.945061z"/>
    <path transform="matrix(-0.26455,0,0,-0.26455,-502.96405,-1.336792)" style="stroke:#000000;stroke-width:0.05mm;fill:none" d="M653.851501,104.576775C659.092285,101.866684,667,91.900917,667,88.006332C667,86.151894,663.712219,84,660.878906,84C655.115479,84,649.353882,88.515427,646.547729,95.231529C644.946533,99.06366,644.501343,104.16803,645.666687,105.333336C646.792847,106.459518,650.95459,106.074837,653.851501,104.576775z"/>
</svg>
