<?xml version="1.0" encoding="UTF-8"?>
<svg xmlns="http://www.w3.org/2000/svg" width="257.839mm" height="171.684mm" viewBox="-1279.605713 -634.066589 257.838867 171.683899">
    <path transform="matrix(-1,0,0,-1,0,0)" style="stroke:none;fill:#000000;fill-rule:evenodd" d="M1243.712891,633.896973C1242.76709,633.771973,1241.398071,633.482117,1240.670532,633.252808C1239.943115,633.023499,1238.608398,632.661011,1237.704712,632.447144C1234.285767,631.638428,1226.73584,627.774475,1222.508789,624.670227C1221.395386,623.8526,1219.777466,622.78772,1218.91333,622.303833C1218.049194,621.819885,1216.817383,620.894592,1216.175781,620.24762C1215.53418,619.600586,1213.92749,618.246887,1212.605469,617.23938C1211.283447,616.231812,1209.763672,614.872864,1209.228271,614.219482C1208.015869,612.739807,1207.49646,612.564087,1206.368652,613.251648C1204.915771,614.137451,1204.051392,613.970032,1202.338501,612.471008C1201.508057,611.744385,1200.507446,611.083923,1200.114746,611.003235C1199.722046,610.922546,1198.493408,610.564697,1197.384521,610.207947C1195.084595,609.468018,1194.380981,609.423035,1193.448364,609.956177C1192.153564,610.69635,1190.783081,610.390442,1186.305542,608.361694C1183.96814,607.302673,1183.579346,607.210266,1180.748657,607.040771C1178.856201,606.927429,1177.30542,606.963806,1176.648193,607.136963C1176.066895,607.290161,1174.341187,607.444092,1172.813477,607.479126L1170.035645,607.542786L1168.386841,606.538757C1166.589355,605.444214,1163.282837,604.498352,1159.489258,603.99353C1157.125488,603.678955,1148.593994,604.033142,1146.490723,604.533203C1145.908691,604.67157,1144.77771,604.792847,1143.977417,604.802612C1143.177246,604.812439,1141.986694,604.933777,1141.331909,605.072266C1140.101807,605.33252,1136.728516,605.69635,1131.675903,606.11377C1126.800903,606.516479,1113.783081,606.434814,1111.041016,605.984253C1109.731445,605.769104,1108.124268,605.591431,1107.469482,605.589417C1106.179688,605.585449,1098.030396,603.976013,1096.093872,603.342773C1095.439087,603.128662,1093.891479,602.767761,1092.654663,602.540833C1087.947021,601.67688,1082.872192,599.589844,1080.265991,597.445801C1079.586426,596.886719,1078.423218,596.062317,1077.68103,595.613708C1076.21521,594.727661,1071.117676,591.018921,1066.031006,587.137573C1062.085571,584.127136,1060.162842,581.868713,1058.768188,578.606934C1058.426025,577.806641,1057.705444,576.395874,1057.166992,575.471802C1056.567993,574.443909,1056.019287,573.006226,1055.753418,571.768127C1055.514282,570.655151,1055.157471,569.208801,1054.960205,568.554016C1054.392578,566.669067,1054.230103,565.016052,1054.167603,560.491638L1054.109131,556.265259L1054.807495,555.597473C1055.19165,555.230164,1055.730591,554.803223,1056.005249,554.64856C1056.470703,554.386597,1056.481445,554.257935,1056.162598,552.755371C1055.974365,551.868652,1055.902344,551.01062,1056.002441,550.848572C1056.747803,549.642639,1055.240845,542.803162,1053.535889,539.653931C1052.964233,538.5979,1052.4104,537.436279,1052.305054,537.07251C1052.101196,536.368103,1047.873047,529.939209,1046.080444,527.608093C1045.490112,526.840515,1044.38855,525.804932,1043.632568,525.306824C1042.008667,524.237061,1035.814941,521.589844,1034.312622,521.323547C1032.362549,520.977783,1027.446533,518.43396,1026.206299,517.128845C1026.01355,516.925964,1024.933105,515.805481,1023.805481,514.638916C1021.028137,511.765686,1021.077087,510.88208,1024.013428,510.88208C1025.565308,510.88208,1025.709351,510.823822,1027.284912,509.559326C1028.191406,508.831787,1029.182739,508.236572,1029.487671,508.236572C1029.792725,508.236572,1030.605225,508.597839,1031.293457,509.039429C1032.022827,509.507507,1033.162231,509.94281,1034.025879,510.083374C1034.840698,510.216003,1036.164429,510.531616,1036.967529,510.78479C1038.230103,511.18277,1038.604248,511.199921,1039.730347,510.911316C1040.923828,510.605408,1041.139526,510.627258,1042.306763,511.172241C1043.325439,511.647827,1044.00061,511.759033,1045.677124,511.727386C1047.800415,511.687317,1050.233765,512.200317,1051.245361,512.901367C1051.532349,513.100281,1052.320923,513.263,1052.997803,513.263C1054.618164,513.263,1056.134033,513.82074,1057.640747,514.971191C1059.044434,516.042969,1059.875977,516.147583,1060.671265,515.352295C1061.156128,514.867371,1061.204834,514.604736,1061.05127,513.302063C1060.954468,512.480347,1060.536987,510.610565,1060.123657,509.147064C1058.897461,504.805695,1058.865845,503.928986,1059.859131,501.813538C1060.816772,499.773926,1060.824463,499.135773,1059.965698,492.892639C1059.654907,490.633423,1059.477173,487.168304,1059.404541,481.955139C1059.28479,473.354736,1059.409058,472.464691,1061.026611,470.346283C1061.534546,469.681122,1062.652588,467.785522,1063.511353,466.13382C1064.55249,464.131195,1065.29248,463.021545,1065.7323,462.802917C1066.82959,462.25769,1077.145264,462.237091,1080.165161,462.774139C1085.15979,463.662354,1087.884521,466.008179,1087.891357,469.425842C1087.893188,470.364044,1087.476685,470.75119,1083.136108,473.845032C1081.196899,475.227295,1079.156128,476.755676,1078.600952,477.241425C1077.525635,478.182404,1073.857788,483.497742,1073.203979,485.062683C1072.723511,486.212646,1072.632446,492.057495,1073.061646,494.205963C1073.627808,497.040802,1077.568604,502.265686,1079.950684,503.339844C1080.87146,503.755066,1081.116211,503.77417,1081.676025,503.474548C1082.034912,503.282501,1082.398926,502.903503,1082.484985,502.632294C1082.709717,501.924194,1085.388184,499.096863,1086.464355,498.431763C1086.966309,498.121521,1087.999023,497.703186,1088.759277,497.502136C1090.022217,497.168152,1090.461182,497.193115,1093.845215,497.791565C1098.274536,498.57486,1099.437378,498.958435,1101.274536,500.242249C1103.068359,501.495758,1104.030396,502.957703,1104.030396,504.430023C1104.030396,505.933289,1103.107422,506.696716,1100.544189,507.313751C1099.47876,507.570221,1098.398804,507.886963,1098.144165,508.017609C1097.367188,508.41626,1097.559082,509.766724,1099.296997,516.134583C1099.573608,517.148132,1099.53833,517.509338,1099.003296,519.141235L1098.395264,520.995972L1098.855103,524.073975C1099.4021,527.735535,1100.104492,529.136047,1101.394165,529.136047C1101.520996,529.136047,1102.152954,528.600342,1102.798462,527.945557C1103.981689,526.745361,1104.716553,526.488892,1105.300171,527.072571C1105.758423,527.530762,1105.693359,528.38623,1105.061401,530.21228C1104.425659,532.049438,1104.518311,533.519775,1105.356812,534.898621C1106.049438,536.037598,1106.742554,536.00293,1107.174805,534.807739C1107.584229,533.675598,1108.468262,533.176819,1109.287964,533.615479C1109.738403,533.856628,1109.851196,534.164917,1109.85437,535.163879C1109.859253,536.702637,1110.345093,538.802673,1111.579956,542.62262C1112.450439,545.315186,1112.649902,545.680542,1113.970459,547.001099C1114.762939,547.793579,1116.024658,548.752747,1116.774292,549.132629C1117.523926,549.512512,1118.554199,550.28772,1119.063721,550.855347C1119.573242,551.422974,1120.195435,551.887329,1120.446167,551.887329C1120.697021,551.887329,1121.662231,551.531677,1122.591187,551.096985C1123.520142,550.662231,1124.844604,550.201172,1125.534546,550.072266C1126.988159,549.80072,1128.67981,548.712402,1129.664551,547.415344C1130.955078,545.715576,1131.498779,545.273621,1132.299072,545.273621C1132.909546,545.273621,1133.197144,545.474426,1133.625,546.199524C1134.158325,547.103516,1134.578369,547.274353,1135.908691,547.128296C1136.85022,547.024902,1137.93457,546.312256,1139.762451,544.59552C1141.921021,542.568176,1142.493896,542.379944,1144.230591,543.127075C1146.00061,543.88855,1146.821533,543.834778,1149.349365,542.791931C1150.541626,542.300049,1152.291016,541.652771,1153.236694,541.353577C1157.119995,540.125183,1166.591675,535.834167,1168.071411,534.632996C1169.180176,533.733032,1169.453857,532.894226,1169.241699,531.045959C1169.129517,530.068237,1169.01709,528.375427,1168.991699,527.28418C1168.966431,526.192932,1168.780518,524.228638,1168.578857,522.919128C1168.15332,520.157471,1168.146362,519.419983,1168.518921,516.638794C1168.831299,514.307373,1169.459961,513.029358,1170.554688,512.50061C1170.970825,512.299561,1172.512451,512.035156,1173.980469,511.913025C1179.942261,511.417053,1181.584595,511.211395,1181.870972,510.925079C1182.036133,510.759949,1182.25647,509.402954,1182.360718,507.909546C1182.677124,503.376831,1184.612183,497.78717,1186.715698,495.329651C1187.715454,494.161682,1188.154053,493.967346,1193.069702,492.513916C1196.746094,491.42688,1196.741455,491.427307,1198.801514,492.005341C1200.426147,492.461182,1200.977173,492.893066,1202.972168,495.274414C1204.488525,497.084351,1204.575684,497.326355,1204.116699,498.448212C1203.329834,500.37088,1201.504395,501.622803,1199.487549,501.622803C1197.979858,501.622803,1196.928223,502.270203,1196.343384,503.55835C1195.929077,504.470947,1195.839966,505.302612,1195.835083,508.298889C1195.827881,512.788086,1196.201416,514.518066,1198.476929,520.538147C1199.082031,522.138672,1199.931152,524.460083,1200.363892,525.696899C1200.796631,526.933655,1201.733276,529.136047,1202.44519,530.591064C1203.695313,533.145996,1205.50708,537.159485,1206.833252,540.311829C1207.184937,541.147644,1207.843872,542.434875,1208.297607,543.172363C1208.751465,543.909851,1209.46167,545.428406,1209.875977,546.546875C1210.521729,548.290039,1210.875977,548.814331,1212.356323,550.218018C1214.129272,551.899048,1214.370361,552.464844,1213.694824,553.357971C1213.089478,554.158386,1213.217773,554.905762,1214.104736,555.745361C1215.82959,557.378052,1215.802856,557.314819,1215.802856,559.768127C1215.802856,561.960388,1215.850342,562.14978,1216.777954,563.659851C1217.314209,564.532837,1217.957397,565.782837,1218.207275,566.437622C1218.457153,567.092407,1219.109131,568.296021,1219.656128,569.112305C1220.203125,569.928589,1220.974731,571.238159,1221.37085,572.022339C1222.548584,574.35437,1226.935303,580.036987,1230.231689,583.501099C1231.200928,584.519653,1232.251709,585.786743,1232.56665,586.316895C1233.309082,587.56665,1234.468994,588.094055,1236.933472,588.302368L1238.930542,588.471191L1240.509521,587.00946C1241.480835,586.110107,1242.571655,585.382996,1243.344604,585.119629C1244.918457,584.583374,1248.301636,584.560608,1249.763794,585.076538C1251.69397,585.757507,1256.444214,589.101868,1257.697754,590.662231C1258.33252,591.452515,1259.00708,592.098999,1259.196899,592.098999C1259.386719,592.098999,1260.831665,591.658691,1262.407959,591.120544C1266.217529,589.819885,1267.99707,589.781677,1270.465088,590.947571C1272.556885,591.935669,1273.983032,593.171631,1275.565186,595.36731C1276.209473,596.261536,1277.330078,597.56189,1278.055176,598.25708C1279.505127,599.647095,1279.876709,600.55304,1279.425415,601.597351C1279.041626,602.485168,1275.017334,605.635742,1272.219238,607.238953C1269.952637,608.537598,1268.227661,610.164063,1267.635254,611.561035C1267.402344,612.110657,1267.339722,613.011475,1267.441162,614.353943C1267.636719,616.938904,1266.764404,621.110229,1265.468262,623.789063C1264.207397,626.394775,1262.655518,627.74585,1258.799194,629.595215C1257.12207,630.399475,1255.321045,631.395081,1254.796875,631.807678C1254.272705,632.220215,1253.201294,632.881042,1252.416016,633.276123C1251.172485,633.901611,1250.629272,634.002747,1248.210205,634.059326C1246.682495,634.095032,1244.658691,634.021973,1243.712891,633.896973M1221.924805,619.111023C1222.388062,618.17688,1221.997559,617.440735,1220.677246,616.759521C1218.567871,615.671265,1216.826294,616.431274,1217.950928,617.94928C1219.307861,619.780762,1221.303467,620.364136,1221.924805,619.111023M1250.788452,630.84552C1252.807861,630.001709,1253.217896,629.047546,1251.980103,628.071838C1250.521362,626.921997,1247.945679,628.019287,1247.945679,629.790649C1247.945679,631.266968,1248.917114,631.627441,1250.788452,630.84552M1264.294922,616.384705C1264.744385,615.935181,1264.688721,614.283386,1264.200562,613.586426C1263.888428,613.140869,1263.525146,612.998474,1262.700195,612.998474C1260.711304,612.998474,1260.008667,614.423828,1261.371582,615.693726C1262.467896,616.71521,1263.678345,617.001282,1264.294922,616.384705M1083.322266,470.14856C1085.035767,469.103729,1084.619263,467.361298,1082.423706,466.390106C1080.41687,465.50238,1079.434204,466.172333,1079.809448,468.172424C1080.023926,469.315521,1081.157227,470.670715,1081.897827,470.669434C1082.21228,470.668884,1082.853271,470.434479,1083.322266,470.14856M1217.373169,574.530579C1218.791138,573.93811,1218.855713,572.654846,1217.537598,571.265686C1216.842041,570.532715,1216.319824,570.518555,1215.198486,571.202209C1214.145508,571.844116,1213.800781,572.656433,1214.15271,573.666016C1214.564453,574.847046,1215.813354,575.182312,1217.373169,574.530579M1180.894287,517.640137C1182.299561,516.234863,1181.27356,514.321228,1179.11499,514.321228C1178.369263,514.321228,1177.899048,514.502563,1177.43103,514.970581C1176.699341,515.702271,1176.670776,515.846802,1177.056641,516.861816C1177.4375,517.863708,1178.064697,518.271179,1179.240845,518.281067C1179.96167,518.287109,1180.428101,518.106262,1180.894287,517.640137M1078.288086,530.591492C1079.343018,529.8526,1079.889038,524.873779,1079.011475,523.996216C1077.963867,522.948608,1076.913208,523.831726,1076.490112,526.115356C1076.147705,527.963684,1076.345947,529.831177,1076.956299,530.505615C1077.484863,531.0896,1077.569214,531.095032,1078.288086,530.591492M1199.673828,498.593994C1200.75354,498.142822,1200.894043,497.3172,1200.069336,496.268768C1199.050171,494.973175,1196.177124,494.237976,1195.353149,495.061951C1194.6521,495.762939,1195.255615,497.75177,1196.415771,498.564423C1197.153687,499.081299,1198.47876,499.093323,1199.673828,498.593994M1061.084473,546.315247C1062.019287,545.959839,1062.222534,545.633179,1062.22644,544.47998C1062.230347,543.292114,1061.379517,541.896301,1060.52002,541.680603C1059.486938,541.421265,1058.537842,541.773438,1058.253418,542.521606C1057.82312,543.653259,1058.539795,545.979309,1059.429565,546.339111C1060.172852,546.639709,1060.233398,546.638855,1061.084473,546.315247M1265.514771,609.274475C1265.891479,608.826782,1266.199707,608.360352,1266.199707,608.237915C1266.199707,607.087769,1264.777344,606.299744,1262.697754,606.297913C1260.949463,606.296326,1260.11499,606.834167,1260.11499,607.962463C1260.11499,609.364502,1261.184937,610.068848,1263.332275,610.080383C1264.684448,610.087646,1264.896362,610.009399,1265.514771,609.274475M1247.001343,590.603821C1247.579102,590.400024,1248.265991,590.039307,1248.527832,589.802368C1249.153931,589.235718,1249.135254,588.219604,1248.492188,587.875488C1247.842163,587.527588,1245.719727,587.52478,1244.476318,587.870178C1242.469849,588.427551,1241.340576,590.467041,1242.720825,591.040649C1243.42981,591.335327,1245.53772,591.120239,1247.001343,590.603821M1185.2323,535.16864C1186.184082,534.574219,1186.882324,532.393555,1186.367554,531.622742C1186.003906,531.078003,1185.020142,530.723328,1183.875854,530.724304C1181.253784,530.726624,1179.177612,533.397827,1180.616821,534.917419C1181.37854,535.72168,1184.108765,535.870361,1185.2323,535.16864M1067.9021,495.556885C1068.753418,495.417175,1069.374756,495.136292,1069.687866,494.749695C1070.295532,493.999207,1070.291748,493.63324,1069.668213,492.86322C1069.194702,492.278442,1069.025146,492.250122,1066.433228,492.322601C1064.928711,492.364655,1063.546509,492.524719,1063.36145,492.678253C1062.881348,493.076691,1062.945557,494.747253,1063.462891,495.318909C1063.946167,495.852966,1065.568359,495.939911,1067.9021,495.556885M1178.777832,530.073975C1179.554077,529.297791,1179.614502,528.329407,1178.925781,527.706055C1178.285522,527.126648,1173.380249,526.574707,1172.596924,526.993958C1171.969116,527.329956,1171.780151,528.190002,1172.079956,529.346985C1172.372803,530.477173,1172.944336,530.685974,1175.801636,530.706543C1177.930908,530.721924,1178.183594,530.668213,1178.777832,530.073975M1071.161377,501.180969C1072.311768,500.618835,1072.551758,499.821655,1071.879395,498.795563C1071.453979,498.146271,1071.359741,498.124084,1069.808716,498.30777C1068.915039,498.413574,1067.338745,498.577759,1066.30603,498.672607C1064.189575,498.866943,1063.554199,499.242737,1063.554199,500.300049C1063.554199,501.630096,1064.321777,501.899536,1067.72229,501.763214C1069.390869,501.69632,1070.486328,501.510864,1071.161377,501.180969M1060.846069,567.357605C1062.514771,566.862061,1063.289673,565.967896,1063.289673,564.538086C1063.289673,563.780762,1063.108154,563.322021,1062.612183,562.82605C1061.982422,562.196289,1061.794434,562.155701,1059.940674,562.249268C1057.617432,562.366638,1057.204956,562.703979,1057.204956,564.486816C1057.204956,566.40564,1057.972412,567.760376,1059.059326,567.760376C1059.296143,567.760376,1060.10022,567.579102,1060.846069,567.357605M1193.493652,502.243164C1193.759766,502.00238,1193.977417,501.588806,1193.977417,501.324158C1193.977417,500.484497,1191.886597,496.640137,1191.334717,496.464935C1189.940674,496.022491,1187.36377,498.616394,1187.36377,500.462067C1187.36377,501.495575,1187.52417,501.611969,1189.744629,502.188171C1191.977539,502.767639,1192.89917,502.781158,1193.493652,502.243164M1192.51709,508.865417C1192.807251,508.575348,1192.920654,508.084656,1192.866699,507.352692C1192.770508,506.04483,1192.462402,505.859009,1189.115845,505.089905C1186.505249,504.48996,1185.938477,504.601135,1185.481689,505.802795C1185.118652,506.757629,1185.41626,508.166748,1186.052856,508.507477C1186.662598,508.833832,1189.095825,509.216797,1190.850098,509.262512C1191.674072,509.283997,1192.231323,509.151245,1192.51709,508.865417M1035.393066,517.107483C1035.873291,515.958313,1035.889404,514.21521,1035.423462,513.828552C1035.036377,513.507324,1031.091309,512.240479,1029.821045,512.02948C1028.788574,511.857971,1027.575317,512.76001,1027.575317,513.699097C1027.575317,514.570251,1028.365356,515.238831,1031.193237,516.760925C1034.077759,518.313477,1034.862183,518.378235,1035.393066,517.107483M1192.9646,515.470703C1193.652954,514.847656,1193.57605,513.631165,1192.799072,512.854187C1192.242188,512.297363,1191.903564,512.204834,1190.422974,512.204834C1189.473267,512.204834,1187.858887,512.061218,1186.835327,511.885681C1185.071167,511.583191,1184.945313,511.595581,1184.416382,512.124512C1183.711182,512.829773,1183.700562,513.950256,1184.3927,514.642334C1184.804321,515.054077,1185.492676,515.233337,1187.393555,515.424011C1188.750244,515.560059,1189.913574,515.724792,1189.978882,515.789978C1190.296631,516.107788,1192.523804,515.869629,1192.9646,515.470703M1058.90979,538.566406C1059.292236,538.183899,1059.656372,537.34613,1059.854126,536.393494C1060.031128,535.540771,1060.578979,533.926575,1061.071411,532.806458C1062.049683,530.581604,1062.161621,529.767944,1061.595825,528.994202C1061.28894,528.574585,1061.094238,528.531494,1060.471436,528.745239C1059.883667,528.94696,1059.479248,529.484741,1058.630249,531.193359C1057.975708,532.510498,1057.106079,533.785645,1056.447632,534.393494C1055.188965,535.555481,1055.070068,536.274231,1055.875122,537.852356C1056.641724,539.355042,1057.839355,539.636841,1058.90979,538.566406M1213.092285,569.106445C1215.084961,567.845886,1215.418579,567.21167,1214.759399,565.937012C1214.187378,564.830872,1213.38855,564.861267,1210.9823,566.08075C1209.30249,566.932007,1208.734619,567.075317,1206.279419,567.266907C1202.615356,567.552856,1201.885986,567.955627,1202.791016,569.193359C1203.378418,569.996643,1205.485107,570.410217,1208.52771,570.31958C1211.2854,570.237427,1211.318481,570.228638,1213.092285,569.106445M1215.624756,613.962036C1215.672363,613.546265,1215.450195,612.599365,1215.131226,611.85791C1214.60437,610.633118,1214.568359,610.247253,1214.737183,607.642273C1214.947876,604.391663,1214.80481,604.003784,1213.39563,604.003784C1212.755005,604.003784,1212.394409,604.177368,1212.099243,604.62793C1211.531616,605.494141,1210.551025,610.210449,1210.762939,611.054749C1210.858276,611.434753,1211.642944,612.452271,1212.506592,613.315918C1213.780396,614.589783,1214.2146,614.870239,1214.807495,614.802063C1215.390137,614.735107,1215.555908,614.564758,1215.624756,613.962036M1046.358398,522.257751C1047.381592,521.234558,1046.965332,520.443054,1044.842651,519.375916C1043.578491,518.740356,1043.069702,517.925415,1042.806274,516.114258C1042.499634,514.006836,1040.671387,513.105896,1039.36084,514.416443C1038.890625,514.886719,1038.69104,515.464905,1038.55249,516.759277C1038.316772,518.960022,1038.411255,519.390015,1039.217407,519.784607C1042.720337,521.49939,1045.467896,522.785156,1045.630859,522.785889C1045.73999,522.786438,1046.067383,522.548706,1046.358398,522.257751M1248.644897,613.625488C1250.202271,613.302429,1251.545776,613.229492,1254.002563,613.334656C1257.184326,613.470825,1257.300049,613.456543,1257.904663,612.851929C1258.67627,612.080322,1258.685425,611.683044,1257.953369,610.752319L1257.378906,610.022095L1254.315796,610.203125C1248.712524,610.534302,1245.328003,611.239258,1244.44043,612.260071C1243.871094,612.914917,1243.864258,613.112061,1244.393188,613.640991C1244.922607,614.17041,1246.037476,614.166382,1248.644897,613.625488M1271.090088,597.284546C1271.553467,596.980896,1271.755249,596.610352,1271.755249,596.062805C1271.755249,595.030151,1270.149902,593.838623,1268.157959,593.392822C1266.841309,593.098206,1266.493164,593.131348,1264.143188,593.77478C1262.728027,594.162292,1261.034302,594.555298,1260.379639,594.648193C1259.724854,594.741089,1258.980713,594.92395,1258.726074,595.054626C1258.11792,595.36676,1258.134888,596.398254,1258.757324,596.961609C1259.185303,597.348816,1259.67334,597.388062,1262.394897,597.253723C1264.801147,597.13501,1265.848511,597.192505,1266.861084,597.498901C1268.43457,597.974976,1270.170654,597.887024,1271.090088,597.284546M1230.408325,599.371826C1230.721802,599.152344,1231.224243,598.315186,1231.524902,597.511475C1232.616089,594.594971,1233.515015,593.950867,1236.494019,593.950867C1238.478149,593.950867,1239.480103,593.412903,1239.480103,592.347595C1239.480103,591.629211,1238.78125,591.406738,1235.357544,591.035217C1232.088623,590.680481,1231.562378,590.806824,1230.15979,592.282959C1229.587769,592.884949,1229.31543,593.630737,1228.851074,595.865662C1228.279663,598.615967,1228.277222,598.701904,1228.754639,599.229553C1229.339355,599.87561,1229.650879,599.902405,1230.408325,599.371826M1180.022461,523.651123C1180.661499,523.075195,1180.602051,522.104858,1179.897461,521.611328C1179.574097,521.384827,1178.770508,521.199341,1178.111694,521.199097C1175.67334,521.198242,1174.137451,519.684021,1174.136597,517.280029C1174.136108,515.829468,1173.75354,515.114868,1172.977417,515.114868C1171.910278,515.114868,1171.384521,516.018066,1171.269775,518.047852C1171.123901,520.628723,1171.429932,522.726074,1172.041504,523.337708C1172.427856,523.723999,1172.943359,523.849731,1174.202393,523.864624C1175.111694,523.875427,1176.391479,523.98175,1177.046265,524.100952C1178.464478,524.359131,1179.392456,524.218872,1180.022461,523.651123M1245.091919,596.868896C1246.359619,596.588501,1248.204834,596.109619,1249.192383,595.804565C1250.180054,595.499512,1251.880859,595.125854,1252.972168,594.974243C1254.063477,594.822571,1255.105103,594.575256,1255.286987,594.424561C1256.132324,593.724243,1255.240601,591.671143,1253.758057,590.904541C1252.556641,590.283203,1251.972656,590.43103,1250.779785,591.658447C1249.378174,593.100525,1247.449585,593.846008,1244.490845,594.089294C1241.777954,594.312378,1241.067383,594.688354,1241.067383,595.900635C1241.067383,596.551208,1241.22229,596.854736,1241.662598,597.067139C1242.459961,597.45166,1242.454956,597.451965,1245.091919,596.868896M1051.242798,525.857666C1052.949707,524.047852,1055.617676,519.348022,1055.617676,518.151001C1055.617676,517.323486,1054.433838,516.506165,1052.94873,516.308228C1052.161377,516.203308,1050.600586,515.758423,1049.480347,515.31958C1047.264526,514.451538,1046.24939,514.472656,1045.957275,515.393005C1045.857788,515.70636,1045.956055,516.194824,1046.19043,516.552612C1046.641113,517.240356,1048.609131,518.28949,1049.448608,518.28949C1050.123535,518.28949,1051.299316,519.190369,1051.516113,519.873657C1051.744385,520.592712,1051.253662,521.383484,1049.621826,522.926697C1048.105713,524.360352,1047.876587,525.102844,1048.62207,526.167114C1049.233154,527.039551,1050.240356,526.920593,1051.242798,525.857666M1054.755859,531.715393C1055.060059,531.388,1055.623047,530.405884,1056.006836,529.532837C1056.893555,527.515747,1057.773438,526.582703,1059.534668,525.791748C1061.140381,525.070557,1061.702271,524.126892,1061.702271,522.151184C1061.702271,520.15686,1060.914429,518.818604,1059.740356,518.818604C1058.923096,518.818604,1058.411865,519.45282,1057.714355,521.331787C1056.950684,523.388977,1055.426392,525.655945,1053.328979,527.853699C1051.551636,529.716187,1051.511719,529.797791,1051.891846,530.797363C1052.478394,532.34021,1053.785767,532.759277,1054.755859,531.715393M1271.827271,603.960266C1275.084839,601.991943,1275.723511,601.437622,1275.723511,600.577942C1275.723511,599.777405,1274.934814,598.977295,1274.145752,598.977295C1273.924805,598.977295,1273.112915,599.411926,1272.341553,599.943115C1270.638794,601.115906,1269.145752,601.326843,1266.822876,600.722778C1265.880371,600.477661,1264.129639,600.300049,1262.65625,600.300049C1260.467773,600.300049,1260.041626,600.373474,1259.585938,600.829163C1258.925171,601.489929,1258.919434,601.923584,1259.560913,602.715759C1260.028564,603.293396,1260.254028,603.338379,1262.691284,603.340332C1265.271606,603.342346,1265.344971,603.359741,1266.882935,604.336792C1268.778687,605.540955,1269.273438,605.503296,1271.827271,603.960266M1197.135376,527.56543C1197.577759,527.123047,1197.609863,526.915283,1197.370239,526.044312C1197.217651,525.489441,1196.863403,524.584656,1196.582886,524.033569C1196.30249,523.482544,1195.848999,522.311768,1195.575195,521.431885C1194.821655,519.010986,1194.558838,518.818115,1192.018433,518.821106C1190.840576,518.82251,1188.706177,518.678711,1187.275269,518.501587C1184.319214,518.13562,1183.480103,518.370117,1183.015137,519.692261C1182.807007,520.284119,1182.859131,520.516235,1183.298584,520.955688C1183.763428,521.420593,1184.231323,521.504028,1186.724609,521.567078C1188.937988,521.623047,1189.890381,521.765015,1190.802856,522.175049C1192.344238,522.867676,1192.748901,523.351807,1193.640869,525.570068C1194.60498,527.967285,1195.959839,528.740967,1197.135376,527.56543M1224.412109,599.235779C1225.163696,598.833496,1225.370728,598.292725,1225.850098,595.47876C1226.364868,592.456665,1226.367798,592.465393,1224.026001,590.157166C1223.116699,589.260864,1221.69873,587.612122,1220.874878,586.493286C1220.051147,585.374451,1219.111816,584.273254,1218.78772,584.046204C1217.976196,583.477783,1216.833008,583.529175,1216.199707,584.162476C1215.026245,585.335938,1215.879395,586.861328,1219.136719,589.41394C1222.497314,592.047546,1223.132568,593.246704,1222.436157,595.642212C1221.847534,597.666992,1221.902588,598.317627,1222.716797,598.95813C1223.509644,599.581726,1223.705688,599.613831,1224.412109,599.235779M1194.305908,606.550415C1194.570557,606.386536,1194.9198,605.811401,1195.081909,605.272339C1195.328857,604.451782,1195.302246,604.178589,1194.918823,603.593323C1194.509888,602.969238,1194.342773,602.911133,1193.359375,603.050781C1190.043945,603.521729,1189.629028,603.514587,1188.765381,602.971985C1187.35083,602.083191,1187.013428,601.090271,1186.98877,597.741943C1186.968384,594.99408,1186.921875,594.739197,1186.325562,594.10437C1185.972778,593.728943,1185.404297,593.421753,1185.062378,593.421753C1184.004761,593.421753,1183.850098,594.374756,1184.107178,599.30896C1184.309326,603.189941,1184.40271,603.803833,1184.858765,604.245361C1185.378662,604.748779,1189.432373,606.539429,1190.935181,606.929565C1191.867432,607.17157,1193.621582,606.974304,1194.305908,606.550415M1068.937622,489.204102C1069.780396,488.883667,1070.062012,488.008423,1069.564209,487.256226C1069.350708,486.933502,1068.49939,486.440765,1067.647217,486.146606C1066.725464,485.828491,1065.911743,485.343506,1065.606323,484.930298C1064.898438,483.972565,1064.937256,481.527222,1065.692627,479.499817C1066.819214,476.476074,1066.644775,475.051971,1064.967407,473.579254C1063.915039,472.655273,1063.53894,472.60199,1062.917236,473.288879C1062.518799,473.729248,1062.448853,474.647278,1062.347778,480.762421C1062.26001,486.073334,1062.312866,487.891449,1062.569336,488.395294C1062.880859,489.006989,1063.084473,489.06781,1065.280396,489.205078C1066.586304,489.286713,1067.795776,489.376007,1067.96814,489.403503C1068.140625,489.431,1068.576782,489.341248,1068.937622,489.204102M1200.909058,607.244507C1201.129028,606.989868,1202.327393,604.690063,1203.572021,602.13385C1205.906982,597.338623,1206.213135,596.930969,1208.772339,595.209961C1210.085205,594.327087,1210.200806,593.473267,1209.122925,592.61908C1208.499146,592.124695,1208.15979,592.061035,1206.742065,592.172546C1204.648315,592.33728,1203.872925,592.838928,1203.484131,594.280457C1201.986206,599.834412,1201.505249,600.927002,1199.877441,602.473328C1198.042725,604.216187,1197.428711,606.168579,1198.383545,607.223694C1198.943726,607.842651,1200.382202,607.854553,1200.909058,607.244507M1087.3125,586.37915C1090.365845,585.107422,1090.73877,585.004822,1093.977417,584.545349C1096.377441,584.204834,1099.734009,583.487122,1103.289551,582.554199C1105.269043,582.03479,1107.295654,577.553772,1106.027222,576.501099C1105.456909,576.027771,1104.683105,576.390625,1103.749878,577.568787C1102.626587,578.987122,1101.113525,579.980591,1098.73938,580.858643C1097.035156,581.488953,1096.214111,581.615173,1092.919312,581.753174C1089.642334,581.890381,1088.948364,581.996216,1088.157349,582.479248C1087.648071,582.790283,1086.542358,583.241333,1085.700073,583.481689C1084.496704,583.825073,1084.057861,584.100586,1083.650757,584.768066C1083.023682,585.796631,1082.99585,586.370605,1083.546631,586.921387C1084.155518,587.530212,1084.756958,587.443604,1087.3125,586.37915M1080.015625,592.165161C1080.62854,591.466125,1081.279053,590.076721,1081.279053,589.466675C1081.279053,588.53479,1080.38269,587.92395,1078.721436,587.723755C1076.730835,587.483765,1075.785645,587.083801,1073.640381,585.573608C1069.34375,582.548889,1067.906372,580.953735,1066.986328,578.189026C1066.34082,576.249512,1065.823608,575.835754,1064.299561,576.040161C1061.081787,576.471802,1061.246582,578.322876,1064.842529,582.139282C1065.834473,583.191956,1070.49646,586.850464,1074.352783,589.602539C1078.973999,592.90033,1079.258301,593.028992,1080.015625,592.165161M1107.89563,572.848877C1108.493896,572.453064,1109.04541,570.937012,1109.59314,568.182068C1110.931274,561.452271,1112.17688,559.351685,1116.265991,556.929199C1118.235962,555.762085,1118.616699,554.261841,1117.237549,553.101318C1116.136597,552.174927,1115.260498,552.219666,1114.390137,553.246643C1114.003052,553.703247,1112.882446,554.982971,1111.89978,556.090576C1109.682007,558.590088,1108.509644,560.929382,1107.509644,564.850342C1106.324219,569.497681,1106.004272,571.602234,1106.363281,572.390137C1106.658691,573.038513,1107.312988,573.234375,1107.89563,572.848877M1174.432861,562.46936C1175.01416,561.670532,1175.116455,559.893677,1174.836426,555.458801C1174.64502,552.429565,1174.66394,552.236145,1175.249023,551.235352C1175.599243,550.63623,1176.419556,549.842163,1177.162231,549.383484C1178.360229,548.643555,1178.630005,548.585022,1180.598145,548.638428C1183.381592,548.713989,1183.834961,548.595154,1184.316528,547.663879C1184.898438,546.538757,1184.813965,545.916992,1183.990723,545.264526C1182.974854,544.459534,1180.719116,544.65387,1178.295166,545.755249C1175.816528,546.88147,1172.111206,549.154114,1171.627441,549.84491C1171.160767,550.511047,1171.097412,552.654053,1171.504395,554.005493C1171.657471,554.513794,1171.760132,556.120178,1171.732544,557.575195C1171.704956,559.030212,1171.672607,560.738831,1171.660522,561.37207C1171.644165,562.229004,1171.771851,562.62085,1172.159668,562.904419C1172.888306,563.437256,1173.864502,563.250366,1174.432861,562.46936M1203.501221,559.096802C1204.629517,558.758057,1205.271606,558.333496,1206.360107,557.206665C1207.132202,556.40741,1208.322754,555.388733,1209.005615,554.942993C1210.002197,554.292542,1210.263672,553.963989,1210.329834,553.278931C1210.433105,552.211792,1209.426147,551.093689,1208.361816,551.093689C1207.61145,551.093689,1205.483643,553.073303,1203.023682,556.059998C1202.054932,557.236084,1201.749268,557.442932,1200.979492,557.442932C1199.883789,557.442932,1199.110718,556.504761,1199.415405,555.544922C1199.705688,554.630127,1203.997559,550.116455,1205.412598,549.23761C1206.724365,548.422974,1207.13208,547.632568,1206.799683,546.549316C1206.364746,545.132141,1205.340698,544.86969,1203.99231,545.829834C1202.47998,546.906677,1198.670898,551.4599,1197.886841,553.128052C1196.556763,555.957642,1196.634888,558.973328,1198.053955,559.579102C1198.793823,559.894958,1201.699951,559.637634,1203.501221,559.096802M1161.107056,547.173828C1161.361694,546.909424,1161.958984,546.12915,1162.434448,545.439941C1162.975464,544.65564,1163.901611,543.820923,1164.909424,543.208984C1165.795288,542.671265,1168.025269,541.292786,1169.865112,540.145752C1171.704956,538.998779,1173.984131,537.713745,1174.92981,537.290161C1176.797485,536.453735,1177.310791,535.971436,1177.310791,535.052856C1177.310791,534.107971,1176.352173,533.633423,1174.443726,533.633423C1172.867798,533.633423,1172.704956,533.690491,1172.05542,534.471436C1170.098267,536.824463,1168.843628,537.789307,1165.488037,539.522156C1163.583496,540.505737,1160.922363,541.720459,1159.574341,542.221619C1156.979492,543.18634,1156.751343,543.322021,1156.666626,543.950867C1156.518311,545.051636,1156.765503,545.690063,1157.702881,546.627441C1158.517456,547.442017,1158.928101,547.654541,1159.687012,547.654541C1160.265869,547.654541,1160.827148,547.464539,1161.107056,547.173828M1162.30957,568.487915C1162.879395,567.906372,1162.891846,567.752136,1162.851318,561.807983C1162.814209,556.368286,1162.748901,555.530579,1162.235352,553.904846C1161.486816,551.535706,1160.90564,550.978333,1158.796021,550.60675C1156.047119,550.122559,1154.576294,548.731506,1153.880005,545.957214C1153.658203,545.073181,1152.869873,544.645874,1151.840698,544.851746C1150.69751,545.080383,1150.32666,545.478577,1150.32666,546.4776C1150.32666,547.152161,1150.777466,547.957947,1152.297241,550.000061C1153.381104,551.45636,1154.482178,552.758057,1154.744385,552.8927C1155.00647,553.027405,1155.739258,553.216797,1156.372925,553.31366C1158.084351,553.575317,1158.984009,554.149841,1159.636597,555.398071C1160.441772,556.937927,1160.411865,560.643982,1159.57019,563.659851C1158.368164,567.966492,1158.566406,569.08313,1160.533203,569.08313C1161.421387,569.08313,1161.875488,568.930969,1162.30957,568.487915M1093.240967,513.793823C1094.965454,513.29187,1095.064453,513.053223,1094.87085,509.864655C1094.701416,507.075867,1094.708252,507.029144,1095.405884,506.200073C1095.944702,505.559723,1096.471558,505.284363,1097.624268,505.040588C1099.318359,504.682373,1100.32666,504.162354,1100.32666,503.646973C1100.32666,502.720764,1097.109375,501.093689,1095.277954,501.093689C1094.523682,501.093689,1093.448364,502.128784,1093.448364,502.854767C1093.448364,503.05658,1093.080811,504.022675,1092.631714,505.001617C1091.859253,506.68515,1091.824341,506.901245,1091.986328,508.991669C1092.180542,511.497284,1091.856934,512.204834,1090.516479,512.204834C1089.175293,512.204834,1088.686401,511.183563,1088.686401,508.381927C1088.686401,506.071655,1088.738037,505.851563,1089.744629,503.87149C1090.894653,501.609222,1091.006104,501.062592,1090.41687,500.573608C1089.447266,499.768921,1086.991333,501.332611,1085.467407,503.724854C1084.62207,505.052002,1084.5354,505.964294,1085.121704,507.367554C1085.34375,507.898743,1085.768677,509.293732,1086.06604,510.467529C1086.670166,512.851501,1087.120483,513.701843,1087.974365,514.071655C1088.660156,514.368652,1091.843018,514.200745,1093.240967,513.793823M1061.644653,573.686523C1062.185669,573.453857,1063.521118,573.160156,1064.612427,573.033752C1066.247314,572.844421,1066.699707,572.685303,1067.182739,572.1297C1068.490967,570.625122,1069.235718,565.87439,1068.863037,561.411133C1068.735474,559.883362,1068.545776,558.420654,1068.441528,558.160645C1068.14624,557.424316,1067.064697,556.997742,1063.988037,556.403992C1059.967163,555.628052,1058.940674,555.666504,1057.978271,556.628906C1057.543701,557.063538,1057.204956,557.686584,1057.204956,558.051575C1057.204956,559.157593,1057.758911,559.371094,1060.093018,559.164429C1064.361572,558.78656,1066.297974,560.400696,1066.279297,564.321228C1066.269043,566.464294,1065.753052,568.016907,1064.730713,568.981201C1063.883301,569.780396,1062.950317,570.108521,1060.31665,570.533569C1058.708618,570.793091,1058.342529,572.337158,1059.592651,573.587219C1060.224487,574.218994,1060.388306,574.226929,1061.644653,573.686523M1180.948853,603.683899C1181.205688,603.470825,1181.242798,602.473022,1181.109131,599.374878C1180.966553,596.066101,1181.02002,594.90741,1181.407471,592.91272C1181.977661,589.977112,1182.416016,589.333252,1183.844604,589.333252C1184.655762,589.333252,1185.260498,589.605225,1186.643433,590.592102C1187.61377,591.284485,1188.738159,592.284302,1189.142212,592.813965C1189.820801,593.703308,1189.887085,594.006714,1190.009155,596.78418C1190.148438,599.948364,1190.29126,600.287231,1191.48938,600.296021C1192.450562,600.30304,1192.961914,599.403503,1193.253906,597.191589C1193.664063,594.084595,1193.43689,593.342712,1191.490356,591.434204C1189.013794,589.005798,1185.630859,586.359192,1184.545898,586.001099C1183.974731,585.812622,1182.877197,585.740173,1181.846191,585.822937C1179.586304,586.004333,1179.162598,586.47168,1179.162598,588.782837C1179.162598,589.691284,1178.931152,591.969727,1178.648071,593.84613C1177.71521,600.03125,1177.494263,602.56427,1177.83252,603.196472C1178.377686,604.214844,1180.002808,604.469116,1180.948853,603.683899M1244.024536,609.049622C1246.208008,608.05957,1249.37085,607.448242,1253.317505,607.253357C1255.841919,607.128723,1256.564697,607.001648,1257.087402,606.590454C1257.843994,605.9953,1257.903076,605.421021,1257.296753,604.555298C1256.880859,603.961609,1256.754028,603.938538,1254.717407,604.086304C1250.983032,604.357178,1245.346191,605.533752,1243.647949,606.396729C1241.338013,607.570557,1239.744629,607.312012,1239.744629,605.763306C1239.744629,604.585205,1240.470703,604.039917,1243.129883,603.221069C1245.943604,602.354614,1252.407715,601.093689,1254.035522,601.093689C1256.156616,601.093689,1257.195068,599.941406,1256.302124,598.578552C1255.675049,597.621582,1254.088379,597.705872,1249.070068,598.962585C1246.778442,599.536499,1244.077271,600.088501,1243.067627,600.189209C1241.357544,600.359863,1241.143311,600.455322,1239.93689,601.58374C1238.281982,603.131714,1237.385132,604.670898,1237.193115,606.292358C1236.995239,607.962402,1237.587769,608.736206,1239.522705,609.334961C1241.533447,609.957092,1242.102661,609.921021,1244.024536,609.049622M1071.046387,482.707458C1071.315063,482.270966,1072.120239,480.966309,1072.835571,479.808228C1073.550903,478.650177,1074.13623,477.393524,1074.13623,477.015717C1074.13623,476.637909,1073.829224,475.918732,1073.453857,475.417603C1073.078613,474.916443,1072.488159,473.954132,1072.141602,473.279144C1071.795044,472.604156,1070.852051,471.488495,1070.046021,470.799927C1068.979004,469.888306,1068.580688,469.364563,1068.580688,468.873413C1068.580688,467.979095,1069.292725,467.231049,1070.142822,467.232269C1071.717529,467.234528,1073.280762,468.835907,1075.116577,472.327545C1076.113037,474.222626,1076.787231,474.672943,1077.809204,474.126007C1078.110352,473.964813,1078.4823,473.598602,1078.635498,473.312256C1078.926514,472.768524,1078.885864,472.665924,1077.432983,470.27359C1076.952026,469.481537,1076.789307,468.832825,1076.786011,467.694244C1076.782593,466.494843,1076.661499,466.052948,1076.213745,465.605103C1075.669556,465.060883,1075.486206,465.04361,1071.827271,465.191864C1068.934082,465.309082,1067.848511,465.45163,1067.34729,465.780029C1066.662354,466.22876,1065.413208,468.58429,1065.408569,469.435425C1065.407227,469.701935,1066.153198,470.654327,1067.066406,471.551819C1069.85144,474.28891,1070.4021,476.140503,1069.249512,478.892426C1067.971924,481.942932,1067.919556,482.202087,1068.424683,482.973053C1069.062012,483.945709,1070.365479,483.81366,1071.046387,482.707458M1209.919067,577.005005C1211.117188,576.672302,1211.79541,575.762939,1211.556152,574.809814C1211.260498,573.631531,1210.768677,573.456604,1207.3573,573.315918C1204.421997,573.194885,1204.003662,573.111755,1202.436401,572.33783C1201.494263,571.872681,1200.098511,570.913086,1199.334595,570.205444C1198.166504,569.123413,1197.945679,568.771057,1197.945679,567.988892C1197.945679,567.350342,1198.143921,566.872803,1198.578125,566.464844C1199.417725,565.676025,1202.716675,564.651428,1205.421021,564.3396C1208.558105,563.977783,1211.505615,562.820435,1212.346191,561.620361C1213.300171,560.258362,1212.475952,557.442932,1211.123291,557.442932C1210.804443,557.442932,1209.862183,558.178894,1208.827637,559.235901C1207.666504,560.422241,1206.669922,561.178223,1205.882202,561.470215C1204.072754,562.140991,1200.810303,562.733887,1198.928955,562.733887C1197.50061,562.733887,1197.155029,562.828979,1196.657715,563.358276C1195.6521,564.428711,1195.035645,566.491211,1195.035645,568.785339C1195.035645,570.677246,1195.0979,570.92511,1195.733154,571.560303C1196.116699,571.943848,1196.543945,572.257751,1196.682617,572.257751C1196.821289,572.257751,1198.831787,573.213318,1201.150635,574.381287C1204.902588,576.271118,1207.321777,577.216858,1208.52771,577.265259C1208.745972,577.274048,1209.37207,577.156982,1209.919067,577.005005M1224.634766,613.858276C1225.55249,612.934082,1228.520264,604.113464,1228.260986,603.080566C1227.875244,601.543274,1225.741821,601.240234,1224.692871,602.57373C1224.272827,603.107727,1224.151978,603.860779,1223.994019,606.926392C1223.833496,610.040405,1223.718994,610.740295,1223.277588,611.301453C1222.605347,612.156067,1221.604004,612.068054,1220.877441,611.090515C1220.383545,610.426025,1220.367432,610.240356,1220.658569,608.577271C1220.831543,607.5896,1221.000244,605.643005,1221.033447,604.251465C1221.090942,601.84613,1221.057495,601.673523,1220.355591,600.749756C1219.461792,599.573364,1219.15271,599.399353,1216.532959,598.598145C1215.403809,598.252869,1213.913818,597.751099,1213.22168,597.483154C1211.966187,596.997192,1211.960449,596.997498,1210.808105,597.608826C1209.136719,598.495483,1208.171509,599.616638,1206.956299,602.083008C1206.365601,603.281921,1205.882202,604.332581,1205.882202,604.417847C1205.882202,604.503052,1205.391113,605.413635,1204.791016,606.441345C1203.180542,609.198669,1203.38147,610.352966,1205.47168,610.352966C1207.022827,610.352966,1207.615356,609.641602,1208.122314,607.170471C1208.669678,604.502075,1209.985352,601.933594,1211.152466,601.254272C1213.116089,600.11145,1216.50415,601.003906,1217.572876,602.945557C1218.031128,603.778076,1218.064697,604.21051,1217.905884,607.233521C1217.742676,610.339722,1217.772583,610.685303,1218.299316,611.773438C1218.612915,612.421204,1219.072388,613.038147,1219.320313,613.144409C1220.930908,613.834717,1223.019165,614.560303,1223.428955,614.57196C1223.694824,614.57959,1224.237427,614.258423,1224.634766,613.858276M1183.668335,582.295105C1184.400269,580.927368,1182.960693,578.196533,1180.060425,575.451111C1177.292603,572.831116,1176.277222,572.357788,1172.643188,571.993652C1171.063477,571.835327,1168.738037,571.451294,1167.475342,571.140198L1165.179443,570.574585L1163.353638,571.416138C1160.158325,572.888977,1157.774536,572.46991,1156.219238,570.162048C1155.405273,568.954224,1155.430786,567.079285,1156.301514,564.126831C1156.677612,562.85144,1157.051636,560.824097,1157.13269,559.621582C1157.295044,557.213135,1156.938965,556.384705,1155.741333,556.384705C1154.80481,556.384705,1154.51062,557.01709,1154.23291,559.626343C1153.989624,561.91272,1153.343994,564.477966,1152.328003,567.194031C1152.088379,567.834839,1151.975098,568.598938,1152.07312,568.913635C1152.170166,569.225098,1153.002441,570.624756,1153.922729,572.023987C1155.195313,573.958862,1155.835815,574.681885,1156.597778,575.043518C1157.681519,575.557739,1158.259766,575.513184,1163.554199,574.507263C1165.047119,574.223633,1166.380859,574.136658,1167.522461,574.248535C1170.699585,574.559937,1174.498779,575.418884,1175.959351,576.156006C1177.959351,577.165405,1179.756104,578.981201,1180.352661,580.595947C1180.620483,581.32074,1181.016479,582.122131,1181.232666,582.37677C1181.795776,583.040283,1183.296387,582.98999,1183.668335,582.295105M1129.294922,603.214844C1131.041016,603.069458,1134.13623,602.827393,1136.173218,602.67688C1140.854736,602.330811,1141.116211,602.179199,1141.400391,599.644775C1141.526489,598.521179,1142.14209,596.417358,1143.053833,593.994324C1143.852905,591.871094,1144.506592,589.857971,1144.506592,589.52063C1144.506592,589.18335,1144.327881,588.479858,1144.109619,587.957336C1143.891235,587.434814,1143.591553,586.218384,1143.443481,585.254211C1143.004272,582.3927,1142.905029,582.069824,1142.211914,581.246094C1141.776978,580.729248,1141.303101,580.458801,1140.832275,580.458801C1139.231689,580.458801,1139.067993,581.833496,1140.323486,584.730042C1141.556763,587.575134,1141.526123,589.854614,1140.199707,593.926697C1138.994751,597.625977,1138.20105,599.035278,1137.002075,599.604248C1135.854614,600.148743,1134.019165,600.154724,1132.179565,599.619873C1130.849243,599.233154,1130.644287,599.237793,1129.22876,599.686035C1127.916382,600.101685,1126.744263,600.167786,1120.687134,600.167786C1114.368652,600.167786,1113.593628,600.215454,1112.937012,600.644775C1112.535645,600.907104,1112.068237,601.427002,1111.898193,601.800171C1111.627563,602.394226,1111.665527,602.540527,1112.204102,602.976624C1112.769775,603.434631,1113.353516,603.474854,1119.469727,603.476868C1123.127563,603.478088,1127.548828,603.360168,1129.294922,603.214844M1238.803711,628.548096C1239.382202,627.722229,1239.325195,626.335571,1238.686523,625.696899C1238.395508,625.405884,1238.068115,625.165649,1237.958984,625.163086C1235.498413,625.104797,1232.945313,624.570801,1231.536011,623.819702C1229.247925,622.600098,1228.369019,621.514038,1228.369019,619.906189C1228.369019,618.388123,1229.067139,617.477783,1230.829346,616.698364C1232.18689,616.097839,1233.112305,615.945618,1237.077637,615.670715C1239.897949,615.475159,1240.138672,615.414429,1240.705444,614.755615C1241.654053,613.652771,1241.245728,612.987671,1239.191895,612.290283C1236.610718,611.413818,1236.050171,611.481018,1234.527832,612.849731C1232.896606,614.316406,1232.055176,614.568176,1231.302002,613.815063C1230.526489,613.039551,1230.597168,612.009644,1231.477417,611.258789C1231.877563,610.91748,1232.62146,610.286316,1233.130615,609.856201C1234.031738,609.09491,1234.059937,609.012329,1234.19812,606.737427C1234.369873,603.908569,1234.9375,602.597839,1236.983154,600.305176C1237.774414,599.418335,1238.421875,598.467651,1238.421875,598.192566C1238.421875,597.454041,1237.69873,596.860901,1236.79834,596.860901C1235.592773,596.860901,1235.047363,597.279419,1234.286499,598.788391C1233.903809,599.547058,1233.142334,600.733521,1232.594238,601.424988C1231.815796,602.407043,1231.529907,603.072754,1231.287598,604.467285C1231.117065,605.449097,1230.644531,607.085815,1230.237671,608.104309C1229.830811,609.122803,1229.179199,611.002319,1228.789673,612.280884C1228.2052,614.199219,1227.854858,614.855835,1226.785645,616.036499C1225.790771,617.134949,1225.363403,617.892029,1224.945313,619.295776C1224.295532,621.477661,1224.284424,621.709351,1224.794556,622.437683C1225.828735,623.914185,1235.690796,629.080933,1237.547119,629.118774C1238.133057,629.130737,1238.518066,628.955933,1238.803711,628.548096M1244.506592,630.458801C1244.79895,630.166443,1245.035645,629.576965,1245.035645,629.141418C1245.035645,626.74884,1246.844971,625.00592,1249.626831,624.718811C1251.745728,624.500122,1252.814331,624.794495,1254.174194,625.971497C1255.863892,627.433899,1256.336304,627.492554,1258.456421,626.503235C1261.373657,625.141907,1263.420288,622.72229,1263.23877,620.849365C1263.166992,620.10791,1262.948364,619.900146,1261.381104,619.08313C1260.404053,618.573853,1259.177856,617.811096,1258.656006,617.388062C1257.809204,616.701599,1257.405396,616.591125,1254.898193,616.360046C1252.619385,616.149963,1251.585571,616.182983,1249.422119,616.53479C1247.955322,616.773315,1246.041016,616.96814,1245.167969,616.967773C1243.92334,616.967285,1243.209473,617.147949,1241.861084,617.80481C1240.264404,618.582581,1239.884277,618.653503,1236.543335,618.796631C1232.836792,618.955505,1232.072754,619.183838,1232.072754,620.13269C1232.072754,621.270508,1233.550537,621.770142,1237.952271,622.120422C1240.248291,622.303162,1240.268555,622.299316,1241.78833,621.396729C1243.786987,620.209717,1244.440308,619.97937,1247.284302,619.45874C1250.49585,618.870911,1254.21814,619.069336,1257.041016,619.978943C1258.1875,620.348389,1259.348267,620.852173,1259.620361,621.098389C1260.677856,622.055481,1259.925049,623.845032,1258.464966,623.845032C1258.03894,623.845032,1256.837158,623.459839,1255.794312,622.989014C1254.031372,622.193237,1253.702881,622.134216,1251.120361,622.149597C1248.015625,622.168091,1245.577393,622.699219,1243.765137,623.751648C1242.400635,624.544128,1242.24939,624.896606,1242.00647,627.849548C1241.826416,630.038513,1241.844116,630.152344,1242.427734,630.561157C1243.239868,631.130005,1243.866211,631.099121,1244.506592,630.458801M1174.077271,604.121033C1174.599609,603.755249,1174.665283,603.47821,1174.665283,601.643921C1174.665283,600.507996,1174.789917,598.937378,1174.942383,598.153625C1175.520386,595.18042,1176.238525,588.919922,1176.087769,588.166626C1175.905273,587.253723,1175.064575,586.418457,1173.20752,585.30481C1170.432129,583.640442,1167.630493,583.234985,1162.692871,583.782959C1158.908447,584.203003,1158.445068,584.365967,1157.869141,585.47998C1157.360962,586.462585,1157.364136,587.068909,1157.881348,587.807312C1158.469727,588.647339,1159.289917,588.551514,1162.199341,587.302856C1166.483643,585.464172,1167.038574,585.744263,1167.294434,589.874207C1167.491577,593.055664,1167.158936,595.003418,1166.168579,596.466614C1165.397461,597.605896,1163.754517,598.448242,1162.303467,598.448242C1160.491699,598.448242,1157.334351,597.730469,1155.387695,596.876099C1153.160645,595.898621,1152.458252,595.867676,1151.664917,596.712158C1150.967285,597.454651,1150.643677,599.409363,1151.08252,600.229309C1151.350098,600.729492,1151.699951,600.775024,1156.337402,600.913879C1159.939087,601.021667,1161.915283,601.206909,1163.522705,601.587524C1165.086426,601.957764,1165.929932,602.040161,1166.384888,601.867249C1167.662354,601.381592,1170.17688,594.758667,1170.164795,591.911743C1170.163086,591.505493,1169.984985,590.518311,1169.769165,589.718018C1169.465454,588.592468,1169.443848,588.097534,1169.673462,587.532166C1170.016846,586.68689,1170.982666,586.347595,1171.880615,586.756714C1172.871094,587.208008,1173.166138,588.606445,1173.002563,592.075439C1172.829834,595.738892,1172.374023,597.604858,1170.96106,600.432739C1170.379395,601.596985,1169.90332,602.810486,1169.90332,603.129395C1169.90332,603.9552,1170.883301,604.532837,1172.284302,604.532837C1172.947144,604.532837,1173.753906,604.347534,1174.077271,604.121033M1219.390259,595.105957C1219.728638,594.191162,1218.972168,592.999023,1217.347656,591.887024C1215.60144,590.691589,1214.440063,589.515259,1213.573975,588.064392C1212.592285,586.4198,1212.2146,586.278931,1208.789063,586.278931C1204.273682,586.278931,1203.287354,585.947998,1198.794312,582.925537C1195.083496,580.429321,1194.506592,579.897827,1194.506592,578.97583C1194.506592,578.31311,1195.286865,577.548706,1195.963501,577.548706C1196.52832,577.548706,1196.793945,577.713196,1199.382446,579.665161C1201.298096,581.109741,1203.786133,582.56073,1204.813965,582.832581C1205.328735,582.96875,1207.259033,583.115356,1209.103516,583.158325C1212.259155,583.231934,1212.501099,583.20105,1213.203979,582.634033C1215.567993,580.727051,1216.261353,580.415833,1217.919312,580.517395C1220.007446,580.645264,1220.613281,581.083374,1222.934814,584.144165C1225.886963,588.036255,1227.3125,589.453491,1228.275391,589.453491C1229.349487,589.453491,1230.076904,588.647095,1229.843018,587.715454C1229.746216,587.329834,1228.919556,586.283386,1228.005859,585.390015C1226.174927,583.599731,1224.286987,581.398499,1222.586426,579.071106C1220.963257,576.849731,1220.545288,576.632629,1218.945068,577.179138C1218.235352,577.421509,1216.858154,577.708313,1215.884644,577.816467C1214.43457,577.9776,1213.819458,578.210205,1212.481445,579.103699C1210.920898,580.145813,1210.758667,580.19397,1208.828247,580.18866C1206.322998,580.181763,1204.217896,579.481079,1200.646484,577.465332C1193.903076,573.659241,1191.881104,573.802612,1192.186035,578.065063C1192.377808,580.744385,1193.094849,581.782043,1196.759521,584.683716C1198.435913,586.010986,1200.421509,587.642334,1201.171997,588.308899L1202.536499,589.520813L1204.407715,589.29657C1207.532959,588.922119,1209.355835,589.018066,1210.520508,589.618286C1211.381958,590.062195,1211.747559,590.520813,1212.560303,592.177002C1213.621094,594.338745,1213.836914,594.519958,1216.434814,595.430603C1218.259888,596.070313,1219.066284,595.98175,1219.390259,595.105957M1191.479858,572.675781C1191.940063,572.339172,1191.993286,571.961853,1191.993286,569.038208L1191.993286,565.776245L1193.128784,563.412842L1194.264282,561.049377L1194.086548,558.241333C1193.884277,555.042847,1194.222168,553.407227,1195.636108,550.742371C1196.549927,549.020081,1200.451294,544.751587,1202.458008,543.278503C1203.515625,542.502136,1203.765869,542.168396,1203.765869,541.533875C1203.765869,540.371399,1199.891235,531.517639,1199.180664,531.056274C1199.010742,530.945923,1197.661499,530.855591,1196.182495,530.855591C1193.682495,530.855591,1193.442627,530.809082,1192.772949,530.194214C1192.376709,529.830505,1191.667358,528.699524,1191.196777,527.68103C1189.905273,524.88623,1189.73584,524.787109,1186.073853,524.684021C1183.238159,524.604187,1182.946045,524.641296,1182.496338,525.138245C1181.950806,525.740967,1181.848877,526.901611,1182.301636,527.354431C1182.463989,527.516724,1183.580078,527.719604,1184.78186,527.805298C1185.983643,527.890991,1187.221924,528.103699,1187.533569,528.278015C1188.430054,528.779419,1189.442261,530.129639,1189.734009,531.212891C1190.043213,532.361084,1189.861328,533.163086,1188.831055,535.196472C1187.994019,536.848145,1188.165894,537.725464,1189.386353,538.031799C1190.186157,538.232544,1190.465332,537.970093,1191.954956,535.617493C1193.499268,533.178467,1196.143677,533.024658,1198.266357,535.250305C1199.247925,536.279602,1200.062134,538.301514,1200.062134,539.710022C1200.062134,541.054077,1198.930786,542.704102,1196.771973,544.508667C1194.375244,546.512085,1193.621094,547.670288,1192.277344,551.411194C1191.583252,553.34375,1191.274902,554.758118,1191.063599,556.979004C1190.724121,560.546631,1189.692017,564.899536,1188.651123,567.154114C1187.798584,569.000427,1187.717041,569.827759,1188.280151,570.916626C1188.716064,571.759521,1190.144287,573.051392,1190.640381,573.051392C1190.81958,573.051392,1191.197388,572.882385,1191.479858,572.675781M1093.626343,599.114014C1093.934448,598.898193,1094.492554,598.199402,1094.866699,597.561157C1095.944214,595.722412,1096.862671,595.405884,1101.120361,595.405884L1104.691772,595.405884L1106.882568,593.889832C1108.945801,592.462036,1110.179688,591.948975,1113.69458,591.057495C1115.558838,590.584717,1115.70105,590.362,1116.098145,587.2901C1116.62561,583.210999,1118.372925,577.52417,1120.757568,572.125488C1122.508301,568.161865,1122.6073,567.812927,1122.27063,566.792725C1121.893311,565.649719,1120.933838,564.969482,1120.230103,565.346191C1119.335815,565.824768,1119.089844,566.350281,1118.459473,569.12854C1118.11853,570.631348,1117.456665,572.813293,1116.988647,573.977295C1115.537109,577.587158,1114.893677,579.663635,1114.225586,582.89386C1113.871216,584.607422,1113.376343,586.441284,1113.125977,586.969055C1112.61084,588.054688,1111.479858,588.8479,1110.11499,589.080933C1108.022827,589.43811,1107.19397,589.774719,1106.022217,590.742981C1104.535156,591.971802,1103.418335,592.33374,1100.535645,592.520874C1097.570557,592.713379,1096.054077,593.074463,1093.751953,594.136047C1091.680054,595.091553,1089.86792,595.532227,1087.819702,595.578857C1086.33374,595.612671,1085.511841,595.032898,1085.511841,593.950867C1085.511841,592.834656,1086.206787,592.441528,1088.421875,592.304626C1089.875488,592.214844,1090.909668,591.960205,1092.289307,591.352539C1094.833374,590.231995,1096.744873,589.765503,1099.625977,589.562195C1103.608398,589.281189,1105.518677,588.039856,1104.458618,586.421997C1103.91394,585.590637,1102.979492,585.550476,1100.651611,586.258423C1099.739136,586.535889,1097.417725,587.026001,1095.49292,587.347473C1093.568115,587.668945,1091.040894,588.284912,1089.876953,588.716187C1088.712891,589.147583,1087.022461,589.730896,1086.120483,590.012573C1084.994019,590.364319,1084.321411,590.750488,1083.972534,591.245728C1083.165283,592.391602,1082.33728,594.148071,1082.33728,594.714722C1082.33728,595.958496,1085.437378,597.606812,1090.09375,598.838745C1093.011841,599.610718,1092.926636,599.604126,1093.626343,599.114014M1147.450317,601.185547C1147.659546,600.933594,1147.875488,599.821777,1147.959839,598.562622C1148.080811,596.755371,1148.241699,596.157898,1148.889038,595.110718C1150.426514,592.62384,1152.496094,592.189697,1155.752319,593.670898C1159.317749,595.292786,1162.271606,595.681885,1163.400879,594.678345C1164.12793,594.032349,1164.609253,592.35083,1164.359375,591.330383C1164.077393,590.178833,1163.5177,590.090698,1161.616821,590.89856C1158.655396,592.157166,1156.151855,591.602783,1155.005981,589.434692C1154.374023,588.239075,1154.514282,585.328918,1155.287964,583.583984C1156.030396,581.909424,1157.061157,581.427856,1161.055908,580.889038C1167.999512,579.952393,1171.991699,580.589539,1175.251465,583.154602C1177.853149,585.201721,1179.143799,583.226379,1176.85791,580.696106C1175.663574,579.374084,1174.042847,578.536499,1171.621826,577.990112C1168.216064,577.221558,1165.835571,577.163147,1162.628296,577.769531C1156.343384,578.957764,1155.594238,578.862427,1153.538452,576.613159C1152.806396,575.812073,1151.597778,574.147522,1150.852783,572.914185C1149.396729,570.503662,1148.964355,570.214294,1147.237183,570.494568C1146.092041,570.68042,1145.300171,571.344971,1145.300171,572.120361C1145.300171,572.754822,1145.984497,573.456787,1147.467041,574.343201C1148.862793,575.177734,1150.961914,577.569214,1151.797119,579.276062C1152.421265,580.551819,1152.508179,581.033569,1152.477783,583.045837C1152.434204,585.915894,1152.059692,588.265747,1151.512573,589.100769C1151.282593,589.451782,1150.653809,589.924194,1150.115356,590.150574C1147.236084,591.360962,1147.370483,591.21991,1146.147095,594.310486C1144.609009,598.196167,1144.109375,600.195435,1144.47583,600.999634C1144.711426,601.516724,1144.957886,601.622803,1145.923584,601.622803C1146.682983,601.622803,1147.213379,601.470947,1147.450317,601.185547M1125.077637,590.874023C1125.879395,590.348694,1126.133789,589.879395,1127.817261,585.82019C1129.11377,582.694153,1130.563721,579.300781,1131.609863,576.944153C1131.967041,576.139526,1132.828613,575.068176,1133.974121,574.00415C1135.722168,572.380432,1136.003052,571.833496,1135.612061,570.814575C1135.391479,570.239624,1134.127686,569.612244,1133.190186,569.612244C1132.738892,569.612244,1132.20813,569.85437,1131.885376,570.207458C1130.674927,571.531677,1126.071411,582.223389,1124.915039,586.396301C1124.633911,587.410889,1124.235229,588.409607,1124.029175,588.615723C1123.456665,589.188171,1122.253174,589.075928,1121.705078,588.399048C1121.079468,587.626404,1121.099121,587.296509,1121.877441,585.518311C1122.235718,584.699829,1123.082031,582.482605,1123.758179,580.591064C1125.095459,576.849731,1127.097168,572.295776,1128.560669,569.664795C1129.896484,567.263367,1129.550415,566.213745,1126.212158,562.540833C1123.574219,559.63855,1123.250488,558.899841,1123.98999,557.469849C1124.54834,556.390015,1127.738525,554.780396,1129.666992,554.605591C1132.115479,554.383545,1132.933105,555.033752,1135.86377,559.533508C1138.139893,563.028442,1141.549072,564.293213,1143.957031,562.536011C1145.607178,561.331665,1146.222534,557.857788,1145.147217,555.816223C1144.452393,554.49707,1139.480347,549.241821,1138.927002,549.241821C1138.681396,549.241821,1138.212158,549.459229,1137.884033,549.724854C1136.899292,550.522278,1137.335815,551.825317,1139.298828,553.947266C1143.064453,558.018066,1143.183838,558.177917,1143.183838,559.150513C1143.183838,559.853394,1143.019653,560.183716,1142.501953,560.52301C1141.513428,561.170654,1140.601929,560.746826,1139.485107,559.120117C1138.973145,558.37439,1137.816895,556.922913,1136.915771,555.894653C1135.026245,553.738586,1134.905762,553.534485,1134.471924,551.755066C1134.294556,551.027588,1133.961304,550.223999,1133.731445,549.96936C1133.273926,549.462646,1131.940796,549.342285,1131.668457,549.783081C1131.046997,550.788574,1128.679443,552.184326,1126.316772,552.937988C1122.626709,554.115173,1121.775146,554.655518,1120.829346,556.4198C1119.748657,558.435608,1119.548828,558.640442,1117.486572,559.844788C1114.610718,561.524414,1113.823486,562.919312,1112.626221,568.456909C1111.921387,571.716797,1111.410278,573.097656,1110.314331,574.703186C1109.856445,575.374023,1109.580322,576.227661,1109.458862,577.348694C1109.193115,579.799316,1108.906494,580.700623,1107.880615,582.310974C1106.866455,583.903076,1106.701416,585.047241,1107.378296,585.795105C1108.525513,587.062866,1110.69043,585.773315,1111.030029,583.619751C1111.495361,580.669434,1112.413208,577.398743,1113.69873,574.109619C1114.466431,572.145264,1115.293213,569.547791,1115.536011,568.33728C1116.096069,565.545166,1116.511108,564.563599,1117.678223,563.271851C1118.748413,562.087219,1120.062134,561.552307,1121.256836,561.814697C1122.848267,562.164307,1125.165405,564.861206,1125.56958,566.834473C1125.789185,567.906128,1125.247681,569.706787,1123.658936,573.18811C1120.557007,579.984985,1118.262451,588.399292,1119.089355,589.944458C1119.890259,591.440979,1123.384521,591.983398,1125.077637,590.874023M1108.310913,601.953491C1108.52771,601.698853,1108.860229,601.098755,1109.049805,600.619873C1110.289185,597.489807,1113.332764,596.507202,1119.974365,597.093079C1122.903931,597.35144,1124.283813,597.358765,1125.991089,597.125C1128.919189,596.724121,1129.534424,596.378662,1130.103271,594.816284C1130.355957,594.12207,1130.954956,592.661133,1131.434204,591.569885C1131.913574,590.478638,1132.429932,588.811951,1132.581787,587.866211C1132.752441,586.802734,1133.030151,586.020447,1133.309448,585.815918C1133.882813,585.396179,1135.045288,585.389038,1135.458984,585.802734C1136.221558,586.565308,1135.600342,589.644165,1133.956665,593.247986C1132.928101,595.50293,1132.883545,596.494995,1133.792236,596.909058C1134.603271,597.278564,1135.556396,596.913574,1136.151123,596.005798C1136.372681,595.667725,1136.923096,594.203979,1137.374268,592.752991C1138.427979,589.363953,1138.373901,587.507202,1137.14502,584.883362C1135.80542,582.023254,1136.148682,579.67627,1138.153564,577.98938C1139.809326,576.596069,1141.744629,576.813232,1143.800781,578.623047C1145.385864,580.018372,1146.019653,581.425964,1146.341187,584.265442C1146.614746,586.68042,1147.057739,587.601624,1147.945679,587.601624C1148.821777,587.601624,1149.332275,586.63855,1149.468994,584.727844C1149.733276,581.034546,1148.565796,578.815857,1145.068848,576.365417C1143.919067,575.559814,1142.766479,574.577271,1142.507568,574.182007C1141.838135,573.1604,1141.702637,571.214966,1142.229858,570.195435C1142.706299,569.27417,1144.482178,568.121277,1146.015381,567.737976C1149.084839,566.970581,1149.012085,567.014038,1149.654419,565.560547C1150.744385,563.093872,1152.119629,555.632813,1151.69043,554.514832C1151.554688,554.161011,1150.822388,553.097656,1150.063232,552.151917C1149.304077,551.206116,1148.279907,549.633667,1147.787354,548.657471C1146.932617,546.963623,1146.829224,546.864075,1145.518921,546.474976C1143.870239,545.985352,1142.871704,545.956055,1142.443115,546.384705C1141.744751,547.083008,1142.164185,547.828369,1144.72168,550.433411C1148.117798,553.892883,1148.61084,554.885742,1148.595947,558.236572C1148.586914,560.26416,1148.469238,561.005432,1147.986572,562.07251C1146.830566,564.628418,1144.610474,566.140747,1141.667603,566.376953C1140.192505,566.495361,1139.820923,566.417603,1138.31189,565.674683C1136.098877,564.585205,1134.180664,562.835449,1132.967651,560.799866C1131.469116,558.285278,1130.839355,557.707458,1129.596924,557.707458C1128.438232,557.707458,1127.575317,558.292358,1127.575317,559.077881C1127.575317,559.350037,1128.28186,560.332153,1129.145386,561.260376C1130.009033,562.18866,1131.008057,563.524902,1131.365479,564.229919C1132.205078,565.885498,1132.684448,566.284424,1134.453613,566.799683C1139.770752,568.348022,1140.811768,572.526489,1136.675415,575.717651C1135.094604,576.937195,1134.202759,578.246826,1133.432251,580.479919C1133.160156,581.268555,1132.340576,583.104309,1131.611084,584.559326C1130.88147,586.014343,1130.134766,587.68103,1129.951782,588.263C1129.357056,590.154297,1128.161377,592.258789,1127.203735,593.099548C1125.428467,594.658325,1122.636475,594.904968,1119.309326,593.796936L1117.258301,593.113892L1115.604736,593.641296C1114.69519,593.931396,1113.107788,594.414673,1112.077271,594.715332C1110.755493,595.100952,1109.627197,595.687073,1108.246704,596.705444C1105.677002,598.600891,1104.66394,598.875977,1101.62854,598.502197C1099.050171,598.184753,1097.869995,598.394653,1097.411011,599.252319C1096.756104,600.475952,1097.564453,600.960815,1101.145752,601.49292C1102.678345,601.720581,1104.281616,602.011292,1104.70874,602.138916C1106.095337,602.553223,1107.878296,602.461487,1108.310913,601.953491M1197.697754,600.555786C1197.978638,600.405396,1198.440552,599.827637,1198.723999,599.271912C1199.460938,597.827515,1200.632446,593.016907,1200.437012,592.23822C1200.336914,591.839294,1199.027222,590.527832,1197.069336,588.866028C1190.140625,582.985107,1189.673462,582.369385,1189.167358,578.448792C1188.86731,576.123901,1188.84668,576.077209,1187.484863,574.639343C1186.726563,573.838745,1185.866089,572.707458,1185.572632,572.125488C1184.887573,570.766846,1184.386841,570.332886,1182.592651,569.542847C1179.621094,568.234375,1179.098877,566.615479,1180.353271,562.601624C1180.717041,561.437622,1181.252686,559.155273,1181.543701,557.529663C1182.437134,552.538208,1182.227295,551.622803,1180.189941,551.622803C1179.420776,551.622803,1178.960815,551.800598,1178.476074,552.2854L1177.813477,552.947937L1177.98938,556.848877C1178.187256,561.236816,1177.814575,563.466614,1176.619995,565.040466C1175.019775,567.148926,1170.63208,566.692871,1169.087036,564.257507C1168.581787,563.461121,1168.552002,563.13092,1168.697144,559.932617C1168.827515,557.061401,1168.761841,556.000732,1168.312744,553.722229C1167.485229,549.524109,1167.941162,548.404419,1171.394165,546.153625C1178.693115,541.395874,1182.598145,540.496338,1186.011353,542.786499C1188.488525,544.448669,1188.552002,547.106262,1186.188354,550.201843C1185.361694,551.284546,1185.247314,551.619446,1185.247314,552.957336C1185.247314,555.089478,1184.319092,560.28418,1183.529297,562.572632C1182.755493,564.814575,1182.697998,565.81311,1183.304199,566.48291C1183.86499,567.1026,1185.040527,567.104614,1185.599487,566.486938C1186.240601,565.778503,1187.580811,560.366577,1187.904663,557.178345C1188.276245,553.519958,1188.444458,552.832458,1189.881836,549.098755C1191.386719,545.18927,1191.90564,544.422974,1194.259277,542.633667C1196.901489,540.624878,1197.491211,539.234131,1196.327881,537.755188C1195.560547,536.779663,1194.82959,536.958435,1193.854858,538.359924C1193.413086,538.995239,1192.619141,539.977356,1192.090576,540.54248C1191.250854,541.440308,1190.980103,541.569885,1189.943726,541.569885C1188.723389,541.569885,1188.270264,541.323059,1186.285767,539.577026C1185.382813,538.782715,1185.206421,538.736938,1182.387207,538.565674L1179.434448,538.386353L1177.049927,539.583923C1175.738525,540.242554,1172.730957,541.981018,1170.366455,543.447144C1163.685181,547.589966,1163.283936,548.146362,1164.595703,551.44873C1165.707153,554.246582,1165.946899,556.15033,1165.871948,561.583923C1165.80127,566.705566,1165.906494,567.202637,1167.199585,567.851501C1168.178589,568.342773,1170.536133,568.764893,1173.922119,569.055176C1176.21582,569.251831,1177.003174,569.435181,1178.087402,570.025269C1181.044434,571.634766,1184.602783,575.231812,1186.036255,578.060791C1186.419434,578.816833,1186.695068,579.980164,1186.811035,581.330811C1187.016479,583.72113,1186.635742,583.243042,1192.137329,588.018555C1193.658691,589.339111,1195.253662,590.926086,1195.681641,591.545227C1196.689209,593.002319,1196.868896,595.031494,1196.223755,597.664063C1195.574951,600.31189,1196.127563,601.396057,1197.697754,600.555786M1080.629639,584.042236C1082.081543,582.590393,1081.008179,580.723328,1078.72168,580.723328C1075.702148,580.723328,1073.33667,578.428406,1073.347046,575.509033C1073.349609,574.812073,1073.592896,573.348999,1073.887817,572.257751C1074.269165,570.846863,1074.494995,568.821411,1074.669434,565.247131C1074.804443,562.482605,1074.987427,559.810608,1075.076294,559.309387C1075.362427,557.693665,1076.402222,556.080566,1080.200684,551.359497C1083.22229,547.604004,1083.924561,546.573853,1083.924561,545.897522C1083.924561,545.089722,1083.401978,543.827637,1080.763672,538.263C1078.287842,533.04126,1077.023315,532.626709,1075.114746,536.411194C1074.07312,538.476868,1072.708374,539.870972,1070.815674,540.802673C1068.762573,541.813477,1067.755005,541.683228,1066.812988,540.2854C1065.617432,538.51123,1065.699219,536.499878,1067.126343,532.581787C1067.78894,530.762878,1067.833008,530.402039,1067.676147,528.084412C1067.431885,524.476379,1068.055298,519.669556,1068.85083,519.02533C1069.586426,518.429688,1070.217896,518.427795,1070.94812,519.019043C1071.652832,519.589661,1071.697754,520.521362,1071.125488,522.692749C1070.827515,523.823181,1070.697021,525.456482,1070.697021,528.055542C1070.697021,531.708801,1070.675903,531.846985,1069.758301,534.195129C1068.876465,536.452026,1068.844849,536.635742,1069.235352,537.23175C1069.463989,537.580688,1069.785767,537.866211,1069.950439,537.866211C1070.513062,537.866211,1072.151001,535.841003,1073.057129,534.024902C1073.957642,532.220093,1073.960693,532.201843,1073.652344,530.404053C1073.187256,527.69165,1073.271729,526.212891,1074.028564,523.816895C1074.791504,521.401978,1074.762085,520.919067,1073.718506,518.714783C1072.483032,516.10553,1071.128784,515.588928,1068.789063,516.834473C1067.339722,517.606018,1066.561646,517.666016,1065.889771,517.057983C1064.659302,515.944336,1065.704346,514.342346,1068.107178,513.659302C1072.678223,512.359802,1074.762329,513.431763,1076.637695,518.046936C1077.487549,520.13855,1077.970459,520.67041,1079.019531,520.67041C1079.943848,520.67041,1080.53418,520.126892,1082.731812,517.252441C1083.654785,516.045105,1084.027222,515.318359,1084.019287,514.739197C1084.003052,513.53833,1082.10791,507.742737,1081.548706,507.183472C1081.283936,506.918762,1080.406616,506.510101,1079.598999,506.275299C1078.659424,506.002167,1077.538452,505.37323,1076.486816,504.529266C1075.582764,503.803711,1074.638916,503.210114,1074.389404,503.210114C1074.139771,503.210114,1073.276611,503.51178,1072.471313,503.880493C1070.419922,504.819641,1067.329956,505.141296,1065.01416,504.656769C1062.87207,504.208588,1062.231445,504.427795,1062.231445,505.608856C1062.231445,506.857544,1062.906494,508.196716,1063.626953,508.377563C1063.977173,508.465454,1064.967163,508.359863,1065.827026,508.142914C1069.940674,507.104797,1073.792114,506.911224,1075.833252,507.640015C1077.986816,508.408997,1079.524292,510.018402,1080.484985,512.509705C1081.440063,514.986267,1081.436646,516.037659,1080.470947,516.755249C1079.16333,517.726868,1078.091309,516.739563,1077.744507,514.244263C1077.543457,512.798096,1076.62793,511.480469,1075.366089,510.821289C1074.502197,510.369934,1073.846069,510.254242,1072.284302,510.277771C1069.904297,510.31366,1064.918213,511.256439,1064.407471,511.767212C1064.207031,511.967743,1063.933105,513.006348,1063.798828,514.075317C1063.664673,515.144226,1063.48877,516.227173,1063.407837,516.481812C1063.327026,516.736511,1063.624512,517.773315,1064.06897,518.785828C1064.993408,520.892151,1065.088013,522.292908,1064.467407,524.687622C1064.097778,526.114075,1064.097778,526.405029,1064.467407,527.676575C1065.023804,529.590515,1064.982056,530.982544,1064.314453,532.780212C1062.338745,538.099548,1062.272339,538.729675,1063.532837,540.199341C1064.902222,541.795837,1065.429443,543.182434,1065.357666,544.998779C1065.282593,546.899292,1065.703247,547.49585,1067.118286,547.49585C1068.236206,547.49585,1069.087402,546.751038,1070.718628,544.345581C1072.235718,542.108521,1073.357788,541.585083,1074.400757,542.628113C1075.23584,543.463196,1075.061646,544.358154,1073.793579,545.747925C1073.168579,546.4328,1072.152954,547.609375,1071.536621,548.362427C1070.298096,549.875854,1068.635254,550.829163,1067.233765,550.829163C1066.730347,550.829163,1065.607178,550.475769,1064.737915,550.043823C1061.828369,548.598145,1059.056885,549.085632,1059.056885,551.043152C1059.056885,552.410461,1059.537476,552.715027,1062.106079,552.975403C1063.400879,553.106628,1065.305664,553.451233,1066.338867,553.74115C1069.374512,554.592957,1069.560303,554.544617,1071.686768,552.350342C1074.804077,549.133667,1076.570923,547.038391,1076.978394,546.074951C1077.475342,544.899963,1077.267456,543.311646,1076.390137,541.580322C1075.616577,540.053772,1075.544189,539.031921,1076.161377,538.349976C1077.171631,537.233643,1078.657715,538.068054,1079.162109,540.03479C1079.322754,540.660828,1079.639893,541.649292,1079.866943,542.231262C1080.542847,543.964294,1080.443115,546.303223,1079.634644,547.680054C1078.915405,548.904785,1075.210449,553.27655,1073.12207,555.364746C1071.666626,556.820129,1071.522705,557.2901,1071.837646,559.559326C1072.161011,561.890076,1071.883545,568.335449,1071.379272,570.204956C1071.153931,571.040161,1070.610718,572.39624,1070.171997,573.218384C1069.221558,574.999329,1069.20813,575.232788,1069.942139,577.194763C1070.810547,579.515869,1073.351563,581.988586,1076.850952,583.917969C1078.587158,584.875244,1079.758179,584.913757,1080.629639,584.042236M1086.131592,580.165039C1087.241577,579.659302,1087.424561,578.82959,1086.901001,576.676025C1086.538086,575.183289,1086.438354,573.625854,1086.440674,569.47998L1086.443604,564.188965L1087.465332,561.278931C1088.561035,558.158447,1089.21167,557.178345,1090.187622,557.178345C1090.912842,557.178345,1091.861328,558.040771,1091.860474,558.699524C1091.860229,558.954163,1091.503052,559.839478,1091.066895,560.66687C1089.52417,563.593689,1088.9552,567.936401,1089.465698,572.888428C1090.02771,578.339233,1090.365234,578.863037,1093.31604,578.864441C1098.332764,578.866821,1104.13916,574.835083,1103.394043,571.866577C1102.981445,570.222656,1104.775391,562.23938,1106.259766,559.113647C1107.453979,556.599243,1108.340332,555.334961,1110.622314,552.891357C1111.71582,551.720459,1112.495972,550.653137,1112.495972,550.328003C1112.495972,549.677063,1111.619507,548.712769,1111.027832,548.712769C1109.795288,548.712769,1107.45459,550.902344,1106.316284,553.120117C1105.954834,553.824341,1105.111206,555.352966,1104.44165,556.516968C1102.528931,559.841675,1100.858887,566.393372,1100.851807,570.599792C1100.846802,573.592041,1100.539917,574.241821,1099.131958,574.241821C1097.504517,574.241821,1097.353394,573.680542,1097.827393,569.39801C1098.383789,564.372253,1099.846191,558.599243,1101.190796,556.120178C1105.652466,547.894348,1105.233521,548.497986,1107.330566,547.271606C1109.13562,546.216003,1109.53418,545.636475,1109.062134,544.754517C1108.730103,544.134033,1108.293335,544.095642,1106.438232,544.523804C1104.024414,545.081055,1103.359375,544.706787,1099.13623,540.414063C1097.099121,538.343506,1095.075317,536.402405,1094.638794,536.100464C1093.075317,535.018982,1090.016724,534.127991,1087.15271,533.919678C1084.348999,533.715698,1083.880493,533.520447,1083.551514,532.418335C1083.443481,532.056641,1083.585938,531.610657,1083.962402,531.132141C1084.615356,530.302002,1084.904907,530.300354,1089.347778,531.101624C1094.056519,531.950806,1096.27063,532.968018,1098.421021,535.269958C1104.241089,541.500244,1104.324707,541.569885,1105.982422,541.569885C1108.577026,541.569885,1108.095093,538.732178,1105.428223,538.305725C1104.057495,538.086548,1102.914673,536.987854,1102.290771,535.289307C1101.28125,532.541199,1101.196045,532.406738,1100.160767,531.927856C1099.59729,531.667236,1098.544067,530.962158,1097.820435,530.361145C1096.562988,529.316711,1096.404907,529.261169,1094.249023,529.107544C1092.161499,528.95874,1088.905518,528.569946,1086.048828,528.128357C1085.134521,527.987,1084.774414,527.780518,1084.461548,527.218018C1084.0979,526.56427,1084.098267,526.416809,1084.466187,525.763C1084.974976,524.858704,1085.63916,524.850952,1091.010254,525.68689C1094.5177,526.232727,1094.83606,526.244263,1095.441528,525.847534C1096.157959,525.378113,1096.25769,524.758545,1095.783936,523.718872C1095.357544,522.78302,1094.716309,522.682739,1090.458862,522.885925C1087.206909,523.041199,1086.696899,523.008728,1086.266479,522.619202C1085.682007,522.090271,1085.634766,521.230042,1086.151367,520.522583C1086.489258,520.059937,1086.963379,519.995972,1090.9375,519.87677C1095.177246,519.749634,1095.368164,519.720215,1095.853516,519.119934C1096.131226,518.776489,1096.358398,518.09613,1096.358398,517.608093C1096.358398,516.273376,1095.749512,516.080505,1093.548584,516.718018C1092.161499,517.119812,1091.108887,517.227783,1089.121338,517.172119L1086.513916,517.098999L1085.738892,518.024902C1085.312744,518.53418,1084.372925,519.825073,1083.650635,520.893616L1082.33728,522.836365L1082.33728,525.728271C1082.33728,527.942017,1082.213135,528.973145,1081.808105,530.125549C1081.085449,532.181702,1081.129761,532.619568,1082.266113,534.648621C1083.140625,536.210205,1083.736816,537.450867,1086.169189,542.770996C1086.956299,544.492493,1087.220337,544.689697,1089.533325,545.283752C1092.382568,546.015503,1095.067627,547.19989,1095.6521,547.982605C1096.328857,548.889038,1096.080078,549.867432,1095.065918,550.287476C1094.368042,550.576538,1094.081177,550.501038,1092.004761,549.481689C1090.438721,548.71283,1089.255859,548.318909,1088.266846,548.236938C1086.589355,548.097778,1087.098755,547.647705,1082.338745,553.47467C1078.100098,558.663391,1078.077637,558.720581,1077.795776,565.064148C1077.63208,568.746704,1077.410767,570.872498,1077.040771,572.316895C1076.752808,573.440674,1076.51709,574.763916,1076.51709,575.257385C1076.51709,576.401917,1077.341919,577.455444,1078.424072,577.693115C1079.131592,577.848511,1079.362549,577.766357,1079.866699,577.180298C1080.449829,576.50238,1080.467041,576.321655,1080.468872,570.864807C1080.471924,562.033569,1080.988281,559.732544,1083.864868,555.734436C1085.71228,553.166809,1087.185913,551.986084,1088.856079,551.735657C1089.860474,551.585022,1090.541748,551.705566,1092.575928,552.393677C1093.945557,552.856995,1095.293091,553.164063,1095.570557,553.075989C1096.320068,552.838135,1098.169067,550.623657,1098.441284,549.637878C1098.571777,549.165222,1098.614136,548.441589,1098.5354,548.029785C1098.322388,546.915466,1096.234009,545.076965,1093.003296,543.159668C1089.599609,541.139709,1086.438477,538.858887,1086.207153,538.256042C1085.863281,537.359985,1086.046631,536.551941,1086.689331,536.130798C1087.535278,535.576477,1088.106201,535.780029,1089.809692,537.243347C1090.574219,537.900085,1092.032959,538.921265,1093.051514,539.512695C1097.282593,541.969238,1101.006836,545.310669,1101.634766,547.213501C1102.238037,549.041382,1101.195435,551.784546,1099.011108,554.116638C1097.376221,555.862061,1097.152222,556.332153,1097.151001,558.020752C1097.150513,558.805176,1096.735229,560.947937,1096.212158,562.866211C1094.935547,567.547241,1094.723145,570.919189,1095.548584,573.399658C1096.189331,575.324951,1096.109863,576.030029,1095.183594,576.636902C1094.297363,577.21759,1093.268677,576.743286,1092.71814,575.500122C1092.364258,574.701172,1092.277588,573.625,1092.275757,570.009033C1092.27356,565.684692,1092.306396,565.404846,1093.129517,562.733887C1094.124756,559.504333,1094.44104,557.250793,1094.011597,556.448486C1093.667236,555.804993,1091.175659,554.796997,1089.933105,554.798401C1088.279785,554.800293,1086.612671,556.36908,1085.087158,559.358521C1083.838745,561.804993,1083.572632,563.687805,1083.526001,570.405884C1083.498901,574.309021,1083.364746,577.039673,1083.165527,577.742798C1082.900024,578.680237,1082.915527,578.99292,1083.260986,579.660828C1083.598145,580.312927,1083.839355,580.458801,1084.580322,580.458801C1085.078979,580.458801,1085.7771,580.326599,1086.131592,580.165039"/>
</svg>
