<?xml version="1.0" encoding="UTF-8"?>
<svg xmlns="http://www.w3.org/2000/svg" width="400.000mm" height="132.655mm" viewBox="-975.300781 -611.602966 400.000000 132.655151">
    <path transform="matrix(-0.296428,0,0,-0.296428,-545.479614,-383.640289)" style="stroke:#000000;stroke-width:0.05mm;fill:none" d="M1450,769.03125L100.601563,769.03125L100.601563,321.519531L1450,321.519531L1450,769.03125z"/>
    <path transform="matrix(-0.296428,0,0,-0.296428,-545.479614,-383.640289)" style="stroke:#000000;stroke-width:0.05mm;fill:none" d="M1024.136719,354.230469L1014.199219,359.105469L1004.265625,363.984375L990.105469,378.144531L986.394531,385.40625C985.007263,388.217529,983.780029,391.104828,982.71875,394.054688C981.856628,396.341858,981.099304,398.667206,980.449219,401.023438L978.21875,409.378906L978.195313,543.148438L978.175781,676.917969L980.765625,686.859375L983.359375,696.804688L988.433594,704.714844C993.868286,713.247864,1001.315552,720.315735,1010.121094,725.296875C1015.453918,728.294006,1021.191406,730.505859,1027.15625,731.863281L1035.191406,733.714844L1045.390625,733.117188L1055.589844,732.523438L1064.507813,729.1875L1073.429688,725.851563L1082.738281,717.339844L1092.046875,708.832031L1102.6875,688.480469L1102.6875,399.351563L1098.242188,389.867188L1093.792969,380.382813L1086.964844,372.972656L1080.132813,365.5625L1069.683594,359.894531L1059.234375,354.230469L1024.136719,354.230469z"/>
    <path transform="matrix(-0.296428,0,0,-0.296428,-545.479614,-383.640289)" style="stroke:#000000;stroke-width:0.05mm;fill:none" d="M1329.351563,353.640625L1316.535156,354.230469L1294.472656,365.089844L1287.425781,372.738281L1280.378906,380.382813L1275.929688,389.867188L1271.484375,399.351563L1271.484375,686.8125L1275.964844,696.367188L1280.441406,705.921875L1288.03125,714.035156L1295.617188,722.144531L1304.816406,726.800781L1314.015625,731.453125L1322.832031,732.652344C1326.653809,733.202393,1330.515381,733.425781,1334.375,733.320313C1337.814941,733.176514,1341.240356,732.787537,1344.625,732.15625C1346.641968,731.791687,1348.650146,731.381592,1350.648438,730.925781L1357.945313,729.28125L1375.101563,718.296875L1380.785156,711.824219L1386.464844,705.347656L1390.8125,696.078125L1395.160156,686.8125L1395.621094,547.296875L1396.085938,407.777344L1392.734375,396.882813L1389.382813,385.984375L1383.078125,377.765625L1376.773438,369.550781L1360.5,358.386719L1351.332031,355.71875L1342.167969,353.054688L1329.351563,353.640625z"/>
    <path transform="matrix(-0.296428,0,0,-0.296428,-545.479614,-383.640289)" style="stroke:#000000;stroke-width:0.05mm;fill:none" d="M663.980469,637.507813L663.980469,732.769531L682.363281,732.769531L682.363281,637.507813L663.980469,637.507813z"/>
    <path transform="matrix(-0.296428,0,0,-0.296428,-545.479614,-383.640289)" style="stroke:#000000;stroke-width:0.05mm;fill:none" d="M811.109375,714.386719C810.131348,714.44165,809.1698,714.662292,808.265625,715.039063C807.218384,715.432983,806.225525,715.958679,805.3125,716.605469L802.277344,718.824219L802.277344,728.332031L805.3125,730.550781C805.99585,731.041931,806.729858,731.458801,807.503906,731.789063C808.489868,732.242432,809.533264,732.559265,810.605469,732.726563C810.819336,732.753418,811.034485,732.770081,811.25,732.769531L814.15625,732.769531L819.40625,727.519531L819.40625,720.5L816.640625,717.441406L813.875,714.386719L811.109375,714.386719z"/>
    <path transform="matrix(-0.296428,0,0,-0.296428,-545.479614,-383.640289)" style="stroke:#000000;stroke-width:0.05mm;fill:none" d="M845.078125,637.507813L836.167969,670.515625C833.168457,681.740051,830.096191,692.933777,826.945313,704.117188C826.793579,704.648254,826.633484,705.177124,826.464844,705.703125L825.664063,707.882813L845.054688,706.867188L849.125,685.558594C850.154419,680.051086,851.333252,674.572266,852.660156,669.128906C852.992249,667.706543,853.398376,666.30249,853.875,664.921875C853.935852,664.722412,854.02301,664.531311,854.140625,664.359375L854.210938,664.277344L854.273438,664.25L854.335938,664.277344L854.417969,664.363281C854.759033,664.866638,855.047302,665.403625,855.28125,665.964844C856.677002,669.147278,857.969421,672.374512,859.15625,675.640625C860.430908,679.072754,861.664673,682.516174,862.859375,685.976563L870.378906,707.703125L885.519531,707.703125L892.730469,685.851563L899.941406,664.003906L900.914063,664.976563C901.080505,665.255371,901.21167,665.553833,901.296875,665.867188C902.041809,668.285645,902.70459,670.728333,903.285156,673.191406C904.363403,677.583008,905.380005,681.986389,906.335938,686.40625L910.78125,706.867188L920.105469,707.363281L929.425781,707.859375L911.636719,638.34375L893.957031,638.34375L886.347656,660.476563C884.254517,666.638733,882.027344,672.755066,879.667969,678.820313C879.215393,680.030212,878.693726,681.213196,878.105469,682.363281L878.015625,682.503906L877.945313,682.589844L877.890625,682.621094L877.835938,682.589844C877.764343,682.528137,877.713562,682.446594,877.675781,682.359375C877.098511,681.189697,876.58728,679.988647,876.144531,678.761719C873.827026,672.57959,871.647339,666.348999,869.605469,660.070313L862.171875,637.507813L845.078125,637.507813z"/>
    <path transform="matrix(-0.296428,0,0,-0.296428,-545.479614,-383.640289)" style="stroke:#000000;stroke-width:0.05mm;fill:none" d="M481.753906,637.667969L472.6875,639.097656L468.476563,642.214844L464.261719,645.328125L462.015625,652.28125L459.765625,659.234375L462.015625,666.1875L464.261719,673.144531L468.441406,676.128906L472.617188,679.113281L486.628906,679.921875L500.636719,680.734375L503.851563,683.949219C503.468872,685.946716,503.047485,688.132202,502.660156,690.128906L497.699219,692.507813L492.734375,694.886719C487.617157,694.137085,482.526337,693.375366,477.414063,692.59375C474.026978,692.092346,470.649475,691.523132,467.285156,690.886719C467.113403,690.84845,466.941528,690.810608,466.769531,690.773438L464.261719,690.152344L463.753906,697.183594L463.242188,704.214844L468.765625,705.808594L474.289063,707.398438L488.132813,707.550781L501.972656,707.703125L507.351563,705.425781C508.578796,704.890869,509.763153,704.262512,510.894531,703.546875C512.411133,702.619507,513.836548,701.550781,515.152344,700.355469C515.412415,700.112976,515.661194,699.858643,515.898438,699.59375L519.066406,696.035156L519.84375,687.941406L520.621094,679.84375L517.910156,674.601563L515.203125,669.363281L511.457031,667.304688L507.714844,665.246094L494.519531,664.328125L481.320313,663.414063L479.476563,660.382813L477.632813,657.355469L481.8125,653.921875L485.988281,650.484375L497.167969,651.519531C501.218964,651.888367,505.24704,652.476318,509.234375,653.28125C510.384583,653.50116,511.517731,653.80249,512.625,654.183594L516.90625,655.808594L516.90625,641.046875L515.34375,640.082031C514.860291,639.861694,514.352905,639.698303,513.832031,639.59375C511.886505,639.14447,509.924072,638.771667,507.949219,638.476563C506.070831,638.179321,504.187469,637.91095,502.300781,637.671875L490.824219,636.234375L481.753906,637.667969z"/>
    <path transform="matrix(-0.296428,0,0,-0.296428,-545.479614,-383.640289)" style="stroke:#000000;stroke-width:0.05mm;fill:none" d="M532.207031,642.242188L529.496094,646.382813C528.608398,647.834778,527.875305,649.375732,527.308594,650.980469C526.819397,652.287354,526.416016,653.624756,526.101563,654.984375C526.009705,655.392212,525.928833,655.802551,525.859375,656.214844L524.9375,661.902344L527.46875,667.957031L530,674.015625L533.898438,676.507813L537.796875,678.996094L551.023438,679.894531L564.25,680.789063C566.135254,682.678955,567.608398,684.153076,569.496094,686.039063L567.714844,688.859375L565.933594,691.683594L560.222656,693.175781L554.511719,694.664063L544.484375,692.976563C540.779114,692.372803,537.100098,691.617004,533.457031,690.710938C532.805115,690.55011,532.162231,690.354675,531.53125,690.125L528.605469,688.960938L528.605469,704.261719L534.039063,705.832031L539.46875,707.398438L551.808594,707.550781L564.152344,707.703125L570.726563,705.730469L577.300781,703.761719C579.310791,701.200684,581.656494,698.219727,583.671875,695.664063L584.765625,689.824219L585.863281,683.980469L583.960938,677.640625L582.0625,671.304688L577.539063,668.335938L573.011719,665.371094L547.824219,663.832031C547.030334,663.220459,546.248779,662.59259,545.480469,661.949219C544.569519,661.210083,543.963928,660.159363,543.785156,659C543.676697,657.913635,543.911377,656.820679,544.457031,655.875C544.943909,655.000427,545.555664,654.201538,546.273438,653.503906L548.898438,650.878906L564.539063,650.917969L582.257813,655.636719L581.25,640.238281C579.490845,639.732056,577.731873,639.240601,575.964844,638.761719C574.367371,638.422974,572.751282,638.17926,571.125,638.03125C566.671936,637.591858,562.201172,637.355957,557.726563,637.324219L544.230469,637.21875L532.207031,642.242188z"/>
    <path transform="matrix(-0.296428,0,0,-0.296428,-545.479614,-383.640289)" style="stroke:#000000;stroke-width:0.05mm;fill:none" d="M774.28125,637.507813L774.28125,684.007813L769.140625,688.332031L764,692.660156L757.570313,692.660156L757.570313,707.703125L759.722656,707.703125C760.038757,707.688232,760.352539,707.639709,760.65625,707.550781C762.390137,707.050903,764.082581,706.417358,765.71875,705.65625C767.084839,705.027039,768.4375,704.370789,769.777344,703.6875C771.564636,702.783997,773.40094,701.980957,775.277344,701.28125C775.557922,701.17572,775.846313,701.092102,776.140625,701.035156C776.19635,701.026367,776.25238,701.019958,776.308594,701.015625L777.625,701.015625L777.625,707.703125L792.667969,707.703125L792.667969,637.507813L774.28125,637.507813z"/>
    <path transform="matrix(-0.296428,0,0,-0.296428,-545.479614,-383.640289)" style="stroke:#000000;stroke-width:0.05mm;fill:none" d="M802.828125,637.507813L802.34375,670.949219C802.175537,680.889404,802.128662,690.835815,802.203125,700.777344C802.200012,702.46106,802.257568,704.144531,802.375,705.824219C802.386475,705.898621,802.398926,705.973083,802.414063,706.046875L802.972656,707.703125L819.40625,707.703125L819.40625,637.507813L802.828125,637.507813z"/>
    <path transform="matrix(-0.296428,0,0,-0.296428,-545.479614,-383.640289)" style="stroke:#000000;stroke-width:0.05mm;fill:none" d="M698.339844,638.214844L692.390625,639.332031L692.390625,653.035156L703.828125,652.074219L715.265625,651.117188L729.945313,654.414063L732.894531,657.082031L735.84375,659.753906L735.84375,665.921875L690.71875,665.921875L690.71875,686.589844L694.304688,693.992188L697.886719,701.394531L704.75,704.511719L711.609375,707.628906L719.132813,707.65625C720.895508,707.648193,722.65686,707.552979,724.410156,707.371094C727.05957,707.130615,729.689392,706.708984,732.28125,706.109375L732.964844,705.929688L739.277344,704.175781L745.039063,699.117188L750.804688,694.054688L752.507813,687.925781L754.207031,681.796875L754.21875,671.613281L754.226563,661.433594L750.351563,654.066406L746.472656,646.699219L731.800781,638.542969L718.042969,637.820313L704.285156,637.101563L698.339844,638.214844z"/>
    <path transform="matrix(-0.296428,0,0,-0.296428,-545.479614,-383.640289)" style="stroke:#000000;stroke-width:0.05mm;fill:none" d="M613.839844,637.539063C609.819824,637.535217,605.801208,637.687622,601.792969,637.996094C600.437073,638.082031,599.087891,638.254028,597.753906,638.511719L597.546875,638.5625L593.785156,639.570313L593.785156,653.609375L604.230469,652.371094L614.675781,651.136719C616.525513,651.439026,618.38092,651.753723,620.226563,652.078125C623.330933,652.684509,626.385193,653.52417,629.363281,654.589844L634.023438,656.351563L635.632813,659.355469C636.285156,660.573853,636.782471,661.86908,637.113281,663.210938C637.190125,663.515076,637.231934,663.827026,637.238281,664.140625L637.238281,665.921875L590.441406,665.921875L590.453125,674.695313C590.490234,678.935059,590.888794,683.16394,591.644531,687.335938C591.781067,688.072937,591.947754,688.804077,592.144531,689.527344L593.828125,695.589844L598.230469,699.988281L602.628906,704.390625L607.816406,706L613.003906,707.613281L624.503906,706.902344L636,706.1875L642.207031,702.082031L648.414063,697.972656L654.109375,685.972656L655.066406,677.898438L656.023438,669.820313L650.617188,651.234375L644.808594,646.132813L639,641.035156L626.375,637.527344L613.839844,637.539063z"/>
    <path transform="matrix(-0.296428,0,0,-0.296428,-545.479614,-383.640289)" style="stroke:#000000;stroke-width:0.05mm;fill:none" d="M636.371094,683.050781C635.955383,684.301758,635.360779,685.485962,634.605469,686.566406C633.840942,687.733948,632.929932,688.798645,631.894531,689.734375L628.511719,692.660156L614.359375,692.660156L611.59375,689.605469L608.828125,686.546875L608.828125,679.289063L637.464844,679.289063L636.371094,683.050781z"/>
    <path transform="matrix(-0.296428,0,0,-0.296428,-545.479614,-383.640289)" style="stroke:#000000;stroke-width:0.05mm;fill:none" d="M735.84375,685.390625L731.976563,689.027344L728.109375,692.660156L714.636719,692.660156L711.871094,689.605469L709.101563,686.546875L709.101563,679.289063L735.84375,679.289063L735.84375,685.390625z"/>
    <path transform="matrix(-0.296428,0,0,-0.296428,-545.479614,-383.640289)" style="stroke:#000000;stroke-width:0.05mm;fill:none" d="M716.457031,604.082031C715.119263,605.424805,713.788452,606.755615,712.445313,608.09375L712.445313,616.785156C713.798523,618.133057,715.110046,619.44458,716.457031,620.796875L725.148438,620.796875C726.504395,619.435791,727.799316,618.140869,729.160156,616.785156L729.160156,608.09375C727.808105,606.746826,726.494629,605.43335,725.148438,604.082031L716.457031,604.082031z"/>
    <path transform="matrix(-0.296428,0,0,-0.296428,-545.479614,-383.640289)" style="stroke:#000000;stroke-width:0.05mm;fill:none" d="M892.941406,525.535156L892.941406,620.796875L911.328125,620.796875L911.328125,525.535156L892.941406,525.535156z"/>
    <path transform="matrix(-0.296428,0,0,-0.296428,-545.479614,-383.640289)" style="stroke:#000000;stroke-width:0.05mm;fill:none" d="M334.347656,525.832031L330.5625,526.371094L330.113281,570.632813C329.965576,582.74823,329.96167,594.857117,330.101563,606.972656C330.122589,609.99762,330.21637,613.022461,330.382813,616.042969C330.394775,616.410156,330.442932,616.775269,330.527344,617.132813L331.386719,619.371094L337.246094,618.246094L338.136719,525.292969L334.347656,525.832031z"/>
    <path transform="matrix(-0.296428,0,0,-0.296428,-545.479614,-383.640289)" style="stroke:#000000;stroke-width:0.05mm;fill:none" d="M573.773438,527.171875L566.292969,529.207031L560.9375,534.882813L555.585938,540.558594L553.585938,550.175781L551.582031,559.792969L553.34375,569.3125L555.109375,578.828125L562.382813,588.664063C565.480957,590.106689,568.124756,591.334229,571.222656,592.769531L591.277344,594.355469L598.382813,592.710938L605.484375,591.066406L605.484375,616.894531L606.65625,618.066406C607.040894,618.387451,607.499634,618.607178,607.992188,618.699219C608.789307,618.878906,609.614868,618.893005,610.417969,618.742188L613.003906,618.246094L613.453125,574.089844L613.898438,529.933594L611.179688,527.214844L596.214844,526.175781L581.25,525.132813L573.773438,527.171875z"/>
    <path transform="matrix(-0.296428,0,0,-0.296428,-545.479614,-383.640289)" style="stroke:#000000;stroke-width:0.05mm;fill:none" d="M1169.539063,354.230469L1159.796875,359.160156L1150.058594,364.089844L1141.136719,373.726563L1132.21875,383.359375L1124.414063,402.695313L1124.898438,477.066406L1124.921875,480.886719C1125.040039,501.586182,1125.287109,522.355591,1125.660156,543.050781C1125.720093,547.219604,1125.842651,551.389648,1126.027344,555.554688C1126.072876,556.301758,1126.164429,557.045349,1126.300781,557.78125C1126.603149,559.994324,1126.98877,562.194946,1127.457031,564.378906C1127.678589,565.423401,1128.008545,566.441956,1128.441406,567.417969C1128.645386,567.804321,1128.846069,568.192078,1129.042969,568.582031C1129.463135,569.553345,1129.821411,570.550293,1130.117188,571.566406C1130.411133,572.507385,1130.671631,573.458557,1130.898438,574.417969L1131.996094,579.015625L1133.636719,579.015625L1133.804688,579.023438C1133.964478,579.049438,1134.122559,579.084839,1134.273438,579.144531C1134.779297,579.356689,1135.1427,579.812012,1135.242188,580.351563C1135.26001,580.569885,1135.285889,580.787598,1135.320313,581.003906C1135.49939,581.575378,1135.756592,582.119507,1136.089844,582.617188C1136.924927,583.903381,1137.846313,585.13147,1138.847656,586.292969C1141.996582,590.020081,1145.454102,593.474976,1149.183594,596.621094C1150.096191,597.395264,1151.076294,598.086243,1152.113281,598.683594C1152.515381,598.937988,1152.981201,599.074524,1153.457031,599.074219L1153.664063,599.097656C1153.795776,599.119019,1153.925781,599.149353,1154.054688,599.183594C1154.459961,599.280029,1154.82251,599.511047,1155.078125,599.839844C1155.137451,599.923767,1155.196411,600.007629,1155.238281,600.101563C1155.27478,600.193787,1155.303345,600.289001,1155.320313,600.386719L1155.332031,600.539063L1155.359375,600.722656C1155.415283,600.86554,1155.484741,601.00293,1155.578125,601.125L1155.757813,601.339844C1156.341431,601.901367,1157.001587,602.377502,1157.71875,602.753906C1159.035278,603.487061,1160.407837,604.114563,1161.824219,604.628906C1163.278687,605.185974,1164.775757,605.624939,1166.300781,605.941406C1167.191284,606.141174,1168.10376,606.226318,1169.015625,606.191406L1172.042969,605.960938L1172.042969,608.886719L1177.476563,609.613281C1179.053467,609.792664,1180.639404,609.882019,1182.226563,609.882813C1185.799072,609.922546,1189.371704,609.802734,1192.933594,609.523438L1202.964844,608.703125L1209.648438,606.144531C1211.441284,605.415283,1213.184814,604.57019,1214.867188,603.613281C1218.383667,601.679321,1221.774536,599.525391,1225.019531,597.164063L1233.703125,590.738281L1238.667969,583.523438L1243.632813,576.304688L1249.757813,558.125L1249.757813,402.695313L1241.953125,383.359375L1233.035156,373.726563L1224.113281,364.089844L1214.375,359.160156L1204.632813,354.230469L1169.539063,354.230469z"/>
    <path transform="matrix(-0.296428,0,0,-0.296428,-545.479614,-383.640289)" style="stroke:#000000;stroke-width:0.05mm;fill:none" d="M712.445313,525.535156L712.445313,595.726563L729.160156,595.726563L729.160156,525.535156L712.445313,525.535156z"/>
    <path transform="matrix(-0.296428,0,0,-0.296428,-545.479614,-383.640289)" style="stroke:#000000;stroke-width:0.05mm;fill:none" d="M775.953125,501.316406L760.078125,501.332031L753.488281,504.773438L746.894531,508.214844L743.460938,512.816406L740.023438,517.414063L740.023438,593.21875L745.871094,594.253906C747.980469,594.565735,750.102112,594.785889,752.230469,594.914063C756.845093,595.237305,761.468323,595.435303,766.09375,595.507813L780.46875,595.726563L786.148438,593.824219C788.065247,593.138,789.926208,592.304688,791.714844,591.332031C793.383423,590.45874,794.997131,589.484192,796.546875,588.414063L797.113281,588.003906L802.394531,584.085938L805.277344,576.542969L808.15625,568.996094L807.332031,557.453125L806.503906,545.90625L799.582031,534.726563L788.488281,528.039063L757.570313,528.039063L757.570313,526.660156C757.601379,526.431641,757.68103,526.212708,757.800781,526.015625C758.393494,525.034607,759.072876,524.108704,759.832031,523.25C760.743347,522.179626,761.697083,521.145996,762.691406,520.152344L767.816406,515.03125L784.417969,515.945313L801.023438,516.863281L801.023438,503.871094L796.425781,502.585938L791.832031,501.300781L775.953125,501.316406z"/>
    <path transform="matrix(-0.296428,0,0,-0.296428,-545.479614,-383.640289)" style="stroke:#000000;stroke-width:0.05mm;fill:none" d="M658.441406,526.160156C655.28595,526.46759,652.14801,526.933105,649.039063,527.554688C648.414795,527.666565,647.803711,527.842529,647.214844,528.078125L647.125,528.128906L645.59375,529.074219L645.59375,541.648438L659.554688,540.914063L673.515625,540.183594L678.929688,545.023438L684.347656,549.863281L686.847656,563.542969L685.023438,569.03125L683.199219,574.523438L678.507813,578.003906L673.8125,581.480469L645.59375,580.871094L645.59375,593.808594L648.519531,594.574219C649.631836,594.786926,650.75647,594.929016,651.886719,595C655.980347,595.305115,660.082825,595.482239,664.1875,595.53125L676.929688,595.726563L691.460938,590.601563L695.484375,586.894531C696.798706,585.622986,697.975281,584.216553,698.996094,582.699219C700.088074,581.166321,701.026001,579.529419,701.796875,577.8125L704.089844,572.4375L704.089844,553.496094L702.136719,546.976563L700.179688,540.453125L687.703125,529.179688L677.964844,527.160156L668.226563,525.136719L658.441406,526.160156z"/>
    <path transform="matrix(-0.296428,0,0,-0.296428,-545.479614,-383.640289)" style="stroke:#000000;stroke-width:0.05mm;fill:none" d="M848.460938,525.570313L838.625,525.605469L831.808594,528.703125L824.992188,531.796875L821.371094,536.40625L817.746094,541.011719L815.882813,547.894531L814.019531,554.78125L814.835938,565.046875L815.652344,575.316406L823.332031,588.980469L836.957031,595.722656L850.324219,595.699219L863.695313,595.671875L870.234375,591.9375L876.769531,588.207031L880.207031,581.554688L883.640625,574.902344L884.285156,564.816406L884.925781,554.726563L883.015625,547.628906L881.101563,540.53125L871.375,529.453125L864.835938,527.492188L858.292969,525.535156L848.460938,525.570313z"/>
    <path transform="matrix(-0.296428,0,0,-0.296428,-545.479614,-383.640289)" style="stroke:#000000;stroke-width:0.05mm;fill:none" d="M194.15625,525.535156C194.597412,526.265747,195.053467,527.019775,195.496094,527.75C197.126511,530.039612,198.808273,532.293213,200.539063,534.507813C203.973511,538.966797,207.407349,543.382324,210.882813,547.808594C213.43689,551.075867,215.909119,554.406494,218.296875,557.796875C218.692093,558.338684,219.04837,558.907898,219.363281,559.5C219.441177,559.607788,219.439545,559.75415,219.363281,559.863281C218.879425,560.720093,218.344635,561.547058,217.761719,562.339844C214.613739,566.737488,211.36203,571.058289,208.007813,575.300781C204.093292,580.262146,200.251312,585.285767,196.488281,590.363281C196.096436,590.882446,195.725204,591.416748,195.375,591.964844L194.15625,594.054688L202.496094,594.054688C206.260498,589.159424,210.103271,584.194824,213.898438,579.324219C216.270828,576.263123,218.742447,573.279419,221.308594,570.378906C222.11055,569.449524,222.966171,568.567749,223.871094,567.738281C224.043472,567.574219,224.239319,567.436462,224.453125,567.332031L224.539063,567.316406C224.721848,567.360474,224.888733,567.454773,225.019531,567.589844C225.869766,568.331604,226.668503,569.130188,227.410156,569.980469C230.105927,573.00415,232.696228,576.12085,235.175781,579.324219L236.238281,580.683594L246.578125,594.054688C248.167892,594.074097,249.758026,594.07019,251.347656,594.042969C252.254471,594.03833,253.1577,593.928223,254.039063,593.714844C254.212051,593.683472,254.371368,593.600464,254.496094,593.476563L254.519531,593.410156C254.426331,593.184387,254.303696,592.972046,254.15625,592.777344C252.181854,589.92218,250.142456,587.113159,248.039063,584.351563L247.535156,583.675781L247.015625,582.988281C242.904297,577.602051,238.78125,572.161377,234.707031,566.746094C233.286469,564.889587,231.90564,563.002014,230.566406,561.085938L229.449219,559.277344C234.515137,552.826904,239.470215,546.484619,244.503906,540.007813C247.501389,536.166992,250.426071,532.270874,253.277344,528.320313C253.729507,527.722046,254.139282,527.092834,254.503906,526.4375L254.519531,526.371094L254.496094,526.285156C254.324692,526.089661,254.093689,525.958008,253.839844,525.902344C253.026062,525.686523,252.189392,525.568237,251.347656,525.550781L250.550781,525.535156L246.578125,525.535156L236.238281,538.902344C233.535965,542.435913,230.71138,545.874146,227.769531,549.210938C226.965042,550.139282,226.108185,551.020935,225.203125,551.851563C225.028946,552.013306,224.832596,552.149292,224.621094,552.257813C224.56636,552.27533,224.50853,552.271851,224.453125,552.257813C223.985428,551.974609,223.561768,551.624512,223.195313,551.21875C221.519745,549.487732,219.916901,547.68811,218.390625,545.824219C216.497452,543.551208,214.647202,541.243958,212.839844,538.902344L202.496094,525.535156L194.15625,525.535156z"/>
    <path transform="matrix(-0.296428,0,0,-0.296428,-545.479614,-383.640289)" style="stroke:#000000;stroke-width:0.05mm;fill:none" d="M279.9375,529.363281L267.890625,533.554688L267.890625,525.535156L262.875,525.535156L262.875,594.054688L269.558594,594.054688L269.558594,540.386719L277.5,536.757813L285.4375,533.128906L294.035156,533.09375L302.632813,533.054688L306.144531,536.230469L309.652344,539.40625L312.996094,551.4375L313.011719,594.054688L319.699219,594.054688L319.699219,543.808594L317.421875,538.433594C316.885651,537.20575,316.257568,536.020142,315.542969,534.886719C314.617584,533.369995,313.548828,531.945557,312.351563,530.632813C312.108093,530.373718,311.853821,530.124939,311.589844,529.886719L308.03125,526.71875L300.007813,525.945313L291.984375,525.175781L279.9375,529.363281z"/>
    <path transform="matrix(-0.296428,0,0,-0.296428,-545.479614,-383.640289)" style="stroke:#000000;stroke-width:0.05mm;fill:none" d="M466.769531,579.203125L458.832031,582.742188L450.890625,586.28125L442.535156,586.992188L434.179688,587.699219L429.625,584.101563L425.070313,580.507813L424.609375,553.4375L424.152344,526.371094L420.390625,525.835938L416.632813,525.300781L416.632813,577.449219L419.074219,583.300781L421.519531,589.152344L427.015625,591.539063L432.507813,593.925781L439.195313,593.945313L445.878906,593.96875L468.441406,586.28125L468.441406,594.054688L475.195313,594.054688L474.742188,560.210938L474.289063,526.371094L470.53125,525.835938L466.769531,525.300781L466.769531,579.203125z"/>
    <path transform="matrix(-0.296428,0,0,-0.296428,-545.479614,-383.640289)" style="stroke:#000000;stroke-width:0.05mm;fill:none" d="M371.980469,525.550781C367.143005,525.566956,362.310242,525.849915,357.503906,526.398438C357.016937,526.458252,356.531281,526.527405,356.046875,526.605469L349.78125,527.640625L349.78125,533.054688L382.371094,533.054688L393.496094,539.125L396.671875,546.117188C397.675171,548.300232,398.557983,550.536743,399.316406,552.816406C399.555634,553.498169,399.738434,554.198486,399.863281,554.910156C399.875031,554.99176,399.882996,555.073914,399.882813,555.15625L399.917969,557.199219L374.433594,557.660156L348.945313,558.125L348.417969,565.53125L347.886719,572.9375L350.59375,580.019531L353.296875,587.097656C354.673859,588.010986,356.049896,588.911865,357.4375,589.808594C359.411865,591.036682,361.51239,592.049011,363.703125,592.828125C364.614624,593.088074,365.553162,593.241394,366.5,593.285156C369.511139,593.488586,372.531158,593.531677,375.546875,593.414063L377.699219,593.324219L388.066406,592.78125L393.574219,589.621094L399.082031,586.457031L406.605469,571.621094L406.59375,561.53125L406.585938,551.4375L404.933594,545.492188L403.28125,539.550781L398.675781,535.136719C396.879364,533.506104,394.931885,532.050354,392.859375,530.789063C391.263275,529.773376,389.59021,528.88385,387.855469,528.128906L381.640625,525.535156L371.980469,525.550781z"/>
    <path transform="matrix(-0.296428,0,0,-0.296428,-545.479614,-383.640289)" style="stroke:#000000;stroke-width:0.05mm;fill:none" d="M504.636719,525.625C501.071442,525.672852,497.513123,525.953369,493.984375,526.464844C491.596344,526.839661,489.206848,527.232056,486.824219,527.640625L486.824219,533.054688L519.414063,533.054688L524.832031,536.015625C527.033386,537.17926,529.026245,538.700195,530.730469,540.515625C532.500366,542.464905,533.87323,544.740601,534.773438,547.214844C535.331421,548.710449,535.770203,550.247742,536.085938,551.8125L537.207031,557.199219L511.597656,557.660156L485.988281,558.125L484.964844,570.4375L486.734375,577.007813L488.503906,583.582031L492.808594,587.882813L497.109375,592.183594L500.742188,592.992188C501.999817,593.205505,503.271545,593.325806,504.546875,593.351563C507.944458,593.481445,511.346405,593.460571,514.742188,593.289063L525.109375,592.78125L530.617188,589.566406L536.125,586.347656L539.859375,579.757813L543.59375,573.164063L543.621094,560.996094L543.648438,548.824219L541.367188,543.367188L539.089844,537.910156L528.503906,529.003906L522.289063,527.277344C519.971497,526.677734,517.609924,526.263672,515.226563,526.039063C511.708282,525.687134,508.171814,525.54895,504.636719,525.625z"/>
    <path transform="matrix(-0.296428,0,0,-0.296428,-545.479614,-383.640289)" style="stroke:#000000;stroke-width:0.05mm;fill:none" d="M586.265625,532.238281C590.602356,532.294556,594.929993,532.646851,599.21875,533.292969L605.484375,534.328125L605.484375,583.664063C604.066589,584.032043,602.642883,584.387939,601.21875,584.730469C598.977722,585.183044,596.71936,585.545288,594.449219,585.816406C592.537842,586.07019,590.622009,586.291565,588.703125,586.480469L579.582031,587.371094L567.996094,583.191406L564.179688,577.511719L560.359375,571.835938L560.359375,549.425781L564.152344,543.746094L567.949219,538.066406L579.582031,532.222656L586.265625,532.238281z"/>
    <path transform="matrix(-0.296428,0,0,-0.296428,-545.479614,-383.640289)" style="stroke:#000000;stroke-width:0.05mm;fill:none" d="M398.882813,570.238281C398.44516,572.220398,397.82666,574.158203,397.035156,576.027344C395.983612,578.462402,394.3172,580.583008,392.199219,582.179688C391.293121,582.876831,390.347534,583.521179,389.367188,584.109375L384.042969,587.359375L376.519531,587.296875L369,587.238281L364.445313,584.765625C362.843475,583.927429,361.386078,582.838257,360.128906,581.539063C358.518005,579.816284,357.411194,577.683899,356.929688,575.375C356.60788,573.861267,356.451813,572.317017,356.464844,570.769531L356.464844,565.644531L399.984375,565.644531L398.882813,570.238281z"/>
    <path transform="matrix(-0.296428,0,0,-0.296428,-545.479614,-383.640289)" style="stroke:#000000;stroke-width:0.05mm;fill:none" d="M536.960938,567.367188C536.919617,567.88269,536.823242,568.392212,536.671875,568.886719C536.089111,570.916504,535.381958,572.908508,534.554688,574.851563L532.148438,580.613281L526.617188,583.984375L521.085938,587.359375L513.566406,587.304688L506.042969,587.253906L502.050781,585.039063C499.829407,583.769592,497.948059,581.981567,496.566406,579.828125C494.679443,576.979797,493.639862,573.654236,493.570313,570.238281L493.511719,565.644531L536.960938,565.644531L536.960938,567.367188z"/>
    <path transform="matrix(-0.296428,0,0,-0.296428,-545.479614,-383.640289)" style="stroke:#000000;stroke-width:0.05mm;fill:none" d="M862.589844,543.632813L864.359375,546.9375C864.907654,548.084839,865.345886,549.281555,865.667969,550.511719C866.240234,552.536865,866.664612,554.60083,866.9375,556.6875L867.75,563.136719L866.101563,569.316406L864.449219,575.492188L860.085938,578.925781L855.722656,582.355469L842.992188,582.355469L838.367188,578.378906L833.746094,574.402344L833.089844,562.832031L832.4375,551.261719L841.109375,540.957031L846.550781,540.125L851.996094,539.289063L862.589844,543.632813z"/>
    <path transform="matrix(-0.296428,0,0,-0.296428,-545.479614,-383.640289)" style="stroke:#000000;stroke-width:0.05mm;fill:none" d="M784.207031,545.171875L787.816406,548.09375L789.355469,554.78125L790.890625,561.464844C790.540833,562.83844,790.170776,564.207458,789.78125,565.570313C789.070251,567.941528,788.275391,570.28656,787.398438,572.601563L785.695313,577.054688C783.793518,577.790039,781.885742,578.504517,779.96875,579.199219C777.677429,580.022888,775.316284,580.637512,772.914063,581.035156C769.763855,581.550598,766.545837,581.488586,763.417969,580.851563L758.40625,579.824219L757.929688,562.890625L757.457031,545.957031L762.777344,544.101563C764.602173,543.509338,766.473267,543.070313,768.371094,542.789063C770.127869,542.49176,771.902771,542.314209,773.683594,542.257813L774.347656,542.246094L780.597656,542.246094L784.207031,545.171875z"/>
    <path transform="matrix(-0.296428,0,0,-0.296428,-545.479614,-383.640289)" style="stroke:#000000;stroke-width:0.05mm;fill:none" d="M880.410156,354.230469L872.171875,358.40625L863.933594,362.585938L846.832031,378.171875L842.371094,387.285156L837.90625,396.398438L834.984375,415.046875L836.234375,424.261719L837.484375,433.480469L841.683594,442.648438L845.878906,451.820313L860.894531,466.835938L869.390625,471.140625C873.442993,473.164917,877.62854,474.911133,881.917969,476.367188C882.657715,476.613464,883.405579,476.834961,884.160156,477.03125L890.4375,478.613281L902.792969,477.953125L915.152344,477.289063L925.644531,472.125L936.132813,466.957031L944.503906,457.800781L952.871094,448.644531L956.257813,439.597656C958.17749,434.27536,959.630737,428.7966,960.601563,423.222656C960.651123,422.929413,960.694031,422.63501,960.730469,422.339844L961.820313,414.128906L959.777344,404.234375L957.730469,394.339844L953.644531,386.253906L949.5625,378.167969L934.546875,363.152344L925.023438,358.691406L915.503906,354.230469L880.410156,354.230469z"/>
</svg>
