<?xml version="1.0" encoding="UTF-8"?>
<svg xmlns="http://www.w3.org/2000/svg" width="930.353mm" height="305.401mm" viewBox="-1599.176392 -1496.700439 930.352783 305.401123">
    <path transform="matrix(-1,0,0,-1,0,0)" style="stroke:none;fill:#000000;fill-rule:evenodd" d="M1275.981079,1226.841064C1276.286499,1226.857666,1276.590332,1226.895386,1276.891235,1226.950439C1277.272095,1227.020752,1277.643066,1227.136475,1277.996704,1227.294189C1278.202393,1227.390381,1278.39624,1227.509766,1278.574829,1227.649658C1278.828857,1227.852051,1279.048584,1228.093262,1279.227173,1228.364502C1279.409546,1228.658813,1279.548584,1228.977417,1279.645142,1229.309814C1279.832764,1230.037842,1279.914307,1230.78894,1279.891235,1231.540283C1279.81665,1234.9198,1279.81665,1238.30127,1279.891235,1241.680908C1280.042603,1248.397949,1280.556396,1255.101563,1281.430298,1261.762939C1281.730469,1264.006104,1282.078125,1266.241699,1282.473267,1268.469971L1283.28186,1273.059814C1283.333008,1273.397949,1283.407593,1273.731934,1283.504517,1274.059814C1283.591064,1274.292969,1283.691406,1274.52063,1283.809204,1274.739502C1284.165894,1275.536377,1284.484009,1276.349731,1284.762329,1277.177002C1285.457886,1279.181641,1286.113159,1281.200684,1286.727173,1283.231689C1287.845581,1286.891602,1288.932373,1290.557861,1289.988892,1294.235596C1290.762451,1296.937744,1291.60498,1299.619751,1292.516235,1302.278564C1293.091309,1303.947021,1293.745605,1305.586914,1294.477173,1307.192627C1295.040527,1308.416504,1295.682495,1309.602539,1296.399048,1310.743408C1297.28125,1312.12439,1298.278198,1313.428589,1299.379517,1314.641846C1300.644287,1316.022217,1301.977661,1317.338013,1303.37561,1318.583252C1305.156738,1320.170898,1306.967407,1321.726074,1308.805298,1323.247314C1309.986572,1324.241455,1311.177246,1325.22998,1312.371704,1326.208252C1315.657715,1328.91626,1319.098511,1331.430908,1322.676392,1333.739502C1325.02356,1335.243042,1327.441772,1336.632324,1329.922485,1337.903564C1332.408813,1339.168213,1334.966553,1340.287231,1337.582642,1341.255127C1341.813477,1342.807129,1346.19165,1343.92334,1350.649048,1344.587158C1353.904297,1345.069092,1357.184326,1345.36377,1360.473267,1345.469971C1364.299805,1345.631592,1368.131836,1345.623779,1371.957642,1345.446533C1374.377808,1345.330078,1376.792236,1345.118652,1379.195923,1344.813721C1380.44751,1344.655029,1381.695068,1344.467529,1382.93811,1344.251221L1384.828735,1343.895752L1386.731079,1343.485596L1388.645142,1343.020752L1390.56311,1342.497314L1392.484985,1341.911377C1397.522095,1340.312988,1402.330566,1338.067871,1406.789673,1335.231689C1410.729736,1332.709229,1414.362427,1329.736084,1417.613892,1326.372314C1421.563354,1322.197754,1425.453613,1317.962402,1429.277954,1313.673096C1431.248169,1311.465332,1433.157715,1309.204102,1435.004517,1306.891846C1436.366211,1305.186768,1437.635132,1303.409546,1438.805298,1301.567627C1439.752808,1300.064697,1440.585449,1298.492432,1441.297485,1296.864502C1441.813354,1295.679688,1442.274048,1294.471436,1442.676392,1293.243408C1443.202881,1291.637207,1443.690063,1290.018066,1444.137329,1288.387939C1444.782959,1286.033813,1445.44397,1283.679199,1446.117798,1281.333252C1447.163452,1277.690186,1448.282227,1274.068237,1449.473267,1270.469971C1449.98291,1268.92334,1450.425903,1267.355469,1450.801392,1265.770752C1451.411377,1263.164307,1451.885864,1260.527954,1452.223267,1257.872314C1452.647949,1254.430908,1452.930542,1250.973755,1453.070923,1247.509033C1453.164551,1245.068359,1453.243774,1242.638306,1453.309204,1240.196533C1453.337646,1238.987915,1453.401245,1237.780396,1453.50061,1236.575439C1453.546265,1235.943604,1453.635132,1235.315552,1453.770142,1234.696533C1453.815063,1234.480713,1453.880005,1234.269287,1453.96936,1234.067627C1454.016235,1233.964111,1454.071655,1233.864746,1454.129517,1233.766846L1454.21936,1233.657471C1454.28125,1233.60144,1454.349976,1233.554199,1454.422485,1233.512939C1454.573364,1233.455688,1454.729614,1233.414795,1454.887329,1233.380127C1455.533081,1233.269531,1456.185669,1233.202515,1456.840454,1233.180908C1458.821411,1233.103027,1460.804321,1233.095215,1462.785767,1233.157471C1466.915894,1233.275024,1471.041626,1233.467651,1475.164673,1233.735596C1483.015625,1234.235352,1490.865845,1234.84375,1498.699829,1235.559814C1507.284302,1236.338379,1515.882935,1237.179688,1524.453735,1238.079346C1528.828247,1238.530518,1533.19519,1239.057861,1537.551392,1239.661377C1539.841919,1239.974365,1542.123169,1240.35498,1544.391235,1240.802002C1545.975952,1241.110107,1547.542114,1241.506958,1549.082642,1241.989502C1549.877686,1242.24707,1550.656616,1242.551758,1551.414673,1242.903564C1552.120972,1243.234741,1552.795166,1243.630371,1553.430298,1244.083252C1554.021851,1244.551758,1554.635986,1244.990723,1555.270142,1245.399658C1556.017212,1245.869385,1556.799561,1246.281006,1557.609985,1246.630127C1558.173584,1246.873535,1558.748657,1247.089355,1559.332642,1247.278564C1560.598022,1247.685669,1561.895752,1247.984741,1563.211548,1248.173096C1564.310913,1248.338379,1565.417725,1248.449219,1566.527954,1248.505127C1567.580566,1248.554443,1568.634399,1248.574951,1569.68811,1248.567627C1571.129272,1248.563354,1572.569824,1248.629639,1574.004517,1248.766846C1574.925903,1248.851807,1575.838013,1249.016846,1576.731079,1249.259033C1577.69104,1249.516602,1578.593872,1249.952148,1579.395142,1250.540283L1579.676392,1250.759033L1579.945923,1250.993408C1580.612549,1251.614746,1581.203857,1252.312256,1581.707642,1253.071533C1583.312256,1255.519653,1585.050781,1257.877319,1586.914673,1260.134033C1587.401367,1260.713135,1587.903931,1261.278564,1588.422485,1261.829346C1589.566895,1263.129395,1590.610474,1264.514893,1591.543579,1265.973877C1592.883911,1268.048706,1594.050049,1270.230835,1595.03186,1272.497314C1596.689697,1276.265869,1597.866943,1280.228027,1598.535767,1284.290283C1598.78186,1285.83252,1598.943237,1287.386963,1599.020142,1288.946533C1599.102539,1290.110474,1599.154541,1291.276123,1599.176392,1292.442627C1599.189941,1293.142578,1599.169434,1293.842529,1599.113892,1294.540283C1599.076904,1294.939697,1599.021729,1295.337158,1598.949829,1295.731689C1598.880981,1296.088135,1598.786987,1296.439331,1598.668579,1296.782471L1598.477173,1297.259033C1598.335693,1297.563477,1598.17334,1297.857666,1597.988892,1298.137939L1597.684204,1298.544189L1597.336548,1298.927002C1597.077271,1299.189209,1596.797852,1299.43042,1596.504517,1299.653564C1595.98999,1300.034546,1595.445068,1300.372681,1594.87561,1300.665283C1594.049316,1301.093506,1593.202026,1301.479492,1592.336548,1301.821533C1590.681763,1302.475586,1589.009277,1303.083984,1587.320923,1303.645752C1586.189819,1304.023438,1585.060059,1304.40918,1583.934204,1304.802002C1583.075928,1305.100708,1582.225342,1305.420898,1581.383423,1305.762939C1580.558228,1306.093384,1579.761108,1306.490234,1579.00061,1306.950439C1578.501831,1307.258545,1578.038696,1307.620605,1577.617798,1308.028564C1577.217773,1308.421753,1576.870728,1308.865479,1576.586548,1309.348877C1576.189087,1310.031128,1575.86853,1310.755371,1575.633423,1311.509033C1575.262939,1312.707764,1574.958008,1313.925781,1574.71936,1315.157471C1573.833008,1319.566162,1573.103271,1324.005615,1572.53186,1328.466064C1572.445557,1329.18335,1572.374023,1329.902344,1572.317017,1330.622314L1572.254517,1331.196533L1572.137329,1331.794189C1572.032593,1332.218872,1571.905762,1332.637695,1571.754517,1333.048096C1571.483521,1333.744385,1571.167114,1334.421875,1570.805298,1335.075439C1570.387573,1335.823608,1569.93103,1336.549316,1569.434204,1337.247314C1568.466675,1338.607178,1567.41394,1339.904053,1566.28186,1341.130127C1564.67688,1342.86792,1562.979248,1344.517578,1561.195923,1346.071533C1558.801025,1348.162598,1556.303101,1350.132324,1553.711548,1351.973877C1552.513672,1352.831787,1551.298706,1353.665283,1550.067017,1354.473877C1549.13501,1355.066162,1548.210327,1355.670654,1547.293579,1356.286377C1545.963867,1357.173584,1544.682007,1358.130493,1543.453735,1359.153564C1542.444702,1359.994263,1541.505127,1360.915039,1540.645142,1361.907471C1540.054443,1362.596191,1539.534302,1363.342529,1539.098267,1364.137939C1538.868774,1364.562012,1538.675781,1365.004639,1538.524048,1365.462158C1538.231079,1366.30603,1538.109131,1367.199585,1538.164673,1368.091064C1538.192871,1368.536499,1538.266846,1368.977783,1538.387329,1369.407471C1538.557617,1370.022705,1538.797363,1370.616333,1539.102173,1371.177002C1539.64917,1372.157959,1540.316406,1373.06665,1541.086548,1373.884033C1541.864014,1374.715332,1542.696411,1375.493408,1543.578735,1376.212158C1544.862793,1377.254761,1546.202148,1378.227173,1547.590454,1379.126221C1549.895996,1380.61792,1552.266846,1382.005859,1554.695923,1383.286377C1555.750488,1383.851074,1556.812012,1384.40332,1557.879517,1384.942627C1561.954346,1386.955933,1565.988647,1389.053223,1569.977173,1391.231689C1571.912231,1392.276611,1573.820557,1393.37085,1575.699829,1394.512939C1576.199829,1394.815796,1576.686768,1395.139648,1577.160767,1395.481689C1578.013062,1396.145264,1578.801514,1396.887207,1579.512329,1397.700439C1581.143799,1399.544678,1582.488159,1401.624023,1583.50061,1403.868408C1583.925049,1404.799072,1584.250732,1405.771606,1584.46936,1406.770752C1584.581787,1407.288818,1584.624878,1407.81958,1584.598267,1408.348877C1584.576538,1408.563721,1584.537231,1408.776123,1584.484985,1408.985596L1584.379517,1409.259033L1584.242798,1409.501221L1584.070923,1409.704346L1584.020142,1409.743408C1583.955444,1409.769287,1583.890869,1409.795288,1583.824829,1409.817627C1583.72168,1409.846436,1583.61731,1409.870728,1583.512329,1409.891846C1582.599976,1410.045166,1581.68103,1410.155396,1580.758423,1410.223877C1577.830078,1410.456665,1574.896362,1410.636475,1571.961548,1410.762939C1564.421143,1411.099121,1556.878662,1411.358154,1549.332642,1411.540283C1535.630005,1411.904663,1521.907837,1412.110474,1508.199829,1412.157471C1503.359131,1412.178223,1498.519775,1412.136597,1493.680298,1412.032471C1492.070801,1412.001221,1490.462402,1411.932373,1488.856079,1411.825439C1488.188477,1411.779907,1487.522705,1411.711182,1486.859985,1411.618408C1485.011841,1411.435547,1483.154297,1411.362915,1481.297485,1411.399658C1478.190918,1411.453369,1475.087646,1411.638428,1471.996704,1411.954346C1467.058838,1412.434082,1462.146973,1413.151123,1457.277954,1414.102783C1455.397217,1414.472656,1453.52771,1414.89856,1451.672485,1415.380127C1450.357788,1415.719482,1449.059448,1416.119629,1447.78186,1416.579346C1446.976318,1416.861694,1446.195923,1417.211548,1445.449829,1417.626221C1445.183105,1417.775391,1444.93335,1417.952637,1444.699829,1418.149658C1442.98938,1419.606689,1441.033569,1420.747803,1438.922485,1421.516846C1438.317627,1421.730713,1437.692139,1421.880737,1437.055298,1421.958252C1436.692871,1421.968384,1436.330688,1421.987305,1435.96936,1422.016846C1435.168579,1422.118652,1434.378296,1422.289673,1433.606079,1422.524658C1432.218262,1422.942383,1430.848511,1423.417969,1429.50061,1423.950439C1427.13562,1424.879272,1424.789185,1425.853271,1422.461548,1426.872314C1417.835327,1428.89209,1413.232666,1430.948853,1408.641235,1433.048096C1402.942871,1435.650391,1397.446777,1438.174805,1391.758423,1440.802002C1388.427002,1442.293701,1385.061523,1443.708252,1381.664673,1445.044189C1376.222046,1447.207275,1370.725952,1449.231201,1365.180298,1451.114502C1363.408203,1451.70874,1361.629395,1452.282959,1359.84436,1452.837158C1355.855957,1454.101074,1351.898438,1455.463623,1347.977173,1456.923096C1346.597534,1457.431519,1345.23584,1457.987671,1343.895142,1458.591064C1343.58313,1458.736084,1343.278198,1458.895508,1342.984985,1459.075439L1342.723267,1459.259033C1342.274048,1459.523438,1341.806519,1459.755371,1341.324829,1459.954346C1339.621826,1460.681152,1337.900024,1461.362305,1336.160767,1461.997314C1331.634888,1463.664551,1327.080811,1465.247803,1322.496704,1466.747314C1320.073975,1467.523926,1317.657593,1468.324951,1315.25061,1469.149658C1312.854004,1469.963623,1310.479248,1470.841553,1308.129517,1471.782471C1306.656006,1472.370605,1305.209229,1473.02356,1303.793579,1473.739502C1302.932617,1474.174316,1302.102417,1474.66748,1301.309204,1475.216064C1300.834961,1475.5448,1300.392578,1475.917236,1299.988892,1476.329346C1299.825439,1476.500854,1299.670898,1476.680542,1299.53186,1476.872314C1299.300049,1477.199707,1299.122192,1477.562012,1299.008423,1477.946533C1298.773071,1478.87793,1298.491699,1479.797119,1298.164673,1480.700439C1298.049438,1481.037109,1297.90625,1481.363647,1297.731079,1481.673096L1297.664673,1481.766846L1297.609985,1481.829346C1297.412231,1481.871582,1297.212524,1481.902832,1297.012329,1481.930908C1293.452026,1482.526855,1289.865356,1483.143311,1286.309204,1483.770752C1280.78418,1484.751709,1275.412964,1485.69165,1269.883423,1486.645752C1255.627686,1489.053467,1241.305054,1491.031982,1226.930298,1492.579346C1212.662476,1494.124878,1198.350708,1495.24646,1184.016235,1495.942627C1173.326782,1496.466309,1162.628662,1496.718994,1151.926392,1496.700439C1145.406982,1496.685791,1138.88623,1496.549072,1132.371704,1496.290283C1126.417969,1496.057861,1120.470947,1495.703613,1114.53186,1495.227783C1111.028076,1494.950684,1107.53418,1494.561035,1104.055298,1494.059814C1102.041504,1493.768311,1100.041992,1493.385254,1098.06311,1492.911377C1096.551758,1492.549072,1095.069702,1492.07373,1093.629517,1491.489502C1092.731567,1491.118408,1091.871826,1490.660889,1091.06311,1490.122314C1090.71582,1489.887695,1090.383789,1489.631104,1090.067017,1489.356689C1089.774414,1489.099121,1089.498779,1488.822754,1089.242798,1488.528564C1089.004639,1488.245605,1088.784912,1487.947754,1088.582642,1487.637939C1088.383789,1487.371338,1088.162231,1487.122559,1087.922485,1486.891846C1086.978394,1486.014648,1085.992798,1485.183105,1084.96936,1484.399658C1082.539307,1482.522461,1080.059082,1480.710449,1077.53186,1478.966064C1075.502197,1477.557007,1073.452393,1476.176514,1071.383423,1474.825439C1068.881348,1473.182861,1066.419434,1471.479004,1064.00061,1469.716064C1060.760498,1467.364258,1057.550293,1464.970459,1054.371704,1462.536377C1050.053955,1459.239014,1045.688721,1455.928955,1041.348267,1452.661377C1032.675659,1446.137939,1023.844421,1439.830688,1014.859985,1433.743408C1011.38678,1431.399902,1007.898865,1429.088135,1004.387329,1426.802002C999.062195,1423.270508,993.863953,1419.552246,988.801392,1415.653564L985.399048,1413.052002C983.764893,1411.782715,982.09375,1410.562256,980.387329,1409.391846C979.170105,1408.558594,977.900452,1407.804688,976.586548,1407.134033C976.299805,1406.986816,976.00647,1406.852783,975.707642,1406.731689C974.814697,1406.407959,973.904724,1406.133057,972.981079,1405.911377C970.528748,1405.311035,968.057373,1404.79126,965.570923,1404.352783C960.488037,1403.445313,955.383728,1402.662598,950.262329,1402.005127C937.047485,1400.296509,923.770447,1399.112061,910.461548,1398.454346C906.276672,1398.265137,902.193848,1398.074219,898.008423,1397.872314C894.901855,1397.7146,891.774902,1397.548584,888.668579,1397.376221L879.301392,1396.825439C874.615051,1396.531982,870.000427,1396.227783,865.317017,1395.903564C852.043213,1394.976807,838.788147,1393.872803,825.543579,1392.591064C816.777039,1391.74707,808.020142,1390.775391,799.28186,1389.677002C794.330566,1389.05542,789.391052,1388.344238,784.465454,1387.544189C782.52002,1387.218506,780.579346,1386.872314,778.641235,1386.505127C775.082764,1385.875732,771.500488,1385.389648,767.902954,1385.048096C766.33075,1384.893799,764.752197,1384.811646,763.172485,1384.802002C761.684814,1384.719971,760.203857,1384.542725,758.738892,1384.270752C756.598511,1383.879639,754.476746,1383.393311,752.379517,1382.813721L750.137329,1382.169189L747.891235,1381.466064C745.01947,1380.542969,742.199097,1379.467285,739.442017,1378.243408C738.261719,1377.717529,737.10321,1377.144287,735.96936,1376.524658C735.150452,1376.084229,734.360962,1375.591064,733.606079,1375.048096C732.890259,1374.529175,732.254028,1373.908569,731.71936,1373.204346C730.915771,1372.155518,730.217468,1371.030273,729.633423,1369.844971C728.890015,1368.356934,728.23645,1366.825439,727.676392,1365.259033C726.827148,1362.87207,726.100952,1360.443115,725.50061,1357.981689C724.44397,1353.692871,723.376343,1349.424072,722.289673,1345.141846C721.585815,1342.349854,720.8396,1339.567871,720.051392,1336.798096C719.677979,1335.489014,719.261292,1334.192627,718.801392,1332.911377C718.565796,1332.259155,718.292297,1331.621094,717.981079,1331.001221C717.847107,1330.749634,717.700562,1330.504883,717.543579,1330.266846C717.412354,1330.081787,717.266479,1329.907715,717.109985,1329.743408L716.891235,1329.552002L716.672485,1329.399658C716.526001,1329.31665,716.371216,1329.249756,716.211548,1329.196533L715.973267,1329.137939C715.713989,1329.093506,715.451111,1329.07373,715.18811,1329.079346C714.700928,1329.078735,714.216858,1329.005615,713.75061,1328.864502C713.431824,1328.770508,713.130615,1328.624023,712.859985,1328.430908C712.685425,1328.311646,712.531128,1328.164551,712.40686,1327.993408C712.259277,1327.79248,712.177124,1327.55127,712.168579,1327.302002C712.149658,1327.166382,712.083008,1327.042358,711.984985,1326.946533C711.657715,1326.604492,711.294678,1326.298584,710.902954,1326.032471C709.786377,1325.261597,708.632507,1324.546021,707.445923,1323.887939C704.784424,1322.395996,702.07312,1320.994141,699.317017,1319.684814C698.245544,1319.170288,697.168335,1318.66626,696.086548,1318.173096C693.396362,1316.951294,690.755127,1315.624756,688.168579,1314.196533C686.345032,1313.185791,684.562317,1312.103027,682.824829,1310.950439C681.278198,1309.922363,679.7854,1308.815186,678.352173,1307.634033C677.384888,1306.834229,676.455322,1305.989624,675.567017,1305.102783C675.019104,1304.549561,674.488647,1303.979126,673.977173,1303.391846L673.262329,1302.528564C672.599976,1301.693604,671.991943,1300.81665,671.442017,1299.903564L670.942017,1299.020752C670.633667,1298.439453,670.353149,1297.843994,670.102173,1297.235596L669.758423,1296.333252C669.554443,1295.735352,669.379639,1295.12793,669.234985,1294.512939L669.051392,1293.591064L668.922485,1292.665283L668.84436,1291.735596C668.791748,1290.318726,668.838684,1288.899902,668.984985,1287.489502C669.326416,1283.967773,670.136841,1280.507568,671.395142,1277.200439C671.878174,1275.924072,672.473022,1274.692749,673.172485,1273.520752C673.549561,1272.885864,673.988037,1272.289307,674.481079,1271.739502C674.784546,1271.400024,675.126465,1271.096802,675.50061,1270.837158L675.84436,1270.630127C676.071289,1270.53125,676.295288,1270.425537,676.516235,1270.313721L676.828735,1270.094971L677.121704,1269.817627L677.402954,1269.489502C677.696289,1269.08667,677.939758,1268.649658,678.129517,1268.188721C678.441223,1267.426392,678.670349,1266.632813,678.81311,1265.821533C678.994019,1264.845459,679.098572,1263.856934,679.12561,1262.864502L679.149048,1261.274658C679.17157,1260.362549,679.255249,1259.453003,679.399048,1258.552002C679.486633,1258.016113,679.613892,1257.487549,679.777954,1256.969971C679.870361,1256.698486,679.981689,1256.433594,680.109985,1256.177002L680.293579,1255.864502L680.492798,1255.614502C680.55957,1255.548096,680.629395,1255.484863,680.703735,1255.427002C680.773193,1255.379639,680.848511,1255.341675,680.926392,1255.309814C681.001587,1255.285034,681.078003,1255.263916,681.15686,1255.255127L681.274048,1255.255127C681.453125,1255.282471,681.63147,1255.313843,681.809204,1255.348877L682.199829,1255.368408C682.680847,1255.345581,683.139526,1255.159668,683.50061,1254.841064C683.881348,1254.506958,684.219116,1254.126831,684.504517,1253.708252C685.049255,1252.919189,685.5448,1252.097168,685.988892,1251.247314C686.969543,1249.387451,687.904541,1247.504395,688.793579,1245.598877C689.178589,1244.750977,689.581177,1243.910889,690.00061,1243.079346C691.115967,1241.010254,692.604675,1239.165527,694.391235,1237.637939C694.848877,1237.249268,695.338867,1236.900146,695.856079,1236.594971C696.365601,1236.297119,696.911865,1236.067383,697.481079,1235.911377C698.4198,1235.642822,699.369873,1235.416016,700.328735,1235.231689C702.720825,1234.751465,705.125183,1234.33606,707.539673,1233.985596C713.88501,1233.043945,720.24353,1232.2146,726.617798,1231.497314C737.342407,1230.258301,748.083008,1229.208984,758.84436,1228.348877C762.885986,1228.020752,766.934814,1227.758789,770.984985,1227.563721C772.945496,1227.459229,774.908508,1227.413696,776.871704,1227.427002C777.64093,1227.421997,778.409668,1227.468384,779.172485,1227.567627L779.356079,1227.598877C779.526489,1227.625732,779.691833,1227.678467,779.84436,1227.759033L779.899048,1227.809814L779.934204,1227.860596C780.026855,1228.201904,780.086853,1228.551025,780.113892,1228.903564C780.214233,1230.060059,780.272949,1231.219604,780.289673,1232.380127C780.33252,1235.00769,780.350708,1237.63916,780.34436,1240.266846C780.337036,1243.039063,780.368408,1245.811768,780.43811,1248.583252C780.468506,1249.989258,780.546631,1251.393555,780.672485,1252.794189C780.726379,1253.416016,780.822876,1254.033447,780.961548,1254.641846L781.024048,1254.856689C781.058533,1254.972412,781.105042,1255.08374,781.15686,1255.192627C781.201294,1255.265259,781.251465,1255.333984,781.305298,1255.399658L781.387329,1255.450439L781.473267,1255.469971L781.508423,1255.485596L781.535767,1255.536377C781.554077,1255.603271,781.567627,1255.671143,781.578735,1255.739502C781.616211,1256.185181,781.62677,1256.632568,781.609985,1257.079346L781.598267,1257.751221C781.512573,1260.207397,781.461792,1262.664673,781.445923,1265.122314C781.421753,1269.251709,781.609558,1273.379395,782.008423,1277.489502C782.240845,1279.814453,782.567871,1282.128906,782.988892,1284.427002C783.207458,1285.602051,783.453613,1286.771606,783.727173,1287.934814L784.168579,1289.680908L784.660767,1291.411377L785.207642,1293.122314C785.723816,1294.653564,786.313232,1296.15918,786.973267,1297.634033C788.833069,1301.914917,791.030151,1306.041016,793.543579,1309.973877C797.522644,1316.187744,802.392334,1321.783813,807.996704,1326.583252C810.47113,1328.696045,813.062378,1330.667969,815.758423,1332.489502C818.173584,1334.11499,820.64093,1335.661499,823.15686,1337.126221C824.162964,1337.726318,825.178406,1338.30957,826.203735,1338.876221C827.843201,1339.753174,829.535217,1340.528076,831.270142,1341.196533C834.344971,1342.375732,837.491943,1343.356934,840.692017,1344.134033C846.835266,1345.63208,853.097107,1346.592773,859.40686,1347.005127C863.776184,1347.30835,868.160645,1347.322632,872.53186,1347.048096C875.497986,1346.864868,878.450928,1346.508789,881.37561,1345.981689C883.371948,1345.619629,885.348633,1345.155518,887.297485,1344.591064C888.789307,1344.156738,890.258545,1343.648193,891.699829,1343.067627C893.41748,1342.382568,895.079834,1341.566162,896.672485,1340.626221C897.285278,1340.260742,897.885681,1339.874756,898.473267,1339.469971C901.401123,1337.454224,904.305298,1335.403076,907.184204,1333.317627C909.367798,1331.731445,911.502686,1330.079834,913.586548,1328.364502C915.164063,1327.060059,916.68988,1325.694458,918.160767,1324.270752C919.965027,1322.530273,921.654846,1320.675049,923.21936,1318.716064C924.818115,1316.704224,926.268555,1314.578857,927.559204,1312.356689C928.100586,1311.423828,928.615173,1310.475342,929.102173,1309.512939C929.605591,1308.510254,930.082275,1307.494141,930.53186,1306.466064C931.419067,1304.40564,932.215454,1302.307373,932.918579,1300.177002C934.395203,1295.936523,935.835144,1291.677979,937.234985,1287.411377C938.119934,1284.757568,938.930237,1282.07959,939.664673,1279.380127C940.19873,1277.347656,940.672791,1275.299927,941.086548,1273.239502C941.755188,1269.899902,942.452209,1266.563477,943.176392,1263.235596C943.597046,1261.313843,944.030518,1259.386719,944.473267,1257.469971C944.965088,1255.264404,945.360107,1253.03833,945.65686,1250.798096C945.891968,1248.914673,946.134521,1247.011963,946.379517,1245.130127C946.521118,1243.977051,946.736511,1242.833984,947.024048,1241.708252C947.139526,1241.283936,947.290161,1240.869873,947.473267,1240.469971L947.242798,1228.954346L1109.31311,1230.247314L1133.442017,1230.427002L1152.692017,1230.552002L1165.836548,1230.626221L1177.926392,1230.677002C1191.284058,1230.740723,1204.600342,1230.744629,1217.957642,1230.688721C1226.020996,1230.660156,1234.079834,1230.556152,1242.141235,1230.376221C1246.206299,1230.285645,1250.269043,1230.125488,1254.328735,1229.895752C1256.653687,1229.769409,1258.973999,1229.567627,1261.285767,1229.290283C1262.417969,1229.154053,1263.542847,1228.963623,1264.65686,1228.719971C1266.130493,1228.345459,1267.609863,1227.993896,1269.09436,1227.665283C1270.405762,1227.378174,1271.728516,1227.146484,1273.059204,1226.969971C1273.859863,1226.867554,1274.666138,1226.81665,1275.473267,1226.817627L1275.981079,1226.841064M1072.207642,1401.333252C1069.502441,1401.32666,1066.788086,1401.337158,1064.082642,1401.364502C1062.566406,1401.376221,1061.050781,1401.412842,1059.535767,1401.473877C1058.560791,1401.508423,1057.588135,1401.593262,1056.621704,1401.727783C1056.340942,1401.768799,1056.062988,1401.827393,1055.789673,1401.903564C1055.55127,1401.968018,1055.322144,1402.061523,1055.106079,1402.180908L1054.934204,1402.313721L1054.820923,1402.458252L1054.754517,1402.618408L1054.742798,1402.794189L1054.774048,1402.981689L1054.852173,1403.188721L1054.96936,1403.411377L1055.129517,1403.649658C1055.430664,1404.046631,1055.754639,1404.425537,1056.102173,1404.782471L1084.801392,1435.009033C1087.676025,1438.042236,1090.549561,1441.106689,1093.391235,1444.169189C1095.907593,1446.88208,1098.411987,1449.575928,1100.934204,1452.282471C1103.126221,1454.643555,1105.356689,1456.97168,1107.621704,1459.262939C1108.456055,1460.101807,1109.317139,1460.91333,1110.203735,1461.696533C1110.611084,1462.062012,1111.050049,1462.390625,1111.516235,1462.677002C1111.598022,1462.71936,1111.680908,1462.759766,1111.766235,1462.794189L1111.871704,1462.825439L1111.961548,1462.837158C1112.014771,1462.828491,1112.066406,1462.813965,1112.117798,1462.798096C1112.164307,1462.763062,1112.2052,1462.721436,1112.242798,1462.677002L1112.289673,1462.591064L1112.332642,1462.485596L1112.367798,1462.360596L1112.395142,1462.223877C1112.428223,1461.994995,1112.440796,1461.763794,1112.43811,1461.532471L1112.426392,1461.118408C1112.326172,1459.917969,1112.121582,1458.728271,1111.81311,1457.563721C1111.642578,1456.887207,1111.441284,1456.21875,1111.211548,1455.559814C1110.222168,1452.645508,1109.210693,1449.746338,1108.172485,1446.848877C1105.762451,1440.089844,1103.331787,1433.362793,1100.863892,1426.622314L1091.613892,1401.333252L1072.207642,1401.333252M1249.742798,1401.731689C1248.936279,1401.72168,1248.129883,1401.743408,1247.324829,1401.794189C1247.237305,1401.800781,1247.150146,1401.810181,1247.06311,1401.821533L1246.961548,1401.837158L1248.828735,1407.012939C1251.545898,1416.046875,1254.460083,1425.023804,1257.567017,1433.930908C1258.633789,1437.000977,1259.766724,1440.046631,1260.965454,1443.067627C1261.557373,1444.56311,1262.194336,1446.040527,1262.87561,1447.497314C1263.221436,1448.244385,1263.607422,1448.971924,1264.03186,1449.677002C1264.154785,1449.883545,1264.290405,1450.082153,1264.434204,1450.274658C1264.602661,1450.498291,1264.797363,1450.700195,1265.008423,1450.884033C1265.065308,1450.911743,1265.124146,1450.934814,1265.184204,1450.954346L1265.31311,1450.973877C1265.491211,1450.987915,1265.669922,1450.988525,1265.848267,1450.977783C1266.831787,1450.886963,1267.808105,1450.729248,1268.770142,1450.505127C1270.758057,1450.065308,1272.734009,1449.572998,1274.695923,1449.028564C1279.110474,1447.802734,1283.499756,1446.48584,1287.859985,1445.079346C1301.581909,1440.685547,1315.141968,1435.799316,1328.512329,1430.430908C1331.263672,1429.31958,1334.00647,1428.179443,1336.734985,1427.012939C1341.216675,1425.106201,1345.651001,1423.086914,1350.03186,1420.958252C1353.05127,1419.496826,1356.022827,1417.938843,1358.942017,1416.286377C1361.162598,1415.036743,1363.322632,1413.682373,1365.414673,1412.227783L1365.961548,1411.837158L1365.746704,1411.360596C1365.542725,1410.836182,1365.342163,1410.30957,1365.145142,1409.782471L1365.008423,1409.462158L1364.852173,1409.169189L1364.668579,1408.895752L1364.449829,1408.649658C1364.317139,1408.526367,1364.17688,1408.411133,1364.024048,1408.313721L1363.856079,1408.208252C1363.577393,1408.058838,1363.285767,1407.934814,1362.984985,1407.837158L1362.715454,1407.755127C1361.851074,1407.521729,1360.971313,1407.348877,1360.082642,1407.239502C1358.150024,1406.989258,1356.210449,1406.798096,1354.266235,1406.665283C1351.122192,1406.430176,1347.976563,1406.221802,1344.828735,1406.040283L1323.37561,1404.739502C1313.742554,1404.200195,1304.09375,1403.714355,1294.453735,1403.282471C1284.18689,1402.805908,1273.912964,1402.390381,1263.641235,1402.036377C1259.622437,1401.892334,1255.599976,1401.793457,1251.578735,1401.739502C1250.966431,1401.733154,1250.355225,1401.730225,1249.742798,1401.731689M1156.942017,1401.337158C1147.942627,1401.334229,1138.914063,1401.382568,1129.914673,1401.481689C1125.240723,1401.52832,1120.562744,1401.631104,1115.891235,1401.790283C1113.625732,1401.866211,1111.361816,1401.993896,1109.102173,1402.173096C1107.841553,1402.265137,1106.58606,1402.418945,1105.340454,1402.634033C1104.788574,1402.723877,1104.246582,1402.866943,1103.723267,1403.063721C1103.607422,1403.108887,1103.496582,1403.165039,1103.387329,1403.223877L1103.254517,1403.309814L1103.145142,1403.395752C1103.085083,1403.448242,1103.033447,1403.509399,1102.988892,1403.575439C1102.958984,1403.635376,1102.934326,1403.697754,1102.918579,1403.762939L1102.910767,1403.860596L1102.922485,1403.962158L1102.953735,1404.063721L1103.06311,1404.348877C1104.151123,1407.400146,1105.224854,1410.46582,1106.277954,1413.528564L1109.297485,1422.274658L1112.793579,1432.450439C1114.024902,1436.059326,1115.232422,1439.652344,1116.430298,1443.270752C1117.654663,1446.987793,1118.933472,1450.844482,1120.172485,1454.555908C1120.950806,1456.896484,1121.75354,1459.22522,1122.582642,1461.548096C1122.856323,1462.324707,1123.1521,1463.093018,1123.46936,1463.852783C1123.5979,1464.163696,1123.744263,1464.466797,1123.910767,1464.759033L1123.961548,1464.837158C1136.248779,1465.562744,1148.555176,1465.893677,1160.863892,1465.829346C1170.981934,1465.776367,1181.095215,1465.39209,1191.18811,1464.677002C1198.85791,1464.129639,1206.508301,1463.345459,1214.129517,1462.325439C1220.88208,1461.425537,1227.599365,1460.28418,1234.270142,1458.903564C1239.237793,1457.865967,1244.171875,1456.669922,1249.06311,1455.317627C1249.691406,1455.139893,1250.324463,1454.980225,1250.961548,1454.837158L1251.137329,1454.501221C1251.242188,1454.238525,1251.32019,1453.966064,1251.37561,1453.688721L1251.445923,1453.212158L1251.481079,1452.688721C1251.49646,1452.084717,1251.470581,1451.480225,1251.399048,1450.880127C1251.247559,1449.616333,1251.013916,1448.36377,1250.699829,1447.130127C1250.23877,1445.288574,1249.701904,1443.466553,1249.090454,1441.669189C1248.51709,1439.952393,1247.908936,1438.248047,1247.266235,1436.555908C1245.867432,1432.885986,1244.394409,1429.244385,1242.848267,1425.634033C1241.931519,1423.481201,1240.998901,1421.323608,1240.059204,1419.180908C1238.669189,1416.033447,1237.283936,1412.863037,1235.918579,1409.704346C1235.123901,1407.890381,1234.374756,1406.056152,1233.672485,1404.204346C1233.45166,1403.622314,1233.256836,1403.030762,1233.090454,1402.430908C1233.032593,1402.236572,1232.98877,1402.038208,1232.961548,1401.837158L1163.78186,1401.333252L1156.942017,1401.337158"/>
    <path transform="matrix(-1,0,0,-1,0,0)" style="stroke:none;fill:#000000;fill-rule:evenodd" d="M1367.336548,1191.321533C1368.568359,1191.352539,1369.799438,1191.415039,1371.027954,1191.509033C1372.84729,1191.649658,1374.661133,1191.857178,1376.465454,1192.130127C1378.835449,1192.493774,1381.186157,1192.974731,1383.508423,1193.571533C1385.80188,1194.162109,1388.065063,1194.864746,1390.289673,1195.677002C1393.03833,1196.68457,1395.723145,1197.858398,1398.328735,1199.192627C1401.945557,1201.046387,1405.39917,1203.202637,1408.652954,1205.637939C1411.430298,1207.713135,1414.054321,1209.986084,1416.504517,1212.438721C1421.011597,1216.944092,1424.904419,1222.024414,1428.082642,1227.548096C1429.831177,1230.584351,1431.353394,1233.745361,1432.637329,1237.005127C1433.287354,1238.650391,1433.875122,1240.319458,1434.399048,1242.009033C1435.105713,1244.283203,1435.700317,1246.590698,1436.180298,1248.923096C1436.418457,1250.103027,1436.629395,1251.28833,1436.81311,1252.477783C1436.993042,1253.678955,1437.146484,1254.883423,1437.274048,1256.091064C1437.768799,1260.998047,1437.768921,1265.942139,1437.274048,1270.848877C1437.146851,1272.056519,1436.993042,1273.261353,1436.81311,1274.462158C1436.629028,1275.651611,1436.418091,1276.837036,1436.180298,1278.016846C1435.463013,1281.50708,1434.489136,1284.939697,1433.266235,1288.286377C1432.659546,1289.938721,1431.993652,1291.568604,1431.270142,1293.173096C1429.11145,1297.940674,1426.440918,1302.459473,1423.305298,1306.649658C1421.22998,1309.427002,1418.957275,1312.051025,1416.504517,1314.501221C1412.412231,1318.596924,1407.843262,1322.186523,1402.895142,1325.192627C1399.405029,1327.316406,1395.739258,1329.136719,1391.93811,1330.634033C1389.187622,1331.719482,1386.372192,1332.632324,1383.508423,1333.368408L1381.774048,1333.794189C1380.017456,1334.196655,1378.246582,1334.5354,1376.465454,1334.809814C1374.053345,1335.175903,1371.624634,1335.422363,1369.18811,1335.548096C1366.098877,1335.704834,1363.00293,1335.665771,1359.918579,1335.430908C1358.099121,1335.289551,1356.285522,1335.082275,1354.481079,1334.809814C1352.700073,1334.534912,1350.929321,1334.195801,1349.172485,1333.794189C1346.285156,1333.124146,1343.441406,1332.278809,1340.65686,1331.262939C1334.083862,1328.85376,1327.897461,1325.498047,1322.293579,1321.302002C1319.516113,1319.227051,1316.89209,1316.954102,1314.442017,1314.501221C1311.169556,1311.231567,1308.218506,1307.655273,1305.629517,1303.821533C1303.018555,1299.961182,1300.789063,1295.855957,1298.973267,1291.563721C1297.592651,1288.299805,1296.456787,1284.937622,1295.574829,1281.505127L1295.149048,1279.770752C1294.609497,1277.423584,1294.186768,1275.050781,1293.883423,1272.661377C1293.651245,1270.842773,1293.488403,1269.015869,1293.395142,1267.184814C1293.270264,1264.709839,1293.270386,1262.230225,1293.395142,1259.755127L1293.512329,1257.915283C1293.698364,1255.494141,1294.004639,1253.083496,1294.430298,1250.692627C1294.6427,1249.512695,1294.882568,1248.338135,1295.149048,1247.169189C1295.419556,1246.010254,1295.716431,1244.857544,1296.039673,1243.712158C1296.525757,1242.006836,1297.072754,1240.31958,1297.680298,1238.653564C1300.089355,1232.080444,1303.445313,1225.894287,1307.641235,1220.290283C1309.716431,1217.512939,1311.989258,1214.88916,1314.442017,1212.438721C1317.71167,1209.16626,1321.288086,1206.215332,1325.121704,1203.626221C1328.012329,1201.672119,1331.041016,1199.930298,1334.184204,1198.415283C1338.431274,1196.366699,1342.870972,1194.744385,1347.43811,1193.571533L1349.172485,1193.145752C1350.929199,1192.743408,1352.699951,1192.404541,1354.481079,1192.130127C1356.893188,1191.764282,1359.321899,1191.517944,1361.758423,1191.391846C1363.616333,1191.298584,1365.476929,1191.274902,1367.336548,1191.321533z"/>
    <path transform="matrix(-1,0,0,-1,0,0)" style="stroke:none;fill:#000000;fill-rule:evenodd" d="M863.336548,1191.321533C865.787109,1191.383301,868.233093,1191.569824,870.664673,1191.880127C872.460571,1192.107178,874.247009,1192.402832,876.020142,1192.766846L877.774048,1193.145752C880.661438,1193.815552,883.505249,1194.660889,886.289673,1195.677002C889.58667,1196.884766,892.790588,1198.33252,895.87561,1200.009033C901.476196,1203.056641,906.65094,1206.828613,911.266235,1211.227783C913.774902,1213.618896,916.108826,1216.186768,918.25061,1218.911377C921.118835,1222.563843,923.630371,1226.48291,925.75061,1230.614502C927.893738,1234.80127,929.620605,1239.188232,930.90686,1243.712158C931.229858,1244.857666,931.526855,1246.010254,931.797485,1247.169189C932.200134,1248.926025,932.539001,1250.696533,932.81311,1252.477783C933.178772,1254.889893,933.425293,1257.318848,933.551392,1259.755127C933.708252,1262.84436,933.669067,1265.94043,933.434204,1269.024658C933.292664,1270.843994,933.085571,1272.657837,932.81311,1274.462158C932.449707,1276.832397,931.96875,1279.182861,931.371704,1281.505127C930.489441,1284.9375,929.353516,1288.299805,927.973267,1291.563721C925.703735,1296.924072,922.793213,1301.989502,919.305298,1306.649658C917.229858,1309.42688,914.957153,1312.050781,912.504517,1314.501221C908.823975,1318.185303,904.756042,1321.460693,900.371704,1324.270752C898.414124,1325.525635,896.3974,1326.685791,894.328735,1327.747314C891.19812,1329.35083,887.953613,1330.72168,884.621704,1331.848877C881.23584,1332.993896,877.769165,1333.884277,874.25061,1334.512939C872.461304,1334.832275,870.660522,1335.083862,868.852173,1335.266846C867.018921,1335.4552,865.178833,1335.57251,863.336548,1335.618408C860.862244,1335.681641,858.386536,1335.619019,855.918579,1335.430908C854.099121,1335.290039,852.285522,1335.082642,850.481079,1334.809814C848.111023,1334.446533,845.760376,1333.965454,843.43811,1333.368408C840.005676,1332.486328,836.643677,1331.350342,833.379517,1329.969971C828.019348,1327.700439,822.953796,1324.789795,818.293579,1321.302002C815.516296,1319.226807,812.892395,1316.953979,810.442017,1314.501221C807.169312,1311.231812,804.218201,1307.655518,801.629517,1303.821533C799.018311,1299.961304,796.789001,1295.855957,794.973267,1291.563721C793.593018,1288.299683,792.457092,1284.9375,791.574829,1281.505127C790.977783,1279.182861,790.496826,1276.832275,790.133423,1274.462158C789.767883,1272.050049,789.521484,1269.621338,789.395142,1267.184814C789.238281,1264.095703,789.277466,1260.999634,789.512329,1257.915283C789.65387,1256.095947,789.860962,1254.282349,790.133423,1252.477783C790.496948,1250.107666,790.978027,1247.757324,791.574829,1245.434814C792.457092,1242.002441,793.593018,1238.640381,794.973267,1235.376221C797.243164,1230.016113,800.153564,1224.950684,803.641235,1220.290283C805.716675,1217.513184,807.98938,1214.88916,810.442017,1212.438721C813.711487,1209.166016,817.287842,1206.215088,821.121704,1203.626221C824.982178,1201.015259,829.08728,1198.785889,833.379517,1196.969971C834.462036,1196.514404,835.554871,1196.083252,836.65686,1195.677002C839.44104,1194.660156,842.284973,1193.814819,845.172485,1193.145752C846.92926,1192.743408,848.699829,1192.404541,850.481079,1192.130127C852.89325,1191.764648,855.322021,1191.518311,857.758423,1191.391846C859.616211,1191.297852,861.47699,1191.274414,863.336548,1191.321533z"/>
</svg>
