<?xml version="1.0" encoding="UTF-8"?>
<svg xmlns="http://www.w3.org/2000/svg" width="579.543mm" height="477.730mm" viewBox="-1089.871704 -659.393066 579.543213 477.730469">
    <path transform="matrix(-1.130934,0,0,-1.130934,-407.665619,-114.937531)" style="stroke:#000000;stroke-width:0.05mm;fill:none" d="M262.699982,481.366638C262.443268,481.109955,257.118286,480.685608,250.866638,480.423645C244.61499,480.161682,237.308167,479.744202,234.629257,479.495911L229.758514,479.044464L228.129257,477.772247C227.23317,477.07251,223.480591,473.938019,219.790207,470.806702C216.099808,467.675385,212.140686,464.610474,210.992142,463.995789L208.903885,462.878204L209.429108,461.189087L209.954346,459.5L209.086945,458.118591L208.219543,456.737183L203.543747,458.330383L198.867966,459.923584L195.898102,459.32962L192.928253,458.735657L191.464127,456.645325L190,454.554993L190.020981,452.527496C190.032516,451.412384,191.157516,446.69812,192.520981,442.051361L195,433.602722L195.005569,429.551361C195.008652,427.32312,195.457962,423.891571,196.004059,421.925751L196.996964,418.351471L199.498474,416.001434L202,413.651367L202.005569,411.075684C202.008652,409.659058,202.504715,406.700012,203.107956,404.5L204.204773,400.5L208.68808,393.278564L213.171402,386.057129L214.311966,386.278564L215.452515,386.5L215.803986,384.187622L216.155457,381.875244L218.918381,382.482086L221.68132,383.088928L222.991928,381.509735L224.302551,379.930511L222.026321,377.809875L219.750076,375.68927L217.936172,371.588593L216.122253,367.487946L215.06868,360.993988C214.489212,357.422302,214.011703,351.734894,214.007553,348.355347L214,342.210663L212.085052,335.855347C211.03183,332.359894,209.830414,327.475006,209.415253,325L208.660385,320.5L208.494492,297.5L208.328598,274.5L201.820999,260.5L195.313416,246.5L190.558838,231.08699L185.80426,215.673981L180.557236,205.027039C177.671371,199.171219,173.50885,191.25708,171.30719,187.440048C169.105545,183.623016,165.098236,176.275314,162.402084,171.111816L157.5,161.723618L150.121124,156.74437L142.742249,151.765121L130.089691,148.486206C123.130775,146.6828,114.981697,144.478104,111.980621,143.586884L106.524124,141.966476L100.730316,136.233246L94.936508,130.5L92.856812,126.204063L90.777115,121.908127L93.221405,117.204063L95.665703,112.5L99.214371,112.603554L102.763039,112.707108L102.631523,109.603554L102.5,106.5L106.022141,106.203217L109.544281,105.906441L118.769791,111.468079L127.995308,117.029716L138.24765,119.513565C143.886444,120.879677,149.737503,121.997993,151.25,121.998703L154,122L154,121.036049C154,120.505882,152.419708,118.99826,150.48822,117.685791C148.556747,116.373314,145.186981,113.643799,142.999863,111.620201L139.02327,107.940926L138.42308,105.549561C138.092972,104.234306,137.978973,102.335098,138.169754,101.329094L138.516632,99.5L142.119064,99.197937L145.721497,98.895874L152.110748,103.235672C155.624832,105.622566,163.08548,110.394875,168.689957,113.840805L178.879913,120.106125L179.930618,123.303062L180.981323,126.5L180.897308,134.288269L180.813293,142.076538L193.556732,161.288269C205.787643,179.727325,216.942322,194.799606,228.903854,209.049606C231.981735,212.716339,236.074997,218.466827,238,221.828461C239.925003,225.190094,241.837494,227.953903,242.25,227.970261L243,228L243,226L243,224L243.848129,224C245.080215,224,247.936478,230.762665,249.362564,237.05632L250.596054,242.5L252.298019,242.361115L254,242.222229L254,245.611115C254,249.524017,254.162003,249.595184,257.737061,247.252716L260.403778,245.505417L259.619507,247.502716C259.188171,248.601227,258.597687,251.75,258.307312,254.5L257.779327,259.5L258.834991,268.099335L259.890625,276.698639L263.468842,287.767181L267.047058,298.835754L283.773529,290.781677C292.973083,286.351959,300.725006,282.523529,301,282.274078C301.274994,282.024597,298.956512,277.023376,295.847778,271.160248C290.072937,260.268707,285.070129,248.302048,275.922852,223.5C270.47052,208.716461,264.789917,196.668442,260.703186,191.220459L258.243073,187.940918L252.559067,183.870697L246.875061,179.800461L233.187531,173.535156C225.659393,170.089233,216.950623,166.12648,213.834717,164.729034L208.169434,162.188217L206.633636,159.844101L205.097855,157.5L203.381668,147.165771L201.665497,136.831528L203.337692,132.165771C204.257401,129.599594,205.00766,126.69838,205.004944,125.718613L205,123.937233L206.75,123.316612C207.712494,122.975281,209.272583,122.03315,210.216858,121.223L211.933731,119.75L214.463791,119.75L216.993835,119.75L218.43222,120.943748L219.870605,122.137505L222.915939,129.452713C224.590866,133.476074,226.432571,138.007538,227.008606,139.522644C228.967865,144.675888,228.944687,141.422745,226.976013,134.948303L225.015274,128.5L225.007645,125.218613L225,121.937233L226.563766,121.337158L228.127533,120.737083L230.416901,121.780182L232.706253,122.82328L237.382919,131.878174L242.059586,140.93306L249.279785,143.026825C261.713684,146.632492,266.382843,148.215378,270.124207,150.093231L273.748413,151.912308L276.305115,154.95076C277.711304,156.621902,279.148224,158.891632,279.498291,159.994598L280.134766,162L281.431519,162L282.728271,162L284.394653,166.363358L286.061035,170.726715L289.943115,174.211731L293.825195,177.696747L297.803223,185.598373C302.393524,194.716263,308.205078,202.877747,316.424988,211.75C323.004822,218.852051,323.437836,219.033447,324.779663,215.25L325.755005,212.5L329.660309,208C341.464355,194.398544,355.168854,173.441513,358.578094,163.77861L359.941376,159.914734L358.313293,159.289978L356.685242,158.665237L343.092621,161.834961L329.5,165.004684L326.214813,165.002335L322.929626,165L320.488586,163.400574C319.146027,162.520889,314.886841,158.078232,311.023773,153.528L304,145.254868L304,142.827438L304,140.399994L305.25,139.140686L306.5,137.881363L306.5,133.690674L306.5,129.5L310.019287,129.203384L313.538605,128.906784L322.511261,136.594055L331.483948,144.281326L343.297516,143.646118L355.111084,143.01091L357.235779,141.873825L359.360443,140.736725L357.546143,139.41008L355.731812,138.08342L350.115906,136.956223C347.027161,136.336273,343.037506,135.199783,341.25,134.430695L338,133.032364L338,131.16806L338,129.303741L342.138916,127.437355L346.277863,125.570953L352.888916,125.786102C356.525024,125.904427,364.343018,126.644196,370.262268,127.430038L381.024536,128.858826L392.740021,126.429413L404.455475,124L408.572754,124L412.690033,124L414.297394,125.776123L415.904755,127.552246L416.593842,131.861435L417.282898,136.170609L413.908875,146.335312L410.534882,156.5L405.855011,165.738312L401.17514,174.976624L402.837585,174.062057C405.27475,172.721268,413.575562,163.830078,422.501129,153C432.878021,140.40892,438.348145,134.711334,445.086243,129.475723L450.672455,125.135147L458.586243,121.128738C462.938812,118.925209,469.200012,116.23774,472.5,115.156578L478.5,113.190834L489.460693,112.030556L500.421417,110.870285L505.460693,111.542961C510.924408,112.272285,531.927856,116.837372,533.071411,117.544121L533.773376,117.977982L534.851501,116.67894L535.929626,115.379906L530.714783,112.267166L525.5,109.154419L516.5,106.05114L507.5,102.947861L505.75,100.863144L504,98.778435L503.995972,91.139214L503.991943,83.5L502.472473,74.130783L500.953003,64.761574L502.162354,63.304363L503.371735,61.847157L506.563385,62.445915L509.755066,63.044674L510.283905,61.022339L510.812775,59L513.656372,59.015312C517.741577,59.037312,518.41687,59.725418,521.892456,67.407822L525.0177,74.315643L525.581726,73.751595L526.145813,73.187546L525.078491,69.343773C524.491455,67.229698,524.008667,64.764984,524.005554,63.866631L524,62.233261L525.915588,61.732327L527.831177,61.231392L530.078674,62.365696L532.326172,63.5L539.950317,73L547.574524,82.5L565.26886,91.549698L582.963196,100.599403L586.481567,103.714371L590,106.82933L590,109.867615C590,111.538666,589.496277,114.011459,588.880615,115.362701L587.76123,117.819511L576.886719,125.995316C570.905762,130.492004,565.718079,134.647156,565.358459,135.228973L564.704712,136.28685L572.227173,143.522385L579.749695,150.757919L584.960205,157.628967L590.170715,164.5L594.076111,172.553986L597.981567,180.607956L599.900635,188.111557L601.819763,195.615143L602.521729,204.588852L603.223755,213.562561L602.089844,224.093994L600.955994,234.625427L598.473877,244.062714C587.55249,285.587036,565.736145,303.022278,507.254364,316.963776L499.008698,318.929443L489.298706,324.644073C483.958221,327.78714,476.006653,331.869446,471.628571,333.715881L463.668457,337.073029L459.084229,340.413208C456.562897,342.250275,447.524994,348.442627,439,354.17395C430.475006,359.905273,419.899994,367.224274,415.5,370.438416L407.5,376.282318L400,379.739563C389.622955,384.52301,384.697021,386.25708,368,391.004364C360.024994,393.27182,350.555267,395.989838,346.956116,397.044464L340.412262,398.961914L335.111023,402.917175L329.809753,406.872437L316.380676,412.686218L302.951569,418.5L303.515808,420.5C303.826141,421.600006,304.717926,427.13681,305.497528,432.804016L306.915039,443.108063L310.027802,448.548553L313.140533,453.989075L312.820251,456.234314L312.5,458.479584L310.656464,458.831116L308.812958,459.182678L303.959503,456.165619L299.106079,453.14856L297.967102,456.59967L296.828125,460.050812L294.322906,463.028076L291.817688,466.005371L290.952789,465.470825L290.08786,464.936279L288.396027,467.518372L286.704163,470.100464L285.253906,469.543945L283.80365,468.987427L280.768311,471.541504C277.145874,474.589569,270.688599,478,268.539825,478L267,478L265.083344,479.916656C264.029175,480.970825,262.956665,481.623322,262.699982,481.366638z"/>
    <path transform="matrix(-1.130934,0,0,-1.130934,-407.665619,-114.937531)" style="stroke:#000000;stroke-width:0.05mm;fill:none" d="M534,287.975494L541.5,285.876984L549,281.870605L556.5,277.864258L562.277649,272.186066L568.055298,266.507874L572.47998,257.503937L576.904724,248.5L578.872437,240.5C579.954712,236.100006,581.326172,229.263794,581.920105,225.308441L583,218.116898L583,209.242111L583,200.367325L581.955566,194.433655C580.769287,187.694168,577.963074,180.133316,573.784668,172.418686L570.920959,167.13147L562.066772,157.815735C557.19696,152.692078,553.015442,148.725006,552.774475,149C552.533569,149.274994,549.622437,153.100006,546.305298,157.5C542.988098,161.899994,538.138123,167.870972,535.527466,170.768814L530.780823,176.037628L521.140442,182.365631C515.838196,185.846024,508.350006,190.764023,504.5,193.29451L497.5,197.895386L495.25,201.259567L493,204.623764L493.118317,209.561874C493.18338,212.277847,493.537567,215.850006,493.905365,217.5L494.574097,220.5L496.787048,220.261795C499.286377,219.992752,499.428436,220.330963,497.964813,223.065735L496.929626,225L498.550812,225L500.171967,225L499.946198,228.75C499.822052,230.8125,499.783356,233.04837,499.860229,233.718613L500,234.937225L501.440796,234.384338L502.881622,233.831451L503.56778,239.896271L504.253937,245.96109L505.265381,245.335983L506.276825,244.710876L505.638397,248.355438C505.287292,250.359955,504.724915,253.574997,504.388702,255.5L503.777405,259L505.388702,259L507,259L507,262.5L507,266L508.135925,266L509.271851,266L508.633514,270.657166L507.995178,275.314331L509.997589,273.502197C512.39679,271.330963,512.426697,271.539215,510.5,277C508.612122,282.3508,508.610657,282.335083,510.94223,281.725342L512.88446,281.217438L510.25824,285.185974L507.631989,289.15451L509.065979,290.137695L510.5,291.12085L518.5,290.597412L526.5,290.073975L534,287.975494z"/>
    <path transform="matrix(-1.130934,0,0,-1.130934,-407.665619,-114.937531)" style="stroke:#000000;stroke-width:0.05mm;fill:none" d="M437,235.21199C437,222.921356,440.41214,202.665665,445.330139,185.761353L448.7453,174.02272L451.239044,170.761353L453.732788,167.5L471.616394,158.657959C491.016907,149.065948,510.437469,137.916504,516,133.177139L519.5,130.195099L518.892578,129.573486C518.558533,129.231598,514.958557,128.241913,510.892609,127.374176L503.5,125.796478L493.5,126.384933L483.5,126.973381L476.974182,128.85199C460.914398,133.475189,446.820709,144.521606,427.792297,167.399948L417.894836,179.299896L413.697418,182.499374C408.101135,186.765137,403.705719,189.069336,396.55011,191.48848L390.60025,193.5L386.815613,200.5L383.031006,207.5L383.015503,210.214813L383,212.929626L384.934265,213.964813L386.86853,215L391.556702,215L396.244904,215L395.207489,216.25L394.170074,217.5L400.335022,217.548523L406.5,217.597046L412.5,220.618546L418.5,223.64006L420.383484,223.221008L422.266937,222.801941L424.515228,225.621552L426.763489,228.441162L428.251617,227.206131L429.739746,225.971085L430.357574,229.73555L430.975372,233.5L432.972992,236.75L434.970612,240L435.985291,240L437,240L437,235.21199z"/>
</svg>
