<?xml version="1.0" encoding="UTF-8"?>
<svg xmlns="http://www.w3.org/2000/svg" width="176.643mm" height="594.597mm" viewBox="-1348.223267 -866.424072 176.643433 594.596802">
    <path transform="matrix(-0.571444,0,0,-0.571444,-1002.852905,-239.073761)" style="stroke:#000000;stroke-width:0.05mm;fill:none" d="M416.164093,1096.790039C402.580841,1095.656616,396.232605,1093.524414,393.27356,1089.102173C391.259094,1086.091431,390.976135,1084.325073,390.790497,1073.602173C390.675262,1066.945923,390.636169,1059.925049,390.703583,1058C390.770996,1056.074951,390.872833,1033.125,390.929901,1007C390.997681,975.978577,391.430084,957.418518,392.1763,953.5C392.804779,950.200012,393.337128,943.450012,393.359344,938.5C393.39386,930.799377,392.793243,927.429077,389.199158,915.15564C386.888855,907.266235,385.216583,900.458557,385.483032,900.027466C385.749451,899.596375,384.827026,895.476318,383.433197,890.871826C373.618164,858.448181,373.057251,839.777466,380.958771,808.506592C384.374786,794.987488,384.99469,790.965027,384.965576,782.506592C384.935944,773.890991,384.531586,771.487183,382.056671,765.213806C380.475708,761.206421,377.957062,756.321411,376.459686,754.358276C374.96228,752.395081,367.608795,746.263245,360.118561,740.731995C338.439972,724.723083,336.829254,723.451782,330.452881,717.317505C314.099792,701.585327,301.724976,678.977783,297.627869,657.349609C295.065948,643.825562,294.757629,633.510315,295.883789,599C296.485046,580.575012,297.21933,558.075012,297.515533,549C299.304474,494.189026,301.111664,434.597168,301.97348,402C302.518768,381.375,303.206116,358.200012,303.500977,350.5C303.795807,342.799988,304.487885,319.399994,305.038971,298.5C305.590027,277.600006,306.762054,238.675003,307.643494,212C308.524902,185.324997,309.176147,158.237061,309.090668,151.804596C308.898987,137.376343,306.111633,119.780693,301.873993,106.247887L298.663666,95.995773L300.987823,89.036507C305.926483,74.24839,314.584595,68.347809,336.937408,64.536522C369.299103,59.018654,436.934143,55.933853,482,57.920288C527.229126,59.913921,563.036194,63.935287,577.268005,68.619499C591.099731,73.172043,601.733215,81.912033,603.897461,90.507172C604.848633,94.28447,604.574097,96.123886,601.500244,106.570068C593.905457,132.380325,593.492371,135.813995,593.568542,172.5C593.606262,190.649994,594.177002,228.899994,594.836853,257.5C598.227417,404.456177,601.294556,568.476135,601.391235,608C601.497803,651.60022,601.452271,652.692078,599.139648,662C591.1651,694.096191,575.351135,715.087585,539.802002,740.764526C522.025696,753.604187,518.067017,757.532227,515.211365,765.164612C509.998169,779.098145,509.926361,789.192932,514.895935,809.5C519.277466,827.403992,520.375732,836.724243,519.661438,849.941467C518.924438,863.578369,516.601135,875.244568,511.495544,890.944946C509.448578,897.239685,507.657379,903.539673,507.515106,904.944946C507.178894,908.265747,505.293823,916.63678,502.807892,925.848206C500.407288,934.743469,500.489532,930.529602,501.046783,1016.07312L501.5,1085.646118L499.010834,1089.279053C495.725006,1094.074585,491.549591,1095.72876,479.51059,1097.004028C468.166718,1098.205688,431.649414,1098.082397,416.164093,1096.790039z"/>
    <path transform="matrix(-1,0,0,-1,0,0)" style="stroke:none;fill:#808080;fill-rule:evenodd" d="M1271.707031,566.194336C1271.437744,565.53009,1271.724731,565.007629,1272.358765,565.007629C1272.81958,565.007629,1272.995972,565.148743,1273.058594,565.567566C1273.182495,566.397339,1272.009766,566.941162,1271.707031,566.194336z"/>
    <path transform="matrix(-1,0,0,-1,0,0)" style="stroke:none;fill:#808080;fill-rule:evenodd" d="M1293.055908,573.185913C1292.816772,571.535034,1292.862061,570.98999,1293.238281,570.98999C1293.440918,570.98999,1293.639771,571.353271,1293.730225,571.888794C1293.939941,573.130371,1294.610718,573.628052,1296.247681,573.756592L1297.606812,573.863281L1297.606812,571.942566L1297.606812,570.021851L1296.821899,570.095337C1296.191895,570.154358,1295.984131,570.315979,1295.768677,570.91449C1295.269531,572.301636,1295.128662,572.014099,1295.128662,569.607605C1295.128662,568.068054,1295.217407,567.260559,1295.376465,567.353638C1295.512695,567.43335,1295.624268,567.680054,1295.624268,567.901794C1295.624268,568.579651,1296.355713,569.347778,1297.001343,569.347778C1297.599243,569.347778,1297.606812,569.320801,1297.606812,567.207275L1297.606812,565.066833L1296.241943,565.17395C1294.577759,565.304626,1293.741455,565.949585,1293.355713,567.400146C1292.967896,568.858093,1292.650391,568.408569,1292.650391,566.401367L1292.650391,564.655701L1296.491699,564.655701C1300.015381,564.655701,1301.223999,564.862305,1299.749512,565.212646C1299.230591,565.335938,1299.148804,565.526489,1299.007813,566.938965C1298.806519,568.957581,1298.799561,572.71405,1298.996338,573.199524C1299.079102,573.403564,1299.413696,573.570557,1299.739868,573.570557C1300.101807,573.570557,1300.332886,573.707703,1300.332886,573.922485C1300.332886,574.218933,1299.772095,574.274414,1296.773193,574.274414L1293.213501,574.274414L1293.055908,573.185913z"/>
    <path transform="matrix(-1,0,0,-1,0,0)" style="stroke:none;fill:#808080;fill-rule:evenodd" d="M1248.222046,584.775024C1247.385132,584.391602,1246.886963,583.605835,1246.877563,582.654602C1246.872559,582.153625,1246.910522,581.987183,1247.133423,581.531677C1247.277466,581.237488,1247.656738,580.660889,1247.976318,580.250305C1248.697632,579.323364,1249.182251,578.431091,1249.655762,577.157471C1249.959839,576.339661,1250.078857,576.120544,1250.356445,575.867249C1250.984985,575.293396,1251.91394,575.145386,1252.795288,575.478638C1253.564697,575.769592,1254.093262,576.386414,1254.762085,577.774048C1255.459961,579.221863,1255.878418,579.688293,1256.713989,579.949829C1257.019165,580.045349,1257.299805,580.123474,1257.337769,580.123474C1257.577759,580.123474,1254.396851,572.47821,1252.388794,568.228638C1251.160767,565.630127,1249.29834,562.286621,1248.346313,560.971741C1248.105957,560.639709,1247.92041,560.356384,1247.93396,560.342102C1247.94751,560.32782,1248.241699,560.375427,1248.587646,560.447815C1250.071533,560.758423,1251.337402,560.239685,1251.891724,559.093872C1252.526611,557.781738,1251.802612,556.01947,1250.473999,555.643066C1249.834839,555.461975,1249.637817,555.465515,1249.104248,555.667847C1248.040771,556.071045,1247.441162,557.401245,1247.885498,558.371704C1248.316284,559.312439,1249.424194,559.746765,1250.272583,559.307495C1250.904785,558.980103,1251.204224,558.285583,1251.015259,557.584534C1250.888184,557.113159,1250.413208,556.61731,1250.016602,556.541931C1249.124878,556.372375,1248.436035,557.467224,1249.00415,558.151306C1249.353271,558.571777,1249.962891,558.597595,1250.112671,558.198242C1250.218872,557.915466,1250.079834,557.5979,1249.821167,557.532104C1249.650269,557.488647,1249.613525,557.43512,1249.633545,557.259399C1249.674438,556.902466,1250.043823,556.915466,1250.410156,557.286682C1250.68689,557.567139,1250.702637,557.611511,1250.665527,558.003357C1250.596069,558.736267,1249.999634,559.166321,1249.279419,559.00293C1248.623291,558.854065,1248.140625,558.066467,1248.261475,557.341797C1248.456299,556.17334,1249.597534,555.652771,1250.692993,556.232666C1251.049438,556.421387,1251.174072,556.548462,1251.365845,556.918945C1251.578735,557.330078,1251.598633,557.437866,1251.573853,558.045654C1251.550415,558.621155,1251.510864,558.776245,1251.298096,559.124817C1251.144165,559.377014,1250.896851,559.627625,1250.647827,559.78363C1250.286499,560.01001,1250.179199,560.035156,1249.582886,560.033752C1249.026489,560.03241,1248.853027,559.996643,1248.50415,559.811462C1248.029785,559.55957,1247.527954,559.034851,1247.337158,558.591309C1247.254028,558.397888,1247.208618,558.060364,1247.21167,557.656982C1247.222534,556.172729,1248.177979,555.126587,1249.618042,555.022156C1251.087524,554.915649,1252.060547,555.578857,1252.490967,556.980225C1252.572876,557.246643,1252.680054,558.013977,1252.732178,558.706055C1252.895996,560.882385,1253.179688,562.360535,1253.755127,564.035583C1254.068237,564.947144,1254.962036,567.154663,1255.432129,568.177673L1255.733643,568.83374L1256.63623,567.656006C1257.132568,567.008301,1257.529907,566.442932,1257.519165,566.399719C1257.508423,566.356506,1256.924194,565.513916,1256.220825,564.527283C1255.517456,563.540649,1254.953735,562.683899,1254.96814,562.623413C1255.016357,562.419556,1258.44104,556.671753,1258.503418,556.690063C1258.537354,556.700073,1259.359131,558.049255,1260.329712,559.688293L1262.094482,562.668396L1260.781128,564.51947C1260.058716,565.537598,1259.467773,566.399841,1259.467773,566.435608C1259.467773,566.575745,1261.236694,568.794189,1261.299438,568.732666C1261.395996,568.637939,1262.670654,565.603333,1263.065918,564.5271C1263.77417,562.598694,1264.060669,561.215576,1264.263794,558.746033C1264.378662,557.349182,1264.469238,556.907959,1264.756836,556.34436C1264.978149,555.910828,1265.383301,555.50238,1265.822021,555.270569C1266.191284,555.075439,1266.334961,555.0495,1267.060669,555.04718C1267.776611,555.044861,1267.939209,555.072083,1268.333008,555.260254C1269.221191,555.684631,1269.705811,556.444153,1269.787598,557.539734C1269.830933,558.120544,1269.816528,558.197815,1269.568604,558.708069C1268.89917,560.08606,1267.148071,560.51709,1266.082153,559.566345C1265.576904,559.115662,1265.347168,558.535034,1265.396851,557.834167C1265.479736,556.664307,1266.141602,556.001099,1267.226318,556.001099C1267.915161,556.001099,1268.352295,556.2948,1268.616333,556.935303C1268.996704,557.857849,1268.519653,558.863586,1267.620483,559.034485C1266.80127,559.190247,1266.05957,558.323547,1266.367554,557.570313C1266.546265,557.132996,1267.261353,556.817017,1267.377686,557.124023C1267.441284,557.292175,1267.355469,557.498352,1267.221924,557.498352C1266.862427,557.498352,1266.725342,558.145203,1267.037842,558.367004C1267.280273,558.539063,1267.498169,558.529846,1267.814941,558.334167C1268.314941,558.025208,1268.328125,557.219849,1267.840088,556.803711C1267.487061,556.502686,1267.17627,556.458984,1266.749512,556.650269C1265.775879,557.08667,1265.680908,558.687134,1266.594482,559.262756C1267.03125,559.538025,1267.826294,559.529602,1268.329346,559.244507C1269.62085,558.512451,1269.526001,556.583252,1268.160034,555.798035C1267.788452,555.584412,1267.631714,555.544189,1267.183838,555.547302C1266.121826,555.554688,1265.359497,556.126587,1265.047607,557.150085C1264.724609,558.2099,1264.910767,559.106934,1265.593506,559.780273C1266.035156,560.215942,1266.422974,560.396667,1267.129883,560.496277C1267.618286,560.565125,1267.861572,560.555847,1268.37207,560.449036C1268.721191,560.375916,1269.020874,560.330444,1269.038086,560.347839C1269.055298,560.365295,1268.909302,560.6026,1268.713623,560.875183C1266.851929,563.467773,1264.157349,568.856201,1261.396606,575.506958C1260.64856,577.309143,1259.631958,579.912903,1259.631958,580.026733C1259.631958,580.147217,1260.045166,580.069702,1260.552368,579.854126C1261.150024,579.600098,1261.591919,579.048584,1262.248657,577.736877C1262.894897,576.446472,1263.335083,575.905457,1264.029419,575.548523C1264.36731,575.374817,1264.548828,575.340759,1265.131592,575.341553C1266.338745,575.343323,1266.826294,575.745483,1267.347534,577.169373C1267.768066,578.318298,1268.309692,579.342285,1268.870972,580.05011C1269.89502,581.34137,1270.202759,582.050964,1270.11438,582.917908C1270.059204,583.459961,1269.715698,584.129272,1269.325317,584.455322C1268.464722,585.174194,1266.946533,585.078186,1266.335327,584.266174C1265.67749,583.39209,1265.73999,582.432678,1266.495972,581.799927C1266.920044,581.445007,1267.310669,581.343323,1267.8125,581.457275C1268.339844,581.577087,1268.69873,581.871094,1268.869019,582.322754C1269.051392,582.806702,1268.977051,583.209961,1268.635742,583.58728C1268.158569,584.11499,1267.31189,584.028015,1267.06189,583.425659C1266.848755,582.912048,1267.302979,582.627563,1267.553223,583.117981C1267.72168,583.448181,1268.100464,583.467285,1268.30188,583.155762C1268.498535,582.851685,1268.339478,582.33844,1267.979614,582.11615C1267.219238,581.646301,1266.361206,582.306763,1266.469238,583.278687C1266.502808,583.579529,1266.574707,583.712769,1266.838135,583.961731C1267.656006,584.734863,1268.829712,584.505493,1269.292114,583.482178C1269.532104,582.950806,1269.562866,582.350647,1269.369263,581.972595C1269.197144,581.636353,1268.697266,581.261414,1268.139648,581.050354C1267.229614,580.705811,1266.859619,580.693787,1258.113403,580.724304C1249.157471,580.755493,1249.571289,580.736755,1248.591431,581.155945C1247.967163,581.423035,1247.483276,582.035278,1247.483276,582.558044C1247.483276,583.40863,1248.007446,584.172668,1248.725098,584.36853C1249.151489,584.484863,1249.454834,584.429382,1249.927979,584.148315C1250.551758,583.777954,1250.732422,583.075256,1250.369019,582.433044C1249.990845,581.764587,1248.963745,581.82489,1248.68457,582.531982C1248.501953,582.994568,1248.630249,583.313416,1249.01416,583.351318C1249.22229,583.371826,1249.305664,583.328125,1249.450195,583.122559C1249.75647,582.686584,1250.149536,582.858887,1249.977783,583.353882C1249.879639,583.63678,1249.414185,583.949829,1249.092407,583.949463C1248.758423,583.949036,1248.343994,583.686829,1248.185059,583.375305C1248.006714,583.025757,1248.022461,582.405457,1248.218018,582.084839C1248.518921,581.591431,1249.294678,581.299072,1249.879517,581.458679C1250.237549,581.556335,1250.796387,582.025208,1250.977295,582.379761C1251.140625,582.699829,1251.12207,583.423889,1250.940308,583.829651C1250.756348,584.239807,1250.185059,584.752563,1249.787109,584.864624C1249.307495,584.999634,1248.627319,584.960693,1248.222046,584.775024M1268.257935,580.185852C1268.162598,580.03717,1267.872681,579.552307,1267.613647,579.108398C1267.354614,578.66449,1267.123047,578.2995,1267.098877,578.297363C1267.074707,578.295227,1266.991089,578.403015,1266.913086,578.536926C1266.725586,578.858521,1266.304565,579.11377,1265.859741,579.175537C1264.899414,579.30896,1263.978394,578.580933,1263.984253,577.693115C1263.988525,577.047913,1264.532471,576.378662,1265.049561,576.382446C1265.453247,576.385437,1265.950195,576.687195,1266.083374,577.010132C1266.281616,577.490906,1266.052856,578.210327,1265.701782,578.210327C1265.464966,578.210327,1265.416626,577.993774,1265.583374,577.679993C1265.754517,577.357849,1265.659912,577.087036,1265.331909,576.960693C1264.946167,576.812073,1264.606323,577.056824,1264.52063,577.544861C1264.377441,578.35968,1265.34668,578.969055,1266.162231,578.576904C1266.675293,578.330139,1266.928467,577.416565,1266.662476,576.771484C1266.520508,576.427246,1266.052856,576.010864,1265.660889,575.879822C1265.045044,575.673828,1264.138916,575.944275,1263.708618,576.462463C1263.283936,576.973938,1263.195679,577.934326,1263.516724,578.55072C1263.908569,579.303162,1264.647949,579.671692,1266.435913,580.00592C1267.050415,580.120789,1267.737793,580.265686,1267.963623,580.327881C1268.189331,580.390137,1268.386841,580.444458,1268.402588,580.448608C1268.418335,580.452759,1268.353149,580.334534,1268.257935,580.185852M1249.347656,580.248718C1249.628174,580.181702,1250.280151,580.051331,1250.796631,579.959106C1252.090576,579.727905,1252.602539,579.515869,1253.116577,578.99823C1253.449951,578.662476,1253.555298,578.489014,1253.623535,578.163574C1253.767212,577.478882,1253.577515,576.748779,1253.144531,576.319824C1252.215942,575.399841,1250.590332,575.772949,1250.269653,576.979614C1249.968994,578.11145,1250.870483,579.015259,1251.875732,578.5896C1252.572021,578.294861,1252.703369,577.224182,1252.075562,576.960693C1251.554565,576.742004,1251.156372,577.264709,1251.472168,577.752991C1251.598999,577.949219,1251.600464,577.983398,1251.486328,578.09906C1251.199341,578.389893,1250.848877,577.995056,1250.848877,577.380981C1250.848877,576.526733,1252.007446,576.07019,1252.593994,576.693298C1253.632935,577.796875,1252.453857,579.540894,1250.946899,579.129639C1250.567017,579.026001,1250.065796,578.62854,1249.983521,578.365784C1249.941528,578.231689,1249.830566,578.368103,1249.421387,579.057129C1249.140991,579.529236,1248.844604,580.018433,1248.762573,580.144226C1248.585205,580.416748,1248.619141,580.422791,1249.347656,580.248718M1259.425659,564.019897C1259.905273,563.306335,1260.286377,562.675842,1260.272583,562.618713C1260.258789,562.561646,1259.859741,561.836304,1259.385742,561.006836C1258.635254,559.693848,1258.510376,559.516968,1258.419922,559.639099C1258.362793,559.716309,1257.944336,560.426514,1257.48999,561.217407L1256.663818,562.655396L1257.423706,563.799194C1258.394897,565.260986,1258.430786,565.311584,1258.497681,565.314697C1258.528564,565.316162,1258.946045,564.733459,1259.425659,564.019897M1259.581299,569.213745C1259.012207,568.443176,1258.522949,567.814331,1258.494141,567.816345C1258.465332,567.818359,1257.976807,568.445313,1257.408691,569.209656L1256.37561,570.599304L1257.370972,573.676941C1257.918457,575.36969,1258.397827,576.829529,1258.436279,576.921021C1258.48938,577.047424,1258.759644,576.309814,1259.561035,573.851074L1260.615967,570.614746L1259.581299,569.213745"/>
    <path transform="matrix(-1,0,0,-1,0,0)" style="stroke:none;fill:#808080;fill-rule:evenodd" d="M1276.563965,572.397583C1276.563965,570.964905,1276.644287,570.520752,1276.903442,570.520752C1277.123169,570.520752,1277.28833,570.902405,1277.371704,571.602722C1277.514038,572.797974,1278.058716,573.456909,1279.104126,573.698547L1279.785645,573.856079L1279.785645,569.712891L1279.785645,565.569702L1279.042114,565.324341C1277.740601,564.894836,1278.235352,564.655701,1280.425781,564.655701C1281.991699,564.655701,1282.526245,564.731384,1282.451904,564.942505C1282.396362,565.10022,1282.080444,565.289673,1281.749756,565.363403L1281.14856,565.497559L1281.080933,569.651367C1281.015869,573.647461,1281.031738,573.805176,1281.500854,573.805176C1282.423096,573.805176,1283.292847,572.826233,1283.435547,571.62738C1283.52124,570.907532,1283.686035,570.520752,1283.90686,570.520752C1284.166016,570.520752,1284.246338,570.964905,1284.246338,572.397583L1284.246338,574.274414L1280.405151,574.274414L1276.563965,574.274414L1276.563965,572.397583z"/>
    <path transform="matrix(-1,0,0,-1,0,0)" style="stroke:none;fill:#808080;fill-rule:evenodd" d="M1286.717529,574.076965C1286.175049,573.78125,1285.976807,573.75824,1285.891357,573.98114C1285.587646,574.77356,1285.324707,574.093201,1285.324707,572.514893C1285.324707,571.547119,1285.412109,570.755371,1285.519043,570.755371C1285.625854,570.755371,1286.044067,571.415161,1286.448364,572.221619C1287.144653,573.610779,1287.233521,573.691772,1288.136963,573.762085C1289.302124,573.852722,1290.033203,573.312622,1290.033203,572.361206C1290.033203,571.994141,1289.817383,571.489502,1289.553711,571.239807C1289.11792,570.827332,1287.617798,570.29071,1286.891113,570.287476C1286.730469,570.286743,1286.200806,569.930603,1285.713989,569.495972C1284.892334,568.76239,1284.828979,568.60614,1284.828979,567.313293C1284.828979,566.046082,1284.902588,565.853271,1285.64624,565.170959C1286.332397,564.541321,1286.652222,564.421082,1287.641113,564.421082C1288.288818,564.421082,1289.170776,564.593445,1289.600952,564.804016C1290.141846,565.068787,1290.411987,565.10498,1290.476685,564.921326C1290.528076,564.775208,1290.728149,564.655701,1290.921265,564.655701C1291.194824,564.655701,1291.272339,565.069702,1291.272339,566.532532C1291.272339,568.410706,1290.957153,569.017456,1290.655884,567.719116C1290.378296,566.522522,1289.186035,565.202759,1288.229126,565.032776C1287.758667,564.949219,1287.213501,564.939087,1287.017578,565.010254C1286.578979,565.169617,1285.820313,566.34967,1285.820313,566.87262C1285.820313,567.522217,1286.910278,568.334412,1288.319824,568.735107C1289.79541,569.154602,1290.219238,569.41333,1290.849976,570.279724C1291.651855,571.381042,1291.213989,573.324341,1289.979492,574.142822C1289.273193,574.611145,1287.636597,574.578125,1286.717529,574.076965z"/>
    <path transform="matrix(-1,0,0,-1,0,0)" style="stroke:none;fill:#808080;fill-rule:evenodd" d="M1270.993164,573.746521C1269.939331,572.885864,1269.723511,571.273193,1270.42688,569.514709C1270.77832,568.636292,1271.310303,568.409424,1273.020508,568.408875L1274.461792,568.408386L1274.384033,571.011292C1274.31543,573.302673,1274.359985,573.652771,1274.755737,573.936829C1275.150757,574.220337,1274.989014,574.260376,1273.422363,574.266907C1271.92334,574.273193,1271.536621,574.190369,1270.993164,573.746521M1273.34668,571.341858L1273.34668,568.87854L1272.641602,568.87854C1271.482056,568.87854,1270.99231,569.623535,1270.99231,571.387207C1270.99231,572.702698,1271.071411,572.968872,1271.577393,573.356689C1271.89917,573.603394,1272.428833,573.805176,1272.754517,573.805176C1273.341187,573.805176,1273.34668,573.782532,1273.34668,571.341858"/>
    <path transform="matrix(-1,0,0,-1,0,0)" style="stroke:none;fill:#808080;fill-rule:evenodd" d="M1243.28833,569.593018L1243.28833,565.380798L1242.420898,565.226746C1241.924194,565.138489,1241.553589,564.933472,1241.553589,564.746887C1241.553589,564.490601,1242.082397,564.421082,1244.031738,564.421082C1246.035034,564.421082,1246.509888,564.486511,1246.509888,564.76239C1246.509888,564.966675,1246.161743,565.165466,1245.642578,565.25769L1244.775146,565.411743L1244.775146,568.904663L1244.775146,572.397583L1245.642578,572.397583C1246.851318,572.397583,1246.724854,572.74884,1245.388428,573.103088C1244.771484,573.266602,1244.207275,573.491455,1244.134644,573.602783C1244.062012,573.714111,1243.841797,573.805176,1243.645386,573.805176C1243.347656,573.805176,1243.28833,573.104126,1243.28833,569.593018z"/>
    <path transform="matrix(-1,0,0,-1,0,0)" style="stroke:none;fill:#808080;fill-rule:evenodd" d="M1228.436523,569.602966L1228.436523,565.400757L1227.432617,565.240173C1225.572266,564.942688,1226.459961,564.542603,1229.138184,564.471558C1231.236816,564.415894,1231.658203,564.463135,1231.658203,564.75415C1231.658203,564.967834,1231.321045,565.163513,1230.790771,565.25769L1229.923462,565.411743L1229.923462,568.904663L1229.923462,572.397583L1230.790771,572.397583C1231.999634,572.397583,1231.873047,572.74884,1230.536621,573.103088C1229.9198,573.266602,1229.355591,573.491455,1229.282837,573.602783C1229.210205,573.714111,1228.98999,573.805176,1228.793579,573.805176C1228.495972,573.805176,1228.436523,573.105408,1228.436523,569.602966z"/>
    <path transform="matrix(-1,0,0,-1,0,0)" style="stroke:none;fill:#808080;fill-rule:evenodd" d="M1234.994995,573.75647C1233.708252,573.057861,1233.503174,571.619019,1234.511963,570.366943C1234.941284,569.834229,1235.034668,569.582336,1234.802979,569.582336C1234.615356,569.582336,1234.21936,569.338013,1233.923096,569.039368C1233.260864,568.372192,1233.174805,566.450684,1233.770996,565.644958C1235.190308,563.726624,1239.277832,564.13269,1239.921143,566.255981C1240.209351,567.207458,1239.628174,568.526184,1238.754639,568.903015L1238.173584,569.153564L1238.876709,569.819153C1240.117432,570.993713,1239.733032,572.884888,1238.090088,573.689209C1237.245361,574.102722,1235.694946,574.136414,1234.994995,573.75647M1238.051758,573.006104C1238.481812,572.59906,1238.498047,571.334961,1238.079468,570.857483C1237.918213,570.673462,1237.338745,570.395996,1236.79187,570.240906C1235.86853,569.979065,1235.764404,569.997559,1235.334351,570.500427C1234.664795,571.283142,1234.71521,572.734009,1235.428711,573.219788C1236.076294,573.660645,1237.481323,573.546204,1238.051758,573.006104M1238.183228,568.392334C1238.684937,568.018799,1238.836182,567.698547,1238.836182,567.010681C1238.836182,565.806152,1238.209106,565.123047,1236.975098,564.983643C1235.769897,564.847473,1234.835327,565.271912,1234.529907,566.093994C1234.140625,567.141907,1234.528198,567.922119,1235.685303,568.419373C1237.019043,568.992554,1237.382446,568.988586,1238.183228,568.392334"/>
    <path transform="matrix(-1,0,0,-1,0,0)" style="stroke:none;fill:#808080;fill-rule:evenodd" d="M1220.227173,573.373596C1220.687012,572.531799,1221.411743,572.288879,1222.96814,572.454956C1224.146729,572.580688,1224.325928,572.37738,1224.333374,570.906189C1224.336182,570.356873,1224.258545,570.267639,1223.903076,570.41156C1222.492676,570.982544,1220.742798,570.57135,1219.996826,569.493591C1219.351685,568.561401,1219.256836,567.20166,1219.766235,566.185608C1220.367676,564.985718,1221.41687,564.423096,1223.05481,564.421997C1224.184082,564.421265,1224.479614,564.520264,1225.099243,565.106873C1226.066406,566.022461,1226.122925,567.351868,1225.211426,567.745056C1224.085693,568.230652,1223.348145,567.032715,1224.248291,566.180603C1224.619629,565.829102,1224.62085,565.762573,1224.263184,565.42395C1223.207642,564.424683,1221.312378,565.415588,1220.969482,567.146057C1220.450684,569.764038,1223.736084,571.11731,1224.734985,568.697083C1224.749512,568.661804,1224.928711,568.693665,1225.133179,568.767944C1225.457642,568.885803,1225.462646,569.072571,1225.172485,570.239685C1224.989746,570.974915,1224.838379,572.142151,1224.836304,572.833557L1224.832397,574.090637L1224.150879,573.894287C1223.259399,573.637451,1220.868774,573.64325,1220.284668,573.903687C1219.846802,574.098877,1219.844116,574.074768,1220.227173,573.373596z"/>
</svg>
