<?xml version="1.0" encoding="UTF-8"?>
<svg xmlns="http://www.w3.org/2000/svg" width="407.211mm" height="296.973mm" viewBox="-1087.234375 -904.714844 407.210938 296.972656">
    <path transform="matrix(-1,0,0,-1,0,0)" style="stroke:#000000;stroke-width:0.05mm;fill:none" d="M978.875,607.753906C983.408875,607.799316,987.936951,608.097839,992.4375,608.648438C993.387024,608.782227,994.330505,608.95575,995.265625,609.167969C996.592346,609.539978,997.846497,610.133484,998.976563,610.921875C1000.557983,611.977051,1001.935547,613.309082,1003.046875,614.851563C1003.487,615.486572,1003.82312,616.187866,1004.039063,616.929688C1004.135315,617.305847,1004.17749,617.693848,1004.167969,618.082031C1004.185303,618.191895,1004.205994,618.301147,1004.242188,618.40625C1004.281128,618.499329,1004.320862,618.592041,1004.363281,618.683594C1004.422791,618.758789,1004.478088,618.837036,1004.535156,618.914063C1004.785278,619.157593,1005.113586,619.303528,1005.460938,619.339844C1006.155579,619.388916,1006.852966,619.321838,1007.527344,619.148438C1008.8349,618.771118,1010.117432,618.312012,1011.367188,617.773438C1013.272034,617.119995,1015.25592,616.725769,1017.265625,616.597656C1020.331299,616.336182,1023.418823,616.595947,1026.398438,617.363281C1027.401367,617.641235,1028.361328,618.055908,1029.25,618.597656C1029.727905,618.909973,1030.128784,619.326477,1030.421875,619.816406C1030.509521,620.045166,1030.610962,620.268372,1030.726563,620.484375C1031.213623,621.147217,1031.802368,621.72876,1032.46875,622.210938C1033.209229,622.786255,1033.995605,623.299988,1034.820313,623.746094C1036.048096,624.472229,1037.143555,625.401306,1038.0625,626.492188C1039.261353,627.983398,1040.004028,629.788818,1040.207031,631.691406C1040.433105,633.531677,1040.388184,635.395325,1040.074219,637.222656C1039.662964,639.965515,1039.01709,642.668091,1038.144531,645.300781C1036.799805,649.583191,1035.25769,653.801392,1033.523438,657.941406C1033.195679,658.826904,1032.854614,659.706909,1032.5,660.582031C1032.411865,660.851501,1032.348022,661.128357,1032.316406,661.410156C1032.325439,661.442627,1032.333008,661.475769,1032.34375,661.507813C1032.378418,661.519714,1032.413574,661.530273,1032.449219,661.539063C1032.61499,661.466431,1032.768433,661.368591,1032.898438,661.242188C1033.329102,660.892456,1033.748047,660.528381,1034.152344,660.148438C1034.497192,659.855652,1034.884521,659.61676,1035.304688,659.449219C1035.360107,659.436951,1035.416382,659.43103,1035.472656,659.425781C1035.566162,659.46759,1035.655518,659.517639,1035.738281,659.578125C1035.76001,659.61969,1035.782593,659.660583,1035.792969,659.707031C1035.87085,660.2052,1035.869629,660.712524,1035.792969,661.210938C1035.666016,662.020203,1035.563232,662.833069,1035.484375,663.648438C1035.443726,664.081726,1035.481567,664.519165,1035.601563,664.9375C1035.635864,665.019226,1035.673218,665.099548,1035.710938,665.179688L1035.789063,665.257813L1035.890625,665.316406C1035.975464,665.354553,1036.067261,665.372314,1036.160156,665.371094C1036.278198,665.365906,1036.39209,665.332764,1036.5,665.285156L1036.625,665.191406C1036.703735,665.123108,1036.775635,665.047607,1036.84375,664.96875C1036.920898,664.864563,1036.980347,664.748596,1037.019531,664.625L1037.082031,664.402344L1037.082031,664.230469C1037.098267,664.119263,1037.124634,664.010071,1037.15625,663.902344C1037.200684,663.786926,1037.260254,663.678528,1037.320313,663.570313C1037.731323,662.918213,1038.207642,662.309387,1038.746094,661.757813C1039.678955,660.71521,1040.71582,659.770447,1041.839844,658.9375L1042.050781,658.804688C1042.231079,658.710815,1042.418213,658.631348,1042.609375,658.5625L1042.65625,658.5625C1042.693848,658.583679,1042.7323,658.602844,1042.769531,658.625C1042.783569,658.722046,1042.791382,658.819885,1042.789063,658.917969C1042.560913,660.526123,1042.223633,662.116882,1041.78125,663.679688C1041.487793,664.872314,1041.258545,666.079773,1041.09375,667.296875C1041.005371,668.126404,1041.002563,668.962891,1041.085938,669.792969C1041.203369,670.521606,1041.456665,671.22168,1041.828125,671.859375L1041.914063,671.914063L1042.007813,671.925781C1042.072632,671.923828,1042.134277,671.897705,1042.183594,671.855469C1042.430664,671.41626,1042.631348,670.952332,1042.773438,670.46875C1042.959106,669.907288,1043.153198,669.348633,1043.355469,668.792969C1044.440552,666.195435,1046.013428,663.830322,1047.988281,661.824219C1048.303589,661.551208,1048.641479,661.30542,1048.996094,661.085938L1049.125,661.042969C1049.221436,661.047241,1049.317749,661.052734,1049.414063,661.054688C1049.461304,661.080811,1049.505615,661.111328,1049.550781,661.140625L1049.609375,661.214844C1049.671143,661.352112,1049.716797,661.496033,1049.742188,661.644531L1049.761719,661.824219C1049.772827,662.292053,1049.720825,662.759399,1049.597656,663.210938C1049.334961,664.287231,1049.306152,665.40741,1049.511719,666.496094C1049.552002,666.644897,1049.600586,666.791321,1049.660156,666.933594C1049.721191,667.074585,1049.798706,667.207397,1049.882813,667.335938L1049.984375,667.425781L1050.097656,667.484375L1050.222656,667.496094L1050.34375,667.457031C1050.516479,667.354858,1050.675415,667.232056,1050.824219,667.097656C1051.384888,666.476196,1051.8927,665.809021,1052.339844,665.101563C1052.95166,664.145203,1053.642334,663.24176,1054.402344,662.398438L1054.59375,662.230469L1054.695313,662.152344L1054.867188,662.066406C1054.912598,662.061584,1054.95813,662.057739,1055.003906,662.058594L1055.058594,662.085938C1055.082275,662.127625,1055.113892,662.162842,1055.140625,662.203125C1055.15625,662.312683,1055.172852,662.42218,1055.191406,662.53125C1055.14978,663.255371,1055.043335,663.974182,1054.875,664.679688C1054.732666,665.582336,1054.774414,666.50415,1054.996094,667.390625C1055.034912,667.498474,1055.077148,667.605042,1055.121094,667.710938C1055.209106,667.894958,1055.348022,668.048218,1055.515625,668.164063L1055.640625,668.214844L1055.777344,668.234375C1055.874268,668.215759,1055.968018,668.183899,1056.058594,668.144531C1056.172485,668.073608,1056.277344,667.989807,1056.378906,667.902344C1056.974609,667.269165,1057.490356,666.56543,1057.917969,665.808594C1058.713745,664.595886,1059.647583,663.479492,1060.699219,662.480469C1062.302002,660.880005,1064.089355,659.47583,1066.023438,658.296875C1066.521729,658.018982,1067.047729,657.794067,1067.59375,657.628906C1067.773315,657.589478,1067.957275,657.572144,1068.140625,657.585938C1068.216797,657.614929,1068.294189,657.640747,1068.371094,657.667969C1068.483887,657.746155,1068.592163,657.83075,1068.691406,657.925781C1069.036377,658.448608,1069.209351,659.06543,1069.1875,659.691406C1069.154785,660.36676,1069.263428,661.042175,1069.519531,661.667969C1069.59668,661.827271,1069.696411,661.975037,1069.828125,662.09375C1069.889282,662.132568,1069.952515,662.167725,1070.015625,662.203125C1070.207642,662.283203,1070.4198,662.306091,1070.621094,662.253906C1070.751587,662.226257,1070.87561,662.172241,1070.980469,662.089844C1071.4552,661.803894,1071.880127,661.442993,1072.242188,661.023438C1072.782837,660.395569,1073.440918,659.879028,1074.179688,659.503906C1074.31897,659.4422,1074.459717,659.384094,1074.605469,659.339844C1074.810059,659.276428,1075.026367,659.266052,1075.238281,659.296875C1075.299683,659.322571,1075.362183,659.345032,1075.421875,659.375L1075.492188,659.441406L1075.550781,659.519531C1075.579468,659.577271,1075.602783,659.636902,1075.628906,659.695313C1075.640259,659.801758,1075.64209,659.908691,1075.640625,660.015625C1075.640869,660.064331,1075.633667,660.112061,1075.628906,660.160156C1075.510132,660.557068,1075.335815,660.934753,1075.121094,661.289063C1074.823486,661.848206,1074.590454,662.439148,1074.425781,663.050781L1074.394531,663.199219L1074.394531,663.421875L1074.4375,663.527344L1074.496094,663.621094C1074.541016,663.636597,1074.586914,663.648254,1074.632813,663.660156L1074.789063,663.632813L1074.9375,663.582031L1075.066406,663.519531C1075.690308,663.115601,1076.264771,662.639648,1076.773438,662.097656C1078.024658,660.706726,1079.453247,659.486145,1081.023438,658.46875C1082.295776,657.657166,1083.707397,657.087585,1085.1875,656.792969C1085.785889,656.69928,1086.393921,656.685608,1086.996094,656.75C1087.05249,656.779541,1087.112793,656.799072,1087.171875,656.824219C1087.195801,656.865173,1087.209717,656.908997,1087.234375,656.949219C1087.204346,657.059021,1087.160156,657.163879,1087.109375,657.265625C1086.715088,657.770142,1086.30835,658.264709,1085.890625,658.75C1085.069946,659.885193,1084.402832,661.123779,1083.90625,662.433594C1083.105713,664.511169,1082.453247,666.642883,1081.953125,668.8125C1081.237305,671.887939,1080.61438,674.984497,1080.085938,678.097656C1079.515503,681.425171,1078.790771,684.724121,1077.914063,687.984375C1077.468872,689.52179,1076.880249,691.013916,1076.15625,692.441406C1075.392944,693.861084,1074.42334,695.159546,1073.28125,696.296875C1071.827271,697.74939,1070.262573,699.086609,1068.601563,700.296875C1063.486328,704.131775,1058.256348,707.810425,1052.917969,711.328125C1049.745239,713.444946,1046.603638,715.60614,1043.492188,717.8125C1040.986572,719.615845,1038.550049,721.513,1036.1875,723.5C1034.339966,725.083008,1032.609009,726.79718,1031.007813,728.628906C1028.582397,731.462646,1026.639648,734.676025,1025.257813,738.140625C1024.85083,739.142883,1024.471558,740.15625,1024.121094,741.179688L1022.449219,746.035156C1023.79303,746.008911,1025.137207,746.017822,1026.480469,746.0625C1027.054077,746.088745,1027.621948,746.186462,1028.171875,746.351563C1028.267334,746.409485,1028.363647,746.466125,1028.457031,746.527344C1028.505737,746.576294,1028.546143,746.631653,1028.585938,746.6875L1028.636719,746.773438L1028.65625,746.871094L1028.652344,746.976563C1028.644165,747.049316,1028.630493,747.121216,1028.609375,747.191406C1028.567383,747.275269,1028.52478,747.358826,1028.480469,747.441406C1028.342773,747.650513,1028.178589,747.840088,1028.003906,748.019531C1027.562256,748.435791,1027.101807,748.831543,1026.625,749.207031C1025.538574,750.251221,1024.614624,751.452271,1023.882813,752.769531C1022.973938,754.330078,1022.273926,756.003235,1021.800781,757.746094C1021.662781,758.334167,1021.586731,758.93512,1021.574219,759.539063C1021.598694,759.80304,1021.675964,760.060303,1021.816406,760.285156L1021.953125,760.425781C1022.038269,760.476013,1022.132324,760.505371,1022.226563,760.535156L1022.335938,760.546875C1022.423035,760.538635,1022.495056,760.531738,1022.582031,760.523438C1023.034363,760.355164,1023.499084,760.221619,1023.972656,760.128906C1024.131104,760.109253,1024.290649,760.113953,1024.449219,760.128906C1024.533447,760.145752,1024.617554,760.163574,1024.699219,760.191406C1024.758911,760.232056,1024.819092,760.271973,1024.878906,760.3125C1024.935181,760.404602,1024.987549,760.498962,1025.039063,760.59375C1025.05188,760.677979,1025.055908,760.762817,1025.0625,760.847656L1025.035156,761.082031C1025.014648,761.223572,1024.973633,761.360291,1024.929688,761.496094C1024.804565,761.846375,1024.642578,762.182251,1024.449219,762.5C1024.104126,763.094727,1023.710938,763.660278,1023.269531,764.1875C1021.890015,765.887268,1020.738647,767.759949,1019.84375,769.757813C1019.338745,770.921692,1019.022034,772.158447,1018.90625,773.421875C1018.851196,773.900513,1018.875244,774.385315,1018.980469,774.855469C1019.024536,774.952576,1019.074036,775.046997,1019.125,775.140625L1019.230469,775.246094L1019.367188,775.320313L1019.511719,775.382813C1019.722412,775.415161,1019.935181,775.431152,1020.148438,775.425781C1020.773987,775.357361,1021.395996,775.258972,1022.011719,775.128906C1022.550842,775.035767,1023.099487,775.007446,1023.644531,775.054688C1023.727417,775.06073,1023.806885,775.085022,1023.886719,775.109375C1023.938416,775.13501,1023.98877,775.163208,1024.039063,775.191406L1024.066406,775.246094C1024.077026,775.276428,1024.083862,775.307678,1024.085938,775.339844C1024.058228,775.399048,1024.028809,775.45697,1024,775.515625C1023.524963,776.191101,1023.00415,776.83313,1022.441406,777.4375C1020.795227,779.23175,1019.10968,780.990234,1017.386719,782.710938C1016.945007,783.17511,1016.530029,783.664001,1016.144531,784.175781L1016.023438,784.390625L1015.925781,784.621094C1015.923401,784.671997,1015.926086,784.722717,1015.929688,784.773438C1015.955139,784.811462,1015.981628,784.849243,1016.007813,784.886719L1016.078125,784.929688C1016.251953,785.005737,1016.439636,785.039673,1016.628906,785.046875C1017.182068,785.048828,1017.734924,785.076355,1018.285156,785.132813C1018.781372,785.195496,1019.264709,785.33667,1019.714844,785.554688C1019.823364,785.614136,1019.929199,785.678406,1020.027344,785.753906L1020.121094,785.84375C1020.172607,785.989685,1020.237793,786.130005,1020.304688,786.269531L1020.226563,786.542969L1020.179688,786.613281C1020.113098,786.656555,1020.044006,786.695618,1019.972656,786.730469L1019.875,786.714844C1019.808044,786.722412,1019.743835,786.741821,1019.679688,786.761719C1019.550964,786.792175,1019.420471,786.813599,1019.289063,786.828125C1018.399231,787.050964,1017.556946,787.431702,1016.796875,787.945313L1016.359375,788.234375L1014.308594,789.667969C1015.582275,790.060303,1016.845642,790.484802,1018.097656,790.941406C1018.706055,791.177734,1019.278503,791.497925,1019.796875,791.894531C1019.945007,792.019226,1020.066345,792.171265,1020.167969,792.335938L1020.257813,792.535156C1020.271729,792.619263,1020.277405,792.704163,1020.285156,792.789063C1020.267395,792.873596,1020.248962,792.958008,1020.21875,793.039063L1020.152344,793.160156C1020.085266,793.240723,1020.016174,793.319092,1019.953125,793.402344C1019.553467,793.744995,1019.088196,794.002441,1018.585938,794.160156C1018.11731,794.337097,1017.641541,794.494324,1017.160156,794.632813C1016.19342,795.039734,1015.279358,795.561829,1014.4375,796.1875C1012.115723,797.897339,1009.907959,799.756775,1007.828125,801.753906C1006.150879,803.320923,1004.479004,804.901489,1002.820313,806.488281C1000.889771,808.294189,998.867554,809.999573,996.761719,811.597656C994.412354,813.312012,991.934998,814.843872,989.351563,816.179688C981.151733,820.544861,972.445618,823.883728,963.429688,826.121094C957.914307,827.525879,952.333618,828.65863,946.707031,829.515625C944.626099,829.857605,942.538452,830.157104,940.445313,830.414063C937.300842,830.704468,934.14856,830.898682,930.992188,830.996094C917.522644,831.464966,904.045349,831.567871,890.570313,831.304688C887.260864,831.247437,883.955261,831.145874,880.648438,831L877.328125,830.90625C873.403381,830.884644,869.483093,831.178345,865.605469,831.785156C862.222595,832.306213,858.847961,832.86322,855.476563,833.457031C846.765137,834.861694,838.007019,835.961304,829.21875,836.753906C826.067322,837.074097,822.928406,837.509338,819.808594,838.058594C818.663818,838.281006,817.533997,838.574402,816.425781,838.9375C814.89386,839.553406,813.464294,840.39856,812.1875,841.445313C810.417053,842.854919,808.800781,844.448181,807.367188,846.199219C805.451416,848.447388,803.649536,850.789856,801.96875,853.21875C799.667969,856.50415,797.424438,859.828369,795.238281,863.191406C792.145752,867.844116,788.915283,872.403198,785.550781,876.863281C784.563965,878.133667,783.527893,879.364807,782.445313,880.554688C781.685974,881.400635,781.006409,882.31488,780.414063,883.285156C780.295349,883.497131,780.1875,883.715027,780.089844,883.9375C779.809143,884.547668,779.781311,885.244141,780.011719,885.875C780.054199,886.063232,780.096985,886.249573,780.140625,886.4375C780.15741,886.547791,780.145935,886.661011,780.097656,886.761719C780.089783,886.804199,780.082031,886.848145,780.074219,886.890625L780.050781,886.964844C779.9729,887.082947,779.858398,887.169983,779.730469,887.230469C779.613647,887.278259,779.490601,887.305481,779.367188,887.332031C779.069702,887.376404,778.769287,887.400635,778.46875,887.390625C778.057129,887.404541,777.646973,887.44751,777.242188,887.523438C775.761658,887.892456,774.319214,888.400085,772.933594,889.039063C771.029175,889.874084,769.197571,890.866089,767.457031,892.003906C766.883911,892.379578,766.359985,892.825134,765.894531,893.328125L765.75,893.535156C765.739136,893.693359,765.699768,893.848511,765.632813,893.992188L765.59375,894.121094L765.539063,894.246094C765.448853,894.381104,765.348145,894.508789,765.230469,894.621094C764.798523,894.959656,764.2901,895.187622,763.75,895.285156C763.162781,895.339966,762.580994,895.443665,762.011719,895.597656L761.804688,895.675781C761.677368,895.729919,761.563599,895.809753,761.460938,895.902344L761.332031,896.039063C761.265503,896.152649,761.203308,896.268677,761.164063,896.394531C761.087891,896.749817,761.063782,897.114441,761.09375,897.476563C761.169006,898.146667,761.225159,898.818909,761.261719,899.492188C761.264343,899.664063,761.255981,899.83606,761.21875,900.003906L761.179688,900.121094C761.144592,900.160767,761.101929,900.192078,761.058594,900.222656L760.96875,900.210938L760.882813,900.191406C760.63623,900.040283,760.410706,899.857544,760.210938,899.648438C760.009644,899.460022,759.789673,899.292725,759.554688,899.148438C759.023254,898.789978,758.373657,898.647705,757.742188,898.757813C757.638916,898.804382,757.539429,898.858643,757.445313,898.921875L757.320313,899.027344C757.249268,899.108643,757.182068,899.193359,757.125,899.285156L757.054688,899.433594C757.008301,899.601868,756.983398,899.774902,756.976563,899.949219C756.96991,900.116638,756.938782,900.28241,756.875,900.4375L756.828125,900.535156C756.783691,900.585876,756.741394,900.638245,756.695313,900.6875L756.617188,900.742188C756.496765,900.798401,756.366943,900.828979,756.234375,900.835938C756.105286,900.835632,755.978088,900.814026,755.851563,900.789063C755.762939,900.767639,755.679565,900.730408,755.601563,900.683594C755.554504,900.667114,755.505737,900.657898,755.457031,900.648438C755.389038,900.638184,755.321472,900.625732,755.253906,900.613281L755.132813,900.605469C755.052063,900.607117,754.973877,900.624146,754.894531,900.636719C754.8172,900.670227,754.741638,900.707825,754.675781,900.761719C754.612,900.822632,754.554382,900.889526,754.507813,900.964844L754.457031,901.0625L754.417969,901.183594C754.382019,901.375549,754.362488,901.570435,754.375,901.765625C754.360046,902.068542,754.308167,902.368103,754.226563,902.660156C754.18512,902.719971,754.145325,902.780762,754.097656,902.835938L754.015625,902.898438L753.914063,902.929688C753.811768,902.903931,753.710327,902.876526,753.605469,902.867188C753.463379,902.792786,753.327332,902.70697,753.203125,902.605469C752.582031,902.044067,752.018982,901.421875,751.519531,900.75C751.242615,900.419006,750.927612,900.121765,750.582031,899.863281C750.476929,899.808289,750.370728,899.755432,750.257813,899.71875C750.038879,899.678894,749.813599,899.708557,749.609375,899.796875C748.703491,900.275452,748.010071,901.076111,747.660156,902.039063C747.505005,902.459534,747.422241,902.90332,747.421875,903.351563C747.417786,903.65863,747.336243,903.960144,747.183594,904.226563C747.131531,904.305969,747.07605,904.383118,747.011719,904.453125L746.851563,904.566406L746.679688,904.660156C746.596191,904.68866,746.509583,904.705872,746.421875,904.714844C746.328003,904.711487,746.234436,904.705017,746.140625,904.703125C745.742371,904.619751,745.371094,904.437683,745.066406,904.167969C744.577026,903.756226,744.178589,903.246765,743.898438,902.671875C743.655396,902.125,743.409424,901.579407,743.160156,901.035156C743.025635,900.771423,742.870361,900.518921,742.699219,900.277344L742.613281,900.210938C742.538635,900.179688,742.461426,900.155518,742.382813,900.136719L742.238281,900.15625L742.097656,900.199219C741.640076,900.512756,741.221924,900.880371,740.855469,901.296875C740.593079,901.571594,740.296814,901.812256,739.96875,902.003906L739.875,902.035156C739.833435,902.003601,739.796509,901.967468,739.753906,901.9375L739.707031,901.921875L739.664063,901.882813C739.650696,901.84436,739.647522,901.804871,739.640625,901.765625L739.648438,901.699219L739.609375,900.972656C739.573242,900.920776,739.538391,900.867981,739.507813,900.8125L739.484375,900.726563L739.496094,900.644531C739.426331,900.539185,739.34137,900.446167,739.257813,900.351563C738.801147,900.012268,738.274597,899.776672,737.714844,899.675781C736.785583,899.469666,735.845215,899.317017,734.898438,899.21875C731.699219,898.635376,728.606201,897.573792,725.722656,896.070313C722.786316,894.660217,719.788452,893.381653,716.738281,892.238281C715.434326,891.772339,714.203979,891.121643,713.085938,890.304688C712.214172,889.612366,711.453491,888.790771,710.832031,887.867188C709.742493,886.314819,708.843079,884.637329,708.152344,882.871094C707.581726,881.468506,707.175964,880.004395,706.945313,878.507813C706.775879,877.48468,706.626282,876.458557,706.496094,875.429688C701.664185,874.04895,696.841919,872.637817,692.027344,871.195313C689.769409,870.50708,687.538757,869.733215,685.339844,868.875C684.123169,868.38208,682.960266,867.766052,681.867188,867.039063C681.374634,866.677368,680.938782,866.244324,680.574219,865.753906L680.410156,865.480469C680.312378,865.292969,680.231812,865.097351,680.160156,864.898438C680.078491,864.638977,680.038147,864.369202,680.023438,864.097656L680.03125,863.597656C680.05719,863.265137,680.118164,862.93634,680.214844,862.617188C680.857239,860.400024,681.234558,858.114563,681.339844,855.808594L681.367188,855.59375C681.558655,854.76532,681.890198,853.975952,682.351563,853.261719C683.691345,851.117371,685.250061,849.118164,687.003906,847.296875C688.030151,846.216125,689.123352,845.200928,690.277344,844.257813C690.912109,843.76532,691.595154,843.338318,692.316406,842.984375C693.673523,842.368408,695.082886,841.874756,696.527344,841.507813C701.051392,840.311096,705.710999,839.703613,710.390625,839.699219C711.433167,839.711365,712.4729,839.588928,713.484375,839.335938C713.795593,839.247803,714.095398,839.123718,714.375,838.960938C714.511047,838.875366,714.644104,838.785095,714.761719,838.675781C714.834839,838.601379,714.902283,838.52179,714.96875,838.441406C715.16394,838.171143,715.269714,837.848328,715.289063,837.515625C715.2995,836.974365,715.196838,836.437073,714.988281,835.9375C714.637878,835.099243,714.224854,834.288635,713.753906,833.511719C713.527344,833.069946,713.341064,832.608582,713.199219,832.132813C713.203186,832.08075,713.205566,832.028625,713.199219,831.976563L713.175781,831.898438L713.144531,831.820313L713.144531,831.703125C713.155212,831.626038,713.168823,831.549561,713.179688,831.472656L713.214844,831.359375L713.273438,831.277344C713.322021,831.231445,713.373962,831.189331,713.429688,831.152344C713.542969,831.103821,713.662659,831.07196,713.785156,831.058594C714.065613,831.057678,714.345337,831.085388,714.621094,831.136719C714.89679,831.188232,715.166199,831.267334,715.429688,831.363281C716.164734,831.632935,716.904297,831.889404,717.648438,832.132813C717.843872,832.191162,718.043518,832.234253,718.246094,832.257813L718.402344,832.242188L718.550781,832.183594C718.56604,832.127441,718.590454,832.074951,718.609375,832.019531L718.597656,831.890625L718.574219,831.765625C718.130798,830.646118,717.680969,829.503845,717.242188,828.382813C717.206604,828.249878,717.181274,828.114319,717.179688,827.976563L717.242188,827.863281L717.3125,827.757813C717.487976,827.71344,717.670532,827.700012,717.847656,827.738281L718.03125,827.773438C718.570557,827.928772,719.111328,828.081116,719.652344,828.230469L719.785156,828.257813C719.917664,828.278259,720.052063,828.28595,720.183594,828.261719L720.285156,828.1875L720.382813,828.140625L720.433594,828.015625L720.46875,827.882813C720.463623,827.429382,720.400146,826.978333,720.273438,826.542969C719.925171,825.189209,719.410583,823.883911,718.742188,822.65625C718.347351,821.885254,717.914246,821.134521,717.445313,820.40625L715.316406,817.152344L717.878906,817.152344C718.784119,817.176392,719.68512,817.020142,720.527344,816.6875L720.699219,816.597656L720.851563,816.46875L720.90625,816.382813C720.942627,816.302612,720.96582,816.217285,720.96875,816.128906L720.988281,815.960938C720.952759,815.074158,720.826904,814.19342,720.613281,813.332031C720.322998,812.140991,720.004028,810.956787,719.65625,809.78125C719.411438,808.964844,719.239685,808.128296,719.144531,807.28125C719.136353,807.107666,719.147644,806.933838,719.171875,806.761719C719.193481,806.610718,719.231567,806.46228,719.296875,806.324219L719.394531,806.15625C719.474365,806.058105,719.564148,805.969238,719.65625,805.882813C719.848267,805.740845,720.058228,805.625977,720.277344,805.53125L720.621094,805.425781C721.172546,805.285217,721.754028,805.309937,722.289063,805.503906C722.376648,805.514038,722.463257,805.530518,722.550781,805.542969L722.652344,805.527344L722.742188,805.484375C722.798462,805.429321,722.835815,805.359741,722.859375,805.285156L722.894531,805.148438C722.906433,805.055115,722.910278,804.961182,722.910156,804.867188C722.831787,804.160706,722.695007,803.461975,722.503906,802.777344C722.276306,801.681946,722.134033,800.570557,722.078125,799.453125C721.91748,797.512024,721.926636,795.560608,722.105469,793.621094C722.149658,793.279541,722.221985,792.942139,722.324219,792.613281C722.361084,792.544739,722.403748,792.479797,722.445313,792.414063L722.578125,792.359375C722.972412,792.334351,723.366943,792.388611,723.746094,792.5C724.361816,792.643494,724.966431,792.830872,725.554688,793.0625C726.363831,793.379944,727.218201,793.566895,728.085938,793.617188L728.289063,793.609375L728.488281,793.589844C728.584229,793.571594,728.679138,793.548767,728.773438,793.523438L728.882813,793.472656L728.988281,793.371094C729.065979,793.286865,729.127258,793.189575,729.175781,793.085938C729.25769,792.908569,729.327637,792.725708,729.371094,792.535156C729.600525,791.404358,729.699707,790.251038,729.667969,789.097656C729.658447,786.310852,729.318665,783.535034,728.65625,780.828125C728.488403,780.233032,728.272156,779.65271,728.007813,779.09375L726.449219,776.15625C727.918396,776.428101,729.3703,776.786377,730.796875,777.230469C731.414734,777.429199,732.024353,777.652588,732.625,777.898438L732.808594,777.941406L732.996094,777.972656L733.121094,777.933594L733.25,777.910156L733.324219,777.820313L733.378906,777.71875L733.421875,777.613281C733.480835,777.14679,733.475098,776.674255,733.394531,776.210938C733.210876,774.436951,732.823792,772.689941,732.242188,771.003906C731.555542,768.878479,730.713501,766.806458,729.722656,764.804688C729.240662,763.84613,728.868835,762.835938,728.617188,761.792969L728.597656,761.5625C728.588989,761.406006,728.606445,761.248535,728.660156,761.101563C728.705444,761.03302,728.750366,760.964294,728.804688,760.902344L728.917969,760.839844L729.039063,760.792969C729.211487,760.767578,729.386841,760.767029,729.558594,760.796875C730.259949,760.957642,730.938721,761.205139,731.578125,761.535156C732.335999,761.915344,733.099182,762.285217,733.867188,762.644531C734.406006,762.899963,734.978516,763.076111,735.566406,763.175781L735.660156,763.171875L735.75,763.15625L735.835938,763.125C735.854187,763.074219,735.872375,763.023438,735.890625,762.972656C735.888062,762.479919,735.815186,761.990479,735.683594,761.515625C735.426636,760.489746,735.11969,759.47699,734.765625,758.480469C734.463562,757.648254,734.300232,756.771973,734.289063,755.886719C734.305725,755.790588,734.320007,755.694031,734.335938,755.597656L734.378906,755.457031C734.415466,755.385986,734.453979,755.316223,734.492188,755.246094C734.544495,755.195557,734.596375,755.14447,734.648438,755.09375C734.712952,755.055115,734.778992,755.019043,734.847656,754.988281C735.073059,754.924622,735.309937,754.908081,735.539063,754.957031C735.926514,755.034241,736.306458,755.144897,736.675781,755.285156C736.748901,755.297913,736.820862,755.314758,736.894531,755.324219C737.006592,755.290833,737.11499,755.257568,737.226563,755.222656L737.339844,755.144531C737.53363,754.950317,737.666504,754.705994,737.738281,754.441406C737.835571,754.087402,737.888794,753.722656,737.886719,753.355469C737.856995,751.698669,737.410828,750.076111,736.589844,748.636719C736.07782,747.794373,735.657898,746.899231,735.34375,745.964844C735.331055,745.884644,735.327698,745.803528,735.335938,745.722656C735.360474,745.662109,735.384766,745.601501,735.414063,745.542969L735.476563,745.464844C735.52417,745.422913,735.573669,745.383057,735.628906,745.351563C735.691895,745.338989,735.753418,745.320251,735.816406,745.304688C736.838867,745.046387,737.920593,745.189392,738.84375,745.699219L739.042969,745.859375C739.190063,746.053284,739.335266,746.246216,739.480469,746.441406C739.561707,746.527039,739.647156,746.608521,739.738281,746.683594L739.925781,746.792969L740.089844,746.832031C740.194153,746.809937,740.297729,746.784119,740.394531,746.738281L740.539063,746.605469C740.762512,746.282715,740.928345,745.924561,741.035156,745.546875C741.177673,745.000671,741.266235,744.442078,741.304688,743.878906C741.566345,740.871338,741.17627,737.842773,740.160156,735C739.938599,734.345581,739.871948,733.648376,739.972656,732.964844C740.020203,732.740906,740.124146,732.532532,740.269531,732.355469C740.478271,732.131531,740.730835,731.952454,741.015625,731.839844C741.56073,731.646423,742.13269,731.539307,742.710938,731.523438C744.289001,731.495361,745.86676,731.592529,747.429688,731.8125C748.246704,731.904053,749.070007,731.924438,749.890625,731.875C750.117798,731.84198,750.338013,731.770081,750.535156,731.652344L750.664063,731.53125C750.729858,731.43042,750.781372,731.321716,750.828125,731.210938C750.961731,730.722351,750.917114,730.203064,750.707031,729.742188C750.344421,728.938232,749.842346,728.205444,749.230469,727.570313C748.914368,727.222351,748.575317,726.896179,748.21875,726.589844L745.535156,724.332031C746.669189,723.846497,747.809326,723.372131,748.953125,722.910156C750.724976,722.270996,752.577576,721.883118,754.457031,721.757813C755.591125,721.743347,756.725281,721.742065,757.859375,721.753906C757.319214,720.480713,756.787537,719.202393,756.265625,717.921875C756.060425,717.376831,755.921265,716.809143,755.855469,716.230469L755.855469,716.058594L755.902344,715.777344C755.954773,715.664917,756.013733,715.555603,756.089844,715.457031L756.183594,715.378906C756.260193,715.338013,756.339355,715.30249,756.417969,715.265625L756.585938,715.226563C756.697083,715.206848,756.809387,715.196167,756.921875,715.1875C757.852966,715.244019,758.772644,715.419922,759.660156,715.707031C760.701843,716.030457,761.755981,716.311951,762.820313,716.550781L762.855469,716.511719C762.911682,716.394043,762.943115,716.266663,762.953125,716.136719C763.030762,715.628906,763.059875,715.114868,763.039063,714.601563C763.052673,714.373718,763.076233,714.146484,763.117188,713.921875C763.144897,713.824707,763.188843,713.734253,763.234375,713.644531L763.308594,713.53125C763.373596,713.482361,763.440125,713.435669,763.507813,713.390625C763.626343,713.357849,763.747803,713.336853,763.871094,713.335938L764.113281,713.347656C764.572266,713.484802,765.037781,713.599182,765.507813,713.691406L765.699219,713.671875L765.878906,713.601563L766.039063,713.488281C766.131348,713.36084,766.206848,713.221741,766.25,713.070313L766.316406,712.824219C766.404297,712.352722,766.447632,711.874146,766.453125,711.394531C766.507935,710.425537,766.527466,709.454773,766.511719,708.484375C766.521912,706.176025,766.678284,703.870544,766.980469,701.582031C767.375183,698.196289,767.912048,694.828857,768.589844,691.488281C769.664368,685.372192,770.31958,679.189819,770.550781,672.984375C770.725769,669.500793,771.024231,666.024841,771.445313,662.5625C771.59021,661.552612,771.736816,660.548279,771.886719,659.539063C772.118896,656.832153,772.126831,654.110596,771.910156,651.402344C771.626282,646.957458,771.098083,642.531433,770.328125,638.144531C769.962402,636.012085,769.550903,633.888123,769.09375,631.773438L768.101563,627.21875C766.625793,627.230469,765.151489,627.229187,763.675781,627.214844C762.796265,627.218933,761.920166,627.105591,761.070313,626.878906C760.115051,626.575562,759.255859,626.027466,758.578125,625.289063C757.836609,624.519287,757.205444,623.650452,756.703125,622.707031C755.407959,620.394226,754.474915,617.896484,753.9375,615.300781C753.819702,614.666687,753.80426,614.018066,753.890625,613.378906L753.953125,613.171875C754.041504,612.972412,754.167297,612.792236,754.324219,612.640625C754.806335,612.206177,755.365479,611.865906,755.972656,611.636719C757.424866,611.072937,758.929688,610.655396,760.464844,610.390625C764.038452,609.758545,767.653687,609.390381,771.28125,609.289063C773.656128,609.159424,776.036499,609.169861,778.410156,609.320313C779.792908,609.404175,781.157227,609.679504,782.464844,610.136719C783.796753,610.641052,784.933655,611.555298,785.714844,612.746094C786.234924,613.497559,786.659363,614.310913,786.976563,615.167969C787.212463,615.763977,787.429993,616.367188,787.628906,616.976563L789.230469,621.914063C792.385437,622.231934,795.535278,622.595276,798.679688,623.003906C799.907043,623.17981,801.118835,623.4505,802.304688,623.8125C803.475464,624.227112,804.513672,624.948059,805.308594,625.902344C806.112122,626.824768,806.825806,627.821716,807.441406,628.878906C807.919739,629.83313,808.237061,630.860046,808.378906,631.917969C808.615723,633.683899,808.758972,635.461121,808.808594,637.242188C808.878174,640.056702,809.08551,642.865967,809.429688,645.660156C809.484802,646.138916,809.604309,646.607971,809.785156,647.054688L809.820313,647.121094C809.843079,647.137695,809.866394,647.153564,809.890625,647.167969C809.948364,647.151184,810.006226,647.134827,810.0625,647.113281C810.507385,646.796692,810.895142,646.40741,811.214844,645.964844C811.599548,645.47583,811.960632,644.96875,812.296875,644.445313L814.019531,641.722656L814.601563,644.375C814.776001,645.417236,814.794495,646.479675,814.65625,647.527344C814.515198,648.86261,814.251099,650.182068,813.867188,651.46875L812.550781,655.90625C813.80542,655.663696,815.062561,655.429199,816.320313,655.203125C816.85614,655.124207,817.39978,655.114685,817.9375,655.179688C818.040161,655.216064,818.138489,655.263916,818.226563,655.328125C818.28241,655.381104,818.334045,655.438293,818.375,655.503906C818.39447,655.571838,818.405823,655.641418,818.417969,655.710938C818.40918,655.835144,818.388306,655.958008,818.355469,656.078125C818.325317,656.17749,818.283142,656.272034,818.242188,656.367188C817.954468,656.929688,817.611267,657.461914,817.21875,657.957031C816.69812,658.596497,816.306091,659.330872,816.070313,660.121094C815.996216,660.422729,815.992065,660.736511,816.042969,661.042969L816.132813,661.265625L816.269531,661.460938L816.457031,661.617188L816.570313,661.6875C816.647827,661.72821,816.728394,661.762024,816.808594,661.796875C817.152954,661.898743,817.513,661.940308,817.871094,661.914063C818.083557,661.906311,818.296387,661.935181,818.496094,662.007813L818.625,662.09375L818.714844,662.234375L818.777344,662.390625C818.784546,662.466187,818.791626,662.541443,818.796875,662.617188C818.767822,663.049194,818.686523,663.47583,818.5625,663.890625C818.25,665.114441,817.887939,666.325256,817.476563,667.519531C817.069336,668.828979,816.715027,670.154297,816.414063,671.492188C816.337708,671.866028,816.311279,672.247803,816.328125,672.628906L816.351563,672.742188L816.457031,672.8125L816.582031,672.875L816.675781,672.828125C816.749084,672.787292,816.81958,672.74176,816.886719,672.691406C817.315063,672.281372,817.697876,671.826294,818.03125,671.335938C819.570313,669.162537,821.168579,667.031189,822.824219,664.945313L822.855469,667.800781C822.80542,669.409363,822.641113,671.012451,822.363281,672.597656C821.750793,676.488708,820.884399,680.335388,819.769531,684.113281C819.461304,685.112244,819.057068,686.078979,818.5625,687C818.214478,687.687012,817.9198,688.399841,817.683594,689.132813L817.683594,689.203125C817.693604,689.247803,817.711121,689.288818,817.722656,689.332031C817.759949,689.354004,817.800659,689.364563,817.839844,689.382813L818.035156,689.363281C818.229431,689.335815,818.42041,689.286743,818.597656,689.203125C820.244141,688.427551,821.781677,687.440186,823.171875,686.265625L823.632813,685.871094L825.6875,684.027344C825.431946,685.396729,825.135193,686.758057,824.796875,688.109375C824.318848,689.87439,823.6651,691.586975,822.847656,693.222656L822.722656,693.523438C822.615295,693.831726,822.553711,694.154175,822.542969,694.480469C822.552307,694.55188,822.57019,694.621338,822.585938,694.691406C822.6203,694.736328,822.653381,694.782166,822.691406,694.824219C822.746277,694.839355,822.798645,694.859863,822.855469,694.867188C822.944031,694.84729,823.031128,694.821716,823.117188,694.792969C823.5625,694.517151,823.960449,694.171631,824.300781,693.773438C826.204346,691.649292,827.812988,689.279053,829.085938,686.726563C829.313171,686.23999,829.490906,685.731934,829.621094,685.210938L829.707031,684.976563C829.803467,684.745422,829.929321,684.527466,830.085938,684.332031C830.143921,684.274231,830.202698,684.216919,830.261719,684.160156C830.320496,684.123108,830.379944,684.087158,830.441406,684.054688L830.527344,684.035156C830.585632,684.029724,830.642273,684.039001,830.699219,684.046875C830.757263,684.087219,830.819519,684.120544,830.878906,684.160156L830.96875,684.269531L831.066406,684.429688L831.148438,684.597656C831.1922,684.714661,831.235474,684.831787,831.265625,684.953125C831.486572,685.966003,831.574158,687.003418,831.527344,688.039063C831.487488,689.802673,831.241638,691.555664,830.792969,693.261719C830.455872,694.178284,830.209534,695.12561,830.054688,696.089844C830.003662,696.410095,829.999268,696.736694,830.0625,697.054688C830.098816,697.138245,830.151794,697.212097,830.214844,697.277344L830.292969,697.3125C830.348511,697.329773,830.404968,697.343506,830.460938,697.359375C830.549255,697.348145,830.638,697.341919,830.726563,697.332031C830.832153,697.30188,830.933594,697.260315,831.035156,697.21875C831.523743,696.965088,831.967102,696.632202,832.347656,696.234375C833.976135,694.592346,835.274536,692.653198,836.175781,690.523438C836.457397,689.865479,836.791382,689.23114,837.171875,688.625L837.289063,688.519531L837.433594,688.453125L837.59375,688.433594L837.710938,688.515625L837.832031,688.585938C838.225403,689.07666,838.518311,689.639832,838.699219,690.242188C839.393372,692.475342,839.917236,694.757874,840.265625,697.070313C840.47522,698.267334,840.719971,699.458069,841,700.640625C841.160156,701.287964,841.39502,701.914368,841.699219,702.507813L841.804688,702.667969C841.876038,702.716492,841.942261,702.7724,841.996094,702.839844C842.054504,702.849426,842.113098,702.856812,842.171875,702.863281L842.253906,702.820313C842.308533,702.75415,842.357727,702.68396,842.40625,702.613281C842.594055,702.117249,842.708862,701.596191,842.734375,701.066406C842.805359,700.276794,842.837585,699.484192,842.832031,698.691406L842.832031,694.816406L845.476563,696.773438C846.384705,697.532349,847.19104,698.405273,847.875,699.371094C848.963013,700.809937,849.919189,702.343872,850.734375,703.953125L853.347656,709.175781C853.135742,707.388916,852.931763,705.589844,852.738281,703.800781C852.656738,702.898071,852.646057,701.99054,852.703125,701.085938L852.734375,700.855469C852.76709,700.701904,852.802917,700.54895,852.847656,700.398438C852.89563,700.319092,852.940796,700.238098,852.984375,700.15625L853.066406,700.09375C853.179749,700.083801,853.293457,700.086304,853.40625,700.101563C853.515442,700.134094,853.622559,700.173401,853.71875,700.234375C854.081726,700.448608,854.397461,700.73291,854.660156,701.0625C855.758911,702.426575,856.460388,704.067383,856.683594,705.804688C856.670288,706.461792,856.711792,707.118896,856.804688,707.769531C856.854309,708.09906,856.957886,708.418091,857.117188,708.710938L857.238281,708.875C857.296753,708.916199,857.35675,708.955139,857.417969,708.992188C857.517822,709.004456,857.618347,709.010864,857.71875,709L857.898438,708.914063L858.0625,708.804688C858.498901,708.373901,858.85437,707.868347,859.113281,707.3125C859.560913,706.314392,859.989563,705.307495,860.398438,704.292969C860.554321,703.934631,860.758179,703.599243,860.996094,703.289063C861.078796,703.201904,861.17981,703.134338,861.292969,703.09375L861.375,703.074219C861.432373,703.073669,861.489746,703.075867,861.546875,703.082031C861.644348,703.119507,861.737915,703.165771,861.832031,703.210938L862.019531,703.332031L862.25,703.511719C862.965881,704.091858,863.579163,704.788208,864.066406,705.570313C865.2547,707.391052,866.273499,709.317078,867.109375,711.324219C867.360596,711.887817,867.66394,712.426575,868.015625,712.933594C868.059265,712.986145,868.105164,713.036621,868.152344,713.085938C868.190308,713.122375,868.235962,713.146667,868.28125,713.171875L868.34375,713.191406C868.4021,713.179443,868.459045,713.16272,868.515625,713.144531L868.621094,713.035156C869.074463,712.289001,869.319275,711.435303,869.34375,710.5625C869.364441,710.22821,869.365723,709.893005,869.347656,709.558594C869.272339,708.181458,869.047424,706.816467,868.675781,705.488281C868.430176,704.511719,868.281494,703.513489,868.230469,702.507813C868.22876,702.374695,868.24231,702.241638,868.277344,702.113281C868.317749,702.075562,868.352966,702.033325,868.394531,701.996094L868.460938,701.972656C868.546631,701.987488,868.631897,702.004944,868.714844,702.03125C868.95575,702.128235,869.180603,702.260071,869.386719,702.417969C870.473633,703.285645,871.476929,704.253235,872.382813,705.308594C873.890991,706.961792,875.250549,708.744568,876.445313,710.636719C876.740723,711.1427,876.990967,711.673584,877.195313,712.222656L878.109375,715.25C878.967163,713.246948,879.847778,711.181519,880.699219,709.175781L884.707031,717.851563L886.417969,710.042969C886.988953,711.728638,887.585632,713.406494,888.207031,715.074219C888.519592,715.8479,888.889526,716.597107,889.3125,717.316406C889.457458,717.53772,889.652039,717.722107,889.882813,717.851563L889.945313,717.859375C889.988403,717.856812,890.031372,717.853149,890.074219,717.847656L890.144531,717.804688L890.214844,717.726563L890.277344,717.644531C890.442139,717.224731,890.530457,716.779053,890.539063,716.328125C890.560974,716.09967,890.570984,715.870117,890.566406,715.640625L890.601563,712.648438C891.15918,713.687744,891.724487,714.728394,892.292969,715.761719C892.55542,716.224487,892.862122,716.660767,893.210938,717.0625C893.273254,717.123535,893.339844,717.180054,893.414063,717.226563L893.53125,717.273438L893.566406,717.226563C893.623291,717.193176,893.680054,717.159851,893.730469,717.117188C893.777832,716.94873,893.810303,716.776306,893.820313,716.601563C893.814758,715.638855,893.727539,714.678284,893.558594,713.730469C893.296387,711.983704,893.327881,710.205688,893.648438,708.46875C893.77655,707.877197,894.008667,707.312683,894.34375,706.808594L894.417969,706.742188C894.449097,706.737427,894.480408,706.733765,894.511719,706.730469C894.586304,706.778076,894.653748,706.83606,894.703125,706.910156L894.820313,707.144531C895.177124,708.209534,895.475647,709.293213,895.714844,710.390625C896.159058,712.055664,896.814514,713.656921,897.664063,715.15625C898.486511,716.677307,899.460693,718.111267,900.570313,719.4375C900.991333,719.919739,901.477173,720.341309,902.015625,720.6875C902.159607,720.761047,902.309998,720.820679,902.464844,720.867188L902.53125,720.890625L902.585938,720.890625C902.623291,720.879639,902.661438,720.872314,902.699219,720.863281L902.789063,720.710938C902.888977,720.402161,902.944458,720.081543,902.964844,719.757813C903.009766,718.375244,902.952087,716.991333,902.792969,715.617188C902.705505,714.761963,902.730042,713.898804,902.871094,713.050781L902.921875,712.875C902.94928,712.754211,902.99585,712.638062,903.070313,712.539063L903.203125,712.398438L903.300781,712.382813L903.394531,712.339844L903.507813,712.363281C903.628662,712.388428,903.73468,712.457397,903.820313,712.546875C903.932861,712.653259,904.040405,712.764709,904.140625,712.882813C904.690247,713.624329,905.154053,714.425903,905.519531,715.273438C906.732666,717.930603,908.409729,720.349976,910.472656,722.417969C910.747253,722.687866,911.042053,722.936523,911.355469,723.160156C911.51593,723.265869,911.682861,723.361572,911.859375,723.4375C911.943115,723.458801,912.028381,723.471985,912.113281,723.488281C912.150391,723.460388,912.188843,723.434631,912.222656,723.402344C912.395142,722.936829,912.502075,722.449097,912.523438,721.953125C912.617859,720.891968,912.660889,719.827026,912.652344,718.761719C912.695313,717.40271,912.909546,716.054504,913.292969,714.75C913.456726,714.257019,913.705383,713.795898,914.035156,713.394531C914.219055,713.173401,914.44696,712.993713,914.699219,712.855469L914.851563,712.847656L915,712.875L915.136719,712.9375L915.253906,713.035156C915.599731,713.466125,915.881592,713.944519,916.097656,714.453125C916.931396,716.455933,918.075684,718.314514,919.488281,719.960938C919.627441,720.117126,919.776855,720.263855,919.933594,720.402344L921.828125,722.089844L921.25,718.484375C921.004578,717.062012,920.9422,715.614136,921.0625,714.175781C921.113586,713.691589,921.271729,713.224426,921.53125,712.8125L921.640625,712.722656L921.769531,712.660156C921.846802,712.664001,921.923218,712.672852,922,712.675781L922.234375,712.808594C922.384888,712.899048,922.515808,713.01947,922.621094,713.160156C923.173889,713.808228,923.719116,714.461365,924.257813,715.121094C924.611938,715.567688,925.040283,715.949341,925.519531,716.257813C925.608826,716.300903,925.702576,716.332886,925.796875,716.363281L925.921875,716.378906C925.997742,716.366516,926.073547,716.353943,926.148438,716.335938C926.216614,716.293457,926.28241,716.247192,926.34375,716.195313L926.429688,716.085938L926.507813,715.941406C926.66449,715.535034,926.772583,715.111694,926.828125,714.679688C926.885681,714.30481,926.915527,713.926147,926.917969,713.546875C926.925415,712.295044,926.957886,711.043457,927.015625,709.792969C927.065979,709.112427,927.184448,708.438721,927.367188,707.78125C927.424927,707.673645,927.467834,707.559143,927.5,707.441406L927.570313,707.324219C927.608337,707.255066,927.6604,707.196777,927.710938,707.136719L927.789063,707.089844C927.84967,707.072083,927.910095,707.053772,927.972656,707.042969L928.058594,707.070313C928.118958,707.112183,928.177368,707.156799,928.234375,707.203125C928.546204,707.628601,928.765686,708.113464,928.894531,708.625C928.998108,709.002869,929.102051,709.38031,929.207031,709.757813C929.299438,710.044067,929.436401,710.314392,929.617188,710.554688L929.707031,710.671875L929.816406,710.769531L929.941406,710.84375C930.01709,710.871155,930.094849,710.892273,930.175781,710.898438L930.269531,710.894531L930.359375,710.871094C930.432434,710.826904,930.504822,710.781677,930.570313,710.726563C930.649841,710.653442,930.714844,710.567078,930.773438,710.476563C930.824768,710.377258,930.87384,710.276733,930.921875,710.175781C931.211975,709.335022,931.338989,708.446838,931.292969,707.558594C931.277954,707.057373,931.326599,706.556335,931.433594,706.066406C931.466492,705.875122,931.542114,705.694763,931.652344,705.535156L931.742188,705.441406L931.808594,705.40625C931.855469,705.388794,931.904236,705.381409,931.953125,705.375L932.03125,705.375C932.301575,705.46283,932.544067,705.620911,932.734375,705.832031C933.217773,706.374084,933.680847,706.934082,934.121094,707.511719C934.205078,707.590027,934.294556,707.662048,934.386719,707.730469C934.434998,707.739929,934.482422,707.750732,934.53125,707.746094C934.563477,707.698975,934.59613,707.652222,934.628906,707.605469C934.657837,707.507141,934.672119,707.405945,934.6875,707.304688C934.718201,706.784302,934.73877,706.263367,934.75,705.742188C934.861938,704.234314,935.292419,702.767456,936.011719,701.4375C936.962219,699.683533,938.104187,698.040283,939.417969,696.539063C941.144653,694.484619,942.969727,692.514709,944.886719,690.636719C948.121826,687.44397,951.406189,684.30542,954.742188,681.21875C958.969482,677.306519,963.125122,673.317627,967.207031,669.253906C968.536865,667.901245,969.787476,666.473022,970.953125,664.976563C972.022095,663.537598,972.890747,661.960327,973.539063,660.289063C975.153137,656.3396,976.593262,652.321655,977.855469,648.246094C979.288025,643.453796,980.1521,638.509705,980.429688,633.515625C980.614502,630.583923,980.788818,627.686646,980.957031,624.753906C979.692139,624.9245,978.425598,625.076904,977.15625,625.210938C975.26532,625.406494,973.363281,624.966553,971.75,623.960938C970.474487,623.115295,969.36554,622.042542,968.476563,620.796875C967.688904,619.712769,966.985352,618.569885,966.371094,617.378906L963.824219,612.515625C964.476501,611.828247,965.148438,611.159668,965.839844,610.511719C966.669739,609.832214,967.594116,609.277039,968.582031,608.859375C969.790588,608.316223,971.087646,607.995972,972.410156,607.914063C974.15332,607.786987,975.900757,607.729675,977.648438,607.742188L978.875,607.753906z"/>
    <path transform="matrix(-1,0,0,-1,0,0)" style="stroke:#000000;stroke-width:0.05mm;fill:none" d="M1007.433594,634.066406L1007.328125,634.105469C1007.256165,634.149536,1007.190125,634.201599,1007.121094,634.25L1007.011719,634.363281C1006.587158,634.998352,1006.248291,635.686401,1006.003906,636.410156C1004.135986,641.547241,1002.492493,646.762939,1001.078125,652.042969C1000.159485,655.572632,999.533752,659.172058,999.207031,662.804688C999.114258,664.180176,999.085449,665.559326,999.121094,666.9375C999.109009,668.298157,998.916138,669.651245,998.546875,670.960938C998.422241,671.387024,998.235535,671.792786,997.992188,672.164063C996.288818,674.430908,994.565674,676.684265,992.824219,678.921875C990.848999,681.671997,989.336914,684.726624,988.347656,687.964844C988.178833,688.55365,988.084961,689.161194,988.066406,689.773438L988.089844,690.007813L988.132813,690.191406C988.177307,690.281311,988.234192,690.363586,988.296875,690.441406L988.417969,690.507813C988.481567,690.514404,988.545349,690.51947,988.609375,690.519531C988.653687,690.492065,988.698242,690.465576,988.742188,690.4375C989.419556,689.824585,990.043945,689.155762,990.613281,688.441406C992.675537,685.965942,994.657104,683.424072,996.554688,680.820313C1002.098877,673.383423,1007.23291,665.649048,1011.933594,657.652344C1013.599548,654.769836,1015.142761,651.817932,1016.558594,648.804688C1017.325867,647.128662,1017.977112,645.401978,1018.507813,643.636719C1018.845947,642.434875,1018.958679,641.180359,1018.839844,639.9375C1018.799683,639.401428,1018.728149,638.868225,1018.628906,638.339844C1018.549927,637.980164,1018.408813,637.637207,1018.214844,637.324219C1017.920288,636.876465,1017.465881,636.557495,1016.945313,636.429688C1016.53479,636.30188,1016.109497,636.226624,1015.679688,636.214844C1014.824646,636.17926,1013.968689,636.173645,1013.113281,636.199219C1011.939575,636.178772,1010.781799,635.925232,1009.707031,635.453125C1009.214722,635.210632,1008.765137,634.889832,1008.375,634.503906C1008.193481,634.334351,1007.981689,634.201721,1007.757813,634.09375C1007.651306,634.068481,1007.542542,634.052856,1007.433594,634.066406z"/>
</svg>
