<?xml version="1.0" encoding="UTF-8"?>
<svg xmlns="http://www.w3.org/2000/svg" width="253.963mm" height="186.758mm" viewBox="-1157.545166 -848.462402 253.962952 186.757813">
    <path transform="matrix(-1,0,0,-1,0,0)" style="stroke:none;fill:#000000;fill-rule:evenodd" d="M1149.163574,847.931152C1148.276245,846.986633,1147.280273,844.569702,1146.719727,842.001038C1145.525635,836.528687,1145.399902,827.814514,1146.315308,813.985474C1147.007935,803.522095,1146.771118,799.585327,1145.129639,794.27124C1143.112427,787.74115,1138.931519,781.53241,1130.92395,773.175293L1128.585693,770.735046L1126.071777,771.016663C1122.716431,771.392578,1108.036377,771.134521,1102.917603,770.60968C1085.343018,768.807739,1074.193848,767.301758,1064.58374,765.43158C1056.732422,763.903748,1053.246704,763.407288,1047.876587,763.052124C1041.108887,762.604553,1039.198975,762.677368,1037.57666,763.444824C1036.250854,764.072083,1036.122314,764.086487,1035.219971,763.709473C1033.489136,762.986267,1032.81958,763.159912,1031.55481,764.659729C1030.001831,766.501526,1029.442017,766.755493,1027.626465,766.441895C1025.786865,766.124207,1024.937378,766.423584,1024.135864,767.672302C1023.204773,769.122681,1022.098633,769.278015,1019.865662,768.271851C1018.622437,767.71167,1018.570007,767.708862,1018.223328,768.182922C1018.026367,768.452271,1017.738037,769.285217,1017.582642,770.033813C1017.161133,772.064148,1016.506409,772.94397,1014.825073,773.73938C1012.631104,774.777283,1011.862976,774.868042,1010.954956,774.196716C1010.533997,773.885498,1010.095459,773.634216,1009.980408,773.638367C1009.865356,773.642456,1009.056763,774.12207,1008.183533,774.704102C1007.310242,775.286133,1005.626892,776.259827,1004.442627,776.86792C1002.367493,777.933472,1002.258728,778.036255,1001.438965,779.705322C1000.280701,782.063599,997.82074,786.132568,993.272766,793.212769C989.217468,799.526123,988.967224,799.857178,983.573486,806.046875C979.443176,810.786682,978.481445,811.973145,976.428284,814.861816C973.989868,818.292603,972.194824,819.666809,970.14325,819.67334C969.887939,819.674133,966.97052,820.203552,963.660034,820.849854C960.349609,821.496155,956.569336,822.166504,955.25946,822.339539C950.712219,822.940186,946.209961,822.29071,943.529175,820.647339C942.994873,820.319763,941.402954,819.601318,939.991699,819.050842C936.060425,817.517334,935.615845,817.104126,933.734863,813.235352L932.128052,809.93042L930.595032,809.343262C929.751892,809.020386,926.620911,808.16626,923.637329,807.445313C913.018311,804.879272,908.79895,803.317139,905.032593,800.557373C903.549561,799.470703,903.500244,799.395874,903.621277,798.41571C903.690247,797.857117,904.397461,796.130493,905.19281,794.578735C905.988159,793.026978,906.84314,791.042847,907.092773,790.169617C908.964233,783.623352,912.999146,778.8479,918.153687,777.078735C919.183167,776.725342,921.031006,776.417297,923.083984,776.256775C926.901367,775.958252,928.090515,775.531494,929.662048,773.895996L930.74292,772.771118L933.077942,772.98175C935.827759,773.229797,936.320374,773.187195,936.923157,772.649353C937.642822,772.007202,938.387634,769.296326,938.958191,765.242493C939.498291,761.404968,940.420898,758.419739,941.400635,757.339661C941.673157,757.039185,941.896118,756.654907,941.896118,756.485718C941.896118,756.316528,942.210327,755.97229,942.594299,755.720642C942.978271,755.469055,943.794067,754.483887,944.407104,753.531433C945.020142,752.578979,946.027405,751.281555,946.645447,750.648315L947.769104,749.496887L947.579773,745.961853C947.392822,742.471191,947.399109,742.412109,948.079163,741.251648C948.95929,739.749817,950.837524,738.097107,952.625305,737.251343C954.49939,736.364746,954.721313,735.683777,954.518982,731.441101C954.409973,729.155273,954.477539,727.684814,954.756775,726.263855C955.214294,723.935669,956.708313,720.693909,957.673828,719.934448C958.533691,719.258118,960.349915,716.683594,961.002625,715.215942C961.27771,714.597412,961.605103,714.091309,961.730103,714.091309C961.855103,714.091309,962.307861,713.347046,962.736206,712.437439C964.747192,708.166809,968.262085,705.252502,978.281433,699.548218C985.249329,695.581238,984.631958,696.261414,985.030701,692.112366C985.557678,686.629578,985.011475,682.422058,983.370178,679.320984C982.273804,677.249451,979.17511,674.126343,976.371887,672.267578C975.176086,671.474609,974.193665,670.697449,974.188721,670.540466C974.183838,670.383484,973.825562,669.720276,973.392578,669.066589C972.780273,668.142151,972.589172,667.529358,972.532532,666.308838L972.459778,664.739624L978.484619,664.750305L984.50946,664.760986L984.775757,663.772156C984.92218,663.228333,985.352905,662.538818,985.732849,662.239929C986.466675,661.66272,987.146179,661.526062,987.146179,661.95575C987.146179,662.411743,989.298462,663.334351,992.83551,664.39447C997.589233,665.819275,998.520874,666.312378,999.23761,667.782776C999.969116,669.283447,1000.530029,672.07666,1000.890198,676.012146L1001.171082,679.081421L1003.239868,681.18103C1004.409729,682.368286,1005.588257,683.861084,1005.952209,684.616516L1006.595764,685.952454L1014.137451,686.123108C1028.498291,686.448181,1031.985229,687.088257,1053.896851,693.421448C1063.446167,696.181458,1067.493896,697.068054,1072.778076,697.556885L1074.657593,697.730713L1074.969604,696.145081C1075.819092,691.827332,1079.062622,691.285217,1086.114136,694.28241C1089.12915,695.563904,1092.848755,697.583862,1100.595703,702.146606C1103.780518,704.022339,1107.229126,706.016846,1108.259399,706.578796L1110.132568,707.600525L1111.685181,706.000977C1112.539063,705.121216,1114.488037,703.520264,1116.016235,702.443359C1119.835938,699.751587,1122.139404,697.39325,1122.892212,695.403503C1124.02417,692.411926,1123.856934,687.213257,1122.48938,682.884277C1121.644897,680.21106,1120.581299,678.971008,1118.868896,678.66333C1116.5271,678.242493,1115.166504,676.752991,1114.050415,673.388C1113.347046,671.267761,1112.016113,665.135864,1112.196045,664.844788C1112.253052,664.752625,1113.522827,664.612366,1115.017944,664.533081C1116.513062,664.453735,1119.600708,664.236267,1121.879517,664.049744C1130.495117,663.344421,1134.108765,664.786682,1136.501587,669.885681C1137.533203,672.084045,1137.931396,673.94635,1138.485229,679.161438C1138.852051,682.615784,1139.40918,683.806885,1142.074463,686.835388C1145.494263,690.721252,1146.847046,694.412415,1146.227173,698.16626C1146.05957,699.180603,1145.385742,701.383423,1144.729736,703.061401C1143.290527,706.741943,1143.209229,707.875916,1144.295288,709.120483C1147.695801,713.017212,1150.868896,721.885559,1152.692261,732.588623C1153.602173,737.930054,1153.664063,742.013123,1152.866211,744.065186C1151.448364,747.711792,1148.308105,752.575623,1144.055664,757.711182L1141.351807,760.97644L1141.914795,761.680481C1146.609985,767.552979,1152.946289,780.970032,1155.134521,789.673706C1158.179199,801.783203,1158.369019,819.332703,1155.582031,831.053467C1155.21875,832.581665,1154.501709,835.736084,1153.988892,838.063293C1152.432373,845.125854,1151.277344,848.238647,1150.131348,848.459351C1149.911743,848.501587,1149.476196,848.263916,1149.163574,847.931152z"/>
</svg>
