<?xml version="1.0" encoding="UTF-8"?>
<svg xmlns="http://www.w3.org/2000/svg" width="201.411mm" height="160.701mm" viewBox="-1013.612915 -725.088745 201.410889 160.701294">
    <path transform="matrix(-0.26455,0,0,-0.26455,-791.306213,-553.778625)" style="stroke:#000000;stroke-width:0.05mm;fill:none" d="M711.112976,646.475464C707.600098,645.702332,702.650085,644.419312,700.112976,643.62439C697.575867,642.829468,693.025024,641.93158,690,641.629028C686.001831,641.229187,681.088074,639.387451,672.004761,634.883972C660.697754,629.278076,658.645691,627.824097,650.426453,619.594482C642.074341,611.231812,640.833496,609.453918,635.005676,597.5C631.519897,590.349976,625.398132,579.264648,621.401733,572.865845C617.405334,566.467102,612.001526,557.242126,609.393188,552.365845C597.595093,530.309387,579.641846,508.808563,566.275879,500.728485C561.972656,498.127075,555.366699,495.143158,551.596008,494.097595C543.727173,491.915619,540.709839,489.952637,536.5,484.276733C532.340088,478.668121,525.6604,474.920929,510.5,469.691162C503.350006,467.224701,491.692017,462.884979,484.593384,460.047394C470.597321,454.452606,459.471375,451.501831,448.5,450.474823C439.185211,449.602905,422.990082,447.237213,417.179321,445.899719C414.605682,445.307312,407.100006,444.22464,400.5,443.493805C393.899994,442.762939,376.125,440.581146,361,438.645416C345.875,436.709656,323.825012,434.1716,312,433.005341C290.125641,430.8479,286.938019,430.475098,260.5,426.982086C231.735519,423.181732,229.634079,423.873566,209,443.937073C201.574997,451.156769,193.587494,458.874207,191.25,461.086945C188.912506,463.299683,186.998322,465.872833,186.996262,466.805054C186.989166,470.021301,183.261444,474.510834,177.700912,478C171.803513,481.700531,171.228806,482.440582,169.934753,488C168.884232,492.513184,165.567398,503.246185,163.445084,509C161.48085,514.325256,161.985703,526.163452,164.553894,535C165.433044,538.025024,166.799683,543.377014,167.590851,546.893311C169.302856,554.502319,173.340073,561.418823,185.388885,577.384644C193.527451,588.169006,194.397644,589.749878,194.788254,594.460144C195.640182,604.733337,187.216568,614,177.026001,614C169.566101,614,150.291534,603.549561,143.006302,595.554871C136.278656,588.172119,130.193451,582.172791,122.807663,575.641235C117.33786,570.804077,115.981804,568.973206,115.030746,565.141235C114.397194,562.588562,112.79612,558.922485,111.472801,556.994446C108.625214,552.84552,106.687294,539.252319,108.085258,533.233154C108.562126,531.179932,108.96302,527.380005,108.976143,524.78894C108.992928,521.47406,109.563904,519.547729,110.902809,518.28894C111.949356,517.305054,113.290108,514.686279,113.882256,512.469482C114.49144,510.188904,117.355728,505.533173,120.479439,501.746155C124.001007,497.476807,126,494.123993,126,492.486816C126,489.552338,129.052094,483.067993,132.759125,478.12674C134.65593,475.598419,135.464844,472.968445,135.988632,467.62674C136.652771,460.85379,138.777176,454.873779,141.009201,453.494324C141.572083,453.146423,141.728134,452.330383,141.355988,451.680908C140.983841,451.031403,141.03566,450.821655,141.471161,451.214813C143.256531,452.826599,146.389496,449.39502,149.63533,442.272461C151.528671,438.117828,154.86026,432.693512,157.038879,430.218475C159.217499,427.743439,161,425.310181,161,424.811249C161,423.460144,165.986237,419.22168,170.233994,416.962036C172.287704,415.869537,174.227951,413.968658,174.54567,412.737823C174.863373,411.507019,176.706161,409.375,178.640747,408C180.575333,406.625,184.307098,403.44458,186.933578,400.932404C191.911209,396.171356,193.83049,391.191986,192.411377,386.720795C191.209213,382.933075,185.71814,376.905151,179.796616,372.872711C176.65976,370.736542,172.909409,367.436707,171.462509,365.539734C168.656754,361.861206,163.403931,348.797852,162.3992,343C162.065598,341.075012,160.422943,336.628204,158.74884,333.118195L155.705002,326.73642L156.27063,312.618195C157.029449,293.677704,156.079269,285.937744,151.970764,277.592194C149.865295,273.315369,148.729065,269.586731,148.817169,267.243317C148.892914,265.228546,148.338531,262.639404,147.58519,261.489685C146.831863,260.339966,145.415161,256.496948,144.436966,252.949631C143.458771,249.402344,141.860428,245.458786,140.885086,244.186172C139.90976,242.913574,139.344162,241.266693,139.628235,240.526428C140.187515,239.068954,138.796036,235.986252,133.145203,226.163818C130.024124,220.738693,128.565384,219.309906,123,216.22699C119.425003,214.246628,115.150002,211.634491,113.5,210.422241C111.849998,209.209991,107.306747,206.623291,103.403877,204.673996C93.918312,199.936432,90.649902,197.001801,88.494751,191.28746C87.501686,188.654358,85.565918,185.149994,84.193047,183.5C77.764565,175.773834,77.356026,167.149231,82.556343,148.947571C85.323738,139.261429,86.298058,133.616028,86.948257,123.5C87.409882,116.317886,88.483536,108.598282,89.347328,106.250633C90.20726,103.913475,92.0476,94.719276,93.436974,85.819077C94.826347,76.918877,96.42141,69.178596,96.981552,68.618446C97.541702,68.058304,98,65.635788,98,63.235077C98,59.313187,98.507492,58.375835,103,54C105.75,51.321415,108,48.446785,108,47.611927C108,45.562439,113.983192,44.01247,121.921257,44.005577C126.478783,44.001617,128.871643,43.521149,130.165543,42.350182C131.384583,41.246971,134.468292,40.541222,139.472992,40.220039C147.808197,39.68512,151.964279,40.86784,154.910324,44.613132C155.923721,45.901459,158.00676,47.43227,159.539276,48.014931C161.657013,48.820095,162.046631,49.353374,161.162842,50.23716C159.318726,52.081272,159.80481,54.440109,162.25,55.512871C164.00885,56.284519,164.56897,57.465416,164.815933,60.922642C165.122925,65.2202,164.946167,65.518623,158.565933,71.474258C154.954666,74.845192,152,78.042496,152,78.579376C152,79.116257,152.899994,80.326126,154,81.267975C156.887543,83.740364,156.53598,85.119194,151.439651,91.309654C145.972092,97.951042,143.388489,99.765129,135.5,102.501762C127.994286,105.105606,126.868896,107.178314,126.219452,119.59449C125.569298,132.024261,126.31411,135.245605,130.881439,139.757828C132.964767,141.816025,135.650162,145.138535,136.848953,147.141174C139.635544,151.796249,150.597733,161.911575,155.627518,164.468994C167.456863,170.483704,180.884506,179.399673,193.575165,189.66629C197.087524,192.507751,201.43248,195.144531,203.230637,195.525803C205.028778,195.907059,208.074997,197.401093,210,198.845856C214.877884,202.506851,229.736572,217.553207,235.983475,225.157516C238.849136,228.645889,241.712677,231.950241,242.346893,232.500534C242.981094,233.050827,246.644867,237.10083,250.488586,241.500534C262.633118,255.401718,263.710144,256.205902,269.5,255.695694C272.25,255.453369,278.325012,254.504608,283,253.587357C287.674988,252.67009,294.550659,251.528168,298.279236,251.049759C304.061615,250.307831,305.655762,249.640274,309.120697,246.509933C314.02475,242.079407,321.862549,237,323.795044,237C324.566986,237,327.755219,235.421936,330.880035,233.493195C339.074951,228.434998,345.667419,227.368713,354.495178,229.673599C363.916992,232.133591,364.752258,233.775101,362.956604,246.302734L361.664856,255.314957L364.379883,257.65033C365.873169,258.934814,368.311066,260.245148,369.797455,260.562225C371.283844,260.879272,374.299988,261.741852,376.5,262.479034C383.739716,264.904938,393.699219,266.202118,405.688629,266.280762C422.568848,266.391479,424.564636,266.224243,432.435913,264.039246C436.321167,262.960754,443.330719,261.611328,448.012695,261.040527C460.86438,259.473755,494.849335,249.205902,498.706726,245.72438C500.349548,244.241653,501.708679,243.891739,504.025391,244.355072C505.736969,244.697388,511.90976,244.307541,517.742737,243.488739C523.575684,242.669937,532.489685,242,537.551636,242C543.699524,242,547.096375,241.585007,547.782959,240.75C548.429993,239.963165,548.853699,228.428513,548.926575,209.620316C548.990173,193.186478,549.242554,179.416534,549.487366,179.020432C550.160217,177.931778,548.165466,160.377731,546.530579,153C545.738403,149.425003,544.580139,142.675003,543.956726,138C541.546875,119.928551,541.47583,121.366028,544.935181,118.206398C546.657349,116.633415,548.965759,113.668427,550.065002,111.617546C553.209167,105.751175,558.135803,85.367111,558.733459,75.751213L559.277283,67.002426L562.888611,66.026833C564.874878,65.490257,567.026367,64.203629,567.669739,63.16766C569.3974,60.385799,576.648132,56.466106,583.721191,54.490383C588.633484,53.118237,591.894653,52.894169,599.221191,53.425419C604.324524,53.795464,609.849976,54.132244,611.5,54.17382C618.709595,54.355476,629,56.329109,629,57.530209C629,58.220905,628.332581,59.042133,627.516846,59.355156C625.878296,59.983925,626.46637,62.568035,628.780457,64.907837C629.647461,65.784492,629.939697,67.293694,629.554932,68.907837C628.240845,74.420906,628.287659,74.516365,632.15918,74.218048C635.268372,73.978477,636.150513,74.402596,638.028381,77.039818C641.802429,82.340042,640.414307,86.284042,632.017334,94.118118C625.452332,100.24308,624.290649,100.906372,616.427307,103.019531C611.754272,104.275352,607.68512,105.700432,607.384827,106.186371C606.058105,108.333023,602,131.921463,602,137.486496C602,140.868317,602.919312,146.979828,604.042908,151.067627C605.511658,156.411316,606.489136,165.104095,607.521118,182C609.057251,207.151215,610.5495,222.273422,612.075012,228.148407C612.596069,230.155029,613.666748,236.682205,614.454285,242.653229C615.388,249.732819,616.793152,255.490814,618.493347,259.204529C620.831238,264.311096,621.676086,265.162903,626.671143,267.449707C629.734924,268.852386,632.590881,270,633.0177,270C634.581238,270,652.610718,288.718994,655.686218,293.5354C659.218262,299.066864,667.523499,315.550446,671.035767,324C672.293152,327.024994,675.119568,331.935974,677.31665,334.9133C681.232544,340.219727,685,349.849487,685,354.552063C685,355.857697,684.100464,359.20813,683.000977,361.997467L681.002014,367.069L683.100159,373.284485C685.200745,379.50708,685.219666,380.816925,683.39502,393.692291C682.526062,399.824219,685.252563,406.830292,691.784912,415.250824C694.877869,419.237885,697.703796,422.725006,698.064758,423C698.425659,423.274994,699.49884,425.017731,700.449646,426.872772C701.839172,429.583771,702.042969,431.593414,701.488403,437.115479C700.635315,445.610107,700.985779,445.817017,711.543945,443.051575C721.67334,440.398438,725.334106,440.476776,731.795532,443.484863C736.725037,445.779785,737.319458,446.453064,740.394958,453.225098C742.212036,457.226288,744.232361,463.424988,744.88446,467C746.371887,475.154053,746.778015,493.71106,745.630615,501.094116L744.761292,506.688202L752.630615,511.029358C759.6745,514.9151,761.240356,515.385315,767.557373,515.511658C773.549133,515.631531,775.546753,516.165161,780.786621,519.045837C785.627319,521.707031,787.280273,523.243225,788.450806,526.168579C789.815247,529.578796,790.526489,530.072083,796.750366,531.925659C803.098694,533.816284,816.585266,541.704285,818.215149,544.480042C818.608521,545.149841,820.769714,547.903381,823.017883,550.598938C828.512329,557.186829,835.503235,571.661133,838.035645,581.692566C839.534424,587.629272,840.154541,593.549316,840.287903,603.192566C840.527771,620.536316,839.703186,623.021057,832.70874,626.029968C827.003357,628.484314,826.820923,628.477051,792.529846,624.417175C770.940552,621.861145,763.802185,622.934875,760.80719,629.188843C759.87616,631.132996,755.946289,635.457092,752.074219,638.797974C744.514282,645.320801,744.695496,645.260132,729,646.52533C724.875,646.85791,720.599976,647.299011,719.5,647.505615C718.400024,647.712219,714.625854,647.248657,711.112976,646.475464z"/>
</svg>
