<?xml version="1.0" encoding="UTF-8"?>
<svg xmlns="http://www.w3.org/2000/svg" width="309.054mm" height="259.778mm" viewBox="-1045.434082 -606.723755 309.054138 259.778381">
    <path transform="matrix(-1,0,0,-1,0,0)" style="stroke:none;fill:#ff0000;fill-rule:evenodd" d="M1000,534C1000,530.549988,1004.327332,520.536377,1000,511C998,506.592468,996.650757,505.560669,992,504C985.859253,501.939362,980.099976,504.850006,978,505C976.158081,499.404663,977.098694,486.941284,975,473C973.470276,462.838409,970.08728,463.862701,966,454C963.345764,447.595245,956.936829,451.284576,955,445C951.659912,434.16217,953.027466,426.496979,951,408C950.506653,403.499268,950.437988,403.506012,950,399C949.417542,393.008026,949.25,393.010406,949,387C948.875427,384.005188,948.5,382.5,950,381C952,379,954.870361,381.708313,957,380C959.804871,377.75,959.304688,372.920563,957,368C955.5,364.797424,948.316833,368.42569,949,364L943,364C947.118835,352.850891,943.746155,352.114349,943,350C941.200012,349.549988,936.825806,346.49408,931,347C926.361328,347.402832,923.349976,350.399994,922,351C921.400024,351.899994,917.777222,353.516998,918,357C919.263367,376.751434,917.50824,388.294861,913,419C911.96228,426.067871,910.450012,430.899994,910,433C906.549988,433.75,898.59491,437.429657,887,438C865.674561,439.049011,870.064758,436.500549,853.467224,438.234161C844.138733,439.208527,836.965576,441.6297,828.729065,439.554718C801.423523,432.675812,800,416,788,406C786.781006,394.51889,789.250854,389.957611,791,389C792.049988,388.850006,795.459412,389.831146,798,388C800.410217,386.262817,800.313965,384.377869,800,381C799.710693,377.887482,799.101379,374.30191,796,375C789.159729,376.539673,782.710754,375,780,375L775,385C774.5,390.75,773.5,402.25,773,408C770.299988,404.399994,755.669006,387.462494,754,384C751.893066,379.628906,754,369.549988,754,367L760,362L761,357L761,357L756,354L756,354L754.5625,353.0625L753.78125,351.53125C749.900391,353.912079,739.297729,353.20224,737,354C734.59259,365.494324,740.043152,391.885803,739,404L747,416L756,427C756.016541,430.250061,758.261658,441.179443,762,450C763.710938,454.036926,759.616638,470.348389,763,480C767.153442,491.848419,776.888855,495.851563,776,502C775.722656,503.918518,767.24408,515.673828,766,530C764.514099,547.110474,765.523438,548.175476,772,565C777.571289,579.4729,779.799988,586.5,781,591C780.849976,593.25,781.502747,599.961731,785,604C788.033203,607.50238,788.743652,606.977478,792,606C797.183838,604.44397,797.319092,600.304443,798,594C799.751465,577.783203,786.845703,574.93103,785,555C783.685669,540.806946,782.344543,540.092712,787,528C788.960571,522.907349,787.960815,521.629883,793,521C828.705505,516.537109,849.824829,520.584717,883,522C892.170715,522.391235,891.081665,525.481323,900,528C908.596741,530.427856,911.917603,526.639221,918,532C931.444519,543.849426,930.426514,555.012573,946,574C955.205505,585.223511,955.166931,590.681946,962,594C973.450256,599.56012,986.255798,599.896484,1003,596C1011.108093,594.113159,1013.75,587.349976,1016,586C1016.75,583.75,1015.233398,578.908691,1019,576C1021.338501,574.194153,1036.697266,568.510986,1043,565C1048.088867,562.165222,1043.550049,549,1044,546C1043.25,544.5,1043.401978,539.171265,1039,536C1033.150024,531.785522,1031.213013,530.004761,1023,529C1012.364136,527.698853,1003.299988,533.25,1000,534z"/>
</svg>
