<?xml version="1.0" encoding="UTF-8"?>
<svg xmlns="http://www.w3.org/2000/svg" width="211.237mm" height="126.359mm" viewBox="-696.272766 -668.698120 211.237000 126.358948">
    <path transform="matrix(-0.26455,0,0,-0.26455,-468.898193,-530.664917)" style="stroke:#000000;stroke-width:0.05mm;fill:none" d="M407.5,520.846619C392.34491,519.157227,378.583679,513.690063,366.615601,504.603668C357.992371,498.056732,347.647552,492.777679,337.820984,489.909515C331.660461,488.111359,326.537262,487.649963,305.5,486.998627C279.66922,486.198853,268.883423,484.799042,258.437439,480.890717C253.361649,478.991608,252.876526,478.9776,246.820221,480.554871C239.932343,482.348724,233.823181,482.044434,223.611374,479.398926L217.722748,477.873413L212.611374,481.136444C203.090851,487.214233,198.516495,489.110535,193.277908,489.151093C184.114166,489.222076,178.25148,484.08139,171.803116,470.320953C169.248367,464.869263,166.701324,461.074677,164.227219,459.034363C162.177246,457.343842,152.8871,452.08432,143.582428,447.346497C124.576889,437.669098,118.392509,432.887115,117.458504,427.146515C116.146568,419.083099,115.775711,418.048431,113.31559,415.588318C111.908951,414.181671,108.449997,411.929443,105.629028,410.583344C102.80806,409.237244,96.952805,406.104218,92.617348,403.621033C88.281883,401.137848,81.306885,397.891266,77.117348,396.406433C62.034691,391.060913,61,390.457458,61,387.006561C61,382.725433,63.330994,378.612061,67.603958,375.352905C70.82029,372.899689,71.155273,372.218628,70.703537,369.051208C70.42498,367.098053,69.88726,364.732513,69.508606,363.794464C69.054092,362.668488,69.648521,361.260559,71.257965,359.651123C73.340797,357.568298,76.472145,356.336456,90,352.278137C91.172821,351.9263,90.995979,351.465179,89.189217,350.164063C82.129395,345.080078,81.497955,344.309845,82.952774,342.556915C83.716057,341.637207,86.182068,339.805542,88.432808,338.486511C92.316254,336.210663,97.057198,335.205444,118.7565,332.057007C127.866104,330.73526,133.744659,327.99472,140.332169,321.998596C145.340836,317.439606,153,314.389954,153,316.954681C153,318.856232,156.852905,318.038818,157.5,316C158.447342,313.015198,162.936722,313.387787,165.552536,316.668335C167.136856,318.655273,168.167938,319.141052,169.590103,318.570557C170.640549,318.14917,176.899994,317.72406,183.5,317.625854C197.163193,317.422546,203.807846,315.461578,211.282318,309.426819C213.602036,307.553925,216.952652,305.263031,218.728134,304.335999C221.779236,302.742859,222.065063,302.748901,223.940445,304.446106C225.864975,306.187775,226.076141,306.132904,230.96463,302.62088C236.631516,298.549622,237.246597,298.387268,239,300.5C240.585037,302.409851,243.402344,302.425079,244.973236,300.532257C245.874283,299.446564,247.402924,299.221466,250.845688,299.667511C253.405563,299.999146,256.161102,300.620209,256.969116,301.047638C257.806549,301.490601,259.665283,301.190216,261.292114,300.348938C263.03891,299.445648,265.269867,299.119995,267.043243,299.509491C269.162567,299.974976,272.752441,299.029419,280.412781,295.988068C289.079041,292.547302,291.656555,291.005524,295.358398,287.047913C300.941162,281.079498,304.118805,274.872742,307.418213,263.491974C308.835144,258.604431,310.458618,254.141373,311.02594,253.574066C311.593231,253.00676,316.407196,250.28302,321.723633,247.521301C334.723175,240.768448,335.573639,239.486725,335.232788,227.161819C335.085815,221.847824,334.137268,213.5625,333.124878,208.75C332.112518,203.9375,331.600494,200,331.987122,200C332.373718,200,333.494904,200.889389,334.478668,201.976425C338.513092,206.434418,339.022095,201.678864,335.818054,189.462601C333.931335,182.268967,333.825806,180.914841,335.037933,179.4543C336.03299,178.255325,336.350342,175.623123,336.131622,170.382614C335.842896,163.464325,335.954865,163,337.911774,163C340.297791,163,340.460968,161.672119,338.894836,155C338.313873,152.524994,337.488647,148.340744,337.060974,145.701675L336.283417,140.903336L339.293091,141.564377L342.302734,142.225403L341.633484,137.362701C339.480835,121.722305,339.451019,122.191002,342.621582,121.828812C345.29657,121.523239,345.521698,121.160522,345.806976,116.696754C346.024841,113.287514,346.605286,111.712463,347.806976,111.269699C350.375549,110.323273,350.967957,108.933571,350.98468,103.815102C351.017365,93.816765,348.667786,92.022743,333,90.082916C308.718689,87.076645,295.847961,79.946083,291.758179,67.23436C290.368408,62.914745,290.377991,62.416615,291.867493,61.548141C294.74884,59.868134,302.978729,59.035931,326.336975,58.062599L349.17392,57.110989L353.934479,52.658047C361.117645,45.939049,364.401154,45.457329,401.258301,45.71521C437.309357,45.967449,463.684113,47.423347,468.476349,49.425674C472.4617,51.090862,474.934631,54.511047,475.503265,59.14423C475.729767,60.989902,476.59729,67.449997,477.431061,73.5C478.264832,79.550003,479.213165,87.062424,479.538483,90.194283C479.972595,94.37326,480.892914,96.848572,482.996918,99.496132C484.57373,101.480301,486.173706,104.542877,486.552368,106.301857C487.508759,110.744362,489.547211,114.540779,494.631775,121.349083C498.116699,126.015427,499,128.021606,499,131.27034C499,133.662369,499.685394,136.099884,500.661224,137.178146C501.57489,138.187729,502.380402,140.473175,502.451233,142.256882C502.522095,144.040604,503.360474,146.675201,504.314331,148.111572C505.268188,149.547928,506.943207,155.442383,508.036591,161.210342C509.129974,166.978302,511.306061,175.488693,512.872314,180.122314C514.520142,184.997238,515.535217,189.80687,515.28125,191.536926C514.953613,193.769577,515.595276,195.47403,517.815063,198.267303C519.833435,200.807098,521.134399,203.976212,521.867798,208.139679C523.101135,215.141479,524.940735,218.489731,527.992859,219.287888C529.569214,219.700104,530.398132,219.220337,531.217773,217.421356C532.559631,214.476273,533.588013,214.36171,535,217C536.435974,219.683182,537.806213,219.519363,539.181946,216.5C540.445007,213.727905,542,213.176102,542,215.5C542,218.901657,545.02179,216.632156,547.395203,211.447952C549.781067,206.236588,550.073914,205.969193,552.168213,207.090012C554.086487,208.116669,554.598877,207.983734,555.821655,206.142059C557.819763,203.132782,559.645752,203.478729,560.349976,207C560.777954,209.139664,561.526611,210,562.960632,210C564.510132,210,565.232056,208.964142,566.108582,205.483002C567.475464,200.054749,568.304504,199.399429,571.220764,201.442062C574.671204,203.858856,577.030823,203.378601,578.306091,200C579.683472,196.350906,580.295776,196.276276,582.40802,199.5C584.602356,202.848969,586,202.654404,586,199C586,195.711182,587.918396,194.991791,590,197.5C592.490601,200.500992,593,198.785034,593,187.394348C593,180.170792,593.582947,173.53894,594.543945,169.830383C595.393127,166.553314,596.40564,161.333572,596.793945,158.230942C597.406738,153.334702,597.824158,152.513306,599.954834,152.010483C602.180481,151.485245,602.517456,150.676437,603.564758,143.346725C604.922363,133.844849,605.3302,133,608.559021,133C610.062134,133,611,132.42366,611,131.5C611,129.801834,612.565918,129.488647,613.5,131C614.819031,133.134262,616.62384,131.797806,618.901672,127C621.328918,121.88755,622.651001,121.051018,624.841614,123.241638C625.830505,124.230492,626.256836,124.179596,626.935669,122.991638C627.40448,122.171242,628.757874,120.375,629.943237,119C631.89447,116.736565,633.773438,114.261818,640.75,104.766541C643.727234,100.714462,643.588501,97.935608,640.25,94.75071C636.654602,91.320763,634.568054,90.59417,617.709595,86.901566C609.910767,85.193336,601.828308,83.114861,599.748596,82.28273C593.200562,79.662727,584.447571,67.900467,585.185364,62.712624C585.61908,59.662544,590.892517,57.295883,600.53656,55.823177C610.571533,54.290768,661.462036,54.327942,691,55.889256C714.720398,57.143066,715.807068,57.456974,719.32251,64.071083C720.870361,66.98333,721.056458,68.992416,720.557373,77.404526C720.055359,85.865875,720.217468,87.582848,721.670288,89.188179C723.268921,90.95462,723.269531,91.350128,721.680481,95.783653C720.750793,98.377647,719.99231,101.542824,719.995056,102.81739C719.999146,104.725899,720.375732,105.015526,722.129395,104.458923C724.085449,103.838112,724.207886,104.05658,723.633118,107.141533C721.942688,116.214188,721.830566,117.777237,722.825867,118.392372C723.405762,118.750786,725.36969,117.746529,727.190125,116.160683C729.010559,114.574844,732.024963,112.496078,733.888794,111.541206C735.752686,110.586334,739.61676,107.409172,742.475708,104.480858C747.943237,98.880714,749.384583,98.266327,768.296814,93.47464C775.868347,91.556274,780.407471,87.974304,781.485229,83.067146C782.507263,78.413841,779.911499,74.975998,770.863708,69C766.283813,65.974998,761.526855,61.987209,760.292664,60.138248C757.207703,55.51659,756.342957,50.261742,758.140076,47.05785L759.574829,44.5L779.037415,44.172379C797.834778,43.855957,818.085449,45.181553,824.692993,47.160965C826.449158,47.687054,829.503235,49.778553,831.479858,51.808746C837.946533,58.450779,850.123413,84.787842,857.411377,107.895309C859.702881,115.16098,859.903992,116.77565,858.905823,119.895309C857.272034,125.001602,854.088013,128.918976,846.698364,134.914551C843.161072,137.7845,838.157104,142.576462,835.578369,145.56337C831.615112,150.154037,830.735229,151.953918,829.890564,157.198807C829.075317,162.260956,828.257141,164.019409,825.447266,166.748352C819.719788,172.310791,818.517822,175.474609,818.513062,185C818.507385,196.490555,822.467224,215.945694,825.804382,220.823212C827.851624,223.815399,828.646301,227.013657,830.072388,238C831.036194,245.425003,833.012817,255.550003,834.464905,260.5C836.878906,268.729004,837.106079,271.022339,837.116638,287.270508C837.127502,303.989502,837.274658,305.372131,839.602722,310.636414C851.65155,337.88092,844.174927,367.387573,811.931091,419.842865C797.575806,443.196564,787.384277,454.473602,766.204407,470.440033C748.090332,484.095337,719.206482,495.868988,691.5,500.891113C660.358032,506.53595,631.148376,506.009735,580.871948,498.898132C561.217957,496.118073,542.623596,494.008453,537.871948,494.019531C517.33197,494.067413,499.826538,498.329926,475,509.328552C449.758392,520.511047,431.871033,523.563354,407.5,520.846619z"/>
</svg>
