<?xml version="1.0" encoding="UTF-8"?>
<svg xmlns="http://www.w3.org/2000/svg" width="238.016mm" height="184.012mm" viewBox="-1243.917969 -970.664063 238.016235 184.012146">
    <path transform="matrix(-1,0,0,-1,-2.232056,253.167969)" style="stroke:#000000;stroke-width:0.05mm;fill:none" d="M1113.447998,1099.904053C1113.550415,1099.801147,1113.655884,1099.701294,1113.76001,1099.599976C1114.089233,1099.218384,1114.430786,1098.847534,1114.784058,1098.488037C1114.953979,1098.318726,1115.139771,1098.165527,1115.343994,1098.040039L1115.47998,1097.975952L1115.599976,1097.952026L1115.687988,1097.975952L1115.751953,1098.047974L1115.800049,1098.151978L1115.823975,1098.303955C1115.823242,1098.450806,1115.819946,1098.597656,1115.807983,1098.744019C1115.778931,1099.051758,1115.718262,1099.35498,1115.647949,1099.656006C1116.3479,1099.570923,1117.046875,1099.473999,1117.744019,1099.368042C1118.721313,1098.508179,1119.568726,1097.510498,1120.248047,1096.400024C1120.342896,1096.228271,1120.426025,1096.050293,1120.488037,1095.864014C1120.521851,1095.688843,1120.549072,1095.512451,1120.57605,1095.33606L1120.631958,1095.192017C1120.668457,1095.11438,1120.719116,1095.045898,1120.767944,1094.975952C1120.82251,1094.929688,1120.883545,1094.893433,1120.94397,1094.855957L1121.040039,1094.848022L1121.18396,1094.871948C1121.373047,1094.943604,1121.546753,1095.04895,1121.703979,1095.176025C1121.833984,1095.285522,1121.960083,1095.399536,1122.079956,1095.52002C1122.207764,1095.651367,1122.329346,1095.78833,1122.447998,1095.927979C1122.827637,1096.36377,1123.103027,1096.880371,1123.248047,1097.439941C1123.256348,1097.576782,1123.268188,1097.713379,1123.296021,1097.848022C1123.32373,1097.87439,1123.354492,1097.896362,1123.384033,1097.920044C1123.429321,1097.921875,1123.474609,1097.922974,1123.52002,1097.920044L1123.615967,1097.887939C1123.694092,1097.854736,1123.770996,1097.819336,1123.848022,1097.784058C1124.363525,1097.455566,1124.855957,1097.092285,1125.328003,1096.703979C1126.273804,1095.979004,1127.29541,1095.358643,1128.375977,1094.855957C1128.508911,1094.796631,1128.642456,1094.738037,1128.776001,1094.680054C1128.912354,1094.627319,1129.049316,1094.576538,1129.192017,1094.543945L1129.287964,1094.536011L1129.368042,1094.543945L1129.42395,1094.57605C1129.456177,1094.612793,1129.480103,1094.654419,1129.504028,1094.696045C1129.539429,1094.861328,1129.541992,1095.03125,1129.527954,1095.199951C1129.520142,1095.335815,1129.519775,1095.471924,1129.52002,1095.608032C1129.528931,1095.770996,1129.543213,1095.933594,1129.560059,1096.095947C1129.58252,1096.257813,1129.613525,1096.418335,1129.656006,1096.57605C1129.69458,1096.713257,1129.739746,1096.848511,1129.784058,1096.984009C1129.82251,1097.070435,1129.870728,1097.151611,1129.920044,1097.232056C1129.961792,1097.275879,1129.997681,1097.324219,1130.040039,1097.368042L1130.776001,1097.223999L1130.887939,1097.135986C1131.268555,1096.774658,1131.649536,1096.415283,1132.031982,1096.05603C1132.096191,1096.005493,1132.162109,1095.957397,1132.223999,1095.904053C1132.274292,1095.87146,1132.323608,1095.837524,1132.375977,1095.807983C1132.410645,1095.794312,1132.444824,1095.780518,1132.47998,1095.767944C1132.504761,1095.771484,1132.522339,1095.784424,1132.543945,1095.791992L1132.552002,1095.823975C1132.541016,1095.889526,1132.522949,1095.952881,1132.504028,1096.015991C1132.399292,1096.308716,1132.344116,1096.617188,1132.343994,1096.927979C1132.947021,1096.8302,1133.547363,1096.715454,1134.144043,1096.583984C1134.651855,1095.902832,1135.219971,1095.268921,1135.839966,1094.687988C1135.91687,1094.636475,1135.994263,1094.58606,1136.072021,1094.536011C1136.111816,1094.522217,1136.151855,1094.508545,1136.192017,1094.495972C1136.225098,1094.501099,1136.255859,1094.512329,1136.287964,1094.52002C1136.305908,1094.545044,1136.328735,1094.564087,1136.343994,1094.592041L1136.368042,1094.647949C1136.39563,1094.85791,1136.397949,1095.07019,1136.368042,1095.280029C1136.320435,1095.579712,1136.268188,1095.878662,1136.208008,1096.176025C1136.83667,1096.023926,1137.472168,1095.902466,1138.112061,1095.807983C1139.48291,1094.587036,1140.916748,1093.438599,1142.407959,1092.368042C1143.230469,1091.769409,1144.12146,1091.270508,1145.063965,1090.887939C1145.4552,1090.741821,1145.859741,1090.634644,1146.271973,1090.567993C1146.328003,1090.569702,1146.384033,1090.57019,1146.439941,1090.57605C1146.470703,1090.595093,1146.501465,1090.614014,1146.527954,1090.640015C1146.540527,1090.682007,1146.546997,1090.724854,1146.552002,1090.767944L1146.536011,1090.864014C1146.504639,1090.999023,1146.457886,1091.130005,1146.400024,1091.255981C1145.985229,1092.108154,1145.732422,1093.030762,1145.66394,1093.975952C1145.662354,1094.133301,1145.665039,1094.290771,1145.671997,1094.447998L1145.696045,1094.647949C1145.724854,1094.798828,1145.782715,1094.941895,1145.864014,1095.072021L1145.959961,1095.135986L1146.063965,1095.167969L1146.208008,1095.151978L1146.375977,1095.104004L1146.560059,1095.015991C1146.693481,1094.9375,1146.827393,1094.860107,1146.952026,1094.767944C1147.09314,1094.662354,1147.228516,1094.549438,1147.359985,1094.432007C1147.750977,1094.075317,1148.092285,1093.667847,1148.368042,1093.215942C1148.429443,1093.100464,1148.476318,1092.97876,1148.52002,1092.855957L1148.552002,1092.696045L1148.560059,1092.527954L1148.583984,1092.384033L1148.624023,1092.264038L1148.66394,1092.167969L1148.719971,1092.104004L1148.791992,1092.063965C1148.850464,1092.058472,1148.908569,1092.050903,1148.968018,1092.05603C1149.046143,1092.080444,1149.11853,1092.117065,1149.192017,1092.151978C1149.355469,1092.247314,1149.506836,1092.361816,1149.647949,1092.488037C1150.19873,1093.009277,1150.72998,1093.550903,1151.23999,1094.112061C1151.721802,1093.233643,1152.229004,1092.369629,1152.76001,1091.52002C1152.880371,1091.340576,1153.005005,1091.163818,1153.135986,1090.991943L1153.303955,1090.791992C1153.398682,1090.69104,1153.50415,1090.60144,1153.615967,1090.52002L1153.744019,1090.447998L1153.864014,1090.42395L1153.975952,1090.439941L1154.072021,1090.495972L1154.160034,1090.599976L1154.232056,1090.744019L1154.287964,1090.927979L1154.33606,1091.160034C1154.351196,1091.282837,1154.365234,1091.40564,1154.384033,1091.527954C1154.407349,1091.59668,1154.431641,1091.667603,1154.456055,1091.735962C1154.640625,1092.066772,1154.855591,1092.379272,1155.095947,1092.671997C1155.6604,1093.348999,1156.309448,1093.95105,1157.031982,1094.456055C1157.164429,1094.551147,1157.309814,1094.627441,1157.463989,1094.680054L1157.543945,1094.696045C1157.589966,1094.702515,1157.634644,1094.696533,1157.680054,1094.696045C1157.700684,1094.676147,1157.724609,1094.662231,1157.744019,1094.640015C1157.75,1094.608032,1157.754395,1094.575928,1157.76001,1094.543945C1157.730835,1093.982544,1157.648438,1093.425293,1157.511963,1092.880005C1157.269043,1091.672119,1157.184082,1090.437988,1157.255981,1089.208008C1157.268799,1088.406128,1157.375122,1087.608398,1157.57605,1086.832031C1157.612671,1086.75415,1157.641479,1086.672852,1157.671997,1086.592041C1157.736328,1086.470947,1157.810913,1086.355713,1157.895996,1086.248047L1158.008057,1086.144043L1158.112061,1086.088013L1158.223999,1086.079956L1158.280029,1086.095947C1158.344604,1086.134033,1158.404541,1086.178833,1158.463989,1086.223999C1158.510132,1086.27124,1158.555298,1086.319336,1158.599976,1086.368042C1158.721436,1086.511353,1158.8396,1086.657471,1158.952026,1086.807983C1159.047241,1086.930298,1159.156006,1087.041138,1159.271973,1087.144043C1159.355103,1087.202881,1159.442139,1087.255859,1159.536011,1087.296021C1159.574219,1087.301392,1159.610718,1087.295898,1159.647949,1087.296021C1159.681396,1087.282837,1159.713379,1087.266724,1159.744019,1087.248047C1159.785767,1087.19458,1159.820435,1087.136963,1159.855957,1087.079956C1159.903564,1086.949707,1159.945313,1086.817261,1159.968018,1086.680054L1159.984009,1086.552002C1159.996094,1086.450928,1160.001831,1086.349487,1160.008057,1086.248047C1160.013428,1086.133179,1160.019043,1086.010986,1160.024048,1085.895996C1160.014038,1085.039429,1159.984619,1084.183228,1159.936035,1083.328003C1159.929565,1083.002441,1159.936279,1082.676758,1159.959961,1082.352051C1159.981934,1082.26416,1160.000854,1082.175659,1160.024048,1082.088013L1160.072021,1082L1160.128052,1081.94397C1160.177856,1081.927612,1160.228271,1081.913452,1160.280029,1081.904053C1160.388428,1081.929932,1160.495605,1081.960327,1160.599976,1082L1160.703979,1082.047974C1160.783813,1081.600708,1160.861206,1081.1521,1160.936035,1080.703979L1160.911987,1080.631958C1160.351563,1079.221313,1159.925049,1077.76123,1159.631958,1076.271973C1159.552124,1075.692505,1159.474243,1075.108276,1159.400024,1074.527954C1159.944214,1074.97229,1160.496826,1075.406738,1161.05603,1075.832031C1161.160889,1075.905518,1161.265625,1075.979248,1161.368042,1076.05603C1161.46167,1076.118164,1161.553711,1076.178955,1161.647949,1076.23999C1161.728882,1076.286499,1161.809326,1076.33374,1161.887939,1076.384033L1161.911987,1076.287964C1162.374268,1074.461548,1162.910889,1072.654663,1163.52002,1070.871948C1163.366333,1070.548828,1163.227417,1070.21875,1163.112061,1069.880005C1163.110352,1069.829102,1163.103271,1069.779053,1163.104004,1069.728027C1163.122192,1069.701538,1163.141968,1069.67627,1163.167969,1069.656006C1163.251709,1069.654297,1163.334229,1069.664551,1163.416016,1069.680054C1163.577515,1069.731812,1163.736694,1069.790039,1163.895996,1069.848022C1164.220337,1068.974854,1164.580566,1068.115356,1164.975952,1067.271973C1164.99585,1067.149536,1165.013428,1067.026733,1165.031982,1066.904053C1165.053833,1066.836182,1165.081421,1066.770996,1165.104004,1066.703979C1165.135376,1066.671509,1165.165283,1066.637573,1165.199951,1066.608032C1165.233032,1066.601685,1165.263916,1066.607666,1165.296021,1066.608032C1166.12793,1064.834351,1167.135986,1063.148926,1168.303955,1061.57605L1168.552002,1061.264038C1168.568481,1060.961182,1168.599243,1060.659302,1168.647949,1060.359985C1168.69043,1060.16687,1168.743896,1059.976196,1168.81604,1059.791992C1168.887207,1059.608032,1168.975342,1059.431152,1169.079956,1059.264038C1169.156738,1059.149536,1169.232788,1059.03479,1169.319946,1058.927979L1169.463989,1058.76001C1169.572998,1058.644897,1169.685913,1058.533936,1169.800049,1058.42395C1170.163452,1058.114136,1170.515259,1057.790771,1170.855957,1057.456055C1170.977539,1057.330811,1171.084961,1057.193604,1171.192017,1057.05603C1171.290649,1056.913208,1171.374512,1056.76123,1171.456055,1056.608032C1171.720215,1056.043335,1171.907837,1055.446045,1172.015991,1054.832031C1172.137085,1054.220459,1172.249146,1053.606812,1172.352051,1052.991943L1173.167969,1053.248047C1173.582153,1052.260254,1173.984375,1051.268921,1174.375977,1050.271973C1175.034668,1048.740601,1175.817505,1047.265625,1176.719971,1045.864014C1177.062866,1045.358154,1177.464233,1044.894043,1177.927979,1044.495972C1178.134521,1044.368774,1178.352417,1044.261719,1178.57605,1044.167969C1179.053955,1043.9729,1179.547852,1043.818481,1180.05603,1043.728027C1181.924805,1043.352905,1183.822632,1043.141113,1185.728027,1043.095947C1187.939575,1043.009277,1190.154541,1043.097046,1192.352051,1043.359985C1193.276123,1043.474854,1194.182617,1043.703979,1195.047974,1044.047974C1195.248779,1044.147217,1195.44043,1044.263794,1195.624023,1044.391968L1195.823975,1044.543945L1196.015991,1044.712036C1196.306152,1044.987183,1196.552002,1045.305298,1196.744019,1045.656006C1196.841553,1045.865356,1196.93103,1046.078247,1197.008057,1046.296021C1197.098022,1046.583984,1197.149414,1046.882446,1197.160034,1047.18396L1197.167969,1047.407959C1197.166626,1047.557617,1197.161743,1047.707153,1197.144043,1047.855957C1197.065063,1048.45166,1196.822388,1049.015137,1196.432007,1049.472046L1196.280029,1049.647949C1196.136963,1049.788696,1195.983032,1049.917603,1195.823975,1050.040039C1195.576416,1050.19104,1195.329102,1050.339722,1195.079956,1050.488037L1194.880005,1050.640015L1194.703979,1050.823975L1194.543945,1051.031982L1194.504028,1051.144043L1194.47998,1051.248047L1194.47998,1051.352051L1194.511963,1051.447998L1194.560059,1051.552002L1194.631958,1051.647949C1194.771484,1051.794067,1194.930542,1051.92041,1195.104004,1052.024048C1195.184448,1052.103638,1195.25708,1052.190308,1195.33606,1052.271973C1195.726685,1052.829468,1195.978638,1053.470947,1196.079956,1054.144043C1196.167236,1054.61853,1196.191895,1055.102051,1196.167969,1055.583984C1196.152832,1055.804321,1196.12146,1056.023071,1196.079956,1056.23999L1196,1056.527954C1195.922241,1056.710449,1195.834961,1056.888794,1195.728027,1057.05603L1195.552002,1057.287964L1195.296021,1057.536011L1195.024048,1057.751953C1194.64209,1058.007324,1194.230225,1058.214355,1193.800049,1058.375977C1192.932251,1058.729614,1192.042358,1059.026489,1191.135986,1059.264038C1190.307251,1059.527466,1189.502197,1059.859985,1188.728027,1060.255981C1188.276733,1060.50293,1187.86853,1060.821045,1187.511963,1061.192017C1187.270264,1061.448608,1187.055786,1061.730225,1186.887939,1062.040039L1186.751953,1062.303955C1186.377686,1063.098755,1186.155762,1063.956177,1186.088013,1064.832031C1185.939697,1066.154663,1185.905029,1067.487549,1185.984009,1068.81604C1186.116211,1071.634644,1186.324341,1074.44873,1186.608032,1077.255981C1186.991821,1081.763184,1187.56311,1086.252319,1188.319946,1090.712036C1188.710693,1092.882324,1189.239258,1095.025513,1189.904053,1097.128052C1190.352783,1098.477783,1190.9646,1099.767944,1191.728027,1100.968018C1192.306519,1101.844482,1193.038696,1102.609253,1193.895996,1103.215942C1194.36145,1103.569824,1194.801514,1103.955688,1195.215942,1104.368042L1195.47998,1104.671997L1195.712036,1104.991943C1195.853149,1105.209717,1195.96814,1105.442505,1196.072021,1105.680054C1196.287109,1106.192993,1196.408081,1106.740601,1196.439941,1107.296021C1196.497437,1108.500732,1196.491211,1109.707764,1196.42395,1110.911987C1196.42627,1111.52417,1196.482788,1112.135132,1196.599976,1112.735962C1196.66333,1112.939697,1196.729004,1113.142822,1196.800049,1113.343994L1196.984009,1113.719971C1197.099121,1113.908203,1197.222412,1114.091309,1197.359985,1114.264038C1197.464478,1114.380737,1197.571533,1114.494995,1197.680054,1114.608032C1198.598267,1115.451294,1199.598145,1116.20105,1200.66394,1116.848022C1202.849365,1118.321777,1204.677734,1120.265137,1206.015991,1122.536011C1206.816406,1123.930664,1207.529175,1125.373535,1208.151978,1126.855957C1208.79895,1128.293579,1209.366943,1129.765381,1209.855957,1131.264038L1209.904053,1131.472046C1209.91687,1131.562378,1209.928467,1131.653076,1209.936035,1131.744019C1210.018799,1131.995483,1210.133667,1132.235352,1210.280029,1132.456055C1211.30603,1134.017822,1212.442627,1135.503906,1213.680054,1136.904053C1215.361816,1138.833252,1217.033081,1140.737671,1218.728027,1142.656006L1218.52002,1153.232056C1218.484253,1156.896118,1218.190063,1160.553223,1217.640015,1164.176025C1217.435181,1165.385132,1217.133545,1166.575928,1216.735962,1167.735962C1216.324585,1168.716797,1215.972778,1169.721436,1215.680054,1170.744019C1215.420654,1171.83252,1215.462891,1172.970581,1215.791992,1174.040039C1216.012085,1174.881226,1216.28833,1175.706543,1216.615967,1176.511963C1217.21228,1178.222412,1218.050781,1179.838257,1219.104004,1181.312012C1219.761475,1182.179321,1220.560425,1182.929321,1221.463989,1183.536011C1222.65332,1184.285278,1224.012451,1184.724243,1225.416016,1184.800049C1226.716431,1184.794556,1228.011841,1184.958618,1229.271973,1185.280029C1230.696533,1185.597656,1232.089233,1186.044067,1233.432007,1186.615967C1234.130615,1186.948364,1234.786133,1187.36499,1235.384033,1187.855957C1236.594238,1188.827515,1237.645264,1189.982056,1238.495972,1191.280029C1240.407471,1194.087402,1241.508179,1197.367554,1241.671997,1200.76001C1241.710571,1201.588623,1241.668579,1202.418701,1241.552002,1203.23999L1241.495972,1203.472046C1241.448608,1203.608276,1241.402588,1203.744873,1241.352051,1203.880005C1241.309326,1203.974609,1241.266479,1204.069214,1241.215942,1204.160034C1241.15564,1204.245605,1241.09082,1204.327515,1241.024048,1204.407959L1240.871948,1204.560059L1240.703979,1204.703979L1240.52002,1204.839966C1240.117676,1205.103027,1239.674072,1205.297974,1239.208008,1205.416016C1237.548096,1205.849854,1235.862061,1206.176636,1234.160034,1206.391968C1232.693237,1206.588135,1231.251465,1206.941406,1229.864014,1207.456055C1228.375977,1208.023438,1227.000122,1208.848999,1225.800049,1209.895996L1225.552002,1210.128052C1224.319946,1211.340698,1223.474365,1212.890259,1223.128052,1214.583984C1222.823364,1215.86853,1222.26355,1217.079346,1221.472046,1218.135986C1220.671021,1219.189697,1219.645508,1220.051636,1218.472046,1220.66394C1217.099609,1221.407471,1215.633911,1221.964844,1214.112061,1222.312012C1212.478027,1222.699463,1210.821411,1222.985718,1209.151978,1223.167969C1205.786133,1223.638184,1202.390259,1223.859863,1198.991943,1223.832031C1196.889893,1223.803833,1194.799561,1223.516113,1192.767944,1222.975952C1192.175293,1222.795044,1191.601074,1222.559326,1191.047974,1222.280029C1190,1221.644287,1189.031982,1220.885498,1188.160034,1220.024048C1186.413086,1218.380615,1184.772339,1216.627686,1183.248047,1214.776001C1180.859375,1211.959595,1178.682739,1208.970093,1176.735962,1205.832031C1176.084839,1204.741577,1175.497803,1203.614014,1174.975952,1202.456055C1174.009521,1200.598511,1172.94165,1198.795532,1171.776001,1197.05603C1170.069824,1194.438843,1168.185181,1191.942383,1166.135986,1189.583984C1164.398438,1187.625977,1162.369507,1185.947021,1160.119995,1184.608032C1159.333374,1184.120239,1158.521729,1183.673828,1157.687988,1183.271973C1153.844116,1181.390015,1149.940674,1179.631592,1145.984009,1178C1142.282593,1176.473877,1138.464966,1175.246338,1134.567993,1174.328003C1129.555176,1173.214722,1124.445557,1172.59314,1119.312012,1172.472046C1115.316162,1172.334106,1111.316162,1172.331299,1107.319946,1172.463989C1099.200073,1172.740356,1091.0896,1173.158936,1082.984009,1173.719971L1078.784058,1173.952026C1072.873291,1174.173706,1066.957764,1173.673828,1061.167969,1172.463989C1059.493896,1172.081421,1057.85144,1171.571167,1056.255981,1170.936035C1055.454102,1170.582275,1054.693848,1170.140869,1053.991943,1169.615967L1053.719971,1169.368042C1053.548462,1169.198975,1053.39917,1169.009766,1053.255981,1168.81604C1053.066162,1168.644897,1052.874023,1168.47644,1052.671997,1168.319946C1050.342285,1166.61731,1047.945435,1165.008301,1045.488037,1163.495972C1044.565674,1162.901733,1043.68396,1162.246704,1042.848022,1161.536011C1042.19397,1160.950562,1041.612427,1160.289185,1041.112061,1159.567993C1040.309326,1158.64209,1039.619019,1157.624512,1039.05603,1156.536011C1038.608521,1155.691406,1038.113037,1154.873169,1037.567993,1154.088013C1037.477661,1153.981323,1037.383179,1153.878296,1037.287964,1153.776001C1037.180298,1153.68396,1037.074219,1153.59021,1036.975952,1153.488037C1036.612793,1153.05835,1036.295166,1152.592529,1036.015991,1152.104004C1035.5177,1151.294312,1035.052002,1150.464844,1034.624023,1149.615967C1033.889404,1148.314941,1033.009033,1147.101929,1032,1146C1031.507324,1145.563721,1031.015259,1145.122192,1030.527954,1144.680054L1030.33606,1144.439941L1030.271973,1144.248047L1030.287964,1144.167969C1030.327271,1144.119385,1030.367798,1144.071899,1030.407959,1144.024048L1030.504028,1143.94397C1030.863159,1143.756714,1031.216431,1143.558472,1031.560059,1143.343994C1031.597046,1143.304688,1031.625854,1143.259888,1031.656006,1143.215942L1031.680054,1143.135986C1031.664673,1143.101074,1031.648682,1143.066284,1031.631958,1143.031982C1031.372559,1142.847656,1031.10498,1142.675537,1030.832031,1142.511963L1030.680054,1142.352051L1030.543945,1142.18396L1030.447998,1141.991943C1030.444336,1141.927979,1030.439819,1141.864258,1030.439941,1141.800049L1030.472046,1141.712036L1030.527954,1141.640015C1030.585205,1141.5979,1030.644897,1141.559448,1030.703979,1141.52002L1030.975952,1141.456055C1031.090698,1141.448975,1031.205566,1141.443359,1031.319946,1141.432007L1031.456055,1141.391968L1031.560059,1141.33606L1031.640015,1141.248047L1031.680054,1141.135986C1031.696045,1141.03186,1031.689819,1140.926025,1031.66394,1140.823975L1031.631958,1140.647949C1030.089233,1135.908325,1029.226929,1130.973877,1029.072021,1125.991943C1029.037109,1124.510986,1028.890259,1123.03479,1028.631958,1121.57605C1028.437256,1120.785278,1028.09314,1120.038208,1027.608032,1119.384033C1027.016113,1118.362793,1026.562012,1117.268066,1026.255981,1116.128052C1025.54187,1113.63623,1024.95166,1111.110474,1024.488037,1108.560059C1024.177124,1106.941406,1023.794983,1105.33728,1023.343994,1103.751953C1023.178467,1103.227295,1022.99231,1102.709229,1022.783997,1102.199951L1022.695984,1102.015991C1022.47168,1101.665161,1022.204163,1101.344604,1021.903992,1101.05603C1020.856873,1100.054077,1019.563049,1099.346436,1018.151978,1099.015991L1017.83197,1098.968018C1017.551697,1098.961182,1017.271729,1098.947266,1016.992004,1098.927979C1016.834656,1098.902588,1016.681335,1098.857666,1016.536011,1098.791992L1016.392029,1098.66394L1016.320007,1098.527954L1016.23999,1098.255981L1016.216003,1097.911987L1016.231995,1097.567993C1016.270691,1097.369507,1016.322632,1097.17395,1016.392029,1096.984009L1016.504028,1096.744019L1016.616028,1096.608032L1016.752014,1096.47998C1016.829651,1096.437988,1016.907471,1096.395996,1016.984009,1096.352051C1017.052795,1096.29541,1017.123108,1096.240601,1017.192017,1096.18396C1017.202881,1096.143921,1017.213562,1096.104126,1017.223999,1096.063965C1017.217712,1095.98877,1017.209534,1095.913696,1017.192017,1095.839966L1017.031982,1095.536011C1016.946777,1095.384277,1016.854309,1095.236816,1016.752014,1095.095947L1016.599976,1094.887939C1014.626282,1092.591553,1013.131165,1089.92395,1012.208008,1087.040039C1012.163147,1086.854492,1012.123718,1086.667603,1012.088013,1086.47998C1012.05304,1086.32666,1011.997803,1086.179688,1011.94397,1086.031982C1011.519592,1085.07373,1010.949219,1084.18689,1010.247986,1083.407959C1009.81311,1082.910522,1009.372864,1082.416504,1008.927979,1081.927979C1006.90625,1079.518677,1005.302246,1076.787598,1004.184021,1073.848022C1003.837585,1072.70752,1003.671875,1071.519897,1003.687988,1070.328003C1003.63147,1068.908325,1003.703491,1067.486572,1003.903992,1066.079956C1003.976624,1065.709961,1004.083313,1065.347778,1004.208008,1064.991943C1004.341492,1064.637573,1004.499146,1064.292725,1004.679993,1063.959961C1004.812683,1063.734619,1004.943848,1063.507935,1005.072021,1063.280029C1005.281738,1062.93689,1005.534058,1062.622559,1005.815979,1062.33606C1005.910583,1062.268311,1006.009277,1062.206665,1006.112,1062.151978L1006.255981,1062.112061L1006.383972,1062.119995L1006.504028,1062.18396C1006.561768,1062.254761,1006.618164,1062.326294,1006.671997,1062.400024L1006.791992,1062.640015C1006.871948,1062.840088,1006.93158,1063.047119,1006.984009,1063.255981C1007.234009,1064.098755,1007.626892,1064.893066,1008.159973,1065.592041L1009.05603,1066.728027C1009.416199,1065.921265,1009.715149,1065.088867,1009.960022,1064.23999C1010.014526,1064.010254,1010.060303,1063.778442,1010.088013,1063.543945L1010.151978,1063.47998C1010.229248,1063.49353,1010.306763,1063.505737,1010.383972,1063.52002L1010.528015,1063.608032C1010.619629,1063.673462,1010.711731,1063.738037,1010.799988,1063.807983L1011.088013,1064.072021C1011.741333,1064.714844,1012.282104,1065.46228,1012.695984,1066.280029L1013.304016,1067.656006C1013.516785,1067.134644,1013.719604,1066.609131,1013.911987,1066.079956C1014.089111,1065.51416,1014.145752,1064.917236,1014.080017,1064.328003C1014.005737,1063.99646,1013.958008,1063.659424,1013.94397,1063.319946C1013.956726,1063.226563,1013.969971,1063.133179,1013.984009,1063.040039L1014.031982,1062.94397L1014.096008,1062.880005L1014.184021,1062.855957L1014.255981,1062.871948L1014.335999,1062.880005C1014.559448,1062.993408,1014.770508,1063.128662,1014.976013,1063.271973C1016.298767,1064.401978,1017.336914,1065.826904,1018.007996,1067.432007L1018.176025,1067.784058L1018.271973,1067.94397L1018.383972,1068.088013L1018.440002,1068.128052L1018.504028,1068.151978C1018.544617,1068.134521,1018.584595,1068.115845,1018.624023,1068.095947L1018.687988,1068.024048C1018.846375,1067.782715,1019.000183,1067.538208,1019.143982,1067.287964L1019.280029,1067.112061L1019.447998,1066.959961C1019.555237,1066.902466,1019.66333,1066.846436,1019.776001,1066.800049L1019.952026,1066.791992L1020.127991,1066.81604C1020.401978,1066.91272,1020.642212,1067.083252,1020.840027,1067.296021L1021,1067.456055L1021.151978,1067.624023C1021.243835,1067.741211,1021.330627,1067.862061,1021.416016,1067.984009C1021.793152,1068.687256,1022.188171,1069.380493,1022.599976,1070.063965C1022.688843,1070.164307,1022.780457,1070.262085,1022.872009,1070.359985L1022.94397,1070.384033L1023.015991,1070.400024C1023.062622,1070.378418,1023.107422,1070.353394,1023.151978,1070.328003L1023.296021,1070.151978L1023.375977,1070.040039C1023.631287,1069.612061,1023.835754,1069.155762,1023.984009,1068.680054C1024.176392,1068.121826,1024.35498,1067.558838,1024.52002,1066.991943L1025.063965,1064.952026C1025.524536,1065.613525,1025.978394,1066.280273,1026.42395,1066.952026C1027.323364,1068.493164,1028.004395,1070.151611,1028.447998,1071.880005C1028.520874,1072.081787,1028.599487,1072.28125,1028.680054,1072.47998L1028.823975,1072.767944L1028.936035,1072.936035C1028.981079,1072.955322,1029.025269,1072.97644,1029.072021,1072.991943L1029.135986,1072.911987C1029.307129,1072.457275,1029.466187,1071.998169,1029.615967,1071.536011C1029.640747,1071.492188,1029.658081,1071.445313,1029.680054,1071.400024C1029.717651,1071.369629,1029.758545,1071.34436,1029.800049,1071.319946L1029.848022,1071.328003L1029.895996,1071.352051L1030,1071.447998C1030.081909,1071.584595,1030.163086,1071.721436,1030.248047,1071.855957C1030.432129,1072.281982,1030.633545,1072.700439,1030.848022,1073.112061L1030.94397,1073.232056C1031.045654,1073.356445,1031.164795,1073.4646,1031.287964,1073.567993L1031.416016,1073.599976L1031.552002,1073.615967L1031.680054,1073.567993C1031.804321,1073.486694,1031.904663,1073.376099,1031.991943,1073.255981C1032.115112,1073.073364,1032.225342,1072.882813,1032.328003,1072.687988L1032.400024,1072.52002C1032.650635,1071.830444,1032.890991,1071.137085,1033.119995,1070.439941L1034.656006,1072.015991C1036.471924,1074.118408,1037.856323,1076.556885,1038.735962,1079.192017C1039.02063,1080.299683,1039.154053,1081.440674,1039.128052,1082.583984C1039.123535,1083.153442,1039.155151,1083.722656,1039.223999,1084.287964L1039.463989,1084.287964L1039.719971,1084.264038C1039.949341,1084.240356,1040.175781,1084.196899,1040.400024,1084.144043L1040.52002,1084.095947C1040.880127,1083.081543,1041.226563,1082.063477,1041.560059,1081.040039C1041.335449,1079.7677,1041.015625,1078.514038,1040.608032,1077.287964C1040.249146,1076.24292,1039.915771,1075.189331,1039.608032,1074.128052C1038.967407,1071.42334,1038.653687,1068.651367,1038.671997,1065.871948C1038.606934,1060.646851,1039.315552,1055.441162,1040.776001,1050.42395C1041.402588,1048.404297,1042.182983,1046.435547,1043.112061,1044.536011C1043.42041,1043.943359,1043.787109,1043.382935,1044.208008,1042.864014L1044.543945,1042.52002C1044.809204,1042.298584,1045.083618,1042.088501,1045.375977,1041.904053C1045.869385,1041.607422,1046.398682,1041.374878,1046.952026,1041.215942C1050.342896,1040.12207,1053.906616,1039.664185,1057.463989,1039.864014C1059.064453,1039.979614,1060.637451,1040.341919,1062.128052,1040.936035C1062.323975,1041.029663,1062.520142,1041.122559,1062.712036,1041.223999L1063,1041.391968C1063.182861,1041.509521,1063.364014,1041.630127,1063.543945,1041.751953C1063.718994,1041.881958,1063.883667,1042.02478,1064.047974,1042.167969C1064.220215,1042.314331,1064.364868,1042.490112,1064.488037,1042.680054C1064.613159,1042.857422,1064.730225,1043.040283,1064.832031,1043.232056C1064.883911,1043.388062,1064.941406,1043.542358,1065,1043.696045C1065.032104,1043.855591,1065.060669,1044.015503,1065.088013,1044.176025C1065.093384,1044.341553,1065.096436,1044.50708,1065.079956,1044.671997L1065.047974,1044.871948L1065.008057,1045.063965C1064.961914,1045.28772,1064.887085,1045.504272,1064.791992,1045.712036C1064.558228,1046.206299,1064.251587,1046.662964,1063.880005,1047.063965C1062.874023,1048.114624,1061.693848,1048.983276,1060.391968,1049.631958C1059.426025,1050.195313,1058.528198,1050.867554,1057.712036,1051.631958L1057.447998,1051.895996C1056.116089,1053.269653,1055.189697,1054.983521,1054.76001,1056.848022C1054.398071,1058.470459,1054.395874,1060.152222,1054.751953,1061.776001C1054.805176,1062.194336,1054.907837,1062.605103,1055.05603,1063L1055.135986,1063.063965L1055.167969,1063.063965C1055.189331,1063.050659,1055.211914,1063.039551,1055.232056,1063.024048L1055.264038,1062.984009L1055.368042,1062.791992L1055.463989,1062.599976C1055.725708,1061.988159,1055.96228,1061.366089,1056.176025,1060.735962C1056.838989,1058.982422,1057.600098,1057.2677,1058.456055,1055.599976C1058.873047,1054.838745,1059.361328,1054.118774,1059.911987,1053.447998C1061.029785,1052.08667,1062.588623,1051.156372,1064.319946,1050.832031C1065.685547,1050.568359,1067.07312,1050.434692,1068.463989,1050.432007C1070.290161,1050.38269,1072.116943,1050.506226,1073.920044,1050.800049C1074.905273,1050.996704,1075.856445,1051.338135,1076.735962,1051.823975C1076.898071,1051.951782,1077.067871,1052.06958,1077.23999,1052.18396C1077.468628,1052.361694,1077.671997,1052.568481,1077.855957,1052.791992C1077.969238,1052.944824,1078.076294,1053.102051,1078.176025,1053.264038L1078.312012,1053.511963C1078.390015,1053.687134,1078.45813,1053.866455,1078.52002,1054.047974C1078.575439,1054.234741,1078.619629,1054.424561,1078.656006,1054.615967C1078.723755,1055.087524,1078.750977,1055.564087,1078.728027,1056.040039L1078.703979,1056.391968C1078.678467,1056.75061,1078.61377,1057.105713,1078.504028,1057.447998C1078.36792,1057.851563,1078.152588,1058.223633,1077.871948,1058.543945L1077.640015,1058.767944C1077.022949,1059.27063,1076.327271,1059.667603,1075.583984,1059.952026C1073.904297,1060.656006,1072.3927,1061.706177,1071.144043,1063.031982L1070.927979,1063.280029C1070.802856,1063.452393,1070.683594,1063.629028,1070.567993,1063.807983C1070.464966,1064.013916,1070.366943,1064.22229,1070.271973,1064.432007C1070.005371,1065.069336,1069.810303,1065.734619,1069.696045,1066.416016C1068.979248,1070.592529,1069.095825,1074.868896,1070.040039,1079C1070.279541,1079.990967,1070.63916,1080.949097,1071.119995,1081.848022C1071.844971,1083.040771,1072.68396,1084.160278,1073.624023,1085.192017C1075.313965,1087.153931,1077.105469,1089.026123,1078.991943,1090.800049C1082.049194,1093.748535,1085.299072,1096.490479,1088.719971,1099.008057C1089.81958,1099.791382,1090.942993,1100.540894,1092.088013,1101.255981L1091.656006,1099.959961L1091.504028,1099.624023C1091.285156,1099.099609,1091.111084,1098.557251,1091,1098C1091.223389,1098.660767,1091.44458,1099.322144,1091.66394,1099.984009C1091.976074,1100.626465,1092.381836,1101.217896,1092.855957,1101.751953L1095.94397,1103.735962L1097.57605,1103.151978C1097.998779,1102.506226,1098.396729,1101.844604,1098.767944,1101.167969C1099.199829,1100.440186,1099.707642,1099.76001,1100.287964,1099.144043C1100.43689,1098.992065,1100.60083,1098.856445,1100.776001,1098.735962C1100.939697,1098.612549,1101.125854,1098.523071,1101.319946,1098.456055C1101.375366,1098.444824,1101.430908,1098.43396,1101.488037,1098.432007L1101.552002,1098.456055L1101.599976,1098.504028C1101.629272,1098.563477,1101.650513,1098.625732,1101.671997,1098.687988C1101.701782,1099.269287,1101.692871,1099.851807,1101.647949,1100.432007C1101.631104,1100.621094,1101.641113,1100.810669,1101.656006,1101C1101.660889,1101.104004,1101.666626,1101.215942,1101.671997,1101.319946L1101.687988,1101.456055L1101.712036,1101.592041L1101.735962,1101.696045L1101.968018,1101.615967C1102.564819,1101.427368,1103.168091,1101.260742,1103.776001,1101.112061C1104.112549,1100.790894,1104.471191,1100.49353,1104.855957,1100.232056C1104.899048,1100.213257,1104.938232,1100.188843,1104.984009,1100.176025C1105.008423,1100.198853,1105.026367,1100.225952,1105.040039,1100.255981C1105.038818,1100.402588,1105.040649,1100.549194,1105.040039,1100.696045L1105.024048,1100.823975C1106.044556,1100.599609,1107.075073,1100.42395,1108.112061,1100.296021C1109.11792,1099.42395,1110.202148,1098.646729,1111.352051,1097.975952L1111.592041,1097.848022C1112.33667,1097.503418,1113.082275,1097.165405,1113.832031,1096.832031C1113.554199,1097.416992,1113.297241,1098.011841,1113.063965,1098.615967C1112.945435,1098.915161,1112.847412,1099.22229,1112.776001,1099.536011L1112.751953,1099.647949L1112.735962,1099.751953C1112.730713,1099.823853,1112.729614,1099.895996,1112.728027,1099.968018L1113.447998,1099.904053z"/>
</svg>
