<?xml version="1.0" encoding="UTF-8"?>
<svg xmlns="http://www.w3.org/2000/svg" width="383.909mm" height="351.165mm" viewBox="-28.064178 -1379.230469 383.909058 351.165161">
    <path transform="matrix(-1,0,0,-1,0,0)" style="stroke:#000000;stroke-width:0.05mm;fill:none" d="M12,1357C13.250131,1355.594849,16.264204,1352.856567,17.247229,1351.9646C18.426231,1350.894775,21.483757,1352.223877,21,1354C20.161589,1357.078247,19.782858,1360.317993,16,1364C10.399324,1369.451294,3.552628,1371.083374,1,1371C-0.882699,1371.102783,-5.351898,1367.313965,-9.408112,1363.912109C-12.920746,1360.966064,-14.047211,1359.697876,-15.585907,1356.957275C-16.199188,1355.864746,-16.850372,1354.962891,-17.032898,1354.953125C-17.215485,1354.943359,-17.787323,1355.023193,-18.303741,1355.130615C-21.680389,1355.833008,-29.475861,1355.237671,-32.84256,1354.020142C-35.948212,1352.897095,-37.554535,1353.131836,-40.749237,1355.175171C-43.579681,1356.985474,-45.772217,1359.178711,-46.938202,1361.365723C-47.519775,1362.456787,-48.457001,1364.216919,-49.020844,1365.2771C-51.061707,1369.114746,-54.242554,1373.277222,-57.164337,1375.934082C-60.568207,1379.029175,-63.708038,1380.00769,-65.733658,1378.604736C-67.196426,1377.591675,-67.459137,1376.350708,-67.441788,1370.535278C-67.433441,1367.709106,-67.55423,1364.638062,-67.710297,1363.710571C-67.983795,1362.085205,-69.092178,1359.099365,-69.741241,1358.23938C-69.913818,1358.010742,-70.122177,1357.640747,-70.2043,1357.417358C-70.286377,1357.19397,-70.846008,1356.26709,-71.447876,1355.357422C-75.070557,1349.882568,-76.79866,1344.837524,-76.544556,1340.478149C-76.498871,1339.694214,-76.11734,1338.154175,-75.696808,1337.05603C-74.783875,1334.671997,-74.766113,1334.733643,-77.204346,1331.822266C-78.436417,1330.351318,-79.280457,1328.990723,-80.015839,1327.290283C-80.593872,1325.953979,-81.759155,1323.685425,-82.605362,1322.248901C-83.45163,1320.812744,-84.899231,1317.804688,-85.822296,1315.564575C-86.745361,1313.324707,-87.852295,1310.81543,-88.282196,1309.98877C-88.712067,1309.162109,-89.246841,1308.11731,-89.470657,1307.667114C-93.676163,1299.203979,-96.570419,1294.254028,-98.77829,1291.748413C-100.950745,1289.282837,-102.854065,1287.787231,-106.020737,1286.057251C-111.90799,1282.840698,-115.045166,1281.815186,-123.391418,1280.379028C-129.469177,1279.33313,-130.474457,1279.059326,-136.303879,1276.862183C-138.443146,1276.055786,-140.603302,1275.267334,-141.104248,1275.109985C-142.01004,1274.825439,-149.983414,1271.832397,-151.217957,1271.313721C-154.247498,1270.040527,-157.294891,1269.341553,-161.93959,1268.854492C-164.619583,1268.573608,-167.874329,1268.151367,-169.172363,1267.916138C-176.205658,1266.642334,-192.902283,1265.080078,-202.24942,1264.821533C-211.257629,1264.572388,-216.321289,1263.612305,-227.886414,1259.960693C-239.184097,1256.393677,-242.949188,1255.673218,-253.618988,1255.036987C-258.977203,1254.717651,-261.747559,1254.443359,-263.235962,1254.084839C-267.043396,1253.167847,-267.078033,1253.157227,-273.519775,1250.933716C-278.917358,1249.070801,-288.223206,1244.551392,-290.626282,1247.62915C-291.365662,1248.57605,-288.063293,1258.101807,-281.912476,1265.651367C-280.891327,1266.904663,-280.189087,1267.046265,-279.274536,1267.672852C-277.345459,1269.003662,-275.42572,1270.354248,-273.521576,1271.720093C-270.328094,1274.03772,-267.299011,1276.573486,-264.455933,1279.309326C-261.057434,1282.598022,-258.010376,1286.231201,-255.363586,1290.150146C-253.249557,1293.328857,-251.468353,1296.717041,-250.048538,1300.260742C-248.99852,1302.881348,-248.090271,1305.556519,-247.327484,1308.274902C-246.948334,1309.626953,-246.549561,1310.973022,-246.131378,1312.313721C-245.99704,1312.727661,-245.845673,1313.135986,-245.679092,1313.538086C-246.592834,1313.079346,-247.52002,1312.647949,-248.459839,1312.245361C-250.537262,1311.342041,-252.606979,1310.421021,-254.668655,1309.4823C-262.218536,1306.024658,-269.416962,1301.846069,-276.163666,1297.004883C-281.549438,1293.161743,-286.699829,1288.998291,-291.586548,1284.538086C-293.543976,1282.751587,-295.486237,1280.961304,-297.426086,1279.155762C-298.091766,1278.536987,-298.776245,1277.938477,-299.478424,1277.361206C-299.804443,1277.008179,-300.156677,1276.679932,-300.532532,1276.380493C-301.271118,1275.780396,-302.06781,1275.13501,-302.809723,1274.536133C-304.108276,1273.488647,-305.32193,1272.339844,-306.438446,1271.100098C-307.682007,1269.709351,-308.739838,1268.163086,-309.585144,1266.499756C-310.505951,1264.656738,-311.157471,1262.691162,-311.519592,1260.663086C-311.997406,1258.502075,-312.616974,1256.374878,-313.374146,1254.295288C-313.897491,1252.86145,-314.398346,1251.420044,-314.876831,1249.970581C-315.315247,1248.6427,-315.620728,1247.27478,-315.789734,1245.886841C-316.017456,1243.808105,-315.748138,1241.704712,-315.005798,1239.749756C-314.537659,1238.493774,-313.933197,1237.293335,-313.202576,1236.1698C-312.473022,1235.16394,-311.594421,1234.275024,-310.596863,1233.53418C-309.399628,1232.63501,-308.963928,1230.242676,-307.606598,1229.610596C-306.945618,1229.295532,-305.450012,1220.154053,-307.497589,1218.132813C-311.259033,1214.420166,-311.617188,1213.988403,-311.985992,1212.72168C-312.859863,1209.719971,-312.68222,1210.03125,-315.702148,1206.209839C-317.745178,1203.62439,-319.33551,1200.256714,-320.101501,1196.893677C-320.523315,1195.041992,-320.575134,1194.123779,-320.397125,1191.657837C-320.278381,1190.012939,-320.031281,1188.098389,-319.847992,1187.402954C-319.417389,1185.769287,-318.760315,1173.753418,-318.83905,1168.953003C-318.89621,1165.467041,-319.118835,1160.371582,-319.413544,1155.802124C-319.484314,1154.704834,-319.566162,1153.149902,-319.595398,1152.346436C-319.757874,1147.88147,-319.95401,1145.762939,-320.343109,1144.270142C-321.053345,1141.545776,-323.041412,1137.633057,-326.335938,1132.476196C-327.680176,1130.371826,-334.958069,1119.946289,-335.399292,1119.492798C-335.549622,1119.338379,-335.988678,1118.776123,-336.374939,1118.24353C-339.168121,1114.391846,-344.122314,1108.240845,-348.132416,1103.645752C-353.166138,1097.877441,-354.497589,1095.615967,-355.353516,1091.37915C-356.029907,1088.031006,-356.005127,1074.651733,-355.300354,1062.676025C-355.077881,1058.895752,-354.964874,1054.788208,-355.049225,1053.548218C-355.133545,1052.308228,-355.119507,1049.509888,-355.017975,1047.329468L-354.833435,1043.365356L-353.60556,1041.184204C-352.72699,1039.623901,-352.216919,1038.304077,-351.812622,1036.54541C-351.112122,1033.498413,-350.599365,1032.706055,-348.712036,1031.754761C-347.893005,1031.341797,-346.507538,1030.546509,-345.633179,1029.987305C-343.69397,1028.747192,-343.421631,1028.67749,-339.250946,1028.353638C-333.296692,1027.891235,-333.378906,1027.883789,-331.258148,1029.089844C-329.417786,1030.136719,-329.324402,1030.160278,-327.219116,1030.107666C-324.423706,1030.03772,-323.647217,1030.390503,-323.151764,1031.955688C-322.824463,1032.989502,-322.835114,1033.252441,-323.255005,1034.505981C-323.512512,1035.27478,-323.97699,1036.723511,-324.28717,1037.725708C-325.262604,1040.877075,-325.462006,1041.333008,-326.453888,1042.680786C-327.6763,1044.341675,-329.217529,1045.272583,-333.304779,1046.819336C-337.32901,1048.342041,-338.104309,1048.855713,-339.083588,1050.647827C-339.775574,1051.914185,-339.900787,1052.489502,-340.237366,1055.94873C-341.110962,1064.92749,-340.087189,1072.618652,-337.367584,1077.508179C-336.537048,1079.001465,-336.507507,1079.056763,-334.497803,1082.883789C-330.052704,1091.348267,-328.585083,1092.973022,-318.424194,1100.679688C-315.07431,1103.220215,-311.151215,1106.219971,-309.706207,1107.345459C-308.26123,1108.471191,-306.771698,1109.430542,-306.396179,1109.477539C-305.760315,1109.557373,-305.612366,1109.350586,-304.243469,1106.468872C-303.434998,1104.766968,-302.014801,1101.520142,-301.087463,1099.25354C-299.04187,1094.253784,-297.381256,1090.863647,-293.367371,1083.49292C-289.054413,1075.572876,-288.272797,1074.465698,-285.699463,1072.630371C-284.531616,1071.797363,-282.883118,1070.479004,-282.036102,1069.700317C-281.189087,1068.921875,-280.07843,1068.106079,-279.567902,1067.887451C-278.2948,1067.342285,-275.928101,1067.529419,-273.141388,1068.395508C-271.24292,1068.985718,-270.362793,1069.111572,-267.935883,1069.140625C-265.926544,1069.164795,-264.634827,1069.307983,-263.796326,1069.599609C-263.125977,1069.833008,-261.672516,1070.274048,-260.566437,1070.579956C-257.318695,1071.478027,-256.75,1072.764038,-257.932892,1076.535034C-258.920654,1079.683838,-259.595947,1080.793579,-261.258972,1082C-263.436798,1083.579956,-265.043884,1084.10083,-268.311279,1084.285645C-273.233887,1084.564087,-273.837463,1084.70813,-275.346741,1085.963501C-276.593567,1087.00061,-278.815369,1090.319336,-279.512024,1092.185303C-279.636658,1092.519165,-280.342651,1094.009277,-281.080933,1095.49646C-283.305756,1099.978638,-285.455231,1105.628174,-285.549194,1107.240479C-285.706665,1109.94165,-284.119934,1114.028198,-281.65094,1117.280518C-280.034088,1119.410522,-275.865021,1124.001831,-270.808868,1129.220825C-260.408142,1139.956421,-253.5569,1148.204834,-250.338379,1153.865845C-247.928802,1158.103882,-246.070511,1161.629639,-245.2901,1163.44397C-244.380447,1165.558838,-243.302032,1169.770386,-242.984863,1172.446899C-242.569687,1175.950073,-242.200592,1177.180542,-241.241821,1178.258057C-239.992493,1179.662109,-238.159164,1179.515991,-233.87204,1177.670898C-231.203552,1176.522461,-230.437347,1176.364502,-224.081848,1175.651245C-221.091171,1175.315674,-216.179596,1174.317139,-211.96904,1173.188599C-204.870087,1171.285889,-204.113831,1171.184326,-191.314056,1170.412109C-188.827576,1170.262085,-186.251724,1170.056885,-185.589996,1169.956055C-184.928223,1169.855225,-183.966949,1169.730347,-183.453796,1169.678467C-178.523544,1169.18103,-170.929901,1167.691895,-165.493591,1166.156982C-162.488251,1165.30835,-161.130585,1165.256836,-157.789001,1165.864014C-156.200195,1166.152832,-155.907532,1166.118164,-153.559601,1165.365356C-150.53418,1164.394897,-149.553452,1164.392212,-148.751709,1165.352051C-148.009247,1166.240723,-147.741547,1166.244995,-144.867676,1165.41394C-142.965546,1164.86377,-142.351044,1164.786377,-141.806976,1165.027832C-141.432587,1165.194092,-140.724518,1165.321167,-140.233459,1165.310547C-138.640991,1165.275757,-134.02597,1164.969238,-133.87561,1164.888184C-133.710602,1164.799194,-129.518707,1164.656616,-128.707001,1164.71228C-128.416656,1164.7323,-126.924683,1164.908813,-125.39151,1165.104736C-122.290466,1165.500732,-120.781799,1165.330811,-119.924744,1164.488281C-119.493958,1164.064697,-119.355164,1163.520264,-119.220734,1161.726685C-119.128632,1160.497803,-119.171982,1158.906006,-119.317108,1158.189087C-119.71666,1156.214844,-119.75473,1153.403931,-119.399704,1152.090332C-119.225098,1151.44458,-118.65451,1149.748901,-118.131638,1148.321777C-117.32373,1146.117065,-115.933319,1141.08313,-115.214142,1137.759277C-115.105133,1137.255615,-114.943298,1136.549561,-114.854538,1136.190308C-114.765747,1135.831055,-114.603821,1135.125122,-114.49472,1134.621338C-114.38559,1134.117554,-113.769165,1131.708862,-113.124771,1129.268677C-110.974518,1121.126099,-110.906372,1120.611816,-109.830017,1104.418335C-109.17392,1094.547729,-109.00354,1092.770142,-108.503906,1090.58313C-108.405319,1090.151611,-108.200684,1088.971191,-108.049118,1087.959717C-107.897629,1086.948242,-107.722015,1086.045532,-107.65892,1085.953979C-107.595795,1085.862183,-107.406021,1084.501953,-107.237228,1082.93103C-107.068451,1081.360107,-106.850555,1079.708252,-106.753067,1079.260132C-106.489624,1078.049194,-106.769928,1073.44043,-107.228424,1071.444946C-108.356537,1066.535156,-108.097046,1065.540405,-105.144073,1063.453491C-102.841888,1061.826416,-102.489655,1061.376953,-102.020462,1059.46814C-101.406036,1056.968384,-101.300034,1056.218994,-100.73201,1050.358765C-100.399292,1046.925659,-100.027405,1044.336914,-99.788208,1043.788696C-99.253342,1042.562988,-97.69342,1040.42627,-96.396286,1039.142456C-94.894333,1037.656006,-93.773773,1036.309082,-92.56514,1034.537231C-91.389343,1032.813477,-90.389557,1031.900024,-88.996902,1031.276367C-88.182846,1030.911987,-87.066528,1030.880249,-81.309387,1031.057739C-74.979996,1031.25293,-74.496338,1031.301392,-73.281464,1031.864014C-72.265839,1032.334351,-71.271408,1032.514526,-68.641968,1032.704712C-65.341095,1032.943359,-65.286346,1032.95752,-64.652695,1033.726685C-63.053955,1035.667114,-64.936279,1040.404907,-68.112595,1042.435059C-70.032501,1043.661987,-71.905106,1044.31665,-77.245972,1045.628174C-79.15979,1046.098145,-80.213394,1046.710571,-81.050858,1047.839355C-81.590042,1048.566162,-84.603577,1056.536621,-84.686508,1057.4552C-84.742554,1058.076294,-84.17421,1057.473999,-83.37384,1056.064087C-81.718491,1053.148438,-80.242859,1052.063232,-77.681992,1051.878174C-75.738602,1051.737793,-73.922668,1052.311035,-72.450958,1053.529419C-71.008514,1054.723877,-70.873459,1054.744751,-63.609116,1054.903564C-58.57724,1055.013306,-58.394958,1055.383301,-60.717026,1060.773682C-62.599152,1065.142456,-63.634216,1066.390259,-66.333389,1067.543701C-68.279907,1068.375488,-74.667175,1069.891846,-76.544373,1069.967773C-78.389084,1070.04248,-79.434921,1070.485352,-79.976761,1071.420898C-80.237274,1071.87085,-80.534271,1074.030273,-80.901917,1078.146973C-81.199707,1081.481812,-81.613953,1085.673706,-81.822418,1087.46228C-82.057953,1089.483154,-82.131805,1091.384521,-82.017548,1092.485718C-81.916382,1093.460327,-81.769989,1095.453857,-81.692215,1096.915894C-81.474121,1101.015625,-81.120544,1104.177734,-80.633377,1106.385132C-80.003876,1109.237549,-79.619995,1111.730469,-78.924377,1117.482056C-77.931366,1125.693359,-77.144073,1130.995972,-76.443848,1134.189209C-76.201035,1135.296509,-75.924713,1136.564697,-75.829742,1137.007568C-75.734802,1137.450317,-75.249878,1139.386475,-74.752197,1141.310303C-73.811401,1144.946899,-72.779266,1150.172607,-72.501831,1152.703979C-72.413452,1153.51062,-72.228699,1155.19104,-72.091309,1156.437866C-71.953918,1157.684814,-71.769775,1159.961182,-71.682098,1161.496704C-71.117096,1171.390869,-67.939224,1181.623657,-60.953873,1196.04187C-55.757294,1206.768188,-54.129791,1211.546753,-53.080811,1219.158203C-52.529755,1223.15686,-52.38028,1225.155884,-52.304657,1229.538452C-52.200745,1235.557861,-51.586578,1237.391235,-46.696045,1246.281006C-44.924866,1249.500488,-44.046051,1251.472412,-43.269348,1253.96936C-42.487885,1256.481689,-41.554169,1258.312744,-39.47525,1261.409424C-38.50238,1262.858643,-36.895966,1265.522583,-35.905548,1267.329224C-34.512268,1269.87085,-33.772552,1270.906982,-32.636932,1271.907593C-31.316071,1273.071411,-31.094421,1273.429199,-30.423248,1275.481445C-28.706512,1280.731323,-28.284271,1281.421021,-26.731049,1281.511597C-26.175018,1281.543945,-25.179871,1281.375244,-24.519745,1281.136719C-23.859619,1280.898315,-22.187531,1280.512695,-20.804077,1280.280151C-14.066345,1279.147095,-12.562897,1278.808594,-10.393036,1277.935303C-9.105377,1277.417236,-6.227386,1276.380615,-3.997528,1275.631958C4.645294,1272.729858,6.86792,1272.56543,12.566437,1274.406494C15.081787,1275.219116,16.557709,1275.969849,18.039154,1277.189941C19.454803,1278.355835,27.214264,1287.247803,27.629364,1288.17981C27.837189,1288.646362,28.029175,1289.711182,28.056091,1290.545898C28.098083,1291.850586,27.994232,1292.238647,27.316681,1293.308594C26.883179,1293.993164,25.844604,1295.050049,25.00885,1295.657349C24.173065,1296.264526,22.646088,1297.549194,21.615509,1298.512085C10.924591,1308.502319,10.240356,1309.27124,10.300079,1311.229858C10.32016,1311.886963,10.605316,1313.312622,10.933868,1314.398193C11.378754,1315.868408,11.55246,1317.26416,11.614655,1319.870239C11.660614,1321.794434,11.879242,1324.119873,12.100586,1325.03772C12.321838,1325.955688,12.488586,1326.953125,12.471039,1327.254395C12.423492,1328.070068,11.159637,1330.107056,8.630402,1333.44458C5.93866,1336.99646,4.716034,1339.025391,4.398407,1340.467285C3.974945,1342.389893,5.420471,1348.382446,6.567261,1349.458496C6.829071,1349.704102,7.624725,1350.159058,8.335419,1350.468994C10.154904,1355.447144,7.269205,1353.601685,12,1357z"/>
</svg>
