<?xml version="1.0" encoding="UTF-8"?>
<svg xmlns="http://www.w3.org/2000/svg" width="500.000mm" height="566.014mm" viewBox="-1345.120605 -761.075195 500.000000 566.013916">
    <path transform="matrix(-4.919921,0,0,-5.3832,4292.737793,2095.469238)" style="stroke:#000000;stroke-width:0.05mm;fill:none" d="M1099.515625,425.847656L1098.785156,427.457031C1098.306152,428.571838,1097.902588,429.717529,1097.578125,430.886719C1096.973877,432.963806,1096.532471,435.084778,1096.257813,437.230469C1096.155273,438.009949,1096.109619,438.795898,1096.121094,439.582031C1096.139038,440.529694,1096.378662,441.460266,1096.824219,442.296875C1097.181763,442.924408,1097.640625,443.488556,1098.183594,443.964844C1098.630249,444.350037,1099.09668,444.7117,1099.582031,445.046875C1101.021484,446.070007,1102.478516,447.067322,1103.953125,448.039063C1106.631104,449.80542,1109.222656,451.699615,1111.71875,453.714844C1113.221924,454.935944,1114.689819,456.199402,1116.121094,457.503906C1117.33252,458.599701,1118.631348,459.594788,1120.003906,460.480469C1120.298096,460.662598,1120.5979,460.835449,1120.902344,461C1121.851318,461.5354,1122.759155,462.140869,1123.617188,462.8125C1124.034546,463.144745,1124.432739,463.500397,1124.808594,463.878906L1125.320313,464.429688L1125.777344,464.996094L1126.703125,466.230469L1128.953125,466.074219C1130.969849,465.929443,1132.995361,466.1828,1134.914063,466.820313C1135.564087,467.03894,1136.200928,467.295227,1136.820313,467.589844C1137.30957,467.836121,1137.778687,468.120636,1138.222656,468.441406C1139.507813,469.382111,1140.693481,470.451569,1141.761719,471.632813C1142.354126,472.275879,1142.901733,472.958862,1143.402344,473.675781C1143.612183,473.97934,1143.801758,474.296143,1143.976563,474.621094L1144.300781,475.289063L1144.601563,476.007813C1144.993652,477.050018,1145.293701,478.124512,1145.5,479.21875C1145.835815,480.926361,1145.973267,482.667053,1145.910156,484.40625C1145.878052,485.213593,1145.791138,486.017944,1145.644531,486.8125C1145.317139,488.411987,1144.744263,489.951172,1143.945313,491.375L1143.414063,492.277344L1142.824219,493.152344L1142.191406,493.992188L1141.507813,494.792969L1140.789063,495.550781C1140.417969,495.913788,1140.033813,496.263275,1139.636719,496.597656C1138.73584,497.359436,1137.75061,498.015686,1136.699219,498.550781C1136.123169,498.84494,1135.527222,499.098572,1134.914063,499.304688L1133.234375,499.863281L1133.378906,502.429688C1133.464478,503.939575,1133.348877,505.454193,1133.035156,506.933594C1132.747192,508.323761,1132.249634,509.662231,1131.558594,510.902344C1131.120239,511.643677,1130.611938,512.341309,1130.039063,512.984375C1129.064697,514.103271,1127.955566,515.097046,1126.738281,515.945313C1126.159302,516.349304,1125.536621,516.68689,1124.882813,516.953125C1123.643799,517.485046,1122.334961,517.836914,1120.996094,517.996094C1119.613037,518.15332,1118.21521,518.124756,1116.839844,517.910156C1116.02771,517.781982,1115.223022,517.610107,1114.429688,517.394531L1114.257813,517.378906L1114.113281,517.40625L1113.992188,517.488281C1113.951294,517.533569,1113.911621,517.580017,1113.875,517.628906C1113.833984,517.700073,1113.797485,517.773682,1113.761719,517.847656C1113.661865,518.073303,1113.570679,518.302612,1113.488281,518.535156C1112.560913,520.993713,1111.12439,523.228699,1109.273438,525.09375C1107.706665,526.693665,1105.872314,528.007751,1103.851563,528.972656C1101.463501,530.086853,1098.857788,530.656616,1096.222656,530.640625C1093.039551,530.625244,1089.922119,529.734314,1087.210938,528.066406C1086.043945,527.352356,1084.954346,526.51886,1083.960938,525.578125L1082.136719,523.855469L1080.457031,524.148438C1079.686279,524.284424,1078.907104,524.36792,1078.125,524.398438C1077.373047,524.430298,1076.619629,524.407043,1075.871094,524.328125C1074.894165,524.228699,1073.929688,524.030518,1072.992188,523.738281C1071.799438,523.362976,1070.656982,522.843262,1069.589844,522.191406C1068.889404,521.741455,1069.121338,521.891357,1068.421875,521.4375C1068.167969,521.270142,1067.9021,521.121399,1067.625,520.996094L1067.257813,520.871094L1067.058594,520.828125L1066.84375,520.792969C1066.33728,520.746704,1065.828857,520.727173,1065.320313,520.734375C1064.370361,520.75415,1063.420166,520.708801,1062.476563,520.597656C1061.985718,520.538574,1061.498047,520.455383,1061.015625,520.347656C1060.554199,520.238037,1060.098145,520.107361,1059.648438,519.957031C1058.984131,519.723633,1058.34021,519.43512,1057.726563,519.089844C1057.083008,518.728943,1056.468872,518.317749,1055.890625,517.859375C1054.984009,517.143127,1054.141724,516.349182,1053.371094,515.488281C1053.144653,515.227966,1052.924438,514.962402,1052.710938,514.691406L1052.105469,513.855469L1051.546875,512.984375L1051.042969,512.082031L1050.59375,511.152344L1050.195313,510.199219L1049.859375,509.226563L1049.578125,508.238281L1049.355469,507.238281L1049.191406,506.226563L1049.089844,505.214844C1048.994263,503.865601,1049.069946,502.509674,1049.316406,501.179688L1049.578125,499.808594L1048.125,497.734375C1047.48999,496.830292,1046.917114,495.884003,1046.410156,494.902344C1045.937744,493.972931,1045.539429,493.00769,1045.21875,492.015625C1044.744385,490.517395,1044.454224,488.966888,1044.355469,487.398438C1044.317627,486.845886,1044.297607,486.292145,1044.296875,485.738281C1044.296509,484.995117,1044.327637,484.252197,1044.390625,483.511719L1044.507813,482.4375L1044.675781,481.386719L1044.886719,480.367188L1045.148438,479.367188L1045.457031,478.394531L1045.8125,477.449219L1046.21875,476.523438L1046.671875,475.625L1047.171875,474.753906L1047.722656,473.902344L1048.320313,473.074219C1048.743286,472.526184,1049.191772,471.998383,1049.664063,471.492188C1050.081665,471.049133,1050.515625,470.621857,1050.964844,470.210938C1052.038208,469.231873,1053.221924,468.380951,1054.492188,467.675781C1055.958374,466.878967,1057.529785,466.293304,1059.160156,465.9375C1059.750732,465.813507,1060.344604,465.706604,1060.941406,465.617188C1061.479492,465.543488,1062.008423,465.414185,1062.519531,465.230469L1062.875,465.070313C1063.319092,464.823792,1063.741943,464.541168,1064.140625,464.226563C1064.979736,463.669281,1065.845337,463.153198,1066.734375,462.679688C1067.754761,462.122864,1068.786499,461.586121,1069.828125,461.070313C1070.719482,460.610443,1071.604004,460.136169,1072.480469,459.648438C1075.003296,458.245148,1077.483643,456.766602,1079.917969,455.214844C1080.894043,454.595734,1081.852661,453.949432,1082.792969,453.277344C1083.498047,452.777527,1084.155029,452.213165,1084.757813,451.59375C1085.750366,450.572815,1086.44812,449.302399,1086.78125,447.917969C1086.992798,447.01828,1087.112793,446.099579,1087.140625,445.175781C1087.182861,443.763092,1087.141113,442.349152,1087.015625,440.941406C1086.848389,438.738373,1086.568115,436.545349,1086.175781,434.371094C1085.964844,433.216858,1085.703003,432.072449,1085.390625,430.941406C1085.129395,430.001312,1084.808594,429.078827,1084.429688,428.179688C1084.194946,427.629242,1083.918579,427.097443,1083.601563,426.589844L1082.914063,425.496094L1099.515625,425.847656z"/>
    <path transform="matrix(-4.919921,0,0,-5.3832,4292.737793,2095.469238)" style="stroke:#000000;stroke-width:0.05mm;fill:none" d="M1086.261719,453.359375L1086.089844,453.417969L1085.988281,453.460938C1085.439209,453.707184,1084.932861,454.039673,1084.488281,454.445313C1084.059448,454.820251,1083.65686,455.224121,1083.28125,455.652344L1082.6875,456.359375C1082.399902,456.726501,1082.125732,457.104004,1081.867188,457.492188C1081.267212,458.402069,1080.767212,459.373779,1080.375,460.390625C1080.360474,460.445801,1080.3479,460.501465,1080.34375,460.558594C1080.359497,460.585541,1080.381714,460.607605,1080.410156,460.621094C1080.987549,460.882629,1081.576904,461.116821,1082.175781,461.324219C1083.259033,461.715546,1084.317017,462.173431,1085.34375,462.695313C1085.526123,462.774597,1085.710815,462.848236,1085.898438,462.914063C1086.003906,462.9505,1086.11499,462.968414,1086.226563,462.964844L1086.335938,462.921875L1086.433594,462.84375L1086.527344,462.738281L1086.617188,462.601563C1086.791138,462.214447,1086.906982,461.803772,1086.960938,461.382813C1087.091919,460.459473,1087.172607,459.529724,1087.203125,458.597656C1087.27002,457.433502,1087.297241,456.267578,1087.285156,455.101563C1087.277222,454.793854,1087.235962,454.48764,1087.152344,454.191406L1087.050781,453.964844C1086.929688,453.785858,1086.793091,453.618042,1086.640625,453.464844C1086.573486,453.40448,1086.491089,453.363983,1086.402344,453.347656L1086.261719,453.359375z"/>
    <path transform="matrix(-4.919921,0,0,-5.3832,4292.737793,2095.469238)" style="stroke:#000000;stroke-width:0.05mm;fill:none" d="M1080.402344,456.171875L1080.308594,456.1875L1080.199219,456.214844C1079.89209,456.318787,1079.597656,456.456848,1079.320313,456.625C1078.505493,457.110016,1077.721802,457.645355,1076.972656,458.226563C1076.379395,458.661987,1075.798462,459.114044,1075.230469,459.582031L1075.097656,459.707031L1075.003906,459.808594L1074.945313,459.890625L1074.925781,459.960938L1074.933594,460.015625L1074.972656,460.058594C1075.023804,460.087036,1075.076782,460.112122,1075.132813,460.128906C1075.5177,460.223206,1075.909546,460.286224,1076.304688,460.316406C1076.856201,460.373474,1077.410522,460.398163,1077.964844,460.390625C1078.099609,460.388824,1078.23291,460.366394,1078.363281,460.332031L1078.574219,460.242188L1078.667969,460.175781L1078.765625,460.089844L1078.859375,459.992188L1078.957031,459.871094C1079.557861,459.013428,1080.094482,458.112579,1080.5625,457.175781C1080.619873,457.04245,1080.672729,456.907196,1080.71875,456.769531C1080.74353,456.669403,1080.759766,456.567505,1080.769531,456.464844L1080.761719,456.390625L1080.746094,456.324219C1080.725952,456.289185,1080.700684,456.257996,1080.675781,456.226563L1080.625,456.195313C1080.579468,456.186249,1080.534546,456.174988,1080.488281,456.167969L1080.402344,456.171875z"/>
    <path transform="matrix(-4.919921,0,0,-5.3832,4292.737793,2095.469238)" style="stroke:#000000;stroke-width:0.05mm;fill:none" d="M1110.007813,453.894531C1110.097534,454.304413,1110.21106,454.70874,1110.347656,455.105469C1110.758057,456.342346,1111.173706,457.572174,1111.597656,458.804688C1111.647461,458.961243,1111.698242,459.117493,1111.75,459.273438L1111.771484,459.304688C1111.879761,459.318115,1111.988525,459.327911,1112.097656,459.332031C1112.516724,459.346558,1112.936157,459.355621,1113.355469,459.359375L1115.761719,459.359375L1115.28125,458.753906C1114.813599,458.231659,1114.320801,457.732269,1113.804688,457.257813C1112.689819,456.170837,1111.539307,455.120819,1110.355469,454.109375C1110.287476,454.056366,1110.219849,454.002716,1110.152344,453.949219C1110.113892,453.923462,1110.074707,453.898895,1110.035156,453.875L1110.011719,453.871094L1110.007813,453.894531z"/>
    <path transform="matrix(-4.919921,0,0,-5.3832,4292.737793,2095.469238)" style="stroke:#000000;stroke-width:0.05mm;fill:none" d="M1097.394531,446.082031L1097.289063,446.148438L1097.226563,446.253906L1097.207031,446.394531L1097.21875,446.441406C1097.523193,446.992493,1097.850098,447.530731,1098.199219,448.054688C1098.943848,449.218292,1099.705566,450.370728,1100.484375,451.511719C1101.38562,452.852142,1102.268799,454.205688,1103.132813,455.570313C1103.213745,455.704926,1103.296021,455.839264,1103.378906,455.972656C1103.488892,456.131897,1103.618286,456.276398,1103.761719,456.40625C1103.978271,456.577759,1104.218872,456.716888,1104.476563,456.816406C1104.879028,456.973785,1105.288208,457.113556,1105.703125,457.234375C1106.558838,457.501709,1107.401001,457.810547,1108.226563,458.160156C1108.667236,458.368774,1109.105957,458.580933,1109.542969,458.796875C1109.748901,458.898041,1109.960083,458.988098,1110.175781,459.066406L1110.238281,459.082031L1110.289063,459.074219L1110.320313,459.035156L1110.339844,458.96875L1110.347656,458.875C1110.315796,458.575958,1110.251099,458.281464,1110.15625,457.996094C1109.856934,457.047729,1109.508789,456.11557,1109.113281,455.203125C1108.754028,454.433502,1108.300171,453.711578,1107.761719,453.054688C1107.12207,452.286865,1106.412109,451.580505,1105.640625,450.945313C1104.657349,450.135254,1103.631348,449.378876,1102.566406,448.679688C1101.648071,448.053436,1100.703125,447.467041,1099.734375,446.921875C1099.252563,446.642334,1098.750244,446.399597,1098.230469,446.199219L1097.957031,446.113281C1097.820679,446.07663,1097.680176,446.058136,1097.539063,446.054688L1097.394531,446.082031z"/>
    <path transform="matrix(-4.919921,0,0,-5.3832,4292.737793,2095.469238)" style="stroke:#000000;stroke-width:0.05mm;fill:none" d="M1096.347656,450.363281L1096.21875,450.394531L1096.105469,450.457031C1096.036377,450.516785,1095.972168,450.581787,1095.914063,450.652344L1095.84375,450.792969C1095.811035,450.876862,1095.782104,450.962219,1095.765625,451.050781L1095.746094,451.164063C1095.669067,451.81485,1095.631348,452.469666,1095.632813,453.125C1095.605225,454.172394,1095.628784,455.220551,1095.703125,456.265625C1095.710327,456.441956,1095.740601,456.616608,1095.792969,456.785156L1095.8125,456.820313L1095.867188,456.855469L1095.949219,456.886719L1096.058594,456.90625C1096.198853,456.918762,1096.339722,456.919037,1096.480469,456.914063C1096.809814,456.876282,1097.138062,456.829437,1097.464844,456.773438C1098.015015,456.687653,1098.565796,456.605621,1099.117188,456.527344C1099.4552,456.478516,1099.786743,456.392181,1100.105469,456.269531L1100.203125,456.21875L1100.257813,456.171875C1100.266113,456.135284,1100.277466,456.099518,1100.285156,456.0625L1100.285156,455.988281C1100.272339,455.884521,1100.251099,455.782196,1100.230469,455.679688C1100.071167,455.127625,1099.867065,454.5896,1099.621094,454.070313C1099.386963,453.568909,1099.134399,453.076202,1098.863281,452.59375C1098.638672,452.192932,1098.382202,451.810791,1098.09375,451.453125C1097.915405,451.239166,1097.718994,451.040955,1097.507813,450.859375C1097.297241,450.674408,1097.057129,450.525726,1096.796875,450.421875C1096.695557,450.392944,1096.592896,450.368988,1096.488281,450.355469L1096.347656,450.363281z"/>
</svg>
