<?xml version="1.0" encoding="UTF-8"?>
<svg xmlns="http://www.w3.org/2000/svg" width="153.957mm" height="92.845mm" viewBox="-919.362732 -433.824219 153.957031 92.845032">
    <path transform="matrix(-1,0,0,-1,0,0)" style="stroke:none;fill:#000000;fill-rule:evenodd" d="M823.866638,340.988281L827.339294,340.988281L828.542419,340.992188L829.768982,340.992188L831.018982,340.996094L832.292419,340.996094L833.585388,341L834.905701,341.003906L836.245544,341.003906L837.612732,341.007813L839.003357,341.011719L840.413513,341.015625L841.851013,341.019531L843.308044,341.023438L844.436951,341.023438L845.542419,341.027344L846.632263,341.03125L847.706482,341.035156L848.761169,341.035156L849.796326,341.039063L850.815857,341.042969L851.815857,341.042969L852.800232,341.046875C861.680786,341.058594,870.591431,341.097656,879.472107,341.164063C882.072266,341.185089,884.670349,341.239777,887.268982,341.328125C888.619141,341.372375,889.966858,341.47522,891.308044,341.636719C892.337463,341.791656,893.358337,341.998901,894.366638,342.257813C897.355042,342.91864,900.199097,344.114838,902.761169,345.789063C903.485229,346.26886,904.162781,346.815399,904.784607,347.421875C905.261841,347.909332,905.679077,348.452148,906.026794,349.039063C906.61615,350.028564,907.128845,351.061707,907.561951,352.128906C908.054077,353.34552,908.509949,354.576721,908.929138,355.820313C909.192322,356.558929,909.503967,357.279358,909.862732,357.976563C909.992798,358.226196,910.140137,358.466522,910.304138,358.695313C910.439392,358.87027,910.580627,359.040405,910.726013,359.207031C911.151794,359.707001,911.478699,360.283447,911.686951,360.90625C911.890259,361.497498,911.895996,362.13855,911.706482,362.734375C911.640991,362.943207,911.604065,363.160004,911.601013,363.378906C911.622314,363.846741,911.691345,364.311096,911.804138,364.765625C912.11969,366.087097,912.470215,367.400116,912.854919,368.703125C913.842957,372.198029,914.786926,375.704285,915.686951,379.222656L916.827576,383.773438C917.250244,383.797668,917.672363,383.832947,918.093201,383.878906C918.226318,383.897949,918.357849,383.92627,918.487732,383.960938C918.746399,384.023163,918.98291,384.155945,919.171326,384.34375C919.278809,384.471161,919.346436,384.627014,919.362732,384.792969L919.358826,384.917969L919.331482,385.050781L919.280701,385.183594C919.24292,385.259918,919.198364,385.332764,919.143982,385.398438L919.046326,385.464844C918.997375,385.485901,918.949219,385.508392,918.897888,385.523438C918.727478,385.575134,918.552124,385.609497,918.374451,385.621094C917.718689,385.68573,917.060608,385.724792,916.401794,385.738281C913.05957,385.802704,909.725037,385.83786,906.382263,385.84375C905.784851,385.850067,905.186707,385.852661,904.589294,385.851563L890.265076,385.921875L890.265076,390.347656C890.672119,390.407471,891.078491,390.472473,891.483826,390.542969C891.678345,390.573669,891.869385,390.62326,892.054138,390.691406C892.144043,390.730652,892.221558,390.792236,892.284607,390.867188C892.356445,391.009979,892.390198,391.168488,892.382263,391.328125C892.384033,391.445007,892.369629,391.561157,892.347107,391.675781L892.284607,391.792969L892.179138,391.882813C892.129822,391.910248,892.07782,391.932739,892.022888,391.945313C891.72876,392.009155,891.429199,392.04541,891.128357,392.054688L889.897888,392.132813L889.897888,403.210938C890.795105,403.214691,891.692627,403.233063,892.589294,403.265625L892.620544,403.273438L892.620544,403.3125L892.585388,403.398438C892.350098,403.792267,892.081177,404.165039,891.780701,404.511719C891.556519,404.800598,891.308472,405.070282,891.034607,405.3125L890.827576,405.460938L890.612732,405.5625L890.386169,405.625C890.199829,405.651703,890.011902,405.665161,889.823669,405.667969L889.104919,405.667969L888.858826,405.671875C885.9646,405.678223,882.762878,405.687988,879.870544,405.699219L878.483826,405.703125L877.046326,405.707031L875.569763,405.710938L874.061951,405.714844L859.315857,405.757813L859.315857,419.359375C859.322693,423.415924,859.294006,427.479462,859.229919,431.535156C859.232361,432.151825,859.20813,432.768341,859.155701,433.382813C859.125122,433.441864,859.077576,433.489563,859.022888,433.527344L858.909607,433.59375C858.763733,433.657898,858.611633,433.706116,858.456482,433.742188C858.230469,433.791565,858.000183,433.816986,857.768982,433.824219C857.67218,433.82428,857.5755,433.816406,857.479919,433.800781L857.370544,433.769531L857.288513,433.726563L857.237732,433.671875C857.231445,433.485687,857.231506,433.299438,857.237732,433.113281L857.237732,432.433594L857.241638,432.148438L857.241638,425.578125L857.237732,424.964844L857.237732,423.6875L857.233826,422.359375L857.233826,420.988281L857.229919,419.582031L857.198669,405.757813L855.671326,405.757813C855.39209,405.762634,855.113037,405.738861,854.839294,405.683594L854.757263,405.652344L854.624451,405.574219L854.530701,405.460938C854.473999,405.356506,854.433289,405.244446,854.405701,405.128906L854.374451,404.988281C854.310486,404.574738,854.297791,404.155029,854.335388,403.738281L854.421326,402.980469L855.784607,402.988281L855.784607,400.15625C855.691406,399.190399,855.651245,398.220245,855.663513,397.25C855.663696,396.770752,855.668762,396.291626,855.679138,395.8125L855.780701,392.347656L850.073669,392.175781C847.104309,392.098846,844.130432,392.050629,841.159607,392.03125C839.073853,392.011963,836.979431,392.001587,834.893982,392L825.417419,392C825.470764,391.516144,825.527039,391.03006,825.585388,390.546875L826.976013,390.542969L826.976013,375.070313L789.577576,375.070313C783.717407,375.077271,777.828918,375.057739,771.968201,375.011719C770.399841,375.004578,768.831909,374.966827,767.265076,374.898438C766.934326,374.883362,766.604553,374.851654,766.276794,374.804688L766.128357,374.777344L766.011169,374.75C765.940918,374.728699,765.873901,374.697632,765.815857,374.652344C765.677917,374.519287,765.564514,374.363373,765.479919,374.191406C765.441895,374.098877,765.417114,374.001709,765.405701,373.902344L765.413513,373.769531L765.448669,373.640625C765.53717,373.454346,765.683533,373.30188,765.866638,373.207031C766.214539,373.039001,766.590576,372.937561,766.976013,372.910156L767.886169,372.820313C768.536133,370.545593,769.175171,368.261963,769.800232,365.980469C769.956726,365.44046,770.086182,364.892975,770.186951,364.339844L770.210388,364.125L770.214294,363.945313C770.209412,363.855164,770.194153,363.765961,770.167419,363.679688L770.058044,363.480469C769.94165,363.35144,769.828979,363.219086,769.722107,363.082031L769.589294,362.859375L769.491638,362.621094C769.443298,362.452881,769.412842,362.280151,769.401794,362.105469C769.388916,361.715057,769.462646,361.327087,769.608826,360.964844C769.786255,360.537048,770.023499,360.136536,770.315857,359.777344C770.568665,359.466827,770.84845,359.179321,771.151794,358.917969C771.552673,358.59613,771.890808,358.203003,772.147888,357.757813C772.419189,357.224365,772.641663,356.66748,772.811951,356.09375C773.212952,354.762695,773.690247,353.455811,774.241638,352.179688C774.769348,350.953186,775.452637,349.799652,776.272888,348.746094L776.808044,348.121094L777.382263,347.53125L777.999451,346.976563C778.440186,346.609467,778.900452,346.266418,779.378357,345.949219C780.625916,345.146851,781.939331,344.451996,783.304138,343.871094C785.761169,342.808472,788.338867,342.050201,790.979919,341.613281C792.188171,341.406952,793.405762,341.259644,794.628357,341.171875C796.246216,341.103821,797.864502,341.06604,799.483826,341.058594C804.849487,341.004883,810.223999,340.980225,815.589294,340.984375C818.357422,340.976196,821.09845,340.977417,823.866638,340.988281z"/>
</svg>
