<?xml version="1.0" encoding="UTF-8"?>
<svg xmlns="http://www.w3.org/2000/svg" width="238.360mm" height="166.048mm" viewBox="-626.856201 -669.243835 238.360229 166.047607">
    <path transform="matrix(-1,0,0,-1,403.977783,858.018799)" style="stroke:#000000;stroke-width:0.05mm;fill:none" d="M963.313843,1382.605835C963.442017,1382.778076,963.520203,1382.653931,963.517761,1382.282104C963.506042,1380.480103,963.652649,1379.54541,963.965088,1379.43103C964.215576,1379.339355,964.297729,1378.999023,964.295959,1378.060303C964.294678,1377.373413,964.415344,1376.256348,964.564026,1375.577759C964.779175,1374.596069,964.743835,1374.278687,964.391235,1374.023926C964.147461,1373.8479,963.855225,1373.811646,963.741699,1373.943359C963.628174,1374.075073,963.130188,1375.453369,962.63501,1377.006104C961.632019,1380.151367,961.475037,1382.057617,962.07196,1383.842529L962.398376,1384.818481L962.752197,1383.57251C962.972778,1382.795532,963.184265,1382.431641,963.313843,1382.605835z"/>
    <path transform="matrix(-1,0,0,-1,403.977783,858.018799)" style="stroke:#000000;stroke-width:0.05mm;fill:none" d="M889.697754,1361.234863C891.04425,1361.276611,892.377686,1361.510986,893.657715,1361.930908C894.078979,1362.095947,894.464355,1362.340698,894.793762,1362.650879C895.224426,1363.126465,895.328125,1363.812988,895.057739,1364.394775C894.907227,1364.685303,894.865295,1365.019775,894.937744,1365.338867C895.020081,1365.586914,895.138428,1365.821777,895.289734,1366.034912C895.574097,1366.643311,895.528259,1367.35498,895.169739,1367.922852C894.771118,1368.631104,894.165222,1369.200684,893.433716,1369.554932C891.950073,1370.377197,890.216248,1370.624878,888.561707,1370.250854C888.083008,1370.102295,887.615295,1369.920166,887.161743,1369.706787C885.816589,1370.941406,884.514404,1372.22229,883.257751,1373.546875C882.457642,1374.424072,881.757446,1375.387207,881.169739,1376.418945C880.384766,1377.837158,879.803101,1379.358643,879.441711,1380.938843C879.332764,1381.688477,879.281982,1382.445435,879.289734,1383.202881C879.25708,1385.952881,879.299744,1388.703125,879.417725,1391.450928C879.497314,1392.591553,879.799011,1393.705933,880.305725,1394.730957C881.556885,1397.293945,883.179626,1399.658203,885.121704,1401.746826C885.436035,1402.052612,885.764404,1402.343506,886.105713,1402.618896C887.790649,1404.154175,889.146118,1406.015869,890.089722,1408.09082C890.312195,1408.656128,890.512329,1409.22998,890.689758,1409.810791C890.738831,1409.931152,890.814758,1410.038574,890.913757,1410.122803C890.948792,1410.132324,890.983276,1410.143311,891.017761,1410.154785C891.090027,1410.144409,891.160583,1410.124146,891.225708,1410.09082C891.734985,1409.732056,892.316589,1409.489014,892.929749,1409.378906L892.993713,1409.394775C893.040283,1409.437988,893.041992,1409.508057,893.009766,1409.562866C892.932983,1409.789795,892.855713,1410.016357,892.77771,1410.24292C892.706726,1410.462891,892.650452,1410.687256,892.609741,1410.914795C892.605957,1411.006104,892.614258,1411.097656,892.633728,1411.18689L892.681763,1411.218872L892.713745,1411.266846C892.782654,1411.278809,892.852844,1411.279053,892.921753,1411.266846C893.129395,1411.161865,893.340149,1411.06311,893.553711,1410.970947C893.60498,1410.938965,893.668701,1410.942383,893.721741,1410.970947C893.763184,1411.015869,893.795044,1411.069092,893.801758,1411.130859C893.796814,1411.64502,893.756592,1412.158203,893.681763,1412.66687C893.682129,1412.838623,893.712646,1413.008789,893.769714,1413.170898L893.865723,1413.250854L893.921753,1413.266846C894.250488,1413.219971,894.536255,1413.017334,894.689758,1412.7229C895.071411,1411.998047,895.287781,1411.197266,895.321716,1410.378906L895.337769,1410.330811L895.361755,1410.330811C895.468384,1410.488525,895.544495,1410.665039,895.585754,1410.85083C896.194397,1412.670898,896.494507,1414.579834,896.473755,1416.498779C896.425537,1417.077148,896.356201,1417.653564,896.265747,1418.226807C896.245728,1418.4104,896.245239,1418.595459,896.265747,1418.778809L896.313721,1418.842896C896.344421,1418.826904,896.376831,1418.814209,896.409729,1418.802856C896.84552,1418.24585,897.09491,1417.565674,897.121765,1416.858887L897.145752,1416.802856L897.177734,1416.786865C897.210388,1416.775391,897.245239,1416.783691,897.273743,1416.802856C897.441589,1416.903931,897.552979,1417.079102,897.561768,1417.274902C897.762634,1418.421143,897.859009,1419.583252,897.849731,1420.746826C897.937988,1422.959351,897.57605,1425.166504,896.785767,1427.234863L896.697754,1427.522949L896.729736,1427.554932C896.753052,1427.5271,896.781738,1427.505615,896.809753,1427.48291C897.11969,1427.084229,897.41333,1426.67334,897.689758,1426.250854C897.82196,1426.077637,897.979004,1425.925049,898.153748,1425.794922C898.199341,1425.776001,898.249084,1425.770874,898.297729,1425.778809C898.326965,1425.811523,898.353394,1425.846436,898.377747,1425.882813C898.414429,1426.01001,898.42334,1426.143188,898.409729,1426.274902C898.429138,1427.07251,898.736084,1427.83728,899.273743,1428.42688C899.623474,1428.80957,900.067627,1429.09375,900.561768,1429.250854L900.649719,1429.266846L900.697754,1429.258789L900.713745,1429.226807C900.655579,1429.109619,900.621033,1428.981689,900.617737,1428.85083C900.603027,1428.578979,900.629456,1428.306396,900.697754,1428.042847L900.881714,1427.202881C901.012939,1427.505371,901.167969,1427.797119,901.345764,1428.074951C902.097412,1429.112549,903.386841,1429.613403,904.641724,1429.354858L904.681763,1429.314941L904.681763,1429.258789C904.366516,1428.917114,904.210327,1428.457275,904.257751,1427.994873L904.281738,1427.938843L904.305725,1427.874878C904.329834,1427.856445,904.356262,1427.841309,904.385742,1427.834839C904.946594,1428.151611,905.486328,1428.504517,906.001709,1428.890869C906.400696,1429.13147,906.835632,1429.306641,907.289734,1429.410889C907.562744,1429.450806,907.841125,1429.432861,908.105713,1429.354858C908.135559,1429.335693,908.156738,1429.307373,908.169739,1429.274902L908.177734,1429.226807L908.169739,1429.154785C907.978333,1428.762939,907.753357,1428.388184,907.497742,1428.034912C907.461609,1427.973389,907.436462,1427.905762,907.433716,1427.834839C907.57373,1427.820313,907.713806,1427.856934,907.83374,1427.930908C908.412109,1428.113892,909.040039,1428.05957,909.577759,1427.778809C910.324341,1427.466553,911.01178,1427.02832,911.609741,1426.48291C913.080322,1425.27356,914.736267,1424.309204,916.513733,1423.626953C918.563293,1422.784912,920.687317,1422.136719,922.857727,1421.690918C925.693359,1421.060059,928.558105,1420.568848,931.441772,1420.218872L932.137756,1420.154785C932.182617,1420.150879,932.22229,1420.126465,932.249756,1420.09082C932.257446,1420.017944,932.224792,1419.94751,932.169739,1419.898926C931.639404,1419.425781,930.99353,1419.10022,930.297729,1418.954834C930.196045,1418.916382,930.097046,1418.871094,930.001709,1418.818848L929.993774,1418.786865C930.1073,1418.713623,930.243408,1418.683838,930.377747,1418.698853C932.11908,1418.593262,933.858521,1418.508057,935.601746,1418.442871C934.985168,1418.0354,934.367249,1417.623291,933.753723,1417.210938C935.119629,1417.269531,936.483032,1417.317627,937.849731,1417.354858L938.921753,1416.098877C938.835571,1416.042725,938.763306,1415.968018,938.70575,1415.882813C938.720825,1415.837158,938.739258,1415.792725,938.77771,1415.762939L939.297729,1415.794922L939.59375,1414.634888C939.712769,1414.586914,939.846924,1414.593506,939.961731,1414.650879C941.560059,1415.073486,943.1521,1415.518799,944.737732,1415.986816L943.377747,1414.018799C944.876343,1414.639404,946.388794,1415.226318,947.913757,1415.778809C948.208679,1415.861206,948.507751,1415.927979,948.809753,1415.978882C948.898071,1415.987305,948.985291,1415.967285,949.065735,1415.930908C949.082458,1415.902832,949.10083,1415.875977,949.121704,1415.85083C949.126343,1415.66333,949.066162,1415.480957,948.953735,1415.330811C948.759399,1415.000488,948.54834,1414.680176,948.321777,1414.37085C948.255005,1414.276611,948.205872,1414.170898,948.177734,1414.058838C948.19928,1414.013062,948.236206,1413.979736,948.273743,1413.946777C948.704468,1413.860474,949.149719,1413.882202,949.569702,1414.010864C950.002014,1414.119385,950.429138,1414.247437,950.849731,1414.394775C950.764038,1413.738525,950.700073,1413.079468,950.657715,1412.418945C950.65448,1412.349365,950.65625,1412.279785,950.665771,1412.210938L950.697754,1412.178955L950.737732,1412.154785L950.865723,1412.234863C951.222778,1412.636475,951.658569,1412.960205,952.145752,1413.18689C952.233154,1413.192871,952.320007,1413.177979,952.401733,1413.146851C952.42804,1413.098389,952.45166,1413.048462,952.465759,1412.994873C952.34375,1411.720703,952.148743,1410.454712,951.881714,1409.202881C951.472168,1406.920898,951.181091,1404.619141,951.009766,1402.306885C950.940247,1401.177856,950.977661,1400.0448,951.121704,1398.922852C951.309509,1399.306641,951.512329,1399.682983,951.729736,1400.050781C951.761963,1400.092896,951.796204,1400.133423,951.83374,1400.170898L951.873718,1400.162842C951.943542,1400.029541,951.977356,1399.881226,951.977722,1399.730957C951.982056,1399.130859,951.974121,1398.530762,951.953735,1397.930908C951.959473,1397.395264,951.962158,1396.858643,951.961731,1396.322876C951.986328,1396.099731,952.03479,1395.879883,952.105713,1395.66687C952.177612,1395.61499,952.229248,1395.53833,952.24176,1395.450928C952.298157,1394.908691,952.306213,1394.362549,952.265747,1393.818848C952.084229,1391.990234,952.017456,1390.151855,952.065735,1388.314941C952.20929,1386.713135,952.219971,1385.102295,952.097717,1383.498779C952.047119,1382.860107,952.079651,1382.217407,952.193726,1381.586914C952.210815,1381.501709,952.245544,1381.421631,952.289734,1381.346924L952.305725,1381.346924L952.35376,1381.442871C952.450317,1381.885986,952.535706,1382.331421,952.609741,1382.778809C952.622437,1382.907227,952.668701,1383.029785,952.737732,1383.138916L952.761719,1383.138916C952.817078,1383.050171,952.845459,1382.947388,952.841736,1382.842896C952.834534,1382.07605,952.872009,1381.309326,952.953735,1380.546875C953.017822,1380.107178,953.127563,1379.675537,953.281738,1379.258789C953.307861,1379.191406,953.34668,1379.129761,953.393738,1379.074951C953.425049,1379.054077,953.460571,1379.040283,953.497742,1379.034912L953.553711,1379.066895C953.665466,1379.175293,953.736816,1379.319336,953.745728,1379.474854C953.738525,1379.523193,953.75647,1379.571289,953.793762,1379.602783C953.93988,1379.340576,954.034119,1379.05249,954.07373,1378.754883C954.145508,1378.490479,954.241455,1378.233154,954.361755,1377.986816C954.38562,1377.944824,954.422058,1377.911499,954.465759,1377.890869L954.529724,1377.922852C954.553955,1377.907227,954.57782,1377.890991,954.601746,1377.874878C954.864502,1377.433594,955.094543,1376.973877,955.289734,1376.498779C956.329224,1374.040771,957.279175,1371.545898,958.137756,1369.018799C958.38208,1368.356201,958.673462,1367.711914,959.009766,1367.09082C959.319458,1366.644531,959.703918,1366.255127,960.145752,1365.938843C960.904053,1365.336426,961.751343,1364.855957,962.657715,1364.514893C963.297241,1364.328735,963.972107,1364.298584,964.625732,1364.42688C966.266296,1364.704346,967.7901,1365.455078,969.009766,1366.586914C969.151794,1366.654541,969.322815,1366.603027,969.401733,1366.466797C969.6026,1366.200439,969.779175,1365.916504,969.929749,1365.618896C970.57666,1364.780762,971.381104,1364.07666,972.297729,1363.546875C973.351501,1362.880981,974.530457,1362.437256,975.761719,1362.24292C976.370239,1362.191895,976.982483,1362.265869,977.561768,1362.458862C978.821533,1362.82959,980.056091,1363.281128,981.257751,1363.810791C981.683777,1364.006104,982.067139,1364.283203,982.385742,1364.626953C982.662354,1365.004883,982.782715,1365.474365,982.721741,1365.938843C982.678284,1366.317627,982.616943,1366.69397,982.53772,1367.066895C982.430664,1367.709961,982.425293,1368.366211,982.521729,1369.010864C982.575989,1369.930664,982.358765,1370.845093,981.897705,1371.642822C981.744934,1371.904785,981.522827,1372.119629,981.257751,1372.266846C980.765198,1372.575684,980.210876,1372.772339,979.633728,1372.842896C978.936035,1372.965332,978.219788,1372.930176,977.53772,1372.738892C977.203613,1372.642822,976.846375,1372.667358,976.529724,1372.810791C976.332886,1372.939575,976.19458,1373.140869,976.145752,1373.37085C975.747131,1374.587646,975.421143,1375.827271,975.169739,1377.082886C974.595581,1379.705933,974.125916,1382.350464,973.761719,1385.010864C973.53363,1387.053955,973.357544,1389.102661,973.233765,1391.154785C972.904907,1395.534424,972.648926,1399.918701,972.465759,1404.306885C972.448608,1405.131714,972.47522,1405.956909,972.545776,1406.778809C972.771484,1408.437378,973.151733,1410.071289,973.681763,1411.658936C974.386353,1413.9375,975.33313,1416.134033,976.505737,1418.210938L976.649719,1418.218872C977.125732,1419.157593,977.592834,1420.102539,978.049744,1421.050781C978.196533,1421.355835,978.400635,1421.629639,978.649719,1421.858887C978.764404,1421.938721,978.91394,1421.947266,979.033752,1421.874878C979.146179,1421.773438,979.248352,1421.661255,979.337769,1421.538818C979.417908,1421.456299,979.500183,1421.375732,979.585754,1421.298828C979.617859,1421.282715,979.653687,1421.275757,979.689758,1421.274902L979.801758,1421.306885C980.495667,1421.87915,981.035095,1422.615967,981.369751,1423.450928C981.407959,1423.703125,981.475342,1423.949951,981.569702,1424.18689L981.633728,1424.250854C981.740723,1424.260864,981.848267,1424.233643,981.929749,1424.162842C982.219421,1423.958984,982.530884,1423.787598,982.857727,1423.650879L982.937744,1423.650879C983.118774,1424.084961,983.310852,1424.514404,983.513733,1424.938843C983.75415,1425.363037,984.049927,1425.753174,984.393738,1426.098877L985.129761,1426.810791L985.289734,1426.010864C985.425659,1425.413574,985.852478,1424.922974,986.425781,1424.706787C986.630432,1424.581787,986.855042,1424.492432,987.089722,1424.442871C987.113892,1424.45874,987.139038,1424.472778,987.161743,1424.490845C987.173279,1424.636719,987.157166,1424.783081,987.11377,1424.922852C986.777466,1425.890625,986.768066,1426.942139,987.089722,1427.914795C987.120178,1427.999512,987.179993,1428.072144,987.265747,1428.098877L987.313721,1428.082886C987.53833,1427.901855,987.735962,1427.689697,987.897766,1427.450928L988.569763,1426.490845C988.648438,1427.399292,988.795532,1428.300537,989.009766,1429.18689C989.088684,1429.517822,989.223022,1429.833252,989.401733,1430.122803L989.529785,1430.298828C989.619141,1430.39917,989.740784,1430.464111,989.873779,1430.48291C989.967896,1430.469116,990.051086,1430.416748,990.105774,1430.338867C990.148193,1430.267822,990.18573,1430.19397,990.209778,1430.114868C990.219116,1429.749878,990.283936,1429.388428,990.401733,1429.042847C990.434143,1428.993164,990.46698,1428.943848,990.505737,1428.898926L990.585754,1428.858887C990.750183,1428.859863,990.909302,1428.90979,991.049744,1428.994873C991.322754,1429.165039,991.572998,1429.368896,991.793762,1429.602783C992.924805,1430.771729,993.900757,1432.081055,994.697754,1433.498779C995.126953,1434.220947,995.493713,1434.978271,995.793762,1435.762939C995.958557,1436.235596,996.184082,1436.685059,996.465759,1437.098877C996.545349,1437.192627,996.64325,1437.269043,996.753784,1437.322876C996.843018,1437.331055,996.929932,1437.303833,997.00177,1437.250854L997.065735,1437.18689C997.169434,1437.035156,997.24176,1436.863892,997.273743,1436.682861L997.441772,1436.00293C997.830933,1436.308594,998.174072,1436.669434,998.457764,1437.074951C998.831055,1437.700562,999.06604,1438.398682,999.145752,1439.122803C999.223022,1439.69104,999.219971,1440.267334,999.137756,1440.834839C999.144104,1440.937622,999.156921,1441.040039,999.185791,1441.138916C999.205139,1441.203491,999.243469,1441.258789,999.289734,1441.306885C999.324402,1441.301392,999.35907,1441.296143,999.393738,1441.290894L999.449768,1441.250854C999.583618,1441.107178,999.699585,1440.947266,999.785767,1440.770874C999.83783,1440.703613,999.894775,1440.640259,999.953735,1440.578857C999.990723,1440.570557,1000.027283,1440.561035,1000.065735,1440.562866C1000.143311,1440.626953,1000.2099,1440.703125,1000.265747,1440.786865C1000.405518,1441.023682,1000.489258,1441.289063,1000.513733,1441.562866C1000.601135,1442.43042,1000.413391,1443.303467,999.977783,1444.058838C999.922791,1444.157959,999.884644,1444.266113,999.873779,1444.378906L999.889771,1444.442871L999.94574,1444.48291C1000.307312,1444.52478,1000.672058,1444.452881,1000.993774,1444.282837C1001.680847,1443.972412,1002.238342,1443.432129,1002.569763,1442.754883L1002.793762,1442.322876C1002.883911,1442.702881,1002.953186,1443.087402,1003.00177,1443.474854C1003.056702,1444.612549,1002.882507,1445.749634,1002.489746,1446.818848L1002.473755,1446.922852L1002.489746,1447.00293C1002.530762,1447.046509,1002.577148,1447.084961,1002.633789,1447.106934L1002.737793,1447.130859C1003.268188,1447.223389,1003.81427,1447.112183,1004.265747,1446.818848C1004.396606,1446.737671,1004.514221,1446.636963,1004.617737,1446.522949L1005.609741,1445.466797C1005.37146,1446.602295,1004.955933,1447.693115,1004.377747,1448.698853C1003.735352,1449.890503,1002.97699,1451.015869,1002.11377,1452.058838C1001.948364,1452.253418,1001.813232,1452.47168,1001.713745,1452.706787C1002.099365,1452.586426,1002.483398,1452.461182,1002.865723,1452.330811L1002.929749,1452.322876L1002.993774,1452.330811L1003.049744,1452.362793C1003.094116,1452.550781,1003.08374,1452.746704,1003.025757,1452.930908C1002.973145,1453.188721,1002.962341,1453.453491,1002.993774,1453.714844C1003.005371,1453.768677,1003.01825,1453.821899,1003.049744,1453.866943L1003.129761,1453.962891L1003.177734,1453.994873C1003.217773,1454.000488,1003.25769,1454.005859,1003.297729,1454.010864C1003.442749,1453.981323,1003.57666,1453.914063,1003.689758,1453.818848C1003.933289,1453.643188,1004.145813,1453.427856,1004.313721,1453.178955C1004.628662,1452.720215,1004.89917,1452.232666,1005.121765,1451.7229L1005.153748,1451.690918C1005.166931,1451.674805,1005.180481,1451.658936,1005.201782,1451.650879L1005.217773,1451.658936L1005.233765,1451.698853C1005.301819,1452.887451,1005.161011,1454.078857,1004.817749,1455.218872C1004.458618,1456.160156,1004.060852,1457.086182,1003.625732,1457.994873C1003.564697,1458.142334,1003.507935,1458.291504,1003.457764,1458.442871L1003.521729,1458.442871C1003.929504,1458.220703,1004.322266,1457.971924,1004.697754,1457.698853C1004.778687,1457.660156,1004.860901,1457.624023,1004.94574,1457.594849L1004.993774,1457.594849L1005.009766,1457.674805C1004.845703,1458.014648,1004.638184,1458.331543,1004.393738,1458.618896C1003.74646,1459.543945,1003.211792,1460.542969,1002.801758,1461.594849C1002.4953,1462.346558,1002.285706,1463.134277,1002.177734,1463.938843C1002.168884,1464.090576,1002.166992,1464.242798,1002.169739,1464.394775L1002.217773,1464.522949L1002.313721,1464.570801L1002.385742,1464.570801C1002.432739,1464.566406,1002.478516,1464.577271,1002.521729,1464.594849C1002.782532,1464.796875,1002.892517,1465.141602,1002.777771,1465.450928C1002.301392,1466.359253,1001.933228,1467.320435,1001.681763,1468.314941C1001.553711,1468.872925,1001.572083,1469.454834,1001.737793,1470.00293C1001.96283,1470.593994,1002.394592,1471.083252,1002.953735,1471.378906C1003.219971,1471.454224,1003.500549,1471.45874,1003.769775,1471.394775C1004.278931,1471.419556,1004.788147,1471.438354,1005.297729,1471.450928C1005.459595,1471.457275,1005.61908,1471.421875,1005.769775,1471.362793C1006.184021,1471.224854,1006.630798,1471.215942,1007.049744,1471.338867C1007.416748,1471.479004,1007.793884,1471.591309,1008.177734,1471.674805C1008.482117,1471.731934,1008.794617,1471.730225,1009.097778,1471.66687C1012.359436,1470.942017,1015.657471,1470.391968,1018.977783,1470.018799C1019.780762,1469.934814,1020.590149,1469.932617,1021.393738,1470.010864C1022.331787,1470.157593,1023.220764,1470.528564,1023.985718,1471.09082C1024.273315,1471.217529,1024.570313,1471.321167,1024.873779,1471.402832C1025.360596,1471.523071,1025.838867,1471.675659,1026.305786,1471.858887C1026.393433,1471.893921,1026.479614,1471.932617,1026.561768,1471.978882C1027.012817,1472.411377,1027.499634,1472.805176,1028.017822,1473.154785C1028.500244,1473.490479,1028.915039,1473.914307,1029.241699,1474.402832C1029.699463,1475.062622,1030.098145,1475.761475,1030.433716,1476.490845C1030.510742,1476.641357,1030.599609,1476.785278,1030.697754,1476.922852C1030.801392,1477.090332,1030.850098,1477.286621,1030.83374,1477.48291L1030.817749,1477.362793L1030.801758,1477.282837C1030.791504,1477.251465,1030.780273,1477.220581,1030.765747,1477.190918C1030.749756,1477.362793,1030.735107,1477.534668,1030.721802,1477.706787C1030.440308,1478.153076,1030.141479,1478.588135,1029.825806,1479.010864C1028.409668,1480.437256,1026.942017,1481.811523,1025.425781,1483.130859C1023.689697,1484.445068,1021.918335,1485.71228,1020.11377,1486.930908C1019.386108,1487.362549,1018.698242,1487.858032,1018.057739,1488.410889C1017.841858,1488.605347,1017.63623,1488.811035,1017.441772,1489.026855C1017.160706,1489.355469,1016.972351,1489.75293,1016.897766,1490.178955C1016.807068,1490.797363,1017.028076,1491.421631,1017.489746,1491.842896C1017.536499,1491.859741,1017.585205,1491.870117,1017.633789,1491.882813L1017.633789,1491.914795L1017.585754,1492.00293C1017.462158,1492.125,1017.333984,1492.242188,1017.201782,1492.354858C1017.154785,1492.412354,1017.109131,1492.470703,1017.065735,1492.530884C1017.008484,1492.661865,1016.981323,1492.804199,1016.993774,1492.946777C1017.054688,1493.233887,1017.11084,1493.521851,1017.161743,1493.810791C1017.156677,1493.834839,1017.15155,1493.859009,1017.145752,1493.882813L1017.11377,1493.898926C1017.010437,1493.862305,1016.921387,1493.797607,1016.841736,1493.7229L1016.617737,1493.578857L1016.545776,1493.578857L1016.513733,1493.602783C1016.45459,1493.755859,1016.423828,1493.918823,1016.425781,1494.082886C1016.452271,1494.682495,1016.414185,1495.283203,1016.313721,1495.874878C1016.176147,1496.448975,1015.925842,1496.98999,1015.577759,1497.466797C1015.098877,1498.115967,1014.608276,1498.755859,1014.105774,1499.386841C1013.905762,1499.623047,1013.761902,1499.901978,1013.689758,1500.202881C1013.707092,1500.494385,1013.830566,1500.769043,1014.033752,1500.978882C1014.211304,1501.143311,1014.413086,1501.279297,1014.633789,1501.378906C1014.670166,1501.414795,1014.712158,1501.444336,1014.753784,1501.474854C1014.773682,1501.510376,1014.79541,1501.5448,1014.817749,1501.578857L1014.825745,1501.634888C1014.820129,1501.668457,1014.807861,1501.700195,1014.793762,1501.730957C1014.776978,1501.760986,1014.753906,1501.786499,1014.729736,1501.810791C1014.603455,1501.890869,1014.452881,1501.925415,1014.305786,1501.898926L1014.177734,1501.90686C1014.029968,1501.910645,1013.885498,1501.959473,1013.769775,1502.050781L1013.713745,1502.106934L1013.673767,1502.178955C1013.650574,1502.229492,1013.638489,1502.283691,1013.633789,1502.338867C1013.675537,1502.642822,1013.827515,1502.920166,1014.057739,1503.122803L1014.665771,1503.762939L1013.497742,1503.762939C1013.714417,1504.179932,1013.922363,1504.601318,1014.121765,1505.026855C1014.286072,1505.349976,1014.353394,1505.713745,1014.321777,1506.074951C1014.273315,1506.28125,1014.212524,1506.484497,1014.137756,1506.682861C1014.059387,1506.893555,1014.065857,1507.127563,1014.161743,1507.330811C1014.261719,1507.483643,1014.377197,1507.625366,1014.505737,1507.754883C1014.71582,1508.003418,1014.964233,1508.216797,1015.24176,1508.386841C1015.578613,1508.61792,1015.869568,1508.909424,1016.105774,1509.24292L1016.177734,1509.282837C1016.436523,1509.309326,1016.696533,1509.253052,1016.921753,1509.122803C1017.545349,1508.803833,1018.161621,1508.470459,1018.769775,1508.122803C1019.140259,1507.893311,1019.549988,1507.734375,1019.977783,1507.650879C1020.177185,1507.609985,1020.381836,1507.664307,1020.53772,1507.794922L1020.601746,1507.898926L1020.64978,1508.026855C1020.406128,1508.640869,1020.060242,1509.209229,1019.625732,1509.706787C1018.414185,1511.117065,1017.081055,1512.417969,1015.641724,1513.594849C1015.324707,1513.863281,1015.002136,1514.124634,1014.673767,1514.378906C1014.14917,1514.730713,1013.56311,1514.981445,1012.94574,1515.11499C1012.205322,1515.231689,1011.450317,1515.019409,1010.881775,1514.531006C1010.003967,1513.804688,1009.155396,1513.044189,1008.337769,1512.250854L1007.953735,1511.978882L1007.905762,1511.970947L1007.873779,1511.986816C1007.866943,1512.104614,1007.891724,1512.222656,1007.953735,1512.322876C1008.028015,1512.495728,1008.072754,1512.679443,1008.089722,1512.866943L1008.033752,1512.866943C1007.582275,1512.532104,1007.164429,1512.154297,1006.785767,1511.738892C1006.553711,1511.515015,1006.304565,1511.30957,1006.041748,1511.122803C1006.000061,1511.108765,1005.95697,1511.105957,1005.913757,1511.098877L1005.881775,1511.162842C1005.924194,1511.374512,1005.957214,1511.587891,1005.977783,1511.802856L1005.94574,1511.898926L1005.905762,1511.914795L1005.865723,1511.922852L1005.801758,1511.90686C1005.504089,1511.725586,1005.233215,1511.504028,1004.993774,1511.250854L1004.249756,1510.538818C1004.252319,1510.912354,1004.260376,1511.285645,1004.273743,1511.658936C1004.337463,1512.260742,1004.477295,1512.852173,1004.689758,1513.418945C1005.201172,1514.662354,1005.550598,1515.966431,1005.729736,1517.29895C1005.78241,1517.931152,1005.723267,1518.567627,1005.553772,1519.178955C1005.307861,1519.967041,1004.803162,1520.648804,1004.121765,1521.11499C1003.888,1521.229004,1003.609863,1521.204102,1003.393738,1521.058838C1002.859375,1520.75293,1002.424438,1520.299927,1002.137756,1519.754883C1001.786011,1519.114624,1001.470703,1518.454956,1001.193726,1517.778931C1001.09967,1517.586548,1000.979431,1517.407959,1000.83374,1517.250977C1000.798584,1517.233154,1000.760803,1517.233032,1000.721741,1517.226929C1000.689087,1517.283081,1000.636292,1517.320923,1000.577759,1517.346924C1000.542908,1517.348633,1000.509705,1517.335693,1000.48175,1517.314941L1000.433777,1517.266846C1000.197998,1516.893066,1000.019775,1516.48584,999.905762,1516.058838C999.815308,1515.799072,999.697144,1515.549683,999.553772,1515.314941C999.536926,1515.30957,999.521729,1515.313477,999.505737,1515.314941C999.507568,1515.425537,999.477905,1515.53418,999.417725,1515.626953L999.377747,1515.658936C999.345886,1515.665161,999.313843,1515.664795,999.281738,1515.666992L999.225769,1515.642944L999.177734,1515.61084L999.089722,1515.514893C999.017456,1515.42627,998.958679,1515.327148,998.921753,1515.218994C998.856567,1514.976074,998.782227,1514.73584,998.697754,1514.498901L998.617737,1514.450928C998.592285,1514.458496,998.569092,1514.470825,998.545776,1514.48291C998.412354,1514.66687,998.258789,1514.835083,998.089722,1514.986938C998.047302,1514.992676,998.004639,1514.996338,997.961792,1514.994873L997.873779,1514.962891L997.793762,1514.930908C997.318665,1514.562256,996.881714,1514.146973,996.489746,1513.690918C995.786011,1512.969971,995.161072,1512.17627,994.625732,1511.322876C994.507202,1511.068604,994.376709,1510.82019,994.233765,1510.578857L994.105774,1510.48291L994.025757,1510.498779C993.874878,1510.644531,993.73291,1510.799194,993.601746,1510.962891C993.568176,1510.986084,993.534668,1511.009277,993.497742,1511.026855C993.430481,1511.007935,993.371399,1510.971436,993.321777,1510.922852C993.17572,1510.596436,993.073242,1510.252197,993.017761,1509.898926C992.969116,1509.654907,992.871399,1509.42334,992.729736,1509.218872L992.657776,1509.162842C992.607178,1509.121094,992.546448,1509.093262,992.48175,1509.082886C992.42041,1509.093018,992.359009,1509.10376,992.297729,1509.114868C992.101196,1509.249268,991.959961,1509.450928,991.905762,1509.682861C991.805359,1510.120361,991.733459,1510.563965,991.689758,1511.010864C991.058594,1510.337646,990.495911,1509.603271,990.009766,1508.818848C989.917175,1508.657349,989.831543,1508.491943,989.753784,1508.322876C989.706726,1508.232666,989.643433,1508.151245,989.561768,1508.09082C989.52002,1508.067993,989.478149,1508.047363,989.441772,1508.018799C989.387817,1508.031128,989.341492,1508.059082,989.297729,1508.09082C989.184387,1508.366699,989.141724,1508.666748,989.177734,1508.962891C989.170898,1509.143188,989.128174,1509.320313,989.049744,1509.48291L988.993774,1509.522949L988.929749,1509.538818L988.849731,1509.498779C988.776855,1509.475586,988.712158,1509.431885,988.665771,1509.37085L988.561768,1509.266846C988.149719,1508.687378,987.772827,1508.08374,987.433777,1507.458862L987.217773,1507.162842C987.184021,1507.137085,987.152588,1507.109131,987.11377,1507.09082C987.08667,1507.088013,987.059753,1507.090942,987.033752,1507.098877C986.955811,1507.207031,986.890625,1507.324097,986.849731,1507.450928L986.617737,1508.066895C985.94519,1507.462646,985.331665,1506.795654,984.785767,1506.074951C984.585449,1505.793945,984.423645,1505.487183,984.305725,1505.162842L984.153748,1504.866943C984.104736,1504.812012,984.053711,1504.759033,984.001709,1504.706787C983.938965,1504.669312,983.866455,1504.654541,983.793762,1504.658936C983.672546,1504.71875,983.585449,1504.828247,983.53772,1504.954834C983.434143,1505.162231,983.371826,1505.387695,983.35376,1505.618896L983.217773,1506.506836C982.677612,1506.080811,982.172241,1505.612427,981.70575,1505.106934C981.356384,1504.714844,981.068176,1504.272461,980.849731,1503.794922C980.749451,1503.636841,980.615479,1503.503662,980.457764,1503.402832C979.986267,1503.164307,979.414185,1503.268066,979.049744,1503.650879C978.79126,1503.911865,978.629395,1504.253296,978.59375,1504.618896L978.59375,1505.442871C978.118591,1505.051758,977.694092,1504.602783,977.329712,1504.106934C976.716858,1503.200928,976.416443,1502.119141,976.473755,1501.026855C976.489014,1500.702881,976.429565,1500.379272,976.297729,1500.082886L976.249756,1500.058838C976.16272,1500.063965,976.078186,1500.093018,976.009766,1500.146851C975.479431,1500.513916,975.153076,1501.110352,975.129761,1501.754883C975.108459,1501.789551,975.074707,1501.814209,975.033752,1501.818848C974.909973,1501.763916,974.797607,1501.686401,974.70575,1501.586914C974.048706,1501.01709,973.528748,1500.30603,973.18573,1499.506836C972.772827,1498.631836,972.542236,1497.681641,972.505737,1496.714844L972.505737,1495.354858C971.798279,1495.235596,971.091064,1495.110107,970.385742,1494.978882C969.417419,1494.774536,968.463318,1494.507324,967.529724,1494.178955L966.025757,1493.61084C966.597168,1493.511475,967.163208,1493.383301,967.721741,1493.226807C967.883728,1493.177979,968.028503,1493.084229,968.137756,1492.954834L968.129761,1492.898926C968.044373,1492.771851,967.913086,1492.68103,967.761719,1492.658936C967.186523,1492.530518,966.631958,1492.323486,966.11377,1492.042847C965.051758,1491.570068,964.038879,1490.993896,963.089722,1490.322876C962.904175,1490.140503,962.737549,1489.939697,962.59375,1489.7229C962.589294,1489.68457,962.582397,1489.646729,962.569702,1489.61084L962.601746,1489.586914L962.641724,1489.570801C962.956421,1489.607422,963.261108,1489.70459,963.53772,1489.858887C963.873657,1489.996094,964.215332,1490.118896,964.561768,1490.226807C964.59082,1490.228271,964.618103,1490.219238,964.641724,1490.202881L964.625732,1490.154785L964.59375,1490.106934C964.217651,1489.706787,963.822449,1489.325073,963.409729,1488.962891C962.850525,1488.414551,962.383423,1487.779785,962.025757,1487.082886C961.974915,1486.962646,961.940613,1486.83606,961.921753,1486.706787C961.967529,1486.688232,962.016968,1486.681885,962.065735,1486.690918C962.467834,1486.84668,962.862854,1487.020264,963.249756,1487.210938C963.285889,1487.221924,963.324158,1487.223633,963.361755,1487.218872L963.385742,1487.194824C963.380859,1487.154297,963.373108,1487.114136,963.361755,1487.074951C963.014832,1486.503174,962.629883,1485.955322,962.209717,1485.434814L962.105713,1485.250854C962.088623,1485.198486,962.076294,1485.144897,962.065735,1485.09082L962.07373,1485.050781C962.177124,1484.959961,962.305786,1484.904297,962.441772,1484.882813C962.463196,1484.861816,962.489685,1484.848145,962.513733,1484.826904L962.521729,1484.794922C962.497192,1484.751465,962.467163,1484.71167,962.433716,1484.674805C962.070496,1484.419189,961.678589,1484.206787,961.265747,1484.042847C960.53125,1483.730469,959.743774,1483.562134,958.94574,1483.546875C957.751953,1483.532715,956.53186,1483.524658,955.337769,1483.522949C955.523682,1483.254639,955.699768,1482.979736,955.865723,1482.698853C955.911011,1482.610107,955.929688,1482.510254,955.921753,1482.410889L955.889771,1482.378906C955.843506,1482.377686,955.798584,1482.366455,955.753723,1482.354858C955.347046,1482.436401,954.952026,1482.568115,954.577759,1482.746826C953.559204,1483.129395,952.49353,1483.37146,951.409729,1483.466797C951.213379,1483.486084,951.015015,1483.456787,950.83374,1483.378906L950.801758,1483.346924C950.784485,1483.320313,950.773865,1483.290283,950.769775,1483.258789L946.377747,1483.546875C945.746338,1483.512207,945.113892,1483.501709,944.48175,1483.514893C943.627747,1483.536133,942.773621,1483.479736,941.929749,1483.346924C941.602783,1483.294189,941.283325,1483.202393,940.977722,1483.074951C934.454285,1483.530518,927.917114,1483.757324,921.377747,1483.754883C914.631592,1483.818848,907.883118,1483.786865,901.137756,1483.658936C899.776978,1483.634033,898.41626,1483.706055,897.065735,1483.874878C895.401001,1484.127197,893.789673,1484.654297,892.297729,1485.434814C892.039917,1485.565674,891.760925,1485.64978,891.473755,1485.682861C891.403625,1485.683228,891.336182,1485.649902,891.305725,1485.586914L891.297729,1485.506836C891.41156,1485.200195,891.583252,1484.918213,891.801758,1484.674805C891.932251,1484.51123,892.023376,1484.319946,892.065735,1484.114868C892.040771,1484.106445,892.016541,1484.095947,891.993713,1484.082886C891.65033,1484.07959,891.30835,1484.126099,890.977722,1484.218872C889.911133,1484.470947,888.869568,1484.819092,887.865723,1485.258789C887.382507,1485.533936,886.888855,1485.790161,886.385742,1486.026855C886.363464,1486.025391,886.34314,1486.019287,886.321716,1486.018799L886.329712,1485.962891C886.450073,1485.657104,886.59729,1485.362549,886.769714,1485.082886L887.337708,1484.130859C885.587463,1484.318848,883.860962,1484.686035,882.18573,1485.226807C882.045471,1485.273315,881.894165,1485.272705,881.753723,1485.226807C881.717712,1485.174072,881.715637,1485.107056,881.745728,1485.050781C881.926392,1484.76355,882.132629,1484.493164,882.361755,1484.24292L882.417725,1484.130859C882.423706,1484.05603,882.364502,1483.994141,882.289734,1483.986816C882.04126,1483.94458,881.789734,1483.922974,881.53772,1483.922852C878.893311,1483.993408,876.251465,1483.710938,873.681763,1483.082886C873.149597,1482.902588,872.626343,1482.697021,872.113708,1482.466797C872.992554,1482.373657,873.87384,1482.285645,874.753723,1482.202881L874.521729,1482.114868C870.409119,1481.751831,866.271912,1481.765137,862.161743,1482.154785C860.977783,1482.297729,859.806396,1482.530518,858.657715,1482.85083C857.90387,1483.091919,857.175171,1483.405396,856.48175,1483.786865C852.45813,1485.739258,848.564758,1487.949219,844.825745,1490.402832C843.283569,1491.445557,841.806152,1492.580933,840.401733,1493.802856C839.537415,1494.576294,838.734985,1495.41626,838.001709,1496.314941C837.226074,1497.363281,836.581299,1498.502197,836.081726,1499.706787C835.40564,1501.29834,834.791809,1502.915527,834.241699,1504.554932C833.395264,1506.982422,832.531128,1509.429932,831.66571,1511.85083C830.790405,1514.277588,829.753357,1516.642944,828.561707,1518.930908C827.904358,1520.172363,827.150024,1521.360107,826.305725,1522.48291C825.522339,1523.500488,824.58905,1524.393311,823.53772,1525.130859C821.205933,1526.649658,818.452942,1527.391846,815.673706,1527.250977C814.322449,1527.203979,812.980713,1527.005371,811.673706,1526.658936C809.772034,1526.151611,807.908691,1525.51001,806.097717,1524.739014C804.350769,1523.999023,802.587524,1523.297607,800.809753,1522.63501C798.105652,1521.687012,795.312805,1521.01416,792.473755,1520.626953L798.553711,1520.170898C798.918945,1519.209717,799.166138,1518.207764,799.289734,1517.187012C799.342896,1516.650635,799.302246,1516.109131,799.169739,1515.586914C799.011841,1515.028564,798.565186,1514.597168,798.001709,1514.458984C797.27594,1514.310059,796.568054,1514.084961,795.889709,1513.786865C795.683105,1513.689087,795.485046,1513.573975,795.297729,1513.442871L795.241699,1513.442871L795.225708,1513.434814C795.289063,1513.325195,795.380127,1513.234253,795.489746,1513.170898C795.731567,1512.977051,795.97699,1512.787598,796.225708,1512.602783C796.708374,1512.411499,797.25177,1512.437744,797.713745,1512.674805C798.025146,1512.768799,798.361572,1512.728149,798.641724,1512.562866C799.387207,1512.227051,800.050476,1511.73291,800.585754,1511.114868C800.656738,1511.045166,800.661072,1510.932129,800.59375,1510.858887C800.463074,1510.810303,800.329529,1510.770264,800.193726,1510.738892C800.061157,1510.640503,799.945068,1510.521606,799.849731,1510.386841C799.626404,1510.062256,799.323303,1509.800537,798.969727,1509.626953C798.776794,1509.547607,798.570313,1509.506836,798.361755,1509.506836C798.697083,1509.4729,799.023071,1509.375122,799.321716,1509.218872C799.474548,1509.1521,799.565552,1508.992432,799.545715,1508.826904C799.470398,1508.598145,799.334961,1508.393555,799.153748,1508.234863C798.832275,1507.916016,798.520142,1507.587891,798.217712,1507.250854C797.948792,1506.970459,797.767944,1506.616943,797.697754,1506.234863L797.681702,1506.074951C798.229797,1506.444092,798.86322,1506.667236,799.521729,1506.7229C799.874573,1506.776001,800.215576,1506.889648,800.529724,1507.058838C800.756836,1506.921387,800.920776,1506.700195,800.985718,1506.442871C801.011658,1506.249512,800.953552,1506.054199,800.825745,1505.90686C800.625977,1505.664307,800.397705,1505.446655,800.145752,1505.258789L799.801697,1504.962891C799.663818,1504.848022,799.567932,1504.690186,799.529724,1504.514893C799.524048,1504.463623,799.529541,1504.411865,799.545715,1504.362793C799.869324,1504.703735,800.334778,1504.872681,800.801697,1504.818848C801.140015,1504.793701,801.479858,1504.796387,801.817749,1504.826904C801.137024,1504.466797,800.565125,1503.930908,800.161743,1503.274902C800.14917,1503.253052,800.135864,1503.231689,800.121704,1503.210938C800.123047,1503.209473,801.682495,1503.553223,801.681702,1503.554932C801.790405,1503.597778,801.9151,1503.557495,801.977722,1503.458862L801.993713,1503.394775C801.645203,1503.1427,801.316345,1502.864624,801.009705,1502.562866C800.779358,1502.326782,800.621094,1502.029785,800.553711,1501.706787C800.871277,1501.945801,801.24176,1502.10498,801.633728,1502.170898C801.732788,1502.201416,801.839783,1502.153564,801.881714,1502.058838C801.88916,1501.889648,801.832031,1501.723389,801.721741,1501.594849C801.421265,1501.546997,801.152893,1501.379639,800.977722,1501.130859C800.856323,1500.834229,800.799133,1500.515259,800.809753,1500.194824C800.808533,1499.853271,800.797852,1499.511841,800.77771,1499.170898C801.001709,1499.350342,801.311523,1499.375488,801.561707,1499.234863C802.000549,1499.00061,802.368103,1498.652344,802.625732,1498.226807C802.92926,1497.818115,803.114685,1497.33374,803.161743,1496.826904C803.198059,1496.512695,803.055969,1496.203613,802.793701,1496.026855C803.391052,1496.126221,803.99884,1496.147705,804.601746,1496.09082C804.801758,1496.081299,804.991089,1495.995361,805.1297,1495.85083C805.223755,1495.696777,805.22699,1495.503662,805.137695,1495.346924C805.023071,1495.101074,804.875,1494.872192,804.697754,1494.66687C804.41333,1494.330688,804.125122,1493.99707,803.83374,1493.66687C804.485962,1493.625488,805.130798,1493.504517,805.753723,1493.306885C806.08728,1493.216797,806.376831,1493.009521,806.569702,1492.7229C806.694153,1492.481567,806.733215,1492.205322,806.681702,1491.938843C806.599487,1491.501465,806.513977,1491.063232,806.42572,1490.626953C806.360168,1490.25,806.371094,1489.863525,806.457703,1489.490845C807.114563,1489.732056,807.816772,1489.824951,808.513733,1489.762939C808.856934,1489.739502,809.187988,1489.626465,809.473755,1489.434814C809.807312,1489.190674,809.897949,1488.731079,809.681702,1488.378906C809.532837,1488.107422,809.334839,1487.865967,809.097717,1487.66687L809.929749,1486.554932L810.585754,1485.858887C810.570557,1485.668701,810.435303,1485.510986,810.249756,1485.466797C809.803101,1485.322754,809.349182,1485.202637,808.889709,1485.106934C808.550903,1485.02063,808.219238,1484.908203,807.897705,1484.770874C808.4505,1484.21106,809.216003,1483.914063,810.001709,1483.954834C810.272766,1483.984619,810.546143,1483.987305,810.817749,1483.962891C810.847473,1483.952881,810.873718,1483.93396,810.889709,1483.90686C810.89325,1483.86438,810.881653,1483.822144,810.857727,1483.786865C811.263611,1483.554321,811.658691,1483.303345,812.041748,1483.034912C812.15094,1482.978027,812.257629,1482.916504,812.361755,1482.85083C811.825256,1482.949585,811.286377,1483.034912,810.745728,1483.106934C810.224182,1483.166016,809.70166,1483.003418,809.305725,1482.658936C809.868408,1482.623779,810.421997,1482.499512,810.94574,1482.290894C811.395508,1482.035278,811.816528,1481.732178,812.201721,1481.386841C812.50708,1481.134888,812.822021,1480.894775,813.145752,1480.66687C813.329773,1480.515625,813.445068,1480.296143,813.465698,1480.058838C813.492737,1479.875977,813.508728,1479.69165,813.513733,1479.506836C813.535706,1479.195435,813.679504,1478.905151,813.913696,1478.698853C814.113342,1478.774414,814.324341,1478.814941,814.53772,1478.818848L814.601746,1478.802856L814.625732,1478.762939C814.627319,1478.672241,814.596375,1478.583984,814.53772,1478.514893C814.448547,1478.417725,814.392212,1478.293945,814.377747,1478.162842L814.385742,1478.114868C814.551453,1478.229248,814.759644,1478.264404,814.953735,1478.210938C815.12915,1478.079346,815.227844,1477.869873,815.217712,1477.650879C815.212158,1477.184326,815.153137,1476.719971,815.041748,1476.266846L815.041748,1476.24292C815.502319,1476.66626,815.927673,1477.126465,816.313721,1477.618896C816.483887,1477.840576,816.706726,1478.016602,816.961731,1478.130859C817.085449,1478.160522,817.215454,1478.136841,817.321716,1478.066895C817.35022,1477.519775,817.387573,1476.9729,817.433716,1476.42688C817.45813,1476.15625,817.534119,1475.892822,817.657715,1475.650879L817.737732,1475.538818L817.761719,1475.530884C818.213562,1475.923096,818.643494,1476.3396,819.049744,1476.778809C819.323547,1477.052979,819.623718,1477.299561,819.94574,1477.514893C820.058105,1477.60498,820.204834,1477.640747,820.345703,1477.61084C820.426941,1477.548096,820.471008,1477.448853,820.457703,1477.346924C820.413391,1476.887207,820.300171,1476.43689,820.121704,1476.010864C820.011902,1475.705566,819.891907,1475.404053,819.761719,1475.106934C819.867615,1475.150024,819.959106,1475.221924,820.025757,1475.314941C820.392029,1475.786011,820.705872,1476.295654,820.961731,1476.834839C821.219482,1477.38916,821.507935,1477.928711,821.825745,1478.450928C821.864929,1478.502197,821.904968,1478.552734,821.94574,1478.602783C821.822144,1477.693359,821.757996,1476.776733,821.753723,1475.858887C821.749084,1475.805176,821.764648,1475.752197,821.793701,1475.706787C821.953308,1475.681641,822.116333,1475.724976,822.241699,1475.826904C822.796692,1476.166626,823.260681,1476.635864,823.59375,1477.194824C823.673401,1477.336426,823.714722,1477.496338,823.713745,1477.658936C823.831909,1477.133667,823.920044,1476.602051,823.977722,1476.066895C824.009094,1475.775146,824.110474,1475.494751,824.273743,1475.250854C824.359009,1475.143066,824.488281,1475.078369,824.625732,1475.074951C825.105835,1475.816528,825.696655,1476.480103,826.377747,1477.042847C826.684814,1477.344238,827.049561,1477.580933,827.449707,1477.738892C827.793823,1477.763184,828.125427,1477.879517,828.409729,1478.074951C828.657898,1478.233154,828.903381,1478.395996,829.145752,1478.562866C829.106934,1478.373291,829.132568,1478.176514,829.217712,1478.00293C829.542603,1477.055542,829.968994,1476.146362,830.489746,1475.290894C830.819885,1476.079834,831.288513,1476.803223,831.873718,1477.42688C831.914001,1476.716187,832.048462,1476.01416,832.273743,1475.338867C832.357483,1474.95752,832.509277,1474.594482,832.721741,1474.266846L832.785706,1474.202881C832.919128,1474.585205,833.00238,1474.983154,833.033752,1475.386841C833.050842,1475.69873,833.115723,1476.00647,833.225708,1476.298828C833.308777,1476.556396,833.521667,1476.751953,833.785706,1476.810791C833.903381,1476.231445,834.152344,1475.686768,834.513733,1475.218872C835.265869,1474.174805,836.220825,1473.293213,837.321716,1472.626953C838.680359,1471.999512,840.105347,1471.527222,841.569702,1471.218872C843.955994,1470.953125,846.330994,1470.595581,848.689758,1470.146851L848.66571,1470.138916L848.625732,1470.130859C847.019104,1469.643555,845.466919,1468.992188,843.993713,1468.18689C843.54541,1467.929199,843.140564,1467.602417,842.793701,1467.218872C842.649963,1467.041382,842.536072,1466.841431,842.457764,1466.626953C842.224609,1466.179443,841.998047,1465.72876,841.77771,1465.274902C842.449158,1466.116699,843.380249,1466.713013,844.42572,1466.970947C845.56543,1467.278564,846.763489,1467.300537,847.913757,1467.034912C848.740784,1466.870239,849.540588,1466.590088,850.289734,1466.202881C850.900391,1465.90564,851.519409,1465.625488,852.145752,1465.362793C851.964478,1465.157715,851.820679,1464.922119,851.721741,1464.66687C851.874146,1464.640625,852.030762,1464.672607,852.161743,1464.754883L852.385742,1464.866943C852.414978,1464.872803,852.444336,1464.87793,852.473755,1464.882813C852.480591,1464.787842,852.453491,1464.693115,852.393738,1464.618896C851.975159,1463.904541,851.507385,1463.220215,850.993713,1462.570801C849.220459,1460.258057,847.692322,1457.767456,846.433716,1455.138916C845.892334,1453.952393,845.481873,1452.710327,845.209717,1451.434814C845.112671,1450.756592,845.029968,1450.07666,844.961731,1449.394775C845.206909,1449.936035,845.462952,1450.472168,845.729736,1451.00293C845.833862,1451.199219,845.954224,1451.386597,846.089722,1451.562866L846.145752,1451.61084L846.169739,1451.602783L846.18573,1451.586914L846.18573,1451.466797C846.063293,1450.690186,845.886841,1449.922974,845.657715,1449.170898C844.973877,1446.731445,844.600281,1444.215576,844.545715,1441.682861C844.557373,1441.296143,844.60022,1440.910889,844.673706,1440.530884L844.937744,1439.346924C844.918213,1439.919556,844.953064,1440.492676,845.041748,1441.058838C845.07373,1441.172119,845.115906,1441.282227,845.169739,1441.386841C845.187805,1441.403564,845.205017,1441.421143,845.225708,1441.434814L845.249756,1441.418945C845.263611,1441.371704,845.281799,1441.325928,845.305725,1441.282837C845.502625,1440.500244,845.636353,1439.702881,845.70575,1438.898926C846.125977,1435.544434,846.400879,1432.173096,846.529724,1428.794922C846.566772,1426.656372,846.121155,1424.537231,845.225708,1422.594849C845.023132,1422.231201,844.793091,1421.883545,844.53772,1421.554932C844.439331,1421.413818,844.386047,1421.246826,844.385742,1421.074951L844.48175,1420.930908L844.48175,1420.874878C844.280762,1420.500366,844.021606,1420.159912,843.713745,1419.866943C842.944885,1419.054565,842.152588,1418.264893,841.337708,1417.498779C841.106018,1417.259888,840.887085,1417.008789,840.681702,1416.746826C840.628662,1416.697754,840.601318,1416.625,840.617737,1416.554932L840.641724,1416.514893C840.826233,1416.534668,841.012817,1416.524048,841.193726,1416.48291C841.305908,1416.431763,841.402283,1416.351318,841.473755,1416.250854C841.773987,1415.724854,841.868225,1415.106201,841.737732,1414.514893C841.646301,1413.951904,841.399658,1413.425537,841.025757,1412.994873C840.375427,1411.276001,839.638428,1409.591187,838.817749,1407.946777C838.265442,1406.865234,837.854126,1405.717041,837.59375,1404.530884L837.513733,1404.018799C837.53302,1404.050171,837.560059,1404.076172,837.59375,1404.09082C837.620728,1404.07312,837.644104,1404.050049,837.649719,1404.018799C837.708679,1403.745605,837.735535,1403.466309,837.729736,1403.18689C837.723267,1401.404541,837.669922,1399.622559,837.569702,1397.842896C837.515564,1396.419434,837.499573,1394.995117,837.521729,1393.570801C837.519592,1393.125977,837.623779,1392.687256,837.825745,1392.290894C838.265808,1391.265381,838.582642,1390.191162,838.769714,1389.09082C839.375549,1385.855225,839.927734,1382.608765,840.42572,1379.354858C840.652344,1378.013306,840.908386,1376.677124,841.193726,1375.346924C841.210327,1375.266357,841.237244,1375.188477,841.273743,1375.114868C841.291931,1375.10083,841.310608,1375.087646,841.329712,1375.074951L841.385742,1375.106934C841.494629,1375.250732,841.569092,1375.41748,841.601746,1375.594849C841.725281,1376.11792,841.824097,1376.646484,841.897705,1377.178955C842.272705,1375.599854,842.680786,1374.028809,843.121704,1372.466797L843.265747,1372.066895C843.288879,1372.069336,843.309204,1372.080078,843.329712,1372.09082C843.454163,1372.325195,843.545776,1372.575439,843.601746,1372.834839L843.83374,1373.714844C844.119934,1372.943359,844.434814,1372.182861,844.77771,1371.434814C844.906189,1371.173828,845.073425,1370.933838,845.273743,1370.7229C845.322693,1370.683105,845.393494,1370.682373,845.441711,1370.7229L845.473755,1370.778809C845.494263,1370.920532,845.515564,1371.061523,845.53772,1371.202881L845.553711,1371.226807C845.583374,1371.236572,845.615601,1371.236816,845.641724,1371.218872C845.894592,1371.029053,846.10907,1370.792725,846.273743,1370.522949C847.53418,1368.845703,849.258667,1367.574463,851.233765,1366.866943C852.899902,1366.237061,854.668579,1365.922119,856.449707,1365.938843C856.941833,1365.912842,857.435303,1365.939941,857.921753,1366.018799C858.312134,1366.103882,858.665222,1366.311279,858.929749,1366.61084C859.274048,1366.887451,859.483948,1367.297852,859.505737,1367.738892C859.496216,1368.004639,859.46698,1368.269531,859.417725,1368.530884C859.400208,1368.698975,859.422913,1368.868408,859.48175,1369.026855L859.521729,1369.09082C859.615356,1369.106201,859.698975,1369.157349,859.753723,1369.234863C859.867737,1369.356689,859.959167,1369.497803,860.025757,1369.650879C860.331665,1370.173828,860.527588,1370.753662,860.601746,1371.354858L860.585754,1371.410889L860.577759,1371.474854C860.395691,1371.87207,860.149536,1372.236938,859.849731,1372.554932C859.238586,1373.280396,858.542969,1373.930298,857.77771,1374.490845C857.473083,1374.679688,857.137207,1374.8125,856.785706,1374.882813C856.138977,1375.036865,855.480835,1375.13855,854.817749,1375.18689L852.865723,1375.322876C852.071838,1376.536011,851.290405,1377.757446,850.521729,1378.986816C849.861206,1380.111572,849.319641,1381.302002,848.905762,1382.538818C848.075806,1385.339111,847.976624,1388.30542,848.617737,1391.154785C849.005737,1392.897217,849.470215,1394.621338,850.009705,1396.322876C850.322144,1397.445801,850.715149,1398.544556,851.18573,1399.61084C851.581116,1400.393799,852.090759,1401.113647,852.697754,1401.746826C853.535828,1402.663452,854.428162,1403.529053,855.369751,1404.338867C856.210205,1405.126953,857.105774,1405.854248,858.049744,1406.514893C858.140137,1406.561401,858.233826,1406.601074,858.329712,1406.634888C858.344788,1406.626221,858.356934,1406.614258,858.369751,1406.602783C858.372803,1406.547607,858.362854,1406.492188,858.337708,1406.442871C858.217712,1406.145996,858.05896,1405.866211,857.865723,1405.61084C857.35791,1404.852783,856.787964,1404.138428,856.161743,1403.474854C855.886963,1403.229126,855.609802,1402.986572,855.329712,1402.746826C855.258911,1402.686523,855.196045,1402.617188,855.145752,1402.538818L855.137756,1402.490845L855.217712,1402.474854L855.305725,1402.490845C856.943359,1403.109131,858.414246,1404.10083,859.601746,1405.386841C859.817078,1405.635132,860.004822,1405.906128,860.161743,1406.194824L860.59375,1407.066895C860.607239,1406.707031,860.604614,1406.346558,860.585754,1405.986816C860.493835,1405.309082,860.217163,1404.669678,859.785706,1404.138916C859.721985,1404.04126,859.688477,1403.927368,859.689758,1403.810791L859.729736,1403.794922C859.809875,1403.802979,859.887207,1403.82959,859.953735,1403.874878C860.63855,1404.244995,861.218994,1404.78125,861.641724,1405.434814C861.779175,1405.669434,861.889221,1405.919189,861.969727,1406.178955L862.289734,1407.258789C862.480713,1406.064087,862.777832,1404.888916,863.177734,1403.746826C863.378052,1403.272949,863.588806,1402.803467,863.809753,1402.338867C863.909546,1402.110229,863.984558,1401.87146,864.033752,1401.626953C864.005005,1401.450439,864.049377,1401.27002,864.161743,1401.130859C864.195251,1401.118652,864.231445,1401.121094,864.265747,1401.130859L864.321716,1401.154785C864.491089,1401.29541,864.625671,1401.473145,864.713745,1401.674805C864.939514,1402.138184,865.139893,1402.613525,865.313721,1403.098877L865.53772,1402.202881C865.615295,1401.73999,865.623413,1401.268066,865.561707,1400.802856L865.441711,1399.970947C866.030029,1400.614868,866.624084,1401.259766,867.217712,1401.898926C867.233521,1401.560181,867.228149,1401.220947,867.201721,1400.882813C867.174255,1400.626709,867.128662,1400.372803,867.065735,1400.122803C866.882751,1399.380371,866.685364,1398.641602,866.473755,1397.90686C866.411072,1397.669678,866.387024,1397.423828,866.401733,1397.178955L866.433716,1397.146851C866.492798,1397.155396,866.548523,1397.179932,866.59375,1397.218872C867.198547,1397.790527,867.685059,1398.475586,868.025757,1399.234863C868.15564,1399.497437,868.270508,1399.767212,868.369751,1400.042847L868.393738,1400.082886L868.417725,1400.098877L868.441711,1400.09082L868.457764,1400.042847L868.465698,1400.00293C868.603943,1398.31543,868.47168,1396.616577,868.07373,1394.970947C867.781982,1393.609619,867.328125,1392.288086,866.721741,1391.034912C866.214172,1389.867432,866.06134,1388.57666,866.281738,1387.322876C866.48822,1386.290527,866.985107,1385.338623,867.713745,1384.578857C868.540771,1383.672241,869.20166,1382.626953,869.66571,1381.490845C870.561157,1379.427002,871.425476,1377.348999,872.257751,1375.258789C873.057678,1373.358521,873.897827,1371.475342,874.77771,1369.61084C875.028442,1369.091553,875.3172,1368.591553,875.641724,1368.114868C875.677063,1368.043213,875.742859,1367.992432,875.817749,1367.962891C875.995117,1368.028687,876.124146,1368.18396,876.153748,1368.37085C876.196045,1368.522461,876.223267,1368.677734,876.233765,1368.834839L876.265747,1368.858887L876.313721,1368.866943C876.538208,1368.564453,876.716492,1368.230225,876.841736,1367.874878C877.419617,1366.71521,878.046814,1365.580811,878.721741,1364.474854C878.815002,1365.093018,878.902893,1365.711426,878.985718,1366.330811C879.362061,1365.657104,879.759583,1364.995483,880.177734,1364.346924C880.378479,1364.06665,880.606201,1363.806641,880.857727,1363.570801L880.913757,1363.546875L880.953735,1363.554932C880.990356,1363.619141,880.983765,1363.69873,880.94574,1363.762939C880.888977,1363.893311,880.848389,1364.030273,880.825745,1364.170898C880.827881,1364.209229,880.834961,1364.247314,880.849731,1364.282837C880.868225,1364.300293,880.889282,1364.314941,880.913757,1364.322876C881.058655,1364.311768,881.194275,1364.248901,881.297729,1364.146851C881.703064,1363.694824,882.162537,1363.294434,882.66571,1362.954834C883.872437,1362.19165,885.218323,1361.675049,886.625732,1361.434814C887.637939,1361.244385,888.669434,1361.177246,889.697754,1361.234863z"/>
</svg>
