<?xml version="1.0" encoding="UTF-8"?>
<svg xmlns="http://www.w3.org/2000/svg" width="250.595mm" height="113.380mm" viewBox="-1102.596924 -750.320068 250.595459 113.380371">
    <path transform="matrix(-0.26462,0,0,-0.26462,-837.182739,-613.881348)" style="stroke:#000000;stroke-width:0.05mm;fill:none" d="M545,513.550293C564.354492,511.190979,585.863525,507.484985,606,503.039978C620.953674,499.739075,625.926636,499.088684,640.177185,498.570251C667.823914,497.564453,686.491577,494.752747,726.826294,485.519287C770.736816,475.467255,790.494324,472.074951,813.808899,470.584625C822.048523,470.057953,822.111694,470.072052,821.384399,472.276764C820.209656,475.838043,820.72522,485.155151,822.176514,486.590942C823.268799,487.6716,824.722839,487.297974,830.5,484.45224C835.457642,482.010162,840.417664,480.545746,847.5,479.433044C874.036255,475.263947,880.291138,472.95282,890.816467,463.428009C894.259521,460.312164,900.021729,453.991211,903.621277,449.381439C907.220886,444.771637,910.630432,441,911.197998,441C911.765625,441,916.790771,438.78653,922.36499,436.081207C930.104187,432.325165,933.845581,429.783997,938.192322,425.331207C948.388306,414.886505,954.297607,402.190308,956.930969,385.070801C959.110596,370.901154,966.753418,360.650543,987.902344,343.531921C1000.169922,333.602081,1003,330.137726,1003,325.050262C1003,321.430725,999.557373,317.428986,995.586121,316.432251C994.163757,316.075256,993,315.445313,993,315.032379C993,314.619446,991.194946,312.230927,988.988708,309.724548C983.634583,303.641907,977.599365,300.799988,970.036011,300.799988C962.270325,300.799988,956.762817,303.410797,941.5,314.327393C934.900024,319.048004,927.25,324.079529,924.5,325.508606C919.737915,327.983276,919.975891,327.664917,929.5,318.81839C957.845581,292.489471,964.540527,283.94693,967.59729,270.207214C969.46698,261.803436,968.8927,260.596802,963.728271,262.077942C959.467163,263.299988,957.604126,265.291382,954.389832,272.059479L951.568542,278L943.759277,278C930.863037,278,925.35144,280.603027,906,295.83313C900.775024,299.945313,894.025024,304.457367,891,305.859894C884.113525,309.052765,876.262451,309.316986,870.143372,306.561768C864.956543,304.226318,862.59906,300.011719,854.91095,279.33017C849.298157,264.231384,848.520142,262.500549,843.187439,253.25C839.447021,246.761597,836.354004,244.840256,837.257446,249.566391L837.748047,252.132797L834.867432,249.372986C832.794861,247.387344,831.68219,246.917831,830.900757,247.699234C830.119385,248.480637,830.121216,249.357986,830.907349,250.826904C832.680847,254.14064,832.281677,254.169266,826.25,251.160889C816.474792,246.28537,811.061462,244.538544,809.760193,245.839828C808.897522,246.702484,809.342834,247.773849,811.55658,250.161636L814.5,253.336456L811,251.308685C798.405579,244.011963,790.940552,240.659424,789.808411,241.79158C788.89917,242.700821,789.171204,243.55336,790.987549,245.486755C794.194946,248.900848,792.852783,248.649033,785.284912,244.41684C779.088379,240.951553,778.899902,240.729492,779.554932,237.66684C782.416748,224.286591,788.124939,214.360626,805.078064,193.284836C808.964539,188.453171,816.724426,177.132248,822.322205,168.127228C828.414978,158.325928,835.243408,148.799362,839.335083,144.391861C847.917114,135.147583,850.680969,134.119461,862.396545,135.813354C873.619568,137.436035,876.458984,137.316635,880.933533,135.033905C887.452148,131.708359,897,119.127731,897,113.864113C897,111.235985,893.33905,107,891.067749,107C890.196716,107,887.393677,105.887177,884.838684,104.527054C880.365112,102.145599,879.477539,102.052963,860.846619,102.022964C850.205994,102.005829,838.056458,101.913116,833.847595,101.816933C825.240784,101.620239,822.002197,103.017586,819.154236,108.15667C818.244385,109.798462,811.650024,115.717247,804.5,121.309525C783.848816,137.461548,778.887634,142.109085,772.501831,151.284866C769.20282,156.025192,766.205078,159.587814,765.840149,159.201813C765.475281,158.815811,764.785217,156.475006,764.306702,154C763.201538,148.283356,761.557678,148.246689,757.288879,153.843445L753.976013,158.18689L752.635681,154.843445C751.898438,153.004547,751.003601,150.675079,750.647095,149.66684C749.514038,146.462326,747.624023,148.451141,745.747803,154.822144C744.699402,158.38208,743.365112,161,742.59906,161C741.116516,161,737.100708,158.153976,732.362732,153.745361C728.186829,149.859772,727.321594,151.570877,729.932983,158.550446C733.052734,166.888672,732.662842,168.053131,728.207825,163.702942C726.122131,161.666321,724.04834,160,723.599426,160C722.820496,160,723.240112,162.682159,724.64093,166.657104C725.00177,167.681107,723.228088,166.520798,720.649292,164.045853C714.947693,158.573822,713.581787,159.359726,715.570618,166.967926C717.640137,174.884583,717.297852,187,715.0047,187C714.585571,187,713.683472,185.649994,713,184C710.830933,178.763428,709.347107,180.365326,708.642212,188.704529C708.283997,192.942032,707.613037,196.786942,707.151245,197.248779C706.689392,197.710617,703.337708,197.112259,699.703125,195.919083C690.488647,192.894196,689.442566,193.511856,692.443726,200.205246C693.749512,203.117355,695.105408,207.074997,695.456909,209L696.096069,212.5L694.050354,210.142105C691.694458,207.426651,688.334534,207.88121,689.494751,210.758423C691.738281,216.322006,691.166504,225.690659,688.415466,228.441666C687.074219,229.782928,686.472534,229.772751,682.913269,228.348618C680.715332,227.469177,678.625793,227.040848,678.269897,227.396759C677.914001,227.75267,678.607666,230.071045,679.811401,232.548691C683.372375,239.878326,682.991028,240.101944,673.25,236.395615C668.4375,234.564514,663.487488,233.051422,662.25,233.033173C659.54126,232.99324,659.249451,235.513138,661.654968,238.171265C663.214722,239.89476,663.17157,239.999954,660.904968,239.999115C659.582214,239.998627,653.764099,238.727264,647.975708,237.173874C642.187378,235.620468,636.899902,234.533371,636.225708,234.758087C634.398376,235.367218,634.74176,237.456329,637.006104,239.505554C638.109497,240.504089,638.837158,241.49617,638.623169,241.71019C638.409119,241.924194,635.252869,241.580154,631.609253,240.945648C627.965637,240.311127,624.245544,240.075531,623.342407,240.422089C621.890686,240.979172,621.954163,241.322311,623.890137,243.383072L626.079895,245.713943L621.034363,244.916351C614.771851,243.926376,606.802124,239.677582,602.925293,235.262131C601.309937,233.422348,596.67627,225.298233,592.628296,217.208542C588.580261,209.118835,582.427368,198,578.955139,192.5C571.543274,180.759506,565.641418,168.560165,563.621216,160.804138C560.477966,148.736206,560.786743,119.985893,564.081543,117.9496C564.681335,117.578926,568.302979,117.013161,572.129761,116.692337C580.528442,115.988228,584.685425,113.683739,587.911682,107.943375C590.774475,102.849686,591.335632,93.915916,588.943298,91.51825C586.828979,89.399124,579.398682,88.3256,560.920227,87.46949C547.819031,86.862511,544.239624,87.021538,538.420227,88.469154C525.342712,91.722321,524.740173,93.281715,524.891174,123.485779C524.954407,136.1436,525.576599,153.137497,526.273865,161.25C526.971069,169.362503,527.360291,176,527.138794,176C526.917297,176,525.1875,175.042938,523.294861,173.873199C517.475159,170.276443,517.140442,172.294388,521.329407,185.722366C523.350159,192.200058,525.002747,197.833344,525.00177,198.240753C525.000793,198.648178,522.812744,197.635666,520.139404,195.990753C517.466064,194.34584,514.766052,193,514.139404,193C512.804016,193,512.626099,195.182083,513.849976,196.550003C514.317444,197.072495,516.196899,200.168686,518.02655,203.430405C521.132751,208.967758,521.194214,209.249435,518.954102,207.680405C513.460876,203.832809,513.647766,207.175568,519.5,217.444901C521.974976,221.787964,524,225.522232,524,225.743271C524,225.96431,522.797913,225.1996,521.328674,224.0439C515.861877,219.743729,515.996155,226.120255,521.605774,237.203217L523.986267,241.906448L520.019104,240.506729C516.002136,239.089478,514.178345,239.812668,515.622681,242.25C516.03009,242.9375,518.981689,246.960938,522.181702,251.190964C528.336487,259.326691,528.838318,260.258911,526.601135,259.400452C524.105957,258.442932,523.850525,260.873718,525.94812,265.615601C528.515137,271.418854,528.519287,271.386353,525.468811,269.387604C519.772461,265.655212,521.015503,270.540466,528.828857,282.59317L534.723633,291.68634L524.611816,286.364624C514.595093,281.092987,511,279.968231,511,282.106079C511,282.714417,512.148682,284.115723,513.552673,285.220093C514.956604,286.324432,515.927307,287.406067,515.709656,287.623657C515.492065,287.841278,510.918823,287.11496,505.546936,286.009644C500.175018,284.904358,495.154388,284,494.389923,284C491.988342,284,492.877777,286.87146,495.75,288.390961C499.128723,290.178406,498.663361,290.375183,486,292.513947C480.774994,293.396423,475.496368,294.528107,474.269714,295.028809C471.556305,296.136353,472.22226,298.744751,475.334564,299.199371C476.525543,299.373352,473.450012,300.3414,468.5,301.350616C456.801025,303.735809,454.704529,304.386444,454.241455,305.775604C454.030518,306.408447,455.12738,307.199921,456.678955,307.534454C458.23053,307.868988,460.399994,308.563293,461.5,309.077393C463.831879,310.167206,441.471466,309.684082,438.911621,308.589355C436.898224,307.728302,432.897491,295.38739,428.995026,278C425.398865,261.977325,422.779419,253.631073,418.794952,245.5C414.853455,237.45668,412.513916,234.488861,399.428925,220.933228C386.120789,207.146423,381.996826,201.166428,378.441345,190.5C376.015259,183.221771,375.819611,181.507568,376.272858,171.5C376.945313,156.652634,378.658112,152.143539,386.59549,144.324829C394.27005,136.765015,406.209198,127.675575,411.540527,125.333817C414.724854,123.93512,418.534424,123.585381,431,123.547325C446.010162,123.501495,446.668457,123.411263,451.831024,120.692101C454.763092,119.147751,459.600586,115.522285,462.581024,112.635498C467.118744,108.240372,468,106.814514,468,103.867714C468,98.135574,465.051056,96.248619,453.437317,94.549416C441.909119,92.862724,420.176208,92.644714,411.5,94.128731C403.375031,95.518463,398.469177,97.824532,388.740051,104.8274C384.208038,108.089485,376.625275,112.554199,371.889526,114.748985C367.153748,116.943771,362.897949,119.356079,362.43222,120.109673C361.798035,121.135811,361.437836,120.85466,360.99762,118.989922C360.118683,115.266655,357.828766,115.974724,355.171783,120.791336C353.154205,124.44883,352.578125,124.894775,351.271698,123.810532C350.000427,122.75547,349.499359,122.876396,348.335266,124.519196C347.563263,125.608635,344.233307,130.36998,340.935364,135.099976C337.63739,139.829956,332.036835,146.922318,328.489624,150.860779C320.463898,159.771759,318.714294,163.109543,318.714294,169.50943C318.714294,174.809265,319.886139,177.836105,327.034546,191C330.747284,197.837051,331.077118,199.038971,330.765961,204.59758C330.522705,208.942947,329.499603,212.574127,327.205658,217.233841C323.67807,224.399368,307.165527,249.787811,304.703979,251.830719C303.422668,252.894119,302.020111,252.532898,296.332397,249.674683C292.574585,247.786285,285.225006,244.887161,280,243.232178C271.008118,240.384064,265.011902,239.18045,241.5,235.50412C236,234.64415,228.125,232.96286,224,231.767944C217.483063,229.880157,215.779083,228.866364,211,224.033554C206.447479,219.429855,203.668106,214.856522,194.866089,197.485855C189.017441,185.943634,183.941284,175.242249,183.585754,173.705017C183.230209,172.16777,182.549637,164.742767,182.07338,157.205017C180.93689,139.217911,176.762115,126.524353,168.366592,115.529076C162.09256,107.312225,141.103058,93,135.326706,93C131.846771,93,130.004395,96.826408,126.758461,110.79528C124.488716,120.563187,123.907715,125.118118,124.245056,130.5C124.778603,139.01207,126.670326,142.957748,135.309479,153.577759C142.139587,161.973938,146.085968,168.89183,147.910187,175.666473C148.522278,177.939606,149.181946,187.157074,149.376114,196.149719C149.588058,205.964996,150.220428,213.699066,150.958298,215.5C151.897507,217.792358,153.128128,235.999893,152.343872,235.999985C152.257996,235.999985,149.146667,232.850006,145.42981,229C135.813416,219.039139,134.194763,219.658737,138.012894,231.839096C139.105804,235.325592,140,238.559555,140,239.025681C140,239.491806,136.090591,238.551712,131.312408,236.936584C121.288582,233.548325,121,233.507202,121,235.467255C121,236.653214,118.843254,236.988708,109.75,237.217255C96.347916,237.554092,95.15258,238.894943,104.65757,242.929611C111.420952,245.800537,121,251.675568,121,252.952759C121,253.398163,119.040993,254.255859,116.64666,254.858749C103.861626,258.078064,83.760262,271.367584,74.078072,283.001923C68.707199,289.455658,67.873253,291.892578,70.775803,292.651611C72.383957,293.072174,72.249809,293.747803,69.354927,299.808014C65.680923,307.499237,60.353794,329.753784,61.832718,331.232727C62.437355,331.837341,63.787083,331.530396,65.521889,330.393707L68.257584,328.601196L66.68457,331.643066C64.217453,336.413971,61.00106,345.31131,61.000504,347.366638C61.000126,348.772217,61.493988,349.080963,63,348.616638C64.099998,348.277496,65.895966,347.723572,66.991028,347.385712C68.636719,346.87796,68.029655,348.612152,63.491032,357.384033C56.119854,371.630432,56.239475,372.590881,65,369.5C71.081909,367.354187,71.879662,367.637177,67.944283,370.544525C66.049927,371.944031,64.5,373.856506,64.5,374.794525C64.5,375.903839,63.014385,377.01355,60.25,377.969177C57.912498,378.777222,56,380.014709,56,380.719177C56,383.588501,74.617226,381.067688,86.3694,376.607056C106.663574,368.904297,121.827324,354.55307,131.899643,333.516571C137.200378,322.44574,142.195343,315.990143,147.000702,313.999695C155.303986,310.560364,171.271805,315.765961,180.984818,325.078705C190.297089,334.007233,194.729645,343.330048,199.965485,365C207.96431,398.105316,212.133453,412.32843,216.231506,420.491943C231.408859,450.726013,257.307892,469.948181,304.44986,485.967316C348.701111,501.00415,385.719452,508.527679,425,510.46759C431.875,510.807129,444.700012,511.956146,453.5,513.020935C475.753204,515.713623,477.337402,515.787659,506,515.474487C521.788879,515.302002,536.641174,514.569214,545,513.550293z"/>
</svg>
