<?xml version="1.0" encoding="UTF-8"?>
<svg xmlns="http://www.w3.org/2000/svg" width="130.355mm" height="94.913mm" viewBox="-1083.976563 -714.163147 130.355469 94.913147">
    <path transform="matrix(-1,0,0,-1,0,0)" style="stroke:#000000;stroke-width:0.05mm;fill:none" d="M1047.398438,619.25L1047.59375,619.261719C1047.937744,619.298096,1048.272949,619.39563,1048.578125,619.558594C1049.111572,619.817627,1049.608765,620.144958,1050.058594,620.53125L1050.175781,620.667969L1050.25,620.800781L1050.285156,620.921875C1050.261108,621.119629,1050.218262,621.314636,1050.15625,621.503906C1050.021606,622.122131,1049.857788,622.733643,1049.664063,623.335938C1049.283691,624.287903,1048.660889,625.123657,1047.855469,625.757813C1047.354614,626.163513,1046.830933,626.540039,1046.285156,626.882813C1045.845093,627.177429,1045.482788,627.573425,1045.230469,628.039063C1044.854248,628.827454,1044.627319,629.679077,1044.570313,630.550781C1044.548706,630.888855,1044.616577,631.227051,1044.765625,631.53125C1044.869995,631.733582,1045.007935,631.916382,1045.175781,632.070313L1045.25,632.109375C1045.311768,632.129028,1045.373779,632.147461,1045.4375,632.160156C1045.523315,632.168579,1045.609253,632.165955,1045.695313,632.164063L1045.863281,632.152344C1047.248169,631.953125,1048.621216,631.679504,1049.976563,631.332031C1050.834961,629.971497,1051.694824,628.597351,1052.542969,627.230469C1053.414551,625.823975,1054.430542,624.512268,1055.574219,623.316406C1056.905884,621.987061,1058.481323,620.927063,1060.214844,620.195313C1061.044312,619.794556,1061.957886,619.597473,1062.878906,619.617188C1063.473022,619.592346,1064.068237,619.622375,1064.65625,619.710938L1064.875,619.773438C1065.036133,619.838501,1065.177856,619.940369,1065.296875,620.066406L1065.390625,620.234375L1065.453125,620.4375C1065.481079,620.609192,1065.489624,620.783203,1065.484375,620.957031C1065.410645,621.655762,1065.239624,622.340698,1064.976563,622.992188C1064.261353,624.828918,1063.447754,626.625916,1062.539063,628.375C1061.973633,629.545471,1061.36792,630.695801,1060.722656,631.824219C1060.216064,632.682617,1059.553589,633.439331,1058.769531,634.054688C1057.169434,635.466187,1055.600464,636.911499,1054.0625,638.390625C1052.927734,639.441406,1051.717651,640.407776,1050.441406,641.28125C1048.331177,642.544861,1046.252319,643.860413,1044.207031,645.226563C1044.061523,645.322205,1043.922485,645.427246,1043.789063,645.539063L1043.75,645.574219L1043.683594,645.660156L1043.636719,645.765625L1043.617188,645.890625C1043.612671,645.995728,1043.624146,646.100769,1043.648438,646.203125C1043.877319,647.057617,1044.302979,647.846558,1044.890625,648.507813C1045.128174,648.76239,1045.421753,648.957886,1045.75,649.074219L1045.890625,649.105469C1045.981812,649.114441,1046.072754,649.123779,1046.164063,649.128906L1046.316406,649.175781L1046.476563,649.25C1046.730347,649.377502,1046.959961,649.54895,1047.152344,649.757813C1047.252319,649.865051,1047.349609,649.974854,1047.445313,650.085938C1047.534424,650.179443,1047.631226,650.265015,1047.730469,650.347656C1047.813599,650.410217,1047.89917,650.469604,1047.988281,650.523438C1048.054199,650.54541,1048.119751,650.56842,1048.1875,650.585938C1048.246216,650.57135,1048.30249,650.548706,1048.355469,650.519531C1048.403198,650.506226,1048.45166,650.507935,1048.5,650.511719L1048.519531,650.558594C1048.428223,650.846191,1048.298096,651.119995,1048.136719,651.375C1047.721313,652.172913,1047.253784,652.942444,1046.738281,653.679688C1046.708862,653.703003,1046.680542,653.727295,1046.644531,653.742188C1046.598999,653.727234,1046.554688,653.708801,1046.511719,653.6875L1046.417969,653.632813C1046.297119,653.541809,1046.171997,653.456604,1046.046875,653.371094C1044.669312,652.257019,1043.39563,651.020569,1042.242188,649.675781C1042.190796,649.600159,1042.13562,649.527344,1042.082031,649.453125L1042.03125,649.359375C1041.394287,648.037659,1041.616089,646.464722,1042.589844,645.367188C1042.717896,645.250671,1042.843018,645.130798,1042.960938,645.003906C1043.188232,644.698486,1043.324463,644.335754,1043.363281,643.957031C1043.488281,642.959412,1043.250244,641.95166,1042.695313,641.113281C1042.495239,640.854858,1042.250244,640.634888,1041.96875,640.46875C1041.872437,640.420776,1041.77478,640.375549,1041.671875,640.34375C1041.576416,640.323669,1041.480225,640.307312,1041.382813,640.300781C1041.288818,640.315369,1041.195313,640.332581,1041.101563,640.347656C1041.006348,640.387512,1040.912476,640.430542,1040.824219,640.484375C1040.478516,640.738342,1040.191162,641.061523,1039.964844,641.425781C1039.375,642.291565,1038.57019,642.989258,1037.628906,643.449219C1036.425781,644.031189,1035.164917,644.485046,1033.867188,644.804688C1032.685181,645.079651,1031.514893,645.402649,1030.359375,645.773438L1030.117188,645.863281C1029.289673,646.187622,1028.622437,646.824951,1028.269531,647.640625L1028.21875,647.808594L1028.195313,647.976563C1028.165771,648.202393,1028.219971,648.432495,1028.347656,648.621094C1028.616211,649.036987,1028.960327,649.398376,1029.359375,649.691406L1029.585938,649.890625C1030.269775,650.445862,1030.917969,651.04364,1031.527344,651.679688C1031.643066,651.82373,1031.749634,651.975098,1031.832031,652.140625L1031.894531,652.289063C1032.077148,652.917542,1032.109131,653.579468,1031.988281,654.222656L1031.929688,654.449219L1031.847656,654.667969C1031.559692,655.232666,1031.402588,655.854797,1031.378906,656.488281C1031.330811,657.337708,1031.307251,658.188293,1031.308594,659.039063C1031.290039,660.497559,1031.062744,661.946045,1030.632813,663.339844C1030.450928,663.803711,1030.262939,664.26709,1030.070313,664.726563C1029.653198,665.788574,1029.852539,666.995728,1030.59375,667.863281C1030.786865,668.091309,1030.957031,668.337952,1031.097656,668.601563C1031.390991,669.236816,1031.540283,669.929138,1031.539063,670.628906C1031.554565,671.459412,1031.563599,672.290405,1031.566406,673.121094C1031.626343,674.385071,1031.783203,675.642761,1032.035156,676.882813C1032.081299,677.150024,1032.088501,677.422302,1032.054688,677.691406L1031.996094,677.859375L1031.898438,678.003906L1031.769531,678.144531C1031.689087,678.210205,1031.604736,678.270874,1031.515625,678.324219C1031.056885,678.524902,1030.559082,678.615784,1030.058594,678.605469C1029.834106,678.606995,1029.610962,678.636047,1029.390625,678.679688L1029.292969,678.710938C1029.261108,678.728516,1029.231323,678.749573,1029.207031,678.777344C1029.224365,678.797729,1029.24292,678.816895,1029.261719,678.835938C1029.921143,679.283386,1030.609009,679.6875,1031.320313,680.046875C1032.30249,680.535828,1033.257202,681.078125,1034.179688,681.671875L1034.289063,681.75C1034.372437,681.800232,1034.447754,681.863342,1034.5,681.945313C1034.477051,681.991028,1034.447266,682.031067,1034.421875,682.074219C1034.3573,682.144287,1034.28479,682.206604,1034.207031,682.261719L1034.0625,682.371094C1033.882446,682.492126,1033.69812,682.60675,1033.507813,682.710938L1032.515625,683.253906C1033.085083,683.181152,1033.655396,683.116272,1034.226563,683.058594C1034.572876,683.016479,1034.924072,683.037109,1035.261719,683.125L1035.453125,683.207031L1035.640625,683.316406C1035.868896,683.460876,1036.070435,683.643799,1036.238281,683.855469L1036.289063,683.957031L1036.300781,684.058594C1036.280884,684.134216,1036.248047,684.204956,1036.210938,684.273438L1036.113281,684.402344C1036.044922,684.500488,1035.975708,684.597839,1035.90625,684.695313L1035.894531,684.75L1035.917969,684.789063L1035.96875,684.8125L1036.050781,684.824219L1036.167969,684.828125C1036.282715,684.850891,1036.394165,684.88855,1036.492188,684.953125C1036.739014,685.117981,1036.961182,685.317139,1037.144531,685.550781L1037.714844,686.273438C1037.164551,686.754333,1036.629517,687.25238,1036.109375,687.765625C1036.073242,687.806519,1036.038452,687.848389,1036.003906,687.890625L1035.980469,687.933594L1035.976563,687.964844C1035.990112,687.98175,1036.00769,687.988403,1036.023438,688C1036.063232,688.000305,1036.101196,687.993347,1036.140625,687.996094C1036.383789,687.94696,1036.630859,687.91864,1036.878906,687.914063L1037.023438,687.949219L1037.113281,688.003906L1037.140625,688.039063C1037.143799,688.06897,1037.144653,688.098938,1037.144531,688.128906C1037.127808,688.162292,1037.112427,688.196228,1037.089844,688.226563C1037.025635,688.291138,1036.954956,688.348389,1036.878906,688.398438C1036.806641,688.454407,1036.734375,688.510437,1036.671875,688.578125L1036.636719,688.632813L1036.605469,688.742188L1036.636719,688.832031L1036.71875,688.902344L1036.851563,688.945313L1037.027344,688.949219C1037.460693,688.848633,1037.913452,688.875977,1038.335938,689.015625L1038.761719,689.144531C1039.10437,689.251648,1039.42627,689.416626,1039.707031,689.640625L1039.769531,689.722656L1039.789063,689.796875C1039.760986,689.838196,1039.731079,689.87738,1039.703125,689.917969L1039.601563,689.992188C1039.160889,690.233765,1038.694214,690.424744,1038.210938,690.5625C1038.141724,690.588074,1038.072998,690.614563,1038.003906,690.640625C1037.932617,690.657349,1037.868164,690.698486,1037.832031,690.761719C1037.848022,690.792053,1037.87085,690.816345,1037.898438,690.835938C1038.205078,690.958618,1038.529785,691.029846,1038.859375,691.050781C1039.62146,691.109741,1040.384521,691.152832,1041.148438,691.179688C1041.468994,691.191162,1041.787598,691.238159,1042.097656,691.320313L1042.222656,691.363281L1042.285156,691.414063L1042.289063,691.480469L1042.246094,691.582031C1042.141846,691.747131,1042.021973,691.9021,1041.878906,692.035156C1041.454834,692.434998,1041.02124,692.824585,1040.578125,693.203125C1040.467041,693.308228,1040.362305,693.419617,1040.257813,693.53125C1040.195679,693.607666,1040.135254,693.685364,1040.078125,693.765625L1040.054688,693.832031C1040.071533,693.875122,1040.092041,693.916199,1040.113281,693.957031C1040.168579,694.009827,1040.223389,694.06311,1040.277344,694.117188C1040.640503,694.436096,1041.090576,694.640808,1041.570313,694.699219C1042.040039,694.723145,1042.508911,694.631897,1042.933594,694.429688L1043.210938,694.308594C1043.800049,694.019531,1044.370117,693.693298,1044.917969,693.332031C1045.570801,692.898865,1046.262573,692.527344,1046.984375,692.222656C1047.21106,692.151978,1047.43396,692.069702,1047.652344,691.976563C1047.813965,691.901306,1047.966064,691.807739,1048.113281,691.707031C1049.095093,691.045288,1049.954224,690.217957,1050.652344,689.261719C1051.099976,688.484619,1051.619995,687.751648,1052.203125,687.070313C1052.59021,686.621399,1052.943726,686.144775,1053.261719,685.644531C1053.266846,685.622803,1053.277344,685.604248,1053.28125,685.582031L1053.269531,685.542969C1052.578003,684.394531,1051.850952,683.2677,1051.089844,682.164063C1050.039307,680.640686,1049.015625,679.098511,1048.019531,677.539063C1047.681763,677.025696,1047.400757,676.477112,1047.183594,675.902344C1047.151367,675.791138,1047.117798,675.680481,1047.097656,675.566406L1047.078125,675.414063C1047.05835,675.079529,1047.144653,674.746643,1047.332031,674.46875C1047.705811,673.964844,1048.071411,673.472351,1048.445313,672.96875C1048.54187,672.819702,1048.62561,672.662598,1048.6875,672.496094C1048.709106,672.405762,1048.730103,672.315369,1048.738281,672.222656L1048.726563,672.09375L1048.695313,671.96875C1048.657471,671.879578,1048.61145,671.794373,1048.5625,671.710938C1048.408813,671.494507,1048.230591,671.296448,1048.03125,671.121094L1047.277344,670.410156C1047.28894,668.909851,1047.324219,667.409302,1047.382813,665.910156C1047.397461,665.197449,1047.457764,664.486389,1047.5625,663.78125L1047.582031,663.699219C1047.615845,663.618958,1047.64209,663.536133,1047.667969,663.453125C1047.847656,662.480896,1047.967163,661.498535,1048.027344,660.511719C1048.071655,659.442383,1048.334106,658.392822,1048.800781,657.429688C1049.631348,655.716125,1050.543457,654.043579,1051.535156,652.417969C1052.128052,651.447449,1052.830078,650.547852,1053.628906,649.738281C1054.324829,649.041138,1055.178833,648.5224,1056.117188,648.222656C1056.325684,648.148499,1056.525635,648.052368,1056.714844,647.9375C1056.762695,647.898071,1056.796265,647.847046,1056.824219,647.792969C1056.821167,647.759521,1056.812988,647.727356,1056.804688,647.695313C1056.742676,647.603821,1056.671631,647.519409,1056.597656,647.4375C1056.410645,647.262878,1056.195068,647.121155,1055.957031,647.027344L1055.695313,646.933594C1054.946045,646.73291,1054.15918,646.717102,1053.402344,646.886719C1052.624023,647.051758,1051.873901,647.330078,1051.179688,647.71875C1051.116211,647.748352,1051.052368,647.776306,1050.988281,647.804688C1050.934204,647.823975,1050.879028,647.839355,1050.824219,647.855469C1050.806152,647.851685,1050.7948,647.840698,1050.78125,647.832031L1050.777344,647.808594C1050.793823,647.759583,1050.814453,647.712402,1050.832031,647.664063C1050.88623,647.554199,1050.945923,647.447144,1051.011719,647.34375C1051.088867,647.227966,1051.18103,647.123779,1051.277344,647.023438C1051.380615,646.916077,1051.497559,646.824219,1051.613281,646.730469C1051.963623,646.483643,1052.341187,646.278381,1052.738281,646.117188C1053.927002,645.670837,1055.187256,645.445923,1056.457031,645.453125C1057.844604,645.438538,1059.222778,645.685669,1060.519531,646.179688C1062.041016,646.663452,1063.564575,647.134521,1065.09375,647.59375C1065.88623,647.044006,1066.693604,646.516113,1067.515625,646.011719C1069.026123,645.176819,1070.684448,644.643616,1072.398438,644.441406C1074.617798,644.178284,1076.866089,644.302246,1079.042969,644.808594L1081.125,645.277344C1081.356323,645.922607,1081.613159,646.558472,1081.894531,647.183594C1082.201904,647.849304,1082.577271,648.481628,1083.019531,649.066406C1083.127686,649.205078,1083.21521,649.358948,1083.277344,649.523438C1083.399292,649.847351,1083.445313,650.195618,1083.402344,650.539063C1083.382813,651.025269,1083.296265,651.506409,1083.144531,651.96875L1083.074219,652.113281L1082.988281,652.234375L1082.890625,652.339844L1082.773438,652.425781C1082.676758,652.467041,1082.579834,652.507263,1082.484375,652.550781C1082.359009,652.580261,1082.23291,652.606445,1082.105469,652.625C1081.45874,652.703796,1080.803833,652.681824,1080.164063,652.558594L1079.957031,652.480469C1079.525635,652.25946,1079.180908,651.900208,1078.984375,651.457031L1078.90625,651.175781C1078.810791,650.467773,1078.772583,649.753296,1078.789063,649.039063C1078.799438,648.075012,1078.739136,647.111572,1078.609375,646.15625C1078.579468,646.03009,1078.538818,645.90686,1078.484375,645.789063C1078.414429,645.66687,1078.338379,645.548218,1078.238281,645.449219C1078.067261,645.290405,1077.879028,645.150635,1077.667969,645.050781C1076.923218,644.73822,1076.119751,644.591248,1075.3125,644.617188C1073.428223,644.63269,1071.581665,645.141785,1069.953125,646.089844C1069.564575,646.352661,1069.189087,646.634094,1068.828125,646.933594C1068.43396,647.224731,1068.025146,647.495667,1067.601563,647.742188C1066.628296,648.302124,1065.629761,648.816772,1064.609375,649.285156C1063.917358,649.604553,1063.240845,649.956665,1062.582031,650.339844L1061.957031,650.75C1062.289673,651.084961,1062.609253,651.432556,1062.914063,651.792969C1063.487305,652.533569,1063.918335,653.373718,1064.191406,654.269531C1064.355469,654.783447,1064.526733,655.318542,1064.691406,655.832031C1064.93396,656.463745,1065.258789,657.060669,1065.660156,657.605469C1065.751587,657.733459,1065.854126,657.853149,1065.964844,657.964844C1066.060181,658.05365,1066.157959,658.139893,1066.261719,658.21875L1066.402344,658.304688L1066.535156,658.355469C1067.003296,658.432861,1067.458862,658.572632,1067.890625,658.769531C1068.511353,658.992432,1069.103149,659.289246,1069.648438,659.660156C1069.790649,659.774658,1069.910522,659.912537,1070.019531,660.058594C1070.194092,660.319031,1070.312866,660.613098,1070.367188,660.921875C1070.518921,661.80011,1070.585327,662.690979,1070.566406,663.582031C1070.598145,665.290771,1070.570801,667.000244,1070.484375,668.707031C1070.390503,669.643372,1070.177612,670.564026,1069.847656,671.445313C1069.603394,672.089355,1069.439331,672.761108,1069.359375,673.445313C1069.355835,673.544434,1069.360352,673.643616,1069.371094,673.742188L1069.402344,673.839844L1069.453125,673.898438L1069.515625,673.917969L1069.597656,673.902344C1069.674194,673.857056,1069.741211,673.799561,1069.808594,673.742188L1069.941406,673.597656L1070.09375,673.4375L1070.257813,673.320313L1070.429688,673.242188L1070.59375,673.203125L1070.746094,673.203125L1070.878906,673.25C1070.958862,673.303955,1071.025635,673.376282,1071.054688,673.46875L1071.089844,673.539063L1071.140625,673.59375C1071.183716,673.614136,1071.228638,673.62915,1071.273438,673.644531L1071.4375,673.625L1071.621094,673.550781L1071.804688,673.429688L1071.980469,673.261719L1072.125,673.0625C1072.280273,672.623291,1072.526978,672.220764,1072.851563,671.886719C1073.093994,671.654846,1073.325073,671.411316,1073.542969,671.15625L1073.675781,670.960938C1073.750488,670.821472,1073.80188,670.671814,1073.84375,670.519531L1073.890625,670.253906C1073.911377,669.777405,1073.934937,669.300415,1073.960938,668.824219C1074.212158,666.470398,1074.745728,664.155701,1075.550781,661.929688C1076.043213,660.867493,1076.6427,659.858582,1077.339844,658.917969C1078.37439,657.441833,1079.541382,656.06311,1080.828125,654.800781L1082.210938,653.480469C1081.562378,654.290283,1080.930786,655.113159,1080.316406,655.949219C1079.593628,656.909912,1078.974487,657.944458,1078.46875,659.035156C1078.772217,659.589417,1079.060181,660.152222,1079.332031,660.722656C1079.473022,660.998657,1079.583008,661.289001,1079.671875,661.585938L1079.710938,661.734375C1079.72583,661.836304,1079.742676,661.937805,1079.761719,662.039063C1079.818604,662.187317,1079.899658,662.324219,1079.992188,662.453125C1080.171143,662.621765,1080.345825,662.794922,1080.515625,662.972656C1080.623413,663.102844,1080.72168,663.240417,1080.8125,663.382813C1080.901855,663.540588,1080.983032,663.702881,1081.050781,663.871094C1081.247559,664.436157,1081.371094,665.024292,1081.414063,665.621094C1081.507935,666.800964,1081.549805,667.984436,1081.539063,669.167969C1081.539795,670.247314,1081.614624,671.325256,1081.761719,672.394531C1081.814087,672.685242,1081.893311,672.970642,1082,673.246094C1082.26416,674.24585,1082.494873,675.254333,1082.691406,676.269531C1082.922241,677.238525,1083.204346,678.194641,1083.539063,679.132813C1083.844238,680.311218,1083.990723,681.525024,1083.976563,682.742188C1084.004761,684.545654,1083.761597,686.343445,1083.253906,688.074219C1083.079468,688.788208,1082.901367,689.499023,1082.71875,690.210938C1082.685791,690.287964,1082.657104,690.366089,1082.613281,690.4375C1082.575439,690.494934,1082.533325,690.5495,1082.480469,690.59375C1082.427124,690.622559,1082.373535,690.650818,1082.320313,690.679688C1082.252563,690.682617,1082.184937,690.683594,1082.117188,690.683594C1081.862061,690.625122,1081.624268,690.506409,1081.425781,690.335938C1080.652588,689.703064,1079.936157,689.004089,1079.285156,688.246094C1078.069946,686.875427,1076.875488,685.485535,1075.703125,684.078125C1074.678223,682.884277,1073.609863,681.728577,1072.5,680.613281L1070.765625,678.914063C1069.944214,679.087952,1069.116943,679.232788,1068.285156,679.347656C1067.188477,679.48053,1066.085083,679.551941,1064.980469,679.5625C1064.792847,679.580811,1064.606201,679.608337,1064.421875,679.648438L1064.207031,679.726563L1064.023438,679.832031C1063.672729,680.109131,1063.391113,680.463379,1063.191406,680.863281C1062.660278,681.845215,1062.309204,682.914185,1062.152344,684.019531C1061.996948,684.875061,1061.708252,685.700867,1061.292969,686.464844C1060.723755,687.575806,1059.97583,688.585693,1059.078125,689.453125C1058.631714,689.898376,1058.137939,690.293701,1057.601563,690.625C1057.574341,690.633545,1057.547241,690.641357,1057.519531,690.648438L1057.394531,690.621094L1057.238281,690.546875C1056.531494,690.052002,1055.899658,689.458679,1055.355469,688.789063C1054.892822,688.273132,1054.488159,687.707703,1054.152344,687.101563L1053.484375,685.78125C1052.96521,686.915039,1052.345581,688.000183,1051.632813,689.023438C1050.650879,690.525208,1049.581299,691.967834,1048.429688,693.34375C1048.335205,693.447327,1048.240845,693.550842,1048.148438,693.65625C1047.77417,694.024475,1047.369751,694.360474,1046.941406,694.664063C1046.31665,695.173157,1045.633667,695.606201,1044.90625,695.953125C1044.070923,696.28656,1043.192383,696.498718,1042.296875,696.582031C1040.844116,696.77301,1039.379272,696.85791,1037.914063,696.835938C1036.789673,696.746033,1035.658203,696.799133,1034.546875,696.992188C1033.10791,697.257813,1031.661011,697.52832,1030.222656,697.800781C1029.313965,697.940552,1028.421021,698.169556,1027.558594,698.488281C1025.857178,699.064087,1024.199097,699.760803,1022.597656,700.574219C1021.125549,701.411743,1019.627502,702.202393,1018.105469,702.945313C1014.852295,704.543762,1011.61322,706.159485,1008.378906,707.796875C1007.113464,708.486816,1005.812134,709.108826,1004.480469,709.660156C1003.430664,710.189026,1002.426331,710.803528,1001.476563,711.496094C1000.692322,712.070496,999.8703,712.591492,999.015625,713.054688C998.844238,713.154663,998.662476,713.235168,998.476563,713.304688C997.088806,713.742004,995.651978,714.004028,994.199219,714.085938C992.197266,714.25708,990.181274,714.154602,988.207031,713.78125C987.036804,713.548462,985.891296,713.2052,984.785156,712.757813C983.55719,712.210938,982.409729,711.498718,981.375,710.640625C980.546387,709.959839,979.731262,709.263123,978.929688,708.550781C978.375122,708.067505,977.794189,707.615173,977.1875,707.199219C976.824951,706.983948,976.494141,706.718567,976.210938,706.40625C974.9776,705.125122,973.941956,703.667603,973.136719,702.082031C972.102722,700.346802,971.002808,698.651611,969.839844,697C969.000916,695.799255,968.259338,694.533264,967.621094,693.214844C966.995361,691.933228,966.635803,690.537781,966.566406,689.113281C966.543823,688.554626,966.604431,687.995972,966.738281,687.453125C966.80011,687.156494,966.936035,686.879761,967.140625,686.65625L967.242188,686.59375L967.34375,686.570313L967.453125,686.589844L967.609375,686.648438L967.71875,686.675781C967.739624,686.669983,967.760925,686.666016,967.78125,686.65625C967.78717,686.565247,967.778259,686.47467,967.753906,686.386719L967.714844,686.261719C967.50824,685.695557,967.30426,685.136719,967.097656,684.570313C967.009094,684.299988,966.932861,684.025818,966.863281,683.75C966.766541,683.441223,966.743591,683.112976,966.8125,682.796875L966.863281,682.773438C966.911499,682.793091,966.957214,682.817932,967,682.847656L967.070313,682.902344C967.441345,683.228638,967.805664,683.562256,968.164063,683.902344C967.960693,683.120789,967.682251,682.360535,967.332031,681.632813C967.286682,681.499695,967.239807,681.367249,967.207031,681.230469C966.949829,680.046936,967.014893,678.816711,967.386719,677.664063L967.433594,677.433594C967.446106,677.315125,967.441711,677.196045,967.425781,677.078125L967.363281,676.925781C967.059814,676.472595,966.602173,676.144653,966.074219,676.007813C965.81958,675.95697,965.55896,675.954224,965.300781,675.980469C964.567505,676.098633,963.859619,676.340698,963.207031,676.695313C962.226196,677.230164,961.247192,677.772461,960.273438,678.320313C960.099976,678.424622,959.918823,678.515991,959.730469,678.589844L959.675781,678.609375L959.626953,678.611328C959.912476,677.743896,960.219421,676.883667,960.546875,676.03125C960.684387,675.666321,960.788696,675.289795,960.859375,674.90625C960.861572,674.885132,960.854797,674.867126,960.851563,674.847656C960.719849,674.863708,960.592773,674.901001,960.472656,674.957031C959.784607,675.333496,959.109741,675.733276,958.449219,676.15625C958.403015,676.186218,958.3526,676.206299,958.300781,676.222656L958.285156,676.207031C958.282959,676.166687,958.283081,676.126282,958.285156,676.085938C958.448303,675.55835,958.667725,675.049927,958.941406,674.570313C959.074585,674.328796,959.178345,674.07196,959.246094,673.804688L959.265625,673.691406L959.265625,673.476563L959.21875,673.257813L959.175781,673.136719C959.029175,672.821106,958.887268,672.503357,958.75,672.183594L958.699219,671.996094L958.6875,671.835938L958.722656,671.695313C958.822083,671.505859,958.959839,671.340637,959.113281,671.191406L959.683594,670.585938C959.206116,670.337158,958.750061,670.098389,958.273438,669.847656C958.761597,669.627258,959.266479,669.398132,959.753906,669.175781C958.9245,668.710693,958.111023,668.21759,957.316406,667.695313L957.226563,667.625L957.175781,667.570313L957.160156,667.53125L957.179688,667.507813C957.264954,667.49408,957.351135,667.486389,957.4375,667.496094C957.863464,667.567383,958.294739,667.602844,958.726563,667.601563L958.847656,667.582031C958.903015,667.564819,958.956604,667.542786,959.007813,667.515625C959.029968,667.478699,959.051392,667.441284,959.0625,667.398438L959.050781,667.320313C958.940369,667.098694,958.789673,666.899902,958.605469,666.734375C958.318481,666.500183,958.067993,666.224121,957.859375,665.917969C957.841187,665.867004,957.817444,665.818848,957.804688,665.765625L957.8125,665.71875L957.84375,665.6875C957.88916,665.679871,957.934814,665.679626,957.980469,665.679688L958.082031,665.707031C958.436462,665.847534,958.775024,666.025146,959.09375,666.234375C959.202332,666.294434,959.311829,666.352905,959.421875,666.410156C959.500366,666.452332,959.5802,666.491943,959.660156,666.53125L959.738281,666.5625L959.787109,666.556641C959.646912,666.233582,959.485352,665.920044,959.292969,665.625C958.782227,664.7948,958.280701,663.958801,957.789063,663.117188C957.692932,662.953186,957.624573,662.775635,957.570313,662.59375L957.570313,662.496094L957.609375,662.429688L957.683594,662.398438L957.796875,662.394531C958.222412,662.492126,958.638733,662.626587,959.039063,662.800781L959.125,662.820313C959.166748,662.820984,959.207825,662.825989,959.25,662.820313C959.281982,662.808411,959.309692,662.786255,959.320313,662.753906L959.335938,662.6875C959.34082,662.517456,959.306763,662.349487,959.253906,662.1875C958.999268,661.391724,958.720337,660.521851,958.464844,659.726563C958.420105,659.591858,958.381042,659.455261,958.351563,659.316406C958.335327,659.245178,958.321228,659.173523,958.308594,659.101563L958.332031,659.0625L958.402344,659.058594C958.549438,659.088623,958.690369,659.140198,958.828125,659.199219C959.052429,659.302856,959.270691,659.419006,959.484375,659.542969L960.664063,660.230469C960.20459,658.679199,959.717468,657.13562,959.203125,655.601563C959.103271,655.312683,959.040833,655.012207,959.023438,654.707031L959.050781,654.679688C959.074097,654.6922,959.095886,654.707153,959.117188,654.722656C959.610046,655.239807,960.062378,655.794067,960.472656,656.378906C961.032288,657.184021,961.634644,657.95874,962.277344,658.699219C962.313477,658.734741,962.349487,658.770264,962.386719,658.804688C962.404785,658.811279,962.41748,658.823425,962.4375,658.828125C962.436035,658.76416,962.421814,658.702759,962.410156,658.640625C962.149719,657.857788,961.856262,657.086426,961.53125,656.328125C961.120361,655.262024,960.873596,654.139954,960.796875,653L960.675781,651.097656L961.5625,652.949219C962.08728,654.014038,962.777405,654.989136,963.609375,655.835938C963.867126,656.11908,964.180481,656.346497,964.53125,656.5C964.593445,656.508911,964.656372,656.511169,964.71875,656.5C964.757568,656.447144,964.788879,656.389282,964.8125,656.328125L964.851563,656.191406C964.906677,655.930908,964.928894,655.664795,964.929688,655.398438L964.9375,654.273438C965.433411,654.842285,965.949646,655.39325,966.484375,655.925781C966.515015,655.947021,966.543457,655.970947,966.574219,655.992188L966.585938,655.964844L966.597656,655.894531C966.608704,655.507629,966.599854,655.1203,966.570313,654.734375L966.496094,653.480469C966.894226,654.177002,967.303772,654.896484,967.699219,655.59375C967.775391,654.659729,967.79541,654.413391,967.871094,653.480469C968.205688,654.078674,968.56543,654.662598,968.949219,655.230469L969.011719,655.300781L969.0625,655.324219L969.089844,655.292969C969.102112,654.925781,969.065918,654.559082,968.992188,654.199219C968.552734,651.343384,968.055176,648.49585,967.5,645.660156C967.329712,644.742554,967.03363,643.852783,966.621094,643.015625C966.226868,642.298401,965.812927,641.592346,965.378906,640.898438C965.450073,639.56543,965.539856,638.232788,965.648438,636.902344C965.693542,636.132202,965.843201,635.371643,966.089844,634.640625C966.309937,634.081909,966.579285,633.543823,966.898438,633.035156C967.028625,632.83197,967.185425,632.646973,967.367188,632.488281C967.805237,632.142212,968.285828,631.853577,968.796875,631.628906C969.706421,631.160278,970.658875,630.780334,971.640625,630.492188C971.899292,630.422119,972.165771,630.386658,972.433594,630.375C972.78418,630.34436,973.137024,630.383423,973.476563,630.476563C973.658875,630.525452,973.831726,630.60376,973.992188,630.703125C974.124146,630.800232,974.240601,630.915466,974.347656,631.039063C974.435303,631.170471,974.498657,631.316101,974.539063,631.46875C974.60675,631.954956,974.486328,632.447876,974.207031,632.851563L973.992188,633.164063L973.253906,634.132813C973.264038,635.914246,973.282349,637.703674,973.308594,639.484375C973.332703,641.861938,973.533936,644.234314,973.910156,646.582031C974.089783,647.657104,974.344543,648.71814,974.671875,649.757813C975.040649,650.757874,975.678833,651.636658,976.515625,652.296875C977.36969,652.976318,978.292725,653.564026,979.269531,654.050781C980.250916,654.575928,981.261597,655.044373,982.296875,655.453125C982.417725,655.509521,982.546997,655.547241,982.679688,655.558594L982.714844,655.554688L982.753906,655.511719L982.792969,655.441406C982.876221,655.163635,982.921875,654.875977,982.921875,654.585938C982.977295,653.765747,983.107544,652.952332,983.3125,652.15625C983.622253,651.050476,983.732666,649.897888,983.632813,648.753906C983.529846,648.018982,983.327209,647.301575,983.03125,646.621094C982.780579,645.997253,982.660828,645.327698,982.695313,644.65625C982.765015,644.000183,982.93573,643.358765,983.199219,642.753906C983.717224,641.545349,984.261597,640.348755,984.832031,639.164063C985.255249,638.288269,985.623413,637.38678,985.933594,636.464844C986.104736,635.772949,986.352539,635.10199,986.679688,634.46875C986.84259,633.962524,986.95105,633.440063,986.996094,632.910156C987.091187,631.902771,987.162842,630.893555,987.210938,629.882813C987.229126,629.312256,987.323608,628.746948,987.484375,628.199219C987.773682,627.534607,988.180054,626.927673,988.683594,626.40625C989.205933,625.830872,989.85553,625.385193,990.582031,625.109375C990.846985,625.003967,991.136658,624.97644,991.417969,625.023438C991.753723,625.145081,992.107849,625.210938,992.464844,625.199219L992.582031,625.183594L992.679688,625.152344C993.545593,624.788879,994.48645,624.639771,995.421875,624.722656C996.04303,624.875366,996.688477,624.904236,997.320313,624.804688C997.681091,624.685486,998.064209,624.649597,998.441406,624.695313C998.807617,624.740051,999.15448,624.89032,999.421875,625.144531C999.479126,625.228088,999.51239,625.32373,999.535156,625.421875C999.55426,625.564392,999.551147,625.708618,999.535156,625.851563L999.5,626.148438C999.405334,626.757019,999.229858,627.350525,998.972656,627.910156C998.432373,629.108032,997.691772,630.205017,996.785156,631.15625C995.385132,632.88269,994.121216,634.715149,993.003906,636.636719C992.109619,638.184326,991.560364,639.90741,991.398438,641.6875C991.187195,643.778198,991.104858,645.8797,991.152344,647.980469C991.248047,649.023376,991.445129,650.054382,991.742188,651.058594C992.460815,653.74939,993.605652,656.307617,995.132813,658.636719C995.87262,659.772644,996.838135,660.744263,997.96875,661.492188C998.262634,661.712036,998.606201,661.856995,998.96875,661.914063L999.101563,661.90625L999.207031,661.863281C999.417114,661.703064,999.595032,661.504822,999.742188,661.285156C1000.306274,660.518921,1000.775024,659.687012,1001.140625,658.808594L1001.207031,658.609375C1001.234192,658.480957,1001.269165,658.35437,1001.3125,658.230469C1001.743774,657.253235,1002.310364,656.341797,1002.992188,655.519531C1003.437866,654.948975,1003.834229,654.341492,1004.175781,653.703125C1004.206726,653.638733,1004.236511,653.57373,1004.273438,653.511719L1004.335938,653.433594L1004.414063,653.351563C1005.083923,652.778687,1005.822388,652.291443,1006.613281,651.902344C1007.177551,651.56781,1007.786255,651.314453,1008.421875,651.152344C1008.620544,651.119629,1008.822266,651.111938,1009.023438,651.121094C1009.386475,651.177856,1009.753723,651.203125,1010.121094,651.195313C1010.309326,651.171997,1010.492249,651.119385,1010.664063,651.039063L1010.820313,650.941406C1010.920471,650.851563,1011.028564,650.771545,1011.136719,650.691406C1011.346252,650.566833,1011.575684,650.482361,1011.8125,650.425781C1012.600098,650.296204,1013.397156,650.233154,1014.195313,650.238281C1014.830139,650.207092,1015.46344,650.170532,1016.097656,650.128906C1016.443542,650.150757,1016.786133,650.209778,1017.117188,650.3125L1017.253906,650.328125L1017.375,650.308594L1017.476563,650.25L1017.566406,650.140625C1017.678284,649.932251,1017.775146,649.715942,1017.839844,649.488281L1018.160156,648.523438L1020.039063,650.402344L1021.976563,649.285156C1022.462036,649.678467,1022.963928,650.050903,1023.480469,650.402344L1023.605469,650.464844L1023.707031,650.5L1023.785156,650.496094L1023.835938,650.457031L1023.859375,650.378906L1023.863281,650.257813C1023.756409,649.671692,1023.598145,649.096069,1023.386719,648.539063C1023.120239,647.753357,1022.803589,646.816833,1022.539063,646.03125C1023.413086,644.899841,1024.306152,643.784058,1025.21875,642.683594C1025.700073,642.068298,1026.267212,641.525146,1026.902344,641.070313C1027.23291,640.886841,1027.57019,640.715637,1027.914063,640.558594C1029.887329,639.480408,1031.806274,638.305786,1033.664063,637.039063C1034.317017,636.641602,1034.929565,636.181519,1035.492188,635.664063C1035.574585,635.573669,1035.644043,635.473206,1035.710938,635.371094C1035.758057,635.272644,1035.804077,635.173706,1035.839844,635.070313C1036.206909,633.195679,1036.614502,631.32959,1037.0625,629.472656C1037.3396,628.297119,1037.536987,627.104187,1037.65625,625.902344C1037.648071,625.420349,1037.682739,624.938293,1037.773438,624.464844C1037.842163,624.255249,1037.937622,624.05481,1038.070313,623.878906C1038.959717,622.776794,1039.971313,621.779785,1041.085938,620.90625C1042.279907,620.031799,1043.693115,619.504944,1045.167969,619.382813C1045.907959,619.291931,1046.652954,619.247742,1047.398438,619.25z"/>
    <path transform="matrix(-1,0,0,-1,0,0)" style="stroke:#000000;stroke-width:0.05mm;fill:none" d="M958.539063,679.285156C958.53241,679.311523,958.525574,679.33783,958.515625,679.363281C958.442139,679.480103,958.358582,679.589966,958.269531,679.695313C958.074402,679.931519,957.853271,680.145508,957.601563,680.320313C957.583679,680.321716,957.56604,680.324707,957.546875,680.320313C957.554443,680.29248,957.563171,680.265015,957.574219,680.238281C957.645935,680.121338,957.728027,680.011169,957.816406,679.90625C958.007935,679.666565,958.23291,679.455261,958.488281,679.285156L958.523438,679.273438L958.539063,679.285156z"/>
    <path transform="matrix(-1,0,0,-1,0,0)" style="stroke:#000000;stroke-width:0.05mm;fill:none" d="M958.550781,677.035156L958.566406,677.082031C958.509888,677.17749,958.437378,677.262451,958.347656,677.328125C957.739136,677.813232,957.077637,678.227905,956.375,678.5625L956.330078,678.548828C956.34845,678.512085,956.374084,678.480957,956.394531,678.445313C956.91687,677.819946,957.585449,677.333374,958.34375,677.035156L958.4375,677.011719L958.507813,677.011719L958.550781,677.035156z"/>
    <path transform="matrix(-1,0,0,-1,0,0)" style="stroke:#000000;stroke-width:0.05mm;fill:none" d="M957.910156,675.613281C957.039001,675.861328,956.195374,676.197815,955.394531,676.621094C955.304077,676.660522,955.212769,676.697937,955.121094,676.734375C955.059692,676.749939,954.999939,676.77002,954.9375,676.78125C954.91449,676.778809,954.891846,676.774109,954.871094,676.761719L954.890625,676.695313C954.939758,676.641724,954.985535,676.585205,955.035156,676.53125L955.15625,676.441406L955.296875,676.34375C955.814453,676.018066,956.380432,675.777344,956.972656,675.625L957.121094,675.597656C957.384216,675.588196,957.647705,675.592041,957.910156,675.613281z"/>
    <path transform="matrix(-1,0,0,-1,0,0)" style="stroke:#000000;stroke-width:0.05mm;fill:none" d="M956.644531,673.488281L956.769531,673.496094C956.795654,673.507202,956.822876,673.514709,956.847656,673.53125L956.839844,673.546875C956.821411,673.564514,956.799866,673.57666,956.78125,673.59375C956.032227,673.912476,955.260864,674.175476,954.472656,674.378906C954.438721,674.378113,954.404846,674.378601,954.371094,674.371094L954.371094,674.347656C954.401001,674.313293,954.435974,674.285034,954.46875,674.253906C955.016113,673.865967,955.644043,673.608643,956.304688,673.492188C956.417725,673.479736,956.531555,673.474915,956.644531,673.488281z"/>
    <path transform="matrix(-1,0,0,-1,0,0)" style="stroke:#000000;stroke-width:0.05mm;fill:none" d="M955.585938,671.347656C955.806641,671.347412,956.026428,671.375,956.242188,671.421875C956.401917,671.453247,956.55603,671.50592,956.707031,671.566406L956.859375,671.664063C956.893677,671.697876,956.927063,671.732544,956.953125,671.773438L956.976563,671.832031C956.979248,671.881836,956.975403,671.931274,956.96875,671.980469L956.925781,672.046875C956.883118,672.068604,956.837769,672.084167,956.789063,672.085938C956.201355,672.010376,955.61554,671.923096,955.03125,671.824219C954.931641,671.795044,954.832397,671.764587,954.734375,671.730469L954.625,671.679688C954.577332,671.650269,954.533936,671.615173,954.492188,671.578125L954.46875,671.53125L954.472656,671.484375L954.511719,671.445313L954.578125,671.410156C954.77887,671.360291,954.984375,671.332275,955.191406,671.335938L955.585938,671.347656z"/>
    <path transform="matrix(-1,0,0,-1,0,0)" style="stroke:#000000;stroke-width:0.05mm;fill:none" d="M956.058594,670.171875C956.336609,670.214111,956.612122,670.271545,956.882813,670.347656C957.025574,670.390015,957.16571,670.441284,957.296875,670.511719L957.371094,670.5625L957.425781,670.621094L957.464844,670.667969C957.473633,670.691101,957.482483,670.71405,957.488281,670.738281L957.476563,670.761719C957.427795,670.772461,957.378113,670.777771,957.328125,670.773438C956.89563,670.682739,956.471558,670.555786,956.058594,670.398438L955,670.027344L956.058594,670.171875z"/>
    <path transform="matrix(-1,0,0,-1,0,0)" style="stroke:#000000;stroke-width:0.05mm;fill:none" d="M955.839844,667.414063C955.907959,667.439697,955.977966,667.459656,956.046875,667.484375L956.070313,667.507813L956.066406,667.53125C956.037231,667.544922,956.007019,667.556213,955.976563,667.566406C955.914368,667.57843,955.851868,667.578125,955.789063,667.585938L955.664063,667.589844C955.559509,667.588501,955.455261,667.579956,955.351563,667.566406C955.321106,667.556091,955.290894,667.545227,955.261719,667.53125C955.26355,667.511475,955.274231,667.499634,955.28125,667.484375L955.332031,667.457031C955.492859,667.393188,955.669067,667.384644,955.839844,667.414063z"/>
    <path transform="matrix(-1,0,0,-1,0,0)" style="stroke:#000000;stroke-width:0.05mm;fill:none" d="M954.28125,664.882813C954.371094,664.906982,954.437622,664.925049,954.527344,664.949219C955.448303,665.216675,956.332886,665.595886,957.164063,666.074219C957.196777,666.102539,957.222229,666.136108,957.25,666.167969L957.230469,666.246094L957.167969,666.28125L957.117188,666.285156C957.06665,666.275024,957.015442,666.269897,956.964844,666.257813C956.017578,665.90448,955.105408,665.463867,954.242188,664.9375C954.22998,664.918945,954.222656,664.898499,954.21875,664.876953C954.24585,664.879517,954.25415,664.880371,954.28125,664.882813z"/>
    <path transform="matrix(-1,0,0,-1,0,0)" style="stroke:#000000;stroke-width:0.05mm;fill:none" d="M1077.453125,663.445313C1077.317749,663.473633,1077.185181,663.51416,1077.058594,663.570313C1076.849854,663.686462,1076.668945,663.844482,1076.515625,664.027344C1076.464478,664.113037,1076.410156,664.196777,1076.351563,664.277344L1076.328125,664.339844L1076.324219,664.398438C1076.33667,664.427856,1076.347168,664.457886,1076.367188,664.484375C1076.428345,664.513489,1076.492676,664.53302,1076.558594,664.546875L1076.65625,664.554688C1076.986084,664.507751,1077.320313,664.496643,1077.652344,664.523438C1077.726563,664.542786,1077.800293,664.564209,1077.871094,664.59375L1077.949219,664.640625C1078.001831,664.703003,1078.050659,664.767944,1078.105469,664.828125L1078.214844,664.917969C1078.29126,664.947937,1078.371216,664.966614,1078.453125,664.972656L1078.570313,664.9375C1078.651733,664.888367,1078.719604,664.820557,1078.773438,664.742188L1078.847656,664.585938L1078.898438,664.40625C1078.908325,664.184753,1078.835083,663.969727,1078.691406,663.800781C1078.60376,663.72168,1078.51123,663.647949,1078.40625,663.59375L1078.234375,663.515625C1078.110229,663.47876,1077.984375,663.447266,1077.855469,663.433594C1077.721191,663.426575,1077.586792,663.43042,1077.453125,663.445313z"/>
    <path transform="matrix(-1,0,0,-1,0,0)" style="stroke:#000000;stroke-width:0.05mm;fill:none" d="M954.324219,662.949219C955.142822,663.200012,955.915771,663.579407,956.617188,664.070313L956.695313,664.148438L956.722656,664.207031C956.715942,664.273926,956.706787,664.340332,956.691406,664.40625C956.669434,664.409668,956.649048,664.417236,956.625,664.414063C956.552917,664.387817,956.481445,664.360352,956.410156,664.332031C956.327942,664.289185,956.246887,664.244507,956.164063,664.203125C955.492676,663.864441,954.84613,663.478577,954.230469,663.046875C954.204956,663.019348,954.187073,662.987793,954.167969,662.957031L954.222656,662.9375L954.324219,662.949219z"/>
    <path transform="matrix(-1,0,0,-1,0,0)" style="stroke:#000000;stroke-width:0.05mm;fill:none" d="M1067.34375,662.644531C1067.212891,662.658081,1067.083496,662.682434,1066.957031,662.71875C1066.728271,662.787048,1066.532593,662.933289,1066.390625,663.125C1066.311157,663.272522,1066.271973,663.438416,1066.289063,663.605469L1066.339844,663.792969L1066.410156,663.945313C1066.457397,664.018921,1066.518677,664.081299,1066.585938,664.136719C1066.654907,664.162415,1066.726685,664.17981,1066.800781,664.175781L1066.921875,664.140625C1067.032349,664.061279,1067.141724,663.980835,1067.25,663.898438C1067.31897,663.864441,1067.388306,663.831238,1067.457031,663.796875C1067.842773,663.684082,1068.237793,663.607178,1068.636719,663.558594L1068.753906,663.523438L1068.8125,663.476563L1068.816406,663.414063L1068.769531,663.328125C1068.638672,663.184082,1068.503296,663.044067,1068.351563,662.921875C1068.22998,662.842285,1068.103394,662.770569,1067.964844,662.726563L1067.757813,662.671875C1067.621216,662.647278,1067.482422,662.642822,1067.34375,662.644531z"/>
    <path transform="matrix(-1,0,0,-1,0,0)" style="stroke:#000000;stroke-width:0.05mm;fill:none" d="M953.769531,661.375C954.50116,661.608215,955.195984,661.942749,955.835938,662.367188L955.902344,662.429688L955.925781,662.480469L955.910156,662.546875L955.851563,662.585938L955.753906,662.585938C955.551819,662.540161,955.357544,662.466797,955.171875,662.375C954.660461,662.154968,954.176147,661.876648,953.730469,661.542969C953.691223,661.502075,953.656128,661.45813,953.621094,661.414063L953.628906,661.378906L953.675781,661.363281L953.769531,661.375z"/>
    <path transform="matrix(-1,0,0,-1,0,0)" style="stroke:#000000;stroke-width:0.05mm;fill:none" d="M954.121094,658.578125L954.207031,658.617188C954.724365,658.894165,955.205261,659.234741,955.632813,659.636719C955.704712,659.705322,955.765503,659.783508,955.824219,659.863281L955.839844,659.910156L955.828125,659.941406L955.785156,659.953125C955.724121,659.937195,955.663208,659.920776,955.605469,659.894531C955.023743,659.555481,954.504272,659.1203,954.070313,658.605469L954.074219,658.574219L954.121094,658.578125z"/>
    <path transform="matrix(-1,0,0,-1,0,0)" style="stroke:#000000;stroke-width:0.05mm;fill:none" d="M955.75,657.613281C956.230774,657.919678,956.682373,658.269592,957.097656,658.660156C957.132446,658.707092,957.172668,658.749023,957.207031,658.796875C957.230042,658.84668,957.244019,658.899475,957.253906,658.953125L957.210938,659.027344L957.195313,659.03125L957.164063,659.019531C956.673218,658.699585,956.214661,658.332642,955.796875,657.921875L954.472656,656.730469L955.75,657.613281z"/>
    <path transform="matrix(-1,0,0,-1,0,0)" style="stroke:#000000;stroke-width:0.05mm;fill:none" d="M956.703125,655.21875C956.762451,655.264648,956.821594,655.310547,956.871094,655.367188C957.460144,656.092285,958.073975,656.797058,958.710938,657.480469C958.860962,657.6474,958.987854,657.834534,959.070313,658.042969C959.100525,658.120483,959.099731,658.203857,959.085938,658.285156C959.050415,658.31781,959.01001,658.341248,958.96875,658.363281L958.902344,658.363281L958.847656,658.339844L958.761719,658.273438C957.924683,657.400879,957.224792,656.40741,956.679688,655.328125C956.674683,655.289307,956.674438,655.251648,956.667969,655.214844L956.703125,655.21875z"/>
    <path transform="matrix(-1,0,0,-1,0,0)" style="stroke:#000000;stroke-width:0.05mm;fill:none" d="M963.738281,654.003906L963.792969,654.054688C963.896606,654.19635,963.984192,654.348877,964.058594,654.507813C964.203186,654.78656,964.29718,655.08844,964.347656,655.398438C964.349854,655.455811,964.349609,655.513123,964.351563,655.570313L964.332031,655.613281L964.296875,655.621094C964.262024,655.599609,964.228271,655.576355,964.199219,655.546875C964.155518,655.487061,964.114441,655.425476,964.074219,655.363281C963.847229,654.976563,963.695557,654.550049,963.636719,654.105469C963.64093,654.067017,963.648071,654.029114,963.660156,653.992188L963.695313,653.980469L963.738281,654.003906z"/>
    <path transform="matrix(-1,0,0,-1,0,0)" style="stroke:#000000;stroke-width:0.05mm;fill:none" d="M957.109375,651.515625C957.646729,652.135925,958.100708,652.823181,958.464844,653.558594L958.464844,653.589844C958.446228,653.588257,958.427856,653.585571,958.410156,653.578125C957.888855,653.101074,957.46936,652.523804,957.171875,651.882813C957.131042,651.790283,957.090027,651.697815,957.058594,651.601563L957.046875,651.542969L957.050781,651.507813L957.074219,651.496094L957.109375,651.515625z"/>
    <path transform="matrix(-1,0,0,-1,0,0)" style="stroke:#000000;stroke-width:0.05mm;fill:none" d="M955.738281,651.621094C956.259705,652.145386,956.663452,652.774475,956.917969,653.46875L956.90625,653.511719L956.871094,653.519531L956.8125,653.492188L956.742188,653.429688C956.678711,653.360168,956.616394,653.289856,956.554688,653.21875C956.187927,652.747803,955.891968,652.225891,955.679688,651.667969C955.683105,651.647827,955.68689,651.627686,955.699219,651.609375L955.738281,651.621094z"/>
    <path transform="matrix(-1,0,0,-1,0,0)" style="stroke:#000000;stroke-width:0.05mm;fill:none" d="M958.121094,650.300781C958.201111,650.371887,958.274963,650.449341,958.34375,650.53125C958.729797,650.992859,959.045776,651.508728,959.28125,652.0625C959.28772,652.105591,959.288879,652.148438,959.289063,652.191406L959.25,652.199219L959.195313,652.167969C959.096069,652.090576,959.011902,651.996216,958.9375,651.894531C958.573303,651.421143,958.27533,650.90033,958.058594,650.34375L958.0625,650.300781L958.082031,650.285156L958.121094,650.300781z"/>
</svg>
