<?xml version="1.0" encoding="UTF-8"?>
<svg xmlns="http://www.w3.org/2000/svg" width="238.363mm" height="166.046mm" viewBox="-497.734375 -744.592957 238.363281 166.045898">
    <path transform="matrix(-1,0,0,-1,0,0)" style="stroke:#000000;stroke-width:0.05mm;fill:none" d="M356.601563,578.566406C357.947021,578.607727,359.279541,578.842285,360.558594,579.261719C360.977997,579.432068,361.363525,579.676392,361.695313,579.984375C362.128632,580.457886,362.235352,581.146362,361.960938,581.726563C361.712372,582.184326,361.752533,582.747498,362.070313,583.160156C362.477325,583.799805,362.47995,584.617371,362.074219,585.257813C361.674683,585.964905,361.069855,586.534729,360.339844,586.890625C358.854614,587.710815,357.12027,587.957764,355.464844,587.585938C354.985992,587.434387,354.517548,587.251648,354.0625,587.039063C352.962646,588.068604,351.880371,589.116943,350.816406,590.183594C349.915741,591.088013,349.11084,592.082947,348.414063,593.152344C347.456909,594.738831,346.757843,596.467407,346.34375,598.273438C346.233307,599.022156,346.182617,599.778381,346.191406,600.535156C346.166016,603.284546,346.207703,606.033813,346.316406,608.78125C346.398865,609.920837,346.701385,611.033997,347.207031,612.058594C348.459351,614.623352,350.082214,616.989685,352.023438,619.082031C352.334198,619.391479,352.66275,619.682495,353.007813,619.953125C354.694305,621.487427,356.050323,623.349426,356.992188,625.425781C357.198792,625.997192,357.398132,626.56543,357.59375,627.140625L357.640625,627.238281C357.675171,627.301941,357.716919,627.361145,357.761719,627.417969C357.799164,627.431763,357.832764,627.454224,357.867188,627.476563C357.905518,627.48877,357.944916,627.485107,357.984375,627.480469C358.032501,627.462036,358.080994,627.444702,358.128906,627.425781C358.639435,627.069824,359.219757,626.826538,359.832031,626.714844L359.894531,626.726563L359.929688,626.777344C359.910156,626.955261,359.86087,627.128723,359.78125,627.289063C359.650543,627.627625,359.559692,627.980103,359.511719,628.339844L359.535156,628.519531C359.574677,628.559998,359.621124,628.592407,359.671875,628.617188L359.746094,628.605469L359.824219,628.601563C360.032898,628.497864,360.243896,628.398865,360.457031,628.304688C360.500488,628.298828,360.543793,628.292358,360.585938,628.28125L360.628906,628.300781C360.654816,628.329834,360.677338,628.361755,360.691406,628.398438L360.703125,628.464844C360.694,628.977112,360.654968,629.488403,360.585938,629.996094C360.57373,630.169556,360.605927,630.342957,360.671875,630.503906C360.718414,630.543457,360.765747,630.581726,360.824219,630.601563L361.0625,630.535156C361.295349,630.451416,361.483795,630.27655,361.59375,630.054688C361.971161,629.350159,362.181793,628.568359,362.207031,627.769531C362.217255,627.734375,362.227509,627.699036,362.238281,627.664063L362.265625,627.664063C362.366882,627.824341,362.441132,627.999939,362.488281,628.183594C363.09549,630.004089,363.394958,631.913086,363.375,633.832031C363.329926,634.410156,363.260986,634.986206,363.167969,635.558594C363.143677,635.742798,363.141571,635.929382,363.167969,636.113281L363.214844,636.175781C363.279449,636.152466,363.336212,636.111633,363.375,636.054688C363.776611,635.514648,364.00119,634.864075,364.023438,634.191406L364.046875,634.136719L364.082031,634.121094L364.121094,634.113281C364.317932,634.204712,364.454132,634.392395,364.464844,634.609375C364.660339,635.755249,364.756897,636.91571,364.753906,638.078125C364.842834,640.291748,364.481018,642.500427,363.691406,644.570313L363.601563,644.855469L363.628906,644.886719C363.656036,644.862976,363.682587,644.838684,363.710938,644.816406C364.015656,644.412903,364.311279,644.002686,364.597656,643.585938C364.718872,643.424988,364.859344,643.279541,365.015625,643.152344C365.071228,643.120056,365.135345,643.109009,365.199219,643.113281C365.252594,643.165588,365.291992,643.230652,365.304688,643.304688C365.278381,644.081177,365.502655,644.845886,365.945313,645.484375C366.326233,645.999634,366.855865,646.386597,367.464844,646.585938C367.510406,646.591858,367.555359,646.599731,367.601563,646.59375L367.617188,646.558594C367.52066,646.347168,367.485901,646.112122,367.523438,645.882813C367.527374,645.710876,367.553314,645.540039,367.601563,645.375L367.785156,644.535156C367.916351,644.836853,368.070831,645.127808,368.246094,645.40625C368.834717,646.218567,369.763306,646.716858,370.765625,646.757813C371.026825,646.772827,371.288818,646.749756,371.542969,646.6875L371.585938,646.648438L371.585938,646.59375C371.468109,646.442871,371.363617,646.282104,371.273438,646.113281C371.178375,645.863037,371.14032,645.595093,371.160156,645.328125C371.179413,645.289124,371.192871,645.247986,371.207031,645.207031C371.234344,645.193909,371.261627,645.180847,371.289063,645.167969C371.723083,645.393311,372.135071,645.658691,372.519531,645.960938C373.015106,646.336975,373.5849,646.60376,374.191406,646.742188C374.481781,646.796082,374.78186,646.769348,375.054688,646.65625C375.079041,646.603577,375.077637,646.545593,375.070313,646.488281C374.904114,646.122742,374.696136,645.777649,374.449219,645.460938C374.396057,645.369934,374.35788,645.271057,374.335938,645.167969C374.403442,645.158691,374.47226,645.164612,374.535156,645.191406C375.164673,645.45343,375.877747,645.424683,376.484375,645.113281C377.229126,644.799683,377.914856,644.361206,378.511719,643.816406C379.981812,642.606384,381.637054,641.640747,383.414063,640.957031C385.111908,640.261108,386.862152,639.700867,388.648438,639.28125C392.070374,638.463379,395.540924,637.864563,399.039063,637.488281L399.113281,637.464844C399.138397,637.43811,399.152496,637.404053,399.152344,637.367188C399.13028,637.318542,399.101837,637.273438,399.070313,637.230469C398.536774,636.761902,397.892792,636.437317,397.199219,636.285156L396.902344,636.152344L396.894531,636.121094C396.948181,636.078125,397.014343,636.056885,397.082031,636.042969C397.876923,635.992371,398.669098,635.948242,399.464844,635.910156L402.503906,635.777344C401.893402,635.371216,401.264923,634.951416,400.65625,634.542969C402.344971,634.6297,404.035736,634.683167,405.726563,634.703125C406.050629,634.689453,406.373871,634.660583,406.695313,634.617188C406.78772,634.601379,406.876709,634.566895,406.945313,634.503906L406.984375,634.425781C406.972412,634.378967,406.955292,634.333862,406.9375,634.289063C406.891998,634.23645,406.849335,634.181396,406.808594,634.125C406.465973,633.867554,406.116852,633.618774,405.761719,633.378906C405.703766,633.331177,405.652557,633.276306,405.609375,633.214844L405.636719,633.152344L405.679688,633.097656C406.103241,632.898743,406.563507,632.790527,407.03125,632.777344C407.497986,632.7453,407.965759,632.730896,408.433594,632.734375C408.201538,632.21637,407.985229,631.691345,407.785156,631.160156C407.776093,631.101318,407.766052,631.042603,407.753906,630.984375L407.773438,630.949219L407.808594,630.921875C407.858154,630.9375,407.909576,630.943848,407.960938,630.953125C408.440735,631.189941,408.962219,631.331543,409.496094,631.367188C409.546204,631.355042,409.595398,631.339722,409.644531,631.324219C409.679321,631.308472,409.711365,631.287964,409.742188,631.265625C409.764618,631.220276,409.772797,631.170837,409.777344,631.121094C409.363861,630.10144,408.877045,629.113159,408.320313,628.164063C407.380341,626.407593,406.556854,624.591187,405.855469,622.726563C405.524902,621.815125,405.307098,620.866699,405.207031,619.902344C405.485687,620.173828,405.780151,620.42865,406.089844,620.664063C406.13327,620.687683,406.174347,620.714111,406.222656,620.726563L406.265625,620.710938L406.289063,620.679688C406.302429,620.442505,406.263641,620.205139,406.175781,619.984375C405.904327,619.176147,405.673615,618.354736,405.484375,617.523438C405.435333,617.31488,405.440063,617.096558,405.511719,616.894531L405.550781,616.847656C405.557617,616.807495,405.564362,616.767334,405.566406,616.726563C405.508606,616.263489,405.393158,615.809387,405.222656,615.375C404.618652,613.92334,404.13385,612.424988,403.773438,610.894531C403.702667,610.563232,403.642517,610.229736,403.59375,609.894531C403.333862,608.75885,402.998535,607.641785,402.589844,606.550781C402.462494,606.148438,402.391602,605.730469,402.378906,605.308594C402.389984,605.25293,402.398987,605.196899,402.40625,605.140625C402.414856,605.118103,402.426697,605.097229,402.441406,605.078125C402.464142,605.101013,402.487305,605.123474,402.511719,605.144531C402.706085,605.483826,402.892242,605.827698,403.070313,606.175781C403.12204,606.279724,403.199951,606.367065,403.289063,606.441406L403.3125,606.433594C403.344971,606.369202,403.359863,606.29657,403.34375,606.226563C403.166962,605.572449,403.028717,604.908569,402.929688,604.238281C402.871552,603.82251,402.892914,603.399109,402.996094,602.992188L403.039063,602.902344C403.072449,602.87854,403.108337,602.858887,403.144531,602.839844C403.22171,602.851013,403.293091,602.885925,403.351563,602.9375C403.431061,603.018188,403.49646,603.111511,403.542969,603.214844L403.574219,603.222656C403.661163,602.973328,403.693909,602.70813,403.667969,602.445313C403.679932,602.201477,403.721741,601.960022,403.792969,601.726563C403.826813,601.698425,403.852661,601.661987,403.878906,601.625C403.903931,601.625427,403.928558,601.629028,403.953125,601.632813C403.973999,601.610718,403.994965,601.588745,404.015625,601.566406C404.182404,601.135254,404.313324,600.691101,404.40625,600.238281C404.920776,597.934814,405.332581,595.609558,405.640625,593.269531C405.753418,592.647644,405.908508,592.034119,406.105469,591.433594C406.27005,591.072388,406.491516,590.73999,406.761719,590.449219C407.43103,589.668518,408.202454,588.981689,409.054688,588.40625C409.632172,588.049072,410.274689,587.809631,410.945313,587.703125C412.737305,587.380066,414.583405,587.546204,416.289063,588.183594C416.392151,588.184082,416.491302,588.15094,416.574219,588.089844L416.664063,587.976563C416.805206,587.704529,416.923584,587.421265,417.015625,587.128906C417.523224,586.223816,418.188538,585.416748,418.980469,584.746094C419.951447,583.883179,421.058929,583.187622,422.257813,582.6875C422.866699,582.473694,423.507019,582.363342,424.152344,582.359375C425.523621,582.307556,426.896729,582.329834,428.265625,582.425781C428.732971,582.467285,429.189545,582.588196,429.617188,582.78125C429.974396,582.991333,430.20929,583.358032,430.257813,583.769531C430.295013,584.095215,430.317139,584.422302,430.324219,584.75C430.364899,585.305786,430.509399,585.848877,430.75,586.351563C431.014221,587.115112,430.998352,587.947144,430.703125,588.699219L430.527344,589.03125C430.017059,589.614014,429.370209,590.061035,428.644531,590.332031C427.952759,590.626099,427.215332,590.797791,426.464844,590.839844C426.096344,590.856201,425.739838,590.976196,425.4375,591.1875C425.273376,591.330688,425.177979,591.536316,425.167969,591.753906C425.072784,592.531677,425.021973,593.314148,425.015625,594.097656C424.978668,596.743958,425.093384,599.39032,425.359375,602.023438C425.586395,603.770264,425.869141,605.509521,426.207031,607.238281C426.859467,610.939331,427.590179,614.626709,428.398438,618.296875C428.575439,618.980713,428.792023,619.653687,429.046875,620.3125C429.660339,621.627441,430.422882,622.867615,431.320313,624.007813C432.732117,625.906738,434.395935,627.604431,436.265625,629.054688C437.769196,630.300354,439.115082,631.725037,440.273438,633.296875C440.529907,633.612,440.835876,633.882874,441.175781,634.105469C441.230988,634.118408,441.287354,634.123657,441.34375,634.128906L441.414063,634.097656L441.476563,633.964844L441.515625,633.824219L441.535156,633.679688C441.529266,633.608215,441.527954,633.536499,441.53125,633.464844C441.542603,633.417786,441.559326,633.372559,441.578125,633.328125C441.618835,633.286987,441.667297,633.256104,441.722656,633.238281C441.784576,633.261902,441.843658,633.289978,441.90625,633.308594L442.023438,633.382813C442.235779,633.585205,442.428192,633.807373,442.597656,634.046875C442.961487,634.517395,443.281128,635.02063,443.550781,635.550781C444.035461,636.486938,444.50174,637.432251,444.949219,638.386719C445.097626,638.690002,445.304169,638.960693,445.550781,639.191406C445.632233,639.255249,445.738403,639.278564,445.839844,639.257813L445.9375,639.210938C446.057831,639.11853,446.160492,639.00531,446.238281,638.875L446.488281,638.632813C446.522614,638.621216,446.557953,638.614075,446.59375,638.609375C446.630737,638.617859,446.66745,638.627563,446.703125,638.640625C447.400452,639.210083,447.939972,639.948853,448.273438,640.785156C448.306854,641.037659,448.375397,641.284119,448.472656,641.519531C448.494049,641.541382,448.514313,641.563599,448.535156,641.585938C448.567749,641.588257,448.60022,641.591187,448.632813,641.59375C448.806824,641.528076,448.967377,641.431824,449.113281,641.316406C449.327362,641.17572,449.557922,641.062012,449.800781,640.980469L449.839844,640.984375C450.024872,641.41687,450.216156,641.84668,450.414063,642.273438C450.656586,642.69696,450.952789,643.087463,451.296875,643.433594L452.03125,644.144531L452.191406,643.34375C452.305878,642.81604,452.659271,642.373474,453.144531,642.136719C453.406921,641.973816,453.692261,641.851135,453.992188,641.777344L454.03125,641.796875L454.0625,641.824219L454.078125,641.871094C454.055389,642.130249,453.993256,642.384277,453.894531,642.625C453.683838,643.490845,453.716949,644.39856,453.992188,645.246094L454.046875,645.351563C454.088165,645.378723,454.13031,645.403076,454.167969,645.433594C454.211578,645.416809,454.249359,645.390747,454.289063,645.367188C454.476318,645.188538,454.646423,644.992859,454.800781,644.785156L455.472656,643.824219C455.549438,644.601501,455.66391,645.374634,455.816406,646.140625C455.903076,646.602173,456.067688,647.045471,456.300781,647.453125L456.433594,647.632813C456.486237,647.682434,456.543579,647.726379,456.601563,647.769531L456.6875,647.796875C456.739288,647.817993,456.79718,647.82135,456.847656,647.796875L456.921875,647.769531L457.007813,647.667969C457.048798,647.5979,457.081329,647.523743,457.113281,647.449219C457.118073,647.054382,457.194824,646.66333,457.351563,646.300781L457.40625,646.230469C457.465698,646.203613,457.527618,646.182251,457.59375,646.183594L457.777344,646.246094C457.959229,646.318298,458.128876,646.418945,458.273438,646.550781C459.297729,647.498535,460.194641,648.575012,460.941406,649.753906C461.52005,650.636353,462.032227,651.560608,462.472656,652.519531C462.653198,653.049805,462.874786,653.565308,463.132813,654.0625L463.367188,654.433594C463.454742,654.518738,463.55188,654.592957,463.65625,654.65625C463.715363,654.662659,463.774017,654.653137,463.832031,654.640625C464.025116,654.486572,464.143646,654.260376,464.175781,654.015625L464.34375,653.335938C464.611053,653.571899,464.868134,653.819214,465.113281,654.078125C465.590271,654.673828,465.895844,655.388489,466,656.144531C466.120728,656.8125,466.134186,657.495361,466.042969,658.167969C466.046082,658.270264,466.055725,658.372253,466.089844,658.46875L466.152344,658.609375L466.191406,658.640625C466.227295,658.635498,466.261017,658.630249,466.296875,658.625L466.351563,658.585938C466.486847,658.44342,466.600006,658.281433,466.6875,658.105469L466.765625,658.003906L466.855469,657.910156L466.910156,657.898438L466.96875,657.894531C467.242554,658.156433,467.401764,658.515808,467.414063,658.894531C467.504608,659.762207,467.3172,660.636292,466.878906,661.390625C466.83313,661.493347,466.796661,661.60022,466.777344,661.710938L466.792969,661.777344L466.847656,661.816406C467.208649,661.860352,467.573517,661.788025,467.894531,661.617188C468.579285,661.30426,469.133423,660.763916,469.46875,660.089844L469.695313,659.65625C469.936615,660.587524,469.979553,661.559082,469.820313,662.507813C469.734589,663.069458,469.590973,663.620728,469.390625,664.152344L469.375,664.257813L469.390625,664.335938C469.433685,664.378845,469.484955,664.410889,469.539063,664.4375C469.60733,664.455322,469.676392,664.469604,469.746094,664.480469C470.165283,664.530701,470.590149,664.456421,470.96875,664.269531C471.178436,664.170227,471.366669,664.029968,471.519531,663.855469C471.855591,663.508972,472.18634,663.157349,472.511719,662.800781C472.273651,663.935547,471.858368,665.025635,471.28125,666.03125C470.589478,667.289307,469.782898,668.480835,468.871094,669.589844C468.780823,669.725647,468.696136,669.865112,468.617188,670.007813L468.621094,670.042969C469.002686,669.914368,469.386322,669.787781,469.769531,669.664063L469.832031,669.65625C469.874207,669.663025,469.915283,669.674988,469.953125,669.695313C469.967316,669.751831,469.978943,669.809021,469.984375,669.867188L469.984375,669.953125C469.899933,670.312683,469.868286,670.682617,469.898438,671.050781L469.921875,671.136719C469.942505,671.175354,469.963867,671.213562,469.988281,671.25L470.03125,671.296875L470.078125,671.328125C470.118469,671.333557,470.158875,671.33844,470.199219,671.34375L470.335938,671.3125C470.688904,671.119995,470.988922,670.844238,471.214844,670.511719C471.532501,670.054382,471.802826,669.565979,472.023438,669.054688L472.078125,668.984375C472.092438,668.988098,472.106354,668.986755,472.121094,668.992188L472.144531,669.078125C472.199219,670.251404,472.055084,671.425415,471.71875,672.550781C471.365692,673.494873,470.967896,674.42157,470.527344,675.328125L470.359375,675.777344L470.425781,675.777344C470.831818,675.551636,471.224609,675.302795,471.601563,675.03125C471.690796,674.976501,471.790466,674.941284,471.894531,674.929688C471.901703,674.955383,471.905914,674.981567,471.910156,675.007813C471.745026,675.346741,471.539001,675.664124,471.296875,675.953125C470.764709,676.691345,470.318909,677.488159,469.96875,678.328125C469.522369,679.256714,469.222504,680.24884,469.082031,681.269531L469.070313,681.5C469.061462,681.598511,469.07135,681.696899,469.09375,681.792969L469.121094,681.855469L469.214844,681.902344C469.268433,681.901306,469.321625,681.906433,469.375,681.910156L469.46875,681.964844C469.57785,682.064575,469.656403,682.193359,469.695313,682.335938L469.730469,682.492188L469.726563,682.644531L469.679688,682.785156C469.200348,683.691711,468.833649,684.65332,468.585938,685.648438C468.485229,686.128357,468.477112,686.623291,468.566406,687.105469C468.757416,687.797485,469.222839,688.382874,469.859375,688.714844L470.054688,688.769531C470.262573,688.786133,470.471252,688.770691,470.675781,688.730469C471.183624,688.750488,471.691193,688.767456,472.199219,688.78125C472.325317,688.773254,472.451233,688.763977,472.574219,688.734375C473.011993,688.557739,473.49765,688.538086,473.949219,688.675781C474.319885,688.809875,474.697998,688.922974,475.082031,689.011719C475.385803,689.068909,475.698181,689.066589,476,689C479.260834,688.272766,482.558655,687.722534,485.878906,687.351563C486.681427,687.269714,487.48999,687.266724,488.292969,687.34375C489.195099,687.475159,490.050995,687.82666,490.785156,688.367188L490.886719,688.425781C491.319,688.605164,491.764404,688.750916,492.21875,688.863281C492.607147,688.959717,492.98587,689.091431,493.351563,689.253906L493.460938,689.316406L493.535156,689.375C493.965424,689.782654,494.42807,690.154663,494.917969,690.488281C495.402618,690.820068,495.816803,691.244324,496.140625,691.734375C496.601501,692.394104,497.00351,693.09314,497.339844,693.824219C497.454498,693.992737,497.556396,694.169617,497.648438,694.351563C497.714264,694.497681,497.748138,694.656677,497.734375,694.816406C497.723999,694.718201,497.709961,694.620544,497.671875,694.529297L497.667969,694.546875C497.664307,694.574219,497.658356,694.601135,497.65625,694.628906C497.653381,694.766235,497.639404,694.902954,497.621094,695.039063C497.342407,695.487,497.044159,695.922485,496.726563,696.34375C495.311432,697.772217,493.842896,699.146973,492.324219,700.464844C490.192932,702.084167,488.005371,703.628113,485.765625,705.09375C485.252075,705.467407,484.776367,705.890503,484.34375,706.355469C484.058441,706.684082,483.871368,707.086182,483.800781,707.515625C483.705109,708.132751,483.927765,708.756531,484.390625,709.175781C484.428223,709.18335,484.4664,709.191223,484.503906,709.199219L484.535156,709.214844C484.525757,709.258179,484.507019,709.298157,484.484375,709.335938C484.425598,709.418579,484.348755,709.485229,484.265625,709.542969C484.150818,709.634338,484.046753,709.738953,483.96875,709.863281C483.910583,709.99469,483.883667,710.137939,483.894531,710.28125C483.958344,710.567444,484.013855,710.855408,484.0625,711.144531L484.046875,711.214844L484.015625,711.230469C483.91394,711.189819,483.820679,711.131287,483.742188,711.054688L483.519531,710.910156L483.449219,710.910156L483.414063,710.9375L483.375,711.050781C483.341553,711.170227,483.325562,711.293945,483.328125,711.417969C483.361511,712.016663,483.323456,712.61731,483.214844,713.207031C483.079071,713.781982,482.828796,714.323608,482.480469,714.800781C482.001648,715.449341,481.510681,716.088623,481.007813,716.71875C480.802979,716.95105,480.66217,717.232971,480.59375,717.535156C480.597076,717.680359,480.630981,717.822815,480.695313,717.953125C480.841125,718.24292,481.071716,718.482605,481.363281,718.625C481.422791,718.649109,481.479553,718.679016,481.535156,718.710938C481.576263,718.742737,481.615356,718.776733,481.65625,718.808594L481.71875,718.910156C481.722778,718.946411,481.717468,718.980652,481.71875,719.015625C481.697754,719.064087,481.665283,719.104248,481.632813,719.144531C481.563812,719.178772,481.494019,719.211304,481.417969,719.226563L481.328125,719.238281L481.203125,719.234375C481.120087,719.231873,481.039063,719.248047,480.957031,719.261719C480.79892,719.283752,480.655609,719.370544,480.574219,719.507813L480.542969,719.585938C480.550568,719.643738,480.546906,719.702515,480.542969,719.761719L480.609375,719.957031C480.660309,720.083923,480.731384,720.201538,480.816406,720.308594C481.070526,720.567749,481.320404,720.830811,481.566406,721.097656L480.398438,721.097656C480.666534,721.571533,480.903809,722.062256,481.109375,722.566406L481.171875,722.777344C481.228699,722.981873,481.244904,723.19519,481.222656,723.40625C481.173523,723.612854,481.112732,723.816467,481.039063,724.015625L481.003906,724.1875L480.984375,724.359375C480.994324,724.464294,481.025421,724.565308,481.0625,724.664063C481.195587,724.848877,481.342346,725.023193,481.5,725.1875L481.609375,725.320313C481.890533,725.523987,482.169128,725.731079,482.445313,725.941406C482.651184,726.134155,482.839386,726.345154,483.003906,726.574219C483.12561,726.639343,483.26828,726.655579,483.398438,726.609375C483.793335,726.491394,484.170715,726.321045,484.519531,726.101563C485.124329,725.730469,485.753296,725.400024,486.402344,725.113281C486.632935,725.006042,486.886963,724.958313,487.140625,724.976563L487.253906,725.003906L487.351563,725.054688C487.453888,725.128052,487.522186,725.237793,487.554688,725.359375C487.315735,725.976135,486.965118,726.543213,486.527344,727.039063C485.438568,728.318115,484.242767,729.501953,482.953125,730.578125C482.502899,730.966858,482.044617,731.345825,481.578125,731.714844C481.049988,732.060547,480.463806,732.308228,479.847656,732.445313C479.201172,732.56073,478.5336,732.411499,478.003906,732.023438C477.847534,731.918762,477.694794,731.808594,477.550781,731.6875C476.827728,731.051086,476.115295,730.402405,475.414063,729.742188C475.244659,729.578491,475.055511,729.436951,474.855469,729.3125C474.827881,729.307617,474.802734,729.314331,474.777344,729.320313C474.774963,729.495911,474.822968,729.667908,474.910156,729.820313C474.952057,729.943359,474.985718,730.069275,474.992188,730.199219C474.97348,730.197998,474.956848,730.203125,474.9375,730.199219C474.480988,729.867981,474.061218,729.488831,473.6875,729.066406C473.454529,728.846313,473.206635,728.642578,472.945313,728.457031C472.902832,728.44574,472.859497,728.441162,472.816406,728.433594L472.785156,728.496094C472.82663,728.708008,472.857544,728.921814,472.878906,729.136719L472.847656,729.230469C472.821869,729.240295,472.795776,729.249329,472.769531,729.257813C472.723907,729.240906,472.678528,729.223511,472.632813,729.207031C472.107971,728.797668,471.613281,728.351257,471.152344,727.871094C471.107635,728.699585,471.206177,729.529785,471.445313,730.324219C471.7099,731.009338,471.949768,731.703857,472.164063,732.40625C472.38327,733.133545,472.53949,733.878479,472.628906,734.632813C472.687469,735.265686,472.62851,735.903625,472.457031,736.515625C472.211304,737.303467,471.704773,737.983582,471.023438,738.449219C470.848022,738.521729,470.65332,738.531128,470.472656,738.472656C469.85556,738.182617,469.354675,737.694214,469.039063,737.089844C468.685089,736.449585,468.370728,735.788086,468.097656,735.109375C468.031677,734.983398,467.957184,734.862122,467.875,734.746094C467.823303,734.671509,467.75528,734.611694,467.679688,734.5625L467.625,734.558594C467.579193,734.601807,467.534149,734.64563,467.480469,734.679688C467.446442,734.671814,467.415497,734.657959,467.382813,734.648438C467.113373,734.267944,466.918945,733.839661,466.808594,733.386719C466.71405,733.130493,466.594818,732.884216,466.457031,732.648438C466.441406,732.647339,466.427032,732.642395,466.410156,732.644531C466.405884,732.720337,466.388214,732.79364,466.371094,732.867188L466.320313,732.960938C466.295044,732.983215,466.263184,732.992737,466.230469,732.996094L466.183594,733C466.14859,732.981262,466.113251,732.963745,466.078125,732.945313C466.020447,732.88208,465.970367,732.812683,465.921875,732.742188C465.887512,732.679321,465.855743,732.615112,465.824219,732.550781C465.752258,732.31073,465.677826,732.070801,465.601563,731.832031C465.574585,731.815857,465.547638,731.799561,465.519531,731.785156C465.484039,731.804993,465.447449,731.822754,465.414063,731.847656C465.297058,732.024902,465.156616,732.185913,464.992188,732.320313C464.919678,732.324951,464.846863,732.32074,464.777344,732.296875L464.695313,732.265625C464.221375,731.894592,463.784729,731.478333,463.390625,731.023438C462.652313,730.278076,462.007355,729.445618,461.472656,728.542969C461.376007,728.32428,461.263062,728.113159,461.136719,727.910156C461.092834,727.880188,461.050476,727.848083,461.007813,727.816406C460.981293,727.819641,460.955536,727.825989,460.929688,727.832031C460.779968,727.979675,460.637451,728.13446,460.503906,728.296875C460.454132,728.320007,460.404266,728.341736,460.351563,728.359375L460.28125,728.316406L460.222656,728.257813C460.073853,727.931519,459.973145,727.585388,459.921875,727.230469L459.863281,727.023438C459.816406,726.852295,459.73526,726.69281,459.628906,726.550781L459.558594,726.492188C459.480499,726.439148,459.386505,726.416016,459.292969,726.429688L459.199219,726.449219L459.113281,726.503906C459.019836,726.60144,458.944031,726.713745,458.878906,726.832031L458.804688,727.019531C458.707336,727.456177,458.637177,727.898499,458.59375,728.34375C457.962402,727.670959,457.399994,726.936646,456.914063,726.152344C456.827728,725.945251,456.721191,725.747131,456.59375,725.5625L456.519531,725.472656C456.464783,725.427002,456.407288,725.384705,456.34375,725.351563L456.289063,725.359375C456.258453,725.380676,456.227661,725.40155,456.199219,725.425781C456.078064,725.700439,456.033447,726.004089,456.078125,726.300781C456.077972,726.479919,456.033691,726.656311,455.953125,726.816406C455.913086,726.834778,455.87439,726.855896,455.832031,726.871094C455.778992,726.847046,455.725281,726.823975,455.671875,726.800781C455.600739,726.736633,455.531891,726.669983,455.464844,726.601563C455.051849,726.021606,454.673676,725.417603,454.332031,724.792969L454.121094,724.496094C454.085602,724.473328,454.052246,724.447571,454.015625,724.425781C453.9888,724.422791,453.962952,724.427307,453.9375,724.433594C453.854553,724.538574,453.787262,724.65564,453.753906,724.785156L453.519531,725.398438C452.850067,724.792358,452.236847,724.126953,451.6875,723.410156C451.492065,723.126648,451.3284,722.822266,451.207031,722.5C451.13327,722.329407,451.031464,722.172974,450.902344,722.039063L450.832031,722C450.786591,721.994751,450.740936,721.993408,450.695313,721.992188L450.625,722.035156L450.558594,722.089844C450.472321,722.217163,450.406708,722.356506,450.351563,722.5L450.289063,722.722656C450.23938,723.096008,450.182983,723.468323,450.121094,723.839844C449.58139,723.411194,449.074707,722.942322,448.605469,722.4375C448.25592,722.047852,447.969452,721.605957,447.753906,721.128906C447.707794,721.063538,447.659363,720.999939,447.609375,720.9375C447.558472,720.886597,447.504425,720.839111,447.449219,720.792969C447.0737,720.54657,446.589447,720.547363,446.210938,720.789063L446.074219,720.878906C445.990265,720.948242,445.910004,721.022156,445.839844,721.105469C445.592834,721.395325,445.470795,721.772278,445.496094,722.152344L445.496094,722.777344C445.14798,722.478149,444.819,722.157349,444.511719,721.816406C443.716705,720.845215,443.311157,719.612854,443.375,718.359375C443.385071,718.036499,443.324646,717.715637,443.199219,717.417969L443.152344,717.390625C443.097168,717.396362,443.04245,717.405701,442.996094,717.4375L442.910156,717.480469C442.413483,717.821716,442.096405,718.368164,442.046875,718.96875C442.03949,719.022095,442.029083,719.074951,442.007813,719.125C441.986237,719.138,441.963745,719.149353,441.9375,719.152344L441.894531,719.136719L441.847656,719.113281C441.075806,718.516846,440.469482,717.732788,440.085938,716.835938C439.678802,715.959778,439.448395,715.012085,439.40625,714.046875L439.40625,712.6875C438.206146,712.519348,437.017609,712.276794,435.847656,711.960938C434.857849,711.673828,433.883942,711.334595,432.929688,710.945313C433.453583,710.85144,433.973541,710.736877,434.488281,710.601563C434.676758,710.549744,434.855835,710.466736,435.007813,710.34375L435.039063,710.289063L435.03125,710.230469C434.976227,710.16571,434.91394,710.107788,434.847656,710.054688C434.209503,709.910583,433.592987,709.682678,433.015625,709.375C431.952942,708.90448,430.939972,708.328857,429.992188,707.65625C429.810028,707.470215,429.64444,707.268677,429.496094,707.054688L429.472656,706.945313C429.496002,706.930847,429.51889,706.915649,429.542969,706.902344C429.640198,706.912048,429.736725,706.927673,429.832031,706.949219C430.152466,707.05896,430.46756,707.183472,430.777344,707.320313L431.464844,707.558594L431.519531,707.558594L431.542969,707.535156C431.531433,707.50177,431.514313,707.471252,431.496094,707.441406C431.119659,707.041626,430.724945,706.659424,430.3125,706.296875C429.754272,705.74823,429.285858,705.11499,428.929688,704.417969C428.894104,704.326111,428.865509,704.231812,428.839844,704.136719L428.824219,704.039063C428.847321,704.03009,428.870789,704.022522,428.894531,704.015625L428.96875,704.023438C429.370758,704.179077,429.765869,704.35199,430.152344,704.542969C430.190399,704.545654,430.227539,704.54834,430.265625,704.550781L430.289063,704.527344C430.282684,704.48645,430.271973,704.446838,430.265625,704.40625C429.916626,703.835571,429.531769,703.287537,429.113281,702.765625L429.007813,702.585938L428.984375,702.503906C428.977997,702.463867,428.973999,702.423584,428.976563,702.382813L429.042969,702.332031C429.163757,702.28186,429.284393,702.231384,429.40625,702.183594C429.413971,702.165771,429.419403,702.147156,429.425781,702.128906L429.382813,702.066406L429.335938,702.007813C428.707703,701.586853,428.016846,701.267944,427.289063,701.0625C426.656708,700.932129,426.012848,700.865601,425.367188,700.863281C424.326019,700.865845,423.279388,700.863281,422.238281,700.855469C422.42688,700.588318,422.604614,700.31366,422.769531,700.03125C422.809753,699.940186,422.829193,699.841736,422.824219,699.742188C422.793152,699.721924,422.759613,699.70636,422.722656,699.699219L422.65625,699.6875C422.247864,699.761292,421.852051,699.893311,421.480469,700.078125C420.463531,700.465759,419.397156,700.707703,418.3125,700.796875L418.097656,700.796875C417.991272,700.790894,417.88739,700.767517,417.785156,700.738281L417.703125,700.675781L417.671875,700.59375L413.28125,700.878906C412.40564,700.83783,411.528748,700.82605,410.652344,700.84375C409.928528,700.844055,409.206787,700.765442,408.5,700.609375C408.288269,700.556946,408.080658,700.489197,407.878906,700.40625C401.356049,700.861145,394.819946,701.089111,388.28125,701.089844C381.533691,701.144653,374.789764,701.112061,368.042969,700.992188C366.682648,700.96521,365.322235,701.038208,363.972656,701.210938C362.305695,701.460449,360.69223,701.987244,359.199219,702.769531C358.941406,702.900269,358.662384,702.984619,358.375,703.015625L358.304688,702.996094C358.265747,702.980774,358.230377,702.95752,358.207031,702.921875L358.199219,702.839844C358.312012,702.532959,358.484894,702.251648,358.707031,702.011719C358.836853,701.846924,358.929382,701.655273,358.96875,701.449219C358.944855,701.436768,358.919861,701.42688,358.894531,701.417969C358.551178,701.409119,358.208649,701.454651,357.878906,701.550781C356.812622,701.802246,355.771759,702.151306,354.769531,702.59375C354.28653,702.868774,353.792694,703.124268,353.289063,703.359375C353.266724,703.358887,353.244507,703.356384,353.222656,703.351563L353.230469,703.296875C353.354523,702.992859,353.501556,702.69873,353.671875,702.417969L354.238281,701.464844C352.48938,701.653137,350.764282,702.019714,349.089844,702.558594C348.947235,702.594482,348.798706,702.595581,348.65625,702.558594L348.625,702.519531C348.628387,702.473328,348.633789,702.427246,348.648438,702.382813C348.828247,702.094421,349.034485,701.823303,349.265625,701.574219L349.320313,701.464844C349.31662,701.434387,349.30954,701.404968,349.304688,701.375L349.265625,701.351563L349.191406,701.320313C348.944092,701.274658,348.692871,701.254639,348.441406,701.257813C345.796143,701.322998,343.153809,701.040588,340.582031,700.417969C340.05307,700.230042,339.530579,700.024231,339.015625,699.800781C339.896667,699.706909,340.7742,699.618652,341.65625,699.535156L341.425781,699.449219C337.313354,699.084473,333.176208,699.098877,329.066406,699.492188C327.88092,699.631042,326.708069,699.862061,325.558594,700.183594C324.804565,700.4245,324.075745,700.738342,323.382813,701.121094C319.628418,702.950317,315.98291,704.995483,312.464844,707.246094C310.657776,708.42511,308.932556,709.724976,307.300781,711.136719C306.438934,711.912109,305.637085,712.751709,304.902344,713.648438C304.12677,714.695984,303.482544,715.834595,302.984375,717.039063C302.306702,718.629761,301.692932,720.246948,301.144531,721.886719C300.299683,724.327271,299.442261,726.754089,298.566406,729.183594C297.690002,731.610168,296.6539,733.976013,295.464844,736.265625C294.802338,737.505432,294.047607,738.693604,293.207031,739.820313C292.513092,740.707764,291.712738,741.506653,290.824219,742.199219C288.420502,743.895447,285.516144,744.734497,282.578125,744.582031C281.225311,744.539551,279.881805,744.341736,278.574219,743.992188C276.673523,743.482544,274.810913,742.840332,273,742.070313C271.253571,741.329163,269.489807,740.628357,267.710938,739.96875C265.00589,739.019775,262.21167,738.347046,259.371094,737.960938L265.457031,737.503906C265.877686,736.428955,266.131775,735.296143,266.210938,734.144531C266.232544,733.677734,266.163757,733.211426,266.011719,732.769531C265.908691,732.492676,265.731567,732.248596,265.496094,732.070313C265.32135,731.934875,265.117859,731.842224,264.902344,731.792969C264.174988,731.647095,263.466217,731.420166,262.789063,731.117188C262.581482,731.022583,262.383881,730.907349,262.199219,730.773438L262.140625,730.773438L262.132813,730.75L262.171875,730.695313C262.47879,730.429382,262.7966,730.176392,263.125,729.9375C263.611115,729.746155,264.157532,729.770935,264.621094,730.011719C264.853149,730.091248,265.106934,730.081848,265.332031,729.984375C266.161407,729.648926,266.899872,729.123108,267.488281,728.449219C267.517792,728.411804,267.534637,728.367004,267.542969,728.320313L267.53125,728.253906C267.508087,728.216675,267.480255,728.182556,267.441406,728.160156C267.325012,728.137512,267.20993,728.108582,267.097656,728.070313C266.96344,727.975647,266.846863,727.858093,266.753906,727.722656C266.527466,727.399231,266.224792,727.136414,265.871094,726.960938C265.680634,726.877258,265.473602,726.838928,265.265625,726.84375C265.601318,726.806702,265.92749,726.707642,266.226563,726.550781L266.320313,726.480469L266.390625,726.40625C266.419159,726.354919,266.434906,726.298767,266.449219,726.242188C266.459747,726.14679,266.430603,726.05127,266.375,725.972656C266.286835,725.824646,266.180328,725.688354,266.058594,725.566406C265.734894,725.250488,265.422241,724.923462,265.121094,724.585938C264.891418,724.341003,264.722473,724.045166,264.628906,723.722656L264.597656,723.566406L264.585938,723.410156C265.131775,723.78009,265.764557,724.002686,266.421875,724.054688C266.777466,724.103149,267.120422,724.219238,267.433594,724.394531C267.688324,724.239624,267.862946,723.979553,267.898438,723.683594L267.890625,723.589844L267.832031,723.410156C267.721252,723.221436,267.581482,723.051636,267.417969,722.90625C267.110382,722.681763,266.82663,722.426147,266.570313,722.144531L266.476563,721.996094L266.433594,721.847656L266.449219,721.695313C266.770294,722.038391,267.235962,722.207031,267.703125,722.15625C268.041046,722.126526,268.381042,722.128113,268.71875,722.160156C268.023834,721.794189,267.44278,721.244019,267.039063,720.570313L267.027344,720.546875C267.514954,720.646851,268.000366,720.754944,268.484375,720.871094C268.568756,720.890991,268.655701,720.896301,268.742188,720.890625C268.776459,720.872437,268.812836,720.858948,268.847656,720.839844L268.878906,720.792969L268.898438,720.730469C268.855377,720.696167,268.812988,720.66272,268.769531,720.628906C268.31192,720.338562,267.921478,719.953674,267.625,719.5C267.537964,719.360718,267.481079,719.204834,267.453125,719.042969C267.775238,719.275635,268.144653,719.434265,268.535156,719.507813L268.625,719.503906C268.672546,719.496521,268.713776,719.473816,268.753906,719.449219L268.785156,719.390625L268.789063,719.3125C268.754089,719.175293,268.69989,719.043701,268.621094,718.925781C268.364746,718.881348,268.129456,718.753784,267.953125,718.5625C267.899963,718.49823,267.858459,718.425354,267.828125,718.347656C267.725372,717.928711,267.683167,717.497314,267.703125,717.066406C267.699677,716.880066,267.691711,716.693787,267.679688,716.507813L267.777344,716.578125L267.882813,716.628906C267.955933,716.646179,268.030487,716.655945,268.105469,716.660156C268.277161,716.642944,268.444611,716.593323,268.589844,716.5C269.401611,715.974976,269.939758,715.11908,270.0625,714.160156L270.058594,714.015625C270.057861,713.926086,270.035858,713.838989,270.007813,713.753906C269.978394,713.674866,269.935974,713.602112,269.890625,713.53125C269.835419,713.463562,269.767334,713.40863,269.695313,713.359375C270.292572,713.461365,270.901001,713.481995,271.503906,713.421875C271.670593,713.403748,271.829132,713.342773,271.96875,713.25C272.012421,713.213196,272.047455,713.167603,272.074219,713.117188C272.119385,712.971008,272.102539,712.814697,272.039063,712.675781C271.919403,712.434875,271.77182,712.208862,271.597656,712.003906C271.316284,711.663757,271.028564,711.329163,270.734375,711C271.388885,710.962036,272.036041,710.84137,272.660156,710.640625C272.945435,710.554993,273.201508,710.391418,273.398438,710.167969C273.585236,709.908936,273.648895,709.581848,273.582031,709.269531C273.501129,708.832764,273.416382,708.39624,273.328125,707.960938C273.263214,707.582458,273.274139,707.194763,273.359375,706.820313C274.016693,707.063599,274.719574,707.160767,275.417969,707.101563C275.71933,707.078125,276.011688,706.987122,276.273438,706.835938C276.406342,706.753052,276.52002,706.643005,276.605469,706.511719C276.679504,706.384338,276.706604,706.236633,276.695313,706.089844L276.675781,705.96875C276.551208,705.586121,276.315491,705.249756,276,705L276.832031,703.886719L277.488281,703.191406L277.476563,703.089844C277.434631,702.993347,277.362488,702.914856,277.273438,702.859375C276.946014,702.716309,276.602325,702.614319,276.25,702.554688C275.754761,702.44928,275.269897,702.299927,274.800781,702.109375C275.348816,701.543701,276.116058,701.243896,276.902344,701.289063C277.173889,701.31189,277.446808,701.314392,277.71875,701.296875L277.777344,701.265625C277.798065,701.218018,277.786682,701.166016,277.761719,701.121094C278.198669,700.853455,278.63266,700.579712,279.0625,700.300781C279.121948,700.274658,279.177521,700.240723,279.230469,700.203125L279.261719,700.1875C278.785339,700.266113,278.312775,700.342529,277.835938,700.417969C277.446564,700.492615,277.04306,700.451477,276.679688,700.292969C276.512665,700.21051,276.355347,700.109802,276.210938,699.992188C276.773254,699.959595,277.326508,699.834778,277.847656,699.621094C278.301544,699.372009,278.722198,699.067139,279.101563,698.714844C279.411804,698.468506,279.728363,698.230225,280.050781,698C280.231567,697.843567,280.346802,697.624573,280.371094,697.386719C280.371033,697.062012,280.422089,696.739441,280.519531,696.429688C280.591644,696.278687,280.691864,696.143066,280.816406,696.03125C281.016663,696.110901,281.229797,696.154419,281.445313,696.152344L281.5,696.132813L281.527344,696.097656L281.53125,696.046875C281.450562,695.882751,281.369629,695.718872,281.289063,695.554688C281.291229,695.520081,281.286682,695.485657,281.289063,695.449219C281.455292,695.561584,281.662445,695.59375,281.855469,695.539063C281.993439,695.467712,282.081207,695.326904,282.09375,695.171875C282.142365,694.673279,282.099365,694.170105,281.964844,693.6875C281.957123,693.648438,281.949219,693.609314,281.941406,693.570313C282.40332,693.993896,282.829407,694.455017,283.214844,694.949219C283.380371,695.175537,283.604462,695.353149,283.863281,695.460938C283.943054,695.481384,284.025024,695.475525,284.105469,695.460938L284.222656,695.398438C284.256104,694.852478,284.293823,694.307068,284.335938,693.761719C284.355042,693.441711,284.46109,693.132813,284.640625,692.867188L284.664063,692.867188L284.710938,692.894531C285.140472,693.283386,285.555054,693.688416,285.953125,694.109375L286.574219,694.65625C286.742279,694.812378,286.950073,694.920349,287.175781,694.960938L287.25,694.945313L287.308594,694.894531L287.347656,694.804688C287.364655,694.489624,287.317352,694.174561,287.207031,693.878906C287.048981,693.390076,286.868073,692.908997,286.664063,692.4375C286.901794,692.587769,287.095795,692.797852,287.226563,693.046875C287.696747,693.859497,288.143463,694.685242,288.566406,695.523438C288.643372,695.671936,288.738831,695.810059,288.851563,695.933594C288.729248,695.024475,288.664001,694.108643,288.65625,693.191406L288.671875,693.089844L288.695313,693.039063C288.856537,693.01532,289.019196,693.060974,289.148438,693.160156C289.703613,693.499512,290.167389,693.969666,290.496094,694.53125C290.576782,694.672668,290.615204,694.833374,290.613281,694.996094C290.726715,694.469299,290.815247,693.937439,290.878906,693.402344C290.911957,693.109924,291.013519,692.828796,291.179688,692.585938C291.23996,692.522034,291.308777,692.46637,291.390625,692.433594L291.523438,692.40625C291.763245,692.800903,292.047302,693.166809,292.371094,693.496094C292.839294,694.025757,293.373871,694.492798,293.960938,694.886719C294.160583,695.03186,294.40152,695.109375,294.648438,695.117188C294.966034,695.206604,295.26474,695.352356,295.53125,695.546875C295.705994,695.65979,295.877747,695.777283,296.046875,695.898438C296.016937,695.776611,296.02182,695.648499,296.066406,695.53125C296.389771,694.511597,296.833954,693.534546,297.390625,692.621094C297.725159,693.410034,298.192688,694.135498,298.773438,694.765625C298.843445,693.704468,299.107056,692.66571,299.550781,691.699219L299.621094,691.597656L299.6875,691.539063C299.819519,691.92157,299.902283,692.319214,299.933594,692.722656C299.94754,693.090027,300.037964,693.450867,300.199219,693.78125C300.290405,693.973877,300.473389,694.107788,300.683594,694.144531C300.805573,693.56488,301.057556,693.020874,301.417969,692.550781C302.170624,691.508789,303.123993,690.628174,304.222656,689.960938L304.457031,689.847656C305.748322,689.280884,307.093811,688.846619,308.472656,688.550781C310.85791,688.285522,313.232086,687.928467,315.589844,687.480469C315.569214,687.474487,315.548279,687.469482,315.527344,687.464844C313.919495,686.979736,312.366791,686.327637,310.894531,685.519531C310.449707,685.256714,310.045563,684.930603,309.695313,684.550781C309.553955,684.372559,309.443756,684.17218,309.359375,683.960938C309.126923,683.512817,308.90155,683.060791,308.683594,682.605469C309.353546,683.447937,310.283478,684.045166,311.328125,684.304688C312.348175,684.582092,313.417633,684.626343,314.457031,684.433594C315.4104,684.28125,316.333435,683.977905,317.191406,683.535156C317.804565,683.243591,318.423218,682.963623,319.046875,682.695313C318.881744,682.487732,318.740204,682.26239,318.625,682.023438L318.625,682L318.738281,681.992188C318.853149,681.995728,318.965027,682.028931,319.0625,682.089844L319.289063,682.199219C319.317352,682.206726,319.346161,682.210693,319.375,682.214844C319.378326,682.12146,319.346893,682.03186,319.296875,681.953125C318.878784,681.237061,318.410309,680.551575,317.894531,679.902344C316.11795,677.591553,314.589996,675.099976,313.335938,672.46875C312.796326,671.284607,312.386536,670.045654,312.113281,668.773438C312.013794,668.093201,311.93042,667.410767,311.863281,666.726563C312.106995,667.269043,312.363678,667.805603,312.632813,668.335938C312.732147,668.562866,312.870972,668.770996,313.046875,668.945313C313.061157,668.937439,313.075897,668.930481,313.089844,668.921875L313.089844,668.800781C312.964417,668.024109,312.786621,667.256836,312.558594,666.503906C311.879852,664.064758,311.507355,661.550659,311.449219,659.019531C311.459717,658.631348,311.501801,658.244751,311.574219,657.863281L311.839844,656.679688C311.838593,657.192261,311.861938,657.704529,311.910156,658.214844C311.927673,658.404907,311.989441,658.588928,312.097656,658.746094L312.128906,658.769531C312.153015,658.744751,312.16507,658.713867,312.179688,658.683594L312.207031,658.617188C312.401764,657.833008,312.535919,657.035095,312.609375,656.230469C313.031738,652.876953,313.306793,649.506531,313.433594,646.128906C313.475769,643.990967,313.028198,641.871887,312.125,639.933594C311.926361,639.566772,311.696411,639.217712,311.4375,638.890625C311.340393,638.747559,311.288483,638.579163,311.289063,638.40625C311.318481,638.358154,311.349731,638.311279,311.382813,638.265625L311.382813,638.207031C311.175446,637.83728,310.917694,637.49823,310.617188,637.199219C309.923248,636.468872,309.210815,635.75647,308.480469,635.0625C308.158691,634.756653,307.859772,634.427551,307.585938,634.078125L307.542969,634.003906L307.511719,633.929688C307.519867,633.901489,307.530792,633.874329,307.542969,633.847656L307.601563,633.839844C307.740387,633.869812,307.883636,633.865234,308.023438,633.839844C308.161682,633.788818,308.280396,633.698608,308.375,633.585938C308.635956,633.147644,308.743896,632.634399,308.675781,632.128906C308.621887,631.465393,308.360229,630.835815,307.929688,630.328125C307.277222,628.610046,306.539307,626.92572,305.71875,625.28125C305.168488,624.199524,304.757416,623.052368,304.496094,621.867188L304.414063,621.351563C304.437164,621.381653,304.468384,621.400024,304.496094,621.425781C304.562897,621.347778,304.594421,621.24707,304.59375,621.144531C304.624359,620.937622,304.638519,620.728577,304.632813,620.519531C304.627441,618.737305,304.574005,616.9552,304.472656,615.175781C304.416931,613.753296,304.400024,612.329651,304.421875,610.90625C304.434143,610.622192,304.472382,610.339844,304.535156,610.0625C305.071594,608.905212,305.453613,607.682495,305.671875,606.425781C306.279541,603.189331,306.831665,599.94281,307.328125,596.6875C307.557343,595.347778,307.813934,594.012756,308.097656,592.683594C308.109894,592.578613,308.153992,592.47937,308.230469,592.40625L308.289063,592.441406C308.395538,592.586609,308.469269,592.752991,308.503906,592.929688C308.630005,593.451538,308.728882,593.979675,308.800781,594.511719C309.166443,592.930481,309.575531,591.359558,310.027344,589.800781L310.167969,589.398438C310.190277,589.40448,310.210602,589.414673,310.230469,589.425781C310.361816,589.656433,310.454712,589.907166,310.503906,590.167969L310.734375,591.046875C311.020355,590.274719,311.335815,589.513794,311.679688,588.765625C311.812561,588.507446,311.97818,588.267395,312.175781,588.054688L312.234375,588.035156L312.296875,588.023438C312.336517,588.03772,312.363281,588.072815,312.375,588.113281C312.383118,588.264893,312.406311,588.415649,312.457031,588.558594L312.480469,588.566406L312.542969,588.550781C312.796661,588.361816,313.011871,588.126038,313.175781,587.855469C314.437073,586.178711,316.161804,584.907837,318.136719,584.199219C319.802795,583.57074,321.570984,583.256836,323.351563,583.273438C323.843842,583.246399,324.337585,583.272461,324.824219,583.351563C325.214874,583.436768,325.567474,583.645508,325.832031,583.945313C326.30069,584.316223,326.513641,584.926514,326.375,585.507813C326.294922,585.786438,326.2995,586.081726,326.382813,586.359375L326.425781,586.425781L326.535156,586.457031C326.701294,586.604187,326.835938,586.783203,326.929688,586.984375C327.237396,587.505981,327.432587,588.086121,327.503906,588.6875C327.413544,589.016846,327.24118,589.317139,327.007813,589.566406C326.340302,590.423401,325.556824,591.183411,324.679688,591.824219C324.377106,592.016907,324.040283,592.149841,323.6875,592.214844C323.040314,592.368103,322.381989,592.469727,321.71875,592.519531L319.769531,592.65625C318.964966,593.863953,318.183655,595.08667,317.425781,596.324219C316.659851,597.598389,316.065979,598.968262,315.660156,600.398438C314.970978,603.045532,314.922852,605.818787,315.519531,608.488281C316.096069,611.083618,316.841156,613.638306,317.75,616.136719L318.089844,616.945313C318.484741,617.7276,318.993744,618.446899,319.601563,619.078125C321.17099,620.751526,322.877258,622.290588,324.703125,623.679688C324.858917,623.808472,325.03949,623.902588,325.230469,623.96875C325.244781,623.958313,325.259674,623.948792,325.273438,623.9375C325.271942,623.904846,325.269104,623.872314,325.265625,623.839844C325.140564,623.521057,324.973206,623.220581,324.769531,622.945313C324.26236,622.185791,323.691132,621.471069,323.0625,620.808594C322.745483,620.552002,322.440308,620.280945,322.148438,619.996094C322.092529,619.953186,322.058258,619.891235,322.039063,619.824219L322.125,619.808594L322.207031,619.824219C323.925293,620.466003,325.456055,621.52655,326.660156,622.910156C326.812073,623.103699,326.945831,623.31073,327.0625,623.527344L327.496094,624.398438C327.509552,624.039124,327.506531,623.679382,327.488281,623.320313C327.401459,622.639465,327.120605,621.998047,326.683594,621.46875C326.635834,621.379578,326.60437,621.28302,326.585938,621.183594L326.59375,621.144531L326.632813,621.128906C326.677734,621.132935,326.718018,621.149963,326.761719,621.160156C327.490112,621.525635,328.10495,622.082336,328.542969,622.769531C328.67749,623.005005,328.787415,623.253723,328.871094,623.511719L329.191406,624.59375C329.343903,623.611206,329.568481,622.640991,329.863281,621.691406C330.094086,620.99707,330.378662,620.321777,330.714844,619.671875C330.8125,619.442932,330.886597,619.20459,330.9375,618.960938C330.929871,618.881409,330.93692,618.802002,330.945313,618.722656C330.957581,618.643127,330.98468,618.56665,331.023438,618.496094C331.054169,618.482849,331.084015,618.467529,331.117188,618.457031C331.216034,618.47644,331.300903,618.535461,331.359375,618.617188C331.550934,618.868286,331.703827,619.146362,331.816406,619.441406L332.214844,620.433594C332.295471,620.135437,332.37088,619.835876,332.441406,619.535156C332.517242,619.072693,332.5242,618.601624,332.464844,618.136719L332.34375,617.304688C332.934174,617.949829,333.52533,618.590393,334.121094,619.230469C334.147217,618.806641,334.129974,618.381348,334.070313,617.960938C333.876831,617.045654,333.646179,616.138672,333.378906,615.242188C333.322754,615.002869,333.296234,614.757446,333.304688,614.511719L333.335938,614.480469C333.39325,614.49408,333.448364,614.516235,333.496094,614.550781C333.996277,615.019531,334.412354,615.570435,334.726563,616.179688C334.940521,616.581055,335.130432,616.99469,335.296875,617.417969L335.320313,617.433594L335.34375,617.425781C335.351288,617.395752,335.359131,617.365845,335.367188,617.335938C335.506104,615.648804,335.374054,613.950195,334.976563,612.304688C334.680725,610.944031,334.227325,609.62262,333.625,608.367188C333.048096,607.063171,332.929657,605.602539,333.289063,604.222656C333.536346,603.354919,333.99173,602.560486,334.617188,601.910156C335.442413,601.003479,336.101929,599.958862,336.566406,598.824219C337.225098,597.341431,337.852936,595.84491,338.449219,594.335938C339.506653,591.66864,340.666412,589.042908,341.925781,586.464844C342.097534,586.148865,342.280182,585.838989,342.472656,585.535156C342.526123,585.431519,342.614532,585.350037,342.71875,585.296875L342.816406,585.335938C342.981689,585.460327,343.079163,585.653198,343.097656,585.859375C343.117493,585.961304,343.131653,586.06427,343.136719,586.167969L343.171875,586.195313C343.196014,586.19281,343.219391,586.186218,343.238281,586.167969C343.454803,585.87561,343.623749,585.551025,343.742188,585.207031C344.318298,584.046448,344.946594,582.912476,345.625,581.808594C345.720215,582.425964,345.807434,583.044495,345.886719,583.664063C346.259583,582.987488,346.658417,582.325684,347.082031,581.679688C347.281525,581.398132,347.509705,581.138062,347.761719,580.902344L347.816406,580.878906L347.855469,580.886719C347.866699,580.920898,347.870239,580.956482,347.871094,580.992188C347.797302,581.175964,347.747711,581.368835,347.734375,581.566406C347.752441,581.589844,347.768921,581.61377,347.777344,581.640625C347.824921,581.653748,347.873566,581.65332,347.921875,581.648438C348.076111,581.581421,348.216492,581.484924,348.328125,581.359375C348.788422,580.827881,349.342194,580.384705,349.960938,580.050781C351.217743,579.338745,352.599426,578.874329,354.03125,578.683594C354.881958,578.558594,355.743042,578.51886,356.601563,578.566406z"/>
    <path transform="matrix(-1,0,0,-1,0,0)" style="stroke:#000000;stroke-width:0.05mm;fill:none" d="M272.058594,700.03125L272.117188,700.050781C272.175781,700.072021,272.235168,700.090332,272.296875,700.089844C272.252502,700.090271,272.208313,700.092529,272.164063,700.085938C272.10733,700.053162,272.046997,700.027405,271.988281,699.996094L272.058594,700.03125z"/>
    <path transform="matrix(-1,0,0,-1,0,0)" style="stroke:#000000;stroke-width:0.05mm;fill:none" d="M301.929688,631.269531C301.890869,631.276184,301.851227,631.276672,301.8125,631.269531L301.839844,631.261719L301.902344,631.261719L301.929688,631.269531z"/>
    <path transform="matrix(-1,0,0,-1,0,0)" style="stroke:#000000;stroke-width:0.05mm;fill:none" d="M412.800781,595.601563C412.743408,595.608154,412.688751,595.627441,412.636719,595.652344C412.567383,595.696838,412.5159,595.763062,412.496094,595.84375C412.272339,596.918579,412.118591,598.006836,412.035156,599.101563C411.918396,600.087097,411.930664,601.083862,412.070313,602.066406C412.197845,602.906433,412.537506,603.700012,413.058594,604.371094L413.617188,605.085938C413.647766,604.627319,413.681671,604.169006,413.71875,603.710938C413.733185,603.489563,413.788544,603.272949,413.878906,603.070313L413.933594,603.007813L413.992188,602.984375C414.04599,603.009033,414.102051,603.028809,414.160156,603.039063L414.199219,603.023438C414.214844,602.996277,414.220978,602.967773,414.234375,602.941406C414.232666,602.85083,414.223694,602.760376,414.191406,602.675781C413.976318,602.028198,413.852844,601.353638,413.824219,600.671875C413.811066,600.517334,413.862518,600.365295,413.957031,600.242188C414.001465,600.208923,414.04361,600.172729,414.085938,600.136719C414.160431,600.050049,414.200531,599.937988,414.191406,599.824219C414.157471,599.458618,414.08667,599.097534,413.980469,598.746094C413.813171,597.944336,413.727905,597.127625,413.726563,596.308594C413.709625,596.187561,413.681427,596.068359,413.640625,595.953125C413.562714,595.779968,413.405548,595.655334,413.21875,595.621094C413.082397,595.58551,412.940216,595.581177,412.800781,595.601563z"/>
</svg>
