<?xml version="1.0" encoding="UTF-8"?>
<svg xmlns="http://www.w3.org/2000/svg" width="131.611mm" height="96.267mm" viewBox="-1049.252197 -826.897888 131.611450 96.266907">
    <path transform="matrix(-0.26455,0,0,-0.26455,-917.111633,-730.630981)" style="stroke:#000000;stroke-width:0.05mm;fill:none" d="M125,363.29071C109.18071,360.525909,101.717537,356.908325,88.923309,345.803406C84.840492,342.259674,79.796928,338.2146,77.715393,336.814362C73.469452,333.958099,67.042236,325.861969,63.442467,318.835266C62.128117,316.269684,57.200169,308.527679,52.491474,301.630798C43.0228,287.761963,39.846039,281.392303,38.026421,272.627258C36.612656,265.8172,38.152195,257.460693,40.644402,258.417053C42.280285,259.0448,42.348969,258.045105,40.926231,254.315094C40.335655,252.7668,39.488346,249.558563,39.04332,247.185684L38.23418,242.871368L40.431541,244.935684C43.914375,248.207642,44.153008,247.403,41.487389,241.375565C38.677029,235.020844,38.521206,233.226837,40.162148,226.117889C41.267651,221.328583,41.206722,220.984604,38.912148,219.060623C35.315025,216.044464,29.420214,217.263885,19.609953,223.053513C15.151673,225.684601,11.384734,227.718063,11.238976,227.572311C11.093218,227.426544,12.122521,224.255859,13.526316,220.526321C14.93011,216.796783,15.878485,213.545151,15.633815,213.300476C15.389144,213.055817,13.458943,213.932281,11.34448,215.248215C9.230016,216.564133,6.925826,217.980392,6.224057,218.395447C5.522288,218.810501,6.180019,216.63829,7.685682,213.568314C10.389547,208.055237,10.401003,207.948853,8.616206,204.927429C6.958593,202.121323,6.941093,201.722565,8.404581,200.105438C10.573276,197.709061,10.410466,196.488785,7.764523,195.308136C5.537505,194.314407,5.540011,194.304886,8.426597,192.79245L11.324148,191.274277L6.662074,188.542114C4.097933,187.039429,2,185.588165,2,185.317078C2,185.046005,3.875941,185.141144,6.168758,185.528519L10.337517,186.232819L7.196401,182.422104C5.468787,180.326202,4.226027,178.440643,4.434712,178.231949C4.643397,178.02327,6.183611,178.560715,7.857409,179.42627C9.531208,180.291824,11.142075,181,11.437113,181C11.732151,181,9.755844,177.523651,7.04532,173.27478C4.334796,169.025925,2.242777,165.423889,2.396389,165.270279C2.550002,165.116669,4.121626,165.495041,5.888889,166.111115C7.656151,166.727188,9.368007,166.965332,9.693011,166.64032C10.018017,166.315323,9.157203,162.88829,7.780091,159.024704C6.40298,155.161118,5.471464,152,5.710056,152C5.948648,152,8.136492,153.167755,10.57193,154.595016C13.007368,156.022278,15,157.010696,15,156.791504C15,156.572311,13.42838,151.726166,11.507512,146.022308C9.586643,140.318436,8.143431,135.523239,8.300372,135.366287C8.457314,135.209351,11.457147,138.884521,14.966666,143.53334C18.476187,148.182144,21.513464,151.81987,21.716169,151.617157C21.918875,151.414459,20.989744,148.772659,19.651434,145.746506C16.766178,139.222427,14.988463,131.511322,15.030105,125.700775L15.060209,121.5L18.09738,128.5C20.114321,133.148605,22.539589,136.758774,25.317276,139.247299C30.202335,143.62381,31,143.823044,31,140.666672C31,137.221436,31.965597,136.827774,34.850384,139.096954C37.267292,140.998093,37.513271,141.018539,38.685219,139.415817C39.688507,138.043732,40.228367,137.944641,41.400478,138.917404C42.628006,139.936157,42.915092,139.597916,43.184212,136.815796L43.504951,133.5L45.326214,136.842926C46.327904,138.681549,47.296669,140.03154,47.479023,139.842926C47.801014,139.509888,45.934811,127.810371,42.035835,105.718704C40.658001,97.911888,39.334938,93.635551,37.240257,90.218704C33.27533,83.751106,32.945515,81.946243,33.673233,70.69857C34.692696,54.941677,39.224102,49.147778,54.554001,44.000229C61.644318,41.619408,65.98175,42.469765,67.868408,46.610527C68.858055,48.782578,68.625626,49.686962,66.1464,53.310753C64.170654,56.198631,63.115864,59.208549,62.750927,63C61.940521,71.419548,64.514435,100.363747,67.010628,110.901253C70.025177,123.626991,73.365372,127.317429,88.5,134.643967L99.5,139.968964L100.126762,135.234482C100.471481,132.630524,101.303986,128.484802,101.976761,126.021767C103.844574,119.183769,103.468513,111.192856,101.021606,105.725555C98.076019,99.144028,99.001228,94.046432,105.509277,81C108.390068,75.224998,111.0839,68.925003,111.495575,67C111.907249,65.074997,113.088577,61.831558,114.120758,59.792351C115.40715,57.250889,116.256111,52.507011,116.819839,44.710155C117.560165,34.470722,117.920235,32.97113,120.427963,29.683327C124.347115,24.545065,128.782806,22.067667,134.063263,22.067816C136.503479,22.067884,143.449997,21.878902,149.5,21.647858C162.902039,21.136042,164.434311,21.725348,163.711594,27.113585C163.004242,32.38726,159.781006,38.37228,154.078857,45C151.476303,48.025002,146.485428,54.769352,142.988022,59.98745C133.983109,73.422684,132,80.659767,132,100.086777C132,112.770554,132.343811,115.986275,134.517975,123.63813C137.485916,134.083694,143.409775,146.518234,148.724854,153.45932C152.480789,158.364273,159.340637,163.902496,161.739792,163.966782C163.484253,164.013519,169.679703,154.198868,170.541016,150.024109C170.935425,148.112366,173.28476,144.062363,175.761734,141.024109C178.238724,137.985855,180.913345,134.143692,181.705353,132.485977C182.705063,130.393539,185.361298,128.285278,190.392593,125.590904C196.592789,122.270554,198.185989,121.812309,201.420288,122.419067C204.363052,122.971138,205.646118,122.726295,207.210602,121.314148C209.165924,119.549202,213.186386,119.110794,228.816666,118.958115C232.684341,118.920341,233.240601,118.608276,234.16449,115.957977C234.731628,114.331093,235.467712,113,235.800217,113C236.132736,113,237.860596,114.411034,239.639938,116.135628L242.875076,119.271255L246.584976,117.082367L250.294876,114.893471L253.445038,117.946732C255.177643,119.62603,256.863892,121,257.192291,121C257.927094,121,256.670624,115.55529,255,111.5C251.584595,103.20948,251.658356,102.913063,259.532043,93.287651C264.859619,86.774811,267.976227,83.880142,271.155701,82.491768C276.05481,80.352478,302.996582,63.142109,303.006287,62.14566C303.009766,61.790546,304.29895,53.51049,305.871185,43.745533C307.8255,31.607698,308.497498,24.720568,307.995422,21.974949C306.826752,15.584049,308.010925,12.72739,314.147186,7.134418C320.741302,1.124171,324.753418,-0,339.609741,-0C347.189606,-0,349.798279,0.413832,353.473236,2.199266C358.570465,4.675687,358.781128,5.476034,356.545929,13.87403C354.903229,20.045961,352.719238,22.707298,344.934692,28.023224C340.602631,30.981518,339.125854,32.674168,338.270233,35.661831C335.9198,43.869267,335.845764,45.587963,337.741882,47.929554L339.570465,50.187771L348.323883,48.44936L357.077301,46.710953L365.288666,33.521603C371.737396,23.163393,375.088257,18.908039,380.8992,13.697328C391.92276,3.812415,404.55307,-0.83507,413.716888,1.621625C419.203339,3.092472,417.391296,10.547978,405.921082,33.696835C397.831299,50.02335,396.369843,52.333382,391.702271,56.171753C388.841034,58.5247,381.774994,64.996841,376,70.554291C370.225006,76.11174,362.575012,82.353416,359,84.424683C355.424988,86.495956,351.149994,89.191078,349.5,90.413857C347.850006,91.636627,343.995148,94.054474,340.933685,95.786842C337.872192,97.519211,334.634857,99.746002,333.739594,100.73526C332.233704,102.399231,332.247986,102.838036,333.930298,106.595551C335.914185,111.026749,340.231384,115,343.062286,115C344.048187,115,345.739777,116.125,346.82135,117.5C349.570587,120.995117,353.712921,120.873055,355.304962,117.25C357.624542,111.971268,362.293365,105.981819,365.757416,103.840912C368.514587,102.136879,371.317657,101.584068,379.10144,101.209251C389.282257,100.719017,391.659027,101.174736,409.133575,106.967552L414.767181,108.835091L421.555786,104.280968C426.850739,100.728851,430.220551,99.316849,436.871521,97.863419C449.43573,95.11779,457.131866,95.447556,474.607788,99.480324C476.017822,99.805702,477.306763,101.54464,478.501495,104.73336C479.483734,107.355011,481.572754,111.276154,483.143707,113.447006C484.714661,115.617851,486,118.21981,486,119.229118C486,122.600945,483.080627,128.107407,477.194489,135.837814C473.985718,140.052017,470.182404,145.524994,468.742706,148L466.125092,152.5L468.557434,156.5C469.895203,158.699997,470.992065,161.442749,470.994873,162.595016C470.997681,163.747269,471.937164,165.538132,473.08255,166.574707C477.030151,170.147247,478,174.464645,478,188.465576C478,198.892349,478.405243,202.864761,479.917267,207.259521C480.971771,210.324463,481.571747,213.09491,481.25061,213.416077C479.873016,214.793655,483.193207,213.763657,490.910095,210.41951C495.454346,208.450241,499.30838,206.987747,499.47464,207.16951C499.6409,207.351273,498.553864,211.850327,497.05896,217.167404C494.703949,225.543869,493.657196,227.624115,489.220276,232.745743C484.598541,238.080658,483.534332,238.777039,478.299774,239.891541C475.109894,240.570709,468.462952,242.421036,463.528809,244.003387L454.557587,246.880386L446.028809,237.831604L437.5,228.782837L431.566345,229.891418C428.302826,230.501144,422.649506,231,419.003418,231C413.053314,231,412.114258,231.281723,409.836823,233.75C406.877808,236.957001,404.001617,243.861313,403.996277,247.770233C403.990784,251.780792,400.652008,256.624451,397.345154,257.41922C395.780304,257.795319,391.913116,259.682037,388.751343,261.611969C384.342194,264.303253,382.128571,265.048553,379.251343,264.810455C375.89563,264.532745,375.212433,263.972687,372.773346,259.5C371.273712,256.75,370.036194,255.249435,370.023346,256.165405C369.986328,258.80545,354.764282,281.114502,350.199554,285.218689C347.924744,287.263947,343.686768,290.468781,340.781799,292.340515C336.073334,295.374268,334.27713,295.875397,324.234222,296.957062C318.038025,297.62442,311.22467,297.875854,309.093414,297.515778C304.239471,296.695709,278.350922,301.255493,268.477692,304.669495C264.615417,306.005005,258.990417,308.422455,255.977676,310.041626C252.964951,311.660797,239.25,318.624237,225.5,325.515961C211.75,332.407654,197.786758,339.498413,194.470581,341.273163C191.154388,343.047913,186.28186,345.346558,183.642731,346.381256C181.003601,347.415955,175.413147,350.724243,171.219513,353.733063C167.025864,356.741852,162.448395,359.645508,161.047348,360.185577C153.242615,363.194305,133.954712,364.855743,125,363.29071z"/>
</svg>
