<?xml version="1.0" encoding="UTF-8"?>
<svg xmlns="http://www.w3.org/2000/svg" width="211.165mm" height="159.967mm" viewBox="-828.212524 -423.403259 211.164551 159.966614">
    <path transform="matrix(-0.26455,0,0,-0.26455,-608.90033,-251.224365)" style="stroke:#000000;stroke-width:0.05mm;fill:none" d="M723.529175,648.75C722.108887,647.512512,719.885864,643.871216,718.589111,640.658264C717.019714,636.769653,715.964966,635.24762,715.434509,636.105957C714.903992,636.964355,714.055603,635.741638,712.896301,632.447693C711.938599,629.72644,711.120117,628.0625,711.077515,628.75C710.938416,630.99353,709.232849,630.063965,708.558533,627.377136C707.942444,624.922607,707.81488,624.870911,706.570984,626.572083C705.339783,628.255798,704.829773,627.957764,699.657104,622.531128C696.58551,619.308838,693.321655,615.090332,692.404114,613.156616C690.891113,609.968262,690.61731,609.802856,689.463867,611.38031C688.011353,613.36676,687.521851,612.835999,686.52594,608.194336C685.568909,603.734009,682.689331,604.22113,682,608.959961L681.5,612.397217L678.627014,608.975708C677.046875,607.093872,675.287109,604.52948,674.716492,603.2771C673.269043,600.100342,672,600.43811,672,604C672,608.386841,670.431458,607.684631,667.065369,601.790833C664.252014,596.864868,664.04303,596.709473,663.22052,598.932861L662.350769,601.284119L658.577698,597.511047C656.502502,595.435852,654.347412,592.426453,653.788635,590.823547C652.491699,587.103149,650.644226,587.688416,650,592.023804L649.5,595.388672L645.87323,592.198914C643.878479,590.44458,641.686401,587.657104,641.001892,586.004578C638.86322,580.84137,632,583.127441,632,589.003052L632,591.348633L629.556335,589.052917C626.011475,585.722717,624,580.852112,624,575.598877C624,573.069519,623.619751,571,623.154968,571C621.698059,571,619,574.573425,619,576.503052C619,578.150574,618.717529,578.088501,616.367676,575.924316C612.328186,572.204041,609.021057,564.306274,609.009766,558.352661L609,553.205322L602.423828,552.06012C598.806946,551.430237,593.294434,549.947144,590.173828,548.764343L584.5,546.61377L588.770203,545.74408C591.118774,545.265686,592.779724,544.452576,592.461182,543.937134C592.142578,543.421692,591.429016,543,590.875427,543C588.646118,543,575.207581,536.13916,573.185364,533.968628C570.384583,530.96228,570.865051,530.627869,575.314331,532.486877C580.447266,534.631531,580.500549,534.447021,575.938171,530.325134C572.40387,527.132141,569,522.323669,569,520.523987C569,520.20752,570.399536,520.672363,572.110046,521.556946C575.51709,523.318787,575.430115,522.883606,571.266113,517.333862C569.078247,514.417908,569.033142,514.133606,570.695251,513.735657C571.982849,513.427368,571.0672,512.619568,567.5,510.916595C563.361877,508.941101,560.914185,508.527069,553.300476,508.514801L544.101013,508.5L545.573547,506.25C547.319946,503.581635,546.322998,503.42038,541.231506,505.547729C534.903137,508.191895,530.102966,513.984924,529.918762,519.200317C529.844788,521.295471,529.715393,521.233215,528.463867,518.5C527.708374,516.849976,527.035706,513.700012,526.969055,511.5L526.847839,507.5L525.5,511C523.537476,516.096191,523.720459,521.531738,526.005371,526.010498C527.625549,529.186401,527.716492,529.82843,526.478882,529.353516C524.210693,528.483154,520.290649,521.11261,519.507446,516.245728C519.130859,513.905884,518.409424,512.246948,517.904297,512.559143C516.105469,513.670898,513.595825,519.570251,513.037231,524L512.469727,528.5L510.767975,525.976074C508.765045,523.005432,508.378571,519.185486,509.459961,513.046875L510.244415,508.59375L507.934235,510.127686C506.663635,510.971313,505.107391,513.195984,504.475952,515.071411C503.365082,518.370789,503.290192,518.410767,502.16394,516.306335C500.635376,513.450195,500.679443,508.733551,502.25,507.099335C503.27359,506.034241,502.051056,505.906372,495.5,506.393433C464.606171,508.690308,442.606201,509.397217,401,509.429901C374.875,509.450439,347.875,509.289856,341,509.073029C326.560913,508.617676,316.940857,510.280182,307.75,514.819275C301.999725,517.659119,300.61496,517.21344,303.468201,513.441101C304.275696,512.373535,304.950714,511.202423,304.968201,510.838684C305.028137,509.592346,292.548828,513.081177,288.147125,515.541321C285.727661,516.893616,283.535309,518,283.275269,518C283.015228,518,283.757507,516.381287,284.924774,514.402893L287.047089,510.805847L281.77356,511.520233C278.873108,511.913116,273.915741,513.03363,270.757172,514.010193C265.005615,515.788513,264.603455,515.480408,267.807098,511.75C269.21936,510.105499,268.861969,510,261.878754,510C251.638809,510,238.658463,508.255493,233.666,506.208282L229.5,504.5L234.5,504L239.5,503.5L226,498.169678C211.155334,492.308411,189.917786,482.147675,186,479.032379L183.5,477.044464L186.890793,477.022247L190.281586,477L185.390793,472.77771C175.019272,463.823792,164.45665,453.179108,158.381256,445.558319C154.899078,441.190399,152.225235,437.441437,152.439362,437.227295C152.653503,437.013153,153.784058,437.349243,154.951706,437.974152C156.194214,438.63913,154.009659,435.043732,149.684448,429.305176C136.859512,412.28949,128.785965,396.164337,127.501678,385L126.868996,379.5L128.952271,383.898895C130.098068,386.318298,131.235352,388.097992,131.479568,387.85376C131.723785,387.609558,130.838135,383.464478,129.511475,378.642456C126.184189,366.548859,124.489464,351.737701,125.776451,346L126.785812,341.5L126.892906,345.190979C126.951805,347.221039,127.368462,349.10968,127.81881,349.388031C129.219879,350.253937,133.317368,307.662659,132.750854,298.121918C132.202698,288.890381,129.509827,279.734894,126.048492,275.334503C124.691833,273.609802,124.319572,272.420532,125.003983,271.997528C125.61364,271.620758,122.373932,267.794464,117.411362,263.030212C110.446991,256.344116,109.267822,254.818039,111.37767,255.221359C115.040878,255.921631,114.624237,255.016769,109.509628,251.164337C101.170769,244.883331,92.24749,243.563721,82.406548,247.156235C77.847755,248.820465,74.089119,249.333862,65.934319,249.406235C56.025944,249.494171,55.111755,249.330307,51.239594,246.772385C45.212749,242.791107,42.028179,236.609879,39.845284,224.656113C37.508121,211.857544,35.401569,204.462646,32.821602,200L30.798168,196.5L33.494598,199C34.977634,200.375,37.02816,203.074997,38.051319,205C39.464016,207.657883,39.922241,208.012482,39.955803,206.47377C40.034683,202.857468,37.970982,187.58287,36.987,184.5C36.049984,181.56427,36.066647,181.544006,37.764736,183.554291C38.719131,184.684143,40.177731,186.630585,41.006069,187.87973C42.422024,190.014984,42.511776,189.742493,42.506069,183.325439C42.502731,179.571442,42.846882,175.651245,43.270847,174.613876C43.960106,172.927399,44.224724,172.884842,45.770847,174.211777C49.445034,177.365082,50.335045,177.471054,49.63242,174.67157C49.069225,172.427628,49.352669,171.949585,51.577477,171.391205C53.009853,171.031693,57.628395,171.414856,61.8409,172.242676C66.053406,173.07048,69.724998,173.540802,70,173.287811C70.275002,173.034836,69.375,171.905716,68,170.778671L65.5,168.729507L79.5,169.25705C87.199997,169.547195,94.175003,170.049911,95,170.374207C96.08506,170.80072,97.267776,169.338181,99.275467,165.087173C102.453468,158.358215,103.574684,153.153656,108.557724,122C110.537109,109.625,112.524521,99.119347,112.974205,98.654099C113.423882,98.188858,114.128708,99.763855,114.540489,102.154099L115.289177,106.5L117.682129,97.045792C118.99826,91.84597,120.257538,87.409126,120.480537,87.186127C120.703537,86.963135,121.272278,88.271431,121.744408,90.093452L122.602837,93.406227L124.917564,87.703117C127.174789,82.14167,129,80.329582,129,83.65004C129,84.648933,130.125122,83.746887,131.851151,81.364182C139.720779,70.500473,154.01387,64.050194,170.295456,64.014778C176.272873,64.001778,177.400696,64.309792,179.664368,66.573463C181.753586,68.662674,182.133209,69.791718,181.681793,72.573463C181.362839,74.538918,181.547089,76,182.113892,76C183.217789,76,186,82.078468,186,84.490227C186,86.546906,178.410675,94.715149,174.551865,96.81163C172.873337,97.723564,168.179596,98.701515,164.121323,98.984848L156.742645,99.5L150.347809,109.456192C143.023895,120.85891,140.140778,128.983047,139.308731,140.562531C138.607224,150.325363,139.904968,158.581009,144.643539,174.5C149.678009,191.413025,150.772461,193.676208,157.286301,200.643433C163.47377,207.261566,176.767776,218.565567,177.501099,217.83223C178.312897,217.020447,171.140091,207.254837,167.797028,204.620377C163.789841,201.46254,164.664474,201.287186,170.289841,204.120575C176.420029,207.208252,182.454956,212.398895,184.323898,216.191315L185.954453,219.5L185.977234,216.154373C185.989746,214.31427,185.069351,211.50177,183.9319,209.904373C181.387863,206.331604,182.272049,206.207382,186.623337,209.526276C188.680786,211.095566,190.398865,213.599243,191.158752,216.135529L192.382034,220.218491L193.599915,214.247986C194.269745,210.964218,195.758789,206.432983,196.90889,204.178589C198.059006,201.924179,199,199.386749,199,198.539841C199,195.753021,200.758636,196.93187,202.29715,200.75L203.808228,204.5L204.515732,201.737198C204.904861,200.217667,205.014557,197.552536,204.759491,195.814713L204.295761,192.655029L207.647873,196.312836L211,199.970627L211,197.074402C211,195.481491,210.147186,191.438095,209.104858,188.089096C208.062531,184.740097,207.58963,182,208.05397,182C209.298721,182,213.584381,188.041092,214.793442,191.5C215.739609,194.206757,215.849823,193.884949,215.921051,188.20784C216.02742,179.729675,213.559814,168.362854,209.961884,160.757523C205.252426,150.802628,206.279205,141.606491,212.893631,134.5C216.951706,130.140045,219.231171,125.896423,224.442398,113C235.126846,86.558807,242.280899,71.170563,243.645599,71.694244C244.390518,71.980095,245.009888,73.178329,245.021957,74.356987C245.037277,75.851341,245.621246,75.228325,246.951263,72.298714C248.00029,69.988007,250.127914,65.938004,251.679306,63.298714L254.5,58.5L255,62L255.5,65.5L258.261871,60.801685C261.074249,56.017445,263.923309,53.151516,262.701324,56.335957C261.831055,58.603878,263.299225,58.43182,265.491913,56.008926C271.19046,49.712097,284.311035,45.508533,295.975006,46.242771C312.146088,47.260727,318.865936,51.218212,316.239319,58.176926C315.307739,60.644989,315.385834,61.659241,316.656921,63.599152C319.838501,68.454865,316.280762,74.983871,308.518463,78.534416C302.386505,81.339241,294.805298,81.781143,289.664948,79.633369L286.394135,78.266739L277.689026,86.626511C267.499725,96.411621,263.078583,102.903091,259.269073,113.672165C256.547638,121.365295,256.503326,121.862457,256.693939,142.562637C256.868347,161.504944,257.109161,164.222977,259.08609,169.562637C262.589447,179.025116,274.302246,196.112335,280.978241,201.5C288.504761,207.574081,296.03006,218.247238,298.653046,226.568237C300.222473,231.547089,300.431,231.766785,302.407379,230.524063C303.558319,229.800369,305.512939,228.90593,306.750977,228.536423C308.835175,227.914383,308.927795,228.059708,308.000977,230.497391C306.373169,234.7789,306.674591,236.244522,308.934265,235.035187C311.758514,233.523682,311.800873,233.587128,311.247101,238.5C310.750702,242.904236,311.296326,243.734741,313.687439,242.21434C315.223572,241.237579,316.972839,236.60759,317.098877,233.184906C317.179199,231.003143,317.465302,231.343292,318.625458,235C321.138885,242.922073,322.252472,253.109268,321.223755,258.769226C320.700867,261.646149,320.589355,264,320.976013,264C321.910553,264,324,259.338104,324,257.25296C324,255.978882,324.271637,255.871643,325.185089,256.785065C325.906311,257.506317,326.520264,262.379333,326.753693,269.235077C327.121429,280.036072,326.115906,286.526031,322.529419,296.5C322.133881,297.600006,323.090454,296.590729,324.655121,294.257202C327.928619,289.375183,329,288.954102,329,292.549652C329,296.410797,331.672211,300.779114,335.126984,302.565674C336.828217,303.445404,337.912262,303.667053,337.53598,303.058197C337.159668,302.449341,337.164856,300.525879,337.547485,298.783844L338.243164,295.616455L339.646912,298.295654C341.370361,301.584961,345.817169,304,350.15033,304C352.677856,304,353.133331,303.733337,352.200012,302.799988C351.025452,301.625458,350.503265,298,351.508667,298C351.788422,298,353.880951,299.350006,356.158691,301C358.454132,302.662811,361.570374,304,363.150024,304C366.491943,304,366.556946,303.779663,364.252716,300.262939C362.567749,297.691376,362.57254,297.621979,364.386963,298.318237C368.002502,299.705658,373.076904,297.796295,378.813385,292.889954C391.109039,282.373657,411.759308,275.313965,444.128326,270.56073C449.973938,269.702332,455.316528,269,456.000793,269C458.566376,269,454.796814,266.019562,450.631378,264.754608C446.646362,263.544434,446.907379,263.4823,458,263L469.5,262.5L466,260.168518L462.5,257.837006L474.662323,258.271851C487.604401,258.734558,488.91507,258.140045,483.203461,254.397644C480.723236,252.772552,480.685638,252.631989,482.537415,251.907944C483.616852,251.485886,486.164551,251.108948,488.198975,251.070282L491.897949,251L490.379761,247.366455C488.944305,243.930954,488.960724,243.774445,490.680786,244.495041C494.267426,245.99765,497,246.238327,497,245.051651C497,244.401825,494.767822,239.729431,492.039581,234.668579C485.882233,223.246735,481.164948,211.922638,480.335419,206.572159L479.704102,202.5L481.852051,204.404984C484.488373,206.743118,484.498169,206.171692,481.96051,198.075455C480.724396,194.131729,480.32312,191.418335,480.921356,191.048599C481.495392,190.693832,480.48172,186.924225,478.454987,181.876602C476.5625,177.163269,474.610657,170.65036,474.117584,167.403458C473.624481,164.156555,472.271332,158.923737,471.110535,155.774979C469.949738,152.626221,469.010254,149.02623,469.022766,147.774979C469.04245,145.809952,469.265686,145.946609,470.661285,148.778137C472.670349,152.854202,473.281128,152.467041,471.98291,147.940369C470.745911,143.627243,470.708405,138,471.916656,138C472.420837,138,473.060303,138.5625,473.337708,139.25C473.615143,139.9375,473.877625,138.78595,473.921051,136.690979C473.964478,134.596024,474.401825,133.13031,474.892944,133.433838C475.775635,133.97937,479.038116,118.352203,480.997955,104.191193C481.554291,100.171349,482.645233,95.671349,483.422302,94.191193C485.313751,90.588379,491.691254,84.628105,495.954803,82.478592C501.936188,79.46302,513.911011,79.450806,521.149841,82.452881C522.412354,82.976479,523.078552,82.292076,523.98761,79.537491C525.57312,74.733337,533.527832,67.067963,540.692078,63.440617C546.077637,60.713856,547.299988,60.500748,557.5,60.510254C571.866577,60.523647,574.460205,61.666908,574.596008,68.046196C574.648804,70.526604,575.211304,73.526337,575.846008,74.712273C577.477844,77.761345,577.277039,83.15947,575.433899,85.790886C573.206909,88.970345,566.352295,92.201569,561.138184,92.529762C558.080688,92.722214,556.343445,93.388031,555.592896,94.655006C553.904541,97.505226,554.427734,125.680115,556.416382,139C557.360718,145.324997,560.384888,161.975006,563.136841,176C567.737427,199.446625,568.464294,202.071808,572.16333,208.601151C577.790894,218.534485,587.131531,229.31337,596.287048,236.439224C600.638855,239.826279,606.519226,245.702682,609.616699,249.759796C614.777405,256.519409,617,257.928589,617,254.440979C617,249.732346,622.485596,256.440613,627.486877,267.265289C631.474121,275.895081,632.706116,277.112,634.712708,274.402771C636.06488,272.577148,636.242615,272.634064,639.09729,275.806366C640.733704,277.624878,642.340088,280.450562,642.667114,282.085632C643.248047,284.990082,643.318237,285.021484,645.71759,283.449371C647.068359,282.564331,648.281799,281.988647,648.414185,282.170105C648.546509,282.351532,649.21521,283.909637,649.900085,285.632507C650.584961,287.355408,652.401306,289.968323,653.93634,291.439026L656.727417,294.113007L657.330078,291.099579C657.727844,289.11084,658.947449,287.561401,660.916748,286.54306C664.920654,284.472565,664.965759,284.501648,663.773682,288.385773C662.742554,291.745544,663.44342,299.015869,664.795288,298.982727C665.182861,298.973206,666.451782,297.602509,667.615051,295.936737L669.730164,292.90802L670.404846,297.994263C671.222534,304.158142,672.856567,308,674.660522,308C675.397217,308,676.006897,306.987488,676.01532,305.75C676.023743,304.512512,676.382202,302.946564,676.81189,302.270142C678.989807,298.841614,692.877991,316.474884,697.083069,328.007599C699.394653,334.347412,701.539856,335.68158,702.604065,331.441345L703.246277,328.882721L705.634338,331.126221C708.493652,333.812378,710.311951,339.931458,709.811218,345.182343C709.421448,349.269318,710.260071,350.086884,711.932007,347.25C712.831543,345.723724,713.091614,345.691742,713.96637,347C715.45343,349.223969,715.2099,354.693451,713.474304,358.049652C712.096619,360.713867,712.10144,361,713.523987,361C716.308044,361,720.52887,358.248871,722.020264,355.462067L723.469849,352.75354L724.090149,355.786285C724.718445,358.858398,723.883972,366.04715,722.527283,369.25C721.910156,370.706909,722.322937,371,724.991821,371C727.303101,371,729.024475,370.114807,731.161133,367.827515L734.124695,364.654999L733.418396,367.577515C732.274231,372.312073,727.477661,381.216125,723.062317,386.80191C720.80249,389.660858,719.159668,392,719.411621,392C719.663635,392,720.992004,391.573334,722.363586,391.051849C724.775024,390.13504,724.838928,390.217682,724.297852,393.551849C723.262878,399.929901,728.603638,396.678436,732.013123,388.854828C732.808228,387.030243,732.949219,388.007751,732.63916,393.196106C732.352722,397.988159,731.351929,401.78775,729.119507,406.55838C727.403748,410.224762,726,413.429657,726,413.680359C726,413.931061,727.349976,413.174896,729,412C732.643555,409.405548,732.799194,410.085663,729.539795,414.358917C726.129395,418.8302,722.225281,427.671875,721.419128,432.75C720.704895,437.248566,720.99585,437.607758,724.035889,435.980774C725.610779,435.137909,725.339905,436.214447,722.470154,442.202576C718.145447,451.226715,717.8302,456.921082,721.454529,460.545441C724.406799,463.497681,725.456909,463.558319,731.122864,461.103821C738.251953,458.015503,770.15863,451.753632,785.238342,450.483398C791.145935,449.985748,794.155457,450.223053,797.958862,451.486328C802.858459,453.113708,808,457.733948,808,460.509338C808,461.255066,808.860718,462.138397,809.91272,462.47229C815.099548,464.11853,829,483.903442,829,489.639771C829,492.92868,811.201477,506.941071,787.5,522.31189C778.296265,528.28064,775.504089,532.278931,777.180725,537.088562C777.738953,538.68988,778.687622,540,779.28894,540C779.890259,540,779.554871,540.60498,778.543701,541.344421C777.147644,542.365234,776.876038,543.370056,777.415405,545.519043C778.039917,548.007263,777.93689,548.192566,776.562866,547.052185C775.18457,545.908325,775,546.293396,775,550.312439C775,556.372192,773.929688,558.886841,768.52771,565.519043C764.684387,570.23761,764.148499,571.408936,765.056763,573.106018C765.647522,574.209839,766.776367,575.360718,767.56543,575.663452C769.653931,576.464905,769.321228,578,767.059021,578C764.003357,578,763.585815,579.930237,766.069519,582.574036L768.348633,585L766.153992,585L763.959351,585L765.809692,588.75C767.260193,591.689575,767.440063,593.091187,766.64209,595.235474C765.783997,597.541443,765.986328,598.356506,767.930603,600.426147C769.199219,601.776489,772.681702,604.077332,775.669556,605.539185C782.469727,608.86615,785.714966,613.5401,787.070923,621.959717C787.924377,627.259094,787.8255,628.617371,786.43158,630.744751C784.824036,633.198181,784.551819,633.249084,775.55426,632.778442C763.663269,632.156494,757.261536,629.337891,748.388733,620.81781C742.776917,615.429016,742.040771,614.980591,743.004395,617.537781C744.064148,620.350037,743.882996,620.272156,739.42627,616C735.632141,612.362976,734.83551,611.931458,735.272339,613.75C735.976868,616.683167,735.223389,616.588196,731.804749,613.312927L729,610.625793L729.043884,614.062927C729.068054,615.953308,729.786255,619.299988,730.639893,621.5C735.728455,634.61377,735.94104,642.539734,731.350525,647.995239C728.325195,651.590698,726.942566,651.724121,723.529175,648.75z"/>
    <path transform="matrix(-0.26455,0,0,-0.26455,-608.90033,-251.224365)" style="stroke:#000000;stroke-width:0.05mm;fill:none" d="M513.165771,138.602432C513.812134,139.001923,514.010071,138.531235,513.681763,137.375229C512.091125,131.773453,511.860504,128.704239,512.978333,128.013412C513.874451,127.459557,513.902405,126.311386,513.090759,123.388329C512.497009,121.249748,512.008667,117.639984,512.005554,115.366631C512.00116,112.077599,511.591644,111.12648,510.001007,110.71051C508.90155,110.422997,507.732971,110.623024,507.404205,111.155006C507.075409,111.686989,506.31897,116.514351,505.723236,121.882469C504.516449,132.75618,505.539734,138.86322,509.393158,143.785492L511.5,146.476715L511.808624,142.215561C512.001038,139.558807,512.512024,138.19841,513.165771,138.602432z"/>
</svg>
