<svg xmlns="http://www.w3.org/2000/svg" width="412.6028" height="250.3496" viewBox="0 0 412.6028 250.3496">
  <defs>
    <style>
      .cls-1 {
        fill: #231f20;
        stroke: #231f20;
        stroke-miterlimit: 10;
        stroke-width: 0.25px;
      }
    </style>
  </defs>
  <g id="Layer_2" data-name="Layer 2">
    <g id="Layer_1-2" data-name="Layer 1">
      <path class="cls-1" d="M65.5667,20.8769C69.02,12.91,82.8544-1.1674,83.5871.2205A162.0939,162.0939,0,0,1,89.589,22.6851q2.5946.0237,5.1892.0474c-1.2748.5818.08,2.4372,1.3584,3.0113l5.3577,2.4059a215.8588,215.8588,0,0,0,63.1939-.3849l-3.4355,1.2981,64.0822,2.7559c6.1812.2658,13.274.1612,17.32-4.52l49.9566-5.2516c13.0476-1.3716,26.2179-2.7435,39.2557-1.2823C361.95,24.1366,389.7489,43.5989,403.21,70.713c-1.3816.4205-1.135,2.5044-.307,3.6878s2.0119,2.4767,1.5683,3.8511-3.2622.2573-2.1291-.6382a17.0732,17.0732,0,0,0,8.6014,9.0132A10.2024,10.2024,0,0,0,409.0918,99.43q-.4212-2.63-.8426-5.259-.15,4.2631-.3,8.5262a25.1268,25.1268,0,0,0-5.6827,5.8392,25.8838,25.8838,0,0,0-4.5084,13.3668c-2.5957-2.2243-4.2621-1.9641-4.8-1.8286-3.4024.8573-4.3494,7.4834-4.1143,11.4286a18.1932,18.1932,0,0,0,1.6,6.4,2.5922,2.5922,0,0,0-2.2857-.2285c-3.9434,1.9088-1.04,20.47,7.5371,35.1939,4.7291,8.1184,8.3443,9.5735,11.3684,14.46,10.683,17.26,3.499,39.57-3.917,58.4657a58.762,58.762,0,0,0-1.1591-22.8366,45.757,45.757,0,0,1-4.7664,23.0918l-2.61-9.438a14.8066,14.8066,0,0,1-3.9764,12.3274,35.9226,35.9226,0,0,0-2.5277-15.3858,31.47,31.47,0,0,0-4.8973,10.2329l-.3191-23.8088-6.2821,11.8762a100.2087,100.2087,0,0,1-4.2037-18.79l-3.914,7.3488-.9447-14.5831q-.8823,3.6624-1.7648,7.3247a51.94,51.94,0,0,0-2.0039-15.1033c-.0354,8.3156-.1125,16.8575-3.1733,24.5893s-9.83,14.5806-18.1214,15.21c-3.3114,6.7821-10.705,10.8633-18.1694,11.9793s-15.0628-.3106-22.4049-2.0594a10.381,10.381,0,0,1-4.4165-1.8291c-3.8732-3.273-.9161-10.1027,3.7044-12.1922,5.1448-2.3265,8.4856-.7991,14.977-2.1809,10.4248-2.2192,20.43-13.736,21.0293-25.9959.5326-10.8931-6.53-18.8993-8.0154-20.5832-4.0127-4.5488-6.4063-4.4576-12.1807-9.2022-2.711-2.2275-6.4241-5.7321-14.7907-18.6835a302.6907,302.6907,0,0,1-16.4836-28.932l-5.8246,8.5088c-1.0045-2.9573-5.0507-3.9555-7.87-2.6111s-4.53,4.2843-5.5633,7.2315c.1319-2.483-3.5225-3.6257-5.5847-2.2364s-2.8,4.0274-3.3889,6.4433l.9105-5.3632c-.7035,1.9115-1.5347,3.9781-3.3109,4.9748s-4.6615-.0178-4.5837-2.0531l-4.83,3.7959-7.8943,5.7607q.27-2.0649.54-4.13l-8.2256,5.3122a31.6934,31.6934,0,0,0-17.5716,11.6375q-.8991-1.9572-1.7981-3.9145a67.2452,67.2452,0,0,0-21.8963,29.516c-1.2965,3.4476-2.38,7.1259-4.8927,9.8187-2.4848,2.6625-6.052,4.0124-8.923,6.253-2.9973,2.3392-5.1631,5.5907-8.0614,8.0515-8.8894,7.5472-22.0692,6.0407-33.5692,4.109l2.9757-8.1929c-1.1655-.7025-1.8034-1.5719-2.9688-2.2745l11.945-2.1936a34.37,34.37,0,0,0,7.3379-1.916c7.48-3.1894,11.6306-11.0307,17.19-16.9643,1.7342-1.8508,3.6357-3.5379,5.3924-5.3675a47.83,47.83,0,0,0,12.6068-25.2094c.5053-3.0844.7048-6.21.9036-9.3288a23.318,23.318,0,0,0-8.6667.5l.0054-1.0285a159.1108,159.1108,0,0,0-21.4663,5.9768c-7.8526,2.663-15.6369,5.5568-23.6391,7.7292a22.7457,22.7457,0,0,0-7.074,2.7253c-4.9552,3.3992-6.0536,10.2227-5.8913,16.23.06,2.2174.77,5.04,2.973,5.2993,1.4312.1683,3.1046-.8807,4.1917.0652a2.7474,2.7474,0,0,1,.6444,2.2135A19.9816,19.9816,0,0,1,122.72,202.128a4.39,4.39,0,0,1-1.7756,1.0088,4.98,4.98,0,0,1-3.3561-.9123,19.7857,19.7857,0,0,1-6.0137-4.4108c-2.2955-2.8162-2.8538-6.6222-3.3274-10.2244a55.8493,55.8493,0,0,1-.7-9.3592,55.89,55.89,0,0,1,2.4765-12.6973,34.6068,34.6068,0,0,1,2.0806-6.04c1.8942-3.8706,5.1441-6.8772,8.3213-9.7884,1.5307-1.4025,2.5344-3.2795,4.148-4.5858a33.2527,33.2527,0,0,1,4.0526-2.5026c4.7437-2.8241,8.41-7.1081,11.9855-11.3145,2.4279-2.8562,3.355-6.0451,3.0993-6.2074-.3986-.253-4.5783,6.1731-5.382,5.7235-.6839-.3826,1.59-5.4586,1.1623-5.6526-.2394-.1087-1.0584,1.4388-2.0765,2.91-2.7867,4.0264-7.0668,7.4822-8.3519,6.6789-.9166-.5729.5365-2.8748-.9072-4.4377a4.22,4.22,0,0,0-4.3505-1.1331c-2.0445.6979-3.43,3.0014-5.5875,3.1113a10.8763,10.8763,0,0,0-.3-3.8579l-5.042,2.4922-3.1018-4.4691a.9046.9046,0,0,0-1.5091-.3068l-3.0628,1.9178c-1.3688-.971-.7682-4.0072-2.4461-4.04a2.113,2.113,0,0,0-1.0284.3527l-3.8625,2.134c.069-1.5334.0972-3.2063-.8285-4.4307s-3.1937-1.44-3.8163-.0375c-.3819-2.1727-3.7694-2.9684-5.0786-1.193a8.1991,8.1991,0,0,0-.7613-3.8312l-2.5458.9021-1.6165-5.6707A3.8143,3.8143,0,0,0,80.5,114.321a4.8428,4.8428,0,0,0-.4936-2.9079,6.44,6.44,0,0,0-3.76.6467,8.1394,8.1394,0,0,0-1.0347-4.0651l-1.7066.3336-1.4775-3.5694c-1.2374-.175-2.0175,1.2767-3.1051,1.8923-1.6084.91-3.6822-.2023-4.76-1.7037s-1.5831-3.3551-2.6712-4.8489a15.0033,15.0033,0,0,0-4.1183-3.4662c-8.3129-5.4343-19.4444-8.529-29.2921-7.2413a18.4027,18.4027,0,0,1-5.9428-.5143,13.2633,13.2633,0,0,1-7.46-3.8222c-.8508-.897-2.2122-5.2651-.9969-5.492,1.4861-.2775,7.6.0571,7.4286-.8-.09-.4514-4.8068.3327-6.6062-.4662-1.77-.5174-3.3952-1.1878-5.1652-1.7053a18.5465,18.5465,0,0,1-3.6-2.1714c-.696-.6133-.36-.9065-1.3715-2.8571-1.51-2.9115-3.023-2.7065-3.8285-5.8858-.1361-.5368-.5847-2.13-.3429-2.6285.2858-.5888.7853-2.109,1.3714-2.4,6.6766-3.315,12.8638-5.2825,19.9723-7.5262a33.45,33.45,0,0,0,7.474-2.8757c3.601-2.19,4.3973-3.5728,4.7823-7.77.0536-.5842,2.7846-3.1009,2.9714-3.6571.5421-1.6139,2.8011-3.0493,4.3429-3.7714A31.1854,31.1854,0,0,0,50.481,27.62c2.438-2.8091,2.1371-5.489,1.9083-9.2015-.0576-.9346.0579-2.2419.9922-2.3061a10.5835,10.5835,0,0,1,2.5852-.0353A78.5105,78.5105,0,0,0,65.5667,20.8769Z"/>
    </g>
  </g>
</svg>
