<?xml version="1.0" encoding="UTF-8"?>
<svg xmlns="http://www.w3.org/2000/svg" width="77.905mm" height="63.227mm" viewBox="-1279.691528 -668.367432 77.905396 63.227173">
    <path transform="matrix(0.26462,0,0,-0.26462,-1280.485352,-599.962097)" style="stroke:#000000;stroke-width:0.05mm;fill:none" d="M240.5,257.644287C237.199997,256.954346,233.375,255.783157,232,255.041626C224.528259,251.012131,209.959091,237.398788,199.95105,225.095276C197.277237,221.808197,193.900253,218.958725,191.332199,217.822754C187.074707,215.939453,184.879227,213.708786,181.845749,208.18428C179.212723,203.389053,176.005783,201.753418,171.985107,203.155029C169.120346,204.153702,167.007645,203.905899,157.338898,201.437225L146.040344,198.552399L120.422676,201.420868C90.960541,204.719803,80.730682,204.583893,62,200.644669C47.701637,197.637589,40.662014,194.996719,32.72834,189.663589C25.271338,184.650894,19.871002,177.767242,16.500776,168.97879C14.081078,162.669006,13.999403,161.663956,13.9816,137.97879L13.9632,113.5L8.4816,101.090096C5.46672,94.264641,3,87.305016,3,85.624252L3,82.568321L8.57082,88.034157C16.001478,95.324791,20.511782,101.587273,22.050165,106.75C23.555065,111.800354,25.001486,112.291321,24.996262,107.75C24.991985,104.032341,23.088713,100.614899,15.996172,91.589813C13.236072,88.077652,10.097521,83.214035,9.021614,80.781769C7.078528,76.389099,7.078819,76.225922,9.065084,56.429733L11.064748,36.5L14.17422,33.637356C16.733206,31.281502,17.926445,30.860924,20.914331,31.261684C25.329264,31.853851,35,35.897984,35,37.152065C35,37.650242,32.127789,40.987137,28.617306,44.567387C25.009798,48.246593,21.993725,52.281372,21.680592,53.847038C20.843826,58.030869,22.683125,64.629395,26.799423,72.210983C31.177773,80.275223,33.086147,80.659943,34.351582,73.733459C34.828068,71.125359,37.11272,65.304878,39.428589,60.799057C42.832417,54.176472,44.200775,52.448128,46.56963,51.779377C49.591057,50.926395,60.444195,52.417461,63.068905,54.046139C65.350861,55.462132,61.042587,59.047161,55.340652,60.477024C51.184467,61.51926,50.234554,62.243004,48.622723,65.595451C43.534954,76.177498,46.315865,83.275078,61.570251,98.640785C73.026657,110.180801,79,119.945824,79,127.134354C79,130.326385,79.346642,131,80.989273,131C84.445732,131,93.205002,127.17778,96.096085,124.407944C99.138428,121.493195,100.257385,121.509407,108.214043,124.583466C113.523903,126.634941,112.43232,126.86306,132.5,119.508179C138,117.492409,147.658966,114.511406,153.964371,112.88372C160.269775,111.256042,165.75238,109.40065,166.147934,108.760628C167.803131,106.082481,168.215576,91.228264,167.154785,72.5L166.021957,52.5L169.582458,37.842392L173.14296,23.184786L178.006638,21.092489C182.064941,19.346657,183.336426,19.191597,185.68515,20.156084C187.233322,20.791822,190.524994,21.579279,193,21.905987C197.332596,22.477901,197.511353,22.636309,197.805237,26.163956C198.084564,29.516903,197.726349,30.092194,193.58522,32.941368C185.039185,38.821194,181.701111,45.534309,183.944061,52.33049C186.599457,60.376427,190.633377,59.601826,195.050858,50.197742C199.74234,40.210327,200.036621,39.994423,208.904984,40.033268C214.995529,40.059948,216.974838,40.461948,218.89711,42.062687C220.971558,43.790138,221.142563,44.391697,220.167511,46.531715C218.755676,49.630341,213.361404,52.991333,209.79216,52.996262C205.895889,53.00164,201.505707,60.53146,202.326538,65.800888C202.643463,67.835396,203.804047,75.640923,204.90564,83.1465C207.615143,101.607613,210.986374,111.444191,217.669678,120.389473C224.161591,129.078598,226.602737,134.118271,231.614044,149.177338C235.374054,160.476212,235.604843,160.874619,238.735062,161.469849C241.425827,161.981522,243.128311,163.718277,248.853989,171.792511C256.812653,183.015656,262.429443,189.912064,265.181305,191.839539C266.717651,192.915649,267.700623,192.952438,269.955994,192.018234C272.536987,190.949142,273.451691,191.232941,279.984863,195.129807C289.98526,201.094757,294.689606,207.212646,296.9245,217.159485C297.779785,220.966095,297.604034,221.999954,295.487732,225.611176C291.566803,232.301727,286.663361,236,281.713501,236C277.699554,236,277.376495,236.228653,275.001953,240.75C267.452393,255.125214,255.782684,260.839417,240.5,257.644287z"/>
</svg>
