<?xml version="1.0" encoding="UTF-8"?>
<svg xmlns="http://www.w3.org/2000/svg" width="99.277mm" height="63.555mm" viewBox="-741.782776 -410.751434 99.277405 63.554901">
    <path transform="matrix(-1,0,0,-1,-772.115906,-511.392548)" style="stroke:#000000;stroke-width:0.05mm;fill:none" d="M-104.245827,-111.301392C-104.104721,-111.477783,-103.893059,-111.654167,-103.751953,-111.759987C-102.587784,-112.641937,-99.765564,-114.123611,-98.49556,-114.511658C-97.260841,-114.899719,-97.260841,-114.934998,-97.260841,-114.934998C-97.260841,-114.934998,-97.895836,-114.934998,-98.389732,-114.82917C-98.883621,-114.723343,-96.943336,-115.464157,-96.943336,-115.464157C-96.943336,-115.464157,-97.613617,-115.640549,-98.848335,-115.569992C-100.11834,-115.499443,-99.130554,-116.204987,-97.966393,-116.487213C-96.837502,-116.769432,-93.627228,-117.580833,-92.42778,-117.933609C-91.298882,-118.286377,-87.841667,-119.944443,-86.818611,-119.732773C-85.795563,-119.521111,-84.948891,-118.886108,-83.608337,-118.921387C-82.267776,-118.991951,-81.068336,-119.203613,-80.680275,-119.415283C-80.151108,-119.732773,-78.528328,-119.873894,-77.646385,-119.873894C-75.318054,-119.873894,-71.860832,-118.780273,-68.932777,-118.745003C-66.286942,-118.745003,-63.923332,-118.42749,-62.265278,-118.886101C-60.854168,-119.062492,-56.726669,-119.238876,-55.174442,-118.462761C-53.586941,-117.686653,-48.818707,-115.304207,-47.478149,-113.081718C-46.102318,-110.859215,-44.938152,-104.121155,-42.115929,-102.392548C-39.293705,-100.699219,-36.400928,-102.321999,-34.284264,-103.133385C-32.238152,-103.980049,-30.333153,-104.191719,-30.333153,-104.191719L-32.661488,-104.368103C-32.661488,-104.368103,-33.437595,-106.308388,-32.449821,-106.555336C-31.426764,-106.766998,-31.03871,-106.590614,-31.03871,-106.590614C-31.03871,-106.590614,-32.555653,-107.049217,-33.261211,-107.648949C-34.002041,-108.283943,-32.4851,-107.754776,-31.991211,-107.719505C-31.462044,-107.684227,-31.49732,-107.719505,-31.49732,-107.719505C-31.49732,-107.719505,-33.190655,-108.98951,-33.790375,-109.977272C-34.425377,-111.000336,-34.531208,-111.882278,-33.508152,-111.458954C-32.555653,-111.035614,-31.955931,-110.894508,-31.955931,-110.894508C-31.955931,-110.894508,-33.190651,-111.847008,-34.107876,-113.363953C-35.025097,-114.916168,-37.318153,-117.562004,-37.318153,-117.562004L-37.494541,-117.597282L-35.236763,-116.680069C-35.236763,-116.680069,-36.083431,-117.597282,-37.000652,-118.12645C-37.953152,-118.655617,-37.953152,-118.655617,-37.953152,-118.655617C-37.953152,-118.655617,-36.824261,-118.479225,-35.977596,-118.585052C-35.166206,-118.690887,-35.166206,-118.726166,-35.166206,-118.726166L-35.236759,-118.690887C-35.236759,-118.690887,-36.471481,-118.726166,-37.600368,-119.53756C-38.764538,-120.313667,-38.729256,-120.490059,-38.729256,-120.490059C-38.729256,-120.490059,-37.741478,-121.477829,-37.812035,-122.042274C-37.882591,-122.571449,-37.882591,-122.571449,-37.882591,-122.571449C-37.882591,-122.571449,-38.058979,-121.618935,-38.764534,-121.548386C-39.434814,-121.477829,-41.269257,-122.536163,-41.269257,-122.536163C-41.269257,-122.536163,-44.020924,-124.158943,-45.573147,-124.370613C-47.125366,-124.546997,-48.148426,-124.758667,-48.148426,-124.758667C-48.148426,-124.758667,-46.137592,-125.358398,-45.820091,-125.993393C-45.502594,-126.628387,-45.502594,-126.628387,-45.502594,-126.628387C-45.502594,-126.628387,-46.243427,-125.534775,-48.042591,-125.993393C-48.571758,-126.099213,-49.424164,-126.682503,-50.411942,-126.894173C-48.471664,-130.845291,-50.729439,-131.550842,-49.283054,-136.313339C-48.683334,-138.324173,-48.824444,-142.063614,-49.247776,-144.462509C-49.847496,-147.778625,-51.50555,-149.189728,-51.823055,-149.965851C-51.399723,-151.412231,-51.011665,-152.541122,-50.799999,-153.31723C-50.376667,-154.657791,-51.117496,-155.539734,-51.399723,-156.703903C-51.752499,-157.868073,-51.787781,-160.831406,-51.893608,-161.290009C-51.964161,-161.783905,-52.069996,-162.207245,-52.91666,-162.136673C-53.445827,-162.066116,-54.292492,-162.171967,-54.927494,-162.277786C-54.962772,-162.595291,-54.962772,-162.806961,-54.998047,-162.912781C-55.103882,-163.371399,-55.209717,-163.794724,-56.056381,-163.724167C-56.867771,-163.618347,-58.384716,-163.935837,-58.913883,-164.07695C-59.44305,-164.18277,-59.79583,-164.218063,-60.25444,-164.18277C-60.748325,-164.112213,-61.030552,-163.724167,-61.348053,-163.759445C-61.700832,-163.759445,-62.47694,-163.865265,-62.194717,-163.265549C-61.841942,-162.701111,-60.183887,-162.101395,-58.98444,-161.466385C-57.855549,-160.83139,-58.137775,-156.24527,-58.419991,-154.939987C-58.63166,-153.599442,-58.949158,-153.105545,-60.713047,-151.729721C-62.512215,-150.353882,-66.075272,-147.637497,-66.075272,-147.637497L-65.793045,-149.119156C-65.793045,-149.119156,-66.322212,-148.51944,-67.803879,-147.1436C-68.403595,-146.579163,-69.038597,-145.767776,-69.603043,-144.921112C-69.603043,-144.991669,-69.638329,-145.026932,-69.673599,-145.06221C-70.13221,-145.873596,-70.167488,-145.873596,-70.167488,-145.873596C-70.167488,-145.873596,-69.744156,-145.132767,-69.955818,-144.391937C-69.991096,-144.321365,-70.026375,-144.286102,-70.061653,-144.215546C-70.167488,-144.321365,-70.34388,-145.697205,-70.661377,-145.908875C-71.119987,-146.191086,-70.767212,-146.014694,-70.767212,-146.014694C-70.767212,-146.014694,-70.273323,-145.344421,-70.484985,-144.4272C-70.696655,-143.509979,-71.437485,-142.592743,-71.437485,-142.592743C-71.437485,-142.592743,-71.896095,-144.533035,-72.672203,-144.921082C-73.41304,-145.273865,-73.730537,-145.097473,-74.118599,-145.732468C-74.541931,-146.296921,-74.541931,-146.473312,-74.541931,-146.473312C-74.541931,-146.473312,-74.577209,-145.944138,-74.36554,-145.16803C-74.15387,-144.427185,-75.423874,-146.473312,-75.423874,-146.473312C-75.423874,-146.473312,-75.459152,-145.414978,-75.071098,-144.74469C-74.647766,-144.074417,-76.552765,-145.132751,-78.845818,-145.520813C-81.13887,-145.944153,-84.631371,-146.191086,-84.84304,-147.108307C-85.019432,-148.025543,-85.125259,-148.343033,-85.125259,-148.343033C-85.125259,-148.343033,-85.231094,-147.46109,-85.05471,-146.896637C-84.878319,-146.296921,-86.67749,-148.025543,-86.46582,-148.766357C-86.25415,-149.507202,-86.25415,-149.507202,-86.25415,-149.507202C-86.25415,-149.507202,-87.030258,-148.519424,-87.20665,-147.24942C-87.347755,-146.014694,-86.818588,-149.471924,-86.818588,-149.471924C-86.818588,-149.471924,-87.771088,-147.03775,-87.771088,-146.649689C-87.735809,-146.226364,-89.07637,-147.637466,-88.864708,-148.272476C-88.653038,-148.907471,-88.582481,-149.083862,-88.582481,-149.083862C-88.582481,-149.083862,-88.723587,-149.260254,-89.182205,-148.20192C-89.28804,-147.99025,-89.499702,-147.813858,-89.711372,-147.743301C-90.593307,-149.577759,-91.581093,-151.447479,-91.933868,-152.294144C-92.604149,-153.881638,-92.992203,-158.855804,-92.992203,-160.61969C-92.956924,-162.348312,-93.73304,-161.748596,-94.826653,-162.030807C-95.461647,-162.207199,-96.414154,-162.313019,-97.260818,-162.383591C-97.401924,-163.441925,-98.107483,-163.018585,-99.059982,-163.265533C-100.188881,-163.583023,-102.09388,-163.653595,-102.940536,-163.759415C-103.751923,-163.829971,-103.893044,-163.724136,-103.71666,-163.547745C-103.50499,-163.371353,-104.457489,-163.547745,-104.845551,-163.547745C-105.233597,-163.512466,-105.410004,-163.512466,-105.515823,-163.124405C-105.621651,-162.736359,-104.986656,-162.066071,-104.669159,-161.678024C-104.38694,-161.289963,-103.152222,-161.078293,-102.799454,-160.93718C-102.411377,-160.83136,-103.152222,-160.549133,-103.152222,-160.549133C-103.152222,-160.549133,-102.658333,-160.549133,-102.093887,-160.549133C-101.529442,-160.549133,-101.282501,-159.878845,-100.859161,-158.996902C-100.435829,-158.11496,-100.259438,-156.986069,-100.118332,-155.963013C-99.977219,-154.975235,-100.330002,-153.775787,-100.118332,-152.752731C-99.977219,-151.870789,-100.012497,-148.201904,-100.15361,-146.191071C-100.471107,-146.29689,-100.929733,-146.50856,-101.388329,-146.826065C-102.305557,-147.566895,-102.799454,-147.637451,-102.799454,-147.637451C-102.799454,-147.637451,-102.517227,-147.602173,-102.517227,-147.072998C-102.517227,-146.543839,-102.587784,-146.191055,-102.870003,-146.473267C-103.152222,-146.684937,-104.104721,-146.82605,-104.104721,-146.82605C-104.104721,-146.82605,-103.222778,-146.473267,-103.751953,-145.944107C-104.281113,-145.414948,-105.26889,-145.591324,-106.186111,-145.203278C-107.068047,-144.815216,-108.055832,-144.144943,-108.443893,-142.980774C-108.867233,-141.81662,-109.043617,-141.146332,-109.043617,-141.146332C-109.043617,-141.146332,-109.25528,-143.36882,-109.043617,-143.79216C-108.867233,-144.2155,-109.92556,-141.463821,-110.313606,-140.123276C-110.666397,-138.782715,-110.595833,-141.746048,-110.419441,-142.310501C-110.278343,-142.804382,-110.243057,-142.839661,-110.243057,-142.839661C-110.243057,-142.839661,-111.936394,-139.347168,-112.077507,-136.630783C-112.218613,-133.914383,-112.289177,-134.161331,-112.289177,-134.161331C-112.289177,-134.161331,-113.347504,-133.87912,-113.876671,-133.526337C-114.405838,-133.138275,-114.476402,-133.067734,-114.476402,-133.067734C-114.476402,-133.067734,-113.629738,-133.491074,-113.065292,-133.208832C-112.465561,-132.92662,-112.465561,-132.92662,-112.465561,-132.92662C-112.465561,-132.92662,-113.841393,-132.256348,-114.194168,-131.515503C-114.511673,-130.84523,-114.511673,-130.880508,-114.511673,-130.880508C-114.511673,-130.880508,-112.994728,-129.928009,-113.20639,-129.539963C-113.382767,-129.151901,-113.382767,-129.08136,-113.523888,-129.08136C-113.629707,-129.08136,-114.088333,-128.128845,-114.088333,-128.128845C-114.088333,-128.128845,-114.970284,-126.15329,-115.076103,-125.976913C-115.217216,-125.835793,-115.217216,-126.259117,-115.358322,-126.470787C-115.464149,-126.753014,-115.358322,-127.105789,-115.534714,-126.576622C-115.746384,-126.047447,-116.310829,-125.483009,-116.310829,-125.483009L-116.663597,-126.364952C-116.663597,-126.364952,-117.333878,-124.918556,-117.404442,-124.742172C-117.404442,-124.601059,-117.580833,-123.119392,-117.616112,-121.778839C-117.757217,-121.743561,-117.968887,-121.743561,-118.109993,-121.743561C-119.238892,-121.778839,-121.214439,-122.766617,-122.308052,-122.872452C-123.401657,-122.943024,-125.306664,-122.696068,-125.447769,-121.919952C-125.553596,-121.143837,-125.624161,-121.108566,-125.236099,-120.791054C-124.848053,-120.438278,-122.237488,-118.286331,-122.237488,-118.286331C-122.237488,-118.286331,-123.189987,-118.56855,-124.459976,-118.498001C-125.729988,-118.427437,-127.31749,-117.968826,-127.811371,-117.651337C-128.305267,-117.298561,-129.328308,-116.240227,-129.5047,-115.605232C-129.645813,-115.005501,-129.681091,-114.688004,-129.39888,-114.546898C-129.116653,-114.370506,-128.305267,-114.017731,-127.564423,-113.735512C-126.788307,-113.418007,-124.248306,-112.57135,-123.366371,-112.500793C-122.484428,-112.465508,-121.214417,-111.513023,-120.932213,-110.983849C-120.57943,-110.454681,-119.873871,-108.65551,-117.933594,-108.091057C-115.958038,-107.491341,-115.393593,-107.597183,-114.829147,-107.068024C-114.299988,-106.574127,-114.663551,-107.064011,-114.759392,-106.11087C-115.094055,-106.290031,-116.68586,-106.18483,-116.969238,-105.889854C-117.322243,-105.644447,-113.881523,-103.861618,-113.516647,-104.19632C-113.078712,-104.598038,-113.158577,-104.600288,-113.065269,-104.810226C-112.888878,-105.127731,-112.712486,-105.304123,-112.712486,-105.304123C-112.712486,-105.304123,-112.249771,-103.891808,-111.794685,-103.033127C-111.671883,-102.801407,-111.549629,-102.610008,-111.43718,-102.497559C-110.943291,-101.968399,-109.890266,-100.259407,-109.643318,-100.71801C-109.466927,-101.070793,-109.184723,-101.811623,-109.043587,-103.22274C-108.867203,-104.63385,-108.443863,-105.163017,-108.514427,-106.221352C-108.620247,-107.279678,-108.584976,-108.302727,-107.632477,-109.008293C-106.715279,-109.608063,-104.669167,-110.666397,-104.245827,-111.301392z"/>
</svg>
