<?xml version="1.0" encoding="UTF-8"?>
<svg xmlns="http://www.w3.org/2000/svg" width="125.807mm" height="52.568mm" viewBox="-1127.129395 -559.509460 125.807068 52.568085">
    <path transform="matrix(-0.26462,0,0,-0.26462,-984.264038,-478.040771)" style="stroke:#000000;stroke-width:0.05mm;fill:none" d="M344.102112,306.882599C337.354553,306.100098,318.516754,302.79541,292.5,297.830109C286.048035,296.598755,276.468323,295.778076,265.5,295.517029C236.29332,294.821899,220.889099,293.17865,209,289.489868C195.273682,285.231079,186.354645,284.132721,184.631683,286.489014C183.477493,288.067474,182.928177,287.995422,176.944336,285.480469C166.352768,281.028961,161.674408,278.400024,155.736557,273.56308C148.790405,267.904785,145.574249,267.108704,140.941544,269.900879C139.048691,271.041718,136.487503,272.419586,135.25,272.962799C133.982712,273.519104,133,274.834808,133,275.97525C133,277.390625,132.342239,278,130.814453,278C129.612396,278,127.597427,278.969025,126.336731,280.153381L124.044556,282.306763L115.772278,278.590546C104.763794,273.645081,103,272.403442,103,269.599396C103,266.982391,104.492081,265.402313,107.488518,264.84613C111.772934,264.050873,110.332802,260.931,102.087975,253.146454C95.816025,247.224625,93.630646,244.427338,92.39872,240.744171C90.327011,234.550217,87.152618,231.688522,75.405464,225.424866C70.082611,222.586685,65.299133,219.499008,64.77552,218.563354C64.070679,217.303879,64.489601,215.901016,66.389038,213.160126C72.049355,204.992279,78.462433,203.700577,109,204.577591L131.5,205.22377L134.904755,202.861877C138.046219,200.682648,141.305908,195.57196,143.916428,188.732986C144.852493,186.280685,145.198837,186.107224,146.961349,187.207947C148.530655,188.187988,149.208435,188.191574,150.175034,187.22496C150.84877,186.551239,152.210007,186,153.199997,186C154.190002,186,155,185.606918,155,185.126495C155,183.114151,127.647804,157.894485,119.894005,152.757553C110.157219,146.3069,106.330254,144.576538,99.552544,143.56015C91.790459,142.396149,82.264702,139.132202,81.603882,137.410126C79.595627,132.176682,81.941666,128.187592,88.113098,126.342163C97.48632,123.539314,99.396523,124.082169,123.893021,136.51033C136.371094,142.841003,151.062332,150.929993,156.540207,154.48584C167.050842,161.308609,172,162.753738,172,159C172,157.888885,172.666672,157,173.5,157C174.353333,157,175,156.101852,175,154.916672C175,151.535416,177.367325,153.268845,178.969162,157.823044C180.315475,161.650696,182,163.416443,182,161C182,160.449997,182.449997,160,183,160C183.550003,160,184,160.761002,184,161.691132C184,163.173172,184.194168,163.142258,185.570419,161.441132C187.055145,159.605911,187.111832,159.690964,186.609329,163C186.317017,164.925003,185.799072,167.450439,185.458359,168.612091C184.538025,171.749893,187.407166,172.333099,192.250961,169.992844C197.402908,167.503693,197.183792,167.468597,196.979614,170.75C196.885498,172.262497,197.131699,174.522552,197.526718,175.772339C198.146622,177.733597,198.707321,177.957932,201.622467,177.411041C204.542099,176.863327,205,177.047836,205,178.772079C205,179.981277,205.85936,180.99147,207.182312,181.337418C209.352631,181.904984,209.349899,181.922836,206.682312,184.590424C203.732117,187.540619,203.205444,191.095688,205.44342,192.953049C206.237305,193.611908,209.690643,194.805054,213.117508,195.604492C223.547058,198.037537,235.116653,195.726151,248.984116,188.439011C258.093262,183.652283,263.501587,178.551743,264.824554,173.5C271.470917,148.120865,272.519928,141.644577,270.936798,135.765289C269.355316,129.892151,264.206329,125,259.606262,125C256.541534,125,255.570023,124.389122,253.006271,120.84996C251.352829,118.567444,250,116.108276,250,115.385147C250,112.963501,253.798431,112,263.345367,112C272.685699,112,272.859253,112.044006,275.393127,115.055344C278.94046,119.271133,284.268951,129.255829,287.00705,136.817947C289.24939,143.010803,289.262054,143.271027,287.647339,149.961029C284.815765,161.692612,286.056763,177.42868,290.11795,181.288956C291.153076,182.272873,292,183.460373,292,183.927841C292,184.395309,292.787506,184.715271,293.75,184.638885C295.003387,184.539413,295.580963,185.351318,295.785278,187.5C295.942169,189.149994,296.471771,191.399994,296.962158,192.5C297.452545,193.600006,298.036011,195.173096,298.258789,195.995758C298.481567,196.81842,299.526978,197.493423,300.581909,197.495758C301.808014,197.498474,302.615295,198.311722,302.81955,199.75C302.9953,200.987503,303.5578,202,304.06955,202C305.829529,202,304.996094,204.65506,302.5,207C297.915192,211.30719,299.678955,212.406006,304.957642,208.531097C308.041534,206.267303,311.225189,204.80806,313.381134,204.670135C315.287384,204.548187,317.704376,203.672516,318.752258,202.724213C319.80014,201.775894,321.297058,201.00351,322.078735,201.007797C323.877075,201.01767,325.979309,205.466553,326.067688,209.449371C326.132477,212.369537,326.181763,212.403778,327.22049,210.25C328.491333,207.614929,330.525879,207.330353,331.801208,209.609268C332.553375,210.953308,333.059357,210.64003,334.871155,207.708496C336.06427,205.777969,337.655945,203.962265,338.408173,203.673599C339.160431,203.384949,342.100891,199.299606,344.942566,194.595093C351.271454,184.117279,356.256104,177.640533,365.069519,168.443359C370.534576,162.740326,372.150116,160.291428,373.491638,155.676712C376.001831,147.042023,375.129303,144.844299,365.155182,134.678375C355.121826,124.452065,352.792053,123,346.417725,123C342.379852,123,341.290833,122.527809,338.497223,119.565727C335.108734,115.9729,333.427124,111.092026,335.373596,110.499458C335.993134,110.31086,342.216492,109.944778,349.203339,109.685944L361.906677,109.215332L381.203339,129.757431C391.816498,141.055573,401.103333,151.153976,401.840729,152.198318C403.013184,153.858826,402.85199,154.498871,400.556366,157.298553C394.535706,164.641205,390.692535,171.445389,390.597137,174.930923C390.506714,178.235153,390.762604,178.545532,394.306885,179.430252C398.622864,180.507614,414.247894,178.88443,423.71994,176.374741C431.11557,174.415192,435.261688,173.862885,441.598145,173.99321C446.214294,174.08815,447.21048,173.679199,452.134918,169.667786C461.438232,162.08934,468.917542,150.552109,472.002106,139.02153C472.910583,135.625443,474.952606,132.750397,480.451202,127.125755C486.741791,120.690971,488.042847,119.793938,490.273438,120.353783C494.273895,121.357834,495.373627,126.061081,493.599335,134.577789C492.334717,140.647964,491.620178,141.992355,487.794312,145.5C481.17926,151.564819,478.068726,156.209717,475.461243,163.916748C474.157227,167.771149,472.383423,172.291672,471.51947,173.962372C469.753754,177.376892,470.073517,177.653168,473.325226,175.522552C476.135925,173.680923,483,173.779861,483,175.662033C483,176.972061,487.78833,177.617752,494.25,177.179077C497.991028,176.92511,497.704834,178.165619,493.5,180.430069C491.575012,181.466751,490,182.694077,490,183.157471C490,184.271896,490.164612,184.246994,494.345764,182.5C496.320251,181.675003,498.962708,181.018021,500.217896,181.040039C502.364594,181.077698,502.331604,181.171341,499.661591,182.618301C498.100464,183.464325,496.982422,184.315765,497.177063,184.510406C497.371704,184.705032,500.673981,184.459534,504.515472,183.964859C515.272217,182.579681,515.75,182.64328,515.75,185.460342C515.75,187.580795,514.800293,188.2836,508.875,190.54776C505.09375,191.992661,502,193.542831,502,193.992599C502,194.442352,504.744812,194.561447,508.099579,194.257248C511.694183,193.931305,514.466248,194.114014,514.849548,194.702133C515.207275,195.251022,516.821899,196.133209,518.4375,196.662552C522.737427,198.071381,522.885681,200,518.694092,200C516.784241,200,514.203857,200.824112,512.959961,201.831345L510.698334,203.662689L516.878418,204.974197C523.531738,206.386139,525.86908,207.990448,521.309021,208.01532C519.764038,208.023727,517.837585,208.449524,517.028015,208.961517C515.732056,209.781097,515.732056,209.95163,517.028015,210.38765C517.837585,210.660034,519.362732,211.021744,520.417114,211.191452C522.801941,211.575272,523.765869,214,521.533691,214C520.635498,214,518.483093,214.733078,516.750427,215.629059L513.600159,217.258118L519.55011,219.477203C522.82251,220.697693,525.626892,222.327118,525.781921,223.098145C525.937012,223.869156,527.641541,225.527832,529.569885,226.784073C531.49823,228.040314,532.802734,229.510162,532.468872,230.050385C532.134949,230.590622,531.331482,230.704865,530.68335,230.304291C530.035156,229.903702,530.966248,231.348892,532.752441,233.515823C534.538574,235.682739,536,238.071198,536,238.823471C536,239.57576,536.949097,241.524139,538.10907,243.153198C539.269104,244.782272,540.05658,246.270966,539.85907,246.461395C539.661621,246.651825,537.25,247.46904,534.5,248.277435C531.305237,249.216568,529.586731,250.250214,529.740234,251.140289C529.920776,252.187134,528.553894,252.56041,524.240234,252.642288C521.08313,252.702209,513.775024,253.207565,508,253.76532C494.729523,255.046982,492.835693,254.341232,483.5,244.635162C472.62088,233.324448,463.879028,230.459686,454.337799,235.078522C446.65683,238.796814,437.060272,251.340179,433.358429,262.5C431.091339,269.334503,425.064087,277.962952,417.134064,285.726349C399.279694,303.205597,387.648834,308.100739,364.520111,307.87027C357.359039,307.79892,348.170959,307.354462,344.102112,306.882599z"/>
    <path transform="matrix(-0.26462,0,0,-0.26462,-984.264038,-478.040771)" style="stroke:#000000;stroke-width:0.05mm;fill:none" d="M505.5,199.492493C512.773804,195.898285,512.439819,196.106491,511.860443,195.5271C510.787201,194.453857,504.228485,197.174988,500.982971,200.040024C496.98056,203.573242,497.326385,203.531326,505.5,199.492493z"/>
    <path transform="matrix(-0.26462,0,0,-0.26462,-984.264038,-478.040771)" style="stroke:#000000;stroke-width:0.05mm;fill:none" d="M511.729156,185.395828C511.396881,185.063538,510.534363,185.028015,509.8125,185.316879C509.014771,185.636108,509.251709,185.873062,510.416656,185.921051C511.470825,185.964478,512.061462,185.728119,511.729156,185.395828z"/>
</svg>
