<?xml version="1.0" encoding="UTF-8"?>
<svg xmlns="http://www.w3.org/2000/svg" width="76.606mm" height="77.773mm" viewBox="-1251.415283 -589.850708 76.605713 77.773254">
    <path transform="matrix(-0.26455,0,0,-0.26455,-1174.207153,-512.013245)" style="stroke:#000000;stroke-width:0.05mm;fill:none" d="M103,293.045807C103,291.444153,102.355492,291,100.031387,291C97.912842,291,97.214973,290.603363,97.594307,289.614838C97.973091,288.627747,96.670006,287.880432,93.059837,287.014343C90.273537,286.345917,87.74366,285.394257,87.437897,284.899506C87.132133,284.404785,85.544022,284,83.90876,284C81.846695,284,80.708336,283.385773,80.194099,281.995667C78.279282,276.819427,54.632809,267.136353,43.5,266.969666C41.299999,266.936737,38.150002,266.291626,36.5,265.536102L33.5,264.162445L36.153816,264.081207L38.807636,264L35.863358,258.563965C34.244003,255.574158,32.244419,249.892258,31.419836,245.937531C29.832964,238.326843,27.590847,233,25.974319,233C25.438444,233,25,232.342438,25,231.538742C25,230.120529,33.308411,227,37.084389,227C38.031147,227,42.894997,228.381882,47.892937,230.070862C58.093616,233.518005,60.93325,233.540436,62.598595,230.186996C63.230354,228.914841,64.091309,227.940781,64.511818,228.0224C65.919327,228.295624,66.923203,225.542191,66.308716,223.093887C65.817635,221.137268,66.015106,220.791824,67.335068,221.29834C68.385422,221.701401,69.350281,221.21402,70.035072,219.934464C70.877747,218.359909,70.671753,217.398163,69.050323,215.336853C66.19046,211.701126,66.485474,210.167999,69.5,213L72,215.348633L72,213.090897C72,209.375092,66.111786,195.832947,63.405655,193.324982C60.866776,190.972031,60.889462,188.636612,63.441685,189.615997C65.237473,190.305099,66.274895,186.979782,65.401184,183.335037L64.721573,180.5L66.690575,183C67.773521,184.375,68.947044,186.287506,69.298401,187.25C69.649757,188.212494,70.401352,189,70.968613,189C72.429161,189,72.384201,188.880325,68.5,182.429977C66.574997,179.2332,64.985687,175.466187,64.968193,174.058823C64.950706,172.651474,64.275703,170.626495,63.468197,169.558868C62.66069,168.491241,62,166.828674,62,165.864273C62,164.899857,60.424999,160.654694,58.5,156.430557C54.515732,147.687653,54.578495,147.908295,56.25,148.520874C58.379425,149.301285,59.823055,147.632584,60.168648,143.991257C60.443741,141.092773,60.897015,140.5,62.838276,140.5C65.510208,140.5,67.2145,136.882233,69.64901,126.042641C70.446663,122.491096,71.542854,119.050827,72.084991,118.397591C72.627129,117.744362,73.467735,114.800171,73.953018,111.85495C74.438301,108.909729,75.374664,105.150002,76.033836,103.5L77.23233,100.5L78.455383,104C79.128067,105.925003,80.088287,107.401489,80.589218,107.28109C82.355652,106.856522,82.094269,102.097206,80.059181,97.629913C78.926628,95.143806,78,92.63504,78,92.054863C78,90.652,82.272804,90.711548,85.448883,92.158661C87.536064,93.10965,88.320389,93.020027,89.824677,91.658661C92.101517,89.598152,94.373169,89.539787,96,91.5C98.411621,94.40583,100.595757,93.159225,100.059288,89.183136C99.922211,88.167107,100.342445,88.1129,101.898819,88.945854C103.579094,89.845108,104.114449,89.647491,105.103996,87.762711C105.757385,86.518219,106.883179,85.150269,107.605774,84.722816C108.328362,84.295364,109.212753,82.382858,109.571075,80.472816C110.279594,76.696091,112.756027,75.796181,115,78.5C115.684692,79.324997,116.860977,80,117.613968,80C118.366966,80,119.545113,80.900002,120.232071,82C120.919037,83.099998,121.995361,84,122.623917,84C123.252464,84,124.051414,84.787498,124.399353,85.75C124.747284,86.712502,125.615837,88.486557,126.329453,89.692352C127.625412,91.882111,127.630409,91.882416,130.563477,89.948936C134.33493,87.462791,137.319092,87.364883,136.626907,89.75C134.593399,96.757027,134.147675,99.905441,134.828705,102.451889C135.92688,106.558113,138,106.938438,138,103.033676C138,97.297745,143.32402,90.332558,149.5,87.988701C153.791061,86.360199,166.998062,86.554527,171.194519,88.307915C175.247726,90.00145,178.439301,94.059669,179.473892,98.835449C179.970337,101.127121,182.507813,104.459869,187.58255,109.485443C194.666916,116.50119,195.208069,116.827774,200.829544,117.480217C208.40239,118.359138,214.308823,116.787483,216.82106,113.224998C217.877975,111.72625,219.930328,107.888855,221.381836,104.697456C223.725159,99.545258,226,97.897552,226,101.352425C226,102.031342,227.834579,103.076492,230.076828,103.674988C233.578979,104.609764,234.223602,104.533157,234.649826,103.131577C234.922714,102.234207,235.563141,100.718605,236.072998,99.763565C236.582855,98.808533,237,97.346031,237,96.513565C237,95.681107,237.449997,95,238,95C238.576309,95,239,91.874039,239,87.622124C239,78.339699,240.733124,74.104149,245.941803,70.657211C248.269989,69.116486,250,67.17836,250,66.110809C250,65.087364,250.261841,62.940792,250.581863,61.340645C251.095627,58.771854,250.773727,58.259727,247.831863,56.965645C245.023605,55.730328,244.451233,54.910683,244.189636,51.75C244.01506,49.640678,243.346756,48,242.66214,48C241.992722,48,240.443298,47.298374,239.218994,46.44083C237.497803,45.235264,237.21106,44.474152,237.954636,43.084778C238.693832,41.703568,238.38063,40.822132,236.600708,39.274513C234.790024,37.700138,234.011841,35.433815,233.031769,28.880569C232.090088,22.583973,230.796097,18.681179,227.828079,13.185725C223.851517,5.822903,223.22702,1.746752,226,1.253749C226.824997,1.107074,228.541016,2.602176,229.813385,4.5762C231.235199,6.782096,232.667068,7.957998,233.528717,7.627354C234.917572,7.094403,236.981613,12.229733,236.994431,16.25C236.997757,17.296253,237.758621,18,238.886459,18C240.360962,18,240.923141,19.001831,241.460876,22.587643C242.127365,27.032124,242.208603,27.121185,244.064453,25.441671C245.908371,23.772942,246.036591,23.843311,247.490036,27.321911C248.320511,29.30953,249.006897,31.737717,249.01532,32.71788C249.023727,33.698048,249.426529,35.125172,249.9104,35.889271C250.592087,36.965736,251.134186,36.627998,252.317978,34.389271C253.74823,31.684473,253.89859,31.627695,254.672882,33.5C255.127808,34.599998,255.491943,38.274509,255.482086,41.665577C255.472244,45.056644,255.742645,47.659058,256.082977,47.448723C256.423309,47.238384,257.289185,48.846165,258.007111,51.021564C259.130585,54.425663,259.083801,55.55899,257.671509,59.154354C256.579529,61.934216,256.357086,63.725338,257.006592,64.507942C257.543427,65.154785,257.662079,66.004585,257.270294,66.396385C256.878479,66.788185,257.198425,67.504601,257.981262,67.988426C259.141235,68.705322,258.923798,69.348938,256.806183,71.46653C254.934052,73.338684,253.580658,76.641312,251.964127,83.282478C250.730133,88.352119,249.289551,93.339821,248.762848,94.366264C247.770767,96.299606,248.874207,102.139824,251.52771,109C254.206268,115.924957,255.733505,125.667664,255.565887,134.760696C255.377701,144.969772,256.157135,147.856567,257.816559,143.096375C259.175873,139.197006,260.368988,139.043503,259.527161,142.876282C259.105408,144.796555,259.391785,146.248947,260.388794,147.245941C261.713257,148.570419,261.528137,149.414322,258.751801,154.708298L255.62146,160.677322L257.771606,162.985229L259.921783,165.293152L255.534592,170.172745C253.121643,172.856537,250.844376,176.432068,250.473999,178.118408C249.811371,181.1353,250.658371,190,251.609238,190C251.876923,190,253.232376,188.762497,254.621368,187.25L257.14682,184.5L256.554352,187.25C255.826874,190.626755,256.269043,190.659317,260.370544,187.530945C265.895721,183.316681,270.652863,181.85257,277.866089,182.146271L284.5,182.416397L283.612061,192.458206C281.966003,211.073853,282.217773,215.263763,285.245056,219.632141C290.066132,226.588943,290.394714,228.858582,287.521423,235.355621C284.66864,241.806305,285.198578,244.509766,289.52887,245.596603C293.035065,246.476593,292.590973,247.742813,288.367126,248.909073C286.369049,249.46077,283.106537,251.01947,281.117126,252.372864C279.127716,253.726242,273.674988,255.811783,269,257.007385C254.919418,260.608429,244.620056,264.143982,242.435547,266.126465C241.300095,267.156921,239.923615,268,239.376678,268C238.829742,268,237.56427,268.598114,236.564514,269.329163C235.048019,270.438049,234.942169,271.023438,235.925812,272.861389C237.023788,274.912994,236.929382,275.020386,234.552414,274.423798C232.591324,273.93161,232,274.16394,232,275.426788C232,276.740448,231.612717,276.863098,230.070557,276.03775C228.504639,275.199707,227.770981,275.475708,226.176636,277.502563C225.096176,278.87616,223.756546,280,223.199707,280C222.642853,280,222.436508,280.953217,222.74118,282.118286C223.140381,283.644806,221.787292,282.795898,217.897568,279.079498C211.627075,273.08844,209.363617,272.287384,203.091034,273.839203C200.565964,274.463898,196.475006,275.240448,194,275.564911C191.524994,275.889343,183.875,277.072998,177,278.195282C166.938843,279.837616,161.69339,280.134521,150.115051,279.716919C132.336121,279.075714,130.376663,279.618469,128.870071,285.601746C127.894035,289.477905,126,291.72052,126,289C126,287.207184,123.000923,287.949097,122.968193,289.75C122.937904,291.416656,122.873131,291.416656,121.607956,289.75C119.834259,287.413452,119.332756,287.538055,118.589355,290.5C118.244255,291.875,117.467987,293,116.864319,293C116.260651,293,115.994492,292.129059,116.272858,291.064575C116.730682,289.313843,115.354126,288,113.062012,288C112.636086,288,110.197891,289.595612,107.643799,291.545807C103.454147,294.744843,103,294.891541,103,293.045807z"/>
    <path transform="matrix(-0.26455,0,0,-0.26455,-1174.207153,-512.013245)" style="stroke:#000000;stroke-width:0.05mm;fill:none" d="M175.900116,275.620361C176.768402,274.574127,176.701324,273.546997,175.622604,271.370361C173.8629,267.819641,172,261.87677,172,259.813873C172,258.964569,172.913727,257.108093,174.030502,255.688354L176.060989,253.106995L173.914749,246.303497C172.734314,242.561569,171.114288,238.455582,170.314713,237.179062C169.487671,235.858688,168.615631,231.071793,168.291916,226.075287C167.614868,215.624908,169.27446,210.064789,174.616074,204.887497C176.498489,203.062988,178.49823,199.863434,179.059952,197.777374C179.649719,195.587097,182.387955,191.399368,185.540619,187.866104C190.414551,182.403793,191,181.271591,191,177.30809C191,174.866333,191.54335,171.885605,192.207458,170.684265C192.871552,169.48291,193.732254,164.225006,194.120117,159C194.784409,150.051208,195.302185,145.577896,196.49379,138.492661C197.530792,132.326813,192.408585,122.29689,186.720627,119.35553C184.231308,118.068253,182.534668,118.024467,175.006561,119.05323C170.164841,119.714882,165.69017,120.573448,165.062836,120.961159C164.435516,121.348869,163.82724,122.95208,163.711121,124.523842C163.523041,127.069771,163.987396,127.553963,167.966888,128.961349C171.167435,130.093262,173.292603,131.763062,175.46315,134.851379C178.085815,138.582977,178.540009,140.207611,178.846344,146.953033C179.182159,154.347839,179.055099,154.904968,176.350082,157.898499C173.626556,160.912537,173.069748,161.080139,163.810349,161.673157C146.538025,162.779343,139.98645,159.062454,140.01474,148.173279C140.022842,145.052979,140.585342,141.548523,141.26474,140.385605C141.944138,139.222687,143.504242,136.444305,144.731644,134.211426C146.719376,130.595367,147.566422,130.016678,152.481644,128.916702C157.825165,127.720863,158,127.575897,158,124.340874L158,121L152.75,120.968193C149.862503,120.950706,146.696304,120.326752,145.713989,119.581627C144.458511,118.629288,142.876709,118.463966,140.388855,119.02507C136.566299,119.887192,134.388077,122.051567,133.369278,126C133.014496,127.375,132.289612,129.052338,131.758423,129.727402C130.630997,131.160217,130.654099,136.918152,131.853897,153.519348C132.634735,164.323624,133.043671,166.107666,135.898987,171.167023C137.646027,174.262604,139.269485,177.80304,139.506668,179.034637C139.743851,180.266235,140.545395,181.999786,141.287888,182.886963C142.030365,183.774124,144.104858,187.425003,145.897873,191C147.690887,194.574997,150.472809,199.300003,152.079926,201.5C157.30014,208.646027,159.383026,214.052429,159.80307,221.546417L160.198044,228.59285L154.14444,235.046417C146.077499,243.646362,145.218079,245.774979,147.827835,250.691269C148.939835,252.786072,150.11705,255.737503,150.443878,257.25C150.785553,258.831268,151.705963,260,152.609558,260C154.854889,260,164.843948,268.792542,167.651764,273.240417C170.17395,277.235809,173.712143,278.256714,175.900116,275.620361z"/>
    <path transform="matrix(-0.26455,0,0,-0.26455,-1174.207153,-512.013245)" style="stroke:#000000;stroke-width:0.05mm;fill:none" d="M122.263458,212.59787C121.242874,207.259033,128.955948,203.955948,133,208C135.563065,210.563065,136.21611,210.523315,135.81955,207.828323C135.111908,203.019226,124.96109,203.453979,119.265945,208.537308L116.5,211.006104L118.860786,213.003052C121.961151,215.62561,122.822639,215.523026,122.263458,212.59787z"/>
    <path transform="matrix(-0.26455,0,0,-0.26455,-1174.207153,-512.013245)" style="stroke:#000000;stroke-width:0.05mm;fill:none" d="M131.744598,213.26619C131.969666,212.590988,131.314148,212.366592,130.068359,212.692383C128.94313,212.986633,128.283676,213.649979,128.60289,214.166473C129.317261,215.322342,131.243179,214.770462,131.744598,213.26619z"/>
    <path transform="matrix(-0.26455,0,0,-0.26455,-1174.207153,-512.013245)" style="stroke:#000000;stroke-width:0.05mm;fill:none" d="M202.5,209C202.16008,208.449997,201.431961,208,200.881973,208C200.33197,208,200.16008,208.449997,200.5,209C200.83992,209.550003,201.568039,210,202.118027,210C202.66803,210,202.83992,209.550003,202.5,209z"/>
    <path transform="matrix(-0.26455,0,0,-0.26455,-1174.207153,-512.013245)" style="stroke:#000000;stroke-width:0.05mm;fill:none" d="M212.035553,207.172302L214.292679,205.344589L211.01857,203.013229C204.287689,198.220413,193.307358,199.63533,194.739273,205.110962C195.238708,207.020844,195.311615,207.007416,196.404175,204.804153C198.059082,201.466888,205.174622,200.983521,207.330795,204.06189C208.165878,205.254135,208.609924,206.852951,208.317566,207.614807C207.57399,209.552521,209.358353,209.340164,212.035553,207.172302z"/>
    <path transform="matrix(-0.26455,0,0,-0.26455,-1174.207153,-512.013245)" style="stroke:#000000;stroke-width:0.05mm;fill:none" d="M142.616806,113.166C143.347046,109.514755,148.018646,104.541298,153.201782,101.897057C156.393753,100.268639,158.286133,99.956673,161.89122,100.464592C169.193649,101.493423,169.852417,101.880753,171.835068,106.311119C174.02977,111.215347,177.613647,114.786354,178.974792,113.425217C180.32283,112.077164,176.410461,103.920097,174.129807,103.323692C173.092499,103.052429,171.735306,101.714462,171.1138,100.350426C170.290466,98.543411,169.46608,98.034683,168.076065,98.475861C167.026794,98.808884,165.906311,98.657433,165.58609,98.139305C164.773239,96.824074,152.286041,97.517715,150.529297,98.975685C149.736374,99.633759,148.587616,99.863159,147.976501,99.485474C147.336823,99.090126,146.635986,99.67598,146.324722,100.866264C146.027359,102.003387,144.974716,103.190636,143.985519,103.504593C142.097427,104.103851,139,110.637062,139,114.020233C139,117.096199,141.9711,116.39447,142.616806,113.166z"/>
    <path transform="matrix(-0.26455,0,0,-0.26455,-1174.207153,-512.013245)" style="stroke:#000000;stroke-width:0.05mm;fill:none" d="M50.263626,125.076706C42.3438,120.710129,37.910133,116.769554,33.5,110.17746C31.299999,106.888985,28.006464,103.391197,26.18103,102.404594C24.355597,101.417992,22.387579,99.724197,21.807659,98.64061C21.227739,97.557014,18.722607,93.932091,16.240698,90.58522C10.623021,83.009743,6.906758,75.219688,7.597545,72.467377C7.886657,71.31546,6.970483,67.310486,5.561602,63.567432C2.961765,56.660301,2.357907,51.560692,3.859499,49.193096C4.333932,48.445045,4.065167,45.993172,3.230981,43.459293C1.482293,38.147572,2.099218,36,5.373787,36C7.738844,36,7.794767,35.828209,7.279504,30.145794C6.970981,26.743345,7.256579,22.752586,7.961445,20.616823C9.103147,17.157434,9.367541,16.978325,12.472592,17.560837C16.645887,18.34375,17.545609,16.955772,15.468513,12.939111C12.696783,7.579177,13.939501,6.592009,22.272903,7.533961C26.247807,7.983258,31.75,8.38442,34.5,8.425432C38.950626,8.491807,39.53511,8.252781,39.81955,6.25C40.197247,3.5906,40.634041,3.531319,45.345757,5.5C50.569279,7.682526,54.068638,7.453534,54.740261,4.885239C55.255783,2.913879,55.741272,2.814622,61.899845,3.421472C65.533455,3.779519,71.767464,4.911289,75.753204,5.936518C79.738945,6.961746,83,7.565341,83,7.27784C83,6.990339,83.620049,7.269704,84.377884,7.898653C85.464691,8.800619,86.397507,8.311296,88.793549,5.58235C91.918884,2.022797,99.450195,-0.949803,101.117935,0.717933C102.557289,2.157288,99.153061,5.896518,93.497429,9.088358C90.563278,10.744294,87.620918,12.751842,86.958855,13.549575C86.296799,14.347309,85.164337,15,84.442284,15C83.72023,15,82.555656,16.586815,81.854347,18.526257C81.126862,20.538069,80.060913,21.853617,79.372375,21.589399C78.018852,21.070004,77,23.090563,77,26.294224C77,27.46608,75.839439,29.350273,74.420967,30.481318C73.002502,31.612364,71.523415,34.095154,71.134117,35.998631C70.559204,38.80965,69.963791,39.463295,67.96315,39.479748C65.710411,39.498268,65.5,39.887688,65.5,44.038506C65.5,50.032883,63.0187,53.917393,59.606361,53.265083C56.885937,52.745041,56.319248,53.886383,55.769943,60.99181C55.453541,65.084602,52.23312,66.607452,51.315434,63.098221C50.305599,59.236607,49.000423,62.082691,48.925835,68.309013C48.882973,71.887199,48.108421,76.184769,47.090549,78.492027C45.365807,82.401581,45.304325,82.437157,44.114536,80.21402C41.959866,76.187973,40.741383,78.760742,41.490387,85.754814L42.187447,92.263863L39.593723,91.612877C36.154526,90.749695,36.113995,93.158333,39.5,97.182373C42.137001,100.316269,42.661243,102,41,102C39.294701,102,39.890064,104.167084,42.555382,107.661491C43.960838,109.504143,44.840031,111.449821,44.509136,111.985222C43.387882,113.799446,45.952049,116.804657,52.987301,121.921669C56.844288,124.727005,60,127.242264,60,127.511139C60,128.902725,54.882046,127.623062,50.263626,125.076706z"/>
</svg>
