<?xml version="1.0" encoding="UTF-8"?>
<svg xmlns="http://www.w3.org/2000/svg" width="87.776mm" height="77.044mm" viewBox="-1337.207886 -615.001404 87.776001 77.043640">
    <path transform="matrix(-1,0,0,-1,0,0)" style="stroke:none;fill:#000000;fill-rule:evenodd" d="M1326.669434,611.881592C1326.227905,612.325745,1326.032349,613.998047,1325.954102,613.067383C1325.878418,612.167114,1325.374756,611.63269,1325.374756,612.452515C1325.374756,612.651123,1325.128052,613.127319,1324.826538,613.510681C1324.192993,614.316101,1323.629517,614.46814,1324.026367,613.726624C1324.302979,613.209839,1324.285645,612.674133,1323.976563,612.179688C1323.870483,612.01001,1323.379883,611.900696,1323.435547,612.302673L1323.534302,613.017273L1323.230957,612.355896L1322.92749,611.694519L1322.688599,612.554321C1322.464722,613.360046,1322.137329,613.554504,1321.20813,613.433838C1321.026245,613.410217,1320.877441,613.634216,1320.877441,613.931641C1320.877441,614.301086,1320.704956,614.47229,1320.332764,614.47229C1320.033203,614.47229,1319.856934,614.583679,1319.94104,614.719849C1320.034912,614.871826,1318.54541,614.601868,1318.639282,614.753845C1318.723389,614.890015,1318.615356,615.001404,1318.39917,615.001404C1318.183105,615.001404,1317.820801,614.629822,1317.594238,614.175659C1317.367676,613.721436,1317.258301,613.226868,1317.351196,613.076538C1317.448853,612.918396,1317.390991,612.883057,1317.213623,612.992615C1317.045166,613.096802,1316.972534,613.442566,1317.052368,613.760986C1317.171631,614.237183,1316.586792,613.309631,1316.448975,612.959595C1316.272095,612.51001,1316.259033,612.510376,1316.167114,612.966614C1316.053345,613.531494,1312.940918,611.705505,1312.940918,611.55719C1312.940918,611.401733,1313.220947,611.35791,1313.602295,611.453613C1314.458374,611.668457,1314.442627,611.382324,1313.560425,610.688354C1312.560791,609.9021,1312.265869,609.340881,1311.832397,608.200195C1311.412109,607.094299,1311.393555,606.826355,1311.703491,606.338196C1311.867188,606.080322,1311.750854,606.069519,1311.17041,606.288696C1310.572632,606.514343,1310.49231,606.503906,1310.758423,606.234985C1311.230713,605.757813,1311.166748,605.469788,1310.626099,605.639771C1310.21521,605.768982,1310.218872,605.739807,1310.658447,605.38031C1311.106812,605.01355,1311.114746,604.936279,1310.741455,604.562988C1310.487305,604.308838,1310.265991,604.252991,1310.164429,604.417358C1310.073853,604.563965,1309.821045,604.68396,1309.602783,604.68396C1309.384644,604.68396,1309.27478,604.572754,1309.358765,604.436829C1309.442749,604.300903,1309.264038,603.715027,1308.96167,603.134827C1308.161621,601.599915,1308.504028,599.973572,1309.587646,600.161804C1309.70752,600.182678,1309.729126,600.075745,1309.635498,599.924255C1309.54187,599.772827,1309.364624,599.71106,1309.241577,599.787109C1309.11853,599.863159,1308.957642,599.775757,1308.883911,599.593018C1308.777466,599.328918,1308.745605,599.328552,1308.729004,599.59137C1308.700806,600.038818,1308.005859,600.012573,1307.831177,599.557434C1307.754272,599.356934,1307.824463,599.059753,1307.987061,598.897095C1308.205078,598.679016,1308.147461,598.502319,1307.768066,598.224792C1307.099365,597.735901,1307.101318,597.224304,1307.773315,596.822937C1308.285889,596.516846,1308.277588,596.501221,1307.599365,596.492249C1307.207886,596.487122,1306.817139,596.369019,1306.731201,596.229858C1306.645142,596.090759,1306.400024,596.043945,1306.186401,596.125916C1305.9729,596.207886,1305.798096,596.143188,1305.798096,595.982117C1305.798096,595.821045,1305.615845,595.689209,1305.392944,595.689209C1305.170166,595.689209,1304.919312,595.510681,1304.835571,595.292419C1304.751831,595.074158,1304.527344,594.895569,1304.336792,594.895569C1304.14624,594.895569,1303.929932,594.746765,1303.856201,594.56488C1303.754639,594.314697,1303.65625,594.328857,1303.45166,594.623352C1303.136719,595.076782,1303.10022,595.048096,1302.505737,593.879639C1302.136841,593.154724,1301.944702,593.023926,1301.435791,593.151672C1301.094604,593.237305,1300.775879,593.191589,1300.727417,593.050049C1300.678955,592.908508,1300.379761,592.860901,1300.062378,592.944275C1299.706787,593.03772,1298.890259,592.90564,1298.783936,592.575195C1298.634521,592.110962,1298.510376,592.041016,1298.237671,592.267273C1297.77124,592.654358,1297.33252,592.357422,1297.33252,591.654785C1297.33252,591.116821,1297.31604,591.113281,1296.97583,591.578552C1296.596924,592.096741,1295.868408,591.90564,1296.188477,591.372009C1296.297974,591.189575,1296.191772,591.208862,1295.933228,591.418518C1295.407959,591.844543,1292.587646,591.995972,1292.091797,591.624817C1291.901245,591.482117,1290.894043,591.313843,1289.853638,591.250916C1288.81311,591.187988,1287.659546,591.011841,1287.290039,590.859619C1286.920532,590.707336,1286.356812,590.608398,1286.037354,590.639771C1285.718018,590.671204,1285.212036,590.565979,1284.913086,590.405945C1284.549316,590.211304,1284.369507,590.205688,1284.369507,590.388916C1284.369507,590.539551,1284.012329,590.662781,1283.575928,590.662781C1282.997925,590.662781,1282.781128,590.536987,1282.778198,590.199829C1282.774658,589.804199,1282.736816,589.794556,1282.5177,590.133667C1282.376587,590.351929,1282.259399,590.437012,1282.257202,590.322754C1282.255005,590.208557,1282.008423,590.246033,1281.709351,590.406067C1281.122192,590.720337,1275.697876,590.971436,1275.525391,590.692322C1275.366821,590.435791,1272.993896,590.68103,1272.993896,590.953979C1272.993896,591.433533,1272.361572,591.171631,1271.682129,590.410645C1270.977661,589.62146,1267.71875,589.413208,1267.755127,589.23291C1267.791504,589.052551,1266.800415,589.8255,1266.691284,589.856445C1261.560913,591.603027,1262.700806,593.043457,1261,595.999939C1260.401978,597.039368,1260.955933,601.626831,1261.000122,600C1262.006958,601.207764,1263.123413,600.746338,1263.361084,600.380066C1263.477417,601.381348,1264.007446,601.907043,1264.329468,601.00061C1264.248657,601.862,1266.811279,603.392151,1267.616577,602.603027C1268.109131,603.206787,1268.626831,603.862,1269.651733,603.366272C1270.359863,603.784546,1272.225952,605.511597,1270.656128,606.548096C1270.474365,606.668091,1268.180664,607.83429,1267.574463,607.845581C1266.167725,607.871887,1263.389648,608.621155,1260.827637,607.660034C1262.966919,607.593323,1258.882202,606.88855,1257.927368,606.439209C1259.941528,606.482788,1257.363525,605.305908,1254.336914,605.366394C1255.71936,604.914429,1253.234131,603.70459,1252.410889,602.900024C1255.452637,603.32605,1249.605347,600.941284,1249.431885,600.097412C1251.522217,601.03363,1251.695435,597.279175,1250.95752,595.857605C1251.848145,597.381714,1254.125366,591.686951,1253.561035,590.67749C1254.685303,593.568481,1256.02063,590.387451,1255.656616,589.333313C1257.392456,587.643188,1259.709473,587.915466,1260.05542,584.851807C1260.107178,584.393677,1261.875488,583.647705,1260.966675,582.799377C1260.865845,582.395447,1260.602417,581.864075,1260.381226,581.618591C1260.160034,581.373169,1260.057251,581.045776,1260.152832,580.891113C1260.248413,580.73645,1260.192627,580.609863,1260.028687,580.609863C1259.838135,580.609863,1259.801147,580.395203,1259.926025,580.014648C1260.218994,579.121277,1260.23877,577.083008,1259.957886,576.713379C1259.682861,576.351379,1260.189575,573.828247,1260.586548,573.582886C1260.717407,573.501953,1260.824585,573.203552,1260.824585,572.919739C1260.824585,572.635864,1261.055786,572.205627,1261.338501,571.963623C1261.739624,571.620117,1261.792847,571.412476,1261.581299,571.017212C1261.203125,570.310547,1261.557373,567.911438,1262.039795,567.911438C1262.244507,567.911438,1262.411865,567.779663,1262.411865,567.618591C1262.411865,567.45752,1262.222168,567.39856,1261.990356,567.487488C1261.61853,567.630188,1261.586548,567.390625,1261.718628,565.45575C1261.835693,563.741577,1261.759644,562.903259,1261.37085,561.619141C1261.091309,560.695862,1260.978638,559.911011,1261.113525,559.827576C1261.596313,559.529175,1261.322876,559.005371,1259.875854,557.45636C1259.06311,556.586304,1258.226196,555.482727,1258.015991,555.003967C1257.805908,554.525208,1257.538818,554.192261,1257.422607,554.264099C1257.12207,554.449829,1255.269043,552.867737,1255.269043,552.425293C1255.269043,552.222778,1255.020752,551.924194,1254.717285,551.76178C1254.413818,551.599365,1254.225464,551.406555,1254.298706,551.333252C1254.371948,551.26001,1254.233276,550.968201,1253.990601,550.684753C1253.747925,550.401306,1253.534546,550.05426,1253.516357,549.913452C1253.498169,549.772705,1253.468384,549.538452,1253.450195,549.392944C1253.432007,549.247437,1253.287354,549.128418,1253.128906,549.128418C1252.790161,549.128418,1251.847168,548.056946,1251.848145,547.67334C1251.848511,547.527832,1252.141602,547.76593,1252.49939,548.202454C1252.857178,548.638977,1253.150513,548.855835,1253.151245,548.684326C1253.151978,548.512817,1252.992798,548.212769,1252.797607,548.017517C1252.137695,547.357666,1251.72522,546.385498,1252.058105,546.274536C1252.225342,546.21875,1252.279053,546.038574,1252.177368,545.874084C1252.075806,545.709595,1251.969238,545.094788,1251.940796,544.507813C1251.912354,543.920837,1251.845947,543.261963,1251.793335,543.043762C1251.728394,542.77478,1251.868042,542.671753,1252.226685,542.72406C1252.522461,542.767212,1252.63916,542.708923,1252.491211,542.591797C1252.345703,542.476624,1252.2146,542.008667,1252.199951,541.551941C1252.740601,541.133789,1257.055298,538.654663,1259.200073,538.624573C1265.916626,538.530212,1267.50415,536.874329,1269.097534,539.145813C1269.90625,540.298584,1267.46228,543.04834,1267.173706,543.737C1267.173706,543.947083,1266.999146,544.536804,1266.785767,545.047485C1266.32605,546.147644,1266.511597,547.716309,1267.048706,547.270569C1267.301758,547.060547,1267.4729,547.19043,1267.740723,547.79541C1267.936401,548.237549,1268.186523,548.599304,1268.296509,548.599304C1268.406494,548.599304,1268.49646,548.884033,1268.49646,549.231995C1268.49646,549.677795,1268.682617,549.911377,1269.126343,550.022766C1269.499146,550.116333,1269.934082,550.555542,1270.191772,551.098572C1270.48291,551.712158,1270.756348,551.966797,1271.016846,551.866821C1271.298706,551.758667,1271.406616,551.908264,1271.406616,552.406982C1271.406616,552.843628,1271.552124,553.096619,1271.803345,553.096619C1272.021606,553.096619,1272.200195,553.215698,1272.200195,553.361206C1272.200195,553.506714,1272.378784,553.625732,1272.597046,553.625732C1272.817505,553.625732,1272.993896,553.860901,1272.993896,554.154846C1272.993896,554.445862,1273.124023,554.654175,1273.283081,554.617798C1273.579224,554.550049,1273.723877,554.756348,1274.350342,556.138977C1274.548096,556.5755,1274.900513,557.111206,1275.133545,557.329468C1275.57373,557.74176,1275.847412,558.601135,1276.086914,560.322632C1276.18457,561.024414,1276.335693,561.2901,1276.583374,561.195129C1276.862549,561.087952,1276.884399,561.203247,1276.684326,561.72937C1276.396729,562.485901,1276.552734,562.92395,1277.042969,562.73584C1277.270874,562.648376,1277.378418,562.955322,1277.394531,563.739502C1277.435059,565.716614,1277.580566,566.346436,1277.962891,566.199768C1278.213867,566.103455,1278.302246,566.27655,1278.263916,566.789001C1278.109863,568.849548,1279.30249,569.625305,1282.293335,569.409912C1283.976807,569.288696,1284.674927,569.098328,1285.803223,568.452759C1286.577881,568.009521,1287.577148,567.646912,1288.023682,567.646912C1288.470215,567.646912,1288.90918,567.527832,1288.999146,567.382385C1289.089111,567.236877,1289.399658,567.117798,1289.689331,567.117798C1289.978882,567.117798,1290.560791,566.939453,1290.9823,566.721497C1291.403809,566.503479,1291.963379,566.291687,1292.22583,566.250854C1292.488159,566.210022,1292.821899,566.102478,1292.967407,566.011963C1293.112915,565.921448,1293.70813,565.773682,1294.290161,565.683594C1294.872192,565.593506,1295.73291,565.394714,1296.203003,565.241821C1296.672974,565.088867,1297.153687,565.023193,1297.271118,565.095764C1297.592896,565.294678,1301.626953,564.357605,1301.404907,564.13562C1301.299072,564.029785,1301.411011,563.943237,1301.653442,563.943237C1301.895996,563.943237,1302.09436,563.824158,1302.09436,563.67865C1302.09436,563.533142,1301.975342,563.414124,1301.829834,563.414124C1301.684326,563.414124,1301.565308,563.229797,1301.565308,563.004578C1301.565308,562.779358,1301.237915,562.293579,1300.837769,561.925049C1300.437622,561.556519,1300.246582,561.323486,1300.413208,561.407104C1300.579834,561.490784,1300.80835,561.351563,1300.920898,561.097778C1301.274048,560.302063,1301.785767,558.265808,1301.67688,558.089661C1301.409912,557.657715,1301.387573,554.948486,1301.651001,554.948486C1301.835938,554.948486,1301.824463,554.83728,1301.618164,554.631042C1301.234253,554.247131,1301.194824,553.79364,1301.565308,554.022583C1301.980957,554.27948,1301.874634,553.897217,1301.397583,553.420227C1301.1073,553.130005,1301.065674,552.954529,1301.270874,552.886169C1301.842285,552.695679,1302.336548,551.403503,1302.040405,550.874451C1301.852051,550.53772,1301.854858,550.334595,1302.049805,550.214111C1302.206787,550.117126,1302.269897,549.650146,1302.192627,549.159241C1302.089966,548.507996,1302.137939,548.330444,1302.376953,548.478149C1302.616211,548.625977,1302.655396,548.478638,1302.527832,547.911072C1301.992432,545.530151,1301.997314,545.444946,1302.700684,544.891602C1303.072388,544.599243,1303.45752,539.782166,1306.561523,539.591003C1311.269043,539.301025,1317.067139,537.598572,1318.455933,540.163452C1319.019653,541.204346,1316.489624,543.516602,1316.1427,544.108276C1316.358887,543.573242,1316.452515,543.52478,1316.654175,543.84375C1317.0271,544.433411,1316.973755,544.562988,1316.159912,545.043701C1314.920898,545.775635,1314.812988,546.157959,1315.227051,548.347595C1315.431885,549.431396,1315.52771,550.64563,1315.439697,551.046021C1315.343384,551.484619,1315.391846,551.773926,1315.561646,551.773926C1315.845215,551.773926,1315.793823,553.365234,1315.467651,554.68396C1315.121582,556.083069,1315.149658,557.308289,1315.531128,557.454651C1315.783569,557.551514,1315.853394,557.813171,1315.74353,558.250793C1315.624268,558.72583,1315.674316,558.866455,1315.927856,558.769165C1316.184814,558.670532,1316.248291,558.871643,1316.17041,559.538574C1316.112427,560.035217,1316.195435,560.522156,1316.354858,560.620667C1316.51416,560.719238,1316.644653,561.388062,1316.644653,562.106995C1316.644653,562.825867,1316.746948,563.414124,1316.87207,563.414124C1316.997192,563.414124,1317.065063,563.898621,1317.022827,564.490845C1316.973633,565.18158,1317.095093,565.741516,1317.361572,566.052795C1317.590088,566.319641,1317.807129,566.920288,1317.843872,567.387573C1317.918579,568.337769,1318.456299,569.521362,1318.958984,569.84259C1319.141113,569.958923,1319.290161,570.176453,1319.290161,570.325928C1319.290161,570.475342,1319.617554,570.925964,1320.0177,571.327271C1320.417847,571.728516,1321.02002,572.609497,1321.355957,573.285034C1321.691895,573.960571,1322.080811,574.583679,1322.220093,574.6698C1322.359375,574.755859,1322.415405,574.920227,1322.344482,575.034912C1322.27356,575.149658,1322.341431,575.6474,1322.495239,576.140991C1322.79187,577.092896,1322.987305,578.022156,1323.073608,578.89032C1323.169067,579.851257,1322.4198,584.339783,1322.043579,585.060852C1321.555908,585.995605,1321.571289,587.850464,1322.074707,588.824097C1322.296753,589.253357,1322.564575,589.604431,1322.669922,589.604248C1322.775391,589.604065,1322.861572,590.050476,1322.861572,590.596313C1322.861572,591.142151,1322.980591,591.610657,1323.126099,591.637512C1323.271606,591.664307,1323.362305,591.54425,1323.327637,591.370605C1323.272949,591.096863,1324.368896,590.584595,1325.639404,590.290039C1325.857666,590.23938,1326.29187,590.430969,1326.604492,590.715698C1327.139038,591.202759,1327.221191,591.208252,1327.993286,590.809021C1328.769653,590.73999,1328.785645,592.893127,1330.234497,591.206604C1330.079712,591.854431,1329.342651,592.283264,1332.676514,590.472717C1332.488525,590.962708,1334.171509,591.851563,1333.500366,592.360657C1332.877686,592.833008,1332.723999,593.724304,1333.19751,594.117249C1333.689331,594.525452,1332.638184,595.56897,1333.047241,595.821838C1333.192993,595.911926,1333.575928,595.952393,1333.575928,596.194824C1333.575928,596.801636,1334.5271,598.618042,1334.735718,598.409485C1334.828735,598.316406,1335.493408,599.085205,1335.692383,599.392944C1336.072754,599.981384,1336.790649,602.553101,1336.641724,602.793945C1336.570923,602.908569,1336.660156,603.291382,1336.839966,603.644714C1337.227051,604.405151,1337.346313,605.550049,1337.017334,605.346741C1336.890625,605.268433,1336.723022,605.307983,1336.644775,605.43457C1336.566528,605.561218,1336.20105,606.373779,1335.952271,606.673645C1335.468872,607.256104,1334.264282,608.125732,1334.160767,608.128967C1333.870361,608.138062,1332.618042,609.168762,1332.889404,609.175415C1333.020996,609.17865,1332.928711,609.402344,1332.684326,609.672424C1332.427612,609.956116,1331.991211,610.12207,1331.651245,610.065308C1331.164917,609.98407,1330.947632,610.209106,1330.401245,611.359863C1329.777344,612.673706,1329.734985,612.709595,1329.652954,611.992004L1329.56604,611.231262L1329.190063,611.956116C1328.745605,612.812561,1329.269775,612.768127,1329.179443,613.00354C1328.874634,613.797974,1328.478271,613.425964,1328.630493,612.488159C1328.80127,611.435791,1328.382202,611.214722,1328.128906,612.223633C1328.037598,612.587402,1327.860596,612.88501,1327.735352,612.88501C1327.610229,612.88501,1327.577148,612.704285,1327.661865,612.483398C1327.746704,612.262573,1327.66687,611.721741,1327.484497,611.281555L1327.153076,610.481323L1326.669434,611.881592z"/>
</svg>
