<?xml version="1.0" encoding="UTF-8"?>
<svg xmlns="http://www.w3.org/2000/svg" width="134.000mm" height="66.000mm" viewBox="-1026.591553 -736.000244 134.000000 66.000000">
    <path transform="matrix(-1,-0,-0,1,-891.591553,-1072.000244)" style="stroke:#000000;stroke-width:0.05mm;fill:none" d="M27,336C29.209141,336,31,337.790863,31,340L26,340L26,344L110,344L110,340L105,340C105,337.790863,106.790863,336,109,336L131,336C133.209137,336,135,337.790863,135,340L130,340L130,344L135,344L135,398C135,400.209137,133.209137,402,131,402L5,402C2.790861,402,1,400.209137,1,398L1,344L6,344L6,340L1,340C1,337.790863,2.790862,336,5,336L27,336z"/>
</svg>
