<?xml version="1.0" encoding="UTF-8"?>
<svg xmlns="http://www.w3.org/2000/svg" width="189.183mm" height="66.000mm" viewBox="-892.591553 -736.000244 189.183105 66.000061">
    <path transform="matrix(-1,-0,-0,1,-702.408447,-1005.000183)" style="stroke:#000000;stroke-width:0.05mm;fill:none" d="M182.183105,269C184.392242,269,186.183105,270.790863,186.183105,273L181.183105,273L181.183105,277L190.183105,277L190.183105,327L186.183105,327L186.183105,331C186.183105,333.209137,184.392242,335,182.183105,335L9,335C6.790861,335,5,333.209137,5,331L5,327L1,327L1,277L10,277L10,273L5,273C5,270.790863,6.790862,269,9,269L31,269C33.209141,269,35,270.790863,35,273L30,273L30,277L161.183105,277L161.183105,273L156.183105,273C156.183105,270.790863,157.973969,269,160.183105,269L182.183105,269z"/>
</svg>
