<?xml version="1.0" encoding="UTF-8"?>
<svg xmlns="http://www.w3.org/2000/svg" width="468.557mm" height="371.609mm" viewBox="-1044.901611 -603.727173 468.557007 371.609406">
    <path transform="matrix(-1,0,0,-1,0,0)" style="stroke:#000000;stroke-width:0.05mm;fill:none" d="M868.582031,309.726563L868.613281,309.726563L870.167969,309.789063L870.183594,309.789063C871.220337,309.845093,872.256958,309.907593,873.292969,309.976563L873.308594,309.976563L874.859375,310.101563L874.878906,310.101563C876.85083,310.266754,878.787842,310.71994,880.628906,311.445313L882.121094,312.066406L882.140625,312.074219L883.617188,312.726563L883.636719,312.734375L885.101563,313.414063L885.121094,313.421875L886.582031,314.140625C891.106262,316.427368,895.611023,318.683716,900.152344,320.9375C902.251343,321.980347,904.389465,322.941956,906.5625,323.820313C908.185852,324.476898,909.857422,325.007385,911.5625,325.40625C912.119202,325.549683,912.682373,325.666595,913.25,325.757813L915.21875,326.097656C917.20874,326.462158,919.187439,326.885406,921.152344,327.367188C921.755249,327.513062,922.353149,327.67865,922.945313,327.863281L923.453125,328.039063C924.009827,328.249084,924.551514,328.497009,925.074219,328.78125C925.461731,328.992981,925.844482,329.203674,926.230469,329.417969L927.332031,330.082031L927.367188,330.101563L928.4375,330.808594L928.46875,330.832031C928.892944,331.135986,929.114746,331.294678,929.539063,331.597656L930.804688,332.566406L930.828125,332.582031L932.0625,333.585938L932.085938,333.609375L933.289063,334.652344L933.308594,334.667969L934.484375,335.742188L934.503906,335.761719L935.644531,336.871094C936.026001,337.255646,936.403259,337.643433,936.777344,338.035156L936.796875,338.054688L937.875,339.230469L937.894531,339.253906C938.250977,339.661621,938.603271,340.071045,938.953125,340.484375C939.988831,341.721252,940.921509,343.040802,941.742188,344.429688C941.891357,344.707794,942.037476,344.987823,942.179688,345.269531L942.542969,346.078125C942.672729,346.399902,942.792236,346.725677,942.902344,347.054688L943.003906,347.421875C943.257629,348.430725,943.302368,349.480835,943.136719,350.507813L942.914063,351.738281L942.910156,351.765625L942.648438,352.992188L942.417969,354.363281L942.226563,355.824219L942.105469,357.210938C942.070923,357.889435,942.037476,358.555389,942.003906,359.234375C941.956665,359.854614,941.858521,360.46994,941.710938,361.074219C941.490967,361.985901,941.240906,362.890045,940.960938,363.785156L940.523438,365.085938L940.511719,365.113281L940.035156,366.394531L940.027344,366.417969L939.074219,368.804688L939.0625,368.828125L938.050781,371.1875L938.042969,371.207031L936.980469,373.542969L936.972656,373.5625C935.856689,375.921631,934.685913,378.254211,933.460938,380.558594L932.21875,382.847656L932.210938,382.863281L930.929688,385.128906L930.921875,385.144531C930.052124,386.652466,929.157227,388.146484,928.238281,389.625L928.226563,389.640625L926.828125,391.839844L926.820313,391.855469L925.371094,394.050781L924.488281,395.339844L924.476563,395.363281L923.558594,396.636719L923.542969,396.652344L922.597656,397.90625L922.585938,397.925781L921.609375,399.15625C921.260254,399.544922,920.915527,399.936462,920.574219,400.332031L920.558594,400.351563C919.522644,401.494904,918.44104,402.5961,917.316406,403.652344L915.242188,405.5625L915.226563,405.574219L913.113281,407.449219L913.097656,407.464844L910.949219,409.300781L910.933594,409.3125C902.338806,416.454437,893.263916,422.998596,883.773438,428.898438L882.042969,429.964844L882.027344,429.976563L880.214844,431.042969L880.195313,431.050781L878.359375,432.078125L878.34375,432.089844L876.484375,433.082031L876.464844,433.089844L874.589844,434.042969L874.5625,434.058594L872.835938,434.867188L872.8125,434.875L871.066406,435.644531L871.042969,435.65625L869.28125,436.378906L869.257813,436.386719L867.476563,437.066406L867.457031,437.074219L865.660156,437.710938L865.632813,437.71875C863.477173,438.44989,861.291626,439.089844,859.082031,439.636719C856.182556,440.359406,853.230774,440.853119,850.253906,441.113281L849.46875,441.164063L849.441406,441.167969C848.076111,441.238586,846.707825,441.228302,845.34375,441.136719C842.368835,440.794006,839.387573,440.47998,836.40625,440.195313C834.918335,440.050049,833.424683,439.973114,831.929688,439.964844C830.663818,439.985443,829.407471,440.188171,828.199219,440.566406C827.519592,440.738312,826.829163,440.86438,826.132813,440.945313C825.920837,440.9664,825.707153,440.958893,825.496094,440.929688C825.439575,440.914459,825.384338,440.899231,825.328125,440.882813L825.265625,440.859375L824.1875,440.980469C823.263306,442.390747,822.17627,443.687317,820.949219,444.84375C819.378845,446.327698,817.87854,447.884125,816.453125,449.507813C813.823486,452.449158,811.285889,455.471313,808.84375,458.570313L807.664063,460.042969L807.652344,460.058594C806.853027,461.037811,806.0354,462.001343,805.199219,462.949219L805.1875,462.964844L803.929688,464.371094C802.572632,465.851501,801.089172,467.210724,799.496094,468.433594C797.992676,469.543213,796.362732,470.470123,794.640625,471.195313L794.601563,471.210938C794.02832,471.453491,793.444519,471.670013,792.851563,471.859375C791.57135,472.294922,790.265442,472.650909,788.941406,472.925781C786.833313,473.38681,784.704712,473.747986,782.5625,474.007813C780.872314,474.232056,779.178833,474.439209,777.484375,474.628906L777.46875,474.632813C775.239014,474.863068,772.998169,475.079865,770.765625,475.28125C768.749634,475.468445,766.739075,475.704193,764.734375,475.988281C763.166321,476.229279,761.611023,476.547302,760.074219,476.941406L758.96875,477.265625L757.957031,477.617188L756.898438,478.042969L756.109375,478.40625C755.567993,478.678894,755.0401,478.977509,754.527344,479.300781L753.832031,479.773438L753.078125,480.339844L752.390625,480.914063C751.942383,481.309875,751.514832,481.728424,751.109375,482.167969C750.516785,482.810303,749.949036,483.475159,749.40625,484.160156L748.613281,485.207031L747.867188,486.28125C747.043152,487.541809,746.240845,488.817078,745.460938,490.105469L744.691406,491.402344L744.679688,491.425781C744.126648,492.329132,743.557617,493.222443,742.972656,494.105469L742.960938,494.125C742.375,495.007996,741.773315,495.880615,741.15625,496.742188L741.140625,496.757813L740.207031,498.03125L740.199219,498.046875L739.242188,499.308594C738.582825,500.161682,737.907043,501.001434,737.214844,501.828125L736.273438,502.894531L736.253906,502.917969C735.348999,503.866028,734.473755,504.841766,733.628906,505.84375C733.068359,506.538727,732.551636,507.267944,732.082031,508.027344C731.911255,508.328491,731.771362,508.646149,731.667969,508.976563C731.743713,508.955048,731.819214,508.932983,731.894531,508.910156L731.972656,508.875C732.054565,508.835297,732.133057,508.789246,732.210938,508.742188C732.85022,508.35025,733.448364,507.894958,733.996094,507.382813L735.199219,506.226563L736.316406,505.082031L737.4375,503.847656C738.539612,502.570618,739.609192,501.26535,740.644531,499.933594C742.030884,498.119049,743.347046,496.251678,744.589844,494.335938C745.207214,493.373749,745.810181,492.40213,746.398438,491.421875C747.683655,489.264282,749.073425,487.170654,750.5625,485.148438C750.971313,484.59491,751.405151,484.060333,751.863281,483.546875L751.894531,483.515625C752.137695,483.26123,752.377502,483.003448,752.613281,482.742188L753.332031,482.039063C753.747864,481.648956,754.196533,481.29541,754.671875,480.980469L754.707031,480.953125C755.428772,480.448883,756.242249,480.09024,757.101563,479.898438L757.125,479.890625C757.782166,479.743652,758.45752,479.694519,759.128906,479.746094C759.471558,479.76001,759.813293,479.792145,760.152344,479.84375L760.238281,479.765625L760.226563,479.730469L760.195313,479.617188C760.185059,479.570496,760.175842,479.523712,760.167969,479.476563C760.162964,479.428467,760.162109,479.380249,760.160156,479.332031C760.162354,479.299438,760.165344,479.266937,760.167969,479.234375C760.17926,479.157623,760.198669,479.082642,760.21875,479.007813L760.261719,478.878906C760.29895,478.80835,760.335693,478.737549,760.375,478.667969C760.432068,478.591766,760.493652,478.518951,760.5625,478.453125C760.616028,478.41153,760.669495,478.370148,760.722656,478.328125C760.808838,478.270508,760.895935,478.214233,760.984375,478.160156C761.063293,478.123779,761.141663,478.086273,761.222656,478.054688L761.34375,478.011719C762.052856,477.796539,762.777771,477.637482,763.511719,477.535156C765.418945,477.277771,767.330688,477.055115,769.246094,476.867188C772.777161,476.541748,776.322998,476.204834,779.851563,475.859375C782.327698,475.597778,784.794922,475.259003,787.25,474.84375C789.092957,474.521027,790.915161,474.08905,792.707031,473.550781C795.067688,472.818665,797.307922,471.743652,799.355469,470.359375C799.948975,469.948761,800.525024,469.51355,801.082031,469.054688C802.639221,467.78006,804.10498,466.397705,805.46875,464.917969C806.412842,463.922089,807.389954,462.957977,808.398438,462.027344L808.425781,462.007813C808.750366,461.716949,809.086182,461.438934,809.433594,461.175781C809.687561,460.980988,809.960388,460.811981,810.25,460.675781L811.964844,458.136719L811.980469,458.082031L811.992188,458.035156C812.02356,457.949585,812.054077,457.866608,812.085938,457.78125C812.099609,457.751556,812.112305,457.721497,812.125,457.691406L812.144531,457.652344C812.454285,457.060852,812.814941,456.497498,813.222656,455.96875L814.242188,454.667969L814.257813,454.644531C814.635986,454.191772,814.958618,453.804932,815.335938,453.351563L816.429688,452.117188L816.449219,452.097656C817.243164,451.247437,818.045288,450.404938,818.855469,449.570313C820.153198,448.254547,821.490906,446.97934,822.867188,445.746094C823.156799,445.50351,823.443176,445.257599,823.726563,445.007813L824.582031,444.339844C824.892334,444.122803,825.200317,443.904541,825.507813,443.683594C825.820984,443.474243,826.137451,443.269745,826.457031,443.070313C828.611145,441.737274,831.113037,441.074799,833.644531,441.167969L834.917969,441.242188C835.360046,441.28656,835.78418,441.328369,836.226563,441.371094L836.269531,441.378906L837.53125,441.558594L837.570313,441.5625C838.501099,441.745026,839.436218,441.90387,840.375,442.039063L841.890625,442.230469L843.4375,442.375L845.019531,442.464844L846.566406,442.503906L848.09375,442.492188L849.683594,442.425781C850.537598,442.369751,851.390808,442.298004,852.242188,442.210938C854.601257,441.942047,856.945435,441.554932,859.265625,441.050781C859.901855,440.901398,860.633545,440.72879,861.269531,440.578125C863.847839,439.907166,866.386963,439.093384,868.875,438.140625C870.653076,437.463898,872.407959,436.727814,874.136719,435.933594L874.671875,435.707031C875.262451,435.465942,875.863098,435.250458,876.472656,435.0625C876.736572,434.996124,877.005493,434.950592,877.277344,434.9375C877.553467,434.924896,877.8302,434.94342,878.101563,434.996094L878.289063,435.042969L878.398438,434.847656C878.385193,434.743988,878.379333,434.639435,878.386719,434.535156C878.400635,434.43924,878.423523,434.344879,878.457031,434.253906C878.484009,434.190552,878.513855,434.128387,878.550781,434.070313C878.589417,434.019226,878.628357,433.968323,878.667969,433.917969C878.690979,433.895325,878.714417,433.873291,878.738281,433.851563C878.778442,433.815338,878.822998,433.785004,878.867188,433.753906C880.644775,432.634705,882.428223,431.526855,884.21875,430.429688L886.835938,428.789063L889.445313,427.089844L892.003906,425.363281C896.416077,422.282227,900.760498,419.102417,905.03125,415.828125C908.475952,413.178955,911.870544,410.463013,915.210938,407.683594C916.432983,406.640747,917.638428,405.579712,918.828125,404.5L920.007813,403.3125L921.140625,402.085938L922.277344,400.773438L923.351563,399.449219L924.746094,397.65625L926.089844,395.828125L927.367188,393.988281C928.114136,392.875671,928.84491,391.751404,929.558594,390.617188C931.703491,387.196899,933.683655,383.675842,935.492188,380.066406L936.878906,377.296875C937.78125,375.447571,938.656128,373.585938,939.503906,371.710938C940.773132,368.82132,942.027283,365.934845,943.273438,363.035156L943.292969,362.992188C943.336609,362.924103,943.379822,362.855774,943.425781,362.789063L943.457031,362.753906C943.510193,362.693085,943.571899,362.640015,943.640625,362.597656C943.670044,362.581909,943.696838,362.562469,943.726563,362.546875C943.800171,362.513428,943.875793,362.484528,943.953125,362.460938C944.043518,362.44519,944.134705,362.434601,944.226563,362.433594L958.257813,362.9375C962.665405,363.079956,967.069336,363.302612,971.46875,363.605469L973.035156,363.742188L973.054688,363.742188L974.617188,363.90625L974.636719,363.910156L976.195313,364.105469L976.210938,364.109375C976.73877,364.189972,977.267517,364.265717,977.796875,364.335938L979.113281,364.566406C979.572083,364.668762,980.031433,364.766541,980.492188,364.859375L981.78125,365.1875L981.816406,365.195313C982.25592,365.321686,982.694763,365.450623,983.132813,365.582031L984.398438,366.007813L984.433594,366.023438L985.679688,366.496094C986.097961,366.681,986.518677,366.860748,986.941406,367.035156L986.972656,367.046875L988.183594,367.613281L988.203125,367.621094L989.816406,368.417969L989.835938,368.429688L991.429688,369.257813L991.449219,369.265625L993.027344,370.128906L993.042969,370.140625L994.601563,371.035156C996.701843,372.271545,998.749207,373.595581,1000.738281,375.003906L1002.414063,376.246094L1002.4375,376.261719L1004.078125,377.546875C1004.688721,378.055786,1005.093994,378.393677,1005.703125,378.902344L1005.722656,378.921875L1007.285156,380.296875L1007.308594,380.316406L1008.832031,381.742188C1009.343506,382.240723,1009.850464,382.741211,1010.355469,383.246094L1011.796875,384.75L1011.816406,384.773438L1013.222656,386.324219L1016.25,389.726563C1019.307007,393.107208,1022.394409,396.452179,1025.519531,399.769531L1026.429688,400.773438L1026.445313,400.792969L1027.335938,401.828125L1027.351563,401.84375L1028.21875,402.898438L1028.234375,402.921875C1029.903198,405.001007,1031.421387,407.196747,1032.777344,409.492188L1033.234375,410.363281C1033.384155,410.671387,1033.529785,410.981293,1033.671875,411.292969C1033.807251,411.625916,1033.943848,411.96347,1034.078125,412.296875C1034.140259,412.467468,1034.201172,412.637451,1034.261719,412.808594C1034.312988,412.99823,1034.362427,413.188385,1034.410156,413.378906L1034.414063,413.417969C1034.484619,413.748474,1034.528931,414.084198,1034.542969,414.421875C1034.658203,415.140625,1034.823242,415.850494,1035.035156,416.546875C1035.549927,418.28299,1036.099609,420.008606,1036.683594,421.722656L1036.953125,422.605469L1036.957031,422.625L1037.210938,423.511719L1037.21875,423.535156C1037.764648,425.536835,1038.169556,427.574402,1038.429688,429.632813C1038.487061,430.175079,1038.511597,430.720367,1038.503906,431.265625C1038.489868,431.853607,1038.526489,432.441711,1038.613281,433.023438L1038.722656,433.578125C1038.780396,433.807007,1038.875244,434.024719,1039.003906,434.222656L1039.121094,434.382813C1039.237549,434.524017,1039.368652,434.652588,1039.515625,434.761719L1040.503906,435.46875L1040.558594,435.511719C1041.577637,436.299957,1042.433838,437.278839,1043.078125,438.394531L1043.109375,438.445313L1043.386719,438.964844C1044.198486,440.704346,1044.685913,442.577576,1044.824219,444.492188L1044.871094,445.277344C1044.954956,447.172089,1044.865967,449.070618,1044.605469,450.949219C1044.361694,452.700195,1044.025146,454.43692,1043.597656,456.152344L1043.40625,456.921875L1043.398438,456.941406C1043.267578,457.456238,1043.129517,457.969482,1042.984375,458.480469L1042.976563,458.5C1042.747314,459.309204,1042.502197,460.114227,1042.242188,460.914063C1041.750854,462.548676,1041.289795,464.192017,1040.859375,465.84375C1040.722046,466.386688,1040.608521,466.935364,1040.519531,467.488281C1040.439331,468.010162,1040.383301,468.535431,1040.351563,469.0625L1040.390625,469.960938L1040.480469,470.890625L1040.617188,471.777344C1040.775391,472.538116,1040.952637,473.294891,1041.148438,474.046875C1041.481445,475.421204,1041.793945,476.80011,1042.085938,478.183594L1042.246094,479C1042.289551,479.281708,1042.33667,479.563141,1042.386719,479.84375L1042.394531,479.871094C1042.516357,480.646423,1042.599365,481.427399,1042.644531,482.210938C1042.680054,482.952179,1042.644653,483.69516,1042.539063,484.429688C1042.408203,485.266785,1042.113647,486.070007,1041.671875,486.792969C1041.565063,486.942932,1041.457275,487.095337,1041.351563,487.246094L1041.328125,487.269531L1041.003906,487.65625C1040.984131,487.680664,1040.962769,487.703613,1040.941406,487.726563C1040.812134,487.858978,1040.680786,487.98941,1040.546875,488.117188C1040.224609,488.380157,1039.909546,488.639923,1039.589844,488.90625C1039.258911,489.19278,1038.957764,489.511993,1038.691406,489.859375C1038.317749,490.307495,1038.010986,490.807404,1037.78125,491.34375C1037.521484,491.928894,1037.33606,492.544342,1037.230469,493.175781C1037.138306,493.807831,1037.062744,494.442108,1037.003906,495.078125C1036.929688,496.044983,1036.904785,497.014984,1036.929688,497.984375C1036.925781,499.017487,1036.873535,500.049866,1036.773438,501.078125L1036.699219,501.542969C1036.47583,502.753387,1036.031494,503.912445,1035.386719,504.960938L1034.761719,505.984375L1034.742188,506.023438L1034.074219,507.019531L1034.050781,507.050781C1033.812012,507.389832,1033.567383,507.724548,1033.316406,508.054688C1033.059448,508.385162,1032.797363,508.712006,1032.53125,509.035156L1031.710938,509.949219C1029.712891,512.095886,1027.500854,514.033081,1025.109375,515.730469C1024.42627,516.216736,1023.69928,516.637878,1022.9375,516.988281C1022.757751,517.068237,1022.573914,517.138733,1022.386719,517.199219C1022.288391,517.224609,1022.195984,517.248413,1022.097656,517.273438C1021.937561,517.301697,1021.775818,517.320618,1021.613281,517.320313C1021.581604,517.317505,1021.547302,517.315308,1021.515625,517.3125L1021.46875,517.304688C1021.381958,517.278564,1021.294006,517.25647,1021.207031,517.230469C1021.161682,517.210388,1021.118347,517.186523,1021.074219,517.164063C1021.048218,517.147034,1021.021362,517.131592,1020.996094,517.113281C1020.951355,517.075928,1020.906982,517.038635,1020.863281,517C1020.820435,516.955444,1020.77948,516.909302,1020.738281,516.863281C1020.717529,516.835083,1020.696045,516.805908,1020.675781,516.777344C1020.63501,516.708008,1020.597839,516.636658,1020.566406,516.5625L1020.550781,516.515625C1020.342407,516.801208,1020.115051,517.072266,1019.871094,517.328125C1019.827393,517.370422,1019.784546,517.413574,1019.738281,517.453125C1019.459534,517.686707,1019.162781,517.897827,1018.851563,518.085938C1018.473633,518.485168,1018.166504,518.945923,1017.945313,519.449219C1017.870117,519.60907,1017.80957,519.775269,1017.761719,519.945313C1017.551575,520.540894,1017.400696,521.155884,1017.3125,521.78125C1016.859192,523.703674,1016.138062,525.552979,1015.167969,527.273438L1014.5,528.417969L1014.484375,528.441406L1013.785156,529.566406L1013.773438,529.589844C1013.28717,530.348206,1012.780151,531.093079,1012.253906,531.824219L1010.585938,534.09375L1010.574219,534.109375L1008.859375,536.339844L1008.847656,536.355469L1007.085938,538.550781L1007.070313,538.570313L1005.261719,540.722656L1005.234375,540.753906L1003.851563,542.265625L1003.828125,542.289063L1002.398438,543.757813C1001.903625,544.243469,1001.407349,544.723999,1000.90625,545.203125L1000.882813,545.222656C999.653809,546.349731,998.416443,547.464844,997.167969,548.570313L994.964844,550.46875L994.941406,550.488281L993.800781,551.40625L993.777344,551.421875L992.617188,552.308594L992.59375,552.328125L991.40625,553.179688L991.386719,553.191406L990.179688,554.015625L990.160156,554.03125C988.513489,555.120178,986.810669,556.121582,985.058594,557.03125C984.84082,557.148865,984.619019,557.259033,984.394531,557.363281C983.610596,557.728699,982.799377,558.03241,981.96875,558.273438C981.714844,558.333618,981.458191,558.381714,981.199219,558.414063C980.977356,558.425598,980.75769,558.462585,980.542969,558.519531C979.198669,558.946655,977.881226,559.454224,976.597656,560.039063C972.624329,561.735107,968.614319,563.343628,964.570313,564.863281C960.320435,566.436218,956.171936,568.270386,952.148438,570.355469C951.074585,570.923462,950.027893,571.541321,949.011719,572.207031L947.824219,572.941406L947.808594,572.949219C947.008057,573.440063,946.197876,573.915527,945.378906,574.375C944.961975,574.598694,944.547668,574.827881,944.136719,575.0625L944.121094,575.070313L942.882813,575.726563C941.618042,576.388306,940.336243,577.017456,939.039063,577.613281C938.387817,577.900269,937.732666,578.179016,937.074219,578.449219L937.058594,578.457031L936.070313,578.851563L936.054688,578.855469C935.392822,579.112793,934.72699,579.361572,934.058594,579.601563C933.718811,579.724304,933.377808,579.842407,933.035156,579.957031L933.019531,579.960938C930.161194,580.918945,927.256531,581.732422,924.316406,582.398438C923.396484,582.60498,922.028809,582.911621,921.109375,583.117188C919.078613,583.532715,916.800293,584,914.769531,584.417969L911.65625,585.101563C908.550415,585.812866,905.457336,586.579834,902.378906,587.402344C899.301086,588.233276,896.240051,589.121216,893.195313,590.066406C891.093262,590.733398,889.012573,591.466919,886.957031,592.265625C886.040527,592.627686,885.133667,593.014282,884.238281,593.425781L884.222656,593.433594L883.417969,593.773438L883.394531,593.78125L882.582031,594.101563C882.299683,594.201233,882.018311,594.304138,881.738281,594.410156C880.31842,594.910522,878.869019,595.322632,877.398438,595.644531L875.542969,596.035156L875.527344,596.035156L873.667969,596.394531L873.652344,596.398438L871.785156,596.730469L871.769531,596.734375C867.260132,597.468628,862.747803,598.164917,858.226563,598.824219C855.993774,599.122681,853.759827,599.436768,851.53125,599.765625L851.515625,599.769531C844.901978,600.676208,838.252686,601.300476,831.585938,601.640625L828.945313,601.75L828.925781,601.75L826.28125,601.808594C825.385986,601.817993,824.488953,601.821899,823.59375,601.820313C820.938293,601.804443,818.283752,601.718506,815.632813,601.5625L815.613281,601.558594L812.972656,601.371094L812.957031,601.371094L810.320313,601.140625L810.300781,601.140625C807.877136,600.866028,805.446228,600.653687,803.011719,600.503906C800.58783,600.383667,798.158508,600.57019,795.78125,601.058594C793.929382,601.41571,792.079651,601.789551,790.234375,602.179688C789.597778,602.30365,788.958923,602.422241,788.320313,602.535156C787.677856,602.64209,787.037415,602.747314,786.394531,602.851563L786.375,602.851563L784.46875,603.121094L784.449219,603.125L782.539063,603.359375L782.511719,603.363281L781.015625,603.503906L780.992188,603.503906L779.5,603.609375L779.476563,603.613281L777.980469,603.683594L777.960938,603.683594C775.427429,603.778809,772.890564,603.725281,770.363281,603.523438L768.042969,603.324219L768.023438,603.324219L765.707031,603.078125L765.691406,603.074219L763.378906,602.789063L763.359375,602.789063L761.050781,602.464844C761.00116,602.453308,760.952087,602.440063,760.902344,602.429688C760.74176,602.393005,760.584106,602.344055,760.433594,602.277344C760.379395,602.242676,760.324951,602.208313,760.269531,602.175781C760.208008,602.124268,760.149719,602.069031,760.097656,602.007813C760.051392,601.942749,760.005005,601.877808,759.964844,601.808594C759.944702,601.762024,759.924561,601.715332,759.90625,601.667969L759.738281,601.195313C759.688538,601.253479,759.636902,601.309998,759.578125,601.359375C759.539917,601.389282,759.502075,601.419495,759.460938,601.445313C759.37616,601.485596,759.290771,601.524292,759.207031,601.566406L759.164063,601.585938C759.074463,601.614075,758.983215,601.636475,758.890625,601.652344C758.83844,601.660889,758.786438,601.670654,758.734375,601.679688C758.696655,601.683044,758.658875,601.685181,758.621094,601.6875C757.99353,601.70697,757.365356,601.678345,756.742188,601.601563L755.808594,601.480469L755.792969,601.476563L754.863281,601.339844L754.847656,601.339844C754.215515,601.241638,753.585266,601.132324,752.957031,601.011719C750.949829,600.640442,748.947876,600.238037,746.953125,599.804688L746.9375,599.800781C744.93988,599.368408,742.94989,598.908936,740.964844,598.421875C736.979736,597.442322,733.022034,596.351929,729.097656,595.152344C724.162415,593.624146,719.272766,591.954346,714.433594,590.144531C711.994263,589.230713,709.586426,588.233887,707.214844,587.15625L707.195313,587.148438C706.15918,586.671936,705.137878,586.16394,704.132813,585.625C703.299133,585.162354,702.496338,584.646057,701.730469,584.078125C701.446899,583.85437,701.188904,583.599731,700.964844,583.316406C700.869568,583.184448,700.771973,583.054077,700.671875,582.925781C700.585266,582.768616,700.514526,582.603516,700.457031,582.433594C700.15686,582.376587,699.85614,582.323364,699.554688,582.273438C699.524963,582.263062,699.494446,582.256409,699.464844,582.246094C696.452454,581.268066,693.452759,580.266479,690.457031,579.238281L690.441406,579.230469L689.140625,578.769531L689.125,578.761719L687.832031,578.273438L687.816406,578.269531C686.93927,577.931885,686.069519,577.576416,685.207031,577.203125L684.667969,576.949219C684.444824,576.838989,684.226013,576.720398,684.011719,576.59375C683.901917,576.508667,683.793457,576.421875,683.6875,576.332031C683.646606,576.288208,683.607117,576.243225,683.566406,576.199219C683.136475,575.803467,682.683777,575.433228,682.210938,575.089844C679.366577,572.967773,676.477295,570.904358,673.546875,568.902344C671.330994,567.352295,669.150391,565.751465,667.007813,564.101563C665.404053,562.843323,663.861938,561.508301,662.386719,560.101563C660.718567,558.501221,659.246155,556.70874,658,554.761719L657.570313,554.027344L657.550781,553.996094L657.152344,553.25C656.802612,552.562317,656.477112,551.862549,656.175781,551.152344C655.66394,550.061462,655.030823,549.031677,654.289063,548.082031C653.855591,547.565918,653.400452,547.06842,652.925781,546.589844L652.191406,545.886719C650.367065,544.307007,648.487061,542.793152,646.554688,541.347656L644.007813,539.433594L641.4375,537.503906C640.809326,537.026123,640.186096,536.543518,639.566406,536.054688L637.746094,534.566406L637.722656,534.550781L635.945313,533.011719L635.929688,532.992188L634.191406,531.410156L634.171875,531.394531C632.026123,529.36322,630.000427,527.208496,628.105469,524.941406C625.872742,522.312012,623.733337,519.604492,621.691406,516.824219C620.672974,515.454041,619.675537,514.06842,618.699219,512.667969L618.113281,511.773438L618.097656,511.753906L617.535156,510.84375L617.523438,510.820313C617.141113,510.191376,616.77887,509.550507,616.4375,508.898438C615.549927,507.145294,614.847229,505.304626,614.339844,503.40625L614.046875,502.347656L614.042969,502.324219L613.773438,501.261719L613.769531,501.242188L613.523438,500.175781L613.515625,500.152344L613.292969,499.082031C613.002197,497.595551,612.779053,496.096619,612.625,494.589844C612.592712,494.017456,612.573486,493.444305,612.566406,492.871094L612.523438,492.367188C612.48761,492.121094,612.433594,491.877991,612.359375,491.640625C612.293091,491.423859,612.212341,491.2117,612.113281,491.007813C611.682373,490.29187,611.171448,489.627289,610.589844,489.027344L609.957031,488.417969C609.730286,488.188904,609.506226,487.957153,609.285156,487.722656C609.071716,487.47699,608.853943,487.234863,608.632813,486.996094L608.605469,486.96875L608.007813,486.25L607.988281,486.222656C607.354431,485.427338,606.735779,484.619812,606.132813,483.800781L606.125,483.785156C605.517822,482.969788,604.926697,482.143036,604.351563,481.304688L604.34375,481.289063C603.767639,480.454224,603.206116,479.608765,602.660156,478.753906L602.648438,478.738281C602.098145,477.884033,601.564148,477.019226,601.046875,476.144531C597.393188,470.164185,593.841919,464.126587,590.390625,458.027344C589.938171,457.202759,589.506958,456.366364,589.097656,455.519531C588.956177,455.21286,588.865417,454.885529,588.820313,454.550781C588.733032,454.156372,588.625183,453.766876,588.5,453.382813C587.748169,450.907623,586.971313,448.443146,586.167969,445.984375L586.164063,445.96875L585.851563,444.929688L585.847656,444.910156L585.554688,443.867188L585.546875,443.847656L585.277344,442.796875L585.273438,442.777344C584.825623,440.972504,584.470886,439.145935,584.210938,437.304688L584.160156,436.675781L584.15625,436.648438L584.121094,436.019531C584.106262,435.600464,584.101074,435.18103,584.105469,434.761719C584.09198,434.125519,584.002014,433.493195,583.835938,432.878906C583.634827,432.208679,583.261353,431.602692,582.75,431.125L582.199219,430.574219C582.032227,430.378784,581.867065,430.182373,581.703125,429.984375L581.671875,429.945313C581.510986,429.726288,581.353638,429.504883,581.199219,429.28125C580.423462,428.024017,579.77063,426.695007,579.25,425.3125L578.824219,424.144531L578.816406,424.117188C578.115479,422.127411,577.559265,420.089539,577.152344,418.019531L577.144531,417.996094L576.917969,416.773438L576.914063,416.742188C576.80896,416.089508,576.711365,415.436127,576.621094,414.78125L576.617188,414.757813C576.390625,413.025421,576.304504,411.277527,576.359375,409.53125L576.601563,403.636719C576.605286,403.58963,576.608643,403.542572,576.617188,403.496094C576.638794,403.367401,576.688721,403.244904,576.761719,403.136719C576.78772,403.095764,576.817322,403.057343,576.847656,403.019531C576.880493,402.983368,576.917664,402.951782,576.953125,402.917969C577.002869,402.878174,577.053528,402.8396,577.109375,402.808594C577.153137,402.786713,577.196716,402.764496,577.242188,402.746094C577.471741,402.662506,577.722656,402.661163,577.953125,402.742188C577.998413,402.760834,578.042419,402.782288,578.085938,402.804688C578.142822,402.833832,578.192932,402.873383,578.242188,402.914063L578.28125,402.945313C578.317871,402.976715,578.352295,403.010681,578.378906,403.050781C578.40741,403.093872,578.436096,403.136749,578.464844,403.179688L582.34375,409.867188C585.016724,414.527802,588.053467,418.969879,591.425781,423.152344C593.312195,425.476074,595.360352,427.663696,597.554688,429.699219C599.154663,431.156403,600.878601,432.471283,602.707031,433.628906C603.801025,434.283691,604.962891,434.81781,606.171875,435.222656C606.805298,435.406616,607.448242,435.556458,608.097656,435.671875C608.75177,435.813782,609.402893,435.968811,610.050781,436.136719L609.199219,435.441406C607.83136,435.406403,606.48114,435.12384,605.214844,434.605469L604.273438,434.152344L604.21875,434.125L603.308594,433.617188C602.995361,433.42453,602.685486,433.226501,602.378906,433.023438C602.067749,432.802856,601.759277,432.57901,601.453125,432.351563L600.347656,431.484375L600.324219,431.46875L599.242188,430.570313L599.222656,430.554688L598.164063,429.628906L598.148438,429.613281L597.113281,428.664063C595.718262,427.347015,594.389832,425.96106,593.132813,424.511719C589.519653,420.341736,586.281799,415.860718,583.457031,411.121094C582.996338,410.332397,582.541565,409.543701,582.089844,408.75L582.078125,408.734375L581.421875,407.535156L581.417969,407.519531C580.775085,406.314484,580.137329,405.102844,579.507813,403.890625C579.089966,403.062836,578.688782,402.226807,578.304688,401.382813C578.005005,400.698975,577.783203,399.983612,577.644531,399.25C577.537048,398.446564,577.584045,397.630005,577.78125,396.84375C577.903015,396.455719,578.011169,396.063568,578.105469,395.667969L578.121094,395.613281L578.417969,394.726563C578.545227,394.423553,578.664917,394.117401,578.777344,393.808594L578.796875,393.753906L579.1875,392.902344L579.203125,392.875L579.683594,391.914063L579.691406,391.894531L580.191406,390.941406C581.230164,389.005615,582.381897,387.132568,583.640625,385.332031L584.773438,383.714844L584.785156,383.691406L585.96875,382.097656L585.988281,382.074219L587.214844,380.519531L587.234375,380.5C587.661255,379.978455,588.093445,379.461609,588.53125,378.949219L589.308594,378.085938L589.332031,378.058594C590.331299,376.983521,591.397156,375.972351,592.523438,375.03125C595.870911,372.238342,599.711792,370.097229,603.847656,368.71875L603.871094,368.714844C607.148743,367.648895,610.627136,367.348236,614.039063,367.835938L615.574219,368.070313C617.133545,368.329315,618.682861,368.645874,620.21875,369.019531C622.06842,369.450104,623.916321,369.898407,625.757813,370.363281C628.494324,370.996033,631.241821,371.578094,634,372.109375L636.777344,372.640625C640.46637,373.302063,644.169983,373.888306,647.882813,374.398438C658.92334,375.743408,669.918579,377.151611,680.941406,378.632813L692.988281,372.746094C698.140076,370.223083,703.403198,367.934326,708.761719,365.886719C709.768066,365.501343,710.789734,365.157288,711.824219,364.855469L718.070313,363.074219L719.128906,362.457031C719.172058,362.432678,719.216187,362.410126,719.261719,362.390625C719.288879,362.380951,719.316223,362.371948,719.34375,362.363281C721.617065,361.669678,724.005127,360.946289,726.28125,360.261719L727.046875,360.039063L727.066406,360.035156L727.847656,359.828125L727.871094,359.820313L728.652344,359.632813L728.675781,359.628906L729.460938,359.460938C729.733887,359.413208,730.006104,359.361145,730.277344,359.304688L730.304688,359.296875L731.097656,359.167969L731.117188,359.167969C731.672119,359.080109,732.229736,359.010071,732.789063,358.957031L733.996094,358.878906L734.023438,358.875L735.226563,358.828125C736.909424,358.800232,738.592896,358.832825,740.273438,358.925781C741.651611,358.982117,743.031494,358.988678,744.410156,358.945313C744.667236,358.926758,744.920105,358.872131,745.164063,358.789063L745.195313,358.765625C745.274292,358.465576,745.331543,358.160187,745.363281,357.851563L745.367188,357.824219C745.441284,357.442291,745.542358,357.06604,745.671875,356.699219C745.734375,356.52533,745.802429,356.353516,745.875,356.183594C745.959412,355.981995,746.054626,355.785126,746.160156,355.59375L746.175781,355.570313C746.353027,355.243073,746.552673,354.928467,746.773438,354.628906C747.031372,354.292542,747.313232,353.975159,747.617188,353.679688C747.805359,353.501678,747.995178,353.325867,748.1875,353.152344L748.773438,352.683594C749.198364,352.367432,749.643311,352.078979,750.105469,351.820313C750.129028,351.807404,750.151733,351.793274,750.175781,351.78125C750.621765,351.543976,751.082153,351.334869,751.554688,351.15625C751.805115,351.065308,752.057861,350.980804,752.3125,350.902344C752.586304,350.828064,752.860901,350.757874,753.136719,350.691406C754.950928,350.307678,756.774536,349.969055,758.605469,349.675781C767.689331,348.177551,776.807495,346.899841,785.953125,345.84375L787.242188,345.710938L787.257813,345.710938L788.546875,345.601563L788.5625,345.601563L789.851563,345.511719L789.871094,345.507813L791.140625,345.441406C793.423035,345.138062,795.711975,344.857849,798,344.601563L800.996094,344.246094C801.698547,344.161377,802.39624,344.040741,803.085938,343.882813C804.223389,343.632751,805.338989,343.29184,806.421875,342.863281C808.217224,342.158386,809.982971,341.38028,811.714844,340.53125C820.034546,336.443512,828.267334,332.174713,836.402344,327.730469C839.66333,325.938965,842.870239,324.051575,846.019531,322.070313C847.391052,321.193329,848.732849,320.270966,850.042969,319.304688C850.671692,318.837555,851.285156,318.350067,851.882813,317.84375C852.464111,317.340729,853.029358,316.81958,853.578125,316.28125C853.953064,315.977509,854.322815,315.667603,854.6875,315.351563C855.057861,315.073395,855.425232,314.790527,855.789063,314.503906L856.890625,313.734375L856.925781,313.714844L858.058594,312.988281L858.097656,312.960938L859.257813,312.289063C859.682129,312.070465,860.103577,311.848114,860.523438,311.621094L861.742188,311.046875C862.169617,310.872742,862.595581,310.694183,863.019531,310.511719C864.204529,310.053436,865.457092,309.794037,866.726563,309.742188L867.636719,309.71875C867.952026,309.719025,868.266724,309.721741,868.582031,309.726563z"/>
    <path transform="matrix(-1,0,0,-1,0,0)" style="stroke:#000000;stroke-width:0.05mm;fill:none" d="M912.890625,416.136719L912.847656,416.175781C912.812439,416.234283,912.783875,416.296326,912.757813,416.359375C912.636902,416.814362,912.561401,417.280182,912.53125,417.75C912.385681,419.424774,912.297119,421.104309,912.265625,422.785156C912.184082,425.871399,912.14502,428.959595,912.148438,432.046875L912.148438,450.277344C908.963013,459.163757,905.73645,468.022156,902.460938,476.875L900.289063,482.703125L900.289063,498.125C900.294312,501.194672,900.273438,504.266998,900.226563,507.335938C900.209229,508.933777,900.125793,510.530121,899.976563,512.121094C899.894653,512.915405,899.743103,513.700989,899.523438,514.46875L899.289063,515.105469L899.007813,515.722656C898.794312,516.116638,898.570313,516.504761,898.335938,516.886719C897.977234,517.444702,897.573059,517.972168,897.128906,518.464844C896.276367,519.396179,895.220093,520.117554,894.042969,520.574219C893.099976,520.940857,892.1203,521.204651,891.121094,521.363281C889.577637,521.60968,888.019531,521.75354,886.457031,521.792969C885.322266,521.83075,884.186157,521.850281,883.050781,521.851563L880.773438,521.878906L878.496094,521.96875L876.222656,522.121094L873.953125,522.332031C871.805359,522.561218,869.670044,522.895081,867.554688,523.332031C866.120544,523.638367,864.701172,524.009827,863.300781,524.445313C862.303406,524.758545,861.326294,525.132935,860.375,525.566406L859.4375,526.027344C859.053589,526.235168,858.679688,526.460938,858.316406,526.703125L857.695313,527.164063L857.125,527.660156L856.601563,528.191406L856.128906,528.757813L855.710938,529.355469L855.339844,529.984375L855.023438,530.636719L854.761719,531.316406L854.554688,532.023438L854.402344,532.75L854.304688,533.5L854.261719,534.265625L854.28125,535.050781L854.355469,535.847656C854.430542,536.309021,854.515625,536.835083,854.589844,537.296875L854.625,537.925781C854.634399,538.793091,854.457153,539.652405,854.105469,540.445313C853.789307,541.170776,853.390198,541.857178,852.917969,542.492188C852.3172,543.313599,851.660706,544.092773,850.953125,544.824219C849.865479,545.957397,848.734619,547.048157,847.5625,548.09375C846.433228,549.091431,845.316895,550.105042,844.214844,551.132813C843.58551,551.718262,842.996643,552.345825,842.453125,553.011719C842.187561,553.352539,841.961365,553.722351,841.777344,554.113281L841.625,554.503906C841.496582,554.90802,841.420288,555.326782,841.394531,555.75C841.375977,556.215881,841.363037,556.68219,841.355469,557.148438C841.295471,558.287537,841.137573,559.419373,840.882813,560.53125C840.214844,563.462219,839.23822,566.314148,837.96875,569.039063C837.14801,570.852783,836.174683,572.593689,835.058594,574.242188C834.079529,575.80249,833.252625,577.453247,832.589844,579.171875C832.376953,579.766724,832.213318,580.378113,832.101563,581C831.637939,582.912842,830.947205,584.763428,830.042969,586.511719C828.933044,588.719299,827.500732,590.74939,825.792969,592.535156L825.082031,593.21875L824.328125,593.859375L823.535156,594.453125C822.87207,594.922852,822.149719,595.302612,821.386719,595.582031C821.034973,595.70697,820.698059,595.870483,820.382813,596.070313C819.991577,596.308716,819.65271,596.624207,819.390625,597L819.316406,597.132813L819.261719,597.261719L819.230469,597.390625L819.21875,597.511719L819.226563,597.660156L819.242188,597.796875L819.273438,597.90625L819.316406,598.015625L819.375,598.105469L819.445313,598.179688L819.53125,598.238281L819.628906,598.285156C819.710693,598.308716,819.794556,598.322021,819.878906,598.332031C819.979248,598.33551,820.079651,598.332336,820.179688,598.324219C820.457947,598.28894,820.732727,598.229614,821,598.144531C822.900513,597.560425,824.668945,596.61145,826.207031,595.351563C827.18158,594.576172,828.07428,593.703186,828.871094,592.746094C830.318604,591.004089,831.514099,589.067261,832.421875,586.992188C833.014893,585.649536,833.505798,584.264099,833.890625,582.847656C834.311523,581.301758,834.801575,579.775391,835.359375,578.273438C835.503418,577.912231,835.666565,577.55896,835.847656,577.214844C837.266724,574.994324,838.610046,572.725891,839.875,570.414063C840.536621,569.174927,841.133728,567.902344,841.664063,566.601563C842.409729,564.716797,842.933716,562.75177,843.226563,560.746094C843.373901,559.75177,843.497742,558.754089,843.597656,557.753906C843.66925,557.008972,843.812134,556.272644,844.023438,555.554688C844.12616,555.244629,844.255371,554.943909,844.410156,554.65625C844.738281,554.078491,845.133179,553.541199,845.589844,553.058594C846.375122,552.223633,847.200378,551.427246,848.0625,550.671875C848.881104,549.933228,849.678711,549.216187,850.5,548.480469C851.815369,547.277832,853.084534,546.025757,854.304688,544.726563C854.70697,544.294495,855.091187,543.84613,855.457031,543.382813C855.673523,543.120056,855.841187,542.82019,855.945313,542.496094C856.13324,541.908203,856.279114,541.307678,856.382813,540.699219C856.647278,539.207153,856.805054,537.69812,856.855469,536.183594C856.87854,535.31604,856.933472,534.449524,857.019531,533.585938C857.082581,532.969543,857.19635,532.359497,857.359375,531.761719L857.535156,531.246094L857.761719,530.75C857.935791,530.431824,858.140076,530.131165,858.371094,529.851563C858.611694,529.559814,858.875793,529.28833,859.160156,529.039063L859.601563,528.683594L860.074219,528.367188C860.884766,527.871094,861.741516,527.454651,862.632813,527.125C863.95459,526.636719,865.307861,526.238464,866.683594,525.933594L868.34375,525.589844C870.009827,525.27356,871.688354,525.027283,873.375,524.851563C875.126038,524.66449,876.881836,524.527771,878.640625,524.441406L887.046875,524.03125C888.055603,524.111267,889.066528,524.163391,890.078125,524.1875C890.298828,524.187561,890.51947,524.177368,890.738281,524.148438C891.143372,524.061157,891.551025,523.986511,891.960938,523.925781C892.436279,523.837402,892.904907,523.716309,893.363281,523.5625L894.089844,523.28125L894.832031,522.9375C896.558838,522.056702,898.118835,520.882019,899.441406,519.464844C899.725159,519.1521,899.992004,518.824585,900.242188,518.484375C900.533569,518.071106,900.785034,517.630981,900.988281,517.167969C901.104797,516.860046,901.200073,516.544495,901.269531,516.222656C901.332153,515.919922,901.42041,515.622986,901.535156,515.335938L901.636719,515.144531L901.757813,515.007813L901.90625,514.917969L902.082031,514.882813L902.996094,513.546875L902.597656,500.242188C902.497925,497.324158,902.45105,494.404053,902.457031,491.484375C902.476624,489.774689,902.578247,488.067078,902.761719,486.367188C903.013367,484.171295,903.456238,482.001465,904.085938,479.882813C904.676819,477.877747,905.336121,475.893585,906.0625,473.933594C906.997742,471.389984,907.947327,468.862,908.917969,466.332031C910.565613,461.925171,912.018738,457.448486,913.273438,452.914063C913.692383,451.302246,913.996582,449.662689,914.183594,448.007813C914.273193,447.269531,914.349976,446.529999,914.414063,445.789063C914.678528,442.589752,914.825806,439.381958,914.855469,436.171875L914.871094,433.242188L914.832031,430.3125L914.734375,427.382813L914.578125,424.457031C914.470886,422.666992,914.283203,420.882568,914.015625,419.109375C913.908508,418.458313,913.763977,417.813934,913.582031,417.179688C913.495544,416.903412,913.375732,416.638733,913.226563,416.390625L913.140625,416.28125L913.039063,416.183594L912.9375,416.132813L912.890625,416.136719z"/>
    <path transform="matrix(-1,0,0,-1,0,0)" style="stroke:#000000;stroke-width:0.05mm;fill:none" d="M742.460938,422.476563C741.768127,422.594788,741.091553,422.794037,740.445313,423.070313L739.816406,423.417969C739.349915,423.698334,738.898987,424.003723,738.464844,424.332031C736.872498,425.616394,735.498901,427.150421,734.398438,428.875C733.516418,430.226288,732.746521,431.647522,732.097656,433.125C730.564148,436.414337,729.014832,439.680634,727.4375,442.949219L727.429688,442.964844L726.8125,444.207031C726.599609,444.625061,726.383179,445.042236,726.164063,445.457031L726.15625,445.472656C725.719055,446.292938,725.269653,447.106934,724.808594,447.914063L724.785156,447.960938L724.285156,448.753906L724.265625,448.777344C723.031982,450.666138,721.600769,452.418152,719.996094,454.003906C718.538086,455.497498,717.051819,456.964172,715.539063,458.402344C713.589844,460.279816,711.668213,462.184509,709.773438,464.117188C708.729919,465.201599,707.72168,466.319489,706.75,467.46875C705.281311,469.267944,704.050964,471.248962,703.089844,473.363281L701.921875,475.867188L701.914063,475.882813L700.703125,478.367188C700.274719,479.198303,699.850159,480.031799,699.429688,480.867188L698.128906,483.308594L698.121094,483.328125C697.611511,484.246887,697.101624,485.158936,696.585938,486.074219C695.164917,488.788788,693.870483,491.56781,692.707031,494.402344C692.00415,496.106293,691.348755,497.829712,690.742188,499.570313L689.976563,501.742188C689.242554,503.911804,688.563843,506.100372,687.941406,508.304688C687.112915,511.236664,686.393677,514.198181,685.785156,517.183594C685.396729,519.177063,685.059326,521.180603,684.773438,523.191406L684.769531,523.226563L684.550781,524.421875C684.383667,525.25061,684.185608,526.072815,683.957031,526.886719C683.618652,528.077026,683.215576,529.247986,682.75,530.394531L682.734375,530.425781C682.417175,531.198547,682.07196,531.959473,681.699219,532.707031L681.191406,533.667969L681.179688,533.6875L680.648438,534.636719L680.640625,534.652344C679.544189,536.570923,678.32019,538.413574,676.976563,540.167969C675.785767,541.767944,674.5672,543.345764,673.320313,544.902344C671.97522,546.61676,670.676331,548.367676,669.425781,550.152344C668.948364,550.847961,668.511108,551.570313,668.117188,552.316406L668.03125,552.5C667.979492,552.628052,667.940674,552.760742,667.90625,552.894531L667.878906,553.023438L667.878906,553.050781C667.90802,553.084106,667.938354,553.116333,667.96875,553.148438C668.236389,552.82251,668.458862,552.461853,668.625,552.074219C668.756958,551.821411,668.896179,551.572571,669.042969,551.328125C669.178284,551.122192,669.316895,550.912292,669.453125,550.707031C670.244141,549.57135,671.049133,548.444458,671.867188,547.328125C673.081787,545.695984,674.328247,544.087524,675.605469,542.503906C677.097168,540.596497,678.51355,538.63147,679.851563,536.613281L680.613281,535.382813C681.102478,534.55011,681.564758,533.702026,682,532.839844C683.212463,530.381775,684.104736,527.778503,684.65625,525.09375C684.90564,523.875244,685.132202,522.652771,685.335938,521.425781L685.945313,518.21875L685.949219,518.203125L686.609375,515L686.613281,514.984375L687.332031,511.796875C687.59729,510.735291,687.855225,509.670776,688.105469,508.605469C688.440674,507.339264,688.818604,506.084534,689.238281,504.84375C689.566162,503.957703,689.901245,503.07251,690.242188,502.191406C690.262207,502.146759,690.282288,502.102142,690.304688,502.058594C690.328613,502.018097,690.35614,501.980103,690.382813,501.941406C690.40332,501.916382,690.423645,501.891235,690.445313,501.867188L690.515625,501.796875C690.568909,501.760315,690.621826,501.723236,690.675781,501.6875C690.746033,501.64917,690.818848,501.615997,690.894531,501.589844C690.942688,501.579407,690.990784,501.568604,691.039063,501.558594C691.118408,501.553711,691.197876,501.550293,691.277344,501.554688C691.317688,501.562653,691.358276,501.568695,691.398438,501.578125C691.327759,501.304565,691.275513,501.026642,691.242188,500.746094C691.154175,499.913727,691.245178,499.072083,691.507813,498.277344L691.925781,497.09375L691.933594,497.066406L692.386719,495.890625L692.394531,495.867188L692.875,494.707031L692.886719,494.683594C694.700012,490.56723,696.727478,486.548859,698.960938,482.644531L699.835938,481.03125C700.397583,479.946869,700.940613,478.852936,701.464844,477.75L702.191406,476.125C702.367493,475.69455,702.535645,475.261047,702.695313,474.824219C703.514771,472.87149,704.542908,471.013062,705.761719,469.28125C706.438904,468.29306,707.175964,467.34729,707.96875,466.449219L707.992188,466.417969L708.78125,465.554688C709.028564,465.29126,709.290527,465.041992,709.566406,464.808594C709.705994,464.701752,709.840515,464.588562,709.972656,464.472656C710.229492,464.256226,710.504883,464.063171,710.792969,463.890625C710.948792,463.809662,711.108887,463.737183,711.273438,463.675781L711.429688,463.628906C711.449402,463.469666,711.470947,463.310791,711.496094,463.152344C711.510376,463.105438,711.525391,463.058777,711.539063,463.011719L711.578125,462.925781L711.601563,462.882813C711.638367,462.828766,711.674561,462.774292,711.714844,462.722656C711.732666,462.702789,711.750916,462.683228,711.769531,462.664063C714.405579,460.067017,717.016174,457.464233,719.621094,454.835938C721.095886,453.320526,722.497131,451.735413,723.820313,450.085938C724.914307,448.729584,725.864502,447.263275,726.65625,445.710938C728.297607,442.147705,729.967041,438.509521,731.597656,434.941406C731.853943,434.380371,732.123596,433.825531,732.40625,433.277344L732.417969,433.25L732.851563,432.4375L732.863281,432.421875L733.3125,431.621094L733.324219,431.597656C734.060425,430.312256,734.874573,429.072998,735.761719,427.886719C736.704224,426.669769,737.768433,425.552094,738.9375,424.550781C740.023743,423.646393,741.259705,422.938995,742.589844,422.460938L742.460938,422.476563z"/>
    <path transform="matrix(-1,0,0,-1,0,0)" style="stroke:#000000;stroke-width:0.05mm;fill:none" d="M608.269531,452.089844L608.242188,452.128906L608.222656,452.160156L608.445313,452.566406L608.425781,452.300781C608.412292,452.15921,608.40448,452.017181,608.402344,451.875L608.269531,452.089844z"/>
    <path transform="matrix(-1,0,0,-1,0,0)" style="stroke:#000000;stroke-width:0.05mm;fill:none" d="M773.582031,420.230469L773.550781,420.242188L772.445313,420.550781C772.058716,420.637878,771.673035,420.730255,771.289063,420.828125C770.903137,420.910706,770.516602,420.988708,770.128906,421.0625C769.738098,421.118561,769.348755,421.183868,768.960938,421.257813L768.921875,421.265625L767.847656,421.40625L767.832031,421.40625C767.112183,421.498657,766.39093,421.576965,765.667969,421.640625L765.648438,421.640625C764.92804,421.703552,764.205872,421.759552,763.484375,421.808594L763.460938,421.8125C762.737244,421.852356,762.013428,421.884888,761.289063,421.910156C760.917786,421.915192,760.546875,421.924316,760.175781,421.9375C757.311768,421.986877,754.442688,422.010376,751.578125,422.007813C750.812134,422.015472,750.043335,422.027252,749.277344,422.042969C749.692444,422.064941,750.10791,422.082031,750.523438,422.09375C752.034119,422.177948,753.54187,422.274261,755.050781,422.382813C756.09082,422.459961,757.132996,422.506775,758.175781,422.523438L759.6875,422.519531L761.261719,422.464844C762.286011,422.407959,763.308411,422.323181,764.328125,422.210938C765.347168,422.089722,766.363037,421.943909,767.375,421.773438C769.394409,421.40271,771.391113,420.917542,773.355469,420.320313L774.507813,419.9375L773.582031,420.230469z"/>
    <path transform="matrix(-1,0,0,-1,0,0)" style="stroke:#000000;stroke-width:0.05mm;fill:none" d="M923.851563,344.476563C923.412476,344.550323,922.982788,344.67215,922.570313,344.839844C921.003845,345.475372,919.508728,346.2742,918.109375,347.222656C916.009644,348.610016,914.048523,350.196533,912.253906,351.960938C911.659668,352.54837,911.085144,353.155579,910.53125,353.78125C906.593872,358.209412,902.853088,362.809082,899.320313,367.566406C897.108337,370.461426,894.804932,373.286041,892.414063,376.035156L891.988281,376.527344C891.517883,377.050201,891.014465,377.542328,890.480469,378L889,379.265625L888.984375,379.277344L887.476563,380.511719L887.460938,380.523438C886.445374,381.349121,885.40979,382.150238,884.355469,382.925781C879.78772,386.383606,875.075256,389.645569,870.230469,392.703125C868.176514,393.965363,866.03125,395.072723,863.8125,396.015625C863.442139,396.168762,863.068298,396.31311,862.691406,396.449219C862.496948,396.514099,862.291992,396.582947,862.097656,396.648438L862.078125,396.652344C860.250916,397.268433,858.338257,397.593964,856.410156,397.617188C855.734497,397.628937,855.058777,397.598328,854.386719,397.527344C852.789246,397.379425,851.203552,397.12381,849.640625,396.761719L849.625,396.761719L848.007813,396.394531L847.988281,396.386719L846.421875,395.996094C843.529541,395.354584,840.59906,394.899231,837.648438,394.632813C835.882935,394.475433,834.112244,394.384155,832.339844,394.359375C829.973328,394.297333,827.605225,394.386108,825.25,394.625C823.834167,394.757721,822.424255,394.946747,821.023438,395.191406C818.876892,395.609039,816.771118,396.213959,814.730469,397L812.707031,397.789063C811.346924,398.341492,809.998657,398.923645,808.664063,399.535156L806.710938,400.464844L804.734375,401.460938L802.804688,402.492188C801.112061,403.433533,799.442322,404.415649,797.796875,405.4375C796.603149,406.20166,795.437073,407.008209,794.300781,407.855469L788.976563,411.867188L788.941406,411.894531L786.601563,413.503906C786.102356,413.916504,785.580994,414.301605,785.039063,414.65625L784.203125,415.183594L784.1875,415.191406C783.621338,415.539185,783.05072,415.880493,782.476563,416.214844L782.460938,416.226563C781.886719,416.560913,781.305725,416.883881,780.71875,417.195313C779.819763,417.675293,778.909119,418.133728,777.988281,418.570313C777.359314,418.8638,776.719543,419.133575,776.070313,419.378906L776.269531,419.304688L777.707031,418.734375C778.701172,418.315308,779.683105,417.868347,780.652344,417.394531C781.65918,416.899475,782.651733,416.37558,783.628906,415.824219C784.605347,415.269348,785.569153,414.6922,786.519531,414.09375C787.455505,413.490204,788.373779,412.859558,789.273438,412.203125L790.644531,411.183594C792.328308,409.816864,794.051514,408.500092,795.8125,407.234375L797.304688,406.195313L797.324219,406.179688L798.835938,405.179688C801.421021,403.515503,804.105835,402.011414,806.875,400.675781L808.523438,399.910156L808.546875,399.898438L809.605469,399.4375L809.621094,399.429688L810.6875,398.988281L810.703125,398.984375C815.789856,396.937958,821.114441,395.541626,826.550781,394.828125L827.757813,394.710938L827.785156,394.710938L828.996094,394.625L829.019531,394.621094L830.230469,394.5625L830.25,394.5625L831.460938,394.527344C831.88446,394.52655,832.271667,394.52533,832.695313,394.523438C835.57251,394.546204,838.443298,394.795776,841.28125,395.269531C842.917725,395.544434,844.540527,395.895172,846.144531,396.320313L847.078125,396.59375C847.394043,396.704376,847.711975,396.809753,848.03125,396.910156C848.605408,397.110229,849.173401,397.327942,849.734375,397.5625L858.457031,397.757813C859.189758,397.63678,859.916992,397.48407,860.636719,397.300781L861.746094,396.992188L862.894531,396.621094L863.980469,396.21875L865.050781,395.769531C865.749084,395.454559,866.434448,395.111664,867.105469,394.742188C869.291748,393.556946,871.427734,392.281067,873.507813,390.917969L876.058594,389.253906L878.601563,387.53125L881.097656,385.777344L883.539063,383.980469C885.858459,382.227081,888.086731,380.356171,890.214844,378.375C892.832642,375.916687,895.277405,373.280151,897.53125,370.484375C899.128174,368.51001,900.680298,366.500732,902.1875,364.457031C904.213623,361.793152,906.308472,359.181213,908.46875,356.625L909.46875,355.480469L909.480469,355.464844C910.158936,354.709229,910.847839,353.963135,911.546875,353.226563C911.90863,352.862793,912.266479,352.495789,912.621094,352.125C914.355225,350.385284,916.256226,348.820465,918.296875,347.453125L918.992188,347.015625L919.015625,347.003906C920.4552,346.122131,921.965637,345.361755,923.53125,344.730469C923.743164,344.65097,923.947327,344.55249,924.144531,344.441406L923.851563,344.476563z"/>
    <path transform="matrix(-1,0,0,-1,0,0)" style="stroke:#000000;stroke-width:0.05mm;fill:none" d="M713.695313,264.492188C713.986206,264.516235,714.275696,264.554932,714.5625,264.609375L721.226563,265.054688L722.804688,265.171875L722.824219,265.171875L724.402344,265.320313L724.421875,265.324219L726,265.503906L726.015625,265.503906L727.585938,265.710938C727.945862,265.772156,728.306396,265.828125,728.667969,265.878906C729.757629,266.057617,730.841431,266.269989,731.917969,266.515625C732.537109,266.6698,733.006836,266.786987,733.625,266.941406L735.285156,267.414063C735.843689,267.600372,736.403687,267.782684,736.964844,267.960938L737,267.96875L738.621094,268.558594L738.644531,268.570313C741.982666,269.856476,745.206299,271.421936,748.28125,273.25C748.981323,273.670654,749.673889,274.102905,750.359375,274.546875L750.378906,274.558594C751.064209,275.004974,751.741211,275.463135,752.410156,275.933594L752.429688,275.949219C753.096313,276.421631,753.755249,276.904663,754.40625,277.398438L754.425781,277.410156C755.388794,278.161469,756.34259,278.926331,757.285156,279.703125C757.896973,280.2211,758.507751,280.744415,759.113281,281.269531L759.128906,281.28125C760.345886,282.357605,761.536194,283.463348,762.699219,284.597656L764.652344,286.542969L766.550781,288.507813L766.566406,288.523438L768.429688,290.535156L768.441406,290.550781C772.681213,295.251465,776.701294,300.14624,780.488281,305.21875L781.335938,306.375L781.355469,306.398438L782.167969,307.578125C782.716797,308.395996,783.24176,309.229767,783.742188,310.078125L784.183594,310.855469L784.195313,310.878906C785.237915,312.77121,786.061035,314.776337,786.648438,316.855469C787.13501,318.588745,787.52356,320.348083,787.8125,322.125L788.800781,327.796875C788.81134,327.860321,788.819824,327.924103,788.816406,327.988281C788.81427,328.046051,788.80896,328.103699,788.796875,328.160156L788.34375,330.488281C788.353943,330.514679,788.367371,330.539124,788.375,330.566406C788.665466,331.351044,788.923645,332.147217,789.148438,332.953125C789.797607,335.275818,790.439209,337.606323,791.070313,339.933594C791.198364,340.363525,791.318298,340.795898,791.429688,341.230469L791.441406,341.300781C791.461792,341.394806,791.476563,341.490051,791.484375,341.585938C791.492981,341.746185,791.489807,341.90686,791.472656,342.066406C791.447876,342.174591,791.419617,342.281982,791.382813,342.386719C791.35968,342.447266,791.335205,342.507294,791.308594,342.566406C791.267883,342.642242,791.221985,342.715149,791.171875,342.785156C791.114258,342.854858,791.05426,342.922546,790.992188,342.988281C790.951721,343.027161,790.911621,343.06662,790.871094,343.105469L790.832031,343.132813C790.68512,343.244629,790.527405,343.341522,790.359375,343.417969L789.988281,343.574219C789.95282,343.587189,789.918213,343.600098,789.882813,343.613281C789.228271,343.804871,788.561279,343.950623,787.886719,344.050781L787.855469,344.058594C786.768372,344.206879,785.678955,344.347595,784.589844,344.480469L784.574219,344.480469L781.90625,344.777344L781.058594,345.019531L781.039063,345.027344C780.459717,345.181702,779.877991,345.333008,779.296875,345.480469C776.75415,346.118256,774.165588,346.557098,771.554688,346.792969L771.53125,346.792969L770.390625,346.882813L770.371094,346.886719C768.819641,346.979248,767.610352,347.050537,766.058594,347.140625C764.755066,347.228088,763.455688,347.370209,762.164063,347.566406C758.87616,348.126526,755.606506,348.788239,752.359375,349.550781C751.313171,349.81073,750.277344,350.110443,749.253906,350.449219C748.960327,350.561584,748.673645,350.691315,748.394531,350.835938C747.899353,351.143097,747.436584,351.499634,747.011719,351.898438L746.5,352.394531C746.200195,352.713684,745.914612,353.045929,745.644531,353.390625C745.340149,353.792786,745.078308,354.225555,744.867188,354.683594C744.727539,354.945404,744.577393,355.201477,744.414063,355.449219L744.398438,355.476563L744.195313,355.75C744.096863,355.863464,743.993103,355.972107,743.886719,356.078125C743.851135,356.115784,743.811401,356.149231,743.769531,356.179688C743.669678,356.250946,743.572083,356.325317,743.476563,356.402344C743.315308,356.503143,743.146851,356.591797,742.972656,356.667969C742.827881,356.725433,742.68219,356.78064,742.535156,356.832031C741.880981,357.002594,741.210571,357.103729,740.535156,357.132813L740.515625,357.136719L738.980469,357.207031C737.763672,357.231323,736.52533,357.253784,735.308594,357.273438C734.604919,357.294922,733.902039,357.326141,733.199219,357.367188L731.914063,357.488281L730.546875,357.675781L729.257813,357.910156L727.929688,358.207031C725.883484,358.718536,723.855164,359.298248,721.847656,359.945313C719.357117,360.730835,716.870483,361.540161,714.394531,362.371094C712.795288,362.918335,711.203857,363.483093,709.617188,364.066406L706.382813,365.277344C704.083374,366.170654,701.796875,367.090698,699.519531,368.039063C697.420166,368.928467,695.339844,369.86377,693.28125,370.84375C691.113403,371.934143,688.936035,373.001343,686.746094,374.046875L686.722656,374.058594L685.863281,374.441406C685.566467,374.558929,685.272156,374.682678,684.980469,374.8125L684.964844,374.820313L684.089844,375.167969L684.050781,375.179688L683.1875,375.484375L683.136719,375.503906C682.5224,375.698395,681.899353,375.863983,681.269531,376L680.367188,376.164063C679.261475,376.323883,678.144165,376.389557,677.027344,376.359375L676.046875,376.320313L676.027344,376.320313L675.046875,376.261719L675.027344,376.257813L674.046875,376.179688L674.023438,376.179688L673.046875,376.078125L673.03125,376.074219C670.534973,375.791779,668.044189,375.482025,665.554688,375.144531C659.498169,374.361816,653.548706,373.608398,647.484375,372.855469L647.46875,372.855469L643.636719,372.316406L639.828125,371.722656L639.8125,371.71875L636.011719,371.070313L635.996094,371.070313L632.207031,370.367188L632.191406,370.363281C630.141174,369.959442,628.101318,369.50351,626.074219,368.996094L625.542969,368.855469L625.507813,368.847656C624.825256,368.65863,624.160034,368.411621,623.519531,368.109375C623.150757,367.917877,622.81073,367.675293,622.511719,367.386719C622.427673,367.290039,622.340637,367.196014,622.25,367.105469C622.050293,366.860748,621.884216,366.59021,621.757813,366.300781C621.539795,365.839539,621.363464,365.359711,621.230469,364.867188C621.190063,364.734802,621.156372,364.600494,621.128906,364.464844C621.042175,364.064575,621.003113,363.655579,621.011719,363.246094C621.016602,363.135712,621.031311,363.02597,621.054688,362.917969C620.9021,362.886749,620.750671,362.849701,620.601563,362.804688C620.557007,362.787109,620.512268,362.770142,620.46875,362.75C620.384338,362.703308,620.305908,362.646759,620.234375,362.582031C620.177612,362.524567,620.12793,362.460876,620.082031,362.394531C620.064453,362.366272,620.047424,362.337677,620.03125,362.308594C620.003113,362.25061,619.981018,362.190094,619.960938,362.128906L619.953125,362.085938C619.528137,360.286835,619.112488,358.483398,618.707031,356.679688L618.527344,355.777344L618.523438,355.75C618.408325,355.122253,618.308044,354.491821,618.222656,353.859375C618.133911,353.171753,618.139221,352.47525,618.238281,351.789063C618.290894,351.451141,618.389587,351.121979,618.535156,350.8125C618.370789,350.584717,618.207764,350.355225,618.046875,350.125C617.980957,350.01355,617.935242,349.891754,617.90625,349.765625C617.899841,349.71759,617.894287,349.669434,617.890625,349.621094C617.89563,349.570374,617.89917,349.519531,617.898438,349.46875L618.40625,345.144531L618.40625,345.128906C618.522278,344.156158,618.66687,343.18689,618.839844,342.222656L619.046875,341.164063L619.050781,341.136719L619.285156,340.082031L619.292969,340.058594L619.554688,339.011719L619.558594,338.988281L619.84375,337.949219L619.851563,337.917969L620.140625,336.984375L620.148438,336.96875L620.453125,336.039063L620.457031,336.023438L620.777344,335.097656C621.346436,333.529053,621.986389,331.987091,622.695313,330.476563L623.511719,328.785156L623.523438,328.765625C624.627502,326.543396,625.814453,324.363647,627.082031,322.230469C630.062134,317.170532,633.158936,312.181519,636.371094,307.265625L637.734375,305.222656L637.746094,305.207031L639.148438,303.183594L639.160156,303.167969L640.601563,301.175781L640.609375,301.160156L642.089844,299.191406L642.105469,299.175781L642.992188,298.046875L643,298.03125C645.118408,295.39209,647.368713,292.861481,649.742188,290.449219C651.595825,288.533905,653.525818,286.693848,655.527344,284.933594L655.542969,284.921875L656.242188,284.320313L656.261719,284.300781L657.671875,283.152344L657.695313,283.136719L659.125,282.042969L659.148438,282.023438L660,281.410156L660.015625,281.402344C660.593445,280.998749,661.175293,280.601746,661.761719,280.210938L661.777344,280.199219L662.660156,279.628906L662.675781,279.617188L663.566406,279.066406L663.582031,279.058594C664.184143,278.691986,664.792542,278.335022,665.40625,277.988281L665.421875,277.980469L666.339844,277.472656L666.359375,277.460938C668.068909,276.544861,669.799744,275.669708,671.550781,274.835938L671.570313,274.828125L673.332031,274.007813C674.925171,273.290344,676.522522,272.589203,678.128906,271.902344L687.296875,267.972656C687.339233,267.955475,687.382202,267.939667,687.425781,267.925781L692.277344,266.589844L692.308594,266.570313C692.389038,266.525543,692.470947,266.48349,692.554688,266.445313C692.686523,266.381012,692.825684,266.333099,692.96875,266.300781C693.774536,266.072876,694.592163,265.888885,695.417969,265.75L696.78125,265.5L696.796875,265.496094L698.164063,265.269531L698.1875,265.269531L699.558594,265.074219L699.574219,265.070313C700.043579,265.005463,700.513428,264.946808,700.984375,264.894531L701.972656,264.804688L701.996094,264.804688L702.988281,264.738281L703.019531,264.734375L704.011719,264.699219C705.25769,264.666626,706.504578,264.705719,707.746094,264.816406C708.233765,264.856171,708.723999,264.852722,709.210938,264.804688C709.800659,264.755493,710.389282,264.694122,710.976563,264.621094C711.571899,264.547333,712.170105,264.499207,712.769531,264.476563C713.078247,264.470367,713.387024,264.475372,713.695313,264.492188z"/>
    <path transform="matrix(-1,0,0,-1,0,0)" style="stroke:#000000;stroke-width:0.05mm;fill:none" d="M726.65625,232.121094L726.695313,232.121094C727.419006,232.144333,728.140503,232.21376,728.855469,232.328125C729.253967,232.396729,729.638062,232.531418,729.992188,232.726563C730.759949,233.151306,731.49408,233.634308,732.1875,234.171875C732.942261,234.762512,733.688538,235.364227,734.425781,235.976563L734.441406,235.988281C735.178772,236.610779,735.907532,237.241913,736.628906,237.882813C739.548279,240.502579,742.408997,243.188675,745.207031,245.9375L749.433594,250.125L753.617188,254.355469L757.757813,258.625C760.268555,261.248627,762.766846,263.898224,765.238281,266.558594C767.484985,268.983887,769.708435,271.424622,771.914063,273.886719C773.678223,275.860107,775.427002,277.84729,777.160156,279.847656C779.58728,282.654602,781.953674,285.513214,784.257813,288.421875C784.963257,289.321533,785.683533,290.209778,786.417969,291.085938C787.358154,292.197327,788.342041,293.271149,789.367188,294.304688C789.825928,294.756073,790.309937,295.181061,790.816406,295.578125C790.993286,295.711517,791.181519,295.829163,791.378906,295.929688C791.653259,296.015076,791.92926,296.094543,792.207031,296.167969C792.387756,296.22995,792.564026,296.304199,792.734375,296.390625C792.833923,296.448395,792.928101,296.515106,793.015625,296.589844C793.039734,296.611328,793.062866,296.633728,793.085938,296.65625C793.17395,296.753143,793.250732,296.859467,793.316406,296.972656C793.355225,297.061066,793.387512,297.152161,793.410156,297.246094C793.446289,297.419952,793.446533,297.598907,793.414063,297.773438C793.313599,298.114838,793.118042,298.42099,792.847656,298.652344C793.872437,298.084015,794.936279,297.589264,796.03125,297.171875C796.421997,297.040131,796.82135,296.935608,797.226563,296.859375C797.438477,296.826813,797.650635,296.796722,797.863281,296.769531C798.476257,296.729614,799.091858,296.755707,799.699219,296.847656C800.032532,296.890625,800.363708,296.948761,800.691406,297.023438C802.641663,297.425049,804.551758,298.001526,806.398438,298.746094L807.460938,299.199219L807.492188,299.210938C808.210571,299.528046,808.91687,299.871979,809.609375,300.242188L809.640625,300.261719L810.402344,300.6875L810.421875,300.695313L811.171875,301.136719C812.713379,302.077332,814.181213,303.133759,815.5625,304.296875C815.977173,304.657043,816.399597,305.02533,816.8125,305.386719L817.984375,306.496094C818.375488,306.886536,818.761963,307.280884,819.144531,307.679688L819.167969,307.707031L820.253906,308.902344L820.273438,308.921875L821.234375,310.042969C822.20343,311.204834,823.127258,312.403687,824.003906,313.636719L825.113281,315.246094L825.125,315.261719L826.199219,316.894531L826.210938,316.914063L827.246094,318.570313C828.006226,319.826935,828.750305,321.094666,829.476563,322.371094L830.050781,323.421875L830.054688,323.4375L830.613281,324.496094C830.968018,325.163086,831.257019,325.863068,831.476563,326.585938C831.506592,326.720978,831.534851,326.856659,831.5625,326.992188C831.577209,327.095886,831.587463,327.200134,831.59375,327.304688L831.597656,327.441406L831.597656,327.488281C831.594788,327.523773,831.59259,327.550446,831.589844,327.585938C831.581116,327.817444,831.526062,328.045074,831.425781,328.253906C831.407654,328.299469,831.385132,328.342926,831.363281,328.386719C831.282776,328.514252,831.190491,328.63382,831.089844,328.746094C831.06604,328.768036,831.044006,328.791534,831.019531,328.8125L830.984375,328.835938C830.800476,328.986359,830.601807,329.117645,830.390625,329.226563C828.034485,330.509735,825.661682,331.757996,823.269531,332.972656C819.394287,334.984833,815.491821,336.958221,811.574219,338.886719C810.633972,339.33847,809.687622,339.775726,808.734375,340.199219L808.71875,340.207031L807.289063,340.828125L807.269531,340.835938C805.793091,341.469757,804.268921,341.986023,802.710938,342.378906L801.933594,342.546875L801.90625,342.554688L801.125,342.699219C800.574585,342.786255,800.022339,342.861877,799.46875,342.925781L794.25,343.476563C794.169189,343.480347,794.088257,343.481659,794.007813,343.472656C793.926086,343.468475,793.845581,343.448395,793.773438,343.410156C793.73291,343.384827,793.68866,343.366669,793.644531,343.347656C793.603149,343.321777,793.563843,343.29303,793.523438,343.265625C793.477295,343.221924,793.431702,343.177734,793.386719,343.132813C793.349487,343.079041,793.311584,343.025787,793.273438,342.972656L793.25,342.929688C793.238342,342.903564,793.226318,342.877747,793.214844,342.851563L791.851563,339.4375L791.835938,339.394531L791.609375,338.738281C791.545105,338.504333,791.472412,338.272736,791.394531,338.042969C791.253967,337.573242,791.128845,337.09906,791.019531,336.621094L790.691406,335.195313L790.691406,335.179688C790.372925,333.729858,790.090271,332.2724,789.84375,330.808594L789.484375,328.515625L789.480469,328.496094C789.220337,326.556061,788.982056,324.788483,788.71875,322.847656C788.517029,321.433167,788.294312,320.021179,788.050781,318.613281C787.847229,317.486694,787.578491,316.372864,787.246094,315.277344C787.027527,314.57724,786.766602,313.891144,786.464844,313.222656C786.124512,312.458588,785.765076,311.703033,785.386719,310.957031L783.527344,307.230469C783.471619,307.113708,783.437622,306.988159,783.425781,306.859375C783.424011,306.826447,783.426025,306.794067,783.421875,306.761719C783.375488,306.771576,783.32843,306.777069,783.28125,306.78125C783.201111,306.783264,783.120911,306.780487,783.042969,306.761719C782.898132,306.738129,782.761292,306.678741,782.644531,306.589844C782.607483,306.559326,782.57074,306.528351,782.535156,306.496094C782.510742,306.474548,782.491516,306.448914,782.46875,306.425781C780.661926,304.078735,778.857483,301.747437,777.039063,299.410156L775.007813,296.875L772.910156,294.351563C771.498657,292.691925,770.062378,291.053864,768.601563,289.4375C766.828674,287.514282,765.002686,285.641357,763.125,283.820313L761.484375,282.273438L759.816406,280.769531C758.690369,279.78125,757.542908,278.817444,756.375,277.878906C754.651245,276.50177,752.86969,275.198456,751.035156,273.972656C749.285339,272.807037,747.481201,271.725189,745.628906,270.730469C743.866455,269.788086,742.056763,268.936676,740.207031,268.179688C739.15448,267.753021,738.091492,267.351807,737.019531,266.976563C735.954712,266.616821,734.881287,266.282074,733.800781,265.972656L733.785156,265.96875C733.092468,265.766266,732.408203,265.535675,731.734375,265.277344C731.171814,265.058716,730.635681,264.7771,730.136719,264.4375C729.991821,264.330292,729.848511,264.221039,729.707031,264.109375C729.163696,263.630981,728.681152,263.087708,728.269531,262.492188L727.898438,261.9375L727.886719,261.921875L727.527344,261.359375C727.281982,260.968048,727.046265,260.570801,726.820313,260.167969C726.056458,258.801575,725.232788,257.469604,724.351563,256.175781C723.491394,254.923721,722.55603,253.724854,721.550781,252.585938L720.609375,251.570313L719.683594,250.660156L718.65625,249.730469L717.621094,248.875C716.527283,248.017227,715.373352,247.239105,714.167969,246.546875L713.292969,246.03125L713.253906,246.003906C712.351257,245.440308,711.488708,244.814911,710.671875,244.132813C710.125305,243.671143,709.626709,243.155472,709.183594,242.59375C709.014771,242.377441,708.854248,242.154785,708.703125,241.925781C708.411194,241.481934,708.186279,240.997559,708.035156,240.488281L708.019531,240.429688C707.973206,240.255325,707.932617,240.079498,707.898438,239.902344C707.731445,238.789764,708.03418,237.657913,708.734375,236.777344C708.968689,236.48027,709.227539,236.2034,709.507813,235.949219C709.639587,235.830063,709.776794,235.717178,709.917969,235.609375L709.945313,235.59375C710.09436,235.485382,710.245239,235.379745,710.398438,235.277344C711.271057,234.718491,712.207458,234.26622,713.1875,233.929688C714.573242,233.446823,715.995911,233.077103,717.441406,232.824219C718.786926,232.584518,720.142456,232.404617,721.503906,232.285156L721.535156,232.285156L722.878906,232.191406L722.898438,232.1875C724.149719,232.116699,725.403259,232.094482,726.65625,232.121094z"/>
</svg>
