<?xml version="1.0" encoding="UTF-8"?>
<svg xmlns="http://www.w3.org/2000/svg" width="468.559mm" height="371.607mm" viewBox="-1044.902222 -603.724426 468.558838 371.606720">
    <path transform="matrix(-1,0,0,-1,0,0)" style="stroke:#000000;stroke-width:0.05mm;fill:none" d="M726.656006,232.119995C727.494141,232.141617,728.328918,232.232452,729.151978,232.391998C729.44574,232.465775,729.727661,232.580185,729.992004,232.727997C730.759399,233.149628,731.49231,233.63118,732.184021,234.167999C732.939941,234.758942,733.686829,235.361755,734.424011,235.975998L734.440002,235.992004C735.92981,237.241074,737.386414,238.529709,738.807983,239.856003C740.971558,241.850235,743.105713,243.87767,745.208008,245.936005C756.30249,256.812988,766.962036,268.126465,777.159973,279.847992C779.956055,283.090546,782.679626,286.395599,785.328003,289.76001C786.686279,291.478729,788.15332,293.108765,789.719971,294.640015C790.149109,295.047455,790.606384,295.424164,791.088013,295.768005C791.301331,295.909698,791.540344,296.008453,791.791992,296.056C792.177856,296.13327,792.546204,296.279633,792.880005,296.488007C793.39447,296.813965,793.582275,297.474304,793.320007,298.023987C793.2005,298.260529,793.041077,298.474396,792.848022,298.656006C793.873291,298.086273,794.937256,297.589172,796.031982,297.167999C797.222839,296.751221,798.500366,296.643494,799.744019,296.855988C804.686218,297.708252,809.366577,299.684326,813.424011,302.631989C815.933838,304.46637,818.230713,306.575439,820.271973,308.920013C822.02887,310.925171,823.651245,313.044434,825.127991,315.264008L826.200012,316.895996L826.208008,316.911987C827.723999,319.290161,829.146545,321.726746,830.471985,324.216003C830.797363,324.812012,831.075867,325.432434,831.304016,326.071991C832.978699,326.221039,834.593689,326.767426,836.015991,327.664001L836.23999,327.81601C840.007813,325.770294,843.693359,323.576569,847.288025,321.23999C848.548218,320.401062,849.778198,319.517853,850.976013,318.59201C851.880981,317.86554,852.748657,317.093842,853.575989,316.279999C854.293091,315.66156,855.032227,315.069183,855.791992,314.503998L856.888,313.735992C857.282227,313.49585,857.67157,313.247498,858.05603,312.992004L858.096008,312.959991C859.66571,312.009766,861.311401,311.19104,863.015991,310.511993C864.202698,310.053589,865.456848,309.794617,866.728027,309.743988C868.39856,309.697815,870.070496,309.743408,871.736023,309.880005L873.296021,309.976013L873.312012,309.976013L874.856018,310.104004L874.880005,310.104004C876.853394,310.264221,878.792053,310.716919,880.632019,311.447998L882.119995,312.063995L882.143982,312.071991L883.616028,312.727997L883.640015,312.735992L885.104004,313.415985C885.595276,313.660858,886.090149,313.904297,886.583984,314.144012C891.086914,316.419312,895.633179,318.69519,900.151978,320.936005C902.639221,322.184204,905.189209,323.302948,907.791992,324.287994C909.745972,324.990997,911.759399,325.515808,913.807983,325.855988C916.58252,326.311066,919.334717,326.893005,922.05603,327.600006C923.107849,327.864227,924.121826,328.261261,925.072021,328.783997C926.634033,329.599915,928.126953,330.541687,929.536011,331.600006L930.807983,332.567993L930.83197,332.584015L932.064026,333.584015L932.088013,333.608002L933.288025,334.656006L933.312012,334.664001C935.686768,336.769714,937.866211,339.085876,939.823975,341.584015C940.780151,342.79071,941.603821,344.096863,942.280029,345.480011C942.590637,346.135529,942.839722,346.81839,943.023987,347.519989C943.26178,348.49704,943.301453,349.512177,943.135986,350.503998L942.911987,351.735992L942.911987,351.768005C942.496948,353.556702,942.226807,355.375885,942.104004,357.208008L942,359.231995C941.967224,359.72403,941.899475,360.213043,941.799988,360.696014L941.856018,360.720001C942.65033,361.153656,943.336304,361.760834,943.864014,362.496002C943.980164,362.456635,944.10144,362.435303,944.223999,362.432007L958.255981,362.936005C962.6651,363.074829,967.071716,363.298889,971.471985,363.608002L973.031982,363.743988L973.05603,363.743988L974.616028,363.903992L974.640015,363.911987C976.607849,364.1185,978.562927,364.433624,980.495972,364.855988C983.160278,365.484772,985.744751,366.413391,988.200012,367.623993L989.815979,368.415985L989.83197,368.432007C994.259094,370.662781,998.478394,373.283752,1002.440002,376.264008L1004.080017,377.544006C1004.620239,378.000732,1005.159424,378.452393,1005.703979,378.903992L1005.719971,378.920013L1007.288025,380.29599L1007.312012,380.320007C1009.389221,382.214996,1011.362793,384.220581,1013.223999,386.328003C1017.24707,390.875916,1021.346924,395.357178,1025.52002,399.768005C1028.281128,402.740601,1030.713867,406.002136,1032.776001,409.496002C1033.366943,410.55484,1033.864868,411.663025,1034.264038,412.808014C1034.424561,413.332764,1034.517578,413.875885,1034.543945,414.424011C1034.658691,415.140869,1034.821655,415.849182,1035.031982,416.544006C1035.547119,418.280151,1036.096436,420.005585,1036.680054,421.720001L1036.952026,422.608002L1036.959961,422.623993L1037.208008,423.511993L1037.215942,423.536011C1037.760742,425.537689,1038.167114,427.574463,1038.432007,429.631989C1038.502808,430.320221,1038.526367,431.012512,1038.504028,431.70401C1038.503662,432.393066,1038.595825,433.078918,1038.776001,433.743988L1038.839966,433.911987C1038.97937,434.252045,1039.215332,434.542999,1039.511963,434.76001C1040.035034,435.106201,1040.537476,435.482452,1041.015991,435.888C1042.338867,437.051361,1043.333862,438.541138,1043.904053,440.208008C1044.498657,441.843597,1044.825684,443.564301,1044.871948,445.303986C1044.970337,447.477356,1044.836182,449.65509,1044.472046,451.799988C1043.969116,454.891388,1043.2229,457.938171,1042.23999,460.911987C1041.753662,462.547272,1041.292114,464.190521,1040.855957,465.839996C1040.58606,466.89621,1040.417603,467.97583,1040.352051,469.063995C1040.371216,470.362274,1040.543701,471.653687,1040.864014,472.911987C1041.362061,474.863007,1041.810181,476.826141,1042.208008,478.799988C1042.469727,480.107513,1042.619751,481.435028,1042.656006,482.768005C1042.677856,483.74823,1042.530396,484.72467,1042.223999,485.656006C1042.020142,486.229736,1041.725464,486.76709,1041.352051,487.247986C1040.981689,487.725433,1040.548462,488.151001,1040.063965,488.511993C1038.55127,489.640778,1037.536011,491.313263,1037.232056,493.175995C1036.987305,494.766418,1036.885742,496.375427,1036.927979,497.984009C1036.926025,499.017822,1036.875244,500.050934,1036.776001,501.079987C1036.582275,502.454956,1036.108643,503.775513,1035.384033,504.959991L1034.76001,505.984009L1034.744019,506.023987C1033.44812,508.033142,1031.914429,509.878632,1030.176025,511.519989C1028.432007,513.218506,1026.542114,514.760681,1024.527954,516.127991C1023.854065,516.561768,1023.135864,516.922607,1022.383972,517.200012C1022.093079,517.308167,1021.779724,517.344177,1021.471985,517.304016C1021.333496,517.275818,1021.199402,517.22937,1021.072021,517.16803C1021.048279,517.149109,1021.023987,517.130676,1021,517.112C1020.907166,517.034607,1020.818726,516.952148,1020.736023,516.864014C1020.691895,516.802551,1020.655334,516.736572,1020.616028,516.671997L1020.552002,516.512024C1020.311584,516.852661,1020.039185,517.169739,1019.736023,517.455994C1019.456909,517.689453,1019.1604,517.901367,1018.848022,518.088013C1018.316589,518.65863,1017.92865,519.346924,1017.711975,520.096008C1017.526855,520.645081,1017.392883,521.210205,1017.312012,521.783997C1016.856934,523.704407,1016.134644,525.551331,1015.16803,527.271973C1014.280884,528.841248,1013.309021,530.360901,1012.255981,531.823975L1010.583984,534.096008L1010.575989,534.112L1008.856018,536.335999L1008.848022,536.35199L1007.088013,538.552002L1007.072021,538.567993L1005.263977,540.719971L1005.231995,540.752014L1003.848022,542.263977L1003.83197,542.288025C1001.95874,544.241211,999.996826,546.107239,997.952026,547.880005C996.96521,548.752502,995.969971,549.616882,994.968018,550.471985L994.94397,550.487976L993.799988,551.40802L993.776001,551.424011L992.616028,552.312012C992.208557,552.593384,991.806152,552.881531,991.40802,553.176025C990.994507,553.452087,990.584229,553.731995,990.176025,554.015991L990.159973,554.031982C988.407471,555.184692,986.594116,556.242065,984.728027,557.200012C983.843079,557.641602,982.919006,558.000305,981.968018,558.271973C981.606262,558.364868,981.236755,558.424622,980.864014,558.447998L980.544006,558.52002C979.197876,558.940857,977.880432,559.448608,976.599976,560.039978C972.10437,561.953857,967.564209,563.762451,962.984009,565.463989C959.289368,566.900269,955.673462,568.53186,952.151978,570.35199C951.078857,570.927063,950.030029,571.546387,949.007996,572.208008L947.823975,572.94397C944.986633,574.66626,942.054077,576.226196,939.039978,577.616028C938.387756,577.902039,937.731567,578.179321,937.072021,578.447998C934.339233,579.560974,931.542175,580.509521,928.695984,581.288025C926.18512,581.968018,923.656372,582.578857,921.112,583.119995L917.94397,583.768005C909.588623,585.430054,901.326111,587.531738,893.192017,590.064026C890.382813,590.944275,887.619507,591.964172,884.911987,593.119995C882.507263,594.233032,879.988403,595.080811,877.400024,595.64801L875.544006,596.031982L875.528015,596.031982C874.285828,596.293823,873.037292,596.52594,871.783997,596.728027L871.768005,596.736023C864.099365,597.991211,856.408325,599.125,848.703979,600.135986C842.138733,600.962341,835.540283,601.501587,828.927979,601.752014C822.10144,601.967529,815.26825,601.697449,808.47998,600.94397C806.359619,600.726685,804.233337,600.569336,802.104004,600.471985C799.982422,600.439026,797.863586,600.634583,795.783997,601.05603C793.928711,601.419556,792.083313,601.791809,790.231995,602.176025C787.17865,602.78772,784.094055,603.230896,780.992004,603.504028L779.504028,603.607971L779.47998,603.616028C776.441345,603.792603,773.394226,603.760498,770.359985,603.52002L768.039978,603.328003L768.023987,603.328003L765.703979,603.080017L765.687988,603.072021L763.375977,602.791992L763.359985,602.791992L761.047974,602.463989C760.838928,602.41571,760.632629,602.356079,760.432007,602.280029C760.209534,602.159912,760.032288,601.969849,759.935974,601.736023C759.86499,601.556274,759.798157,601.375,759.736023,601.192017L759.656006,601.280029C759.577393,601.387573,759.462402,601.460999,759.335999,601.504028C759.112427,601.610352,758.871399,601.675659,758.624023,601.687988C757.680908,601.705994,756.738159,601.636658,755.807983,601.47998L755.791992,601.47998L754.864014,601.335999L754.848022,601.335999C744.872559,599.587585,735.034424,597.130737,725.40802,593.984009C721.099731,592.59021,716.830872,591.074829,712.607971,589.440002C710.517029,588.625366,708.454468,587.739563,706.424011,586.783997C705.209229,586.232239,704.033203,585.598633,702.903992,584.888C702.503174,584.631775,702.111023,584.362244,701.728027,584.080017C701.325195,583.746033,700.971802,583.356873,700.671997,582.927979C700.583557,582.770264,700.510681,582.604309,700.455994,582.432007C700.140991,582.378296,699.826172,582.322388,699.512024,582.263977C696.032166,581.151245,692.57074,579.983276,689.127991,578.76001L687.83197,578.271973L687.815979,578.271973C686.721313,577.874207,685.647949,577.420166,684.599976,576.911987C684.235229,576.762268,683.904846,576.54071,683.624023,576.263977L683.567993,576.200012C683.137634,575.802124,682.68335,575.430908,682.208008,575.088013C679.364441,572.965576,676.475403,570.903442,673.544006,568.903992C671.332336,567.349609,669.153076,565.749207,667.007996,564.104004C665.173645,562.670654,663.42395,561.132141,661.768005,559.495972C660.138489,557.847351,658.722107,556.000977,657.552002,554C657.041626,553.076477,656.582153,552.125793,656.176025,551.151978C655.382813,549.445374,654.281067,547.899963,652.927979,546.59198L652.192017,545.888C650.366882,544.306396,648.485779,542.790955,646.552002,541.343994C644.522034,539.842957,642.505859,538.322815,640.504028,536.783997C639.566895,536.066895,638.646606,535.328003,637.744019,534.567993L637.719971,534.552002L635.94397,533.007996L635.927979,532.992004L634.192017,531.40802L634.16803,531.392029C632.023132,529.362366,629.998413,527.20929,628.104004,524.94397C624.782715,520.99585,621.643555,516.898376,618.695984,512.664001C617.5896,511.050842,616.623474,509.345978,615.807983,507.567993C615.075317,505.872986,614.484131,504.120331,614.039978,502.328003L613.776001,501.264008L613.768005,501.23999L613.52002,500.175995L613.512024,500.152008C613.113892,498.316406,612.817139,496.460358,612.624023,494.59201C612.589783,494.019318,612.571106,493.44574,612.567993,492.872009C612.552673,492.012756,612.276611,491.178558,611.776001,490.480011C611.317444,489.798279,610.777039,489.175476,610.16803,488.623993C609.390808,487.87265,608.663696,487.070984,607.992004,486.223999C607.357239,485.428467,606.738342,484.6203,606.135986,483.799988L606.127991,483.783997C605.51709,482.9711,604.924988,482.144073,604.35199,481.303986L604.343994,481.287994C603.774475,480.449585,603.213928,479.603455,602.664001,478.752014L602.64801,478.735992C601.18396,476.389038,599.743042,474.024872,598.328003,471.64801C595.496887,466.944702,592.739258,462.19751,590.05603,457.40799C589.677979,456.7146,589.325867,456.007385,589,455.287994C588.912354,455.050476,588.85376,454.803406,588.823975,454.552002C588.560486,453.533936,588.261719,452.525269,587.927979,451.528015C587.354248,449.672729,586.766479,447.815796,586.16803,445.967987L585.848022,444.928009L585.848022,444.911987L585.552002,443.864014L585.544006,443.847992L585.280029,442.799988L585.271973,442.776001C584.825989,440.970978,584.470886,439.144623,584.208008,437.303986C584.129211,436.458374,584.094421,435.609222,584.104004,434.76001C584.098999,433.970428,583.955322,433.188019,583.679993,432.447998C583.502075,432.027832,583.249573,431.643494,582.935974,431.312012C582.577332,430.985199,582.240051,430.635559,581.927979,430.264008C581.669067,429.948364,581.426208,429.619843,581.200012,429.279999C580.212219,427.655945,579.412476,425.924866,578.815979,424.119995C577.611572,420.671722,576.824646,417.091522,576.471985,413.455994C576.355347,412.150116,576.317932,410.838409,576.359985,409.528015L576.599976,403.640015C576.622803,403.104492,577.063965,402.682739,577.599976,402.679993C577.763489,402.689636,577.923035,402.731995,578.072021,402.799988C578.167297,402.424042,578.296265,402.057434,578.455994,401.70401C578.073486,400.927032,577.80127,400.100342,577.64801,399.247986C577.517578,398.240479,577.621582,397.216675,577.952026,396.256012C578.109619,395.564636,578.331909,394.889679,578.616028,394.23999C578.922241,393.436249,579.280457,392.653381,579.687988,391.895996C580.877441,389.571136,582.230164,387.333557,583.736023,385.200012L584.776001,383.712006L584.783997,383.687988L585.968018,382.096008L585.992004,382.071991L587.216003,380.519989C589.015076,378.23526,591.07428,376.167938,593.35199,374.359985C596.676941,371.750824,600.451111,369.771545,604.487976,368.519989C607.587219,367.615753,610.843201,367.380981,614.039978,367.832001C616.175964,368.136841,618.295776,368.545288,620.392029,369.056C619.015015,367.143616,618.966858,364.578125,620.271973,362.615997L620.231995,362.584015C620.095276,362.446594,619.993103,362.277435,619.952026,362.088013L618.703979,356.679993L618.528015,355.776001L618.52002,355.752014C618.358154,354.956848,618.243469,354.152679,618.176025,353.343994C618.134705,352.739014,618.172302,352.131256,618.288025,351.536011C618.337036,351.285736,618.420471,351.043365,618.536011,350.81601C618.369751,350.589172,618.207031,350.359955,618.047974,350.127991C617.921265,349.934448,617.868042,349.70163,617.895996,349.471985L618.40802,345.144012L618.40802,345.127991C618.817322,341.531372,619.674744,337.999939,620.960022,334.615997C621.937012,332.042877,623.075256,329.533844,624.367981,327.104004C625.225037,325.454193,626.129333,323.82962,627.080017,322.231995C630.063904,317.173096,633.159912,312.183655,636.367981,307.264008L637.736023,305.223999L637.744019,305.208008L639.151978,303.18399L639.159973,303.167999L640.599976,301.175995L640.607971,301.160004L642.088013,299.191986L642.104004,299.175995L642.992004,298.048004L643,298.032013C647.001099,293.06778,651.440186,288.473328,656.263977,284.303986L657.671997,283.152008L657.695984,283.135986L659.127991,282.040009L659.151978,282.023987L660,281.40799L660.015991,281.399994C660.595703,280.998444,661.175354,280.602264,661.76001,280.208008L661.776001,280.200012L662.664001,279.631989L662.671997,279.615997L663.567993,279.063995L663.583984,279.056C665.608154,277.835266,667.687805,276.70874,669.815979,275.679993C672.549255,274.340637,675.321167,273.081451,678.127991,271.903992L687.296021,267.976013L687.424011,267.928009L692.280029,266.59201L692.35199,266.544006C692.689087,266.375336,693.046936,266.252533,693.416016,266.175995C694.987976,265.814484,696.57312,265.513,698.16803,265.272003L698.184021,265.272003L699.559998,265.071991L699.575989,265.071991C702.402222,264.658875,705.267517,264.581055,708.112,264.839996C708.775391,264.847351,709.438416,264.807556,710.096008,264.720001C710.982117,264.595581,711.873901,264.51532,712.768005,264.480011C713.368225,264.456757,713.969238,264.499268,714.559998,264.608002C717.323669,264.786011,720.046082,264.970825,722.807983,265.167999L722.823975,265.167999L724.400024,265.320007L724.424011,265.328003L726,265.503998L726.015991,265.503998C729.157593,265.862915,732.260742,266.502747,735.288025,267.415985C735.846802,267.600403,736.407227,267.78186,736.968018,267.959991L737,267.967987L738.624023,268.559998C744.858093,270.964508,750.675781,274.333557,755.864014,278.544006C758.243652,280.444214,760.523987,282.465607,762.695984,284.600006C764.00824,285.874634,765.293701,287.176056,766.552002,288.503998L766.567993,288.519989L768.432007,290.536011L768.440002,290.552002C773.008911,295.613464,777.318176,300.902618,781.35199,306.399994C782.549988,308.050964,783.627563,309.786133,784.575989,311.59201C785.641785,313.676544,786.453064,315.881683,786.992004,318.160004C787.320679,319.470856,787.595581,320.794647,787.815979,322.127991C788.162109,324.049011,788.495239,325.97052,788.815979,327.895996C788.814148,327.984192,788.80896,328.072235,788.799988,328.160004L788.343994,330.488007C788.644348,331.298828,788.91394,332.120728,789.151978,332.951996C789.802734,335.274811,790.443848,337.607025,791.072021,339.936005C791.196899,340.366577,791.316895,340.798706,791.432007,341.231995C791.649109,341.978241,791.364319,342.781525,790.719971,343.216003C790.312073,343.476288,789.857971,343.654785,789.383972,343.752014C788.881531,343.88504,788.371094,343.986206,787.856018,344.056C786.770691,344.202332,785.678589,344.344177,784.59198,344.480011L784.575989,344.480011L781.903992,344.776001C778.148376,345.903595,774.27948,346.611847,770.367981,346.888C768.604492,346.975281,766.84082,347.084656,765.080017,347.216003C764.10614,347.30426,763.134888,347.4216,762.16803,347.567993C758.611389,348.163635,755.078186,348.89209,751.575989,349.752014C750.795654,349.960022,750.021912,350.191895,749.255981,350.447998C748.962463,350.563141,748.674194,350.691284,748.392029,350.832001C747.118713,351.652588,746.03894,352.739075,745.223999,354.015991C745.031433,354.367981,744.839539,354.719482,744.64801,355.071991C744.261658,355.848663,743.591309,356.447754,742.776001,356.743988L742.536011,356.832001C741.872559,356.997528,741.194824,357.099121,740.512024,357.135986C739.390686,357.203918,738.267395,357.238617,737.143982,357.23999C735.680908,357.232056,734.21814,357.288177,732.76001,357.40799C731.130005,357.540649,729.513855,357.808624,727.927979,358.208008C725.882019,358.716797,723.854248,359.295776,721.848022,359.944C719.35675,360.734497,716.871826,361.542358,714.392029,362.368011C708.29187,364.457825,702.284119,366.806396,696.383972,369.40799C694.234314,370.363953,692.113586,371.382965,690.023987,372.463989L686.744019,374.048004L686.719971,374.056C685.408508,374.678406,684.056091,375.210388,682.671997,375.64801C680.840454,376.18988,678.932678,376.43045,677.023987,376.359985L676.047974,376.320007C675.713928,376.317108,675.380249,376.298126,675.047974,376.264008L675.023987,376.256012C673.732361,376.159424,672.44397,376.026062,671.159973,375.855988C666.286011,375.255981,661.38855,374.629761,656.52002,373.984009L647.487976,372.855988L647.471985,372.855988C644.919006,372.521454,642.371826,372.142731,639.83197,371.720001L639.815979,371.720001C637.273193,371.309235,634.736572,370.858459,632.208008,370.368011C632.077637,370.326416,631.943726,370.29718,631.807983,370.279999C631.313599,370.707153,630.761597,371.062836,630.16803,371.335999C636.033691,372.567657,641.941528,373.589661,647.880005,374.399994C658.917969,375.742432,669.92395,377.151123,680.94397,378.631989L692.992004,372.743988C698.559937,370.004303,704.266235,367.555695,710.088013,365.40799C710.662537,365.211273,711.241333,365.0271,711.823975,364.855988L718.072021,363.071991C718.451111,362.835236,718.837952,362.610992,719.231995,362.399994L719.343994,362.359985L722.815979,361.312012C724.222107,360.873993,725.633423,360.449799,727.047974,360.040009L727.064026,360.032013L727.848022,359.832001C728.113159,359.74942,728.382935,359.682465,728.656006,359.631989L728.671997,359.631989C731.038208,359.085693,733.459595,358.814514,735.888,358.824005C737.350037,358.807312,738.812378,358.842102,740.271973,358.928009C741.713928,358.993713,743.15802,358.994049,744.599976,358.928009C744.791931,358.894348,744.981628,358.848907,745.16803,358.791992L745.192017,358.768005C745.269104,358.457031,745.328064,358.141876,745.367981,357.824005C745.668152,356.242523,746.453735,354.79364,747.616028,353.679993C749.135437,352.179871,751.049683,351.142181,753.135986,350.687988C754.950867,350.302002,756.775513,349.963318,758.607971,349.671997C767.690308,348.17804,776.809021,346.900208,785.952026,345.839996L787.23999,345.712006L787.255981,345.712006L788.544006,345.600006C788.979431,345.582581,789.414185,345.552917,789.848022,345.511993L789.872009,345.503998L791.143982,345.440002C794.424805,345.022644,797.715393,344.624695,801,344.247986C802.857849,344.01004,804.679321,343.545319,806.424011,342.864014C808.218933,342.160553,809.983154,341.381226,811.711975,340.528015C815.137939,338.848877,818.550537,337.135986,821.94397,335.391998C821.647461,334.968903,821.413818,334.50531,821.247986,334.015991C818.037231,335.669342,814.815674,337.292023,811.575989,338.888C810.634521,339.336029,809.687439,339.773529,808.736023,340.200012L808.719971,340.208008L807.288025,340.832001L807.271973,340.832001C804.795166,341.927277,802.164246,342.634552,799.471985,342.928009L794.247986,343.480011C794.127563,343.480286,794.007324,343.472046,793.888,343.455994C793.760498,343.401703,793.637024,343.338379,793.52002,343.264008C793.473572,343.222534,793.428406,343.179657,793.383972,343.135986C793.347595,343.06134,793.300171,342.992767,793.247986,342.928009C792.783386,341.76236,792.31842,340.603912,791.848022,339.440002C791.359558,338.04834,790.971863,336.623322,790.687988,335.175995C790.016846,332.033386,789.488342,328.862396,789.104004,325.671997C788.776001,322.979034,788.359802,320.297791,787.856018,317.631989C787.621399,316.524933,787.313843,315.434692,786.935974,314.368011C786.481567,313.204407,785.963318,312.066711,785.383972,310.959991L783.528015,307.231995C783.468323,307.081207,783.434937,306.921753,783.424011,306.76001L783.328003,306.776001C783.001343,306.813477,782.677856,306.680359,782.471985,306.424011C780.669067,304.082886,778.854858,301.739624,777.039978,299.40799C773.829041,295.319092,770.436462,291.376648,766.872009,287.59201C764.620361,285.21582,762.266113,282.938965,759.815979,280.768005C756.078674,277.434418,752.030945,274.466248,747.728027,271.903992C743.353088,269.337097,738.666687,267.342163,733.783997,265.967987C732.901489,265.716156,732.035706,265.409088,731.192017,265.048004C730.161743,264.570343,729.267578,263.84082,728.59198,262.928009C727.942627,262.047821,727.352112,261.125854,726.823975,260.167999C725.68689,258.114716,724.397888,256.149261,722.968018,254.287994C721.197754,251.99939,719.119507,249.966766,716.791992,248.248001C715.670471,247.442444,714.503235,246.702393,713.296021,246.031998C712.12146,245.312485,711.022461,244.476349,710.015991,243.535995C709.318115,242.850998,708.736572,242.057053,708.296021,241.184006C708.059143,240.682999,707.91333,240.143982,707.864014,239.591995C707.787781,238.575653,708.103516,237.568787,708.744019,236.776001C709.326721,236.031311,710.059814,235.417465,710.895996,234.975998C711.624634,234.556595,712.390503,234.205719,713.184021,233.927994C715.005127,233.3022,716.883606,232.8573,718.791992,232.600006C721.395508,232.223022,724.02594,232.062439,726.656006,232.119995z"/>
    <path transform="matrix(-1,0,0,-1,0,0)" style="stroke:#000000;stroke-width:0.05mm;fill:none" d="M912.888,416.135986C912.856384,416.177979,912.831116,416.22287,912.799988,416.264008C912.644104,416.745911,912.55249,417.246124,912.528015,417.752014C912.329224,420.197662,912.225098,422.650269,912.216003,425.104004C912.184082,426.64325,912.162659,428.188324,912.151978,429.727997L912.151978,450.279999C908.267456,461.112122,904.31189,471.92218,900.288025,482.70401L900.288025,500.424011C900.304871,503.526245,900.259521,506.627625,900.151978,509.727997C900.116272,510.725952,900.033447,511.721802,899.903992,512.711975C899.788391,513.529846,899.58252,514.332275,899.288025,515.104004C898.646484,516.612915,897.695435,517.970154,896.495972,519.088013C895.62616,519.845581,894.611023,520.417725,893.512024,520.768005C892.734924,521.03949,891.93396,521.237366,891.119995,521.359985C889.577087,521.610718,888.018738,521.755493,886.455994,521.791992C884.556885,521.828735,882.67572,521.857788,880.776001,521.880005C877.417114,521.96106,874.066589,522.252258,870.744019,522.752014C868.822815,523.044128,866.918823,523.439514,865.039978,523.935974C863.653198,524.290283,862.294556,524.747192,860.976013,525.304016C860.044312,525.676697,859.154419,526.146606,858.320007,526.703979C857.487061,527.271423,856.747925,527.965393,856.127991,528.76001C855.079468,530.134888,854.445251,531.780762,854.304016,533.504028C854.214355,534.530823,854.271118,535.565063,854.471985,536.575989C854.672852,537.443237,854.682251,538.343811,854.504028,539.216003C854.321228,540.02533,854.005615,540.799133,853.567993,541.504028C852.822021,542.704407,851.944885,543.818176,850.952026,544.823975C849.861694,545.95575,848.730225,547.047058,847.559998,548.096008C846.267029,549.229858,844.997375,550.390076,843.752014,551.575989C843.189514,552.129822,842.670471,552.726074,842.200012,553.359985C841.711609,554.065552,841.432495,554.894897,841.392029,555.752014C841.38501,556.502197,841.35321,557.251953,841.296021,558C841.108826,559.595459,840.784729,561.171814,840.328003,562.711975C839.300659,566.319641,837.802734,569.776001,835.872009,572.992004C835.463501,573.594604,835.071472,574.208191,834.695984,574.83197C833.790527,576.352539,833.034668,577.957153,832.440002,579.624023C832.290894,580.072815,832.178894,580.533081,832.104004,581C831.18158,584.707642,829.452454,588.165283,827.039978,591.127991L827.104004,591.184021C827.687439,591.754395,828.157471,592.430054,828.487976,593.176025C830.639526,590.707214,832.279114,587.835632,833.312012,584.728027C833.648193,583.725403,833.949585,582.711365,834.216003,581.687988C834.561279,580.537598,834.942932,579.398315,835.359985,578.271973C835.505188,577.91217,835.667419,577.559448,835.848022,577.216003C837.497803,574.650879,839.032593,572.013611,840.447998,569.312012C841.106384,568.002502,841.675659,566.650146,842.151978,565.263977C842.643738,563.792419,843.002502,562.279724,843.223999,560.744019C843.38562,559.564819,843.532288,558.382935,843.664001,557.200012C843.753845,556.561401,843.901306,555.932251,844.104004,555.320007C844.454468,554.479065,844.95929,553.711548,845.59198,553.05603C846.376343,552.221191,847.201233,551.425476,848.064026,550.671997C849.220581,549.656921,850.359131,548.622375,851.47998,547.567993C852.672546,546.453796,853.812378,545.284485,854.895996,544.064026C855.148682,543.780701,855.386475,543.484375,855.607971,543.176025C855.766541,542.975891,855.879944,542.743286,855.94397,542.495972C856.130554,541.906433,856.277405,541.305115,856.383972,540.695984C856.688782,538.951904,856.85498,537.18634,856.880005,535.416016C856.920105,534.489075,857.01062,533.565002,857.151978,532.64801C857.267944,531.991333,857.471619,531.35321,857.76001,530.752014C858.314148,529.772766,859.11084,528.952881,860.072021,528.367981C860.880371,527.867554,861.738281,527.452026,862.632019,527.127991C863.953491,526.641479,865.305725,526.242981,866.679993,525.935974C869.96936,525.23053,873.306458,524.770691,876.664001,524.559998C877.322021,524.514465,877.981384,524.474426,878.640015,524.440002L887.047974,524.031982C888.165466,524.127563,889.286438,524.175537,890.40802,524.176025L890.736023,524.151978C891.139832,524.05603,891.548523,523.982056,891.960022,523.927979C893.23877,523.679382,894.463379,523.205505,895.575989,522.528015C897.386536,521.508606,898.972717,520.134583,900.23999,518.487976C900.695801,517.884644,901.027222,517.196228,901.216003,516.463989C901.28894,516.079224,901.395264,515.701477,901.536011,515.335999C901.588867,515.213135,901.669006,515.105591,901.76001,515.007996L901.903992,514.919983L902.080017,514.880005L903,513.544006L902.599976,500.23999C902.499451,497.323883,902.451477,494.405762,902.455994,491.488007C902.473083,489.260223,902.644287,487.036194,902.968018,484.832001C903.319214,482.643829,903.846252,480.487457,904.544006,478.384003C905.006409,476.886597,905.513428,475.403259,906.064026,473.936005C906.998901,471.394836,907.950073,468.863708,908.919983,466.335999C910.643494,461.735596,912.146484,457.055603,913.424011,452.312012C913.844116,450.553894,914.138,448.767944,914.304016,446.967987C914.638306,443.377136,914.82251,439.774261,914.856018,436.167999C914.930664,431.812531,914.805054,427.455963,914.47998,423.112C914.362183,421.589661,914.175354,420.073395,913.919983,418.567993C913.813049,417.920441,913.632874,417.287262,913.383972,416.679993L913.223999,416.391998L913.143982,416.279999C913.084961,416.218353,913.013672,416.170837,912.935974,416.135986L912.888,416.135986z"/>
    <path transform="matrix(-1,0,0,-1,0,0)" style="stroke:#000000;stroke-width:0.05mm;fill:none" d="M936.984009,373.544006C933.412842,381.14212,929.231018,388.43811,924.47998,395.359985L923.559998,396.640015L923.544006,396.656006L922.599976,397.903992L922.583984,397.928009L921.607971,399.160004C921.258179,399.546997,920.914246,399.938904,920.575989,400.335999L920.559998,400.35199C919.519287,401.491272,918.438538,402.593048,917.320007,403.656006L915.23999,405.559998L915.223999,405.575989L913.112,407.447998L913.096008,407.463989L910.952026,409.303986L910.935974,409.312012C901.811401,416.890808,892.148926,423.796875,882.023987,429.976013L880.216003,431.040009L880.192017,431.048004L878.359985,432.079987C877.728149,432.398285,877.103882,432.731812,876.487976,433.079987L876.463989,433.088013C869.750183,436.591858,862.555115,439.082703,855.112,440.480011C852.899841,440.879822,850.662415,441.123169,848.416016,441.208008C847.391479,441.232178,846.366333,441.207825,845.343994,441.135986C841.996094,440.74942,838.644348,440.402802,835.288025,440.096008C834.013367,439.993469,832.734436,439.955719,831.455994,439.984009C830.35022,440.03894,829.256104,440.235748,828.200012,440.567993C827.418945,440.771301,826.620972,440.902008,825.815979,440.959991L825.495972,440.928009C825.417419,440.908112,825.340393,440.882965,825.263977,440.855988L824.184021,440.984009C823.261292,442.391388,822.176575,443.685577,820.952026,444.839996C819.38501,446.327332,817.884888,447.883484,816.455994,449.503998C813.410828,452.926544,810.476013,456.445587,807.656006,460.056C806.144531,461.923309,804.553833,463.724945,802.888,465.455994C801.609009,466.750977,800.216858,467.929047,798.728027,468.976013C796.914612,470.210266,794.934998,471.180359,792.848022,471.855988C791.570984,472.296539,790.266907,472.654663,788.94397,472.928009C786.834351,473.389435,784.703979,473.749756,782.559998,474.007996C780.870667,474.226563,779.179993,474.43457,777.487976,474.631989L777.471985,474.631989C775.239502,474.863739,773.003662,475.079865,770.768005,475.279999C768.355042,475.492981,765.950867,475.794342,763.559998,476.18399C762.008423,476.448486,760.474854,476.809235,758.968018,477.264008C757.698242,477.658295,756.472656,478.183289,755.312012,478.832001C753.592163,479.811127,752.048523,481.071716,750.744019,482.559998C749.703369,483.735382,748.741272,484.978088,747.864014,486.279999C746.760376,487.968262,745.698792,489.683167,744.679993,491.424011C742.451111,495.072021,739.956299,498.55072,737.216003,501.832001L736.271973,502.895996L736.255981,502.920013C735.18457,504.016754,734.169861,505.167572,733.216003,506.368011C732.752502,506.966339,732.332764,507.59729,731.960022,508.256012C731.841492,508.487366,731.742126,508.728088,731.664001,508.976013C731.741882,508.956818,731.819397,508.935852,731.895996,508.911987C732.663147,508.500061,733.370667,507.985748,734,507.384003C735.973083,505.531464,737.804871,503.533783,739.47998,501.40799C742.209961,497.996735,744.685974,494.389679,746.888,490.615997C748.145386,488.552521,749.504395,486.552704,750.960022,484.623993C751.817383,483.553009,752.761658,482.55481,753.783997,481.640015C754.357422,481.154938,754.985352,480.738068,755.656006,480.399994C756.820068,479.851257,758.111572,479.631134,759.392029,479.76001C759.646362,479.775909,759.899902,479.802582,760.151978,479.839996L760.23999,479.768005C760.20282,479.65094,760.177979,479.530518,760.16803,479.40799C760.150635,479.186462,760.202209,478.964386,760.320007,478.776001L760.375977,478.656006C760.60199,478.386047,760.895264,478.181885,761.223999,478.056C761.969177,477.81311,762.735107,477.639313,763.512024,477.536011C765.420105,477.28064,767.332458,477.056519,769.247986,476.864014C772.784912,476.538818,776.312622,476.203369,779.848022,475.855988C782.793152,475.560944,785.724121,475.136597,788.632019,474.584015C790.353027,474.237854,792.049927,473.780975,793.711975,473.216003C796.391785,472.269623,798.885498,470.861847,801.080017,469.056C802.545532,467.858459,803.927429,466.562195,805.216003,465.175995C806.243225,464.078125,807.313293,463.021301,808.424011,462.007996C808.858887,461.598083,809.330505,461.229095,809.83197,460.903992C809.967285,460.820801,810.105957,460.743134,810.247986,460.671997L811.968018,458.135986C812.008484,458.001068,812.054749,457.867981,812.104004,457.735992C812.419189,457.111786,812.79425,456.519623,813.223999,455.967987L814.23999,454.664001L814.255981,454.64801C816.228516,452.262726,818.341553,449.997467,820.583984,447.864014C821.602234,446.879761,822.650818,445.927368,823.728027,445.007996C824.146973,444.650208,824.58783,444.31897,825.047974,444.015991C826.29425,443.053253,827.6922,442.304413,829.184021,441.799988C830.624084,441.331573,832.134583,441.117706,833.64801,441.167999C834.292725,441.182526,834.936279,441.230377,835.575989,441.312012L836.223999,441.368011C836.657959,441.437195,837.092529,441.501099,837.528015,441.559998L837.567993,441.559998C842.62262,442.586761,847.81134,442.778656,852.927979,442.127991C857.725342,441.54892,862.444458,440.443573,867,438.832001C869.613281,437.891602,872.186096,436.842712,874.711975,435.687988C875.364685,435.414795,876.035583,435.187469,876.719971,435.007996C877.238525,434.902405,877.773926,434.914429,878.288025,435.040009L878.400024,434.847992L878.383972,434.687988C878.374573,434.588104,878.390503,434.4888,878.416016,434.391998L878.455994,434.256012C878.497437,434.17276,878.540344,434.090118,878.583984,434.007996L878.703979,433.880005C878.756409,433.836182,878.809021,433.792633,878.864014,433.752014C880.639771,432.631073,882.423279,431.524689,884.216003,430.432007C888.001953,428.102783,891.700378,425.634521,895.304016,423.032013C902.131897,418.170654,908.771851,413.049255,915.208008,407.679993C916.430908,406.638123,917.638733,405.579712,918.83197,404.503998C920.449646,402.921326,921.959717,401.232178,923.35199,399.447998C925.593323,396.624084,927.668823,393.672546,929.567993,390.608002C931.709717,387.189026,933.687805,383.670532,935.495972,380.063995C936.845337,377.396484,938.141479,374.702911,939.383972,371.984009C938.834351,372.025665,938.281616,371.985748,937.744019,371.864014L936.984009,373.544006z"/>
    <path transform="matrix(-1,0,0,-1,0,0)" style="stroke:#000000;stroke-width:0.05mm;fill:none" d="M584.687988,413.743988C587.143616,417.646088,589.878845,421.365234,592.872009,424.872009C594.694092,426.978302,596.667236,428.948792,598.776001,430.768005C600.024109,431.803864,601.336121,432.760376,602.703979,433.631989C603.798279,434.285187,604.959717,434.818817,606.16803,435.223999C606.802917,435.404907,607.44635,435.554565,608.096008,435.671997C608.749573,435.814362,609.40033,435.968964,610.047974,436.135986L609.200012,435.440002C607.478821,435.403961,605.790344,434.963318,604.271973,434.152008L604.216003,434.127991C603.247314,433.615265,602.324158,433.020935,601.455994,432.35199L600.343994,431.488007L600.328003,431.471985L599.23999,430.567993L599.223999,430.552002L598.16803,429.631989L598.151978,429.615997C595.864014,427.558105,593.740173,425.324585,591.799988,422.936005C589.157471,419.75412,586.733276,416.397217,584.544006,412.888C584.395447,412.873077,584.248352,412.8461,584.104004,412.808014L584.687988,413.743988z"/>
</svg>
