<?xml version="1.0" encoding="UTF-8"?>
<svg xmlns="http://www.w3.org/2000/svg" width="259.176mm" height="214.266mm" viewBox="-1075.548584 -633.798645 259.175964 214.265778">
    <path transform="matrix(-1,0,0,-1,0,0)" style="stroke:none;fill:#000000;fill-rule:evenodd" d="M999.717529,633.110718C994.727966,631.821533,994.223999,631.457397,983.364624,621.293823C977.773193,616.060608,972.801941,611.938049,969.027771,609.404541C963.864258,605.938477,962.137207,605.344482,957.771118,605.532959C954.075745,605.692444,952.247742,606.335815,950.325867,608.153503C947.74176,610.597412,946.63446,613.697021,946.832153,617.933105C946.93219,620.076965,947.0802,620.752563,947.775696,622.238708C949.405762,625.722046,952.839233,628.013611,959.325745,629.947449C963.639648,631.233582,964.917603,631.812378,964.514771,632.297791C963.502563,633.517395,956.811523,633.545166,952.776489,632.346558C947.054871,630.646851,943.209045,627.573364,940.180359,622.279907C939.547791,621.174316,938.668091,619.231384,938.225525,617.96228C937.166321,614.924805,937.073547,611.314087,937.986206,608.644165C939.580688,603.979614,942.99408,600.407715,949.978271,596.095032L951.664429,595.053833L950.473999,594.692017C945.157532,593.076172,941.802612,593.134766,931.558594,595.022278C923.1698,596.567932,918.245667,597.71167,901.399902,602.027344C899.217346,602.586426,896.189819,603.18811,894.671997,603.364319C890.958923,603.79541,884.132568,603.577026,882.352295,602.970154C874.879211,600.422668,858.84491,589.268738,850.209412,580.610596C842.787476,573.169189,838.461182,567.080383,835.27124,559.586426C834.59375,557.994934,833.205139,554.207825,832.185425,551.170715C830.052795,544.818848,829.03894,542.419861,828.03656,541.354126C827.64563,540.938477,825.704163,539.422119,823.722107,537.984497C818.707031,534.346863,817.663452,533.092529,816.764099,529.621887C816.251343,527.643188,816.243225,525.711548,816.733093,522.268555C817.269714,518.497314,818.053589,515.04895,819.297668,510.986816C820.29541,507.729218,820.378235,507.226807,820.360168,504.54364L820.340515,501.633606L820.849304,502.294983C821.85376,503.600708,822.940491,505.920044,823.456726,507.859833C824.689453,512.492188,824.444031,515.337891,822.471375,519.284729L821.185974,521.856445L822.444885,520.802429C824.501465,519.080566,826.593689,516.670776,826.93811,515.627197C827.247375,514.690125,827.171997,512.51239,826.778931,511.025146C826.427551,509.695831,827.38501,511.353973,827.967896,513.084229C828.625488,515.036255,828.656616,516.268433,828.096863,518.186096C827.490601,520.263123,826.549683,521.756348,824.524353,523.855835C823.541809,524.874329,822.656555,526.033142,822.557129,526.430969C822.28595,527.516357,823.390564,529.172241,825.893433,531.43219C828.162903,533.481384,830.095581,535.776489,831.209229,537.744751C832.292053,539.658569,832.976501,541.781189,834.061523,546.590088C836.638123,558.010437,838.59198,563.194275,842.089661,567.890198C843.275513,569.4823,843.577087,569.359802,842.958313,567.537231C842.280029,565.539429,841.980164,560.270996,841.473328,541.448425C841.044128,525.510071,840.444031,514.125366,839.730225,508.379639C838.786682,500.785278,837.738525,497.965149,833.968018,492.876495C833.008667,491.581787,832.023865,489.927246,831.779541,489.199738C831.23407,487.575592,831.207275,484.273224,831.68396,477.413788C831.906006,474.217773,831.97522,469.881226,831.882446,464.979919C831.717224,456.257233,831.348877,453.298157,829.315369,444.358459C826.621399,432.514893,825.730835,427.179382,826.380859,426.777618C826.55719,426.66864,827.155945,426.902252,827.742981,427.309052C828.319092,427.708313,828.855774,427.969604,828.935669,427.88974C829.015503,427.809875,829.232971,427.090088,829.418945,426.290253C829.604858,425.490417,830.065552,424.309509,830.442688,423.665985C832.250427,420.581299,837.185059,419.109894,842.284546,420.134979C844.954468,420.671661,845.712036,421.095612,845.712036,422.052979C845.712036,423.992798,842.245911,432.248352,840.319702,434.896332C839.140564,436.517273,838.972412,438.182648,839.178101,446.202454C839.343811,452.663208,839.608704,454.401825,841.617676,462.215607C843.766235,470.572113,845.418335,474.68576,850.276794,483.776459C851.093323,485.30423,852.24585,488.016602,852.837952,489.803894C854.068604,493.518616,854.988403,495.457825,856.943359,498.458984C860.709778,504.24115,866.97467,510.751892,867.889648,509.834808C868.119385,509.604523,867.996033,505.52887,867.65741,502.16272C866.992615,495.553894,865.642151,490.686371,862.763977,484.525513C861.796936,482.455627,860.948547,480.398621,860.87854,479.954437C860.717896,478.934937,861.313721,477.254669,866.746704,463.406097C871.653931,450.897583,873.985046,444.273102,874.808105,440.497498C875.170654,438.834137,875.462463,436.204681,875.606873,433.298584C875.788452,429.644623,875.93512,428.526123,876.333069,427.759216C876.97998,426.512634,877.335205,426.422241,877.82959,427.378326C878.375916,428.434692,878.900879,428.575958,880.413452,428.073578C881.311157,427.775421,881.957153,427.323669,882.554749,426.576294C883.971802,424.803925,884.619934,424.271393,886.436279,423.387115C888.090027,422.58197,888.347351,422.537262,891.860168,422.444824C896.059692,422.33432,900.97937,422.767242,902.098083,423.345764C902.588013,423.599121,902.854309,423.944672,902.853149,424.325592C902.848083,426.053864,897.996765,430.943115,892.140625,435.121918C886.708313,438.998322,885.73822,440.305725,883.814697,446.34259C881.794006,452.68454,880.555969,458.649445,880.124146,464.124176C879.651855,470.110748,880.340698,473.37204,883.548706,480.337311C885.961975,485.577148,888.339355,491.13736,890.255981,496.024323C892.220642,501.033936,893.304871,503.275085,894.119751,504.011078L894.701721,504.536713L897.653992,502.980927C901.937256,500.723694,903.811157,499.413177,905.897217,497.215759C908.401306,494.578125,911.729004,490.597229,912.214417,489.658508C912.432373,489.237122,912.922119,487.235321,913.302856,485.210083C914.245728,480.194214,914.187561,480.358704,914.766052,481.07312C915.2995,481.731903,915.817871,484.35614,915.817871,486.397827C915.817871,487.866058,916.075378,488.241943,918.139954,489.786987C918.571533,490.109985,919.112915,490.771057,919.343018,491.255981C920.341125,493.359344,920.926392,493.482056,931.558594,493.816803C940.651611,494.103088,940.972168,494.124146,950.322266,495.049438C953.949097,495.408325,957.059814,495.647034,957.234863,495.579865C957.591309,495.443085,957.794312,494.893311,959.987976,488.125854C962.754395,479.591339,964.220459,474.424866,965.432007,468.941376C967.007324,461.811249,967.008362,461.807617,968.316162,458.908752C971.091675,452.756531,971.627197,444.649902,969.740479,437.3479C969.072266,434.761536,968.795044,430.671387,969.232666,429.853729C969.596497,429.17392,970.86908,429.068237,971.373413,429.675934C971.851013,430.251373,973.148926,430.180603,973.48053,429.561035C973.631165,429.279602,973.755554,428.059357,973.756958,426.849396C973.759033,425.104553,973.887085,424.375702,974.375854,423.326019C975.882568,420.090515,980.348083,418.870087,987.02356,419.869324C990.758179,420.428375,990.888428,420.466705,991.077515,421.062622C991.41333,422.120697,988.711975,427.91394,986.567749,430.734131C985.013916,432.77771,984.749756,433.296021,984.237671,435.305267C984.004883,436.218872,983.151001,438.399689,982.340332,440.15152C980.442139,444.253265,979.839172,446.595886,979.651306,450.59903C979.481018,454.226959,979.761719,456.651093,980.915588,461.516571C981.827087,465.359924,981.865173,466.460297,981.181274,469.182129C980.039551,473.725647,978.489502,485.137573,978.426453,489.464294L978.384033,492.374329L980.23584,492.291077C981.959717,492.213562,982.232788,492.282135,984.186768,493.283142C985.341248,493.874573,986.604919,494.358459,986.994995,494.358459C988.547913,494.358459,989.759399,492.470032,990.983337,488.141541C991.553833,486.124084,991.58252,485.573669,991.59668,476.369049C991.613525,465.436462,991.386353,466.830444,994.177612,460.531921C996.058411,456.287933,997.276123,452.689606,998.129639,448.853699C998.633911,446.587036,998.747864,445.301849,998.750732,441.845245C998.75415,437.788361,998.712158,437.449677,997.739502,433.695953C997.181335,431.541901,996.79071,429.607391,996.87146,429.397034C997.064575,428.893829,997.82959,428.913452,999.186462,429.45636L1000.290649,429.898163L1001.043701,429.055359C1001.674622,428.349213,1001.796753,427.980621,1001.796753,426.782013C1001.796753,425.014435,1002.504456,424.053284,1004.409424,423.233795C1007.352112,421.967865,1013.550293,421.956543,1015.31604,423.213867C1015.780273,423.544403,1016.752869,423.908539,1017.477417,424.023102C1018.202026,424.137634,1018.849487,424.286011,1018.91626,424.352814C1019.330933,424.767456,1013.976318,433.760956,1012.096924,435.806396C1011.457581,436.502258,1010.928101,437.441895,1010.664612,438.348236C1010.434692,439.139069,1009.815308,440.487488,1009.288208,441.344788C1007.345642,444.503845,1006.807007,445.600983,1006.055115,447.929901C1004.428223,452.969055,1004.395569,455.401794,1005.822571,465.257935C1006.533325,470.167145,1006.652527,471.778717,1006.693298,477.030426L1006.74054,483.115082L1007.812256,487.372681C1008.826843,491.403168,1009.212524,493.692444,1010.123535,501.092529C1010.550354,504.559418,1010.731567,505.012512,1014.360413,511.686523C1016.30658,515.265747,1016.973633,517.232788,1018.331665,523.396667C1018.853027,525.763123,1019.716064,529.096497,1020.249512,530.804077C1021.55481,534.982605,1021.572571,537.704346,1020.325134,542.374329C1018.070007,550.816589,1018.150391,550.38501,1018.279724,553.353149C1018.410889,556.364807,1019.176331,559.6828,1021.113403,565.636841C1022.348816,569.434326,1023.231506,570.793152,1025.209473,571.942505C1026.873291,572.909302,1028.277466,574.240356,1029.600342,576.104492C1030.168213,576.904785,1030.892456,577.884583,1031.209717,578.281921C1031.724121,578.926086,1031.799194,579.40094,1031.903564,582.669006L1032.020508,586.33374L1034.964111,584.853027C1038.23291,583.208862,1043.268921,581.476257,1047.696167,580.472656C1050.828735,579.762573,1052.679688,579.652283,1054.231445,580.083252C1055.484863,580.431335,1057.684082,582.16687,1058.571899,583.508423L1059.260986,584.549805L1058.324219,586.213379C1057.80896,587.128357,1056.838135,588.650818,1056.166748,589.596558L1054.946167,591.316162L1057.009033,591.528564C1060.778564,591.916748,1062.984863,592.465942,1065.231201,593.575195C1071.839233,596.838257,1076.43103,605.311829,1075.405151,612.350098C1074.838623,616.237671,1073.240112,619.310242,1069.95105,622.834351C1064.254883,628.937439,1060.249756,630.351074,1050.880005,629.565552C1045.836914,629.142822,1043.331055,628.565308,1043.331055,627.825806C1043.331055,627.437744,1043.968262,627.325745,1049.338379,626.769714C1056.609497,626.016846,1060.146729,624.69873,1063.203613,621.602966C1065.508545,619.268677,1066.692383,616.919312,1066.834961,614.396851C1066.928833,612.735718,1066.85498,612.406982,1065.999268,610.675598C1064.842163,608.334534,1063.048218,606.419312,1061.234985,605.589233C1059.529907,604.808594,1055.722168,604.344421,1053.523193,604.649048C1051.603638,604.914978,1051.903442,604.606201,1043.99707,614.464294C1036.963623,623.234131,1034.58728,625.89679,1031.462646,628.508667C1028.879395,630.667908,1025.450806,632.625977,1022.978882,633.353516C1020.257507,634.154541,1016.866577,633.868469,1013.385803,632.544189C1012.040344,632.032349,1011.77771,632.070007,1008.675049,633.21991C1006.577148,633.997437,1002.979736,633.953613,999.717529,633.110718z"/>
</svg>
