<?xml version="1.0" encoding="UTF-8"?>
<svg xmlns="http://www.w3.org/2000/svg" width="233.000mm" height="430.400mm" viewBox="-1068.525024 -794.399902 232.999878 430.399902">
    <path transform="matrix(-1.215961,0,0,-1.215961,-801.014404,-312.17453)" style="stroke:#000000;stroke-width:0.05mm;fill:none" d="M107.331985,396.094879C101.639305,394.641632,94.960258,389.94931,91.26696,384.808502C87.931267,380.165466,87.539536,379.909241,86.322136,381.574127C84.778061,383.685791,84.558174,382.694092,85.98098,380.035522C86.681778,378.726074,86.411964,376.603943,85.036324,372.605591C81.638435,362.729431,80.654205,351.973694,81.32235,332.018768C81.920189,314.163361,81.880745,313.607452,80.221199,316.5C78.721962,319.113129,78.491028,322.788452,78.43045,345C78.357552,371.729675,78.086166,373.764526,73.565254,381.478882C69.203964,388.920837,60.190411,395,53.517494,395C48.571564,395,42.146366,388.945831,38.522602,380.871002C37.011063,377.502869,35.485279,375.214813,35.131977,375.786469C34.778675,376.358124,34.453262,374.727509,34.408836,372.162903C34.36441,369.598297,33.961571,362.007874,33.513641,355.295288C32.736671,343.651794,32.610237,343.138214,30.763966,344.126312C29.699574,344.695953,28.642925,344.976257,28.415861,344.749207C28.188795,344.522125,29.073864,343.763245,30.382681,343.062775C32.424137,341.970245,32.861225,340.773804,33.458065,334.644623C34.446434,324.494629,36.69664,313.192322,39.348633,305.057556L41.631741,298.054321L39.065872,298.53244C36.826229,298.949799,36.898861,298.824677,39.637119,297.548492C41.407562,296.723328,43.2145,294.869537,43.784836,293.293182C44.340664,291.756927,45.123379,289.689636,45.5242,288.699188C46.154446,287.141846,45.864109,286.983795,43.37648,287.53009C41.18063,288.012299,40.854927,287.909637,42,287.096191C42.825001,286.510132,44.174999,286.023254,45,286.014221C45.825001,286.005219,48.206856,283.699585,50.293015,280.890625C53.85474,276.094818,53.976696,275.70047,52.293015,274.423492C50.344917,272.945984,51.65099,272.492554,53.846729,273.884125C54.730042,274.443909,57.097023,273.591339,60.725426,271.406433C65.938095,268.267517,69.689087,266.822662,79.744179,264.080597C85.663841,262.466309,87,259.494476,87,247.942673C87,240.089401,86.779732,238.870544,85.452515,239.379852C84.05587,239.915787,84.05587,239.758316,85.452515,237.764328C86.303635,236.549194,87,234.475021,87,233.155045C87,231.135147,86.762466,230.95224,85.5,232C83.638145,233.545197,83.526962,232.215042,85.339401,230.078735C87.663139,227.339767,95.147667,158.433151,93.568436,154.317749C93.141068,153.204041,92.23732,152.974609,90.246277,153.474319C86.855637,154.325317,85.1745,155.682266,82.910286,159.395599C81.274658,162.078064,81.263283,162.48291,82.755798,164.895599C83.834679,166.639648,83.909882,167.087067,82.983444,166.25C80.96302,164.424469,80.294212,164.69162,79.559845,167.617599C79.125465,169.348282,79.427559,170.814957,80.451431,171.946335C82.42794,174.130356,82.472031,175.636642,80.511833,174.009827C79.300949,173.004883,78.899467,173.098404,78.357101,174.511795C77.990494,175.467163,77.998451,188.708755,78.374786,203.937561C78.845963,223.004105,78.711555,233.246536,77.943161,236.829422C74.779945,251.578979,60.929447,259.997833,49.715244,253.987366L45.960106,251.974731L45.004803,254.487366C43.651695,258.046326,42.964706,257.609863,44.036633,253.872269C44.610134,251.872574,44.556332,250.03952,43.887451,248.789703C42.876274,246.900299,42.790951,246.89621,41.338989,248.667419C39.900047,250.42276,39.866264,250.41571,40.537476,248.5C41.498505,245.757126,41.428062,245.321487,38.920528,238.5C37.049305,233.409546,36.643902,229.81076,36.246178,214.759781C35.925068,202.608185,35.442963,197.226227,34.715816,197.675629C34.13195,198.036484,34.40704,197.256958,35.327122,195.943359C37.624092,192.663971,37.575775,187.020859,35.25,186.936615C33.853226,186.886017,33.93325,186.69841,35.646461,186.007141C37.309738,185.336014,37.953823,183.943344,38.507679,179.820526C40.880203,162.159805,47.751213,145.315399,56.246929,136.332428C59.032234,133.387375,61.12862,130.818741,60.90556,130.624344C60.682503,130.429962,59.448959,129.723495,58.164352,129.054428C56.879749,128.385376,56.05043,127.616234,56.321423,127.345245C56.592419,127.074249,58.168568,127.552933,59.823982,128.408981C62.667683,129.879517,63.151741,129.819885,68.593094,127.328751C72.997536,125.312332,76.72216,124.525597,84.426178,123.984421C89.966782,123.595207,95.265732,122.949699,96.20163,122.549957C98.780418,121.448486,99.785149,116.747627,100.410286,102.858803C100.723228,95.906143,101.25708,89.493637,101.596626,88.608803C101.939491,87.715302,101.71154,87,101.083939,87C100.348099,87,100.471626,86.209846,101.438034,84.734917C103.035164,82.297394,105.836967,59.503632,104.681488,58.348156L104.158195,55.597771C104.621185,55.883915,105.058029,54.853977,105.128952,53.309017C105.45018,46.311352,105.726059,44.251266,105.254761,42.621006L151.308807,42.621006C150.008804,46.127224,150.977783,51.311111,151.323593,51.656925L152.29335,54.488647C152.038193,54.601398,154.599106,78.784935,155.947922,89C156.492599,93.125,156.952148,97.0625,156.969131,97.75C156.986099,98.4375,157.761002,99,158.691132,99C160.232193,99,160.240036,99.110924,158.779465,100.25C157.329697,101.380661,157.306366,102.741158,158.535126,114.5C159.282272,121.650002,159.917511,130.012497,159.946793,133.083328C160.008194,139.52594,160.471268,140.311295,163.381485,138.908356C165.197037,138.033127,165.150116,138.191101,163.053406,140.013016C161.03154,141.769897,160.857941,142.297852,162.053406,143.054169C163.054779,143.687698,163.114349,143.974091,162.246994,143.98468C160.592392,144.004913,161.662918,169.132355,163.365356,170.23468C164.17868,170.761322,164.146011,170.973709,163.25,170.98468C162.331421,170.995941,162,173.746857,162,181.360092L162,191.7202L167.25,192.27774C170.137497,192.584381,173.210449,193.115921,174.078766,193.458923C175.112534,193.867279,176.069016,193.291611,176.849548,191.791275L178.041565,189.5L177.621353,192C177.255814,194.174637,177.903519,194.849976,182.598022,197.189011C187.936554,199.848953,188.006622,199.85614,189.078476,197.853363C189.674438,196.739807,190.414703,196.081375,190.723526,196.390182C191.032333,196.699005,190.725372,197.625977,190.041382,198.450134C189.003235,199.701035,189.764465,201.012482,194.64888,206.387985C200.071136,212.355392,200.628265,212.712402,202.25,211.258698C204.323105,209.400406,204.627213,210.51564,202.600128,212.542725C201.400314,213.742554,201.710693,214.903854,204.772171,220.669312C208.037994,226.819611,208.428116,227.207672,209.324844,225.198013C209.864273,223.989105,210.652374,223,211.076172,223C211.499969,223,211.192154,224.312088,210.392151,225.915741C209.17366,228.358261,209.144455,229.49437,210.212265,232.915741C210.938263,235.241898,212.113922,237,212.943481,237C213.91156,237,214.065659,237.334335,213.403015,237.996994C212.740372,238.659637,213.048492,242.432297,214.321854,249.246994C215.375565,254.886139,216.409515,260.479553,216.619522,261.676819C216.829529,262.874054,217.788559,264.059357,218.750687,264.310791C220.415848,264.746002,220.415817,264.77359,218.75,264.884003C217.400955,264.973419,217,265.897369,217,268.916656C217,271.114319,217.548615,273.054718,218.25,273.337708C219.25,273.741241,219.25,273.85788,218.25,273.921051C217.405228,273.974396,217,275.85025,217,279.707428C217,282.846497,216.274353,291.042114,215.387451,297.919922C214.228378,306.908417,214.087769,310.529266,214.887451,310.795807C216.375931,311.291962,216.319809,313.068085,214.825714,312.75C214.158508,312.607941,213.263458,314.443207,212.752975,317C212.258835,319.475006,211.211197,323.722778,210.424881,326.439514C209.288147,330.367035,209.251831,331.541931,210.24762,332.174194C211.17543,332.763306,211.094467,332.973358,209.935211,332.98468C209.074585,332.993103,207.672409,334.462494,206.81929,336.25C205.966156,338.037506,203.594482,341.69162,201.548889,344.370239C198.988129,347.72348,197.996414,349.9039,198.365082,351.370239C198.872879,353.390015,198.829147,353.404572,197.518341,351.651978C196.174042,349.854584,196.06662,349.854584,193.599503,351.651978C191.280746,353.341248,190.494125,355.429199,190.925354,358.75C191.014633,359.4375,190.569168,360,189.935425,360C189.205719,360,189.013275,359.083252,189.410645,357.5C190.149323,354.556885,190.244278,354.582153,185.654236,356.5C183.679733,357.325012,180.910278,358,179.499893,358C177.802353,358,176.598892,358.760529,175.939575,360.25L174.943588,362.5L175.384232,360.226837C175.735474,358.414825,175.159332,357.675598,172.544266,356.582947C168.754623,354.999542,164.949036,350.379517,162.162842,343.979797C160.239639,339.562286,160.198013,339.53476,159.169647,342C158.596069,343.375,158.098251,343.907928,158.063385,343.184265C158.028519,342.460602,158.45607,341.016327,159.013504,339.974792C159.596008,338.886353,159.74971,335.721771,159.374939,332.533081C158.842789,328.00528,158.472534,327.192871,157.36145,328.11499C156.441345,328.878601,156,328.900146,156,328.181458C156,327.596588,156.384125,326.880646,156.853607,326.590485C157.323074,326.300323,158.009888,322.433533,158.379822,317.997589C158.749771,313.561646,160.669113,302.410004,162.645035,293.216125C166.977936,273.055389,167.67569,258.546814,164.685089,250.7966C162.830292,245.989822,156.736404,239.595062,154.655991,240.272339C152.864929,240.855392,151.397812,251.806107,152.808197,254.064468C153.799454,255.651733,153.715057,255.8302,152.235367,255.275772C150.755432,254.721252,150.690125,254.859558,151.791733,256.215515C152.502197,257.090027,152.671631,257.961761,152.168243,258.15274C150.803696,258.670471,150.065414,295.996124,151.419357,296.01532C152.150589,296.025665,152.134735,296.268158,151.370285,296.76532C150.605011,297.263,150.078217,305.403259,149.737274,322C149.370071,339.874207,148.747589,348.93396,147.435562,355.5C146.446442,360.450012,145.639114,365.939819,145.641495,367.699585C145.64389,369.459351,145.274689,370.669769,144.821045,370.389404C144.367416,370.109039,143.53743,371.086456,142.976639,372.561462C142.228043,374.530396,142.294998,375.659454,143.2285,376.808868C144.301529,378.130066,144.236603,378.275848,142.812561,377.742615C141.564621,377.27536,140.472107,378.225067,138.617905,381.389038C135.517792,386.678986,129.237671,392.456024,124.381447,394.485077C119.835136,396.384644,111.536453,397.168213,107.331985,396.094879z"/>
</svg>
