<?xml version="1.0" encoding="UTF-8"?>
<svg xmlns="http://www.w3.org/2000/svg" width="307.553mm" height="176.804mm" viewBox="-631.779297 -667.105774 307.552795 176.803589">
    <path transform="matrix(-1,0,0,-1,0,0)" style="stroke:none;fill:#000000;fill-rule:evenodd" d="M342.959229,664.245728C342.966003,662.672729,343.612518,658.978455,344.395905,656.036316C345.788452,650.806396,345.766174,650.662292,343.399384,649.583862C338.47699,647.341064,332.684601,641.017212,331.04895,636.100159C330.157043,633.418823,328.257111,629.865234,326.826904,628.203247C325.396667,626.54126,324.226501,624.812988,324.226501,624.36261C324.226501,621.175659,333.860504,608.864624,336.354431,608.864624C337.080231,608.864624,339.883362,609.614685,342.583588,610.531433C346.464172,611.848877,348.277679,611.963135,351.237,611.076538C359.046082,608.736877,365.342499,599.248169,366.512238,588.056824C367.086945,582.558289,367.836639,580.983826,373.228271,573.951965C381.852356,562.704346,386.629364,552.757385,386.621643,546.063599C386.606415,532.844116,382.070343,513.153503,377.239655,505.33728C375.531921,502.574158,374.310394,501.796753,371.276611,501.542358C367.911163,501.260132,367.280975,500.746765,365.932312,497.188751C364.514191,493.447418,364.544769,493.051697,366.354156,491.728638C367.494507,490.894806,370.900848,490.302185,374.553314,490.302185C380.699615,490.302185,380.880676,490.386353,385.640686,495.45639C390.91864,501.078125,402.235229,522.235779,409.028809,539.183167C411.207153,544.61731,413.309937,549.441711,413.70163,549.904114C414.093323,550.366577,414.97229,547.79248,415.654846,544.184021C418.22345,530.604675,419.819336,526.745361,425.763611,519.738281C428.920105,516.017456,433.149963,510.680206,435.16333,507.877777C437.176666,505.075348,439.44809,502.78244,440.210938,502.78244C442.631836,502.78244,445.908997,508.058502,445.908997,511.956085C445.908997,515.137085,444.966064,516.564575,439.108429,522.251831C432.908661,528.271301,432.359253,529.150024,432.889282,532.198853C434.007385,538.630249,435.18158,557.420715,434.730804,561.668335C434.299805,565.729675,434.454102,566.015137,437.690582,567.143372C442.133972,568.692383,462.754761,571.255676,473.874481,571.641296L482.599609,571.943848L488.162231,561.54364C495.853668,547.16333,499.385559,537.939941,498.520569,534.493408C497.6091,530.861877,489.787964,522.57782,481.583069,516.553345C476.444641,512.780457,475.029572,511.155975,475.029572,509.029968C475.029572,505.71109,476.770752,503.822449,479.830566,503.822449C483.648376,503.822449,497.78064,514.061157,508.769653,524.788574L519.109253,534.882019L523.013245,531.790039C525.1604,530.089417,528.166138,527.213684,529.692688,525.399536C532.098206,522.54071,532.391418,521.453064,531.892273,517.238892C531.575562,514.564697,530.609985,510.686035,529.746582,508.619598C528.467773,505.55899,527.63147,504.862488,525.235046,504.862488C520.54895,504.862488,517.496826,502.126678,517.872009,498.262451C518.164978,495.244507,518.587036,494.90567,523.151733,494.024017C526.177063,493.439667,529.593384,493.439667,531.906921,494.024017C535.644043,494.967926,535.775024,495.18219,540.649414,508.318878C548.728149,530.091675,548.785278,530.498718,544.936157,538.863708C541.26416,546.843628,538.509155,557.418823,538.486206,563.621887C538.476563,566.248413,540.054504,571.391113,542.770142,577.583069C546.049438,585.060486,547.221375,589.247375,547.710205,595.232239L548.351074,603.078491L561.007935,605.916687C602.354858,615.188538,627.419678,626.517578,631.072266,637.584961C635.877625,652.145325,615.690002,665.264038,588.161377,665.470093C578.925964,665.539185,577.84552,665.338013,575.681091,663.145752C573.477417,660.913635,573.436218,660.652893,575.092712,659.419434C576.072388,658.689941,581.980225,657.539307,588.221252,656.862427C606.832947,654.843811,614.867065,651.652039,617.532227,645.217773C619.50531,640.454224,616.823486,635.358459,610.998291,632.80249C601.448792,628.612366,578.007568,625.507385,555.911438,625.505798C543.81073,625.504944,543.66626,625.533752,538.177368,629.044983C524.510864,637.787354,513.919495,640.536621,487.509827,642.197021C457.030792,644.113403,443.426819,642.5495,425.628571,635.083374C414.865662,630.568481,413.634155,630.285706,404.828125,630.306824C392.680481,630.335999,387.754578,632.498047,378.403503,641.904907C374.52533,645.806213,369.362305,649.829102,366.801483,650.944824C364.263672,652.050476,359.379211,655.349243,355.947144,658.275391C349.032806,664.170471,344.980194,667.105774,343.755493,667.105774C343.31076,667.105774,342.952423,665.818726,342.959229,664.245728z"/>
</svg>
