<?xml version="1.0" encoding="UTF-8"?>
<svg xmlns="http://www.w3.org/2000/svg" width="478.131mm" height="337.761mm" viewBox="-932.063904 -613.356628 478.130951 337.760925">
    <path transform="matrix(-1.433549,0,0,-1.433549,-433.447388,-227.745255)" style="stroke:#000000;stroke-width:0.05mm;fill:none" d="M242.003189,263.75C242.007507,256.661926,244.758759,241.370239,246.71228,237.576447C247.583557,235.884399,249.310486,233.149994,250.549881,231.5C251.789291,229.850006,253.488159,226.839951,254.32515,224.811005L255.84697,221.122025L247.673477,215.245102C230.725388,203.059052,229.680359,202.587585,218.706436,202.17662C213.319977,201.974899,205.894974,202.343491,202.206436,202.995697C198.517899,203.647903,189.875,204.363251,183,204.585342C176.125,204.807434,165.774994,205.624695,160,206.401474C144.981781,208.421524,135.102097,209.366119,130.5,209.22197C128.300003,209.153061,117.949997,208.857925,107.5,208.566116C87.752029,208.014664,83.771156,207.494003,68.087677,203.411255C56.619884,200.425949,49.923115,196.726654,43.28981,189.712921C37.070091,183.136475,35.666656,180.471283,33.135536,170.429413C31.309231,163.183807,31.022976,155.510681,32.318138,148.51886C32.519978,147.429245,32.361198,145.101517,31.965298,143.34613C31.557186,141.536621,31.674238,139.725754,32.235603,139.164398C32.788216,138.611786,32.860561,137.58342,32.399323,136.837128C31.944798,136.101715,31.661589,133.307526,31.769974,130.627838C31.878357,127.948151,31.661118,125.260696,31.287216,124.655708C30.913315,124.050728,30.727139,121.897316,30.873489,119.870354C31.180319,115.620766,25.607094,104.891449,18.983505,96.980301L15.043062,92.273872L14.666582,66.654579L14.290103,41.035282L16.895052,38.231194C20.704311,34.13073,24.363153,32.85968,30.34499,33.558811C33.180244,33.890182,36.037849,34.326427,36.695225,34.528248C38.765911,35.163967,36.475075,40.551689,31.577883,46.563507C26.511377,52.783173,26.571312,52.415588,28.316603,66.565025C29.445791,75.719582,29.903528,77.100624,33.376785,81.832153C36.97036,86.727577,39.643581,89,41.808857,89C42.843311,89,46.503716,77.811554,47.530018,71.512627C48.136803,67.788475,48.272778,67.652565,49.589844,69.453758C50.365429,70.514435,51,72.222809,51,73.250145C51,74.421638,51.43618,74.848457,52.169937,74.394974C52.925762,73.927849,53.140099,74.192528,52.775467,75.142738C52.197384,76.6492,53.736435,83.29023,55.828152,88.315102C56.472668,89.863403,57,91.358047,57,91.636528C57,91.915009,57.674999,92.817856,58.5,93.64286C59.326805,94.469666,60,96.914909,60,99.091301C60,103.04985,62.319748,107.59642,67.177719,113.15921C71.215485,117.782806,80.08226,125.067192,80.989769,124.506325C81.469391,124.2099,82.157959,124.446571,82.519928,125.032249C82.980103,125.776817,83.589287,125.755829,84.545219,124.962471C85.297165,124.338409,86.382103,124.118118,86.956192,124.472931C87.530289,124.827736,88,124.389915,88,123.5C88,122.610085,88.449997,122.16008,89,122.5C89.550003,122.83992,90,122.641479,90,122.059013C90,121.476555,90.675003,121,91.5,121C92.324997,121,93,120.598785,93,120.108406C93,119.618034,94.175514,118.921783,95.612251,118.56118C98.022102,117.956345,98.102638,117.770897,96.651695,116.167618C95.197876,114.561165,95.276299,114.413345,97.688332,114.213722C99.123528,114.09494,100.883263,113.511848,101.598854,112.917961C104.502235,110.508362,106.888008,103.2855,107.517296,95C108.515953,81.851212,108.927933,81.080605,119.50843,72.570549C128.596863,65.260582,130.099609,63.685658,137.227982,54C141.568069,48.102905,146.754837,45.471882,151.228989,46.8979C153.028046,47.471298,156.219147,48.20517,158.320328,48.528725C162.773834,49.214516,168.341675,53.946026,167.444977,56.282791C167.121201,57.126545,165.651123,58.268017,164.178146,58.819397C162.70517,59.370777,158.481766,60.941189,154.792801,62.3092C146.697662,65.311195,135.467361,74.833763,131.724045,81.870018C129.054382,86.888145,129.065262,86.572495,130.720673,111C131.249756,118.807266,131.760391,121.784035,132.310944,120.270317C132.756958,119.043983,133.431961,118.084778,133.810944,118.138733C136.717499,118.552567,138.959198,117.703941,139.505386,115.983009C139.857483,114.873665,141.687805,113.321625,143.572784,112.534035C145.457748,111.746445,147,110.404091,147,109.551025C147,107.636856,148.296143,107.590134,151.799667,109.378006C154.188065,110.596825,155.384338,110.491219,162.155396,108.463821C166.365875,107.20311,170.640869,105.742218,171.655396,105.2174C172.669937,104.692574,176.649994,103.674431,180.5,102.954865C189.260773,101.317474,190.204285,100.667519,188.879333,97.182617C187.202454,92.772118,184.875778,79.093445,184.697388,72.596756C184.587738,68.603668,185.121613,65.254982,186.244644,62.89175C187.356369,60.552273,187.896927,57.211777,187.781921,53.39175C187.684357,50.151287,188.145828,45.643284,188.807434,43.373966C189.813736,39.92226,190.540634,39.127064,193.255157,38.508354C195.039825,38.101585,197.864685,37.846851,199.532639,37.94228C201.200592,38.037704,203.772156,37.656925,205.247238,37.0961C207.112671,36.386864,208.130905,36.402794,208.591736,37.148422C208.968048,37.757313,210.705399,37.984936,212.613342,37.67532L215.972427,37.130215L214.435532,40.815105C212.564316,45.301559,207.56366,50.641712,204.517776,51.406181C202.461182,51.922356,202.219513,52.74255,201.587662,61.350384C200.841354,71.517349,200.338211,69.579361,208.134048,86.565727C209.160324,88.801872,210,91.409828,210,92.361176C210,94.508728,214.366608,99,216.454544,99C217.30455,99,218,98.42202,218,97.715607C218,97.009193,219.357941,95.629059,221.017639,94.648651C222.699066,93.655411,223.73764,92.384521,223.363129,91.778534C222.985245,91.167107,223.150818,90.975174,223.741333,91.340134C224.319016,91.697166,225.851044,91.106667,227.145828,90.027908C228.440628,88.949158,229.098526,88.051567,228.607849,88.033272C228.117172,88.014969,230.617462,86.487503,234.164047,84.638885C242.060913,80.522766,252.217255,73.948853,253.299683,72.252922C253.739517,71.563812,254.766144,71,255.58107,71C256.395996,71,257.321777,70.324997,257.638367,69.5C257.954956,68.675003,258.818481,68,259.557312,68C260.296112,68,261.260468,67.385216,261.700317,66.633812C262.140137,65.882408,263.983124,63.519909,265.795807,61.383812C267.608521,59.247715,270.083527,55.479187,271.295807,53.009304C272.611908,50.327976,274.70874,47.910488,276.5,47.009304C278.149994,46.179188,279.859863,44.9375,280.299683,44.25C280.765869,43.521328,283.199799,43,286.135559,43C291.362152,43,304,45.902847,304,47.103371C304,47.888569,301.401154,50.585293,290.915649,60.680412C286.813721,64.629639,280.992126,71.138115,277.97879,75.143692C272.856689,81.952415,270.526642,84.380936,256.43515,97.597824C250.447098,103.214241,249.747192,105.472061,253.468643,107.167664C254.826401,107.786301,255.652573,108.753128,255.304596,109.31617C254.920792,109.937187,255.326492,110.088692,256.335968,109.701324C257.25119,109.350121,258,109.454201,258,109.93261C258,111.352989,264.880035,115.003113,265.541138,113.933456C266.514771,112.358047,268.215515,114.067825,267.686615,116.090347C267.204956,117.932297,275.187317,135.239914,277.709137,137.821426C278.419098,138.548218,279,139.920715,279,140.871429C279,143.072433,280.91095,145,283.093018,145C284.870056,145,286,146.930557,286,149.966782C286,150.958542,287.125,152.507111,288.5,153.408051C289.875,154.308975,291,155.905411,291,156.955658C291,158.016632,291.93222,159.161102,293.097778,159.531036C295.188843,160.194717,295.318054,161.99353,293.571075,166.121063C292.221222,169.31041,295.46582,170.905899,302.253815,170.390656C305.689209,170.129883,309.555542,169.690933,310.845642,169.415207C312.135773,169.139481,313.726166,169.357773,314.379852,169.900299C315.13797,170.529465,317.0047,170.553696,319.53421,169.967209C328.166412,167.965759,335.908752,170.174088,337.004517,174.950241C337.358978,176.495209,339.032196,178.158325,341.533325,179.451736C345.035309,181.262711,345.665955,182.158218,346.916656,187.096008C348.598145,193.734573,348.045959,195.726669,344.292816,196.561981C339.07309,197.723709,332.792297,200.495117,332.237823,201.881271C331.933929,202.640976,332.2854,206.240982,333.01886,209.881271C334.68512,218.151016,334.469391,221.390884,331.898529,226.706055C329.200836,232.283478,324.175354,236.540405,315.329285,240.741394C309.027313,243.734177,307.06131,244.192184,300.625,244.166946L293.195313,244.137802L285.970795,253.172943C278.740143,262.215698,274.886047,265,269.599518,265C266.829956,265,266.468994,264.183563,265.509949,255.75C265.15033,252.587494,264.516907,250,264.102356,250C263.048004,250,259.87738,253.736542,256.694061,258.730499C254.369537,262.377228,245.427109,268.957123,242.75,268.990631C242.337494,268.995789,242.001434,266.637512,242.003189,263.75z"/>
</svg>
