<?xml version="1.0" encoding="UTF-8"?>
<svg xmlns="http://www.w3.org/2000/svg" width="474.064mm" height="291.911mm" viewBox="-1500.416016 -677.783997 474.063965 291.910706">
    <path transform="matrix(-1,0,0,-1,0,0)" style="stroke:#000000;stroke-width:0.05mm;fill:none" d="M1370.375977,581.080017C1366.066284,581.426575,1361.746582,581.64801,1357.42395,581.744019C1347.668823,581.96405,1337.901367,582.07074,1328.144043,582.064026L1326.959961,582.072021L1324.543945,582.072021L1323.312012,582.080017L1316.855957,582.080017L1315.511963,582.088013L1303.615967,582.088013L1300.536011,582.080017L1294.359985,582.072021L1288.199951,582.064026L1285.144043,582.064026L1282.104004,582.05603L1279.088013,582.047974L1276.104004,582.039978L1273.160034,582.031982C1258.720215,582.003906,1244.144043,581.913086,1229.703979,581.76001C1224.724976,581.676208,1219.745361,581.713562,1214.767944,581.872009C1211.719727,581.972107,1208.676758,582.201782,1205.647949,582.559998C1199.455078,583.263916,1193.412109,584.943726,1187.744019,587.536011C1185.697266,588.424622,1183.692383,589.406982,1181.735962,590.47998C1178.328613,592.431213,1175.109619,594.694519,1172.119995,597.23999C1167.840942,600.883301,1163.880005,604.884399,1160.280029,609.200012C1155.425659,615.00177,1151.068848,621.202393,1147.255981,627.736023C1145.424561,630.832581,1143.242065,633.70752,1140.751953,636.304016C1140.024048,637.066833,1139.220093,637.753479,1138.352051,638.35199C1137.305664,638.968567,1136.354492,639.73407,1135.527954,640.624023C1134.106689,642.125732,1132.846191,643.77179,1131.767944,645.536011C1130.911255,646.910522,1130.125732,648.328064,1129.416016,649.783997C1128.270508,652.053589,1127.021118,654.269165,1125.671997,656.424011C1124.424927,658.420532,1123.00354,660.302612,1121.42395,662.047974C1119.090576,664.567383,1116.381348,666.710266,1113.391968,668.400024C1110.794678,669.874146,1108.100586,671.170288,1105.328003,672.280029C1102.354858,673.500854,1099.339844,674.616089,1096.287964,675.624023C1091.44873,677.126587,1086.40271,677.855469,1081.33606,677.783997C1079.279297,677.763,1077.2323,677.4953,1075.23999,676.984009C1074.07959,676.688232,1072.97644,676.202087,1071.975952,675.544006C1070.567749,674.601318,1069.112549,673.731018,1067.615967,672.935974C1065.520142,671.801086,1063.391479,670.728638,1061.232056,669.719971C1059.560425,668.897095,1057.985352,667.890869,1056.536011,666.719971C1055.943481,666.257141,1055.412598,665.720215,1054.959961,665.119995C1054.824341,664.93396,1054.707642,664.734375,1054.624023,664.52002C1054.472046,663.9104,1054.115234,663.37085,1053.608032,663C1053.099243,662.606323,1052.54187,662.280518,1051.952026,662.023987C1050.291382,661.33551,1048.582642,660.769165,1046.839966,660.328003C1044.612427,659.743774,1042.375244,659.199829,1040.128052,658.695984L1026.352051,655.575989C1026.67334,654.047974,1026.97998,652.577148,1027.296021,651.047974C1027.87793,647.784729,1028.371582,644.505981,1028.776001,641.216003C1029.02771,639.129517,1029.289673,637.036255,1029.560059,634.952026C1029.887817,632.545166,1030.369019,630.161682,1031,627.815979C1031.209961,626.981201,1031.502075,626.169312,1031.871948,625.392029C1031.928467,625.289429,1031.985962,625.187378,1032.047974,625.088013C1032.568481,624.445801,1033.214478,623.91687,1033.94397,623.528015C1035.237183,622.825928,1036.609253,622.279907,1038.031982,621.903992C1040.62439,621.196533,1043.262695,620.669922,1045.927979,620.328003C1049.023315,619.900574,1052.131348,619.575073,1055.248047,619.35199C1057.41687,619.181641,1059.576782,618.909485,1061.719971,618.536011C1062.71936,618.360107,1063.699951,618.090027,1064.647949,617.728027C1065.093506,617.568298,1065.499146,617.312378,1065.832031,616.976013L1065.927979,616.856018L1066,616.736023C1066.043335,616.645081,1066.077515,616.550476,1066.112061,616.455994C1066.230347,615.793701,1066.265625,615.119507,1066.223999,614.447998C1066.126709,612.358459,1065.918457,610.275452,1065.599976,608.208008C1064.578369,601.051208,1063.144043,593.95929,1061.303955,586.968018C1060.860962,585.238525,1060.307617,583.539063,1059.647949,581.880005C1058.89563,580.338318,1058.309082,578.721069,1057.895996,577.05603C1056.928589,573.255005,1056.299316,569.375977,1056.015991,565.463989L1055.23999,554.840027L1059.848022,552.288025C1061.787842,551.243164,1063.841553,550.424866,1065.968018,549.848022C1070.206299,548.649231,1074.606812,548.125488,1079.008057,548.296021C1080.515137,548.361511,1082.012695,548.569824,1083.47998,548.919983C1084.519775,549.210815,1085.536011,549.579834,1086.52002,550.023987C1087.28125,550.357056,1088.064575,550.637329,1088.864014,550.864014L1089.024048,550.895996C1089.108276,550.91626,1089.194092,550.920044,1089.280029,550.927979L1089.391968,550.919983C1089.446289,550.907654,1089.500244,550.893555,1089.552002,550.872009C1089.582642,550.839172,1089.616699,550.809814,1089.647949,550.776001L1089.680054,550.711975C1089.690186,550.653809,1089.694702,550.594971,1089.696045,550.536011C1089.650757,550.178162,1089.546387,549.830139,1089.391968,549.504028C1088.742554,547.942444,1088.317505,546.296631,1088.128052,544.616028C1087.812744,542.224182,1087.676514,539.812134,1087.719971,537.400024C1087.781128,531.014465,1088.580933,524.657532,1090.104004,518.455994C1090.608032,516.414795,1091.279541,514.418579,1092.112061,512.487976C1092.351685,511.958771,1092.604614,511.435699,1092.871948,510.920013C1093.232056,510.038544,1093.497559,509.121521,1093.66394,508.18399C1093.936035,506.746246,1094.080322,505.28717,1094.095947,503.824005C1094.247559,502.213074,1094.580811,500.624512,1095.088013,499.088013C1095.512817,497.67627,1096.075928,496.309784,1096.767944,495.007996L1099.407959,490.191986C1099.504639,493.332672,1099.613037,496.676514,1099.719971,499.81601C1100.428101,497.881958,1101.116821,496.011475,1101.832031,494.079987C1102.749023,491.587585,1103.8125,489.151367,1105.015991,486.783997C1105.627686,485.562805,1106.342163,484.395874,1107.151978,483.29599C1107.604858,482.640839,1108.169189,482.069275,1108.823975,481.615997C1108.952759,481.513275,1109.099121,481.434479,1109.255981,481.384003C1109.390137,481.329712,1109.530762,481.295349,1109.671997,481.264008C1109.807617,481.250946,1109.943726,481.243958,1110.079956,481.23999C1110.21521,481.20993,1110.348267,481.170959,1110.47998,481.127991L1110.66394,481.032013L1110.839966,480.911987C1111.084106,480.728485,1111.28479,480.494934,1111.439941,480.231995C1111.746948,479.690582,1111.906982,479.078369,1111.904053,478.455994C1111.943848,476.943298,1112.76001,475.559692,1114.063965,474.791992C1114.989014,474.412231,1115.76416,473.738007,1116.264038,472.872009C1116.717407,472.169647,1116.98291,471.362549,1117.031982,470.528015C1117.442993,468.053619,1118.129761,465.633331,1119.079956,463.312012C1119.342529,462.615295,1119.740967,461.977631,1120.255981,461.440002C1120.773071,460.98114,1121.444824,460.73526,1122.135986,460.752014C1122.856689,460.738647,1123.577271,460.791504,1124.287964,460.911987C1125.487793,461.121582,1126.718994,461.065369,1127.895996,460.752014C1129.304077,460.331879,1130.535767,459.462585,1131.407959,458.279999C1132.240356,457.15033,1132.885742,455.894348,1133.319946,454.559998C1133.886841,452.819305,1134.294067,451.030609,1134.536011,449.216003C1134.88623,446.794281,1135.065308,444.350891,1135.072021,441.903992C1135.063599,440.773041,1134.948853,439.645233,1134.728027,438.536011C1134.369751,436.922607,1133.765015,435.373749,1132.936035,433.944C1132.601929,433.261902,1132.202515,432.613586,1131.744019,432.007996C1131.135864,431.210541,1130.18689,430.746796,1129.18396,430.752014C1128.132324,430.734161,1127.080811,430.800415,1126.040039,430.951996C1124.373779,431.206848,1122.693115,431.356598,1121.008057,431.399994C1117.956055,431.444672,1114.915405,431.021454,1111.991943,430.144012C1110.614868,429.735596,1109.298828,429.143951,1108.079956,428.384003C1107.344238,427.926422,1106.700562,427.335541,1106.18396,426.640015C1105.311401,425.388977,1105.039185,423.815704,1105.439941,422.343994C1105.821777,420.980103,1106.526855,419.728912,1107.495972,418.696014C1108.983887,417.111145,1110.784546,415.852936,1112.784058,415C1113.981934,414.501343,1115.14917,413.93222,1116.280029,413.29599C1116.81543,413.010742,1117.293335,412.628693,1117.687988,412.167999C1118.069702,411.694458,1118.258911,411.095276,1118.223999,410.488007C1118.185181,409.858093,1118.08374,409.233521,1117.920044,408.623993C1117.519409,407.009369,1117.172607,405.381653,1116.880005,403.743988L1116.887939,403.679993C1116.952759,403.506775,1117.060425,403.353271,1117.199951,403.231995C1117.820557,402.694427,1118.515503,402.249359,1119.264038,401.911987C1120.167847,401.469635,1121.097656,401.082581,1122.047974,400.752014C1125.352173,399.426575,1128.539307,397.826263,1131.57605,395.967987C1133.091187,395.178802,1134.705444,394.597412,1136.375977,394.23999C1138.670044,393.723816,1141.003784,393.40271,1143.352051,393.279999C1150.213867,392.897552,1157.09436,393.520081,1163.776001,395.127991C1166.181274,395.69873,1168.519653,396.521973,1170.751953,397.584015C1171.926025,398.149567,1173.025146,398.8591,1174.024048,399.696014C1174.561401,400.054871,1175.152588,400.326019,1175.776001,400.496002C1177.425903,400.979919,1179.124146,401.280396,1180.839966,401.391998C1182.014771,401.456543,1183.191406,401.488586,1184.368042,401.488007C1185.629395,401.499268,1186.887451,401.619446,1188.128052,401.847992C1189.037964,402.013641,1189.903809,402.36499,1190.671997,402.880005C1191.488647,403.471008,1192.136108,404.265747,1192.552002,405.18399C1193.107666,406.424896,1193.534058,407.719666,1193.823975,409.048004C1194.192627,410.733643,1194.787354,412.361572,1195.592041,413.888C1195.922363,414.519867,1196.357422,415.090912,1196.880005,415.575989C1197.18811,415.864899,1197.586426,416.038086,1198.008057,416.063995C1198.290894,416.041412,1198.560669,415.939972,1198.791992,415.776001C1198.903442,415.727234,1199.019043,415.689148,1199.135986,415.656006C1199.238281,415.63089,1199.343018,415.620819,1199.447998,415.615997C1199.68689,415.632141,1199.912354,415.726471,1200.095947,415.880005L1200.199951,415.984009C1200.272095,416.062988,1200.33728,416.14801,1200.391968,416.23999C1200.696899,416.859619,1200.813477,417.554718,1200.728027,418.23999C1200.664673,418.945496,1200.474731,419.633545,1200.167969,420.272003C1199.997192,420.590637,1199.839478,420.916138,1199.696045,421.247986C1199.474731,421.736298,1199.388428,422.275238,1199.447998,422.808014C1199.540039,423.34613,1199.76416,423.852753,1200.104004,424.279999C1200.590088,424.865784,1201.122437,425.411652,1201.696045,425.911987C1202.575684,426.731598,1203.277954,427.722595,1203.76001,428.824005C1204.037109,429.426208,1204.139893,430.093475,1204.063965,430.752014C1203.995239,431.356842,1203.600708,431.874817,1203.040039,432.112C1202.493774,432.318115,1201.901978,432.370636,1201.328003,432.264008C1200.623779,432.118591,1199.91687,431.985077,1199.208008,431.864014C1199.069824,431.849274,1198.930664,431.846466,1198.791992,431.855988L1198.76001,431.872009C1198.740723,431.898315,1198.736206,431.929169,1198.744019,431.959991C1198.796509,432.034393,1198.860352,432.099335,1198.927979,432.160004C1199.537109,432.60434,1200.164185,433.023529,1200.807983,433.415985C1201.17627,433.6492,1201.519165,433.92038,1201.832031,434.223999C1201.928955,434.32782,1202.014771,434.441833,1202.079956,434.567993L1202.135986,434.727997C1202.145874,434.832031,1202.144287,434.936646,1202.128052,435.040009L1202.063965,435.191986C1201.886475,435.45166,1201.657959,435.672058,1201.391968,435.839996C1201.052246,436.058716,1200.722168,436.292114,1200.400024,436.536011C1200.240356,436.650421,1200.110474,436.800323,1200.008057,436.967987L1199.952026,437.104004C1199.936768,437.191711,1199.938965,437.280396,1199.952026,437.368011L1200.008057,437.503998L1200.095947,437.640015C1200.39856,437.958313,1200.74707,438.229462,1201.128052,438.447998C1201.29541,438.562378,1201.460571,438.680084,1201.624023,438.799988C1201.741333,438.903748,1201.852661,439.013977,1201.959961,439.127991C1202.032593,439.219299,1202.086548,439.32312,1202.128052,439.432007L1202.151978,439.59201L1202.135986,439.743988L1202.079956,439.903992C1201.831177,440.274475,1201.505127,440.58551,1201.128052,440.824005C1200.704102,441.102814,1200.282715,441.385315,1199.864014,441.671997C1199.637817,441.825165,1199.430054,442.003784,1199.23999,442.200012L1199.104004,442.368011C1199.024902,442.457489,1198.962158,442.560211,1198.920044,442.671997C1198.886108,442.758881,1198.876587,442.851318,1198.871948,442.944C1198.890015,443.029327,1198.912109,443.1138,1198.952026,443.191986C1199.059937,443.315613,1199.185669,443.421997,1199.328003,443.503998C1199.459961,443.570831,1199.592896,443.635895,1199.728027,443.696014C1199.848755,443.769257,1199.959961,443.856567,1200.063965,443.951996L1200.199951,444.112C1200.278687,444.22525,1200.334595,444.351349,1200.384033,444.480011C1200.503662,444.907532,1200.521729,445.357178,1200.432007,445.791992C1200.302368,446.455963,1200.112061,447.106598,1199.864014,447.735992C1199.314087,449.086243,1198.922241,450.495728,1198.696045,451.936005C1198.582886,452.58017,1198.591309,453.240448,1198.728027,453.880005L1198.81604,454.160004L1198.927979,454.399994C1199.01416,454.539337,1199.116333,454.668427,1199.23999,454.776001C1199.366089,454.867615,1199.505127,454.938263,1199.647949,455C1200.01062,455.09848,1200.393555,455.081116,1200.751953,454.967987C1201.429077,454.756958,1202.069092,454.441895,1202.647949,454.032013C1203.643188,453.336639,1204.57959,452.560547,1205.447998,451.712006C1206.049683,451.156586,1206.721558,450.682007,1207.447998,450.303986C1207.76123,450.142212,1208.104248,450.046967,1208.456055,450.023987C1208.588745,450.030975,1208.720947,450.048492,1208.848022,450.088013L1209.015991,450.167999L1209.160034,450.287994C1209.414307,450.63443,1209.707275,450.950531,1210.031982,451.231995C1210.893311,451.942383,1211.870728,452.498779,1212.920044,452.880005C1213.46167,453.163574,1213.918701,453.586975,1214.232056,454.112C1214.792603,455.049164,1215.078003,456.124115,1215.063965,457.216003C1215.05603,457.737732,1215.087646,458.259247,1215.160034,458.776001L1215.215942,459.056C1215.256592,459.28064,1215.343506,459.494049,1215.463989,459.687988C1215.537842,459.769012,1215.615845,459.846161,1215.703979,459.911987L1215.848022,459.967987C1215.954468,459.978241,1216.061523,459.978973,1216.167969,459.967987L1216.359985,459.920013C1216.64563,459.774597,1216.931274,459.627533,1217.215942,459.480011C1218.318481,459.059204,1219.464111,458.761841,1220.631958,458.59201C1222.093872,458.350494,1223.574585,458.240143,1225.05603,458.264008L1225.287964,458.279999C1225.713989,458.288635,1226.133423,458.38858,1226.52002,458.567993L1226.647949,458.640015L1226.76001,458.727997C1226.83252,458.785858,1226.895996,458.853149,1226.959961,458.920013C1227.050171,459.028107,1227.119263,459.151245,1227.176025,459.279999C1227.283813,459.540924,1227.357056,459.814941,1227.384033,460.096008C1227.435059,460.579559,1227.456299,461.065826,1227.447998,461.552002C1227.563843,463.469421,1228.483643,465.248535,1229.984009,466.447998C1230.443848,466.813873,1230.994141,467.046326,1231.57605,467.127991C1232.094482,467.177643,1232.612793,467.045898,1233.047974,466.76001L1233.223999,466.70401L1233.416016,466.671997C1233.557251,466.664063,1233.69873,466.663788,1233.839966,466.671997C1234.352051,466.743408,1234.84436,466.918274,1235.287964,467.18399C1235.816284,467.490417,1236.298828,467.869629,1236.719971,468.312012C1237.563843,469.096466,1238.560913,469.697876,1239.647949,470.079987C1240.00769,470.204376,1240.387207,470.26004,1240.767944,470.256012C1240.889893,470.273529,1241.011108,470.296997,1241.128052,470.335999C1241.331177,470.403381,1241.515869,470.519623,1241.647949,470.687988L1241.735962,470.81601L1241.800049,470.959991C1241.828125,471.06839,1241.851807,471.177826,1241.871948,471.287994C1241.873901,471.413391,1241.869629,471.538727,1241.864014,471.664001C1241.809448,471.956848,1241.729736,472.244568,1241.615967,472.519989C1241.50061,472.876221,1241.473511,473.254822,1241.536011,473.623993L1241.583984,473.768005C1241.618652,473.857147,1241.659912,473.943634,1241.712036,474.023987L1241.791992,474.119995C1241.861694,474.176361,1241.932373,474.231628,1242.008057,474.279999C1242.094604,474.311371,1242.182495,474.338379,1242.271973,474.359985C1242.373047,474.37149,1242.474487,474.378845,1242.57605,474.384003C1242.67688,474.402283,1242.77478,474.432098,1242.871948,474.463989C1243.014282,474.53772,1243.147705,474.62674,1243.271973,474.727997C1243.353882,474.804077,1243.424561,474.890259,1243.495972,474.976013C1243.639893,475.175659,1243.745972,475.398773,1243.823975,475.631989C1243.913086,475.968811,1243.956665,476.315643,1243.959961,476.664001C1243.988159,476.811096,1244.025879,476.956238,1244.079956,477.096008L1244.176025,477.287994C1244.258179,477.414001,1244.348877,477.534332,1244.456055,477.640015L1244.640015,477.799988L1244.839966,477.944C1245.25647,478.186127,1245.714966,478.348663,1246.192017,478.415985C1247.100586,478.577484,1248.034668,478.510254,1248.911987,478.223999C1249.780518,477.88324,1250.561401,477.352264,1251.199951,476.671997C1252.061768,475.740051,1252.813354,474.711884,1253.439941,473.608002C1254.300659,472.202423,1255.381714,470.944519,1256.640015,469.880005C1258.697632,468.124268,1260.98877,466.662476,1263.447998,465.536011C1267.306152,463.739075,1271.432739,462.587616,1275.66394,462.127991C1276.257813,462.050446,1276.860596,462.067444,1277.447998,462.18399C1277.756958,462.261597,1278.043579,462.406097,1278.296021,462.600006C1278.373291,462.669495,1278.443848,462.745697,1278.511963,462.824005C1278.648193,463.001099,1278.769653,463.189209,1278.864014,463.391998C1279.070557,463.886932,1279.234985,464.398438,1279.359985,464.920013C1279.513184,465.430603,1279.765869,465.906769,1280.112061,466.312012C1280.20813,466.421173,1280.313965,466.520996,1280.42395,466.615997L1280.583984,466.727997C1280.780762,466.857727,1281.001221,466.945251,1281.232056,466.992004C1281.339966,467.014099,1281.450806,467.014313,1281.560059,467C1281.662476,466.9841,1281.76355,466.961243,1281.864014,466.936005C1281.960083,466.885071,1282.05481,466.832245,1282.151978,466.783997C1282.350708,466.644653,1282.51123,466.458618,1282.631958,466.247986C1282.694092,466.122772,1282.750122,465.994598,1282.800049,465.864014C1282.905396,465.540802,1282.962402,465.203888,1282.968018,464.864014C1282.966675,464.581268,1282.958862,464.298401,1282.94397,464.015991C1282.907227,463.497192,1283.08313,462.985779,1283.432007,462.600006L1283.560059,462.480011C1283.704224,462.370178,1283.864502,462.28476,1284.031982,462.216003C1284.15271,462.174866,1284.275879,462.141327,1284.400024,462.112C1285.043335,462.014374,1285.700806,462.064026,1286.319946,462.264008C1287.300537,462.555145,1288.234619,462.984192,1289.095947,463.536011C1289.622192,463.892212,1290.215332,464.139587,1290.839966,464.256012C1291.483276,464.355927,1292.140869,464.319,1292.767944,464.144012C1293.734375,463.863098,1294.670166,463.486206,1295.560059,463.015991C1297.027954,462.21402,1298.612305,461.64621,1300.255981,461.335999C1300.69104,461.255249,1301.134644,461.226837,1301.57605,461.256012C1301.802246,461.299805,1302.026611,461.352173,1302.248047,461.415985C1302.726318,461.452545,1303.205322,461.362946,1303.640015,461.160004C1304.837158,460.63443,1305.920898,459.881653,1306.832031,458.944C1307.513062,458.219971,1308.217529,457.518433,1308.94397,456.839996C1309.483276,456.302155,1310.10083,455.848694,1310.776001,455.496002C1311.008789,455.383972,1311.261719,455.320129,1311.52002,455.312012L1311.680054,455.335999C1311.77478,455.36972,1311.867676,455.408356,1311.952026,455.463989L1312.079956,455.559998C1312.204834,455.699707,1312.309448,455.856995,1312.375977,456.032013C1312.571533,456.569275,1312.682373,457.133087,1312.712036,457.70401C1312.740234,458.1008,1312.756714,458.49823,1312.76001,458.895996L1312.807983,462.679993L1315.624023,458.895996C1316.509033,457.684601,1317.574463,456.61554,1318.784058,455.727997C1319.189453,455.412689,1319.653931,455.181213,1320.151978,455.056C1320.237427,455.052155,1320.322632,455.046753,1320.407959,455.056L1320.504028,455.088013L1320.583984,455.152008L1320.640015,455.231995L1320.671997,455.343994L1320.680054,455.471985C1320.626587,455.845001,1320.510254,456.205994,1320.328003,456.536011C1320.213501,456.729004,1320.115723,456.931122,1320.024048,457.135986C1320.010376,457.197021,1319.995239,457.257446,1319.991943,457.320007L1320.008057,457.376007L1320.05603,457.399994C1320.107788,457.401398,1320.159302,457.393585,1320.208008,457.376007C1320.742554,457.071777,1321.22937,456.690948,1321.656006,456.247986C1322.186401,455.804657,1322.624512,455.261047,1322.94397,454.64801C1323.282227,453.917908,1323.463379,453.124603,1323.472046,452.320007C1323.504883,450.944244,1323.446289,449.567963,1323.296021,448.200012C1322.670654,442.194397,1321.856934,436.210693,1320.855957,430.256012C1320.713867,429.388275,1320.526733,428.528503,1320.296021,427.679993C1320.271973,427.623962,1320.249756,427.567291,1320.223999,427.511993C1320.19165,427.475037,1320.160645,427.436798,1320.128052,427.399994C1319.669434,427.08551,1319.168457,426.837097,1318.640015,426.664001C1316.59314,425.913971,1314.501099,425.293884,1312.375977,424.808014C1309.746094,424.219482,1307.150146,423.487579,1304.599976,422.615997C1303.425415,422.210236,1302.286011,421.709259,1301.192017,421.119995C1300.409546,420.709381,1299.699585,420.173798,1299.088013,419.536011C1298.780762,419.201599,1298.537964,418.813141,1298.368042,418.391998L1298.271973,418.096008C1298.108398,417.468842,1298.125854,416.807831,1298.328003,416.191986C1298.752686,414.706512,1299.518188,413.340759,1300.560059,412.200012C1301.530396,411.122772,1302.664795,410.205566,1303.920044,409.480011C1305.371094,408.632141,1306.914551,407.953156,1308.52002,407.455994C1310.743896,406.760925,1313.028809,406.278625,1315.343994,406.015991C1318.727173,405.634705,1322.135376,405.525085,1325.536011,405.687988C1330.485107,405.882385,1335.413086,406.441223,1340.280029,407.359985C1342.406616,407.737396,1344.50293,408.269348,1346.552002,408.951996C1347.299805,409.192444,1348.016479,409.520569,1348.687988,409.928009C1348.789917,409.999054,1348.891968,410.070282,1348.991943,410.144012C1349.073242,410.214569,1349.153076,410.286865,1349.232056,410.359985C1349.316162,410.467255,1349.405151,410.570435,1349.495972,410.671997C1349.872803,411.053528,1350.313232,411.367157,1350.800049,411.59201C1352.128906,412.236603,1353.596436,412.544312,1355.072021,412.480011L1355.33606,412.488007C1355.855957,412.490173,1356.373047,412.565399,1356.871948,412.712006L1357,412.768005C1357.108643,412.830322,1357.212158,412.900665,1357.312012,412.976013C1357.481445,413.156342,1357.587891,413.386169,1357.615967,413.631989C1357.626099,413.733124,1357.634644,413.834473,1357.640015,413.936005C1357.60144,414.608246,1357.485718,415.273895,1357.296021,415.920013C1357.092285,416.65097,1357.009399,417.410187,1357.047974,418.167999C1357.066772,418.446411,1357.137695,418.719177,1357.264038,418.967987L1357.359985,419.104004L1357.472046,419.216003L1357.592041,419.287994C1357.686035,419.327057,1357.786621,419.344788,1357.887939,419.35199L1358.05603,419.376007L1358.192017,419.432007C1358.327026,419.518219,1358.42041,419.654022,1358.463989,419.808014C1358.529175,420.13562,1358.53186,420.472931,1358.463989,420.799988C1358.263428,421.841125,1357.942627,422.855164,1357.511963,423.824005C1356.703857,425.762115,1355.95166,427.722809,1355.255981,429.70401C1354.980103,430.500092,1354.753174,431.312256,1354.57605,432.135986C1354.482056,432.558411,1354.452515,432.992706,1354.488037,433.424011L1354.52002,433.615997L1354.567993,433.783997C1354.62854,433.922729,1354.712769,434.049377,1354.81604,434.160004L1354.936035,434.256012C1355.244263,434.430634,1355.598022,434.503632,1355.952026,434.488007C1356.557983,434.453369,1357.157227,434.637756,1357.631958,435.015991C1357.788574,435.183014,1357.917358,435.373596,1358.008057,435.584015C1358.040649,435.715363,1358.061646,435.849091,1358.072021,435.984009L1358.072021,436.119995C1358.056641,436.264587,1358.022949,436.406433,1357.975952,436.544006L1357.911987,436.687988C1357.806641,436.892456,1357.680908,437.085388,1357.536011,437.264008C1357.209473,437.607727,1356.829102,437.895264,1356.416016,438.127991C1356.020386,438.374084,1355.665527,438.680206,1355.359985,439.032013C1355.218994,439.191772,1355.130005,439.389709,1355.095947,439.600006C1355.11084,439.675262,1355.129883,439.749146,1355.144043,439.824005C1355.190308,439.891266,1355.24646,439.950226,1355.303955,440.007996C1355.387573,440.056549,1355.47229,440.103241,1355.560059,440.144012L1355.728027,440.191986C1356.421509,440.311005,1357.13147,440.282135,1357.81604,440.119995C1358.740479,439.937988,1359.643555,439.66153,1360.511963,439.29599C1362.103027,438.674561,1363.643555,437.930969,1365.119995,437.071991C1366.310303,436.38269,1367.388428,435.51535,1368.312012,434.496002C1369.338501,433.30127,1370.112061,431.910797,1370.583984,430.40799C1371.11731,428.642273,1371.455688,426.823456,1371.592041,424.984009C1371.781128,422.677002,1371.871704,420.362793,1371.864014,418.048004C1371.88623,415.652771,1371.856934,413.257996,1371.776001,410.864014C1371.741455,409.547577,1371.597046,408.236359,1371.343994,406.944C1371.188721,406.090271,1370.843506,405.282074,1370.328003,404.584015C1369.990967,404.167358,1369.560547,403.836334,1369.072021,403.615997C1368.326172,403.299194,1367.5354,403.101746,1366.728027,403.032013C1365.329224,402.903809,1363.924561,402.850739,1362.52002,402.872009C1361.656006,402.800018,1360.815186,402.556,1360.047974,402.152008C1358.740723,401.502197,1357.51355,400.702362,1356.391968,399.768005C1355.299194,398.900726,1354.318726,397.900818,1353.472046,396.791992C1353.12793,396.339966,1352.858276,395.835388,1352.680054,395.29599C1352.639282,395.130463,1352.608154,394.962585,1352.608032,394.791992C1352.615356,394.740601,1352.627197,394.690186,1352.640015,394.640015C1352.697632,394.542236,1352.75354,394.443604,1352.807983,394.343994C1353.302612,393.750671,1353.866821,393.219086,1354.488037,392.76001C1356.410767,391.294769,1358.446655,389.984192,1360.57605,388.839996C1362.174927,387.912109,1363.895264,387.211243,1365.687988,386.76001C1367.485962,386.373077,1369.314209,386.142853,1371.151978,386.071991C1374.09729,385.952209,1377.044189,385.890808,1379.991943,385.888C1383.516602,385.83252,1387.042603,385.920441,1390.560059,386.152008C1392.278564,386.266937,1393.985229,386.518311,1395.66394,386.903992C1396.938599,387.207977,1398.166016,387.684448,1399.312012,388.320007C1400.352417,388.871948,1401.476563,389.248627,1402.640015,389.432007C1403.02356,389.497406,1403.417236,389.473114,1403.791992,389.368011L1404.015991,389.287994C1404.178101,389.207611,1404.322388,389.097656,1404.456055,388.976013C1404.51709,388.93985,1404.583252,388.916138,1404.647949,388.888C1404.768799,388.859985,1404.892334,388.850677,1405.015991,388.847992C1405.169189,388.85553,1405.322021,388.871185,1405.472046,388.903992C1406.265381,389.1203,1407.022217,389.45285,1407.719971,389.888C1410.162476,391.32724,1412.378906,393.119446,1414.296021,395.208008C1414.81665,395.774628,1415.265747,396.403198,1415.631958,397.079987C1415.751953,397.318909,1415.829712,397.57608,1415.871948,397.839996C1415.873047,398.16394,1415.926636,398.485687,1416.031982,398.791992C1416.083496,398.946655,1416.142212,399.098877,1416.208008,399.247986C1416.625854,400.133118,1417.236084,400.914124,1417.991943,401.536011C1418.440674,402.093353,1418.789551,402.723969,1419.024048,403.399994C1419.546265,404.868195,1419.945313,406.37735,1420.215942,407.911987C1420.836304,411.325439,1421.266235,414.770782,1421.504028,418.231995C1421.667847,420.365112,1421.780029,422.501465,1421.839966,424.640015C1421.888062,426.68219,1421.529907,428.714264,1420.784058,430.615997C1420.186768,432.163727,1419.494751,433.673279,1418.712036,435.135986C1417.018555,438.319305,1415.239014,441.456818,1413.375977,444.544006C1411.621582,447.504059,1409.843018,450.46756,1408.05603,453.40799C1407.763794,453.845032,1407.420898,454.246246,1407.031982,454.600006C1405.205566,456.296356,1403.12793,457.69986,1400.871948,458.76001C1399.025146,459.58197,1397.341919,460.73111,1395.904053,462.152008C1394.949585,463.09137,1394.183594,464.20462,1393.647949,465.432007C1393.027222,466.960449,1392.24646,468.419037,1391.319946,469.783997C1390.96875,470.304657,1390.561157,470.78537,1390.104004,471.216003C1389.506104,472.031799,1388.991577,472.905487,1388.567993,473.824005C1387.651489,475.680115,1386.842163,477.587219,1386.144043,479.536011C1385.109009,482.101074,1383.648438,484.473083,1381.823975,486.552002C1381.132813,487.317657,1380.353516,487.998901,1379.504028,488.584015C1377.923828,489.836243,1376.547485,491.325836,1375.42395,493C1374.031616,495.079681,1372.824463,497.277374,1371.81604,499.567993C1370.310669,502.991394,1368.973145,506.486328,1367.807983,510.040009C1366.254395,514.737793,1364.795288,519.467346,1363.432007,524.223999C1362.562134,526.871094,1361.590698,529.483582,1360.52002,532.05603C1358.846436,536.190063,1357.06958,540.282593,1355.192017,544.328003C1353.663208,547.66272,1352.222778,551.03717,1350.871948,554.447998C1350.506714,555.347168,1350.191406,556.26593,1349.927979,557.200012C1349.898193,557.296631,1349.878418,557.395874,1349.864014,557.495972C1349.848022,557.595886,1349.850098,557.698486,1349.887939,557.791992C1349.993042,557.971558,1350.126099,558.13269,1350.287964,558.263977C1350.37854,558.326233,1350.46875,558.386902,1350.560059,558.447998C1351.022095,558.704529,1351.510986,558.908386,1352.015991,559.064026C1353.503052,558.641785,1354.916138,557.993042,1356.208008,557.143982C1358.32373,555.757446,1360.28894,554.154236,1362.072021,552.359985C1364.022705,550.411743,1365.868042,548.361023,1367.599976,546.216003C1367.923462,545.804382,1368.279663,545.419556,1368.66394,545.064026C1369.151367,544.554016,1369.575195,543.986938,1369.927979,543.375977C1370.655029,542.153931,1371.298706,540.884216,1371.855957,539.575989C1372.6604,537.743958,1373.527588,535.94043,1374.456055,534.16803C1374.644653,533.822266,1374.891602,533.512451,1375.176025,533.23999L1375.296021,533.16803C1375.380127,533.12384,1375.470215,533.094727,1375.560059,533.064026C1375.858887,533.022095,1376.162354,533.034302,1376.456055,533.104004L1376.631958,533.176025L1376.800049,533.280029C1376.89624,533.359192,1376.985107,533.446655,1377.072021,533.536011C1377.377197,534.034729,1377.618408,534.569702,1377.791992,535.127991C1378.161133,536.295593,1378.620972,537.432434,1379.167969,538.528015C1379.635254,539.579895,1380.170044,540.600464,1380.767944,541.583984C1380.90271,541.775574,1381.087402,541.925293,1381.296021,542.031982L1381.42395,542.064026L1381.560059,542.064026C1382.192871,541.892944,1382.782959,541.592041,1383.296021,541.184021C1385.017456,539.866333,1386.496216,538.258545,1387.66394,536.432007C1387.858398,536.105469,1388.050537,535.777466,1388.23999,535.447998C1388.5625,534.942688,1388.974976,534.501526,1389.456055,534.143982C1389.81897,533.891724,1390.254272,533.768921,1390.696045,533.776001L1390.959961,533.791992C1391.321289,533.872253,1391.677246,533.974792,1392.024048,534.104004C1392.973511,534.284607,1393.945068,534.311829,1394.904053,534.192017C1395.289673,534.126465,1395.681396,534.10083,1396.072021,534.119995C1396.253174,534.132996,1396.431641,534.171448,1396.599976,534.23999L1396.735962,534.304016C1396.913696,534.44873,1397.065552,534.62323,1397.176025,534.823975C1397.599121,535.666077,1398.036499,536.500793,1398.488037,537.328003C1398.737183,537.782349,1399.060059,538.192627,1399.447998,538.536011C1399.55188,538.597168,1399.65918,538.6521,1399.767944,538.703979L1399.94397,538.76001C1400.067383,538.790466,1400.193481,538.804993,1400.319946,538.815979C1400.421509,538.815857,1400.523071,538.811523,1400.624023,538.799988C1400.852661,538.731628,1401.072266,538.63739,1401.280029,538.52002C1401.680786,538.214783,1402.03125,537.847595,1402.303955,537.424011C1403.127441,536.430603,1404.201904,535.676758,1405.416016,535.23999C1405.660522,535.165588,1405.912842,535.120056,1406.167969,535.104004C1406.651611,535.138,1407.124756,535.259399,1407.567993,535.455994C1409.317627,536.139526,1410.925659,537.140503,1412.312012,538.40802C1413.986572,540.46936,1415.79895,542.4151,1417.735962,544.231995C1418.156006,544.617798,1418.611328,544.963135,1419.095947,545.263977L1419.264038,545.343994C1419.380249,545.365967,1419.498169,545.370422,1419.615967,545.367981L1419.776001,545.320007C1419.997925,545.247192,1420.203735,545.132507,1420.384033,544.984009C1420.818726,544.669189,1421.191284,544.276428,1421.47998,543.823975C1421.762329,543.429382,1422.121704,543.095032,1422.543945,542.856018C1422.65979,542.808228,1422.780518,542.773499,1422.904053,542.752014L1423.104004,542.728027C1423.633057,542.759277,1424.154785,542.869934,1424.647949,543.064026C1425.592285,543.401367,1426.624146,543.40271,1427.567993,543.064026L1427.880005,542.927979L1428.167969,542.752014C1428.349731,542.634155,1428.511963,542.490173,1428.66394,542.335999C1429.363159,541.421021,1430.102661,540.537537,1430.880005,539.687988C1431.389404,539.130249,1431.937012,538.608398,1432.52002,538.127991C1433.338989,537.443176,1434.258057,536.887512,1435.248047,536.487976C1436.111938,536.170349,1437.040283,536.066101,1437.952026,536.192017C1439.090942,536.380737,1440.087646,537.06189,1440.687988,538.047974C1441.057861,538.659058,1441.361572,539.307922,1441.592041,539.984009C1441.79834,540.61499,1442.155273,541.185974,1442.631958,541.64801L1442.823975,541.799988C1443.260132,542.080566,1443.769531,542.222534,1444.287964,542.216003C1444.822998,542.227234,1445.358276,542.196594,1445.887939,542.119995C1446.49707,542.039612,1447.117188,542.098206,1447.696045,542.304016C1447.777466,542.346802,1447.851563,542.402527,1447.911987,542.471985C1448.097656,542.824951,1448.2229,543.206482,1448.287964,543.599976C1448.596436,545.15448,1448.791382,546.729309,1448.871948,548.312012C1448.923462,548.936157,1449.039673,549.553467,1449.223999,550.151978C1449.260498,550.258972,1449.319092,550.355713,1449.384033,550.447998C1449.44043,550.503845,1449.498901,550.557373,1449.560059,550.607971L1449.671997,550.679993L1449.81604,550.728027C1450.00293,550.766846,1450.193237,550.784973,1450.384033,550.783997L1450.671997,550.76001L1450.959961,550.711975C1451.143066,550.66687,1451.314209,550.580017,1451.456055,550.455994C1451.8302,550.113525,1452.145996,549.711853,1452.384033,549.263977C1452.897339,548.321167,1453.388062,547.366211,1453.855957,546.400024C1454.564087,545.026489,1455.463623,543.760376,1456.527954,542.640015C1457.196777,541.983704,1457.99939,541.480164,1458.880005,541.159973L1459.23999,541.072021C1459.850708,540.949829,1460.479858,540.961609,1461.088013,541.096008C1461.201904,541.147156,1461.309082,541.211731,1461.407959,541.288025C1461.473022,541.34845,1461.531494,541.4151,1461.592041,541.47998C1461.664429,541.595398,1461.72583,541.716919,1461.784058,541.840027C1461.852905,542.026123,1461.914429,542.214844,1461.959961,542.40802C1462.090698,543.239746,1462.100952,544.086182,1461.984009,544.919983C1461.783325,546.432495,1461.46814,547.927551,1461.040039,549.392029C1460.9021,549.98175,1460.840576,550.586792,1460.864014,551.192017C1460.883545,551.281189,1460.904785,551.370056,1460.936035,551.455994C1460.972046,551.51947,1461.012085,551.580627,1461.063965,551.632019L1461.151978,551.679993L1461.23999,551.695984C1461.317871,551.693726,1461.395752,551.689697,1461.472046,551.671997L1461.608032,551.624023C1462.051147,551.370667,1462.459717,551.061462,1462.823975,550.703979C1463.514038,549.996338,1464.170898,549.256897,1464.791992,548.487976C1465.597046,547.513733,1466.509033,546.633057,1467.511963,545.864014L1467.728027,545.736023C1467.835815,545.676514,1467.952271,545.635986,1468.072021,545.607971L1468.296021,545.624023C1468.942871,545.743286,1469.535034,546.062988,1469.991943,546.536011C1470.939453,547.383789,1471.49353,548.585022,1471.527954,549.856018C1471.422852,551.153748,1471.186279,552.437439,1470.823975,553.687988C1470.532837,554.744812,1470.220825,555.795593,1469.887939,556.840027C1469.672607,557.606506,1469.529541,558.391296,1469.456055,559.184021C1469.469849,559.251404,1469.487915,559.316772,1469.495972,559.383972L1469.536011,559.424011L1469.687988,559.487976C1469.791992,559.52655,1469.899292,559.554871,1470.008057,559.575989L1470.176025,559.59198C1470.784546,559.563843,1471.361084,559.310547,1471.791992,558.880005C1472.228882,558.519531,1472.594482,558.081116,1472.880005,557.59198C1473.357544,556.625854,1474.009888,555.756897,1474.800049,555.023987L1475.008057,554.856018C1475.431763,554.516785,1475.919189,554.265381,1476.439941,554.112C1476.83606,554.007141,1477.253906,554.015259,1477.647949,554.127991C1477.778198,554.162048,1477.903687,554.211731,1478.024048,554.271973L1478.18396,554.359985C1478.343872,554.439636,1478.489014,554.546997,1478.608032,554.679993L1478.719971,554.799988C1478.762695,554.873169,1478.802612,554.947937,1478.839966,555.023987C1478.883057,555.180664,1478.90332,555.34198,1478.911987,555.504028C1478.910645,555.8526,1478.868774,556.19989,1478.776001,556.536011C1478.57959,557.216919,1478.356079,557.889648,1478.104004,558.552002C1477.682251,559.832214,1477.543457,561.188782,1477.696045,562.528015C1477.768921,563.066101,1477.946411,563.584656,1478.215942,564.05603C1478.380249,564.284241,1478.57666,564.487854,1478.807983,564.64801L1478.968018,564.711975L1479.135986,564.752014C1479.282837,564.747498,1479.428955,564.728394,1479.567993,564.679993C1479.83374,564.575684,1480.082397,564.433533,1480.312012,564.263977C1480.930176,563.839172,1481.514038,563.366455,1482.05603,562.848022C1482.689331,562.296997,1483.369751,561.802612,1484.088013,561.367981C1484.622559,561.046021,1485.21582,560.834656,1485.832031,560.736023C1486.383911,560.673035,1486.943237,560.734619,1487.463989,560.927979C1488.007324,561.089783,1488.508423,561.370728,1488.927979,561.752014C1489.081665,561.925415,1489.222168,562.110168,1489.33606,562.312012C1489.437622,562.513916,1489.516968,562.725891,1489.57605,562.94397C1489.800781,563.893127,1489.948364,564.858948,1490.015991,565.83197C1490.077515,566.481018,1490.194092,567.123657,1490.368042,567.752014C1490.424805,567.89917,1490.491699,568.041931,1490.560059,568.184021C1490.64917,568.317078,1490.744385,568.445923,1490.848022,568.567993L1491.024048,568.744019C1491.213135,568.923035,1491.428589,569.072449,1491.66394,569.184021C1492.208374,569.499695,1492.757568,569.806274,1493.312012,570.104004C1494.009277,570.477051,1494.641357,570.961365,1495.176025,571.544006C1495.210449,571.606934,1495.24646,571.668701,1495.271973,571.736023C1495.391602,572.268677,1495.581055,572.783386,1495.839966,573.263977C1496.652588,574.990112,1497.53064,576.68457,1498.472046,578.343994C1499.00708,579.360107,1499.493164,580.401184,1499.927979,581.463989C1500.320923,582.493591,1500.481812,583.596985,1500.400024,584.695984C1500.30896,585.61853,1500.094116,586.524292,1499.767944,587.392029C1499.103027,589.128418,1498.366455,590.836609,1497.560059,592.512024C1496.829712,594.141113,1496.018066,595.732422,1495.128052,597.280029C1495.041016,597.402466,1494.957886,597.527588,1494.880005,597.656006C1494.809937,597.742981,1494.738159,597.828491,1494.66394,597.911987L1494.631958,597.935974L1494.439941,598.007996L1494.23999,598.05603L1493.984009,598.064026C1493.787109,598.062866,1493.591553,598.037415,1493.400024,597.992004C1492.657104,597.830383,1491.944336,597.551758,1491.287964,597.16803C1490.358154,596.655701,1489.47229,596.067078,1488.640015,595.40802C1486.630737,594.030884,1484.535889,592.78302,1482.368042,591.671997C1480.584595,590.721008,1478.752808,589.864014,1476.880005,589.104004C1474.30603,588.158081,1471.698853,587.304199,1469.063965,586.544006C1464.60498,585.199463,1460.104248,583.998901,1455.567993,582.94397C1454.49646,582.712097,1453.418579,582.509521,1452.33606,582.335999C1450.041016,581.897705,1447.744385,581.441162,1445.456055,580.968018C1442.4021,580.463867,1439.334351,580.050415,1436.255981,579.728027C1429.233398,578.896362,1422.1875,578.269409,1415.128052,577.848022C1411.055298,577.651672,1406.974854,577.670349,1402.904053,577.903992C1398.688721,578.11438,1394.479858,578.429199,1390.280029,578.848022C1384.280151,579.437622,1378.284302,580.115356,1372.303955,580.880005C1371.661621,580.952393,1371.019409,581.019165,1370.375977,581.080017z"/>
</svg>
