<?xml version="1.0" encoding="UTF-8"?>
<svg xmlns="http://www.w3.org/2000/svg" width="213.012mm" height="212.409mm" viewBox="-632.000732 -532.360718 213.011932 212.409454">
    <path transform="matrix(-1,0,0,-1,0,0)" style="stroke:none;fill:#000000;fill-rule:evenodd" d="M461.56488,319.969055L465.750549,320.031403C464.23761,324.07901,463.937805,328.479797,464.88678,332.695435C465.781921,336.926086,467.843201,340.821899,470.835754,343.943451C471.697449,344.820709,472.633484,345.621674,473.632263,346.339111C474.598206,344.844177,475.568909,343.333038,476.52655,341.832764C475.826233,342.151337,475.005798,342.025543,474.424866,341.521057C473.420593,340.734741,472.954651,339.446198,473.222595,338.199219C473.358093,337.767181,473.642883,337.396027,474.03302,337.166138C472.093689,331.74292,470.206238,326.497986,468.244202,321.082275C468.829407,320.340881,469.752136,319.952789,470.693298,320.031403C471.952209,320.087891,473.122986,320.697357,473.890442,321.696777C474.348328,322.264343,474.724182,322.893494,475.003723,323.567017C475.368713,324.484375,475.663391,325.428131,475.885437,326.390137C477.006653,330.585815,478.156311,334.760406,479.340881,338.938385C485.028748,338.434296,490.587708,340.819183,494.142273,345.288208C494.621033,343.297272,495.666809,341.487671,497.152405,340.078339C499.30658,338.046844,501.99884,336.677551,504.909363,336.133057C507.404724,335.635223,509.979065,335.686707,512.452576,336.284454C514.882019,336.858276,517.232605,337.725494,519.452454,338.867157C522.436218,340.423248,525.318298,342.16626,528.082214,344.085938C532.940491,347.281982,537.80658,350.505341,542.643127,353.730896C534.948914,344.541931,525.622253,336.854675,515.13324,331.056763C520.851501,331.355377,526.446228,332.835236,531.564392,335.402802C538.198425,338.669128,543.872131,343.600281,548.031189,349.714386L545.858093,336.605072C547.815491,336.682281,549.671082,335.736206,550.765198,334.11145C543.533264,334.664551,536.33551,332.673431,530.415466,328.483002C536.88678,327.530945,543.49469,328.542297,549.384827,331.386292C556.180969,334.524811,561.747742,339.822784,565.219299,346.454865C566.017883,348.03717,566.687927,349.681122,567.223083,351.37088C567.724792,352.987335,568.322693,354.572418,569.013245,356.117645C569.367249,356.877167,569.771545,357.612213,570.224426,358.317383C570.884949,354.934296,570.716858,351.442108,569.734558,348.138062C568.29364,343.329529,565.718933,338.937836,562.22699,335.331543C559.823914,332.813354,557.184631,330.532166,554.345398,328.518616C551.069397,326.222565,547.700134,324.062531,544.246155,322.044098C558.353088,325.058929,569.887146,335.164551,574.730652,348.752563C574.233337,345.67572,574.508362,342.523376,575.532166,339.57962C573.431335,337.950928,571.313904,336.3414,569.182434,334.752655C571.494324,333.800293,574.112,332.724945,576.422791,331.778137L583.743347,358.477692C585.208191,358.323303,586.385437,357.206757,586.619934,355.752502C586.715393,355.297272,586.69635,354.824982,586.557556,354.381012C584.486023,348.610046,582.440491,342.800903,580.43927,337.005829C589.507385,346.138947,595.036926,358.195038,596.042297,371.02594C597.89801,365.05484,597.17157,358.581024,594.038391,353.16983C594.916443,354.104401,595.774597,355.057648,596.612244,356.028595C596.951843,356.411163,597.32782,356.759827,597.734314,357.070557C598.651306,357.77832,599.900208,357.873657,600.922668,357.328827C601.836731,356.905853,602.641418,356.278351,603.273743,355.494232C603.943665,354.595795,604.704773,353.769165,605.544739,353.027344C605.956726,352.689453,606.414856,352.411621,606.907288,352.208008C604.509949,356.729095,603.132751,361.720551,602.872986,366.831299C602.693787,370.126801,602.804016,373.43161,603.202454,376.707825C603.548157,379.624451,604.020447,382.524384,604.618469,385.399872C605.93988,391.295227,607.328674,397.170319,608.786438,403.033325L610.07782,408.88443C610.877258,412.686188,611.430603,416.535553,611.734192,420.408508C612.124939,425.027069,611.773254,429.678528,610.692322,434.18576C610.008728,436.900848,608.979309,439.516907,607.628723,441.969421C608.122009,439.304291,608.588684,436.755371,609.071472,434.087799C606.327576,436.710968,604.911804,440.429871,605.215149,444.213684C605.300842,443.597443,605.840515,443.15097,606.461975,443.180603C607.255798,443.104004,608.031799,443.461517,608.47467,444.124634L608.590515,444.382904C608.785583,445.343628,608.592712,446.341064,608.056091,447.161499C607.532654,448.020294,606.910217,448.814575,606.203796,449.530426C605.826111,449.989746,605.508484,450.495392,605.259705,451.035522C605.02179,451.572327,604.921448,452.160645,604.974792,452.745422C604.273743,451.500183,603.6026,450.237854,602.962097,448.96048C601.84552,452.432343,600.696594,456.019958,599.586731,459.496033C600.56012,458.825378,601.786926,458.634827,602.917542,458.979492C604.159729,459.34491,605.314392,459.960205,606.310608,460.787354C607.00946,461.325439,607.664246,461.918335,608.269836,462.559631L594.519348,484.913147C593.206726,487.133728,591.742615,489.26123,590.137756,491.280762C588.604187,493.270874,586.739319,494.981995,584.625061,496.339233C583.218445,497.205566,581.663269,497.80365,580.038513,498.1026C582.779846,499.188782,585.826233,499.224365,588.588074,498.19165C592.348816,496.916748,595.374084,494.078857,596.888245,490.40802C597.244568,489.496521,597.473328,488.540466,597.574036,487.567078C603.919128,486.690918,609.729309,485.882751,616.07135,484.993286C615.238342,487.220032,614.585754,489.510193,614.121033,491.841858C613.651672,494.137268,613.767395,496.514282,614.459412,498.752747C615.618591,501.859314,618.458923,504.020691,621.762146,504.309937C623.167542,504.406494,624.549988,503.906555,625.56488,502.929504C626.332336,502.261902,627.383972,502.024719,628.361389,502.306152C630.343567,502.79895,631.794006,504.493896,631.986023,506.527466C632.066956,507.77002,631.813293,509.012024,631.255676,510.125427C630.397522,511.803467,629.292542,513.342957,627.978455,514.694092C624.968811,517.950012,621.475403,520.722839,617.620911,522.914124C612.657288,525.719177,607.302185,527.766357,601.733093,528.987854C595.368225,530.336731,588.867126,530.934631,582.362976,530.769043C576.671936,530.638,570.99115,530.212952,565.344055,529.495483C560.12384,528.819885,554.885315,528.162537,549.66095,527.527344C535.608704,525.950623,521.447571,525.578125,507.331726,526.414063C515.951721,522.446472,525.353699,520.468384,534.841736,520.625305L556.233337,521.106262C554.820007,521.506714,553.629333,522.463745,552.938293,523.760193C553.643005,524.624268,554.744812,525.063538,555.850403,524.917908C557.700623,524.624084,559.416809,523.77655,560.77533,522.486633L561.220642,522.076965C566.232117,517.06366,570.195007,511.1026,572.878357,504.541504C569.549988,505.878479,566.714294,508.206726,564.756165,511.211914C562.004456,511.61554,559.207947,510.863831,557.034851,509.127991C558.951233,508.334595,560.979187,507.845032,563.046326,507.676331C562.182556,506.863647,562.022522,505.553833,562.65448,504.550415L562.912781,504.301025C563.492126,503.863647,564.15741,503.554382,564.863098,503.383728C565.822449,503.19397,566.761292,502.911804,567.668396,502.54657C569.091858,501.908752,570.129578,500.634155,570.455872,499.108948C570.768738,497.778809,570.908508,496.41394,570.874451,495.047913C572.697937,495.879456,574.797546,495.851013,576.600891,494.976685C578.957581,493.924438,580.777039,491.946533,581.623718,489.508484C582.288635,487.602722,582.557434,485.581848,582.416443,483.568359C582.333313,482.044373,582.133362,480.528992,581.819763,479.035339L580.840027,479.845764C578.135193,479.915161,575.780701,478.009521,575.291809,475.348328C573.792053,475.332642,572.292419,475.359314,570.794373,475.428467C573.20697,480.453613,571.691223,486.481995,567.187439,489.766785C564.140442,491.91449,560.260315,492.502197,556.714294,491.35199C558.221863,492.171814,559.49762,493.359863,560.419128,494.807434C560.304016,494.979858,560.171936,495.140076,560.027283,495.288391C559.41803,495.852539,558.586365,496.114502,557.765198,495.991943C557.363831,495.933838,556.977844,495.800293,556.625183,495.600098C556.457092,495.48291,556.299988,495.351074,556.153259,495.208191C555.019226,496.009155,554.434265,497.377197,554.621399,498.752747C551.307678,497.333435,547.725037,496.649475,544.121521,496.748901C546.086121,495.696594,547.498108,493.845032,547.995544,491.672607C548.425232,489.95459,548.409973,488.155396,547.950989,486.444946C545.395569,488.695923,543.766663,491.815674,543.382385,495.199341C542.730408,499.847473,544.047302,504.55719,547.01593,508.192871C548.199768,509.601318,549.668152,510.743958,551.326355,511.541443C550.215637,512.25946,549.090515,512.954102,547.950989,513.625366C545.028137,512.630066,542.619202,510.51709,541.253845,507.747559C540.158264,505.648987,539.743347,503.261597,540.069397,500.916809C539.314514,502.177124,537.90802,502.899841,536.444763,502.769226L536.685242,508.041443L536.925598,513.304749C536.927917,513.553772,536.839172,513.791199,536.702942,513.999451C536.567444,514.1427,536.404236,514.257751,536.213196,514.311157C535.556091,514.358459,534.909363,514.151855,534.387512,513.750061C533.413269,513.151367,532.732117,512.173035,532.508362,511.051636C532.107849,507.733765,532.532288,504.368835,533.746277,501.255249C535.171326,497.625,537.204041,494.263916,539.757629,491.316406L540.710632,490.220947C537.632507,489.997986,534.872009,492.100891,534.271667,495.128052C532.990295,490.983276,529.277893,488.067871,524.947327,487.807495C528.650208,487.380066,532.329651,486.770813,535.972717,485.981812C539.599792,485.202515,543.092468,483.894104,546.33905,482.098877C550.413147,479.726624,553.635681,476.13092,555.547668,471.821594C556.649719,469.28772,557.025818,466.497192,556.634094,463.761902C555.410583,464.370239,554.17865,464.96106,552.938293,465.534119C552.816711,461.951294,554.138,458.470154,556.607483,455.871368C558.464294,453.82135,560.925354,452.41452,563.634094,451.854858C561.269348,453.34491,559.279602,455.358734,557.818665,457.741577C557.194885,458.770142,556.847107,459.941528,556.803406,461.143616C556.805969,462.298401,557.300232,463.398193,558.165955,464.162659C561.965271,457.385132,569.309265,453.384064,577.064026,453.867554C577.851501,453.815826,578.515198,453.255768,578.693787,452.487152C578.968079,451.363159,579.07074,450.204163,578.996521,449.04953C578.935364,447.746521,578.994934,446.440765,579.174744,445.148804C579.27594,444.161926,579.750916,443.250214,580.501648,442.601746L580.840027,442.370178C582.362,442.037231,583.935364,442.63678,584.856628,443.893066C585.162659,444.302277,585.382751,444.768799,585.506653,445.264557C579.888977,450.520386,577.421082,458.324707,578.996521,465.854736C581.306824,460.793152,584.155212,455.994934,587.492737,451.543152L587.385803,451.650024C587.264587,451.731781,587.136414,451.803101,586.993958,451.837036L586.548645,451.86377C585.701843,451.762787,584.999329,451.157532,584.785339,450.33197C584.724792,449.676788,584.855896,449.018799,585.159363,448.435028C585.466614,447.809998,585.854309,447.227783,586.317078,446.707306C587.783264,444.746887,589.403381,442.906555,591.161926,441.203522C592.885315,439.509888,595.007874,438.278931,597.333557,437.623413C592.969666,450.374207,586.648132,462.368469,578.595764,473.175293C580.217224,473.781372,582.017639,473.683533,583.565247,472.908142C585.204407,472.045227,586.635681,470.835876,587.759827,469.363647C589.226501,467.501709,590.445007,465.457031,591.38446,463.280945C595.235413,454.562286,599.032043,445.881073,602.819519,437.133575C604.336487,433.640167,605.56073,430.026825,606.479797,426.330872C607.409241,422.613159,607.695496,418.76355,607.325867,414.94928C606.979187,411.132782,605.727234,407.453827,603.6745,404.217804C602.644958,402.642242,601.374207,401.238159,599.90741,400.058807C600.186829,401.898132,599.894836,403.779144,599.070251,405.446808C597.622986,408.500488,594.809387,410.684082,591.491394,411.324615C590.764221,411.441345,590.025574,411.467285,589.291687,411.404785C592.389343,409.051819,594.531921,405.65799,595.320862,401.848846C596.357117,397.502411,595.637634,392.923187,593.317078,389.104675C593.021545,388.63681,592.697815,388.187347,592.346375,387.759918C592.634216,390.228241,590.86969,392.461395,588.401062,392.747162C589.57489,387.08844,588.192932,381.200684,584.625061,376.654388C582.746033,386.719208,576.296082,395.337372,567.169739,399.978638C572.636536,394.867065,576.537415,388.307068,578.417664,381.062744C580.653992,372.865204,580.236023,364.170044,577.224304,356.224518C575.897644,361.694611,576.46637,367.452301,578.836243,372.557739C577.224548,372.792694,575.619446,373.032593,574.009338,373.279114C573.363464,368.564606,572.062683,363.963409,570.144226,359.608704C570.257507,361.432373,570.171204,363.263184,569.885925,365.067963C569.675964,366.317078,569.235046,367.516022,568.585754,368.603577C567.515442,370.341187,565.706604,371.492676,563.67865,371.720581C562.972473,371.770721,562.265198,371.640991,561.621399,371.346558C560.259827,366.678009,560.400085,361.699677,562.022156,357.115112L563.42926,362.538727L564.836365,367.971252C565.921326,366.914001,566.541443,365.469482,566.564148,363.954742C566.599915,362.328766,566.3349,360.710144,565.780334,359.181244C564.791687,356.63974,563.671082,354.151764,562.422913,351.727112C561.098816,348.688263,559.251038,345.906128,556.963684,343.50705C555.901794,342.431366,554.632141,341.583282,553.232117,341.013428C551.852234,340.484955,550.341003,340.403107,548.912781,340.781891C552.061218,342.784637,554.556335,345.663086,556.090881,349.06427C557.903992,352.923492,558.431702,357.262115,557.596008,361.443298C557.387634,362.258301,557.173889,363.07135,556.954773,363.883484C556.544128,366.030762,556.56781,368.23819,557.02594,370.375824C557.593201,372.932953,558.309875,375.454681,559.172302,377.927917C559.7901,379.737976,560.281067,381.58902,560.641785,383.467316C561.077332,385.484619,561.040588,387.575775,560.534851,389.576691C560.285461,390.435791,559.920227,391.256958,559.448425,392.016876C556.68866,388.057648,554.972717,383.465973,554.461121,378.667114C552.088074,378.128265,549.59845,378.564362,547.550232,379.878296C548.017639,376.185608,546.770813,372.482422,544.166077,369.823669C543.185974,378.315033,544.992615,386.894806,549.313538,394.27005C548.799744,395.219574,548.265198,396.157959,547.71051,397.084259C549.566956,398.40155,551.841736,398.993011,554.104919,398.749634C557.27301,398.447174,560.225403,397.008057,562.414001,394.69751C564.18927,392.857117,565.743225,390.815857,567.044983,388.614868C567.639587,387.641388,568.218323,386.658997,568.781677,385.667053C568.319763,393.81604,563.081482,400.917053,555.431824,403.763611C563.336731,403.558136,571.182068,405.182861,578.355408,408.510376C572.827332,409.248047,567.211243,408.97348,561.781677,407.699951C565.436707,411.873138,570.221619,414.897797,575.558899,416.409821C583.342957,418.731354,591.71637,418.021973,598.998962,414.423828C601.235291,413.280304,603.30072,411.829315,605.135071,410.113434C604.274719,413.786865,602.637756,417.233063,600.334778,420.221497C599.107361,421.802338,597.563416,423.109985,595.801819,424.059906C594.067444,424.988647,592.111023,425.422516,590.146667,425.315613C588.507996,425.184113,586.871765,425.020782,585.239563,424.825775C584.042175,424.685486,582.829651,424.743713,581.650452,424.994995C579.434631,425.605774,577.835632,427.531525,577.642883,429.82193C577.605652,430.755096,578.055725,431.642426,578.836243,432.155243C582.885193,428.442688,588.964661,428.039246,593.468445,431.184509C598.197327,430.664856,601.988586,427.041565,602.721619,422.341064C603.914001,422.911346,604.686096,424.101013,604.716492,425.422485C604.841736,426.782104,604.402405,428.133545,603.50531,429.162903C602.949524,429.827332,602.290955,430.398102,601.554871,430.855011C600.536438,431.472809,599.473816,432.014435,598.375549,432.475861C590.641174,435.867371,582.73407,438.848846,574.686218,441.408356C573.600647,441.768616,572.46344,441.948914,571.319763,441.942719C569.630798,441.882172,568.016052,441.230255,566.760071,440.099213C565.643005,439.082977,564.671814,437.917358,563.874573,436.634857C563.0047,435.275909,562.145569,433.916168,561.291809,432.547119C560.452698,431.205078,559.45697,429.967651,558.326233,428.860107C556.594788,427.267273,554.396423,426.274536,552.05658,426.028076C548.931458,425.648956,545.780579,426.487671,543.257629,428.3703C542.644714,428.844482,542.086243,429.385193,541.592224,429.982239C539.343201,431.330811,538.596985,434.230713,539.909119,436.501282C542.084412,434.316437,544.077942,432.32016,546.25885,430.142548C546.924866,431.366089,547.930115,432.3703,549.153259,433.036926C545.90387,439.258881,540.748474,444.277374,534.440979,447.357422C540.210388,452.243988,541.383728,460.683899,537.166077,466.959045C534.994202,470.122986,531.680969,472.322693,527.921936,473.095154C529.142639,473.191345,530.228943,473.903809,530.807312,474.983154C531.832947,476.726318,531.85675,478.882019,530.86969,480.647278C529.964417,482.180176,528.74823,483.505737,527.298523,484.539063C526.253479,485.34552,525.148987,486.072083,523.994446,486.712097C523.208801,487.14856,522.266052,487.2052,521.438538,486.854614C520.526428,486.341431,519.884583,485.45752,519.67511,484.43219C519.39386,483.326172,519.38092,482.168457,519.639465,481.056946C520.015808,479.839294,520.36322,478.612976,520.681458,477.378845C520.956604,476.352173,520.955505,475.270935,520.681458,474.244019L520.521179,473.816528C517.36322,474.660278,514.028748,474.570374,510.920715,473.558228C507.33551,472.442749,504.201843,470.208069,501.979309,467.181702C499.854431,464.077515,498.846985,460.344543,499.120544,456.592712C499.322815,452.837616,500.738464,449.250336,503.154846,446.368896L504.11676,445.344727C500.931213,442.73587,496.967102,441.263153,492.850891,441.158997C490.931091,437.365387,491.715027,432.765045,494.783508,429.82193C495.834167,434.036285,498.489563,437.673157,502.184143,439.956726C503.57074,434.555084,500.990662,428.924408,495.99469,426.446655C494.628479,425.922028,493.093567,426.07428,491.862366,426.865204C490.284973,427.900818,488.976013,429.295685,488.041809,430.93515C487.338074,432.107941,486.741394,433.341766,486.260681,434.622162C485.628357,436.157715,484.801941,437.606171,483.802673,438.932556C483.065979,439.951447,482.081482,440.765961,480.943909,441.301483C480.261902,441.598053,479.523376,441.739777,478.779724,441.728973C470.495422,441.419891,463.10907,436.430328,459.730286,428.860107C459.208313,427.687225,458.524963,426.592957,457.699768,425.609497C457.084534,424.845581,456.203796,424.341675,455.232849,424.202393L454.734192,424.193481C455.257751,426.626495,456.030579,428.999054,457.04071,431.27359C458.788025,435.073303,460.784241,438.753418,463.016541,442.290039C465.10553,445.958984,467.554871,449.410706,470.328186,452.594025C471.894958,454.396759,473.67804,455.999817,475.636047,457.367554C477.952209,459.0625,480.667419,460.129761,483.517639,460.466736C484.807312,460.590515,486.107849,460.536804,487.382751,460.306458C493.648865,470.638428,500.693054,480.478088,508.453796,489.740051C513.983459,488.155884,519.937439,489.453674,524.306091,493.195496C525.582214,493.747375,526.639954,494.705994,527.316345,495.920654C528.87677,498.715576,528.739685,502.147888,526.960022,504.808655C526.358337,505.653198,525.555847,506.334351,524.62677,506.794617C525.446716,503.757935,525.249451,500.53595,524.065735,497.621704C520.385803,495.88562,517.035828,494.299805,513.360901,492.554321C515.708801,496.937927,516.421692,502.013672,515.373596,506.874817C516.469177,506.650696,517.604065,506.711243,518.668762,507.052917C519.424988,507.269775,520.003845,507.876526,520.200623,508.638123C519.468689,511.289673,517.685486,513.526672,515.266785,514.836548C511.599304,516.91156,507.185974,517.200073,503.279602,515.6203C501.520935,514.869995,500.022888,513.617859,498.969177,512.022339C503.249817,513.424377,507.905945,511.472168,509.905457,507.435852C511.706726,503.306702,510.158508,498.487,506.289734,496.178955C506.843567,497.733643,507.404846,499.287476,507.972961,500.83667C507.073547,501.663452,505.879944,502.093445,504.659973,502.030029C502.987122,501.935791,501.350891,501.502991,499.850891,500.756531C488.487854,495.549561,478.756409,487.348206,471.699646,477.031494C472.541565,479.488831,473.376404,481.966553,474.193298,484.43219C472.138733,483.750427,470.194031,482.772888,468.422302,481.528931L467.683167,480.976746C470.935486,489.347595,474.805359,497.465393,479.260681,505.262878C480.136902,502.365906,479.366272,499.222229,477.247986,497.060608C482.364319,496.854065,487.349792,498.708252,491.087585,502.208191L491.247864,506.874817C490.060242,507.666016,488.464661,507.377258,487.62323,506.22467C486.829163,507.070374,486.538147,508.270935,486.857361,509.38623C487.204895,510.699768,487.757629,511.950439,488.496033,513.091064C489.243591,514.303162,489.941956,515.544922,490.588806,516.81366C491.057678,517.662354,491.283386,518.623718,491.238953,519.592285C491.136292,520.333374,490.687683,520.978027,490.036682,521.34668C490.960876,523.659241,492.664612,525.57605,494.854675,526.761414C497.325134,528.184814,500.239075,528.631104,503.021301,528.00824L504.03656,527.705444C503.304504,529.28595,502.031189,530.551514,500.447571,531.276672C498.328796,532.257263,495.966125,532.58429,493.661316,532.211731C491.689514,531.83136,489.776184,531.193604,487.97052,530.314819C485.45575,529.033813,482.882019,527.871887,480.258118,526.832642C476.63031,525.513245,472.889099,524.529236,469.08136,523.893738C464.454163,523.133728,459.810852,522.483521,455.152771,521.943359C451.260437,521.484314,447.402161,520.773438,443.601868,519.81488C439.356873,518.676758,435.29425,516.943604,431.534607,514.667358C428.219543,512.690979,425.311951,510.100586,422.967224,507.035095C420.919617,504.317322,419.565857,501.141052,419.021912,497.781982C418.859802,496.700928,419.294983,495.615906,420.161926,494.949951C421.714539,493.691101,423.809998,493.333618,425.692322,494.00592C427.120056,494.582458,428.430115,495.415405,429.557434,496.463928C430.707581,497.531799,431.914612,498.536621,433.173279,499.47406C434.818176,500.62677,436.839539,501.108643,438.82843,500.827759C439.941589,500.655701,440.928406,500.016174,441.544617,499.073303C444.071838,494.941895,445.220154,490.113892,444.82196,485.28717C444.424988,479.220154,441.858215,473.498291,437.590515,469.167725C436.161072,467.760803,434.538757,466.564331,432.772522,465.614319C434.061829,465.037781,435.543884,465.080444,436.797913,465.730042C438.200989,466.457336,439.478577,467.404846,440.582825,468.5354C441.946472,469.898499,443.372864,471.197083,444.857605,472.427246C445.543762,472.957397,446.291199,473.403259,447.084045,473.75415C448.204407,474.248779,449.471008,474.296753,450.628601,473.896667C447.788635,470.821045,445.40448,467.353882,443.548523,463.601563C448.90155,464.222534,453.992615,461.146912,455.936462,456.120728C454.263611,454.318909,452.741394,452.382874,451.385559,450.33197C450.055481,448.376282,449.136414,446.170624,448.687073,443.848541C448.438904,442.33728,448.523254,440.790253,448.936462,439.315491C451.442078,430.576599,451.190247,421.27771,448.215149,412.687195C447.447693,410.705688,446.690735,408.733429,445.935242,406.74704C445.182068,404.778381,444.679749,402.722809,444.439026,400.628754C444.115173,397.67807,444.916809,394.714172,446.683289,392.328583C447.479309,391.31601,448.539978,390.542938,449.746887,390.093231C448.78302,392.313232,449.404358,394.901031,451.269836,396.443054C457.554993,378.944336,461.082214,360.575226,461.725159,341.993073C460.93158,341.755249,460.081848,342.115601,459.694641,342.848022C459.031921,343.918213,458.704895,345.161316,458.750671,346.41925C456.401306,342.921021,455.386658,338.69577,455.891907,334.512207C455.944519,335.222321,456.424866,335.827209,457.103088,336.044006C457.960144,336.413391,458.945007,336.321503,459.721375,335.803558C460.533386,335.023346,461.053284,333.990021,461.199768,332.873535C461.314758,332.193268,461.38385,331.505951,461.404602,330.816315C461.547791,327.570282,461.734924,324.323181,461.965637,321.082275C460.346497,321.46228,458.642883,321.042755,457.388123,319.951263L461.56488,319.969055M591.811951,473.780884C588.193176,474.835815,584.820862,476.601257,581.89093,478.972961C586.557678,479.610596,591.151306,477.390015,593.548645,473.335632L591.811951,473.780884M514.580994,508.495667C513.342468,509.551575,512.489685,510.989807,512.15863,512.583435L511.855896,512.725891C511.427673,513.075317,511.255554,513.64978,511.419495,514.177551L511.55304,514.453613L511.757874,514.67627C514.209167,513.455505,515.575134,510.779602,515.13324,508.077087L514.580994,508.495667M525.107605,374.490295C525.554382,375.326447,526.035828,376.143219,526.550354,376.939392L526.960022,377.785431C528.166687,375.396729,528.010925,372.546967,526.550354,370.304565L525.107605,374.490295M562.57428,475.187988C560.786316,475.323242,559.151062,476.24408,558.103577,477.699463C557.897644,478.021423,557.725647,478.364014,557.596008,478.723633C560.592957,479.692993,563.855774,478.415649,565.3974,475.668945C564.521057,475.243774,563.541687,475.074402,562.57428,475.187988M452.828308,411.529449C453.180237,415.106842,455.494202,418.189423,458.83075,419.526855C459.161438,418.97702,459.512146,418.439362,459.881653,417.914886C458.824158,417.651428,457.871399,417.072235,457.156555,416.249512C456.196106,415.175598,455.408386,413.959137,454.823181,412.64267C454.36322,411.838715,453.65387,411.206482,452.801575,410.843719L452.828308,411.529449M467.202209,351.361969L467.03302,354.861938C466.954285,355.567535,467.113708,356.279755,467.487244,356.883545L467.683167,357.115112C469.356506,355.359009,469.906067,352.815491,469.108093,350.524811C468.781189,349.493835,468.179749,348.570526,467.362488,347.862L467.202209,351.361969M488.326721,476.82666C489.211731,479.862366,492.022766,481.925903,495.184265,481.858459C494.50531,480.270569,493.809753,478.68634,493.100281,477.111633C491.850281,476.93811,490.610657,476.69751,489.386536,476.39032L488.193176,476.22998L488.326721,476.82666M582.612366,516.617737C581.768738,516.658752,580.960266,516.961548,580.287903,517.472656C580.01239,517.725708,579.787048,518.029114,579.637756,518.372192C585.048645,520.539917,591.037048,520.794617,596.612244,519.093506C592.170471,517.296509,587.40094,516.452942,582.612366,516.617737M480.053284,476.256714C478.836121,478.544861,478.873718,481.295593,480.151306,483.550537C481.018616,484.058777,482.122742,483.86731,482.778503,483.105225C483.354187,482.593079,483.552429,481.779968,483.286072,481.056946C483.536438,479.995483,483.344666,478.878662,482.760681,477.957703C482.192932,477.004211,481.335999,476.25592,480.311584,475.829224L480.053284,476.256714M503.813904,344.914185L503.306335,345.127899C503.85675,346.368744,504.420959,347.604065,504.998352,348.832703C506.208435,348.205566,507.694031,348.582825,508.453796,349.714386C508.744812,348.720093,509.542175,347.954803,510.546692,347.701691C510.534973,346.759308,509.852234,345.960999,508.925842,345.786926L508.542908,345.769135C508.404358,345.506927,508.126038,345.350616,507.830383,345.377258C507.4505,345.373535,507.111877,345.623077,507.019958,345.99176C507.02887,346.084259,507.055359,346.173492,507.091248,346.258942C506.432678,345.114166,505.085876,344.558502,503.813904,344.914185M542.963806,410.719025C542.501526,410.746948,542.042908,410.816742,541.592224,410.923859C541.448669,412.650299,542.179871,414.333832,543.542664,415.403473C545.256165,415.268707,546.958191,415.015656,548.63678,414.646484C549.628601,414.431976,550.634583,414.288513,551.646912,414.218994C549.465881,411.748993,546.24823,410.452759,542.963806,410.719025M575.211609,514.792053C574.303772,514.866089,573.442444,515.227966,572.762512,515.834045C572.192566,516.313599,571.701233,516.879395,571.301941,517.508301C570.414001,518.880066,569.747375,520.38269,569.32489,521.961182C569.184387,522.493652,569.275452,523.063171,569.583191,523.519714C572.342468,522.63092,574.325623,520.210815,574.650574,517.3302L578.515686,516.599915C578.429016,516.370361,578.319153,516.149902,578.177185,515.949768C577.455261,515.078308,576.333923,514.647156,575.211609,514.792053M463.070007,417.460693C462.178162,417.480347,461.336121,417.881287,460.763367,418.565033C461.689392,418.469177,462.621033,418.700165,463.390564,419.22406C463.877258,419.532074,464.325012,419.897552,464.726379,420.310547C465.821106,421.531494,466.861023,422.800415,467.843445,424.113312C470.407654,427.134552,474.101501,428.967468,478.058411,429.180725C475.244568,425.88858,472.177551,422.821625,468.885437,420.007751C467.679138,418.931824,466.254089,418.130005,464.708679,417.656647C464.179382,417.490631,463.623474,417.425079,463.070007,417.460693M491.577332,406.132538C489.388367,409.628418,487.208069,413.144257,485.049377,416.65918C484.250916,417.952057,483.522766,419.286865,482.867493,420.657867C482.069641,422.328064,481.449402,424.077362,481.015076,425.876678C480.737366,427.020355,480.278015,428.112488,479.652527,429.109467C479.119568,430.026215,478.147888,430.602325,477.087708,430.623444C475.65509,433.019135,475.62323,436.000977,477.007507,438.424927L481.763245,430.828278C483.786804,427.652252,485.816223,424.443817,487.819153,421.254578C489.499084,418.628265,490.998596,415.890778,492.307678,413.061249C493.270203,410.961212,493.993103,408.759521,494.46283,406.497681C493.406311,405.915558,492.899109,404.674164,493.260559,403.523163L491.577332,406.132538M511.686584,342.001984C510.742493,342.008453,509.875671,342.526154,509.424622,343.355652C512.347717,344.807861,515.364441,346.319336,518.276917,347.790741C519.49469,348.380829,520.627136,349.13266,521.64325,350.026093C522.737366,351.109283,523.672302,352.341644,524.421936,353.686371C525.039856,354.779175,525.783752,355.795685,526.639465,356.714325C527.648621,357.634949,528.716125,358.488922,529.836609,359.270294C532.558777,361.205109,534.691833,363.856232,535.999451,366.92926C537.162781,369.667145,537.993958,372.534363,538.475281,375.46991C538.825256,377.4375,539.11322,379.415466,539.33905,381.401184C541.551819,376.541473,541.404358,370.935089,538.938293,366.199005C540.832336,366.281525,542.583069,367.230255,543.68512,368.772766L539.018494,358.157074C538.719421,358.451721,538.3974,358.72226,538.056702,358.967499C537.542908,357.17392,536.540222,355.558716,535.162292,354.300873C535.445251,355.462494,535.446716,356.675232,535.162292,357.836456C532.93219,356.964386,530.703552,356.078979,528.482971,355.182556C528.099915,354.034088,528.309753,352.769745,529.044006,351.807251C524.667419,348.83783,520.236023,345.944977,515.756531,343.133026C514.662537,342.492218,513.43988,342.100922,512.176453,341.993073L511.686584,342.001984M451.759583,434.666687C451.693176,436.596436,451.992859,438.520935,452.641296,440.339661C453.398987,442.447205,454.313049,444.495178,455.375305,446.466858C458.192566,452.146851,461.066589,457.80011,463.996155,463.423462C465.189148,465.720337,466.59967,467.8974,468.208557,469.924683C469.154114,471.098877,470.226501,472.165039,471.405823,473.104065C471.819275,473.43512,472.320496,473.639648,472.84845,473.682922C473.608215,473.707886,474.319397,473.314575,474.718689,472.667664C475.084656,472.101624,475.368713,471.486816,475.564758,470.84198C476.140808,468.935425,476.728699,467.032654,477.328064,465.133362C476.444397,464.483826,475.563782,463.84259,474.674133,463.200806C473.048035,464.011658,472.30011,465.919861,472.946472,467.618103C473.039734,467.84967,473.161438,468.068787,473.311584,468.268188C472.860779,468.75531,472.131653,468.85614,471.566101,468.508667C470.690857,467.996033,469.982117,467.242004,469.526672,466.335632C467.026917,461.339172,464.800232,456.210876,462.856262,450.973175C461.957336,448.328369,460.977112,445.711761,459.917297,443.127167C459.046448,440.947357,457.841614,438.916199,456.34613,437.106873C455.133728,435.665527,453.586243,434.543518,451.839783,433.83844L451.759583,434.666687M510.306213,403.255981C507.84259,403.543121,505.380066,403.857941,502.923401,404.199982C503.036926,405.905518,502.850281,407.617676,502.371155,409.258484C501.89325,410.90744,501.346497,412.535553,500.732483,414.138855C500.121399,415.730469,499.758362,417.406464,499.654968,419.108276C499.532043,420.753296,500.050476,422.382904,501.106506,423.650238C502.127136,422.921112,502.845398,421.844208,503.128235,420.622253C503.464661,419.330261,503.779236,418.032959,504.072205,416.730438C504.600281,414.714264,505.965393,413.020508,507.821472,412.072693C509.40802,411.274445,511.123962,410.765228,512.888977,410.567627C515.14801,410.364349,517.416321,410.284088,519.684021,410.327179C522.870178,410.306183,526.053162,410.532349,529.204285,411.003998C530.472107,411.141937,531.705017,411.504486,532.846741,412.072693C533.790466,412.522644,534.508362,413.340881,534.832825,414.334778L534.921814,414.78006C535.861267,414.001648,537.121155,413.733765,538.29718,414.058685C537.576233,412.397217,537.232483,410.59671,537.290833,408.786469C537.370667,406.787506,538.58905,405.011169,540.425598,404.217804C541.08075,403.931427,541.800354,403.824463,542.509583,403.915009C538.66571,402.863403,534.577454,403.168945,530.932068,404.77887C531.518616,405.957916,532.593933,406.817169,533.870911,407.138885C533.799133,408.321289,533.719055,409.502136,533.630554,410.683411C531.734314,408.845184,529.330139,407.619598,526.728455,407.165619C524.684753,406.768829,522.596497,406.651947,520.521179,406.818298C518.176697,407.02771,515.841492,407.330658,513.521179,407.726685C511.211609,408.113861,508.872009,408.295807,506.530212,408.269928C508.600769,406.45636,510.638855,404.682281,512.719666,402.881927L510.306213,403.255981M457.655212,390.333679L456.577576,397.814545C456.502747,398.312256,456.351379,398.795227,456.132385,399.248383C455.969177,399.652985,455.570862,399.915009,455.134949,399.898499C455.100769,402.005585,455.85553,404.048859,457.254456,405.624908C458.652161,407.241058,460.430481,408.483887,462.428772,409.240662C464.618347,410.05899,466.905823,410.585846,469.232727,410.808075C471.287292,411.025146,473.344421,411.212189,475.40448,411.369141L478.779724,411.725372C479.757629,411.819763,480.74054,411.606232,481.593933,411.119781C482.032654,410.872467,482.257751,410.365997,482.15509,409.872986C480.71759,409.540283,479.271057,409.246216,477.817932,408.991302C477.585266,408.201019,477.314758,407.422394,477.007507,406.65799C480.242981,406.41391,483.58551,406.168457,486.821716,405.936615C487.743469,405.905334,488.625305,405.551086,489.315247,404.939178C489.540222,404.733215,489.673889,404.449432,489.707214,404.146545C489.711853,403.988953,489.690491,403.831482,489.635925,403.683441C481.281555,404.581696,473.097473,400.888672,468.244202,394.029572C466.872009,391.860535,465.503723,389.680145,464.147522,387.501648C463.162781,385.954163,461.861023,384.633148,460.326965,383.627625C459.806824,383.305786,459.250916,383.045715,458.670471,382.852814L457.655212,390.333679M460.968201,391.598297C462.928162,396.340668,466.138245,400.462524,470.256897,403.523163C470.160583,404.149811,469.720764,404.666138,469.125916,404.885742C466.565491,404.134399,464.335876,402.536652,462.802795,400.352692C460.991394,397.879364,460.146423,394.829468,460.424988,391.776428L460.603088,390.654297L460.968201,391.598297M520.120422,383.770111C512.470032,384.059662,505.26593,387.440247,500.153625,393.139008C499.053406,394.40274,498.08844,395.778534,497.277039,397.244568C497.516052,398.181915,498.290955,398.885559,499.2453,399.043549C500.493958,399.359161,501.818909,399.036133,502.780823,398.179688C503.336121,397.695038,503.826477,397.141144,504.241394,396.532104C504.793762,395.700867,505.33905,394.868195,505.880066,394.029572C509.279236,389.19519,514.901306,386.421112,520.806213,386.66449C525.97406,386.997711,530.715881,389.644379,533.710632,393.869263C536.174744,397.306183,539.967468,399.551636,544.166077,400.058807C555.841125,411.944733,566.34491,424.926849,575.532166,438.825684C576.132996,437.666626,576.700012,436.490631,577.233215,435.298981C573.856506,432.02005,572.063293,427.441711,572.3172,422.741821C569.409485,420.990784,566.724304,418.894745,564.319885,416.498871C562.856506,415.067352,561.419861,413.609741,560.00946,412.126129C554.957092,406.867279,549.989319,401.658234,544.976501,396.362885C542.84845,394.083221,540.566345,391.952667,538.145691,389.986359C536.004578,388.252197,533.641296,386.811768,531.11908,385.702667C527.643616,384.243835,523.885071,383.58316,520.120422,383.770111M478.779724,341.895111C478.300598,341.979553,477.874695,342.248871,477.577454,342.634277C478.497864,343.226898,479.184875,344.121063,479.518982,345.163544C479.866516,346.276886,480.077942,347.428192,480.151306,348.592255C480.225037,349.817383,480.352722,351.038696,480.534241,352.252533C480.750549,353.63089,481.287903,354.939819,482.101624,356.07312C482.820618,357.413422,483.224182,358.899445,483.286072,360.419159C483.351257,362.237366,483.232117,364.057617,482.929871,365.851685C482.634949,367.696777,482.421082,369.553986,482.288635,371.417786C482.166077,372.994232,482.323181,374.580261,482.75177,376.102234L482.965515,376.734558C482.328552,376.88327,481.683167,376.993469,481.032898,377.064056C480.442078,374.751099,478.804749,372.847931,476.60675,371.916504C479.091003,381.142395,484.172913,389.460663,491.247864,395.881989C486.176941,396.881042,481.011536,394.682495,478.218689,390.333679C477.791687,389.596863,477.313416,388.890839,476.784851,388.223022C476.296326,387.554138,475.569275,387.098175,474.754333,386.949493C473.235535,386.761475,471.864441,385.946655,470.969421,384.705231C469.988464,383.376801,469.274475,381.870575,468.867615,380.270142C468.561829,379.188202,468.327087,378.087433,468.164124,376.975006C467.512268,376.755951,466.80719,377.08313,466.534363,377.714172C466.15094,378.398712,465.958191,379.174561,465.991028,379.958435C466.584656,388.417114,472.366638,395.616608,480.498596,398.019379C483.446716,398.835632,486.463562,399.37793,489.511292,399.640228C490.40094,399.754944,491.295471,399.829224,492.191833,399.862885C492.614197,399.878815,493.036926,399.838409,493.447571,399.73819C493.843811,399.634186,494.195496,399.407349,494.46283,399.096985C493.739929,398.851105,493.016541,398.61084,492.289856,398.37561C492.037048,396.785919,491.743103,395.203339,491.408142,393.628815C488.398865,388.866821,485.68634,383.923553,483.286072,378.827393C483.910095,378.742126,484.52655,378.607971,485.129578,378.426636C484.326233,376.541809,484.572937,374.373871,485.779724,372.718048C486.653259,372.389099,487.538635,372.092438,488.433655,371.827454C487.853821,367.862091,487.719177,363.844391,488.032898,359.849182C489.563538,360.718872,490.783508,362.045807,491.523987,363.643036C492.293396,365.307159,492.80426,367.078979,493.037903,368.897461C493.216492,370.111725,493.344055,371.332825,493.420837,372.557739C493.502747,373.665497,493.203186,374.767761,492.574768,375.683655C492.326599,376.094574,491.878113,376.348694,491.399231,376.315979C491.200012,376.286011,491.00885,376.213593,490.847107,376.093323C490.359802,377.247162,490.803528,378.585632,491.889099,379.210358L492.369934,379.388458C493.427429,377.922119,494.242126,376.29538,494.783508,374.570435C495.210022,377.56601,496.049011,380.48822,497.277039,383.253571C498.537781,382.748383,499.338318,381.50235,499.280823,380.145447C499.301453,379.347351,498.98468,378.578125,498.408142,378.025879C497.660583,371.650208,498.489075,365.188568,500.821594,359.207947L503.95636,357.515869L504.098938,357.26651L504.125671,356.999329C503.955139,356.385193,503.500305,355.892365,502.905579,355.663452C501.473694,355.150665,499.99823,354.768738,498.497131,354.523529C496.999695,354.27478,495.537537,353.847504,494.142273,353.25C492.170959,352.37854,490.772766,350.569855,490.437439,348.440857C490.33905,347.539764,490.59967,346.635864,491.167664,345.929443C487.731995,344.786438,484.393494,343.683228,480.95282,342.554138C480.40094,341.957855,479.570129,341.70697,478.779724,341.895111"/>
    <path transform="matrix(-1,0,0,-1,0,0)" style="stroke:none;fill:#000000;fill-rule:evenodd" d="M552.145569,467.039246C551.534363,469.310181,550.403381,471.408203,548.841614,473.166382C547.98175,474.097107,546.938416,474.8396,545.778015,475.348328C547.313538,471.636597,549.616882,468.291809,552.537537,465.534119L552.145569,467.039246z"/>
    <path transform="matrix(-1,0,0,-1,0,0)" style="stroke:none;fill:#000000;fill-rule:evenodd" d="M486.901794,453.448975C487.691956,453.696075,488.350525,454.244293,488.7453,454.971863C489.443787,456.290222,489.86908,457.733948,490.001038,459.21991C490.055603,459.831604,489.909119,460.445435,489.582458,460.965454C489.363342,461.276184,489.045349,461.506592,488.674133,461.588867C489.164978,458.465393,487.377991,455.433563,484.408264,454.34848C484.830139,453.661499,485.610535,453.282806,486.412048,453.368835L486.901794,453.448975z"/>
    <path transform="matrix(-1,0,0,-1,0,0)" style="stroke:none;fill:#000000;fill-rule:evenodd" d="M592.123718,400.299255C590.850647,404.710876,587.692078,408.333466,583.493958,410.193573C582.851013,411.503601,581.270325,412.043793,579.958435,411.404785C579.06012,410.72879,578.65033,409.586884,578.907532,408.492584C578.976257,408.143097,579.113831,407.81134,579.308289,407.512939C582.541321,407.791077,585.738831,406.668701,588.089417,404.431549C589.151306,403.427307,590.128113,402.337067,591.010437,401.172028L592.346375,399.417572L592.123718,400.299255z"/>
</svg>
