<?xml version="1.0" encoding="UTF-8"?>
<svg xmlns="http://www.w3.org/2000/svg" width="131.945mm" height="38.706mm" viewBox="-1252.972656 -355.352356 131.945313 38.705872">
    <path transform="matrix(-1,0,0,-1,0,0)" style="stroke:#000000;stroke-width:0.05mm;fill:none" d="M1123.078125,316.671875C1124.114136,316.723999,1125.143799,316.864441,1126.15625,317.089844C1128.390015,317.590485,1130.506592,318.516205,1132.390625,319.816406C1134.203247,321.07489,1135.857056,322.547913,1137.316406,324.203125C1138.891479,325.994354,1140.334229,327.897675,1141.632813,329.898438C1142.013184,330.483276,1142.394897,331.06366,1142.78125,331.644531C1142.830078,331.700958,1142.883545,331.753082,1142.9375,331.804688C1143.014282,331.858276,1143.095337,331.904907,1143.179688,331.945313C1143.205322,331.956665,1143.231323,331.967102,1143.257813,331.976563C1143.292236,331.988312,1143.327759,331.996307,1143.363281,332.003906C1143.399658,332.011322,1143.436279,332.016449,1143.472656,332.023438C1143.56665,332.026184,1143.660522,332.022217,1143.753906,332.011719C1143.816895,331.994843,1143.880005,331.979156,1143.941406,331.957031C1143.966064,331.945251,1143.990967,331.933716,1144.015625,331.921875C1144.064453,331.894012,1144.111816,331.864258,1144.160156,331.835938C1144.182495,331.817474,1144.204224,331.799774,1144.226563,331.78125L1144.246094,331.765625C1144.299194,331.71283,1144.346802,331.655182,1144.394531,331.597656L1144.40625,331.578125C1145.521729,329.859894,1146.699463,328.182953,1147.9375,326.550781C1148.693237,325.580475,1149.492188,324.644562,1150.332031,323.746094C1151.134766,322.889313,1151.982178,322.075531,1152.871094,321.308594C1154.359863,320.034973,1156.020508,318.977417,1157.804688,318.167969C1158.94397,317.674255,1160.129517,317.294647,1161.34375,317.035156C1162.382446,316.824829,1163.43689,316.702301,1164.496094,316.667969C1165.405884,316.649017,1166.315918,316.677765,1167.222656,316.753906C1168.883057,316.919128,1170.515015,317.298859,1172.078125,317.882813C1173.240601,318.339142,1174.358398,318.901703,1175.417969,319.5625C1175.950439,319.896118,1176.468018,320.253235,1176.96875,320.632813C1177.700073,321.203094,1178.401367,321.810852,1179.070313,322.453125C1180.64502,323.960663,1182.078247,325.609467,1183.351563,327.378906C1183.996094,328.255676,1184.617188,329.149231,1185.214844,330.058594C1185.283569,330.160675,1185.352295,330.26181,1185.421875,330.363281C1185.656616,330.697266,1185.921143,331.009308,1186.210938,331.296875L1186.238281,331.316406C1186.320435,331.388031,1186.408325,331.452728,1186.5,331.511719C1186.565674,331.546082,1186.633789,331.575409,1186.703125,331.601563C1186.729126,331.609497,1186.754761,331.618439,1186.78125,331.625C1186.872437,331.644287,1186.965454,331.65274,1187.058594,331.652344C1187.09668,331.650391,1187.134644,331.647827,1187.171875,331.640625C1187.234497,331.625763,1187.297119,331.610687,1187.359375,331.59375L1187.386719,331.582031C1187.403809,331.575989,1187.420776,331.569244,1187.4375,331.5625C1187.540527,331.512451,1187.638672,331.452423,1187.726563,331.378906C1187.778687,331.337677,1187.826538,331.291443,1187.871094,331.242188L1187.890625,331.222656L1187.902344,331.203125L1188.449219,330.523438L1188.464844,330.507813L1188.996094,329.816406L1189.007813,329.796875L1189.523438,329.09375L1189.539063,329.078125C1190.080322,328.277954,1190.643066,327.492523,1191.226563,326.722656C1192.458862,325.114319,1193.810425,323.601044,1195.269531,322.195313C1196.838501,320.685181,1198.628418,319.423035,1200.578125,318.453125L1201.46875,318.058594C1202.02124,317.832123,1202.584351,317.632507,1203.15625,317.460938C1204.040649,317.198853,1204.942749,317.000458,1205.855469,316.867188L1206.8125,316.753906C1207.482178,316.7052,1208.152954,316.672791,1208.824219,316.65625C1211.307373,316.641205,1213.767944,317.127441,1216.058594,318.085938C1217.612061,318.770355,1219.075073,319.644043,1220.414063,320.6875C1221.582275,321.626953,1222.682861,322.647522,1223.707031,323.742188C1224.75769,324.855164,1225.73877,326.031891,1226.644531,327.265625C1227.692261,328.680847,1228.697998,330.126831,1229.660156,331.601563C1229.67041,331.616028,1229.681763,331.629578,1229.691406,331.644531C1229.729858,331.684296,1229.769531,331.722687,1229.808594,331.761719C1229.823242,331.775055,1229.840088,331.784668,1229.855469,331.796875C1229.890625,331.826508,1229.928711,331.852478,1229.96875,331.875C1230.019897,331.897522,1230.069824,331.922516,1230.121094,331.945313C1230.199463,331.976868,1230.282837,331.993744,1230.367188,332C1230.414063,332.001129,1230.460938,332.003326,1230.507813,332.003906C1230.562988,331.998779,1230.618042,331.994049,1230.671875,331.980469C1230.717896,331.969299,1230.763794,331.957428,1230.808594,331.941406C1230.860596,331.920532,1230.912109,331.898651,1230.960938,331.871094C1231.015015,331.836151,1231.066895,331.797943,1231.117188,331.757813C1231.152344,331.726624,1231.187378,331.695343,1231.21875,331.660156C1231.242554,331.629181,1231.265381,331.597473,1231.289063,331.566406C1232.282471,330.081238,1233.299316,328.61264,1234.339844,327.160156C1235.833374,325.129944,1237.529419,323.256897,1239.402344,321.570313C1240.996826,320.150269,1242.800537,318.984131,1244.75,318.113281L1245.636719,317.757813C1246.203857,317.547455,1246.781494,317.366058,1247.367188,317.214844L1248.328125,316.996094L1249.21875,316.839844L1250.171875,316.726563C1250.775879,316.674683,1251.38208,316.652557,1251.988281,316.660156L1252.3125,316.675781L1252.574219,316.722656C1252.710571,316.755493,1252.843628,316.800598,1252.972656,316.855469L1252.972656,319.414063L1252.9375,319.433594C1252.592285,319.583557,1252.230835,319.693054,1251.859375,319.753906C1251.084595,319.878967,1250.307129,319.985748,1249.527344,320.074219C1248.990234,320.134399,1248.460205,320.246094,1247.945313,320.410156C1247.922974,320.42038,1247.900879,320.430389,1247.878906,320.441406L1247.820313,320.472656C1247.755737,320.511108,1247.692627,320.552124,1247.632813,320.597656C1247.582275,320.643402,1247.534424,320.692047,1247.488281,320.742188C1247.462158,320.77478,1247.437012,320.808044,1247.410156,320.839844C1247.384399,320.879089,1247.358643,320.918365,1247.332031,320.957031C1247.305908,321.009094,1247.280029,321.061218,1247.253906,321.113281L1247.242188,321.136719L1247.234375,321.164063C1247.184326,321.282013,1247.151123,321.405884,1247.125,321.53125L1247.042969,322.117188C1246.971313,322.746063,1246.939941,323.378845,1246.949219,324.011719C1246.89856,326.667908,1246.876465,329.327637,1246.882813,331.984375L1246.882813,340.023438C1246.906128,341.223907,1246.908813,342.42453,1246.890625,343.625C1246.883179,345.650513,1246.923462,347.675568,1247.011719,349.699219C1247.035156,350.094208,1247.113159,350.483978,1247.238281,350.859375C1247.272705,350.937958,1247.312378,351.01416,1247.359375,351.085938C1247.40625,351.149445,1247.453979,351.212219,1247.503906,351.273438C1247.547974,351.321808,1247.595459,351.366852,1247.644531,351.410156C1247.680664,351.439789,1247.719482,351.465637,1247.757813,351.492188L1247.78125,351.503906L1247.804688,351.519531L1247.832031,351.53125L1247.855469,351.542969C1247.949097,351.588379,1248.046265,351.625763,1248.144531,351.660156C1248.449829,351.737671,1248.758911,351.799652,1249.070313,351.847656L1249.097656,351.855469C1249.783447,351.971893,1250.472656,352.068329,1251.164063,352.144531C1251.638306,352.192383,1252.106812,352.285828,1252.5625,352.425781L1252.972656,352.582031L1252.972656,355.160156L1252.863281,355.207031C1252.402344,355.321289,1251.927612,355.368866,1251.453125,355.351563C1249.802979,355.305786,1248.166138,355.040131,1246.585938,354.5625C1244.774292,354.007843,1243.062622,353.167999,1241.515625,352.074219C1239.564331,350.699829,1237.802124,349.075134,1236.273438,347.242188C1235.172852,345.962158,1234.14624,344.620178,1233.199219,343.222656L1231.285156,340.429688C1231.268311,340.40744,1231.251221,340.385498,1231.234375,340.363281C1231.223267,340.349548,1231.210449,340.333954,1231.199219,340.320313L1231.121094,340.242188C1231.067139,340.205261,1231.013062,340.168365,1230.960938,340.128906C1230.911499,340.1026,1230.860352,340.079865,1230.808594,340.058594C1230.782715,340.049103,1230.756226,340.041077,1230.730469,340.03125L1230.703125,340.027344C1230.657715,340.016754,1230.611816,340.009705,1230.566406,340L1230.535156,340C1230.498779,339.997162,1230.46228,339.997131,1230.425781,339.996094C1230.369751,340.002197,1230.313843,340.009857,1230.257813,340.015625C1230.205078,340.031006,1230.150391,340.047119,1230.097656,340.0625C1230.071289,340.073578,1230.045776,340.086243,1230.019531,340.097656C1229.996216,340.11087,1229.972412,340.12323,1229.949219,340.136719C1229.862671,340.192841,1229.782959,340.25827,1229.710938,340.332031L1229.695313,340.355469C1229.671509,340.385132,1229.648193,340.415161,1229.625,340.445313C1228.503418,342.189209,1227.30835,343.884766,1226.042969,345.527344C1225.484985,346.240601,1224.907959,346.938782,1224.3125,347.621094C1223.307007,348.728607,1222.234741,349.773529,1221.101563,350.75C1220.470703,351.296753,1219.803833,351.800537,1219.105469,352.257813C1217.95813,353.016968,1216.735474,353.65564,1215.457031,354.164063L1214.519531,354.484375L1213.570313,354.757813L1212.632813,354.976563L1211.664063,355.144531L1210.660156,355.265625C1210.019775,355.321136,1209.377075,355.345795,1208.734375,355.339844C1207.894165,355.321869,1207.054932,355.270966,1206.21875,355.1875C1205.24292,355.060944,1204.278076,354.86084,1203.332031,354.589844C1200.96106,353.903168,1198.75354,352.743469,1196.84375,351.179688C1194.899048,349.579437,1193.144287,347.761414,1191.613281,345.761719C1190.746704,344.620117,1189.900391,343.46405,1189.074219,342.292969L1189.0625,342.273438L1188.488281,341.507813L1188.46875,341.488281L1188.457031,341.46875L1187.84375,340.730469C1187.791138,340.678894,1187.737793,340.628082,1187.683594,340.578125C1187.610107,340.524963,1187.530273,340.481934,1187.449219,340.441406C1187.414185,340.428192,1187.378906,340.415131,1187.34375,340.402344C1187.297852,340.393127,1187.253174,340.379913,1187.207031,340.371094C1187.179688,340.367584,1187.144531,340.363068,1187.117188,340.359375L1187.089844,340.359375C1187.033813,340.357391,1186.977905,340.357086,1186.921875,340.359375C1186.874756,340.367004,1186.827515,340.371338,1186.78125,340.382813C1186.718872,340.401825,1186.656616,340.421112,1186.597656,340.449219C1186.581055,340.457214,1186.563721,340.465179,1186.546875,340.472656C1186.523804,340.487549,1186.499756,340.500977,1186.476563,340.515625C1186.410889,340.5578,1186.345825,340.6008,1186.28125,340.644531C1186.238892,340.681641,1186.195923,340.717865,1186.15625,340.757813C1185.724609,341.218018,1185.338013,341.718689,1185.003906,342.253906C1183.27002,344.951477,1181.237549,347.444977,1178.945313,349.6875C1177.320557,351.235748,1175.471558,352.530182,1173.460938,353.527344C1171.223999,354.596069,1168.793457,355.19928,1166.316406,355.300781L1165.308594,355.34375C1164.667236,355.349243,1164.025879,355.324097,1163.386719,355.269531L1162.382813,355.148438L1161.414063,354.980469L1160.476563,354.761719L1159.550781,354.496094L1158.585938,354.160156C1156.763306,353.448273,1155.061035,352.460236,1153.539063,351.230469C1151.725708,349.774628,1150.078857,348.122742,1148.628906,346.304688C1147.531006,344.948425,1146.494873,343.543274,1145.523438,342.09375C1145.140381,341.527863,1144.762695,340.966461,1144.382813,340.398438C1144.365845,340.376221,1144.349121,340.354126,1144.332031,340.332031C1144.286133,340.286835,1144.240234,340.241608,1144.191406,340.199219L1144.171875,340.179688C1144.116577,340.144775,1144.061401,340.109436,1144.003906,340.078125C1143.986938,340.070618,1143.969849,340.062683,1143.953125,340.054688C1143.900269,340.036011,1143.846313,340.021362,1143.792969,340.003906C1143.736938,339.995911,1143.681152,339.987579,1143.625,339.980469C1143.561157,339.981964,1143.497314,339.984467,1143.433594,339.988281C1143.387695,339.998505,1143.342773,340.011292,1143.296875,340.019531L1143.242188,340.035156C1143.207153,340.049622,1143.171753,340.063599,1143.136719,340.078125C1143.078369,340.105713,1143.025635,340.142731,1142.972656,340.179688C1142.929932,340.214905,1142.887939,340.251038,1142.847656,340.289063C1142.822632,340.317505,1142.798096,340.346252,1142.773438,340.375C1142.759033,340.395721,1142.745239,340.417023,1142.730469,340.4375C1141.526245,342.353149,1140.226318,344.207092,1138.835938,345.992188C1137.418213,347.790894,1135.827271,349.446045,1134.085938,350.933594C1132.923828,351.910126,1131.655273,352.752411,1130.304688,353.445313C1129.143921,354.025208,1127.921387,354.472198,1126.660156,354.777344L1125.574219,355.023438C1124.278687,355.291473,1122.953491,355.387756,1121.632813,355.308594C1121.456421,355.279846,1121.282471,355.237335,1121.113281,355.179688L1121.027344,355.136719L1121.027344,352.617188L1121.222656,352.515625C1121.436035,352.421539,1121.660889,352.35672,1121.890625,352.316406C1122.630981,352.16925,1123.37793,352.056702,1124.128906,351.980469C1124.774414,351.911469,1125.413208,351.789886,1126.039063,351.617188C1126.110229,351.590851,1126.177002,351.554504,1126.242188,351.515625C1126.286377,351.485474,1126.330811,351.455841,1126.375,351.425781C1126.467407,351.353638,1126.548828,351.268951,1126.625,351.179688C1126.654419,351.135071,1126.684082,351.090607,1126.714844,351.046875C1126.732544,351.012665,1126.752808,350.980042,1126.769531,350.945313C1126.785889,350.912292,1126.79895,350.877899,1126.8125,350.84375C1126.833618,350.772278,1126.855591,350.701019,1126.875,350.628906L1126.949219,350.28125C1127.026367,349.875641,1127.065308,349.463654,1127.066406,349.050781C1127.130249,347.105865,1127.160156,345.160858,1127.15625,343.214844L1127.15625,338.972656L1127.164063,338.410156L1127.164063,333.589844L1127.15625,333.042969L1127.15625,327.257813C1127.147217,326.240173,1127.130371,325.224487,1127.105469,324.207031L1127.105469,324.191406C1127.085083,323.587158,1127.062622,322.971558,1127.039063,322.367188C1127.010376,321.937988,1126.92688,321.514282,1126.792969,321.105469L1126.78125,321.082031C1126.728271,320.984009,1126.665649,320.891876,1126.601563,320.800781C1126.553589,320.742249,1126.502197,320.686798,1126.449219,320.632813L1126.429688,320.617188C1126.414917,320.604675,1126.400757,320.591339,1126.386719,320.578125C1126.30603,320.523071,1126.222168,320.473114,1126.136719,320.425781C1126.094238,320.406403,1126.051025,320.388824,1126.007813,320.371094C1125.913208,320.343445,1125.817993,320.318146,1125.722656,320.292969C1125.705688,320.2883,1125.696655,320.285736,1125.679688,320.28125L1125.574219,320.257813C1124.563354,320.071899,1123.545654,319.924713,1122.523438,319.816406C1122.005859,319.75174,1121.500854,319.609314,1121.027344,319.390625L1121.027344,316.875C1121.082397,316.845734,1121.13855,316.818817,1121.195313,316.792969L1121.371094,316.746094L1121.777344,316.683594C1122.209595,316.637787,1122.645142,316.634338,1123.078125,316.671875z"/>
    <path transform="matrix(-1,0,0,-1,0,0)" style="stroke:#000000;stroke-width:0.05mm;fill:none" d="M1208.761719,319.921875C1207.698975,319.908661,1206.636597,319.968842,1205.582031,320.101563L1204.589844,320.269531L1204.535156,320.277344C1204.482422,320.296387,1204.428345,320.310638,1204.375,320.328125C1204.334229,320.350586,1204.291504,320.369202,1204.25,320.390625C1204.204224,320.422791,1204.158447,320.4552,1204.113281,320.488281L1204.074219,320.527344C1204.058472,320.538818,1204.044678,320.55249,1204.03125,320.566406C1203.977417,320.629456,1203.92627,320.694763,1203.882813,320.765625L1203.871094,320.792969C1203.852539,320.834473,1203.833496,320.875763,1203.816406,320.917969C1203.804321,320.953918,1203.792969,320.990112,1203.785156,321.027344L1203.777344,321.054688L1203.757813,321.191406L1203.757813,350.800781C1203.762207,350.838654,1203.7677,350.876373,1203.773438,350.914063C1203.780518,350.950653,1203.786499,350.987457,1203.796875,351.023438C1203.802734,351.040192,1203.807129,351.057343,1203.8125,351.074219C1203.827148,351.109344,1203.838989,351.145355,1203.855469,351.179688C1203.892334,351.255249,1203.940552,351.32431,1203.992188,351.390625C1204.016968,351.41925,1204.043945,351.445587,1204.070313,351.472656L1204.089844,351.488281C1204.143311,351.540588,1204.204712,351.583801,1204.269531,351.621094L1204.296875,351.632813C1204.338257,351.651825,1204.380127,351.669556,1204.421875,351.6875C1204.457397,351.701691,1204.494385,351.709961,1204.53125,351.71875C1204.546021,351.722809,1204.559448,351.726563,1204.574219,351.730469L1205.097656,351.828125C1206.399658,352.043518,1207.720581,352.122772,1209.039063,352.066406C1210.029907,352.068054,1211.019165,351.985931,1211.996094,351.820313L1212.71875,351.660156C1213.005859,351.582458,1213.271484,351.510803,1213.558594,351.433594C1213.584595,351.422943,1213.610474,351.41217,1213.636719,351.402344C1213.710083,351.362946,1213.779785,351.317535,1213.847656,351.269531C1213.861816,351.257782,1213.876343,351.246033,1213.890625,351.234375L1213.949219,351.175781L1213.96875,351.152344C1213.987305,351.131775,1214.004761,351.11026,1214.023438,351.089844C1214.047241,351.061218,1214.064331,351.028564,1214.082031,350.996094C1214.103394,350.954681,1214.124756,350.91333,1214.144531,350.871094L1214.15625,350.84375C1214.181763,350.763153,1214.199585,350.680664,1214.214844,350.597656C1214.214478,350.579193,1214.217407,350.561218,1214.21875,350.542969L1214.21875,321.453125C1214.210571,321.397186,1214.202637,321.341217,1214.195313,321.285156C1214.178223,321.23172,1214.160034,321.178772,1214.144531,321.125C1214.112061,321.057678,1214.074829,320.99292,1214.035156,320.929688C1213.995972,320.876953,1213.951782,320.82843,1213.90625,320.78125C1213.844727,320.725342,1213.779785,320.673248,1213.707031,320.632813C1213.65686,320.609436,1213.605835,320.587524,1213.554688,320.566406C1213.529053,320.557343,1213.503418,320.548218,1213.476563,320.542969C1212.970459,320.39621,1212.45813,320.271332,1211.941406,320.167969C1211.679443,320.135193,1211.417969,320.101318,1211.15625,320.066406C1210.36084,319.980011,1209.561768,319.931335,1208.761719,319.921875z"/>
    <path transform="matrix(-1,0,0,-1,0,0)" style="stroke:#000000;stroke-width:0.05mm;fill:none" d="M1165.535156,319.917969C1165.097656,319.93161,1164.6604,319.940857,1164.222656,319.945313C1163.962769,319.970886,1163.702271,319.988342,1163.441406,320C1163.424438,320.001221,1163.407471,320.001251,1163.390625,320.003906C1163.129761,320.031769,1162.869385,320.063049,1162.609375,320.097656L1162.589844,320.097656L1161.839844,320.222656C1161.8125,320.229462,1161.785156,320.235199,1161.757813,320.242188C1161.354858,320.336121,1160.953857,320.437744,1160.554688,320.546875C1160.466553,320.575012,1160.380249,320.608887,1160.300781,320.65625C1160.221191,320.705933,1160.14856,320.766113,1160.085938,320.835938L1160.070313,320.855469C1160.041016,320.892883,1160.012451,320.930328,1159.984375,320.96875L1159.972656,320.992188L1159.957031,321.015625C1159.943237,321.04129,1159.931519,321.067902,1159.917969,321.09375C1159.906982,321.11853,1159.89917,321.144073,1159.886719,321.167969L1159.847656,321.304688C1159.839844,321.359222,1159.833862,321.413971,1159.828125,321.46875L1159.828125,350.546875C1159.834839,350.603027,1159.841187,350.65921,1159.851563,350.714844C1159.864014,350.759796,1159.879028,350.803741,1159.894531,350.847656C1159.903564,350.874268,1159.914429,350.900116,1159.925781,350.925781C1159.953247,350.974792,1159.981812,351.022766,1160.011719,351.070313C1160.02832,351.092529,1160.045532,351.114777,1160.0625,351.136719C1160.081055,351.157227,1160.100464,351.177032,1160.117188,351.199219L1160.140625,351.21875L1160.160156,351.234375L1160.179688,351.253906L1160.203125,351.273438C1160.249023,351.304108,1160.294434,351.335754,1160.339844,351.367188C1160.365723,351.376556,1160.388916,351.390778,1160.414063,351.402344L1160.46875,351.425781L1160.492188,351.433594L1160.519531,351.445313C1161.157104,351.632904,1161.80542,351.781677,1162.460938,351.890625C1164.455566,352.140778,1166.473389,352.143158,1168.46875,351.898438C1168.816528,351.83313,1169.165649,351.774628,1169.515625,351.722656C1169.576904,351.702209,1169.638184,351.681671,1169.699219,351.660156C1169.723999,351.647217,1169.749512,351.635956,1169.773438,351.621094C1169.806152,351.601868,1169.839478,351.583771,1169.871094,351.5625L1169.890625,351.546875C1169.949585,351.500824,1170.004639,351.450165,1170.054688,351.394531C1170.065796,351.380737,1170.078857,351.365479,1170.089844,351.351563L1170.167969,351.234375C1170.187622,351.191437,1170.206421,351.148193,1170.226563,351.105469C1170.239502,351.070587,1170.253906,351.036499,1170.261719,351C1170.273682,350.936462,1170.282227,350.872406,1170.292969,350.808594L1170.292969,321.199219C1170.288818,321.16272,1170.283203,321.122223,1170.277344,321.085938C1170.262329,321.013123,1170.242554,320.941467,1170.21875,320.871094C1170.201904,320.838531,1170.186646,320.805237,1170.167969,320.773438C1170.149292,320.740326,1170.128906,320.708313,1170.109375,320.675781C1170.082886,320.637787,1170.053223,320.602112,1170.019531,320.570313C1169.987427,320.535919,1169.953613,320.503357,1169.917969,320.472656C1169.862549,320.438568,1169.807617,320.403717,1169.753906,320.367188C1169.712769,320.3479,1169.671387,320.328796,1169.628906,320.3125C1169.601807,320.30246,1169.574219,320.294312,1169.546875,320.285156C1169.508301,320.277313,1169.495361,320.274506,1169.457031,320.265625C1169.095825,320.200867,1168.733887,320.141052,1168.371094,320.085938C1168.004883,320.039917,1167.637573,320.001831,1167.269531,319.972656L1167.234375,319.972656C1166.669312,319.923828,1166.102173,319.904846,1165.535156,319.917969z"/>
    <path transform="matrix(-1,0,0,-1,0,0)" style="stroke:#000000;stroke-width:0.05mm;fill:none" d="M1199.394531,322.964844C1199.348755,322.969574,1199.303101,322.975708,1199.257813,322.984375L1199.230469,322.988281C1199.157959,323.006592,1199.087646,323.03186,1199.019531,323.0625C1198.950928,323.093414,1198.888062,323.134583,1198.828125,323.179688C1198.793701,323.208954,1198.759521,323.238464,1198.726563,323.269531C1197.715942,324.300354,1196.717773,325.345398,1195.734375,326.402344L1195.707031,326.429688L1194.96875,327.28125C1193.234741,329.332336,1191.669922,331.520508,1190.289063,333.824219L1189.273438,335.480469C1189.250366,335.521637,1189.228149,335.563232,1189.207031,335.605469L1189.199219,335.628906L1189.1875,335.65625C1189.172974,335.710052,1189.158325,335.763763,1189.140625,335.816406C1189.134644,335.844879,1189.133301,335.873688,1189.128906,335.902344C1189.126343,335.957001,1189.126099,336.011749,1189.128906,336.066406L1189.128906,336.097656L1189.144531,336.207031C1189.163818,336.289063,1189.191895,336.368591,1189.226563,336.445313C1189.241577,336.472687,1189.257935,336.500183,1189.273438,336.527344C1189.779053,337.347168,1190.453613,338.442871,1190.957031,339.261719C1191.198242,339.622375,1191.435059,339.985504,1191.667969,340.351563L1191.679688,340.371094L1192.402344,341.417969L1192.421875,341.441406L1193.171875,342.464844L1193.1875,342.488281C1194.231445,343.873932,1195.348877,345.202759,1196.535156,346.46875L1198.726563,348.738281C1198.760254,348.769714,1198.793701,348.801453,1198.828125,348.832031L1198.945313,348.910156C1198.978882,348.927704,1199.013062,348.943939,1199.046875,348.960938C1199.072876,348.970245,1199.098877,348.979431,1199.125,348.988281C1199.141602,348.995361,1199.158447,349.002441,1199.175781,349.007813C1199.203003,349.013641,1199.230469,349.017914,1199.257813,349.023438C1199.331421,349.036011,1199.40564,349.044128,1199.480469,349.042969C1199.536499,349.03656,1199.592285,349.028351,1199.648438,349.023438C1199.675537,349.015991,1199.702881,349.009521,1199.730469,349.003906L1199.753906,348.992188L1199.808594,348.976563C1199.832153,348.962585,1199.857422,348.952118,1199.882813,348.941406C1199.939453,348.908539,1199.995239,348.874512,1200.050781,348.839844C1200.101196,348.797913,1200.147095,348.751434,1200.195313,348.707031L1200.210938,348.683594C1200.256348,348.624969,1200.297729,348.563507,1200.335938,348.5C1200.356323,348.457977,1200.372803,348.414307,1200.390625,348.371094L1200.421875,348.261719C1200.430298,348.207092,1200.439575,348.152649,1200.445313,348.097656L1200.445313,323.910156C1200.436523,323.826874,1200.424072,323.743958,1200.398438,323.664063C1200.392212,323.645752,1200.38623,323.627319,1200.378906,323.609375C1200.35083,323.529785,1200.312744,323.453979,1200.261719,323.386719C1200.209595,323.322052,1200.154297,323.260132,1200.09375,323.203125C1200.040405,323.1651,1199.986328,323.12854,1199.933594,323.089844L1199.90625,323.078125C1199.822021,323.038971,1199.734863,323.006653,1199.644531,322.984375C1199.5625,322.966278,1199.478394,322.959534,1199.394531,322.964844z"/>
    <path transform="matrix(-1,0,0,-1,0,0)" style="stroke:#000000;stroke-width:0.05mm;fill:none" d="M1174.542969,322.964844L1174.40625,322.984375C1174.358398,322.985016,1174.311523,322.999725,1174.269531,323.023438C1174.227661,323.041107,1174.184937,323.056549,1174.144531,323.078125C1174.089478,323.11261,1174.034302,323.147003,1173.980469,323.183594C1173.945313,323.216064,1173.910034,323.248566,1173.875,323.28125C1173.844971,323.315308,1173.816772,323.350861,1173.789063,323.386719C1173.755005,323.443207,1173.719849,323.498901,1173.691406,323.558594C1173.667114,323.618591,1173.646729,323.679993,1173.628906,323.742188C1173.621704,323.779663,1173.616211,323.817413,1173.613281,323.855469L1173.605469,323.910156L1173.605469,348.097656C1173.608154,348.116638,1173.61084,348.137238,1173.613281,348.15625C1173.614014,348.174957,1173.618286,348.19278,1173.621094,348.210938C1173.630737,348.265106,1173.644043,348.318512,1173.660156,348.371094C1173.677856,348.414307,1173.694336,348.457977,1173.714844,348.5C1173.738281,348.541168,1173.763916,348.580933,1173.789063,348.621094C1173.799194,348.635651,1173.810913,348.648865,1173.820313,348.664063L1173.839844,348.6875C1173.865234,348.715485,1173.891357,348.742676,1173.917969,348.769531C1173.945435,348.792877,1173.972412,348.816681,1174,348.839844C1174.060425,348.883179,1174.124634,348.920593,1174.191406,348.953125L1174.246094,348.976563C1174.263062,348.983093,1174.280273,348.988678,1174.296875,348.996094L1174.351563,349.011719C1174.369995,349.014801,1174.388184,349.01886,1174.40625,349.023438C1174.48877,349.038544,1174.57251,349.042755,1174.65625,349.042969C1174.702148,349.038208,1174.747437,349.030121,1174.792969,349.023438C1174.855835,349.005981,1174.917725,348.985962,1174.980469,348.96875C1175.006714,348.95697,1175.032349,348.945465,1175.058594,348.933594C1175.105713,348.90741,1175.133545,348.891296,1175.179688,348.863281C1175.230347,348.824493,1175.27771,348.78186,1175.324219,348.738281C1176.221924,347.819977,1177.110718,346.894836,1177.992188,345.960938L1178.007813,345.945313L1178.800781,345.078125C1179.611328,344.16333,1180.377563,343.210236,1181.097656,342.222656L1181.976563,340.945313L1181.988281,340.929688L1182.84375,339.628906L1182.851563,339.613281C1183.432617,338.722351,1183.991455,337.8172,1184.527344,336.898438C1184.622925,336.726196,1184.707886,336.548401,1184.785156,336.367188C1184.796997,336.332336,1184.810425,336.298248,1184.816406,336.261719C1184.828003,336.207397,1184.8396,336.153259,1184.839844,336.097656C1184.845947,336.031281,1184.845825,335.964386,1184.835938,335.898438C1184.829224,335.844482,1184.818237,335.791534,1184.808594,335.738281C1184.797607,335.695099,1184.787109,335.651855,1184.773438,335.609375C1184.755493,335.561676,1184.733521,335.515991,1184.714844,335.46875C1184.651978,335.344452,1184.585083,335.22226,1184.515625,335.101563L1183.996094,334.214844L1183.988281,334.199219C1182.72998,332.101288,1181.343262,330.083191,1179.835938,328.15625L1179.289063,327.5L1179.273438,327.484375L1178.714844,326.839844L1178.699219,326.820313C1178.309814,326.388489,1177.914185,325.962677,1177.511719,325.542969L1175.324219,323.269531C1175.283936,323.231476,1175.243042,323.194183,1175.199219,323.160156C1175.131714,323.110596,1175.057007,323.072662,1174.980469,323.039063C1174.918823,323.017944,1174.857056,322.997406,1174.792969,322.984375L1174.765625,322.976563L1174.710938,322.96875C1174.655762,322.957062,1174.598633,322.956024,1174.542969,322.964844z"/>
    <path transform="matrix(-1,0,0,-1,0,0)" style="stroke:#000000;stroke-width:0.05mm;fill:none" d="M1131.417969,323.226563C1131.306641,323.234039,1131.197144,323.25882,1131.09375,323.300781C1131.076538,323.308044,1131.059937,323.316528,1131.042969,323.324219L1131.019531,323.339844C1131.002441,323.347198,1130.985718,323.355499,1130.96875,323.363281C1130.922485,323.394806,1130.877441,323.428253,1130.832031,323.460938C1130.783691,323.505096,1130.736816,323.550964,1130.695313,323.601563L1130.679688,323.625L1130.660156,323.644531C1130.632324,323.692444,1130.60437,323.740234,1130.578125,323.789063C1130.553223,323.849701,1130.529663,323.910828,1130.507813,323.972656C1130.505249,323.991302,1130.499756,324.009064,1130.496094,324.027344C1130.489624,324.0737,1130.48291,324.121582,1130.476563,324.167969L1130.476563,347.835938C1130.481079,347.87381,1130.486084,347.91156,1130.492188,347.949219L1130.5,348.003906C1130.515625,348.057709,1130.532593,348.111084,1130.550781,348.164063C1130.562378,348.188202,1130.574219,348.214172,1130.585938,348.238281C1130.595581,348.254852,1130.60498,348.271698,1130.613281,348.289063C1130.65979,348.358673,1130.710938,348.424957,1130.765625,348.488281C1130.836426,348.548737,1130.910889,348.604645,1130.988281,348.65625C1131.03125,348.675934,1131.075073,348.693359,1131.117188,348.714844C1131.151733,348.728271,1131.187012,348.739807,1131.222656,348.75C1131.241211,348.752838,1131.259155,348.757843,1131.277344,348.761719L1131.414063,348.78125C1131.488403,348.780182,1131.562744,348.777405,1131.636719,348.769531C1131.700806,348.753723,1131.764648,348.736603,1131.828125,348.71875C1131.854614,348.706207,1131.875854,348.696167,1131.902344,348.683594C1131.978149,348.646332,1132.050171,348.602173,1132.117188,348.550781L1132.15625,348.511719L1132.179688,348.496094L1132.203125,348.46875C1132.964966,347.661041,1133.726074,346.862274,1134.496094,346.0625C1134.508545,346.050049,1134.519287,346.036255,1134.53125,346.023438C1135.532349,344.881042,1136.477417,343.690918,1137.363281,342.457031L1138.300781,341.203125L1138.316406,341.183594L1139.222656,339.90625C1139.515991,339.464661,1139.812866,339.021301,1140.109375,338.582031L1140.121094,338.5625L1140.972656,337.226563C1141.011719,337.16275,1141.050781,337.098969,1141.089844,337.035156C1141.098755,337.016815,1141.106934,336.998169,1141.117188,336.980469C1141.194458,336.826874,1141.266479,336.670654,1141.332031,336.511719L1141.339844,336.480469C1141.367432,336.380402,1141.398682,336.281342,1141.433594,336.183594C1141.445313,336.100739,1141.452148,336.017303,1141.453125,335.933594C1141.450439,335.904846,1141.447754,335.876434,1141.445313,335.847656C1141.434814,335.793884,1141.423584,335.740631,1141.410156,335.6875C1141.383301,335.615173,1141.35437,335.54364,1141.324219,335.472656C1141.303955,335.42746,1141.281372,335.383392,1141.257813,335.339844C1140.839844,334.641449,1140.412842,333.948853,1139.976563,333.261719L1139.964844,333.242188C1139.521362,332.558685,1139.068237,331.881561,1138.605469,331.210938C1138.363037,330.87915,1138.125,330.544556,1137.890625,330.207031C1136.963501,328.921509,1135.987549,327.671875,1134.964844,326.460938L1134.308594,325.746094L1134.292969,325.730469L1132.199219,323.535156C1132.166016,323.503204,1132.13208,323.471985,1132.097656,323.441406C1132.035767,323.399384,1131.972168,323.359833,1131.90625,323.324219C1131.811279,323.286041,1131.713013,323.25705,1131.613281,323.234375C1131.548218,323.230072,1131.483154,323.227844,1131.417969,323.226563z"/>
    <path transform="matrix(-1,0,0,-1,0,0)" style="stroke:#000000;stroke-width:0.05mm;fill:none" d="M1242.519531,323.226563C1242.483154,323.231232,1242.446655,323.233246,1242.410156,323.238281C1242.345459,323.251617,1242.28186,323.269379,1242.21875,323.289063C1242.193848,323.300964,1242.169312,323.312225,1242.144531,323.324219C1242.126709,323.330811,1242.111206,323.340668,1242.09375,323.347656C1242.076294,323.355988,1242.061401,323.367676,1242.042969,323.375C1242.004639,323.401825,1241.96582,323.427551,1241.929688,323.457031C1241.901978,323.482666,1241.875,323.509094,1241.847656,323.535156L1239.730469,325.746094L1239.699219,325.785156L1239.082031,326.484375C1238.877563,326.733734,1238.670288,326.981262,1238.460938,327.226563L1238.445313,327.242188C1238.039185,327.737152,1237.645752,328.242584,1237.265625,328.757813C1236.586426,329.640808,1235.926147,330.538116,1235.285156,331.449219L1235.273438,331.464844L1234.328125,332.832031L1234.320313,332.851563C1233.951294,333.419189,1233.579102,333.983887,1233.203125,334.546875L1233.191406,334.5625L1233.03125,334.839844C1232.893677,335.082855,1232.772705,335.334869,1232.667969,335.59375C1232.646729,335.664368,1232.631836,335.73645,1232.617188,335.808594C1232.599365,335.890656,1232.59375,335.974731,1232.597656,336.058594C1232.600708,336.085938,1232.604004,336.113068,1232.605469,336.140625L1232.613281,336.167969C1232.622437,336.217743,1232.633423,336.26712,1232.644531,336.316406C1232.661743,336.372559,1232.679688,336.428955,1232.699219,336.484375C1232.889404,336.931061,1233.123779,337.357513,1233.398438,337.757813L1234.179688,338.949219L1234.191406,338.96875C1234.72168,339.761932,1235.267334,340.544464,1235.828125,341.316406C1236.556885,342.322388,1237.304565,343.314819,1238.070313,344.292969C1238.546997,344.888184,1239.036865,345.473022,1239.539063,346.046875C1239.600342,346.118195,1239.664185,346.187256,1239.730469,346.253906L1241.847656,348.472656C1241.882568,348.502716,1241.915039,348.53537,1241.949219,348.566406C1242.025757,348.620209,1242.106567,348.667633,1242.191406,348.707031C1242.244751,348.723969,1242.297852,348.741638,1242.351563,348.757813C1242.388062,348.764038,1242.424683,348.767609,1242.460938,348.773438C1242.516968,348.776031,1242.572998,348.777924,1242.628906,348.78125L1242.792969,348.757813C1242.864502,348.736694,1242.934692,348.711395,1243.003906,348.683594C1243.059692,348.648956,1243.114014,348.61264,1243.171875,348.582031C1243.185913,348.570068,1243.199463,348.557373,1243.214844,348.546875C1243.228882,348.5336,1243.243042,348.520355,1243.257813,348.507813C1243.296143,348.467773,1243.332886,348.426331,1243.367188,348.382813C1243.379028,348.368622,1243.390503,348.354095,1243.402344,348.339844C1243.434692,348.272797,1243.469727,348.207001,1243.503906,348.140625C1243.52124,348.087555,1243.540405,348.0354,1243.550781,347.980469C1243.557007,347.933746,1243.563843,347.886536,1243.570313,347.839844L1243.570313,324.171875C1243.56604,324.134216,1243.560547,324.096008,1243.554688,324.058594L1243.546875,324.003906L1243.53125,323.949219C1243.514038,323.896271,1243.494263,323.844238,1243.472656,323.792969C1243.444946,323.743958,1243.416382,323.696289,1243.386719,323.648438C1243.357422,323.612732,1243.328247,323.577026,1243.296875,323.542969L1243.28125,323.519531C1243.267456,323.508057,1243.252197,323.495697,1243.238281,323.484375C1243.182617,323.43457,1243.121216,323.39212,1243.058594,323.351563C1242.974854,323.310242,1242.886963,323.27829,1242.796875,323.253906C1242.741943,323.246002,1242.687134,323.237427,1242.632813,323.226563L1242.519531,323.226563z"/>
    <path transform="matrix(-1,0,0,-1,0,0)" style="stroke:#000000;stroke-width:0.05mm;fill:none" d="M1155.464844,323.492188C1155.428223,323.495667,1155.39209,323.501404,1155.355469,323.503906C1155.283081,323.522095,1155.211304,323.54245,1155.140625,323.566406C1155.114258,323.577515,1155.088745,323.590332,1155.0625,323.601563C1155.045532,323.609192,1155.031982,323.620667,1155.015625,323.628906L1154.988281,323.640625C1154.950073,323.667419,1154.912354,323.694794,1154.875,323.722656C1154.848755,323.749939,1154.821899,323.77652,1154.792969,323.800781C1154.03125,324.592468,1153.290527,325.365295,1152.53125,326.160156C1152.517944,326.174133,1152.504883,326.188629,1152.492188,326.203125L1151.621094,327.226563C1150.744507,328.274017,1149.913086,329.358307,1149.128906,330.476563L1148.378906,331.5L1148.359375,331.523438L1147.644531,332.566406L1147.628906,332.585938L1146.9375,333.648438C1146.666382,334.086243,1146.397583,334.527039,1146.132813,334.96875C1145.99585,335.220001,1145.890137,335.487122,1145.824219,335.765625C1145.812256,335.858856,1145.808228,335.952881,1145.808594,336.046875L1145.8125,336.132813C1145.819458,336.187866,1145.829956,336.242004,1145.835938,336.296875C1145.84314,336.333893,1145.854492,336.369629,1145.863281,336.40625C1146.141968,337.078552,1146.494629,337.717743,1146.914063,338.3125C1148.543579,340.838806,1150.33374,343.257874,1152.273438,345.554688C1152.285767,345.569794,1152.300537,345.582031,1152.3125,345.597656C1153.126465,346.482239,1153.954468,347.353241,1154.796875,348.210938C1154.836792,348.249359,1154.878906,348.28537,1154.921875,348.320313L1155.015625,348.382813C1155.049316,348.399902,1155.08313,348.417145,1155.117188,348.433594L1155.140625,348.441406C1155.175781,348.454407,1155.210815,348.467773,1155.246094,348.480469C1155.273682,348.485962,1155.300781,348.493683,1155.328125,348.5C1155.401978,348.509918,1155.476196,348.516205,1155.550781,348.515625L1155.578125,348.511719L1155.609375,348.511719L1155.71875,348.496094C1155.782593,348.481049,1155.844482,348.459351,1155.90625,348.4375C1155.930786,348.425568,1155.955811,348.414154,1155.980469,348.402344C1156.014282,348.384918,1156.045166,348.363068,1156.078125,348.34375C1156.107178,348.322174,1156.13562,348.299774,1156.164063,348.277344C1156.198242,348.245087,1156.231323,348.211823,1156.265625,348.179688C1156.278809,348.166626,1156.28772,348.150726,1156.300781,348.136719C1156.322021,348.105774,1156.343628,348.075073,1156.363281,348.042969C1156.388184,348.00415,1156.411011,347.964081,1156.429688,347.921875C1156.440674,347.896057,1156.450684,347.869843,1156.460938,347.84375C1156.475098,347.789032,1156.489746,347.734436,1156.503906,347.679688C1156.507202,347.643158,1156.511108,347.606689,1156.515625,347.570313L1156.515625,324.4375C1156.512695,324.417053,1156.510498,324.399353,1156.507813,324.378906L1156.507813,324.351563C1156.502075,324.324341,1156.495239,324.297363,1156.492188,324.269531C1156.477295,324.215515,1156.459473,324.162384,1156.441406,324.109375C1156.429443,324.084808,1156.418091,324.059784,1156.40625,324.035156C1156.396973,324.018402,1156.386841,324.002014,1156.378906,323.984375C1156.347168,323.938202,1156.315186,323.892273,1156.28125,323.847656L1156.242188,323.808594C1156.223999,323.78772,1156.204468,323.768158,1156.183594,323.75C1156.126953,323.701385,1156.065308,323.659393,1156.003906,323.617188L1155.976563,323.605469L1155.929688,323.582031C1155.903809,323.571259,1155.877808,323.560638,1155.851563,323.550781L1155.824219,323.539063L1155.769531,323.523438C1155.751099,323.520447,1155.73291,323.516174,1155.714844,323.511719C1155.631958,323.500031,1155.548462,323.493774,1155.464844,323.492188z"/>
    <path transform="matrix(-1,0,0,-1,0,0)" style="stroke:#000000;stroke-width:0.05mm;fill:none" d="M1218.492188,323.492188C1218.473877,323.495056,1218.455688,323.494354,1218.4375,323.496094C1218.354248,323.508575,1218.271973,323.526611,1218.191406,323.550781C1218.12207,323.577118,1218.054932,323.609039,1217.992188,323.648438C1217.946899,323.681,1217.902588,323.714691,1217.859375,323.75C1217.815674,323.798645,1217.771118,323.846649,1217.726563,323.894531C1217.701294,323.934601,1217.675781,323.974396,1217.652344,324.015625L1217.628906,324.0625C1217.616943,324.088348,1217.605591,324.114685,1217.59375,324.140625C1217.581055,324.184082,1217.567627,324.230042,1217.554688,324.273438C1217.544922,324.329315,1217.539307,324.385498,1217.53125,324.441406L1217.53125,347.570313C1217.533813,347.588593,1217.536743,347.610596,1217.539063,347.628906C1217.540283,347.6474,1217.543213,347.665497,1217.546875,347.683594C1217.556641,347.728027,1217.564941,347.772644,1217.578125,347.816406C1217.59021,347.851868,1217.603149,347.887115,1217.617188,347.921875C1217.647949,347.980164,1217.680054,348.037628,1217.714844,348.09375C1217.7323,348.11554,1217.747559,348.138824,1217.765625,348.160156L1217.804688,348.199219C1217.822998,348.219849,1217.841797,348.240143,1217.863281,348.257813C1217.883667,348.276337,1217.904297,348.295135,1217.925781,348.3125L1218.042969,348.390625C1218.068359,348.401123,1218.092041,348.414795,1218.117188,348.425781C1218.186401,348.456299,1218.258789,348.478027,1218.332031,348.496094L1218.46875,348.515625C1218.543091,348.515808,1218.617554,348.513367,1218.691406,348.503906C1218.765137,348.491089,1218.836182,348.467621,1218.90625,348.441406C1218.932251,348.429382,1218.958496,348.418457,1218.984375,348.40625C1219.023193,348.384918,1219.067749,348.35907,1219.105469,348.335938C1219.14917,348.301636,1219.191284,348.265564,1219.234375,348.230469L1219.253906,348.207031L1221.328125,346.046875L1221.359375,346.015625L1222.136719,345.128906L1222.152344,345.105469L1222.90625,344.195313L1222.921875,344.179688L1223.652344,343.253906L1223.671875,343.226563C1224.174927,342.546448,1224.717896,341.814697,1225.222656,341.136719L1225.234375,341.117188L1226.054688,339.953125L1226.070313,339.933594L1226.859375,338.753906C1227.174316,338.273224,1227.481689,337.787262,1227.78125,337.296875C1227.974243,336.964386,1228.12146,336.607269,1228.214844,336.234375C1228.225464,336.142303,1228.233154,336.049896,1228.230469,335.957031L1228.230469,335.929688L1228.222656,335.875C1228.213257,335.832062,1228.204224,335.789124,1228.195313,335.746094C1228.176147,335.685181,1228.157104,335.624207,1228.140625,335.5625C1228.12207,335.519653,1228.105103,335.476257,1228.085938,335.433594L1228.070313,335.410156C1227.521973,334.371155,1226.91687,333.36322,1226.257813,332.390625L1225.734375,331.597656C1225.546753,331.333557,1225.363159,331.066498,1225.183594,330.796875C1224.058838,329.200409,1222.84729,327.666962,1221.554688,326.203125C1220.796997,325.391205,1220.028442,324.588867,1219.25,323.796875C1219.222656,323.770844,1219.194458,323.745636,1219.167969,323.71875L1219.121094,323.6875L1219.101563,323.667969C1219.052612,323.639771,1219.003174,323.612213,1218.953125,323.585938C1218.919922,323.570099,1218.885498,323.557129,1218.851563,323.542969C1218.80603,323.530945,1218.760498,323.519409,1218.714844,323.507813C1218.669189,323.502258,1218.623901,323.496796,1218.578125,323.492188L1218.492188,323.492188z"/>
</svg>
