<?xml version="1.0" encoding="UTF-8"?>
<svg xmlns="http://www.w3.org/2000/svg" width="219.086mm" height="122.119mm" viewBox="-1048.085693 -550.118530 219.085693 122.118530">
    <path transform="matrix(-1,0,0,-1,-1052.078003,-602.261719)" style="stroke:#000000;stroke-width:0.05mm;fill:none" d="M-5.077969,-132.261719C-0.348939,-128.495636,-12.365615,-121.67218,-16.077957,-117.261734C-13.393521,-96.068085,-39.975796,-70.584259,-93.077988,-66.261711C-98.495941,-56.459614,-108.082458,-53.043209,-117.077988,-52.261723C-122.256279,-50.959827,-109.455841,-60.66177,-113.078033,-67.261749C-154.938141,-85.672363,-178.120453,-121.967438,-188.331192,-146.77504C-200.810944,-149.284515,-215.52034,-146.07486,-223.077972,-157.261719C-205.783218,-154.849014,-201.904251,-166.6353,-191.318161,-161.224014C-187.759506,-165.721176,-176.544907,-169.038574,-170.078033,-174.261703C-167.906723,-170.967163,-164.744141,-164.637833,-178.398117,-150.430634C-169.115555,-147.636047,-151.93364,-123.607758,-137.120148,-119.675476C-118.215508,-114.65728,-103.620354,-109.986549,-75.078003,-114.261711C-73.794937,-123.480637,-78.744202,-131.172791,-83.103775,-137.818619C-71.406921,-139.199661,-62.358078,-128.979813,-56.078014,-119.261711C-39.570847,-122.251663,-37.066963,-124.157967,-28.881338,-126.473015C-19.98374,-129.802597,-8.835802,-136.604691,-5.077969,-132.261719z"/>
</svg>
