<?xml version="1.0" encoding="UTF-8"?>
<svg xmlns="http://www.w3.org/2000/svg" width="127.659mm" height="87.049mm" viewBox="-514.495300 -839.495605 127.658783 87.049438">
    <path transform="matrix(-0.26455,0,0,-0.26455,-385.193298,-750.674194)" style="stroke:#000000;stroke-width:0.05mm;fill:none" d="M193,335.335907C172.290451,333.887665,137.323914,327.840363,124.059692,323.412964C111.155449,319.105713,95.505486,311.035034,83,302.238434C72.70063,294.993683,46.462814,269.601288,38.838573,259.5C30.748514,248.78154,5.823754,212.842911,6.211352,212.455307C6.594552,212.072113,8.494934,213.238419,15.842358,218.366058C19.264128,220.754059,20.55628,221.118225,23.588966,220.549286C28.315901,219.662506,35.714439,212.332748,39.297028,204.987244C42.814129,197.776001,43.604824,190.740967,43,172.040787C42.478043,155.90271,43.767929,144.892761,46.508606,142.092682C47.685463,140.89032,48.238976,141.483337,50.309261,146.164627C53.498806,153.376755,59.000401,158.625671,65.345009,160.509811C72.102875,162.516693,84.243011,162.453049,88.594902,160.387939C92.587784,158.493195,101.502342,149.145477,105.610855,142.545212C115.418121,126.789925,118.61203,122.389137,126.528008,113.724098C134.796753,104.672897,137.626221,102.292892,138.764618,103.43129C139.027725,103.694389,137.958572,106.067482,136.388718,108.704826C130.402313,118.762016,124.647591,134.55127,117.535484,160.43251C110.519386,185.964401,109.545227,196.770142,112.495178,216.341492C114.572212,230.12149,115.380272,231.515335,121.247887,231.439255C127.938919,231.352509,135.104004,226.070358,145.800461,213.338943C150.577972,207.652527,155.193115,203,156.056335,203C156.919556,203,158.94751,204.390152,160.562912,206.089218C169.233368,215.208755,178.908539,216.831009,189.849197,210.999695C197.780594,206.772308,206.178696,197.826996,208.791275,190.823395C209.866058,187.9422,211.20636,185.431213,211.76973,185.243423C212.333084,185.055634,213.771011,186.274048,214.965103,187.950989C217.419968,191.398529,220.128769,191.808685,225.53212,189.551025C229.391678,187.9384,229.593735,187.373032,227.649597,183.625717C226.637665,181.675201,226.520767,179.578766,227.183197,175.261398C227.669388,172.092636,228.164566,168.824997,228.283585,168C228.744751,164.803528,225.541641,166.719589,223.268433,171L220.878601,175.5L221.65065,167.5C222.427078,159.45462,222.492706,154.573425,221.973343,143.5C221.647263,136.547531,224.284866,130.169907,228.67627,127.292542C230.166718,126.315971,232.568359,122.817696,234.163406,119.299873C237.434189,112.086319,237.531326,111.582138,235.5,112.361626C233.302414,113.204918,233.636108,111.448997,237.102661,103.928185C239.792221,98.093132,240.608887,97.137634,243.23616,96.752029C244.903107,96.507378,247.669403,96.603607,249.383484,96.965874C252.101624,97.540352,252.46666,98.000069,252.239136,100.562271L251.978271,103.5L254.540054,100.5C259.317963,94.904808,265.184845,84.086807,267.648071,76.330109C275.432953,51.81538,264.604065,25.282232,244.248093,18.994907C226.558273,13.531077,200.013809,19.794256,188.445694,32.161514C183.624649,37.315594,179.589233,45.005722,178.47319,51.165676C177.334717,57.449436,180.26355,65.181786,185.542114,69.828156C197.093765,79.99633,211.895645,76.861282,221.75,62.159306L226,55.818607L226,59.4202C226,63.915016,222.943024,70.538284,218.44072,75.79821C206.339981,89.935219,183.458496,85.895744,173.46814,67.858803C170.760345,62.970028,170.5,61.664894,170.5,52.978973C170.5,44.261303,170.771881,42.911266,173.722198,36.978973C180.111008,24.132803,189.972641,15.769515,204.475952,10.897851C236.286484,0.212693,267.289948,10.372204,279.553589,35.5C289.679779,56.248272,288.113647,77.564133,274.956573,98.06765C272.085846,102.541328,271.953369,103.096214,273.408569,104.551437C274.283875,105.42672,275,106.95414,275,107.945702C275,111.00119,272.206696,117.862457,269.538727,121.360329C268.142426,123.190979,267,124.956642,267,125.284027C267,125.611412,268.677155,126.018936,270.72702,126.189636C275.390289,126.577965,276.964691,129.307587,276.98526,137.039902C277.010162,146.402344,273.31189,157.864929,266.189728,170.5C263.336273,175.562164,262.877136,177.234909,263.25238,181.201721C263.695892,185.890228,264.255066,186.788254,271.591064,194.593384C275.123779,198.352036,279.122803,199.69458,282.865356,198.378387C284.889435,197.666565,285.604889,196.56131,286.164825,193.281281C287.327515,186.47049,290.848297,181,294.06897,181C295.700439,181,295.674774,181.362549,293.715057,186.001083C292.253784,189.459793,291.922546,191.32254,292.640991,192.041C294.539307,193.939316,297.877655,189.807938,299.46283,183.598633C300.291443,180.352875,301.141357,177.525299,301.351532,177.315125C302.007111,176.659546,303.075409,185.068985,302.462494,186.060669C302.143219,186.577301,302.328186,187,302.873596,187C303.419006,187,304.150879,186.100006,304.5,185C305.780151,180.966583,306.923553,183.169998,306.816315,189.463699C306.69281,196.711273,305.364655,198.696213,298.804749,201.437119C294.06485,203.417572,293.381958,204.659256,295.652039,207.169418C302.482513,214.722275,319.480743,216.129288,327.518097,209.807114C329.046631,208.604752,331.584869,204.781281,333.1586,201.310501C334.73233,197.839722,336.352936,195.003937,336.759949,195.008743C337.166992,195.01355,339.292114,197.82605,341.482483,201.258743C343.672882,204.691437,347.72287,209.932007,350.482483,212.904449C356.288025,219.157684,366.471466,226.985733,368.860016,227.031265C369.761993,227.048477,372.75,228.169357,375.5,229.522125C380.851685,232.154724,387.822357,232.777634,389.799988,230.800003C394.206879,226.393127,385.308502,159.835632,377.370331,137.829117C374.456573,129.751495,369.725159,121.362091,363.995026,114.112915C361.609802,111.095406,360.513489,109,361.319916,109C364.400421,109,377.226746,119.303535,381.619537,125.306931C384.111908,128.71312,386.811615,132.399994,387.618896,133.5C388.426178,134.600006,390.079681,137.141296,391.293335,139.147339C393.320557,142.498093,397.912079,148.598129,404.504395,156.698837C407.682465,160.604065,418.144257,166,422.53775,166C424.755463,166,426.231537,166.699554,427.2854,168.25L428.814728,170.5L433.484283,166C438.890808,160.78981,439.901855,159.153214,441.511902,153.005692L442.691956,148.5L444.394653,156.5C445.331116,160.899994,446.788971,167.199997,447.634308,170.5C448.479645,173.800003,450.455505,182.223557,452.025146,189.219009C455.099487,202.920761,458.004059,210.680588,460.402924,211.60112C461.230621,211.918732,462.817566,213.720505,463.929474,215.605026C465.82077,218.810562,466.202454,218.991257,469.849945,218.408005C472.272797,218.020569,474.007996,218.203903,474.433411,218.892273C475.601776,220.782715,478.528778,220.123978,482.841309,217C487.555511,213.585037,489.592682,213.131119,488.451233,215.75C488.031708,216.712494,487.560181,219.153275,487.403351,221.17395C487.246552,223.194626,486.193756,226.660049,485.063843,228.874878C478.972229,240.815414,450.841431,273.142059,435.44931,285.889618C413.552277,304.024506,388.331818,316.359558,356.435425,324.534515C349.092255,326.416534,339.886017,328.338348,335.977081,328.805206C326.296661,329.961365,313.881073,329.320068,308.745819,327.398651C301.27887,324.604797,299.62088,324.606689,296.285828,327.412933C292.406433,330.677246,291.20575,330.667938,290.377289,327.367157C289.219971,322.755981,294.867493,300.534149,296.724701,302.391357C297.108856,302.775513,297.315338,306.219604,297.183594,310.044922C296.962006,316.478485,297.098541,317,299.00415,317C302.151306,317,307.953094,314.285797,308.641693,312.491364C309.322021,310.718414,306.449554,303.617981,304.34552,301.871796C302.911713,300.681854,302.478394,297,303.772156,297C304.196838,297,306.244995,298.401855,308.323608,300.115204C310.402222,301.828583,312.417236,302.915497,312.801453,302.530579C313.185638,302.14566,313.496368,296.131287,313.491913,289.165344C313.483215,275.503174,312.199799,269.738373,307.235565,261.06311C301.865082,251.677933,290.351013,241.586884,277.316711,234.841934C268.709686,230.387985,267.269043,230.184021,266.072144,233.25C264.527008,237.207932,258.739868,241.738022,249.798523,245.988739C240.771591,250.280151,235.566086,254.896347,234.367188,259.673126C233.205002,264.30368,237.654114,268.504791,244.906601,269.625031C249.066101,270.267517,249.281647,270.185028,248.750488,268.153839C247.970383,265.170746,249.466919,264.587585,253.166306,266.433075C256.135773,267.914429,256.585236,267.866455,261.403564,265.553802C264.206604,264.208435,268.975006,261.050446,272,258.536072C275.024994,256.021698,278.174988,254.089554,279,254.242447C281.309052,254.670364,281.36145,258.618713,279.119995,263.281952C278.004883,265.601868,276.821381,269.075012,276.48999,271C276.15863,272.924988,274.736389,275.703308,273.329468,277.173981C269.901855,280.757019,269.281006,286.94519,271.457947,295.828369L273.161926,302.781586L270.477509,308.455963C268.486145,312.665375,267.607727,316.501648,267.075134,323.315186L266.357208,332.5L264.527313,328.5C261.882507,322.718689,261.281952,310.289215,263.445282,306.105804C265.14389,302.821045,265.026306,300.277161,262.850983,293.25C262.297638,291.462494,261.365234,290,260.778961,290C260.053619,290,259.928497,292.853943,260.387299,298.931824C260.959625,306.513336,260.815735,308.062927,259.435394,309.181824C251.465088,315.642639,247.595856,320.042633,244.724304,325.910889L241.5,332.5L241.193695,327.71286C240.833344,322.081146,243.941025,314.414642,248.85112,308.822357C252.812729,304.310333,252.991119,302.158081,249.178482,304.872925C247.626633,305.977905,245.513214,308.821075,244.481964,311.19101C242.100494,316.663971,242.057968,316.711823,241.040344,315.065277C239.657974,312.828552,242.517288,305.276703,246.354797,301.029053C250.766159,296.146179,253.347382,291.332733,252.000748,290.500458C250.719666,289.70871,246.033249,294.712128,244.800995,298.187225C244.153778,300.012451,242.884399,301.086121,240.843781,301.534302C239.191391,301.897247,235.362076,304.212006,232.334198,306.678253C229.306335,309.14447,226.572052,310.905365,226.258011,310.591339C225.943985,310.277313,226.510803,308.193634,227.517609,305.960938C229.590118,301.364929,235.168198,296,237.874283,296C238.866867,296,240.191559,294.875,240.818039,293.5C242.13707,290.605072,241.375763,290.348083,238.157837,292.60199C234.937057,294.85791,234.241028,293.517853,236.82103,290.028198C238.01947,288.407227,239,286.837769,239,286.540497C239,285.346924,234.298355,286.102722,232.086731,287.651794C229.75148,289.287476,229.732742,289.274323,230.16835,286.306274C230.573059,283.548859,230.17984,283.084656,225.255188,280.506256C219.013962,277.238556,213.408936,271.131409,212.001602,266.065338C211.456848,264.104401,211.008652,258.994568,211.005569,254.710159C210.999237,245.851089,212.328293,242.450912,218.911301,234.484558C223.386963,229.06839,223.06192,228.222549,216.44635,228.070282C205.39006,227.815811,184.879883,248.545822,179.04187,265.875702C173.468521,282.419952,174.920197,301.791412,182.61319,313.53241C185.001572,317.177521,186.474503,316.592834,189.815109,310.673615C192.561218,305.80777,197.484848,301.15152,198.65094,302.317627C198.913528,302.5802,197.510132,306.008423,195.532288,309.935883C191.416901,318.107941,190.806519,323.023743,193.533081,326.03656C195.936981,328.692841,198.773056,328.207489,201.388031,324.692261C203.166077,322.302124,203.449402,320.619659,203.293076,313.379486C203.131927,305.915436,203.313873,304.913788,204.779617,305.196075C208.984634,306.00589,210.151199,315.490509,207.453491,326.93576C205.195847,336.513977,205.695328,336.223694,193,335.335907z"/>
</svg>
