<?xml version="1.0" encoding="utf-8"?>
<svg version="1.1" id="Layer_1" xmlns="http://www.w3.org/2000/svg" xmlns:xlink="http://www.w3.org/1999/xlink" x="0px" y="0px"
	 viewBox="0 0 1683.4 1720" style="enable-background:new 0 0 1683.4 1720;" xml:space="preserve">
<path d="M827.7,60.2c3.6,0.7,7.4,0,11,1c14.7,14,48.6,71.9,56.6,80.8c1.7,2.3,8.5,14.3,8.3,17.3c1.8,1.4,3.5,3.1,4.2,5.3
	c-0.1,2-1,3.8-2.1,5.4c1.6,1,3.4,2.2,4.2,4c0.5,6.6-1.9,26-1.3,35c-0.2-1.3-0.4-2.7-0.6-4c1.3,15.8-6.5,12,12.6,108.3
	c0,0.7,19.1,45.3,19.3,45.9c0.7,1,12.9,22.6,15.4,30.1c1.5,5,2.8,10,4.3,15c0.3,0.1,1,0.1,1.3,0.2c-0.1-6.3,4.2-11.4,7.1-16.6
	c1.1-2.4,3.7-3.4,5.7-4.9c7.4-5.2,1.6-4.1,12.5-7.8c5.5-1.3,10.8-3.6,16.5-3.4c4-0.4,7.9,1.2,11.9,0.9c5.1-0.3,19.3,4.3,14.1,7.1
	c-3.6,2.6-8.3,1.5-12.2,3.2c-5,1.9-20.2,8.7-25.2,13.6c-3.2,6.8-2.9,13.8-5.5,17.4c6.4,13.4,8.3,23.8-5.4,33.1
	c0.2,1.2,1,2.2,1.6,3.2c-17.5,37.4-19.3,40.7-27.7,107.1c-0.3,4.2-1.6,8.3-0.8,12.6c0,0,0,20.4-2.4,31.7
	c-7.9,38,0.7,96.2,25.4,132.8c6.9-8.9,13.7-17.9,20.5-26.8c2.4-3.2,6.9-3.5,9.6-6.2c31.9-36.7,60.4-64,70.8-78.6
	c-3.1-5.5-7.5-10.3-10.9-15.7c5.2,3.3,10.3,6.6,15.6,9.7c2.4-2.6,4.4-5.5,6.9-8c-3.9-5.7-8.2-11.2-12-16.9
	c5.8,3.4,11.3,7.7,17.5,10.4c2.3-2.2,4.4-4.7,6.4-7.1c-4.8-6-9-12.3-13.5-18.5c6.7,4,13.1,8.5,20.2,11.9c2.8-2.8,5.8-5.5,8.6-8.2
	c-1.4-2.1-17.3-24.2-17.6-24.8c8.2,5.6,19.2,11.7,27.6,16.3c2.4-2,4.8-3.9,7.3-5.8c-7.2-9.6-13.9-19.5-21.1-29
	c-0.1-0.4-0.3-1.1-0.5-1.4c11.6,8,24,14.7,36.7,20.8c3.1-1.8,6.4-3.4,9.5-5.3c-9.4-13.7-19.4-27-28.9-40.5
	c24.3,15.7,45.4,25.1,53.9,27.9c2.5-0.9,4.7-2.3,7.1-3.4c-9.7-17.8-19.2-35.8-28.9-53.7c0,0,29.6,26,65.3,42.4
	c1.3-0.3,2.6-0.5,3.9-0.7c-0.1-3.6-20.1-63.2-20.1-65.5c22.2,28.6,60,61.3,70.5,61.8c-1.1-5.5-12.2-62-12.9-67.6
	c23.6,42.9,68.3,76.9,69.3,77.8c-4.1-21.8-8.3-43.5-12.6-65.3c16.7,27.1,37.6,51.7,62.1,71.9c-3.9-80.5,144.1-96.7,204.7-61.7
	c2.2,1.4,4.9,2.3,6.5,4.6c-7.9-2.8-20.5-3.4-28.8-2.9c-0.2-0.1-0.6-0.2-0.8-0.3c-1.5,0.2-3.1,0.4-4.6,0.6c0-0.1,0.1-0.4,0.1-0.6
	c-3.4,1.1-39.1,2-73.5,21.3c-18.6,11.2-34.6,27.1-33.6,48.7c0.2,3.4,0,7,1.5,10.1c6.4,6.9,12.3,14.4,17.4,22.3
	c0.4,0.7,1.1,1.2,1.9,1.5c0.1-0.9,0.3-1.7,0.4-2.6c5.5,4.7,9.5,11.6,9.5,19c-0.2,1.8,1.2,3.1,2,4.5c0.9,1.6,1,3.4,1.4,5.2
	c0.7,1.4,1.8,2.6,2.5,4.1c0.9,1.9,1.3,4.2,2.8,5.8c1.3,1.3,2,3.1,2.6,4.8c0.6,1.8,2.3,2.9,3.3,4.5c19.9,29.6,23,18.2,26.3,18.9
	c5-0.9,0.6,18.4,0.3,22.3c-0.2,12.6,11.5,27.5-1.2,37.7c2.2,3.9,5.6,7.2,7,11.6c5.3,20.7,8.5,17,11.5,23.6c2.2,1.6,5,1.7,7.5,2.5
	c22.8,6.3,38,5.9,43.1,6.6c0.3-0.1,0.9-0.3,1.1-0.4c0.3,0.1,0.8,0.4,1.1,0.5c8.5-0.4,17.3-0.4,25.4-3.2c-3,4.3-29.8,17.4-55.2,19.6
	c-5.9,1.4-11.9,1.2-17.8,2.1c-0.1,6.4-3.7,19.5-5.7,25.5c-7.8,15.9-15.6,3.7-23.2,2.8c-1.4-2.2-4.4-0.2-6.4,0.1
	c0.6-1.3,1.5-2.6,2.4-3.8c-0.8-0.5-1.6-1.1-2.4-1.5c-2.1,0.3-3.9,1.4-5.7,2.4c-1.6,0.3-3.2,0.6-4.8,0.9c1.4-2.6,3.6-4.7,4.7-7.4
	c-1.1-1-2.2-2.1-3.5-3c-1.3-0.2-2.6,0.5-3.8,0.9c-3.6,1.4-7.4,1.7-11.1,2.2c0-0.2,0.1-0.7,0.1-1c2.5-2.7,5.5-5,7.6-8
	c-1.2-1.1-2.3-2.2-3.5-3.1c-6.5,2.7-13,5.5-20.1,6.1c-0.7-3,6.7-6.7,10-13.2c0-0.3,0-1-0.1-1.3c-1.2-1.3-2.2-2.7-3.6-3.7
	c-5.3,1.1-2.8,2.8-15.7,4.9c1-2.4,3.2-3.9,4.8-5.8c1.4-1.5,2.4-3.4,4-4.8c0-0.4,0.1-1.1,0.1-1.5c-1.2-1.6-2.6-3-3.8-4.5
	c-3.3,1.1-6.9,1.6-10.3,1.7c0-0.4,0.1-1.1,0.1-1.5c2.1-1.7,4.7-3,6.1-5.5c-1-1.3-2-2.7-3-4c-3,0.7-6,1.5-9.1,1.4
	c5.5-7.6,8.4-2.5,2.2-10.8c-1,0.2-2.1,0.4-2.6,1.4c-2.3,0.1-4.6,0.1-6.9,0.1c2.5,6,3.1,12.6,2.5,19c6.3,11.4,42,57.6,32.4,74.4
	c-3.3-2.4-4.9-6.3-6.8-9.7c-2.6-5.2-11.5-24.1-26.3-40.4c-1.3,1.1-2.5,2.3-4.4,1.9c-0.7,3-0.9,6-1.5,9c2.1,0.7,4.2,1.2,6.4,1.7
	c-2,1.2-4,2.4-6.2,3.1c-0.2,0.3-0.6,0.8-0.9,1.1c-0.1,2.8-0.7,5.5-0.5,8.3c2.9,1.2,6.3,1.1,9.1,2.8c-1.6,0.9-3.3,1.5-5,1.8
	c-1.5,0.7-3.1,1.3-4.7,1.7c-0.4,2.8-0.5,5.7-0.4,8.5c3.2,0.9,6.5,1.8,9.8,2.1c0,0.4,0,1.1-0.1,1.5c-1.3,0.5-2.6,1-4,1.4
	c-1,0.7-2,1.3-3.1,2c-0.9,0-1.8,0-2.7,0c-0.6,2.6-0.8,5.2-0.9,7.8c1.9,1.7,4.2-0.6,6.3,0.8c-1.6,2-3.5,4.1-6.1,4.8
	c-0.1,0.8-0.2,1.7-0.3,2.6c0.6,0,1.7,0,2.3,0c-1.5,1.8-3.2,3.6-3.5,6.1c-2.7,19.6-14.8,12.9-26,9.6c-3.9-1.4-8.2-1.1-12.1-2.7
	c-3.3,0.5-14.4,4.3-6.9-8.8c-0.8-3.1,0.3-6.2,0.3-9.4c-1.3-29.3-27.7-99.2-36.9-104.5c-1.7-1-3-2.4-4.1-3.9c0.2-0.7,0.4-1.4,0.7-2
	c1.2-1.2,2.9-2.1,3.1-3.9c-4.5-9.4-12.4-16.6-18.2-25.1c-0.9-1.4-1.2-3.1-2-4.6c-4.6-4.4-10.5-10.1-9.5-15.5c3.7-2.1,8-3,12.2-2.6
	c1.8,0.3,3.2-1,4.9-1.4c1.4-0.5,3.4-0.4,4.1-2c1.5-4.8-51.7-52.7-112.1-13.7c-35.2,22-48.6,55.9-68.5,84.1
	c-3.8,6.3-12.9,19.8-14.6,26.3c0.8,2.2,2.5,4,3.4,6.3c3.3,7.6-1.1,11.3,2.6,31.9c3,26-5.7,44.1-21.2,63.7c-0.9,2.4-1,5-1.9,7.4
	c28.7-4.8,72.6-8.2,99-33.9c3-2.9,4.2-7.1,7.1-10.1c3.1-3.5,7.9-4.8,10.9-8.4c6.4-7.2,11.8-4.5,16.6-5.2c9.5-16.4,8.9-12.2,30.4-17
	c8-1.8,10.8,2.5,20.6,8.1c0.7,2.2,3.1,2.7,4.8,3.9c4.7,3.1,13.1,8.4,17.2,22.7c-13.1-12.6-8.4-8.9-17.4-12.4
	c-2.6,2.5-6.5,2.3-9.8,2.7c-1.4,1.1,7.9,6.8,8.9,7.3c7.2,3.7,13,10,16.7,17.3c-3.4-1.2-14.8-9.4-20.5-6.5c-3.3,1.5-6.9,0.8-10.2,0.1
	c0.5,2.5,1.9,4.7,2.5,7.1c-9.6-6.9-12.4-12.8-21-10.2c-1.2,2.7-1.4,5.8-2.7,8.6c-1.5,3.5-4.2,6.6-5.2,10.4
	c5.4,0.6,11.2,1.7,15.5,5.4c1,0.4,14.4,4.9,16.4,11.3c-4.6-0.3-9.1-0.7-13.7-0.9c-3.2,0.2-6,2.4-9.2,2.1c-3.3-0.1-6.2-1.6-9.3-2.3
	c-2.6,1.1-5.2,2.2-8,2.8c-2.3,0.4-3.3,2.8-5.1,4.1c-3.1,2.1-7,7-17.8,10.5c-3.9,3-13.1,14.2-27.2,13.1c-12.1-1-64.7,27.7-65.7,28.4
	c58.4,30.8,78.9,57,142.7,26.4c8.3-4.7,7.2,1.4,16-6.5c6.3-6.5,12.4-6.6,17.8-5.4c8-6.6,13.7-2.5,20.6-1.7c3.2,0.6,6.6,0.5,9.4,2.3
	c3.2,1.8,9.2,9.6,10.2,13.1c10.6,11,11.8,24.4,10.8,28.8c-2.7-6.5-5.4-14-12.1-17.4c-2.5,1.3-5.4,0.3-8,0.1
	c1.8,6.6,7.9,8.1,7.1,29.6c-0.3,0-0.7-0.1-1-0.1c-0.5-1.5-5.9-20.6-13.1-19.6c-4.6-0.3-9.6-1.4-12.6-5.1c-3.6-4-2.2-9.8-5.8-8.8
	c-1.7,1.6-3,3.6-4.3,5.5c4,3.5,8.3,7.2,10.3,12.2c1.5,4.5,8.2,8.8,8.4,21.1c-2.8-1.9-9.8-10.2-13.8-10.3c-4.1-0.2-7.8-2.8-9.9-6.3
	c-3.5-4.6-0.5-1.5-10.9-3.2c-4.1,2.2-8,4.8-12,7.1c3.3,3.3,5.4,7.6,6.8,12c4.2,6.6,8,13.7,9.1,21.5c-3.5-1.5-5.6-5.2-9.3-6.4
	c-0.5-0.8-1-1.6-1.5-2.3c-2.9-1.9-4.8-5.3-8.4-6c-8.1-2.1-10.6-8.3-13.1-11.6c-8.7,5.4-23.3,14.3-32.9,14.6
	c-8.1,0.1-148.9-20.4-161.3-23.5c-20.7-4.8-13-3.9-26.3-7.5c-11,18.8-24.9,39.3-24.9,39.3c7.5,16.6,3.5,16.5,6.3,28.6
	c1.6,6.7,1.5,13.6,1,20.4c-3.6,25.8,6,50.2,9.2,121.5c13.1,14.2,29.9,23,11.6,51.4c22.7,8.6,53.9,10.5,58.9,10.9
	c38.6,6.1,47.1,0.5,58.9-5.4c6.2-3.2,5.2,1.1,16.1-14.2c3.1-4.2,5-6.5,21.4-10.5c3.1-0.8,5.9-2.7,9.2-2.7c2.3,0.3,15.5,4.1,17.1,4.8
	c1.2,1.5,3.2,1.6,4.9,2c13.9,3.4,22.5,11.9,23.5,15.1c1.4,1.2,2.9,2.4,3.7,4.2c-7.7-3.3-20.3-13.2-26.2-5.7c3,2.1,9,7.7,10.6,11.2
	l0.4,0c0.4,0.6,0.7,1.2,1.1,1.8c-1.4-0.6-2.8-1.2-4.3-1.6c-4.5-3.3-16-8.8-19.9-5c-10.5,5.7-14.8,1.2-18-1.1
	c-3,3.3-7.4,4.7-10.9,7.3c-1.2,2.1-2,4.3-3,6.4c5.8,0.5,13.4,4.5,14.8,6.8c0.4,0,1.1-0.1,1.5-0.1c0,0.3,0.1,1,0.1,1.4
	c-4.9,1.4-10,0.4-15,1.3c0.6,1.2,2.1,1.6,3.3,2.2c6.2,2.3,12.2,6.1,16,11.7c-1.7-0.1-7.2-2.1-12.3-1.7c-0.2-0.2-0.6-0.7-0.8-0.9
	c-1.2,0-2.4,0-3.6,0c-6.2,7.2-9.9,4.4-15.8,3.8c-2,0.8-2.7,3.1-4.1,4.5c-8.1,8-17.9,13.2-20.1,14.8c-6.4,4.6-15.2,8-26.7,5.2
	c-1-0.2-48.7-8.4-77.9-1.9c-1.5,0.4-19.8,4-27.6,3.3c1.2,0.2,2.5,0.3,3.8,0.5c-3.5,0.1-7.1,0.2-10.6,0.4
	c-21.9,68.5-40.5,100.3-45.6,135.8c-5.8,19.9,15.5,94.9,29.1,112.1c2.3,2.8,5.3,4.8,7.9,7.2c2.4,2.1,3.8,5.1,6.7,6.6
	c7,3.9,18.1,3.7,22,8.3c0.8,0.9,14.7,16.9,15.3,18.4c0.5,1.6,3.1,16.5,1.5,19.7c4,21.2-5.9,34.8-7.5,35.7c0.6-5.5,4-21.7-1.4-23.3
	c-1.1,9.4-5.5,18.7-8.5,22c-0.1-4.1,2.4-16.3-1-23.3c-1.3-1.2-3-1.9-4-3.3c-8-9-4.4-11.8-4.1-16.5c-4.5-1.5-7.6-5.2-11-8.3
	c-2.9-0.6-6-0.8-8.9-1.1c-0.4,1.9-0.9,3.7-1.6,5.5c-1.5-1.8-2.6-4-3.1-6.3c-0.9-0.2-1.8-0.4-2.7-0.5c3.7,13.9,1.1,14.8,1.7,18.9
	c0.7,6.7-1.7,13.1-3.7,19.4c-1,0.3-1.1-1.2-1.4-1.8c-1.1-6.1-1.9-16.1-5.4-17.1c-4.1-1.6-6.6-5.7-7.2-9.9c-2.5-8.7,1.4-1-10-11.2
	c-57.4-38-16-37.9-68.9-126c-46.2-61.1,23.5-17.9,17-90.2c-1-15.2-10.9-29.5-9.8-48.2c-2.9-37.1,31.4-50.6,34.3-70.7
	c-10.1-2.6-61.4-5.4-63.6-5c-43.6,67.9-163.1,324.7-450.9,300.7c-194.7-20.6-345.6-184.1-370.3-370.9c-0.4-5.1-1.5-10.1-1.4-15.2
	c-0.1,0.3-0.3,0.9-0.4,1.1c-0.1-11-14.6-123.8,46.8-186.9c-16.4-13.7-2.5-6.6-58.6-33.7c1.5-0.3,78.5,2,141.8-43.3
	c-1.7,5-33.9,57.2-27.8,139.1c0.2,2.4,0.6,4.9,1.1,7.3c-4.3-6.2-26.4-40.6-28.7-44.7c-2.7-2.8-5.8-5.1-8.6-7.8
	c-56.3,86.9-29.4,300.4,137.7,400.5c66.2,39.5,160.4,43.9,211,23.1c16.4-7.6,29.8-9.5,44.2-17.9c33.9-19.8,46.4-30.3,54.6-39.3
	c125.1-120.5,74.3-156,186.2-368.3c0.6-1,15.3-25.7,14.9-27.2c-4.6-1.7-20.5-1.7-24.2-2.3c0,0-86.4-3.3-165.7,5.3
	c-4.2,0.5-8.3,1.3-12.6,1c1.5,0.2,3,0.3,4.5,0.6c-2.7,0.4-5.5-0.4-8.1,0.4c-9.9,1.2-19.8,2.6-29.7,3.6
	c-9.9,11.3-21.6,26.1-26.7,28.1c0,0,15.1-25,18.2-30.3c-21.6-82.6,2.1-21.6-34.4-124c-7.8-21.6-8.8-16.9-20.1-33.3
	c-1.7-2.6-18.1-24.2-20.4-26.4c-5.5-5.7-55.1-38.9-56.1-39.6c-69.5-26.6-68.6-29.1-94-30.9c-0.1-0.1-0.3-0.3-0.4-0.4
	c-8.7-0.7-45.2-5.8-49.8-6.3c-6.9,7.2-8.4,17.5-8.8,27c-6.9-5.1-4.6-19.3,0.3-25.9c2.8-4.4,5.5-3,6.5-19.1c0.1-0.1,0.3-0.4,0.4-0.5
	c0.6-6.3,2.3-12.4,3-18.7c0.1-0.1,0.3-0.3,0.4-0.4c1.7-12.9,4.8-25.6,6.7-38.5c-0.7-7.3-3-14.4-3.8-21.7c-0.1-2.5-0.3-5-0.9-7.4
	c-7.9-37.7-0.6-16.4-14.3-47.2c-4.4-10.2-11.8-24.7-12.3-27c-1.9-3.5-37.4-50.5-38.2-51.5c-3.3-4.5-102.6-106.8-106.4-103.9
	c-7.1,4.9-13.6,10.7-21.2,14.8c1.6-5.3,4.5-10.4,9.2-13.6c3.3-2.1,5.7-5.2,8.8-7.6c0.2-1.8,0.6-3.7,1.6-5.2
	c19.4-31.3,40.3-81.8,40.8-88.5c5.4-49.9,7.9-37.1-7.4-90.6c-1.3-4.3-24.2-43.3-25.1-44.9c0,0-34.1-32.4-39.2-37.9
	c-10.1,1.5-24.9,4.7-24.9,4.7c0-0.7-0.1-1.5-0.1-2.2c17.3-16,73.4-14.5,97-14.9c12.6-0.4,283.9,84.9,304.5,100.2
	c3.5,2,4.6,6.5,8.2,8.4c1.8,1.2,4.4,0.9,5.9,2.7c1.7,1.7,23.1,26.4,26,29.5c2.5,2.8,5.7,4.8,8,7.8c2,2.2,3.2,5.1,5.5,7
	c1.7,1.6,3.4,3.3,4.6,5.3c14.3,26.8,140.8,163.7,144.1,176.5c1.2-1.4,1.9-3.3,3.4-4.4c3.1-2.2,4.5-6.5,8.5-7.4
	c3-0.4,4.7-3.7,7.8-3.7c25.2-0.3,25.2,4.3,34.9,6.7c-0.1,0.3-0.3,0.8-0.3,1.1c-2.2,0.8-4.6,1.1-6.9,1.5c-2.4,2.4-16.9,4.9-21.2,12.6
	c-2,3.2-2.2,14.1,0.4,17.8c2.4,2.1,15.6,7.5,15.6,13.7c0,0.9,1.3,14.6,1.6,15.9c-1.8,4.4-6.6,5.8-10.6,7.4c2,2.6-0.3,5.6-0.6,8.4
	c-1.6,9.8-3.7-5.1-2,58.7c0,11-0.5,113.9,3.6,122.8c26.9,65.8,34.9,102.3,103.9,125.6c50,17.3,56.3,10.7,93.4,24.2
	c2.6-2.9,4.7-6.1,7.2-9.1C878.9,794.1,733.5,626,710.5,627.4c-0.8,7-3.2,13.7-5.6,20.4c-4.5-6.3,5.1-39.5,5-45.7
	c0,0,14.8-100.7,14.9-101.8c3-27.1,1.6-23.8,2.1-33c0.2-2.5-0.4-5.1,0.6-7.5c2.1-3.9,24.5-109.8,24.6-111.4c0.1,0.7,0.2,1.3,0.4,2
	c0,0,1.7-36.9,1.2-46.5c-3.8,1.8-4.2,7-7.7,9.4c-1.4-4.5,8.3-19.7,8.9-20.8c21.7-32.9,47.8-188.6,47.8-191.2c0.1,0.7,0.3,1.3,0.4,2
	c0.6-11.2,3-22.3,4.1-33.5c-2.7-0.1-5,1.4-7.4,2.2C799.8,66.6,812.9,58.5,827.7,60.2z"/>
</svg>
