<?xml version="1.0" encoding="UTF-8"?>
<svg xmlns="http://www.w3.org/2000/svg" width="74.296mm" height="168.062mm" viewBox="-1062.066406 -655.366333 74.295898 168.061646">
    <path transform="matrix(-1,0,0,-1,0,0)" style="stroke:#000000;stroke-width:0.05mm;fill:none" d="M1046.753906,487.324219C1046.994019,487.401947,1047.207764,487.545197,1047.375,487.734375C1047.511963,487.861542,1047.660034,487.975922,1047.816406,488.078125C1048.190674,488.299866,1048.645874,488.33078,1049.050781,488.171875C1049.295532,488.044037,1049.52832,487.894958,1049.75,487.730469C1049.887939,487.638031,1050.039063,487.567444,1050.199219,487.523438L1050.324219,487.511719C1050.436768,487.519135,1050.548462,487.536499,1050.65625,487.570313C1050.949707,487.703979,1051.200195,487.917908,1051.371094,488.191406C1052.261108,489.598083,1052.452515,491.334106,1051.894531,492.902344C1051.590088,493.552704,1051.25415,494.187744,1050.886719,494.804688C1050.175415,496.126221,1049.532593,497.483398,1048.960938,498.871094C1048.388794,500.198303,1047.846924,501.538696,1047.335938,502.890625C1046.628784,504.779694,1046.264282,506.779785,1046.261719,508.796875C1046.307007,509.460907,1046.378418,510.122925,1046.476563,510.78125C1046.73584,513.116943,1046.691528,515.476563,1046.34375,517.800781C1046.103149,519.468994,1046.012939,521.155457,1046.074219,522.839844C1046.224731,524.143799,1046.390137,525.445862,1046.570313,526.746094C1046.975952,530.024597,1047.254761,533.317261,1047.40625,536.617188C1047.393066,537.747803,1047.516968,538.876282,1047.777344,539.976563C1048.276123,542.183472,1048.786011,544.384705,1049.308594,546.585938C1049.666992,548.150391,1049.978394,549.725464,1050.242188,551.308594C1050.402222,552.365784,1050.395996,553.44165,1050.21875,554.496094C1050.075562,555.190796,1049.860596,555.868896,1049.578125,556.519531C1049.014771,557.957214,1049.014648,559.554565,1049.578125,560.992188C1050.213623,562.613464,1050.994995,564.173279,1051.914063,565.652344C1052.268433,566.133301,1052.62146,566.61969,1052.96875,567.105469L1053.09375,567.316406C1053.788086,568.527344,1054.112793,569.915649,1054.023438,571.308594C1053.914917,572.920105,1053.834106,574.534058,1053.78125,576.148438C1053.72876,577.949585,1053.83374,579.752075,1054.09375,581.535156C1054.268921,582.987854,1054.342041,584.451111,1054.3125,585.914063C1054.287354,589.138733,1054.013306,592.356689,1053.492188,595.539063C1053.193115,597.053406,1052.883423,598.564392,1052.5625,600.074219C1052.052124,602.684692,1051.616943,605.309692,1051.257813,607.945313C1050.856567,610.212402,1050.154419,612.415771,1049.167969,614.496094C1047.389648,618.213013,1046.688965,622.354065,1047.144531,626.449219C1047.253052,627.736511,1047.526001,629.004761,1047.957031,630.222656L1048.03125,630.390625C1048.079468,630.462769,1048.118896,630.540222,1048.160156,630.617188C1048.19458,630.64032,1048.223633,630.6698,1048.257813,630.695313L1048.292969,630.675781L1048.324219,630.621094C1048.397461,630.226196,1048.490845,629.835266,1048.601563,629.449219C1048.662964,629.263794,1048.752319,629.088562,1048.871094,628.933594C1048.995117,628.779724,1049.144043,628.647827,1049.316406,628.550781L1049.46875,628.484375C1049.72937,628.387634,1050.013062,628.375854,1050.285156,628.433594C1050.771973,628.542114,1051.234985,628.735535,1051.660156,628.996094C1054.640381,630.735962,1057.203491,633.106934,1059.171875,635.941406C1060.482178,638.0271,1061.459473,640.30426,1062.066406,642.691406C1059.245117,645.658508,1055.995605,648.186584,1052.425781,650.191406C1051.574463,651.911865,1050.181641,653.30542,1048.460938,654.15625C1047.482788,653.514404,1046.266357,653.346069,1045.152344,653.703125C1044.134766,653.948669,1043.075439,653.967712,1042.050781,653.753906C1041.633789,653.698853,1041.210815,653.71106,1040.796875,653.785156L1040.4375,653.871094C1039.777588,654.10321,1039.142456,654.400024,1038.539063,654.753906L1037.859375,655.050781C1036.557983,655.509399,1035.130371,655.457581,1033.867188,654.902344C1033.404297,654.690552,1032.92627,654.513428,1032.4375,654.371094C1032.249512,654.33252,1032.059082,654.306091,1031.867188,654.300781C1031.539917,654.302307,1031.215332,654.36731,1030.917969,654.503906C1030.565308,654.656189,1030.230713,654.847229,1029.917969,655.070313C1029.57605,655.31311,1029.152344,655.413757,1028.738281,655.347656C1028.634521,655.334595,1028.533691,655.307373,1028.433594,655.277344L1028.300781,655.222656C1028.057129,655.082764,1027.822388,654.927734,1027.601563,654.753906L1027.34375,654.585938C1027.132202,654.456726,1026.901001,654.363159,1026.660156,654.304688L1026.425781,654.253906C1026.218506,654.224976,1026.008789,654.21405,1025.800781,654.238281C1025.44873,654.300903,1025.101318,654.388245,1024.765625,654.511719L1024.425781,654.601563C1024.24292,654.644043,1024.05481,654.651123,1023.867188,654.644531L1023.664063,654.625L1023.40625,654.570313C1023.242981,654.523071,1023.086914,654.455872,1022.933594,654.382813C1022.561401,654.171753,1022.23175,653.892944,1021.964844,653.558594C1021.567261,653.046204,1021.203918,652.508179,1020.875,651.949219C1020.060791,650.649109,1018.889099,649.611694,1017.5,648.960938C1016.748962,648.626709,1015.992981,648.300903,1015.234375,647.984375C1014.683838,647.747803,1014.165955,647.441223,1013.695313,647.070313C1012.895264,646.398315,1012.294495,645.520081,1011.957031,644.53125C1011.56366,643.436646,1011.371338,642.280273,1011.382813,641.117188C1011.367798,639.556641,1011.685913,638.011292,1012.3125,636.582031C1012.762756,635.517578,1013.511475,634.606506,1014.464844,633.953125L1015.03125,633.515625C1015.723328,632.95874,1016.1297,632.118774,1016.136719,631.230469C1016.133789,630.642944,1016.049011,630.058472,1015.878906,629.496094C1015.798096,629.210938,1015.748474,628.917419,1015.75,628.621094L1015.777344,628.449219L1015.839844,628.296875L1015.945313,628.164063L1016.066406,628.074219L1016.207031,628.003906C1016.598511,627.900757,1017.011536,627.923401,1017.394531,628.054688C1017.715759,628.146118,1018.026489,628.271729,1018.316406,628.4375L1018.757813,628.707031C1019.586304,629.32074,1020.198425,630.180542,1020.507813,631.164063C1020.913025,632.368591,1021.060913,633.644897,1020.941406,634.910156C1020.934509,635.101624,1020.935486,635.293274,1020.949219,635.484375L1020.988281,635.707031C1021.011292,635.764404,1021.03717,635.820496,1021.066406,635.875C1021.132996,635.960266,1021.233398,636.007141,1021.339844,636.023438L1021.503906,636.019531L1021.671875,635.976563C1021.78186,635.931274,1021.888489,635.87854,1021.992188,635.820313L1022.121094,635.726563L1022.210938,635.636719C1022.263123,635.490234,1022.293701,635.337708,1022.3125,635.183594C1022.391052,634.025085,1022.405457,632.86322,1022.355469,631.703125C1022.2323,628.22998,1022.23877,624.753784,1022.375,621.28125C1022.414246,620.446167,1022.363953,619.609131,1022.222656,618.785156C1022.190674,618.597229,1022.142578,618.412292,1022.074219,618.234375C1021.983032,617.941345,1021.834778,617.668396,1021.632813,617.4375C1021.503052,617.277588,1021.352722,617.134949,1021.179688,617.023438L1020.890625,616.847656C1020.359314,616.631653,1019.776917,616.581848,1019.214844,616.695313C1018.440735,616.849304,1017.671021,617.02356,1016.90625,617.21875C1015.284119,617.582581,1013.630554,617.788025,1011.96875,617.832031C1010.518799,617.905762,1009.067383,617.713074,1007.6875,617.261719C1006.414551,616.806702,1005.239685,616.113708,1004.226563,615.21875C1003.183655,614.284851,1002.114014,613.380859,1001.019531,612.507813C999.407104,611.253479,997.689636,610.14032,995.886719,609.179688C995.759705,609.101501,995.640625,609.011169,995.527344,608.914063C994.601013,608.106018,993.868896,607.099976,993.378906,605.972656C992.702515,604.436401,992.234375,602.81665,991.988281,601.15625C991.733582,599.445251,991.558655,597.723389,991.464844,595.996094C991.272888,593.677795,991.288818,591.346802,991.511719,589.03125C991.659302,587.495544,991.986755,585.982422,992.488281,584.523438C992.780457,583.757874,993.100647,583.003296,993.449219,582.261719C994.23822,580.498108,994.478271,578.537659,994.132813,576.636719C993.995728,575.950439,993.781067,575.281982,993.492188,574.644531C992.028931,571.352112,990.636414,568.028137,989.316406,564.675781C988.77478,563.304565,988.327393,561.897827,987.980469,560.464844C987.80304,559.772705,987.737366,559.056641,987.785156,558.34375L987.828125,558.082031L987.898438,557.84375C987.948181,557.702576,988.012756,557.566711,988.105469,557.449219C988.16803,557.361694,988.245972,557.28772,988.328125,557.21875L988.4375,557.144531C988.528381,557.09436,988.621765,557.048889,988.71875,557.011719C989.017639,556.929932,989.327454,556.898926,989.636719,556.917969C991.300903,559.551514,992.433289,562.485718,992.96875,565.554688C992.988098,565.782288,993.060669,566.002808,993.183594,566.195313L993.226563,566.226563L993.277344,566.238281L993.347656,566.222656L993.421875,566.171875L993.5,566.089844C993.772278,565.650635,993.964722,565.167358,994.082031,564.664063C994.518311,562.99585,994.808228,561.292786,994.949219,559.574219C995.184753,557.158752,995.199219,554.726685,994.992188,552.308594C995.288025,551.222717,995.534546,550.123901,995.730469,549.015625C995.765259,548.718201,995.761841,548.417419,995.71875,548.121094C995.569397,547.048401,995.174194,546.025269,994.566406,545.128906C994.590942,542.424744,994.913635,539.731384,995.527344,537.097656C995.883728,535.113098,995.894043,533.08197,995.558594,531.09375C995.27301,529.36261,994.841614,527.658691,994.269531,526C993.904175,525.000427,993.58374,523.985046,993.308594,522.957031C992.954773,521.594177,992.916443,520.168457,993.199219,518.789063C993.265381,518.454224,993.392212,518.13385,993.578125,517.847656L993.675781,517.726563C993.741455,517.656677,993.817688,517.598328,993.898438,517.546875C993.98761,517.505798,994.08313,517.483887,994.179688,517.46875L994.335938,517.476563C994.559814,517.521179,994.771545,517.613098,994.957031,517.746094C995.241821,517.960327,995.543213,518.151978,995.859375,518.316406C995.94165,518.36792,996.036194,518.39856,996.132813,518.394531L996.261719,518.390625L996.386719,518.351563L996.46875,518.296875L996.539063,518.226563C996.613525,518.109253,996.665161,517.979309,996.695313,517.84375C996.72052,517.598755,996.775269,517.357849,996.855469,517.125L996.898438,517.054688L996.957031,517C997.014038,516.963989,997.078918,516.948547,997.144531,516.9375C997.233643,516.95343,997.318665,516.984924,997.398438,517.027344C997.666687,517.241638,997.913269,517.481506,998.136719,517.742188C998.398315,518.048584,998.70752,518.311218,999.054688,518.515625L999.261719,518.605469L999.480469,518.660156L999.707031,518.671875C999.9198,518.663452,1000.125061,518.592896,1000.300781,518.472656C1000.536621,518.295959,1000.752441,518.09436,1000.949219,517.875C1001.032471,517.78833,1001.129517,517.717346,1001.230469,517.652344C1001.366882,517.57312,1001.537903,517.5849,1001.664063,517.679688L1001.78125,517.792969C1001.861938,517.894714,1001.929871,518.006287,1001.972656,518.128906C1002.133057,518.600403,1002.224854,519.092285,1002.246094,519.589844C1002.335083,520.966431,1002.202576,522.348511,1001.855469,523.683594C1001.811218,523.870544,1001.788818,524.061829,1001.785156,524.253906L1001.808594,524.324219L1001.847656,524.363281L1001.894531,524.371094L1001.957031,524.355469L1002.039063,524.308594C1002.118652,524.242676,1002.192261,524.170288,1002.265625,524.097656C1002.347534,524.0047,1002.42688,523.909546,1002.503906,523.8125C1002.616455,523.681885,1002.72113,523.544556,1002.8125,523.398438L1006.242188,522.863281C1007.951111,522.684326,1009.637146,523.367798,1010.742188,524.683594L1008.597656,528.210938C1007.426453,528.765869,1006.411072,529.602417,1005.640625,530.644531C1004.773926,531.897156,1004.401733,533.425964,1004.589844,534.9375C1004.696655,535.809021,1004.853455,536.673584,1005.058594,537.527344C1005.742798,540.963989,1006.496948,544.386841,1007.320313,547.792969C1007.655396,549.233643,1008.107666,550.64447,1008.671875,552.011719C1008.912354,552.600037,1009.252747,553.142517,1009.679688,553.613281C1010.357056,554.250244,1011.041992,554.879211,1011.734375,555.5C1012.368591,556.071899,1012.942749,556.70697,1013.449219,557.394531C1014.197021,558.440186,1014.715454,559.631897,1014.976563,560.890625C1015.024353,561.063843,1015.077942,561.235413,1015.144531,561.402344L1015.234375,561.585938L1015.289063,561.65625L1015.339844,561.707031C1015.380005,561.726624,1015.422119,561.741211,1015.464844,561.753906L1015.574219,561.734375C1015.718811,561.639648,1015.843933,561.520203,1015.953125,561.386719C1016.594788,560.390869,1016.774963,559.167419,1016.453125,558.027344C1016.326416,557.664978,1016.145874,557.323547,1015.90625,557.023438C1015.637756,556.683289,1015.307068,556.396667,1014.929688,556.183594C1014.040344,552.942932,1013.955872,549.533752,1014.6875,546.253906C1014.953857,545.064819,1015.285156,543.891235,1015.679688,542.738281C1016.760864,539.215149,1017.41156,535.574097,1017.617188,531.894531C1017.863586,527.493286,1017.719971,523.078979,1017.1875,518.703125C1016.962585,516.64856,1016.662903,514.603027,1016.289063,512.570313C1015.956177,510.206787,1015.715149,507.83139,1015.566406,505.449219C1015.526672,504.609192,1015.407837,503.774628,1015.210938,502.957031C1015.024658,502.248413,1014.646545,501.603973,1014.113281,501.101563C1013.622681,500.64151,1013.229004,500.08728,1012.964844,499.46875C1012.753906,498.950104,1012.695068,498.381073,1012.804688,497.832031C1012.954773,497.18811,1012.716858,496.5177,1012.203125,496.101563C1011.674194,495.73468,1011.151978,495.358521,1010.636719,494.972656C1009.659241,494.219421,1008.862122,493.257172,1008.304688,492.15625C1007.931091,491.397461,1007.781982,490.547668,1007.875,489.707031C1007.90741,489.557312,1007.95929,489.412415,1008.039063,489.28125L1008.101563,489.214844L1008.179688,489.164063C1008.234131,489.144775,1008.290283,489.131622,1008.347656,489.125C1008.47699,489.134064,1008.601685,489.178314,1008.707031,489.253906C1008.925903,489.410645,1009.171326,489.525848,1009.429688,489.601563C1009.507263,489.613647,1009.585693,489.616241,1009.664063,489.613281C1009.78656,489.599274,1009.903076,489.552887,1010,489.476563L1010.082031,489.394531C1010.249023,489.143799,1010.373962,488.867706,1010.457031,488.578125C1010.503784,488.452911,1010.57251,488.337616,1010.652344,488.230469C1010.727966,488.118439,1010.839417,488.035797,1010.964844,487.984375C1011.104675,487.916962,1011.264587,487.899902,1011.414063,487.941406C1011.741821,488.070251,1012.068054,488.200134,1012.394531,488.332031C1013.043457,488.537506,1013.753845,488.376404,1014.246094,487.90625C1014.440918,487.714905,1014.677307,487.571289,1014.9375,487.488281C1015.315369,487.385284,1015.719543,487.458649,1016.042969,487.679688C1016.361572,487.931793,1016.666748,488.200165,1016.957031,488.484375C1017.144043,488.672272,1017.372131,488.815094,1017.625,488.894531C1017.759033,488.929474,1017.896606,488.949738,1018.035156,488.945313C1018.205017,488.932617,1018.371643,488.895264,1018.53125,488.835938C1018.763123,488.720428,1018.974548,488.56723,1019.152344,488.378906C1019.350342,488.164124,1019.596313,487.997711,1019.875,487.910156L1020.019531,487.886719L1020.175781,487.890625L1020.363281,487.921875C1020.540283,487.986328,1020.708801,488.072784,1020.855469,488.191406C1021.306458,488.626923,1021.650574,489.160217,1021.863281,489.75C1022.204895,490.611572,1022.310608,491.548462,1022.171875,492.464844C1022.086304,492.99469,1022.02124,493.527649,1021.976563,494.0625C1021.943542,495.193756,1022.1604,496.318298,1022.613281,497.355469C1023.068726,498.411865,1023.655334,499.406647,1024.359375,500.316406C1023.102356,503.967682,1023.170044,507.944458,1024.550781,511.550781C1024.957031,512.663818,1025.025391,513.872925,1024.742188,515.023438C1024.556641,515.677979,1024.386597,516.336914,1024.234375,517C1023.979492,518.378479,1023.813232,519.771973,1023.738281,521.171875C1023.495483,523.565918,1023.50592,525.979248,1023.769531,528.371094C1024.051758,530.800537,1024.324707,533.224548,1024.589844,535.65625C1024.923096,539.231689,1025.170532,542.815308,1025.332031,546.402344C1025.441895,548.227112,1025.458862,550.056396,1025.382813,551.882813C1025.300537,553.147156,1025.137085,554.404846,1024.894531,555.648438C1024.724243,556.551392,1024.615479,557.465027,1024.570313,558.382813C1024.570679,558.570618,1024.57605,558.758301,1024.59375,558.945313L1024.636719,559.148438C1024.656616,559.197632,1024.678223,559.246033,1024.703125,559.292969C1024.733765,559.317261,1024.761719,559.344177,1024.796875,559.363281L1024.882813,559.363281C1024.945557,559.320129,1025.001343,559.268677,1025.054688,559.214844C1025.441162,558.603821,1026.061279,558.175049,1026.773438,558.050781C1027.314331,558.015686,1027.857178,558.071838,1028.378906,558.21875C1029.116699,558.425537,1029.883423,558.51123,1030.648438,558.46875C1031.365479,558.379028,1032.057861,558.1521,1032.691406,557.804688C1032.95166,557.658081,1033.228394,557.54303,1033.515625,557.460938C1033.584595,557.456177,1033.653687,557.45459,1033.722656,557.460938C1033.781738,557.48175,1033.837402,557.510315,1033.890625,557.542969L1033.976563,557.648438L1034.011719,557.773438C1034.009888,557.989624,1034.006348,558.20575,1034,558.421875C1034.010498,558.740173,1034.1698,559.03656,1034.433594,559.214844C1034.582275,559.30365,1034.741821,559.371643,1034.90625,559.425781C1035.427734,559.535156,1035.940063,559.684265,1036.4375,559.875C1037.03125,560.136719,1037.550903,560.540771,1037.957031,561.046875C1038.092651,561.219788,1038.237915,561.385193,1038.402344,561.53125C1038.475098,561.564819,1038.549561,561.591919,1038.625,561.617188C1038.69873,561.608643,1038.771118,561.594543,1038.84375,561.582031C1038.979736,561.517883,1039.097656,561.422668,1039.195313,561.308594L1039.386719,561.019531C1039.81189,560.143066,1040.040161,559.184875,1040.058594,558.210938C1040.079346,557.278687,1039.942017,556.349792,1039.660156,555.460938C1039.413696,554.336609,1039.251465,553.195435,1039.175781,552.046875C1039.0896,550.496399,1038.896118,548.953613,1038.597656,547.429688C1038.324463,545.745911,1038.168701,544.045227,1038.132813,542.339844C1038.081177,539.305542,1038.219727,536.270935,1038.546875,533.253906C1038.856201,530.35791,1039.239014,527.470215,1039.695313,524.59375C1039.982178,522.629211,1039.917236,520.629395,1039.503906,518.6875C1039.298828,517.90625,1039.029541,517.143372,1038.699219,516.40625C1038.489746,515.801819,1038.36792,515.170471,1038.34375,514.53125C1038.335571,513.516907,1038.41748,512.50415,1038.585938,511.503906C1038.775269,510.169525,1038.878052,508.824219,1038.894531,507.476563C1038.879517,506.848663,1038.766113,506.22699,1038.5625,505.632813L1038.453125,505.359375C1038.301514,505.036713,1038.126343,504.725739,1037.933594,504.425781C1037.463501,503.508698,1037.235229,502.487122,1037.265625,501.457031C1037.273193,501.304962,1037.299805,501.154694,1037.339844,501.007813L1037.382813,500.914063C1037.411255,500.872589,1037.449585,500.842285,1037.488281,500.8125L1037.550781,500.808594L1037.617188,500.832031L1037.683594,500.875C1037.883179,501.06781,1038.063232,501.279541,1038.226563,501.503906L1038.382813,501.664063L1038.457031,501.726563C1038.502563,501.752197,1038.551025,501.771942,1038.601563,501.785156L1038.671875,501.777344L1038.730469,501.738281C1038.762451,501.687958,1038.789307,501.634613,1038.808594,501.578125C1038.87085,501.127808,1038.920044,500.675751,1038.957031,500.222656C1039.044556,499.762268,1039.121094,499.299835,1039.1875,498.835938C1039.381104,496.588135,1039.273438,494.324738,1038.867188,492.105469C1038.740723,491.578125,1038.632935,491.046478,1038.542969,490.511719C1038.47937,490.173523,1038.562256,489.823273,1038.777344,489.554688L1038.878906,489.441406L1038.996094,489.339844C1039.258789,489.155396,1039.564209,489.042511,1039.882813,489.003906C1040.366577,488.94043,1040.856934,488.954376,1041.335938,489.046875C1042.147827,489.299469,1043.003174,489.38089,1043.847656,489.28125C1044.345459,489.215424,1044.810791,488.997009,1045.179688,488.65625C1045.443726,488.370422,1045.677979,488.058197,1045.875,487.722656C1045.952637,487.61676,1046.041504,487.519745,1046.140625,487.433594C1046.247437,487.361542,1046.367432,487.30954,1046.496094,487.304688C1046.58252,487.30542,1046.668823,487.307281,1046.753906,487.324219z"/>
    <path transform="matrix(-1,0,0,-1,0,0)" style="stroke:#000000;stroke-width:0.05mm;fill:none" d="M1000.089844,553.300781C1000.110535,553.41156,1000.11731,553.524658,1000.105469,553.636719L1000.066406,553.671875L1000.046875,553.726563L1000.035156,553.800781C1000.046143,553.992249,1000.070068,554.182617,1000.105469,554.371094C1000.429016,556.222595,1000.655762,558.089722,1000.785156,559.964844C1000.906555,561.592346,1001.126221,563.211182,1001.441406,564.8125C1001.477112,564.979431,1001.515381,565.145752,1001.566406,565.308594C1001.592468,565.402283,1001.622375,565.494812,1001.65625,565.585938L1001.6875,565.65625L1001.71875,565.708984C1002.060181,566.470886,1002.407593,567.234131,1002.757813,567.992188C1003.344727,569.44519,1003.665527,570.991943,1003.703125,572.558594C1003.80542,575.103699,1004.382507,577.6073,1005.402344,579.941406C1005.91687,577.327271,1006.19342,574.671875,1006.230469,572.007813C1006.23584,570.331848,1006.055786,568.660217,1005.695313,567.023438C1005.285217,564.75415,1004.842468,562.490906,1004.367188,560.234375L1004.335938,560.105469C1003.870178,558.742493,1003.19873,557.458862,1002.347656,556.296875C1001.686096,555.324036,1000.992859,554.373169,1000.269531,553.445313C1000.225891,553.40155,1000.184143,553.356384,1000.140625,553.3125C1000.123352,553.309326,1000.108398,553.301636,1000.089844,553.300781z"/>
</svg>
