<?xml version="1.0" encoding="UTF-8"?>
<svg xmlns="http://www.w3.org/2000/svg" width="343.915mm" height="231.928mm" viewBox="-1119.464600 -521.442688 343.915405 231.927979">
    <path transform="matrix(-1,0,0,-1,0,0)" style="stroke:none;fill:#000000;fill-rule:evenodd" d="M832.509277,521.11377C831.691711,520.021729,829.643066,513.060974,829.025024,509.275146C828.564819,506.456421,827.659668,501.493042,827.547607,501.173584C827.490234,501.010071,826.570679,500.456909,825.50415,499.944397C824.437683,499.431885,821.422241,497.983063,818.803162,496.724823C816.184143,495.466553,813.862671,494.32077,813.644409,494.178619C813.426147,494.036438,812.711914,493.649231,812.057129,493.318176C811.402344,492.987091,810.166504,492.314636,809.310791,491.823853C807.508301,490.7901,806.970215,489.854065,806.50531,486.944122C806.345459,485.943298,806.10968,484.928314,805.981384,484.688599C805.697327,484.157837,795.471252,480.439178,794.295837,480.439178C794.104858,480.439178,793.171753,480.152893,792.222412,479.802979C791.273071,479.453094,789.246277,478.785583,787.718506,478.31958C776.648926,474.943451,775.549194,474.445801,775.549194,472.812897C775.549194,471.71051,776.362427,469.796143,777.222107,468.874695C777.750671,468.308167,778.645325,467.812683,779.903381,467.389709C781.518982,466.846497,782.066956,466.484253,783.701111,464.878998C786.109619,462.513123,788.408142,460.738159,789.732727,460.221313C790.836853,459.790527,796.684326,459.277985,800.515442,459.276245C803.157043,459.275024,803.228455,459.093842,801.03717,457.952393C800.338867,457.588654,799.300537,456.963654,798.729736,456.563538C798.158997,456.163391,797.570435,455.835999,797.421875,455.835999C797.273254,455.835999,796.963745,455.669983,796.73407,455.467041C796.504333,455.264099,795.112244,454.49231,793.640442,453.752014C791.389954,452.619995,790.797668,452.184479,789.914917,451.012512C788.720398,449.426636,788.24762,448.033783,788.24762,446.100311C788.24762,443.246521,789.245117,442.631683,791.122803,444.328064C791.686523,444.837341,792.252319,445.253723,792.380188,445.253418C792.508057,445.253113,793.28717,444.897308,794.111572,444.462769C794.935974,444.028198,796.447266,443.529175,797.470032,443.35376C799.299561,443.040039,799.390747,443.052551,803.114014,444.127625C808.616943,445.716553,811.535706,446.510193,812.586243,446.703125C813.09552,446.796631,814.615234,447.119202,815.96344,447.419922L818.414734,447.966675L819.667114,447.323975C820.750427,446.768127,820.976929,446.504517,821.344299,445.372437C821.837341,443.852966,822.85144,442.272461,823.824402,441.507141C824.199402,441.212158,825.306396,440.552551,826.284363,440.041351C829.065308,438.587708,829.25293,438.435883,829.25293,437.638855C829.25293,436.713196,830.453552,432.913574,831.018555,432.05127C831.255615,431.689453,832.246155,430.613251,833.219666,429.659698C834.730835,428.179535,835.016235,427.751831,835.170959,426.735474C835.27063,426.080719,835.585815,424.830719,835.871277,423.957703C836.156799,423.084686,836.61554,421.537048,836.890686,420.518555C838.078735,416.121063,839.545593,412.712585,841.286377,410.304382C842.061646,409.231812,842.235962,408.663208,842.732971,405.584167C843.043823,403.658752,843.595154,401.143219,843.95813,399.99408C844.527954,398.190369,845.998047,395.510498,847.138916,394.195801C847.328308,393.977539,848.284546,392.846588,849.263916,391.682556C852.093933,388.31897,857.14032,383.149048,861.906128,378.730957C866.493896,374.477905,868.223572,372.098236,869.606201,368.137604C869.860229,367.410095,870.158142,366.695801,870.268372,366.550293C870.378601,366.404785,870.650818,365.690491,870.873291,364.962982C871.095825,364.235474,871.770447,362.390228,872.372498,360.862457C872.974548,359.334686,873.625183,357.548981,873.81842,356.894196C874.011597,356.239441,874.375977,355.227539,874.628113,354.645538C875.743958,352.070221,876.461914,348.739258,877.022888,343.534424C877.604797,338.135956,878.772278,332.542053,879.854736,329.965607L880.776184,327.77243L880.967773,321.895508C881.154663,316.165192,881.143127,315.959137,880.506714,313.636505C879.833557,311.180054,878.986572,309.341919,877.156067,306.365112C876.574524,305.419342,875.809326,304.109802,875.455688,303.455048C875.102051,302.800293,874.591553,302.0737,874.321167,301.840424C874.031921,301.59082,872.268677,301.137177,870.03656,300.738098C866.761108,300.152496,866.057129,299.935486,864.877808,299.147827C862.169128,297.338684,859.676147,294.339355,859.676147,292.889679C859.676147,291.600739,861.094788,291.349792,872.568176,290.609039C879.704041,290.148346,882.09314,290.285461,883.546814,291.239075C884.221741,291.681793,885.889954,293.90387,886.417358,295.062592C886.564636,295.386108,887.125977,296.389587,887.664795,297.292542C888.203613,298.195496,889.211548,299.942963,889.904602,301.175812C890.597717,302.408661,891.73761,304.110352,892.437622,304.957367C895.514954,308.680603,896.220215,311.207275,896.965759,321.179932C897.123474,323.289703,897.540222,327.5159,897.891846,330.571472C898.243469,333.627014,898.603516,337.138916,898.692017,338.375671C898.826172,340.25174,899.696594,347.766113,900.316223,352.396851C900.403809,353.051605,900.565063,356.146851,900.674561,359.275146C900.835815,363.882538,900.974182,365.264069,901.403198,366.547943C901.906616,368.054504,901.983643,368.141937,902.960571,368.315826C904.189209,368.534515,923.384399,369.545807,929.385193,369.708008C931.713196,369.770935,935.225098,370.067474,937.189392,370.366974C939.153687,370.666473,942.626221,371.084167,944.906189,371.295197C948.77301,371.653076,949.235168,371.646027,951.784485,371.190002C953.287598,370.921112,955.053162,370.519531,955.707947,370.297546C956.362671,370.075592,957.374573,369.808136,957.956604,369.703186C958.538635,369.598236,959.839233,369.232819,960.846863,368.891113C961.854492,368.549438,962.897339,368.269867,963.164246,368.269867C963.431213,368.269867,963.848267,368.037872,964.091064,367.754333C964.333862,367.470764,964.648682,367.310608,964.79071,367.398376C964.932739,367.486145,964.968506,367.427856,964.870239,367.268799C964.49176,366.656433,970.93927,355.917389,974.513794,351.20636C976.739014,348.273682,981.030212,343.863312,983.807556,341.65451C986.557983,339.467133,994.519409,335.002472,996.977783,334.26886C997.341553,334.160309,998.055786,333.708069,998.565063,333.263855C999.795532,332.190613,1005.695068,325.226929,1007.324829,322.924133C1008.941711,320.639557,1009.001953,319.682159,1007.753723,316.112091C1006.930786,313.758484,1002.493347,305.777618,1001.591431,305.029114C1001.381958,304.855255,1001.210571,304.578796,1001.210571,304.414703C1001.210571,304.250641,1000.735718,303.447052,1000.155334,302.628906C998.894775,300.851959,998.751648,300.80954,994.01825,300.80954C990.85907,300.80954,990.480957,300.755249,989.103394,300.103516C987.093689,299.152771,984.141113,296.212952,983.946838,294.969177C983.726257,293.557098,984.228027,292.789795,985.605042,292.433533C986.258179,292.264526,987.268799,291.893372,987.850769,291.608734C989.59906,290.753662,992.977783,290.359802,998.565063,290.359802C1003.992493,290.359802,1006.610718,290.590698,1007.042175,291.107391C1008.022522,292.281342,1011.187012,296.784973,1011.792603,297.868042C1012.010864,298.258392,1012.725098,299.343964,1013.379883,300.280457C1014.034668,301.216919,1014.748901,302.294891,1014.967163,302.675903C1015.747253,304.03772,1017.440491,306.498962,1017.656921,306.585571C1017.778076,306.634064,1017.877258,306.825287,1017.877258,307.010498C1017.877258,307.195679,1018.293945,307.892914,1018.803162,308.559875C1019.312439,309.226837,1019.729126,309.884125,1019.729126,310.020538C1019.729126,310.156952,1019.901733,310.411865,1020.112793,310.587036C1020.323853,310.762177,1020.862427,311.520813,1021.309692,312.272858C1021.756958,313.024902,1022.47522,314.175964,1022.905884,314.830719C1023.336426,315.485474,1023.772339,316.194366,1023.87439,316.406006C1023.976501,316.617645,1024.811768,317.97644,1025.730591,319.425537C1027.171021,321.697449,1027.401001,322.231476,1027.401001,323.303955C1027.401001,324.749084,1026.882324,325.545197,1025.176025,326.719208L1024.026611,327.753387L1023.506958,328.501038C1023.221191,328.912262,1022.802856,329.605835,1022.577393,330.042358C1022.351929,330.478851,1021.779358,331.550293,1021.304993,332.423309C1018.86676,336.910278,1016.432739,342.299347,1014.972107,346.444458C1014.715759,347.171997,1014.267517,348.302948,1013.975952,348.957703C1013.684387,349.612457,1013.198364,350.775909,1012.895874,351.543152L1012.345947,352.93811L1017.161865,348.173492C1019.810608,345.552948,1022.275391,343.134399,1022.63916,342.79895C1024.240234,341.322449,1029.21521,337.799805,1031.661499,336.410553C1034.08374,335.034973,1038.6604,333.196136,1041.309814,332.534088C1042.442505,332.251038,1043.383789,331.991241,1043.401611,331.956818C1043.419434,331.922363,1044.204224,330.941833,1045.14563,329.777802C1046.909912,327.596497,1049.053711,320.112274,1049.053711,319.817322C1049.053711,319.725433,1049.290039,319.327698,1049.579102,318.933441C1049.868042,318.539215,1050.405762,317.350159,1050.773926,316.291107C1051.432739,314.396179,1051.442261,314.25531,1051.372925,307.439392L1051.302368,300.513245L1050.482788,300.345734C1048.901611,300.022583,1046.25293,298.525757,1045.342896,297.44104C1044.422852,296.344482,1043.497925,294.291382,1043.499268,293.348907C1043.499756,293.057922,1043.725098,292.450897,1044,292C1044.646362,290.940094,1046.055908,290.66153,1051.963745,290.426178C1054.364502,290.330566,1057.22168,290.085968,1058.312988,289.88266C1061.190063,289.34668,1062.957031,289.395111,1063.589111,290.027283C1064.550415,290.988525,1064.576904,291.891296,1063.865967,299.455261C1063.613281,302.143219,1063.634277,303.174072,1063.997803,305.936768C1064.480469,309.60318,1064.842529,319.288574,1064.554443,320.823883C1064.405396,321.618622,1063.765137,326.90802,1061.182617,329.608307C1056.723267,334.27124,1056.126831,335.397064,1055.819458,335.753662C1054.775879,336.964355,1051.102051,345.495605,1047.484741,355.10849C1047.060425,356.236145,1046.340698,358.1409,1045.885376,359.341309C1044.593628,362.746857,1041.685791,371.168671,1041.295288,372.634949C1041.101563,373.362457,1040.70874,374.671997,1040.422363,375.544983C1040.135864,376.41803,1039.816895,377.66803,1039.713501,378.322784C1039.542603,379.404938,1039.560303,379.465118,1039.907715,378.984161C1040.118042,378.693146,1040.743408,377.621704,1041.297607,376.60321C1041.851685,375.584686,1042.579346,374.275146,1042.914551,373.693146C1043.249756,373.111145,1043.887817,371.980194,1044.332275,371.179932C1046.094238,368.00766,1046.413818,367.471771,1046.950073,366.790039C1047.256226,366.400665,1047.506836,365.974304,1047.506836,365.842529C1047.506836,365.710754,1047.729736,365.280396,1048.002197,364.886139C1048.274658,364.491882,1048.840088,363.587189,1049.258789,362.875671C1049.67749,362.164154,1050.258179,361.203247,1050.549194,360.740326C1050.84021,360.277405,1051.494019,359.220978,1052.002197,358.3927C1052.510254,357.564423,1053.062256,356.939026,1053.22876,357.00296C1053.404297,357.070313,1053.484619,356.932892,1053.419922,356.675995C1053.358398,356.432251,1053.729004,355.597443,1054.243408,354.820862C1054.757935,354.04425,1055.178833,353.320862,1055.178833,353.213318C1055.178833,352.880249,1058.884033,349.255615,1061.256104,347.26825C1067.696777,341.872009,1073.705933,337.963959,1077.122803,336.949249C1077.969971,336.697662,1079.535522,336.521729,1080.954346,336.518677C1082.273926,336.515839,1084.603394,336.348022,1086.131226,336.145782C1086.995972,336.031311,1090.253052,338.416229,1090.978271,335.754486C1091.947754,338.094757,1094.080444,335.551422,1095.180298,335.471222L1097.692627,337.526794L1098.877319,336.007111C1099.291016,336.502655,1099.820068,337.587189,1100.052979,338.417114L1102.922729,337.252747L1101.306396,339.557159C1104.209717,338.266724,1105.811279,337.783417,1106.216064,338.075531C1106.445801,338.241302,1104.522095,340.837036,1104.841309,340.975464C1108.220825,339.446625,1108.128784,339.733551,1109.203247,339.94754C1107.194458,342.74234,1107.485352,343.615967,1111.619629,341.550293C1112.922607,342.438324,1115.406372,344.369293,1116.043457,344.989441C1117.813965,346.71283,1119.4646,350.641968,1119.4646,353.133331C1119.4646,354.623596,1118.708862,358.430969,1118.222168,359.393188C1116.87085,362.064514,1115.269409,361.947174,1111.111328,358.872192L1109.077393,357.368011L1105.210083,357.111633C1101.144287,356.842102,1092.938721,357.010651,1088.908936,357.446472C1087.599487,357.588074,1085.365845,358.01532,1083.945435,358.395844C1081.607178,359.022217,1081.239136,359.209473,1080.05603,360.374023C1077.59021,362.80127,1076.114746,365.600037,1072.907959,373.932983C1072.297119,375.519958,1071.204956,378.079468,1070.480713,379.62085C1069.75647,381.16217,1068.828491,383.137604,1068.418579,384.01062C1065.717163,389.76355,1065.273071,390.701904,1061.675415,398.25946C1060.903809,399.880249,1059.828613,402.158752,1059.285889,403.322784C1058.743164,404.486816,1057.585815,406.927277,1056.713867,408.746063C1055.842041,410.56485,1054.85498,412.648193,1054.520386,413.375671C1054.185791,414.10321,1053.356689,415.888916,1052.677979,417.343933C1051.999268,418.79895,1051.283569,420.346588,1051.087646,420.783081C1049.75708,423.747009,1048.824585,425.416901,1047.903687,426.485199C1046.52002,428.090332,1042.797241,431.284241,1040.211426,433.084686C1039.865601,433.161865,1039.179077,433.800232,1038.613892,434.189758C1038.048706,434.579346,1036.931519,435.38147,1036.131226,435.972351C1035.330933,436.563202,1034.414673,437.161713,1034.095215,437.302399C1033.775635,437.443054,1033.013672,437.920654,1032.401978,438.363739C1031.790405,438.806824,1031.143799,439.169342,1030.96521,439.169342C1030.786621,439.169342,1030.516602,439.318481,1030.365356,439.500793C1029.50061,440.542725,1023.682373,442.817169,1019.643799,443.692017C1014.918213,444.715637,1013.186401,444.974121,1007.549438,445.496948C999.032532,446.286865,991.9198,446.55246,970.919556,446.864807C960.443359,447.02063,951.098145,447.19809,950.152344,447.259186C949.206604,447.320282,946.706604,447.492859,944.596802,447.642731C942.487061,447.792603,938.856079,448.033142,936.528015,448.177246C932.612671,448.419617,926.01239,449.341003,919.596802,450.54071C918.141785,450.812805,916.117981,451.169678,915.099487,451.333771C914.080933,451.497864,912.653687,451.806213,911.927734,452.018982C911.201843,452.231812,909.17804,452.641235,907.43042,452.928894C904.147461,453.469269,902.846985,453.781372,898.565063,455.05658C892.164185,456.96283,890.518433,457.423309,890.106506,457.423309C889.862854,457.423309,889.077454,457.839966,888.361145,458.349243C887.644897,458.85849,886.9776,459.275146,886.878296,459.275146C886.778992,459.275146,886.004761,459.731567,885.157837,460.289429C884.310913,460.84729,882.725098,461.873352,881.63385,462.569641C879.505127,463.927765,879.071899,464.205444,875.416931,466.554688C872.449524,468.461914,865.280151,473.248962,863.512146,474.50354C862.784668,475.019806,861.772705,475.717285,861.263489,476.053467C860.754211,476.389648,859.6828,477.279419,858.882507,478.030701C858.082275,478.781952,857.248901,479.550018,857.030701,479.737488C856.526733,480.170349,854.448303,481.382385,852.401062,482.437195C851.225037,483.043091,850.696472,483.500305,850.361084,484.201691C849.893921,485.178772,847.970703,490.851654,847.665527,492.152649C847.57074,492.556702,847.112427,493.509094,846.646973,494.269043C845.907104,495.477173,845.238708,496.448669,842.877258,499.74826C842.326233,500.518188,840.185181,503.704376,839.142029,505.306885C838.810547,505.816162,838.425415,506.709015,838.286255,507.291016C837.801086,509.320282,835.245728,517.879883,834.77179,519.063538C834.361023,520.089294,833.385986,521.440674,833.055115,521.442688C832.891052,521.443665,832.645447,521.295654,832.509277,521.11377z"/>
    <path transform="matrix(-1,0,0,-1,0,0)" style="stroke:none;fill:#000000;fill-rule:evenodd" d="M1032.21167,497.674713C1032.21167,497.629211,1031.824707,497.242279,1031.351807,496.814941L1030.492065,496.037933L1031.269043,496.897705C1031.993408,497.699158,1032.21167,497.879089,1032.21167,497.674713z"/>
</svg>
