<?xml version="1.0" encoding="UTF-8"?>
<svg xmlns="http://www.w3.org/2000/svg" width="400.000mm" height="365.546mm" viewBox="-1341.522461 -904.140259 400.000244 365.545715">
    <path transform="matrix(-0.525865,0,0,-0.525865,-920.883972,-536.03479)" style="stroke:#000000;stroke-width:0.05mm;fill:none" d="M416.240204,694.25C413.618713,688.749084,413.350281,688.512207,410.04361,688.781799C405.233582,689.17395,402.688019,691.690125,403.416504,695.33252C403.884338,697.671692,403.696564,698.097534,402.414307,697.605469C401.546478,697.272461,399.052765,697,396.872772,697C392.215698,697,388,693.516296,388,689.667908C388,686.453186,386.351898,685.242676,379.570129,683.476257C369.369324,680.819275,365.217926,682.035828,366.537964,687.295227C366.908539,688.771729,366.679626,690.079956,365.974457,690.515808C364.652191,691.333008,357,689.116821,357,687.916687C357,687.496887,355.788666,685.713867,354.308105,683.954346C351.72525,680.884766,351.391083,680.779053,346.058105,681.344238C343.00116,681.668213,339.063354,682.224365,337.307434,682.580139C334.678864,683.112732,333.687042,682.76532,331.69278,680.613525C328.656555,677.337341,326.684845,677.305847,324.591949,680.5C322.750061,683.311096,319.86615,683.748535,318,681.5C315.881775,678.947693,309.458466,679.592834,306.631287,682.641846C303.582245,685.930054,301.884827,685.361938,298.436035,679.898682C296.384583,676.648987,295.914948,674.911499,296.355011,672.199707C296.806213,669.419373,296.415985,668.094666,294.46167,665.772095C293.107758,664.163025,292,661.771912,292,660.458435C292,657.11969,288.819427,655.722595,282.65329,656.352844C263.948639,658.264526,264.94931,658.003418,264.322662,661.13678C263.910919,663.195435,262.990967,664.206482,261.122406,664.653931C258.259003,665.3396,255.775436,667.514099,254.730896,670.25C253.898193,672.43103,251.418213,672.532227,250.606995,670.418213C250.273148,669.548218,249.973175,666.735718,249.940384,664.168213C249.818436,654.617798,248.454193,649.742554,245.126221,646.964233C243.406799,645.528809,242,643.872742,242,643.28418C242,641.65686,239.42363,641,233.040665,641C225.487045,641,224.156601,639.602478,225.813309,633.408203C226.465988,630.967896,227,627.793396,227,626.353699C227,623.742554,223.481155,617,222.118439,617C220.860565,617,219.000549,619.344482,218.98468,620.950012C218.976273,621.80249,218.553741,623.157104,218.045731,623.960266C217.243149,625.229126,216.88475,625.211853,215.31105,623.828491C212.329071,621.207275,209.439102,620.840515,205.18367,622.543213C202.024597,623.80719,200.696014,623.907654,199.017792,623.009521C195.691483,621.229309,196.735916,617.729431,200.842651,616.894409C205.049149,616.039063,206.258148,614.838928,205.834671,611.938904C205.466415,609.417175,198.191757,605.077515,194.25,605.028198C192.370712,605.004639,192,604.448853,192,601.654968C192,597.716919,189.457718,595,185.772812,595C184.359467,595,180.636703,593.650024,177.5,592C168.766998,587.406189,159,587.957886,159,593.044983C159,593.949768,158.073654,595.528381,156.941467,596.552979C153.491913,599.674744,151.555588,597.454834,151.197662,589.967896C150.960266,585.002441,150.438614,583.247681,148.769485,581.800049C147.137939,580.385071,146.917587,579.682434,147.821823,578.778198C149.754562,576.845459,149.252136,572.878723,147,572.289734C145.899994,572.002075,144.985031,571.256714,144.966736,570.633362C144.921738,569.100525,141.427612,565,140.166428,565C138.754166,565,133,560.040161,133,558.822876C133,556.912354,138.721207,545.476257,140.355545,544.119873C142.681778,542.18927,142.398117,540.101013,139.5,537.82135C138.125,536.739746,137,535.031494,137,534.025269C137,532.902588,135.87178,531.802368,134.080017,531.177734C132.172638,530.512817,131.045593,529.351868,130.830017,527.829895C130.574844,526.028381,129.776581,525.429932,127.310173,525.191101C124.795624,524.947632,123.543358,525.529846,121.394867,527.941101C119.895866,529.623535,117.943916,531,117.057213,531C114.647469,531,110.994926,528.116882,109.961632,525.399109C108.738876,522.182983,103.092216,521.931335,102.274963,525.05658C101.89901,526.494202,101.250031,526.904907,100.118584,526.421265C99.228363,526.04071,97.482841,525.785583,96.239655,525.85437C94.996468,525.923096,93.083961,525.083984,91.989655,523.989685C90.895348,522.895325,89.324997,522,88.5,522C86.313118,522,86.664886,520.24115,89,519.5C90.907959,518.894409,91.51194,517.68988,91.005638,515.5C90.878479,514.950012,90.481415,512.25,90.123268,509.5C89.598488,505.470459,89.805435,504.208862,91.189499,503C92.726357,501.657684,92.773903,500.928345,91.641785,496.06189C90.183151,489.79187,87.602974,487.390106,81.526604,486.646118C79.341232,486.37854,77.385689,485.657074,77.180954,485.042847C76.103195,481.809601,71.639771,478.146729,67.510605,477.106995C63.837681,476.182129,62.744381,475.364868,61.66164,472.734772C60.442661,469.773712,60.506405,469.376953,62.414993,468.045898C63.561745,467.246124,64.949997,466.062592,65.5,465.415833C66.050003,464.769043,67.774055,463.943146,69.331238,463.580505C71.987404,462.961884,72.122536,462.684753,71.51667,459.098694C70.871361,455.279114,70.873817,455.275787,74.805565,454.647095C76.969643,454.301025,79.320793,453.31839,80.030342,452.46344C80.739891,451.60849,81.955933,451.152863,82.732658,451.450897C86.665581,452.960114,89.267929,448.237671,86.920448,443.851349C85.974358,442.083588,85.225357,441.918854,80.861794,442.519012C76.881714,443.066406,75.500198,442.857666,73.976387,441.478638C72.701332,440.324738,71.230629,439.959839,69.535042,440.37674C68.14077,440.719513,65.967743,441.259735,64.706093,441.577179C63.239906,441.946106,61.558186,441.46283,60.045418,440.237854L57.678638,438.32135L59.839321,436.160675C64.653549,431.346466,59.881634,426.089447,52.537991,428.117126C49.222103,429.032684,48.512859,428.890991,46.379395,426.886688C45.053272,425.640869,42.806194,422.638641,41.385895,420.215088C39.349545,416.740326,38.938271,415.03595,39.440773,412.154297C39.79126,410.14444,40.41441,405.799988,40.825558,402.5C41.60537,396.240967,42.823124,393.221619,45.445404,391.045319C46.30043,390.335693,47,388.685211,47,387.377563C47,385.282928,47.461414,385,50.877556,385C55.27787,385,56.229366,384.130493,57.990479,378.5C58.6786,376.299988,59.637245,374.07251,60.120804,373.549988C60.604362,373.027496,61,371.330353,61,369.778564C61,367.739441,60.306805,366.641266,58.5,365.818054C56.171696,364.757202,56,364.186554,56,357.508972C56,351.844879,55.4758,349.305695,53.504185,345.419464C52.131489,342.713776,51.006489,340.387512,51.004185,340.25C51.001884,340.112488,52.485001,340,54.299999,340C56.115002,340,58.139999,339.459991,58.799999,338.799988C60.447113,337.152893,60.307076,332.788239,58.531803,330.441132C54.457592,325.054535,58.344269,322.819824,64.867271,326.798431C67.415276,328.352539,71.714592,330.686127,74.421326,331.984192L79.342644,334.344299L85.671326,331.063019C91.10289,328.246887,92,327.393646,92,325.043884C92,323.538055,91.099998,321.268311,90,320C88.900002,318.731689,88,316.430908,88,314.887146C88,312.429352,87.471466,311.939392,83.75,310.947296C75.491264,308.745636,73.502098,306.497894,76.849838,303.150177C78.053764,301.946228,79,299.733643,79,298.122437C79,296.539795,79.675003,294.684692,80.5,294C82.421692,292.405121,82.421692,289.594879,80.5,288C79.675003,287.315308,79,286.165527,79,285.444946C79,283.359497,75.831375,282.928955,71.506416,284.426666C65.983696,286.339172,63.585682,285.022034,64.426865,280.538147C65.028702,277.330078,64.933342,277.220642,60.58136,276.124817C58.126904,275.506775,55.840443,274.550842,55.50034,274.000549C55.160233,273.450256,53.108524,273,50.940983,273C47.298344,273,47,272.789612,47,270.220764C47,268.588684,47.825531,266.846497,49,266C50.099998,265.207153,51.014313,263.645325,51.031803,262.529236C51.049294,261.413147,51.707363,259.649658,52.494171,258.610321C53.853935,256.814178,54.053257,256.804871,56.521507,258.42215C57.94973,259.357941,60.104164,259.983307,61.309139,259.811798C63.366055,259.519073,63.47747,259.07373,63.131493,252.527908C62.8494,247.190842,62.225502,244.845734,60.47105,242.527908C57.099861,238.074173,57.14566,236.602173,60.75,233.56279C62.537498,232.055466,64.000015,230.299713,64.000031,229.661102C64.000046,229.022491,65.575043,227.243317,67.500031,225.707367C69.425011,224.171417,71,222.070724,71,221.039154C71,216.17662,75.115646,213,81.415543,213C83.894989,213,85.936943,212.116257,88.347221,210C90.525528,208.087418,92.855431,207,94.775024,207C99.178696,207,99.561256,204.549744,96.019371,199.030182C94.358719,196.442276,93,193.801804,93,193.162445C93,191.734848,95.486832,191.654999,98.003326,193.001785C99.032837,193.55275,103.390747,194.20018,107.687576,194.440506C114.521843,194.822754,116.162567,194.560333,120.791908,192.344681C125.851044,189.923309,126.231583,189.882019,129.443039,191.405945C131.290604,192.282669,133.113266,193,133.493393,193C133.873535,193,135.328705,193.899994,136.727127,195C138.125549,196.100006,140.259033,197,141.468185,197C144.540146,197,145.261627,198.053421,143.513031,199.985596C142.69281,200.891937,141.904327,203.849884,141.760849,206.558807C141.502182,211.442856,141.52803,211.488358,144.848267,211.99205C148.255844,212.509003,149.103104,213.834625,151.883911,223C152.301086,224.375,153.830521,226.167603,155.282639,226.983551C157.794571,228.395004,158.084991,228.309952,161.259048,225.233551C165.4767,221.14563,168,220.98024,168,224.791687C168,227.183273,168.791428,227.971512,173.522156,230.291687C176.559341,231.78125,179.654236,233,180.399704,233C183.122009,233,184.382553,235.846863,183.268112,239.478088C181.924667,243.855408,183.86554,247,187.910675,247C189.468918,247,191.842712,248.051666,193.269821,249.374268C195.013092,250.989868,197.610458,251.970764,201.398438,252.444046C207.62146,253.221558,209,252.767624,209,249.940979C209,248.537262,208.307999,248,206.5,248C203.73526,248,203.119339,246.275177,205.550888,245.342102C206.437515,245.001877,208.112518,245.696533,209.46167,246.963989C212.591003,249.903854,215.344849,249.282303,216.002121,245.487793C216.495239,242.640915,216.75499,242.499481,221.509827,242.489136C225.502487,242.480453,227.725525,241.730835,232.630814,238.739136C239.804916,234.363693,243.406372,234.056046,252.839096,237.012894C259.797058,239.194,267.320007,239.520523,273.5,237.909653C282.382477,235.59436,285.722626,234.887939,290.5,234.314194C293.25,233.983932,297.75,232.477432,300.5,230.966431C306.829712,227.48851,315.608185,224.635666,317.613007,225.404999C318.459259,225.729736,321.06958,224.87146,323.413696,223.497711C326.050873,221.952225,329.21225,221,331.706116,221C335.335754,221,336.420868,220.328674,342.618256,214.2491C346.403229,210.536102,351.524994,206.219757,354,204.657227C356.475006,203.094696,360.75,199.058395,363.5,195.687683C366.25,192.316971,370.349884,187.520813,372.61084,185.029556C378.514496,178.524612,383.070587,164.397736,379.8974,162.436584C379.268127,162.047668,376.176514,164.656143,372.695679,168.512878C365.62384,176.348404,358,180.491974,358,176.5C358,175.675003,358.411713,175,358.914948,175C359.418152,175,361.697754,172.637497,363.980713,169.75C366.263702,166.862503,371.139465,162.096909,374.815796,159.15979C384.86261,151.133118,389.998291,144.993698,395.269745,134.708267C401.151703,123.231613,401.986725,118.477623,401.994202,96.424316C401.999939,79.499809,401.977875,79.327835,399.5,77C397.686035,75.295883,397,73.611122,397,70.860634C397,65.282089,391.363617,39.443447,388.632111,32.5C386.846161,27.960199,386.2995,24.712111,386.385864,19.153513L386.5,11.807027L390.5,10.555841C399.858795,7.628447,405.196136,6.82639,410.907074,7.489214C415.187714,7.986034,418.509521,7.693628,423.141571,6.412264C430.999664,4.238472,449.796814,4.380037,457.84436,6.673618C461.043793,7.585469,464.655884,7.94122,466.84436,7.56002C477.278015,5.742624,477.337128,5.748415,485.275177,9.365893C489.53656,11.307873,493.317719,13.664385,493.677734,14.602586C494.93808,17.886961,492.003601,24.886843,485.53537,34.025448C481.947479,39.094566,478.513641,45.092533,477.904602,47.354267C477.295593,49.616001,475.717896,53.596584,474.398651,56.200008C472.99881,58.96244,471.990845,62.717094,471.978027,65.216759C471.965973,67.57254,471.071869,71.448456,469.99115,73.829895C467.062958,80.282509,467.48349,96.755882,470.701813,101.667671C473.13446,105.380333,473.383942,115.060822,471.467346,131.370422C469.771851,145.798508,469.763214,146.981216,471.329376,150.281647C472.248199,152.217987,473,154.544098,473,155.45079C473,158.762161,476.29364,163.253845,488.60849,176.736847C498.019775,187.040894,502.350494,191.027924,505.8396,192.60054C512.779053,195.728287,524.448425,207.453461,536.771179,223.679947C540.187805,228.178925,543.774536,232.088882,544.741638,232.368729C545.70874,232.64859,550.099976,233.394897,554.5,234.027206C558.900024,234.6595,564.689148,235.812042,567.364807,236.588425C574.178833,238.565567,576.307068,238.36647,579,235.5C582.055237,232.247879,583.968262,232.347336,590.2854,236.086761L595.5,239.173538L590.77356,238.609116C585.204651,237.944122,583,238.58934,583,240.884125C583,242.748444,588.318604,249,589.904724,249C590.464294,249,593.302185,250.931793,596.21106,253.292892C602.735291,258.58844,612.515747,262.792145,614.874207,261.314423C615.768372,260.75415,616.65564,259.216705,616.845825,257.897858C617.370483,254.259842,618.879211,252.865005,621.039246,254.021011C623.378906,255.273163,628.14679,255.274887,631.434875,254.02475C633.413574,253.272476,634,252.353058,634,250.003311C634,246.651215,634.34491,246.436676,644.457703,243.498077C650.73584,241.673752,656,237.324722,656,233.962341C656,232.957962,654.565369,231.114639,652.811951,229.866089L649.623901,227.595993L652.791504,226.303467C656.376343,224.840714,657.594299,221.732483,656.540039,216.737198C655.39978,211.334305,655.436401,206.708496,656.622681,206.302475C657.240173,206.091141,657.985535,206.836624,658.279053,207.959106C658.837097,210.093002,662.387085,210.800751,663.5,209C664.492432,207.394226,665.725281,207.841507,666.293274,210.013367C666.582825,211.120728,668.380737,212.678955,670.288574,213.47612C674.386902,215.188492,674.742676,215.943466,675.607666,224.762573C676.37738,232.610245,677.207092,234,681.122437,234C685.108032,234,688,230.81868,688,226.434265C688,222.315247,689.498779,219,691.36084,219C692.856689,219,696.222656,222.477768,697.93042,225.787766C699.547668,228.922302,698.61438,231.097351,694.515686,233.746048C690.293579,236.474533,689.15387,240.059738,691.412842,243.507278C693.411499,246.557663,694.428284,246.591232,700.622864,243.811295C703.305298,242.607498,708.195984,241.122849,711.491028,240.512054C717.364868,239.423248,717.493896,239.328903,718.085388,235.689728C718.873291,230.842789,719.095154,230.701904,722.929077,232.614517C726.880859,234.585907,730.408508,233.392273,732.190735,229.480713L733.352051,226.931961L734.610596,229.925232C735.401062,231.80513,737.195374,233.47261,739.43457,234.408218C743.526001,236.117722,743.789673,236.975372,741,239.5C738.381531,241.869705,738.476501,243.949448,741.399902,248.257324C742.719788,250.202362,744.087219,252.699524,744.438599,253.80658C745.68927,257.747101,747.803833,258.560455,751.551086,256.542419C755.872009,254.215469,757.151978,255.17424,759.441284,262.452728C760.894897,267.074097,761.546814,267.927521,763.824463,268.190765C766.221802,268.467834,766.470154,268.863464,766.212891,271.995483C765.973633,274.908539,766.473511,275.941376,769.212891,278.194214C771.948608,280.444031,772.315125,281.199615,771.397888,282.69873C770.791687,283.689423,769.313538,284.645844,768.113037,284.824127C766.893311,285.005219,764.759094,286.917969,763.275879,289.159271C760.739441,292.992126,760.441101,293.143768,756.56073,292.572632C752.808655,292.020355,752.368896,292.206757,750.774841,295.025208C749.11261,297.964233,748.866699,298.051208,744.031494,297.40979C741.033752,297.012115,738.507324,297.159668,737.756653,297.776245C737.065491,298.343903,735.390076,298.963989,734.033569,299.154175C732.101868,299.425018,731.371155,300.332184,730.66333,303.338379C729.28241,309.202972,730.959412,312,735.856567,312C738.696472,312,740.131226,311.434937,741.136841,309.92041C742.227722,308.277466,743.109192,307.989319,745.335205,308.548004C747.800354,309.166687,748.063049,309.583191,747.435303,311.877594C745.998718,317.128662,746.341675,318.48172,749.19281,318.810913C751.339294,319.058716,752.206787,318.500763,753.468506,316.060913C755.214783,312.68399,756.185608,312.313812,757.894836,314.37326C759.487122,316.291901,758.309265,318.705566,755.427612,319.428802C753.863586,319.82135,753,320.753937,753,322.050446C753,324.723663,750.448853,325.591705,748.454285,323.597137C746.569336,321.712219,746.807495,321.742493,743.565125,322.97525C740.578918,324.110596,739.948547,327.998596,742.75,328.00235C743.712524,328.003632,745.963806,329.25589,747.752991,330.785095C750.767639,333.361847,750.885803,333.685608,749.366211,335.2052C748.464355,336.107056,747.986816,337.523315,748.304993,338.352448C749.005554,340.178009,756.567139,341.473633,760.929321,340.515533C763.385498,339.976044,764.408081,340.268555,765.771545,341.900604C767.338318,343.776001,767.906921,343.863678,771.850098,342.837738C777.073914,341.478577,777.96167,342.341187,777.98468,348.798279C777.998169,352.589478,778.342712,353.240631,780.904968,354.317993C783.546143,355.428528,783.682373,355.713928,782.404968,357.460846C780.649658,359.86142,780.579285,363,782.280762,363C782.985168,363,784.059387,364.31897,784.667847,365.931061C785.492371,368.115326,786.758423,369.131348,789.637085,369.918823C799.665527,372.662079,802.363647,377.206909,797.64386,383.405609C796.348022,385.107513,794.967712,387.512512,794.576477,388.75C793.695557,391.536774,792.403137,391.649506,791.710266,389C791.007935,386.314301,785.639526,386.248871,783.780273,388.90332C782.765564,390.352051,780.542603,391.008881,774.473572,391.65332L766.5,392.5L765.565063,396.285065C764.852417,399.170349,765.03186,401.19101,766.320007,404.785065C768.602112,411.152283,768.544189,411.313873,764.25,410.563721C761.111816,410.015533,758.341248,409.743744,748.816406,409.049805C748.44043,409.0224,747.990479,407.766357,747.816406,406.258545C747.473999,403.291748,745.482422,402.411102,741.420898,403.430481C739.673523,403.86908,739,404.728302,739,406.519043C739,409.415588,736.287781,409.950165,735.291565,407.25C733.851074,403.345856,728.315186,402.627625,727.583801,406.25C725.636719,415.894135,725.62439,415.858124,731.806763,418.604706C735.379822,420.192108,738.617188,420.964966,740.5,420.680054C742.368713,420.397278,744.175781,420.821899,745.292053,421.806061C746.410706,422.792389,748.571228,423.298309,751.042053,423.152527C754.336731,422.95813,755,423.235168,755,424.805847C755,427.97644,758.026855,433,759.937256,433C761.441406,433,767,439.418549,767,441.155426C767,441.456787,765.626282,443.140869,763.947266,444.897797C761.722534,447.225739,761.073425,448.656036,761.55426,450.170959C762.744629,453.921387,757.833374,455.20462,752.645203,452.498779C749.654053,450.938751,743.974609,451.226379,738.75,453.202484C736.155762,454.183716,736,454.595367,736,460.469635L736,466.696625L739.897949,468.227783C742.04187,469.069946,744.597168,471.05069,745.576355,472.629486C746.555603,474.208252,748.9375,477.182007,750.869446,479.237793L754.38208,482.975586L752.627136,486.655731C750.922119,490.23111,750.930969,490.415314,752.936096,493.127441C755.990723,497.259033,755.536987,497.980347,749.75,498.192078C742.880737,498.44339,741.450073,498.3237,735.5,497C726.698242,495.041901,725.538025,495.171631,725.192993,498.152466C724.9151,500.553101,725.277771,500.871124,729.012634,501.502136C731.282288,501.88559,733.387146,502.845276,733.690063,503.634766C734.335327,505.316162,722.817505,517,720.514771,517C719.691772,517,718.00177,515.415955,716.759216,513.479858C713.2099,507.949585,707.78717,507.85553,704.830261,513.272888C702.695923,517.18335,702.101563,525.156006,703.6604,528.966064C704.684204,531.468445,704.890625,534.338806,704.402771,539.289673C703.81543,545.250549,704.032898,546.800171,706.065979,551.140869C708.507874,556.354492,708.242737,558.182739,704.722595,560.403198C703.39801,561.238708,702.200623,560.52356,698.556213,556.720032C691.983459,549.860291,688,550.85907,688,559.366882C688,562.029297,687.504089,563.022644,685.924622,563.523926C683.421936,564.318237,683.064575,563.99823,680.504578,558.671204C679.021118,555.584351,677.82782,554.421875,675.914429,554.199463C672.765625,553.833435,671.323914,555.438232,669.678284,561.140869C668.206055,566.242859,665.84137,567.101685,660.389343,564.514526C658.48407,563.610413,655.929565,563.012268,654.712646,563.185364C652.6875,563.473328,652.528015,563.966125,652.830322,569C653.012024,572.025024,653.574524,574.92749,654.080322,575.450012C654.586182,575.972473,655,578.073181,655,580.118225C655,585.356323,655.856995,587,658.587952,587C661.652039,587,663.164673,591.675232,660.686768,593.487061C658.672363,594.960083,657,599.256226,657,602.95813C657,604.614319,656.344604,606.037537,655.418213,606.393005C652.945618,607.341858,648.183228,607.105469,647.5,606C646.214539,603.920105,641.570251,605.024231,638.309082,608.185059L635.022888,611.370117L632.609314,609.102722C629.145325,605.84845,625.78949,606.604309,624.383118,610.955627C623.768799,612.856262,622.819397,614.560181,622.273315,614.742249C620.844177,615.218628,618.640564,606.54718,619.323303,603.133545C620.27887,598.35553,618.231018,596.65625,612.429382,597.413269C605.417053,598.328247,594.892578,597.883728,590.342468,596.480469C585.723267,595.055908,581.683228,603.832336,585.5,607C586.409607,607.754883,587,609.944702,587,612.563416C587,617.488953,587.527283,618.002441,593.260742,618.661133C598.319458,619.24231,599,619.624573,599,621.884705C599,622.856384,600.111145,624.695251,601.469177,625.971069C604.202576,628.53894,603.964294,630,600.811951,630C598.669312,630,585,643.426941,585,645.531616C585,647.328491,589.283264,650.794922,591.957581,651.162354C594.241699,651.476135,594.430908,651.942322,594.63855,657.766357C594.778503,661.690918,594.492798,663.804565,593.874146,663.422241C591.974792,662.248352,587.921265,664.076904,586.98938,666.527954C585.888733,669.422913,583,669.853394,583,667.122437C583,664.286987,580.956055,663.141479,575.469177,662.901917C568.786011,662.610168,566.003662,663.612122,565.98468,666.317383C565.95752,670.189697,564.338257,671.489258,559.286499,671.693359C553.192505,671.939514,549.842529,670.630859,547.111816,666.937378C545.848267,665.228333,544.01178,663.997375,542.720093,663.993652C541.304321,663.989624,539.882874,662.902771,538.796509,660.993652C537.237793,658.254456,536.63855,658,531.746521,658C528.805908,658,525.911926,657.511902,525.315308,656.915344C524.71875,656.318787,523.16626,655.981262,521.865356,656.165344C519.780884,656.460266,519.427002,657.179138,518.885376,662.218933C518.547302,665.36438,517.607056,668.964417,516.795898,670.218933C515.984802,671.473511,515.015869,674.058716,514.642822,675.963806C514.269714,677.868896,512.750183,680.695068,511.266083,682.244141C509.064972,684.541626,508.603516,685.88446,508.762207,689.530334C508.869202,691.988647,508.719116,694,508.428711,694C508.138306,694,506.550537,693.301819,504.90036,692.448486C500.90802,690.383972,498.358551,691.366455,496.844696,695.552917C495.150146,700.239136,493,700.050476,493,695.215637C493,690.152283,489.546967,687.954895,482.790314,688.718628C478.204468,689.237,478.022797,689.152954,475.880035,685.52124C474.517792,683.212402,472.121429,681.074097,469.589722,679.908386C467.340363,678.87262,464.732452,677.471924,463.794342,676.795715C462.45047,675.826965,461.374847,675.82428,458.723328,676.783081C456.872406,677.452393,453.91333,678,452.147614,678C450.216431,678,448.707886,678.597656,448.361633,679.5C448.025909,680.374817,446.528198,681,444.768005,681C441.967163,681,441.791962,681.209839,442.333344,683.916687C442.848236,686.491211,442.556702,686.958862,439.848572,687.902954C437.27179,688.801208,436.376129,688.654419,434.255371,686.986267C432.866577,685.893799,431.148621,685,430.437714,685C427.916809,685,425,690.110779,425,694.527893C425,698.762634,423.961761,700,420.408417,700C419.623016,700,417.747345,697.412476,416.240204,694.25z"/>
    <path transform="matrix(-0.525865,0,0,-0.525865,-920.883972,-536.03479)" style="stroke:#000000;stroke-width:0.05mm;fill:none" d="M242.479858,636.563599C243.290314,634.270081,243.113449,633.506226,241.456848,632.145325C239.514648,630.549805,239.509552,630.445129,241.288483,628.688538C243.597931,626.40802,243.11264,623.510986,240.413513,623.465271C239.285614,623.446167,237.080048,622.421509,235.512253,621.188293C230.609894,617.332092,228.090866,620.491638,232.388123,625.106812C234.775757,627.671021,234.783783,627.740662,232.879974,629.370728C231.338898,630.690247,231.161133,631.432556,232.007462,633.013977C232.592056,634.106262,233.965668,635,235.059937,635C236.278717,635,237.429718,636,238.030899,637.581299C239.229019,640.732544,241.16304,640.290161,242.479858,636.563599z"/>
    <path transform="matrix(-0.525865,0,0,-0.525865,-920.883972,-536.03479)" style="stroke:#000000;stroke-width:0.05mm;fill:none" d="M541.889832,586.089233C543.042236,585.359497,542.899292,584.423462,541.053284,580.610107C539.828796,578.080627,538.415894,575.757019,537.913452,575.446533C537.411072,575.136047,537,574.008545,537,572.940979C537,569.314636,529.422913,571.466797,528.442871,575.37146C527.546631,578.942505,529.457153,581.678162,534.784241,584.45166C540.223022,587.283325,540.062622,587.246338,541.889832,586.089233z"/>
    <path transform="matrix(-0.525865,0,0,-0.525865,-920.883972,-536.03479)" style="stroke:#000000;stroke-width:0.05mm;fill:none" d="M365,573.653015C365,572.362183,365.899994,570.268311,367,569C370.464691,565.005188,368.891357,562,363.335175,562C359.517395,562,358,564.105347,358,569.402344C358,572.229065,358.550262,573.234619,360.75,574.42804C364.497375,576.460999,365,576.369324,365,573.653015z"/>
    <path transform="matrix(-0.525865,0,0,-0.525865,-920.883972,-536.03479)" style="stroke:#000000;stroke-width:0.05mm;fill:none" d="M635.515564,563.95105C635.898376,562.744751,635.505371,560.893982,634.559875,559.45105C632.734924,556.665833,632.580994,556.618713,629.934265,558.035156C627.593567,559.287903,627.492188,560.829956,629.556702,563.777466C631.507385,566.562439,634.657593,566.654175,635.515564,563.95105z"/>
    <path transform="matrix(-0.525865,0,0,-0.525865,-920.883972,-536.03479)" style="stroke:#000000;stroke-width:0.05mm;fill:none" d="M633.950378,541.241272C635.224548,540.209473,635.880005,538.85083,635.536011,537.954407C634.928284,536.370667,617.02179,527,614.603149,527C613.849426,527,611.606506,525.200012,609.618958,523C605.932617,518.919617,603.34198,518.058044,601.200012,520.200012C599.121094,522.27887,599.885986,525.993408,603.25,530.155945C605.037476,532.367798,607.400024,535.2854,608.5,536.639587C610.061523,538.561951,612.034729,539.334717,617.5,540.164185C621.349976,540.748474,625.400024,541.595093,626.5,542.045593C629.666565,543.342346,631.615479,543.131958,633.950378,541.241272z"/>
    <path transform="matrix(-0.525865,0,0,-0.525865,-920.883972,-536.03479)" style="stroke:#000000;stroke-width:0.05mm;fill:none" d="M181.214706,514.14801C180.790787,506.825104,180.901398,506.259064,182.855988,505.747894C185.280792,505.1138,187.540161,500.850006,186.662842,498.563782C185.880096,496.523956,183.165634,496.584167,178.372131,498.747589C176.242462,499.708771,172.475006,500.496246,170,500.497589C165.845337,500.499817,165.475906,500.709076,165.186035,503.224457C164.945084,505.315521,165.933182,507.083313,169.436035,510.828156C171.946213,513.51178,174,516.252808,174,516.919434C174,519.739929,176.166306,522,178.869812,522L181.66925,522L181.214706,514.14801z"/>
    <path transform="matrix(-0.525865,0,0,-0.525865,-920.883972,-536.03479)" style="stroke:#000000;stroke-width:0.05mm;fill:none" d="M697.095642,515.075073C698.564636,510.171967,697.990112,508.640411,693.919922,506.609955C689.073486,504.1922,688.792358,504.457397,689.531433,510.75C690.553711,519.454163,695.018738,522.007141,697.095642,515.075073z"/>
    <path transform="matrix(-0.525865,0,0,-0.525865,-920.883972,-536.03479)" style="stroke:#000000;stroke-width:0.05mm;fill:none" d="M595.811462,511.801361C596.067627,509.582031,595.40155,508.647278,592.061462,506.538788C589.827637,505.128662,588,503.305542,588,502.487457C588,501.401459,586.839417,501,583.700012,501C575.640625,501,574.848083,504.935822,581.694031,510.961884C585.927429,514.688293,586.835144,515.064575,590.944031,514.796875C595.061523,514.528564,595.529968,514.240234,595.811462,511.801361z"/>
    <path transform="matrix(-0.525865,0,0,-0.525865,-920.883972,-536.03479)" style="stroke:#000000;stroke-width:0.05mm;fill:none" d="M110.847473,493.344238C113.068253,492.749664,113.157928,492.413147,112.509216,487.10788C111.77758,481.124451,109.054298,477,105.83522,477C102.193748,477,94.474014,481.156342,93.233597,483.78476C90.533516,489.506195,91.987312,492,98.022774,492C99.595329,492,101.16008,492.450012,101.5,493C102.190987,494.118042,107.259804,494.304718,110.847473,493.344238z"/>
    <path transform="matrix(-0.525865,0,0,-0.525865,-920.883972,-536.03479)" style="stroke:#000000;stroke-width:0.05mm;fill:none" d="M332.964813,419.065735C333.53418,418.001892,334,415.992737,334,414.600922C334,411.343719,336.926605,409.713593,344,409.030853C349.392273,408.510406,349.495483,408.441254,349.268829,405.5C348.640686,397.348755,348.733734,397.519318,344.734039,397.18869C341.477722,396.919495,340.407318,397.427002,336.82489,400.93869C332.321106,405.353516,331.93161,405.531616,330.315338,403.915344C329.718781,403.318756,328.16626,402.981262,326.865326,403.165344C323.432037,403.651093,323.330078,407.757111,326.57196,414.981018C329.372131,421.220642,331.189941,422.382111,332.964813,419.065735z"/>
    <path transform="matrix(-0.525865,0,0,-0.525865,-920.883972,-536.03479)" style="stroke:#000000;stroke-width:0.05mm;fill:none" d="M119.434898,410.02475C122.665733,408.796387,122.860573,405.462677,119.75,404.633484C118.512497,404.303589,115.589188,404.813599,113.253754,405.766846C109.248627,407.401581,108.142754,408.809418,109.666656,410.333344C110.657784,411.324432,116.502037,411.139832,119.434898,410.02475z"/>
    <path transform="matrix(-0.525865,0,0,-0.525865,-920.883972,-536.03479)" style="stroke:#000000;stroke-width:0.05mm;fill:none" d="M136,404.53894C136,402.764648,131.973663,398.842102,130.616699,399.294434C128.932312,399.855896,127.655823,402.660706,128.309464,404.364075C129.138168,406.523621,136,406.679657,136,404.53894z"/>
    <path transform="matrix(-0.525865,0,0,-0.525865,-920.883972,-536.03479)" style="stroke:#000000;stroke-width:0.05mm;fill:none" d="M57.448135,395.083923C57.759533,394.580078,57.572227,393.005066,57.031906,391.583923C56.342102,389.769592,55.315105,389,53.583767,389C50.198517,389,49.55582,390.518707,51.696537,393.459595C53.516048,395.959198,56.403248,396.774567,57.448135,395.083923z"/>
    <path transform="matrix(-0.525865,0,0,-0.525865,-920.883972,-536.03479)" style="stroke:#000000;stroke-width:0.05mm;fill:none" d="M92.586899,393.507721C94.659744,390.344147,93.853439,388.221863,90.292816,387.469391C88.756767,387.144775,86.677238,386.430542,85.671638,385.882172C83.834946,384.880646,83.612923,384.980225,78.781723,388.972229C75.771782,391.459351,76.510811,393.997681,80.25,394.01532C82.037498,394.023743,84.175003,394.466858,85,395C87.670006,396.725494,90.894043,396.091339,92.586899,393.507721z"/>
    <path transform="matrix(-0.525865,0,0,-0.525865,-920.883972,-536.03479)" style="stroke:#000000;stroke-width:0.05mm;fill:none" d="M326.370392,383.894592C328.876648,378.462616,327.338226,376.634491,322.97525,379.860168C320.268005,381.861725,319.572449,381.974854,316.594391,380.89798C310.799103,378.802368,307.842651,381.958679,311.654999,386.171265C312.889496,387.53537,314.731506,387.993439,318.904999,387.974213C324.462341,387.948578,324.512604,387.921112,326.370392,383.894592z"/>
    <path transform="matrix(-0.525865,0,0,-0.525865,-920.883972,-536.03479)" style="stroke:#000000;stroke-width:0.05mm;fill:none" d="M553.225769,363C554.761841,360.522522,552.469971,356,549.678406,356C548.374268,356,545.89386,355.294891,544.166382,354.433105C540.904114,352.805664,539,353.173676,539,355.431671C539,356.154144,541.045898,358.631134,543.546509,360.936096C548.235291,365.258057,551.406494,365.934235,553.225769,363z"/>
    <path transform="matrix(-0.525865,0,0,-0.525865,-920.883972,-536.03479)" style="stroke:#000000;stroke-width:0.05mm;fill:none" d="M110.419571,348.884613C112.142143,347.529633,112.999428,346.001892,112.804428,344.634613C112.555687,342.890472,111.709084,342.443085,108.176086,342.188904C101.61869,341.717072,98.956245,345.084198,102.654991,349.171265C104.822922,351.566803,107.117401,351.482086,110.419571,348.884613z"/>
    <path transform="matrix(-0.525865,0,0,-0.525865,-920.883972,-536.03479)" style="stroke:#000000;stroke-width:0.05mm;fill:none" d="M526.370911,335.295746C526.758301,334.908386,528.287476,334.570892,529.769226,334.545746C532.613464,334.497437,534.30188,331.295013,531.823914,330.64859C531.095764,330.458649,528.959473,329.794647,527.07666,329.173035C524.582397,328.349609,523.293213,328.341675,522.32666,329.14386C520.937134,330.297058,520.522156,334.188812,521.666687,335.333344C522.544373,336.211029,525.479126,336.187561,526.370911,335.295746z"/>
    <path transform="matrix(-0.525865,0,0,-0.525865,-920.883972,-536.03479)" style="stroke:#000000;stroke-width:0.05mm;fill:none" d="M137.558868,327.531799C138.839691,326.563049,141.966187,326.052795,146.75,326.031799C153.294434,326.003082,154,325.807617,154,324.023041C154,321.427948,149.619415,318.629425,145.652267,318.690125C141.423111,318.754822,131.745758,322.457489,130.5,324.487549C129.747543,325.713745,129.98053,326.473969,131.441132,327.558563C133.890488,329.377411,135.125931,329.371979,137.558868,327.531799z"/>
    <path transform="matrix(-0.525865,0,0,-0.525865,-920.883972,-536.03479)" style="stroke:#000000;stroke-width:0.05mm;fill:none" d="M103.04274,301.930847C103.969643,300.431091,101.962349,295.199524,100.200607,294.523499C98.313637,293.799377,97.257423,294.601532,95.420532,298.153656C93.129951,302.58316,94.201797,304.391205,98.686806,303.663391C100.695053,303.337494,102.655228,302.557861,103.04274,301.930847z"/>
    <path transform="matrix(-0.525865,0,0,-0.525865,-920.883972,-536.03479)" style="stroke:#000000;stroke-width:0.05mm;fill:none" d="M720.5,287.5C720.5,284.687653,720.281067,284.516571,717,284.764771C711.824707,285.156281,711,285.672943,711,288.523407C711,290.984772,711.229248,291.094879,715.75,290.804779C720.293396,290.513245,720.5,290.369507,720.5,287.5z"/>
    <path transform="matrix(-0.525865,0,0,-0.525865,-920.883972,-536.03479)" style="stroke:#000000;stroke-width:0.05mm;fill:none" d="M155.169235,280.392395C162.349731,278.569,164,277.542694,164,274.900604C164,272.033417,160.15007,270.272491,152.677094,269.721588L145.854187,269.218597L142.927094,273.259338C141.3172,275.48175,140,278.357574,140,279.650024C140,281.762146,140.447296,282,144.419235,282C146.849808,282,151.687317,281.276581,155.169235,280.392395z"/>
    <path transform="matrix(-0.525865,0,0,-0.525865,-920.883972,-536.03479)" style="stroke:#000000;stroke-width:0.05mm;fill:none" d="M363.301422,273.427734C364.292236,270.16748,365.755219,266.304718,366.552551,264.843842C367.349854,263.382935,368.379761,259.42688,368.841248,256.052612L369.680267,249.917572L366.240326,253.208786C360.64502,258.562225,354.180756,267.446808,352.651489,271.885498L351.226044,276.022888L355.363037,277.922333C357.638367,278.967041,359.950012,279.716858,360.5,279.588623C361.049988,279.460388,362.310638,276.687988,363.301422,273.427734z"/>
    <path transform="matrix(-0.525865,0,0,-0.525865,-920.883972,-536.03479)" style="stroke:#000000;stroke-width:0.05mm;fill:none" d="M401.209503,276.970154C403.231354,275.5,405.534698,275,410.285187,275C417.292267,275,419.591675,273.497345,421.761932,267.5C423.058533,263.916901,424.059113,251.154556,423.090332,250.555832C422.715668,250.32428,420.951843,247.291992,419.170746,243.817413C416.013153,237.657608,407.548157,227.1185,406.555511,228.11116C406.282227,228.38443,403.972046,233.308716,401.421783,239.054016C396.634674,249.83847,391.069824,268.182251,390.2453,275.895752L389.775421,280.291534L394.137726,279.615906C396.536957,279.244324,399.719269,278.053711,401.209503,276.970154z"/>
    <path transform="matrix(-0.525865,0,0,-0.525865,-920.883972,-536.03479)" style="stroke:#000000;stroke-width:0.05mm;fill:none" d="M520.456299,274.655579C522.963135,272.822601,522.041504,269.662659,516.709167,261.807281C513.157227,256.574829,511.373566,254.98877,506.242004,252.5C502.839905,250.850006,499.503693,248.9375,498.828186,248.25C496.384521,245.762955,495.729919,247.046448,496.23468,253.334976C496.832275,260.779449,502.156494,273.273621,505.401917,274.84729C508.498077,276.348602,518.31189,276.223633,520.456299,274.655579z"/>
    <path transform="matrix(-0.525865,0,0,-0.525865,-920.883972,-536.03479)" style="stroke:#000000;stroke-width:0.05mm;fill:none" d="M571.432678,274.074402C573.841309,271.412842,573.096252,268.981476,569.032837,266.243164C562.18396,261.627686,558.408936,265.914154,563.474121,272.554993C566.435242,276.437225,568.873108,276.902649,571.432678,274.074402z"/>
    <path transform="matrix(-0.525865,0,0,-0.525865,-920.883972,-536.03479)" style="stroke:#000000;stroke-width:0.05mm;fill:none" d="M719,271.200012C719,268.602539,717.01593,267,713.799988,267C711.35553,267,711,267.380951,711,270C711,272.833344,711.222229,273,715,273C718.185181,273,719,272.633331,719,271.200012z"/>
    <path transform="matrix(-0.525865,0,0,-0.525865,-920.883972,-536.03479)" style="stroke:#000000;stroke-width:0.05mm;fill:none" d="M127.171257,269.345001C128.444199,268.193024,129,266.274658,129,263.033081C129,259.032379,128.582932,258.06778,126.040489,256.188049C124.412773,254.984619,121.744057,254,120.110046,254C117.790413,254,117.069054,253.506744,116.81955,251.75C116.472527,249.306641,112.542717,248.057281,110.772461,249.827545C110.10997,250.490036,108.253853,250.015289,105.238853,248.412201C101.920273,246.64769,99.117737,246,94.801399,246C89.235733,246,82.471542,248.223022,83.186218,249.817291C84.535271,252.826675,90.698669,261,91.618965,261C92.252022,261,93.522629,262.148682,94.442535,263.552643C95.950455,265.854004,96.545807,266.04071,100.490707,265.449127C103.718117,264.965149,105.467056,265.213745,107.155663,266.396484C110.319427,268.612457,113.21151,268.401764,115.445587,265.792572C117.500977,263.392029,117.55056,263.435547,119.385094,269.25C120.096931,271.506165,124.720871,271.562592,127.171257,269.345001z"/>
    <path transform="matrix(-0.525865,0,0,-0.525865,-920.883972,-536.03479)" style="stroke:#000000;stroke-width:0.05mm;fill:none" d="M541.279907,266.386749C541.907166,265.759491,534.639709,250.709824,532.401062,248C531.719482,247.175003,529.662903,243.771912,527.830933,240.437592C520.644531,227.358047,500.48056,204.295532,493.489044,201.159103C491.845062,200.421616,488.841217,198.962204,486.813843,197.915985C480.948669,194.889313,478.128571,197.154327,480.207733,203.221817C480.825562,205.024826,481.892242,207.399994,482.578125,208.5C483.264038,209.600006,484.814636,213.86673,486.023926,217.981644C488.429047,226.165573,491.747589,231.599487,497.657745,237.031296C505.098969,243.8703,509.848175,247,512.784851,247C515.020874,247,516.601685,248.090118,519.672791,251.75C521.865051,254.362503,524.462219,257.737488,525.444336,259.25C526.426453,260.762512,528.057251,262,529.068298,262C530.079407,262,531.715149,263.11087,532.703308,264.468567C534.414429,266.819611,539.671387,267.9953,541.279907,266.386749z"/>
    <path transform="matrix(-0.525865,0,0,-0.525865,-920.883972,-536.03479)" style="stroke:#000000;stroke-width:0.05mm;fill:none" d="M80.797714,257.25L81.095436,251L76.170158,251C70.486183,251,68.598038,252.550262,69.569214,256.419739C70.380722,259.653046,75.806488,264.113342,78.5,263.761353C80.221146,263.536438,80.541512,262.628571,80.797714,257.25z"/>
    <path transform="matrix(-0.525865,0,0,-0.525865,-920.883972,-536.03479)" style="stroke:#000000;stroke-width:0.05mm;fill:none" d="M586.832397,260.15213C587.21759,257.430939,584.4953,254.168579,578.20813,249.81691C574.231506,247.064514,573.203125,246.833588,564.20813,246.673157C555.188171,246.512268,554.48114,246.641785,554.234375,248.5C554.056946,249.835861,555.06665,251.204636,557.274963,252.621948C561.818115,255.537704,574.430786,260.996613,576.667603,261.01532C577.675415,261.023743,579.174988,261.477814,580,262.024353C582.663086,263.788605,586.465088,262.746765,586.832397,260.15213z"/>
    <path transform="matrix(-0.525865,0,0,-0.525865,-920.883972,-536.03479)" style="stroke:#000000;stroke-width:0.05mm;fill:none" d="M464.192017,255.968796C464.022614,254.610962,463.527771,250.574997,463.092407,247C461.793854,236.337662,459.651428,226,458.740234,226C458.27124,226,456.99234,228.137497,455.898193,230.75C454.804077,233.362503,453.532104,236.196976,453.071594,237.048843C451.6586,239.662659,453.926544,249.89032,456.187469,251.100327C457.277496,251.683685,458.824554,253.729218,459.625427,255.645966C461.364502,259.808105,464.700409,260.043945,464.192017,255.968796z"/>
    <path transform="matrix(-0.525865,0,0,-0.525865,-920.883972,-536.03479)" style="stroke:#000000;stroke-width:0.05mm;fill:none" d="M289.243347,254.279785C290.449127,253.188553,293.037384,252.493622,296.322083,252.379211C299.169922,252.280029,303.849609,251.873108,306.721344,251.47496C310.487244,250.952835,313.327118,251.203873,316.909241,252.375519C324.380981,254.819412,325.872375,254.549683,327.587738,250.444229C329.063934,246.911194,329.103577,246.892883,333.786713,247.57959C336.379028,247.959702,338.859863,248.884796,339.299683,249.635345C341.251831,252.966629,344.502411,250.754333,358.552185,236.532455C366.413025,228.575302,373.141754,221.128708,373.504944,219.984467C374.176727,217.867828,372.584442,215,370.737457,215C370.177765,215,364.820526,218.65625,358.832489,223.125C351.367218,228.696182,347.089417,231.243347,345.222595,231.228836C341.37854,231.198975,329.737152,237.511658,327.127838,241.040955C325.215668,243.627319,324.315948,244,319.984406,244C317.258759,244,313.006287,243.459091,310.534424,242.797974C301.007996,240.250031,283,245.64772,283,251.051102C283,255.986099,285.773193,257.420227,289.243347,254.279785z"/>
    <path transform="matrix(-0.525865,0,0,-0.525865,-920.883972,-536.03479)" style="stroke:#000000;stroke-width:0.05mm;fill:none" d="M251.859207,251.978043C254.25676,250.890121,257.654266,250,259.40921,250C266.142212,250,267.166779,244.871429,260.75,243.288605C258.412506,242.712006,253.622574,241.468536,250.105728,240.525345C245.251907,239.223572,243.143936,239.069016,241.355728,239.883774C238.241318,241.302795,238.353271,243,241.561279,243C244.024078,243,244.097015,243.170273,243.458374,247.429001C242.390152,254.552383,244.120712,255.489471,251.859207,251.978043z"/>
    <path transform="matrix(-0.525865,0,0,-0.525865,-920.883972,-536.03479)" style="stroke:#000000;stroke-width:0.05mm;fill:none" d="M235.2099,249.023254C235.811188,244.926361,234.760559,243.5923,231.564514,244.394455C228.130142,245.256424,227.298462,247.567322,229.533707,250.037247C232.204529,252.988464,234.693176,252.5439,235.2099,249.023254z"/>
    <path transform="matrix(-0.525865,0,0,-0.525865,-920.883972,-536.03479)" style="stroke:#000000;stroke-width:0.05mm;fill:none" d="M135.325806,223.845261C136.573929,221.866592,135.379181,217.082733,133.45224,216.343292C131.06485,215.42717,126,218.004852,126,220.136017C126,222.03476,131.664337,226.267044,133.428558,225.686508C133.93927,225.518463,134.79303,224.689896,135.325806,223.845261z"/>
    <path transform="matrix(-0.525865,0,0,-0.525865,-920.883972,-536.03479)" style="stroke:#000000;stroke-width:0.05mm;fill:none" d="M436,214.695786C436,213.978455,437.350006,211.262833,439,208.661057C440.649994,206.059265,442,203.454651,442,202.873001C442,202.291351,442.899994,200.671295,444,199.272873C446.664734,195.885223,446.520813,193.407654,443.447083,189.75473C442.042969,188.086044,440.654327,185.521622,440.361206,184.05603C440.068085,182.590424,438.338257,179.616547,436.517181,177.447418C433.260193,173.567978,433.172638,173.533798,431.159729,175.355453C430.03421,176.374023,428.807953,178.62323,428.434631,180.353699C428.06134,182.084167,426.900513,185.18985,425.85498,187.255219C424.112976,190.696442,424.08139,191.256683,425.47702,193.955551C426.314667,195.575378,427.011078,198.160522,427.024597,199.700333C427.047241,202.280975,430.121246,212.76915,431.516754,215.0271C432.409302,216.471283,436,216.205933,436,214.695786z"/>
</svg>
