<?xml version="1.0" encoding="UTF-8"?>
<svg xmlns="http://www.w3.org/2000/svg" width="576.660mm" height="261.309mm" viewBox="-1117.519531 -649.011719 576.660156 261.308594">
    <path transform="matrix(-1,0,0,-1,0,0)" style="stroke:#000000;stroke-width:0.05mm;fill:none" d="M942.664063,547.925781C943.029968,550.429932,943.414001,552.930908,943.816406,555.429688C938.025452,556.281494,932.242188,557.189209,926.46875,558.152344C923.439575,558.675293,920.379517,559.211426,917.351563,559.75L915.269531,537.972656L911.566406,503.996094L910.453125,495.683594C906.455688,496.260864,902.493896,496.848755,898.5,497.457031C891.621399,498.546753,884.762573,499.744507,877.921875,501.050781L876.269531,501.382813C875.508484,511.526367,874.922424,521.683716,874.511719,531.847656C874.247253,538.233948,874.055847,544.620667,873.9375,551.011719C873.89447,553.544006,873.869812,556.068848,873.863281,558.601563C868.013977,558.508118,862.155396,558.471619,856.304688,558.492188C853.165771,558.52417,850.189209,558.559326,847.050781,558.601563L848.503906,536.773438L850.320313,502.644531L850.5625,494.261719C846.538757,494.190063,842.505188,494.13147,838.480469,494.085938C831.518433,494.055786,824.557861,494.132568,817.597656,494.316406C816.07843,494.363251,814.560974,494.42569,813.042969,494.503906L813.789063,484.269531L813.378906,484.976563L782.1875,543.707031L778.871094,550.28125L776.832031,554.433594L776.492188,555.144531L778.746094,555.183594L777.097656,570.582031L774.652344,600.671875L773.71875,616.191406L785.394531,585.128906C785.62207,584.504822,785.832031,583.87439,786.023438,583.238281C786.986084,580.196655,788.033386,577.182312,789.164063,574.199219C789.972046,572.042603,790.896729,569.931396,791.933594,567.875C793.05658,565.746338,794.472839,563.785889,796.140625,562.050781C797.543457,560.6073,799.145569,559.372253,800.898438,558.382813C802.271667,557.621399,803.716064,556.996033,805.210938,556.515625C808.976929,555.300659,812.90625,554.667236,816.863281,554.636719C819.086609,554.602905,821.309509,554.72583,823.515625,555.003906C825.582275,555.257141,827.639343,555.581543,829.683594,555.976563L831.722656,556.398438C833.077332,556.698914,834.425171,557.028381,835.765625,557.386719C837.893677,557.963989,840.000427,558.616577,842.082031,559.34375C844.897827,560.326843,847.659668,561.458557,850.355469,562.734375L851.910156,563.519531L853.4375,564.355469L854.941406,565.238281L856.417969,566.167969C859.139282,567.943054,861.65033,570.021301,863.902344,572.363281C864.659058,573.160889,865.376282,573.995056,866.050781,574.863281C866.338989,575.234009,866.61261,575.615784,866.871094,576.007813L866.921875,574.816406C867.062805,570.999817,867.189514,567.169128,867.300781,563.351563L880.453125,563.859375L882.445313,563.910156L894.570313,564.152344C893.558411,571.835205,892.774109,579.547913,892.21875,587.277344C891.963013,590.678589,891.736572,594.078918,891.539063,597.484375L924.375,598.449219L926.371094,565.089844L940.363281,565.621094C944.661316,565.726013,948.982971,565.812195,953.28125,565.878906L949.980469,598.722656L948.199219,622.679688L947.582031,633.339844C947.41748,636.31073,947.289917,639.283752,947.199219,642.257813L947.09375,648.046875C942.367615,647.83606,937.642334,647.656372,932.914063,647.507813C928.65155,647.399902,924.385498,647.315186,920.121094,647.253906L920.8125,640.914063L921.445313,634.566406L922.015625,628.214844L922.523438,621.855469C922.644897,620.148438,922.757568,618.453979,922.863281,616.746094L890.054688,615.78125C889.727905,619.549255,889.450684,623.318481,889.222656,627.09375C888.970337,630.979553,888.748657,634.875977,888.558594,638.765625C888.478821,640.518555,888.439697,642.272583,888.441406,644.027344L888.4375,646.320313L874.179688,645.78125L873.28125,645.757813L861.53125,645.53125C862.786377,633.099243,863.936768,620.670044,864.984375,608.21875L865.183594,605.648438L864.667969,606.996094L861.140625,616.011719C859.811279,619.492615,858.531616,622.990723,857.300781,626.507813L849.417969,649.011719C845.372437,647.736816,841.291138,646.471436,837.234375,645.234375C832.975098,643.962585,828.697571,642.722839,824.417969,641.519531L833.496094,617.484375C835.995117,610.984802,838.330078,604.425354,840.5,597.808594C841.089722,596.015747,841.58374,594.192871,841.980469,592.347656C842.266663,591.023865,842.450989,589.680115,842.53125,588.328125C842.594666,587.047241,842.461426,585.76416,842.136719,584.523438L841.933594,583.851563C841.705688,583.196228,841.41272,582.565369,841.058594,581.96875C840.677734,581.356323,840.234802,580.78479,839.738281,580.261719C839.381287,579.892517,839.004578,579.542786,838.609375,579.214844C837.108521,578.023438,835.437439,577.063843,833.652344,576.367188L832.597656,575.988281L831.527344,575.667969L830.4375,575.40625L829.332031,575.207031C828.274963,575.04718,827.204529,574.993958,826.136719,575.046875L825.269531,575.125L824.410156,575.265625L823.5625,575.464844L822.730469,575.722656C821.474304,576.213013,820.3078,576.907532,819.277344,577.777344C818.339722,578.563354,817.487122,579.445618,816.734375,580.410156C816.085693,581.206726,815.497009,582.050232,814.972656,582.933594C814.439209,583.8255,813.955322,584.746155,813.523438,585.691406C812.71814,587.466125,811.961365,589.262146,811.253906,591.078125C809.4823,595.612305,807.753662,600.166382,806.070313,604.734375C803.263611,612.273315,800.555359,619.840942,797.941406,627.449219C797.427856,628.945496,796.880737,630.430542,796.300781,631.902344L796.09375,632.394531C796.012024,632.572083,795.922363,632.745911,795.816406,632.910156L795.769531,632.929688L773.195313,626.164063C773.127686,628.031738,773.072998,629.897095,773.03125,631.765625L772.917969,637.359375C768.072449,637.087891,763.226807,636.888672,758.375,636.761719C755.997253,636.712585,753.616577,636.69043,751.238281,636.695313C747.534851,636.713501,743.828552,636.712158,740.125,636.691406C737.151123,636.666382,734.17865,636.593506,731.207031,636.472656C729.369385,636.380981,727.536011,636.218079,725.710938,635.984375C724.735718,635.849609,723.766235,635.67627,722.804688,635.464844C720.093872,634.814758,717.530701,633.657715,715.25,632.054688C713.2276,630.630249,711.47168,628.861145,710.0625,626.828125C709.288391,625.69928,708.632568,624.493652,708.105469,623.230469C707.495972,621.766724,707.032898,620.246277,706.722656,618.691406C706.263,616.466919,706.065002,614.196228,706.132813,611.925781C706.208313,609.079651,706.687073,606.258606,707.554688,603.546875C708.514832,600.586243,709.963074,597.807068,711.839844,595.324219C713.692566,592.876648,715.997131,590.806763,718.628906,589.226563C719.900818,588.460815,721.234924,587.803406,722.617188,587.261719C725.069641,586.286987,727.625183,585.595032,730.234375,585.199219C734.246277,584.580322,738.328369,584.568359,742.34375,585.164063C743.36499,585.315491,744.382202,585.492676,745.394531,585.695313C745.6875,587.610229,746.031494,589.517395,746.425781,591.414063C747.069702,594.70697,747.802979,597.981445,748.625,601.234375L748.890625,602.207031C746.377747,601.622681,743.794922,601.396423,741.21875,601.535156C740.149414,601.601196,739.09021,601.781189,738.058594,602.070313C737.375793,602.26593,736.71283,602.524963,736.078125,602.84375C735.119507,603.3526,734.257202,604.025208,733.53125,604.832031C732.052856,606.441162,731.173462,608.510376,731.039063,610.691406L731.003906,611.421875L731.019531,612.152344C731.048645,612.640015,731.108398,613.125427,731.199219,613.605469C731.337585,614.303345,731.575073,614.977661,731.902344,615.609375C732.394043,616.503723,733.100525,617.261414,733.957031,617.816406C734.801392,618.388733,735.752991,618.783813,736.753906,618.980469C738.064209,619.230774,739.392944,619.372131,740.726563,619.402344C742.232849,619.445068,743.739624,619.449036,745.246094,619.414063L750.320313,619.199219L750.863281,613.191406L751.351563,607.179688L751.789063,601.164063C752.562012,589.040039,753.258301,576.882813,753.875,564.75C753.957642,562.666321,754.024048,560.580872,754.074219,558.496094C750.584717,558.511902,747.083191,558.54718,743.59375,558.601563L734.796875,533.457031L717.433594,486.546875L716.09375,493.476563L709.628906,535.984375L707.304688,553.144531L706.402344,562.507813C699.71875,561.768066,693.03949,561.086426,686.34375,560.460938C682.825684,560.152344,679.084412,559.82959,675.5625,559.53125L654.4375,510.46875L651.566406,503.28125C650.720337,508.501831,649.925537,513.735718,649.183594,518.972656C647.687622,529.414795,646.290161,539.874512,644.992188,550.34375C644.745789,552.39856,644.520508,554.456177,644.316406,556.515625C640.382141,556.070007,636.456177,555.65155,632.515625,555.257813C629.250854,554.96106,625.993591,554.679077,622.726563,554.410156L622.722656,559.402344C618.236206,559.278442,613.749878,559.219849,609.261719,559.226563C606.022522,559.25647,602.780945,559.324219,599.542969,559.429688C593.44635,559.664551,587.343262,559.776611,581.242188,559.765625C579.96936,559.751648,578.697632,559.717834,577.425781,559.664063L574.882813,559.515625L572.347656,559.308594C570.499634,559.141602,568.661377,558.880798,566.839844,558.527344C562.199097,557.596741,557.817322,555.665527,554,552.867188L552.976563,552.058594L551.992188,551.207031L551.046875,550.308594L550.148438,549.367188L549.289063,548.386719L548.476563,547.363281L547.714844,546.304688C546.08667,543.930603,544.761414,541.36261,543.769531,538.660156C543.377258,537.620728,543.029541,536.565002,542.726563,535.496094L542.289063,533.851563L541.910156,532.199219L541.589844,530.53125L541.328125,528.855469L541.121094,527.164063L540.976563,525.460938L540.886719,523.746094L540.859375,522.015625C540.859253,520.340515,540.92572,518.665955,541.058594,516.996094C541.195251,515.351624,541.400024,513.713501,541.671875,512.085938C541.941162,510.496918,542.277527,508.920074,542.679688,507.359375C542.942444,506.35318,543.231567,505.354218,543.546875,504.363281C543.857849,503.406769,544.193909,502.458374,544.554688,501.519531C545.08551,500.167358,545.681152,498.841553,546.339844,497.546875C546.971375,496.309052,547.663635,495.10318,548.414063,493.933594C549.127563,492.826874,549.899353,491.758881,550.726563,490.734375C551.526855,489.750397,552.382446,488.812714,553.289063,487.925781C554.871399,486.381622,556.593811,484.987854,558.433594,483.761719C559.705811,482.921448,561.025696,482.155823,562.386719,481.46875L563.632813,480.878906L564.898438,480.339844L566.1875,479.847656C566.974487,479.574158,567.772034,479.331726,568.578125,479.121094C569.386475,478.913116,570.202087,478.734497,571.023438,478.585938C572.16272,478.378754,573.306274,478.195068,574.453125,478.035156C575.602844,477.882935,576.75531,477.753998,577.910156,477.648438C581.604187,477.315002,585.310669,477.13385,589.019531,477.105469L591.03125,477.09375L615.390625,477.273438C618.197083,477.261719,620.998962,477.221375,623.804688,477.152344L626.546875,477.09375C625.925354,483.327545,625.389099,489.563934,624.9375,495.8125C624.642517,500.321228,624.389832,504.83374,624.179688,509.347656C623.653076,520.275513,623.229736,531.212219,622.910156,542.148438L623.917969,536.496094L631.414063,487.058594L633.15625,472.75C637.399902,473.227875,641.644897,473.676971,645.894531,474.097656C651.708496,474.65509,657.546875,475.178528,663.367188,475.664063C664.596191,478.669922,665.860352,481.6604,667.160156,484.636719L675.582031,502.71875C678.219727,508.333618,680.759766,513.995911,683.199219,519.699219C684.847351,523.405823,686.402527,527.153137,687.863281,530.9375L691.902344,502.601563L694.828125,478.699219C698.434021,479.113098,702.03717,479.500793,705.648438,479.863281C708.815186,480.160095,711.982788,480.440002,715.152344,480.703125L713.402344,476.292969L721.929688,476.378906C721.323547,476.191376,720.725525,475.978546,720.136719,475.742188C717.226257,474.558136,714.609619,472.753021,712.46875,470.453125C711.448425,469.337372,710.555847,468.111237,709.808594,466.796875C709.352539,465.990723,708.946838,465.157074,708.59375,464.300781C707.50885,461.597656,706.845093,458.744202,706.625,455.839844C706.390381,452.952576,706.572083,450.0466,707.164063,447.210938C707.917847,443.65625,709.358765,440.283203,711.40625,437.28125C712.958374,435.024445,714.886108,433.050507,717.105469,431.445313L718.101563,430.761719L719.125,430.125L720.175781,429.53125C721.530762,428.812744,722.933899,428.188873,724.375,427.664063C726.463562,426.898438,728.618591,426.328003,730.8125,425.960938C733.940002,425.415924,737.120728,425.241425,740.289063,425.441406C741.445374,425.520203,742.599243,425.628204,743.75,425.765625C744.186157,427.654327,744.672119,429.531403,745.207031,431.394531C746.010376,434.304047,746.877747,437.195313,747.808594,440.066406C748.020142,440.704803,748.240112,441.340149,748.46875,441.972656C746.14209,441.615326,743.779419,441.555206,741.4375,441.792969C740.301086,441.911377,739.179504,442.144623,738.089844,442.488281L737.398438,442.742188C736.943848,442.927216,736.500305,443.138306,736.070313,443.375C735.138245,443.895569,734.31012,444.583527,733.625,445.402344C732.099426,447.169708,731.274902,449.434967,731.304688,451.769531L731.324219,452.5L731.394531,453.226563L731.511719,453.949219L731.679688,454.660156C731.868713,455.3461,732.155579,456.001251,732.53125,456.605469C733.087158,457.46283,733.849121,458.166809,734.746094,458.65625C735.632751,459.161591,736.611633,459.48407,737.625,459.605469C738.286865,459.681305,738.951416,459.730591,739.617188,459.753906C740.659546,459.770203,741.702087,459.742767,742.742188,459.671875C743.870056,459.602234,744.996277,459.513763,746.121094,459.40625L751.167969,458.8125L751.257813,452.78125L751.296875,446.746094L751.28125,440.714844C751.181641,431.634918,751.036621,422.523987,750.847656,413.445313C750.79248,410.376953,750.723511,407.31488,750.640625,404.246094L750.5625,402.140625L750.191406,393.964844L762.195313,393.539063C766.36969,393.328735,770.558167,393.098999,774.730469,392.851563L774.234375,408.328125L774.046875,438.519531L774.359375,459.871094C774.400085,461.692719,774.463867,463.512085,774.550781,465.332031L779.613281,427.957031C779.691711,427.298553,779.754211,426.638062,779.800781,425.976563C780.062317,422.795654,780.411377,419.622528,780.847656,416.460938C781.128784,414.403076,781.504089,412.359344,781.972656,410.335938C782.355774,408.755676,782.880005,407.213043,783.539063,405.726563C784.395813,403.818817,785.504456,402.034515,786.835938,400.421875C787.841309,399.224213,788.981567,398.146698,790.234375,397.210938L791.257813,396.476563L792.3125,395.792969L793.394531,395.148438C796.66687,393.324219,800.180847,391.972382,803.832031,391.132813C804.856995,390.896332,805.88855,390.690491,806.925781,390.515625C807.964355,390.344208,809.007874,390.203522,810.054688,390.09375C813.778381,389.7052,817.522949,389.556396,821.265625,389.648438C825.934265,389.758087,830.586853,390.237335,835.179688,391.082031C836.104004,391.250458,837.024902,391.437988,837.941406,391.644531L839.632813,392.066406L841.308594,392.539063L842.96875,393.0625L844.613281,393.636719C847.662659,394.760559,850.574524,396.226868,853.292969,398.007813C854.462524,398.781738,855.57843,399.63385,856.632813,400.558594C857.502869,401.333557,858.319763,402.166168,859.078125,403.050781C859.580566,403.650909,860.038391,404.286957,860.449219,404.953125L860.550781,405.136719L860.484375,403.066406C860.342224,399.24646,860.182068,395.424347,860.003906,391.605469L873.15625,391.128906L875.46875,391.015625L887.257813,390.367188C886.824341,398.104401,886.61853,405.852081,886.640625,413.601563C886.636353,417.011719,886.665039,420.422272,886.726563,423.832031L919.542969,422.339844L919.039063,388.921875L933.035156,388.410156C937.34906,388.188599,941.621216,387.954468,945.933594,387.703125L945.097656,420.699219L945.109375,444.722656L945.292969,455.398438C945.349182,458.374115,945.444214,461.347137,945.578125,464.320313L945.902344,470.101563C941.179199,470.244751,936.443665,470.419556,931.722656,470.625C927.454346,470.835205,923.211792,471.067383,918.945313,471.324219L919.164063,464.953125L919.320313,458.574219L919.414063,452.199219L919.445313,445.820313C919.437378,444.117676,919.424316,442.402069,919.40625,440.699219L886.613281,442.1875C886.566833,446.942322,886.583801,451.698639,886.664063,456.453125C886.705078,459.813629,886.779297,463.176147,886.886719,466.535156C886.938538,467.850281,887.015381,469.164429,887.117188,470.476563L887.285156,472.765625L873.023438,473.289063L872.125,473.335938L860.394531,473.984375C860.717163,461.455994,860.934448,448.930237,861.046875,436.398438L860.335938,441.175781C859.818665,444.863281,859.35083,448.56131,858.933594,452.261719L856.265625,475.957031C852.019714,475.616211,847.800476,475.296143,843.550781,474.992188C839.112854,474.703613,834.668518,474.449463,830.226563,474.230469L833.714844,448.773438C834.703491,441.880463,835.517395,434.965332,836.15625,428.03125C836.359619,425.861847,836.426208,423.681702,836.355469,421.503906C836.311035,420.443329,836.200012,419.386566,836.023438,418.339844C835.825806,417.252502,835.490723,416.194733,835.027344,415.191406C834.559509,414.188934,833.931274,413.26947,833.167969,412.46875L832.65625,411.980469C832.2901,411.661774,831.903809,411.367004,831.5,411.097656C831.070862,410.814056,830.624634,410.557159,830.164063,410.328125C828.436707,409.500549,826.594299,408.938324,824.699219,408.660156L823.585938,408.523438L822.46875,408.453125L821.347656,408.441406L820.230469,408.492188C819.163818,408.571747,818.107849,408.757477,817.078125,409.046875L816.25,409.316406L815.441406,409.644531L814.660156,410.027344L813.910156,410.464844C812.794434,411.223328,811.811218,412.160278,811,413.238281C810.262329,414.214508,809.627808,415.264557,809.105469,416.371094C808.653076,417.293915,808.267883,418.248199,807.953125,419.226563C807.634399,420.215668,807.368225,421.220917,807.15625,422.238281C806.764893,424.147583,806.427551,426.067719,806.144531,427.996094C805.428345,432.812714,804.759521,437.631012,804.136719,442.460938C803.079651,450.431885,802.126038,458.421906,801.277344,466.417969C801.109497,467.991058,800.907593,469.560638,800.671875,471.125L800.582031,471.648438L800.445313,472.164063C800.433228,472.188873,800.421509,472.213776,800.402344,472.234375L800.382813,472.246094L774.804688,470.546875L775.058594,475.234375C770.999268,475.313721,766.943176,475.437378,762.886719,475.605469C759.716675,475.748901,756.550537,475.944153,753.386719,476.191406C749.329651,476.512268,745.271484,476.810364,741.210938,477.085938L741.960938,479.769531L742.992188,483.230469L744.078125,486.671875C745.510681,491.039825,747.030762,495.379974,748.636719,499.6875L778.988281,499.6875L781.246094,495.050781C782.734863,491.949341,784.192993,488.839294,785.625,485.710938C786.691956,483.359344,787.745911,481.01535,788.796875,478.65625L789.835938,476.292969L801.484375,476.402344C805.779175,476.419067,810.068909,476.396973,814.363281,476.335938L814.367188,476.292969C815.706787,476.319031,817.047119,476.31897,818.386719,476.292969L818.371094,476.320313L833.421875,476.394531L848.484375,476.414063L863.542969,476.378906L878.589844,476.292969C878.354736,478.482941,878.129639,480.632996,877.90625,482.824219L887.699219,481.285156L903.546875,478.730469L919.378906,476.113281L935.214844,473.4375C935.613647,480.815796,936.109863,488.189331,936.703125,495.554688C936.957458,498.587433,937.229065,501.611023,937.519531,504.640625C938.686584,500.638153,940.451233,496.83493,942.753906,493.359375C945.418945,489.377655,948.792664,485.91922,952.707031,483.15625C954.460571,481.910248,956.310059,480.805145,958.238281,479.851563C960.788879,478.596069,963.446533,477.570953,966.179688,476.789063L968.140625,476.257813L970.117188,475.785156L972.105469,475.367188L974.101563,475.003906L976.113281,474.703125L978.128906,474.457031L980.152344,474.269531L982.179688,474.140625C986.358337,473.927399,990.547424,474.064423,994.703125,474.550781C997.163208,474.847534,999.606506,475.269897,1002.023438,475.816406C1003.99408,476.260864,1005.940552,476.805969,1007.855469,477.449219C1010.842529,478.466675,1013.708557,479.80957,1016.402344,481.453125C1019.180786,483.157684,1021.746826,485.186371,1024.046875,487.496094C1025.858032,489.297699,1027.4729,491.286591,1028.863281,493.429688C1029.454834,494.348907,1029.998779,495.298004,1030.492188,496.273438L1031.023438,497.394531L1031.261719,497.949219L1031.332031,494.9375L1031.433594,488.289063C1031.482178,483.513947,1031.505615,478.709808,1031.503906,473.933594L1044.664063,474.054688L1046.65625,474.046875L1058.789063,473.933594L1058.359375,478.335938L1057.984375,482.742188L1057.664063,487.152344C1057.228149,493.874725,1056.918213,500.605652,1056.734375,507.339844L1089.585938,507.339844L1090.597656,473.933594L1104.601563,474.054688C1108.893555,474.031494,1113.227783,473.990967,1117.519531,473.933594L1115.1875,506.855469L1114.109375,530.855469L1113.8125,541.53125C1113.727661,544.505127,1113.687256,547.478088,1113.691406,550.453125L1113.75,556.242188C1109.025635,556.178467,1104.292236,556.137939,1099.566406,556.121094C1095.300903,556.138062,1091.030884,556.178345,1086.765625,556.242188L1087.273438,549.886719L1087.714844,543.523438L1088.101563,537.160156L1088.421875,530.789063C1088.493652,529.081421,1088.557129,527.380127,1088.613281,525.671875L1055.789063,525.671875C1055.601563,529.015747,1055.449219,532.363831,1055.332031,535.710938C1055.225586,538.594788,1055.134033,541.497559,1055.058594,544.382813C1055.014282,546.157715,1054.980469,547.935486,1054.957031,549.710938C1054.945435,551.12384,1054.96228,552.536987,1055.007813,553.949219L1055.074219,556.242188L1040.800781,556.121094L1039.90625,556.125L1028.15625,556.242188C1028.623047,549.602173,1029.059082,543.026611,1029.472656,536.382813L1029.121094,537.035156L1028.378906,538.296875L1027.59375,539.527344L1026.757813,540.722656L1025.878906,541.882813L1024.949219,543.011719L1023.976563,544.105469L1022.960938,545.164063L1021.894531,546.191406L1020.78125,547.183594L1019.625,548.140625L1018.421875,549.0625L1017.171875,549.949219L1015.875,550.804688L1014.535156,551.625C1013.841187,552.03302,1013.137878,552.425293,1012.425781,552.800781C1010.71814,553.689941,1008.966064,554.490967,1007.175781,555.199219C1006.265015,555.558044,1005.34552,555.894104,1004.417969,556.207031C1003.21759,556.613831,1002.003174,556.978699,1000.777344,557.300781C997.976318,558.044495,995.127075,558.592712,992.25,558.941406C991.061218,559.095337,989.867859,559.212524,988.671875,559.292969C985.347534,559.536682,982.010681,559.5578,978.683594,559.355469C975.447144,559.151306,972.230042,558.708496,969.058594,558.03125L967.363281,557.648438C966.237671,557.375427,965.120117,557.070618,964.011719,556.734375L962.355469,556.203125C958.684143,554.950012,955.204529,553.193481,952.015625,550.984375C948.661011,548.647095,945.678101,545.8172,943.167969,542.589844C942.626221,541.879883,942.109192,541.15155,941.617188,540.40625C941.945129,542.914246,942.294495,545.423584,942.664063,547.925781z"/>
    <path transform="matrix(-1,0,0,-1,0,0)" style="stroke:#000000;stroke-width:0.05mm;fill:none" d="M592.03125,494.957031L590.28125,495.019531L588.539063,495.140625L586.800781,495.316406L585.070313,495.550781C584.234802,495.683472,583.403687,495.842346,582.578125,496.027344C579.52356,496.710693,576.710571,498.207489,574.4375,500.359375C572.894653,501.799133,571.597351,503.481354,570.597656,505.339844C569.82251,506.761047,569.192932,508.256866,568.71875,509.804688L568.308594,511.203125L567.953125,512.613281L567.652344,514.027344L567.40625,515.453125L567.214844,516.882813L567.078125,518.324219L566.996094,519.773438L566.96875,521.234375C566.966003,522.081482,566.994873,522.928467,567.054688,523.773438C567.137329,524.867554,567.270447,525.957214,567.453125,527.039063C567.795715,528.958374,568.38092,530.826294,569.195313,532.597656C569.8703,534.024231,570.721985,535.360291,571.730469,536.574219C572.835815,537.886475,574.179565,538.977844,575.691406,539.789063L576.503906,540.183594L577.335938,540.53125L578.191406,540.824219C579.532959,541.241577,580.907776,541.543152,582.300781,541.726563C583.951904,541.949646,585.615234,542.071045,587.28125,542.089844C590.520447,542.106873,593.758972,542.016968,596.992188,541.820313L598.445313,541.734375L600.476563,495.242188L598.367188,495.085938L596.257813,494.988281L594.144531,494.945313L592.03125,494.957031z"/>
    <path transform="matrix(-1,0,0,-1,0,0)" style="stroke:#000000;stroke-width:0.05mm;fill:none" d="M984.582031,492.507813C982.061035,492.581268,979.567688,493.05426,977.195313,493.910156L976.167969,494.308594L975.164063,494.757813L974.183594,495.253906L973.226563,495.796875L972.296875,496.382813C971.686523,496.790985,971.094727,497.226196,970.523438,497.6875C968.671997,499.210754,967.086792,501.03125,965.832031,503.074219C964.971924,504.492188,964.242249,505.985168,963.652344,507.535156C962.175842,511.357941,961.531555,515.451416,961.761719,519.542969C961.864075,521.654968,962.220764,523.746887,962.824219,525.773438C963.291687,527.358887,963.915588,528.89386,964.6875,530.355469C964.936462,530.824524,965.202271,531.284485,965.484375,531.734375C967.206604,534.467896,969.579285,536.732239,972.390625,538.324219C974.763611,539.688904,977.368713,540.602844,980.074219,541.019531C981.441772,541.241699,982.8255,541.348755,984.210938,541.339844L985.472656,541.3125L986.730469,541.222656L987.980469,541.074219L989.222656,540.859375L990.214844,540.644531C992.189697,540.162476,994.092529,539.422729,995.875,538.445313C996.584778,538.050842,997.275818,537.623535,997.945313,537.164063C1000.881104,535.123474,1003.28717,532.411194,1004.964844,529.253906C1006.964355,525.545898,1008.117981,521.441101,1008.34375,517.234375C1008.476929,514.972473,1008.341797,512.70282,1007.941406,510.472656L1007.710938,509.375L1007.433594,508.289063L1007.101563,507.21875L1006.722656,506.164063L1006.292969,505.128906L1005.816406,504.113281L1005.292969,503.117188C1004.84021,502.315918,1004.328308,501.5495,1003.761719,500.824219C1003.384644,500.340332,1002.98468,499.874786,1002.5625,499.429688C1001.927124,498.762756,1001.244446,498.142517,1000.519531,497.574219L999.585938,496.886719L998.621094,496.246094L997.621094,495.660156L996.59375,495.121094C992.870056,493.263062,988.741089,492.364563,984.582031,492.507813z"/>
    <path transform="matrix(-1,0,0,-1,0,0)" style="stroke:#000000;stroke-width:0.05mm;fill:none" d="M752.96875,517.234375L754.996094,523.410156L759.230469,536.34375L760.351563,539.8125L760.613281,540.652344C762.569458,536.279297,764.583313,531.929932,766.652344,527.609375C768.270996,524.272705,770.07373,520.566162,771.699219,517.234375L752.96875,517.234375z"/>
</svg>
