<?xml version="1.0" encoding="UTF-8"?>
<svg xmlns="http://www.w3.org/2000/svg" width="238.026mm" height="253.948mm" viewBox="-807.022705 -561.733643 238.026245 253.947937">
    <path transform="matrix(-0.26455,0,0,-0.26455,-568.959412,-307.760132)" style="stroke:#000000;stroke-width:0.05mm;fill:none" d="M449.666656,959.333313C449.299988,958.966675,449,956.919312,449,954.783691C449,952.64801,448.282715,949.513611,447.406006,947.818237C445.500824,944.134033,445.66629,942.803528,450.368225,924C460.047058,885.293396,459.423462,888.283936,461.083832,872.612122C462.275635,861.363037,462.243225,860.651001,460.48053,859.362122C455.945221,856.045837,448.956085,858.890686,441.406921,867.125854C437.289093,871.617859,419.196533,898.276978,417.52713,902.312378C416.801849,904.065552,415.662903,911.349976,414.996124,918.5C414.329346,925.650024,413.366882,932.286987,412.85733,933.248901C412.347748,934.210754,412.22937,937.248291,412.594238,939.998901C413.23938,944.862305,413.187683,945,410.716736,945C408.542175,945,408.080719,944.437256,407.516479,941.097473C407.153839,938.95105,405.764282,935.713623,404.428558,933.903198C402.896484,931.826538,402,929.257019,402,926.9422C402,924.924133,401.539185,920.84906,400.975983,917.886475C399.391541,909.552063,399.620697,893.843567,401.388397,889.612854C403.081543,885.560547,402.747864,885.371765,397.654236,887.5C392.564148,889.62677,390.289459,889.371399,388.381195,886.459045C386.117981,883.004883,387.756805,879.546265,392.619507,877.514526C398.31366,875.135315,395.936401,874.652283,389.873718,876.956543C383.11441,879.525635,378.822449,879.566284,376.574615,877.082458C373.104034,873.247498,374.800598,870.868958,384.75,865.620605C394.090759,860.693359,395.862335,859.013611,391.75,858.983521C390.512512,858.974487,387.700012,857.950684,385.5,856.708435C382.565125,855.05127,381.414185,853.70813,381.177734,851.664429C380.671265,847.286743,382.486328,846,389.167908,846C394.123199,846,395.491943,845.598999,397.545441,843.545471C398.895447,842.195435,400,840.684143,400,840.187012C400,839.68988,402.362488,837.709045,405.25,835.785095C408.137512,833.861145,416.332794,827.677673,423.461761,822.044006C430.590759,816.410278,439.815735,809.806519,443.961761,807.368896C451.775604,802.774841,479.801117,788.53009,495.5,781.173157C500.450012,778.853455,505.995483,775.863159,507.823273,774.528015C509.657593,773.188171,513.241882,771.837097,515.823242,771.512573C518.395447,771.189148,522.75,770.002991,525.5,768.876709C528.25,767.750427,534.099976,765.583923,538.5,764.062317C550.485046,759.917664,553.938782,757.829102,560.509033,750.752991C567.042603,743.71637,588.844299,727,591.487915,727C593.510559,727,597,725.204712,597,724.164063C597,722.396606,587.744141,719,582.927795,719C578.955566,719,577.405762,718.496643,575.495239,716.586121C572.39093,713.481873,571.398376,709.492676,572.990173,706.518311C574.4646,703.763306,573.649353,702,570.901123,702C569.811707,702,567.083679,701.063049,564.838928,699.917847L560.757568,697.835693L555.003723,700.417847C551.839111,701.838013,548.986206,703,548.663879,703C548.341614,703,547.169495,702.024963,546.059265,700.833252C544.198975,698.836426,543.736572,698.766785,540.164612,699.945679C537.265564,700.902466,535.764709,700.944458,534.209778,700.112305C531.85321,698.851074,528.485168,699.806274,523.981873,703.012878C521.487671,704.78894,521.100098,704.825562,519.914917,703.397461C518.877075,702.146973,517.491394,701.958069,513.247253,702.488342C509.180756,702.996399,507.308929,702.777222,505.480011,701.578857C504.154694,700.71051,501.918396,700,500.510437,700C498.718994,700,497.672882,699.269836,497.025787,697.56781C496.179199,695.341125,495.8479,695.23114,493.105591,696.266235C490.814362,697.131104,489.559204,697.102051,487.766693,696.142761C486.037109,695.217102,484.695923,695.1651,482.646545,695.944275C479.104156,697.291077,479,697.280457,479,695.571411C479,694.785706,478.292847,693.43573,477.428558,692.571411C476.564301,691.707153,476.339294,691,476.928558,691C477.517853,691,478,690.621887,478,690.159729C478,689.162964,469.168945,687.080261,463.5,686.740051C459.784302,686.51709,459.477875,686.270935,459.18869,683.277527C458.879089,680.07251,458.853363,680.05835,454.43869,680.663452C450.84729,681.155701,450,680.978271,450,679.733765C450,678.887817,448.537506,677.678528,446.75,677.046448C443.92038,676.045959,443.726349,675.768188,445.25,674.898987C448.583771,672.997131,446.970306,672,440.559021,672C436.655151,672,433.828094,671.530884,433.381958,670.809021C432.977142,670.153992,433.111755,669.462769,433.681152,669.272949C434.250519,669.08313,435.567688,668.242798,436.608185,667.405457C438.326385,666.022766,437.610077,665.921265,428.80246,666.299438C421.70462,666.604187,418.977783,666.38446,418.630615,665.479736C418.010681,663.864258,419.922943,662,422.200012,662C423.190002,662,424,661.497498,424,660.883362C424,660.266052,423.122131,659.996277,422.036774,660.280151C420.957001,660.5625,419.568817,660.185364,418.951904,659.442078C418.335022,658.69873,415.833435,656.920349,413.392822,655.490051C410.952209,654.059753,407.898041,651.214661,406.605804,649.167603C402.636353,642.879578,387.520294,636.410828,370,633.502502C364.774994,632.635193,356.450012,631.066711,351.5,630.016968C335.232605,626.5672,321.550476,625.637512,305.756622,626.908691C297.915497,627.539795,287.674988,627.760986,283,627.400269C276.205444,626.875916,272.794556,627.154663,266,628.789429C255.974945,631.201477,223.514832,632.549622,210.5,631.094482C189.253357,628.718994,168.316544,624.073608,151.840744,618.079529C129.243195,609.858215,119.255577,605.702087,106.736488,599.310425C94.153709,592.88623,88.002525,587.298462,83.849388,578.519653C80.297935,571.012634,80.19236,567.107361,83.457932,564.03949C85.490631,562.129883,86.681686,561.816711,90.34243,562.22937L94.768997,562.728271L92.763298,555.614136C89.831146,545.213928,87.429947,539.524231,81.95343,530C74.899605,517.732666,73.807358,514.090637,73.856102,503C73.915764,489.426636,76.231735,477.845947,82.64592,459.047668C87.715378,444.19046,88.308578,441.56308,88.764282,431.948608C89.346939,419.655823,87.655502,397.662781,85.34584,387.5C83.089523,377.57196,76.946625,364.919983,70.872673,357.690918C67.984375,354.253357,63.703739,347.309784,61.247616,342.078278C53.57346,325.732452,45.875183,312.277405,41.352135,307.304993C36.057144,301.483948,34.977089,298.076874,36.118797,290.796265C36.805359,286.418152,36.570759,283.641602,34.99305,277.472809C33.896873,273.186798,33,266.973389,33,263.665222C33,259.756317,32.078999,254.998093,30.369518,250.07518C27.920851,243.023575,27.686956,240.806625,26.985516,218C26.305613,195.893646,25.977625,192.620697,23.62842,184.5C22.196453,179.550003,21.019255,174.066162,21.012423,172.313705C21.00559,170.561249,19.828602,164.486237,18.396891,158.813705C16.133266,149.845062,15.687124,145.346954,14.975935,124.322906C14.244729,102.707092,13.928076,99.63488,11.986901,95.322906C10.466079,91.944672,9.618657,87.489738,9.157857,80.450516C8.516778,70.657333,8.403418,70.288208,4.713037,65.977333C2.630207,63.5443,0.648514,60.44775,0.309275,59.096111C-1.07972,53.561916,5.481904,47.926537,11.053287,49.868732C13.72793,50.801117,14.132424,50.6446,15.404259,48.185143C16.175463,46.693798,17.556923,42.892063,18.474171,39.736847C20.112247,34.102058,24.793583,27.212572,30.62319,21.857231C37.382214,15.648084,53.981899,6.714179,56.875233,7.728453C59.461529,8.635094,62.998596,12.204296,63.015312,13.924314C63.047558,17.24246,64.546692,18.218737,68.111671,17.243214C72.586235,16.018793,76.17131,17.327126,78.323051,20.969742C80.7071,25.005613,79.695938,28.103788,74.402061,32.983513C69.907448,37.126503,55.445442,47,53.871696,47C53.392262,47,53,48.03027,53,49.289486C53,50.548702,51.242352,57.422043,49.094112,64.563583C42.761738,85.614731,40.583858,114.96347,44.427383,127.451614C45.963303,132.442017,46.145557,135.187592,45.55587,144.451614C44.454002,161.762009,47.151924,185.198227,52.073997,201.07312C54.636402,209.337509,57.308975,215.677353,59.872692,219.57312C68.017784,231.950226,71.176369,236.643234,74.386879,241.138199C76.208916,243.689209,79.0961,250.090256,80.802841,255.362762C84.243759,265.992554,87.477005,271.52359,99.290291,286.98877C106.77784,296.790955,111.73793,302.522766,129.613495,322.029785C135.097809,328.014648,137.467209,331.591187,139.959091,337.64624C148.657822,358.783386,164.001984,378.550385,173.127792,380.375549C174.785172,380.707031,178.724945,383.008148,181.882843,385.489136C185.040741,387.970093,188.046463,389.99295,188.562241,389.984314C189.880814,389.96225,200.371841,373.664978,203.539566,366.717804C205.134796,363.219299,206.301971,358.677338,206.494827,355.217804C206.67012,352.072998,207.109436,347.25,207.471085,344.5C207.863846,341.513428,207.297363,332.169739,206.064316,321.2966C203.598572,299.553406,203.515091,292.801575,205.522614,277.487274C206.885193,267.092957,206.885529,264.959167,205.525803,257.186066C203.374268,244.886337,203.552322,242.097778,206.818207,236.945786C210.59491,230.987946,223,205.974167,223,204.31662C223,203.592484,223.407867,203,223.906387,203C224.404892,203,224.577866,202.101761,224.290771,201.003906C223.956009,199.72377,224.530884,198.378723,225.893509,197.253906C227.062103,196.289261,228.648712,193.25,229.419296,190.5C230.18988,187.75,232.394135,180.774994,234.317627,175C241.7733,152.615402,246.132141,136.952332,248.649414,123.5C250.828995,111.852318,252.098251,107.780449,256.203461,99.265968C258.917328,93.637253,260.858307,88.579735,260.516724,88.027046C260.17514,87.47435,260.539734,85.554665,261.326965,83.761078C262.114166,81.967484,263.289154,77.379242,263.938049,73.56498C264.586914,69.750717,266.551392,63.000713,268.303528,58.564976C271.074585,51.549698,271.454346,49.484337,271.221191,42.69651C270.964691,35.229233,271.080078,34.766068,273.899658,31.946508C276.01358,29.832584,277.81308,29,280.268097,29C283.647644,29,287,31.404606,287,33.828739C287,36.014446,288.90506,35.012623,291.707367,31.353266C298.169006,22.915377,301.285583,20.059771,305.813568,18.428169C315.046448,15.101233,322.571411,11.245823,326.844604,7.652936C333.077789,2.412107,339.984528,2.81796,341.412903,8.508992C342.169373,11.523023,345.80661,13.188677,349.861084,12.377786C353.451324,11.659733,358.703491,14.255153,360.169006,17.471573C362.699554,23.025517,358.742737,29.977049,353.027496,30.018198C351.63736,30.028206,348.543304,31.36241,346.151794,32.983097C343.760254,34.603779,339.282501,36.873055,336.201172,38.025925C329.369507,40.581978,325.56192,43.329041,313.59082,54.338657C306.257446,61.083027,303.524719,64.397614,300.527435,70.18354C298.442871,74.207596,294.45697,81.495552,291.669891,86.378998C287.96817,92.86512,286.417786,96.77285,285.917023,100.878998C285.519806,104.136353,283.528381,110.144989,281.181244,115.168167C274.183411,130.144363,273.861969,131.547913,266.037048,181.296875C264.930023,188.335159,262.83075,197.551666,261.372009,201.778015L258.719757,209.462265L260.859894,217.622055C262.754486,224.845795,263,228.477524,263,249.280838C263,268.61908,263.342987,274.446838,264.937164,282.194672C266.735382,290.934052,269.274963,314.315765,271.987854,347.109406C273.605133,366.659119,272.473022,365.367188,283.308716,360.028503C288.363922,357.537811,296.100006,353.810181,300.5,351.744843C304.899994,349.679504,310.975006,346.640106,314,344.990601C318.184509,342.708832,322.489746,341.523651,332,340.035461C338.875,338.959625,346.75,337.35025,349.5,336.459106C354.955872,334.691071,373.024841,334.105194,394.5,335L406.5,335.5L406.201721,332.367096C406.037659,330.644012,406.568268,323.894012,407.380859,317.367096C408.193451,310.840179,409.149994,299.200012,409.50647,291.5C410.100311,278.672577,409.938751,276.563782,407.577301,266.322235C406.15979,260.174469,405,252.216385,405,248.637619C405,245.058838,404.375824,239.063828,403.612915,235.315369C402.850006,231.566925,401.927826,224.578476,401.563629,219.785522C401.199432,214.992554,399.348602,201.777557,397.450714,190.418854C395.552826,179.060165,394,168.058777,394,165.971313C394,155.577621,389.220398,139.889603,382.351288,127.736908C378.289124,120.550217,372.363647,101.237556,370.318909,88.52034C369.52121,83.559151,367.951874,77.474998,366.831482,75C365.711121,72.525002,363.49942,66.728928,361.916626,62.119843C360.333832,57.510754,357.81308,52.132648,356.314941,50.168499C353.199554,46.084003,352.852448,40.400307,355.474091,36.3992C357.256714,33.678589,359.604492,33.386288,362.441132,35.531803C363.508759,36.33931,365.15625,37,366.102234,37C367.959717,37,373,31.618099,373,29.634716C373,28.968208,373.885437,26.686178,374.967621,24.563538C376.049805,22.440897,376.668579,20.272787,376.342712,19.745518C375.53299,18.435352,378.074097,11,379.331604,11C379.887909,11,383.15213,9.876205,386.585388,8.502679C390.018677,7.129153,395.835815,5.374806,399.512421,4.60413C403.188995,3.833455,406.692749,2.707249,407.298553,2.101451C408.905579,0.494435,411.584045,0.747156,415.813507,2.904851C419.167816,4.616092,419.886902,4.666912,422.888458,3.404851C428.82019,0.910752,433.147858,2.336032,435.883118,7.684525C437.604523,11.050564,436.015808,13.663472,426.584381,22.977922C421.862976,27.640779,418,32.174839,418,33.053608C418,34.996407,413.920959,38.998569,411.935547,39.003738C408.200287,39.013466,403.788971,43.226402,400.778961,49.65863L397.685577,56.269032L398.946869,67.384514C399.640594,73.498032,400.81427,81.686722,401.555023,85.581604C402.295807,89.476494,403.380829,96.517365,403.966187,101.227989C405.170044,110.915665,412.30191,139.839935,417.680115,156.846588C421.105927,167.67952,421.750092,168.833893,431.909851,182.346588C446.051239,201.154938,446.57077,202.450714,451.016327,230C453.770264,247.066406,463.607086,290.924469,466.111694,297.303741C468.733002,303.980316,476.997437,319.400787,483.098938,329C485.720886,333.125,489.499817,340.100006,491.496552,344.5C497.851563,358.503754,496.983673,357.46582,502.614685,357.796417C506.446259,358.021393,508.246857,357.621277,510.081879,356.137177C512.48468,354.193848,512.504028,354.027405,513.137939,329.840729C513.603638,312.074341,514.20813,304.014465,515.376099,300C516.39978,296.481476,516.987671,290.537018,517.007935,283.5C517.049866,268.946899,518.29541,260.998291,522.506165,248.412796C525.602417,239.158524,526,236.789444,526,227.59552C526,208.868774,531.710327,187.530075,539.051514,178.823883C545.890869,170.712799,547.157898,166.607605,548.085144,149.554489C548.5354,141.274521,549.631836,130.675003,550.52179,126C552.390076,116.185272,554.280273,76.918167,554.46405,44.103027L554.589539,21.706053L558.006958,18.853025C559.886597,17.283861,562.063293,16,562.844177,16C563.625,16,565.749268,17.575001,567.564758,19.5C571.398438,23.564888,574.341553,23.903057,578.130615,20.714037C580.716492,18.537683,584.672241,12,583.403259,12C583.046753,12,583.282043,11.365063,583.926086,10.589027C584.809814,9.524203,584.81366,9.002886,583.941772,8.464027C582.106995,7.33005,584.945251,6.032861,589.299683,6.015313C591.389465,6.006891,594.479553,5.286262,596.166443,4.413915C597.853394,3.541569,600.147522,3.066816,601.264465,3.358909C602.381409,3.651002,605.010925,3.014741,607.107849,1.944994C612.053162,-0.577941,617.061096,-0.519633,622.237488,2.12115L626.395264,4.242301L630.721191,1.879175C634.707275,-0.298321,635.253601,-0.366752,637.676392,1.008025C644.71814,5.003803,645.364807,10.568531,639.472229,16.461117C635.383667,20.549652,623.385559,27.858995,615.504028,31.062725C611.207581,32.809174,607.284058,35.617592,601.661621,40.970966C592.744507,49.461376,590.945068,52.465229,588.099304,63.611126C586.984619,67.976875,584.683044,74.912857,582.984619,79.024422C581.286255,83.135994,579.469604,89.852272,578.947571,93.949493C578.425598,98.046715,577.347717,104.571716,576.552246,108.449493C575.756775,112.327271,573.919861,122.441727,572.470215,130.926056L569.834473,146.352127L571.457458,162.426056C572.350098,171.266724,573.786804,182.324997,574.650146,187C576.598633,197.550812,575.969666,204.794083,571.840637,219.355469C568.86554,229.84761,568.778931,230.71785,569.254272,245.355469C569.646851,257.44632,570.179199,261.703491,571.894409,266.468689C573.075989,269.751465,575.837036,279.651489,578.03009,288.468689C580.223145,297.285919,583.203857,308.325012,584.653931,313C587.010193,320.596619,587.319153,323.359894,587.561035,339C587.709961,348.625,588.258301,359.190674,588.779602,362.479309C589.630371,367.845917,590.172363,368.819336,594.069458,371.979309C596.45752,373.91568,601.460876,378.649994,605.187988,382.5C612.648071,390.206085,613.107483,390.658966,617.628601,394.763214C619.820984,396.753479,620.943115,398.859619,621.378601,401.801666C621.720398,404.110748,622.279114,407.886322,622.6203,410.191864C623.078369,413.287323,624.15332,415.183563,626.730164,417.441864C628.649414,419.12384,632.046021,423.200012,634.278137,426.5C636.510315,429.799988,642.06958,436.198425,646.632019,440.718689C657.512695,451.498779,659.054504,454.6427,660.048645,468.076813C660.481934,473.93161,661.403015,480.61322,662.095642,482.924805C663.19696,486.6008,663.64502,487.054932,665.669006,486.546936C669.134521,485.677155,674.646729,488.416199,676.4505,491.904297C677.32135,493.588318,679.378174,495.661316,681.021179,496.510956C684.389587,498.252808,688.220825,503.689972,689.951294,509.184174C690.727234,511.647797,692.257751,513.544556,694.571228,514.909485C698.376526,517.154724,700,520.334351,700,525.542053C700,528.077881,700.641907,529.374512,702.5,530.59198C704.109253,531.646423,705.005432,533.168823,705.01532,534.86499C705.023743,536.31427,705.449524,538.162415,705.961548,538.971985C707.509521,541.419739,707.846313,538.811218,708.282166,521C708.764832,501.274445,710.507019,495.097626,717.077515,489.817444C719.234863,488.08374,721,486.095917,721,485.400024C721,482.089752,729.895752,482.730591,736.5,486.516602C742.495483,489.953644,744.868713,493.03476,745.962341,498.801422C746.504456,501.659943,747.669861,505.394714,748.552185,507.100861C750.561707,510.986847,750.637695,513.986694,749.043884,526.5C747.471863,538.841614,748.206482,541.431763,753.706116,542.939148C758.72998,544.316162,770.471069,550.413025,774.987366,553.98999C777.558899,556.026672,779.81665,559.528931,782.842041,566.174133C791.454041,585.090027,796.491394,594.180603,799.973816,597.090576C806.635254,602.656982,813.786255,602.002502,822.5,595.028931C838.126404,582.523193,839.095154,582.326599,846.889282,590.079834L851.99585,595.159607L858.480286,594.46521C867.113098,593.54071,871.189758,594.440735,875.15741,598.147034L878.45813,601.230347L883.316833,599.483215C889.714355,597.182678,895.175354,598.59967,898.044067,603.304443C900.67688,607.622375,900.5,612.079773,897.457581,618.08374C895.810425,621.334167,894.544495,626.16449,893.862549,631.800476C892.202393,645.52124,884.991333,662.421387,876.709961,672C871.939331,677.517944,864.201843,682.974304,855.213684,687.158936C850.656189,689.280762,844.643188,692.588013,841.85144,694.508423C839.059753,696.428772,836.213623,698,835.526794,698C831.604004,698,781.686279,703.216736,777.540833,704.059937C774.813293,704.614685,771.888306,705.673096,771.040833,706.411987C770.193359,707.150818,767.360413,708.063293,764.745422,708.439636C760.708191,709.020691,755.571045,711.893738,750.083313,716.639648C749.06604,717.519409,751.444824,718.074951,764.061218,719.903931C771.452515,720.975464,778.766785,722.335449,780.315125,722.926086C781.863403,723.516724,785.775208,724,789.007935,724C793.002747,724,795.945129,724.617737,798.19281,725.928284C800.01178,726.988831,804.424988,728.368652,808,728.994568C811.575012,729.620483,818.099976,731.047058,822.5,732.164734C826.900024,733.28241,834.87262,734.582336,840.216919,735.053528C854.634888,736.324585,858.804138,738.622314,873.532959,753.414917C882.931274,762.854004,886.324951,767.020874,889.032959,772.446167L892.5,779.392334L892.5,796.946167C892.5,813.685425,892.37854,814.778442,889.882568,820.5C888.273315,824.188843,887.012695,829.357605,886.609924,833.91864C886.161682,838.993958,885.25116,842.453674,883.727356,844.871826C882.502319,846.815857,881.009827,849.777466,880.410767,851.453186C879.625061,853.651001,878.680176,854.5,877.019775,854.5C873.725281,854.5,872.141541,851.624878,874.160156,849.308533C875.397522,847.888611,875.87854,843.846985,876.398682,830.5C876.763062,821.150024,877.538086,810.42395,878.120911,806.664246C879.097412,800.365479,878.968506,799.162415,876.480103,791.347534C873.383667,781.623047,869.417114,775.835205,862.793945,771.377075C858.172913,768.266541,845.015259,762.651428,844.217346,763.449341C843.411865,764.254822,849.350281,771.129761,852.063477,772.532837C855.435913,774.276794,862.094849,784.074768,865.133728,791.764465C867.145752,796.855774,867.405945,799.297119,867.450195,813.5C867.494751,827.810669,867.248352,830.239075,865.116882,836.5C862.301514,844.769775,861.45636,846.005066,858.627563,845.98468C854.061584,845.951843,853.532349,844.690491,852.880676,832.287109C852.284119,820.934082,847.987366,799.047241,845.821899,796.331299C845.309387,795.688538,841.691223,793.262268,837.781555,790.939514C829.158447,785.81665,828.054626,786.205078,826.277039,794.987854C824.648987,803.031677,825.759888,807.422852,830.589722,812.035095C836.399109,817.582764,838.418396,821.575928,843.960327,838.475464L849.186279,854.411438L848.481323,864.260742L847.776367,874.110046L844.7146,873.804993C841.902649,873.524902,841.480103,872.969727,839.535522,867C838.371033,863.424988,836.056213,858.633301,834.391541,856.351807C832.726868,854.070313,829.868408,848.332825,828.039368,843.601807C826.210327,838.870789,824.363098,835,823.934448,835C822.987,835,821.368591,840.018738,820.497559,845.657776C820.144348,847.944519,819.290344,850.588318,818.59967,851.532776C816.799805,853.994263,811.993958,853.710754,809.810425,851.014221C807.822144,848.558838,807.521912,840.168152,808.850159,824.182129C809.66449,814.381897,809.314819,813.856506,801.549805,813.212585C796.610779,812.802979,795.952209,813.016907,792.548767,816.135925C787.397949,820.856323,787.177246,824.347412,790.927673,841.784973C792.617432,849.641663,793.97345,857.966675,793.940979,860.284973C793.880249,864.6203,790.279785,873.243042,788.5,873.31543C786.434631,873.399475,782.042969,862.294495,780.465881,853C778.508362,841.463318,776.818787,837.669189,772.43158,834.957703C770.586121,833.817139,767.685059,831.127563,765.984802,828.980835L762.893494,825.077759L758.484253,827.21991C756.059204,828.398071,753.840332,829.973633,753.553528,830.72113C753.266663,831.468628,754.14978,835.9375,755.515991,840.651978C757.400574,847.155151,758,851.561707,758,858.911865C758,869.451416,757.341125,871,752.856689,871C749.150696,871,747,867.668091,747,861.926697C747,859.381165,746.486572,855.825623,745.859009,854.025452C744.062561,848.87207,742.997864,852.317322,742.077087,866.263977C741.22583,879.156555,739.669739,884.591553,735.567566,889C734.288086,890.375,732.693604,893.213135,732.024292,895.306946C731.051941,898.348694,730.374451,899.052185,728.653687,898.806946C726.520203,898.502869,726.5,898.284363,726.5,875.541504L726.5,852.583008L723.138489,850.315979C720.689331,848.664307,719.30304,848.302612,718.030884,848.983459C714.240112,851.012207,708.327148,858.108215,705,864.621521C702.467651,869.578918,700.748047,871.73468,698.780273,872.419006C695.075378,873.707397,692,870.952393,692,866.345032C692,862.934937,689.140442,858.958862,686.75,859.045105C683.258606,859.171082,679.674683,861.765381,678.623657,864.927551C677.23645,869.101074,675.133545,870.501343,671.588867,869.611633C668.660217,868.876648,666,864.095642,666,859.567322C666,858.067871,665.175293,856.629028,663.935608,855.965515C662.135681,855.002258,661.325867,855.446228,657.615723,859.430359C655.275208,861.943665,652.479309,864,651.402649,864C647.906494,864,645.001953,861.149658,644.976135,857.693298C644.945923,853.64624,643.429321,847.029297,642.265137,845.865112C641.352905,844.952942,634.976807,859.149231,634.991943,862.058838C634.996338,862.916199,633.371033,866.291199,631.380005,869.558838C629.389038,872.826477,627.446228,876.625,627.062683,878C626.63916,879.518372,625.508362,880.625488,624.182678,880.81958C622.086792,881.126404,622,880.804626,622,872.729492C622,867.593262,622.778442,861.276123,624,856.5C625.099976,852.199036,626,848.523132,626,848.331299C626,848.139465,623.538208,848.271851,620.529358,848.625488C616.309753,849.121399,614.480225,848.889465,612.529358,847.611206C609.217041,845.440857,609.072083,840.734131,612.25,838.539612C613.487488,837.68512,617.414063,835.052124,620.975647,832.68866C627.955933,828.056519,631.258545,823.70459,630.370483,820.308838L629.813416,818.178467L624.656677,820.579468C616.269348,824.48468,613.997253,823.860657,610.259705,816.625183C605.585327,807.576172,605.990784,785.703308,611.106934,770.919739C615.119812,759.324219,611.411682,758.95636,602.617676,770.077637C593.130981,782.07489,591.952087,786.38501,591.014526,812.5C590.039246,839.663757,589.077332,842.459351,574.690735,859.940979C569.188965,866.626404,566.039001,868.490112,564.486633,865.978333C564.139343,865.416443,566.212463,858.103943,569.093506,849.728333C574.818787,833.084412,575.268005,829.19751,573.280579,813.5C571.941467,802.922913,569.524109,797,566.546387,797C565.316345,797,563.595886,797.789063,562.723083,798.753479C559.700745,802.09314,549.15387,825.241577,546.958984,833.352844C544.801453,841.325989,544.778503,842.033936,545.884399,866.5C548.339844,920.820557,548.306763,918.254028,546.635437,924.777832C545.771301,928.150757,542.687378,935.720215,539.782166,941.598938L534.5,952.287476L527.255554,955.114441C517.540344,958.90564,513.794067,957.360474,519.562378,951.941345C525.869751,946.01593,529.459656,934.987,531.068237,916.592896C532.326294,902.206787,531.294067,892.046204,526.865784,875.227844C525.167419,868.777527,522.947266,859.499695,521.932068,854.610413C519.810303,844.391541,517.961243,841.809021,511.463745,839.989868C506.036987,838.470459,504.555115,838.997986,502.450256,843.198547C501.540405,845.014343,497.790344,849.424988,494.116791,853C484.450195,862.407288,480.931091,870.285706,467.092682,913.5C463.217926,925.599976,459.328949,939.295166,458.45047,943.933655C456.179565,955.924683,452.575897,962.242554,449.666656,959.333313z"/>
    <path transform="matrix(-0.26455,0,0,-0.26455,-568.959412,-307.760132)" style="stroke:#000000;stroke-width:0.05mm;fill:none" d="M662.709778,803.324219C665.221008,801.852539,670.026123,799.655212,673.387817,798.441345C680.775696,795.773743,680.916626,795.298584,678.052917,782.712341C676.900085,777.645569,675.740845,772.518982,675.476929,771.319946C674.971863,769.025574,672.438354,766,671.022217,766C670.562988,766,670.409241,766.848877,670.680542,767.886414C671.585876,771.348389,668.115784,781.852661,664.128601,787.719604C659.87085,793.98468,655.561279,806,657.57196,806C657.886475,806,660.198547,804.795898,662.709778,803.324219z"/>
    <path transform="matrix(-0.26455,0,0,-0.26455,-568.959412,-307.760132)" style="stroke:#000000;stroke-width:0.05mm;fill:none" d="M743.47345,762.763367C745.413025,759.883179,747,756.824524,747,755.966309C747,755.108093,745.234253,752.681702,743.076111,750.574341C740.91803,748.46698,738.880432,745.659729,738.548218,744.335999C738.215942,743.012329,736.802429,741.495178,735.406982,740.964661C732.584717,739.891602,725.671143,739.66217,724.723267,740.610107C724.387695,740.945618,726.322144,744.102234,729.021973,747.624695C731.721802,751.147217,734.417419,755.935181,735.012146,758.264648C736.550842,764.291138,738.106201,768,739.094727,768C739.563416,768,741.533813,765.643494,743.47345,762.763367z"/>
</svg>
