<?xml version="1.0" encoding="UTF-8"?>
<svg xmlns="http://www.w3.org/2000/svg" width="503.564mm" height="506.401mm" viewBox="-1028.470703 -834.783142 503.563721 506.401184">
    <path transform="matrix(-0.219894,0.147084,-0.147084,-0.219894,-433.368103,-509.422424)" style="stroke:#000000;stroke-width:0.05mm;fill:none" d="M768.87146,1919.48877C733.556396,1914.338379,697.412292,1901.640991,666.348755,1883.472534C644.611145,1870.758667,618.161011,1851.291504,592.588745,1829.185303C560.731628,1801.646362,549.105591,1792.423218,531,1780.326538C520.075928,1773.027832,502.828613,1763.664185,492.5,1759.424561C475.355682,1752.387451,437.848663,1739.850952,393.53299,1726.345581C360.476929,1716.271729,340.565094,1707.485229,321,1694.339111C297.862518,1678.792603,270.260132,1650.547119,253.728149,1625.5C237.315063,1600.632935,221.069443,1559.713135,214.622574,1527C211.035873,1508.800049,210.563797,1503.812988,210.599503,1484.5C210.640732,1462.197021,212.028687,1452.349854,218.492722,1428.5C220.430588,1421.349976,223.792969,1408.75,225.964676,1400.5C232.68219,1374.981079,236.421585,1364.894409,246.546127,1344.983398C261.842407,1314.901733,291.762085,1275.115479,324.839172,1240.871582C346.266571,1218.688354,370.310577,1197.877686,401.584198,1174.446899C433.414795,1150.598999,455.686798,1138.106812,500,1119.24646C541.624084,1101.53064,623.786682,1069.837402,651,1061C657.718628,1058.818115,682.41748,1049.854004,689.5,1047.026978C706.13623,1040.386353,717.320313,1033.148926,720.526245,1026.949341C724.326904,1019.599609,720.592468,1016.425293,708.414734,1016.654419C692.420715,1016.955383,676.225769,1021.171997,579,1050.349243C451.952759,1088.47583,388.488068,1103.62439,320,1112.170532C307.035797,1113.788208,265.184967,1113.745728,248.5,1112.0979C202.715714,1107.576172,178.711761,1101.378662,147.450317,1086.008179C121.184883,1073.094238,104.07122,1060.779541,81.864273,1038.813721C32.330891,989.818237,11.306588,948.573486,2.439031,883C0.363029,867.648438,0.06098,833.220276,1.864381,817.5C4.789866,791.998535,11.328412,760.805054,17.822378,741.369019C32.08429,698.684143,54.452057,651.596069,77.367088,616.016968C96.794861,585.852356,109.31102,554.437012,116.536987,517.701111C125.880531,470.199707,128.092285,460.403595,133.491028,442.609467C145.027527,404.58551,169.741165,362.87561,199.831284,330.645142C220.350433,308.666443,236.965042,295.432434,256.006409,285.899963C285.099915,271.335266,316.637726,264.72464,357.5,264.625916C396.999207,264.530487,415.228638,268.593933,461,287.696594C508.357941,307.461395,556.561646,335.730347,589.531067,363.073303C621.851929,389.878418,653.903015,433.744812,681.539673,489C694.457031,514.826294,700.150574,528.257874,712.483704,562C715.59967,570.525024,721.432617,584.25,725.445801,592.5C733.747925,609.567017,739.400024,616.841614,746.450195,619.534119C750.566711,621.106262,751.165955,621.105591,755.927429,619.524109C766.807007,615.910461,770.103699,608.30304,767.98114,591.708618C766.700073,581.693359,763.995239,568.089294,758.495422,544C756.549072,535.474976,752.969727,518.825012,750.541321,507C745.119568,480.598663,740.885803,461.654388,737.467468,448.5C704.834595,322.922241,642.206848,235.235977,510.141113,130.216248C466.107849,95.20063,455.23999,84.843399,448.408417,71.384117C445.057251,64.781815,444.592529,63.014378,444.646881,57.078323C444.731781,47.807243,447.829651,42.425171,461,28.667418C475.690552,13.321645,484.545227,7.0567,497.331451,2.961774C507.451904,-0.279403,520.396606,0.459852,532,4.941649C585.965759,25.785892,620.463257,49.751331,677.332825,105.904442C790.661926,217.805786,846.114563,316.72171,873.877991,456.5C878.280701,478.665985,882.63739,505.84671,885.498718,529C889.511841,561.473572,892.225769,571.171021,899.124756,577.68866C904.752441,583.005249,910.296631,584.189819,918.312378,581.788269C924.149536,580.039429,928.425964,575.26825,930.830322,567.822266C935.094238,554.617065,935.484009,550.582581,935.450317,520C935.418701,491.257294,934.978271,483.561157,930.929199,441C925.411499,383.001831,923.454468,354.589233,922.422729,317.5C921.788818,294.712769,922.947266,266.42926,925.063354,253.027878C928.537476,231.02597,940.169922,193.619186,949.016846,176C959.490234,155.141495,987.017578,118.77346,1006.21283,100.434898C1047.81958,60.685101,1094.172241,39.048294,1157.5,29.816135C1169.767456,28.027744,1218.431763,28.043333,1230.5,29.839521C1270.549683,35.800343,1294.320557,44.646515,1330.626831,67.101013C1370.803345,91.949104,1402.149902,118.893677,1453.628784,172.82959C1465.87561,185.660858,1478.506592,197.99321,1481.697876,200.234787C1506.860107,217.909515,1533.675659,234.822372,1555,246.467285C1578.144531,259.10611,1622.809326,290.708679,1636.82605,304.36322C1666.1698,332.948578,1695.839478,386.044067,1706.991699,429.927856C1709.423096,439.495667,1712.274536,458.575989,1714.034058,477.052551C1715.654785,494.070709,1714.794556,536.003296,1712.538086,549.980957C1705.809937,591.656982,1683.895264,640.756165,1654.801758,679.336975C1634.940063,705.675598,1608.77063,731.611938,1584.271118,749.239502C1555.94043,769.623535,1490.393555,794.304565,1379.5,826.343933C1299.896362,849.343079,1240.095581,869.942078,1210.28418,884.632141C1193.845703,892.732544,1190,895.902832,1190,901.354248C1190,907.862915,1194.104614,910.787354,1207.067017,913.514099C1224.588257,917.199829,1246.729248,914.973755,1291.320923,905.043152C1425.291504,875.207703,1518.862305,863.625793,1612.349976,865.307129C1647.824829,865.945129,1662.835205,866.932251,1683.582397,869.991516C1739.062012,878.172363,1786.562256,899.406006,1825,933.208374C1830.224976,937.803284,1836.783081,944.593079,1839.573364,948.296875C1852.081055,964.898743,1869.232544,1008.75885,1875.484619,1040.129883C1878.397339,1054.744873,1880.995483,1078.728516,1880.995483,1091C1880.995483,1101.726318,1878.528809,1126.495972,1876.443481,1136.710083C1873.822021,1149.549927,1867.748901,1169.474976,1864.010864,1177.5C1863.498535,1178.599976,1860.995239,1184.206909,1858.448242,1189.959717C1847.832886,1213.935425,1835.643555,1234.159912,1805.988647,1277C1796.280273,1291.025024,1778.733276,1316.635742,1766.995361,1333.912598L1745.653564,1365.325317L1740.964355,1378.912598C1729.589966,1411.870605,1694.66748,1494.043335,1673.991455,1536.5C1649.999878,1585.765137,1609.890991,1639.172974,1577,1665.651123C1548.354126,1688.711792,1515.615967,1706.506592,1486.5,1714.842285C1458.411377,1722.883789,1418.063599,1722.748657,1374,1714.465454C1319.704712,1704.258911,1265.918579,1677.427612,1231.443237,1643.351074C1210.931152,1623.076172,1190.209351,1592.311157,1173.297119,1557.02356C1160.017944,1529.31604,1133.10498,1463.892212,1098.008057,1374C1057.691284,1270.738647,1038.093018,1224.839966,1033,1221.753296C1032.07019,1221.189819,1030.402466,1221.264404,1028.613037,1221.949463L1025.726074,1223.054688L1026.273315,1237.277344C1026.974976,1255.511597,1032.839966,1290.431641,1050.958374,1384.25C1058.499146,1423.296631,1060.034912,1431.418945,1061.990234,1442.594849C1077.719482,1532.494995,1079.337524,1648.228882,1065.470337,1691.5C1059.941162,1708.753296,1045.428955,1739.489624,1033.350586,1759.528931C1010.342224,1797.702148,968.87915,1845.249268,936.5,1870.59082C913.858521,1888.311279,885.54718,1902.491089,855.652405,1911.083618C825.645874,1919.708252,792.433655,1922.925049,768.87146,1919.48877z"/>
</svg>
