<?xml version="1.0" encoding="UTF-8"?>
<svg xmlns="http://www.w3.org/2000/svg" width="420.664mm" height="212.914mm" viewBox="-1367.832031 -749.457031 420.664063 212.914063">
    <path transform="matrix(-1,0,0,-1,0,0)" style="stroke:#000000;stroke-width:0.05mm;fill:none" d="M1160.453125,536.566406C1162.437988,536.604614,1164.42334,536.671021,1166.40625,536.765625C1168.408081,536.869141,1170.408325,537.00061,1172.40625,537.160156C1174.42688,537.328979,1176.445801,537.525635,1178.460938,537.75C1181.521973,538.094849,1184.575439,538.510559,1187.617188,538.996094C1190.710083,539.482849,1193.791382,540.03894,1196.859375,540.664063C1203.139404,541.940674,1209.366089,543.469299,1215.523438,545.246094C1220.796387,546.763367,1226.02063,548.446533,1231.1875,550.292969C1236.475098,552.183228,1241.70459,554.22937,1246.871094,556.429688C1251.088135,558.219116,1255.262695,560.107849,1259.390625,562.09375C1264.643188,564.616089,1269.824219,567.282104,1274.929688,570.089844C1281.178711,573.523315,1287.314331,577.157959,1293.328125,580.988281C1298.429932,584.229492,1303.44458,587.605591,1308.367188,591.113281C1316.382568,596.817566,1324.158203,602.84967,1331.675781,609.195313C1337.404419,614.022339,1342.979492,619.026917,1348.394531,624.203125L1351.109375,626.820313L1367.832031,643.121094L1354.488281,656.058594C1343.630371,666.603516,1332.175171,676.515747,1320.179688,685.746094C1312.140015,691.92749,1303.849365,697.77478,1295.328125,703.273438C1287.059937,708.605896,1278.565186,713.577881,1269.867188,718.175781C1262.375,722.132324,1254.723755,725.781494,1246.933594,729.113281C1240.316162,731.938232,1233.59436,734.510254,1226.78125,736.824219C1222.033936,738.430725,1217.241943,739.899963,1212.410156,741.230469C1207.678711,742.532471,1202.907837,743.689392,1198.105469,744.699219C1191.54895,746.077393,1184.932495,747.154053,1178.277344,747.925781C1174.238403,748.376038,1170.192383,748.75885,1166.140625,749.074219C1162.973389,749.322937,1159.798096,749.450745,1156.621094,749.457031C1153.427002,749.436279,1150.234741,749.298279,1147.050781,749.042969C1142.994751,748.720154,1138.945313,748.329529,1134.902344,747.871094C1131.24585,747.441528,1127.602173,746.906006,1123.976563,746.265625C1119.316895,745.446899,1114.685669,744.475037,1110.089844,743.351563C1104.396118,741.959106,1098.754395,740.361755,1093.175781,738.5625C1087.41272,736.704956,1081.71228,734.655518,1076.085938,732.417969C1067.335571,728.931519,1058.750122,725.046143,1050.355469,720.773438C1041.646973,716.344055,1033.131592,711.545471,1024.832031,706.390625C1012.425049,698.684692,1000.480347,690.258911,989.058594,681.15625C979.137817,673.262695,969.610962,664.886963,960.511719,656.058594L947.167969,643.121094L963.890625,626.820313C969.265015,621.580322,974.800598,616.507324,980.488281,611.609375C984.243042,608.379639,988.061035,605.22583,991.941406,602.148438C1000.538391,595.33429,1009.447998,588.923584,1018.640625,582.9375C1022.650146,580.327759,1026.712891,577.802856,1030.828125,575.363281C1037.899292,571.174927,1045.126099,567.254028,1052.492188,563.609375C1056.61499,561.573486,1060.782593,559.630493,1064.992188,557.78125C1070.158447,555.515198,1075.387695,553.398743,1080.675781,551.433594C1085.845703,549.515869,1091.072998,547.758545,1096.351563,546.164063C1099.458618,545.227661,1102.582031,544.35144,1105.722656,543.535156C1110.850952,542.20166,1116.023804,541.041992,1121.230469,540.058594C1125.299805,539.295593,1129.390015,538.648254,1133.496094,538.117188C1136.521484,537.731323,1139.554443,537.412354,1142.59375,537.160156C1144.593262,537.00061,1146.594727,536.86908,1148.597656,536.765625C1150.579834,536.670898,1152.562744,536.604492,1154.546875,536.566406C1156.515625,536.535156,1158.484497,536.535156,1160.453125,536.566406z"/>
    <path transform="matrix(-1,0,0,-1,0,0)" style="stroke:#000000;stroke-width:0.05mm;fill:none" d="M1156.265625,547.507813C1153.416138,547.545715,1150.569824,547.707336,1147.734375,547.992188L1145.335938,548.265625L1142.957031,548.601563L1140.59375,548.992188L1138.253906,549.441406L1135.933594,549.945313L1133.632813,550.507813L1131.355469,551.121094L1129.101563,551.792969L1126.871094,552.519531L1124.664063,553.296875L1122.484375,554.125L1120.328125,555.003906L1118.199219,555.9375L1116.097656,556.917969L1114.023438,557.949219L1111.980469,559.027344L1109.964844,560.152344L1107.980469,561.324219L1106.027344,562.546875L1104.105469,563.808594L1102.214844,565.121094L1100.359375,566.472656L1098.539063,567.867188L1096.753906,569.308594L1095.003906,570.789063L1093.289063,572.308594L1091.609375,573.871094L1089.972656,575.472656L1088.371094,577.109375L1086.808594,578.789063L1085.289063,580.503906L1083.808594,582.253906L1082.367188,584.039063L1080.972656,585.859375L1079.621094,587.714844L1078.308594,589.605469C1077.452637,590.87915,1076.624512,592.171021,1075.824219,593.480469L1074.652344,595.464844L1073.527344,597.480469L1072.449219,599.523438L1071.417969,601.597656L1070.4375,603.699219L1069.503906,605.828125L1068.625,607.984375L1067.796875,610.164063L1067.019531,612.371094L1066.292969,614.601563L1065.621094,616.855469L1065.007813,619.132813L1064.445313,621.433594L1063.941406,623.753906L1063.492188,626.09375L1063.101563,628.457031L1062.765625,630.835938L1062.492188,633.234375L1062.277344,635.652344L1062.125,638.085938C1061.958252,641.359863,1061.958374,644.640076,1062.125,647.914063L1062.277344,650.347656L1062.492188,652.765625L1062.765625,655.164063L1063.101563,657.542969L1063.492188,659.90625L1063.941406,662.246094L1064.445313,664.566406L1065.007813,666.867188L1065.621094,669.144531L1066.292969,671.398438L1067.019531,673.628906L1067.796875,675.835938L1068.625,678.015625L1069.503906,680.171875L1070.4375,682.300781L1071.417969,684.402344L1072.449219,686.476563L1073.527344,688.519531L1074.652344,690.535156L1075.824219,692.519531L1077.046875,694.472656L1078.308594,696.394531L1079.621094,698.285156L1080.972656,700.140625L1082.367188,701.960938L1083.808594,703.746094L1085.289063,705.496094L1086.808594,707.210938L1088.371094,708.890625L1089.972656,710.527344L1091.609375,712.128906L1093.289063,713.691406L1095.003906,715.210938L1096.753906,716.691406L1098.539063,718.132813L1100.359375,719.527344L1102.214844,720.878906L1104.105469,722.191406L1106.027344,723.453125L1107.980469,724.675781L1109.964844,725.847656L1111.980469,726.972656L1114.023438,728.050781L1116.097656,729.082031L1118.199219,730.0625L1120.328125,730.996094L1122.484375,731.875L1124.664063,732.707031L1126.871094,733.480469L1129.101563,734.207031L1131.355469,734.878906L1133.632813,735.492188L1135.933594,736.054688L1138.253906,736.558594L1140.59375,737.007813L1142.957031,737.398438L1145.335938,737.734375L1147.734375,738.007813C1154.228271,738.663635,1160.771729,738.663696,1167.265625,738.007813L1169.664063,737.734375L1172.042969,737.398438L1174.40625,737.007813L1176.746094,736.558594L1179.066406,736.054688L1181.367188,735.492188L1183.644531,734.878906L1185.898438,734.207031L1188.128906,733.480469L1190.335938,732.707031L1192.515625,731.875L1194.671875,730.996094L1196.800781,730.0625L1198.902344,729.082031L1200.976563,728.050781L1203.019531,726.972656L1205.035156,725.847656L1207.019531,724.675781L1208.972656,723.453125L1210.894531,722.191406L1212.785156,720.878906L1214.640625,719.527344L1216.460938,718.132813L1218.246094,716.691406L1219.996094,715.210938L1221.710938,713.691406L1223.390625,712.128906L1225.027344,710.527344L1226.628906,708.890625L1228.191406,707.210938L1229.710938,705.496094L1231.191406,703.746094L1232.632813,701.960938L1234.027344,700.140625L1235.378906,698.285156L1236.691406,696.394531L1237.953125,694.472656L1239.175781,692.519531L1240.347656,690.535156L1241.472656,688.519531L1242.550781,686.476563L1243.582031,684.402344L1244.5625,682.300781L1245.496094,680.171875L1246.375,678.015625L1247.207031,675.835938L1247.980469,673.628906L1248.707031,671.398438L1249.378906,669.144531L1249.992188,666.867188L1250.554688,664.566406L1251.058594,662.246094L1251.507813,659.90625L1251.898438,657.542969L1252.234375,655.164063L1252.507813,652.765625L1252.722656,650.347656L1252.875,647.914063C1253.041992,644.640076,1253.04187,641.359863,1252.875,638.085938L1252.722656,635.652344L1252.507813,633.234375L1252.234375,630.835938L1251.898438,628.457031L1251.507813,626.09375L1251.058594,623.753906L1250.554688,621.433594L1249.992188,619.132813L1249.378906,616.855469L1248.707031,614.601563L1247.980469,612.371094L1247.207031,610.164063L1246.375,607.984375L1245.496094,605.828125L1244.5625,603.699219L1243.582031,601.597656L1242.550781,599.523438L1241.472656,597.480469L1240.347656,595.464844L1239.175781,593.480469L1237.953125,591.527344L1236.691406,589.605469L1235.378906,587.714844L1234.027344,585.859375L1232.632813,584.039063L1231.191406,582.253906L1229.710938,580.503906L1228.191406,578.789063L1226.628906,577.109375L1225.027344,575.472656L1223.390625,573.871094L1221.710938,572.308594L1219.996094,570.789063L1218.246094,569.308594L1216.460938,567.867188L1214.640625,566.472656L1212.785156,565.121094L1210.894531,563.808594L1208.972656,562.546875L1207.019531,561.324219L1205.035156,560.152344L1203.019531,559.027344L1200.976563,557.949219L1198.902344,556.917969L1196.800781,555.9375L1194.671875,555.003906L1192.515625,554.125L1190.335938,553.296875L1188.128906,552.519531L1185.898438,551.792969L1183.644531,551.121094L1181.367188,550.507813L1179.066406,549.945313L1176.746094,549.441406L1174.40625,548.992188L1172.042969,548.601563L1169.664063,548.265625L1167.265625,547.992188C1163.611084,547.623169,1159.938477,547.461487,1156.265625,547.507813z"/>
    <path transform="matrix(-1,0,0,-1,0,0)" style="stroke:#000000;stroke-width:0.05mm;fill:none" d="M1158.234375,603.507813C1163.369019,603.589722,1168.437622,604.679443,1173.152344,606.714844C1173.9729,607.067505,1174.78064,607.449585,1175.574219,607.859375L1176.75,608.492188C1177.526978,608.931152,1178.290283,609.393433,1179.039063,609.878906C1180.471924,610.819336,1181.843994,611.849304,1183.148438,612.960938C1185.847534,615.272766,1188.227661,617.932739,1190.226563,620.871094L1191.082031,622.183594L1191.878906,623.527344L1192.625,624.898438L1193.316406,626.300781L1193.949219,627.730469L1194.523438,629.179688L1195.042969,630.65625L1195.503906,632.152344C1195.931763,633.670166,1196.269531,635.211914,1196.515625,636.769531C1196.996094,639.849243,1197.117798,642.974243,1196.878906,646.082031L1196.746094,647.523438L1196.558594,648.957031L1196.320313,650.378906L1196.027344,651.792969L1195.683594,653.195313L1195.285156,654.585938L1194.835938,655.957031C1194.528687,656.839417,1194.191406,657.711182,1193.824219,658.570313C1193.290161,659.812927,1192.692139,661.026978,1192.03125,662.207031L1191.351563,663.375C1190.650757,664.531067,1189.892334,665.651306,1189.078125,666.730469C1184.925659,672.23999,1179.414063,676.577026,1173.082031,679.316406C1169.359863,680.920105,1165.40979,681.931946,1161.375,682.316406C1156.269165,682.80719,1151.116821,682.316284,1146.195313,680.871094C1142.701782,679.828186,1139.371338,678.301636,1136.300781,676.335938L1135.109375,675.546875C1134.32605,675.005676,1133.5625,674.436279,1132.820313,673.839844C1132.228882,673.360657,1131.649414,672.866821,1131.082031,672.359375C1129.604248,671.030334,1128.229126,669.591492,1126.96875,668.054688C1125.829224,666.676636,1124.786621,665.22113,1123.847656,663.699219L1123.21875,662.648438L1122.472656,661.289063L1121.78125,659.90625L1121.144531,658.496094L1120.566406,657.0625L1120.042969,655.605469L1119.578125,654.128906L1119.175781,652.636719L1118.828125,651.125C1117.556274,644.959045,1117.751709,638.580505,1119.398438,632.503906C1120.781616,627.492615,1123.143311,622.804688,1126.347656,618.710938C1130.112305,613.9021,1134.928345,610.019348,1140.425781,607.359375C1145.291992,605.018982,1150.591675,603.715332,1155.988281,603.53125C1156.736694,603.503052,1157.485596,603.494934,1158.234375,603.507813z"/>
</svg>
