<?xml version="1.0" encoding="UTF-8"?>
<svg xmlns="http://www.w3.org/2000/svg" width="420.664mm" height="212.914mm" viewBox="-1367.832031 -749.457031 420.664063 212.914063">
    <path transform="matrix(-1,0,0,-1,0,0)" style="stroke:#000000;stroke-width:0.05mm;fill:none" d="M1160.453125,536.566406C1162.438965,536.604126,1164.422485,536.67041,1166.40625,536.765625C1168.408569,536.868835,1170.407715,537.000244,1172.40625,537.160156C1174.42688,537.327759,1176.446045,537.524475,1178.460938,537.75C1185.429321,538.544739,1192.354126,539.681519,1199.210938,541.15625C1206.706909,542.760986,1214.122559,544.718811,1221.433594,547.023438C1224.706055,548.047729,1227.958862,549.137939,1231.1875,550.292969L1235.140625,551.738281L1239.074219,553.246094C1245.954102,555.941223,1252.731201,558.892578,1259.390625,562.09375L1263.316406,564.011719L1267.214844,565.984375L1271.085938,568.011719L1274.929688,570.089844C1281.178467,573.522583,1287.315063,577.157593,1293.328125,580.988281L1297.136719,583.445313L1300.914063,585.949219L1304.65625,588.507813L1308.367188,591.113281C1317.144043,597.36322,1325.635376,604.003784,1333.816406,611.015625C1338.796143,615.276855,1343.657227,619.674194,1348.394531,624.203125L1351.109375,626.820313L1367.832031,643.121094L1354.488281,656.058594C1341.811401,668.37384,1328.318604,679.820435,1314.101563,690.320313C1306.989136,695.561157,1299.690552,700.543335,1292.21875,705.257813C1288.055542,707.877808,1283.837769,710.407898,1279.566406,712.847656C1275.443115,715.200928,1271.269775,717.467407,1267.050781,719.644531C1258.862305,723.866455,1250.488403,727.716431,1241.953125,731.183594C1235.788818,733.67981,1229.537964,735.954468,1223.210938,738.003906L1219.628906,739.128906L1216.027344,740.207031L1212.410156,741.230469L1208.855469,742.179688L1205.285156,743.074219L1201.703125,743.914063L1198.105469,744.699219C1190.554199,746.289307,1182.923828,747.474548,1175.246094,748.25C1171.426025,748.649536,1167.5979,748.979126,1163.765625,749.238281C1161.386719,749.379333,1159.00415,749.452271,1156.621094,749.457031C1155.024048,749.444031,1153.427734,749.405029,1151.832031,749.339844C1150.236694,749.266968,1148.642822,749.167969,1147.050781,749.042969C1142.99585,748.720459,1138.944092,748.32959,1134.902344,747.871094C1131.245361,747.441772,1127.602417,746.906433,1123.976563,746.265625L1120.488281,745.621094L1117.007813,744.921875L1113.542969,744.164063L1110.089844,743.351563C1102.92627,741.59729,1095.844604,739.522156,1088.867188,737.132813C1084.567993,735.669556,1080.305542,734.097107,1076.085938,732.417969C1067.335205,728.932861,1058.74939,725.047424,1050.355469,720.773438C1040.02002,715.515625,1029.956787,709.740356,1020.203125,703.46875C1009.446899,696.568176,999.052124,689.121155,989.058594,681.15625L985.355469,678.171875L981.691406,675.144531L978.066406,672.074219L974.476563,668.957031L970.925781,665.796875L967.414063,662.59375L963.945313,659.347656L960.511719,656.058594L947.167969,643.121094L963.890625,626.820313C975.75946,615.24707,988.406433,604.499146,1001.742188,594.652344C1003.949585,593.028381,1006.176086,591.427185,1008.417969,589.851563C1011.786255,587.488708,1015.193604,585.184143,1018.640625,582.9375C1024.370605,579.206055,1030.213745,575.649292,1036.160156,572.273438C1045.517944,566.954712,1055.141113,562.117676,1064.992188,557.78125L1068.878906,556.109375L1072.789063,554.496094L1076.722656,552.9375L1080.675781,551.433594C1090.128662,547.917175,1099.779541,544.956299,1109.578125,542.566406C1118.204102,540.464966,1126.949219,538.886536,1135.765625,537.839844C1140.029907,537.339844,1144.309692,536.981567,1148.597656,536.765625C1150.579102,536.670654,1152.563599,536.604126,1154.546875,536.566406C1156.515625,536.535156,1158.484497,536.535156,1160.453125,536.566406z"/>
    <path transform="matrix(-1,0,0,-1,0,0)" style="stroke:#000000;stroke-width:0.05mm;fill:none" d="M1156.265625,547.507813C1153.416138,547.54425,1150.569702,547.705872,1147.734375,547.992188L1145.335938,548.265625L1142.957031,548.601563L1140.59375,548.992188L1138.253906,549.441406L1135.933594,549.945313L1133.632813,550.507813L1131.355469,551.121094L1129.101563,551.792969L1126.871094,552.519531L1124.664063,553.296875L1122.484375,554.125L1120.328125,555.003906L1118.199219,555.9375L1116.097656,556.917969L1114.023438,557.949219L1111.980469,559.027344L1109.964844,560.152344L1107.980469,561.324219L1106.027344,562.546875L1104.105469,563.808594L1102.214844,565.121094L1100.359375,566.472656L1098.539063,567.867188L1096.753906,569.308594L1095.003906,570.789063L1093.289063,572.308594L1091.609375,573.871094L1089.972656,575.472656L1088.371094,577.109375L1086.808594,578.789063L1085.289063,580.503906L1083.808594,582.253906L1082.367188,584.039063L1080.972656,585.859375L1079.621094,587.714844L1078.308594,589.605469C1076.5896,592.152405,1074.994019,594.780273,1073.527344,597.480469L1072.449219,599.523438L1071.417969,601.597656L1070.4375,603.699219L1069.503906,605.828125L1068.625,607.984375L1067.796875,610.164063L1067.019531,612.371094L1066.292969,614.601563L1065.621094,616.855469L1065.007813,619.132813L1064.445313,621.433594L1063.941406,623.753906L1063.492188,626.09375L1063.101563,628.457031L1062.765625,630.835938L1062.492188,633.234375L1062.277344,635.652344L1062.125,638.085938C1061.958374,641.359863,1061.958496,644.640076,1062.125,647.914063L1062.277344,650.347656L1062.492188,652.765625L1062.765625,655.164063L1063.101563,657.542969L1063.492188,659.90625L1063.941406,662.246094L1064.445313,664.566406L1065.007813,666.867188L1065.621094,669.144531L1066.292969,671.398438L1067.019531,673.628906L1067.796875,675.835938L1068.625,678.015625L1069.503906,680.171875L1070.4375,682.300781L1071.417969,684.402344L1072.449219,686.476563L1073.527344,688.519531L1074.652344,690.535156L1075.824219,692.519531L1077.046875,694.472656L1078.308594,696.394531L1079.621094,698.285156L1080.972656,700.140625L1082.367188,701.960938L1083.808594,703.746094L1085.289063,705.496094L1086.808594,707.210938L1088.371094,708.890625L1089.972656,710.527344L1091.609375,712.128906L1093.289063,713.691406L1095.003906,715.210938L1096.753906,716.691406L1098.539063,718.132813L1100.359375,719.527344L1102.214844,720.878906L1104.105469,722.191406L1106.027344,723.453125L1107.980469,724.675781L1109.964844,725.847656L1111.980469,726.972656L1114.023438,728.050781L1116.097656,729.082031L1118.199219,730.0625L1120.328125,730.996094L1122.484375,731.875L1124.664063,732.707031L1126.871094,733.480469L1129.101563,734.207031L1131.355469,734.878906L1133.632813,735.492188L1135.933594,736.054688L1138.253906,736.558594L1140.59375,737.007813L1142.957031,737.398438L1145.335938,737.734375L1147.734375,738.007813L1150.171875,738.222656L1152.613281,738.375L1155.054688,738.46875L1157.5,738.5L1159.945313,738.46875L1162.386719,738.375L1164.828125,738.222656L1167.265625,738.007813L1169.664063,737.734375L1172.042969,737.398438L1174.40625,737.007813L1176.746094,736.558594L1179.066406,736.054688L1181.367188,735.492188L1183.644531,734.878906L1185.898438,734.207031L1188.128906,733.480469L1190.335938,732.707031L1192.515625,731.875L1194.671875,730.996094L1196.800781,730.0625L1198.902344,729.082031L1200.976563,728.050781L1203.019531,726.972656L1205.035156,725.847656L1207.019531,724.675781L1208.972656,723.453125L1210.894531,722.191406L1212.785156,720.878906L1214.640625,719.527344L1216.460938,718.132813L1218.246094,716.691406L1219.996094,715.210938L1221.710938,713.691406L1223.390625,712.128906L1225.027344,710.527344L1226.628906,708.890625L1228.191406,707.210938L1229.710938,705.496094L1231.191406,703.746094L1232.632813,701.960938L1234.027344,700.140625L1235.378906,698.285156L1236.691406,696.394531L1237.953125,694.472656L1239.175781,692.519531L1240.347656,690.535156L1241.472656,688.519531L1242.550781,686.476563L1243.582031,684.402344L1244.5625,682.300781L1245.496094,680.171875L1246.375,678.015625L1247.207031,675.835938L1247.980469,673.628906L1248.707031,671.398438L1249.378906,669.144531L1249.992188,666.867188L1250.554688,664.566406L1251.058594,662.246094L1251.507813,659.90625L1251.898438,657.542969L1252.234375,655.164063L1252.507813,652.765625L1252.722656,650.347656L1252.875,647.914063C1253.04187,644.640076,1253.041748,641.359863,1252.875,638.085938L1252.722656,635.652344L1252.507813,633.234375L1252.234375,630.835938L1251.898438,628.457031L1251.507813,626.09375L1251.058594,623.753906L1250.554688,621.433594L1249.992188,619.132813L1249.378906,616.855469L1248.707031,614.601563L1247.980469,612.371094L1247.207031,610.164063L1246.375,607.984375L1245.496094,605.828125L1244.5625,603.699219L1243.582031,601.597656L1242.550781,599.523438L1241.472656,597.480469L1240.347656,595.464844L1239.175781,593.480469L1237.953125,591.527344L1236.691406,589.605469L1235.378906,587.714844L1234.027344,585.859375L1232.632813,584.039063L1231.191406,582.253906L1229.710938,580.503906L1228.191406,578.789063L1226.628906,577.109375L1225.027344,575.472656L1223.390625,573.871094L1221.710938,572.308594L1219.996094,570.789063L1218.246094,569.308594L1216.460938,567.867188L1214.640625,566.472656L1212.785156,565.121094L1210.894531,563.808594L1208.972656,562.546875L1207.019531,561.324219L1205.035156,560.152344L1203.019531,559.027344L1200.976563,557.949219L1198.902344,556.917969L1196.800781,555.9375L1194.671875,555.003906L1192.515625,554.125L1190.335938,553.296875L1188.128906,552.519531L1185.898438,551.792969L1183.644531,551.121094L1181.367188,550.507813L1179.066406,549.945313L1176.746094,549.441406L1174.40625,548.992188L1172.042969,548.601563L1169.664063,548.265625L1167.265625,547.992188C1163.611084,547.622559,1159.938599,547.460693,1156.265625,547.507813z"/>
</svg>
