<?xml version="1.0" encoding="UTF-8"?>
<svg xmlns="http://www.w3.org/2000/svg" width="38.154mm" height="45.852mm" viewBox="-1008.172302 -599.243408 38.153809 45.851746">
    <path transform="matrix(-1,0,0,-1,0,0)" style="stroke:none;fill:#000000;fill-rule:evenodd" d="M970.815735,598.712341C970.659424,598.420288,970.416077,597.464478,970.275024,596.58844L970.018494,594.995605L970.260254,593.919556C970.39325,593.327698,970.860291,592.312622,971.298157,591.663818C972.124023,590.440125,972.284729,589.783936,971.827759,589.501526C971.455933,589.271729,970.506958,587.25238,970.506958,586.690918C970.506958,586.435791,970.615662,586.159912,970.748535,586.07782C970.881348,585.995728,971.065247,585.482727,971.157166,584.937866L971.324341,583.947205L970.915649,582.789612C970.690857,582.152893,970.506958,581.128845,970.506958,580.513916L970.506958,579.395813L971.110657,578.496887L971.714355,577.597961L972.522095,577.518311L973.329834,577.438721L973.670349,577.848999C973.857666,578.074707,974.230286,578.259338,974.498413,578.259338L974.985901,578.259338L975.922791,579.08197L976.85968,579.904541L977.485779,578.486694C978.187866,576.896912,978.775513,575.160583,979.379578,572.891296L979.787354,571.359192L980.702759,570.346008C981.206177,569.788757,981.618103,569.193665,981.618103,569.023621C981.618103,568.853577,981.859985,568.240356,982.15564,567.660828L982.693115,566.607178L982.823486,562.916565L982.953857,559.225952L982.590637,558.35907C982.390808,557.882263,981.911072,557.117126,981.524536,556.658752C981.138,556.200317,980.747925,555.456299,980.657776,555.00531L980.493774,554.185303L981.320496,554.185303L982.147217,554.185303L982.147217,553.920715L982.147217,553.656189L983.515259,553.656189L984.883301,553.656189L985.307922,554.040466C985.541443,554.25177,986.201355,554.579163,986.774414,554.767944L987.816345,555.111206L988.061218,556.149109L988.306091,557.186951L987.815796,560.51416L987.325439,563.84137L987.315674,566.222351L987.305908,568.603271L990.251404,568.50647L993.196838,568.409668L994.219604,568.740417C994.782166,568.922302,995.794067,569.471802,996.468323,569.961548C997.142578,570.451294,997.765869,570.851929,997.853394,570.851929C997.940979,570.851929,998.374695,570.134583,998.817322,569.257813L999.62207,567.663635L1000.042053,565.632568L1000.462097,563.601501L1000.315918,562.366882C1000.235474,561.687805,999.797485,560.167053,999.342529,558.987427L998.515381,556.84259L997.769165,556.241455C997.050598,555.662659,996.168335,554.244995,996.168335,553.669312L996.168335,553.391663L997.3396,553.391663L998.510803,553.391663L999.257568,554.281311C999.994934,555.15979,1001.129822,555.925781,1001.357117,555.698425C1001.421509,555.634094,1001.351807,555.259521,1001.202209,554.86615C1001.052612,554.472717,1000.930237,554.039551,1000.930237,553.903503L1000.930237,553.656189L1001.940735,553.656189L1002.951233,553.656189L1003.500977,554.288452C1003.803345,554.636169,1004.130432,555.171875,1004.227905,555.478943L1004.40509,556.037109L1004.77478,556.037109C1005.405029,556.037109,1005.615967,556.854309,1005.799133,560.005371C1005.896423,561.67865,1006.093628,564.026733,1006.237488,565.223328L1006.498962,567.398926L1006.163635,567.935852L1005.828308,568.472839L1006.163635,568.934875C1006.348083,569.189026,1006.875488,570.164673,1007.335632,571.103088L1008.172302,572.809204L1008.172302,574.449097L1008.172302,576.088989L1007.302002,577.856873L1006.431641,579.624756L1005.03833,581.018127L1003.644958,582.411499L1002.35376,583.03772L1001.0625,583.664001L999.471985,583.766296L997.88147,583.86853L995.443298,582.915833L993.005127,581.963074L991.160034,581.963074L989.314941,581.963074L988.633118,582.273743L987.951233,582.584412L987.419678,583.794922C987.127319,584.460693,986.630859,585.202515,986.316406,585.44342L985.74469,585.881409L986.079407,586.284729L986.414185,586.688049L985.885376,586.971069C985.594543,587.126709,985.22052,587.254089,985.05426,587.254089C984.629089,587.254089,983.205383,588.725464,983.205383,589.164917C983.205383,589.365295,983.0625,589.672058,982.887939,589.84668L982.570496,590.164124L981.738464,590.164124L980.906433,590.164124L980.50885,590.627075C980.290161,590.881714,980.037354,591.298401,979.947021,591.55304L979.782837,592.015991L978.866455,592.015991L977.950012,592.015991L977.832031,592.478943C977.767151,592.733582,977.694031,593.415588,977.669556,593.994568L977.625122,595.047241L976.94165,596.570129C976.565796,597.407654,976.090149,598.232483,975.884644,598.403015L975.510986,598.713135L975.261597,598.463745C974.886963,598.089111,974.368103,595.491882,974.383179,594.066528L974.396484,592.810181L974.042236,593.104187C973.422241,593.618774,972.685974,595.005859,972.092224,596.777893C971.775391,597.723633,971.422485,598.665283,971.308044,598.870422L971.099976,599.243408L970.815735,598.712341M985.429016,558.45343C985.223511,557.16803,984.835144,556.961121,984.990417,558.219666C985.126831,559.325256,985.299194,559.851624,985.469055,559.681763C985.543213,559.607605,985.525208,559.054871,985.429016,558.45343M1002.770142,558.982788C1002.449829,557.190613,1002.136169,556.316772,1001.905396,556.573914C1001.74646,556.751038,1002.804077,561.129822,1002.966553,560.967346C1003.040405,560.893494,1002.951965,560.000427,1002.770142,558.982788M1006.475586,575.402222L1006.862122,574.303284L1006.545166,572.792236L1006.228271,571.281189L1005.36908,570.394714L1004.509888,569.508301L1004.17511,569.966125L1003.840332,570.42395L1003.840332,571.306885L1003.840332,572.189819L1004.633972,573.762024L1005.427612,575.334229L1005.427612,576.025208L1005.427612,576.716125L1005.758301,576.608643C1005.940186,576.5495,1006.262939,576.006592,1006.475586,575.402222"/>
</svg>
