<?xml version="1.0" encoding="UTF-8"?>
<svg xmlns="http://www.w3.org/2000/svg" width="124.066mm" height="95.633mm" viewBox="-1089.042969 -316.246094 124.066406 95.633026">
    <path transform="matrix(-1,0,0,-1,0,0)" style="stroke:#000000;stroke-width:0.05mm;fill:none" d="M1069.683594,220.613281C1070.311523,220.650558,1070.918945,220.850967,1071.445313,221.195313C1072.175781,221.641144,1072.895996,222.103439,1073.605469,222.582031C1073.522583,223.176529,1073.454712,223.773117,1073.402344,224.371094C1073.380127,224.815384,1073.538818,225.250351,1073.84375,225.574219C1074.487793,226.286118,1075.124756,227.001068,1075.757813,227.722656C1076.192139,228.22171,1076.516968,228.806229,1076.714844,229.4375C1076.831665,229.817001,1076.90332,230.20903,1076.925781,230.605469C1077.020996,231.770157,1077.102905,232.935028,1077.171875,234.101563C1077.329712,236.275131,1077.672119,238.43132,1078.195313,240.546875C1078.558472,242.047241,1078.846802,243.564667,1079.058594,245.09375C1079.057617,245.682037,1079.148804,246.266586,1079.324219,246.828125C1079.363281,246.906738,1079.410156,246.981323,1079.46875,247.046875C1079.535767,247.127747,1079.634521,247.178284,1079.738281,247.148438C1079.804565,247.098022,1079.862549,247.038681,1079.921875,246.980469C1080.147217,246.652634,1080.356201,246.313995,1080.546875,245.964844C1081.043213,245.045746,1081.548096,244.118774,1082.050781,243.203125L1082.050781,230.683594C1081.566772,230.251648,1081.092773,229.808868,1080.628906,229.355469L1080.4375,229.152344C1080.325195,229.00563,1080.235962,228.842621,1080.175781,228.667969L1080.109375,228.394531C1080.111816,228.024811,1080.109375,227.654785,1080.101563,227.285156L1080.019531,226.957031C1079.956299,226.744431,1079.867798,226.540268,1079.757813,226.347656L1079.570313,226.066406C1079.000122,225.354797,1078.500366,224.589478,1078.078125,223.78125C1077.986206,223.596893,1077.973022,223.381271,1078.042969,223.1875C1078.112671,223.063965,1078.200928,222.951752,1078.308594,222.859375C1078.420288,222.770416,1078.546997,222.701721,1078.683594,222.660156C1079.267334,222.466476,1079.877197,222.36319,1080.492188,222.355469C1081.446045,222.312042,1082.401245,222.306854,1083.355469,222.339844C1083.955566,222.895828,1084.530273,223.478439,1085.078125,224.085938C1085.217651,224.239777,1085.328735,224.417557,1085.398438,224.613281C1085.445557,224.747482,1085.46814,224.889145,1085.460938,225.03125C1085.40686,225.345947,1085.341675,225.658646,1085.265625,225.96875C1085.179932,226.453049,1085.125,226.942322,1085.101563,227.433594C1085.075195,227.716919,1085.07605,228.002136,1085.105469,228.285156C1085.122437,228.361786,1085.147583,228.436249,1085.179688,228.507813C1085.356812,228.548203,1085.526855,228.615158,1085.683594,228.707031C1085.840332,228.798859,1085.982788,228.912781,1086.109375,229.042969C1087.140381,229.802872,1087.612549,231.113205,1087.300781,232.355469C1087.084473,232.951752,1086.905762,233.561035,1086.765625,234.179688C1086.596436,235.367996,1086.5,236.565552,1086.476563,237.765625C1086.322876,242.577927,1086.200562,247.380569,1086.109375,252.195313C1084.678101,254.609528,1083.266235,257.027618,1081.867188,259.460938C1081.411743,260.259674,1081.010864,261.088257,1080.667969,261.941406C1080.470459,262.498383,1080.356812,263.081604,1080.328125,263.671875C1080.307983,264.57666,1080.308105,265.481903,1080.328125,266.386719C1080.391724,268.512451,1080.614868,270.630402,1080.996094,272.722656C1081.192017,273.663239,1081.454224,274.588776,1081.78125,275.492188L1082.125,276.386719C1082.550415,277.580994,1082.95813,278.781921,1083.347656,279.988281C1083.356812,280.024261,1083.368164,280.05957,1083.382813,280.09375C1083.40625,280.122406,1083.430786,280.150208,1083.460938,280.171875C1083.491089,280.179596,1083.520508,280.189331,1083.554688,280.179688C1083.64502,280.025208,1083.719604,279.862061,1083.773438,279.691406L1083.835938,279.429688C1083.948608,278.318512,1084.010132,277.202789,1084.019531,276.085938C1084.049438,273.935028,1083.998657,271.783844,1083.867188,269.636719C1083.572388,266.599762,1085.137329,265.048218,1085,262C1085.534302,261.452606,1084.271851,259.397827,1084.773438,258.820313C1085.356934,258.058746,1085.752075,257.170135,1085.925781,256.226563C1086.041992,255.79071,1086.196655,255.366104,1086.386719,254.957031C1086.430542,254.892441,1086.476807,254.82959,1086.53125,254.773438C1086.570801,254.762512,1086.606689,254.771057,1086.644531,254.773438L1086.683594,254.839844C1086.699219,254.887634,1086.713257,254.935883,1086.726563,254.984375C1086.750488,255.16713,1086.766479,255.350876,1086.769531,255.535156L1086.765625,255.773438C1086.718384,256.128845,1086.72168,256.488983,1086.773438,256.84375C1086.787354,256.867096,1086.802734,256.889374,1086.820313,256.910156C1087.313721,256.5625,1087.639893,256.019409,1087.730469,255.421875L1087.75,256.117188C1087.55542,256.888794,1088.199341,257.550446,1088.355469,257.402344C1088.417603,257.362488,1088.483765,257.329376,1088.554688,257.308594L1088.605469,257.332031C1088.619629,257.371948,1088.633545,257.411987,1088.644531,257.453125C1088.147949,258.866302,1088.057373,260.188538,1088.859375,259.4375C1088.894043,259.407074,1088.930054,259.378143,1088.964844,259.347656L1089.003906,259.371094C1089.018921,259.426605,1089.032349,259.482513,1089.042969,259.539063C1089.014771,260.282715,1088.907227,261.02124,1088.722656,261.742188C1087.863892,263.10672,1088.729248,263.253174,1088.835938,263.652344C1088.860962,263.630829,1088.888306,263.612305,1088.917969,263.597656C1088.934204,263.635376,1088.935059,263.674835,1088.941406,263.714844C1088.255737,265.48941,1088.149536,266.675964,1088.285156,267.546875C1087.851807,270.025269,1087.483154,272.514038,1087.179688,275.011719C1086.825195,277.522644,1086.309692,280.008209,1085.636719,282.453125C1084.948853,284.687714,1084.014893,286.83902,1082.851563,288.867188C1082.134399,290.177521,1081.335815,291.44162,1080.460938,292.652344L1080.316406,292.816406C1080.162598,292.969513,1079.987549,293.099518,1079.796875,293.203125C1079.579468,293.228607,1079.370483,293.307159,1079.207031,293.453125C1079.119995,293.553436,1079.02417,293.645752,1078.921875,293.730469C1078.828857,293.820404,1078.704834,293.857452,1078.578125,293.882813C1078.445068,293.905701,1078.310669,293.917969,1078.175781,293.921875C1077.896851,293.876129,1077.614624,293.853485,1077.332031,293.851563L1077.039063,293.871094C1076.846069,293.897278,1076.657104,293.945435,1076.472656,294.007813C1076.238525,294.103668,1076.01062,294.213837,1075.789063,294.335938C1074.814331,294.81131,1073.776367,295.14389,1072.707031,295.324219C1071.926758,295.450531,1071.150269,295.600494,1070.378906,295.773438L1068.882813,296.066406C1067.206299,296.300018,1065.499512,296.180786,1063.871094,295.71875C1063.457275,295.606201,1063.041748,295.491211,1062.628906,295.375C1061.004272,295.084595,1059.395386,294.711792,1057.808594,294.257813C1056.648193,294.023315,1055.484741,293.799255,1054.320313,293.585938C1053.88269,293.56311,1053.448486,293.497223,1053.023438,293.390625C1050.822998,292.966949,1048.611328,292.604858,1046.390625,292.304688C1042.45752,291.908447,1038.495483,291.889069,1034.558594,292.246094C1033.088135,292.365997,1031.625122,292.564148,1030.175781,292.839844C1029.172485,293.010559,1028.168701,293.189209,1027.167969,293.375C1026.103027,293.636261,1025.033936,293.879822,1023.960876,294.105469C1021.925293,294.462433,1019.878784,294.75296,1017.824219,294.976563L1017.246094,294.976563C1017.1745,294.989838,1017.103027,295.003113,1017.031311,295.015625L1016.984375,295.046875C1016.989319,295.101501,1016.998596,295.155579,1017.01947,295.207031C1017.076782,295.275665,1017.124207,295.351685,1017.160217,295.433594L1017.046875,295.433594C1016.744629,295.318481,1016.444092,295.200012,1016.14447,295.078125L1016.046875,295.078125C1016.044128,295.108337,1016.041992,295.129944,1016.039124,295.160156C1016.049927,295.231598,1016.078613,295.296753,1016.097717,295.367188C1016.058289,295.355225,1016.017578,295.352844,1015.976624,295.34375C1015.735229,295.195038,1015.515015,295.014679,1015.320313,294.808594C1015.248291,294.755859,1015.205322,294.680908,1015.152283,294.609375C1015.166382,294.680817,1015.179199,294.752441,1015.191406,294.824219C1015.181274,295.003326,1015.079529,295.171356,1014.910217,295.210938L1014.847717,295.222656C1014.845886,295.114471,1014.827026,295.007507,1014.800781,294.902344C1014.765625,294.891693,1014.730225,294.882629,1014.695313,294.871094C1014.60968,294.902557,1014.534973,294.923615,1014.546875,295.027344C1014.516418,295.090271,1014.493896,295.144867,1014.425781,295.136719C1014.341187,295.145966,1014.256226,295.1315,1014.16803,295.121094C1014.11322,295.189117,1014.042786,295.243652,1013.960876,295.273438C1013.914124,295.226563,1013.85968,295.188599,1013.808594,295.144531L1013.45697,295.257813C1013.491699,295.340881,1013.509277,295.429718,1013.515625,295.519531C1013.474609,295.603394,1013.456787,295.69809,1013.48053,295.785156L1013.433594,295.832031C1013.396301,295.824249,1013.357605,295.816498,1013.320313,295.808594L1013.273376,295.832031L1013.246094,295.90625C1013.235229,295.973694,1013.218628,296.039978,1013.199219,296.105469C1013.025085,296.005219,1012.882385,295.861145,1012.76947,295.695313C1012.734314,295.687469,1012.69928,295.679871,1012.664124,295.671875C1012.662476,295.743561,1012.618286,295.794769,1012.558594,295.824219C1012.48999,295.751526,1012.419128,295.68161,1012.359375,295.601563L1012.183594,295.664063C1012.138184,295.694519,1012.094482,295.727051,1012.046875,295.753906C1012.005127,295.745209,1011.963318,295.73703,1011.921875,295.726563L1010.9375,296.039063C1010.942627,296.133148,1010.968323,296.223938,1011,296.3125L1010.976624,296.335938C1010.280579,296.342743,1009.592773,296.452362,1008.929688,296.664063C1008.909973,296.687469,1008.891296,296.711548,1008.871094,296.734375C1008.549072,296.613831,1008.187683,296.710327,1007.960876,296.96875C1007.94397,297.029449,1007.918701,297.087708,1007.878906,297.136719L1007.83197,297.152344C1007.786499,297.141174,1007.740784,297.131653,1007.695313,297.121094C1007.64563,297.205536,1007.63269,297.309692,1007.718811,297.367188C1007.739624,297.444977,1007.759521,297.523041,1007.777283,297.601563C1007.679871,297.60849,1007.604919,297.550354,1007.54303,297.480469L1007.441406,297.464844C1007.372314,297.46933,1007.304382,297.483551,1007.238281,297.503906C1007.143494,297.551727,1007.043091,297.587067,1006.9375,297.601563C1006.96698,297.491943,1006.982605,297.37915,1006.984375,297.265625L1006.847717,297.3125C1006.767517,297.453003,1006.727112,297.609985,1006.703125,297.769531C1006.669373,297.905853,1006.617126,298.036469,1006.550781,298.160156C1006.532288,298.148682,1006.517578,298.133362,1006.503906,298.117188L1006.472717,298.070313C1006.305908,298.126129,1006.164978,298.243958,1006.097717,298.40625C1006.05658,298.444885,1006.009888,298.488831,1005.968811,298.527344C1005.801819,298.590576,1005.612793,298.588196,1005.48053,298.472656C1005.494507,298.756836,1005.526123,299.039886,1005.574219,299.320313C1005.563782,299.338287,1005.557678,299.357788,1005.54303,299.375C1005.410583,299.23645,1005.272705,299.103241,1005.128906,298.976563C1004.965271,298.822174,1004.757629,298.721039,1004.535217,298.6875C1004.491699,298.778931,1004.460815,298.876068,1004.449219,298.976563C1004.450928,299.309418,1004.42157,299.641754,1004.359375,299.96875L1004.328125,299.976563C1004.2854,299.845886,1004.234802,299.717957,1004.175781,299.59375C1004.028625,299.365051,1003.883728,299.134583,1003.742188,298.902344C1003.704285,299.048553,1003.670715,299.19577,1003.640625,299.34375C1003.573181,299.268372,1003.497681,299.201813,1003.390625,299.222656C1003.331787,299.261353,1003.281311,299.310364,1003.23053,299.359375C1003.180725,299.454803,1003.141174,299.554871,1003.10553,299.65625C1003.111511,299.770233,1003.087402,299.884766,1003.01947,299.976563C1002.982178,299.991089,1002.942871,299.998108,1002.902283,299.992188C1002.876587,299.951569,1002.849915,299.911743,1002.824219,299.871094C1002.805786,299.789032,1002.787415,299.707214,1002.76947,299.625L1002.722717,299.5625C1002.688477,299.533905,1002.653809,299.50589,1002.617188,299.480469C1002.598022,299.603882,1002.594116,299.729645,1002.632813,299.847656C1002.522522,299.754913,1002.400879,299.676636,1002.273376,299.609375C1002.23938,299.67334,1002.216614,299.742371,1002.218811,299.816406C1002.207581,299.865509,1002.193481,299.913818,1002.175781,299.960938C1002.021423,299.943146,1001.881592,299.855499,1001.808594,299.71875C1001.791687,299.849182,1001.823608,299.978577,1001.878906,300.097656L1001.871094,300.136719C1001.834229,300.118011,1001.797729,300.098572,1001.761719,300.078125C1001.461121,299.799347,1001.174316,299.506012,1000.902283,299.199219C1000.939697,299.578064,1000.924316,299.960144,1000.863281,300.335938C1000.866699,300.429779,1000.81012,300.453156,1000.753906,300.511719L1000.679688,300.519531C1000.574585,300.461487,1000.472473,300.398193,1000.375,300.328125L1000.3125,300.3125C1000.361328,300.409882,1000.41217,300.506165,1000.464783,300.601563L1000.441406,300.617188C1000.194092,300.397034,999.985901,300.136627,999.824219,299.847656L999.785156,299.808594C999.768066,299.810638,999.760071,299.820801,999.742188,299.824219C999.789551,300.044037,999.777771,300.271423,999.71875,300.488281C999.5354,300.472961,999.350647,300.475128,999.167969,300.496094L999.167969,300.65625C999.187744,300.754883,999.205811,300.853943,999.222656,300.953125C999.221619,301.020355,999.216614,301.087524,999.199219,301.152344C999.173157,301.165558,999.148865,301.181305,999.121094,301.191406C999.094116,301.242371,999.066528,301.29303,999.039063,301.34375C999.180786,301.615814,999.145691,301.95047,998.929688,302.167969C998.830444,302.043884,998.718445,301.93045,998.59375,301.832031C998.380493,301.831146,998.168518,301.787262,997.976563,301.695313C997.968262,301.743317,997.961243,301.791809,997.953125,301.839844C997.910461,301.794006,997.848206,301.776733,997.777344,301.71875C997.677124,301.710815,997.606323,301.625854,997.550781,301.527344C997.536255,301.571899,997.52533,301.617493,997.519531,301.664063C997.438782,301.685883,997.356079,301.689026,997.273438,301.6875C997.287048,301.850616,997.318909,302.011566,997.367188,302.167969L997.367188,302.191406L997.28125,302.117188C997.229797,302.062683,997.18335,302.003937,997.136719,301.945313L997.078125,301.847656C996.803589,301.968628,996.678101,302.283417,996.777344,302.566406C996.619873,302.369171,996.464783,302.170044,996.3125,301.96875L996.265625,301.960938C996.333496,302.196655,996.296204,302.447418,996.167969,302.65625C996.121033,302.710754,996.070618,302.762115,996.015625,302.808594L995.9375,302.855469C995.902039,302.856934,995.867065,302.852203,995.832031,302.847656C995.761658,302.824524,995.70752,302.769989,995.65625,302.710938C995.622131,302.747223,995.588501,302.783813,995.550781,302.816406L995.5,302.9375C995.436768,303.053101,995.364136,303.163177,995.28125,303.265625C995.250671,303.270905,995.221924,303.275665,995.191406,303.28125C995.109009,303.222595,995.020752,303.172882,994.929688,303.128906L994.894531,303.167969C994.889771,303.232117,994.884583,303.296234,994.871094,303.359375L994.808594,303.328125C994.758301,303.270508,994.714478,303.207916,994.671875,303.144531L994.625,303.121094L994.609375,303.160156C994.603577,303.293854,994.592285,303.427338,994.566406,303.558594L994.542969,303.59375C994.508972,303.592804,994.475159,303.59021,994.441406,303.585938C994.194763,303.455444,993.96344,303.297546,993.753906,303.113281C993.723694,303.193359,993.704346,303.276703,993.679688,303.359375L993.625,303.34375C993.540161,303.270844,993.454224,303.199127,993.367188,303.128906L993.238281,303.097656C993.209045,303.120392,993.180786,303.144287,993.152344,303.167969L993.105469,303.472656C993.09082,303.475128,993.069397,303.47818,993.054688,303.480469C992.98877,303.436768,992.922241,303.393951,992.855469,303.351563L992.726563,303.273438C992.696777,303.326538,992.672974,303.382874,992.65625,303.441406C992.615845,303.400635,992.574463,303.36087,992.527344,303.328125C992.391052,303.118347,992.238159,302.91983,992.070313,302.734375C992.03009,302.718933,992.017151,302.730438,991.992188,302.726563L992.035156,302.988281C992.184021,303.388458,992.294373,303.801941,992.367188,304.222656C992.348206,304.21347,992.3302,304.202698,992.3125,304.191406C992.228394,304.076355,992.136719,303.967102,992.039063,303.863281L992.015625,303.871094L992,303.984375C992.002319,304.198944,992.021362,304.412994,992.054688,304.625C992.045105,304.678253,992.033691,304.731201,992,304.777344C991.854248,304.702148,991.736816,304.583618,991.648438,304.445313C991.569641,304.32489,991.517212,304.18924,991.496094,304.046875L991.472656,303.984375C991.37207,304.082123,991.279114,304.187378,991.191406,304.296875L991.121094,304.34375C991.063354,304.278931,991.012573,304.208008,990.976563,304.128906C990.95874,304.071136,990.916199,304.028259,990.855469,304.015625L990.828125,304.074219C990.805664,304.109772,990.77771,304.140686,990.75,304.171875L990.695313,304.207031L990.632813,304.191406C990.603943,304.321167,990.587524,304.453156,990.582031,304.585938C990.594543,304.718445,990.596497,304.851685,990.585938,304.984375L990.566406,305.015625C990.542664,304.965057,990.519043,304.914246,990.496094,304.863281C990.455566,304.834839,990.414795,304.806793,990.375,304.777344C990.274292,304.818115,990.158813,304.808228,990.078125,304.734375L990,304.664063C989.938782,304.719116,989.940247,304.799286,989.9375,304.886719C989.887146,305.560059,989.859619,306.234955,989.855469,306.910156L989.832031,306.96875C989.746277,306.204926,989.608276,305.447815,989.417969,304.703125C989.335266,304.471863,989.228394,304.249725,989.089844,304.046875L989.054688,304.015625L989.0625,304.238281C989.09668,304.412262,989.134033,304.603241,989.167969,304.777344C989.091553,304.472931,988.923645,304.196625,988.679688,304L988.65625,304.039063C988.741333,304.524078,988.848511,305.005005,988.976563,305.480469C989.049744,305.762848,989.091431,306.052368,989.105469,306.34375C989.09137,306.351929,989.076782,306.359467,989.0625,306.367188C988.955139,306.206055,988.869141,306.031586,988.808594,305.847656C988.752563,305.622955,988.694031,305.399139,988.632813,305.175781C988.648438,305.034485,988.549133,304.939606,988.433594,304.871094C988.298767,304.981934,988.177856,305.108582,988.070313,305.246094C988.04657,305.24942,988.032166,305.238647,988.015625,305.230469C987.948364,305.078674,987.879517,304.92746,987.808594,304.777344C987.753906,304.752197,987.711853,304.718109,987.640625,304.742188L987.617188,304.921875C987.658081,305.077332,987.676025,305.237762,987.671875,305.398438L987.597656,305.421875C987.505615,305.422729,987.414551,305.406494,987.328125,305.375L987.199219,305.390625C987.001953,305.789246,986.963562,306.24942,987.078125,306.679688C987.028076,306.262939,986.953491,305.849548,986.855469,305.441406C986.832214,305.368835,986.808777,305.296417,986.769531,305.230469C986.741272,305.259338,986.738708,305.288147,986.710938,305.3125C986.644226,305.704712,986.575195,306.096893,986.503906,306.488281L986.375,306.945313C986.342957,307.000824,986.311951,307.057007,986.28125,307.113281C986.256348,306.964752,986.247986,306.813995,986.265625,306.664063C986.269287,306.263885,986.255188,305.863739,986.222656,305.464844L986.191406,305.351563L986.175781,305.375C986.117126,305.649689,986.074097,305.92746,986.046875,306.207031C986.02594,306.440369,985.978699,306.670502,985.910156,306.894531C985.869751,306.949677,985.844543,307.007965,985.777344,307.039063C985.703796,306.952789,985.618286,306.877136,985.527344,306.808594C985.507324,307.018036,985.479553,307.226685,985.441406,307.433594C985.34436,307.489349,985.283569,307.591919,985.246094,307.703125L985.222656,307.550781C985.247253,307.241364,985.28009,306.93277,985.320313,306.625L985.125,306.808594C984.935242,307.002014,984.773254,307.220764,984.640625,307.457031L984.609375,307.59375L984.574219,307.601563C984.543457,307.568481,984.511169,307.536957,984.480469,307.503906C984.4422,307.44458,984.389893,307.396484,984.320313,307.375C984.286133,307.445801,984.251404,307.516327,984.214844,307.585938C984.173645,307.634827,984.125305,307.676025,984.078125,307.71875C984.030518,307.677551,983.979675,307.649109,983.96875,307.574219L983.976563,307.40625C983.999023,307.326172,984.005432,307.243011,984,307.160156C983.982422,307.122772,983.968628,307.084595,983.9375,307.054688C983.895203,307.062256,983.850891,307.070251,983.808594,307.078125C983.712036,307.182098,983.59613,307.266205,983.464844,307.320313C983.472107,307.274689,983.460022,307.232605,983.464844,307.183594C983.557556,306.983917,983.642761,306.780853,983.71875,306.574219C983.670959,306.462402,983.542175,306.416077,983.457031,306.527344C983.282776,306.632782,983.124023,306.761871,982.984375,306.910156C982.847717,307.060913,982.728149,307.22644,982.632813,307.40625C982.592712,307.421112,982.552734,307.436462,982.511719,307.449219C982.466797,307.442139,982.43042,307.418335,982.390625,307.398438C982.527893,307.212067,982.630554,307.001434,982.6875,306.777344C982.497253,306.877655,982.296997,306.957825,982.089844,307.015625C981.797668,307.18985,981.527222,307.397827,981.28125,307.632813C981.185242,307.71579,981.085876,307.794861,980.976563,307.859375C980.865845,307.921875,980.750122,307.974579,980.632813,308.023438C980.587463,308.031189,980.562927,308.006317,980.558594,307.96875C980.721436,307.792084,980.87262,307.604889,981.007813,307.40625L981.007813,307.351563C980.820679,307.487823,980.641113,307.634186,980.472656,307.792969C979.060425,309.158722,977.625854,310.499512,976.167969,311.816406C975.738586,312.241943,975.383972,312.736908,975.121094,313.28125C974.628418,314.204315,974.147705,315.13443,973.679688,316.070313C973.05957,316.069,972.440613,316.127014,971.832031,316.246094C971.789124,316.219269,971.748474,316.21524,971.71875,316.171875C971.693542,316.13443,971.678101,316.091553,971.671875,316.046875C971.666931,315.983032,971.67041,315.919373,971.671875,315.855469L971.785156,315.363281C971.925598,314.879059,972.129517,314.415649,972.390625,313.984375C973.025879,313.543915,973.333008,312.7612,973.160156,312.007813C973.053589,312.141174,972.935547,312.264801,972.808594,312.378906C972.657349,312.582855,972.41394,312.695557,972.160156,312.6875C972.012878,312.629761,971.862732,312.579712,971.710938,312.535156L971.558594,312.566406C971.482849,312.598328,971.408081,312.632416,971.335938,312.671875L971.289063,312.734375C971.281372,312.795624,971.250671,312.845001,971.230469,312.902344C971.185852,312.868713,971.142456,312.833832,971.097656,312.800781L971.046875,312.703125C971.083191,312.333496,971.187561,311.973877,971.351563,311.640625C971.481445,311.286682,971.63269,310.940948,971.804688,310.605469C971.981262,310.273712,972.179871,309.954193,972.398438,309.648438L972.503906,309.550781C972.541443,309.541992,972.578796,309.532532,972.617188,309.527344C972.663879,309.499542,972.700012,309.457306,972.71875,309.40625C972.758423,309.330292,972.786011,309.248962,972.816406,309.167969C972.955078,309.129761,973.09314,309.089569,973.230469,309.046875C973.264282,309.007996,973.293518,308.965698,973.320313,308.921875C973.330139,308.891754,973.3396,308.861511,973.351563,308.832031C973.388611,308.908356,973.446594,308.974121,973.527344,308.992188C973.55835,308.970093,973.588562,308.946991,973.617188,308.921875L973.65625,308.832031C973.897644,308.003143,974.219421,307.199829,974.617188,306.433594C974.64624,306.349243,974.669861,306.263214,974.6875,306.175781L974.640625,306.160156C975.325745,305.516602,975.6203,304.558594,975.417969,303.640625C975.461243,303.54718,975.52063,303.462769,975.589844,303.386719C975.664734,303.312958,975.734192,303.237823,975.742188,303.136719C975.736572,303.101563,975.732422,303.066345,975.726563,303.03125L975.789063,302.882813C975.984192,302.645142,976.184875,302.41214,976.390625,302.183594C976.644409,301.85498,976.786438,301.454041,976.800781,301.039063C976.790833,300.969513,976.776917,300.900635,976.761719,300.832031L976.707031,300.730469C976.664063,300.667542,976.615845,300.608643,976.566406,300.550781L976.480469,300.472656C975.382568,299.320831,974.369629,298.091003,973.449219,296.792969C972.623535,295.177063,971.943481,293.490784,971.417969,291.753906C971.330627,291.547211,971.247192,291.338867,971.167969,291.128906L971.207031,291.113281C971.24231,291.128662,971.277588,291.143951,971.3125,291.160156L970.160156,287.863281C968.415894,284.745178,966.696655,281.643372,964.976563,278.511719L965.855469,274.632813C965.913757,274.319275,966.020081,274.016907,966.167969,273.734375L966.480469,272.953125C966.524231,272.710297,966.586548,272.471191,966.667969,272.238281C966.837585,271.780914,967.092529,271.359863,967.421875,271C967.587036,270.816711,967.771057,270.65155,967.96875,270.503906C968.158203,270.36322,968.389038,270.28949,968.625,270.292969C968.747742,270.305664,968.870178,270.321259,968.992188,270.339844C969.088989,270.337006,969.182556,270.314423,969.207031,270.222656L969.214844,270.144531C969.262329,270.030212,969.326965,269.923798,969.410156,269.832031C969.494995,269.744537,969.59491,269.672852,969.707031,269.625C969.784851,269.597168,969.863647,269.571991,969.945313,269.558594C970.554321,269.674133,971.145264,269.8703,971.703125,270.140625C971.998047,270.291382,972.287415,270.452759,972.570313,270.625C972.93042,270.691833,973.26709,270.856506,973.542969,271.097656C973.716675,271.293945,973.849304,271.522705,973.9375,271.769531C974.023254,272.018341,974.066101,272.279816,974.0625,272.542969C974.080811,272.696991,974.119934,272.847534,974.175781,272.992188L974.289063,273.191406C974.389771,273.316864,974.504089,273.430756,974.632813,273.527344C974.979736,273.75174,975.365479,273.909576,975.769531,273.996094C976.007324,274.032471,976.245544,274.064911,976.484375,274.09375C976.788513,274.151031,977.081726,274.254028,977.359375,274.390625C977.463867,274.491028,977.580139,274.578522,977.707031,274.648438C978.153503,274.860229,978.619324,275.028137,979.097656,275.152344L979.292969,275.230469C979.483826,275.32077,979.668762,275.423035,979.847656,275.535156C980.338074,276.030487,980.865479,276.487701,981.425781,276.902344C981.461914,276.91748,981.498352,276.931885,981.535156,276.945313C982.017456,277.343262,982.480469,277.76416,982.921875,278.207031C983.295227,278.533081,983.709045,278.809509,984.152344,279.03125C985.099854,279.542908,985.950195,280.217224,986.664063,281.023438C986.997681,281.467468,987.349365,281.897705,987.71875,282.3125C987.794067,282.374725,987.872803,282.432617,987.953125,282.488281C988.066101,282.466736,988.16925,282.402679,988.140625,282.261719C988.158325,282.020172,988.26001,281.793427,988.421875,281.613281C988.537842,281.478546,988.670349,281.3591,988.816406,281.257813C988.884766,281.210358,988.968445,281.193726,989.054688,281.175781C989.734863,280.762665,990.349609,280.250488,990.878906,279.65625C991.160767,279.382385,991.472229,279.140686,991.808594,278.9375C992.466431,278.482605,993.094055,277.985443,993.6875,277.449219C994.212952,277.012604,994.775391,276.622589,995.367188,276.28125C995.982178,275.84726,996.585266,275.396484,997.175781,274.929688C997.592407,274.659088,997.993164,274.364716,998.375,274.046875C999.25238,273.455994,1000.122986,272.860779,1000.992188,272.257813C1001.699829,271.727783,1002.35437,271.130249,1002.945313,270.472656C1003.345093,269.973755,1003.715576,269.452148,1004.054688,268.910156C1004.676575,268.11261,1005.282104,267.302551,1005.871094,266.480469C1006.213013,265.954865,1006.528381,265.412506,1006.816406,264.855469C1007.659485,263.442047,1008.751221,262.192657,1010.039124,261.167969C1010.673584,260.646362,1011.330505,260.152283,1012.007813,259.6875C1012.424316,259.390533,1012.805725,259.047241,1013.14447,258.664063C1013.203796,258.503418,1013.246521,258.337097,1013.273376,258.167969C1013.374329,257.988281,1013.509583,257.830231,1013.671875,257.703125C1013.747375,257.588989,1013.828186,257.478302,1013.91803,257.375L1013.597717,257.375C1014.159119,255.723206,1014.691895,254.061005,1015.195313,252.390625C1015.312927,252.01442,1015.398071,251.628845,1015.451172,251.238281C1015.388794,251.467697,1015.281494,251.68248,1015.136719,251.871094C1015.093323,251.854996,1015.05011,251.842499,1015.007813,251.847656C1015.048706,251.595566,1015.126526,251.350723,1015.238281,251.121094C1015.418823,250.587402,1015.567383,250.043472,1015.683594,249.492188C1015.749695,247.626617,1015.856384,245.763245,1016.003906,243.902344C1016.064026,243.346542,1016.150085,242.7939,1016.261719,242.246094C1016.378906,241.699158,1016.522278,241.158173,1016.691406,240.625C1017.164978,238.792038,1017.285706,236.885834,1017.046875,235.007813C1016.927124,234.099045,1016.768127,233.195847,1016.570313,232.300781L1016.414124,231.671875C1016.299805,231.344879,1016.125977,231.04184,1015.902283,230.777344L1015.660217,230.527344C1015.072021,230.017731,1014.523682,229.463882,1014.01947,228.871094C1013.852478,228.641403,1013.749207,228.371796,1013.714783,228.089844C1013.733276,227.72963,1013.674927,227.369278,1013.539124,227.035156C1013.433289,226.79097,1013.285706,226.567108,1013.101624,226.375C1012.432678,225.709595,1011.681824,225.132263,1010.867188,224.65625C1010.656311,224.510117,1010.451599,224.355087,1010.253906,224.191406L1010.171875,224.109375C1010.121521,224.05278,1010.076721,223.991547,1010.039124,223.925781C1009.998413,223.844086,1009.987671,223.752472,1010.011719,223.664063C1010.089783,223.577332,1010.200623,223.523453,1010.316406,223.527344C1010.842712,223.517532,1011.369019,223.54718,1011.890625,223.617188C1012.084717,223.686249,1012.30249,223.656448,1012.468811,223.535156C1012.289185,223.211044,1012.059204,222.917694,1011.789124,222.664063L1011.101624,221.953125C1011.350586,221.73671,1011.608582,221.530701,1011.875,221.335938C1012.05603,221.241425,1012.247803,221.169281,1012.445313,221.117188C1012.644104,221.071579,1012.846924,221.046356,1013.050781,221.039063C1013.6828,220.999893,1014.316223,220.986969,1014.949219,221C1015.442688,220.768845,1015.987793,220.670715,1016.531311,220.710938C1016.755981,220.727615,1016.978271,220.767563,1017.195313,220.828125C1017.844971,221.016602,1018.41803,221.407394,1018.828125,221.945313C1019.368225,222.33316,1019.867188,222.775375,1020.316406,223.265625C1020.376099,223.337036,1020.422974,223.418518,1020.449219,223.507813C1020.473877,223.598221,1020.486816,223.691422,1020.484375,223.785156C1020.390198,224.121582,1020.234375,224.437408,1020.027283,224.71875C1019.911682,224.893997,1019.8255,225.086746,1019.76947,225.289063C1019.720398,225.493851,1019.704102,225.705643,1019.734375,225.914063C1019.835815,226.207825,1019.997681,226.477097,1020.210876,226.703125C1020.603821,227.081085,1020.992981,227.46254,1021.378906,227.847656C1021.822571,228.279999,1022.139221,228.825714,1022.29303,229.425781C1022.393311,229.995346,1022.304871,230.582047,1022.04303,231.097656C1021.830505,231.65416,1021.719482,232.244186,1021.714783,232.839844C1021.64209,234.302216,1021.621216,235.766602,1021.652283,237.230469C1021.705872,241.945999,1021.673279,246.660767,1021.554688,251.375C1021.550171,252.252838,1021.606079,253.129913,1021.722717,254C1021.782715,254.234009,1021.858093,254.463776,1021.949219,254.6875C1022.11499,255.32756,1022.267517,255.970764,1022.406311,256.617188L1022.472717,256.789063C1022.541992,256.964142,1022.640015,257.126434,1022.757813,257.273438C1023.486816,257.75415,1024.194458,258.266296,1024.878906,258.808594C1024.920044,258.774078,1024.958862,258.737305,1025,258.703125C1025.348267,258.570404,1025.717163,258.499176,1026.089844,258.496094C1026.872314,258.589355,1027.650879,258.272247,1028.152344,257.664063C1028.1875,257.633392,1028.230957,257.614136,1028.277344,257.609375C1028.35022,257.568787,1028.40271,257.505585,1028.441406,257.433594C1028.51062,257.266846,1028.568848,257.095825,1028.617188,256.921875C1028.723755,256.855042,1028.802368,256.748444,1028.878906,256.632813C1028.820435,256.788483,1028.753662,256.940918,1028.679688,257.089844C1028.697632,257.096527,1028.715942,257.100983,1028.734375,257.105469C1028.946411,256.940857,1029.20459,256.846039,1029.472656,256.832031C1029.512573,256.884125,1029.547729,256.938019,1029.609375,256.96875C1029.673828,256.951721,1029.711548,256.92099,1029.769531,256.945313C1029.790283,257.011017,1029.809204,257.077271,1029.824219,257.144531L1029.894531,257.183594C1030.063965,257.190674,1030.234009,257.178528,1030.398438,257.136719C1030.732544,257.037781,1031.063477,256.928558,1031.390625,256.808594C1032.006714,256.619049,1032.640015,256.491638,1033.28125,256.425781C1033.862915,256.297302,1034.446533,256.176147,1035.03125,256.0625C1035.458374,256.001953,1035.888916,255.968597,1036.320313,255.960938C1037.340942,255.783417,1038.356323,255.601593,1039.375,255.414063C1040.643677,255.211823,1041.919189,255.055237,1043.199219,254.945313C1043.53186,254.955307,1043.858643,255.034668,1044.160156,255.175781C1044.804321,255.276108,1045.453979,255.33728,1046.105469,255.359375C1048.169922,255.580719,1050.203369,256.031372,1052.167969,256.703125C1052.638062,256.893707,1053.101807,257.099701,1053.558594,257.320313C1053.758301,257.391541,1053.95874,257.460815,1054.160156,257.527344C1055.395752,258.102814,1056.598145,258.747162,1057.761719,259.457031C1059.220337,260.628174,1060.662598,261.821533,1062.085938,263.035156L1062.085938,263.019531L1062.113281,263.023438C1062.470459,262.784119,1062.83252,262.552551,1063.199219,262.328125C1063.644165,261.827393,1064.038574,261.283997,1064.378906,260.707031C1065.327881,259.198395,1066.218994,257.654388,1067.050781,256.078125C1067.860718,254.592819,1068.728394,253.139862,1069.652344,251.722656C1070.524292,250.5802,1071.231079,249.320679,1071.75,247.980469C1072.212402,246.822662,1072.640991,245.651505,1073.035156,244.46875C1073.263794,243.4552,1073.368774,242.417709,1073.347656,241.378906C1073.365479,239.525696,1073.197876,237.675369,1072.847656,235.855469C1072.636475,234.763611,1072.357178,233.686005,1072.011719,232.628906C1071.785278,231.850739,1071.564453,231.073853,1071.347656,230.292969C1071.031616,229.375397,1070.480591,228.556778,1069.75,227.917969C1069.094238,227.291306,1068.583984,226.528412,1068.253906,225.683594C1068.010986,224.803009,1067.531616,224.005768,1066.867188,223.378906C1066.588501,223.105484,1066.366699,222.779892,1066.210938,222.421875L1066.195313,222.300781C1066.215698,222.207169,1066.242676,222.115051,1066.28125,222.027344C1066.357422,221.90329,1066.442505,221.784805,1066.539063,221.675781C1066.915649,221.343338,1067.349976,221.082703,1067.820313,220.90625C1068.088989,220.813202,1068.362793,220.73584,1068.640625,220.675781C1068.984497,220.613068,1069.334717,220.592087,1069.683594,220.613281z"/>
</svg>
