<?xml version="1.0" encoding="UTF-8"?>
<svg xmlns="http://www.w3.org/2000/svg" width="199.477mm" height="32.930mm" viewBox="-1573.078979 -606.151611 199.476563 32.929688">
    <path transform="matrix(-1,0,0,-1,-1476.661011,-603.921143)" style="stroke:#000000;stroke-width:0.05mm;fill:none" d="M10.351563,-5.105469C11.07136,-5.038965,11.753271,-4.752563,12.304688,-4.285156C12.686808,-3.968926,13.007277,-3.584893,13.25,-3.152344C13.537167,-2.622691,13.683767,-2.02822,13.675781,-1.425781C13.688949,-0.579894,13.391538,0.241461,12.839844,0.882813C12.523583,1.260731,12.139383,1.57604,11.707031,1.8125C11.174949,2.092376,10.581644,2.236005,9.980469,2.230469C9.381828,2.235358,8.791265,2.091744,8.261719,1.8125C7.623855,1.45829,7.098661,0.931743,6.746094,0.292969C6.463511,-0.235366,6.319713,-0.826685,6.328125,-1.425781C6.323376,-1.907441,6.413636,-2.385289,6.59375,-2.832031C6.781182,-3.2793,7.054564,-3.685392,7.398438,-4.027344C7.812375,-4.466639,8.333315,-4.791048,8.910156,-4.96875C9.37745,-5.105968,9.866801,-5.152384,10.351563,-5.105469M61.027344,-28.433594C62.170761,-29.278759,63.468636,-29.891865,64.847656,-30.238281C66.009865,-30.523348,67.213348,-30.600048,68.402344,-30.464844C70.054031,-30.267841,71.567986,-29.445869,72.632813,-28.167969C73.476189,-27.16563,73.983192,-25.923397,74.082031,-24.617188C74.175308,-23.615633,74.070457,-22.605568,73.773438,-21.644531C73.431496,-20.585545,72.823555,-19.631933,72.007813,-18.875C71.1371,-18.056694,70.094894,-17.442846,68.957031,-17.078125C67.825874,-16.724485,66.645996,-16.551786,65.460938,-16.566406C63.963371,-16.564699,62.472374,-16.76306,61.027344,-17.15625C61.028545,-16.87546,61.057327,-16.595472,61.113281,-16.320313C61.167171,-16.065948,61.252457,-15.819266,61.367188,-15.585938C61.481979,-15.356461,61.623596,-15.141418,61.789063,-14.945313C62.060753,-14.637041,62.381489,-14.375704,62.738281,-14.171875C63.134476,-13.944557,63.560463,-13.773635,64.003906,-13.664063C64.51503,-13.53174,65.038841,-13.454478,65.566406,-13.433594C67.142914,-13.365805,68.71904,-13.576042,70.222656,-14.054688C71.254883,-14.377443,72.255219,-14.794577,73.210938,-15.300781L73.210938,-20.179688L82.242188,-20.179688L82.242188,-30.320313L96.417969,-30.320313L96.417969,1.726563L70.0625,1.726563L70.0625,-6.3125C68.22419,-5.66296,66.317017,-5.227783,64.378906,-5.015625C62.222118,-4.768114,60.04438,-4.764185,57.886719,-5.003906C56.777988,-5.132627,55.685139,-5.373446,54.625,-5.722656C53.709545,-6.02558,52.840542,-6.454164,52.042969,-6.996094C50.861076,-7.812187,49.909828,-8.919512,49.28125,-10.210938C48.852959,-11.089712,48.541725,-12.020796,48.355469,-12.980469C48.293556,-13.284304,48.244034,-13.590563,48.207031,-13.898438L48.207031,1.726563L35.226563,1.726563L35.226563,-5.8125C34.048191,-5.332746,32.808147,-5.021091,31.542969,-4.886719C29.865889,-4.729806,28.174309,-4.879375,26.550781,-5.328125C24.600384,-5.889384,22.829081,-6.94732,21.410156,-8.398438C20.687063,-9.120456,20.057163,-9.930138,19.535156,-10.808594C19.423798,-10.995996,19.319553,-11.187543,19.222656,-11.382813L19.222656,-5.035156C18.173046,-5.609981,17.035172,-6.005994,15.855469,-6.207031C14.768561,-6.399751,13.66634,-6.492585,12.5625,-6.484375L11.632813,-6.464844C11.050497,-6.435027,10.470233,-6.37374,9.894531,-6.28125L9.082031,-6.125L8.3125,-5.921875L7.582031,-5.671875L6.890625,-5.375L6.242188,-5.035156L6.242188,-11.988281C5.796436,-10.91761,5.189133,-9.921685,4.441406,-9.035156C2.803962,-7.067013,0.590785,-5.661234,-1.886719,-5.015625C-2.989929,-4.727209,-4.122002,-4.563425,-5.261719,-4.527344C-6.473862,-4.470798,-7.688527,-4.550728,-8.882813,-4.765625C-10.244488,-5.007318,-11.562363,-5.450997,-12.792969,-6.082031C-14.777712,-7.119769,-16.442677,-8.678058,-17.609375,-10.589844C-17.954927,-11.162071,-18.2528,-11.761738,-18.5,-12.382813L-18.5,-5.035156L-31.480469,-5.035156L-31.480469,-8.207031C-32.377831,-7.264273,-33.431004,-6.483313,-34.59375,-5.898438C-35.72089,-5.338788,-36.942066,-4.993098,-38.195313,-4.878906C-39.586411,-4.750862,-40.988926,-4.851137,-42.347656,-5.175781C-43.214935,-5.387295,-44.042068,-5.7382,-44.796875,-6.214844C-45.891205,-6.918993,-46.775192,-7.905546,-47.355469,-9.070313C-47.508804,-9.366433,-47.640667,-9.673243,-47.75,-9.988281L-47.75,-5.035156L-60.726563,-5.035156L-60.726563,-8.207031C-61.623924,-7.264273,-62.677101,-6.483311,-63.839844,-5.898438C-64.967064,-5.339016,-66.18821,-4.993332,-67.441406,-4.878906C-68.832504,-4.750795,-70.235023,-4.85107,-71.59375,-5.175781C-72.461105,-5.387115,-73.288246,-5.738027,-74.042969,-6.214844C-75.13752,-6.91876,-76.021545,-7.905358,-76.601563,-9.070313C-76.978683,-9.837353,-77.254417,-10.650111,-77.421875,-11.488281C-77.839394,-10.60561,-78.36985,-9.781038,-79,-9.035156C-80.493874,-7.236129,-82.473618,-5.904548,-84.703125,-5.199219C-85.999207,-4.792379,-87.345253,-4.566286,-88.703125,-4.527344C-90.149811,-4.459438,-91.599083,-4.586887,-93.011719,-4.90625C-94.129875,-5.161057,-95.211349,-5.556112,-96.230469,-6.082031C-97.020004,-6.494169,-97.762604,-6.990549,-98.445313,-7.5625C-100.164955,-9.004034,-101.455452,-10.89046,-102.175781,-13.015625C-102.487839,-13.94782,-102.708923,-14.908012,-102.835938,-15.882813C-102.990723,-17.020699,-103.065125,-18.168072,-103.058594,-19.316406L-89.804688,-19.316406C-90.030075,-19.937857,-90.353142,-20.519379,-90.761719,-21.039063C-91.27459,-21.677307,-91.909279,-22.2071,-92.628906,-22.597656C-93.517387,-23.080889,-94.50193,-23.361038,-95.511719,-23.417969C-96.712624,-23.482048,-97.916138,-23.356812,-99.078125,-23.046875C-100.594627,-22.634487,-101.97052,-21.817591,-103.058594,-20.683594L-103.058594,-25.113281L-102.511719,-25.789063L-101.933594,-26.421875L-101.328125,-27.011719L-100.691406,-27.558594C-100.258339,-27.90456,-99.805756,-28.22541,-99.335938,-28.519531L-98.613281,-28.933594L-97.859375,-29.304688L-97.078125,-29.632813C-96.53846,-29.836842,-95.988197,-30.011572,-95.429688,-30.15625C-94.847542,-30.302601,-94.258232,-30.418636,-93.664063,-30.503906C-92.713074,-30.638851,-91.753464,-30.704124,-90.792969,-30.699219C-89.250389,-30.712856,-87.711906,-30.539726,-86.210938,-30.183594C-84.856995,-29.861256,-83.557968,-29.341379,-82.355469,-28.640625C-80.813278,-27.732342,-79.477562,-26.512363,-78.433594,-25.058594C-78.172264,-24.693327,-77.933533,-24.312401,-77.71875,-23.917969L-77.71875,-30.320313L-65.453125,-30.320313L-65.453125,-15.578125C-65.457993,-15.115539,-65.408173,-14.654017,-65.304688,-14.203125C-65.22316,-13.847967,-65.070328,-13.513066,-64.855469,-13.21875C-64.552361,-12.824482,-64.111465,-12.559392,-63.621094,-12.476563C-62.936947,-12.365141,-62.235203,-12.460337,-61.605469,-12.75C-61.295418,-12.884651,-61.000744,-13.052288,-60.726563,-13.25L-60.726563,-30.320313L-36.207031,-30.320313L-36.207031,-15.578125C-36.212769,-15.115286,-36.161598,-14.653483,-36.054688,-14.203125C-35.96085,-13.765574,-35.751797,-13.36095,-35.449219,-13.03125C-35.155777,-12.739435,-34.779125,-12.54565,-34.371094,-12.476563C-33.688217,-12.365458,-32.98782,-12.460656,-32.359375,-12.75C-32.049324,-12.884651,-31.754646,-13.052288,-31.480469,-13.25L-31.480469,-30.320313L-18.5,-30.320313L-18.488281,-26.425781L-17.886719,-27.011719L-17.253906,-27.558594L-16.589844,-28.058594L-15.894531,-28.519531L-15.171875,-28.933594L-14.421875,-29.304688L-13.640625,-29.632813C-13.099375,-29.83609,-12.547844,-30.010807,-11.988281,-30.15625C-11.40637,-30.303585,-10.816975,-30.41964,-10.222656,-30.503906C-9.272993,-30.638979,-8.314675,-30.70426,-7.355469,-30.699219C-5.811604,-30.712595,-4.271873,-30.539473,-2.769531,-30.183594C-1.416211,-29.859327,-0.117439,-29.339556,1.085938,-28.640625C2.626071,-27.729553,3.961259,-26.510063,5.007813,-25.058594C5.498457,-24.363148,5.912331,-23.6166,6.242188,-22.832031L6.242188,-30.320313L19.222656,-30.320313L19.222656,-23.359375C19.630062,-24.167156,20.128044,-24.925924,20.707031,-25.621094C21.39418,-26.468332,22.191626,-27.219793,23.078125,-27.855469C23.993237,-28.501213,24.993717,-29.016573,26.050781,-29.386719C27.20359,-29.790453,28.398876,-30.060442,29.613281,-30.191406C30.417301,-30.282555,31.226023,-30.3256,32.035156,-30.320313L61.027344,-30.320313L61.027344,-28.433594M72.765625,-7.464844C71.893303,-7.023447,70.992905,-6.639803,70.070313,-6.316406L82.242188,-6.316406L82.242188,-12.136719L73.460938,-12.136719L73.460938,-7.828125L72.765625,-7.464844M-11.699219,-14.886719C-11.681349,-14.316033,-11.589439,-13.750134,-11.425781,-13.203125C-11.286945,-12.743615,-11.063018,-12.314307,-10.765625,-11.9375C-10.442777,-11.516741,-10.004319,-11.199097,-9.503906,-11.023438C-9.009941,-10.860524,-8.481748,-10.830881,-7.972656,-10.9375C-7.489095,-11.05556,-7.047212,-11.304203,-6.695313,-11.65625C-6.362201,-11.975614,-6.102314,-12.363446,-5.933594,-12.792969C-5.789882,-13.169039,-5.692813,-13.561249,-5.644531,-13.960938C-5.604157,-14.267817,-5.58588,-14.577214,-5.589844,-14.886719L-11.699219,-14.886719M-95.140625,-14.886719C-95.123566,-14.315673,-95.030289,-13.749472,-94.863281,-13.203125C-94.723495,-12.744775,-94.501091,-12.315853,-94.207031,-11.9375C-93.945389,-11.600458,-93.60997,-11.327842,-93.226563,-11.140625C-92.659111,-10.877738,-92.021667,-10.806458,-91.410156,-10.9375C-90.927864,-11.055996,-90.487419,-11.304602,-90.136719,-11.65625C-89.800583,-11.973045,-89.540192,-12.361627,-89.375,-12.792969C-89.22683,-13.167609,-89.129623,-13.560436,-89.085938,-13.960938C-89.045563,-14.267819,-89.027283,-14.577214,-89.03125,-14.886719L-95.140625,-14.886719M34.933594,-21.125C34.160492,-21.134876,33.387653,-21.089188,32.621094,-20.988281C32.244362,-20.944296,31.880224,-20.82468,31.550781,-20.636719C30.998039,-20.314823,30.602306,-19.779175,30.457031,-19.15625C30.27606,-18.407944,30.262724,-17.629066,30.417969,-16.875C30.521536,-16.407036,30.746559,-15.974507,31.070313,-15.621094C31.380079,-15.28042,31.78157,-15.036271,32.226563,-14.917969C32.955761,-14.734678,33.723133,-14.774133,34.429688,-15.03125C34.704456,-15.129644,34.970921,-15.249815,35.226563,-15.390625L35.226563,-21.125L34.933594,-21.125M-13.144531,-23.421875C-14.307099,-23.387783,-15.455803,-23.159363,-16.542969,-22.746094C-17.240404,-22.473806,-17.898533,-22.109932,-18.5,-21.664063L-18.5,-19.316406L-6.367188,-19.316406C-6.645623,-20.091267,-7.077392,-20.802025,-7.636719,-21.40625C-8.437371,-22.242294,-9.44779,-22.848007,-10.5625,-23.160156C-11.226874,-23.348665,-11.914902,-23.440754,-12.605469,-23.433594L-13.144531,-23.421875M62.75,-25.417969C62.208336,-25.384693,61.685966,-25.205168,61.238281,-24.898438L61.027344,-24.734375L61.027344,-21.207031C61.557652,-21.022858,62.106464,-20.897116,62.664063,-20.832031C62.921116,-20.807396,63.179661,-20.802176,63.4375,-20.816406C63.781231,-20.837755,64.119102,-20.915609,64.4375,-21.046875C64.939011,-21.24757,65.34552,-21.631721,65.574219,-22.121094C65.886993,-22.862459,65.792336,-23.712727,65.324219,-24.367188C64.907578,-24.919697,64.290092,-25.285973,63.605469,-25.386719C63.322483,-25.430161,63.035404,-25.440653,62.75,-25.417969"/>
</svg>
