<?xml version="1.0" encoding="UTF-8"?>
<svg xmlns="http://www.w3.org/2000/svg" width="119.817mm" height="121.911mm" viewBox="-1201.472168 -836.675415 119.816772 121.910522">
    <path transform="matrix(-0.26455,0,0,-0.26455,-1062.078735,-696.199341)" style="stroke:#000000;stroke-width:0.05mm;fill:none" d="M89.36174,527.25C88.478493,525.1875,87.313438,522.642822,86.772743,521.595154C86.23204,520.547485,85.561577,516.272522,85.282814,512.095154C84.567757,501.379913,86.984337,494.904999,94.683014,486.908447C97.882355,483.585297,100.638199,480.481842,100.807114,480.011871C101.454567,478.210327,97.073303,480.314056,94.42849,483.074646C92.018028,485.590607,91.156624,485.888763,87.833366,485.357361C85.416389,484.970886,83.461319,485.202179,82.51638,485.98642C80.587402,487.587311,74,486.448181,74,484.513702C74,483.746094,74.471848,482.826416,75.048561,482.470001C75.764908,482.027252,75.724754,481.373291,74.921829,480.405792C73.29908,478.450531,74.278458,469.578674,76.3452,467.511932C77.255341,466.601807,78,465.467163,78,464.990509C78,464.19397,93.58728,450.6716,100.884697,445.137451C104.895157,442.096008,104.816917,439.646637,100.558769,434.93338C98.666092,432.838409,96.559433,429.183868,95.877312,426.812164C95.195183,424.44046,93.818741,421.305542,92.818542,419.845642C91.818344,418.385712,91,415.599792,91,413.654633C91,411.709503,90.550003,409.839905,90,409.5C89.449997,409.160095,89,407.349365,89,405.476166C89,402.999969,88.404907,401.751892,86.819778,400.903534C84.819977,399.833282,84.778603,399.635071,86.319778,398.508118C88.105614,397.202301,88.5998,395,87.106987,395C86.615829,395,85.93573,394.274902,85.59565,393.388672C85.153198,392.235657,85.407211,391.942291,86.488663,392.357269C87.319901,392.676239,88,392.538147,88,392.050415C88,391.562653,88.25045,390.510925,88.556557,389.713196C88.904297,388.807007,88.341507,388.061066,87.056557,387.725037C84.689705,387.10611,84.25956,385,86.5,385C88.443695,385,88.443695,383.107483,86.5,382.361633C84.336418,381.531372,84.655182,380,86.991585,380C88.611351,380,88.921768,379.439178,88.654305,376.996063C88.473434,375.343903,88.027222,373.693878,87.662727,373.329376C86.393768,372.060425,87.010506,369,88.535187,369C89.743095,369,89.849686,368.587646,89.035187,367.065735C87.582771,364.351898,87.711304,364,90.154991,364C92.267914,364,92.273567,363.959778,90.444748,361.938965C88.84845,360.175049,88.790062,359.74472,90.039764,358.954254C90.842896,358.446259,92.229988,358.023743,93.122192,358.01532C94.237343,358.004791,94.944305,356.749756,95.38401,354C95.858704,351.031403,96.493317,350,97.845154,350C101.241791,350,101.225822,348.843903,97.724754,341.284088C96.963531,339.640381,97.056343,338.637024,98.08419,337.39856C98.846306,336.480255,99.476639,335.002411,99.484932,334.114471C99.495171,333.017273,100.220886,332.60025,101.75,332.812866C103.497017,333.055786,104,332.633331,104,330.923096C104,329.71167,104.742706,328.177399,105.650482,327.513611C106.7435,326.714386,107.334572,324.735138,107.400482,321.653625C107.455223,319.094421,107.837502,317.000397,108.25,317.000244C108.662498,317.000122,109,315.930115,109,314.622437C109,313.314789,109.675003,311.684692,110.5,311C111.324997,310.315308,112,309.119385,112,308.342377C112,307.565369,112.627373,305.932953,113.394157,304.714813C114.16095,303.496674,114.682251,301.019989,114.552612,299.21109C114.422974,297.402191,114.669594,295.704193,115.10067,295.437775C115.531754,295.171356,116.197983,292.862549,116.5812,290.307068C117.435143,284.61261,120.055779,278.130188,127.878662,262.361694C131.19072,255.685608,134.99823,249.359955,136.339798,248.304672C137.681366,247.24939,138.943863,245.511642,139.145355,244.442993C139.346832,243.374344,140.521561,242.055786,141.755844,241.512878C142.990128,240.969955,144,239.709045,144,238.710846C144,237.596329,145.149292,236.495316,146.978241,235.857742C149.009964,235.149475,150.921783,233.132339,152.993835,229.510757C154.664398,226.590942,156.699188,223.945679,157.51561,223.632385C158.332016,223.319092,159,221.881516,159,220.437759C159,218.641663,159.640396,217.645294,161.028046,217.28241C162.469604,216.905441,162.884476,216.211365,162.462646,214.882324C162.018097,213.481628,162.258438,213.161942,163.420715,213.607941C164.495651,214.020447,165.289963,213.327408,166.006744,211.351654C166.575729,209.783249,167.436569,207.600006,167.919708,206.5C169.497482,202.907822,170.790497,198.626602,172.601059,191C173.580338,186.875,174.796555,182.942627,175.303772,182.261383C175.810989,181.580139,176.174561,176.855148,176.11171,171.761383C176.048859,166.667618,176.741821,158.684753,177.651627,154.021667C179.413269,144.992645,178.945358,139.827682,175.358643,128.711304C174.044662,124.638863,173.170242,123.620209,169.512436,121.900841C163.842728,119.235764,158.990982,113.854958,159.031204,110.276649C159.04837,108.749489,160.143616,105.740273,161.465088,103.589493C163.417252,100.412216,163.764465,98.8069,163.316895,95.027901C162.897629,91.487823,163.163406,89.979454,164.42952,88.713341C167.629181,85.51368,176.011673,83.706429,189.788391,83.246017C204.748444,82.746056,211.278931,83.983841,213.780853,87.793533C214.609268,89.054977,216.761307,91.56131,218.563171,93.363167C220.743164,95.543159,222.384781,98.623421,223.469757,102.569633C224.366531,105.831337,225.997543,111.425003,227.094254,115C228.190948,118.574997,229.164154,122.512497,229.256927,123.75C229.349701,124.987503,229.969086,126,230.633347,126C231.788132,126,233.647476,131.506088,233.136398,133.412292C232.675797,135.130264,235.241318,140,236.606995,140C237.702805,140,237.89946,142.312897,237.606049,151.75C237.405136,158.212494,237.14151,163.5,237.020248,163.5C236.898972,163.5,236.639832,166.649994,236.444397,170.5C236.248962,174.350006,235.858887,180.011276,235.57756,183.080597C235.070587,188.611923,235.107727,188.705795,239.783035,193.711243C244.970169,199.264648,249,201.319839,249,198.41185C249,197.055603,249.487411,197.256165,251.290237,199.354233C252.69223,200.98584,253.952698,201.668442,254.540237,201.114243C255.795975,199.929779,259.9953,201.543167,260.01532,203.217773C260.026642,204.166763,260.26297,204.13298,260.924561,203.087814C261.680206,201.894119,262.075653,201.932785,263.480682,203.337814C265.129669,204.986801,266.344025,205.38707,268.75,205.074646C269.4375,204.985367,270,205.38205,270,205.956161C270,206.530273,270.674988,207,271.5,207C272.325012,207,273,207.449997,273,208C273,208.550003,273.476563,209,274.059021,209C274.641479,209,274.839905,208.550003,274.5,208C274.160095,207.449997,274.471039,207.002838,275.190979,207.006317C275.91095,207.009796,277.279938,208.383072,278.233154,210.058029L279.966339,213.103409L282.949463,210.051697C286.588898,206.328613,288,206.190964,288,209.559021C288,210.966476,288.41156,211.863678,288.914581,211.55278C289.417603,211.241898,290.057098,211.552841,290.335632,212.243774C290.738129,213.242081,290.858307,213.243362,290.921051,212.25C290.964478,211.5625,291.723145,211,292.606995,211C293.609009,211,294.001923,211.552643,293.650665,212.467972C293.340851,213.27536,293.5177,214.20192,294.043671,214.526993C294.569641,214.852066,295,214.191483,295,213.059021C295,211.926559,295.450012,211,296,211C296.549988,211,297,212.180099,297,213.622452C297,215.831512,297.234711,216.050095,298.488983,215.00914C299.307922,214.329468,299.720215,213.356339,299.405212,212.846619C298.738922,211.768555,304.043518,212.842911,305.376984,214.056076C305.859314,214.494904,307.321808,214.447952,308.626984,213.951721C310.459686,213.254929,311,213.385406,311,214.52475C311,215.336136,311.337494,215.946716,311.75,215.881577C313.910431,215.540466,315.073212,216.259293,316.390045,218.75L317.843964,221.5L318.571472,216.094208C319.181854,211.558746,319.492096,210.952499,320.498383,212.328659C321.15802,213.230804,321.998596,213.668076,322.366272,213.3004C322.733948,212.932724,323.575623,214.064713,324.236633,215.815948C325.568634,219.344833,326.472015,219.765884,327.762787,217.459427C328.661041,215.854309,332,216.411102,332,218.166C332,218.689621,332.515259,218.799591,333.144989,218.410385C333.931885,217.924072,334.135895,218.508728,333.797363,220.279755C333.359863,222.568283,333.59552,222.821564,335.902374,222.542404C337.331055,222.369507,339.287506,222.176727,340.25,222.114014C341.212494,222.051315,342,221.324997,342,220.5C342,219.675003,342.450012,219,343,219C343.549988,219,344.01001,220.012497,344.022247,221.25C344.042755,223.32547,347.927765,229.58934,347.977753,227.627548C347.98999,227.147705,348.685883,227.324341,349.52417,228.02005C351.200714,229.411453,352.261963,228.822876,352.632843,226.295944C352.765717,225.390549,353.535828,224.279633,354.344208,223.82724C355.208679,223.343475,355.598328,222.180054,355.290375,221.00235C354.997406,219.882065,355.258636,219,355.883362,219C356.497528,219,357,219.505096,357,220.122452C357,220.897949,357.463623,220.860107,358.5,220C359.766998,218.948502,360,219.15332,360,221.318542C360,222.728424,360.450012,224.16008,361,224.5C361.549988,224.83992,362.006897,224.30397,362.01532,223.309021C362.027557,221.860886,362.208618,221.781158,362.922791,222.909317C363.413483,223.684433,363.555115,224.995758,363.237549,225.823364C362.876282,226.764755,363.075104,227.071609,363.768616,226.643005C364.378265,226.26622,365.290802,226.697235,365.796478,227.60083C366.615875,229.064987,366.884186,229.003418,368.26297,227.034943L369.810059,224.826172L370.472412,226.913086C371.557007,230.330353,372.919739,229.280289,372.306274,225.5C371.668762,221.571335,373.418976,220.593979,374.574127,224.233582L375.283051,226.467148L376.079926,224.313019C376.87381,222.166901,378.374725,221.853256,380.75,223.337143C381.601868,223.869308,382,223.445633,382,222.007004C382,220.583054,382.93158,219.571213,384.862152,218.898209C387.61734,217.937744,390,214.485016,390,211.452942C390,210.653824,390.640381,210,391.423065,210C392.20578,210,394.196167,208.649994,395.846161,207C397.496155,205.350006,399.340424,204,399.944519,204C400.548615,204,401.55545,202.875,402.181946,201.5C402.808441,200.125,403.660156,199,404.074677,199C405.236359,199,412,192.169418,412,190.996231C412,190.424713,413.050629,189.478424,414.334717,188.893356C415.618835,188.308273,417.39035,186.609207,418.271423,185.117645C419.152527,183.626068,421.026886,181.788376,422.436707,181.033875C424.219208,180.07991,425,178.83699,425,176.953461C425,175.463745,425.674988,173.684692,426.5,173C427.325012,172.315308,428,171.317184,428,170.781921C428,170.246674,428.886719,168.563477,429.970459,167.041489C431.054199,165.519501,431.681396,164.014725,431.364227,163.697556C431.047028,163.380371,431.735321,160.187073,432.893768,156.601334C436.362366,145.864822,435.834015,140.975693,430.127197,131L425.264557,122.5L417.882263,122.237907C409.344452,121.934792,406.73172,120.911423,402.25,116.114937C397.603699,111.142326,398.054901,109.164993,404.805603,104.915237C411.379517,100.776802,417.611969,99.277634,431.194397,98.567642C439.945709,98.110184,441.404968,98.29673,446.194397,100.485237C449.112488,101.818642,452.60376,103.788208,453.952759,104.862053C456.140411,106.603447,456.275543,107.099869,455.202759,109.454308C453.61615,112.936592,453.685669,114,455.5,114C456.325012,114,457,114.873444,457,115.940987C457,117.008522,457.450012,118.16008,458,118.5C458.549988,118.83992,459,120.074966,459,121.244568C459,122.414162,459.906647,124.336166,461.01474,125.515694C462.274536,126.856667,463.304993,129.819977,463.76474,133.423767L464.5,139.187241L467.107025,137.133499C469.969177,134.878784,473,125.936417,473,119.746452C473,116.630859,471.03537,106.29599,469.393066,100.772308C469.091309,99.757439,467.150757,98.60759,464.689697,97.98539C448.307709,93.843781,443.558868,91.034622,440.500854,83.676598C438.099915,77.89962,438.975128,76.741203,447.239899,74.756943C459.29425,71.862854,474.170197,69.806473,480,70.228348C488.757202,70.862068,498.773926,76.819603,497.344635,80.544243C496.994812,81.455925,497.12204,82.493935,497.62738,82.850922C498.132721,83.207916,499.408752,84.849998,500.463013,86.5C502.028076,88.949516,502.424469,91.662117,502.62323,101.282997C502.757141,107.763641,503.385193,114.637138,504.018951,116.557426C504.944214,119.361008,504.835999,121.669449,503.469635,128.274445C501.760742,136.535355,501.532349,143.511017,502.545502,156.5C502.845825,160.350006,502.661652,167.100006,502.136261,171.5C500.838257,182.37027,498.969269,194.177444,498.258057,196C497.936127,196.824997,497.633881,197.800003,497.586365,198.166672C497.538879,198.53334,497.162506,199.170837,496.75,199.583328C496.337494,199.995834,496.014984,201.495834,496.033264,202.916672L496.066528,205.5L497.954407,203.236618C498.992706,201.99176,500.041138,200.416763,500.28421,199.736618C501.046356,197.604202,502.096283,199.608505,502.536835,204.036819C503.04953,209.190613,503.530945,209.774017,505.999115,208.23262C508.13562,206.898346,509.631104,208.200684,508.315674,210.25C507.371613,211.720764,506.810303,216.291092,507.087524,220.25C507.135681,220.9375,506.717102,222.962494,506.157349,224.75C505.25058,227.64566,505.350067,228,507.069794,228C508.131409,228,509,227.501221,509,226.891586C509,226.208633,509.959595,226.024033,511.5,226.410645C512.94165,226.772476,514,226.606689,514,226.019058C514,225.458572,514.849976,225,515.888916,225C517.074097,225,517.726013,225.651962,517.638916,226.75C517.547668,227.899063,518.100952,228.399094,519.25,228.206161C521.549805,227.820007,521.456787,229.79039,519,233.5C516.365723,237.477585,516.472168,238,519.916687,238C521.520813,238,523.060303,238.5625,523.337708,239.25C523.741211,240.25,523.85791,240.25,523.921082,239.25C523.964478,238.5625,524.674988,238,525.5,238C527.431458,238,527.404053,238.200836,524.891418,242.459503C523.350769,245.070663,523.070313,246.379822,523.850342,247.319641C524.628845,248.257721,524.387512,249.477982,522.958923,251.827148C520.513489,255.848373,520.520569,256,523.154968,256C525.179382,256,525.209656,256.11084,523.654968,257.828735C521.848694,259.824677,521.463623,262,522.916687,262C523.420837,262,524.039612,261.4375,524.291687,260.75C524.627869,259.833099,525.064575,259.794556,525.930359,260.605347C527.16571,261.762207,526.4104,267,525.00824,267C524.58197,267,523.984924,267.949738,523.681335,269.110535C523.282715,270.634888,523.666931,271.361664,525.064697,271.727173C527.265991,272.302826,527.45752,273.276581,525.930603,276.129669C525.193237,277.507446,525.182007,278.514343,525.894348,279.372711C526.635071,280.265228,526.395569,281.073029,525.048279,282.226654C524.014709,283.111633,522.906006,283.647675,522.584534,283.417847C522.263062,283.188019,522.201294,283.276306,522.447327,283.613983C522.693359,283.951691,521.072266,286.694855,518.84491,289.70993C515.512268,294.221191,514.769043,296.060028,514.647583,300.094849C514.566406,302.791473,514.275024,304.999207,514,305.000885C513.724976,305.002594,513.40564,306.353088,513.290283,308.001984C513.060974,311.279236,514.306946,311.835938,516.642883,309.5C518.856995,307.285889,520.077759,307.65567,519.118835,310.25C518.661438,311.487488,518.462524,312.994965,518.67688,313.599915C518.891235,314.204865,518.403381,315.250275,517.592773,315.923035C516.782104,316.595795,516.343384,317.731293,516.617798,318.446381C516.892212,319.161438,515.770325,321.869568,514.124695,324.464386C512.479126,327.059235,511.376007,329.816284,511.67334,330.591156C512.027283,331.51355,511.523407,332,510.213989,332C507.958679,332,506.430817,334.830811,507.895538,336.295563C508.510376,336.91037,508.465302,337.883301,507.770508,338.99585C506.607025,340.858917,507.31424,344,508.897186,344C509.425171,344,510.564301,343.292847,511.428558,342.428558C512.857117,341,513,341.08432,513,343.355988C513,344.781738,511.99942,346.641907,510.670044,347.687592C509.38858,348.695587,508.526093,350.078247,508.753387,350.760162C508.980682,351.442078,508.589172,352,507.883331,352C506.934143,352,506.892365,352.292358,507.7229,353.122894C508.553406,353.9534,510.037537,353.441467,513.422913,351.156708C518.367371,347.819702,520.09668,349.205597,515.5,352.82135C514.125,353.902924,513,355.285583,513,355.893921C513,357.549561,515.975525,357.227417,516.638367,355.5C516.954956,354.674988,517.62439,354,518.126038,354C519.305664,354,518.181763,358.828613,516.302551,361.834564C514.996338,363.92395,515.030457,364.37616,516.627136,366.140503C518.095825,367.763336,518.196594,368.455597,517.197144,370.055939C516.229248,371.605743,516.245789,372,517.278748,372C517.991333,372,518.642944,372.909729,518.726685,374.021606C518.810425,375.133514,518.461365,375.785126,517.950928,375.469666C517.440491,375.154236,517.296021,375.60791,517.629883,376.477875C518.031433,377.524353,518.906982,377.846924,520.217163,377.431091C521.91687,376.891632,522.098267,377.135376,521.497742,379.151276C521.112915,380.443085,520.082458,382.0625,519.207886,382.75C518.333313,383.4375,517.959412,384,518.376953,384C518.794556,384,518.197388,385.31842,517.049988,386.92981C515.884827,388.566132,515.382751,390.11853,515.912781,390.446106C516.434753,390.768677,517.14447,390.575287,517.489929,390.016327C517.835388,389.457336,518.821594,389,519.681458,389C520.957764,389,521.016296,389.275452,520,390.5C519.001831,391.702698,519.025574,392.325867,520.11969,393.644257C521.332764,395.105896,521.235291,395.209442,519.242188,394.576843C517.170166,393.91922,517,394.173859,517,397.932617C517,401.127533,517.375366,402.006836,518.75,402.031799C520.328369,402.060486,520.344299,402.183075,518.912231,403.281799C518.03894,403.951813,517.513977,405.0625,517.745544,405.75C517.977173,406.4375,517.454163,407,516.583313,407C515.712524,407,515,407.641998,515,408.426666C515,409.211334,514.212524,410.059143,513.25,410.310669C511.907501,410.661499,511.860748,410.795013,513.049194,410.884003C514.216614,410.971405,514.497681,411.862488,514.189819,414.5C513.939697,416.642303,514.211548,418,514.890564,418C515.500793,418,516,418.498138,516,419.106995C516,419.71582,515.325012,419.954956,514.5,419.638367C513.470581,419.243347,513,419.698914,513,421.090393C513,422.205597,512.549988,422.839905,512,422.5C511.450012,422.160095,511,422.30603,511,422.824341C511,423.342651,509.987488,424.091919,508.75,424.48938C506.844482,425.101349,506.767944,425.283539,508.25,425.679321C509.212494,425.93634,510,426.788666,510,427.573334C510,429.0466,509.107117,429.350189,505.25,429.188446C504.012512,429.136566,503,429.5495,503,430.106079C503,430.662659,503.450012,430.839905,504,430.5C505.456909,429.599579,505.227234,432.576141,503.75,433.739655C503.0625,434.281189,501.232605,435.027344,499.683563,435.397827C497.770203,435.855469,496.970581,436.608795,497.189819,437.747192C497.36731,438.668854,496.554047,440.457184,495.382507,441.721283C493.607452,443.636597,492.460358,447.164276,491.552399,453.5C491.401367,454.553833,490.548767,454.556763,487.868744,453.512665C486.520203,452.987305,486.227234,453.61911,486.178375,457.15799C486.145874,459.512451,486.597565,462.015076,487.182098,462.719421C487.987213,463.689514,487.746796,464,486.190552,464C485.056274,464,483.193848,462.676605,482.032166,461.045166C479.781311,457.884125,477,457.873077,477,461.025208C477,463.759521,475.902985,466.058075,474.895203,465.435242C474.08371,464.933716,473.579163,466.334778,473.881592,468.25C473.946716,468.662506,473.362488,469,472.583344,469C471.804169,469,470.955505,469.5625,470.697418,470.25C470.421783,470.984222,469.832001,470.489136,469.268066,469.05014L468.307983,466.600311L466.539001,469.30014C464.65274,472.178925,460.614716,473.167572,461.638367,470.5C462.414063,468.478607,461.39093,468.60907,459.1875,470.8125C458.190613,471.809387,457.553131,473.159363,457.770844,473.8125C458.157318,474.971924,457.57431,475.189362,453.519318,475.398071C452.380615,475.456665,450.943695,476.736145,450.139038,478.407959L448.739441,481.315918L447.405151,478.907959C446.671295,477.583588,446.054932,475.760651,446.035431,474.856995C445.998444,473.141235,443,471.337891,443,473.031372C443,473.564117,441.923157,474,440.606995,474C439.290833,474,437.994324,474.572418,437.72583,475.272064C437.457367,475.97168,436.006927,476.645966,434.502625,476.770477C432.272552,476.955048,431.85791,476.651306,432.256958,475.125427C432.684052,473.492249,432.285126,473.315613,429.123169,473.737946C427.130432,474.004089,425.254486,474.612152,424.954437,475.089172C424.194305,476.297607,413.242157,476.842163,412.126984,475.726959C411.577301,475.177307,410.351715,475.276581,409.043427,475.976746C407.364746,476.875153,406.525635,476.851196,405.344757,475.871155C404.504669,475.17395,402.283447,474.706818,400.408691,474.833099C396.552032,475.092834,395.786652,473.070496,398.655731,470.201416C400.196716,468.660431,400.149872,468.507507,397.979889,467.995239C395.11618,467.319214,394.147125,465.036682,396.666656,464.902039C397.674988,464.848145,395.576569,464.229828,392.00351,463.528015C388.43042,462.826172,384.942932,462.468414,384.25351,462.732971C383.564087,462.997528,383,462.818176,383,462.334381C383,461.850616,381.387451,460.586395,379.416565,459.524994C376.191437,457.788147,376.003998,457.470245,377.541992,456.345642C378.504761,455.641632,378.991486,454.420227,378.656799,453.548035C378.330078,452.696625,378.525208,452,379.090393,452C381.89035,452,378.447296,450.19458,373.562683,449.10144C367.456116,447.734863,365.311676,446.008545,369.690979,445.98468C371.788208,445.973267,372.132019,445.736572,371.04776,445.050659C370.248993,444.54538,369.259094,444.339874,368.847931,444.593994C368.038483,445.094238,365.439148,440.97998,365.787537,439.75C365.904388,439.337494,365.549988,439,365,439C364.450012,439,364,438.401031,364,437.668976C364,436.93692,362.882446,435.739868,361.516571,435.008881C360.150696,434.277863,358.783539,432.893402,358.478516,431.932281C358.173462,430.97113,357.265991,429.932312,356.461945,429.623779C354.674011,428.937683,354.535767,426.353973,356.25,425.662292C357.25,425.258759,357.25,425.14212,356.25,425.078949C355.5625,425.035522,355,424.549988,355,424C355,422.703064,351.296936,419,350,419C349.450012,419,348.989777,418.4375,348.977295,417.75C348.964813,417.0625,347.531006,415.798645,345.791107,414.941467C342.289673,413.2164,340.954437,411,343.416656,411C347.034698,411,342.961548,406.748993,338.458313,405.825134C337.289673,405.585388,336.564026,404.684998,336.658783,403.592255C336.794128,402.031555,336.256226,401.836426,333.016571,402.270966C330.925995,402.551361,327.929535,403.719116,326.357758,404.865967C324.78598,406.012817,321.107849,407.554749,318.184082,408.292511C312.631378,409.693665,306.522797,409.00351,297.383362,405.942505C292.536469,404.319153,283.157043,403.995605,280.5,405.360107C279.399994,405.925018,275.870667,406.705963,272.657074,407.095551C268.46048,407.604309,266.06546,408.506226,264.157074,410.296478C261.331207,412.947388,255.112808,416.018677,248.208496,418.173492C245.893814,418.895905,244,419.810059,244,420.204926C244,420.599823,242.134888,421.42514,239.855286,422.038971C237.575699,422.652802,234.763199,424.300354,233.605286,425.700165C232.447388,427.100006,230.037506,429.780151,228.25,431.656006C224.888107,435.184082,224.739883,435.789917,224.979584,445.023193C225.058441,448.060944,224.581604,451.885956,223.919952,453.523193C222.697235,456.548737,222.065231,462.835663,221.70192,475.587097C221.515945,482.114471,221.771317,483.101746,224.935257,488.087097C231.117889,497.828979,232.268707,500.629395,231.036026,502.932709C229.334518,506.111969,217.347961,505.846497,210.5,502.477875C205.134415,499.83844,201.526337,499.339355,200.446152,501.087128C200.07663,501.685028,198.858154,501.934662,197.738449,501.641846C196.618744,501.34906,194.41954,501.366089,192.851318,501.679749C190.706451,502.108704,190,502.82074,190,504.553558C190,507.114563,187.603043,510,185.475632,510C184.71579,510,182.988342,509.496185,181.636856,508.880402C179.674698,507.986389,178.713699,508.087128,176.867294,509.380402C175.59552,510.271179,173.500534,511,172.211746,511C170.922974,511,169.039169,511.443848,168.025513,511.986359C167.011856,512.528809,162.823471,513.250122,158.717987,513.589172C152.426498,514.108826,150.506409,513.875244,146.499619,512.102844C143.884995,510.946289,140.873383,510,139.807144,510C138.740891,510,137.031265,509.55191,136.00795,509.004242C133.46286,507.642181,126.012177,511.461639,119.5,517.466797C116.75,520.002686,113.375,522.685181,112,523.427856C110.625,524.170532,107.727852,525.722717,105.561897,526.877197C103.395943,528.031616,101.168449,529.43158,100.6119,529.988098C100.055359,530.544617,97.657722,531,95.283821,531C91.248398,531,90.863182,530.756042,89.36174,527.25z"/>
    <path transform="matrix(-0.26455,0,0,-0.26455,-1062.078735,-696.199341)" style="stroke:#000000;stroke-width:0.05mm;fill:none" d="M341,402.606995C341,402.390839,340.325012,401.954956,339.5,401.638367C338.674988,401.321777,338,401.498657,338,402.031372C338,402.564117,338.674988,403,339.5,403C340.325012,403,341,402.823151,341,402.606995z"/>
    <path transform="matrix(-0.26455,0,0,-0.26455,-1062.078735,-696.199341)" style="stroke:#000000;stroke-width:0.05mm;fill:none" d="M507,350C507,349.450012,506.549988,349,506,349C505.450012,349,505,349.450012,505,350C505,350.549988,505.450012,351,506,351C506.549988,351,507,350.549988,507,350z"/>
    <path transform="matrix(-0.26455,0,0,-0.26455,-1062.078735,-696.199341)" style="stroke:#000000;stroke-width:0.05mm;fill:none" d="M357,227C357,226.449997,356.523438,226,355.940979,226C355.358521,226,355.160095,226.449997,355.5,227C355.839905,227.550003,356.316467,228,356.559021,228C356.801544,228,357,227.550003,357,227z"/>
    <path transform="matrix(-0.26455,0,0,-0.26455,-1062.078735,-696.199341)" style="stroke:#000000;stroke-width:0.05mm;fill:none" d="M499,437.416656C499,436.545837,499.534363,436.011444,500.1875,436.229156C502.041718,436.847229,502.349274,439,500.583344,439C499.712494,439,499,438.287506,499,437.416656z"/>
</svg>
