<?xml version="1.0" encoding="UTF-8"?>
<svg xmlns="http://www.w3.org/2000/svg" width="187.743mm" height="762.235mm" viewBox="-1108.500000 -913.370239 187.742737 762.235168">
    <path transform="matrix(-0.775119,0,0,-0.775119,-875.84021,-145.226044)" style="stroke:#000000;stroke-width:0.05mm;fill:none" d="M152.5,989.902771C139.477371,988.05072,138,986.809692,138,977.722534C138,973.509766,137.457809,970.670959,136.351563,969.091553C135.130859,967.348755,134.576752,963.669983,134.216156,954.914246C133.805084,944.933105,134.008667,942.501526,135.522568,939.311157C137.189316,935.798767,137.265198,932.917847,136.597229,898.51593C136.201935,878.157166,135.507263,834.275024,135.053543,801C134.258102,742.6651,134.15062,740.267395,132.05014,734C127.821259,721.381836,121.393112,713.518433,105.499298,701.520874C76.775597,679.838623,62.765228,652.739807,59.029293,611.638672C57.641342,596.36908,57.56575,174.060776,58.938339,103.5C60.3036,33.315773,61.675571,26.373499,75.681145,18.780207C84.218666,14.15149,99.380356,11.311621,127.817848,9.014712C152.953156,6.984523,213.674896,7.216009,230.5,9.406161C232.699997,9.692539,236.524994,10.159676,239,10.444242C279.081482,15.052665,288.510071,18.238876,294.018738,29.036751C296.71579,34.323372,298.736115,47.681808,299.523315,65.432976C300.368805,84.498238,300.373444,400.621124,299.529877,513C299.17688,560.025024,298.44696,603.674988,297.907806,610C294.301941,652.301392,279.897064,680.441284,250.574402,702.465454C244.280304,707.192932,237.075684,713.346436,234.564148,716.139893C228.981232,722.349426,224.528656,731.445923,223.052353,739.658142C222.385651,743.366821,221.770782,765.641296,221.506531,795.658142C221.265198,823.071167,220.546585,866.081177,219.909622,891.235901C218.8526,932.979614,218.89328,937.188171,220.375748,939.450745C222.557266,942.78009,222.649536,963.239807,220.5,967C219.700409,968.398743,219.055267,972.21936,219.035431,975.673279C219.006088,980.786133,218.565918,982.362427,216.472961,984.849731C215.083099,986.501526,212.720596,988.086975,211.222961,988.372925C206.180038,989.335999,201.984726,990.102112,192.434738,990.523743C172.646652,991.397339,160.246216,991.004456,152.5,989.902771z"/>
</svg>
