<?xml version="1.0" encoding="UTF-8"?>
<svg xmlns="http://www.w3.org/2000/svg" width="205.209mm" height="162.019mm" viewBox="-1299.418457 -619.825195 205.208862 162.018555">
    <path transform="matrix(-0.26462,0,0,-0.26462,-1090.774658,-455.087219)" style="stroke:#000000;stroke-width:0.05mm;fill:none" d="M771.619324,621.988281C759.414124,618.237671,759.680054,600.317444,771.98999,597.002686C781.940125,594.323425,790.707886,603.230713,787.950439,613.217224C786.972046,616.760803,782.055298,621.985962,779.673279,622.013672C779.027954,622.021179,777.599976,622.217712,776.5,622.450439C775.400024,622.683167,773.203674,622.475159,771.619324,621.988281z"/>
    <path transform="matrix(-0.26462,0,0,-0.26462,-1090.774658,-455.087219)" style="stroke:#000000;stroke-width:0.05mm;fill:none" d="M778.201172,613.692749C779.729065,615.156555,781.288513,616.0448,781.666687,615.666687C782.0448,615.288513,781.156555,613.729065,779.692749,612.201172L777.031311,609.423218L779.712646,606.741943C782.938721,603.515808,781.9776,601.732971,778.68158,604.829407C777.410828,606.023254,775.979126,607,775.5,607C775.020874,607,773.589172,606.023254,772.31842,604.829407C769.199341,601.89917,768.051392,603.361328,771.003723,606.503967L773.348633,609L771.069519,611.425964C767.805664,614.900269,769.477173,616.977356,772.8349,613.619629L775.423218,611.031311L778.201172,613.692749z"/>
    <path transform="matrix(-0.26462,0,0,-0.26462,-1090.774658,-455.087219)" style="stroke:#000000;stroke-width:0.05mm;fill:none" d="M161.706955,586.46698C155.198929,584.07843,151.953064,580.999329,145.49968,571.092102C129.254669,546.152954,117.701363,515.291199,110.462837,477.5C106.769844,458.219482,111.082642,420.707825,118.107269,411.01062C121.171005,406.78125,126.803864,402.738403,131.114655,401.674896C136.260437,400.405396,143.221527,394.675781,145.906357,389.5C153.178604,375.480652,145.028168,346.058167,128.50946,326.698334C121.816429,318.854126,116.722641,315.098358,102.601669,307.595825C94.653572,303.372955,93.541573,303.029846,92.188599,304.382843C90.835625,305.735809,90.857155,306.890839,92.390236,315.198792C95.069016,329.715424,95.364357,333.950684,93.889984,336.705566C91.353615,341.444824,84.105591,343.372131,78.472061,340.805328C73.703217,338.632477,71.506645,331.104919,74.26474,326.387024C74.944138,325.224884,76.958275,321.849884,78.740616,318.887024C84.087845,309.998077,82.601563,304.106079,73.728401,299.017273C64.36528,293.647491,59.859695,295.510498,52.933853,307.615601C50.619133,311.661316,48.747829,313.625244,46.188847,314.694458C41.746883,316.550415,35.159687,315.700043,31.464794,312.79364C29.211332,311.021088,28.877226,310.143982,29.348707,307.238586C30.526991,299.977692,33.606045,297.648865,46.21299,294.483459C54.786526,292.33078,58,289.505493,58,284.120331C58,275.723419,48.843037,273.473907,37.160213,279.000793C29.521019,282.614716,23.075975,282.9534,18.225075,279.995789C9.264369,274.532471,12.405597,260,22.547216,260C24.633816,260,29.629702,261.526764,34,263.5C45.907631,268.876434,50.169399,268.121918,54.94672,259.791443C57.281311,255.72049,57.983395,253.267014,57.990616,249.154373C58.002758,242.237244,55.811443,239.147995,46.791706,233.366486C41.197914,229.78096,39.458729,228.030609,37.828918,224.346146C35.05418,218.073395,35.952663,212.252899,40.428238,207.507416C43.240158,204.525909,44.393192,204.002472,48.118076,204.016449C53.793541,204.03775,59.795998,207.46405,62.104286,212C63.083897,213.925003,64.31234,219.469009,64.834152,224.320007C65.596138,231.403671,66.247223,233.63559,68.141457,235.657333C71.56884,239.31543,76.61499,241.117584,84,241.320984C93.43602,241.580856,95.845337,239.57933,100.472969,227.636078C105.315369,215.138535,108.929321,211.5,116.5,211.5C121.295876,211.5,122.283089,211.88205,125.470711,214.971619C130.020172,219.381119,131.664932,224.4552,130.090851,229.224731C128.575943,233.814926,125.980247,236.097855,117.244041,240.523529C108.323112,245.042786,107.742546,246.540161,111.776314,254.62561C113.388191,257.856537,115.524178,262.677094,116.522957,265.337982C117.521736,267.998871,119.352989,270.840393,120.592407,271.652496C122.667236,273.011993,144.771088,282,146.039566,282C146.345459,282,149.25563,276.487488,152.506607,269.75C163.266541,247.450562,172.75856,232.895035,185.339294,219.40274C203.900421,199.496719,228.663879,186.625122,257.5,181.894928C261.350006,181.263397,275.601074,180.466171,289.169037,180.123337C302.737,179.780502,314.186951,179.15004,314.613373,178.722305C316.769897,176.559219,310.555054,159.135101,305.438721,153C302.939056,150.002625,294.783325,132.866028,293.421082,127.74894C290.940765,118.431938,292.012878,109.620804,296.342865,103.736168C298.770416,100.437019,304.517059,96.787315,310.742767,94.590759C314.855774,93.139603,334.180237,89.962387,353.21347,87.607971C362.484985,86.461082,365.027313,85.693993,363.759338,84.426003C363.443634,84.110306,357.827942,83.885422,351.279999,83.926262C339.540802,83.999474,339.338745,83.962128,336.799683,81.250252C333.360748,77.577263,332.682251,74.893715,333.976898,70.085777C336.200287,61.828712,344.529724,60.463814,353.878693,66.824577C359.968353,70.967812,364.872406,73,368.781189,73C372.263397,73,377.524536,69.505371,379.949585,65.581558C383.92569,59.148083,382.032593,53.396473,373.99762,47.498257C366.740112,42.170753,364,38.212696,364,33.05682C364,22.157181,379.488434,18.30868,384.483063,27.967266C385.421051,29.781139,386,33.610142,386,38C386,48.218784,389.6409,54,396.076477,54C399.338257,54,403.952362,49.878624,404.139771,46.797749C404.462708,41.489391,403.681549,36.422924,401.899078,32.264587C398.338074,23.957052,400.171478,16.890434,407.247986,11.648198C410.799652,9.017138,414.530609,10.179737,417.719055,14.911085C420.846344,19.551653,420.766876,26.767855,417.5,34.80772C416.08194,38.297611,415,42.95961,415,45.580128C415,49.47625,415.518616,50.718609,418.310394,53.510403C422.736176,57.936161,428.97583,59.642956,435,58.075672C438.549133,57.152306,440.873444,55.453159,446,50.03434C453.073669,42.557388,457.993958,40.213478,464.179718,41.37394C469.052673,42.288109,474.790314,47.365314,475.554626,51.439556C476.408173,55.989269,473.213257,62.998783,468.876068,66.092148C465.788605,68.294159,464.660645,68.479454,455.681702,68.259644C444.583069,67.987946,441.613617,68.975647,437.675446,74.248947C431.56665,82.428764,431.199524,94.234596,436.91333,98.755356C437.786011,99.445801,441.560486,101.651123,445.301086,103.656067C449.041656,105.661011,453.654175,109.114601,455.551086,111.330704C458.480835,114.753471,459,116.108856,459,120.334831C459,124.836533,458.620239,125.670944,455.006897,129.108231C446.406036,137.290024,435.561798,134.51236,431.533813,123.095802C430.690216,120.704811,430,117.701294,430,116.421326C430,112.815308,427.876984,109.007225,425.53952,108.420563C424.374847,108.12825,422.089508,108.409058,420.460968,109.044594C418.832428,109.680122,413.290894,111.717407,408.146454,113.571892C403.001984,115.426384,395.935486,118.541649,392.443085,120.494713C386.002258,124.096619,374,134.624619,374,136.672394C374,137.287903,376.362488,139.271179,379.25,141.079666C393.324615,149.894791,406.407135,162.177643,417.197876,176.707977C422.83667,184.300888,424.690643,186.097748,427.768036,186.952393C429.820618,187.522446,431.987366,187.991348,432.583008,187.994431C435.509766,188.009491,452.870483,194.353546,460.890747,198.338791C478.805969,207.240814,492.718475,217.269791,530.5,248.517426C565.461731,277.432861,603.49408,302.004211,626,310.216492C647.590454,318.094727,670.162781,316.003235,694.837708,303.838165C728.757141,287.115387,749.574341,259.602753,759.509277,218.366226C762.723633,205.024338,771,163.706772,771,161.001663C771,159.900742,771.450012,159,772,159C772.549988,159,773,159.227402,773,159.505341C773,159.783279,774.348877,166.37413,775.997498,174.151703C779.822815,192.197861,779.973022,194.451187,778.953186,218.5C777.780823,246.144669,775.046814,257.841064,765.863342,274.5C753.61322,296.72171,732.271912,316.816528,708,328.983704C696.376038,334.810608,687.85321,337.921753,673.5,341.577515C663.46344,344.133789,660.8797,344.38385,644,344.432465C628.141785,344.478119,624.012573,344.152863,615.083618,342.154785C583.142273,335.007141,563.066528,326.40686,526.5,304.20636C460.444977,264.1026,458.896332,263.221436,445.205261,257.949463C427.958618,251.30838,420.750488,253.938644,415.447876,268.808044C412.713867,276.474579,405.29657,291.708588,401.879974,296.674438C395.534729,305.896973,387.0401,314.769196,378.360596,321.239349C368.025482,328.943695,365.581757,332.441864,365.575714,339.54071C365.570068,346.166473,367.963562,350.113556,376.162903,356.999939C387.967346,366.914124,396.693176,369.753418,401.272217,365.170197C403.236816,363.203827,403.500031,361.904907,403.500336,354.17572C403.500671,345.208862,404.767517,341.49707,408.924866,338.281799C412.583954,335.451874,418.161652,337.453094,419.288025,342C420.209137,345.718201,418.490112,351.870361,415.694305,354.861633C414.338013,356.312744,412.466492,359.008698,411.53537,360.852692C409.426422,365.029236,410.733917,368.954681,415.396545,372.444824C421.987671,377.37851,425.16394,376.756958,432.505035,369.096924C437.124939,364.276306,437.663788,364.000824,442.444855,364.01532C448.398346,364.033356,449.518433,364.603149,450.937592,368.335815C453.096588,374.014435,446.97345,379.397247,437.087494,380.511414C432.333649,381.04715,430.070374,381.838715,428.337494,383.571594C425.406036,386.503052,425.413788,387.754913,428.386292,391.470032L430.762634,394.440063L436.219208,392.720032C448.41333,388.87619,457.077637,391.481232,459.999237,399.869843C461.494781,404.16394,461.491272,404.180664,458.568573,406.694672C454.880402,409.867096,450.769165,409.484375,441.390411,405.09552C432.435608,400.90506,429.075562,401.010986,425.036591,405.611084C421.191589,409.990295,420,412.915741,420,417.976196C420,422.159454,422.911469,425.478058,428.676575,427.866028C432.127258,429.295349,435,433.682037,435,437.521942C435,441.383453,428.524841,447.623322,423.549011,448.556793C414.674988,450.221558,411.44516,446.010468,411.834106,433.282715C412.167236,422.381378,410.85556,419.837952,403.476715,417.077179C393.667816,413.407196,390.652405,414.576782,384.508362,424.434509C378.138855,434.653961,373.051697,437.016479,365.318085,433.346649C361.324066,431.451385,359.605316,427.917328,360.46051,423.358734L361.053741,420.196655L355.776855,419.603668C337.253235,417.522095,337.598816,417.499664,334.675507,420.973785C332.579559,423.464691,332,425.204163,332,429.00415C332,435.019928,334.101166,436.945129,344.116669,440.106049C354.489563,443.379791,358.312561,450.249176,352.365143,454.927429C347.118927,459.054108,339.008606,456.37262,334.365326,448.976196C328.744415,440.022522,324.002136,438.357269,321.458923,444.444092C319.882111,448.217896,320.246887,449.981995,323.538269,454.5C329.406433,462.555054,329.631561,478,323.880829,478C322.267548,478,318.21814,473.082092,315.916443,468.327362C314.282379,464.951843,313.883636,462.724854,314.281403,459.19577C314.86673,454.002716,313.140656,449.466644,310.260956,448.63028C309.29245,448.348969,305.940399,447.818726,302.812012,447.451935C297.623505,446.843597,296.905182,447.003906,294.631531,449.277588C293.26062,450.648468,291.613708,453.734314,290.97171,456.13504C290.186523,459.071259,288.357758,461.891113,285.384674,464.75C281.567963,468.420105,280.371857,469,276.618805,469C273.256378,469,271.676025,468.40332,269.636353,466.363647C266.510773,463.238037,266.322998,460.622528,268.91861,456.365845C270.879028,453.150787,276.897888,448,278.694366,448C281.27832,448,287.852173,441.949554,288.506866,438.96875C290.558777,429.626434,285.729889,421.678802,277.231598,420.411346C270.843781,419.458649,264.47583,416.616455,261.475433,413.378967C258.321472,409.97583,258.164673,404.835327,261.124542,401.875458C265.322632,397.677368,278.034485,401.423218,283.381989,408.434143C284.877869,410.395355,286.445526,412,286.865692,412C288.46579,412,291,404.730408,291,400.140381C291,396.414551,290.481384,394.86142,288.66861,393.158386C285.667175,390.338684,275.4711,388.432281,258.753204,387.564911C247.429962,386.977448,245.517883,387.119659,241.632248,388.83847C239.226471,389.902679,237.005692,391.181763,236.697189,391.680939C235.484131,393.643707,240.016388,400.849518,246.196762,406.78421C255.849335,416.05307,257.986328,420.644806,259.248444,434.828064C262.522949,471.62558,246.650574,521.187012,219.641739,558.5C205.28125,578.339172,199.671112,583.677429,190.143173,586.569153C184.132996,588.39325,166.785599,588.330933,161.706955,586.46698z"/>
    <path transform="matrix(-0.26462,0,0,-0.26462,-1090.774658,-455.087219)" style="stroke:#000000;stroke-width:0.05mm;fill:none" d="M366.315735,414.759186C367.51709,414.076752,370.931885,412.614227,373.904175,411.509186C376.876465,410.404144,379.760712,408.773468,380.313599,407.885498C383.328247,403.043701,369.87619,379.718079,361.76535,375.723145C359.969391,374.838562,352.649994,372.240479,345.5,369.949615C318.502106,361.2995,316.625793,358.838287,319.96405,336.453217C321.026459,329.328949,322.599335,319.674988,323.45929,315C326.764282,297.033264,327.397278,290.997253,326.111267,289.711273C325.423401,289.023407,322.220917,288.5,318.700012,288.5C310.169342,288.5,304.309235,291.558807,294.888123,300.929138C288.705414,307.078552,286.41214,310.28363,282.673676,318C276.657349,330.417999,273.238251,344.793152,275.908447,346.44342C276.408112,346.752228,281.695618,347.955292,287.658447,349.116913C299.847595,351.491486,304.879791,353.641388,307.457642,357.575714C308.427399,359.055725,310.798431,366.619141,312.726593,374.383331C317.581024,393.930511,321.327209,400.699921,330.769745,406.987427C336.12912,410.556061,337.866943,410.549561,347.515289,406.925079C356.398743,403.587891,360.803802,405.118347,361.707489,411.855865C362.303955,416.302917,362.917633,416.689545,366.315735,414.759186z"/>
</svg>
