<?xml version="1.0" encoding="UTF-8"?>
<svg xmlns="http://www.w3.org/2000/svg" width="261.876mm" height="617.224mm" viewBox="-985.863037 -854.396729 261.875793 617.224243">
    <path transform="matrix(-0.482516,0,0,-0.482516,-637.600708,-236.813782)" style="stroke:#000000;stroke-width:0.05mm;fill:none" d="M625.35791,1277.448853C623.122681,1275.213623,622.87793,1274.315796,623.381592,1270.198853C624.741272,1259.084473,625.660278,1238.961914,625.103333,1232.5L624.5,1225.5L620.975586,1225.203125C617.808777,1224.936279,617.13501,1225.354614,614.336182,1229.325439C610.063599,1235.386963,601.707764,1239.489746,593.622986,1239.495728C583.501526,1239.503174,583.723145,1235.953735,594.802246,1220.60791C599.126221,1214.618652,601.705505,1212.087036,605.5,1210.10791C609.152771,1208.202759,611.038879,1206.403809,612.5,1203.431763C613.599976,1201.194092,615.512512,1198.095947,616.75,1196.546875C617.987488,1194.997681,619,1192.976929,619,1192.056274C619,1191.13562,619.660706,1189.508789,620.468201,1188.441162C623.846619,1183.974487,622.391418,1177.571045,612.982056,1155.5C609.230469,1146.699951,605.835388,1138.150024,605.437439,1136.5C605.03949,1134.849976,603.707397,1131.474976,602.477173,1129C601.247009,1126.525024,599.02594,1120.675049,597.541565,1116C596.05719,1111.324951,593.311951,1103.675049,591.441101,1099C586.954224,1087.788086,576,1054.342407,576,1051.855103C576,1050.780151,575.384338,1048.685547,574.631836,1047.200317C571.520386,1041.059204,561.07666,999.327026,559.941711,988.5C559.307495,982.450012,557.70813,974.064819,556.387573,969.866333C555.066956,965.667786,553.756775,960.042786,553.476074,957.366333C552.521851,948.268188,551.875854,944.506531,550.493713,940C548.90155,934.808716,547.716492,927.128906,545.481323,907.517273C544.474426,898.6828,543.144836,891.871338,541.870117,889.017273C540.594482,886.161194,539.732422,881.741943,539.525879,877C539.335999,872.639038,538.320557,867.103882,537.09967,863.774963C535.944824,860.626221,535,857.059082,535,855.848022C535,851.663513,527.236023,837.357849,522.994751,833.727478C520.469116,831.565674,519.170227,829.71991,519.524658,828.796387C520.55127,826.120972,517.879211,825.043152,513.269836,826.273499C510.956085,826.891052,508.727264,827.060608,508.316895,826.650208C507.554993,825.888306,507.69574,825.627502,511.948517,819.9198C513.971619,817.20459,514.082581,816.754333,512.587158,817.328186C511.232758,817.8479,510.923279,817.642334,511.357269,816.511353C512.08667,814.610535,511.635559,814.619995,507.835449,816.585083C503.654388,818.747192,502.188019,817.183167,504.587616,813.120972C506.742828,809.472473,505.823151,807.945068,503.006134,810.494446C500.664795,812.613342,500.350769,811.371887,502.464691,808.353882C504.34964,805.66272,503.33728,804.65033,500.646118,806.535278C497.599792,808.669067,496.697388,808.341797,497.442383,805.373535C497.972351,803.262024,497.797516,802.863708,496.550812,803.342163C495.39563,803.7854,495,803.276184,495,801.346191C495,799.039612,494.814758,798.905823,493.312775,800.127563C491.810913,801.349243,491.715179,801.280273,492.441376,799.5C493.925232,795.862305,494.248566,793,493.175598,793C492.593933,793,491.839905,793.450012,491.5,794C490.310852,795.924072,488.895935,795.062988,489.964813,793.065735C491.280151,790.608032,491.298279,788,490,788C489.450012,788,489,788.674988,489,789.5C489,790.325012,488.549988,791,488,791C487.450012,791,487,790.3349,487,789.521912C487,788.708984,485.424988,784.67981,483.5,780.568176C481.575012,776.456543,480,772.645508,480,772.099182C480,771.552795,478.875,768.98999,477.5,766.403992C476.125,763.817932,475,760.869141,475,759.851074C475,758.833008,474.325012,758,473.5,758C472.403503,758,471.997375,756.85675,471.990234,753.75C471.977936,748.395874,469.332672,742.720337,459.522583,727C445.591461,704.675781,435.554047,694.010559,416.41214,681.193298C405.256012,673.723206,401.387543,671.692078,373.483063,658.653198C353.470612,649.302002,347.441071,647.00116,342.94635,647.000488C334.178711,646.999268,322.940277,637.658386,315.660034,624.321411C313.548065,620.452332,307.327667,611.709717,301.836975,604.893372C289.400391,589.454163,285.651489,583.136902,278.459442,565.5C270.881256,546.916199,269.104279,541.646606,268.005798,534.5C267.498566,531.200012,266.193756,524.224976,265.106262,519C260.683929,497.752502,259.963989,486.612762,259.506958,432.361328C259.266388,403.805389,258.611145,376.39502,258.050903,371.449402C256.615692,358.779907,251.872894,343.793121,244.142441,327.5C236.578888,311.558594,236.538406,311.261719,238.895538,289.017853C239.623032,282.152679,239.990463,272.477692,239.712067,267.517853C238.642746,248.467499,231.220123,203.775681,225.010605,179C223.976761,174.875,222.865875,168.856079,222.541977,165.624619C222.218063,162.393173,220.158585,154.304749,217.965347,147.65036C215.772095,140.995972,213.237305,132.83989,212.332458,129.525742C211.427612,126.211586,210.195145,122.871437,209.593643,122.103188C208.992142,121.334938,207.320663,117.509941,205.879242,113.603188C200.203445,98.219795,190.837555,77.294113,187.757645,73.115143C185.088394,69.493378,185.596786,65.845757,189.462372,60.884121L192.924728,56.440022L190.59259,49.084316C188.880142,43.683174,187.570541,41.310009,185.664124,40.153259C183.059799,38.573048,182.347824,37.209057,179.926773,29.161715C177.923767,22.503891,177.889633,22.536777,195.174835,14.476961C205.732468,9.554102,218.77507,4.996766,222.280899,5.005577C227.580215,5.018895,231.537903,6.937416,232.718552,10.065317C233.733566,12.754395,233.485779,14.299178,230.831375,21.830421C229.150787,26.59869,226.926224,32.169575,225.887878,34.210163C222.135345,41.584827,224.152771,76.820793,229.553604,98.234901C230.349121,101.389099,231,105.094795,231,106.469788C231,107.844788,232.072388,112.689079,233.383102,117.234886C234.693802,121.780701,236.085327,127.974998,236.475403,131C236.865463,134.024994,238.239883,140.324997,239.529663,145C240.819443,149.675003,242.830109,158.675003,243.997818,165C247.898712,186.129517,256.0336,222.342285,260.171997,237C264.168335,251.154602,266.543732,257,268.299347,257C269.351624,257,268.635681,234.512772,267.472137,231.018982C266.646912,228.540939,266.649048,228.540024,269.278748,230.263077L271.911591,231.988174L272.584412,228.401672C272.954468,226.429108,272.872101,221.81926,272.401367,218.157593C271.163055,208.525314,271.542938,200.485367,273.475403,195.425247C276.297729,188.03508,280.299011,190.260284,282.99173,200.717499L283.965729,204.5L283.483398,200.5C283.218109,198.300003,282.723358,195.487503,282.383911,194.25C282.044464,193.012497,282.203674,192,282.737701,192C283.271729,192,284.735107,195.457565,285.989624,199.683487C288.027985,206.549713,288.184937,208.437714,287.46524,217.433487C286.283356,232.205902,286.39209,246.924271,287.783417,260.5C289.337463,275.663635,292.361298,291.842438,293.344116,290.252228C294.441467,288.476685,298.636444,267.063232,300.152191,255.5C302.943329,234.207321,301.114166,163.373764,296.988586,132.992004C296.429047,128.871399,294.645325,115.113121,293.02475,102.418045C291.404205,89.722977,289.625488,78.14518,289.072083,76.689621C288.518707,75.234062,287.762573,69.351486,287.391846,63.617222C286.642029,52.019234,286.360199,52.664261,295.064758,46.05648C300.003296,42.307571,302.27124,36.102901,302.931366,24.535215C303.496124,14.638295,303.522308,14.555431,306.774719,12.368218C310.396606,9.93254,314.370148,9.457752,339.75,8.428108C351.801727,7.939177,355,8.078066,355,9.090356C355,9.794868,353.259338,12.435608,351.131866,14.958668C349.004395,17.481728,346.114288,21.814331,344.709442,24.586674C343.14325,27.677416,339.979401,31.418514,336.530609,34.257751C328.642426,40.751732,322.048859,48.342865,320.940918,52.206059C319.72702,56.438614,319.744232,71.528069,320.978851,85.5C321.513458,91.550003,322.152893,107.074997,322.399841,120C322.646759,132.925003,323.535522,149.800003,324.374878,157.5C325.214233,165.199997,326.823029,183.875,327.950043,199C331.010681,240.075851,331.630219,245.044235,335.930664,263C341.57843,286.581146,345.224396,298.159271,351.585571,312.71405C354.659058,319.746307,362.712646,338.804047,369.482452,355.064545C383.208862,388.034241,386.645264,395.237396,396.898224,412.531647C400.811737,419.132782,405.171936,428.087616,406.621033,432.5C408.066071,436.899994,409.604187,440.889191,410.039093,441.364899C410.473969,441.840607,411.568542,440.801208,412.471466,439.055176C415.497986,433.202545,420.888855,428.197632,425.992126,426.502625C430.800171,424.90564,430.908569,424.917206,434.929596,427.455566C437.168335,428.868805,439.076965,430.806946,439.171051,431.762543C439.265106,432.71814,439.410736,434.399994,439.494659,435.5C440.358856,446.828125,442.90979,452.674805,448.686676,456.567841C451.27948,458.315125,453.963745,458.798248,464.110687,459.343842C470.867401,459.707153,476.724945,459.665894,477.127472,459.252197C479.1922,457.130066,481.597626,418.746307,482.599152,371.939819C483.353241,336.697632,482.414612,318.614288,478.963043,301.886414C476.595398,290.411774,476.533051,285.126648,478.628204,273.5C482.108276,254.188126,480.674438,198.940033,475.449005,151C474.100128,138.625,472.08905,116.574997,470.979889,102C469.562927,83.379898,468.489288,74.492569,467.369263,72.11203C465.5625,68.271942,465.83609,63.033012,468.478027,50.880985L470.13446,43.261971L467.06723,33.880985C465.38028,28.721443,464,24.144278,464,23.709507C464,23.274736,463.042145,21.62343,461.871399,20.039936C458.677795,15.72034,459.874084,12.887242,466.224823,9.729951C471.011566,7.350204,474.19989,6.205377,487.845673,1.966618C490.271393,1.213121,496.014893,0.67269,500.845673,0.743393C505.60556,0.813057,511.524994,0.895302,514,0.926159C516.474976,0.957016,521.569275,1.482273,525.320618,2.093396C533.47821,3.422326,534.713684,5.108088,530.14856,8.680831C528.41687,10.036099,527,11.603069,527,12.162986C527,13.422737,518.23053,23.959284,515.5,25.980301C508.547638,31.126108,506.46283,33.930813,504.596771,40.648476C503.549988,44.416813,502.059204,48.769825,501.283936,50.321835C500.262695,52.366238,500.171478,53.501709,500.952881,54.443237C502.586365,56.411469,501.231445,71.854088,498.362579,83.965431L495.883636,94.430862L497.039124,119.965431C497.674652,134.009445,498.376282,145.795273,498.598328,146.156158C498.820374,146.517044,499.467499,154.842041,500.036377,164.656158C502.227661,202.458252,509.294373,246.25589,515.375549,259.724426C520.895142,271.949036,523.25769,282.666565,522.585449,292.431488C520.265686,326.126801,521.016846,352.355591,524.941162,374.693787C525.985291,380.637207,527.129639,388.875,527.48407,393C528.43103,404.018677,532.77771,428.957214,534.455933,433C535.255005,434.924988,536.836365,441.209503,537.969971,446.965576C539.103638,452.721619,540.446411,457.846436,540.954041,458.354034C541.517883,458.917877,543.018738,458.135101,544.811951,456.341858C549.049744,452.104065,550.09552,445.86676,550.988831,419.5C551.41748,406.850006,552.484985,386.375,553.361145,374C554.237305,361.625,555.436584,338.225006,556.026184,322C557.258362,288.09375,560.251465,258.1875,565.033569,232C566.990784,221.281784,567.791077,215.057297,573.069275,169.5C575.57312,147.888397,576.155823,138.436462,576.521362,113.5C576.763184,97,577.248047,81.699997,577.598816,79.5C578.411011,74.40519,580.331726,70.642273,585,65C592.556274,55.867184,593.819031,50.679279,589.992676,44.488106C587.708618,40.7925,586.340454,36.156029,585.296875,28.575552C584.572571,23.313995,586.47644,22.009485,594.941101,21.967354C598.855835,21.947868,603.717285,21.14143,607,19.966959C611.257874,18.4436,616.358398,17.852543,629.584961,17.349775C646.55072,16.704874,652,17.116163,652,19.041569C652,20.571003,637.490356,35.282558,628.586243,42.781193C619.21698,50.67149,615,58.228516,615,67.128258C615,72.589081,613.513184,81.410019,609.543518,99.5C608.215881,105.550003,606.608032,113.875,605.97052,118C605.333008,122.125,603.973022,130.225006,602.948303,136C601.923645,141.774994,600.601379,153.25,600.009949,161.5C599.418579,169.75,598.28894,181.225006,597.499634,187C594.531067,208.720367,591.902222,239.589111,592.5177,245.5C593.456787,254.519653,595.030151,264.090637,596.19458,267.867798C597.787964,273.036285,597.964905,298.341736,596.475159,308C595.754089,312.674988,594.889648,322.125,594.55426,329C593.778564,344.899231,595.434631,385.443573,597.393066,398.5C598.218018,404,599.59613,414.799988,600.455505,422.5C601.31488,430.200012,603.122375,440.100006,604.472046,444.5C605.821777,448.899994,607.548096,457.463654,608.30835,463.530304C609.264099,471.156769,610.555969,476.488739,612.49469,480.808746C615.15448,486.735626,615.26709,487.574677,614.68512,497.127563C614.264648,504.028992,614.51355,509.448608,615.475952,514.349121C617.168701,522.968323,624.81012,547.25531,629.52356,558.99707C634.142639,570.503784,637.382263,585.930664,636.664124,593C636.238281,597.191833,634.104675,602.54834,627.693787,615.520203C623.067383,624.881348,618.503723,635.64447,617.552246,639.438293C614.801331,650.407471,615.3526,684.993835,618.517578,700C619.271606,703.575012,620.83606,712.125,621.994202,719C623.152283,725.875,624.99408,735.230591,626.087036,739.790222C627.936646,747.506348,630.7995,767.000977,633.019958,787C634.853027,803.509766,635.342529,857.334473,633.979492,892.5C631.16156,965.198547,632.595642,986.442505,644.476624,1048C646.334351,1057.625,648.357239,1069.099976,648.972046,1073.5C649.586792,1077.900024,651.168762,1086.449951,652.487427,1092.5C653.806091,1098.550049,655.598511,1108.021606,656.47052,1113.548096C659.25592,1131.200928,659.985474,1133.248535,664.228455,1135.322021C668.699158,1137.506836,675.132019,1144.575562,677.953247,1150.40332C679.289856,1153.164429,680.012085,1156.69043,680.034912,1160.565674C680.096436,1171.036133,682.449402,1181.257202,685.892334,1186.010132C687.601563,1188.369629,689,1191.313599,689,1192.552246C689,1194.126099,689.853333,1195.101807,691.833313,1195.792114C694.385437,1196.681763,694.666687,1197.232056,694.666687,1201.336548C694.666687,1206.280762,695.886475,1208.340332,700.469788,1211.134888C704.738953,1213.737793,722.089172,1236.027588,721.763367,1238.490601C721.61853,1239.585449,720.19751,1241.103638,718.605591,1241.86438C716.096497,1243.063477,714.898193,1243.025879,709.605591,1241.582031C699.263977,1238.760986,693.90741,1235.60083,689.191284,1229.538574C686.821472,1226.49231,684.533875,1224,684.107666,1224C683.681519,1224,682.82959,1231.563721,682.214539,1240.80835C681.599487,1250.052856,680.624573,1258.857178,680.048096,1260.373413C679.47168,1261.889648,679,1265.295776,679,1267.942627C679,1270.602417,678.440857,1273.194214,677.75,1273.736816C675.615356,1275.41333,670.24054,1275.979858,667.043213,1274.865234C663.508667,1273.633057,663.234802,1272.745605,662.736694,1260.907837C662.43573,1253.75647,661.918396,1251.536377,659.651245,1247.667847C656.500183,1242.291016,653.276489,1240.933594,649.51355,1243.39917C648.153992,1244.290039,646.407227,1246.252075,645.631836,1247.759399C643.151184,1252.581543,640.000427,1264.076294,639.986328,1268.355347C639.965759,1274.594849,639.033508,1276.931274,635.922546,1278.540039C631.755066,1280.695068,628.241272,1280.332153,625.35791,1277.448853z"/>
    <path transform="matrix(-0.482516,0,0,-0.482516,-637.600708,-236.813782)" style="stroke:#000000;stroke-width:0.05mm;fill:none" d="M280.280487,215.800888L279.262756,210.5L279.131378,216.949997C279.03244,221.807999,279.28363,223.116379,280.149109,222.250885C280.986877,221.413116,281.022491,219.665512,280.280487,215.800888z"/>
    <path transform="matrix(-0.482516,0,0,-0.482516,-637.600708,-236.813782)" style="stroke:#000000;stroke-width:0.05mm;fill:none" d="M275.692993,206.269028C275.439453,205.296066,275.215332,205.850006,275.194946,207.5C275.174561,209.149994,275.382019,209.94606,275.655945,209.269028C275.929871,208.591995,275.946533,207.242004,275.692993,206.269028z"/>
    <path transform="matrix(-0.482516,0,0,-0.482516,-637.600708,-236.813782)" style="stroke:#000000;stroke-width:0.05mm;fill:none" d="M277,200C277,198.350006,276.549988,197,276,197C275.450012,197,275,198.350006,275,200C275,201.649994,275.450012,203,276,203C276.549988,203,277,201.649994,277,200z"/>
</svg>
