<?xml version="1.0" encoding="UTF-8"?>
<svg xmlns="http://www.w3.org/2000/svg" width="504.661mm" height="289.764mm" viewBox="-1085.531982 -751.671143 504.660522 289.763977">
    <path transform="matrix(-0.844862,0,0,-0.844862,-564.819092,-459.897888)" style="stroke:#000000;stroke-width:0.05mm;fill:none" d="M36.351936,345.212799C33.313297,344.752777,32.456158,340.880798,35.004951,339.128021C38.226292,336.91275,37.48315,335,33.401131,335C28.903208,335,23.55447,332.520355,20.972801,329.238281C19.387178,327.222504,19,325.179779,19,318.829956C19,309.585541,20.207409,307.112091,25.993828,304.502777C31.147169,302.178955,41.004112,302.862885,47.239414,305.976959L51.693546,308.201447L65.310692,298.104095C72.800117,292.550537,82.382744,285.751343,86.605415,282.994751L94.282997,277.982788L97.391495,280.057526C103.412102,284.075897,107.48732,285.445953,113.5,285.472992C120.554039,285.50473,112.910713,288.988281,221,236.478394C261.424988,216.839874,307.100006,194.669586,322.5,187.21109C385.6008,156.650208,387.666412,155.540771,389.002411,151.492737C391.895111,142.727692,383.314606,126.319771,373.508575,121.864983C368.528931,119.602783,358.205933,119.427238,351.408936,121.489174C343.756348,123.810669,339.521667,123.478645,337.072571,120.365143C333.053406,115.2556,334.658936,109.150429,341.868469,102.128105C353.118408,91.170326,367.873627,86.266098,393,85.133392C408.773956,84.422295,409.764008,84.253578,415.5,81.299309C425.01535,76.398483,431.400208,70.632484,441.714905,57.625298C460.444336,34.006821,478.546112,18.508217,499.068054,8.519978C500.46106,7.841981,503.45105,5.129994,508.354828,4C524.201599,0.348375,536.724792,4,541.731262,4C543.573669,4.921716,547.258484,6.765149,549.100891,7.686865C558.092346,12.185092,568.247375,21.980686,575.861328,33.5C584.146057,46.034241,603.21283,66.641571,609.60437,103.425156C616.38855,142.46843,623.455017,157.363266,601.495789,183.582764C579.789185,209.500656,562.120361,205.88237,522.678101,208.039444C492.341095,209.698547,475.416199,213.20163,464.5,220.081024C459.15506,223.449387,446.22406,233.845032,434,244.600906C419.41449,257.434601,401.219696,268.144928,388.275635,271.516418C370.341431,276.187683,356.06665,269.99408,360.134399,259.306396C361.251312,256.371796,363.006104,254.779892,369.013214,251.251617C378.216705,245.845978,384.335358,240.070679,387.82016,233.5C390.087128,229.225586,390.472717,227.26651,390.477325,220C390.481293,213.718307,390.015594,210.640289,388.69281,208.20578C386.487976,204.147934,381.542236,201.008713,377.346191,201.003738C375.359131,201.001389,351.6828,211.135925,313.346191,228.398682C279.880798,243.467941,226.453049,267.527405,194.617874,281.864136C162.7827,296.200867,136.530243,308.136414,136.279068,308.387604C136.027893,308.638763,135.386307,310.785156,134.853302,313.157349C133.550079,318.957611,131.640076,320.794037,126.134834,321.54007C123.585678,321.885498,120.712502,322.38562,119.75,322.651459C117.401505,323.300079,117.509079,326,119.883423,326C122.126068,326,123.343872,330.469727,121.514809,331.987701C119.817795,333.396118,114.716545,334.20517,113.384781,333.27713C112.771408,332.849701,111.962288,331.514893,111.586723,330.310913C111.080902,328.689301,111.43483,327.837646,112.951942,327.025726C115.806885,325.497803,115.657173,322.827118,112.75,323.42334C111.512497,323.677124,108.8125,324.156097,106.75,324.487701C102.785881,325.125061,101.353447,328,105,328C106.550278,328,107,328.666656,107,330.964813C107,334.198517,104.769516,336,100.765739,336C96.170151,336,94.206551,331.030182,98,329C102.607452,326.53418,98.563751,325.137238,91.125,326.625C87.604454,327.329102,86.89682,329.898743,90,330.710266C92.680634,331.411255,92.650116,335.581696,89.953796,337.024719C88.828384,337.627045,86.465881,337.980377,84.703796,337.809906C80.55291,337.408386,79.74543,333.837555,83.176491,331.055908C86.444969,328.406036,85.149857,327.770599,78.105118,328.567627C73.053307,329.13916,72,329.581116,72,331.129181C72,332.333344,72.712692,333,74,333C75.540573,333,76,333.666656,76,335.902161C76,338.235687,75.404839,339.01181,72.962585,339.86319C68.727081,341.339691,65,339.808594,65,336.592133C65,335.013031,65.714798,333.907898,67,333.5C68.099998,333.150879,69,332.192963,69,331.371338C69,330.165253,68.0849,330.00177,64.25,330.522797C61.637501,330.877716,58.686909,331.393738,57.69313,331.669495C55.206848,332.359406,55.995106,335.425049,58.760216,335.81955C60.31496,336.041382,61,336.821289,61,338.369537C61,341.60379,59.120815,343,54.767776,343C51.722328,343,50.753983,342.538055,50.051155,340.75C49.368565,339.013397,49.604099,338.186951,51.083382,337.128021C53.572666,335.34613,53.701885,331.660492,51.25,332.375641C50.287498,332.656372,47.362499,333.187805,44.75,333.55658C40.99892,334.08609,40,334.62381,40,336.113556C40,337.294403,40.704453,338,41.883369,338C44.049049,338,45.430664,341.776154,43.927608,343.587219C42.784428,344.964661,39.445499,345.681152,36.351936,345.212799z"/>
</svg>
