<?xml version="1.0" encoding="UTF-8"?>
<svg xmlns="http://www.w3.org/2000/svg" width="413.601mm" height="329.959mm" viewBox="-482.800537 -630.979675 413.601074 329.959412">
    <path transform="matrix(-1,0,0,-1,0,0)" style="stroke:none;fill:#000000;fill-rule:evenodd" d="M181.227173,301.023926L181.977173,301.023926L192.867798,301.086426C195.619751,302.686981,198.360352,304.309967,201.086548,305.953613C201.601807,306.291321,202.04248,306.730865,202.379517,307.246582C202.736023,307.887787,202.963501,308.592438,203.051392,309.320801C203.242065,310.937225,203.326782,312.564423,203.305298,314.191895C203.296143,316.710052,203.315735,319.225006,203.363892,321.742676C203.360718,322.545319,203.468628,323.344513,203.684204,324.117676C203.928711,324.712891,204.243774,325.276581,204.621704,325.797363C204.848877,326.139709,205.111755,326.456818,205.40686,326.742676C205.546204,326.85907,205.708801,326.943237,205.883423,326.992676C206.202942,327.032135,206.52655,327.005188,206.836548,326.918457C207.487976,326.860596,208.138123,327.053284,208.649048,327.461426C209.345154,327.81662,210.117615,327.995026,210.899048,327.984863C211.769836,328.054962,212.517822,328.630035,212.809204,329.453613C213.090637,330.214722,213.208679,331.026611,213.15686,331.836426C213.166687,332.422791,213.243835,333.006104,213.387329,333.574707C213.416016,333.66629,213.451904,333.755463,213.496704,333.840332L213.539673,333.89502L213.602173,333.945801C213.718384,334.036163,213.808777,334.15448,213.87561,334.285645C213.953186,334.46875,213.994995,334.665039,214.004517,334.86377C214.029846,334.973175,214.06073,335.081299,214.106079,335.184082C214.483704,336.0112,214.944397,336.797791,215.481079,337.531738C215.889648,338.131226,216.250122,338.762085,216.559204,339.418457C216.742188,339.858307,216.825745,340.333527,216.797485,340.809082C216.736206,341.40744,216.478149,341.967957,216.070923,342.410645C215.669373,342.9375,215.387329,343.54541,215.242798,344.191895C215.223206,344.66153,215.131165,345.125549,214.96936,345.566895C214.643616,346.49942,214.273193,347.415771,213.859985,348.312988C213.764954,348.585815,213.712219,348.871765,213.707642,349.160645C213.755127,349.519562,213.878174,349.864441,214.074829,350.168457C214.84198,351.664978,215.925598,352.976593,217.25061,354.012207C217.344849,354.075104,217.445007,354.128143,217.547485,354.17627L217.707642,354.230957C217.760803,354.240295,217.814026,354.249237,217.867798,354.254395L217.992798,354.23877L218.129517,354.17627C218.205872,354.132721,218.27417,354.077576,218.340454,354.02002L218.426392,353.922363C218.629333,353.64151,218.767883,353.318787,218.824829,352.977051C219.015747,352.316833,219.441589,351.750275,220.020142,351.379395C220.300964,351.224518,220.624451,351.166748,220.942017,351.211426L221.129517,351.262207C221.718872,351.516235,222.182739,351.993439,222.418579,352.590332C222.553711,352.821808,222.736633,353.022766,222.961548,353.168457C223.96167,353.942047,225.102539,354.513916,226.320923,354.852051C226.457092,354.869537,226.594788,354.872742,226.731079,354.855957C226.769836,354.832703,226.807068,354.80722,226.84436,354.781738C226.946106,354.544647,226.996521,354.289551,227.004517,354.031738C227.020813,352.83078,226.955933,351.630066,226.809204,350.437988C226.762085,349.929779,226.764465,349.418304,226.817017,348.910645C226.850464,348.786499,226.894043,348.665253,226.953735,348.55127L227.039673,348.453613C227.472168,348.05835,228.039856,347.847412,228.62561,347.855957C229.510559,347.860474,230.391785,347.970703,231.25061,348.184082C232.385864,348.452789,233.513733,348.751007,234.633423,349.078613C235.163879,349.248322,235.717102,349.337585,236.274048,349.336426C236.405334,349.302307,236.532654,349.254059,236.649048,349.184082C236.695129,349.138641,236.736633,349.089203,236.777954,349.039551L236.824829,348.949707C236.893494,348.741028,236.936829,348.524628,236.945923,348.305176C236.934753,345.866638,236.561707,343.443237,235.840454,341.11377C235.78186,340.853729,235.765564,340.586517,235.785767,340.320801L235.817017,340.20752C235.896545,340.017883,236.035889,339.860077,236.207642,339.746582C236.483215,339.518158,236.820984,339.37915,237.176392,339.336426C237.345642,339.333191,237.513306,339.364807,237.672485,339.422363C237.820557,339.490112,237.960205,339.574646,238.090454,339.672363C238.636353,340.140106,239.058105,340.735229,239.324829,341.402832C239.518494,341.830383,239.770386,342.229187,240.074829,342.586426C240.423767,342.925964,240.896423,343.106995,241.383423,343.102051C241.748535,343.141907,242.118164,343.108063,242.46936,343.000488L242.559204,342.949707C242.831055,342.759552,242.999878,342.456055,243.027954,342.125488C243.069336,341.378601,243.017578,340.629486,242.87561,339.89502C242.486206,337.464966,242.119995,335.027496,241.777954,332.590332C241.592163,331.305725,241.31665,330.035767,240.953735,328.789551C240.752197,328.267273,240.572327,327.736847,240.414673,327.199707C240.284363,326.672424,240.240967,326.12738,240.289673,325.586426C240.332703,325.14679,240.60437,324.76178,241.004517,324.574707C241.095581,324.543884,241.188599,324.519806,241.28186,324.496582L245.609985,323.594238L249.93811,322.695801C250.693787,322.402283,251.372253,321.939575,251.922485,321.344238C252.488525,320.844971,253.222473,320.578278,253.977173,320.590332C254.828979,320.622925,255.649597,320.265991,256.207642,319.621582L256.285767,319.508301C256.376282,319.364868,256.430542,319.20163,256.434204,319.031738L256.37561,318.887207L256.289673,318.754395L256.184204,318.637207C255.646729,318.241943,255.071167,317.901245,254.465454,317.621582C251.31604,316.053009,248.650635,313.66095,246.75061,310.699707C246.446045,310.247314,246.184631,309.767181,245.96936,309.266113C245.721191,308.663269,245.621643,308.009491,245.676392,307.359863C245.715454,306.637299,245.759766,305.913788,245.809204,305.191895C248.420166,304.317627,251.010376,303.444336,253.617798,302.559082L288.051392,302.543457L322.488892,302.527832C323.886169,303.318909,325.295776,304.09021,326.715454,304.840332C327.349243,305.197784,328.036499,305.450806,328.75061,305.590332C329.383972,305.674347,330.027039,305.535095,330.570923,305.199707C331.390076,304.699493,332.175476,304.146118,332.922485,303.543457C333.630432,303.00592,334.477722,302.683075,335.363892,302.61377C336.565247,302.495972,337.770447,302.421661,338.977173,302.391113C341.79303,302.304535,344.604736,302.115631,347.40686,301.824707C347.911316,301.779083,348.419067,301.784149,348.922485,301.840332C350.066284,302.129395,351.093567,302.763184,351.863892,303.656738C352.219238,304.097534,352.321777,304.687927,352.149048,305.227051C352.037415,305.62793,351.833679,305.996735,351.56311,306.312988C351.129761,306.79303,350.699341,307.270111,350.266235,307.750488C349.980835,308.088745,349.754211,308.472137,349.590454,308.883301L349.570923,309.016113C349.548523,309.163483,349.582397,309.31366,349.664673,309.437988C349.746826,309.544067,349.848694,309.631683,349.961548,309.703613C350.030273,309.733856,350.099548,309.76297,350.172485,309.781738C350.628723,309.91806,351.102539,309.986267,351.578735,309.984863C352.974854,309.971619,354.369568,309.893585,355.758423,309.750488C356.643372,309.692596,357.531799,309.722534,358.410767,309.840332C359.241638,310.021027,359.972717,310.511505,360.449829,311.215332C360.768494,311.677155,361.303101,311.941589,361.863892,311.922363C362.081482,311.939758,362.300476,311.93573,362.516235,311.902832C364.44104,311.738647,366.360962,311.522522,368.274048,311.254395C369.043762,311.145752,369.826599,311.172943,370.586548,311.336426L370.902954,311.430176C371.212952,311.549194,371.486023,311.749786,371.684204,312.016113C371.780823,312.211151,371.873047,312.407166,371.961548,312.605957L372.051392,312.711426C372.20282,312.837524,372.381897,312.925171,372.574829,312.965332C372.845581,313.040527,373.122559,313.091339,373.402954,313.109863C375.048218,313.245026,376.697571,313.323151,378.348267,313.344238C388.637878,313.643311,398.920349,314.052002,409.199829,314.570801C414.172241,314.915833,419.142029,315.309143,424.106079,315.750488C426.588196,315.973175,429.062134,316.278015,431.524048,316.664551C432.00415,316.751923,432.478882,316.866791,432.945923,317.008301C434.183777,317.213013,435.4375,317.305817,436.692017,317.285645C438.246582,317.329071,439.802124,317.25116,441.34436,317.05127C441.976685,316.924072,442.591858,316.722412,443.176392,316.449707C443.726563,316.241943,444.292114,316.077728,444.867798,315.95752C445.005249,315.941833,445.14386,315.939941,445.28186,315.949707C445.630249,315.986206,445.960205,316.125214,446.227173,316.352051C446.640686,316.704468,447.04834,317.064117,447.449829,317.430176C447.807739,317.778992,448.279602,317.985901,448.777954,318.023926C449.232117,317.989349,449.683472,317.924805,450.129517,317.83252C452.270386,317.485107,454.40918,317.129761,456.547485,316.766113C457.07959,316.637695,457.625122,316.572998,458.172485,316.574707C458.296631,316.575165,458.420227,316.595978,458.535767,316.641113C458.680237,316.694916,458.818848,316.76297,458.949829,316.844238C459.131104,316.989899,459.303833,317.145844,459.465454,317.312988C459.92749,317.682007,460.475647,317.928894,461.059204,318.023926C461.850159,318.193115,462.651367,318.310425,463.457642,318.375488C464.295593,318.458557,465.120483,318.642517,465.914673,318.922363C466.253845,319.062195,466.537231,319.309326,466.723267,319.625488C466.870056,319.943298,466.891541,320.306183,466.777954,320.637207C466.665833,321.115509,466.382202,321.535553,465.984985,321.824707C465.587158,322.144775,465.149719,322.411804,464.684204,322.621582C463.995178,322.924622,463.343079,323.305481,462.738892,323.754395C462.530884,323.933411,462.377441,324.168243,462.309204,324.434082L462.293579,324.578613L462.301392,324.723145C462.542603,325.54364,463.011902,326.278748,463.65686,326.840332C463.759827,326.914551,463.870361,326.977325,463.984985,327.031738C464.102478,327.078278,464.224304,327.11261,464.348267,327.137207C464.805237,327.118042,465.259399,327.21814,465.664673,327.430176L465.914673,327.625488L466.113892,327.859863L466.266235,328.133301C466.469116,328.729553,466.505981,329.369507,466.371704,329.984863C466.261292,330.522491,466.290955,331.079132,466.457642,331.602051L466.508423,331.719238C466.561035,331.813934,466.637085,331.892181,466.723267,331.95752C466.874084,332.069702,467.065491,332.111359,467.25061,332.078613C467.340942,332.056641,467.431763,332.037506,467.524048,332.031738C468.204895,331.76889,468.833008,331.386536,469.379517,330.902832C470.279358,330.086121,471.270142,329.375488,472.332642,328.785645C472.824585,328.530579,473.36853,328.392548,473.922485,328.379395C474.588928,328.424591,475.163452,328.861969,475.383423,329.492676C475.435425,329.670441,475.441956,329.85849,475.402954,330.039551C475.318481,330.404724,475.140076,330.742859,474.87561,331.008301C474.382446,331.502136,473.828064,331.930664,473.227173,332.285645C472.911255,332.471985,472.645874,332.734253,472.461548,333.05127L472.395142,333.234863C472.367188,333.361816,472.360962,333.492126,472.371704,333.621582C472.424561,333.985168,472.480713,334.348816,472.539673,334.711426C472.630554,335.601898,472.196289,336.4646,471.422485,336.914551C471.166931,337.063904,470.885742,337.163269,470.59436,337.215332C469.093201,337.616364,467.805176,338.58136,467.00061,339.910645C466.861816,340.212341,466.882019,340.5625,467.051392,340.848145L467.172485,340.949707C467.222656,340.978577,467.273438,341.006317,467.328735,341.023926C468.247498,341.301453,469.243042,341.029205,469.899048,340.328613C470.44812,339.774048,470.971191,339.194275,471.465454,338.590332C471.928772,338.035645,472.497131,337.578033,473.137329,337.242676C473.803162,336.965057,474.563171,337.0495,475.160767,337.453613C475.435303,337.704956,475.584534,338.062012,475.582642,338.434082C475.526001,339.100769,475.319824,339.746124,474.977173,340.320801C474.553772,341.059875,474.052002,341.751221,473.481079,342.383301C473.046021,342.892395,472.652649,343.43576,472.305298,344.008301L472.274048,344.117676C472.685303,344.478729,473.165039,344.753143,473.684204,344.92627C475.366028,345.589539,477.166504,345.899658,478.973267,345.836426C479.383057,345.837006,479.792114,345.871887,480.195923,345.941895L480.340454,345.992676L480.449829,346.055176C480.509644,346.101959,480.562134,346.156616,480.609985,346.215332L480.664673,346.328613C480.838928,346.788666,480.842224,347.295166,480.676392,347.758301L480.570923,347.941895C480.323425,348.288452,479.98761,348.561584,479.602173,348.742676C478.912598,349.085358,478.181274,349.336823,477.426392,349.48877C476.957458,349.605499,476.497803,349.756775,476.051392,349.941895C475.830017,350.048737,475.648315,350.222015,475.524048,350.434082L475.465454,350.574707C475.418274,350.743683,475.417908,350.921539,475.449829,351.094238C475.561462,351.487885,475.678528,351.8797,475.801392,352.27002C475.931274,352.783386,475.807617,353.329651,475.457642,353.727051C475.084778,354.148132,474.654602,354.514648,474.180298,354.816895C473.705688,355.127563,473.23291,355.441376,472.762329,355.758301C472.484863,355.94635,472.236938,356.174438,472.020142,356.430176L471.93811,356.566895C471.923828,356.640533,471.911865,356.7146,471.90686,356.789551L471.953735,356.879395C472.068481,356.973572,472.202698,357.041077,472.348267,357.070801C473.19574,357.211121,474.065674,357.089661,474.84436,356.727051C476.224304,356.084686,477.519287,355.273743,478.699829,354.312988C479.061157,354.025513,479.440369,353.761108,479.836548,353.523926C480.208679,353.315735,480.61084,353.166962,481.027954,353.078613C481.506531,352.998322,481.99585,353.13974,482.352173,353.469238C482.551575,353.65271,482.697693,353.88623,482.777954,354.14502C482.850891,354.571503,482.750793,355.009674,482.496704,355.359863C482.080627,355.962646,481.584167,356.505859,481.020142,356.973145C480.209167,357.693115,479.317871,358.316895,478.363892,358.83252C477.269714,359.354797,476.117126,359.744812,474.930298,359.992676C473.277344,360.332947,471.621765,360.65448,469.961548,360.95752C469.135437,361.093994,468.327942,361.326172,467.555298,361.648926C467.125793,361.835449,466.797852,362.197144,466.649048,362.641113C466.51178,363.196472,466.187805,363.688538,465.727173,364.027832C465.436707,364.229431,465.098999,364.354187,464.746704,364.383301C464.071777,364.472046,463.387451,364.460754,462.715454,364.352051C460.946899,364.036194,459.176758,363.712952,457.410767,363.383301C456.509888,363.218018,455.604492,363.077271,454.695923,362.961426C454.270935,362.914429,453.841736,362.919678,453.418579,362.980957L453.246704,363.031738C453.046448,363.13324,452.852417,363.246521,452.668579,363.375488C452.397583,363.531616,452.101074,363.638672,451.793579,363.695801C451.370056,363.724548,450.946899,363.63501,450.570923,363.437988C449.86676,363.113281,449.192139,362.727966,448.555298,362.285645C446.371155,360.799866,444.211304,359.280518,442.074829,357.727051C433.583435,351.738342,424.415955,346.770508,414.762329,342.92627C409.670532,340.852417,404.506836,338.957825,399.28186,337.246582L390.984985,334.496582C388.237488,334.563385,385.494507,334.614166,382.746704,334.648926C381.453186,334.673279,380.160706,334.741028,378.871704,334.852051C378.451782,334.906952,378.037659,334.999298,377.633423,335.125488C377.121094,335.333038,376.636169,335.602509,376.18811,335.92627C374.691589,336.806763,373.167419,337.639099,371.617798,338.422363C368.692383,339.897461,365.771973,341.396729,362.867798,342.914551C361.827454,343.47699,360.818237,344.095093,359.84436,344.766113C359.276062,345.181671,358.776794,345.684143,358.363892,346.254395C357.351013,347.476868,356.291565,348.659912,355.18811,349.80127C354.473511,350.579773,353.86322,351.447815,353.371704,352.383301C352.660278,354.614227,351.962158,356.857208,351.28186,359.098145C350.673157,361.11145,350.031189,363.113953,349.356079,365.105957C347.373108,370.907349,344.874878,376.519531,341.891235,381.875488C340.207275,384.944153,338.433105,387.962402,336.570923,390.92627C333.353699,396.039673,330.069519,401.115173,326.723267,406.14502C324.876343,408.962891,322.970581,411.860107,321.113892,414.672363C318.816467,417.868652,316.309631,420.909241,313.609985,423.773926L307.836548,430.070801C300.828186,437.797729,293.457703,445.189087,285.75061,452.219238C283.926208,453.910645,282.130798,455.631897,280.363892,457.383301C268.007263,469.457153,260.803406,481.7052,248.774048,494.105957C246.859619,496.10614,245.001892,498.160706,243.203735,500.266113C241.328735,502.534119,239.622437,504.936401,238.098267,507.453613C236.220276,510.521301,233.997986,513.36438,231.473267,515.92627C228.390381,519.112061,225.300049,522.276611,222.18811,525.434082C220.837891,526.804321,219.535095,528.220642,218.28186,529.680176C217.115417,531.093567,216.066406,532.599915,215.145142,534.184082L211.87561,539.723145L208.609985,545.27002C207.514587,547.178528,206.64801,549.209473,206.027954,551.320801C205.784485,552.155029,205.517334,552.982117,205.227173,553.80127C205.189392,553.854187,205.150024,553.905823,205.121704,553.965332C204.802551,554.801941,204.536926,555.657898,204.324829,556.527832C203.10376,561.279419,201.956543,566.04895,200.883423,570.836426L200.602173,572.059082C198.453491,581.611145,194.297729,588.510681,192.082642,598.047363C191.427734,600.935608,189.867493,605.191772,189.082642,608.047363C188.94751,608.578552,186.59729,610.313904,186.379517,610.816895L186.34436,610.875488L186.31311,610.910645C184.98407,612.189087,183.745056,613.557983,182.606079,615.008301C182.094604,615.610718,181.537292,616.172668,180.93811,616.687988C177.591553,619.581238,173.870483,622.010376,169.87561,623.910645C166.637512,625.349609,163.291199,626.531433,159.867798,627.445801C156.312073,628.4375,152.703552,629.229248,149.059204,629.816895C147.327209,630.108765,145.601624,630.437012,143.883423,630.80127C142.185303,630.961853,140.478821,631.014343,138.774048,630.95752C136.434265,630.918762,134.09845,630.748047,131.777954,630.445801C130.590942,630.264709,129.4198,629.992493,128.274048,629.633301C125.144409,628.743164,122.056763,627.71228,119.020142,626.543457C117.838196,626.046387,116.737976,625.374023,115.754517,624.55127C114.776367,623.653931,113.889282,622.662109,113.106079,621.590332C111.373596,619.227478,109.702698,616.82074,108.09436,614.371582C107.139771,612.971558,106.145874,611.598511,105.113892,610.254395C104.282898,609.206787,103.312195,608.278076,102.227173,607.496582C101.222168,606.81665,100.121643,606.289795,98.961548,605.934082C97.347778,605.434998,95.708801,605.021667,94.051392,604.695801C91.283813,604.124756,88.532532,603.476013,85.801392,602.750488C82.389771,601.758667,79.053284,600.525146,75.817017,599.059082C74.703552,598.538208,73.622314,597.950989,72.578735,597.30127C71.797791,596.783325,71.084351,596.169861,70.457642,595.473145C69.073242,593.821716,68.802795,591.50415,69.777954,589.58252C70.048645,589.0224,70.364075,588.484985,70.723267,587.977051C71.246399,587.219604,71.791077,586.477173,72.356079,585.750488C73.67804,583.793762,74.85968,581.745789,75.891235,579.621582C77.230591,576.969299,78.808655,574.44458,80.606079,572.078613C81.921387,570.409546,83.457581,568.927307,85.172485,567.672363C86.40918,566.788147,87.732239,566.031372,89.121704,565.414551C90.001892,564.971375,90.921204,564.610474,91.867798,564.336426C92.812195,564.126587,93.772705,563.997803,94.738892,563.949707C99.927979,563.665588,105.124268,563.543152,110.320923,563.58252C112.081726,563.607605,113.841614,563.487427,115.582642,563.223145C117.270508,562.919983,118.887024,562.30426,120.348267,561.406738C122.600708,560.122986,124.698059,558.584534,126.598267,556.820801C127.626465,555.80896,128.475769,554.630127,129.106079,553.33252C129.418457,552.604004,129.569214,551.816528,129.555298,551.023926C129.617004,549.860657,129.586121,548.694336,129.465454,547.535645C129.357056,546.557617,129.019348,545.61969,128.484985,544.793457C127.986572,544.003967,127.409851,543.266724,126.766235,542.590332C126.267639,542.0271,125.803772,541.434143,125.379517,540.812988C125.07019,540.329895,124.829529,539.806152,124.672485,539.254395C124.636353,539.075684,124.620117,538.893738,124.617798,538.711426L124.65686,538.512207C124.684814,538.504517,124.712646,538.496338,124.742798,538.496582C125.672485,538.624756,126.599426,538.769531,127.524048,538.930176C127.630432,538.942261,127.737,538.952637,127.84436,538.945801C127.891113,538.909241,127.937378,538.87207,127.984985,538.836426L128.074829,538.785645C129.209167,538.463928,130.350098,538.165588,131.496704,537.891113C130.975281,537.31897,130.463562,536.738098,129.961548,536.148926C129.599121,535.752197,129.305054,535.297852,129.090454,534.805176C128.943176,534.378601,128.965149,533.910828,129.152954,533.500488C129.222778,533.362854,129.308655,533.23407,129.414673,533.121582L129.53186,533.02002C129.883484,532.825928,130.262573,532.686157,130.65686,532.609863C131.43219,532.464661,132.210999,532.339294,132.992798,532.234863C133.053894,532.220581,133.113525,532.201416,133.172485,532.180176C132.946777,530.135742,132.67981,528.096619,132.371704,526.062988C132.039429,524.043518,131.578979,522.047302,130.992798,520.086426C130.488342,518.264832,130.035034,516.429504,129.633423,514.58252C129.478882,513.843994,129.403992,513.090942,129.410767,512.336426C129.346619,511.147827,129.04541,509.984497,128.53186,508.910645C127.937683,507.662415,127.286072,506.4422,126.578735,505.254395C126.050659,504.351379,125.664307,503.372498,125.434204,502.352051C125.238281,501.269714,125.295959,500.156189,125.609985,499.102051C125.760254,498.610962,125.912109,498.122864,126.067017,497.633301C126.403992,496.438782,126.44342,495.179932,126.18811,493.965332C126.178467,493.819275,126.186462,493.673035,126.203735,493.527832L126.25061,493.312988L126.31311,493.17627C126.512207,492.875366,126.781799,492.628906,127.090454,492.441895C127.492859,492.183899,127.893677,491.928284,128.297485,491.672363C128.587708,491.482422,128.848389,491.250916,129.070923,490.984863L129.172485,490.840332L129.242798,490.664551C129.304565,490.483948,129.352722,490.298889,129.379517,490.109863C129.411194,489.550537,129.42627,488.990417,129.426392,488.430176C129.426514,487.956421,129.513794,487.486328,129.692017,487.047363L129.770142,486.89502C129.852783,486.735352,129.951477,486.584167,130.074829,486.453613C130.49292,486.05304,130.887268,485.628479,131.258423,485.184082C132.655579,483.479187,133.888,481.645569,134.93811,479.70752C135.233582,479.103821,135.428406,478.455933,135.516235,477.789551L135.527954,477.590332C135.542175,477.281921,135.501099,476.973877,135.418579,476.67627C135.296143,476.156982,135.089783,475.661316,134.809204,475.20752C133.909058,473.809875,133.128662,472.338623,132.477173,470.809082C131.973938,469.55304,131.6203,468.242004,131.426392,466.902832C130.320313,461.162598,129.160645,455.437256,127.945923,449.719238C128.271729,447.751831,128.646973,445.792786,129.070923,443.844238C129.191467,443.269043,129.360779,442.704834,129.582642,442.160645C129.724182,441.846008,129.929382,441.565552,130.172485,441.320801C130.464355,441.058533,130.749573,440.788757,131.027954,440.512207C131.396545,440.012085,131.626526,439.422974,131.692017,438.805176C131.752197,438.203247,131.835815,437.603821,131.942017,437.008301C132.016846,436.595093,132.146912,436.193481,132.332642,435.816895C132.392883,435.71051,132.461487,435.609253,132.535767,435.512207L132.65686,435.375488C132.903259,434.947083,133.043152,434.466553,133.070923,433.973145C133.116333,433.457581,133.131958,432.939758,133.117798,432.422363C133.125,431.945129,133.200989,431.471375,133.34436,431.016113C133.435791,430.775696,133.596924,430.570129,133.801392,430.414551C133.97876,430.318909,134.171692,430.255676,134.371704,430.230957C134.978455,430.267578,135.58606,430.164795,136.145142,429.92627C136.86615,429.559082,137.419861,428.93042,137.692017,428.168457C137.929443,427.505798,138.045837,426.805908,138.035767,426.102051C138.022705,425.635193,138.040771,425.167969,138.090454,424.703613C138.124817,424.487061,138.208313,424.282349,138.320923,424.094238C138.385864,424.012512,138.465393,423.944397,138.547485,423.879395C139.002075,423.604126,139.484375,423.37793,139.984985,423.199707C140.23999,423.096008,140.471375,422.942505,140.668579,422.750488L140.746704,422.656738L140.820923,422.484863L140.867798,422.305176C140.874451,422.142212,140.871277,421.978943,140.852173,421.816895C140.703186,421.046448,140.656311,420.259827,140.711548,419.477051C140.732605,419.362427,140.762634,419.249634,140.805298,419.141113C141.08313,418.704102,141.451904,418.333435,141.883423,418.047363C142.667908,417.460022,143.550171,417.016174,144.488892,416.734863C144.727722,416.69104,144.969055,416.661621,145.211548,416.648926C146.291016,416.368835,147.262573,415.774536,148.004517,414.941895L148.074829,414.816895C148.142273,414.672546,148.189514,414.518982,148.195923,414.359863C148.195313,413.710205,148.138733,413.061829,148.024048,412.422363C147.966797,411.90271,147.985779,411.377502,148.082642,410.86377C148.149231,410.578003,148.296387,410.316772,148.504517,410.109863L148.62561,410.004395C148.870667,409.85321,149.14447,409.754333,149.430298,409.719238C149.703491,409.700439,149.977173,409.683655,150.25061,409.668457C150.773926,409.588928,151.255676,409.335754,151.617798,408.949707L151.856079,408.695801C152.658203,407.543091,153.575745,406.475037,154.59436,405.508301C154.907227,405.237732,155.263794,405.022156,155.649048,404.871582C155.940674,404.798828,156.244629,404.79071,156.539673,404.848145C157.388123,404.85144,158.21698,404.592712,158.914673,404.109863C159.738647,403.565125,160.467651,402.888977,161.074829,402.109863C162.082458,400.897339,162.922424,399.554688,163.570923,398.117676C163.75769,397.687378,163.839539,397.218628,163.809204,396.750488C163.752869,396.487,163.638916,396.239441,163.477173,396.023926L163.297485,395.824707C162.747681,395.277161,162.179626,394.74823,161.59436,394.23877C161.140686,393.832397,160.749084,393.361633,160.434204,392.840332C160.154785,392.27356,159.978577,391.661133,159.922485,391.031738C159.822693,390.551147,159.821106,390.054993,159.922485,389.574707C159.961121,389.382568,160.082275,389.218079,160.25061,389.117676C160.660828,388.880005,161.128296,388.758484,161.602173,388.773926C162.31366,388.798218,163.013245,388.965698,163.65686,389.27002C164.252258,389.561035,164.842346,389.863098,165.426392,390.17627C165.978821,390.463928,166.56958,390.671143,167.180298,390.793457C167.359741,390.815186,167.540771,390.796326,167.715454,390.750488L167.785767,390.711426L167.84436,390.664551L167.899048,390.605957C167.908142,390.547668,167.927917,390.491394,167.953735,390.437988L167.96936,390.336426C167.96051,389.865723,167.913269,389.396484,167.824829,388.934082C167.721985,388.27655,167.793274,387.603088,168.039673,386.984863C168.119568,386.80896,168.2323,386.649475,168.37561,386.52002C168.484314,386.429321,168.599731,386.347046,168.723267,386.277832L168.859985,386.23877L168.992798,386.215332C169.086487,386.208374,169.180359,386.210083,169.274048,386.215332C169.435791,386.246521,169.591797,386.301392,169.738892,386.375488C170.135864,386.588989,170.467712,386.905518,170.703735,387.289551C170.89978,387.569153,171.075439,387.862549,171.227173,388.168457C171.480408,388.621399,171.861572,388.989563,172.320923,389.230957C172.989441,389.499512,173.735352,389.497803,174.402954,389.227051C174.874695,389.041809,175.343628,388.849243,175.809204,388.648926L175.809204,344.969238C175.276733,344.061523,174.73114,343.161865,174.172485,342.27002C173.0979,340.433777,172.090698,338.558655,171.152954,336.648926C170.85498,336.094147,170.515198,335.562866,170.137329,335.059082C170.085571,334.990417,170.018982,334.936981,169.949829,334.887207C169.390564,334.736542,168.814209,334.658691,168.234985,334.656738C166.615479,334.566895,164.993591,334.531738,163.371704,334.55127C162.422119,334.550812,161.473633,334.489166,160.53186,334.367676C159.850464,334.24704,159.190186,334.028076,158.570923,333.719238C157.602783,333.284241,156.669006,332.776459,155.777954,332.199707C155.098267,331.712006,154.551514,331.062683,154.180298,330.312988C153.524231,328.968201,152.972839,327.574829,152.53186,326.14502C152.384094,325.640472,152.375854,325.104797,152.516235,324.598145L152.578735,324.430176C152.838318,323.923553,153.214417,323.485443,153.676392,323.152832C154.291443,322.668793,154.928894,322.213898,155.586548,321.789551L158.770142,319.680176C160.717834,319.786621,162.664612,319.875122,164.613892,319.945801C166.044556,319.978271,167.476013,319.940552,168.902954,319.83252C169.224426,319.798676,169.543884,319.747894,169.859985,319.680176C171.409546,319.475342,172.98053,319.496643,174.524048,319.742676C175.590759,319.924805,176.683228,319.887817,177.734985,319.633301C178.554321,319.385803,179.305786,318.952911,179.930298,318.367676C180.649902,317.752228,181.551392,317.387726,182.496704,317.33252C182.825989,317.308563,183.157166,317.32724,183.481079,317.391113C184.378479,317.546753,185.238892,317.868195,186.020142,318.336426C186.787231,318.830475,187.644714,319.167969,188.543579,319.324707C188.86261,319.346741,189.182617,319.29895,189.481079,319.184082C189.839172,318.977234,190.121338,318.661194,190.285767,318.281738C190.446716,317.951447,190.535706,317.590576,190.539673,317.223145C190.496521,316.837402,190.360657,316.467834,190.145142,316.14502C189.8349,315.533966,189.358948,315.023041,188.770142,314.672363C188.164001,314.380646,187.507568,314.208405,186.836548,314.160645C185.064819,314.062134,183.288269,314.088165,181.520142,314.23877C180.79071,314.311615,180.069153,314.448914,179.363892,314.648926C178.244263,315.081573,177.19696,315.681946,176.258423,316.430176C175.76593,316.788208,175.252136,317.115936,174.71936,317.410645C173.978149,317.775452,173.135437,317.881592,172.328735,317.703613C171.531433,317.488464,170.779907,317.129364,170.113892,316.641113C168.922302,315.782867,167.799316,314.833252,166.754517,313.80127C165.057007,312.202362,163.435425,310.52478,161.895142,308.773926C161.481384,308.284454,161.155701,307.726898,160.934204,307.125488C160.793091,306.692871,160.706848,306.244049,160.684204,305.789551C160.57373,305.070068,160.594116,304.336365,160.75061,303.625488C160.915405,303.121368,161.321655,302.732483,161.832642,302.590332L162.090454,302.52002C164.159363,302.211853,166.223816,301.870544,168.28186,301.496582C170.204529,301.232483,172.142029,301.090393,174.082642,301.070801C176.464355,301.019104,178.845215,301.003418,181.227173,301.023926z"/>
</svg>
