<?xml version="1.0" encoding="UTF-8"?>
<svg xmlns="http://www.w3.org/2000/svg" width="158.628mm" height="126.728mm" viewBox="-608.347229 -883.546204 158.628418 126.728210">
    <path transform="matrix(-0.26455,0,0,-0.26455,-449.655212,-756.589294)" style="stroke:#000000;stroke-width:0.05mm;fill:none" d="M480.5,477.899597C455.373596,473.572205,438.585052,465.691193,429.075287,453.75946C426.558868,450.602173,421.848389,446.000946,418.607544,443.534546C415.366669,441.068146,411.237579,436.856262,409.431793,434.174805C407.625977,431.493317,403.077576,427.020935,399.324249,424.236115C395.570923,421.451324,391.376099,417.973846,390.002411,416.508423C388.628723,415.042999,385.01532,412.331696,381.972595,410.483368C378.929871,408.63501,374.574036,405.13147,372.292969,402.697723C368.376587,398.519287,367.762024,398.234985,361.261353,397.594421C357.475037,397.221313,352.604767,397.197693,350.438568,397.541901C344.994812,398.406952,334.518921,395.790222,325.756683,391.37674C304.419922,380.629517,293.870819,380.645569,261.5,391.474426C236.919617,399.697205,215.032913,402.403961,192,400.06958C176.436508,398.492249,168.175797,396.702148,150.5,391.076508C142.25,388.450775,132.262421,385.316498,128.305374,384.11142C117.695023,380.880096,114.774872,376.419342,109.52813,355.427704C106.710335,344.153961,106.183159,343.176819,100.229347,338.192017C97.576286,335.970764,93.502129,330.962128,91.175659,327.061768C86.202583,318.724274,86.470711,320.630341,82.002228,261.850006C80.620934,243.679901,79.742882,241.290894,73.052658,237.5C70.140709,235.850006,65.198021,232.212433,62.068913,229.416504C58.101826,225.871841,54.91819,223.965027,51.551811,223.117371C46.090759,221.742249,45.920937,221.765579,25.710598,226.667465C17.576427,228.64035,10.662414,229.995743,10.346125,229.679459C9.433268,228.766602,14.048615,219.986588,16.121983,218.691742C17.154892,218.046692,18,217.193924,18,216.796707C18,216.399506,15.4125,214.305008,12.25,212.142258C2.528735,205.494171,-1.495338,199.770508,0.928999,196.039764C1.754383,194.769608,2.113644,194.78569,3.68895,196.16333C5.7445,197.960968,10.523293,199.55426,16.75,200.518005C21.54895,201.260757,21.551807,201.256424,19.5,196.345764C17.940681,192.613785,17.442043,186.546127,18.75,187.219406C27.045012,191.489288,29.996153,191.636642,30.005577,187.781387C30.008644,186.526627,30.523966,183.699997,31.150736,181.5L32.290318,177.5L33.771713,181C35.391705,184.827454,35.096237,185.089218,38.041584,177.217133C39.195126,174.134033,39.379536,174.033493,41.071922,175.565094C43.404804,177.676315,44.507771,176.901199,46.915298,171.458572C48.987965,166.772964,50.027069,166.122757,51.878128,168.353149C52.65073,169.284088,54.514763,169.560867,57.852043,169.240189C62.38427,168.804703,62.850502,168.981308,64.949074,171.928482C66.760223,174.472015,67.47065,174.854279,68.617523,173.902466C70.631172,172.231277,83.125076,151.293076,84.645729,147.041199C86.234985,142.597504,86.425896,113.869003,84.945213,101.973763C84.365082,97.313194,82.506248,87.875,80.814468,81C77.219086,66.389153,76.710442,56.210629,79.328255,51.259418C81.656761,46.855385,85.24823,44.662666,89.186394,45.240665C91.349152,45.55809,93.918304,44.908989,97.163849,43.22514L101.951149,40.741398L107.225578,43.23872C111.098045,45.07225,113.595222,45.613586,116.620438,45.275341C121.345146,44.747078,126.318573,46.858223,128.073273,50.136898C128.728668,51.361526,129.053406,55.271435,128.84404,59.417347C128.525253,65.730133,127.983597,67.408699,124.286476,73.540802C119.519211,81.447876,117.447357,88.383362,116.481094,99.669182C115.550812,110.534676,117.353539,121.940094,122.578156,138.243881C125.865685,148.502869,127,153.647461,127,158.298782C127,165.440353,127.632156,166.646225,136.027328,175.518845C144.292862,184.25444,159.620041,207.791519,160.522842,213.135223C161.371811,218.160187,162.656387,220.712509,165.75,223.521027C166.987503,224.644485,168,226.111847,168,226.78183C168,228.307617,169.250656,228.349335,170.727203,226.872803C171.563477,226.03653,172.186386,226.875351,173.140656,230.122803L174.426895,234.5L175.13237,224C176.110977,209.434875,174.970108,204.199539,169.397568,197.683578C159.84967,186.519226,158.505432,179.702454,162.815811,164.307114C164.47998,158.363205,166.822571,147.875,168.021545,141C169.960556,129.881592,170.129135,126.399979,169.546783,109.5C168.930298,91.609108,169.008698,90.314285,170.889679,87.318504C172.920853,84.083542,183.859604,76.140327,191.970581,72.010529C200.812759,67.508438,215.577194,68.631981,225.725342,74.579193C231.702713,78.082161,231.666931,81.77034,225.583099,89.238876C220.426727,95.568863,217.863571,97.421104,212.120438,98.967567C209.811111,99.589409,206.482407,101.384163,204.723312,102.955917L201.524948,105.813652L200.765259,126.656822C199.513763,160.993835,199.465225,165.336212,200.289536,169.219223C200.901169,172.100357,203.104492,174.907135,210.067368,181.675034C220.404053,191.722275,224.399734,197.454437,227.198944,206.251862C229.495377,213.469116,231.899078,228.798203,232.098877,237.5C232.2108,242.375031,232.379761,242.937515,233,240.5C233.419861,238.850006,233.860794,235.699997,233.979858,233.5L234.19635,229.5L235.429062,234L236.661758,238.5L237.830887,233.200775C238.473892,230.286209,239.036423,226.911209,239.080948,225.700775C239.143524,223.999435,239.591446,224.407745,241.054718,227.5L242.947556,231.5L242.996017,225.5L243.044464,219.5L245,222L246.955536,224.5L246.977768,216.75C246.98999,212.487503,247.352982,209,247.784393,209C248.215805,209,249.43631,210.462494,250.496597,212.25L252.424423,215.5L253.137665,211.5C253.529938,209.300003,254.129837,205.8125,254.470764,203.75C255.40213,198.115479,257.617065,198.795502,263.427948,206.5C264.846619,208.380966,264.939209,208.232162,264.983521,204C265.047943,197.845901,266.250092,196.091263,268.348969,199.08783C269.23172,200.34816,270.123291,201.181488,270.330231,200.939667C270.53714,200.697845,270.349213,196.910797,269.912567,192.523987C269.475952,188.137177,269.363892,184.31218,269.663574,184.023987C269.963257,183.735794,273.03891,186.537506,276.498352,190.25C279.957794,193.962494,283.266174,197,283.850311,197C284.475067,197,285.033356,194.014709,285.206177,189.75L285.5,182.5L288.990723,189L292.481445,195.5L292.812012,192C293.235718,187.513947,294.513306,186.222092,295.922363,188.854919C296.531555,189.99321,299.075958,192.332214,301.576569,194.052673L306.123138,197.180801L302.404022,190.081268C300.358521,186.176514,298.900055,182.766617,299.162964,182.503723C299.425842,182.240814,301.521729,183.408859,303.820465,185.099365C308.56485,188.588425,308.761566,188.413116,306.054993,183.107819C304.937103,180.916534,304.355408,178.356934,304.687073,177.088577C305.125946,175.410385,304.75351,174.748306,303.13208,174.324295C300.759888,173.703949,300.378723,172.502014,302.197662,171.377838C302.925354,170.928085,301.456238,169.988937,298.453766,168.984528C293.761475,167.414841,293.625397,167.270859,295.756104,166.130539C298.74234,164.532349,298.592102,163.780975,294.843506,161.56662C291.869812,159.810013,291.794006,159.623795,293.534637,158.351013C294.550812,157.607956,297.108765,157,299.218933,157L303.055573,157L298.038391,150.454041C289.858856,139.782211,289.264526,137.528992,295.222229,139.777771C296.952454,140.430878,298.54361,140.789734,298.758087,140.575256C298.972565,140.360764,298.342133,137.916183,297.357147,135.142853C296.372131,132.369522,295.893524,129.773148,296.293549,129.373123C296.693573,128.973099,298.36618,129.934692,300.010437,131.509995C303.615631,134.964005,303.654877,134.733383,300.62915,127.874428C298.023529,121.967903,296.459473,116,297.51709,116C297.888885,116,300.238007,117.800003,302.737335,120C305.236664,122.199997,307.668213,124,308.140778,124C310.110657,124,308.764648,117.441772,305.5,111.133286C303.331482,106.942902,302,102.948799,302,100.634117L302,96.898216L305.344391,99.449112C307.183807,100.852097,308.983795,102,309.344391,102C309.704987,102,310,100.023148,310,97.606987C310,94.755554,310.493286,93.024689,311.405701,92.674561C313.953491,91.696884,314.183502,86.551918,312.052551,78.205849C310.923645,73.784355,310.007813,68.666748,310.017365,66.833389C310.034912,63.464897,311.822906,54.672424,314.355652,45.5C315.535767,41.226116,315.529266,39.338215,314.31076,32.5C312.335175,21.412893,312.950531,17.337646,317.615082,10.617651C322.295685,3.874475,326.089386,1.779886,332.141998,2.596977C334.53891,2.920553,340.025757,2.515443,344.335022,1.696732C352.146545,0.212634,358.105591,0.743805,359.531708,3.051317C359.863892,3.588812,362.01767,4.9826,364.317841,6.148624C369.325684,8.687224,369.964752,9.536964,369.98468,13.683551C369.997253,16.295841,368.589569,18.359417,362.139862,25.183552C350.351563,37.656174,349.613556,39.474766,349.180603,57.117413C348.922913,67.618088,349.428589,77.052773,350.976135,90.617416C352.16095,101.002838,353.515564,118.724998,353.986359,130C354.457153,141.274994,355.264404,151.850006,355.780243,153.5C356.296112,155.149994,358.789246,160.901733,361.320557,166.281647C365.539459,175.248199,366.280304,176.225479,370.211487,178.009689C376.048279,180.658783,384.093628,180.658997,386.490845,178.010132C389.582611,174.593735,389.638062,167.073471,386.620056,160.481293C384.088043,154.950592,384.070679,154.785217,386.077606,155.310043C387.987488,155.809494,388.099091,155.546021,387.494171,151.965546C386.889038,148.383682,387.039948,148.028076,389.418762,147.43103C391.703552,146.85759,392,146.278824,392,142.391586C392,139.070709,392.382141,138,393.567383,138C395.469452,138,394.765625,134.824066,391.992859,130.894974C390.197388,128.350723,390.201904,128.242523,392.186981,126.257469L394.219452,124.224991L392.109741,115.238708C389.603668,104.564217,389.506775,102.403244,391.5,101.638374C392.325012,101.321793,393,99.923645,393,98.531387C393,97.139122,393.441437,96,393.980957,96C394.520477,96,395.248993,94.762497,395.599915,93.25C395.950836,91.737503,396.943939,89.375,397.806824,88C398.871613,86.303322,399.575562,81.80471,399.99762,74C400.536835,64.029373,400.997375,61.768559,403.460846,57C405.951752,52.178261,406.376007,50.040791,406.901093,39.667328C407.496582,27.902239,407.518433,27.818192,410.727051,24.951937C414.431763,21.642498,421.261169,19.425222,432,18.045326C436.125,17.51528,440.850006,16.820782,442.5,16.501993C444.594025,16.097422,446.405975,16.533735,448.5,17.946772C453.012787,20.991995,454.246002,21.686111,457.25,22.87174C459.485199,23.753942,460,24.582977,460,27.300413C460,29.937551,458.66275,32.25219,453.668701,38.259098C450.186493,42.447567,444.853424,47.897926,441.817474,50.371014C433.54071,57.113197,433.562073,57.004173,434.881836,85.762939C436.314392,116.980721,436.326416,156.294022,434.908264,172.23111C434.169586,180.532135,434.13736,186.11705,434.808624,189.5C437.693512,204.03891,438.460175,206.69339,440.392792,208.834381C441.551758,210.118286,447.225006,214.022308,453,217.509995C467.83844,226.471344,469.684082,228.616058,471.085297,238.525818C471.729156,243.0793,471.93512,250.282425,471.565399,255.317429L470.917969,264.134857L475.478516,263.450958L480.039063,262.767059L479.01239,265.467438C477.692108,268.939972,478.261292,269.750824,481.705963,269.304596C483.242676,269.10556,485.132233,269.362732,485.904968,269.876129C487.076202,270.654297,486.937317,271.441071,485.069946,274.606049C482.943359,278.210327,482.919891,278.468262,484.60611,279.701263C485.583008,280.415558,487.877289,281,489.704559,281L493.026825,281L491.422607,284.75C490.540283,286.8125,489.559509,289.131775,489.243134,289.903931C488.783905,291.024719,489.508118,291.19519,492.833923,290.749084C495.125275,290.441772,497,290.494965,497,290.86731C497,291.239655,495.544037,293.310638,493.764526,295.469513C491.486206,298.23349,491.069946,299.187134,492.357422,298.693085C493.363037,298.30719,495.369202,297.694458,496.815552,297.331451L499.445313,296.671417L497.722656,299.335693C496.775208,300.801056,495.271759,303.127258,494.381714,304.505005C492.184143,307.906708,493.306854,309.077362,503.579926,314.096283C514.169189,319.269714,515.80896,321,510.122437,321C505.407074,321,504.875275,322.216949,508.541016,324.618835L511.082031,326.283783L508.899109,328.607391L506.716217,330.931L510.858093,331.593292C513.136169,331.957581,515,332.613586,515,333.051086C515,333.488586,513.875854,335.182495,512.501892,336.815338L510.003845,339.784149L512.547913,340.422668C513.947144,340.773865,515.521301,340.795868,516.045959,340.471588C518.390808,339.02243,516.058716,343.780518,511.698303,349.342133C509.356903,352.328552,508.700653,354.152863,508.75177,357.533356C508.84201,363.503784,511.372437,367.339783,519,373.069275C526.729614,378.875427,528.270874,379.190796,549.789856,379.369507C564.841675,379.494537,565.738953,379.61734,571.202637,382.300354C578.380371,385.825134,584.609741,392.680969,589.263428,402.17746C591.237,406.204865,594.460083,411.748566,596.425842,414.496796C600.397766,420.049713,600.74054,421.940186,598.41803,425.484772C595.326172,430.203491,582.079041,436.000244,567.560608,438.987518C549.319641,442.740753,549.066162,442.915192,538.890015,458.716431C535.625549,463.785461,531.379272,469.13443,529.453857,470.602966C524.663513,474.256775,504.596802,480.032227,497.161865,479.897034C494.047821,479.840424,486.549988,478.941589,480.5,477.899597z"/>
</svg>
