<?xml version="1.0" encoding="UTF-8"?>
<svg xmlns="http://www.w3.org/2000/svg" width="84.020mm" height="64.332mm" viewBox="-1479.953125 -510.437500 84.020142 64.332031">
    <path transform="matrix(-1,0,0,-1,0,0)" style="stroke:none;fill:#000000;fill-rule:evenodd" d="M1419.714844,446.644531C1420.135376,446.848206,1420.530884,447.10025,1420.890625,447.398438L1420.949219,447.46875L1420.984375,447.558594C1421.084595,448.186188,1421.125366,448.821686,1421.109375,449.457031L1421.09375,451.164063L1421.636719,451.164063L1421.308594,451.695313L1421.535156,451.695313L1421.652344,451.667969L1421.800781,451.597656C1422.04834,451.437286,1422.272217,451.243958,1422.476563,451.03125C1422.358765,451.358154,1422.242554,451.687256,1422.128906,452.015625C1422.379639,451.920502,1422.63269,451.823303,1422.882813,451.726563C1422.985718,451.995331,1423.090698,452.266998,1423.195313,452.535156C1423.078491,452.726349,1422.960205,452.916504,1422.839844,453.105469C1423.161011,452.983337,1423.476318,452.862244,1423.796875,452.738281C1423.559814,453.024658,1423.365479,453.259888,1423.128906,453.546875L1423.394531,453.546875L1423.449219,453.554688C1423.490112,453.578033,1423.528931,453.604492,1423.566406,453.632813C1423.626709,453.700348,1423.670898,453.778656,1423.71875,453.855469C1423.807251,454.083649,1423.87146,454.319977,1423.925781,454.558594C1423.791382,454.684723,1423.66272,454.816925,1423.542969,454.957031L1423.492188,455.050781C1423.491943,455.070282,1423.48999,455.089661,1423.492188,455.109375L1423.511719,455.128906L1423.546875,455.132813L1423.742188,455.132813C1423.550903,455.490601,1423.357422,455.850372,1423.164063,456.207031C1423.516724,456.653137,1423.860962,457.091187,1424.210938,457.539063C1424.410278,457.221497,1424.610596,456.90567,1424.8125,456.589844C1424.90332,456.812042,1424.995605,457.033173,1425.089844,457.253906C1425.271851,457.143555,1425.452881,457.031525,1425.632813,456.917969C1425.787842,457.161194,1425.940918,457.4039,1426.09375,457.648438C1426.161743,457.09845,1426.160889,456.542267,1426.09375,455.992188C1426.714233,456.028351,1427.331665,456.106079,1427.941406,456.226563L1428.328125,456.324219L1428.179688,454.207031C1428.470337,454.561279,1428.761353,454.913452,1429.054688,455.265625C1428.959351,454.824463,1428.867065,454.383698,1428.777344,453.941406L1429.503906,454.917969C1429.471436,453.962036,1429.366089,453.009979,1429.1875,452.070313C1429.119751,451.772797,1429.044067,451.477203,1428.960938,451.183594L1431.390625,450.574219C1431.274414,450.388824,1431.158081,450.201691,1431.042969,450.015625L1431.839844,450.320313C1432.055664,450.189087,1432.27063,450.056366,1432.484375,449.921875C1431.991333,449.645996,1431.523315,449.32724,1431.089844,448.964844C1430.809082,448.73407,1430.56189,448.464417,1430.363281,448.160156C1430.284058,448.03833,1430.217163,447.909241,1430.15625,447.777344L1430.113281,447.65625C1430.072388,447.446564,1430.058716,447.232605,1430.074219,447.019531C1430.648315,446.840759,1431.217407,446.666199,1431.792969,446.492188L1438.9375,446.46875L1446.082031,446.449219L1447.582031,447.175781C1447.965332,446.941803,1448.344727,446.708832,1448.726563,446.472656C1449.489746,446.469055,1450.252441,446.428711,1451.011719,446.351563C1451.12561,446.340851,1451.239014,446.324921,1451.351563,446.304688L1451.460938,446.28125C1451.497681,446.268799,1451.533691,446.255066,1451.570313,446.242188L1451.625,446.242188C1451.668457,446.257782,1451.712036,446.273163,1451.753906,446.292969L1451.898438,446.390625C1452.063965,446.562134,1452.221558,446.741028,1452.367188,446.929688C1452.142212,447.197601,1451.917603,447.468048,1451.695313,447.738281L1451.875,447.917969L1451.929688,447.949219C1452.141968,448.020599,1452.365845,448.04715,1452.589844,448.042969C1453.009888,448.038086,1453.429443,448.01593,1453.847656,447.976563C1453.958862,448.151154,1454.067871,448.327271,1454.175781,448.503906C1454.994507,448.390259,1455.798096,448.281006,1456.617188,448.171875C1456.50769,448.350739,1456.396606,448.529449,1456.285156,448.707031C1459.830811,448.754425,1463.374512,448.913361,1466.910156,449.183594C1467.646851,449.227753,1468.379761,449.319397,1469.105469,449.453125C1469.860718,449.679047,1470.667236,449.670105,1471.417969,449.429688L1472.148438,449.25L1472.148438,449.746094C1473.022705,449.635986,1473.919312,449.520752,1474.792969,449.40625L1474.792969,449.898438C1475.053833,449.799744,1475.310059,449.701843,1475.570313,449.601563C1475.669922,449.760834,1475.769287,449.921631,1475.867188,450.082031C1476.170288,449.967285,1476.473267,449.854248,1476.777344,449.742188L1475.191406,451.148438C1475.555664,451.156738,1475.518677,451.156006,1475.882813,451.164063C1475.769897,451.344208,1475.657593,451.525513,1475.546875,451.707031C1475.78064,451.655518,1476.015137,451.608398,1476.25,451.5625C1476.238892,451.800934,1476.22583,452.039124,1476.210938,452.277344C1476.210693,452.343781,1476.212524,452.410156,1476.214844,452.476563C1476.2229,452.522308,1476.231323,452.568054,1476.242188,452.613281C1476.26123,452.638397,1476.278687,452.664581,1476.300781,452.6875L1476.347656,452.707031C1476.450073,452.707367,1476.552246,452.689423,1476.640625,452.636719C1476.71875,452.598907,1476.796143,452.559723,1476.875,452.523438C1477.227783,452.295258,1477.606812,452.109222,1478.007813,451.984375C1478.042236,451.977356,1478.075439,451.981506,1478.109375,451.980469C1478.124268,451.993286,1478.128662,452.008911,1478.136719,452.023438L1478.121094,452.0625C1478.089966,452.102814,1478.053833,452.138306,1478.019531,452.175781L1477.933594,452.25C1477.723999,452.401093,1477.516235,452.553253,1477.308594,452.707031C1477.437134,452.834808,1477.564941,452.963989,1477.691406,453.09375C1477.866333,452.964478,1478.043457,452.838074,1478.222656,452.714844L1478.259766,452.716797C1478.235596,452.745697,1478.206177,452.768982,1478.179688,452.796875C1477.639648,453.300995,1477.087402,453.792236,1476.523438,454.269531C1476.498169,454.311279,1476.467407,454.348755,1476.441406,454.390625C1476.439331,454.41922,1476.432617,454.446838,1476.433594,454.476563L1476.457031,454.503906C1476.486572,454.515686,1476.516724,454.516754,1476.546875,454.523438C1476.596069,454.521881,1476.642944,454.510315,1476.691406,454.503906C1476.791382,454.467773,1476.887695,454.422943,1476.984375,454.378906C1477.246948,454.196289,1477.52124,454.030914,1477.804688,453.882813L1477.894531,453.84375C1477.936279,453.832062,1477.977051,453.817719,1478.019531,453.808594L1478.21875,453.808594C1478.103516,454.211975,1477.906494,454.587646,1477.628906,454.902344C1477.449829,455.087006,1477.250366,455.250031,1477.042969,455.402344C1477.517944,455.209198,1478.004395,455.045471,1478.5,454.914063C1478.565063,454.909058,1478.629272,454.897827,1478.695313,454.894531L1478.722656,454.910156C1478.717041,454.944672,1478.706665,454.977448,1478.6875,455.007813C1478.431396,455.247345,1478.156128,455.465302,1477.867188,455.664063C1478.385742,455.668213,1478.907471,455.674774,1479.425781,455.683594C1478.896118,455.96579,1478.369873,456.250336,1477.84375,456.539063C1478.152954,456.649658,1478.462524,456.75766,1478.773438,456.863281C1478.198853,457.211395,1477.62146,457.556793,1477.042969,457.898438L1477.972656,458.085938C1478.660889,457.668213,1479.264893,457.30249,1479.953125,456.886719C1479.613647,457.279907,1479.276001,457.668091,1478.933594,458.058594C1478.046143,458.316284,1476.935303,458.638062,1476.046875,458.894531C1476.289429,459.05249,1476.533936,459.21051,1476.777344,459.367188C1475.874146,459.312744,1474.975342,459.201172,1474.085938,459.035156L1473.890625,458.992188C1473.617554,458.923279,1473.345337,458.849976,1473.074219,458.773438C1473.452637,459.089966,1473.755371,459.343628,1474.132813,459.660156C1473.400757,459.340027,1472.705688,458.941254,1472.058594,458.472656C1470.967896,457.660736,1469.826294,456.919495,1468.640625,456.253906C1466.810913,455.280518,1464.89856,454.471313,1462.925781,453.835938L1460.472656,453.015625L1458.070313,453.015625L1453.882813,455.195313L1452.570313,456.757813C1452.297241,457.711395,1452.005737,458.659515,1451.695313,459.601563C1451.083984,461.303436,1450.28772,462.933136,1449.320313,464.460938C1448.780273,465.338654,1448.225342,466.207275,1447.65625,467.066406L1445.460938,470.398438C1444.43689,471.556183,1443.398438,472.702515,1442.347656,473.835938C1440.715332,475.579071,1438.999756,477.242645,1437.207031,478.820313C1435.422485,480.498108,1433.684814,482.225616,1431.996094,484L1428.234375,487.953125L1426.453125,490.726563C1425.340454,491.795654,1424.266479,492.830322,1423.15625,493.902344L1420.796875,497.871094C1420.614258,498.561462,1420.396484,499.241974,1420.144531,499.910156C1419.569946,501.36322,1418.857178,502.757721,1418.015625,504.074219C1417.749146,504.502899,1417.52417,504.955841,1417.339844,505.425781C1417.189819,505.996429,1416.984131,506.551147,1416.726563,507.082031C1416.492676,507.524994,1416.239624,507.95755,1415.96875,508.378906C1414.537109,509.073669,1413.145264,509.746521,1411.710938,510.4375C1410.381958,510.438843,1409.040161,510.4375,1407.710938,510.433594C1407.135986,510.11676,1406.567871,509.787811,1406.007813,509.445313C1405.425659,509.084808,1404.878052,508.671234,1404.371094,508.210938C1403.942139,507.850861,1403.462769,507.55545,1402.949219,507.332031L1396.894531,506.964844C1396.575317,506.792816,1396.257935,506.623108,1395.9375,506.453125C1395.923462,506.123413,1395.93042,505.79306,1395.964844,505.464844C1396.027222,505.051544,1396.138428,504.64682,1396.300781,504.261719L1396.660156,503.394531L1398.878906,501.496094C1399.704712,501.279541,1400.535278,501.058533,1401.359375,500.835938C1400.662598,500.653534,1399.973267,500.443542,1399.292969,500.207031C1399.096436,500.140686,1398.906494,500.056274,1398.726563,499.953125L1398.421875,499.757813C1398.224243,499.615326,1398.055786,499.4375,1397.910156,499.242188L1397.789063,499.078125C1397.47583,498.601135,1397.184204,498.110168,1396.917969,497.605469L1397.273438,497.9375C1397.375244,498.021759,1397.481323,498.100433,1397.589844,498.175781L1397.722656,498.234375L1397.835938,498.253906L1397.929688,498.230469L1397.996094,498.167969L1398.039063,498.0625C1398.052612,497.898804,1398.057251,497.734558,1398.054688,497.570313C1398.726685,497.189972,1399.388428,496.817902,1400.0625,496.441406L1405.773438,496.175781C1406.04248,495.954651,1406.311279,495.73175,1406.578125,495.507813C1406.502075,494.664917,1406.399536,493.824554,1406.269531,492.988281C1406.224609,492.706573,1406.166992,492.427002,1406.089844,492.152344C1406.062988,492.091309,1406.03064,492.033478,1406.003906,491.972656L1405.953125,491.855469C1405.812256,491.236542,1405.704956,490.610596,1405.628906,489.980469L1405.574219,489.78125L1405.546875,489.699219C1405.525635,489.639587,1405.491333,489.587341,1405.457031,489.535156C1405.281494,489.290253,1405.137451,489.024139,1405.03125,488.742188L1404.742188,488.078125C1404.862549,487.793365,1404.961914,487.500366,1405.046875,487.203125C1405.0802,487.056854,1405.101196,486.907928,1405.101563,486.757813L1405.089844,486.683594L1405.066406,486.625L1404.9375,486.414063L1405.726563,486.109375L1405.726563,485.21875C1406.083252,484.77951,1406.421631,484.325653,1406.742188,483.859375C1406.819702,483.736511,1406.890137,483.609344,1406.949219,483.476563C1406.974976,483.403778,1406.99585,483.329468,1407.011719,483.253906L1407.011719,483.042969L1406.953125,482.828125C1406.918701,482.747101,1406.87915,482.668549,1406.839844,482.589844C1406.665649,482.297028,1406.482666,482.009583,1406.292969,481.726563L1405.851563,479.53125L1405.410156,477.332031C1405.526611,476.723602,1405.639648,476.11731,1405.75,475.507813L1406.320313,475.507813C1406.077759,475.211639,1405.833862,474.911346,1405.59375,474.613281C1405.846313,474.762726,1406.097168,474.913513,1406.347656,475.066406C1406.229492,474.764801,1406.113892,474.463379,1406,474.160156C1406.174194,474.266083,1406.346558,474.372589,1406.519531,474.480469C1406.589966,473.986755,1406.574829,473.484192,1406.472656,472.996094L1406.871094,473.386719C1407.109619,473.193512,1407.345581,472.997162,1407.578125,472.796875L1407.578125,471.804688L1408.109375,471.804688L1408.109375,470.746094L1408.667969,470.746094L1408.347656,470.222656C1408.621948,470.32605,1408.895264,470.43158,1409.167969,470.539063L1409.167969,469.921875C1409.344482,470.029968,1409.52063,470.138855,1409.695313,470.25L1409.695313,468.863281C1409.835327,468.955658,1409.97876,469.042816,1410.125,469.125L1411.085938,467.84375C1411.239746,467.941711,1411.394897,468.038055,1411.550781,468.132813L1411.550781,467.484375C1411.667236,467.594482,1411.779053,467.709198,1411.890625,467.824219C1412.137451,467.569946,1412.366211,467.298645,1412.574219,467.011719C1412.672974,466.847504,1412.766479,466.680084,1412.832031,466.5L1412.863281,466.394531C1412.876343,466.233398,1412.879395,466.071625,1412.871094,465.910156C1412.564575,465.675323,1412.253906,465.439423,1411.945313,465.207031C1412.209839,465.200928,1412.473999,465.191467,1412.738281,465.179688C1412.470703,465.007813,1412.212036,464.840942,1411.945313,464.667969C1412.271362,464.63031,1412.601929,464.65387,1412.917969,464.742188L1413.183594,464.828125C1413.439819,464.939026,1413.688232,465.066803,1413.929688,465.207031L1413.933594,464.601563L1413.9375,464L1414.390625,464.710938C1414.723389,464.649292,1415.05481,464.585632,1415.386719,464.519531L1415.4375,459.992188L1415.484375,455.460938L1414.25,453.148438C1413.57019,453.134186,1412.890869,453.122528,1412.210938,453.113281C1411.808105,452.897003,1411.397949,452.675476,1410.996094,452.457031C1410.821289,451.988586,1410.642578,451.520508,1410.460938,451.054688C1410.868652,450.74762,1411.274536,450.43927,1411.679688,450.128906L1416.179688,449.957031C1415.577515,449.804871,1414.979492,449.650574,1414.378906,449.492188C1413.695313,448.812317,1413.025146,448.143494,1412.34375,447.460938L1412.34375,446.371094L1412.835938,446.675781C1412.919189,446.531464,1413.00708,446.389801,1413.097656,446.25C1414.955078,446.199097,1416.795654,446.151245,1418.652344,446.105469L1419.714844,446.644531M1424.191406,458L1423.867188,458.320313C1424.043701,458.564484,1424.19519,458.825317,1424.332031,459.09375L1424.410156,459.300781L1424.429688,459.390625C1424.435425,459.450958,1424.425049,459.509735,1424.40625,459.566406L1424.386719,459.605469C1424.396484,459.647614,1424.405884,459.68985,1424.421875,459.730469L1424.46875,459.8125C1424.570068,459.956268,1424.689209,460.086517,1424.824219,460.199219L1425.390625,460.691406C1425.25,460.671448,1425.106934,460.678162,1424.96875,460.710938L1424.871094,460.769531L1424.804688,460.851563C1424.782837,460.972778,1424.777588,461.095825,1424.78125,461.21875L1425.839844,461.21875L1425.839844,460.253906C1425.39502,459.839203,1424.957764,459.428894,1424.515625,459.011719L1424.515625,457.675781L1424.191406,458"/>
</svg>
