<?xml version="1.0" encoding="UTF-8"?>
<svg xmlns="http://www.w3.org/2000/svg" width="423.354mm" height="244.155mm" viewBox="-854.092773 -647.764038 423.353577 244.154968">
    <path transform="matrix(-0.26455,0,0,-0.26455,-430.739197,-403.60907)" style="stroke:#000000;stroke-width:0.05mm;fill:none" d="M751.317261,921.993713C750.11676,921.51001,747.503662,918.564758,745.510376,915.448792C740.353394,907.387085,736.743408,904.359558,726.308777,899.345276C720.926453,896.758789,716.013855,893.61676,714.454102,891.763123C711.72522,888.52002,711.637573,887.202576,713.590332,878.783264C714.495361,874.881165,709.529602,870,704.654846,870C701.786133,870,700.512817,869.248718,697.585938,865.829346C695.622498,863.535522,692.2005,860.456787,689.981567,858.987793C687.762634,857.518799,684.854126,854.835388,683.51825,853.024719C682.182373,851.21405,679.659424,848.862976,677.911804,847.800171C674.79834,845.906799,674.744995,845.748962,675.267639,839.984863C675.862061,833.429749,680.626587,818.416443,684.783508,810C687.218872,805.069214,688.224426,804.127319,694.5,800.899109C699.280823,798.439819,701.597473,796.646179,701.807434,795.241455C702.13031,793.081787,692.900635,774.539429,686.648254,764.786743C684.506104,761.445313,679.121887,755.742859,673.678467,751.050354C663.176453,741.997253,657.205444,734.977112,647.693359,720.5C644.079651,715,640.532776,709.728943,639.811462,708.78656C638.645569,707.263306,636.835022,709.305542,623.5,727.185669C589.301208,773.040649,571.798767,793.031128,560,799.712219C547.267273,806.922241,531.182556,808.335938,510.5,804.062805C482.705505,798.320374,449.678253,784.0849,445.53244,776.060364C443.470123,772.068604,442.173401,766.399292,440.59848,754.488831C437.617279,731.943726,431.186157,718.63092,413.5,698.393311C398.168396,680.849915,395.821014,676.891357,395.22287,667.571228C394.960815,663.487671,395.044098,658.960449,395.407959,657.510681C395.77182,656.060974,398.786957,651.953796,402.108246,648.383606C409.673126,640.251953,411.378693,636.415527,410.456665,629.605225C409.274536,620.873535,406.423004,617.183228,397.351196,612.644714C388.835052,608.384216,384,600.554749,384,591.025085C384,586.746826,381.723663,581.702454,376.091583,573.5C370.796753,565.788757,367.565277,558.050964,366.469757,550.460693C365.535522,543.987915,363.73938,539.721313,359.916748,534.894897C353.495667,526.787598,355.697784,518.015503,368.049042,502.5C382.146667,484.790771,415.090363,453.071106,424.427094,448.216675C429.158569,445.756622,430.644135,445.541962,446.5,445.027008C464.103607,444.455322,466.964508,443.803375,469.061096,439.885834C471.877563,434.62323,471.069458,405.899872,466.955536,365.04422C464.506409,340.721741,462.952271,335.28595,451.505737,311.006348C435.885559,277.873871,430.985138,260.081146,424.099854,211.5C418.856201,174.501587,412.676849,124.336411,411.37146,108.167984C410.778381,100.82206,410.438324,99.736946,408.498016,98.999245C403.841675,97.228912,390.504547,79.731453,383.38028,66.046379L379.5,58.592762L379.18219,64.546379C378.566193,76.085342,384.135437,105.210228,394.326202,143.743896C396.551941,152.159882,397.459045,157.216293,396.814545,157.614609C394.733398,158.900848,390.502136,154.107895,384.758331,143.957932C381.503387,138.20607,378.493744,133.140045,378.070221,132.700089C376.587891,131.160233,380.988831,148.781189,389.134399,177C393.394714,191.759033,393.971985,195.073517,392.388062,195.68132C391.583649,195.990005,390.03891,195.440201,388.955292,194.459549C384.099548,190.065155,373.206421,170.513733,365.117889,151.675262C363.420654,147.722321,362.694763,146.962097,361.100647,147.468048C355.693085,149.184357,341.18927,117.048706,334.486572,88.5C331.680145,76.546753,329.048126,58.614399,328.918427,50.56358L328.836853,45.5L327.306274,49C323.245117,58.28664,318.097656,80.953323,316.405792,97C316.028839,100.574997,315.31485,104.590439,314.819122,105.923187C314.014069,108.087624,313.756042,108.184631,312.403076,106.831635C310.957581,105.386154,308.208466,92.847069,307.945465,86.5C307.713348,80.898109,305.11264,92.704865,303.903168,104.85125C302.149719,122.460754,301.075897,124.722809,297.723999,117.86795C296.249908,114.853363,295.947937,111.538277,295.947632,98.36795C295.947266,81.260872,296.469696,77.34446,300.999084,60.5C306.120178,41.455032,307.838959,35.60894,309.442291,31.782118C311.126038,27.763393,311.483612,25.571293,310.05899,28.001472C308.560364,30.557882,301.182129,52.586109,297.548523,65.352379C295.569061,72.307007,293.607819,82.2024,292.960754,88.5C292.339111,94.550003,291.622375,100.563011,291.368011,101.862251C290.92392,104.130615,290.828705,104.154968,288.972321,102.47496C287.909058,101.512718,286.755219,99.212204,286.408264,97.362709C286.06131,95.513222,285.451447,94,285.05304,94C284.654602,94,281.897919,98.747604,278.927032,104.55024C270.912079,120.204727,261.985352,130.597122,262.005585,124.25C262.008636,123.287498,264.729767,113.949997,268.052551,103.5C276.707275,76.28125,282.536377,56.563374,285.050964,46C287.052948,37.590031,289.937927,24.196924,290.48999,20.75L291.090637,17L286.520569,17C280.934601,17,280.509277,17.821239,279.512878,30.53101C278.557037,42.723618,273.049591,67.823242,267.999969,83C261.481659,102.590851,254.672058,117,251.9319,117C250.26561,117,250.944458,109.202637,253.553589,98.372955C254.958069,92.543442,255.925583,87.592255,255.703644,87.370308C255.481705,87.148369,253.770081,89.533615,251.900055,92.67086C247.223419,100.516609,245.51474,100.885895,246.284149,93.884598C246.609619,90.923073,247.132126,86.925003,247.445282,85C248.010895,81.523163,248.000015,81.529785,245.800995,86C242.781082,92.138977,242.964615,99.968941,246.42218,112.5C247.939728,118,250.244415,126.324997,251.543701,131C256.088837,147.354065,255.749176,150.833145,250.18837,144.883102C244.061371,138.327209,234.873962,116.549957,228.067001,92.447945C224.696213,80.512718,220.143784,67.710236,218.128983,64.5C216.98262,62.673458,216.925705,62.744293,217.472672,65.316719C219.958252,77.006424,220.727371,93.409126,218.759171,92.753052C217.043625,92.181206,214.045944,86.822227,211.484375,79.747879L209.330963,73.800705L208.096237,82.626938C207.41713,87.481361,206.050156,94.850143,205.058517,99.002007C202.39151,110.168327,195.514648,122.847977,193.317291,120.65062C192.968384,120.301712,193.541748,115.625084,194.591446,110.258118C197.185394,96.995644,197.157303,67.088219,194.540466,56C193.566971,51.875,192.210831,46.025002,191.526855,43L190.283234,37.5L189.649979,48.5C187.248093,90.221512,185.42627,105.774666,180.92334,123C177.885223,134.621902,176.911514,137.136032,175.613068,136.711166C173.466827,136.008881,172.055298,128.90242,170.957153,113.270454C169.57637,93.615372,167.884537,86.612503,168.475891,103C168.704132,109.324997,169.027924,115.625,169.195435,117C169.455872,119.137817,169.139145,119.459305,167.009171,119.219116C165.523026,119.051529,163.985504,119.65657,163.197342,120.719116C161.935516,122.420219,161.813568,122.415306,160.475098,120.609367C159.704407,119.569511,158.359512,115.294518,157.48645,111.109367C156.613373,106.924217,154.596146,100.800003,153.003723,97.5C151.411301,94.199997,148.313095,87.5625,146.11882,82.75C139.10701,67.371689,139.710052,70.152565,151.692596,108.453529C155.814255,121.627968,159.442535,134.902969,159.755463,137.953522C160.297836,143.241043,160.238785,143.429962,158.490646,142C153.261551,137.722656,134.504532,102.631172,130.495529,89.625481L128.299103,82.5L127.606384,87C124.532478,106.968269,115.099739,130.033783,111.034897,127.521568C109.457428,126.546638,110.036179,118.658257,113.114914,99.171257C115.173569,86.14093,115.182945,85.525772,113.533623,71.695351C112.605721,63.914406,111.493332,56.917053,111.061646,56.145676C109.108955,52.656403,108.5,58.921341,108.5,82.5C108.5,106.900742,108.432602,107.736382,105.688347,117.361343C101.784004,131.055099,95.800369,143,92.845009,143C91.552994,143,91.823746,139.439011,93.947495,128.5C96.149231,117.159241,97.635391,96.667732,96.565346,92.404335C95.889175,89.710258,95.597366,90.03006,90.97506,98.530937C85.136436,109.268738,80.628929,114.950188,79.113724,113.481476C77.956047,112.359322,80.589127,102.539444,88.481285,78.545898L93.071182,64.591789L91.005554,55.545895C88.091904,42.786285,87.367943,42.31292,86.571022,52.646332C84.468018,79.915115,81.516121,95.315071,77.812737,98.338036C75.615768,100.131355,75.519577,100.124924,73.858551,98.073647C71.62085,95.310196,71.193665,89.925781,70.138077,51.178772C69.289688,20.03734,68.32016,11.908556,66.437386,20.151163C65.122414,25.907997,65.703239,51.919666,67.452919,65.631065C69.468941,81.429611,69.279449,87.629654,66.793221,87.216087C64.322289,86.805061,62.380058,91.256752,60.528862,101.574333C58.772667,111.362434,57.561916,115,56.060181,115C53.988178,115,51.940121,103.923973,50.980808,87.530434C49.861458,68.401978,48.735493,57.869995,46.330051,44.028435L44.684044,34.556866L42.842529,42.028435C39.716305,54.712444,39.482544,64.71817,41.939644,80.674583C44.171806,95.170219,44.337616,103.069717,42.422913,103.697975C41.097363,104.132919,36.834122,96.320038,34.545536,89.261765C33.611385,86.38073,32.446003,83.775642,31.955793,83.472679C31.465586,83.169716,29.512945,86.002823,27.616594,89.768478C25.720242,93.534126,23.455727,97.206818,22.584339,97.930008C21.178099,99.097076,21,98.734261,21,94.702446C21,92.204102,22.159929,84.836502,23.57762,78.330002C25.44873,69.742523,26.039642,64.581345,25.733498,59.5C25.362545,53.34301,22.696836,29.300571,21.381649,20.25L20.909374,17L10.454687,17L0,17L0,8.5L0,0L799.540466,0L1599.080933,0L1598.790405,8.25L1598.5,16.5L1591.640747,16.79818L1584.781616,17.096359L1585.485229,22.79818C1587.334717,37.784561,1592.383057,56.879013,1596.775024,65.5C1598.908447,69.687538,1599.385864,72.206169,1599.713379,81L1600.10437,91.5L1597.488403,88.5C1593.667725,84.118477,1587.828125,75.393463,1583.962891,68.291397C1582.10437,64.876671,1580.442383,62.22427,1580.269531,62.397179C1579.493042,63.173641,1586.730957,80.05439,1590.894409,87.177094C1599.565918,102.012283,1600,103.062302,1600,109.205284L1600,114.986794L1595.265259,111.372665C1592.661133,109.384895,1586.923584,106.038925,1582.515259,103.937172C1566.941284,96.512085,1555.799316,84.988022,1546.802856,67C1543.295044,59.986374,1541.423462,57.143661,1541.166016,58.438526C1539.926025,64.676903,1546.80542,104.669281,1553.59436,130.68956C1558.877808,150.939316,1558.950195,151.256256,1558.976196,154.25C1559.013062,158.504456,1556.364868,157.633911,1552.89209,152.25C1551.207031,149.637497,1546.729126,141.199997,1542.941406,133.5C1539.153564,125.800003,1536.052612,119.949997,1536.050171,120.5C1536.045288,121.632233,1540.283447,138.744537,1544.901367,156.237915C1546.605591,162.693771,1548,169.364273,1548,171.061234C1548,179.608795,1539.640869,167.910416,1529.398926,145.029556C1526.208252,137.901306,1523.497925,132.168686,1523.376221,132.290405C1523.254517,132.41214,1523.818848,135.385254,1524.630127,138.897354C1526.522949,147.090332,1525.854248,149.324799,1522.523438,145.93692C1517.397461,140.723083,1509.812378,125.075424,1503.164429,106C1500.429688,98.153191,1500.147583,97.730537,1499.494141,100.5C1499.104736,102.150002,1497.921753,106.998901,1496.865356,111.27533C1494.133667,122.332962,1492.95874,132.883118,1493.963135,137.336426C1495.100952,142.381683,1499.502197,148.578827,1502.822876,149.811493C1504.295288,150.358078,1508.808838,151.820404,1512.852905,153.061127C1521.700928,155.775665,1527.848877,160.479355,1538.555298,172.725647C1547.633545,183.109558,1554.908325,192.704498,1562.26709,204C1565.312744,208.675003,1568.962891,213.89946,1570.37854,215.609924L1572.952271,218.719833L1580.226074,217.471161C1584.226807,216.784393,1590.374634,215.896027,1593.888184,215.497025L1600.276367,214.771545L1599.766602,220.077545C1599.1604,226.385468,1597.603271,227.919922,1585.467529,234.168411C1578.733765,237.635498,1576.852417,238.194901,1573.832153,237.628296C1562.30957,235.466644,1517.170532,198.973953,1503.461792,180.737396C1501.007813,177.472839,1499,175.447662,1499,176.237015C1499,177.026352,1501.069824,185.733444,1503.599487,195.58609C1506.129272,205.438736,1508.610718,215.206131,1509.113892,217.291412C1511.018921,225.186676,1513.814941,229.354675,1519.523315,232.808884C1522.530762,234.628769,1528.769775,239.694183,1533.387573,244.065353C1550.069092,259.855743,1558.472778,272.662659,1559.670166,284.118805C1560.307861,290.220093,1560.304199,290.231445,1557.904663,289.522034C1550.453247,287.319153,1538.211548,276.958557,1527.157837,263.5C1525.350952,261.299988,1524.094971,260.174988,1524.366699,261C1527.458862,270.388153,1534.340332,292.586029,1536.582642,300.405457C1539.018677,308.900482,1539.977539,310.822723,1543.316528,313.905457C1547.970093,318.201752,1551.47644,324.779999,1553.635986,333.26535C1555.617676,341.052063,1556.057861,341.872406,1561.606323,348.119659C1566.516113,353.647888,1566.724365,355.65097,1562.028198,352.178955C1560.407227,350.98053,1558.866089,350,1558.603394,350C1558.340698,350,1558.391113,351.635406,1558.715454,353.634216C1559.578125,358.949768,1557.03064,357.601318,1555.355225,351.855499C1554.105591,347.569824,1546.894653,338,1544.915039,338C1544.385742,338,1544,348.670441,1544,363.309784L1544,388.619537L1548.502075,393.893829C1553.609985,399.87793,1553.638306,399.96344,1554.936401,413.34668C1555.642944,420.630341,1556.556396,424.464844,1558.445801,428.078278C1561.745483,434.388977,1561.664551,435.010834,1558,431.5L1555,428.625824L1555,431.312897C1555,435.609924,1553.486938,434.424896,1552.109131,429.048706C1551.411133,426.3255,1548.626099,419.840942,1545.920044,414.63858C1543.081665,409.181763,1540.966553,403.766663,1540.921021,401.839874C1540.829834,397.982971,1541.284668,396.877899,1535.916626,414C1531.937866,426.690674,1527.810669,436.168518,1527.27356,433.848145C1527.063232,432.939606,1527.596558,430.508026,1528.45874,428.444611C1529.320801,426.381165,1529.897339,424.563995,1529.739746,424.406433C1529.582153,424.24884,1527.101318,425.913422,1524.226685,428.105469C1521.351929,430.297546,1519,431.720978,1519,431.268707C1519,430.816406,1522.086792,427.383179,1525.859619,423.639282C1531.741455,417.802612,1532.876587,416.095734,1533.82251,411.666107C1535.950684,401.700043,1538.137939,386.99353,1537.820557,384.784241C1537.525269,382.729004,1537.066528,382.945984,1532,387.537598C1528.974976,390.279053,1524.766357,393.843201,1522.647461,395.457977C1520.528442,397.072723,1517.447998,400.780273,1515.802002,403.69696C1512.435791,409.661377,1510.670532,410.63559,1512.069824,405.756592C1512.581421,403.972748,1513,402.361023,1513,402.175049C1513,401.989044,1511.460571,402.788269,1509.579224,403.95105C1504.49353,407.094177,1504.441162,404.890656,1509.500977,400.661133C1512.324219,398.301208,1515.580566,393.908264,1518.564819,388.433563C1524.266357,377.973969,1527.124023,374.487518,1532.059692,371.969543C1539.548706,368.148956,1540.200684,364.731049,1537.528442,343.301208C1535.787598,329.340149,1533.47937,317.687225,1530.881958,309.746033C1529.846924,306.581329,1528.993896,302.756317,1528.986328,301.246033C1528.967651,297.49762,1527.952637,294,1526.883423,294C1526.397461,294,1525.985718,297.487488,1525.968262,301.75C1525.813721,339.549652,1507.561523,384.516998,1473.6073,430.75C1463.00354,445.188202,1464.65564,439.49649,1476.001831,422.5C1483.805908,410.80957,1493.909912,393.284424,1501.653809,378.007355C1508.754761,363.998444,1509.907349,361,1508.191162,361C1505.797119,361,1494.787598,368.768585,1490.116211,373.75412C1485.303833,378.890076,1484.784912,379.208099,1485.227539,376.75C1485.750977,373.84256,1484.786743,373.413574,1480.383911,374.595276C1478.646484,375.061584,1478.160156,376.177643,1477.665771,380.831604C1477.334717,383.949219,1475.053223,394.375,1472.595825,404C1467.05127,425.716858,1459.88916,443.646606,1449.272461,462.388C1445.093628,469.76474,1444.846069,470.612183,1445.452148,475.463043C1446.050415,480.25119,1445.831421,481.049591,1442.604858,485.844208C1435.261475,496.756439,1410.803955,527.926025,1406.398804,531.986511C1402.10498,535.944397,1401.482422,536.201782,1397.33313,535.73407C1393.654175,535.319397,1392.384155,535.647339,1390.044556,537.615967C1387.353027,539.880676,1385,540.710266,1385,539.394348C1385,539.061279,1386.147339,537.425171,1387.549683,535.758606C1389.46814,533.478699,1389.949219,532.045105,1389.49292,529.967896C1389.157593,528.441223,1389.513306,525.707336,1390.288574,523.851868C1392.780151,517.888611,1428.274536,471.993805,1431.892212,470.057678C1432.979126,469.475952,1435.215942,469,1436.862793,469C1440.61792,469,1442.282837,467.336884,1446.237427,459.634827C1463.01355,426.962219,1473.480347,384.892578,1474.633789,345.5L1475.102295,329.5L1470.674072,342C1463.160278,363.20993,1455.615234,378.951416,1445.4021,394.725861C1437.536743,406.874237,1436.625854,408.883514,1437.808228,411.478485C1438.548462,413.102966,1438.3927,414.543701,1437.214233,416.977112C1435.222778,421.088989,1420.556152,437.337219,1407.06665,450.37561L1396.849365,460.25119L1392.244141,459.619965C1387.887207,459.022797,1387.324829,459.235413,1381.819336,463.56073C1378.618774,466.075317,1376,467.808838,1376,467.412964C1376,467.01712,1378.25,464.314209,1381,461.406494C1385.045044,457.129425,1386,455.449738,1386,452.611786C1386,448.13208,1390.656738,442.495605,1410.240967,423.270996C1420.17749,413.516968,1426.156494,408.433197,1429.252197,407.106201C1434.512817,404.851227,1436.934814,401.919861,1444.224609,388.98465C1456.590454,367.04248,1463.935059,348.399139,1470.022705,323.5C1472.938232,311.575348,1473.152466,309.590088,1472.613159,299.5C1472.289673,293.450012,1471.748047,271.399994,1471.409546,250.5C1471.071045,229.600006,1470.432251,212.114395,1469.990112,211.643097C1468.91748,210.499802,1466.372681,214.645538,1465.474121,219C1464.302856,224.675827,1459.642944,232.993378,1451.517944,243.910721C1443.729004,254.376633,1429.302368,269.42984,1424.70105,271.892395C1420.838867,273.959381,1418.905029,272.771332,1419.648193,268.788055C1421.171631,260.621979,1433.388794,233.162903,1440.295288,222.381653C1443.839355,216.849304,1448.595459,212.645813,1455.5,208.943649C1469.437256,201.470535,1471.517212,196.758606,1475.541626,163.540665C1476.405273,156.41304,1477.758911,146.28804,1478.549927,141.040665C1481.109619,124.060776,1480.156616,110.156616,1476.159058,106.159081C1474.96582,104.96582,1473.453613,101.985649,1472.798462,99.536484L1471.607544,95.083443L1469.241211,99.051521C1467.577271,101.841835,1466.615112,105.538162,1465.999512,111.504951C1465.098267,120.240448,1464.581299,122,1462.91626,122C1461.314453,122,1459.906982,116.998688,1458.835571,107.5C1458.033813,100.391968,1458.178345,95.072708,1459.523438,82.196556C1460.460083,73.229668,1461.00415,65.670815,1460.732422,65.399109C1460.083252,64.749901,1457.200806,77.513474,1455.854248,87C1453.384277,104.400078,1452.594604,105.95903,1450.155151,98.25C1448.792725,93.944572,1447.016235,92.545631,1446.980469,95.75C1446.91394,101.717484,1443.855347,119.474098,1442.776611,120.155846C1439.812866,122.028954,1437.802002,115.164864,1436.015625,97.076393C1435.449341,91.343407,1434.764282,86.430908,1434.493042,86.159721C1434.221924,85.888542,1433.992188,89.45417,1433.982666,94.083336C1433.949829,110.013237,1430.957764,132.379318,1428.415039,135.701111C1426.552979,138.133636,1425.547119,136.504791,1424.033325,128.605499C1423.389771,125.247475,1421.821045,119.125,1420.547363,115C1417.765137,105.989731,1416.450928,94.584412,1414.901001,66C1414.259766,54.174999,1413.407227,43.880165,1413.00647,43.122585C1412.561279,42.280994,1411.646729,44.420525,1410.655273,48.622585C1405.541992,70.295311,1404.767456,86.714317,1407.989624,105.129074C1410.84314,121.437149,1410.589233,124.599564,1406.775635,120.25C1401.406006,114.125961,1396.871704,97.896835,1396.103516,82.052551L1395.5,69.605103L1392.088501,78.552551C1384.556885,98.306114,1382.149048,97.900589,1384.546021,77.282272C1385.294678,70.842621,1385.749268,65.415886,1385.556152,65.22287C1384.522461,64.189125,1374,92.411621,1374,96.217979C1374,96.87471,1372.382568,102.381828,1370.40564,108.456024C1366.193604,121.397964,1357.5177,140.114319,1353.581665,144.75C1350.581543,148.283432,1347.52417,149.164673,1348.377686,146.25C1351.151123,136.777847,1359.300537,101.276749,1359.683228,97C1360.087524,92.481064,1359.708496,90.518936,1357.55835,86C1355.669556,82.030205,1355.084839,81.334656,1355.456787,83.5C1355.740234,85.150002,1356.270142,89.425003,1356.634399,93L1357.296631,99.5L1355.04187,97.5C1353.801758,96.400002,1351.903687,93.76889,1350.823853,91.653091C1349.744019,89.5373,1348.689453,87.977264,1348.480347,88.186363C1348.27124,88.395454,1349.006348,94.143982,1350.113892,100.960876C1351.221436,107.777763,1351.845337,114.480156,1351.500244,115.85508L1350.872803,118.354935L1348.913208,115.427467C1347.835449,113.81736,1345.768799,109.892799,1344.320557,106.706215C1342.872437,103.51963,1341.355957,101.26963,1340.950562,101.706215C1340.545166,102.142799,1339.737427,104.782669,1339.155396,107.572586C1338.32605,111.548279,1338.419556,113.879715,1339.588013,118.354248C1341.471802,125.567947,1340.256104,128.11322,1336.649414,124.506584C1335.324829,123.182022,1335.080322,123.379898,1334.486938,126.256584C1334.119019,128.040466,1332.777954,133.100006,1331.506958,137.5C1330.23584,141.899994,1327.763916,150.449997,1326.01355,156.5C1315.104614,194.208435,1307.525513,204.653778,1279.59729,220.470169C1247.929443,238.404388,1243.312012,246.796341,1236.113403,299.5C1231.754517,331.413269,1226.397217,348.897369,1211.906982,378.5C1188.689697,425.931488,1156.075928,472.901215,1124.020264,505.072723C1094.423462,534.776489,1074.446777,547.512085,1045.5,555.131104C1037.400024,557.263123,1034.549927,557.487671,1017,557.376953C998.03894,557.257324,997.140686,557.157043,984.5,553.750244C977.349976,551.823242,970.499817,549.91687,969.277405,549.513855C967.096191,548.794739,967.06604,548.901428,967.657898,555.239563C968.402954,563.218323,966.500061,569.569702,961.091797,577.155701C958.996216,580.095093,956.543274,583.940125,955.640869,585.700317C953.122375,590.612427,953.565552,599.340637,956.881104,610.127014C961.809875,626.161621,962.481812,630.580933,962.335632,646C961.990967,682.361511,951.792664,718.388855,937.463318,733.866272C927.701294,744.410461,918.320313,748.395508,896.020813,751.47113C882.975647,753.270325,872.558655,757.358948,868.386353,762.317444C862.764648,768.998474,858.686829,780.595032,854.4729,801.884888C851.213562,818.352051,848.610718,821.879578,827.670288,838.209045C820.613953,843.71167,814.032104,849.543213,813.043945,851.168152C812.055786,852.79303,810.684326,856.90741,809.996277,860.311218C803.159119,894.135437,799.31073,907.437622,794.913269,912.445984C789.267822,918.875793,775.333313,922.991516,759.5,922.905762C756.200012,922.887878,752.517761,922.477478,751.317261,921.993713z"/>
    <path transform="matrix(-0.26455,0,0,-0.26455,-430.739197,-403.60907)" style="stroke:#000000;stroke-width:0.05mm;fill:none" d="M730.477478,699.036377C730.805054,698.506409,729.766846,695.243958,728.17041,691.786377C724.526184,683.89386,720.362244,673.351257,719.466919,669.75C718.73114,666.790649,717.610474,666.540955,710.750244,667.807617L707.000427,668.5L714.595398,681C718.772644,687.875,723.295471,694.962524,724.646057,696.75C727.091614,699.986572,729.34436,700.869812,730.477478,699.036377z"/>
    <path transform="matrix(-0.26455,0,0,-0.26455,-430.739197,-403.60907)" style="stroke:#000000;stroke-width:0.05mm;fill:none" d="M800.75,626.323608C802.871765,624.740173,804,623.048035,804,621.449097C804,620.102112,803.662476,619.031189,803.25,619.069275C802.837524,619.107361,800.312561,621.849915,797.639038,625.163818C792.606262,631.402161,793.498962,631.734924,800.75,626.323608z"/>
    <path transform="matrix(-0.26455,0,0,-0.26455,-430.739197,-403.60907)" style="stroke:#000000;stroke-width:0.05mm;fill:none" d="M883.740906,595.75C885.973755,589.012512,891.456177,575.174988,895.924072,565C905.079285,544.150391,905.831665,539.86676,900.829468,537.071228C894.487366,533.526978,877.006714,539.041931,863.657349,548.798645C856.604919,553.953064,838,571.834351,838,573.458008C838,574.743225,853.366516,589.931335,860.5,595.696838C867.857727,601.643555,877.160767,608,878.506409,608C879.152588,608,881.508118,602.487488,883.740906,595.75z"/>
    <path transform="matrix(-0.26455,0,0,-0.26455,-430.739197,-403.60907)" style="stroke:#000000;stroke-width:0.05mm;fill:none" d="M1486.74707,368.592682C1488.811157,366.718628,1492.974976,361.756714,1496,357.566162C1500.316895,351.585968,1502.610474,349.398865,1506.662476,347.398987C1513.581299,343.98407,1514.662842,342.57782,1516.515869,334.587616C1518.62561,325.490784,1518.180054,323.647705,1515,328.31604C1512.208008,332.414581,1504.799927,336.420654,1496.866333,338.122101C1491.258789,339.324677,1484.141602,344.261322,1482.193726,348.299225C1481.475342,349.788544,1480.619995,355.730499,1480.293091,361.50354C1479.60376,373.675842,1480.302734,374.443634,1486.74707,368.592682z"/>
    <path transform="matrix(-0.26455,0,0,-0.26455,-430.739197,-403.60907)" style="stroke:#000000;stroke-width:0.05mm;fill:none" d="M1484,341.881958C1484,341.33197,1483.550049,341.160095,1483,341.5C1482.449951,341.839905,1482,342.568024,1482,343.118042C1482,343.66803,1482.449951,343.839905,1483,343.5C1483.550049,343.160095,1484,342.431976,1484,341.881958z"/>
    <path transform="matrix(-0.26455,0,0,-0.26455,-430.739197,-403.60907)" style="stroke:#000000;stroke-width:0.05mm;fill:none" d="M1493.299561,331.57196C1503.536499,323.060913,1507.037231,321,1511.257202,321C1513.232788,321,1515.814697,320.161469,1517.13916,319.08963C1519.477295,317.197601,1519.503174,316.958801,1519.830688,294.195892C1520.10083,275.415924,1519.891479,270.690155,1518.686157,268.356262C1516.734863,264.578217,1506.927612,240.287399,1503.906494,231.75C1502.592773,228.037506,1501.234497,225,1500.888062,225C1500.541626,225,1499.951416,228.712494,1499.576294,233.25C1497.560425,257.63739,1492.691162,274.27005,1484.624023,284.324463L1481.5,288.217987L1481.768799,307.359009C1482.089355,330.183044,1482.755981,338,1484.382202,338C1485.034302,338,1489.047119,335.107361,1493.299561,331.57196z"/>
    <path transform="matrix(-0.26455,0,0,-0.26455,-430.739197,-403.60907)" style="stroke:#000000;stroke-width:0.05mm;fill:none" d="M1552.661499,278.669983C1548.957642,273.292053,1544,267.998383,1544,269.421326C1544,271.209991,1555.113892,285.184723,1555.916382,284.40509C1556.145386,284.182587,1554.680664,281.601776,1552.661499,278.669983z"/>
    <path transform="matrix(-0.26455,0,0,-0.26455,-430.739197,-403.60907)" style="stroke:#000000;stroke-width:0.05mm;fill:none" d="M1485.884521,267.867126C1486.441162,263.850006,1486.727661,260.394348,1486.52124,260.187866C1485.781372,259.448029,1483.881104,267.613037,1483.422974,273.5C1482.789185,281.644501,1484.526001,277.670013,1485.884521,267.867126z"/>
    <path transform="matrix(-0.26455,0,0,-0.26455,-430.739197,-403.60907)" style="stroke:#000000;stroke-width:0.05mm;fill:none" d="M634.443298,251.777496C635.676941,250.01622,636.002991,246.540115,636.014526,235.027496C636.046448,203.060577,639.303162,170.474304,645.061829,144.5C647.246216,134.647629,646.999878,125.77771,644.339783,118.5C641.537781,110.834038,641.074341,108.40522,639.569824,93.5C638.048706,78.430412,636,49.506187,636,43.100399C636,41.211845,635.804688,39.861988,635.565979,40.100716C635.327209,40.339443,633.916809,45.701946,632.431702,52.017384C628.564392,68.462929,627.893921,92.991074,630.910706,107.657082C633.935852,122.363876,633.647583,124.482727,629.265198,119.75C624.37738,114.47139,619.3172,96.496956,618.074768,80L617.43457,71.5L615.467285,77C612.722961,84.672356,608.577942,92.549873,607.447693,92.241066C606.285278,91.923462,606.223083,81.933403,607.324768,72.5C608.035767,66.412254,607.963074,65.760643,606.767151,67.5C604.641296,70.591797,600.493347,82.327538,597.047363,95C595.327454,101.324997,593.236084,108.38604,592.399841,110.691208L590.879517,114.882408L596.799622,124.191208C600.055725,129.311035,603.879395,135.791351,605.296631,138.591888C611.300964,150.45665,614.773743,169.494873,618.504761,211C620.105713,228.809906,622.253113,242.905365,624.109131,247.787033C626.484497,254.03476,631.504517,255.97319,634.443298,251.777496z"/>
    <path transform="matrix(-0.26455,0,0,-0.26455,-430.739197,-403.60907)" style="stroke:#000000;stroke-width:0.05mm;fill:none" d="M1484.442505,231.047897C1487.537476,222.5681,1490.442871,216.245514,1492.965942,212.5C1494.077393,210.850006,1494.989746,208.246216,1494.993408,206.713806C1495.005371,201.665283,1487.057861,170,1485.778809,170C1485.350464,170,1484.997559,170.5625,1484.994751,171.25C1484.991821,171.9375,1483.87146,183.300003,1482.505127,196.5C1480.047119,220.247559,1479.135254,250.048569,1481.126831,241.547897C1481.636108,239.374252,1483.128174,234.649246,1484.442505,231.047897z"/>
    <path transform="matrix(-0.26455,0,0,-0.26455,-430.739197,-403.60907)" style="stroke:#000000;stroke-width:0.05mm;fill:none" d="M1067.987061,202.006943C1069.007568,201.46077,1074.752075,195.27327,1080.752563,188.256943C1092.00415,175.100571,1104.657471,162.362427,1120.75,147.991562C1125.837524,143.448334,1130,139.427124,1130,139.055557C1130,138.683975,1128.445313,135.224243,1126.545288,131.367264C1116.907837,111.804764,1108.180786,78.690231,1106.381714,54.857349L1105.677124,45.524284L1103.29126,52.512142C1099.527222,63.53672,1094.969482,84.40554,1094.034302,94.898346C1093.134888,104.990456,1092.401611,108,1090.842041,108C1089.233765,108,1086.994385,101.28701,1086.419922,94.743896C1085.439209,83.573898,1084.865845,82.776138,1083.369385,90.5C1082.623535,94.349998,1081.383423,102.604385,1080.613525,108.843079C1078.983765,122.050522,1077.826904,124.153496,1075.341309,118.427048C1074.108643,115.587135,1073.520508,110.762749,1073.216797,101C1072.640625,82.476509,1074.765381,70.681885,1084.184448,40.120869C1085.774292,34.962345,1086.862549,30.529261,1086.602905,30.269569C1086.060547,29.727177,1074.979492,64.255829,1072.568726,74C1071.684326,77.574997,1070.486206,85.224998,1069.90625,91C1069.326294,96.775002,1068.654785,102.113182,1068.414063,102.862625C1067.630859,105.300682,1065.037109,102.08403,1064.357056,97.831459C1064.004761,95.628647,1063.244995,94.078026,1062.615967,94.278633C1062.002197,94.474419,1058.921265,99.482132,1055.769409,105.406883C1049.046509,118.044456,1043.451294,126,1041.286011,126C1040.008423,126,1039.858643,125.123596,1040.41687,120.915497C1040.787842,118.119019,1041.939331,113.506516,1042.975708,110.665497C1044.741333,105.825699,1053.521973,77.888542,1057.485474,64.5C1061.78186,49.98727,1067.976807,22.434589,1067.996826,17.75C1067.998535,17.3375,1066.012329,17,1063.582886,17L1059.165771,17L1058.082886,22.049221C1057.487305,24.826292,1056.998657,28.313793,1056.997192,29.799221C1056.987183,39.196377,1049.989746,70.248985,1043.994751,87.5C1040.204224,98.407524,1031.353027,117,1029.950806,117C1027.797485,117,1027.894165,113.590858,1030.401489,101.116508C1031.830688,94.006203,1032.991821,87.808723,1032.981934,87.344337C1032.971924,86.879951,1031.600098,88.97435,1029.93335,91.99855C1026.253174,98.675995,1025.309082,99.713699,1024.063965,98.449997C1023.482056,97.859406,1023.681458,94.32605,1024.591064,89.110382C1025.395752,84.496094,1025.881104,80.547821,1025.6698,80.336441C1025.259155,79.925789,1021.521973,89.836441,1020.517517,94C1019.961792,96.303246,1021.78479,104.27964,1029.430786,133C1030.821777,138.225006,1031.968872,144.007141,1031.97998,145.849182C1032.013672,151.484055,1054.244751,193.157089,1061.267578,200.75C1063.548828,203.216431,1065.162964,203.518356,1067.987061,202.006943z"/>
    <path transform="matrix(-0.26455,0,0,-0.26455,-430.739197,-403.60907)" style="stroke:#000000;stroke-width:0.05mm;fill:none" d="M809.617371,177.567734C823.033997,170.87059,838.339783,166.699432,857.5,164.518738C874.831421,162.546173,879.447144,161.024658,880.92041,156.798462C882.188416,153.160995,882.250854,129.410828,881,126.5C880.426758,125.165932,880.116882,124.999451,880.069519,126C879.960693,128.296844,874.517395,139.339737,872.499329,141.357803C871.313049,142.544083,870.48291,142.781387,870.037964,142.061386C869.66864,141.463867,870.409973,134.343124,871.685364,126.237495C873.292908,116.020348,873.926819,108.188934,873.752075,100.705078L873.5,89.910156L867.812134,99.705078C860.087646,113.007164,856,117.182289,856,111.77005C856,110.543579,858.784546,100.850853,862.187866,90.230667L868.375793,70.921227L865.770813,68.316261L863.165833,65.711296L862.47937,70.605644C859.534119,91.605171,856.313354,100.824959,852.441895,99.33934C849.906067,98.366241,849.028564,92.470299,848.112183,70.248581C847.282654,50.131626,846.990662,47.685547,845.06842,44.748585L842.9422,41.5L843.569214,51.5C843.914063,57,844.797913,66.889015,845.533325,73.475586C846.865723,85.408745,846.458008,88.476479,843.67688,87.444351C841.977905,86.813835,839.300171,93.410912,838.002136,101.425194C836.233276,112.346153,833.09137,118.152626,831.60376,113.25C830.477051,109.53685,829.050354,97.90889,828.014832,84C825.877014,55.284233,823.612976,38.279648,821.668701,36.335384C820.703552,35.370224,817.816101,55.049877,818.246033,59.662846C818.494019,62.32328,819.6651,67.076256,820.84845,70.225014C823.432983,77.102203,824.034912,92.103767,821.646729,90.121773C820.530457,89.195358,820.368408,89.918251,820.721313,94.249329C820.956604,97.137199,821.565552,100.804649,822.074585,102.399223C823.216187,105.975807,823.296814,115,822.187073,115C821.73999,115,820.113281,113.683891,818.572144,112.07531C817.031006,110.466728,811.182617,106.870811,805.575623,104.084373C799.968689,101.297943,793.536377,97.439049,791.281616,95.509064C789.026855,93.579079,786.803589,92.003075,786.341064,92.006836C785.878479,92.01059,784.375,93.663506,783,95.679977C780.844666,98.840836,780.454712,100.666611,780.171692,108.923149C779.717468,122.173538,784.546143,160.518799,788.618469,176C789.617493,179.797958,793.013184,183,796.041687,183C797.522888,183,803.631958,180.555481,809.617371,177.567734z"/>
    <path transform="matrix(-0.26455,0,0,-0.26455,-430.739197,-403.60907)" style="stroke:#000000;stroke-width:0.05mm;fill:none" d="M1172.424316,102.610977L1180.348755,95.301292L1175.853027,89.400642C1169.156128,80.611,1165.63623,75.237175,1161.496582,67.482956C1156.504761,58.132629,1156,57.745701,1156,63.269726C1156,72.274574,1162.407471,110.063034,1163.91687,109.960327C1164.237671,109.938507,1168.065918,106.631302,1172.424316,102.610977z"/>
    <path transform="matrix(-0.26455,0,0,-0.26455,-430.739197,-403.60907)" style="stroke:#000000;stroke-width:0.05mm;fill:none" d="M580.13031,85.785545L578.153931,81.5L578.678284,86.5C578.966614,89.25,579.713989,93.300003,580.338989,95.5L581.475342,99.5L581.791016,94.785545C582.001648,91.639748,581.449097,88.645142,580.13031,85.785545z"/>
    <path transform="matrix(-0.26455,0,0,-0.26455,-430.739197,-403.60907)" style="stroke:#000000;stroke-width:0.05mm;fill:none" d="M350.683105,94.8125C350.363892,94.014771,350.126923,94.251724,350.078949,95.416664C350.035522,96.470833,350.271881,97.061455,350.604156,96.729164C350.936462,96.396873,350.971985,95.534378,350.683105,94.8125z"/>
    <path transform="matrix(-0.26455,0,0,-0.26455,-430.739197,-403.60907)" style="stroke:#000000;stroke-width:0.05mm;fill:none" d="M657.692993,89.269035C657.439453,88.296066,657.215332,88.849998,657.194946,90.5C657.174561,92.150002,657.382019,92.946068,657.655945,92.269035C657.929871,91.592003,657.946533,90.241997,657.692993,89.269035z"/>
    <path transform="matrix(-0.26455,0,0,-0.26455,-430.739197,-403.60907)" style="stroke:#000000;stroke-width:0.05mm;fill:none" d="M1575.523438,86.341209C1566.721436,70.327911,1560.127808,44.937958,1560.030884,26.684259C1559.988647,18.726496,1558.901611,17,1553.933472,17C1551.173096,17,1549.745117,17.500727,1549.315918,18.619064C1548.388916,21.034689,1550.675781,39.897144,1552.998657,48.994656C1555.487915,58.744087,1560.382813,69.679001,1566.298462,78.705833C1570.747437,85.494415,1577.141968,93,1578.476685,93C1578.865479,93,1577.536499,90.00354,1575.523438,86.341209z"/>
    <path transform="matrix(-0.26455,0,0,-0.26455,-430.739197,-403.60907)" style="stroke:#000000;stroke-width:0.05mm;fill:none" d="M798.993408,88.75C798.989807,88.0625,798.174377,86.267929,797.181335,84.76207C795.825684,82.706299,795.090698,82.309303,794.231323,83.168663C793.371948,84.028023,793.591248,85.021622,795.111511,87.156593C797.236267,90.140533,799.004578,90.866371,798.993408,88.75z"/>
    <path transform="matrix(-0.26455,0,0,-0.26455,-430.739197,-403.60907)" style="stroke:#000000;stroke-width:0.05mm;fill:none" d="M405.093811,70.145744C401.456604,58.438297,398.235016,42.411953,396.621796,28L395.446442,17.5L391.072327,17.185129C384.371246,16.702751,384.452942,16.139521,388.052856,38C390.917999,55.398376,396.272247,69.372215,404.145721,80C407.143555,84.046501,407.513,84.2714,407.811707,82.231659C407.994415,80.98407,406.771362,75.54541,405.093811,70.145744z"/>
    <path transform="matrix(-0.26455,0,0,-0.26455,-430.739197,-403.60907)" style="stroke:#000000;stroke-width:0.05mm;fill:none" d="M1186,82.55162C1186,81.755013,1184.915527,77.592514,1183.589966,73.30162C1182.264404,69.010727,1180.482422,63.025002,1179.630127,60C1178.368286,55.521763,1176.932007,53.385349,1171.899292,48.5C1168.499634,45.200001,1165.998047,43.301968,1166.340088,44.282154C1166.682129,45.262341,1167.629883,48.637341,1168.446411,51.782154C1170.778809,60.766426,1174.813232,69.914886,1179.677368,77.25C1184.047241,83.839638,1186,85.477058,1186,82.55162z"/>
    <path transform="matrix(-0.26455,0,0,-0.26455,-430.739197,-403.60907)" style="stroke:#000000;stroke-width:0.05mm;fill:none" d="M1493.980713,66.403625C1493.991333,63.600616,1493.683472,57.075619,1493.296631,51.903625C1492.277954,38.285183,1491.243164,44.772934,1491.207764,65C1491.180054,80.797684,1491.238037,81.287178,1492.570068,76.5C1493.335327,73.75,1493.970093,69.206635,1493.980713,66.403625z"/>
    <path transform="matrix(-0.26455,0,0,-0.26455,-430.739197,-403.60907)" style="stroke:#000000;stroke-width:0.05mm;fill:none" d="M1511.662231,75.75C1511.384888,75.0625,1511.157837,75.625,1511.157837,77C1511.157837,78.375,1511.384888,78.9375,1511.662231,78.25C1511.939697,77.5625,1511.939697,76.4375,1511.662231,75.75z"/>
    <path transform="matrix(-0.26455,0,0,-0.26455,-430.739197,-403.60907)" style="stroke:#000000;stroke-width:0.05mm;fill:none" d="M1125.282227,45.525455C1125.814453,16.446642,1124.978149,8.291213,1123.518311,28.323174C1122.919434,36.539364,1123.74646,76.694153,1124.49585,75.787643C1124.626587,75.62944,1124.980469,62.011456,1125.282227,45.525455z"/>
    <path transform="matrix(-0.26455,0,0,-0.26455,-430.739197,-403.60907)" style="stroke:#000000;stroke-width:0.05mm;fill:none" d="M586.929688,62.035713C586.994629,57.912941,586.875549,57.695869,585.373291,59.198109C584.080444,60.491013,583.900452,61.817413,584.496155,65.662392C585.08905,69.489487,585.414185,70.082222,586.052551,68.5C586.496338,67.400002,586.891052,64.491074,586.929688,62.035713z"/>
    <path transform="matrix(-0.26455,0,0,-0.26455,-430.739197,-403.60907)" style="stroke:#000000;stroke-width:0.05mm;fill:none" d="M1364.942383,44.389572C1364.974121,34.428837,1364.713867,24.191336,1364.364136,21.639572L1363.728149,17L1359.364136,17L1355,17L1355,21.197626C1355,25.889498,1360.483276,60.281055,1362.222778,66.5L1363.341675,70.5L1364.113159,66.5C1364.537598,64.300003,1364.910645,54.350307,1364.942383,44.389572z"/>
    <path transform="matrix(-0.26455,0,0,-0.26455,-430.739197,-403.60907)" style="stroke:#000000;stroke-width:0.05mm;fill:none" d="M348.439545,23.719957C348.878906,19.617161,348.787415,17,348.20459,17C346.429169,17,345.999481,23.177288,346.161346,46.375L346.322723,69.5L347.021301,49.969955C347.405518,39.228432,348.043732,27.415934,348.439545,23.719957z"/>
    <path transform="matrix(-0.26455,0,0,-0.26455,-430.739197,-403.60907)" style="stroke:#000000;stroke-width:0.05mm;fill:none" d="M246.548019,33.832474C247.499115,26.315334,247.9935,19.425453,247.646667,18.521629C247.18335,17.314226,246.019196,16.960768,243.258041,17.189156L239.5,17.5L239.201752,38.5C239.03772,50.049999,239.212997,61.525002,239.591278,64C240.272751,68.458763,240.29985,68.403786,242.54892,58C243.797333,52.224998,245.596939,41.349613,246.548019,33.832474z"/>
    <path transform="matrix(-0.26455,0,0,-0.26455,-430.739197,-403.60907)" style="stroke:#000000;stroke-width:0.05mm;fill:none" d="M1022.016663,46.604256C1023.651917,37.196915,1024.992188,26.6875,1024.994995,23.25L1025,17L1021.535156,17C1019.133057,17,1017.752869,17.593266,1017.035156,18.934259C1015.855286,21.138912,1015.687378,37.872204,1016.663086,56.018246C1017.462524,70.885689,1017.942505,70.041695,1022.016663,46.604256z"/>
    <path transform="matrix(-0.26455,0,0,-0.26455,-430.739197,-403.60907)" style="stroke:#000000;stroke-width:0.05mm;fill:none" d="M153.955215,46C153.485825,34.724998,153.078888,23.561626,153.050888,21.192503L153,16.885004L148.75,17.192503L144.5,17.5L144.709457,23.432362C144.824661,26.69516,145.872162,33.670162,147.037231,38.932362C149.239609,48.879662,154.198792,67.143707,154.586304,66.73468C154.708588,66.605606,154.424606,57.275002,153.955215,46z"/>
    <path transform="matrix(-0.26455,0,0,-0.26455,-430.739197,-403.60907)" style="stroke:#000000;stroke-width:0.05mm;fill:none" d="M1456.359619,37.507008C1458.361816,29.810863,1460,22.048365,1460,20.25701L1460,17L1454.5,17L1449,17L1449.086914,41.75L1449.17395,66.5L1450.946533,59C1451.921509,54.875,1454.3573,45.203156,1456.359619,37.507008z"/>
    <path transform="matrix(-0.26455,0,0,-0.26455,-430.739197,-403.60907)" style="stroke:#000000;stroke-width:0.05mm;fill:none" d="M681.670837,22.607967C683.791321,18.850182,682.211853,17,676.883362,17L672,17L672.033813,31.25L672.067627,45.5L676.335388,35C678.682678,29.225,681.083618,23.648584,681.670837,22.607967z"/>
    <path transform="matrix(-0.26455,0,0,-0.26455,-430.739197,-403.60907)" style="stroke:#000000;stroke-width:0.05mm;fill:none" d="M101.984688,25.684259C102.001656,20.348114,100.667366,17,98.523834,17C95.948318,17,95.864868,18.938526,98.136696,25.992342C100.615257,33.688007,101.959579,33.580379,101.984688,25.684259z"/>
    <path transform="matrix(-0.26455,0,0,-0.26455,-430.739197,-403.60907)" style="stroke:#000000;stroke-width:0.05mm;fill:none" d="M845.964539,21.75C845.98407,19.137501,845.549988,17,845,17C844.450012,17,844,18.062193,844,19.360428C844,20.658665,843.748352,23.921165,843.440857,26.610428C842.901855,31.323402,842.936707,31.409708,844.405396,29C845.243469,27.625,845.945068,24.362499,845.964539,21.75z"/>
    <path transform="matrix(-0.26455,0,0,-0.26455,-430.739197,-403.60907)" style="stroke:#000000;stroke-width:0.05mm;fill:none" d="M1475.96936,21.5C1475.96936,20.950001,1475.533203,21.174999,1475,22C1474.466797,22.825001,1474.03064,23.950001,1474.03064,24.5C1474.03064,25.049999,1474.466797,24.825001,1475,24C1475.533203,23.174999,1475.96936,22.049999,1475.96936,21.5z"/>
    <path transform="matrix(-0.26455,0,0,-0.26455,-430.739197,-403.60907)" style="stroke:#000000;stroke-width:0.05mm;fill:none" d="M221.683121,19.8125C221.363892,19.014767,221.126938,19.251724,221.078949,20.416666C221.035522,21.470833,221.271881,22.061459,221.604172,21.729166C221.936462,21.396875,221.971985,20.534374,221.683121,19.8125z"/>
</svg>
