<?xml version="1.0" encoding="UTF-8"?>
<svg xmlns="http://www.w3.org/2000/svg" width="210.957mm" height="346.954mm" viewBox="-1009.803589 -711.839539 210.956848 346.953827">
    <path transform="matrix(-0.26455,0,0,-0.26455,-790.5,-338.605286)" style="stroke:#000000;stroke-width:0.05mm;fill:none" d="M279.004517,1408.991455C263.224365,1404.726563,245.988449,1393.735107,229.681519,1377.537964C224.956528,1372.844727,214.25267,1361.016235,205.895157,1351.252441C185.266098,1327.1521,180.366776,1322.215576,166.977158,1312.039185C149.788971,1298.975708,145.29306,1292.964233,146.264603,1284.344727C146.52594,1282.026245,149.10347,1275.128296,151.992432,1269.015991C156.691086,1259.074951,157.194183,1257.372681,156.762192,1252.876831C156.155182,1246.559692,153.95517,1243.567017,146.107681,1238.383789C139.133148,1233.7771,139.018539,1233.639771,131.888535,1221.34082C109.722076,1183.104614,96.339539,1144.757935,100.939621,1132.658813C102.350273,1128.948486,107.821381,1123.917114,118.101974,1116.875854C134.33107,1105.760254,144.761154,1093.442383,148.39122,1081.10437C152.010391,1068.803345,153.298187,1043.285156,152.887955,992C152.223877,908.979553,152.511887,868.270142,153.846603,856.5C154.532654,850.450012,156.632614,835.375,158.513184,823C165.14534,779.357239,165.388672,776.846985,165.395721,752C165.40712,711.771912,159.072357,675.641907,144.003235,629.988831C129.95871,587.43988,97.248222,514.465576,68.138817,460.741913C47.570271,422.781067,39.621708,404.394897,34.746201,383.5C32.885605,375.526062,32.590725,370.452698,32.159721,339C31.133551,264.114594,31.223783,259.385742,33.838886,251C36.81776,241.447784,40.93174,234.226151,46.654842,228.503052C52.889965,222.267929,58.288116,219.336639,68.109299,216.85289C78.253067,214.287567,92.033585,214.629837,115,218.017563C122.974998,219.193939,136.925003,220.497818,146,220.915085C163.057632,221.699387,166.72818,222.534073,173.113312,227.080673C179.061157,231.315933,185.068405,244.533737,185.289612,253.87233C185.401138,258.580353,185.075073,259.538666,182.652664,261.622345C181.132355,262.930054,178.640717,264,177.115677,264C174.121933,264,166.926651,259.679718,163.05278,255.556183C161.73201,254.150284,160.392319,252.99939,160.075684,252.998642C159.759064,252.997894,159.656143,255.507233,159.84697,258.574951C160.761292,273.272827,155.948151,278.525665,137.363358,283.112518C132.48851,284.315674,128.381836,285.388214,128.237411,285.495972C128.092987,285.603699,129.503464,289.923676,131.371811,295.095917C135.988998,307.877899,138.74675,318.058563,139.998825,326.943878C140.877563,333.179932,140.708115,336.668488,138.954483,348.443878C136.456985,365.214081,136.873108,370.831512,141.107529,377.508514C147.926071,388.260223,157.495026,396.646515,183.948257,415.054291C210.280975,433.378235,226.128494,449.951263,245.572739,479.5C257.866638,498.182617,265.543945,511.745911,275.796417,532.895264C285.251587,552.399963,284.786407,551.546936,285.550873,550.782471C285.853821,550.479492,285.165802,546.565979,284.021912,542.085754C277.292664,515.72998,277.295166,482.582825,284.028381,455.960083C290.540222,430.212616,299.208466,412.718597,323.152893,377C347.740417,340.322113,357.172882,321.404297,359.502502,304.096985L360.229767,298.693939L352.864899,299.271271C348.814209,299.588806,337.399994,301.497559,327.5,303.512939C301.160248,308.875061,286.363342,308.656555,274.5,302.730316C268.53775,299.751923,257.095551,287.508301,252.298965,278.974365C249.988403,274.863464,246.622803,267.225006,244.81987,262C241.730774,253.047699,241.540573,251.692856,241.520889,238.5C241.50148,225.495667,241.684204,224.108841,244.090164,219C247.599823,211.547516,250.888809,207.892303,258.843231,202.604218C271.757813,194.018631,287.309021,190.721558,308.118286,192.157242C322.180939,193.127457,337.742065,196.630875,367.820068,205.598434C396.551208,214.164429,398.751495,214.59938,419.828583,215.879639C438.201202,216.995605,442.500641,218.617844,447.758698,226.417953C454.347809,236.192596,455.953796,246.915283,455.980194,281.310242L456,307.120483L467.75,306.451202C488.910156,305.24588,514.225159,309.173218,528.572327,315.887054C536.30188,319.50415,542.430908,325.515228,545.724304,332.709045C547.906738,337.476013,548.185181,339.240356,547.801392,345.869934C547.427124,352.334625,546.756165,354.671539,543.489136,360.888733C537.009827,373.218903,522.183411,386.366425,509.797089,390.765656C507.158691,391.702728,505,392.933197,505,393.5C505,394.066803,507.137512,395.295044,509.75,396.229401C519.56366,399.739319,525.292786,407.264191,529.123596,421.675476C531.761353,431.59845,531.987305,454.838989,529.680908,479C527.185547,505.140747,527.149109,506,528.535522,506C529.218567,506,530.088562,504.3125,530.468872,502.25C532.574219,490.832489,540.115051,476.759155,556.167847,454.288452C575.186096,427.666656,578.778137,420.710052,587.039551,394.5C598.833862,357.081238,602.239014,351.577637,634.229919,318.227844C650.927429,300.821045,655.452332,294.612762,662.583191,279.32666C673.623901,255.659042,676.214844,251.054794,682.117859,244.612701C685.353027,241.082062,688,237.759186,688,237.228546C688,236.697891,681.8125,231.849274,674.25,226.453827C659.957703,216.257034,627.937561,192.806244,615.096741,183.131363C601.494385,172.882721,596.355652,163.997513,597.238403,152.253281C597.853516,144.069702,600.932556,136.855316,607.53656,128.123871C627.451355,101.793724,660.624084,93.286987,703.191895,103.594238C708.851501,104.964638,724.736084,109.911835,738.491028,114.588013C752.245972,119.264183,771.150024,125.098297,780.5,127.552704C799.97876,132.665955,809.952148,137.110046,816.384949,143.542862C827.214417,154.37233,831.57373,174.624115,827.41217,194.7715C826.538879,198.999435,823.55011,208.767975,820.770447,216.47934C814.234619,234.611252,811.96991,242.880646,806.393372,268.976349C795.802429,318.537292,791.65918,326.822479,762.229187,357.290558C743.409729,376.773865,738.240417,383.57785,734.819519,393.368134C733.193481,398.021637,733.03595,402.601532,733.1297,442.5C733.240356,489.623169,733.157166,490.64447,727.879761,506.911194C720.450989,529.809204,722.453674,537.050171,746.988525,576C757.957458,593.413635,760.839844,602.541199,761.672546,622.5C762.375732,639.353943,761.06189,656.265198,756.506165,689C751.714844,723.427185,751.34552,726.772217,748.500549,761.5C745.56781,797.300049,744.62323,806.00531,741.881775,822.5C738.001404,845.847595,734.388062,857.682739,722.516907,885.92865C718.25708,896.064392,710.382446,917.664368,705.0177,933.92865C699.652954,950.192871,691.104614,973.849976,686.021362,986.5C680.938171,999.150024,674.372559,1016.556091,671.431213,1025.180176C658.146179,1064.131714,651.156555,1072.684692,619.402527,1088.846191C594.87616,1101.328979,588.762634,1106.626587,564.985413,1136C538.516296,1168.698853,531.358154,1174.656128,484.5,1202.983521C472.399994,1210.29834,459.00589,1218.730225,454.735321,1221.720825C438.430359,1233.13916,433.331848,1244.753052,427.065796,1284.749023C425.407166,1295.33606,422.912048,1307.388306,421.521118,1311.53186C407.850586,1352.255615,362.968719,1394.909058,320.494507,1407.542358C307.911285,1411.285034,289.827576,1411.916626,279.004517,1408.991455z"/>
    <path transform="matrix(-0.26455,0,0,-0.26455,-790.5,-338.605286)" style="stroke:#000000;stroke-width:0.05mm;fill:none" d="M378.25,703.629944C391.3125,692.157227,402,682.429199,402,682.012024C402,680.034058,379.42868,659.948547,361.963165,646.38446C327.848053,619.889954,315.857269,607.510742,306.621582,589.25C305.161194,586.362488,303.540955,584,303.021088,584C302.041992,584,303.126373,586.674255,317.010437,618.5L325.299225,637.5L335.654999,683C341.350677,708.025024,346.237793,729.11084,346.515228,729.857483C346.877533,730.832397,348.073669,730.267334,350.759857,727.852173C352.816925,726.002686,365.1875,715.102661,378.25,703.629944z"/>
    <path transform="matrix(-0.26455,0,0,-0.26455,-790.5,-338.605286)" style="stroke:#000000;stroke-width:0.05mm;fill:none" d="M288.575256,551.241882C287.368713,550.0354,286.793762,552.023438,287.574158,554.70343L288.38855,557.5L288.769501,554.658569C288.979034,553.095825,288.891632,551.558289,288.575256,551.241882z"/>
</svg>
