<?xml version="1.0" encoding="UTF-8"?>
<svg xmlns="http://www.w3.org/2000/svg" width="755.673mm" height="474.827mm" viewBox="-1328.738525 -817.405762 755.673462 474.826904">
    <path transform="matrix(-0.742343,0,0,-0.742343,-573.065063,-300.084167)" style="stroke:#000000;stroke-width:0.05mm;fill:none" d="M816.5,695.855469C814.849976,695.312866,809.900024,693.589478,805.5,692.025696C801.099976,690.461975,794.125,688.171753,790,686.936401C785.875,685.700989,781.825012,684.331726,781,683.893555C780.174988,683.455383,777.924988,682.452515,776,681.665039C774.075012,680.877502,767.15741,677.930664,760.627563,675.116577C754.097717,672.302429,748.247742,669.997253,747.627563,669.993835C747.007385,669.990479,745.231384,669.325989,743.680786,668.517273C742.130249,667.708496,734.030273,664.730835,725.680786,661.900146C711.285339,657.019714,699.608459,652.031982,685,644.523621C681.424988,642.686157,674.982117,639.979004,670.682556,638.507751C666.382935,637.036499,657.60791,633.806335,651.182556,631.329651C630.487549,623.352661,625.774658,622.036499,598,616.477112C594.424988,615.761597,589.25,614.446594,586.5,613.554932C577.803101,610.735107,543.77533,606.055237,503,602.071167C491.174988,600.91571,479.581055,599.527039,477.235657,598.985229C474.890259,598.443359,471.899567,598,470.589661,598C462.267792,598,412.83493,586.497314,397.5,580.992493C371.627625,571.705078,355.069763,568.197937,335,567.754211C325.512177,567.544495,322.147186,567.893677,315.768372,569.75C307.250427,572.228821,304.497986,572.448853,299.116028,571.080933C293.489899,569.651001,272.795044,566.284607,259,564.555359C245.711227,562.889526,222.471634,562.570129,215,563.950684C197.608398,567.164124,192.472214,568.023987,184.5,569.056702C179.550003,569.697998,175.039734,570.592834,174.477173,571.045227C173.914627,571.49762,170.08963,572.153625,165.977173,572.502991C161.864731,572.852295,157.824997,573.396423,157,573.712036C155.155548,574.417725,138.656021,576.789978,130.5,577.522095C127.199997,577.818359,121.800003,578.458008,118.5,578.943604C115.199997,579.429199,109.574997,579.878784,106,579.942627C102.425003,580.006531,96.800003,580.440674,93.5,580.907349C90.199997,581.374084,83.900002,581.818237,79.5,581.894348C70.101074,582.056946,58.094944,583.859436,56.087379,585.409424C55.168159,586.11908,54.556099,586.148254,54.335037,585.492981C53.986393,584.459473,45.686718,584.633545,43,585.730652C41.191845,586.469055,39.926819,586.629578,29,587.507568C24.01388,587.908203,19.847353,588.77124,18.921259,589.595276C17.897326,590.506348,14.974975,591,10.605518,591C6.900167,591,2.998101,591.46582,1.934259,592.035156C0.02717,593.055847,-0,591.468567,-0,479.035187C-0,388.533051,0.257958,364.97702,1.25,364.888702C1.9375,364.827484,4.075,364.615112,6,364.416748C7.925,364.218384,21.600836,363.617554,36.390747,363.081573C51.18066,362.545593,65.355659,361.863403,67.890747,361.565582C77.72229,360.410553,93.502762,358.92276,100.340302,358.506256C109.63192,357.940247,138.254211,355.277588,148.5,354.026093C152.899994,353.488647,162.125,352.375854,169,351.553253C175.875,350.730652,185.550003,349.561066,190.5,348.954163C195.449997,348.34726,210.524994,347.460327,224,346.983154C243.026794,346.309418,250.622269,345.636322,258,343.970154C263.225006,342.790131,270.352692,341.389954,273.839325,340.858643C277.325928,340.327301,283.36084,338.74469,287.250183,337.341705C291.139557,335.938751,299.086853,333.758759,304.910889,332.497284C316.607544,329.963837,329.312195,325.287903,338.5,320.134857C348.683167,314.423553,356.809662,308.710846,357.814606,306.55722C358.34259,305.425751,362.27066,300.753754,366.54364,296.174988C374.441284,287.712158,382.906067,281.381287,395.5,274.518341C405.312836,269.170929,405.487671,269.05127,425.2005,254.188065C443.795197,240.167908,455.555786,230.115173,469.876343,216C475.210205,210.742599,481.589783,205.690826,486.599365,202.757523C491.054016,200.149155,496.434357,196.837219,498.555664,195.397659C500.677002,193.958084,507.607269,190.062164,513.956299,186.740036C529.475708,178.619507,536.531128,173.552078,551.337341,159.891708C555.276794,156.257141,559.737488,152.155548,561.25,150.777039C562.762512,149.398529,564,147.832047,564,147.295959C564,146.062363,570.005859,140.52507,576.5,135.77121C579.25,133.758133,582.849976,130.936646,584.5,129.501236C588.859009,125.709091,597.675049,119.240059,604,115.192451C610.410339,111.090225,639.011108,82.765648,647.2677,72.342575C654.063416,63.763725,660.552124,58.239582,664.840515,57.381893C666.957886,56.958424,669.964783,57.490925,674.020203,59.007549C685.421021,63.271183,691.724854,73.386444,694.130432,91.27697C695.945313,104.773987,693.498352,115.523308,684.177429,135C681.354492,140.898743,670.070923,158.010452,666.358154,162.02327C664.428406,164.108963,661.857056,167.160645,660.644043,168.804764C656.0625,175.014694,639.752869,189,637.092346,189C636.53479,189,634.59845,191.277283,632.789307,194.060638C630.818787,197.092316,624.087402,203.752258,616,210.671799C602.007629,222.643585,579,244.599808,579,245.980972C579,246.414871,576.978333,250.309158,574.507446,254.634933C572.036499,258.960724,570.011536,263.042511,570.007446,263.705597C569.999084,265.062256,573.45105,270.370514,577.372009,275.030273C578.807434,276.736145,584.148438,280.40976,589.240906,283.193817C594.333435,285.977905,599.932495,289.323242,601.683289,290.627899C603.434082,291.932556,605.966248,293,607.310303,293C608.654358,293,614.0625,294.326233,619.32843,295.947174C631.911133,299.820374,637.446472,300.730713,656,301.978027C664.525024,302.551147,677.93988,303.541443,685.810791,304.17868C699.985901,305.326324,709.218506,304.923492,736.5,301.967072C740.900024,301.490234,752.375,300.599792,762,299.988251C771.625,299.37674,780.174988,298.64444,781,298.360931C791.018982,294.917908,822.956848,293.082764,838.74115,295.043152C854.605713,297.013489,887.481384,296.640076,897.556763,294.375061C908.404968,291.93631,947.778198,291.901306,958.828247,294.320587C973.253418,297.478821,980.76416,302.325775,985.756836,311.698608C993.494995,326.225739,989.644958,345.435425,977.577881,352.507233C970.601074,356.595917,963.921814,357.897369,944.393433,358.973236C934.552063,359.515442,922.900024,360.184021,918.5,360.458954C914.099976,360.733917,906.210815,361.199554,900.968506,361.493713C892.502625,361.96875,873.732727,364.906708,859.5,367.984589C848.686279,370.32309,832.681458,372.989075,820.881165,374.417419C808.801025,375.879669,795.23114,377.736206,776,380.557739C770.775024,381.32431,762.450012,382.454468,757.5,383.069183C747.345581,384.3302,739.517334,386.28006,733.202759,389.121216C729.782776,390.659943,728.506836,391.98468,726.952759,395.610229C724.693787,400.880157,724.486328,403.556183,726.25,404.674744C726.9375,405.110779,746.174988,405.542908,769,405.635071C791.825012,405.727203,815.450012,406.300079,821.5,406.908112C827.549988,407.516144,838.349976,408.425446,845.5,408.928802C852.650024,409.432159,860.596313,410.321777,863.158447,410.905731C869.525024,412.35675,881.17041,413.709503,902.5,415.4758C926.706543,417.480347,931.552185,417.903046,938,418.57254C949.000305,419.714783,969.024292,423.419952,986.893616,427.619659C998.736816,430.403076,1009.576416,439.596344,1015.210205,451.635498C1017.971191,457.535645,1018.208496,458.837189,1017.802368,465.853394C1017.086548,478.21814,1010.569092,488.255157,1001.17804,491.454987C993.451721,494.087616,978.681702,492.900299,969.5,488.908447C967.74292,488.144531,963.1474,487.180115,941.5,483.032379C933.614197,481.521423,907.658081,480.083008,894.5,480.427765C887.900024,480.600708,871.025024,481.068512,857,481.467346C821.926697,482.464722,789.019409,480.9039,752.5,476.510834C749.75,476.180023,743.381775,475.653015,738.348389,475.339722C729.31488,474.777405,729.174744,474.80368,727.488464,477.377289C725.362854,480.621368,725.889343,482.051086,730.506409,485.572662C734.018494,488.251495,734.570496,488.351654,745.080261,488.217407C751.088196,488.140656,758.81543,488.472137,762.251892,488.954041C789.538757,492.780396,793.348572,493.49939,807.5,497.493378C810.799988,498.424744,818.674988,500.302979,825,501.667267C831.325012,503.031525,840.549988,505.279999,845.5,506.663849C851.32135,508.291321,862.424011,510.011658,876.935974,511.534851C889.275757,512.830078,901.425781,514.34082,903.935974,514.892151C906.446167,515.443481,912.099976,516.187378,916.5,516.545288C920.900024,516.903137,929.224976,518.251892,935,519.54248C940.775024,520.833069,947.974976,522.192749,951,522.564026C969.44104,524.827209,982.136597,540.266602,979.579285,557.320007C978.209717,566.452698,968.933044,576.262207,958.589111,579.515808C954.252747,580.879761,952.2453,581.000549,947.876404,580.160522C940.361572,578.715576,931.884766,578.03125,914.5,577.466064C899.33551,576.973022,878.156128,575.21228,876.718323,574.325134C875.107666,573.331299,857.090332,570.784424,846,569.982849C839.674988,569.525696,824.375,569.11438,812,569.068787C788.378052,568.98175,773.811646,567.50531,768.262329,564.635681C766.522705,563.736023,763.715027,563,762.023193,563C756.891602,563,739.988342,558.356079,726.405457,553.214539C718.125305,550.080261,687.5625,547.162109,679.164734,548.704041C675.62677,549.353577,674.59375,550.060547,673.547974,552.547852C671.469116,557.492371,674.529419,562.694885,682.268188,567.372253C694.651978,574.857117,703.634583,580.549805,707.033691,583.067322C708.940186,584.479309,713.424988,587.135559,717,588.970032C723.939453,592.531006,743.849792,604.105225,748,606.990845C753.89624,611.090576,781.880493,624,784.871277,624C785.507019,624,786.808533,624.416809,787.76355,624.92627C788.718628,625.435669,794.224976,627.46936,800,629.445557C811.718323,633.455505,821.256104,637.890686,828,642.46582C830.474976,644.144897,833.84613,646.189453,835.491333,647.009338C840.362305,649.436646,846.67865,656.608643,848.403381,661.670532C853.055603,675.323975,846.7724,690.248108,834.127869,695.578491C830.310913,697.1875,820.995483,697.333923,816.5,695.855469z"/>
</svg>
