<?xml version="1.0" encoding="UTF-8"?>
<svg xmlns="http://www.w3.org/2000/svg" width="333.109mm" height="300.030mm" viewBox="-939.651550 -644.768738 333.109436 300.029572">
    <path transform="matrix(-1,0,0,-1,179.904846,91.245209)" style="stroke:#000000;stroke-width:0.05mm;fill:none" d="M1091.847656,574.792969C1102.300049,585.195007,1110.160034,597.909973,1114.792969,611.910156C1122.650024,635.724976,1120.72998,661.685974,1109.457031,684.085938C1105.209961,692.463989,1099.75,700.163025,1093.234375,706.929688C1062.920044,738.726013,1014.599976,745.234985,976.949219,722.59375C968.216003,717.015991,960.176025,710.419983,953,702.945313C943.723022,712.921021,932.73999,721.158997,920.566406,727.273438C893.461975,739.835022,862.007996,738.802979,835.785156,724.492188C817.020996,714.286987,802.28302,698.005981,793.992188,678.320313C778.890015,642.939026,786.872009,601.927979,814.140625,574.792969L953,435.984375L1091.847656,574.792969z"/>
</svg>
