<?xml version="1.0" encoding="UTF-8"?>
<svg xmlns="http://www.w3.org/2000/svg" width="200.000mm" height="142.978mm" viewBox="-917.950500 -522.564270 200.000000 142.978271">
    <path transform="matrix(-1,0,0,-1,0,0)" style="stroke:none;fill:#000000;fill-rule:evenodd" d="M729.9505,483.618683C732.364624,482.326691,734.500488,479.518677,734.9505,478.618683C736.357239,477.437225,739.555359,472.849762,744.9505,470.618683C749.534607,468.722961,752.141541,467.985443,753.696716,467.851868C754.78479,467.816895,757.415771,468.250732,760.9505,467.618683C762.490662,467.343292,763.500488,466.768677,763.9505,466.618683C764.850525,466.768677,766.945068,467.58374,769.9505,467.618683C773.444214,467.659302,773.432739,467.868683,776.9505,467.618683C781.925354,467.265137,784.4505,466.618683,786.9505,466.618683C788.000488,466.918671,790.4505,467.618683,793.9505,468.618683C797.4505,469.618683,799.900513,470.318695,800.9505,470.618683C801.550476,470.618683,802.95459,470.528137,804.9505,470.618683C810.461853,470.868683,810.447266,471.156891,815.9505,471.618683C822.446716,472.163788,822.504211,471.729431,828.9505,472.618683C833.992493,473.314209,837.4505,474.318695,838.9505,474.618683L846.9505,479.618683L846.9505,479.618683L860.9505,486.618683L862.779907,488.958893C862.655518,489.057861,863.958191,490.279602,863.9505,490.618683C863.92804,491.613434,863.707947,491.151306,864.293762,491.66217C864.893738,494.062164,865.829163,500.08316,868.9505,507.618683C870.054077,510.282898,871.500488,511.868683,871.9505,512.618652L874.9505,516.618652C876.2005,517.618652,878.7005,519.618652,879.9505,520.618652C881.45636,520.766235,884.468079,522.061523,885.973938,522.209106C887.104736,522.115234,890.027893,523.193726,893.489075,521.992798C895.862976,521.169189,897.165466,519.557129,897.81427,519.127319C898.56427,518.299438,901.7005,517.340942,902.9505,514.099243C903.534668,512.584229,901.799133,512.77002,902.9505,510.618683C903.589172,509.425293,904.650513,508.918671,904.9505,508.618683C906.000488,507.868683,906.276978,508.830444,909.9505,506.618683C912.815186,504.893921,915.050476,504.068695,915.9505,503.618683C916.4505,502.868683,917.4505,501.368683,917.9505,500.618683C917.4505,499.868683,916.4505,498.368683,915.9505,497.618683C915.2005,496.618683,913.7005,494.618683,912.9505,493.618683C912.650513,493.318695,912.130371,492.312927,910.9505,491.618683C907.913574,489.831726,907.520508,490.118683,903.9505,489.618683C901.498596,489.275269,899.7005,489.618683,898.9505,489.618683L894.9505,491.618683C894.500488,491.468689,892.7005,489.659241,891.9505,488.618683C890.527466,486.644348,891.9505,486.118683,891.9505,484.618683L892.9505,478.618683L894.9505,472.618683L896.9505,465.618683C896.9505,463.868683,896.9505,460.368683,896.9505,458.618683C896.2005,456.618683,894.7005,452.618683,893.9505,450.618683C893.2005,449.618683,891.7005,447.618683,890.9505,446.618683C890.0755,445.243683,888.3255,442.493683,887.4505,441.118683L886.9505,439.618683C887.850525,437.818695,893.001892,432.927155,893.9505,426.618683C894.380554,423.758545,892.100525,422.518677,891.9505,421.618683C891.2005,418.868683,889.7005,413.368683,888.9505,410.618683L884.9505,403.618683C883.9505,402.868683,881.9505,401.368683,880.9505,400.618683L877.9505,402.618683C877.800476,403.518677,876.635742,405.706757,876.9505,408.618683C877.229187,411.196655,878.650513,412.868683,878.9505,413.618683L882.9505,416.618683C883.7005,418.118683,885.2005,421.118683,885.9505,422.618683C885.650513,423.218689,885.40918,425.043457,883.9505,426.618683C882.048584,428.672516,879.7005,429.168671,878.9505,429.618683C878.500488,429.768677,877.491089,430.368683,875.9505,430.618683C874.489014,430.855865,873.400513,430.618683,872.9505,430.618683C872.4505,427.618683,871.4505,421.618683,870.9505,418.618683C870.7005,416.618683,870.2005,412.618683,869.9505,410.618683C869.9505,408.618683,869.9505,404.618683,869.9505,402.618683L870.9505,395.618683C871.2005,394.368683,871.7005,391.868683,871.9505,390.618683C871.9505,390.168671,871.420166,388.899017,871.9505,387.618683C872.9505,385.204468,874.607483,385.990662,875.9505,383.618683C876.929382,381.889801,876.800476,380.218689,876.9505,379.618683C875.900513,379.618683,870.265747,379.83606,866.9505,380.618683C864.832458,381.118683,863.550476,379.318695,862.9505,379.618683C862.800476,380.368683,862.2005,385.093933,861.9505,387.618683C861.803406,389.104126,861.9505,390.168671,861.9505,390.618683C861.800476,391.668671,861.419739,394.114563,860.9505,397.618683C860.415466,401.613983,859.977905,401.615448,859.9505,405.618683C859.919678,410.115051,861.712952,410.343842,860.9505,414.618683C860.573975,416.729889,859.250488,418.018677,858.9505,418.618683C857.750488,419.068695,855.001038,420.270599,850.9505,421.618683C839.09845,425.563202,839.152222,426.093475,826.9505,428.618683C823.015564,429.433044,820.150513,429.468689,818.9505,429.618683C817.900513,429.618683,815.124512,430.635864,811.9505,429.618683C808.049927,428.368683,806.000488,425.368683,804.9505,424.618683C803.2005,422.118683,802.644592,419.921631,797.9505,416.618683C793.565857,413.533508,791.3573,414.688171,786.9505,411.618683C783.625671,409.302826,782.7005,405.668671,781.9505,404.618683C781.650513,404.018677,780.4505,402.736725,779.9505,400.618683C779.391479,398.250641,779.9505,396.368683,779.9505,395.618683L780.9505,392.618683L785.9505,392.618683L787.9505,391.618683L789.9505,388.618683L784.9505,387.618683L781.9505,386.618683L778.9505,386.618683L773.9505,388.618683L770.9505,392.618683C770.800476,393.368683,770.2005,395.093933,769.9505,397.618683C769.705383,400.094421,769.9505,401.868683,769.9505,402.618683C769.9505,403.618683,769.9505,405.618683,769.9505,406.618683L769.9505,409.618683C768.150513,408.418671,763.324768,406.332123,757.9505,401.618683C753.989319,398.144562,752.000488,394.818695,750.9505,393.618683C750.350525,392.718689,748.520569,390.828949,746.9505,387.618683C746.261963,386.210876,745.493408,385.722229,745.9505,384.618683C746.596924,383.058014,749.350525,382.918671,749.9505,382.618683L747.9505,380.618683L741.9505,379.618683L737.9505,380.618683C737.800476,381.218689,736.582031,382.794067,736.9505,384.618683C737.397339,386.83136,738.69281,386.47641,739.9505,388.618683C742.427856,392.83844,741.683716,393.257355,743.9505,397.618683C746.634583,402.782867,746.14917,403.328766,749.9505,407.618683C753.667053,411.812927,755.641846,410.222107,758.9505,414.618683C762.075867,418.771759,760.67395,419.747955,762.9505,424.618683C766.07135,431.295868,767.113464,430.553253,769.9505,437.618683C771.541931,441.58197,770.140747,442.76413,771.9505,446.618683C773.658203,450.25592,775.350525,452.568695,775.9505,453.618683C775.650513,454.068695,775.346375,455.769135,773.9505,456.618683C770.444763,458.752319,768.558838,459.179749,764.9505,457.618683C762.95813,456.756714,763.022583,455.826477,761.9505,453.618683C758.621887,446.763855,758.550476,440.868683,757.9505,438.618683C757.500488,436.668671,755.734558,426.892914,754.9505,425.618683C754.091858,430.716583,752.400513,443.468689,751.9505,446.618683C751.2005,444.068695,749.919312,432.792358,746.9505,429.618683C746.085876,436.6026,743.550476,441.518677,742.9505,443.618683L738.9505,428.618683C738.2005,429.518677,739.017761,456.025452,733.9505,434.618683C733.942017,448.617065,733.100525,453.318695,732.9505,456.618683C732.500488,453.918671,729.267456,447.566956,727.9505,438.618683C726.344666,446.501587,728.250488,455.618683,727.9505,458.618683C726.900513,457.418671,722.406006,454.740631,720.9505,450.618683C720.013611,447.965454,720.9505,464.218689,720.9505,466.618683C721.80603,469.680176,718.7005,465.868683,717.9505,465.618683L720.9505,477.618683L723.9505,482.618683C725.150513,482.768677,727.049133,485.171448,729.9505,483.618683z"/>
</svg>
