<?xml version="1.0" encoding="UTF-8"?>
<svg xmlns="http://www.w3.org/2000/svg" width="515.599mm" height="412.735mm" viewBox="-674.031982 -698.194580 515.598511 412.735168">
    <path transform="matrix(-1,0,0,-1,0,0)" style="stroke:none;fill:#000000;fill-rule:evenodd" d="M614.747314,698.096191C614.412964,697.97168,613.839722,697.375122,613.473389,696.77063C613.106995,696.166016,611.820068,694.638428,610.613525,693.375977C609.406921,692.113464,607.870972,690.284424,607.200195,689.311401C605.712524,687.153198,604.263367,685.910706,600.098999,683.2229L596.893799,681.154297L592.495361,680.464417C590.076233,680.084961,587.518738,679.569946,586.812073,679.319946C584.606445,678.539673,576.907471,674.415894,572.947693,671.893799C567.71228,668.559326,564.045105,666.359741,563.395142,666.164063C563.093811,666.073364,560.200317,665.797729,556.96521,665.551514C553.730103,665.305298,550.089966,664.909912,548.875977,664.672913C544.477539,663.814087,540.255066,661.625793,535.977478,657.988037C534.554932,656.778198,532.959473,655.428833,532.432129,654.98938C531.601135,654.296997,530.963379,654.115662,527.64917,653.629761C523.1427,652.969116,521.382568,652.223755,518.356323,649.694397C516.312134,647.98584,515.136597,646.399902,512.634827,641.975464C509.645111,636.688049,507.068695,634.503906,501.885284,632.862549C500.191528,632.326233,497.785492,631.410034,496.538544,630.826538C495.291656,630.243103,493.561432,629.51593,492.693665,629.210571C490.848633,628.561401,489.797394,627.896484,486.747925,625.450073C485.515594,624.461365,483.366974,622.753906,481.973206,621.65564C479.85614,619.987549,479.003479,619.043213,476.791534,615.917114C472.304871,609.576172,471.677795,608.556824,470.076508,605.002075C469.223419,603.108398,467.963226,600.708252,467.276001,599.668579C465.720093,597.314453,465.569458,596.923828,466.012054,596.390625C466.569489,595.718933,468.37735,595.884766,470.743317,596.824646C474.044983,598.13623,476.051483,597.876953,476.051483,596.138916C476.051483,593.550659,473.666016,589.945801,469.847382,586.76355C466.195587,583.720337,465.83136,583.520142,463.552216,583.302368C461.286102,583.085938,459.318665,582.240845,456.970764,580.475525C455.925964,579.689941,455.1073,578.669067,453.958008,576.718384C452.140564,573.633789,450.24826,571.625061,447.631256,570.002319L445.789154,568.860107L441.523407,568.824219C436.949982,568.785767,436.752747,568.721558,436.749542,567.270996C436.746948,566.100098,438.020355,563.769653,439.362762,562.488647C441.332977,560.608643,445.166229,558.462036,448.219452,557.528931C451.643677,556.482544,454.799774,556.055176,460.775299,555.828735L465.482056,555.650452L461.226379,552.228577C453.76889,546.232117,451.7453,545.210144,444.48938,543.775757C435.199768,541.939209,433.555908,541.74707,425.935944,541.606445C421.48465,541.524231,418.348969,541.584473,417.758514,541.76355C417.231781,541.923218,414.120819,542.17218,410.845276,542.316711C403.78595,542.628235,400.865631,542.955078,397.002777,543.866028C395.424683,544.238159,393.1651,544.699341,391.981537,544.890869C390.797974,545.082397,387.699158,545.739014,385.095276,546.350037C382.491394,546.96106,378.617859,547.65448,376.487427,547.89093C366.428772,549.007507,362.375977,549.313599,356.337341,549.412903C350.545288,549.508179,349.470795,549.451294,346.72522,548.904053C337.531189,547.071411,331.085724,544.948975,322.401459,540.894531C320.349915,539.936768,318.276276,539.078552,317.793365,538.987427C317.189728,538.873535,315.79364,539.186646,313.325623,539.989624C308.332916,541.613892,307.796204,541.655029,303.460663,540.746216C301.443756,540.323486,299.199158,539.781189,298.472656,539.54126C295.353149,538.510925,287.051697,533.749878,284.813843,531.707642C284.340424,531.275574,282.855591,530.162598,281.514191,529.234375C277.409454,526.394043,271.101624,519.612854,268.119568,514.834717C266.411377,512.097656,264.524597,507.39978,263.421692,503.137634C262.932373,501.246643,262.220001,498.822113,261.838654,497.749786C261.457306,496.67749,260.365112,493.062195,259.41153,489.71582C257.505249,483.026123,256.22876,480.091309,253.332489,475.739349C251.084167,472.360962,248.684036,469.934875,245.806427,468.131775C235.596832,461.734497,228.689041,456.88855,225.230682,453.69754C222.792114,451.447479,218.511475,444.890076,216.243256,439.929932C214.381348,435.858337,213.867615,434.285736,213.225723,430.693237C212.824142,428.445679,210.827759,423.23114,209.066864,419.830261C206.947845,415.737732,199.600891,406.217712,194.832916,401.386169C191.099655,397.603149,190.480164,397.09671,188.405991,396.132111C187.143509,395.544983,185.529541,394.763672,184.819397,394.395813C184.109253,394.027954,182.467194,393.565491,181.170395,393.368103C178.860748,393.016571,178.195892,393.08551,176.241699,393.879395C175.447632,394.201965,176.115005,391.582367,177.624786,388.450439C179.301254,384.972778,178.527863,385.473419,184.205536,384.190369C185.957733,383.794373,187.240875,383.355469,187.330719,383.121338C187.563873,382.513763,186.760666,381.071045,185.262543,379.406403C184.143494,378.162994,183.186783,377.540009,179.754578,375.819824C174.244934,373.058411,172.817154,371.919128,171.498672,369.232117C170.898102,368.008179,170.220871,365.946899,169.868164,364.269379C169.33075,361.713226,169.299942,361.118286,169.585907,358.817749C170.025253,355.283386,169.5914,353.784607,167.234344,350.694275C165.851517,348.881226,165.405212,348.627747,161.90979,347.670105C160.43515,347.266083,159.047134,346.784912,158.825317,346.60083C158.199661,346.081573,158.333466,344.96814,159.067581,344.584808C159.422668,344.399414,160.306183,343.698517,161.030975,343.027313C162.714706,341.468018,163.538879,341.052673,166.332779,340.355469C171.970123,338.948669,173.532974,338.96106,179.314377,340.458496C180.78421,340.839172,184.850174,341.555908,188.349838,342.051208C197.885147,343.400787,200.387543,344.29303,207.305695,348.810089C213.397141,352.787354,215.097275,354.55542,220.144089,362.16153C223.084351,366.592834,223.562393,367.333649,226.166504,371.494232C228.525131,375.262665,229.919464,376.799896,233.016357,379.046173C238.312225,382.887451,241.481674,385.552155,244.381561,388.60144C248.74411,393.188721,249.5914,394.928284,252.375214,405.013184C254.5168,412.771545,254.464249,412.655334,258.945862,419.542267C263.908478,427.168335,264.852905,428.375519,270.467468,434.269562C275.480896,439.532593,276.637482,441.088043,279.008972,445.756958L280.757874,449.200104L280.963043,448.052399C281.773987,443.516357,282.080872,431.311401,281.490692,427.068207C280.94281,423.129181,279.613373,420.297028,277.129761,417.778015C275.482697,416.107483,274.037598,415.609802,268.847595,414.925598C266.537415,414.621063,264.211731,414.18988,263.679352,413.967468C262.119965,413.315918,261.056641,411.816833,259.859467,408.582214C258.465149,404.81488,257.815063,403.498108,255.385498,399.519623C251.509705,393.172913,250.293549,390.119659,249.516693,384.785431C248.962494,380.97998,248.744583,380.271759,246.514893,375.029175C245.60881,372.898743,244.575775,370.251831,244.219238,369.147156C243.862701,368.04248,242.947662,365.589233,242.185791,363.695526C241.423935,361.801788,240.328995,358.973511,239.752609,357.4104C237.897339,352.379211,231.823914,340.286987,227.993744,333.998474C224.726746,328.634552,223.823914,326.962402,223.965881,326.53833C224.045135,326.301605,224.512177,324.945862,225.003799,323.525574C225.530807,322.002991,225.917328,320.279053,225.945618,319.32489C226.022202,316.741211,225.248215,316.172333,218.727966,314.019653C214.342407,312.571777,212.894089,311.770721,212.183258,310.399841C210.77475,307.683411,211.80899,293.574493,213.805298,288.272217C215.347168,284.176971,217.05275,284.446075,223.182251,289.751709C225.365021,291.641083,227.251587,293.987244,230.498138,298.849762C231.867889,300.901306,234.45076,304.207733,236.237854,306.197418C239.931503,310.309753,240.873016,311.840485,241.336884,314.487335C241.516647,315.513123,242.125198,317.32077,242.689209,318.504333C243.253235,319.687927,244.159943,322.200989,244.704132,324.088959C245.248306,325.976929,245.836365,327.784576,246.010956,328.105957C246.185516,328.427338,246.803741,330.046021,247.384796,331.703033C251.050964,342.158081,252.464798,345.959839,253.68045,348.631805C254.434326,350.288818,255.856354,353.516754,256.840485,355.804993C259.928131,362.984192,263.701935,369.920288,266.660217,373.853333C268.82312,376.728912,273.485657,381.282654,276.10141,383.074188C278.773407,384.904297,283.39679,387.100372,286.105042,387.825897C287.081482,388.087494,290.093018,388.340515,294.004089,388.489563L300.325073,388.730469L304.252136,390.042725C310.887573,392.259949,315.484314,394.73111,320.455872,398.753632C322.814575,400.662109,323.898224,401.263062,330.460205,404.301788C338.578796,408.061371,340.569092,409.155548,341.777161,410.523315C343.347961,412.301727,346.226624,417.664429,347.778381,421.703064C348.322754,423.119812,349.115295,424.538086,349.782684,425.289642L350.886536,426.532776L353.013977,426.532776C356.648254,426.532776,359.601379,424.772247,367.380859,417.967896C373.091614,412.9729,380.513184,407.853912,385.669128,405.353607C392.11853,402.226074,395.937988,400.040588,396.712646,399.034607C397.097046,398.535339,398.610779,396.486816,400.076447,394.482239C401.542145,392.477692,403.518402,389.83078,404.46814,388.60022C406.979431,385.346405,407.83313,383.90744,409.716431,379.75412C414.288635,369.670715,415.394714,366.275146,416.652954,358.4599C417.501801,353.187622,418.448212,351.781464,422.539398,349.713989C425.633484,348.150391,427.837341,346.40097,429.331146,344.322693C430.014374,343.372162,430.961914,342.055359,431.436859,341.396545C432.100677,340.475616,433.050446,339.796997,435.544647,338.461456C437.329041,337.506012,439.845612,335.932281,441.137054,334.964294C442.428528,333.996307,444.836975,332.451508,446.489227,331.531403C448.141479,330.611298,450.336487,329.216431,451.367004,328.431702C457.519043,323.746948,463.4534,318.825958,466.582855,315.814117C468.555481,313.915649,471.119141,311.452454,472.279877,310.340363C473.440613,309.228271,474.980835,307.543671,475.702576,306.596832C480.42926,300.395935,480.377991,300.429779,483.959534,301.140472C485.345703,301.415527,486.856537,301.550201,487.403992,301.44751C488.78772,301.187927,493.184418,298.931976,495.203674,297.445496C497.219177,295.961761,497.937561,295.021057,499.025848,292.440674C499.803802,290.5961,499.875671,290.520569,501.068817,290.293915C501.748932,290.164703,504.761993,290.136566,507.764465,290.231415L513.223572,290.403809L513.998596,288.823608C514.57373,287.650818,514.973877,287.193146,515.550537,287.048431C515.977905,286.941162,520.273987,286.935089,525.097534,287.034882C531.766479,287.172882,534.520508,287.123138,536.593323,286.827209C539.706909,286.38266,540.610352,286.562378,540.610352,287.626251C540.610352,288.284943,538.110291,294.189606,535.996826,298.52243C534.63855,301.30719,532.904785,302.740051,527.617554,305.447388C524.348572,307.121307,522.926636,308.023499,521.959961,309.037292C520.611145,310.451843,517.568787,315.589661,515.769409,319.491791C514.348145,322.574036,512.359253,328.701477,511.64917,332.185547C510.8479,336.117584,510.383759,342.822144,510.58017,347.627533C510.757507,351.967041,510.937744,353.183838,512.219971,358.699341C513.517029,364.278442,513.915039,368.552429,513.727417,374.885712C513.610352,378.836639,513.698486,381.798584,514.047485,385.645508C514.973083,395.849731,517.140869,409.830505,518.518677,414.481812C518.986145,416.059906,519.544617,418.38797,519.759766,419.655273C520.220459,422.369476,520.505615,422.977478,521.748657,423.895996C523.596558,425.261475,529.005127,427.928253,530.602783,428.261658C533.69165,428.90625,539.427002,432.631226,550.441162,441.146301L552.094604,442.424561L553.794189,441.581299C556.353088,440.311676,558.450806,439.851624,562.513794,439.669067L566.197266,439.50351L568.826172,440.543945C579.251343,444.6698,590.949829,448.587341,596.417847,449.783722C598.311584,450.198059,601.797729,451.09845,604.164917,451.784607C606.532104,452.470734,610.276489,453.501892,612.48584,454.07608C614.69519,454.650269,618.691223,455.706238,621.365967,456.422668C627.409302,458.041321,628.438477,458.029297,631.90979,456.299133C634.297729,455.108948,639.938965,451.080139,641.980225,449.107056C643.356934,447.776398,644.221802,445.925964,646.568604,439.289978C650.379883,428.513123,651.880005,421.716797,652.143188,414.034393C652.329468,408.599182,652.2854,408.386993,650.200317,404.669617C649.045349,402.610657,648.783447,401.88678,648.782959,400.752625C648.782349,399.565796,648.913208,399.239075,649.67334,398.528931C650.163513,398.071106,650.676636,397.696503,650.813721,397.696503C651.400879,397.696503,651.944458,395.883453,652.011414,393.701752C652.074646,391.642059,652.014343,391.337067,651.42749,390.74884C650.821045,390.141052,650.526306,390.092407,647.410522,390.085938C644.331055,390.07959,643.924561,390.014496,642.58252,389.312805C637.751221,386.786865,637.395569,384.212769,640.271912,372.590302C641.131104,369.118469,642.045044,364.928406,642.302734,363.279083C642.820801,359.964355,643.40332,358.670441,644.560791,358.263397C645.21167,358.034454,645.496521,358.126648,646.410645,358.861969C648.618713,360.638275,663.091248,378.333313,664.492065,380.969421C664.978149,381.884277,665.894958,384.450378,666.529358,386.671844C667.89563,391.456146,668.687378,393.330505,670.481995,396.03009C671.27887,397.22876,672.262878,399.304565,672.924255,401.182251C673.889221,403.921692,674.031921,404.653748,674.031921,406.863495C674.031921,410.129059,673.667908,411.282654,669.614258,420.863953C664.044556,434.028625,661.744385,441.290588,660.684692,449.056641C660.437073,450.87146,659.932373,453.518372,659.56311,454.93866C659.19397,456.358948,658.668091,458.48941,658.394653,459.672974C657.543091,463.358429,656.630737,464.955383,653.394897,468.424316C651.775635,470.160217,649.766052,472.428223,648.929199,473.464386C646.699707,476.224609,643.887695,478.682861,641.531006,479.931824L639.457092,481.030914L632.857727,481.222717C629.228088,481.328247,625.354553,481.494659,624.249878,481.59256C623.145264,481.69043,619.529907,481.672607,616.215942,481.552917C611.528198,481.383667,608.693359,481.446991,603.447632,481.838074C597.18457,482.304993,592.295898,483.104279,591.579834,483.778412C591.443298,483.906921,591.658813,485.018463,592.060913,486.260193C593.664063,491.210602,594.497803,495.208069,595.282959,501.707947C595.883423,506.678192,595.72168,510.432709,594.695801,515.337036C593.745911,519.878479,592.94873,522.186829,590.513489,527.448242C587.627075,533.684326,586.572998,536.728638,585.367798,542.308289C583.126343,552.686523,582.5625,557.277893,582.214355,567.988403C581.820007,580.122986,581.861145,585.989258,582.357056,588.330078C582.587585,589.418091,582.838135,590.370239,582.913818,590.445984C582.989502,590.521667,583.442017,590.255005,583.919312,589.853394C584.396606,589.451721,585.829468,588.567749,587.103394,587.889038C590.243469,586.215942,592.521484,584.336182,595.759521,580.746582C598.797119,577.379272,599.927124,576.377441,605.133667,572.435791C607.113892,570.936523,609.024719,569.27832,609.379883,568.750793C610.595703,566.944946,611.194702,564.829468,611.194702,562.341553L611.194702,560.015869L612.557556,558.663757C613.702271,557.528076,614.356812,557.167542,616.646301,556.411255C618.145508,555.916016,620.146851,555.369385,621.093689,555.196472C622.040527,555.02356,623.414551,554.625488,624.146973,554.31189C625.355835,553.794189,626.00415,553.750244,631.176697,553.835205C636.6604,553.925354,636.936462,553.957825,638.516052,554.69812C640.766724,555.753052,642.285645,557.425842,644.478333,561.264648C645.549438,563.139771,646.871582,565.021606,647.58429,565.685181C648.266724,566.320679,649.003052,567.17749,649.22052,567.589233C649.449585,568.022888,649.748779,570.140015,649.931885,572.622437C650.241577,576.821045,650.233704,576.951782,649.539917,579.136536C648.966125,580.943359,648.552246,581.661743,647.356445,582.926147C646.544861,583.78418,645.643799,585.035156,645.354065,585.705933C639.753052,598.673218,638.266846,602.820435,635.867798,612.177429C633.803955,620.227051,633.516479,624.619568,634.722412,629.677917C635.168396,631.548706,635.043701,633.459595,634.195679,637.749878L633.394226,641.80481L631.892883,643.488403C628.702209,647.066528,626.197876,651.58252,625.390137,655.214478C623.92511,661.802612,622.889404,664.139038,619.937378,667.515625C616.986572,670.890869,616.61145,671.782593,617.93103,672.284302C619.032471,672.703064,622.039185,677.056763,623.481201,680.32074C627.664551,689.789673,628.131775,692.084778,625.876221,692.084778C624.828613,692.084778,623.451538,691.109192,621.786865,689.187622C620.965332,688.23938,619.569458,686.914429,618.684937,686.243286C617.062134,685.012085,613.34845,682.61615,613.062866,682.61615C612.977966,682.61615,613.113892,683.100342,613.36499,683.692139C615.103271,687.789795,617.55481,694.687317,617.559204,695.492798C617.568481,697.191345,616.062134,698.585938,614.747314,698.096191M430.25174,425.955292C435.001434,425.74646,440.24826,425.214661,447.071747,424.250519C449.833435,423.860291,455.127228,423.269836,458.835815,422.938416C462.544373,422.606995,466.417877,422.202576,467.443634,422.039734C468.469391,421.876892,473.541992,421.65918,478.716034,421.555847C486.190369,421.406677,488.173096,421.287781,488.36496,420.977295C488.785187,420.297272,489.035522,414.068054,489.260132,398.700745C489.472778,384.152039,489.967743,374.529083,490.795532,368.851654C491.069885,366.969879,491.548096,365.3992,492.542603,363.113098C493.295776,361.381897,494.150208,359.304077,494.441406,358.495728C495.17099,356.470551,495.828522,349.615295,496.144348,340.741272C496.476135,331.419342,497.174713,320.772583,497.725067,316.650818C498.428589,311.381805,498.575592,311.547333,495.490875,314.135223C492.499725,316.644562,490.510925,317.943207,485.9505,320.364716C481.854614,322.539551,480.362457,323.568268,476.194946,327.090271C474.301239,328.690704,470.251068,332.018005,467.194611,334.484283C461.510986,339.070496,458.584412,342.13446,454.734894,347.529114C452.861572,350.154327,452.24881,351.618683,450.091309,358.626434C447.949188,365.584045,447.773712,365.977448,444.8862,370.294861C442.298035,374.164734,441.551514,376.1474,439.459198,384.708313C438.581116,388.301086,437.473572,392.596375,436.998016,394.253357C435.924957,397.992249,432.529968,406.859802,428.209869,417.207642C426.398071,421.547424,424.801666,425.394318,424.662354,425.756287C424.424957,426.373169,424.467407,426.405548,425.339264,426.27243C425.850861,426.194305,428.061462,426.051575,430.25174,425.955292"/>
</svg>
