<?xml version="1.0" encoding="UTF-8"?>
<svg xmlns="http://www.w3.org/2000/svg" width="70.777mm" height="187.777mm" viewBox="-1250.666748 -737.612793 70.777466 187.776855">
    <path transform="matrix(-1,0,0,-1,0,0)" style="stroke:#000000;stroke-width:0.05mm;fill:none" d="M1193.09375,549.839844C1193.214355,549.840637,1193.333252,549.858093,1193.453125,549.871094L1193.613281,549.90625C1193.85498,549.980957,1194.084839,550.088501,1194.296875,550.226563C1194.454712,550.334351,1194.597046,550.463806,1194.710938,550.617188C1194.761597,550.677002,1194.802002,550.744019,1194.839844,550.8125C1194.853027,550.866028,1194.869263,550.918823,1194.882813,550.972656C1194.899292,551.032715,1194.918579,551.091919,1194.945313,551.148438C1195.312866,551.802673,1195.734863,552.424561,1196.207031,553.007813C1196.797119,553.733215,1197.276245,554.54248,1197.625,555.410156C1197.720581,555.873352,1197.820435,556.335815,1197.925781,556.796875C1198.161865,557.747437,1198.622803,558.627747,1199.269531,559.363281C1199.509399,559.658264,1199.729126,559.969177,1199.921875,560.296875C1200.028076,560.484619,1200.125244,560.677429,1200.191406,560.882813C1200.210205,560.958679,1200.218018,561.036011,1200.226563,561.113281C1200.274292,564.263733,1200.309692,567.438477,1200.332031,570.589844C1200.412109,576.005249,1201.047974,581.398376,1202.230469,586.683594C1202.644531,588.55365,1203.063477,590.410889,1203.492188,592.277344C1203.776611,593.732971,1203.943481,595.209045,1203.992188,596.691406C1204.088379,599.648376,1204.190186,602.555298,1204.300781,605.511719C1204.322266,606.202209,1204.37207,606.891602,1204.449219,607.578125C1204.463379,607.619019,1204.476685,607.660156,1204.496094,607.699219C1204.714844,608.563293,1204.880371,609.439941,1204.992188,610.324219C1205.496338,613.648438,1205.910522,616.985474,1206.234375,620.332031C1206.448608,622.568481,1206.768066,624.793518,1207.191406,627C1207.58728,628.920471,1208.138672,630.805542,1208.839844,632.636719C1208.893677,632.803162,1208.97583,632.959412,1209.078125,633.101563C1209.107178,633.13501,1209.133789,633.170349,1209.164063,633.203125C1209.185791,633.20343,1209.207275,633.206482,1209.230469,633.199219C1209.25354,633.138123,1209.281372,633.078979,1209.300781,633.015625C1209.519653,632.031555,1209.652344,631.030457,1209.699219,630.023438C1209.906616,626.243164,1209.936646,622.455078,1209.789063,618.671875C1209.719849,616.791992,1209.72998,614.910217,1209.820313,613.03125C1209.906738,612.196472,1210.031982,611.36615,1210.195313,610.542969C1210.402954,609.519958,1210.346436,608.460022,1210.03125,607.464844C1209.811523,606.748596,1209.58374,606.035217,1209.347656,605.324219C1209.085571,604.294678,1208.94519,603.238098,1208.929688,602.175781C1208.905151,599.735107,1208.975586,597.294556,1209.140625,594.859375C1209.349976,591.678467,1209.500977,588.494995,1209.59375,585.308594C1209.69397,581.051758,1209.640503,576.792236,1209.433594,572.539063C1209.314087,570.194275,1209.125366,567.853088,1208.867188,565.519531C1208.772583,564.655762,1208.739502,563.786377,1208.769531,562.917969L1208.785156,562.835938C1208.837891,562.767395,1208.910645,562.719116,1208.992188,562.691406C1209.846558,562.332764,1210.717285,562.014832,1211.601563,561.738281C1212.587158,561.439087,1213.542114,561.046936,1214.453125,560.566406C1215.505981,559.977783,1216.388672,559.126648,1217.011719,558.09375C1217.449219,557.337769,1217.923828,556.60376,1218.433594,555.894531C1218.786377,555.382568,1219.263916,554.96875,1219.824219,554.699219C1220.127441,554.572205,1220.447021,554.488037,1220.773438,554.449219C1221.567139,554.322632,1222.332764,554.05658,1223.027344,553.652344C1223.63501,553.398254,1224.286621,553.265442,1224.945313,553.261719C1225.652344,553.23468,1226.358765,553.327698,1227.035156,553.535156L1227.289063,553.632813L1227.628906,553.808594L1227.9375,554.039063C1228.137695,554.221985,1228.315674,554.427368,1228.472656,554.648438C1228.801636,555.153992,1229.031372,555.717651,1229.152344,556.308594C1229.516846,557.973816,1229.183716,559.715759,1228.230469,561.128906L1227.941406,561.480469C1227.354736,562.062805,1226.653564,562.515503,1225.886719,562.824219C1225.045288,563.184082,1224.265381,563.673584,1223.574219,564.273438C1222.144287,565.43335,1220.912964,566.818298,1219.929688,568.375C1219.604614,568.948486,1219.330688,569.549561,1219.113281,570.171875C1218.980103,570.721313,1218.929077,571.287964,1218.972656,571.851563C1219.026489,573.595886,1219.228027,575.33252,1219.574219,577.042969C1220.017822,579.367493,1220.507568,581.683167,1221.042969,583.988281C1221.67627,586.752563,1222.2052,589.539734,1222.628906,592.34375C1222.956421,594.883423,1223.165039,597.436951,1223.253906,599.996094C1223.44397,604.171692,1224.012817,608.321716,1224.953125,612.394531C1226.225708,617.766235,1227.117065,623.221497,1227.621094,628.71875C1228.037964,632.7005,1228.375122,636.688599,1228.632813,640.683594C1228.77478,642.80127,1228.766846,644.926392,1228.609375,647.042969C1228.504639,648.092651,1228.342651,649.135803,1228.125,650.167969C1227.763306,652.381958,1227.511719,654.61261,1227.371094,656.851563C1227.221802,658.744019,1226.970215,660.626953,1226.617188,662.492188C1226.21106,664.227661,1225.900757,665.984314,1225.6875,667.753906C1225.548462,669.255981,1225.614868,670.770081,1225.886719,672.253906C1226.369385,675.416931,1226.975342,678.560059,1227.703125,681.675781C1227.832397,682.201843,1228.006958,682.715759,1228.226563,683.210938C1228.578125,682.890625,1228.944946,682.587708,1229.324219,682.300781C1230.333008,681.621033,1231.39502,681.024048,1232.5,680.515625C1234.945679,679.331177,1237.484131,678.348877,1240.089844,677.578125C1241.020752,677.344421,1241.977661,677.230347,1242.9375,677.238281C1243.812866,677.204224,1244.689575,677.24115,1245.558594,677.351563L1245.882813,677.421875C1246.070679,677.475952,1246.25415,677.543762,1246.433594,677.621094C1246.763306,677.78186,1247.053345,678.014221,1247.277344,678.304688C1247.849121,679.08728,1248.264404,679.972961,1248.496094,680.914063C1248.894775,682.531555,1249.159424,684.179016,1249.289063,685.839844C1249.657959,689.979248,1249.603394,694.145325,1249.125,698.273438C1248.682007,701.198181,1248.424927,704.148132,1248.355469,707.105469C1248.339966,708.036316,1248.507324,708.960876,1248.835938,709.832031C1249.291138,711.327881,1249.641113,712.853699,1249.882813,714.398438C1250.285278,716.604431,1250.542236,718.834534,1250.652344,721.074219C1250.690186,721.784424,1250.65332,722.496643,1250.542969,723.199219C1250.498779,723.413208,1250.446533,723.625549,1250.375,723.832031C1250.098633,724.573669,1249.59314,725.207092,1248.933594,725.644531C1248.624146,725.895081,1248.286987,726.109985,1247.925781,726.277344C1247.876343,726.286621,1247.826904,726.295837,1247.777344,726.304688C1247.41394,726.467468,1247.081055,726.690552,1246.785156,726.957031C1246.20105,727.422974,1245.536133,727.777283,1244.824219,728.003906C1243.806641,728.365967,1242.726685,728.520752,1241.648438,728.457031C1241.280151,728.438171,1240.917969,728.354065,1240.578125,728.210938L1240.304688,728.066406C1240.206543,727.999634,1240.11731,727.921387,1240.03125,727.839844C1239.905029,727.683594,1239.803223,727.510132,1239.71875,727.328125C1239.53479,726.777893,1239.41748,726.20752,1239.375,725.628906L1239.347656,725.378906C1239.21582,723.767944,1239.122192,722.154419,1239.066406,720.539063C1239.03064,719.44519,1238.938354,718.353821,1238.789063,717.269531C1238.775024,717.230286,1238.763672,717.190369,1238.746094,717.152344C1238.72522,717.148743,1238.707153,717.139404,1238.683594,717.140625C1238.586304,717.167603,1238.491333,717.202576,1238.40625,717.257813C1237.837402,717.624817,1237.301514,718.040466,1236.800781,718.496094C1236.358643,718.841675,1235.878296,719.135437,1235.367188,719.367188C1234.890137,719.586182,1234.367432,719.688965,1233.84375,719.652344L1233.597656,719.597656L1233.382813,719.507813C1233.248657,719.434204,1233.136353,719.328918,1233.039063,719.210938L1232.914063,719.003906C1232.809937,718.747314,1232.761841,718.470581,1232.792969,718.195313C1232.837891,717.95752,1232.918457,717.727661,1233.035156,717.515625C1233.450684,716.798157,1233.914673,716.109802,1234.425781,715.457031C1235.546875,714.023071,1236.578857,712.521545,1237.515625,710.960938C1238.615112,709.089294,1239.293579,707.000366,1239.503906,704.839844C1239.80542,701.547974,1239.772705,698.234497,1239.40625,694.949219C1239.358887,694.442505,1239.25415,693.942627,1239.089844,693.460938C1239.059082,693.387878,1239.019043,693.319153,1238.96875,693.257813C1238.942383,693.243042,1238.915771,693.228516,1238.886719,693.21875C1238.564575,693.3703,1238.254517,693.546936,1237.964844,693.753906C1237.150024,694.249817,1236.370728,694.801819,1235.632813,695.40625C1234.980225,695.96875,1234.400269,696.610535,1233.90625,697.316406C1233.20166,698.330383,1232.385376,699.262146,1231.472656,700.09375C1230.426392,700.993774,1229.24353,701.721313,1227.96875,702.25C1227.060181,702.626221,1226.139038,702.971558,1225.207031,703.285156C1222.628418,704.24176,1220.182617,705.524048,1217.929688,707.101563C1217.362671,707.487305,1216.856934,707.956482,1216.433594,708.496094L1216.34375,708.636719C1216.318115,708.712463,1216.283569,708.784546,1216.253906,708.859375C1216.234985,708.933228,1216.214844,709.006653,1216.203125,709.082031C1216.022583,710.495544,1216.05481,711.927734,1216.296875,713.332031C1216.494385,714.138062,1216.782715,714.919067,1217.15625,715.660156C1218.04895,717.441895,1218.858643,719.26416,1219.582031,721.121094C1220.103394,722.414063,1220.441895,723.77356,1220.585938,725.160156C1220.687988,726.540771,1220.427002,727.923889,1219.835938,729.175781C1218.979614,731.036316,1217.773804,732.714355,1216.285156,734.121094C1215.936768,734.464355,1215.527222,734.73999,1215.078125,734.933594L1214.929688,734.984375C1214.788696,735.005676,1214.64502,735.026489,1214.503906,735.046875C1214.433105,735.064697,1214.362427,735.082825,1214.292969,735.105469C1213.511963,735.415955,1212.77002,735.815918,1212.078125,736.292969C1211.286255,736.817505,1210.415649,737.212097,1209.5,737.464844C1208.267578,737.772949,1206.964478,737.605469,1205.847656,737C1204.751099,736.43103,1203.741699,735.707947,1202.847656,734.855469C1201.102783,733.270874,1199.67749,731.366638,1198.648438,729.246094C1198.240967,728.432373,1197.92749,727.575256,1197.710938,726.691406C1197.5448,725.779114,1197.583496,724.841797,1197.820313,723.945313C1198.179077,722.62793,1198.652466,721.344482,1199.234375,720.109375C1200.012817,718.446777,1200.734497,716.758423,1201.398438,715.046875C1201.690063,714.323486,1201.888794,713.56604,1201.992188,712.792969C1202.096558,711.938354,1201.848022,711.078064,1201.304688,710.410156C1200.449829,709.31427,1199.465332,708.325745,1198.371094,707.46875C1196.347534,705.814941,1194.060791,704.512512,1191.605469,703.617188C1190.840576,703.393188,1190.080078,703.155029,1189.324219,702.902344C1188.584961,702.666321,1187.890747,702.306213,1187.273438,701.835938C1186.854858,701.479614,1186.482666,701.071838,1186.167969,700.621094C1185.359863,699.463562,1184.765625,698.170898,1184.410156,696.804688C1183.876343,694.79071,1183.478149,692.743103,1183.21875,690.675781C1182.746582,687.09552,1182.341553,683.505737,1182.003906,679.910156C1181.477051,674.827698,1180.782593,669.763184,1179.921875,664.726563L1179.894531,664.472656C1179.867554,663.577698,1179.920044,662.682007,1180.054688,661.796875C1180.41394,659.160339,1180.860718,656.536499,1181.394531,653.929688C1182.466797,648.522278,1183.391602,643.08667,1184.167969,637.628906C1184.390747,636.094849,1184.730347,634.580078,1185.183594,633.097656C1185.611694,631.647644,1186.31189,630.291809,1187.253906,629.109375C1187.621338,628.722473,1187.951416,628.301453,1188.238281,627.851563C1188.605225,627.164307,1188.860229,626.42334,1188.996094,625.65625C1189.209961,624.523987,1189.397705,623.387085,1189.558594,622.246094C1189.80127,620.681213,1190.159912,619.136292,1190.632813,617.625C1190.888306,616.645569,1191.015015,615.637207,1191.011719,614.625C1191.062256,612.31543,1191.049194,610.004272,1190.972656,607.695313C1190.866699,606.154602,1190.624146,604.626282,1190.246094,603.128906C1189.713745,601.071777,1189.456055,598.952881,1189.480469,596.828125C1189.432007,593.554382,1189.47229,590.279358,1189.601563,587.007813C1189.774902,583.417053,1190.306519,579.852478,1191.1875,576.367188C1191.705566,574.161011,1191.903076,571.891418,1191.773438,569.628906C1191.69104,568.015442,1191.327759,566.429016,1190.707031,564.9375C1189.914307,562.999268,1189.054565,561.089294,1188.128906,559.210938L1186.105469,554.984375C1186.563965,554.080322,1187.052612,553.191772,1187.570313,552.320313C1187.848999,551.826538,1188.201172,551.377747,1188.613281,550.988281C1189.125977,550.563416,1189.741943,550.283508,1190.398438,550.171875C1191.219971,549.999695,1192.052856,549.888062,1192.890625,549.835938L1193.09375,549.839844z"/>
    <path transform="matrix(-1,0,0,-1,0,0)" style="stroke:#000000;stroke-width:0.05mm;fill:none" d="M1190.445313,646.761719L1190.398438,646.777344C1190.363159,646.840088,1190.329468,646.90332,1190.292969,646.964844C1190.042725,647.846252,1189.923218,648.759644,1189.9375,649.675781C1189.948364,652.711975,1190.05127,655.747375,1190.246094,658.777344C1190.383057,661.653687,1190.613647,664.52533,1190.9375,667.386719C1191.102661,668.997375,1191.389526,670.593201,1191.796875,672.160156C1192.013428,672.887939,1192.272095,673.602478,1192.570313,674.300781C1192.703613,673.938782,1192.813721,673.568604,1192.894531,673.191406C1193.040771,672.060974,1193.090088,670.920166,1193.042969,669.78125C1192.911865,665.811829,1192.638306,661.848328,1192.222656,657.898438C1191.967773,654.980347,1191.62793,652.070313,1191.203125,649.171875C1191.108887,648.428711,1190.93396,647.698242,1190.683594,646.992188C1190.653442,646.938599,1190.619873,646.887146,1190.585938,646.835938C1190.553101,646.813782,1190.524902,646.786011,1190.492188,646.761719L1190.445313,646.761719z"/>
</svg>
