<?xml version="1.0" encoding="UTF-8"?>
<svg xmlns="http://www.w3.org/2000/svg" width="220.550mm" height="158.398mm" viewBox="-1181.880127 -817.881958 220.550293 158.397827">
    <path transform="matrix(3.0842,0,0,-3.0842,-3084.574707,-335.797882)" style="stroke:#000000;stroke-width:0.05mm;fill:none" d="M622,130C622.152405,129.669128,622.597717,127.761147,623.016174,127.794182C623.432556,127.827042,623.572327,129.77153,623.670471,130.120468C623.824951,129.702469,624.133911,128.866455,624.288391,128.448456C624.402893,128.639282,624.752502,129.757309,625.051697,129.720642C625.327637,129.686829,625.391541,128.608383,625.451538,128.412109C625.560547,128.757416,625.778687,129.448029,625.887695,129.793335L626.033081,128.339401C626.332947,128.757416,626.932739,129.593414,627.232605,130.011429L627.159912,128.521149C627.476807,128.773346,627.789978,129.63028,628,130C628.053894,129.652771,628.272278,128.117798,628.359375,127.685127C628.451233,127.228798,629.595215,128.797394,629.813293,128.993668C630.036865,128.802841,630.350891,127.276573,630.807007,127.441223C631.25354,127.602386,631.581665,129.328079,631.630737,129.611588C631.715515,129.359756,631.786682,127.999771,632.195923,127.932693C632.799011,127.833817,633.538391,129.699615,633.775269,130.011429L634.320496,128.884628L635.483643,129.139069C635.298279,128.697433,634.539612,127.728996,634.247803,126.194862C633.938843,124.570351,634.591187,124.453972,634.320496,122.814484C634.013916,120.957817,633.930969,120.867973,633.011963,119.216003C631.346985,116.223083,630.941956,116.18351,629.555176,113.114929C628.513367,110.809662,628.938477,110.897163,628.025452,108.808968C627.700012,108.064636,628.113464,107.21637,628,107C627.923035,106.836884,627.370667,106.359131,627.487,105.91256C627.608032,105.448029,627.939148,105.397949,628.504761,105.1856C629.512329,104.807327,629.610901,105.007874,630.722046,104.967506C631.359619,104.944344,631.808289,104.995117,632,105C631.971863,105.136887,632.05719,105.561592,631.812439,105.91256C631.48645,106.379929,630.916504,106.468689,630.758362,106.566833L630.576599,107.475533C630.614746,107.813568,630.452942,108.693977,630.831055,109.729134C631.049561,110.327309,631.448975,110.656013,631.558044,110.819572L631.776123,111.619232L632.21228,112.564293L632.466736,111.255737L632.975586,110.237999L633.230042,109.547394L634.102417,108.63868L634.597717,107.930779L636,108L637.337402,107.83902L638.355164,108.202499L638.355164,108.784073L637.991638,109.511032L637.410095,110.128952L636.610413,110.237999C636.490479,110.259811,636.154358,110.203369,635.810791,110.383392C635.441345,110.576958,635.285583,110.908623,635.192871,111.001312C635.160156,111.186691,634.951599,111.624229,634.974731,112.237152C635.036987,113.886261,635.045898,114.055389,635.810791,115.508492C636.335938,116.506203,637.108398,116.991501,637.337402,117.253197L638.754944,118.779823L640.099854,119.833923L643,122L643.880066,122.341949L644.497986,122.887177L644.788757,123.868584L645.370361,125.576942C645.69751,125.931343,646.351746,126.640129,646.678894,126.994522L647.805664,128.412109L648.750732,128.848282L650,128L651,127L651.513184,127.103569L652.967102,127.539742L653.621399,127.503403L654.857239,126.522003L655,127C655,127.150002,654.853455,127.952568,655,128C655.227844,128.073761,655.774597,126.92907,655.911316,126.740082C656.085815,126.66375,656.487854,126.473457,657.074463,126.231209C657.398804,126.097252,657.630615,126.014938,657.72876,125.976768L656.638306,127.503403L657.983154,126.412949L659,126L658.891907,127.358002L660.60022,125.685989L660.382141,126.631042L662.054199,125.795029L662,127L663.435425,125.649643L664.271423,125.068069L665.180115,124.45015L665.252808,123.505096L665.688965,122.014816C665.667175,121.873062,665.589844,121.544861,665.543579,121.069763C665.501282,120.635933,665.510864,120.633713,665.507263,120.197411C665.501221,119.470642,665.538147,118.961571,665.543579,118.743477L665.834412,117.65303L665.543579,116.780678L665.761719,116.380836L665.810852,117.741257L666.743103,118.052856L665.764832,116.46656C665.80011,116.246567,665.693481,115.090042,666,115C666.342285,114.899452,666.940552,116.050133,667.106567,116.235451L666.379639,113.691078C666.439636,113.598389,666.632935,113.40564,666.779419,113.073158C667.265564,111.969902,667.304626,111.064919,667.397339,110.710533C667.397339,110.710533C667.397339,110.710533,668.046143,111.081284,668.160645,111.146713L668.378784,109.292953L668.887634,108.238853L669.796326,107.584579L672.74054,107.83902L673.612915,108.129799L674,109L673.140381,109.292953L674.412537,109.220253L676.375366,109.511032L676.738831,109.729134L675.248596,110.964973C675.025024,111.10672,674.417969,111.338791,673.758301,111.910019C673.507751,112.126968,673.456665,112.126068,673.322144,112.418892C672.746399,113.67218,672.951355,114.828773,672.885925,115.254051C672.94043,116.126411,673.007568,118.166924,673.24939,121.069763C673.394958,122.81749,673.294739,122.839706,673.612915,124.559189C673.892761,126.071663,673.533936,126.42775,674.412537,127.539742C674.847778,128.090637,675.555725,128.157669,675.757446,128.266708C675.856201,128.478592,676.063171,128.984833,676.415649,129.67926C676.885925,130.605881,677.268127,131.227615,677.418579,131.500854C677.324219,131.660172,677.861633,132.645905,678,133C678.124634,133.318954,678.404968,134.277512,678.564758,134.325378L678.585205,135.266876C678.57428,135.588562,678.56665,135.558838,678.360107,136.59726C678.270447,137.048126,678.224976,137.18277,678.175903,137.313629C678.055969,137.52626,677.80542,138.402634,677.756592,139.134827C677.721375,139.663162,678.127319,140.061707,678.192749,140.225266L679.21051,144.187225C679.325012,144.498001,679.507141,145.262985,679.973816,146.259079C680.204407,146.751282,680.122009,146.88765,680.519043,147.204132C681.238647,147.777756,681.443542,147.676376,682.40918,147.78569C683.138794,147.868286,683.154846,147.67009,683.899414,147.676651C684.299561,147.680176,684.579163,147.738434,684.699097,147.749344C684.894226,147.786942,685.343994,147.920898,686,148C686.400269,148.048264,686.686218,148.034103,686.807312,148.040131C686.900024,148.138275,687.18158,148.32428,687.425232,148.694397C687.896912,149.410858,687.812866,149.478317,688.115845,150.293716C688.283569,150.745148,688.388672,150.749496,688.404419,151.213989C688.419495,151.658386,688.506042,151.998138,688.188538,152.11113C686.587158,152.680984,684.913574,152.976212,684.335632,153.128876C684.139343,153.177948,683.561279,153.108063,683.0271,153.456024C682.534729,153.776764,682.6427,153.944611,682.263794,154.437424C681.915955,154.889832,682.029541,155.088608,681.573181,155.34613C679.41748,156.562546,678.813599,156.469711,676.212524,155.91951C675.318665,155.730438,674.813416,155.742767,674.339844,155.018997C674.001953,154.502563,673.772949,153.858093,673.747925,153.653229C673.527771,153.230301,672.700195,152.426224,672,151C671.281738,149.536972,671.538574,149.368301,670.632324,148.040131C669.596252,146.521744,668.438721,145.75383,668.051636,145.350372C667.157471,145.066864,665.126526,144.166992,662.090515,143.460266C659.14563,142.77475,656.992676,142.687866,656.093079,142.551559C655.264343,142.464325,653.317627,142.353729,650.568115,141.969986C647.770874,141.579575,645.835205,141.145493,645,141C644.161377,140.725677,642.872559,140.47171,640.490112,138.922333C639.280945,138.135971,638.589172,137.817444,637.410095,136.953934C635.123047,135.278992,634.853088,135.538559,632.139587,134.554947C629.313232,133.530441,629.269714,133.574539,626.323914,132.955627C623.758057,132.41655,621.905762,132.306824,621.126099,132.192322L618,132L617.163452,131.813492L617.163452,131.369141L616.916748,130.977463L617.163452,130.907974L619.436523,131.146225L619.436523,129.65712L620.627808,130.431458L620.568237,128.882782L622,130z"/>
</svg>
