<?xml version="1.0" encoding="UTF-8"?>
<svg xmlns="http://www.w3.org/2000/svg" width="220.550mm" height="158.398mm" viewBox="-70.542847 145.018890 220.549988 158.397675">
    <path transform="matrix(-1,0,0,-1,1673.335449,1609.907593)" style="stroke:#000000;stroke-width:0.05mm;fill:none" d="M1728.200439,1383.75061C1727.730469,1382.730225,1726.357056,1376.845581,1725.066406,1376.94751C1723.782227,1377.048828,1723.351074,1383.046021,1723.048462,1384.122192C1722.572021,1382.833008,1721.619141,1380.254517,1721.1427,1378.965332C1720.789551,1379.553955,1719.711182,1383.002197,1718.788452,1382.889038C1717.937378,1382.78479,1717.740356,1379.458618,1717.555298,1378.853271C1717.219116,1379.918213,1716.546265,1382.048218,1716.210083,1383.113281L1715.761719,1378.629028C1714.836792,1379.918213,1712.986938,1382.496582,1712.062134,1383.785889L1712.286255,1379.189575C1711.30896,1379.967407,1710.343018,1382.610352,1709.695313,1383.75061C1709.529053,1382.679688,1708.855591,1377.945557,1708.586914,1376.611084C1708.303589,1375.203735,1704.775391,1380.041504,1704.102783,1380.646973C1703.413208,1380.05835,1702.444702,1375.351074,1701.037964,1375.858887C1699.660767,1376.355957,1698.648804,1381.678345,1698.497437,1382.552734C1698.235962,1381.776001,1698.016479,1377.581543,1696.754272,1377.374634C1694.894287,1377.069702,1692.613892,1382.824219,1691.883301,1383.785889L1690.20166,1380.310547L1686.614258,1381.095337C1687.186035,1379.733276,1689.525879,1376.74646,1690.425903,1372.014893C1691.378784,1367.004517,1689.366821,1366.64563,1690.20166,1361.589111C1691.147217,1355.862793,1691.403076,1355.585693,1694.237427,1350.490723C1699.372559,1341.259888,1700.621704,1341.137939,1704.898804,1331.673828C1708.111938,1324.563843,1706.800903,1324.83374,1709.616821,1318.393311C1710.620483,1316.097656,1709.345337,1313.481445,1709.695313,1312.814087C1709.932739,1312.311035,1711.636353,1310.837524,1711.277466,1309.460205C1710.904175,1308.027588,1709.883057,1307.873047,1708.13855,1307.21814C1705.031006,1306.051514,1704.726929,1306.670044,1701.300049,1306.545532C1699.333618,1306.474121,1697.949829,1306.630615,1697.358521,1306.645752C1697.445313,1307.067871,1697.182129,1308.377808,1697.937012,1309.460205C1698.942383,1310.901733,1700.700195,1311.175537,1701.187988,1311.478149L1701.748535,1314.280762C1701.630981,1315.323364,1702.130005,1318.038696,1700.963745,1321.231323C1700.289917,1323.076172,1699.057983,1324.089966,1698.721558,1324.594482L1698.049072,1327.060791L1696.703857,1329.975464L1695.919067,1325.939697L1694.349609,1322.800781L1693.564819,1320.670776L1690.874268,1317.868164L1689.34668,1315.684814L1685.021729,1315.898315L1680.896973,1315.401855L1677.757935,1316.522949L1677.757935,1318.316528L1678.87915,1320.558594L1680.672729,1322.464478L1683.13916,1322.800781C1683.509033,1322.868042,1684.545654,1322.69397,1685.605347,1323.249146C1686.744751,1323.846191,1687.225098,1324.869141,1687.511108,1325.155029C1687.611938,1325.726685,1688.255249,1327.076172,1688.183838,1328.966553C1687.991821,1334.052734,1687.964355,1334.574341,1685.605347,1339.05603C1683.985596,1342.133057,1681.603271,1343.629883,1680.896973,1344.437012L1676.525024,1349.145386L1672.376953,1352.396484L1663.432373,1359.077026L1660.71814,1360.131714L1658.812256,1361.813232L1657.915527,1364.840088L1656.121704,1370.109131C1655.112671,1371.202148,1653.094971,1373.388184,1652.085938,1374.481201L1648.610718,1378.853271L1645.696045,1380.198486L1641.843018,1377.582275L1638.758789,1374.498047L1637.176025,1374.817505L1632.691895,1376.16272L1630.67395,1376.050659L1626.862305,1373.023804L1626.421997,1374.498047C1626.421997,1374.960693,1626.874023,1377.435913,1626.421997,1377.582275C1625.71936,1377.809814,1624.032959,1374.279297,1623.611328,1373.696411C1623.07312,1373.460938,1621.833252,1372.874023,1620.023926,1372.126953C1619.023682,1371.713867,1618.308716,1371.459961,1618.005981,1371.342163L1621.369141,1376.050659L1617.221436,1372.6875L1614.085205,1371.413818L1614.418579,1375.602173L1609.149902,1370.445313L1609.82251,1373.360107L1604.665527,1370.781738L1604.832642,1374.498047L1600.405518,1370.333252L1597.827148,1368.539551L1595.024658,1366.633789L1594.800293,1363.719116L1593.455078,1359.122803C1593.522461,1358.685547,1593.760986,1357.67334,1593.903564,1356.208008C1594.033936,1354.869995,1594.004395,1354.863159,1594.015625,1353.517578C1594.03418,1351.276001,1593.92041,1349.705933,1593.903564,1349.033325L1593.006592,1345.670166L1593.903564,1342.979614L1593.230713,1341.74646L1593.079346,1345.942261L1590.204102,1346.90332L1593.221191,1342.010864C1593.112305,1341.332397,1593.441162,1337.765381,1592.49585,1337.487671C1591.440186,1337.177612,1589.594971,1340.726563,1589.083008,1341.298096L1591.324951,1333.450684C1591.139893,1333.164795,1590.543701,1332.570313,1590.092041,1331.544922C1588.592529,1328.142334,1588.472168,1325.351074,1588.186279,1324.258179C1588.186279,1324.258179,1586.57666,1322.170654,1585.15918,1319.885986L1583.589844,1316.63501L1580.787354,1314.617065L1571.706787,1315.401855L1569.016113,1316.298584L1567.822266,1318.982544L1570.473633,1319.885986L1566.550049,1319.661865L1560.496094,1320.558594L1559.375244,1321.231323L1563.971436,1325.042847C1564.660889,1325.480103,1566.533203,1326.195801,1568.567871,1327.95752C1569.340576,1328.626709,1569.498047,1328.623901,1569.912842,1329.5271C1571.688721,1333.392456,1571.056641,1336.959595,1571.258301,1338.27124C1571.090332,1340.961792,1570.883057,1347.255127,1570.137451,1356.208008C1569.688477,1361.598389,1569.997559,1361.66687,1569.016113,1366.970093C1568.153076,1371.634888,1569.259766,1372.733154,1566.550049,1376.16272C1565.20752,1377.861816,1563.02417,1378.068481,1562.4021,1378.404785C1562.097412,1379.05835,1561.458984,1380.619629,1560.37207,1382.761475C1558.921631,1385.619263,1557.742676,1387.536865,1557.278809,1388.379639C1557.569824,1388.870972,1555.912354,1391.911133,1555.485596,1393.003174C1555.101074,1393.986938,1554.236572,1396.943359,1553.743652,1397.090942L1553.680664,1399.994751C1553.714355,1400.986816,1553.737793,1400.895142,1554.375,1404.0979C1554.651367,1405.488403,1554.791748,1405.903687,1554.943115,1406.307373C1555.312988,1406.963135,1556.085693,1409.666016,1556.236328,1411.924194C1556.344971,1413.553711,1555.092773,1414.782959,1554.891113,1415.287354L1551.751953,1427.506836C1551.398926,1428.465332,1550.837158,1430.824707,1549.397949,1433.896851C1548.686768,1435.414795,1548.940918,1435.835449,1547.716309,1436.811523C1545.496826,1438.580688,1544.86499,1438.268066,1541.886719,1438.605225C1539.636475,1438.859863,1539.586914,1438.248657,1537.290527,1438.268921C1536.056396,1438.279785,1535.194092,1438.459473,1534.824219,1438.493164C1534.222412,1438.609009,1532.835205,1439.022217,1530.812012,1439.266113C1529.577393,1439.415039,1528.695557,1439.371338,1528.322021,1439.389893C1528.036133,1439.692627,1527.167725,1440.266357,1526.41626,1441.407837C1524.961426,1443.617554,1525.220703,1443.825562,1524.286377,1446.340454C1523.769043,1447.732666,1523.444824,1447.746094,1523.39624,1449.178711C1523.349854,1450.549316,1523.082764,1451.597168,1524.062012,1451.945679C1529.000977,1453.703247,1534.162598,1454.61377,1535.945313,1455.084595C1536.550537,1455.235962,1538.333496,1455.020386,1539.980957,1456.093628C1541.499512,1457.082764,1541.166504,1457.600464,1542.335205,1459.120361C1543.407959,1460.515747,1543.057617,1461.128784,1544.465088,1461.923096C1551.11377,1465.674805,1552.976318,1465.388428,1560.998535,1463.691406C1563.755371,1463.108398,1565.313477,1463.146362,1566.77417,1460.914063C1567.816406,1459.321289,1568.522461,1457.33374,1568.599854,1456.701782C1569.278809,1455.397461,1571.831055,1452.91748,1573.990723,1448.518799C1576.206055,1444.00647,1575.413818,1443.486328,1578.208984,1439.389893C1581.404297,1434.706909,1584.974365,1432.338501,1586.168213,1431.094238C1588.926025,1430.219727,1595.189941,1427.444458,1604.553467,1425.264771C1613.636108,1423.150391,1620.276245,1422.882568,1623.050781,1422.462158C1625.606689,1422.193115,1631.61084,1421.851929,1640.09082,1420.668457C1648.718018,1419.464355,1654.68811,1418.125488,1657.264038,1417.676758C1659.850464,1416.830688,1663.825439,1416.047485,1671.17334,1411.268799C1674.90271,1408.843506,1677.036255,1407.861206,1680.672729,1405.197998C1687.72644,1400.032104,1688.559082,1400.832642,1696.927979,1397.79895C1705.64502,1394.63916,1705.779297,1394.775146,1714.864746,1392.866333C1722.77832,1391.203735,1728.491089,1390.865356,1730.895752,1390.512207L1740.537231,1389.919067L1743.11731,1389.34375L1743.11731,1387.973389L1743.878296,1386.765381L1743.11731,1386.551025L1736.106812,1387.285889L1736.106812,1382.693115L1732.432617,1385.081299L1732.616333,1380.304932L1728.200439,1383.75061z"/>
</svg>
