<?xml version="1.0" encoding="UTF-8"?>
<svg xmlns="http://www.w3.org/2000/svg" width="503.044mm" height="327.000mm" viewBox="-916.000000 -776.000000 503.043884 327.000000">
    <path transform="matrix(-1,0,0,-1,0,0)" style="stroke:#ff0000;stroke-width:0.05mm;fill:none" d="M880,450C880.450012,450.899994,880.811951,453.637177,883,456C886.803833,460.107666,887.881958,458.263947,891,462C893.788879,465.341644,892.542664,465.37442,892.237671,468.756744C891.8396,473.171539,889.8479,475.391785,888.797241,477.5224L884,498C884,501.25,881.75,504.920532,881,512C880.004761,521.394531,880.25,520.993042,880,530C879.819702,536.494995,881.093262,537.382263,878.549438,542.617065C876.594543,546.639954,873.083069,548.034485,872,549C869.150024,550.799988,859.526611,552.670227,853,561C848.407898,566.860779,849.25,568.29718,848,576C846.339783,586.230591,845.08783,587.381714,848,597C849,600.302795,851.400024,602.099976,852,603C851.700012,604.049988,850.5,606.429993,850,610C848.901123,617.846069,852.293823,618.723083,850,626C844.75,642.654907,825.30658,646.54364,829,656C832.303833,664.458801,856.200012,661.950012,861,663L855,666C857.455872,667,868.155029,669,878,670L873,674C876.952942,675.75,885.478516,679.25,893,681L887,682C888.808655,685.103027,900.142822,688.415222,906,690L902,690C902.388062,694.845764,910.969055,703.670105,916,708L911,708C906.233704,712.867798,911.176453,721.638245,914,726L908,721C913.814636,735.426331,905.777039,744.295044,905,752L901,751C900.838013,757.023804,893.26001,764.537537,889,768L888,765C883.999268,768.299438,869.352905,769.582336,863,771L861,768C859.981018,769.923218,848.34375,771.026794,844,772L845,768C841.917358,770.805725,828.985535,774.161865,823,776L827,764C832.610168,759.972534,832.99707,758.192749,859,748C862.871094,744.613281,872.476196,743.428589,874,733C873.700012,730.150024,875.877319,722.127319,872,714C866.259766,701.967773,861.103271,697.358704,852,694C846.75,691.900024,835.127258,682.562256,817,680C802.501709,677.950684,791.5,682.549988,787,683C777.53772,685.51709,756.009888,683.609558,745,682L689,673L642,674C635,674.5,621,675.5,614,676C608.25,677.75,602.545349,678.447021,592,683C587.297241,685.030396,584.349976,687.25,583,688C580.900024,691.299988,578.617859,700.445984,571,711C563.680359,721.140808,555.547363,726.510925,553.17334,729.424622C551.871155,734.573975,543.131653,755.526062,541,758C534.594727,765.433777,531.696228,764.889038,521,766C514.126099,766.713989,508.919128,767.528198,501,767C483.538269,765.835266,477.628235,763.349426,470,757C467.097595,754.584167,468.600006,752.049988,468,751C466.649994,750.549988,463.620544,748.824097,459,748C443.40683,745.218933,436.941803,745.741943,421,744C415.747192,743.426025,412.538788,741.230591,413,738C413.899536,731.699158,416.702423,728.581238,419.190369,723.409119C422.285828,716.973999,430.722931,709.593994,437,708C448.533081,705.071289,448.739105,709.287292,456,704C460.772217,700.524963,468.200012,702.700012,470,703C472.25,702.400024,477.41275,698.648132,484,695C492.70636,690.178284,499.75,682.099976,502,680C503.5,677.150024,506.204529,669.987,512,661C515.077576,656.2276,517.950012,653.349976,519,652C520.349976,648.25,530.611816,644.794434,534,632C536.976868,620.758667,537.400024,612.450012,538,609L550,581C552.700012,578.150024,562.152039,573.152771,568,562C581.015198,537.178406,579.404419,520.21167,580,505C582.201965,497.5,580.753296,482.5,580,475C578.950012,474.549988,576.382629,473.729584,573,472C567.820251,469.351532,567.321289,469.776611,563,466C560.627319,463.926392,559.599976,461.75,559,461L566,456L594,458L595,462C595.150024,464.100006,594.029724,469.441711,596,476C598.576965,484.577728,602.75,483.410614,605,492C607.451294,501.35788,605,509,605,512L604,544C606.549988,536.349976,616.04364,519.171082,621,493C622.75415,483.737518,624.721436,482.464264,622,474C620.168274,468.302856,615.200012,465.5,614,464C613.700012,462.5,609.064331,455.947266,612,455C619.111755,452.705231,634.287354,451.944031,639,456L643,459L647,468L642,494L645,501L642,511L637,521C635.25,529,633.75,544,632,552C634.416382,549.831482,642.996338,553.23175,646,554C651.700012,556.099976,664.572388,562.514465,684,568C693.784607,570.762756,701,571.400024,704,572L726.368774,576.667053L727.416443,576.292908C727.716431,575.24292,728.687439,574.357788,731,573C735.623108,570.285645,764.849976,574.799988,771,576L775,562C778.25,557.75,780.879883,552.944214,788,545C798.118713,533.710144,800.115234,535.461792,810,524C816.763,516.15802,817.200012,509.549988,819,507C817.650024,502.725006,819.498718,483.812805,810,478.5C809.344788,478.133545,808.299988,478.924988,808,479C805.299988,477.950012,793.5,478.578308,789,472C786.669983,468.593872,789.154236,464.088898,790.404236,460.838898L817,460L826.087219,460.584473C825.337219,461.63446,824.049927,467.569122,825.832825,470.634216C830.749329,479.086578,846.907959,509.1203,851.557983,516.170288C853.724304,511.644745,861.117981,501.807526,866,486C867.919739,479.784058,866.409912,480.447174,864.675354,475.673615C861.37677,466.595856,851.864807,468.87442,850.413513,460.17926C849.798035,456.491669,851.524597,455.623627,854,452C854.391968,451.426208,854.849976,451.149994,855,451L869,449L880,450z"/>
</svg>
