<?xml version="1.0" encoding="UTF-8"?>
<svg xmlns="http://www.w3.org/2000/svg" width="146.520mm" height="108.013mm" viewBox="-485.507324 -848.862122 146.520233 108.012756">
    <path transform="matrix(-0.474569,0,0,-0.474569,-335.198273,-718.061768)" style="stroke:#000000;stroke-width:0.05mm;fill:none" d="M257.624756,274.570038C251.883102,272.465424,247.264175,267.529114,246.440567,262.61731C246.054276,260.313568,244.519547,257.093872,242.956299,255.307693C241.419647,253.55191,238.490738,249.05191,236.447586,245.307693C229.214249,232.052032,228.362656,231.078598,221.19046,227.86763C217.510712,226.220215,212.475006,223.584198,210,222.009796C207.524994,220.43541,201.449997,217.919418,196.5,216.418716C187.932114,213.821167,186.131638,213.656937,159,212.998276C133.999878,212.391342,129.763184,212.053925,124.5,210.250565C112.502495,206.139786,97.689262,198.925308,87.191483,192.0802C64.32737,177.171616,55.492306,174.55069,28,174.521042C16.021587,174.508118,8.307138,174.114273,8,173.5C7.337518,172.175034,22.600965,166.108429,26.75,166.047623C29.27059,166.010696,30,165.569489,30,164.081787C30,163.026764,30.287624,161.414047,30.639164,160.49794C31.149029,159.16925,31.449369,159.102127,32.123852,160.166153C32.730293,161.122833,32.973705,160.863785,32.984688,159.25C33.003227,156.525986,34.634827,156.274078,35.458141,158.868118C36.152756,161.056656,40,164.791626,40,163.277435C40,162.709534,39.325001,161.684692,38.5,161C37.674999,160.315308,37,159.085358,37,158.266769C37,157.24472,37.616165,157.518051,38.966732,159.139221C40.048431,160.437653,40.948433,160.96405,40.966732,160.309021C40.985027,159.653976,40.549999,158.83992,40,158.5C39.450001,158.16008,39,157.423996,39,156.864258C39,156.30452,40.165001,157.231079,41.588894,158.923279C43.012787,160.615479,44.666225,162,45.263206,162C45.860188,162,45.257687,160.813934,43.924313,159.364288C41.712349,156.959427,41.685562,156.824966,43.618519,157.829102C44.783703,158.434387,46.006771,158.659897,46.336452,158.330215C46.666134,158.000534,48.300705,158.296127,49.968838,158.987091C52.342335,159.97023,53.318237,159.980774,54.4571,159.035599C55.257507,158.371323,56.401814,158.130295,57,158.5C57.598186,158.869705,58.742897,158.628342,59.543804,157.963638C60.721573,156.986191,61,157.080032,61,158.454483C61,159.755173,61.721863,159.431976,64.07692,157.07692C67.360023,153.793823,70.196022,152.794495,67.872444,155.739487C67.117599,156.696213,67.997025,156.246201,69.826729,154.739487C71.656425,153.232773,73.681427,151.993851,74.326729,151.986343C74.972023,151.978836,76.625,151.674118,78,151.309189C80.444618,150.66037,80.428001,150.727905,77.25,154.357635C73.282639,158.888916,73.003418,160.285721,76.75,156.858856C80.074684,153.817902,82.792404,154.201447,83.58284,157.823196C84.564674,162.321915,84.893547,163,86.093613,163C86.903481,163,86.998894,162.026108,86.412025,159.75C85.951134,157.962494,85.701317,152.298615,85.856865,147.163605C86.119446,138.495361,85.883888,137.167007,82.5653,128.602219C78.401207,117.855286,74.761482,111.797485,68.350372,104.943489C65.420074,101.81076,63.44516,98.635269,62.94582,96.25341C62.513039,94.189034,61.453522,90.025002,60.591339,87C59.72916,83.974998,59.018398,79.107918,59.011868,76.184258C59.005341,73.260597,58.592907,70.107857,58.095345,69.178154C56.684681,66.542305,57.98967,57.921009,59.889629,57.324356C60.775333,57.046215,62.426605,56.379379,63.55912,55.842499C64.691635,55.305618,67.616638,55.008923,70.05912,55.183174C74.00222,55.464485,74.5,55.771103,74.5,57.918629C74.5,59.565071,73.542198,60.87495,71.5,62.021412C68.534813,63.68602,68.503716,63.791397,68.820236,71.102783C69.064674,76.749115,69.86219,80.082977,72.189629,85.187851C75.284363,91.97567,79.932411,97.718285,80.070282,94.924316C80.112312,94.072693,80.48613,94.304169,81,95.5C81.700607,97.130409,81.872421,97.187515,81.929718,95.809013C81.968369,94.878975,82.46804,93.828773,83.040085,93.475227C83.715446,93.057831,83.86689,93.826118,83.471954,95.666214C82.881859,98.415588,82.912415,98.440422,84.49781,96.5C86.078857,94.564896,86.113335,94.597351,85.560265,97.5L84.988647,100.5L86.439514,97.5C87.85096,94.581505,87.874481,94.649429,87.305077,100C86.692719,105.754257,87.716484,106.140518,89.534386,100.841095L90.568771,97.825722L91.69371,100.162857C92.312424,101.448288,93.154091,103.400002,93.564079,104.5C94.298203,106.46965,94.316483,106.470253,94.768631,104.539459C95.164833,102.847565,95.406555,102.984604,96.532654,105.539459L97.837563,108.5L97.995636,105L98.153702,101.5L99.472,105.5C100.19706,107.699997,100.837479,108.977318,100.895149,108.338486C101.056541,106.550606,104.099564,107.41494,105.248955,109.575134C106.746506,112.389648,110.189072,116.001183,110.934952,115.540199C111.289276,115.321213,112.461365,116.458794,113.539589,118.068146C114.617813,119.677505,115.896751,120.995544,116.381668,120.997124C118.111534,121.002769,116.122917,112.784264,113.400955,108.67849C108.110664,100.698692,107.893028,99.951447,110.057732,97.199478C111.125977,95.841423,112,93.97113,112,93.043282C112,89.773117,115.292564,81.470207,117.568939,79C120.300461,76.035889,122.290886,71.200417,121.561684,69.300156C120.519218,66.583519,126.831444,64.071823,134.142044,64.294312C137.859299,64.40744,141.414719,65.014191,142.042984,65.642639C143.855896,67.456093,141.445435,71,138.399078,71C134.422577,71,132.483383,72.523949,128.092194,79.099792C123.136887,86.520424,122.965591,89.221481,126.75,100.263855C129.157852,107.289612,130.522888,109.420937,137.721222,117.393982C143.288956,123.560936,147.142349,128.97438,149.660049,134.16629L153.377655,141.832596L157.423294,138.369675C161.197372,135.139206,163.693512,135.254517,160.972092,138.533615C160.280823,139.366547,160.187088,140,160.755112,140C161.305115,140,162.329422,139.307999,163.031357,138.462219C163.733292,137.616425,166.100998,135.504028,168.292938,133.76799C172.04747,130.794357,172.209015,130.753113,171.082672,133.055786L169.88707,135.5L171.853836,133.25C174.322205,130.426132,175.423615,130.339951,173.954163,133.085648C172.019547,136.700516,174.067581,136.646988,177.231339,133C178.901276,131.074997,179.985626,130.315826,179.641022,131.312943C179.068222,132.970322,179.259949,132.95108,181.875275,131.088821C183.448715,129.96843,185.506424,127.876053,186.447937,126.43911C187.389465,125.002159,188.384811,124.051476,188.659805,124.326469C188.934799,124.601471,188.34938,126.10302,187.358856,127.663239C185.925186,129.921478,186.571686,129.582291,190.528961,126C195.208862,121.76355,195.502914,121.205894,195.549866,116.478348C195.60733,110.689316,196.295074,109.218506,199.51741,107.993378L201.840546,107.110123L199.920273,103.34362C198.703003,100.956032,198.042465,97.732506,198.115997,94.538559C198.17981,91.767349,198.448486,90.400002,198.713058,91.5C199.740723,95.772408,200.693726,94.867989,200.231628,90.058861C199.907425,86.684807,200.120956,85,200.872772,85C201.492752,85,202.0522,86.237503,202.115997,87.75C202.191681,89.544151,202.394684,89.872429,202.700027,88.694458C202.957428,87.701416,202.230225,84.893814,201.084015,82.45536C199.937805,80.016899,199.040588,76.779396,199.090195,75.260895C199.178802,72.548325,199.196808,72.556885,200.118774,75.75C201.384201,80.132545,202.72728,79.858276,202.72728,75.217323C202.72728,70.196503,203.586731,67.739189,205.833527,66.336037C207.560013,65.257828,207.659592,65.502037,207.261688,69.838509C207.026459,72.402328,207.292816,75.625,207.853607,77C208.843658,79.42749,208.875061,79.434746,208.936615,77.25C208.971481,76.012497,209.502487,75,210.116638,75C210.751266,75,211.001053,74.112038,210.695313,72.942848C210.27507,71.335892,210.442978,71.122742,211.462494,71.96888C212.481598,72.814659,212.913773,72.273163,213.434357,69.498238C213.857925,67.240387,214.509262,66.196709,215.220459,66.636253C215.954788,67.090088,216.109406,66.755638,215.669937,65.664047C215.301468,64.748817,214.759644,63.410431,214.465866,62.68985C214.172089,61.969269,215.036545,59.751659,216.386887,57.761829C217.737213,55.771999,218.990082,53.117516,219.171021,51.862972C219.979507,46.257343,236.981964,46.963848,237.801483,52.637127C238.17894,55.250233,233.65155,60.764286,230.783188,61.184921C227.800171,61.622372,227.296524,64.29995,226.868515,81.996773L226.5,97.23304L228.973221,98.866516L231.446426,100.5L229.03743,96.5C226.72168,92.654846,226.713028,92.573746,228.814209,94.404991C231.291611,96.564117,231.676285,95.478218,229.468201,92.558868C227.190369,89.54731,227.641769,88.213127,230.75,88.770309L233.5,89.263275L230.5,86.002029C227.65509,82.90937,227.629242,82.80764,230,84.034111C232.28624,85.21685,232.382645,85.185181,231.127548,83.663719C229.964294,82.253578,229.964294,81.995155,231.127548,81.968193C232.042999,81.946983,231.83403,81.402702,230.5,80.333664C228.875641,79.03196,228.82869,78.844215,230.25,79.334084C231.212494,79.665817,232,79.55014,232,79.077026C232,78.603912,233.090042,77.943237,234.422302,77.608856C237.434067,76.852951,239.44754,71.373352,238.716431,65.922523C238.375778,63.382736,238.656128,61.700356,239.542603,60.964645C240.280579,60.352173,241.022903,58.424812,241.1922,56.681622C241.472717,53.793114,242.010315,53.340427,247.257385,51.574406C252.699448,49.742756,253.20607,49.727844,256.507385,51.302132C261.224091,53.551365,261.062592,56.298862,255.926498,61.1847L251.852997,65.059731L249.827667,80.279861C248.654022,89.09964,247.738754,102.018044,247.651169,111C247.521332,124.312248,247.747009,126.848984,249.25,128.972504C250.212494,130.332382,251.014313,132.807388,251.031799,134.472504C251.049301,136.137634,251.775848,138.399994,252.646378,139.5C254.127106,141.371063,254.187302,141.16156,253.580124,136.25C253.223175,133.362503,253.111343,131,253.331604,131C253.55188,131,254.963028,134.375,256.467499,138.5C259.040771,145.55542,260.876526,148.71315,259.519653,143.75C258.984039,141.790894,259.047668,141.728561,260.011932,143.267853C260.621002,144.240158,261.382782,148.177658,261.704712,152.017853C262.117157,156.937363,262.690338,159,263.64505,159C265.225189,159,265.452667,160.602203,264,161.5C262.157837,162.638519,262.974731,164,265.5,164C267.003296,164,268,164.571152,268,165.432617C268,166.220551,268.984131,167.177567,270.186951,167.559326C272.177856,168.191223,272.22406,168.362991,270.702484,169.475601C269.783203,170.147781,269.288727,170.955383,269.603607,171.270264C269.918488,171.585144,269.127136,173.261581,267.845093,174.995667C265.68045,177.923508,265.638458,178.21817,267.257019,179.123962C269.393738,180.319733,269.549377,183.851959,267.5,184.638367C265.787567,185.295486,265.552063,188.691635,266.961792,192.399506C267.595398,194.066025,267.576874,195.143478,266.90744,195.55719C266.253326,195.961456,266.398895,196.959839,267.31601,198.359528C268.099579,199.555405,269.285492,203.763901,269.951385,207.711731C270.617279,211.659576,271.783966,215.405731,272.544006,216.03653C273.714508,217.00795,273.687805,217.546829,272.369507,219.558807C269.274384,224.282562,272.987976,234.027206,278.40097,235.385788C279.753326,235.725204,283.645966,235.114746,287.166779,234.011063C294.81012,231.615112,299.827026,231.483063,304.768463,233.547729C311.952698,236.549484,315.316803,241.186371,316.465637,249.670456C317.309906,255.905228,316.710693,256.386383,305.408813,258.548798C294.717834,260.59433,290.398895,263.249786,287.365234,269.642731C285.419739,273.742554,282.58432,274.745148,271,275.429382C264.086945,275.837677,260.444733,275.603668,257.624756,274.570038z"/>
</svg>
