<?xml version="1.0" encoding="UTF-8"?>
<svg xmlns="http://www.w3.org/2000/svg" width="387.594mm" height="292.436mm" viewBox="-1313.976563 -718.412659 387.593750 292.436096">
    <path transform="matrix(-1,0,0,-1,0,0)" style="stroke:#000000;stroke-width:0.05mm;fill:none" d="M1303.191406,425.988281C1303.387695,426.014709,1303.580322,426.062988,1303.765625,426.132813C1303.887085,426.186676,1304.006836,426.244507,1304.121094,426.3125L1304.269531,426.433594C1304.360229,426.523468,1304.449341,426.614716,1304.523438,426.71875L1304.628906,426.875C1304.689087,426.986237,1304.74707,427.098572,1304.796875,427.214844C1304.8396,427.335724,1304.869019,427.460419,1304.894531,427.585938C1305.00354,428.292816,1305.078003,429.004578,1305.117188,429.71875C1305.64502,436.679047,1306.050171,443.650757,1306.332031,450.625C1306.623047,458.385193,1307.040894,466.135895,1307.585938,473.882813C1308.039551,479.424561,1308.616577,484.956696,1309.316406,490.472656C1310.182373,497.342896,1311.057861,504.127808,1311.964844,510.992188C1312.7323,516.860168,1313.402832,522.739014,1313.976563,528.628906C1313.980469,528.775208,1313.97168,528.921326,1313.953125,529.066406C1313.915649,529.204102,1313.869019,529.339233,1313.800781,529.464844C1313.724243,529.585876,1313.637329,529.700195,1313.535156,529.800781L1313.363281,529.9375C1313.154419,530.06427,1312.929199,530.15979,1312.699219,530.242188C1312.215454,530.411438,1311.710938,530.513611,1311.199219,530.542969C1307.307861,530.934143,1303.439209,531.527527,1299.609375,532.320313C1297.528076,532.847717,1295.455811,533.404846,1293.390625,533.992188C1291.964478,534.351807,1290.519531,534.631836,1289.0625,534.832031L1288.71875,534.847656L1288.421875,534.769531L1288.140625,534.652344C1287.958374,534.55957,1287.786255,534.447693,1287.632813,534.3125C1286.976929,533.78363,1286.37207,533.194214,1285.828125,532.550781L1254.371094,496.777344C1250.105225,491.936096,1245.781738,487.141174,1241.40625,482.398438C1240.786987,481.74173,1240.054932,481.201447,1239.246094,480.800781C1239.031372,480.716644,1238.807983,480.654724,1238.578125,480.636719L1238.230469,480.628906L1238.132813,480.65625L1238.046875,480.707031C1237.996704,480.75354,1237.95813,480.808929,1237.917969,480.863281C1237.744995,481.273743,1237.641968,481.710876,1237.632813,482.15625C1237.574951,483.628143,1237.627197,485.102295,1237.789063,486.566406C1238.356812,492.283508,1239.053467,497.986084,1239.878906,503.671875C1240.444214,507.71106,1241.026489,511.778076,1241.617188,515.8125C1242.47522,521.756653,1243.21106,527.717224,1243.824219,533.691406C1243.862549,534.095154,1243.877686,534.500793,1243.867188,534.90625C1243.835815,535.278259,1243.762207,535.645752,1243.632813,535.996094C1243.554077,536.160034,1243.45105,536.310974,1243.324219,536.441406C1243.186646,536.555603,1243.033813,536.648926,1242.871094,536.722656L1242.695313,536.773438L1242.511719,536.796875C1237.616333,537.289368,1232.732422,537.875305,1227.859375,538.554688C1223.725708,539.11438,1219.584106,539.602661,1215.433594,540.019531C1215.295044,540.024963,1215.156128,540.020691,1215.019531,539.996094L1214.824219,539.933594C1214.640137,539.847107,1214.47644,539.724854,1214.335938,539.578125C1214.249146,539.46875,1214.182617,539.345764,1214.125,539.21875C1213.936401,538.775085,1213.827637,538.301697,1213.800781,537.820313C1213.069824,528.966919,1212.516357,520.098022,1212.140625,511.222656L1212.0625,509.773438L1211.972656,509.996094C1209.403931,515.931946,1205.787598,521.356995,1201.296875,526.011719C1197.716675,529.805237,1193.592163,533.045166,1189.058594,535.625C1183.557861,538.709595,1177.518677,540.715149,1171.265625,541.535156C1163.729736,542.594788,1156.060913,542.203552,1148.671875,540.382813C1141.131836,538.44165,1134.157227,534.746033,1128.316406,529.597656C1121.510132,523.697693,1116.24585,516.226746,1112.980469,507.832031C1111.182495,503.143433,1110.027466,498.232849,1109.546875,493.234375C1109.338745,491.255188,1109.222656,489.267303,1109.199219,487.277344L1108.871094,488.058594L1108.265625,489.519531L1107.667969,490.957031C1101.580566,505.572632,1095.521973,520.317017,1089.574219,534.992188C1089.147705,536.081909,1088.726074,537.172241,1088.308594,538.265625C1088.061646,538.932861,1087.68335,539.544556,1087.1875,540.054688C1086.987793,540.218201,1086.748779,540.323303,1086.496094,540.375C1084.471924,540.282715,1082.453735,540.088623,1080.449219,539.792969C1078.094604,539.472107,1075.728271,539.246582,1073.355469,539.117188C1072.385864,539.078186,1071.415161,539.074524,1070.445313,539.105469C1068.272461,539.160034,1066.095215,539.199158,1063.921875,539.222656C1063.163696,539.229492,1062.405518,539.212524,1061.648438,539.171875C1061.123047,539.060608,1060.652832,538.768616,1060.324219,538.34375C1059.782959,537.657349,1059.359741,536.885925,1059.066406,536.0625C1057.456055,531.951294,1055.921387,527.808716,1054.464844,523.640625C1045.599854,498.501343,1036.986572,473.254761,1028.636719,447.9375L1027.316406,443.867188C1027.197998,448.588287,1027.036377,453.313263,1026.832031,458.03125C1026.527222,464.566132,1026.31897,471.103424,1026.207031,477.644531L1026.15625,482.546875C1026.214355,488.914001,1026.395264,495.276611,1026.699219,501.636719C1027.095581,509.554993,1027.447632,517.445984,1027.757813,525.367188C1027.888672,529.055603,1027.965576,532.74707,1027.988281,536.4375L1027.964844,536.597656L1027.925781,536.75C1027.896484,536.851868,1027.853394,536.948853,1027.804688,537.042969C1027.748535,537.133667,1027.685669,537.219849,1027.621094,537.304688L1027.507813,537.421875L1027.261719,537.570313C1026.999878,537.690796,1026.713745,537.744324,1026.425781,537.742188C1023.038574,537.704956,1019.652893,537.603516,1016.269531,537.4375C1012.930481,537.33252,1009.588196,537.383484,1006.253906,537.589844C1003.375854,537.772217,1000.49292,537.882935,997.609375,537.921875C997.406311,537.899658,997.209351,537.838379,997.03125,537.738281L996.839844,537.574219L996.695313,537.371094L996.597656,537.140625L996.550781,536.894531C996.520325,536.289551,996.514221,535.683655,996.53125,535.078125C996.630493,529.935547,996.870178,524.797363,997.25,519.667969C997.657104,514.18573,997.899475,508.692139,997.976563,503.195313C997.979492,502.698242,997.954956,502.201324,997.902344,501.707031C997.832947,501.211609,997.660828,500.735992,997.394531,500.3125C997.112366,499.926483,996.684937,499.672394,996.210938,499.609375C994.944153,499.437866,993.668701,499.338379,992.390625,499.3125C987.009216,499.170441,981.625061,499.135284,976.242188,499.207031C971.316772,499.210327,966.392334,499.332703,961.472656,499.574219C960.557129,499.637299,959.644836,499.740112,958.738281,499.882813C958.540283,499.91098,958.348877,499.973175,958.167969,500.058594C957.626892,500.315613,957.210083,500.778381,957.023438,501.347656C956.845215,501.886475,956.762451,502.452209,956.777344,503.019531C956.873535,508.47995,957.084595,513.938843,957.410156,519.390625C957.73584,524.84198,957.948242,530.301453,958.046875,535.761719C958.056091,536.095581,958.031616,536.42981,957.96875,536.757813C957.881409,537.245789,957.594788,537.676575,957.175781,537.941406C957.075623,537.997742,956.970886,538.045593,956.863281,538.085938C956.642944,538.164795,956.409546,538.201904,956.175781,538.191406C952.949036,538.150696,949.722656,538.046448,946.5,537.878906C943.217834,537.772461,939.932373,537.832458,936.65625,538.058594C934.142944,538.231873,931.624573,538.329651,929.105469,538.351563C928.609131,538.364563,928.121643,538.210815,927.726563,537.910156C927.543396,537.747192,927.393799,537.5495,927.296875,537.324219L927.238281,537.148438C927.206177,537.029724,927.193115,536.907593,927.183594,536.785156C927.164307,531.043335,927.247559,525.301453,927.433594,519.5625L927.769531,509.058594C927.935913,504.177185,928.074829,499.312622,928.1875,494.429688C928.271484,490.302094,928.291016,486.175171,928.246094,482.046875C928.082031,474.900726,927.792969,467.761505,927.378906,460.625C926.884521,452.40918,926.55249,444.185455,926.382813,435.957031L926.386719,434.6875C926.382202,434.204712,926.519409,433.731232,926.785156,433.328125C926.870422,433.222015,926.974609,433.131714,927.097656,433.074219L927.21875,433.011719L927.347656,432.96875C928.343079,432.784302,929.348816,432.661682,930.359375,432.601563C934.745544,432.291931,939.14209,432.14856,943.539063,432.171875C947.151855,432.126343,950.765747,432.184998,954.375,432.347656C955.073792,432.390625,955.7677,432.492035,956.449219,432.652344C956.919373,432.779022,957.342651,433.039642,957.671875,433.398438L957.851563,433.65625C958.010193,433.931061,958.086182,434.24527,958.078125,434.5625C958.038879,441.586151,957.842163,448.610168,957.488281,455.625C957.315857,460.419617,957.207703,465.217682,957.164063,470.015625C957.161865,470.612396,957.210083,471.208282,957.308594,471.796875C957.413879,472.30777,957.638306,472.787048,957.972656,473.1875C958.30426,473.533112,958.748901,473.749573,959.226563,473.785156C960.856079,473.983551,962.495239,474.092957,964.136719,474.113281C971.860107,474.274292,979.586243,474.253479,987.308594,474.050781C989.39502,473.992126,991.480286,473.890564,993.5625,473.746094C994.266602,473.693085,994.965332,473.584717,995.652344,473.421875C996.04718,473.273438,996.380005,472.994812,996.589844,472.628906C996.922607,471.951111,997.090637,471.204193,997.078125,470.449219C997.005249,463.771606,996.813721,457.092651,996.503906,450.421875C996.329163,445.402588,996.193665,440.377075,996.097656,435.355469C996.064087,434.810211,996.120789,434.262848,996.273438,433.738281C996.528748,433.043243,997.114075,432.521179,997.832031,432.339844C998.037048,432.27829,998.247559,432.236511,998.460938,432.21875C1000.073364,432.032806,1001.693665,431.922119,1003.316406,431.886719C1009.462158,431.698853,1015.611084,431.67804,1021.757813,431.824219C1022.494812,431.848938,1023.230957,431.896851,1023.964844,431.96875L1024,431.820313C1024.142212,431.387177,1024.456055,431.032745,1024.867188,430.835938C1025.475586,430.531738,1026.140869,430.358459,1026.820313,430.324219C1028.857544,430.185089,1030.900513,430.147308,1032.941406,430.210938C1037.759155,430.291046,1042.574829,430.489044,1047.382813,430.804688C1049.021484,430.929474,1050.657593,431.090942,1052.289063,431.289063C1052.874023,431.372803,1053.453125,431.493561,1054.023438,431.648438C1055.199951,432.006989,1056.13208,432.908264,1056.535156,434.070313C1056.724609,434.614929,1056.863403,435.175873,1056.949219,435.746094C1057.473877,438.586853,1058.147949,441.398163,1058.96875,444.167969C1059.214355,444.920898,1059.5271,445.650238,1059.902344,446.347656L1060.03125,446.523438C1060.124878,446.634308,1060.233398,446.730927,1060.347656,446.820313C1060.793335,446.953003,1061.251343,447.040283,1061.714844,447.078125C1064.322876,447.336426,1066.936768,447.526611,1069.554688,447.648438C1075.92041,447.996063,1082.294312,448.235809,1088.667969,448.367188C1090.131104,448.380157,1091.59436,448.341156,1093.054688,448.25C1093.39978,448.216248,1093.739868,448.14389,1094.070313,448.039063C1094.384399,447.770538,1094.644409,447.444366,1094.828125,447.074219C1095.387695,446.011658,1095.848999,444.900177,1096.207031,443.753906C1096.686279,442.284485,1097.125122,440.802002,1097.523438,439.308594C1097.900635,437.911652,1098.425415,436.558838,1099.089844,435.273438C1099.377319,434.754028,1099.743774,434.282257,1100.175781,433.875C1100.525146,433.581848,1100.9552,433.399628,1101.410156,433.367188C1102.96814,433.221161,1104.533203,433.163788,1106.097656,433.195313C1111.246704,433.223907,1116.394775,433.388031,1121.535156,433.6875C1123.504395,433.796326,1125.460815,434.073425,1127.382813,434.515625C1128.014038,434.683746,1128.617188,434.944,1129.171875,435.289063C1129.291748,435.381531,1129.399536,435.489044,1129.480469,435.617188C1129.571533,435.789551,1129.625244,435.978058,1129.644531,436.171875C1129.64209,436.302704,1129.608643,436.429993,1129.558594,436.550781C1129.026367,438.259491,1128.428467,439.94696,1127.765625,441.609375L1126.585938,444.609375C1133.291992,438.30127,1141.613647,433.973297,1150.628906,432.105469C1153.39563,431.5289,1156.20166,431.160461,1159.023438,431.003906C1162.519775,430.790192,1166.027832,430.865784,1169.511719,431.230469C1173.72937,431.683502,1177.878906,432.631561,1181.875,434.054688C1188.398438,436.438904,1194.352295,440.159088,1199.355469,444.976563C1202.515869,447.965027,1205.313721,451.31488,1207.691406,454.957031L1206.042969,436.832031C1206.006958,436.649536,1206.008789,436.46225,1206.03125,436.277344L1206.058594,436.09375C1206.0802,435.973022,1206.118774,435.856262,1206.164063,435.742188L1206.242188,435.570313L1206.332031,435.410156C1206.472534,435.21756,1206.656494,435.062714,1206.859375,434.9375C1207.065308,434.814453,1207.290527,434.725861,1207.527344,434.6875C1208.683105,434.541138,1209.837891,434.405823,1210.996094,434.28125C1213.787842,433.883911,1216.587769,433.549194,1219.394531,433.277344C1221.494751,433.147034,1223.598877,433.079315,1225.703125,433.074219C1227.404175,433.050659,1229.10437,432.974884,1230.800781,432.847656C1231.167236,432.880219,1231.525269,432.978668,1231.851563,433.148438C1232.689453,433.656433,1233.44104,434.294067,1234.082031,435.035156L1234.472656,435.476563L1234.898438,435.945313L1235.351563,436.453125L1235.832031,436.988281L1236.34375,437.554688L1236.886719,438.15625L1237.453125,438.792969L1238.054688,439.457031L1238.683594,440.15625L1239.34375,440.882813L1240.03125,441.644531L1240.75,442.4375L1241.496094,443.265625L1242.277344,444.125L1243.085938,445.011719L1243.917969,445.933594L1244.785156,446.890625L1245.679688,447.878906L1246.605469,448.894531L1247.558594,449.945313L1248.542969,451.027344L1249.558594,452.144531L1250.601563,453.292969L1251.671875,454.472656L1252.773438,455.683594L1253.90625,456.929688L1255.0625,458.207031L1256.257813,459.511719C1263.788818,467.885071,1271.418701,476.183472,1279.132813,484.390625C1279.437744,484.63382,1279.776489,484.830841,1280.136719,484.980469L1280.257813,484.828125C1280.365356,484.668396,1280.451904,484.495544,1280.511719,484.3125L1280.5625,484.125C1280.589844,483.999115,1280.602539,483.870819,1280.609375,483.742188L1280.601563,483.550781C1279.779175,474.933044,1278.840698,466.331482,1277.785156,457.738281C1276.674072,448.761902,1275.689209,439.765381,1274.832031,430.761719C1274.810669,430.268982,1274.899536,429.777588,1275.09375,429.324219L1275.21875,429.117188L1275.367188,428.933594C1275.573364,428.689606,1275.852661,428.516235,1276.164063,428.445313C1276.324219,428.41098,1276.48584,428.38327,1276.648438,428.363281L1302.59375,426.003906C1302.725464,425.981049,1302.858765,425.978821,1302.992188,425.976563L1303.191406,425.988281z"/>
    <path transform="matrix(-1,0,0,-1,0,0)" style="stroke:#000000;stroke-width:0.05mm;fill:none" d="M1162.230469,459.136719C1156.571533,459.23941,1151.155762,461.455078,1147.046875,465.347656C1143.143433,468.918427,1140.294434,473.49176,1138.8125,478.570313C1137.994385,481.514557,1137.634888,484.567322,1137.746094,487.621094C1137.831055,491.203674,1138.550781,494.742737,1139.871094,498.074219C1141.742798,502.696747,1144.851929,506.713715,1148.855469,509.6875C1151.764526,511.785217,1155.130371,513.161682,1158.675781,513.703125C1161.613525,514.177856,1164.61145,514.136841,1167.535156,513.582031C1171.217407,512.837585,1174.654541,511.181793,1177.53125,508.765625C1181.494629,505.417694,1184.531982,501.108582,1186.351563,496.25C1187.587891,492.798767,1188.159302,489.144409,1188.035156,485.480469C1187.977417,482.134308,1187.394653,478.817932,1186.308594,475.652344C1184.698853,471.117676,1181.859619,467.120453,1178.109375,464.105469C1174.715454,461.432007,1170.633179,459.775574,1166.335938,459.328125C1164.974121,459.162781,1163.601807,459.099365,1162.230469,459.136719z"/>
    <path transform="matrix(-1,0,0,-1,0,0)" style="stroke:#000000;stroke-width:0.05mm;fill:none" d="M1071.371094,472.972656C1070.489624,472.98819,1069.61084,473.07193,1068.742188,473.222656C1068.319336,473.311005,1067.922729,473.496124,1067.582031,473.761719L1067.5,473.859375L1067.429688,473.964844C1067.392822,474.040314,1067.3573,474.116425,1067.328125,474.195313C1067.188721,474.976837,1067.185791,475.776917,1067.324219,476.558594C1067.713623,478.980377,1068.215332,481.38269,1068.828125,483.757813C1070.183472,489.353485,1071.756226,494.894165,1073.542969,500.367188C1073.849487,501.230377,1074.189453,502.08139,1074.5625,502.917969C1075.54834,500.929596,1076.452637,498.901855,1077.273438,496.839844C1079.634888,491.063477,1081.866333,485.232605,1083.964844,479.355469C1084.39624,478.114746,1084.753662,476.849487,1085.035156,475.566406C1085.067993,475.374268,1085.078247,475.178925,1085.066406,474.984375C1084.991333,474.758057,1084.857056,474.557526,1084.679688,474.398438C1084.039063,474.022247,1083.327637,473.782654,1082.589844,473.695313C1081.14502,473.490753,1079.691772,473.35141,1078.234375,473.277344C1075.949585,473.114075,1073.661377,473.012573,1071.371094,472.972656z"/>
    <path transform="matrix(-1,0,0,-1,0,0)" style="stroke:#000000;stroke-width:0.05mm;fill:none" d="M1022.542969,587.542969C1022.731812,587.55127,1022.91925,587.576782,1023.105469,587.609375C1024.953979,587.881836,1026.78833,588.244324,1028.601563,588.695313C1033.461914,589.842529,1038.291504,591.115112,1043.085938,592.511719C1044.658447,592.988892,1046.219727,593.50061,1047.769531,594.046875C1048.471313,594.293274,1049.142334,594.619751,1049.769531,595.019531C1050.545898,595.574219,1051.077148,596.407532,1051.261719,597.34375C1051.378418,598.024658,1051.409058,598.717468,1051.355469,599.40625C1051.25647,602.292419,1051.308594,605.181702,1051.511719,608.0625C1051.58728,608.851685,1051.736206,609.632019,1051.953125,610.394531C1052.024048,610.599609,1052.138672,610.785767,1052.28125,610.949219C1052.69043,611.172058,1053.118652,611.358154,1053.5625,611.5C1056.587646,612.482788,1059.639404,613.380066,1062.714844,614.191406C1068.337158,615.756836,1073.98645,617.223145,1079.660156,618.589844C1081.195313,618.954895,1082.748169,619.241821,1084.3125,619.449219C1084.525146,619.464294,1084.739136,619.457947,1084.949219,619.421875C1085.220825,619.271362,1085.47229,619.087097,1085.695313,618.871094C1086.552734,617.891602,1087.311035,616.829468,1087.957031,615.699219C1088.743286,614.370239,1089.49231,613.019287,1090.203125,611.648438C1090.875366,610.364868,1091.682495,609.156677,1092.609375,608.042969C1093.03479,607.537781,1093.557129,607.122253,1094.148438,606.828125C1094.384155,606.724854,1094.637573,606.669556,1094.894531,606.65625L1095.089844,606.65625C1096.709717,606.850281,1098.316772,607.139587,1099.902344,607.523438C1105.176636,608.717407,1110.415161,610.060181,1115.613281,611.550781C1116.521118,611.826599,1117.416504,612.14209,1118.296875,612.496094C1118.828613,610.255066,1119.426758,608.029907,1120.089844,605.824219C1120.26062,605.408875,1120.577759,605.069397,1120.984375,604.878906L1121.234375,604.796875C1121.487671,604.73645,1121.749268,604.724243,1122.007813,604.753906C1122.400391,604.794312,1122.791626,604.837219,1123.183594,604.882813C1127.915527,605.477478,1132.636841,606.15863,1137.34375,606.925781C1142.529541,607.743713,1147.737183,608.414551,1152.960938,608.9375C1158.792236,609.586426,1164.607422,610.257324,1170.433594,610.953125L1183.15625,612.380859C1183.184692,612.139893,1183.251831,611.904968,1183.359375,611.6875L1183.457031,611.550781L1183.578125,611.433594L1183.71875,611.339844C1185.430176,610.883118,1187.166016,610.522949,1188.917969,610.261719C1192.778076,609.661377,1196.660034,609.209106,1200.554688,608.90625C1203.98938,608.569641,1207.436157,608.371704,1210.886719,608.3125C1211.615967,608.315552,1212.344238,608.36731,1213.066406,608.46875C1213.284546,608.511475,1213.497437,608.578735,1213.695313,608.679688C1214.100586,608.856995,1214.44165,609.15509,1214.667969,609.535156C1214.744263,609.651794,1214.80188,609.779907,1214.839844,609.914063C1214.908325,610.112976,1214.947021,610.320923,1214.953125,610.53125L1214.953125,610.742188C1215.5,624.747009,1216.190918,638.736511,1217.027344,652.726563C1217.254639,656.398987,1217.521729,660.071594,1217.828125,663.738281C1218.591919,671.446289,1219.466675,679.138245,1220.453125,686.820313C1221.512207,695.007996,1222.457153,703.204224,1223.289063,711.417969C1223.311646,711.678101,1223.329834,711.938477,1223.34375,712.199219C1223.342407,712.694519,1223.073608,713.150208,1222.640625,713.390625C1222.463135,713.497925,1222.267212,713.572144,1222.0625,713.605469L1221.75,713.644531C1218.850098,713.86969,1215.945801,714.035034,1213.039063,714.140625C1210.430298,714.238647,1207.826538,714.443115,1205.234375,714.753906C1202.431519,715.125122,1199.680908,715.496704,1196.878906,715.882813C1195.836304,716.021118,1194.790405,716.133057,1193.742188,716.21875C1193.500854,716.237244,1193.258667,716.224243,1193.019531,716.1875L1192.671875,716.089844L1192.335938,715.941406C1192.241699,715.871216,1192.155029,715.792114,1192.070313,715.710938C1191.828125,715.450745,1191.694092,715.109253,1191.683594,714.753906C1191.190186,708.934448,1190.829468,703.105286,1190.601563,697.269531C1190.313843,689.234375,1189.939819,681.195251,1189.480469,673.167969C1189.160156,668.292114,1188.725342,663.425781,1188.175781,658.570313C1187.431763,651.708496,1186.650024,644.792908,1185.84375,637.9375C1181.365112,643.603638,1176.860229,649.263306,1172.34375,654.898438C1167.043457,661.528809,1161.811035,668.134766,1156.570313,674.8125C1153.831055,678.341125,1151.15564,681.920532,1148.546875,685.546875C1147.830078,686.575195,1147.160889,687.635925,1146.542969,688.726563C1146.413696,688.961426,1146.342773,689.224182,1146.335938,689.492188L1146.355469,689.664063L1146.402344,689.828125C1146.450684,689.931702,1146.507324,690.031128,1146.578125,690.121094C1146.690308,690.255493,1146.835449,690.356567,1146.996094,690.425781C1147.272827,690.548462,1147.565552,690.629211,1147.863281,690.683594C1154.105591,691.304138,1160.352051,691.83783,1166.609375,692.285156C1171.200317,692.617004,1175.782837,693.028381,1180.359375,693.519531L1180.535156,693.570313L1180.699219,693.644531C1180.973511,693.780212,1181.195801,694.00354,1181.324219,694.28125C1181.385986,694.453247,1181.427368,694.631592,1181.453125,694.8125L1181.464844,695.085938C1181.293335,696.543701,1181.002441,697.984741,1180.59375,699.394531C1179.803955,702.234558,1178.948364,705.055298,1178.027344,707.855469C1177.238037,710.312256,1176.574463,712.807678,1176.039063,715.332031C1175.899048,716.063477,1175.784302,716.799622,1175.695313,717.539063L1175.644531,717.691406C1175.599365,717.78595,1175.544189,717.875,1175.484375,717.960938C1175.314941,718.162659,1175.080933,718.300659,1174.820313,718.339844C1174.407349,718.423096,1173.983521,718.437805,1173.566406,718.378906C1162.795898,717.191956,1152.041748,715.899231,1141.296875,714.5C1131.33667,713.210083,1121.377686,712.016968,1111.394531,710.917969L1111.109375,710.851563L1110.84375,710.742188L1110.597656,710.59375C1110.286011,710.372314,1110.046509,710.064209,1109.910156,709.707031C1109.831421,709.480225,1109.774902,709.246155,1109.746094,709.007813C1109.48938,706.553162,1109.407349,704.083496,1109.5,701.617188C1109.601929,698.192322,1109.854736,694.773621,1110.257813,691.371094C1110.454346,690.661499,1110.775513,689.992188,1111.210938,689.398438C1111.787842,688.630981,1112.395142,687.887085,1113.03125,687.167969C1119.68335,679.209778,1126.257813,671.202698,1132.769531,663.128906C1138.964844,655.535278,1145.067871,647.87561,1151.085938,640.140625C1152.265869,638.60022,1153.414551,637.036072,1154.53125,635.449219C1154.74707,635.136597,1154.927856,634.801392,1155.070313,634.449219C1155.069824,634.391785,1155.073242,634.334717,1155.066406,634.277344C1155.039429,634.197083,1154.998047,634.123413,1154.949219,634.054688L1154.882813,633.996094C1154.713623,633.902405,1154.531982,633.835571,1154.347656,633.777344C1154.189819,633.738281,1154.028809,633.715515,1153.867188,633.699219C1146.789063,632.919312,1139.691406,632.324097,1132.582031,631.914063C1130.720581,631.810791,1128.855469,631.790161,1126.992188,631.851563C1124.565674,631.92218,1122.140381,632.009399,1119.714844,632.113281C1118.461914,632.135376,1117.20874,632.088562,1115.960938,631.972656L1115.820313,631.929688C1115.735107,631.884216,1115.652344,631.834412,1115.574219,631.777344L1115.472656,631.675781C1115.41687,631.596863,1115.362061,631.517212,1115.320313,631.429688L1115.273438,631.285156L1115.230469,631.042969C1115.196899,630.800659,1115.196533,630.554749,1115.230469,630.3125C1115.400146,628.706726,1115.596924,627.103027,1115.820313,625.503906C1112.329224,630.661621,1108.812622,635.788208,1105.257813,640.902344L1104.574219,641.890625L1103.871094,642.898438C1101.913818,645.719482,1099.762451,648.809814,1097.796875,651.625L1096.980469,652.804688L1096.144531,653.996094L1095.296875,655.207031L1094.433594,656.441406L1093.5625,657.691406L1092.617188,659.042969C1091.703247,660.344849,1090.766724,661.682739,1089.855469,662.988281L1088.960938,664.261719L1088.082031,665.523438C1079.488525,677.75708,1070.996826,689.965576,1062.515625,702.28125C1061.609131,703.604309,1060.718872,704.937134,1059.84375,706.28125C1059.472168,706.858215,1058.991455,707.357666,1058.425781,707.746094L1058.265625,707.828125C1058.156982,707.877869,1058.041992,707.910583,1057.925781,707.9375C1057.822021,707.94928,1057.717651,707.946411,1057.613281,707.941406C1057.479004,707.923584,1057.345703,707.899048,1057.21875,707.851563C1054.958496,707.181091,1052.72168,706.43457,1050.511719,705.613281C1047.933594,704.640686,1045.28186,703.875305,1042.582031,703.324219C1040.52356,702.893433,1038.462891,702.476929,1036.398438,702.074219C1035.465698,701.876282,1034.538208,701.653381,1033.617188,701.40625L1033.4375,701.316406C1033.14209,701.157043,1032.888184,700.929688,1032.699219,700.652344C1032.614624,700.549316,1032.546387,700.433533,1032.5,700.308594C1032.117798,699.524963,1031.870239,698.682434,1031.769531,697.816406C1031.082275,693.453125,1030.478027,689.077515,1029.957031,684.691406C1026.58667,657.162781,1023.523682,629.579224,1020.773438,601.984375C1020.530762,599.676575,1020.317017,597.364014,1020.132813,595.050781C1020.000183,593.304199,1019.890625,591.554138,1019.804688,589.804688C1019.805237,589.495422,1019.822144,589.186401,1019.855469,588.878906L1019.929688,588.660156C1019.991699,588.523743,1020.070862,588.396423,1020.15625,588.273438C1020.309448,588.110901,1020.480103,587.966431,1020.664063,587.839844C1021.080994,587.661377,1021.527161,587.560852,1021.980469,587.546875C1022.167603,587.531982,1022.355469,587.53363,1022.542969,587.542969z"/>
    <path transform="matrix(-1,0,0,-1,0,0)" style="stroke:#000000;stroke-width:0.05mm;fill:none" d="M1054.460938,638.558594C1054.246582,638.581238,1054.036743,638.631958,1053.832031,638.699219L1053.535156,638.824219C1053.400024,638.924377,1053.28064,639.044739,1053.191406,639.1875C1052.885742,639.920654,1052.7146,640.702515,1052.679688,641.496094C1052.537109,643.750977,1052.503052,646.011353,1052.578125,648.269531C1052.682861,654.219849,1053.026855,660.163208,1053.609375,666.085938C1053.718018,666.995422,1053.865356,667.899902,1054.050781,668.796875C1055.548462,666.930237,1056.969116,665.002808,1058.308594,663.019531C1061.758057,658.028503,1065.09668,652.960144,1068.320313,647.820313C1068.96228,646.750061,1069.560181,645.653931,1070.113281,644.535156C1070.211304,644.292786,1070.286987,644.041992,1070.335938,643.785156L1070.300781,643.550781C1070.237915,643.407104,1070.166626,643.267334,1070.085938,643.132813C1069.542847,642.62616,1068.899536,642.239502,1068.199219,641.992188C1067.031982,641.558716,1065.848755,641.169495,1064.652344,640.824219C1062.442139,640.187195,1060.226074,639.579468,1058,639C1056.944946,638.747925,1055.868652,638.595886,1054.785156,638.542969L1054.460938,638.558594z"/>
</svg>
