<?xml version="1.0" encoding="UTF-8"?>
<svg xmlns="http://www.w3.org/2000/svg" width="149.440mm" height="117.135mm" viewBox="-1109.652832 -649.034180 149.440430 117.135254">
    <path transform="matrix(-1,0,0,-1,0,0)" style="stroke:#000000;stroke-width:0.05mm;fill:none" d="M1007.15625,636.089844C1005.920593,637.651978,1004.541016,639.094849,1003.035156,640.398438C1002.390503,640.707886,1001.094055,642.812317,1001.28125,643.546875C1001.185181,643.730835,1001.029114,644.251221,1000.640625,644.773438C999.376953,646.472046,994.63501,647.837708,991.464844,648.621094C990.85791,648.786621,990.234192,648.883362,989.605469,648.90625L989.375,648.878906L989.179688,648.820313C988.928162,648.684509,988.704712,648.502869,988.519531,648.285156C988.074097,647.890381,987.710938,647.41156,987.445313,646.878906L987.390625,646.726563C987.387695,646.707214,987.404968,646.644836,987.371094,646.597656C986.669312,645.620056,985.569336,645.668945,984.96875,645.359375C983.707153,644.942993,982.426147,644.525269,981.160156,644.117188C980.239502,643.831604,979.351563,643.449646,978.511719,642.976563C977.978088,642.648682,977.518799,642.213806,977.15625,641.703125C976.694641,640.973083,976.302368,640.201538,975.984375,639.398438C975.635925,638.473694,975.197754,637.585205,974.675781,636.746094C974.153381,635.939453,973.485291,635.23645,972.699219,634.683594C971.53186,633.901978,970.282104,633.25116,968.972656,632.742188C967.794617,632.287842,966.634827,631.787537,965.496094,631.242188C964.093872,630.55719,962.771973,629.71875,961.554688,628.742188C961.142151,628.414001,960.773499,628.033875,960.460938,627.609375L960.371094,627.46875C960.304199,627.348022,960.254883,627.218994,960.21875,627.085938C960.209839,627.011841,960.211975,626.937561,960.214844,626.863281C960.353943,626.34845,960.59668,625.867981,960.921875,625.445313C961.607117,624.44104,962.440002,623.545959,963.394531,622.792969L963.667969,622.621094C963.739319,622.568726,963.819885,622.529358,963.90625,622.511719L964.011719,622.480469C964.108215,622.476624,964.202332,622.45459,964.292969,622.421875C964.376404,622.381897,964.453674,622.331421,964.53125,622.28125L964.667969,622.175781C964.771545,622.093872,964.867859,622.003601,964.964844,621.914063C965.536987,621.345215,966.04657,620.716736,966.484375,620.039063C967.671021,618.326599,969.298157,616.966492,971.195313,616.105469C971.825623,615.759521,972.504822,615.510376,973.210938,615.375C973.768677,615.317566,974.332336,615.358826,974.875,615.5C975.9021,615.756409,976.929382,616.019897,977.953125,616.289063C979.656616,616.680359,981.424194,616.705078,983.136719,616.355469C985.241028,615.887085,987.139709,614.755371,988.554688,613.128906C989.348145,612.231323,989.991577,611.211609,990.460938,610.109375C991.137512,608.474182,991.622803,606.766296,991.90625,605.019531C992.272827,602.780701,992.530884,600.525452,992.679688,598.261719C992.830322,596.001709,993.036133,593.746033,993.296875,591.496094C993.493225,589.764282,993.847534,588.053955,994.355469,586.386719C994.472717,585.987732,994.625916,585.600159,994.816406,585.230469L995.058594,584.847656C995.453125,584.347168,995.923828,583.91156,996.457031,583.5625C997.342773,582.992859,998.265747,582.483276,999.21875,582.035156C1000.280029,581.534607,1001.261902,580.880066,1002.132813,580.09375C1002.997131,579.265198,1003.761597,578.338501,1004.410156,577.332031C1004.521606,577.163879,1004.646423,577.005127,1004.777344,576.851563C1004.972839,576.185364,1005.250671,575.546021,1005.605469,574.949219C1006.43927,573.507019,1007.211975,572.030457,1007.921875,570.523438C1009.15802,567.842957,1009.863708,564.948608,1010,562C1010.108276,560.181702,1010.331543,558.372192,1010.667969,556.582031C1010.905701,555.299011,1011.123047,554.012451,1011.320313,552.722656C1011.387329,552.301575,1011.417847,551.87561,1011.414063,551.449219C1011.406006,551.411743,1011.388489,551.378906,1011.375,551.34375L1011.332031,551.289063C1010.953308,551.005554,1010.524292,550.79718,1010.070313,550.664063C1009.31604,550.425293,1008.568542,550.165649,1007.828125,549.886719L1007.695313,549.824219C1007.673401,549.670776,1007.633118,549.521118,1007.582031,549.375C1007.33075,548.839172,1007.122131,548.284302,1006.960938,547.714844C1006.756104,546.964111,1006.791565,546.16803,1007.070313,545.441406C1007.128723,545.340271,1007.189392,545.240479,1007.261719,545.148438C1007.307678,545.091248,1007.355591,545.03595,1007.398438,544.976563L1006.335938,543.746094C1006.351624,543.621643,1006.353149,543.496277,1006.347656,543.371094C1006.293274,543.006226,1006.222351,542.643982,1006.136719,542.285156C1006.122803,542.170898,1006.127014,542.055908,1006.136719,541.941406L1006.175781,541.777344L1006.25,541.613281L1006.363281,541.453125C1006.541565,541.258911,1006.756653,541.101135,1007,541C1009.841858,540.574646,1012.70166,540.278809,1015.570313,540.113281C1017.743958,539.937561,1019.925354,539.875,1022.105469,539.925781C1022.404541,539.939392,1022.703186,539.961243,1023,540C1023.094177,540.080078,1023.180847,540.168274,1023.261719,540.261719C1023.429138,540.481384,1023.56543,540.723511,1023.65625,540.984375C1023.886475,541.63147,1024.005249,542.313171,1024,543L1023.9375,543.191406C1023.781067,543.580566,1023.61554,543.966064,1023.441406,544.347656L1023.265625,544.882813C1023.214661,545.067627,1023.189514,545.257996,1023.175781,545.449219C1023.148743,545.991821,1023.323303,546.523865,1023.65625,546.953125L1023.78125,547.109375C1024.486694,547.827698,1024.925049,548.764893,1025.035156,549.765625C1025.112061,550.361389,1025.146729,550.961792,1025.140625,551.5625C1025.096069,552.546753,1025.043823,553.536072,1024.984375,554.519531C1024.950928,555.012634,1024.956055,555.50769,1025,556L1024,569L1041,573C1042.023804,573.324524,1043.041016,573.669678,1044.050781,574.035156C1046.614258,574.939209,1049.267456,575.565613,1051.964844,575.902344C1055.366089,576.260559,1058.803589,576.034058,1062.128906,575.234375C1064.168335,574.732544,1066.18457,574.140686,1068.171875,573.460938C1068.890625,573.200806,1069.63208,573.007751,1070.386719,572.886719C1071.252808,570.700256,1072.389648,568.630981,1073.769531,566.726563C1075.269531,564.599121,1076.95459,562.608459,1078.804688,560.777344C1081.162598,558.550964,1083.792969,556.632202,1086.632813,555.066406L1087.117188,554.796875C1088.240845,554.199402,1089.359131,553.59259,1090.472656,552.976563C1090.787964,552.819214,1091.071655,552.604675,1091.308594,552.34375C1093.606079,549.159058,1094.828613,545.325317,1094.800781,541.398438C1094.802368,541.005066,1094.753296,540.613586,1094.664063,540.230469C1094.429321,539.550781,1094.011108,538.947754,1093.445313,538.503906C1093.139526,538.274536,1092.826416,538.055054,1092.507813,537.84375C1092.069946,537.543335,1091.699951,537.152954,1091.4375,536.691406C1090.889648,535.739014,1090.709351,534.61853,1090.933594,533.542969L1090.980469,533.246094L1091,533C1092.515259,532.419556,1094.105347,532.057129,1095.722656,531.925781C1097.601563,531.792542,1099.483154,532.154175,1101.175781,532.980469C1101.883423,533.33075,1102.585693,533.692688,1103.28125,534.066406L1103.746094,534.285156C1104.594849,534.838867,1105.174927,535.722168,1105.335938,536.722656C1105.413818,537.306519,1105.446655,537.895447,1105.433594,538.484375C1105.421143,538.891968,1105.469727,539.299377,1105.582031,539.691406L1109.421875,542.179688C1109.510864,542.85907,1109.584839,543.5401,1109.644531,544.222656C1109.683594,545.069824,1109.610962,545.918518,1109.425781,546.746094C1108.875244,549.573303,1107.909058,552.303528,1106.558594,554.847656C1106.125488,555.652771,1105.705933,556.465637,1105.300781,557.285156L1105.152344,557.640625C1105.139771,558.577271,1105.072632,559.512329,1104.953125,560.441406C1104.899292,561.129822,1104.941162,561.822388,1105.074219,562.5C1105.093018,562.608276,1105.093262,562.71875,1105.082031,562.828125C1105.072266,562.94812,1105.040894,563.064087,1105.007813,563.179688C1104.816895,563.699219,1104.493896,564.158264,1104.078125,564.523438C1103.75293,564.744995,1103.38855,564.901672,1103.003906,564.984375C1102.583374,565.069031,1102.175659,565.208679,1101.792969,565.402344C1101.348145,565.648132,1100.959473,565.983887,1100.644531,566.382813C1099.87854,567.338135,1099.33728,568.453125,1099.054688,569.644531C1098.922241,570.244629,1098.765015,570.839111,1098.582031,571.425781L1098.5,571.589844C1098.565796,571.882935,1098.644287,572.173035,1098.742188,572.457031C1099.047729,573.431946,1099.114868,574.46582,1098.941406,575.472656C1098.790771,576.826477,1098.534546,578.166382,1098.175781,579.480469C1098.132446,579.658508,1098.075806,579.833313,1098,580C1098.414917,581.575073,1098.612671,583.199524,1098.589844,584.828125C1098.636108,585.631897,1098.655884,586.437073,1098.648438,587.242188C1098.5896,588.025452,1098.425049,588.797119,1098.15625,589.535156C1097.484497,591.710876,1096.359131,593.719788,1094.855469,595.429688C1094.193237,596.17627,1093.567383,596.954529,1092.980469,597.761719C1092.006836,599.174927,1091.297241,600.752625,1090.882813,602.417969C1090.55188,603.511658,1090.39502,604.650574,1090.417969,605.792969C1090.488037,606.618958,1090.594849,607.441345,1090.738281,608.257813C1090.93396,609.57666,1091.023315,610.909058,1091.007813,612.242188C1091.059326,612.794678,1091.216309,613.332031,1091.464844,613.828125C1091.750854,614.374451,1090.586792,614.906433,1090.89917,615.438171L1090.96167,615.594421C1091.039185,615.776367,1091.063477,615.977295,1091.031982,616.172546L1090.981201,616.445984C1090.789795,616.915833,1091.992554,617.360718,1091.671875,617.753906C1091.406494,618.109375,1091.196167,618.502808,1091.050781,618.921875C1091.002319,619.087769,1090.966431,619.257263,1090.960938,619.429688C1090.953613,619.620728,1090.964966,619.812012,1091,620L1090.878906,619.972656L1090.761719,619.988281L1090.652344,620.046875C1090.570068,620.108032,1090.49939,620.184082,1090.457031,620.277344L1090.371094,620.449219C1090.172363,621.018188,1090.087524,621.620728,1090.117188,622.222656C1090.124268,622.831116,1090.17688,623.438232,1090.273438,624.039063C1090.239136,623.987976,1090.198242,623.942505,1090.160156,623.894531C1090.126587,623.876282,1090.100708,623.850159,1090.066406,623.832031L1090.023438,623.828125L1089.988281,623.839844C1089.964966,623.863281,1089.946533,623.889587,1089.925781,623.914063L1089.878906,624.039063L1089.847656,624.214844C1089.80188,625.146057,1089.851807,626.079468,1090,627C1089.933594,626.935669,1089.866821,626.871704,1089.789063,626.820313L1089.730469,626.800781C1089.691772,626.799072,1089.654907,626.806091,1089.617188,626.808594C1089.581787,626.827759,1089.550903,626.853577,1089.523438,626.882813C1089.386475,627.142273,1089.301514,627.425903,1089.28125,627.71875C1089.194092,628.729553,1089.186523,629.745728,1089.257813,630.757813L1089.179688,630.617188L1089.097656,630.515625L1089.003906,630.449219L1088.910156,630.425781L1088.808594,630.433594C1088.732178,630.465942,1088.657471,630.502075,1088.589844,630.550781L1088.476563,630.652344L1088.359375,630.78125C1088.276123,630.890503,1088.19751,631.003113,1088.121094,631.117188C1087.686523,631.85144,1087.342896,632.635925,1087.097656,633.453125C1086.775391,634.391479,1086.572021,635.366516,1086.492188,636.355469C1086.469604,636.50708,1086.469604,636.661682,1086.496094,636.8125L1086.457031,636.671875L1086.398438,636.570313L1086.324219,636.507813L1086.226563,636.488281L1086.113281,636.5L1085.980469,636.546875L1085.835938,636.628906C1085.400269,636.943359,1085.003174,637.307922,1084.652344,637.714844C1083.603638,638.902954,1082.036865,641.653564,1082.124878,642.723755C1081.556641,642.522339,1079.778442,643.911621,1079.275635,645.205322C1078.635864,645.486633,1077.635376,646.544373,1077.171875,647.441406C1076.95752,647.829895,1076.657959,648.164124,1076.296875,648.421875C1076.142822,648.519043,1075.978027,648.597473,1075.808594,648.664063C1075.224121,648.85907,1074.615356,648.970764,1074,649C1073.376831,649.058044,1072.748901,649.046143,1072.128906,648.960938C1071.25708,648.837463,1070.454834,648.41864,1069.851563,647.777344C1068.933838,646.764404,1068.914673,646.033142,1068.613892,644.699829C1068.452637,643.714355,1068.84729,642.623291,1069.257324,641.712708C1070.087646,639.914551,1070.648071,638.218811,1071.738892,636.565674C1073.324585,634.184814,1074.592041,631.451843,1076.46875,629.292969C1077.235718,628.429321,1077.962646,627.530945,1078.648438,626.601563C1078.785645,626.413513,1078.9021,626.211182,1079,626C1079.923218,624.044067,1080.350952,621.890564,1080.242188,619.730469C1080.172363,618.091797,1080.53186,616.301392,1079.701294,614.887085C1079.38269,614.360352,1078.936401,613.95459,1078.477905,613.543701C1078.320557,613.413269,1077.810913,613.365356,1077.638306,613.255798C1077.40625,613.129333,1076.721924,613.08136,1076.464844,613.019531L1076.230469,612.992188C1075.35144,613.06012,1074.468384,613.058289,1073.589844,612.984375C1072.473633,612.897339,1071.353882,612.860352,1070.234375,612.875C1069.820068,612.879395,1069.406738,612.921021,1069,613C1064.640259,613.88208,1060.257568,614.6427,1055.855469,615.28125C1052.168945,615.789673,1048.457886,616.102539,1044.738281,616.21875C1039.877808,616.398804,1035.020142,616.685303,1030.171875,617.078125C1027.114502,617.379028,1024.157715,618.335144,1021.503906,619.882813C1018.914307,621.421143,1016.694519,623.509705,1015,626L1008,635C1007.725586,635.368469,1007.444702,635.732239,1007.15625,636.089844z"/>
</svg>
