<?xml version="1.0" encoding="UTF-8"?>
<svg xmlns="http://www.w3.org/2000/svg" width="496.411mm" height="437.224mm" viewBox="-980.177185 -566.289429 496.410706 437.223816">
    <path transform="matrix(-0.576151,0,0,-0.576151,-472.790375,-114.917236)" style="stroke:#000000;stroke-width:0.05mm;fill:none" d="M708,783.02301C700.077454,781.737,680.786804,779.171387,671.375732,778.1521C664.592651,777.417419,656.63855,775.309753,640.375732,769.937561C628.344116,765.963074,616.591736,761.894043,614.259338,760.895203C603.533203,756.301636,603.438171,742.374878,614.102783,737.957458C617.512329,736.545105,621.055176,736.917297,667.925659,743.611572C696.60553,747.707764,700.406311,748.042114,711.425659,747.437988C719.640381,746.987671,724.299133,746.278381,726,745.219116C731.569458,741.750366,741.815247,731.733215,743.374451,728.2323C744.288696,726.179504,747.237732,716.849976,749.927917,707.5C752.618103,698.150024,756.865662,683.451538,759.366882,674.836792C764.016052,658.824036,765.040222,652.833862,772.418152,598.5C778.094421,556.69812,778.238586,555.253845,777.794373,544.635193C777.389038,534.945007,777.093018,533.814392,771.051453,518.884277L764.732422,503.268524L760.116211,501.014313C757.577271,499.774506,738.947632,491.385315,718.716919,482.371704C698.486206,473.358093,680.060669,464.800842,677.771301,463.355621C675.481934,461.9104,666.677368,455.726654,658.205566,449.613983C649.733826,443.501282,640.661987,437.342346,638.046021,435.92746C635.430054,434.512573,619.643555,421.012573,602.964844,405.92746C518.231506,329.29007,497.987488,311.990692,493.05423,312.004272C492.199402,312.006622,487.899994,309.577026,483.5,306.605194C476.547546,301.909363,471.407623,299.74823,444.247192,290.100922C427.058167,283.995422,411.856201,279,410.465088,279C409.073944,279,406.444061,279.62326,404.62088,280.38504C399.612122,282.477844,387.976379,284.929352,378.486389,285.891235L370.007507,286.750671L363.022522,293.339935C354.358765,301.512878,352.476013,302.490845,342.5,304C338.100006,304.665619,333.318146,305.820709,331.873657,306.566864C328.222137,308.453033,317,320.902863,317,323.067688C317,324.045837,315.659515,326.186646,314.021118,327.825043C310.345947,331.500214,295.475433,342,293.945587,342C293.330353,342,290.790649,340.537628,288.301819,338.750305C283.337463,335.185181,279.916473,329.334167,275,316C268.691162,298.889496,263.866852,292.051849,254.853592,287.44577C252.17662,286.077759,249.284134,283.577789,248.029495,281.547729C246.4879,279.053375,243.546814,276.824951,237.960617,273.918701C228.286377,268.88562,222.763046,264.122833,215.963211,254.950378C211.888748,249.454239,210.635406,246.878494,210.248047,243.20517C209.959427,240.46817,208.912598,237.578354,207.745468,236.296677C205.950729,234.325775,205.858322,233.619736,206.869537,229.603851C208.876129,221.634918,208.279526,217.143265,204,208C201.811859,203.324997,200.016708,198.541885,200.010773,197.37085C200.004852,196.199814,201.084839,192.824814,202.410767,189.87085C203.736679,186.916885,205.133972,182.541656,205.515869,180.148148C206.451553,174.283661,210.28656,170.163742,216,168.885117C218.475006,168.331238,221.496902,166.941696,222.715347,165.797256C225.107132,163.550766,227.963837,163.21109,235,164.336594C239.73317,165.093704,243.299637,163.876068,241.491638,162.12027C240.164948,160.831894,200.525955,146.397964,141.5,125.709877C107.394691,113.756256,101.239868,112.502319,71.659889,111.48114C53.277966,110.84655,48.920265,109.793297,40.387474,103.922577C32.063683,98.195663,30.696722,90.89653,36.519775,83.270309C38.45565,80.73497,40.930649,78.036446,42.019775,77.273598C43.300636,76.376442,44,74.742188,44,72.64624C44,68.565872,37.758232,62,33.87928,62C30.70867,62,22.304615,56.535118,21.480066,53.937195C21.141903,52.871738,20.445549,52,19.932611,52C18.470009,52,18.830988,47.584583,20.905661,40.097874C24.526314,27.03231,26.729797,25.452036,39.884975,26.486467C45.934071,26.962124,51.144043,26.701031,57.377285,25.609852C65.88813,24.119961,66.514778,24.139877,72.558319,26.092344C76.025383,27.212437,79.398201,28.774878,80.053482,29.564438C80.708755,30.353996,82.439659,31,83.89994,31C85.360214,31,87.488297,31.653717,88.629013,32.452705C93.364319,35.769444,104.398758,38.9725,114.698936,40.020237C120.540169,40.614407,126.260002,41.610859,127.409676,42.23457C128.559357,42.85828,131.300003,43.691082,133.5,44.085239C141.763824,45.565804,149.571793,47.089985,190,55.114525C262.400452,69.485199,275.384369,71.906151,280.310516,71.953629C285.679901,72.005386,355.731873,79.340233,369,81.239929C374.727234,82.059944,393.97348,82.477226,428,82.519127C482.611359,82.586372,480.843018,82.447586,505.241699,88.581543C510.59964,89.928558,522.524597,92.3433,531.741699,93.947632C540.95874,95.551971,563.125,100.729889,581,105.454117C621.462524,116.148064,620.1651,115.923119,622.329529,112.61985C623.258667,111.20182,625.252075,109.422165,626.759399,108.665047C630.458679,106.806931,654.683777,103.618134,660.684265,104.199455C666.174866,104.731392,695.207886,116.672844,701.46637,120.973389C703.684875,122.497826,713.758606,127.877892,723.852417,132.929092C744.828857,143.426193,746.929321,143.819397,748.27002,137.5C749.857178,130.018936,748.308472,127.587593,733.2854,113.976021C725.712036,107.114212,714.264893,96.4375,707.847351,90.25C699.025757,81.744659,695.539429,79,693.557373,79C689.571167,79,684.350159,76.464005,682.489197,73.623894C680.206726,70.140358,678.732727,57.706337,680.030762,52.885674C681.408936,47.767624,686.913086,43.413166,695.206116,40.880165L701.912231,38.831863L711.104309,41.476364C716.160034,42.93084,723.025024,45.498241,726.359924,47.181698C736.108948,52.102985,758.84552,67.999847,762.832764,72.682648C764.849731,75.051468,771.518311,84.754433,777.651855,94.244797C783.7854,103.735161,794.180359,119.824997,800.75177,130C807.323181,140.175003,813.476624,150.006454,814.426086,151.847687C815.375549,153.688919,817.736694,162.913925,819.673096,172.347687C822.915771,188.145874,823.2453,191.39473,823.846863,213.5L824.5,237.5L834.118164,253.5C844.853027,271.357635,849.846985,281.007965,855.582031,294.976685C858.092957,301.092529,861.73938,307.476105,865.864075,312.976685C869.379272,317.66452,872.928894,323.075012,873.752075,325C874.575256,326.924988,876.57605,335.700012,878.198242,344.5C881.397461,361.85495,881.436768,366.981445,878.493591,383C877.634583,387.674988,876.463013,394.424988,875.890015,398C874.439819,407.04776,872.173401,414.453156,861.416016,445.29306C855.222412,463.049255,849.804016,481.05838,845.456421,498.338135C837.760071,528.92749,832.171326,549.96991,827.485779,566C821.145325,587.691589,813.07666,615.535339,803.143799,650C781.212219,726.098022,776.906006,740.239929,773.759949,746.5C772.654358,748.700012,769.443542,752.766907,766.624878,755.537598C763.806213,758.308289,758.708313,763.512939,755.296265,767.103516C747.583496,775.219727,741.584351,778.539612,730.30542,780.933105C718.613892,783.414246,713.412476,783.90155,708,783.02301z"/>
</svg>
