<?xml version="1.0" encoding="UTF-8"?>
<svg xmlns="http://www.w3.org/2000/svg" width="105.183mm" height="128.896mm" viewBox="-1106.583984 -716.072021 105.183228 128.895996">
    <path transform="matrix(-1,0,0,-1,0,0)" style="stroke:none;fill:#000000;fill-rule:evenodd" d="M1014.214844,632.460938C1015.320984,632.544189,1016.346741,633.071167,1017.058594,633.921875C1018.010681,635.02356,1018.657166,636.355591,1018.933594,637.785156C1019.269897,639.406372,1019.213623,641.084595,1018.769531,642.679688C1018.434692,643.834045,1017.846069,644.899109,1017.046875,645.796875C1015.604553,647.47052,1013.109436,647.735596,1011.347656,646.402344C1010.690186,645.890564,1010.139465,645.254883,1009.726563,644.53125C1009.046387,643.359497,1008.651611,642.044067,1008.574219,640.691406C1008.468506,639.25946,1008.66272,637.82135,1009.144531,636.46875C1009.484863,635.532288,1010.00061,634.669189,1010.664063,633.925781C1011.554443,632.910828,1012.867859,632.368958,1014.214844,632.460938z"/>
    <path transform="matrix(-1,0,0,-1,0,0)" style="stroke:none;fill:#000000;fill-rule:evenodd" d="M1026.031982,626.599976L1037.52002,587.176025L1050.040039,587.176025L1062.176025,628.288025L1069,613L1069,587.176025L1087.959961,587.176025L1087.959961,612.968018L1102.911987,646.487976L1084.008057,646.487976L1078.472046,633.392029L1072.920044,646.487976L1054.047974,646.487976L1059.52002,634.223999L1046.735962,634.223999L1043.687988,622.671997L1040.647949,634.223999L1023.815979,634.223999L1024.104004,633.223999C1019.358398,631.002136,1013.832214,631.209229,1009.263977,633.776001C1008.998535,633.917969,1008.737183,634.067627,1008.47998,634.223999L1008.47998,587.176025L1026.031982,587.176025L1026.031982,626.599976z"/>
    <path transform="matrix(-1,0,0,-1,0,0)" style="stroke:none;fill:#000000;fill-rule:evenodd" d="M1012.304016,655.640015C1014.617798,655.783081,1016.837097,656.609619,1018.679993,658.015991C1019.868408,658.905518,1020.919556,659.964783,1021.799988,661.159973C1023.255371,663.069153,1024.307373,665.254578,1024.887939,667.583984C1025.234009,669.192688,1025.442627,670.827942,1025.511963,672.471985C1025.646973,674.840271,1025.713623,677.211853,1025.712036,679.583984L1025.712036,687L1028,687C1027.809204,684.765198,1027.718262,682.522949,1027.728027,680.280029L1027.719971,679.039978L1027.719971,655.927979L1045.280029,655.927979L1045.280029,659.335999L1045.33606,659.072021L1045.416016,658.823975L1045.511963,658.583984C1045.703735,658.190063,1045.984863,657.845825,1046.33606,657.583984C1047.205566,656.92688,1048.182739,656.425964,1049.223999,656.104004C1050.685669,655.6073,1052.251465,655.495117,1053.767944,655.783997C1055.717529,656.199463,1057.436768,657.337891,1058.583984,658.968018C1059.063965,659.600891,1059.478271,660.281067,1059.81604,661C1059.730347,659.310791,1059.700928,657.61908,1059.728027,655.927979L1080.119995,655.927979C1080.052124,659.037598,1080.221069,662.147888,1080.624023,665.231995C1080.890137,667.177063,1081.359253,669.088806,1082.024048,670.935974C1082.567261,672.354126,1083.296021,673.693848,1084.192017,674.919983C1084.624023,675.467957,1085.133301,675.950439,1085.703979,676.35199C1085.862183,676.468872,1086.033081,676.568115,1086.215942,676.640015C1086.658691,676.849426,1087.135864,676.976379,1087.624023,677.015991L1087.624023,655.927979L1106.583984,655.927979L1106.583984,715.23999L1087.624023,715.23999L1087.624023,695.935974C1087.003662,695.974304,1086.406006,696.185486,1085.904053,696.552002C1085.202637,697.051392,1084.578735,697.651733,1084.05603,698.335999C1082.647461,700.03595,1081.64209,702.032898,1081.112061,704.176025C1080.827881,705.239075,1080.62439,706.322205,1080.504028,707.416016C1080.22998,709.516602,1080.101318,711.633667,1080.119995,713.752014L1080.119995,715.23999L1060.784058,715.23999C1060.715576,711.278259,1060.924072,707.31665,1061.407959,703.383972C1061.780762,700.54834,1062.401855,697.750916,1063.264038,695.023987C1064.047485,692.614319,1065.147461,690.319458,1066.536011,688.200012C1067.144531,687.313293,1067.815918,686.471497,1068.543945,685.679993C1065.650513,682.324036,1063.467529,678.415833,1062.128052,674.192017C1061.755859,673.065247,1061.432495,671.922913,1061.160034,670.768005C1060.956543,672.989075,1060.269165,675.138306,1059.144043,677.064026C1058.301758,678.435791,1057.177734,679.612732,1055.848022,680.52002C1054.269165,681.533508,1052.456543,682.125244,1050.583984,682.23999C1049.453979,682.334534,1048.316162,682.242737,1047.215942,681.968018C1046.566284,681.798706,1045.943115,681.54071,1045.359985,681.208008C1045.35437,682.118896,1045.541504,683.020325,1045.904053,683.856018C1046.139648,684.348389,1046.475952,684.785828,1046.887939,685.143982C1047.489624,685.65332,1048.220581,685.986084,1049,686.104004C1049.893311,686.28009,1050.809448,686.303528,1051.712036,686.184021C1053.375,686.009155,1054.998535,685.565674,1056.52002,684.872009C1057.918091,684.262207,1059.261841,683.534424,1060.536011,682.695984L1060.536011,697.52002C1056.758911,700.814758,1052.026855,702.815735,1047.031982,703.231995C1044.905518,703.436157,1042.762329,703.384644,1040.647949,703.080017C1038.57251,702.753601,1036.585205,702.008545,1034.807983,700.888C1032.928711,699.645752,1031.417603,697.921692,1030.432007,695.895996C1029.83606,694.735229,1029.340454,693.525696,1028.952026,692.280029L1008.151978,716.072021L1008.151978,702.976013L1001.416016,702.976013C1001.398193,697.647034,1001.395752,692.329651,1001.40802,687L1008.159973,687C1008.173706,685.039673,1008.16571,683.080139,1008.135986,681.119995C1008.113098,679.818115,1008.003601,678.519287,1007.807983,677.231995L1007.703979,676.856018C1007.6073,676.616699,1007.490173,676.386108,1007.35199,676.16803C1007.261475,676.035706,1007.145691,675.921631,1007.007996,675.840027C1006.839111,675.714722,1006.646301,675.625061,1006.440002,675.583984C1006.32312,675.563232,1006.206482,675.542236,1006.088013,675.536011L1005.895996,675.536011C1005.637268,675.5495,1005.382019,675.598999,1005.135986,675.679993C1005.014221,675.732178,1004.893311,675.786438,1004.776001,675.848022C1003.901184,676.34552,1003.10498,676.970459,1002.416016,677.703979C1002.071533,678.053589,1001.737854,678.413452,1001.416016,678.783997L1001.416016,659.632019C1003.739624,657.383972,1006.763916,656.001343,1009.984009,655.711975C1010.754333,655.628052,1011.529968,655.603821,1012.304016,655.640015M1046.744019,666.304016C1046.5,666.316589,1046.261353,666.372375,1046.031982,666.455994C1045.921997,666.505554,1045.815918,666.562805,1045.712036,666.624023L1045.560059,666.728027C1045.454224,666.811157,1045.365112,666.911865,1045.280029,667.015991L1045.280029,672.656006C1046.070435,673.079956,1046.993164,673.189087,1047.855957,672.94397L1048.128052,672.823975C1048.654541,672.553589,1049.06311,672.099609,1049.287964,671.552002C1049.530518,670.932007,1049.617676,670.262512,1049.552002,669.599976C1049.540161,668.737549,1049.269775,667.89917,1048.776001,667.192017L1048.640015,667.031982C1048.543335,666.933716,1048.441406,666.840881,1048.33606,666.752014C1048.224243,666.668884,1048.10498,666.596802,1047.984009,666.528015C1047.843872,666.453857,1047.696533,666.395081,1047.543945,666.35199C1047.28186,666.291443,1047.011719,666.277893,1046.744019,666.304016"/>
</svg>
