<?xml version="1.0" encoding="UTF-8"?>
<svg xmlns="http://www.w3.org/2000/svg" width="92.101mm" height="96.245mm" viewBox="-1283.140015 -695.977600 92.100708 96.245056">
    <path transform="matrix(-0.26462,0,0,-0.26462,-1188.688354,-595.458191)" style="stroke:#000000;stroke-width:0.05mm;fill:none" d="M249.942764,377.607086C246.070267,374.975647,237.950485,365.542236,234.701004,359.899506C232.6745,356.380463,226.114594,351.991669,222.889542,351.997223C220.738953,352.000946,214.216766,347.527252,210.5,343.499023C202.752014,335.101746,197.151825,328.195099,195.500275,325C194.505234,323.075012,192.455994,319.924988,190.946411,318C189.436829,316.075012,186.982071,310.899994,185.491409,306.5C184.000748,302.100006,182.168686,297.310608,181.420151,295.856903C179.721008,292.557007,172.306885,287.059113,164.712524,283.467468C158.459,280.509949,153.509079,275.497803,148.943283,267.5C145.797806,261.990143,139.969147,256.030701,132.880402,251.076691C128.613251,248.094559,127.392525,247.781723,116.880394,246.976349C95.913132,245.369965,85.244698,243.213684,76.727303,238.860687C75.426208,238.195724,74.785294,238.39595,74.318161,239.613281C72.890221,243.334427,76.876144,246.11058,86.5,248.097809C96.87748,250.240646,101.790611,253.500031,103.687447,259.5C104.277458,261.366302,106.350395,263.633698,109.172859,265.5C117.637749,271.09726,118.833084,272.296722,119.502602,275.86554C119.86451,277.794708,121.555328,281.400238,123.259964,283.877838C125.865578,287.664978,126.367149,289.347748,126.408562,294.441284C126.452545,299.851044,126.058411,301.074371,122.728912,305.862213C120.038635,309.730865,119,312.269745,119,314.977356C119,320.024261,116.022705,323.562347,109.118126,326.72052C106.028152,328.133881,99.224998,331.28006,94,333.712006C81.069794,339.730347,77.108521,340.108459,68.755112,336.121765C63.847614,333.779633,60.819416,333,56.629627,333L51.045189,333L44.003101,324.072662C38.403244,316.973633,35.934219,314.681244,31.94739,312.879425C28.148405,311.162506,26.214985,309.445374,23.966883,305.791748C22.335096,303.139771,21,300.766602,21,300.518066C21,300.269562,18.729815,296.490448,15.955142,292.120087C9.275111,281.598419,8.707972,279.395325,10.003408,269C10.841031,262.278442,10.777628,259.558472,9.700377,256C8.467942,251.928909,8.532055,250.950745,10.373041,245.737244C12.151306,240.701355,12.256118,239.406662,11.203991,235.472885C10.541796,232.997009,10,227.908752,10,224.165649C10,217.936371,10.278265,217.027161,13.28571,213.429993C15.092852,211.268494,17.341717,208.28006,18.283188,206.789032C19.806974,204.375778,20.538763,204.101227,24.946934,204.289032C31.618219,204.573242,32.569145,203.44278,30.582048,197.58992C29.71385,195.0327,27.877716,190.718796,26.501753,188.003464C24.822006,184.688644,24,181.419357,24,178.053482C24,175.296326,23.263348,171.199402,22.362997,168.949203C21.061956,165.697586,20.942516,164.10289,21.781015,161.178955C22.361279,159.155533,23.14909,151.425003,23.531708,144C24.26687,129.733597,24.620041,128.42627,29.14665,123.215202C30.715992,121.408569,32,118.962654,32,117.779846C32,114.789772,40.845528,101.767189,44.570892,99.27269C46.568195,97.935303,49.154129,94.191742,51.967686,88.564629C55.786674,80.926651,56.275768,79.18557,56.14156,73.706421C56.057949,70.292885,55.504398,64.800003,54.911449,61.5C53.102959,51.435051,52.653011,35.267334,54.081604,31.681608C56.278019,26.168673,58.826969,23.301588,63.473583,21.11742C69.092064,18.476423,70.865631,18.476297,78.433418,21.11635C90.788025,25.426302,92.67363,30.424891,86.25,41.837517C82.687965,48.166054,82.5,48.951107,82.5,57.5C82.5,64.731789,82.979012,67.678802,84.93811,72.5C87.754517,79.430984,93.929337,89.758904,95.652023,90.41996C96.527901,90.756065,96.789261,86.980141,96.671875,75.685944C96.544273,63.408894,96.8507,59.57523,98.271561,55.672215C102.084381,45.1987,107.042595,38.156734,112.391174,35.618668C119.598129,32.198742,129.96582,34.605366,135.291367,40.934425C140.046463,46.585541,139.288895,48.477222,128.794113,57.158134C121.087479,63.532799,119.823303,73.984222,125.305489,86C129.745804,95.732208,140.694656,108.008942,148.493256,112C152.973785,114.292984,154.459839,114.498688,166.439148,114.484177C187.732956,114.458389,190.922394,112.591545,193.441345,98.679337C196.219391,83.336121,198.209229,78.247543,205.438156,68C212.750809,57.633774,214.949402,50.974346,215.07608,38.807178C215.195374,27.348606,217.979767,22.091616,226.132523,17.932394C229.210083,16.362335,231.506821,15.909736,234.617401,16.260344C243.18837,17.226416,252.100174,24.958281,250.490036,30.031408C250.152878,31.093706,248.104691,34.321606,245.938507,37.204517L242,42.446175L242.01297,53.473087C242.024551,63.319351,244.373016,82.148888,246.828552,92.083519C249.196457,101.663658,251.147125,100.548393,253.533646,88.25C253.827133,86.737503,254.540207,83.025002,255.118256,80C259.187592,58.704075,264.787659,43.715454,270.118866,39.850796C277.487854,34.508881,287.337494,33.408962,293.102112,37.284225C296.205261,39.370304,296.525757,40.055466,296.796875,45.182751C297.079987,50.536999,296.94104,50.904449,293.796875,53.115616C287.228058,57.73521,285.390259,60.684864,282.918732,70.575142C280.044983,82.074974,280.304993,85.568802,285.683411,107.72451C285.980408,108.94799,287.298126,111.108673,288.611694,112.526031C289.925262,113.94339,291,115.4972,291,115.978943C291,117.85096,296.416534,121,299.636536,121C302.522095,121,303.506714,121.700668,306.525055,125.901985C308.462006,128.598083,310.676361,131.045563,311.445831,131.340836C312.215302,131.636108,312.992279,132.915695,313.172424,134.184341C313.386871,135.69429,314.881561,137.205643,317.5,138.56015C319.826111,139.763412,322.372131,142.180786,323.584106,144.336761C324.730347,146.37587,326.816467,149.271774,328.21994,150.77211C330.982697,153.725586,333.983124,159.112961,334.027832,161.200333C334.043121,161.915146,335.347717,164.206772,336.92691,166.292816C339.282318,169.40419,339.705627,170.775711,339.28302,173.926514C338.872589,176.986496,339.424835,178.960098,341.999207,183.633698C345.047394,189.167542,345.165558,189.755661,344.084045,194.01123C343.230011,197.371689,343.225281,199.347824,344.065521,201.758072C344.703644,203.588623,344.936646,207.274872,344.602081,210.246841C344.276794,213.136078,343.731232,218.649994,343.389679,222.5C342.872742,228.326614,342.201355,230.276779,339.384338,234.133972C337.522949,236.682663,335.98999,239.38266,335.977753,240.133972C335.965546,240.885284,335.075531,242.625,334,244C332.924469,245.375,332.034454,246.762695,332.022247,247.083786C332.01001,247.404861,334.478851,249.374817,337.508545,251.461441C345.752869,257.139526,351.571259,266.079254,355.387299,278.931488C357.345581,285.526855,357.453918,290.996979,355.674438,293.430542C354.600006,294.899933,353.510712,295.125061,349.924438,294.619019C335.516876,292.585968,334.299683,292.634308,329.530823,295.429077C322.889587,299.321106,321.600372,301.787048,322.284485,309.28952C322.595978,312.705292,322.401855,317.524994,321.853149,320C321.304443,322.475006,320.602112,326.062469,320.292389,327.972168C319.982697,329.881866,317.877716,333.897064,315.614655,336.894806L311.5,342.345306L311.5,354.566833C311.5,365.337402,311.265289,367.047821,309.52298,368.973785C306.73114,372.059906,303.883606,371.207825,292.831665,363.979187C285.233521,359.009552,282.965912,357.980133,280.625,358.437866C279.043762,358.74704,276.730255,359,275.483917,359C273.784454,359,271.955322,360.860718,268.169006,366.441193C258.43042,380.794495,256.433685,382.017761,249.942764,377.607086z"/>
</svg>
