<?xml version="1.0" encoding="UTF-8"?>
<svg xmlns="http://www.w3.org/2000/svg" width="138.238mm" height="139.248mm" viewBox="-418.523438 -353.069824 138.238281 139.248352">
    <path transform="matrix(-1,0,0,-1,0,0)" style="stroke:none;fill:#000000;fill-rule:evenodd" d="M312.738281,213.835938C313.769745,213.812744,314.801666,213.853119,315.828125,213.957031C316.318878,214.029922,316.786896,214.212326,317.199219,214.488281C318.058289,215.042664,318.827576,215.724899,319.480469,216.511719C319.693939,216.782944,319.962677,217.006058,320.269531,217.164063C320.322784,217.187103,320.385895,217.181656,320.421875,217.136719C320.457367,217.097748,320.495758,217.061462,320.539063,217.03125C320.837219,216.896866,321.161255,216.829346,321.488281,216.832031C323.571747,216.728363,325.658844,216.729645,327.742188,216.835938C328.601959,216.885208,329.451691,217.046631,330.269531,217.316406C331.143921,217.640854,331.929352,218.166763,332.5625,218.851563C333.351318,219.730103,334.061188,220.676346,334.683594,221.679688C335.466827,222.885498,336.158783,224.148148,336.753906,225.457031C336.955475,226.027954,337.210632,226.578537,337.515625,227.101563C337.572021,227.20932,337.657532,227.299805,337.765625,227.355469C337.804626,227.341003,337.84491,227.330368,337.886719,227.328125L337.910156,227.363281C337.987793,227.664185,338.022186,227.974579,338.011719,228.285156C338.015442,229.400879,338.006287,230.517426,337.984375,231.632813C337.968018,231.876907,337.991364,232.122055,338.050781,232.359375L338.078125,232.40625C338.101044,232.419403,338.126343,232.42514,338.152344,232.425781C338.30246,232.29071,338.441833,232.144089,338.570313,231.988281C338.637115,231.909988,338.731506,231.864288,338.832031,231.84375C338.904053,231.84993,338.955444,231.912216,338.960938,231.984375C338.975861,232.174332,338.962402,232.365479,338.917969,232.550781C338.856842,232.972458,338.844818,233.399826,338.882813,233.824219C338.940033,234.890442,339.099701,235.948669,339.359375,236.984375C339.39566,237.180786,339.479523,237.365295,339.601563,237.523438L339.636719,237.546875C339.711426,237.518539,339.792114,237.558334,339.820313,237.632813C339.894165,237.910278,339.924652,238.197617,339.910156,238.484375C339.886292,239.729904,339.856445,240.969589,339.820313,242.214844C339.795105,242.864868,339.827576,243.515945,339.917969,244.160156L340.109375,244.917969C340.268555,244.631073,340.435455,244.348511,340.609375,244.070313L340.660156,244.007813C340.679779,243.986557,340.704803,243.973068,340.730469,243.960938L340.757813,243.976563C340.810852,244.164429,340.825592,244.361053,340.800781,244.554688C340.737183,245.644806,340.679993,246.733353,340.628906,247.824219C340.609161,248.062698,340.653015,248.302521,340.753906,248.519531C340.847137,248.692795,341.004059,248.822769,341.191406,248.882813C341.610077,249.003799,342.041321,249.075485,342.476563,249.097656C342.822632,249.12558,343.165833,249.154083,343.511719,249.183594C344.132904,249.209412,344.749725,249.301025,345.351563,249.457031L345.46875,249.503906C345.51825,249.525635,345.55722,249.562454,345.59375,249.601563L345.601563,249.65625C345.470001,249.809128,345.288727,249.908478,345.089844,249.941406C344.95517,249.984283,344.828064,250.048248,344.714844,250.132813C344.626923,250.193695,344.578583,250.295578,344.582031,250.402344C344.643921,250.53418,344.781158,250.615021,344.925781,250.597656C345.248779,250.628937,345.563629,250.717468,345.855469,250.859375C346.82962,251.27005,347.789703,251.712982,348.734375,252.1875C349.611053,252.637054,350.589813,252.852417,351.574219,252.8125C352.16861,252.779892,352.764893,252.800461,353.355469,252.875C353.452698,252.880325,353.546143,252.917969,353.617188,252.984375L353.652344,253.0625C353.60379,253.166672,353.605499,253.288864,353.671875,253.382813C353.9216,253.499985,354.198456,253.545837,354.472656,253.515625C354.942688,253.541092,355.409454,253.609039,355.867188,253.71875C356.881805,253.959396,357.894348,254.213516,358.902344,254.480469C359.699493,254.68364,360.510193,254.829865,361.328125,254.917969C361.75943,254.919876,362.190186,254.950928,362.617188,255.011719C362.676971,255.022614,362.73172,255.049072,362.785156,255.078125C362.812714,255.116943,362.82782,255.163315,362.816406,255.210938C362.789581,255.257629,362.761047,255.303329,362.730469,255.347656C362.726593,255.375656,362.730865,255.40303,362.738281,255.429688L362.777344,255.460938C363.050903,255.561188,363.341736,255.60643,363.632813,255.59375C364.355072,255.622787,365.077942,255.635864,365.800781,255.632813L369.117188,255.632813C370.002991,254.741943,370.89978,253.863373,371.808594,252.996094C373.728729,251.251068,375.872559,249.769363,378.183594,248.589844C379.486786,247.925186,380.810364,247.301117,382.152344,246.71875C382.7164,246.474884,383.263275,246.193115,383.789063,245.875C384.032074,245.657089,384.302643,245.471848,384.59375,245.324219C385.383606,244.889267,386.179382,244.464676,386.980469,244.050781C388.032898,243.497437,388.99353,242.784424,389.828125,241.9375C390.191925,241.563431,390.478821,241.12149,390.671875,240.636719C390.737854,240.488647,390.833923,240.355942,390.953125,240.246094C390.986847,240.224548,391.026978,240.215302,391.066406,240.222656C391.091156,240.244736,391.116028,240.26683,391.140625,240.289063C391.240845,240.28331,391.332825,240.235962,391.398438,240.160156C391.802246,239.743958,392.154999,239.280975,392.449219,238.78125C393.120056,237.780258,393.681885,236.710419,394.125,235.589844C394.217224,235.312256,394.278229,235.025299,394.308594,234.734375C394.345398,234.468079,394.429871,234.210754,394.554688,233.972656L394.605469,233.921875C394.704865,233.644623,394.757629,233.353088,394.761719,233.058594C394.854248,231.956726,394.90509,230.851807,394.914063,229.746094C394.918793,228.899185,394.980255,228.053574,395.097656,227.214844C395.105957,227.16803,395.120422,227.122742,395.136719,227.078125C395.197144,227.065018,395.257019,227.049927,395.3125,227.023438L395.351563,226.976563L395.363281,226.90625C395.29541,226.667648,395.170715,226.449509,395,226.269531C394.458618,225.626282,393.879547,225.015793,393.265625,224.441406C392.579803,223.807358,391.959564,223.105804,391.414063,222.347656C390.91098,221.574158,390.570648,220.706207,390.414063,219.796875C390.239868,219.013016,390.131409,218.215973,390.089844,217.414063C390.076813,217.288544,390.111664,217.163345,390.1875,217.0625L390.261719,217.035156C390.521729,217.053497,390.78302,217.037186,391.039063,216.988281C391.531555,216.890167,392.059784,216.780975,392.550781,216.675781C394.762787,216.339188,397.022339,216.533279,399.144531,217.242188C400.157104,217.622391,401.024292,218.311478,401.625,219.210938C402.247406,220.156097,402.750977,221.174133,403.125,222.242188C403.341034,222.909561,403.584808,223.567673,403.855469,224.214844C403.892212,224.324463,403.962067,224.419189,404.054688,224.488281L404.09375,224.488281L404.132813,224.460938C404.254974,224.258118,404.361877,224.0466,404.453125,223.828125C404.470154,223.807144,404.484314,223.784546,404.503906,223.765625C404.516785,223.768555,404.528259,223.774139,404.539063,223.78125C404.598541,224.121582,404.61911,224.467453,404.601563,224.8125C404.646484,226.398682,404.759918,227.982147,404.941406,229.558594C404.945892,229.715668,405.000519,229.868103,405.101563,229.988281C405.198212,230.022476,405.302643,229.982269,405.367188,229.902344C405.432617,229.848602,405.500183,229.79747,405.570313,229.75C405.59845,229.735184,405.629059,229.729034,405.660156,229.726563C405.651794,229.880768,405.610077,230.030884,405.539063,230.167969C405.407654,230.813263,405.32428,231.467392,405.289063,232.125C405.20697,233.300812,405.143127,234.478394,405.097656,235.65625C405.452301,235.263733,405.791229,234.857178,406.113281,234.4375C406.703766,233.639725,407.152832,232.746521,407.441406,231.796875C407.510223,231.530273,407.544128,231.255814,407.542969,230.980469C407.549896,230.73465,407.633118,230.49707,407.78125,230.300781C408.005951,229.650909,408.161591,228.979294,408.246094,228.296875C408.445587,227.054764,408.561646,225.800598,408.59375,224.542969C408.605072,224.268768,408.656921,223.997818,408.746094,223.738281C408.769196,223.685822,408.804657,223.638977,408.859375,223.621094L408.9375,223.609375C408.99115,223.565475,409.017395,223.497604,409,223.429688C408.85144,223.070343,408.634979,222.743027,408.363281,222.464844C407.748718,221.753662,407.100861,221.071869,406.421875,220.421875C405.965546,219.986511,405.560547,219.500153,405.214844,218.972656C404.793762,218.273239,404.523804,217.493591,404.421875,216.683594C404.27243,215.737228,404.153839,214.786102,404.066406,213.832031C406.218933,213.815338,408.367157,213.817963,410.519531,213.839844C411.480743,213.82518,412.441498,213.894302,413.390625,214.046875C414.164429,214.173416,414.848145,214.623962,415.269531,215.285156C416.143799,216.528122,416.772339,217.92717,417.121094,219.40625C417.238129,219.935516,417.386841,220.457306,417.566406,220.96875C417.586029,221.020523,417.61319,221.069305,417.660156,221.097656C417.682404,221.101761,417.704559,221.100266,417.726563,221.097656C417.772308,221.066971,417.80545,221.023575,417.839844,220.980469C417.894775,220.884888,417.954407,220.792053,418.019531,220.703125C418.046936,220.673462,418.084198,220.655212,418.125,220.65625C418.20517,220.768417,418.251099,220.901138,418.253906,221.039063C418.309174,221.501099,418.348206,221.96492,418.371094,222.429688L418.503906,224.546875L418.523438,228.460938L418.480469,228.523438C418.346252,228.815231,418.265381,229.128876,418.242188,229.449219C418.084076,230.621155,418.061768,231.807343,418.175781,232.984375C418.180969,233.140182,418.230011,233.290939,418.308594,233.425781C418.338593,233.446167,418.364502,233.471222,418.390625,233.496094C418.424042,233.803421,418.389526,234.113892,418.289063,234.40625C417.680817,236.248566,417.359375,238.173279,417.335938,240.113281C417.316956,240.253632,417.36499,240.39563,417.464844,240.496094L417.574219,240.539063C417.704742,240.54277,417.835052,240.55217,417.964844,240.566406C418.00058,240.578842,418.025696,240.608246,418.035156,240.644531L418.003906,240.71875C417.845703,240.92836,417.676239,241.129257,417.496094,241.320313C417.221252,241.739105,417.005585,242.19397,416.855469,242.671875C416.644257,243.249771,416.507385,243.85231,416.449219,244.464844C416.423004,244.648117,416.44458,244.835266,416.511719,245.007813L416.585938,245.089844L416.65625,245.152344C416.71228,245.243729,416.710327,245.360931,416.644531,245.445313C416.445801,245.766342,416.2099,246.062683,415.941406,246.328125C414.990906,247.492279,414.138977,248.73349,413.394531,250.039063C413.376617,250.075439,413.364105,250.113876,413.351563,250.152344C413.350494,250.170746,413.350769,250.189209,413.359375,250.207031C413.550842,250.228455,413.74472,250.206528,413.925781,250.140625L414.503906,249.988281C414.260223,250.309174,414.028198,250.638733,413.808594,250.976563C412.873749,252.694992,412.137421,254.513687,411.613281,256.398438C411.561493,256.548889,411.54248,256.708893,411.558594,256.867188L411.601563,256.882813C411.797394,256.762115,411.985077,256.628876,412.164063,256.484375L412.234375,256.449219L412.277344,256.457031L412.292969,256.507813C412.271393,256.658813,412.238739,256.808075,412.191406,256.953125C411.65509,258.822388,411.222168,260.719818,410.894531,262.636719C410.811829,263.053253,410.776581,263.477875,410.789063,263.902344L410.808594,263.964844C410.82663,263.993011,410.849762,264.017242,410.875,264.039063L410.925781,264.054688C411.196899,264.0242,411.465607,263.975525,411.730469,263.910156C411.811951,263.889191,411.897949,263.903809,411.96875,263.949219L411.984375,263.988281L411.984375,264.039063C411.848969,264.349274,411.669708,264.638336,411.453125,264.898438C411.094666,265.566742,410.772583,266.253967,410.488281,266.957031C409.931732,268.215576,409.417053,269.492401,408.945313,270.785156C408.893005,270.901276,408.865845,271.026947,408.865234,271.154297C409.149506,271.108521,409.431641,271.050446,409.710938,270.980469L409.789063,270.984375C409.810394,271.007172,409.82663,271.034454,409.828125,271.066406C409.733643,271.353973,409.607727,271.630371,409.453125,271.890625C408.656738,274.017731,408.085938,276.222412,407.75,278.46875C408.042389,278.258057,408.346191,278.06366,408.660156,277.886719C408.782288,277.799438,408.933929,277.764648,409.082031,277.789063C409.098999,277.806488,409.114777,277.825043,409.125,277.847656C409.076324,278.025696,408.977905,278.186035,408.839844,278.308594C408.253204,279.630859,407.729187,280.97995,407.269531,282.351563C406.697266,284.002472,406.044128,285.624207,405.3125,287.210938C405.253784,287.33197,405.192505,287.451752,405.128906,287.570313L404.355469,288.949219C404.760559,288.844849,405.173309,288.772858,405.589844,288.734375C405.701996,288.707825,405.82074,288.725647,405.921875,288.78125L405.9375,288.816406L405.917969,288.882813C405.489258,289.535095,405.008331,290.15155,404.480469,290.726563C403.172638,292.245422,401.823303,293.7276,400.433594,295.171875L401.128906,296.5C401.487976,297.243317,401.710419,298.045074,401.785156,298.867188C401.969513,300.752106,401.745667,302.654633,401.128906,304.445313C401.033386,304.812744,400.905487,305.171082,400.746094,305.515625C400.71579,305.564667,400.673431,305.604156,400.621094,305.628906L400.582031,305.617188L400.539063,305.585938C400.464355,305.496552,400.395599,305.402344,400.332031,305.304688L400.261719,305.269531L400.183594,305.277344L400.101563,305.335938C399.890533,305.596466,399.713409,305.882477,399.574219,306.1875C398.888397,307.325836,398.139832,308.425201,397.332031,309.480469C396.61084,310.407776,395.939301,311.37265,395.320313,312.371094C395.232056,312.594543,395.097534,312.796875,394.925781,312.964844C394.890717,312.993073,394.848114,313.007629,394.804688,313.019531L394.75,313.015625C394.668945,312.966705,394.613251,312.88382,394.609375,312.789063C394.580658,312.504517,394.596649,312.217224,394.65625,311.9375C394.678894,311.781372,394.676636,311.622345,394.640625,311.46875L394.617188,311.449219C394.202911,311.719147,393.812164,312.023621,393.449219,312.359375C392.278992,313.220428,391.063782,314.018402,389.808594,314.75C388.819336,315.341827,387.846191,315.960602,386.890625,316.605469C386.835693,316.638916,386.775421,316.663361,386.710938,316.664063L386.664063,316.625C386.630707,316.498932,386.618317,316.368469,386.625,316.238281L386.625,315.671875C386.112396,315.953552,385.588531,316.214111,385.054688,316.453125C383.880005,316.948059,382.687958,317.400177,381.480469,317.808594C379.871887,318.354187,378.279785,318.948273,376.707031,319.589844C376.525635,319.667328,376.330048,319.705902,376.132813,319.703125L376.082031,319.6875L376.054688,319.65625L376.046875,319.609375C376.133972,319.406616,376.270203,319.229034,376.441406,319.089844C376.48996,319.049988,376.530304,319.000366,376.550781,318.941406C376.558685,318.906799,376.56366,318.871582,376.558594,318.835938C376.537689,318.79892,376.500397,318.779144,376.460938,318.765625C376.10556,318.706238,375.743011,318.704163,375.386719,318.757813C373.445374,318.967072,371.499146,319.136444,369.550781,319.265625C369.164978,319.307037,368.775513,319.303131,368.390625,319.253906L368.328125,319.222656L368.316406,319.1875C368.431366,319.116821,368.531952,319.024536,368.609375,318.914063L368.625,318.863281C368.599396,318.761169,368.523224,318.681244,368.421875,318.652344C368.013672,318.531006,367.595367,318.447205,367.171875,318.402344C365.443726,318.062134,363.691223,317.71106,361.964844,317.359375C361.742493,317.326416,361.520966,317.287384,361.300781,317.242188C361.29483,317.222839,361.294739,317.203156,361.296875,317.183594C361.364929,317.071442,361.462311,316.979584,361.578125,316.917969C361.663086,316.876526,361.718994,316.789307,361.714844,316.695313L361.699219,316.652344C361.54007,316.550232,361.373016,316.461182,361.199219,316.386719C359.633728,315.508636,358.141907,314.505432,356.738281,313.386719C356.614594,313.307587,356.512024,313.199036,356.441406,313.070313C356.482239,313.022095,356.501831,312.958344,356.480469,312.898438C356.313202,312.484711,356.083557,312.099121,355.800781,311.753906C355.213135,310.975037,354.611359,310.206573,353.996094,309.449219C353.766724,309.163696,353.564301,308.857605,353.390625,308.535156C353.367035,308.493652,353.359283,308.446075,353.359375,308.398438C353.369324,308.374908,353.38092,308.35202,353.402344,308.335938C353.51767,308.338287,353.631989,308.356567,353.742188,308.390625C353.850983,308.418274,353.964539,308.422699,354.074219,308.398438C354.080261,308.376678,354.077972,308.356476,354.082031,308.335938C353.828979,307.566956,353.528992,306.814209,353.183594,306.082031C352.866608,305.299744,352.501282,304.537781,352.089844,303.800781C351.928345,303.638031,351.804474,303.442169,351.726563,303.226563L351.730469,303.1875L351.777344,303.132813C351.975006,303.108307,352.175262,303.133423,352.363281,303.199219L352.472656,303.210938C352.581299,303.220734,352.683411,303.16275,352.734375,303.066406C352.801971,302.896942,352.761871,302.703003,352.625,302.582031C352.361816,302.463745,352.067322,302.435608,351.785156,302.496094C351.178253,302.576324,350.576904,302.693787,349.984375,302.847656C349.088196,303.078705,348.170532,303.217407,347.246094,303.261719C347.030151,303.256622,346.820923,303.345154,346.683594,303.511719C346.674133,303.543518,346.669495,303.576691,346.675781,303.609375C346.692352,303.64801,346.71936,303.67923,346.746094,303.710938C346.842224,303.777374,346.944519,303.834229,347.050781,303.882813L347.035156,303.917969C346.660767,304.064941,346.2677,304.158539,345.867188,304.195313C344.951904,304.395233,344.051361,304.657684,343.171875,304.980469C342.018311,305.42099,340.857697,305.84433,339.691406,306.25C339.447662,306.341309,339.194946,306.406891,338.9375,306.445313L338.835938,306.503906C338.779663,306.548798,338.750458,306.616425,338.742188,306.6875L338.773438,306.792969C338.831451,306.856232,338.904144,306.90332,338.984375,306.933594C339.136169,306.933472,339.286987,306.956482,339.433594,306.996094C339.466919,307.011963,339.499695,307.0271,339.519531,307.058594L339.535156,307.101563L339.523438,307.152344C339.50354,307.190704,339.478119,307.225739,339.449219,307.257813C339.205841,307.461395,338.924622,307.614532,338.621094,307.707031C337.882202,308.022125,337.21228,308.478668,336.648438,309.050781C335.630859,310.047699,334.745941,311.171417,334.015625,312.394531L332.714844,314.527344C333.21579,314.450195,333.71698,314.375977,334.21875,314.304688L333.324219,316.117188C332.607178,317.737152,332.08548,319.436493,331.769531,321.179688C331.591064,322.137604,331.357483,323.084503,331.070313,324.015625C330.971558,324.240875,330.894714,324.475098,330.839844,324.714844C330.839691,324.746796,330.843811,324.778625,330.855469,324.808594C330.877075,324.823761,330.900452,324.831421,330.921875,324.84375C331.186676,324.790253,331.444702,324.707703,331.691406,324.597656C331.864838,324.518555,332.051758,324.472778,332.242188,324.464844C332.287933,324.473175,332.332306,324.488678,332.359375,324.527344C332.390472,324.624939,332.385071,324.730469,332.34375,324.824219C332.138977,325.343994,331.896027,325.847931,331.617188,326.332031C330.955139,327.580994,330.393372,328.880676,329.9375,330.21875C329.663025,330.891571,329.336426,331.541931,328.960938,332.164063L328.191406,333.375C328.666016,333.428558,329.14325,333.484802,329.617188,333.542969L328.652344,334.140625C328.259003,334.414642,327.899719,334.734741,327.582031,335.09375C326.53598,336.152405,325.600098,337.314606,324.789063,338.5625C324.674133,338.742249,324.595428,338.942871,324.554688,339.152344C324.215454,339.659027,323.813843,340.120819,323.359375,340.527344C322.617218,341.169769,321.932343,341.87561,321.3125,342.636719C321.198792,342.764954,321.121399,342.921387,321.089844,343.089844L321.113281,343.140625C321.243073,343.163208,321.375946,343.139984,321.492188,343.078125L321.585938,343.058594L321.660156,343.054688C321.697601,343.060486,321.727356,343.081268,321.757813,343.101563L321.78125,343.148438C321.78241,343.328125,321.733459,343.504791,321.636719,343.65625C321.373474,344.137054,321.081207,344.60144,320.761719,345.046875C320.287659,345.75943,319.869812,346.507813,319.511719,347.285156C319.473114,347.375275,319.445343,347.469635,319.429688,347.566406L319.453125,347.613281L319.515625,347.625C319.609833,347.594971,319.70166,347.558075,319.789063,347.511719L319.839844,347.503906C319.865814,347.518005,319.880737,347.543213,319.890625,347.570313C319.861328,347.875122,319.78009,348.172729,319.648438,348.449219C319.157623,349.718262,318.576721,350.950531,317.910156,352.136719C317.740051,352.500671,317.431335,352.781952,317.054688,352.921875C316.526306,353.134888,315.932739,353.119049,315.417969,352.875C314.811005,352.58493,314.298981,352.128418,313.941406,351.558594C313.723389,351.199249,313.526642,350.827454,313.351563,350.445313C313.216003,350.124084,313.021729,349.830688,312.777344,349.582031L312.722656,349.546875C312.692657,349.5336,312.660583,349.534851,312.628906,349.539063C312.603699,349.56665,312.586395,349.599426,312.570313,349.632813C312.577393,349.872284,312.494446,350.106018,312.339844,350.289063C311.956696,350.771027,311.448822,351.138672,310.871094,351.351563C310.608612,351.426086,310.328003,351.403259,310.082031,351.285156C309.571564,351.062836,309.113403,350.735626,308.738281,350.324219C308.135498,349.700714,307.681213,348.948822,307.410156,348.125C307.050873,347.085327,306.717377,346.036713,306.410156,344.980469C306.32251,344.64505,306.195374,344.321014,306.03125,344.015625C305.836456,343.888947,305.623108,343.79364,305.398438,343.734375C304.701233,343.501434,304.004395,343.272614,303.304688,343.046875C301.126404,342.244415,299.11676,341.042969,297.378906,339.503906C296.592377,338.817566,295.886139,338.044403,295.273438,337.199219C294.672882,336.264526,294.198669,335.254486,293.863281,334.195313C293.383911,332.733429,292.92688,331.26474,292.492188,329.789063C292.352936,329.320587,292.163177,328.868591,291.925781,328.441406C291.652832,328.023438,291.242615,327.713623,290.765625,327.566406C288.424377,326.726929,286.023163,326.066254,283.582031,325.589844C282.832153,325.507599,282.102173,325.294983,281.425781,324.960938C281.014679,324.769501,280.683289,324.440643,280.488281,324.03125C280.336731,323.579834,280.268036,323.104767,280.285156,322.628906C280.288849,320.753876,280.64389,318.896545,281.332031,317.152344C281.51828,316.744263,281.749054,316.35788,282.019531,316C282.425812,315.346069,282.801331,314.673492,283.144531,313.984375C283.581818,313.282104,284.157104,312.675964,284.835938,312.203125C285.807587,311.525665,286.814178,310.89978,287.851563,310.328125C288.66806,309.877625,289.446625,309.361572,290.179688,308.785156C290.455414,308.567841,290.691956,308.304962,290.878906,308.007813C291.039429,307.729126,291.093414,307.401489,291.03125,307.085938C290.679779,304.958679,290.279938,302.839569,289.832031,300.730469C289.741302,300.322601,289.605865,299.925781,289.429688,299.546875C289.401917,299.474579,289.408752,299.395691,289.4375,299.324219C289.540314,299.263885,289.671509,299.289032,289.75,299.378906C289.887329,299.479492,290.017822,299.589142,290.140625,299.707031C290.22171,299.791595,290.346252,299.821228,290.453125,299.773438C290.450684,299.462036,290.408783,299.152344,290.328125,298.851563C289.898346,296.935516,289.440216,295.027466,288.953125,293.125C288.86554,292.829041,288.797699,292.527618,288.75,292.222656C288.788849,292.224915,288.82785,292.224915,288.867188,292.226563C289.032471,292.280579,289.199127,292.330353,289.367188,292.375L289.429688,292.367188C289.475647,292.329834,289.498505,292.273651,289.492188,292.214844C289.359436,291.635712,289.275909,291.046326,289.242188,290.453125C289.164246,289.150055,289.069183,287.847565,288.957031,286.546875C288.913116,286.11676,288.819092,285.693054,288.675781,285.285156C288.592407,285.053406,288.531952,284.813965,288.496094,284.570313L288.507813,284.515625L288.539063,284.5C288.679321,284.563324,288.807465,284.650726,288.917969,284.757813C288.969727,284.79364,289.031494,284.806366,289.09375,284.808594C289.192017,284.738159,289.251099,284.627655,289.265625,284.507813C289.394989,283.917358,289.464325,283.315338,289.472656,282.710938C289.518738,281.255646,289.546143,279.799713,289.554688,278.34375C289.543427,278.098358,289.574097,277.852539,289.644531,277.617188C289.663239,277.59198,289.681427,277.567047,289.710938,277.554688C289.771698,277.559631,289.825165,277.599548,289.847656,277.65625C289.926178,277.769745,290.014923,277.875824,290.113281,277.972656L290.152344,277.996094C290.174194,277.993256,290.196136,277.993896,290.21875,277.988281C290.313324,277.838257,290.364624,277.665466,290.371094,277.488281C290.5495,276.225647,290.750061,274.966461,290.972656,273.710938C291.087524,272.737427,291.141052,271.757599,291.132813,270.777344C291.124268,270.398956,291.176971,270.021667,291.289063,269.660156C291.311218,269.614319,291.339325,269.571472,291.378906,269.539063L291.433594,269.523438L291.496094,269.542969C291.654663,269.694977,291.786011,269.873138,291.882813,270.070313C291.911224,270.119415,291.967316,270.145172,292.023438,270.136719C292.13147,270.07019,292.217407,269.97287,292.265625,269.855469C292.716522,268.906982,293.114319,267.934082,293.457031,266.941406C293.904724,265.73407,294.303528,264.509064,294.652344,263.269531C294.672577,263.157349,294.729706,263.054382,294.816406,262.980469L294.84375,262.980469L294.871094,262.996094C294.951355,263.137299,295.013306,263.288239,295.054688,263.445313C295.117828,263.636383,295.269867,263.786163,295.464844,263.835938L295.546875,263.800781C295.600922,263.711029,295.629669,263.608734,295.628906,263.503906C295.833038,263.065643,296.070618,262.643768,296.339844,262.242188C296.857788,261.422943,297.386658,260.610107,297.925781,259.804688C298.499237,258.933014,299.022247,258.029205,299.492188,257.097656C299.624329,256.774658,299.797516,256.46991,300.007813,256.191406C300.033295,256.166443,300.064484,256.147858,300.101563,256.148438L300.117188,256.210938C300.101471,256.373047,300.135986,256.535187,300.210938,256.679688C300.24176,256.713074,300.284058,256.729919,300.328125,256.738281C300.486053,256.705444,300.629364,256.622467,300.734375,256.5C301.223145,255.982681,301.673706,255.430557,302.082031,254.847656C303.699738,252.849991,305.677917,251.174011,307.914063,249.90625C308.262024,249.740128,308.578033,249.513931,308.847656,249.238281C309.066925,248.943481,309.213715,248.600784,309.273438,248.238281C309.967896,245.233932,310.481812,242.190781,310.8125,239.125C310.911896,238.261642,310.943268,237.391724,310.90625,236.523438C310.847321,236.122559,310.819794,235.717651,310.824219,235.3125C310.827637,235.206085,310.860138,235.102402,310.921875,235.015625C310.9505,235.005371,310.979309,234.994995,311.007813,234.984375C311.09787,234.819778,311.13678,234.632553,311.125,234.445313C311.138672,233.428497,311.102203,232.411667,311.015625,231.398438C310.961243,230.838623,310.959808,230.274887,311.011719,229.714844C311.025757,229.66861,311.036041,229.62236,311.0625,229.582031L311.097656,229.550781C311.124329,229.541489,311.152283,229.542236,311.179688,229.546875L311.230469,229.574219L311.324219,229.613281L311.394531,229.601563L311.421875,229.570313C311.489075,229.389664,311.507935,229.194702,311.480469,229.003906C311.439392,227.868011,311.302124,226.737747,311.070313,225.625C311.020477,225.527267,311.013733,225.41272,311.058594,225.3125L311.097656,225.269531L311.160156,225.234375C311.257111,225.215485,311.354858,225.201324,311.453125,225.191406C311.580933,225.122726,311.670135,224.996414,311.675781,224.851563C311.742157,224.447556,311.769867,224.038147,311.757813,223.628906C311.784058,223.074982,311.765717,222.519745,311.703125,221.96875C311.641693,221.57695,311.439697,221.220779,311.136719,220.964844C310.716156,220.593933,310.278259,220.243195,309.824219,219.914063C308.77417,219.099579,307.886414,218.095245,307.207031,216.953125C306.990173,216.575104,306.834961,216.164932,306.746094,215.738281C306.624756,215.348846,306.422089,214.989578,306.152344,214.683594C306.053711,214.584137,306.002258,214.448624,306,214.308594C306.056519,214.182755,306.169922,214.091904,306.304688,214.0625C306.910828,213.925125,307.530853,213.858261,308.152344,213.863281C309.680481,213.827972,311.209839,213.818848,312.738281,213.835938M323.9375,223.820313C323.93277,223.922409,323.953644,224.024063,324.003906,224.113281C324.089203,224.379074,324.155457,224.650726,324.203125,224.925781C324.258575,224.980453,324.33783,225.004074,324.414063,224.988281L324.679688,224.921875L324.769531,224.941406C324.833313,224.993927,324.87265,225.068176,324.890625,225.148438C324.959961,225.591461,324.984955,226.040314,324.964844,226.488281C324.952881,227.153427,324.996063,227.818512,325.09375,228.476563C325.132172,228.666443,325.225739,228.84024,325.359375,228.980469C325.406372,229.005051,325.458801,229.015976,325.511719,229.011719C325.654785,228.921326,325.753998,228.775711,325.785156,228.609375C326.051361,227.612701,326.096893,226.570663,325.917969,225.554688C325.779114,224.965714,325.386078,224.467636,324.84375,224.199219C324.574768,224.028976,324.284637,223.894638,323.980469,223.800781L323.9375,223.820313"/>
</svg>
