<?xml version="1.0" encoding="UTF-8"?>
<svg xmlns="http://www.w3.org/2000/svg" width="94.780mm" height="95.913mm" viewBox="-1150.445679 -422.490662 94.780273 95.913208">
    <path transform="matrix(0.428093,0,0,-0.428093,-1325.831665,-233.175079)" style="stroke:#000000;stroke-width:0.05mm;fill:none" d="M588,441.239014C588,440.820496,589.349976,439.362915,591,438C592.650024,436.637085,594,435.272858,594,434.968384C594,434.66391,591.982666,433.875275,589.51709,433.21582L585.03418,432.016815L578.76709,425.758392L572.5,419.5L567.5,410.16333C564.75,405.028137,560.700012,398.060333,558.5,394.679291L554.5,388.531952L550.5,385.974274C548.299988,384.567566,544.837341,382.852722,542.805176,382.163513L539.110291,380.910431L530.805176,380.364777L522.5,379.819092L509.316772,381.909546L496.133545,384L489.316772,384.010834L482.5,384.021637L477.573761,385.516022C469.257751,388.038727,463.604797,392.030792,449.733307,405.176819L442.688019,411.853668L435.123566,415.028931L427.559143,418.204193L423.741486,417.692139C421.641754,417.410522,418.815948,416.454193,417.461914,415.566986L415,413.953888L415,412.32135C415,411.423431,413.805542,409.122772,412.345642,407.20874L409.691284,403.728699L411.392853,400.569122L413.094391,397.409546L412.471191,395.785553L411.848022,394.161591L413.608643,391.33078C414.576965,389.773865,416.209534,387.546112,417.236603,386.380219L419.103943,384.260437L416.801971,383.521729C415.535889,383.115448,413.9375,382.851563,413.25,382.935364C411.491272,383.149658,411.680328,382.35141,414.193146,378.952637L416.386261,375.986267L415.193146,374.793121C413.337677,372.937683,413.683411,372.158691,418.5,367.342102C420.975006,364.867096,423,362.612274,423,362.33136C423,362.050415,423.949219,361.051941,425.109406,360.112488L427.218811,358.404388L428.59436,354.452209C429.350891,352.278503,429.976654,349.520172,429.984955,348.322571L430,346.145172L432.550171,344.139191C433.952789,343.035889,435.503754,341.990753,435.996796,341.81662L436.893188,341.5L435.071594,336L433.250031,330.5L434.160187,328.75C434.660797,327.787506,435.65979,327,436.380188,327C437.100616,327,438.496887,326.108429,439.483032,325.018768L441.276031,323.037506L439.928558,321.41394L438.581116,319.790344L441.799561,317.145172L445.018036,314.5L445.009003,310.933655C445.004059,308.972168,445.515747,304.697174,446.146118,301.433655C446.776489,298.170135,447.251526,294.673981,447.201813,293.664398L447.111389,291.828766L448.555695,292.382996L450,292.937225L450,291.401855L450,289.866486L453.491333,286.183258C455.41156,284.157471,456.986542,282.162506,456.991333,281.75C456.996094,281.337494,457.711761,281,458.581696,281C459.45163,281,462.039154,279.514648,464.331696,277.699249C466.624268,275.88382,470.123505,273.331451,472.107788,272.027344L475.715576,269.656219L475.286163,265.078094C474.667419,258.481689,471.126465,239.96524,469.885406,236.836334L468.828888,234.172668L463.979065,232.086334C461.311646,230.938858,458.650146,230,458.064606,230C456.070984,230,456.992126,228.324615,459.65213,227.11264L462.30426,225.904251L463.352112,226.952133C463.928467,227.528458,465.160004,228,466.088898,228L467.777771,228L467.731354,226.75C467.705811,226.0625,467.758911,224.824997,467.849304,224L468.013672,222.5L471.256836,220.341232L474.5,218.182465L476.787506,218.341232L479.075043,218.5L479.905853,219.845978L480.736664,221.19194L492.093353,220.660278L503.450043,220.128616L504.833221,221.276566L506.216431,222.4245L507.608215,220.521118L509,218.617737L508.98468,220.058868C508.976257,220.851486,508.577057,222.11937,508.097565,222.876358L507.225769,224.252716L497.98111,225.105774C487.048828,226.114532,482.129761,226.938248,479.772308,228.154861L478.044617,229.046478L478.583832,233.773239C479.565002,242.374222,481.149597,252.445679,482.12027,256.25L483.077087,260L487.015991,260L490.954926,260L496.53891,263.021057L502.122864,266.042084L503.105408,265.434845L504.087952,264.827606L506.416718,266.353455L508.745453,267.879333L511.122742,267.291931C513.297119,266.754669,523.147705,260.277863,523.761841,258.981659C523.905823,258.677704,525.953247,255.849228,528.311707,252.696136C534.15448,244.884567,538.858582,236.979904,539.96936,233.10675L540.893066,229.886154L536.464539,227.211243C534.02887,225.740051,531.846985,224.04361,531.615906,223.441376L531.195679,222.34642L534.583496,222.458817L537.971252,222.571228L539.185608,223.785614C540.996887,225.596893,542.599854,225.275345,545.594482,222.5L548.292053,220L552.645996,220L557,220L557,221.469803L557,222.939606L569.015991,222.591141L581.031982,222.242676L581.615234,223.186478L582.198547,224.13028L584.099304,222.410156L586,220.690018L586,221.77359C586,222.369537,585.319641,223.537521,584.488037,224.369095L582.976135,225.881042L578.738037,226.397369C576.407104,226.681351,570.112488,227.441025,564.75,228.085541L555,229.25737L555,230.171524C555,230.674316,553.051392,233.203903,550.669739,235.792847C548.288147,238.381775,543.908142,244.019516,540.936523,248.321152L535.533508,256.142303L540.270264,260.321136L545.007019,264.5L546.101318,267.75C546.703186,269.537506,547.585815,271,548.062622,271C549.532715,271,551.367188,275.307709,551.585999,279.27356L551.79425,283.047119L553.042114,284.550781C554.699829,286.548218,569.962646,295.495422,574.529114,297.146667L578.141052,298.452789L584.332458,304.476379L590.523926,310.5L597.116943,322.5L603.709961,334.5L607.935303,346L612.160645,357.5L613.580322,364.837982C615.435791,374.428558,615.336304,379.055267,613.098328,387.25L611.254883,394L612.076782,394C612.528809,394,614.235474,395.43042,615.869385,397.178711L618.840149,400.357422L620.038696,404.638123L621.237183,408.918823L620.599548,411.459412C619.852661,414.435272,619.957886,414.46228,624.654236,412.5C626.628723,411.674988,628.864319,411,629.622131,411L631,411L631,412.889221C631,413.928284,630.16394,415.810913,629.14209,417.072876L627.28418,419.36731L629.188354,422.594635L631.092529,425.82196L630.417419,430.91098L629.74231,436L628.871155,436L628,436L628,439.115021L628,442.230011L625.345276,440.49057L622.690491,438.751099L623.313843,440.375549L623.937256,442L605.968628,442L588,442L588,441.239014z"/>
</svg>
