<?xml version="1.0" encoding="UTF-8"?>
<svg xmlns="http://www.w3.org/2000/svg" width="338.040mm" height="140.800mm" viewBox="-947.651428 -412.799988 338.039917 140.799988">
    <path transform="matrix(-1,0,0,-1,81.012512,26)" style="stroke:#000000;stroke-width:0.05mm;fill:none" d="M1028.66394,313.687988L1028.407959,313.600006C1028.368286,313.59491,1028.327637,313.5896,1028.287964,313.584015C1028.239746,313.599396,1028.191772,313.615173,1028.144043,313.631989C1028.098267,313.663361,1028.052368,313.694519,1028.008057,313.727997C1027.985596,313.761902,1027.963501,313.796021,1027.94397,313.832001C1027.844604,314.337769,1027.828491,314.856018,1027.887939,315.368011C1027.907471,316.21051,1028.037231,317.046631,1028.271973,317.855988C1028.358521,318.044769,1028.454956,318.228851,1028.560059,318.40799L1028.66394,318.264008L1028.66394,321.70401C1027.483765,321.042755,1026.359985,320.285522,1025.303955,319.440002L1025.248047,319.368011L1025.176025,319.303986C1025.110718,319.256531,1025.046387,319.207855,1024.975952,319.167999L1024.936035,319.160004L1024.871948,319.208008C1024.848267,319.525635,1024.895386,319.843323,1025,320.144012C1025.280884,320.859039,1025.516235,321.591095,1025.703979,322.335999C1025.99231,323.412476,1026.216309,324.505096,1026.375977,325.608002C1026.396118,325.922943,1026.383789,326.238953,1026.343994,326.552002C1025.705811,325.148499,1025.001099,323.776306,1024.232056,322.440002C1023.443054,320.960541,1022.580688,319.521332,1021.64801,318.127991L1021.544006,318.056C1021.525757,318.092499,1021.510315,318.130005,1021.495972,318.167999C1020.932129,320.20636,1020.38562,322.248474,1019.856018,324.29599C1019.746033,324.695343,1019.620117,325.09021,1019.47998,325.480011L1019.40802,325.600006L1019.312012,325.720001C1019.282654,325.720642,1019.256958,325.709076,1019.231995,325.696014C1018.979675,325.235809,1018.782166,324.747375,1018.64801,324.23999C1017.793091,321.569641,1017.035339,318.869202,1016.375977,316.144012C1016.300415,315.904205,1016.197144,315.674103,1016.072021,315.455994L1016.047974,315.440002L1016.015991,315.424011L1015.960022,315.447998L1015.911987,315.471985C1015.736633,315.672028,1015.615112,315.914246,1015.567993,316.175995C1015.174438,317.20108,1014.534302,318.113464,1013.703979,318.832001C1012.539856,319.905151,1011.240906,320.822205,1009.840027,321.559998C1009.140991,321.937531,1008.434265,322.300232,1007.719971,322.64801C1007.448547,322.80719,1007.204834,323.009064,1007,323.247986C1006.871094,323.408173,1006.793396,323.603699,1006.768005,323.808014C1006.657776,324.193573,1006.544922,324.583221,1006.432007,324.967987C1006.251099,324.452484,1006.067017,323.937469,1005.880005,323.424011C1004.893066,323.748474,1003.88385,324.078552,1002.895996,324.399994C1003.826904,323.947937,1004.753296,323.492737,1005.679993,323.032013C1005.342285,321.834351,1004.976746,320.644806,1004.583984,319.463989C1004.419128,319.017242,1004.156738,318.61261,1003.815979,318.279999C1003.05188,317.761047,1002.327271,317.185913,1001.64801,316.559998C1001.057678,315.999451,1000.538879,315.368134,1000.104004,314.679993C999.919312,314.389008,999.769104,314.077576,999.656006,313.752014C999.640442,313.675079,999.626648,313.597778,999.616028,313.519989C999.620911,313.281433,999.524902,313.052643,999.359985,312.880005C999.264893,312.783417,999.155762,312.702332,999.039978,312.631989L998.487976,312.343994C997.297974,312.772095,996.091736,313.153748,994.872009,313.488007C994.884277,313.813293,994.881897,314.138947,994.864014,314.463989C995.200256,314.48764,995.538025,314.477692,995.872009,314.432007C996.059692,314.406006,996.23999,314.343536,996.40802,314.256012C996.611267,314.155792,996.789734,314.013794,996.94397,313.847992L997.208008,313.567993C997.745422,313.7836,998.269348,314.031738,998.776001,314.312012C999.030884,314.461487,999.252014,314.661621,999.432007,314.895996C999.456848,314.951935,999.473633,315.011017,999.47998,315.071991L999.471985,315.144012C999.403931,315.208069,999.32605,315.259399,999.23999,315.29599C998.843933,315.335022,998.455078,315.430359,998.088013,315.584015C996.847595,316.05304,995.622986,316.5625,994.416016,317.112C994.063049,317.872223,993.794983,318.669159,993.616028,319.488007C993.331665,320.58783,993.088745,321.697876,992.888,322.81601C992.387756,325.212463,991.982117,327.627594,991.671997,330.056C991.612061,330.699829,991.523193,331.659302,991.463989,332.303986C993.276123,333.45285,995.027954,334.694427,996.711975,336.023987C997.265259,336.456635,997.873413,336.813812,998.52002,337.088013C998.662537,337.14447,998.815796,337.170502,998.968018,337.152008C999.080566,337.164368,999.186707,337.205383,999.288025,337.256012L999.424011,337.35199C999.460083,337.423981,999.48584,337.5,999.512024,337.575989C999.847229,338.107239,1000.239075,338.600555,1000.679993,339.048004C1001.266296,339.693024,1001.863647,340.327698,1002.471985,340.951996L1002.471985,342.264008C1002.886292,342.109619,1003.299927,341.952271,1003.711975,341.791992C1003.643677,342.383026,1003.655884,342.980835,1003.752014,343.567993C1003.838928,344.352356,1003.964111,345.132019,1004.127991,345.903992C1004.501282,347.743469,1004.662048,349.619812,1004.607971,351.496002L1007.359985,353.76001L1006.208008,355.152008C1006.558716,355.595123,1006.950073,356.004547,1007.375977,356.376007C1007.61377,356.573853,1007.884766,356.727722,1008.176025,356.832001C1008.408813,356.838318,1008.632507,356.920624,1008.815979,357.063995C1008.99292,357.215607,1009.139099,357.39859,1009.255981,357.600006L1009.64801,358.343994C1009.126221,359.909119,1008.603516,361.487976,1008.088013,363.056C1008.435547,363.160126,1008.763184,363.321869,1009.05603,363.536011C1009.735413,364.009552,1010.39447,364.511505,1011.031982,365.040009C1010.996643,366.048706,1011.137085,367.055725,1011.447998,368.015991C1011.695923,368.779327,1011.954773,369.539856,1012.223999,370.29599C1012.769104,370.693298,1013.284851,371.129303,1013.768005,371.600006C1013.855042,371.70047,1013.936707,371.805328,1014.015991,371.911987C1014.0224,371.941833,1014.031738,371.970703,1014.039978,372C1014.290222,372.357239,1014.571838,372.691315,1014.880005,373C1015.621765,373.764465,1016.382263,374.552063,1017.119995,375.320007C1017.355896,375.584961,1017.56134,375.875244,1017.736023,376.18399C1017.823608,376.366547,1017.836121,376.574768,1017.776001,376.768005C1017.666199,376.965729,1017.535217,377.151062,1017.375977,377.312012L1016.864014,377.824005C1017.406555,378.522034,1017.926636,379.237091,1018.424011,379.967987C1018.552917,380.160522,1018.650757,380.372833,1018.695984,380.600006C1018.69458,380.646149,1018.677734,380.688324,1018.656006,380.727997L1018.616028,380.768005C1018.559021,380.780914,1018.502075,380.7883,1018.447998,380.808014C1017.999146,380.757355,1017.5448,380.798615,1017.112,380.928009C1016.633667,381.050385,1016.161255,381.194794,1015.695984,381.359985C1016.575684,382.289795,1017.362976,383.302734,1018.047974,384.384003L1018.807983,385.600006L1018.271973,386.992004L1019.728027,389.696014C1019.26355,390.292267,1018.807495,390.894836,1018.359985,391.503998C1018.00824,391.996155,1017.720947,392.531311,1017.504028,393.096008C1017.487122,393.189209,1017.470947,393.282471,1017.455994,393.376007L1017.455994,394.071991L1016.400024,394.76001C1015.570496,395.233124,1014.658081,395.54245,1013.711975,395.671997L1012.080017,395.888L1005.607971,393.167999C1003.552979,391.195587,1001.472107,389.248138,999.367981,387.328003C998.029236,386.136749,996.62146,385.025696,995.151978,384C993.770142,383.077301,992.25708,382.368225,990.664001,381.895996L988.559998,381.256012C986.615234,381.258728,984.664734,381.256042,982.719971,381.247986C978.978088,380.651123,975.183899,380.051025,971.440002,379.463989C969.063538,379.608032,966.703247,379.762085,964.328003,379.928009C962.607971,380.418976,960.964966,381.148254,959.447998,382.096008L957.736023,383.18399C955.732605,386.180786,953.87439,389.272583,952.16803,392.447998L950.031982,396.447998C948.234253,398.237549,946.456909,400.012451,944.664001,401.808014C943.67511,402.048981,942.693298,402.318451,941.719971,402.615997C941.423035,402.713287,941.137939,402.843933,940.872009,403.007996L940.840027,403.040009L940.83197,403.071991C940.858154,403.131195,940.887024,403.189209,940.927979,403.23999C941.35907,403.73761,941.842102,404.187866,942.367981,404.584015C942.755981,404.889008,943.091614,405.255066,943.367981,405.664001L943.400024,405.752014L943.400024,406.079987L928.007996,406.079987C928.191284,405.617828,928.369934,405.153687,928.544006,404.687988L926.271973,406.175995L926.271973,403.511993L925.528015,403.511993L924.952026,399.152008C925.503784,398.218018,926.027588,397.32782,926.575989,396.391998C926.250366,395.998657,925.933105,395.59848,925.624023,395.191986C925.331055,394.770905,925.118591,394.299072,925,393.799988C924.981079,393.469666,924.978455,393.138611,924.992004,392.808014C925.237366,392.792267,925.483582,392.797607,925.728027,392.824005C926.631958,393.019714,927.509949,393.320343,928.343994,393.720001C928.631958,393.833984,928.925659,393.932861,929.223999,394.015991L929.35199,394.023987C929.407654,394.016632,929.461731,394.001801,929.512024,393.976013L929.559998,393.928009C929.577087,393.862701,929.586609,393.795654,929.583984,393.727997C929.479492,393.11795,929.34137,392.51416,929.16803,391.920013C929.501099,390.719482,929.855835,389.447754,930.192017,388.247986C930.853394,387.482483,931.558716,386.756042,932.304016,386.071991C932.503784,385.90152,932.711365,385.740479,932.927979,385.59201L933.088013,385.528015L933.440002,385.528015C933.032471,384.076782,932.643188,382.621002,932.271973,381.160004C931.834778,379.189331,931.772949,377.153839,932.088013,375.160004C932.190613,374.453156,932.310852,373.748962,932.447998,373.048004L933.05603,369.903992L934.864014,364.984009L936.671997,360.056L942.320007,349.783997L947.616028,344.631989C949.105164,344.134857,950.545715,343.502899,951.919983,342.743988C953.892334,341.679138,955.809509,340.514923,957.664001,339.256012C957.917419,339.088562,958.150452,338.891968,958.359985,338.671997L958.895996,338.032013C958.916992,337.366974,958.956726,336.702759,959.015991,336.040009C959.108337,335.095062,959.403687,334.181274,959.880005,333.359985L960,333.18399C960.076355,333.09967,960.163513,333.026184,960.255981,332.959991C960.331604,332.919037,960.413452,332.89444,960.495972,332.872009C960.59845,332.829773,960.685364,332.75827,960.744019,332.664001C961.004822,332.307343,961.203979,331.909668,961.335999,331.488007L961.799988,330.096008L965.856018,326.511993C964.581604,324.60376,963.258606,322.728516,961.888,320.888C961.897766,321.353668,961.868347,321.819275,961.799988,322.279999C961.356628,321.580078,960.937683,320.86499,960.544006,320.135986C960.160706,319.541656,959.636902,319.050568,959.015991,318.712006C958.156189,318.266541,957.318054,317.780518,956.504028,317.256012C956.42511,317.224762,956.34021,317.214752,956.255981,317.223999C956.267761,317.571899,956.355835,317.912903,956.512024,318.223999C956.880371,319.086304,957.237549,319.952667,957.583984,320.824005L957.616028,320.920013L957.632019,321.023987C957.409363,320.853271,957.214172,320.650024,957.047974,320.424011C956.547546,319.841949,956.061951,319.246979,955.59198,318.640015C954.10022,320.561371,952.250183,322.17511,950.143982,323.391998L949.799988,323.559998L949.752014,323.559998C950.572205,322.749481,951.248718,321.80545,951.752014,320.768005C952.131409,319.854034,952.309814,318.869171,952.280029,317.880005C952.285034,317.064301,952.213257,316.249969,952.064026,315.447998C951.975464,315.064453,951.869568,314.685089,951.744019,314.312012C950.172058,314.117798,948.605408,313.928955,947.031982,313.743988C946.909302,314.852631,947.11322,315.972351,947.616028,316.967987C948.174194,317.805389,948.912048,318.507843,949.776001,319.023987C950.088867,319.234894,950.390137,319.462463,950.679993,319.70401L950.660034,319.731995L950.375977,319.64801C948.41394,318.855377,946.533325,317.874603,944.76001,316.720001C943.819885,315.97406,942.975952,315.114166,942.247986,314.160004C942.215027,314.134674,942.177246,314.115814,942.135986,314.112C941.934021,314.338348,941.799988,314.61557,941.736023,314.911987C941.449158,316.339355,941.306824,317.792084,941.312012,319.247986C941.37854,320.214905,941.665771,321.153595,942.151978,321.992004C942.854919,323.342651,943.827026,324.534943,945.007996,325.496002L945.367981,325.839996L945.447998,325.992004C945.356445,325.970551,945.269653,325.93457,945.184021,325.895996C943.394714,324.861664,941.766785,323.570557,940.35199,322.063995C939.506104,321.087463,938.845215,319.964874,938.400024,318.752014C938.11676,317.98822,937.735168,317.264526,937.263977,316.600006L936.64801,315.808014C936.415344,316.209259,936.262756,316.652435,936.200012,317.112C936.104675,317.664063,936.062195,318.223877,936.072021,318.783997C936.018494,319.736633,936.127258,320.691345,936.392029,321.608002C936.819885,322.720703,937.500366,323.718994,938.375977,324.528015L938.528015,324.70401C938.616028,324.835175,938.695923,324.971497,938.768005,325.112L938.719971,325.088013L938.664001,325.071991C937.09021,324.118317,935.650757,322.95871,934.383972,321.623993C933.589294,320.754578,932.94812,319.756287,932.487976,318.671997C931.728394,316.506683,931.677734,314.155823,932.343994,311.959991C932.480774,311.439667,932.558472,310.905731,932.575989,310.368011C932.558472,310.239075,932.516785,310.11499,932.455994,310C931.339172,308.840393,930.121277,307.782532,928.815979,306.839996C928.716125,306.789948,928.612122,306.748413,928.504028,306.720001L928.440002,306.752014C927.985352,307.327301,927.576965,307.937683,927.216003,308.575989L926.192017,310.272003C927.742859,312.902527,929.126831,315.627991,930.335999,318.432007C930.324829,318.455902,930.315491,318.480377,930.304016,318.503998L930.263977,318.503998C929.997681,318.350311,929.753113,318.161743,929.536011,317.944C928.131287,316.619385,926.746582,315.271912,925.383972,313.903992L924.383972,312.984009C924.304932,312.972595,924.229675,313.006989,924.184021,313.071991C924.062134,313.175751,923.960876,313.301666,923.880005,313.440002C922.786499,314.977386,921.766785,316.565826,920.823975,318.200012C919.979858,319.683136,919.151184,321.172577,918.335999,322.671997L918.255981,322.799988L918.159973,322.911987L918.05603,323.023987L917.94397,323.119995L917.880005,323.119995L917.856018,323.104004C917.780518,322.828339,917.792603,322.536285,917.880005,322.264008C918.232605,320.542358,918.72229,318.851715,919.343994,317.208008C919.988525,315.393372,920.711914,313.607574,921.512024,311.855988C921.70459,311.412842,921.830811,310.943787,921.888,310.463989C921.876038,310.438812,921.859619,310.417175,921.848022,310.391998C921.063354,309.912415,920.372192,309.29425,919.807983,308.567993C919.797974,308.513062,919.779724,308.460297,919.76001,308.40799L919.719971,308.343994L919.624023,308.328003L919.447998,308.368011C919.338745,308.411804,919.230835,308.458618,919.135986,308.528015C918.322693,309.082214,917.680664,309.853119,917.280029,310.752014C917.115234,311.102295,916.98114,311.466309,916.880005,311.839996C916.139404,313.946655,915.265564,316.004211,914.263977,318L914.104004,318.223999L914.064026,318.23999C914.016785,318.208191,913.971985,318.172729,913.935974,318.127991C913.821289,317.939728,913.730103,317.738312,913.664001,317.528015C913.525391,316.786255,913.313721,316.060028,913.031982,315.359985C913.008057,315.330566,912.983948,315.301392,912.960022,315.272003L912.927979,315.264008C912.891418,315.275513,912.855957,315.290161,912.823975,315.312012C911.71936,316.421661,910.474365,317.382385,909.119995,318.167999L907.616028,319.056C908.250122,320.800262,908.897705,322.538147,909.559998,324.272003L909.552002,324.29599C909.530029,324.268341,909.502441,324.249695,909.47998,324.223999C908.59314,323.105408,907.72052,321.973999,906.864014,320.832001C906.598816,320.497131,906.311096,320.180725,906,319.888C905.615417,319.969666,905.23999,320.090027,904.880005,320.247986L903.968018,320.615997L905.711975,321.687988C904.959045,321.397003,904.205078,321.10025,903.455994,320.799988L902.255981,321.231995C902.546326,321.548218,902.761658,321.92572,902.888,322.335999C902.893433,322.394623,902.899658,322.453156,902.903992,322.511993C902.888123,322.555878,902.868835,322.598297,902.848022,322.640015L902.791992,322.664001L902.664001,322.664001C902.116089,322.454041,901.577087,322.22168,901.047974,321.967987C900.291382,321.644409,899.503113,321.40036,898.695984,321.23999L897.320007,320.992004C897.083374,321.418671,896.861633,321.853546,896.656006,322.29599C896.410339,322.907623,896.199463,323.532654,896.023987,324.167999L897.328003,324.855988L895.968018,324.368011C895.675903,325.384521,895.411621,326.408936,895.176025,327.440002L894.223999,331.559998C894.967224,332.511047,895.695313,333.473969,896.40802,334.447998C896.725403,334.916351,897.001465,335.411346,897.231995,335.928009C897.290405,336.090027,897.320801,336.260315,897.335999,336.432007L897.375977,336.536011C897.405701,336.596863,897.445923,336.651154,897.487976,336.70401C897.552795,336.75061,897.625305,336.784454,897.703979,336.799988C897.77179,336.814423,897.83783,336.835327,897.903992,336.855988C898.535889,337.2612,899.109131,337.751129,899.607971,338.312012C900.519287,339.24469,901.348938,340.253662,902.088013,341.328003L903.23999,343.007996C903.355408,343.76413,903.494324,344.516418,903.656006,345.264008C903.788574,345.796722,903.962952,346.318085,904.176025,346.824005C904.327698,347.111328,904.488098,347.39386,904.656006,347.671997C904.865356,348.05069,904.987305,348.471802,905.007996,348.903992L905.007996,349.671997L906.080017,350.088013L906.216003,352.359985C905.960449,352.603058,905.712524,352.854095,905.471985,353.112C905.395874,353.195221,905.330627,353.287567,905.271973,353.384003C905.235962,353.460693,905.213562,353.542206,905.192017,353.623993L905.192017,353.735992C905.246399,353.890808,905.355225,354.019745,905.495972,354.104004L905.656006,354.200012C906.053772,354.354889,906.466675,354.467743,906.888,354.536011L908.343994,354.808014L909.455994,355.679993C909.987,356.147064,910.472168,356.66394,910.903992,357.223999C911.480469,357.979553,912.017456,358.764496,912.512024,359.575989C912.944641,360.291504,913.319214,361.040558,913.632019,361.81601L913.736023,362.160004L914.007996,363.328003L912.711975,362.832001L912.711975,363.216003C912.734863,363.37384,912.78125,363.527161,912.848022,363.671997L912.968018,363.872009C913.045105,363.945831,913.10968,364.030853,913.16803,364.119995C913.453857,364.718933,913.690796,365.339905,913.880005,365.976013C914.461914,367.781219,914.937378,369.61911,915.304016,371.480011L916.856018,371.480011C917.183411,372.182617,917.505493,372.885468,917.823975,373.59201L916.359985,375.048004C916.600952,375.116821,916.838257,375.197723,917.072021,375.287994C917.777649,375.717896,918.416321,376.248962,918.968018,376.864014C919.479004,377.374817,919.977905,377.897491,920.463989,378.432007L920.135986,379.399994C921.769714,380.520447,923.422913,381.611053,925.096008,382.671997C924.888733,383.045593,924.658997,383.40625,924.40802,383.752014C924.025818,384.203186,923.454407,384.448364,922.864014,384.415985L922.52002,384.391998C922.494751,384.417542,922.471252,384.444702,922.447998,384.471985C922.433411,384.503448,922.419861,384.535339,922.40802,384.567993C922.375549,384.868225,922.393921,385.172363,922.471985,385.463989L922.679993,386.552002L921.495972,387.320007L922.640015,388.063995C921.603027,389.058289,920.570435,390.058777,919.544006,391.063995C918.409546,391.242035,917.27655,391.425934,916.143982,391.615997L916.143982,392.432007C915.669189,392.241577,915.191772,392.057526,914.711975,391.880005L915.335999,392.888L912.271973,392.888C912.461914,393.633972,912.644775,394.357605,912.83197,395.104004C911.679871,394.553375,910.550903,393.955536,909.447998,393.312012C907.713867,392.285034,906.130493,391.022736,904.744019,389.559998C904.22998,388.966034,903.72583,388.362915,903.231995,387.752014L902.039978,387.752014C900.897339,386.208557,899.689331,384.571106,898.552002,383.023987C897.491394,382.331207,896.430054,381.630768,895.375977,380.928009L891.528015,380.007996L887.671997,379.088013L881.039978,379.032013L874.400024,378.976013C871.922119,379.61438,869.433594,380.211823,866.935974,380.768005C862.905273,381.632538,858.821655,382.228455,854.711975,382.552002C854.08075,382.592377,853.448486,382.613953,852.815979,382.615997L849.752014,382.615997L846.223999,380.808014C845.720154,380.875061,845.218689,380.957855,844.719971,381.056C843.532776,381.37973,842.36554,381.77243,841.223999,382.231995C837.481018,383.677429,833.77124,385.205566,830.096008,386.81601L826.023987,388.567993C821.514587,389.627441,816.985901,390.680664,812.471985,391.720001C812.218079,392.404114,811.959229,393.087402,811.695984,393.768005L810.320007,394.29599C810.08667,393.915009,809.849243,393.536011,809.607971,393.160004C809.157532,393.527344,808.709167,393.898346,808.263977,394.272003L808.263977,392.455994C808.090393,392.445313,807.916443,392.441345,807.744019,392.463989C807.664246,392.489746,807.587952,392.526215,807.528015,392.584015C807.498901,392.629517,807.470642,392.675476,807.440002,392.720001C807.429688,392.776093,807.419128,392.832062,807.40802,392.888L807.40802,393.312012L806.088013,393.312012C806.3302,392.902008,806.551697,392.480042,806.752014,392.048004C806.829346,391.854797,806.866516,391.647919,806.856018,391.440002L806.815979,391.368011L806.76001,391.303986L806.687988,391.279999C806.5672,391.283661,806.447327,391.304138,806.335999,391.35199C806.081177,391.489899,805.845581,391.660217,805.632019,391.855988L804.703979,392.671997C804.886536,391.93927,805.065063,391.206573,805.23999,390.471985L802.695984,390.839996C802.733337,390.397308,802.719604,389.951691,802.656006,389.511993L802.616028,389.376007C802.561401,389.200653,802.467041,389.040405,802.343994,388.903992L802.247986,388.808014L801.807983,388.528015L802.255981,387.104004C801.699707,386.174988,801.136902,385.24939,800.567993,384.328003L799.304016,384.328003C799.011658,383.835236,798.749817,383.32486,798.52002,382.799988C798.489136,382.708557,798.468018,382.61438,798.447998,382.519989L798.440002,382.384003L798.463989,382.335999L798.504028,382.312012L798.552002,382.312012C798.743958,382.376099,798.91449,382.487946,799.064026,382.623993L799.719971,383.160004C799.9198,382.967712,800.117249,382.773407,800.312012,382.575989L799.271973,380.911987L804.296021,381.440002C805.177917,380.451508,806.076843,379.477722,806.992004,378.519989C807.499451,378.126282,808.082581,377.842194,808.703979,377.679993L809.903992,377.424011C810.461304,377.777008,811.021851,378.126648,811.583984,378.471985C813.343018,376.591309,815.276123,374.530762,817.039978,372.656006C818.875854,369.746155,820.753113,366.863525,822.671997,364.007996C824.087158,361.927429,825.708801,359.994904,827.512024,358.23999C829.501099,356.186035,831.672607,354.316895,834,352.656006C834.599609,352.243774,835.216187,351.856873,835.848022,351.496002C836.270264,351.1474,836.636536,350.735504,836.927979,350.272003C837.580139,349.228485,838.321899,348.243652,839.143982,347.328003C840.095215,346.239044,841.074158,345.174622,842.080017,344.135986L842.080017,342.368011L842.935974,342.368011L842.935974,343.656006L844.552002,343.656006L844.815979,342.687988C845.070679,341.94928,845.458862,341.263519,845.960022,340.664001L846.840027,339.59201C846.66626,340.233276,846.487488,340.873444,846.304016,341.511993L848.335999,341.511993C849.54657,340.777069,850.726074,339.992157,851.872009,339.160004C852.664734,338.568024,853.428345,337.937958,854.159973,337.272003C855.237915,336.3591,856.345337,335.481262,857.47998,334.640015C857.407898,334.005554,857.34137,333.371643,857.280029,332.735992C857.549194,332.759613,857.820129,332.755493,858.088013,332.720001C858.597168,332.542847,859.064697,332.265106,859.471985,331.911987C860.006165,331.51474,860.463867,331.023865,860.823975,330.463989C860.894409,330.342529,860.928589,330.202423,860.903992,330.063995L860.840027,329.920013L860.791992,329.847992C860.315491,329.24585,859.75531,328.714844,859.127991,328.272003C858.036926,327.359009,856.972412,326.414612,855.935974,325.440002C854.062622,324.408234,852.380188,323.06308,850.960022,321.463989C850.415466,320.803314,849.945435,320.084503,849.559998,319.320007C848.952698,319.204071,848.356079,319.037872,847.776001,318.824005C847.396362,318.661194,847.0495,318.430573,846.752014,318.144012L846.255981,317.544006L845.112,317.544006C844.17627,317.479919,843.246094,317.351685,842.328003,317.160004C841.353516,316.966888,840.382935,316.756165,839.416016,316.528015C839.322693,316.66983,839.220154,316.805206,839.112,316.936005C839.093201,316.937622,839.076172,316.944336,839.05603,316.944C839.015137,316.854034,839.003296,316.754028,839.015991,316.656006L839.023987,316.432007C838.024841,316.215088,837.045593,315.915009,836.096008,315.536011L835.952026,315.440002L835.504028,314.992004C835.682983,314.803009,835.867126,314.619019,836.05603,314.440002C837.157288,314.617767,838.260742,314.802094,839.359985,314.992004C839.459961,314.70163,839.550659,314.408142,839.632019,314.112L839.64801,313.976013C839.673462,313.836945,839.656738,313.693115,839.607971,313.559998C839.598572,313.468384,839.561401,313.382385,839.512024,313.303986C839.464661,313.222656,839.410706,313.145477,839.35199,313.071991C838.809937,312.425995,838.348206,311.716705,837.976013,310.959991C837.899597,310.85553,837.795715,310.776917,837.679993,310.720001L837.624023,310.720001C837.167542,310.907593,836.728516,311.135162,836.312012,311.399994L835.263977,312.023987C836.248718,312.730774,837.315369,313.315765,838.440002,313.768005C837.018738,313.465851,835.628723,313.032196,834.288025,312.471985C834.102905,312.565796,833.918762,312.661682,833.736023,312.76001C833.417664,313.011078,833.186035,313.354889,833.072021,313.743988C832.981995,314.023743,832.901978,314.30661,832.83197,314.59201C836.78772,317.090668,840.79071,319.512177,844.840027,321.855988L847.679993,323.575989C847.733948,323.599365,847.783203,323.631348,847.83197,323.664001C847.879944,323.702087,847.919006,323.748871,847.952026,323.799988C847.925415,323.796509,847.898804,323.793671,847.872009,323.791992C844.398743,322.349304,840.960327,320.823486,837.559998,319.216003L834.719971,317.855988C833.762146,317.332306,832.78241,316.849487,831.783997,316.40799L831.536011,316.328003L831.471985,316.335999L831.40802,316.359985L831.35199,316.391998C831.29718,316.436157,831.241577,316.479431,831.184021,316.519989C831.025208,316.735565,830.828857,316.920563,830.607971,317.071991C830.07489,317.490845,829.533569,317.899017,828.984009,318.29599C828.628479,318.572571,828.340332,318.926788,828.151978,319.335999C827.678589,320.884827,827.190674,322.428406,826.687988,323.967987C826.628296,324.210907,826.580322,324.456512,826.544006,324.70401C826.524597,324.724731,826.505676,324.745789,826.487976,324.768005C826.450562,324.767029,826.413147,324.764404,826.375977,324.76001C826.300049,324.721161,826.222229,324.688293,826.151978,324.640015L826.05603,324.559998C825.992371,324.503143,825.944214,324.431122,825.911987,324.35199L825.880005,324.231995C825.714478,324.068115,825.517883,323.940002,825.304016,323.847992C824.562378,323.484985,823.804016,323.156921,823.031982,322.864014C821.359009,322.184509,819.749878,321.357452,818.223999,320.391998C817.66272,320.007843,817.110413,319.610443,816.567993,319.200012C816.332153,319.644897,816.172302,320.126251,816.096008,320.623993C815.840027,322.122375,815.498108,323.604828,815.072021,325.063995C815.048828,325.164429,815.00531,325.259094,814.935974,325.335999C814.511353,324.33847,814.126953,323.324432,813.783997,322.29599C812.943481,320.050079,812.177734,317.776825,811.487976,315.480011C811.43103,315.328522,811.351257,315.186859,811.255981,315.056L811.176025,315C810.997437,314.921906,810.790344,314.942352,810.632019,315.056C810.434753,315.139709,810.247498,315.244995,810.072021,315.368011C808.993774,316.076111,807.94751,316.831543,806.935974,317.631989C806.726929,317.837585,806.554749,318.077667,806.432007,318.343994C806.321533,318.646851,806.340088,318.981567,806.47998,319.272003C807.203796,321.124237,808.434998,322.734985,810.031982,323.920013C811.489624,325.070251,813.083069,326.037262,814.776001,326.799988L815.367981,327.071991L815.383972,327.112L815.343994,327.096008L815.296021,327.088013C811.812805,326.08493,808.483276,324.609833,805.400024,322.70401C804.657654,322.213135,803.958984,321.659149,803.312012,321.048004C803.14447,320.923676,802.965027,320.816315,802.776001,320.727997C802.738281,320.737488,802.700623,320.746826,802.664001,320.76001C801.488586,321.525482,800.351318,322.347778,799.255981,323.223999C798.09375,324.137085,796.915039,325.062866,795.752014,325.976013L795.52002,326.112L795.471985,326.119995C795.564575,325.911621,795.696594,325.722778,795.864014,325.567993C797.696838,323.59967,799.588501,321.686798,801.536011,319.832001C801.650635,319.684387,801.690796,319.491913,801.640015,319.312012L801.607971,319.231995C801.100708,318.337036,800.664795,317.403412,800.304016,316.440002C800.215149,316.151184,800.132324,315.860413,800.05603,315.567993L800.023987,315.503998C799.818054,315.549286,799.62323,315.634735,799.447998,315.752014C799.006897,316.024719,798.572144,316.307434,798.143982,316.600006C798.706055,318.021515,799.113586,319.49939,799.359985,321.007996C798.605103,319.819702,797.815491,318.6539,796.992004,317.511993L796.83197,317.343994L796.799988,317.335999C796.497253,317.400574,796.202209,317.496887,795.919983,317.623993C795.865784,317.641693,795.807861,317.643524,795.752014,317.631989L795.744019,317.584015C795.895691,317.408234,796.0802,317.263428,796.288025,317.160004C796.373657,317.097046,796.449951,317.0224,796.512024,316.936005L796.536011,316.864014L795.632019,315.696014C794.533997,317.107697,793.186279,318.306335,791.656006,319.231995C790.972839,319.669769,790.265076,320.067871,789.536011,320.424011C787.76947,321.258911,785.961914,322.003937,784.119995,322.656006L783.791992,322.735992C783.778503,322.730896,783.765198,322.725891,783.752014,322.720001L783.768005,322.687988C784.280396,322.355713,784.81488,322.058899,785.367981,321.799988C786.580627,321.134277,787.720398,320.343445,788.768005,319.440002L789.112,319.096008C789.36499,318.672394,789.689087,318.295166,790.072021,317.984009C790.352295,317.65155,790.554565,317.260834,790.664001,316.839996C791.041199,315.327148,790.906311,313.731842,790.280029,312.303986L789.895996,311.399994C788.78894,312.559937,787.76001,313.791931,786.815979,315.088013C786.131042,315.970459,785.482483,316.880463,784.872009,317.81601L786.671997,319.088013C786.128906,318.865814,785.582031,318.652405,785.031982,318.447998C784.840942,318.392303,784.63501,318.421692,784.471985,318.536011C784.066528,319.03772,783.692322,319.563995,783.35199,320.112C783.436646,319.514343,783.500488,318.914063,783.544006,318.312012C783.558533,318.207245,783.535034,318.10144,783.471985,318.015991L783.440002,318.007996C783.415894,318.018311,783.392212,318.029663,783.367981,318.040009C783.334351,318.06189,783.303528,318.087402,783.271973,318.112C782.631409,318.74762,782.035278,319.426544,781.487976,320.144012C781.171082,320.523865,780.831848,320.884583,780.471985,321.223999L780.424011,321.247986C780.426147,321.231964,780.42804,321.215912,780.432007,321.200012C781.045166,319.960052,781.559021,318.673431,781.968018,317.35199C781.977539,317.291992,781.962341,317.231384,781.935974,317.175995C781.734253,316.846497,781.48291,316.550262,781.192017,316.29599C780.74292,315.873413,780.275818,315.470337,779.791992,315.088013L779.280029,314.671997L779.23999,314.687988L779.208008,314.696014C779.0224,314.998535,778.891846,315.331635,778.823975,315.679993C778.06488,319.469727,777.076355,323.210052,775.864014,326.880005C775.817261,326.973572,775.760803,327.06192,775.695984,327.144012L775.664001,327.152008C775.31897,325.576019,774.940247,324.007904,774.528015,322.447998C774.101318,320.791656,773.730408,319.121246,773.416016,317.440002L771.856018,317.656006L771.856018,317.687988C771.820984,317.680298,771.785828,317.677094,771.752014,317.664001L768.176025,318.167999C768.118896,319.143494,768.076172,320.119232,768.047974,321.096008L768,321.671997C768.078064,321.820374,768.171204,321.960449,768.280029,322.088013C768.583435,322.612976,768.740417,323.209686,768.736023,323.81601C768.76239,324.033752,768.800049,324.249969,768.848022,324.463989C769.429321,326.484924,770.17041,328.456421,771.064026,330.359985C771.658325,331.779907,772.375793,333.145081,773.208008,334.440002L774.583984,336.455994C775.732483,336.463928,776.883484,336.466614,778.031982,336.463989C779.33905,337.21463,780.684875,337.895874,782.064026,338.503998C782.176819,338.544586,782.291931,338.578156,782.40802,338.608002C782.595886,338.624176,782.77594,338.69458,782.919983,338.81601L783.080017,338.928009C783.230286,339.087128,783.432251,339.185913,783.64801,339.223999C783.74884,339.239716,783.849854,339.253906,783.952026,339.256012C784.055054,339.252167,784.155273,339.229584,784.255981,339.208008C784.600159,339.108765,784.937866,338.988068,785.263977,338.839996L786.072021,341.399994L787.687988,341.399994C788.519958,343.357941,789.108154,345.410706,789.440002,347.511993C789.541382,348.117889,789.725281,348.706848,789.984009,349.264008C790.031311,349.371765,790.106445,349.46463,790.200012,349.536011L790.296021,349.64801C790.711731,350.506897,791.033997,351.40799,791.255981,352.335999C792.303589,356.496521,793.400391,360.648834,794.544006,364.783997C794.62085,369.403076,794.715088,374.084991,794.823975,378.70401C794.269287,380.458618,793.674316,382.200562,793.039978,383.928009C792.876404,384.337006,792.621582,384.703278,792.296021,385L792.184021,385.048004L792.072021,385.071991C791.990356,385.065277,791.909363,385.051819,791.83197,385.023987C791.711731,384.984314,791.602539,384.919189,791.504028,384.839996C791.125732,384.507233,790.760315,384.160126,790.40802,383.799988L789.072021,384.623993L789.072021,386.175995C788.953125,387.290863,788.727844,388.391815,788.400024,389.463989C788.146973,390.406891,787.861572,391.340851,787.544006,392.264008L786.023987,396.808014C786.628906,398.099152,787.128967,399.436859,787.52002,400.808014C787.955933,402.273621,788.326965,403.757751,788.632019,405.256012L789.528015,409.623993L788.791992,413.575989C788.447876,415.345795,787.960815,417.084747,787.335999,418.776001C787.227844,419.037476,787.112732,419.296082,786.992004,419.552002L785.94397,421.567993C786.213135,424.594666,786.472412,427.455383,786.752014,430.480011L784.151978,433.559998L780.359985,429.23999C780.65625,429.87561,780.965942,430.505127,781.288025,431.127991C781.872131,432.166107,782.549438,433.148926,783.312012,434.063995L784.752014,435.81601L784.752014,438.799988L782.416016,438.799988C781.357544,437.6521,780.345947,436.461914,779.383972,435.231995C778.322937,433.748047,777.290833,432.243866,776.288025,430.720001C776.156799,430.553711,776.01123,430.399078,775.848022,430.264008L775.799988,430.272003L775.744019,430.29599C775.724243,430.461761,775.751831,430.629669,775.815979,430.783997C776.05304,431.464233,776.274414,432.149628,776.47998,432.839996C776.559998,433.093475,776.556641,433.366913,776.463989,433.615997L776.375977,433.687988C776.294617,433.721405,776.206238,433.72641,776.119995,433.712006C775.545959,433.480469,775.031799,433.12262,774.616028,432.664001L773.119995,431.247986C772.509827,429.417175,771.829285,427.610443,771.080017,425.832001C770.710938,425.07373,770.187439,424.401123,769.544006,423.855988C768.664307,423.198639,767.710938,422.64621,766.703979,422.208008L763.76001,420.791992C763.037537,419.78479,762.276978,418.805328,761.47998,417.855988C760.742493,417.019745,759.884949,416.297424,758.935974,415.712006L757.35199,414.880005L757.208008,405.200012C757.766724,404.536926,758.331116,403.873627,758.895996,403.216003C757.283081,401.85675,755.647644,400.522827,753.992004,399.216003C753.2052,398.612854,752.370483,398.074951,751.495972,397.608002C751.304626,397.534546,751.106445,397.480042,750.903992,397.447998C749.636169,396.982666,748.410461,396.40976,747.23999,395.735992C745.661255,394.873108,744.09082,393.99585,742.528015,393.104004C740.555115,391.253967,738.644653,389.337982,736.799988,387.359985C735.791199,386.264404,734.837891,385.119141,733.94397,383.928009L731.911987,381.160004L731.104004,368.320007C730.816895,367.953186,730.518066,367.595642,730.208008,367.247986C728.962769,366.045227,727.639954,364.925446,726.247986,363.895996C723.483276,361.675873,720.58728,359.624146,717.575989,357.752014L717.127991,357.503998L714.528015,356.191986L710.687988,356.191986C710.327698,356.580994,709.948669,356.952148,709.552002,357.303986C709.073059,357.675568,708.509766,357.92334,707.911987,358.023987C707.432434,358.050262,706.952026,358.055664,706.471985,358.040009L706.471985,354.808014L704.559998,356.384003C704.132935,355.948792,703.704529,355.517822,703.271973,355.088013C703.730835,354.324554,704.137146,353.530731,704.487976,352.712006L704.512024,352.584015L704.504028,352.455994C704.478149,352.380005,704.447815,352.305664,704.416016,352.231995C704.294067,352.10611,704.157898,351.994843,704.007996,351.903992C703.191772,351.454712,702.367737,351.019958,701.536011,350.600006L704.296021,346.864014L701.335999,344.631989C702.259399,344.134094,703.186523,343.637146,704.112,343.144012C703.844727,342.131012,703.588623,341.114685,703.343994,340.096008C704.076294,340.227478,704.809692,340.352814,705.544006,340.471985L705.544006,333.104004C706.159058,332.985168,706.775452,332.870453,707.392029,332.76001C708.047058,333.846863,708.746338,334.906342,709.487976,335.936005C709.89386,336.459167,710.358521,336.933868,710.872009,337.35199L711.080017,337.471985L711.935974,337.799988L717.343994,332.152008L721.807983,332.152008L723.728027,334.895996C723.441406,336.546814,723.26123,337.58783,722.976013,339.23999C723.576172,338.454651,724.206299,337.631897,724.807983,336.847992C727.412476,336.781616,730.060669,336.719604,732.664001,336.664001L742.343994,331.359985L746.512024,331.063995L750.671997,330.768005C751.585999,331.076294,752.503723,331.375061,753.424011,331.664001C754.049011,331.860413,754.697388,331.973145,755.35199,332C755.402283,331.995483,755.452026,331.985565,755.495972,331.959991L755.559998,331.928009L755.632019,331.864014C755.767334,331.469177,755.845276,331.056976,755.864014,330.640015C755.953125,329.773376,756.003845,328.903137,756.015991,328.032013L756.088013,324.503998C754.636169,324.304474,753.196594,324.024017,751.776001,323.664001C751.405212,323.555206,751.043884,323.416229,750.695984,323.247986C750.917542,323.464874,751.149536,323.670868,751.392029,323.864014C751.485168,323.958008,751.573364,324.056702,751.656006,324.160004C751.660461,324.170319,751.662354,324.181152,751.664001,324.191986C751.63916,324.188812,751.615784,324.181549,751.59198,324.175995C751.087952,323.907349,750.604004,323.60257,750.143982,323.264008C749.2724,322.684479,748.433777,322.056824,747.632019,321.384003C747.384399,321.105164,747.075256,320.887939,746.728027,320.752014L746.59198,320.752014C746.463379,320.778351,746.345825,320.840698,746.247986,320.928009C746.142639,321.021759,745.999512,321.063904,745.864014,321.023987C745.872009,320.978729,745.888245,320.935333,745.911987,320.895996C746.072021,320.733276,746.234619,320.573181,746.400024,320.415985L746.455994,320.328003L746.455994,320.216003C746.457092,320.099609,746.3927,319.993622,746.296021,319.928009C745.843689,319.443787,745.485657,318.879395,745.23999,318.264008C745.004456,317.788147,744.756348,317.318726,744.495972,316.855988C744.279602,316.539764,744.021973,316.253845,743.728027,316.007996C742.368347,315.19397,741.071472,314.279297,739.848022,313.272003C739.314941,312.807281,738.842529,312.277466,738.440002,311.696014C738.117554,311.166534,737.93573,310.563446,737.911987,309.944C737.817993,308.638367,737.868958,307.326385,738.064026,306.032013C738.163513,305.774475,738.211243,305.500061,738.208008,305.223999C738.18634,305.1698,738.152222,305.121796,738.104004,305.088013C738.058472,305.085968,738.012817,305.08783,737.968018,305.096008C737.289307,305.370972,736.704163,305.835083,736.280029,306.432007C736.059082,306.885986,735.882507,307.36026,735.752014,307.847992C735.400818,308.994843,735.149109,310.169861,735,311.359985C734.977173,312.326721,735.095947,313.291504,735.35199,314.223999C735.848572,316.514587,736.580444,318.747833,737.536011,320.888C737.587708,321.000885,737.61322,321.12381,737.616028,321.247986C737.591492,321.250122,737.567444,321.246765,737.544006,321.23999L737.504028,321.216003C737.23761,320.970642,736.981445,320.714386,736.736023,320.447998C736.688171,321.049896,736.650757,321.652771,736.624023,322.256012C735.520203,320.057434,734.362305,317.885864,733.151978,315.743988C733.089783,315.65799,733.021423,315.576508,732.94397,315.503998L732.903992,315.488007L732.856018,315.488007C732.825317,315.496765,732.796265,315.510834,732.776001,315.536011C732.539124,315.888,732.390564,316.29129,732.335999,316.712006C732.057739,318.403625,732.101318,320.132477,732.463989,321.808014C732.595886,322.213806,732.78479,322.598633,733.023987,322.951996C733.589233,323.902832,734.225708,324.809357,734.927979,325.664001L734.888,325.671997C734.144348,325.230377,733.442932,324.721466,732.791992,324.152008C731.646057,323.20224,730.634094,322.101715,729.783997,320.880005C729.31366,320.173279,728.906372,319.426575,728.567993,318.64801C728.306335,317.871948,728.171387,317.05896,728.16803,316.23999C728.094421,314.366486,728.209595,312.490417,728.512024,310.640015C728.635437,310.210297,728.76886,309.783539,728.911987,309.359985C727.338257,307.730835,725.730225,306.136139,724.088013,304.575989C723.756287,304.270508,723.400818,303.991791,723.023987,303.743988C722.974487,303.709808,722.9151,303.700348,722.856018,303.70401C722.794067,303.751251,722.764282,303.830933,722.791992,303.903992C722.829224,304.02179,722.901306,304.125671,723,304.200012C723.233643,304.553772,723.358765,304.968048,723.359985,305.391998C723.46405,306.08728,723.434387,306.79599,723.271973,307.480011C723.131897,307.914246,722.920898,308.322327,722.64801,308.687988L721.856018,309.824005C723.251343,312.564209,724.561157,315.34668,725.783997,318.167999C725.95282,318.603851,726.102234,319.046997,726.231995,319.496002C726.233582,319.532318,726.234619,319.568146,726.216003,319.600006L726.192017,319.615997C725.960632,319.450958,725.745728,319.263885,725.552002,319.056C724.49115,317.96756,723.466492,316.844269,722.47998,315.687988C720.516541,313.531555,718.598572,311.333435,716.728027,309.096008C716.641785,309.007263,716.545166,308.92926,716.440002,308.864014C716.420898,308.87146,716.403748,308.881958,716.383972,308.888L716.35199,308.911987C715.747375,309.767822,715.178833,310.648529,714.64801,311.552002C713.029236,314.199036,711.440491,316.862,709.880005,319.544006C710.550964,320.776459,711.462036,321.862183,712.559998,322.735992C713.634827,323.632507,714.791931,324.425293,716.015991,325.104004L716.976013,325.64801C714.481262,324.737518,712.067383,323.618866,709.76001,322.303986C709.516113,322.1586,709.255615,322.042725,708.984009,321.959991L708.856018,321.928009L708.799988,321.984009C708.414429,322.586945,708.074951,323.21814,707.783997,323.872009L706.880005,325.76001C707.082031,324.323517,707.327515,322.893616,707.616028,321.471985C707.631714,321.149628,707.506409,320.837921,707.280029,320.608002C706.579407,319.996613,705.951172,319.306763,705.40802,318.552002C704.802795,317.682556,704.35614,316.71286,704.088013,315.687988L703.687988,314.096008C702.802246,314.580688,701.891663,315.018707,700.960022,315.40799L700.927979,315.40799C701.135437,315.162781,701.377563,314.94928,701.64801,314.776001C702.298462,314.297821,702.844299,313.691132,703.247986,312.992004C703.696472,312.136292,703.782227,311.1362,703.487976,310.216003C703.397766,309.897308,703.275085,309.588654,703.119995,309.29599C702.692383,308.497833,702.159851,307.760345,701.536011,307.104004L700.919983,306.424011C699.763672,307.645996,698.517456,308.779877,697.192017,309.81601C697.520752,313.508148,698.31073,317.14444,699.544006,320.640015L700,321.808014C700.13501,322.096466,700.276184,322.381897,700.424011,322.664001C700.427917,322.689026,700.423889,322.71225,700.424011,322.735992L700.416016,322.76001L700.400024,322.768005L700.367981,322.76001C700.345154,322.748718,700.325256,322.733551,700.304016,322.720001C699.548218,321.824127,698.843079,320.886627,698.192017,319.911987C697.272827,318.618042,696.407959,317.286194,695.599976,315.920013C694.781128,314.331116,694.080566,312.683929,693.504028,310.992004C693.344238,310.555054,693.165466,310.125305,692.968018,309.70401C692.855469,309.914551,692.753662,310.130707,692.664001,310.35199C692.575439,310.714447,692.607666,311.095886,692.752014,311.440002C693.028748,312.216614,693.341125,312.980072,693.687988,313.727997C694.680664,316.071381,695.504089,318.48288,696.151978,320.944C696.428162,322.081848,696.631165,323.236206,696.76001,324.399994C694.937073,320.703918,692.887817,317.123779,690.624023,313.679993L690.624023,298L1028.66394,298L1028.66394,313.687988z"/>
    <path transform="matrix(-1,0,0,-1,81.012512,26)" style="stroke:#000000;stroke-width:0.05mm;fill:none" d="M759.903992,326.135986C759.417175,328.50293,759.027466,330.889099,758.736023,333.287994C761.025269,333.898621,763.365784,334.297668,765.728027,334.480011C766.755371,334.560791,767.786926,334.574097,768.815979,334.519989L769.119995,334.463989C769.192871,334.428345,769.264893,334.391022,769.335999,334.35199L769.343994,334.312012L769.335999,334.23999C769.293335,334.148041,769.248352,334.057098,769.200012,333.967987C767.380798,330.973602,765.3573,328.108154,763.143982,325.391998C762.912109,325.184875,762.635742,325.034668,762.335999,324.951996C761.982666,324.832947,761.612854,324.770905,761.23999,324.768005L760.231995,324.752014L759.903992,326.135986z"/>
    <path transform="matrix(-1,0,0,-1,81.012512,26)" style="stroke:#000000;stroke-width:0.05mm;fill:none" d="M982.711975,313.480011C982.631348,313.824829,982.676636,314.185852,982.83197,314.503998C983.26062,315.611664,983.990112,316.577637,984.935974,317.29599C985.132751,317.450623,985.335876,317.597015,985.544006,317.735992C984.64624,317.447723,983.790649,317.041809,983,316.528015C982.494324,316.217072,981.97644,315.926514,981.447998,315.656006C981.351196,315.644958,981.253357,315.651062,981.159973,315.679993L981.080017,315.735992C980.867798,315.92157,980.698792,316.150208,980.567993,316.399994C980.201782,316.935181,979.876099,317.49704,979.59198,318.079987C979.583252,318.13858,979.584595,318.19754,979.59198,318.256012L979.616028,318.343994L979.671997,318.432007L979.76001,318.519989C980.023743,318.710175,980.287231,318.899323,980.552002,319.088013C980.163757,318.950165,979.768616,318.832153,979.367981,318.735992L979.263977,318.735992C979.198242,318.755157,979.132935,318.775848,979.072021,318.808014L979.023987,318.864014C978.30365,320.049774,977.636475,321.267059,977.023987,322.511993C976.810669,322.888062,976.575806,323.251434,976.320007,323.600006L976.263977,323.640015C976.24823,323.6362,976.2323,323.632965,976.216003,323.631989L976.184021,323.59201C976.141968,323.157623,976.174133,322.71936,976.280029,322.29599C976.569519,321.07489,976.889526,319.861023,977.23999,318.656006C977.264343,318.499939,977.271851,318.34198,977.271973,318.18399C977.242859,318.173859,977.21344,318.170929,977.184021,318.167999C976.914246,318.382294,976.673706,318.630646,976.463989,318.903992C975.786499,319.785645,975.037415,320.609924,974.223999,321.368011L974.216003,321.29599C974.222412,321.244507,974.232361,321.193573,974.247986,321.144012C974.873901,319.907654,975.400635,318.623535,975.823975,317.303986L975.83197,317.167999C975.813904,317.080109,975.78363,316.995819,975.752014,316.911987C974.740845,316.144592,973.788879,315.302094,972.903992,314.391998C972.125488,318.419342,971.118591,322.399078,969.888,326.312012C970.26532,326.819916,970.633667,327.334534,970.992004,327.855988L971.072021,327.944C971.50415,328.324127,971.955322,328.681976,972.424011,329.015991C973.070557,329.463654,973.729553,329.892975,974.400024,330.303986C974.913208,330.606445,975.436157,330.891846,975.968018,331.160004C976.079468,331.210907,976.194824,331.252441,976.312012,331.287994L977.328003,331.536011C978.001221,331.097137,978.64856,330.673431,979.320007,330.231995C979.595886,330.411774,979.876343,330.584686,980.159973,330.752014C981.748657,329.888672,983.351074,329.023193,984.94397,328.167999L988.312012,328.167999C988.817078,326.311157,989.207214,324.424866,989.47998,322.519989C989.820557,320.327087,990.111389,318.126099,990.35199,315.920013C989.818604,316.771362,989.222595,317.581879,988.567993,318.343994C986.624573,320.779541,984.50415,323.06839,982.223999,325.191986C982.100769,325.3013,981.96698,325.398285,981.823975,325.480011C981.784607,325.491028,981.744507,325.498871,981.703979,325.503998C981.693298,325.480011,981.682068,325.456299,981.671997,325.432007C981.792053,325.006775,981.983032,324.605042,982.231995,324.23999C983.784058,321.63681,985.186523,318.947052,986.432007,316.18399C986.751709,315.423645,987.021545,314.643341,987.23999,313.847992C985.755493,313.621094,984.264099,313.442413,982.768005,313.312012L982.711975,313.480011z"/>
    <path transform="matrix(-1,0,0,-1,81.012512,26)" style="stroke:#000000;stroke-width:0.05mm;fill:none" d="M861.40802,309.608002C861.371948,309.632813,861.337524,309.659851,861.304016,309.687988C861.134277,310.004883,861.033813,310.354034,861,310.712006C860.656189,312.500397,861.134705,314.347809,862.304016,315.743988C862.465698,315.943481,862.580322,316.1763,862.64801,316.424011L862.632019,316.503998L862.575989,316.567993L862.607971,316.615997L862.799988,316.608002L863,316.623993L863.104004,316.671997C863.679504,317.15451,864.26355,317.626465,864.856018,318.088013L864.992004,318.223999C864.968384,318.230988,864.944458,318.233459,864.919983,318.231995C863.400757,317.551208,861.97583,316.677124,860.679993,315.631989C860.437988,315.426605,860.200317,315.216309,859.968018,315L855.783997,318.048004L855.783997,320.127991L855.815979,320.247986C859.605347,324.013702,863.464111,327.707123,867.392029,331.328003C868.024353,330.476532,868.839111,329.777069,869.776001,329.279999C870.158142,329.061554,870.55957,328.87854,870.976013,328.735992C871.088379,328.703674,871.203857,328.68515,871.320007,328.671997C871.522522,328.663879,871.721497,328.620941,871.911987,328.552002C872.336121,328.437073,872.745056,328.271545,873.127991,328.056L874.312012,327.447998C874.767212,327.985352,875.227478,328.523254,875.687988,329.056L877.83197,329.152008L879.968018,329.247986L881.728027,328.303986C883.802002,328.349579,885.874573,328.445618,887.94397,328.59201C888.536316,328.636902,889.126282,328.709076,889.711975,328.808014L889.83197,328.839996L889.960022,328.864014L890.840027,329.144012C891.378296,327.088837,891.908081,325.020721,892.424011,322.959991C890.640076,322.188049,888.94928,321.216522,887.383972,320.063995C886.450745,319.349213,885.640625,318.487,884.984009,317.511993C884.692261,317.0448,884.469666,316.538055,884.320007,316.007996L884.039978,315.015991C882.155884,317.618195,880.440247,320.33844,878.903992,323.160004C879.11377,321.667969,879.448059,320.196075,879.903992,318.76001C880.036926,318.082642,879.97998,317.381775,879.736023,316.735992C879.446838,315.722107,879.072083,314.734619,878.616028,313.783997L878.504028,313.615997C878.250977,313.31015,877.9021,313.097992,877.512024,313.023987L877.320007,313.007996L877.23999,313.032013L877.151978,313.079987C876.81781,313.492767,876.514099,313.929169,876.23999,314.384003C874.985596,316.262878,873.795715,318.184082,872.671997,320.144012C872.076843,321.525055,871.403809,322.871277,870.656006,324.175995L870.607971,324.18399C870.598022,323.725891,870.647827,323.268219,870.76001,322.824005C871.31311,319.95929,872.171509,317.162079,873.320007,314.480011C873.696167,313.57843,874.078857,312.673676,874.463989,311.776001C874.64679,311.35025,874.718323,310.88504,874.671997,310.424011L874.632019,310.264008C874.5578,310.086029,874.457031,309.919678,874.320007,309.783997C874.299927,309.807068,874.282593,309.83197,874.263977,309.855988C873.767456,311.053589,873.319153,312.270508,872.919983,313.503998C872.0625,315.432526,870.997437,317.261932,869.744019,318.959991C869.008545,320.152222,868.164795,321.274139,867.223999,322.312012C867.200195,322.315002,867.176392,322.317017,867.151978,322.312012L867.159973,322.127991C867.18219,321.949127,867.236694,321.775848,867.320007,321.615997C867.821899,320.327515,868.288635,319.025787,868.719971,317.712006L868.736023,317.552002L868.719971,317.447998C868.696045,317.446014,868.673645,317.43869,868.64801,317.440002C868.332397,317.66394,868.051208,317.932617,867.815979,318.23999C867.247742,318.922699,866.615479,319.5495,865.927979,320.112L865.83197,320.167999L865.815979,320.152008C865.92218,319.858521,866.060242,319.577698,866.223999,319.312012C866.478638,318.472656,866.545654,317.587524,866.416016,316.720001C866.335571,315.941498,866.082825,315.19101,865.679993,314.519989C865.208679,313.619141,864.64502,312.769867,864,311.984009C863.932922,311.947052,863.873779,311.898346,863.815979,311.847992C863.628967,311.852081,863.448486,311.911865,863.288025,312.007996C863.176453,312.072632,863.062561,312.133209,862.94397,312.18399L862.888,312.200012L862.823975,312.200012L862.815979,312.127991L862.83197,312.063995C862.936646,311.883057,863.057739,311.712219,863.192017,311.552002L863.231995,311.391998C863.248962,311.279877,863.225342,311.16452,863.159973,311.071991C862.743469,310.518494,862.241028,310.035034,861.671997,309.640015C861.605774,309.603302,861.53125,309.588898,861.455994,309.584015L861.40802,309.608002z"/>
    <path transform="matrix(-1,0,0,-1,81.012512,26)" style="stroke:#000000;stroke-width:0.05mm;fill:none" d="M966.208008,313.64801C965.341492,314.215271,964.458496,314.756958,963.559998,315.272003L963.695984,315.735992C964.220581,316.365936,964.795898,316.951813,965.416016,317.488007C965.429626,317.519012,965.440308,317.551025,965.447998,317.584015L965.328003,317.559998C964.894592,317.363281,964.467712,317.152527,964.047974,316.928009C964.407898,317.880463,964.851807,318.799133,965.375977,319.671997C966.473938,321.553711,967.684204,323.367584,969,325.104004C968.017517,321.248108,967.190125,317.354279,966.52002,313.432007L966.208008,313.64801z"/>
    <path transform="matrix(-1,0,0,-1,81.012512,26)" style="stroke:#000000;stroke-width:0.05mm;fill:none" d="M822.94397,311.640015L822.895996,311.64801C822.447754,312.061523,822.121948,312.590302,821.952026,313.175995C821.636719,314.032196,821.508301,314.946106,821.575989,315.855988C821.602539,316.583923,821.737488,317.303741,821.976013,317.992004L822.064026,318.096008L822.143982,318.208008C822.1026,318.228851,822.056641,318.220154,822.015991,318.200012L821.960022,318.175995C821.412659,317.736847,820.916016,317.237854,820.47998,316.687988C820.242371,316.402893,819.971313,316.1474,819.671997,315.928009L819.632019,315.920013L819.59198,315.936005L819.544006,316C819.518921,316.050171,819.494812,316.100769,819.471985,316.152008C819.346497,316.649384,819.370911,317.173157,819.544006,317.656006C819.826843,318.585815,820.303345,319.44516,820.94397,320.175995C821.610168,320.979523,822.398438,321.673218,823.280029,322.231995C824.038818,322.750519,824.832825,323.215393,825.656006,323.623993L825.752014,323.623993C825.529114,322.526917,825.237793,321.444824,824.880005,320.384003C824.779175,320.402771,824.679138,320.42572,824.583984,320.463989C824.381287,320.559875,824.170593,320.638367,823.952026,320.687988L823.911987,320.687988L823.895996,320.664001L823.895996,320.631989C823.921326,320.609344,823.940918,320.582184,823.968018,320.559998C824.157898,320.441895,824.350037,320.327301,824.544006,320.216003L824.656006,320.088013C824.730408,319.832672,824.732666,319.562836,824.671997,319.303986C824.464478,318.259399,824.224243,317.221649,823.952026,316.191986C823.647034,314.777161,823.374939,313.355469,823.135986,311.928009C823.107971,311.836334,823.069458,311.748352,823.023987,311.664001C822.998657,311.651672,822.971924,311.643616,822.94397,311.640015z"/>
    <path transform="matrix(-1,0,0,-1,81.012512,26)" style="stroke:#000000;stroke-width:0.05mm;fill:none" d="M748.335999,320.40799C748.732239,321.065582,749.193237,321.681976,749.711975,322.247986L751.567993,322.903992L754.200012,321.056L749.135986,321.056L748.335999,320.399994L748.335999,320.40799z"/>
    <path transform="matrix(-1,0,0,-1,81.012512,26)" style="stroke:#000000;stroke-width:0.05mm;fill:none" d="M866.984009,322.488007L867.039978,322.567993L867.088013,322.656006C867.07605,322.699158,867.05542,322.738403,867.031982,322.776001L866.984009,322.81601L866.94397,322.81601L866.895996,322.808014L866.848022,322.712006L866.848022,322.631989L866.888,322.552002L866.927979,322.480011C866.946777,322.481476,866.965515,322.483734,866.984009,322.488007z"/>
    <path transform="matrix(-1,0,0,-1,81.012512,26)" style="stroke:#000000;stroke-width:0.05mm;fill:none" d="M890.16803,313.855988C889.900452,314.598969,889.781189,315.387085,889.815979,316.175995C889.768677,317.022034,889.795349,317.870636,889.895996,318.712006C890.019043,319.260651,890.286438,319.766724,890.671997,320.175995C891.24823,320.893372,891.912537,321.535034,892.64801,322.088013C893.083862,320.379456,893.512817,318.671448,893.935974,316.959991L893.119995,315.855988C892.606018,315.201874,891.980591,314.643768,891.271973,314.208008L890.23999,313.656006L890.16803,313.855988z"/>
    <path transform="matrix(-1,0,0,-1,81.012512,26)" style="stroke:#000000;stroke-width:0.05mm;fill:none" d="M1009.359985,313.079987L1009.335999,313.208008C1008.957397,314.926147,1008.578735,316.664001,1008.208008,318.384003C1008.096497,318.852905,1008.072083,319.338287,1008.135986,319.81601C1008.203247,319.997131,1008.309937,320.160858,1008.447998,320.29599L1008.559998,320.376007L1008.656006,320.480011L1008.59198,320.496002C1008.314392,320.415222,1008.030884,320.355896,1007.744019,320.320007L1007.703979,320.335999L1007.664001,320.359985C1007.603149,320.855438,1007.481262,321.34137,1007.304016,321.808014C1008.509399,320.987671,1009.48468,319.872467,1010.135986,318.567993C1010.660522,317.320984,1010.715942,315.926056,1010.296021,314.640015C1010.135254,314.083313,1009.893677,313.553711,1009.583984,313.063995L1009.47998,312.951996C1009.461182,312.954163,1009.449829,312.945404,1009.432007,312.944L1009.359985,313.079987z"/>
    <path transform="matrix(-1,0,0,-1,81.012512,26)" style="stroke:#000000;stroke-width:0.05mm;fill:none" d="M897.952026,316.720001C898.175903,317.106903,898.332153,317.528931,898.416016,317.967987L898.59198,320.112L901.159973,320.112L902.015991,320.967987L902.119995,321.079987C902.439514,320.91626,902.762207,320.758789,903.088013,320.608002C902.080627,319.983826,901.106018,319.308319,900.16803,318.584015C899.808044,318.270325,899.466736,317.935883,899.143982,317.584015C898.744385,317.201172,898.311218,316.854889,897.848022,316.552002L897.952026,316.720001z"/>
    <path transform="matrix(-1,0,0,-1,81.012512,26)" style="stroke:#000000;stroke-width:0.05mm;fill:none" d="M901.47998,314C901.096375,315.253418,901.127625,316.597351,901.567993,317.832001C901.995911,318.672577,902.598389,319.412109,903.335999,320C903.454895,320.088776,903.595825,320.14389,903.744019,320.152008L903.848022,320.135986C904.419006,319.925293,904.942078,319.602539,905.383972,319.18399L905.440002,319.071991L905.463989,318.951996L905.455994,318.832001C905.309326,318.453766,905.066406,318.120422,904.752014,317.864014L904.687988,317.839996L904.567993,317.839996L904.416016,317.752014C903.914307,317.216797,903.486572,316.616669,903.143982,315.967987C902.851379,315.482147,902.592346,314.976868,902.367981,314.455994L901.783997,313.096008L901.47998,314z"/>
    <path transform="matrix(-1,0,0,-1,81.012512,26)" style="stroke:#000000;stroke-width:0.05mm;fill:none" d="M750.888,317.032013C750.300964,317.742737,749.655945,318.403473,748.960022,319.007996L754.23999,318.175995C753.492004,317.843323,752.737,317.525879,751.976013,317.223999C751.653137,317.104462,751.324707,317.000519,750.992004,316.911987L750.888,317.032013z"/>
    <path transform="matrix(-1,0,0,-1,81.012512,26)" style="stroke:#000000;stroke-width:0.05mm;fill:none" d="M956.632019,315.944C957.088318,316.610718,957.632507,317.212616,958.247986,317.735992C958.711548,318.147766,959.191833,318.540192,959.687988,318.911987L959.783997,318.951996L959.864014,319L959.895996,319L959.911987,318.951996C959.897888,318.733734,959.863708,318.517426,959.815979,318.303986C959.063354,317.510376,958.363281,316.668518,957.719971,315.783997L957.616028,315.608002L956.632019,315.944z"/>
    <path transform="matrix(-1,0,0,-1,81.012512,26)" style="stroke:#000000;stroke-width:0.05mm;fill:none" d="M747.416016,316.559998C747.413574,317.079132,747.448669,317.597778,747.52002,318.112L747.856018,318.384003C747.887756,318.35379,747.925049,318.331329,747.960022,318.303986C748.130676,318.033569,748.23468,317.72641,748.263977,317.40799C748.316895,317.044769,748.349365,316.678894,748.359985,316.312012C748.049805,316.25296,747.73761,316.205109,747.424011,316.167999L747.416016,316.559998z"/>
    <path transform="matrix(-1,0,0,-1,81.012512,26)" style="stroke:#000000;stroke-width:0.05mm;fill:none" d="M907.335999,308.928009C907.312378,308.937103,907.288269,308.944885,907.263977,308.951996C906.953674,309.14505,906.721802,309.439545,906.599976,309.783997C906.454956,310.545563,906.406982,311.322327,906.455994,312.096008C906.467346,313.699341,906.660645,315.296204,907.031982,316.855988L907.143982,317.096008C907.189819,317.175842,907.246399,317.248291,907.304016,317.320007L907.328003,317.328003C907.366638,317.328796,907.403015,317.319397,907.440002,317.312012L907.512024,317.279999C907.855286,316.983337,908.127991,316.614685,908.312012,316.200012C909.025513,314.913696,909.19281,313.394653,908.776001,311.984009C908.548157,310.981201,908.159729,310.021851,907.624023,309.144012L907.552002,309.063995L907.463989,308.992004L907.367981,308.928009L907.335999,308.928009z"/>
    <path transform="matrix(-1,0,0,-1,81.012512,26)" style="stroke:#000000;stroke-width:0.05mm;fill:none" d="M857.512024,310.335999C857.302979,310.462616,857.126404,310.635834,856.992004,310.839996C856.030396,312.165436,855.156494,313.552429,854.375977,314.992004L854.320007,315.152008C854.219849,315.500214,854.270386,315.871887,854.440002,316.191986L854.640015,316.679993C855.09552,316.504639,855.530396,316.279572,855.935974,316.007996C856.729309,315.517303,857.510925,315.007874,858.280029,314.480011C858.734314,314.541351,859.187317,314.608032,859.640015,314.679993C858.756775,313.824738,858.121033,312.746796,857.799988,311.559998C857.762207,311.221863,857.730164,310.88327,857.703979,310.544006C857.686218,310.50766,857.675537,310.468903,857.656006,310.432007L857.575989,310.335999L857.512024,310.335999z"/>
    <path transform="matrix(-1,0,0,-1,81.012512,26)" style="stroke:#000000;stroke-width:0.05mm;fill:none" d="M898.112,316.032013C898.076721,316.074799,898.048401,316.122528,898.031982,316.175995C898.039368,316.223053,898.04895,316.269745,898.072021,316.312012L898.112,316.376007L898.176025,316.359985L898.231995,316.312012L898.263977,316.256012L898.271973,316.191986L898.255981,316.127991L898.208008,316.071991C898.178955,316.050323,898.145569,316.040771,898.112,316.032013z"/>
    <path transform="matrix(-1,0,0,-1,81.012512,26)" style="stroke:#000000;stroke-width:0.05mm;fill:none" d="M752.536011,307.079987C752.492981,307.092377,752.449585,307.102783,752.40802,307.119995C752.335876,307.23053,752.2901,307.356293,752.280029,307.488007C752.341736,307.961884,752.430115,308.431885,752.544006,308.895996C752.701965,310.215759,752.790039,311.542969,752.807983,312.872009C752.843201,313.156769,752.913696,313.435944,753.015991,313.70401C753.269714,314.129395,753.588684,314.512268,753.960022,314.839996C755.342346,315.114868,756.721558,315.408386,758.096008,315.720001L758.768005,315.223999L758.711975,315.135986L758.656006,315.135986L758.599976,315.152008C758.519714,315.181183,758.451233,315.234131,758.392029,315.29599C758.351074,315.335602,758.296631,315.356232,758.23999,315.359985C758.246643,315.238586,758.284058,315.121643,758.343994,315.015991C758.443481,314.736389,758.489319,314.440826,758.487976,314.144012C758.569275,313.581787,758.57196,313.010986,758.495972,312.447998C758.471436,312.430084,758.444092,312.418152,758.416016,312.40799L758.343994,312.424011C758.042175,312.609253,757.767639,312.835236,757.528015,313.096008C756.927002,313.682587,756.257996,314.195068,755.536011,314.623993L755.495972,314.631989C755.538025,314.525848,755.610962,314.43634,755.695984,314.359985C756.256287,313.662354,756.511108,312.767853,756.400024,311.880005C756.297729,310.890472,755.877502,309.960449,755.200012,309.231995C754.529602,308.446838,753.754211,307.757874,752.895996,307.18399C752.794739,307.141449,752.690918,307.10495,752.583984,307.079987L752.536011,307.079987z"/>
    <path transform="matrix(-1,0,0,-1,81.012512,26)" style="stroke:#000000;stroke-width:0.05mm;fill:none" d="M765.039978,315.200012C764.644348,315.2883,764.260559,315.422821,763.895996,315.600006C764.040405,315.633514,764.187866,315.651276,764.335999,315.656006C764.699097,315.658325,765.062073,315.644897,765.424011,315.615997C765.380066,315.467499,765.311157,315.327972,765.223999,315.200012L765.200012,315.18399L765.039978,315.200012z"/>
    <path transform="matrix(-1,0,0,-1,81.012512,26)" style="stroke:#000000;stroke-width:0.05mm;fill:none" d="M846.296021,308.208008L846.231995,308.247986C845.743103,308.673218,845.290833,309.138916,844.880005,309.640015C843.288208,311.396545,841.787415,313.233612,840.383972,315.144012C842.069702,315.365601,843.764893,315.506958,845.463989,315.567993L848.632019,315.640015L848.880005,315.391998C848.947449,314.803284,849.030151,314.216431,849.127991,313.631989L848.072021,312.287994L848.072021,310.528015C847.601196,309.766754,847.088257,309.03241,846.536011,308.328003L846.392029,308.18399L846.359985,308.175995L846.296021,308.208008z"/>
    <path transform="matrix(-1,0,0,-1,81.012512,26)" style="stroke:#000000;stroke-width:0.05mm;fill:none" d="M897.823975,314.376007C897.740967,314.760895,897.743225,315.158661,897.823975,315.544006L897.856018,315.552002C897.9823,315.172882,897.981934,314.763245,897.856018,314.384003L897.823975,314.368011L897.823975,314.376007z"/>
    <path transform="matrix(-1,0,0,-1,81.012512,26)" style="stroke:#000000;stroke-width:0.05mm;fill:none" d="M796.94397,312.079987C796.693909,313.154968,796.91864,314.285797,797.559998,315.18399L797.703979,315.391998L797.83197,315.488007L797.895996,315.455994C798.12323,315.234528,798.266541,314.93985,798.296021,314.623993C798.521484,313.675201,798.356201,312.675415,797.840027,311.847992L797.223999,310.832001L796.94397,312.079987z"/>
    <path transform="matrix(-1,0,0,-1,81.012512,26)" style="stroke:#000000;stroke-width:0.05mm;fill:none" d="M956.679993,315.471985C956.963257,315.33725,957.243591,315.196289,957.52002,315.048004L957.52002,315L956.671997,314.903992L956.679993,315.471985z"/>
    <path transform="matrix(-1,0,0,-1,81.012512,26)" style="stroke:#000000;stroke-width:0.05mm;fill:none" d="M809.744019,309.70401C809.662354,309.746338,809.582092,309.791321,809.504028,309.839996C809.287292,310.045685,809.085876,310.266937,808.903992,310.503998C808.586792,310.846375,808.24469,311.164734,807.880005,311.455994C807.486633,311.879395,807.181335,312.376801,806.984009,312.920013C806.632996,313.608276,806.453674,314.37146,806.463989,315.144012L806.47998,315.200012C806.492798,315.257874,806.536438,315.300995,806.59198,315.320007C806.649353,315.294739,806.707703,315.271759,806.768005,315.256012C807.206421,314.972076,807.623535,314.656647,808.015991,314.312012L810.495972,312.247986C810.393433,311.486176,810.227112,310.734375,810,310C809.949768,309.899109,809.890686,309.802856,809.823975,309.712006C809.79718,309.703369,809.771973,309.708435,809.744019,309.70401z"/>
    <path transform="matrix(-1,0,0,-1,81.012512,26)" style="stroke:#000000;stroke-width:0.05mm;fill:none" d="M772.208008,311.320007C771.886719,311.510773,771.594238,311.745972,771.335999,312.015991C770.654785,312.655212,770.067688,313.388,769.59198,314.191986C769.470459,314.451416,769.420288,314.738861,769.447998,315.023987L769.528015,315.216003L772.559998,314.847992L773.007996,315.216003L772.744019,313.608002C772.701843,312.844604,772.553406,312.090759,772.304016,311.368011L772.255981,311.312012L772.208008,311.320007z"/>
    <path transform="matrix(-1,0,0,-1,81.012512,26)" style="stroke:#000000;stroke-width:0.05mm;fill:none" d="M745.280029,307.488007C745.070496,307.581696,744.886169,307.723816,744.744019,307.903992C743.898315,308.796478,743.348145,309.927734,743.16803,311.144012C743.029602,311.955017,743.062622,312.786285,743.263977,313.584015C743.434509,314.000671,743.635498,314.404083,743.864014,314.791992C744.01825,313.246429,744.258606,311.710754,744.583984,310.191986C744.807434,309.315216,745.066345,308.447815,745.359985,307.59201L745.35199,307.544006C745.340393,307.521576,745.323853,307.503174,745.304016,307.488007L745.280029,307.488007z"/>
    <path transform="matrix(-1,0,0,-1,81.012512,26)" style="stroke:#000000;stroke-width:0.05mm;fill:none" d="M747.911987,313.191986L747.888,313.223999L747.856018,313.247986C747.766602,313.49057,747.695007,313.73938,747.640015,313.992004C747.848328,313.999817,748.056396,314.013184,748.263977,314.032013L748.184021,313.559998C748.13446,313.417908,748.047913,313.292419,747.935974,313.191986L747.911987,313.191986z"/>
    <path transform="matrix(-1,0,0,-1,81.012512,26)" style="stroke:#000000;stroke-width:0.05mm;fill:none" d="M994.35199,311.432007L994.16803,311.712006L994.76001,312.112C994.829346,312.546051,994.867004,312.984497,994.872009,313.424011C995.509766,313.071594,996.141907,312.70874,996.768005,312.335999C996.950134,312.227631,997.114685,312.090942,997.23999,311.920013C997.228027,311.88916,997.209839,311.86319,997.200012,311.832001C996.851379,311.565948,996.482239,311.327759,996.096008,311.119995L994.952026,310.503998L994.35199,311.432007z"/>
    <path transform="matrix(-1,0,0,-1,81.012512,26)" style="stroke:#000000;stroke-width:0.05mm;fill:none" d="M894.856018,306.64801C894.714539,306.7034,894.590149,306.79184,894.47998,306.895996C894.408264,306.969513,894.34375,307.049744,894.288025,307.135986C893.13916,308.779816,892.039917,310.457977,890.992004,312.167999C892.009521,312.463104,893.050781,312.669067,894.104004,312.783997C894.237549,312.78598,894.371094,312.781311,894.504028,312.768005C894.52771,312.738708,894.553223,312.710907,894.575989,312.679993C894.595337,312.320648,894.543274,311.960632,894.416016,311.623993C894.254456,311.167236,894.083984,310.713837,893.903992,310.264008L895.392029,310.264008C895.472839,310.057129,895.570313,309.857147,895.679993,309.664001L896.392029,308.384003C895.97168,307.835999,895.539795,307.297241,895.096008,306.768005L895.015991,306.70401L894.903992,306.64801L894.856018,306.64801z"/>
    <path transform="matrix(-1,0,0,-1,81.012512,26)" style="stroke:#000000;stroke-width:0.05mm;fill:none" d="M957.815979,306.287994C957.643005,306.434784,957.508423,306.620453,957.40802,306.824005C957.096313,307.372589,956.840576,307.951141,956.64801,308.552002C956.492249,308.899658,956.361206,309.257843,956.255981,309.623993C956.17627,310.159607,956.2323,310.706604,956.416016,311.216003C956.489807,311.572998,956.544922,311.933563,956.583984,312.29599L956.664001,312.303986L956.664001,311.040009L958.872009,311.040009C958.862122,310.391785,958.848755,309.744141,958.83197,309.096008C958.80835,308.471161,958.743958,307.848572,958.640015,307.231995L958.583984,307.056C958.536072,306.948029,958.485229,306.841461,958.432007,306.735992C958.27417,306.544128,958.072571,306.394196,957.848022,306.287994L957.815979,306.287994z"/>
    <path transform="matrix(-1,0,0,-1,81.012512,26)" style="stroke:#000000;stroke-width:0.05mm;fill:none" d="M966.080017,311.391998C965.836731,311.47818,965.617371,311.620209,965.432007,311.799988C965.296204,311.902649,965.169373,312.016541,965.047974,312.135986L966.375977,312.088013L966.375977,311.911987C966.355835,311.731781,966.288147,311.561584,966.192017,311.40799C966.158752,311.38681,966.118347,311.383362,966.080017,311.391998z"/>
    <path transform="matrix(-1,0,0,-1,81.012512,26)" style="stroke:#000000;stroke-width:0.05mm;fill:none" d="M721.599976,311.808014C721.887329,311.970276,722.201599,312.079254,722.528015,312.127991L722.583984,312.119995L722.583984,312.079987C722.268066,311.940704,721.934021,311.846863,721.59198,311.799988L721.599976,311.808014z"/>
    <path transform="matrix(-1,0,0,-1,81.012512,26)" style="stroke:#000000;stroke-width:0.05mm;fill:none" d="M948.840027,310.167999C948.297302,310.711121,947.852722,311.344238,947.528015,312.040009L950.695984,312.127991C950.233276,311.329285,949.725769,310.557465,949.176025,309.81601L948.840027,310.167999z"/>
    <path transform="matrix(-1,0,0,-1,81.012512,26)" style="stroke:#000000;stroke-width:0.05mm;fill:none" d="M986.072021,308.287994C985.337219,309.265961,984.640869,310.272034,983.984009,311.303986L987.471985,311.463989C987.450928,310.859802,987.384888,310.257935,987.271973,309.664001C987.179932,309.277527,987.000916,308.917603,986.752014,308.608002C986.631226,308.488892,986.496277,308.385193,986.35199,308.29599L986.247986,308.264008L986.127991,308.256012L986.072021,308.287994z"/>
    <path transform="matrix(-1,0,0,-1,81.012512,26)" style="stroke:#000000;stroke-width:0.05mm;fill:none" d="M965.736023,310.791992C966.031128,310.95108,966.349915,311.061493,966.679993,311.119995L966.711975,311.096008L966.736023,311.071991C966.566528,310.99527,966.389709,310.936035,966.208008,310.895996L965.728027,310.776001L965.736023,310.791992z"/>
</svg>
