<?xml version="1.0" encoding="UTF-8"?>
<svg xmlns="http://www.w3.org/2000/svg" width="383.207mm" height="277.166mm" viewBox="-876.714844 -690.060669 383.207031 277.165527">
    <path transform="matrix(-1,0,0,-1,0,0)" style="stroke:none;fill:#0000ff;fill-rule:evenodd" d="M597.335938,412.90625C599.513184,412.947693,601.71875,412.998962,603.894531,413.058594C604.953308,413.053253,606.01178,413.097595,607.066406,413.191406C608.13739,413.296143,609.196472,413.498871,610.230469,413.796875L611.058594,414.070313L611.878906,414.40625C613.015625,414.907471,614.054016,415.607208,614.945313,416.472656L615.265625,416.828125C615.640747,417.299591,615.929504,417.83374,616.117188,418.40625C616.32782,419.054108,616.463928,419.723724,616.523438,420.402344C616.560913,420.894379,616.610413,421.385406,616.671875,421.875C616.732971,422.092102,616.792969,422.30954,616.851563,422.527344C617.058167,423.42099,617.2276,424.322784,617.359375,425.230469C617.603455,426.837646,617.85968,428.43988,618.128906,430.042969C618.464539,431.99054,618.881592,433.923248,619.378906,435.835938L619.714844,437.054688C619.847717,437.51355,620.057556,437.946655,620.339844,438.332031C620.439941,438.463715,620.548096,438.58905,620.664063,438.707031C620.834778,438.87027,621.018921,439.018677,621.210938,439.15625C621.603882,439.405884,622.010803,439.632782,622.429688,439.835938C622.855408,440.029572,623.26416,440.258636,623.652344,440.519531C623.848328,440.657745,624.032898,440.811523,624.203125,440.980469C624.661133,441.452545,624.990417,442.033569,625.164063,442.667969L625.332031,443.332031C625.511292,444.189606,625.584473,445.065948,625.550781,445.941406C625.514099,446.905334,625.396973,447.864471,625.199219,448.808594C625.050293,449.470917,624.902649,450.137543,624.757813,450.800781L624.714844,451.054688C624.713928,452.141113,624.68811,453.227325,624.636719,454.3125C624.55072,456.233429,624.49469,458.155396,624.46875,460.078125C624.445251,463.384766,624.580811,466.690765,624.875,469.984375C625.035095,471.62384,625.296143,473.251953,625.65625,474.859375C625.913086,475.956696,626.130554,477.062958,626.308594,478.175781C626.538269,479.792877,626.673523,481.421906,626.714844,483.054688C626.786133,485.49054,626.806946,487.926605,626.777344,490.363281C626.754639,492.016815,626.736084,493.400513,626.714844,495.054688L627.714844,516.054688C627.958862,516.193726,628.215515,516.309204,628.480469,516.402344C629.162842,516.633301,629.861389,516.813416,630.570313,516.941406C631.999329,517.207947,633.425049,517.49054,634.847656,517.789063C636.711182,518.199463,638.55658,518.688049,640.378906,519.253906C644.222412,520.401367,647.772705,521.458984,651.621094,522.601563C655.553589,523.776733,659.434937,525.117798,663.253906,526.621094C668.222168,528.556152,673.146301,530.606567,678.019531,532.769531L679.300781,533.335938C682.653076,534.839355,686.024536,536.332642,689.390625,537.804688C690.834473,538.441895,692.296143,539.038452,693.773438,539.59375C694.375488,539.824402,694.991211,540.017578,695.617188,540.171875C695.87439,540.24054,696.140076,540.272278,696.40625,540.265625L696.507813,540.246094L696.589844,540.21875C696.629089,540.190674,696.663635,540.157288,696.695313,540.121094L696.714844,540.054688L696.84375,540.246094C697.114807,540.5802,697.419556,540.885498,697.753906,541.15625C698.607849,541.850403,699.51709,542.473633,700.472656,543.019531C701.401489,543.567444,702.364319,544.055481,703.355469,544.480469L704.320313,544.863281C705.042236,545.139771,705.791138,545.340088,706.554688,545.460938C707.026489,545.535767,707.507751,545.529114,707.976563,545.4375C708.16333,545.392639,708.342407,545.320374,708.507813,545.222656L708.714844,545.054688C709.777527,545.978821,710.888428,546.845886,712.042969,547.652344C713.037415,548.362122,714.059143,549.033203,715.105469,549.664063C715.887756,550.135742,716.699097,550.557617,717.535156,550.925781C717.939453,551.101929,718.362915,551.230164,718.796875,551.308594C718.952637,551.325989,719.109558,551.331604,719.265625,551.316406L719.453125,551.269531L719.605469,551.179688L719.714844,551.054688L719.820313,551.40625L719.964844,551.722656C720.074341,551.919495,720.209595,552.100769,720.367188,552.261719L720.621094,552.484375L720.902344,552.679688C721.442993,552.989563,722.041443,553.183777,722.660156,553.257813C723.35614,553.348572,724.060608,553.354309,724.757813,553.273438C725.858215,553.160217,726.935242,552.882263,727.953125,552.449219C728.26825,552.313538,728.570923,552.150635,728.859375,551.964844C729.018677,551.857239,729.1698,551.738159,729.3125,551.609375L729.488281,551.425781L729.621094,551.242188L729.714844,551.054688L729.609375,551.289063L729.558594,551.527344L729.554688,551.765625L729.601563,552.003906C729.65918,552.170044,729.733459,552.329834,729.824219,552.480469C729.998108,552.746826,730.206482,552.989136,730.445313,553.199219C731.061035,553.73584,731.730225,554.207703,732.441406,554.609375L732.839844,554.839844C733.93457,555.44043,735.041748,556.018738,736.160156,556.574219C736.867554,556.922241,737.55835,557.302795,738.230469,557.714844C738.398071,557.819153,738.560669,557.931396,738.714844,558.054688L741.714844,543.054688L754.714844,518.054688C755.447388,516.828674,756.15741,515.588379,756.84375,514.335938C758.610168,511.147675,760.463806,508.008484,762.402344,504.921875C764.220764,502.046692,766.131775,499.231567,768.132813,496.480469C769.385193,494.75946,770.766846,493.136292,772.265625,491.625C772.988098,490.905365,773.692749,490.168427,774.378906,489.414063C775.587097,488.03717,776.70166,486.58075,777.714844,485.054688C778.561401,483.822876,779.428894,482.60498,780.316406,481.402344C780.813354,480.727844,781.272217,480.026154,781.691406,479.300781C782.200745,478.379578,782.626709,477.414795,782.964844,476.417969C783.363586,475.252197,783.727051,474.074432,784.054688,472.886719C784.452515,471.572998,784.786133,470.240631,785.054688,468.894531C785.201965,468.089966,785.283875,467.274811,785.300781,466.457031C785.303101,465.40741,785.241516,464.358673,785.117188,463.316406C784.970398,462.015228,784.807617,460.71524,784.628906,459.417969C784.359253,457.651337,783.945129,455.909851,783.390625,454.210938C782.817627,452.447601,782.123169,450.726105,781.3125,449.058594C780.946899,448.319275,780.586426,447.587769,780.222656,446.847656C780.093018,446.52536,779.88385,446.241272,779.613281,446.023438C779.241394,445.729767,778.83429,445.483948,778.402344,445.289063C777.590698,444.915344,776.767334,444.567627,775.933594,444.246094C774.738892,443.768402,773.570618,443.227203,772.433594,442.625C771.100281,441.912567,769.852722,441.049988,768.714844,440.054688C768.157776,439.55014,767.693359,438.952332,767.339844,438.289063C767.166077,437.950867,766.998169,437.609497,766.835938,437.265625C766.755432,437.131775,766.682007,436.993652,766.617188,436.851563C766.420898,436.528992,766.229248,436.203491,766.042969,435.875L765.859375,435.460938L765.722656,435.011719C765.687439,434.856506,765.669189,434.69812,765.664063,434.539063C765.668518,434.376495,765.684387,434.214478,765.714844,434.054688L765.792969,433.847656C765.862488,433.72522,765.950439,433.614197,766.054688,433.519531L766.210938,433.390625C766.350281,433.295532,766.492065,433.203979,766.636719,433.117188L766.714844,433.054688C768.230164,432.700012,769.767456,432.447174,771.316406,432.296875C772.972351,432.134888,774.633545,432.034576,776.296875,431.996094C777.469543,431.949677,778.64325,431.941772,779.816406,431.972656C780.117065,431.985443,780.416931,432.012451,780.714844,432.054688L780.597656,431.964844C779.942139,431.407806,779.306396,430.828064,778.691406,430.226563C777.321472,428.90683,775.894409,427.647705,774.414063,426.453125C774.006897,426.131683,773.592834,425.818848,773.171875,425.515625L773.058594,425.421875C773.012695,425.361023,772.97644,425.293793,772.949219,425.222656L772.941406,425.117188L772.957031,425.015625L772.996094,424.914063C773.032654,424.842407,773.078308,424.776276,773.125,424.710938C773.257019,424.550842,773.398804,424.399048,773.550781,424.257813L773.621094,424.183594C773.654053,424.141876,773.686523,424.099823,773.714844,424.054688C773.530029,423.649994,773.313416,423.26062,773.066406,422.890625C772.766541,422.423004,772.475098,421.950256,772.191406,421.472656C771.993469,421.135651,771.823792,420.782776,771.683594,420.417969L771.582031,420.09375L771.527344,419.789063L771.523438,419.511719C771.538818,419.428345,771.560913,419.346527,771.585938,419.265625L771.640625,419.15625L771.714844,419.054688C773.731018,418.786255,775.755737,418.58429,777.785156,418.449219C782.204407,418.144226,786.632813,417.978821,791.0625,417.953125C792.36084,417.937378,793.659302,417.984192,794.953125,418.09375C795.556335,418.142029,796.154175,418.244171,796.738281,418.402344C796.880066,418.441071,797.019653,418.487701,797.152344,418.550781L797.320313,418.636719C797.413086,418.690521,797.496704,418.757996,797.574219,418.832031L797.660156,418.9375L797.714844,419.054688C798.248962,420.55365,798.9104,422.004181,799.691406,423.390625C800.595764,425.01004,801.605652,426.568115,802.714844,428.054688C802.972351,428.386292,803.1474,428.774445,803.222656,429.1875C803.280701,429.576233,803.27887,429.971588,803.214844,430.359375C803.143677,430.7854,803.057861,431.208893,802.957031,431.628906C802.789307,432.368683,802.684998,433.121429,802.644531,433.878906C802.364746,437.563446,802.453674,441.266724,802.910156,444.933594C803.103882,446.464813,803.317505,447.993835,803.550781,449.519531C803.627869,450.028625,803.682922,450.540802,803.714844,451.054688L803.714844,467.054688C803.791199,467.666199,803.903442,468.272705,804.050781,468.871094C804.381104,470.293274,804.630371,471.733093,804.796875,473.183594C804.969666,474.778503,804.983948,476.386597,804.839844,477.984375C804.805237,478.489838,804.736267,478.99231,804.632813,479.488281C804.577515,479.703857,804.498901,479.91275,804.394531,480.109375L804.242188,480.324219L803.910156,480.644531C803.727661,480.776093,803.55426,480.9198,803.390625,481.074219C803.230347,481.245361,803.10321,481.445068,803.019531,481.664063C802.971558,481.776733,802.933716,481.893341,802.902344,482.011719C802.796082,482.440186,802.736755,482.878998,802.726563,483.320313C802.719971,483.660461,802.714722,484.00354,802.710938,484.34375C802.68457,484.765778,802.595581,485.181427,802.449219,485.578125C802.287537,485.982727,802.092773,486.373322,801.867188,486.746094C801.809937,486.845642,801.760193,486.949219,801.714844,487.054688L794.714844,497.054688C794.482605,497.6651,794.241882,498.271515,793.992188,498.875C793.339844,500.515381,792.851685,502.2164,792.535156,503.953125C792.102112,506.296936,791.85791,508.671783,791.804688,511.054688C791.789124,511.62027,791.768311,512.184814,791.742188,512.75L791.714844,513.054688C791.764343,513.457642,791.78241,513.86377,791.769531,514.269531C791.739807,515.484009,791.725525,516.699158,791.726563,517.914063C791.731873,519.281799,791.836365,520.647339,792.039063,522L792.234375,523.050781C792.449158,524.103882,792.780823,525.129639,793.222656,526.109375C793.851868,527.447754,794.703491,528.669861,795.742188,529.722656C796.183044,530.161987,796.665283,530.557861,797.183594,530.902344C797.853394,531.344666,798.572021,531.708008,799.324219,531.988281C799.777344,532.155273,800.228333,532.324219,800.679688,532.496094C800.933105,532.594482,801.179382,532.71051,801.414063,532.847656L801.714844,533.054688L802.714844,532.054688C803.044373,531.789551,803.364624,531.513,803.675781,531.226563C805.461243,529.643799,807.547058,528.43634,809.808594,527.675781C810.392456,527.484375,810.976257,527.29718,811.5625,527.113281L811.714844,527.054688L818.714844,524.054688L818.722656,524.191406L818.773438,524.300781L818.871094,524.382813C818.970703,524.430176,819.077454,524.46106,819.1875,524.46875C819.339844,524.477417,819.492615,524.475281,819.644531,524.460938C820.332825,524.367981,821.010193,524.207397,821.667969,523.984375C822.964478,523.570374,824.239441,523.091797,825.488281,522.550781C826.584839,522.098938,827.661438,521.599731,828.714844,521.054688L828.789063,521.148438L828.90625,521.21875C829.026733,521.259155,829.150879,521.287842,829.277344,521.300781L829.519531,521.3125C830.08551,521.301758,830.649109,521.237366,831.203125,521.121094C831.777283,521.014526,832.346863,520.884399,832.910156,520.730469C834.227478,520.386292,835.517456,519.945068,836.769531,519.410156C837.198975,519.225159,837.614929,519.010559,838.015625,518.769531C838.221313,518.647339,838.409241,518.497253,838.570313,518.320313C838.635376,518.241943,838.683044,518.151306,838.714844,518.054688L838.765625,518.140625C838.814209,518.195007,838.867554,518.244568,838.921875,518.292969C839.038879,518.368958,839.161865,518.434937,839.289063,518.492188C839.395203,518.53302,839.503723,518.567139,839.613281,518.597656C840.213928,518.743225,840.827698,518.827576,841.445313,518.851563C842.735474,518.913025,844.028137,518.897522,845.316406,518.804688C847.656982,518.656616,849.987488,518.377502,852.296875,517.96875C853.010559,517.842712,853.719421,517.690063,854.421875,517.511719C854.734802,517.434387,855.042969,517.338684,855.34375,517.222656C855.471191,517.175354,855.595581,517.119995,855.714844,517.054688L855.730469,517.257813L855.769531,517.460938L855.835938,517.65625L855.925781,517.851563C856.087708,518.121094,856.292847,518.362061,856.535156,518.5625C856.901672,518.858826,857.309143,519.100647,857.746094,519.277344C858.599365,519.623535,859.505798,519.819641,860.425781,519.859375C861.899475,519.941223,863.371155,519.665405,864.714844,519.054688L864.734375,519.148438L864.765625,519.230469L864.808594,519.296875L864.867188,519.351563L864.9375,519.390625C865.027893,519.421631,865.123352,519.435364,865.21875,519.429688C865.513367,519.39856,865.799744,519.31604,866.070313,519.195313C866.622498,518.956299,867.157471,518.679321,867.671875,518.367188C868.862671,517.640259,870.025085,516.867432,871.15625,516.050781C872.676025,514.952881,874.180725,513.856445,875.691406,512.746094C876.025635,512.505554,876.366882,512.274841,876.714844,512.054688C876.53949,512.814636,876.392578,513.580811,876.273438,514.351563C876.028625,515.789429,875.702637,517.21228,875.296875,518.613281C875.041321,519.469727,874.743835,520.313049,874.40625,521.140625C873.608459,523.082458,872.573242,524.918091,871.324219,526.605469C870.671814,527.524841,869.966309,528.405334,869.210938,529.242188C868.360413,530.192505,867.374268,531.012146,866.285156,531.675781C865.419373,532.179199,864.521667,532.625549,863.597656,533.011719C862.180908,533.604248,860.785645,534.185303,859.367188,534.773438C858.445129,535.192993,857.502441,535.565735,856.542969,535.890625C855.243774,536.329224,853.894592,536.602844,852.527344,536.707031C851.568848,536.75769,850.611572,536.829285,849.65625,536.921875C848.1875,537.089111,846.739014,537.402039,845.332031,537.855469C843.511047,538.450012,841.682312,539.036987,839.855469,539.613281C838.719299,539.96637,837.613037,540.409424,836.546875,540.9375C835.382996,541.551208,834.262085,542.243042,833.191406,543.007813C831.195618,544.376343,829.274841,545.850952,827.4375,547.425781C824.989075,549.515198,822.827209,551.918945,821.007813,554.574219C820.06189,555.951965,819.148865,557.352173,818.269531,558.773438C817.656128,559.774109,817.139709,560.831116,816.726563,561.929688C816.353455,562.935608,816.114258,563.986328,816.015625,565.054688L815.949219,566.023438C815.929138,566.674316,815.927979,567.325623,815.945313,567.976563C815.976318,569.062866,815.955322,570.150024,815.882813,571.234375C815.751343,572.914978,815.44635,574.577454,814.972656,576.195313C814.408386,578.015442,813.86145,579.841187,813.332031,581.671875C813.028259,582.766907,812.702637,583.855469,812.355469,584.9375C811.805969,586.592834,811.106628,588.194641,810.265625,589.722656C809.273804,591.527588,808.218567,593.297119,807.101563,595.027344C805.363708,597.733948,803.533081,600.380249,801.613281,602.960938L801.035156,603.746094C799.855225,605.322144,798.552734,607.065308,797.375,608.644531C796.565796,609.7276,795.793091,610.837585,795.058594,611.972656C794.701843,612.53186,794.382202,613.113831,794.101563,613.714844C793.944519,614.047363,793.829285,614.397888,793.753906,614.757813L793.714844,615.054688L793.644531,614.890625L793.542969,614.757813L793.417969,614.652344C793.315857,614.592346,793.206238,614.545715,793.089844,614.523438L792.890625,614.5L792.667969,614.5C792.179077,614.549805,791.700562,614.672363,791.246094,614.859375C790.312683,615.233215,789.410339,615.680115,788.546875,616.195313C787.101257,617.048645,785.693665,617.965027,784.328125,618.941406C780.971802,621.323059,777.762756,623.906006,774.71875,626.675781C773.931396,627.384827,773.181702,628.134521,772.472656,628.921875C772.209778,629.19397,771.981445,629.497864,771.796875,629.828125C771.758606,629.899292,771.733154,629.976074,771.714844,630.054688L771.515625,630.050781C770.995422,630.097046,770.482117,630.201233,769.984375,630.359375C769.105469,630.621887,768.239868,630.926697,767.390625,631.273438C765.84906,631.885742,764.345215,632.588867,762.886719,633.378906C762.343201,633.666687,761.821045,633.993103,761.324219,634.355469C761.137268,634.487,760.967468,634.641541,760.820313,634.816406L760.742188,634.945313L760.714844,635.054688C759.436462,635.057983,758.158569,635.10083,756.882813,635.183594C753.561523,635.380005,750.244019,635.644409,746.933594,635.976563C743.915527,636.260132,740.904968,636.610413,737.902344,637.027344C736.860352,637.1651,735.82428,637.344849,734.796875,637.566406C734.488037,637.628296,734.184753,637.715393,733.890625,637.828125C733.833496,637.85498,733.779114,637.886963,733.726563,637.921875L733.691406,637.96875L733.6875,638.011719L733.714844,638.054688C733.166809,637.792114,732.596863,637.578125,732.011719,637.414063C731.31012,637.217041,730.59967,637.053162,729.882813,636.921875C727.56189,636.511658,725.208435,636.31427,722.851563,636.332031C721.933838,636.326965,721.01709,636.39209,720.109375,636.527344C719.724365,636.582092,719.348267,636.687378,718.992188,636.84375L718.828125,636.945313L718.714844,637.054688C718.303284,637.036682,717.89502,636.973938,717.496094,636.871094C716.60144,636.638916,715.710449,636.391479,714.824219,636.128906C714.124756,635.922424,713.412292,635.763,712.691406,635.652344L712.226563,635.609375L711.804688,635.613281C711.56665,635.62384,711.332642,635.679443,711.117188,635.78125C710.465881,635.518372,709.778198,635.357361,709.078125,635.300781C708.147888,635.200012,707.208252,635.225586,706.285156,635.378906L705.882813,635.46875C705.6474,635.532166,705.417847,635.615295,705.195313,635.714844C705.055237,635.775574,704.925476,635.858276,704.8125,635.960938L704.714844,636.054688L704.613281,635.964844L704.492188,635.875C704.138306,635.660034,703.762085,635.48407,703.371094,635.347656C702.378052,635.010254,701.364258,634.737427,700.335938,634.53125C699.033081,634.262207,697.721008,634.039307,696.402344,633.863281C695.561401,633.754089,694.718628,633.656372,693.875,633.570313C692.057068,633.383423,690.229675,633.302368,688.402344,633.328125C687.789978,633.341431,687.178589,633.384888,686.570313,633.457031C686.11969,633.509399,685.675354,633.607117,685.246094,633.753906C685.093933,633.804504,684.951904,633.88092,684.820313,633.972656L684.714844,634.054688C682.534973,633.112122,680.260315,632.406128,677.929688,631.949219L676.855469,631.773438C675.828125,631.61792,674.788025,631.562561,673.75,631.609375C672.979675,631.639893,672.217224,631.776367,671.484375,632.015625L671.082031,632.167969L670.707031,632.347656C670.344971,632.536011,670.010559,632.773376,669.714844,633.054688C669.635132,632.984558,669.548828,632.922729,669.460938,632.863281L669.308594,632.773438C668.980347,632.606384,668.63678,632.471252,668.28125,632.375C667.498413,632.161377,666.700562,632.007324,665.894531,631.914063C663.743286,631.673462,661.576965,631.596313,659.414063,631.683594L657.648438,631.769531L655.898438,631.914063C654.529602,632.046265,653.169189,632.256104,651.824219,632.542969C650.919922,632.729187,650.031921,632.986877,649.167969,633.3125C648.735962,633.479736,648.318298,633.682251,647.921875,633.921875L647.714844,634.054688L647.59375,633.957031L647.414063,633.867188C647.149719,633.762024,646.876831,633.679749,646.597656,633.625C645.607178,633.440552,644.604492,633.329651,643.597656,633.292969C642.644958,633.246765,641.69043,633.251709,640.738281,633.308594C640.113281,633.335693,639.492126,633.420654,638.882813,633.5625C638.722168,633.606995,638.565796,633.665405,638.414063,633.734375L638.253906,633.835938L638.152344,633.945313L638.109375,634.066406C638.10968,634.139771,638.126953,634.212524,638.167969,634.273438L638.222656,634.347656C638.342651,634.476807,638.483276,634.585022,638.636719,634.671875C637.945557,634.480896,637.238098,634.355225,636.523438,634.296875C635.716614,634.230713,634.906494,634.21344,634.097656,634.246094L632.832031,634.320313L631.554688,634.449219C630.529236,634.577148,629.510132,634.750732,628.5,634.96875C627.483643,635.181396,626.482727,635.462097,625.503906,635.808594C625.053406,635.962463,624.619019,636.159973,624.207031,636.398438C624.07782,636.479797,623.956238,636.57251,623.84375,636.675781L623.742188,636.808594L623.699219,636.933594L623.714844,637.054688C622.639465,637.309204,621.556824,637.533264,620.46875,637.726563C619.467407,637.90271,618.470825,638.105957,617.480469,638.335938C616.944275,638.449768,616.422485,638.623657,615.925781,638.855469L615.753906,638.953125L615.609375,639.054688C615.538635,639.119873,615.475464,639.192505,615.417969,639.269531L615.371094,639.386719L615.363281,639.507813L615.390625,639.636719L615.457031,639.769531C615.533325,639.872925,615.622009,639.966003,615.714844,640.054688C615.504456,639.894592,615.280212,639.753418,615.042969,639.636719C614.800964,639.522949,614.549805,639.429871,614.292969,639.355469C613.886902,639.242188,613.468323,639.179932,613.046875,639.167969C612.296631,639.140198,611.545837,639.206421,610.8125,639.367188C609.09668,639.724426,607.472229,640.42865,606.039063,641.4375C605.693909,641.681763,605.378296,641.965454,605.101563,642.285156L604.949219,642.492188L604.832031,642.6875L604.753906,642.875L604.714844,643.054688C604.603027,642.962158,604.47937,642.885132,604.347656,642.824219C604.23468,642.782837,604.116455,642.757446,603.996094,642.753906L603.828125,642.777344L603.664063,642.835938L603.496094,642.929688C603.314514,643.065186,603.149597,643.221741,603.007813,643.398438C602.686768,643.817566,602.401794,644.263062,602.15625,644.730469C601.674011,645.626404,601.196777,646.527405,600.726563,647.429688C600.138306,648.537415,599.487793,649.610901,598.777344,650.644531C598.44104,651.127747,598.08667,651.598206,597.714844,652.054688C596.155823,653.944214,594.564819,655.80603,592.941406,657.640625C592.529297,658.111206,592.122437,658.5802,591.714844,659.054688C592.003357,659.303284,592.311768,659.527893,592.636719,659.726563C593.251343,660.118286,593.842224,660.546204,594.40625,661.007813C594.944092,661.462036,595.430725,661.973755,595.855469,662.535156C596.200745,663.006104,596.489746,663.515869,596.714844,664.054688L596.824219,664.371094C596.898071,664.661865,596.919312,664.963501,596.886719,665.261719L596.789063,665.8125C596.662415,666.216858,596.551147,666.625854,596.457031,667.039063L596.433594,667.257813L596.441406,667.472656L596.484375,667.671875L596.574219,667.867188L596.714844,668.054688C595.521545,669.414185,594.33374,670.787354,593.160156,672.164063C592.416321,673.039429,591.697266,673.935669,591.003906,674.851563C590.62207,675.350464,590.271057,675.872192,589.953125,676.414063C589.833557,676.610596,589.750122,676.827393,589.714844,677.054688C589.12793,677.415466,588.483276,677.673096,587.808594,677.8125C587.057495,677.960205,586.292664,678.027039,585.527344,678.011719C585.255798,678.00415,584.984131,678.018799,584.714844,678.054688C584.672119,678.099121,584.630127,678.144226,584.585938,678.1875C584.401062,678.319031,584.210693,678.442627,584.015625,678.558594C583.767212,678.70929,583.532288,678.88092,583.308594,679.066406L583.007813,679.367188L582.886719,679.527344C582.787476,679.686707,582.729187,679.867554,582.714844,680.054688L582.5,680.0625C582.266235,680.085571,582.035156,680.129517,581.808594,680.191406C581.289307,680.344604,580.789673,680.557373,580.316406,680.820313C579.151001,681.46051,578.094971,682.281982,577.1875,683.253906C577.013306,683.441589,576.864929,683.6521,576.753906,683.882813C576.737,683.939148,576.723389,683.99646,576.714844,684.054688L576.601563,683.953125C576.516174,683.899536,576.42334,683.858398,576.324219,683.839844L576.164063,683.820313L575.996094,683.828125L575.820313,683.859375C575.644653,683.908142,575.476929,683.980957,575.320313,684.074219L575.167969,684.179688L575.035156,684.296875L574.917969,684.429688L574.824219,684.574219L574.757813,684.726563L574.71875,684.886719L574.714844,685.054688C574.445862,685.0177,574.179993,684.96167,573.917969,684.890625C573.658203,684.833496,573.39447,684.796143,573.128906,684.78125C572.900208,684.774841,572.671387,684.788879,572.445313,684.824219C572.191528,684.863159,571.945129,684.941162,571.714844,685.054688C571.192932,685.286621,570.670837,685.512573,570.144531,685.734375C569.702942,685.904968,569.283936,686.130066,568.902344,686.410156L568.769531,686.53125L568.660156,686.660156L568.582031,686.792969L568.539063,686.929688L568.367188,687C568.121094,687.141479,567.884094,687.298218,567.660156,687.472656C567.065002,687.935059,566.442993,688.361938,565.796875,688.75C565.129456,689.143738,564.419189,689.459839,563.679688,689.691406L563.0625,689.855469L562.40625,689.980469L561.714844,690.054688C561.372131,690.075562,561.028198,690.044983,560.695313,689.960938C560.158752,689.808899,559.64624,689.582275,559.171875,689.289063C559.028259,689.195007,558.874023,689.118896,558.714844,689.054688C555.656677,688.677551,552.589172,688.379211,549.515625,688.160156C548.450378,688.095154,547.383545,688.05603,546.316406,688.042969C544.778076,687.925354,543.252075,687.680908,541.753906,687.3125C540.642151,687.036804,539.534485,686.747803,538.429688,686.445313C536.693787,685.989197,534.969116,685.490173,533.257813,684.949219C532.018372,684.550598,530.810364,684.060059,529.644531,683.480469C529.28064,683.294617,528.922607,683.097595,528.570313,682.890625L528.28125,682.703125C527.801575,682.342957,527.375488,681.916382,527.019531,681.433594C526.534546,680.792969,526.130127,680.095154,525.816406,679.355469C525.780701,679.255859,525.746765,679.155579,525.714844,679.054688C525.407959,678.579102,525.088928,678.111389,524.757813,677.652344C524.324341,677.060974,523.818726,676.526123,523.253906,676.058594C522.814758,675.70166,522.328735,675.406555,521.808594,675.183594C521.331604,675.000732,520.836731,674.868103,520.332031,674.789063C519.460449,674.662048,518.583008,674.578735,517.703125,674.539063C515.793274,674.4599,513.884216,674.35968,511.976563,674.238281C510.746094,674.144775,509.518219,674.043335,508.289063,673.933594C506.67276,673.831177,505.052887,673.793335,503.433594,673.820313C502.389648,673.838379,501.345428,673.806213,500.304688,673.722656C499.784302,673.675049,499.266724,673.600464,498.753906,673.5C497.440887,673.226929,496.162415,672.808655,494.941406,672.253906C494.784424,672.177917,494.631592,672.093567,494.484375,672C494.334656,671.90332,494.20462,671.780029,494.09375,671.640625L494.023438,671.519531C493.969482,671.39386,493.936737,671.260498,493.917969,671.125C493.899658,670.836426,493.855682,670.549927,493.785156,670.269531C493.626953,669.849854,493.532837,669.408691,493.507813,668.960938C493.471924,668.21991,493.647766,667.484131,494.015625,666.839844C494.066376,666.7547,494.125702,666.675171,494.1875,666.597656C493.95993,666.257568,493.795685,665.879089,493.703125,665.480469L493.636719,665.136719L493.613281,664.78125C493.615967,664.535645,493.649017,664.291321,493.714844,664.054688L493.808594,663.808594C493.868347,663.677124,493.951202,663.557678,494.050781,663.453125L494.1875,663.335938C494.353821,663.225403,494.530548,663.131531,494.714844,663.054688C494.753662,662.41864,494.77594,661.781738,494.78125,661.144531C494.810059,659.878418,494.894562,658.614075,495.035156,657.355469C495.179565,656.14386,495.410522,654.944153,495.726563,653.765625L496.003906,652.851563L496.332031,651.945313L496.714844,651.054688C496.91864,650.59845,497.151764,650.155762,497.414063,649.730469L497.488281,649.628906L497.625,649.464844L497.761719,649.34375C497.853668,649.282654,497.948273,649.225586,498.046875,649.175781C498.491638,648.975281,498.907227,648.715576,499.28125,648.402344C499.788177,647.985046,500.266998,647.534851,500.714844,647.054688C502.0896,645.601807,503.528595,644.211304,505.027344,642.886719C506.870514,641.260254,508.880402,639.833069,511.023438,638.628906C512.069092,638.040527,513.122375,637.46167,514.179688,636.894531C514.807739,636.548828,515.438477,636.206055,516.070313,635.867188C516.647522,635.572021,517.266418,635.36615,517.90625,635.261719L518.175781,635.230469C518.673889,635.190735,519.174927,635.211792,519.667969,635.292969C520.147888,635.375427,520.628479,635.454712,521.109375,635.53125C521.741333,635.624329,522.38324,635.625244,523.015625,635.535156C523.598816,635.441467,524.169189,635.280884,524.714844,635.054688C525.634583,634.69165,526.542603,634.299438,527.4375,633.878906C528.080444,633.576477,528.696533,633.220154,529.28125,632.816406C529.905029,632.36322,530.479675,631.845947,530.996094,631.273438C531.703674,630.487244,532.390137,629.682312,533.054688,628.859375C534.008301,627.718079,534.935669,626.554932,535.835938,625.371094C536.438354,624.572998,537.000488,623.7453,537.519531,622.890625C537.845581,622.364685,538.129333,621.813477,538.367188,621.242188L538.554688,620.742188C538.704041,620.31958,538.778931,619.87384,538.769531,619.425781L538.75,619.234375L538.714844,619.054688L539.257813,618.785156C539.592712,618.599548,539.914856,618.391785,540.222656,618.164063C540.792236,617.731689,541.299622,617.223083,541.730469,616.652344C542.324646,615.845825,542.766235,614.937622,543.035156,613.972656C543.444946,612.525391,543.486267,610.998718,543.15625,609.53125C543.020081,608.947449,542.796631,608.387573,542.492188,607.871094L542.316406,607.617188C542.197021,607.47052,542.066101,607.333801,541.925781,607.207031L541.714844,607.054688L541.992188,607L542.273438,606.898438C542.587463,606.752502,542.875977,606.556885,543.128906,606.320313C543.652405,605.838623,544.109375,605.289551,544.488281,604.6875C545.164612,603.65094,545.659973,602.507141,545.953125,601.304688C546.07843,600.795166,546.128113,600.269653,546.09375,599.746094L546.046875,599.40625C546.001221,599.202881,545.92865,599.006897,545.835938,598.820313L545.671875,598.574219L545.464844,598.371094L545.210938,598.210938L545.070313,598.144531C544.846863,598.064331,544.612244,598.019958,544.375,598.011719L544.167969,598.011719C544.016479,598.021179,543.865417,598.035645,543.714844,598.054688C544.020508,598.01001,544.321228,597.936523,544.613281,597.835938L545.042969,597.667969C545.613403,597.412109,546.14502,597.077087,546.621094,596.671875C547.254639,596.125427,547.817444,595.502075,548.296875,594.816406C548.708191,594.234741,549.075989,593.623535,549.398438,592.988281L549.871094,592L550.292969,590.980469L550.660156,589.945313C550.878784,589.268005,551.071594,588.582581,551.238281,587.890625C551.389221,587.247681,551.512817,586.598633,551.609375,585.945313C551.651001,585.649292,551.686646,585.352295,551.714844,585.054688C552.599243,583.862183,553.403259,582.612061,554.121094,581.3125C555.380737,579.076599,556.459412,576.743591,557.347656,574.335938C557.821289,573.060303,558.197327,571.750549,558.472656,570.417969C558.600769,569.781677,558.679993,569.136597,558.710938,568.488281L558.714844,568.054688L562.714844,565.054688C562.915344,564.41156,563.15509,563.781311,563.433594,563.167969C563.996399,561.872925,564.569885,560.564575,565.140625,559.273438C565.76825,557.866455,566.348022,556.438416,566.878906,554.992188C567.156982,554.239685,567.390442,553.471375,567.578125,552.691406C567.693604,552.241028,567.749878,551.777405,567.746094,551.3125L567.714844,551.054688L567.824219,551.046875L567.949219,550.984375C568.055969,550.894958,568.157104,550.799072,568.25,550.695313C568.616577,550.224609,568.943787,549.724548,569.226563,549.199219C569.816223,548.1474,570.371155,547.076477,570.890625,545.988281C571.665161,544.357605,572.432861,542.726013,573.195313,541.089844C573.353577,540.737549,573.5271,540.392212,573.714844,540.054688L574.003906,540.058594L574.296875,540.03125C574.504272,539.995422,574.708557,539.943237,574.90625,539.871094C575.244141,539.749023,575.566345,539.587097,575.867188,539.390625C576.493958,538.984558,577.079651,538.518494,577.617188,538C578.598816,537.053162,579.526062,536.051575,580.394531,535C581.825195,533.272583,583.22644,531.521057,584.597656,529.746094C585.297363,528.852051,586.010742,527.94519,586.714844,527.054688C587.959717,525.470398,589.009094,523.741882,589.839844,521.90625C590.05249,521.448364,590.26416,520.987122,590.472656,520.527344C590.552124,520.369019,590.632629,520.211609,590.714844,520.054688C591.323975,518.495117,591.938599,516.937744,592.558594,515.382813C595.209778,508.643677,597.380554,501.725433,599.054688,494.679688C599.540466,492.762268,599.984558,490.835083,600.386719,488.898438C600.709961,487.217957,600.983398,485.528656,601.207031,483.832031C601.98407,477.967834,602.811218,472.107361,603.6875,466.257813C603.7005,466.109009,603.731506,465.962463,603.777344,465.820313C604.208435,464.27594,604.486206,462.692719,604.605469,461.09375C604.659729,460.415131,604.696045,459.735199,604.714844,459.054688C604.781128,456.724579,604.692322,454.392609,604.449219,452.074219C604.164917,449.430573,603.737305,446.804321,603.167969,444.207031C603.01062,443.491119,602.859497,442.773254,602.714844,442.054688C602.34906,442.07962,601.985107,442.126465,601.625,442.195313C600.608459,442.404297,599.572937,442.507538,598.535156,442.503906C597.577881,442.496338,596.627319,442.344177,595.714844,442.054688C595.245789,441.902069,594.78656,441.720886,594.339844,441.511719C593.352905,441.03894,592.429382,440.444122,591.589844,439.742188C591.164673,439.392212,590.755371,439.023407,590.363281,438.636719C589.965576,438.232544,589.564392,437.831329,589.160156,437.433594C589.022095,437.295624,588.873047,437.169037,588.714844,437.054688L588.652344,436.945313C588.368347,436.529175,588.073975,436.120209,587.769531,435.71875C587.150818,434.902161,586.585754,434.046173,586.078125,433.15625C585.934753,432.897278,585.803955,432.6315,585.6875,432.359375C585.51062,431.974976,585.394958,431.565033,585.347656,431.144531C585.326965,430.939636,585.348206,430.732758,585.40625,430.535156C585.449463,430.415741,585.508362,430.302643,585.582031,430.199219L585.714844,430.054688C585.937012,429.898041,586.186523,429.78479,586.449219,429.714844C587.312683,429.459717,588.19043,429.256073,589.078125,429.105469C592.033142,428.583221,595.008301,428.181824,597.996094,427.902344L598.210938,427.886719C597.784729,427.716339,597.333435,427.61731,596.875,427.59375C596.392761,427.570099,595.903931,427.545135,595.421875,427.519531C594.494385,427.452972,593.592163,427.186279,592.777344,426.738281C592.407288,426.536072,592.052368,426.307434,591.714844,426.054688C590.414856,425.069336,589.280945,423.882324,588.355469,422.539063C587.894958,421.862274,587.450928,421.174713,587.023438,420.476563C586.927185,420.331238,586.824097,420.190552,586.714844,420.054688L586.875,416.472656C586.677246,416.247101,586.510193,415.996307,586.378906,415.726563C586.282166,415.527222,586.236084,415.307495,586.238281,415.085938C586.247009,414.99057,586.267883,414.897064,586.292969,414.804688L586.347656,414.675781C586.395264,414.589233,586.450806,414.507416,586.511719,414.429688C586.766296,414.164551,587.075989,413.958954,587.417969,413.824219C587.971985,413.60202,588.548279,413.439911,589.136719,413.339844C590.250977,413.153107,591.375366,413.032959,592.503906,412.980469C594.113403,412.902954,595.724792,412.878235,597.335938,412.90625M501.777344,666.988281L501.054688,667.023438C500.593994,667.059509,500.135803,667.123535,499.683594,667.21875C499.238647,667.303833,498.805786,667.442871,498.394531,667.632813L498.105469,667.800781C497.983459,667.892212,497.871613,667.996155,497.769531,668.109375C497.679504,668.230896,497.606415,668.364319,497.558594,668.507813C497.506256,668.673035,497.483795,668.84613,497.484375,669.019531C497.47403,669.143127,497.48407,669.267883,497.519531,669.386719L497.582031,669.539063C497.643372,669.629883,497.710388,669.716675,497.785156,669.796875C498.026459,670.014893,498.273956,670.225891,498.527344,670.429688L498.660156,670.515625C498.77655,670.577698,498.90387,670.61615,499.035156,670.628906L499.152344,670.628906L499.261719,670.609375L499.367188,670.578125L499.5625,670.472656L499.734375,670.332031C499.836182,670.232666,499.923737,670.120056,500,670L500.046875,669.890625C500.088898,669.728821,500.119263,669.56427,500.140625,669.398438L500.179688,669.199219L500.238281,668.992188L500.328125,668.777344L500.453125,668.5625C500.566101,668.411438,500.698395,668.276367,500.84375,668.15625C501.161377,667.923096,501.525269,667.760315,501.910156,667.675781C502.514557,667.53479,503.133301,667.464539,503.753906,667.46875L503.652344,667.339844L503.496094,667.234375L503.292969,667.148438L503.046875,667.085938C502.628998,667.004028,502.202911,666.973145,501.777344,666.988281M537.554688,672.738281L537.429688,672.769531C537.342529,672.797119,537.258606,672.834534,537.183594,672.886719C537.057068,672.968018,536.94104,673.065002,536.84375,673.179688L536.652344,673.441406L536.496094,673.746094L536.390625,674.089844L536.335938,674.460938C536.32196,674.800232,536.381348,675.138,536.507813,675.453125C536.571594,675.591248,536.643921,675.725281,536.722656,675.855469C536.864319,676.070862,537.033936,676.266846,537.230469,676.433594C537.553467,676.714539,537.914734,676.948425,538.304688,677.125C538.855835,677.373901,539.42981,677.569031,540.019531,677.703125C540.297485,677.743774,540.580811,677.727112,540.851563,677.652344C541.284363,677.550842,541.709961,677.420898,542.125,677.261719C542.401794,677.151489,542.660034,677.000183,542.894531,676.816406L543.042969,676.683594L543.167969,676.542969L543.277344,676.390625C543.38031,676.226074,543.456177,676.046448,543.507813,675.859375C543.535706,675.721008,543.559509,675.581787,543.574219,675.441406C543.599304,675.191833,543.593567,674.940308,543.5625,674.691406L543.519531,674.535156L543.449219,674.386719L543.34375,674.25C543.24176,674.150574,543.125671,674.067017,543,674C542.101868,673.523926,541.138306,673.182983,540.140625,672.988281C539.577271,672.890869,539.008545,672.828552,538.4375,672.800781C538.184448,672.78064,537.931946,672.755249,537.679688,672.726563L537.554688,672.738281M529.957031,641.5L529.921875,641.507813L529.890625,641.511719L529.855469,641.519531C528.63916,641.888306,527.410583,642.215454,526.171875,642.5C524.767395,642.824829,523.368347,643.175232,521.976563,643.550781C518.477417,644.519836,515.090088,645.855469,511.871094,647.535156C509.723511,648.672241,507.559937,649.776184,505.378906,650.847656C504.197968,651.436035,503.030884,652.052124,501.878906,652.695313C501.199524,653.093872,500.535004,653.517456,499.886719,653.964844C499.593445,654.175903,499.306824,654.395996,499.027344,654.625L499.011719,654.636719C498.758881,654.839233,498.517059,655.055054,498.285156,655.28125C497.939972,655.048157,497.597504,654.81134,497.257813,654.570313C497.228485,654.554565,497.198151,654.541138,497.167969,654.527344C497.10144,654.51001,497.033234,654.503418,496.964844,654.5C496.930725,654.505066,496.896881,654.51178,496.863281,654.519531C496.831604,654.531494,496.799988,654.543579,496.769531,654.558594C496.730865,654.583374,496.693329,654.60968,496.65625,654.636719C496.638611,654.652222,496.626099,654.671204,496.609375,654.6875C496.57901,654.735229,496.550232,654.783997,496.527344,654.835938C496.515625,654.879639,496.505951,654.923828,496.5,654.96875C496.500732,655.002686,496.50296,655.036499,496.503906,655.070313L496.519531,655.140625L496.542969,655.203125C496.559143,655.233459,496.575745,655.263672,496.59375,655.292969C496.606995,655.31134,496.623291,655.32605,496.636719,655.34375C496.654907,655.358032,496.670807,655.374695,496.6875,655.390625C496.984558,655.600952,497.284241,655.808167,497.585938,656.011719C496.732422,656.977417,496.085052,658.1073,495.683594,659.332031L495.523438,659.851563C495.509491,659.894531,495.501984,659.93927,495.5,659.984375C495.501709,660.01825,495.504333,660.052246,495.507813,660.085938C495.512726,660.108276,495.518158,660.130066,495.523438,660.152344C495.54187,660.193237,495.560608,660.234009,495.582031,660.273438C495.611847,660.308594,495.639923,660.345154,495.671875,660.378906C495.718597,660.41217,495.768097,660.44104,495.820313,660.464844C495.85257,660.475708,495.885559,660.482666,495.917969,660.492188C495.951447,660.498291,495.985504,660.500427,496.019531,660.5C496.064575,660.49762,496.109192,660.489746,496.152344,660.476563C496.175323,660.468933,496.196442,660.457947,496.21875,660.449219C496.257385,660.425781,496.2966,660.403442,496.332031,660.375C496.364685,660.342102,496.393433,660.305908,496.421875,660.269531C496.443176,660.23053,496.459412,660.189331,496.476563,660.148438C496.736023,659.20697,497.145203,658.313477,497.691406,657.503906C498.14682,656.844116,498.682159,656.243164,499.285156,655.714844C499.939514,655.145569,500.638245,654.629517,501.375,654.171875C501.87146,653.8526,502.381073,653.55426,502.902344,653.277344C504.298309,652.511353,505.713074,651.779297,507.144531,651.082031C508.885925,650.226807,510.611267,649.340088,512.320313,648.421875C513.965271,647.578979,515.649414,646.815186,517.367188,646.132813C519.316711,645.377014,521.309875,644.739075,523.335938,644.222656C524.675903,643.884155,526.018433,643.55603,527.363281,643.238281C527.98822,643.086731,528.610657,642.925232,529.230469,642.753906C529.533081,642.655884,529.837708,642.564514,530.144531,642.480469C530.20697,642.455261,530.266113,642.422852,530.320313,642.382813C530.344604,642.360229,530.368042,642.336853,530.390625,642.3125C530.404053,642.293091,530.416748,642.273621,530.429688,642.253906C530.440186,642.234436,530.450073,642.214661,530.460938,642.195313C530.47522,642.151733,530.487915,642.107727,530.496094,642.0625C530.496826,642.016968,530.497803,641.971436,530.496094,641.925781C530.49054,641.903625,530.486145,641.881531,530.480469,641.859375C530.470398,641.825623,530.455505,641.793823,530.441406,641.761719C530.414795,641.724731,530.388245,641.687683,530.359375,641.652344C530.342651,641.636536,530.326233,641.620361,530.308594,641.605469C530.28009,641.58667,530.25177,641.568665,530.222656,641.550781C530.179565,641.53656,530.137634,641.519653,530.09375,641.507813C530.048279,641.503357,530.002747,641.5,529.957031,641.5M555.5,646.765625L555.5,660.066406L559.488281,675.023438L557.507813,685.910156L558.492188,686.089844L560.511719,674.980469L556.5,659.929688L556.5,647.234375L562.148438,642.527344L568.832031,643.480469L584.691406,652.402344L588.644531,656.355469L589.355469,655.644531L585.304688,651.597656L569.164063,642.519531L561.851563,641.472656L555.5,646.765625"/>
</svg>
