<?xml version="1.0" encoding="UTF-8"?>
<svg xmlns="http://www.w3.org/2000/svg" width="314.328mm" height="316.500mm" viewBox="-689.325623 -912.098206 314.327942 316.500427">
    <path transform="matrix(-1,0,0,-1,0,0)" style="stroke:#000000;stroke-width:0.05mm;fill:none" d="M480.155426,667.241882C479.89978,663.086548,479.610565,659.158691,479.717682,654.899475C479.96521,645.056274,481.250732,637.834167,484.162292,629.929321C485.198456,627.11615,487.974609,621.332214,488.496643,620.898926C488.71106,620.721008,488.886475,620.432861,488.886475,620.258606C488.886475,620.084351,489.275818,619.473938,489.751709,618.9021C490.22757,618.330322,490.967224,617.343201,491.395416,616.708618C492.493073,615.081726,496.033447,611.858704,498.609161,610.141479C510.035645,602.523376,529.434631,604.033752,544.17749,613.68927C547.304626,615.737366,551.827087,619.521118,553.875244,621.80304L555.239746,623.323242L556.347656,622.623779C559.781189,620.456299,565.269287,618.020874,569.450378,616.809204C577.069946,614.601135,586.268921,614.208862,593.858765,615.768372C598.813477,616.786377,604.425049,619.055481,608.19519,621.565491C610.438049,623.058655,613.882568,626.611511,615.46991,629.068848C624.436523,642.950378,624.056763,666.09259,614.499146,688.232788C611.733765,694.638916,608.572937,700.274719,604.595459,705.891541C603.384827,707.601196,602.422485,709,602.457031,709C602.491577,709,604.088989,708.471313,606.006775,707.825134C620.547852,702.925659,635.479004,701.384033,649.538086,703.330383C661.307312,704.959778,671.127563,708.839233,678.428345,714.743347C680.665161,716.552307,684.075073,720.520813,685.435425,722.898438C690.089722,731.033081,690.609802,743.547974,686.772583,755.074829C684.197998,762.808838,680.4021,768.973755,674.402466,775.165405L671.426392,778.236694L672.783691,780.589233C674.736328,783.973633,675.999084,786.798035,677.224365,790.521729C678.313416,793.831299,678.492188,794.550171,679.287231,798.814819C679.842407,801.792603,679.909912,810.996704,679.39978,814.158752C678.367798,820.555908,676.057373,826.711243,672.959106,831.31781C669.859741,835.926025,664.168579,839.980835,657.669556,842.211304C649.332397,845.072632,638.301697,845.632874,627.37854,843.749939C613.66272,841.38562,598.348145,834.815796,587.587769,826.680054C586.655212,825.974976,585.852905,825.4375,585.80481,825.485535C585.756714,825.533569,586.25592,827.171387,586.914124,829.125122C589.025879,835.393494,590.461487,841.494873,591.455078,848.424927C591.83844,851.098572,591.92572,853.432007,591.914856,860.719604C591.902039,869.324707,591.869751,869.896606,591.168945,873.924316C589.830872,881.614563,588.345886,886.486145,585.597717,892.20105C580.399658,903.010681,573.177368,909.309937,563.59082,911.395386C560.221191,912.128418,551.915894,912.33905,548.270996,911.783813C537.057678,910.075928,525.969727,904.329468,518.467468,896.337891L516.549561,894.294922L514.292114,895.602539C505.071472,900.943726,494.104797,903.524475,484.222412,902.678833C478.288635,902.171021,471.628632,900.398682,467.142944,898.133667C457.789032,893.410522,452.302429,884.689209,450.345947,871.433838C449.801636,867.746094,449.744019,858.53894,450.241638,854.767212C452.073608,840.881958,456.700073,828.117188,464.339508,815.870117C465.254364,814.403503,466.746918,812.196716,467.656311,810.966187C468.565704,809.735657,469.309753,808.685181,469.309753,808.631775C469.309753,808.578369,468.208557,808.938477,466.862671,809.431946C461.005829,811.579346,452.874207,813.532349,445.973206,814.448914C441.020569,815.10675,430.218903,815.238892,425.129852,814.703918C403.789764,812.460632,388.270691,802.960327,384.049347,789.555542C382.82962,785.682373,382.452271,782.230591,382.617706,776.460327C382.847992,768.429321,384.225494,763.046509,387.981506,755.500427C390.439087,750.563049,393.384033,746.543701,397.940399,741.908264L400.308533,739.499023L398.881073,737.014038C395.641571,731.374512,393.706604,725.995544,392.419952,719.052917C391.760986,715.497192,391.762268,706.483154,392.422241,702.783081C394.337036,692.047974,398.994141,683.897339,405.686066,679.569336C415.404663,673.283875,428.253906,671.340759,443.648376,673.828552C454.219696,675.536926,466.655853,680.018372,475.328278,685.244629C475.801147,685.529541,476.188049,685.691162,476.188049,685.603638C476.188049,685.256226,467.756348,676.222412,461.506287,669.873413C438.17984,646.177856,421.05127,635.505066,401.849426,632.701172C400.321655,632.478027,396.259705,632.173035,392.822845,632.023376C383.693878,631.625732,380.563202,630.947144,378.920044,629.009766C377.983124,627.90509,376.078491,623.84082,375.493683,621.698425C374.822662,619.240051,374.834564,613.726807,375.51593,611.380981C376.245819,608.868103,376.85434,607.543152,378.226624,605.478943C381.195496,601.013123,385.687042,597.882507,391.664246,596.112854C394.213165,595.358215,400.461823,595.445374,403.569,596.278931C409.588715,597.89386,417.360321,601.890503,423.760498,606.662598C433.39212,613.844177,447.985443,623.564697,458,637C459.464142,638.964233,477.336853,662.936401,480.155426,667.241882z"/>
</svg>
