<?xml version="1.0" encoding="UTF-8"?>
<svg xmlns="http://www.w3.org/2000/svg" width="579.240mm" height="382.481mm" viewBox="-1204.117798 -827.948608 579.239624 382.481171">
    <path transform="matrix(-0.968686,0,0,-0.968686,-586.868896,-404.795685)" style="stroke:#000000;stroke-width:0.05mm;fill:none" d="M105.336891,435.123749C102.392197,433.745758,100.132973,431.548553,97.617516,427.616241C95.661568,424.558624,92.174644,420.690277,89.86879,419.019897C87.562935,417.349548,85.067276,415.113373,84.322876,414.050568C82.986076,412.142029,82.898811,412.142578,77.234711,414.094574C64.253006,418.56839,42.540455,420.561066,40.009098,417.510956C38.264084,415.408356,39.490459,409.961884,43.503044,401.993958C49.015221,391.048218,55.72961,387.437927,69.131302,388.213745L77,388.66925L77,385.290131C77,383.431641,76.277573,379.035034,75.394615,375.519958C73.903664,369.584442,73.909828,368.892609,75.481094,365.814423C77.718323,361.431641,78.545395,352.182587,77.093483,347.783264C75.927498,344.250275,70.479767,336.371918,65.161423,330.527466C58.958675,323.711121,58.707489,322.917511,60.528458,315.890198C62.728981,307.398071,64.380569,304.481171,67.702843,303.219299C72.166191,301.524017,80.199112,300.910797,85.346329,301.872375C89.108253,302.575195,91.388397,302.352661,96.298676,300.803558C105.381393,297.93808,113.721046,298.615112,118.668739,302.619598L122.411858,305.64917L127.69368,297.236206C133.224335,288.42691,144.525925,273.911041,153.406357,264.210632C168.459671,247.767334,169.274551,246.470444,174.830948,230.112885C181.907471,209.280228,184.10614,204.934616,190.115509,199.90329C193.018433,197.472824,195.790039,194.065964,196.685928,191.826935C197.538162,189.697006,200.008804,186.436386,202.176239,184.581146C208.305038,179.335114,214.226318,178.349258,226.094696,180.598877L228.689377,181.090683L229.29541,162.795349C229.761993,148.70961,230.382584,142.774307,231.992599,137C237.004242,119.025688,237.05896,103.968094,232.157043,91.743507C228.773483,83.30545,223.96312,74.869637,219.880936,70.215202C218.069138,68.149429,217,65.811058,217,63.914177C217,59.25259,221.946869,57.579674,233.5,58.334263C245.887894,59.143372,250.189514,60.746262,251.631989,65.090691C252.591476,67.980438,253.236725,68.505188,255.866058,68.534065C260.132538,68.58091,261.102814,69.879036,262.524017,77.441925C263.513214,82.705757,263.495605,85.982208,262.434265,94.143379C261.708069,99.727509,260.830444,108.842163,260.483978,114.39817C259.888947,123.940865,260.025757,124.998146,262.955872,133.5C267.392822,146.374039,268.990479,153.928421,270.040771,167C271.189697,181.299438,271.953735,186.146622,272.960663,185.524307C274.495941,184.575455,279.989685,151.518753,279.995972,143.191559C279.998199,140.271912,279.50769,134.710083,278.905975,130.83194C277.913269,124.433754,278.017822,123.216125,280.035217,117.683296C282.067352,112.109909,282.213501,110.335815,281.735443,97.042908C281.15509,80.906555,279.287628,72.992294,274.149597,64.8946C270.746033,59.530453,269.117798,50.967461,271.180878,49.281834C273.480804,47.402695,283.174225,44.999794,288.431488,45.005577C296.145203,45.014065,300.825195,46.664234,302.924164,50.115711C304.337219,52.439274,304.877716,52.761044,305.340759,51.554344C306.472595,48.604881,308.804901,49.871017,309.385345,53.75C311.140106,65.476852,311.196198,67.058662,309.912292,68.605698C308.91391,69.808678,308.60144,75.196098,308.622406,90.846611C308.647827,109.846207,308.859283,112.300735,311.263031,121.5C314.688385,134.608902,319.370178,159.232971,321.530121,175.5C322.479523,182.649994,323.403137,189.045914,323.582611,189.713135C323.798676,190.516388,327.218536,189.388824,333.704468,186.375824C349.396606,179.086166,356.777802,176.980988,369.853668,176.065796C388.314697,174.773682,406.266571,176.38623,419.657471,180.539459C425.794067,182.442764,431.494873,184,432.325928,184C433.156952,184,434.770355,182.489578,435.911285,180.643524C440.004761,174.020187,447.407043,168.173248,454.030029,166.331894C458.417419,165.112091,460.424408,164.013916,460.991302,162.522858C461.827667,160.323029,474.4758,148,475.897308,148C476.350555,148,476.998016,145.664673,477.33606,142.810364C477.674103,139.95607,478.622772,136.948654,479.444214,136.127213C480.768921,134.802505,481.157013,134.832123,482.877502,136.38913C483.944366,137.35463,485.362976,139.462051,486.029938,141.072296C487.132874,143.734985,487.677734,144,492.049377,144L496.856079,144L497.553406,138.25C498.358124,131.614304,499.476227,129,501.509491,129C503.164795,129,505.441406,133.024689,506.459015,137.75C506.867035,139.644714,507.778625,141,508.644989,141C511.197479,141,524.286133,147.516586,529,151.134323C531.474976,153.033813,534.128784,154.97319,534.897339,155.444031C536.084961,156.171692,536.204407,152.714493,535.693481,132.400055C534.813965,97.433762,531.987427,82.864685,524.557312,75C520.373596,70.571625,519.280334,66.452682,521.606445,63.882404C523.051575,62.285519,524.782043,62,533.015442,62C541.718872,62,543.101257,62.25811,546.404846,64.5C548.43103,65.875,550.913757,67,551.921936,67C554.878662,67,556.202332,69.337601,555.014587,72.461563C554.313782,74.304909,554.306152,79.360016,554.990662,88.333199C555.543152,95.574936,556.012268,111.625,556.033203,124C556.060669,140.257889,556.477844,148.164566,557.536926,152.5C558.343079,155.800003,559.45697,162.742432,560.012329,167.927643C560.567627,173.112839,561.261902,177.595245,561.555237,177.88855C562.360168,178.693481,566.526978,173.209198,570.002991,166.769806C573.612,160.084045,575.958069,150.079361,575.982666,141.270233C575.992188,137.843872,576.741211,133.188004,577.647156,130.923889C580.131287,124.715302,579.014343,99.952423,575.661865,86.911041C572.814087,75.832779,570.296814,70.576942,562.567932,59.571693C556.640381,51.131283,555.485962,46.50174,558.65332,43.872444C559.784851,42.933121,564.012939,42.388817,572.050964,42.147694C584.674805,41.769005,584.003479,41.554363,589.102966,47.599716C589.984619,48.644871,592.165833,50.291653,593.950073,51.259228C597.183533,53.012634,597.192017,53.03775,596.516907,58.854446C596.144348,62.06424,596.288025,66.447586,596.836182,68.595215C597.384338,70.742851,598.566223,86.900002,599.462585,104.5C601.733154,149.082428,603.579102,170.18663,606.118958,180.600815L608.29895,189.539536L605.58667,197.918213C600.319885,214.187683,598.842896,223.315582,598.291687,243C597.888367,257.404297,598.168396,264.48877,599.556641,275C600.770386,284.190491,601.331055,294.88443,601.312927,308.5C601.287048,327.900787,601.179626,328.949402,597.725769,343.5C595.767517,351.75,593.884583,360.075012,593.541443,362L592.917603,365.5L595.992737,362C601.769775,355.424774,606.661255,334.675629,609.430176,305C613.98291,256.207123,614.354736,249.341736,614.196289,217C614.022583,181.53479,614.774292,173.85611,619.662537,161.160416C625.439819,146.155838,626.953186,141.307785,627.04834,137.5L627.148315,133.5L629.079773,137.5L631.011292,141.5L630.456238,132.5C630.12323,127.100311,630.377014,121.299812,631.090637,118L632.28009,112.5L634.183838,121.5C637.245178,135.972595,637.5849,139.825165,636.917419,152.5C636.176697,166.565353,635.367065,170.668015,628.727661,194L623.747803,211.5L622.889832,256.5C621.092224,350.789001,619.795166,360.781311,605.793701,388.209869C598.017578,403.443115,590.723083,411.017548,579.85022,415.148895C566.079529,420.381378,543.512573,422.419098,530.997375,419.56015C521.062622,417.29068,498.370026,413.144623,489,411.886993C484.875,411.333344,473.549866,409.059296,463.833038,406.833496C440.097595,401.396576,437.084045,401.11319,395,400.361298C341.96875,399.413818,315.645752,401.222321,281.5,408.159271C267.934387,410.915222,265.161224,411.165375,252.5,410.775116C239.226151,410.365997,237.889282,410.130402,226.725586,406.232941C210.856384,400.692657,201.852295,399.217255,193.915131,400.856659C190.583359,401.54483,186.829498,402.576202,185.573242,403.14859L183.289108,404.189301L186.641479,410.844666C188.485275,414.505096,189.995224,418.705597,189.996918,420.179108C189.999741,422.635132,189.521271,422.958344,184.25,424.060791C177.144989,425.546783,167.459412,424.244232,158.060379,420.538757C147.448318,416.355042,145.998871,416.736084,139.455536,425.429718C131.768875,435.642365,130.490097,436.349731,119,436.745056C111.205521,437.013214,108.752602,436.722137,105.336891,435.123749z"/>
</svg>
