<?xml version="1.0" encoding="UTF-8"?>
<svg xmlns="http://www.w3.org/2000/svg" width="296.951mm" height="217.853mm" viewBox="-1326.647339 -581.266907 296.951416 217.852997">
    <path transform="matrix(-1,0,0,-1,0,0)" style="stroke:none;fill:#000000;fill-rule:evenodd" d="M1121.482178,581.266907C1120.827148,581.266907,1120.29126,580.106384,1120.29126,578.687866C1120.29126,577.269409,1121.155151,574.438354,1122.210938,572.396545L1124.130615,568.684204L1122.840088,568.684204C1122.130249,568.684204,1121.549438,567.815002,1121.549438,566.752563C1121.549438,565.690125,1122.447632,563.450195,1123.54541,561.77478C1124.643066,560.099487,1125.217407,558.204773,1124.821533,557.564331C1124.425781,556.923889,1125.482056,554.36615,1127.168823,551.880493L1130.23584,547.361084L1121.803223,550.619995C1117.165405,552.412415,1104.199951,556.935669,1092.991211,560.671692C1081.782471,564.407654,1065.078857,569.371094,1055.872192,571.701599C1046.665649,574.032043,1037.009521,576.313965,1034.414429,576.772461L1029.695923,577.60614L1029.695923,575.418396C1029.695923,574.215088,1032.798096,570.225891,1036.5896,566.553467C1040.381226,562.881042,1042.646118,559.876343,1041.622681,559.876343C1040.599365,559.876343,1039.762085,559.132935,1039.762085,558.224365C1039.762085,557.315796,1041.319092,555.131042,1043.22229,553.369385C1045.125366,551.607727,1048.51123,549.121643,1050.746216,547.844727L1054.809937,545.523071L1053.295776,544.58728L1051.781494,543.651428L1054.648682,540.599426C1056.225708,538.920837,1059.706421,536.559631,1062.383789,535.352356L1067.251587,533.157227L1066.649292,531.587769C1066.318115,530.724548,1067.763306,528.574097,1069.860962,526.809021C1071.95874,525.043945,1075.462646,523.207153,1077.647461,522.727234L1081.619995,521.854736L1079.879639,520.774658L1078.139282,519.69458L1080.996582,516.83075L1083.854004,513.966919L1090.189575,513.958252L1096.525146,513.949585L1093.93811,512.223267C1092.515259,511.273773,1091.351074,510.043701,1091.351074,509.489716C1091.351074,508.93573,1093.370728,507.815918,1095.839355,507.001251C1098.307861,506.186554,1100.011353,505.203857,1099.625,504.817474C1099.238647,504.431091,1099.553101,503.355072,1100.323853,502.426331C1101.094727,501.49762,1103.584717,500.737732,1105.857422,500.737732L1109.989502,500.737732L1109.363159,498.342499L1108.736694,495.947266L1111.682861,495.110413C1113.303223,494.650146,1116.61084,493.377136,1119.032959,492.281494C1121.455078,491.185852,1124.939819,489.526062,1126.776733,488.593079C1128.613647,487.660126,1130.777344,486.89679,1131.585083,486.89679C1132.392822,486.89679,1133.928467,486.021973,1134.997681,484.952789L1136.94165,483.00882L1133.678711,475.738068C1131.884033,471.739166,1129.269043,463.638977,1127.867432,457.73761C1126.465942,451.836304,1124.474365,441.40274,1123.441772,434.551941C1122.40918,427.701141,1121.561035,418.363953,1121.556885,413.802673C1121.552856,409.241394,1122.187134,400.748077,1122.966431,394.92865C1123.745728,389.109222,1124.864136,383.073883,1125.451782,381.516754L1126.520264,378.685669L1129.108521,378.685669L1131.696777,378.685669L1132.784912,381.516754L1133.873047,384.34787L1135.31311,380.573059C1136.105225,378.496918,1137.650024,374.40744,1138.746094,371.485352C1139.842163,368.563263,1141.795288,365.837158,1143.086426,365.427368C1144.377686,365.017578,1146.005371,365.035339,1146.703613,365.466888C1147.401855,365.898407,1147.967651,367.492065,1147.960815,369.008331C1147.954102,370.524597,1146.538574,374.794067,1144.815186,378.496033C1143.091797,382.197998,1141.681763,385.578979,1141.681763,386.009308C1141.681763,386.439636,1145.083374,381.531708,1149.240967,375.102814L1156.800049,363.41391L1159.621704,363.814728L1162.443237,364.215576L1162.395142,367.655884L1162.347168,371.096191L1165.730957,367.854248L1169.114868,364.612274L1171.441284,365.077606L1173.767578,365.542938L1173.718018,368.968628C1173.690796,370.852753,1173.805664,372.394318,1173.973389,372.394318C1174.141113,372.394318,1175.735962,371.730225,1177.517334,370.918518L1180.756348,369.442749L1182.232178,370.918518C1183.043823,371.730225,1185.010254,372.394318,1186.602051,372.394318C1188.193726,372.394318,1189.495972,373.009552,1189.495972,373.761505C1189.495972,374.513428,1186.238525,378.61853,1182.257324,382.883942C1178.276001,387.149353,1173.604614,392.295258,1171.876587,394.319336L1168.734619,397.999451L1174.563232,393.897827L1180.391846,389.796234L1183.062134,390.217712L1185.7323,390.639221L1176.147583,403.851044C1170.875977,411.117554,1164.789551,420.636322,1162.622192,425.003906L1158.681641,432.944946L1161.820679,435.387268C1163.547241,436.73056,1171.666992,442.702423,1179.864868,448.658081C1188.062622,454.613739,1198.747559,463.238892,1203.609131,467.825073C1208.470825,472.411255,1218.059082,483.683136,1224.916504,492.873657C1231.774048,502.064209,1239.609741,511.195587,1242.329224,513.165588C1245.048828,515.13562,1248.992676,517.459412,1251.093506,518.32959L1254.913086,519.911743L1270.962524,513.58667C1279.789551,510.10791,1295.92981,503.565887,1306.82959,499.048828C1317.729248,494.531799,1326.647339,491.094849,1326.647339,491.411163C1326.647339,491.727478,1321.81665,495.135071,1315.912476,498.983643C1310.008301,502.832153,1294.793701,511.030518,1282.102173,517.202148L1259.026733,528.423401L1257.369995,534.340759C1256.45874,537.595337,1253.832764,542.339661,1251.534302,544.883728C1249.23584,547.427856,1244.387451,550.795166,1240.759888,552.36676L1234.164551,555.224182L1228.091431,555.102844C1224.751221,555.036133,1219.178955,554.038452,1215.708496,552.885742C1212.238037,551.733032,1207.430054,549.061462,1205.023926,546.948853C1202.617798,544.836304,1198.997437,539.835815,1196.97876,535.836731C1194.959961,531.837646,1192.350952,528.029907,1191.180908,527.375122L1189.053467,526.184509L1182.744995,533.086975C1179.275269,536.883362,1170.173828,545.373901,1162.519409,551.954956C1154.86499,558.535889,1142.768188,567.823364,1135.637695,572.593628C1128.507202,577.363953,1122.137329,581.266907,1121.482178,581.266907z"/>
</svg>
