<?xml version="1.0" encoding="UTF-8"?>
<svg xmlns="http://www.w3.org/2000/svg" width="172.216mm" height="268.280mm" viewBox="-1506.000000 -596.280029 172.215942 268.280029">
    <path transform="matrix(-1,0,0,-1,0,0)" style="stroke:#000000;stroke-width:0.05mm;fill:none" d="M1506,481.864014C1504.688232,482.912811,1503.369141,483.949432,1502.040039,484.976013C1501.182495,485.662415,1500.395996,486.433411,1499.696045,487.279999C1499.183838,487.98468,1498.653076,488.675598,1498.104004,489.35199C1497.795044,489.684174,1497.449707,489.980591,1497.072021,490.231995C1496.740356,490.455048,1496.454346,490.739777,1496.232056,491.071991C1496.215332,491.144592,1496.195557,491.216248,1496.176025,491.287994C1495.925293,491.846924,1495.63916,492.38916,1495.319946,492.911987C1494.951538,493.521423,1494.63562,494.160919,1494.375977,494.824005C1494.243408,495.209778,1494.132324,495.602631,1494.040039,496C1494.004395,496.090271,1493.969482,496.180878,1493.936035,496.272003L1493.887939,496.376007C1493.765503,496.565063,1493.672974,496.771027,1493.599976,496.984009C1493.315796,498.05014,1493.203125,499.154358,1493.264038,500.256012C1493.314819,500.541748,1493.368164,500.827209,1493.42395,501.112L1493.439941,501.328003C1493.429565,502.10083,1493.213745,502.857239,1492.81604,503.519989C1492.521851,504.042542,1492.201416,504.549896,1491.855957,505.040009C1491.582642,505.464966,1491.398438,505.940796,1491.319946,506.440002L1491.312012,506.575989C1491.308472,506.650116,1491.322876,506.723785,1491.352051,506.791992L1491.391968,506.880005L1491.447998,506.944C1491.496094,506.973145,1491.543335,507.003723,1491.592041,507.032013L1491.640015,507.079987L1491.66394,507.127991L1491.656006,507.191986C1491.622803,507.243805,1491.593262,507.297424,1491.552002,507.343994C1491.422241,507.464783,1491.29126,507.58493,1491.160034,507.70401C1491.121338,507.74826,1491.085449,507.7948,1491.047974,507.839996C1491.040283,507.870453,1491.024292,507.896454,1491.015991,507.928009L1491.031982,507.951996C1491.067261,507.963898,1491.103149,507.972687,1491.135986,507.992004C1491.130615,508.018524,1491.129761,508.045319,1491.119995,508.071991C1491.049805,508.164001,1490.966431,508.245148,1490.871948,508.312012L1490.751953,508.415985L1490.66394,508.528015L1490.592041,508.640015C1490.569946,508.722595,1490.550049,508.805573,1490.527954,508.888L1490.52002,509.015991L1490.543945,509.144012L1490.583984,509.264008L1490.640015,509.391998C1490.726685,509.509247,1490.822266,509.619415,1490.927979,509.720001C1491.017334,509.784943,1491.112061,509.841522,1491.208008,509.895996C1491.400879,509.98233,1491.602539,510.046661,1491.807983,510.096008L1491.911987,510.135986L1492.008057,510.167999C1492.071655,510.213593,1492.137329,510.256012,1492.199951,510.303986C1492.22644,510.345306,1492.249146,510.388702,1492.271973,510.432007C1492.328125,510.654144,1492.335815,510.885132,1492.303955,511.112C1492.276245,511.527344,1492.189819,511.936646,1492.047974,512.328003C1491.959595,512.538818,1491.839478,512.734192,1491.696045,512.911987L1491.608032,513.080017C1491.591064,513.126831,1491.584839,513.175537,1491.57605,513.223999C1491.593628,513.27771,1491.613281,513.330627,1491.631958,513.383972C1491.616455,513.469055,1491.592163,513.551819,1491.560059,513.632019C1491.15271,514.449341,1490.613159,515.193726,1489.959961,515.83197L1489.823975,515.935974C1489.751465,515.97229,1489.679565,516.009705,1489.608032,516.047974C1489.552856,516.085327,1489.505127,516.131775,1489.463989,516.184021L1489.42395,516.271973C1489.388062,516.391296,1489.386597,516.517334,1489.407959,516.640015C1489.432251,516.757263,1489.456787,516.874512,1489.47998,516.992004L1489.47998,517.151978L1489.447998,517.296021L1489.375977,517.432007C1489.124634,517.689758,1488.826538,517.895935,1488.504028,518.05603L1488.23999,518.208008C1487.910645,518.395691,1487.601563,518.617554,1487.328003,518.880005C1487.255737,518.956177,1487.195435,519.041748,1487.135986,519.127991L1487.072021,519.255981C1487.042847,519.34198,1487.024048,519.430786,1487.008057,519.52002C1487.008789,519.719727,1487.062012,519.914001,1487.144043,520.096008C1487.291748,520.350037,1487.391479,520.628784,1487.432007,520.919983L1487.416016,521.007996L1487.391968,521.080017C1487.330078,521.146545,1487.264282,521.208496,1487.208008,521.280029C1486.929199,521.687866,1486.690063,522.121704,1486.495972,522.575989C1486.442505,522.652344,1486.397095,522.734009,1486.352051,522.815979L1486.192017,523.007996L1486,523.176025C1485.782349,523.322815,1485.546509,523.44165,1485.296021,523.52002C1484.682495,523.697937,1484.078613,523.908386,1483.488037,524.151978C1483.345581,524.219055,1483.204468,524.289001,1483.063965,524.359985C1482.986938,524.416077,1482.908081,524.469666,1482.832031,524.528015C1482.772583,524.582214,1482.705811,524.626343,1482.640015,524.671997C1482.469604,524.75769,1482.29541,524.835754,1482.112061,524.888C1481.703369,524.984558,1481.29248,525.072937,1480.880005,525.151978C1480.820801,525.170471,1480.760742,525.182007,1480.703979,525.208008L1480.640015,525.23999C1480.594849,525.269714,1480.558716,525.308472,1480.527954,525.35199C1480.522949,525.384094,1480.523193,525.416077,1480.52002,525.447998C1480.558716,525.585571,1480.620972,525.71405,1480.687988,525.840027C1480.714844,525.904846,1480.736084,525.97168,1480.751953,526.039978L1480.751953,526.104004L1480.728027,526.151978L1480.671997,526.184021C1480.536377,526.203186,1480.400269,526.218567,1480.264038,526.231995C1480.208252,526.256409,1480.151367,526.278015,1480.095947,526.304016C1480.057617,526.334839,1480.022827,526.369751,1479.991943,526.40802C1479.977173,526.457764,1479.964844,526.508179,1479.959961,526.559998L1479.959961,526.64801C1479.975952,526.713745,1479.995361,526.778625,1480.024048,526.840027C1480.143555,527.06604,1480.290283,527.276245,1480.463989,527.463989C1480.799316,527.809937,1481.080444,528.2052,1481.287964,528.640015C1481.29895,528.706543,1481.297241,528.773254,1481.296021,528.840027L1481.271973,528.952026L1481.223999,529.072021C1481.114868,529.3526,1480.941406,529.603943,1480.719971,529.807983L1480.504028,530L1480.391968,530.072021C1480.321411,530.100769,1480.253662,530.135864,1480.18396,530.16803C1480.132813,530.172729,1480.081909,530.179688,1480.031982,530.192017C1480.005371,530.229431,1479.985962,530.270386,1479.968018,530.312012L1479.94397,530.40802L1479.936035,530.52002C1479.945068,530.730103,1479.967285,530.939514,1480.015991,531.143982C1480.027344,531.25824,1480.029053,531.37323,1480.024048,531.487976L1480.008057,531.64801C1479.990967,531.744934,1479.970947,531.841248,1479.94397,531.935974C1479.901123,532.006348,1479.861572,532.078613,1479.823975,532.151978C1479.777344,532.220215,1479.737305,532.292419,1479.703979,532.367981C1479.675415,532.459656,1479.657227,532.553711,1479.640015,532.64801L1479.624023,532.807983C1479.644531,533.10321,1479.682617,533.396912,1479.735962,533.687988C1479.737915,533.77356,1479.734253,533.858765,1479.735962,533.94397C1479.713745,534.046753,1479.668823,534.143982,1479.592041,534.216003C1479.518677,534.279358,1479.447876,534.344971,1479.368042,534.400024C1479.295532,534.444641,1479.223633,534.48999,1479.151978,534.536011C1478.87561,534.657837,1478.623047,534.82782,1478.407959,535.039978C1478.375366,535.091553,1478.347046,535.145508,1478.319946,535.200012C1478.30188,535.266235,1478.286621,535.333069,1478.271973,535.400024C1478.27771,535.873718,1478.312866,536.346497,1478.375977,536.815979C1478.433228,537.349915,1478.375488,537.889832,1478.208008,538.400024C1478.139771,538.563599,1478.054443,538.719421,1477.952026,538.864014C1477.738525,539.133911,1477.481567,539.36615,1477.192017,539.552002L1476.887939,539.719971C1476.615723,539.87793,1476.306641,539.959351,1475.991943,539.968018L1475.855957,539.992004L1475.719971,540.064026L1475.608032,540.184021L1475.511963,540.343994C1475.445923,540.475891,1475.401855,540.616699,1475.368042,540.76001C1475.335449,540.934143,1475.318359,541.11084,1475.319946,541.288025L1475.303955,541.40802C1475.277588,541.491089,1475.230713,541.564636,1475.176025,541.632019L1475.072021,541.736023C1474.974609,541.810242,1474.86792,541.870239,1474.76001,541.927979C1474.483521,542.041077,1474.203369,542.145264,1473.920044,542.23999C1473.52478,542.393921,1473.15625,542.608337,1472.823975,542.872009C1472.754272,542.935669,1472.688843,543.003479,1472.624023,543.072021C1472.576172,543.134216,1472.529297,543.197205,1472.488037,543.263977C1472.460205,543.326538,1472.431641,543.388733,1472.416016,543.455994C1472.42395,543.56189,1472.395264,543.666687,1472.343994,543.76001C1472.290283,543.825989,1472.22998,543.885986,1472.167969,543.94397C1472.088867,543.986267,1472.011597,544.031799,1471.936035,544.080017C1471.874268,544.155945,1471.818848,544.236511,1471.767944,544.320007L1471.696045,544.495972C1471.555542,544.911011,1471.459473,545.339966,1471.416016,545.776001C1471.339966,546.258057,1471.165405,546.718933,1470.911987,547.135986C1470.729858,547.312988,1470.574707,547.515869,1470.447998,547.736023C1470.185913,548.173828,1469.963135,548.634155,1469.784058,549.112C1469.419312,550.055908,1469.041626,551.038269,1468.680054,551.984009C1468.464722,552.572083,1468.177979,553.13147,1467.823975,553.64801C1467.786377,553.69574,1467.748657,553.743591,1467.712036,553.791992C1467.657593,553.846985,1467.600952,553.899475,1467.552002,553.960022C1467.046265,554.694519,1466.630249,555.486938,1466.312012,556.320007C1466.145996,556.688965,1465.961548,557.049255,1465.76001,557.400024C1465.699341,557.487915,1465.637695,557.575012,1465.567993,557.656006L1465.527954,557.679993C1465.501099,557.690491,1465.474365,557.700378,1465.447998,557.711975C1465.295654,557.848083,1465.163452,558.005554,1465.063965,558.184021C1464.692871,558.857727,1464.314575,559.527161,1463.927979,560.192017C1463.137329,561.510376,1462.240601,562.762146,1461.248047,563.935974C1460.499878,564.767334,1459.811157,565.650024,1459.18396,566.575989C1457.391113,569.106323,1455.643677,571.669983,1453.94397,574.263977C1452.589355,576.571716,1451.360962,578.951294,1450.264038,581.392029C1449.555664,582.920349,1448.915039,584.479248,1448.343994,586.064026C1448.075317,586.737,1447.766846,587.393555,1447.42395,588.031982C1446.584106,589.94989,1445.768188,591.877869,1444.975952,593.815979C1444.724976,594.468384,1444.417603,595.097839,1444.05603,595.695984C1443.944824,595.839539,1443.806763,595.959778,1443.647949,596.047974L1443.527954,596.096008C1443.135498,596.198792,1442.733032,596.257568,1442.328003,596.280029C1441.904907,596.211731,1441.480469,596.147644,1441.05603,596.088013L1440.871948,596.039978C1440.77478,595.999634,1440.681763,595.950745,1440.592041,595.895996C1440.524292,595.825867,1440.46582,595.747681,1440.416016,595.664001C1440.292114,595.213806,1440.193359,594.757141,1440.119995,594.296021C1439.804321,592.671021,1439.499756,591.082581,1439.192017,589.455994C1438.656494,586.284485,1438.25061,583.09259,1437.975952,579.888L1437.920044,579.320007C1437.704102,576.691528,1437.473877,574.050537,1437.232056,571.424011C1437.134155,570.402222,1437.008545,569.383118,1436.855957,568.367981C1436.649292,566.30188,1436.528931,564.228088,1436.495972,562.151978C1436.436401,560.709351,1436.383545,559.28241,1436.33606,557.840027C1436.341431,556.676392,1436.479126,555.517029,1436.744019,554.383972C1436.771729,554.251343,1436.796509,554.118103,1436.81604,553.984009C1436.894043,553.615356,1436.904053,553.235291,1436.839966,552.864014L1436.776001,552.632019C1436.678833,552.407166,1436.602295,552.17395,1436.543945,551.935974L1436.504028,551.695984C1436.485962,551.093994,1436.543335,550.49231,1436.671997,549.903992C1436.928589,547.921021,1437.08606,545.926636,1437.144043,543.927979C1437.217041,542.385376,1437.294189,540.845947,1437.375977,539.304016C1437.379761,539.130676,1437.375732,538.957214,1437.368042,538.783997C1437.356689,538.522461,1437.307739,538.263977,1437.223999,538.015991L1437.112061,537.823975C1436.994263,537.427368,1436.968262,537.009888,1437.024048,536.599976C1437.099854,536.177795,1437.129517,535.748596,1437.112061,535.320007C1437.082764,535.238831,1437.057373,535.156311,1437.040039,535.072021C1436.939087,534.93866,1436.817993,534.822693,1436.680054,534.728027C1436.581055,534.665161,1436.474854,534.615967,1436.368042,534.567993L1436.232056,534.552002C1436.137939,534.565613,1436.046021,534.590881,1435.959961,534.632019L1435.800049,534.744019C1435.424438,535.074158,1435.062988,535.420166,1434.719971,535.783997C1434.181763,536.328552,1433.610962,536.839966,1433.008057,537.312012C1432.924927,537.360474,1432.845825,537.415283,1432.767944,537.471985C1432.702148,537.503235,1432.63501,537.531372,1432.567993,537.559998C1432.453613,537.578308,1432.338989,537.594849,1432.223999,537.607971L1432.135986,537.64801C1432.08667,537.683899,1432.040161,537.723083,1431.991943,537.76001C1431.955566,537.817627,1431.922974,537.876465,1431.880005,537.927979C1431.843506,538.005432,1431.819336,538.087097,1431.791992,538.16803C1431.685059,538.713196,1431.639893,539.268616,1431.656006,539.823975C1431.638428,540.124817,1431.568604,540.419739,1431.447998,540.695984C1431.389893,540.804077,1431.313965,540.901855,1431.215942,540.976013C1431.159302,541.004395,1431.101807,541.03125,1431.040039,541.047974L1430.952026,541.039978L1430.855957,541.007996L1430.767944,540.94397L1430.671997,540.856018C1430.553223,540.684204,1430.460938,540.49585,1430.400024,540.296021C1430.349487,540.124512,1430.327271,539.946594,1430.319946,539.768005C1430.269409,539.045471,1430.446533,538.325134,1430.832031,537.711975L1430.968018,537.544006L1431.112061,537.424011L1431.271973,537.343994C1431.344482,537.332397,1431.415283,537.322205,1431.488037,537.312012C1431.515015,537.288574,1431.543213,537.266602,1431.567993,537.23999C1431.596069,537.174927,1431.625,537.110291,1431.640015,537.039978C1431.588257,536.366882,1431.681519,535.690552,1431.911987,535.05603C1431.966675,534.898804,1432.026367,534.743286,1432.095947,534.59198C1432.148682,534.469666,1432.234619,534.363953,1432.343994,534.288025C1432.349854,534.269592,1432.357788,534.252014,1432.359985,534.231995L1432.328003,534.223999C1432.255493,534.218384,1432.183228,534.230896,1432.112061,534.247986C1432.02417,534.27002,1431.935669,534.289307,1431.848022,534.312012L1431.712036,534.328003C1431.610229,534.318115,1431.510864,534.294373,1431.416016,534.255981C1431.374756,534.207092,1431.329224,534.162109,1431.287964,534.112C1431.262451,534.047241,1431.245117,533.980103,1431.232056,533.911987L1431.223999,533.783997C1431.224609,533.681091,1431.244751,533.58075,1431.264038,533.47998C1431.355713,533.143799,1431.478027,532.81665,1431.631958,532.504028C1431.775513,532.162415,1431.84375,531.794189,1431.823975,531.424011C1431.806885,531.362122,1431.786865,531.30127,1431.767944,531.23999C1431.633057,530.269775,1431.563843,529.291504,1431.560059,528.312012C1431.558472,527.037781,1431.497314,525.764404,1431.375977,524.495972C1431.364136,524.360168,1431.334961,524.226624,1431.296021,524.096008C1431.272217,524.056335,1431.241699,524.022461,1431.215942,523.984009C1430.292236,523.006775,1429.259155,522.139465,1428.135986,521.400024C1428.057129,521.362854,1427.976074,521.33075,1427.895996,521.296021C1427.825317,521.277832,1427.752808,521.269043,1427.680054,521.263977C1427.610352,521.26355,1427.541016,521.270752,1427.472046,521.280029C1427.213867,521.361694,1426.955078,521.441284,1426.696045,521.52002L1426.552002,521.544006L1426.439941,521.528015L1426.343994,521.47998C1426.294312,521.411316,1426.249146,521.340149,1426.199951,521.271973C1426.103149,521.012573,1425.965942,520.77124,1425.807983,520.544006C1425.641479,520.309082,1425.445313,520.097351,1425.232056,519.903992L1425.128052,519.776001C1424.932129,519.533997,1424.817871,519.237549,1424.784058,518.927979C1424.778564,518.852417,1424.772827,518.776978,1424.751953,518.703979C1424.574219,518.198792,1424.331177,517.71875,1424.024048,517.280029C1423.309326,516.138184,1422.45459,515.089905,1421.47998,514.159973L1421.343994,514.047974L1421.215942,513.952026C1421.11499,513.890564,1421.011963,513.83252,1420.904053,513.783997C1420.840088,513.778259,1420.776001,513.773438,1420.712036,513.768005C1420.617065,513.754211,1420.524292,513.729858,1420.432007,513.703979C1420.025269,513.590271,1419.633789,513.427979,1419.264038,513.223999C1419.106323,513.164429,1418.950195,513.106262,1418.791992,513.047974C1418.67395,513.032227,1418.556763,513.008972,1418.439941,512.984009C1418.119629,512.933594,1417.813599,512.81604,1417.536011,512.64801C1416.67041,512.148682,1415.742432,511.766449,1414.776001,511.511993C1413.770874,511.275421,1412.860107,510.743591,1412.151978,509.992004C1410.862183,508.706512,1409.511353,507.483643,1408.104004,506.328003C1407.215454,505.642242,1406.308472,504.980621,1405.384033,504.343994C1405.021973,504.098541,1404.677734,503.827942,1404.352051,503.536011C1404.315552,503.492493,1404.280396,503.448029,1404.23999,503.40799C1404.189697,503.370422,1404.133301,503.344757,1404.079956,503.312012C1403.82373,503.228943,1403.557251,503.181335,1403.287964,503.175995C1403.162476,503.154388,1403.043701,503.108612,1402.927979,503.056L1402.744019,502.951996C1402.380005,502.6922,1402.047241,502.390839,1401.76001,502.048004C1401.365601,501.651581,1400.922485,501.306641,1400.439941,501.023987C1400.251709,500.944,1400.06665,500.856415,1399.895996,500.743988C1399.520874,500.519531,1399.232056,500.174896,1399.072021,499.768005C1399.004883,499.679413,1398.952881,499.580597,1398.904053,499.480011C1398.841675,499.38208,1398.766235,499.293762,1398.687988,499.208008C1398.612427,499.131592,1398.53479,499.05722,1398.456055,498.984009L1398.343994,498.903992C1398.15625,498.790863,1397.98584,498.650604,1397.848022,498.480011C1397.825806,498.422699,1397.805054,498.36499,1397.791992,498.303986C1397.756592,498.196991,1397.718506,498.090942,1397.66394,497.992004C1397.206787,497.245819,1396.669556,496.551697,1396.063965,495.920013C1395.455078,495.224762,1394.786621,494.584045,1394.063965,494.007996C1393.981079,493.947815,1393.898926,493.887024,1393.807983,493.839996C1393.695068,493.78299,1393.582397,493.725647,1393.472046,493.664001C1393.320068,493.547272,1393.188477,493.407745,1393.072021,493.256012C1392.69397,492.662506,1392.414795,492.011627,1392.248047,491.328003C1392.058228,490.634583,1391.916626,489.928925,1391.823975,489.216003C1391.617188,488.308502,1391.318604,487.424469,1390.936035,486.575989C1390.312012,485.107269,1389.604248,483.675537,1388.81604,482.287994C1388.192261,481.350342,1387.470825,480.481659,1386.66394,479.696014C1385.371826,478.348572,1384.012939,477.066864,1382.592041,475.855988L1382.407959,475.70401C1382.143799,475.502289,1381.868774,475.315369,1381.583984,475.144012C1381.277954,474.945679,1380.99939,474.707977,1380.751953,474.440002L1380.57605,474.216003C1380.192017,473.846893,1379.737061,473.559387,1379.23999,473.368011C1378.608154,473.05191,1378.028564,472.641876,1377.511963,472.160004C1376.871338,471.566132,1376.175781,471.034088,1375.432007,470.575989C1375.286377,470.507141,1375.139648,470.44043,1374.991943,470.376007C1374.685425,470.306,1374.389893,470.193756,1374.119995,470.032013C1374.080933,469.996552,1374.041138,469.961975,1374.008057,469.920013C1373.994141,469.876526,1373.978394,469.833832,1373.959961,469.791992C1373.710571,469.509918,1373.422607,469.264587,1373.104004,469.063995C1372.628784,468.765503,1372.169312,468.442657,1371.728027,468.096008C1371.515747,467.931213,1371.321045,467.744843,1371.151978,467.536011C1371.130737,467.498505,1371.106934,467.462799,1371.088013,467.424011C1371.080322,467.351593,1371.070557,467.279419,1371.05603,467.208008C1370.767212,466.311035,1370.395996,465.442871,1369.94397,464.615997C1369.875977,464.505371,1369.798462,464.400909,1369.712036,464.303986L1369.640015,464.231995C1369.586304,464.197357,1369.531128,464.165771,1369.47998,464.127991L1369.400024,464.096008L1369.215942,464.048004C1368.892456,464.061249,1368.56958,464.011292,1368.264038,463.903992C1368.19104,463.868622,1368.118408,463.832336,1368.047974,463.791992L1367.968018,463.727997C1367.910522,463.677673,1367.848877,463.632416,1367.784058,463.59201L1367.687988,463.567993L1367.57605,463.559998L1367.447998,463.575989C1367.154297,463.687408,1366.869385,463.820465,1366.592041,463.967987C1366.505981,463.98172,1366.421631,464.004517,1366.33606,464.023987L1366.23999,464.007996L1366.144043,463.959991L1366.05603,463.880005L1365.968018,463.768005L1365.864014,463.671997L1365.712036,463.59201C1365.647217,463.561859,1365.578857,463.544373,1365.511963,463.519989C1364.908936,463.379578,1364.291138,463.313995,1363.671997,463.320007C1363.097534,463.321991,1362.524048,463.26886,1361.959961,463.160004C1361.880127,463.132996,1361.799805,463.107025,1361.719971,463.079987C1361.590576,463.011658,1361.472412,462.925323,1361.359985,462.832001C1361.101318,462.467407,1360.721191,462.206177,1360.287964,462.096008L1360.135986,462.063995C1359.530884,461.949402,1358.918945,461.873352,1358.303955,461.839996C1357.220093,461.75296,1356.143066,461.596069,1355.079956,461.368011C1354.745239,461.317932,1354.426025,461.190399,1354.151978,460.992004L1354.104004,460.951996C1354.052612,460.923584,1353.995483,460.892151,1353.94397,460.864014C1353.241699,460.534271,1352.513794,460.261963,1351.767944,460.048004C1350.841309,459.777679,1349.953247,459.388855,1349.128052,458.888C1348.910034,458.722565,1348.677856,458.576447,1348.432007,458.455994C1348.277222,458.393097,1348.119141,458.338745,1347.959961,458.287994C1347.548218,458.192749,1347.126587,458.145203,1346.703979,458.152008C1346.013062,458.122467,1345.322144,458.085022,1344.631958,458.040009C1344.115112,458.046753,1343.598633,458.008545,1343.088013,457.928009C1342.536743,457.788025,1342.011719,457.559692,1341.536011,457.247986C1341.148804,456.980621,1340.744141,456.739624,1340.328003,456.519989C1340.110229,456.402435,1339.879639,456.309967,1339.640015,456.247986C1339.583984,456.237244,1339.528076,456.226959,1339.472046,456.216003L1339.407959,456.216003C1339.365601,456.225403,1339.32312,456.233856,1339.280029,456.23999C1339.17334,456.229248,1339.069092,456.20343,1338.968018,456.167999C1338.879272,456.126892,1338.791504,456.083588,1338.703979,456.040009L1338.560059,455.951996C1337.418579,455.155457,1336.395752,454.201874,1335.52002,453.119995C1334.650757,452.116791,1334.05249,450.907959,1333.784058,449.608002C1333.784058,449.506592,1333.785278,449.405182,1333.791992,449.303986C1333.833618,449.067108,1333.890991,448.833191,1333.975952,448.608002C1334.315552,447.82428,1334.951904,447.207458,1335.744019,446.888L1335.984009,446.799988C1336.114258,446.765961,1336.244263,446.731262,1336.375977,446.70401C1336.457031,446.674713,1336.536743,446.641907,1336.615967,446.608002L1336.712036,446.544006L1336.791992,446.471985C1336.828369,446.414276,1336.862427,446.355316,1336.895996,446.29599C1336.951904,446.144775,1336.9552,445.979431,1336.911987,445.824005C1336.870483,445.665161,1336.82373,445.507751,1336.751953,445.359985C1336.549316,445.031128,1336.39209,444.675964,1336.287964,444.303986C1336.219482,444.062561,1336.204956,443.810272,1336.223999,443.559998C1336.233521,443.428986,1336.247925,443.29837,1336.264038,443.167999C1336.288696,443.03302,1336.322021,442.899841,1336.359985,442.768005C1336.560791,442.155365,1336.862305,441.580627,1337.248047,441.063995C1338.056519,440.003601,1339.003784,439.056732,1340.063965,438.247986C1341.458252,437.111389,1342.823853,435.940369,1344.160034,434.735992C1344.488281,434.461884,1344.837769,434.213989,1345.208008,434L1345.303955,433.951996C1345.376587,433.934021,1345.44751,433.909515,1345.52002,433.888C1345.674316,433.879028,1345.824707,433.83139,1345.952026,433.743988C1346.37207,433.526672,1346.76062,433.253174,1347.104004,432.928009C1347.401123,432.648438,1347.750122,432.42807,1348.135986,432.29599C1348.182495,432.280487,1348.228516,432.263519,1348.271973,432.23999L1348.343994,432.200012C1348.943604,431.715393,1349.500122,431.179962,1350.008057,430.600006C1350.171265,430.435913,1350.344727,430.281982,1350.536011,430.152008C1350.629395,430.103638,1350.727661,430.065369,1350.832031,430.048004L1350.952026,430.063995C1351.052368,430.13385,1351.155273,430.19989,1351.264038,430.256012L1351.384033,430.29599C1351.612305,430.33374,1351.844604,430.33017,1352.072021,430.287994C1352.291138,430.233185,1352.497925,430.140503,1352.696045,430.032013C1353.016235,429.822021,1353.322021,429.590546,1353.608032,429.335999L1353.728027,429.256012L1353.832031,429.208008C1353.882446,429.206543,1353.932739,429.2034,1353.984009,429.208008C1354.021851,429.240601,1354.052124,429.279449,1354.079956,429.320007C1354.096191,429.348358,1354.115845,429.374329,1354.135986,429.399994L1354.18396,429.440002C1354.253906,429.474487,1354.327393,429.499695,1354.400024,429.528015C1354.976929,429.661621,1355.572754,429.692139,1356.160034,429.615997C1356.497803,429.590637,1356.831665,429.526062,1357.151978,429.415985C1357.320557,429.34613,1357.479126,429.255157,1357.624023,429.144012L1357.728027,429.048004C1357.766479,428.998688,1357.798584,428.94516,1357.823975,428.888L1357.823975,428.824005L1357.784058,428.752014C1357.660034,428.661041,1357.538086,428.567139,1357.42395,428.463989C1357.399536,428.419464,1357.38208,428.372711,1357.359985,428.328003C1357.36731,428.284424,1357.378052,428.241943,1357.391968,428.200012C1357.445801,428.120056,1357.52063,428.056732,1357.608032,428.015991C1357.692871,427.971588,1357.780884,427.933502,1357.871948,427.903992C1358.508667,427.732605,1359.15918,427.618042,1359.81604,427.559998C1361.073853,427.37149,1362.338989,427.235901,1363.608032,427.152008C1364.786499,427.104553,1365.966797,427.185791,1367.128052,427.391998C1369.809448,427.800537,1372.468628,428.342407,1375.095947,429.015991C1375.916748,429.219452,1376.755371,429.342346,1377.599976,429.384003C1378.081543,429.34079,1378.565674,429.333405,1379.047974,429.368011C1379.128418,429.387451,1379.208374,429.409393,1379.287964,429.432007L1379.368042,429.480011C1379.40979,429.521698,1379.445801,429.568207,1379.47998,429.615997C1379.511108,429.723389,1379.529663,429.833405,1379.543945,429.944C1379.538818,430.208771,1379.547607,430.473785,1379.583984,430.735992L1379.647949,430.920013L1379.751953,431.079987C1379.794556,431.138428,1379.848267,431.186493,1379.904053,431.231995C1380.325806,431.523132,1380.783325,431.758423,1381.264038,431.936005C1381.639282,432.094086,1382.03064,432.211182,1382.432007,432.279999C1382.615234,432.289734,1382.797974,432.30777,1382.975952,432.35199C1383.054321,432.381561,1383.131592,432.413727,1383.208008,432.447998C1383.27124,432.484192,1383.32959,432.52774,1383.384033,432.575989L1383.439941,432.640015C1383.49292,432.711945,1383.557617,432.772888,1383.624023,432.832001C1384.439087,433.426575,1385.358765,433.861389,1386.33606,434.112C1386.374023,434.107391,1386.411499,434.100159,1386.447998,434.088013C1386.446777,434.066559,1386.44397,434.045074,1386.439941,434.023987C1386.41748,433.987305,1386.400146,433.948181,1386.375977,433.911987C1385.975708,433.462708,1385.530151,433.055969,1385.047974,432.696014C1383.748291,431.561157,1382.526733,430.339752,1381.391968,429.040009C1380.139893,427.650757,1378.93396,426.220703,1377.776001,424.752014C1376.888916,423.620514,1375.949585,422.531097,1374.959961,421.488007C1374.552856,421.112213,1374.177124,420.703552,1373.839966,420.264008C1373.707031,420.074036,1373.62207,419.855011,1373.599976,419.623993C1373.636475,419.450439,1373.64563,419.273071,1373.640015,419.096008C1373.624268,419.01532,1373.607056,418.934937,1373.583984,418.855988C1373.545898,418.795288,1373.511597,418.732391,1373.472046,418.671997C1373.261475,418.476776,1373.025879,418.310028,1372.767944,418.18399C1371.573608,417.518005,1370.326782,416.950836,1369.040039,416.488007L1368.936035,416.463989C1368.861694,416.449921,1368.787598,416.43396,1368.712036,416.424011C1368.11145,416.362885,1367.525635,416.201447,1366.975952,415.951996C1366.082275,415.622559,1365.244507,415.156952,1364.495972,414.567993C1364.431763,414.496216,1364.366455,414.425262,1364.303955,414.35199L1364.248047,414.264008L1364.160034,414.152008C1363.251465,412.995483,1362.301514,411.872131,1361.312012,410.783997C1360.359009,409.732727,1359.451538,408.641052,1358.592041,407.511993C1357.664795,406.239532,1356.895996,404.858887,1356.303955,403.399994C1355.799316,402.264374,1355.348267,401.105835,1354.952026,399.928009C1354.606079,398.686218,1354.537231,397.384338,1354.744019,396.112C1354.802979,395.602264,1354.987305,395.113861,1355.296021,394.70401L1355.407959,394.584015C1355.486572,394.517822,1355.574951,394.466339,1355.66394,394.415985L1355.800049,394.368011C1356.120972,394.282532,1356.46167,394.318146,1356.76001,394.463989L1356.975952,394.575989C1357.507324,394.956635,1357.989136,395.402161,1358.407959,395.903992C1359.238403,396.9021,1360.046387,397.918274,1360.832031,398.951996C1361.115601,399.341034,1361.444946,399.69519,1361.823975,399.992004C1361.863159,400.004456,1361.901611,400.018097,1361.94397,400.015991C1362.012939,399.965515,1362.079468,399.911896,1362.144043,399.855988L1362.223999,399.791992C1362.857422,399.226379,1363.481689,398.650391,1364.095947,398.063995C1365.19104,397.078796,1366.476685,396.328522,1367.871948,395.855988C1369.961548,395.107727,1372.096313,394.49292,1374.264038,394.015991C1375.818481,393.71521,1377.408569,393.642487,1378.984009,393.799988C1380.786865,393.939209,1382.577881,394.204071,1384.343994,394.59201C1385.618408,394.86795,1386.834961,395.365326,1387.936035,396.063995C1388.426514,396.410004,1388.896729,396.783752,1389.343994,397.18399C1389.671509,397.469299,1390.0354,397.710663,1390.432007,397.888L1390.527954,397.903992C1390.592529,397.91098,1390.656616,397.9216,1390.719971,397.936005C1391.482056,398.18988,1392.225464,398.496857,1392.94397,398.855988C1393.46106,399.111938,1393.999146,399.322906,1394.552002,399.488007C1394.589478,399.489166,1394.626587,399.49408,1394.66394,399.496002C1394.917725,399.541687,1395.16272,399.625946,1395.391968,399.743988C1395.502686,399.79007,1395.614746,399.832764,1395.728027,399.872009C1398.215698,400.729248,1400.712891,401.550049,1403.223999,402.335999C1406.30481,403.300903,1409.369995,404.305725,1412.42395,405.35199C1412.866333,405.520721,1413.303711,405.702789,1413.735962,405.895996C1416.266479,406.821228,1418.852905,407.585327,1421.47998,408.18399C1422.28894,408.319702,1423.099731,408.445129,1423.911987,408.559998C1424.841675,407.673676,1425.740967,406.755676,1426.608032,405.808014C1427.331299,405.047089,1427.994263,404.231079,1428.592041,403.368011C1428.651489,403.261353,1428.710938,403.154877,1428.751953,403.040009C1428.755981,403.005096,1428.761841,402.97052,1428.767944,402.936005C1428.79834,402.8815,1428.825439,402.825592,1428.864014,402.776001L1428.94397,402.679993C1429.083008,402.539642,1429.237305,402.415802,1429.400024,402.303986C1429.676392,402.123138,1429.887573,401.857391,1429.991943,401.544006C1430.037109,401.40448,1430.082031,401.265106,1430.104004,401.119995C1430.237427,400.263794,1430.354736,399.404572,1430.456055,398.544006C1430.471313,398.474487,1430.487183,398.405151,1430.504028,398.335999L1430.560059,398.247986L1430.647949,398.18399C1430.730469,398.148346,1430.817139,398.125427,1430.904053,398.104004C1431.312012,398.092285,1431.720093,398.092255,1432.128052,398.104004C1432.197632,398.091003,1432.261353,398.062256,1432.319946,398.023987L1432.296021,397.976013L1432.223999,397.928009L1432.095947,397.81601C1432.06897,397.772278,1432.046021,397.726379,1432.024048,397.679993C1432.014038,397.634308,1432.009399,397.588715,1432,397.544006L1432.008057,397.471985C1432.035767,397.395538,1432.058228,397.317932,1432.079956,397.23999L1432.072021,397.119995C1432.024536,396.856323,1431.944214,396.599426,1431.823975,396.359985C1431.626221,395.984436,1431.546143,395.559387,1431.57605,395.135986C1431.605713,394.724213,1431.748779,394.327484,1432,394L1432.079956,393.911987L1432.151978,393.832001C1432.196289,393.798553,1432.241455,393.766296,1432.287964,393.735992L1432.359985,393.70401L1432.432007,393.70401C1432.484375,393.713654,1432.533325,393.731476,1432.583984,393.743988L1432.66394,393.791992L1432.751953,393.864014C1433.098877,394.247742,1433.409668,394.662933,1433.680054,395.104004L1433.800049,395.247986C1433.879395,395.367371,1433.990112,395.46048,1434.112061,395.536011L1434.199951,395.584015L1434.280029,395.600006L1434.343994,395.59201L1434.407959,395.552002L1434.456055,395.488007L1434.504028,395.399994C1434.531372,395.316711,1434.546143,395.230469,1434.560059,395.144012C1434.553833,394.784241,1434.601929,394.425018,1434.703979,394.079987C1434.802246,393.739166,1434.946777,393.413757,1435.119995,393.104004C1435.216675,392.889648,1435.282349,392.662872,1435.328003,392.432007C1435.344727,392.336761,1435.35498,392.24057,1435.359985,392.144012C1435.361816,392.045044,1435.355591,391.946228,1435.343994,391.847992L1435.303955,391.752014L1435.248047,391.687988L1435.167969,391.64801L1435.063965,391.640015C1434.83252,391.691315,1434.597168,391.723755,1434.359985,391.727997C1434.242188,391.721283,1434.126587,391.690369,1434.024048,391.631989C1433.973145,391.589661,1433.921875,391.547668,1433.871948,391.503998L1433.81604,391.415985C1433.612671,391.008759,1433.44873,390.582916,1433.328003,390.144012C1433.181396,389.694458,1433.068726,389.234589,1432.991943,388.768005L1432.991943,388.552002L1433.024048,388.480011L1433.047974,388.455994C1433.075073,388.451782,1433.100464,388.442841,1433.128052,388.440002C1433.323975,388.45755,1433.514404,388.51532,1433.687988,388.608002C1433.880737,388.680847,1434.072754,388.755524,1434.264038,388.832001C1434.288086,388.824371,1434.3125,388.818176,1434.33606,388.808014C1434.384888,388.727966,1434.421387,388.641724,1434.447998,388.552002C1434.514893,388.101837,1434.546021,387.647095,1434.543945,387.191986L1434.543945,386.023987C1434.555542,385.696228,1434.515991,385.3685,1434.416016,385.056C1434.350708,384.94574,1434.264282,384.850677,1434.160034,384.776001C1433.912231,384.661133,1433.666626,384.541504,1433.42395,384.415985L1433.368042,384.368011L1433.359985,384.320007L1433.391968,384.287994L1433.456055,384.247986C1433.549805,384.223816,1433.643188,384.198914,1433.728027,384.152008C1433.758667,384.111115,1433.794922,384.0755,1433.823975,384.032013L1433.855957,383.967987C1433.866455,383.917694,1433.873657,383.866913,1433.880005,383.81601L1433.871948,383.743988C1433.838989,383.644073,1433.784546,383.554321,1433.719971,383.471985C1433.673462,383.440338,1433.626099,383.410004,1433.57605,383.384003L1433.495972,383.359985L1433.400024,383.35199L1433.328003,383.328003L1433.248047,383.247986L1433.167969,383.135986L1433.088013,382.976013C1432.808472,382.254364,1432.62854,381.498077,1432.552002,380.727997C1432.464478,380.196869,1432.436646,379.657623,1432.463989,379.119995C1432.477173,378.951416,1432.495483,378.783295,1432.52002,378.615997C1432.55542,378.47406,1432.592651,378.332855,1432.631958,378.191986L1432.712036,378.015991C1432.781494,377.856903,1432.892212,377.720795,1433.024048,377.608002C1433.106201,377.541046,1433.196045,377.483734,1433.296021,377.447998L1433.456055,377.399994C1433.571655,377.374023,1433.689819,377.368011,1433.807983,377.368011C1434.204224,377.409943,1434.594727,377.492371,1434.975952,377.608002C1434.713135,377.33313,1434.464355,377.045105,1434.232056,376.743988C1434.194458,376.670715,1434.157959,376.596832,1434.128052,376.519989L1434.119995,376.415985L1434.135986,376.328003L1434.192017,376.23999C1434.260376,376.151733,1434.33313,376.066956,1434.407959,375.984009L1434.504028,375.808014C1434.535889,375.703979,1434.554321,375.596619,1434.560059,375.488007C1434.544434,375.421631,1434.520996,375.358582,1434.495972,375.29599C1434.464478,375.266357,1434.434814,375.234833,1434.400024,375.208008C1434.302979,375.169281,1434.200195,375.148987,1434.095947,375.144012L1434.024048,375.112C1433.914673,375.054108,1433.842529,374.945435,1433.81604,374.824005C1433.806274,374.751678,1433.797363,374.679443,1433.784058,374.608002C1433.780029,374.538147,1433.788696,374.468842,1433.800049,374.399994C1433.797974,374.345947,1433.818848,374.292175,1433.864014,374.264008L1433.904053,374.223999L1433.952026,374.208008L1434.008057,374.208008L1434.063965,374.23999C1434.103638,374.249817,1434.143921,374.256561,1434.18396,374.264008L1434.248047,374.23999C1434.289795,374.210236,1434.329346,374.177399,1434.359985,374.135986C1434.397705,374.080505,1434.428955,374.02124,1434.456055,373.959991C1434.483521,373.877563,1434.509155,373.794647,1434.536011,373.712006C1434.585327,373.64093,1434.630981,373.567505,1434.680054,373.496002L1434.776001,373.424011C1434.886108,373.366272,1435.005249,373.329895,1435.128052,373.312012L1435.264038,373.320007C1435.365234,373.332367,1435.464111,373.357666,1435.560059,373.391998C1435.932617,373.546204,1436.265991,373.779907,1436.543945,374.071991C1436.724854,374.2771,1436.932007,374.45697,1437.160034,374.608002L1437.287964,374.664001L1437.42395,374.712006C1437.976807,374.804047,1438.540405,374.810516,1439.095947,374.735992C1439.439331,374.719879,1439.781372,374.682831,1440.119995,374.623993L1440.192017,374.59201C1440.231079,374.564026,1440.272339,374.539398,1440.312012,374.511993C1440.336548,374.47934,1440.358032,374.444733,1440.375977,374.40799C1440.379883,374.376038,1440.382568,374.344177,1440.384033,374.312012C1440.360229,374.265289,1440.336426,374.218658,1440.303955,374.175995C1440.262451,374.152466,1440.219482,374.131775,1440.176025,374.112C1440.026367,374.098969,1439.877075,374.08252,1439.728027,374.063995L1439.656006,374.015991L1439.624023,373.944C1439.626953,373.909393,1439.626953,373.874725,1439.631958,373.839996C1439.653809,373.764648,1439.676514,373.689575,1439.703979,373.615997C1439.779785,373.469849,1439.854248,373.323151,1439.927979,373.175995C1439.952637,373.110382,1439.973389,373.043518,1439.991943,372.976013L1440,372.888L1439.991943,372.808014L1439.968018,372.743988L1439.927979,372.687988C1439.848633,372.623077,1439.776489,372.549957,1439.719971,372.463989L1439.680054,372.376007C1439.639038,372.245789,1439.615112,372.11145,1439.599976,371.976013C1439.599243,371.899841,1439.580933,371.826874,1439.567993,371.752014C1439.540771,371.671234,1439.511963,371.591034,1439.47998,371.511993L1439.352051,371.272003L1439.192017,371.071991C1439.113892,370.985321,1439.045898,370.890656,1438.984009,370.791992C1438.948853,370.704559,1438.923706,370.613647,1438.911987,370.519989C1438.919312,370.470276,1438.935791,370.424408,1438.94397,370.376007L1438.991943,370.287994L1439.015991,370.200012C1439.01062,370.138336,1439.00293,370.076904,1438.991943,370.015991L1438.94397,369.928009L1438.880005,369.839996L1438.800049,369.743988C1438.686401,369.642578,1438.55896,369.55838,1438.42395,369.488007L1438.264038,369.399994C1437.736572,369.191223,1437.196899,369.014771,1436.647949,368.872009C1436.328491,368.774506,1436.029541,368.621155,1435.76001,368.424011L1435.712036,368.35199L1435.696045,368.264008C1435.706055,368.175568,1435.720825,368.088257,1435.728027,368L1435.784058,367.832001C1435.937744,367.4263,1436.127563,367.035248,1436.352051,366.664001C1436.523804,366.356201,1436.644531,366.021667,1436.687988,365.671997C1436.705444,365.565338,1436.724365,365.459381,1436.728027,365.35199C1436.75,365.24765,1436.786987,365.147888,1436.823975,365.048004L1436.895996,364.903992C1437.045898,364.63858,1437.260132,364.415405,1437.52002,364.256012L1437.647949,364.200012C1437.727783,364.168549,1437.810791,364.146484,1437.895996,364.135986C1438.070801,364.137512,1438.245117,364.155304,1438.416016,364.191986C1438.520264,364.187012,1438.622681,364.165985,1438.719971,364.127991C1438.774658,364.100037,1438.821167,364.058533,1438.855957,364.007996C1438.957397,363.805939,1439.127686,363.647797,1439.33606,363.559998C1439.70874,363.380981,1440.09729,363.237366,1440.495972,363.127991C1441.043701,362.886475,1441.546021,362.55249,1441.975952,362.135986C1442.891602,361.279022,1443.787842,360.401398,1444.66394,359.503998C1445.235962,358.926636,1445.85376,358.396698,1446.511963,357.920013L1446.608032,357.864014C1446.840576,357.80661,1447.043457,357.663513,1447.176025,357.463989C1447.216309,357.399719,1447.243042,357.328705,1447.264038,357.256012C1447.271729,357.176086,1447.279297,357.096222,1447.280029,357.015991C1447.298828,356.948975,1447.325684,356.884583,1447.359985,356.824005L1447.42395,356.752014C1447.569702,356.655029,1447.745728,356.614655,1447.920044,356.631989C1448.022339,356.623138,1448.123657,356.606018,1448.223999,356.584015C1448.584595,356.440247,1448.890991,356.188568,1449.104004,355.864014L1449.23999,355.70401C1449.775513,355.164825,1450.422485,354.74939,1451.135986,354.488007C1451.493652,354.339966,1451.811523,354.109497,1452.063965,353.81601C1452.170654,353.658203,1452.248413,353.482239,1452.287964,353.29599L1452.391968,353.104004L1452.447998,353.032013L1452.511963,352.976013C1452.565796,352.951233,1452.620728,352.928925,1452.680054,352.920013L1452.719971,352.903992L1452.735962,352.872009C1452.740967,352.83847,1452.732056,352.808105,1452.728027,352.776001C1452.703491,352.73291,1452.680298,352.691284,1452.656006,352.64801C1452.610229,352.591583,1452.567139,352.533173,1452.527954,352.471985C1452.49292,352.407928,1452.461426,352.342072,1452.439941,352.272003C1452.387207,352.106293,1452.405151,351.928436,1452.472046,351.768005L1452.52002,351.679993C1452.555908,351.626068,1452.598267,351.577332,1452.640015,351.528015L1452.719971,351.463989C1452.839844,351.388214,1452.978394,351.348938,1453.119995,351.343994L1453.248047,351.335999L1453.359985,351.303986L1453.447998,351.247986L1453.511963,351.175995L1453.560059,351.071991C1453.610474,350.914154,1453.637329,350.749207,1453.624023,350.584015C1453.617188,350.235291,1453.714233,349.89267,1453.904053,349.600006C1453.956543,349.548004,1454.010864,349.498444,1454.05603,349.440002C1454.334961,349.036469,1454.539429,348.586487,1454.66394,348.112C1455.004395,347.094696,1455.4104,346.100494,1455.880005,345.135986C1456.050537,344.778656,1456.179077,344.40274,1456.264038,344.015991C1456.269653,343.940887,1456.273438,343.865875,1456.287964,343.791992C1456.476685,343.164978,1456.718018,342.555054,1457.008057,341.967987C1457.352661,341.211212,1457.712769,340.461975,1458.088013,339.720001C1458.966064,338.275848,1460.137207,337.032501,1461.527954,336.071991C1462.215698,335.751038,1462.762451,335.187897,1463.05603,334.488007C1463.220459,334.082001,1463.446655,333.703674,1463.728027,333.368011C1463.874146,333.239746,1464.01416,333.104645,1464.144043,332.959991C1464.388184,332.544403,1464.557739,332.089478,1464.647949,331.615997C1464.904053,330.423737,1465.080688,329.215729,1465.176025,328L1506,328L1506,481.864014z"/>
</svg>
