<?xml version="1.0" encoding="UTF-8"?>
<svg xmlns="http://www.w3.org/2000/svg" width="526.197mm" height="264.156mm" viewBox="-701.652344 -532.610840 526.197449 264.156006">
    <path transform="matrix(-0.352734,0,0,-0.352734,-175.008453,-268.355347)" style="stroke:#000000;stroke-width:0.05mm;fill:none" d="M42.902958,748.891479C31.06781,747.135864,20.294056,736.980835,16.567537,724.068481C14.598534,717.245911,14.604913,712.966553,16.594473,706C17.458378,702.974976,18.389828,699.569458,18.664362,698.432129C18.946898,697.261658,17.391127,692.215881,15.079377,686.805115C12.833101,681.547546,10.944555,675.503052,10.882607,673.372925C10.756086,669.0224,12.417253,664,13.982734,664C14.550464,664,20.183233,666.700012,26.5,670C39.003952,676.532288,41.058266,676.917236,50.412548,674.480774C59.568832,672.095825,63.260212,669.134583,83.886108,647.627686C91.798462,639.37738,100.93045,629.223572,104.179413,625.063599C115.531006,610.528992,115.876022,610.34729,124.027534,614.609558C130.112106,617.791138,133.724365,617.379822,140.653931,612.716492C149.603134,606.69397,154.029099,598.570557,154.392853,587.5C154.554321,582.585571,155.402206,580,156.852295,580C157.256149,580,160.26709,582.301636,163.543274,585.114685C176.314804,596.080872,188.253922,598.37915,196.016815,591.365845C201.219757,586.665283,204.6306,581.538391,210.419678,569.716492C216.857483,556.569824,218.209305,555,223.092453,555C225.263458,555,229.764236,556.107056,233.094177,557.460144C240.886444,560.626404,244.233582,560.04071,247.991333,554.853271C251.751953,549.661865,254.39653,538.651672,253.531891,531.786255C251.825806,518.239868,248.192947,512.169312,239.5,508.338776C236.045883,506.816742,232.722305,506.606018,215.146042,506.7948C203.95137,506.915039,188.426361,507.705444,180.646042,508.55127C151.59816,511.709106,134.06134,512.249512,102,510.974915C51.99873,508.987091,49.313786,510.023438,35.971069,536.461243C34.233925,539.90332,32.549549,541.786072,30.59123,542.474792C27.941236,543.406738,27.486513,543.161072,24.139008,538.988708C18.285593,531.692932,13.69672,527.656921,8.234133,525C1.958022,521.947388,0.143414,519.175415,1.898932,515.322449C7.295677,503.477905,24.64015,492.872253,64.847023,476.831451C84.256531,469.087921,96.783707,461.295166,107,450.609436C124.996956,431.785553,128.724045,428.287476,135.695374,423.677338C150.282806,414.03067,188.307526,399.690887,212,394.901489C221.612534,392.958344,226.536362,392.580811,242,392.601166C257.827637,392.622009,262.666779,393.023651,275.5,395.381622C293.981384,398.777435,308.648102,399.717926,317.195496,398.055328C330.197632,395.526215,344.690918,387.26181,367.761475,369.221466C375.566101,363.11853,385.000061,356.648529,388.725861,354.843719C394.952423,351.827484,396.437408,351.531342,407.09671,351.180298C413.474915,350.970245,421.92688,351.300079,425.878845,351.913239C439.775299,354.069366,444.699768,352.444519,478,334.715729C508.815155,318.309998,530.204712,315.872467,571.332581,324.07959C586.646484,327.135498,592.906982,327.793549,594.90686,326.557587C596.427429,325.617798,596.270935,319.838593,594.543579,313.144348C593.742554,310.039948,592.619568,300.975006,592.048096,293C590.562683,272.270874,588.922974,267.453552,580.047058,257.741852C577.271179,254.704605,575,251.945175,575,251.609787C575,250.436234,579.602783,251.017807,587.020081,253.128571C591.134033,254.299286,597.232727,255.311798,600.572754,255.378571C605.644226,255.47998,607.330627,255.0466,610.80127,252.75C616.413147,249.036499,618.97229,249.210083,621.746033,253.49234C624.692505,258.04126,627.223999,258.533752,637.739624,256.60376C645.576111,255.165497,651.957336,254.560745,652.024292,255.25C653.346436,268.86734,653.686707,269.496735,662.145142,273.971436C671.807007,279.082764,671.963684,279.810425,665.047119,287.447998C655.276367,298.237183,654.565491,302.853668,661.75,308.860321C664.362488,311.044525,669.424988,315.3573,673,318.444275C676.575012,321.531281,682.379395,325.428986,685.898621,327.105865C691.381226,329.718201,693.815063,330.233154,702.898621,330.702545C713.168701,331.233276,714.015625,331.10965,730,326.746094C762.414978,317.897186,767.250854,317.228149,786.5,318.929443C814.090576,321.36795,846.593994,327.841949,869.864929,335.533966C894.066589,343.53363,902.775269,345.302429,915.422241,344.787048C930.689148,344.164856,934.318176,342.468323,945.824768,330.574127C954.811584,321.284546,961.59198,312.154358,962.181213,308.549377C962.443115,306.946655,961.697449,306.455841,958,305.797333C952.918579,304.892365,940.820068,306.266968,932.788879,308.661804C927.61377,310.204987,927.548401,310.27124,929.75,311.741425C933.619751,314.325592,932.490051,316.364655,924.75,320.766083C909.722412,329.311615,892.460449,332.623077,881.5,329.063019C876.636719,327.483368,860.887451,318.734528,855.809692,314.79184C851.548828,311.48349,846.413391,301.939392,845.454895,295.54776C844.981201,292.389038,843.84729,290.286011,841.304688,287.850769C839.380554,286.007843,837.317993,283.375,836.721252,282C832.736084,272.8172,837.941772,270.234467,851.926208,274.456207C860.036072,276.90448,867.131775,277.654144,870.383728,276.40625C871.539734,275.962646,870.043091,273.978943,864.465515,268.561859C859.729431,263.962097,857,260.523132,857,259.155609C857,255.8983,859.64801,256.490845,867.328979,261.466888C875.570984,266.806396,882.01532,268.38031,890.746765,267.186188C894.178528,266.716888,899.545837,266.680237,902.674133,267.104767C906.126465,267.573242,909.098816,267.4823,910.236572,266.873383C914.170288,264.768127,933.777039,261.053253,947.128296,259.883514C985.901917,256.48645,1021.213074,266.595825,1047.083374,288.5C1054.839233,295.066864,1058.077759,300.238556,1060.600586,310.08609C1062.471313,317.388184,1061.967041,321.089874,1057.372925,333.78125C1055.517822,338.906128,1054,343.642059,1054,344.305511C1054,344.968964,1055.294922,346.084991,1056.877686,346.785553C1060.055908,348.192383,1065.319336,347.630493,1085.5,343.730164C1102.877441,340.371582,1114.387817,340.746918,1131.5,345.230255C1139.199951,347.24762,1150.428223,349.39563,1156.45166,350.003632C1178.49231,352.228394,1220.258423,346.996613,1249.814819,338.308624C1268.841675,332.715759,1273.920898,327.74649,1272.598877,316.017883C1271.47876,306.081726,1266.821045,299.038696,1250.328613,282.343018C1240.779297,272.676056,1234.483643,267.078491,1232.645386,266.620544C1230.510254,266.088623,1228.150635,266.67688,1223.283081,268.954681C1215.172607,272.750031,1213.339355,272.752808,1208.12793,268.977661C1205.83313,267.315399,1201.574585,265.064453,1198.664429,263.975616C1192.943726,261.835266,1191.370972,260.135834,1185.72168,249.990616C1180.023193,239.757019,1179.036377,239,1171.395264,239C1167.805542,239,1164.06897,238.572067,1163.091675,238.049042C1162.11438,237.526016,1158.246338,233.588516,1154.496094,229.299042C1144.786987,218.193893,1143.513184,217.413757,1133.763428,216.600647C1126.06897,215.958954,1125.312134,215.687424,1122.29126,212.484665C1120.512329,210.598724,1117.717896,206.403214,1116.081421,203.161316C1114.444946,199.919418,1111.658203,196.048752,1109.888794,194.55983C1106.708252,191.883652,1106.550537,191.85997,1096.085815,192.487335C1085.715576,193.109024,1085.370605,193.059464,1079.142822,190.05275C1075.646362,188.364685,1071.482056,186.055313,1069.888794,184.920822C1064.426636,181.031448,1061.369629,180.788574,1054.163452,183.671494C1041.144287,188.87999,1037.180908,188.029816,1019.140564,176.158768C1013.992859,172.771439,1009.111572,170,1008.293274,170C1005.015747,170,989.931519,161.064453,980.5,153.535934C961.083984,138.037491,950.441589,131.19899,941.488403,128.468079C933.276245,125.963226,930.018188,123.969376,913.1026,111.096657C905.487488,105.301537,901.61554,104.004402,888.935669,103.000557C877.971741,102.132561,876.782837,101.630341,861.417542,91.376205L850.335083,83.980247L840.698853,83.068565C832.399719,82.283394,829.774719,81.541672,821.781311,77.723145C816.676575,75.284584,810.025024,71.594025,807,69.521904C799.610229,64.4599,792.140564,62,784.15918,62C776.220154,62,771.818848,60.064705,763.486755,52.910095C751.697388,42.786751,745.970398,39,742.449585,39C740.617859,39,736.000427,40.125,732.188599,41.5C722.337463,45.053513,716.606201,44.834019,708.158203,40.579678C698.846069,35.890152,695.738403,35.47263,688.593445,37.951107C677.970215,41.636143,674.537659,40.692749,659.257629,29.888544C653.340942,25.704966,646.924988,21.790817,645,21.190437C643.075012,20.590057,636.099976,19.382507,629.5,18.506992C614.505737,16.517944,601.097595,13.029701,591.626892,8.653984C584.409851,5.319504,581.76355,2.688447,584.550964,1.618817C588.414612,0.136196,597.039368,-0.119925,609.618713,0.874405C617.253418,1.477886,632.71405,2.689214,643.975647,3.566245C655.237183,4.443275,664.898682,5.437391,665.445618,5.775391C665.992493,6.11339,670.053467,6.47055,674.469971,6.569078C678.886475,6.667606,686.325012,7.262129,691,7.89024C695.674988,8.518352,703.811157,9.457108,709.080322,9.976367C714.349487,10.495625,719.974487,11.422526,721.580322,12.036147C723.186157,12.649767,727.650024,13.271433,731.5,13.417625C735.349976,13.563819,742.775024,14.484796,748,15.46424C778.120911,21.110518,799.047485,25.177711,803,26.153791C805.474976,26.764999,810.650024,27.832979,814.5,28.527079C830.962219,31.494984,834.55188,32.281361,835.450012,33.11657C835.972473,33.602455,837.664185,34,839.209351,34C841.794434,34,858.523315,37.501381,862,38.770123C862.825012,39.07119,863.902832,39.224304,864.395142,39.110382C864.887451,38.996456,871.862427,40.264408,879.895142,41.928051C903.199829,46.754677,935.217712,52.753975,952,55.438568C994.410706,62.222836,1120.317139,79.276001,1136.991333,80.494377C1142.211548,80.875809,1147.247681,81.597382,1148.182861,82.09787C1149.118042,82.598351,1153.846924,83.211105,1158.691528,83.459534C1163.536255,83.70797,1169.074951,84.394897,1171,84.986046C1172.925049,85.577194,1178.099976,86.262383,1182.5,86.508675C1208.618774,87.970695,1275.55481,102.004425,1293,109.675941C1294.925049,110.522469,1299.650024,112.349548,1303.5,113.73613C1319.63269,119.546349,1362.420532,142.506714,1383.5,156.664963C1412.356445,176.046646,1415.198975,178.17627,1441.5,200.116989C1463.521606,218.487793,1472.746826,228.998734,1479.677612,243.615707C1482.054932,248.629333,1484,253.466843,1484,254.365707C1484,255.264572,1484.391968,256,1484.870972,256C1486.002563,256,1489.008789,271.137207,1490.034668,282C1490.476074,286.674988,1491.317627,292.975006,1491.904541,296C1492.491577,299.024994,1492.886963,304.200012,1492.783081,307.5C1492.679199,310.799988,1492.735962,326.549988,1492.90918,342.5C1493.21582,370.727234,1493.152466,371.846405,1490.531494,384.5C1489.050415,391.649994,1485.882324,403.575012,1483.491333,411C1481.100342,418.424988,1478.201416,427.732758,1477.049316,431.683929C1474.854126,439.212769,1472.112549,442.366394,1464.279663,446.373322C1460.299561,448.409363,1459.099487,450.58017,1459.715576,454.629791C1459.977417,456.351166,1459.672729,460.259674,1459.03833,463.315399C1457.546265,470.502594,1453.215332,474.536957,1442.123291,479.072083C1432.291138,483.092133,1427.670044,486.701599,1425.18335,492.303864C1422.99646,497.230591,1418.480103,501.343292,1407.530273,508.379059C1400.352539,512.991089,1399.381958,513.996887,1397.762695,518.5C1392.975708,531.812805,1392.965942,531.830017,1388.690186,534.33252C1386.38562,535.681396,1378.650024,538.801025,1371.5,541.265015C1356.751831,546.347412,1348.538818,549.702087,1338.604736,554.701416C1334.326416,556.854492,1326.925781,559.250122,1319.104736,561.013794C1304.550293,564.295837,1299.337402,566.338135,1290.912964,572.059082C1280.672241,579.013428,1276.581177,580.434448,1268,580.017883C1263.875,579.817627,1256.224976,579.622803,1251,579.5849C1241.871094,579.518738,1241.148438,579.680054,1232.5,583.715332C1220.709229,589.216797,1217.145142,589.883972,1194,590.922302C1178.089355,591.636108,1173.39563,592.193665,1168.5,593.951416C1155.05127,598.780151,1151.010498,599.235657,1137.718506,597.420959C1120.128418,595.019531,1106.319824,595.79718,1094,599.882935C1077.504272,605.353638,1069.964478,606.487061,1059,605.144226C1044.636719,603.385071,1040.352417,603.665527,1030.951904,606.980286C1026.303345,608.619446,1021.320557,609.969421,1019.878967,609.980286C1018.437378,609.99115,1012.16748,608.437134,1005.945801,606.526917C993.555603,602.722839,993.465271,602.725403,982.081482,607.198303C967.380493,612.974609,964.851563,613.296204,953,610.896362C944.702942,609.216248,941.031372,608.934875,935.5,609.555176C931.650024,609.986938,924.674988,610.344788,920,610.350403C911.909973,610.360046,910.745056,610.060364,895.846863,604.13739C874.651917,595.710999,869.548035,594.387207,848.572571,591.876038C824.613525,589.00769,810.312805,588.991882,798.046814,591.820251C781.584229,595.616272,774.105896,595.035767,748.948914,588.008972C729.758606,582.648804,725.657227,581.850403,710,580.427063C686.520386,578.292603,682.116699,577.15155,664.020996,568.513794C630.298401,552.416687,610.222107,548.266602,571.5,549.388367C540.652893,550.282043,488.949951,556.344482,474.5,560.762085C469.549988,562.275452,464.825012,563.953613,464,564.491455C463.174988,565.029297,460.43811,566.433044,457.91806,567.61084C455.39798,568.788635,448.956512,572.511414,443.603668,575.883728C427.387115,586.100281,422.341431,588.109253,406.621918,590.608398C394.008392,592.61377,388.302551,595.137817,379.497711,602.607178C371.497101,609.394226,368.95816,611.411438,356.5,620.878845C351.549988,624.640564,346.404846,628.291748,345.066345,628.992615C343.727844,629.693481,338.007996,630.601501,332.35556,631.010437C320.337982,631.879883,318.384796,632.842285,311.547821,641.263184C304.347198,650.131958,302.779266,650.640259,280.5,651.328247C257.87381,652.026978,244.673721,654.384155,210,663.917725C176.454239,673.141113,172.552902,674.702148,148.574799,688.495728C133.911484,696.930908,118.403648,703.895081,104,708.513123C90.366859,712.884216,83.5541,718.156372,75.241776,730.768127C70.126839,738.528748,64.535194,744.159424,59.183498,746.938599C55.706192,748.744385,48.078945,749.659241,42.902958,748.891479z"/>
</svg>
