<?xml version="1.0" encoding="UTF-8"?>
<svg xmlns="http://www.w3.org/2000/svg" width="400.009mm" height="303.986mm" viewBox="-755.564392 -804.487671 400.009460 303.985504">
    <path transform="matrix(-1,0,0,-1,0,0)" style="stroke:none;fill:#000000;fill-rule:evenodd" d="M514.85553,500.510101C518.32251,500.520294,521.787537,500.711304,525.234436,501.08432C526.807495,501.285278,528.360535,501.615295,529.878967,502.072601C531.190552,502.503296,532.4375,503.110291,533.585999,503.877289C534.1875,504.326294,534.685547,504.899292,535.046936,505.556976C535.602539,506.591278,536.057495,507.677307,536.406311,508.799164C537.43457,511.889282,538.36554,515.010254,539.19928,518.158569C539.688538,520.114258,540.11554,522.085266,540.48053,524.068726C540.6875,525.174316,541.007568,526.25531,541.433655,527.295288C541.911499,528.30127,542.487549,529.257324,543.152405,530.150757C543.866516,531.077271,544.549561,532.02832,545.19928,533.002319C545.625488,533.679321,545.923523,534.428284,546.078186,535.213257C546.179565,536.008301,546.107544,536.815308,545.871155,537.580444C545.662537,538.309326,545.417542,539.02832,545.13678,539.732788C544.441528,541.910278,543.916504,544.138306,543.566467,546.396851C542.983521,549.775269,542.527527,553.175293,542.19928,556.588257C541.245544,566.270264,540.68457,575.986267,540.515686,585.713257C540.436523,589.663269,540.401489,593.61731,540.410217,597.568726C540.39856,599.629272,540.316528,601.68927,540.164124,603.744507C539.961548,605.825317,539.538574,607.878296,538.902405,609.869507C538.553528,611.039307,538.208496,612.216309,537.871155,613.389038C537.729492,613.88031,537.657532,614.389282,537.656311,614.900757C537.661499,615.353271,537.946533,615.756287,538.371155,615.912476C538.630493,616.035278,538.907532,616.118286,539.191467,616.158569C540.294556,616.320313,541.405518,616.414307,542.519592,616.439819C544.717529,616.50531,546.911499,616.655273,549.097717,616.889038C551.132568,617.144287,553.150513,617.527283,555.13678,618.037476C557.842529,618.681274,560.517517,619.450317,563.152405,620.342163C569.156494,622.299316,575.100525,624.435303,580.976624,626.748413C589.547485,629.946289,598.179504,632.977295,606.867249,635.842163C609.673523,636.777283,612.484558,637.689331,615.304749,638.580444C619.343506,639.743286,623.420532,640.774292,627.527405,641.670288C628.481506,641.927246,629.456543,642.102295,630.441467,642.193726C633.080505,642.491333,635.739502,642.567261,638.390686,642.420288C639.104553,642.389282,639.800537,642.192261,640.425842,641.846069C640.565552,641.759277,640.698547,641.66333,640.82428,641.557007C641.439514,640.977295,641.953552,640.298279,642.343811,639.549194C643.75354,636.9953,645.043518,634.376282,646.207092,631.701538C647.722534,628.066284,648.99054,624.332275,650.000061,620.525757C650.840515,617.346313,651.639526,614.159302,652.398499,610.959351C653.577515,606.307251,654.998535,601.720276,656.656311,597.217163C657.198547,595.642273,657.679504,594.048279,658.097717,592.435913C658.344543,591.405273,658.463501,590.34729,658.44928,589.287476C658.473511,588.186279,658.624512,587.092285,658.898499,586.025757C658.982544,585.626282,659.037537,585.22229,659.062561,584.814819C659.33551,581.702271,659.53656,578.585266,659.664124,575.463257C660.00354,568.171265,660.296509,560.856323,660.54303,553.560913C660.616516,551.853271,660.752502,550.149292,660.94928,548.451538L661.015686,548.135132C661.057556,548.071289,661.087524,548.000305,661.097717,547.924194C661.132507,547.358276,661.092529,546.79126,660.976624,546.236694C660.659546,544.450317,660.146545,542.704285,659.44928,541.029663C658.846558,539.721313,657.948547,538.571289,656.82428,537.670288C655.465515,536.58429,653.981506,535.66626,652.402405,534.935913C651.451538,534.470276,650.524536,533.956299,649.625061,533.396851C648.770508,532.826294,648.08551,532.037292,647.640686,531.111694C647.376526,530.565308,647.139526,530.00531,646.929749,529.435913C646.627502,528.652283,646.275513,527.889282,645.875061,527.150757C645.749512,527.004272,645.643555,526.843262,645.558655,526.670288C645.277527,525.932251,645.247559,525.122314,645.472717,524.365601C645.621521,524.061279,645.882507,523.827271,646.19928,523.709351C646.890503,523.470276,647.613525,523.333252,648.343811,523.303101C649.873535,523.205322,651.405518,523.156311,652.937561,523.158569C657.717529,523.142273,662.498535,523.194275,667.277405,523.314819C668.035522,523.340271,668.789551,523.435303,669.531311,523.596069C669.97052,523.720276,670.380554,523.933289,670.734436,524.221069L672.089905,525.189819C671.954529,527.377319,671.839539,529.566284,671.746155,531.756226C671.662537,533.533325,671.840515,535.312256,672.273499,537.037476C673.162537,540.718262,674.087524,544.390259,675.046936,548.053101C676.559509,554.062256,678.098511,560.050293,679.671936,566.045288C679.966553,567.318298,680.268555,568.595276,680.57428,569.865601C680.830505,570.913269,681.126526,571.950317,681.460999,572.974976C682.051514,574.565308,682.071533,576.312256,681.519592,577.916382C681.184509,578.886292,680.73053,579.811279,680.16803,580.670288C679.008545,582.780273,678.183533,585.057251,677.722717,587.420288C677.184509,589.960266,676.873535,592.543274,676.79303,595.139038C676.649536,598.609253,676.782532,602.085266,677.191467,605.533569C677.516541,608.795288,678.051514,612.032288,678.79303,615.224976C678.997559,616.04126,679.250549,616.845276,679.550842,617.631226C679.679504,617.985291,679.897522,618.300293,680.183655,618.545288C680.351501,618.708252,680.58252,618.788269,680.816467,618.775757C680.958557,618.746277,681.097534,618.705322,681.23053,618.646851C681.733521,618.341309,682.155518,617.918274,682.457092,617.412476C683.143555,616.36731,683.734558,615.263306,684.222717,614.111694C685.382507,611.501282,686.497559,608.8703,687.566467,606.221069C689.36853,601.889282,691.092529,597.522278,692.734436,593.127319C693.939514,589.965271,695.270508,586.853271,696.726624,583.799194C697.943542,581.024292,699.038513,578.197266,700.007874,575.326538C702.543518,567.890259,704.883545,560.386292,707.023499,552.826538C707.257507,552.032288,707.463501,551.229309,707.640686,550.420288C707.963501,548.812256,708.048523,547.16626,707.894592,545.533569L707.878967,545.150757C707.688538,541.478271,707.482544,537.764282,707.265686,534.092163C707.231506,533.398315,707.124512,532.70929,706.94928,532.037476C706.769531,531.520264,706.473511,531.052307,706.082092,530.670288C705.284546,529.825317,704.422546,529.042297,703.503967,528.330444C702.762512,527.734253,702.011536,527.151306,701.250061,526.580444C699.469543,525.175293,698.020508,523.395264,697.007874,521.365601C696.27655,519.846313,695.314514,518.450317,694.156311,517.224976C693.794556,516.822266,693.505554,516.359253,693.300842,515.857788C693.202515,515.601318,693.237549,515.312256,693.390686,515.084351C693.658508,514.816284,694.01355,514.654297,694.390686,514.623413C695.278503,514.527283,696.175537,514.556274,697.054749,514.709351C698.294556,514.942261,699.558533,515.016296,700.816467,514.932007C701.251526,514.878296,701.684509,514.806274,702.113342,514.717163C703.717529,514.524292,705.330505,514.419312,706.945374,514.404663C708.782532,514.389282,710.612549,514.383301,712.44928,514.389038L712.953186,515.596069C713.222534,516.358276,713.889526,516.911255,714.687561,517.037476C715.550537,517.151306,716.427551,517.104309,717.273499,516.900757C718.133545,516.695313,718.997559,516.504272,719.863342,516.326538C720.421509,516.220276,720.992554,516.195313,721.558655,516.252319C721.892517,516.303284,722.193542,516.487305,722.38678,516.764038C722.58252,517.031311,722.7005,517.34729,722.726624,517.678101C722.883545,518.851318,722.794556,520.045288,722.464905,521.182007C722.314514,521.448303,722.219543,521.741272,722.183655,522.045288C722.213501,522.543274,722.361511,523.027283,722.617249,523.455444C722.951538,524.116272,723.124512,524.84729,723.121155,525.588257C723.090515,527.753296,722.82251,529.908325,722.320374,532.014038C722.255554,532.313293,722.218506,532.618286,722.207092,532.924194C721.874512,537.550293,721.624512,542.180298,721.457092,546.814819C721.320557,550.010254,721.23053,553.210266,721.187561,556.408569C721.28656,559.854309,721.315552,563.30127,721.273499,566.748413C721.229553,569.254272,721.02356,571.754272,720.656311,574.232788C720.484558,575.249268,720.224548,576.249268,719.878967,577.221069C719.636536,577.807251,719.352539,578.376282,719.031311,578.924194C718.254517,580.354309,717.49054,581.776306,716.726624,583.213257C715.419556,585.927307,714.541504,588.827271,714.125061,591.810913C713.780518,594.047302,713.576538,596.303284,713.51178,598.564819C713.395508,603.458252,713.486511,608.354309,713.785217,613.240601C713.925537,615.381287,714.202515,617.510254,714.613342,619.615601C714.88855,620.81427,715.23053,621.997314,715.63678,623.158569C715.869507,623.925293,716.054504,624.705322,716.191467,625.494507C716.24054,626.340271,716.375549,627.179321,716.593811,627.998413C717.679504,631.701294,718.732544,635.410278,719.753967,639.131226C720.068542,640.202271,720.428528,641.259277,720.835999,642.299194C720.971558,642.622314,721.147522,642.92627,721.359436,643.205444L721.51178,643.349976C721.611511,643.407288,721.716553,643.454285,721.82428,643.494507C721.999512,643.534302,722.182556,643.499268,722.332092,643.400757C722.427551,643.362305,722.509521,643.296265,722.570374,643.213257C722.914551,642.793274,723.184509,642.318298,723.367249,641.807007C723.807556,640.767334,724.16156,639.693298,724.425842,638.596069C724.461548,638.129272,724.577515,637.672302,724.769592,637.244507C725.5495,635.098267,726.421509,632.987305,727.382874,630.916382C728.936523,627.511292,730.463501,624.106323,731.972717,620.682007L734.390686,615.334351C734.792542,614.341309,735.270508,613.382324,735.820374,612.463257C736.5625,611.297302,737.49054,610.260254,738.566467,609.392944C738.895508,609.146301,739.256531,608.946289,739.640686,608.799194C740.88855,608.108276,742.048523,607.270264,743.097717,606.303101C744.304504,605.21228,745.508545,604.111267,746.703186,603.006226C747.445557,602.260254,748.006531,601.354309,748.343811,600.357788C748.670532,599.442261,749.106506,598.568298,749.640686,597.756226C749.86853,597.423279,750.159546,597.138306,750.496155,596.916382C750.884521,596.697266,751.36554,596.721313,751.726624,596.982788C752.113525,597.246277,752.436523,597.592285,752.675842,597.994507C753.476501,599.29126,754.124512,600.675293,754.609436,602.119507C755.527527,604.675293,755.793518,607.419312,755.382874,610.103882C755.264526,611.022278,755.11554,611.937256,754.937561,612.846069C754.719543,614.135254,754.478516,615.420288,754.214905,616.701538C753.842529,618.260254,753.380554,619.797302,752.832092,621.303101C752.587524,621.981323,752.413513,622.683289,752.312561,623.396851C752.279541,623.769287,752.162537,624.129272,751.972717,624.451538C751.858521,624.686279,751.726501,624.912292,751.578186,625.127319C751.206543,625.788269,750.899536,626.484253,750.664124,627.205444C749.979553,629.035278,749.458557,630.921265,749.10553,632.842163C749.060547,633.169312,749.035522,633.499268,749.031311,633.830444C748.952515,634.830322,748.712524,635.810303,748.320374,636.732788C747.590515,639.022278,747.068542,641.373291,746.76178,643.756226C746.504517,645.195313,746.113525,646.608276,745.593811,647.974976C744.9245,650.029297,744.359558,652.11731,743.902405,654.228882C743.432556,656.276245,742.850525,658.296265,742.160217,660.279663C741.668518,661.933289,741.310547,663.623291,741.089905,665.334351C740.643555,668.017334,740.147522,670.693298,739.601624,673.357788C738.838501,677.580322,737.882507,681.765259,736.738342,685.900757C736.195557,687.910278,735.61853,689.910278,735.007874,691.900757C734.123535,694.944275,733.283508,698.000244,732.488342,701.068726C731.819519,703.188293,730.830505,705.193298,729.554749,707.014038C728.909546,707.743286,728.292542,708.497314,727.707092,709.275757C726.578552,710.763306,725.458557,712.265259,724.35553,713.771851C722.48053,716.271301,720.579529,718.748291,718.648499,721.205444C717.099548,723.064331,715.571533,724.938293,714.062561,726.830444C713.558533,727.474243,712.930542,728.011292,712.214905,728.408569C711.887512,728.576294,711.541504,728.704285,711.183655,728.791382C709.500549,729.207275,707.842529,729.714294,706.214905,730.310913C704.429504,731.014282,702.74353,731.946289,701.19928,733.084351C700.265503,733.763306,699.320557,734.446289,698.382874,735.119507C695.045532,737.294312,691.537537,739.196289,687.894592,740.807007C682.20752,743.396301,676.316528,745.510254,670.281311,747.127319C668.126526,747.655273,665.96051,748.136292,663.785217,748.572632C661.737549,749.020264,659.681519,749.447266,657.625061,749.853882C655.349548,750.171265,653.058533,750.360291,650.76178,750.420288C646.488525,750.571289,642.21051,750.571289,637.937561,750.420288C631.630554,750.275269,625.33252,749.836304,619.066467,749.103882C617.282532,748.878296,615.510559,748.573303,613.753967,748.189819C613.099548,748.032288,612.45752,747.828247,611.832092,747.580444C610.324524,747.202271,608.794556,746.924316,607.250061,746.748413C603.73053,746.275269,600.224548,745.780273,596.710999,745.260132C591.97052,744.561279,587.194519,744.129272,582.406311,743.967163C579.264526,743.859253,576.129517,743.621277,573.007874,743.252319C572.680542,743.213257,572.35553,743.16333,572.031311,743.103882L569.031311,742.533569C563.213501,745.91626,557.079529,748.721313,550.714905,750.908569C549.729492,751.225281,548.729492,751.4953,547.718811,751.717163C545.783569,752.020264,543.834534,752.233276,541.878967,752.357788C536.393555,752.763306,530.903564,753.071289,525.406311,753.279663L518.007874,753.580444C516.233521,754.646301,514.435547,755.673279,512.617249,756.662476C511.32254,757.332275,509.98053,757.907288,508.601624,758.381226C506.90152,758.969299,505.228516,759.631287,503.585999,760.365601C500.15152,761.924316,496.74054,763.534302,493.35553,765.197632C491.891541,765.902283,490.400543,766.550293,488.88678,767.139038C487.828522,767.500244,486.719543,767.692261,485.601624,767.709351C482.706543,767.725281,479.816528,767.725281,476.921936,767.709351C475.397522,769.917297,473.616516,771.936279,471.617249,773.724976C469.956543,775.2323,468.208527,776.640259,466.382874,777.943726C464.751526,779.132324,463.10553,780.302246,461.445374,781.451538C460.795532,781.929321,460.192535,782.468262,459.644592,783.060913C459.48053,783.260254,459.344543,783.481323,459.238342,783.717163C459.173523,783.904297,459.176544,784.1073,459.238342,784.295288C459.376526,784.507324,459.55954,784.686279,459.777405,784.814819C460.11853,785.114258,460.415527,785.45929,460.660217,785.842163C461.476532,787.014282,462.085541,788.318298,462.460999,789.697632C462.596527,790.3573,462.448517,791.042297,462.054749,791.588257C461.453522,792.304321,460.774536,792.951294,460.031311,793.517944C458.784515,794.565308,457.439545,795.490295,456.015686,796.279663C453.838531,797.299316,451.62854,798.249268,449.390686,799.127319C448.948517,799.274292,448.50354,799.409302,448.054749,799.533569C446.701538,800.079285,445.389526,800.721313,444.128967,801.455444C442.781525,802.240295,441.420532,803.002319,440.046936,803.740601C439.877533,803.811279,439.700531,803.863281,439.519592,803.892944C438.190521,804.109253,436.849518,804.252319,435.503967,804.318726C432.836517,804.507324,430.160522,804.544312,427.488342,804.428101C427.068542,804.410278,426.65152,804.344299,426.246155,804.232788L426.121155,804.182007C425.357544,804.035278,424.585541,803.944275,423.808655,803.908569C422.11554,803.825317,420.421539,803.77832,418.726624,803.767944C417.547516,803.760254,416.372528,803.644287,415.214905,803.420288C414.882538,803.335327,414.565521,803.200317,414.273499,803.021851C413.004517,802.380249,411.488525,802.469299,410.304749,803.256226C410.304535,803.255249,409.666534,803.743286,409.66803,803.744507C409.419525,803.907288,409.149536,804.032288,408.863342,804.111694C408.532532,804.165283,408.193542,804.101318,407.902405,803.935913C407.453522,803.668274,407.034515,803.351318,406.656311,802.990601C405.604523,802.139282,404.431519,801.44928,403.175842,800.943726C401.659515,800.246277,400.185516,799.460327,398.76178,798.588257C396.846527,797.480286,394.998535,796.260254,393.226624,794.935913C392.668518,794.521301,392.196533,794.002319,391.835999,793.408569C391.321533,792.724243,390.747528,792.086304,390.121155,791.502319C388.67453,790.089294,387.089539,788.825317,385.390686,787.728882C384.817535,787.3573,384.275543,786.941284,383.769592,786.482788C383.226532,785.966309,382.896515,785.265259,382.847717,784.517944C382.793518,784.110291,382.769531,783.69928,382.777405,783.287476C382.744537,782.07428,382.48053,780.878296,382.000061,779.764038C381.805542,779.265259,381.760529,778.721313,381.871155,778.197632C382.012543,777.505249,382.216522,776.826294,382.48053,776.170288C382.778534,775.275269,382.951538,774.343262,382.996155,773.400757C382.984528,772.30127,382.591522,771.240295,381.88678,770.396851C381.210541,769.554321,380.458527,768.774292,379.640686,768.068726C378.80954,767.316284,377.92453,766.625244,376.992249,766.002319C375.928528,765.331299,374.747528,764.869263,373.51178,764.639038C372.982544,764.477295,372.48053,764.236328,372.023499,763.924194C371.090515,763.333252,370.210541,762.664307,369.390686,761.924194C368.130524,760.797302,366.758545,759.80127,365.296936,758.951538C364.331543,758.539307,363.443542,757.964294,362.671936,757.252319C362.409515,756.990295,362.166534,756.70929,361.945374,756.412476C361.012543,755.484253,359.926544,754.724243,358.734436,754.166382C357.87854,753.748291,357.066528,753.244263,356.312561,752.662476C356.004517,752.404297,355.764526,752.075317,355.617249,751.701538C355.49054,751.30127,355.53952,750.866333,355.750061,750.502319C356.041534,749.970276,356.396515,749.475281,356.808655,749.029663C357.53952,748.059326,358.119537,746.983276,358.527405,745.838257C358.999542,744.577271,359.723541,743.42627,360.656311,742.455444C361.303528,741.746277,361.971527,741.057251,362.660217,740.389038C363.794525,739.239258,364.869537,738.033325,365.882874,736.775757C366.773529,735.684326,368.002533,734.921265,369.375061,734.607788C369.618805,733.766602,377.65509,731.240845,382,732C387.095184,732.890137,395.373291,739.722778,409,734C414.599457,731.648376,416.376526,724.251282,417.015686,723.717163C418.259521,722.768311,419.477539,721.83728,420.718811,720.885132C421.889526,719.946289,422.886536,718.809326,423.664124,717.525757C424.611542,715.970276,425.478516,714.368286,426.26178,712.724976C426.541534,712.196289,426.870544,711.695313,427.246155,711.228882C427.590515,710.836304,428.03653,710.546265,428.535217,710.389038C429.496521,710.124268,430.402527,709.688293,431.210999,709.103882C431.635529,708.822266,432.080536,708.572266,432.54303,708.357788C433.731537,707.770264,434.926544,707.197266,436.128967,706.639038C436.768524,706.319275,437.374542,705.936279,437.937561,705.494507C438.571533,704.931274,439.065521,704.229248,439.382874,703.443726C439.670532,702.798279,439.938538,702.144287,440.187561,701.482788C440.808533,700.09729,441.644531,698.818298,442.664124,697.693726C443.185516,697.070313,443.724518,696.46228,444.281311,695.869507C446.101532,693.860291,447.62854,691.603271,448.816467,689.166382C449.571533,687.592285,450.406525,686.059326,451.320374,684.572632C451.942535,683.812256,452.44754,682.963257,452.816467,682.053101C453.192535,681.042297,453.351532,679.965332,453.285217,678.889038C453.268524,678.379272,453.229523,677.871277,453.16803,677.365601C453.085541,676.470276,453.120544,675.568298,453.273499,674.682007C453.508545,673.535278,454.29953,672.579285,455.382874,672.135132C456.091522,671.874268,456.771515,671.543274,457.414124,671.146851C458.031525,670.704285,458.467529,670.054321,458.640686,669.314819C458.797516,668.679321,458.85553,668.023315,458.812561,667.369507C458.828522,666.405273,459.129517,665.468262,459.675842,664.674194C459.824524,664.444275,459.982544,664.221313,460.152405,664.006226C463.189545,660.016296,466.083527,655.920288,468.828186,651.724976C469.033539,651.379272,469.229523,651.027283,469.414124,650.670288C469.461517,650.586304,469.489532,650.49231,469.488342,650.396851C469.677521,649.780273,469.912537,649.178284,470.191467,648.596069C471.533539,645.655273,472.902527,642.721313,474.29303,639.803101C474.727539,638.901245,475.097534,637.971313,475.402405,637.017944C476.096527,635.379272,476.881531,633.780273,477.753967,632.228882C478.270538,631.424316,478.965515,630.751282,479.785217,630.260132C483.988525,627.698303,488.173523,625.092285,492.328186,622.451538C494.518524,621.08429,496.732544,619.754272,498.968811,618.463257C499.303528,618.248291,499.631531,618.024292,499.953186,617.791382C500.400543,617.436279,500.741516,616.964294,500.937561,616.428101C501.386536,615.139282,501.719543,613.812256,501.929749,612.463257C502.236542,610.271301,502.62854,608.092285,503.10553,605.932007L503.390686,604.533569L503.671936,603.135132L505.742249,592.869507C506.138519,590.806274,506.507538,588.736267,506.847717,586.662476C507.18454,584.672302,507.576538,582.693298,508.023499,580.724976C508.677521,577.716309,509.257538,574.692261,509.76178,571.654663C510.393524,567.503296,510.74054,563.31427,510.800842,559.115601C510.830536,557.858276,510.830536,556.600281,510.800842,555.342163C510.721527,553.644287,510.483521,551.957275,510.089905,550.303101C509.750519,548.559326,509.285522,546.843262,508.69928,545.166382C508.257538,544.015259,507.693542,542.915283,507.015686,541.885132C506.531525,541.035278,505.927521,540.258301,505.222717,539.580444C504.422516,538.8703,503.487518,538.329285,502.472717,537.990601C501.34552,537.631287,500.199524,537.333252,499.039124,537.099976C497.925537,536.869263,496.828522,536.568298,495.753967,536.197632C494.977539,535.896301,494.279541,535.423279,493.710999,534.814819C491.797516,532.968262,490.620544,530.488281,490.398499,527.838257C490.320526,526.650269,490.464539,525.458252,490.82428,524.322632C491.346527,522.908325,492.546539,521.850281,494.015686,521.510132C494.606537,521.433289,495.205536,521.479309,495.777405,521.646851C496.86554,521.927307,497.986542,522.060303,499.109436,522.041382C501.510529,522.022278,503.886536,521.562256,506.121155,520.685913C506.686523,520.388306,507.277527,520.142273,507.88678,519.951538C508.202515,519.864258,508.538544,519.886292,508.839905,520.014038L509.046936,520.127319C509.50354,520.525269,509.873535,521.011292,510.13678,521.557007C510.718536,522.683289,511.384521,523.764282,512.128967,524.791382L513.359436,526.506226C513.880493,527.207275,514.397522,527.912292,514.910217,528.619507C515.203491,529.038269,515.485535,529.465271,515.753967,529.900757C515.869507,530.221313,516.024536,530.525269,516.214905,530.807007C516.88855,531.881287,517.574524,532.948303,518.273499,534.006226C519.670532,536.30127,520.982544,538.646301,522.207092,541.037476C522.742554,542.096313,523.397522,543.089294,524.160217,543.998413C524.444519,544.311279,524.811523,544.538269,525.218811,544.650757C525.496521,544.692261,525.778564,544.625305,526.007874,544.463257C526.409546,544.204285,526.685547,543.789307,526.769592,543.318726C526.82251,543.127319,526.858521,542.930298,526.878967,542.732788C527.045532,541.224304,527.011536,539.700317,526.777405,538.201538C526.659546,537.349304,526.504517,536.501282,526.312561,535.662476C525.579529,532.145264,525.114502,528.578308,524.921936,524.990601C524.818542,522.669312,524.586548,520.356323,524.226624,518.060913C524.179565,517.819275,524.121521,517.579285,524.054749,517.342163C523.74353,516.540283,523.098511,515.913269,522.289124,515.623413C521.448486,515.31427,520.571533,515.11731,519.679749,515.037476C516.709534,514.83429,513.782532,514.220276,510.98053,513.213257C510.185516,512.918274,509.440521,512.502319,508.773499,511.978851C508.224518,511.54129,507.724518,511.046295,507.281311,510.502289C506.722534,509.928284,506.269531,509.258301,505.945374,508.525726C505.723541,507.93927,505.657532,507.305298,505.753967,506.685883C505.940521,505.360291,506.281525,504.061279,506.769592,502.814789C507.148529,501.88028,507.946533,501.179291,508.921936,500.924164C509.849518,500.682281,510.803528,500.553284,511.76178,500.541351C512.792542,500.499298,513.824524,500.489288,514.85553,500.510101z"/>
</svg>
