<?xml version="1.0" encoding="UTF-8"?>
<svg xmlns="http://www.w3.org/2000/svg" width="668.978mm" height="598.184mm" viewBox="-1392.325562 -938.088013 668.977600 598.184021">
    <path transform="matrix(-1,0,0,-1,-618.219971,-17.015991)" style="stroke:#000000;stroke-width:0.05mm;fill:none" d="M379.399994,322.888C380.799957,322.866791,382.19986,322.930939,383.59201,323.079987C384.0737,323.154205,384.537354,323.317291,384.959991,323.559998C386.313873,324.332886,387.589233,325.235809,388.768005,326.256012C390.53067,327.738922,392.153381,329.380463,393.615997,331.160004C393.998657,331.651672,394.340973,332.173431,394.640015,332.720001C394.86731,333.210632,395.025665,333.730255,395.112,334.264008C395.437714,336.26593,395.592957,338.29184,395.575989,340.320007L395.59201,341.40799L395.59201,347.864014C396.737762,349.538788,397.892975,351.208893,399.056,352.872009C399.888977,354.088898,400.831604,355.226929,401.872009,356.272003C402.613586,356.951294,403.458527,357.508179,404.376007,357.920013C405.335449,358.434784,406.227631,359.066193,407.032013,359.799988C408.033112,360.638397,408.934906,361.588562,409.720001,362.631989C409.915985,362.907898,410.0672,363.212921,410.167999,363.536011C410.187286,363.743713,410.258606,363.942444,410.368011,364.119995C410.521362,364.451538,410.692047,364.77478,410.880005,365.088013C411.824646,366.768921,412.797852,368.432678,413.799988,370.079987C415.430481,372.950073,416.749878,375.98587,417.735992,379.135986C418.818909,382.585632,419.755768,386.079437,420.544006,389.608002C420.848389,390.949707,421.205994,392.278778,421.615997,393.59201C422.145538,395.174408,422.914612,396.666412,423.895996,398.015991C424.680603,399.121643,425.486267,400.212769,426.312012,401.287994C426.800232,401.975861,427.193268,402.726685,427.480011,403.519989C427.801971,404.592957,427.887115,405.723114,427.727997,406.832001C427.495178,408.485565,427.161163,410.12326,426.727997,411.735992C425.310974,417.132111,423.503571,422.417999,421.320007,427.552002C420.67511,429.064484,420.145721,430.623627,419.735992,432.216003C419.355347,433.928314,419.285004,435.694824,419.528015,437.432007C419.68576,438.644928,419.891296,439.851288,420.144012,441.048004C420.600739,443.347687,421.040192,445.646057,421.463989,447.951996C421.721832,448.970734,422.1698,449.931305,422.783997,450.783997C423.476166,451.738159,424.235321,452.641846,425.056,453.488007C426.032837,454.550568,426.873993,455.730103,427.559998,457C428.151581,458.22403,428.607697,459.508881,428.920013,460.832001C429.300659,462.564758,429.623474,464.309814,429.888,466.063995C430.256622,468.219604,430.613922,470.376709,430.959991,472.536011C431.347137,475.618347,431.621979,478.713745,431.783997,481.81601C431.957672,484.495361,432.294312,487.16156,432.791992,489.799988C432.969971,490.537842,433.13266,491.279388,433.279999,492.023987C433.637939,494.568604,433.825073,497.134399,433.839996,499.70401C433.942902,505.234772,433.573578,510.76413,432.735992,516.231995C432.313477,519.807495,432.192963,523.412231,432.376007,527.007996C432.546631,529.631104,432.589447,532.260803,432.503998,534.888C432.379974,537.289734,432.085876,539.67981,431.623993,542.039978C431.276215,543.957703,431.017212,545.89032,430.847992,547.83197C430.740143,549.399475,431.668243,550.855225,433.135986,551.416016C433.987366,551.781799,434.905396,551.967102,435.832001,551.960022C436.564697,551.951416,437.297272,551.994324,438.023987,552.088013C439.754639,552.330261,441.388397,553.035156,442.752014,554.127991C444.116638,555.271057,445.37262,556.53772,446.503998,557.911987C447.467224,559.066895,448.529877,560.135071,449.679993,561.104004C450.182037,561.495056,450.74057,561.807434,451.335999,562.031982C452.161713,562.301697,453.048065,562.3255,453.888,562.104004C454.791321,561.885925,455.674469,561.591492,456.528015,561.223999C457.535675,560.798279,458.576508,560.455933,459.640015,560.200012C461.200989,559.883362,462.815521,559.952087,464.343994,560.400024C466.088715,560.874146,467.770203,561.556335,469.35199,562.432007C471.786163,563.718384,474.022278,565.348389,475.992004,567.271973C476.623688,567.9328,477.234772,568.613098,477.824005,569.312012C478.541382,570.113586,479.343109,570.835388,480.216003,571.463989C481.395447,572.274292,482.754852,572.784851,484.175995,572.952026C485.920746,573.181824,487.680725,573.275452,489.440002,573.231995C490.68335,573.229919,491.926453,573.261841,493.167999,573.328003C494.31073,573.406433,495.436401,573.646179,496.511993,574.039978C497.447052,574.402527,498.332153,574.883179,499.144012,575.471985C500.330688,576.298584,501.478485,577.179688,502.584015,578.112C503.2388,578.621155,503.998779,578.977905,504.808014,579.159973C506.072266,579.471802,507.363556,579.661316,508.664001,579.728027C510.315308,579.821716,511.952881,580.081665,513.552002,580.504028C514.905396,580.937683,516.12262,581.717712,517.080017,582.768005C517.729248,583.436157,518.313477,584.164673,518.823975,584.94397C519.674866,586.123779,520.633667,587.221802,521.687988,588.223999C521.830933,588.331543,521.981689,588.428589,522.143982,588.504028C522.303162,588.587708,522.4776,588.63855,522.656006,588.664001C524.821289,589.177124,527.01062,589.583069,529.216003,589.880005C531.428223,590.234253,533.658203,590.466553,535.895996,590.575989C536.776672,590.588379,537.656189,590.507813,538.52002,590.335999C539.634766,590.071655,540.601929,589.380249,541.208008,588.40802C541.791199,587.565369,542.239441,586.636902,542.536011,585.656006C543.16925,583.827332,543.63501,581.944885,543.927979,580.031982C544.49939,577.029358,545.260864,574.06604,546.208008,571.159973C547.169495,568.138611,547.618469,564.9776,547.536011,561.807983C547.502258,560.191162,547.630737,558.575073,547.919983,556.984009C548.272583,555.413086,549.020813,553.958374,550.096008,552.76001C551.351379,551.390198,552.557556,549.975952,553.711975,548.52002C554.039917,548.09259,554.365112,547.663269,554.687988,547.231995C556.015869,545.657104,557.688232,544.408447,559.575989,543.583984C560.598511,543.167175,561.574402,542.644165,562.487976,542.023987C563.148254,541.493225,563.587097,540.733887,563.711975,539.895996C563.840393,539.069702,563.915222,538.235962,563.935974,537.400024C563.913879,534.992065,563.927185,532.583557,563.976013,530.176025C564.003113,529.194763,564.115906,528.217834,564.312012,527.255981C564.612976,526.028442,565.084717,524.849243,565.711975,523.752014C566.37616,522.4776,566.89624,521.133301,567.263977,519.744019C567.521851,518.56488,567.634521,517.358459,567.599976,516.151978C567.629761,515.113525,567.838562,514.087891,568.216003,513.119995C568.791077,511.832855,569.731628,510.742401,570.919983,509.984009C572.077759,509.175293,573.313293,508.484039,574.607971,507.920013C576.178772,507.189758,577.67627,506.310974,579.080017,505.29599C579.247437,505.152008,579.407471,504.999664,579.559998,504.839996C579.631226,504.703552,579.699341,504.56546,579.76001,504.424011C579.80365,504.275696,579.844543,504.126495,579.880005,503.976013C580.229797,502.367737,580.467773,500.737183,580.59198,499.096008C580.837646,496.965729,581.331848,494.871521,582.064026,492.855988C582.957397,490.841248,583.508972,488.691956,583.695984,486.496002C583.97522,483.141541,583.883911,479.76651,583.424011,476.432007C583.029114,473.182831,582.435913,469.960846,581.64801,466.783997C581.497559,466.154205,581.237732,465.555695,580.880005,465.015991C580.236511,464.06073,579.481995,463.185272,578.632019,462.40799C577.340332,461.168701,575.960876,460.0242,574.504028,458.984009C571.631714,456.888458,568.642883,454.957306,565.552002,453.200012C561.34729,450.75946,557.053589,448.475159,552.679993,446.35199C551.373108,445.716248,550.127869,444.961029,548.960022,444.096008C547.804077,443.177917,546.926758,441.955963,546.424011,440.567993C545.836304,438.983643,545.472778,437.324951,545.343994,435.640015C545.018616,432.63205,545.031921,429.596985,545.383972,426.59201C545.463318,426.033905,545.586243,425.482819,545.752014,424.944C546.002014,424.319336,546.362549,423.745056,546.815979,423.247986C548.001587,421.900635,549.296692,420.653687,550.687988,419.519989C551.990906,418.426727,553.373413,417.432068,554.823975,416.544006C555.307922,416.265228,555.816833,416.032379,556.343994,415.847992C557.652588,415.491547,558.987427,415.239899,560.335999,415.096008C562.242065,414.866638,564.154968,414.701263,566.072021,414.600006C569.469604,414.419983,572.858704,414.107788,576.231995,413.664001C580.679382,412.851624,585.161194,412.243042,589.664001,411.839996C591.001282,411.738464,592.344543,411.749237,593.679993,411.872009C595.307861,412.062866,596.899902,412.486145,598.40802,413.127991C600.867371,414.18811,603.268066,415.37915,605.599976,416.696014C606.233521,417.045685,606.840393,417.441498,607.416016,417.880005C608.819031,418.973419,609.859131,420.465485,610.400024,422.160004C610.901123,423.751984,611.275757,425.381012,611.52002,427.032013C611.992615,430.183685,612.421875,433.340668,612.807983,436.503998C612.992798,437.828308,613.24646,439.14212,613.567993,440.440002C613.780151,441.167938,614.098389,441.860565,614.512024,442.496002C615.019409,443.185516,615.713135,443.716248,616.512024,444.023987C617.369934,444.36145,618.249084,444.642487,619.143982,444.864014C620.660767,445.310089,621.99408,446.232086,622.94397,447.496002C623.495422,448.181641,623.980469,448.918274,624.392029,449.696014C625.572693,451.941559,626.821228,454.15033,628.135986,456.320007C628.79303,457.551514,629.331116,458.842651,629.744019,460.175995C629.91217,460.669556,630.064087,461.168579,630.200012,461.671997C630.958435,463.949188,631.817871,466.191437,632.776001,468.391998C633.310608,469.75061,633.613098,471.189209,633.671997,472.64801C633.774109,475.003937,633.800781,477.362427,633.752014,479.720001C633.694885,483.221039,633.710938,486.72348,633.799988,490.223999C633.838989,491.436432,633.940491,492.645996,634.104004,493.847992C634.153137,494.113403,634.227966,494.373291,634.328003,494.623993C634.770203,495.397827,635.468689,495.993103,636.304016,496.303986C637.673523,496.826202,639.163513,496.947418,640.599976,496.656006C642.085144,496.408691,643.460632,495.717529,644.544006,494.671997C645.007324,494.189941,645.380981,493.628967,645.64801,493.015991C645.832214,492.439423,645.924011,491.83728,645.919983,491.231995C645.908936,489.60556,645.831482,487.980164,645.687988,486.359985C645.541077,484.412262,645.565063,482.455475,645.76001,480.511993C645.906189,479.3685,646.240295,478.257019,646.752014,477.223999C647.306885,476.177673,648.021362,475.22406,648.872009,474.399994C649.803101,473.49823,650.746277,472.579346,651.671997,471.671997C651.584961,469.124268,651.526245,466.57312,651.495972,464.023987C651.487793,463.213074,651.541382,462.402802,651.656006,461.600006C651.796753,460.829559,652.091309,460.095428,652.52002,459.440002C653.029541,458.709534,653.502136,457.953827,653.935974,457.175995C654.70282,455.748505,655.027527,454.124939,654.872009,452.511993C654.758972,451.482758,654.555481,450.465515,654.263977,449.471985C654.113892,448.892761,653.943359,448.31897,653.752014,447.752014C653.260559,446.219543,652.912292,444.644836,652.711975,443.048004C652.487305,441.110809,652.945618,439.155365,654.007996,437.519989C654.775635,436.350983,655.639832,435.248352,656.59198,434.223999C658.058594,432.530792,659.348206,430.692017,660.440002,428.735992C661.977722,426.101013,663.201721,423.295288,664.088013,420.376007C664.337158,419.438171,664.518799,418.483704,664.632019,417.519989C664.888184,415.628967,665.419189,413.785645,666.208008,412.048004C666.75885,410.900726,667.461121,409.83252,668.296021,408.872009C669.429993,407.433411,670.032898,405.647491,670,403.81601C670.005981,402.525269,669.872131,401.237762,669.599976,399.976013C668.854309,396.770691,668.475891,393.490936,668.471985,390.200012C668.425476,388.538269,668.216675,386.88504,667.848022,385.264008C667.749756,384.893402,667.613342,384.533997,667.440002,384.191986C666.763,383.066315,666.031433,381.974365,665.247986,380.920013C662.142212,376.634857,658.920044,372.436554,655.583984,368.328003C652.630066,364.643341,649.720459,360.922943,646.856018,357.167999C645.969971,355.967834,645.137207,354.729309,644.359985,353.455994C643.792236,352.475677,643.373962,351.416077,643.119995,350.312012C642.997498,349.560974,642.938782,348.800934,642.94397,348.040009C642.90979,346.217804,642.947266,344.395172,643.05603,342.575989C643.161621,341.25473,643.419312,339.950165,643.823975,338.687988C644.323792,337.29892,645.111572,336.030945,646.135986,334.967987C647.210938,333.742218,648.484741,332.70636,649.903992,331.903992C651.076416,331.274384,652.305908,330.757263,653.575989,330.359985C657.095764,329.191315,660.694153,328.274353,664.343994,327.615997C668.533813,326.910858,672.775269,326.557709,677.023987,326.559998C681.254639,326.520538,685.48468,326.656708,689.703979,326.967987C691.84436,327.170227,693.954224,327.618591,695.992004,328.303986C698.291077,328.997253,700.54364,329.836273,702.736023,330.81601C703.521301,331.200897,704.273193,331.650513,704.984009,332.160004C705.669067,332.683105,706.280396,333.296326,706.799988,333.984009C708.451538,336.151611,709.994751,338.399811,711.424011,340.720001C713.370422,343.777161,715.185364,346.916016,716.864014,350.127991C717.381836,351.134399,717.825623,352.177124,718.192017,353.247986C718.407104,353.911652,718.570068,354.591064,718.679993,355.279999C718.768127,356.250214,718.743835,357.227295,718.607971,358.191986C718.359436,360.002167,718.063354,361.805359,717.719971,363.600006C716.825195,368.810913,716.187134,374.062347,715.807983,379.335999C715.350342,385.173126,715.006226,391.021332,714.776001,396.872009C714.709656,400.250458,714.95874,403.627838,715.52002,406.959991C715.983887,409.780884,716.416199,412.609619,716.815979,415.440002C717.45166,420.356567,717.849487,425.301147,718.007996,430.256012C718.312988,438.344666,718.470337,446.441406,718.47998,454.536011C718.45282,456.058533,718.370056,457.579498,718.231995,459.096008C717.998108,460.827606,717.693604,462.549103,717.320007,464.256012C716.842773,466.707794,716.375488,469.145294,715.911987,471.600006C714.787415,477.292236,713.434387,482.936462,711.856018,488.519989C711.041382,491.457428,710.339539,494.424744,709.752014,497.415985C709.28009,500.003601,709.124329,502.638794,709.288025,505.264008C709.436279,507.269653,709.700989,509.264893,710.080017,511.23999C711.005249,516.132202,711.869629,521.038269,712.671997,525.952026C713.910767,533.185303,715.08313,540.419067,716.192017,547.671997C716.69519,550.730103,717.258057,553.779602,717.880005,556.815979C718.55542,559.961914,719.129028,563.129089,719.599976,566.312012C720.143677,570.077087,720.514771,573.864929,720.711975,577.664001C720.906799,582.134338,721.240356,586.598206,721.711975,591.047974C721.800354,591.754211,721.904419,592.458313,722.023987,593.159973C722.289612,595.730896,722.444458,598.311829,722.487976,600.895996C722.528809,602.404785,722.550171,603.914612,722.552002,605.424011C722.582275,608.212402,722.723877,610.998779,722.976013,613.776001C723.068787,614.494019,723.16748,615.211609,723.271973,615.927979C723.525635,618.906189,723.68042,621.891602,723.736023,624.880005C723.876709,629.88147,723.876709,634.886841,723.736023,639.888C723.650818,641.776672,723.42627,643.656433,723.064026,645.512024C722.819336,646.738525,722.539124,647.957703,722.223999,649.16803C721.418213,652.601318,720.55249,656.265381,719.736023,659.695984C718.598145,664.269043,717.390015,668.824036,716.112,673.359985L713.35199,683.216003C713.726807,685.838562,714.109375,688.444397,714.504028,691.064026C715.050049,694.644653,715.808716,698.189514,716.776001,701.679993C717.379578,703.755615,718.139038,705.782715,719.047974,707.744019C719.690369,709.073975,720.496216,710.318604,721.447998,711.447998C722.201355,712.299255,723.129089,712.978638,724.16803,713.440002C725.458008,714.037109,726.835632,714.423523,728.247986,714.583984C729.668579,714.730957,731.062378,715.070679,732.392029,715.59198C733.83905,716.195129,734.952087,717.398132,735.440002,718.888C735.880005,720.200684,736.155151,721.563171,736.255981,722.94397C736.382385,724.147217,736.553406,725.345337,736.768005,726.536011C736.968506,727.551025,737.306702,728.533875,737.776001,729.455994L737.911987,729.679993C738.533752,730.657104,739.45813,731.405273,740.544006,731.807983C741.70813,732.248596,742.923218,732.53949,744.159973,732.679993C745.18335,732.813477,746.206604,732.938843,747.231995,733.05603C749.268738,733.339355,751.243347,733.963501,753.072021,734.903992C755.400574,736.165833,757.325806,738.059448,758.624023,740.367981C759.281982,741.496216,759.828064,742.685974,760.255981,743.919983C760.554504,744.930603,760.735718,745.972168,760.799988,747.023987C760.937988,749.138428,761.002075,751.25708,760.992004,753.375977C761.052246,760.313049,761.025513,767.255737,760.911987,774.192017C760.879944,775.042114,760.858643,775.893311,760.848022,776.744019C760.879028,777.927063,761.210388,779.082458,761.807983,780.104004C763.084656,782.36438,764.557251,784.508484,766.208008,786.512024C767.095093,787.605896,768.023621,788.665344,768.992004,789.687988C769.751831,790.539978,770.462402,791.434814,771.119995,792.367981C771.979919,793.673889,772.649109,795.096008,773.104004,796.59198C773.968079,799.08429,774.277832,801.735168,774.015991,804.359985C773.915283,805.658508,773.73114,806.94928,773.463989,808.223999C772.805969,811.442078,772.03479,814.636169,771.151978,817.799988C769.880188,822.359192,768.746338,826.956299,767.752014,831.583984C767.042297,834.789001,766.35968,837.999512,765.703979,841.216003C765.04071,844.367126,764.228943,847.485352,763.271973,850.559998C762.493896,852.993896,761.447449,855.333557,760.151978,857.536011C758.967346,859.409424,757.429932,861.034851,755.624023,862.320007C754.205017,863.309753,752.65686,864.100281,751.023987,864.671997C749.268188,865.322021,747.469177,865.84845,745.640015,866.247986C742.669067,866.85968,739.71051,867.534607,736.768005,868.271973C735.065918,868.729431,733.399902,869.312134,731.783997,870.015991C730.17865,870.742554,728.65509,871.637939,727.23999,872.687988C724.867859,874.473511,722.567444,876.352356,720.343994,878.320007C718.752441,879.669678,717.124939,880.976807,715.463989,882.23999C714.139771,883.204956,712.734802,884.053955,711.263977,884.776001C709.19989,885.72345,706.989807,886.31366,704.728027,886.52002C702.42926,886.755615,700.118408,886.851624,697.807983,886.807983C696.538818,886.805542,695.268677,886.786743,694,886.752014L684.583984,886.544006C680.272583,884.389038,675.987305,882.202515,671.711975,879.976013C668.988953,878.530518,666.322937,876.979919,663.719971,875.328003C662.52124,874.531799,661.370056,873.666138,660.271973,872.736023C659.65155,872.196594,659.108215,871.574585,658.656006,870.888C657.375122,868.733337,656.210632,866.511536,655.16803,864.231995C654.464417,862.710754,653.660156,861.237915,652.76001,859.823975C651.844482,858.403198,650.817444,857.057434,649.687988,855.799988C648.518494,854.504761,647.328552,853.226929,646.119995,851.968018C644.306396,850.042114,642.609924,848.009216,641.039978,845.880005C639.463867,843.690979,638.289368,841.239136,637.567993,838.640015C637.172913,837.103394,636.91626,835.534363,636.799988,833.952026C636.640991,832.306274,636.565918,830.653381,636.575989,829C636.538086,826.57843,636.564941,824.156067,636.656006,821.736023C636.758118,820.06189,637.184692,818.42334,637.911987,816.911987C638.410767,815.812622,638.933472,814.724365,639.47998,813.64801C640.587158,811.522034,641.946289,809.537048,643.528015,807.736023C645.377075,805.687866,647.50769,803.912903,649.856018,802.463989C652.26825,800.929321,654.584473,799.24884,656.791992,797.432007C657.674255,796.742676,658.613586,796.129639,659.599976,795.599976C660.731323,795.055542,662.027283,794.964172,663.223999,795.343994C664.25885,795.696716,665.085632,796.487427,665.487976,797.504028C665.840515,798.472839,665.906128,799.522156,665.679993,800.528015C665.581726,801.008423,665.45343,801.482361,665.288025,801.94397C664.922974,803.107178,664.917725,804.353455,665.271973,805.52002C665.692505,806.673401,666.245667,807.774109,666.919983,808.799988C667.253662,809.307556,667.600647,809.806274,667.960022,810.296021C668.520264,811.118286,669.035278,811.970398,669.504028,812.848022C670.658936,815.125916,671.101563,817.698914,670.776001,820.231995C670.617981,821.600586,670.350769,822.954285,669.976013,824.280029C669.411499,826.192383,668.991333,828.144592,668.719971,830.119995C668.559814,831.302856,668.638977,832.506348,668.960022,833.656006C669.26355,834.595703,669.772095,835.456116,670.447998,836.176025C671.867249,837.721802,673.511963,839.044434,675.328003,840.096008C677.321655,841.19574,679.563171,841.76825,681.840027,841.76001C683.45575,841.781311,685.07019,841.658081,686.664001,841.392029C689.909668,840.862061,693.124939,840.159607,696.296021,839.288025C697.367615,838.993225,698.422424,838.640564,699.455994,838.231995C700.290039,837.87793,701.074524,837.417419,701.791992,836.864014C702.557434,836.224548,703.161804,835.413879,703.552002,834.495972C703.966248,833.542542,704.278076,832.547729,704.47998,831.528015C704.756592,829.960938,705.082214,828.402771,705.455994,826.856018C706.10614,824.386963,707.29541,822.092407,708.935974,820.135986C709.893738,818.992615,710.831482,817.867737,711.783997,816.719971C712.629639,815.727234,713.344727,814.630249,713.911987,813.455994C714.33667,812.493408,714.553955,811.452148,714.552002,810.400024C714.526978,809.051208,714.454712,807.703796,714.335999,806.359985L713.783997,798.392029L713.231995,790.416016C713.1427,788.889526,712.963928,787.369507,712.695984,785.864014C712.406189,784.48291,711.934937,783.14624,711.296021,781.888C709.940247,778.998413,708.193115,776.309143,706.104004,773.895996C702.805054,770.066284,699.030457,766.673584,694.872009,763.799988C690.714111,760.863586,686.266968,758.360168,681.599976,756.328003C677.854065,754.630859,674.00354,753.174622,670.072021,751.968018C669.192749,751.720337,668.300842,751.519836,667.400024,751.367981C666.803467,751.299011,666.199585,751.338074,665.616028,751.47998C663.553223,751.912964,661.544006,752.570313,659.624023,753.440002C657.983643,754.140991,656.303345,754.744507,654.59198,755.247986C652.102844,755.957275,649.495911,756.15564,646.927979,755.83197C645.50708,755.648804,644.092896,755.416687,642.687988,755.135986C639.944702,754.62854,637.157349,754.39801,634.367981,754.447998C630.138733,754.49884,625.911987,754.693604,621.695984,755.031982C620.091187,755.159973,618.500977,755.430847,616.94397,755.840027C614.89447,756.413391,613.091003,757.64801,611.815979,759.35199C611.284058,760.0354,610.761292,760.72644,610.247986,761.424011C609.640564,762.236145,608.918701,762.955994,608.104004,763.559998C607.272095,764.120911,606.317261,764.473694,605.320007,764.583984C603.963623,764.752075,602.589294,764.70282,601.247986,764.440002C597.315735,763.726929,593.424927,762.802917,589.59198,761.671997C587.290283,761.002197,585.006958,760.27124,582.744019,759.47998C581.022034,758.887634,579.263794,758.406311,577.47998,758.039978C577.263672,757.999695,577.042847,757.986572,576.823975,758.007996C575.914307,758.186218,575.030273,758.476318,574.192017,758.872009C572.95166,759.453125,571.734802,760.08313,570.544006,760.76001C569.539917,761.27771,568.455078,761.621399,567.335999,761.776001C566.836243,761.866577,566.331238,761.92572,565.823975,761.952026C562.632385,762.15686,559.436829,762.306152,556.23999,762.400024C554.168701,762.499084,552.100708,762.664368,550.039978,762.895996C549.236206,763.001404,548.445557,763.189392,547.679993,763.455994C547.273682,763.61084,546.880737,763.798767,546.504028,764.015991C544.745483,764.911804,542.757813,765.25708,540.799988,765.007996C539.729126,764.897461,538.671204,764.685242,537.640015,764.375977C536.062256,763.890503,534.466553,763.466125,532.856018,763.104004C532.133423,762.970703,531.398071,762.918762,530.664001,762.952026C529.723816,763.039917,528.826965,763.390198,528.080017,763.968018C527.527344,764.365234,527.003113,764.80072,526.512024,765.271973C525.433899,766.297974,524.213318,767.162842,522.888,767.840027L522.424011,768.047974C521.866089,768.196411,521.285034,768.237793,520.711975,768.16803C519.456055,768.015808,518.21637,767.75061,517.007996,767.375977C514.134094,766.51709,511.289856,765.56189,508.480011,764.512024C505.935364,763.591797,503.382294,762.652466,500.847992,761.703979L482.712006,762.263977C476.17804,762.447693,469.650635,762.75177,463.127991,763.176025C461.961212,763.270325,460.797852,763.403687,459.640015,763.575989C456.991394,763.875977,454.329315,764.044128,451.664001,764.080017C447.978912,764.180603,444.328918,764.825134,440.832001,765.992004C439.710632,766.392273,438.622101,766.879333,437.575989,767.447998C436.188904,768.163635,434.648773,768.531494,433.088013,768.52002C431.641296,768.513367,430.196167,768.422546,428.76001,768.247986L425.855988,767.888L422.959991,767.528015C418.950958,767.114807,414.925842,766.877258,410.895996,766.815979L402.391998,766.815979L376.696014,775.192017L342.735992,809.288025L332.640015,832.127991L322.536011,854.976013L314.287994,860.752014C311.585327,862.628113,309.158936,864.874023,307.079987,867.424011C306.4505,868.228821,305.921692,869.107483,305.503998,870.039978C305.390686,870.353943,305.309723,870.678528,305.256012,871.007996C304.854156,872.300842,304.263824,873.527466,303.503998,874.64801C302.189392,876.761658,300.738403,878.787292,299.160004,880.711975C294.305603,886.794495,288.930725,892.442383,283.096008,897.59198C281.691498,898.789185,280.214081,899.898132,278.671997,900.911987C278.06958,901.284241,277.428253,901.589539,276.76001,901.823975C276.416992,901.905701,276.064087,901.939087,275.712006,901.919983C274.459106,901.993958,273.284058,902.550415,272.432007,903.471985C271.921112,904.048584,271.634521,904.789673,271.623993,905.559998C271.538177,906.105835,271.235565,906.593567,270.783997,906.911987C269.934937,907.619507,268.999268,908.215881,268,908.687988C265.661865,909.821533,263.248138,910.791809,260.776001,911.59198C254.393753,913.736145,247.827209,915.286743,241.160004,916.223999C239.326797,916.453003,237.478531,916.538696,235.632004,916.47998C234.989716,916.427063,234.354584,916.308777,233.735992,916.127991C233.415283,915.988831,233.100449,915.836609,232.792007,915.671997C232.192032,915.408997,231.543091,915.276001,230.888,915.280029C228.626633,915.287598,226.427536,916.0224,224.615997,917.375977L219.591995,921.072021L200.856003,915.984009C191.694809,913.556885,182.360657,911.837158,172.936005,910.840027C171.493423,910.70874,170.047729,910.618042,168.600006,910.567993L155.072006,910.23999C154.876221,906.685242,154.690186,903.148865,154.511993,899.59198C154.355164,896.399597,154.3311,893.202393,154.440002,890.007996C154.476746,889.358704,154.530106,888.710571,154.600006,888.064026C154.602325,887.468811,154.368484,886.897217,153.951996,886.471985C153.463013,885.976074,152.845123,885.626831,152.167999,885.463989C151.673691,885.323181,151.161972,885.253601,150.647995,885.255981L146.223999,885.255981L147.335999,877.968018C147.492172,876.781433,147.497406,875.579956,147.352005,874.392029C147.077057,871.835327,146.513474,869.317932,145.671997,866.888C145.01738,864.913757,144.193039,862.999939,143.207993,861.16803L137.960007,851.64801L140.511993,843.607971L143.056,835.583984C138.952667,834.630066,134.860382,833.654968,130.768005,832.656006C127.397865,831.747742,124.12175,830.520874,120.984001,828.992004C118.55777,827.846436,116.229958,826.503296,114.024002,824.976013C113.464005,824.576965,112.924606,824.14978,112.407997,823.695984L105.127998,817.367981L105.127998,809.624023C105.173141,808.431946,105.363976,807.249817,105.695999,806.104004C106.660629,802.747864,107.94104,799.490601,109.519997,796.375977C110.992271,793.347778,112.651482,790.414124,114.487999,787.59198L123.856003,773.296021L150.904007,764.288025L177.968002,755.271973L187.335999,746.695984L196.695999,738.119995L196.695999,715.640015L208.272003,715.640015C210.498962,715.618835,212.719101,715.391235,214.904007,714.960022C216.483047,714.611389,218.001083,714.029175,219.408005,713.231995C221.469467,711.997253,223.109695,710.167969,224.112,707.984009C224.96019,706.239929,225.575958,704.39209,225.944,702.487976C226.482178,699.857849,226.829834,697.1922,226.983994,694.512024L227.919998,681.320007C231.38028,681.306396,234.8591,681.298584,238.320007,681.296021L238.376007,678.112C238.064819,677.323792,237.736771,676.542175,237.391998,675.768005C235.96431,672.184021,235.20256,668.369446,235.143997,664.512024C235.110565,663.212585,235.142609,661.912231,235.240005,660.616028C235.276489,660.047913,235.340652,659.481873,235.432007,658.919983C235.715042,657.370422,236.365448,655.91095,237.328003,654.664001C237.735641,654.133972,238.148788,653.608887,238.567993,653.088013C238.849457,652.731506,239.08992,652.344727,239.287994,651.935974C239.423355,650.128296,239.588791,648.322144,239.783997,646.52002C239.521912,644.871033,239.185623,643.23468,238.776001,641.616028C238.115936,638.744202,237.632385,635.834839,237.328003,632.903992C237.255096,631.961609,237.249847,631.015198,237.311996,630.072021C237.372589,629.53479,237.548096,629.016968,237.824005,628.552002C238.484924,627.340271,239.320633,626.232544,240.304001,625.263977C241.039764,624.548523,241.68457,623.745056,242.223999,622.872009C242.705063,622.000793,242.831284,620.977905,242.576004,620.015991C242.365067,619.13855,242.075745,618.281921,241.712006,617.455994C241.067886,616.06665,240.57196,614.61322,240.231995,613.119995C239.913773,611.650208,240.115356,610.11499,240.800003,608.776001C240.950806,608.477295,241.116241,608.186218,241.296005,607.903992C242.221832,606.2453,242.964935,604.491089,243.511993,602.671997C244.164993,600.825439,245.10733,599.094543,246.304001,597.544006C246.89679,596.712891,247.375778,595.806213,247.727997,594.848022C248.366241,593.08905,248.879578,591.287231,249.264008,589.455994C249.667419,587.84375,249.956131,586.205017,250.128006,584.552002C250.220184,582.767639,250.182892,580.978943,250.016006,579.200012C249.754791,576.257141,249.533356,573.308716,249.352005,570.359985C249.301254,569.014832,249.341354,567.667725,249.472,566.328003C249.577011,565.429382,249.863251,564.561584,250.311996,563.776001C250.822983,563.002747,251.54451,562.391235,252.391998,562.015991C253.129395,561.655457,253.882095,561.327148,254.647995,561.031982C255.445801,560.68811,256.235413,560.325317,257.015991,559.94397C257.267639,559.739075,257.480499,559.490662,257.640015,559.208008C258.37149,557.950623,258.977112,556.624329,259.447998,555.247986C260.358826,552.687256,261.30835,550.140015,262.29599,547.607971C262.761932,546.462952,263.315613,545.355774,263.951996,544.296021C264.612274,543.272644,265.402863,542.339294,266.303986,541.52002C267.20874,540.674072,268.129089,539.844421,269.063995,539.031982C269.748474,538.413635,270.217102,537.592102,270.399994,536.687988C270.67453,535.45105,270.869537,534.197815,270.984009,532.935974C271.283234,530.091064,271.560211,527.249268,271.81601,524.400024C272.100677,521.460938,272.43399,518.527893,272.81601,515.599976C273.053772,513.693359,273.200623,511.77655,273.256012,509.855988C273.39032,506.436829,273.454376,503.013794,273.447998,499.59201C273.47226,496.990845,273.659241,494.393768,274.007996,491.81601C274.240875,490.367401,274.646362,488.952118,275.216003,487.600006C275.578522,486.791321,276.052521,486.037323,276.623993,485.359985C277.115173,484.728973,277.508545,484.02771,277.791992,483.279999C278.064209,482.386108,278.088745,481.434998,277.864014,480.528015C277.57077,479.317871,277.160919,478.138977,276.640015,477.007996C276.130554,475.891754,275.681854,474.748749,275.29599,473.584015C274.858826,472.114258,274.696075,470.576691,274.81601,469.048004C274.981537,467.081696,275.243164,465.124695,275.600006,463.18399C275.715485,462.362366,275.69696,461.527496,275.544006,460.712006C275.303802,459.445984,274.977722,458.197754,274.567993,456.976013C272.953918,452.414368,271.903473,447.672516,271.440002,442.855988C271.134338,440.177917,270.744751,437.509796,270.272003,434.855988C269.85614,432.066559,269.55188,429.261749,269.359985,426.447998C269.033234,422.25592,268.875763,418.052765,268.888,413.847992C268.911896,413.243622,268.9599,412.640503,269.032013,412.040009C269.082886,411.700775,269.249146,411.389618,269.503998,411.160004C270.326324,410.397034,271.259766,409.763428,272.272003,409.279999C272.895935,408.962036,273.528168,408.660614,274.167999,408.376007C274.973175,407.983276,275.697906,407.443726,276.303986,406.783997C276.772888,406.221161,277.05957,405.529358,277.127991,404.799988C277.390442,403.005981,277.57724,401.201691,277.687988,399.391998C277.960266,395.411346,278.083008,391.421997,278.056,387.432007C278.038391,386.634155,277.922699,385.841705,277.712006,385.071991C277.528656,384.562378,277.207245,384.113892,276.783997,383.776001C276.347351,383.374756,275.882202,383.005707,275.391998,382.671997C273.134796,381.129913,270.795349,379.711853,268.384003,378.424011C266.098663,377.17395,263.742645,376.057373,261.328003,375.079987C259.274475,374.37262,257.251526,373.579956,255.264008,372.70401C254.099716,372.156738,252.997421,371.486176,251.975998,370.70401C250.807159,369.753204,249.794754,368.624817,248.975998,367.359985C247.818115,365.572235,246.765717,363.718475,245.824005,361.808014C244.46077,359.194519,243.177414,356.539703,241.975998,353.847992C241.30513,352.381409,240.792831,350.847473,240.447998,349.272003C240.089035,347.405212,240.341476,345.471924,241.167999,343.76001C241.75296,342.566101,242.424026,341.416412,243.175995,340.320007C244.315887,338.56485,245.541367,336.86676,246.848007,335.231995C247.495193,334.455353,248.282013,333.806854,249.167999,333.320007C249.97348,332.911041,250.836838,332.627899,251.727997,332.480011C253.505264,332.201782,255.29805,332.033478,257.096008,331.976013C262.907745,331.74472,268.712128,331.411469,274.511993,330.976013L276.096008,330.880005C277.749573,330.836029,279.40213,330.997253,281.015991,331.359985C283.302979,331.8638,285.575653,332.429321,287.832001,333.056C291.832153,334.08606,295.792114,335.265503,299.70401,336.59201C301.244415,337.11319,302.744507,337.746857,304.191986,338.488007C304.706024,338.749481,305.177917,339.086578,305.59201,339.488007C305.821747,339.732971,306.025421,340.001099,306.200012,340.287994C307.636108,342.572052,308.970764,344.918365,310.200012,347.320007C311.302063,349.410126,312.371429,351.516846,313.40799,353.640015C315.54248,357.914856,317.751038,362.153259,320.032013,366.35199C322.155945,370.005188,324.144043,373.73587,325.992004,377.536011C327.716492,381.154205,329.12442,384.914886,330.200012,388.776001C330.513245,389.874542,330.806702,390.978882,331.079987,392.088013C332.645203,397.853699,334.620911,403.500183,336.992004,408.984009C338.024109,411.474518,339.008179,413.983917,339.944,416.511993C340.587433,418.323029,341.119049,420.171844,341.536011,422.048004C342.09729,424.733032,342.132446,427.501526,341.640015,430.200012C341.388672,431.527527,341.127441,432.852386,340.855988,434.175995C340.505463,436.005554,340.336426,437.865234,340.35199,439.727997C340.400604,441.588806,340.661072,443.43808,341.127991,445.23999C341.675385,447.408142,342.299774,449.556244,343,451.679993C344.335999,455.973022,345.283813,460.377441,345.832001,464.839996C346.264282,468.532196,346.30188,472.259827,345.944,475.959991C345.773193,477.481598,345.570526,478.998932,345.335999,480.511993C345.169189,481.901581,345.059814,483.297394,345.007996,484.696014C345.039581,485.98111,345.641052,487.184937,346.64801,487.984009C347.519623,488.693634,348.54364,489.192413,349.640015,489.440002C350.064819,489.554016,350.504822,489.600037,350.944,489.575989C351.361816,489.522827,351.757202,489.35672,352.088013,489.096008C352.64386,488.710144,353.125671,488.227509,353.511993,487.671997C353.896606,487.020874,354.160217,486.305359,354.287994,485.559998C354.584229,483.997498,354.811127,482.422577,354.967987,480.839996C355.38385,477.602264,355.704041,474.352631,355.928009,471.096008C356.018616,469.41922,355.957001,467.73764,355.743988,466.071991C355.499756,464.354492,355.111603,462.660614,354.584015,461.007996C353.757813,458.405609,352.942017,455.787048,352.144012,453.175995C351.380249,450.600616,350.707764,447.998932,350.127991,445.376007C349.689056,443.271454,349.434814,441.132782,349.368011,438.984009C349.342072,436.456207,349.676117,433.937683,350.359985,431.503998C350.778198,429.87674,351.011536,428.207581,351.056,426.528015C351.056458,425.728088,350.98114,424.929901,350.832001,424.144012L350.791992,423.895996L349.936005,418.127991L349.071991,412.35199C348.511414,408.545929,348.17746,404.709778,348.071991,400.864014C348.032104,398.833435,348.179291,396.803528,348.511993,394.799988C348.678009,393.931854,348.929657,393.082184,349.264008,392.264008C349.668823,391.265717,349.990143,390.235565,350.223999,389.18399C350.456848,387.904541,350.352203,386.586548,349.920013,385.359985C349.376953,383.763397,348.732971,382.202911,347.992004,380.687988C346.078796,376.463867,343.87619,372.37677,341.399994,368.455994C340.762634,367.503998,340.087463,366.577972,339.376007,365.679993C337.357483,362.951111,335.405151,360.174652,333.519989,357.35199C330.596191,353.175385,327.612122,349.041901,324.567993,344.951996C323.580414,343.583862,322.659302,342.168884,321.808014,340.712006C321.369202,339.901398,321.004913,339.052612,320.720001,338.175995C320.264465,336.596069,320.410126,334.90332,321.127991,333.424011C321.706848,332.021576,322.461975,330.698975,323.376007,329.488007C324.309601,328.374207,325.525452,327.531433,326.895996,327.048004C327.960541,326.630554,329.061127,326.312012,330.18399,326.096008C333.527802,325.457703,336.90332,324.998352,340.29599,324.720001C348.025757,324.055298,355.768372,323.564575,363.519989,323.247986C368.810425,323.009888,374.10434,322.889893,379.399994,322.888z"/>
    <path transform="matrix(-1,0,0,-1,-618.219971,-17.015991)" style="stroke:#000000;stroke-width:0.05mm;fill:none" d="M193.192001,854.039978L195.264008,848.919983C195.710266,847.692322,195.979889,846.407532,196.063995,845.104004C196.325012,842.197327,196.106033,839.267639,195.416,836.432007L193.503998,829.064026L193.192001,854.039978z"/>
    <path transform="matrix(-1,0,0,-1,-618.219971,-17.015991)" style="stroke:#000000;stroke-width:0.05mm;fill:none" d="M180.167999,776.911987C180.209824,778.675476,180.3703,780.434082,180.647995,782.176025C181.482651,787.652405,182.50737,793.098755,183.720001,798.504028C184.983795,804.341431,186.384125,810.148071,187.919998,815.919983C188.695404,818.769348,189.557251,821.59491,190.503998,824.392029C190.772781,825.119507,191.091019,825.827759,191.455994,826.512024C191.544174,826.686462,191.670227,826.839355,191.824005,826.960022C191.861252,826.968872,191.898758,826.97583,191.936005,826.984009L192.024002,826.935974L192.095993,826.872009C192.242767,826.485962,192.319733,826.076965,192.328003,825.664001C192.411835,823.984436,192.39325,822.301331,192.272003,820.624023C191.638184,810.745483,190.309601,800.92395,188.296005,791.231995C187.568176,787.828247,186.695404,784.457336,185.679993,781.127991C185.300522,779.93335,184.835388,778.767639,184.287994,777.640015L184.087997,777.247986L180.296005,770.791992L180.167999,776.911987z"/>
    <path transform="matrix(-1,0,0,-1,-618.219971,-17.015991)" style="stroke:#000000;stroke-width:0.05mm;fill:none" d="M291.312012,794.015991L293.895996,803.880005L295.712006,798.416016C296.06192,797.263794,296.162994,796.050171,296.007996,794.856018C295.769165,792.724976,294.925598,790.706421,293.575989,789.039978L293.135986,788.559998L288.727997,784.159973L291.312012,794.015991z"/>
    <path transform="matrix(-1,0,0,-1,-618.219971,-17.015991)" style="stroke:#000000;stroke-width:0.05mm;fill:none" d="M259.216003,747.280029C260.108887,748.664551,261.042694,750.022705,262.015991,751.35199C265.104126,755.654785,268.315887,759.866943,271.64801,763.984009C275.104462,768.349854,278.700806,772.602539,282.432007,776.736023C283.492706,777.882263,284.592102,778.992249,285.727997,780.064026C286.128143,780.434631,286.574554,780.751709,287.056,781.007996C287.213806,781.09491,287.40976,781.072205,287.544006,780.952026C287.682922,780.811523,287.782196,780.637024,287.839996,780.447998C288.092926,779.818909,288.231628,779.149841,288.247986,778.471985C288.292206,778.166992,288.291382,777.857117,288.247986,777.552002C288.076172,776.810913,287.783722,776.10321,287.384003,775.455994C286.249878,773.512268,284.98288,771.64917,283.59201,769.880005C280.726318,766.139038,277.705017,762.519836,274.536011,759.031982C271.101257,755.155273,267.484009,751.44458,263.696014,747.911987L262.839996,747.151978L258.944,746.83197L259.216003,747.280029z"/>
    <path transform="matrix(-1,0,0,-1,-618.219971,-17.015991)" style="stroke:#000000;stroke-width:0.05mm;fill:none" d="M234.160004,727.088013C236.780518,729.819458,239.421387,732.589478,242.024002,735.335999C243.445038,736.815552,244.97171,738.189819,246.591995,739.447998L242.056,727.088013L234.160004,727.088013z"/>
</svg>
