<?xml version="1.0" encoding="UTF-8"?>
<svg xmlns="http://www.w3.org/2000/svg" width="256.695mm" height="181.440mm" viewBox="-1018.882568 -642.160461 256.695190 181.440308">
    <path transform="matrix(-0.930177,0,0,-0.930177,-410.100708,-101.167519)" style="stroke:#000000;stroke-width:0.05mm;fill:none" d="M592.769531,533.113281C590.397217,534.069519,587.968079,534.878235,585.496094,535.535156C584.909363,535.66272,584.319214,535.774719,583.726563,535.871094C582.687683,536.078613,581.658142,536.329956,580.640625,536.625C578.494812,537.099243,576.30304,537.335144,574.105469,537.328125C572.506104,537.396851,570.91217,537.559753,569.332031,537.816406C568.229126,537.957642,567.119507,538.039673,566.007813,538.0625C556.949951,538.368408,547.881897,538.072266,538.863281,537.175781L537.902344,537.097656C533.400146,536.717773,528.746948,536.317383,524.246094,535.921875L518.792969,535.320313C516.932495,535.216431,515.067505,535.216431,513.207031,535.320313C510.855255,535.391479,508.508667,535.580566,506.175781,535.886719C504.357635,536.17926,502.565582,536.615479,500.816406,537.191406C499.207764,537.647644,497.584656,538.050293,495.949219,538.398438C495.57782,538.490051,495.212585,538.605103,494.855469,538.742188C494.785858,538.786133,494.715363,538.828613,494.640625,538.863281C493.875214,539.048828,493.096985,539.176514,492.3125,539.246094C491.230194,539.397034,490.139557,539.48053,489.046875,539.496094C488.729309,539.421509,488.400757,539.409058,488.078125,539.457031C486.764099,539.654297,485.465454,539.942871,484.191406,540.320313C483.014526,540.656738,481.821625,540.934387,480.617188,541.152344C479.151642,541.495361,477.712982,541.94458,476.3125,542.496094C473.739166,543.452209,471.244659,544.608032,468.851563,545.953125C467.913605,546.54126,466.98584,547.147095,466.070313,547.769531C464.590515,548.700195,463.155334,549.700012,461.769531,550.765625C461.19455,551.287292,460.616364,551.805542,460.035156,552.320313C459.779724,552.528015,459.520416,552.73114,459.257813,552.929688C459.208405,552.947449,459.160797,552.969727,459.113281,552.992188C458.199371,553.777039,457.315826,554.596558,456.464844,555.449219C455.166016,556.650879,453.918762,557.907227,452.726563,559.214844C452.214325,559.893066,451.649872,560.530151,451.039063,561.121094C449.023804,562.886108,447.05545,564.70459,445.136719,566.574219C444.450836,567.200134,443.737946,567.795776,443,568.359375C442.394073,568.860352,441.860199,569.442505,441.414063,570.089844C440.47818,571.641235,439.389404,573.095093,438.164063,574.429688C437.684357,574.940002,437.122101,575.365723,436.5,575.6875C435.902557,576.00708,435.277649,576.272461,434.632813,576.480469C433.252594,576.97644,431.822205,577.319763,430.367188,577.503906C428.313293,577.652283,426.252411,577.679626,424.195313,577.585938C421.054199,577.488281,417.92215,577.19873,414.816406,576.71875C413.637146,576.504883,412.486542,576.155945,411.386719,575.679688C410.859131,575.435242,410.347687,575.157227,409.855469,574.847656C408.764832,574.250854,407.649292,573.700928,406.511719,573.199219C405.864258,572.903442,405.257782,572.525208,404.707031,572.074219C404.154297,571.571167,403.745697,570.929626,403.527344,570.214844C403.343903,569.644653,403.178406,569.068909,403.03125,568.488281C402.551117,567.187927,401.819519,565.994812,400.878906,564.976563C400.081268,564.056213,399.179443,563.231567,398.191406,562.519531C397.230743,561.940674,396.224854,561.440308,395.183594,561.023438C392.969421,560.060486,390.685638,559.266541,388.351563,558.648438C387.704071,558.479553,387.07666,558.241394,386.480469,557.9375C385.938263,557.70575,385.379425,557.515015,384.808594,557.367188C383.59137,557.066406,382.377136,556.749817,381.167969,556.417969C380.59082,556.243164,380.044861,555.978577,379.550781,555.632813C379.246216,555.404175,378.972321,555.137207,378.734375,554.839844C378.564484,554.591614,378.487549,554.29126,378.519531,553.992188C378.599548,552.581543,378.896149,551.191711,379.398438,549.871094C380.110321,547.811584,380.903931,545.781494,381.777344,543.785156C382.317871,542.65863,383.082001,541.653564,384.023438,540.832031C385.56665,539.324341,387.456512,538.218567,389.527344,537.613281C390.617096,537.280518,391.737122,537.056702,392.871094,536.945313C394.447998,536.77063,396.014069,536.509827,397.5625,536.164063C397.714294,536.118835,397.863556,536.065369,398.007813,536C398.155121,535.813721,398.326385,535.647461,398.515625,535.503906C398.694611,535.384216,398.893768,535.297058,399.105469,535.257813C399.943298,535.075134,400.798737,534.985657,401.65625,534.992188C402.404694,534.968689,403.153503,534.955688,403.902344,534.953125L410.136719,534.953125C413.400513,533.436951,416.45047,531.49707,419.207031,529.183594C419.735962,528.759277,420.236755,528.301025,420.707031,527.8125C420.980896,527.518127,421.235291,527.206238,421.46875,526.878906L421.542969,526.734375C421.590485,526.602722,421.62561,526.466858,421.644531,526.328125C421.691223,526.217712,421.782013,526.13092,421.898438,526.101563L421.988281,526.082031L422.078125,526.078125C422.164978,526.049194,422.236511,525.99054,422.296875,525.921875C422.338257,525.85968,422.373077,525.793518,422.40625,525.726563C422.430695,525.491455,422.503998,525.263916,422.621094,525.058594L422.703125,524.960938C422.832001,524.930969,422.956543,524.883789,423.070313,524.816406C423.503052,524.480896,423.82547,524.02417,423.996094,523.503906L424.007813,523.40625C424.175659,522.875854,424.438629,522.380493,424.785156,521.945313C425.064941,521.515747,425.323029,521.07251,425.558594,520.617188C425.576721,520.480469,425.626862,520.350403,425.695313,520.230469C425.947449,519.855347,426.295746,519.555115,426.703125,519.359375C426.773163,519.33905,426.846161,519.335999,426.917969,519.347656C426.947418,519.35907,426.977417,519.367493,427.007813,519.375L427.039063,519.367188L427.054688,519.304688C427.046661,519.262329,427.050415,519.219849,427.046875,519.175781C427.013092,519.111023,426.993805,519.040466,426.980469,518.96875C426.978088,518.896545,426.986298,518.824707,427,518.753906C427.032715,518.724121,427.069519,518.699646,427.113281,518.6875C427.214478,518.634644,427.304016,518.562134,427.375,518.472656C427.674255,518.096863,427.893951,517.66394,428.015625,517.199219C428.031494,517.123535,428.033936,517.04541,428.023438,516.96875C428.200287,516.729309,428.430939,516.535217,428.695313,516.398438C429.140533,516.128906,429.570892,515.835571,429.984375,515.519531C430.658356,514.888123,431.173584,514.106506,431.488281,513.238281C431.804169,512.527344,432.198822,511.854004,432.664063,511.230469C432.907654,510.888947,433.102875,510.515381,433.246094,510.121094C433.278931,509.777649,433.408234,509.450348,433.617188,509.175781C434.213837,508.271088,434.888092,507.420074,435.632813,506.632813C436.410309,505.779755,437.073639,504.829071,437.605469,503.804688C437.740997,503.583893,437.886047,503.369171,438.039063,503.160156L438.144531,503.082031C438.20047,503.019562,438.247772,502.949677,438.277344,502.871094L438.304688,502.742188C438.463867,502.428589,438.672821,502.142822,438.921875,501.894531C439.358154,501.33786,439.706604,500.71759,439.953125,500.054688C440.40625,498.952118,440.693176,497.788391,440.804688,496.601563C440.876862,496.037323,440.987671,495.478668,441.136719,494.929688C441.294281,494.602417,441.370453,494.241943,441.359375,493.878906L441.320313,493.777344C441.319977,493.736786,441.32373,493.696472,441.328125,493.65625C441.361664,493.571289,441.407806,493.492218,441.460938,493.417969C441.56897,493.325562,441.664795,493.219513,441.75,493.105469C441.800812,493.002197,441.836639,492.891907,441.847656,492.777344C441.845551,492.705597,441.833679,492.634247,441.800781,492.570313C441.795135,492.507965,441.793243,492.445343,441.796875,492.382813L441.828125,492.324219L441.875,492.28125C441.918701,492.265228,441.96286,492.250458,442.007813,492.238281L442.097656,492.234375C442.283661,492.22757,442.445038,492.100891,442.496094,491.921875C442.528198,491.784912,442.543243,491.644562,442.542969,491.503906C442.558533,491.358643,442.611664,491.21936,442.703125,491.105469C442.99234,490.753571,443.206848,490.346985,443.335938,489.910156C443.684601,488.996887,444.043854,488.088318,444.414063,487.183594C444.564423,486.785156,444.644104,486.363342,444.648438,485.9375C444.672668,485.616852,444.808014,485.313385,445.039063,485.089844C445.23288,484.918121,445.36261,484.686584,445.417969,484.433594C445.392029,484.11441,445.510864,483.798798,445.75,483.585938C445.900391,483.448517,446.103882,483.381042,446.304688,483.414063C446.520966,483.552307,446.783936,483.595886,447.035156,483.542969C447.421295,483.476532,447.788391,483.326233,448.109375,483.101563C448.429413,482.904022,448.728363,482.674164,449,482.414063C449.288391,482.181763,449.636169,482.035645,450.003906,481.992188C450.23114,481.968842,450.453217,482.082672,450.550781,482.289063C450.576324,482.299011,450.597412,482.314484,450.625,482.320313C450.637634,482.282959,450.647247,482.245117,450.65625,482.207031C450.610504,481.912537,450.572418,481.616882,450.542969,481.320313C450.550995,481.295624,450.559113,481.271027,450.566406,481.246094C450.630554,481.375092,450.710388,481.496124,450.816406,481.59375C450.852539,481.602936,450.885529,481.620148,450.921875,481.632813L450.976563,481.628906C451.071838,481.609283,451.15686,481.55188,451.199219,481.464844C451.354767,481.241821,451.472443,480.994751,451.550781,480.734375C452.114441,479.584808,452.756531,478.475372,453.472656,477.414063C454.716461,475.466858,456.067505,473.59024,457.519531,471.792969C457.856537,471.400177,458.200195,471.013519,458.550781,470.632813C458.717834,470.451569,458.824371,470.221893,458.847656,469.976563C458.844147,469.91745,458.834869,469.858978,458.824219,469.800781L458.839844,469.6875C459.014221,469.274139,459.28244,468.906921,459.625,468.617188C459.865509,468.377838,460.066925,468.102234,460.222656,467.800781C460.260376,467.559204,460.379028,467.33783,460.558594,467.171875L460.785156,466.953125C460.846985,466.890717,460.884674,466.810547,460.910156,466.726563C460.918518,466.687927,460.918579,466.648773,460.921875,466.609375C460.906036,466.549347,460.895996,466.487946,460.894531,466.425781L460.929688,466.335938C461.087067,466.056396,461.29538,465.808563,461.546875,465.609375C461.722656,465.438416,461.870239,465.240479,461.984375,465.023438C462.111176,464.615845,462.219604,464.202637,462.308594,463.785156C462.514191,463.204987,462.779053,462.647736,463.097656,462.121094L463.824219,460.878906L463.804688,455.777344C463.825409,452.563721,463.81369,449.350403,463.769531,446.136719C463.744843,444.625397,463.707062,443.112274,463.65625,441.601563C463.328857,438.675995,462.906738,435.761566,462.390625,432.863281C461.925781,430.56015,461.439941,428.14975,460.976563,425.847656C460.641174,424.097321,460.424591,422.326416,460.328125,420.546875C460.303925,419.734406,460.336761,418.921234,460.425781,418.113281C460.529022,417.021576,460.487762,415.921051,460.304688,414.839844C460.358826,414.031891,460.412109,413.226013,460.464844,412.417969C460.497986,411.728302,460.47345,411.037048,460.390625,410.351563C460.357574,410.127136,460.276672,409.912384,460.152344,409.722656L460.082031,409.660156L459.996094,409.621094C459.885895,409.594208,459.771301,409.594757,459.660156,409.617188C459.385345,409.627777,459.110779,409.591644,458.847656,409.511719C458.608765,409.35318,458.443024,409.10675,458.375,408.828125C458.177277,408.406036,457.807495,408.089203,457.359375,407.960938C456.704315,407.593384,456.10791,407.129822,455.589844,406.585938C454.600098,405.626587,453.718384,404.561768,452.960938,403.410156C452.786621,403.139679,452.690765,402.825714,452.691406,402.503906L452.71875,402.398438L452.785156,402.320313C452.973663,402.198242,453.177124,402.100922,453.390625,402.03125C453.412659,402.012787,453.435974,401.996216,453.457031,401.976563C453.462494,401.942352,453.445282,401.913513,453.421875,401.890625L453.382813,401.863281C452.7789,401.656799,452.158142,401.503479,451.527344,401.40625C450.85495,401.318665,450.180115,401.249603,449.503906,401.199219C449.10199,401.118256,448.727722,400.935883,448.414063,400.671875C446.681,399.281799,445.113342,397.697266,443.742188,395.949219C443.232971,395.260162,442.808136,394.512726,442.476563,393.722656C442.36734,393.439362,442.333618,393.132813,442.375,392.832031L442.433594,392.742188L442.511719,392.671875C442.699036,392.617371,442.880829,392.545532,443.054688,392.457031C443.097504,392.409332,443.141052,392.360474,443.183594,392.3125C443.18985,392.273865,443.182373,392.236725,443.175781,392.199219L443.160156,392.144531C443.202362,392.049408,443.283813,391.977417,443.382813,391.945313C444.001495,391.724182,444.643799,391.575684,445.296875,391.503906C446.496521,391.359528,447.700256,391.250061,448.90625,391.175781C449.244843,391.138824,449.578857,391.067535,449.902344,390.960938L449.96875,390.902344L450.023438,390.832031C450.015503,390.744171,450.000519,390.657166,449.984375,390.570313C449.996613,390.509735,450.023102,390.453918,450.0625,390.40625C450.097595,390.395691,450.132904,390.38559,450.167969,390.375C450.244232,390.389465,450.313995,390.424988,450.375,390.472656C450.412933,390.52594,450.444672,390.583496,450.457031,390.648438C450.456726,390.685059,450.463226,390.721649,450.480469,390.753906L450.542969,390.800781L450.617188,390.832031C451.236359,390.951019,451.865601,391.009583,452.496094,391.007813C453.961792,391.039032,455.428619,391.059906,456.894531,391.070313C460.130127,391.179443,463.22049,392.440002,465.609375,394.625C465.738586,394.720947,465.830688,394.860901,465.855469,395.019531C465.984863,395.19162,466.131958,395.349854,466.296875,395.488281L466.398438,395.628906C466.452393,395.729095,466.482361,395.839844,466.492188,395.953125C466.410004,396.47876,466.444855,397.016571,466.59375,397.527344C466.708557,398.037964,466.885529,398.532654,467.121094,399C467.171722,399.061066,467.22464,399.120178,467.28125,399.175781C467.701813,399.285431,468.132355,399.35257,468.566406,399.375C469.297516,399.433594,470.02948,399.484436,470.761719,399.527344C471.624634,399.722656,472.414185,400.158813,473.039063,400.785156C473.248474,400.990723,473.459869,401.195618,473.671875,401.398438C473.694427,401.427185,473.715118,401.457275,473.734375,401.488281C473.982605,402.196045,474.213043,402.909729,474.425781,403.628906C474.512573,403.872498,474.618866,404.108643,474.742188,404.335938L474.84375,404.445313L474.921875,404.574219C475.095215,405.128235,475.199066,405.701599,475.230469,406.28125C475.30484,406.847809,475.461151,407.400604,475.695313,407.921875C476.264801,408.800781,476.668549,409.776489,476.886719,410.800781C476.882233,411.030487,476.931732,411.257751,477.03125,411.464844C477.128204,411.517029,477.227295,411.565125,477.328125,411.609375L477.367188,411.65625C477.428162,411.7948,477.463501,411.942963,477.476563,412.09375C477.50946,412.242035,477.561737,412.385315,477.632813,412.519531C477.915222,413.040344,478.204468,413.5625,478.496094,414.078125C478.657074,414.383179,478.782043,414.705841,478.871094,415.039063C478.922333,415.138947,478.984009,415.233124,479.054688,415.320313C479.105835,415.368469,479.160095,415.413025,479.214844,415.457031C479.603271,415.638336,479.980316,415.843048,480.34375,416.070313C480.690521,416.345337,480.945038,416.720062,481.070313,417.144531C481.215149,417.480042,481.319733,417.831482,481.382813,418.191406C481.393555,418.653442,481.299896,419.111969,481.105469,419.53125C480.943542,419.949371,480.844788,420.389038,480.808594,420.835938C480.789215,421.192535,480.828644,421.549774,480.921875,421.894531C481.075928,422.533661,481.113251,423.195374,481.03125,423.847656C480.913544,424.674316,480.859772,425.50882,480.871094,426.34375C480.828094,427.580841,480.886902,428.819397,481.046875,430.046875C481.250275,430.694275,481.379608,431.36261,481.433594,432.039063C481.559601,433.038757,481.657227,434.041626,481.726563,435.046875C482.024963,438.032043,482.414429,441.007385,482.894531,443.96875C483.174713,445.752014,483.376801,447.546722,483.5,449.347656C483.721985,452.185913,484.087036,455.011047,484.59375,457.8125C484.675262,458.167694,484.789703,458.514526,484.9375,458.847656C485.065979,459.242279,485.128357,459.655365,485.121094,460.070313C485.15033,460.720184,485.317383,461.356201,485.609375,461.9375C485.727478,462.11499,485.916656,462.233734,486.128906,462.253906C486.320068,462.296295,486.515137,462.318817,486.710938,462.320313C487.730011,462.302795,488.747894,462.241547,489.761719,462.136719C491.000488,462.023926,492.244965,461.986176,493.488281,462.023438C495.712921,462.038025,497.934998,462.174896,500.144531,462.433594C500.769745,462.540375,501.391113,462.668152,502.007813,462.816406C503.297943,463.06192,504.583252,463.331512,505.863281,463.625C506.276245,463.717743,506.678375,463.853546,507.0625,464.03125C507.551697,464.178345,508.052124,464.285034,508.558594,464.351563C509.125793,464.439575,509.66684,464.650513,510.144531,464.96875C510.19455,465.01004,510.229767,465.066162,510.246094,465.128906L510.238281,465.167969C510.213043,465.179352,510.186401,465.183838,510.160156,465.191406L510.105469,465.191406C509.876801,465.128845,509.64267,465.087738,509.40625,465.070313C509.32135,465.085999,509.240204,465.115784,509.164063,465.15625L509.070313,465.246094C509.091949,465.259155,509.115082,465.268463,509.136719,465.28125C509.992584,465.387329,510.851044,465.473267,511.710938,465.539063C512.083557,465.582977,512.454834,465.637421,512.824219,465.703125C512.939453,465.732452,513.049011,465.782562,513.132813,465.867188C513.340576,465.976715,513.54657,466.089661,513.75,466.207031C513.812134,466.263702,513.871826,466.322998,513.921875,466.390625C513.938904,466.476288,513.969238,466.558563,514.015625,466.632813C514.386902,466.916992,514.795654,467.148438,515.230469,467.320313C515.693787,467.518402,516.177124,467.666016,516.671875,467.761719C516.820313,467.768372,516.968933,467.75412,517.113281,467.71875C517.406433,467.761536,517.673767,467.907959,517.871094,468.128906C518.312195,468.370331,518.809937,468.489563,519.3125,468.472656C519.506348,468.483246,519.700684,468.483032,519.894531,468.472656C520.340027,468.453888,520.786316,468.464355,521.230469,468.503906L521.324219,468.527344C521.381104,468.556122,521.437134,468.586731,521.488281,468.625L521.515625,468.679688L521.519531,468.742188C521.48877,468.823517,521.450134,468.90152,521.40625,468.976563C521.404785,469.014618,521.405579,469.052765,521.417969,469.089844C521.448059,469.12265,521.487305,469.142303,521.527344,469.160156C521.92511,469.216553,522.328918,469.217499,522.726563,469.160156C523.80011,469.077759,524.879456,469.113251,525.945313,469.265625C526.465515,469.343658,526.994995,469.333069,527.511719,469.234375C527.624084,469.142639,527.753845,469.07312,527.894531,469.039063L527.9375,469.0625C527.971558,469.119965,527.9776,469.189148,527.960938,469.253906C527.960144,469.41629,528.02002,469.572083,528.121094,469.699219C528.223022,469.780029,528.351074,469.820251,528.480469,469.804688C528.672852,469.767029,528.846802,469.663452,528.960938,469.503906C529.034851,469.38092,529.1427,469.282074,529.273438,469.222656L529.328125,469.242188C529.360535,469.262604,529.392395,469.283905,529.421875,469.308594L529.457031,469.351563C529.538818,469.506775,529.685852,469.617676,529.855469,469.664063C530.311157,469.792908,530.78479,469.846588,531.257813,469.824219C531.578857,469.814514,531.897278,469.885712,532.183594,470.03125C532.257202,470.097137,532.319824,470.174255,532.359375,470.265625L532.429688,470.34375L532.511719,470.40625C532.574829,470.418488,532.63916,470.42334,532.703125,470.414063C532.736267,470.402496,532.767883,470.387573,532.800781,470.375L532.910156,470.398438C533.536865,470.690613,534.157715,470.993927,534.773438,471.308594C535.268311,471.544556,535.788757,471.72229,536.324219,471.839844L536.492188,471.84375C536.604126,471.83551,536.712769,471.804901,536.816406,471.761719C536.999756,471.539948,537.201416,471.333984,537.417969,471.144531C537.45166,471.140076,537.485352,471.135834,537.519531,471.144531C537.555542,471.184265,537.580261,471.231995,537.601563,471.28125C537.63385,471.534821,537.735596,471.774902,537.902344,471.96875L537.972656,471.996094C538.039612,472.030396,538.118042,472.034424,538.191406,472.015625C538.730713,471.826782,539.313538,471.804077,539.867188,471.945313L541.59375,471.847656C541.650513,471.829071,541.707886,471.812225,541.765625,471.796875C541.815063,471.790955,541.864624,471.79303,541.914063,471.796875C542.02301,471.819366,542.136353,471.814789,542.238281,471.769531C542.778381,471.610992,552.136169,471.9617,553,472C553.52417,472.365204,555.695557,472.256805,556.054688,472.785156C556.175049,472.939819,556.328003,473.065887,556.503906,473.152344C556.898621,473.249298,557.257935,473.456696,557.535156,473.753906C558.000366,474.014771,558.506287,474.194763,559.03125,474.289063C560.044434,474.501709,561.064636,474.680298,562.089844,474.824219C563.671021,475.063263,565.233521,475.412964,566.765625,475.871094C566.955078,475.911713,567.133118,475.99646,567.28125,476.121094C567.321838,476.09314,567.361816,476.064331,567.398438,476.03125L567.464844,475.9375C567.693481,475.374237,567.907043,474.805054,568.105469,474.230469L568.210938,474.109375L568.300781,473.976563C568.402771,473.791046,568.46405,473.58606,568.480469,473.375C568.546021,473.07074,568.647949,472.775452,568.785156,472.496094C569.174927,471.622742,569.556885,470.743958,569.929688,469.863281C570.126892,469.324677,570.315857,468.782776,570.496094,468.238281C571.032104,466.967224,571.734863,465.773102,572.585938,464.6875C573.028259,464.050323,573.441833,463.393585,573.824219,462.71875C574.276184,462.025635,574.792969,461.376984,575.367188,460.78125C575.641541,460.466858,575.88501,460.126892,576.09375,459.765625L576.121094,459.703125C576.128235,459.674377,576.133484,459.645447,576.128906,459.617188C576.16626,459.592041,576.204956,459.569519,576.246094,459.550781C576.395386,459.557709,576.542603,459.588379,576.679688,459.648438L576.777344,459.664063L576.839844,459.65625C576.879639,459.586426,576.891602,459.505798,576.886719,459.425781C576.824463,459.193268,576.783691,458.955292,576.773438,458.714844C576.782166,458.635986,576.802124,458.559174,576.828125,458.484375L576.886719,458.382813C576.914185,458.37265,576.941406,458.361969,576.96875,458.351563C577.000793,458.360229,577.031128,458.372833,577.0625,458.382813C577.092041,458.422913,577.127136,458.458252,577.160156,458.496094C577.203308,458.576721,577.243042,458.659119,577.28125,458.742188L577.320313,458.71875L577.351563,458.6875C577.483276,458.345581,577.571777,457.988586,577.617188,457.625L577.707031,457.292969C577.787231,457.080963,577.894348,456.879913,578.03125,456.699219C578.203857,456.46701,578.428772,456.28064,578.679688,456.136719C579.139038,455.803406,579.576843,455.441467,579.992188,455.054688C580.079529,454.964966,580.160217,454.868866,580.21875,454.757813L580.222656,454.703125L580.199219,454.679688C580.109375,454.675446,580.020203,454.691162,579.9375,454.726563L579.863281,454.777344L579.753906,454.894531C579.654175,455.137604,579.47998,455.344055,579.257813,455.484375C579.127441,455.561554,578.987061,455.620239,578.839844,455.65625L578.800781,455.640625L578.78125,455.605469L578.769531,455.566406C578.839722,455.456696,578.918884,455.352997,579.007813,455.257813C579.845764,454.380829,580.690552,453.511322,581.542969,452.648438C581.958923,452.222473,582.346436,451.769653,582.703125,451.292969C582.729187,451.23172,582.753296,451.169861,582.789063,451.113281C583.156738,450.679596,583.57312,450.289795,584.03125,449.953125C585.163086,449.011017,586.205261,447.966217,587.144531,446.832031L588.847656,444.792969C591.051819,442.343689,593.423401,440.050354,595.945313,437.929688C597.451416,436.641571,598.662354,435.044006,599.496094,433.246094C600.202698,431.948792,600.887573,430.640381,601.550781,429.320313C602.550354,427.154022,603.297485,424.879974,603.777344,422.542969C603.930298,421.598999,604.002258,420.643707,603.992188,419.6875C604.023132,418.761719,604.012817,417.834991,603.960938,416.910156C603.843445,415.932343,603.631531,414.968201,603.328125,414.03125C602.720215,412.05127,602.088501,410.078217,601.433594,408.113281C601.120544,407.168488,600.687195,406.267975,600.144531,405.433594C599.870422,405.014709,599.48877,404.677032,599.039063,404.457031C598.003967,404.086151,596.945679,403.783569,595.871094,403.550781C595.327026,403.425262,594.785217,403.289825,594.246094,403.144531C593.661377,402.825104,593.102417,402.460815,592.574219,402.054688C591.732544,401.480194,590.926331,400.855408,590.160156,400.183594C589.408203,399.486206,588.75592,398.688477,588.222656,397.8125C588.14502,397.659424,588.095276,397.494019,588.070313,397.324219C588.070801,397.276917,588.07489,397.229706,588.085938,397.183594C588.130737,397.068634,588.20697,396.968506,588.308594,396.898438C588.432922,396.854584,588.556824,396.809479,588.679688,396.761719C588.881592,396.685455,589.036743,396.518951,589.085938,396.308594C589.080322,396.211884,589.108521,396.115356,589.167969,396.039063C589.196106,396.010986,589.226013,395.984802,589.257813,395.960938C589.364929,395.955597,589.471252,395.935699,589.566406,395.886719C589.574951,395.863739,589.579407,395.839905,589.585938,395.816406L589.558594,395.769531C589.297485,395.507416,588.95697,395.338806,588.589844,395.292969C588.317688,395.237885,588.059509,395.127991,587.832031,394.96875L587.777344,394.910156L587.765625,394.863281L587.769531,394.816406C587.799194,394.787292,587.830933,394.760406,587.863281,394.734375L588.015625,394.738281C588.155212,394.786224,588.304871,394.787567,588.449219,394.757813C588.73645,394.727203,589.01825,394.659058,589.289063,394.558594C589.7771,394.364349,590.273804,394.192535,590.777344,394.042969C591.116272,393.948914,591.460693,393.876038,591.808594,393.824219C592.1651,393.853058,592.523376,393.788055,592.84375,393.628906L592.976563,393.519531C593.55249,393.32608,594.149048,393.20105,594.753906,393.144531C595.405334,393.051758,596.061157,392.993042,596.71875,392.96875C596.936523,392.994568,597.15625,392.999878,597.375,392.984375C597.392334,392.966522,597.400696,392.945892,597.417969,392.929688C597.403503,392.904999,597.389282,392.880249,597.375,392.855469C597.218689,392.681763,597.045654,392.523926,596.859375,392.382813C596.594482,392.192749,596.365112,391.95697,596.1875,391.683594C596.100342,391.544128,596.039001,391.390289,596,391.230469C595.960754,391.059784,595.999512,390.881622,596.105469,390.742188L596.238281,390.632813C596.404663,390.551361,596.572693,390.473236,596.742188,390.398438L596.824219,390.324219L596.878906,390.230469C596.93158,389.996216,596.902344,389.752258,596.808594,389.53125C596.772827,389.402985,596.77063,389.268097,596.792969,389.136719L596.832031,389.089844C596.953003,389.082306,597.074768,389.098022,597.183594,389.152344L597.296875,389.15625C597.601135,389.161621,597.874146,388.963501,597.960938,388.671875L597.9375,388.585938C597.907471,388.563934,597.877686,388.541534,597.847656,388.519531C597.474792,388.436005,597.090698,388.414856,596.710938,388.457031L596.617188,388.441406L596.5625,388.414063C596.534485,388.394318,596.508789,388.371704,596.488281,388.34375C596.53125,388.169373,596.648071,388.024811,596.804688,387.9375C597.015564,387.782745,597.245483,387.655823,597.488281,387.558594C598.399231,387.127533,599.350464,386.787415,600.328125,386.542969C600.424805,386.536163,600.521667,386.54245,600.617188,386.558594L600.679688,386.59375L600.734375,386.699219L600.808594,386.792969C601.420288,386.992584,602.077454,386.999786,602.695313,386.820313L602.753906,386.777344L602.753906,386.734375L602.800781,386.726563C603.971802,386.954865,605.138428,387.203522,606.300781,387.472656C608.289856,387.90625,610.288025,388.299622,612.292969,388.652344C613.396912,388.835541,614.510925,388.95163,615.628906,389L616,389L616.726563,390.902344C617.181885,391.486725,617.416077,392.212769,617.390625,392.953125C617.409485,393.739563,617.569885,394.516174,617.863281,395.246094C618.087708,395.925415,618.243286,396.625549,618.328125,397.335938C618.439819,398.237305,618.572693,399.136108,618.726563,400.03125C618.973389,401.651001,619.168823,403.278015,619.3125,404.910156C619.789063,409.894379,620.23584,414.862305,620.65625,419.851563C620.720276,420.475555,620.79718,421.09787,620.886719,421.71875C620.937073,421.842438,620.969299,421.972778,620.984375,422.105469C621.004578,422.237488,621.016296,422.370575,621.023438,422.503906C621.244995,425.355164,621.290771,428.217377,621.160156,431.074219C621.086853,431.502258,620.935242,431.912628,620.71875,432.289063C620.062134,433.46109,619.278809,434.557587,618.382813,435.558594C617.094849,437.074005,615.755615,438.5448,614.367188,439.96875C612.246277,442.211823,610.242493,444.562561,608.363281,447.011719C607.544739,448.093262,606.814636,449.238892,606.179688,450.4375C605.685547,451.460693,605.272644,452.521271,604.945313,453.609375C604.260925,455.681946,603.762878,457.811493,603.457031,459.972656C603.410278,460.337463,603.41687,460.706787,603.472656,461.070313L603.515625,461.167969L603.574219,461.257813L603.648438,461.28125C603.693176,461.292175,603.735535,461.309479,603.777344,461.328125C603.801941,461.375763,603.824524,461.424316,603.847656,461.472656C603.881226,461.677246,603.868713,461.887756,603.796875,462.082031C603.75354,462.348999,603.77002,462.621582,603.839844,462.882813L603.878906,462.984375L603.996094,463.15625C604.139954,463.44516,604.21051,463.763489,604.222656,464.085938C604.206848,464.229309,604.220459,464.374786,604.265625,464.511719C604.304443,464.709534,604.385315,464.89563,604.492188,465.066406C604.568726,465.16864,604.672424,465.244965,604.785156,465.304688L604.855469,465.363281C604.911621,465.412964,604.941895,465.483551,604.9375,465.558594C604.88208,465.68631,604.791626,465.794067,604.6875,465.886719L604.542969,466.070313C604.520752,466.121643,604.496704,466.172119,604.472656,466.222656C604.466553,466.268158,604.461975,466.313782,604.457031,466.359375C604.502075,466.44928,604.559875,466.531891,604.632813,466.601563C604.944641,466.763,605.265503,466.906525,605.59375,467.03125C605.65918,467.070038,605.723572,467.110321,605.777344,467.164063C605.824402,467.225067,605.871216,467.286102,605.921875,467.34375L605.976563,467.472656C606.051697,467.749786,606.030029,468.043304,605.929688,468.3125C605.902649,468.345459,605.871338,468.37207,605.847656,468.40625L605.808594,468.414063L605.777344,468.433594C605.742004,468.494202,605.712952,468.558228,605.691406,468.625L605.671875,468.726563C605.592346,469.154022,605.616638,469.595337,605.753906,470.007813C605.794434,470.139008,605.799683,470.277466,605.785156,470.414063L605.824219,470.480469L605.886719,470.511719C605.922546,470.526001,605.957397,470.542267,605.992188,470.558594C606.09137,470.778992,606.135315,471.020203,606.125,471.261719C606.124512,471.510437,606.128845,471.759186,606.136719,472.007813C606.145508,472.103699,606.15332,472.199432,606.175781,472.292969C606.198486,472.385468,606.226074,472.476624,606.257813,472.566406C606.284363,472.598389,606.313171,472.628174,606.34375,472.65625C606.372864,472.67337,606.399475,472.694672,606.414063,472.726563L606.433594,472.777344C606.537842,473.362366,606.566406,473.958374,606.519531,474.550781C606.481628,476.187103,606.587708,477.823578,606.835938,479.441406C606.850952,479.557404,606.885193,479.669403,606.929688,479.777344L607,491L607.580688,498.919067C607.130676,500.11908,603.877441,515.478577,599.528748,517.501953C598.243896,518.099792,601.672058,525.129089,603.539063,524.830872C605.107727,527.762817,614.604614,528.222534,610.336853,528.317444C604.485291,528.447571,632.340088,536.574158,628.710815,536.585754C626.399109,536.59314,638.32196,541.030457,634.117371,540.766602C630.504395,540.539856,646.241272,548.474731,642.491333,546.691467C638.966858,545.015442,649.348999,561.558228,650.500427,561.895691L648.922241,562.309387C648.381531,565.936584,655.120605,573.927429,654.434387,581.602112C652.954712,581.856689,639.279297,557.708313,619.078735,545.559326C617.787659,544.782837,593.722107,532.749756,592.769531,533.113281z"/>
</svg>
