<?xml version="1.0" encoding="UTF-8"?>
<svg xmlns="http://www.w3.org/2000/svg" width="232.387mm" height="176.812mm" viewBox="-1455.946045 -771.393677 232.387207 176.811890">
    <path transform="matrix(-1,0,0,-1,0,0)" style="stroke:none;fill:#000000;fill-rule:evenodd" d="M1225.212646,737.750305C1225.358154,737.6604,1225.477173,737.245728,1225.477173,736.828857C1225.477173,736.292236,1225.714844,735.891357,1226.291138,735.455627C1227.484009,734.53656,1228.169189,733.83252,1229.048584,732.624512C1230.187744,731.082947,1231.685303,730.415466,1234.094727,730.375488C1235.174194,730.357544,1234.207275,728.949463,1234.207275,728.573486C1234.207275,728.455383,1234.661987,725.448608,1234.922852,725.449219L1234.316528,723.642944L1235.623779,722.07135L1236.133545,721.371704C1236.413818,720.986877,1237.0177,720.477173,1237.475464,720.238953C1238.682129,719.611206,1242.341064,719.123657,1243.894287,719.383667C1250.147461,721.625549,1249.687866,721.288574,1250.323853,721.847046C1251.309692,722.712646,1256.588257,725.416077,1257.508789,725.526794C1257.756592,725.556641,1259.099121,724.628662,1260.492065,723.4646C1262.820679,721.518677,1263.115967,721.162231,1264.158325,719.03949C1265.1427,717.03479,1265.381714,716.729919,1265.973389,716.72467C1266.352051,716.721252,1266.930786,716.424744,1267.276123,716.05719C1268.099487,715.180725,1270.405762,714.956665,1271.508911,713.808533C1272.090942,713.202759,1272.567139,712.493774,1272.567139,712.232971C1272.567139,711.531738,1273.850952,709.360474,1274.368164,709.186829C1274.765503,709.053467,1275.735229,707.812683,1277.126709,705.657227C1277.70105,704.767456,1278.122314,703.817017,1278.123779,703.407715C1278.12439,703.235291,1278.599365,702.468506,1279.179077,701.703796C1280.241211,700.302856,1280.895142,698.200073,1280.268677,698.200073C1279.860474,698.200073,1279.991821,696.578979,1280.43689,696.121948C1280.628906,695.924683,1280.714478,695.537781,1280.627075,695.262146C1280.506958,694.883789,1280.598145,694.760864,1280.999268,694.760864C1281.291504,694.760864,1281.604126,694.641846,1281.694092,694.496338C1281.783936,694.35083,1282.07251,694.231812,1282.335083,694.231812C1282.597656,694.231812,1283.146362,693.750122,1283.554443,693.161377C1284.245728,692.163818,1283.347534,691.282043,1283.098022,691.531494L1289.301025,682.877747L1294.707764,670.821106L1308.115845,662.386963L1312.981812,637.300537C1314.927368,628.993958,1314.469727,616.008545,1306.710205,615.728516C1303.032959,615.595825,1301.212402,611.192444,1302.223022,608.429749C1302.936646,606.478882,1304.683838,607.119568,1306.446167,607.22406C1307.503052,607.286743,1311.308105,606.964478,1312.15625,605.96698C1312.643921,605.393494,1312.156372,605.966919,1314.982178,609.565063C1317.808105,613.16333,1321.204468,619.978455,1321.416016,620.053833C1325.005737,621.33313,1322.417847,615.630493,1322.118896,609.402893C1321.987915,606.672546,1322.069336,603.106384,1319.469604,602.969177C1311.165527,602.530945,1310.598511,599.179565,1310.999878,598.000061C1311.228271,597.328796,1311.144287,595.469116,1312.657593,595.021606C1316.013672,594.029175,1322.482544,594.931885,1324.065186,595.400024C1326.867676,596.229004,1327.523315,596.829346,1328,598C1329.277588,601.137573,1330.571533,606.61499,1331.20166,609.511047C1331.822266,612.363281,1335.072876,613.528015,1334.000122,616C1331.49292,621.777344,1330.622314,642.069763,1330.751099,653.586914C1330.805176,658.431824,1327.895142,662.1026,1330,662C1339.426025,661.540527,1348.866699,666.121155,1358.130371,669.433472C1371.928345,674.366943,1384.467896,678.677734,1389.000122,677.000061C1390.526733,676.434937,1394.71582,667.199585,1396.426025,657.46051C1396.885742,654.842407,1399.179565,650.541931,1399.507324,647.864563C1401.036621,635.374512,1400.615479,625.476746,1401,623C1401.890625,617.263794,1397.339478,614.804016,1394.999878,613.999939C1393.081177,613.089233,1392.749878,610.499939,1391.999878,608.999939C1392.492676,606.937256,1395.996338,607.984009,1399.532349,608.169922C1402.165039,608.308289,1404.733765,607.11731,1406.528931,608.360779C1408.490723,609.719788,1406.887573,612.253906,1407,614C1406.875854,614.076721,1413.769287,639.163879,1413.304932,639.557007C1408.496704,643.627258,1409.932129,659.641724,1412.182617,663.353149C1413.696533,665.849976,1420.220093,645.843506,1421.685913,643.52301C1423.810425,640.159607,1428.304688,622.848633,1428.495605,623.393555L1427.999878,613L1425.741699,610.373047C1424.220215,609.793396,1423.207031,608.888123,1422.442017,607.424988C1422.044434,606.664551,1421.612305,605.855225,1421.481812,605.626465C1421.351318,605.397766,1421.126343,604.877869,1420.981812,604.471069C1420.808228,603.982178,1420.561523,603.758057,1420.254272,603.809692C1419.993774,603.853516,1419.818359,603.742432,1419.855469,603.55719C1419.897827,603.345459,1419.603638,603.226501,1419.037476,603.226501C1422.326294,603.365112,1432.966309,601.884399,1432.192871,603.780762C1431.827148,604.084229,1431.696899,604.050293,1431.28772,603.545105L1431.06958,603.927124C1431.60498,604.49707,1433.897461,604.427979,1435.103149,604.03009C1436.006836,603.731873,1436.169678,603.749023,1436.605957,604.188599C1437.016479,604.602112,1437.05542,604.852051,1436.848145,605.739746C1436.518799,607.149414,1436.520996,608.325684,1436.852783,608.120728C1437.187744,607.913696,1437.174927,609.7771,1436.829346,611.559875C1436.497314,613.272217,1435.830811,622.609131,1435.983643,623.408264C1436.0896,623.962708,1436.059082,625.357117,1436.059082,625.660217L1436.32373,626.773682C1436.32373,626.609802,1436.192749,626.556641,1436.032715,626.655579C1435.837646,626.776123,1435.806641,627.326843,1435.938477,628.324646C1436.356812,631.488953,1435.868286,638.00592,1435.098999,639.522339C1434.899902,639.914978,1434.390381,640.749634,1433.966919,641.377136C1432.526489,643.511475,1431.234985,649.118103,1431.328857,652.829712C1431.354614,653.848206,1431.591309,663.110474,1432.025024,663.427551C1432.283447,663.616516,1432.373169,663.909729,1432.261597,664.200623C1432.16272,664.458374,1432.216919,664.832092,1432.38208,665.031128C1432.547241,665.230164,1432.619995,665.631714,1432.543701,665.923523C1432.4375,666.329773,1432.538574,666.458923,1432.975464,666.474915C1433.289185,666.486389,1433.397095,666.555847,1433.21521,666.629211C1433.033325,666.702637,1432.884521,667.002258,1432.884521,667.295166L1435.383789,676.120117C1435.758179,676.523987,1436.007813,676.91095,1435.938843,676.97998C1435.764404,677.154358,1436.292236,678.094238,1436.564453,678.094238C1436.686646,678.094238,1436.859497,677.730164,1436.948486,677.285217C1437.037476,676.840271,1437.290405,676.296082,1437.51062,676.075867C1437.730835,675.855652,1437.911011,675.329773,1437.911011,674.907288C1437.911011,674.205933,1445.181641,658.292603,1445.252563,658.363464C1442.941162,662.853882,1445.554321,658.319397,1445.765625,658.108093C1445.976929,657.89679,1446.419556,657.723877,1446.749268,657.723877C1447.109741,657.723877,1447.776855,657.275513,1448.422607,656.599548C1449.013184,655.98114,1449.925415,655.142761,1450.449707,654.736389C1451.177979,654.171997,1451.407959,653.797363,1451.42395,653.149109C1451.435425,652.682434,1451.505127,652.450134,1451.578857,652.632935C1451.776123,653.122437,1452.195435,652.756714,1452.205078,652.086548C1452.209595,651.767761,1452.491455,651.304871,1452.831543,651.057922C1453.418335,650.631714,1453.478271,650.635559,1454.013672,651.134399C1454.323853,651.423401,1454.577637,651.837524,1454.577637,652.054626C1454.577637,652.27179,1454.756226,652.518005,1454.974487,652.601746C1455.212524,652.693115,1455.371338,653.091919,1455.371338,653.598755C1455.371338,654.063354,1455.511719,654.583862,1455.68335,654.755493C1456.085449,655.157593,1456.018311,657.571228,1455.534424,660.112366C1455.304688,661.318604,1455.256592,662.125122,1455.411011,662.181824C1455.550049,662.232849,1455.498047,662.411438,1455.29541,662.578613C1454.772095,663.010254,1453.968384,665.325378,1454.128906,665.938843C1454.202881,666.222229,1454.158081,666.454041,1454.029175,666.454041C1453.735229,666.454041,1452.697266,668.453796,1452.890869,668.647278C1452.969116,668.725586,1452.899414,669.039795,1452.735718,669.345459C1452.572144,669.651184,1452.393188,670.286377,1452.338135,670.757019C1452.16687,672.221008,1451.890625,673.444092,1451.61499,673.959473C1451.469482,674.231628,1451.299316,674.945923,1451.237061,675.546753C1451.111938,676.753967,1450.438721,679.664734,1450.045532,680.699036C1449.575317,681.935791,1448.757568,685.223999,1448.757568,685.877991C1448.757568,686.23584,1448.653076,686.59314,1448.525513,686.671997C1448.262817,686.834412,1447.760132,688.684875,1447.570801,690.186462C1447.453613,691.115906,1447.308716,691.849548,1446.615112,695.025452C1446.472046,695.680237,1446.252808,696.811157,1446.127808,697.538696C1445.79248,699.490723,1445.099854,702.399658,1444.647461,703.755615C1444.428955,704.4104,1443.781616,706.640137,1443.208862,708.710693C1442.636108,710.781189,1441.948975,712.804993,1441.682007,713.208008C1441.415039,713.611023,1441.058716,714.178894,1440.890137,714.46991L1433.02478,724.709595C1432.394165,725.394348,1431.83667,726.053467,1431.786133,726.174194C1431.55542,726.724365,1429.943848,727.591064,1429.445557,727.432922C1429.141846,727.336548,1428.91626,727.385254,1428.91626,727.547302C1428.91626,727.702637,1428.711914,727.829712,1428.462158,727.829712C1427.278809,727.829712,1424.741333,729.141846,1423.228394,730.536194C1422.36499,731.332031,1420.402954,732.515076,1419.12793,733.008728C1418.473145,733.262207,1417.420532,733.811157,1416.788574,734.228638C1416.156738,734.646118,1415.085327,735.127014,1414.407715,735.297302C1413.72998,735.46759,1412.996948,735.743469,1412.778687,735.910339C1412.283813,736.288757,1406.486694,737.936462,1403.651733,738.504517C1402.487671,738.737732,1400.880615,739.116455,1400.080322,739.346008C1396.322754,740.424072,1375.582031,739.617371,1372.7323,738.282349C1372.27771,738.069336,1370.843262,737.776184,1369.544556,737.630859L1358,735.999939C1356.320313,736.025024,1351.552734,736.048828,1349.662354,735.603149C1347.94043,735.197205,1347.583984,735.182556,1347.086426,735.497437C1345.509644,736.495422,1341.819092,738.289124,1340.231689,738.828979C1339.249878,739.162964,1338.117676,739.610535,1337.71582,739.823669C1336.794189,740.312378,1334.340698,740.827209,1333.84314,740.636292C1333.636353,740.556946,1333.392334,740.613159,1333.300781,740.76123C1333.112061,741.066589,1320.049438,741.426392,1319.073975,741.561584C1317.886475,741.726257,1317.102051,741.992432,1316.699707,742.367188C1315.871338,743.138916,1313.549805,744.202576,1312.104248,744.472656C1311.443237,744.59613,1308.408325,746.130249,1306.908203,746.833801L1300.000122,750C1298.996826,750.020386,1294.228394,748.963562,1293.361938,750.580994C1292.671265,751.870544,1290.674316,753.887512,1289.10144,754.884155C1288.374023,755.345215,1287.719238,755.800049,1287.646484,755.894958C1287.418579,756.1922,1283.970215,758.782043,1283.802246,758.782043C1283.714355,758.782043,1283.716187,759.278748,1283.809204,759.571899C1283.902344,759.86499,1284.070557,760.104797,1284.183105,760.104797C1284.295654,760.104797,1284.705566,760.688843,1285.094116,761.402588C1285.940796,762.958191,1285.78833,763.647339,1284.355957,764.739868C1283.837646,765.135193,1283.413696,765.603943,1283.413696,765.781616L1279.014526,767.71637C1278.794312,767.936523,1278.062012,768.219788,1277.387207,768.345825C1276.712402,768.471924,1275.706787,768.889343,1275.152466,769.273438C1274.174805,769.950989,1271.071411,771.678894,1271.999878,771C1272.639893,770.531982,1270.057129,771.19574,1269.293213,771.278442C1267.856567,771.43396,1266.979248,771.047424,1266.051025,771.351074C1265.749146,771.449829,1265.374634,771.376831,1265.178955,771.181091C1264.932617,770.934509,1263.966309,770.848389,1261.744263,770.874878C1259.480103,770.901855,1258.511475,770.812988,1258.126099,770.543152C1257.83667,770.340454,1257.283813,770.174561,1256.897583,770.174561C1256.51123,770.174561,1256.046875,769.995972,1255.865845,769.777771C1255.684692,769.559509,1255.419678,770.72699,1255.138916,770.72699C1254.375,770.72699,1253.349121,770.924438,1253.34668,770.451294C1253.344849,770.063477,1251.783203,769.278076,1251.324829,769.256409C1250.969482,769.239624,1245.128662,765.821167,1244.93689,765.304321C1244.83728,765.035889,1243.113159,762.852539,1242.822876,762.776611C1242.532593,762.700745,1241.07666,761.532349,1241.07666,761.39801C1241.07666,761.263733,1238.296875,760.62738,1239.570801,759.083984C1239.657227,758.753601,1239.276245,757.276184,1239.000122,757C1238.747192,756.74707,1238.58728,756.398804,1238.644897,756.226013C1238.7771,755.829651,1239.50415,754.745483,1239.519897,753.939026L1239.541504,752.829712L1238.971802,751.341614L1235.837402,748.760254C1235.299316,748.473999,1234.539063,748.082886,1234,748C1233.296753,747.891846,1232.554932,747.762939,1232.658447,747.493103C1232.75293,747.246887,1232.563721,747.057129,1232.110352,746.943359C1231.729492,746.847778,1231.293457,746.537048,1231.141357,746.252869C1230.989258,745.968689,1230.186646,745.297852,1229.357788,744.762146C1228.528931,744.22644,1226.708374,744.588196,1227.763428,743.52356C1227.47229,742.642334,1224,741.485535,1224,741C1222.529541,740.71051,1225.148926,738.218262,1225.128418,738.742859L1225.212646,737.750305z"/>
</svg>
