<?xml version="1.0" encoding="UTF-8"?>
<svg xmlns="http://www.w3.org/2000/svg" width="185.200mm" height="186.080mm" viewBox="-1355.562988 -673.286865 185.199951 186.079987">
    <path transform="matrix(1,0,0,-1,-1916.643066,-242.230881)" style="stroke:#000000;stroke-width:0.05mm;fill:none" d="M688.552002,244.983994C691.56366,245.019745,694.570923,245.222717,697.559998,245.591995L702.047974,246.207993L703.840027,249.552002L700.64801,253.735992C698.545166,256.532318,696.685181,259.503052,695.088013,262.615997C694.669678,263.41217,694.311462,264.238556,694.015991,265.088013C693.927979,265.339844,693.885193,265.605255,693.888,265.872009C693.901001,265.935028,693.932495,265.993225,693.984009,266.032013C694.012756,266.042603,694.041199,266.053528,694.072021,266.056L694.840027,266.056C694.778809,268.041626,694.722168,269.932739,694.664001,271.920013C694.620361,273.407715,694.478638,274.8909,694.23999,276.359985C694.193665,276.621674,694.124084,276.878723,694.031982,277.127991C693.978638,277.230682,693.914246,277.327209,693.840027,277.415985C693.809387,277.46701,693.793274,277.524963,693.783997,277.584015C693.737793,278.067719,693.902588,278.546814,694.231995,278.903992L695.096008,279.951996C694.126953,283.732666,693.183594,287.431396,692.223999,291.216003C692.677612,293.521606,693.141968,295.848572,693.607971,298.152008L694.288025,295.76001C694.546387,294.606232,694.741333,293.439117,694.872009,292.264008C695.200439,289.764679,695.461853,287.257324,695.656006,284.743988L696.35199,276.119995C697.106445,274.433472,697.84668,272.745483,698.575989,271.048004C699.119385,269.76947,699.563293,268.450806,699.903992,267.104004C700.007507,266.739624,700.061951,266.362793,700.064026,265.984009C700.173401,265.327393,700.358582,264.685822,700.616028,264.071991C701.186035,262.693634,701.857178,261.359344,702.624023,260.079987C703.752686,258.019348,704.846619,255.938156,705.903992,253.839996L707.927979,249.768005C710.748291,248.941406,713.308838,248.194336,716.127991,247.376007C719.448669,247.604736,722.685547,247.82251,726.007996,248.039993L728.984009,252.584L725.447998,259.735992L716.903992,263.976013C716.932129,266.590881,717.065674,269.203827,717.304016,271.808014L719.695984,271.808014L719.455994,277.791992C719.361938,280.177368,719.07019,282.550812,718.583984,284.888C718.4823,285.389252,718.340759,285.881531,718.159973,286.359985L717.112,288.936005C717.503052,289.55835,717.888794,290.180908,718.271973,290.808014C717.641846,292.459778,717.016846,294.105774,716.392029,295.76001L718.16803,295.76001L718.096008,299.832001C718.103149,302.723877,718.319702,305.611359,718.744019,308.471985L719.471985,313.032013C720.455688,312.223022,721.421631,311.423279,722.400024,310.608002C722.062744,312.362946,721.72876,314.123322,721.400024,315.880005L722.223999,315.880005L722.304016,315.888L722.392029,315.920013C722.664795,316.108429,722.843872,316.402008,722.903992,316.727997C723.003052,317.076599,723.051331,317.437592,723.047974,317.799988L723.047974,319.712006L725.903992,319.712006C725.848755,320.34082,725.796265,320.954895,725.744019,321.584015C725.681335,323.455597,725.689331,325.329071,725.768005,327.200012L725.919983,331.328003L727.840027,330.144012L727.840027,334.088013L729.711975,334.088013L727.471985,339.015991C728.254028,339.501709,729.047363,339.99115,729.83197,340.471985L728.552002,348.455994L730.343994,348.455994C730.280212,349.968445,730.200195,351.481293,730.104004,352.992004C730.02533,354.135193,729.837585,355.268372,729.544006,356.376007C729.479431,356.632477,729.381531,356.879242,729.255981,357.112L728.552002,358.256012C729.392944,358.777222,730.228027,359.291504,731.072021,359.808014C730.27948,360.758423,729.491272,361.709045,728.703979,362.664001C729.418518,363.099579,730.128479,363.535675,730.840027,363.976013C729.801208,365.119812,728.785461,366.243469,727.752014,367.391998C728.511719,370.387634,729.250977,373.323914,730,376.320007L731.080017,375.967987C731.161194,375.932617,731.239746,375.891449,731.312012,375.839996C731.709595,375.459259,732.043457,375.01712,732.296021,374.528015C732.669556,373.852325,732.977478,373.142303,733.216003,372.40799L734.271973,369.200012L735.359985,371.936005L737.392029,369.056L737.40802,370.376007L737.424011,371.687988C738.373413,370.895569,739.342651,370.091003,740.296021,369.303986L740.296021,372.35199L743.304016,371.200012C742.878235,373.501038,742.436096,375.861145,742,378.160004L745.288025,378.160004C744.895691,379.200562,744.497498,380.242798,744.096008,381.279999C744.749512,382.06897,745.625,383.123901,746.280029,383.911987L743.976013,386.679993C743.799683,389.134613,743.61145,391.674103,743.424011,394.127991C742.281738,395.875488,741.115234,397.655029,739.968018,399.399994C740.598755,399.829498,741.229614,400.255402,741.864014,400.679993L741.799988,406.424011L741.736023,412.175995C740.4599,412.51828,739.177002,412.86911,737.903992,413.223999L737.903992,414.615997C737.86615,415.156097,737.680664,415.67569,737.359985,416.112C737.181824,416.380188,736.950134,416.608734,736.679993,416.783997L735.463989,417.559998C735.8125,418.137024,736.167236,418.710571,736.528015,419.279999C734.620178,420.27124,732.696472,421.265381,730.783997,422.247986L731.728027,424.727997C730.402466,425.266541,729.068237,425.786926,727.728027,426.287994C726.825317,426.643829,725.890076,426.911469,724.935974,427.088013C724.713867,427.136414,724.482727,427.133179,724.263977,427.071991C724.207458,427.076324,724.151733,427.08606,724.096008,427.096008C723.731262,427.228058,723.412354,427.464722,723.192017,427.783997L723.031982,428.007996L722.328003,429.160004L718.135986,429.287994C716.97699,429.317444,715.822937,429.451294,714.687988,429.687988C714.24469,429.76532,713.819397,429.923096,713.432007,430.152008L713.35199,430.23999L712.752014,431.056C711.524048,430.394104,710.288696,429.733582,709.05603,429.079987C708.499878,429.43573,707.939941,429.784882,707.375977,430.127991C706.882813,430.420959,706.352661,430.646515,705.799988,430.799988L705.687988,430.824005C705.626404,430.832703,705.566284,430.846436,705.504028,430.847992L704.728027,430.855988C705.091675,430.277466,705.452148,429.695374,705.807983,429.112C704.373657,428.885986,702.940857,428.643188,701.512024,428.384003C700.617554,428.238281,699.739014,428.007568,698.888,427.696014L698.736023,427.623993C698.659973,427.585846,698.594543,427.532471,698.528015,427.480011C698.49762,427.445496,698.4729,427.406433,698.463989,427.359985C698.489929,427.321106,698.512146,427.28009,698.536011,427.23999L698.544006,427.152008C698.512695,426.959564,698.437073,426.777557,698.328003,426.615997C697.799927,425.856476,697.184937,425.161316,696.495972,424.544006C695.770203,423.835632,694.973755,423.20343,694.119995,422.656006C693.850647,422.46814,693.550293,422.328827,693.231995,422.247986L693.104004,422.23999L692.184021,422.23999L693.288025,419.359985L692.359985,419.359985C692.170776,419.355408,691.985596,419.297119,691.840027,419.175995L691.703979,419.048004C691.577026,418.889282,691.495422,418.701324,691.447998,418.503998C691.451782,418.33551,691.431396,418.166809,691.375977,418.007996C691.115295,417.39621,690.784546,416.816833,690.392029,416.279999C689.832458,415.479095,689.228821,414.709961,688.583984,413.976013L685.744019,410.735992C686.083252,409.853455,686.432373,408.939819,686.768005,408.056C686.020264,407.589691,685.270752,407.12558,684.52002,406.664001C685.348267,406.160645,686.17157,405.651825,686.992004,405.135986C686.588501,404.668274,686.196411,404.190643,685.815979,403.70401C685.264465,402.810242,684.790527,401.870911,684.400024,400.895996C684.029968,400.033844,683.690979,399.1586,683.383972,398.272003L681.903992,393.967987C682.409119,393.789917,682.915771,393.616699,683.424011,393.447998C683.140503,391.476105,682.846069,389.466858,682.552002,387.496002L680.83197,387.048004C679.99469,386.823425,679.260864,386.315521,678.76001,385.608002C678.713013,385.520874,678.667542,385.432922,678.624023,385.343994L678.143982,384.096008L673.471985,384.312012C671.906372,384.377167,670.347595,384.556366,668.807983,384.847992C668.485535,384.908936,668.169556,385.000214,667.864014,385.119995L667.736023,385.18399L666.679993,385.839996L665.960022,383.679993C659.756409,383.253845,653.548706,382.909851,647.335999,382.64801L639.544006,385.223999C639.087402,384.476257,638.624451,383.727051,638.159973,382.984009C637.239624,383.150574,636.324402,383.345276,635.416016,383.567993C634.456604,383.818695,633.51123,384.120483,632.583984,384.471985L630.752014,385.191986C631.216919,384.448181,631.678772,383.700623,632.135986,382.951996L624.471985,382.951996L623.288025,381.032013C622.693665,381.354797,622.09082,381.66156,621.47998,381.951996C620.342957,382.413635,619.167908,382.774994,617.968018,383.032013C617.460632,383.147705,616.951233,383.254456,616.440002,383.35199L612.840027,384C612.469971,383.052216,612.104858,382.103394,611.744019,381.152008L606.432007,380.488007C604.979431,380.501007,603.52771,380.567657,602.080017,380.687988C601.063721,380.784149,600.040833,380.786743,599.023987,380.696014C598.580688,380.655823,598.144897,380.556,597.728027,380.399994C596.753784,380.039429,595.75354,379.753174,594.736023,379.544006C594.405334,379.477692,594.062622,379.505066,593.744019,379.615997C592.572388,379.967865,591.425781,380.398102,590.312012,380.903992C588.912292,381.472809,587.558838,382.149506,586.263977,382.928009C585.138672,383.71344,584.105469,384.623077,583.184021,385.640015C582.305786,386.531586,581.544861,387.531677,580.919983,388.615997C580.510315,389.465973,580.252747,390.381012,580.159973,391.320007C580.043152,392.369781,579.97113,393.424072,579.94397,394.480011L579.799988,398.519989C580.468018,399.509277,581.124207,400.506836,581.768005,401.511993C582.158142,402.085175,582.4729,402.706268,582.703979,403.359985C582.829285,403.82373,582.858765,404.308289,582.791992,404.783997C582.742798,405.236237,582.983887,405.671082,583.392029,405.872009C584.777405,406.721893,586.297852,407.327942,587.888,407.664001C588.379089,407.765045,588.885803,407.761383,589.375977,407.656006C589.844177,407.477783,590.274963,407.214386,590.64801,406.880005C591.547424,406.139648,592.445618,405.391113,593.335999,404.640015C593.498108,404.407379,593.587708,404.131561,593.583984,403.847992C593.592285,402.917938,593.543945,401.988281,593.440002,401.063995C593.379944,400.540894,593.367188,400.013519,593.400024,399.488007C593.467773,399.046692,593.671387,398.638397,593.976013,398.312012C594.388916,397.894501,594.751282,397.429932,595.05603,396.928009C595.238159,396.575226,595.323669,396.180511,595.304016,395.783997C595.279968,395.256256,595.26123,394.728149,595.247986,394.200012C595.238281,394.031616,595.264587,393.863342,595.320007,393.70401C595.336304,393.647125,595.374512,393.602051,595.416016,393.559998C595.708069,393.381226,596.058228,393.323608,596.392029,393.399994C597.026855,393.56488,597.63324,393.824463,598.192017,394.167999C599.492126,394.874695,600.692139,395.751617,601.76001,396.776001C603.41571,398.395905,604.355164,400.611694,604.367981,402.928009C604.414734,404.25708,604.252502,405.585022,603.888,406.864014C603.535156,407.940491,602.993469,408.945618,602.288025,409.832001C601.62207,410.654663,600.920166,411.44751,600.184021,412.208008C599.392578,413.050354,598.746399,414.018036,598.271973,415.071991C598.099365,415.577881,597.907349,416.077026,597.695984,416.567993C597.429138,417.119019,597.013611,417.585083,596.495972,417.911987C595.222778,418.737122,593.90918,419.498077,592.559998,420.191986C591.542725,420.75058,590.49292,421.247345,589.416016,421.679993C588.737427,421.90567,588.027161,422.021454,587.312012,422.023987L586.911987,422.040009C585.943909,422.061005,584.975342,422.050262,584.007996,422.007996C582.963379,421.992737,581.92749,421.817261,580.935974,421.488007C580.199036,421.19165,579.513428,420.781403,578.903992,420.272003C578.151367,419.621002,577.412476,418.954132,576.687988,418.272003C575.825073,417.512817,574.810608,416.945526,573.711975,416.608002C572.243835,416.119385,570.75116,415.708252,569.23999,415.376007C568.205139,415.246857,567.230957,414.815704,566.440002,414.135986C565.630432,413.375824,565.010681,412.435944,564.632019,411.391998C564.138977,410.080139,563.782532,408.720917,563.567993,407.335999C563.20874,405.319824,562.700745,403.333099,562.047974,401.391998C561.440735,399.377167,561.114929,397.288055,561.080017,395.18399C561.048889,393.881409,561.454651,392.605682,562.231995,391.559998C562.780212,390.82251,563.370422,390.117371,564,389.447998C564.404907,389.012054,564.766907,388.537933,565.080017,388.032013C565.272522,387.744843,565.361816,387.400024,565.328003,387.056C565.263367,386.728638,565.097717,386.430084,564.856018,386.200012C564.685913,386.050598,564.56543,385.85199,564.512024,385.631989C564.480713,385.25,564.528748,384.86554,564.656006,384.503998C564.893555,383.726471,565.085693,382.93576,565.231995,382.135986C565.358459,381.145966,565.368835,380.144562,565.263977,379.152008C565.207214,378.598785,565.207153,378.041229,565.263977,377.488007C565.354309,376.91275,565.585876,376.369293,565.935974,375.903992C567.035583,374.322021,568.784058,373.312317,570.703979,373.152008L572.632019,372.944C572.702332,372.10437,572.766296,371.264618,572.823975,370.424011C572.842651,369.894623,572.93042,369.36972,573.088013,368.864014C573.24408,368.512512,573.5271,368.232819,573.880005,368.079987C574.222595,367.845093,574.633179,367.730591,575.047974,367.752014C575.375305,367.814911,575.694031,367.915771,576,368.048004C576.069031,368.058807,576.138245,368.067932,576.208008,368.071991C576.275818,368.065277,576.342163,368.049713,576.40802,368.032013C576.681458,367.925812,576.921326,367.747742,577.096008,367.511993C577.54657,366.899567,577.907837,366.226379,578.16803,365.511993C578.771057,363.898224,579.247009,362.239868,579.59198,360.552002C579.779419,359.703888,579.923706,358.846771,580.023987,357.984009L580.07605,357.924011C579.204651,355.282623,578.450562,352.603973,577.815979,349.895996L576.528015,344.144012L577.695984,323.727997L581.23999,302.29599L581.23999,300.519989C581.157349,299.635254,581.007507,298.758087,580.791992,297.895996C580.53125,296.781403,580.229675,295.676544,579.888,294.584015C578.700806,290.373413,578.1745,286.004059,578.328003,281.631989C578.437622,278.734344,578.680542,275.843292,579.05603,272.967987C579.1203,272.2565,579.221741,271.548859,579.359985,270.847992C579.46936,270.300232,579.52063,269.742493,579.512024,269.18399C579.555481,265.620361,579.333496,262.058685,578.848022,258.528015C578.618469,257.246368,578.38031,255.959244,578.135986,254.679993C579.564453,252.373291,581.016602,250.022217,582.440002,247.712006L584.776001,246.824005C585.994385,246.401901,587.264893,246.149002,588.552002,246.072006C591.679626,245.844208,594.822876,246.149933,597.848022,246.975998C598.781372,247.230621,599.676819,247.607666,600.512024,248.095993C600.907532,248.337234,601.251221,248.654648,601.52002,249.031998C601.776184,249.46402,601.962952,249.933731,602.072021,250.423996C602.212158,250.962677,602.2901,251.515564,602.304016,252.072006L602.320007,253.904007L598.359985,259.040009L594.400024,264.167999L594.072021,268.032013L593.744019,271.888L595.616028,270.735992L595.616028,276.600006L597.64801,276.600006C597.244751,277.242584,596.846558,277.882294,596.447998,278.528015C597.432312,279.501648,598.4104,280.479797,599.383972,281.463989L598.815979,284.29599L598.247986,287.135986L600.143982,287.135986C599.800293,288.921265,599.510254,290.429688,599.16803,292.216003L601.359985,290.855988L601.424011,298.152008L605.280029,293.528015L604.320007,291.032013L605.23999,290.463989C605.386108,290.372681,605.506775,290.245789,605.59198,290.096008C605.969849,289.477539,606.163879,288.764679,606.151978,288.040009L606.151978,286.175995L607.112,286.175995C607.176819,286.176788,607.240356,286.164581,607.304016,286.152008C607.584839,286.048889,607.806519,285.826813,607.903992,285.544006C608.013062,285.291321,608.069946,285.019196,608.072021,284.743988L608.072021,283.303986L610.911987,283.303986C611.522888,280.627808,612.019409,277.926483,612.400024,275.208008C613.949707,274.408569,615.628296,273.539673,617.176025,272.735992C621.244995,273.13623,625.561401,273.555176,629.632019,273.944C630.770203,274.952423,631.92865,275.973541,633.072021,276.976013C632.889038,278.868958,632.697388,280.795898,632.504028,282.687988C630.760376,283.588318,629.024658,284.502869,627.296021,285.432007C625.858643,286.220551,624.469421,287.094086,623.135986,288.048004C622.929199,288.198456,622.734192,288.364563,622.552002,288.544006L621.223999,289.864014C621.071533,292.475555,620.925537,295.067932,620.783997,297.679993L622.664001,297.679993L621.752014,302.463989L622.64801,302.463989C622.805115,302.475861,622.957825,302.517365,623.104004,302.575989C623.799805,302.900116,624.431213,303.347321,624.968018,303.895996L626.400024,305.328003C626,305.971619,625.605164,306.610291,625.208008,307.256012L626.112,307.256012C626.368469,307.25885,626.606995,307.391235,626.744019,307.608002C626.928528,307.901367,627.012573,308.247406,626.976013,308.59201C626.963623,309.664978,626.99823,310.738068,627.080017,311.808014L627.231995,313.967987L630.112,313.967987L630.112,315.399994C630.092407,315.835907,630.242188,316.262299,630.528015,316.59201L630.695984,316.727997C630.809082,316.792023,630.934326,316.830811,631.064026,316.839996L632.023987,316.839996C632.011597,317.637451,632.019592,318.434967,632.047974,319.231995C632.140808,320.339783,632.317261,321.438873,632.575989,322.519989C632.76178,323.384766,632.983337,324.241547,633.23999,325.088013L634.424011,329.032013L640.135986,328.424011L642.296021,325.463989L646.23999,325.463989C646.482117,324.745667,646.719543,324.025452,646.952026,323.303986L649.791992,323.328003L652.624023,323.35199L654.791992,321.35199C655.868042,320.364868,657.174683,319.663544,658.59198,319.312012C659.082703,319.186127,659.592102,319.14801,660.096008,319.200012C660.593506,319.211578,661.058655,319.45639,661.343994,319.864014L661.83197,320.656006C663.3349,319.040283,664.926208,317.324219,666.424011,315.70401L668.583984,317.048004L667.719971,299.112L668.695984,292.64801L669.671997,286.175995L670.447998,286.175995L670.528015,286.160004L670.616028,286.112C670.816772,285.93457,670.975037,285.713715,671.072021,285.463989C671.416748,284.698608,671.66156,283.891907,671.799988,283.063995L672.367981,279.951996L670.880005,275.76001C670.253967,274.033447,669.777405,272.256226,669.455994,270.447998C669.41748,270.204498,669.396484,269.958496,669.392029,269.712006L669.392029,267.864014C669.971802,268.21875,670.55127,268.576599,671.127991,268.936005C671.573425,267.171295,672.025574,265.416046,672.487976,263.656006C672.792236,262.458496,673.204834,261.291016,673.719971,260.167999C673.841736,259.908234,673.996948,259.665497,674.184021,259.447998C674.237976,259.403137,674.299011,259.367249,674.367981,259.35199L674.440002,259.343994L674.52002,259.312012C674.573364,259.281799,674.618164,259.24054,674.664001,259.200012C674.833313,258.999207,674.951599,258.760559,675.007996,258.503998C675.099976,258.154144,675.145386,257.793732,675.143982,257.432007L675.143982,255.520004L678.015991,255.520004L678.015991,254.080002C677.98822,253.571442,678.204346,253.08075,678.599976,252.759995C678.713257,252.68808,678.841797,252.642044,678.976013,252.639999L679.935974,252.639999L679.935974,247.992004C680.929932,246.990173,681.945068,245.972229,682.94397,244.975998L688.007996,244.975998L688.552002,244.983994z"/>
</svg>
