<?xml version="1.0" encoding="UTF-8"?>
<svg xmlns="http://www.w3.org/2000/svg" width="460.759mm" height="554.558mm" viewBox="132.666199 -841.733887 460.759338 554.557617">
    <path transform="matrix(-1,0,0,-1,1245.270386,-136.46698)" style="stroke:#000000;stroke-width:0.05mm;fill:none" d="M674,705C675.219543,706.871948,694.700012,698.349976,698,697C699.049988,696.400024,701.464539,694.935242,705,693C715.395752,687.30957,722.849976,684.650024,726,683C730.25,684.5,735.984924,685.152832,742,686L745,680C746.349976,679.25,752.677124,671.844604,754,678C752.801331,671.254578,760.5,670.75,762,670C762.921753,668.332031,763.9776,659.882629,768.145142,658.880188C767.669373,657.258301,771.004272,651.420227,776,649C770.666992,649.145386,778.236328,641.151672,780.973511,637.986755C777.083008,637.031006,777.885803,634.584473,782,632C782.75,630.950012,788.907288,628.728577,791,625C788.398865,624.618774,792.264099,620.778564,794,615C789.952759,614.127869,800.588684,591.453613,807,569C814.976563,541.064392,817.885559,512.486694,822,513C828.331848,513.789917,877.295166,522.621582,933,528C984.31134,532.954224,1030.12085,531.565918,1034,533C1051.726318,539.553223,1048.208252,551.337952,1066,556C1082.353149,560.285034,1083.636963,557.407715,1096,548C1107.02832,539.607971,1109.714355,534.625061,1112,522C1114.909058,505.931885,1106.5,503.25,1105,498C1103.5,495.600006,1090.455811,489.440765,1095,482C1098.132568,476.870667,1107.328247,460.072815,1103,438C1099.025391,417.730255,1088.225098,412.477142,1079,391C1070.372437,370.913849,1066.756348,376.448059,1068,359C1069.729736,334.73233,1085.464478,334.891174,1093,308C1097.39624,292.311615,1090.550049,281.950012,1091,277C1090.25,270.850006,1080.231445,237.277191,1086,236C1084.155762,236.071808,1082.78894,212.697098,1086,210C1078.315674,210.17453,1075.178345,184.060776,1074,180L1074,180C1069.623535,180.206497,1063.983032,176.658005,1065,170C1060.5,167.25,1055.50415,158.317886,1047,159C1043.283325,159.298111,1038.189575,166.633301,1041,169C1050.355835,176.878708,1052.009399,188.363937,1053,193C1051.650024,190.600006,1048.976807,184.092865,1044,177C1041.609863,173.593719,1037.34314,169.689957,1034,168C1025.069702,163.485687,1014.511719,161.922058,1016,167C1016.131409,167.448349,1016.630188,172.172424,1019,177C1021.851685,182.809158,1024.661621,181.866501,1027,188C1030.455566,197.063843,1030.291748,204.128052,1032,208C1035.818481,216.655121,1039.809692,219.846664,1042,228C1047.674438,249.122894,1049.34436,269.633514,1047,281C1043.043579,300.182556,1038.123291,299.808563,1024,313C1002.916077,332.69278,998.584473,321.449249,981,343C974.947693,350.417419,968.049988,360.149994,967,363C959.049988,359.549988,930.54248,361.186493,914,340C902.771973,325.619904,892.273071,301.952271,884,278C880.141174,266.827972,868.195496,255.865906,870,242C870.810059,235.775757,873.83551,233.942123,878,230C893.27301,215.542465,913.731628,195.088135,915,193C917.218079,189.348373,920.67157,193.537033,924,191C930.944336,185.706818,930.990112,183.052841,933,174C935.092346,164.575546,932.701843,157.912231,928,158C925.905579,158.039093,920.765686,165.787659,912,171C904.1828,175.648331,902.670654,173.180161,895,178C873.136169,191.738037,875.979797,196.066132,856,213C841.351807,225.41507,830.5,233.399994,826,237C825.25,228.300003,822.78949,196.966293,821,182C820.011353,173.731674,814.200012,167.25,813,165C810,162.25,807.365234,154.519287,800,152C797.156189,151.027267,796.189758,149.228333,771,153C768.015747,156.703171,763.242737,160.339447,769,163C771.834412,164.30983,785.408691,162.914307,787,166C789.452515,170.755768,788.35321,176.316284,790,181C791.042603,183.965286,794.158936,185.123596,795,188C797.558228,196.748642,797.228088,205.304169,798,213C799.31311,226.091461,802.108704,229.155991,802,242C801.909546,252.68512,796,252.5,796,263C796,270,797.394775,272.881409,798,280C800.299805,307.049377,793.917236,306.006622,794,332C794.038208,344.003052,796.168823,349.830353,795,354C794.021301,357.491394,776.337219,366.09906,771,372C766.998779,376.423859,760.148743,403.962708,757.40564,399.374939C757.007385,402.985657,755.416443,403.954742,754.322937,406.41449C753.562561,408.124817,753.951538,415.063843,752.002014,411.733734C751.210449,416.220917,746.602783,423.644012,745,422C745.194519,424.943085,740.053833,442.052155,738.469727,440.144501C738.002075,442.996429,737.003601,447.224976,734.641785,447.835876C735.791321,449.215393,732.942871,455.060547,731.270874,455.315369C732.742554,458.863861,728.837097,467.16803,727,467C714.271118,505.954773,719.04303,505.201691,717,546C715.956055,566.847595,717.720459,566.30481,712,587C710.082397,593.937378,704.049988,597.049988,703,599C699.849976,599.599976,692.540649,602.755798,682,603C675.026917,603.16156,674.662292,599.918884,668,601C664.839783,601.512817,662.900024,603.549988,662,604L663,606C662.400024,606,660.712219,605.298035,659,606C656.918701,606.853271,656.228088,606.486145,655.537109,609.413208C654.919067,612.03125,655.700012,616.099976,656,617C655.400024,617.75,652.611755,619.197021,652,622C651.606079,623.804932,651.967346,624.329163,653,626C662.236084,640.944275,668.885925,636.328857,681,650C686.921936,656.683105,689.5,662.75,691,665L700,677L703,679C698.950012,682.900024,672.076843,702.048096,674,705z"/>
</svg>
