<?xml version="1.0" encoding="UTF-8"?>
<svg xmlns="http://www.w3.org/2000/svg" width="637.169mm" height="480.223mm" viewBox="-1084.509277 -633.792847 637.169495 480.223297">
    <path transform="matrix(-2.174171,0,0,-2.174171,-446.3927,-153.301086)" style="stroke:#000000;stroke-width:0.05mm;fill:none" d="M229.430817,219.217957C229.863403,217.855011,229.396439,217.386261,227.445206,217.224777C224.072006,216.945602,221.294647,215.421906,216.747116,211.355682C214.683029,209.510056,212.095535,208,210.997116,208C209.898697,208,209,207.550003,209,207C209,206.449997,208.110367,206,207.023056,206C204.713394,206,202.694427,203.219696,200.511734,197.033279C198.634293,191.712021,196.363693,189,193.785995,189C192.738785,189,192.14299,188.577652,192.462021,188.061462C192.781036,187.545258,192.245102,186.658951,191.271027,186.091873C189.597473,185.117554,189.596313,185.059143,191.25,185.030411C193.453674,184.992111,193.45993,184.16571,191.274857,181.751221C190.21817,180.583603,189.516968,178.102905,189.46521,175.349136C189.379547,170.791656,187.872849,168.727829,185.340683,169.699509C184.481186,170.029327,184,169.457748,184,168.106995C184,166.948151,183.4375,166.112503,182.75,166.25C182.0625,166.387497,181.5625,165.712494,181.638885,164.75C181.730286,163.59845,181.064728,163,179.692642,163C178.545807,163,175.85231,161.783646,173.707077,160.296997C170.358917,157.97673,170.068115,157.498398,171.65332,156.918869C173.256683,156.332703,173.109695,156.062988,170.537689,154.871872C166.295792,152.90741,162.584183,149.311401,164.20874,148.740036C166.26358,148.017349,157.990738,144.896423,152.5,144.322937C149.235703,143.981979,142.898102,144.70314,134.243469,146.400345C112.169464,150.729141,100.893188,149.899704,81,142.484024C71.636497,138.993546,67.802948,136.591309,57.794399,127.942604C53.419289,124.161926,47.288231,119.815704,44.169827,118.284325C39.24284,115.864792,37.32085,115.5,29.5,115.5C21.42293,115.5,19.959049,115.799706,15.22489,118.422592C6.059723,123.50042,2.99878,131.687485,6.936925,140.590317C9.532543,146.458145,12.311609,149.596786,17,151.955414C25.379723,156.171097,28.998838,155.592865,42.959221,147.807892C51.530746,143.028,52.850338,142.590637,58.415432,142.685059C64.503014,142.78833,72.183846,143.687347,74.993477,144.625443C76.156525,145.013763,75.93528,145.547943,73.993477,147.03981C72.622063,148.09346,71.849052,148.96553,72.275681,148.977768C72.702301,148.98999,72.360695,150.335602,71.516548,151.968002C65.94207,162.747849,49.124947,168.413055,33.995697,164.607712C20.250971,161.150604,7.815844,152.509689,2.90011,143C-2.463568,132.623749,1.265552,117.968781,10.811934,111.907524C16.942245,108.015228,23.318512,106.781151,38.073627,106.631226C45.176849,106.559052,50.99115,106.372543,50.994289,106.216759C50.997429,106.060974,49.890942,103.744888,48.535423,101.069901C47.179905,98.39492,45.328537,92.897377,44.421276,88.853149C42.469185,80.151482,34.784576,59.949043,31.763529,55.576584C30.594398,53.88446,26.367317,49.349998,22.370014,45.5C17.95875,41.251293,14.823664,37.342175,14.393544,35.554192C14.003787,33.933998,14.118872,29.468536,14.649286,25.630943C15.547852,19.129751,15.441936,18.320192,13.097545,13.770326C11.166027,10.021743,10.82883,8.493656,11.646278,7.193577C13.675577,3.966158,19.036114,1.730376,25.927036,1.237333C31.988777,0.803618,32.909401,0.986382,34.780693,2.994977C36.235271,4.556283,36.607647,5.731902,36.007572,6.868334C35.533703,7.76575,34.894474,9.307818,34.587055,10.295153C34.27964,11.282487,32.446789,12.751026,30.514057,13.558573C28.379187,14.45058,27,15.718836,27,16.789991C27,19.418806,36.426601,32.44437,45.487263,42.335468C52.203922,49.667728,54.749176,51.674648,61.487263,54.951374C65.894264,57.094501,72.875,61.579014,77,64.916954C81.125,68.254898,84.949997,70.96994,85.5,70.950378C87.001846,70.896957,93.780701,61.721928,94.533043,58.724358C95.553322,54.659267,93.14521,49.041702,88.020508,43.532101C78.007584,32.767136,77.710754,30.486103,85.25,22.241312C88.137497,19.083591,92.271042,13.450106,94.435646,9.722458C98.747978,2.296219,98.099197,2.629407,111.46524,0.976747C119.626534,-0.032367,120.545685,0.025786,121.71524,1.625244C122.42186,2.591602,123,3.772809,123,4.250147C123,4.727485,123.358986,4.896169,123.797745,4.625C124.236504,4.353831,125.208313,4.510712,125.957321,4.973624C127.08876,5.672892,127.099663,6.345178,126.021759,8.947468C124.192085,13.364688,121.349251,15,115.5,15C109.80452,15,106.736076,16.675907,104.494286,21.011044C101.102165,27.570683,102.796379,31.063105,115,42.667385C117.474998,45.020832,121.371292,48.732018,123.658424,50.914463C128.962357,55.97562,133.993927,66.073654,134.281998,72.235275C134.473663,76.334808,134.741669,76.842743,136.5,76.438828C137.600006,76.186134,143,74.888123,148.5,73.554352C154,72.220581,161.300186,70.818489,164.722626,70.438591C169.398148,69.919594,171.084305,69.309738,171.504547,67.985695C171.812149,67.01651,173.849472,65.041855,176.031921,63.597576C180.440445,60.680149,180.947235,58.549938,178.25,54.27417C176.770721,51.929161,175.926422,51.547623,172.792343,51.807842C168.423676,52.170563,165.615311,50.868725,163.368195,47.439194C161.859131,45.13607,161.859131,44.813133,163.368195,43.145638C164.265686,42.153923,165,40.645554,165,39.793705C165,37.479633,167.695251,35.687042,170.192642,36.340126C171.404449,36.657021,172.969681,36.440132,173.670914,35.85815C177.54776,32.640663,188.543579,36.625931,196.229492,44.034161C201.707382,49.314148,202.372025,52.885971,199.078659,59.345726C197.674606,62.099689,197.560989,62.779312,198.656662,61.869984C200.831482,60.065044,204.439987,52.546936,206.99382,44.5C208.498138,39.760002,209.47496,33.265156,210.019394,24.383249C210.6418,14.228974,211.29126,10.349407,212.894928,7.205959C215.332245,2.428437,216.82222,1.813233,225.210617,2.120909C228.828064,2.253592,232.846649,1.771792,234.66983,0.98682C237.360519,-0.171656,238.093781,-0.167065,239.520721,1.017191C240.445297,1.784522,241.890182,2.513377,242.731583,2.636868C244.672073,2.921673,245.606628,3.940972,246.429733,6.670391C246.924606,8.31143,246.159348,9.864259,243.292114,13.037135C238.852585,17.949909,234.06189,20.304623,230.384247,19.381592C228.672684,18.952017,227.471664,19.202307,226.866653,20.114653C225.174896,22.665815,227.346634,57.883278,229.632858,64.971977C230.050827,66.267944,230.218903,66.267944,231.038483,64.971977C231.745178,63.854523,231.973068,64.162331,231.98468,66.25C231.996002,68.282959,232.49707,69,233.906387,69C235.315292,69,235.677383,69.517715,235.293945,70.983955C234.628601,73.528252,235.79335,78.24575,236.915634,77.552147C237.386978,77.260841,238.096481,78.02993,238.49231,79.261246C239.10318,81.161499,239.282654,81.235405,239.679321,79.75C240.232086,77.680046,241.113403,77.544739,242.93605,79.25C244.030518,80.273979,244.176193,80.101524,243.741745,78.296204C243.243301,76.22493,243.345428,76.180229,245.440262,77.552811C249.864883,80.451942,250.853439,84.672356,248.454987,90.423607C247.781647,92.038208,247.961792,92.227104,249.576385,91.599518C252.892715,90.310478,253.306793,90.436363,253.939056,92.925858C254.893005,96.681946,257,96.716698,257,92.976341C257,90.478027,257.343109,89.917686,258.581787,90.393013C259.451782,90.726852,260.34021,91,260.556122,91C261.59491,91,264,97.25058,264,99.95034C264,101.627655,264.352966,103,264.784393,103C266.019958,103,269,108.587578,269,110.904289C269,113.194153,270.531433,113.748177,271.337708,111.75C271.615143,111.0625,271.877625,111.694923,271.921051,113.155388C271.970184,114.807732,270.677917,117.393211,268.5,120C266.575012,122.304077,265,124.30925,265,124.45594C265,124.602638,266.237488,124.512878,267.75,124.256477L270.5,123.790306L268.25,125.451859C265.116241,127.766037,265.441498,129.421982,269.25,130.543198C272.466309,131.490082,272.5,131.564545,272.5,137.727371C272.5,143.701309,272.61142,143.979141,275.237396,144.554062C276.742981,144.883682,279.217957,145.071182,280.737396,144.970718C282.256836,144.87027,284.050934,144.835754,284.724335,144.894043C286.337402,145.033646,289,150.265411,289,153.295349C289,154.612427,289.859528,156.46788,290.910065,157.41861C293.689331,159.933823,294.24469,163.478638,292.509888,167.6306C291.367249,170.36528,291.267487,171.617386,292.111237,172.634018C293.861145,174.742538,290.790436,178.536819,284.428223,182.127426C278.989319,185.196945,278.211975,185.98439,273.602081,193.094269C271.338257,196.5858,271.325989,196.722473,273.172485,197.875656C276.72287,200.092896,277.967346,208,274.765961,208C274.161346,208,273.950836,207.715836,274.298157,207.368515C275.601563,206.065109,272.861847,203,270.393402,203C268.087708,203,268,203.142853,269.428558,204.571426C271.533051,206.675919,271.409241,208.210007,268.874908,211.4319C267.02005,213.789963,266.271423,214.052704,262.988037,213.497986C259.769989,212.954285,258.740173,213.28479,255.863144,215.784561C251.257782,219.786026,248.697968,221,244.865738,221C242.325714,221,241.866669,220.733337,242.800003,219.800003C243.460007,219.139999,244,218.315323,244,217.967377C244,216.968369,232.856689,218.743317,231.668396,219.93161C230.016983,221.583008,228.80307,221.195847,229.430817,219.217957z"/>
</svg>
