<?xml version="1.0" encoding="UTF-8"?>
<svg xmlns="http://www.w3.org/2000/svg" width="200.168mm" height="66.230mm" viewBox="-1082.807373 -614.339172 200.167786 66.230347">
    <path transform="matrix(-1,0,0,-1,0,0)" style="stroke:none;fill:#000000;fill-rule:evenodd" d="M908.549683,613.300171C903.814697,612.018372,901.843445,611.024048,900.40033,609.189331L899.283325,607.769348L899.283325,606.583557L899.283325,605.397827L897.67865,603.718689C896.796082,602.795166,896.082642,601.736511,896.093201,601.366089C896.121033,600.391968,898.388306,597.762817,899.827271,597.036133L901.059937,596.413574L901.205811,595.397339C901.37915,594.190063,902.346497,593.49115,903.859619,593.479858L904.959229,593.47168L906.783997,594.817993L908.608826,596.164307L914.517395,595.974182L920.426025,595.784119L921.550659,595.182251L922.675354,594.580322L923.00769,592.501831L923.340088,590.423279L924.421265,589.048706L925.502502,587.674133L923.759216,587.12915C921.297119,586.359436,914.489075,584.666626,907.409424,583.063782L901.361023,581.694397L899.273682,580.629517L897.186401,579.564636L894.356934,579.549622L891.527466,579.534546L888.658813,578.582703L885.790161,577.630859L884.57135,576.457764L883.352478,575.284729L882.996033,573.864441L882.639587,572.444214L883.362854,571.720947L884.086121,570.99762L886.6604,571.478577L889.234619,571.959473L890.756104,573.084351L892.277527,574.209229L893.551086,573.724976C894.251526,573.458679,895.796143,573.170654,896.983643,573.0849L899.1427,572.929016L900.039429,573.825745L900.936096,574.722412L902.917847,575.220764L904.899597,575.719177L911.707703,575.980225L918.515808,576.241333L917.920044,575.094849C917.045898,573.412659,913.012085,568.842651,907.841492,563.676636L903.294922,559.134155L900.353088,557.20752L897.411194,555.280884L894.736755,555.397278C893.265869,555.461304,891.420532,555.374329,890.636108,555.204102L889.209839,554.894531L888.893921,554.071167L888.577942,553.247803L889.979797,552.098083C890.750854,551.465698,892.843445,550.309387,894.630005,549.528564L897.878357,548.108826L899.249451,548.625977C900.96521,549.273193,906.428833,552.437317,908.911255,554.221497L910.783325,555.566956L911.160278,556.581726L911.53717,557.596436L916.060059,560.544434L920.582947,563.492432L923.327087,566.647461L926.071289,569.802551L928.455566,570.071289L930.839844,570.340027L933.916321,572.144165L936.992737,573.948364L940.040344,577.008972L943.087891,580.06958L946.547791,578.4505L950.00769,576.831421L957.391846,575.791077L964.77594,574.750671L969.2323,574.750671L973.68866,574.750671L977.531616,575.624756C982.461609,576.746094,986.955872,578.44812,993.832153,581.798035L999.340637,584.481628L1000.108521,583.844299C1000.530884,583.493774,1001.712891,581.711365,1002.735168,579.883301L1004.593872,576.559631L1007.168823,574.151001L1009.743835,571.742432L1012.682373,570.355347L1015.620911,568.968262L1018.966797,568.312561L1022.312744,567.65686L1026.187744,567.966553C1028.319092,568.136841,1032.915771,568.635559,1036.402588,569.074768L1042.742432,569.873291L1045.361938,569.563049L1047.981445,569.252808L1047.981445,568.839233C1047.981445,568.611755,1049.194214,566.974182,1050.676514,565.200256L1053.371582,561.974854L1056.384277,560.847656L1059.396973,559.720459L1060.771851,559.88092L1062.146851,560.041321L1062.328613,560.999878L1062.510498,561.958435L1061.129761,563.044495C1060.370361,563.641907,1059.749023,564.40387,1059.749023,564.737854C1059.749023,565.071838,1058.897339,566.217224,1057.856445,567.283142L1055.963989,569.221191L1058.890137,569.923157L1061.816284,570.625122L1064.660522,569.504333C1066.224854,568.887878,1068.553711,568.11499,1069.835571,567.786804L1072.166382,567.190063L1076.367432,567.092468L1080.568359,566.994873L1081.464355,567.889404L1082.360474,568.783997L1082.036621,569.627808L1081.712891,570.471619L1080.399902,570.471619L1079.086914,570.471619L1077.412109,571.88092L1075.737183,573.290222L1072.42334,573.674744L1069.109497,574.059326L1066.702515,575.170654L1064.295532,576.281921L1060.55127,576.915527L1056.807129,577.549133L1055.635376,578.6203L1054.463623,579.691467L1052.812134,579.115723L1051.160645,578.540039L1050.441895,578.815857C1050.046509,578.96759,1048.955688,580.160156,1048.017822,581.466064C1047.080078,582.771973,1045.827026,584.100342,1045.233276,584.418091L1044.153809,584.995789L1042.189697,584.023987L1040.225586,583.052185L1036.213989,583.097656L1032.202393,583.143066L1029.583618,584.161987L1026.964966,585.180969L1025.937134,586.560242L1024.909302,587.939575L1026.085938,589.933716L1027.262451,591.927917L1026.984619,595.390503L1026.706665,598.853149L1025.263794,601.033386L1023.820984,603.213623L1025.529053,602.220581C1026.468506,601.674438,1028.322754,600.024048,1029.649658,598.553101C1033.872314,593.87207,1038.350098,591.184448,1044.990112,589.34552L1048.248901,588.442993L1054.935059,588.465637L1061.621094,588.488281L1067.093628,589.672913C1070.103516,590.324463,1074.556396,591.514771,1076.989014,592.318054L1081.411865,593.778564L1082.109619,595.229797L1082.807373,596.68103L1082.104736,598.151917L1081.4021,599.622864L1077.994385,599.783936L1074.586792,599.944946L1065.696899,597.706238L1056.807129,595.467529L1052.666016,595.20343L1048.525024,594.939392L1044.910278,596.105347L1041.29541,597.271362L1039.075195,598.981995C1037.854126,599.922852,1034.845459,602.32251,1032.38916,604.314575L1027.92334,607.936523L1024.981445,609.078735L1022.039551,610.220886L1016.95813,610.458008L1011.876709,610.69519L1008.132507,608.713562L1004.388306,606.731934L989.678955,606.450256L974.969604,606.16864L969.085876,607.056213C956.759644,608.915771,950.293457,610.247131,944.748596,612.067261L942.341614,612.8573L931.109009,613.28717C924.931091,613.52356,918.191528,613.856995,916.132202,614.028076L912.388,614.339172L908.549683,613.300171z"/>
</svg>
