<?xml version="1.0" encoding="UTF-8"?>
<svg xmlns="http://www.w3.org/2000/svg" width="233.760mm" height="105.756mm" viewBox="-951.741333 -752.876343 233.759766 105.756348">
    <path transform="matrix(-1,0,0,-1,0,0)" style="stroke:#000000;stroke-width:0.05mm;fill:none" d="M883.632019,647.624023C884.393677,647.780701,885.13501,648.023987,885.840027,648.35199C886.197998,648.521973,886.514771,648.768738,886.76001,649.080017C886.802185,649.166077,886.848694,649.250061,886.903992,649.328003L886.952026,649.455994L886.992004,649.59198C887.008972,649.684814,887.020874,649.778381,887.031982,649.872009C887.03302,649.97345,887.029114,650.074768,887.023987,650.176025C887.007019,650.283569,886.989075,650.39093,886.960022,650.495972C886.640991,651.648499,885.894104,652.635193,884.872009,653.255981C884.211914,653.625793,883.486633,653.86499,882.736023,653.960022C882.64502,653.985962,882.55426,654.011597,882.463989,654.039978C882.313293,654.092529,882.172668,654.167908,882.039978,654.255981C881.982605,654.310608,881.922302,654.362,881.864014,654.416016C881.802368,654.483521,881.749023,654.557678,881.695984,654.632019C881.33429,655.182983,881.050964,655.781006,880.848022,656.40802L880.76001,656.815979C880.659912,657.657471,880.706848,658.509949,880.895996,659.335999C881.215149,660.910095,881.605164,662.468811,882.064026,664.007996C883.423096,668.739929,884.853149,673.454285,886.35199,678.143982C886.400024,678.259094,886.439453,678.377625,886.47998,678.495972C886.499939,678.544556,886.518799,678.593567,886.544006,678.640015L886.575989,678.656006C886.650452,678.647583,886.725281,678.6427,886.799988,678.632019C886.885681,678.609131,886.971497,678.586853,887.05603,678.559998C887.97821,678.218323,888.875977,677.81427,889.744019,677.35199C894.214844,675.191406,898.770508,673.211243,903.400024,671.416016C909.042664,669.223145,914.717529,667.116333,920.424011,665.096008C921.165466,664.811768,921.804077,664.31134,922.263977,663.664001C923.131042,662.485352,924.065552,661.357605,925.064026,660.288025C926.469482,658.761536,928.102356,657.461304,929.903992,656.432007C930.764404,655.937256,931.703796,655.595154,932.679993,655.416016C933.221436,655.315186,933.777832,655.337952,934.312012,655.471985C934.595581,655.554688,934.862305,655.686157,935.104004,655.856018C935.441895,656.131531,935.734009,656.458984,935.960022,656.83197L936,656.935974C936.010559,656.986572,936.019165,657.037598,936.031982,657.088013L936.080017,657.176025C936.141968,657.254883,936.206604,657.331604,936.280029,657.400024C936.378723,657.482117,936.477844,657.565247,936.575989,657.64801C936.941833,657.862061,937.289612,658.105591,937.616028,658.375977C937.699768,658.468811,937.778809,658.565674,937.856018,658.664001L937.960022,658.83197C938.208862,659.393005,938.350769,659.995178,938.383972,660.607971C938.507202,661.434753,938.519531,662.274536,938.416016,663.104004C938.381714,663.284424,938.333191,663.461914,938.263977,663.632019C938.165833,663.873596,938.034668,664.10022,937.872009,664.304016C937.532166,664.693115,937.133789,665.026917,936.687988,665.288025C935.296448,666.104187,933.979431,667.041077,932.752014,668.088013C931.340637,669.260498,929.966675,670.476868,928.632019,671.736023C926.166809,673.973572,923.296204,675.718872,920.176025,676.880005C918.21167,677.74939,916.306335,678.746155,914.471985,679.864014C913.169922,680.629578,911.892029,681.435059,910.640015,682.280029C908.767334,683.578735,907.072876,685.117004,905.599976,686.856018C905.325439,687.188293,905.089966,687.551392,904.911987,687.94397L904.504028,688.911987C905.351135,690.145874,906.180176,691.390747,906.992004,692.64801C907.554504,693.511169,908.041626,694.421265,908.447998,695.367981C908.843872,696.351685,909.043457,697.403687,909.031982,698.463989C909.049316,700.877441,909.59259,703.257996,910.624023,705.440002C910.974731,706.184875,911.453003,706.862671,912.039978,707.440002C912.289551,707.668579,912.575195,707.85498,912.888,707.984009C913.864563,708.412781,914.891174,708.717224,915.94397,708.888C917.888855,709.215271,919.860168,709.359924,921.83197,709.320007C924.153564,709.299744,926.468018,709.058289,928.744019,708.599976C929.562561,708.423828,930.373657,708.215332,931.176025,707.976013C931.791931,707.816345,932.40094,707.657471,933.015991,707.495972L933.159973,707.432007C933.257263,707.379822,933.352783,707.324768,933.432007,707.247986C933.84668,706.815918,934.13501,706.278992,934.271973,705.695984C934.404602,705.209106,934.50769,704.714783,934.583984,704.216003L934.656006,703.919983C934.882568,703.141663,935.209656,702.395874,935.632019,701.703979C935.716675,701.53894,935.783936,701.366089,935.848022,701.192017L935.872009,701.047974C935.862732,700.977295,935.850037,700.907166,935.823975,700.840027C935.782715,700.803528,935.74585,700.763306,935.703979,700.728027L935.687988,700.664001L935.695984,700.583984C935.725159,700.520813,935.759705,700.460999,935.791992,700.400024L935.872009,700.296021C935.940186,700.217712,936.013062,700.143799,936.088013,700.072021C936.529907,699.6745,937.055359,699.381104,937.624023,699.208008C937.665283,699.176147,937.696716,699.136169,937.728027,699.096008L937.736023,699.023987L937.703979,698.94397C937.60614,698.816589,937.512756,698.685852,937.424011,698.552002L937.40802,698.512024L937.400024,698.471985C937.427124,698.445313,937.45636,698.421204,937.487976,698.400024C937.538757,698.394409,937.589111,698.388367,937.640015,698.383972C938.190125,698.408813,938.739563,698.446289,939.288025,698.495972L939.616028,698.495972C939.663879,698.484314,939.712219,698.476074,939.76001,698.463989C939.801208,698.446106,939.838623,698.422058,939.872009,698.392029L939.888,698.320007L939.872009,698.223999L939.840027,698.135986L939.840027,698.05603L939.864014,697.992004C939.893921,697.960388,939.925842,697.930969,939.960022,697.903992L940.039978,697.880005C940.150757,697.859253,940.263733,697.853577,940.375977,697.864014L940.512024,697.880005L940.664001,697.903992C941.967957,698.208069,943.187744,698.796082,944.23999,699.624023C944.374695,699.745422,944.499817,699.876831,944.616028,700.015991C944.782898,700.234863,944.910828,700.481018,944.992004,700.744019C945.035156,700.866333,945.065674,700.992371,945.088013,701.119995L945.112,701.296021C945.108459,701.392151,945.115112,701.487976,945.119995,701.583984C945.148254,701.688171,945.175903,701.79248,945.208008,701.895996L945.280029,701.984009L945.375977,702.064026C945.466736,702.121765,945.559204,702.176819,945.656006,702.223999C946.570984,702.545349,947.500122,702.824951,948.440002,703.064026C948.570129,703.10553,948.700684,703.146301,948.83197,703.184021C949.030762,703.242981,949.221924,703.325928,949.400024,703.432007C949.656738,703.576111,949.863464,703.795044,950,704.05603L950.135986,704.320007C950.334106,704.716492,950.473511,705.139771,950.552002,705.575989C950.555298,705.74469,950.592468,705.911194,950.664001,706.064026L950.736023,706.208008C950.91333,706.48645,951.110901,706.751343,951.328003,707C951.490173,707.195435,951.601379,707.429077,951.640015,707.679993L951.671997,707.823975C951.709656,708.08374,951.731873,708.34552,951.736023,708.607971C951.753723,709.261475,951.743042,709.915466,951.703979,710.567993C951.619507,711.424072,951.381775,712.257263,951.007996,713.031982C950.584717,713.848389,950.281067,714.721619,950.104004,715.624023C949.932617,716.632935,950.091858,717.669922,950.552002,718.583984C950.787598,718.994629,950.985107,719.426025,951.143982,719.872009C951.275452,720.210449,951.330261,720.574646,951.296021,720.935974C951.257996,721.441406,951.140137,721.937378,950.952026,722.40802C950.417053,723.827148,949.730469,725.184326,948.903992,726.455994C948.452698,727.11438,948.017944,727.783936,947.599976,728.463989C947.256775,729.04071,947.088867,729.705627,947.119995,730.375977C947.105957,730.744385,947.139648,731.113037,947.223999,731.471985L947.304016,731.599976L947.40802,731.703979L947.544006,731.776001C947.853943,731.860046,948.148071,731.995605,948.40802,732.184021C948.702332,732.368347,948.980408,732.577332,949.23999,732.807983L950.159973,733.616028C949.711792,733.518005,949.257568,733.449341,948.799988,733.416016L948.679993,733.424011L948.59198,733.440002C948.556885,733.457581,948.52124,733.47406,948.487976,733.495972L948.471985,733.536011C948.489197,733.571472,948.507324,733.606323,948.528015,733.640015L948.59198,733.703979C948.814148,733.858398,949.053772,733.985291,949.304016,734.088013L950.159973,734.455994C949.808289,734.496216,949.458862,734.553406,949.112,734.624023C949.063171,734.643616,949.015686,734.665833,948.968018,734.687988L948.903992,734.736023C948.836975,734.821838,948.789185,734.919312,948.76001,735.023987C948.74939,735.103638,948.738403,735.184265,948.728027,735.263977C948.722778,735.776489,948.701416,736.288818,948.664001,736.799988C948.64032,737.108337,948.568237,737.411072,948.447998,737.695984L948.335999,737.903992C948.257507,738.023254,948.155457,738.124329,948.039978,738.208008C947.920349,738.266296,947.794495,738.309631,947.664001,738.335999L947.440002,738.343994L947.200012,738.304016C946.702759,738.138123,946.233276,737.898438,945.807983,737.59198C944.990601,737.183105,944.102539,736.934509,943.192017,736.856018C942.375549,736.710144,941.572632,736.496277,940.791992,736.216003C940.662903,736.183838,940.531616,736.162964,940.400024,736.143982L940.288025,736.143982L940.176025,736.159973L940.064026,736.192017L939.94397,736.23999C939.50354,736.494385,939.079407,736.775574,938.671997,737.080017C937.798157,737.599915,936.873291,738.028564,935.911987,738.359985C934.522949,738.856995,933.089722,739.220642,931.632019,739.447998C931.1297,739.526672,930.6427,739.684692,930.192017,739.919983L930.023987,740.039978C929.580505,740.569702,929.035339,741.005859,928.416016,741.312012C927.761841,741.630554,927.039307,741.782166,926.312012,741.76001C926.092529,741.75238,925.874756,741.717834,925.664001,741.656006L925.359985,741.559998C925.0979,741.436829,924.851501,741.283142,924.624023,741.104004L924.40802,740.984009C924.18457,740.902222,923.954712,740.839539,923.719971,740.799988C923.596985,740.788696,923.474121,740.777222,923.35199,740.76001C922.550171,740.71228,921.746399,740.70752,920.94397,740.744019C916.151428,740.859802,911.387512,741.520142,906.744019,742.711975C905.436707,743.09491,904.142517,743.52179,902.864014,743.992004C901.418274,744.511353,899.933655,744.915405,898.424011,745.200012C897.157898,745.40741,895.873596,745.483582,894.59198,745.424011C893.83551,745.411255,893.079956,745.363647,892.328003,745.280029C891.622742,745.188965,890.937744,744.978577,890.304016,744.656006C889.093628,744.036926,887.829834,743.527832,886.528015,743.135986C884.959839,742.708008,883.355835,742.424377,881.736023,742.288025L879,742C871.42627,743.718384,863.831421,745.359009,856.223999,746.919983C848.499329,748.504761,840.736816,749.899902,832.94397,751.104004C828.458557,751.804199,823.948975,752.337769,819.424011,752.703979C817.191711,752.890503,814.949585,752.930359,812.711975,752.823975C810.811707,752.706421,808.91864,752.492798,807.039978,752.184021C804.973511,751.903564,802.910034,751.607666,800.848022,751.296021C798.191589,750.880981,795.568665,750.274109,793,749.47998C792.103638,749.196228,791.233887,748.834351,790.400024,748.400024C788.46637,747.473938,786.585815,746.440735,784.768005,745.304016C783.326294,744.409119,782.915955,743.573242,780.94397,741.992004C779.36792,740.72821,779.006165,740.509216,777.192017,738.888C775.66803,737.526123,775.149109,737.074402,774.247986,736.047974C772.630127,734.313965,771.06134,732.534607,769.544006,730.711975C767.310913,727.867432,765.266479,724.879822,763.424011,721.768005C761.481384,718.560913,759.770386,715.218994,758.304016,711.768005C757.849121,710.635681,757.416992,709.493774,757.007996,708.343994C754.579895,702.126709,751.793945,696.055176,748.664001,690.159973C748.208618,689.288391,747.69812,688.446838,747.135986,687.640015C745.854309,685.826294,744.309509,684.213745,742.552002,682.856018C740.958008,681.632385,739.096069,680.804871,737.119995,680.440002C735.121826,680.124695,733.076782,680.297424,731.159973,680.94397C730.13092,681.320862,729.224121,681.971069,728.536011,682.823975C727.632629,683.959106,726.827026,685.168762,726.127991,686.440002C725.572937,687.426758,724.985962,688.395325,724.367981,689.343994C723.907288,690.071655,723.349854,690.733276,722.711975,691.312012C722.40094,691.58667,722.023132,691.775696,721.616028,691.856018C721.034119,691.914673,720.460632,691.694336,720.05603,691.271973C719.027893,690.316528,718.317566,689.068481,718.023987,687.695984C717.928406,687.040527,717.989868,686.372192,718.200012,685.744019C718.585815,684.509338,719.10083,683.318909,719.736023,682.192017C720.698425,680.412476,721.875244,678.757385,723.23999,677.263977C724.04895,676.424683,724.935303,675.663635,725.888,674.992004C726.774536,674.452759,727.730042,674.036011,728.728027,673.752014C730.400696,673.221497,732.102051,672.786133,733.823975,672.447998C735.042725,672.226807,736.282898,672.145752,737.52002,672.208008C739.156128,672.308105,740.761963,672.695557,742.263977,673.35199C744.536255,674.359009,746.692749,675.608887,748.695984,677.080017C749.893005,678.024658,750.977661,679.103516,751.927979,680.296021C753.677856,682.414978,755.263611,684.664246,756.671997,687.023987C759.083313,691.016785,761.275696,695.13739,763.23999,699.367981C764.406982,701.914734,765.55127,704.472778,766.671997,707.039978C768.260925,710.716125,770.033875,714.310059,771.984009,717.807983C773.1875,719.961548,774.548523,722.023193,776.05603,723.976013C777.169373,725.400146,778.423584,726.708252,779.799988,727.880005C780.972412,728.799866,782.251465,729.575012,783.607971,730.192017C784.084656,730.410339,784.546875,730.658936,784.992004,730.935974L785.159973,731.072021L785.184021,731.031982C785.216797,730.722229,785.204651,730.409546,785.143982,730.104004C784.990479,729.000977,784.782471,727.90625,784.52002,726.823975C784.19397,725.263672,783.74762,723.731018,783.184021,722.23999C782.842285,721.347595,782.435486,720.481445,781.968018,719.64801C781.691772,719.2229,781.434937,718.785278,781.200012,718.335999C781.131042,718.214722,781.083191,718.08197,781.064026,717.94397C781.065735,717.922607,781.067505,717.901184,781.072021,717.880005C781.090515,717.879639,781.107971,717.875122,781.127991,717.880005L781.280029,717.919983L781.400024,717.935974C781.436096,717.923889,781.472107,717.911621,781.504028,717.888L781.512024,717.856018C781.478271,717.651428,781.411743,717.453796,781.312012,717.271973C780.656677,716.007019,779.859924,714.820374,778.935974,713.736023L778.799988,713.567993C778.653259,713.397949,778.528564,713.21051,778.416016,713.015991C778.409119,712.984314,778.402466,712.952576,778.400024,712.919983C778.415039,712.909485,778.431519,712.90271,778.447998,712.895996C778.512878,712.911804,778.576782,712.930237,778.640015,712.952026C778.761719,713.002319,778.884521,713.050232,779.007996,713.096008C779.120178,713.132813,779.23584,713.156006,779.35199,713.176025C779.402832,713.174744,779.453369,713.171082,779.504028,713.16803C779.523926,713.152283,779.54126,713.135254,779.559998,713.119995C779.561829,713.014282,779.547363,712.909851,779.52002,712.807983C779.263245,712.120605,778.947571,711.456726,778.575989,710.823975C778.020508,709.854126,777.43042,708.904358,776.807983,707.976013C776.663513,707.768677,776.54187,707.546692,776.447998,707.312012L776.447998,707.263977C776.462036,707.246338,776.476685,707.229248,776.495972,707.216003C776.530823,707.211487,776.565369,707.213989,776.599976,707.216003C776.694214,707.237488,776.788818,707.255554,776.880005,707.288025C776.967041,707.305786,777.054932,707.318787,777.143982,707.320007C777.172119,707.312866,777.198669,707.301941,777.223999,707.288025L777.23999,707.255981C776.210632,705.40918,775.119324,703.597351,773.968018,701.823975C772.958313,700.196655,771.901611,698.598511,770.799988,697.031982C770.33136,696.394043,769.838013,695.774536,769.320007,695.176025C769.221619,695.071167,769.121521,694.968018,769.007996,694.880005C768.820129,694.731995,768.618164,694.602539,768.400024,694.504028C768.283691,694.463501,768.165649,694.428345,768.047974,694.392029C767.387939,694.269287,766.745483,694.06543,766.135986,693.783997C765.349548,693.395325,764.687073,692.796021,764.216003,692.05603C763.704712,691.244568,763.293701,690.374451,762.992004,689.463989C762.602905,688.033691,762.290649,686.583618,762.05603,685.119995C761.251648,680.524597,760.648376,675.896057,760.247986,671.247986C760.155884,670.234802,760.123352,669.21698,760.151978,668.200012C760.187988,667.111511,760.510559,666.051331,761.088013,665.127991C761.792603,663.867859,762.569702,662.649658,763.416016,661.47998C763.476257,661.408997,763.534912,661.337341,763.607971,661.280029C763.925171,661.088196,764.271118,660.94873,764.632019,660.864014C766.545776,660.341187,768.520142,660.07428,770.504028,660.072021C770.997009,660.089722,771.487244,660.153625,771.968018,660.263977C772.221375,660.331116,772.455627,660.455139,772.656006,660.624023C772.800537,660.812439,772.977417,660.973755,773.176025,661.104004C773.362244,661.221497,773.566772,661.308533,773.783997,661.343994C774.348511,661.327393,774.879944,661.615051,775.176025,662.096008C775.793823,663.031616,775.861206,664.225159,775.35199,665.223999C775.050171,665.732361,774.601685,666.138184,774.064026,666.383972C773.397583,666.688171,772.676331,666.854492,771.94397,666.872009C771.594604,666.887207,771.24469,666.881775,770.895996,666.856018L769.335999,666.744019C769.05658,667.581299,768.802979,668.427063,768.575989,669.280029C767.833984,672.070374,767.746155,674.994263,768.320007,677.823975C768.579102,679.096619,769.027466,680.32312,769.64801,681.463989C769.963196,681.954712,770.386475,682.36615,770.888,682.664001C771.659363,683.132935,772.449219,683.570923,773.255981,683.976013C777.292175,686.013062,781.215332,688.26709,785.007996,690.728027C786.446899,691.646362,787.82312,692.659485,789.127991,693.76001C790.452271,694.951172,791.888367,696.011963,793.416016,696.927979C794.862244,697.820068,796.236938,698.823181,797.528015,699.927979C798.178528,700.479675,798.732056,701.135742,799.176025,701.864014C799.564453,700.871399,799.945313,699.877869,800.320007,698.880005C801.196716,696.53241,801.842224,694.104858,802.247986,691.632019C802.447571,690.19812,802.543518,688.751709,802.536011,687.304016C802.523743,686.850525,802.558472,686.396667,802.64801,685.952026L802.671997,685.888L802.703979,685.848022C802.728027,685.845093,802.752014,685.845276,802.776001,685.848022C802.83313,685.913757,802.890686,685.97876,802.952026,686.039978C802.995422,686.079956,803.041748,686.115906,803.088013,686.151978L803.127991,686.159973L803.16803,686.143982L803.184021,686.088013L803.200012,686C803.194092,685.90918,803.18573,685.818542,803.176025,685.728027C802.96405,684.704773,802.710693,683.690552,802.416016,682.687988C802.379761,682.52887,802.347046,682.369019,802.320007,682.208008L802.328003,682.16803C802.342834,682.161621,802.358093,682.156433,802.375977,682.159973L802.463989,682.247986C802.648193,682.501099,802.845093,682.744751,803.05603,682.976013C803.082031,682.990723,803.108826,683.003601,803.135986,683.015991L803.16803,683.015991C803.201477,682.994263,803.232178,682.968872,803.255981,682.935974C803.309326,682.843689,803.358582,682.749023,803.392029,682.64801L803.40802,682.583984L803.432007,682.495972C803.562744,681.584717,803.6203,680.664368,803.599976,679.744019C803.618774,679.005737,803.575378,678.267212,803.471985,677.536011C803.347229,676.992676,803.143494,676.470886,802.872009,675.984009C801.857727,674.111816,801.914185,671.841187,803.023987,670.023987L803.112,669.872009C804.416626,667.872559,805.771667,665.906738,807.176025,663.976013C809.182434,661.143311,811.265686,658.366577,813.424011,655.64801C814.015869,654.894287,814.671143,654.192505,815.383972,653.552002C815.486328,653.469849,815.589111,653.388245,815.695984,653.312012C815.924011,653.154114,816.182678,653.047241,816.455994,653L816.559998,653L816.664001,653.015991C816.743042,653.03656,816.823364,653.051086,816.903992,653.064026C817.010498,653.060425,817.113831,653.036255,817.216003,653.007996L817.392029,652.911987C817.794678,652.625183,818.161316,652.291077,818.487976,651.919983C818.822876,651.543457,819.23645,651.246521,819.695984,651.039978L819.872009,650.968018C821.551575,650.525574,823.279236,650.292236,825.015991,650.271973C825.848694,650.228333,826.683594,650.283081,827.504028,650.432007C827.976563,650.546204,828.432495,650.721313,828.856018,650.960022C829.721985,651.402527,830.517822,651.971069,831.216003,652.64801L831.367981,652.823975L831.47998,652.984009L831.552002,653.127991L831.599976,653.312012C831.612122,653.858337,831.490173,654.398193,831.247986,654.888C830.921387,655.621826,830.482117,656.299744,829.94397,656.895996C829.366089,657.484009,828.619202,657.876892,827.807983,658.023987C826.746155,658.271729,825.635742,658.212097,824.607971,657.848022L823.671997,657.455994C822.113525,659.157104,820.58783,660.888123,819.096008,662.64801C818.027649,663.891785,817.041626,665.203918,816.143982,666.575989C815.591797,667.414856,815.291565,668.395813,815.280029,669.400024C815.257568,670.759827,815.369629,672.11853,815.616028,673.455994C815.694885,674.106323,815.839233,674.74707,816.047974,675.367981L816.112,675.487976L816.16803,675.559998L816.223999,675.599976L816.280029,675.599976C816.3526,675.534912,816.414551,675.460144,816.463989,675.375977C816.512756,675.23938,816.564514,675.10376,816.616028,674.968018C816.641846,674.921814,816.663635,674.874146,816.695984,674.83197C816.714966,674.828247,816.733521,674.829834,816.752014,674.83197C816.772705,674.861572,816.797302,674.887756,816.815979,674.919983C816.972717,675.392822,817.093445,675.87677,817.176025,676.367981C817.588379,678.077698,818.087585,679.765259,818.671997,681.424011C819.680908,684.365417,820.755554,687.283142,821.895996,690.176025C822.609558,692.063782,823.236755,693.983154,823.776001,695.927979C824.107483,697.106628,824.32074,698.315369,824.416016,699.536011C824.492188,700.942627,824.521484,702.351501,824.504028,703.76001L824.504028,708.736023C824.910767,708.664368,825.309753,708.55426,825.695984,708.40802C827.241333,707.760132,828.759949,707.050415,830.247986,706.280029C831.961121,705.419617,833.657593,704.526245,835.335999,703.599976C837.708069,702.30426,840.254395,701.356384,842.895996,700.783997C846.127808,700.069641,849.396912,699.5354,852.687988,699.184021C858.002808,698.592712,863.336487,698.192444,868.679993,697.984009C870.68219,697.907959,872.680725,697.758545,874.671997,697.536011C875.409241,697.4328,876.145447,697.321106,876.880005,697.200012C876.931152,696.697266,876.966187,696.193054,876.984009,695.687988C876.944092,694.467957,876.74823,693.257996,876.400024,692.088013C876.070557,690.905273,875.637573,689.753845,875.104004,688.64801C874.617859,687.665894,874.203491,686.649902,873.864014,685.607971C873.836304,685.496399,873.809814,685.384094,873.783997,685.271973C873.634216,683.825317,873.538025,682.373779,873.495972,680.919983C873.383789,678.140625,873.28125,675.522949,873.176025,672.744019C873.058655,669.781189,872.850647,666.822144,872.552002,663.872009C872.231323,661.251404,871.967285,658.623901,871.76001,655.992004C871.710999,655.585388,871.716125,655.174255,871.768005,654.768005C871.797974,654.627075,871.860718,654.495483,871.952026,654.383972C872.182922,654.205261,872.410156,654.02179,872.632019,653.83197C873.380371,652.955688,873.950745,651.942261,874.312012,650.848022C874.338013,650.726501,874.35498,650.603455,874.367981,650.47998L874.375977,650.392029L874.400024,650.304016C874.428894,650.240173,874.458801,650.175659,874.487976,650.112L874.632019,649.903992L874.815979,649.687988C875.810852,648.758362,876.98877,648.047424,878.271973,647.59198C878.53064,647.497498,878.795166,647.419495,879.064026,647.359985L881.383972,647.119995L883.632019,647.624023z"/>
</svg>
