<?xml version="1.0" encoding="UTF-8"?>
<svg xmlns="http://www.w3.org/2000/svg" width="157.558mm" height="121.831mm" viewBox="-1297.780762 -566.385010 157.558105 121.831360">
    <path transform="matrix(-0.254258,0.073325,-0.073325,-0.254258,-1101.75061,-438.407776)" style="stroke:#000000;stroke-width:0.05mm;fill:none" d="M546.404968,655.885254C545.357239,654.722107,543.475952,653.378845,542.224365,652.900269C540.972778,652.421631,539.656311,651.235779,539.298889,650.265015C538.941467,649.29425,537.715515,647.597961,536.574524,646.495483C532.779114,642.828064,525,633.298523,525,632.316528C525,631.78418,523.875,630.291748,522.5,629C521.125,627.708252,520,626.258301,520,625.777954C520,625.297546,518.875,623.861877,517.5,622.587585C516.125,621.313293,515,619.829529,515,619.290344C515,618.751099,514.04834,617.452759,512.885254,616.404968C511.722107,615.357239,510.318481,613.375,509.766052,612C509.156616,610.483154,508.57489,610.00415,508.286774,610.782043C508.025635,611.487183,508.641785,613.236267,509.655975,614.668884C512.395935,618.539185,516.96405,627.317993,516.983276,628.75C516.992432,629.4375,517.450012,630,518,630C518.549988,630,519,631.087524,519,632.416687C519,633.74585,519.522888,635.007629,520.161987,635.220642C520.801147,635.433716,521.447144,637.789246,521.597656,640.4552C521.748169,643.121155,522.28064,645.571899,522.781006,645.901184C523.281372,646.23053,523.957031,648.1875,524.282471,650.25C524.817261,653.638733,524.659546,654,522.645325,654C520.303467,654,512,646.365356,512,644.212158C512,643.545471,511.538849,643,510.97525,643C510.411621,643,509.506042,641.987488,508.962799,640.75C508.419586,639.512512,507.080719,637.037476,505.987549,635.25C504.894409,633.462524,503.119904,630.537476,502.04422,628.75C500.968536,626.962524,496.603394,618.525024,492.343872,610C488.084351,601.474976,484.239441,594.349976,483.799652,594.166687C483.359833,593.983337,483,593.357605,483,592.776184C483,591.113159,478.782532,582.806824,476.259125,579.5C472.462799,574.525085,470.310974,571.256897,469.345764,569C468.99292,568.174988,467.6698,566.098999,466.405487,564.386658C465.141144,562.674316,463.808929,560.086853,463.444946,558.636658C463.080963,557.186523,462.430756,556,462,556C461.569244,556,460.932739,554.868103,460.58551,553.48468C459.875549,550.655945,458.555298,548.860229,451.75,541.467041C449.137512,538.628906,447,535.969421,447,535.557068C447,535.144714,444.637512,532.038208,441.75,528.653687C436.526123,522.530579,434.594116,519.860413,433.318146,517C432.950134,516.174988,431.602997,514.508972,430.324524,513.297729C429.046021,512.086487,428,510.693756,428,510.202728C428,509.711731,427.099457,508.494995,425.998779,507.498901C424.898102,506.502808,422.76059,503.230591,421.248779,500.227325C416.826752,491.442902,416.563446,491,415.762878,491C415.343292,491,415,490.153015,415,489.117828C415,488.082611,410.918549,479.195129,405.930145,469.367828C395.932312,449.671875,395.281769,448.499573,392.75,445.616028C391.787506,444.519806,391,442.83429,391,441.870453C391,440.906616,390.504089,439.811554,389.89798,439.436951C389.29184,439.062347,388.160126,437.348267,387.383057,435.62793C385.495728,431.449677,383.834747,428.843567,381.893036,427.014099C381.009216,426.181335,379.936066,424.375,379.50827,423C379.080475,421.625,378.453583,420.274994,378.115204,420C375.980408,418.264984,369.159332,409.077362,368.527039,407.085236C368.108551,405.766632,366.806244,403.745514,365.633057,402.593872C364.459869,401.44223,362.622498,398.924988,361.550018,397C359.235809,392.846252,358.766846,392.227631,353.25,386.050934C350.912506,383.433838,349,380.967133,349,380.569366C349,379.24115,343.521851,374.522827,339.738525,372.592529C337.682343,371.543427,336,370.358398,336,369.959167C336,369.559906,335.212494,368.968842,334.25,368.64566C333.287506,368.322479,331.825012,367.627472,331,367.101196C328.601624,365.571198,325.638916,364.675446,323.75,364.90918C322.787506,365.028259,322,364.64743,322,364.062866C322,363.478271,321.462128,363,320.804718,363C320.147308,363,318.374725,361.817078,316.865662,360.371277C314.173401,357.791931,313.847778,357.740295,299.524323,357.621277C288.724976,357.531555,284.717529,357.161438,284.122711,356.198761C283.68045,355.483093,282.234436,354.755096,280.909332,354.580994C279.584198,354.406891,277.712494,353.931824,276.75,353.525238C275.787506,353.118683,274.339417,353.03952,273.532013,353.349335C272.72464,353.659149,271.83017,353.534241,271.544312,353.071716C271.258453,352.609192,268.71521,352.230774,265.892609,352.230774C263.070038,352.230774,260.47702,351.784607,260.130341,351.239258C259.783661,350.693939,256.395447,349.98999,252.601013,349.674896C248.806564,349.359802,245.229065,348.629059,244.651016,348.051025C244.072952,347.472961,241.664993,347,239.300003,347C236.892075,347,235,346.525574,235,345.921783C235,345.287628,233.494507,344.97876,231.344452,345.171783C229.333908,345.352295,227.529816,345.03772,227.335358,344.472717C227.122757,343.85495,228.679779,343.529266,231.240906,343.655762C235.333267,343.85788,235.290787,343.823456,230.155655,342.776703C225.942963,341.917969,224.64267,341.960144,224.014938,342.97583C223.368835,344.02124,222.627457,344.003571,220.085831,342.882202C217.103378,341.566315,216.119949,338.5,218.680359,338.5C219.314499,338.5,220.170837,338.162506,220.583328,337.75C220.995834,337.337494,223.733337,337,226.666672,337C229.600006,337,232,336.617645,232,336.15033C232,335.683044,237.054321,334.993713,243.231827,334.6185C249.409332,334.243317,254.899338,333.500671,255.431824,332.96817C255.964325,332.435669,257.398651,332,258.619232,332C262.330017,332,273.395752,328.885956,275.124847,327.355103C276.018494,326.563904,277.143494,325.988617,277.624847,326.076691C279.82016,326.478394,282,325.903625,282,324.923065C282,322.290741,290.471497,316,294.016357,316C296.023773,316,296.019592,315.944977,293.779938,312.885895C290.061096,307.806427,255.109573,274,253.576874,274C253.162582,274,249.832062,271.299988,246.17569,268C242.519333,264.700012,239.121841,262,238.625717,262C238.129578,262,235.648331,260.171844,233.111832,257.937439C230.575317,255.703018,228.025436,253.565521,227.445419,253.187439C223.455154,250.586365,222.329727,249.912384,221,249.327499C220.175003,248.964615,217.860245,247.392471,215.856094,245.833862C213.851944,244.275238,211.81395,243,211.327209,243C210.840469,243,207.543228,240.074997,204,236.5C200.456772,232.925003,196.982269,230,196.278885,230C195.5755,230,195,229.324997,195,228.5C195,227.675003,194.324997,227,193.5,227C192.675003,227,192,226.428116,192,225.729156C192,225.030182,187.949997,220.427063,183,215.5C178.050003,210.572937,174,206.042114,174,205.431534C174,204.245178,168.491058,198.896362,165.99939,197.663467C161.549362,195.461563,159.997528,194.325211,152.888168,188.062561C150.351669,185.828156,147.81926,184,147.26062,184C146.701965,184,145.719086,183.366455,145.076447,182.592117C144.433807,181.81778,142.466202,180.446991,140.70401,179.545914C138.941803,178.644836,135.574768,176.834076,133.221725,175.522018C130.868668,174.209946,127.268669,172.598846,125.221718,171.941788C123.174774,171.284729,120.824997,170.164093,120,169.451477C119.175003,168.738876,117.23999,167.841324,115.699974,167.45694C111.935028,166.517227,112.483192,163.613007,116.508553,163.17305C118.153847,162.993225,119.927498,162.430725,120.449997,161.92305C121.652359,160.754807,126.295319,160.720688,127.550003,161.870895C128.072495,162.349884,129.850006,163.040344,131.5,163.405258C134.246124,164.012573,133.949921,163.536438,128,157.778854C124.425003,154.319427,119.91304,150.141464,117.973427,148.494492C113.602524,144.783066,110.67218,140.296677,111.392632,138.419205C112.024124,136.77356,119.528526,136.428131,120.5,138C120.83992,138.550003,122.351479,139,123.859016,139C125.366554,139,127.139999,139.539993,127.800003,140.199997C128.460007,140.860001,129,141.031586,129,140.581314C129,140.131027,130.604553,140.986481,132.565674,142.4823C136.5177,145.496643,137.930527,145.438705,135.239441,142.37265C133.01503,139.838287,131.251343,137.092346,130.022369,134.25C129.487289,133.012497,128.694519,132,128.260651,132C126.661324,132,124,123.83345,124,118.925751C124,114.158302,124.13031,113.901611,126.25,114.493515C130.100571,115.568756,139,120.193466,139,121.119225C139,121.603653,139.675003,122,140.5,122C141.324997,122,142,122.480042,142,123.066757C142,123.653465,143.599091,125.79097,145.553528,127.816757L149.107056,131.5L145.110062,123.809845C142.911728,119.580269,140.81163,114.512794,140.443176,112.548805C140.074738,110.584808,139.374283,108.731323,138.886642,108.429939C138.398987,108.128555,138,105.973526,138,103.640984C138,101.308441,137.460007,98.860001,136.800003,98.199997C135.910919,97.310921,135.891571,96.708435,136.725311,95.874695C138.48436,94.115639,144.294128,95.692162,146.403412,98.500916C147.435608,99.875412,148.800781,101,149.437119,101C150.922333,101,158,108.218399,158,109.733147C158,110.364998,158.443222,111.155891,158.98494,111.490692C159.601563,111.871788,159.729263,110.865501,159.326431,108.799713C158.972519,106.984871,158.304306,105.349998,157.841492,105.166664C157.378662,104.98333,157,102.647392,157,99.975685C157,97.303978,156.550003,94.83992,156,94.5C154.322678,93.463356,154.803802,83.874268,156.634644,81.851212C158.188721,80.133987,158.58313,80.368187,164.635559,86.602036C168.137009,90.208435,171.275208,94.248322,171.609329,95.579567C171.943451,96.910805,172.618027,98,173.108414,98C173.598785,98,174,98.507278,174,99.127289C174,100.076904,178.110382,109.43277,181.029221,115.126892C181.4879,116.021683,182.182816,118.496681,182.573471,120.626892C182.964142,122.757103,183.946243,125.400002,184.755936,126.5C186.170395,128.421585,186.199951,128.401978,185.509796,126C185.114716,124.625,184.560059,121.925003,184.277222,120C183.9944,118.074997,183.338242,115.970055,182.819092,115.322342C181.617844,113.823608,180.478745,86.592087,181.409714,81.62957C181.795059,79.575493,182.71814,77.661652,183.460999,77.376595C185.050034,76.766823,188.788544,79.648392,190.108017,82.5C190.61702,83.599998,192.150925,86.483276,193.516724,88.90728C194.882523,91.331291,196,93.738281,196,94.256157C196,94.774025,196.720886,96.840752,197.601959,98.848869C200.652451,105.801437,200.889603,106.519585,201.530334,110.744759C201.884369,113.079376,202.584869,115.243439,203.087006,115.55378C203.589157,115.86412,204,118.539917,204,121.5C204,124.460083,204.449997,127.16008,205,127.5C205.647888,127.900414,206,123.343719,206,114.559013C206,106.18634,206.382507,101,207,101C207.550003,101,208,100.324997,208,99.5C208,97.004944,212.423431,97.778954,215.143692,100.75C216.528519,102.262497,218.912872,106.199997,220.442276,109.5C224.600861,118.473053,224.635834,118.523735,226.442108,118.192505C227.364365,118.023384,229.329681,118.422729,230.809464,119.079941C233.827713,120.420418,240,128.076202,240,130.479401C240,131.33931,241.237503,132.568115,242.75,133.210083C244.262497,133.852051,246.740463,135.50444,248.256592,136.88205C250.392151,138.82251,251.282043,139.11795,252.206589,138.193405C254.002441,136.397568,257.360657,136.755722,259.769623,139C260.950348,140.100006,262.385193,141,262.958191,141C263.531189,141,264,141.615753,264,142.368332C264,143.214096,265.565125,143.946594,268.098297,144.286362C272.833832,144.921524,276.631348,148.04512,277.505249,152.023895C278.142578,154.925705,280.202393,155.961807,285.38269,155.986343C287.063202,155.994308,289.033417,156.885529,290.106995,158.123352C291.291443,159.489029,292.671051,160.057785,293.973297,159.717239C295.086884,159.426025,296.25,159.59552,296.558014,160.093887C296.866028,160.592239,297.936371,161,298.936584,161C299.936768,161,301.315308,161.675003,302,162.5C302.684692,163.324997,304.277283,164,305.539124,164C306.800934,164,308.008362,164.525085,308.22229,165.16684C308.436188,165.808609,310.347839,166.470459,312.470398,166.637604C314.93576,166.831772,317.28299,167.85498,318.969482,169.470764C320.421448,170.861847,322.293884,172,323.130402,172C323.966949,172,325.708252,173.125,327,174.5C328.291748,175.875,329.82782,177,330.413513,177C330.999207,177,332.608276,178.111435,333.989197,179.469849C338.052979,183.467361,343.360962,187.611786,345.34494,188.336334C346.35965,188.706894,347.424652,189.907822,347.711578,191.005051C348.025421,192.20517,349.083252,193.005447,350.366638,193.013657C353.840912,193.035889,356.998199,194.151627,357.024994,195.366638C357.067291,197.283722,364.962006,205,366.881134,205C368.763184,205,372,207.932953,372,209.638336C372,210.177795,373.789825,212.167358,375.977356,214.059586C378.415009,216.168152,379.963501,218.383163,379.977356,219.781387C379.989807,221.036148,380.674988,222.321793,381.5,222.638367C382.325012,222.954956,383,224.290833,383,225.606995C383,227.244705,383.568115,228,384.799988,228C387.009888,228,388.999634,229.870865,389.001038,231.949997C389.002167,233.646957,398.48407,244,400.037109,244C400.566681,244,401,242.930099,401,241.622452C401,240.314789,401.674988,238.684692,402.5,238C403.325012,237.315308,404,236.204346,404,235.531189C404,233.734375,407.012634,228,407.956604,228C408.402191,228,409.031158,227.212494,409.35434,226.25C410.627563,222.458069,414.571686,217.652725,417.176727,216.719604C418.878998,216.109848,423.977936,217.943481,423.992188,219.170547C423.99649,219.539337,425.447723,220.159058,427.217163,220.547699C430.669128,221.305878,433.599609,222.743576,435.782745,224.75C436.530823,225.4375,438.630615,226,440.448975,226C442.267365,226,444.315308,226.675003,445,227.5C445.684692,228.324997,446.864777,229,447.622437,229C448.380096,229,449,229.449997,449,230C449,230.550003,449.674988,231,450.5,231C451.325012,231,452,230.550003,452,230C452,228.177872,454.616425,228.962799,457,231.5C459.416962,234.072723,462.410126,234.763458,463.5,233C464.307343,231.693695,468.312836,231.712814,469.629272,233.029266C470.334961,233.73497,471.419556,233.650925,473.079285,232.761963C475.85318,231.276215,481.258453,227.798889,482,227.023102C482.667938,226.324295,486.146271,224.152649,487.943359,223.312454C488.737213,222.941299,491.462708,220.55069,494,218C496.537292,215.44931,499.262787,213.038193,500.056641,212.641968C502.457031,211.443878,505.375183,209.619415,508.633636,207.279541C510.33429,206.058289,511.925171,205.258484,512.168884,205.502197C512.412598,205.745911,515.498779,203.032623,519.0271,199.472656C524.322815,194.129471,526.014404,193,528.72113,193C530.524475,193,532,193.269211,532,193.598251C532,193.927292,530.3125,195.716858,528.25,197.575058C525.500916,200.051819,524.967102,200.959793,526.25,200.976791C527.212524,200.989563,528,200.585754,528,200.079453C528,199.573151,529.349976,198.862396,531,198.5C532.650024,198.137604,534,197.536697,534,197.164658C534,195.999008,539.983398,193.779663,541.528015,194.372391C543.09375,194.973206,543.596741,198,542.130859,198C541.652832,198,541.009766,199.552277,540.701904,201.449493C540.269775,204.112549,538.245056,206.733215,531.821045,212.944397C527.244507,217.36937,524.030334,220.992096,524.678589,220.994904C525.326782,220.997696,526.472778,220.384369,527.22522,219.631927C527.977661,218.879501,529.697266,217.918839,531.046631,217.497147C532.395996,217.075455,533.724976,216.453583,534,216.115219C534.807373,215.121765,538.884705,213,539.98645,213C541.990723,213,540.934692,215.325455,537.428772,218.631927C535.464661,220.48436,533.439636,222,532.928772,222C532.417969,222,532,222.482147,532,223.071426C532,224.252258,529.532837,227,528.472534,227C527.659607,227,522.182068,229.395981,515.742249,232.568451C513.125488,233.857559,509.300476,235.22319,507.242249,235.60318C505.184021,235.983185,502.600006,237.250595,501.5,238.419647C500.399994,239.588715,497.838104,241.331497,495.806915,242.292511C493.775726,243.253525,491.235962,245.155853,490.162994,246.519913C489.090027,247.883957,487.823669,249,487.348877,249C486.24231,249,486.900269,258.191101,488.096954,259.450012C489.328094,260.745148,489.245819,268,488,268C486.232117,268,486.934326,271.511139,489,273C491.267883,274.634583,491.594025,278.075958,489.75946,281.01358C488.768738,282.599976,488.775543,283.41095,489.793335,285.04068C490.494263,286.163055,490.82016,287.481964,490.517578,287.971588C490.214966,288.461212,490.424713,289.14447,490.983673,289.489929C491.542664,289.835388,492,291.403961,492,292.975677C492,294.547394,492.456635,295.985535,493.01474,296.17157C493.572845,296.357605,494.318085,299.600433,494.670807,303.377808C495.208954,309.140625,495.04837,310.393433,493.672791,311.163239C492.363739,311.895813,492.263367,312.448822,493.17453,313.907867C494.8508,316.59201,493.580505,318.716125,489.817566,319.521179C487.99292,319.91156,486.049988,320.568207,485.5,320.980408C483.6651,322.355652,475.601288,323.354889,465.75,323.427826C460.387512,323.467529,456,323.812958,456,324.195435C456,324.906128,460.176483,327.457306,463.157532,328.567566C464.069183,328.907104,465.038971,330.041046,465.312592,331.087402C465.586243,332.133789,466.64035,333.287048,467.65506,333.650238C471.726044,335.10733,497,360.306366,497,362.908203C497,363.437012,499.475006,366.258728,502.5,369.17865C505.524994,372.098602,508,375.062958,508,375.766144C508,376.46936,509.799988,378.997467,512,381.384186C514.284058,383.862091,516,386.72467,516,388.057098C516,389.340515,517.193604,391.636414,518.652466,393.159119C520.905396,395.510681,521.106934,396.166199,519.990723,397.5112C518.864807,398.867828,519.244446,399.696808,522.640625,403.297333C526.766968,407.671997,528.431519,410.597504,529.441284,415.25C529.769531,416.762512,530.479553,418,531.019043,418C531.558594,418,532,419.15155,532,420.559021C532,422.01358,532.432434,422.8508,533.001892,422.49884C534.542908,421.546448,536.208374,427.075867,535.506836,430.815399C535.14978,432.718384,535.351196,434.718231,535.975525,435.470551C536.577576,436.195953,536.982971,437.174347,536.876343,437.644745C536.595825,438.882263,538.071106,442.228485,539.770813,444.209991C541.661377,446.414063,540.633179,452.531921,538.225342,453.405792C535.485901,454.399994,532.11322,456.545013,529.648071,458.860901C528.395752,460.037415,526.837585,461,526.185547,461C525.533508,461,525,461.401215,525,461.891602C525,462.381958,523.83667,463.075165,522.414795,463.432037C520.99292,463.78891,518.86438,464.980103,517.684692,466.079132C516.505005,467.178192,514.405823,468.353607,513.019897,468.691193C510.044922,469.415833,505.075928,473.015015,507.115143,472.968201C507.876801,472.950714,509.373505,472.275696,510.441132,471.468201C511.508759,470.660675,513.61969,470,515.132141,470C516.644531,470,518.144043,469.575989,518.464294,469.05777C518.784546,468.539551,521.173645,467.8078,523.773315,467.431641C526.372986,467.055481,528.950012,466.404877,529.5,465.98584C530.049988,465.566803,532.766479,464.919525,535.536621,464.547485C539.844116,463.968964,540.839478,464.165131,542.411865,465.902618C543.46759,467.069214,544.030579,468.774994,543.73407,469.908813C543.389648,471.226044,544.013733,472.48114,545.608887,473.679047C546.924011,474.666656,548,476.404602,548,477.541168C548,478.677734,549.575012,481.134216,551.5,483C553.424988,484.865784,555,486.979065,555,487.696167C555,488.413269,555.450012,489,556,489C557.650818,489,557.12793,492.185211,555.25,493.569061C553.588867,494.793121,553.596863,495.039978,555.407471,498.429291C556.456604,500.393188,557.743286,502,558.266907,502C558.790466,502,559.027649,503.637604,558.793945,505.639099C558.459656,508.502838,558.883728,509.792816,560.784424,511.693512C562.65741,513.566467,563.121155,514.938599,562.849854,517.804382C562.530212,521.18103,562.946106,521.888367,567.66864,526C573.328186,530.927429,574.479614,534,570.666687,534C569.383362,534,568.040161,534.293213,567.681824,534.65155C566.949036,535.384277,571.52002,538,573.533264,538C575.352112,538,580.889648,541.061768,583.932617,543.75C585.333435,544.987488,587.046692,546,587.739807,546C588.432922,546,589,546.842468,589,547.872192C589,549.26239,588.034607,549.898682,585.25,550.343628C579.981689,551.185547,558.725403,550.125427,557.562805,548.962769C556.145691,547.545715,554,547.791687,554,549.371155C554,550.259949,555.744568,550.973755,558.958923,551.400146C561.686279,551.761963,564.171814,552.468933,564.482239,552.971191C564.792664,553.473511,567.061157,554.186523,569.523315,554.555786C571.985474,554.924988,574,555.625977,574,556.113525C574,556.601074,575.09845,557,576.440979,557C577.783508,557,579.12854,557.398987,579.429932,557.886658C579.731323,558.374268,581.538879,559.066101,583.446716,559.424011C585.354553,559.781921,588.172058,560.730164,589.707764,561.53125C591.243469,562.332275,593.025024,562.990479,593.666687,562.993835C594.30835,562.997253,594.983337,563.337524,595.166687,563.75C595.349976,564.162476,597.676453,565.563538,600.336609,566.863403C603.526306,568.422058,604.836304,569.56366,604.183838,570.216187C602.705688,571.694336,582.450439,572.537842,581.596924,571.156799C581.092651,570.340942,580.40387,570.355347,579.034851,571.210327C577.604736,572.103455,576.828064,572.102173,575.746948,571.204956C574.463135,570.139465,569.726074,569.061646,564.5,568.645813C563.400024,568.558289,562.049988,568.214417,561.5,567.881592C560.950012,567.548828,559.262512,566.980713,557.75,566.619202C556.237488,566.25769,555,565.465393,555,564.858521C555,564.122925,554.493713,564.175293,553.481262,565.015564C552.24231,566.043823,551.624084,565.969788,550.125854,564.613892C549.115723,563.699707,547.607239,563.213501,546.773682,563.533386C545.88324,563.875061,544.994751,563.428772,544.619751,562.451416C544.169434,561.277893,543.281372,560.963562,541.605103,561.384277C540.105347,561.760681,538.772644,561.430969,537.992004,560.490356C537.311707,559.670654,535.572693,559.002747,534.127563,559.006165L531.5,559.012329L534,560.343506C535.375,561.075684,538.293335,562.647888,540.485168,563.837341C542.677063,565.026794,545.039551,566,545.735168,566C546.430847,566,547,566.343872,547,566.764099C547,567.5672,554.299194,571,556.006836,571C556.553101,571,557,571.401245,557,571.891602C557,572.381958,558.232971,573.092651,559.73999,573.470886C561.246948,573.849121,562.709473,574.47467,562.98999,574.861084C563.270508,575.247437,566.424988,577.047607,570,578.86145C578.391296,583.118958,579.889648,583.975281,585.137939,587.513123C589.957947,590.762268,598,598.473267,598,599.845642C598,601.266968,588.164612,602.019104,585.205139,600.824097C583.717346,600.223328,581.16571,599.560303,579.534851,599.350769C577.904053,599.141174,576.126526,598.52655,575.584839,597.984863C575.043213,597.443176,573.822144,597,572.871399,597C571.920715,597,570.437317,596.294495,569.575012,595.43219C568.712708,594.569824,566.993042,593.746521,565.753601,593.602539C564.514099,593.458557,561.502991,592.364075,559.062195,591.170349C556.621338,589.976685,554.383667,589,554.089539,589C553.070862,589,563.504761,597.910583,564.575684,597.9552C565.167297,597.979858,566.708252,599.125,568,600.5C569.291748,601.875,570.671204,603,571.065491,603C572.523621,603,584.866882,616.078064,586.154785,618.987488C586.888184,620.644348,587.828369,622,588.244141,622C589.419495,622,589.13324,626.799622,587.912842,627.553833C587.314941,627.923401,586.360107,627.760132,585.791016,627.19104C585.221924,626.621887,584.208191,626.366577,583.53833,626.623657C582.868469,626.880676,581.743225,626.395569,581.037781,625.545532C580.332336,624.695496,578.460205,624,576.877563,624C575.085999,624,574,623.474792,574,622.608398C574,621.843018,572.789978,620.913086,571.310974,620.541931C569.832031,620.170715,567.253906,618.88446,565.581726,617.683533C562.237061,615.281372,559.302185,613.461487,557,612.362183C556.174988,611.968201,555.275024,611.388062,555,611.072937C553.593018,609.460693,545.812256,603.854431,545.464417,604.202209C545.242798,604.423889,548.87262,608.396606,553.530701,613.030518C558.188843,617.66449,562,622.00592,562,622.678223C562,623.350525,562.678894,624.280579,563.508667,624.744934C565.388306,625.796814,573,640.516296,573,643.099243C573,644.447815,572.290833,645,570.559021,645C569.216492,645,567.847351,644.562012,567.516541,644.026733C567.18573,643.491455,565.466919,642.366333,563.69696,641.526428C561.927002,640.686523,559.339905,638.943237,557.947876,637.652466C556.555847,636.361694,554.893127,635.12439,554.25293,634.902832C553.612793,634.681274,548.041199,629.558228,541.871704,623.518311C534.727356,616.523926,530.488708,613.033875,530.197937,613.906189C529.946838,614.659485,530.474609,615.686096,531.370728,616.187561C532.266846,616.689087,533,617.589172,533,618.187866C533,618.786499,534.828125,621.351685,537.062561,623.888184C542.720459,630.311035,542.837952,630.486938,543.590698,633.664429C543.960205,635.223999,545.215942,637.548767,546.381226,638.830566C548.469604,641.127747,548.472168,641.181519,546.558899,642.580566C544.665344,643.96521,544.671448,644,546.808899,644C548.541992,644,549,644.585266,549,646.799988C549,648.340027,549.402588,650.027527,549.894653,650.549988C550.386719,651.07251,551.097473,652.962524,551.474121,654.75C552.059448,657.528015,551.879456,658,550.234436,658C549.175964,658,547.452759,657.04834,546.404968,655.885254z"/>
    <path transform="matrix(-0.254258,0.073325,-0.073325,-0.254258,-1101.75061,-438.407776)" style="stroke:#000000;stroke-width:0.05mm;fill:none" d="M506.345062,607.456848C506.019379,606.608154,505.538452,606.128235,505.276337,606.39032C505.014191,606.652466,505.096344,607.346863,505.458893,607.933472C506.444916,609.528931,507.021271,609.218994,506.345062,607.456848z"/>
    <path transform="matrix(-0.254258,0.073325,-0.073325,-0.254258,-1101.75061,-438.407776)" style="stroke:#000000;stroke-width:0.05mm;fill:none" d="M553,588.559021C553,588.316467,552.549988,587.839905,552,587.5C551.450012,587.160095,551,587.358521,551,587.940979C551,588.523438,551.450012,589,552,589C552.549988,589,553,588.801575,553,588.559021z"/>
    <path transform="matrix(-0.254258,0.073325,-0.073325,-0.254258,-1101.75061,-438.407776)" style="stroke:#000000;stroke-width:0.05mm;fill:none" d="M488.540649,239.361649C489.744415,238.062744,491.144653,237,491.652252,237C492.159882,237,494.791351,234.75,497.5,232C501.903381,227.529388,502.180115,227,500.113525,227C496.912994,227,490.910706,229.878998,488.441284,232.598587C487.30896,233.845596,485.171478,235.169846,483.691284,235.541351C482.21106,235.912857,481,236.618027,481,237.108414C481,237.598785,480.294678,238,479.432617,238C478.26947,238,478.043121,238.580292,478.554993,240.25C479.865204,244.523834,481.024231,245.214142,483.817108,243.384171C485.211273,242.470688,487.336853,240.660553,488.540649,239.361649z"/>
</svg>
