<?xml version="1.0" encoding="UTF-8"?>
<svg xmlns="http://www.w3.org/2000/svg" width="270.899mm" height="270.899mm" viewBox="-1185.158447 -736.532471 270.899414 270.899445">
    <path transform="matrix(-1,0,0,-1,0,0)" style="stroke:none;fill:#000000;fill-rule:evenodd" d="M914.259399,728.529846L914.259766,720.527222L915.780579,720.075928C919.43988,718.990112,921.165955,715.683289,919.646118,712.670532C918.970703,711.331543,916.730042,710.077454,915.013184,710.077454L914.259033,710.077454L914.259033,703.495667L914.259033,696.913879L916.153503,696.63269C921.262756,695.87439,924.519104,692.378235,923.789917,688.433899C923.333191,685.963013,922.228882,684.622009,919.695984,683.462402C918.608093,682.964355,917.528809,682.704529,916.191467,682.618652L914.259033,682.49469L914.259033,675.688843L914.259033,668.882996L915.912476,668.713135C920.604492,668.23114,923.485901,664.991272,923.198914,660.520203C923.094543,658.89386,922.939636,658.381226,922.249268,657.377808C920.948242,655.486755,918.311218,654.011292,915.471558,653.585449L914.259033,653.403625L914.259033,634.952026L914.259033,616.500366L915.561157,616.346191C918.129944,616.041931,920.650696,614.198303,921.961914,611.664795C922.480469,610.662842,922.578003,610.076172,922.577515,607.96106C922.577087,605.755615,922.490967,605.282959,921.874146,604.101257C920.697327,601.846558,917.972961,599.932617,915.447876,599.586487L914.259033,599.423523L914.259033,580.015076C914.259033,561.216919,914.274597,560.606567,914.754883,560.606567C915.707703,560.606567,917.528992,559.798523,918.654114,558.876587C921.038757,556.922485,922.355835,552.51886,922.132324,547.246765C921.996399,544.040405,921.5896,542.669128,920.237244,540.858643C919.172668,539.433411,917.58313,538.443237,915.738464,538.056335L914.259033,537.746033L914.259033,529.335022L914.259033,520.924011L914.969177,520.924011C918.544495,520.924011,922.276855,514.874939,921.849182,509.773468C921.565735,506.392822,919.061218,503.240082,915.868164,502.244476L914.26355,501.744141L914.261292,487.958221L914.259033,474.172333L915.559387,474.018341C917.336548,473.807861,919.749023,472.533997,921.381104,470.944305C922.751221,469.609741,924.040039,467.327972,924.0448,466.228271L924.047363,465.633026L935.158508,465.633026L946.269592,465.633026L946.269592,466.374725C946.269592,468.442596,949.225159,471.951172,952.064819,473.254333C957.420776,475.71225,963.284302,472.619843,964.132996,466.889648L964.319092,465.633026L971.401489,465.633026L978.483887,465.633026L978.798706,467.815552C979.363586,471.731079,981.166504,474.534241,983.786072,475.570038C985.235718,476.143219,987.328491,475.959808,989.035583,475.109955C991.83075,473.718445,994.797363,469.75119,995.127563,466.963135L995.285095,465.633026L1013.44928,465.633026L1031.613525,465.633026L1031.951538,467.269714C1032.896484,471.844482,1035.498779,473.988129,1040.062988,473.951355C1045.113892,473.910645,1049.903809,470.659302,1050.397705,466.936371L1050.570557,465.633026L1057.90979,465.633026L1065.249023,465.633026L1065.418213,466.908447C1065.721924,469.197083,1067.51062,471.332367,1070.34375,472.788055C1071.2323,473.244659,1072.116943,473.429291,1073.83252,473.516205C1075.825195,473.617188,1076.295166,473.553101,1077.366455,473.034546C1079.687378,471.911011,1081.5448,469.361664,1081.892822,466.821869L1082.055786,465.633026L1102.351074,465.633026L1122.646484,465.633026L1122.937744,467.390717C1123.485474,470.696594,1125.341919,473.387268,1127.964111,474.675964C1128.90271,475.137268,1129.776123,475.309479,1131.539795,475.38092C1133.717407,475.469116,1133.986206,475.419952,1135.557861,474.64624C1136.484253,474.190155,1137.566284,473.43396,1137.96228,472.965759C1139.029541,471.703857,1139.959229,469.490662,1140.281372,467.44455L1140.56665,465.633026L1162.862549,465.633026L1185.158447,465.633026L1185.158447,484.15155C1185.158447,498.792236,1185.089233,502.669189,1184.827881,502.665863C1184.645996,502.663544,1181.699463,502.861694,1178.280273,503.106201C1173.149414,503.473083,1171.450928,503.498291,1168.55835,503.250458C1161.358887,502.633606,1154.796021,500.683655,1148.12146,497.178192C1141.396973,493.646484,1140.490601,493.220093,1138.209229,492.514923C1134.837769,491.472778,1133.427368,491.248474,1129.311646,491.099915C1125.833008,490.974365,1125.28064,491.017212,1123.756104,491.531006C1118.843506,493.186584,1115.671265,498.407715,1117.845825,501.258636C1119.376465,503.265533,1121.473999,503.728271,1129.040283,503.728271C1137.450439,503.728271,1140.526367,504.352112,1147.592407,507.490845C1155.973145,511.213623,1158.665405,511.934662,1167.169067,512.733887C1170.297363,513.027893,1174.679688,513.56665,1176.907593,513.931152C1179.135498,514.295654,1181.90332,514.666748,1183.05835,514.755859L1185.158447,514.917786L1185.158447,547.947388L1185.158447,580.976929L1184.316162,580.976929C1182.202393,580.976929,1179.664795,583.121582,1178.956543,585.506531C1178.379883,587.448486,1178.441895,589.759888,1179.194092,594.345886C1181.190796,606.520325,1181.181519,608.633423,1179.054443,625.9505C1178.377441,631.463196,1178.257446,637.096863,1178.772827,639.177979C1179.532349,642.244934,1181.069336,643.887451,1183.783447,644.532104L1185.158447,644.858765L1185.158447,652.294678L1185.158447,659.730591L1181.388672,659.893555C1176.947632,660.085571,1174.64502,660.52533,1171.326416,661.815369C1165.78479,663.969421,1162.890137,664.92627,1159.658813,665.672058C1153.817383,667.020264,1152.463135,667.632996,1146.619629,671.571228C1144.379517,673.080994,1142.157349,674.159607,1140.184937,674.694641C1139.675659,674.832764,1136.461426,675.031555,1133.042114,675.136414C1127.319458,675.31189,1126.724976,675.375366,1125.564453,675.934387C1121.005249,678.130737,1122.060059,685.149292,1127.336426,687.724121C1129.461182,688.761047,1131.425537,689.053589,1133.800293,688.686951C1136.344238,688.294189,1138.583496,687.238892,1142.821167,684.435547C1146.674438,681.886597,1149.676025,680.399902,1154.073853,678.862427C1155.819824,678.252014,1159.986572,676.703796,1163.33313,675.421997C1169.958252,672.884399,1173.620483,671.694946,1176.692871,671.082764C1179.1073,670.601746,1182.80249,670.130371,1184.159546,670.130371L1185.158447,670.130371L1185.158447,677.758545L1185.158447,685.386658L1182.446899,685.683533C1178.900269,686.071899,1176.233643,686.867859,1169.020996,689.691101C1165.74707,690.972534,1161.520996,692.584351,1159.629395,693.272888C1150.511475,696.591858,1147.321167,699.249207,1147.266724,703.570374C1147.194702,709.287415,1152.849365,712.343506,1158.240845,709.501221C1159.411499,708.884033,1160.820435,707.698608,1163.068604,705.439087C1164.814575,703.684204,1166.778931,701.819885,1167.433594,701.296143C1170.64624,698.72644,1174.732788,697.287842,1180.045288,696.856506C1181.881348,696.707397,1183.782837,696.585388,1184.270996,696.585388L1185.158447,696.585388L1185.158447,704.349548L1185.158447,712.113708L1182.930908,712.425293C1179.108765,712.960022,1176.763184,714.00177,1174.779663,716.045532C1172.802368,718.082886,1172.265625,720.496277,1173.223999,723.040405C1173.966797,725.012329,1175.033936,726.228394,1176.87146,727.197021C1178.753052,728.188965,1180.59082,728.596008,1183.187378,728.596008L1185.158447,728.596008L1185.158447,732.564209L1185.158447,736.532471L1173.291504,736.532471L1161.424316,736.532471L1161.255859,734.9198C1160.919189,731.699829,1158.603271,728.169556,1155.936279,726.811401C1154.145874,725.899658,1151.325439,725.69342,1149.609497,726.348755C1147.01355,727.34021,1145.172241,730.324341,1144.590942,734.482239L1144.304199,736.532471L1136.649414,736.532471L1128.994629,736.532471L1129.15918,733.688599C1129.366333,730.109863,1129.784302,728.364502,1131.582153,723.56958C1133.539429,718.349609,1133.852173,717.023438,1133.859863,713.913452C1133.875977,707.44458,1130.723999,703.199158,1125.905518,703.199158C1123.423096,703.199158,1121.550171,704.333679,1120.469727,706.491821C1119.559814,708.309326,1119.599121,710.503784,1120.623291,715.069946C1122.094238,721.627747,1121.993286,723.866943,1119.941772,730.183289C1119.303711,732.147583,1118.701172,734.379761,1118.602661,735.143616L1118.423706,736.532471L1097.859619,736.532471L1077.295654,736.532471L1077.136597,735.189331C1076.787598,732.242126,1074.700684,729.386719,1071.954468,728.098877C1070.711548,727.515991,1070.117676,727.407532,1068.227295,727.418213C1066.332153,727.428894,1065.768066,727.540039,1064.639038,728.125122C1062.154785,729.412781,1060.238159,732.231018,1059.876099,735.128662L1059.700684,736.532471L1040.722412,736.532471L1021.743958,736.532471L1021.429749,734.629883C1021.256958,733.583374,1020.569702,731.351257,1019.902527,729.669556C1018.087158,725.093567,1017.777466,724.117188,1016.530945,719.039185C1015.901428,716.474731,1015.079224,713.705688,1014.703857,712.885742C1013.693298,710.678406,1011.963318,708.585693,1009.051758,706.048584C1004.289978,701.89917,1002.60614,699.857422,1000.758667,695.992676C999.222229,692.778625,998.630127,690.198608,998.4599,685.975647C998.089905,676.799866,1001.47821,668.476074,1008.202393,662.041626C1009.953369,660.366211,1011.356262,659.272217,1018.448792,654.051514C1024.29126,649.750977,1029.306519,644.61084,1030.727295,641.467285C1032.726318,637.044312,1027.998169,633.321472,1023.022095,635.400574C1021.011108,636.240845,1019.621399,637.349792,1011.613525,644.504272C1001.628906,653.424805,997.239197,658.817017,992.56842,667.898438C988.777588,675.269104,986.981628,682.130981,987.375122,687.741089C987.815186,694.015503,989.724304,697.860168,997.109497,707.344604C1003.267822,715.253357,1006.815369,720.885132,1008.403442,725.274048C1009.2052,727.489868,1009.902588,731.262573,1010.129883,734.614502L1010.26001,736.532471L1002.622437,736.532471L994.984924,736.532471L994.812988,735.011353C994.436584,731.681641,993.459534,728.756226,991.684814,725.644897C990.606506,723.754639,988.980469,721.519287,983.920898,714.97168C978.281921,707.674255,974.300354,700.667358,973.09729,695.924072C971.260254,688.680908,971.74231,680.268677,974.448303,672.349121C978.486694,660.530273,985.631836,648.844116,995.011169,638.717896C999.311462,634.075195,1001.946106,631.865234,1007.992981,627.828735C1013.5271,624.134644,1014.937805,622.640198,1015.354553,620.030396C1016.003906,615.963806,1011.089111,612.954956,1006.200439,614.42627C1005.505005,614.635559,1004.318787,615.216614,1003.564331,615.717529C1001.658997,616.982605,986.162415,632.463379,984.052246,635.209717C982.075684,637.782166,980.697632,639.826111,975.267639,648.23938C968.849182,658.184326,967.123657,661.673218,965.192871,668.609985C963.228149,675.668823,961.371582,682.775696,961.102844,684.266235C960.477112,687.737427,960.908081,690.822876,962.625366,695.165894C964.116272,698.93634,964.953979,701.602173,965.721558,705.018799C967.105896,711.180298,968.546082,713.554626,973.333984,717.568604C976.994385,720.63739,979.168518,722.95459,980.469177,725.173218C981.887512,727.592651,983.050964,731.39801,983.234375,734.217651L983.384949,736.532471L975.575684,736.532471L967.766357,736.532471L967.599609,735.275879C967.202759,732.285156,964.581421,728.666321,961.940125,727.462769C961.044922,727.054932,960.179138,726.894043,958.905151,726.899048C957.266113,726.905518,957.001648,726.98999,955.616943,727.949463C953.608154,729.341309,952.467285,731.387756,952.030884,734.381836L951.717407,736.532471L944.923035,736.532471L938.128662,736.532471L937.942505,735.275879C937.514771,732.387817,935.45874,729.624329,933.159668,728.847412C931.797119,728.387024,929.515076,728.373901,927.989502,728.817627C925.286011,729.603943,922.65094,732.585815,922.296143,735.260132L922.12738,736.532471L918.193176,736.532471L914.259033,736.532471L914.259399,728.529846M977.57782,561.278015C979.196106,560.32959,980.834656,558.487305,981.663086,556.684631C983.016052,553.740662,982.368713,550.280823,980.101807,548.340454C977.173889,545.83429,972.103821,546.149902,969.365173,549.00885C967.949951,550.486267,967.323242,552.221558,967.326416,554.654175C967.330872,558.110718,968.674011,560.372925,971.516846,561.711792C973.065063,562.440918,975.945129,562.234802,977.57782,561.278015M932.220703,643.15387C935.651489,641.380127,938.076172,635.68457,937.033813,631.847839C936.341919,629.300964,933.738037,627.205017,930.759827,626.797729C925.666321,626.101135,921.354736,629.853821,921.370911,634.969482C921.379089,637.56311,921.969604,639.15271,923.579102,640.913757C926.171631,643.750427,929.432129,644.595581,932.220703,643.15387M1105.647949,486.947388C1107.490845,486.045746,1109.818726,483.556305,1110.391846,481.87439C1111.986816,477.193481,1108.862305,473.108795,1103.297607,472.60022C1098.997803,472.207214,1095.184204,474.05014,1093.159302,477.499603C1092.197021,479.138885,1092.016968,482.027771,1092.783447,483.530151C1094.771729,487.427673,1101.18457,489.131104,1105.647949,486.947388M1103.740845,630.625183C1109.5177,627.798828,1110.155518,620.052002,1105.004272,615.282776C1102.928223,613.360718,1101.067383,612.640198,1098.518311,612.771362C1096.235229,612.888855,1094.485107,613.68396,1092.884399,615.330933C1087.95874,620.399109,1089.758667,628.562012,1096.340454,631.004211C1098.404785,631.770203,1101.750854,631.598816,1103.740845,630.625183M939.720642,497.910675C941.430725,497.270874,943.105774,495.638,943.929626,493.807617C944.815552,491.839478,944.801697,488.234406,943.901184,486.404419C943.031311,484.636597,941.323303,483.031647,939.19873,481.985718C936.940552,480.874023,934.397095,480.785278,932.513,481.752411C927.156494,484.501984,925.950806,489.605103,929.54126,494.330414C932.247009,497.891418,936.125854,499.255676,939.720642,497.910675M1046.370239,668.937012C1050.115479,667.961548,1052.729126,665.183105,1053.674194,661.172607C1054.584106,657.311218,1052.574463,653.515869,1048.738037,651.850098C1045.939941,650.635193,1042.304321,651.841675,1039.19812,655.01593C1035.270142,659.029907,1034.725708,663.094116,1037.676147,666.375732C1039.945801,668.900146,1043.026855,669.807861,1046.370239,668.937012M968.282715,504.482941C973.94751,501.504181,977.512268,493.666321,975.240906,489.184021C973.566895,485.880463,969.253235,484.855438,965.188538,486.795349C960.704102,488.935547,957.949585,493.808472,958.233826,499.098633C958.399048,502.173004,959.575012,504.134216,961.878052,505.176208C963.401733,505.86557,966.236938,505.558655,968.282715,504.482941M1099.28418,729.380066C1103.565063,728.76123,1106.057983,725.809631,1106.057983,721.359619C1106.057983,718.729736,1105.443604,717.100525,1103.851318,715.508301C1101.750244,713.407227,1098.561768,712.575012,1095.156128,713.23877C1091.994385,713.855103,1089.937134,715.435059,1088.657593,718.229797C1088.098999,719.450134,1088.020996,719.937683,1088.126587,721.548767C1088.397217,725.673584,1091.202515,728.640869,1095.507935,729.355957C1097.439697,729.676819,1097.239746,729.675537,1099.28418,729.380066M948.782837,562.484131C951.177795,561.371216,952.684204,558.935181,953.21051,555.323853C953.857971,550.881775,952.510925,547.220093,949.70874,545.804749C946.821411,544.346313,941.823669,545.320313,939.270569,547.838867C936.578186,550.494995,936.018616,555.227661,937.990356,558.666931C938.928467,560.303223,941.325073,562.122009,943.357849,562.740356C944.673218,563.140442,947.675659,562.998657,948.782837,562.484131M948.412903,616.280762C951.170288,614.883545,953.346924,612.191772,954.122559,609.21991C954.952637,606.039307,953.912598,603.494751,951.017517,601.623535C948.237366,599.82666,944.96521,599.585693,942.118774,600.968323C940.378235,601.813782,938.260071,604.105896,937.699829,605.750122C937.138123,607.398621,937.154846,610.145386,937.736572,611.774536C938.562744,614.08844,941.056885,616.347046,943.491821,616.98645C944.76355,617.320374,946.991943,617.000793,948.412903,616.280762M996.95874,581.762512C998.846741,580.856323,1001.291809,578.294067,1002.374146,576.087463C1003.195801,574.412415,1003.279053,574.030396,1003.267517,571.986938C1003.256836,570.083801,1003.146362,569.524292,1002.557007,568.386963C1001.206848,565.781738,999.258911,564.675659,996.421997,564.903381C993.826965,565.111694,990.908569,566.962708,988.912476,569.666382C987.262451,571.901245,986.686646,573.423889,986.671143,575.59314C986.648499,578.759521,988.174622,581.128723,990.913391,582.179016C992.378906,582.741028,995.345947,582.53656,996.95874,581.762512M934.546692,588.83197C936.231995,587.967041,937.570618,586.622864,938.371948,584.990845C939.19873,583.306946,939.211304,580.33374,938.399292,578.529663C937.594116,576.740845,935.456421,574.593567,933.484253,573.592529C929.851929,571.748901,926.538879,571.952209,924.137024,574.166199C922.689697,575.500244,922.083557,576.633118,921.657043,578.800903C920.786682,583.224915,923.330078,587.648926,927.710022,589.32959C929.32196,589.948059,932.876099,589.689392,934.546692,588.83197M942.343689,530.764038C946.401733,529.425293,949.05188,526.646484,950.096863,522.634338C950.973938,519.267212,950.409302,516.572937,948.407043,514.570618C946.916321,513.079956,945.431335,512.5979,942.893311,512.780823C938.657776,513.08606,935.43512,516.215637,933.535706,521.868042C931.924194,526.663574,932.915039,530.038086,936.254578,531.127502C937.679382,531.592346,940.308777,531.435364,942.343689,530.764038M1048.752197,590.177368C1050.382813,589.693115,1052.130371,587.81665,1052.729736,585.906128C1053.971924,581.946716,1051.925781,573.467468,1048.89502,570.015625C1046.42334,567.2005,1043.232056,567.629333,1040.537842,571.138672C1039.069336,573.051514,1038.50769,574.930786,1038.506714,577.934631C1038.505127,582.387695,1040.020508,586.442322,1042.528931,588.697693C1044.445801,590.421143,1046.38147,590.881409,1048.752197,590.177368M1021.610474,599.635071C1023.381775,598.667969,1024.964111,596.958252,1025.821777,595.084961C1026.415161,593.78894,1026.477539,593.365723,1026.374512,591.3349C1026.17749,587.454712,1024.31897,584.517639,1021.36615,583.420349C1018.561218,582.378052,1015.641479,583.348022,1012.835571,586.254456C1010.647339,588.521118,1009.462219,590.836365,1009.293213,593.174988C1009.137329,595.331909,1009.523071,596.58429,1010.767639,597.961914C1012.528198,599.910645,1014.356873,600.558472,1017.830444,600.463806C1019.885132,600.407837,1020.403137,600.294312,1021.610474,599.635071M1108.807251,666.211792C1111.769775,664.60083,1112.542603,661.08252,1111.026489,656.109253C1110.385498,654.006653,1109.052612,651.240601,1108.041748,649.915405C1104.203979,644.883789,1095.639648,645.941895,1093.732666,651.683228C1092.547363,655.25177,1094.577881,661.209595,1098.047607,664.344299C1101.087891,667.091125,1105.713745,667.893921,1108.807251,666.211792M968.04834,590.40979C971.420166,588.433777,973.049072,584.705688,972.086731,581.167236C971.498169,579.002991,970.16449,577.223328,968.160828,575.928223C965.915955,574.477356,964.15741,574.008606,961.505432,574.154236C959.038818,574.289734,957.775574,574.829529,956.270874,576.391052C954.811951,577.905029,954.218811,579.4328,954.211914,581.694519C954.203735,584.377625,954.919983,586.145813,956.848511,588.203674C960.1875,591.766602,964.338135,592.584167,968.04834,590.40979M1045.353394,623.128479C1048.912964,621.915649,1050.734253,617.852661,1049.610352,613.632019C1048.552246,609.658813,1046.164551,606.644043,1043.330322,605.702698C1041.536743,605.106934,1038.609131,605.293579,1037.018677,606.10498C1033.443481,607.928894,1031.211426,612.135986,1031.980469,615.600769C1032.62561,618.507019,1034.44751,620.639771,1037.618896,622.20105C1040.486328,623.612671,1043.035278,623.918335,1045.353394,623.128479M1173.620117,487.314819C1177.644287,485.809204,1178.760498,480.718109,1175.914917,476.848724C1174.194336,474.509125,1170.760498,473.42627,1164.168823,473.144653C1158.03772,472.88269,1154.988037,473.90567,1153.497559,476.72406C1151.115112,481.22934,1155.29126,485.44873,1163.994507,487.329803C1167.238159,488.030914,1171.724854,488.023926,1173.620117,487.314819M1078.077148,680.900085C1081.555054,678.861938,1083.633301,674.498352,1083.003296,670.557007C1082.680664,668.539307,1082.201172,667.423828,1080.935181,665.747192C1079.243896,663.506958,1076.222168,662.197205,1073.580444,662.559265C1071.843872,662.797302,1069.700073,663.857605,1068.598389,665.023193C1067.419434,666.270813,1066.212158,668.738892,1065.841064,670.660645C1064.96167,675.214111,1067.80188,679.839478,1072.452637,681.42804C1073.979614,681.949585,1076.726318,681.691772,1078.077148,680.900085M1024.505493,695.640381C1026.185425,695.296509,1028.036987,692.571167,1028.692871,689.477234C1029.137817,687.377686,1029.186523,682.872986,1028.785278,680.923828C1028.108765,677.637756,1025.843018,674.336304,1023.629883,673.41156C1020.687256,672.182068,1017.095764,674.031616,1015.213745,677.745605C1012.541687,683.018616,1013.594177,689.70105,1017.694702,693.497375C1020.064453,695.691406,1021.716797,696.211304,1024.505493,695.640381M947.405396,715.546814C950.533447,713.713623,951.674805,710.325317,950.640991,705.941467C949.804565,702.394653,947.944946,699.585144,945.620117,698.356018C944.051086,697.526428,940.785217,697.543152,939.08374,698.389404C937.440063,699.206909,935.825134,700.881653,934.959106,702.666748C934.347351,703.927673,934.250305,704.465271,934.242065,706.638306C934.233582,708.889771,934.310669,709.303101,934.982361,710.606506C936.060791,712.699219,937.266907,714.050842,938.966858,715.071777C940.874878,716.217651,941.714905,716.419983,944.184082,716.32843C945.804688,716.268311,946.435303,716.115356,947.405396,715.546814M1074.773193,613.987671C1078.050171,612.447327,1079.800049,607.762085,1078.700439,603.472778C1077.792603,599.931885,1075.214111,596.543152,1072.52124,595.352295C1070.769897,594.577759,1068.314575,594.524475,1066.772217,595.227539C1064.287964,596.360046,1062.876343,598.292114,1062.368164,601.255859C1062.095825,602.84436,1062.112305,603.468506,1062.475098,605.310669C1062.937256,607.65625,1064.325195,610.857849,1065.346436,611.934204C1067.953613,614.681763,1071.604614,615.477051,1074.773193,613.987671M1044.919678,727.923889C1046.510498,727.057983,1047.837891,725.634827,1048.715454,723.854065C1049.509766,722.242065,1049.558716,718.385498,1048.802979,716.955811C1048.069458,715.568298,1046.369263,713.504456,1045.077026,712.432983C1039.72229,707.993286,1034.662231,707.521179,1032.383789,711.248596C1031.625488,712.489258,1031.588013,712.686584,1031.6073,715.349121C1031.624878,717.795471,1031.739136,718.476257,1032.5177,720.777588C1033.902832,724.871582,1035.981934,727.551758,1038.499146,728.488037C1040.191895,729.117676,1043.214233,728.852112,1044.919678,727.923889M1104.794678,698.453125C1106.226563,698.014893,1107.881836,696.646301,1108.813477,695.130371C1109.552979,693.927063,1109.626465,693.604614,1109.62793,691.55896C1109.62915,689.590637,1109.5271,689.094299,1108.808594,687.578186C1107.688232,685.213806,1106.593384,684.053528,1104.519775,683.032654C1102.928345,682.249207,1102.536621,682.167419,1100.375732,682.167419C1098.260132,682.167419,1097.815186,682.255615,1096.456421,682.944031C1094.523315,683.923584,1093.019775,685.545654,1091.94812,687.807739C1090.889893,690.04126,1090.788818,692.63269,1091.693237,694.336731C1092.779175,696.382507,1094.602417,697.69574,1097.408569,698.453369C1099.490723,699.015503,1102.957642,699.015381,1104.794678,698.453125M1075.766968,646.831726C1077.42334,646.089478,1078.822632,644.937378,1079.53064,643.733032C1080.167358,642.64978,1080.264282,642.2052,1080.264282,640.368469C1080.264282,638.620178,1080.139648,637.986084,1079.547607,636.722656C1078.102905,633.639282,1074.727051,630.979431,1071.218018,630.159668C1069.535645,629.766602,1065.989746,629.75946,1064.612793,630.146362C1062.794189,630.657349,1061.044067,632.046143,1060.199463,633.648315C1059.532227,634.914124,1059.460083,635.280396,1059.567871,636.852966C1059.734497,639.283569,1060.730591,641.241638,1062.918579,643.439819C1064.611572,645.140625,1066.464111,646.304382,1068.624146,647.024109C1069.94519,647.464233,1074.637451,647.337891,1075.766968,646.831726M1135.757446,612.988159C1138.368286,612.011353,1139.904297,609.676575,1139.914551,606.669006C1139.922119,604.484131,1139.546143,603.282776,1138.360352,601.703308C1136.406006,599.099854,1132.234131,597.115112,1127.443481,596.50946C1124.682373,596.160461,1122.049561,596.48938,1120.196289,597.414978C1118.62793,598.198242,1116.99231,600.03894,1116.612915,601.447693C1115.864258,604.22821,1117.540405,607.65686,1120.804077,610.020325C1124.72998,612.863525,1132.152954,614.336792,1135.757446,612.988159M1134.816528,659.150024C1136.442627,658.667114,1137.9021,657.180542,1138.337524,655.563843C1138.723999,654.128662,1138.321289,651.672546,1137.109619,648.074585C1136.057373,644.950012,1135.540283,642.318909,1135.153198,638.119812C1134.999023,636.446533,1134.628418,634.244141,1134.329834,633.225586C1133.32959,629.813965,1130.646118,628.040527,1127.046265,628.412109C1123.381592,628.790283,1120.872803,631.944458,1120.872803,636.173584C1120.872803,638.331909,1121.334839,640.14624,1122.824585,643.837219C1123.463989,645.421448,1124.591797,648.622437,1125.330688,650.9505C1126.06958,653.278564,1127.022949,655.733154,1127.449341,656.405212C1129.186768,659.143799,1131.693115,660.077576,1134.816528,659.150024M1074.370361,711.325195C1075.934204,710.408752,1077.573853,708.537659,1077.969116,707.218506C1078.389526,705.815369,1078.36145,703.641235,1077.909058,702.558472C1076.881592,700.099426,1074.588745,698.686279,1069.45166,697.346069C1065.917236,696.42395,1062.724243,694.941162,1061.030518,693.435425C1060.346069,692.826965,1058.787964,690.995117,1057.567993,689.364685C1054.049683,684.662537,1052.290039,683.374756,1049.367554,683.363708C1045.88855,683.350525,1043.598755,685.843018,1043.553223,689.692749C1043.51416,692.988953,1045.35791,695.285522,1050.127075,697.88147C1055.529175,700.821899,1056.332275,701.492249,1061.847656,707.665833C1065.068359,711.270874,1067.087402,712.265564,1070.891235,712.121399C1072.779053,712.049866,1073.361206,711.916626,1074.370361,711.325195M974.222107,532.414795C979.202515,531.386108,981.939697,529.306091,986.732361,522.908142C990.99585,517.216736,994.456482,512.100281,998.005188,506.241486C1004.499756,495.519287,1005.763245,494.037292,1012.936279,488.728699C1016.594604,486.02121,1018.88031,483.850555,1019.659485,482.343903C1019.901489,481.875824,1020.217834,480.853027,1020.362366,480.071014C1021.02124,476.506805,1017.946899,473.199036,1013.994507,473.219635C1010.855408,473.235962,1008.792664,474.76123,1005.650146,479.389648C1002.512634,484.01062,1001.186279,485.465118,996.721008,489.181519C993.052429,492.234802,991.472717,494.753448,989.262329,501.073334C987.503418,506.102325,987.121216,507.017548,985.923767,509.067841C983.700745,512.874207,980.306824,515.673828,975.105591,517.991699C970.496033,520.045898,968.712952,521.014526,967.448853,522.151062C964.797363,524.535034,963.973633,528.586365,965.684448,530.829346C967.103638,532.690063,970.150391,533.255859,974.222107,532.414795M1001.725037,548.044067C1004.425293,546.915833,1006.355164,544.03894,1009.890686,535.871094C1012.676758,529.434875,1015.561646,524.448608,1019.644165,519.013245C1026.416748,509.996368,1031.760132,505.032715,1038.33313,501.652435C1043.253784,499.121857,1045.441406,498.516754,1053.348511,497.499207C1060.116821,496.628235,1062.582764,495.801941,1064.963867,493.607086C1067.800659,490.992157,1067.429199,487.860474,1064.025879,485.701752C1060.575562,483.513153,1057.416016,483.635315,1051.573975,486.183319C1047.495361,487.962219,1044.671631,488.86026,1041.243164,489.468903C1036.102783,490.3815,1033.567627,491.280731,1031.096802,493.067963C1029.179565,494.454773,1019.792908,502.697174,1017.600891,504.918732C1014.502625,508.058716,1012.01001,511.700531,1007.913635,519.072205C1005.724976,523.010803,1003.42688,526.301941,1000.049133,530.335083C996.107117,535.042053,995.700928,535.579529,994.865906,537.193848C993.324768,540.173523,993.291504,542.831787,994.764648,545.296997C996.379395,547.999146,999.183655,549.105896,1001.725037,548.044067M944.008606,681.698608C945.322754,680.954224,946.595276,679.302673,947.294495,677.433899C947.591553,676.639832,948.266479,673.927612,948.79425,671.40686C950.230347,664.547424,952.115479,658.628174,954.500549,653.489624C955.668579,650.973083,956.249512,650.02533,961.488953,642.088074C963.553955,638.959717,966.173218,634.8526,967.309509,632.96106C970.048218,628.402283,971.685852,625.968384,973.628845,623.569519C976.311829,620.257019,981.364807,615.214966,985.586975,611.637207C991.511475,606.616943,993.359558,604.305908,993.359558,601.917542C993.359558,598.664429,990.565186,596.612305,986.544067,596.912354C983.418335,597.14563,980.378784,599.042542,975.68103,603.691711C972.452698,606.886658,970.964233,609.129333,968.83374,614.008911C965.840088,620.865173,964.747925,622.322388,959.345886,626.667114C954.281555,630.740356,953.041382,632.713501,951.316284,639.442566C950.738098,641.697876,950.075623,644.078796,949.844116,644.733521C949.169556,646.641602,947.558533,649.125366,944.69635,652.670044C941.534912,656.585449,940.171509,659.185547,937.829895,665.76532C935.651733,671.885742,935.338623,673.224976,935.475586,675.834351C935.604736,678.295532,936.359985,679.924866,937.924988,681.11853C939.658875,682.44104,942.259949,682.689087,944.008606,681.698608M1023.232483,567.22644C1024.656616,566.817993,1026.033936,565.715698,1027.07019,564.155151C1028.653809,561.769897,1029.420166,559.394897,1030.792236,552.619446C1032.258911,545.377319,1034.611572,540.267029,1038.868408,535.077454C1042.855713,530.216614,1047.096924,527.043152,1052.982788,524.516541C1056.900757,522.834717,1072.578369,517.344421,1077.223755,516.027283C1086.470947,513.405457,1088.799561,512.660889,1090.846313,511.671417C1094.622559,509.845917,1096.45874,507.706177,1096.202271,505.430237C1095.759033,501.497803,1088.752563,498.81958,1083.496704,500.573547C1081.428345,501.263824,1080.430054,501.84491,1076.687866,504.537201C1070.691284,508.851379,1067.156982,510.403534,1061.022461,511.417114C1052.512573,512.82312,1048.977539,513.733276,1045.705078,515.360901C1038.259033,519.064087,1031.083984,527.111328,1026.120483,537.326172C1025.095215,539.435913,1023.679016,542.3526,1022.973328,543.807617C1022.267578,545.262634,1020.839722,547.881714,1019.800232,549.627747C1017.384766,553.684998,1016.53833,555.364014,1016.008362,557.149292C1014.829834,561.119202,1016.258179,565.265381,1019.332031,566.797119C1020.806519,567.531921,1021.789917,567.640137,1023.232483,567.22644M1074.70874,578.089783C1076.665161,577.175415,1077.192383,576.669006,1081.53479,571.534485C1084.630249,567.87439,1087.698242,565.710876,1092.443604,563.841919C1098.609253,561.413452,1114.155273,556.381042,1117.169067,555.838013C1125.264038,554.379456,1131.651245,555.055176,1142.40918,558.508179C1150.498413,561.104614,1153.980957,562.632568,1160.022705,566.236023C1165.229492,569.341553,1167.113037,570.178345,1169.234131,570.328491C1172.472046,570.557678,1174.750244,569.389038,1176.241821,566.733704C1176.902588,565.557251,1177.035278,565.02655,1177.035278,563.558655C1177.035278,559.675964,1174.616699,557.510681,1169.153198,556.502075C1159.343018,554.69104,1157.613281,554.191833,1150.634766,551.157349C1143.425781,548.022705,1137.567993,546.210266,1131.039307,545.094482C1127.42041,544.475952,1120.259033,544.473877,1117.036865,545.090393C1111.921143,546.069153,1105.141235,548.369507,1094.682373,552.674866C1092.863525,553.423584,1088.994507,554.90802,1086.084473,555.973755C1076.939087,559.322815,1075.214966,560.078369,1072.327881,562.001953C1068.152344,564.783936,1066.353516,567.581909,1066.336792,571.320862C1066.322632,574.469238,1067.918213,577.444946,1070.079102,578.300598C1071.182373,578.737427,1073.554199,578.629395,1074.70874,578.089783M1052.732544,557.529602C1054.92981,556.781006,1056.127075,555.943359,1059.912109,552.507019C1066.454346,546.567383,1068.305786,545.618042,1081.454834,541.461243C1084.001099,540.65625,1088.643921,538.965454,1091.772217,537.703857C1103.461304,532.989807,1107.77063,531.492554,1112.936279,530.350586C1120.400879,528.700439,1125.354614,528.695557,1134.025391,530.330078C1141.52478,531.743774,1147.925781,533.637512,1154.999756,536.535522C1163.382202,539.969482,1167.23877,541.091675,1170.625244,541.082275C1173.515381,541.074219,1174.765747,540.664917,1176.082031,539.296143C1178.354004,536.933472,1178.35498,533.140991,1176.084229,530.745422C1174.308472,528.872009,1171.265869,528.081116,1163.746826,527.538635C1156.521606,527.017334,1153.459717,526.263855,1146.269653,523.238037C1137.207275,519.424316,1135.298584,519.096375,1121.93103,519.055664C1110.338745,519.020386,1109.516113,519.186218,1101.5979,523.154053C1097.064575,525.42572,1093.846436,526.746155,1089.740601,528.019287C1087.875244,528.597656,1084.007935,529.794434,1081.146606,530.678711C1075.014404,532.573853,1062.90625,536.925354,1059.893921,538.31665C1053.962158,541.056335,1050.292725,544.131287,1048.155273,548.153687C1045.804932,552.576843,1046.8302,557.146606,1050.299805,557.711182C1050.920532,557.812195,1051.43689,557.909729,1051.447388,557.927979C1051.457764,557.946167,1052.036133,557.766907,1052.732544,557.529602M1159.647461,649.899902C1160.365112,649.685791,1161.41394,649.128784,1161.978394,648.661987C1164.223877,646.804993,1164.486938,644.412842,1163.16687,637.855225C1162.504761,634.566101,1162.341553,633.100403,1162.342285,630.447876C1162.34314,627.076294,1162.430786,626.516113,1164.392822,617.3526C1165.622437,611.609436,1165.525635,603.756042,1164.10083,593.675354C1163.206299,587.346802,1161.80127,584.873108,1157.495605,582.047241C1155.21875,580.552795,1145.931152,575.939819,1141.798706,574.250854C1133.335571,570.791748,1126.337402,569.688965,1119.915405,570.802246C1116.263184,571.435303,1102.669556,576.176147,1098.521973,578.263245C1094.201538,580.437256,1091.167725,583.12262,1089.849487,585.939697C1089.142822,587.449829,1089.072632,587.827942,1089.183594,589.527222C1089.376831,592.485107,1090.895508,594.927551,1093.250488,596.067505C1094.211548,596.532837,1094.782715,596.622986,1096.215088,596.535706C1099.418213,596.340576,1100.859619,595.192627,1104.518555,589.923462C1108.263916,584.529602,1111.018311,582.444336,1115.663574,581.485657C1121.196533,580.343872,1131.402466,581.213135,1138.33313,583.416626C1148.794434,586.742615,1155.50769,594.563965,1155.973389,603.968567C1156.169067,607.921875,1155.629639,610.765991,1153.429932,617.376465C1150.879517,625.041321,1150.666992,626.426331,1150.856323,634.15155C1151.068237,642.796082,1151.579346,645.781372,1153.220215,647.956726C1154.21875,649.28064,1156.021118,650.289124,1157.388794,650.289124C1157.913574,650.289124,1158.929932,650.113953,1159.647461,649.899902"/>
</svg>
