<?xml version="1.0" encoding="UTF-8"?>
<svg xmlns="http://www.w3.org/2000/svg" width="519.963mm" height="225.196mm" viewBox="-1066.058594 -666.321045 519.962769 225.195984">
    <path transform="matrix(-1,0,0,-1,0,0)" style="stroke:none;fill:#000000;fill-rule:evenodd" d="M986.511719,441.15625C987.674194,441.160431,988.833923,441.270477,989.976563,441.484375C993.291748,442.116272,996.557739,442.982971,999.75,444.078125C1000.344971,444.286804,1000.929199,444.525116,1001.5,444.792969C1001.880676,445.006104,1002.268982,445.205505,1002.664063,445.390625L1002.886719,445.472656C1003.477783,445.583923,1004.047852,445.787201,1004.574219,446.078125C1004.681824,446.140442,1004.786987,446.20694,1004.886719,446.28125C1004.945374,446.32489,1004.998962,446.374451,1005.050781,446.425781L1005.097656,446.5L1005.132813,446.636719L1005.21875,446.742188C1005.2854,446.805511,1005.357666,446.862335,1005.433594,446.914063C1005.587463,446.994049,1005.746643,447.063232,1005.910156,447.121094L1006.46875,447.296875L1007.003906,447.519531L1007.519531,447.796875L1008.003906,448.117188L1011.34375,450.675781C1012.673096,451.71051,1013.943298,452.819092,1015.148438,453.996094C1016.645752,455.441193,1018.045959,456.983551,1019.339844,458.613281C1019.758423,459.154297,1020.162109,459.706635,1020.550781,460.269531C1021.284851,461.443542,1022.035156,462.608063,1022.800781,463.761719C1023.210449,464.38916,1023.592285,465.034332,1023.945313,465.695313C1024.064087,465.930267,1024.163208,466.174622,1024.242188,466.425781C1024.261841,466.55719,1024.286743,466.687775,1024.320313,466.816406C1024.535278,467.390289,1024.80542,467.941956,1025.125,468.464844C1025.387695,468.886536,1025.59314,469.341217,1025.738281,469.816406L1025.777344,470.015625L1025.785156,470.167969L1025.757813,470.269531C1025.731445,470.336273,1025.714355,470.405853,1025.703125,470.476563C1025.708496,470.56897,1025.723999,470.660217,1025.746094,470.75L1025.796875,470.894531C1025.878296,471.067535,1025.981934,471.229065,1026.105469,471.375C1026.244263,471.586212,1026.361694,471.810547,1026.460938,472.042969C1026.720459,472.678284,1026.940308,473.329102,1027.117188,473.992188C1027.949219,477.148193,1028.48938,480.373993,1028.730469,483.628906C1028.789063,484.635864,1028.829346,485.643982,1028.851563,486.652344L1052.261719,486.652344C1052.8573,487.884155,1053.449097,489.125244,1054.03125,490.363281C1054.262085,490.867188,1054.487549,491.373901,1054.707031,491.882813L1054.972656,492.585938L1054.992188,492.65625L1055,492.699219L1057.703125,495.957031C1057.838989,494.943268,1058.114136,493.953003,1058.523438,493.015625C1058.636841,492.764282,1058.767212,492.520996,1058.910156,492.285156C1059.162109,491.877075,1059.484375,491.516632,1059.863281,491.222656C1059.984131,491.138275,1060.109985,491.061371,1060.242188,490.996094C1060.422485,490.909607,1060.61499,490.851685,1060.8125,490.820313L1061.011719,490.800781C1061.214478,490.799347,1061.416748,490.821442,1061.613281,490.871094L1061.953125,491C1062.282349,491.150787,1062.581665,491.359436,1062.839844,491.613281L1063.203125,491.992188L1063.542969,492.429688L1063.84375,492.90625C1064.029907,493.230804,1064.196655,493.566101,1064.34375,493.910156C1064.621094,494.611542,1064.845703,495.33252,1065.019531,496.066406C1065.155518,496.616821,1065.264771,497.173492,1065.347656,497.734375C1065.618042,499.455048,1065.791016,501.189575,1065.867188,502.929688C1065.999756,505.576233,1066.063599,508.225128,1066.058594,510.875C1066.045776,511.589325,1065.996948,512.302551,1065.910156,513.011719C1065.855957,513.333069,1065.776611,513.649719,1065.667969,513.957031L1065.476563,514.40625L1065.238281,514.835938C1064.971069,515.244995,1064.667236,515.628906,1064.332031,515.984375L1063.628906,516.722656C1063.20166,517.143982,1062.760254,517.550842,1062.304688,517.941406C1062.040894,518.154297,1061.774902,518.365417,1061.507813,518.574219C1061.279541,518.734253,1061.0448,518.884705,1060.800781,519.019531C1060.725342,519.052307,1060.649902,519.084961,1060.574219,519.117188L1060.488281,519.140625L1060.398438,519.152344L1059.121094,525.164063C1059.067139,526.918884,1059.030762,528.674133,1059.011719,530.429688C1059.012939,531.196655,1059.050781,531.963196,1059.125,532.726563L1059.160156,532.929688L1059.210938,533.132813L1059.277344,533.328125L1059.324219,533.382813L1059.417969,533.425781L1059.460938,533.496094L1059.5,533.628906L1059.53125,533.761719L1059.601563,534.394531C1059.662231,536.056763,1059.624268,537.721191,1059.488281,539.378906C1059.430908,540.401123,1059.308838,541.418579,1059.125,542.425781C1059.092163,542.576965,1059.048706,542.725647,1058.996094,542.871094C1058.945801,542.993103,1058.906372,543.119019,1058.871094,543.246094C1058.782104,543.681152,1058.715942,544.120605,1058.671875,544.5625C1058.537842,545.811035,1058.458862,547.064819,1058.433594,548.320313L1058.320313,552.769531L1050.660156,553.027344L1050.101563,554.902344C1050.050049,555.059326,1049.996094,555.21521,1049.941406,555.371094C1049.575317,556.306519,1049.173706,557.227539,1048.738281,558.132813C1046.306641,563.238892,1043.671875,568.2453,1040.839844,573.140625C1040.26355,574.125122,1039.642944,575.083069,1038.980469,576.011719C1037.659302,577.851685,1036.206177,579.59314,1034.632813,581.222656C1034.263062,581.617004,1033.85437,581.973145,1033.410156,582.28125L1033.300781,582.339844L1033.214844,582.371094L1033.101563,582.386719L1032.902344,582.46875L1032.710938,582.578125C1032.25354,582.864868,1031.81958,583.187256,1031.410156,583.539063L1022.03125,594.539063L1022.015625,594.710938C1021.967957,594.943909,1021.852722,595.157166,1021.6875,595.328125C1021.601257,595.402832,1021.509521,595.471008,1021.410156,595.527344L1021.300781,595.566406L1021.195313,595.625L1021.097656,595.707031C1020.594055,596.25116,1020.108093,596.811279,1019.640625,597.386719C1017.238403,600.372192,1014.876587,603.389038,1012.554688,606.4375C1009.674561,610.200562,1006.80835,613.991821,1003.972656,617.789063C997.333679,626.6297,990.622498,635.407776,983.832031,644.132813C981.899536,646.608704,979.940552,649.069458,977.960938,651.507813L977.542969,651.980469C976.583008,652.8396,975.562073,653.628113,974.488281,654.339844C972.739136,655.516357,970.883179,656.525696,968.945313,657.355469C966.596008,658.376892,964.172485,659.218262,961.695313,659.871094C958.093506,660.844299,954.428406,661.56604,950.726563,662.03125C949.812378,662.151367,948.897217,662.260803,947.980469,662.359375C943.486023,662.837402,938.986816,663.250122,934.480469,663.597656C920.732056,664.666443,906.970215,665.475037,893.191406,666.023438L889.871094,666.125C886.330444,666.204468,882.787537,666.255249,879.246094,666.277344C863.863281,666.365479,848.48822,666.334229,833.105469,666.183594C824.429138,666.121948,815.73291,665.984985,807.058594,665.773438C796.659058,665.443115,786.269592,665.00708,775.878906,664.464844C769.805908,664.149536,763.740173,663.740723,757.679688,663.238281C753.873901,662.917664,750.075867,662.508667,746.289063,662.011719C743.733215,661.678223,741.191895,661.240356,738.671875,660.699219C736.995667,660.343994,735.342712,659.886169,733.722656,659.328125C732.135132,658.781982,730.625244,658.032104,729.230469,657.097656C729.104614,657.007813,728.987732,656.906555,728.875,656.800781L728.757813,656.65625L728.644531,656.570313C728.424438,656.443604,728.181519,656.360962,727.929688,656.328125C727.701782,656.297058,727.472168,656.281128,727.242188,656.277344L726.992188,656.238281C726.672607,656.165466,726.369934,656.03186,726.101563,655.84375C725.708313,655.594055,725.407166,655.222229,725.246094,654.785156L725.191406,654.578125L725.164063,654.371094L725.167969,654.160156L725.246094,653.738281C725.271851,653.52063,725.265625,653.300049,725.21875,653.085938L725.167969,652.867188L725.050781,652.554688L724.898438,652.257813C724.785156,652.078796,724.651794,651.913452,724.5,651.765625C724.363403,651.627563,724.195068,651.525269,724.011719,651.460938C723.897827,651.423035,723.780151,651.396912,723.660156,651.394531L723.484375,651.382813C723.368713,651.362488,723.255554,651.331055,723.144531,651.292969C722.8703,651.179932,722.629272,650.999756,722.4375,650.773438C722.291809,650.600281,722.186096,650.397583,722.125,650.179688L722.089844,650.023438C722.075073,649.851624,722.089355,649.678589,722.132813,649.511719L722.113281,649.4375C722.059143,649.299622,721.991943,649.167419,721.917969,649.039063L721.261719,647.941406L720.5625,646.871094C718.375549,643.625122,716.118164,640.425903,713.792969,637.277344L703.449219,623.15625C699.49469,617.723511,695.500305,612.333618,691.453125,606.96875C689.660522,604.601318,687.862061,602.253662,686.042969,599.90625C685.348267,599.002319,684.63208,598.115479,683.894531,597.246094L683.652344,596.984375L683.566406,596.914063L683.546875,596.910156L683.464844,596.933594L683.371094,596.914063L683.273438,596.859375C683.19751,596.794983,683.125061,596.726563,683.058594,596.652344C682.942078,596.504944,682.8396,596.346924,682.753906,596.179688L682.585938,595.8125C682.518494,595.642639,682.471985,595.465393,682.441406,595.285156C682.435059,595.192627,682.435608,595.09967,682.449219,595.007813L682.535156,594.769531L682.523438,594.617188L682.457031,594.445313L682.347656,594.257813C682.241455,594.114502,682.121704,593.982056,681.996094,593.855469C681.240906,593.161499,680.351746,592.629272,679.382813,592.292969C679.08136,592.190918,678.771362,592.116394,678.457031,592.066406C677.174927,591.844299,675.886597,591.65918,674.59375,591.511719C671.389648,591.161377,668.182983,590.787231,664.984375,590.390625C660.548706,589.835693,656.060059,589.258057,651.628906,588.671875L635.824219,586.585938L614.175781,583.695313L610.230469,583.179688C603.935913,582.374268,597.747681,581.565674,591.457031,580.726563C585.045166,579.829956,578.623047,579.006958,572.191406,578.257813C569.887451,577.998047,567.593262,577.659363,565.3125,577.242188C564.083679,577.010315,562.870361,576.702576,561.679688,576.320313C561.068298,576.108459,560.474304,575.849426,559.902344,575.546875L559.363281,575.226563C559.036682,575.015442,558.727234,574.778992,558.4375,574.519531L557.488281,573.59375C557.008423,573.150574,556.500671,572.738525,555.96875,572.359375C555.428833,571.982544,554.86377,571.643066,554.277344,571.34375C553.159424,570.698608,552.108643,569.943604,551.140625,569.089844C550.756836,568.743896,550.384094,568.385681,550.023438,568.015625C549.385437,567.345642,548.825745,566.605286,548.355469,565.808594C548.160767,565.469666,547.992798,565.115967,547.855469,564.75C547.411865,563.526978,547.078247,562.266785,546.859375,560.984375C546.499634,558.999451,546.321655,556.985962,546.328125,554.96875L546.359375,553.558594L546.453125,552.152344L546.601563,550.753906C546.706909,549.986938,546.829407,549.222473,546.96875,548.460938C547.149414,547.566223,547.378967,546.682129,547.65625,545.8125C547.89624,545.103699,548.194641,544.415955,548.550781,543.757813C548.772827,543.364197,549.020142,542.985291,549.292969,542.625C549.561035,542.285156,549.851868,541.963928,550.164063,541.664063C550.644653,541.213989,551.172485,540.8172,551.738281,540.480469L553.523438,539.398438C553.547852,539.32489,553.570313,539.250732,553.589844,539.175781C553.759399,538.330688,553.907898,537.481384,554.035156,536.628906C554.308716,534.806519,554.597534,532.989197,554.902344,531.171875C555.050415,530.312256,555.2146,529.455078,555.394531,528.601563C555.539124,528.047363,555.651184,527.485168,555.730469,526.917969L555.742188,526.710938C555.739868,526.535767,555.71814,526.36145,555.675781,526.191406C555.635559,526.088135,555.591797,525.986206,555.542969,525.886719L555.445313,525.734375C555.25708,525.487244,555.056213,525.250061,554.84375,525.023438L553.707031,518.980469L553.691406,518.816406L553.640625,518.6875L553.5625,518.585938L553.457031,518.515625L553.324219,518.464844C553.030396,518.412415,552.731873,518.393982,552.433594,518.402344C552.166687,518.403931,551.900208,518.382263,551.636719,518.339844L551.453125,518.285156C551.253235,518.205078,551.062134,518.105286,550.878906,517.992188C550.488892,517.769165,550.112305,517.523438,549.75,517.257813L549.015625,516.699219C548.545471,516.31543,548.098511,515.904175,547.675781,515.46875C547.299988,515.07373,546.964844,514.641968,546.675781,514.179688C546.538025,513.930603,546.432739,513.664612,546.371094,513.386719C546.219666,512.547241,546.138123,511.696686,546.128906,510.84375C546.093933,509.526215,546.084839,508.208496,546.101563,506.890625L546.160156,503.65625C546.211304,501.375763,546.33252,499.09729,546.523438,496.824219C546.652832,495.485138,546.860291,494.154755,547.144531,492.839844C547.329407,492.082062,547.577698,491.341156,547.886719,490.625C548.060486,490.241821,548.262756,489.872192,548.492188,489.519531C548.709656,489.196991,548.950378,488.890717,549.214844,488.605469C549.494873,488.306,549.81958,488.051422,550.179688,487.855469C550.363953,487.759369,550.561401,487.690735,550.765625,487.652344L551.054688,487.613281L551.347656,487.621094C551.477844,487.640503,551.607178,487.665283,551.734375,487.699219C551.996826,487.776703,552.243164,487.900665,552.460938,488.066406L552.800781,488.351563L553.105469,488.671875C553.296021,488.89624,553.465149,489.137939,553.609375,489.394531L553.921875,489.992188C554.213074,490.601471,554.437195,491.240631,554.589844,491.898438L555.507813,492.957031L556.914063,493.667969C557.541443,493.586212,558.151611,493.405182,558.722656,493.132813C559.372742,492.814697,559.99707,492.446442,560.589844,492.03125C561.299438,491.525665,562.003418,491.017792,562.707031,490.503906L563.734375,489.832031C564.617188,489.278046,565.537537,488.786316,566.488281,488.359375C566.83197,488.214142,567.185669,488.093567,567.546875,488C567.679749,487.9758,567.81543,487.96994,567.949219,487.988281L568.007813,488.015625L568.054688,488.054688L568.109375,488.191406C568.330994,488.983276,568.516113,489.784882,568.664063,490.59375C568.718262,490.882629,568.788574,491.168304,568.875,491.449219L568.960938,491.648438C569.021484,491.755707,569.101196,491.851044,569.199219,491.925781L569.367188,492.011719L569.574219,492.066406C569.763672,492.086792,569.954102,492.097168,570.144531,492.089844C570.59552,492.065552,571.045227,492.021637,571.492188,491.957031L574.828125,491.519531L574.492188,488.75C574.372192,487.804108,574.308044,486.851868,574.300781,485.898438L574.3125,485.328125C574.446289,484.448486,574.555969,483.565399,574.640625,482.679688L574.816406,480.628906C574.950317,479.352081,575.152588,478.083374,575.421875,476.828125C575.724548,475.73465,575.983887,474.629608,576.199219,473.515625L576.335938,472.945313L576.535156,472.375C576.63385,472.132477,576.748962,471.896912,576.882813,471.671875C577.14032,471.354675,577.345947,470.998688,577.492188,470.617188L577.710938,470.011719C577.80426,469.671295,577.89386,469.330475,577.980469,468.988281L578.117188,468.589844L578.246094,468.316406L578.410156,468.0625L578.503906,467.980469C578.560547,467.961395,578.617737,467.944,578.675781,467.929688L578.75,467.878906L578.820313,467.792969C578.885376,467.688568,578.929504,467.572968,578.957031,467.453125C578.985291,467.311554,579.001221,467.167786,579.003906,467.023438C579.009644,466.919312,579.026428,466.816223,579.050781,466.714844C579.09613,466.56723,579.142883,466.420044,579.191406,466.273438C579.700073,464.954376,580.335938,463.688141,581.089844,462.492188L581.378906,462.066406C581.51593,461.886414,581.672913,461.722961,581.839844,461.570313C581.928223,461.451416,582.003174,461.323425,582.070313,461.191406L582.132813,461.027344C582.319336,460.59848,582.556946,460.193634,582.84375,459.824219C583.53064,458.907806,584.264832,458.027863,585.042969,457.1875C586.657593,455.416168,588.345154,453.71286,590.101563,452.082031C591.152466,451.092072,592.258301,450.16214,593.414063,449.296875C593.685242,449.103912,593.978821,448.944763,594.289063,448.824219C594.405457,448.802704,594.522583,448.785248,594.640625,448.777344C594.742676,448.74646,594.841003,448.703888,594.929688,448.644531C594.978088,448.604584,595.021606,448.559509,595.066406,448.515625L595.132813,448.402344C595.253296,448.295349,595.378845,448.194275,595.507813,448.097656C596.942261,447.124146,598.430237,446.232117,599.964844,445.425781C600.174316,445.319519,600.388245,445.222168,600.605469,445.132813C600.644531,445.131042,600.683594,445.130035,600.722656,445.128906L600.839844,445.097656C601.495728,444.870636,602.140808,444.613586,602.773438,444.328125C603.700989,443.902069,604.656433,443.539703,605.632813,443.242188C605.980225,443.139526,606.335571,443.065765,606.695313,443.023438L607.078125,443.003906L607.457031,442.949219C607.628052,442.911438,607.794434,442.855438,607.953125,442.78125L608.058594,442.707031C608.10083,442.661774,608.140198,442.614014,608.179688,442.566406L608.320313,442.460938C608.426575,442.409363,608.536072,442.364716,608.648438,442.328125C609.030945,442.21994,609.419678,442.135071,609.8125,442.074219C611.410706,441.813995,613.014099,441.584717,614.621094,441.386719C615.970276,441.222687,617.328369,441.14325,618.6875,441.148438C621.722534,441.119049,624.755676,441.31488,627.761719,441.734375C628.526794,441.848694,629.287659,441.989441,630.042969,442.15625C630.550476,442.278381,631.049316,442.434143,631.535156,442.625C632.527527,442.974365,633.528015,443.3013,634.535156,443.605469C636.294922,444.203979,638.021423,444.896332,639.707031,445.679688C640.194824,445.91272,640.669434,446.172211,641.128906,446.457031L641.222656,446.527344C641.258667,446.561829,641.292175,446.598602,641.324219,446.636719C641.335266,446.697449,641.35498,446.755798,641.378906,446.8125L641.433594,446.871094L641.488281,446.921875L641.664063,446.992188C641.780151,447.015106,641.897644,447.03006,642.015625,447.039063L642.367188,447.148438C642.776855,447.324951,643.173706,447.529694,643.554688,447.761719C643.832031,447.926605,644.101868,448.10379,644.363281,448.292969C645.733398,449.24118,647.051819,450.262054,648.3125,451.351563C650.056946,452.823425,651.709717,454.400696,653.261719,456.074219L653.78125,456.671875C654.913208,458.041046,656.003418,459.444031,657.050781,460.878906C657.56842,461.601105,658.068604,462.335724,658.550781,463.082031C658.687988,463.30838,658.807007,463.545258,658.910156,463.789063C658.916626,463.826935,658.926086,463.863953,658.929688,463.902344L658.914063,463.933594L658.832031,463.957031L658.8125,464.003906L658.820313,464.078125C658.845154,464.151123,658.87561,464.222137,658.914063,464.289063L659.007813,464.429688C659.096619,464.562592,659.194641,464.689056,659.300781,464.808594C659.494873,465.052429,659.673279,465.30838,659.835938,465.574219C660.519043,466.673889,661.094543,467.836853,661.554688,469.046875C661.66095,469.325806,661.742676,469.613464,661.800781,469.90625L661.851563,470.441406C661.890442,470.611511,661.941223,470.778564,662.003906,470.941406C662.084656,471.10672,662.186646,471.260681,662.308594,471.398438C662.44104,471.60849,662.551453,471.831757,662.632813,472.066406C662.97229,473.013367,663.25415,473.979889,663.476563,474.960938C663.680115,475.800018,663.862427,476.643921,664.023438,477.492188C664.19519,478.389801,664.347656,479.291138,664.480469,480.195313C664.61792,481.159454,664.713074,482.12912,664.765625,483.101563C664.825195,483.999084,664.926819,484.893311,665.070313,485.78125C665.088745,485.909637,665.123901,486.035278,665.179688,486.152344C665.373962,486.230103,665.580139,486.27301,665.789063,486.285156C666.751953,486.399353,667.718811,486.477417,668.6875,486.519531C670.328186,486.600128,671.975708,486.670624,673.617188,486.730469L674.683594,484.6875C675.039246,484.053101,675.441223,483.445953,675.886719,482.871094C676.448303,482.138031,677.066101,481.449768,677.734375,480.8125L679.71875,478.980469L695.667969,479.40625L703.207031,479.625L712.101563,479.890625L717.453125,480.054688C719.806091,480.117157,722.15802,480.158783,724.511719,480.179688C734.202148,480.289795,743.915405,480.36792,753.605469,480.414063L766.679688,480.480469L781.015625,480.539063L794.113281,480.582031L803.175781,480.605469L861.050781,480.703125L876.5,480.746094C884.226929,480.776367,892.117188,480.829102,899.84375,480.902344C903.913452,480.950562,907.982971,481.039063,912.050781,481.167969C914.263062,481.245239,916.473267,481.372925,918.679688,481.550781C919.980286,481.673187,921.275513,481.846558,922.5625,482.070313C924.09259,482.354706,925.610718,482.700073,927.113281,483.105469C927.982117,483.343811,928.833313,483.642303,929.660156,484C930.284424,484.270844,930.870422,484.622437,931.402344,485.046875C931.61615,485.226776,931.817505,485.421173,932,485.632813C932.254395,485.944366,932.463989,486.289856,932.621094,486.660156C932.716919,486.937225,932.808105,487.215973,932.894531,487.496094C932.95282,487.663269,933.019653,487.827393,933.101563,487.984375C933.149048,488.056519,933.203247,488.123962,933.261719,488.1875C933.323547,488.235107,933.390686,488.274841,933.460938,488.308594L933.582031,488.34375L933.71875,488.359375C933.900146,488.361145,934.081482,488.352509,934.261719,488.332031C935.198303,488.173096,936.142151,488.061279,937.089844,487.996094C937.314697,488.008331,937.539856,487.991608,937.761719,487.953125L937.875,487.914063L937.96875,487.859375L938.050781,487.777344L938.121094,487.671875L938.175781,487.539063L938.226563,487.355469C938.300537,486.879883,938.336304,486.399261,938.335938,485.917969C938.328247,484.605042,938.398499,483.292816,938.546875,481.988281C938.809814,479.538208,939.208801,477.104889,939.742188,474.699219L940.050781,473.402344C940.210693,472.747772,940.421387,472.10672,940.679688,471.484375L940.765625,471.324219L940.867188,471.175781L940.949219,471.09375C941.002991,471.075653,941.056885,471.058105,941.113281,471.050781L941.191406,471L941.257813,470.921875L941.328125,470.796875C941.366943,470.708893,941.395935,470.617035,941.417969,470.523438C941.432434,470.389648,941.44281,470.255493,941.449219,470.121094C941.471436,469.949402,941.507324,469.779785,941.554688,469.613281L941.632813,469.371094C941.870178,468.701385,942.13855,468.04303,942.4375,467.398438L942.910156,466.445313C943.117981,466.052521,943.337158,465.665802,943.566406,465.285156C943.660034,465.132385,943.766846,464.988159,943.882813,464.851563L944.0625,464.652344L944.210938,464.53125C944.265442,464.461395,944.318481,464.390442,944.367188,464.316406L944.429688,464.179688L944.523438,463.871094L944.574219,463.363281C944.629272,463.120178,944.724365,462.887787,944.855469,462.675781C945.062927,462.335297,945.322815,462.029633,945.625,461.769531C945.738159,461.654602,945.847412,461.535889,945.953125,461.414063L946.09375,461.222656C946.179932,461.088013,946.254822,460.946594,946.320313,460.800781L946.351563,460.613281L946.394531,460.503906C946.513977,460.269409,946.649231,460.043274,946.800781,459.828125C947.342834,459.08197,947.919128,458.361237,948.527344,457.667969C949.647644,456.365448,950.817688,455.106689,952.035156,453.894531C952.815796,453.108215,953.638733,452.36499,954.5,451.667969C955.893799,450.521667,957.339294,449.439728,958.832031,448.425781C959.393799,448.045258,959.97113,447.688141,960.5625,447.355469C960.782166,447.240204,961.009338,447.140198,961.242188,447.054688C961.361206,447.031738,961.478333,447.009827,961.597656,446.988281L961.773438,446.914063L961.835938,446.859375L961.882813,446.796875L961.910156,446.726563L961.933594,446.605469C961.961365,446.560333,961.996521,446.520538,962.035156,446.484375C962.137817,446.401245,962.243042,446.321411,962.351563,446.246094C963.03949,445.832275,963.754761,445.465698,964.492188,445.148438C965.436462,444.72876,966.395386,444.343201,967.367188,443.992188C968.142395,443.72113,968.928345,443.481842,969.722656,443.273438C970.540894,443.041168,971.350098,442.777893,972.148438,442.484375C972.579529,442.334656,973.020752,442.21579,973.46875,442.128906C975.158936,441.784058,976.86377,441.515442,978.578125,441.324219C980.041321,441.204895,981.508484,441.142181,982.976563,441.136719C984.154968,441.114777,985.333618,441.121124,986.511719,441.15625M618.875,459.421875C617.582153,459.446075,616.292053,459.549011,615.011719,459.730469C614.395508,459.819733,613.78302,459.932831,613.175781,460.070313C608.13031,461.308929,603.563782,464.012268,600.050781,467.839844C598.000122,470.069672,596.332825,472.623596,595.117188,475.398438C594.632141,476.512024,594.221375,477.656586,593.886719,478.824219L593.554688,480.09375L593.28125,481.371094L593.070313,482.652344L592.917969,483.941406L592.828125,485.234375L592.800781,486.527344L592.832031,487.820313L592.921875,489.105469L593.070313,490.390625L593.28125,491.664063L593.550781,492.929688L593.878906,494.183594L594.265625,495.421875L594.714844,496.644531L595.21875,497.847656L595.78125,499.03125C596.304077,499.991089,596.908081,500.904358,597.585938,501.761719C598.739319,503.244537,600.001953,504.639008,601.363281,505.933594C602.454346,506.982422,603.613098,507.958435,604.832031,508.855469C605.497803,509.335114,606.193176,509.772156,606.914063,510.164063L608.042969,510.722656L609.203125,511.226563L610.390625,511.675781L611.601563,512.070313L612.828125,512.414063L614.070313,512.699219L615.328125,512.929688L616.59375,513.105469L617.863281,513.222656L619.136719,513.285156L620.40625,513.289063L621.675781,513.238281L622.933594,513.128906L624.179688,512.960938L625.414063,512.734375L626.628906,512.449219C631.057922,511.263611,635.10675,508.957611,638.386719,505.753906C638.737244,505.422089,639.075073,505.077118,639.398438,504.71875C639.90387,504.173431,640.388733,503.609253,640.851563,503.027344C642.001587,501.570068,643.000305,499.999512,643.832031,498.339844C645.85675,494.269348,646.82019,489.753326,646.632813,485.210938L646.546875,483.921875L646.402344,482.648438L646.199219,481.382813L645.933594,480.136719L645.613281,478.910156L645.234375,477.699219L644.796875,476.511719L644.308594,475.347656L643.765625,474.207031L643.167969,473.09375L642.519531,472.007813L641.816406,470.953125L641.066406,469.933594L640.269531,468.945313L639.421875,467.992188L638.527344,467.074219L637.589844,466.199219L636.605469,465.363281L635.574219,464.574219L634.503906,463.824219C632.093933,462.22467,629.450562,461.008331,626.667969,460.21875C625.718689,459.972839,624.754395,459.789032,623.78125,459.667969C622.15387,459.46817,620.514221,459.386108,618.875,459.421875M982.660156,459.4375C980.266479,459.501556,977.890137,459.864166,975.585938,460.515625C974.376953,460.864258,973.195435,461.301727,972.050781,461.824219C970.913147,462.384918,969.82373,463.038361,968.792969,463.777344C966.806396,465.167053,964.959229,466.746002,963.277344,468.492188C962.583923,469.223419,961.948059,470.007019,961.375,470.835938C960.607544,471.929291,959.916016,473.074005,959.304688,474.261719C958.367493,476.097656,957.681702,478.051422,957.265625,480.070313C956.998657,481.383301,956.823975,482.713409,956.742188,484.050781C956.653381,485.373047,956.624817,486.698578,956.65625,488.023438C956.677307,489.063995,956.760498,490.102325,956.90625,491.132813C957.087402,492.361725,957.381836,493.571198,957.785156,494.746094C958.335815,496.313843,959.015198,497.833344,959.816406,499.289063C960.031494,499.681732,960.263306,500.065033,960.511719,500.4375C961.482178,501.876251,962.565002,503.235962,963.75,504.503906C965.174988,506.04895,966.738831,507.459808,968.421875,508.71875C969.137329,509.260101,969.895142,509.743225,970.6875,510.164063L971.8125,510.71875L972.96875,511.222656L974.152344,511.671875L975.359375,512.066406L976.585938,512.40625L977.828125,512.695313L979.082031,512.925781L980.347656,513.101563L981.613281,513.222656L982.882813,513.285156L984.152344,513.292969L985.414063,513.242188L986.664063,513.136719L987.902344,512.972656L989.125,512.75L990.328125,512.464844C991.090027,512.261475,991.843262,512.026794,992.585938,511.761719C993.324585,511.492523,994.05188,511.192871,994.765625,510.863281L995.824219,510.34375L996.859375,509.777344L997.867188,509.164063C998.810059,508.562775,999.717773,507.90799,1000.585938,507.203125C1003.42041,504.885315,1005.749817,502.0112,1007.429688,498.757813C1007.987671,497.641022,1008.490784,496.497772,1008.9375,495.332031C1009.191833,494.649078,1009.417236,493.955811,1009.613281,493.253906C1010.050293,491.648102,1010.307068,489.998596,1010.378906,488.335938C1010.444214,486.66095,1010.410522,484.98349,1010.277344,483.3125L1010.199219,482.34375C1010.130249,481.697784,1010.032166,481.055267,1009.90625,480.417969L1009.691406,479.46875C1008.951294,476.802612,1007.820557,474.260773,1006.335938,471.925781L1005.601563,470.832031L1004.816406,469.773438L1003.984375,468.757813L1003.109375,467.78125L1002.183594,466.847656L1001.21875,465.960938C1000.401367,465.238953,999.539307,464.569092,998.636719,463.957031C996.420898,462.425507,993.972961,461.260681,991.386719,460.507813C988.550537,459.702911,985.606812,459.341736,982.660156,459.4375M875.382813,587.75C873.147095,587.758972,870.927673,587.777161,868.691406,587.804688C867.147034,587.827759,865.603699,587.89032,864.0625,587.992188C863.508606,588.044983,862.95813,588.129517,862.414063,588.246094C862.200439,588.298035,861.991211,588.36676,861.789063,588.453125C860.803589,588.853577,859.86853,589.368591,859.003906,589.988281C858.12146,590.635315,857.347839,591.418823,856.710938,592.308594C856.177246,593.063965,855.734314,593.879639,855.390625,594.738281C855.107239,595.426331,854.873962,596.134033,854.691406,596.855469C854.649475,597.053589,854.625,597.254883,854.613281,597.457031C854.484253,599.125427,854.38916,600.796448,854.328125,602.46875C853.953979,611.683716,853.700073,620.898865,853.566406,630.121094C853.550842,631.822571,853.545654,633.517456,853.550781,635.21875C853.551819,635.750916,853.577148,636.282837,853.628906,636.8125L853.726563,637.507813C853.810547,637.966125,853.923279,638.41864,854.0625,638.863281L854.300781,639.523438C854.666321,640.388306,855.153809,641.196533,855.75,641.921875C856.420898,642.737366,857.174194,643.481445,857.996094,644.144531C858.490234,644.529602,859.00531,644.886963,859.539063,645.214844L860.355469,645.679688L861.199219,646.09375C862.956726,646.867126,864.806641,647.4104,866.703125,647.710938C867.492004,647.846497,868.283875,647.963257,869.078125,648.0625C869.849121,648.139893,870.623596,648.177429,871.398438,648.175781C872.7099,648.175903,874.02124,648.155029,875.332031,648.113281C877.990967,648.034058,880.665466,647.946411,883.324219,647.851563L934.339844,646.035156C936.730469,645.95575,939.120728,645.839783,941.507813,645.6875C943.076782,645.578308,944.640503,645.404785,946.195313,645.167969L947.269531,644.953125L948.328125,644.6875L949.375,644.371094C950.905762,643.831421,952.393188,643.176086,953.824219,642.410156C955.502319,641.486755,957.044434,640.335205,958.40625,638.988281C959.053589,638.358704,959.66449,637.692627,960.234375,636.992188L960.996094,636.023438C961.733887,635.040833,962.417236,634.018433,963.042969,632.960938C964.507629,630.516846,966.027832,628.105652,967.601563,625.730469L969.3125,623.167969L970.980469,620.578125L972.597656,617.960938L974.171875,615.3125C975.489929,613.068909,976.723877,610.776917,977.871094,608.441406C978.410034,607.358826,978.890076,606.247925,979.308594,605.113281C979.507629,604.540649,979.704041,603.968628,979.898438,603.394531C980.086731,602.819336,980.246765,602.235168,980.378906,601.644531C980.455688,601.26886,980.512695,600.889404,980.550781,600.507813L980.589844,599.746094C980.583984,598.877075,980.536316,598.008789,980.445313,597.144531L980.320313,596.328125L980.136719,595.519531L979.898438,594.722656L979.6875,594.179688L979.433594,593.65625L979.140625,593.160156L978.808594,592.6875C978.569153,592.38623,978.311707,592.09967,978.035156,591.832031C977.750793,591.568054,977.44635,591.326721,977.125,591.109375L976.417969,590.675781C975.934082,590.408752,975.434509,590.171387,974.921875,589.964844C974.43219,589.787231,973.938599,589.620117,973.441406,589.464844C972.735535,589.257813,972.014709,589.10553,971.285156,589.011719C969.730774,588.819336,968.1698,588.683472,966.605469,588.605469C964.006836,588.459595,961.406799,588.355408,958.804688,588.292969C953.683533,588.161804,948.552612,588.069275,943.429688,588.015625C931.799133,587.899414,920.217529,587.828125,908.585938,587.800781L887.984375,587.75C883.796021,587.739258,879.571472,587.739258,875.382813,587.75M717.855469,587.769531C712.823303,587.763794,707.793518,587.788452,702.761719,587.84375L700.863281,587.894531C700.760803,587.897766,700.658569,587.906433,700.558594,587.929688L700.5625,587.957031C700.713867,588.272339,700.888306,588.575989,701.082031,588.867188C703.312073,592.401367,705.622559,595.884033,708.011719,599.3125L708.890625,600.511719L708.980469,600.609375L709.054688,600.675781L709.207031,600.859375L710.242188,602.246094C711.211548,603.620483,712.171753,605.002808,713.121094,606.390625L715.027344,609.105469L718.832031,614.351563C720.373779,616.48877,721.886169,618.64856,723.367188,620.828125C723.826172,621.491089,724.318787,622.130127,724.84375,622.742188C724.985718,622.905701,725.13739,623.060547,725.296875,623.207031L725.390625,623.28125L725.46875,623.328125L725.527344,623.34375L725.613281,623.351563L725.683594,623.378906L725.738281,623.421875L725.773438,623.476563L725.789063,623.542969L725.785156,623.617188L725.730469,623.75C725.694641,623.81781,725.667053,623.88916,725.640625,623.960938C725.640137,624.009094,725.63916,624.05719,725.640625,624.105469L725.667969,624.160156L725.714844,624.199219L725.777344,624.226563C725.834778,624.237488,725.892212,624.248596,725.949219,624.261719C726.093811,624.349731,726.221985,624.461853,726.328125,624.59375C726.488281,624.787659,726.630615,624.995605,726.753906,625.214844C726.94696,625.582092,727.153564,625.942139,727.375,626.292969L728.796875,628.527344L731.183594,632.160156C732.125732,633.572083,733.087402,634.9729,734.066406,636.359375C734.993652,637.667358,735.993774,638.922058,737.0625,640.117188C737.479431,640.57489,737.920105,641.010437,738.382813,641.421875C738.848572,641.829285,739.335022,642.212402,739.839844,642.570313C740.925232,643.298584,742.108948,643.868408,743.355469,644.261719C744.48584,644.620605,745.639648,644.901062,746.808594,645.101563C747.813965,645.201111,748.822266,645.267517,749.832031,645.300781C753.209106,645.438904,756.578186,645.55072,759.957031,645.636719L771.851563,645.910156C779.758545,646.074219,787.725037,646.20752,795.632813,646.308594L807.527344,646.433594C814.631592,646.505371,821.743469,646.501465,828.847656,646.421875C830.352356,646.415771,831.856079,646.348938,833.355469,646.222656C834.01355,646.149963,834.66449,646.022766,835.300781,645.839844C836.932495,645.310425,838.484741,644.561829,839.914063,643.613281L840.574219,643.125L841.195313,642.589844L841.777344,642.011719L842.3125,641.390625L842.691406,640.878906L843.042969,640.347656C843.504822,639.600952,843.87738,638.802612,844.152344,637.96875L844.328125,637.316406C844.46582,636.586182,844.567017,635.849548,844.632813,635.109375C844.684753,634.596191,844.722656,634.081665,844.746094,633.566406C844.907166,630.815186,845.011475,628.06012,845.058594,625.304688C845.126404,622.32373,845.173157,619.352661,845.199219,616.371094C845.2229,611.297668,845.262451,606.131226,845.316406,601.058594C845.353149,598.366394,845.416992,595.675232,845.507813,592.984375L845.765625,588.167969L830.820313,588.167969L797.351563,588.046875L753.441406,587.84375L744.769531,587.8125L736.578125,587.789063C730.36084,587.769043,724.073547,587.762207,717.855469,587.769531"/>
</svg>
