<?xml version="1.0" encoding="UTF-8"?>
<svg xmlns="http://www.w3.org/2000/svg" width="147.838mm" height="218.099mm" viewBox="-200.786255 -469.698914 147.837982 218.099304">
    <path transform="matrix(-1,0,0,-1,0,0)" style="stroke:none;fill:#000000;fill-rule:evenodd" d="M166.823349,469.499359C161.283173,469.190613,157.746918,468.830688,157.136627,468.513489C155.790817,467.814056,153.169815,465.436066,152.321686,464.144989C151.377426,462.707581,151.108032,462.522949,147.58316,460.897766C146.576294,460.433533,145.725494,459.687317,143.924744,457.689026C141.548767,455.052368,139.464966,453.256897,138.721954,453.206146C138.498016,453.190857,137.092987,453.16217,135.599701,453.142395C133.084549,453.10907,132.729462,453.041412,130.778107,452.223694C129.619537,451.73822,127.564697,450.69989,126.211792,449.916321C124.858902,449.132751,122.515572,447.778564,121.004395,446.906982C117.013481,444.605255,114.67601,443.789124,111.883606,443.722504C109.403831,443.66333,109.15152,443.570343,107.23497,442.009277C105.90567,440.926575,105.903427,440.925842,105.448555,441.428833C104.858261,442.081543,103.467995,442.785767,102.389938,442.978088C101.921112,443.061768,99.633423,443.222778,97.306183,443.335999C92.552505,443.5672,91.380539,443.905457,90.974113,445.163635C90.413651,446.898621,91.37867,448.409668,94.644852,450.911346C96.317497,452.192505,97.464874,453.51416,97.464874,454.159729C97.464874,454.591736,94.005585,454.755066,91.047363,454.462769C89.486183,454.308472,86.653839,453.960632,84.753265,453.689758C80.871857,453.136536,74.217705,452.84906,72.542587,453.162262C71.548859,453.348053,71.366379,453.496033,70.707413,454.650574C69.955887,455.967285,69.078583,456.525299,68.144135,456.280945C67.798561,456.190552,67.583252,455.773895,67.356659,454.756989C65.931091,448.359375,62.514778,442.741791,55.685169,435.565033L53.563778,433.335815L53.293911,424.711121C53.145481,419.96759,52.996017,415.669922,52.961769,415.160858C52.927521,414.651794,52.96048,414.23526,53.035011,414.23526C53.109547,414.23526,53.385555,414.634552,53.648369,415.122559C54.669834,417.019318,58.534729,419.834656,63.559128,422.34198C69.815102,425.463928,73.401581,426.673584,76.450829,426.690125L78.279816,426.700043L78.663765,425.712708C79.320244,424.024628,79.191055,419.05658,78.365288,414.23526C77.523209,409.318665,77.568756,406.324402,78.56427,401.153412C79.446289,396.571899,79.603592,393.818604,79.104195,391.702789C78.886681,390.78125,77.818909,388.09201,76.731384,385.726685C73.756599,379.256775,73.62735,378.31958,74.757095,371.410706C75.41124,367.410339,75.381142,365.29248,74.627312,362.278107C74.255028,360.78949,74.069733,359.51593,74.160431,359.069366C74.243149,358.662109,74.772141,357.612183,75.335983,356.736267L76.361137,355.143646L76.500046,352.046539C76.631248,349.120941,76.693184,348.826416,77.618393,346.727997C79.747986,341.89798,83.398849,336.062866,87.452103,331.010895C88.796555,329.335175,89.566399,328.158417,89.566399,327.779053C89.566399,326.954346,90.301346,324.942535,91.615952,322.168671C94.252045,316.606476,93.985748,308.47522,90.906815,300.51474C89.889465,297.88443,88.558159,295.265686,84.455757,287.825226C78.646652,277.289337,77.191246,271.54007,78.352852,263.717072C78.827271,260.522034,79.34639,259.538971,81.899002,257.001831C86.256271,252.670929,93.665771,250.651184,100.179977,252.018646C101.46965,252.289368,103.169464,252.755035,103.957336,253.053467C105.931038,253.801056,108.823715,255.787811,110.179504,257.326965C112.289108,259.721924,113.740334,263.569305,113.75119,266.795929C113.762932,270.286713,112.240479,274.520325,110.182053,276.720947C108.529167,278.488037,107.023125,279.089661,104.252625,279.089661C101.614746,279.089661,100.056671,278.516022,98.576073,276.999756C96.836777,275.218567,97.165802,272.788696,99.422333,270.750061C100.559814,269.722412,101.412506,269.592834,102.154587,270.33493C102.575363,270.755707,102.648247,271.157684,102.648247,273.0578C102.648247,275.607849,102.78376,275.77771,104.425705,275.285767C105.786041,274.878204,107.699722,273.038696,108.251877,271.607941C108.931625,269.846527,108.822403,266.522583,108.008621,264.205078C106.057953,258.649933,103.212547,256.553772,97.308044,256.322144C92.902153,256.149292,90.045471,257.257843,87.244011,260.227509C84.648376,262.979034,83.395721,266.188751,83.395721,270.088104C83.395721,274.677277,84.544487,277.033691,90.549103,284.761475C95.618324,291.285461,97.257698,294.098969,98.953949,299.186035C101.418762,306.577942,101.790718,314.763245,100.051163,323.331207C99.728088,324.922485,99.486053,326.238159,99.513321,326.254913C99.540588,326.271667,100.951309,326.755585,102.648247,327.330231C104.345184,327.904877,110.734161,330.3591,116.845985,332.784058C128.63855,337.462921,135.507736,339.89267,140.855728,341.276672C144.082428,342.111725,144.133865,342.116913,143.941071,341.588409C143.833221,341.292816,143.78096,338.382355,143.824921,335.120728C143.939224,326.639923,143.697083,325.820679,139.30368,319.823822C136.835083,316.454224,136.229889,315.294617,136.222183,313.919373C136.214493,312.546478,137.699463,311.15564,140.046967,310.337067C141.932724,309.679504,142.099915,309.534668,143.036987,307.746857C144.027496,305.857025,144.296387,304.913849,145.104904,300.493134C146.026978,295.451447,147.034973,292.965088,148.255859,292.720917C149.981598,292.375763,152.024338,293.104462,152.63353,294.282501C152.993744,294.979126,153.046051,294.999542,153.577774,294.651154C154.427124,294.094635,156.461121,293.780884,157.581818,294.033508C158.839844,294.317139,159.418777,295.044739,159.417603,296.340851C159.416107,298.008728,158.886505,298.661865,155.289871,301.431458C154.580292,301.977875,153.82843,302.756226,153.619064,303.161072C153.409698,303.565948,153.01236,305.259247,152.736115,306.92395C152.151077,310.449219,151.806976,311.605499,150.50296,314.42804C149.220642,317.203583,149.222961,318.191528,150.517181,320.536102C152.333344,323.826172,156.937546,341.632507,158.183167,350.183563C158.932068,355.324524,158.926956,355.509521,158.019547,356.121033C156.443024,357.183472,154.574341,357.588684,151.273224,357.584045C147.639923,357.578888,145.264313,357.113678,139.149399,355.209839C132.436493,353.119843,130.28154,352.516144,127.754173,352.017578C124.661697,351.407532,124.615875,351.409729,124.615875,352.166107C124.615875,353.363464,125.361603,354.557648,127.359787,356.560089C128.466003,357.668671,129.7883,359.131073,130.298218,359.809845C131.33522,361.190216,136.325027,366.131165,137.770264,367.208679C138.706299,367.906555,138.707367,367.906708,140.404007,367.586548C143.466263,367.008759,146.766373,367.36026,152.013702,368.82312C155.503204,369.795959,157.132965,370.126221,158.924866,370.223602L161.26973,370.351074L164.231659,368.821808C166.92923,367.429047,167.291626,367.305786,168.292023,367.440796C171.25386,367.840454,172.369812,369.813538,173.594177,376.815308C174.27594,380.713928,174.82962,382.556641,175.834656,384.271606C176.788452,385.89917,177.905334,386.515991,180.8508,387.041901C182.423401,387.322693,183.628235,387.681213,184.045044,387.992401C185.802368,389.304443,185.133575,391.41098,182.190063,393.835052C181.1763,394.669922,180.201645,395.387024,180.024139,395.428619C179.846664,395.470215,178.886475,395.095947,177.890411,394.596893C171.944885,391.617981,167.283203,386.755402,163.894882,379.99823C162.897583,378.009369,162.855118,377.964783,161.580673,377.568176C158.294495,376.545502,153.860382,376.882019,148.058411,378.594391C138.20697,381.501892,135.119308,381.610199,130.169495,379.221802C127.415062,377.892731,125.655655,376.492004,120.592026,371.596802C118.170212,369.255554,115.548981,366.847717,114.767052,366.246033C112.79715,364.730225,110.521683,363.390228,109.916275,363.389465C109.315674,363.388702,107.434113,364.554596,106.687088,365.390381C106.396973,365.714966,105.321335,367.236115,104.296768,368.770752L102.433914,371.560974L102.935242,372.410675C103.749641,373.790985,104.128571,375.399261,104.502426,379.062378C104.923111,383.184174,105.370056,384.81897,106.395584,385.987C107.121063,386.813263,107.217484,386.848999,108.297897,386.691772C109.912521,386.456848,111.845596,385.703979,114.096481,384.433411C116.246346,383.219849,118.897057,382.147614,119.746674,382.147858C120.658745,382.148132,122.933144,384.159851,125.593124,387.319153L128.108734,390.306946L127.610535,391.348999C127.336517,391.922119,126.768921,393.723938,126.349228,395.352966C125.413742,398.98407,124.80452,400.288086,123.717476,400.986115C122.617134,401.692688,122.720009,402.268402,124.122223,403.251038C125.501785,404.217834,125.660309,404.989319,124.759178,406.351013C124.410393,406.878052,123.34182,407.859314,122.384552,408.531555C119.21077,410.760437,114.628174,412.024841,107.895653,412.529327C105.83152,412.684021,104.132576,412.925598,103.975632,413.086823C103.034821,414.053253,102.318619,419.22403,102.449036,424.108337L102.524834,426.946869L105.363342,428.342102C106.92453,429.109497,111.367416,430.926025,115.236435,432.378906C122.941467,435.272217,127.27343,437.231171,129.911469,439.015137L131.628052,440.176025L133.330688,439.300171C135.276642,438.299194,136.782532,438.160889,138.454147,438.829773C139.011429,439.052734,140.818604,440.234619,142.470093,441.456238C147.856323,445.440338,149.045746,445.698486,155.222473,444.223816C161.614624,442.697662,162.974426,442.866638,168.761093,445.906006C170.318848,446.724182,172.167145,447.526978,172.868439,447.690002C174.535614,448.077515,175.560883,447.696411,179.154282,445.353333C180.629913,444.391113,182.156158,443.5401,182.545898,443.462158C183.564636,443.258423,186.306366,444.424561,187.706787,445.657257C188.34375,446.217957,189.114685,447.219299,189.424988,447.889038C190.122162,449.39389,189.976013,449.877716,188.283447,451.667297C187.612305,452.376984,187.063904,453.047546,187.064789,453.157471C187.070526,453.878967,189.525269,456.009521,192.955597,458.270203C196.779785,460.790497,198.702179,462.497498,199.539215,464.11615C200.003632,465.014221,200.96347,469.035248,200.761627,469.237122C200.324707,469.674011,173.654968,469.880096,166.823349,469.499359M85.863991,445.106293C85.863991,444.313538,85.178726,443.854553,83.995155,443.854553C82.161163,443.854553,82.649666,444.920593,84.665237,445.316833C85.256668,445.433105,85.768341,445.540405,85.802284,445.555298C85.83622,445.57016,85.863991,445.368103,85.863991,445.106293M73.184326,449.167114C73.261246,448.966614,73.86866,448.411438,74.534126,447.93335C76.116211,446.796753,76.127686,446.359619,74.57164,446.504333C73.421715,446.611267,73.37484,446.587524,72.129639,445.266357C71.235832,444.318024,70.606392,443.871735,70.003029,443.758545C68.67305,443.509033,68.261154,443.771332,68.422424,444.765076C68.633324,446.064728,69.513336,447.266907,71.119019,448.448975C72.720955,449.628235,72.973648,449.716125,73.184326,449.167114M94.21273,425.053101C93.916779,423.887756,93.634491,421.125366,93.38665,416.969513C92.972794,410.029785,92.96019,409.928101,92.208069,407.454987C91.80368,406.125305,91.426636,405.466736,90.5476,404.554749C89.922104,403.905823,89.283112,403.374878,89.12764,403.374878C88.345871,403.374878,88.208244,405.367249,88.268204,415.816711C88.300842,421.505798,88.368805,426.201782,88.419235,426.252197C88.655411,426.488403,90.870468,426.771973,92.669716,426.796387L94.662315,426.823456L94.21273,425.053101M188.914398,465.130737C180.526123,459.842896,172.255234,456.569885,165.102036,455.707581C162.511353,455.395264,156.781555,455.37616,156.594238,455.679199C156.352753,456.069946,157.339203,458.793274,158.148041,459.968872C160.068665,462.760437,163.476807,464.461304,168.921387,465.345398C171.31543,465.734161,176.931519,465.984558,184.22467,466.027771L190.395355,466.064301L188.914398,465.130737"/>
</svg>
