<?xml version="1.0" encoding="UTF-8"?>
<svg xmlns="http://www.w3.org/2000/svg" width="1017.382mm" height="557.103mm" viewBox="-1207.927490 -702.317749 1017.382446 557.103455">
    <path transform="matrix(-1,0,0,-1,0,0)" style="stroke:#000000;stroke-width:0.05mm;fill:none" d="M945.756287,702.232117C944.737976,702.560791,943.654785,701.994446,943.333374,700.973938C942.638916,693.798218,942.525208,686.584839,942.993286,679.39093C946.389038,679.345642,949.772522,678.943542,953.084351,678.191895C953.674622,669.323059,952.380798,660.43335,949.285889,652.101074C946.876648,650.716125,944.313599,649.628357,941.644165,648.855957C939.850098,645.637695,939.082153,641.961548,939.436218,638.294067C938.518188,632.258972,937.256836,626.279724,935.659302,620.387878C937.726868,615.925171,937.626648,610.726868,935.391907,606.345337C937.406311,598.759216,938.047058,590.875549,937.284302,583.06366C936.71814,566.45105,935.427856,549.870239,933.417358,533.369934C933.297913,530.626099,932.435852,527.975342,930.918335,525.686218C930.776428,523.654968,929.149353,522.030945,927.118164,521.885681C923.567017,521.321167,920.115784,520.242493,916.875427,518.683838C898.24469,519.306519,879.63562,520.295776,861.043152,521.652222C856.772522,523.001282,852.782654,525.099243,849.250977,527.853516C848.888123,531.990234,845.575867,535.306152,841.439758,535.677673C840.326477,538.18457,839.54657,540.81842,839.115295,543.527283C837.788269,545.840271,835.837158,547.726013,833.480591,548.973999C829.439331,554.895874,822.604492,558.254395,815.447388,557.834656C814.846802,557.713562,814.366394,557.256104,814.240967,556.656494C816.034302,555.549561,817.88739,554.543152,819.792053,553.641174C820.234009,553.215942,820.34082,552.551086,820.060364,552.005676C817.979736,550.312073,817.24115,547.445618,818.244202,544.957458C818.235168,543.880493,817.466736,542.962341,816.410095,542.753967C814.839539,542.861755,813.351013,542.033447,812.608887,540.64502C812.938782,538.375977,812.231812,536.073425,810.683899,534.381897C808.184814,534.804443,805.615356,534.304749,803.458618,532.973511C804.189331,529.544312,804.356323,526.018066,803.952698,522.535217C802.507141,521.39386,801.970398,519.42511,802.633606,517.706665C804.270874,516.971252,805.22998,515.212646,804.961304,513.438049C804.389832,512.488281,803.255188,512.041565,802.187866,512.340576C799.552368,513.106567,797.705322,515.494507,797.626526,518.237976L796.963318,518.557495C795.314941,517.025696,794.509033,514.795593,794.800903,512.564331C792.597778,503.689636,790.630981,494.76123,788.901123,485.782288C789.737305,483.477783,790.763794,481.244324,791.96814,479.109039C793.041748,476.125793,794.05426,473.120422,795.004822,470.095703C792.143494,468.148254,788.495239,467.83606,785.344727,469.269257C784.814819,469.364441,784.308594,469.015289,784.203125,468.487366C784.743347,466.134308,783.747559,463.686157,781.717712,462.37912C773.435181,462.039124,765.142395,462.319397,756.901611,463.217834C737.79187,464.667816,718.606628,464.739532,699.486633,463.432495C693.8797,462.552795,688.32489,461.379822,682.841064,459.917603C682.023926,456.440338,681.078491,452.993896,680.00708,449.586365C677.294922,449.047882,674.764038,447.788696,672.699463,445.949402C671.753052,443.75885,671.256836,441.397766,671.242065,439.011566C668.79364,437.712708,666.883972,435.557373,665.888306,432.970703C665.600525,430.185303,665.627808,427.375275,665.969116,424.595917C664.056946,423.403961,663.143799,421.08255,663.733276,418.907837C666.060364,415.019287,667.032043,410.46759,666.4953,405.967804C664.560364,399.613953,660.041504,394.339355,654.059814,391.452301C648.237671,387.707642,642.556458,383.745911,637.030273,379.576843C633.744995,379.823242,630.494385,378.731201,628.023621,376.551971C625.338013,374.509277,624.40863,370.82489,625.804993,367.753265C624.913269,367.048248,624.6698,365.797089,625.234497,364.810516C626.691528,362.607452,627.867188,360.231537,628.735291,357.736938C629.665649,357.297424,630.310425,356.406982,630.437622,355.385925C629.6604,351.347626,627.005981,347.902161,623.299377,346.120819C619.004883,345.875488,614.692383,346.197388,610.481812,347.077271C608.50354,346.364777,606.308655,346.500092,604.432617,347.449707C581.142273,346.105286,557.796875,346.055725,534.500977,347.301453C527.419983,351.461517,519.889526,354.806641,512.055664,357.271912C506.792938,358.211975,501.526489,359.113464,496.25061,359.977509C494.027435,360.020294,492.096771,358.486176,491.636414,356.31076C494.699982,354.611816,495.999207,350.889313,494.660278,347.652161C492.29364,346.48468,489.62738,346.132111,487.038483,346.643433L409.54126,346.499207C378.711151,346.677979,347.889099,346.091064,317.088715,344.73941C312.006897,343.850952,307.479156,340.951202,304.54657,336.706909C300.119385,333.744324,295.557465,330.983826,290.878967,328.436462C285.488403,321.610657,279.363342,315.397675,272.61499,309.910339C261.830658,305.505371,251.224304,300.674561,240.822357,295.429932C237.296539,293.309723,233.490585,291.689697,229.518341,290.618195C224.908264,287.912048,220.452545,284.948242,216.174805,281.742371C208.94838,281.28714,202.713196,276.456085,200.467651,269.572327C196.794052,265.655243,193.509491,261.389648,190.661316,256.837006C190.158478,254.831604,191.284851,252.777573,193.246048,252.123215C215.693451,246.023438,238.294403,240.480225,261.016754,235.501678C263.767792,231.146606,265.568146,226.278748,266.312897,221.181671C263.024261,219.878189,259.474548,219.422333,255.963257,219.852509C252.802994,220.476883,249.542603,219.595093,247.127792,217.462997C247.288696,199.58992,248.428711,181.741058,250.542938,163.992935C249.904556,162.387665,250.213333,160.536224,251.337891,159.224792C256.9935,159.591904,262.662598,159.684097,268.327087,159.501068C273.104462,156.176117,279.002625,154.809311,284.755524,155.694L296.001007,155.374054C299.146027,154.891907,302.351257,155.099213,305.407959,155.982452C308.948975,164.345581,312.407959,172.61145,315.876495,181.000244C319.31189,181.99292,322.905151,182.25383,326.447876,181.767822L400.179657,180.129333C408.875946,179.295502,417.451904,177.523865,425.766724,174.84346L463.261871,165.062134C491.247009,158.540894,519.483032,153.16272,547.904602,148.939697L789.125854,145.214279C834.127075,145.745728,879.077698,148.259888,923.856934,152.750092L1050.835815,164.263596C1069.105957,165.722656,1087.330811,167.420898,1105.55542,169.362198C1128.901611,173.825134,1151.588013,181.204407,1173.092163,191.329971C1174.775513,192.873016,1176.458862,194.416046,1178.14209,195.959137C1178.648804,195.680908,1179.246216,195.601608,1179.807129,195.740616C1180.057739,200.450348,1180.545898,205.144119,1181.27002,209.804535C1181.739624,215.568893,1180.879272,221.357666,1178.753784,226.736404C1177.861938,228.350403,1176.706787,229.799286,1175.331055,231.027191C1174.730957,230.572342,1173.967407,230.392197,1173.22522,230.51973C1172.554565,232.813507,1170.968262,234.749786,1168.852539,235.861221C1168.401489,238.541428,1167.218384,241.06044,1165.442139,243.117493C1162.823364,248.671158,1161.209961,254.64653,1160.677612,260.76355C1161.158813,265.237671,1162.195435,269.638428,1163.761963,273.856873C1168.973633,286.959229,1175.094604,299.682495,1182.079346,311.931763C1184.906128,314.857574,1187.259888,318.203064,1189.058594,321.852173C1192.054932,331.451416,1198.111206,339.837494,1206.281128,345.700562C1207.73645,351.724823,1208.231079,357.933044,1207.748413,364.111755L1207.748413,365.361755C1207.725342,369.072174,1205.555542,372.434631,1202.184326,373.984711C1199.290894,378.003204,1196.884155,382.344482,1195.009033,386.927521C1193.317993,390.848663,1191.561768,394.74057,1189.740479,398.602936C1181.200439,403.612518,1171.772827,406.926086,1161.976563,408.361725C1161.307373,408.575256,1160.778076,409.094055,1160.557129,409.760864C1161.057617,410.682404,1160.98645,411.809784,1160.376221,412.662659C1139.780762,415.396393,1119.418579,419.683014,1099.468872,425.48468C1097.35376,427.372437,1096.548462,430.31131,1097.406494,433.013428C1097.440918,440.864258,1097.212891,448.712982,1096.723022,456.548676C1094.477783,458.578796,1091.817871,460.093536,1088.92627,460.988861C1079.704468,466.703033,1069.045044,469.714722,1058.196533,469.6716C1055.461304,470.610809,1052.630859,471.260284,1049.759766,471.60675C1051.72937,475.353394,1054.179077,478.836884,1057.038574,481.957764C1058.325684,483.311218,1059.036987,485.12619,1059.015381,486.993958C1057.24707,487.967316,1056.051514,489.762848,1055.836182,491.769714C1051.571411,492.518005,1047.742432,494.827606,1045.091187,498.250916C1044.566528,498.544525,1044.092285,498.920013,1043.684814,499.362061C1044.772827,500.176086,1045.402588,501.48822,1045.356445,502.846191C1044.342407,503.850342,1043.46228,504.981598,1042.740234,506.212524C1043.335449,506.935791,1043.820435,507.74118,1044.181763,508.605377C1042.440063,511.424072,1040.101807,513.823181,1037.329712,515.638184C1033.795532,516.442688,1030.342041,517.560669,1027.006592,518.97937C1024.727173,521.539673,1021.569336,523.118958,1018.153198,523.40448C1015.832031,521.770996,1013.749268,519.815063,1011.975098,517.599609C1009.66687,516.640076,1007.011536,517.650635,1005.91803,519.898499C1005.908569,522.069946,1005.992554,524.241272,1006.168213,526.405701C1003.414856,528.074951,1000.092712,528.523132,996.996521,527.639465C993.107422,527.555359,989.847168,530.588074,989.652222,534.473145C990.372864,542.815125,993.919922,550.660828,999.706726,556.712341C1001.69989,559.840515,1002.753235,563.472595,1002.741089,567.181763C1002.356689,568.273743,1001.341248,569.020386,1000.183716,569.040649C993.824463,567.42395,987.393433,566.09668,980.913757,565.063354C978.225342,562.467285,977.167175,558.63147,978.143005,555.023926C978.735718,552.265625,978.576904,549.398071,977.683655,546.721924C975.275085,544.950684,972.597534,543.591858,969.745728,542.694092C967.181946,541.940369,964.411804,542.347046,962.174927,543.80896C960.571594,549.692993,962.259644,556.025208,966.578857,560.330688C968.534546,560.6828,969.945984,562.429016,969.874451,564.414673C970.112793,578.564819,970.452881,592.715637,970.894714,606.860596C970.852966,607.61084,970.578125,608.329163,970.105164,608.913086C969.718994,609.259949,969.137268,609.233826,968.761719,608.876709C967.451965,606.234985,966.445068,603.454041,965.760498,600.58606C965.04834,605.805359,964.48999,611.031982,964.083435,616.283691C965.420227,617.295288,966.783325,618.27063,968.17218,619.209351C968.002319,621.549133,966.85083,623.70752,965.00061,625.14978C964.033264,627.816101,964.575195,630.790344,966.424072,632.941345C968.27655,638.830994,968.77002,645.056091,967.86792,651.16394C964.206848,653.72345,963.280151,658.710144,965.77417,662.416016C968.217102,665.091248,969.236389,668.74762,968.530823,672.301025C968.349976,674.990906,967.106934,677.500977,965.080322,679.278992C966.538086,683.80188,965.650879,688.743225,962.709412,692.475464C961.692139,692.793518,960.59436,692.317749,960.164917,691.341614C959.552551,689.040405,959.223328,686.672058,959.186646,684.291077C956.424622,681.217957,951.795532,680.835876,948.562866,683.408936C947.668884,689.100037,947.1698,694.845581,947.069458,700.605652C946.895691,701.314575,946.406677,701.900574,945.756287,702.232117z"/>
</svg>
