<?xml version="1.0" encoding="UTF-8"?>
<svg xmlns="http://www.w3.org/2000/svg" width="479.016mm" height="270.604mm" viewBox="-1091.371094 -617.397461 479.015869 270.604126">
    <path transform="matrix(-1,0,0,-1,0,0)" style="stroke:none;fill:#000000;fill-rule:evenodd" d="M901.305786,617.237061C888.558289,615.839722,875.521362,612.682129,854.348145,605.86377C825.278198,596.502441,809.523682,593.389771,795.397217,594.216675C783.945679,594.886963,773.661865,596.43811,752.284302,600.719604C740.923157,602.994995,732.332581,604.48291,724.983032,605.448181C706.369873,607.8927,698.377197,607.38324,677.62854,602.429565C670.047791,600.61969,665.668152,599.681702,661.585327,598.993713C659.834717,598.69873,658.115479,598.232178,657.352539,597.845093C652.243652,595.252991,646.583557,589.081055,636.081055,574.649902C633.274963,570.794067,628.58667,564.36554,625.66272,560.364197C619.272949,551.620056,618.817139,550.930908,616.914001,547.136169C614.346863,542.017395,613.070435,537.50824,612.508545,531.572815C612.028748,526.504639,612.612244,521.779175,614.932068,511.945068C617.162048,502.492004,617.415833,500.730988,617.40918,494.755737C617.404053,490.187347,617.268677,488.310791,616.550476,482.850983C614.970459,470.840149,615.187622,462.911377,617.350098,453.656067L617.897522,451.313049L619.683777,451.41394C621.149536,451.496765,621.647766,451.650482,622.460693,452.270538C625.214783,454.371155,626.633118,459.136108,626.993591,467.498718C627.203796,472.375061,626.781982,475.720886,624.857971,484.438293C624.071167,488.003113,623.235291,491.991211,623.000366,493.30072C622.430298,496.47934,622.263916,501.861572,622.522095,508.776917L622.734375,514.464722L623.337402,512.828979C625.031372,508.233765,629.25354,501.061401,637.558411,488.671082C643.987,479.080048,645.697815,476.331299,647.576233,472.57547C651.25116,465.227631,652.485779,459.396362,651.309875,454.940918C650.56604,452.122498,647.694885,446.696686,644.1745,441.456696C636.521118,430.064941,634.576233,423.373871,636.050049,413.505981C637.088989,406.549561,638.607178,400.574219,644.237488,381.281128L648.131226,367.938812L649.850769,366.516846C651.988892,364.748749,654.63385,363.428436,657.390503,362.753143C658.554504,362.467957,662.84021,361.804688,666.914307,361.279114C673.624451,360.413544,674.359009,360.269867,674.718506,359.752686C679.187866,353.322723,683.314453,349.549469,687.876343,347.721405L689.665588,347.004425L701.581177,346.925934L713.496765,346.847443L715.602356,347.903931C717.932007,349.072876,720.831177,351.272583,720.966187,351.973694C721.013977,352.221985,720.866516,353.066986,720.638428,353.851532C720.231323,355.252045,720.052063,355.432892,710.764771,363.813446C705.562378,368.507965,700.565796,373.125763,699.661316,374.075195C696.367432,377.532776,693.249512,382.606262,691.829468,386.819244C690.511414,390.729401,690.231445,392.68103,690.254333,397.798065C690.286682,405.019287,691.308472,410.675964,693.514526,415.846161C695.400513,420.266174,697.169556,422.723083,701.480469,426.909454C705.059265,430.384827,706.811646,431.872864,711.755554,435.63446C718.517761,440.77948,721.702759,443.533875,726.605835,448.476746C731.057861,452.964874,731.384216,453.234436,733.748718,454.376648C737.745789,456.307465,737.024719,456.545166,741.83252,451.711731C753.443481,440.038635,766.191589,432.833374,782.208557,428.89093C790.301819,426.898834,798.176147,425.972687,807.019775,425.972687C814.59491,425.972687,818.025757,426.422363,834.189026,429.533997C840.710571,430.78949,846.725708,431.570496,850.24762,431.61908C852.570923,431.651123,853.761841,431.517487,856.153931,430.95636C857.801941,430.569763,859.190674,430.212921,859.240112,430.16333C859.483276,429.919495,861.549194,420.878845,862.132324,417.50708C863.816345,407.769897,864.474609,400.270325,865.325073,381.131409C865.700073,372.692261,866.162842,362.995972,866.353394,359.584106L866.699951,353.380737L869.107788,351.073822C870.852295,349.402435,872.065613,348.495056,873.512207,347.780121L875.508789,346.793335L886.290894,346.955688C897.292358,347.121338,901.862671,347.366028,907.258179,348.078217C912.602173,348.783569,914.748413,349.457001,915.348083,350.616638C915.707581,351.31189,915.684814,351.581696,915.079895,353.789185C914.716309,355.11615,914.38501,356.226501,914.34375,356.256622C914.30249,356.286774,912.78064,357.312439,910.961914,358.535889C904.546936,362.851135,899.552246,367.358063,898.285889,369.973999C897.924805,370.719849,897.64563,372.062927,897.475464,373.872925C897.137451,377.467407,896.676147,388.967957,896.676147,393.802429L896.676147,397.594727L897.60376,399.415955C898.500854,401.177399,899.504089,402.612091,899.689819,402.399048C899.739441,402.342041,900.878418,398.723999,902.220825,394.358917C904.953857,385.471985,908.10376,375.887085,909.367554,372.612335C911.373657,367.413818,915.615723,362.90686,921.233643,360.005341C925.610168,357.744934,930.065308,356.595337,936.443909,356.080475C940.692444,355.737549,944.45813,355.986664,947.119141,356.786652C948.295837,357.140442,948.599243,357.37912,949.28125,358.487488C952.204712,363.23877,951.540955,369.442932,947.664063,373.60321C947.047974,374.264282,944.408203,376.397675,941.797974,378.344116C934.149414,384.047577,931.700073,386.718597,929.458496,391.800262C927.12439,397.091949,926.189087,402.53363,926.199463,410.761047C926.209717,418.923767,927.051514,424.127014,930.801514,439.20932C933.616394,450.530579,934.845581,457.399719,935.450928,465.192017L935.610168,467.242004L939.754272,471.436096C944.349731,476.086914,946.802124,477.958099,949.815918,479.112976C951.97229,479.939331,956.020874,480.734589,958.071167,480.734589C959.170837,480.734589,959.615845,480.532928,961.794434,479.047333C975.016602,470.03125,988.541992,465.093323,1004.700928,463.382874C1009.925415,462.829834,1024.590576,462.98996,1030.009521,463.65918C1036.668091,464.481506,1043.790039,466.137146,1047.487061,467.722229L1048.694824,468.23999L1050.895386,466.660492L1053.095947,465.080933L1054.846436,466.283691C1058.701416,468.932495,1062.807617,473.10321,1064.148804,475.732178C1064.435791,476.294739,1064.843018,477.501648,1065.053589,478.414124C1065.477539,480.250427,1065.981689,486.508667,1065.985718,489.984375C1065.988159,492.069855,1066.059448,492.360413,1067.023438,494.217163C1068.912964,497.85675,1074.909302,512.363647,1079.854248,525.258423C1086.258667,541.959229,1090.11853,556.138611,1091.111938,566.614136C1091.454224,570.224182,1091.457642,576.643066,1091.121582,584.835083C1090.810791,592.410339,1090.38208,600.01123,1090.177612,601.567871C1090.036865,602.639771,1089.988281,602.692261,1089.135986,602.692261C1088.644165,602.692261,1088.168823,602.574097,1088.07959,602.429688C1087.990234,602.285278,1087.625854,600.172119,1087.269775,597.733887C1085.234131,583.795654,1082.254883,571.980347,1078.649658,563.547607C1074.121094,552.955017,1065.32373,541.200012,1053.533325,529.987305L1050.734375,527.3255L1050.420532,533.328979C1050.247803,536.63092,1049.813232,542.189575,1049.454468,545.681641C1048.802734,552.02771,1047.270386,564.355591,1047.113892,564.512085C1046.921387,564.70459,1044.529785,562.780334,1043.758667,561.812561C1042.599487,560.357544,1042.383545,559.890625,1041.131348,556.131348C1039.989624,552.703979,1038.40271,549.254211,1037.359375,547.931274C1035.326416,545.353821,1029.498535,542.109985,1023.332092,540.123535C1017.413513,538.216919,1018.037842,538.116028,1014.136475,541.609253C1005.500366,549.341858,1002.930298,551.790039,1001.259644,553.875732C999.562805,555.994019,997.483093,559.352295,997.473938,559.98877C997.47168,560.146118,999.16626,561.327271,1001.239685,562.613586C1005.672668,565.363892,1006.690674,566.319763,1007.322083,568.324829C1008.793335,572.99707,1008.412476,583.215698,1006.555054,588.905762C1005.894165,590.930176,1004.164917,594.491211,1003.842651,594.491211C1003.580078,594.491211,1001.954651,591.581055,998.609375,585.121338C996.957825,581.932251,994.924622,578.368896,994.091064,577.20282C992.626099,575.153198,988.085144,570.152588,987.688965,570.152588C987.58197,570.152588,987.355713,571.015686,987.186035,572.070557C987.016357,573.125488,986.390747,576.786133,985.795776,580.205444C984.49353,587.689331,984.07959,588.733521,981.201721,591.792725C979.431213,593.674805,974.827271,597.268982,974.187012,597.268982C974.047974,597.268982,972.498901,595.483276,970.744507,593.30072C967.119263,588.790527,965.040283,586.554688,964.471741,586.554688C963.234619,586.554688,959.310364,589.206665,953.686768,593.84314C938.106323,606.688843,930.523987,611.703369,921.744202,614.968506C916.664551,616.857544,914.335327,617.284546,908.580933,617.381836C905.743652,617.429871,902.469849,617.364746,901.305786,617.237061z"/>
</svg>
