<?xml version="1.0" encoding="UTF-8"?>
<svg xmlns="http://www.w3.org/2000/svg" width="255.898mm" height="213.950mm" viewBox="-1284.952637 -700.266602 255.897949 213.950195">
    <path transform="matrix(-1,0,0,-1,0,0)" style="stroke:#000000;stroke-width:0.05mm;fill:none" d="M1174.230469,486.328125C1174.301147,486.361664,1174.364868,486.407227,1174.417969,486.464844L1174.511719,486.628906C1174.578369,486.821533,1174.618286,487.022797,1174.621094,487.226563C1174.647827,487.315765,1174.685547,487.401215,1174.734375,487.480469L1174.789063,487.542969L1174.847656,487.59375C1174.892944,487.612518,1174.936279,487.635071,1174.980469,487.65625L1175.035156,487.695313C1175.059448,487.727722,1175.073242,487.764679,1175.089844,487.800781L1175.078125,487.917969C1175.045898,488.01593,1174.984497,488.101807,1174.902344,488.164063C1174.799194,488.231659,1174.690308,488.289856,1174.574219,488.332031C1174.474609,488.349762,1174.373901,488.357758,1174.273438,488.371094L1174.164063,488.414063C1174.079834,488.460541,1173.998047,488.511475,1173.921875,488.570313C1173.744995,488.714111,1173.600342,488.89209,1173.480469,489.085938C1172.672485,490.237823,1171.804077,491.346222,1170.878906,492.40625C1170.248413,493.142273,1169.684937,493.933136,1169.195313,494.769531C1168.766357,495.575867,1168.474609,496.448181,1168.339844,497.351563C1168.04248,499.11795,1167.976196,500.915527,1168.140625,502.699219C1168.380127,505.279724,1168.740234,507.847473,1169.21875,510.394531C1169.792114,513.402832,1170.334351,516.421387,1170.84375,519.441406C1171.126831,521.126282,1171.299927,522.82782,1171.363281,524.535156C1171.370239,526.524353,1171.198853,528.510071,1170.851563,530.46875C1170.496338,532.478516,1170.144287,534.481079,1169.792969,536.492188C1169.662964,537.581421,1169.651001,538.681335,1169.753906,539.773438C1169.936279,542.31012,1170.188965,544.840637,1170.511719,547.363281L1170.527344,547.433594L1170.578125,547.554688L1170.652344,547.65625L1170.757813,547.734375L1170.898438,547.796875C1171.227173,547.874451,1171.564941,547.903931,1171.902344,547.890625C1172.078125,547.892456,1172.254028,547.890564,1172.429688,547.882813C1172.568115,547.876099,1172.705811,547.861023,1172.84375,547.847656C1172.997559,547.822021,1173.148438,547.78125,1173.292969,547.722656L1173.40625,547.65625C1173.470337,547.600708,1173.531372,547.541809,1173.589844,547.480469C1173.638794,547.401062,1173.684448,547.31958,1173.722656,547.234375C1173.822144,546.929993,1173.901489,546.619385,1173.960938,546.304688C1174.114868,545.879761,1174.319946,545.475159,1174.574219,545.101563C1174.912964,544.545837,1175.327637,544.039917,1175.808594,543.601563L1175.957031,543.492188L1176.085938,543.421875L1176.195313,543.398438L1176.242188,543.414063C1176.276123,543.453003,1176.311401,543.490723,1176.34375,543.53125L1176.394531,543.625C1176.505249,543.900818,1176.592041,544.185547,1176.652344,544.476563L1176.730469,544.738281L1176.820313,544.953125L1176.925781,545.125L1177.046875,545.253906L1177.183594,545.339844L1177.347656,545.378906L1177.535156,545.371094L1177.753906,545.320313C1178.420776,545.022156,1179.045654,544.638489,1179.617188,544.183594C1180.292236,543.655823,1180.985229,543.151489,1181.695313,542.671875L1181.910156,542.550781C1182.168701,542.399475,1182.446533,542.282776,1182.738281,542.214844C1183.270508,542.100708,1183.811523,542.031433,1184.355469,542.011719L1185.515625,541.941406C1185.003174,541.590088,1184.499146,541.226685,1184.003906,540.851563C1183.263184,540.277466,1182.610107,539.598145,1182.070313,538.832031C1181.384033,537.735413,1180.945679,536.502441,1180.785156,535.21875L1180.78125,534.988281C1180.770874,534.804626,1180.815552,534.622986,1180.902344,534.460938L1180.953125,534.367188C1181.786011,533.118225,1182.834473,532.028198,1184.050781,531.148438C1184.559814,530.786621,1185.146606,530.548218,1185.765625,530.464844C1185.953247,530.462769,1186.140869,530.474487,1186.324219,530.515625L1186.566406,530.613281L1186.785156,530.761719C1186.921387,530.888794,1187.037476,531.035339,1187.132813,531.195313C1187.221924,531.453857,1187.338379,531.702454,1187.484375,531.933594C1187.565796,532.042786,1187.664185,532.136963,1187.769531,532.222656C1187.828247,532.251709,1187.890625,532.268494,1187.953125,532.285156C1188.013428,532.275696,1188.073853,532.2677,1188.132813,532.25L1188.21875,532.207031C1188.276123,532.164856,1188.326416,532.114441,1188.375,532.0625C1188.61853,531.698059,1188.786133,531.288635,1188.875,530.859375C1189.020996,530.218384,1189.164429,529.59375,1189.3125,528.953125C1189.425659,528.511047,1189.61731,528.091858,1189.890625,527.726563L1190.023438,527.582031C1190.315552,527.32843,1190.630859,527.102417,1190.96875,526.914063C1192.036011,526.27179,1193.168335,525.744385,1194.347656,525.34375C1194.603027,525.261658,1194.866333,525.206848,1195.132813,525.175781C1195.210571,525.165894,1195.288818,525.159302,1195.367188,525.160156L1195.550781,525.183594L1195.707031,525.257813C1195.782349,525.32251,1195.845947,525.398254,1195.90625,525.476563C1196.339111,526.217407,1196.647705,527.024353,1196.808594,527.867188C1196.814941,528.027832,1196.827393,528.188171,1196.847656,528.347656L1196.890625,528.453125L1196.964844,528.515625L1197.070313,528.546875L1197.222656,528.546875C1197.606689,528.519531,1197.983276,528.424805,1198.332031,528.261719C1198.505615,528.165649,1198.667847,528.050171,1198.808594,527.910156C1198.92981,527.766113,1199.025513,527.60376,1199.105469,527.433594L1199.179688,527.15625C1199.194092,527.009338,1199.205688,526.862183,1199.214844,526.714844C1199.24292,526.578857,1199.285034,526.446228,1199.34375,526.320313C1199.439209,526.151184,1199.559814,525.998291,1199.695313,525.859375C1199.845215,525.725098,1200.012573,525.611694,1200.195313,525.527344L1200.476563,525.4375C1200.758057,525.418823,1201.03833,525.384094,1201.316406,525.335938C1201.524414,525.270874,1201.730347,525.199768,1201.933594,525.121094L1202.097656,525.097656C1202.692871,525.110352,1203.281494,525.223389,1203.839844,525.429688C1204.560791,525.678101,1205.310059,525.835571,1206.070313,525.894531C1206.853516,525.94519,1207.631714,525.731384,1208.277344,525.285156C1208.458252,525.193665,1208.64624,525.116089,1208.84375,525.070313L1209.03125,525.03125C1209.262573,525.000122,1209.497192,525.002136,1209.726563,525.046875C1209.880615,525.093567,1210.030884,525.1521,1210.171875,525.230469C1210.305054,525.318481,1210.419067,525.431519,1210.515625,525.558594C1210.571167,525.649414,1210.625854,525.740234,1210.679688,525.832031L1210.761719,525.941406C1210.814575,525.998535,1210.874634,526.047424,1210.933594,526.097656L1211.023438,526.144531L1211.113281,526.171875C1211.171997,526.173828,1211.230713,526.174683,1211.289063,526.164063L1211.375,526.128906C1211.498169,526.037048,1211.603638,525.924438,1211.683594,525.792969L1211.746094,525.660156L1211.804688,525.507813C1211.85376,525.313599,1211.916626,525.123047,1211.992188,524.9375C1212.046509,524.854431,1212.09729,524.769043,1212.148438,524.683594L1212.238281,524.609375L1212.34375,524.566406C1212.509766,524.557556,1212.676147,524.562927,1212.839844,524.59375C1213.184448,524.618896,1213.529541,524.634949,1213.875,524.636719C1214.067871,524.658142,1214.257202,524.705444,1214.4375,524.777344C1214.810059,524.920715,1215.167969,525.099304,1215.507813,525.308594C1216.030884,525.567993,1216.612793,525.684326,1217.195313,525.644531C1217.64502,525.61145,1218.095947,525.594849,1218.546875,525.597656C1218.625488,525.606567,1218.703247,525.619995,1218.78125,525.632813C1218.871094,525.659973,1218.955444,525.702515,1219.03125,525.757813L1219.164063,525.902344C1219.290161,526.118286,1219.411499,526.337036,1219.527344,526.558594C1220.073242,527.248108,1220.721802,527.849426,1221.449219,528.34375L1223.085938,529.492188C1223.044189,530.189636,1222.992065,530.886108,1222.929688,531.582031C1222.819092,532.992554,1222.272095,534.33429,1221.367188,535.421875C1220.935913,535.933777,1220.524658,536.46228,1220.136719,537.007813C1220.052368,537.139099,1219.972046,537.272888,1219.914063,537.417969C1219.913086,537.43512,1219.914795,537.452026,1219.917969,537.46875C1219.963501,537.489014,1220.008911,537.509583,1220.058594,537.519531L1220.1875,537.539063C1220.446655,537.572876,1220.707397,537.59259,1220.96875,537.59375C1222.001587,537.603577,1223.033569,537.603577,1224.066406,537.59375C1224.181274,537.58728,1224.295776,537.575562,1224.410156,537.5625L1224.710938,537.492188C1224.864624,537.428467,1225.010986,537.349182,1225.152344,537.261719C1225.693237,536.835754,1226.202393,536.370789,1226.671875,535.867188C1227.223999,535.294922,1227.799683,534.74585,1228.398438,534.222656L1228.425781,534.203125L1228.441406,534.203125C1228.660522,534.647766,1228.955566,535.050598,1229.3125,535.394531L1229.539063,535.5625L1229.777344,535.679688C1230.029785,535.773499,1230.30542,535.781799,1230.566406,535.714844L1230.863281,535.621094C1231.539185,535.298523,1232.160034,534.871155,1232.703125,534.355469C1233.128662,533.95166,1233.566528,533.561035,1234.015625,533.183594L1234.132813,533.101563C1234.216919,533.042908,1234.30835,532.995361,1234.40625,532.964844L1234.484375,532.957031L1234.558594,532.964844C1234.705444,533.011597,1234.836304,533.098511,1234.9375,533.214844C1235.060791,533.351135,1235.15979,533.506104,1235.246094,533.667969C1235.45166,534.109558,1235.591064,534.579285,1235.652344,535.0625L1235.699219,535.277344C1235.73584,535.401794,1235.77356,535.52594,1235.816406,535.648438C1235.869141,535.760315,1235.929199,535.868652,1236.007813,535.964844L1236.070313,535.988281L1236.109375,535.984375C1236.815918,535.687744,1237.494385,535.327942,1238.136719,534.910156C1238.635132,534.57666,1239.167236,534.29657,1239.722656,534.070313C1239.862915,534.032349,1240.007202,534.010437,1240.152344,534.019531C1240.284668,534.048889,1240.412964,534.09375,1240.535156,534.152344C1240.788086,534.27124,1241.028076,534.416138,1241.25,534.585938C1241.718872,534.899841,1242.051636,535.382446,1242.171875,535.933594C1242.230469,536.341797,1242.32019,536.745178,1242.449219,537.136719L1242.488281,537.230469L1242.527344,537.292969L1242.5625,537.3125L1242.613281,537.292969C1242.994141,537.014893,1243.35022,536.704529,1243.679688,536.367188C1243.90918,536.1427,1244.166626,535.948608,1244.445313,535.789063C1244.703247,535.644104,1244.97583,535.527344,1245.257813,535.4375L1245.453125,535.390625C1245.574463,535.368958,1245.697266,535.358887,1245.820313,535.351563C1245.927979,535.35083,1246.03418,535.365112,1246.140625,535.378906L1246.28125,535.425781C1246.36377,535.465942,1246.441895,535.514526,1246.511719,535.574219L1246.578125,535.667969L1246.625,535.804688C1246.707642,536.288147,1246.713379,536.781799,1246.632813,537.265625C1246.492432,538.356445,1246.193481,539.421082,1245.746094,540.425781C1245.47229,541.060486,1245.260254,541.719971,1245.109375,542.394531C1245.102295,542.460815,1245.094971,542.527039,1245.097656,542.59375C1245.103271,542.638733,1245.109985,542.683533,1245.125,542.726563C1245.146362,542.751709,1245.165039,542.778809,1245.191406,542.800781L1245.238281,542.816406C1245.307495,542.802185,1245.376587,542.788391,1245.445313,542.769531C1245.508545,542.735596,1245.571167,542.700867,1245.632813,542.664063C1245.71228,542.61322,1245.788086,542.557007,1245.863281,542.5L1245.996094,542.398438C1246.399048,542.060669,1246.791992,541.710999,1247.175781,541.351563C1247.552124,541.009949,1247.988892,540.740845,1248.464844,540.5625L1248.753906,540.496094L1249.03125,540.484375C1249.314575,540.497681,1249.588501,540.592896,1249.816406,540.761719C1250.112793,540.965332,1250.365479,541.226501,1250.5625,541.527344C1251.060303,542.241882,1251.463379,543.017761,1251.761719,543.835938C1251.800049,543.985474,1251.819092,544.138794,1251.824219,544.292969L1251.808594,544.4375C1251.783081,544.591858,1251.736328,544.742371,1251.660156,544.878906C1251.365112,545.373535,1251.057495,545.860474,1250.738281,546.339844C1250.676147,546.459839,1250.610474,546.578125,1250.542969,546.695313L1250.5625,546.722656C1250.606567,546.750366,1250.650513,546.778198,1250.695313,546.804688C1251.073364,546.956177,1251.450806,547.108398,1251.828125,547.261719C1252.344971,547.533325,1252.813599,547.888367,1253.214844,548.3125L1253.378906,548.449219C1253.485596,548.525513,1253.596069,548.596558,1253.714844,548.652344C1254.073364,548.814148,1254.478027,548.837036,1254.855469,548.726563C1255.387695,548.556824,1255.888916,548.302368,1256.339844,547.972656C1256.59436,547.802673,1256.867432,547.662537,1257.152344,547.550781L1257.347656,547.488281C1257.456787,547.457825,1257.568115,547.43689,1257.679688,547.417969C1257.775757,547.422058,1257.871216,547.434753,1257.964844,547.457031L1258.09375,547.519531L1258.191406,547.621094C1258.231079,547.70459,1258.273682,547.786194,1258.300781,547.875C1258.331421,548.011536,1258.353516,548.149841,1258.367188,548.289063L1258.386719,548.46875C1258.405518,549.047363,1258.450562,549.624939,1258.523438,550.199219C1258.535645,550.381104,1258.604614,550.554016,1258.714844,550.699219C1258.762451,550.719727,1258.809204,550.741943,1258.859375,550.757813L1258.945313,550.738281C1259.065552,550.679993,1259.173218,550.600159,1259.269531,550.507813L1259.402344,550.375C1260.036621,549.608521,1260.719238,548.88324,1261.445313,548.203125L1261.558594,548.109375C1261.625488,548.06134,1261.691772,548.012329,1261.761719,547.96875L1261.851563,547.921875C1261.919434,547.883667,1261.99646,547.867432,1262.074219,547.863281L1262.1875,547.894531L1262.277344,547.980469C1262.332275,548.088196,1262.369385,548.203186,1262.398438,548.320313C1262.435547,548.813416,1262.462891,549.306641,1262.480469,549.800781L1262.519531,550.058594C1262.586548,550.48175,1262.778076,550.874207,1263.070313,551.1875C1263.209229,551.312134,1263.369141,551.411865,1263.546875,551.46875C1263.674194,551.508667,1263.805176,551.534363,1263.9375,551.550781L1264.152344,551.5625C1264.512695,551.54364,1264.872314,551.512756,1265.230469,551.46875C1265.183228,552.115051,1265.149902,552.762451,1265.128906,553.410156C1265.095703,554.12738,1265.211792,554.843689,1265.464844,555.515625C1265.586792,555.871094,1265.819702,556.178955,1266.132813,556.386719C1266.215576,556.429565,1266.299683,556.469666,1266.382813,556.511719L1266.46875,556.597656L1266.527344,556.71875L1266.566406,556.882813L1266.578125,556.984375C1266.584473,557.066345,1266.584351,557.148376,1266.585938,557.230469C1266.568481,557.671448,1266.537598,558.111816,1266.492188,558.550781C1266.461914,559.619995,1266.597778,560.687195,1266.894531,561.714844C1267.06604,562.282959,1267.183594,562.86615,1267.238281,563.457031C1267.242065,563.563843,1267.223755,563.668823,1267.203125,563.773438L1267.148438,563.894531L1267.074219,564C1266.960571,564.096375,1266.834961,564.177795,1266.695313,564.230469C1266.386963,564.313477,1266.081421,564.406494,1265.777344,564.503906C1265.67749,564.556519,1265.583618,564.619141,1265.5,564.695313L1265.460938,564.765625C1265.454834,564.812317,1265.448242,564.858826,1265.457031,564.90625C1265.772095,565.595093,1265.983032,566.327148,1266.082031,567.078125L1266.09375,567.441406L1266.070313,567.78125C1266.012207,568.233215,1265.836304,568.661255,1265.570313,569.03125C1265.129395,569.612549,1264.5979,570.118896,1263.996094,570.53125C1263.483887,570.93866,1262.916138,571.270447,1262.3125,571.523438C1262.021484,571.635071,1261.713623,571.691833,1261.402344,571.703125L1261.1875,571.691406L1260.972656,571.652344C1260.58252,571.544617,1260.209595,571.382202,1259.871094,571.160156C1259.671997,571.031494,1259.425293,570.999023,1259.199219,571.070313L1259.085938,571.113281C1258.998779,571.155212,1258.912598,571.199036,1258.824219,571.238281C1258.366821,571.514526,1257.902954,571.779785,1257.433594,572.035156C1256.373047,572.518127,1255.252319,572.855347,1254.101563,573.039063C1252.984009,573.226929,1251.851929,573.315491,1250.71875,573.304688C1250.359619,573.295105,1250.001099,573.339233,1249.652344,573.425781C1249.479492,573.470215,1249.313477,573.537537,1249.160156,573.628906C1249.03479,573.725281,1248.921753,573.836426,1248.824219,573.960938C1248.738647,574.115295,1248.67627,574.280518,1248.625,574.449219L1248.570313,574.757813C1248.531372,575.550781,1248.561035,576.345581,1248.664063,577.132813C1248.759766,577.940369,1248.78479,578.755005,1248.730469,579.566406C1248.704224,579.779236,1248.654297,579.98822,1248.585938,580.191406L1248.5,580.328125L1248.382813,580.429688C1248.328979,580.452698,1248.275146,580.475708,1248.21875,580.492188L1248.117188,580.515625C1247.750122,580.55719,1247.381104,580.578308,1247.011719,580.582031C1246.619629,580.617126,1246.234375,580.707581,1245.871094,580.859375C1245.502197,581.031372,1245.151489,581.239868,1244.820313,581.476563L1244.601563,581.601563C1244.113281,581.892395,1243.535767,581.999817,1242.976563,581.898438C1242.857056,581.872803,1242.741699,581.832092,1242.628906,581.785156C1242.348511,581.643127,1242.108154,581.435486,1241.910156,581.191406L1241.738281,581.03125C1240.893677,580.356689,1240.001953,579.74353,1239.070313,579.195313C1237.618408,578.289856,1236.118652,577.463379,1234.578125,576.71875C1234.283447,576.565857,1233.965942,576.460693,1233.636719,576.417969L1233.449219,576.429688L1233.285156,576.484375L1233.148438,576.582031L1233.027344,576.730469C1232.790283,577.191956,1232.619507,577.68396,1232.511719,578.191406C1232.251709,579.242615,1231.928223,580.277039,1231.542969,581.289063C1231.438599,581.602966,1231.252197,581.884644,1230.996094,582.09375C1230.90271,582.154419,1230.796387,582.188965,1230.6875,582.210938L1230.515625,582.210938C1230.381836,582.190063,1230.250488,582.156799,1230.121094,582.117188C1229.827271,581.97522,1229.517822,581.867554,1229.199219,581.796875C1229.150757,581.79303,1229.103516,581.783813,1229.054688,581.785156C1229.030273,581.805359,1229.008911,581.828552,1228.996094,581.859375C1228.672852,582.822998,1228.357178,583.785889,1228.046875,584.753906C1227.62146,586.005371,1227.088989,587.217957,1226.457031,588.378906C1227.26709,589.064331,1228.048828,589.782593,1228.800781,590.53125C1229.640015,590.130188,1230.468384,589.706909,1231.285156,589.261719C1232.395264,588.67926,1233.380859,587.885437,1234.1875,586.925781C1234.395752,586.629456,1234.616577,586.34198,1234.851563,586.066406L1234.980469,585.949219C1235.102417,585.864807,1235.252319,585.835815,1235.398438,585.859375L1235.578125,585.902344C1235.711426,585.950439,1235.844604,585.99884,1235.980469,586.039063C1236.850464,586.261902,1237.735718,586.421021,1238.628906,586.515625C1239.506592,586.611389,1240.372559,586.794006,1241.214844,587.058594C1241.325195,587.100586,1241.436035,587.140991,1241.542969,587.191406L1241.773438,587.316406L1241.953125,587.441406C1242.044434,587.521301,1242.125977,587.611389,1242.195313,587.710938L1242.265625,587.878906C1242.300293,588.025269,1242.321533,588.174255,1242.332031,588.324219C1242.342041,588.498657,1242.337891,588.673279,1242.328125,588.847656C1242.233276,589.549255,1242.018433,590.229614,1241.6875,590.855469L1241.035156,592.082031C1241.334839,592.221313,1241.626953,592.376404,1241.910156,592.546875C1242.466064,592.930847,1242.947266,593.41333,1243.332031,593.96875C1243.492065,594.153992,1243.674438,594.318237,1243.878906,594.453125C1243.926147,594.457397,1243.972778,594.455872,1244.019531,594.453125C1244.074219,594.419373,1244.125244,594.380249,1244.171875,594.335938L1244.25,594.234375C1244.303101,594.137207,1244.355347,594.039612,1244.398438,593.9375C1244.678345,593.160339,1244.87854,592.356689,1244.996094,591.539063C1245.164673,590.296753,1245.400879,589.064392,1245.703125,587.847656C1245.764404,587.530396,1245.910767,587.234619,1246.132813,587L1246.285156,586.910156L1246.378906,586.875C1246.554321,586.839905,1246.731323,586.813049,1246.910156,586.804688C1247.389771,586.809631,1247.869263,586.795227,1248.347656,586.761719L1248.664063,586.703125L1248.957031,586.601563C1249.492554,586.296448,1249.980103,585.914185,1250.410156,585.472656C1250.906738,584.996277,1251.44165,584.561218,1252.011719,584.175781C1252.035522,584.163391,1252.061035,584.157166,1252.085938,584.148438L1252.152344,584.167969L1252.234375,584.214844L1252.328125,584.292969L1252.433594,584.394531C1252.848877,584.834412,1253.178955,585.347229,1253.410156,585.90625C1253.425903,585.979004,1253.438843,586.052124,1253.453125,586.125C1253.455322,586.199829,1253.466675,586.273621,1253.476563,586.347656C1253.495117,586.392944,1253.514404,586.437866,1253.539063,586.480469C1253.570679,586.497925,1253.600586,586.517639,1253.636719,586.527344L1253.695313,586.519531L1253.757813,586.492188C1253.808716,586.457764,1253.855225,586.417969,1253.902344,586.378906C1254.095215,586.146362,1254.253174,585.886902,1254.363281,585.605469C1254.464111,585.33374,1254.615112,585.083496,1254.8125,584.871094L1254.941406,584.78125L1255.085938,584.722656C1255.199829,584.694397,1255.316528,584.683899,1255.433594,584.679688L1255.703125,584.6875C1256.59729,584.743652,1257.429321,585.162415,1258.015625,585.839844C1258.536743,586.410156,1259.001587,587.029358,1259.40625,587.6875C1259.853394,588.373779,1260.365356,589.015503,1260.933594,589.605469C1261.125488,589.757996,1261.294922,589.93689,1261.425781,590.144531C1261.539185,590.365234,1261.606934,590.605713,1261.640625,590.851563C1261.680908,591.286743,1261.722778,591.725159,1261.765625,592.160156C1261.795532,592.450134,1261.873047,592.733826,1262.007813,592.992188C1262.063965,593.077454,1262.131226,593.154297,1262.203125,593.226563C1262.283936,593.274658,1262.367432,593.318115,1262.457031,593.347656L1262.609375,593.367188C1262.966187,593.342712,1263.313843,593.24353,1263.628906,593.074219C1264.227051,592.765259,1264.784668,592.383484,1265.289063,591.9375C1266.004639,591.353027,1266.636475,590.672607,1267.164063,589.914063L1267.296875,589.691406C1267.369141,589.549072,1267.435791,589.403931,1267.5,589.257813C1267.567505,589.098267,1267.665527,588.953552,1267.789063,588.832031C1267.848022,588.786316,1267.917603,588.760254,1267.988281,588.738281C1268.066162,588.744629,1268.143066,588.758179,1268.21875,588.777344C1268.311768,588.80719,1268.404907,588.836548,1268.5,588.859375C1269.221191,589.016418,1269.954224,589.11261,1270.691406,589.148438L1270.949219,589.140625C1271.295044,589.126892,1271.617798,588.956421,1271.820313,588.675781L1271.960938,588.53125C1272.121948,588.377747,1272.314331,588.262878,1272.523438,588.1875C1272.619995,588.168335,1272.71814,588.162354,1272.816406,588.160156C1272.922974,588.17981,1273.028687,588.204285,1273.132813,588.234375L1273.304688,588.308594C1273.850098,588.65332,1274.344482,589.072327,1274.777344,589.550781C1275.116455,589.883545,1275.499023,590.168213,1275.910156,590.40625C1275.997437,590.454773,1276.092163,590.489014,1276.191406,590.5C1276.241089,590.504639,1276.290771,590.50946,1276.339844,590.519531L1276.402344,590.550781C1276.440918,590.584778,1276.471313,590.625183,1276.503906,590.664063C1276.606201,590.908752,1276.668335,591.168579,1276.679688,591.433594C1276.755981,592.425964,1276.81189,593.419434,1276.847656,594.414063C1276.898682,595.4599,1277.01001,596.501892,1277.179688,597.535156C1277.202026,597.643799,1277.227417,597.751709,1277.253906,597.859375C1277.329346,598.174255,1277.46875,598.469421,1277.660156,598.730469C1277.72644,598.786194,1277.798706,598.834045,1277.875,598.875L1278.011719,598.917969C1278.123901,598.947388,1278.239624,598.950378,1278.355469,598.949219L1278.570313,598.9375C1279.327148,598.829834,1280.080078,598.696838,1280.828125,598.539063C1281.116577,598.476257,1281.412476,598.457336,1281.707031,598.476563C1281.849854,598.489929,1281.984497,598.550903,1282.085938,598.652344C1282.11438,598.693298,1282.137573,598.737122,1282.160156,598.78125C1282.343872,599.463013,1282.455078,600.162292,1282.496094,600.867188C1282.583008,602.417847,1282.704224,603.966431,1282.859375,605.511719C1282.902588,605.933838,1282.96582,606.353821,1283.050781,606.769531L1283.054688,606.917969L1283.03125,607.027344L1282.972656,607.101563C1282.903931,607.13562,1282.82959,607.154175,1282.753906,607.164063C1282.45105,607.16803,1282.150879,607.112549,1281.871094,606.996094C1281.464233,606.846008,1281.073975,606.654541,1280.703125,606.429688C1280.457397,606.287231,1280.187744,606.19043,1279.90625,606.152344C1279.775879,606.132935,1279.648315,606.195557,1279.574219,606.304688L1279.511719,606.429688C1279.477173,606.549438,1279.459595,606.672852,1279.449219,606.796875C1279.470215,607.48468,1279.558472,608.168823,1279.710938,608.839844C1279.829834,609.413879,1279.881592,610.000183,1279.859375,610.585938C1279.850952,610.62616,1279.844238,610.666748,1279.835938,610.707031C1279.788818,610.775818,1279.73877,610.842041,1279.691406,610.910156L1279.566406,611.027344C1279.148438,611.367737,1278.689331,611.653992,1278.203125,611.886719L1277.828125,612.117188L1277.675781,612.222656L1277.546875,612.320313C1277.492676,612.366638,1277.446289,612.420288,1277.398438,612.472656L1277.363281,612.554688L1277.351563,612.65625L1277.367188,612.773438L1277.402344,612.902344C1277.445068,613.00647,1277.492065,613.108765,1277.546875,613.207031C1278.031494,613.940125,1278.609985,614.60675,1279.269531,615.1875C1279.94873,615.751343,1280.529907,616.4245,1280.980469,617.183594C1281.141235,617.483948,1281.266602,617.80188,1281.347656,618.132813L1281.386719,618.367188L1281.40625,618.59375C1281.393677,618.916138,1281.351318,619.236694,1281.277344,619.550781L1281.277344,619.617188L1281.289063,619.675781C1281.312256,619.705872,1281.338501,619.733032,1281.367188,619.757813C1281.508789,619.7948,1281.654541,619.812683,1281.800781,619.804688C1282.22229,619.785583,1282.643188,619.754395,1283.0625,619.707031L1284.945313,619.53125C1284.960449,619.992188,1284.954956,620.453552,1284.929688,620.914063C1284.904419,621.128235,1284.863403,621.340576,1284.789063,621.542969C1284.505127,622.251099,1284.138672,622.923279,1283.699219,623.546875C1283.061035,624.463379,1282.475586,625.415588,1281.945313,626.398438C1281.890381,626.547607,1281.823242,626.6922,1281.734375,626.824219L1281.664063,626.886719C1281.608276,626.916992,1281.552368,626.947144,1281.492188,626.96875C1281.324707,627.002319,1281.151367,626.99646,1280.988281,626.945313C1280.4552,626.782043,1279.940186,626.56488,1279.449219,626.300781C1279.179077,626.165283,1278.888794,626.075256,1278.589844,626.03125L1278.457031,626.042969L1278.351563,626.085938L1278.277344,626.160156C1278.247314,626.239868,1278.232422,626.322937,1278.21875,626.40625C1278.22876,626.536499,1278.25061,626.665222,1278.277344,626.792969C1278.396484,627.201843,1278.552734,627.598999,1278.742188,627.980469C1279.095459,628.731384,1279.340942,629.52832,1279.472656,630.347656C1279.516602,630.694519,1279.51123,631.045776,1279.453125,631.390625C1279.430298,631.435913,1279.408691,631.48175,1279.378906,631.523438C1279.318359,631.577209,1279.247437,631.616272,1279.171875,631.644531C1279.051514,631.669189,1278.931274,631.693481,1278.808594,631.703125C1278.448486,631.714294,1278.09021,631.762512,1277.742188,631.855469L1277.605469,631.898438L1277.488281,631.953125L1277.386719,632.015625L1277.300781,632.085938L1277.230469,632.164063L1277.179688,632.25C1277.160522,632.318237,1277.139771,632.385986,1277.117188,632.453125C1277.108398,632.533752,1277.110229,632.614563,1277.113281,632.695313C1277.173218,632.927124,1277.196167,633.166748,1277.191406,633.40625C1277.178955,633.749573,1277.095337,634.085815,1276.953125,634.398438L1276.867188,634.539063C1276.818237,634.634583,1276.737183,634.710388,1276.640625,634.757813L1276.503906,634.839844C1276.401367,634.881775,1276.2948,634.911255,1276.1875,634.9375C1275.989868,634.958496,1275.790771,634.961853,1275.59375,634.933594C1274.942139,634.805359,1274.314209,634.578247,1273.730469,634.261719C1273.585938,634.198059,1273.438843,634.140198,1273.289063,634.089844C1273.032715,633.979187,1272.740723,633.975037,1272.488281,634.09375L1272.363281,634.179688C1272.176392,634.365234,1272.027588,634.585266,1271.925781,634.828125C1271.742432,635.278625,1271.569458,635.733215,1271.40625,636.191406C1271.236938,636.614746,1271.018311,637.016968,1270.746094,637.382813L1270.648438,637.476563C1270.574463,637.539673,1270.490479,637.588257,1270.40625,637.636719C1269.824707,637.892456,1269.17041,637.923157,1268.566406,637.726563C1268.369751,637.624451,1268.162476,637.544617,1267.949219,637.484375L1267.886719,637.492188C1267.844116,637.506958,1267.806152,637.529358,1267.765625,637.546875C1267.695801,637.611755,1267.632202,637.683105,1267.578125,637.761719C1267.338623,638.185486,1267.125244,638.623535,1266.941406,639.074219C1266.77002,639.493591,1266.52832,639.880798,1266.226563,640.21875L1266.15625,640.25C1266.106079,640.233154,1266.057251,640.213196,1266.007813,640.195313L1265.90625,640.132813L1265.792969,640.046875C1265.476685,639.760315,1265.178955,639.453918,1264.902344,639.128906L1264.734375,638.960938C1264.642212,638.873047,1264.545532,638.789856,1264.4375,638.722656C1264.326538,638.654358,1264.200928,638.612305,1264.070313,638.613281C1263.993286,638.636108,1263.920288,638.669434,1263.851563,638.710938L1263.742188,638.808594C1263.658325,638.90271,1263.585815,639.006104,1263.519531,639.113281C1263.249023,639.610718,1262.986328,640.112061,1262.730469,640.617188C1262.472656,641.149048,1262.06189,641.592834,1261.546875,641.882813C1261.290405,642.010193,1261.025513,642.120117,1260.753906,642.210938L1259.84375,642.523438C1260.229248,643.058411,1260.591675,643.609619,1260.929688,644.175781C1261.200928,644.608582,1261.352173,645.106384,1261.355469,645.617188C1261.335083,645.79248,1261.293213,645.964905,1261.21875,646.125C1261.138794,646.296692,1261.027344,646.451111,1260.898438,646.589844C1260.734741,646.768799,1260.549194,646.925842,1260.351563,647.066406L1260.167969,647.160156C1260.017822,647.193542,1259.864624,647.208679,1259.710938,647.207031C1259.147339,647.13208,1258.588013,647.027527,1258.035156,646.894531C1256.968262,646.654358,1255.870605,646.57959,1254.78125,646.675781C1254.282593,646.743774,1253.794556,646.87561,1253.332031,647.074219C1253.054932,647.171204,1252.761353,647.214294,1252.46875,647.191406C1251.746582,647.127991,1251.029907,647.013367,1250.324219,646.847656C1249.134888,646.627625,1247.967773,646.301453,1246.835938,645.875C1246.06311,645.588074,1245.354492,645.150818,1244.757813,644.582031C1244.373779,644.17041,1244.051514,643.7052,1243.804688,643.199219C1243.547119,642.718567,1243.111206,642.35968,1242.59375,642.1875C1241.805054,641.944824,1240.993408,641.784546,1240.171875,641.707031C1239.244385,641.6073,1238.31958,641.483215,1237.398438,641.335938C1237.023682,641.27478,1236.655151,641.17926,1236.300781,641.042969C1236.250122,641.0177,1236.200195,640.991394,1236.152344,640.960938C1236.07959,640.884521,1236.001343,640.813599,1235.914063,640.753906C1235.785034,640.720337,1235.652954,640.702942,1235.519531,640.703125C1235.392578,640.716858,1235.266479,640.736267,1235.140625,640.757813C1234.724121,640.851379,1234.308472,640.949951,1233.894531,641.054688C1233.066528,641.219543,1232.214355,641.213135,1231.386719,641.046875C1230.589111,640.927063,1229.800781,640.752014,1229.027344,640.523438C1228.964722,640.492493,1228.901489,640.462952,1228.839844,640.429688C1228.78186,640.373901,1228.727417,640.315308,1228.671875,640.257813L1228.613281,640.101563C1228.59082,639.875488,1228.574219,639.648987,1228.566406,639.421875C1228.5177,639.083679,1228.360229,638.77124,1228.128906,638.519531C1227.674072,638.021606,1227.195557,637.546021,1226.695313,637.09375C1226.413574,636.842651,1226.188599,636.533936,1226.039063,636.1875C1225.955078,635.902405,1225.919067,635.605408,1225.933594,635.308594C1225.934448,635.10907,1225.924072,634.909668,1225.90625,634.710938L1225.859375,634.492188C1225.812256,634.367249,1225.752808,634.247253,1225.671875,634.140625C1225.296875,633.780273,1224.851318,633.502625,1224.367188,633.3125C1223.905151,633.109436,1223.430054,632.937378,1222.945313,632.796875L1221.695313,632.464844C1220.90979,633.198303,1220.147583,633.956482,1219.410156,634.738281C1218.960815,635.233032,1218.550659,635.761902,1218.183594,636.320313C1218.015503,636.621521,1217.851807,636.925049,1217.691406,637.230469C1217.491211,637.564941,1217.201294,637.835876,1216.855469,638.015625L1216.648438,638.101563C1215.016724,638.659851,1213.252197,638.7052,1211.597656,638.21875C1211.358643,638.155151,1211.116943,638.101257,1210.871094,638.074219C1210.761353,638.061462,1210.650269,638.071045,1210.542969,638.097656L1210.417969,638.148438L1210.320313,638.238281C1210.26355,638.326782,1210.212891,638.419189,1210.179688,638.519531L1210.132813,638.71875C1210.032593,639.799683,1210.028687,640.887085,1210.121094,641.96875C1210.139038,642.03833,1210.1604,642.106689,1210.179688,642.175781C1210.206665,642.22345,1210.238647,642.267517,1210.269531,642.3125L1210.328125,642.363281C1210.429688,642.418091,1210.537964,642.460144,1210.652344,642.476563C1211.712158,642.663574,1212.756958,642.927856,1213.777344,643.269531C1213.909302,643.319885,1214.039429,643.375183,1214.164063,643.441406C1214.559082,643.673523,1214.927246,643.948486,1215.261719,644.261719C1215.349731,644.325562,1215.440918,644.384827,1215.53125,644.445313L1215.679688,644.503906L1215.820313,644.523438L1215.957031,644.496094L1216.101563,644.429688C1216.238892,644.345459,1216.37854,644.26532,1216.519531,644.1875L1216.800781,644.074219C1216.914673,644.038574,1217.031738,644.017334,1217.148438,643.992188L1217.351563,643.960938C1218.513428,643.871765,1219.679565,643.853943,1220.84375,643.90625L1223.300781,643.953125C1223.632568,644.520508,1223.991089,645.071899,1224.375,645.605469C1224.837769,646.232849,1225.343506,646.827515,1225.890625,647.382813C1226.492432,648.067871,1226.991211,648.836914,1227.375,649.664063L1227.554688,649.964844C1227.912354,650.462646,1228.384644,650.867859,1228.933594,651.140625C1229.453735,651.409302,1229.964111,651.696533,1230.464844,652L1230.59375,652.09375C1230.6604,652.145264,1230.718018,652.206177,1230.777344,652.265625C1230.819458,652.320374,1230.849487,652.381592,1230.882813,652.441406L1230.90625,652.535156C1230.918213,652.694214,1230.915405,652.853943,1230.890625,653.011719C1230.873047,653.135193,1230.855957,653.258667,1230.84375,653.382813C1230.797852,654.318176,1230.918945,655.253662,1231.195313,656.148438C1231.407471,656.69989,1231.733643,657.200256,1232.15625,657.613281C1232.571655,657.99115,1232.959351,658.398499,1233.316406,658.832031C1233.409424,658.965027,1233.481323,659.111206,1233.53125,659.265625C1233.611572,659.773621,1233.519775,660.294617,1233.273438,660.746094C1233.000488,661.341248,1232.651245,661.898193,1232.238281,662.40625C1231.928345,662.806885,1231.684082,663.25415,1231.511719,663.730469L1231.492188,663.855469C1231.588623,664.34967,1231.787842,664.817566,1232.070313,665.234375C1232.472168,665.951965,1232.974487,666.608521,1233.5625,667.183594C1233.709595,667.306641,1233.879639,667.39917,1234.0625,667.457031L1234.25,667.582031C1234.358032,667.681763,1234.441895,667.802734,1234.515625,667.929688L1234.59375,668.148438C1234.673462,668.520569,1234.666992,668.906433,1234.566406,669.273438C1234.343384,670.095032,1233.982178,670.87262,1233.5,671.574219C1233.119507,672.107117,1232.762817,672.656677,1232.433594,673.222656C1232.168823,673.67157,1232.026001,674.182007,1232.019531,674.703125L1232.019531,675.707031C1230.479004,675.693604,1228.939087,675.69751,1227.398438,675.71875C1226.808105,675.714966,1226.218384,675.761902,1225.636719,675.863281C1225.462646,675.904785,1225.292847,675.96283,1225.132813,676.042969L1224.957031,676.167969L1224.824219,676.320313C1224.70874,676.515015,1224.650513,676.738708,1224.660156,676.964844C1224.682495,677.47406,1224.724243,677.982178,1224.785156,678.488281L1224.792969,678.714844C1224.819702,678.967651,1224.76416,679.223816,1224.632813,679.441406C1224.518799,679.609497,1224.37915,679.757568,1224.222656,679.886719C1223.622559,680.301941,1222.985474,680.660767,1222.320313,680.960938C1221.509644,681.341125,1220.772827,681.861938,1220.140625,682.496094C1219.993774,682.643616,1219.859863,682.803833,1219.75,682.980469C1219.63147,683.155518,1219.539185,683.346436,1219.460938,683.542969C1219.417969,683.568909,1219.37915,683.600891,1219.335938,683.628906L1219.253906,683.636719C1219.193115,683.626099,1219.133057,683.612183,1219.074219,683.59375C1219.004761,683.561279,1218.940186,683.520386,1218.875,683.480469L1218.679688,683.308594C1218.473755,683.101929,1218.322388,682.846069,1218.253906,682.5625C1218.21228,682.419556,1218.159302,682.280334,1218.089844,682.148438C1218.043945,682.096619,1217.994751,682.048096,1217.941406,682.003906L1217.855469,681.96875L1217.761719,681.960938C1217.688599,681.972168,1217.619995,681.998291,1217.550781,682.023438C1217.472656,682.079956,1217.392944,682.134216,1217.3125,682.1875C1217.217163,682.270386,1217.130981,682.362732,1217.046875,682.457031C1216.815186,682.736816,1216.598755,683.028931,1216.398438,683.332031C1216.198975,683.626892,1215.93335,683.872192,1215.621094,684.042969C1215.503296,684.093994,1215.379395,684.126953,1215.253906,684.152344L1215.074219,684.144531L1214.898438,684.097656C1214.623169,683.964172,1214.389648,683.757385,1214.230469,683.496094C1214.014893,683.147278,1213.827271,682.781799,1213.671875,682.402344L1213.566406,682.222656L1213.453125,682.074219C1213.371704,681.999329,1213.285034,681.930359,1213.191406,681.871094C1213.095703,681.833496,1212.99707,681.803772,1212.894531,681.792969L1212.730469,681.800781L1212.554688,681.839844C1212.1604,681.980347,1211.80249,682.206726,1211.503906,682.5C1211.089355,682.915283,1210.665039,683.320557,1210.230469,683.714844L1210.074219,683.835938C1209.937866,683.930725,1209.792969,684.012024,1209.640625,684.078125C1209.549438,684.103638,1209.456787,684.122253,1209.363281,684.136719C1209.154053,684.148254,1208.943726,684.124268,1208.746094,684.054688C1208.33667,683.952881,1207.965088,683.736694,1207.679688,683.425781C1207.348267,683.025574,1207.109497,682.555969,1206.988281,682.050781C1206.848755,681.521545,1206.734375,680.98584,1206.648438,680.445313C1206.587769,680.211731,1206.502441,679.984924,1206.378906,679.777344L1206.308594,679.703125L1206.242188,679.675781L1206.152344,679.695313L1206.007813,679.75C1205.377808,680.053467,1204.768188,680.397522,1204.183594,680.78125C1203.673584,681.098389,1203.12085,681.340393,1202.542969,681.503906C1202.325928,681.547791,1202.102173,681.52417,1201.898438,681.4375C1201.856567,681.380005,1201.824707,681.316711,1201.800781,681.25C1201.787231,681.134399,1201.772095,681.019165,1201.773438,680.902344C1201.813477,680.314697,1201.834106,679.725769,1201.835938,679.136719L1201.824219,679.011719C1201.808716,678.940857,1201.797607,678.869568,1201.773438,678.800781L1201.679688,678.640625L1201.542969,678.503906C1200.999878,678.131042,1200.373047,677.900513,1199.71875,677.824219L1199.609375,677.824219C1199.526001,677.813782,1199.445435,677.791504,1199.367188,677.761719L1199.316406,677.714844L1199.28125,677.644531L1199.261719,677.550781C1199.254761,677.461975,1199.261719,677.373779,1199.265625,677.285156C1199.410522,676.459229,1199.599487,675.641602,1199.832031,674.835938C1199.90979,674.56842,1199.943359,674.290466,1199.949219,674.011719L1199.9375,673.878906L1199.914063,673.777344L1199.871094,673.707031L1199.816406,673.667969L1199.75,673.65625C1199.684814,673.669617,1199.622803,673.69519,1199.566406,673.730469L1199.453125,673.8125C1199.361206,673.89624,1199.274536,673.985413,1199.1875,674.074219C1198.195557,675.264709,1197.209961,676.440369,1196.210938,677.625C1195.612915,677.559082,1195.013306,677.499084,1194.414063,677.445313C1193.714966,677.38269,1193.012207,677.509949,1192.378906,677.8125C1191.794312,678.139221,1191.315552,678.624878,1190.984375,679.207031L1190.863281,679.359375C1190.802856,679.42804,1190.725464,679.478271,1190.640625,679.511719C1190.546997,679.512268,1190.453735,679.501404,1190.363281,679.476563C1190.299561,679.448914,1190.235718,679.421753,1190.171875,679.394531C1189.671997,679.108765,1189.116577,678.933899,1188.542969,678.882813C1188.320435,678.895813,1188.101563,678.947388,1187.898438,679.039063C1187.227051,679.31665,1186.61377,679.719116,1186.101563,680.234375L1185.988281,680.367188L1185.894531,680.496094L1185.792969,680.710938C1185.744873,680.864197,1185.725098,681.02356,1185.71875,681.183594L1185.746094,681.441406L1185.820313,681.710938C1186.044067,682.268921,1186.377197,682.77655,1186.800781,683.203125C1187.59668,684.004517,1188.485107,684.708374,1189.449219,685.296875C1189.964722,685.596191,1190.432373,685.971741,1190.832031,686.414063C1190.877441,686.486206,1190.921143,686.559448,1190.949219,686.640625C1190.963867,686.723755,1190.94397,686.806458,1190.902344,686.878906L1190.851563,686.949219C1190.350952,687.487854,1189.779419,687.955872,1189.152344,688.339844C1188.341064,688.856628,1187.578369,689.44574,1186.871094,690.097656C1186.669922,690.309265,1186.465576,690.517578,1186.257813,690.722656L1186.089844,690.855469C1185.99231,690.90448,1185.888184,690.936707,1185.78125,690.957031L1185.609375,690.9375C1185.351685,690.850403,1185.095459,690.760742,1184.839844,690.667969C1184.742798,690.643311,1184.645142,690.621094,1184.546875,690.601563C1184.389526,690.58252,1184.230591,690.58783,1184.074219,690.613281L1183.898438,690.683594L1183.761719,690.796875C1183.598633,691.039917,1183.550537,691.339417,1183.613281,691.625C1183.758667,692.227539,1184.015259,692.797241,1184.371094,693.304688C1184.723267,693.764709,1185.051025,694.243042,1185.351563,694.738281L1185.464844,694.945313C1185.553101,695.11261,1185.616821,695.291626,1185.65625,695.476563C1185.663696,695.570129,1185.668823,695.663818,1185.664063,695.757813L1185.628906,695.882813L1185.574219,695.996094C1185.489258,696.109619,1185.389404,696.210999,1185.273438,696.292969L1185.128906,696.378906L1184.949219,696.457031C1184.820068,696.492676,1184.688354,696.517639,1184.554688,696.527344C1184.109741,696.492493,1183.672119,696.394226,1183.253906,696.238281C1182.664673,696.01825,1182.063354,695.832092,1181.453125,695.679688C1181.313721,695.65625,1181.172485,695.649292,1181.03125,695.652344C1180.868774,695.669617,1180.721558,695.748901,1180.609375,695.867188L1180.511719,696.011719C1180.3396,696.463257,1180.23938,696.939087,1180.21875,697.421875C1180.182251,698.150391,1180.083984,698.874756,1179.921875,699.585938C1179.89209,699.694153,1179.846802,699.796448,1179.800781,699.898438L1179.726563,700.011719L1179.644531,700.105469L1179.550781,700.171875C1179.476685,700.200806,1179.402588,700.229736,1179.328125,700.257813C1178.974976,700.279907,1178.620728,700.269531,1178.269531,700.226563C1177.591553,700.194641,1176.915039,700.135742,1176.242188,700.046875L1176.015625,699.996094L1175.84375,699.921875L1175.714844,699.824219C1175.64856,699.73175,1175.591553,699.632629,1175.558594,699.523438C1175.470215,699.069336,1175.352783,698.621338,1175.203125,698.183594L1175.140625,698.113281L1175.050781,698.054688C1174.973877,698.021362,1174.894043,697.995789,1174.8125,697.976563C1174.584595,697.941284,1174.352295,697.944824,1174.125,697.984375L1173.917969,698.015625C1173.434448,698.108459,1172.964722,698.262512,1172.519531,698.472656C1172.068848,698.686279,1171.600098,698.85968,1171.117188,698.984375L1171.027344,698.996094C1170.99939,698.98584,1170.971558,698.975281,1170.945313,698.960938C1170.875,698.88208,1170.814575,698.795837,1170.757813,698.707031L1170.652344,698.5C1170.433716,697.991516,1170.255371,697.466614,1170.121094,696.929688C1170.007324,696.477051,1169.835693,696.041016,1169.609375,695.632813C1169.581543,695.604919,1169.553955,695.57666,1169.519531,695.554688C1169.223755,695.628601,1168.938232,695.738037,1168.667969,695.878906C1168.246582,696.101501,1167.811768,696.297241,1167.367188,696.46875L1167.128906,696.539063L1166.910156,696.585938L1166.714844,696.597656C1166.604614,696.590698,1166.49707,696.567139,1166.390625,696.539063C1166.301392,696.492981,1166.224243,696.428894,1166.152344,696.359375L1166.0625,696.222656C1166.007324,696.106201,1165.967041,695.983704,1165.933594,695.859375C1165.870361,695.414307,1165.842407,694.965088,1165.847656,694.515625C1165.850952,694.203369,1165.786621,693.893188,1165.648438,693.613281L1165.570313,693.503906L1165.476563,693.414063L1165.363281,693.339844L1165.230469,693.28125C1164.904419,693.201904,1164.569824,693.164856,1164.234375,693.171875C1162.862305,693.187744,1161.540283,692.654175,1160.5625,691.691406C1160.400024,691.531006,1160.220459,691.389404,1160.03125,691.261719C1159.948364,691.231445,1159.861084,691.220154,1159.773438,691.21875C1159.673218,691.254272,1159.575073,691.295654,1159.484375,691.351563L1159.296875,691.476563C1159.184814,691.556885,1159.088623,691.656738,1159.003906,691.765625C1158.571533,692.310425,1158.199707,692.900391,1157.890625,693.523438C1157.548584,694.255615,1157.141113,694.955383,1156.671875,695.613281C1156.595093,695.695435,1156.519043,695.778259,1156.433594,695.851563L1156.332031,695.910156L1156.234375,695.925781L1156.121094,695.898438L1155.984375,695.828125L1155.820313,695.710938C1155.56958,695.486572,1155.281616,695.307495,1154.96875,695.183594C1154.910034,695.166626,1154.849731,695.157776,1154.789063,695.152344C1154.746216,695.169006,1154.706421,695.191956,1154.671875,695.222656C1154.281982,695.750793,1153.937134,696.310791,1153.636719,696.894531C1153.439209,697.251221,1153.181274,697.571289,1152.871094,697.835938L1152.746094,697.910156L1152.644531,697.9375L1152.492188,697.917969C1152.359497,697.888672,1152.231323,697.843811,1152.105469,697.792969C1151.455444,697.485352,1150.847656,697.095215,1150.296875,696.632813C1149.75708,696.213745,1149.266357,695.735291,1148.828125,695.210938L1147.839844,694.003906C1148.287354,692.947388,1148.700439,691.876465,1149.078125,690.792969C1149.131226,690.652466,1149.173218,690.507813,1149.195313,690.359375L1149.167969,690.304688L1149.089844,690.265625L1148.960938,690.242188C1148.505859,690.230652,1148.050903,690.273376,1147.605469,690.367188C1147.132202,690.461121,1146.650269,690.504761,1146.167969,690.492188L1145.992188,690.464844C1145.857788,690.430298,1145.73584,690.358154,1145.648438,690.25L1145.589844,690.128906L1145.558594,689.984375L1145.554688,689.808594C1145.61145,689.34729,1145.712158,688.892639,1145.851563,688.449219C1145.915039,688.210571,1145.952026,687.965698,1145.957031,687.71875C1145.940552,687.607483,1145.911499,687.498352,1145.859375,687.398438L1145.757813,687.246094L1145.617188,687.082031C1145.283691,686.762634,1144.844482,686.578613,1144.382813,686.566406C1144.002197,686.5755,1143.621826,686.539063,1143.25,686.457031C1143.18103,686.4328,1143.113159,686.405945,1143.046875,686.375C1143.0271,686.349426,1143.004395,686.326477,1142.988281,686.296875C1142.982666,686.257874,1142.982544,686.218811,1142.980469,686.179688C1142.987915,686.083008,1142.99939,685.986755,1143.011719,685.890625C1143.127441,685.213501,1143.286011,684.544434,1143.484375,683.886719C1143.723755,682.952271,1143.86438,681.995117,1143.902344,681.03125L1143.902344,679.609375C1143.061401,679.768311,1142.215942,679.901917,1141.367188,680.011719C1141.113647,680.047424,1140.855957,680.029846,1140.609375,679.960938C1140.525879,679.919617,1140.454468,679.860291,1140.386719,679.796875L1140.300781,679.671875C1140.141113,679.319885,1140.019165,678.952026,1139.9375,678.574219C1139.825928,678.059265,1139.659058,677.557983,1139.441406,677.078125L1139.375,676.980469L1139.304688,676.910156L1139.230469,676.855469L1139.152344,676.824219C1139.091187,676.821472,1139.030029,676.816223,1138.96875,676.8125C1138.85022,676.841431,1138.732056,676.87146,1138.613281,676.898438C1138.000854,677.138916,1137.454224,677.522217,1137.023438,678.019531C1136.34436,678.761292,1135.803955,679.618958,1135.425781,680.550781C1135.276855,680.896301,1135.079346,681.219543,1134.824219,681.496094L1134.730469,681.5625C1134.669434,681.592896,1134.605469,681.61676,1134.539063,681.632813C1134.466064,681.634949,1134.393066,681.634338,1134.320313,681.628906C1133.991943,681.518799,1133.661133,681.415588,1133.328125,681.320313C1133.261597,681.318665,1133.195313,681.319763,1133.128906,681.320313C1133.038574,681.353943,1132.955688,681.404846,1132.890625,681.476563C1132.840332,681.547791,1132.795166,681.622437,1132.753906,681.699219C1132.60498,682.056396,1132.476929,682.421875,1132.367188,682.792969L1131.882813,684.324219C1130.493652,684.336548,1129.104004,684.335327,1127.714844,684.320313C1127.280884,684.335999,1126.846436,684.302002,1126.421875,684.210938C1126.367798,684.183044,1126.31543,684.152283,1126.265625,684.117188C1126.228271,684.050659,1126.198486,683.980408,1126.179688,683.90625C1126.194092,683.550293,1126.141724,683.195374,1126.035156,682.855469C1125.99707,682.766724,1125.960449,682.677734,1125.90625,682.597656C1125.851929,682.525024,1125.796143,682.45343,1125.734375,682.386719C1125.677856,682.318542,1125.608398,682.261414,1125.527344,682.226563C1125.446899,682.187683,1125.364258,682.153931,1125.28125,682.121094L1125.140625,682.085938C1124.899902,682.075623,1124.65979,682.053223,1124.421875,682.015625L1124.320313,681.980469C1124.268677,681.946106,1124.218872,681.909851,1124.167969,681.875L1124.117188,681.796875L1124.082031,681.707031L1124.0625,681.601563C1124.060791,681.45575,1124.072144,681.310059,1124.105469,681.167969C1124.216553,680.748535,1124.345215,680.333984,1124.492188,679.925781C1124.529419,679.793091,1124.553955,679.657104,1124.5625,679.519531L1124.558594,679.425781L1124.535156,679.355469L1124.492188,679.300781C1124.427124,679.254333,1124.34668,679.232239,1124.269531,679.253906C1124.190674,679.270935,1124.11145,679.285217,1124.035156,679.3125C1123.929688,679.353638,1123.825806,679.39856,1123.722656,679.445313C1123.084351,679.732422,1122.555298,680.218689,1122.210938,680.828125C1121.774658,681.606812,1121.476318,682.455078,1121.332031,683.335938C1121.2771,683.628052,1121.169067,683.90802,1121.011719,684.160156C1120.949951,684.234802,1120.884399,684.306274,1120.808594,684.367188C1120.728516,684.401978,1120.644775,684.42688,1120.558594,684.441406L1120.417969,684.429688L1120.261719,684.386719C1119.882935,684.214111,1119.536255,683.978088,1119.234375,683.691406C1118.852173,683.354065,1118.435181,683.057922,1117.988281,682.8125C1117.906616,682.776611,1117.824341,682.741699,1117.742188,682.707031L1117.640625,682.640625L1117.566406,682.5625C1117.523682,682.501709,1117.505371,682.429138,1117.496094,682.355469L1117.492188,682.21875L1117.515625,682.054688C1117.700317,681.402832,1117.829712,680.736511,1117.898438,680.0625L1117.886719,679.84375L1117.839844,679.664063C1117.785278,679.566162,1117.716064,679.4776,1117.632813,679.402344C1117.51062,679.341736,1117.384766,679.288879,1117.253906,679.25C1116.640259,679.167725,1116.02124,679.135986,1115.402344,679.152344C1114.830078,679.170166,1114.25769,679.12323,1113.695313,679.015625C1113.580688,678.990601,1113.472778,678.945007,1113.367188,678.894531C1113.333252,678.85437,1113.297119,678.816223,1113.265625,678.773438C1113.245972,678.68988,1113.223877,678.606934,1113.203125,678.523438C1113.090576,677.578613,1113.045288,676.626953,1113.070313,675.675781C1113.086426,675.292297,1113.061768,674.907959,1112.988281,674.53125C1112.963013,674.482727,1112.937866,674.434082,1112.910156,674.386719C1112.872314,674.360474,1112.831909,674.339661,1112.792969,674.316406C1112.665527,674.302246,1112.537476,674.307678,1112.410156,674.320313C1112.286743,674.349365,1112.167236,674.391724,1112.050781,674.441406C1111.593018,674.703064,1111.182861,675.039978,1110.832031,675.433594C1110.498413,675.818726,1110.146973,676.188171,1109.78125,676.542969L1109.65625,676.648438C1109.535278,676.771545,1109.384888,676.861694,1109.222656,676.921875L1109.019531,676.984375L1108.804688,677.003906C1108.46228,676.982178,1108.120728,676.947998,1107.78125,676.898438C1107.840332,675.770325,1107.878296,674.641296,1107.894531,673.511719C1107.910156,673.135864,1107.871948,672.759644,1107.78125,672.394531L1107.746094,672.300781C1107.651611,672.139343,1107.53064,671.995178,1107.390625,671.871094C1107.312866,671.751709,1107.275269,671.610352,1107.292969,671.46875C1107.316528,671.372559,1107.340454,671.27655,1107.375,671.183594C1107.612183,670.661987,1107.903931,670.166687,1108.246094,669.707031C1108.705566,669.064209,1109.138916,668.403137,1109.546875,667.726563C1109.710205,667.445374,1109.840698,667.146423,1109.9375,666.835938L1109.980469,666.59375L1109.980469,666.375L1109.9375,666.179688L1109.847656,666C1109.767334,665.874756,1109.661621,665.768005,1109.539063,665.683594C1109.107544,665.414856,1108.644897,665.199707,1108.160156,665.046875C1108.052124,664.996704,1107.951904,664.931213,1107.863281,664.851563L1107.769531,664.71875L1107.707031,664.550781C1107.630737,664.021362,1107.621094,663.484375,1107.683594,662.953125C1107.855103,661.025513,1108.220093,659.120056,1108.773438,657.265625C1108.935059,656.72876,1109.16626,656.215271,1109.460938,655.738281L1109.59375,655.570313C1109.680664,655.490234,1109.779663,655.423889,1109.890625,655.382813C1110.295532,655.30896,1110.711914,655.349976,1111.09375,655.503906C1111.192017,655.546936,1111.289429,655.591553,1111.382813,655.644531C1111.600464,655.81665,1111.8396,655.96051,1112.097656,656.0625L1112.226563,656.101563L1112.347656,656.113281C1112.421021,656.10791,1112.494263,656.101501,1112.566406,656.085938C1112.634766,656.055847,1112.695801,656.013672,1112.757813,655.972656C1112.815308,655.909912,1112.871582,655.84613,1112.921875,655.777344L1112.996094,655.648438C1113.147583,655.298706,1113.256836,654.932312,1113.332031,654.558594C1113.769165,652.973877,1114.061035,651.3526,1114.203125,649.714844C1114.232788,649.188049,1114.245361,648.660461,1114.242188,648.132813L1114.21875,645.671875C1113.996094,646.297913,1113.760742,646.919128,1113.511719,647.535156C1113.434814,647.727905,1113.344482,647.914978,1113.246094,648.097656C1113.171509,648.234192,1113.083618,648.362549,1112.992188,648.488281C1112.921997,648.561768,1112.847656,648.631104,1112.765625,648.691406C1112.696899,648.710144,1112.625488,648.717041,1112.554688,648.707031L1112.441406,648.679688C1112.140747,648.555603,1111.865845,648.375,1111.644531,648.136719C1111.179321,647.677185,1110.772705,647.162109,1110.429688,646.605469C1110.189941,646.199707,1109.910278,645.818481,1109.585938,645.476563L1109.519531,645.421875L1109.453125,645.410156C1109.383057,645.438171,1109.317261,645.475037,1109.253906,645.515625L1109.132813,645.625C1109.032715,645.720703,1108.942139,645.825562,1108.855469,645.933594C1108.610596,646.315369,1108.345337,646.683777,1108.058594,647.035156C1107.9646,647.119629,1107.869385,647.202698,1107.761719,647.269531C1107.671509,647.324707,1107.56665,647.345764,1107.460938,647.351563L1107.304688,647.34375L1107.148438,647.3125L1107.019531,647.261719L1106.910156,647.1875L1106.824219,647.085938C1106.783325,646.986938,1106.744995,646.887268,1106.703125,646.789063C1106.64978,646.433594,1106.59375,646.077332,1106.535156,645.722656C1106.496826,645.568665,1106.439087,645.420654,1106.371094,645.277344L1106.265625,645.121094C1106.188477,645.046143,1106.103516,644.979675,1106.007813,644.929688L1105.851563,644.898438L1105.683594,644.90625L1105.496094,644.960938C1105.044312,645.174011,1104.644897,645.483032,1104.316406,645.859375C1103.842773,646.423401,1103.316162,646.940735,1102.742188,647.402344C1102.42749,647.644226,1102.061401,647.810425,1101.671875,647.886719C1101.496582,647.916992,1101.318359,647.922119,1101.140625,647.914063C1101.083862,647.908203,1101.02771,647.898193,1100.972656,647.882813C1100.932373,647.844971,1100.890991,647.808533,1100.859375,647.761719C1100.829102,647.681396,1100.802002,647.599976,1100.785156,647.515625L1100.761719,647.324219C1100.733887,646.167908,1100.737549,645.011475,1100.773438,643.855469C1100.804688,643.163025,1100.77771,642.468994,1100.691406,641.78125C1100.646484,641.396545,1100.443848,641.047119,1100.132813,640.816406L1099.902344,640.664063C1099.667725,640.551086,1099.40686,640.502441,1099.148438,640.535156L1098.882813,640.597656C1098.454346,640.751526,1098.071533,641.010132,1097.761719,641.34375C1097.196411,641.938293,1096.717773,642.60968,1096.34375,643.339844C1095.938599,644.204285,1095.474365,645.040039,1094.953125,645.839844C1094.697144,646.249207,1094.376221,646.614441,1094.003906,646.921875L1093.902344,646.988281C1093.841187,647.021179,1093.780029,647.053833,1093.714844,647.078125L1093.628906,647.101563C1093.576782,647.102295,1093.524658,647.100037,1093.472656,647.097656L1093.40625,647.070313L1093.34375,647.027344C1093.305298,646.984375,1093.269409,646.939331,1093.238281,646.890625C1093.210205,646.82373,1093.181885,646.756897,1093.160156,646.6875C1093.138428,646.59729,1093.122681,646.505859,1093.109375,646.414063C1093.108398,646.068115,1093.086914,645.722534,1093.046875,645.378906C1093.032593,645.309753,1093.011597,645.242371,1092.988281,645.175781C1092.958862,645.138855,1092.927368,645.104004,1092.894531,645.070313L1092.835938,645.050781L1092.769531,645.054688C1092.71582,645.079956,1092.661743,645.104309,1092.609375,645.132813C1092.543335,645.189514,1092.475342,645.243896,1092.40625,645.296875C1091.506958,646.23645,1090.437378,646.99585,1089.253906,647.535156C1089.143921,647.578491,1089.033569,647.620361,1088.917969,647.644531C1088.827148,647.656433,1088.735596,647.656982,1088.644531,647.648438L1088.53125,647.617188L1088.449219,647.542969C1088.390625,647.452393,1088.37085,647.342163,1088.382813,647.234375L1088.386719,647.117188C1088.446289,646.471985,1088.511108,645.827637,1088.582031,645.183594L1088.582031,645.066406L1088.574219,644.976563L1088.558594,644.90625L1088.535156,644.851563L1088.496094,644.820313L1088.453125,644.800781L1088.394531,644.796875C1088.22168,644.822937,1088.051514,644.864563,1087.890625,644.933594C1087.423584,645.157227,1086.990723,645.446472,1086.609375,645.796875C1086.205322,646.190857,1085.734619,646.510681,1085.214844,646.730469C1085.157593,646.740723,1085.100708,646.75293,1085.042969,646.761719C1085.003906,646.755981,1084.966309,646.744568,1084.929688,646.730469L1084.902344,646.6875C1084.89917,646.571594,1084.898071,646.45575,1084.898438,646.339844C1085.048218,643.765198,1085.314209,641.199097,1085.695313,638.648438C1085.806519,638.301575,1085.857788,637.938293,1085.847656,637.574219C1085.834106,637.494385,1085.814697,637.415588,1085.777344,637.34375C1085.731079,637.297668,1085.685303,637.25116,1085.636719,637.207031L1085.535156,637.175781C1085.450684,637.169617,1085.365967,637.166443,1085.28125,637.171875C1085.022217,637.225891,1084.772949,637.317566,1084.535156,637.433594C1084.032471,637.675537,1083.489624,637.82251,1082.933594,637.867188C1082.814819,637.86084,1082.696045,637.856262,1082.578125,637.839844L1082.457031,637.796875L1082.371094,637.726563C1082.323486,637.654846,1082.292725,637.574646,1082.269531,637.492188C1082.258545,637.31366,1082.248779,637.135193,1082.234375,636.957031C1082.168335,636.623291,1082.025146,636.309448,1081.808594,636.046875C1081.357056,635.501526,1080.803833,635.049255,1080.179688,634.714844L1080.046875,634.625L1079.957031,634.515625C1079.938721,634.465942,1079.925049,634.414978,1079.914063,634.363281C1079.912598,634.244019,1079.916626,634.124695,1079.941406,634.007813C1080.56604,631.591553,1081.603027,629.301086,1083.007813,627.238281C1083.229004,626.917969,1083.406494,626.569214,1083.527344,626.199219C1083.521851,626.15271,1083.519653,626.105774,1083.515625,626.058594L1083.476563,626.023438L1083.414063,626.011719C1083.352539,626.021606,1083.291382,626.033875,1083.230469,626.046875C1082.833618,626.231934,1082.416748,626.370605,1081.988281,626.460938C1081.941162,626.45752,1081.894287,626.45282,1081.847656,626.445313C1081.819336,626.422791,1081.793945,626.397522,1081.769531,626.371094C1081.757202,626.327454,1081.751587,626.282898,1081.746094,626.238281C1082.060669,624.740845,1082.213501,623.213623,1082.199219,621.683594C1082.231689,621.183594,1082.069458,620.688904,1081.734375,620.316406L1081.535156,620.160156L1081.300781,620.054688L1081.042969,620C1080.590454,619.981445,1080.140625,620.081177,1079.738281,620.289063C1078.971802,620.678894,1078.261597,621.171143,1077.632813,621.757813C1076.858643,622.468323,1076.099243,623.19519,1075.355469,623.9375C1075.000488,623.669312,1074.642212,623.404602,1074.28125,623.144531C1074.097778,623.018616,1073.893555,622.927856,1073.679688,622.867188L1073.480469,622.855469C1073.094482,622.902771,1072.714722,622.992371,1072.347656,623.121094C1072.109375,623.190857,1071.86145,623.222656,1071.613281,623.214844L1071.457031,623.1875L1071.34375,623.128906L1071.273438,623.039063L1071.25,622.921875L1071.269531,622.773438L1071.332031,622.59375C1071.592041,622.099121,1071.920288,621.64386,1072.304688,621.238281C1072.704712,620.821716,1073.073975,620.376892,1073.414063,619.910156L1073.578125,619.640625L1073.695313,619.390625L1073.765625,619.167969C1073.806152,618.987976,1073.782715,618.799011,1073.6875,618.640625C1073.601074,618.545471,1073.501831,618.463196,1073.390625,618.398438L1073.167969,618.308594C1072.720703,618.184998,1072.256592,618.131531,1071.792969,618.152344L1070.46875,618.152344C1070.448608,617.575806,1070.410645,617,1070.355469,616.425781C1070.280273,615.785828,1070.150635,615.15332,1069.96875,614.535156L1069.925781,614.257813C1069.910645,614.050415,1069.923096,613.841492,1069.976563,613.640625C1070.195557,612.869995,1070.477783,612.118713,1070.820313,611.394531C1071.502563,609.730469,1072.204712,608.073303,1072.925781,606.425781C1072.997437,606.286377,1073.0802,606.153198,1073.167969,606.023438L1073.25,605.929688L1073.429688,605.785156L1073.636719,605.6875C1073.942383,605.602844,1074.254883,605.544678,1074.570313,605.511719C1075.055054,605.454529,1075.521118,605.288269,1075.933594,605.027344C1076.087769,604.93219,1076.227661,604.814697,1076.34375,604.675781C1076.727295,604.222717,1077.03186,603.709106,1077.257813,603.160156C1077.564819,602.4021,1077.87561,601.6427,1078.1875,600.886719C1078.325928,600.529419,1078.523315,600.198425,1078.761719,599.898438C1078.815186,599.852844,1078.871704,599.812744,1078.925781,599.769531C1079.063721,599.771423,1079.199829,599.793579,1079.332031,599.832031L1079.484375,599.882813C1080.32373,600.197021,1081.101807,600.655151,1081.789063,601.230469C1081.862183,601.256042,1081.937744,601.274353,1082.015625,601.277344C1082.104492,601.243042,1082.188599,601.198486,1082.269531,601.148438C1082.762939,600.801636,1083.12085,600.293396,1083.277344,599.710938L1083.328125,599.488281C1083.344727,599.240601,1083.379272,598.994629,1083.421875,598.75L1083.476563,598.578125C1083.529053,598.49585,1083.590576,598.419617,1083.667969,598.359375L1083.816406,598.296875C1084.113403,598.220215,1084.422241,598.203491,1084.726563,598.242188L1084.953125,598.3125C1085.387939,598.539185,1085.780151,598.839355,1086.113281,599.199219C1086.654785,599.779602,1087.248413,600.309387,1087.886719,600.78125C1088.076294,600.90332,1088.279907,601.001709,1088.496094,601.066406L1088.609375,601.074219L1088.710938,601.058594L1088.800781,601.019531C1088.861694,600.986572,1088.906128,600.930908,1088.933594,600.867188C1088.956421,600.79425,1088.983398,600.722778,1089.003906,600.648438C1089.012939,600.586792,1089.021484,600.526428,1089.03125,600.464844C1089.175293,599.107544,1089.280029,597.746277,1089.34375,596.382813C1088.400757,595.961426,1087.445923,595.566406,1086.480469,595.199219C1086.334106,595.147705,1086.186523,595.099121,1086.039063,595.050781L1085.957031,595.027344C1085.91687,595.017761,1085.880127,595.009399,1085.839844,595C1085.774658,594.992676,1085.710205,594.979919,1085.648438,594.957031L1085.546875,594.910156L1085.4375,594.84375C1085.267944,594.735718,1085.107422,594.614197,1084.960938,594.476563L1084.398438,593.953125C1082.949951,594.639038,1081.513428,595.321655,1080.066406,596.011719C1078.893921,596.559021,1077.770874,597.206848,1076.710938,597.949219C1075.509277,598.784668,1074.599487,599.97644,1074.109375,601.355469C1074.060425,601.456665,1074.013062,601.558533,1073.964844,601.660156C1073.900024,601.771545,1073.83667,601.883728,1073.773438,601.996094C1073.718506,602.065918,1073.664429,602.136108,1073.597656,602.195313C1073.533325,602.2453,1073.455078,602.268188,1073.375,602.277344C1073.009033,602.11731,1072.62561,601.999634,1072.230469,601.941406C1071.759766,601.929565,1071.302368,602.090088,1070.933594,602.382813C1070.292725,602.881958,1069.664673,603.397705,1069.050781,603.929688C1068.802002,604.154907,1068.529541,604.352783,1068.238281,604.519531C1068.193237,604.517761,1068.151733,604.503906,1068.109375,604.492188C1068.065674,604.46283,1068.020142,604.436279,1067.976563,604.40625C1067.873779,604.316589,1067.774658,604.222778,1067.683594,604.121094C1067.606689,604.009277,1067.555664,603.882568,1067.527344,603.75C1067.507324,603.566467,1067.518433,603.381592,1067.546875,603.199219C1067.692505,602.549622,1067.897949,601.914856,1068.164063,601.304688C1068.16394,601.252686,1068.170898,601.201355,1068.167969,601.148438L1068.132813,601.101563L1068.078125,601.078125L1068.003906,601.074219L1067.914063,601.089844C1067.842773,601.126099,1067.767578,601.154358,1067.691406,601.179688L1067.5625,601.25C1067.223022,601.465515,1066.911743,601.722107,1066.632813,602.011719C1066.397339,602.260437,1066.137329,602.485352,1065.847656,602.667969C1065.595093,602.838867,1065.301025,602.94043,1064.996094,602.945313C1064.833374,602.931946,1064.684937,602.853882,1064.574219,602.734375L1064.488281,602.585938L1064.429688,602.398438L1064.402344,602.179688C1064.405396,601.88208,1064.445679,601.585938,1064.53125,601.300781C1064.651855,600.907043,1064.736694,600.503113,1064.78125,600.09375C1064.772461,600.061401,1064.760742,600.030151,1064.746094,600C1064.718018,599.970032,1064.685791,599.945679,1064.65625,599.917969L1064.507813,599.855469L1064.3125,599.808594C1063.706665,599.727905,1063.092651,599.733032,1062.488281,599.824219C1061.820068,599.889038,1061.165527,600.055542,1060.546875,600.316406C1059.471313,600.782654,1058.31958,601.049744,1057.148438,601.101563C1057.092163,601.091187,1057.036133,601.079712,1056.980469,601.066406C1056.952759,601.036133,1056.931885,601.002197,1056.910156,600.96875L1056.90625,600.894531C1057.005615,600.537415,1057.132202,600.18866,1057.277344,599.847656L1057.273438,599.777344L1057.242188,599.726563C1057.189819,599.701294,1057.134277,599.685547,1057.078125,599.671875L1056.941406,599.667969C1056.659668,599.70575,1056.376953,599.736206,1056.09375,599.761719L1055.949219,599.75L1055.855469,599.710938L1055.804688,599.640625C1055.796875,599.410706,1055.819092,599.181152,1055.871094,598.957031L1055.882813,598.796875L1055.863281,598.6875L1055.800781,598.613281C1055.736816,598.595276,1055.671875,598.580933,1055.605469,598.574219L1055.511719,598.574219L1055.398438,598.582031C1055.014771,598.645203,1054.627075,598.680115,1054.238281,598.6875L1054.109375,598.65625L1054.019531,598.601563L1053.964844,598.519531L1053.9375,598.402344C1053.924438,598.27124,1053.937866,598.139648,1053.96875,598.011719C1054.000732,597.921326,1054.038818,597.833435,1054.078125,597.746094C1054.209229,597.537354,1054.362793,597.344177,1054.535156,597.167969C1054.603882,597.078064,1054.671875,596.987549,1054.730469,596.890625L1054.820313,596.730469C1054.925049,596.517456,1054.995483,596.290222,1055.046875,596.058594L1055.15625,595.296875C1054.645386,595.62384,1054.16333,595.993958,1053.714844,596.402344C1053.522705,596.560974,1053.349243,596.741394,1053.195313,596.9375L1052.964844,597.136719C1051.859619,597.932129,1050.493286,598.277527,1049.144531,598.089844C1048.916626,598.044495,1048.698853,597.956726,1048.507813,597.824219C1048.434692,597.7547,1048.374512,597.674316,1048.320313,597.589844L1048.269531,597.417969C1048.231445,596.971558,1048.243042,596.5224,1048.300781,596.078125C1048.424316,595.182251,1048.327271,594.269348,1048.011719,593.421875C1047.715576,592.697571,1047.573975,591.918762,1047.601563,591.136719C1047.613892,590.851257,1047.656494,590.567932,1047.734375,590.292969C1047.785522,590.124634,1047.864746,589.966125,1047.96875,589.824219L1048.066406,589.691406C1048.116089,589.611816,1048.170166,589.535706,1048.214844,589.453125L1048.269531,589.339844L1048.304688,589.234375C1048.315674,589.164368,1048.317139,589.093872,1048.320313,589.023438C1048.29834,588.852173,1048.230225,588.691772,1048.136719,588.546875L1048.042969,588.402344C1047.666504,587.939819,1047.298462,587.470764,1046.9375,586.996094C1046.857422,586.872009,1046.781372,586.745239,1046.714844,586.613281C1046.665283,586.503418,1046.626831,586.389221,1046.59375,586.273438L1046.566406,586.117188L1046.5625,585.96875L1046.585938,585.824219C1046.643433,585.625671,1046.750488,585.443787,1046.910156,585.3125C1047.135864,585.155457,1047.35498,584.988831,1047.5625,584.808594C1047.604126,584.756042,1047.642456,584.700989,1047.671875,584.640625L1047.6875,584.558594L1047.671875,584.476563L1047.632813,584.390625L1047.5625,584.304688C1047.48999,584.235718,1047.411621,584.173706,1047.332031,584.113281C1046.883423,583.836487,1046.417603,583.588623,1045.9375,583.371094C1045.671753,583.235046,1045.436768,583.047241,1045.238281,582.824219C1045.168335,582.724121,1045.101196,582.622192,1045.058594,582.507813L1045.011719,582.332031L1044.992188,582.144531C1044.997314,581.732544,1045.101074,581.327637,1045.289063,580.960938C1045.577515,580.427063,1045.828979,579.873962,1046.039063,579.304688C1046.080078,579.171936,1046.106201,579.035461,1046.128906,578.898438L1046.136719,578.726563C1046.130859,578.631653,1046.115112,578.537842,1046.09375,578.445313C1046.053833,578.377563,1046.011963,578.311035,1045.957031,578.253906L1045.855469,578.191406C1045.657593,578.11499,1045.437988,578.115784,1045.238281,578.1875C1044.661255,578.358337,1044.070679,578.479431,1043.472656,578.546875L1043.300781,578.539063C1043.118896,578.507568,1042.95459,578.414978,1042.835938,578.273438L1042.753906,578.140625L1042.675781,577.980469C1042.519165,577.51886,1042.348999,577.062012,1042.167969,576.609375C1042.113159,576.480042,1042.050659,576.354248,1041.984375,576.230469C1041.928589,576.12561,1041.864136,576.026123,1041.800781,575.925781C1041.688721,575.780823,1041.560547,575.649475,1041.414063,575.539063L1041.316406,575.488281L1041.21875,575.460938C1041.116821,575.453918,1041.014771,575.456726,1040.914063,575.476563L1040.835938,575.484375C1040.767822,575.459656,1040.699341,575.436401,1040.636719,575.398438C1040.401367,575.2276,1040.198608,575.016602,1040.039063,574.773438L1039.898438,574.585938C1039.796875,574.473816,1039.686401,574.370422,1039.570313,574.273438L1039.386719,574.152344L1039.191406,574.046875C1038.986938,573.950317,1038.766724,573.895142,1038.542969,573.863281C1038.30542,573.833496,1038.065063,573.840332,1037.828125,573.875C1037.243652,573.984436,1036.689331,574.217957,1036.199219,574.554688L1036.03125,574.648438C1035.869995,574.73407,1035.708618,574.819031,1035.539063,574.886719C1035.519775,574.860168,1035.503174,574.83197,1035.492188,574.800781C1035.403931,574.35498,1035.348145,573.903259,1035.328125,573.449219C1035.32312,573.156555,1035.226074,572.872009,1035.046875,572.640625L1034.917969,572.515625L1034.75,572.402344C1034.612305,572.325806,1034.472168,572.253723,1034.324219,572.199219L1034.113281,572.132813C1033.873169,572.078735,1033.625,572.065369,1033.382813,572.109375C1032.75,572.223877,1032.121948,572.363403,1031.5,572.527344C1030.857666,572.700867,1030.192017,572.773865,1029.527344,572.742188C1029.406006,572.720093,1029.286865,572.686951,1029.175781,572.632813L1029.109375,572.570313L1029.070313,572.5L1029.054688,572.417969L1029.078125,572.324219C1029.345581,571.83374,1029.689209,571.389221,1030.09375,571.003906C1030.770752,570.308594,1031.264526,569.45697,1031.542969,568.527344C1031.867676,567.460083,1032.215576,566.399963,1032.585938,565.347656C1032.727173,564.932983,1032.916382,564.535767,1033.160156,564.171875L1033.269531,564.042969C1033.337402,563.975525,1033.412354,563.915833,1033.492188,563.863281L1033.609375,563.8125C1033.687256,563.784119,1033.769287,563.77832,1033.851563,563.773438C1033.966553,563.782715,1034.081299,563.794434,1034.195313,563.8125L1034.371094,563.855469L1034.550781,563.914063C1034.784058,564.003967,1035.00647,564.11969,1035.214844,564.257813C1035.395142,564.372925,1035.557373,564.515076,1035.683594,564.6875C1035.716187,564.76001,1035.754639,564.829834,1035.789063,564.902344L1035.800781,565L1035.777344,565.089844C1035.621704,565.415771,1035.505737,565.759338,1035.433594,566.113281L1035.433594,566.203125L1035.453125,566.277344C1035.484619,566.309448,1035.514282,566.34314,1035.550781,566.371094C1035.611206,566.377991,1035.670898,566.391663,1035.730469,566.40625C1036.339233,566.361511,1036.943848,566.272156,1037.539063,566.136719C1038.220093,565.992249,1038.902466,565.854309,1039.585938,565.722656C1039.902344,565.660889,1040.226196,565.650513,1040.546875,565.683594L1040.71875,565.726563C1040.81897,565.763611,1040.910034,565.81842,1041,565.875L1041.109375,565.984375L1041.199219,566.117188C1041.285034,566.295959,1041.352173,566.483398,1041.382813,566.679688C1041.451294,567.21936,1041.500244,567.761353,1041.527344,568.304688C1042.350952,568.230774,1043.175903,568.160461,1044,568.09375C1044.506348,568.042419,1045.017334,568.054382,1045.519531,568.136719C1045.646606,568.150269,1045.768555,568.197144,1045.871094,568.273438L1045.996094,568.375L1046.097656,568.496094C1046.193115,568.646118,1046.240356,568.822266,1046.234375,569C1046.23877,569.155701,1046.237427,569.311523,1046.210938,569.464844C1046.153931,569.870911,1046.090088,570.275757,1046.019531,570.679688L1048.972656,570.523438C1049.918579,568.41156,1050.827393,566.284119,1051.699219,564.140625C1052.016479,563.332153,1052.322144,562.519958,1052.617188,561.703125C1052.679077,561.539246,1052.764526,561.385071,1052.871094,561.246094L1053.003906,561.105469L1053.15625,561.007813C1053.276245,560.954468,1053.405029,560.927368,1053.535156,560.910156C1053.805908,560.888916,1054.078613,560.928101,1054.328125,561.035156C1054.665039,561.161072,1054.983643,561.33136,1055.277344,561.539063L1056.3125,562.257813C1057.351685,561.539673,1058.410767,560.850586,1059.488281,560.191406C1059.78894,560.008118,1060.097046,559.837036,1060.414063,559.683594L1060.507813,559.601563C1060.649536,559.437805,1060.762329,559.251465,1060.84375,559.050781C1060.953003,558.637146,1061.064941,558.224609,1061.179688,557.8125C1061.261841,557.525269,1061.386841,557.252258,1061.546875,557C1061.677124,556.812988,1061.84314,556.653198,1062.042969,556.542969C1062.14502,556.498535,1062.248657,556.45752,1062.355469,556.425781C1062.544067,556.384399,1062.736694,556.367432,1062.929688,556.363281L1063.171875,556.378906C1063.947144,556.487915,1064.699341,556.721741,1065.402344,557.066406L1066.832031,557.765625C1067.585083,557.151917,1068.387939,556.601685,1069.234375,556.125C1069.35376,556.069702,1069.471802,556.011475,1069.589844,555.953125C1071.034546,555.441284,1072.522095,555.060547,1074.035156,554.816406C1074.07019,554.821655,1074.104858,554.817932,1074.140625,554.820313C1074.155884,554.833069,1074.167236,554.848511,1074.179688,554.863281C1074.332031,555.20874,1074.479248,555.556335,1074.621094,555.90625L1074.71875,556.082031C1074.977539,556.530273,1075.378784,556.880127,1075.863281,557.0625L1076.003906,557.097656L1076.132813,557.101563L1076.253906,557.070313C1076.345947,557.021484,1076.436646,556.969849,1076.519531,556.90625C1076.93396,556.566162,1077.240356,556.112305,1077.390625,555.597656C1077.638062,554.728577,1077.792114,553.83551,1077.847656,552.933594C1077.870972,552.648621,1077.893799,552.374634,1077.917969,552.089844C1077.985596,551.588928,1078.001099,551.082275,1077.964844,550.578125C1077.949585,550.5224,1077.934814,550.466614,1077.910156,550.414063C1077.881958,550.380981,1077.850342,550.351257,1077.816406,550.324219L1077.679688,550.285156C1077.377319,550.28125,1077.077148,550.330139,1076.792969,550.433594C1076.4823,550.52948,1076.183594,550.659607,1075.894531,550.808594C1075.320435,551.104004,1074.69458,551.28772,1074.050781,551.335938C1073.868652,551.356689,1073.68396,551.339844,1073.507813,551.289063C1073.467407,551.263672,1073.427856,551.237122,1073.390625,551.207031L1073.347656,551.144531C1073.25708,550.873352,1073.225952,550.585754,1073.25,550.300781C1073.267944,549.624756,1073.236938,548.948303,1073.152344,548.277344C1073.134155,548.216858,1073.113647,548.157349,1073.09375,548.097656C1073.070313,548.08667,1073.046631,548.085571,1073.023438,548.078125C1072.911621,548.09314,1072.799561,548.105896,1072.6875,548.121094C1071.997559,548.276794,1071.318115,548.475952,1070.652344,548.714844C1069.764648,549.016602,1068.835815,549.181152,1067.898438,549.199219C1067.428223,549.206787,1066.963135,549.097168,1066.550781,548.871094C1066.300903,548.691406,1066.060181,548.499512,1065.832031,548.292969C1066.938232,546.526794,1067.993286,544.729248,1068.996094,542.902344C1069.857422,541.38385,1070.559326,539.780396,1071.089844,538.117188C1071.316162,537.28479,1071.498291,536.441223,1071.636719,535.589844L1071.667969,535.46875L1071.734375,535.273438L1071.8125,535.128906L1071.910156,535.03125L1072.03125,534.96875L1072.183594,534.9375C1072.450195,534.922424,1072.718018,534.940063,1072.976563,535.007813L1073.285156,535.109375C1073.844849,535.373474,1074.36731,535.709778,1074.839844,536.109375C1075.353638,536.55603,1075.898682,536.965942,1076.472656,537.332031L1076.800781,537.507813C1076.992554,537.599915,1077.195923,537.663513,1077.402344,537.714844L1077.679688,537.746094L1077.945313,537.730469C1078.438599,537.628723,1078.873169,537.34198,1079.167969,536.933594C1079.556519,536.419067,1079.906738,535.87677,1080.21875,535.3125C1080.590332,534.710938,1081.051636,534.169495,1081.589844,533.710938C1081.679932,533.645203,1081.771729,533.581848,1081.871094,533.53125L1081.992188,533.484375C1082.058228,533.47052,1082.125244,533.474915,1082.191406,533.484375C1082.223022,533.512756,1082.257446,533.537476,1082.289063,533.566406C1082.327271,533.635803,1082.359985,533.707214,1082.402344,533.773438C1082.861206,534.757996,1083.299927,535.751709,1083.71875,536.753906C1083.905273,537.188843,1084.138428,537.602478,1084.417969,537.984375L1084.570313,538.144531L1084.71875,538.246094L1084.859375,538.292969L1085,538.28125L1085.140625,538.214844L1085.285156,538.097656C1085.57666,537.711548,1085.821533,537.292969,1086.019531,536.851563L1086.148438,536.640625C1086.231812,536.528625,1086.320923,536.420959,1086.421875,536.324219C1086.505371,536.244873,1086.605225,536.186035,1086.710938,536.140625L1086.863281,536.097656C1086.96936,536.094421,1087.074707,536.10437,1087.179688,536.117188C1087.441895,536.201721,1087.675049,536.357666,1087.859375,536.5625L1088.035156,536.753906C1088.265625,537.057129,1088.493042,537.361206,1088.71875,537.667969C1088.913818,537.927856,1089.168335,538.136047,1089.457031,538.285156L1089.59375,538.332031C1089.677246,538.350159,1089.762451,538.353577,1089.847656,538.351563C1089.924438,538.322815,1090.001465,538.294861,1090.078125,538.265625L1090.183594,538.183594L1090.277344,538.074219L1090.363281,537.9375C1090.4104,537.865295,1090.441162,537.784729,1090.46875,537.703125C1090.491943,537.638306,1090.513062,537.572998,1090.535156,537.507813C1090.81604,536.503601,1091.062256,535.489929,1091.273438,534.46875C1091.428833,533.684998,1091.79834,532.958618,1092.339844,532.371094C1093.192261,531.431274,1094.096313,530.539673,1095.046875,529.699219C1095.366577,529.430481,1095.746704,529.241943,1096.15625,529.160156L1096.394531,529.128906C1096.877197,529.113464,1097.358521,529.190613,1097.8125,529.355469C1098.43811,529.577637,1099.056885,529.81842,1099.667969,530.078125C1099.783325,530.122253,1099.899048,530.166077,1100.015625,530.207031C1100.104736,530.233154,1100.19458,530.256775,1100.285156,530.277344C1100.383545,530.291321,1100.482544,530.2995,1100.582031,530.296875L1100.742188,530.246094L1100.890625,530.15625L1101.050781,530.019531C1101.194824,529.855652,1101.32019,529.67688,1101.429688,529.488281C1101.760254,528.860779,1102.013184,528.195313,1102.1875,527.507813C1102.322632,527.040405,1102.437012,526.5672,1102.53125,526.089844L1102.585938,525.929688C1102.638916,525.797363,1102.701172,525.668884,1102.78125,525.550781C1102.830688,525.507996,1102.877808,525.462646,1102.929688,525.421875C1102.987183,525.411987,1103.044556,525.415283,1103.101563,525.421875C1103.218506,525.453674,1103.332764,525.494324,1103.445313,525.539063C1104.155273,525.856201,1104.856201,526.193665,1105.546875,526.550781C1106.081665,526.812012,1106.663086,526.964844,1107.257813,526.988281L1107.492188,526.972656C1108.033081,526.869202,1108.511597,526.55896,1108.824219,526.105469C1109.073853,525.800781,1109.2677,525.453552,1109.386719,525.078125L1109.433594,524.878906C1109.497925,524.53894,1109.464355,524.187683,1109.34375,523.863281C1109.187012,523.452271,1108.971313,523.066467,1108.707031,522.714844C1108.376343,522.280212,1108.124512,521.790222,1107.972656,521.265625C1107.950317,521.164612,1107.93042,521.06311,1107.914063,520.960938L1107.90625,520.820313C1107.908936,520.737549,1107.921387,520.655945,1107.933594,520.574219L1107.964844,520.46875C1107.999512,520.410706,1108.035645,520.353638,1108.078125,520.300781L1108.144531,520.265625L1108.238281,520.257813L1108.363281,520.277344L1108.511719,520.320313C1109.466675,520.698486,1110.321411,521.290039,1111.015625,522.046875C1111.452637,522.639099,1111.780762,523.304382,1111.984375,524.011719C1112.034424,524.160156,1112.094727,524.304871,1112.164063,524.445313C1112.250122,524.666138,1112.388794,524.861816,1112.558594,525.027344C1112.619141,525.061523,1112.684448,525.085449,1112.753906,525.09375C1113.277588,524.999878,1113.780151,524.815308,1114.246094,524.558594C1114.851929,524.198975,1115.48999,523.896484,1116.152344,523.65625C1116.316895,523.61322,1116.48291,523.575928,1116.652344,523.558594C1116.726685,523.562317,1116.800537,523.573486,1116.871094,523.597656L1116.945313,523.644531L1116.996094,523.714844L1117.019531,523.800781L1117.019531,523.910156C1116.915527,524.332031,1116.90918,524.772095,1117.007813,525.195313L1117.078125,525.4375C1117.411133,526.307007,1117.954102,527.080017,1118.65625,527.691406C1119.395874,528.295166,1120.052979,528.993652,1120.609375,529.769531C1120.757324,530.01593,1120.882202,530.275146,1120.996094,530.539063C1121.05127,530.619324,1121.111328,530.696045,1121.179688,530.765625L1121.28125,530.808594L1121.390625,530.808594L1121.515625,530.773438C1121.606812,530.732422,1121.691895,530.680542,1121.777344,530.628906C1122.117554,530.35321,1122.408936,530.0224,1122.636719,529.648438C1122.979736,529.120117,1123.473145,528.705078,1124.058594,528.472656C1124.159424,528.446594,1124.258667,528.414551,1124.359375,528.386719C1124.446167,528.373596,1124.533569,528.373291,1124.621094,528.371094C1124.693726,528.386047,1124.763184,528.410889,1124.832031,528.4375L1124.890625,528.484375C1124.999146,528.612976,1125.067017,528.770752,1125.089844,528.9375C1125.100952,529.181702,1125.143433,529.423767,1125.230469,529.652344L1125.316406,529.839844C1125.519653,530.24585,1125.779663,530.62146,1126.09375,530.949219L1126.242188,531.097656C1126.404541,531.255188,1126.593506,531.382019,1126.800781,531.472656L1126.914063,531.488281C1127.049072,531.468384,1127.182983,531.442322,1127.3125,531.398438L1127.484375,531.332031C1127.867432,531.15271,1128.244263,530.96051,1128.613281,530.753906C1128.958984,530.582764,1129.331543,530.473511,1129.714844,530.429688C1129.830811,530.434143,1129.945435,530.451477,1130.058594,530.476563L1130.121094,530.511719C1130.175415,530.57135,1130.221924,530.637024,1130.261719,530.707031L1130.296875,530.808594L1130.328125,530.929688C1130.410645,531.518188,1130.46875,532.109863,1130.503906,532.703125C1130.584839,533.668945,1130.874268,534.606201,1131.359375,535.445313C1131.475708,535.667114,1131.62085,535.872864,1131.792969,536.054688C1131.872192,536.108887,1131.947876,536.167847,1132.027344,536.222656L1132.160156,536.277344C1132.567749,536.348267,1132.984985,536.329041,1133.386719,536.230469C1133.758789,536.153687,1134.132446,536.085754,1134.507813,536.027344L1134.65625,536.027344L1134.765625,536.058594L1134.839844,536.121094L1134.882813,536.222656L1134.90625,536.367188C1134.910889,536.462219,1134.911743,536.557312,1134.90625,536.652344C1134.745361,537.305359,1134.514648,537.939026,1134.21875,538.542969C1133.581055,540.017822,1132.832764,541.442505,1131.980469,542.804688C1131.875,542.97345,1131.746826,543.125916,1131.609375,543.269531C1131.572632,543.286438,1131.53833,543.308105,1131.5,543.324219L1131.417969,543.292969C1131.265991,543.183105,1131.148926,543.03363,1131.0625,542.867188C1131.004639,542.755432,1130.947998,542.643066,1130.898438,542.527344C1130.818726,542.24408,1130.707642,541.970032,1130.554688,541.71875L1130.457031,541.605469C1130.381836,541.553162,1130.299683,541.512085,1130.210938,541.488281L1130.054688,541.476563C1129.944458,541.479553,1129.835449,541.495117,1129.726563,541.511719L1129.574219,541.558594C1129.464722,541.600708,1129.356567,541.64624,1129.25,541.695313L1128.941406,541.878906L1128.6875,542.089844C1128.415405,542.356323,1128.252808,542.717224,1128.234375,543.097656C1128.113281,544.215942,1128.053833,545.340027,1128.054688,546.464844C1128.017334,547.219788,1128.021973,547.976135,1128.070313,548.730469L1128.09375,548.875C1128.113037,548.943604,1128.134399,549.011597,1128.160156,549.078125C1128.192871,549.113525,1128.22168,549.151489,1128.261719,549.179688C1128.306152,549.19574,1128.352173,549.205933,1128.398438,549.214844C1128.509033,549.206238,1128.619751,549.198853,1128.730469,549.195313C1128.899048,549.154846,1129.059326,549.087524,1129.210938,549.003906C1129.553955,548.75708,1129.845337,548.44635,1130.078125,548.09375C1130.366577,547.642761,1130.667603,547.199951,1130.980469,546.765625L1131.214844,546.503906C1131.447144,546.235718,1131.754761,546.043945,1132.097656,545.953125C1132.232056,545.929871,1132.369751,545.940002,1132.5,545.980469L1132.6875,546.066406L1132.867188,546.207031L1133.035156,546.394531C1133.297241,546.772095,1133.486084,547.195984,1133.585938,547.644531C1133.681763,548.036011,1133.839355,548.410645,1134.0625,548.746094C1134.149902,548.866333,1134.257935,548.96875,1134.378906,549.054688L1134.519531,549.128906C1134.658325,549.174744,1134.80481,549.18335,1134.949219,549.164063C1135.111572,549.093262,1135.263428,549.001648,1135.398438,548.886719C1135.82605,548.416504,1136.179565,547.884094,1136.449219,547.308594C1136.850586,546.450989,1137.289673,545.611572,1137.765625,544.792969C1138.065796,544.274414,1138.427612,543.794373,1138.84375,543.363281C1138.95166,543.253235,1139.073975,543.159668,1139.199219,543.070313L1139.308594,543.003906L1139.414063,542.953125C1139.480469,542.929993,1139.548828,542.914001,1139.617188,542.898438L1139.710938,542.898438L1139.796875,542.910156C1139.854736,542.928833,1139.90625,542.959106,1139.960938,542.984375L1140.03125,543.050781L1140.101563,543.128906C1140.139038,543.199402,1140.176514,543.269836,1140.214844,543.339844C1140.30249,543.584351,1140.372192,543.8349,1140.421875,544.089844L1140.527344,544.34375C1140.587524,544.48822,1140.686279,544.613098,1140.808594,544.710938C1140.913086,544.798584,1141.039551,544.853333,1141.171875,544.886719L1141.378906,544.90625L1141.59375,544.878906C1141.845337,544.819641,1142.079468,544.701416,1142.277344,544.535156C1142.74353,544.145874,1143.121338,543.661499,1143.382813,543.113281C1143.469849,542.938843,1143.566528,542.76947,1143.671875,542.605469C1143.750488,542.493042,1143.840088,542.389221,1143.933594,542.289063C1144.010742,542.222534,1144.100464,542.173401,1144.195313,542.136719L1144.335938,542.117188C1144.439819,542.125244,1144.543335,542.137512,1144.644531,542.164063L1144.789063,542.246094C1144.892334,542.332886,1144.974976,542.439514,1145.050781,542.550781C1145.3396,543.115662,1145.569214,543.708801,1145.738281,544.320313C1145.88855,544.836182,1146.083496,545.337952,1146.320313,545.820313L1146.402344,545.953125L1146.488281,546.058594C1146.545898,546.114136,1146.606812,546.166138,1146.675781,546.207031C1146.785522,546.249817,1146.899536,546.278442,1147.015625,546.296875C1147.348633,546.350403,1147.689941,546.290222,1147.988281,546.132813C1148.108398,546.062378,1148.227173,545.989563,1148.335938,545.902344C1148.875488,545.416626,1149.337524,544.851501,1149.707031,544.226563C1150.571289,542.804443,1151.39856,541.359802,1152.1875,539.894531C1152.64209,538.941406,1153.067993,537.97467,1153.464844,536.996094C1153.246704,536.29248,1153.032715,535.585388,1152.824219,534.878906C1152.589844,533.931641,1152.467407,532.960144,1152.460938,531.984375C1152.379883,528.80719,1152.34729,525.631348,1152.363281,522.453125L1152.363281,518.878906L1152.355469,504.367188C1152.050537,502.855835,1151.743164,501.353943,1151.429688,499.84375C1151.182617,498.61853,1150.871216,497.407104,1150.496094,496.214844C1150.470947,496.124573,1150.43457,496.037964,1150.394531,495.953125C1150.171021,495.554657,1149.897461,495.186096,1149.578125,494.859375C1148.955933,494.185974,1148.29895,493.545593,1147.609375,492.941406C1146.981934,492.369629,1146.461548,491.690857,1146.070313,490.9375C1146.001953,490.784576,1145.94519,490.627045,1145.890625,490.46875C1145.827759,490.23822,1145.778442,490.003998,1145.761719,489.765625C1145.753906,489.61731,1145.753906,489.46875,1145.757813,489.320313C1145.761963,489.22995,1145.78125,489.141754,1145.804688,489.054688L1145.859375,488.980469L1145.933594,488.945313C1146.074463,488.951843,1146.213623,488.975464,1146.347656,489.019531L1146.421875,489.042969C1147.490723,489.241516,1148.570923,489.37381,1149.65625,489.4375C1150.388672,489.492371,1151.114258,489.61676,1151.824219,489.804688L1151.910156,489.835938L1151.976563,489.867188C1152.087646,489.918518,1152.209717,489.942139,1152.332031,489.9375C1153.175781,489.958588,1154.019775,489.910889,1154.855469,489.792969C1156.482178,489.623749,1158.096924,489.355988,1159.691406,488.992188C1159.963257,488.925262,1160.231445,488.844238,1160.492188,488.742188C1160.654175,488.657288,1160.805664,488.554565,1160.949219,488.441406L1161.046875,488.394531L1161.132813,488.375L1161.210938,488.394531C1161.266968,488.431183,1161.318237,488.47403,1161.367188,488.519531C1161.458618,488.63623,1161.567139,488.737854,1161.6875,488.824219C1161.83313,488.906799,1161.996948,488.951019,1162.164063,488.960938C1162.28772,488.967255,1162.411621,488.966553,1162.535156,488.957031C1162.809326,488.921661,1163.074951,488.841339,1163.328125,488.730469C1163.522705,488.635986,1163.708252,488.523682,1163.878906,488.390625C1164.054443,488.23288,1164.223755,488.068146,1164.375,487.886719L1164.578125,487.691406C1165.289307,487.108521,1166.149658,486.735565,1167.0625,486.625C1167.855957,486.516144,1168.661621,486.538727,1169.449219,486.683594C1169.886108,486.7323,1170.316284,486.828857,1170.734375,486.964844C1170.844238,487.01236,1170.954712,487.05838,1171.066406,487.101563C1171.164795,487.118927,1171.263672,487.133148,1171.363281,487.140625L1171.449219,487.128906C1171.57373,487.068329,1171.694946,487.00116,1171.808594,486.921875C1172.534302,486.575806,1173.319092,486.372223,1174.121094,486.316406L1174.230469,486.328125z"/>
    <path transform="matrix(-1,0,0,-1,0,0)" style="stroke:#000000;stroke-width:0.05mm;fill:none" d="M1089.007813,676.371094C1089.038574,676.381775,1089.066162,676.397766,1089.09375,676.414063L1089.117188,676.449219C1089.115112,676.506531,1089.113037,676.563843,1089.105469,676.621094L1089.050781,676.734375L1088.96875,676.820313L1088.867188,676.886719C1088.798584,676.906921,1088.728027,676.920105,1088.65625,676.917969C1088.570435,676.888916,1088.499146,676.828674,1088.460938,676.746094L1088.457031,676.691406C1088.484619,676.613708,1088.525879,676.542053,1088.585938,676.484375L1088.730469,676.40625L1088.882813,676.367188L1089.007813,676.371094z"/>
    <path transform="matrix(-1,0,0,-1,0,0)" style="stroke:#000000;stroke-width:0.05mm;fill:none" d="M1239.363281,662.839844L1239.53125,662.90625C1239.682617,662.970581,1239.817627,663.068115,1239.921875,663.195313L1239.957031,663.300781C1239.943726,663.354187,1239.92041,663.403442,1239.890625,663.449219C1239.835571,663.479065,1239.776489,663.496887,1239.71875,663.519531L1239.570313,663.527344C1239.356689,663.517639,1239.155518,663.422546,1239.023438,663.253906L1238.964844,663.132813C1238.945679,663.062378,1238.938232,662.990295,1238.933594,662.917969L1238.96875,662.851563L1239.0625,662.804688L1239.199219,662.804688L1239.363281,662.839844z"/>
    <path transform="matrix(-1,0,0,-1,0,0)" style="stroke:#000000;stroke-width:0.05mm;fill:none" d="M1269.6875,635.242188L1269.613281,635.300781C1269.561279,635.360107,1269.507446,635.417419,1269.464844,635.484375L1269.421875,635.589844L1269.429688,635.671875L1269.484375,635.730469C1269.55188,635.74353,1269.620117,635.740356,1269.6875,635.730469L1269.777344,635.671875L1269.839844,635.589844C1269.861206,635.493896,1269.858154,635.39447,1269.828125,635.300781L1269.789063,635.242188L1269.742188,635.222656L1269.6875,635.242188z"/>
    <path transform="matrix(-1,0,0,-1,0,0)" style="stroke:#000000;stroke-width:0.05mm;fill:none" d="M1281.074219,623.175781C1281.041748,623.265015,1281.023926,623.358337,1281.019531,623.453125L1281.015625,623.578125C1281.001465,623.70282,1281.020386,623.828186,1281.054688,623.949219C1281.067139,623.96283,1281.079834,623.976074,1281.097656,623.984375C1281.11731,623.961548,1281.134399,623.93689,1281.148438,623.910156L1281.191406,623.753906C1281.214722,623.583435,1281.196167,623.411133,1281.148438,623.246094C1281.134888,623.219055,1281.117554,623.194458,1281.097656,623.171875L1281.074219,623.175781z"/>
    <path transform="matrix(-1,0,0,-1,0,0)" style="stroke:#000000;stroke-width:0.05mm;fill:none" d="M1080.589844,602.546875L1080.550781,602.566406L1080.53125,602.605469L1080.527344,602.660156C1080.539429,602.713867,1080.553345,602.766968,1080.566406,602.820313L1080.640625,602.960938L1080.730469,603.070313C1080.794678,603.11853,1080.862671,603.161316,1080.9375,603.191406L1081.03125,603.195313L1081.113281,603.164063L1081.167969,603.085938L1081.1875,602.964844L1081.15625,602.863281L1081.074219,602.753906L1080.953125,602.660156L1080.804688,602.582031C1080.751343,602.569031,1080.697998,602.555603,1080.644531,602.542969L1080.589844,602.546875z"/>
    <path transform="matrix(-1,0,0,-1,0,0)" style="stroke:#000000;stroke-width:0.05mm;fill:none" d="M1057.542969,557.039063C1057.666992,557.056335,1057.780762,557.113464,1057.878906,557.191406C1057.960083,557.276611,1058.033447,557.368896,1058.089844,557.472656L1058.148438,557.65625C1058.182495,557.893127,1058.168701,558.133606,1058.117188,558.367188C1057.978882,558.927246,1057.726196,559.452454,1057.375,559.910156C1057.329956,559.935974,1057.284668,559.960999,1057.238281,559.984375L1057.160156,560C1057.094849,559.999329,1057.029907,559.994629,1056.964844,559.992188C1056.397949,559.892151,1055.851196,559.700867,1055.347656,559.421875L1055.164063,559.277344C1055.060669,559.19104,1054.982422,559.079346,1054.925781,558.957031L1054.867188,558.785156C1054.851196,558.666443,1054.849121,558.546021,1054.878906,558.429688C1054.924683,558.303894,1054.984497,558.184143,1055.054688,558.070313C1055.158203,557.943909,1055.275024,557.82959,1055.398438,557.722656C1055.894409,557.347046,1056.478271,557.10614,1057.09375,557.015625L1057.332031,557.011719L1057.542969,557.039063z"/>
    <path transform="matrix(-1,0,0,-1,0,0)" style="stroke:#000000;stroke-width:0.05mm;fill:none" d="M1076.210938,548.210938L1075.953125,548.292969L1075.722656,548.417969L1075.535156,548.578125L1075.464844,548.664063L1075.410156,548.761719C1075.389404,548.826904,1075.373535,548.893311,1075.363281,548.960938L1075.378906,549.144531L1075.421875,549.285156L1075.5,549.382813C1075.590332,549.428894,1075.687866,549.45697,1075.789063,549.464844C1075.861694,549.457336,1075.934692,549.454407,1076.007813,549.449219C1076.290039,549.41272,1076.566406,549.340515,1076.832031,549.238281C1076.947021,549.183044,1077.042847,549.096741,1077.121094,548.996094L1077.191406,548.851563L1077.210938,548.699219L1077.179688,548.546875L1077.085938,548.40625L1076.9375,548.285156L1076.832031,548.230469L1076.71875,548.199219L1076.597656,548.179688L1076.46875,548.175781L1076.210938,548.210938z"/>
    <path transform="matrix(-1,0,0,-1,0,0)" style="stroke:#000000;stroke-width:0.05mm;fill:none" d="M1071.050781,546.054688C1070.248291,546.21637,1069.496704,546.566589,1068.851563,547.070313L1068.742188,547.175781L1068.671875,547.269531L1068.640625,547.355469L1068.652344,547.425781L1068.695313,547.46875C1068.745361,547.493713,1068.79834,547.510986,1068.851563,547.527344C1068.980591,547.528198,1069.109375,547.528931,1069.238281,547.53125C1069.796143,547.466553,1070.343628,547.331909,1070.867188,547.128906C1071.088135,547.052002,1071.305542,546.965576,1071.519531,546.871094C1071.612915,546.825256,1071.701294,546.770569,1071.789063,546.714844L1071.886719,546.636719L1071.960938,546.558594C1071.988281,546.509766,1072.019165,546.46344,1072.039063,546.410156C1072.037598,546.341553,1072.012939,546.277527,1071.972656,546.222656L1071.90625,546.171875C1071.746826,546.100891,1071.577026,546.055603,1071.402344,546.050781C1071.284912,546.043457,1071.167358,546.038818,1071.050781,546.054688z"/>
    <path transform="matrix(-1,0,0,-1,0,0)" style="stroke:#000000;stroke-width:0.05mm;fill:none" d="M1218.507813,538.578125C1218.472778,538.600586,1218.436279,538.620117,1218.402344,538.644531C1217.928589,539.047852,1217.508667,539.510681,1217.15625,540.023438L1216.636719,540.75C1216.928589,540.756104,1217.220459,540.749451,1217.511719,540.730469C1217.639282,540.714172,1217.765747,540.690552,1217.890625,540.660156C1217.982544,540.629089,1218.073486,540.594788,1218.160156,540.550781C1218.205811,540.501831,1218.24646,540.448914,1218.285156,540.394531C1218.383057,540.195984,1218.459839,539.987427,1218.5,539.769531L1218.570313,539.371094C1218.619019,539.123108,1218.63208,538.869263,1218.613281,538.617188C1218.602295,538.598938,1218.590332,538.581238,1218.574219,538.566406L1218.542969,538.5625L1218.507813,538.578125z"/>
    <path transform="matrix(-1,0,0,-1,0,0)" style="stroke:#000000;stroke-width:0.05mm;fill:none" d="M1115.179688,526.472656L1115.140625,526.488281L1115.121094,526.507813L1115.121094,526.539063L1115.140625,526.578125C1115.24353,526.681702,1115.364502,526.764648,1115.492188,526.835938C1115.571899,526.873047,1115.648682,526.915894,1115.726563,526.957031L1115.789063,526.972656C1115.80603,526.953979,1115.811279,526.932068,1115.816406,526.910156C1115.779785,526.801819,1115.712646,526.707336,1115.632813,526.625L1115.511719,526.542969L1115.375,526.484375L1115.242188,526.464844L1115.179688,526.472656z"/>
</svg>
