<?xml version="1.0" encoding="UTF-8" standalone="no"?>
<svg id="svg4156" xmlns:rdf="http://www.w3.org/1999/02/22-rdf-syntax-ns#" xmlns="http://www.w3.org/2000/svg" height="378" viewBox="0 0 503 378" width="503" version="1.1" xmlns:cc="http://creativecommons.org/ns#" xmlns:dc="http://purl.org/dc/elements/1.1/">
<path id="path4166" d="m27.372 374.95c-8.881-4.58-21.372-23.94-21.372-33.13 0-5.9 14.458-21.71 28.446-31.12 26.668-17.93 34.672-39.4 26.005-69.76-1.952-6.84-4.208-14.92-5.013-17.94-0.80487-3.025-1.8874-6.4-2.4056-7.5-2.0369-4.3234-4.1285-13.333-4.6254-19.923-0.28712-3.8078-0.97347-7.7667-1.5252-8.7976-0.55174-1.0309-0.94513-5.5655-0.8742-10.077 0.1874-11.919 0.13777-12.48-0.95168-10.759-1.0737 1.6971-4.6593 17.849-7.1162 32.056-2.8344 16.39-7.6518 30.064-15.502 44-0.77453 1.375-1.4259 3.4-1.4476 4.5-0.189 9.63-15.537 33.35-19.205 29.69-1.6376-1.64-0.97142-16.12 0.906-19.69 10.824-20.56 16.48-37.93 17.74-54.5 0.2718-3.575 1.1808-12.575 2.02-20 0.83922-7.425 1.5311-16.511 1.5376-20.191s0.40723-6.9354 0.8906-7.2341c0.80238-0.4959 3.6645-11.528 6.2459-24.075 1.7006-8.2659 2.859-11.624 6.8986-20 5.388-11.174 7.976-17.261 7.976-18.763 0-1.918 8.337-16.181 13.216-22.611 2.348-3.094 5.098-7.158 6.112-9.031 6.9-12.753 29.646-25.765 59.672-34.138 13.363-3.7263 22.865-6.8593 28.5-9.3975 3.594-1.6188 11.439-4.7812 17.128-6.9048 4.5348-1.6926 15.247-4.3349 31.314-7.7239 18.367-3.8742 46.51-1.0855 68.558 6.7935 5.5 1.9654 12.927 4.6052 16.504 5.8662 8.6522 3.0499 17.619 4.4329 34.496 5.3207 13.305 0.69984 14.389 0.91902 21.839 4.4127 4.31 2.022 8.07 3.676 8.35 3.676 0.28035 0 4.6104 2.0714 9.6224 4.603 12.14 6.1322 16.808 5.9757 30.69-1.0289 14.084-7.1065 25.42-6.0686 36.5 3.3416 1.1 0.93422 6.7366 3.8272 12.526 6.4288 15.346 6.8966 21.031 13.918 24.82 30.655 3.4079 15.056 5.7336 21.841 9.3999 27.423 8.2464 12.554 9.4019 17.924 6.739 31.317-0.71075 3.5748-0.96202 8.4868-0.58826 11.5 4.0484 32.637 4.2787 70.919 0.52492 87.26-1.2919 5.6236-1.4484 49.756-0.20213 57 1.2405 7.2104 4.3888 15.144 10.753 27.097 10.212 19.179 9.8825 18.32 10.337 26.988 0.31645 6.0292-0.0273 9.5565-1.3068 13.409-1.652 4.9737-1.6348 9.0476 0.0622 14.757 0.66534 2.2385 0.61196 2.25-10.448 2.25-6.11-0.01-11.11-0.24-11.11-0.52 0-0.28246 0.43582-1.295 0.96849-2.25 8.9959-16.129 5.1949-33.503-11.508-52.602-2.3403-2.6759-5.6068-7.6259-7.2589-11s-4.1728-7.4847-5.6016-9.1347-2.5983-4.04-2.599-5.3112c-0.00067-1.2712-1.6235-7.7962-3.6063-14.5-7.0828-23.947-9.4986-34.345-10.498-45.189-1.606-17.418-3.9747-25.473-7.4965-25.494-0.60498-0.003-2.9636-1.3563-5.2413-3.0063-2.2778-1.65-4.64-3-5.2494-3-1.3309 0-20.985-7.8508-22.409-8.9516-3.0816-2.381-6.7679-2.031-13.929 1.3227-9.3907 4.3977-8.8126 2.7725-8.7801 24.682l0.028 18.86 4.6502 5.7086c2.5576 3.1397 5.328 7.0193 6.1564 8.6214 0.82845 1.602 2.9786 4.8417 4.7781 7.1992 3.0226 3.9598 4.2774 7.2638 10.546 27.768 1.1685 3.8222 2.051 9.5026 2.051 13.201 0 8.303 1.8548 15.34 6.3874 24.234 1.9869 3.8988 3.6324 8.6112 3.6567 10.472 0.11473 8.7953 3.959 17.006 10.454 22.328 6.9536 5.698 12.492 16.043 9.1284 17.05-0.61951 0.1855-14.644 0.59634-31.166 0.91299l-30.039 0.57573-1.7783-3.0104c-1.567-2.6528-1.6347-3.652-0.56977-8.4108 1.0413-4.6531 0.97266-5.9899-0.4962-9.6609-1.8471-4.6164-3.2319-10.278-4.6234-18.901-2.0934-12.973-2.1124-13.03-4.8171-14.438-4.0445-2.1046-7.045-5.7993-9.4973-11.695-1.2281-2.9522-3.3089-7.3926-4.6242-9.8676-1.3152-2.475-3.3192-6.2606-4.4533-8.4123-1.4845-2.8166-3.8824-4.9683-8.562-7.6828-3.575-2.0738-7.749-4.7444-9.2755-5.9349-4.089-3.1886-9.7245 2.0131-9.7245 8.9758 0 2.6339-1.7074 10.019-4.0587 17.554-1.0297 3.3-2.7623 9.6722-3.8502 14.16-1.0879 4.4882-3.1234 10.351-4.5233 13.028-2.4036 4.5967-3.3663 7.9821-5.6341 19.812-1.3101 6.8339-0.28934 12.196 4.4901 23.589 0.66205 1.5781-24.189 2.9007-54.655 2.9087-11.237 0.003-11.657-0.93689-6.3825-14.301 3.0087-7.623 3.6286-10.447 3.6217-16.502-0.007-6.1375 0.46197-8.2154 2.9337-13 3.8907-7.5312 6.1758-16.588 7.1139-28.195 1.5354-18.999 3.013-33.609 3.8938-38.5 0.49521-2.75 1.2184-6.9125 1.607-9.25l0.70664-4.25-3.3817 0.00062c-1.8599 0.00035-8.3317 1.6159-14.382 3.5901-6.05 1.9742-13.475 3.9773-16.5 4.4512-3.025 0.47394-8.425 1.3658-12 1.9819-3.8782 0.66835-12.241 0.91144-20.733 0.60265-16.054-0.58377-15.05-0.95972-20.67 7.7365-4.1779 6.4641-10.022 12.104-19.597 18.912l-7.5 5.3326-0.28619 8.5086c-0.19821 5.8926 0.25034 10.334 1.4589 14.446 2.0438 6.9543 2.1909 16.875 0.45689 30.82-1.26 10.25 0.05 14.62 4.41 14.62 2.4284 0 10.231 7.9412 10.657 10.847l0.42285 2.8811-8.9605 0.63603c-4.93 0.34-20.36 0.63-34.3 0.63h-25.35v-5.0184c0-2.7601 0.93419-8.4976 2.076-12.75 5.814-21.65 1.338-45.99-5.943-32.33-3.581 6.72-8.012 10.99-15.155 14.61-4.809 2.44-20.978 21.68-20.978 24.96 0 0.64004-0.69243 3.4954-1.5387 6.3452l-1.5387 5.1815h-8.8208c-7.8721 0-9.4563-0.32776-14.73-3.0474z"/>
</svg>
