<?xml version="1.0" encoding="UTF-8"?>
<svg xmlns="http://www.w3.org/2000/svg" width="649.263mm" height="490.216mm" viewBox="-1770.511719 224.049683 649.262939 490.216370">
    <path transform="matrix(-1,0,0,-1,0,0)" style="stroke:none;fill:#000000;fill-rule:evenodd" d="M1576.645386,-671.743652L1576.456543,-671.920654C1576.078003,-671.346985,1575.587158,-670.853333,1575.015015,-670.472595C1575.431519,-672.428894,1575.541138,-674.445862,1575.340576,-676.436035C1573.569214,-675.109009,1572.133179,-673.375,1571.161011,-671.386719L1570.957397,-671.718323C1571.671021,-674.03418,1572.049561,-676.442139,1572.081177,-678.865234C1571.067993,-677.962036,1570.091553,-677.022522,1569.150146,-676.044739C1570.278442,-677.997742,1570.514893,-680.350708,1569.798706,-682.489502C1569.310181,-682.883301,1568.610352,-682.859619,1568.132324,-682.453064C1567.339966,-680.550293,1566.472534,-678.679321,1565.532349,-676.845093C1564.385742,-682.418457,1563.048584,-687.946594,1561.521118,-693.428101C1560.687256,-694.497925,1560.0448,-695.71228,1559.628418,-697.003296C1558.685303,-696.991333,1557.895386,-696.308289,1557.752319,-695.375854C1558.195801,-693.648682,1557.712646,-691.811646,1556.473389,-690.529419C1555.657959,-690.558105,1554.990723,-691.165344,1554.878174,-691.973267C1556.157959,-699.354248,1553.919189,-706.937134,1548.835571,-712.439209C1539.579834,-714.81604,1529.866455,-714.875854,1520.582153,-712.613403C1512.952515,-713.670898,1505.571167,-709.304077,1502.823608,-702.108154C1502.875244,-698.812195,1504.865112,-695.862,1507.901489,-694.578979C1516.000488,-688.852905,1525.219849,-684.899658,1534.95105,-682.980103C1535.936279,-681.623535,1536.782715,-680.172852,1537.478516,-678.647461C1539.768921,-677.432617,1541.418335,-675.285034,1542.001587,-672.758789C1545.293091,-669.509521,1548.204712,-665.892883,1550.676025,-661.983398C1549.957397,-660.898804,1549.412964,-659.706665,1549.065186,-658.452942C1549.878784,-659.06189,1550.98938,-659.168701,1551.901489,-658.721863C1551.714478,-658.407104,1551.580444,-658.063721,1551.505981,-657.7052L1551.715454,-657.334717C1552.524658,-657.703491,1553.47937,-657.532959,1554.107544,-656.903564C1555.451172,-652.072815,1555.57959,-646.960327,1554.480103,-642.068237C1554.680908,-641.000366,1554.522217,-639.896118,1554.029907,-638.927429C1553.858521,-638.949951,1553.684082,-638.937256,1553.520264,-638.881958C1553.445313,-637.4552,1553.207886,-636.039551,1552.814209,-634.666016C1552.18396,-635.266357,1551.441772,-635.73645,1550.630005,-636.050415C1550.210083,-635.828613,1549.952393,-635.385864,1549.976929,-634.911621C1551.699097,-634.03894,1552.819458,-632.281006,1552.877686,-630.351379C1552.684814,-629.290894,1551.883301,-628.438599,1550.837036,-628.179199C1549.987793,-628.572876,1548.97998,-628.398499,1548.32605,-627.72876C1550.371704,-625.41394,1550.657227,-622.049438,1549.029663,-619.423706C1548.500732,-619.874512,1547.849731,-620.155396,1547.15918,-620.232666C1547.226929,-619.209717,1546.849731,-618.199524,1546.123413,-617.476318C1545.863892,-617.477539,1545.624512,-617.340637,1545.492798,-617.117004C1547.298706,-613.491211,1546.837891,-609.152832,1544.311035,-605.986938C1544.063477,-607.215942,1543.575439,-608.389343,1542.880493,-609.432983C1542.799927,-605.586853,1540.841919,-601.972534,1537.663452,-599.805542C1537.165283,-597.86853,1536.234741,-596.072998,1534.940308,-594.54834C1535.26062,-595.791626,1534.809448,-597.129639,1533.803345,-597.927551C1533.627808,-597.168945,1533.319458,-596.444824,1532.893799,-595.792847C1532.56604,-596.026611,1532.168945,-596.14856,1531.766968,-596.131287C1531.053101,-592.803589,1528.816162,-589.969116,1525.744629,-588.503662C1523.883179,-585.228699,1522.010254,-581.961182,1520.125244,-578.699707C1517.212036,-575.633545,1514.327026,-572.541626,1511.469849,-569.423035C1504.605835,-559.494263,1500.001953,-548.196655,1497.971069,-536.298218C1492.537842,-525.126831,1491.354736,-512.33197,1494.647095,-500.353638C1495.395996,-499.076111,1495.708252,-497.57782,1495.527954,-496.108215C1495.065674,-496.415405,1494.572021,-496.674438,1494.05542,-496.876648C1494.757813,-493.944824,1494.662231,-490.866089,1493.779541,-487.983398C1492.491577,-486.401062,1491.095459,-484.907471,1489.604736,-483.514526C1490.33313,-481.59259,1489.508301,-479.430786,1487.68811,-478.476074C1487.49939,-479.532043,1487.062012,-480.529236,1486.406738,-481.378418C1485.295654,-481.097351,1484.136475,-481.018188,1482.995972,-481.137939C1482.869629,-480.836548,1482.63269,-480.596313,1482.339111,-480.452576C1480.640259,-481.558044,1478.548462,-481.906067,1476.581421,-481.416748C1476.168701,-482.511475,1475.686523,-483.578979,1475.138184,-484.612427C1475.200562,-483.725708,1474.834106,-482.850281,1474.155762,-482.276306C1473.199219,-481.874023,1472.10437,-481.983643,1471.244019,-482.563843C1470.550659,-484.175415,1469.532715,-485.621826,1468.250732,-486.819336C1467.649414,-485.317261,1466.112793,-484.443665,1464.515381,-484.703735C1464.100342,-485.764038,1463.677246,-486.820679,1463.245239,-487.874146C1463.078735,-487.196411,1462.520508,-486.66925,1461.832397,-486.560913C1461.249634,-487.300354,1460.27478,-487.609558,1459.372192,-487.341492C1459.345703,-486.823059,1458.908569,-486.435547,1458.390503,-486.421875C1457.48291,-487.545776,1456.480957,-488.593262,1455.398438,-489.549927C1454.212646,-490.243469,1452.817993,-490.459473,1451.477539,-490.159302C1449.612427,-489.5495,1447.63269,-489.898926,1446.085083,-491.103882C1445.837036,-493.240784,1444.40564,-494.979858,1442.357056,-495.635986C1441.126099,-495.444214,1439.882813,-495.332825,1438.637451,-495.304077C1438.514771,-494.315613,1437.695313,-493.546448,1436.701538,-493.462952C1435.702393,-495.352783,1434.354126,-497.041382,1432.733276,-498.435181C1431.605225,-498.687805,1430.404053,-498.385254,1429.536255,-497.62262C1429.486816,-496.736694,1429.135864,-495.886597,1428.544312,-495.225403C1427.445068,-496.781799,1426.252319,-498.271912,1424.975098,-499.686035C1422.03833,-500.442627,1419.303711,-501.830505,1416.961426,-503.756836C1414.816406,-505.234009,1412.550903,-506.527466,1410.187622,-507.62207L1409.723145,-507.291382C1410.275391,-505.533752,1410.446167,-503.68634,1410.224976,-501.8573C1409.760376,-504.029968,1408.21521,-505.826355,1406.137817,-506.614685C1403.273438,-506.440186,1400.467651,-507.384888,1398.29248,-509.256714C1397.737061,-509.5755,1397.019409,-509.457031,1396.620972,-508.957886C1396.180908,-508.261475,1395.946289,-507.454407,1395.931641,-506.630554C1395.259399,-506.989502,1394.618652,-507.404541,1394.013672,-507.867981C1394.998169,-505.726807,1394.829468,-503.219482,1393.570679,-501.22699C1392.66394,-502.048218,1391.298096,-502.178162,1390.249756,-501.546875C1388.78772,-500.131287,1386.485107,-500.041626,1384.921387,-501.343872C1383.255371,-503.114014,1382.755127,-505.709351,1383.638428,-507.974243C1382.674805,-505.766968,1380.210693,-504.568726,1377.876343,-505.163818C1377.403931,-505.128174,1376.974121,-505.457458,1376.922852,-505.927979C1377.205933,-506.820984,1376.938721,-507.804626,1376.249023,-508.439209C1372.480347,-508.691895,1368.77002,-509.624207,1365.328369,-511.180786C1363.074707,-510.062134,1360.570313,-509.571411,1358.060913,-509.754333C1356.168701,-510.858459,1355.447144,-513.233337,1356.413818,-515.199341C1356.442627,-518.964355,1356.72998,-522.727295,1357.273071,-526.453064C1357.827637,-532.301636,1358.058472,-538.180908,1357.9646,-544.054993C1359.913086,-546.77478,1360.276611,-550.354736,1358.914307,-553.410583C1360.463501,-556.763184,1361.643921,-560.282959,1362.429077,-563.891724C1363.519043,-565.549438,1364.011719,-567.519897,1363.831909,-569.495667C1363.308472,-571.971436,1363.550537,-574.565674,1364.522705,-576.901978C1365.926514,-578.838989,1366.358154,-581.347595,1365.681885,-583.642151C1366.897949,-586.000671,1367.994629,-588.420105,1368.967529,-590.888977C1368.597656,-592.997314,1369.564697,-595.116699,1371.398926,-596.220337C1374.817871,-600.9505,1377.02417,-606.738464,1376.246826,-612.537842L1376.693359,-616.261108C1377.363281,-622.257813,1376.268311,-628.05542,1377.824463,-634.307983C1375.09668,-631.53833,1376.150513,-638.65686,1376.835815,-645.208008C1373.013916,-642.497925,1377.345703,-650.602661,1377.197266,-652.379272L1377.374146,-653.61676C1377.605469,-657.745117,1376.271362,-661.809387,1373.637207,-664.996704C1372.799316,-667.529053,1371.805908,-670.008118,1370.66333,-672.418396C1365.151855,-674.097168,1359.398682,-674.838501,1353.641846,-674.611206C1348.790161,-675.417114,1343.816162,-674.758057,1339.342041,-672.716003C1336.134766,-664.990601,1338.305176,-656.152222,1344.72522,-650.790283C1347.341553,-650.649475,1349.932983,-650.185059,1352.434937,-649.407471C1353.912964,-637.992798,1353.116211,-626.408142,1350.0896,-615.303345C1347.882813,-613.060669,1346.408203,-608.286011,1344.212036,-607.993652C1345.343628,-604.255981,1339.310425,-598.91626,1338.038208,-593.888367C1338.210815,-587.680725,1337.906616,-581.469971,1337.128174,-575.309021L1336.664063,-574.148438C1334.783447,-568.750366,1332.520996,-563.494873,1329.892578,-558.41864C1327.89978,-569.258545,1327.631592,-580.345459,1329.0979,-591.268982C1329.584839,-597.324951,1327.908447,-606.073669,1329.472168,-609.455566C1323.626465,-613.234985,1327.994873,-627.240723,1326.092651,-635.973022C1323.869873,-630.751099,1323.708008,-649.060181,1320.301514,-654.772583L1319.793823,-655.914856C1316.079102,-651.06311,1315.765381,-670.298584,1314.80249,-677.705688C1312.364014,-683.108276,1306.847656,-686.474976,1300.928101,-686.172363C1298.175415,-687.839661,1295.212402,-689.131104,1292.117188,-690.012573C1286.348389,-689.5625,1280.596191,-688.914551,1274.871826,-688.07019C1271.987305,-685.710327,1271.495361,-681.487793,1273.758423,-678.526611L1274.68689,-676.205444C1275.763916,-672.696838,1277.395508,-669.38562,1279.521973,-666.394226C1285.620361,-665.17981,1290.845215,-661.191162,1293.625488,-655.62915C1298.048828,-650.575195,1299.896973,-643.762878,1298.634399,-637.16626L1298.556396,-635.918701C1299.289673,-632.094788,1302.855347,-624.189697,1299.703369,-624.318115C1299.760254,-617.016724,1298.456665,-610.894287,1295.738525,-609.889771C1298.217163,-593.43335,1298.150879,-586.117371,1296.024902,-579.539185C1297.033691,-575.131348,1297.029297,-570.55896,1296.011353,-566.153198C1295.957886,-567.106812,1295.380859,-567.957031,1294.514893,-568.359924C1293.727783,-564.608459,1292.936279,-560.858521,1292.140381,-557.108582C1292.194092,-555.543213,1291.796753,-553.993408,1290.996216,-552.647095L1290.664551,-552.491577C1289.950684,-546.757263,1289.44043,-540.997925,1289.135376,-535.227295C1287.552002,-534.96991,1286.299194,-533.690186,1286.079468,-532.101318C1286.546875,-528.218994,1286.896851,-524.326111,1287.129517,-520.423218L1286.569824,-519.952087C1285.737305,-520.197266,1284.871094,-520.301575,1284.004272,-520.259888C1286.120972,-516.35022,1285.92749,-511.566467,1283.498779,-507.842712C1282.896484,-508.214294,1282.237549,-508.485962,1281.548218,-508.64624C1282.035156,-507.268127,1281.927002,-505.733887,1281.250488,-504.438354C1279.957642,-504.430054,1278.664551,-504.459167,1277.373413,-504.525635C1277.056152,-504.961121,1276.615234,-505.290161,1276.110352,-505.47821L1275.924316,-505.18103C1276.638916,-501.031494,1276.71521,-496.81665,1276.151367,-492.643982C1275.154297,-490.351563,1273.790771,-488.234497,1272.116821,-486.377869C1271.724854,-486.294556,1271.395996,-486.031555,1271.215576,-485.673645C1271.293457,-485.307922,1271.364258,-484.940796,1271.42749,-484.572205L1271.23584,-484.520996C1270.537354,-485.270569,1269.970215,-486.131592,1269.554932,-487.068176C1269.678589,-485.562988,1269.14209,-484.085754,1268.084473,-483.00769C1267.48877,-484.030884,1266.610352,-484.864136,1265.556519,-485.40387C1266.467529,-484.129211,1267.044922,-482.652649,1267.241455,-481.098328C1264.733398,-480.948853,1262.54126,-482.807312,1262.281006,-485.306335L1261.846924,-485.630676C1261.852539,-483.333008,1261.768677,-481.0354,1261.595459,-478.744263C1260.825195,-479.230164,1260.046143,-479.702148,1259.258789,-480.159607C1259.229736,-478.349182,1259.464355,-476.545288,1259.955444,-474.802551C1258.544678,-475.086609,1257.107422,-475.214294,1255.668579,-475.184875C1255.325317,-472.539185,1254.774902,-469.930908,1254.020142,-467.37207C1253.959961,-466.179016,1253.372559,-465.069214,1252.424561,-464.342041C1251.888672,-464.503479,1251.326416,-464.559753,1250.769287,-464.506287L1250.571533,-464.334473C1251.176514,-463.474731,1251.142334,-462.318848,1250.488403,-461.495789C1249.561035,-461.826538,1248.512085,-461.580994,1247.84082,-460.861877C1247.360962,-460.203613,1247.108276,-459.409485,1247.120728,-458.59491C1247.822266,-458.135925,1248.123047,-457.238647,1247.842407,-456.448364C1247.186768,-456.458374,1246.573486,-456.07196,1246.30188,-455.475464C1247.940918,-454.534607,1249.240723,-453.100281,1250.016479,-451.376953C1248.271729,-451.312744,1246.540161,-451.037903,1244.860962,-450.559692C1245.915771,-449.983948,1246.53833,-448.805908,1246.413574,-447.611267C1245.368652,-446.131531,1243.74585,-445.143921,1241.950806,-444.901428C1241.938477,-443.133789,1242.755371,-441.460449,1244.156738,-440.382996C1243.025635,-439.845032,1242.135986,-438.873291,1241.679565,-437.704651C1242.657227,-437.380615,1243.366699,-436.521423,1243.492432,-435.499268C1242.362305,-435.707764,1241.269653,-434.985718,1241.003296,-433.867737C1241.150391,-433.403198,1241.214233,-432.916443,1241.194092,-432.429626C1239.846558,-432.162476,1238.807373,-431.048157,1238.633911,-429.685425C1239.667969,-428.670959,1240.645996,-427.59967,1241.561279,-426.476929C1241.009766,-426.232666,1240.514893,-425.870667,1240.108398,-425.424194C1241.166504,-424.146729,1241.130005,-422.262268,1240.021484,-421.028503C1239.063721,-420.617249,1238.470215,-419.631958,1238.557007,-418.593384C1241.421143,-416.387268,1243.549805,-413.354492,1244.652588,-409.911438C1245.36084,-406.26709,1243.430786,-402.562927,1240.04126,-401.046997C1241.147705,-398.575439,1240.116333,-395.661865,1237.698853,-394.441895C1237.420166,-394.327759,1237.221069,-394.071655,1237.198853,-393.771667C1237.471191,-391.671631,1236.907715,-389.542908,1235.625732,-387.857544C1236.887085,-387.009277,1237.362549,-385.354553,1236.758667,-383.958557C1236.231201,-381.954468,1235.731689,-379.950073,1235.25708,-377.932617C1232.82959,-377.291687,1230.487671,-376.349243,1228.29248,-375.130859C1227.904907,-374.55188,1227.895752,-373.791687,1228.302124,-373.226135C1229.850464,-372.097473,1231.047607,-370.560852,1231.76123,-368.782654C1229.120117,-365.554138,1227.366943,-361.667175,1226.696777,-357.550171C1226.473145,-357.103149,1226.004395,-356.83075,1225.505615,-356.862732C1224.676514,-357.612732,1223.921753,-358.440186,1223.253662,-359.336609C1223.790039,-355.813171,1223.660034,-352.218445,1222.869141,-348.743286C1222.177246,-348.904541,1221.45105,-348.835815,1220.809082,-348.531189C1220.879639,-347.366028,1220.649414,-346.20166,1220.145996,-345.148438C1219.0979,-346.220154,1218.161377,-347.386047,1217.341064,-348.640686C1217.144043,-348.684509,1216.943481,-348.621033,1216.767578,-348.515564C1217.234863,-347.078735,1216.976563,-345.512146,1216.076904,-344.298462C1215.761963,-344.943604,1215.284424,-345.500671,1214.697021,-345.913757C1214.56665,-343.54895,1214.319946,-341.191284,1213.958008,-338.850708C1212.70166,-339.290771,1211.388428,-339.566162,1210.061035,-339.66687C1208.66748,-338.01947,1208.177246,-335.796082,1208.741455,-333.713501C1208.900391,-332.6604,1209.573975,-329.601257,1208.817871,-328.85144C1208.092529,-329.736816,1206.116211,-332.410828,1205.049316,-332.825562C1204.807129,-331.551025,1205.455078,-328.32019,1204.948486,-327.125854C1203.43689,-328.170288,1201.427368,-328.205994,1199.886841,-327.205566C1198.640137,-324.776489,1196.128784,-323.266052,1193.398682,-323.304199C1192.358398,-323.666321,1191.867188,-321.366455,1191.28125,-320.433716C1190.883789,-319.151917,1190.443726,-317.883667,1189.963135,-316.630615C1187.229248,-319.885864,1179.865356,-316.508423,1178.030273,-313.328369C1176.775879,-314.462585,1177.294434,-311.142761,1176.942505,-312.796753L1176.414673,-313.00116C1174.89917,-310.375366,1172.930908,-315.054993,1171.035156,-312.689026C1170.968262,-312.137085,1169.906494,-306.825623,1169.396606,-306.603271C1168.960693,-307.978149,1168.623047,-309.378296,1168.383789,-310.800537L1167.895752,-310.885071C1167.182495,-310.02533,1166.512085,-309.131348,1165.886841,-308.205566C1165.715942,-309.740417,1164.605469,-311.022644,1163.112061,-311.416687C1162.757813,-308.633545,1161.471802,-311.014893,1161.224243,-310.201477C1161.098633,-308.001038,1159.09082,-304.210876,1156.886841,-304.205566C1153.518066,-304.212036,1150.344482,-302.509338,1147.886841,-300.205566C1142.890137,-299.563721,1145.224121,-301.768188,1140.886841,-299.205566C1141.623535,-296.67218,1135.095215,-295.701294,1134.047974,-293.279724C1133.709229,-293.560669,1133.365967,-293.83606,1133.017456,-294.104736C1131.243408,-291.799316,1127.030884,-292.48291,1126.051025,-289.743896C1124.420166,-285.957947,1123.54248,-281.886536,1123.469238,-277.764893C1121.822998,-274.00946,1121.074707,-269.929871,1121.281616,-265.834717C1123.953735,-263.490601,1127.009766,-261.638855,1130.324951,-260.355957C1133.142578,-258.490479,1138.381104,-259.472961,1140.886841,-257.205566C1146.066162,-258.190369,1148.803223,-255.343445,1154.044922,-254.777283C1156.836914,-253.09082,1159.890015,-251.880432,1163.079102,-251.195313C1166.60376,-251.934631,1170.21875,-250.265625,1171.941895,-247.10321C1172.679443,-247.025085,1173.2948,-246.489868,1173.473755,-245.770142C1173.897461,-242.745544,1174.677246,-239.784973,1175.798828,-236.944214C1177.70459,-235.634949,1179.430664,-234.071411,1180.922119,-232.304565C1182.303101,-232.752441,1183.828857,-232.207581,1184.603882,-230.980591C1184.12146,-230.481934,1183.669434,-229.954163,1183.255371,-229.397583C1186.115967,-228.237061,1189.360229,-228.324707,1192.156738,-229.633118C1193.818481,-229.340698,1195.428711,-228.816711,1196.943848,-228.074219C1198.630859,-229.009094,1200.721191,-228.885132,1202.29248,-227.766174C1204.441895,-226.348083,1206.876465,-225.471008,1209.436279,-225.191895C1213.147217,-225.74585,1216.888428,-226.078735,1220.638672,-226.189087C1222.21582,-227.558899,1224.250977,-228.287109,1226.339111,-228.228027C1226.532349,-227.779053,1226.685303,-227.315308,1226.800415,-226.840515C1228.734131,-226.863342,1230.640015,-226.327515,1232.282104,-225.305786C1232.537231,-226.404114,1233.143799,-227.390259,1234.011963,-228.109863C1235.93457,-226.302551,1238.221436,-224.916504,1240.713745,-224.049683C1239.39502,-224.50824,1238.456055,-225.702271,1238.325195,-227.092163C1238.296021,-227.61499,1238.5802,-228.107056,1239.052246,-228.333801C1241.149292,-226.483154,1244.182129,-226.048157,1246.716797,-227.231079C1248.131836,-228.996582,1250.160156,-230.175659,1252.394897,-230.529297C1253.581543,-232.048279,1255.163574,-233.211975,1256.967529,-233.891357C1257.509399,-233.604187,1258.130859,-233.504395,1258.736572,-233.600159C1259.539063,-235.915527,1260.933716,-237.966553,1262.793701,-239.562195C1266.501221,-241.001404,1268.821655,-244.695374,1268.503906,-248.65979C1267.776123,-249.800781,1266.899902,-250.840393,1265.896973,-251.749207C1267.595947,-252.957458,1268.507446,-255.019531,1268.251221,-257.088318C1269.590942,-257.496216,1270.84436,-258.15332,1271.938965,-259.026672C1271.265381,-261.125549,1271.316406,-263.387573,1272.087646,-265.452576C1272.299561,-264.109741,1273.106689,-262.925293,1274.282471,-262.243408C1277.312012,-264.627747,1279.528809,-267.892822,1280.624512,-271.589172C1282.021484,-274.169434,1282.661133,-277.094543,1282.473511,-280.022766C1281.989746,-286.301758,1285.601196,-295.302246,1294.886841,-301.205566C1297.957397,-301.648132,1302.018066,-305.576416,1305.033691,-306.303955L1304.854248,-306.548462C1303.829712,-306.705139,1302.816406,-306.928467,1301.820435,-307.215149C1302.584351,-307.197937,1303.247314,-307.749023,1303.355713,-308.505249C1304.095337,-312.136719,1305.689209,-315.551147,1307.999878,-318.448608C1307.83728,-321.540588,1309.977417,-324.275391,1313.018555,-324.857117C1314.685303,-324.508606,1316.436523,-324.843872,1317.86084,-325.777649C1316.855225,-326.700562,1316.299194,-328.041382,1316.360596,-329.404541C1317.550049,-329.764832,1318.255493,-330.985291,1317.956909,-332.191895C1317.738037,-333.073059,1317.856689,-333.995239,1318.295898,-334.7901C1325.91394,-333.02301,1333.808838,-332.837341,1341.501465,-334.244019C1346.720337,-338.426392,1353.389648,-340.386353,1360.04126,-339.691284C1364.426758,-339.104919,1368.893433,-339.981812,1372.733154,-342.180237C1382.39502,-344.024048,1391.819336,-346.942566,1400.832397,-350.881104C1403.510864,-353.209778,1407.171021,-354.04303,1410.594116,-353.10553C1414.138916,-353.30188,1417.689209,-352.726013,1420.98999,-351.419006C1427.610718,-353.282593,1434.712646,-352.585327,1440.845337,-349.471313C1443.806885,-349.220459,1446.798218,-349.823914,1449.431641,-351.201843C1452.36438,-349.663452,1455.301147,-348.132568,1458.241821,-346.609192C1460.158203,-346.125244,1462.190552,-346.546692,1463.753052,-347.75708C1462.809692,-347.536316,1461.850952,-348.088318,1461.591797,-349.021606C1463.782959,-349.513428,1466.032227,-349.666443,1468.269775,-349.475708C1469.155884,-350.582703,1470.714478,-350.928101,1471.984863,-350.29834C1472.967651,-349.196899,1473.796021,-347.958435,1474.433716,-346.627869C1475.342041,-346.32489,1476.33606,-346.445251,1477.134521,-346.974548C1476.383911,-347.589783,1476.083008,-348.597595,1476.344482,-349.532471C1476.592407,-349.750977,1476.805664,-350.004822,1476.994629,-350.276001C1477.108887,-349.483459,1477.605469,-348.802734,1478.329346,-348.459717C1479.178101,-349.852173,1479.82666,-351.358093,1480.25354,-352.931946L1480.811157,-353.303894C1485.651367,-352.233948,1490.363281,-350.650513,1494.86731,-348.580566C1496.203613,-348.360779,1497.574219,-348.752502,1498.598877,-349.638306C1497.744507,-350.073303,1497.115845,-350.849854,1496.865234,-351.775208C1500.422852,-352.774963,1504.20166,-352.738159,1507.738403,-351.667236C1507.803589,-352.060059,1508.125366,-352.375061,1508.519531,-352.36145C1508.972656,-351.380554,1509.979126,-350.745422,1511.059692,-350.756714C1511.590088,-351.605347,1512.022217,-352.507202,1512.351807,-353.452148C1513.456543,-353.322144,1514.571899,-353.297607,1515.681519,-353.37616L1515.529419,-353.758606C1515.108276,-353.912537,1514.704834,-354.110718,1514.322021,-354.344238L1514.414673,-354.651062C1515.785767,-354.172974,1517.320068,-354.420532,1518.471436,-355.305298C1518.327881,-355.702332,1518.246338,-355.927795,1518.103149,-356.32489C1519.925903,-357.045593,1521.988892,-356.380981,1523.034912,-354.722778C1521.769775,-353.816223,1520.639771,-352.737793,1519.673218,-351.517944C1523.769775,-351.707275,1527.709106,-353.132568,1530.978394,-355.608215C1533.374023,-355.338196,1535.806396,-355.617432,1538.079224,-356.421448C1537.271729,-356.668579,1536.504272,-357.029724,1535.797974,-357.492554C1538.308594,-357.841736,1540.839478,-358.021973,1543.374146,-358.031738C1544.563721,-358.502319,1545.688599,-359.12085,1546.723267,-359.873047L1546.570068,-360.147888C1549.538696,-360.875305,1552.624756,-360.979187,1555.635132,-360.450439C1555.697754,-360.735779,1555.728638,-361.0271,1555.735352,-361.319275C1557.174927,-360.665649,1558.854614,-360.879517,1560.080566,-361.87793C1559.342285,-362.607727,1558.568359,-363.298523,1557.760132,-363.950073C1560.946533,-363.880249,1564.135376,-363.965393,1567.313477,-364.205566C1571.779175,-365.053955,1575.835205,-367.39325,1578.808472,-370.831604C1579.574341,-371.89856,1580.270508,-373.01355,1580.892944,-374.169983C1579.105835,-372.676453,1577.0625,-371.521973,1574.860474,-370.763245C1577.139648,-372.997131,1579.796143,-374.766907,1582.735107,-376.01062C1582.85376,-375.776917,1582.908081,-375.513184,1582.84314,-375.259155C1585.723755,-377.187317,1588.76123,-378.877014,1591.918945,-380.306824L1591.762817,-380.487549C1591.26001,-380.090088,1590.568359,-380.018188,1589.97876,-380.274048C1595.115601,-383.483337,1600.850952,-385.613647,1606.837402,-386.535217C1606.5896,-386.652649,1606.352539,-386.791565,1606.128296,-386.949341C1612.869629,-385.6875,1619.849609,-387.335999,1625.314941,-391.479431C1629.859985,-393.282471,1634.793701,-393.791016,1639.611206,-392.954285C1643.915771,-392.405701,1648.176147,-391.81781,1652.468384,-391.180054C1654.787964,-392.12854,1657.421021,-391.761536,1659.39502,-390.217896C1666.183472,-388.631897,1673.288208,-389.094849,1679.812988,-391.549622C1684.9646,-395.075256,1691.412964,-396.14032,1697.424561,-394.457886C1701.948242,-394.934082,1706.520264,-394.421387,1710.825562,-392.95343C1716.098145,-387.044556,1722.831299,-382.606384,1730.34021,-380.090393C1735.013306,-378.198547,1738.385376,-374.03302,1739.266846,-369.069153C1739.181885,-365.161011,1739.674438,-361.267029,1740.730347,-357.503296C1742.353516,-357.288635,1743.569458,-355.871765,1743.541504,-354.234497C1741.556396,-353.878601,1740.152344,-352.049927,1740.317993,-350.039917C1740.025269,-347.315369,1740.35083,-344.560852,1741.271851,-341.980103C1748.966797,-341.307983,1756.704346,-341.683411,1764.298096,-343.096924C1766.118652,-343.889404,1767.057983,-345.942444,1766.471924,-347.839783C1764.974365,-349.826843,1765.186768,-352.625122,1766.972046,-354.358276C1770.229736,-357.882751,1771.344971,-362.913635,1769.882446,-367.484741C1769.301636,-369.500977,1768.641113,-371.494141,1767.903687,-373.458496C1769.305664,-374.5849,1769.713135,-376.571472,1768.873047,-378.161926C1766.925537,-380.213806,1765.584351,-382.762878,1764.996948,-385.530151C1764.785889,-387.20813,1765.798218,-388.798462,1767.404175,-389.328735C1767.837769,-389.333313,1768.253418,-389.493835,1768.591187,-389.765808C1766.788574,-389.307495,1764.883301,-389.874573,1763.622437,-391.241882C1762.44812,-398.470703,1758.275146,-404.84729,1752.120972,-408.817322C1750.187866,-408.010681,1747.942627,-408.424622,1746.426392,-409.869751C1744.627563,-412.250671,1744.5979,-415.535767,1746.341797,-417.957458C1746.874878,-419.860413,1746.196655,-421.894592,1744.629272,-423.098145C1743.799561,-420.624878,1742.929565,-418.164307,1742.020508,-415.718933C1742.006348,-415.044495,1741.520264,-414.476501,1740.854492,-414.366333C1738.971558,-416.436218,1736.929077,-418.3573,1734.747192,-420.109314C1734.712158,-420.770264,1734.745239,-421.432739,1734.842285,-422.087463C1734.650391,-421.764343,1734.245361,-421.638794,1733.904175,-421.796265C1733.107544,-423.196228,1732.80249,-424.82251,1733.037476,-426.416016C1731.490723,-425.127563,1729.274292,-425.167114,1727.776978,-426.513123C1727.669189,-427.539734,1726.931763,-428.393372,1725.936279,-428.66803C1718.944946,-426.073242,1711.181396,-426.574097,1704.581543,-430.045776C1701.716187,-431.827759,1699.474243,-434.43689,1698.146851,-437.539246C1698.606079,-439.070618,1697.874634,-440.709656,1696.427979,-441.390259C1695.264282,-442.033142,1693.802612,-441.689026,1693.075806,-440.575439C1693.018188,-439.997192,1692.730713,-439.464722,1692.268799,-439.112061C1690.942627,-441.058167,1690.077148,-443.270935,1689.730591,-445.60022C1688.726685,-446.067505,1687.611328,-446.193115,1686.528442,-445.962708C1687.359863,-444.366821,1686.980347,-442.390137,1685.619507,-441.212524C1685.020142,-441.432495,1684.451294,-441.724731,1683.923706,-442.084229C1675.720337,-431.291321,1661.952393,-426.2771,1648.729248,-429.265747C1643.645996,-428.358398,1638.45166,-428.287903,1633.345703,-429.056824C1632.797119,-429.25116,1632.279785,-429.523621,1631.806152,-429.861877C1632.126221,-430.992065,1632.702026,-432.016663,1633.50061,-432.878052C1631.186523,-431.207336,1628.620117,-429.925903,1625.894775,-429.078491C1624.225708,-431.749634,1623.637573,-434.945679,1624.251343,-438.035156C1625.605591,-462.719727,1619.70166,-487.258301,1607.266968,-508.625122C1603.202393,-509.948181,1600.72229,-514.101013,1601.480591,-518.307861C1605.450195,-531.994995,1611.793091,-544.864868,1620.230225,-556.350037C1620.964233,-555.953735,1621.36084,-555.12793,1621.172729,-554.314758L1621.039307,-553.916748C1622.948486,-556.14856,1624.813232,-558.415527,1626.634888,-560.719421C1626.00769,-560.037476,1625.963501,-559.008179,1626.532959,-558.277222C1631.484619,-562.593445,1635.996094,-567.391052,1639.999634,-572.598694C1644.80957,-577.06665,1649.983643,-581.123169,1655.470459,-584.727661C1655.88208,-585.118958,1656.108398,-585.664185,1656.113159,-586.232056C1655.802979,-586.283203,1655.516724,-586.431824,1655.28479,-586.644897C1658.459839,-589.706543,1660.355225,-593.884399,1660.572632,-598.289856C1659.462402,-598.92395,1658.63501,-599.9552,1658.261963,-601.178162C1659.272461,-602.97876,1659.435303,-605.139404,1658.706421,-607.071289C1657.846191,-610.243164,1657.328247,-613.492188,1657.158936,-616.774231C1657.238647,-621.569092,1657.486694,-626.358521,1657.902466,-631.135986C1657.754395,-630.424744,1657.324585,-629.796265,1656.710449,-629.40918C1656.151367,-629.691772,1655.500488,-629.749512,1654.905029,-629.556396C1654.49707,-628.160522,1653.675293,-626.910156,1652.558716,-625.978027C1652.597778,-629.691895,1651.695923,-633.349487,1649.935181,-636.61969C1649.483887,-636.575684,1649.05835,-636.837036,1648.889038,-637.25769C1649.104004,-638.377197,1649.081299,-639.530151,1648.818481,-640.639343C1648.503906,-640.273193,1648.182861,-639.912598,1647.854614,-639.558655C1647.215698,-641.840942,1646.624634,-644.136902,1646.082031,-646.44397C1645.779907,-646.345581,1645.478394,-646.244629,1645.177856,-646.141602C1644.753784,-650.951294,1645.907349,-655.755005,1648.470581,-659.846863C1650.307983,-663.218872,1649.18396,-667.460693,1645.917847,-669.480286C1644.911255,-669.055786,1643.922852,-668.598328,1642.947388,-668.106445C1642.483521,-668.558472,1641.777222,-668.671143,1641.199341,-668.379395C1641.043701,-667.899902,1640.743408,-667.479797,1640.339478,-667.178101L1639.85022,-667.217285C1638.022949,-669.027832,1637.061523,-671.51947,1637.198242,-674.088135C1637.597778,-674.490234,1637.764893,-675.069946,1637.625977,-675.619568C1628.9198,-676.088623,1620.237061,-674.30719,1612.419067,-670.447632C1610.99585,-667.793213,1609.995728,-664.939026,1609.449707,-661.977051C1608.775879,-661.233948,1608.66626,-660.122559,1609.182251,-659.262329C1610.917847,-659.461792,1612.654175,-658.835205,1613.863647,-657.574463C1613.256714,-657.862793,1612.538452,-657.694336,1612.131348,-657.15918C1612.195923,-656.699341,1612.258179,-656.238586,1612.317993,-655.778076C1611.948975,-655.558594,1611.664795,-655.21582,1611.528687,-654.809021C1616.565186,-651.034973,1622.647827,-648.894165,1628.937866,-648.682434C1632.297363,-645.430176,1633.17688,-640.403748,1631.123047,-636.203247C1630.190918,-636.274048,1629.252563,-636.19812,1628.344238,-635.97699C1634.778564,-631.962158,1636.626221,-623.495178,1632.450317,-617.164185C1632.485107,-612.437134,1630.637085,-607.911621,1627.302612,-604.560852C1626.966553,-604.78064,1626.544678,-604.795288,1626.17395,-604.642944C1624.58728,-599.563477,1621.94458,-594.890381,1618.408936,-590.913147L1616.148926,-589.360107C1616.644287,-589.138245,1616.918091,-588.599121,1616.783691,-588.07312C1616.619629,-587.030579,1615.841187,-586.189209,1614.818115,-585.929688C1614.280273,-586.13269,1613.680664,-586.117554,1613.160767,-585.873047C1608.812866,-577.989258,1602.192017,-571.585571,1594.16748,-567.503235C1592.910522,-565.588501,1591.159668,-564.047607,1589.099731,-563.046265C1588.813232,-563.364075,1588.404297,-563.55127,1587.976685,-563.554871C1586.69397,-561.290649,1585.000488,-559.285706,1582.983032,-557.641846C1580.031128,-558.690002,1577.788818,-561.113831,1576.967163,-564.136536C1573.845581,-565.910156,1570.347778,-566.883728,1566.758911,-566.980835L1566.053223,-567.39624C1567.285034,-569.123169,1568.434814,-570.908447,1569.495117,-572.745483L1569.367798,-572.754761C1569.172729,-572.655823,1568.976563,-572.559204,1568.779663,-572.464233C1569.938477,-574.469482,1570.808594,-576.631958,1571.359131,-578.881531L1571.050415,-579.196777C1569.468018,-577.82373,1567.70459,-576.672363,1565.811035,-575.775879C1567.068604,-579.841553,1569.355347,-583.526245,1572.44043,-586.457764C1573.609253,-588.340332,1574.147339,-590.549072,1573.978638,-592.758606C1576.404541,-600.16217,1579.795898,-607.227539,1584.054565,-613.751465C1585.265869,-615.609314,1586.814331,-617.228516,1588.615601,-618.522583L1588.536865,-619.591492C1587.752441,-619.19165,1587.003174,-618.728027,1586.294067,-618.206177C1586.753418,-620.700317,1588.384399,-622.850342,1590.66272,-623.964172C1591.379028,-626.607605,1591.105347,-629.44574,1589.896362,-631.903198C1591.479858,-632.874329,1592.043701,-634.92395,1591.176392,-636.566467C1591.512939,-637.675537,1590.911255,-638.857178,1589.819214,-639.245972C1587.414673,-636.964111,1585.281006,-634.414307,1583.45874,-631.645142C1584.154541,-633.658325,1584.609985,-635.748413,1584.813721,-637.868652C1584.35144,-638.219666,1584.246338,-638.872253,1584.561646,-639.359863C1584.919067,-640.964233,1587.045288,-642.441406,1587.132202,-641.919067L1576.624146,-668.625916L1576.645386,-671.743652z"/>
</svg>
