<?xml version="1.0" encoding="UTF-8"?>
<svg xmlns="http://www.w3.org/2000/svg" width="485.065mm" height="504.771mm" viewBox="-1242.162354 242.822754 485.065491 504.770691">
    <path transform="matrix(-1,0,0,-1,0,0)" style="stroke:#000000;stroke-width:0.05mm;fill:none" d="M796.098694,-612.530762C795.642578,-612.494263,795.183594,-612.538452,794.742432,-612.659912C794.969604,-613.17041,795.369019,-613.579468,795.876709,-613.813538C797.685669,-615.119629,799.215759,-616.775208,800.376038,-618.680969C801.512634,-622.057556,801.138,-625.761536,799.348938,-628.842529C798.114258,-631.080933,797.041565,-633.404419,796.139038,-635.796143C795.602783,-641.097534,795.282593,-646.417603,795.179016,-651.744873C795.30365,-651.616577,795.43219,-651.492188,795.566895,-651.374512C795.776306,-653.287109,795.718567,-655.217285,795.393372,-657.113708C794.939941,-660.934631,794.519531,-664.751709,794.130676,-668.579956C794.385559,-670.785217,794.594055,-672.995117,794.756042,-675.209229C794.151794,-676.997437,793.232483,-678.661194,792.041077,-680.125183C790.766968,-682.712524,789.132141,-685.108154,787.187378,-687.237854C786.273621,-687.890381,785.471252,-688.685242,784.812927,-689.594849C785.042114,-690.307373,785.577942,-690.874451,786.281616,-691.130981C787.396729,-691.698669,788.301147,-692.606018,788.872742,-693.719116C789.049438,-694.548767,788.633118,-695.388062,787.864624,-695.747253C786.714905,-695.994629,785.696472,-696.659546,784.998108,-697.605896C784.663879,-699.127319,784.311829,-700.644714,783.941895,-702.157898C783.375549,-703.210205,782.669373,-704.182251,781.840637,-705.043152C781.677246,-705.750061,782.064941,-706.462891,782.746216,-706.71228C783.86676,-707.144287,784.526855,-708.300842,784.353271,-709.489136C783.372803,-710.684387,782.003357,-711.486206,780.483032,-711.765503C777.259644,-713.171265,773.701843,-713.640015,770.224731,-713.114319C768.68866,-712.885803,767.130188,-712.848145,765.584595,-712.998962C764.581238,-713.638306,763.961975,-714.739197,763.943054,-715.928772C763.499451,-719.128967,761.187805,-721.767517,758.072754,-722.62439C757.695496,-722.846497,757.466064,-723.263428,757.5448,-723.694031C758.404114,-725.349304,759.161011,-727.055969,759.810425,-728.804321C760.078247,-730.274963,759.722229,-731.790771,758.828979,-732.989319L758.855225,-733.370422C759.889465,-733.588806,760.948853,-733.661743,762.002869,-733.581055C763.207886,-733.426208,764.382874,-734.047974,764.928101,-735.133667C764.979309,-736.358093,764.434631,-737.53186,763.461792,-738.277161C763.151367,-738.501892,762.916504,-738.816772,762.798462,-739.181335L763.053528,-739.251648C764.408264,-738.672607,765.880737,-738.416748,767.351685,-738.501282C769.471069,-739.705872,771.901428,-740.272522,774.335205,-740.131348C777.495728,-740.660767,780.721191,-740.668518,783.884155,-740.154236C786.308533,-739.356445,788.855896,-739.00354,791.405762,-739.113342C791.931152,-739.55542,792.590942,-739.812378,793.276855,-739.846924C794.122498,-739.143311,794.863953,-738.324097,795.476501,-737.410278C797.020874,-735.360168,799.160522,-733.838806,801.605164,-733.056519C802.348755,-733.21582,803.125854,-733.154419,803.836975,-732.884521C804.469421,-731.964905,804.853638,-730.898499,804.9552,-729.787048C805.963806,-726.08374,806.988464,-722.383606,808.028687,-718.68866C808.253418,-714.842407,809.215515,-711.075867,810.861084,-707.592163C812.132324,-706.226318,813.418823,-704.874451,814.71991,-703.536987C816.934875,-700.792358,819.578857,-698.4245,822.550049,-696.524231C824.475708,-695.366943,825.801575,-693.421936,826.174805,-691.206482C827.24054,-686.844421,828.734009,-682.598633,830.633911,-678.530029C831.219666,-677.522339,832.149719,-676.754944,833.251648,-676.375244C833.821228,-675.876953,834.026733,-675.08429,833.765015,-674.374084C833.350159,-672.170715,833.27948,-669.915833,833.554321,-667.690613C833.954712,-666.605225,834.749756,-665.708557,835.785522,-665.193298C836.744141,-663.999207,837.489868,-662.652405,837.991577,-661.205627C838.955933,-659.582397,839.533875,-657.759827,839.685791,-655.877869C839.041138,-651.092102,839.810974,-646.222595,841.903625,-641.870605C843.182373,-639.295532,844.218079,-636.606812,844.996704,-633.839172C845.604004,-628.729919,847.260193,-623.7995,849.860718,-619.359863C849.960876,-618.677063,850.31073,-618.048828,850.847778,-617.616577C851.226563,-620.812317,851.445129,-624.024353,851.502625,-627.241943L852.692993,-652.238586C852.699707,-654.080322,852.846558,-655.918274,853.131836,-657.737793C853.582397,-658.248596,854.082031,-658.713501,854.623718,-659.126404C855.154602,-660.236755,855.288269,-661.494507,855.006287,-662.692505C854.54834,-665.199524,854.271057,-667.735657,854.176147,-670.28241C854.953735,-672.363647,855.953979,-674.352661,857.160767,-676.21814L860.026001,-681.2323C860.43573,-682.323364,861.146179,-683.275085,862.074341,-683.979919C862.879272,-684.010803,863.682556,-683.925903,864.464172,-683.731567C866.006958,-683.984253,867.273071,-685.082031,867.724915,-686.578918C868.607483,-688.281067,870.084961,-689.601563,871.872986,-690.293945C876.694214,-692.84314,881.055359,-696.182373,884.773743,-700.171875C886.423401,-701.089844,888.251221,-701.641052,890.133423,-701.787598C891.68988,-702.066467,893.023499,-703.07135,893.717651,-704.492065C894.362549,-705.43988,895.536865,-705.882202,896.64856,-705.601929C904.719482,-705.949219,912.481384,-708.785217,918.874756,-713.723328C919.489441,-714.26416,919.64978,-715.156921,919.266907,-715.880615C917.792664,-717.573364,915.647705,-718.523987,913.403442,-718.47937C906.019043,-718.530762,898.656738,-717.692322,891.473083,-715.981384L880.1474,-713.716248C877.059509,-713.017578,873.942993,-712.453552,870.806152,-712.025452C869.695068,-712.404114,868.878601,-713.36377,868.680298,-714.520752C867.617249,-717.413635,865.579224,-719.852905,862.922852,-721.415771C863.032898,-721.400146,863.142517,-721.383545,863.246887,-721.345398C862.146362,-721.963074,861.168335,-722.777588,860.365967,-723.751709C858.905701,-724.913208,857.11731,-725.588745,855.25354,-725.677124L854.935242,-725.830933C855.986633,-726.469238,856.851318,-727.380127,857.431396,-728.4646C857.684998,-730.0177,856.930481,-731.555481,855.548157,-732.307495C853.529602,-733.230164,852.112732,-735.119995,851.790283,-737.315918C851.057983,-739.081116,851.245667,-741.097656,852.290466,-742.697815C852.702148,-743.876221,853.259094,-744.997986,853.950684,-746.037109C854.919739,-746.77478,856.139038,-747.108215,857.348572,-746.96582C864.371826,-747.679321,871.445251,-747.78717,878.487,-747.287476C896.119629,-746.804382,913.763,-746.88092,931.391052,-747.517212C945.866211,-744.602539,960.592346,-743.102844,975.357849,-743.039734C976.953552,-743.012939,978.546265,-742.890076,980.127075,-742.671082C980.959473,-742.493774,981.553955,-741.767578,981.60376,-740.917847C981.395081,-739.708069,981.467957,-738.466492,981.81012,-737.287476C982.579285,-736.426086,983.767212,-736.069946,984.886841,-736.35321C985.278076,-736.342102,985.600281,-736.031555,985.597412,-735.640259C984.447754,-732.035034,982.88147,-728.577209,980.929382,-725.335449C979.988098,-723.657166,979.16217,-721.916809,978.458862,-720.125732C978.230896,-719.345459,978.555603,-718.508728,979.247559,-718.082031C982.029968,-716.547241,984.90863,-715.196106,987.866943,-714.036011C990.077515,-714.17749,992.215881,-714.857361,994.102417,-716.018188C998.442139,-718.757813,1002.971375,-721.18573,1007.65509,-723.283752C1015.895447,-726.075989,1024.687256,-726.836914,1033.28479,-725.502014C1035.451538,-725.008362,1037.684937,-724.867554,1039.89624,-725.086975C1044.418945,-726.712219,1048.930054,-728.382507,1053.420532,-730.094421C1054.156006,-730.331116,1054.601074,-731.074341,1054.474609,-731.836548C1054.051758,-732.823547,1053.723633,-733.848145,1053.492432,-734.896729L1053.744141,-735.002258C1056.491943,-732.993408,1059.459839,-731.30304,1062.589111,-729.963745C1064.043457,-729.395935,1065.680908,-729.5177,1067.025024,-730.311829C1068.525391,-730.731445,1070.009277,-731.208801,1071.473267,-731.741821C1072.996094,-732.225586,1073.90271,-733.796997,1073.567017,-735.359375C1073.390015,-735.96344,1073.075806,-736.518921,1072.643921,-736.976807C1074.122803,-735.241211,1076.589478,-734.720093,1078.647217,-735.702637C1081.381592,-736.620789,1084.280396,-736.942749,1087.149658,-736.647644C1104.483154,-736.516602,1121.79834,-737.847839,1138.908081,-740.626953C1147.568848,-740.5354,1156.226929,-740.594727,1164.885742,-740.805054C1172.725098,-741.166382,1180.503418,-742.368652,1188.086182,-744.390381L1188.079102,-744.317566C1183.335083,-742.269409,1178.615479,-740.149902,1173.932373,-737.964478L1173.932617,-737.718079C1177.598511,-737.478455,1181.277954,-737.596863,1184.921021,-738.071106C1191.886597,-738.736633,1198.84082,-739.536682,1205.775391,-740.470398L1206.124878,-740.358887C1205.864502,-739.766235,1205.500122,-739.2276,1205.049072,-738.763428C1204.18457,-737.426086,1204.536621,-735.644775,1205.844849,-734.736938C1208.881348,-732.929199,1212.330933,-731.939087,1215.864014,-731.861877C1216.661255,-732.024719,1217.496338,-731.865234,1218.181641,-731.425781C1218.382935,-730.80719,1218.549194,-730.178467,1218.68042,-729.541382C1219.512451,-728.638306,1220.697876,-728.14563,1221.924927,-728.190857C1225.763794,-728.000916,1229.612061,-728.113708,1233.433228,-728.528259C1235.940674,-728.060608,1238.397583,-727.357788,1240.773193,-726.429016C1241.288696,-726.365967,1241.766602,-726.125977,1242.123413,-725.748718L1242.162354,-725.312866C1240.15564,-723.426819,1237.863281,-721.875061,1235.365967,-720.714233C1224.694824,-719.448608,1215.143799,-713.49231,1209.312866,-704.465942C1209.104004,-703.724365,1208.67627,-703.058044,1208.077026,-702.574829C1207.570679,-702.943848,1207.161133,-703.426392,1206.882324,-703.987671C1205.609375,-704.903076,1204.029419,-705.271851,1202.482422,-705.017212C1199.994629,-704.771973,1197.515747,-704.441528,1195.050537,-704.026855L1194.681396,-704.209534C1194.870972,-704.88855,1195.293091,-705.475525,1195.880371,-705.865845C1196.616699,-706.309509,1196.949707,-707.211121,1196.671143,-708.02417C1195.859985,-708.92627,1194.698853,-709.433777,1193.48584,-709.41449C1190.610107,-709.575317,1187.726929,-709.408081,1184.888916,-708.917236C1171.142334,-707.605713,1157.281616,-708.162659,1143.68457,-710.57312C1140.825439,-710.237061,1138.040405,-709.44696,1135.43042,-708.2323C1130.938232,-706.513367,1126.342651,-705.078247,1121.670654,-703.934692C1118.797363,-703.943298,1115.926514,-704.071045,1113.063843,-704.317749C1104.400879,-704.924133,1095.704468,-703.702209,1087.544067,-700.731995C1077.957764,-699.893555,1068.440186,-698.400757,1059.057495,-696.263611C1057.498047,-695.943909,1056.018555,-695.31189,1054.712158,-694.402344C1054.33313,-694.078735,1054.185059,-693.562012,1054.32251,-693.083008C1054.555298,-692.715332,1054.809814,-692.361877,1055.087158,-692.026489L1055.059692,-691.804443C1048.812988,-691.754089,1042.576904,-692.330994,1036.445679,-693.527039C1034.569214,-693.344971,1032.764771,-692.705139,1031.192017,-691.665405C1027.900757,-690.395325,1024.750122,-688.786438,1021.791443,-686.86499C1020.598938,-686.018188,1020.026367,-684.535034,1020.345581,-683.107788C1020.119873,-682.35968,1019.564392,-681.759338,1018.835571,-681.477478C1017.311401,-680.295532,1016.418274,-678.472778,1016.421997,-676.544067C1015.170654,-671.197205,1015.888855,-665.581665,1018.446594,-660.722351C1019.302429,-659.439636,1020.508057,-658.428101,1021.919983,-657.808228C1022.423645,-657.312195,1022.468323,-656.519409,1022.014526,-655.977051C1020.417847,-653.575317,1019.936096,-650.59259,1020.693359,-647.809692C1020.453186,-646.705444,1019.577332,-645.848022,1018.468018,-645.632324C1016.390015,-644.644409,1015.455444,-642.191345,1016.345764,-640.069641C1017.029297,-638.705139,1017.947876,-637.472534,1019.058777,-636.426147L1019.159729,-636.086243C1017.852539,-636.043518,1016.545837,-636.116272,1015.251282,-636.302551C1013.705627,-636.624512,1012.095093,-636.194336,1010.913574,-635.147034C1010.275391,-633.728271,1010.423584,-632.084961,1011.312012,-630.807678C1013.046631,-627.711304,1013.651245,-624.106812,1013.022583,-620.61377C1013.08606,-619.050293,1012.679382,-617.500854,1011.855469,-616.170593C1011.283508,-615.520142,1010.376953,-615.273682,1009.555847,-615.549377C1008.891296,-616.137573,1008.47583,-616.95752,1008.390015,-617.84082C1007.671021,-617.216614,1007.253235,-616.316956,1007.232178,-615.365112C1006.34613,-611.591736,1006.711487,-607.630188,1008.275208,-604.083618C1009.436584,-600.279541,1009.333496,-596.199829,1007.978638,-592.460327C1009.320984,-594.102966,1010.686401,-595.725464,1012.075806,-597.328491L1012.513367,-597.491089C1012.83844,-596.910034,1012.809082,-596.19989,1012.414978,-595.661804C1011.284668,-593,1009.437134,-590.703003,1007.077148,-589.031677C1004.795471,-587.113403,1004.379761,-583.75,1006.131348,-581.338074C1006.960815,-580.564575,1007.656433,-579.659119,1008.187256,-578.65686C1007.890442,-577.561035,1007.297302,-576.568604,1006.473206,-575.78772C1005.603882,-574.696655,1004.956238,-573.445374,1004.575867,-572.10321L1004.844238,-571.992798C1005.251404,-572.094727,1005.660217,-572.192139,1006.069397,-572.285461L1006.394958,-572.065186C1006.2229,-571.008606,1005.935242,-569.974426,1005.535278,-568.981445C1005.668274,-568.44458,1005.929749,-567.950989,1006.305969,-567.544983C1006.523499,-566.832581,1006.327515,-566.061096,1005.774536,-565.560425C1004.73584,-563.93927,1003.52356,-562.436096,1002.15918,-561.077637C1000.673767,-558.974121,999.87146,-556.458252,999.859863,-553.883118C999.466919,-552.684631,999.245911,-551.43634,999.203613,-550.175781C999.492004,-548.986084,1000.44519,-548.070068,1001.647949,-547.842407C1002.391541,-547.692993,1003.098877,-547.393677,1003.723755,-546.963928L1003.611511,-546.790161C1000.197998,-546.397522,997.141785,-544.47052,995.316956,-541.559143C992.596619,-539.278015,990.825012,-536.056458,990.354675,-532.537598C988.718994,-528.036865,987.432495,-523.415405,986.507324,-518.716797C985.615173,-517.43158,984.679565,-516.179443,983.699829,-514.959656C982.355591,-512.43573,980.817932,-510.01828,979.102234,-507.73056C978.204224,-505.340088,977.210144,-502.986542,976.123047,-500.675964C973.55127,-495.506287,971.288696,-490.188019,969.347656,-484.749969C965.425903,-478.505554,961.730103,-472.122528,958.266907,-465.612518C954.128662,-457.64267,949.339233,-450.030273,943.94574,-442.850098C937.017151,-437.111664,931.132324,-430.219055,926.550964,-422.476501C924.27063,-415.679962,918.98999,-410.304718,912.235046,-407.903931C911.824158,-407.758209,911.530151,-407.387482,911.512878,-406.951904C911.969543,-406.066071,911.807312,-404.98175,911.102356,-404.277527C909.702698,-403.054199,907.81366,-402.558411,905.994385,-402.940613C905.05542,-403.769409,903.658081,-403.837677,902.641663,-403.105865C901.834534,-402.90744,901.07489,-402.545166,900.411743,-402.044067C900.460938,-401.46402,900.766357,-400.942444,901.248474,-400.61615C902.513916,-399.412323,903.079407,-397.646881,902.744507,-395.932709C902.925232,-394.444214,903.67572,-393.087097,904.842651,-392.145447L904.95343,-391.676392C904.430603,-391.116913,903.732788,-390.759155,902.972656,-390.665375C901.132141,-390.199188,899.503418,-389.130676,898.341553,-387.629059C897.824097,-386.509399,898.101318,-385.182281,899.028992,-384.369385C899.788757,-383.918335,900.578674,-383.521332,901.394287,-383.18158C902.209717,-382.191467,902.948914,-381.142609,903.606812,-380.041534C903.51239,-379.352448,903.017883,-378.79422,902.347473,-378.610077C900.913513,-377.969574,900.046143,-376.476776,900.198975,-374.913727C900.696472,-373.797974,901.378784,-372.774506,902.218018,-371.886749C902.656921,-370.82962,902.319763,-369.607422,901.406189,-368.917664C900.243286,-367.877899,899.573975,-366.387939,899.572327,-364.828064C900.575378,-360.102661,902.835388,-355.736389,906.115051,-352.189667C907.05249,-350.936157,907.403259,-349.338593,907.075989,-347.807922C906.768616,-344.621399,906.30304,-341.451691,905.680969,-338.311371C905.493469,-337.058807,905.89325,-335.787262,906.766296,-334.869751C906.579407,-336.600891,906.909363,-338.352203,907.713867,-339.896393C907.965515,-339.05603,908.08252,-338.180969,908.063477,-337.303955C908.342773,-336.932281,908.768738,-336.711426,909.232666,-336.689819C909.75592,-336.237061,909.920105,-335.500336,909.619385,-334.876221C909.31543,-332.341858,908.960693,-329.814453,908.555054,-327.294373C908.860291,-325.792969,909.430481,-324.360199,910.240723,-323.059814C911.075256,-320.974396,911.242371,-318.679596,910.716431,-316.49585C910.559875,-316.081146,910.679077,-315.609528,911.023926,-315.331238C911.684448,-315.255798,912.334351,-315.096527,912.954956,-314.858154C913.164551,-314.155029,912.958313,-313.401123,912.420898,-312.901672C911.792664,-312.028015,911.526123,-310.948029,911.670532,-309.881744C912.143066,-309.828644,912.616089,-309.786224,913.090515,-309.75415C913.244507,-309.052643,913.10199,-308.323944,912.69342,-307.733185C911.696472,-305.374146,910.842712,-302.957275,910.136963,-300.495361C909.985962,-299.337585,910.341125,-298.168671,911.110901,-297.290771C911.083069,-296.466888,911.112549,-295.64209,911.198059,-294.822174C912.59613,-293.692505,913.662842,-292.19928,914.277344,-290.510193C915.351318,-289.374084,916.968567,-288.938995,918.468811,-289.37854C919.305725,-289.651947,920.191345,-289.755829,921.068604,-289.681335C921.460632,-289.569092,921.691528,-289.165985,921.597595,-288.769104C921.212524,-286.21817,919.013123,-284.337097,916.43335,-284.352844C915.617676,-284.481445,914.786011,-284.213104,914.198608,-283.63269L914.223877,-283.275024C914.548035,-283.053986,914.909912,-282.894287,915.291687,-282.803802L915.525574,-282.499084C915.216492,-281.999298,915.110474,-281.394989,915.230713,-280.819763C916.082397,-280.012177,917.118164,-279.425964,918.249329,-279.113007C920.268433,-278.338379,922.212646,-277.383453,924.059937,-276.259094C922.464722,-276.445129,920.842163,-276.631653,919.245605,-276.812653C918.955811,-276.609589,918.745728,-276.316711,918.639343,-275.979553C917.623352,-275.650757,916.535583,-275.61734,915.501953,-275.885773C914.301636,-276.073517,913.085938,-276.137939,911.872498,-276.078003C911.202637,-275.694458,910.837524,-274.943085,910.951721,-274.179657C910.939575,-272.943787,910.577332,-271.738312,909.907715,-270.699493C908.9198,-270.041107,907.817566,-269.571167,906.658813,-269.312683C905.622314,-268.708374,904.965515,-267.617157,904.914429,-266.418427C904.485046,-264.547424,903.183167,-262.993103,901.417053,-262.240845C900.17334,-261.290802,899.42981,-259.829376,899.391541,-258.264832C898.840698,-256.420898,897.158142,-255.145874,895.233948,-255.115768C893.024109,-254.7509,890.756897,-254.966843,888.655762,-255.742569C888.287903,-255.90593,887.857666,-255.786774,887.619751,-255.462112C887.642395,-254.87912,887.363342,-254.318649,886.87793,-253.995911C885.6922,-253.911087,884.501892,-253.916748,883.317017,-254.013214C882.616394,-253.770447,881.945862,-253.451828,881.315369,-253.061478C880.663818,-253.084976,880.083313,-253.461121,879.796692,-254.046738C879.437805,-254.353073,878.926208,-254.403549,878.515137,-254.171967C877.465759,-253.038391,876.535461,-251.802094,875.736816,-250.479828C874.867004,-249.257629,873.281433,-248.780029,871.881348,-249.318741C870.029663,-249.685745,868.131287,-248.905441,867.07312,-247.342178C865.589478,-246.114166,863.597107,-245.689224,861.742065,-246.206879C858.875305,-246.559662,855.984253,-246.675125,853.09845,-246.552078C851.982178,-246.235229,850.942566,-245.693253,850.043884,-244.959259C848.503113,-244.753754,846.943359,-244.765793,845.405945,-244.994812C843.167908,-244.936417,840.989075,-244.261414,839.109314,-243.04538C837.638855,-242.649734,836.078735,-242.784271,834.697754,-243.425873C832.829529,-243.799713,830.917358,-243.907532,829.01886,-243.747192C826.798828,-244.071136,824.744446,-245.109497,823.167358,-246.70517C821.006836,-248.087128,819.266785,-250.038345,818.141235,-252.342804L817.715576,-252.788406C817.269897,-252.790619,816.825134,-252.756332,816.385132,-252.685699C815.490234,-253.396332,814.646301,-254.16803,813.858765,-254.996002C811.959717,-256.692261,809.517334,-257.645813,806.971313,-257.685425L806.507446,-257.488342C806.472473,-257.037598,806.604492,-256.592621,806.880554,-256.234558C806.317139,-255.889816,805.622375,-255.859833,805.031372,-256.154785C797.709167,-257.399445,790.180176,-256.390442,783.44397,-253.261948C780.930542,-252.843018,778.364441,-252.870972,775.860718,-253.344177C770.767517,-253.889938,765.778625,-255.153046,761.039307,-257.09668C759.183655,-258.853943,758.029419,-261.221039,757.786804,-263.765167C757.363647,-267.905975,757.133423,-272.064392,757.096863,-276.226624C757.150696,-278.784485,757.498901,-281.327087,758.134827,-283.805206C758.674255,-284.90332,759.842468,-285.549622,761.059692,-285.426636C761.858215,-285.514771,762.522217,-286.085815,762.724976,-286.863098C762.885681,-288.02887,762.111755,-289.122162,760.958496,-289.356232C760.220764,-289.427155,759.519165,-289.725433,758.953796,-290.204834C759.342285,-290.707397,759.855164,-291.095001,760.444885,-291.331055C761.388367,-292.368958,762.154053,-293.549591,762.716431,-294.834564C762.464417,-295.328827,762.262512,-295.848114,762.112793,-296.382446C762.581421,-296.938446,763.338867,-297.141541,764.022217,-296.892853C765.433899,-296.543457,766.818054,-296.089691,768.162537,-295.5354C767.74054,-296.138733,767.395447,-296.793304,767.134277,-297.48172C767.140808,-298.186127,767.711731,-298.750031,768.416382,-298.733063C769.236511,-298.608551,770.052917,-299.017334,770.444702,-299.748505C770.341248,-300.406219,770.196777,-301.055176,770.011292,-301.694733C770.468262,-302.080078,771.055054,-302.262543,771.650024,-302.205627C772.685303,-302.435822,773.416382,-303.371216,773.390137,-304.431458C773.163086,-305.223877,772.924866,-306.012207,772.674988,-306.797668L772.764709,-307.249023C773.446899,-307.333191,774.130249,-307.148193,774.673645,-306.726959C775.347717,-306.198883,776.289246,-306.167694,776.998047,-306.648224C777.858765,-307.923798,778.335022,-309.415527,778.371765,-310.953888C778.190491,-312.431244,779.123718,-313.822906,780.559631,-314.214844C781.061218,-314.024109,781.55896,-313.82193,782.051575,-313.609039C782.926514,-314.243561,783.407532,-315.28775,783.321045,-316.365112C783.374573,-317.823517,783.288818,-319.283539,783.065735,-320.725769L783.341797,-320.944855C785.229736,-320.008698,787.060608,-318.963531,788.82666,-317.813904C789.61554,-317.287476,790.489563,-316.90387,791.41095,-316.679199C790.543762,-317.583038,789.84259,-318.63446,789.34259,-319.782867L789.457336,-320.366516C790.123596,-320.775177,790.959473,-320.765259,791.614502,-320.338654C792.099365,-320.065674,792.654602,-319.942963,793.209106,-319.989471C793.847534,-320.394226,794.149048,-321.160156,793.951538,-321.890015C794.151428,-322.972931,794.62738,-323.985474,795.334167,-324.829956C795.742676,-326.561371,796.973999,-327.995728,798.623901,-328.660889C799.603455,-329.769897,800.427246,-331.006348,801.072632,-332.337891C800.972595,-333.512054,800.315308,-334.565735,799.309082,-335.179077C797.803223,-336.326965,796.465393,-337.678741,795.333191,-339.196411C795.046448,-340.374908,795.130249,-341.614105,795.569946,-342.744507C795.83429,-344.951843,795.528076,-347.190918,794.681885,-349.246704C794.694336,-350.000031,795.156555,-350.668945,795.855469,-350.950256C796.418823,-351.323181,796.579346,-352.072601,796.212524,-352.640198C794.793213,-355.813354,794.542969,-359.377411,795.504211,-362.717957C796.295715,-363.650757,796.912903,-364.718597,797.3255,-365.870239C797.298035,-368.419769,796.858459,-370.946381,796.023132,-373.355347C795.269714,-376.448242,794.164185,-379.443176,792.727539,-382.283936C791.507385,-383.264099,790.415283,-384.396484,789.479736,-385.651184C789.007263,-387.124451,788.257141,-388.496613,787.272461,-389.690002C786.032715,-390.469452,784.95874,-391.487549,784.11499,-392.684448C784.376404,-393.226471,784.760254,-393.696045,785.236572,-394.063477C785.565186,-395.493713,785.092102,-396.981262,783.99646,-397.957642C782.666931,-398.790314,781.490784,-399.849579,780.524475,-401.085327C779.78125,-402.039856,779.398315,-403.223724,779.437927,-404.4328C779.828674,-405.117859,780.479004,-405.612701,781.243591,-405.806152C782.970032,-406.54538,783.90509,-408.434784,783.43927,-410.254059C783.195435,-412.114868,783.197754,-413.999481,783.446228,-415.85968C783.313232,-417.743652,783.552002,-419.638428,784.151611,-421.429321C784.136536,-422.214325,783.517883,-422.84845,782.734436,-422.897797C781.474182,-423.05661,780.218262,-423.247253,778.96759,-423.469299C778.273132,-423.690735,777.86908,-424.413605,778.056396,-425.118103C778.2146,-426.255585,777.545166,-427.346588,776.459656,-427.721436C774.649109,-428.666901,773.606018,-430.648712,773.850342,-432.676605C773.386658,-433.275879,772.78833,-433.7547,772.098511,-434.068665C769.841431,-436.755493,768.41803,-440.035187,767.997864,-443.518982C767.94574,-446.719482,767.650757,-449.911621,767.115784,-453.067535C767.184875,-454.262665,767.719727,-455.383942,768.606934,-456.187653C769.829651,-457.620483,770.243347,-459.571899,769.707336,-461.377625C768.945496,-462.328979,768.400208,-463.435547,768.110596,-464.619415C768.388306,-466.825439,768.802368,-469.011017,769.351013,-471.16571C770.292236,-476.86499,771.869263,-482.440521,774.052856,-487.788361C775.063965,-490.824982,776.143799,-493.837921,777.29187,-496.825317C778.515137,-498.257019,779.521362,-499.861145,780.277283,-501.585876C780.565369,-502.82135,780.555847,-504.10849,780.247681,-505.339111C780.125244,-505.799957,780.263367,-506.291199,780.606628,-506.622223C781.273865,-506.747955,781.924805,-506.954285,782.542969,-507.23526C782.860168,-507.982666,782.829773,-508.829559,782.447388,-509.546204C781.91687,-510.616211,781.886536,-511.867645,782.36322,-512.962708C783.434998,-513.947876,783.895874,-515.439209,783.569153,-516.85791C783.460693,-517.667847,783.984131,-518.425903,784.779907,-518.611755C785.224121,-518.672974,785.665283,-518.7547,786.102173,-518.855591L786.096863,-519.014404C784.270447,-519.454346,782.42334,-519.799927,780.56134,-520.049805C782.372925,-520.049438,783.922791,-521.379272,784.204163,-523.169006C784.570984,-525.012756,785.523926,-526.690796,786.91803,-527.951965C787.298157,-528.96698,787.23407,-530.097351,786.743469,-531.063843C786.768616,-532.227356,787.106323,-533.362549,787.720947,-534.350769C787.772949,-535.071655,788.096985,-535.750244,788.618469,-536.251221C789.434875,-536.401733,790.257996,-536.507263,791.085999,-536.566895C792.198669,-537.052612,793.263489,-537.640808,794.266907,-538.324341C795.794434,-538.687134,797.335815,-538.985962,798.888184,-539.220337L799.587402,-539.985474C799.114807,-540.655823,798.504028,-541.213745,797.791992,-541.621094C796.754883,-542.262207,796.3302,-543.558411,796.79126,-544.687134C797.31543,-545.437378,797.763794,-546.238953,798.128723,-547.078308C798.088745,-547.707458,798.111206,-548.339844,798.193237,-548.965027C798.410034,-549.127197,798.628723,-549.287292,798.848694,-549.44519L798.879944,-549.682129C798.010864,-550.321655,797.081055,-550.874023,796.103394,-551.33075L795.889465,-551.710938C796.572693,-552.49762,797.397278,-553.148499,798.319458,-553.633545C799.452209,-554.453491,800.360107,-555.545349,800.959534,-556.808716C800.407959,-557.132324,799.755371,-557.224854,799.138489,-557.053833C798.656616,-556.968201,798.16333,-557.096436,797.775879,-557.395386C797.411804,-558.411072,797.366333,-559.513428,797.645996,-560.555542C797.673767,-563.441467,797.274536,-566.316101,796.461304,-569.085205C796.151855,-569.890137,796.282104,-570.80304,796.796997,-571.495117C797.520264,-571.723206,798.299438,-571.437622,798.71106,-570.800903C799.394714,-570.029907,800.237549,-569.417786,801.180237,-569.00177C801.359131,-569.98468,801.214417,-570.998596,800.768372,-571.892578C799.91687,-573.934448,799.370789,-576.091919,799.149902,-578.293213C800.202698,-583.640259,800.548096,-589.104004,800.17749,-594.541138C800.646851,-597.37677,800.562866,-600.277771,799.930908,-603.081665C799.106201,-604.377869,797.79425,-605.282043,796.288391,-605.586914C795.786743,-605.661133,795.331177,-605.922974,795.015015,-606.319397L795.033142,-606.722717C796.26886,-607.530334,797.686096,-608.01355,799.158203,-608.124512C799.68512,-608.215515,800.146179,-608.530579,800.426025,-608.986206C800.586731,-610.153931,799.897705,-611.272766,798.782043,-611.653198C797.966125,-612.146179,797.048279,-612.446655,796.098694,-612.530762z"/>
</svg>
