<?xml version="1.0" encoding="UTF-8"?>
<svg xmlns="http://www.w3.org/2000/svg" width="167.727mm" height="206.210mm" viewBox="-1384.393066 -534.472656 167.726685 206.209564">
    <path transform="matrix(-0.091274,0,0,-0.091274,-1210.238037,-321.873413)" style="stroke:#000000;stroke-width:0.05mm;fill:none" d="M1237.249146,2305.737061C1216.172485,2250.069336,1207.637939,2221.645752,1201.380127,2186.2771C1198.936035,2172.462891,1198.821289,2170.45752,1199.618652,2155.5C1201.574829,2118.804932,1200.224609,2108.43042,1191.020874,2089.433594C1182.481445,2071.807861,1169.496094,2056.46167,1149.710083,2040.611572C1116.750977,2014.208984,1096.822876,1974.809814,1082.89917,1908.521484C1077.511353,1882.87146,1073.309326,1857.962036,1070.918213,1837.5C1068.508301,1816.876953,1067.449097,1782.469482,1068.765137,1767.559692L1069.730835,1756.619507L1061.503906,1748.831909C1031.012695,1719.96936,1008.104736,1683.049438,971.949585,1604.5C944.000488,1543.778687,927.494995,1511.098022,903.515137,1469C889.223022,1443.909424,876.515747,1418.162964,871.187256,1403.5C865.758484,1388.561035,862.912476,1377.537354,857.549622,1350.676392C852.372742,1324.747192,847.565002,1309.351074,834.677429,1277.431641C822.676392,1247.707764,817.847168,1231.226929,813.0755,1203.709717C809.10614,1180.819092,807.914124,1164.084106,808.074707,1133.5C808.412537,1069.148438,807.707458,1044.568848,804.446045,1007C799.468689,949.665222,792.696228,907.46936,777.892334,841.558411C759.828186,761.131653,755.782288,740.19751,751.016663,702.5C745.764709,660.955688,744.628174,642.966248,744.56134,600.325684L744.5,561.151367L735,560.476563C711.867371,558.833313,692.942505,554.085938,676.985352,545.92334C664.688904,539.633301,657.711792,533.920898,646.560181,521.012939C629.387024,501.135132,618.55835,491.685699,602.380676,482.46051C588.501099,474.545746,568.187561,467.790283,549.5,464.874512C537.242554,462.962036,510.984985,463.429871,494,465.863403C432.981812,474.605804,422.757294,475.490936,383.5,475.429382C339.352936,475.360138,323.351929,473.415222,273.922455,462.110321C232.495239,452.63559,194.905075,447,173.134399,447C161.737503,447,145.16272,445.34726,137.66188,443.462891C116.192581,438.069336,97.411629,425.151459,83.00663,405.869965C76.513527,397.178772,69.5187,385.14798,70.429253,384.237427C70.765625,383.901031,90.044151,383.025604,113.270416,382.291992C136.496689,381.55838,168.929245,380.40506,185.342773,379.729065C229.960236,377.89151,253.34613,379.375763,285.353088,386.076538C302.05722,389.573578,308.272369,391.331909,331,398.990479C357.153534,407.803467,361.388641,408.507111,388,408.46106C412.249023,408.419067,424.228973,406.909882,455.5,399.957642C475.703888,395.465881,487.05835,393.980896,506,393.353088C518.900574,392.925507,526.536133,393.176361,535.051941,394.307617C548.131226,396.045044,605.838074,410.212402,619.5,415.040039C640.001648,422.284637,653.598145,430.155457,660.587158,438.824738C669.916382,450.396973,675.27417,455.215302,682.599609,458.620941C691.752258,462.876068,703.930969,466.378937,716.5,468.37149C726.258118,469.918457,753.251831,471.98938,763.75,471.99646L769,472L769.007568,458.75C769.01593,444.082916,770.015625,435.980347,773.110046,425.5C775.032837,418.987976,775.784851,417.90744,783.898438,410C795.233704,398.952728,796.506409,396.988708,799.444519,386.009888C804.472473,367.222046,804.8125,355.062561,802.087463,291.5C801.144165,269.497253,802.204712,238.588242,804.508728,220.932907C806.067261,208.990463,809.849731,196.502731,813.472656,191.338913C814.917664,189.279266,815.247986,189.238037,820.508484,190.460892L826.028137,191.743973L829.867798,187.121979C831.979614,184.579895,834.185059,181.588562,834.768738,180.474594C835.376831,179.314011,836.312866,164.582977,836.960876,145.974594C838.170837,111.229935,838.901001,104.012283,842.060181,95.568733C846.499451,83.703728,851.081299,79.827156,862.706421,78.100487C880.93042,75.393692,925.882507,70.010033,930.299683,70.005226C936.507019,69.998466,939.5849,71.671249,945.723572,78.387924C951.061279,84.22821,951.554016,85.036781,967.70105,114.451279C978.679688,134.450684,990.341797,152.758652,996.396973,159.5L999.989868,163.5L1003.4552,159.5C1005.361145,157.300003,1009.750916,150.800232,1013.210266,145.056061C1026.206787,123.475639,1032.409546,118.962418,1036.895142,127.822708C1039.493042,132.954056,1046.554443,155.029037,1050.397949,170.034424L1053.619995,182.613113L1063.059937,173.819031C1068.251953,168.982285,1072.949951,165.146851,1073.5,165.295837C1074.050049,165.444839,1076.185669,168.926727,1078.24585,173.033371C1080.978149,178.479828,1082.393188,183.070313,1083.47583,190C1084.292114,195.225006,1086.996948,212.100006,1089.486572,227.5C1091.976318,242.899994,1094.010254,256.662506,1094.006592,258.083344C1093.996704,261.960724,1094.793823,262.138184,1100.112915,259.44281C1106.511719,256.200287,1115.318115,254.255844,1127,253.506195C1140.233398,252.656982,1141.659058,253.224319,1144.659668,260.533173C1152.791626,280.341675,1159.727417,325.437256,1158.765869,352.25C1158.494629,359.8125,1158.622437,366,1159.049683,366C1159.477051,366,1167.403198,366.876709,1176.66333,367.948242C1185.923462,369.019775,1201.375,370.440613,1211,371.105652C1233.324097,372.648102,1298.816284,372.64624,1346.5,371.101746C1366.849976,370.442627,1400.375,369.489319,1421,368.983337C1469.265381,367.799225,1478.423706,366.284637,1483.02002,358.726776C1485.207397,355.129913,1486.583252,348.881256,1487.561401,338.101501L1488.232788,330.703003L1504.866455,331.31073C1544.175537,332.746857,1591.153564,344.00351,1645.5,365.008545C1674.867798,376.359283,1687.76001,379.927032,1708.962036,382.57077C1722.408447,384.247437,1755.253296,384.455841,1770.144043,382.958984C1805.108276,379.444275,1844.845581,370.806335,1886.978882,357.56189C1898.24231,354.021301,1907.669312,351.335938,1907.927734,351.594421C1909.143677,352.810394,1900.350464,407.98291,1898.67334,409.659943C1898.474731,409.858612,1890.47937,410.914886,1880.906128,412.007172C1871.332764,413.099487,1845.050049,416.4534,1822.5,419.460327C1775.032227,425.789886,1749.384521,428.666809,1732.5,429.555725C1725.900024,429.903198,1715.379272,431.045319,1709.120483,432.09375C1689.285278,435.416443,1673.463867,434.338287,1662.888672,428.943237C1660.661011,427.806763,1656.131836,424.88443,1652.82373,422.449158C1644.610474,416.402863,1636.42627,413.995972,1624.144653,414.014771C1614.072144,414.030212,1606.191284,415.45993,1596.790405,418.977234C1590.103638,421.479065,1588.484131,424.368011,1588.579346,433.624359C1588.671509,442.585419,1592.202026,449.105316,1601.87915,458.18573C1611.171387,466.904938,1619.638184,471.886597,1641.87085,481.715759C1651.016846,485.759247,1660.026855,489.839874,1661.893066,490.783783C1667.991821,493.868622,1676.182983,502.267334,1685.998169,515.5C1696.300415,529.389404,1714.2052,547.43811,1728,557.839661C1732.125,560.949951,1741.349976,566.349609,1748.5,569.838806C1771.259521,580.945557,1783.372437,590.253662,1793.85376,604.690674C1802.920288,617.179077,1813.207397,624.917603,1826.85022,629.51239L1833.451782,631.73584L1827.975952,635.233826C1820.642822,639.918152,1808.751465,645.845398,1802,648.181519C1793.179932,651.233337,1788.138062,652.099976,1779.203735,652.099976L1770.81604,652.099976L1759.189087,644.357056C1722.405884,619.861145,1691.716797,589.320984,1658.342896,544C1647.962646,529.903931,1620.822876,502.860931,1605.816406,491.660828C1591.443359,480.933472,1576.957764,471.99939,1560.827026,463.9133L1548.536377,457.752197L1530.018188,458.405243C1478.631348,460.217346,1451.571533,460.978851,1421.5,461.459137C1403.349976,461.748993,1370.338989,462.288025,1348.14209,462.656921L1307.78418,463.327667L1313.64209,468.357605C1330.918823,483.192413,1376.650635,530.679688,1387.105957,544.641479C1398.296753,559.585449,1407.275879,580.550232,1409.940918,597.958008C1410.568848,602.059937,1411.191895,605.525208,1411.325317,605.658691C1411.458862,605.792175,1419.877686,603.886108,1430.034058,601.423035L1448.5,596.944702L1453.842773,602.722351C1467.813721,617.830322,1481.651611,645.442993,1489.41748,673.709534C1490.745728,678.544312,1496.192871,697.799988,1501.522217,716.5C1521.499756,786.598694,1525.248169,801.378845,1528.639404,823.42572C1529.576294,829.516602,1530.649658,834.861389,1531.024536,835.303101C1531.399536,835.744873,1538.438721,833.418213,1546.667358,830.132813C1559.926392,824.838928,1572.937134,820.60376,1573.674805,821.341492C1573.817749,821.484436,1575.945435,831.253601,1578.402832,843.05072C1586.219727,880.576111,1593.902344,914.303894,1614.499268,1001.519409C1637.870972,1100.484375,1645.644897,1141.799072,1646.852905,1173.463379L1647.5,1190.426758L1650.901001,1192.715454C1659.694214,1198.632935,1673.561523,1198.442139,1690.46814,1192.171265C1696.500732,1189.933716,1701.581665,1188.248413,1701.759399,1188.426025C1701.937012,1188.603638,1703.589966,1195.476563,1705.432617,1203.699097C1712.701172,1236.134155,1717.22168,1269.096191,1722.136841,1325.5C1724.931396,1357.570068,1725.370239,1366.963501,1725.430542,1396C1725.503906,1431.399658,1724.757568,1442.120728,1720.423218,1467.928101C1717.422852,1485.792236,1717.421753,1487.747314,1720.404419,1499.237549C1726.089722,1521.138672,1728.997925,1546.284058,1728.999146,1573.550049C1729.00061,1604.901733,1725.099365,1639.551758,1717.224365,1678.13208L1713.421143,1696.76416L1724.685913,1707.43811C1739.066406,1721.064453,1747.430786,1732.206421,1755.511353,1748.5C1766.273193,1770.200073,1770.252319,1788.239624,1772.117065,1823.784424C1774.573608,1870.609985,1771.788696,1911.97998,1763.485596,1952C1755.04187,1992.698853,1752.409424,2001.258301,1741.95752,2022C1736.23291,2033.360229,1735.012939,2037.512695,1735.005615,2045.661987C1734.992676,2059.974121,1739.727905,2076.490723,1749.632935,2096.681885C1758.139526,2114.022217,1761.347656,2124.947754,1763.148438,2142.710938C1767.078247,2181.473145,1749.462158,2244.107666,1723.471558,2283.783447C1715.747925,2295.573975,1716.581055,2295.642578,1710.439209,2282.709473C1706.580566,2274.584229,1704.541382,2264.661865,1705.458618,2258.474121C1706.773682,2249.601563,1704.666626,2242.126953,1696.976929,2228.387451C1686.436157,2209.553711,1680.569824,2202.35791,1664.5,2188.550293C1656.800049,2181.934082,1635.829956,2162.003662,1617.89978,2144.260498C1597.361938,2123.936523,1584.57312,2112,1583.336182,2112C1582.256348,2112,1576.33252,2112.664795,1570.172119,2113.477295C1550.203857,2116.111084,1520.956177,2118.891113,1500.790405,2120.07251C1477.481445,2121.437988,1424.33606,2120.818604,1405.342651,2118.959961L1392.185425,2117.672607L1386.853027,2121.086182C1373.124756,2129.875,1354.762085,2145.974121,1342.343628,2160.109131C1322.228638,2183.004395,1315.446289,2193.933838,1298.008057,2231.552979C1283.759399,2262.291504,1250.979614,2325.231934,1247.133545,2329.237061C1246.744263,2329.642578,1242.296265,2319.067627,1237.249146,2305.737061z"/>
</svg>
