<?xml version="1.0" encoding="UTF-8"?>
<svg xmlns="http://www.w3.org/2000/svg" width="427.452mm" height="252.173mm" viewBox="-1206.238281 -582.173035 427.451538 252.173035">
    <path transform="matrix(-1,0,0,-1,0,0)" style="stroke:none;fill:#ff0000;fill-rule:evenodd" d="M959,332C959.156372,332.142212,959.325378,332.269684,959.503906,332.382813C960.073364,332.736572,960.635498,333.083374,961.207031,333.433594C961.910339,333.865723,962.575562,334.357056,963.195313,334.902344L963.644531,335.34375L964.050781,335.8125C964.434998,336.28183,964.720215,336.824127,964.890625,337.40625C964.996338,337.777924,965.03595,338.165405,965.007813,338.550781C964.98407,338.957916,964.921204,339.361694,964.824219,339.757813C964.665222,340.447021,964.432983,341.11734,964.132813,341.757813C964.092834,341.840851,964.047729,341.921204,964,342L966,344C966.634277,343.960419,967.267639,343.925354,967.902344,343.894531C969.067017,343.849457,970.231628,343.989594,971.351563,344.3125C971.922668,344.485992,972.475037,344.716003,973,345C975.937622,346.609863,978.790405,348.369995,981.546875,350.273438C983.084229,351.334045,984.586182,352.376404,986.117188,353.445313C986.964233,354.041351,987.837524,354.599213,988.734375,355.117188C989.179688,355.375946,989.645203,355.597961,990.125,355.785156C990.408142,355.888,990.701233,355.961212,991,356C991.357483,355.218597,991.697388,354.429413,992.019531,353.632813C992.533081,352.39093,993.08136,351.164063,993.664063,349.953125C993.902771,349.444183,994.17865,348.953522,994.488281,348.484375C994.556519,348.381317,994.632874,348.283905,994.714844,348.191406C994.775391,348.129913,994.843445,348.076813,994.914063,348.027344L995,348L995.070313,348L995.152344,348.015625L995.238281,348.042969L995.335938,348.085938C995.605835,348.236603,995.858398,348.41626,996.089844,348.621094C996.706116,349.163605,997.291687,349.739929,997.84375,350.347656C999.026733,351.641083,1000.177002,352.964661,1001.292969,354.316406L1002.164063,355.367188C1003.306091,356.7724,1004.461426,358.175842,1005.621094,359.566406C1005.743652,359.714172,1005.869568,359.859161,1006,360L1006,363C1010.610718,365.284851,1015.194336,367.623474,1019.75,370.015625C1021.98999,371.197327,1024.211792,372.409058,1026.417969,373.652344C1028.313477,374.70932,1030.174927,375.825745,1032,377C1032.140625,377.096283,1032.269409,377.20871,1032.382813,377.335938L1032.542969,377.546875L1032.679688,377.78125C1032.865479,378.142395,1032.994873,378.529877,1033.066406,378.929688C1033.153809,379.392426,1033.204102,379.861359,1033.21875,380.332031C1033.247192,381.104401,1033.233154,381.877716,1033.175781,382.648438C1033.115967,383.503235,1033.053955,384.348633,1032.988281,385.203125C1032.947876,385.668121,1032.935181,386.135162,1032.953125,386.601563C1032.95874,386.735352,1032.975098,386.868439,1033,387C1035.150391,387.548431,1037.309082,388.07901,1039.46875,388.589844C1042.711914,389.372681,1045.943604,390.191345,1049.167969,391.046875C1050.874878,391.506561,1052.576782,391.984467,1054.273438,392.480469C1056.241455,393.052521,1058.192627,393.680359,1060.125,394.363281C1061.68811,394.897797,1063.215942,395.53064,1064.699219,396.257813C1065.317017,396.559418,1065.905518,396.917664,1066.457031,397.328125C1066.772339,397.571228,1067.046265,397.864471,1067.261719,398.199219C1067.370728,398.378021,1067.466309,398.564575,1067.546875,398.757813L1067.664063,399.148438L1067.730469,399.550781L1067.753906,399.972656C1067.740723,400.597015,1067.657471,401.217896,1067.507813,401.824219C1067.336304,402.547058,1067.16626,403.275818,1067,404C1066.876831,404.544708,1066.693237,405.073914,1066.453125,405.578125C1066.095215,406.331238,1065.666748,407.048676,1065.175781,407.722656C1064.492432,408.657135,1063.750244,409.547119,1062.953125,410.386719C1061.952881,411.439819,1060.915771,412.45752,1059.84375,413.4375L1058.796875,414.390625C1057.695679,415.360413,1056.609375,416.347778,1055.539063,417.351563C1055.081909,417.781464,1054.646729,418.234039,1054.234375,418.707031L1054,419C1053.682007,419.594086,1053.329712,420.16922,1052.945313,420.722656C1052.364014,421.563721,1051.810425,422.423615,1051.285156,423.300781C1050.873657,423.983459,1050.53186,424.705719,1050.265625,425.457031C1050.182251,425.714447,1050.11499,425.976746,1050.0625,426.242188C1050.019653,426.492493,1049.999878,426.746063,1050,427C1051.335693,427.814728,1052.700073,428.582062,1054.089844,429.300781C1055.935547,430.256348,1057.63208,431.137695,1059.472656,432.097656C1062.218994,433.536682,1064.892944,435.110229,1067.484375,436.8125C1071.190308,439.273651,1074.705444,442.010559,1078,445C1078.950928,445.847717,1079.905029,446.702454,1080.851563,447.554688C1081.525269,448.154816,1082.160889,448.796539,1082.753906,449.476563C1083.492676,450.363892,1084.134033,451.32782,1084.667969,452.351563C1085.631104,454.141968,1086.490601,455.986084,1087.242188,457.875C1088.448608,460.993408,1089.318237,464.231842,1089.835938,467.535156C1090.158691,469.620972,1090.397217,471.719177,1090.550781,473.824219C1090.622314,474.845306,1090.71228,475.864899,1090.820313,476.882813C1090.860718,477.258087,1090.920898,477.630951,1091,478C1091.267944,477.691071,1091.564941,477.408661,1091.886719,477.15625C1092.822632,476.41153,1093.795288,475.714081,1094.800781,475.066406C1097.423706,473.353424,1100.169434,471.836273,1103.015625,470.527344C1104.497437,469.846619,1106.019775,469.258179,1107.574219,468.765625C1108.429932,468.495422,1109.301392,468.277893,1110.183594,468.113281C1110.720947,468.01355,1111.263428,467.944611,1111.808594,467.90625L1112.578125,467.878906C1113.054688,467.879242,1113.530151,467.920837,1114,468C1113.799561,468.208801,1113.623291,468.439636,1113.480469,468.691406L1113.402344,468.882813L1113.367188,469.058594L1113.375,469.214844L1113.425781,469.351563L1113.515625,469.46875C1113.605591,469.544556,1113.705933,469.606506,1113.8125,469.65625L1114.019531,469.726563C1114.403809,469.813965,1114.797485,469.852478,1115.191406,469.84375C1116.084595,469.824554,1116.975098,469.738098,1117.855469,469.585938C1119.714722,469.271271,1121.557861,468.868408,1123.378906,468.378906C1128.885132,466.914551,1134.279297,465.056976,1139.519531,462.820313C1141.376953,462.034241,1143.189575,461.146027,1144.949219,460.160156C1145.427979,459.886841,1145.898315,459.59906,1146.359375,459.296875C1146.330688,459.511932,1146.314209,459.728424,1146.308594,459.945313C1146.31897,460.112823,1146.34314,460.279236,1146.386719,460.441406L1146.472656,460.632813L1146.585938,460.789063L1146.726563,460.910156L1146.894531,461L1147.09375,461.054688L1147.316406,461.074219C1147.492065,461.072418,1147.666748,461.053253,1147.839844,461.023438C1148.439453,460.877899,1149.019043,460.65976,1149.566406,460.375C1150.706665,459.783234,1151.805298,459.114777,1152.855469,458.375C1154.696167,457.091492,1156.487793,455.738892,1158.226563,454.320313C1160.821533,452.218506,1163.371704,450.061707,1165.875,447.851563C1170.198975,444.028534,1174.469849,440.150787,1178.691406,436.214844L1180,435C1179.751221,435.558624,1179.555176,436.139313,1179.414063,436.734375C1179.314575,437.147217,1179.283691,437.573792,1179.328125,437.996094C1179.346191,438.104309,1179.371338,438.211182,1179.402344,438.316406C1179.434082,438.412445,1179.477539,438.503723,1179.523438,438.59375L1179.691406,438.824219L1179.902344,439.011719C1180.07019,439.124603,1180.254761,439.2099,1180.449219,439.265625L1180.785156,439.335938C1181.346558,439.397858,1181.914185,439.372803,1182.46875,439.265625C1183.404419,439.085999,1184.325195,438.835785,1185.222656,438.515625C1186.563843,438.042419,1187.883911,437.511963,1189.179688,436.925781C1191.581299,435.835083,1193.961426,434.699768,1196.320313,433.519531C1198.017334,432.665222,1199.731323,431.844574,1201.460938,431.058594C1202.404175,430.619507,1203.373535,430.238831,1204.363281,429.917969C1204.690063,429.813538,1205.026123,429.740265,1205.367188,429.703125C1205.524902,429.689636,1205.683716,429.69281,1205.839844,429.71875C1205.949585,429.746887,1206.051392,429.799927,1206.132813,429.878906C1206.177856,429.947052,1206.210938,430.022217,1206.230469,430.101563L1206.238281,430.199219C1206.233765,430.273987,1206.2229,430.348022,1206.210938,430.421875L1206.179688,430.546875C1206.147095,430.645447,1206.111816,430.743103,1206.074219,430.839844C1206.032593,430.927277,1205.993042,431.015594,1205.957031,431.105469C1205.709595,431.878479,1205.471924,432.624542,1205.226563,433.398438C1204.228638,436.50058,1202.952393,439.506195,1201.414063,442.378906C1200.500854,444.066315,1199.468506,445.686493,1198.324219,447.226563C1197.321655,448.573547,1196.210449,449.836243,1195,451C1190.415161,455.374329,1185.432739,459.311951,1180.117188,462.761719C1175.712402,465.6138,1171.116821,468.160156,1166.363281,470.382813C1161.750854,472.532837,1157.028198,474.437744,1152.214844,476.089844C1148.473999,477.373138,1144.703125,478.568909,1140.90625,479.675781C1138.402588,480.404388,1135.910156,481.157562,1133.421875,481.9375C1131.925049,482.402252,1130.450806,482.936523,1129.003906,483.539063C1128.66626,483.686096,1128.331665,483.839935,1128,484C1126.296021,484.568909,1124.577881,485.094971,1122.847656,485.578125C1119.099243,486.63913,1115.36792,487.754852,1111.652344,488.925781C1103.596558,491.482788,1095.698853,494.512634,1088,498C1085.384033,499.177063,1082.834839,500.49704,1080.363281,501.953125C1078.139038,503.275085,1075.99707,504.730957,1073.949219,506.3125C1072.531006,507.41626,1071.12085,508.534485,1069.722656,509.664063C1068.346191,510.768188,1066.921997,511.811218,1065.453125,512.789063C1063.160278,514.271851,1060.731201,515.53241,1058.199219,516.554688C1055.84668,517.502808,1053.443359,518.319336,1051,519C1049.085083,519.553589,1047.148682,520.028931,1045.195313,520.425781C1043.76062,520.711731,1042.307983,520.897949,1040.847656,520.984375L1039.5625,521.023438L1038.300781,521.007813C1036.971558,520.945618,1035.644043,520.846619,1034.320313,520.710938C1031.800781,520.447754,1029.27478,520.239502,1026.746094,520.085938C1024.585938,519.992249,1022.42749,519.878967,1020.269531,519.746094C1015.978882,519.476624,1011.708984,518.941467,1007.484375,518.144531C1004.243652,517.541504,1000.989075,517.017883,997.722656,516.574219C995.379333,516.272888,993.035889,515.993103,990.6875,515.734375C984.997192,515.06189,979.324341,514.243896,973.675781,513.28125C970.82196,512.787598,967.959534,512.344849,965.089844,511.953125C961.121826,511.45166,957.131165,511.14917,953.132813,511.046875C949.423035,510.948181,945.710632,510.932556,942,511C938.850952,511.040863,935.702026,511.006989,932.554688,510.898438C930.84314,510.836304,929.130615,510.811554,927.417969,510.824219C925.604126,510.844818,923.795349,511.020905,922.011719,511.351563C920.544312,511.631958,919.096069,512.005249,917.675781,512.46875C915.632202,513.134644,913.61853,513.88916,911.640625,514.730469C909.211243,515.728271,906.836853,516.854919,904.527344,518.105469C902.657593,519.125305,900.865051,520.280823,899.164063,521.5625C897.443604,522.884644,895.841248,524.353699,894.375,525.953125C893.097229,527.368835,891.868713,528.82782,890.691406,530.328125C889.226013,532.194031,887.721802,534.029053,886.179688,535.832031C883.210205,539.253906,879.990417,542.450256,876.546875,545.394531C874.246704,547.411255,871.923157,549.422607,869.597656,551.410156C867.312744,553.335388,864.962463,555.181458,862.550781,556.945313C860.444214,558.489624,858.223755,560.113159,856.113281,561.652344C855.030273,562.476563,853.951538,563.292114,852.863281,564.109375C852.193481,564.599854,851.484253,565.034058,850.742188,565.40625C849.700134,565.890991,848.61969,566.288391,847.511719,566.59375C846.753784,566.812012,845.989014,567.006104,845.21875,567.175781C843.638916,567.480713,842.023499,567.556458,840.421875,567.402344C839.478821,567.307312,838.53833,567.187439,837.601563,567.042969C837.402222,567.01532,837.201233,567.003723,837,567C836.967773,567.461487,836.961426,567.9245,836.980469,568.386719C837.024292,569.702515,836.973633,571.019714,836.828125,572.328125C836.676514,573.576843,836.399414,574.80719,836,576C835.781128,576.671631,835.558289,577.34259,835.332031,578.011719C835.066223,578.817932,834.606934,579.547363,833.992188,580.132813C833.42572,580.668823,832.822876,581.164978,832.1875,581.617188L831.8125,581.851563L831.453125,582.03125C831.113037,582.176636,830.736816,582.21344,830.375,582.136719C829.763306,581.942566,829.213623,581.592041,828.773438,581.125C828.67334,581.012695,828.58197,580.893066,828.496094,580.769531L828.269531,580.386719C828.133606,580.110657,828.021729,579.823303,827.9375,579.527344C827.762268,578.834106,827.637695,578.129028,827.5625,577.417969C827.45874,576.525635,827.324463,575.637146,827.160156,574.753906C826.970032,573.918579,826.79541,573.080139,826.636719,572.238281C826.284912,570.179504,826.095642,568.096252,826.070313,566.007813C826.062988,565.440002,826.047546,564.87207,826.023438,564.304688L826,564C825.300781,563.480286,824.570068,563.004395,823.8125,562.574219C822.342529,561.721313,820.885132,560.846069,819.441406,559.949219C817.045593,558.456665,814.771484,556.777039,812.640625,554.925781C810.42218,552.990234,808.403076,550.837585,806.613281,548.5C806.078857,547.799255,805.588196,547.066162,805.144531,546.304688C804.628113,545.401062,804.209106,544.445251,803.894531,543.453125C803.656311,542.654663,803.417542,541.84668,803.183594,541.046875C802.714905,539.494568,802.08783,537.994446,801.3125,536.570313C800.289429,534.684082,799.128601,532.875854,797.839844,531.160156C797.554138,530.77771,797.274048,530.39093,797,530C796.373291,529.29364,795.724426,528.607117,795.054688,527.941406L794.527344,527.40625C792.763428,525.641296,791.01239,523.868164,789.269531,522.082031C787.554382,520.322388,785.888611,518.515869,784.273438,516.664063C783.209656,515.452148,782.200867,514.192993,781.25,512.890625C780.616333,512.030457,780.043274,511.127289,779.535156,510.1875C779.333435,509.802582,779.154297,509.40625,779,509L778.878906,508.597656L778.808594,508.199219C778.755981,507.687012,778.797485,507.169525,778.929688,506.671875C779.078918,506.114685,779.283569,505.573792,779.542969,505.058594C779.692749,504.763367,779.83075,504.46228,779.957031,504.15625L780,504C780.313477,503.941315,780.630676,503.904938,780.949219,503.890625C781.249878,503.86319,781.547913,503.811523,781.839844,503.734375L782.277344,503.574219C782.564636,503.449585,782.815613,503.253052,783,503C783.209961,502.714813,783.346069,502.38205,783.394531,502.03125C783.432373,501.713745,783.442139,501.393555,783.425781,501.074219L783.429688,500.582031L783.492188,500.078125L783.5625,499.816406C783.660217,499.521118,783.807922,499.244629,784,499C784.49585,498.329437,785.026489,497.685242,785.589844,497.070313C786.053955,496.562988,786.577209,496.113159,787.148438,495.730469L787.558594,495.496094C787.97522,495.277924,788.421143,495.120941,788.882813,495.03125C789.210938,494.966278,789.544495,494.933807,789.878906,494.929688C790.253845,494.923492,790.628601,494.947968,791,495L791.195313,495.058594L791.371094,495.167969C791.482544,495.251617,791.578064,495.354797,791.652344,495.472656C791.766541,495.649506,791.882385,495.825439,792,496L793,494L793.152344,493.933594C793.701538,493.641693,794.253784,493.355225,794.808594,493.074219C795.928772,492.528687,797.1203,492.143829,798.347656,491.929688C798.890747,491.791901,799.436584,491.664337,799.984375,491.546875C800.341431,491.472046,800.710388,491.475037,801.066406,491.554688C801.400208,491.649963,801.714722,491.802246,802,492L802.324219,492.253906L802.605469,492.542969C802.775024,492.747986,802.923645,492.969421,803.050781,493.203125C803.290588,493.672821,803.468994,494.171539,803.578125,494.6875C803.682007,495.146698,803.762695,495.61084,803.820313,496.078125C803.848877,496.332947,803.89209,496.585968,803.949219,496.835938L804,497C804.153259,497.27887,804.291443,497.565735,804.414063,497.859375C804.617004,498.310699,804.868958,498.738556,805.167969,499.132813C805.410461,499.4534,805.68927,499.745026,806,500C806.631409,500.532959,807.307312,501.010834,808.019531,501.429688C808.915955,501.959656,809.904846,502.314758,810.933594,502.476563C811.562012,502.56427,812.192383,502.637024,812.824219,502.695313C813.882751,502.797729,814.930176,502.994354,815.953125,503.285156C816.803711,503.535706,817.638489,503.837311,818.453125,504.1875C819.809814,504.749481,821.15155,505.347412,822.476563,505.980469C824.113831,506.731323,825.804688,507.359528,827.535156,507.859375C828.911499,508.256744,830.259583,508.746216,831.570313,509.324219C832.243103,509.629578,832.934509,509.891968,833.640625,510.109375C833.978333,510.204651,834.323364,510.271759,834.671875,510.3125L835.226563,510.351563C836.021973,510.364014,836.815857,510.277374,837.589844,510.09375C838.190491,509.971466,838.78064,509.802582,839.355469,509.589844C839.916565,509.382874,840.435364,509.075897,840.886719,508.683594C841.245911,508.350342,841.571167,507.982208,841.859375,507.585938C842.799561,506.322021,843.697205,505.0271,844.550781,503.703125C845.562256,502.134186,846.42041,500.471649,847.113281,498.738281C847.36676,498.087585,847.589539,497.425385,847.78125,496.753906L848.113281,495.476563C848.399109,494.175842,848.658142,492.869934,848.890625,491.558594C849.582886,487.683472,850.726196,483.902496,852.296875,480.292969C853.787292,476.857147,855.59314,473.566986,857.691406,470.464844C858.363892,469.477783,859.023071,468.505676,859.691406,467.515625C859.800171,467.347351,859.902893,467.175232,860,467C860.918152,465.900757,861.717834,464.707855,862.386719,463.441406C863.659973,461.029297,864.688599,458.495972,865.457031,455.878906C865.826416,454.552765,866.099304,453.201538,866.273438,451.835938L866.523438,450.039063C866.806152,448.03009,867.326416,446.061707,868.074219,444.175781C868.523193,443.014343,869.032959,441.877319,869.601563,440.769531C870.21698,439.573486,870.984192,438.461792,871.882813,437.460938C872.45282,436.820953,872.991211,436.153473,873.496094,435.460938C874.157715,434.509613,874.752869,433.513763,875.277344,432.480469C876.0271,431.110565,876.75238,429.72757,877.453125,428.332031C878.023315,427.155975,878.5047,425.938904,878.894531,424.691406C879.339233,423.290833,879.757446,421.881287,880.148438,420.464844C880.504883,419.067627,880.746765,417.643616,880.871094,416.207031C880.901978,415.803467,880.945068,415.40097,881,415C880.227722,414.363037,879.478516,413.698486,878.753906,413.007813C876.878296,411.24292,875.022095,409.459595,873.183594,407.65625C871.036865,405.555359,868.869629,403.466431,866.691406,401.398438C865.478271,400.246552,864.248108,399.114044,863,398L862.507813,397.523438L862.070313,397.019531L861.6875,396.496094L861.355469,395.953125C861.148987,395.583252,860.971313,395.198029,860.824219,394.800781C860.527039,393.981171,860.323975,393.130585,860.214844,392.265625C860.09613,391.340393,860.029419,390.409271,860.015625,389.476563C859.997864,388.18689,859.991333,386.895203,859.996094,385.605469C859.99646,385.121002,860.055786,384.638336,860.171875,384.167969C860.343994,383.591431,860.552307,383.026306,860.796875,382.476563C860.913208,382.184601,861.041809,381.897644,861.183594,381.617188C861.418396,381.161377,861.785339,380.787201,862.238281,380.546875C862.4776,380.432861,862.724121,380.334717,862.976563,380.253906C863.361694,380.128357,863.732483,379.962463,864.082031,379.757813C864.422424,379.550201,864.729919,379.293335,865,379C866.319824,377.579285,867.58136,376.105377,868.78125,374.582031C869.281555,373.941772,869.795959,373.312683,870.324219,372.695313C870.533447,372.448456,870.758545,372.215424,871,372L879,363C879.415771,362.494141,879.801636,361.964508,880.15625,361.414063C881.022095,360.085632,881.911377,358.773132,882.824219,357.476563C883.542114,356.466858,884.323608,355.503937,885.164063,354.59375C885.457397,354.286713,885.762085,353.990631,886.078125,353.707031C886.65387,353.21701,887.276306,352.784515,887.9375,352.417969C888.453979,352.111237,889.004395,351.865509,889.578125,351.6875C890.066284,351.557983,890.569214,351.492218,891.074219,351.492188C892.006836,351.494415,892.937927,351.413177,893.855469,351.246094C894.719177,351.074921,895.576416,350.872772,896.425781,350.640625C897.670898,350.33197,898.902466,349.970947,900.117188,349.558594C901.283203,349.124481,902.431213,348.643463,903.558594,348.117188C904.474792,347.699524,905.383057,347.282288,906.296875,346.859375C907.00354,346.503754,907.668762,346.071045,908.28125,345.570313C908.513733,345.371429,908.753113,345.180664,909,345L920,345C919.97821,345.306213,919.915955,345.608063,919.816406,345.898438C919.478027,346.882996,919.073669,347.843567,918.605469,348.773438C917.900696,350.223022,917.151611,351.651001,916.359375,353.054688C915.336121,354.899963,914.252319,356.710754,913.109375,358.484375C912.804504,358.969299,912.472534,359.436676,912.113281,359.882813C911.655762,360.346497,911.125977,360.732849,910.542969,361.023438L910.359375,361.105469L910,361.21875L909.644531,361.28125L909.292969,361.292969C908.907776,361.27005,908.527344,361.196716,908.160156,361.078125C907.518005,360.871216,906.881165,360.648468,906.25,360.410156C905.836792,360.263092,905.419983,360.126465,905,360C904.61676,359.879456,904.247437,359.718628,903.898438,359.519531L903.445313,359.226563C903.042175,358.928741,902.660034,358.603424,902.300781,358.253906C902.206604,358.162292,902.106079,358.077515,902,358L899,360C898.971191,360.122833,898.958557,360.248962,898.964844,360.375C898.979675,360.783752,898.958435,361.193054,898.898438,361.597656L898.851563,361.824219L898.78125,362.046875L898.6875,362.261719C898.572693,362.482452,898.416321,362.678955,898.226563,362.839844L898,363C895.91449,364.243896,893.857849,365.53598,891.832031,366.875C890.870117,367.513397,889.921936,368.172485,888.988281,368.851563C888.063843,369.528046,887.157288,370.229065,886.269531,370.953125L884.945313,372.070313L883.640625,373.246094C881.325623,375.414734,879.194458,377.771667,877.269531,380.292969C876.51947,381.256165,875.806885,382.247772,875.132813,383.265625C874.74823,383.853027,874.405334,384.466705,874.105469,385.101563C873.929077,385.482788,873.778503,385.875458,873.65625,386.277344C873.576843,386.558777,873.512329,386.844238,873.464844,387.132813C873.382629,387.676727,873.407654,388.231476,873.539063,388.765625C873.714539,389.425018,874.053528,390.028931,874.519531,390.527344C874.874817,390.906036,875.263428,391.252075,875.679688,391.5625C876.952515,392.539307,878.278748,393.444336,879.652344,394.273438C882.353394,395.921173,885.149902,397.406891,888.027344,398.722656C894.097961,401.515564,900.461609,403.621063,907,405C908.068054,405.204926,909.155029,405.293945,910.242188,405.265625C911.350464,405.230438,912.456909,405.149475,913.558594,405.023438C913.705444,405.0112,913.852722,405.004944,914,405C914.559204,403.43985,915.032593,401.850189,915.417969,400.238281C915.99585,397.809143,916.476563,395.358063,916.859375,392.890625C917.238525,390.495758,917.56543,388.092682,917.839844,385.683594L918.234375,381.988281C918.755493,376.519745,919.163208,371.039978,919.457031,365.554688C919.611816,362.618347,919.776855,359.657959,919.949219,356.722656C919.961304,356.481445,919.978333,356.24054,920,356L920.039063,355.832031C920.093628,355.694336,920.16571,355.564301,920.253906,355.445313C920.619568,354.989014,921.036682,354.576538,921.496094,354.214844C921.987915,353.81546,922.494751,353.434845,923.015625,353.074219C924.619019,351.966766,926.297607,350.972137,928.039063,350.097656C928.759338,349.727478,929.506104,349.411224,930.273438,349.152344C930.443115,349.096283,930.61731,349.056061,930.792969,349.023438L931,349C932.872681,348.939514,934.746765,349.067841,936.59375,349.382813C937.410645,349.51825,938.224548,349.670746,939.035156,349.839844C939.355042,349.903107,939.676819,349.956543,940,350L959,352C958.444946,351.48645,957.872925,350.991394,957.285156,350.515625C955.712769,349.223206,954.238708,347.815674,952.875,346.304688C952.219116,345.562073,951.593811,344.793121,951,344C949.776855,342.370056,948.60437,340.702515,947.484375,339C946.774902,337.919159,946.120361,336.803131,945.523438,335.65625C945.158569,334.954681,944.838989,334.23056,944.566406,333.488281C944.411865,333.064056,944.283203,332.63089,944.179688,332.191406C944.088745,331.799561,944.029236,331.401184,944,331C944.001648,330.909607,944.021851,330.820862,944.058594,330.738281C944.111267,330.661987,944.176697,330.595734,944.25,330.539063L944.378906,330.453125L944.53125,330.382813C944.90979,330.244537,945.301025,330.144104,945.699219,330.082031C945.775085,330.065216,945.850708,330.047546,945.925781,330.027344L946,330L959,332M1032.222656,398.964844L1032,399L1033,410C1033.137817,409.976593,1033.273315,409.941742,1033.40625,409.898438C1033.842896,409.708405,1034.230957,409.422699,1034.546875,409.066406C1034.932495,408.632629,1035.277954,408.164795,1035.578125,407.667969L1035.898438,407.128906C1036.306274,406.389923,1036.690552,405.638275,1037.050781,404.875C1037.345459,404.239166,1037.661865,403.61377,1038,403C1037.423706,402.297485,1036.816162,401.621216,1036.179688,400.972656C1035.699951,400.489594,1035.172729,400.056061,1034.605469,399.679688L1034.1875,399.429688L1033.757813,399.226563L1033.320313,399.070313L1032.882813,398.980469C1032.664551,398.94516,1032.442261,398.939148,1032.222656,398.964844M940.332031,359.875C939.351074,359.887939,938.372131,359.968964,937.402344,360.117188C936.962708,360.182526,936.529114,360.283478,936.105469,360.417969C935.789673,360.519379,935.487,360.658081,935.207031,360.835938L935,361L934.914063,361.105469L934.855469,361.238281L934.816406,361.402344L934.796875,361.589844C934.80658,362.03714,934.87085,362.481323,934.984375,362.914063C935.228699,363.853027,935.500977,364.784302,935.800781,365.707031C936.243713,367.115784,936.655273,368.533905,937.035156,369.960938C937.240356,370.771362,937.425171,371.586639,937.589844,372.40625C937.825134,373.635651,938.003906,374.875244,938.125,376.121094C938.683289,381.350098,938.897278,386.610077,938.765625,391.867188C938.721313,393.692169,938.665283,395.515656,938.597656,397.339844C938.575806,398.032318,938.569214,398.72522,938.578125,399.417969C938.60614,399.73877,938.613892,400.060913,938.605469,400.382813C938.576111,401.444855,938.605652,402.507721,938.695313,403.566406C938.775696,404.432281,938.942444,405.287903,939.191406,406.121094C939.323242,406.55426,939.486633,406.977142,939.679688,407.386719L940,408C940.458984,408.826477,940.993652,409.608673,941.597656,410.335938C942.058899,410.881012,942.597351,411.355835,943.195313,411.746094C943.832886,412.144684,944.501648,412.491058,945.195313,412.78125C946.418762,413.30896,947.622375,413.830811,948.84375,414.363281C951.134033,415.313995,953.505615,416.055481,955.929688,416.578125C957.040649,416.82309,958.158203,417.036957,959.28125,417.21875C961.897095,417.735291,964.48938,418.364777,967.050781,419.105469C969.794128,419.879822,972.500061,420.780579,975.160156,421.804688C978.995056,423.275482,982.657654,425.161804,986.082031,427.429688C986.386353,427.62204,986.692688,427.812469,987,428C987.695557,428.33786,988.378479,428.701111,989.046875,429.089844C990.57782,429.979553,992.076111,430.924286,993.539063,431.921875C995.078674,432.958557,996.608276,434.012573,998.125,435.082031C999.638855,436.152344,1001.171509,437.195435,1002.722656,438.210938C1003.144897,438.479736,1003.57074,438.742554,1004,439C1004.10437,438.912109,1004.214966,438.831818,1004.332031,438.761719C1004.826538,438.510498,1005.31488,438.247192,1005.796875,437.972656C1006.269714,437.699097,1006.703369,437.362457,1007.082031,436.96875L1007.355469,436.648438L1007.589844,436.292969L1007.78125,435.902344L1007.859375,435.691406C1007.930481,435.466492,1007.978699,435.234924,1008,435C1008.803955,426.530884,1009.427734,418.046631,1009.871094,409.550781C1010.059814,406.002319,1010.178345,402.451569,1010.226563,398.898438C1010.259949,397.024048,1010.224854,395.149109,1010.121094,393.277344C1010.093445,392.850433,1010.053162,392.4245,1010,392L1009.941406,391.746094C1009.840454,391.479095,1009.680481,391.2388,1009.476563,391.039063C1009.124756,390.7034,1008.725403,390.42157,1008.292969,390.199219C1007.757935,389.915802,1007.20636,389.664948,1006.640625,389.449219C1005.33783,388.965027,1004.022156,388.515564,1002.695313,388.101563C1001.754395,387.808075,1000.826538,387.474274,999.914063,387.101563C999.42334,386.906433,998.951294,386.667236,998.503906,386.386719L998.230469,386.195313C998.003784,386.009277,997.790161,385.807922,997.589844,385.59375C996.717224,384.658875,996.006348,383.585449,995.484375,382.417969C995.196594,381.795868,994.94696,381.156799,994.738281,380.503906C994.452637,379.603455,994.196289,378.694183,993.96875,377.777344C993.815308,377.13443,993.634033,376.498413,993.425781,375.871094C993.302551,375.475098,993.130859,375.095734,992.914063,374.742188L992.757813,374.527344C992.614075,374.337555,992.428345,374.183411,992.214844,374.078125L992,374L991.800781,373.964844L991.617188,373.976563L991.445313,374.023438L991.28125,374.105469C991.173218,374.179382,991.069885,374.259979,990.972656,374.347656C990.756958,374.572418,990.545837,374.801422,990.339844,375.035156C990.159485,375.230255,989.9646,375.411316,989.757813,375.578125C989.527588,375.755524,989.271179,375.895447,989,376C987.963318,376.389984,986.890442,376.67569,985.796875,376.851563C985.331421,376.919739,984.860413,376.942474,984.390625,376.917969C984.197205,376.896484,984.005066,376.864227,983.816406,376.816406L983.652344,376.761719L983.503906,376.695313C983.413757,376.644897,983.330566,376.583893,983.25,376.519531C983.097229,376.386688,982.995117,376.205872,982.953125,376.007813L982.925781,375.84375C982.921753,375.693573,982.931396,375.54361,982.949219,375.394531C982.953064,374.751465,982.923157,374.108643,982.859375,373.46875C982.778503,372.381531,982.649414,371.298431,982.472656,370.222656C982.443481,370.070892,982.41095,369.91983,982.375,369.769531C982.345642,369.674683,982.313721,369.580688,982.277344,369.488281C982.070007,369.080139,981.799194,368.707581,981.476563,368.382813L981.179688,368.136719C980.980957,367.995392,980.768311,367.874634,980.542969,367.78125C980.309814,367.693542,980.071228,367.620911,979.828125,367.566406C979.267029,367.462433,978.701233,367.386322,978.132813,367.335938C977.260559,367.243744,976.394409,367.100403,975.539063,366.90625C974.901733,366.785706,974.247742,366.783691,973.609375,366.898438C973.145203,367.003784,972.67572,367.084137,972.203125,367.140625C971.629272,367.189301,971.051819,367.177826,970.480469,367.105469C969.515442,367.010345,968.55011,366.911346,967.585938,366.808594C967.146057,366.763397,966.710022,366.686188,966.28125,366.578125C965.698303,366.403656,965.144409,366.144073,964.636719,365.808594C963.74823,365.219971,962.86908,364.616913,962,364C961.554077,363.673645,961.086975,363.377319,960.601563,363.113281C959.927002,362.78006,959.21875,362.520111,958.488281,362.339844C954.312988,361.26593,950.060669,360.517487,945.769531,360.101563C943.962769,359.922913,942.1474,359.847321,940.332031,359.875"/>
</svg>
