<?xml version="1.0" encoding="UTF-8"?>
<svg xmlns="http://www.w3.org/2000/svg" width="495.617mm" height="279.777mm" viewBox="-1136.570313 -615.488281 495.617188 279.776764">
    <path transform="matrix(-1,0,0,-1,0,0)" style="stroke:#000000;stroke-width:0.05mm;fill:none" d="M890.125,344.136719L889.390625,351.257813L896.820313,349.941406L897.914063,359.78125L900.394531,366.683594L899.722656,374.5L898.828125,397.492188L897.914063,405.242188L899.054688,440.355469L901.0625,446.605469C903.370483,446.413055,905.674194,446.174713,907.972656,445.890625C916.553284,444.844269,925.17926,444.208099,933.820313,443.984375C937.33783,443.930054,940.860962,443.914429,944.378906,443.9375C948.110962,443.915222,951.846497,443.869568,955.578125,443.800781C958.696472,443.732483,961.815796,443.878662,964.914063,444.238281C968.059265,444.656647,971.182434,445.225037,974.273438,445.941406C976.982605,446.545898,979.677795,447.21405,982.355469,447.945313C989.754517,450.065338,996.919983,452.928864,1003.742188,456.492188C1006.538086,457.962402,1009.332642,459.454956,1012.109375,460.960938C1012.859863,461.356201,1013.624695,461.723663,1014.402344,462.0625L1018.9375,455.984375L1019.144531,455.664063C1021.518433,452.147217,1023.864014,448.622314,1026.191406,445.074219C1032.486694,435.345276,1038.275391,425.298462,1043.535156,414.972656C1044.231201,413.615448,1044.937256,412.267029,1045.65625,410.921875L1045.65625,376.828125L1038.804688,367.355469L1034.289063,359.78125L1042.378906,355.746094L1039.972656,345.578125L1042.8125,345.578125L1049.746094,346.59375L1054.179688,348.417969L1057.019531,351.257813L1057.019531,354.101563L1056.664063,358.648438L1057.019531,362.625L1059.859375,365.464844L1062.703125,376.828125L1061.578125,397.046875L1065.542969,416.605469L1064.03125,421.828125L1061.800781,427.183594L1057.019531,439.335938C1056.966064,440.070831,1056.882446,440.803131,1056.769531,441.53125C1056.426025,443.92511,1056.581543,446.364532,1057.226563,448.695313C1058.24585,452.455658,1059.827393,456.040436,1061.917969,459.328125C1062.893066,460.832825,1063.887451,462.327637,1064.898438,463.808594C1065.133911,464.162018,1065.350098,464.527924,1065.542969,464.90625L1068.496094,477.863281L1071.847656,506.4375L1075.542969,501.136719L1073.410156,512.242188L1078.988281,483.21875L1081.445313,499.738281L1084.125,488.578125L1086.132813,506.214844C1087.191772,503.152893,1088.291138,500.103516,1089.429688,497.070313C1091.692383,490.987061,1093.858887,484.863647,1095.925781,478.710938C1096.941895,475.700928,1097.856567,472.657532,1098.667969,469.585938C1099.090454,468.024933,1099.419189,466.440094,1099.652344,464.839844C1099.669922,464.812988,1099.681152,464.783569,1099.703125,464.757813L1099.738281,464.742188C1099.770996,464.74411,1099.803589,464.747223,1099.835938,464.753906L1099.890625,464.785156C1100.192993,465.023895,1100.447021,465.317719,1100.644531,465.648438C1101.948608,467.645508,1102.871826,469.866089,1103.367188,472.199219C1103.416016,472.429871,1103.449097,472.663513,1103.46875,472.898438L1116.683594,427.96875L1116.683594,450.699219C1117.985474,447.526062,1119.167358,444.305145,1120.226563,441.042969C1122.049194,435.525421,1123.823608,429.980621,1125.542969,424.429688C1126.360107,421.815674,1127.194702,419.207855,1128.046875,416.605469C1128.005005,418.486816,1127.86145,420.364563,1127.617188,422.230469C1127.250366,425.040283,1126.967773,427.860748,1126.769531,430.6875C1126.633789,432.694885,1126.647949,434.709625,1126.8125,436.714844C1126.945557,438.326874,1127.269531,439.917389,1127.777344,441.453125L1128.046875,442.175781L1136.570313,425.128906L1133.730469,442.175781C1133.148193,444.94812,1132.606567,447.727448,1132.105469,450.515625C1130.253052,460.533539,1127.840332,470.439789,1124.878906,480.1875C1122.932251,486.401489,1120.65686,492.507874,1118.0625,498.480469C1117.583008,499.592072,1117.123291,500.711792,1116.683594,501.839844C1116.211792,502.776215,1115.796753,503.740112,1115.441406,504.726563C1114.49707,507.285034,1113.371704,509.773071,1112.074219,512.171875C1110.443604,515.126648,1108.420166,517.846863,1106.058594,520.257813C1104.773071,521.648193,1103.4375,522.991455,1102.054688,524.285156C1100.102295,526.110413,1097.816895,527.543579,1095.324219,528.507813C1092.64209,529.570801,1089.915649,530.51825,1087.152344,531.347656C1081.992798,532.778564,1076.658813,533.481628,1071.304688,533.4375C1068.56665,533.40979,1065.82959,533.302979,1063.097656,533.117188C1062.019775,533.042603,1060.938232,533.034973,1059.859375,533.09375C1058.523682,533.362732,1057.203735,533.7052,1055.90625,534.121094C1052.834839,535.109985,1049.731567,535.997131,1046.601563,536.78125C1039.455688,538.482239,1032.108154,539.182861,1024.769531,538.863281C1020.998901,538.740662,1017.241821,538.347656,1013.527344,537.6875C1011.112122,537.237488,1008.725159,536.646545,1006.378906,535.917969C1004.149841,535.208069,1001.934998,534.48761,999.714844,533.75C994.641052,532.083862,989.44751,530.806702,984.179688,529.929688C975.334167,528.425903,966.382324,527.634277,957.410156,527.5625C954.296692,527.545532,951.222229,527.522095,948.109375,527.492188C947.477295,527.480225,946.845642,527.452942,946.214844,527.410156C944.935181,527.79126,943.639709,528.117126,942.332031,528.386719C938.731445,529.153564,935.19397,530.191711,931.75,531.492188C928.810425,532.64386,925.965698,534.024292,923.242188,535.621094C921.0979,536.801819,919.00116,538.067322,916.957031,539.414063C914.623657,540.998779,912.477173,542.842529,910.558594,544.910156C908.292725,547.320923,906.057007,549.755737,903.847656,552.21875C901.280884,555.223877,899.02356,558.479858,897.109375,561.9375C896.5802,562.915283,896.014343,563.872803,895.414063,564.808594L896.375,563.8125L882.433594,578.339844L870.925781,585.6875L878.027344,584.234375L863.109375,595.597656L860.980469,595.597656L856.414063,597.96875L847.261719,599.753906L842.570313,603.636719C842.490967,604.326111,842.433777,605.017883,842.398438,605.710938C842.293457,607.159424,841.845886,608.562378,841.09375,609.804688C840.242981,611.080994,839.104675,612.139526,837.769531,612.894531C837.187866,613.216125,836.609558,613.544434,836.035156,613.878906L835.867188,614L835.410156,604.121094L824.046875,612.644531L821.203125,615.488281C821.411804,614.639038,821.584961,613.781555,821.722656,612.917969C822.313171,609.46405,823.316589,606.093567,824.710938,602.878906C825.548889,601.036255,826.611877,599.304443,827.875,597.722656C828.09613,597.439819,828.306946,597.149109,828.507813,596.851563C826.352539,595.639771,824.221924,594.449829,822.058594,593.25C819.233032,591.640198,816.451904,589.953308,813.71875,588.191406C813.292908,587.89917,812.984436,587.465027,812.855469,586.964844C812.683411,586.230713,812.631836,585.473633,812.699219,584.722656C812.714478,584.559631,812.71051,584.395081,812.679688,584.234375L811.539063,578.992188L807.96875,574.082031L800.378906,569.390625L789.953125,561.503906L787.429688,557.113281L791.671875,545.726563L791.773438,545.664063C792.210388,545.313904,792.622131,544.933044,793.003906,544.523438C793.771851,543.7453,794.632507,543.064514,795.566406,542.496094C796.447021,541.962891,797.447998,541.659302,798.476563,541.617188C799.470093,541.622986,800.45343,541.816223,801.375,542.1875C802.721497,542.716553,804.011963,543.378113,805.226563,544.164063C806.561157,545.029419,807.872742,545.929321,809.160156,546.863281C809.380249,547.018982,809.606873,547.165161,809.839844,547.300781L824.046875,550.140625C824.987671,550.383911,825.91925,550.661621,826.839844,550.972656C828.50116,551.508301,830.222839,551.834961,831.964844,551.945313C833.774841,552.050598,835.589233,551.834961,837.324219,551.308594C838.258789,551.059814,839.223511,550.805908,840.160156,550.5625C840.498108,550.490845,840.81665,550.346924,841.09375,550.140625L843.464844,542.824219L846.773438,530.253906C847.327393,528.612305,847.941162,526.991333,848.613281,525.394531C850.288574,521.321045,851.734985,517.15686,852.945313,512.921875C854.033325,509.032135,854.852844,505.072357,855.398438,501.070313C855.625061,498.919708,855.619751,496.751068,855.382813,494.601563C855.340454,494.174194,855.311646,493.745605,855.296875,493.316406L855.296875,484.792969C855.377441,483.984009,855.380371,483.169189,855.308594,482.359375C855.143005,480.268341,855.05835,478.171722,855.054688,476.074219C855.062073,473.444336,855.452698,470.829529,856.214844,468.3125C856.929321,466.063171,858.024658,463.952911,859.453125,462.074219C861.018005,459.958344,862.690857,457.924347,864.464844,455.980469C866.33374,453.864594,868.310364,451.846252,870.386719,449.933594C870.670593,449.676697,870.968872,449.436188,871.28125,449.214844C871.179077,448.403015,871.055237,447.59433,870.910156,446.789063C870.583313,444.684021,870.653748,442.536285,871.117188,440.457031C871.676697,437.999939,872.580017,435.634247,873.800781,433.429688C874.297974,432.576263,874.760742,431.703217,875.1875,430.8125L878.027344,425.128906L880.867188,416.605469L880.867188,408.082031L881.863281,400.394531L883.710938,393.875L884.988281,386.777344L884.765625,373.160156L881.863281,364.007813L878.027344,356.941406L869.503906,342.734375L879.183594,342.351563L889.390625,339.894531L890.125,344.136719z"/>
    <path transform="matrix(-1,0,0,-1,0,0)" style="stroke:#000000;stroke-width:0.05mm;fill:none" d="M805.6875,356.335938L802.695313,359.328125L800.566406,361.136719C798.626404,362.918945,796.996277,365.011353,795.742188,367.328125C795.10376,368.458344,794.517029,369.617035,793.984375,370.800781C793.502502,371.723602,792.926636,372.594147,792.265625,373.398438C790.772461,375.288239,789.354675,377.236267,788.015625,379.238281C786.922119,380.924652,785.935852,382.678101,785.0625,384.488281C783.635254,387.266846,782.109497,389.993958,780.488281,392.664063C780.27301,393.027008,780.072266,393.398346,779.886719,393.777344L778.734375,401.265625C778.691772,401.878174,778.569092,402.482605,778.367188,403.0625C777.894226,404.502014,777.430664,405.944885,776.976563,407.390625C775.570557,412.130066,775.144897,417.106354,775.726563,422.015625C775.80072,422.888611,775.835999,423.764496,775.832031,424.640625C775.82428,424.837921,775.787415,425.032471,775.734375,425.222656L772.742188,434.207031L772.742188,440.199219L771.375,442.375C771.889832,442.240387,772.421387,442.180054,772.953125,442.199219L776.136719,442.390625C776.571777,442.413574,777.007996,442.403656,777.441406,442.359375C778.795959,442.11322,780.145386,441.838318,781.488281,441.535156C784.498657,440.909729,787.5448,440.471436,790.609375,440.222656C792.287048,440.082153,793.956055,439.8526,795.609375,439.535156C796.223389,439.437286,796.839417,439.352844,797.457031,439.28125C801.13269,438.963989,804.816528,438.745178,808.503906,438.625C809.672546,438.562653,810.841248,438.484558,812.007813,438.390625C812.172668,438.371033,812.330139,438.316345,812.480469,438.246094C813.120972,438.039917,813.792664,437.946442,814.464844,437.976563C815.819336,437.995056,817.171265,438.101746,818.511719,438.296875C819.737366,438.433777,820.967224,438.53009,822.199219,438.585938C822.837158,438.588196,823.473633,438.523071,824.097656,438.390625C824.274719,438.337952,824.447937,438.273224,824.617188,438.199219C825.001404,438.187073,825.384949,438.248627,825.742188,438.390625C827.090881,438.864166,828.422607,439.385223,829.734375,439.953125C831.499878,440.663605,833.316223,441.240601,835.167969,441.679688C836.435547,441.947937,837.727844,442.081696,839.023438,442.078125C842.598022,442.197449,846.15564,442.62619,849.65625,443.359375C850.436584,443.522522,851.220642,443.667145,852.007813,443.792969L859.609375,437.199219L860.351563,436.457031L868.59375,425.222656L874.585938,419.230469L876.769531,410.488281L876.769531,415.945313L874.230469,423.550781C873.210999,425.56427,872.203857,427.586365,871.210938,429.613281C870.894897,430.241821,870.557373,430.859283,870.199219,431.464844C868.483398,434.542175,867.329956,437.900635,866.792969,441.382813C866.526184,443.444061,866.555603,445.532806,866.878906,447.585938C863.118164,451.171204,859.646545,455.047791,856.496094,459.179688C853.622986,462.842407,851.812012,467.225128,851.261719,471.847656C850.947327,474.199677,850.862549,476.576813,851.007813,478.945313C851.082886,480.485199,851.166199,482.023315,851.257813,483.5625C851.258667,483.973602,851.237793,484.384521,851.191406,484.792969L851.191406,493.320313C851.221802,494.093048,851.280334,494.86438,851.367188,495.632813C851.566101,497.869171,851.465942,500.121979,851.070313,502.332031C850.40094,506.517029,849.422974,510.646729,848.144531,514.6875C844.542297,514.554932,840.935791,514.582336,837.335938,514.769531C829.827698,515.224365,822.431519,516.812744,815.398438,519.480469C812.573914,520.515747,809.782043,521.638733,807.027344,522.847656C803.244995,524.546021,799.603271,526.541809,796.136719,528.816406C789.365051,533.068054,782.925903,537.827881,776.875,543.054688C775.894714,543.925537,774.901367,544.781067,773.894531,545.621094C772.995605,546.360291,772.065125,547.060242,771.105469,547.71875L739.800781,568.992188C738.739075,569.656311,737.721375,570.388428,736.753906,571.183594C733.614197,573.729431,730.373047,576.148132,727.039063,578.433594C721.363281,582.252563,715.177429,585.252197,708.664063,587.34375C704.723633,588.497986,700.659973,589.17981,696.558594,589.375C693.113647,589.579102,689.65979,589.579102,686.214844,589.375C684.783508,589.298096,683.354248,589.234375,681.921875,589.183594C681.71167,589.188721,681.502563,589.214233,681.296875,589.257813C680.91571,589.623169,680.568237,590.022156,680.257813,590.449219C679.04303,592.002563,677.799561,593.53241,676.527344,595.039063C675.658142,596.037231,674.725037,596.977722,673.734375,597.855469C673.223938,598.287354,672.656067,598.646362,672.046875,598.921875C671.741394,599.052673,671.400513,599.080444,671.078125,599C670.961853,598.952942,670.848572,598.89856,670.742188,598.832031C670.713623,598.78186,670.680725,598.734497,670.652344,598.683594C670.631165,598.627625,670.61377,598.570313,670.601563,598.511719C670.620667,598.182251,670.653625,597.853638,670.703125,597.527344L670.554688,597.390625C670.421265,597.237244,670.339966,597.047607,670.304688,596.847656C670.12384,596.280029,669.960938,595.706848,669.816406,595.128906C669.653137,594.477478,669.364685,593.863831,668.964844,593.324219L668.769531,593.089844L668.617188,592.953125C668.293335,592.714722,667.890259,592.610046,667.492188,592.667969C667.319214,592.703247,667.151672,592.760254,666.992188,592.835938C666.286865,593.143982,665.65686,593.60144,665.144531,594.175781C664.612976,594.732239,664.093201,595.300171,663.585938,595.878906C663.49353,595.971863,663.389832,596.053284,663.273438,596.113281L663.191406,596.113281L663.167969,596C663.307373,595.423157,663.519287,594.866211,663.800781,594.34375C664.801147,592.249817,665.847168,590.177307,666.9375,588.128906C667.406433,587.197388,667.849426,586.253113,668.265625,585.296875L668.449219,584.769531C666.271729,582.534668,664.111816,580.291504,661.960938,578.03125L661.921875,577.910156C662.006836,576.920837,662.068054,575.929749,662.105469,574.9375C662.11615,573.698059,662.016724,572.460144,661.808594,571.238281C661.170959,567.307251,660.122375,563.454041,658.679688,559.742188C658.248169,558.671143,657.845764,557.588867,657.472656,556.496094L657.40625,556.265625C656.602844,555.067139,655.738464,553.910645,654.816406,552.800781C651.928833,549.269287,649.303345,545.531555,646.960938,541.617188C645.076477,538.373352,643.472961,534.974182,642.167969,531.457031C641.480652,529.332092,641.103149,527.119324,641.046875,524.886719C641.026733,524.61084,640.994507,524.335999,640.953125,524.0625L641.0625,523.886719L645.351563,516.847656C646.007141,516.671326,646.658203,516.493652,647.3125,516.3125C648.355591,515.974487,649.343872,515.486511,650.246094,514.863281C650.679871,514.471985,651.079834,514.0448,651.441406,513.585938L651.511719,513.617188L651.585938,513.65625C652.185425,513.750488,652.791565,513.796143,653.398438,513.792969C654.591797,513.813721,655.782227,513.918152,656.960938,514.105469C657.361877,514.196899,657.754944,514.319885,658.136719,514.472656C658.440002,514.617432,658.709961,514.823853,658.929688,515.078125C660.079041,516.72229,660.992065,518.519653,661.640625,520.417969C661.729675,520.637451,661.823181,520.85498,661.921875,521.070313C664.960571,523.102295,667.8573,525.032471,670.902344,527.054688C672.290649,527.681274,673.688904,528.284119,675.097656,528.863281C678.120728,530.181824,681.014709,531.778625,683.742188,533.632813C685.014587,534.586853,686.2276,535.617554,687.375,536.71875C688.035034,536.811035,688.684204,536.969116,689.3125,537.191406C690.600708,537.559875,691.927246,537.777771,693.265625,537.839844C694.370544,537.842896,695.467834,537.658997,696.511719,537.296875C697.665771,536.822876,698.669556,536.045044,699.417969,535.046875C699.866394,534.437073,700.302612,533.81842,700.726563,533.191406L700.855469,533.046875L706.847656,521.070313C707.251404,520.198608,707.702515,519.349609,708.199219,518.527344C709.850281,515.752197,711.150635,512.782898,712.070313,509.6875C712.726746,507.276825,713.113464,504.800751,713.222656,502.304688C713.47522,497.818054,713.11261,493.317963,712.144531,488.929688C711.807373,487.276611,711.452209,485.629578,711.078125,483.984375C710.985413,483.480743,710.910889,482.973907,710.855469,482.464844C711.15802,482.228119,711.387878,481.911652,711.519531,481.550781C711.723206,480.933777,711.883301,480.303253,712,479.664063C712.09967,479.212799,712.286011,478.785004,712.550781,478.40625C712.637268,478.296173,712.745728,478.205627,712.863281,478.128906L717.664063,463.574219C719.5495,463.152191,721.346985,462.405121,722.976563,461.367188C723.788208,460.822418,724.44873,460.080902,724.894531,459.210938C725.224609,458.539642,725.399109,457.802704,725.40625,457.054688L725.363281,456.808594C725.301575,456.566925,725.205139,456.335724,725.078125,456.121094C724.677246,455.491516,724.213745,454.904114,723.695313,454.367188C722.685181,453.212646,721.690063,452.04422,720.710938,450.863281C718.702454,448.592285,716.542603,446.459747,714.246094,444.480469C713.764954,444.064484,713.295898,443.634766,712.839844,443.191406L703.855469,437.199219L699.359375,435.703125L694.871094,434.207031C694.333496,433.895844,693.83136,433.526917,693.375,433.105469C691.566528,431.544647,689.976501,429.747375,688.648438,427.761719C687.349548,425.690155,686.513916,423.362274,686.199219,420.9375C686.10321,420.366486,685.996399,419.797424,685.878906,419.230469L685.878906,371.175781C685.78894,370.2435,685.712097,369.309509,685.648438,368.375C685.578552,366.974457,685.801941,365.574707,686.304688,364.265625C686.806152,363.080872,687.595825,362.040527,688.601563,361.238281C689.041443,360.929626,689.568176,360.769348,690.105469,360.777344C691.06604,360.815277,692.02594,360.871246,692.984375,360.945313C695.541504,360.908051,698.096619,361.10672,700.617188,361.539063C701.710815,361.740082,702.791931,362.00354,703.855469,362.328125C704.185669,362.945709,704.537354,363.551697,704.910156,364.144531C705.482178,365.139923,705.855408,366.237091,706.007813,367.375C706.166504,369.043915,705.812744,370.72171,704.992188,372.183594C704.65741,372.829163,704.308228,373.467468,703.945313,374.097656L703.855469,374.304688L697.863281,383.289063L699.710938,388.511719L697.863281,401.265625C697.791077,404.420593,697.666016,407.575897,697.488281,410.726563C697.432312,411.990051,697.399841,413.254791,697.390625,414.519531L700.855469,419.230469L706.847656,425.222656L715.832031,428.214844L719.847656,430.511719L723.855469,432.808594C724.512268,433.115051,725.156128,433.448517,725.785156,433.808594C729.054932,435.61795,732.552063,436.981689,736.183594,437.863281C740.407166,438.923981,744.717468,439.603851,749.0625,439.894531C749.969604,439.975281,750.874939,440.076752,751.777344,440.199219C752.163757,438.939331,752.557312,437.64447,752.9375,436.382813C754.566895,431.234619,756.750244,426.278534,759.449219,421.601563C759.897888,420.817657,760.335571,420.026855,760.761719,419.230469C761.909546,416.137451,762.949341,413.005249,763.878906,409.839844C764.451782,407.795532,764.895508,405.717285,765.207031,403.617188C766.013184,399.606659,767.547913,395.77771,769.734375,392.320313C769.939209,391.979797,770.169373,391.655182,770.425781,391.351563C772.824951,388.338928,774.890503,385.075104,776.585938,381.617188C777.389282,379.945709,778.049438,378.209045,778.558594,376.425781C778.769714,375.720795,778.975708,375.012939,779.175781,374.304688C780.344116,370.710388,782.045288,367.311798,784.222656,364.222656C785.028625,363.066498,785.863647,361.930664,786.726563,360.816406L787.71875,350.34375L805.6875,350.34375L805.6875,356.335938z"/>
    <path transform="matrix(-1,0,0,-1,0,0)" style="stroke:#000000;stroke-width:0.05mm;fill:none" d="M980.183594,335.71875C981.115173,335.679169,982.039795,335.895935,982.855469,336.347656C983.175293,336.507721,983.445557,336.752441,983.636719,337.054688C983.712524,337.171204,983.770691,337.297516,983.824219,337.425781C983.934998,337.953003,983.915405,338.499237,983.761719,339.015625C983.57196,339.679871,983.317139,340.323792,983,340.9375C982.242981,342.329102,981.443115,343.696899,980.601563,345.039063C980.502502,345.214813,980.418701,345.39859,980.34375,345.585938L976.417969,353.335938L975.929688,353.335938L975.710938,353.382813C975.648071,353.420685,975.587891,353.462494,975.527344,353.503906C974.285706,354.732483,973.052917,355.973145,971.832031,357.222656C971.310242,357.733307,970.868408,358.31958,970.519531,358.960938L970.453125,359.140625L970.425781,359.328125L961.441406,380.296875C961.062866,381.902405,960.747437,383.522003,960.496094,385.152344C959.728821,389.570129,958.514282,393.898315,956.871094,398.070313C955.847595,400.579193,954.627747,403.003479,953.222656,405.320313C951.791809,407.569031,950.082947,409.628174,948.136719,411.449219C946.951904,412.551575,945.809204,413.698151,944.710938,414.886719C942.966858,416.87384,941.527649,419.109009,940.441406,421.519531C938.752686,424.965851,937.794495,428.724335,937.628906,432.558594C937.581238,433.389709,937.567261,434.222412,937.585938,435.054688C937.54303,435.950226,937.507874,436.846039,937.480469,437.742188C937.502197,438.439758,937.542786,439.136597,937.601563,439.832031C932.762024,439.848938,927.924988,440.030029,923.097656,440.375C922.362,440.396973,921.627258,440.442627,920.894531,440.511719C915.238647,440.965546,909.594238,441.533234,903.960938,442.214844L903.136719,439.65625L902.640625,424.488281L904.304688,423.382813L904.847656,423.015625L905.441406,422.625L906.0625,422.207031C910.488892,419.265137,915.094849,416.193359,919.511719,413.238281C920.366028,411.956146,921.195496,410.657745,922,409.34375C924.218506,405.904144,926.854431,402.752563,929.847656,399.960938C931.258118,398.711304,932.816895,397.639832,934.488281,396.769531C936.50769,395.704529,938.36145,394.351685,939.992188,392.753906C943.013794,389.791016,945.640869,386.450928,947.808594,382.816406C948.447266,381.789642,949.111694,380.778748,949.800781,379.785156C950.97644,377.912323,951.765564,375.82312,952.121094,373.640625C952.297791,372.643402,952.438416,371.640167,952.542969,370.632813C953.00238,367.241272,953.937317,363.931427,955.320313,360.800781C957.025208,356.77951,959.132202,352.94104,961.609375,349.34375C962.449402,348.089539,963.318115,346.854889,964.214844,345.640625L971.273438,337.015625C972.085144,336.941071,972.889771,336.802643,973.679688,336.601563C975.533386,336.15744,977.419617,335.862122,979.320313,335.71875C979.607971,335.709229,979.895935,335.708954,980.183594,335.71875z"/>
    <path transform="matrix(-1,0,0,-1,0,0)" style="stroke:#000000;stroke-width:0.05mm;fill:none" d="M844.734375,363.136719L852.472656,364.0625L850.617188,368.3125L853.617188,374.304688L856.609375,377.296875L868.59375,386.289063L873.375,390.457031L877.574219,392.273438L879.617188,393.289063C879.029053,395.36908,878.46167,397.370789,877.871094,399.449219L877.820313,399.652344L877.800781,399.863281L876.921875,406.601563C875.149292,404.813354,873.374878,403.03894,871.585938,401.265625C870.238159,400.678223,868.882874,400.109314,867.519531,399.558594C864.565491,398.296021,861.744263,396.742767,859.097656,394.921875C857.491272,393.73822,856.001465,392.404022,854.648438,390.9375L854.480469,390.785156L849.375,388.511719L844.632813,386.289063L841.632813,380.296875L839.160156,376.601563L840.136719,372.808594C839.684082,372.862427,839.230652,372.717682,838.890625,372.414063C838.734802,372.277161,838.606445,372.112183,838.507813,371.929688L838.382813,371.640625C838.169128,370.929596,838.082214,370.186737,838.121094,369.445313C838.128479,369.027924,838.165955,368.611664,838.230469,368.199219C838.318848,367.406525,838.433777,366.617157,838.574219,365.832031C838.616699,365.168488,838.715515,364.509735,838.871094,363.863281C839.076721,363.218109,839.528137,362.679535,840.128906,362.367188C840.383728,362.2258,840.628662,362.067413,840.863281,361.894531L844.734375,363.136719z"/>
</svg>
