<?xml version="1.0" encoding="UTF-8"?>
<svg xmlns="http://www.w3.org/2000/svg" width="339.272mm" height="248.566mm" viewBox="-1245.238281 -752.035095 339.271973 248.566040">
    <path transform="matrix(-1,0,0,-1,0,0)" style="stroke:none;fill:#000000;fill-rule:evenodd" d="M1061.46228,522.931091L1058.638306,525.763123C1057.966675,526.327271,1057.296387,526.896118,1056.630371,527.467102C1055.098389,528.870178,1053.773071,530.483704,1052.694336,532.259094C1051.849121,533.655273,1051.087891,535.100525,1050.414307,536.587097C1050.023804,537.367249,1049.548828,538.102295,1048.998291,538.779114C1047.958252,540.115784,1046.942261,541.470337,1045.950317,542.843079C1044.439331,544.946533,1043.116821,547.179199,1041.998291,549.515076C1040.643188,552.13501,1039.202393,554.709839,1037.678345,557.235107C1037.479492,557.580688,1037.287476,557.929932,1037.102295,558.283081L1036.022339,565.347107C1035.990356,565.836365,1035.899048,566.319885,1035.750366,566.787109C1035.388306,567.958862,1035.015137,569.126648,1034.630371,570.291077C1033.782593,572.859985,1033.247925,575.522034,1033.03833,578.219116C1032.896362,580.316895,1032.931152,582.423096,1033.142334,584.515076C1033.23877,585.415894,1033.286865,586.321167,1033.286377,587.227112C1033.279785,587.475098,1033.247803,587.721741,1033.190308,587.963074L1030.366333,596.443115L1030.366333,602.099121L1029.070313,604.15509C1029.557617,604.02417,1030.062012,603.968201,1030.566284,603.987122C1031.431152,604.022766,1032.295532,604.07605,1033.158325,604.147095C1033.703857,604.198303,1034.253296,604.19574,1034.79834,604.139099C1035.089966,604.091919,1035.380981,604.038574,1035.670288,603.979126C1037.318115,603.637268,1038.963379,603.304504,1040.61438,602.979126C1043.190796,602.521423,1045.788818,602.195801,1048.398315,602.003113C1049.633423,601.880371,1050.861572,601.695923,1052.078369,601.451111C1053.533813,601.229431,1054.999878,601.08252,1056.470337,601.011108C1059.583618,600.827332,1062.698975,600.664612,1065.814331,600.523071C1066.424072,600.488037,1067.032471,600.432068,1067.638306,600.355103C1068.192993,600.122131,1068.788818,600.003174,1069.390381,600.003113C1070.468018,599.990417,1071.545166,600.052002,1072.61438,600.187073C1073.757446,600.335266,1074.904663,600.450012,1076.054321,600.531128C1076.784058,600.592163,1077.518066,600.584106,1078.246338,600.50708C1078.620728,600.472595,1078.985718,600.370544,1079.326294,600.211121C1079.689575,600.204529,1080.05127,600.264343,1080.390381,600.395081C1081.448486,600.756714,1082.491821,601.159668,1083.518311,601.603088C1085.203369,602.316467,1086.938843,602.904724,1088.710327,603.363098C1089.895996,603.663696,1091.111572,603.830139,1092.334351,603.859131C1096.012085,603.943726,1099.673584,604.375,1103.270386,605.147095C1103.906738,605.280884,1104.546997,605.395691,1105.190308,605.491089L1112.358276,599.275085L1113.062378,598.56311L1116.950317,593.26709L1120.838379,587.963074L1126.494385,582.307129L1129.318359,571.003113C1127.442139,569.120544,1125.551514,567.227478,1123.670288,565.347107C1122.696411,564.910339,1121.712158,564.496826,1120.718384,564.107117C1117.789185,562.922424,1114.988037,561.442627,1112.358276,559.691101C1110.844971,558.664246,1109.452026,557.469971,1108.206299,556.131104C1107.984375,555.897095,1107.754883,555.670349,1107.518311,555.451111L1102.702393,553.315063L1098.22229,551.211121L1095.390381,545.555115L1093.062378,542.067078L1093.9823,538.483093C1093.25354,538.568665,1092.564209,538.126465,1092.342285,537.427124C1092.136841,536.811523,1092.047241,536.163269,1092.078369,535.515076C1092.122925,534.446533,1092.243164,533.382568,1092.438354,532.331116C1092.518677,531.812988,1092.585327,531.292725,1092.638306,530.771118C1092.694702,530.313293,1092.838501,529.8703,1093.062378,529.467102C1093.291504,529.115356,1093.60498,528.826538,1093.974365,528.627075C1094.212036,528.489563,1094.444092,528.342773,1094.670288,528.187073L1098.318359,529.355103L1105.622314,530.227112L1103.878296,534.243103L1106.702393,539.899109L1109.526367,542.723083L1120.838379,551.211121L1125.350342,555.147095L1129.318359,556.859131L1134.974365,559.691101L1137.46228,562.171082L1136.806274,564.467102L1135.942383,571.147095L1135.942383,578.939087C1135.947021,579.382385,1135.876831,579.823303,1135.734375,580.243103L1133.054321,588.283081C1133.001221,588.444641,1132.937134,588.602417,1132.862305,588.755127L1130.22229,594.035095C1129.772949,594.991028,1129.279053,595.925354,1128.74231,596.835083C1127.69165,598.724792,1126.946533,600.768616,1126.534302,602.891113C1126.29541,604.207581,1126.287476,605.555786,1126.510376,606.875122C1126.662231,607.686768,1126.787598,608.503235,1126.886353,609.32312C1127.004639,610.636963,1126.48938,611.927856,1125.502319,612.803101C1125.127563,613.089478,1124.764526,613.391052,1124.414307,613.707092C1122.65918,615.349609,1120.982666,617.07428,1119.390381,618.875122C1117.658081,620.76355,1116.036621,622.750977,1114.534302,624.827087C1113.350342,626.536865,1112.518188,628.464783,1112.086304,630.499084C1111.752075,632.009644,1111.58313,633.552002,1111.582275,635.099121C1111.596191,637.221558,1111.684326,639.342773,1111.846313,641.459106C1111.874023,642.141968,1111.860596,642.825867,1111.806274,643.50708L1111.814331,651.355103C1111.848145,651.926941,1111.89624,652.49762,1111.958374,653.067078C1112.175293,655.787048,1112.046143,658.523621,1111.574341,661.21106C1110.944824,665.134705,1110.046631,669.010498,1108.886353,672.811096C1106.076416,672.644653,1103.266968,672.503296,1100.454346,672.387085C1096.300781,672.227661,1092.141113,672.361328,1088.006348,672.787109C1081.724365,673.444336,1075.562622,674.962708,1069.694336,677.299072C1066.713989,678.384888,1063.782959,679.602051,1060.910278,680.947083C1057.990601,682.379822,1055.158936,683.985352,1052.430298,685.755127C1048.837769,688.027161,1045.333496,690.437134,1041.926392,692.979126C1038.901978,695.29248,1035.956177,697.707275,1033.09436,700.219116C1032.033569,701.148315,1030.942383,702.042114,1029.822388,702.899109C1029.498047,703.145142,1029.161621,703.374756,1028.814331,703.587097L999.262329,723.67511C998.067871,724.451599,996.916992,725.292908,995.814331,726.195068C993.114868,728.380981,990.328735,730.457214,987.46228,732.419067C982.775024,735.595032,977.71936,738.190063,972.406372,740.147095C968.708618,741.494019,964.852905,742.35968,960.934326,742.723083C957.374268,743.061035,953.794678,743.149292,950.22229,742.987061C948.556763,742.897095,946.889038,742.817017,945.22229,742.74707C944.859253,742.729553,944.495361,742.738525,944.134277,742.779053L944.03833,742.803101C943.296143,743.618713,942.591553,744.467529,941.926392,745.347107C940.814575,746.786987,939.637329,748.175232,938.398315,749.50708C937.668091,750.313904,936.837402,751.023926,935.926392,751.619141C935.566528,751.848938,935.159546,751.996704,934.734375,752.035095C934.648682,752.037842,934.562744,752.035217,934.478394,752.019104C934.360229,752.011963,934.246704,751.968384,934.150391,751.899109C933.989868,751.76709,933.912964,751.56073,933.942383,751.355103C933.978516,751.107483,934.013184,750.859131,934.046387,750.611084L933.958374,750.555054L933.878296,750.459106C933.684204,750.068604,933.541748,749.654419,933.454346,749.227112C933.311401,748.644897,933.129883,748.072876,932.910278,747.515137C932.744751,747.08606,932.491943,746.695923,932.166382,746.371094C932.0448,746.264771,931.906494,746.179443,931.758301,746.115112C931.415405,745.983093,931.035156,745.977905,930.694336,746.115112C930.064209,746.37085,929.493042,746.752197,929.014282,747.235107C928.458618,747.781982,927.927368,748.353149,927.422363,748.947083C927.314575,749.081177,927.180298,749.190674,927.030396,749.275085C927.00647,749.276123,926.982544,749.27655,926.958374,749.275085C926.94751,749.251221,926.936401,749.227417,926.926392,749.203125C926.932739,749.126709,926.938843,749.050659,926.966309,748.979126C927.112793,748.505127,927.300781,748.044922,927.526367,747.603088C928.515015,745.55896,929.533813,743.529114,930.582275,741.515137C931.060791,740.630615,931.482788,739.716675,931.846313,738.779053C931.872803,738.707947,931.897339,738.636108,931.918335,738.56311C929.859497,736.451782,927.824219,734.339355,925.790283,732.203125L925.758301,732.163086C925.808716,731.340576,925.862915,730.497192,925.918335,729.67511C925.964355,728.145874,925.837891,726.616211,925.542358,725.115112C924.894165,721.507996,923.89209,717.973572,922.550293,714.56311C922.162109,713.608643,921.809937,712.640015,921.494385,711.659119C920.855347,710.697754,920.169189,709.768616,919.438354,708.875122C917.266968,706.223267,915.232178,703.46228,913.342285,700.603088C910.806763,696.730652,908.716187,692.584351,907.110352,688.243103C906.52771,686.492554,906.188477,684.670105,906.102295,682.827087C906.083618,682.305176,906.038574,681.784363,905.966309,681.26709C907.327393,679.020813,908.74707,676.690369,910.118286,674.451111C910.678833,674.288696,911.241455,674.134033,911.806274,673.987061C912.854126,673.68457,913.843872,673.208801,914.734375,672.579102C915.125122,672.25238,915.474487,671.878967,915.774292,671.467102L915.862305,671.371094C916.025635,671.456299,916.206299,671.502502,916.390381,671.50708C917.299561,671.558228,918.208374,671.600891,919.118286,671.635132C919.885864,671.67334,920.648682,671.777527,921.398315,671.947083C921.919922,672.048584,922.405518,672.286072,922.806274,672.635132C923.78479,673.95459,924.576172,675.403015,925.158325,676.939087C925.337891,677.44574,925.537964,677.944824,925.758301,678.43512L925.958374,678.579102L926.182373,678.723083C926.723633,679.081665,927.25769,679.435974,927.79834,679.795105C929.953491,681.239197,932.077759,682.656433,934.238281,684.091064C935.315308,684.576843,936.401001,685.043579,937.494385,685.491089C940.448486,686.743286,943.283813,688.258728,945.966309,690.019104C947.223877,690.907776,948.409058,691.894836,949.510376,692.971069C949.600342,693.05188,949.69104,693.131836,949.782349,693.21106C950.248413,693.264648,950.707275,693.369019,951.150391,693.523071C952.208496,693.843994,953.292603,694.071411,954.390381,694.203125C955.745728,694.364319,957.119873,694.210938,958.406372,693.755127C959.376221,693.370605,960.2323,692.745483,960.894287,691.939087C961.381714,691.335022,961.835815,690.704834,962.254395,690.051086C962.335083,689.945984,962.420654,689.844666,962.510376,689.74707L968.166382,678.43512C968.544922,677.611816,968.969482,676.810486,969.438354,676.035095C970.706299,673.89801,971.761963,671.641907,972.590332,669.299072C973.364136,667.03949,973.861206,664.694336,974.070313,662.315063C974.459473,658.089111,974.257446,653.829346,973.470337,649.659119C973.101685,647.734863,972.698853,645.817078,972.262329,643.907104C972.115845,643.277466,972.011841,642.638672,971.950317,641.995117C972.242676,641.778503,972.462524,641.477356,972.574341,641.131104C972.766113,640.541321,972.921021,639.940063,973.03833,639.331116C973.126831,638.863953,973.336914,638.428101,973.646362,638.067078L973.846313,637.899109L978.37439,624.171082C979.803223,623.83075,981.184326,623.314941,982.486328,622.635132C983.17041,622.271484,983.798096,621.810425,984.350342,621.26709C984.850952,620.762024,985.219238,620.140564,985.422363,619.459106C985.606323,618.999023,985.694946,618.506287,985.678345,618.011108C985.627197,617.573914,985.451538,617.16095,985.174316,616.819092C984.690918,616.180176,984.175659,615.56604,983.630371,614.979126C982.943848,614.182007,982.265991,613.37616,981.598389,612.56311C979.538818,610.205688,977.314575,607.997559,974.942383,605.955078C974.553711,605.628174,974.17981,605.283875,973.822388,604.923096L965.334351,599.275085L956.85437,596.443115C956.238647,596.070984,955.664551,595.634033,955.142334,595.139099C953.675171,593.822998,952.362793,592.344177,951.230347,590.731079C949.9646,588.838989,949.119019,586.69751,948.750366,584.451111C948.645996,583.73291,948.52063,583.017944,948.37439,582.307129L948.37439,536.947083C948.310669,536.216797,948.24707,535.493591,948.182373,534.763123C948.077637,533.547913,948.188477,532.323547,948.510376,531.147095C948.842285,530.079163,949.411011,529.100342,950.174316,528.283081C950.494263,527.865662,950.911987,527.533569,951.390381,527.315125C951.81958,527.15625,952.27832,527.093628,952.734375,527.131104C953.749268,527.208252,954.765381,527.266907,955.782349,527.307129C958.865967,527.273743,961.939575,527.661377,964.918335,528.459106C965.058105,528.498291,965.196777,528.540833,965.334351,528.587097C965.573853,529.05426,965.838135,529.508301,966.126343,529.947083C966.717041,530.895386,967.126709,531.945313,967.334351,533.043091C967.538574,534.510315,967.313721,536.005127,966.686279,537.347107C966.331665,538.087952,965.941895,538.811401,965.518311,539.515076C965.452393,539.640808,965.390503,539.768677,965.334351,539.899109L959.686279,548.379089L961.430298,553.315063L959.686279,565.347107C959.634644,568.034058,959.53064,570.720154,959.37439,573.403076C959.296021,574.887329,959.25061,576.372803,959.238281,577.859131L962.510376,582.307129L968.166382,587.963074L976.646362,590.787109L984.214355,595.123108C984.995972,595.501587,985.766968,595.901855,986.526367,596.32312C989.242676,597.792908,992.12793,598.926636,995.118286,599.699097C999.060913,600.747192,1003.090942,601.432617,1007.158325,601.74707C1008.300415,601.829468,1009.439453,601.946899,1010.574341,602.099121C1011.062866,600.456421,1011.569702,598.818542,1012.09436,597.187073C1013.545044,592.891113,1015.40979,588.746277,1017.662354,584.811096C1018.140503,583.984436,1018.604614,583.149536,1019.054321,582.307129C1020.08252,579.509216,1021.026978,576.681396,1021.886353,573.827087C1022.434326,571.953308,1022.856567,570.045105,1023.150391,568.115112C1023.524048,566.013672,1024.116699,563.957153,1024.918335,561.979126C1025.592285,560.3302,1026.403076,558.740662,1027.342285,557.227112C1027.437988,557.005127,1027.564819,556.797729,1027.718384,556.611084C1028.551147,555.507507,1029.374268,554.399231,1030.190308,553.283081C1032.078735,550.613647,1033.659302,547.739502,1034.902344,544.715088C1035.421387,543.37384,1035.862183,542.003479,1036.22229,540.611084C1036.867432,538.40094,1037.74707,536.266113,1038.846313,534.243103C1039.982544,532.11261,1041.307861,530.08844,1042.806274,528.195068C1043.065918,527.855774,1043.319214,527.511719,1043.566284,527.163086L1044.502319,517.283081L1061.46228,517.283081L1061.46228,522.931091z"/>
    <path transform="matrix(-1,0,0,-1,0,0)" style="stroke:none;fill:#000000;fill-rule:evenodd" d="M1245.198364,613.659119C1244.916504,615.59259,1244.642334,617.492493,1244.366333,619.427124C1243.798706,619.135437,1243.225342,618.855408,1242.646362,618.587097L1245.238281,613.411133L1245.198364,613.659119z"/>
    <path transform="matrix(-1,0,0,-1,0,0)" style="stroke:none;fill:#000000;fill-rule:evenodd" d="M1226.590332,503.491089C1227.331543,503.512939,1228.057495,503.707397,1228.710327,504.059082C1229.050903,504.25885,1229.334473,504.542542,1229.534302,504.883087C1229.685181,505.247375,1229.730225,505.646698,1229.662354,506.035095C1229.567505,506.639008,1229.387207,507.226196,1229.126343,507.779083C1228.499878,509.085266,1227.78894,510.349274,1226.998291,511.56311C1226.739624,511.95105,1226.514893,512.360657,1226.326294,512.787109L1222.622314,520.107117C1222.416992,520.085327,1222.209351,520.093567,1222.006348,520.131104C1221.801392,520.245972,1221.617432,520.394531,1221.46228,520.571106C1220.396729,521.630127,1219.339966,522.700256,1218.294312,523.779114C1217.812378,524.254639,1217.400269,524.795959,1217.070313,525.387085C1217.005615,525.502136,1216.969238,525.631165,1216.966309,525.763123L1208.486328,545.555115C1208.160278,546.8974,1207.893311,548.253357,1207.686279,549.61908C1207.119263,553.002502,1206.284668,556.335693,1205.190308,559.587097C1204.127808,562.753235,1202.736206,565.799255,1201.03833,568.67511C1199.869263,570.615662,1198.472656,572.409668,1196.878296,574.019104C1195.940674,574.932617,1195.005249,575.84668,1194.070313,576.763123C1192.484619,578.289917,1191.114502,580.025818,1189.998291,581.923096C1188.757935,584.046509,1187.762329,586.303406,1187.030396,588.651123C1186.360596,591.020935,1186.005493,593.468628,1185.974365,595.931091C1185.981323,596.9823,1185.95459,598.03363,1185.894287,599.08313C1185.858643,599.549194,1185.860962,600.017456,1185.902344,600.483093C1186.059448,602.963562,1186.208374,605.43335,1186.350342,607.9151C1186.351563,608.219482,1186.364868,608.523743,1186.390381,608.827087C1177.707153,608.867981,1169.032837,609.386108,1160.406372,610.379089C1157.898315,610.678589,1155.383423,610.956238,1152.870361,611.21106L1151.198364,611.355103C1149.343994,611.485962,1147.634155,610.353333,1147.030396,608.595093C1146.403442,606.597046,1145.761353,604.606689,1145.102295,602.61908C1144.986572,602.25647,1144.920654,601.879639,1144.910278,601.499084L1144.782349,597.547119C1145.814697,596.902161,1146.747192,596.109802,1147.550293,595.195068C1148.848999,593.744751,1149.927002,592.111267,1150.750366,590.347107C1151.077759,589.636536,1151.419189,588.932251,1151.774292,588.235107C1151.82959,588.144043,1151.88562,588.053223,1151.942383,587.963074L1152.198364,587.787109L1152.494385,587.595093C1156.061157,585.210388,1159.786255,582.727966,1163.358276,580.355103L1164.014282,579.9151C1165.092407,579.192322,1166.148804,578.488098,1167.230347,577.771118C1167.791382,577.403809,1168.349243,577.030151,1168.902344,576.651123C1169.647705,575.552063,1170.365356,574.434326,1171.054321,573.299072C1173.085205,570.075256,1175.509155,567.116516,1178.270386,564.491089C1179.69519,563.147705,1181.300049,562.00885,1183.03833,561.107117C1185.138184,560.002075,1187.047852,558.56781,1188.694336,556.859131C1191.179932,554.350891,1193.375,551.570679,1195.238281,548.571106C1195.82251,547.608521,1196.428101,546.658813,1197.054321,545.723083C1198.282715,544.013184,1199.131104,542.059937,1199.542358,539.995117C1199.755005,539.03186,1199.910034,538.056763,1200.006348,537.075073C1200.262695,534.74585,1200.775146,532.452026,1201.534302,530.235107C1202.784546,526.612854,1204.417725,523.134583,1206.406372,519.85907C1207.853516,517.441528,1209.423462,515.099854,1211.110352,512.843079L1217.766357,504.699097C1218.408447,504.646851,1219.045166,504.542603,1219.670288,504.387085C1221.233887,504.027374,1222.814453,503.747009,1224.406372,503.547089C1225.131348,503.464447,1225.862061,503.445709,1226.590332,503.491089z"/>
    <path transform="matrix(-1,0,0,-1,0,0)" style="stroke:none;fill:#000000;fill-rule:evenodd" d="M1146.286377,568.171082L1151.942383,571.003113C1151.992798,571.515564,1152.080811,572.023682,1152.206299,572.523071C1152.433105,573.587646,1152.441162,574.687317,1152.230347,575.755127C1152.097534,576.389465,1151.833496,576.989441,1151.454346,577.515076C1150.945923,578.147949,1150.328247,578.684387,1149.630371,579.099121C1149.446655,579.212463,1149.272949,579.341125,1149.110352,579.483093L1145.030396,586.819092L1144.46228,587.691101L1143.838379,568.347107C1143.831055,568.144104,1143.839233,567.940918,1143.862305,567.739075L1143.990356,566.643066L1146.286377,568.171082z"/>
</svg>
