<?xml version="1.0" encoding="UTF-8"?>
<svg xmlns="http://www.w3.org/2000/svg" width="329.572mm" height="260.144mm" viewBox="-1039.331543 -622.140381 329.571777 260.144409">
    <path transform="matrix(-2.6819,0,0,-2.6819,1835.665283,1040.637695)" style="stroke:#000000;stroke-width:0.05mm;fill:none" d="M957,596C956.557678,595.771118,954.44751,593.952148,953,594C951.780151,594.040344,950.964722,595.230103,950.60553,595.447205L949.11261,599.45459L950,601L953.669983,603.776245L956.341553,605.426331L957.598755,607.155029L958,609C958.045898,609.194702,957.848755,610.060486,958.364868,610.393188C960.951355,612.060669,962.780884,612.969666,963.570557,613.441101C963.370178,613.759338,962.736694,614.428406,962.234741,615.562622C961.3125,617.646362,961.185181,619.334412,961,620L962,619L966,616L966,616L966.160583,619.476257C966.436523,619.254822,967.402649,618.942444,968,618C968.565552,617.107788,968.442627,616.154419,968.520752,615.828735L970.170898,614.462585L973.392517,613.833984L975,613L975,615L975,613L978,613L975.749817,613L981,609L978.499939,609.512268L984,606L982.54895,606.926636L987.457581,601.81189L987.120117,602.163513C987.618652,601.438965,988.479309,599.470215,990.443481,597.333008C993.47345,594.036133,993.549805,593.76532,997.436707,591.596985C1000.873291,589.679871,1003.865479,589.389526,1005,589C1007.099976,589.150024,1012.141907,588.732422,1019,590C1025.000488,591.10907,1026.040161,592.652893,1032,593C1039.025146,593.409119,1042.862915,591.384216,1045,591C1046.575684,590.865601,1050.663208,591.756287,1055.504395,590.104126C1058.767212,588.990601,1059.111206,588.764038,1061.476196,586.253906C1063.865479,583.718018,1064.471436,580.93811,1065,580C1065.449951,578.799988,1066.769653,576.081299,1068,572C1069.921143,565.626953,1070.550049,560.950012,1071,559L1072,553L1069,559C1067.915405,556.327271,1069,552.25,1069,550C1068,553,1066.17627,559.248108,1065,562C1065,560,1065,556,1065,554L1060,571C1061.198486,570.118713,1059.070435,566.433655,1059,567C1058.610107,570.13739,1054.960083,579.358459,1054.247192,581.539368L1053.540039,575.331848L1052.597046,579.26062L1051.732788,573.446045L1049.768311,583.660889L1050.519897,579.752747L1049.218262,581.61792L1048.039673,571.560242L1047,567C1046.550049,566.099976,1044.75,564.177063,1044,561C1043.664551,559.579163,1044,558.450012,1044,558L1045.682373,553.723511L1046.46814,551.837708L1047,550L1045.603882,543.115784L1046,536L1045,532L1044,531L1043.875122,529.600708L1044,528L1044,527L1043,526L1041.439331,525.357666L1039,525L1038,525L1038.846313,528.579224L1036,530L1037.589111,532.665161L1040,536C1040,536.450012,1040,537.5,1040,539C1040,542,1040,544.099976,1040,545L1040,548C1039.331909,549.223877,1037.91626,552.164673,1035.546143,556.159363C1033.212036,560.093262,1031.338379,562.704712,1030.595825,563.859802L1029,566C1027.129517,565.20752,1023.022095,562.31543,1016.530518,560.716736C1010.105774,559.134521,1009.855408,559.667542,1003.172729,559.616638C996.144165,559.56311,991.217346,560.418152,989.107605,560.55957L988.400391,558.359436L988,546L988.321838,543.272888L988.636108,535.179565L988.871887,532.429443L988,530L987.614624,526.536255L985,527L985.257385,524.493286L985,523L981.407166,523.864685L978,524L978,524L981,529L982.350037,531.486511L983.371582,534.70813L983.450134,539.501221L983,542L982.350037,544.294373L982,547L982,550L981,553L980,555C979.774963,555.562866,978.828186,556.805054,978.499878,558.752319C978.278198,560.066956,978.607117,561.068848,978.626038,561.477661C978.040955,561.857361,975.244019,564.748413,974.099609,566.531311C972.241577,569.425903,973.164917,572.8797,973,574L973,577C973,577.450012,973.215515,578.531616,973,580C972.25,585.110107,970.450012,588.5,970,590L968.835022,594.42572L968,597C967.849976,597.150024,967.270752,597.23114,966.674072,597.411804C964.522705,598.063171,962.75,597.150024,962,597L957,596z"/>
</svg>
