<?xml version="1.0" encoding="UTF-8"?>
<svg xmlns="http://www.w3.org/2000/svg" width="503.655mm" height="535.473mm" viewBox="-1264.585693 -864.433411 503.654785 535.472717">
    <path transform="matrix(-1,0,0,-1,0,0)" style="stroke:none;fill:#000000;fill-rule:evenodd" d="M1134.098877,393.628204C1128.721436,380.333374,1114.475708,356.624329,1112,334C1111.789917,332.080536,1110.989502,329.862091,1108.976196,329.551453C1093.891968,327.224091,1087.623779,332.631104,1082,331C1077.633057,329.733429,1083.632935,342.242737,1090,346C1097.744751,350.570251,1106.217529,365.611389,1107.665405,369.036102C1108.50647,369.358856,1110.439941,373.473053,1111.961792,378.178772C1114.415283,385.764893,1116.288208,392.050476,1117,394C1118.690674,396.086853,1120.337891,406.866882,1118.293945,412.19342C1117.1604,415.1474,1115.923584,414.378052,1112.378174,408.513397C1108.614502,402.287628,1101.575928,388.080994,1101.575928,386.710175C1101.575928,386.214661,1099.022217,383.735321,1098,381C1094.070923,370.486023,1082.536743,341.929077,1070,335C1066.79834,333.230438,1052.975464,331.651062,1041,334C1042.633301,336.620514,1043.445313,340.851196,1046.792114,342.784424C1069.898315,356.131409,1081.634033,389.720856,1082.487427,391.357513C1083.651978,393.590851,1084.421875,393.155396,1085,395C1085.652588,397.082367,1084.145264,397.16394,1085.023926,399.187897C1086.825806,403.338593,1088.217285,401.246094,1088.205811,407.672424C1088.195557,413.438721,1087.434082,416.083801,1083.700195,423.322998C1081.22876,428.114319,1076.791504,434.832031,1073.839478,438.251221C1068.789551,444.100281,1066.817627,446.659027,1056.252441,461.072937C1053.911011,464.267151,1049.742676,471.062164,1046.989258,476.172913C1044.23584,481.283691,1040.833496,487.033295,1039.428223,488.949829C1035.412231,494.427307,1035.217896,496.095367,1037.318604,507.053833C1038.404663,512.719116,1039.031616,517.615967,1038.711914,517.93573C1038.39209,518.255493,1033.45813,519.855652,1027.747559,521.49176C1010.273438,526.497986,997.650146,533.778992,975.1745,551.815613C961.916504,562.455017,927.414001,595.631836,916.881897,607.868408C901.016846,626.301025,892.186401,635.24646,880.303162,644.923462C873.275879,650.646118,864.912842,657.721436,861.718567,660.646484C858.524353,663.571533,854.009399,667.037537,851.685303,668.348755C847.644592,670.628296,847.353516,670.643677,845.034302,668.698792C839.531494,664.084351,830.085449,631.238037,834.261108,631.238037C836.724121,631.238037,835.602295,626.774902,832.532227,624.359985C830.063965,622.418457,829.746948,621.638428,830.874268,620.280029C831.640869,619.356384,833.406189,618.438599,834.797241,618.240479C836.668091,617.974121,837.416626,616.956543,837.673462,614.330688C838.014038,610.848267,838.365417,606.312439,836,601C832.342651,601.033447,832.598877,596.95459,833,598C833.359131,598.935791,828.927551,590.907593,827,591C821.456299,591.265808,819.937256,614.382019,819.570679,616.718872C819.370239,617.996582,818.131287,622.025879,816.817566,625.672913L814.428894,632.303894L819.687622,643.676758C826.114868,657.576965,828.587769,664.876892,829.442261,672.472656C830.18811,679.103027,830.945801,680.311523,837.210205,684.862427C844.405273,691.22345,852.260315,688.6073,860.53064,684.153076C864.349243,682.597595,867.654541,681.506104,867.875916,681.727417C868.09729,681.94873,867.465332,683.702026,866.471558,685.623718C865.477844,687.545349,862.61853,695.349243,860.117493,702.965698C856.998474,730.797363,842.396362,732.719849,828,730C824.875366,729.409668,806.770691,727.967102,793.717957,725.823486C790.594971,725.310608,788.815002,722.487549,788,720C787.052612,717.108337,785.230774,715.519836,783,715C778.082275,713.854004,762.120728,719.35675,761,721C760.551514,721.657593,762.131775,727.762024,770,733C777.868164,738.237915,792.005371,742.650757,795,744C801.281067,746.830017,831.963074,744.823853,843,748C854.876282,751.417725,860.534424,743.195129,866.307556,733.760498C869.997742,727.72998,885.052734,708.364136,887,712C916.389893,742.22699,916.747192,768.867554,914.128418,777.866943C911.912964,785.480347,909.706177,786.73877,902.217285,784.659363C899.747192,783.973511,895.604736,783.409424,893.011719,783.405884C890.418701,783.402283,887.282593,782.631958,886.04248,781.69397C884.802368,780.756104,882.454956,779.972046,880.825867,779.95166C879.196777,779.931396,877.282471,779.333252,876.571777,778.622559C875.861023,777.911865,874.616333,777.551392,873.805786,777.821533C875.866211,777.095215,858.965942,768.93866,853.667603,768.604858C847.048035,768.187927,846.661194,768.320129,843.794556,771.980408C840.223267,776.540283,839.35498,784.375488,842.181274,786.537842C843.184937,787.305664,843.711914,788.700684,843.352234,789.637939C842.633667,791.510437,846.39801,796.590454,847.607666,795.380798C848.021973,794.966553,848.360901,795.394165,848.360901,796.331177C848.360901,797.268127,849.201416,799.193298,850,800.000061C849.512207,800.009827,863.449829,816.34198,864.146057,816.81134C866.715454,818.543335,872.599731,827.747559,872.051392,829.176697C871.370483,830.950989,879.487305,839.138733,881.331299,838.537659C882.734131,838.080383,887.365967,843.39679,888.596558,846.87677C889.218689,848.63623,889.072754,848.762817,887.791809,847.57428C885.213928,845.182373,882.907715,845.715881,884.330811,848.374939C885.169678,849.942444,885.161621,850.859131,884.304077,851.389099C883.592957,851.828613,885.065308,853.682861,887.785522,855.77356C890.378113,857.766113,892.499268,859.807251,892.499268,860.309326C892.499268,860.811523,893.414063,861.230347,894.531982,861.240112C896.158386,861.254333,896.240723,861.463013,894.944214,862.283997C893.639282,863.110291,893.752441,863.433167,895.524902,863.94165C900.102234,865.254944,910.529541,863.799011,914.858887,861.242249C917.254517,859.827393,919.2146,858.19873,919.2146,857.622986C919.2146,857.047241,922.676147,856.576172,926.90686,856.576172C933.612671,856.576172,934.413696,856.352783,933.153076,854.833862C931.453247,852.785645,932.8125,852.578003,937.142822,854.224365C939.078735,854.960388,940.122314,854.960388,940.122314,854.224365C940.122314,853.601318,940.937195,853.091553,941.933167,853.091553C942.929138,853.091553,943.40802,852.547913,942.997375,851.883484C942.51709,851.106323,943.276062,850.932739,945.125183,851.396851C946.723633,851.798035,948.344116,851.560913,948.775635,850.86261C949.217285,850.148071,948.687927,849.606995,947.547241,849.606995C946.444824,849.606995,945.822266,849.327515,946.163879,848.985901C946.505432,848.644348,949.0625,848.876587,951.846191,849.502014C955.527832,850.329224,957.135986,850.269348,957.745972,849.282349C958.329102,848.338928,959.540283,848.800964,961.72168,850.79895C964.850952,853.665161,964.857178,853.665833,964.2146,851.058899C963.786804,849.323059,964.096069,848.445435,965.135498,848.445435C965.996338,848.445435,966.987122,847.98175,967.337341,847.415039C967.687622,846.848328,967.121338,846.456299,966.078979,846.543884C965.036682,846.63147,963.962158,846.076294,963.691284,845.310181C963.207886,843.942932,966.281616,844.474915,971.787354,846.711487C973.428894,847.378296,973.675171,847.115295,973.03363,845.380493C972.593872,844.191406,971.714233,842.870972,971.078979,842.446167C969.699036,841.523254,977.686035,837.998352,981.208374,837.975769C985.547974,837.947876,988.90686,836.609558,988.90686,834.908325C988.90686,833.904236,989.930603,833.34552,991.520264,833.482117C996.223816,833.886353,999.360718,833.366943,999.360718,832.183899C999.360718,831.545105,998.545776,831.0224,997.549805,831.0224C996.553833,831.0224,996.051392,830.516785,996.43335,829.898865C996.815186,829.280945,998.721558,829.094177,1000.669739,829.483826C1003.895752,830.129028,1004.176758,829.944275,1003.81897,827.413086C1003.55835,825.569946,1002.546631,824.509033,1000.814819,824.263062C998.661926,823.957275,998.406372,823.513306,999.358765,821.733765C999.994019,820.546631,1000.232788,818.842834,999.889282,817.947632C999.545532,817.051941,1000.46167,815.445435,1001.926147,814.375549C1003.389893,813.306152,1005.632935,811.621582,1006.910645,810.63208C1009.206848,808.85376,1009.20459,808.84082,1006.716553,809.521545C1004.642029,810.08905,1004.304688,809.807373,1004.79834,807.919739C1005.19104,806.417725,1006.023193,805.869507,1007.215698,806.327148C1008.364563,806.767944,1008.742554,806.553223,1008.242249,805.743774C1007.793152,805.01709,1008.967529,803.566406,1010.955566,802.39209C1012.883362,801.253296,1014.460693,799.880737,1014.460693,799.341919C1014.460693,798.803101,1013.933228,798.688171,1013.288696,799.086548C1012.644165,799.484863,1011.008057,799.458923,1009.652832,799.028809C1007.336792,798.293701,1007.459473,798,1011.695923,794.136414C1014.354736,791.711609,1015.250366,790.380127,1013.879883,790.889526C1008.701721,792.814209,1008.133911,792.831177,1010.395264,790.993774C1011.672974,789.955566,1013.894409,788.810852,1015.331787,788.449951C1018.535217,787.645508,1018.788269,785.722412,1015.690735,785.722412C1012.756958,785.722412,1011.45752,783.587402,1013.835938,782.674805C1015.263245,782.127014,1015.379272,781.602417,1014.348083,780.359863C1013.614746,779.476196,1013.470703,778.749939,1014.028076,778.74585C1014.585388,778.741821,1015.997009,777.043091,1017.164917,774.970886C1018.332886,772.898682,1018.620361,771.856567,1017.803833,772.655151C1015.348328,775.056458,1013.936646,774.288208,1016.203003,771.783997C1017.359253,770.506348,1017.732483,769.460938,1017.032349,769.460938C1016.332153,769.460938,1015.43103,769.992188,1015.029724,770.641479C1014.628418,771.290649,1013.788208,771.505493,1013.162476,771.118774C1012.436401,770.670044,1012.482971,769.863525,1013.291199,768.889709C1014.221191,767.769165,1014.159058,767.219971,1013.057251,766.822388C1012.141235,766.491821,1012.776062,765.707886,1014.687134,764.809753C1017.977173,763.26355,1020.33667,759.769531,1017.305298,760.932861C1016.379578,761.288086,1015.622192,760.983704,1015.622192,760.25647C1015.622192,759.529175,1016.40625,758.633362,1017.364502,758.265625C1019.96228,757.268738,1019.470642,755.644836,1016.783691,756.347534C1015.168091,756.769958,1014.460693,756.383118,1014.460693,755.077209C1014.460693,754.044434,1015.070435,753.199463,1015.815796,753.199463C1016.561096,753.199463,1016.835083,752.863586,1016.424622,752.453125C1016.01416,752.042664,1014.86969,752.37793,1013.881348,753.198181C1012.345215,754.473083,1012.201233,754.370667,1012.889526,752.492554C1013.332275,751.28418,1014.658264,749.039673,1015.836182,747.504822C1017.014038,745.969849,1017.783936,744.520142,1017.546997,744.283203C1016.679932,743.416138,1013.332275,745.344238,1013.955078,746.351929C1014.308594,746.923828,1014.086914,747.391724,1013.462585,747.391724C1010.935791,747.391724,1012.826538,739.300537,1016.168518,735.812378C1018.484497,733.394897,1019.179077,731.899414,1018.364136,731.084473C1016.854736,729.575073,1012.990845,730.974609,1013.683594,732.779785C1013.982422,733.558594,1012.933716,734.234497,1011.204712,734.377625L1008.208008,734.62561L1011.624695,730.955933C1015.40979,726.890625,1013.775879,727.472229,1007.324341,732.486694C1001.00946,737.394836,1000.342896,736.3927,1006.329895,730.991699C1011.084229,726.702576,1010.977722,726.235718,1005.729004,728.358398C1004.708435,728.771118,1005.686401,726.459595,1008.052002,722.867554C1012.43689,716.209473,1012.518677,715.902771,1011.398926,710.304077C1010.880005,707.709595,1010.157593,706.803467,1008.971008,707.258789C1001.569946,699.823669,1045.559692,642.331482,1055.250732,642.853394L1102.244141,608.148682C1101.965088,607.697327,1102.657715,607.258667,1103.783203,607.173889C1125.425049,592.762573,1148.442871,553.791687,1158.987305,551.73938C1185.733643,546.682495,1186.199707,546.53949,1197.046875,540.057434C1203.088135,536.447327,1205.807861,533.874756,1209.243042,528.520508C1214.870605,519.749451,1216.568115,515.727478,1216.568115,511.16507C1216.568115,508.770386,1217.368164,507.012817,1218.891113,506.061646C1220.168701,505.263733,1221.214111,503.818237,1221.214111,502.849396C1221.214111,501.880585,1222.310303,498.09552,1223.64978,494.43811C1224.98938,490.780701,1227.270508,483.084045,1228.718994,477.334473C1230.167603,471.584839,1231.740967,465.965912,1232.215332,464.847931C1232.831055,463.39743,1232.543457,462.815247,1231.211548,462.815247C1230.184814,462.815247,1229.344971,462.335327,1229.344971,461.748718C1229.344971,461.162109,1229.063477,459.948486,1228.719238,459.051758C1228.337646,458.057007,1229.268799,456.885895,1231.10791,456.047974C1234.315674,454.586426,1233.918701,451.699219,1230.679443,452.931824C1229.144287,453.51593,1229.052368,453.3703,1230.216064,452.197937C1231.014648,451.393463,1231.660034,450.186462,1231.650146,449.515656C1231.638306,448.700653,1231.349365,448.7146,1230.779053,449.557678C1230.309814,450.251617,1228.096191,451.425934,1225.860352,452.167297L1221.794922,453.515228L1224.69873,451.221863C1226.295898,449.96048,1227.881958,448.91684,1228.223389,448.902649C1228.924438,448.873474,1232.82959,442.519714,1232.82959,441.408142C1232.82959,441.011169,1231.130859,441.513641,1229.054565,442.524719L1225.279541,444.363037L1228.960938,440.912231C1230.985718,439.014282,1232.29248,437.071289,1231.864746,436.594452C1231.437256,436.117615,1231.783081,436.1297,1232.633545,436.621338C1233.595703,437.177521,1235.35083,436.428986,1237.279663,434.639954C1238.984619,433.058563,1241.424927,431.187927,1242.702637,430.483002C1245.620117,428.873352,1243.289795,428.74411,1239.223755,430.290039C1237.546631,430.927673,1236.475708,431.936951,1236.843994,432.532867C1237.21228,433.128754,1237.054443,433.900116,1236.493164,434.246979C1235.931885,434.593842,1235.531372,433.71524,1235.603027,432.294556C1235.68689,430.632629,1236.580811,429.590149,1238.109863,429.371338C1239.41687,429.184296,1241.904053,427.812988,1243.636719,426.324036C1245.369629,424.835052,1248.890137,423.280579,1251.459961,422.869629C1255.144653,422.280426,1256.387817,421.451202,1257.3396,418.947723C1258.003418,417.20163,1258.547119,415.511658,1258.547607,415.192261C1258.547974,414.872803,1259.373291,414.149841,1260.38147,413.585632C1261.968262,412.697632,1261.852417,412.286682,1259.52002,410.527252L1256.825317,408.49469L1260.411133,407.707123C1265.890869,406.50354,1265.981689,404.00351,1260.655884,400.97464C1257.766602,399.331482,1256.152954,397.626587,1256.34082,396.415588C1256.505981,395.351685,1255.529541,393.260925,1254.171143,391.76944C1252.812622,390.277954,1251.371826,387.206116,1250.969482,384.943146L1221.214111,392.298065C1219.730225,391.909973,1218.887695,392.263855,1218.881592,393.277954C1218.871216,394.989777,1210.144775,400.251099,1209.080811,399.187042C1208.726807,398.83313,1208.437256,397.585266,1208.437256,396.414063C1208.437256,393.173096,1203.995117,394.449097,1203.314819,397.885468C1202.126953,403.885315,1200.803345,406.804932,1198.233154,409.094177C1195.589111,411.44928,1195.628418,412.290955,1198.360107,411.816406C1198.886719,411.724915,1199.000732,412.162903,1198.613281,412.789673C1198.225952,413.416443,1197.141846,413.634796,1196.203857,413.274933C1195.266113,412.91507,1194.433472,413.199219,1194.353638,413.906433C1194.273804,414.613617,1194.077881,415.714935,1193.918091,416.35376C1193.758301,416.992615,1193.562256,417.925293,1193.482422,418.426422C1193.402588,418.927521,1191.801025,420.244995,1189.92334,421.354187C1188.045654,422.463318,1186.183472,424.536133,1185.784912,425.960388C1185.386475,427.384613,1184.606079,429.595306,1184.050537,430.872986C1183.495117,432.150665,1182.177246,435.286835,1181.12207,437.842224C1180.066895,440.397583,1178.76062,443.338715,1178.219116,444.378052C1177.677734,445.417389,1176.856567,448.283478,1176.394287,450.747131C1175.738281,454.244232,1175.381348,454.734375,1174.766724,452.982208C1174.093262,451.061981,1173.786621,451.291321,1172.643555,454.57019C1171.44104,458.019714,1171.508667,458.325958,1173.320557,457.63623C1174.934448,457.021851,1175.045654,457.159912,1173.881592,458.332581C1173.083008,459.137054,1172.429688,460.705261,1172.429688,461.817474C1172.429688,462.929688,1171.850952,464.197327,1171.143677,464.63446C1170.272705,465.172729,1170.098999,464.538849,1170.605225,462.670319C1171.285889,460.15918,1171.192139,460.192932,1169.562256,463.046204C1167.499512,466.657166,1166.750244,476.051819,1168.202393,480.093384C1168.956299,482.191101,1168.842773,482.635223,1167.728516,481.946594C1166.729492,481.329163,1166.552612,481.509521,1167.173096,482.513306C1168.173828,484.13269,1168.646362,489.551697,1169.441406,508.530762C1169.732056,515.467224,1170.668579,515.668457,1171,516C1168.477417,517.75354,1169.318237,517.50885,1168.385376,519.312683C1167.452515,521.116516,1166.689331,524.709045,1166.689331,527.296204L1166.216431,527.344788L1158,532C1147.975464,532,1150.118652,539.863037,1148.072998,522.053589C1145.733887,501.687317,1141.931274,498.676331,1129,480C1124.247559,473.136169,1116.474976,468.849579,1117,468C1118.149048,468.953613,1121.79834,455.796021,1124.540649,451.977325C1126.51709,449.225281,1132.047119,442.828308,1136.82959,437.76178C1142.348633,434.445129,1145.034424,429.800415,1146.715698,427.114014C1148.877686,423.659485,1146.01709,418.561981,1141.405273,412.803558C1137.159302,403.711853,1136.05249,400.433075,1135.246338,398.312744C1134.615234,396.652924,1134.098877,394.544891,1134.098877,393.628204z"/>
</svg>
