<?xml version="1.0" encoding="UTF-8"?>
<svg xmlns="http://www.w3.org/2000/svg" width="339.273mm" height="248.571mm" viewBox="-1255.228760 -706.463440 339.273438 248.571259">
    <path transform="matrix(-1,0,0,-1,-705.580322,-303.49469)" style="stroke:#000000;stroke-width:0.05mm;fill:none" d="M365.878906,173.863281L363.046875,176.6875L361.039063,178.390625C359.093964,180.185959,357.476044,182.306229,356.257813,184.65625C355.749207,185.592316,355.271057,186.544647,354.824219,187.511719C354.432007,188.289459,353.959412,189.023926,353.414063,189.703125C351.795349,191.734772,350.272827,193.841232,348.851563,196.015625C347.954651,197.444183,347.138336,198.921753,346.40625,200.441406C344.988586,203.165039,343.487854,205.844772,341.90625,208.476563L341.519531,209.207031L340.433594,216.273438C340.376038,216.944595,340.230286,217.605255,340,218.238281C339.560791,219.57016,339.133667,220.906372,338.71875,222.246094C337.69632,225.68959,337.247498,229.277939,337.390625,232.867188C337.443939,234.128387,337.531219,235.387985,337.652344,236.644531C337.716156,237.301804,337.717468,237.963577,337.65625,238.621094L337.601563,238.886719L334.777344,247.367188L334.777344,253.023438L333.480469,255.078125C333.96875,254.951813,334.472443,254.894958,334.976563,254.910156C335.977631,254.956238,336.977875,255.02005,337.976563,255.101563C338.683014,255.138794,339.391266,255.071732,340.078125,254.902344C341.475098,254.624222,342.863953,254.339981,344.257813,254.046875C347.084595,253.512695,349.939453,253.139709,352.808594,252.929688C354.046265,252.806625,355.277008,252.621521,356.496094,252.375C357.948792,252.155701,359.41156,252.009674,360.878906,251.9375C363.890778,251.761902,366.916229,251.603943,369.929688,251.464844C370.637573,251.43222,371.343933,251.371017,372.046875,251.28125C372.601288,251.045273,373.198242,250.925995,373.800781,250.929688C375.199585,250.925262,376.596741,251.025726,377.980469,251.230469C379.138,251.365677,380.300385,251.456894,381.464844,251.503906C382.151276,251.519943,382.836029,251.431366,383.496094,251.242188L383.734375,251.136719C384.100952,251.127579,384.46579,251.190109,384.808594,251.320313C385.863403,251.684265,386.90448,252.086929,387.929688,252.527344C389.774933,253.311844,391.682648,253.940262,393.632813,254.40625C394.848724,254.674728,396.090759,254.807205,397.335938,254.800781C400.814514,254.918259,404.27597,255.343124,407.679688,256.070313C408.316376,256.205902,408.957367,256.320526,409.601563,256.414063L416.769531,250.199219L417.472656,249.488281L421.359375,244.191406L425.246094,238.886719L430.902344,233.230469L433.734375,221.929688C431.824097,220.01416,429.994507,218.18457,428.078125,216.273438C426.995331,215.791092,425.90274,215.331406,424.800781,214.894531C421.632477,213.59491,418.623322,211.937012,415.832031,209.953125C414.496552,208.908447,413.24411,207.761765,412.085938,206.523438L411.929688,206.382813L407.113281,204.238281L402.632813,202.136719L399.808594,196.480469L397.472656,192.992188L398.390625,189.40625C397.66272,189.497116,396.973969,189.051376,396.753906,188.351563C396.551819,187.735916,396.462036,187.088852,396.488281,186.441406C396.538452,185.296539,396.67157,184.156815,396.886719,183.03125C396.953308,182.525757,397.017273,182.017975,397.078125,181.511719C397.154572,180.965378,397.390503,180.454117,397.753906,180.039063C398.042908,179.761597,398.370331,179.527054,398.726563,179.34375L399.078125,179.113281L402.726563,180.28125L410.039063,181.152344L408.289063,185.167969L411.113281,190.824219L413.945313,193.648438L425.246094,202.136719L429.769531,206.070313L433.734375,207.792969L438.449219,210.144531L437.191406,214.566406L436.257813,221.824219L436.257813,229.871094L433.574219,237.910156L430.886719,243.28125C430.582214,243.94957,430.24057,244.600357,429.863281,245.230469C428.499542,247.589569,427.518646,250.149994,426.957031,252.816406C426.561371,254.921265,426.570709,257.082184,426.984375,259.183594C427.08194,259.66806,427.156158,260.156891,427.207031,260.648438C426.319275,261.335693,425.482483,262.086426,424.703125,262.894531C421.556946,265.998108,418.641693,269.327209,415.980469,272.855469C414.801971,274.446777,413.863586,276.202393,413.195313,278.066406C412.460205,280.174347,412.039063,282.378906,411.945313,284.609375C411.841187,286.967438,411.901184,289.329956,412.125,291.679688C412.187866,292.52887,412.186584,293.3815,412.121094,294.230469L412.121094,302.527344C412.270966,304.000793,412.355652,305.480042,412.375,306.960938C412.353882,308.517731,412.202271,310.070068,411.921875,311.601563C411.262238,315.631317,410.315826,319.608917,409.089844,323.503906C404.462616,323.195892,399.820587,323.180237,395.191406,323.457031C390.044342,323.807526,384.951447,324.721863,380.003906,326.183594C378.00885,326.776611,376.040833,327.45694,374.105469,328.222656C370.68219,329.462494,367.32959,330.889069,364.0625,332.496094C361.060181,334.06488,358.14212,335.789917,355.320313,337.664063C348.849426,341.814606,342.719391,346.473846,336.988281,351.597656C335.886993,352.55069,334.742554,353.452667,333.558594,354.300781L333.222656,354.519531L303.679688,374.601563C302.676239,375.228577,301.7146,375.920166,300.800781,376.671875C298.2276,378.740906,295.594696,380.735474,292.90625,382.652344C288.543762,385.687653,283.863861,388.239136,278.949219,390.261719C276.671112,391.190491,274.329102,391.954132,271.941406,392.546875C268.627991,393.327393,265.245789,393.780151,261.84375,393.898438C258.695862,394.033417,255.543167,394.003448,252.398438,393.808594C251.290466,393.734222,250.180649,393.68866,249.070313,393.671875C248.864548,393.668365,248.659088,393.687531,248.457031,393.726563C247.812637,394.410797,247.208694,395.13205,246.648438,395.886719C245.367889,397.536896,244.016266,399.13092,242.597656,400.664063C241.925491,401.362823,241.180283,401.987366,240.375,402.527344C240.010468,402.753876,239.604034,402.904541,239.179688,402.96875C238.933441,402.981812,238.68985,402.91156,238.488281,402.769531C238.381943,402.630035,238.332062,402.454437,238.359375,402.28125C238.388992,402.032257,238.421555,401.783386,238.457031,401.535156L238.367188,401.480469C238.189331,401.237793,238.067078,400.959045,238.007813,400.664063C237.802368,399.796753,237.526672,398.947632,237.183594,398.125C237.004532,397.754028,236.742615,397.429321,236.417969,397.175781C236.026215,396.926208,235.540009,396.874939,235.105469,397.039063C234.312805,397.377289,233.607788,397.892029,233.042969,398.542969C232.622437,398.969147,232.222244,399.414978,231.84375,399.878906C231.723541,400.022186,231.570541,400.133881,231.398438,400.207031L231.367188,400.199219C231.336105,400.102142,231.34111,399.998291,231.375,399.902344C231.643036,399.129913,231.96933,398.378998,232.351563,397.65625L233.796875,394.808594C234.368652,393.677124,234.946777,392.535767,235.519531,391.40625C235.806091,390.815552,236.065506,390.212067,236.296875,389.597656L236.328125,389.488281C234.259033,387.376282,232.202637,385.242981,230.167969,383.097656C230.242126,382.135406,230.298157,381.171387,230.335938,380.207031C230.349518,378.80835,230.221344,377.411865,229.953125,376.039063C229.260284,372.177673,228.161774,368.400269,226.675781,364.769531C226.400894,364.047791,226.143051,363.319763,225.902344,362.585938C225.144211,361.455383,224.330719,360.362885,223.464844,359.3125C221.05748,356.373108,218.839417,353.283447,216.824219,350.0625C214.705002,346.612671,212.928284,342.963776,211.519531,339.167969C210.87178,337.163055,210.51651,335.075043,210.464844,332.96875L210.375,332.191406C211.73999,329.944336,213.156982,327.61792,214.527344,325.375C215.187347,325.194397,215.852966,325.009644,216.511719,324.824219C217.45372,324.526398,218.342529,324.080872,219.144531,323.503906C219.536362,323.178009,219.885696,322.804138,220.183594,322.390625L220.273438,322.296875C220.439957,322.38028,220.622528,322.425995,220.808594,322.433594C221.714127,322.485687,222.62088,322.527405,223.527344,322.558594C224.494171,322.58963,225.452332,322.752441,226.375,323.042969C226.68512,323.163696,226.970642,323.340332,227.214844,323.566406C228.263626,324.974213,229.097,326.530365,229.6875,328.183594C229.829376,328.582764,229.989807,328.975037,230.167969,329.359375C232.993652,331.259399,235.808716,333.136841,238.648438,335.015625C239.726791,335.502167,240.814285,335.968414,241.910156,336.414063C244.863678,337.667114,247.696991,339.186371,250.375,340.953125C251.724472,341.917999,253.000137,342.982208,254.191406,344.136719C254.656693,344.19342,255.114761,344.298462,255.558594,344.449219C256.817413,344.842163,258.11795,345.08606,259.433594,345.175781C260.855408,345.271729,262.276398,344.981445,263.546875,344.335938C264.366943,343.866974,265.07724,343.227814,265.628906,342.460938C265.949158,342.051971,266.246582,341.625549,266.519531,341.183594C266.641968,341.00415,266.776123,340.832947,266.921875,340.671875L272.574219,329.359375C273.14566,328.187347,273.767426,327.040405,274.4375,325.921875C275.533691,323.953003,276.445129,321.886993,277.160156,319.75C277.940186,317.324188,278.410034,314.809418,278.558594,312.265625C278.834381,308.359344,278.605988,304.433899,277.878906,300.585938C277.471466,298.518982,277.040314,296.455719,276.585938,294.398438C276.478943,293.911591,276.403381,293.418396,276.359375,292.921875C276.726563,292.630981,276.981415,292.22226,277.085938,291.765625C277.209198,291.351166,277.308411,290.929871,277.382813,290.503906C277.478149,290.069763,277.6315,289.650452,277.839844,289.257813C277.947327,289.08783,278.090515,288.943634,278.257813,288.832031L282.785156,275.097656C284.426208,274.713531,286.000854,274.086914,287.457031,273.238281C288.140228,272.812836,288.740997,272.267822,289.230469,271.628906C289.701385,270.913055,289.998199,270.097168,290.097656,269.246094C290.119934,268.823669,290.010651,268.404785,289.785156,268.046875C289.396881,267.462097,288.96048,266.910645,288.480469,266.398438C287.639282,265.445435,286.815063,264.478027,286.007813,263.496094C284.086975,261.26651,282.004517,259.181458,279.777344,257.257813C279.250519,256.802795,278.734802,256.335266,278.230469,255.855469L269.753906,250.199219C266.926453,249.260742,264.089417,248.314453,261.265625,247.367188C260.460693,246.869186,259.718445,246.276367,259.054688,245.601563C257.901459,244.50882,256.846619,243.316696,255.902344,242.039063C254.490875,240.057358,253.555206,237.776978,253.167969,235.375C253.055984,234.657501,252.928329,233.942398,252.785156,233.230469L252.785156,187.871094C252.701904,186.971252,252.628937,186.069412,252.566406,185.167969C252.512177,184.006287,252.66835,182.844421,253.027344,181.738281C253.299393,180.966217,253.709793,180.250137,254.238281,179.625C254.611923,179.080231,255.103119,178.62619,255.675781,178.296875C256.015533,178.129333,256.390778,178.047043,256.769531,178.054688C257.466034,178.071594,258.161713,178.112,258.855469,178.175781C259.69162,178.227783,260.52948,178.248642,261.367188,178.238281C264.206207,178.296875,267.025452,178.724976,269.753906,179.511719C270.056732,180.101105,270.389191,180.674698,270.75,181.230469C271.32663,182.241562,271.685852,183.361633,271.804688,184.519531C271.902283,186.019089,271.561523,187.514801,270.824219,188.824219C270.504761,189.4319,270.17395,190.033569,269.832031,190.628906L269.753906,190.824219L264.097656,199.304688L265.839844,204.238281L264.097656,216.273438C264.071899,218.05838,264.009399,219.842606,263.910156,221.625C263.799408,223.817276,263.712128,226.012833,263.648438,228.207031L263.648438,228.785156L266.921875,233.230469L272.574219,238.886719L281.054688,241.71875L284.839844,243.878906L288.632813,246.046875C289.41275,246.423798,290.181213,246.823715,290.9375,247.246094C294.105408,248.944839,297.487213,250.210022,300.992188,251.007813C304.855652,251.914337,308.786652,252.50354,312.746094,252.769531C313.494232,252.835495,314.24054,252.92012,314.984375,253.023438C315.478668,251.3815,315.984406,249.747238,316.503906,248.113281C318.089569,243.454224,320.145813,238.968811,322.640625,234.726563C322.928558,234.235291,323.20343,233.736359,323.464844,233.230469C324.494507,230.434479,325.439087,227.6073,326.296875,224.753906C326.866089,222.774994,327.30838,220.761826,327.621094,218.726563C328.307098,215.059006,329.664581,211.549622,331.625,208.375C331.975281,207.731064,332.387543,207.122833,332.855469,206.558594C335.296417,203.495071,337.339935,200.135071,338.9375,196.558594C339.626831,194.928635,340.193542,193.249512,340.632813,191.535156C341.455597,188.747559,342.636047,186.078125,344.144531,183.59375C345.189423,181.861176,346.342743,180.196442,347.597656,178.609375L347.976563,178.097656L348.910156,168.207031L365.878906,168.207031L365.878906,173.863281z"/>
    <path transform="matrix(-1,0,0,-1,-705.580322,-303.49469)" style="stroke:#000000;stroke-width:0.05mm;fill:none" d="M549.609375,264.585938C549.530884,265.088959,549.457886,265.592987,549.390625,266.097656C549.222839,266.015839,549.055481,265.935364,548.886719,265.855469L549.648438,264.335938L549.609375,264.585938z"/>
    <path transform="matrix(-1,0,0,-1,-705.580322,-303.49469)" style="stroke:#000000;stroke-width:0.05mm;fill:none" d="M530.585938,154.398438C531.353821,154.388519,532.115479,154.536377,532.824219,154.832031C533.293152,155.028885,533.687256,155.370377,533.945313,155.808594C534.123169,156.261688,534.15387,156.75943,534.03125,157.230469C533.862305,157.961014,533.598572,158.666306,533.246094,159.328125C532.588623,160.553192,531.887573,161.754562,531.144531,162.929688C530.989929,163.180298,530.853149,163.441467,530.734375,163.710938L527.03125,171.03125L526.566406,171.03125C526.388672,171.053299,526.226868,171.141785,526.105469,171.273438C525.184387,172.196579,524.265503,173.112869,523.339844,174.03125C522.864075,174.533234,522.401611,175.04776,521.953125,175.574219C521.666504,175.888565,521.466736,176.272095,521.375,176.6875L512.894531,196.480469C512.557251,197.884277,512.282227,199.302338,512.070313,200.730469C511.429932,204.432358,510.476044,208.073013,509.21875,211.613281C508.14267,214.568359,506.778015,217.410233,505.144531,220.097656C503.797485,222.226288,502.181244,224.171982,500.335938,225.886719C499.216339,226.92662,498.138611,228.010849,497.105469,229.136719C495.349548,231.153,493.913574,233.426865,492.847656,235.878906C491.575592,238.553925,490.793701,241.435608,490.539063,244.386719C490.398743,245.823624,490.341339,247.267426,490.367188,248.710938C490.354645,249.207825,490.326019,249.704193,490.28125,250.199219C490.336304,252.020401,490.437927,253.84024,490.585938,255.65625C481.959259,255.703552,473.341522,256.213379,464.769531,257.183594C461.805237,257.532349,458.840942,257.855103,455.871094,258.152344L455.320313,258.191406L453.414063,252.289063L453.167969,244.640625C454.128632,243.287231,454.946716,241.838074,455.609375,240.316406C455.832153,239.827454,456.079742,239.350189,456.351563,238.886719L456.609375,238.71875L456.902344,238.519531L457.238281,238.296875L457.617188,238.046875L458.023438,237.769531L458.472656,237.472656L458.960938,237.152344L461.503906,235.449219C465.432251,232.843262,469.395874,230.200195,473.3125,227.574219C474.028748,226.538971,474.707489,225.47847,475.347656,224.394531C477.195984,221.472244,479.348572,218.753967,481.769531,216.285156C482.854218,215.194778,484.033203,214.202576,485.292969,213.320313C486.242065,212.699677,487.221161,212.126022,488.226563,211.601563C490.022675,210.566071,491.664948,209.284012,493.105469,207.792969C495.677887,205.185547,497.942688,202.291641,499.855469,199.167969C500.583954,197.980331,501.339355,196.809479,502.121094,195.65625C503.199463,193.818024,503.901764,191.783813,504.1875,189.671875C504.331421,188.787689,504.447327,187.899323,504.535156,187.007813C505.002594,183.931824,505.869324,180.929916,507.113281,178.078125C508.534607,174.717865,510.26062,171.494797,512.269531,168.449219C513.300415,166.853394,514.384216,165.292725,515.519531,163.769531L522.175781,155.625C522.943481,155.558899,523.704163,155.427124,524.449219,155.230469C526.035522,154.872131,527.640991,154.604767,529.257813,154.429688C529.699768,154.397171,530.142944,154.386749,530.585938,154.398438z"/>
    <path transform="matrix(-1,0,0,-1,-705.580322,-303.49469)" style="stroke:#000000;stroke-width:0.05mm;fill:none" d="M456.351563,221.929688C456.409424,222.441101,456.498016,222.948532,456.617188,223.449219C456.885468,224.672195,456.850739,225.942047,456.515625,227.148438C456.310333,227.80629,455.949921,228.405029,455.464844,228.894531C454.957458,229.39856,454.390717,229.839218,453.777344,230.207031L453.519531,230.40625L452.753906,231.785156L452.367188,219.9375L456.351563,221.929688z"/>
</svg>
