<?xml version="1.0" encoding="UTF-8"?>
<svg xmlns="http://www.w3.org/2000/svg" width="253.406mm" height="400.000mm" viewBox="-1121.302490 -843.707520 253.405884 399.999969">
    <path transform="matrix(-0.318917,0,0,-0.318917,-854.403137,-402.667511)" style="stroke:#000000;stroke-width:0.05mm;fill:none" d="M332,1381.963745C332,1381.393799,334.25,1377.991943,337,1374.403931C341.452057,1368.595337,342.867157,1366,341.582153,1366C341.352356,1366,338.989838,1367.087524,336.332153,1368.416626C324.72113,1374.223389,300.555756,1375.781372,281.700409,1371.938965C262.154572,1367.955811,244.893692,1360.249878,223.83873,1346.1073C191.966354,1324.698853,168.822495,1297.663208,150.554611,1260.5C138.781586,1236.549683,127.797478,1202.820679,122.873726,1175.5C120.598778,1162.876953,120.537308,1160,122.542519,1160C125.063164,1160,145.942444,1181.763916,158.696533,1197.685791C165.223236,1205.833618,177.878616,1222.01355,186.819611,1233.641113L203.075974,1254.782349L213.787979,1258.298096C229.19014,1263.353271,237.032089,1264.471191,257.200012,1264.48645C277.705383,1264.502197,279.574677,1263.873169,272.840027,1259.223755C268.059174,1255.923218,259.500153,1247.449585,255.442642,1242C252.286667,1237.76123,245,1223.580811,245,1221.677734C245,1220.619751,248.105713,1220.165283,258.75,1219.665405C273.4599,1218.974731,291.825256,1216.23584,303.981842,1212.9198C312.605774,1210.567383,328,1203.625,328,1202.088257C328,1201.394775,324.408966,1201.241821,317.25,1201.630615C293.354126,1202.928345,254.55397,1196.943481,228.143845,1187.886108C205.071274,1179.973267,177.125946,1164.278442,156,1147.368164C151.324997,1143.625977,141.393768,1134.415405,133.930588,1126.900269C89.655434,1082.316162,59.197147,1021.464722,47.638241,954.5C40.898415,915.453857,40.525383,874.102478,46.571507,836.25C46.857021,834.462524,47.495232,833,47.98975,833C48.484268,833,54.649132,839.578552,61.689445,847.619019C93.536278,883.989929,119.183357,919.578613,132.655136,946.093323C135.141449,950.986816,137.572983,955.236084,138.058533,955.536194C138.544098,955.836243,139.161377,955.050903,139.430267,953.790894C142.225784,940.691711,143.236954,933.963257,143.719543,925.25C144.107681,918.241699,144.667892,915,145.49086,915C146.941238,915,158.704376,929.551392,166.452438,940.930176C173.337402,951.041382,183.048004,970.772522,186.418701,981.5C189.778885,992.194031,190.84407,997.31897,192.528183,1010.89502C194.64119,1027.928345,195.633972,1027.819214,198.075745,1010.285461C199.212769,1002.120789,198.808853,975.847961,197.44487,969.25C197.017227,967.181396,197.163956,966,197.848541,966C199.650711,966,215.938004,980.15918,225.899216,990.385498C231.068787,995.692688,235.500275,999.833069,235.746994,999.586365C235.993713,999.3396,235.271561,994.944275,234.142242,989.818909C223.290619,940.56958,218.675552,895.446167,218.716965,839C218.75174,791.621826,221.898331,758.803406,230.126541,720C234.119232,701.170898,243.584656,671.779053,250.755753,655.942566C259.043121,637.64093,261.04599,634.920715,263.782593,638.25C265.210693,639.987427,273.231628,667.551819,277.386292,685C290.026093,738.082764,295.342224,776.584412,295.439667,815.749878C295.47522,830.043335,295.877869,839.873901,296.420319,839.693115C298.993317,838.835754,305.152527,817.213501,307.974701,799.130737C309.036469,792.327637,310.117615,786.549072,310.377228,786.289429C312.909302,783.757385,318.79364,793.684814,326.802277,814C338.862793,844.593323,350.521606,894.567871,353.98114,930.5C355.555847,946.855469,356.036865,950,356.96405,950C359.325684,950,366.108459,927.264893,368.500214,911.332031C369.293457,906.047729,370.202026,901.464661,370.519226,901.147461C371.990997,899.675659,374.419708,903.307495,378.110962,912.5C384.498291,928.406555,392.554321,953.469482,395.468353,966.5C396.944305,973.099976,398.348053,979.113159,398.587799,979.86261C399.402771,982.4104,401.680115,979.200806,403.39566,973.086609C405.56665,965.349243,407.013489,964.161316,410.897644,966.927124C422.984955,975.534058,433.563141,998.378967,438.482452,1026.5C439.44458,1032,440.387604,1037.054932,440.578033,1037.733154C441.704773,1041.74585,448.670837,1031.802124,453.000946,1020C459.614502,1001.97406,466.175415,988.137939,472.916718,978C475.227356,974.525146,478.163361,967.529175,480.890442,959C487.070648,939.671021,492.28833,926.676941,497.554535,917.5C501.299469,910.973999,503.068451,905.999207,507.155548,890.5C512.754028,869.269043,517.533142,855.551575,522.567261,846.263306C525.142273,841.512329,526.531372,836.867126,528.398499,826.763306C533.557007,798.848633,539.010132,778.858276,544.356628,768.262878C545.678467,765.643311,547.06073,761.025024,547.428223,758C552.261169,718.220032,555.98175,699.212341,561.554688,685.830994C563.845886,680.329651,564.298401,677.40332,565.008057,663.5C566.755249,629.27063,569.192871,611.188904,573.990906,596.867676L577.002563,587.878479L576.976501,556.68927C576.946777,521.113037,578.072571,508.684265,582.577209,494.85675C583.929016,490.707184,583.926208,488.314758,582.550842,472.35675C578.807556,428.923431,578.800842,407.779663,582.524902,390.449493C584.24231,382.457275,584.236267,382.29953,581.560852,365.453278C580.080078,356.128967,578.470581,346.25,577.984314,343.5C575.417419,328.984558,574.538696,317.442474,574.520325,298C574.507996,284.985168,574.937805,275.105988,575.609253,272.967804C576.553467,269.96109,576.241028,267.506409,573.509033,256.467804C563.072754,214.299789,559.754883,197.228058,558.005005,176.692581C556.860901,163.265671,557.380249,153.647827,559.535828,148.345428C562.664124,140.650162,583.914978,133.26265,612.5,129.933334C628.11322,128.114853,662.239258,128.311066,677.580322,130.307526C696.389465,132.75531,709.924866,136.516678,718.014709,141.543884C723.240479,144.791321,723.931091,146.037796,724.979614,154.115097C727.821777,176.009796,724.798279,205.95224,714.418213,258.707855C713.638184,262.67215,713.01709,266.722168,713.037964,267.707855C713.059448,268.722565,715.426636,271.131958,718.494873,273.261963C725.176819,277.900696,725.487976,279.157593,724.719116,298.408142C723.908264,318.710114,721.119995,334.207886,711.289734,373.051544L706.594849,391.603088L711.930237,396.745697L717.265564,401.888306L716.538452,412.194153C716.13855,417.862366,715.195618,426.011322,714.443115,430.302979C712.072144,443.824066,702.296997,478.961151,695.60968,498C693.313782,504.536591,693.559509,505.798462,698.084351,510.707306C702.049438,515.008911,702.149902,515.28949,701.526489,520.319153C700.529358,528.363831,698.025696,542.230347,697.070251,545C696.595947,546.375,695.20575,550.875,693.980896,555C690.353638,567.216125,689.166443,570.572632,681.332642,590.758545L673.858826,610.017151L677.429382,614.188538C681.483704,618.92511,681.551758,619.419556,679.507629,629.292175C676.176025,645.382935,668.26239,666.458313,654.883423,694.87085C652.197571,700.574768,650,705.421936,650,705.642273C650,705.86261,651.183289,707.830933,652.629517,710.016357C654.921692,713.480103,655.173767,714.632263,654.594604,718.998413C653.141174,729.954895,643.049255,754.117493,629.150696,779.917664C622.728943,791.838501,622.099731,794.225647,624.531799,797.441101C625.339294,798.508728,626,800.570496,626,802.022705C626,809.923645,614.678406,834.499451,599.688599,859.137146C595.459839,866.087524,592,872.205872,592,872.733459C592,873.261047,592.731873,875.15979,593.626404,876.952881C594.979919,879.666138,595.057251,880.86554,594.08728,884.103088C591.761292,891.866455,581.887695,909.877075,570.584839,926.974243C559.475891,943.778137,559.075928,944.567932,560.158264,947.561096C560.777283,949.273071,560.984802,952.267395,560.619385,954.21521C559.66272,959.31488,548.529602,977.428772,536.438538,993.558167C526.316284,1007.061218,524.258972,1011.394653,527.398743,1012.599548C528.168091,1012.894775,530.980591,1012.051025,533.648743,1010.724548C539.27832,1007.925903,552.855652,1003.739685,561.5,1002.137329C579.480469,998.804504,595.65332,997.765198,622.299072,998.230347C650.250916,998.718262,652.827148,999.137817,650.222351,1002.777527C647.788269,1006.17865,644.634583,1012.967896,645.217773,1013.551147C645.545044,1013.878418,649.342407,1013.038452,653.656433,1011.684692C669.273743,1006.78363,698.020142,1000.594116,724.13916,996.508667C746.573975,992.999512,747.217529,993.081665,742.91217,998.904907C741.763916,1000.458069,740.751404,1003.252319,740.66217,1005.11438C740.502869,1008.440369,740.579285,1008.505737,745,1008.824463C752.533508,1009.367676,770.986572,1007.14856,780.332397,1004.5755C802.671753,998.42511,822.447754,984.195618,832.098328,967.328186C837.234192,958.351563,838.067993,960.357971,835.441467,975.373535C830.908691,1001.287415,817.863525,1026.328125,800.041077,1043.32605C795.893494,1047.281738,790.354614,1051.864136,787.732422,1053.509155C785.110229,1055.154175,783.085266,1057.117676,783.232422,1057.872559C783.578796,1059.649414,791.553101,1062.872192,795.781372,1062.944092C801.537903,1063.042114,800.791931,1065.330688,791.54126,1075.952637C779.030029,1090.318481,764.254517,1102.896362,752.721802,1108.998291C745.435608,1112.853394,745.954895,1113.361084,759.124084,1115.257813C763.86731,1115.94104,767.894348,1116.949951,768.073059,1117.5C769.156128,1120.833496,730.251038,1142.091675,708,1150.324707C698.532532,1153.827637,675,1160.738647,665.5,1162.805908C649.841797,1166.213135,617.915649,1169.489868,611.058472,1168.393311C608.882446,1168.04541,606.983398,1168.217896,606.626099,1168.795898C606.282349,1169.352173,609.811096,1172.663208,614.467834,1176.153687C619.271179,1179.754028,622.836243,1183.140869,622.707275,1183.981079C622.460938,1185.585815,612.388062,1187.776245,594.75,1190.060669C589.387512,1190.755127,585,1191.640381,585,1192.027832C585,1192.415283,588.262512,1194.187012,592.25,1195.964966C602.140625,1200.375122,615.881531,1208.558228,626.044067,1216.090088C635.4104,1223.03186,656,1242.605591,656,1244.567993C656,1245.338013,653.309143,1246.273193,649.00354,1246.99939C645.155518,1247.648438,641.79248,1248.526733,641.530212,1248.95105C641.267944,1249.375488,644.045349,1250.994263,647.702209,1252.548462C662.727722,1258.934326,682.128967,1274.013306,703.608826,1296C718.066223,1310.798462,735,1330.418457,735,1332.370605C735,1333.311646,732.061462,1333.504395,722.768433,1333.173096C711.330322,1332.765259,710.628601,1332.847534,711.951538,1334.441528C715.582214,1338.816284,735.003906,1346.194458,751.654785,1349.524536C760.252197,1351.244019,769.553406,1352.295166,779.78125,1352.703003C790.128357,1353.115601,794.955139,1353.665649,794.730042,1354.40625C793.386169,1358.827148,754.549438,1370.568726,727,1374.883301C702.494446,1378.721069,655.467346,1379.881226,634,1377.177612C588.793396,1371.484131,551.351379,1358.724487,522.5,1339.180298C504.16275,1326.758545,482.074371,1306.66394,467.030426,1288.717773C463.472137,1284.473022,460.209625,1281,459.780426,1281C459.351196,1281,458.997345,1284.712524,458.99411,1289.25C458.987488,1298.494019,456.78241,1314.746216,454.435089,1322.851074C451.869537,1331.709595,448.090668,1339.490723,446.921753,1338.321777C446.354187,1337.75415,445.226624,1333.169678,444.416046,1328.134033C443.009613,1319.396729,441.557312,1314,440.612518,1314C440.372192,1314,438.069305,1316.95166,435.495026,1320.559204C432.920746,1324.166748,426.693726,1331.429321,421.657257,1336.698242C397.215729,1362.267822,373.062531,1375.697266,340.439819,1381.855957C332.988586,1383.262573,332,1383.275269,332,1381.963745z"/>
</svg>
