<?xml version="1.0" encoding="UTF-8"?>
<svg xmlns="http://www.w3.org/2000/svg" width="503.044mm" height="327.000mm" viewBox="468.544189 -1060.188965 503.043823 327.000000">
    <path transform="matrix(-1,0,0,-1,0,0)" style="stroke:none;fill:#000000;fill-rule:evenodd" d="M-504.544189,734.188965C-504.094177,735.088989,-503.732239,737.826172,-501.544189,740.188965C-497.740356,744.296631,-496.662231,742.452881,-493.544189,746.188965C-490.75531,749.53064,-492.001526,749.563354,-492.306519,752.945679C-492.70459,757.360474,-494.696289,759.58075,-495.746948,761.711365L-500.544189,782.188965C-500.544189,785.438965,-502.794189,789.109497,-503.544189,796.188965C-504.539429,805.583496,-504.294189,805.182007,-504.544189,814.188965C-504.724487,820.68396,-503.450928,821.571228,-505.994751,826.80603C-507.949646,830.828918,-511.461121,832.22345,-512.544189,833.188965C-515.394165,834.988953,-525.017578,836.859192,-531.544189,845.188965C-536.136292,851.049744,-535.294189,852.486145,-536.544189,860.188965C-538.204407,870.419556,-539.45636,871.570679,-536.544189,881.188965C-535.544189,884.49176,-533.144165,886.28894,-532.544189,887.188965C-532.844177,888.238953,-534.044189,890.618958,-534.544189,894.188965C-535.643066,902.035034,-532.250366,902.912048,-534.544189,910.188965C-539.794189,926.843872,-559.23761,930.732605,-555.544189,940.188965C-552.240356,948.647766,-528.344177,946.138977,-523.544189,947.188965L-529.544189,950.188965C-527.088318,951.188965,-516.38916,953.188965,-506.544189,954.188965L-511.544189,958.188965C-507.591248,959.938965,-499.065674,963.438965,-491.544189,965.188965L-497.544189,966.188965C-495.735535,969.291992,-484.401367,972.604187,-478.544189,974.188965L-482.544189,974.188965C-482.156128,979.034729,-473.575134,987.85907,-468.544189,992.188965L-473.544189,992.188965C-478.310486,997.056763,-473.367737,1005.827209,-470.544189,1010.188965L-476.544189,1005.188965C-470.729553,1019.615295,-478.767151,1028.484009,-479.544189,1036.188965L-483.544189,1035.188965C-483.706177,1041.212769,-491.28418,1048.726563,-495.544189,1052.188965L-496.544189,1049.188965C-500.544922,1052.488403,-515.191284,1053.77124,-521.544189,1055.188965L-523.544189,1052.188965C-524.563171,1054.112183,-536.200439,1055.21582,-540.544189,1056.188965L-539.544189,1052.188965C-542.626831,1054.994629,-555.558655,1058.35083,-561.544189,1060.188965L-557.544189,1048.188965C-551.934021,1044.161499,-551.547119,1042.381714,-525.544189,1032.188965C-521.673096,1028.802246,-512.067993,1027.617554,-510.544189,1017.188965C-510.844177,1014.338989,-508.66687,1006.316284,-512.544189,998.188965C-518.284424,986.156738,-523.440918,981.547668,-532.544189,978.188965C-537.794189,976.088989,-549.416931,966.751221,-567.544189,964.188965C-582.04248,962.139648,-593.044189,966.738953,-597.544189,967.188965C-607.00647,969.706055,-628.534302,967.798523,-639.544189,966.188965L-695.544189,957.188965L-742.544189,958.188965C-749.544189,958.688965,-763.544189,959.688965,-770.544189,960.188965C-776.294189,961.938965,-783.575928,963.125244,-794.544189,972.188965C-804.944946,980.783752,-805.926331,984.634949,-813.544189,995.188965C-820.863831,1005.329773,-832.706299,1021.95636,-835.544189,1024.188965C-836.846375,1029.338379,-841.412537,1039.715088,-843.544189,1042.188965C-849.949463,1049.622803,-852.847961,1049.078003,-863.544189,1050.188965C-870.418091,1050.902954,-875.625061,1051.717163,-883.544189,1051.188965C-901.00592,1050.02417,-906.915955,1047.53833,-914.544189,1041.188965C-917.446594,1038.773193,-915.944214,1036.239014,-916.544189,1035.188965C-917.894165,1034.739014,-920.923645,1033.013062,-925.544189,1032.188965C-941.137329,1029.407959,-947.602417,1029.930908,-963.544189,1028.188965C-968.796997,1027.61499,-972.005371,1025.419556,-971.544189,1022.188965C-970.644653,1015.888123,-967.841797,1012.770203,-965.353821,1007.598083C-962.258362,1001.162964,-953.821289,993.782959,-947.544189,992.188965C-936.011108,989.260254,-935.805054,993.476257,-928.544189,988.188965C-923.771973,984.713928,-916.344177,986.888977,-914.544189,987.188965C-912.294189,986.588989,-907.13147,982.837097,-900.544189,979.188965C-891.83783,974.367249,-884.794189,966.28894,-882.544189,964.188965C-881.044189,961.338989,-875.339661,954.175964,-869.544189,945.188965C-866.466614,940.416565,-865.950806,940.389404,-862.544189,936.188965C-858.304932,930.961792,-853.932373,928.983398,-850.544189,916.188965C-847.567322,904.947632,-847.144165,896.638977,-846.544189,893.188965L-834.544189,865.188965C-831.844177,862.338989,-822.392151,857.341736,-816.544189,846.188965C-803.528992,821.367371,-805.139771,804.400635,-804.544189,789.188965C-802.342224,781.688965,-803.790894,766.688965,-804.544189,759.188965C-805.594177,758.738953,-808.16156,757.918579,-811.544189,756.188965C-816.723938,753.540527,-817.2229,753.965576,-821.544189,750.188965C-823.91687,748.115356,-824.944214,745.938965,-825.544189,745.188965L-818.544189,740.188965L-790.544189,742.188965L-789.544189,746.188965C-789.394165,748.28894,-790.514465,753.630676,-788.544189,760.188965C-785.967224,768.766724,-781.794189,767.599609,-779.544189,776.188965C-777.092896,785.546875,-779.544189,793.188965,-779.544189,796.188965L-780.544189,828.188965C-777.994202,820.53894,-768.500549,803.360046,-763.544189,777.188965C-761.790039,767.926514,-759.822754,766.653198,-762.544189,758.188965C-764.375916,752.491821,-769.344177,749.688965,-770.544189,748.188965C-770.844177,746.688965,-775.479858,740.13623,-772.544189,739.188965C-765.432434,736.894165,-750.256836,736.132996,-745.544189,740.188965L-741.544189,743.188965L-737.544189,752.188965L-742.544189,778.188965L-739.544189,785.188965L-742.544189,795.188965L-747.544189,805.188965C-749.294189,813.188965,-750.794189,828.188965,-752.544189,836.188965C-750.127808,834.020447,-741.547852,837.420715,-738.544189,838.188965C-732.844177,840.28894,-719.971802,846.70343,-700.544189,852.188965C-690.759583,854.951721,-683.544189,855.588989,-680.544189,856.188965L-658.175415,860.856018L-657.127747,860.481873C-656.827759,859.431885,-655.85675,858.546753,-653.544189,857.188965C-648.921082,854.474609,-619.694214,858.988953,-613.544189,860.188965L-609.544189,846.188965C-606.294189,841.938965,-603.664307,837.133179,-596.544189,829.188965C-586.425476,817.899109,-584.428955,819.650757,-574.544189,808.188965C-567.781189,800.346985,-567.344177,793.738953,-565.544189,791.188965C-566.894165,786.91394,-565.045471,768.00177,-574.544189,762.688965C-575.199402,762.32251,-576.244202,763.113953,-576.544189,763.188965C-579.244202,762.138977,-591.044189,762.767273,-595.544189,756.188965C-597.874207,752.782837,-595.389954,748.277832,-594.139954,745.027832L-567.544189,744.188965L-558.45697,744.773438C-559.20697,745.823425,-560.494263,751.758057,-558.711365,754.823181C-553.794861,763.275513,-537.63623,793.309265,-532.986206,800.359253C-530.819885,795.83374,-523.426208,785.99646,-518.544189,770.188965C-516.624451,763.973022,-518.134277,764.636108,-519.868835,759.862549C-523.167419,750.78479,-532.679382,753.063354,-534.130676,744.368225C-534.746155,740.680664,-533.019592,739.812622,-530.544189,736.188965C-530.152222,735.615173,-529.694214,735.338989,-529.544189,735.188965L-515.544189,733.188965L-504.544189,734.188965z"/>
</svg>
