<?xml version="1.0" encoding="UTF-8"?>
<svg xmlns="http://www.w3.org/2000/svg" width="499.800mm" height="327.000mm" viewBox="-157.000000 -666.000000 499.800171 327.000000">
    <path transform="matrix(-1,0,0,-1,5,3)" style="stroke:#ff0000;stroke-width:0.05mm;fill:none" d="M126,343C126.253998,343.6763,126.487167,344.360168,126.699219,345.050781C127.343193,346.964996,128.482101,348.675568,130,350.007813C130.950134,350.907166,132.053497,351.629517,133.257813,352.140625C134.597092,352.68985,135.783585,353.555878,136.714844,354.664063C137.367249,355.37204,137.937347,356.151855,138.414063,356.988281C138.75589,357.603973,138.862595,358.323181,138.714844,359.011719C138.524124,359.815887,138.375458,360.629547,138.269531,361.449219C138.106964,363.752228,137.412933,365.986664,136.242188,367.976563C135.741516,368.814728,135.259705,369.663757,134.796875,370.523438L130,391C129.959412,392.106049,129.776886,393.202148,129.457031,394.261719C128.957413,395.923889,128.480606,397.593964,128.027344,399.269531C127.481033,401.43042,127.107468,403.631409,126.910156,405.851563C126.562195,408.882538,126.321167,411.924652,126.1875,414.972656C126.10376,418.218018,126.036377,421.441345,125.984375,424.6875C126.003212,425.947754,126.052681,427.207031,126.132813,428.464844C126.214951,429.538727,126.162521,430.618835,125.976563,431.679688C125.672363,433.048004,125.193069,434.371277,124.550781,435.617188C123.709221,437.326355,122.474968,438.812256,120.949219,439.953125C120.158234,440.537476,119.345161,441.091248,118.511719,441.613281C118.332787,441.730743,118.161728,441.859802,118,442C117.12149,442.490204,116.205994,442.910797,115.261719,443.257813C112.958488,444.121338,110.707336,445.117798,108.519531,446.242188C105.422905,447.837097,102.627289,449.958588,100.257813,452.511719C98.803452,454.108154,97.528877,455.859558,96.457031,457.734375C95.79464,458.93985,95.326637,460.242371,95.070313,461.59375C94.824272,462.992096,94.621056,464.397797,94.460938,465.808594C94.025276,468.968536,93.501686,472.115295,92.890625,475.246094C92.604019,476.728241,92.401894,478.225372,92.285156,479.730469C92.193741,481.622986,92.359299,483.519165,92.777344,485.367188C93.157974,487.136353,93.633934,488.883759,94.203125,490.601563C94.784729,492.076874,95.643951,493.426697,96.734375,494.578125C97.179733,495.03067,97.602119,495.505219,98,496C97.700287,496.854614,97.391602,497.706421,97.074219,498.554688C96.089874,501.356415,95.662605,504.323425,95.816406,507.289063C95.933495,508.611084,96.144958,509.923004,96.449219,511.214844C96.697906,512.303894,96.819862,513.418091,96.8125,514.535156C96.760902,516.055115,96.487183,517.559326,96,519C95.06292,521.930237,93.642273,524.683105,91.796875,527.144531C90.095268,529.383667,88.178596,531.450745,86.074219,533.316406C84.478203,534.73407,82.856209,536.124207,81.210938,537.484375C80.060852,538.438477,78.948105,539.436584,77.875,540.476563C77.074188,541.250977,76.35672,542.107239,75.734375,543.03125C75.111855,543.939575,74.712997,544.9823,74.570313,546.074219C74.370941,548.105652,75.195358,550.102905,76.769531,551.402344C77.799744,552.23175,78.961678,552.882751,80.207031,553.328125C81.470566,553.799194,82.77047,554.16626,84.09375,554.425781C87.053474,554.982727,90.049484,555.324768,93.058594,555.449219C96.219383,555.579163,99.383614,555.65863,102.546875,555.6875C103.866165,555.695496,105.18428,555.769836,106.496094,555.910156C106.665054,555.934265,106.833115,555.964294,107,556L101,559C102.24913,559.433533,103.526962,559.779419,104.824219,560.035156C109.937401,561.114075,115.096123,561.963867,120.285156,562.582031C121.5224,562.733948,122.759964,562.87323,124,563L119,567C124.112045,569.262024,129.354523,571.217346,134.699219,572.855469C136.121094,573.279846,137.555313,573.661499,139,574L133,575C133.393143,575.58197,133.899094,576.078735,134.488281,576.460938C135.678467,577.252502,136.942001,577.927551,138.261719,578.476563C140.581345,579.465088,142.951874,580.32959,145.363281,581.066406C147.561707,581.75769,149.774292,582.402344,152,583L148,583C148.10463,583.878784,148.354034,584.734009,148.738281,585.53125C149.443832,586.995911,150.293121,588.386719,151.273438,589.683594C152.574707,591.426025,153.972687,593.093994,155.460938,594.679688C157.525879,596.902039,159.708725,599.011841,162,601L157,601C155.879761,602.14978,155.194977,603.654114,155.0625,605.253906C154.946426,606.703552,155.087845,608.16217,155.480469,609.5625C155.877197,611.047607,156.417419,612.490662,157.09375,613.871094C157.949127,615.642517,158.919937,617.355835,160,619L154,614C155.447281,617.465576,156.158936,621.194214,156.089844,624.949219C156.007385,627.342773,155.632156,629.717163,154.972656,632.019531C154.458191,633.803406,153.870499,635.565308,153.210938,637.300781C152.604492,638.859436,152.063614,640.442932,151.589844,642.046875C151.310059,643.012817,151.112747,644.000732,151,645L147,644C146.943069,645.207458,146.671906,646.395264,146.199219,647.507813C145.475891,649.21167,144.545685,650.820068,143.429688,652.296875C141.442215,654.922363,139.198181,657.34314,136.730469,659.523438C136.165894,660.029785,135.588867,660.522156,135,661L134,658C133.21228,658.591919,132.342529,659.065552,131.417969,659.40625C129.654846,660.059631,127.846756,660.584412,126.007813,660.976563C122.957832,661.619263,119.890099,662.175537,116.808594,662.644531C114.404259,662.999878,112.00769,663.407593,109.621094,663.867188L109,664L107,661C106.789932,661.303955,106.497177,661.541199,106.15625,661.683594C105.299225,662.07843,104.402115,662.379639,103.480469,662.582031C101.345535,663.085083,99.189957,663.495667,97.019531,663.8125C94.815224,664.130859,92.618317,664.496826,90.429688,664.910156L90,665L91,661C90.356689,661.532837,89.651085,661.985352,88.898438,662.347656C87.391655,663.081482,85.843445,663.727173,84.261719,664.28125C80.789734,665.485352,77.284348,666.591309,73.75,667.597656C72.162468,668.055237,70.581612,668.521973,69,669L73,657C74.397522,655.960327,75.779602,654.934692,77.179688,653.898438C79.325638,652.420654,81.580757,651.108276,83.925781,649.972656C87.713783,648.130493,91.561928,646.416138,95.464844,644.832031C98.62912,643.525269,101.811401,642.246338,105,641C105.831726,640.321716,106.734055,639.735046,107.691406,639.25C109.012306,638.581299,110.324898,637.896362,111.628906,637.195313C113.055145,636.430542,114.389282,635.505188,115.605469,634.4375C117.682228,632.582581,119.126228,630.123596,119.734375,627.40625C119.840683,626.94104,119.929298,626.471985,120,626C119.957756,625.146545,119.981308,624.29126,120.070313,623.441406C120.27327,621.362,120.359329,619.272644,120.328125,617.183594C120.272522,614.221008,119.706932,611.2901,118.65625,608.519531C118.142746,607.260986,117.566498,606.028992,116.929688,604.828125C115.693069,602.345825,114.262848,599.964722,112.652344,597.707031C111.018074,595.404907,109.05127,593.35791,106.816406,591.632813C104.853104,590.164307,102.719109,588.939209,100.460938,587.984375C99.649811,587.633789,98.829178,587.305481,98,587C96.754311,586.458862,95.54364,585.840393,94.375,585.148438C91.750053,583.613403,89.092415,582.13678,86.402344,580.71875C81.963654,578.393616,77.312119,576.499512,72.511719,575.0625C68.116257,573.750366,63.59079,572.921265,59.015625,572.589844C54.072437,572.29657,49.111988,572.623352,44.25,573.5625C41.549202,574.095459,38.863426,574.701172,36.195313,575.378906C35.144482,575.653564,34.077202,575.860962,33,576C31.280886,576.428589,29.530663,576.721191,27.765625,576.875C24.188646,577.185059,20.596903,577.291992,17.007813,577.195313C8.303274,576.966125,-0.380209,576.233154,-9,575L-65,566L-112,567L-140,569C-141.975983,569.553528,-143.944794,570.131653,-145.90625,570.734375C-150.266602,572.120605,-154.407257,574.121155,-158.203125,576.675781C-162.805725,579.780579,-167.06163,583.369934,-170.898438,587.382813C-172.551041,589.160095,-174.078125,591.050049,-175.46875,593.039063C-177.129272,595.455994,-178.78833,597.900085,-180.421875,600.335938C-182.750977,603.659729,-185.11499,606.969055,-187.503906,610.25C-191.400696,615.706726,-195.374329,621.101624,-199.429688,626.441406C-200.80629,628.273743,-202.251297,630.05365,-203.761719,631.777344C-204.141907,632.216614,-204.555817,632.625549,-205,633C-205.550949,635.023132,-206.220093,637.012268,-207.003906,638.957031C-208.17308,642.002991,-209.51918,644.978149,-211.035156,647.867188C-211.545273,648.871094,-212.133011,649.833679,-212.792969,650.746094C-214.007874,652.229431,-218.535522,654.762451,-220,656C-221.801376,657.498657,-223.120895,659.028381,-225.418579,659.488281C-227.219131,659.840637,-227.866119,660.584473,-229.695313,660.726563C-232.830078,661.018311,-235.790115,662.06311,-238.91893,662.417236C-241.330673,663.660034,-243.813248,662.156433,-246.183594,662.269531C-249.644302,662.39447,-253.109512,662.30188,-256.558594,661.992188C-260.251923,661.734619,-263.928009,661.272949,-267.570313,660.609375C-270.122314,660.140564,-272.624329,659.431763,-275.042969,658.492188C-277.654938,657.439819,-280.119568,656.053284,-282.375,654.367188C-283.522736,653.542419,-282.806244,652.959595,-283.857361,652.014771C-283.408447,652.829407,-285.277405,649.856934,-285.236267,648.565552C-285.038208,647.350952,-285.197174,647.474304,-285.220642,646.928833C-285.238647,646.7677,-285.284698,646.610779,-285.361267,646.467896C-286.277161,646.101501,-287.095612,644.394043,-288,644C-289.692169,642.831177,-292.849091,641.391418,-295,641C-301.243927,639.871399,-304.30072,638.132019,-310.628906,637.667969C-315.152435,637.353943,-319.669617,637.003845,-324.1875,636.617188C-326.368652,636.427368,-328.545532,636.199463,-330.71875,635.933594C-332.103638,635.745239,-333.452301,635.348999,-334.71875,634.757813C-335.60614,634.358459,-336.387939,633.756531,-337,633C-337.648804,632.166992,-337.922577,631.101563,-337.757813,630.058594C-337.376434,627.360657,-336.53067,624.748962,-335.257813,622.339844C-334.515259,620.950195,-333.757202,619.568237,-332.984375,618.195313C-332.382019,617.099426,-331.807556,615.988403,-331.261719,614.863281C-330.042236,612.645142,-328.537201,610.596497,-326.785156,608.769531C-324.258636,606.042419,-321.333466,603.71405,-318.109375,601.863281C-316.276398,600.816528,-314.281281,600.082458,-312.207031,599.691406C-309.225372,599.02063,-306.164825,598.765686,-303.113281,598.933594C-302.237946,598.972229,-301.360901,598.934631,-300.492188,598.820313C-299.329041,598.620911,-298.210388,598.217468,-297.1875,597.628906C-296.345642,597.156677,-295.534119,596.632263,-294.757813,596.058594C-293.4263,595.128235,-295.135925,595.467896,-293.527344,595.242188C-292.322968,595.059143,-291.102325,595.006653,-289.886719,595.085938C-288.123413,595.216431,-286.372467,595.47876,-284.648438,595.871094C-284.432831,595.916199,-284.216461,595.959167,-284,596C-283.107117,595.701416,-282.250305,595.304626,-281.445313,594.816406C-279.854645,593.901672,-278.282837,592.954895,-276.730469,591.976563C-274.253174,590.435242,-271.73819,588.955688,-269.1875,587.539063C-266.073853,585.677734,-263.139465,583.53186,-260.421875,581.128906C-257.87027,578.874268,-255.414764,576.512695,-253.0625,574.050781C-252.715515,573.693237,-252.361328,573.343018,-252,573C-251.336349,571.838562,-250.611389,570.713257,-249.828125,569.628906C-247.639526,566.556396,-245.436401,563.44458,-243.265625,560.359375C-241.545654,557.852844,-239.856873,555.3255,-238.199219,552.777344C-236.969742,550.917908,-235.598465,549.156006,-234.097656,547.507813C-233.12326,546.364014,-232.159119,545.213867,-231.203125,544.054688C-230.160049,542.893921,-229.098297,541.748779,-228.019531,540.621094C-225.413345,537.888123,-223.369354,534.669373,-222.003906,531.148438C-220.961166,528.472778,-220.115173,525.724609,-219.472656,522.925781C-218.172653,517.548584,-217.211105,512.095154,-216.59375,506.597656C-216.42804,505.061157,-216.230072,503.528137,-216,502L-204,474C-203.172882,473.202454,-202.293381,472.461243,-201.367188,471.78125C-199.360641,470.277405,-197.413849,468.695465,-195.53125,467.039063C-192.536209,464.381866,-189.912369,461.333679,-187.730469,457.976563C-186.665527,456.270081,-185.694122,454.507141,-184.820313,452.695313C-181.933929,446.967773,-179.595398,440.980194,-177.835938,434.8125C-176.282684,429.255554,-175.253448,423.565369,-174.761719,417.816406C-174.418594,413.646332,-174.225754,409.46521,-174.183594,405.28125C-174.145157,402.852478,-174.084,400.427612,-174,398C-173.485992,396.090057,-173.16275,394.133942,-173.035156,392.160156C-172.855865,389.813202,-172.791962,387.45874,-172.84375,385.105469C-172.950897,380.440094,-173.234955,375.78064,-173.695313,371.136719C-173.791565,370.093231,-173.893616,369.042572,-174,368C-175.554901,367.412537,-177.097168,366.791199,-178.625,366.136719C-180.006104,365.49057,-181.377167,364.823914,-182.738281,364.136719C-183.940033,363.580078,-185.133209,363.00885,-186.320313,362.421875C-187.722168,361.647339,-189.03479,360.721313,-190.234375,359.660156C-191.918442,358.30481,-193.348312,356.660461,-194.457031,354.804688C-194.624924,354.527863,-194.805954,354.259155,-195,354L-188,349L-160,351L-159,355C-158.984955,355.952911,-159.017532,356.905853,-159.097656,357.855469C-159.287323,360.390625,-159.191681,362.939301,-158.8125,365.453125C-158.444427,367.854004,-157.728577,370.188324,-156.6875,372.382813C-155.970764,373.802765,-155.065399,375.119385,-153.996094,376.296875C-153.36087,376.987305,-152.74736,377.697235,-152.15625,378.425781C-150.945541,379.934204,-150.026169,381.65506,-149.445313,383.5C-148.314972,387.104279,-147.799942,390.873047,-147.921875,394.648438C-148.010406,397.087463,-148.255707,399.51825,-148.65625,401.925781C-148.835083,402.942322,-148.949875,403.969055,-149,405L-150,437C-149.230988,434.84079,-148.380127,432.71167,-147.449219,430.617188C-145.210419,425.51593,-143.109344,420.355103,-141.148438,415.140625C-137.521927,405.403107,-134.740768,395.371063,-132.835938,385.15625C-132.374527,382.981903,-131.867874,380.817261,-131.316406,378.664063C-131.029007,377.542877,-130.826645,376.401642,-130.710938,375.25C-130.576096,373.441467,-130.738403,371.62326,-131.191406,369.867188C-131.497986,368.540894,-131.894745,367.237122,-132.378906,365.964844C-133.026093,364.419617,-133.917786,362.988617,-135.019531,361.726563C-136.088806,360.524689,-137.252686,359.410461,-138.5,358.394531C-139.036819,357.970917,-139.538513,357.504639,-140,357C-140.177994,356.445587,-140.410965,355.910492,-140.695313,355.402344C-141.235687,354.382782,-141.742462,353.345795,-142.214844,352.292969C-142.521133,351.624512,-142.750656,350.923401,-142.898438,350.203125C-143.009521,349.744873,-142.999161,349.265167,-142.867188,348.8125C-142.726364,348.41745,-142.403305,348.115082,-142,348C-139.550354,347.269257,-137.038391,346.767151,-134.496094,346.5C-130.618912,346.031372,-126.701691,345.99469,-122.816406,346.390625C-121.14682,346.562073,-119.500587,346.913116,-117.90625,347.4375C-117.042816,347.719208,-116.22348,348.121826,-115.472656,348.632813C-115.307724,348.745392,-115.149719,348.867859,-115,349L-111,352L-107,361L-112,387L-109,394L-112,404L-117,414C-117.624557,417.024048,-118.152145,420.067139,-118.582031,423.125C-119.276489,428.037109,-119.99646,432.99939,-120.726563,437.90625C-121.083168,440.282349,-121.507881,442.648193,-122,445C-121.55674,444.646942,-121.023804,444.424988,-120.460938,444.359375C-119.57637,444.250885,-118.680992,444.266724,-117.800781,444.40625C-116.21505,444.643463,-114.648514,444.994629,-113.113281,445.457031C-111.511696,445.948151,-109.900307,446.438263,-108.296875,446.921875C-107.805573,447.07135,-107.322021,447.24469,-106.847656,447.441406C-103.360657,448.892822,-99.933289,450.327881,-96.453125,451.792969C-87.247711,455.618286,-77.809601,458.857819,-68.195313,461.492188C-63.198204,462.791687,-58.129677,463.799927,-53.015625,464.511719C-52.006844,464.652039,-51.001537,464.814819,-50,465L-27.632813,469.667969L-26.582031,469.292969C-26.389427,468.694611,-26.030355,468.163422,-25.546875,467.761719C-24.690475,467.035461,-23.758049,466.404236,-22.765625,465.878906C-21.946198,465.559998,-21.083971,465.365204,-20.207031,465.300781C-18.017664,465.118958,-15.818198,465.091553,-13.625,465.21875C-9.180479,465.443481,-4.745958,465.83963,-0.332031,466.40625C5.368279,467.07962,11.045998,467.924957,16.695313,468.941406L17,469L21,455C22.481323,452.988342,23.927155,450.94986,25.335938,448.886719C29.365959,443.13269,33.920494,437.764801,38.941406,432.851563C40.544914,431.31543,42.218636,429.854218,43.957031,428.472656C45.745682,427.08194,47.486229,425.630615,49.175781,424.121094C52.053398,421.4599,54.733627,418.592987,57.195313,415.542969C59.686443,412.343414,61.635525,408.756683,62.964844,404.925781C63.364151,403.769653,63.78479,402.621033,64.226563,401.480469C64.428078,400.959595,64.687614,400.462952,65,400C64.801544,399.269073,64.673393,398.520905,64.617188,397.765625C64.442871,395.694458,64.288086,393.624786,64.152344,391.550781C63.955318,388.613922,63.548023,385.695007,62.933594,382.816406C62.543526,381.021606,61.970184,379.271454,61.222656,377.59375C60.471107,375.860962,59.385292,374.293243,58.027344,372.980469C57.385761,372.368164,56.659657,371.851166,55.871094,371.445313C55.736458,371.40094,55.592926,371.390533,55.453125,371.414063C55.062881,371.491425,54.68898,371.635468,54.347656,371.839844C54.237602,371.90506,54.121147,371.958923,54,372C53.390911,371.805084,52.764297,371.670258,52.128906,371.597656C50.518772,371.39743,48.911289,371.18399,47.304688,370.957031C45.353294,370.675354,43.431438,370.217773,41.5625,369.589844C40.14843,369.113159,38.808495,368.439911,37.582031,367.589844C36.464912,366.818237,35.517193,365.82663,34.796875,364.675781C34.254543,363.729431,33.993084,362.648193,34.042969,361.558594C34.080582,360.562775,34.255394,359.576935,34.5625,358.628906C34.945152,357.435211,35.388435,356.26181,35.890625,355.113281C36.065296,354.690186,36.235676,354.266174,36.402344,353.839844L63,353L72.085938,353.585938C71.805794,354.079895,71.601639,354.61319,71.480469,355.167969C70.989365,357.042603,70.832047,358.98877,71.015625,360.917969C71.11409,362.029694,71.47567,363.102386,72.070313,364.046875C75.060974,369.308472,78.003601,374.587646,80.90625,379.898438C84.7771,386.96106,88.704346,393.997559,92.683594,401C94.174561,403.642181,95.72467,406.251343,97.332031,408.824219L97.558594,409.171875C98.326874,407.671448,99.155685,406.202789,100.042969,404.769531C102.333527,401.015259,104.45166,397.158264,106.390625,393.210938C108.785316,388.284058,110.768639,383.167694,112.320313,377.914063C112.631248,376.905945,112.823959,375.865112,112.894531,374.8125C112.922501,373.976105,112.73996,373.145721,112.363281,372.398438C111.801224,371.326111,111.291504,370.227203,110.835938,369.105469C110.299339,367.445862,109.421112,365.916809,108.257813,364.617188C107.326996,363.627594,106.263458,362.77182,105.097656,362.074219C103.988701,361.42395,102.872948,360.786011,101.75,360.160156C101.215714,359.849731,100.694443,359.517426,100.1875,359.164063C99.167191,358.468018,98.297096,357.573944,97.628906,356.535156C96.644592,354.902771,96.190338,353.006683,96.328125,351.105469C96.450073,350.21521,96.789566,349.368561,97.316406,348.640625C97.89624,347.82785,98.493942,347.02832,99.109375,346.242188C99.453804,345.759277,99.800392,345.277161,100.148438,344.796875C100.408195,344.506561,100.692993,344.239777,101,344L115,342L126,343z"/>
    <path transform="matrix(-1,0,0,-1,5,3)" style="stroke:#ff0000;stroke-width:0.05mm;fill:none" d="M-222.699219,614.453125C-223.739731,614.540588,-224.760666,614.786926,-225.726563,615.183594C-226.771591,615.613525,-227.805695,616.069458,-228.828125,616.550781C-229.32338,616.772705,-229.838669,616.947083,-230.367188,617.070313C-230.496948,617.130188,-230.620728,617.202393,-230.734375,617.289063C-231.191742,617.538818,-231.670074,617.748169,-232.164063,617.914063C-233.491592,618.376709,-234.804535,618.879578,-236.101563,619.421875C-237.063293,619.822327,-237.990952,620.300415,-238.875,620.851563C-239.831665,621.437378,-240.71312,622.138,-241.5,622.9375C-242.791504,624.291199,-243.656906,625.994507,-243.988281,627.835938L-244.140625,628.753906L-244.140625,628.773438C-244.234543,629.401184,-244.323135,630.030823,-244.40625,630.660156L-244.40625,630.679688L-244.515625,631.632813L-244.519531,631.648438L-244.707031,633.574219L-244.707031,633.597656C-245.044525,638.204102,-246.34024,644.987854,-246.234375,649.605469C-246.181213,651.823486,-246.161682,654.043274,-246.175781,656.261719C-246.130768,656.766418,-245.709778,657.153809,-245.203125,657.164063C-244.724213,657.180481,-244.303955,656.847412,-244.203125,656.378906C-244.172623,656.189148,-244.16153,655.996765,-244.167969,655.804688C-244.165344,653.184875,-244.19397,650.568298,-244.253906,647.949219C-244.322113,643.46991,-242.980774,636.825989,-242.589844,632.363281C-242.440781,630.794434,-242.213928,629.233826,-241.910156,627.6875C-241.55838,626.255554,-240.783783,624.962646,-239.6875,623.976563C-238.970428,623.296326,-238.168121,622.712219,-237.300781,622.238281C-235.635574,621.341736,-233.889481,620.604248,-232.085938,620.035156C-231.294205,619.761902,-230.523834,619.430359,-229.78125,619.042969L-229.539063,618.921875C-228.613525,618.643066,-227.714188,618.283813,-226.851563,617.847656C-225.852509,617.354919,-224.812042,616.950989,-223.742188,616.640625C-223.255554,616.515747,-222.75621,616.447144,-222.253906,616.4375C-221.338303,616.448975,-220.453949,616.773804,-219.75,617.359375C-218.93251,617.982727,-218.266571,618.782776,-217.800781,619.699219C-217.254303,620.695618,-216.833069,621.755676,-216.546875,622.855469C-216.069321,624.715515,-215.723495,626.606995,-215.511719,628.515625C-215.402863,629.385315,-215.241074,630.24762,-215.027344,631.097656C-214.941696,631.6698,-214.409454,632.064575,-213.835938,631.988281C-213.295837,631.900269,-212.928146,631.392395,-213.011719,630.851563L-213.023438,630.789063C-213.071381,630.615967,-213.12326,630.44397,-213.179688,630.273438C-213.419037,629.045654,-213.610657,627.809082,-213.753906,626.566406C-213.989044,624.961731,-214.326935,623.37384,-214.765625,621.8125C-215.217239,620.260864,-215.921936,618.794495,-216.851563,617.472656C-217.620422,616.426819,-218.624039,615.576294,-219.78125,614.988281C-220.692017,614.563049,-221.696793,614.379211,-222.699219,614.453125z"/>
    <path transform="matrix(-1,0,0,-1,5,3)" style="stroke:#ff0000;stroke-width:0.05mm;fill:none" d="M13.136719,478.132813C12.852731,478.163422,12.595351,478.314178,12.429688,478.546875L3.1875,491.417969C3.048157,491.609894,2.98291,491.845795,3.003906,492.082031L5.003906,516.082031C5.044456,516.561768,5.419672,516.945129,5.898438,516.996094C6.440292,517.050293,6.926087,516.661621,6.992188,516.121094L6.996094,515.917969L5.027344,492.285156L14.054688,479.710938C14.350485,479.299713,14.29168,478.732574,13.917969,478.390625C13.705795,478.197968,13.42191,478.104462,13.136719,478.132813z"/>
    <path transform="matrix(-1,0,0,-1,5,3)" style="stroke:#ff0000;stroke-width:0.05mm;fill:none" d="M-114.242188,457.03125C-114.614357,457.121765,-114.901787,457.418121,-114.980469,457.792969L-118.980469,476.792969C-118.996834,476.888367,-119.001732,476.985382,-118.996094,477.082031L-116.996094,501.082031C-116.956551,501.582092,-116.551743,501.974365,-116.050781,502C-115.521263,502.0289,-115.062553,501.636841,-115.007813,501.109375L-115.003906,500.917969L-116.992188,477.070313L-113.019531,458.207031C-112.920212,457.715179,-113.195976,457.225006,-113.667969,457.054688C-113.853058,456.990784,-114.052788,456.981506,-114.242188,457.03125z"/>
</svg>
