<?xml version="1.0" encoding="UTF-8"?>
<svg xmlns="http://www.w3.org/2000/svg" width="326.311mm" height="590.000mm" viewBox="-924.404297 -774.342651 326.311401 589.999756">
    <path transform="matrix(-2.28499,0,0,-2.28499,1402.777588,990.195557)" style="stroke:#000000;stroke-width:0.05mm;fill:none" d="M896.875,597.347656C895.640991,597.435974,894.41803,597.632996,893.21875,597.9375C892.601013,598.073975,892,598.278992,891.425781,598.546875C891.22998,598.64502,891.041992,598.757996,890.871094,598.894531L890.675781,599.082031L890.539063,599.277344L890.457031,599.480469L890.433594,599.691406C890.450012,599.846008,890.484009,599.999023,890.550781,600.140625C890.637024,600.320984,890.757019,600.482971,890.894531,600.628906C891.13501,600.908997,891.424011,601.143982,891.75,601.316406L891.914063,601.386719L892.085938,601.4375L892.273438,601.472656C892.814026,601.525024,893.359009,601.489014,893.890625,601.375C894.677979,601.213989,895.468994,601.067993,896.261719,600.9375C897.697021,600.715027,899.164978,601.013,900.402344,601.773438C900.65802,601.909973,900.893005,602.083984,901.101563,602.285156C901.567017,602.765015,901.935974,603.328003,902.203125,603.941406C902.515991,604.68103,902.867004,605.405029,903.253906,606.109375C903.598999,606.739014,904.177979,607.205994,904.863281,607.421875C905.575989,607.638,906.304993,607.794006,907.042969,607.890625C907.830017,607.992981,908.598022,608.205017,909.328125,608.515625C910.150024,608.883972,910.85199,609.474976,911.359375,610.21875C911.669983,610.690979,911.984009,611.164001,912.300781,611.632813C912.788025,612.281982,913.411011,612.820007,914.128906,613.199219C915.830994,614.143005,917.229004,615.552002,918.160156,617.261719C918.518982,617.945984,918.890015,618.622986,919.273438,619.292969C919.789978,620.075012,920.445007,620.755005,921.207031,621.300781C922.297974,622.179016,923.434998,622.997986,924.613281,623.753906C925.372986,624.242004,926.208984,624.603027,927.085938,624.820313C928.067993,625.065979,929.008972,625.450012,929.882813,625.960938C930.729004,626.554016,931.450012,627.307983,932.003906,628.179688C932.598999,629.036011,932.93103,630.047974,932.953125,631.089844C932.929016,631.473022,932.898987,631.856018,932.863281,632.238281L932.867188,632.496094C932.882996,632.648987,932.90802,632.799988,932.941406,632.949219L933.011719,633.148438L933.109375,633.328125C933.27301,633.580994,933.497986,633.791016,933.765625,633.929688C934.346008,634.218018,934.960022,634.432983,935.59375,634.566406C936.757996,634.859009,937.773987,635.567993,938.453125,636.558594C938.710999,636.942017,938.992981,637.307983,939.296875,637.65625C939.822998,638.200012,940.437988,638.64801,941.117188,638.980469C941.538025,639.179993,941.937012,639.421997,942.308594,639.703125C942.450989,639.820007,942.583984,639.948975,942.703125,640.089844C942.80603,640.231995,942.900024,640.380981,942.984375,640.535156L943.089844,640.792969C943.250977,641.369019,943.328003,641.965027,943.3125,642.5625C943.288025,643.367004,943.284973,644.171997,943.300781,644.976563C943.302979,645.525024,943.437012,646.065002,943.699219,646.546875C943.856995,646.812988,944.062012,647.049011,944.300781,647.246094C944.880981,647.702026,945.504028,648.101013,946.160156,648.4375C947.395996,649.078003,948.510986,649.929016,949.457031,650.949219C950.171997,651.765991,950.78302,652.66803,951.273438,653.636719C951.999023,654.994995,952.833984,656.29303,953.769531,657.515625C954.296997,658.218018,954.713989,658.997986,955,659.828125C955.239014,660.940979,955.560974,662.033997,955.964844,663.097656C956.239014,663.718994,956.549011,664.323975,956.890625,664.910156C957.304993,665.742981,957.544983,666.653015,957.59375,667.582031C957.638,668.379028,957.723999,669.172974,957.851563,669.960938C957.908997,670.325989,958.034973,670.677002,958.222656,670.996094C958.304993,671.107971,958.39502,671.213989,958.5,671.304688C958.61499,671.382019,958.734009,671.453979,958.863281,671.503906C959.010986,671.549988,959.161987,671.588013,959.316406,671.609375C960.039001,671.705994,960.77301,671.593018,961.4375,671.292969L961.582031,671.207031C961.713013,671.125,961.825012,671.015991,961.921875,670.894531L962.035156,670.707031L962.101563,670.476563C962.109985,670.383972,962.122009,670.291992,962.121094,670.199219C962.057007,669.560974,961.893982,668.937012,961.640625,668.347656C960.883972,666.471985,960.062012,664.622986,959.175781,662.804688C958.106018,660.614014,957.085022,658.400024,956.113281,656.164063C955.755005,655.280029,955.320007,654.429016,954.8125,653.621094C953.895996,652.067993,952.859985,650.588013,951.714844,649.195313C951.322021,648.757996,950.883972,648.362,950.40625,648.019531C949.939026,647.677979,949.466003,647.343018,948.988281,647.015625C948.328979,646.567017,947.796997,645.955017,947.457031,645.234375L947.347656,644.972656C947.278992,644.789978,947.231995,644.599976,947.1875,644.410156C947.088989,643.880005,947.04303,643.340027,947.054688,642.800781C947,641.263977,946.252014,639.835022,945.023438,638.910156C943.633972,637.820984,942.382019,636.56897,941.292969,635.179688C940.677002,634.458008,939.926025,633.864014,939.082031,633.429688C938.494995,633.164001,937.932007,632.848999,937.398438,632.488281C936.661011,631.963013,936.138,631.187988,935.921875,630.308594C935.767029,629.703003,935.629028,629.093994,935.507813,628.480469C935.362,627.846008,935.151978,627.228027,934.878906,626.636719C934.583008,626.103027,934.210022,625.614014,933.769531,625.191406C933.158997,624.573975,932.445007,624.067993,931.660156,623.695313L931.390625,623.582031C928.187012,622.60199,925.263,620.869019,922.867188,618.527344C922.004028,617.655029,921.215027,616.710999,920.507813,615.707031C919.122009,614.023987,917.658997,612.405029,916.125,610.855469C914.687988,609.335022,913.192017,607.872009,911.640625,606.46875C911.357971,606.208984,911.057007,605.969971,910.742188,605.75C909.981995,605.346985,909.156982,605.080994,908.304688,604.964844C907.482971,604.856995,906.682007,604.625977,905.929688,604.277344L905.628906,604.109375C905.033997,603.731995,904.539978,603.216003,904.183594,602.609375C903.81897,601.971985,903.47998,601.320984,903.167969,600.65625C902.908997,600.083984,902.551025,599.562988,902.113281,599.113281C901.669983,598.718994,901.153015,598.416016,900.59375,598.21875C899.804016,597.882019,898.984009,597.622009,898.144531,597.441406C897.726013,597.36499,897.299988,597.330994,896.875,597.347656z"/>
    <path transform="matrix(-2.28499,0,0,-2.28499,1402.777588,990.195557)" style="stroke:#000000;stroke-width:0.05mm;fill:none" d="M941.269531,514.902344C941.202026,515.413025,941.059998,515.909973,940.847656,516.378906C940.398987,517.458008,939.903992,518.518005,939.363281,519.554688C938.890991,520.461975,938.478027,521.398987,938.125,522.359375L938.101563,522.453125C938.098022,522.661987,938.036987,522.86499,937.933594,523.046875C937.872986,523.09198,937.815979,523.142029,937.777344,523.207031C937.656006,523.47998,937.590027,523.775024,937.585938,524.074219C937.515015,524.669983,937.578979,525.273987,937.777344,525.839844C937.822998,525.947021,937.877991,526.049988,937.941406,526.148438C938.184998,526.533997,938.619019,526.758972,939.074219,526.730469L939.210938,526.761719C939.742981,526.934998,940.254028,527.166992,940.734375,527.453125C941.005005,527.61499,941.302002,527.72699,941.613281,527.777344C942.328979,528.031006,943.028015,528.33197,943.703125,528.679688C945.164001,529.403992,946.625,530.117004,948.09375,530.824219C948.390015,530.974976,948.695007,531.106018,949.007813,531.21875L949.046875,531.199219L949.082031,531.144531C949.174988,530.939026,949.213989,530.713013,949.199219,530.488281C949.184021,530.14801,949.226013,529.807983,949.320313,529.480469L949.367188,529.367188L949.417969,529.285156L949.496094,529.207031C949.515991,529.171997,949.533997,529.135986,949.546875,529.097656C949.671021,528.578003,949.734009,528.046021,949.730469,527.511719C949.700989,526.744019,949.755005,525.974976,949.894531,525.21875C949.916992,525.153015,949.939026,525.088013,949.972656,525.027344C949.999023,525,950.026001,524.973999,950.050781,524.945313L950.101563,524.847656C950.22998,524.390015,950.286987,523.916016,950.269531,523.441406C950.268982,523.088013,950.336975,522.737,950.472656,522.410156C950.650024,522.258972,950.754028,522.041016,950.769531,521.808594C950.791016,521.651978,950.799011,521.494019,950.796875,521.335938C950.810974,521.26001,950.83197,521.185974,950.867188,521.117188C950.906982,521.08197,950.950989,521.052979,950.992188,521.019531C951.320984,520.924988,951.663025,520.883972,952.003906,520.90625C952.939026,520.927002,953.874023,520.893005,954.804688,520.804688C954.963989,520.789978,955.120972,520.763,955.273438,520.714844L955.34375,520.6875C955.41803,520.627014,955.51001,520.596008,955.605469,520.589844C957.007019,520.492004,958.411011,520.440979,959.816406,520.4375C963.304993,520.39502,966.791992,520.372986,970.28125,520.371094L988.917969,520.371094C988.893005,520.844971,988.85498,521.317993,988.804688,521.789063C988.784973,522.088989,988.679016,522.375,988.507813,522.621094L988.363281,522.765625C987.789001,523.228027,987.086975,523.504028,986.351563,523.554688C986.242981,523.578003,986.135986,523.612976,986.035156,523.660156L985.953125,523.707031C985.914978,523.73999,985.877991,523.771973,985.84375,523.808594L985.792969,523.863281L985.710938,523.914063C985.41803,524.036011,985.10199,524.088013,984.785156,524.074219C984.51001,524.065979,984.234009,524.104004,983.972656,524.191406C983.906982,524.218018,983.843994,524.250977,983.78125,524.285156C983.744995,524.322021,983.710022,524.359985,983.667969,524.390625C983.271973,524.539001,982.85199,524.607971,982.429688,524.597656C981.857971,524.572021,981.286011,524.627991,980.730469,524.765625L980.617188,524.816406C980.572998,524.85199,980.531982,524.885986,980.488281,524.921875C980.02002,525.064026,979.531982,525.133972,979.042969,525.128906C978.372986,525.098999,977.703003,525.155029,977.046875,525.292969C976.947021,525.317017,976.861023,525.375977,976.789063,525.449219L976.675781,525.5C976.117981,525.632996,975.544983,525.689026,974.972656,525.667969C974.593994,525.671021,974.21698,525.723022,973.851563,525.824219C973.789978,525.853027,973.731018,525.885986,973.675781,525.925781C973.620972,526.02002,973.528015,526.088013,973.421875,526.113281L973.234375,526.171875C972.718994,526.200012,972.21698,526.346985,971.765625,526.597656C971.382019,526.770996,971.028992,527.004028,970.71875,527.289063C970.599976,527.432983,970.46698,527.565002,970.308594,527.664063L970.140625,527.746094C970.060974,527.754028,969.984985,527.778015,969.910156,527.804688C969.86499,527.828003,969.820007,527.85199,969.777344,527.878906C968.932007,528.507996,968.174011,529.245972,967.523438,530.074219L967.441406,530.207031C967.268982,530.554993,967.187988,530.940002,967.199219,531.328125C967.156982,531.984985,967.210022,532.643982,967.355469,533.285156C967.375977,533.35199,967.409973,533.414001,967.457031,533.464844C967.546997,533.544983,967.607971,533.651001,967.644531,533.765625C967.697021,534.013,967.731995,534.263,967.746094,534.515625C967.767029,534.664978,967.814026,534.809021,967.886719,534.941406C967.932007,535,967.984009,535.052002,968.042969,535.097656C968.078003,535.146973,968.107971,535.200012,968.136719,535.253906C968.231018,535.528015,968.276978,535.815979,968.273438,536.105469C968.296997,536.281006,968.361023,536.450012,968.464844,536.59375C968.513,536.650024,968.567017,536.702026,968.621094,536.753906L968.664063,536.839844C968.705994,536.948975,968.734985,537.062012,968.761719,537.175781L968.800781,537.691406C968.80603,537.872009,968.874023,538.046997,968.992188,538.183594C969.031006,538.210999,969.062012,538.245972,969.097656,538.277344C969.140015,538.336975,969.16803,538.405029,969.195313,538.472656C969.29303,538.856995,969.336975,539.252014,969.332031,539.648438C969.353027,539.802002,969.382019,539.953003,969.425781,540.101563C969.453979,540.16803,969.487,540.231018,969.523438,540.292969C969.559021,540.328979,969.593994,540.366028,969.628906,540.402344L969.679688,540.5C969.716003,540.598022,969.737976,540.698975,969.761719,540.800781C969.783997,540.934998,969.802979,541.06897,969.820313,541.203125C969.817017,541.583984,969.838989,541.966003,969.886719,542.34375C969.916016,542.51001,969.948975,542.674988,970,542.835938C970.041992,542.900024,970.085022,542.963013,970.132813,543.023438L970.160156,543.085938L970.1875,543.179688C970.315979,544.028015,970.375,544.88501,970.363281,545.742188C970.34198,546.908997,970.380981,548.075989,970.480469,549.238281C970.505981,549.38501,970.528015,549.531982,970.550781,549.679688C970.575989,549.742981,970.601013,549.80603,970.632813,549.867188L970.6875,549.925781C970.757019,550.046021,970.799988,550.179016,970.820313,550.316406C970.890991,550.697021,970.91803,551.085022,970.90625,551.472656C970.914978,551.804016,971.002014,552.127014,971.160156,552.417969L971.296875,552.617188C971.52301,552.872986,971.757996,553.122009,972,553.363281C972.158997,553.536011,972.299011,553.724976,972.421875,553.925781L972.46875,554.027344C972.479004,554.11499,972.51001,554.197998,972.546875,554.277344C972.750977,554.60199,973.000977,554.893982,973.277344,555.160156C973.484985,555.351013,973.674988,555.559998,973.839844,555.789063C973.981995,555.958008,974.070984,556.164001,974.105469,556.382813L974.191406,556.554688C974.258972,556.684021,974.359009,556.791992,974.472656,556.882813C974.541016,556.947998,974.603027,557.018982,974.664063,557.089844C975.002991,557.552002,975.286987,558.051025,975.511719,558.578125C975.757019,559.031006,976.031982,559.46698,976.335938,559.882813C977.609009,562.138977,978.768982,564.45697,979.8125,566.828125C979.882996,567.062012,979.953979,567.294983,980.027344,567.527344C980.327026,568.205994,980.650024,568.874023,980.996094,569.53125C981.184021,569.901978,981.34198,570.286987,981.464844,570.683594C981.484009,570.903992,981.546021,571.117981,981.636719,571.320313C981.81897,571.718018,982.010986,572.109985,982.214844,572.496094C982.336975,572.741028,982.429993,573,982.496094,573.265625C982.523987,573.424988,982.546997,573.585022,982.558594,573.746094L982.617188,573.941406L982.699219,574.105469C982.773987,574.171997,982.841003,574.244995,982.90625,574.320313L982.949219,574.40625C982.98999,574.515991,983.017029,574.629028,983.046875,574.742188C983.057007,574.914001,983.070984,575.085999,983.089844,575.257813C983.112,575.372009,983.145996,575.484009,983.183594,575.59375C983.213989,575.645996,983.242981,575.698975,983.277344,575.75C983.314026,575.780029,983.349976,575.809998,983.386719,575.839844C983.500977,575.979004,983.564026,576.151978,983.574219,576.332031C983.575989,576.585022,983.609009,576.838013,983.675781,577.082031C983.698975,577.145996,983.729004,577.208008,983.757813,577.269531C983.791016,577.307983,983.823975,577.346008,983.859375,577.382813C983.893005,577.422974,983.926025,577.461975,983.964844,577.496094C983.992004,577.557983,984.020996,577.620972,984.046875,577.683594C984.117004,577.927002,984.146973,578.179993,984.144531,578.433594L984.203125,578.667969C984.226013,578.732971,984.258972,578.794006,984.289063,578.855469C984.333984,578.914978,984.388,578.963989,984.441406,579.015625C984.47699,579.065002,984.510986,579.11499,984.539063,579.167969L984.578125,579.269531C984.630981,579.517029,984.663025,579.767029,984.675781,580.019531L984.730469,580.253906C984.75,580.320007,984.781982,580.382019,984.816406,580.441406C984.88501,580.517029,984.952026,580.593994,985.023438,580.667969L985.066406,580.753906C985.10498,580.86499,985.138,580.979004,985.164063,581.09375L985.203125,581.609375L985.261719,581.84375L985.300781,581.945313C985.325989,582,985.362,582.047974,985.394531,582.097656C985.43103,582.125977,985.463989,582.15802,985.5,582.1875C985.544006,582.273987,985.590027,582.359985,985.636719,582.445313C985.697998,582.690979,985.724976,582.942993,985.734375,583.195313L985.789063,583.429688C985.814026,583.494019,985.843018,583.55603,985.875,583.617188C985.919006,583.679016,985.973022,583.732971,986.03125,583.78125L986.078125,583.863281C986.151001,584.044983,986.197998,584.236023,986.222656,584.429688L986.261719,585.148438C986.283997,585.302002,986.317017,585.453003,986.359375,585.601563L986.402344,585.714844C986.434998,585.760986,986.468018,585.807007,986.507813,585.847656C986.544983,585.888977,986.578003,585.934021,986.609375,585.980469C986.69397,586.15802,986.741028,586.351013,986.75,586.546875C986.747009,586.895996,986.778992,587.244019,986.847656,587.585938L986.886719,587.71875C986.921997,587.781982,986.953979,587.848022,986.984375,587.914063C987.018982,587.947998,987.054016,587.981995,987.089844,588.015625L987.136719,588.097656C987.171021,588.177979,987.197021,588.260986,987.222656,588.34375C987.281982,588.687012,987.312988,589.033997,987.320313,589.382813L987.378906,589.703125C987.398987,589.786011,987.43103,589.86499,987.460938,589.945313L987.511719,590.027344L987.566406,590.078125C987.60498,590.119995,987.63501,590.169006,987.667969,590.214844C987.742981,590.393982,987.791992,590.583984,987.808594,590.777344C987.801025,591.174011,987.846985,591.56897,987.945313,591.953125C987.974976,592.018005,988.004028,592.083008,988.039063,592.144531C988.129028,592.22699,988.200989,592.325989,988.242188,592.441406L988.28125,592.574219L988.335938,592.894531C988.335022,593.242981,988.367004,593.59198,988.4375,593.933594L988.476563,594.066406L988.519531,594.179688L988.570313,594.261719C988.629028,594.325989,988.684021,594.392029,988.726563,594.46875C988.765015,594.565979,988.788025,594.666992,988.808594,594.769531C988.877014,595.208984,988.908997,595.653015,988.910156,596.097656C988.932007,596.338013,988.976013,596.575012,989.050781,596.804688C989.077026,596.861023,989.112976,596.909973,989.152344,596.957031C989.189026,597.007019,989.223022,597.059021,989.253906,597.113281C989.374023,597.48999,989.427002,597.88501,989.417969,598.28125C989.403992,598.677002,989.45697,599.072021,989.578125,599.449219C989.622986,599.525024,989.671997,599.598022,989.734375,599.660156C989.770996,599.736023,989.804016,599.814026,989.828125,599.894531C989.922974,600.310974,989.963013,600.737,989.949219,601.164063C989.96698,601.432007,989.997986,601.700012,990.0625,601.960938L990.105469,602.09375L990.15625,602.191406C990.192993,602.231018,990.229004,602.27002,990.261719,602.3125L990.3125,602.425781C990.374023,602.617004,990.411987,602.815002,990.429688,603.015625C990.461975,603.564026,990.492004,604.111023,990.519531,604.660156L990.550781,604.890625C990.567017,605.054993,990.617004,605.213989,990.6875,605.363281C990.721985,605.403992,990.757019,605.445007,990.792969,605.484375C990.935974,605.880981,991.002014,606.301025,991,606.722656C990.986023,607.239014,991.026001,607.754028,991.121094,608.261719C991.14801,608.354004,991.177002,608.445984,991.214844,608.535156C991.25,608.577026,991.286011,608.617981,991.320313,608.660156L991.371094,608.773438C991.507996,609.330017,991.562012,609.903992,991.539063,610.476563C991.547974,610.85498,991.598022,611.231995,991.695313,611.597656L991.746094,611.710938C991.780029,611.752991,991.817017,611.797974,991.851563,611.839844C991.890991,611.940979,991.924011,612.044983,991.945313,612.152344C992.04303,612.752991,992.080994,613.361023,992.066406,613.96875C992.064026,614.45697,992.132996,614.942993,992.273438,615.410156L992.328125,615.476563C992.372986,615.536011,992.401978,615.603027,992.429688,615.671875C992.549011,616.216003,992.604004,616.771973,992.589844,617.328125C992.578979,617.88501,992.633972,618.440979,992.753906,618.984375C992.780029,619.052979,992.812988,619.119019,992.855469,619.179688C992.905029,619.244019,992.940002,619.31897,992.957031,619.398438L993.003906,619.605469C993.101013,620.296021,993.140991,620.994019,993.125,621.691406C993.129028,622.224976,993.185974,622.757019,993.304688,623.277344C993.335022,623.335022,993.366028,623.392029,993.410156,623.441406C993.432983,623.47998,993.447021,623.521973,993.464844,623.5625C993.497986,623.666992,993.518005,623.773987,993.53125,623.882813L993.554688,624.023438C993.633972,624.903015,993.671997,625.784973,993.671875,626.667969C993.674988,627.151001,993.737,627.630981,993.859375,628.097656C993.88501,628.133972,993.908997,628.171997,993.941406,628.203125L993.96875,628.257813C994.098999,628.776001,994.161011,629.309021,994.15625,629.84375C994.156006,630.771973,994.190002,631.698975,994.257813,632.625C994.275024,632.820007,994.302979,633.015015,994.339844,633.207031L994.363281,633.304688C994.390015,633.357971,994.414001,633.411987,994.441406,633.464844C994.460022,633.492981,994.47998,633.520996,994.496094,633.550781C994.513977,633.609009,994.531006,633.66803,994.546875,633.726563L994.570313,633.84375C994.676025,634.594971,994.721008,635.354004,994.707031,636.113281C994.682007,636.911987,994.736023,637.711975,994.871094,638.5C994.887024,638.559021,994.901978,638.617004,994.917969,638.675781C994.942993,638.715027,994.968994,638.754028,995,638.789063C995.02002,638.84198,995.039978,638.89502,995.054688,638.949219C995.072998,639.036987,995.088013,639.125977,995.101563,639.214844C995.20697,640.205017,995.252991,641.200012,995.238281,642.195313C995.216003,643.192017,995.260986,644.189026,995.371094,645.179688C995.383972,645.338989,995.421997,645.497009,995.5,645.636719L995.53125,645.671875L995.558594,645.746094C995.677979,646.434998,995.734985,647.132996,995.734375,647.832031C995.75,649.190979,995.77002,650.546997,995.796875,651.90625C995.801025,652.567993,995.85199,653.228027,995.945313,653.882813C995.96698,653.942017,995.979004,654.002991,996,654.0625C996.018982,654.09198,996.041992,654.117004,996.058594,654.148438L996.089844,654.246094C996.211975,655.257996,996.270996,656.276978,996.265625,657.296875C996.278015,659.731995,996.304993,662.158997,996.347656,664.59375C996.353027,665.283997,996.403992,665.973022,996.5,666.65625L996.53125,666.753906C996.554016,666.791992,996.570984,666.83197,996.589844,666.871094C996.697021,667.862,996.747986,668.859009,996.746094,669.855469C996.874023,677.005005,996.861023,684.156006,996.707031,691.304688C996.702026,691.843994,996.666016,692.383972,996.589844,692.917969L996.574219,692.96875C996.560974,692.987976,996.544006,693.002991,996.53125,693.023438L996.503906,693.089844C996.385986,693.697998,996.325989,694.315002,996.324219,694.933594C996.315979,696.20697,996.291992,697.481018,996.25,698.753906C996.250977,699.27301,996.197998,699.789978,996.085938,700.296875L996.058594,700.363281C996.031982,700.396973,996.004028,700.43103,995.976563,700.464844L995.925781,700.59375C995.783997,701.25,995.728027,701.922974,995.761719,702.59375C995.758972,703.036011,995.70697,703.476013,995.605469,703.90625C995.588989,703.97998,995.552002,704.046997,995.5,704.101563C995.463989,704.158997,995.429993,704.218018,995.398438,704.277344C995.275024,704.737,995.223999,705.211975,995.238281,705.6875C995.257019,706.164001,995.203003,706.642029,995.074219,707.101563C995.047974,707.164001,995.013,707.223022,994.972656,707.277344L994.917969,707.328125C994.754028,707.637024,994.684021,707.987,994.707031,708.335938C994.716003,708.565002,994.684998,708.79303,994.628906,709.015625L994.589844,709.148438C994.565002,709.216003,994.531982,709.278015,994.496094,709.339844C994.435974,709.395996,994.385986,709.460022,994.339844,709.527344C994.257019,709.703979,994.211975,709.89502,994.199219,710.089844C994.20697,710.486023,994.161011,710.882019,994.0625,711.265625C994.03302,711.330017,993.999023,711.393005,993.96875,711.457031C993.932983,711.48999,993.895996,711.521973,993.859375,711.554688C993.828003,711.60498,993.796997,711.656982,993.765625,711.707031C993.684021,711.893982,993.642029,712.096985,993.648438,712.300781L993.628906,712.558594L993.570313,712.796875L993.53125,712.898438C993.502014,712.950989,993.473022,713.002014,993.4375,713.050781L993.382813,713.097656L993.28125,713.199219C993.223022,713.312988,993.172974,713.43103,993.140625,713.554688C993.125977,713.775024,993.093994,713.994995,993.03125,714.207031C992.864014,714.69397,992.648987,715.163025,992.386719,715.605469C992.249023,715.859985,992.140015,716.129028,992.074219,716.410156C992.046997,716.651001,991.981018,716.885986,991.878906,717.105469C991.492004,718.051025,991.002014,718.950989,990.417969,719.789063C990.362976,719.875,990.296997,719.953979,990.234375,720.035156C989.929016,720.536011,989.64801,721.051025,989.390625,721.578125C989.083984,722.109009,988.695984,722.588013,988.246094,723.003906L988.027344,723.269531C987.973022,723.341003,987.929016,723.419006,987.882813,723.496094C987.856018,723.565979,987.830994,723.635986,987.808594,723.707031C987.317993,724.344971,986.784973,724.947998,986.210938,725.511719C984.531006,727.297974,982.778015,729.013977,980.957031,730.65625C980.827026,730.767029,980.687988,730.869019,980.539063,730.953125C980.484009,730.968994,980.429016,730.987976,980.375,731.007813C980.033997,731.221985,979.726013,731.484985,979.457031,731.785156C978.906006,732.260986,978.289978,732.656006,977.625,732.953125C977.315002,733.127991,977.018005,733.322998,976.738281,733.542969C976.171997,733.96698,975.661011,734.458984,975.214844,735.007813C975.044983,735.192017,974.913025,735.406982,974.8125,735.636719L974.761719,735.800781C974.757996,735.86499,974.767029,735.927002,974.78125,735.988281C974.83197,736.05603,974.88501,736.122009,974.9375,736.1875L975.039063,736.382813L975.105469,736.585938C975.119995,736.695984,975.132019,736.807007,975.144531,736.917969C975.304993,737.513977,975.541992,738.086975,975.851563,738.621094C976.158997,739.231995,976.534973,739.807007,976.972656,740.332031C977.268982,740.591003,977.526001,740.893005,977.722656,741.234375C977.76001,741.348999,977.796997,741.465027,977.839844,741.578125L977.914063,741.699219C978.200012,742.088989,978.523987,742.448975,978.878906,742.777344C979.060974,742.97699,979.224976,743.192993,979.347656,743.433594C979.366028,743.494995,979.385986,743.554993,979.414063,743.613281C979.45697,743.679016,979.505005,743.741028,979.550781,743.804688C980.237976,744.632019,980.971008,745.419006,981.746094,746.164063C982.552979,746.935974,983.312012,747.757019,984.019531,748.621094C984.062988,748.697021,984.101013,748.776001,984.136719,748.855469C984.161011,748.900024,984.184998,748.945007,984.210938,748.988281L984.277344,749.078125C984.333984,749.151001,984.390991,749.223999,984.449219,749.296875C985.447998,750.448975,986.536987,751.518982,987.707031,752.496094C987.763977,752.531006,987.81897,752.56897,987.875,752.605469L987.933594,752.636719C987.979004,752.646973,988.018982,752.666016,988.0625,752.679688C988.109985,752.708984,988.156006,752.73999,988.203125,752.769531C988.888,753.317993,989.53302,753.914001,990.136719,754.550781C990.572998,755.017029,991.059021,755.434021,991.589844,755.789063C991.622009,755.796997,991.651001,755.812012,991.683594,755.820313C991.809998,755.846985,991.927979,755.898987,992.03125,755.976563C992.255981,756.156982,992.469971,756.349976,992.671875,756.554688C992.776001,756.640015,992.88501,756.718994,993,756.789063C993.059998,756.820984,993.124023,756.843994,993.1875,756.867188C993.262024,756.880005,993.335999,756.893982,993.410156,756.910156L993.582031,756.992188L993.753906,757.113281C993.838013,757.203003,993.922974,757.291016,994.015625,757.371094C994.801025,757.908997,995.632996,758.375,996.5,758.765625C997.054993,759.051025,997.632996,759.289001,998.226563,759.480469L998.320313,759.503906C998.549011,759.518005,998.771973,759.577026,998.972656,759.6875C999.02301,759.737976,999.072021,759.789001,999.117188,759.84375C999.169983,759.874023,999.219971,759.90802,999.273438,759.9375C999.544006,760.041992,999.835022,760.083984,1000.125,760.074219C1000.23999,760.098999,1000.349976,760.132996,1000.460876,760.171875L1000.546875,760.214844L1000.613281,760.265625C1000.650024,760.301025,1000.679993,760.335999,1000.714783,760.371094C1000.789978,760.40802,1000.869995,760.442017,1000.949219,760.464844L1001.117188,760.503906C1001.47998,760.570007,1001.849976,760.603027,1002.218811,760.589844C1002.570007,760.590027,1002.919983,760.653992,1003.25,760.792969C1003.289978,760.830017,1003.320007,760.866028,1003.363281,760.902344L1003.460876,760.949219L1003.593811,760.996094C1004.090027,761.09198,1004.590027,761.133972,1005.089783,761.132813C1005.280029,761.153992,1005.469971,761.184998,1005.660217,761.230469L1005.796875,761.273438C1005.909973,761.351013,1006.030029,761.422974,1006.148376,761.480469C1006.799988,761.617004,1007.469971,761.669983,1008.14447,761.644531C1008.590027,761.655029,1009.030029,761.705017,1009.45697,761.800781C1009.530029,761.830994,1009.590027,761.862,1009.656311,761.90625L1009.6875,761.933594C1009.73999,761.95697,1009.799988,761.971008,1009.85553,761.988281L1009.98053,762.011719C1010.849976,762.120972,1011.72998,762.171997,1012.60553,762.164063C1013.869995,762.143005,1015.130005,762.182007,1016.39447,762.28125C1016.609985,762.297974,1016.820007,762.338989,1017.027283,762.40625C1017.059998,762.432007,1017.080017,762.461975,1017.109375,762.488281L1017.179688,762.539063C1017.23999,762.567017,1017.309998,762.593994,1017.375,762.621094L1017.621094,762.679688C1017.76001,762.690979,1017.900024,762.700012,1018.039124,762.703125C1018.150024,762.713989,1018.25,762.747986,1018.35553,762.789063L1018.414124,762.835938L1018.453125,762.890625L1018.464783,762.957031C1018.460022,762.997009,1018.450012,763.036987,1018.429688,763.074219C1018.369995,763.137024,1018.309998,763.192017,1018.246094,763.246094C1017.01001,764.098999,1015.669983,764.786987,1014.253906,765.296875C1014.190002,765.314026,1014.130005,765.327026,1014.066406,765.339844C1013.849976,765.340027,1013.650024,765.401001,1013.460876,765.507813C1013.409973,765.559998,1013.359985,765.612,1013.308594,765.664063L1013.222717,765.710938C1013.140015,765.744995,1013.059998,765.77301,1012.98053,765.796875C1012.640015,765.857971,1012.289978,765.888977,1011.941406,765.894531L1011.621094,765.953125L1011.488281,765.992188C1011.419983,766.013977,1011.359985,766.051025,1011.29303,766.085938C1011.26001,766.112976,1011.23999,766.140991,1011.20697,766.167969C1011.150024,766.187988,1011.099976,766.203979,1011.04303,766.21875C1010.130005,766.35199,1009.210022,766.411011,1008.289124,766.398438C1007.099976,766.372986,1005.900024,766.406006,1004.710876,766.496094C1004.450012,766.51001,1004.190002,766.547974,1003.9375,766.613281C1003.900024,766.632996,1003.869995,766.645996,1003.835876,766.667969C1003.820007,766.679016,1003.799988,766.690002,1003.773376,766.699219C1003,766.804993,1002.219971,766.856018,1001.445313,766.855469C997.804016,766.929016,994.161011,766.95697,990.519531,766.941406C988.497986,766.937012,986.476013,766.984009,984.457031,767.082031C984.231995,767.088013,984.008972,767.116028,983.789063,767.164063C983.75,767.187988,983.716003,767.218018,983.683594,767.25C983.638,767.289001,983.583984,767.314026,983.53125,767.34375L983.429688,767.382813C983.182983,767.445007,982.929993,767.478027,982.675781,767.480469C982.562988,767.508972,982.450012,767.538025,982.339844,767.578125L982.253906,767.621094L982.1875,767.671875C982.159973,767.705017,982.125,767.744019,982.097656,767.777344C982.046997,767.812012,981.995972,767.846985,981.941406,767.875C981.83197,767.913025,981.719971,767.945007,981.605469,767.96875L981.347656,767.988281L981.089844,768.011719C980.976013,768.038025,980.864014,768.067993,980.753906,768.105469C980.702026,768.137024,980.653015,768.171021,980.601563,768.203125C980.549011,768.255005,980.495972,768.30603,980.441406,768.355469L980.355469,768.402344C980.245972,768.44397,980.133972,768.474976,980.019531,768.5L979.503906,768.539063L979.265625,768.597656C979.202026,768.622009,979.140015,768.651001,979.078125,768.679688C979.004028,768.749023,978.929993,768.817017,978.855469,768.886719C978.645996,769,978.409973,769.05603,978.171875,769.046875C977.934998,769.046021,977.703003,769.103027,977.492188,769.210938C977.450989,769.241028,977.416016,769.276978,977.378906,769.3125C977.343994,769.348999,977.307007,769.383972,977.265625,769.414063C977.132019,769.47998,976.98999,769.526001,976.84375,769.554688C976.591003,769.557983,976.338989,769.59198,976.09375,769.65625L975.992188,769.695313L975.90625,769.738281C975.848999,769.786987,975.796021,769.838989,975.746094,769.894531C975.695007,769.924988,975.646973,769.960022,975.59375,769.988281L975.492188,770.027344C975.333984,770.083008,975.166992,770.103027,975,770.105469L974.742188,770.128906C974.59198,770.146973,974.447021,770.19397,974.316406,770.269531L974.25,770.316406C974.219971,770.353027,974.190002,770.388977,974.160156,770.425781C974.075012,770.471008,973.98999,770.518005,973.902344,770.558594L973.667969,770.613281L973.410156,770.636719C973.20697,770.643982,973.005005,770.677979,972.816406,770.753906C972.763,770.781006,972.713013,770.812988,972.664063,770.847656C972.61499,770.911011,972.552002,770.960022,972.484375,771.003906L972.371094,771.046875L972.238281,771.085938C971.89502,771.146973,971.547974,771.179993,971.199219,771.1875L970.878906,771.242188C970.763977,771.270996,970.651001,771.312012,970.550781,771.375C970.517029,771.411011,970.481018,771.445984,970.445313,771.480469C970.366028,771.510986,970.286011,771.539978,970.210938,771.578125C969.794983,771.676025,969.367981,771.713989,968.941406,771.699219C968.588989,771.705017,968.241028,771.776001,967.914063,771.90625C967.872986,771.947998,967.825012,771.982971,967.773438,772.011719C967.71698,772.028992,967.661987,772.046021,967.605469,772.0625C966.104004,772.286011,964.578979,772.286011,963.078125,772.0625C963.021973,772.046021,962.966003,772.028015,962.910156,772.011719C962.827026,771.955994,962.73999,771.905029,962.652344,771.855469C962.192017,771.736023,961.71698,771.679016,961.242188,771.695313C960.767029,771.708008,960.291992,771.651001,959.832031,771.53125C959.77002,771.504028,959.710999,771.468994,959.65625,771.429688C959.622986,771.390991,959.583008,771.359009,959.542969,771.328125C959.482971,771.294983,959.419983,771.267029,959.355469,771.242188C959.107971,771.184021,958.85498,771.153015,958.601563,771.144531C958.491028,771.106995,958.377991,771.078003,958.265625,771.046875L958.179688,771.003906C958.138,770.973022,958.103027,770.934998,958.066406,770.898438C957.992004,770.827026,957.911011,770.763977,957.820313,770.714844L957.644531,770.65625C957.55603,770.646973,957.468018,770.638,957.378906,770.628906C956.788025,770.458984,956.215027,770.231018,955.667969,769.949219C954.051025,769.213989,952.486023,768.367981,950.984375,767.417969C950.716003,767.247009,950.474976,767.038025,950.257813,766.804688L950,766.59375L949.878906,766.515625L949.773438,766.453125C949.692017,766.427002,949.609009,766.406006,949.527344,766.382813C948.984985,766.034973,948.494995,765.612976,948.066406,765.132813C947.763,764.812988,947.414978,764.539001,947.039063,764.308594C946.981018,764.29303,946.924011,764.276978,946.867188,764.257813C946.39502,763.940002,945.961975,763.56897,945.570313,763.15625C944.986023,762.616028,944.453979,762.021973,943.980469,761.382813L943.945313,761.320313C943.929993,761.278015,943.916992,761.234985,943.90625,761.191406C943.893005,761.156006,943.872986,761.124023,943.855469,761.089844C943.400024,760.47699,942.887024,759.90802,942.324219,759.390625C941.953003,759.031006,941.620972,758.632996,941.328125,758.207031C941.309021,758.171021,941.291992,758.133972,941.273438,758.097656C941.242004,757.922974,941.155029,757.763977,941.035156,757.632813C940.758972,757.307007,940.469971,756.992981,940.167969,756.691406C940.007019,756.518005,939.862,756.328979,939.742188,756.125C939.718994,756.065979,939.697021,756.007019,939.679688,755.945313L939.671875,755.875C939.564026,755.594971,939.385986,755.348022,939.152344,755.160156C938.948975,754.981018,938.780029,754.765015,938.664063,754.519531L938.632813,754.433594C938.611023,754.29303,938.570007,754.156982,938.503906,754.03125C938.403992,753.901001,938.297974,753.775024,938.179688,753.660156L938.125,753.601563C938.083008,753.549011,938.044006,753.494995,938.003906,753.441406C937.513,752.671021,937.075989,751.866028,936.695313,751.035156C936.51001,750.655029,936.296997,750.288025,936.054688,749.941406C936.033997,749.919983,936.013977,749.898987,935.992188,749.878906C935.666992,749.403992,935.380005,748.903992,935.128906,748.386719C934.392029,746.934021,933.646973,745.481995,932.898438,744.035156C932.447998,743.156006,931.906006,742.328003,931.28125,741.5625C930.750977,740.940979,930.08197,740.453003,929.332031,740.128906C928.789001,739.898987,928.296997,739.564026,927.890625,739.136719C927.742981,739.002014,927.560974,738.913025,927.363281,738.882813C927.325989,738.866028,927.289978,738.846008,927.253906,738.828125C927.164001,738.786987,927.083984,738.728027,927.007813,738.664063C926.39801,738.159973,925.817017,737.622009,925.265625,737.054688C924.968994,736.760986,924.643005,736.497009,924.292969,736.269531C924.249023,736.254028,924.205017,736.23999,924.160156,736.226563C924.091003,736.184021,924.025024,736.135986,923.960938,736.085938C922.83197,735.10199,921.744019,734.072998,920.699219,733C919.674011,731.994019,918.684998,730.950989,917.734375,729.875C917.627014,729.754028,917.534973,729.622009,917.457031,729.480469L917.4375,729.40625C917.210999,729.030029,916.934998,728.684998,916.613281,728.386719C916.127991,727.961975,915.703003,727.469971,915.363281,726.921875C915.351013,726.840027,915.323975,726.763,915.300781,726.683594C915.182007,726.445007,915.013,726.234985,914.8125,726.058594C914.619019,725.872986,914.453003,725.661011,914.324219,725.425781C914.302002,725.317993,914.275024,725.210999,914.242188,725.105469L914.195313,725.007813C914.018005,724.729004,913.799011,724.47998,913.550781,724.261719L913.382813,724.039063C913.320984,723.950012,913.271973,723.853027,913.238281,723.75C913.231018,723.702026,913.221985,723.653992,913.214844,723.605469C913.14502,723.416016,913.036011,723.244019,912.902344,723.09375C912.656982,722.870972,912.437988,722.620972,912.257813,722.34375L912.210938,722.246094C912.182007,722.142029,912.156006,722.036011,912.136719,721.929688L912.046875,721.753906C911.963989,721.630981,911.867981,721.518005,911.757813,721.417969C911.482971,721.116028,911.25,720.778992,911.066406,720.414063C910.836975,719.908997,910.580994,719.41803,910.296875,718.941406C910.234985,718.838989,910.163025,718.742981,910.074219,718.664063C910.023987,718.601013,909.973999,718.538025,909.925781,718.472656L909.847656,718.34375C909.143982,717.101013,908.482971,715.835022,907.867188,714.546875C907.421021,713.60498,906.922974,712.687988,906.375,711.800781C906.288025,711.721985,906.210022,711.63501,906.136719,711.542969C905.767029,710.992981,905.481018,710.390991,905.296875,709.753906C905.291992,709.70697,905.286987,709.659973,905.28125,709.613281C904.843018,708.530029,904.35199,707.468994,903.808594,706.433594C903.04303,704.96698,902.328979,703.473999,901.667969,701.957031C901.64502,701.887024,901.619019,701.81897,901.59375,701.75C901.585999,701.700989,901.578003,701.651001,901.570313,701.601563C901.312988,700.895996,900.997986,700.213989,900.632813,699.558594C900.388977,699.094971,900.18103,698.614014,900.015625,698.117188C899.984009,697.929016,899.929993,697.744995,899.863281,697.566406C899.518005,696.788025,899.151001,696.018982,898.761719,695.261719C898.604004,694.955017,898.481995,694.630005,898.410156,694.292969L898.398438,694.203125L898.371094,694.078125C898.182983,693.564026,897.950989,693.067017,897.675781,692.59375C897.520996,692.304016,897.411011,691.992004,897.351563,691.667969C897.335022,691.539978,897.302979,691.414978,897.261719,691.292969C897.083008,690.828979,896.867981,690.379028,896.617188,689.949219C896.460022,689.659973,896.348022,689.348022,896.292969,689.023438C896.289001,688.947998,896.27002,688.875,896.253906,688.800781C896.130981,688.416992,895.966003,688.049011,895.765625,687.699219C895.528015,687.283997,895.351013,686.838013,895.246094,686.371094C895.234985,686.262024,895.223999,686.151978,895.214844,686.042969C895.190002,685.916992,895.140991,685.796997,895.074219,685.6875L894.972656,685.582031L894.917969,685.535156C894.844971,685.468994,894.796021,685.379028,894.785156,685.28125L894.726563,685.046875C894.729004,684.794006,894.695984,684.541016,894.628906,684.296875C894.596008,684.237,894.572998,684.172974,894.546875,684.109375C894.474976,684.036011,894.403992,683.961975,894.339844,683.882813L894.296875,683.796875C894.242004,683.692993,894.215027,683.578003,894.199219,683.460938C894.190979,683.20697,894.163025,682.953979,894.101563,682.707031C894.080994,682.640015,894.057983,682.575012,894.015625,682.519531C893.950012,682.44397,893.880981,682.370972,893.8125,682.296875C893.677002,682.002991,893.620972,681.679016,893.628906,681.355469L893.570313,681.121094C893.541992,681.059021,893.515991,680.995972,893.488281,680.933594C893.437988,680.877014,893.383972,680.823975,893.332031,680.769531L893.28125,680.6875C893.249023,680.606995,893.224976,680.523987,893.199219,680.441406L893.140625,680.121094C893.127991,679.880981,893.114014,679.642029,893.097656,679.402344C893.08197,679.247986,893.047974,679.098022,893.003906,678.949219C892.97699,678.882019,892.94397,678.817993,892.910156,678.753906L892.800781,678.652344C892.765015,678.590027,892.737,678.525024,892.707031,678.460938L892.667969,678.324219C892.614014,677.97998,892.580994,677.632996,892.570313,677.285156C892.554016,677.059021,892.494019,676.835999,892.378906,676.640625L892.273438,676.535156C892.234985,676.474976,892.205017,676.409973,892.179688,676.34375C892.135986,676.195007,892.10498,676.044006,892.082031,675.890625C892.085022,675.541992,892.05603,675.192993,891.984375,674.851563C891.960022,674.768005,891.932007,674.685974,891.898438,674.605469C891.869995,674.557007,891.833984,674.513977,891.796875,674.472656L891.746094,674.421875L891.695313,674.335938C891.583984,674.041016,891.526978,673.729004,891.53125,673.414063C891.544006,673.096985,891.494019,672.780029,891.371094,672.488281L891.320313,672.40625C891.283997,672.369995,891.249023,672.330994,891.214844,672.292969C891.052002,671.802002,890.984985,671.286011,891.003906,670.769531C891.010986,670.29303,890.960999,669.817017,890.84375,669.355469L890.792969,669.242188C890.755981,669.202026,890.723022,669.158997,890.6875,669.117188C890.625977,668.966003,890.580994,668.809021,890.550781,668.648438C890.48999,668.109985,890.458008,667.56897,890.453125,667.027344C890.440979,666.741028,890.396973,666.45697,890.3125,666.183594L890.261719,666.066406L890.210938,666.007813C890.187988,665.986023,890.174988,665.958984,890.15625,665.933594C890.138977,665.885986,890.122009,665.836975,890.105469,665.789063C889.971985,665.031006,889.916016,664.260986,889.941406,663.492188C889.947998,662.958984,889.88501,662.427979,889.757813,661.910156C889.732971,661.864014,889.708984,661.817993,889.679688,661.773438L889.652344,661.742188C889.625977,661.655029,889.596985,661.56897,889.574219,661.480469C889.448975,660.525024,889.395996,659.560974,889.417969,658.597656C889.432983,657.682007,889.388,656.765015,889.28125,655.855469C889.270996,655.718018,889.234009,655.583984,889.179688,655.457031C889.166016,655.437988,889.150024,655.421997,889.136719,655.402344C889.125,655.367004,889.112976,655.333008,889.105469,655.296875C888.992004,654.174988,888.937012,653.049011,888.941406,651.921875C888.840027,646.580994,888.861023,641.237976,889.003906,635.898438C889.012024,635.458984,889.051025,635.02002,889.121094,634.585938C889.130981,634.565002,889.140991,634.544006,889.152344,634.523438C889.190002,634.453979,889.211975,634.379028,889.234375,634.304688C889.36499,633.263977,889.422974,632.216003,889.410156,631.167969C889.392029,629.710999,889.432007,628.254028,889.527344,626.800781C889.538025,626.625,889.557007,626.448975,889.597656,626.277344C889.612,626.216003,889.630981,626.156982,889.652344,626.097656L889.679688,626.058594L889.753906,626C889.791992,625.94397,889.828003,625.885986,889.863281,625.828125C889.934021,625.664978,889.955994,625.484985,889.933594,625.308594C889.903015,624.875977,889.789978,624.453003,889.609375,624.058594C889.370972,623.632019,889.158997,623.190979,888.976563,622.738281C888.950012,622.646973,888.916016,622.557983,888.898438,622.464844C888.890015,622.398987,888.880981,622.335022,888.871094,622.269531C888.835022,622.148987,888.79303,622.031982,888.75,621.914063C888.465027,621.223999,888.143005,620.549988,887.785156,619.894531C887.575012,619.512024,887.411011,619.106018,887.300781,618.683594C887.085022,618.080994,886.827026,617.494019,886.53125,616.925781C885.16803,614.033997,883.721008,611.182983,882.191406,608.375C882.130005,608.271973,882.06897,608.166992,882.003906,608.066406C881.656006,607.609009,881.366028,607.111023,881.132813,606.585938C880.966003,606.197021,880.745972,605.833008,880.484375,605.5C880.374023,605.375,880.257019,605.255981,880.136719,605.140625C880.052979,605.030029,879.984009,604.909973,879.925781,604.785156C879.905029,604.68103,879.88501,604.580994,879.863281,604.476563C879.812012,604.353027,879.742981,604.237976,879.660156,604.132813C879.528015,604.018005,879.416016,603.882019,879.316406,603.738281C878.710022,602.76001,878.158997,601.747986,877.667969,600.707031C877.138,599.697998,876.666992,598.65802,876.257813,597.59375C876.229004,597.497986,876.200012,597.403015,876.1875,597.304688C876.185974,597.179993,876.158997,597.05603,876.109375,596.941406L876.027344,596.792969C875.973999,596.742004,875.921997,596.690002,875.871094,596.636719C875.752014,596.366028,875.687012,596.072998,875.679688,595.777344C875.63501,595.294006,875.655029,594.807007,875.738281,594.328125C875.838013,593.986023,876.023987,593.676025,876.28125,593.429688C876.666992,592.986023,877.14502,592.630981,877.683594,592.394531C877.776978,592.361023,877.874023,592.340027,877.972656,592.328125L878.203125,592.308594C878.39502,592.29303,878.575989,592.208008,878.703125,592.0625C878.752991,592.02002,878.809998,591.991028,878.867188,591.960938C879.713013,591.741028,880.598999,591.742981,881.445313,591.960938C881.508972,591.97998,881.564026,592.018982,881.613281,592.0625C881.658997,592.10498,881.70697,592.143982,881.765625,592.167969C882.221985,592.299988,882.697021,592.35498,883.171875,592.335938C883.526001,592.335022,883.877014,592.401978,884.203125,592.539063L884.257813,592.59375L884.3125,592.644531L884.414063,592.695313L884.546875,592.742188C884.963989,592.830994,885.390015,592.872986,885.816406,592.863281C886.169983,592.867981,886.52002,592.935974,886.847656,593.070313C886.880981,593.106018,886.916016,593.140015,886.949219,593.175781L887.015625,593.226563L887.101563,593.269531L887.203125,593.308594C887.448975,593.369995,887.700012,593.401978,887.953125,593.40625C888.098999,593.439026,888.242004,593.486023,888.378906,593.546875C888.419006,593.578979,888.45697,593.614014,888.492188,593.652344C888.525024,593.692017,888.565979,593.721985,888.605469,593.753906C888.666992,593.784973,888.729004,593.815002,888.792969,593.839844C889.039001,593.898987,889.289978,593.927002,889.542969,593.9375C889.656006,593.965027,889.768982,593.992004,889.878906,594.03125L889.964844,594.078125L890.03125,594.128906C890.062988,594.164001,890.093994,594.198975,890.125,594.234375L890.191406,594.285156C890.254028,594.312988,890.317017,594.338989,890.378906,594.367188C890.622986,594.434998,890.875977,594.461975,891.128906,594.464844L891.363281,594.523438C891.427002,594.549011,891.48999,594.575012,891.550781,594.605469C891.625977,594.674988,891.702026,594.742981,891.777344,594.8125C891.835999,594.843018,891.895996,594.867004,891.953125,594.898438C892.190979,594.948975,892.432983,594.979004,892.675781,594.996094L892.925781,595.0625C893.000977,595.091003,893.075012,595.122009,893.148438,595.15625C893.205017,595.189026,893.255981,595.22998,893.308594,595.269531C893.362976,595.307007,893.409973,595.35199,893.464844,595.390625C893.517029,595.409973,893.570007,595.422974,893.621094,595.441406L893.765625,595.429688C893.859009,595.380005,893.940002,595.310974,894.011719,595.234375L894.101563,595.058594C894.163025,594.817017,894.19397,594.56897,894.199219,594.320313C894.226013,594.20697,894.255981,594.093994,894.296875,593.984375L894.339844,593.898438C894.388977,593.838989,894.440979,593.781006,894.496094,593.726563L894.546875,593.628906C894.577026,593.528992,894.60498,593.429016,894.628906,593.328125C894.689026,592.963989,894.723022,592.596008,894.714844,592.226563L894.726563,591.996094C894.728027,591.692017,894.807007,591.392029,894.972656,591.136719L895.023438,591.085938C895.062988,591.026001,895.090027,590.958984,895.121094,590.894531L895.160156,590.761719C895.216003,590.416992,895.250977,590.067993,895.257813,589.71875C895.280029,589.565979,895.312988,589.414001,895.355469,589.265625L895.398438,589.15625C895.471985,589.062988,895.539978,588.966003,895.605469,588.867188C895.698975,588.564026,895.750977,588.25,895.761719,587.933594C895.737,587.460022,895.789978,586.986023,895.925781,586.53125L895.976563,586.433594C896.106995,586.291016,896.190002,586.112976,896.21875,585.921875C896.280029,585.47998,896.312988,585.036011,896.316406,584.589844C896.315002,584.310974,896.379028,584.036011,896.507813,583.789063C896.541992,583.75,896.577026,583.711975,896.613281,583.675781C896.770996,583.271973,896.841003,582.840027,896.824219,582.40625C896.804016,581.973999,896.874023,581.541992,897.035156,581.140625L897.140625,581.035156L897.191406,580.953125C897.307007,580.658997,897.359985,580.343994,897.351563,580.027344C897.343018,579.710999,897.398987,579.395996,897.515625,579.101563C897.560974,579.033997,897.612976,578.969971,897.671875,578.914063C897.827026,578.508972,897.896973,578.078003,897.882813,577.644531C897.869995,577.249023,897.922974,576.854004,898.042969,576.476563C898.067017,576.392029,898.125977,576.322998,898.199219,576.273438L898.25,576.1875C898.361023,575.893005,898.414978,575.580017,898.410156,575.265625C898.408997,575.036987,898.432983,574.807983,898.488281,574.585938C898.512024,574.502014,898.541016,574.419983,898.574219,574.339844L898.621094,574.257813C898.692017,574.215027,898.741028,574.14801,898.777344,574.074219C898.856995,573.89502,898.905029,573.703003,898.917969,573.507813C898.934998,573.268005,898.948975,573.028992,898.960938,572.789063C898.976013,572.63501,899.01001,572.482971,899.058594,572.335938C899.085022,572.268982,899.11499,572.203003,899.152344,572.140625C899.187012,572.106018,899.221985,572.072998,899.257813,572.039063C899.317993,571.937012,899.367981,571.828003,899.390625,571.710938C899.442993,571.487976,899.468018,571.26001,899.46875,571.03125C899.460022,570.716003,899.510986,570.400024,899.632813,570.109375L899.679688,570.023438C899.716003,569.98999,899.750977,569.955994,899.785156,569.921875L899.835938,569.839844C899.958008,569.549011,900.008972,569.234009,900,568.917969C900,568.687988,900.025024,568.458008,900.078125,568.234375C900.104004,568.067993,900.184998,567.914001,900.316406,567.808594L900.367188,567.722656C900.479004,567.427979,900.531006,567.11499,900.527344,566.800781C900.517029,566.484009,900.570984,566.169006,900.6875,565.875L900.738281,565.792969C900.77301,565.758972,900.809021,565.726013,900.84375,565.691406L900.894531,565.605469C900.97699,565.429016,901.021973,565.237,901.035156,565.042969C901.038025,564.69397,901.06897,564.346985,901.132813,564.003906C901.166016,563.86499,901.231018,563.736023,901.320313,563.625L901.375,563.574219C901.481995,563.372986,901.546021,563.153015,901.566406,562.925781L901.605469,562.207031C901.624023,562.013,901.671021,561.823975,901.746094,561.644531L901.796875,561.558594C901.830017,561.523987,901.867004,561.497009,901.902344,561.464844C901.968018,561.390991,902.013,561.302002,902.039063,561.207031C902.090027,560.960022,902.124023,560.708984,902.136719,560.457031C902.161011,560.343018,902.190002,560.231018,902.230469,560.121094L902.277344,560.035156L902.328125,559.96875C902.362976,559.937012,902.398987,559.903015,902.433594,559.871094L902.480469,559.789063C902.559021,559.609009,902.612,559.419006,902.625,559.222656L902.664063,558.503906C902.689026,558.309998,902.734985,558.119995,902.804688,557.9375L902.855469,557.855469C902.890991,557.822998,902.924988,557.789978,902.960938,557.757813C903.002014,557.713989,903.028992,557.659973,903.054688,557.605469C903.137024,557.419006,903.179016,557.216003,903.171875,557.011719C903.179993,556.809021,903.21698,556.607971,903.289063,556.417969C903.330017,556.346008,903.377014,556.276978,903.4375,556.21875L903.492188,556.171875C903.523987,556.120972,903.552979,556.06897,903.585938,556.019531L903.625,555.917969C903.679016,555.671021,903.713989,555.421021,903.722656,555.167969L903.78125,554.929688C903.802979,554.86499,903.833008,554.802979,903.863281,554.742188C903.893005,554.700989,903.927002,554.663025,903.964844,554.628906L904.019531,554.585938L904.070313,554.515625L904.113281,554.429688C904.190979,554.241028,904.22998,554.039978,904.230469,553.835938C904.226013,553.669006,904.257019,553.502991,904.308594,553.34375C904.322998,553.276001,904.359009,553.216003,904.394531,553.15625L904.441406,553.089844L904.496094,553.042969L904.597656,552.941406C904.666992,552.835999,904.710022,552.71698,904.738281,552.59375C904.780029,552.151001,904.905029,551.718994,905.109375,551.324219C905.435974,550.66803,905.744019,550.002014,906.03125,549.328125C906.351013,548.565979,906.429993,547.723999,906.25,546.917969C906.101013,546.549988,905.879028,546.21698,905.59375,545.941406C905.122986,545.507019,904.695007,545.028992,904.316406,544.511719L904.253906,544.398438C904.237976,544.353027,904.221985,544.307007,904.203125,544.261719C903.838013,543.791016,903.442017,543.344971,903.019531,542.925781C900.257996,540.007019,897.401978,537.182007,894.453125,534.453125C894.367981,534.380005,894.28302,534.307983,894.195313,534.238281C894.137024,534.200989,894.078003,534.164978,894.019531,534.128906C893.96698,534.124023,893.919983,534.104004,893.871094,534.085938C893.804016,534.052002,893.73999,534.010986,893.675781,533.972656C893.455994,533.789978,893.244019,533.598022,893.042969,533.394531C892.882996,533.22699,892.677002,533.109009,892.449219,533.070313C892.333008,533.052979,892.223999,533.007019,892.121094,532.949219C891.960999,532.843018,891.81897,532.713013,891.695313,532.566406C891.28302,532.234985,890.828003,531.960022,890.34375,531.746094C889.856018,531.538025,889.398987,531.260986,888.988281,530.925781C888.835999,530.71698,888.625,530.557007,888.386719,530.457031C888.312012,530.440979,888.236023,530.426025,888.160156,530.414063C887.877991,530.304993,887.627991,530.127014,887.433594,529.894531C887.301025,529.757996,887.158997,529.630981,887.003906,529.519531C886.862976,529.422974,886.702026,529.357971,886.53125,529.34375C886.234985,529.187988,885.976013,528.969971,885.773438,528.703125C885.31897,528.195984,884.963013,527.607971,884.71875,526.972656L884.671875,526.792969C884.63501,526.572021,884.698975,526.346985,884.84375,526.175781C885.179016,525.715027,885.646973,525.369019,886.183594,525.175781L886.316406,525.144531C886.573975,525.142029,886.828979,525.088989,887.058594,524.972656L887.125,524.921875C887.153992,524.88501,887.185974,524.849976,887.21875,524.816406L887.300781,524.765625C887.596008,524.651001,887.909973,524.596008,888.226563,524.605469C888.541992,524.61499,888.856018,524.560974,889.148438,524.441406L889.234375,524.390625C889.273987,524.349976,889.317993,524.314026,889.367188,524.285156C889.742004,524.184021,890.127991,524.127991,890.515625,524.121094C891.312012,524.086975,892.109009,524.065002,892.90625,524.054688C893.413025,524.047974,893.91803,523.992004,894.414063,523.890625L894.492188,523.863281C894.533997,523.835999,894.575989,523.810974,894.613281,523.777344C894.955994,523.677002,895.310974,523.622986,895.667969,523.613281C897.343018,523.495972,899.023987,523.515991,900.695313,523.671875C900.867004,523.682983,901.033997,523.72998,901.1875,523.808594C901.211975,523.827026,901.232971,523.848999,901.261719,523.863281C901.560974,523.960999,901.872986,524.018005,902.1875,524.03125C902.817017,524.062988,903.447998,524.083008,904.078125,524.09375C904.507996,524.094971,904.937012,524.15802,905.347656,524.285156C905.421021,524.34198,905.497009,524.395996,905.578125,524.441406L905.710938,524.488281C906.127991,524.580017,906.554016,524.620972,906.980469,524.609375C907.335022,524.60498,907.687012,524.672974,908.011719,524.816406C908.06897,524.867004,908.122986,524.921021,908.179688,524.972656C908.241028,525.002014,908.304016,525.030029,908.367188,525.054688L908.601563,525.113281C908.856995,525.107971,909.111023,525.138,909.355469,525.210938C909.445007,525.244019,909.531006,525.289001,909.609375,525.34375C909.640015,525.379028,909.669006,525.413025,909.699219,525.449219C909.844971,525.552979,910.013,525.622986,910.191406,525.640625C910.481018,525.632996,910.77002,525.68103,911.042969,525.777344C911.096008,525.80603,911.146973,525.838013,911.195313,525.875C911.22699,525.909973,911.257996,525.945007,911.289063,525.980469C911.432007,526.086975,911.599976,526.153992,911.777344,526.171875L912.292969,526.210938C912.439026,526.242004,912.58197,526.283997,912.714844,526.351563C912.807983,526.447998,912.911011,526.533997,913.027344,526.601563C913.213013,526.687988,913.416992,526.72699,913.621094,526.71875C913.789978,526.71698,913.958008,526.73999,914.117188,526.796875C914.234985,526.825012,914.338989,526.893005,914.417969,526.984375L914.460938,527.039063C914.513,527.065979,914.559998,527.101013,914.609375,527.132813C914.784973,527.216003,914.978027,527.255981,915.171875,527.25C915.346985,527.255981,915.52002,527.289978,915.6875,527.34375C915.833008,527.393982,915.966003,527.473999,916.085938,527.570313L916.179688,527.648438C916.237,527.682007,916.299988,527.702026,916.363281,527.71875L916.460938,527.703125C916.723999,527.567993,916.95697,527.380005,917.140625,527.148438L917.257813,527.011719C917.333008,526.914978,917.377991,526.799988,917.398438,526.679688L917.378906,526.589844L917.328125,526.496094C917.210999,526.377991,917.122986,526.234985,917.070313,526.078125C916.976013,525.804016,916.929993,525.515991,916.929688,525.226563C916.950989,524.890015,916.880981,524.552979,916.71875,524.257813C916.633972,524.189026,916.565002,524.10498,916.515625,524.007813C916.440002,523.81897,916.403992,523.617004,916.402344,523.414063C916.403015,523.247009,916.369995,523.083008,916.324219,522.921875C916.286011,522.807983,916.221985,522.705017,916.136719,522.621094L916.035156,522.519531C915.906982,522.327026,915.843018,522.098022,915.851563,521.867188C915.611023,521.106018,915.299988,520.369019,914.925781,519.664063C914.586975,518.929016,914.182983,518.226013,913.71875,517.5625C913.551025,517.414001,913.41803,517.229004,913.339844,517.019531C913.268982,516.833008,913.226013,516.637024,913.226563,516.4375C913.231018,516.244995,913.291992,516.059998,913.390625,515.894531C913.450989,515.815002,913.512024,515.736023,913.582031,515.664063C913.851013,515.427979,914.174988,515.263977,914.523438,515.183594C914.903992,515.112976,915.289001,515.072998,915.675781,515.058594C915.914001,515.057007,916.143982,514.960999,916.304688,514.785156C916.411011,514.752991,916.518005,514.721985,916.628906,514.707031C917.767029,514.593018,918.911011,514.541016,920.054688,514.550781C921.494995,514.585999,922.937012,514.533997,924.371094,514.394531C924.481018,514.377014,924.591003,514.35498,924.695313,514.316406L924.753906,514.269531C924.80603,514.257019,924.856995,514.237976,924.910156,514.226563C926.000977,514.106995,927.098022,514.052979,928.195313,514.0625C929.508972,514.036987,930.822021,514.023987,932.136719,514.023438L941.269531,514.023438L941.269531,514.902344z"/>
</svg>
