<?xml version="1.0" encoding="UTF-8"?>
<svg xmlns="http://www.w3.org/2000/svg" width="83.598mm" height="151.014mm" viewBox="-923.218689 -558.026978 83.597656 151.013641">
    <path transform="matrix(-0.26455,0,0,-0.26455,-767.927673,-396.235901)" style="stroke:#000000;stroke-width:0.05mm;fill:none" d="M462.4021,611.052673C438.389709,607.297729,416.745972,587.69696,400.952881,555.403625C396.944702,547.207886,394.271454,542.903564,392.923859,542.47583C389.072693,541.25354,375.062225,529.886536,367.947388,522.211914C351.078217,504.015472,334.23761,472.666107,315.457336,424.5C302.463531,391.174438,297.79718,351.1409,301.120361,301.5L302.258423,284.5L296.564209,271.5C290.387756,257.399078,286.133453,249.344269,280.409698,240.914291C275.208405,233.253769,271.001709,224.047272,271.000793,220.322586C270.999695,215.905396,274.855316,213,280.718231,213C285.723663,213,298.515411,216.04985,306.178253,219.070267C308.973236,220.171936,311.423157,220.910172,311.622559,220.71077C311.82196,220.511383,313.123627,214.757385,314.515167,207.924118C323.369965,164.442291,331.202271,134.644379,337.548279,120.294914C340.501434,113.61731,340.996155,114.659714,328.336548,100.885376C317.312378,88.890503,311.645782,83.994476,304.184509,80.017647C291.376526,73.191078,287.432281,67.280334,294.25,65.130081C300.906158,63.030785,309.695831,62,320.940674,62C332.945129,62,341.655212,63.734116,355.308075,68.842308C362.378052,71.487526,363,71.504456,363,69.05162C363,65.06514,357.831085,50.920795,355.425842,48.325493C352.107635,44.745075,353.522308,43.406239,362,42.103722C369.940704,40.883713,415.501099,40.194653,416.600037,41.277946C417.332458,41.999924,414.806091,47.632271,410.003571,55.984398C408.872986,57.950569,408,61.292393,408,63.65403C408,67.817703,408.027039,67.848129,413.25,69.560074C416.137512,70.506523,421.94519,73.001442,426.156006,75.10434L433.812012,78.927803L434.461151,72.713898C434.818207,69.296257,435.559296,64.176453,436.108093,61.336559L437.105865,56.173119L442.302917,55.453674C445.161316,55.057983,464.262512,54.678459,484.75,54.610294L522,54.486351L522,56.620731C522,57.79464,521.404785,59.249077,520.677368,59.85281C518.676208,61.51363,508.358032,63.920887,496.657654,65.45668C485.246582,66.954498,483.595978,67.570465,477.25,72.699142C471.982727,76.956039,471.938751,78.083107,476.516968,91.481979C479.385864,99.878166,480.153687,103.867432,480.683655,113.130157L481.333344,124.485397L486.740662,131.492706C497.289246,145.162537,509.178528,172.957581,516.899963,202C530.34436,252.567902,538.99585,334.402313,538.9953,411C538.994995,457.317291,535.181335,478.557892,523.345093,498.165894C517.559326,507.750641,505.29071,519.907104,496.263336,525C492.851227,526.924988,490.065857,529.174988,490.073639,530C490.130554,536.032776,497.156891,546.033691,512.470032,561.877747C525.090637,574.935974,533.936584,581.261169,544.04364,584.453979C552.85614,587.237854,571.03009,590,580.534363,590C584.090454,590,587,590.440857,587,590.979675C587,592.268799,580.869324,595.34845,574,597.510132C569.576172,598.902222,562.727905,599.378845,539,599.946106L509.5,600.651306L494.5,605.789795C478.727936,611.192749,471.195587,612.427795,462.4021,611.052673z"/>
</svg>
