<?xml version="1.0" encoding="UTF-8"?>
<svg xmlns="http://www.w3.org/2000/svg" width="220.351mm" height="203.541mm" viewBox="-864.435059 -856.516418 220.350830 203.540710">
    <path transform="matrix(-0.26455,0,0,-0.26455,-621.851929,-609.740723)" style="stroke:#000000;stroke-width:0.05mm;fill:none" d="M737,932.06488C735.625,931.645081,732.605408,930.333801,730.289856,929.150818C725.050659,926.474304,720.985901,926.436279,714.239258,929.000488C707.576355,931.532959,702.354126,931.524963,693.127625,928.96814C683.016541,926.166199,679.653992,924.248108,671,916.345642C666.875,912.578857,660.781311,907.406067,657.458496,904.850464C647.543762,897.225098,644.002869,892.730774,643.983459,887.747131C643.969116,884.045532,643.399536,882.952087,639.549438,879.234314C634.460938,874.320679,631,866.303162,631,859.428772C631,855.343994,630.677368,854.742188,627.474182,852.852234C623.343567,850.415161,622,848.268066,622,844.10437C622,841.899475,620.913574,840.001648,618,837.117065C615.799988,834.938965,614,832.43158,614,831.545105C614,830.65863,612.446655,828.379944,610.548096,826.481384C608.299438,824.232788,606.894287,821.717163,606.516968,819.264771C605.409119,812.063904,602.714661,804.452759,598.458069,796.500549C596.102722,792.100281,593.633484,785.799988,592.970886,782.5C592.308289,779.200012,590.65802,774.306885,589.303589,771.626404C587.062256,767.190613,586.901611,766.022827,587.51532,758.626404C588.12854,751.235901,587.993591,750.251221,586.024719,747.753174C584.834045,746.242432,580.853882,743.242554,577.179932,741.086853C570.424744,737.123108,567.469116,734.38324,560.60968,725.726257C556.697388,720.788696,553.065735,718.493103,543.511658,714.918457C540.011597,713.608948,535.789734,710.848145,532.188171,707.513733C525.898376,701.69043,523.00177,700.593201,511.072845,699.515198C506.987946,699.146057,498.28244,697.2854,491.727325,695.380432C485.17218,693.475464,475.887238,691.554993,471.094086,691.112732C463.406281,690.40332,461.739807,689.87793,456.952972,686.654297C451.842102,683.212402,451.06604,683,443.601227,683C439.0513,683,433.469513,682.304565,430.495667,681.367126C425.699554,679.855286,424.651672,679.856262,416.359772,681.380066C408.342041,682.853516,406.888367,682.870728,402.481201,681.544373C399.131714,680.536316,395.31192,680.240417,390.529205,680.618408C385.446472,681.020081,382.2883,680.734497,379.124268,679.586975C376.259216,678.547852,371.403015,678,365.057922,678C359.728088,678,352.759186,677.517883,349.571442,676.928589C345.266937,676.132874,341.938904,676.173706,336.637787,677.08728C326.774017,678.787231,315.311951,678.603333,310.902496,676.674377C308.257324,675.517212,294.128815,673,290.279114,673C290.128784,673,288.316956,671.504883,286.252869,669.67749C281.444,665.420105,265.210236,656.705322,263.389832,657.403931C261.29071,658.209412,261.71991,661.936218,264.31134,665.405579C265.58255,667.107544,267.219238,669.979553,267.948364,671.787964C269.116913,674.686096,269.050476,675.491089,267.38797,678.578186C265.51416,682.057617,265.51651,682.106018,267.750916,685.988342C270.545471,690.843994,270.586426,693.159302,267.920502,695.57196C266.214722,697.115662,265.951324,698.189758,266.454956,701.548279C266.946503,704.82605,266.641693,706.185791,264.926514,708.366333C262.62442,711.292969,262.700348,713.092346,265.385376,719.24054C266.933868,722.786316,266.9198,723.0802,265.115234,724.884766C264.068207,725.931824,261.251434,727.113342,258.855774,727.510376C256.460083,727.90741,253.66687,728.670227,252.648605,729.205566C250.904831,730.122314,250.948425,730.336731,253.398605,732.894165C256.521454,736.153748,256.661499,737.575623,254,739C252.899994,739.588684,252,740.954529,252,742.035156C252,743.132935,251.324188,744,250.468613,744C247.781784,744,247.498505,747.113098,250.012741,749.009583C253.391174,751.557983,253.507278,759.162476,250.244034,764.158813C248.040756,767.532288,247.966919,768.039307,249.297318,770.658813C250.090958,772.221497,251.063232,775.75,251.457932,778.5C251.852631,781.25,253.067703,784.954285,254.158081,786.73175C255.248444,788.509216,255.865555,790.408508,255.529419,790.952393C255.193283,791.496277,255.611664,793.282104,256.459137,794.920959C257.30661,796.559814,257.998322,798.260498,257.996246,798.700317C257.994202,799.140137,255.856689,800.344299,253.246246,801.376221C245.826492,804.309204,241,807.751343,241,810.109802C241,811.254639,240.071548,813.495178,238.936768,815.088806C236.44339,818.590454,236.979706,819.717957,241.546127,820.574646C246.25769,821.458496,246.784515,822.799316,243.461365,825.449097C240.080338,828.14502,240.655411,828.565735,249,829.500793C255.815613,830.264587,259,831.398743,259,833.0625C259,833.608154,256.862488,836.052246,254.25,838.493835L249.5,842.933105L252.80246,843.602051C254.882828,844.023438,257.052216,845.512939,258.664825,847.627197C260.381805,849.878296,262.587189,851.331726,265.362366,852.041077C272.573151,853.884277,272.402466,853.736816,270.566772,856.538452C268.87793,859.115967,269.188293,860.988037,271.309021,861.01532C271.96405,861.023743,273.146057,861.439453,273.935699,861.939087C275.145752,862.704773,275.15921,863.10321,274.02124,864.474426C272.852661,865.882446,272.962158,866.177368,274.835541,866.667236C277.828369,867.44989,277.542053,869.223145,274,871.841858C270.170105,874.673462,269.825195,880.120605,273.2453,883.761108L275.490601,886.151123L272.236298,888.825562C269.8862,890.756897,268.980225,892.333557,268.975677,894.5C268.966492,898.875488,267.779205,900.233643,264.649963,899.448303C262.280457,898.853577,261.819122,899.18866,260.430023,902.513245C258.953613,906.046814,258.673798,906.217957,255.185196,905.721497C253.15834,905.433044,250.770523,904.901855,249.878937,904.541016C248.258423,903.885193,245.589111,905.799377,244.731735,908.232117C244.393738,909.191223,243.502792,909.05011,241.07373,907.652893C238.050217,905.913696,237.789246,905.905945,236.608566,907.52063C235.474655,909.07135,235.039124,908.837219,232.059326,905.07489C229.776031,902.192017,228.125015,901.004211,226.683273,901.207153C224.482376,901.516907,223.587708,900.247803,220.192734,892L218.340439,887.5L216.644531,890.75C215.711792,892.537476,214.587112,894,214.145264,894C213.7034,894,212.288025,891.75,211,889C208.644897,883.971741,208.22316,883.646667,204.432236,883.937012C203.082718,884.040344,201.950119,883.185974,201.17157,881.477234C200.073425,879.067017,199.562454,878.884521,194.739334,879.179504L189.5,879.5L189.534653,875.5C189.553711,873.299988,189.9272,870.036438,190.364639,868.24762C191.099152,865.243896,190.981827,865.014526,188.829971,865.24762C186.736557,865.474365,186.468216,865.043152,186.186874,861C185.786285,855.243347,184.934296,854.465515,181.164566,856.414917C176.845444,858.648438,176,858.416809,176,855C176,851.435425,175.734665,851.382813,171.368027,854.081543L168,856.163147L168,853.437561C168,851.542053,166.88356,849.746887,164.334351,847.543274L160.668686,844.374512L162.776825,836.619202C165.151489,827.883362,164.910233,826.230713,161.139694,825.40387C159.687866,825.08551,158.083191,824.725464,157.573761,824.60376C157.064331,824.482056,156.152313,822.608948,155.547043,820.441284C154.513626,816.740173,154.192673,816.481445,150.28038,816.195313C146.263489,815.901489,146.10321,815.758179,145.807098,812.195313L145.5,808.5L139.75,808.806458C136.587494,808.975037,134,808.721619,134,808.243347C134,807.765076,135.837494,804.327148,138.083313,800.603516C140.329132,796.879883,141.886963,793.55365,141.545151,793.211792C141.203339,792.869995,139.478348,793.171143,137.711838,793.880981C131.825638,796.246216,130.618713,796.436035,131.206619,794.903931C131.505798,794.124329,134.712326,789.559509,138.33223,784.759949C141.952148,779.960388,145.370468,774.337891,145.928497,772.265503C146.486542,770.193115,148.505402,766.023071,150.414871,762.998779C154.682846,756.238892,153.896027,754.923096,147.056473,757.382568C142.802719,758.912231,141.726608,758.975037,139.37851,757.83075C135.241898,755.814941,135.398483,754.224487,139.911362,752.418762C144.850143,750.442688,150,744.835266,150,741.433838C150,738.892273,149.656235,738.641663,144.661743,737.542297C140.628815,736.654663,142.389633,734.972168,151.516266,730.99292C155.632324,729.198303,159,727.440857,159,727.087463C159,726.734131,158.244324,725.36615,157.320724,724.047546C155.70842,721.745605,155.73616,721.587219,158.016449,720.075012C159.322693,719.20874,161.315857,717.750732,162.445709,716.834961L164.5,715.169922L162.24086,712.760742C160.998322,711.43573,160.287598,710.045715,160.661469,709.671875C161.035324,709.297974,160.280411,707.862915,158.983856,706.482788C157.565704,704.973267,156.99971,703.634766,157.563248,703.12323C159.346313,701.504761,165.318176,700,169.958099,700C179.002945,700,179.992508,696.282593,172.474182,690.548096L168.8526,687.785767L171.156815,685.333069C172.842194,683.539063,174.40625,682.922424,176.980515,683.037048C183.668884,683.3349,185,683.04895,185,681.314453C185,680.38739,184.052856,678.620728,182.895233,677.388489C180.436462,674.77124,181.107986,673,184.559021,673C185.90155,673,187.002838,672.4375,187.006317,671.75C187.009796,671.0625,188.359802,669.733459,190.006317,668.796509C193.524429,666.794617,193.746826,664.737244,190.942368,660.137207C189.814789,658.28772,189.09787,656.568787,189.349213,656.317444C189.60054,656.066101,191.631866,656.79187,193.863251,657.930237C199.706131,660.911072,200.355377,660.686218,199.713974,655.904175L199.164597,651.808289L202.832306,652.457458C204.849533,652.814514,207.224777,653.318054,208.110626,653.576477C208.996475,653.8349,210.732178,653.227722,211.967758,652.227173L214.214264,650.408081L211.518234,647.204041C210.035431,645.441833,209.057312,644,209.344666,644C209.632004,644,212.162262,645.426758,214.967438,647.170532C224.937363,653.368164,235.515213,651.756104,239.462692,643.437378C242.459656,637.121765,240.380768,633.210388,231,627.515015C225.451538,624.146362,224,622.373413,224,618.965088C224,617.506165,222.479187,611.854675,220.620422,606.40625C218.761658,600.957825,216.921478,593.799988,216.531128,590.5C216.140778,587.200012,214.964737,580.900024,213.917709,576.5C211.358734,565.746277,211.489578,562.885254,215.017654,552.447754C219.703827,538.584229,220.707336,524.743469,218.644226,502.429047C216.86998,483.238983,215.819534,477.972565,212.964844,473.955627C211.970352,472.556244,209.973434,468.735779,208.527267,465.465729C205.253189,458.062469,202.624115,455.207703,198.340073,454.404022C195.233337,453.821198,195,453.505737,195,449.888702C195,446.857452,194.61412,445.996735,193.25,445.98526C187.281265,445.934967,184.043411,439.761963,184.015182,428.378906C184.000702,422.538696,183.842758,422.150055,180.57338,419.909851C178.688736,418.618469,176.326233,415.773804,175.32338,413.588379C174.31958,411.400879,172.163895,408.885101,170.527466,407.991302C168.5345,406.90274,167.336929,405.301788,166.893387,403.133118C166.009949,398.813568,165.790741,398.686707,161.343765,399.921539C155.212097,401.624146,147.911911,401.243683,144.285416,399.032501C142.51741,397.954498,139.940079,395.28125,138.558044,393.091949C136.271042,389.469086,135.616409,389.083954,131.272629,388.805725C126.676575,388.511322,126.488266,388.377899,126.182892,385.199738C125.954811,382.826019,125.210022,381.650146,123.530029,381.011414C122.245369,380.52298,120.89901,379.645599,120.538124,379.061676C120.177238,378.477753,117.488625,378,114.563431,378C108.612595,378,107.565079,377.190674,106.603928,371.850494C105.835617,367.581696,104.496193,366.249237,100.086967,365.367401C95.328857,364.415771,93.696678,361.275848,94.522858,354.66333C94.897171,351.66745,94.88559,348.214905,94.497131,346.990967C93.864456,344.997559,93.282608,344.814484,88.914497,345.234192L84.038155,345.702759L90.519081,338.832642C97.806564,331.107513,98.30426,329.208527,95.038269,321.589264C93.716179,318.504974,91.610397,315.979309,88.580025,313.843292C86.106949,312.100128,84.294891,310.331879,84.55323,309.913879C84.811569,309.49588,86.378555,308.85614,88.035423,308.492218C94.806442,307.005066,99.380005,299.779999,95.81015,296.210144C94.890358,295.290344,95.119827,294.131531,96.821205,291.10434C98.642136,287.86441,98.837982,286.704071,97.955597,284.383209C97.369011,282.840393,97.155334,280.517212,97.480759,279.220642C97.902733,277.539368,97.201591,275.679077,95.036217,272.734619C93.11573,270.123138,92,267.404694,92,265.336914C92,263.53894,91.257042,260.509857,90.348976,258.605621C88.094154,253.877213,89.835793,249.634583,95.14315,246.926971C98.444199,245.242905,99,244.483017,99,241.653992C99,239.421066,99.811295,237.586456,101.500488,235.999542C103.818336,233.822037,103.89138,233.48317,102.500488,231.360413C100.302628,228.006042,100.597839,227.204681,104.75,225.253967C109.736259,222.911392,110.116623,219.972961,106.083267,214.953995C104.387466,212.843796,103,210.825165,103,210.468124C103,208.690567,112.607651,198.889603,114.883911,198.345108C119.846878,197.157928,122.976685,194.952316,124.833122,191.33374C125.857384,189.33725,128.443283,186.516724,130.579544,185.065918C134.627441,182.316864,136.502167,179.490829,137.507904,174.621872C137.8349,173.038895,139.454346,170.3918,141.106705,168.739456C144.000076,165.846069,144.346451,165.759308,150.490326,166.388763C155.580643,166.910278,158.085205,166.621689,162.88533,164.960495C168.020584,163.183334,169.457062,163.049103,172.7005,164.043259C174.790222,164.683792,181.375183,165.543777,187.333725,165.95433C198.127625,166.698044,198.180923,166.714447,201.833725,170.415634L205.5,174.130493L199.593536,179.414627C194.48967,183.980713,193.700165,185.160843,193.783356,188.09938C193.88031,191.523041,196.81514,195.046143,203.000504,199.164032C205.49086,200.821976,205.493423,200.839935,203.703415,204.076233C201.890167,207.354553,202.512604,208.942383,205.627548,208.98468C208.269363,209.020569,209.339279,211.936737,208.121582,215.782425C207.474152,217.827087,206.844437,221.710648,206.722214,224.412552C206.50531,229.207809,206.580124,229.34642,209.855865,230.218567C213.538742,231.199112,213.516724,230.978973,210.875763,240.416153C209.786591,244.308212,209.760391,245.41922,210.75,245.749481C211.4375,245.978943,212,247.667358,212,249.501541C212,254.575363,212.892639,256,216.071808,256C219.540665,256,221.39917,258.906097,220.51239,262.943604C219.976395,265.383942,220.358978,266.058746,223.313843,267.884949C225.196075,269.048218,227.449448,270,228.32135,270C229.193253,270,230.617813,271.012512,231.487045,272.25C237.045761,280.163788,237.909409,282.149994,238.199188,287.686279C238.483887,293.12558,238.662003,293.479736,241.523651,294.296478C243.521622,294.86673,245.326538,296.513458,246.844467,299.150909C248.982269,302.865417,249.431595,303.130981,253.320816,302.978424C259.514069,302.735535,259.808258,302.820496,260.518188,305.057281C260.877319,306.188782,262.257629,307.527649,263.585571,308.032532C265.040924,308.585846,266,309.754791,266,310.97525C266,312.464661,266.656555,313,268.483154,313C270.473297,313,271.492981,314.039307,273.618866,318.234558C276.738831,324.39151,283.511902,330.900787,286.858978,330.958984C288.463654,330.986877,291.849854,333.673706,297.448914,339.361725C301.975952,343.960663,305.965393,348.467407,306.314331,349.376709C306.663269,350.286041,308.085266,351.462128,309.474365,351.990265C310.951935,352.552032,312,353.738831,312,354.85025C312,356.147736,312.921936,356.934387,314.908142,357.331635C317.133301,357.776672,318.090881,358.745392,318.985687,361.456635C319.628876,363.405487,320.581329,365,321.102295,365C321.62326,365,322.463654,366.089325,322.969849,367.420746C323.652863,369.217194,324.421509,369.702515,325.950439,369.302704C328.753662,368.569641,331,370.665527,331,374.014038C331,376.118103,331.587952,376.930756,333.447937,377.397583C335.596313,377.936798,335.932861,378.646515,336.197937,383.19693C336.484528,388.116241,336.666504,388.424805,339.75,389.219543C342.47757,389.922546,343,390.523651,343,392.959045C343,395.201294,343.508392,395.933533,345.236542,396.18045C346.924347,396.4216,347.61496,397.358734,348.051392,400C348.369446,401.924988,349.163025,404.48291,349.81485,405.684265C350.466675,406.88559,351,408.650177,351,409.60553C351,410.560883,351.746399,412.167267,352.658661,413.175323C354.02002,414.679596,354.10965,415.463928,353.158661,417.551117C351.356812,421.505768,351.77597,424.440918,354.509277,427.008728C356.13269,428.533813,356.814423,430.009308,356.440338,431.187958C356.075104,432.338745,356.459045,433.238922,357.482666,433.631714C358.661011,434.083893,358.938812,435.002167,358.500702,436.996857C358.015869,439.204285,358.30069,439.845367,359.958954,440.279022C361.741516,440.745148,361.882416,441.179047,361.002716,443.492889C359.911713,446.362396,360.388489,448,362.314911,448C363.76532,448,365.972717,452.73291,365.812866,455.5C365.578217,459.561707,368.202454,466.218323,371.459686,469.823669C374.017761,472.655151,374.691742,474.161774,374.305115,476.184265C373.887604,478.368286,374.201599,478.893036,376.090149,479.167236C377.726685,479.404877,378.626282,480.448425,379.23703,482.817657C379.814209,485.056702,380.999573,486.519745,382.882996,487.317657C384.417908,487.967957,385.485565,489.059723,385.255585,489.743835C384.199554,492.885132,401.263641,494.723816,411.115631,492.530304C424.639038,489.519379,429.130219,488.193054,430.785248,486.721619C431.728363,485.883087,435.525574,483.775787,439.223511,482.038666C442.994171,480.267395,446.946808,477.555206,448.223511,475.863098C453.509399,468.857269,461.887482,462.351288,470.565521,458.513458C473.81839,457.07486,477.409607,455.024353,478.546021,453.956757C479.682465,452.88916,483.962006,451.071289,488.056122,449.917053C492.150269,448.762817,497.038116,447.155518,498.91803,446.345276C500.797943,445.535034,506.422943,444.684113,511.41803,444.454346C537.36853,443.26062,538.904053,443.108978,541.364075,441.497101C543.455261,440.126923,544.246216,440.065338,546.182922,441.121887C547.457336,441.817108,550.974976,442.525543,554,442.696167C565.993896,443.372681,569.148743,443.867432,571.565186,445.450745C573.943726,447.009247,574.328979,446.976013,578.597107,444.844391C582.317383,442.98642,583.454956,442.801544,585.056335,443.794617C586.125366,444.457581,587.890747,445.55249,588.979492,446.227722C590.601563,447.233765,591.487061,447.143494,593.883789,445.727722C595.492432,444.777466,598.115662,444,599.713135,444C601.310669,444,603.391968,443.433868,604.338257,442.741943C605.958069,441.557465,605.940002,441.138763,604.029358,435.585388C602.913208,432.341217,602,429.318909,602,428.869141C602,428.419342,603.349976,427.353241,605,426.5C610.604431,423.601837,608.665649,419.14212,599.872681,414.706024C596.19812,412.852234,595.449097,411.969788,595.181335,409.17923C595.006104,407.352814,595.529419,404.840942,596.344299,403.597321C597.159119,402.353699,597.488953,400.791138,597.077209,400.124969C596.665527,399.458801,596.246704,394.320648,596.146545,388.706879C596.007324,380.902649,596.370483,377.588348,597.689514,374.627075C599.357666,370.881927,599.349304,370.70047,597.435608,369.127075C595.9375,367.895355,595.461914,366.285095,595.478333,362.5C595.490234,359.75,595.876221,356.917786,596.33606,356.206207C596.822205,355.453918,596.68158,354.321228,596,353.5C595.355286,352.723175,595.098877,351.648987,595.430237,351.112915C595.761536,350.576813,595.553406,349.842041,594.967773,349.480072C594.233093,349.026001,594.283386,348.363495,595.130005,347.343353C595.804932,346.530121,596.41095,344.207672,596.476746,342.182373C596.611877,338.024353,597.572205,335.349548,599.900208,332.646973C601.393982,330.912903,601.239807,330.576782,597.49823,327.411835C593.540894,324.064362,593.527466,324.029602,596.184875,324.014862C597.661621,324.006683,599.977844,324.421265,601.332092,324.936157C605.449707,326.501678,605.264221,324.844971,600.814331,320.310791C596.577332,315.993652,596.691223,315.575806,602,315.959137C604.492554,316.139099,604.493713,316.135071,602.387817,314.60965C599.257813,312.342377,597.421204,307.402313,599.000732,305.499084C599.99408,304.302246,599.989014,303.691681,598.975647,302.470673C597.922485,301.201691,598.104797,300.517334,600.046753,298.450256C602.204834,296.153076,602.287048,295.682709,601.103027,292.408325C599.967285,289.267487,600.029968,288.624329,601.64624,286.838409C603.402832,284.8974,603.403992,284.768585,601.67688,283.505676C600.432617,282.595856,600.23291,281.974091,601.027283,281.483154C601.658081,281.093262,601.957214,279.944397,601.691956,278.930084C601.323975,277.522827,602.050842,276.808289,604.759949,275.914215L608.31012,274.742554L606.048645,273.036682L603.787109,271.330811L606.893555,270.044098C608.602112,269.336395,610,268.433838,610,268.038391C610,267.642944,608.3125,266.094543,606.25,264.597473L602.5,261.875519L607.089172,262.527191C611.796265,263.195587,615,261.606354,615,258.602875C615,257.202515,611.91217,254.24617,607.75,251.66156C606.237488,250.722351,605,249.268875,605,248.431641C605,247.220734,605.748901,247.049866,608.661316,247.596237C611.805664,248.186127,612.229248,248.051331,611.661316,246.641556C611.297607,245.738693,610.707458,244.274414,610.349854,243.387573C609.803223,242.03183,610.201355,241.885315,612.850708,242.467209C616.767273,243.327438,617.983521,241.150024,615.609924,237.527466C613.312073,234.020432,613.57959,233.773056,617.25,236.010956C621.871155,238.828522,622.305603,238.519379,620.020325,234.039841C617.477112,229.054733,617.482605,229,620.52478,229C622.297668,229,623.33252,228.255554,624,226.5C624.522766,225.125,625.628052,224,626.456177,224C628.654358,224,629.40741,219.574509,628.034607,214.723785C626.028442,207.634918,626.212402,206.75412,630.25,204.115555C632.421204,202.69664,634,200.859985,634,199.753006C634,198.168365,634.491028,197.948944,636.86853,198.47113C639.582825,199.067291,639.796997,198.863251,640.851135,194.677017C642.365906,188.661194,645.95813,186.221481,650.749756,187.954147C652.619751,188.630356,654.274658,189.029785,654.427368,188.841797C654.580078,188.653809,655.14502,187.679901,655.6828,186.677551C656.415161,185.312531,658.112671,184.766495,662.445862,184.50206C667.125366,184.216492,668.975464,183.550812,672.125671,181.019257C676.69873,177.344254,681.906677,175,685.497986,175C686.907227,175,690.652161,173.909103,693.819946,172.575775C698.563965,170.579056,700.718933,170.238708,706.039856,170.645828C709.592957,170.917694,714.192627,171.854248,716.261353,172.727051C719.367004,174.037338,720.935974,174.121964,725.261353,173.212524C739.178955,170.28624,744.467712,169.772064,748.75,170.92894C751.802429,171.753555,754.098633,171.781265,756.898865,171.027237C769.802979,167.552521,774.385986,167.962967,776.071533,172.744263C776.605835,174.259918,778.637939,176.536072,780.587341,177.802368C782.536804,179.06868,783.96283,180.611526,783.756348,181.230927C783.331909,182.504318,783.024475,182.680252,773.82074,186.917511C769.478577,188.916595,766.360657,191.131012,764.909851,193.246262C763.682495,195.035812,761.575562,197.701889,760.227844,199.170853L757.777466,201.841705L760.269958,205.170853C762.326538,207.917786,762.88269,210.103836,763.450073,217.670868L764.137756,226.841751L760.615356,230.740631C758.248718,233.360199,757.261963,235.285751,757.608032,236.60907C757.926575,237.827209,757.337891,239.289215,756.065063,240.441116C754.436035,241.915344,754.25293,242.599838,755.186523,243.724777C755.906372,244.592148,756.317261,248.332428,756.240967,253.322983C756.17218,257.820343,756.602722,262.487976,757.197754,263.695496C758.030029,265.38443,757.901306,266.688263,756.639832,269.346619C755.737915,271.247223,755,274.129028,755,275.750641C755,277.372253,753.670349,280.678833,752.045227,283.098572L749.090454,287.498108L752.246704,290.754517C754.736206,293.323029,755.373901,294.801971,755.265564,297.755463C754.50293,318.540344,754.101807,322.853729,752.616089,326.247223C751.485046,328.830566,751.177673,331.259033,751.626526,334.065887C752.126526,337.192871,751.747192,339.269653,749.99115,343.01886C747.830627,347.631744,747.795471,348.038849,749.352356,350.415039C751.379822,353.509338,751.433838,357.998718,749.519592,364.307922C748.130798,368.885071,748.183044,369.437073,750.607544,375.807922C752.638611,381.144928,753.010559,383.411194,752.444458,387C751.780273,391.210724,751.541504,400.43689,752.023865,403.25C752.141785,403.9375,751.922607,405.258484,751.536865,406.185547C751.014954,407.439789,751.843994,408.50769,754.777039,410.359222C760.314087,413.854614,763.081726,419.514526,762.335388,425.816223C761.962219,428.966858,762.156433,430.978638,762.876709,431.423798C764.50354,432.42926,764.256531,435.625305,762.268005,439.299652C761.21405,441.247101,760.503967,444.848938,760.454163,448.5C760.409241,451.799988,760.006348,456.817108,759.558838,459.649139C758.911743,463.744873,759.078247,465.273621,760.372681,467.121643C761.2677,468.399506,762,470.414795,762,471.600067C762,472.785339,762.620789,474.270294,763.379456,474.899994C764.138184,475.529663,765.016663,477.333221,765.331604,478.907898C765.737976,480.940002,766.776855,482.075165,768.91095,482.819122C770.926392,483.521698,772.408997,485.043121,773.407837,487.433624C774.429382,489.878571,775.542908,491,776.948975,491C778.411865,491,779,491.647919,779,493.25946C779,494.502167,779.900024,496.080963,781,496.767914C782.236389,497.54007,783,499.099945,783,500.853485C783,502.470428,783.907043,504.509094,785.109558,505.595001C787.331543,507.601532,794,517.211121,794,518.406555C794,518.791321,795.125,520.761719,796.5,522.785217C797.875,524.808655,799,527.757324,799,529.337769C799,530.943909,800.102661,533.521729,801.5,535.182373C803.333191,537.361023,804,539.320679,804,542.529663C804,544.936584,804.506226,548.016968,805.125,549.375C805.962585,551.213318,805.95459,552.691528,805.093567,555.161438C804.030212,558.211792,804.140869,558.627197,806.468567,560.322815C809.564331,562.577942,809.644714,564.285828,806.840393,568.224121C805.341553,570.329102,804.448303,573.588928,803.920959,578.87854C803.503052,583.070313,802.707397,588.075012,802.152832,590C800.046448,597.311584,799.065796,604.079041,799.672852,607.11438C800.185303,609.676636,799.864136,610.593872,797.948547,612.038818C795.871277,613.605713,795.733154,614.118958,796.774048,616.403381C798.316528,619.788757,797.276489,640.860596,795.461304,643C794.761353,643.825012,793.956726,646.974976,793.673279,650C792.750183,659.85022,791.24231,666.398254,788.606995,672C787.183899,675.025024,786.000427,678.174988,785.977112,679C785.897766,681.806702,782.312317,690.997375,780.527344,692.969788C779.146729,694.495361,778.704468,696.899658,778.550293,703.717468C778.441101,708.547852,777.760742,715.705383,777.038391,719.623108C775.908691,725.750061,775.947327,728.057556,777.314331,736.123108C780.066162,752.359436,781.141479,756.232361,783.572449,758.66333C786.480591,761.571533,788.846619,761.605042,808.5,759.016479C826.45752,756.651306,842.37439,756.453186,850,758.5C853.025024,759.311951,857.656494,759.981628,860.292175,759.988159C866.25708,760.00293,879.411377,762.664978,883.462952,764.677307C885.133362,765.506897,888.979492,768.731445,892.009888,771.842834C895.040344,774.954285,900.065613,779.381348,903.177185,781.680725C909.798706,786.574036,913.269897,792.006287,915.703125,801.283508C917.424072,807.845093,917.419434,808.022339,915.480225,809.835327C914.362549,810.88031,909.839966,812.443909,905.097412,813.424988C895.818665,815.344421,857.448303,828.96167,844.625977,834.885559C835.082092,839.294861,829.397705,843.912903,828.503662,847.983398C828.148621,849.599731,828.849243,856.027954,830.08667,862.508423C832.167786,873.407104,832.205566,874.345703,830.690979,877.52179C828.651855,881.797913,824.506287,883.954895,816.664307,884.820007L810.5,885.5L809.945557,893.5C809.315125,902.596436,807.716919,906.285339,802.37384,910.976624C797.587585,915.179016,794.230652,916.525635,785.009521,917.942139C779.156311,918.841248,775.986877,920.031128,770.509521,923.38562C762.033386,928.576721,759.538391,929.587341,750.5,931.490967C742.799255,933.112854,740.722046,933.201172,737,932.06488z"/>
</svg>
