<?xml version="1.0" encoding="UTF-8"?>
<svg xmlns="http://www.w3.org/2000/svg" width="335.094mm" height="541.680mm" viewBox="-1012.363281 -768.855469 335.093750 541.679688">
    <path transform="matrix(-1,0,0,-1,0,0)" style="stroke:#000000;stroke-width:0.05mm;fill:none" d="M915.339844,227.738281L915.363281,227.761719L915.425781,227.777344C915.542908,227.787872,915.660156,227.798309,915.777344,227.808594L915.949219,227.824219C917.069519,228.093628,918.205933,228.290665,919.351563,228.414063C921.071167,228.603897,922.797913,228.722488,924.527344,228.769531C927.373291,228.847183,930.219727,228.865372,933.066406,228.824219C936.669983,228.777039,940.28302,228.756165,943.886719,228.761719C946.191101,228.767822,948.494934,228.821228,950.796875,228.921875C952.157593,228.985596,953.516907,229.070221,954.875,229.175781C955.06073,229.200806,955.241821,229.253494,955.410156,229.335938L955.667969,229.488281C956.03241,229.752792,956.362671,230.061462,956.652344,230.40625C956.891174,230.67334,957.132385,230.939362,957.375,231.203125L957.859375,231.671875C958.012878,231.804474,958.180664,231.919662,958.359375,232.015625L958.613281,232.125L958.875,232.175781C960.234802,232.293381,961.59729,232.380646,962.960938,232.4375C964.780823,232.510254,966.605713,232.585938,968.425781,232.664063C970.059204,232.728394,971.690063,232.843018,973.316406,233.007813C974.043274,233.09079,974.766541,233.202728,975.484375,233.34375L975.495117,233.383789L975.480469,233.425781L975.5,233.515625C975.560425,233.611618,975.635742,233.69754,975.726563,233.765625L976.410156,234.3125C976.742859,234.597092,977.056885,234.902756,977.351563,235.226563C977.939209,235.882172,978.442017,236.609222,978.847656,237.390625C979.290833,238.23967,979.651917,239.129105,979.925781,240.046875C980.328491,241.401917,980.645508,242.780914,980.875,244.175781C980.9776,244.110199,981.092163,244.066223,981.210938,244.039063C981.702759,243.937332,982.205505,243.898987,982.707031,243.925781C983.3573,243.929977,984.004456,244.016083,984.632813,244.183594L984.863281,244.261719C984.973206,244.309647,985.0755,244.37291,985.167969,244.449219L985.144531,244.574219C985.147522,244.656662,985.170898,244.737259,985.21875,244.804688L985.3125,244.890625C986.535522,245.604553,987.598999,246.56189,988.4375,247.703125L988.613281,247.453125C988.74292,247.303757,988.897522,247.178253,989.070313,247.082031L989.339844,246.96875C989.527405,246.913925,989.722717,246.890381,989.917969,246.898438L990.210938,246.945313L990.496094,247.050781C990.527161,247.099487,990.555176,247.150055,990.578125,247.203125C990.642822,248.005356,990.619141,248.812286,990.507813,249.609375L990.5625,249.589844C990.948059,248.594574,992.042358,248.072067,993.058594,248.398438C993.261353,248.471832,993.475891,248.507446,993.691406,248.5L994,248.460938L994.296875,248.363281L994.566406,248.214844L994.808594,248.015625C994.920227,247.900269,995.017395,247.771835,995.097656,247.632813C995.143494,247.538483,995.188293,247.44368,995.230469,247.347656C995.285217,247.266006,995.347961,247.190125,995.417969,247.121094L995.539063,247.042969L995.667969,246.984375L995.8125,246.953125L995.957031,246.949219L996.105469,246.972656C995.596497,247.671783,995.322266,248.51413,995.320313,249.378906L995.339844,249.75L996.105469,249.472656C996.624023,249.310715,997.150818,249.176605,997.683594,249.070313L998.492188,248.941406C997.062988,250.643036,995.812744,252.487366,994.761719,254.445313C994.8172,254.455658,994.873169,254.463394,994.929688,254.464844L995.082031,254.378906C995.185059,254.333694,995.294678,254.306625,995.40625,254.292969C995.517761,254.29158,995.629272,254.300537,995.738281,254.324219L995.898438,254.382813C996.00061,254.434952,996.095947,254.49971,996.179688,254.578125C996.428345,255.532669,996.669556,256.490875,996.902344,257.449219L996.964844,257.136719C997.023621,256.935455,997.103088,256.740997,997.199219,256.554688C997.460938,256.095642,997.861084,255.730713,998.34375,255.515625C998.360657,255.570923,998.374512,255.627075,998.386719,255.683594C998.722656,258.341583,998.296082,261.040283,997.15625,263.464844L997.484375,263.152344L997.84375,262.882813C998.093994,262.723297,998.361328,262.592468,998.640625,262.492188L999.066406,262.375L999.507813,262.308594L999.957031,262.296875L1000.40625,262.347656C999.612854,264.445923,999.598816,266.759613,1000.367188,268.867188C1000.623169,269.57196,1000.96167,270.244141,1001.378906,270.867188C1001.443542,270.835663,1001.509216,270.806396,1001.578125,270.785156L1001.683594,270.773438L1001.789063,270.78125C1001.85675,270.799591,1001.922791,270.822968,1001.988281,270.847656L1002.078125,270.90625L1002.160156,270.984375L1002.203125,271.058594C1002.051697,273.497986,1002.341064,275.944855,1003.058594,278.28125L1003.238281,278.183594L1003.429688,278.121094C1003.558899,278.090881,1003.691895,278.08493,1003.824219,278.09375C1003.955688,278.111603,1004.083557,278.149506,1004.203125,278.207031L1004.375,278.3125L1004.53125,278.449219C1004.244751,278.594391,1003.993835,278.800995,1003.796875,279.054688C1003.721619,279.154602,1003.653931,279.259796,1003.589844,279.367188C1003.472168,279.58905,1003.386597,279.826752,1003.34375,280.074219L1003.320313,280.261719C1003.30304,280.519318,1003.327087,280.778137,1003.394531,281.027344C1003.47937,281.029297,1003.564026,281.034821,1003.648438,281.042969L1003.78125,280.949219L1003.925781,280.882813L1004.074219,280.847656L1004.226563,280.835938L1004.382813,280.855469L1004.53125,280.898438L1004.675781,280.96875L1004.808594,281.066406L1004.554688,281.484375C1004.239258,282.043091,1004.009338,282.646027,1003.875,283.273438C1003.735291,283.888,1003.687134,284.519989,1003.734375,285.148438C1003.777527,285.781952,1003.912415,286.405945,1004.136719,287C1004.309082,287.454956,1004.530151,287.889984,1004.796875,288.296875C1005.290588,287.742828,1005.920715,287.327606,1006.625,287.09375C1005.636169,288.413177,1004.944214,289.930969,1004.597656,291.542969L1004.671875,291.550781L1004.746094,291.527344C1004.756042,291.390747,1004.788391,291.257233,1004.835938,291.128906C1004.919006,290.946381,1005.045776,290.787231,1005.207031,290.667969L1005.378906,290.566406L1005.566406,290.496094C1005.682129,290.477875,1005.797974,290.460876,1005.914063,290.445313L1006.050781,290.453125L1006.1875,290.488281L1006.308594,290.546875L1006.421875,290.625L1006.515625,290.726563L1006.59375,290.84375L1006.648438,290.976563C1006.181274,291.619171,1005.808472,292.325409,1005.542969,293.074219C1005.414246,293.442963,1005.311707,293.820282,1005.234375,294.203125L1005.140625,294.78125C1005.092468,295.165985,1005.073792,295.553772,1005.082031,295.941406L1005.113281,296.523438C1005.165161,297.10907,1005.282898,297.687042,1005.464844,298.246094L1005.664063,298.804688L1005.90625,299.347656L1006.191406,299.878906C1006.112671,300.234985,1006.062988,300.596832,1006.042969,300.960938L1006.046875,301.5L1006.097656,302.039063L1006.199219,302.566406L1006.351563,303.085938L1006.550781,303.589844L1006.800781,304.082031C1006.87085,304.092285,1006.938843,304.112701,1007.003906,304.140625L1007.089844,304.199219L1007.164063,304.269531L1007.21875,304.355469L1007.261719,304.449219C1007.290588,304.673401,1007.306335,304.898987,1007.308594,305.125L1007.363281,305.585938L1007.40625,305.691406L1007.46875,305.78125C1007.492737,305.856415,1007.527039,305.928162,1007.578125,305.988281L1007.660156,306.070313L1007.753906,306.132813L1007.863281,306.175781C1007.938965,306.194611,1008.016174,306.204865,1008.09375,306.210938L1008.214844,306.195313C1008.361328,306.103516,1008.495605,305.993958,1008.617188,305.871094L1008.730469,305.738281C1008.443115,306.646545,1008.262024,307.585144,1008.191406,308.535156C1008.124451,309.484589,1008.165955,310.438477,1008.3125,311.378906C1008.388489,311.272827,1008.476563,311.175781,1008.578125,311.09375L1008.742188,310.992188C1008.856384,310.937439,1008.97644,310.895294,1009.101563,310.875L1009.292969,310.863281L1009.484375,310.886719L1009.675781,310.941406C1009.620117,311.858459,1009.412109,312.759735,1009.0625,313.609375C1008.945862,313.892273,1008.814514,314.168854,1008.667969,314.4375L1008.78125,314.378906L1008.90625,314.339844C1009.029846,314.319336,1009.155701,314.325958,1009.277344,314.355469L1009.394531,314.402344C1009.469116,314.44516,1009.538452,314.496277,1009.601563,314.554688C1009.882935,321.550842,1009.961121,328.554077,1009.835938,335.554688C1010.141357,336.696838,1010.331238,337.86676,1010.402344,339.046875L1010.4375,339.929688C1010.447327,340.816589,1010.39209,341.703033,1010.273438,342.582031C1009.889709,349.114166,1010.595886,355.664612,1012.363281,361.964844L1012.25,361.957031L1012.144531,361.972656L1012.042969,362.003906C1011.942261,362.039063,1011.85553,362.106232,1011.796875,362.195313L1011.746094,362.285156L1011.714844,362.390625C1011.444153,364.086823,1010.937988,365.736786,1010.210938,367.292969L1010.429688,367.371094L1010.625,367.484375L1010.792969,367.628906C1011.002869,367.841095,1011.130005,368.120697,1011.15625,368.417969L1011.152344,368.648438L1010.941406,368.675781L1010.742188,368.738281L1010.558594,368.832031C1010.447571,368.91214,1010.345581,369.003784,1010.253906,369.105469C1010.170471,369.215027,1010.103638,369.336121,1010.054688,369.464844L1010.003906,369.675781L1010.179688,369.820313L1010.324219,369.988281L1010.433594,370.175781C1010.490112,370.309204,1010.529663,370.449402,1010.542969,370.59375L1010.542969,370.8125L1010.503906,371.03125L1010.417969,371.242188L1010.171875,371.3125L1009.945313,371.425781L1009.75,371.578125L1009.585938,371.761719L1009.460938,371.972656L1009.378906,372.203125L1009.34375,372.449219L1009.355469,372.707031L1009.582031,372.875C1009.711792,373.002045,1009.824158,373.145355,1009.917969,373.300781L1010.023438,373.546875L1010.082031,373.808594L1010.097656,374.078125C1010.088074,374.263062,1010.049316,374.445251,1009.980469,374.617188L1009.707031,374.726563L1009.464844,374.875L1009.257813,375.066406L1009.085938,375.289063L1008.960938,375.535156L1008.886719,375.804688L1008.859375,376.089844L1008.890625,376.382813C1008.95459,376.415466,1009.013733,376.456024,1009.070313,376.5C1009.146423,376.574341,1009.208801,376.662048,1009.246094,376.761719L1009.273438,376.863281C1009.279846,376.934723,1009.281799,377.00647,1009.277344,377.078125C1009.076111,377.201721,1008.8927,377.351685,1008.726563,377.519531C1008.568176,377.685547,1008.427856,377.868011,1008.3125,378.066406L1008.207031,378.269531C1008.144653,378.407471,1008.092957,378.549927,1008.050781,378.695313C1007.899902,379.219452,1007.913879,379.778076,1008.09375,380.292969L1008.1875,380.351563L1008.265625,380.425781L1008.332031,380.507813C1008.362793,380.570953,1008.390381,380.63559,1008.410156,380.703125L1008.421875,380.808594L1008.410156,380.914063L1008.382813,381.023438C1007.577881,382.713989,1006.793884,384.414856,1006.03125,386.125L1005.714844,386.175781L1005.421875,386.28125L1005.160156,386.441406L1004.933594,386.644531L1004.75,386.886719C1004.670166,387.019012,1004.606567,387.160492,1004.5625,387.308594C1004.521667,387.462799,1004.502563,387.621765,1004.503906,387.78125C1004.532532,387.847137,1004.554382,387.915466,1004.574219,387.984375C1004.580872,388.055878,1004.580017,388.127686,1004.574219,388.199219L1004.546875,388.300781C1004.525085,388.36969,1004.494019,388.435516,1004.449219,388.492188L1004.378906,388.578125L1004.304688,388.613281L1004.148438,388.621094L1004.003906,388.679688L1003.878906,388.773438L1003.785156,388.902344C1002.380066,392.073273,1000.638306,395.084076,998.589844,397.882813L998.617188,398.011719L998.621094,398.136719C998.148682,398.974579,997.740051,399.846924,997.398438,400.746094L997.515625,400.757813L997.628906,400.785156L997.734375,400.835938L997.824219,400.90625L997.222656,401.507813L996.578125,402.070313L995.898438,402.582031L995.1875,403.050781L995.347656,403.019531C995.452942,403.011475,995.558533,403.008179,995.664063,403.011719L995.816406,403.03125L995.964844,403.070313L996.109375,403.121094L996.242188,403.183594C996.514893,403.325745,996.731445,403.556274,996.859375,403.835938C996.923218,403.983337,996.968262,404.138031,996.992188,404.296875C996.927734,404.334808,996.868774,404.380737,996.8125,404.429688L996.75,404.519531L996.71875,404.625C995.865051,408.629761,993.96936,412.338135,991.222656,415.375L991.28125,415.550781C991.311768,415.668915,991.336182,415.788605,991.347656,415.910156C991.362122,416.028168,991.362122,416.147614,991.347656,416.265625C991.329407,416.500763,991.263,416.729156,991.160156,416.941406L991.078125,417.097656L990.980469,417.246094C990.905945,417.337738,990.827454,417.426056,990.746094,417.511719C990.573792,417.676208,990.369995,417.803314,990.148438,417.890625L990.035156,417.996094L989.964844,418.136719L989.945313,418.296875L990.039063,418.339844L990.109375,418.410156L990.144531,418.503906L990.140625,418.605469C988.721191,420.906403,988.037292,423.585388,988.179688,426.285156C987.635071,429.702179,986.375732,432.965759,984.484375,435.863281L984.683594,435.808594L984.882813,435.792969C985.077148,435.803314,985.266479,435.856262,985.4375,435.949219L985.597656,436.066406C985.695801,436.158325,985.776917,436.266235,985.84375,436.382813C984.93457,436.971619,984.267456,437.86734,983.960938,438.90625C983.824219,439.359314,983.762451,439.831696,983.777344,440.304688C983.787659,440.670197,983.839111,441.033478,983.933594,441.386719L984.105469,441.390625L984.261719,441.445313L984.328125,441.492188L984.382813,441.550781L984.425781,441.621094L984.457031,441.699219C983.750549,443.085327,983.143433,444.519867,982.640625,445.992188L982.792969,445.878906C982.898071,445.821655,983.011902,445.783051,983.128906,445.757813L983.308594,445.75L983.484375,445.769531L983.65625,445.824219L983.816406,445.910156L983.964844,446.027344C977.194763,455.829437,974.573364,467.910187,976.671875,479.636719C976.688721,479.90918,976.703125,480.149292,976.71875,480.421875C977.725098,485.141663,978.749512,489.846741,979.796875,494.558594C979.427246,496.689941,979.369446,498.863708,979.625,501.011719C979.578674,501.081421,979.526917,501.147217,979.472656,501.210938L979.492188,501.277344C979.517822,501.312805,979.548035,501.34491,979.585938,501.367188L979.65625,501.382813L979.722656,501.417969L979.773438,501.46875L979.808594,501.539063L979.820313,501.617188C979.820313,501.617798,979.890625,503.191223,979.890625,503.191406C979.823669,513.812134,980.741699,524.416016,982.632813,534.867188L983.023438,536.699219L983.359375,538.539063L983.644531,540.386719L983.878906,542.238281L984.058594,544.101563L984.1875,545.964844L984.261719,547.835938C984.287231,548.989319,984.292358,550.143433,984.277344,551.296875C984.149963,559.246582,982.871094,567.135925,980.480469,574.71875C980.437866,578.325256,979.444275,581.856506,977.601563,584.957031L977.222656,585.574219L977.390625,585.480469C977.504089,585.429932,977.62085,585.387878,977.738281,585.347656C977.914612,585.30304,978.095398,585.278076,978.277344,585.277344L978.457031,585.285156L978.636719,585.308594C978.753418,585.333191,978.868103,585.366272,978.980469,585.40625L979.144531,585.480469L979.304688,585.566406L979.457031,585.671875L979.597656,585.789063C979.689636,585.87738,979.772217,585.974487,979.851563,586.074219L979.617188,586.21875L979.417969,586.398438L979.257813,586.605469L979.140625,586.839844C979.083862,587.005127,979.047974,587.176941,979.039063,587.351563L979.0625,587.617188L979.136719,587.878906L979.269531,587.925781C979.351746,587.964844,979.427124,588.01593,979.5,588.070313L979.59375,588.167969L979.667969,588.277344C979.701355,588.358704,979.726746,588.442749,979.75,588.527344L979.753906,588.664063C977.891663,591.84967,977.016357,595.51593,977.238281,599.199219C976.46637,600.2724,975.747803,601.382996,975.085938,602.527344L975.289063,602.605469L975.46875,602.714844L975.628906,602.847656L975.765625,603.003906C975.928955,603.237,976.013428,603.516357,976.003906,603.800781L975.789063,603.820313L975.589844,603.890625L975.414063,604.007813L975.277344,604.167969L975.394531,604.578125C975.500305,604.98761,975.568787,605.405945,975.59375,605.828125C975.622009,606.247864,975.610352,606.669556,975.550781,607.085938C975.444641,607.921997,975.185547,608.731079,974.785156,609.472656C974.587952,609.849487,974.350647,610.204163,974.074219,610.527344L973.730469,611.816406L973.332031,613.089844L972.882813,614.34375L972.378906,615.578125C972.33429,615.982727,972.320313,616.390076,972.335938,616.796875L972.386719,617.402344L972.484375,618L972.632813,618.589844C972.802551,619.176575,973.039429,619.741699,973.339844,620.273438C973.138428,620.610779,972.975342,620.969604,972.855469,621.34375C972.696045,621.834778,972.611633,622.347046,972.605469,622.863281L972.613281,623.25L972.648438,623.632813C972.754944,624.40448,973.02887,625.143555,973.453125,625.796875L973.683594,626.121094C973.824829,628.083679,974.06488,630.038025,974.402344,631.976563L974.519531,632.003906L974.625,632.050781L974.722656,632.109375C974.817078,632.172058,974.889771,632.262573,974.933594,632.367188L974.972656,632.472656L974.992188,632.589844C973.694336,636.371826,973.441895,640.434143,974.261719,644.347656L974.117188,645.039063L974.027344,645.734375L973.984375,646.4375L973.992188,647.136719L974.046875,647.835938L974.15625,648.527344L974.3125,649.214844L974.519531,649.886719L975.382813,653.796875L976.1875,657.71875L976.929688,661.652344L977.609375,665.597656L976.652344,668.902344L975.746094,672.222656L974.890625,675.558594L974.089844,678.902344L973.34375,682.261719L972.648438,685.632813L972.007813,689.015625L971.417969,692.40625C972.63385,696.480835,973.943848,700.525513,975.347656,704.539063C975.353027,704.60083,975.357788,704.653259,975.363281,704.714844L975.734375,714.320313C976.078552,723.92926,976.351501,733.520874,976.554688,743.132813C976.243164,752.417297,972.607056,761.280945,966.308594,768.109375C966.258606,768.141052,966.209351,768.174072,966.160156,768.207031L965.507813,768.441406L964.847656,768.621094C964.407776,768.721375,963.961365,768.790466,963.511719,768.828125L962.84375,768.855469L962.175781,768.828125L961.515625,768.753906L960.863281,768.632813L960.21875,768.457031L959.589844,768.238281L958.980469,767.96875L958.390625,767.652344C958.001831,767.423828,957.629211,767.168762,957.277344,766.886719L956.761719,766.433594L956.277344,765.9375L956.207031,765.882813C950.811707,760.044983,945.834534,753.834473,941.3125,747.296875C938.798462,743.666931,936.429443,739.938843,934.210938,736.121094C933.320374,734.594482,932.455383,733.052002,931.617188,731.496094C929.796448,727.987976,926.851318,725.191956,923.253906,723.554688C923.001404,723.741211,922.733765,723.906311,922.453125,724.046875C922.18103,724.186646,921.896851,724.301331,921.605469,724.394531L921.164063,724.515625C920.722656,724.61322,920.2724,724.665466,919.820313,724.667969C919.518188,724.663208,919.216797,724.638123,918.917969,724.59375C918.619568,724.546631,918.326111,724.473083,918.039063,724.378906C917.448914,724.183838,916.894104,723.89447,916.398438,723.519531L916.414063,723.292969L916.40625,723.070313L916.378906,722.851563C916.335327,722.638611,916.267273,722.43158,916.175781,722.234375C916.078247,722.044678,915.954529,721.870056,915.8125,721.710938L915.65625,721.558594C915.492798,721.415955,915.312256,721.29425,915.117188,721.199219L914.914063,721.117188L914.699219,721.050781L914.476563,721.007813C909.57196,721.683655,904.621826,721.972595,899.671875,721.871094C895.904297,721.170288,892.135681,720.506836,888.355469,719.878906L888.132813,719.695313L887.898438,719.539063L887.652344,719.410156L887.394531,719.308594C887.051941,719.196655,886.692078,719.148315,886.332031,719.164063L886.0625,719.195313C885.885437,719.230469,885.71051,719.275391,885.539063,719.332031C885.368347,719.396973,885.204346,719.477844,885.046875,719.570313C884.808655,719.723206,884.591553,719.906616,884.402344,720.117188L884.402344,720.40625L884.355469,720.679688L884.253906,720.9375L884.113281,721.175781L883.933594,721.382813L883.71875,721.554688L883.472656,721.691406L883.199219,721.78125C881.74939,721.132874,880.212219,720.700684,878.636719,720.5C878.111572,720.434082,877.58374,720.390686,877.054688,720.375C867.916016,727.933655,859.621643,736.458313,852.316406,745.800781C852.134155,745.989685,851.953186,746.179749,851.773438,746.371094C847.037354,752.802307,840.168396,757.339417,832.394531,759.171875C826.939087,755.380005,824.137817,748.798645,825.1875,742.238281C825.097961,740.847717,825.039368,739.455688,825.011719,738.0625C824.976196,736.017761,825.008667,733.972229,825.109375,731.929688C825.214722,729.890625,825.388062,727.855591,825.628906,725.828125C825.79187,724.476563,825.983459,723.128662,826.203125,721.785156C826.428589,720.442566,826.682495,719.105225,826.964844,717.773438C827.535522,715.10553,828.22644,712.464966,829.035156,709.859375L829.066406,708.105469L829.160156,706.351563L829.308594,704.609375L829.519531,702.875L829.789063,701.148438L830.113281,699.433594L830.496094,697.734375L830.9375,696.046875L831.4375,694.378906L831.992188,692.722656L832.601563,691.089844L833.269531,689.476563L833.988281,687.882813L834.765625,686.316406L835.597656,684.773438L836.480469,683.253906L836.515625,680.78125L836.496094,678.308594L836.421875,675.835938L836.292969,673.363281L836.105469,670.898438L835.863281,668.4375L835.566406,665.980469L835.214844,663.53125C834.649719,660.845154,834.469788,658.092346,834.679688,655.355469C834.888489,652.617493,835.488525,649.923462,836.460938,647.355469C838.328186,642.781555,839.534363,637.964905,840.042969,633.050781C839.585327,628.906921,839.935425,624.713684,841.074219,620.703125L841.109375,620.636719C841.033997,620.067871,841.100525,619.489807,841.292969,618.949219C841.354919,618.767883,841.432007,618.59198,841.527344,618.425781C840.473022,616.11908,840.218262,613.526123,840.804688,611.058594C839.054077,604.796631,837.58374,598.459534,836.398438,592.066406C836.485901,586.869934,835.652893,581.698914,833.9375,576.792969C832.539978,566.978638,832.114807,557.050171,832.667969,547.152344L832.566406,546.910156L832.515625,546.664063C832.499146,546.49939,832.51239,546.333679,832.546875,546.171875C832.594421,546.011902,832.664551,545.85968,832.753906,545.71875L832.917969,545.527344L833.121094,545.363281L833.359375,544.570313L833.542969,543.761719L833.664063,542.945313L833.734375,542.125L833.742188,541.300781L833.695313,540.476563L833.589844,539.652344L833.425781,538.839844L833.539063,538.808594L833.636719,538.757813L833.714844,538.679688L833.761719,538.578125C830.214417,530.721619,825.800293,523.286255,820.601563,516.410156C817.78064,512.549805,815.61731,508.249664,814.199219,503.683594C814.168884,503.632782,814.137085,503.582916,814.097656,503.539063C809.723633,495.005737,805.602295,486.346313,801.738281,477.570313C801.539734,476.479767,801.311768,475.394653,801.054688,474.316406C800.794434,473.239136,800.502502,472.169647,800.179688,471.109375C799.85675,470.049652,799.50238,468.999695,799.117188,467.960938L798.515625,466.410156L797.867188,464.878906C797.219666,462.139679,796.729248,459.36554,796.398438,456.570313C796.197937,454.892151,796.054565,453.207458,795.96875,451.519531L796.109375,451.472656L796.222656,451.378906L796.300781,451.25L796.339844,451.101563C795.607361,448.126007,794.844788,445.152649,794.054688,442.191406C793.260132,439.230988,792.434692,436.279327,791.578125,433.335938C791.482849,433.353729,791.385864,433.35965,791.289063,433.355469C791.191162,433.340393,791.094727,433.317871,791,433.289063C790.383179,427.845612,788.983337,422.519806,786.84375,417.476563L786.6875,416.882813C785.751526,412.970245,784.958069,409.024994,784.308594,405.054688C782.887756,396.320679,782.183655,387.485413,782.203125,378.636719C782.201782,377.494598,781.909302,376.371674,781.351563,375.375L781.09375,374.960938C781.148193,374.89209,781.204895,374.825073,781.265625,374.761719L781.464844,374.648438L781.632813,374.507813L781.773438,374.339844C781.853394,374.220367,781.911621,374.087952,781.949219,373.949219L781.980469,373.730469L781.972656,373.511719L781.917969,373.289063C780.389709,371.572083,779.466858,369.401367,779.292969,367.109375C779.164856,367.036163,779.045349,366.948608,778.941406,366.84375L778.8125,366.671875L778.71875,366.484375L778.660156,366.28125C778.634277,366.138062,778.629395,365.991943,778.648438,365.847656L778.703125,365.632813L778.875,365.613281L779.027344,365.539063L779.148438,365.421875L779.226563,365.269531C779.237915,365.185364,779.244019,365.100555,779.242188,365.015625C779.783752,362.630524,779.413391,360.129303,778.203125,358.003906C778.431396,358.028351,778.661865,358.019165,778.886719,357.972656L779.203125,357.867188L779.496094,357.707031L779.757813,357.5C779.876099,357.381714,779.981506,357.25116,780.070313,357.109375L780.152344,356.957031C780.200806,356.852142,780.239319,356.743164,780.273438,356.632813C780.286987,356.517426,780.293274,356.401337,780.292969,356.285156C780.148743,355.463806,779.844604,354.678619,779.394531,353.976563L779.113281,353.566406C778.910461,353.301849,778.688049,353.052917,778.449219,352.820313L778.71875,352.757813L778.96875,352.648438L779.191406,352.496094L779.378906,352.308594L779.53125,352.09375L779.644531,351.851563C779.701904,351.676361,779.729797,351.49292,779.726563,351.308594L779.648438,351.15625L779.582031,351L779.535156,350.835938L779.5,350.671875L779.480469,350.34375L779.523438,350.015625L779.625,349.703125C779.696045,349.553467,779.779968,349.410248,779.878906,349.277344C779.991577,349.148773,780.117249,349.03241,780.253906,348.929688L780.472656,348.941406C780.610352,348.925507,780.745544,348.893341,780.875,348.84375L781.050781,348.738281C781.157959,348.655243,781.251709,348.556061,781.324219,348.441406L781.417969,348.25L781.46875,348.042969C781.231995,348.024231,781.000793,347.96283,780.785156,347.863281C780.579102,347.763123,780.39386,347.625458,780.234375,347.460938C780.077148,347.293457,779.954224,347.097595,779.863281,346.886719C779.780151,346.665009,779.731506,346.431976,779.722656,346.195313L779.707031,346.066406L779.699219,345.933594C780.084473,344.29364,780.349487,342.627747,780.492188,340.949219C780.632385,339.269226,780.652893,337.581421,780.554688,335.898438C780.141418,335.514648,779.825928,335.037689,779.632813,334.507813C779.517151,334.199066,779.444153,333.875824,779.421875,333.546875C779.346985,332.650482,779.604065,331.758087,780.144531,331.039063L780.253906,330.664063L780.414063,330.316406L780.621094,329.996094L780.875,329.707031L781.164063,329.460938L781.488281,329.253906C781.717651,329.134521,781.962158,329.046997,782.214844,328.992188C781.761475,326.619751,782.288574,324.164795,783.675781,322.1875L783.703125,322.105469L784.132813,319.890625L784.617188,317.6875L785.15625,315.496094L785.746094,313.316406C785.423706,311.801208,785.225098,310.262268,785.152344,308.714844L785.238281,308.71875C785.386536,308.82486,785.556091,308.896057,785.734375,308.933594C785.851746,308.95462,785.97168,308.957397,786.089844,308.941406L786.265625,308.902344C786.384094,308.867035,786.495667,308.812042,786.597656,308.742188C787.150269,305.783173,787.028687,302.73764,786.242188,299.832031L786.289063,299.910156L786.355469,299.984375C786.359802,300.112671,786.38269,300.239868,786.429688,300.359375C786.513367,300.596039,786.682617,300.792694,786.902344,300.914063L787.074219,300.996094L787.261719,301.046875L787.234375,300.875C787.216919,300.706787,787.22406,300.536804,787.257813,300.371094L787.347656,300.058594L787.496094,299.769531L787.691406,299.511719L787.9375,299.292969C788.122803,299.16214,788.330627,299.066345,788.550781,299.011719C788.623901,299.31662,788.81958,299.578369,789.09375,299.730469L789.261719,299.808594C789.381958,299.847137,789.506592,299.870544,789.632813,299.875C789.852783,298.7117,790.19574,297.575043,790.65625,296.484375L790.847656,295.917969L790.984375,295.332031L791.066406,294.742188L791.097656,294.148438L791.074219,293.550781L790.996094,292.960938L790.863281,292.378906L790.679688,291.804688L790.824219,292.015625C791.035767,292.268433,791.328003,292.44101,791.652344,292.5L791.894531,292.527344C792.061584,292.522491,792.227173,292.495209,792.386719,292.445313L792.460938,290.527344C792.529907,289.250458,792.627563,287.975586,792.753906,286.703125L792.972656,284.796875L792.996094,285.039063C793.029114,285.19281,793.084534,285.340576,793.15625,285.480469L793.289063,285.671875C793.393555,285.787231,793.512329,285.888458,793.640625,285.976563L793.855469,286.082031L794.085938,286.148438C793.996033,285.639038,793.980103,285.119385,794.039063,284.605469L794.121094,284.101563L794.253906,283.605469L794.433594,283.125C794.571045,282.808929,794.738831,282.507019,794.933594,282.222656C795.525391,281.742523,796.230042,281.421722,796.980469,281.289063L797.046875,281.414063L797.140625,281.519531C797.214478,281.575836,797.29895,281.617035,797.390625,281.632813C797.711487,279.707703,797.248779,277.73407,796.105469,276.152344C788.618347,276.710938,781.061951,277.242676,773.570313,277.738281C771.943481,277.782715,770.309998,277.837585,768.683594,277.902344C754.743103,278.362915,740.787048,278.06427,726.878906,277.007813C719.404663,274.33374,711.588135,272.735718,703.664063,272.261719C702.617798,271.862366,701.532349,271.574463,700.425781,271.402344C699.31842,271.233307,698.196655,271.178162,697.078125,271.238281L697.160156,271.089844L697.214844,270.929688C697.294067,270.600952,697.192505,270.254181,696.945313,270.023438L695.453125,269.851563L693.972656,269.621094L692.503906,269.324219L691.046875,268.972656L691.128906,268.871094L691.191406,268.757813L691.230469,268.640625L691.25,268.519531L691.25,268.394531L691.226563,268.269531C691.200867,268.187988,691.162109,268.111664,691.117188,268.039063C688.851379,267.420288,686.694458,266.455994,684.722656,265.179688L683.890625,264.613281L683.675781,264.59375C683.538635,264.562714,683.406982,264.511566,683.285156,264.441406C683.113098,264.325806,682.972168,264.169525,682.878906,263.984375C682.822144,263.854156,682.789001,263.715363,682.773438,263.574219C682.224487,263.520111,681.700867,263.316864,681.257813,262.988281C680.519958,262.439758,680.070374,261.5867,680.035156,260.667969C680.208069,258.895111,680.042725,257.105377,679.546875,255.394531C679.600891,255.364731,679.650696,255.32782,679.695313,255.285156L679.75,255.210938L679.792969,255.132813C679.81189,255.07579,679.822327,255.016678,679.828125,254.957031L679.824219,254.867188L679.796875,254.777344L679.621094,254.789063L679.453125,254.769531C679.344177,254.741043,679.239807,254.69783,679.140625,254.644531C678.997253,254.553146,678.879761,254.425964,678.804688,254.273438L678.738281,254.113281C678.243652,250.534866,678.672729,246.889328,679.984375,243.523438C680.408203,242.858887,680.505188,242.035995,680.242188,241.292969C680.04248,240.714584,679.640625,240.228317,679.113281,239.917969C678.021179,239.800629,677.210754,238.850723,677.269531,237.753906C677.554932,237.36615,677.919861,237.044037,678.339844,236.808594C678.792725,236.539764,679.292236,236.358856,679.8125,236.277344C680.033142,236.236496,680.261292,236.260834,680.464844,236.355469L680.542969,236.429688C681.360352,236.066345,682.199097,235.753128,683.054688,235.492188C684.239075,235.152908,685.467407,234.992004,686.699219,235.015625C687.758972,235.041565,688.817993,235.094986,689.875,235.175781L718.570313,233.863281C722.77179,233.856384,726.973877,233.937134,731.171875,234.105469C732.744019,234.161728,734.313721,234.203354,735.886719,234.230469C737.933899,234.254547,739.981812,234.223282,742.027344,234.136719C748.797974,233.884216,755.561768,233.549622,762.324219,233.132813C765.447021,232.935272,768.569336,232.772614,771.695313,232.644531C773.881775,232.548706,776.071289,232.547409,778.257813,232.640625C779.807373,232.712204,781.350098,232.891098,782.875,233.175781C782.348694,233.563278,781.934326,234.083328,781.675781,234.683594L781.539063,235.0625L781.453125,235.460938C781.425171,235.665436,781.41687,235.872131,781.429688,236.078125C781.486633,236.701996,781.730957,237.293518,782.128906,237.777344C782.527588,238.261902,783.008972,238.671783,783.550781,238.988281C784.441772,239.503998,785.382813,239.928055,786.359375,240.253906C787.786804,240.739761,789.247681,241.121033,790.730469,241.394531C791.638,241.564972,792.551392,241.703094,793.46875,241.808594L794.855469,241.941406L796.230469,242.015625C797.536743,242.068298,798.845154,242.022614,800.144531,241.878906C800.911682,241.794434,801.67157,241.653305,802.417969,241.457031C802.98175,241.288879,803.538208,241.097504,804.085938,240.882813C804.767883,240.642502,805.458435,240.427597,806.15625,240.238281L807.574219,239.882813C809.024231,239.559998,810.486267,239.29422,811.957031,239.085938C813.967712,238.807556,815.983826,238.550842,818,238.316406L821.050781,237.90625C822.576172,237.686584,824.091736,237.403748,825.59375,237.058594C826.299805,236.872772,827.008301,236.695648,827.71875,236.527344C828.817871,236.304794,829.937195,236.19754,831.058594,236.207031C831.526367,236.208801,831.993958,236.222931,832.460938,236.25L833.882813,236.363281C835.334045,236.523804,836.780823,236.719147,838.222656,236.949219C839.640259,237.182495,841.063904,237.376587,842.492188,237.53125C843.390442,237.62204,844.29248,237.670303,845.195313,237.675781C846.038513,237.677902,846.88031,237.606232,847.710938,237.460938C848.104492,237.390198,848.493347,237.295074,848.875,237.175781C850.012451,236.85231,851.158875,236.560516,852.3125,236.300781C853.728088,235.979752,855.137756,235.637405,856.542969,235.273438C856.70752,235.236023,856.868286,235.183472,857.023438,235.117188C857.324524,234.93013,857.582703,234.682663,857.789063,234.394531C858.147461,233.90744,858.471069,233.395676,858.757813,232.863281C859.19342,232.059753,859.631897,231.249817,860.066406,230.445313C860.304749,229.997208,860.56781,229.562668,860.855469,229.144531C861.027954,228.886292,861.228577,228.648102,861.453125,228.433594C861.570435,228.314362,861.71521,228.22525,861.875,228.175781C862.909912,227.877319,863.961121,227.638702,865.023438,227.460938C865.705872,227.352722,866.395081,227.29248,867.085938,227.28125C868.016479,227.276047,868.946716,227.240875,869.875,227.175781L915.339844,227.738281z"/>
    <path transform="matrix(-1,0,0,-1,0,0)" style="stroke:#000000;stroke-width:0.05mm;fill:none" d="M921.46875,670.09375L921.042969,670.199219C920.788696,670.279968,920.540894,670.379822,920.304688,670.503906C919.955444,670.688232,919.625183,670.90625,919.316406,671.152344C919.114319,671.327515,918.927734,671.51947,918.753906,671.722656L918.527344,672.046875C918.433289,672.217041,918.354675,672.395142,918.289063,672.578125L918.242188,672.765625C918.220642,672.892273,918.207458,673.020081,918.203125,673.148438C918.20459,675.705444,918.453247,678.256348,918.945313,680.765625C919.103882,681.548706,919.311523,682.320923,919.566406,683.078125C919.693359,683.43634,919.851685,683.782593,920.039063,684.113281L920.144531,684.273438C920.41095,684.595337,920.690674,684.905884,920.984375,685.203125C922.016296,686.300354,923.097046,687.350708,924.222656,688.351563C924.490906,688.582275,924.77832,688.789978,925.085938,688.964844L925.175781,688.996094L925.265625,689.023438C925.324097,689.016174,925.381104,689.001404,925.4375,688.984375C925.538757,688.97229,925.640503,688.967102,925.742188,688.960938C926.037781,688.974121,926.33252,689.002197,926.625,689.046875C927.552002,689.209167,928.463135,689.452026,929.347656,689.773438C930.465454,690.173767,931.61377,690.48291,932.78125,690.699219C933.05072,690.743225,933.321716,690.777283,933.59375,690.800781C933.85437,690.813049,934.115295,690.802368,934.375,690.777344C936.716064,690.645325,939.031189,690.218689,941.265625,689.507813C941.670593,689.373047,942.070068,689.222229,942.460938,689.050781C942.850952,688.875244,943.231506,688.679382,943.601563,688.464844L944.503906,687.855469C945.016174,687.470093,945.537476,687.079224,946.050781,686.695313L946.316406,686.511719C946.499939,686.395325,946.686218,686.283447,946.875,686.175781L947.089844,685.902344L947.273438,685.605469L947.363281,685.414063L947.425781,685.226563C947.456848,685.098755,947.483887,684.96991,947.503906,684.839844L947.515625,684.644531L947.484375,684.25L947.414063,683.863281C947.334167,683.588928,947.235962,683.320251,947.121094,683.058594C946.848755,682.489624,946.563904,681.92688,946.265625,681.371094C945.936401,680.757446,945.676392,680.10907,945.492188,679.4375C945.190979,678.293518,944.723389,677.200195,944.105469,676.191406C943.943909,675.947327,943.772766,675.709717,943.585938,675.484375L943.433594,675.320313C943.221008,675.117188,943.003052,674.919617,942.78125,674.726563C942.536499,674.486877,942.294067,674.245056,942.054688,674C941.646057,673.590637,941.197388,673.223145,940.710938,672.910156L940.183594,672.609375L939.640625,672.34375L939.074219,672.121094C937.446045,671.53772,935.77063,671.095764,934.066406,670.800781C933.454346,670.699402,932.837708,670.628235,932.21875,670.585938C930.973145,670.523682,929.725037,670.532715,928.480469,670.613281C927.617065,670.68689,926.752258,670.744446,925.886719,670.785156C925.195862,670.819641,924.503967,670.829468,923.8125,670.8125C923.397278,670.793457,922.983948,670.74231,922.578125,670.652344L922.363281,670.585938L922.1875,670.503906L922.046875,670.40625L921.941406,670.300781C921.910828,670.245728,921.879089,670.191284,921.847656,670.136719C921.81366,670.118103,921.777405,670.105286,921.742188,670.089844C921.651001,670.085083,921.559631,670.084839,921.46875,670.09375z"/>
    <path transform="matrix(-1,0,0,-1,0,0)" style="stroke:#000000;stroke-width:0.05mm;fill:none" d="M876.796875,666.914063C876.190674,666.933655,875.585754,666.983521,874.984375,667.0625L873.691406,667.257813L872.109375,667.570313L870.539063,667.941406L868.984375,668.363281C868.219421,668.589539,867.458801,668.830383,866.703125,669.085938C865.961792,669.3396,865.230774,669.622253,864.511719,669.933594C864.31543,670.020752,864.125061,670.120789,863.945313,670.238281L863.898438,670.273438L863.875,670.300781L863.855469,670.328125C863.865906,670.361084,863.878357,670.393494,863.890625,670.425781L863.902344,670.519531C863.890869,670.597595,863.879089,670.675903,863.867188,670.753906C863.836426,670.851318,863.802063,670.94751,863.765625,671.042969C863.709473,671.154907,863.653137,671.266602,863.597656,671.378906C863.268616,671.948792,862.870911,672.475769,862.417969,672.953125C861.9375,673.454529,861.503723,673.998596,861.121094,674.578125L861.039063,674.714844L860.921875,674.949219C860.904175,675.00647,860.887207,675.063416,860.871094,675.121094L860.875,675.183594L860.894531,675.222656L860.9375,675.304688L860.929688,675.421875L860.882813,675.5625C860.817688,675.681458,860.745422,675.796204,860.671875,675.910156C860.480469,676.154236,860.265808,676.379089,860.03125,676.582031C859.765869,676.80542,859.521729,677.052917,859.300781,677.320313L859.105469,677.566406L858.925781,677.824219L858.773438,678.125L858.679688,678.425781L858.648438,678.726563L858.679688,679.035156L858.714844,679.191406C858.774902,679.359131,858.84198,679.524292,858.921875,679.683594L859.109375,679.980469L859.3125,680.265625C859.455811,680.451538,859.609192,680.629333,859.769531,680.800781C861.351379,682.468079,863.168518,683.895081,865.164063,685.035156C865.487366,685.220337,865.827454,685.374695,866.179688,685.496094C866.525635,685.605164,866.876587,685.697693,867.230469,685.777344L868.25,685.964844L869.28125,686.09375L870.316406,686.167969C870.886597,686.186523,871.457275,686.184814,872.027344,686.164063C872.698608,686.132446,873.366089,686.045593,874.023438,685.90625L874.460938,685.792969C875.599487,685.378235,876.766602,685.046631,877.953125,684.800781C878.951721,684.644958,879.9151,684.314209,880.796875,683.820313L881.109375,683.617188C881.270813,683.499573,881.421265,683.367798,881.5625,683.226563C882.087524,682.678711,882.55481,682.078491,882.960938,681.4375C884.294739,679.354309,885.322571,677.090515,886.011719,674.714844C886.162903,674.203857,886.278809,673.683044,886.359375,673.15625C886.409241,672.822754,886.427307,672.485413,886.414063,672.148438L886.375,671.792969L886.3125,671.4375L886.179688,670.929688L886.003906,670.433594L885.820313,670.019531L885.597656,669.625C885.511353,669.501831,885.417969,669.38385,885.320313,669.269531L885.191406,669.160156L885.070313,669.105469L885.015625,669.097656L884.964844,669.109375L884.886719,669.164063L884.820313,669.234375L884.757813,669.277344L884.683594,669.300781L884.605469,669.316406L884.414063,669.308594C884.242798,669.275635,884.076294,669.221558,883.917969,669.148438L883.652344,669.027344C882.956787,668.664307,882.256287,668.300964,881.558594,667.941406L880.863281,667.632813C880.394165,667.443298,879.915527,667.278076,879.429688,667.136719C878.765869,666.977173,878.085083,666.898621,877.402344,666.902344L876.796875,666.914063z"/>
    <path transform="matrix(-1,0,0,-1,0,0)" style="stroke:#000000;stroke-width:0.05mm;fill:none" d="M903.839844,638.570313L903.804688,638.589844L903.773438,638.628906C903.76001,638.679565,903.746948,638.730347,903.734375,638.78125C903.698059,638.860718,903.66095,638.939819,903.617188,639.015625L903.535156,639.132813C903.214111,639.532104,902.855957,639.900269,902.460938,640.226563C901.508057,641.033569,900.529785,641.810181,899.527344,642.554688C897.960144,643.729492,896.417297,644.935059,894.898438,646.171875C893.865417,647.015381,892.881836,647.917786,891.953125,648.875C891.403625,649.44281,890.908813,650.061218,890.476563,650.722656C890.245911,651.084778,890.060364,651.473816,889.929688,651.882813L889.863281,652.113281C889.795715,652.394714,889.783081,652.686829,889.828125,652.972656L889.875,653.175781L889.984375,653.484375C890.109558,653.798584,890.281311,654.091858,890.488281,654.359375C890.639404,654.549316,890.801758,654.72998,890.972656,654.902344C891.586731,655.478943,892.282104,655.962341,893.035156,656.339844C893.770081,656.715393,894.533081,657.03302,895.316406,657.292969C895.806702,657.461243,896.302979,657.611694,896.804688,657.742188C898.671387,658.223022,900.577454,658.535645,902.5,658.675781C904.846619,658.874023,907.208252,658.805298,909.539063,658.46875C910.220398,658.361816,910.89563,658.218994,911.5625,658.042969L912.300781,657.8125L913.019531,657.535156L913.71875,657.207031L914.03125,657.027344C914.34082,656.841858,914.630981,656.625366,914.894531,656.378906C915.127319,656.160828,915.331482,655.913818,915.496094,655.640625C915.599121,655.465271,915.682068,655.278992,915.746094,655.085938L915.824219,654.792969C915.862915,654.5896,915.879333,654.382751,915.875,654.175781L915.84375,653.792969L915.78125,653.414063C915.659241,652.882568,915.468445,652.369446,915.214844,651.886719C914.865051,651.238831,914.451721,650.627502,913.984375,650.058594C913.283386,649.221802,912.526489,648.433533,911.71875,647.699219C910.851257,646.907654,909.972351,646.129089,909.082031,645.363281C908.690491,645.009033,908.320007,644.63208,907.972656,644.234375L907.488281,643.265625C906.984863,642.309021,906.421021,641.385376,905.800781,640.5C905.417847,639.942566,904.98175,639.423828,904.5,638.949219L904.386719,638.847656C904.32074,638.794983,904.253784,638.743774,904.1875,638.691406C904.110291,638.646729,904.031067,638.605774,903.949219,638.570313L903.839844,638.570313z"/>
</svg>
