<?xml version="1.0" encoding="UTF-8"?>
<svg xmlns="http://www.w3.org/2000/svg" width="176.442mm" height="198.847mm" viewBox="-989.026001 -711.483276 176.441528 198.847168">
    <path transform="matrix(-0.26455,0,0,-0.26455,-783.748474,-503.82901)" style="stroke:#000000;stroke-width:0.05mm;fill:none" d="M381.590027,783.470154C379.989563,782.635498,374.587036,778.195496,369.584442,773.603455C364.581848,769.011414,358.589752,763.734558,356.268707,761.877136C353.947632,760.019714,347.42514,754.450012,341.774292,749.5C336.123413,744.549988,329.924988,739.311523,328,737.858887C322.676239,733.841614,302.084229,713.301819,286.279724,696.244446C263.549927,671.71283,256.681458,658.464478,249.603043,625.5C244.508636,601.775208,244,599.054382,244,595.527832C244,591.381287,243.156097,590.897217,232.824051,589.11731C219.712311,586.858582,193.166245,575.607178,184.596893,568.676575C182.343597,566.854187,178.33046,563.887756,175.678787,562.084534C173.027115,560.281311,169.427109,556.657104,167.678787,554.030701C165.93045,551.404358,161.219391,544.810486,157.209747,539.377747C153.200119,533.945007,146.351227,524.099976,141.990005,517.5C137.628784,510.899994,130.10939,500.726807,125.280258,494.892883C110.98748,477.626282,109,474.535095,109,469.571716C109,464.708008,110.650032,460.19812,114.856049,453.565948C116.680313,450.689362,117.957207,447.02121,118.376678,443.452148C119.26149,435.923798,121.949959,431.020813,128.998734,424.080627C133.552643,419.596893,136.492615,417.678467,141.857574,415.68985C154.398209,411.041473,162.059418,406.723328,168.112717,400.891418C176.325363,392.979126,179.20871,386.434113,179.21965,375.679321C179.224716,370.704712,178.601303,365.736877,177.62854,363C176.389069,359.512756,176.025833,354.412537,176.014557,340.337982C175.992569,312.910645,179.209549,299.78244,191.657593,276.5C204.720261,252.067947,212.116501,241.991791,234.5,218.134277C241.976624,210.165298,254.124481,199.958542,264.176544,193.199738C268.398651,190.36087,272.125702,187.179337,272.458862,186.129639C272.792023,185.079941,272.822693,177.75885,272.527039,169.86055C271.963043,154.794647,273.746338,131.109009,276.654297,115.041901C278.995941,102.103912,279.582306,88.728149,277.870117,87.307175C277.102356,86.669983,271.598206,84.517281,265.638672,82.523392C259.679169,80.529495,253.063217,77.746674,250.936584,76.33934C238.463165,68.084824,233.672745,49.484524,241.595352,40.069054C245.580963,35.332413,251.269867,34.488663,278.574402,34.584499C302.496033,34.668465,302.698792,34.687237,310.528381,37.542843C320.652649,41.235374,328.673187,48.825283,334.259674,60C342.512268,76.507828,348.359192,91.111526,351.475677,103C356.863281,123.552101,358.987701,131.32103,359.307465,131.640808C359.47406,131.807388,361.922668,130.386444,364.748871,128.483185C375.337341,121.352486,416.874207,106.127052,434.292542,102.991783C440.456635,101.882263,446.399994,100.688629,447.5,100.339272L449.5,99.704071L447.5,98.922318C446.399994,98.492355,442.799988,98.1064,439.5,98.064629C428.329132,97.923241,390.556793,93.108482,381,90.607758C368.799316,87.415199,354.738007,80.51075,348.918732,74.855064C343.4711,69.560577,339.002533,59.337975,338.264801,50.482353C337.797699,44.875305,337.963959,44.250092,340.70163,41.319393C346.34729,35.275696,344.723419,35.386673,412.986267,36.379292C443.287201,36.819901,460.980957,36.685539,465.986267,35.976833C470.118835,35.391701,486.325012,34.726715,502,34.499088C517.674988,34.271461,534.937805,33.788906,540.361755,33.426746C551.207703,32.702549,564.964355,34.801212,593.5,41.533337C601.200012,43.349915,610.875,45.577534,615,46.483593C619.125,47.389656,626.306946,49.789009,630.9599,51.815491L639.4198,55.5L652.9599,48.90139C670.193176,40.502956,676.334473,38.421127,691.272095,35.914063C709.175659,32.909203,723.736328,34.875328,738.939026,42.350513C745.754517,45.701683,749.03656,48.181244,755.998535,55.238781C766.307434,65.689232,771.069275,73.362732,774.011108,84.265327C777.128601,95.818909,776.536194,104.225739,771.953857,113.460487C767.788025,121.855751,763.54303,125.352272,748.395691,132.864746C742.109802,135.9823,738.005127,138.591431,738.266785,139.303223C738.980042,141.243698,743.552246,155.932861,745.798401,163.5C751.706299,183.403763,755,208.848053,755,234.583923C755,261.512695,747.427063,293.566315,733.520264,325.5C720.002014,356.541443,707.670166,374.077576,682.958862,397.399536C667.042297,412.421204,646.375488,428.689026,632.866699,436.829437C616.138,446.910187,586.848267,458.210266,569,461.469482C555.860596,463.868805,533.334839,464.911591,514.5,463.992462C499.356659,463.253479,485.313446,461.294891,464.5,457.019043C461.75,456.454071,455,455.299377,449.5,454.453003C444,453.606628,436.125,452.28421,432,451.514252C404.443085,446.370667,399.851685,445.742615,393.329987,446.224579C388.775269,446.561188,385.258209,447.469177,382.772339,448.950256C377.841827,451.887848,372.59552,459.209869,370.608185,465.927216C369.062775,471.150818,366.487183,497.123444,367.168549,500.61319C367.46347,502.12381,369.042847,502.291382,381.5,502.133759C389.200012,502.036316,397.975006,502.403412,401,502.949493C404.024994,503.495605,409.875,504.435333,414,505.037811C428.521698,507.158783,438.566803,509.126434,445,511.110199C448.575012,512.212585,454.200012,513.952637,457.5,514.976929C460.799988,516.001221,466.875,517.380615,471,518.042236C475.125,518.703857,481.424988,520.2724,485,521.527893C488.575012,522.783447,494.200012,524.560303,497.5,525.476501C503.604675,527.171448,529.976807,540.00116,542.273193,547.258118C545.998413,549.456665,551.077881,553.560486,553.560852,556.377747C561.427368,565.303284,568.988647,575.443726,568.994446,577.075684C568.997498,577.942322,567.907532,579.677734,566.572266,580.932129C564.492859,582.88562,563.452515,583.12561,559.322266,582.604675C556.669983,582.270203,547.248352,581.720947,538.385193,581.384094C523.732117,580.827271,521.056274,581.003845,508.885193,583.331055C501.523346,584.738647,490.549988,586.628662,484.5,587.531006C478.450012,588.433411,471.924988,589.569397,470,590.055481C466.092621,591.042175,456.90921,592.414001,440.5,594.46228C430.194031,595.748718,410.087677,595.763916,398.902435,594.493652C392.70105,593.789429,378.748657,588.652283,372,584.588379C351.996063,572.54248,331.786804,563.247131,328.257538,564.468811C327.290894,564.803406,324.055573,567.269104,321.067932,569.948059C315.702026,574.759583,315.656769,574.847473,317.353577,577.159485C318.29834,578.446777,323.064148,585.575012,327.944305,593C332.824432,600.424988,338.545898,609.114563,340.65863,612.31012C342.771393,615.505676,346.299988,621.169739,348.5,624.896912C350.700012,628.624084,353.662323,633.209534,355.082977,635.086792C367.112244,650.982544,384.978455,694.630005,389.840485,720C393.875763,741.05603,394.504852,752.246521,392.513031,767.539978C390.281311,784.675293,388.600769,787.126221,381.590027,783.470154z"/>
</svg>
