<?xml version="1.0" encoding="UTF-8"?>
<svg xmlns="http://www.w3.org/2000/svg" width="273.991mm" height="203.335mm" viewBox="-603.169128 -537.615601 273.991302 203.334595">
    <path transform="matrix(-1,0,0,-1,0,0)" style="stroke:none;fill:#000000;fill-rule:evenodd" d="M440.530029,403.155762C440.067139,396.719452,439.267212,390.307587,438.134705,383.954865C437.657715,380.261383,436.575989,369.421204,436.238098,364.947937L436.305542,355.763367L435.523987,356.246399C435.566162,353.197388,435.237244,350.154572,434.544312,347.185028L434.054504,348.632202L433.774353,345.278748C433.6203,343.434326,433.018066,340.718506,432.436035,339.243591C432.039368,337.641693,431.791443,336.006622,431.695587,334.359131L429.54718,334.281006C428.070618,334.327881,424.622894,334.650085,419.703491,334.593506C418.277039,334.577087,417.279724,334.460693,416.85199,334.437256C416.605896,334.484131,415.560486,334.258575,415.211365,334.749756C414.461304,335.804932,416.148376,337.772003,416.22699,338.304413L416.388794,340.357117C416.486755,340.665833,418.651367,342.415131,418.935364,342.415131L420.828674,342.415131C421.198975,342.448914,422.587311,341.971313,423.297241,342.64032C424.243683,343.532257,423.489197,344.284393,423.791992,345.907806C424.195801,348.072784,424.747437,349.226013,424.747437,350.210205C425.103638,353.154083,425.081787,356.131439,424.682739,359.069824C424.531067,362.572205,424.373352,371.609802,424.332275,379.153412C424.271332,391.285309,423.37149,403.394165,421.63855,415.401855C419.355896,421.545166,415.467407,426.979065,410.389343,431.12207L404.315857,437.285889L404.825378,439.234131L400.347046,442L400.348145,443.394135C399.220642,444.521606,400.80542,445.282288,400.280396,445.282288C398.923218,445.282288,396.716614,449.989716,395.917786,454.589355C395.543457,456.744629,394.804382,460.168213,394.275452,462.197266C393.160706,466.648102,391.891602,471.059082,390.47052,475.421722C389.242859,476.948975,388.574646,478.472717,387.346985,480L385.559937,482.318604C385.559937,483.481812,379.616211,492.683319,378.34314,493.490967C376.738586,494.508911,369.189758,496.041626,361.346985,496.000031C356.668823,496.817871,350.413635,495.302673,346.372437,495.317535L339.02478,495.344543L336.817139,496.789764C335.602966,497.584656,333.455383,500.063232,332.0448,502.297729C329.931335,505.124176,328.933838,508.604156,329.227905,512.121094L330.697449,512.944214C332.944397,514.20282,338.41217,516.488892,344.782776,518.833374L350.540833,520.952393L351.952637,524.546631L353.364502,528.140869L357.898682,531.042419C360.392517,532.638306,364.219788,534.690918,366.40387,535.60376C369.337341,537.438965,372.872803,538.052307,376.25293,537.312134L382.131042,537.36084L385.070129,535.843079C386.686584,535.008301,389.016785,533.249878,390.248352,531.935486C391.479919,530.621094,394.800171,527.837219,397.62677,525.749146C406.110962,519.481445,425.283936,501.541931,426.346985,499C428.821472,497.861084,431.276245,496.742798,433.759583,495.623047C435.538269,494.807739,437.669312,493.78421,438.495239,493.348572C439.92157,492.596191,442.799744,491.85614,448.259949,490.837769C449.606995,490.586548,452.031738,490.13446,453.648224,489.833191C455.264709,489.531921,459.893738,488.442688,463.934937,487.41272L471.282593,485.540039L502.632599,484.519592C507.335083,484.366516,539.395386,482.39093,540.350586,482.195343L546.718506,480.891541C548.762817,480.457825,553.706055,480.016449,560.346985,478C562.91394,477.220581,564.596985,476.299988,565.346985,476C566.936768,475.066162,571.588501,473.885712,575.945862,469.774475C579.287659,466.62149,579.325073,466.18811,581.184509,461.937012C582.280457,459.431396,582.286255,457.344452,582.480652,456.533997L583.776794,451.131042L582.625916,439.144531C581.99292,432.552002,581.504944,425.174225,581.541504,422.749512C581.551514,422.088226,581.222656,420.481812,581.608032,418.340881C581.926025,416.574127,582.642578,415.426331,582.825134,414.911987C583.356445,411.455322,585.425293,408.417877,588.447266,406.657562C590.173706,405.204834,594.165771,402.714142,597.31842,401.122681L603.050537,398.229095C603.050537,397.955658,603.050537,397.408752,603.050537,397.135315C603.050537,396.971252,603.320435,396.27121,603.050537,396.041565C602.217285,395.332642,600.217529,396.501312,599.717529,396.582428C597.884399,396.879913,593.870422,398.35437,590.797546,399.859009C589.959473,400.269348,587.618591,400.729279,585.210571,402.594696C583.261902,404.104218,582.428101,405.845367,581.937073,406.419006C581.446045,406.992645,579.751953,408.058044,578.663574,410.243317C578.050842,411.473694,578.14679,412.596344,578.055542,413.011597L577.447571,415.779877L575.848206,415.166138L575.42395,414.160706C576.07019,413.945282,576.60083,413.2547,576.603088,412.626038C576.608765,411.049347,581.166016,402.202637,582.95166,400.30191C583.755005,399.446777,587.055847,395.383759,590.286865,391.272949L598.021912,383.312195C598.301025,383.239197,598.833557,381.600006,599.346985,381C600.496826,379.65625,600.25,379.183075,600.31488,378.540283C600.552734,376.18335,600.544006,371.26532,600.295532,367.611359C599.292114,362.557373,599.809326,357.319336,601.781982,352.559235C602.032349,349.222504,602.128784,345.876404,602.070862,342.530762L601.091187,341.925293L601.091187,339.055145C601.091187,338.785736,600.183594,338.07959,599.074341,337.485931C597.741577,336.133881,595.622803,335.953186,594.080566,337.060394C590.260193,338.091003,586.282715,338.409515,582.346985,338L580.829285,340.212189L582.538391,343.104065C581.379395,344.598602,581.398193,346.693451,582.58429,348.166565C582.604614,350.284882,584.182617,352.064484,586.283325,352.338165L589.079834,353.933838L588.31604,358.706116C587.333984,364.842072,583.933472,373.874634,581.386353,377.112732C579.731812,379.411011,577.93811,381.606598,576.016113,383.686279C574.989624,384.832306,568.921997,389.984253,562.532532,395.13501L550.915283,404.500092C546.915161,409.707275,543.019043,414.991943,539.227661,420.353241C537.568481,422.663574,534.979492,425.733704,533.474304,427.175781L530.73761,429.797668L526.278076,427.184265L521.818604,424.570801L519.088074,424.884766L516.357544,425.19873L515.832153,428.137756L515.306824,431.076843L509.419708,430.859589C504.421265,431.158997,499.425964,430.222839,494.875244,428.133545C490.113708,426.753693,482.196167,423.925201,477.280701,421.847992C466.929291,416.421722,455.239838,414.015411,443.586853,414.911987L442.015686,412.514099L440.444519,410.116211C441.754364,407.992523,441.787598,405.310791,440.530029,403.155762z"/>
</svg>
