<?xml version="1.0" encoding="UTF-8"?>
<svg xmlns="http://www.w3.org/2000/svg" width="426.664mm" height="445.766mm" viewBox="-1150.386719 -602.476563 426.664429 445.765625">
    <path transform="matrix(-1,0,0,-1,0,0)" style="stroke:none;fill:#000000;fill-rule:evenodd" d="M748.765625,459.40625C750.925232,459.822083,753.091248,460.20755,755.261719,460.5625L759.023438,461.214844C761.486267,461.703003,763.925049,462.305267,766.332031,463.019531C768.073669,463.502106,769.831238,463.92569,771.601563,464.289063C772.063416,464.462677,772.468689,464.758148,772.785156,465.136719C773.33844,465.790436,773.80365,466.513977,774.167969,467.289063C776.991943,472.906372,779.886353,478.486877,782.851563,484.03125L783.523438,485.296875C787.109375,492.077515,790.641602,498.716675,794.261719,505.480469C796.419189,509.287354,798.625,513.066101,800.878906,516.816406C802.79187,520.04895,804.699097,523.310425,806.578125,526.5625C806.840332,526.870483,807.141296,527.143005,807.472656,527.375C807.904785,527.072937,808.197693,526.609802,808.285156,526.089844C809.050415,520.670776,809.741455,515.246399,810.359375,509.808594C811.455322,500.104187,812.607666,490.336853,813.800781,480.644531C814.106323,478.254944,814.430786,475.864929,814.773438,473.480469C814.854248,472.894867,815.109863,472.34729,815.507813,471.910156C815.87146,471.569519,816.363586,471.399567,816.859375,471.449219C825.625977,472.684265,834.41394,473.80072,843.210938,474.796875C843.869751,474.867462,844.442139,475.281097,844.710938,475.886719C844.896118,476.340607,844.950989,476.838013,844.863281,477.320313C844.34021,481.729065,843.746338,486.129974,843.082031,490.519531C845.435791,490.617859,847.787109,490.775452,850.132813,490.992188C854.84082,491.362976,859.540649,491.841064,864.226563,492.425781C865.354797,492.585022,866.472534,492.810883,867.574219,493.101563C868.863953,493.546753,869.835022,494.621277,870.148438,495.949219C870.306152,496.618347,870.429688,497.295013,870.519531,497.976563C870.949768,500.721039,871.540649,503.437927,872.289063,506.113281C872.505554,506.858337,872.82312,507.57016,873.230469,508.230469C873.299438,508.339172,873.399292,508.424438,873.511719,508.488281C873.964844,508.642456,874.433838,508.746063,874.910156,508.792969C878.138489,509.19989,881.379822,509.49173,884.628906,509.667969C890.640015,510.093506,896.66217,510.355347,902.6875,510.453125C904.16095,510.469025,905.634277,510.408875,907.101563,510.273438C907.316589,510.232178,907.528625,510.176483,907.734375,510.101563C908.05542,509.836945,908.314209,509.504944,908.492188,509.128906C909.05072,508.064117,909.509583,506.949982,909.863281,505.800781C910.336487,504.329803,910.765198,502.844604,911.148438,501.347656C911.518494,499.948425,912.031677,498.591034,912.679688,497.296875C912.967957,496.777527,913.329895,496.302734,913.753906,495.886719C914.097107,495.586609,914.526428,495.404358,914.980469,495.363281C916.536804,495.206116,918.099854,495.124146,919.664063,495.117188C924.876099,495.056366,930.085938,495.086334,935.296875,495.207031C937.202698,495.275696,939.100952,495.483215,940.976563,495.828125C941.643066,495.964233,942.280212,496.217407,942.859375,496.574219C945.125122,491.809601,948.036621,487.379852,951.511719,483.410156C954.735962,479.698029,958.435852,476.427795,962.515625,473.683594C968.269348,469.87442,974.720154,467.241791,981.496094,465.9375C988.018616,464.614471,994.703796,464.287781,1001.324219,464.96875C1011.996399,466.096863,1022.070007,470.458252,1030.195313,477.46875C1034.7854,481.341217,1038.762817,485.886017,1041.992188,490.949219C1042.436157,491.653839,1042.863403,492.368835,1043.273438,493.09375C1044.413574,492.851379,1045.561157,492.646881,1046.714844,492.480469C1053.179565,491.472137,1059.665527,490.604706,1066.167969,489.878906C1067.460327,489.758118,1068.756836,489.686279,1070.054688,489.664063C1070.415283,489.667023,1070.775269,489.691254,1071.132813,489.738281L1071.316406,489.8125L1071.484375,489.910156C1071.838379,490.211761,1072.145508,490.56424,1072.394531,490.957031C1073.459839,492.756683,1074.502808,494.569183,1075.523438,496.394531L1077.9375,500.574219C1081.360962,506.16626,1084.857788,511.718994,1088.421875,517.222656L1089.960938,519.628906C1090.610352,520.54425,1091.563843,521.199341,1092.652344,521.472656C1093.641724,521.756836,1094.671509,521.875061,1095.699219,521.816406C1096.012695,521.814514,1096.325806,521.794373,1096.636719,521.753906C1096.586792,521.750916,1096.537842,521.754822,1096.488281,521.746094C1098.634155,521.286804,1100.789551,520.874084,1102.953125,520.507813L1104.902344,520.136719L1105.027344,520.058594C1105.106689,519.996887,1105.178467,519.925598,1105.230469,519.839844L1105.300781,519.710938C1105.479248,519.109558,1105.532104,518.478271,1105.457031,517.855469C1105.359619,516.845947,1105.197021,515.843689,1104.96875,514.855469C1104.034668,510.551056,1102.952148,506.280396,1101.722656,502.050781C1100.634399,498.180237,1099.621094,494.288788,1098.683594,490.378906C1098.365601,488.976654,1098.079102,487.567413,1097.824219,486.152344C1097.810913,485.998871,1097.799072,485.845337,1097.808594,485.691406C1097.837646,485.539001,1097.872925,485.387878,1097.914063,485.238281L1097.976563,485.121094L1098.058594,485.015625L1098.15625,484.925781L1098.265625,484.851563C1102.00061,483.884094,1105.764282,483.02948,1109.550781,482.289063C1114.429199,481.265808,1119.328491,480.335693,1124.242188,479.5C1125.195068,479.333069,1126.161621,479.258331,1127.128906,479.273438C1127.449463,479.299072,1127.762329,479.381744,1128.054688,479.515625L1128.261719,479.632813C1128.396118,479.71994,1128.525024,479.815277,1128.644531,479.921875C1128.784546,480.067444,1128.910522,480.2258,1129.015625,480.398438C1129.122314,480.616364,1129.206665,480.844727,1129.257813,481.082031C1130.47998,486.990356,1131.585205,492.919464,1132.574219,498.871094C1133.781372,506.226013,1135.026001,513.549072,1136.316406,520.890625C1137.224854,525.984253,1138.248779,531.058044,1139.386719,536.105469C1142.102295,548.75946,1145.189819,561.332458,1148.644531,573.804688C1149.197266,575.766846,1149.770508,577.725159,1150.363281,579.675781L1150.386719,579.820313C1150.385986,579.914185,1150.381836,580.007935,1150.375,580.101563C1150.347656,580.191956,1150.317139,580.281128,1150.289063,580.371094C1150.248047,580.455688,1150.200317,580.536499,1150.152344,580.617188C1149.682373,581.140503,1149.093384,581.542786,1148.4375,581.796875C1147.649536,582.120239,1146.83728,582.380615,1146.007813,582.574219C1140.863403,583.916809,1135.690552,585.14624,1130.492188,586.261719C1119.756958,588.659607,1108.955688,590.751648,1098.101563,592.535156C1091.059082,593.628906,1083.886719,593.581604,1076.859375,592.394531C1074.364624,591.935608,1071.922729,591.22644,1069.570313,590.277344C1065.376343,588.515442,1061.604492,585.883423,1058.503906,582.554688C1054.822876,578.576416,1052.33606,573.641846,1051.328125,568.316406C1050.421387,563.335144,1050.291016,558.243774,1050.941406,553.222656C1051.250244,551.082703,1051.805542,548.985962,1052.59375,546.972656C1053.327759,545.247314,1054.261475,543.613953,1055.375,542.105469C1056.773193,540.124146,1058.331909,538.261169,1060.035156,536.535156C1061.099976,535.436401,1062.181274,534.352661,1063.277344,533.285156C1063.616455,532.910339,1063.881836,532.475891,1064.0625,532.003906L1064.09375,531.855469L1064.117188,531.707031L1064.09375,531.425781C1061.365479,527.660156,1058.717163,523.835632,1056.152344,519.957031C1053.886719,516.602173,1051.661499,513.225403,1049.472656,509.820313C1050.736328,515.882202,1051.009644,522.108643,1050.28125,528.257813C1049.439697,534.984741,1047.337891,541.492859,1044.085938,547.441406C1042.01123,551.293945,1039.5271,554.911377,1036.675781,558.230469C1033.699707,561.538147,1030.255615,564.392517,1026.453125,566.703125C1021.942505,569.476685,1017.08551,571.642822,1012.007813,573.144531C997.519043,577.529724,981.94342,576.621399,968.0625,570.582031C964.162354,568.844177,960.508545,566.599548,957.195313,563.90625C955.249146,562.282837,953.438538,560.503296,951.78125,558.585938C947.619324,553.899292,944.22113,548.587036,941.710938,542.84375C938.899841,536.261475,937.442505,529.180786,937.425781,522.023438C937.385315,518.810181,937.6073,515.598938,938.089844,512.421875C936.524353,516.664978,934.92511,520.908386,933.300781,525.128906C929.785645,534.401245,926.239258,543.606445,922.625,552.839844C916.637817,567.932495,910.244751,582.861389,903.453125,597.609375C903.055054,598.516052,902.677246,599.431824,902.320313,600.355469C902.21698,600.605042,902.098938,600.848328,901.957031,601.078125C901.694214,601.507996,901.359009,601.889221,900.964844,602.203125L900.824219,602.285156C900.63501,602.396729,900.422302,602.463318,900.203125,602.476563L900.039063,602.476563L899.875,602.457031C897.285583,602.306763,894.703918,602.046021,892.136719,601.675781C888.797424,601.227295,885.431763,601.004089,882.0625,601.007813L879.574219,601.015625C877.306274,601.060669,875.037231,601.011108,872.773438,600.867188C872.114868,600.715576,871.529236,600.338379,871.125,599.796875C870.617676,599.165955,870.230286,598.447144,869.984375,597.675781C864.362305,583.678955,859.334717,569.452393,854.914063,555.03125C852.753052,547.981812,850.671753,540.89856,848.675781,533.800781C845.945313,524.370239,843.296875,514.924561,840.726563,505.449219C839.666199,511.934509,838.719788,518.434448,837.886719,524.953125C837.20752,531.210876,836.647705,537.478577,836.207031,543.757813C835.577759,552.943665,834.888794,562.131226,834.140625,571.308594C833.96228,573.461914,833.747437,575.611816,833.496094,577.757813C833.382935,578.15387,833.096191,578.47699,832.714844,578.632813C832.110718,578.871582,831.460022,578.969849,830.8125,578.917969C826.378235,578.442627,821.926941,578.145508,817.46875,578.027344C815.171936,578.026245,812.875854,578.084961,810.582031,578.203125C808.687866,578.269714,806.791443,578.187256,804.910156,577.957031C804.515991,577.845459,804.163025,577.622742,803.886719,577.320313C803.214111,576.633606,802.648438,575.849976,802.207031,574.996094C798.850342,568.745239,795.297974,562.601929,791.554688,556.574219C787.665283,550.333374,784.005554,543.953247,780.582031,537.445313C779.559937,535.488342,778.560669,533.522278,777.582031,531.542969C776.236938,529.018799,774.857178,526.510742,773.445313,524.023438C771.759033,521.009216,770.126953,517.963684,768.550781,514.890625C768.079224,514.015625,767.425964,513.251404,766.632813,512.652344C766.378113,512.490234,766.097412,512.37439,765.804688,512.300781L765.703125,512.304688L765.605469,512.328125L765.515625,512.375C765.181702,512.723755,764.933777,513.144836,764.789063,513.605469C764.31842,515.001648,763.960693,516.43335,763.71875,517.886719C762.866394,522.695923,762.119995,527.524963,761.480469,532.367188L760.375,540.605469C759.853271,544.632935,759.323975,548.639404,758.78125,552.664063C758.225159,556.703491,757.602539,560.734985,756.914063,564.753906C756.851013,565.111206,756.77301,565.465759,756.679688,565.816406C756.535767,566.272949,756.304382,566.69696,756,567.066406L755.839844,567.214844C755.614502,567.394348,755.341492,567.504089,755.054688,567.53125C754.908997,567.551208,754.761536,567.539978,754.617188,567.511719C749.668091,566.617615,744.704041,565.78241,739.734375,565.007813C734.700195,564.232666,729.688904,563.314331,724.707031,562.253906C724.581604,562.218933,724.46698,562.15564,724.359375,562.082031C724.043396,561.852844,723.828491,561.510315,723.765625,561.125C723.6875,560.645569,723.708801,560.155396,723.824219,559.683594C725.203979,553.609619,726.683105,547.560364,728.261719,541.535156C730.41217,533.379395,732.497864,525.208374,734.519531,517.019531C735.129639,514.526917,735.707764,512.026855,736.253906,509.519531L741.480469,485.265625L746.710938,461.011719C746.786133,460.455963,747.094666,459.957733,747.5625,459.648438C747.926636,459.439972,748.348633,459.360168,748.765625,459.40625M883.097656,534.933594C882.331116,534.957642,881.571472,535.086487,880.839844,535.316406C880.638,535.408569,880.448242,535.525513,880.28125,535.671875C880.197327,535.786804,880.136108,535.915405,880.082031,536.046875C879.926636,536.645935,879.89209,537.269714,879.976563,537.882813C880.228638,539.766113,880.580566,541.634583,881.03125,543.480469C882.0448,548.000732,883.192383,552.489319,884.472656,556.941406C885.214111,559.444824,886.082581,561.908936,887.074219,564.324219L887.332031,564.898438C889.30896,561.163513,891.088745,557.327454,892.664063,553.40625C894.477539,548.991089,896.202026,544.539246,897.835938,540.054688C898.122742,539.214478,898.363037,538.35907,898.554688,537.492188C898.571716,537.359802,898.569214,537.225891,898.550781,537.09375L898.503906,536.898438C898.365173,536.6604,898.164063,536.463074,897.917969,536.339844C897.139343,536.006348,896.317566,535.784546,895.476563,535.683594C892.948792,535.397095,890.412231,535.193787,887.871094,535.074219C886.283508,534.944031,884.690186,534.897034,883.097656,534.933594M1107.90625,539.984375C1103.267212,540.112061,1098.652466,540.69812,1094.128906,541.734375C1091.56958,542.347107,1089.132446,543.388428,1086.921875,544.816406C1085.416138,545.844849,1084.152222,547.189087,1083.222656,548.757813C1082.242798,550.478821,1081.750854,552.434082,1081.792969,554.414063C1081.804077,557.372131,1082.557617,560.279785,1083.984375,562.871094C1085.551636,565.693726,1088.167725,567.785767,1091.265625,568.695313C1092.266479,568.965881,1093.290527,569.142151,1094.324219,569.222656C1095.2771,569.314331,1096.234253,569.35321,1097.191406,569.339844C1101.445679,569.296997,1105.67981,568.749268,1109.804688,567.707031C1110.855103,567.411987,1111.870117,567.003235,1112.832031,566.488281C1113.319824,566.223083,1113.730713,565.835999,1114.015625,565.359375C1114.141724,565.087585,1114.185425,564.783813,1114.136719,564.488281C1113.993774,562.631287,1113.767212,560.781799,1113.457031,558.945313C1112.615601,553.595215,1111.628296,548.268921,1110.496094,542.972656L1109.949219,540.230469L1109.753906,540.128906L1109.546875,540.058594C1109.001953,540.001038,1108.454102,539.977234,1107.90625,539.984375M993.722656,492.882813C987.358887,492.885742,981.238342,495.327698,976.621094,499.707031C975.252197,501.013245,974.016724,502.452484,972.933594,504.003906C970.420593,507.479126,968.708984,511.467804,967.921875,515.683594C966.399963,524.201111,968.851257,532.947693,974.578125,539.433594C977.25885,542.585327,980.748779,544.946655,984.671875,546.261719C991.270264,548.553162,998.491577,548.25946,1004.882813,545.441406C1008.839722,543.652283,1012.251221,540.845276,1014.765625,537.304688C1016.77533,534.504272,1018.326233,531.401733,1019.359375,528.113281C1020.534363,524.217834,1020.804138,520.105469,1020.148438,516.089844C1019.265686,509.765717,1016.281555,503.922791,1011.675781,499.5C1007.752075,495.789368,1002.69165,493.510498,997.3125,493.03125C996.119995,492.908813,994.921204,492.859375,993.722656,492.882813"/>
    <path transform="matrix(-1,0,0,-1,0,0)" style="stroke:none;fill:#000000;fill-rule:evenodd" d="M948.776184,405.091095C949.026794,412.840698,949.334167,420.588165,949.698059,428.333282C949.997009,434.143768,950.329773,439.97171,950.694153,445.778595L950.674622,446.009064C950.597534,446.549591,950.201782,446.991455,949.674622,447.134064C949.316345,447.255432,948.939575,447.31366,948.56134,447.305939C941.307922,447.28067,934.05542,447.082733,926.81134,446.712189C916.27356,446.184479,905.728455,445.762604,895.182434,445.446564L886.43634,445.122345C881.873474,444.929169,877.315918,444.643951,872.764465,444.266876C871.575012,444.160858,870.440918,443.715576,869.49884,442.98172C868.836182,442.416016,868.43219,441.60495,868.37384,440.735626C868.132629,437.649231,868.016602,434.554047,868.026184,431.458282C867.981995,427.704346,867.989807,423.950348,868.049622,420.196564C868.05542,419.839386,868.1073,419.484039,868.209778,419.141876L868.291809,418.966095C868.531799,418.555969,868.961548,418.2948,869.43634,418.274689C869.682434,418.255188,869.929871,418.261871,870.174622,418.29422C871.492126,418.462189,872.805054,418.664154,874.112122,418.899689C886.00885,420.761536,897.995605,421.993713,910.022278,422.591095C911.179016,422.689087,912.342773,422.667023,913.494934,422.524689C914.196411,422.425568,914.876282,422.211304,915.510559,421.895782C915.837708,421.717987,916.121521,421.470795,916.350403,421.177032C916.519287,420.895142,916.634338,420.584198,916.682434,420.259064C916.888733,418.959686,917.011414,417.648376,917.049622,416.333282C917.168762,414.744812,917.128967,413.148438,916.932434,411.567657C916.802002,410.682159,916.539001,409.821503,916.15509,409.01297C915.862915,408.457703,915.414734,408.000854,914.866028,407.696564C914.383972,407.422424,913.863892,407.221649,913.323059,407.098907C912.108093,406.815399,910.863586,406.677795,909.616028,406.688751C907.802307,406.704315,905.987854,406.68869,904.174622,406.641876C896.839783,406.2659,889.502197,406.001617,882.158997,405.848907C880.175842,405.859283,878.185486,405.880157,876.201965,405.911407C875.222168,405.922119,874.242615,405.875366,873.268372,405.770782C872.744995,405.679657,872.289856,405.36087,872.026184,404.899689C871.902405,404.640533,871.847473,404.354248,871.866028,404.067657L871.885559,404.095001C872.057434,403.584045,872.19458,403.062042,872.295715,402.532501C873.232239,398.238281,874.077454,393.925079,874.830872,389.595001C875.326721,386.559235,875.71106,383.506592,875.983215,380.442657C876.037231,380.19397,876.158447,379.965668,876.330872,379.778595L876.471497,379.653595C876.624023,379.534851,876.803406,379.457916,876.991028,379.411407C877.597656,379.255432,878.233215,379.250732,878.84259,379.395782C881.332825,379.86264,883.835876,380.318329,886.330872,380.759064C889.696716,381.196991,893.076477,381.525299,896.463684,381.743439C902.536499,382.165924,908.613953,382.478363,914.698059,382.680939C915.581787,382.723419,916.463989,382.569427,917.28009,382.227814C917.671631,382.027771,917.986755,381.705414,918.170715,381.305939C918.284058,380.091461,918.35199,378.873138,918.37384,377.653595C918.486572,375.598724,918.471924,373.538788,918.330872,371.485626C918.277893,370.801697,918.154297,370.125061,917.963684,369.466095C917.769226,368.876587,917.392456,368.363525,916.885559,368.005157C916.246216,367.504639,915.528015,367.113983,914.760559,366.848907C912.913635,366.213745,911.002441,365.783966,909.06134,365.567657L908.065247,365.45047C903.934509,365.255157,899.814453,365.034088,895.68634,364.786407C891.63562,364.662567,887.581909,364.64563,883.53009,364.735626C879.843994,364.803802,876.156921,364.708679,872.479309,364.45047C872.232483,364.44046,871.990662,364.381653,871.764465,364.282501L871.59845,364.182892C869.492981,370.849365,867.425598,377.542725,865.40509,384.235626C861.834473,396.392731,858.675293,408.666046,855.932434,421.036407C854.982727,425.263702,854.058899,429.48233,853.15509,433.720001L853.088684,433.860626C852.974731,434.088104,852.783508,434.26712,852.553528,434.376251L852.412903,434.434845C851.710327,434.626221,850.972107,434.644135,850.260559,434.489532C848.079712,434.077545,845.91748,433.571808,843.78009,432.973907C834.460693,430.433777,825.235107,427.556641,816.12384,424.348907C810.035828,422.24115,803.991516,420.00885,797.994934,417.653595C791.222046,414.968353,785.001282,411.059479,779.643372,406.122345C777.208923,403.8461,775.088745,401.255646,773.338684,398.41922C772.455322,396.936096,771.715942,395.371735,771.131653,393.747345C768.673828,387.468506,767.879761,380.661499,768.826965,373.985626C769.358765,370.345306,770.399109,366.797852,771.916809,363.446564C774.333069,357.850372,777.764587,352.750336,782.037903,348.403595C785.488831,344.977753,789.513245,342.183014,793.928528,340.145782C798.335083,338.206848,803.106934,337.238312,807.920715,337.305939C812.233887,337.341309,816.518311,338.012421,820.635559,339.298126C822.61908,339.8927,824.57196,340.58493,826.487122,341.372345C829.615601,342.64566,832.745361,343.930817,835.866028,345.223907C837.846558,346.046844,839.858582,346.792328,841.897278,347.458282C842.544678,347.634125,843.229126,347.614349,843.866028,347.403595C844.490356,347.152008,844.9823,346.651428,845.21759,346.020782C845.726013,344.554718,846.171753,343.06778,846.553528,341.563751C847.419006,338.163696,848.245544,334.75589,849.033997,331.337189C849.531982,329.361206,850.106567,327.405151,850.756653,325.473907C850.906982,325.158752,851.135254,324.886261,851.428528,324.696564C851.595947,324.617401,851.775757,324.568878,851.959778,324.548126L852.237122,324.552032L852.510559,324.610626C857.28241,326.254425,862.003601,327.903107,866.760559,329.587189C870.887329,331.022766,875.037598,332.390137,879.209778,333.688751C879.412292,333.772797,879.601257,333.886658,879.768372,334.028595C879.990906,334.206848,880.165894,334.438324,880.268372,334.704376C880.421936,335.11911,880.436279,335.571991,880.315247,335.997345L879.783997,337.751251C880.4823,337.859528,881.17572,337.997314,881.862122,338.165314C884.351929,338.622467,886.860901,338.967804,889.381653,339.20047C896.841858,339.93161,904.32135,340.446136,911.81134,340.743439C923.032776,341.272461,934.265076,341.577271,945.49884,341.657501C946.381653,341.643341,947.264648,341.647217,948.147278,341.66922C948.717407,341.670502,949.271606,341.860962,949.71759,342.216095L949.869934,342.372345C950.10907,342.650391,950.258728,342.993256,950.307434,343.35672C950.331055,343.516968,950.339722,343.679047,950.338684,343.841095C950.309753,349.648712,950.150818,355.454712,949.862122,361.255157L949.537903,367.778595C951.582092,360.613129,955.024475,353.923492,959.666809,348.095001C963.171204,343.599304,967.338562,339.662354,972.026184,336.41922C977.777405,332.498566,984.246155,329.751984,991.06134,328.337189C997.489807,326.92923,1004.090088,326.472412,1010.651184,326.98172C1021.398621,327.866394,1031.625244,331.990784,1039.979248,338.809845C1045.342285,343.051086,1049.925049,348.194427,1053.522217,354.009064C1054.586426,355.744049,1055.553223,357.537109,1056.416748,359.380157C1055.674805,354.120056,1055.248291,348.820129,1055.139404,343.509064C1055.098389,338.813995,1055.563232,334.127991,1056.526123,329.532501C1057.326172,325.59671,1058.456299,321.735382,1059.905029,317.989532C1062.010498,312.656982,1064.953857,307.694763,1068.623779,303.290314C1068.947754,302.893372,1069.354004,302.57196,1069.815186,302.348907C1070.024902,302.261597,1070.25415,302.229401,1070.479248,302.259064C1070.989258,302.344818,1071.465088,302.573853,1071.842529,302.927032C1075.042236,305.485321,1078.294678,307.978333,1081.596436,310.403595C1085.307129,312.450653,1089.000488,314.539642,1092.666748,316.665314C1093.070801,316.920044,1093.416992,317.256683,1093.682373,317.653595C1093.876465,318.040131,1093.86792,318.49527,1093.670654,318.880157C1093.575684,319.112701,1093.450684,319.331848,1093.299561,319.532501C1091.638672,321.745605,1090.038086,324.002655,1088.498779,326.302032C1087.280029,328.218445,1086.379639,330.319824,1085.834717,332.524689C1085.171387,335.085907,1084.870361,337.727539,1084.940186,340.372345C1085.014404,343.6427,1085.289551,346.905334,1085.764404,350.141876C1086.405762,354.636932,1087.203125,359.108337,1088.155029,363.548126C1090.950684,377.44455,1094.248291,391.233978,1098.041748,404.891876C1099.428711,409.766083,1100.932861,414.605682,1102.553467,419.407501C1102.718018,419.752533,1102.850342,420.112152,1102.947998,420.48172C1103.007813,420.768555,1102.935791,421.067017,1102.760498,421.302032L1102.666748,421.411407C1102.14624,421.861664,1101.515381,422.16507,1100.838623,422.290314C1097.723633,422.911102,1094.591064,423.437347,1091.444092,423.868439C1088.572754,424.270172,1085.713867,424.753479,1082.869873,425.317657C1080.264648,425.853027,1077.666016,426.416748,1075.072998,427.009064C1073.167725,427.436005,1071.248779,427.79953,1069.319092,428.098907C1068.789551,428.137756,1068.261475,428.008545,1067.803467,427.739532L1067.655029,427.622345C1067.327393,427.334473,1067.115967,426.937408,1067.057373,426.505157L1066.951904,425.852814L1066.842529,425.184845L1066.729248,424.493439L1066.612061,423.778595L1066.494873,423.048126L1066.373779,422.29422L1066.248779,421.520782L1065.983154,419.872345L1065.721436,418.227814L1065.580811,417.352814L1065.440186,416.458282C1065.039063,413.951691,1064.583496,411.077789,1064.190186,408.571564L1064.018311,407.493439L1063.846436,406.395782L1063.670654,405.278595L1063.490967,404.141876L1063.307373,402.98172L1063.123779,401.802032L1062.936279,400.602814L1062.740967,399.384064C1062.284424,396.455505,1061.854736,393.725708,1061.389404,390.798126C1060.684814,396.003754,1059.20752,401.075195,1057.006592,405.845001C1055.038574,410.203949,1052.575928,414.322266,1049.666748,418.118439C1047.222412,421.19873,1044.360107,423.922943,1041.162842,426.212189C1037.963867,428.543243,1034.52832,430.530731,1030.912842,432.141876C1020.275879,436.986786,1008.539307,438.907074,996.912903,437.704376C990.408386,437.026581,984.042175,435.378113,978.026184,432.813751C974.401062,431.229431,970.986877,429.20105,967.862122,426.774689C965.876892,425.175751,964.028015,423.41452,962.334778,421.509064C958.034851,416.806793,954.494934,411.462799,951.84259,405.66922C950.412537,402.449646,949.31073,399.094086,948.553528,395.653595C948.604309,398.799164,948.678528,401.946899,948.776184,405.091095M815.729309,364.286407C814.308228,364.330963,812.900757,364.578094,811.549622,365.020782C808.884216,365.940918,806.574829,367.674652,804.948059,369.977814C803.840271,371.485229,802.941589,373.135712,802.276184,374.884064C801.445923,376.94574,800.918457,379.116608,800.709778,381.329376C800.486267,384.013,800.988098,386.707001,802.162903,389.130157C802.938599,390.669586,803.98114,392.059143,805.241028,393.235626C806.547607,394.493927,808.028992,395.557037,809.639465,396.391876C811.130188,397.194977,812.68988,397.862732,814.299622,398.38797C817.39801,399.509979,820.555054,400.463257,823.756653,401.243439C824.67218,401.458252,825.606079,401.585114,826.545715,401.622345C826.800049,401.620453,827.046814,401.532623,827.241028,401.368439C827.299927,401.299469,827.350586,401.223816,827.389465,401.141876C827.986267,399.947113,828.50946,398.71701,828.955872,397.458282C830.768616,392.599518,832.465759,387.698456,834.045715,382.759064C834.989441,379.551788,835.93988,376.368256,836.908997,373.16922C837.039917,372.753571,837.175293,372.339691,837.315247,371.927032C837.320068,371.827454,837.303833,371.728516,837.272278,371.634064C837.223633,371.545593,837.157593,371.469391,837.088684,371.395782C836.630005,370.983917,836.115173,370.639252,835.56134,370.368439C833.723755,369.446869,831.838257,368.624146,829.912903,367.903595C827.717224,367.048492,825.504944,366.238556,823.276184,365.473907C821.589844,364.924133,819.851563,364.548553,818.088684,364.352814C817.304871,364.273621,816.516357,364.251801,815.729309,364.286407M1003.658997,355.067657C999.029602,355.188965,994.519287,356.558807,990.604309,359.032501C987.83905,360.80365,985.438843,363.088074,983.533997,365.76297C981.278687,368.802643,979.606995,372.234314,978.604309,375.884064C976.620605,383.419464,977.900879,391.442078,982.131653,397.985626C983.542297,400.187744,985.230591,402.199188,987.15509,403.970001C989.424316,405.948456,992.062073,407.459229,994.916809,408.415314C1001.549927,410.704102,1008.795288,410.456299,1015.256653,407.720001C1018.407104,406.347107,1021.251831,404.35907,1023.62384,401.872345C1024.787598,400.580383,1025.826172,399.180847,1026.725342,397.692657C1028.405518,394.99588,1029.674805,392.064117,1030.490967,388.993439C1031.446777,385.192017,1031.549316,381.226013,1030.791748,377.380157C1030.033691,373.184692,1028.355225,369.209167,1025.877686,365.739532C1024.196045,363.406708,1022.165771,361.346252,1019.858215,359.630157C1016.33606,357.122437,1012.211121,355.59491,1007.90509,355.204376C1006.494446,355.062317,1005.075867,355.016663,1003.658997,355.067657"/>
    <path transform="matrix(-1,0,0,-1,0,0)" style="stroke:none;fill:#000000;fill-rule:evenodd" d="M1043.25,270.226563C1044.488281,275.421204,1045.711426,280.50116,1046.972656,285.6875C1047.069702,286.247681,1046.814209,286.810608,1046.328125,287.105469C1045.838745,287.402893,1045.28894,287.587158,1044.71875,287.640625C1036.550171,289.051636,1028.344604,290.231689,1020.109375,291.179688C1009.147339,292.51123,998.106201,293.898438,987.15625,295.320313C980.613281,296.134827,974.051086,296.791321,967.476563,297.289063C966.359558,297.34668,965.24408,297.148773,964.214844,296.710938C963.383057,296.334259,962.740906,295.634644,962.4375,294.773438L962.351563,294.449219C961.698059,291.776794,961.158447,289.077698,960.734375,286.359375C960.054565,282.28064,959.43457,278.190796,958.875,274.09375C958.833313,273.816956,958.828186,273.53595,958.859375,273.257813C958.964905,272.640076,959.461121,272.162903,960.082031,272.078125C960.794312,272.00351,961.510559,271.973816,962.226563,271.988281C969.350708,272.080353,976.475098,271.904449,983.585938,271.460938C990.32373,271.108459,997.045349,270.505188,1003.738281,269.652344C1004.867004,269.460266,1005.953674,269.073242,1006.949219,268.507813C1007.380798,268.241364,1007.733948,267.865479,1007.972656,267.417969C1008.102905,267.128967,1008.160461,266.812195,1008.136719,266.496094C1008.126343,264.992584,1008.011414,263.491516,1007.792969,262.003906C1007.632996,260.305756,1007.240173,258.637756,1006.625,257.046875C1006.332397,256.350281,1005.926147,255.707184,1005.421875,255.144531C1005.015747,254.732407,1004.500854,254.444427,1003.9375,254.3125C1002.812195,254.046066,1001.649719,253.973129,1000.5,254.097656C999.638306,254.162231,998.780457,254.270294,997.929688,254.421875C995.305054,254.886414,992.664001,255.251251,990.011719,255.515625C983.581909,256.220581,977.157898,257.016602,970.75,257.902344C968.813721,258.20639,966.885254,258.522186,964.953125,258.851563C963.95813,259.019043,962.953491,259.12326,961.945313,259.164063C961.454224,259.147614,960.989868,258.93927,960.648438,258.585938C960.440796,258.333374,960.313843,258.024536,960.28125,257.699219L960.3125,257.71875C960.444946,256.840027,960.526978,255.954468,960.558594,255.066406C960.810303,251.027649,960.975708,246.983307,961.054688,242.9375C961.09198,239.861526,961.013794,236.784973,960.820313,233.714844C960.85498,233.189575,961.18988,232.731903,961.679688,232.539063C962.265869,232.299484,962.899658,232.200775,963.53125,232.246094L970.578125,232.433594C973.511047,232.395782,976.441772,232.245972,979.363281,231.984375C986.356384,231.412003,993.333191,230.65126,1000.285156,229.703125C1001.097595,229.586639,1001.871338,229.280319,1002.542969,228.808594C1002.801025,228.601196,1002.999329,228.329712,1003.125,228.023438C1003.18811,227.821228,1003.194519,227.606079,1003.152344,227.398438C1002.884216,224.650375,1002.491821,221.915756,1001.976563,219.203125C1001.768738,218.251068,1001.485413,217.317108,1001.128906,216.410156C1000.814209,215.728287,1000.269775,215.178238,999.589844,214.859375C998.675293,214.425858,997.69635,214.143494,996.691406,214.023438C994.638855,213.771362,992.567078,213.715088,990.503906,213.855469C986.365479,214.339142,982.220947,214.783234,978.074219,215.1875C974.022095,215.707016,969.983765,216.322983,965.960938,217.035156C962.293762,217.668961,958.599976,218.136871,954.890625,218.4375C954.69928,218.458878,954.50592,218.451828,954.316406,218.417969C953.81134,218.310226,953.393616,217.955704,953.210938,217.472656C952.990417,216.954559,952.871521,216.39888,952.859375,215.835938C952.805542,214.04483,952.843262,212.25206,952.972656,210.464844C953.178894,207.142029,953.455078,203.822906,953.800781,200.511719L952.695313,204.453125C950.491211,212.097382,948.349609,219.757904,946.269531,227.4375L944.875,232.671875C942.321411,242.993073,939.863159,253.328461,937.496094,263.695313C936.213806,269.195251,934.873718,274.691101,933.480469,280.164063C933.430237,280.412079,933.362732,280.656311,933.277344,280.894531C933.065735,281.392334,932.590576,281.727478,932.050781,281.761719C931.486816,281.845367,930.911377,281.802795,930.367188,281.632813C927.473511,280.830261,924.604248,279.94458,921.761719,278.976563C917.232544,277.45813,912.641052,276.131409,908,275C904.900391,274.252747,901.824707,273.409943,898.777344,272.472656C898.447205,272.379883,898.168945,272.156311,898.011719,271.851563C897.879578,271.490234,897.889343,271.092682,898.039063,270.738281C903.40332,257.23468,908.546631,243.640869,913.464844,229.96875C916.779541,219.720703,920.0271,209.443359,923.203125,199.152344L923.675781,197.578125C923.802979,196.999451,923.938232,196.38681,924.066406,195.808594C924.169373,195.388474,924.021729,194.947266,923.691406,194.667969C923.500854,194.460892,923.246338,194.323654,922.96875,194.277344C917.119995,192.417664,911.244263,190.635803,905.347656,188.933594C900.714355,187.568054,896.097961,186.137817,891.503906,184.644531C888.444031,183.639206,885.408691,182.557938,882.402344,181.402344C881.534912,189.865952,880.627686,198.379196,879.691406,206.835938C879.166504,211.847046,878.676758,216.845383,878.21875,221.863281C877.440186,232.041107,876.766602,242.233063,876.199219,252.425781C875.824951,258.531372,875.402344,264.62384,874.929688,270.722656L874.800781,271.976563C874.666382,272.495972,874.258667,272.900818,873.738281,273.03125C873.195313,273.206696,872.620178,273.26001,872.054688,273.183594C868.690552,272.834473,865.337769,272.386353,862,271.839844C857.75238,271.19458,853.480896,270.718933,849.195313,270.414063C845.860046,270.188202,842.532471,269.854645,839.21875,269.414063C838.691406,269.305511,838.319275,268.835327,838.320313,268.296875C838.317261,268.147278,838.333191,267.998108,838.363281,267.851563C841.389526,253.6371,844.183472,239.379272,846.746094,225.074219C848.183594,215.13382,849.577637,205.149384,850.917969,195.195313L851.390625,191.433594C851.42334,190.830139,851.453247,190.228729,851.480469,189.625C851.505371,189.105057,851.192688,188.628738,850.707031,188.441406L850.476563,188.34375C844.654175,187.51947,838.815674,186.774231,832.972656,186.109375C827.846558,185.497375,822.726318,184.82135,817.617188,184.082031C815.275208,183.725128,812.939209,183.331879,810.609375,182.902344L810.007813,182.785156L810.007813,182.8125C809.872864,190.051483,809.682678,197.287567,809.4375,204.523438C809.229553,210.595978,809.140991,216.670166,809.171875,222.746094C809.27533,227.206131,809.464172,231.664474,809.738281,236.117188C810.176636,244.128906,810.671509,252.140915,811.222656,260.144531L811.488281,263.511719C811.769043,267.109497,812.059082,270.726959,812.355469,274.324219C812.434631,274.681396,812.439758,275.050812,812.371094,275.410156C812.260925,275.825684,811.962402,276.164673,811.566406,276.332031C811.153564,276.516113,810.705933,276.609436,810.253906,276.605469C802.78717,276.732727,795.318115,276.657166,787.855469,276.378906C775.804504,275.950684,763.859985,275.57373,751.804688,275.242188C745.194641,275.040741,738.589966,274.664276,732,274.113281C730.783508,273.989929,729.623169,273.540283,728.640625,272.8125C728.214661,272.453186,727.880188,271.997986,727.664063,271.484375C727.53186,271.077332,727.455933,270.654114,727.4375,270.226563C727.209961,267.246399,727.10437,264.258301,727.121094,261.269531C727.108032,257.663086,727.126221,254.055344,727.175781,250.449219C727.181091,250.069168,727.207092,249.689697,727.253906,249.3125C727.353577,248.590683,727.978699,248.055847,728.707031,248.078125C729.421509,248.110779,730.132813,248.193161,730.835938,248.324219C739.443909,249.768906,748.109558,250.850632,756.808594,251.566406C761.931152,252.020081,767.066528,252.320984,772.207031,252.46875C773.351135,252.456497,774.48407,252.243362,775.554688,251.839844C776.021667,251.640656,776.42865,251.324188,776.738281,250.921875C776.909607,250.655045,777.014954,250.351028,777.042969,250.035156C777.266846,248.547913,777.387024,247.04689,777.402344,245.542969C777.504028,243.840729,777.375366,242.132584,777.019531,240.464844C776.837708,239.732498,776.535034,239.035782,776.125,238.402344C775.792603,237.927673,775.327576,237.561752,774.789063,237.347656C773.988708,237.012894,773.14624,236.789215,772.285156,236.683594C771.140503,236.5504,769.988098,236.495636,768.835938,236.519531C766.17218,236.57016,763.507568,236.519348,760.847656,236.367188C754.505371,236.079163,748.167847,235.867126,741.820313,235.730469C739.73938,235.733093,737.651184,235.746155,735.570313,235.769531C734.569275,235.777542,733.568726,235.72403,732.574219,235.609375C732.038574,235.520874,731.571045,235.19577,731.304688,234.722656C731.169861,234.457504,731.112976,234.159454,731.140625,233.863281C731.145935,233.886032,731.14801,233.908752,731.160156,233.929688C731.368408,233.315186,731.535583,232.687531,731.660156,232.050781C732.604492,227.867706,733.450928,223.663971,734.199219,219.441406C734.710449,216.408905,735.110474,213.358627,735.398438,210.296875C735.510254,209.780334,735.916504,209.378891,736.433594,209.269531C737.048828,209.114929,737.692566,209.114197,738.308594,209.265625C740.744995,209.71814,743.104797,210.151245,745.542969,210.59375C748.585693,211.012451,751.642212,211.32254,754.707031,211.523438C761.563232,212.028305,768.430969,212.342209,775.304688,212.464844C775.996094,212.431992,776.674377,212.263245,777.300781,211.96875C777.687134,211.7854,777.99115,211.464798,778.15625,211.070313C778.257446,209.855438,778.312195,208.637039,778.320313,207.417969C778.437134,205.170929,778.380981,202.918152,778.152344,200.679688C778.076538,200.10881,777.937683,199.548065,777.738281,199.007813C777.494446,198.477737,777.110901,198.02417,776.628906,197.695313C775.791321,197.127502,774.868103,196.697662,773.894531,196.421875C772.240112,195.936401,770.546021,195.597809,768.832031,195.410156L767.808594,195.289063L767.734375,195.289063C763.59552,195.125824,759.45874,194.920135,755.324219,194.671875C750.769531,194.556122,746.211792,194.54306,741.65625,194.632813C738.27417,194.657455,734.8927,194.521866,731.523438,194.226563C730.957703,194.089676,730.523254,193.636597,730.40625,193.066406C730.270996,192.521149,730.238831,191.955368,730.3125,191.398438C730.537781,189.620285,730.854614,187.854874,731.261719,186.109375C732.246887,181.624832,733.372559,177.171814,734.636719,172.757813C734.992371,171.587112,735.418945,170.439178,735.914063,169.320313C736.139709,168.855499,736.464111,168.445328,736.863281,168.117188C737.334106,167.740402,737.92041,167.537811,738.523438,167.542969C738.937622,167.538696,739.350708,167.584808,739.753906,167.679688C742.243164,168.23761,744.763184,168.648499,747.300781,168.910156C753.268616,169.564072,759.256531,170.026596,765.253906,170.296875C779.223999,170.974121,793.21405,171.211304,807.199219,171.007813C808.168152,167.53363,809.306213,164.109161,810.609375,160.746094C810.948364,159.906494,811.302612,159.07283,811.671875,158.246094C811.92218,157.682281,812.340637,157.209442,812.871094,156.894531C813.134216,156.760498,813.427673,156.697388,813.722656,156.710938C814.942505,156.862,816.153809,157.075806,817.351563,157.351563C823.113831,158.554443,828.891174,159.746338,834.65625,160.921875C847.777649,163.525177,861.000854,165.582855,874.292969,167.089844C876.705566,167.374405,879.111267,167.715652,881.507813,168.113281C882.046143,168.233414,882.541016,168.499405,882.9375,168.882813C883.250183,169.22937,883.44165,169.66803,883.484375,170.132813C884.935181,167.034088,886.531982,164.006073,888.269531,161.058594C888.847046,160.095291,889.447571,159.145615,890.070313,158.210938C890.389282,157.728546,890.84137,157.349182,891.371094,157.117188C891.761414,156.968445,892.191589,156.963715,892.585938,157.101563C893.191101,157.283676,893.788025,157.49234,894.375,157.726563C895.689636,158.209869,896.995361,158.714966,898.292969,159.242188C902.932129,161.069458,907.628784,162.900513,912.28125,164.695313C924.027954,169.162872,935.939941,173.181305,947.992188,176.742188C951.113098,177.608658,954.207153,178.570084,957.269531,179.625C957.844421,179.854996,958.329102,180.264877,958.652344,180.792969C958.908203,181.306015,958.953064,181.898361,958.78125,182.445313C957.986694,185.404419,957.179321,188.360107,956.359375,191.3125C956.789612,191.06192,957.27948,190.932205,957.777344,190.9375C958.594727,190.936829,959.411804,190.969284,960.226563,191.035156C963.057251,191.109955,965.889709,191.0513,968.714844,190.859375C975.896667,190.419388,983.062805,189.75502,990.203125,188.867188C1002.23938,187.460968,1014.2323,185.720856,1026.171875,183.648438C1026.640381,183.572815,1027.120483,183.618713,1027.566406,183.78125C1028.133423,184.023682,1028.541626,184.534012,1028.652344,185.140625C1029.441772,189.492874,1030.125732,193.8647,1030.703125,198.25C1031.777344,206.370453,1032.817871,214.436981,1033.839844,222.5625C1034.404297,226.746719,1035.033203,230.921112,1035.726563,235.085938C1036.515381,239.336975,1037.37207,243.5737,1038.296875,247.796875C1037.873291,242.902161,1038.218628,237.971466,1039.320313,233.183594C1040.270264,229.179459,1041.788208,225.331863,1043.828125,221.757813C1046.461304,217.343033,1050.060425,213.582047,1054.355469,210.757813C1057.97583,208.340088,1061.92334,206.452484,1066.078125,205.152344C1068.05957,204.51268,1070.069458,203.965256,1072.101563,203.511719C1075.207153,202.80542,1078.29187,202.117432,1081.402344,201.4375C1083.740112,200.930542,1086.055908,200.327148,1088.34375,199.628906C1089.047974,199.373672,1089.646484,198.8909,1090.046875,198.257813C1090.335449,197.705338,1090.400635,197.06337,1090.226563,196.464844C1090.148438,196.078873,1090.03894,195.699905,1089.898438,195.332031C1088.892334,192.354614,1087.783447,189.412598,1086.574219,186.511719C1085.287231,183.43074,1084.124878,180.299438,1083.089844,177.125C1083.015869,176.863815,1082.954834,176.599136,1082.90625,176.332031C1082.82251,175.665527,1083.231079,175.036255,1083.871094,174.832031C1084.118774,174.749161,1084.369019,174.67395,1084.621094,174.605469C1090.240356,173.002197,1095.811523,171.390381,1101.417969,169.746094C1104.52832,168.817062,1107.621948,167.829727,1110.695313,166.785156C1111.22229,166.601471,1111.803345,166.646408,1112.292969,166.914063C1112.643433,167.119049,1112.91272,167.4375,1113.058594,167.816406C1113.203491,168.10022,1113.316895,168.398987,1113.398438,168.707031C1116.708496,178.34436,1119.95166,188.009399,1123.125,197.691406C1125.424683,204.682129,1127.793335,211.663147,1130.222656,218.609375C1134.054443,229.23642,1138.203369,239.746368,1142.664063,250.125C1144.520752,254.464294,1146.396484,258.777039,1148.304688,263.09375C1148.389038,263.435791,1148.314209,263.797302,1148.101563,264.078125C1147.70105,264.597473,1147.184326,265.015411,1146.59375,265.300781C1144.92334,266.114685,1143.212891,266.843445,1141.46875,267.484375C1132.337036,270.940247,1123.067993,274.01947,1113.683594,276.714844C1106.584229,278.78244,1099.435791,280.681549,1092.246094,282.410156C1084.659302,284.166016,1076.811401,284.490723,1069.105469,283.367188C1066.258545,282.919495,1063.470459,282.155609,1060.792969,281.089844C1058.954956,280.3125,1057.210815,279.32959,1055.59375,278.160156C1050.915405,274.966858,1046.95166,270.83667,1043.953125,266.03125C1042.770264,264.102051,1041.766235,262.068848,1040.953125,259.957031C1041.705811,263.376373,1042.474121,266.812042,1043.25,270.226563M1097.3125,221.921875C1095.915771,222.045364,1094.529541,222.267136,1093.164063,222.585938C1089.856445,223.32486,1086.57251,224.165039,1083.316406,225.105469C1080.794556,225.842804,1078.414917,226.99968,1076.277344,228.527344C1074.437744,229.887329,1072.946411,231.663528,1071.925781,233.710938C1070.998657,235.648682,1070.529541,237.773895,1070.554688,239.921875C1070.546509,241.677994,1070.756592,243.428406,1071.179688,245.132813C1071.741211,247.507919,1072.704224,249.769516,1074.027344,251.820313C1076.128906,254.933517,1079.339722,257.126892,1083.003906,257.953125C1085.008667,258.402954,1087.072266,258.53064,1089.117188,258.332031C1090.807495,258.184448,1092.480225,257.878448,1094.113281,257.417969C1097.628418,256.490234,1101.088379,255.364777,1104.476563,254.046875C1105.360962,253.680649,1106.213867,253.242783,1107.027344,252.738281L1107.148438,252.640625C1107.265747,252.536957,1107.362305,252.41246,1107.441406,252.277344C1107.496216,252.015152,1107.48877,251.743759,1107.421875,251.484375C1107.092896,249.743149,1106.686157,248.017441,1106.203125,246.3125C1105.038452,241.974365,1103.785889,237.662079,1102.445313,233.375C1101.509766,230.587708,1100.563232,227.790833,1099.613281,225.007813C1099.305176,224.095245,1099.013428,223.176987,1098.738281,222.253906C1098.689819,222.178925,1098.626099,222.115768,1098.554688,222.0625C1098.45752,222.000488,1098.345093,221.969971,1098.230469,221.957031C1097.92627,221.915939,1097.618896,221.904694,1097.3125,221.921875"/>
</svg>
