<?xml version="1.0" encoding="UTF-8"?>
<svg xmlns="http://www.w3.org/2000/svg" width="267.556mm" height="193.551mm" viewBox="-635.715332 -799.835876 267.555756 193.551208">
    <path transform="matrix(-1,0,0,-1,0,0)" style="stroke:none;fill:#000000;fill-rule:evenodd" d="M635.37384,699.88208C634.543152,700.177612,633.641541,700.629272,632.957825,701.186035L632.829834,701.330078L632.797852,701.410034L632.709839,701.47406L632.581848,701.514038C632.43457,701.519958,632.290039,701.549438,632.149841,701.594055L632.069824,701.666077C632.048584,701.716797,632.026611,701.767212,632.005798,701.818054L631.909851,701.88208C631.375793,702.135742,630.806641,702.307373,630.221802,702.394043C629.831238,702.471191,629.435425,702.517761,629.037842,702.538086C628.880371,702.517639,628.722961,702.496521,628.565796,702.47406L628.48584,702.490051L628.42981,702.538086L627.533813,702.674072C627.501831,702.619629,627.456726,702.575073,627.405823,702.538086L627.349792,702.562073L627.237793,702.754089C627.207825,702.832275,627.17511,702.909302,627.141846,702.986084C627.119202,703.014404,627.098999,703.044678,627.07782,703.074036C627.05896,703.002136,627.046509,702.929626,627.029846,702.858093L627.013794,702.71405C626.957092,702.597961,626.895935,702.48407,626.821838,702.378052C626.714722,702.257996,626.594604,702.151245,626.469849,702.050049C626.372559,701.995239,626.280823,701.931335,626.189819,701.866089L626.029846,701.778076C625.920776,701.727722,625.807373,701.688904,625.693848,701.650085C625.393921,701.566528,625.0849,701.520142,624.773804,701.506042C624.631714,701.492065,624.492554,701.45752,624.357849,701.410034C624.033203,701.273743,623.713379,701.126221,623.397827,700.970093L623.253845,700.922058C622.343811,700.668335,621.411438,700.503357,620.469849,700.426086L615.845825,699.946045C613.656738,699.839417,611.463318,700.029663,609.325806,700.514038C608.446533,700.800293,607.535828,700.97937,606.613831,701.050049C605.681396,701.261292,604.809937,701.684814,604.069824,702.290039C603.253967,702.884033,602.502747,703.562012,601.829834,704.314087C601.762939,704.408081,601.698914,704.50415,601.637817,704.602051C601.623535,704.647095,601.613953,704.693176,601.597839,704.738037C601.50415,704.904602,601.399597,705.064575,601.285828,705.218079C600.418457,706.331848,599.522217,707.423096,598.597839,708.490051C598.034119,709.213379,597.572388,710.010681,597.221802,710.858093C596.885925,711.882202,596.658142,712.938599,596.541809,714.010071L596.141846,717.658081C595.842651,719.861084,595.282349,722.02063,594.469849,724.090088C594.235291,724.721985,594.053162,725.372131,593.925842,726.034058L593.885803,726.210083L593.829834,726.378052C593.009277,728.226257,591.978027,729.97345,590.757813,731.58606C589.161926,733.479858,587.408813,735.234863,585.517822,736.834045C584.484802,737.585388,583.384521,738.239929,582.229797,738.786072C580.861023,739.455261,579.47937,740.098145,578.085815,740.71405C577.234741,741.063232,576.346069,741.312378,575.437805,741.458069C574.907837,741.560669,574.398376,741.749084,573.925842,742.010071C573.279175,742.27533,572.616333,742.498962,571.941833,742.682068C571.715393,742.765869,571.494019,742.86261,571.277832,742.970093C571.180237,743.03064,571.082092,743.090149,570.981812,743.146057L570.821838,743.306091C570.65387,743.416565,570.464783,743.488464,570.269836,743.538086C570.155579,743.559631,570.041443,743.581543,569.925842,743.594055C569.74115,743.58667,569.556091,743.595398,569.37384,743.626038C569.053101,743.654114,568.744507,743.765503,568.477844,743.946045C568.071167,744.177307,567.61615,744.308228,567.149841,744.346069C566.896301,744.388855,566.638672,744.398926,566.381836,744.386047C566.142456,744.405701,565.904114,744.437195,565.6698,744.490051C565.442627,744.540527,565.233215,744.652283,565.069824,744.818054L564.933838,744.938049C564.808716,745.031555,564.665527,745.095276,564.517822,745.146057C564.216797,745.155518,563.927002,745.257019,563.677795,745.426086L563.421814,745.666077C563.331848,745.72052,563.239563,745.770996,563.141846,745.810059L562.949829,745.866089C562.477783,745.956787,561.998535,746.003967,561.517822,746.002075C561.04834,746.035339,560.593201,746.173462,560.181824,746.402039C559.536377,746.594482,558.870422,746.709778,558.197815,746.746094C556.825623,746.839661,555.451782,746.916931,554.07782,746.978088C552.720398,747.044617,551.369934,747.21283,550.037842,747.482056C547.870667,748.074097,545.648315,748.442078,543.405823,748.578064C539.972961,748.80365,536.534119,748.918152,533.093811,748.922058C526.376526,748.952332,519.7146,748.960144,512.997803,748.946045C511.53717,748.957336,510.077393,749.024292,508.621826,749.146057C506.167358,749.296082,503.717773,749.431824,501.261841,749.554077C500.011475,749.61908,498.764893,749.742249,497.525818,749.922058L497.31781,749.970093C496.965088,750.094543,496.59552,750.163147,496.221802,750.17804C495.650085,750.23114,495.075195,750.241089,494.501831,750.210083C492.025146,750.138733,489.546387,750.141541,487.069824,750.218079C486.030457,750.293884,485.005493,750.505798,484.021851,750.850037C482.560181,751.324097,481.078735,751.73468,479.581848,752.082092C478.331543,752.322083,477.062744,752.452515,475.789795,752.47406C474.291199,752.54834,472.806274,752.797852,471.365845,753.218079C469.868469,753.695801,468.447815,754.387634,467.149841,755.274048C466.619995,755.608093,466.078186,755.922791,465.525818,756.218079C465.432434,756.255493,465.336243,756.2854,465.237793,756.306091C464.937805,756.419373,464.663513,756.591125,464.421814,756.802063C464.184326,756.987671,463.924316,757.14325,463.645813,757.258057C463.507935,757.314026,463.361877,757.346313,463.213806,757.362061C462.804749,757.492371,462.424377,757.69812,462.085815,757.962036C461.235718,758.530273,460.348145,759.040283,459.42981,759.490051C458.159607,760.194519,457.013123,761.101685,456.037842,762.17804C455.978516,762.263916,455.923035,762.352356,455.869812,762.442078L455.845825,762.554077C455.889832,762.692017,455.987671,762.80426,456.109802,762.88208C456.253845,762.996582,456.409607,763.095154,456.573853,763.17804L457.301819,763.538086L456.637817,763.64209C456.234436,763.73291,455.862305,763.930298,455.5578,764.210083L455.357849,764.386047C455.257263,764.496216,455.149109,764.598816,455.037842,764.698059C454.894897,764.798645,454.74176,764.883606,454.581848,764.954041L454.421814,765.010071L454.24585,765.050049C454.131897,765.067627,454.016907,765.076782,453.901794,765.082092C453.79895,765.060913,453.693726,765.060242,453.589844,765.074036L453.525818,765.098083L453.477844,765.170044C453.471252,765.215637,453.465454,765.261353,453.453796,765.306091L453.37384,765.370056C453.296631,765.381226,453.219116,765.391418,453.141846,765.402039C452.958801,765.352478,452.770935,765.322876,452.581848,765.306091L452.48584,765.330078C452.462219,765.363281,452.439453,765.397034,452.421814,765.434082L452.437805,765.490051L452.445801,765.554077C452.55542,765.772766,452.670105,765.98877,452.789795,766.202087L452.829834,766.354065C452.816711,766.459656,452.800049,766.564819,452.765808,766.666077L452.701843,766.810059C452.557495,767.067017,452.380859,767.304504,452.181824,767.522034C451.298279,768.600952,450.263367,769.546509,449.109802,770.330078C447.848694,771.31073,446.664124,772.386047,445.565796,773.546082C443.152649,776.097168,440.674561,778.585999,438.13385,781.010071C437.320313,781.774109,436.429626,782.451294,435.477844,783.034058C432.338196,784.858765,429.501404,787.161011,427.069824,789.858093C426.581665,790.447205,426.11731,791.055786,425.677795,791.682068C424.932007,792.642029,424.101807,793.533325,423.197815,794.346069C422.453125,795.101929,421.673645,795.822815,420.861816,796.506042C420.7724,796.569214,420.681946,796.630859,420.589844,796.690063C420.522278,796.72113,420.453186,796.74884,420.381836,796.770081C420.336914,796.776917,420.295166,796.792969,420.253845,796.810059C420.22345,796.830933,420.202271,796.85907,420.173828,796.88208L420.149841,796.930054L420.101807,797.138062L420.021851,797.218079L419.901794,797.274048C419.800781,797.289978,419.699768,797.305481,419.597839,797.314087C419.512756,797.34375,419.433777,797.386414,419.357849,797.434082L419.293823,797.53009C418.981262,797.688599,418.65033,797.80719,418.309814,797.890076C416.103149,798.534241,413.862366,799.054871,411.597839,799.450073C410.153137,799.656006,408.696899,799.770813,407.237793,799.794067C405.718018,799.868591,404.195251,799.849792,402.677795,799.738037C402.004028,799.605591,401.37439,799.30603,400.853821,798.858093C399.965942,798.340515,398.989075,797.993652,397.973816,797.834045C397.78772,797.82782,397.602173,797.80896,397.421814,797.762085C396.007202,797.310242,394.676147,796.631226,393.477844,795.754089C392.937378,795.250183,392.315125,794.841553,391.637817,794.546082C391.547424,794.493958,391.458801,794.43866,391.37384,794.378052C390.814941,793.816589,390.353577,793.165771,390.013794,792.450073C389.443115,791.441345,388.761414,790.499634,387.981812,789.64209C387.32843,789.0802,386.764587,788.422058,386.309814,787.690063C386.231018,787.555908,386.172607,787.410583,386.141846,787.258057L386.117798,787.186035C386.022339,786.258179,385.904846,785.332397,385.765808,784.410034C385.668701,783.608215,385.211548,782.892883,384.525818,782.466064C383.110657,781.614685,381.560181,781.011414,379.941833,780.682068C379.425842,780.639404,378.91095,780.582886,378.397827,780.514038C377.003235,780.1427,375.630554,779.693848,374.285828,779.170044L373.237793,778.754089C373.212585,778.739685,373.050537,778.797485,372.955994,778.783997C368.037781,778.082886,368.264893,776.693115,368.189819,775.834045C368.163086,775.528198,368.14386,775.370239,368.165833,775.138062C368.258362,774.10144,368.5047,773.084106,368.901794,772.12207C369.531555,770.393982,370.361206,768.745483,371.37384,767.210083C371.559265,766.949097,371.798279,766.731628,372.069824,766.562073C373.216431,765.90033,374.402588,765.309814,375.621826,764.794067C376.922791,764.117065,378.325256,763.655396,379.773804,763.426086C381.481201,763.099365,383.224731,763.00238,384.957825,763.138062C385.647644,763.235596,386.312439,763.46521,386.917847,763.810059C388.056274,764.409119,389.229065,764.940369,390.42981,765.402039C390.662781,765.469971,390.900452,765.520935,391.141846,765.546082L391.237793,765.538086L391.261841,765.498047L391.237793,765.434082C391.160278,765.319092,391.073975,765.210205,390.973816,765.114075L390.861816,765.026062C390.519592,764.787476,390.145691,764.597534,389.749817,764.466064C388.998413,764.20752,388.286865,763.844604,387.637817,763.386047C387.493286,763.306763,387.343262,763.238281,387.189819,763.17804C387.089355,763.161804,386.989929,763.139832,386.893799,763.106079C385.483826,762.363037,384.172852,761.445984,382.989807,760.378052L382.909851,760.282043L382.83783,760.17804C382.843506,760.11084,382.848206,760.045288,382.853821,759.978088L381.855713,759.451477C381.296143,758.964905,378.730469,755.031799,376.361877,754.808716C369.96698,754.206482,376.120972,748.802002,379.037842,750.962036C379.758667,751.135254,380.454529,751.399292,381.109802,751.746094C381.210205,751.794983,381.315918,751.830627,381.421814,751.866089C381.555969,751.908997,381.697083,751.917542,381.83783,751.914063C381.896545,751.882324,381.957275,751.854797,382.021851,751.842041C382.075195,751.798645,382.116394,751.744385,382.157837,751.690063L382.205811,751.578064C382.276611,751.314087,382.32019,751.043457,382.325806,750.770081L382.413818,750.570068C382.518372,750.401917,382.644897,750.248962,382.789795,750.114075C383.229797,749.578552,383.617615,749.002319,383.949829,748.394043L384.101807,748.210083C384.217651,748.054321,384.396057,747.958008,384.589844,747.946045C384.862793,748.006714,385.146912,747.997437,385.413818,747.914063C385.863647,747.80072,386.30249,747.647827,386.72583,747.458069C388.334595,746.92926,390.064514,746.892517,391.693848,747.354065C392.219299,747.549438,392.725281,747.793396,393.205811,748.082092L395.509827,749.47406C396.479614,750.044495,397.513672,750.497864,398.589844,750.82605C399.649048,751.216248,400.697205,751.635132,401.733826,752.082092C401.949219,752.157715,402.171448,752.212341,402.397827,752.242065C402.75116,752.269043,403.106628,752.224426,403.437805,752.098083C404.054321,751.914978,404.691101,751.809082,405.333801,751.786072C405.459351,751.760559,405.584595,751.733276,405.709839,751.706055C406.028137,751.603149,406.335327,751.467346,406.613831,751.282043C406.870911,751.130737,407.092224,750.924744,407.253845,750.674072C407.297241,750.581421,407.333679,750.485657,407.357849,750.386047C407.446228,749.97583,407.466248,749.553223,407.405823,749.138062C407.304932,748.135437,407.072205,747.15033,406.709839,746.210083C406.580139,745.837158,406.51416,745.444824,406.517822,745.050049L406.573853,744.802063C406.614258,744.645142,406.66449,744.491028,406.717834,744.338074C406.777405,744.185669,406.845886,744.037048,406.917847,743.890076C407.043152,743.677856,407.179321,743.47229,407.325806,743.274048L407.397827,743.226074L407.493835,743.12207L407.541809,742.978088L407.5578,742.82605C407.523621,742.697998,407.510864,742.566162,407.501831,742.434082L407.517822,742.386047C407.544373,742.356628,407.570557,742.326843,407.597839,742.298035L407.821838,742.250061L408.125793,742.074036C408.506165,741.802856,408.840942,741.471985,409.109802,741.090088C409.350098,740.843323,409.61731,740.623962,409.909851,740.442078C409.998901,740.421875,410.086365,740.395935,410.173828,740.370056C410.667297,740.097595,411.126831,739.767517,411.541809,739.386047C411.70697,739.264221,411.884644,739.160034,412.07782,739.090088L412.157837,739.06604C412.209534,739.032349,412.256775,738.993469,412.309814,738.962036C412.987122,738.33429,413.585144,737.626038,414.085815,736.850037C414.388855,736.449097,414.634644,736.007568,414.813843,735.538086L414.845825,735.362061C414.870789,735.25415,414.917786,735.153442,414.973816,735.058044C415.235291,734.640869,415.518127,734.237549,415.821838,733.850037C417.016663,731.973511,418.02655,729.985535,418.83783,727.914063C418.88562,727.771118,418.914063,727.62323,418.933838,727.47406C418.92334,727.407715,418.914917,727.341064,418.909851,727.274048C418.936951,727.132446,418.979492,726.994019,419.045837,726.866089L419.117798,726.738037C419.334167,726.449341,419.512512,726.134033,419.653809,725.802063C419.663208,725.732849,419.672485,725.663757,419.677795,725.594055L419.653809,725.522034L419.549805,725.418091L419.517822,725.354065L419.517822,725.274048C419.579224,725.029175,419.700012,724.803894,419.861816,724.610046L420.061829,724.282043C420.367615,723.630859,420.565491,722.933838,420.637817,722.218079C420.715393,721.737854,420.830139,721.264282,420.981812,720.802063L420.997803,720.626038C421.007446,720.091431,420.905884,719.560303,420.701843,719.06604C420.608154,718.821167,420.543701,718.566101,420.509827,718.306091C420.510498,718.25,420.512939,718.19397,420.517822,718.138062C420.541809,718.05127,420.578857,717.969116,420.621826,717.890076C420.796143,717.686584,420.962402,717.476257,421.117798,717.258057C421.227356,717.079956,421.321533,716.892761,421.397827,716.698059C421.458679,716.140137,421.525391,715.582581,421.597839,715.026062C421.608582,714.878418,421.601501,714.729675,421.565796,714.58606C421.54187,714.527283,421.516785,714.469116,421.493835,714.410034C421.443298,714.353149,421.391357,714.297974,421.349792,714.23407C421.310425,714.101685,421.29657,713.963867,421.301819,713.82605C421.415039,713.15863,421.693787,712.529846,422.117798,712.002075C422.32373,711.664978,422.460876,711.2901,422.509827,710.898071C422.529419,710.768066,422.53949,710.636597,422.525818,710.506042C422.531799,710.205322,422.646912,709.916321,422.853821,709.698059L422.901794,709.594055L422.933838,709.450073C423.187622,708.790405,423.456909,708.136902,423.741821,707.490051C423.978638,706.982056,424.09552,706.426453,424.085815,705.866089C424.078003,705.798035,424.051697,705.735229,424.021851,705.674072L423.96582,705.602051L423.901794,705.570068C423.773865,705.577148,423.647766,705.602722,423.525818,705.64209L423.37384,705.634094C423.302368,705.607422,423.240967,705.562012,423.189819,705.506042L423.165833,705.402039L423.197815,705.266052C423.287048,705.093201,423.427368,704.951965,423.597839,704.858093C423.642334,704.841858,423.688049,704.829773,423.733826,704.818054L423.789795,704.834045C423.822266,704.866089,423.850159,704.901978,423.877808,704.938049C423.898987,704.987427,423.923706,705.035156,423.949829,705.082092L423.973816,705.090088C423.991272,705.066956,424.010864,705.046143,424.021851,705.018066L424.045837,704.938049C424.062317,704.657166,424.088867,704.377014,424.125793,704.098083L424.189819,703.914063L424.269836,703.746094C424.480408,703.439697,424.754028,703.182312,425.069824,702.986084C425.295227,702.803345,425.479736,702.575562,425.605835,702.314087C425.60083,702.262939,425.591736,702.212402,425.581848,702.162048C425.60083,701.961609,425.677612,701.771545,425.797852,701.610046C425.867859,701.486755,425.951172,701.371582,426.045837,701.266052C426.068787,701.202148,426.086548,701.137207,426.109802,701.074036L426.093811,701.034058L426.045837,701.010071C425.989868,700.989197,425.935242,700.966797,425.877808,700.954041L425.773804,700.890076C425.702209,700.749023,425.67804,700.589294,425.709839,700.434082L425.749817,700.330078L425.829834,700.258057L425.925842,700.218079L426.037842,700.226074L426.149841,700.274048C426.227051,700.343567,426.29834,700.419128,426.365845,700.498047L426.413818,700.546082L426.48584,700.562073L426.581848,700.546082C426.806396,700.433167,427.006714,700.277832,427.173828,700.090088C427.506775,699.76001,427.806885,699.398254,428.069824,699.010071C428.225342,698.642822,428.420898,698.293884,428.653809,697.970093C429.379272,696.824402,430.169861,695.721069,431.021851,694.666077C432.296936,693.292847,433.542542,691.892517,434.757813,690.466064C435.406006,689.755005,436.062256,689.05072,436.72583,688.354065C436.957642,688.072754,437.137573,687.752686,437.261841,687.410034C437.31665,687.160217,437.348572,686.905823,437.349792,686.650085C437.401672,686.054016,437.612915,685.483032,437.957825,684.99408L438.037842,684.914063L438.101807,684.88208C438.15564,684.861938,438.209229,684.841248,438.261841,684.818054C438.312073,684.786987,438.356812,684.748413,438.397827,684.706055C438.651428,684.407898,438.875916,684.086121,439.069824,683.746094C439.264832,683.438354,439.541504,683.191956,439.869812,683.034058C440.008911,683.02124,440.146423,682.993408,440.277832,682.946045C440.323547,682.909119,440.368408,682.871277,440.413818,682.834045L440.461853,682.770081L440.493835,682.698059C440.500488,682.622864,440.512085,682.548279,440.525818,682.47406L440.549805,682.402039C440.731079,682.116821,440.980347,681.880798,441.269836,681.706055C441.373596,681.599915,441.464661,681.48175,441.525818,681.346069L441.5578,681.226074C441.575378,681.154236,441.593811,681.082825,441.605835,681.010071C441.801392,680.53717,442.043884,680.085144,442.325806,679.658081C442.895203,678.591553,443.310608,677.449524,443.5578,676.266052C443.563416,676.162354,443.568848,676.057739,443.573853,675.954041C443.55835,675.90387,443.542053,675.854065,443.533813,675.802063C443.575134,675.555481,443.65094,675.316101,443.757813,675.090088C443.971191,674.571228,444.211426,674.063782,444.477844,673.570068C444.61438,673.316345,444.688171,673.033936,444.701843,672.746094C444.694763,672.684021,444.673462,672.625549,444.645813,672.570068L444.565796,672.506042L444.469849,672.466064L444.365845,672.450073C444.211914,672.445557,444.057861,672.463623,443.909851,672.506042C443.674133,672.535156,443.435486,672.518494,443.205811,672.458069C443.183289,672.434937,443.159973,672.412842,443.141846,672.386047L443.157837,672.314087C443.193481,672.282959,443.22876,672.251587,443.261841,672.218079C443.651306,672.117065,444.051514,672.062866,444.453796,672.058044C444.582825,671.978516,444.686279,671.866516,444.765808,671.738037C444.921814,671.519897,445.049927,671.282959,445.149841,671.034058C445.644531,669.885864,446.103394,668.722778,446.525818,667.546082C446.841736,666.72522,447.188477,665.916565,447.565796,665.12207L448.165833,661.722046C448.240051,661.690918,448.311462,661.653381,448.37384,661.602051L448.445801,661.514038C448.667847,661.017212,448.819092,660.491882,448.901794,659.954041C449.506226,657.302368,450.132446,654.658997,450.781799,652.018066C450.962891,651.173401,451.064453,650.31366,451.085815,649.450073C451.194336,648.511597,451.338257,647.577637,451.517822,646.650085C451.556824,646.328979,451.565979,646.005127,451.549805,645.682068L451.517822,645.58606L451.453796,644.210083C451.639893,644.131897,451.810364,644.019104,451.941833,643.866089L451.997803,643.770081L452.029846,643.650085C452.039185,643.572754,452.033691,643.495605,452.029846,643.418091L451.997803,643.298035C451.92688,643.044006,451.936279,642.773682,452.037842,642.53009L452.117798,642.378052C452.200684,642.222839,452.244263,642.049927,452.253845,641.874084L452.83783,637.354065L452.909851,637.354065C452.978943,637.333069,453.034729,637.284424,453.07782,637.226074C453.102966,637.164063,453.130249,637.103027,453.157837,637.042053C453.205872,636.351257,453.348694,635.670105,453.581848,635.018066C453.736511,634.582581,453.886108,634.145264,454.029846,633.706055C454.156006,633.307678,454.241211,632.897522,454.285828,632.482056C454.339661,632.15863,454.466431,631.852539,454.645813,631.578064L454.685852,631.442078L454.701843,631.314087L454.677795,631.17804C454.540527,630.911438,454.261841,626.058044,452.920715,616.614685C450.915649,613.92395,449.000488,617.214905,446.582092,615.03009C443.215576,611.988647,439.92511,610.382935,443.405823,608.578064C445.970215,607.248352,456.864197,603.880493,465.950073,609.131653C465.745667,609.099854,463.504089,618.503479,465.405823,624.578064L469.869995,624.516296L471.349792,632.162048L471.325806,632.242065L471.293823,632.450073C471.267883,633.40271,471.348389,634.355225,471.533813,635.290039L471.597839,635.434082C471.655884,635.569153,471.748718,635.686768,471.869812,635.770081L471.973816,635.834045C472.054504,635.859192,472.137878,635.872803,472.221802,635.88208C472.385071,635.86908,472.547119,635.853027,472.709839,635.834045L472.885803,635.82605L473.061829,635.834045L473.141846,635.874084L473.189819,635.938049C473.196899,636.075867,473.18042,636.213623,473.141846,636.346069L473.093811,636.658081C473.107361,636.729919,473.1203,636.801636,473.125793,636.874084C473.176636,636.974854,473.262695,637.05249,473.365845,637.098083C476.119995,638.409485,473.987366,642.380981,474.125793,644.154053L473.901794,644.170044C473.897949,644.193909,473.895081,644.217896,473.893799,644.242065L473.973816,644.418091C473.959961,644.812439,473.835205,645.195374,473.613831,645.522034L473.125793,648.602051L473.093811,648.746094C473.090942,649.111633,473.098755,649.47699,473.117798,649.842041C473.110046,649.920105,473.088135,649.995544,473.053833,650.06604C473.032837,650.073181,473.011902,650.072021,472.989807,650.082092L472.925842,650.242065C472.659058,651.806213,472.488098,653.385071,472.413818,654.970093C472.285828,657.492798,472.168518,660.013916,472.061829,662.538086C472.014282,662.930908,472.059937,663.330261,472.205811,663.698059L472.301819,663.834045C472.454407,663.923645,472.601563,664.022217,472.741821,664.130066L472.765808,664.17804L472.749817,664.226074C472.616272,664.297668,472.480469,664.364929,472.341797,664.426086L472.24585,664.538086C472.141602,664.7453,472.078613,664.970764,472.061829,665.202087C472.031433,665.84967,472.015381,666.497742,472.013794,667.146057C472.000488,667.58905,471.981689,668.031494,471.957825,668.47406C471.945923,668.600281,471.927368,668.72583,471.901794,668.850037C471.880066,668.903564,471.863403,668.958374,471.83783,669.010071C471.842712,669.049988,471.845703,669.090088,471.853821,669.130066L471.909851,669.282043C471.992676,669.393982,472.067688,669.511536,472.13385,669.634094C472.178467,669.804382,472.179504,669.982239,472.141846,670.154053C472.028809,670.431396,471.947266,670.720886,471.909851,671.018066C471.774597,672.223755,471.739807,673.438599,471.805847,674.650085C471.804138,675.329773,471.849182,676.008728,471.941833,676.682068L471.973816,676.802063L472.021851,676.914063L472.13385,677.042053C472.21875,677.082214,472.306885,677.114502,472.397827,677.138062C472.573303,677.158936,472.745117,677.202148,472.909851,677.266052C473.045776,677.319031,473.178406,677.380249,473.301819,677.458069C473.668762,677.767578,474.096863,677.996094,474.5578,678.130066C476.429138,678.690247,478.290833,679.28241,480.141846,679.906067C480.596863,680.04303,481.062439,680.142029,481.533813,680.202087C481.626282,680.197327,481.715759,680.175049,481.805847,680.154053L481.885803,680.162048L481.96582,680.17804L482.029846,680.242065C482.034119,680.285706,482.046326,680.327209,482.053833,680.370056L482.117798,680.458069L482.213806,680.538086L482.533813,680.706055C483.129211,680.952759,483.76947,681.070984,484.413818,681.058044L484.701843,681.050049C485.292358,680.906799,485.89502,680.818542,486.501831,680.786072C486.581482,680.796631,486.661682,680.800659,486.741821,680.810059L486.83783,680.842041L486.96582,680.922058L487.013794,680.986084C487.051758,681.12738,487.071289,681.272461,487.085815,681.418091C487.120422,681.503418,487.164185,681.584106,487.205811,681.666077L487.293823,681.738037L487.389832,681.794067C489.208191,682.273132,491.077698,682.530212,492.957825,682.562073C493.426941,682.577942,493.892517,682.650146,494.341797,682.786072L494.405823,682.818054L494.629822,682.88208C495.5401,682.959351,496.455139,682.962341,497.365845,682.890076C497.542053,682.888245,497.718262,682.890625,497.893799,682.906067C498.046875,682.922729,498.196167,682.960632,498.341797,683.010071C498.440552,683.074463,498.53241,683.149231,498.605835,683.242065L498.781799,683.538086C498.836365,683.600769,498.894531,683.660095,498.957825,683.71405L499.053833,683.778076C499.162598,683.830383,499.278992,683.862549,499.397827,683.88208C499.521362,683.877808,499.644409,683.86615,499.765808,683.842041C499.901672,683.797729,500.033142,683.740173,500.149841,683.658081L500.261841,683.562073C500.367249,683.453857,500.468201,683.34137,500.565796,683.226074L500.661804,683.130066L500.717834,683.090088L500.757813,683.090088L500.789795,683.130066C500.812561,683.262207,500.821594,683.396179,500.813843,683.53009C500.804443,683.675171,500.821289,683.820313,500.853821,683.962036L500.893799,684.002075L500.949829,683.99408C501.176758,683.800476,501.412415,683.617371,501.653809,683.442078L501.72583,683.418091L501.789795,683.402039C501.859924,683.432129,501.898743,683.502747,501.885803,683.578064C501.909302,683.610474,501.933594,683.642273,501.957825,683.674072L502.045837,683.730042C502.141724,683.759949,502.243103,683.764282,502.341797,683.746094C502.403076,683.739868,502.464539,683.741882,502.525818,683.746094L502.653809,683.794067L502.701843,683.842041L502.72583,683.898071L502.733826,683.970093C502.718933,684.062988,502.72052,684.156372,502.717834,684.250061C502.734985,684.263916,502.754272,684.273193,502.773804,684.282043C502.89917,684.23938,503.015686,684.1745,503.117798,684.090088L503.31781,684.026062C504.253174,683.908386,505.20105,683.938354,506.125793,684.12207C506.182983,684.165833,506.239868,684.210205,506.293823,684.258057C506.335083,684.311707,506.362061,684.372986,506.389832,684.434082L506.405823,684.650085L506.445801,684.866089L506.48584,684.770081L506.517822,684.682068L506.613831,684.362061L506.693848,684.23407C506.751648,684.178223,506.8172,684.131714,506.885803,684.090088L506.989807,684.082092L507.093811,684.12207C507.189636,684.227173,507.289917,684.328125,507.405823,684.410034L507.493835,684.418091L507.581848,684.410034L507.685852,684.386047L507.805847,684.338074L507.933838,684.274048C508.138794,684.118652,508.368164,683.998474,508.613831,683.922058L508.685852,683.938049C508.728088,683.982239,508.763916,684.031555,508.797852,684.082092L508.821838,684.162048L508.861816,684.242065C508.890686,684.290405,508.917419,684.339844,508.949829,684.386047L509.013794,684.434082L509.07782,684.47406L509.237793,684.47406C509.336792,684.421631,509.442932,684.386658,509.549805,684.354065L509.717834,684.330078L509.885803,684.322083C510.338501,684.416443,510.776367,684.570923,511.189819,684.778076C511.906128,685.142151,512.675903,685.390137,513.469849,685.514038C514.514709,685.655579,515.54895,685.867065,516.565796,686.146057C517.552795,686.356934,518.532043,686.6026,519.501831,686.88208L519.709839,686.962036C519.848267,687.020752,519.984924,687.083496,520.117798,687.154053C520.411011,687.395874,520.777832,687.532654,521.157837,687.53009C521.231873,687.542664,521.30304,687.568909,521.365845,687.610046L521.413818,687.650085L521.445801,687.71405L521.469849,687.786072C521.519409,687.82666,521.574219,687.859131,521.629822,687.890076C521.723877,687.925293,521.815674,687.959412,521.909851,687.99408C522.781433,688.237732,523.685425,688.346313,524.589844,688.314087L524.733826,688.330078L524.885803,688.378052L525.045837,688.442078L525.101807,688.506042C525.124023,688.583252,525.144165,688.660889,525.165833,688.738037C525.200439,688.830994,525.242554,688.920776,525.285828,689.010071L525.365845,689.146057C525.43988,689.229675,525.510864,689.315857,525.581848,689.402039C525.727173,689.558777,525.901672,689.684692,526.093811,689.778076L526.157837,689.754089L526.213806,689.690063C526.270386,689.558594,526.33667,689.43158,526.405823,689.306091L526.469849,689.218079C526.51001,689.198853,526.553162,689.1875,526.597839,689.186035C526.758423,689.261108,526.898865,689.371338,527.013794,689.506042C527.093323,689.621521,527.138123,689.757935,527.125793,689.898071L527.085815,689.978088C527.074951,690.012634,527.062195,690.046509,527.053833,690.082092C527.059143,690.096436,527.069275,690.104248,527.07782,690.114075C527.148193,690.090088,527.216797,690.061462,527.285828,690.034058L527.397827,690.026062L527.525818,690.042053C527.915833,690.145874,528.291321,690.299072,528.637817,690.506042C528.842773,690.608459,529.059448,690.68634,529.285828,690.722046C529.735291,690.711426,530.179382,690.622498,530.597839,690.458069C530.926697,690.369934,531.265564,690.322571,531.605835,690.330078C531.677917,690.346375,531.749756,690.361694,531.821838,690.378052L532.029846,690.378052C532.097351,690.353027,532.163147,690.324402,532.229797,690.298035C532.293335,690.255737,532.356262,690.212891,532.405823,690.154053C532.487976,690.055603,532.563232,689.95166,532.629822,689.842041C532.748596,689.577026,532.819885,689.292664,532.821838,689.002075C532.826477,688.846802,532.84082,688.692017,532.861816,688.538086C532.905273,688.331543,532.982483,688.133423,533.093811,687.954041C533.242371,687.72406,533.423523,687.516663,533.637817,687.346069C534.615662,686.651855,535.710205,686.139771,536.869812,685.834045L537.07782,685.810059L537.261841,685.818054C537.459412,685.867554,537.650635,685.938049,537.83783,686.018066L538.085815,686.090088C538.452637,686.143066,538.821045,686.18866,539.189819,686.226074C539.389771,686.25824,539.584534,686.314514,539.773804,686.386047C539.892273,686.440369,540.009216,686.498108,540.117798,686.570068C540.459412,686.797546,540.853149,686.933167,541.261841,686.970093C541.579407,686.983521,541.891602,687.056335,542.181824,687.186035C542.905823,687.470703,543.584961,687.858826,544.197815,688.338074C544.299377,688.413574,544.382446,688.512329,544.437805,688.626038C544.471619,688.717163,544.49176,688.812012,544.517822,688.906067L544.597839,688.962036C544.710083,689.012207,544.829468,689.041382,544.949829,689.06604C545.465515,689.150574,545.987244,689.192444,546.509827,689.194092C546.759216,689.161133,546.997559,689.075989,547.221802,688.962036C547.670227,688.675049,548.040405,688.28186,548.301819,687.818054C548.560242,687.385681,548.795471,686.939819,549.005798,686.482056C549.306519,685.91095,549.667908,685.373962,550.085815,684.88208C550.148621,684.791382,550.187744,684.68689,550.205811,684.578064C550.206482,684.304077,550.150879,684.034058,550.053833,683.778076C549.948181,683.489807,549.850464,683.198792,549.757813,682.906067C550.219177,682.901428,550.680725,682.906555,551.141846,682.922058C551.295837,682.940613,551.452087,682.919617,551.597839,682.866089L551.813843,682.786072C551.968079,682.694702,552.099365,682.571655,552.213806,682.434082C552.471191,682.131042,552.713196,681.815308,552.941833,681.490051L553.141846,681.282043C553.282166,681.144226,553.435059,681.019348,553.605835,680.922058C553.683533,680.904419,553.761597,680.889343,553.83783,680.866089L553.885803,680.818054C553.90686,680.776367,553.923889,680.733032,553.941833,680.690063L553.949829,680.602051L553.885803,680.170044C553.887939,680.123657,553.890625,680.077393,553.909851,680.034058C553.934998,680.015991,553.960449,679.998657,553.989807,679.986084L554.053833,679.986084C554.103516,680.002136,554.154724,680.009766,554.205811,680.018066C554.305237,679.991882,554.400085,679.949585,554.477844,679.88208C554.547913,679.81604,554.612061,679.744446,554.677795,679.674072C554.845947,679.433899,554.986389,679.175598,555.101807,678.906067C555.648621,677.907654,556.150391,676.885315,556.605835,675.842041C556.619812,675.770325,556.63269,675.697937,556.645813,675.626038L556.6698,675.538086C556.718872,675.419983,556.797058,675.317993,556.885803,675.226074C557.103882,675.046814,557.281616,674.823608,557.405823,674.570068L557.437805,674.346069C557.487915,674.195435,557.5625,674.053833,557.661804,673.930054C558.231689,673.116821,558.892761,672.371521,559.629822,671.706055C560.566406,670.787292,561.563232,669.931946,562.613831,669.146057C562.737,669.031128,562.848267,668.903503,562.925842,668.754089C562.957275,668.668213,562.980713,668.579834,562.997803,668.490051C563.019226,668.445923,563.047485,668.406311,563.069824,668.362061L563.13385,668.306091C563.220093,668.26947,563.306824,668.233948,563.397827,668.210083C563.466736,668.196777,563.536011,668.185303,563.605835,668.17804C563.689087,668.154724,563.769592,668.123047,563.845825,668.082092C564.457214,667.674316,564.981384,667.148987,565.389832,666.538086L565.461853,666.378052L565.48584,666.242065C565.457886,666.174194,565.438965,666.103516,565.413818,666.034058L565.765808,665.818054L565.885803,665.834045L566.029846,665.810059C566.505066,665.575806,566.940247,665.269348,567.325806,664.906067C568.28595,664.115173,569.299072,663.390991,570.357849,662.738037C571.5672,662.005554,572.785339,661.26239,573.989807,660.522034C574.446777,660.267273,574.855957,659.93512,575.205811,659.546082C575.217041,659.487305,575.224426,659.428223,575.237793,659.370056L575.269836,659.322083C575.328003,659.291382,575.387817,659.264587,575.445801,659.23407C575.551941,659.2146,575.657898,659.194397,575.765808,659.186035C576.543884,658.93689,577.28656,658.58783,577.973816,658.146057C579.216492,657.469971,580.451416,656.778992,581.677795,656.074036C581.838074,655.975647,581.994202,655.870667,582.141846,655.754089C582.289063,655.635681,582.425781,655.505127,582.5578,655.370056L582.637817,655.23407C582.638916,655.108337,582.654541,654.982849,582.701843,654.866089L582.741821,654.82605L582.805847,654.802063L583.029846,654.818054L583.237793,654.866089C583.350159,654.868713,583.462097,654.860291,583.573853,654.850037C584.091248,654.743713,584.585144,654.546265,585.037842,654.274048C586.357666,653.611023,587.711609,653.018494,589.093811,652.498047C590.029053,652.215088,590.970703,651.953979,591.917847,651.71405C593.075684,651.379517,594.190247,650.909973,595.237793,650.314087L595.357849,650.226074L595.453796,650.12207C595.498169,650.041565,595.544312,649.961975,595.589844,649.88208C595.877808,649.602844,596.202637,649.364502,596.5578,649.17804L596.701843,649.074036L596.845825,648.954041L596.925842,648.858093L596.957825,648.762085L596.941833,648.658081L596.901794,648.570068L597.37384,647.890076L597.469849,647.986084L597.573853,648.06604L597.685852,648.090088C597.751709,648.068665,597.817993,648.048462,597.885803,648.034058C598.507446,647.635071,599.03302,647.105042,599.42981,646.482056L599.477844,646.378052L599.501831,646.274048L599.517822,646.170044L599.573853,646.090088L599.661804,646.074036L599.901794,646.154053L600.013794,646.12207L600.069824,646.082092C600.107483,646.012634,600.136597,645.939392,600.165833,645.866089L600.197815,645.618042L600.189819,645.370056L601.029846,644.898071L601.085815,644.914063L601.173828,644.88208C601.247437,644.828308,601.32019,644.773438,601.389832,644.71405C602.027344,644.131104,602.601135,643.482056,603.101807,642.778076L603.189819,642.626038C603.222107,642.51593,603.24884,642.404236,603.261841,642.290039C603.266296,642.144836,603.249756,642.000427,603.221802,641.858093C602.987427,641.016418,602.838257,640.153381,602.773804,639.282043C602.732422,638.988342,602.641296,638.703857,602.501831,638.442078L602.365845,638.226074C602.269775,638.140991,602.176025,638.053345,602.085815,637.962036C602.03241,637.859924,601.988953,637.753113,601.957825,637.64209L601.957825,637.522034C601.954041,637.521301,602.058044,637.001404,602.061829,637.002075C602.06189,636.944519,602.048889,636.889526,602.037842,636.834045L601.989807,636.778076C601.889771,636.724304,601.775391,636.708679,601.661804,636.71405L601.493835,636.698059C601.465515,636.679504,601.434387,636.668701,601.405823,636.650085L601.405823,636.602051L601.421814,636.554077C601.563599,636.39978,601.693848,636.235168,601.805847,636.058044L601.869812,635.874084L601.909851,635.690063C601.915222,635.507996,601.885376,635.325867,601.805847,635.162048C601.736389,635.049561,601.664246,634.938843,601.573853,634.842041L601.413818,634.698059C601.251221,634.559937,601.069275,634.445618,600.869812,634.370056C600.739014,634.31366,600.600708,634.280823,600.461853,634.250061L600.24585,634.218079C599.880371,634.222961,595.777649,633.379883,594.405823,632.578064C594.155823,631.828064,592.655823,628.328064,592.405823,627.578064C592.190186,624.738342,603.526184,627.502014,607.405823,626.578064C607.20929,625.266479,606.57843,620.621582,606.405823,618.578064C606.030884,614.138733,595.560852,615.779114,596.906067,612.807434C597.347107,611.83313,595.740112,608.102844,597.405823,607.578064C602.705444,605.908325,616.319641,608.859497,617.405823,607.578064C617.475098,607.496338,617.287598,629.855652,619.333801,636.594055C619.420776,636.691772,619.500671,636.795349,619.581848,636.898071L619.589844,636.930054C619.566406,636.941772,619.541626,636.951355,619.517822,636.962036C619.407288,636.9375,619.295044,636.920715,619.181824,636.922058L619.061829,636.970093C619.039063,637.000549,619.01123,637.025574,618.989807,637.058044C618.976929,637.097778,618.972656,637.138062,618.96582,637.17804C618.976746,637.497559,619.00946,637.81604,619.069824,638.130066C619.086792,638.153625,619.099548,638.17926,619.117798,638.202087C619.143066,638.203125,619.165588,638.195862,619.189819,638.194092L619.229797,638.170044C619.374817,638.018005,619.532898,637.878967,619.701843,637.754089L619.237793,640.47406C619.202881,640.484253,619.168457,640.494934,619.13385,640.506042C619.111389,640.544434,619.095093,640.585449,619.07782,640.626038L619.07782,640.770081L619.093811,640.906067C619.164124,641.091003,619.26593,641.262573,619.397827,641.410034L619.533813,641.538086C619.617981,641.590698,619.703064,641.641846,619.789795,641.690063C619.829712,641.684937,619.869873,641.682861,619.909851,641.674072L619.741821,641.834045L619.581848,641.99408C619.376404,642.381653,619.24823,642.805481,619.205811,643.242065C619.16864,643.547852,619.163025,643.856873,619.205811,644.162048C619.242798,644.272217,619.293762,644.377136,619.357849,644.47406L619.581848,644.64209L619.813843,644.786072L619.981812,645.402039C619.899109,645.418823,619.816406,645.434021,619.733826,645.450073L619.629822,645.458069L619.549805,645.506042C619.501465,645.563538,619.461975,645.627014,619.421814,645.690063C619.322083,646.19928,619.313965,646.721985,619.397827,647.23407C619.496582,647.94873,619.743896,648.63501,620.13385,649.242065C620.189636,649.295959,620.247498,649.347595,620.309814,649.394043L620.413818,649.418091L620.325806,651.354065C619.936279,651.956909,619.639099,652.614868,619.445801,653.306091C619.404602,653.37561,619.356873,653.440552,619.309814,653.506042C619.175598,653.656616,619.005371,653.770752,618.813843,653.834045L618.597839,653.906067L618.477844,653.970093C618.409729,654.013184,618.355408,654.072388,618.309814,654.138062C618.265869,654.218994,618.207275,654.289795,618.141846,654.354065C618.007629,654.462708,617.853577,654.545166,617.685852,654.58606C617.129822,654.800049,616.605347,655.088501,616.125793,655.442078C615.831665,655.623108,615.500732,655.736267,615.157837,655.778076L615.061829,655.802063L614.989807,655.858093L614.949829,655.938049C614.914612,656.096375,614.921326,656.260132,614.957825,656.418091L615.013794,656.778076C615.120056,657.240417,615.271606,657.691101,615.469849,658.12207C615.529541,658.304504,615.568848,658.492432,615.597839,658.682068C615.724365,659.970276,615.503967,661.268555,614.957825,662.442078L614.821838,662.666077C614.548523,662.949219,614.301697,663.257019,614.085815,663.58606C614.024292,663.644836,613.960144,663.700867,613.893799,663.754089C612.94751,664.403381,611.955627,664.983521,610.925842,665.490051C610.243225,665.871216,609.581177,666.288025,608.941833,666.738037C608.333313,667.232483,607.751282,667.758667,607.197815,668.314087C605.6297,669.765381,604.138977,671.140137,602.565796,672.58606C600.625793,674.423218,598.87085,676.446228,597.325806,678.626038C597.004944,679.0896,596.758484,679.600098,596.589844,680.138062C596.583313,680.273438,596.559143,680.40686,596.525818,680.538086C596.1922,681.47998,595.720154,682.366821,595.125793,683.170044L595.037842,683.250061C594.900879,683.300964,594.788879,683.399475,594.709839,683.522034C594.353271,684.023315,594.097168,684.588745,593.949829,685.186035C593.942139,685.300232,593.921448,685.413208,593.885803,685.522034C593.840088,685.620605,593.787537,685.715698,593.733826,685.810059C593.569641,685.977295,593.425659,686.163086,593.301819,686.362061C593.167786,686.586182,593.059631,686.824768,592.981812,687.074036L592.997803,687.114075L593.069824,687.098083C593.276855,686.957153,593.467773,686.793945,593.637817,686.610046C593.851929,686.402954,594.091553,686.223083,594.357849,686.090088C594.457031,686.055664,594.558411,686.02832,594.661804,686.010071C594.804993,686.017517,594.946228,686.042053,595.085815,686.074036C595.171265,686.078918,595.256897,686.077148,595.341797,686.06604L595.461853,686.018066L595.573853,685.962036L595.677795,685.874084C595.847046,685.665283,596.020508,685.460083,596.197815,685.258057C596.224487,685.244995,596.25,685.229797,596.277832,685.218079L596.309814,685.226074C596.317627,685.257996,596.331604,685.287109,596.349792,685.314087L596.389832,685.298035C596.508362,685.208374,596.604309,685.094055,596.685852,684.970093C596.853394,684.756287,597.05188,684.569031,597.277832,684.418091L597.453796,684.362061L597.621826,684.354065L597.773804,684.402039L597.845825,684.442078L597.957825,684.58606L598.045837,684.746094L598.085815,684.794067L598.141846,684.810059L598.197815,684.818054C598.321716,684.736267,598.428101,684.63208,598.517822,684.514038C598.593567,684.437317,598.674988,684.366821,598.757813,684.298035C598.846985,684.237488,598.942078,684.187195,599.037842,684.138062C599.11554,684.10791,599.196411,684.0896,599.277832,684.074036C599.363708,684.053955,599.44519,684.020996,599.525818,683.986084C600.14917,683.599792,600.727295,683.144531,601.24585,682.626038C601.459229,682.437805,601.702881,682.286865,601.96582,682.17804L602.053833,682.170044L602.109802,682.258057L602.157837,682.354065L602.237793,682.442078L602.333801,682.47406L602.421814,682.458069C602.501526,682.404968,602.565002,682.332275,602.613831,682.250061L602.693848,682.098083C602.776611,681.831055,602.851563,681.561646,602.917847,681.290039C603.128052,681.629272,603.366577,681.950134,603.629822,682.250061C603.695618,682.305542,603.762024,682.360168,603.83783,682.402039L603.917847,682.434082C603.968689,682.439575,604.018982,682.444519,604.069824,682.450073C604.206543,682.410828,604.335083,682.347717,604.445801,682.258057C604.757996,681.961182,605.092102,681.688049,605.445801,681.442078L605.701843,681.282043C606.099121,681.048706,606.530579,680.879395,606.981812,680.786072C607.023376,680.787781,607.062439,680.799377,607.101807,680.810059C607.251587,680.985474,607.453125,681.110291,607.677795,681.162048L607.917847,681.226074L608.069824,681.250061C608.225098,681.250366,608.380188,681.241394,608.533813,681.218079C608.579956,681.187561,608.620972,681.150879,608.661804,681.114075C608.735535,681.057983,608.81311,681.007507,608.893799,680.962036C608.976379,680.940002,609.05896,680.918945,609.141846,680.898071C609.229736,680.892761,609.31781,680.890869,609.405823,680.890076L609.581848,680.82605C609.630859,680.799622,609.677307,680.768677,609.717834,680.730042C609.746094,680.680237,609.773315,680.629944,609.797852,680.578064C609.80835,680.5224,609.815674,680.466309,609.821838,680.410034C609.847107,680.349731,609.88446,680.297424,609.917847,680.242065C609.96991,680.194458,610.026001,680.152893,610.07782,680.106079C610.180908,680.054932,610.288757,680.014587,610.397827,679.978088L610.565796,679.938049L610.741821,679.922058C611.053284,679.9151,611.364136,679.95813,611.661804,680.050049C611.814636,680.108643,611.969177,680.162659,612.125793,680.210083L612.24585,680.210083L612.365845,680.202087L612.445801,680.138062C612.48291,680.051453,612.526184,679.967834,612.565796,679.88208C612.611511,679.693298,612.665405,679.506653,612.72583,679.322083L612.773804,679.226074L612.829834,679.17804L612.909851,679.186035C613.12439,679.313965,613.31543,679.477539,613.469849,679.674072C613.507996,679.740295,613.545837,679.806702,613.581848,679.874084C613.593018,679.935608,613.598938,679.997437,613.613831,680.058044L613.597839,680.138062C613.469604,680.335999,613.385315,680.559937,613.357849,680.794067C613.323792,680.989563,613.305786,681.187744,613.31781,681.386047L613.333801,681.498047C613.35498,681.525391,613.381409,681.546387,613.405823,681.570068L613.469849,681.554077C613.585876,681.472107,613.702759,681.391541,613.821838,681.314087C613.935852,681.276855,614.053467,681.251343,614.173828,681.250061C614.24292,681.282471,614.312927,681.312866,614.381836,681.346069L614.397827,681.402039L614.413818,681.450073C614.372498,681.528015,614.318115,681.598083,614.24585,681.650085C614.016235,681.787964,613.792664,681.935669,613.573853,682.090088C613.519348,682.150085,613.461487,682.206848,613.405823,682.266052C613.36145,682.338684,613.32428,682.415344,613.301819,682.498047L613.31781,682.578064C613.371094,682.626526,613.432251,682.662659,613.493835,682.698059C613.579834,682.724548,613.668579,682.737854,613.757813,682.746094C614.148926,682.748779,614.531189,682.631042,614.853821,682.410034C614.912537,682.356812,614.97168,682.303955,615.029846,682.250061C615.081665,682.208008,615.135864,682.16925,615.189819,682.130066L615.277832,682.082092L615.37384,682.050049C615.438171,682.062134,615.502014,682.075867,615.565796,682.090088L615.653809,682.138062C615.749023,682.204834,615.84552,682.269836,615.949829,682.322083L616.045837,682.362061C616.111328,682.379456,616.17804,682.392212,616.24585,682.394043C616.577881,682.393921,616.909607,682.372498,617.237793,682.322083L617.469849,682.314087C617.698853,682.328796,617.927124,682.35437,618.149841,682.410034C618.421448,682.493591,618.686768,682.596863,618.941833,682.722046C618.619751,682.787231,618.307617,682.895691,618.021851,683.058044L617.925842,683.130066C617.88208,683.17981,617.841675,683.232178,617.797852,683.282043L617.757813,683.362061C617.764648,683.434387,617.775574,683.50592,617.781799,683.578064L617.861816,683.690063L617.981812,683.762085L618.117798,683.794067L618.277832,683.794067L618.42981,683.746094L618.573853,683.658081L618.621826,683.578064C618.669983,683.532532,618.720398,683.489441,618.773804,683.450073L618.869812,683.410034C618.967651,683.392334,619.06665,683.386292,619.165833,683.386047C619.389771,683.446899,619.623169,683.467102,619.853821,683.442078L620.07782,683.378052C620.177124,683.324951,620.271912,683.26416,620.365845,683.202087L620.469849,683.130066C620.515259,683.124512,620.560425,683.11969,620.605835,683.114075C620.643066,683.148254,620.682861,683.179504,620.717834,683.218079L620.757813,683.314087C620.899414,683.777771,621.070923,684.231873,621.269836,684.674072L621.357849,684.82605C621.41394,684.892639,621.468567,684.96051,621.525818,685.026062L621.605835,685.082092C621.667175,685.087219,621.728455,685.093079,621.789795,685.098083L621.893799,685.074036C622.057312,684.989624,622.206055,684.878601,622.333801,684.746094C622.455627,684.612427,622.608643,684.510925,622.781799,684.458069C622.853821,684.459229,622.925903,684.460938,622.997803,684.466064L623.197815,684.562073L623.389832,684.682068C623.416809,684.711121,623.441956,684.74176,623.469849,684.770081C623.47113,684.791748,623.472961,684.813171,623.461853,684.834045L623.237793,684.88208L623.141846,684.938049C623.105408,685.009216,623.06897,685.080322,623.037842,685.154053C623.036804,685.252808,623.040222,685.351501,623.045837,685.450073C623.062805,685.569458,623.091614,685.686523,623.125793,685.802063L623.197815,685.970093C623.253418,686.07666,623.320557,686.176086,623.389832,686.274048C623.464905,686.366516,623.549866,686.44989,623.637817,686.53009L623.789795,686.634094C623.921509,686.681702,624.054932,686.724304,624.189819,686.762085C624.247559,686.842468,624.289917,686.931335,624.31781,687.026062C624.348999,687.170837,624.362427,687.318237,624.365845,687.466064C624.377197,687.537781,624.384338,687.610107,624.397827,687.682068L624.42981,687.71405L624.501831,687.698059C624.726685,687.527527,624.941284,687.344177,625.149841,687.154053L625.309814,687.074036C625.33429,687.080566,625.358459,687.088074,625.381836,687.098083C625.381775,687.172852,625.377869,687.247498,625.37384,687.322083C625.390381,687.407959,625.441162,687.483337,625.509827,687.538086C625.581604,687.607666,625.653809,687.676758,625.72583,687.746094C626.151978,688.080627,626.653748,688.307861,627.189819,688.386047C627.304749,688.382568,627.419678,688.377563,627.533813,688.362061L627.589844,688.362061L627.653809,688.378052C627.686584,688.399231,627.711365,688.427246,627.741821,688.450073C627.780396,688.545471,627.801819,688.64563,627.821838,688.746094C627.890442,688.876953,627.977417,688.99762,628.085815,689.098083C628.283691,689.259155,628.498962,689.397278,628.72583,689.514038C628.91217,689.612122,629.090515,689.72522,629.253845,689.858093C629.405273,689.991699,629.551331,690.131409,629.685852,690.282043C629.85321,690.491394,629.990845,690.721985,630.109802,690.962036C630.369019,691.44104,630.767212,691.829895,631.24585,692.090088L631.381836,692.194092C631.501038,692.2948,631.590515,692.423584,631.661804,692.562073L631.72583,692.690063C631.752014,692.913147,631.7901,693.134583,631.83783,693.354065L631.885803,693.442078L631.949829,693.506042L632.037842,693.554077L632.125793,693.58606L632.237793,693.594055L632.341797,693.610046C632.429993,693.658752,632.516724,693.710083,632.597839,693.770081C632.944519,694.114136,633.225586,694.518372,633.42981,694.962036C633.941101,695.788696,634.538635,696.558838,635.213806,697.258057C635.307861,697.379028,635.394409,697.505554,635.477844,697.634094C635.55719,697.806946,635.623535,697.985474,635.6698,698.170044C635.664246,698.363098,635.809204,698.860229,635.632568,699.456909C635.56427,699.687561,635.412659,699.818298,635.37384,699.88208z"/>
</svg>
