<?xml version="1.0" encoding="UTF-8"?>
<svg xmlns="http://www.w3.org/2000/svg" width="265.751mm" height="261.448mm" viewBox="-998.393555 -630.311035 265.751404 261.448242">
    <path transform="matrix(-1.117513,0,0,-1.117513,-709.213318,-331.984863)" style="stroke:#000000;stroke-width:0.05mm;fill:none" d="M185.115967,266.092834C183.961563,265.361725,184.04451,264.579529,185.615967,261.378082C187.967773,256.586884,194.797775,251.331528,200.557632,249.881165C207.162796,248.217972,207.667572,246.922211,203.483032,242.371567C201.524979,240.242203,199.12738,237.600006,198.155029,236.5C197.182663,235.399994,195.404907,231.885254,194.204437,228.689453C191.601715,221.760696,190.460449,220.493317,185.188095,218.676849C180.485184,217.056564,170,216.740845,170,218.219513C170,218.777084,169.09938,218.997742,167.998627,218.709885C166.897858,218.422028,166.24942,218.594543,166.557632,219.093262C167.39209,220.443436,165.59697,220.192108,162.364304,218.506165C157.534546,215.987274,153.249252,216.541809,151.174026,219.954224C149.473709,222.750183,149.233994,222.83403,146.699844,221.519302C144.330002,220.28981,143.877304,220.327103,142.761124,221.843689C141.341995,223.771927,139.283691,224.036118,138.213531,222.427383C137.625229,221.54303,132.111908,221.181732,131.25,221.971054C130.641479,222.528336,126.350182,222.334457,125.329369,221.703568C124.709595,221.320511,122.254715,221.879166,119.874084,222.945007C117.022049,224.221909,115.324486,224.525024,114.897209,223.833679C114.361107,222.966248,100.003113,221.642487,92.5,221.768738C91.400002,221.787247,87.125,221.800827,83,221.79892C78.875,221.797012,73.8125,221.796509,71.75,221.797821C69.6875,221.799118,68,221.409271,68,220.931473C68,220.45369,67.370522,220.304321,66.601151,220.599564C65.831787,220.894791,64.917374,220.675323,64.569122,220.111847C64.220879,219.54837,63.250168,219.35051,62.411991,219.67215C61.545364,220.0047,60.032719,219.338867,58.905064,218.128464C57.814426,216.957809,56.21339,216,55.347198,216C53.949745,216,46.299503,212.302048,45,210.998413C44.724998,210.722534,43.284031,209.870514,41.797844,209.105026C39.469799,207.905945,36.934464,203.722061,36.60128,200.529526C36.545578,199.995773,35.375,198.989914,34,198.294281C32.625,197.598633,32.000618,197.022842,32.612488,197.01474C33.224354,197.006638,33.597584,195.987503,33.441887,194.75C33.28619,193.512497,32.894417,190.525513,32.571278,188.112259C32.248135,185.69899,32.411663,183.208908,32.934673,182.57872C33.476318,181.926071,33.518341,180.838699,33.03231,180.052277C32.563004,179.292923,32.397907,177.28302,32.665424,175.585815C32.932941,173.888626,32.657951,170.475006,32.054337,168C31.450722,165.524994,30.786005,160.676346,30.57719,157.225204C30.356089,153.571014,29.482973,149.859863,28.486603,148.339203C26.739794,145.673248,26.010933,142.173721,25.448042,133.75C25.268099,131.057144,25.560989,129,26.124336,129C26.67087,129,26.839918,128.550003,26.5,128C26.160082,127.449997,26.358524,127,26.940983,127C27.523443,127,28,125.6875,28,124.083336C28,122.479164,28.539593,120.986801,29.199095,120.766968C29.994394,120.501869,29.262711,118.36911,27.02632,114.433632C23.818811,108.789238,23.638739,107.939423,23.332212,97C23.154982,90.675003,22.557732,81.064819,22.004988,75.644043C20.360577,59.51725,20.644154,52.28511,23,50.267971C24.418299,49.053585,25,47.318035,25,44.300812C25,38.602596,27.920008,36.545681,35.03825,37.229652C41.070011,37.809231,41.516418,38.166546,39.924629,41.140827C39.244057,42.412495,38.329571,44.813534,37.892445,46.476475C37.455315,48.139412,36.128838,52.200001,34.94471,55.5C33.04887,60.783451,32.875267,62.689735,33.491066,71.462227C34.301556,83.008224,36.819233,93.736351,40.356556,100.716927C42.729301,105.399315,45.98278,109.225883,46.015312,107.372444C46.023735,106.892601,46.473736,107.175003,47.015312,108C47.890591,109.333336,48.109409,109.333336,48.984688,108C49.816483,106.732903,49.971752,106.78833,49.984688,108.356987C49.994888,109.593918,50.500858,110.021782,51.5,109.638374C52.42992,109.281532,53,109.643349,53,110.590401C53,111.430603,53.450001,111.83992,54,111.5C54.549999,111.16008,55,111.621025,55,112.524315C55,113.427612,55.558483,113.980507,56.24107,113.752975C57.904949,113.198349,60,115.412437,60,117.725479C60,118.753067,61.330944,120.697716,62.957653,122.046913C64.584366,123.396111,65.934364,125.0625,65.957657,125.75C66.004906,127.144882,67.609657,127.440605,68.378761,126.196167C69.10099,125.027573,67.259315,117.234489,64.98642,111.841431C61.566246,103.726158,62.054504,99.812447,67.960785,88C70.848312,82.224998,75.369995,73.675003,78.008965,69C80.647934,64.324997,83.335396,58.8125,83.981102,56.75C84.908943,53.786289,85.657654,53,87.551872,53C89.977585,53,93,48.877407,93,45.56871C93,44.726879,94.152184,43.748924,95.560402,43.395485C98.154854,42.74432,105.729813,43.396477,106.686729,44.353394C107.546486,45.213154,102.021431,55.68095,99.087364,58.751163C92.539955,65.602402,81.993317,91.228752,82.003738,100.261154C82.007614,103.617172,84.99855,109.58313,87.754997,111.733055C88.917641,112.639877,89.688332,112.673622,90.667953,111.860611C91.722015,110.985817,92,111.324722,92,113.484543C92,115.429024,92.407578,116.057571,93.417244,115.670128C94.196724,115.371017,95.145027,115.885368,95.524574,116.813141C96.141205,118.320427,96.302216,118.287094,97.037048,116.5C97.76973,114.718147,97.867096,114.788277,97.929718,117.143013C98.007965,120.085503,100.749107,121.81739,101.642639,119.488884C101.954453,118.676315,102.581322,118.241241,103.035683,118.522057C103.490051,118.802872,104.144455,118.575287,104.489922,118.016312C104.835381,117.457344,105.961151,117,106.991631,117C108.02211,117,109.150871,116.099998,109.5,115C110.254753,112.621994,112.551865,112.376816,113.765114,114.544769C114.707932,116.229492,124.58493,117.480614,125.482101,116.028954C125.764359,115.572258,127.683853,115.433708,129.74765,115.721054C131.811447,116.0084,136.875,116.354637,141,116.490456C145.125,116.626282,150.161346,117.437607,152.191879,118.293396C154.222412,119.149185,158.139511,119.800751,160.896515,119.74131C165.513489,119.641777,166.006912,119.391113,167.14592,116.56662C167.826065,114.879982,168.971481,113.140137,169.691269,112.70031C170.411072,112.260483,171,110.863693,171,109.596336C171,108.328972,172.158829,106.041641,173.57518,104.513374C174.991531,102.985107,176.566528,100.640106,177.07518,99.302254C178.257507,96.192528,178.261948,87.471375,177.084351,81.299225C175.275864,71.820259,173.725525,56.229721,174.345718,53.758709C174.693542,52.37286,175.883041,51.002342,176.989059,50.713112C178.583054,50.296272,179,49.353527,179,46.166199C179,41.131695,182.436325,38,187.960541,38C190.604462,38,192.317566,37.290871,194,35.5C195.938339,33.436726,197.284454,33,201.705704,33C208.235062,33,209.285294,34.623577,205.755188,39.260204C202.134964,44.015213,199,50.568516,199,53.381207C199,54.734692,198.041748,59.815117,196.870544,64.671043C195.300827,71.179253,194.789505,76.208946,194.925278,83.805809C195.049377,90.749138,194.592148,95.891144,193.523911,99.56575C190.575882,109.706589,191.448471,116.529747,195.592072,115.737648C196.909439,115.485817,198.49115,115.886871,199.106964,116.628876C199.722763,117.37088,200.625626,117.731377,201.113312,117.42997C201.600983,117.128571,202,117.50975,202,118.277046C202,119.225571,203.360413,119.725365,206.25,119.838425C208.587494,119.929893,210.659698,120.482742,210.854874,121.066986C211.050049,121.65123,212.314636,122.549324,213.665054,123.062752C215.015457,123.57618,215.892746,124.364532,215.614563,124.814644C215.336365,125.264755,216.434296,126.416039,218.054382,127.373055C219.674469,128.330063,221,129.597351,221,130.18924C221,130.781128,221.882736,132.031006,222.961655,132.966736C225.375824,135.060547,227.25914,139.75946,226.315201,141.333923C225.930679,141.975266,226.377472,141.882401,227.308044,141.127548C228.770645,139.941162,229,139.983047,229,141.436569C229,142.411377,229.465286,142.830475,230.107132,142.433792C230.848404,141.975662,230.996323,142.436203,230.554764,143.827438C230.016083,145.524673,230.264313,145.834259,231.909683,145.517395C233.672516,145.177902,233.847641,145.511826,233.311813,148.190903C232.860413,150.447906,233.133148,151.49501,234.349762,152.175858C235.445572,152.789108,236,154.416,236,157.018311C236,159.965012,236.347031,160.804062,237.398849,160.400436C239.065292,159.760971,240.478317,161.586349,239.016312,162.489914C238.457336,162.835388,238,163.568039,238,164.118027C238,164.66803,238.449997,164.83992,239,164.5C240.283691,163.706635,240.271103,164.624939,238.964813,167.065735C238.21846,168.460312,238.252625,169,239.087265,169C239.925323,169,239.90123,169.414093,239,170.5C237.980423,171.7285,238.048767,172,239.377548,172C240.269897,172,241,171.550003,241,171C241,170.449997,241.519745,170,242.154984,170C242.808792,170,242.522171,170.870514,241.494446,172.006134C239.534058,174.172348,239.531937,174.164352,242.5,175.822113C244.198822,176.770966,244.241928,176.943756,242.78627,176.969589C241.345627,176.995148,241.126297,177.836624,241.409927,182.25C241.595505,185.137497,242.069061,188.265945,242.46228,189.202118C242.855499,190.138275,242.842819,191.445297,242.434097,192.106628C241.96312,192.868683,242.113785,193.047714,242.84549,192.59549C244.629776,191.492737,244.221863,194.115677,241.949799,198.354858C240.822189,200.45874,240.372177,201.888016,240.949799,201.531021C242.232712,200.738144,242.364212,204.214767,241.101822,205.550003C240.607819,206.072495,239.898773,208.803055,239.526154,211.617905C238.894226,216.391632,239.034271,216.88179,241.608719,218.90686C243.630585,220.497253,245.134445,220.909744,247.231598,220.449127C249.635315,219.921188,250.642853,220.401855,253.514282,223.446472C256.641541,226.762344,256.92157,227.561432,256.78717,232.786285C256.670502,237.320755,256.058136,239.304932,253.820084,242.40004C252.269043,244.545059,251,246.712784,251,247.217194C251,247.721603,252.54425,249.590714,254.431656,251.370773C258.352997,255.069092,259.83374,259.290466,257.989227,261.513C256.378754,263.453461,253.891312,263.39267,249.515228,261.305878C246.58345,259.907806,245.397919,259.814697,242.731308,260.773132C240.954086,261.411926,236.125,262.060974,232,262.215485C225.746918,262.449738,223.690857,262.098419,219.633133,260.102448C214.775772,257.713104,214.755249,257.711914,209.133133,259.481079C206.034912,260.456055,201.074158,262.546661,198.109238,264.126862C192.728363,266.99472,187.733368,267.750488,185.115967,266.092834z"/>
</svg>
