<?xml version="1.0" encoding="UTF-8"?>
<svg xmlns="http://www.w3.org/2000/svg" width="200.004mm" height="200.005mm" viewBox="-857.001770 -598.505981 200.004028 200.004761">
    <path transform="matrix(-1,0,0,-1,0,0)" style="stroke:#000000;stroke-width:0.05mm;fill:none" d="M758.292969,398.507813C782.71405,398.790955,806.181396,408.032288,824.238281,424.476563C836.818481,435.899048,846.284851,450.335205,851.746094,466.425781C859.565796,489.61853,858.639282,514.868591,849.140625,537.425781C837.989868,563.743652,816.137573,584.051331,789.074219,593.246094C765.087952,601.335693,738.930969,600.057556,715.847656,589.667969C690.579651,578.229126,671.177795,556.836121,662.253906,530.574219C654.433594,507.3815,655.360168,482.131256,664.859375,459.574219C676.010132,433.256378,697.862549,412.948792,724.925781,403.753906C735.670288,400.126038,746.953613,398.35199,758.292969,398.507813z"/>
    <path transform="matrix(-1,0,0,-1,0,0)" style="stroke:#000000;stroke-width:0.05mm;fill:none" d="M756.484375,488.511719C750.968628,488.798187,746.72821,493.499695,747.011719,499.015625C747.298767,504.53125,751.999817,508.771545,757.515625,508.488281C763.031128,508.200775,767.271179,503.500122,766.988281,497.984375C766.701294,492.468719,762.000244,488.228577,756.484375,488.511719z"/>
</svg>
