<?xml version="1.0" encoding="UTF-8"?>
<svg xmlns="http://www.w3.org/2000/svg" width="445.180mm" height="329.437mm" viewBox="-52.992706 -486.411377 445.180084 329.436951">
    <path transform="matrix(-1,0,0,-1,1357.187378,246.732178)" style="stroke:#000000;stroke-width:0.05mm;fill:none" d="M1105,635C1113.099976,636.200012,1132.106567,638.379578,1159,643C1182.091553,646.967285,1182.194824,646.666809,1205,652C1221.642212,655.891968,1233.050049,659.650024,1238,661L1253,665C1254.469482,667.299988,1256.616455,671.050903,1259.537964,675.930542C1260.304688,677.211243,1259.429443,675.780884,1260.304688,677.211243C1261.347656,678.91571,1264.092651,683.52002,1265.306763,685.41748C1266.290161,686.954285,1262.898071,686.348633,1264,688C1264.9823,689.471924,1270.446045,693.189636,1271.526733,694.744446C1272.931519,696.765625,1274.421143,698.853577,1276,701C1278.276245,704.09436,1280.447998,706.822144,1282.432861,709.19812C1286.85144,714.487427,1290.343872,718.033386,1292,720C1294.099976,721.5,1298.202515,727.320923,1306,730C1316.886597,733.740479,1318.005127,732.397339,1330,733C1338.503662,733.427246,1339.099365,732.940369,1347,731C1355.115723,729.006775,1359.75,724.349976,1362,723L1367,720L1373,716C1375.5,714.5,1380.5,711.5,1383,710L1386,705C1377.156006,705.747559,1391.380127,696.970947,1389,696C1385.869385,694.722961,1389.300049,692.950012,1389,691L1391,683C1391.300049,682.549988,1391.671509,680.394897,1393,680C1395.806152,679.165833,1401.060669,679.736755,1404,679C1411.414063,677.141724,1410.17688,670.362244,1410,665C1409.898438,661.920898,1407.75,662.900024,1407,662C1405.570435,657.115723,1401.055176,618.978577,1398.212158,632.762939C1396.383545,641.629028,1394.509888,626.227783,1392,623C1390.908447,621.596252,1382.22876,636.818115,1382.479248,635.365356C1384.971436,620.910583,1381.434204,605.54071,1380.3302,609.530457C1371.543823,641.283081,1374.116577,617.807983,1373,608C1372.827271,606.482666,1369.098633,606.683228,1368.787231,607.935974C1363.619751,628.727722,1360.010864,609.155212,1356.767944,611.392517C1354.628418,612.868591,1352.601074,614.848267,1350.250488,617.393372C1349.238525,618.489136,1348.166626,619.689697,1347,621C1342.185913,626.406921,1341.599976,647.349976,1341,652C1337.25,647.349976,1324.869629,638.355347,1316,621C1308.381836,606.093567,1310.927002,604.635254,1307,588C1302.9021,570.641113,1305.857544,569.671692,1300,553C1295.008789,538.794189,1289.613525,540.3526,1286,526C1278.038818,494.378448,1285.150024,469.049988,1285,459C1286.349976,454.350006,1286.047363,435.157074,1296,425C1301.168457,419.725403,1305.484131,426.886414,1310,423C1313.333862,420.13089,1312.550049,414.5,1313,413C1306.5,412,1299.657715,407.690857,1287,409C1278.77771,409.850403,1277.563232,410.082397,1271,415C1261.397949,422.194519,1258.25,432,1256,435C1253.599976,438.899994,1249.431274,445.880035,1245,460C1237.294556,484.552551,1243.540039,505.400635,1237,514C1233.154663,519.056213,1186.165283,539.429749,1133,546C1123.703735,547.148865,1117.866089,548.873779,1112,544C1102.802124,536.358032,1104.050049,518.349976,1103,514C1098.800049,510.100006,1091.331787,500.541351,1075,492C1060.999023,484.677673,1061.327026,493.822632,1053,488C1040.481689,479.246674,1040.550049,458.350006,1038,454C1042.25,451.5,1050.75,446.5,1055,444C1054.550049,442.950012,1055.390869,436.335602,1052,437C1042.643433,438.833282,1046.740356,432.822815,1041,432C1030.921997,430.555481,1023.150024,434.549988,1020,435C1018.5,434.75,1015.5,434.25,1014,434L1017,467C1013,464.75,1007.242371,464.254272,1001,458C991.256653,448.238129,986.703491,441.324432,987,429C987.195251,420.884399,992.230164,423.177734,997,417C999.62677,413.59787,1001.25,411.049988,1002,410C997.650024,409.100006,983.168335,407.226563,973,404C964.839661,401.410614,966.950012,416.75,965,419C966.349976,425.299988,983.435059,451.568512,975,461C973.026428,463.206696,968.5,460.149994,967,460C969.75,463.25,973.875,468.125031,978,473.000061C980.911072,476.440399,982.921265,478.186432,979,479C977.465515,479.318359,988.190735,485.043579,989,486C991.849976,488.25,1001.231201,491.544769,1008,501C1027.279297,527.93103,1027.550049,556.25,1031,566C1032.199951,570.799988,1030.778198,577.617798,1038,592C1041.111816,598.197083,1041.079224,600.056335,1043.187378,605.732178C1048.103516,618.967712,1017.25824,627.7995,1008.030151,645.201782C1000.717346,658.992249,997.207336,670.108765,1001.030151,687.201782C1003.542297,698.434265,1007.388916,713.723755,1012.030151,712.201782C1021.198242,709.195313,1007.093628,682.62323,1013.030151,668.201782C1017.57251,657.167114,1022.381348,646.011597,1038.187378,637.732178C1045.263306,634.025696,1053.23877,628.32019,1061.030151,630.201782C1080.584106,634.924011,1105.11084,635.997498,1105,635z"/>
</svg>
