<?xml version="1.0" encoding="UTF-8"?>
<svg xmlns="http://www.w3.org/2000/svg" width="445.189mm" height="329.433mm" viewBox="-1410.189209 -733.140625 445.189209 329.433105">
    <path transform="matrix(-1,0,0,-1,0,0)" style="stroke:none;fill:#000000;fill-rule:evenodd" d="M1081.773438,632.828125C1081.550049,632.719177,1081.314209,632.637695,1081.070313,632.589844C1079.672607,632.319275,1078.255127,632.163269,1076.832031,632.121094C1074.293335,632.010254,1071.752197,631.960815,1069.210938,631.972656C1067.839722,631.983093,1066.37146,631.992615,1065,632C1064.604126,632.719543,1064.137695,633.397949,1063.605469,634.023438C1062.423218,635.457642,1061.290894,636.932556,1060.210938,638.445313C1059.249023,639.806274,1058.438599,641.26825,1057.792969,642.804688C1057.22583,644.143311,1056.882813,645.565918,1056.773438,647.015625C1056.69397,648.580322,1056.922974,650.145386,1057.449219,651.621094C1058.163696,653.876709,1059.561035,655.855469,1061.449219,657.28125C1062.854004,658.303406,1064.443604,659.043213,1066.128906,659.464844C1068.353516,660.04895,1070.660034,660.255737,1072.953125,660.078125C1075.076904,659.913757,1077.112915,659.160156,1078.832031,657.902344C1080.079712,656.948608,1081.165161,655.799561,1082.046875,654.5C1083.875854,651.942932,1084.955566,648.925964,1085.164063,645.789063C1085.425049,642.234192,1085.154175,638.713562,1083.746216,635.438965C1081.548462,631.735168,1077.53125,596.885559,1100.335571,632.149841C1101.830444,635.281494,1104.518677,638.164673,1104.622314,638.723511C1104.976929,640.886536,1106.078979,642.681213,1105.984375,644.871094C1105.982178,647.120605,1106.030518,649.369812,1106.128906,651.617188C1106.175049,652.786377,1106.136475,653.957275,1106.015625,655.121094C1105.768799,656.937866,1105.22583,658.70166,1104.410156,660.34375C1103.757202,661.673401,1103.046631,662.973877,1102.28125,664.242188C1100.85144,666.751709,1099.317505,669.200317,1097.683594,671.582031C1096.546143,673.238586,1095.269287,674.794922,1093.867188,676.234375C1091.650513,678.474243,1089.002075,680.240967,1086.082031,681.425781C1083.978638,682.276489,1081.80835,682.951477,1079.59375,683.445313C1076.214844,684.246216,1072.780884,684.793518,1069.320313,685.082031C1067.153564,685.258545,1064.974487,685.215088,1062.816406,684.953125C1059.480591,684.531616,1056.270386,683.413879,1053.394531,681.671875C1051.44043,680.49408,1049.596069,679.143433,1047.882813,677.636719C1045.342529,675.453979,1042.978271,673.074341,1040.8125,670.519531C1039.569702,669.041626,1038.487183,667.436157,1037.582031,665.730469C1036.541382,663.701965,1035.834351,661.519104,1035.488281,659.265625C1035.161865,657.052551,1034.993652,654.819031,1034.984375,652.582031C1034.958252,649.397034,1034.96875,646.212158,1035.015625,643.027344C1035.097046,639.413147,1035.815308,635.841492,1037.136719,632.476563C1038.00769,630.316589,1039.082642,628.244507,1040.347656,626.289063C1041.519897,624.483276,1042.716309,622.694702,1043.9375,620.921875C1044.86499,619.564758,1045.712769,618.154785,1046.476563,616.699219C1047.659912,614.481445,1048.402222,612.055115,1048.660156,609.554688C1048.854858,607.307129,1048.697388,605.043152,1048.195313,602.84375C1048.081909,602.210999,1047.909424,601.59021,1047.683594,600.988281C1047.182617,599.675842,1046.236938,598.581055,1045.015625,597.886719C1044.317627,597.486206,1043.609131,597.104675,1042.890625,596.742188C1041.814453,596.220642,1040.823242,595.539124,1039.953125,594.71875C1039.151978,593.930298,1038.491211,593.010986,1038,592C1036.282593,588.636169,1034.84668,585.135986,1033.707031,581.535156C1032.626953,577.99292,1031.934448,574.343872,1031.640625,570.652344C1031.53833,569.2453,1031.359985,567.844666,1031.105469,566.457031C1031.051392,566.139526,1030.964355,565.828308,1030.839844,565.53125C1030.239014,563.527222,1029.755127,561.489868,1029.390625,559.429688C1028.653564,555.372009,1027.885132,551.308105,1027.089844,547.261719C1025.824829,540.887573,1024.138916,534.60437,1022.042969,528.453125C1019.03949,519.648987,1014.908813,511.270813,1009.753906,503.527344C1008.799377,502.073242,1007.781494,500.661713,1006.703125,499.296875C1004.126404,496.17099,1001.090515,493.454132,997.699219,491.238281C995.753235,489.969696,993.755493,488.78241,991.710938,487.679688C990.76709,487.187531,989.860901,486.626038,989,486C988.581482,485.631683,988.127502,485.305756,987.644531,485.027344C985.563721,483.750732,983.793701,482.662842,981.714844,481.382813C980.867798,480.871521,980.056396,480.303375,979.285156,479.683594C979.146301,479.563263,979.019531,479.42981,978.90625,479.285156C978.887451,479.246887,978.871033,479.207611,978.855469,479.167969C978.858948,479.138336,978.857788,479.108612,978.863281,479.078125L978.890625,479.046875L978.9375,479.019531L979,479C979.566284,478.907166,980.112488,478.717651,980.613281,478.4375C980.724121,478.377808,980.821899,478.296722,980.90625,478.203125L981.011719,478.074219C981.101929,477.949585,981.163513,477.805603,981.175781,477.652344C981.184692,477.282379,981.077515,476.920197,980.882813,476.605469C980.481995,475.950012,980.021667,475.332886,979.507813,474.761719L979.039063,474.210938L978.535156,473.625L978,473L976.457031,471.175781L974.929688,469.371094L974.175781,468.480469L973.433594,467.601563L972.699219,466.738281L971.984375,465.890625L971.285156,465.0625L970.601563,464.257813C969.384277,462.817017,968.220703,461.441284,967,460C967.387451,460.065094,967.765259,460.17804,968.125,460.335938C969.195679,460.806244,970.292542,461.214325,971.410156,461.558594C972.05365,461.753906,972.727905,461.828278,973.398438,461.777344C974.013184,461.737122,974.589294,461.459167,975,461C975.916199,459.950989,976.569336,458.699097,976.90625,457.347656C977.269104,455.853027,977.403931,454.312195,977.304688,452.777344C977.148865,450.488068,976.752197,448.221741,976.121094,446.015625C975.435059,443.575531,974.616028,441.174957,973.667969,438.824219C972.209229,435.245972,970.637939,431.713928,968.957031,428.234375C967.828979,425.942108,966.763489,423.619659,965.761719,421.269531C965.444763,420.535675,965.189636,419.77655,965,419C965.135742,418.82901,965.245361,418.638702,965.320313,418.433594C965.586182,417.63385,965.762573,416.80722,965.847656,415.96875C966.028381,414.352783,966.222107,412.741638,966.429688,411.128906C966.529724,410.407593,966.660278,409.690857,966.820313,408.980469C967.03717,407.899261,967.407715,406.854431,967.921875,405.878906C968.303162,405.130219,968.897156,404.510529,969.628906,404.097656C970.231689,403.787079,970.910828,403.655304,971.585938,403.71875C972.067017,403.754456,972.54187,403.848907,973,404C975.704407,404.841949,978.443909,405.566681,981.210938,406.171875C985.914185,407.194458,990.64325,408.090515,995.394531,408.859375C997.602051,409.206726,999.804077,409.586975,1002,410C1000.402344,412.381866,998.734924,414.716217,997,417C995.691772,418.685822,994.058044,420.091827,992.195313,421.132813C991.428406,421.565918,990.675415,422.023071,989.9375,422.503906C989.130249,423.029633,988.458313,423.738312,987.972656,424.570313C987.57196,425.320892,987.303467,426.134766,987.179688,426.976563C987.071106,427.645813,987.011414,428.322083,987,429C986.904053,431.803864,987.13623,434.609314,987.691406,437.359375C988.427734,440.773956,989.776123,444.027039,991.671875,446.960938C993.20105,449.311249,994.92041,451.532166,996.8125,453.601563C998.350952,455.30658,999.941284,456.963409,1001.582031,458.570313C1004.258545,461.108307,1007.406677,463.097382,1010.847656,464.425781C1012.380371,465.004456,1013.905151,465.603516,1015.421875,466.222656C1015.959656,466.457184,1016.486633,466.715881,1017,467L1014,434L1020,435C1021.08313,434.789246,1022.14978,434.500946,1023.191406,434.136719C1025.665894,433.316589,1028.194092,432.667877,1030.757813,432.195313C1034.140747,431.59549,1037.59668,431.52948,1041,432C1041.730469,432.084167,1042.434448,432.32608,1043.058594,432.714844C1043.681274,433.158264,1044.188843,433.744324,1044.535156,434.425781C1044.803589,434.977966,1045.12561,435.502625,1045.496094,435.992188C1045.915405,436.526093,1046.489014,436.918915,1047.140625,437.109375C1047.975342,437.331451,1048.84314,437.401733,1049.703125,437.320313C1050.474609,437.260712,1051.241577,437.153351,1052,437C1052.192627,436.960632,1052.389526,436.948853,1052.585938,436.957031C1052.918457,436.978363,1053.237427,437.098572,1053.496094,437.308594L1053.675781,437.472656C1053.97644,437.809387,1054.197266,438.210144,1054.320313,438.644531C1054.559448,439.459717,1054.702637,440.300018,1054.746094,441.148438C1054.78125,441.956726,1054.833374,442.764221,1054.902344,443.570313C1054.913208,443.717682,1054.944458,443.863159,1055,444L1038,454C1038.387207,454.743652,1038.676636,455.53421,1038.863281,456.351563C1039.245239,457.875977,1039.579956,459.411926,1039.867188,460.957031C1040.401245,463.775146,1041.033081,466.573456,1041.761719,469.347656C1042.464355,472.004059,1043.376099,474.600647,1044.488281,477.113281C1045.338379,479.0242,1046.374878,480.846741,1047.582031,482.554688C1049.233887,484.920624,1051.331909,486.941406,1053.757813,488.503906C1054.724609,489.147858,1055.7948,489.62088,1056.921875,489.902344C1057.913208,490.115967,1058.939087,490.111786,1059.929688,489.894531C1060.749023,489.698669,1061.569214,489.507294,1062.390625,489.320313C1064.554321,488.841766,1066.803467,488.912567,1068.933594,489.523438C1071.040039,490.125183,1073.074219,490.95575,1075,492C1082.328003,495.79184,1089.104126,500.566528,1095.140625,506.191406C1097.231201,508.1716,1099.272217,510.203583,1101.261719,512.285156C1101.827637,512.870361,1102.407593,513.441711,1103,514C1103.028931,514.148865,1103.061035,514.29718,1103.09375,514.445313C1103.289917,515.810852,1103.422852,517.184692,1103.492188,518.5625C1103.666748,521.643372,1103.984741,524.714417,1104.445313,527.765625C1104.846313,530.444763,1105.511597,533.077759,1106.433594,535.625C1107.021362,537.23645,1107.78186,538.779663,1108.703125,540.226563C1110.076172,542.418213,1111.967163,544.238342,1114.207031,545.53125C1115.977783,546.521301,1117.950928,547.09436,1119.976563,547.207031C1121.716675,547.304321,1123.462036,547.243713,1125.191406,547.027344C1127.509277,546.742065,1129.824463,546.436035,1132.136719,546.109375C1147.524902,544.202881,1162.765015,541.246704,1177.75,537.261719C1189.844482,534.095825,1201.755859,530.26709,1213.429688,525.792969C1218.604614,523.82428,1223.690552,521.62793,1228.671875,519.210938C1230.785522,518.198914,1232.836182,517.060059,1234.8125,515.800781C1235.527954,515.360413,1236.190918,514.839905,1236.789063,514.25C1237.634277,513.206055,1238.286987,512.020569,1238.722656,510.75C1239.317871,509.011383,1239.720947,507.212921,1239.925781,505.386719C1240.158447,503.468292,1240.30835,501.54068,1240.375,499.609375L1240.433594,498.027344C1240.517212,494.526764,1240.613647,491.015381,1240.722656,487.515625C1240.858643,483.495728,1241.17395,479.483856,1241.667969,475.492188C1242.429565,469.345581,1240.995728,459.86026,1243,454C1244.175415,450.181335,1245.509766,442.439636,1246.723267,441.20108C1247.799683,440.102417,1252.398193,441.050262,1255,442C1256.32251,439.280609,1255.865356,437.71228,1257.465454,435.146423C1258.085571,434.237,1259.511841,430.986603,1260,430C1261.205566,427.601349,1261.688354,426.903717,1263.129395,424.638733C1265.237671,421.360657,1266.317627,418.919342,1269.273438,416.378906C1271.257446,414.726013,1273.352173,413.210785,1275.542969,411.84375C1277.351563,410.745575,1279.358521,410.012817,1281.449219,409.6875C1284.053955,409.283752,1286.674683,408.993011,1289.304688,408.816406C1293.945068,408.570862,1298.594604,409.08255,1303.070313,410.332031C1304.713989,410.78363,1306.349121,411.262695,1307.976563,411.769531C1309.424316,412.232666,1310.898315,412.609344,1312.390625,412.898438L1313,413L1312.960938,413.152344C1312.936279,413.275238,1312.920288,413.399414,1312.902344,413.523438C1312.829102,414.369873,1312.771973,415.217773,1312.730469,416.066406C1312.671021,417.044647,1312.524902,418.015594,1312.296875,418.96875C1312.170166,419.469116,1312.008911,419.960175,1311.8125,420.4375C1311.293823,421.753296,1310.360352,422.863525,1309.15625,423.605469L1308.734375,423.820313C1307.943481,424.168579,1307.071899,424.290985,1306.214844,424.179688C1305.787231,424.138855,1305.363892,424.061127,1304.949219,423.949219C1304.095459,423.711548,1303.239258,423.478302,1302.382813,423.25C1301.807983,423.105286,1301.220703,423.014618,1300.628906,422.980469C1299.30481,422.912018,1298.002197,423.331543,1296.960938,424.152344C1296.445068,424.549408,1295.967773,424.994415,1295.539063,425.484375C1294.189331,426.959778,1293.014404,428.586304,1292.039063,430.332031C1290.738281,432.679901,1289.681763,435.15506,1288.886719,437.71875C1287.778687,441.36673,1286.963989,445.097382,1286.449219,448.875C1286.124023,451.331238,1285.80957,453.782745,1285.503906,456.242188C1285.401855,457.172272,1285.233276,458.093872,1285,459C1284.987183,460.937927,1284.861938,462.873444,1284.625,464.796875C1284.12561,468.933838,1283.643677,473.092468,1283.183594,477.234375C1282.41626,484.286224,1282.110962,491.38092,1282.269531,498.472656C1282.500977,508.207886,1283.868164,517.88269,1286.34375,527.300781C1287.056885,529.993958,1288.090088,532.59198,1289.421875,535.039063C1290.329224,536.618164,1291.352661,538.127747,1292.484375,539.554688C1293.450195,540.785767,1294.379272,542.045227,1295.269531,543.332031C1297.134033,546.139099,1298.644409,549.165833,1299.765625,552.34375C1300.925781,555.516541,1301.920776,558.747559,1302.746094,562.023438C1303.40271,564.727905,1303.875122,567.473816,1304.160156,570.242188C1304.397339,572.682617,1304.677368,575.119995,1305,577.550781C1305.5448,581.323486,1306.272339,585.067322,1307.179688,588.769531C1308.106079,592.790833,1308.856812,596.850891,1309.429688,600.9375C1309.731567,603.165283,1310.132813,605.378418,1310.632813,607.570313C1311.415894,610.660095,1312.491089,613.668396,1313.84375,616.554688C1315.721924,620.703735,1317.9021,624.709351,1320.367188,628.539063C1323.807495,633.754639,1327.750732,638.620361,1332.140625,643.066406C1334.291992,645.229492,1336.462158,647.36853,1338.65625,649.488281C1339.483276,650.281555,1340.265137,651.120667,1341,652C1341.208984,649.987915,1341.380859,647.971558,1341.515625,645.953125C1341.815552,641.667053,1342.291138,637.395386,1342.941406,633.148438C1343.292114,630.886536,1343.779907,628.647949,1344.402344,626.445313C1344.779541,625.091919,1345.296021,623.781067,1345.945313,622.535156C1346.241577,621.987549,1346.59436,621.472351,1347,621C1348.859741,618.860535,1350.787842,616.781067,1352.78125,614.765625C1354.009033,613.525757,1355.343384,612.396057,1356.769531,611.390625C1356.86731,611.334656,1356.969727,611.287964,1357.074219,611.246094L1357.226563,611.214844C1357.571899,611.210632,1357.90686,611.33551,1358.160156,611.570313C1358.591064,611.938538,1358.96875,612.364441,1359.289063,612.832031C1359.849365,613.656982,1360.412354,614.477295,1360.980469,615.296875C1361.391113,615.912964,1361.877563,616.475037,1362.425781,616.972656L1362.613281,617.121094C1362.890137,617.349548,1363.218018,617.509338,1363.570313,617.578125L1363.765625,617.597656C1363.898193,617.602112,1364.029541,617.584534,1364.160156,617.5625C1364.459595,617.473999,1364.73584,617.323547,1364.976563,617.125C1365.507935,616.634277,1365.941284,616.046814,1366.253906,615.394531C1366.900146,614.104553,1367.43042,612.759644,1367.835938,611.375C1368.189941,610.196655,1368.52063,609.011597,1368.828125,607.820313C1368.866699,607.747742,1368.909668,607.677612,1368.960938,607.613281C1369.213135,607.363464,1369.524536,607.1828,1369.867188,607.089844C1370.668823,606.843811,1371.529663,606.871277,1372.3125,607.171875C1372.404785,607.213501,1372.490723,607.26709,1372.574219,607.324219C1372.688477,607.402466,1372.781982,607.50531,1372.863281,607.617188L1372.929688,607.734375L1372.972656,607.863281C1373.145386,609.297485,1373.246216,610.739319,1373.273438,612.183594C1373.335571,614.491211,1373.38623,616.78949,1373.425781,619.097656C1373.435547,620.637512,1373.523438,622.175903,1373.6875,623.707031C1373.734985,624.17627,1373.832886,624.639282,1373.984375,625.085938L1374.0625,625.261719L1374.144531,625.402344C1374.200317,625.466553,1374.2677,625.51709,1374.335938,625.566406L1374.445313,625.585938L1374.558594,625.5625L1374.683594,625.496094L1374.820313,625.382813L1374.960938,625.222656C1375.310181,624.729858,1375.603149,624.199524,1375.832031,623.640625C1376.588379,621.812927,1377.25708,619.950073,1377.835938,618.058594C1378.731689,615.172363,1379.580444,612.27301,1380.382813,609.359375C1380.42688,609.200867,1380.512451,609.057556,1380.628906,608.941406L1380.699219,608.902344C1380.747314,608.895386,1380.795776,608.896118,1380.84375,608.902344L1380.917969,608.941406L1380.992188,609L1381.074219,609.085938C1381.369873,609.542175,1381.591309,610.041931,1381.734375,610.566406C1382.125488,611.885559,1382.419312,613.231628,1382.613281,614.59375C1383.647217,621.501831,1383.599609,628.528381,1382.472656,635.421875L1382.480469,635.453125L1382.5,635.464844C1382.526733,635.450134,1382.552246,635.433838,1382.578125,635.417969L1382.628906,635.363281C1382.707764,635.271057,1382.789673,635.181763,1382.859375,635.082031C1383.770386,633.78241,1384.646729,632.458984,1385.488281,631.113281C1386.803467,629.034912,1388.189575,627.002502,1389.644531,625.019531C1390.090576,624.403931,1390.590088,623.829041,1391.136719,623.300781C1391.268066,623.153503,1391.43103,623.036438,1391.613281,622.960938C1391.672119,622.936401,1391.733765,622.919312,1391.796875,622.910156L1391.875,622.917969L1391.945313,622.945313C1392.255249,623.323608,1392.505981,623.746704,1392.691406,624.199219C1393.105469,625.156616,1393.467041,626.135742,1393.773438,627.132813C1394.294189,628.896484,1394.824585,630.65979,1395.363281,632.417969C1395.599121,633.232971,1395.907837,634.025208,1396.285156,634.785156C1396.342285,634.88446,1396.401855,634.982361,1396.464844,635.078125L1396.554688,635.195313C1396.609985,635.259888,1396.672485,635.317078,1396.734375,635.375C1396.792725,635.408264,1396.853271,635.435059,1396.910156,635.46875C1396.968628,635.475403,1397.027466,635.47467,1397.085938,635.46875L1397.175781,635.429688C1397.317383,635.316589,1397.434204,635.177063,1397.523438,635.019531L1397.609375,634.847656C1397.915039,634.073669,1398.13855,633.269714,1398.277344,632.449219C1398.415527,631.706299,1398.650757,630.984619,1398.980469,630.304688L1399.050781,630.183594C1399.098267,630.118164,1399.148315,630.054871,1399.199219,629.992188C1399.244385,629.94281,1399.297241,629.902832,1399.347656,629.859375L1399.496094,629.792969C1399.599121,629.781494,1399.70166,629.795776,1399.800781,629.824219C1399.912476,629.897827,1400.019165,629.978821,1400.113281,630.074219C1400.446533,630.528442,1400.711304,631.028687,1400.902344,631.558594C1401.495361,633.220276,1401.977905,634.919373,1402.347656,636.644531C1403.2229,640.61908,1403.9823,644.617981,1404.625,648.636719L1404.902344,650.277344C1405.44873,653.765259,1406.046265,657.244385,1406.695313,660.714844C1406.778931,661.147278,1406.880005,661.576233,1407,662C1407.152466,662.157471,1407.339478,662.27655,1407.546875,662.347656C1407.949707,662.443115,1408.348633,662.554871,1408.742188,662.683594C1408.909302,662.738647,1409.062256,662.827942,1409.203125,662.933594C1409.35498,663.054077,1409.483276,663.200256,1409.59375,663.359375C1409.655518,663.453064,1409.709839,663.551514,1409.75,663.65625C1409.918091,664.084229,1410.005737,664.540283,1410,665C1410.071899,666.395996,1410.131714,667.790649,1410.179688,669.1875C1410.213745,670.234131,1410.162354,671.28186,1410.027344,672.320313C1409.883301,673.635742,1409.434937,674.900208,1408.710938,676.007813C1407.99292,677.034119,1407.008911,677.845093,1405.863281,678.351563C1404.686035,678.88562,1403.422607,679.205139,1402.132813,679.292969C1400.654785,679.404602,1399.173584,679.468628,1397.691406,679.484375C1396.508789,679.498657,1395.328003,679.585266,1394.15625,679.746094C1393.766357,679.809143,1393.380249,679.893494,1393,680C1392.841431,680.057983,1392.690552,680.134216,1392.546875,680.222656C1392.13269,680.55426,1391.816528,680.990417,1391.613281,681.480469C1391.442627,681.904541,1391.277466,682.329651,1391.117188,682.757813C1391.08313,682.840881,1391.044556,682.921997,1391,683L1389,691C1389.040894,691.365601,1388.98291,691.733887,1388.84375,692.074219L1388.6875,692.425781C1388.437988,692.864685,1388.18457,693.313477,1387.9375,693.753906L1387.796875,694.066406C1387.740479,694.212585,1387.705688,694.365295,1387.679688,694.519531L1387.671875,694.667969C1387.684937,694.815186,1387.72583,694.957214,1387.78125,695.09375C1387.898682,695.31366,1388.07312,695.497864,1388.285156,695.628906C1388.427002,695.721436,1388.57251,695.808533,1388.726563,695.878906L1389,696C1389.062744,696.031555,1389.119751,696.071716,1389.175781,696.113281C1389.208008,696.163269,1389.239258,696.213928,1389.261719,696.269531C1389.280518,696.333252,1389.283325,696.40094,1389.265625,696.464844L1389.238281,696.574219C1389.196411,696.712402,1389.136108,696.844788,1389.050781,696.960938C1388.729858,697.438904,1388.361572,697.883362,1387.949219,698.285156C1386.997559,699.245911,1386.040039,700.19812,1385.074219,701.144531C1384.467041,701.739197,1383.921265,702.393616,1383.445313,703.097656C1383.278076,703.342896,1383.159302,703.617676,1383.089844,703.90625L1383.074219,704.046875C1383.045532,704.369141,1383.228638,704.672546,1383.527344,704.796875C1383.702271,704.890381,1383.892578,704.953674,1384.089844,704.972656L1384.332031,705.007813C1384.887085,705.056641,1385.445557,705.055176,1386,705L1383,710L1373,716L1367,720L1362,723C1361.028442,723.648376,1360.081177,724.332336,1359.160156,725.050781C1356.715454,726.912292,1354.042847,728.453613,1351.207031,729.636719C1349.609619,730.282593,1347.96228,730.797729,1346.28125,731.175781C1344.327637,731.690186,1342.36377,732.164185,1340.390625,732.597656C1338.304077,733.014038,1336.177734,733.195801,1334.050781,733.140625C1331.991211,733.097107,1329.931885,733.018921,1327.875,732.90625C1325.251709,732.831177,1322.628418,732.786987,1320.003906,732.773438C1318.194824,732.764954,1316.388916,732.61969,1314.601563,732.339844C1312.340088,731.940125,1310.111328,731.373718,1307.933594,730.644531C1306.561157,730.23468,1305.214844,729.741455,1303.902344,729.167969C1301.171753,727.909546,1298.656982,726.228271,1296.449219,724.1875C1295.321045,723.147583,1294.216675,722.082153,1293.136719,720.992188C1292.783203,720.633545,1292.402466,720.302734,1292,720C1290.339355,718.123047,1288.662598,716.265564,1286.964844,714.421875C1282.215332,709.159546,1277.785278,703.616821,1273.699219,697.824219C1272.96875,696.802734,1272.244873,695.776855,1271.527344,694.746094C1271.085205,694.191589,1270.582764,693.687988,1270.03125,693.242188C1268.684814,692.122009,1267.325195,691.00531,1265.964844,689.902344C1265.290649,689.37677,1264.668579,688.78772,1264.105469,688.144531C1264.005371,688.009399,1263.915405,687.867065,1263.84375,687.714844L1263.800781,687.589844C1263.794434,687.518127,1263.782227,687.447327,1263.777344,687.375C1263.789917,687.28125,1263.818359,687.189819,1263.878906,687.117188L1264.011719,686.980469L1264.1875,686.863281C1264.467896,686.728455,1264.750366,686.5979,1265.035156,686.472656C1265.151367,686.404297,1265.263794,686.329651,1265.363281,686.238281C1265.396973,686.18866,1265.425781,686.136597,1265.457031,686.085938L1265.480469,685.996094C1265.482788,685.929688,1265.483765,685.86322,1265.476563,685.796875C1265.437134,685.663757,1265.383423,685.535095,1265.308594,685.417969C1265.224609,685.290344,1265.141724,685.161926,1265.0625,685.03125C1263.356201,682.238159,1261.62085,679.387085,1259.921875,676.585938C1259.887207,676.525085,1259.856934,676.462097,1259.820313,676.402344L1259.753906,676.292969L1259.714844,676.222656C1257.672729,672.769287,1255.647339,669.369873,1253.582031,665.929688C1253.39209,665.617188,1253.19812,665.307312,1253,665L1238,661C1234.315674,659.931396,1230.584229,658.838135,1226.90625,657.75C1218.027222,655.175476,1209.071045,652.873535,1200.050781,650.847656C1194.452393,649.53241,1188.828369,648.314331,1183.1875,647.195313C1177.695435,646.177979,1172.18396,645.2146,1166.671875,644.308594C1158.630005,642.916382,1150.578735,641.581909,1142.515625,640.304688C1136.399048,639.36615,1116.787109,638.429688,1106.559082,638.723511C1103.319092,638.816589,1098.902222,626.269409,1094.973145,622.2052C1090.872437,617.963501,1077.532471,602.964905,1081.773438,632.828125z"/>
</svg>
