<?xml version="1.0" encoding="UTF-8"?>
<svg xmlns="http://www.w3.org/2000/svg" width="126.966mm" height="96.104mm" viewBox="-1110.679688 -704.477539 126.965759 96.104492">
    <path transform="matrix(-1,0,0,-1,0,0)" style="stroke:none;fill:#000000;fill-rule:evenodd" d="M990.921875,687.052734C992.473022,687.139404,994.015991,687.336487,995.539063,687.642578C995.625427,689.154419,995.749146,690.664185,995.910156,692.169922C994.736328,691.704285,993.515747,691.366394,992.269531,691.162109C991.586792,691.055908,990.889587,691.086487,990.21875,691.251953C989.914307,691.319519,989.647949,691.503174,989.476563,691.763672C989.339417,692.095032,989.406372,692.475647,989.648438,692.740234C989.738892,692.855774,989.784546,692.999939,989.777344,693.146484C990.918457,694.04657,992.049194,694.961121,993.167969,695.888672C993.836426,696.439514,994.389771,697.116333,994.796875,697.880859C995.508972,699.446045,995.238464,701.282715,994.105469,702.576172C993.587036,703.15979,992.939758,703.614563,992.214844,703.904297C991.435181,704.21814,990.608887,704.400269,989.769531,704.443359C988.295044,704.531128,986.815369,704.44989,985.359375,704.201172C984.933838,704.132751,984.50946,704.058533,984.085938,703.978516C984.023071,702.517151,983.914917,701.058228,983.761719,699.603516C984.781982,699.954163,985.83374,700.205322,986.902344,700.353516C987.501221,700.452759,988.115234,700.411316,988.695313,700.232422C988.957642,700.149963,989.191895,699.995728,989.371094,699.787109C989.494019,699.63031,989.53479,699.424133,989.480469,699.232422C989.412231,698.985962,989.281799,698.761475,989.101563,698.580078C988.617798,698.080933,988.093933,697.622375,987.535156,697.208984C986.777222,696.657471,986.057983,696.054443,985.382813,695.404297C984.856262,694.906555,984.416565,694.324341,984.082031,693.681641C983.611633,692.653503,983.590393,691.476074,984.023438,690.431641C984.36499,689.525146,984.986084,688.750793,985.796875,688.220703C986.622559,687.673889,987.561462,687.321289,988.542969,687.189453C989.329529,687.065613,990.126343,687.019836,990.921875,687.052734M1110.378906,690.056641L1109.640625,698.431641L1109.257813,704.169922C1106.891235,704.137329,1104.522949,704.137329,1102.15625,704.169922C1101.966309,702.731995,1101.653931,701.312561,1101.222656,699.927734C1100.665405,697.98114,1100.281006,695.988831,1100.074219,693.974609C1099.856445,695.514404,1099.467285,697.025146,1098.914063,698.478516C1098.434326,699.768372,1097.963745,701.06427,1097.503906,702.361328C1097.318604,702.960571,1097.145264,703.56366,1096.984375,704.169922C1094.577759,704.138794,1092.172119,704.138794,1089.765625,704.169922C1090.060547,698.844055,1090.207764,693.511719,1090.207031,688.177734C1090.202881,687.910522,1090.19873,687.616638,1090.195313,687.349609C1091.855225,687.378296,1093.515869,687.378296,1095.175781,687.349609C1094.964355,691.233948,1094.8302,695.123779,1094.773438,699.013672L1095.9375,694.181641L1098.199219,687.349609C1099.799561,687.37793,1101.399658,687.37793,1103,687.349609L1104.511719,694.076172L1105.386719,697.619141C1105.392212,697.661499,1105.401489,697.703308,1105.414063,697.744141L1105.492188,695.880859L1105.886719,689.103516L1105.925781,687.349609C1107.510132,687.377625,1109.095337,687.377625,1110.679688,687.349609L1110.378906,690.056641M1052.464844,704.166016C1047.292603,704.140137,1042.137817,704.141357,1036.964844,704.169922C1037.063965,702.787964,1037.116089,701.403076,1037.121094,700.017578C1038.814819,700.109863,1040.510864,700.155457,1042.207031,700.154297C1042.538574,695.89386,1042.711914,691.622925,1042.726563,687.349609C1044.659058,687.37738,1046.591064,687.37738,1048.523438,687.349609C1048.111328,691.606323,1047.871582,695.878174,1047.804688,700.154297L1052.621094,700.013672C1054.314575,700.108643,1056.010864,700.155579,1057.707031,700.154297C1058.038574,695.89386,1058.211914,691.622925,1058.226563,687.349609C1060.159058,687.37738,1062.091064,687.37738,1064.023438,687.349609C1063.611328,691.606323,1063.371582,695.878174,1063.304688,700.154297L1068.414063,700.017578C1068.349121,701.400818,1068.303589,702.7854,1068.277344,704.169922C1063.010986,704.137451,1057.731201,704.137451,1052.464844,704.169922L1052.464844,704.166016M1088.792969,689.396484L1082.585938,701.083984C1082.063965,702.104065,1081.555908,703.131775,1081.0625,704.166016C1078.883423,704.136108,1076.702637,704.137451,1074.523438,704.169922L1072.746094,699.083984L1069.152344,689.326172L1068.457031,687.349609C1070.428223,687.377686,1072.399902,687.377686,1074.371094,687.349609C1074.797241,688.921936,1075.297852,690.473206,1075.871094,691.998047L1081.574219,691.998047C1082.326294,690.4646,1083.043701,688.9151,1083.726563,687.349609C1085.75,687.377625,1087.773438,687.377625,1089.796875,687.349609L1088.792969,689.396484M1004.902344,687.064453C1006.486755,687.15155,1008.059814,687.384338,1009.601563,687.759766C1009.682678,689.242004,1009.779114,690.724792,1009.890625,692.205078C1008.953613,691.885559,1007.997253,691.625916,1007.027344,691.427734C1006.420044,691.302429,1005.794312,691.293152,1005.183594,691.400391C1004.733154,691.470093,1004.311707,691.666626,1003.96875,691.966797C1003.60083,692.559509,1003.387268,693.235107,1003.347656,693.931641C1003.136902,696.410583,1003.024841,698.896912,1003.011719,701.384766C1002.996643,702.313049,1002.994019,703.241516,1003.003906,704.169922C1001.084595,704.138367,999.165527,704.138367,997.246094,704.169922L997.613281,698.603516C997.712036,696.632568,997.786316,694.658447,997.835938,692.685547C997.837769,691.937561,997.922913,691.192017,998.089844,690.462891C998.352661,689.451294,999.034851,688.599976,999.964844,688.123047C1000.477966,687.83313,1001.02002,687.597473,1001.582031,687.419922C1002.662292,687.122742,1003.783691,687.002686,1004.902344,687.064453M1036.144531,694.154297L1035.929688,698.904297C1035.855957,700.658386,1035.83252,702.41449,1035.859375,704.169922C1033.908691,704.137634,1031.958496,704.137634,1030.007813,704.169922C1030.171265,702.150574,1030.293701,700.127808,1030.375,698.103516L1024.347656,698.103516C1024.228394,700.121948,1024.186646,702.144409,1024.222656,704.166016C1022.272522,704.138855,1020.321228,704.140137,1018.371094,704.169922C1018.669067,700.245667,1018.876099,696.314697,1018.992188,692.380859C1019.025818,690.703674,1019.041443,689.027222,1019.039063,687.349609C1020.052734,687.365723,1021.068298,687.373535,1022.082031,687.373047C1022.511169,687.369812,1022.941895,687.365906,1023.371094,687.361328C1023.916016,687.356628,1024.408325,687.352966,1024.953125,687.349609C1024.747559,689.552917,1024.612061,691.762634,1024.546875,693.974609L1030.582031,693.974609L1030.78125,687.349609C1031.842285,687.365662,1032.903687,687.373474,1033.964844,687.373047C1034.8573,687.363464,1035.716797,687.355896,1036.609375,687.349609L1036.144531,694.154297M1016.277344,688.564453C1015.950012,692.940796,1015.748108,697.324829,1015.671875,701.712891C1015.664307,702.532104,1015.666931,703.35083,1015.679688,704.169922C1013.72168,704.138916,1011.762695,704.138916,1009.804688,704.169922C1010.233093,698.573425,1010.450684,692.962524,1010.457031,687.349609C1011.429688,687.365845,1012.402222,687.373657,1013.375,687.373047C1014.364746,687.363892,1015.370178,687.356079,1016.359375,687.349609L1016.277344,688.564453M1076.804688,695.966797C1077.284546,697.27594,1077.71582,698.602356,1078.097656,699.943359C1078.122314,700.003906,1078.130371,700.070068,1078.121094,700.134766C1078.413696,699.193848,1078.772705,698.274902,1079.195313,697.384766L1080.03125,695.966797L1076.804688,695.966797M1109.292969,669.654297L1103.085938,681.341797C1102.563721,682.361938,1102.055786,683.389404,1101.5625,684.423828C1099.383301,684.393311,1097.202637,684.393311,1095.023438,684.423828L1093.246094,679.341797L1089.652344,669.583984L1088.957031,667.603516C1090.928345,667.634216,1092.899658,667.634216,1094.871094,667.603516C1095.296875,669.177246,1095.797485,670.729858,1096.371094,672.255859L1102.074219,672.255859C1102.826782,670.721558,1103.544434,669.17041,1104.226563,667.603516C1106.24939,667.634155,1108.274048,667.634155,1110.296875,667.603516L1109.292969,669.654297M1015.601563,684.419922C1010.64209,684.395752,1005.674744,684.396973,1000.714844,684.423828C1000.813965,683.043091,1000.866028,681.659607,1000.871094,680.275391C1002.564758,680.36615,1004.260925,680.410461,1005.957031,680.408203C1006.288818,676.147644,1006.462097,671.876892,1006.476563,667.603516C1008.407227,667.633728,1010.338867,667.633728,1012.269531,667.603516C1011.862,671.860413,1011.623535,676.132324,1011.554688,680.408203L1016.371094,680.271484C1018.06488,680.365601,1019.76062,680.411194,1021.457031,680.408203C1021.788818,676.147644,1021.962097,671.876892,1021.976563,667.603516C1023.907227,667.633728,1025.838867,667.633728,1027.769531,667.603516C1027.362061,671.860413,1027.123535,676.132324,1027.054688,680.408203L1032.164063,680.275391C1032.099121,681.657715,1032.053589,683.040222,1032.027344,684.423828C1026.560425,684.395508,1021.06897,684.394287,1015.601563,684.419922M1047.597656,668.427734C1047.223999,672.754211,1046.979126,677.090515,1046.863281,681.431641C1046.829224,682.428711,1046.822632,683.426392,1046.84375,684.423828C1042.221191,684.392761,1037.595215,684.392761,1032.972656,684.423828C1033.040771,683.179626,1033.100342,681.946045,1033.152344,680.701172L1033.152344,680.361328C1035.855225,680.476624,1038.561646,680.490967,1041.265625,680.404297L1041.394531,678.126953C1039.104004,678.083618,1036.812866,678.104431,1034.523438,678.189453C1034.618042,676.809692,1034.700073,675.430054,1034.769531,674.048828C1037.065063,674.093018,1039.361572,674.076111,1041.65625,673.998047L1041.785156,671.560547C1039.041748,671.537842,1036.297852,671.603027,1033.558594,671.755859C1033.661255,670.372925,1033.747192,668.988403,1033.816406,667.603516C1038.439453,667.637512,1043.048462,667.637512,1047.671875,667.603516L1047.597656,668.427734M1087.910156,670.400391L1087.445313,678.900391L1087.316406,682.326172L1087.316406,684.423828C1085.139893,684.394287,1082.96167,684.394287,1080.785156,684.423828L1075.613281,675.064453L1075.285156,673.771484C1075.125244,677.320618,1075.011963,680.871521,1074.945313,684.423828C1073.209473,684.397461,1071.474243,684.397461,1069.738281,684.423828L1070.027344,680.580078L1070.5625,670.685547L1070.640625,667.603516C1072.780396,667.633301,1074.918823,667.633301,1077.058594,667.603516C1077.36377,668.18042,1077.673584,668.754333,1077.988281,669.326172C1079.013672,671.038757,1080.021973,672.758972,1081.015625,674.490234C1081.410156,675.184082,1081.793213,675.88501,1082.164063,676.591797C1082.379761,677.055054,1082.527222,677.547119,1082.601563,678.052734C1082.755127,674.572266,1082.863281,671.086792,1082.925781,667.603516C1084.666504,667.634399,1086.407593,667.634399,1088.148438,667.603516L1087.910156,670.400391M1000.347656,668.427734C999.97406,672.754211,999.729126,677.090515,999.613281,681.431641C999.579224,682.428711,999.572693,683.426392,999.59375,684.423828C994.971191,684.392639,990.345215,684.392639,985.722656,684.423828C985.79071,683.179688,985.850281,681.946045,985.902344,680.701172L985.902344,680.361328C988.605225,680.476624,991.311646,680.490967,994.015625,680.404297L994.144531,678.126953C991.854065,678.083618,989.562866,678.104431,987.273438,678.189453C987.368103,676.809692,987.450073,675.430054,987.519531,674.048828C989.815125,674.093018,992.111572,674.076111,994.40625,673.998047L994.535156,671.560547C991.791748,671.537842,989.047852,671.603027,986.308594,671.755859C986.411194,670.372925,986.497192,668.988525,986.566406,667.603516C991.189453,667.637573,995.798523,667.637573,1000.421875,667.603516L1000.347656,668.427734M1067.660156,670.400391L1067.195313,678.900391L1067.066406,682.326172L1067.066406,684.423828C1064.890015,684.394287,1062.71167,684.394287,1060.535156,684.423828L1055.363281,675.064453L1055.035156,673.771484C1054.875244,677.320618,1054.761963,680.87146,1054.695313,684.423828C1052.959351,684.397461,1051.224243,684.397461,1049.488281,684.423828L1049.777344,680.580078L1050.3125,670.685547L1050.390625,667.603516C1052.530396,667.633362,1054.668823,667.633362,1056.808594,667.603516C1057.11377,668.180481,1057.423584,668.754395,1057.738281,669.326172C1058.763672,671.038757,1059.771973,672.758972,1060.765625,674.490234C1061.160278,675.184143,1061.543213,675.884949,1061.914063,676.591797C1062.129761,677.055054,1062.277222,677.547119,1062.351563,678.052734C1062.505127,674.572266,1062.613281,671.086792,1062.675781,667.603516C1064.416504,667.634399,1066.157593,667.634399,1067.898438,667.603516L1067.660156,670.400391M1097.304688,676.220703C1097.78418,677.531311,1098.215454,678.858948,1098.597656,680.201172C1098.621826,680.261841,1098.630005,680.327881,1098.621094,680.392578C1098.91333,679.450256,1099.272339,678.529968,1099.695313,677.638672L1100.53125,676.220703L1097.304688,676.220703M1057.492188,647.564453C1058.982544,647.600952,1060.456177,647.887451,1061.851563,648.412109C1063.548096,649.081543,1064.972168,650.298035,1065.898438,651.869141C1066.481323,652.990784,1066.800659,654.230469,1066.832031,655.494141C1066.909302,656.903625,1066.671753,658.312866,1066.136719,659.619141C1065.409668,661.314392,1064.119507,662.706665,1062.484375,663.560547C1061.059814,664.318542,1059.497925,664.783386,1057.890625,664.927734C1055.971313,665.131531,1054.030518,664.927856,1052.195313,664.330078C1050.222046,663.671692,1048.572998,662.287964,1047.582031,660.458984C1046.988159,659.26355,1046.693237,657.941895,1046.722656,656.607422C1046.689697,654.836304,1047.175903,653.093933,1048.121094,651.595703C1049.156494,650.022339,1050.69458,648.846375,1052.484375,648.259766C1054.099365,647.733887,1055.794922,647.498474,1057.492188,647.564453M1028.496094,651.193359L1028.1875,657.173828L1028.058594,661.388672C1028.046753,662.485779,1028.046753,663.584412,1028.058594,664.681641C1025.769531,664.625977,1023.479187,664.645569,1021.191406,664.740234C1020.232666,664.78595,1019.27179,664.762451,1018.316406,664.669922C1016.725464,664.531433,1015.327454,663.558777,1014.644531,662.115234C1013.718872,659.982666,1014.123474,657.506409,1015.679688,655.779297C1016.427795,655.017273,1017.375549,654.48114,1018.414063,654.232422C1019.513062,653.945801,1020.65918,653.888611,1021.78125,654.064453L1022.273438,654.138672C1022.528748,655.382446,1022.802124,656.621643,1023.09375,657.857422C1022.477051,657.753357,1021.849792,657.727112,1021.226563,657.779297C1020.630005,657.810669,1020.090027,658.145508,1019.796875,658.666016C1019.498718,659.191101,1019.516785,659.838074,1019.84375,660.345703C1020.03833,660.569763,1020.307556,660.715454,1020.601563,660.755859C1021.131592,660.821533,1021.666992,660.832031,1022.199219,660.787109L1022.992188,660.732422C1023.168091,657.410889,1023.2854,654.085388,1023.34375,650.759766C1023.368958,649.793762,1023.374146,648.827576,1023.359375,647.861328C1024.359497,647.878052,1025.359009,647.885864,1026.359375,647.884766C1027.157227,647.87738,1027.936523,647.86969,1028.734375,647.861328L1028.496094,651.193359M1076.027344,647.580078C1077.611938,647.662964,1079.185181,647.89447,1080.726563,648.271484C1080.806519,649.755188,1080.904297,651.239441,1081.019531,652.720703C1080.081665,652.398865,1079.123901,652.137939,1078.152344,651.939453C1077.425903,651.786926,1076.673706,651.80835,1075.957031,652.001953C1075.637817,652.09552,1075.343018,652.25824,1075.09375,652.478516C1074.72583,653.071228,1074.512329,653.746826,1074.472656,654.443359C1074.261963,656.922302,1074.149902,659.408569,1074.136719,661.896484C1074.121704,662.824646,1074.119019,663.753296,1074.128906,664.681641C1072.209473,664.650391,1070.290527,664.650391,1068.371094,664.681641L1068.738281,659.115234C1068.837036,657.144165,1068.911377,655.170166,1068.960938,653.197266C1068.962769,652.44928,1069.047852,651.703735,1069.214844,650.974609C1069.515747,649.824646,1070.349731,648.887451,1071.457031,648.455078C1072.332275,647.993164,1073.29126,647.711548,1074.277344,647.626953C1074.858887,647.570313,1075.443604,647.554688,1076.027344,647.580078M1044.972656,648.681641C1044.553955,653.571838,1044.297363,658.473694,1044.203125,663.380859L1044.21875,664.681641C1039.591553,664.646423,1034.974976,664.646423,1030.347656,664.681641C1030.415649,663.4375,1030.47522,662.203857,1030.527344,660.958984L1030.527344,660.619141C1033.230225,660.733582,1035.936768,660.747925,1038.640625,660.662109L1038.769531,658.384766C1036.479126,658.341125,1034.187988,658.360657,1031.898438,658.443359C1031.993042,657.06604,1032.075073,655.685486,1032.144531,654.306641C1034.440063,654.349854,1036.736572,654.332947,1039.03125,654.255859L1039.160156,651.814453C1036.416748,651.793884,1033.672974,651.859009,1030.933594,652.009766C1031.036133,650.628052,1031.12207,649.245056,1031.191406,647.861328C1035.814453,647.894226,1040.423462,647.894226,1045.046875,647.861328L1044.972656,648.681641M1056.546875,651.716797C1054.776001,651.806396,1053.248535,652.992188,1052.722656,654.685547C1052.164185,656.19574,1052.341919,657.879761,1053.203125,659.240234C1053.927368,660.246338,1055.077393,660.859558,1056.316406,660.900391C1058.333008,661.066589,1060.201294,659.826965,1060.832031,657.904297C1061.286743,656.658813,1061.261719,655.288574,1060.761719,654.060547C1060.338135,653.104675,1059.53772,652.366516,1058.550781,652.021484C1057.913818,651.77179,1057.229248,651.667664,1056.546875,651.716797M1059.367188,627.818359C1060.857544,627.858582,1062.330688,628.146362,1063.726563,628.669922C1065.424683,629.33667,1066.849487,630.553894,1067.773438,632.126953C1068.357422,633.248169,1068.676758,634.488159,1068.707031,635.751953C1068.784302,637.161438,1068.546753,638.570679,1068.011719,639.876953C1067.375732,641.371521,1066.293945,642.633423,1064.914063,643.490234C1063.353638,644.449219,1061.590454,645.029846,1059.765625,645.185547C1057.846069,645.390442,1055.904785,645.185425,1054.070313,644.583984C1052.097778,643.92627,1050.448975,642.544189,1049.457031,640.716797C1048.862793,639.520142,1048.567871,638.197083,1048.597656,636.861328C1048.565918,635.090332,1049.052002,633.348328,1049.996094,631.849609C1051.129761,630.136841,1052.85144,628.898743,1054.835938,628.369141C1056.307861,627.948059,1057.837158,627.762207,1059.367188,627.818359M1085.628906,628.701172C1085.206543,632.912292,1084.97583,637.140869,1084.9375,641.373047C1084.914063,642.561157,1084.901123,643.750916,1084.898438,644.939453C1082.759155,644.87915,1080.618286,644.898743,1078.480469,644.998047C1076.979614,645.055664,1075.47644,644.99823,1073.984375,644.826172C1072.970337,644.698914,1072.012451,644.290344,1071.21875,643.646484C1070.467163,642.996277,1069.987427,642.087036,1069.875,641.099609C1069.705811,639.942322,1069.927124,638.761597,1070.503906,637.744141C1071.01062,636.904907,1071.76355,636.242065,1072.660156,635.845703C1072.977295,635.693848,1073.30188,635.558289,1073.632813,635.439453C1073.238281,634.583923,1072.85144,633.72406,1072.472656,632.861328L1070.84375,629.224609C1070.678589,628.868896,1070.550293,628.497131,1070.460938,628.115234C1072.434937,628.14917,1074.408813,628.14917,1076.382813,628.115234C1076.737671,629.314087,1077.104248,630.512878,1077.480469,631.705078C1077.722046,632.432617,1077.953735,633.16272,1078.175781,633.896484L1079.566406,637.771484C1078.807495,637.643127,1078.034302,637.62207,1077.269531,637.708984C1076.814941,637.771606,1076.380737,637.937317,1076,638.193359C1075.423462,638.618896,1075.158569,639.348633,1075.328125,640.044922C1075.436646,640.386902,1075.691406,640.663025,1076.023438,640.798828C1076.47522,640.974854,1076.956543,641.062378,1077.441406,641.056641C1078.185059,641.073975,1078.929077,641.063538,1079.671875,641.025391C1079.918457,636.726196,1080.059082,632.421387,1080.09375,628.115234C1081.956665,628.148987,1083.820679,628.148987,1085.683594,628.115234L1085.628906,628.701172M1026.660156,630.912109L1026.195313,639.412109L1026.066406,642.837891L1026.066406,644.939453C1023.888977,644.905762,1021.712585,644.90448,1019.535156,644.935547L1014.363281,635.576172L1014.035156,634.283203C1013.875366,637.833557,1013.762085,641.385925,1013.695313,644.939453C1011.959595,644.906616,1010.223999,644.906616,1008.488281,644.939453L1008.777344,641.091797L1009.3125,631.201172L1009.390625,628.115234C1011.53009,628.148743,1013.669128,628.148743,1015.808594,628.115234C1016.113586,628.692261,1016.42334,629.266174,1016.738281,629.837891C1017.763672,631.550659,1018.772095,633.270813,1019.765625,635.001953C1020.160278,635.695923,1020.543152,636.396545,1020.914063,637.103516C1021.130676,637.56781,1021.278076,638.06134,1021.351563,638.568359C1021.505188,635.084534,1021.61322,631.601929,1021.675781,628.115234C1023.41626,628.149292,1025.157959,628.149292,1026.898438,628.115234L1026.660156,630.912109M1048.042969,630.166016L1041.835938,641.853516C1041.313843,642.873535,1040.805786,643.901245,1040.3125,644.935547C1038.133423,644.904236,1035.952637,644.905579,1033.773438,644.939453L1031.996094,639.853516L1028.402344,630.095703L1027.707031,628.115234C1029.678101,628.14917,1031.649902,628.14917,1033.621094,628.115234C1034.046753,629.688965,1034.547363,631.241577,1035.121094,632.767578L1040.824219,632.767578C1041.577148,631.233398,1042.294678,629.682251,1042.976563,628.115234C1045,628.149048,1047.023438,628.149048,1049.046875,628.115234L1048.042969,630.166016M1058.421875,631.970703C1056.651611,632.061646,1055.124634,633.247009,1054.597656,634.939453C1054.038818,636.449585,1054.216431,638.13385,1055.078125,639.494141C1055.800415,640.503052,1056.951172,641.118164,1058.191406,641.158203C1060.207764,641.323547,1062.075684,640.084167,1062.707031,638.162109C1063.161987,636.916687,1063.136963,635.546326,1062.636719,634.318359C1062.214478,633.360657,1061.413818,632.620789,1060.425781,632.275391C1059.787354,632.031372,1059.104004,631.92749,1058.421875,631.970703M1036.054688,636.736328C1036.53479,638.04541,1036.965942,639.371826,1037.347656,640.712891C1037.37207,640.773499,1037.380249,640.8396,1037.371094,640.904297C1037.664795,639.962463,1038.023682,639.042297,1038.445313,638.150391L1039.28125,636.736328L1036.054688,636.736328M1084.496094,611.705078L1084.1875,617.685547L1084.058594,621.904297C1084.046753,623.000854,1084.046753,624.096802,1084.058594,625.193359C1081.66394,625.137817,1079.268188,625.159912,1076.875,625.259766C1075.930786,625.297729,1074.984985,625.259827,1074.046875,625.146484C1072.132324,624.86969,1070.612305,623.392212,1070.28125,621.486328C1069.888184,619.631714,1070.408203,617.701172,1071.679688,616.294922C1072.426025,615.529663,1073.374268,614.991882,1074.414063,614.744141C1075.676758,614.4198,1076.99707,614.389099,1078.273438,614.654297C1078.52771,615.896973,1078.80249,617.135559,1079.097656,618.369141C1078.479614,618.265137,1077.851074,618.238953,1077.226563,618.291016C1076.751587,618.322144,1076.307495,618.539917,1075.992188,618.896484C1075.516968,619.448425,1075.456787,620.244263,1075.84375,620.861328C1076.039185,621.084167,1076.308105,621.229675,1076.601563,621.271484C1077.397217,621.346191,1078.198364,621.337036,1078.992188,621.244141C1079.168091,617.922607,1079.2854,614.597107,1079.34375,611.271484C1079.368896,610.305603,1079.374146,609.339172,1079.359375,608.373047C1080.359741,608.389771,1081.358887,608.397583,1082.359375,608.396484C1083.157104,608.390198,1083.936768,608.382507,1084.734375,608.373047L1084.496094,611.705078M1052.832031,609.126953C1052.302612,614.466553,1052.015869,619.827637,1051.972656,625.193359C1050.030518,625.163879,1048.08667,625.163879,1046.144531,625.193359C1046.400635,621.407471,1046.619629,617.612488,1046.800781,613.822266L1046.847656,612.416016C1044.363281,612.36499,1041.87793,612.384521,1039.394531,612.474609L1039.683594,608.373047C1044.092651,608.405884,1048.496948,608.405884,1052.90625,608.373047L1052.832031,609.126953M1068.972656,609.197266C1068.598999,613.523804,1068.354126,617.860046,1068.238281,622.201172C1068.204224,623.198242,1068.197632,624.195923,1068.21875,625.193359C1063.596191,625.160645,1058.970215,625.160645,1054.347656,625.193359C1054.415649,623.949219,1054.47522,622.715576,1054.527344,621.470703L1054.527344,621.130859C1057.230225,621.245789,1059.936768,621.260132,1062.640625,621.173828L1062.769531,618.896484C1060.479126,618.855042,1058.187866,618.874573,1055.898438,618.955078C1055.99292,617.577759,1056.075073,616.197205,1056.144531,614.818359C1058.440063,614.862244,1060.736572,614.845337,1063.03125,614.767578L1063.160156,612.326172C1060.41687,612.318848,1057.673584,612.383911,1054.933594,612.521484C1055.036377,611.140137,1055.122314,609.756531,1055.191406,608.373047C1059.814453,608.407043,1064.423462,608.407043,1069.046875,608.373047L1068.972656,609.197266M1038.332031,609.126953C1037.80249,614.466553,1037.515747,619.827637,1037.472656,625.193359C1035.530518,625.163879,1033.58667,625.163879,1031.644531,625.193359C1031.900635,621.407471,1032.119629,617.612488,1032.300781,613.822266L1032.347656,612.416016C1029.863281,612.364929,1027.37793,612.38446,1024.894531,612.474609L1025.183594,608.373047C1029.592651,608.406067,1033.996948,608.406067,1038.40625,608.373047L1038.332031,609.126953M1023.722656,609.197266C1023.348999,613.523743,1023.104126,617.860046,1022.988281,622.201172C1022.954163,623.198242,1022.947693,624.195923,1022.96875,625.193359C1018.346191,625.160706,1013.720215,625.160706,1009.097656,625.193359C1009.165649,623.949219,1009.22522,622.715576,1009.277344,621.470703L1009.277344,621.130859C1011.980164,621.245789,1014.686707,621.260132,1017.390625,621.173828L1017.519531,618.896484C1015.229065,618.855042,1012.937927,618.874573,1010.648438,618.955078C1010.742981,617.577637,1010.825134,616.197205,1010.894531,614.818359C1013.190063,614.862244,1015.486572,614.845337,1017.78125,614.767578L1017.910156,612.326172C1015.16687,612.318787,1012.423523,612.383911,1009.683594,612.521484C1009.786377,611.140076,1009.872314,609.756531,1009.941406,608.373047C1014.564331,608.407104,1019.174072,608.407104,1023.796875,608.373047L1023.722656,609.197266"/>
</svg>
