<?xml version="1.0" encoding="UTF-8"?>
<svg xmlns="http://www.w3.org/2000/svg" width="154.924mm" height="235.741mm" viewBox="-1171.365479 -563.176270 154.924072 235.741333">
    <path transform="matrix(-1,0,0,-1,0,0)" style="stroke:#000000;stroke-width:0.05mm;fill:none" d="M1094.210938,327.449219C1098.473022,327.47403,1102.735229,327.589935,1106.992188,327.796875C1108.666626,327.870361,1110.305786,328.301056,1111.800781,329.058594C1112.542358,329.40564,1113.258911,329.803711,1113.945313,330.25C1114.771973,330.731873,1115.614746,331.185486,1116.472656,331.609375L1117.140625,332.050781L1117.777344,332.53125L1118.382813,333.054688C1119.026123,333.683807,1119.660034,334.321564,1120.285156,334.96875L1121.652344,336.277344L1123.0625,337.546875C1125.376221,339.470428,1127.596313,341.504028,1129.714844,343.640625C1130.18042,344.105865,1130.679199,344.536499,1131.207031,344.929688L1131.308594,344.984375L1131.414063,345.03125C1131.474731,345.052277,1131.536255,345.070953,1131.597656,345.089844C1132.191284,345.472626,1132.738281,345.923065,1133.230469,346.429688C1134.206177,347.340698,1135.10022,348.335358,1135.902344,349.402344C1136.690186,350.517242,1137.421631,351.671082,1138.09375,352.859375C1138.331421,353.280579,1138.616333,353.673157,1138.941406,354.03125L1139.113281,354.175781L1139.257813,354.339844C1139.770752,355.083435,1140.222412,355.867371,1140.609375,356.683594C1141.521362,358.404785,1142.598145,360.033325,1143.824219,361.546875C1143.907471,361.641876,1143.999512,361.728455,1144.09375,361.8125C1144.159424,361.864166,1144.228149,361.911804,1144.300781,361.953125C1144.474243,361.967865,1144.640259,362.030731,1144.78125,362.132813C1144.925659,362.227753,1145.063232,362.332947,1145.1875,362.453125C1145.317261,362.56604,1145.454834,362.669708,1145.597656,362.765625C1145.744263,362.856781,1145.897949,362.935425,1146.054688,363.007813C1146.216919,363.065186,1146.379883,363.121033,1146.542969,363.175781C1146.655396,363.22995,1146.759399,363.299438,1146.855469,363.378906L1146.996094,363.550781L1147.113281,363.738281C1147.327393,364.207001,1147.512695,364.688324,1147.667969,365.179688C1148.10437,366.337585,1148.589111,367.476563,1149.121094,368.59375C1149.910034,370.398651,1150.454224,372.300781,1150.738281,374.25C1150.782471,374.599854,1150.789063,374.953461,1150.757813,375.304688C1150.594116,376.378113,1150.352417,377.43811,1150.035156,378.476563L1149.882813,379.203125L1149.789063,379.9375L1149.757813,380.675781L1149.78125,381.414063L1149.984375,385.078125L1150.25,388.738281L1150.574219,392.394531L1150.960938,396.042969C1151.317261,398.950775,1151.858643,401.833038,1152.582031,404.671875C1152.741211,405.350037,1152.847168,406.039673,1152.898438,406.734375C1152.875732,407.367401,1152.945557,408.000366,1153.105469,408.613281L1153.3125,409.121094C1153.466064,409.451935,1153.649048,409.768341,1153.859375,410.066406L1154.195313,410.5C1155.152344,411.635834,1156.158447,412.729462,1157.210938,413.777344C1158.817627,415.421722,1160.361572,417.125977,1161.839844,418.886719L1162.390625,419.578125L1162.898438,420.296875L1163.371094,421.046875L1163.796875,421.816406L1163.902344,421.988281C1164.63916,423.110748,1165.477295,424.163422,1166.40625,425.132813C1166.809326,425.605988,1167.169067,426.11438,1167.480469,426.652344C1167.893677,427.429535,1168.064453,428.312531,1167.96875,429.1875L1167.914063,429.78125C1167.85791,430.174957,1167.773315,430.564056,1167.660156,430.945313L1167.460938,431.507813C1167.228882,432.00885,1166.84082,432.420288,1166.355469,432.683594C1165.940186,432.869415,1165.533569,433.07428,1165.136719,433.296875C1165.053101,433.35318,1164.971313,433.41217,1164.890625,433.472656L1164.824219,433.542969C1164.816895,433.572784,1164.811523,433.602936,1164.804688,433.632813C1164.84021,433.776642,1164.877075,433.920074,1164.917969,434.0625C1165.203491,435.001221,1165.505737,435.935181,1165.824219,436.863281C1166.989624,440.658875,1167.912109,444.524689,1168.585938,448.4375L1168.992188,450.785156L1169.339844,453.136719L1169.636719,455.496094L1169.878906,457.863281L1170.308594,464.304688L1170.683594,470.75L1171,477.199219L1171.257813,483.648438C1171.430176,488.286713,1171.401489,492.930634,1171.171875,497.566406C1171.03479,499.954071,1170.750366,502.330994,1170.320313,504.683594C1170.056396,505.959747,1169.747925,507.226166,1169.394531,508.480469C1168.908569,510.364197,1168.425415,512.257874,1167.949219,514.144531C1167.423828,516.080261,1166.678345,517.94928,1165.726563,519.714844C1164.431763,522.147827,1163.102051,524.562195,1161.738281,526.957031C1160.659058,529.04303,1159.30603,530.975586,1157.714844,532.703125C1157.08374,533.4245,1156.525635,534.206543,1156.050781,535.039063L1155.660156,535.621094C1155.385742,536.001648,1155.092896,536.368469,1154.785156,536.722656C1151.874023,540.19342,1148.687988,543.424011,1145.257813,546.382813C1144.467529,547.022888,1143.665283,547.647888,1142.851563,548.257813C1142.244995,548.772766,1141.624878,549.271362,1140.992188,549.753906C1140.41394,550.158875,1139.810181,550.526306,1139.183594,550.851563C1138.068848,551.525269,1136.983276,552.245972,1135.929688,553.011719C1135.242065,553.468384,1134.537109,553.898193,1133.816406,554.300781L1132.722656,554.882813C1131.886475,555.29364,1131.041138,555.685669,1130.1875,556.058594C1129.233398,556.467896,1128.268066,556.850769,1127.292969,557.207031C1125.82959,557.733093,1124.34375,558.194214,1122.839844,558.589844C1121.835083,558.849487,1120.822754,559.079712,1119.804688,559.28125C1119.352173,559.359253,1118.899414,559.431824,1118.445313,559.5C1118.256714,559.526794,1118.070801,559.568359,1117.886719,559.617188C1117.707275,559.678528,1117.529419,559.74469,1117.355469,559.820313L1117.261719,559.902344L1117.167969,559.976563C1116.689941,560.226318,1116.174072,560.396667,1115.640625,560.476563C1112.944092,560.960632,1110.238037,561.387878,1107.523438,561.757813C1105.146484,562.125183,1102.761963,562.440247,1100.371094,562.703125C1095.989258,563.071472,1091.592285,563.229187,1087.195313,563.175781C1086.27356,563.111755,1085.354858,563.009888,1084.441406,562.871094C1081.595459,562.495239,1078.744995,562.15271,1075.890625,561.84375C1074.942017,561.725952,1074.000488,561.556274,1073.070313,561.335938C1071.951416,560.990356,1070.809082,560.725403,1069.652344,560.542969C1068.693237,560.350464,1067.778198,559.980835,1066.957031,559.449219L1066.71875,559.320313L1066.464844,559.214844C1066.294678,559.151245,1066.119019,559.104553,1065.941406,559.066406C1065.770386,559.060547,1065.599609,559.051331,1065.429688,559.03125C1065.121582,558.978271,1064.81665,558.908508,1064.515625,558.824219L1064.074219,558.679688L1063.636719,558.503906C1060.799805,557.332031,1058.002441,556.065552,1055.25,554.707031C1052.834839,553.455688,1050.514893,552.028625,1048.308594,550.4375C1045.687988,548.536133,1043.056519,546.649536,1040.414063,544.777344C1039.164185,543.93042,1037.928589,543.063232,1036.707031,542.175781C1035.780151,541.482971,1034.985229,540.629517,1034.359375,539.65625C1033.245239,537.995483,1032.036133,536.400391,1030.738281,534.878906C1028.981323,532.72876,1027.26709,530.542969,1025.597656,528.324219C1024.494385,526.802917,1023.53186,525.184387,1022.722656,523.488281L1021.777344,521.582031L1020.875,519.652344C1020.289185,518.35791,1019.733215,517.050354,1019.207031,515.730469C1018.106934,512.857666,1017.396301,509.850433,1017.09375,506.789063C1016.796875,503.81839,1016.624817,500.836639,1016.578125,497.851563L1016.480469,493.453125L1016.441406,489.050781L1016.453125,484.648438L1016.523438,480.246094C1016.586365,476.883698,1016.831421,473.527222,1017.257813,470.191406C1017.398865,469.193695,1017.565491,468.200012,1017.757813,467.210938C1018.16571,464.761719,1018.377319,462.283722,1018.390625,459.800781C1018.403381,458.718689,1018.469849,457.63797,1018.589844,456.5625C1018.600708,456.518005,1018.612122,456.473663,1018.625,456.429688C1018.653625,456.349792,1018.675232,456.267578,1018.6875,456.183594C1018.884705,454.70929,1019.021606,453.227661,1019.097656,451.742188L1019.191406,450.542969L1019.34375,449.347656L1019.550781,448.164063L1019.8125,446.988281C1020.259766,445.472046,1020.786682,443.980438,1021.390625,442.519531C1021.912537,441.257996,1022.375366,439.972687,1022.777344,438.667969C1022.811951,438.531555,1022.845764,438.394592,1022.878906,438.257813C1023.184631,437.484497,1023.569397,436.744873,1024.027344,436.050781C1024.624512,435.104614,1025.256714,434.180878,1025.921875,433.28125L1025.976563,433.132813L1025.996094,432.96875C1025.987427,432.720367,1025.944336,432.474548,1025.867188,432.238281C1025.619507,431.467529,1025.345703,430.705536,1025.046875,429.953125C1024.313843,429.974792,1023.5802,429.968628,1022.847656,429.933594L1022.613281,429.902344L1022.386719,429.84375L1022.234375,429.757813L1022.121094,429.636719C1022.052612,429.527435,1021.993652,429.412537,1021.945313,429.292969L1021.878906,429.109375C1021.601074,428.148712,1021.666138,427.121216,1022.0625,426.203125C1022.435669,425.239075,1022.9646,424.342834,1023.628906,423.550781C1024.102173,422.999268,1024.57959,422.448792,1025.058594,421.902344C1026.323853,420.31723,1027.321045,418.535828,1028.011719,416.628906C1028.303711,415.748718,1028.621704,414.877167,1028.964844,414.015625C1029.551514,412.629517,1030.379395,411.358521,1031.410156,410.261719C1032.700928,408.928162,1034.048462,407.651001,1035.449219,406.433594C1036.24707,405.696869,1037.1073,405.03067,1038.019531,404.441406C1038.627563,404.092896,1039.270508,403.809143,1039.9375,403.59375L1040.144531,403.496094L1040.34375,403.386719L1040.535156,403.261719C1040.628296,403.181915,1040.716431,403.096466,1040.796875,403.003906C1040.871948,402.901459,1040.933228,402.789734,1040.980469,402.671875C1041.139893,402.118317,1041.21875,401.544769,1041.214844,400.96875C1041.238037,400.13382,1041.325562,399.301941,1041.476563,398.480469C1041.779297,396.653961,1042.102173,394.831024,1042.445313,393.011719C1042.879761,390.29068,1043.211914,387.554565,1043.441406,384.808594C1043.795044,381.15506,1044.097168,377.497955,1044.347656,373.835938C1044.432129,372.656036,1044.421265,371.471252,1044.316406,370.292969C1044.195068,369.526825,1044.031982,368.767944,1043.828125,368.019531C1043.671997,367.305237,1043.67395,366.56543,1043.832031,365.851563C1044.029297,365.176636,1044.315063,364.530914,1044.679688,363.929688C1045.641968,362.29245,1046.69165,360.708038,1047.824219,359.183594L1048.195313,358.714844C1048.458252,358.414703,1048.73877,358.130463,1049.035156,357.863281L1049.496094,357.484375C1049.997192,357.134308,1050.527954,356.828552,1051.082031,356.570313C1051.392944,356.394775,1051.689087,356.194519,1051.96875,355.972656C1052.243774,355.745117,1052.499023,355.494904,1052.734375,355.226563C1053.258301,354.595978,1053.765137,353.951263,1054.253906,353.292969L1055.339844,351.945313L1056.464844,350.632813C1057.228271,349.767914,1058.016357,348.925201,1058.828125,348.105469C1059.444336,347.49118,1060.099121,346.91687,1060.789063,346.386719C1061.254028,346.030151,1061.664673,345.607819,1062.007813,345.132813C1062.628296,344.530731,1063.296875,343.980286,1064.007813,343.488281C1065.742432,342.237915,1067.443359,340.942047,1069.109375,339.601563C1071.035645,338.029236,1072.978882,336.476746,1074.9375,334.945313C1075.940918,334.150543,1076.964478,333.382202,1078.007813,332.640625L1079.585938,331.550781L1081.195313,330.503906L1082.222656,329.890625L1083.277344,329.328125L1084.359375,328.820313L1085.46875,328.371094L1086.359375,328.078125L1087.265625,327.84375L1088.183594,327.664063L1089.113281,327.539063C1090.810669,327.443848,1092.51123,327.413879,1094.210938,327.449219z"/>
    <path transform="matrix(-1,0,0,-1,0,0)" style="stroke:#000000;stroke-width:0.05mm;fill:none" d="M1136.878906,430.871094L1136.652344,430.945313C1135.570313,431.50769,1134.406372,431.895538,1133.203125,432.09375C1132.303223,432.265869,1131.457275,432.650879,1130.738281,433.21875C1129.960449,433.82251,1129.198364,434.44635,1128.453125,435.089844L1128.265625,435.222656C1128.019287,435.35733,1127.76062,435.46817,1127.492188,435.550781L1126.875,435.714844L1126.234375,435.824219C1125.80188,435.895447,1125.361816,435.908295,1124.925781,435.863281C1124.832764,435.848114,1124.744263,435.815369,1124.660156,435.773438L1124.609375,435.707031C1124.577026,435.700073,1124.544434,435.695557,1124.511719,435.691406C1124.432007,435.700867,1124.352417,435.712036,1124.273438,435.726563C1123.772461,435.82959,1123.287354,435.997681,1122.828125,436.222656C1122.738281,436.275299,1122.6521,436.333923,1122.570313,436.398438L1122.488281,436.484375L1122.441406,436.574219C1122.259521,437.167511,1122.093018,437.765442,1121.941406,438.367188C1121.676636,439.34613,1121.129028,440.22525,1120.367188,440.894531C1119.5,441.669128,1118.481201,442.255005,1117.375,442.613281C1116.887085,442.773743,1116.390137,442.905548,1115.886719,443.007813C1115.383179,443.105499,1114.874512,443.174408,1114.363281,443.214844C1113.599365,443.307495,1112.849243,443.491028,1112.128906,443.761719L1111.972656,443.839844C1111.731323,443.977234,1111.506958,444.142181,1111.300781,444.328125C1110.759521,444.822784,1110.354248,445.448059,1110.125,446.144531C1110.06897,446.353577,1110.03894,446.568756,1110.035156,446.785156L1110.019531,446.878906L1109.816406,447.453125C1109.59021,448.0177,1109.303833,448.556274,1108.960938,449.058594C1108.621338,449.538025,1108.334106,450.052551,1108.105469,450.59375C1108.044556,450.766296,1108.006836,450.946259,1107.996094,451.128906C1107.987427,451.321686,1108.005859,451.514557,1108.046875,451.703125C1108.126587,452.424652,1107.994141,453.154266,1107.664063,453.800781L1107.445313,454.433594L1107.289063,455.082031L1107.1875,455.742188L1107.144531,456.40625L1107.136719,457.199219L1107.179688,457.988281L1107.277344,458.773438L1107.425781,459.546875L1107.625,460.308594L1107.875,461.054688L1108.175781,461.785156L1108.527344,462.496094L1109.128906,463.597656L1109.78125,464.664063L1110.480469,465.703125L1111.230469,466.707031C1111.309448,466.82428,1111.378662,466.947632,1111.441406,467.074219L1111.515625,467.3125L1111.566406,467.554688C1111.564697,468.023224,1111.526489,468.490997,1111.449219,468.953125C1111.418823,469.200806,1111.418335,469.451141,1111.445313,469.699219L1111.503906,469.84375L1111.601563,469.964844C1111.697998,470.04599,1111.804199,470.114166,1111.914063,470.175781L1112.152344,470.273438L1112.402344,470.339844C1112.781982,470.403168,1113.165894,470.436218,1113.550781,470.441406C1113.934937,470.445374,1114.318604,470.419403,1114.699219,470.367188C1115.815674,470.265259,1116.906006,469.970337,1117.921875,469.496094C1118.117676,469.381683,1118.321289,469.281097,1118.53125,469.195313C1118.843994,469.065369,1119.165771,468.957703,1119.496094,468.882813C1119.828125,468.811707,1120.164795,468.764313,1120.503906,468.746094C1121.247803,468.691742,1121.992676,468.652344,1122.738281,468.628906L1126.152344,468.507813L1126.203125,468.628906C1126.265747,468.715759,1126.345337,468.789307,1126.4375,468.84375C1126.562378,468.909302,1126.689819,468.969818,1126.820313,469.023438C1127.215698,469.157623,1127.62439,469.247772,1128.039063,469.296875C1128.190796,469.314545,1128.343384,469.324982,1128.496094,469.324219C1128.616211,469.321869,1128.736084,469.314423,1128.855469,469.300781L1128.980469,469.269531C1129.057739,469.22052,1129.131836,469.166656,1129.203125,469.109375L1129.363281,469.011719L1129.53125,468.9375L1129.707031,468.882813C1130.016235,468.852081,1130.326294,468.830139,1130.636719,468.816406C1131.624756,468.679108,1132.59668,468.444427,1133.539063,468.117188C1135.453613,467.526672,1137.304199,466.745728,1139.0625,465.785156C1139.468628,465.519501,1139.88147,465.264008,1140.300781,465.019531C1140.368408,464.985321,1140.437744,464.95462,1140.507813,464.925781L1140.617188,464.894531C1140.678589,464.879364,1140.740356,464.866638,1140.800781,464.847656C1140.869263,464.817444,1140.935303,464.781982,1140.996094,464.738281L1141.117188,464.65625C1142.314331,463.726868,1143.456909,462.729126,1144.539063,461.667969C1145.610107,460.679504,1146.633423,459.640625,1147.605469,458.554688C1147.752441,458.431,1147.897827,458.305511,1148.042969,458.179688L1148.148438,458.058594L1148.222656,457.910156C1148.238281,457.845581,1148.251343,457.780457,1148.261719,457.714844C1148.266479,457.462738,1148.25,457.210663,1148.214844,456.960938L1148.191406,456.835938C1148.161987,456.74884,1148.129028,456.662994,1148.09375,456.578125C1147.881836,456.2659,1147.682007,455.945557,1147.496094,455.617188C1147.358154,455.359802,1147.234741,455.094849,1147.125,454.824219C1146.823364,454.036835,1146.662231,453.202484,1146.652344,452.359375C1146.64563,451.720947,1146.662598,451.082458,1146.703125,450.445313C1146.744019,449.779144,1146.739746,449.110992,1146.691406,448.445313C1146.463379,445.594666,1146.022217,442.765137,1145.371094,439.980469C1145.016235,438.526642,1144.497681,437.117645,1143.824219,435.78125L1143.5,435.199219L1143.136719,434.640625L1142.734375,434.109375C1142.454834,433.766113,1142.151611,433.44278,1141.828125,433.140625C1141.501221,432.84021,1141.155029,432.561584,1140.792969,432.304688L1140.230469,431.941406C1139.868164,431.759827,1139.488647,431.614563,1139.097656,431.507813C1138.567871,431.299225,1138.036865,431.09494,1137.503906,430.894531L1137.285156,430.847656L1137.082031,430.84375L1136.878906,430.871094z"/>
    <path transform="matrix(-1,0,0,-1,0,0)" style="stroke:#000000;stroke-width:0.05mm;fill:none" d="M1050.492188,429.050781C1048.781738,429.097687,1047.06897,429.158966,1045.359375,429.234375C1044.778442,429.976379,1044.209106,430.727997,1043.652344,431.488281C1042.839233,432.596497,1042.194946,433.819366,1041.742188,435.117188C1041.25769,436.663818,1041.047607,438.283264,1041.121094,439.902344C1041.187622,441.04126,1041.265747,442.179199,1041.355469,443.316406C1041.391724,443.931641,1041.399658,444.548126,1041.378906,445.164063C1041.152344,447.375702,1040.957031,449.5914,1040.792969,451.808594C1040.765869,452.085114,1040.762329,452.363434,1040.78125,452.640625C1040.802368,452.916016,1040.847778,453.188904,1040.914063,453.457031L1040.972656,453.640625C1041.280518,454.351563,1041.540649,455.082245,1041.75,455.828125C1041.861084,456.282227,1041.958618,456.73941,1042.042969,457.199219C1042.14502,457.616943,1042.332153,458.00943,1042.597656,458.347656C1042.690308,458.456573,1042.7854,458.563324,1042.890625,458.660156C1043.568481,459.295197,1044.305786,459.863708,1045.09375,460.355469C1045.805054,460.85257,1046.534668,461.32309,1047.28125,461.765625C1048.028687,462.205383,1048.791016,462.619476,1049.566406,463.007813C1051.18103,463.788025,1052.903076,464.322754,1054.675781,464.59375C1056.024292,464.841766,1057.365967,465.125641,1058.699219,465.445313C1060.161011,465.737793,1061.630249,465.991821,1063.105469,466.207031C1063.82959,466.318909,1064.545898,466.476868,1065.25,466.679688L1065.410156,466.742188L1065.574219,466.78125C1066.210693,466.884857,1066.855225,466.930817,1067.5,466.917969L1069,466.910156L1070.5,466.84375L1071.992188,466.710938L1073.480469,466.519531C1074.336182,466.36438,1075.170532,466.108154,1075.964844,465.753906C1076.383545,465.527466,1076.730957,465.189697,1076.96875,464.777344C1077.302856,464.216583,1077.646484,463.661987,1078,463.113281C1078.554199,462.35907,1079.239624,461.710663,1080.023438,461.199219C1081.033447,460.538269,1082.059692,459.902496,1083.101563,459.292969C1083.52771,459.045654,1083.938599,458.773071,1084.332031,458.476563C1084.7229,458.176819,1085.097046,457.855957,1085.453125,457.515625C1085.690918,457.274445,1085.898315,457.005005,1086.066406,456.710938L1086.21875,456.40625L1086.289063,456.21875L1086.347656,456.03125C1086.376343,455.902557,1086.395874,455.772064,1086.40625,455.640625L1086.414063,455.441406L1086.375,454.984375L1086.285156,454.535156L1086.144531,454.097656L1085.960938,453.675781C1085.164551,452.109314,1084.484497,450.48642,1083.925781,448.820313C1083.466797,447.547333,1082.974365,446.286316,1082.449219,445.039063C1081.48938,442.821655,1080.310547,440.705505,1078.929688,438.722656C1078.498535,438.111969,1078.023438,437.533478,1077.507813,436.992188L1076.992188,436.535156L1076.4375,436.125L1075.851563,435.765625L1075.230469,435.457031C1073.585938,434.713745,1071.897949,434.070526,1070.175781,433.53125C1069.112915,433.165253,1068.028931,432.863892,1066.929688,432.628906C1066.650635,432.581573,1066.368652,432.552521,1066.085938,432.539063L1065.519531,432.441406C1065.14563,432.355713,1064.778687,432.242188,1064.421875,432.101563C1064.15332,431.989166,1063.873413,431.905182,1063.585938,431.859375L1063.46875,431.851563L1063.378906,431.863281L1063.300781,431.890625C1063.257935,431.924316,1063.216064,431.959259,1063.175781,431.996094L1063.121094,432.085938L1063.070313,432.179688C1062.887451,432.215363,1062.699829,432.215057,1062.515625,432.1875C1061.874634,432.118134,1061.235352,432.036194,1060.597656,431.941406C1060.371216,431.898804,1060.146729,431.84668,1059.925781,431.78125C1059.509521,431.650818,1059.116699,431.454254,1058.765625,431.195313C1058.455933,430.946533,1058.144287,430.698792,1057.832031,430.453125C1057.488525,430.193756,1057.115479,429.975677,1056.71875,429.808594C1055.793213,429.399994,1054.80249,429.15918,1053.792969,429.09375C1053.134033,429.043335,1052.473267,429.020691,1051.8125,429.027344L1050.492188,429.050781z"/>
    <path transform="matrix(-1,0,0,-1,0,0)" style="stroke:#000000;stroke-width:0.05mm;fill:none" d="M1098.527344,401.121094C1096.543579,401.365845,1094.565063,401.653778,1092.59375,401.984375L1092.457031,401.984375C1091.592773,402.18219,1090.710571,402.290283,1089.824219,402.308594C1089.197876,402.33493,1088.575317,402.419495,1087.964844,402.5625C1087.710571,402.634033,1087.461914,402.72403,1087.222656,402.835938C1086.621216,403.119598,1086.090088,403.532379,1085.664063,404.042969L1085.160156,404.683594C1084.679199,405.340546,1084.257202,406.038666,1083.898438,406.769531L1083.773438,407.128906C1083.661987,407.654114,1083.606934,408.189667,1083.609375,408.726563C1083.543701,410.829987,1083.819092,412.930206,1084.425781,414.945313C1084.922363,416.635254,1085.456299,418.31427,1086.027344,419.980469C1086.541382,421.499756,1086.959961,423.049713,1087.28125,424.621094L1087.523438,426.363281L1087.664063,427.085938L1087.855469,427.800781L1088.089844,428.5C1088.275391,428.925629,1088.44104,429.35965,1088.585938,429.800781L1088.746094,430.4375L1088.847656,431.082031C1088.856689,431.398041,1088.880737,431.713409,1088.917969,432.027344L1089.03125,432.601563L1089.195313,433.15625L1089.410156,433.699219C1089.553101,433.986664,1089.703003,434.270447,1089.859375,434.550781C1090.040161,434.886475,1090.20166,435.232178,1090.34375,435.585938C1090.505859,436.198792,1090.630127,436.820984,1090.714844,437.449219C1090.737305,437.572601,1090.779053,437.691132,1090.832031,437.804688C1090.89563,437.889954,1090.965576,437.970428,1091.046875,438.039063L1091.230469,438.140625L1091.421875,438.222656C1092.278931,438.499878,1093.149902,438.732025,1094.03125,438.917969C1094.158203,438.848663,1094.281006,438.772034,1094.398438,438.6875C1095.102905,438.132629,1095.780884,437.544861,1096.429688,436.925781C1096.773926,436.607758,1097.144653,436.319519,1097.539063,436.066406L1097.65625,436.015625L1097.761719,435.941406L1097.796875,435.875L1097.851563,435.699219L1097.882813,435.375L1097.960938,435.058594C1098.06311,434.769257,1098.211304,434.497925,1098.402344,434.257813C1098.572754,434.000854,1098.719849,433.72934,1098.839844,433.445313L1098.886719,433.285156L1098.917969,433.125C1098.930542,432.822845,1098.967163,432.522064,1099.03125,432.226563L1099.125,431.867188C1099.350098,431.134094,1099.609375,430.411835,1099.902344,429.703125C1100.311279,428.711792,1100.792603,427.751923,1101.34375,426.832031C1101.562012,426.518097,1101.813354,426.228607,1102.09375,425.96875C1102.468262,425.534912,1102.819336,425.081329,1103.144531,424.609375L1103.609375,423.886719C1104.026489,423.177307,1104.420044,422.454315,1104.789063,421.71875C1105.025269,421.236969,1105.241455,420.745605,1105.4375,420.246094C1105.697144,419.509705,1105.926758,418.763092,1106.125,418.007813L1106.390625,416.863281C1106.629272,415.682312,1106.812988,414.490967,1106.941406,413.292969C1107.104004,411.700745,1107.144653,410.098419,1107.0625,408.5L1106.984375,407.777344C1106.916992,407.296661,1106.820068,406.820618,1106.695313,406.351563C1106.352417,405.305328,1105.761841,404.357544,1104.972656,403.589844C1104.310913,402.903351,1103.508545,402.368286,1102.621094,402.019531L1102.171875,401.859375L1101.710938,401.734375C1101.279175,401.67627,1100.845215,401.635773,1100.410156,401.613281C1099.897705,401.560394,1099.400269,401.409698,1098.945313,401.167969L1098.730469,401.082031L1098.527344,401.121094z"/>
    <path transform="matrix(-1,0,0,-1,0,0)" style="stroke:#000000;stroke-width:0.05mm;fill:none" d="M1096.480469,363.160156C1094.214966,363.205811,1091.953125,363.363556,1089.703125,363.632813C1089.866455,363.907013,1089.990967,364.202637,1090.070313,364.511719C1090.349487,365.797729,1090.324951,367.131012,1090,368.40625L1089.929688,368.691406C1089.844727,368.957092,1089.71167,369.20517,1089.53125,369.417969L1089.375,369.605469C1089.278809,369.691406,1089.17334,369.766174,1089.0625,369.832031L1088.878906,369.902344L1088.78125,369.910156C1088.710449,369.90918,1088.640259,369.901306,1088.570313,369.890625C1088.501709,369.868988,1088.435425,369.840698,1088.371094,369.808594L1088.28125,369.742188L1088.144531,369.621094L1088.023438,369.480469C1087.952637,369.380737,1087.889282,369.276001,1087.832031,369.167969C1087.518433,368.450775,1087.367188,367.673157,1087.386719,366.890625C1087.411621,365.813263,1087.685669,364.75647,1088.183594,363.800781C1087.645508,363.879089,1087.112671,363.955383,1086.574219,364.03125C1085.156006,364.272247,1083.78833,364.749176,1082.527344,365.441406C1081.375488,366.096191,1080.251953,366.799927,1079.160156,367.550781C1079.233398,367.631317,1079.301636,367.716278,1079.359375,367.808594C1079.601563,368.248901,1079.767822,368.727142,1079.851563,369.222656C1079.897217,369.468811,1079.922485,369.718414,1079.925781,369.96875C1079.931152,370.219604,1079.912598,370.470123,1079.878906,370.71875C1079.833496,370.923798,1079.757935,371.120911,1079.65625,371.304688L1079.539063,371.445313C1079.444214,371.545502,1079.339478,371.63559,1079.226563,371.714844L1079.105469,371.785156L1078.945313,371.832031C1078.874634,371.843262,1078.804199,371.855499,1078.734375,371.871094L1078.667969,371.871094L1078.601563,371.863281C1078.550293,371.845123,1078.499512,371.825592,1078.449219,371.804688L1078.363281,371.761719C1078.222534,371.658081,1078.090942,371.542419,1077.976563,371.410156C1077.914307,371.318878,1077.858398,371.223328,1077.816406,371.121094C1077.763062,370.985748,1077.718018,370.847382,1077.679688,370.707031C1077.609375,370.411682,1077.586426,370.107117,1077.613281,369.804688C1077.644165,369.301971,1077.751099,368.806854,1077.929688,368.335938C1077.247192,368.762299,1076.559692,369.185059,1075.871094,369.601563L1075.945313,369.742188L1076.03125,369.992188L1076.292969,370.90625L1076.496094,371.839844L1076.636719,372.777344L1076.71875,373.726563L1076.707031,373.933594C1076.680908,374.070404,1076.632202,374.201996,1076.558594,374.320313L1076.441406,374.488281C1076.358887,374.540405,1076.275879,374.591827,1076.191406,374.640625L1076.089844,374.664063C1076.019775,374.671234,1075.949219,374.673035,1075.878906,374.667969L1075.695313,374.625C1075.557129,374.587128,1075.42688,374.52594,1075.308594,374.445313C1075.10791,374.316437,1074.929565,374.155518,1074.78125,373.96875C1074.503174,373.632172,1074.316895,373.230225,1074.238281,372.800781C1074.176758,372.455322,1074.161377,372.103149,1074.195313,371.753906C1074.238159,371.283844,1074.37085,370.826416,1074.585938,370.40625C1073.892334,370.836884,1073.220825,371.302246,1072.574219,371.800781L1072.6875,371.867188C1072.80957,371.957123,1072.921753,372.059875,1073.019531,372.175781L1073.222656,372.425781C1073.38208,372.671631,1073.517456,372.932129,1073.628906,373.203125C1073.901978,373.880249,1074.006958,374.613037,1073.9375,375.339844L1073.871094,375.777344C1073.812378,376.048096,1073.689819,376.300232,1073.515625,376.515625C1073.408813,376.634247,1073.292114,376.743439,1073.167969,376.84375C1073.074951,376.908875,1072.974487,376.96283,1072.867188,377L1072.734375,377.035156L1072.601563,377.050781L1072.464844,377.054688L1072.328125,377.039063L1072.050781,376.945313L1071.796875,376.804688L1071.574219,376.621094L1071.382813,376.398438C1071.263428,376.218689,1071.167236,376.024597,1071.097656,375.820313L1071.023438,375.507813C1070.926392,374.536285,1071.084229,373.556427,1071.480469,372.664063C1070.553345,373.458954,1069.656616,374.288818,1068.792969,375.152344L1068.824219,375.167969L1068.921875,375.304688L1069.167969,375.890625L1069.363281,376.492188L1069.507813,377.105469L1069.601563,377.734375C1069.627319,377.918121,1069.633057,378.103943,1069.621094,378.289063C1069.596436,378.4729,1069.558228,378.654663,1069.503906,378.832031L1069.433594,378.925781L1069.367188,379.023438L1069.28125,379.105469L1069.144531,379.191406C1068.964722,379.288116,1068.755127,379.313324,1068.558594,379.257813C1068.514771,379.216492,1068.476929,379.169617,1068.441406,379.121094C1068.353027,378.86322,1068.282349,378.59964,1068.230469,378.332031C1068.111084,377.61145,1068.093384,376.877625,1068.179688,376.152344L1068.257813,375.703125C1067.611816,376.341614,1066.98645,377.000946,1066.382813,377.679688C1066.521729,378.216858,1066.653198,378.756073,1066.777344,379.296875L1066.828125,379.628906C1066.842651,379.813599,1066.841309,379.999146,1066.824219,380.183594C1066.7854,380.267639,1066.744385,380.350739,1066.703125,380.433594L1066.609375,380.535156L1066.46875,380.65625L1066.3125,380.753906L1066.222656,380.769531C1066.163696,380.768311,1066.104858,380.766174,1066.046875,380.753906L1065.921875,380.65625L1065.824219,380.535156C1065.697266,380.295227,1065.591553,380.044617,1065.511719,379.785156C1065.440186,379.522583,1065.387695,379.255066,1065.359375,378.984375C1064.200439,380.612274,1063.246582,382.376923,1062.519531,384.238281C1062.256104,384.865997,1061.974854,385.486115,1061.675781,386.097656C1060.792725,387.157074,1059.940796,388.242371,1059.121094,389.351563C1057.992798,390.920227,1056.998413,392.581055,1056.148438,394.316406C1054.942017,396.94046,1053.969604,399.665955,1053.242188,402.460938C1053.087036,403.056519,1053.009644,403.669678,1053.011719,404.285156L1053.035156,404.46875L1053.070313,404.648438L1053.109375,404.761719L1053.160156,404.871094L1053.226563,404.976563L1053.300781,405.070313L1053.511719,405.179688C1053.6427,405.209198,1053.774292,405.236725,1053.90625,405.261719C1054.781372,405.361176,1055.66272,405.396698,1056.542969,405.367188C1057.41748,405.381836,1058.29187,405.335663,1059.160156,405.230469C1059.270386,405.208191,1059.379883,405.182281,1059.488281,405.152344C1059.594849,405.115295,1059.698608,405.071198,1059.800781,405.023438C1060.940308,404.074951,1062.025146,403.062714,1063.050781,401.992188C1063.533081,401.484772,1063.93457,400.906189,1064.242188,400.277344C1064.387451,399.991058,1064.51416,399.695801,1064.625,399.394531L1064.742188,398.984375C1064.803101,398.707092,1064.836304,398.424438,1064.84375,398.140625C1064.79541,397.057129,1064.708008,395.975677,1064.582031,394.898438C1064.432129,393.58902,1064.374512,392.27063,1064.410156,390.953125C1064.425415,390.099701,1064.63855,389.26178,1065.03125,388.503906C1065.155273,388.265747,1065.299927,388.039063,1065.460938,387.824219C1065.701538,387.453247,1065.927368,387.073029,1066.136719,386.683594L1066.371094,386.164063L1066.5625,385.628906L1066.640625,385.546875L1067.335938,384.9375C1067.299194,384.863831,1067.265503,384.788666,1067.238281,384.710938L1067.207031,384.59375L1067.191406,384.472656L1067.234375,384.039063L1067.320313,383.617188L1067.527344,383.105469L1067.789063,382.621094L1068.097656,382.164063L1068.457031,381.742188C1068.545532,381.640594,1068.644897,381.549255,1068.75,381.464844C1068.855469,381.378235,1068.970825,381.305023,1069.089844,381.238281L1069.222656,381.191406L1069.34375,381.183594L1069.449219,381.222656L1069.472656,381.257813L1069.542969,381.480469L1069.585938,381.710938C1069.622314,382.254547,1069.643433,382.79895,1069.648438,383.34375C1069.942383,383.196136,1070.238037,383.051239,1070.535156,382.910156C1070.458008,382.378387,1070.444458,381.839172,1070.5,381.304688L1070.507813,381L1070.535156,380.824219L1070.582031,380.65625L1070.648438,380.496094C1070.698608,380.441925,1070.745483,380.384827,1070.792969,380.328125L1070.871094,380.3125L1070.96875,380.335938C1071.060303,380.411102,1071.142944,380.496674,1071.210938,380.59375C1071.45166,381.03302,1071.637451,381.500122,1071.765625,381.984375L1071.871094,382.433594C1072.216187,382.330078,1072.567261,382.247498,1072.921875,382.183594L1072.753906,381.675781L1072.644531,381.152344L1072.589844,380.621094C1072.586304,380.385345,1072.589966,380.149536,1072.601563,379.914063C1072.610107,379.799438,1072.630005,379.686127,1072.65625,379.574219L1072.703125,379.40625L1072.796875,379.265625L1072.902344,379.136719C1073.034424,379.012817,1073.183105,378.907928,1073.34375,378.824219L1073.855469,378.617188C1074.615234,378.365845,1075.407227,378.224945,1076.207031,378.199219C1076.270508,378.208557,1076.331665,378.22876,1076.390625,378.253906L1076.46875,378.300781C1076.521729,378.338104,1076.571289,378.380035,1076.617188,378.425781C1076.767822,378.70108,1076.871704,378.999451,1076.925781,379.308594C1077.105103,380.142548,1077.104614,381.004913,1076.929688,381.839844C1077.478394,381.799652,1078.025146,381.761963,1078.574219,381.726563C1078.456055,381.25882,1078.390137,380.779266,1078.382813,380.296875C1078.528687,377.984558,1079.094849,375.718109,1080.054688,373.609375L1080.132813,373.46875C1080.209595,373.326508,1080.308472,373.197357,1080.421875,373.082031L1080.574219,372.9375L1080.648438,372.902344C1080.702271,372.911835,1080.755493,372.924408,1080.808594,372.9375C1081.171753,373.167542,1081.486572,373.46637,1081.730469,373.820313C1081.91394,374.092865,1082.040894,374.39978,1082.101563,374.722656L1082.128906,374.929688C1082.185181,375.735657,1082.202026,376.543945,1082.179688,377.351563L1082.125,378.609375L1082.082031,379.054688L1081.960938,379.714844L1081.78125,380.359375L1081.542969,380.984375L1081.25,381.585938C1084.268311,381.416809,1087.289551,381.320374,1090.3125,381.296875C1090.112793,380.763733,1089.958252,380.214752,1089.847656,379.65625C1089.617798,378.261871,1089.307251,376.881989,1088.917969,375.523438C1088.854492,375.237793,1088.810913,374.948059,1088.789063,374.65625L1088.75,373.828125L1088.78125,373.394531C1088.828369,373.04776,1088.918701,372.708435,1089.046875,372.382813C1089.146606,372.140625,1089.300049,371.923737,1089.496094,371.75L1089.683594,371.597656L1089.835938,371.5L1090,371.421875C1090.112061,371.377716,1090.226929,371.341522,1090.34375,371.3125C1090.540283,371.281128,1090.738647,371.261597,1090.9375,371.253906L1091.375,371.191406C1091.484985,371.156799,1091.590332,371.108948,1091.6875,371.046875C1091.728027,371.005341,1091.767822,370.963135,1091.808594,370.921875L1091.921875,370.851563C1092.018677,370.808289,1092.121338,370.779327,1092.226563,370.765625L1092.460938,370.742188L1092.699219,370.742188C1092.856079,370.755585,1093.01123,370.782654,1093.164063,370.820313C1093.284912,370.858154,1093.403442,370.902527,1093.519531,370.953125C1093.643066,371.006927,1093.759155,371.075806,1093.867188,371.15625L1093.964844,371.246094L1094.078125,371.382813C1094.263916,371.711853,1094.399902,372.066223,1094.488281,372.433594C1094.877075,374.862244,1094.875977,377.337433,1094.484375,379.765625C1094.414795,380.152161,1094.298096,380.528656,1094.136719,380.886719L1093.921875,381.304688C1095.607056,381.33728,1097.293091,381.393311,1098.976563,381.472656C1098.88208,381.234711,1098.804077,380.990601,1098.742188,380.742188C1098.351074,378.37973,1098.307861,375.972717,1098.613281,373.597656C1098.671875,373.188873,1098.7854,372.789703,1098.957031,372.414063C1099.02832,372.271576,1099.111694,372.135437,1099.207031,372.007813C1099.368286,371.862915,1099.55542,371.749512,1099.757813,371.671875L1099.957031,371.59375C1100.351074,371.463745,1100.77478,371.451843,1101.175781,371.558594L1101.273438,371.617188L1101.375,371.671875C1101.413574,371.719025,1101.454712,371.763916,1101.496094,371.808594L1101.699219,371.90625L1101.917969,371.976563C1102.130737,372.012817,1102.34668,372.026581,1102.5625,372.019531L1102.84375,372.0625C1102.996582,372.100281,1103.143677,372.157501,1103.285156,372.226563L1103.453125,372.320313L1103.609375,372.433594L1103.753906,372.558594C1103.892578,372.723572,1104.01062,372.904358,1104.113281,373.09375C1104.203735,373.289764,1104.276245,373.493561,1104.328125,373.703125C1104.480591,374.656311,1104.435791,375.630554,1104.199219,376.566406C1103.838623,377.795654,1103.558228,379.046967,1103.359375,380.3125C1103.27002,380.781586,1103.147217,381.243683,1102.992188,381.695313C1104.314941,381.776093,1105.639526,381.86731,1106.960938,381.96875C1106.864746,381.895203,1106.778931,381.809265,1106.703125,381.714844L1106.640625,381.609375C1106.467041,381.25592,1106.334106,380.883789,1106.246094,380.5C1106.134155,380.061646,1106.048706,379.616852,1105.992188,379.167969C1105.752686,377.23468,1105.778809,375.277679,1106.070313,373.351563L1106.097656,373.273438L1106.128906,373.199219L1106.175781,373.175781C1106.472412,373.187256,1106.765259,373.246643,1107.042969,373.351563C1107.319824,373.459229,1107.574829,373.615692,1107.800781,373.808594L1108.144531,374.179688L1108.441406,374.582031C1108.622925,374.859497,1108.776611,375.154144,1108.902344,375.460938C1109.02063,375.772278,1109.109497,376.093994,1109.167969,376.421875L1109.226563,376.917969L1109.230469,377.425781C1109.041626,378.775482,1108.671387,380.093536,1108.128906,381.34375C1108.036987,381.529053,1107.922607,381.702118,1107.792969,381.863281L1107.625,381.96875L1107.527344,382.007813C1108.992188,382.111389,1110.473877,382.221619,1111.9375,382.335938L1111.648438,381.753906L1111.414063,381.152344L1111.234375,380.53125L1111.105469,379.894531C1111.002441,378.585999,1110.974976,377.272644,1111.023438,375.960938C1111.044189,375.661682,1111.097778,375.36557,1111.183594,375.078125L1111.386719,374.695313L1111.636719,374.339844L1111.933594,374.027344C1112.063599,373.918304,1112.195923,373.812103,1112.332031,373.710938L1112.394531,373.683594L1112.464844,373.667969L1112.535156,373.664063L1112.609375,373.6875C1112.824219,373.878784,1112.998413,374.11084,1113.128906,374.367188C1114.008423,376.323212,1114.565308,378.408844,1114.777344,380.542969L1114.804688,381.070313C1114.800171,381.422974,1114.765015,381.774567,1114.699219,382.121094L1114.5625,382.632813C1115.159912,382.718292,1115.754028,382.825317,1116.34375,382.953125L1116.210938,382.351563L1116.140625,381.738281L1116.132813,381.125C1116.148193,380.803162,1116.17981,380.482269,1116.230469,380.164063L1116.308594,379.824219C1116.377197,379.601563,1116.463379,379.384735,1116.566406,379.175781L1116.671875,379.070313L1116.761719,379.015625C1116.827271,378.994324,1116.893433,378.975067,1116.960938,378.960938C1117.08606,378.957672,1117.211182,378.958893,1117.335938,378.96875L1118.25,379.097656C1118.796387,379.195221,1119.3302,379.354156,1119.839844,379.574219L1120.03125,379.683594C1120.154175,379.766663,1120.263916,379.867645,1120.355469,379.984375L1120.480469,380.167969L1120.558594,380.449219C1120.613037,380.877167,1120.612793,381.310303,1120.558594,381.738281C1120.469849,382.500977,1120.210938,383.233673,1119.800781,383.882813C1120.263184,384.049377,1120.721558,384.226471,1121.175781,384.414063C1121.167969,384.319244,1121.16626,384.22403,1121.167969,384.128906C1121.246704,383.199829,1121.49939,382.294037,1121.910156,381.457031L1122.054688,381.265625L1122.214844,381.089844L1122.3125,381.0625L1122.390625,381.078125C1122.442261,381.131042,1122.48999,381.187561,1122.535156,381.246094L1122.601563,381.421875L1122.648438,381.601563C1122.703857,382.038055,1122.724731,382.47821,1122.710938,382.917969L1122.667969,383.578125L1122.566406,384.230469L1122.496094,384.492188L1122.386719,384.738281L1122.296875,384.894531C1122.731567,385.095154,1123.161133,385.306396,1123.585938,385.527344C1123.509521,384.528595,1123.514771,383.525269,1123.601563,382.527344C1123.61792,382.365143,1123.644287,382.20401,1123.6875,382.046875L1123.710938,382.007813L1123.769531,381.96875L1123.832031,381.945313L1123.960938,381.953125L1124.097656,381.992188L1124.25,382.089844L1124.644531,382.421875L1125,382.800781L1125.308594,383.21875C1125.456543,383.463806,1125.592773,383.715637,1125.71875,383.972656L1125.839844,384.289063L1125.921875,384.613281L1125.972656,384.949219C1125.985596,385.098572,1125.984741,385.248688,1125.976563,385.398438L1125.925781,385.554688C1125.871826,385.670013,1125.806641,385.779846,1125.726563,385.878906L1125.59375,386.03125C1125.452759,386.177368,1125.282959,386.292053,1125.097656,386.375C1125.793335,386.805237,1126.482666,387.234192,1127.175781,387.667969C1127.407349,388.098663,1127.666748,388.513824,1127.953125,388.910156C1128.47168,389.752411,1128.754639,390.718109,1128.773438,391.707031C1128.809082,393.024567,1128.751953,394.342957,1128.601563,395.652344C1128.475342,396.729553,1128.388184,397.811005,1128.339844,398.894531C1128.353027,399.449005,1128.47229,399.996094,1128.695313,400.503906C1129.036743,401.33017,1129.522583,402.08905,1130.128906,402.746094C1131.158691,403.813843,1132.244751,404.825775,1133.382813,405.777344C1133.58606,405.875061,1133.80127,405.945099,1134.023438,405.984375C1134.891113,406.095703,1135.765991,406.141693,1136.640625,406.121094C1137.520996,406.150818,1138.402222,406.115692,1139.277344,406.015625C1139.380005,405.995056,1139.48291,405.975281,1139.585938,405.957031L1139.6875,405.925781L1139.789063,405.878906L1139.882813,405.824219L1139.984375,405.699219C1140.037476,405.605774,1140.081299,405.507538,1140.117188,405.40625L1140.152344,405.222656C1140.186523,404.815857,1140.168701,404.406555,1140.101563,404.003906L1140.046875,403.664063C1139.324097,400.708588,1138.31543,397.830414,1137.035156,395.070313L1136.371094,393.78125L1135.652344,392.523438L1134.882813,391.296875L1134.0625,390.105469C1133.322754,389.103882,1132.556763,388.121674,1131.765625,387.160156L1127.8125,378.394531C1127.907104,379.08255,1127.864136,379.782501,1127.683594,380.453125C1127.598267,380.740112,1127.491089,381.020172,1127.359375,381.289063L1127.257813,381.40625L1127.136719,381.503906C1127.081177,381.515137,1127.025024,381.521851,1126.96875,381.527344L1126.871094,381.5C1126.804199,381.458221,1126.736694,381.417603,1126.667969,381.378906L1126.5625,381.289063L1126.480469,381.183594C1126.436401,381.106079,1126.398804,381.025299,1126.359375,380.945313C1126.321045,380.645569,1126.338257,380.341339,1126.40625,380.046875C1126.59668,379.288666,1126.781372,378.530365,1126.960938,377.769531C1126.737305,377.564819,1126.505127,377.369476,1126.265625,377.183594C1124.740112,375.830261,1123.187256,374.506775,1121.609375,373.214844C1121.916016,373.858002,1122.109253,374.549194,1122.183594,375.257813L1122.199219,375.6875L1122.167969,376.113281L1122.089844,376.535156L1122.007813,376.777344C1121.945923,376.920471,1121.870361,377.057007,1121.785156,377.1875L1121.644531,377.347656C1121.436035,377.563263,1121.173706,377.719788,1120.882813,377.792969L1120.648438,377.8125C1120.505981,377.797577,1120.367065,377.760773,1120.234375,377.707031L1120.042969,377.605469C1119.891724,377.506256,1119.759033,377.38208,1119.644531,377.242188C1119.544189,377.111572,1119.460083,376.969086,1119.398438,376.816406L1119.285156,376.355469L1119.230469,375.886719L1119.226563,375.414063C1119.251221,375.117401,1119.294312,374.822601,1119.355469,374.53125C1119.514526,373.854309,1119.856201,373.2341,1120.34375,372.738281C1120.411621,372.684052,1120.480225,372.63092,1120.554688,372.585938L1120.710938,372.511719C1119.973511,371.942444,1119.219238,371.395477,1118.449219,370.871094C1118.757324,371.37439,1118.942261,371.943268,1118.992188,372.53125L1119.011719,372.875C1119.027344,373.385895,1118.906128,373.891754,1118.660156,374.339844C1118.51355,374.594208,1118.330811,374.826172,1118.113281,375.023438L1117.894531,375.203125L1117.660156,375.328125L1117.402344,375.402344L1117.136719,375.425781L1116.992188,375.390625C1116.861694,375.31958,1116.744263,375.227478,1116.640625,375.121094C1116.571167,374.985657,1116.515137,374.843658,1116.480469,374.695313L1116.464844,374.488281L1116.546875,373.535156L1116.6875,372.59375L1116.890625,371.660156C1116.983154,371.301758,1117.08606,370.946167,1117.199219,370.59375C1117.248413,370.444153,1117.326416,370.305756,1117.425781,370.183594C1116.680298,369.716919,1115.925049,369.266205,1115.160156,368.832031C1115.268799,369.098907,1115.358887,369.373016,1115.429688,369.652344C1115.516968,370.005768,1115.571045,370.36673,1115.585938,370.730469C1115.60144,371.073059,1115.544067,371.415436,1115.417969,371.734375L1115.273438,372.054688L1115.152344,372.207031C1115.066528,372.298492,1114.974609,372.38382,1114.878906,372.464844L1114.769531,372.542969L1114.648438,372.601563L1114.511719,372.625C1114.421143,372.609619,1114.329834,372.601044,1114.238281,372.59375L1114.097656,372.535156C1113.851318,372.428223,1113.644165,372.246979,1113.507813,372.015625L1113.421875,371.84375L1113.351563,371.667969L1113.304688,371.480469L1113.261719,370.945313L1113.277344,370.414063L1113.347656,369.886719C1113.406128,369.606293,1113.482544,369.329956,1113.574219,369.058594L1113.707031,368.765625C1113.806519,368.574005,1113.931396,368.396667,1114.078125,368.238281C1113.031006,367.694702,1111.963745,367.19043,1110.878906,366.726563C1108.956909,365.964172,1107.009155,365.268463,1105.039063,364.640625C1105.52417,365.585999,1105.788696,366.629028,1105.808594,367.691406C1105.80957,368.446991,1105.658081,369.194885,1105.363281,369.890625L1105.214844,370.167969L1105.089844,370.335938C1104.965942,370.445862,1104.832275,370.544342,1104.6875,370.625L1104.601563,370.65625L1104.304688,370.65625L1104.105469,370.585938L1103.832031,370.367188C1103.668213,370.206421,1103.529663,370.022461,1103.414063,369.824219L1103.273438,369.503906C1102.946289,368.379944,1102.846191,367.202362,1102.976563,366.039063C1103.014893,365.377106,1103.234497,364.738312,1103.609375,364.191406C1101.297241,363.496399,1098.894775,363.148834,1096.480469,363.160156z"/>
    <path transform="matrix(-1,0,0,-1,0,0)" style="stroke:#000000;stroke-width:0.05mm;fill:none" d="M1118.449219,381.03125C1118.234863,381.3078,1118.043213,381.601257,1117.878906,381.910156C1117.713013,382.355652,1117.471191,382.769409,1117.160156,383.128906C1117.873657,383.30127,1118.581177,383.498108,1119.28125,383.71875C1119.066406,383.264618,1118.93042,382.7771,1118.878906,382.277344C1118.821289,381.921173,1118.741333,381.569092,1118.640625,381.222656L1118.585938,381.113281L1118.503906,381.007813L1118.449219,381.03125z"/>
    <path transform="matrix(-1,0,0,-1,0,0)" style="stroke:#000000;stroke-width:0.05mm;fill:none" d="M1074.601563,380.351563L1074.519531,380.566406C1074.383789,381.038544,1074.284912,381.520508,1074.222656,382.007813C1074.716919,381.99411,1075.210571,381.965454,1075.703125,381.921875L1075.566406,381.703125C1075.471924,381.524384,1075.383545,381.342438,1075.304688,381.15625C1075.150024,380.843048,1074.957031,380.550385,1074.734375,380.28125L1074.679688,380.257813L1074.601563,380.351563z"/>
    <path transform="matrix(-1,0,0,-1,0,0)" style="stroke:#000000;stroke-width:0.05mm;fill:none" d="M1087.007813,372.425781L1087.054688,372.449219C1087.072266,372.500732,1087.092651,372.551208,1087.113281,372.601563C1087.166992,373.000824,1087.217896,373.400787,1087.265625,373.800781C1087.344116,374.75827,1087.370483,375.71936,1087.34375,376.679688C1087.297485,377.740936,1087.156128,378.795898,1086.921875,379.832031C1086.826538,380.249878,1086.664673,380.64978,1086.441406,381.015625L1086.320313,381.128906L1086.183594,381.230469C1086.084961,381.266327,1085.983276,381.292999,1085.878906,381.304688L1085.75,381.28125C1085.666992,381.25116,1085.585205,381.218048,1085.503906,381.183594L1085.390625,381.113281C1085.278198,380.986511,1085.179932,380.847473,1085.105469,380.695313C1084.531616,379.413208,1084.143799,378.055725,1083.953125,376.664063L1083.953125,376.210938L1083.996094,375.761719C1084.042725,375.46701,1084.11438,375.176849,1084.210938,374.894531L1084.378906,374.476563C1084.505981,374.205017,1084.657471,373.945709,1084.828125,373.699219C1084.963501,373.515106,1085.109741,373.339172,1085.269531,373.175781C1085.406128,373.041992,1085.55481,372.921173,1085.714844,372.816406L1086.015625,372.652344C1086.300537,372.529663,1086.602051,372.450745,1086.910156,372.414063L1087.007813,372.425781z"/>
    <path transform="matrix(-1,0,0,-1,0,0)" style="stroke:#000000;stroke-width:0.05mm;fill:none" d="M1124.636719,375.953125C1124.756836,376.086914,1124.852051,376.24057,1124.921875,376.40625C1125.148315,377.506287,1125.108154,378.644165,1124.808594,379.726563C1124.763672,379.830017,1124.700928,379.9245,1124.625,380.007813L1124.503906,380.039063L1124.316406,380.03125C1124.194214,380.003418,1124.076294,379.959778,1123.964844,379.902344L1123.847656,379.808594C1123.769165,379.711853,1123.701172,379.606934,1123.652344,379.492188L1123.585938,379.28125L1123.550781,379.066406L1123.550781,378.847656L1123.628906,378.167969L1123.761719,377.5L1123.945313,376.839844L1124.183594,376.199219C1124.236206,376.10318,1124.296509,376.011627,1124.359375,375.921875L1124.425781,375.878906L1124.535156,375.871094L1124.636719,375.953125z"/>
</svg>
