<?xml version="1.0" encoding="UTF-8"?>
<svg xmlns="http://www.w3.org/2000/svg" width="881.112mm" height="544.833mm" viewBox="-1300.112061 -724.672729 881.112061 544.832764">
    <path transform="matrix(-1,0,0,-1,0,0)" style="stroke:none;fill:#000000;fill-rule:evenodd" d="M1255.12207,724.672791L1252.552124,724.672791"/>
    <path transform="matrix(-1,0,0,-1,0,0)" style="stroke:none;fill:#000000;fill-rule:evenodd" d="M1300.104004,183.343994C1299.890625,218.98468,1296.193115,254.518967,1289.063965,289.440002C1275.481934,355.763123,1249.566162,418.946045,1212.66394,475.70401C1190.095459,510.432159,1163.654053,542.48291,1133.848022,571.23999C1092.140625,611.505981,1044.274658,644.858765,992.05603,670.039978C937.494446,696.336731,878.898193,713.268982,818.719971,720.127991C796.553772,722.661987,774.253601,723.837524,751.94397,723.64801C733.481079,723.409424,715.068115,721.667664,696.888,718.440002C684.59436,716.24115,672.434021,713.354004,660.463989,709.791992C633.025269,701.630005,606.753174,689.966125,582.296021,675.088013C567.336304,666.010986,553.113892,655.771484,539.76001,644.463989C528.481689,634.936218,517.845337,624.67395,507.920013,613.744019C492.51825,596.817749,478.889648,578.358643,467.247986,558.656006C452.657532,533.99884,441.310547,507.561951,433.488007,480C427.755615,459.809143,423.938782,439.123352,422.088013,418.216003C421.193878,408.221985,420.750763,398.193695,420.76001,388.160004L420.880005,388.160004C420.867493,369.824005,423.280396,351.567108,428.056,333.864014C436.210846,303.823303,451.034393,276.008301,471.424011,252.488007C490.550354,230.395981,514.115112,212.580002,540.583984,200.199997C563.145386,189.676086,587.424011,183.320496,612.247986,181.440002C618.645996,180.943985,625.064148,180.757095,631.47998,180.880005C649.975403,181.327576,668.148438,185.822357,684.719971,194.048004C699.375793,201.351089,712.497498,211.393372,723.375977,223.632004C724.3479,224.766968,725.382568,225.976685,726.35199,227.112C727.964478,229.083862,729.525208,231.098175,731.031982,233.151993C747.312195,255.450439,755.858154,282.459198,755.367981,310.063995C755.112122,320.606445,752.742798,330.990173,748.400024,340.600006C742.60614,353.397491,733.517822,364.426453,722.064026,372.559998C709.263306,381.684204,694.019409,386.758972,678.304016,387.127991C677.22699,387.164429,676.149353,387.169769,675.072021,387.144012C668.804077,386.985504,662.630432,385.579346,656.911987,383.007996C645.013367,377.62674,635.875244,367.555908,631.671997,355.191986C629.853333,349.820648,629.029358,344.162964,629.23999,338.496002C629.579285,331.589233,632.224365,324.99472,636.752014,319.768005C641.400146,314.398163,647.746826,310.781616,654.736023,309.519989C656.81543,309.145355,658.928162,308.989777,661.039978,309.056C669.028748,309.47345,675.287109,316.080353,675.271973,324.079987L677.271973,324.032013C677.262451,314.647064,669.656921,307.041168,660.271973,307.032013L660.247986,308.015991L660.231995,307.032013C644.858093,307.033569,631.517151,317.638641,628.047974,332.615997C627.478943,335.060394,627.194214,337.562256,627.200012,340.071991L628.200012,340.079987L627.200012,340.096008C627.189941,355.163116,634.114807,369.396576,645.976013,378.687988C654.606873,385.47998,665.273132,389.168823,676.255981,389.160004L676.271973,388.015991L676.280029,389.160004C683.786194,389.155151,691.255981,388.118866,698.47998,386.079987C702.931763,384.810791,707.267517,383.164886,711.440002,381.160004C730.467346,371.976624,745.180481,355.757538,752.471985,335.928009C755.73877,326.993591,757.404358,317.552979,757.392029,308.040009L756.59198,308.032013L757.392029,308.023987C757.434204,274.291473,744.237671,241.88887,720.640015,217.783997C702.63916,199.302231,679.504883,186.649567,654.231995,181.464005C650.968933,180.795944,647.680847,180.254166,644.375977,179.839996L1300.112061,179.839996L1300.104004,183.343994z"/>
    <path transform="matrix(-1,0,0,-1,0,0)" style="stroke:none;fill:#000000;fill-rule:evenodd" d="M419.799988,388.160004L419,388.167999L419,388.152008L419.799988,388.160004z"/>
</svg>
