<?xml version="1.0" encoding="UTF-8"?>
<svg xmlns="http://www.w3.org/2000/svg" width="306.414mm" height="296.461mm" viewBox="-1145.750000 -741.902344 306.414063 296.460938">
    <path transform="matrix(-1,0,0,-1,0,0)" style="stroke:#000000;stroke-width:0.05mm;fill:none" d="M961.769531,598.328125L962.238281,598.101563L962.75,597.804688L963.167969,597.523438L963.5625,597.210938L964.011719,596.804688L964.054688,596.769531L964.523438,596.390625L965.003906,595.960938L965.417969,595.550781L965.804688,595.128906L966.195313,594.660156L966.53125,594.210938L966.863281,593.722656L967.167969,593.226563L967.4375,592.730469L967.691406,592.214844L967.914063,591.695313L968.117188,591.160156L968.277344,590.667969L968.425781,590.117188L968.5625,589.515625L968.652344,589.007813L968.730469,588.398438L968.773438,587.867188L968.796875,587.265625L968.792969,586.75L968.757813,586.136719L968.699219,585.566406L968.613281,585.003906L968.5,584.441406L968.371094,583.929688L968.191406,583.332031L968.011719,582.828125L967.773438,582.246094L967.523438,581.710938L967.269531,581.234375L966.9375,580.679688L966.652344,580.246094L966.140625,579.632813L965.660156,579.109375L965.082031,578.546875L964.558594,578.085938L963.9375,577.589844L963.382813,577.191406L962.722656,576.765625L962.136719,576.425781L961.445313,576.070313L960.800781,575.777344L960.132813,575.515625L959.476563,575.289063L958.738281,575.074219L958.089844,574.921875L957.367188,574.785156L956.628906,574.683594L955.960938,574.625L955.203125,574.59375L954.527344,574.597656L953.78125,574.640625L953.042969,574.714844L952.367188,574.820313L951.625,574.96875L950.917969,575.148438L950.269531,575.351563L949.53125,575.617188L948.898438,575.882813L948.230469,576.203125L947.53125,576.585938L946.882813,576.980469L946.257813,577.410156L945.699219,577.832031L944.859375,578.628906L944.074219,579.445313L943.339844,580.289063L942.677734,581.128906L942.003906,582.0625L941.40625,582.984375L940.851563,583.929688L940.347656,584.890625L939.910156,585.832031L939.480469,586.875L939.132813,587.84375L938.800781,588.914063L938.53125,589.949219L938.322266,590.957031L938.136719,592.058594L938.007813,593.121094L937.933594,594.140625L937.90625,595.257813L937.925781,596.328125L937.988281,597.359375L938.105469,598.429688L938.269531,599.492188L938.492188,600.59375L938.746094,601.605469L939.060547,602.644531L939.4375,603.722656L939.835938,604.695313L940.316406,605.742188L940.804688,606.6875L941.371094,607.660156L941.996094,608.625L942.644531,609.535156L943.074219,610.039063L943.542969,610.558594L944.015625,611.0625L944.496094,611.546875L944.992188,612.019531L945.511719,612.496094L946.003906,612.925781L946.527344,613.355469L947.074219,613.789063L947.59375,614.175781L948.15625,614.578125L948.707031,614.949219L949.242188,615.292969L949.8125,615.636719L950.390625,615.962891L950.992188,616.292969L951.554688,616.582031L952.144531,616.867188L952.742188,617.136719L953.367188,617.408203L953.957031,617.630859L954.589844,617.871094L955.179688,618.074219L955.800781,618.269531L956.449219,618.457031L957.058594,618.615234L957.714844,618.783203L958.328125,618.910156L958.960938,619.029297L959.625,619.146484L960.246094,619.230469L960.886719,619.308594L961.554688,619.371094L962.179688,619.417969L962.851563,619.449219L963.503906,619.46875L964.128906,619.46875L964.777344,619.453125L965.453125,619.427734L966.078125,619.380859L966.75,619.320313L967.375,619.244141L968.042969,619.152344L968.695313,619.046875L969.3125,618.923828L969.980469,618.785156L970.59375,618.636719L971.253906,618.464844L971.882813,618.28125L972.515625,618.082031L973.140625,617.867188L973.746094,617.644531L974.386719,617.390625L974.976563,617.136719L975.609375,616.847656L976.191406,616.5625L976.792969,616.253906L977.40625,615.923828L977.980469,615.583984L978.582031,615.21875L979.15625,614.847656L979.722656,614.457031L980.269531,614.066406L980.84375,613.628906L981.464844,613.085938L982.136719,612.476563L982.769531,611.871094L983.382813,611.253906L983.972656,610.625L984.535156,610L985.109375,609.324219L985.65625,608.65625L986.171875,607.984375L986.671875,607.296875L987.15625,606.601563L987.605469,605.914063L988.066406,605.175781L988.488281,604.457031L988.894531,603.722656L989.273438,603.003906L989.658203,602.234375L989.990234,601.496094L990.341797,600.710938L990.634766,599.96875L990.9375,599.171875L991.210938,598.390625L991.472656,597.597656L991.707031,596.808594L991.908203,596.035156L992.113281,595.210938L992.292969,594.40625L992.453125,593.59375L992.589844,592.789063L992.710938,591.96875L992.804688,591.179688L992.886719,590.335938L992.943359,589.539063L992.988281,588.691406L993.011719,587.867188L993.011719,587.046875L992.996094,586.21875L992.962891,585.402344L992.902344,584.578125L992.824219,583.75L992.726563,582.953125L992.615234,582.109375L992.476563,581.296875L992.324219,580.511719L992.140625,579.675781L991.945313,578.863281L991.730469,578.058594L991.496094,577.28125L991.238281,576.472656L990.957031,575.675781L990.666016,574.886719L990.355469,574.128906L990.007813,573.332031L989.652344,572.5625L989.273438,571.796875L988.886719,571.066406L988.457031,570.292969L988.019531,569.5625L987.572266,568.847656L987.082031,568.101563L986.582031,567.390625L986.0625,566.683594L985.523438,565.988281L984.960938,565.300781L984.066406,564.261719L983.148438,563.269531L982.199219,562.308594L981.222656,561.382813L980.21875,560.496094L979.210938,559.666016L978.128906,558.828125L977.050781,558.050781L975.945313,557.304688L974.824219,556.605469L973.707031,555.962891L972.511719,555.320313L971.355469,554.746094L970.125,554.183594L968.9375,553.693359L967.671875,553.214844L966.449219,552.796875L965.15625,552.402344L963.898438,552.0625L962.628906,551.765625L961.328125,551.507813L959.992188,551.285156L958.6875,551.109375L957.355469,550.974609L956.058594,550.894531L954.695313,550.851563L953.390625,550.851563L952.015625,550.898438L950.707031,550.994141L949.355469,551.128906L947.988281,551.310547L946.699219,551.535156L945.5,551.808594L944.332031,552.105469L943.179688,552.433594L942.035156,552.789063L940.933594,553.164063L939.8125,553.578125L938.683594,554.027344L937.613281,554.488281L936.535156,554.980469L935.449219,555.515625L934.421875,556.050781L933.363281,556.636719L932.347656,557.234375L931.363281,557.853516L930.355469,558.515625L929.390625,559.191406L928.4375,559.890625L927.503906,560.613281L926.589844,561.363281L925.691406,562.136719L924.832031,562.917969L923.957031,563.75L923.121094,564.589844L922.308594,565.449219L921.53125,566.3125L920.742188,567.238281L919.992188,568.164063L919.261719,569.113281L918.558594,570.082031L917.878906,571.066406L917.21875,572.078125L916.589844,573.101563L916.554688,573.152344L915.976563,573.976563L915.421875,574.808594L914.875,575.675781L914.359375,576.535156L913.861328,577.402344L913.390625,578.28125L912.941406,579.171875L912.515625,580.066406L912.113281,580.972656L911.738281,581.867188L911.371094,582.8125L911.03125,583.746094L910.708984,584.683594L910.417969,585.628906L910.158203,586.5625L909.892578,587.542969L909.681641,588.480469L909.472656,589.472656L909.292969,590.445313L909.136719,591.421875L909,592.410156L908.894531,593.390625L908.804688,594.382813L908.744141,595.347656L908.703125,596.367188L908.6875,597.363281L908.695313,598.335938L908.726563,599.328125L908.779297,600.351563L908.863281,601.332031L908.964844,602.328125L909.097656,603.347656L909.101563,603.394531L909.105469,603.445313L909.105469,603.492188L909.089844,604.574219L909.105469,605.601563L909.144531,606.648438L909.210938,607.71875L909.296875,608.734375L909.419922,609.773438L909.558594,610.808594L909.724609,611.859375L909.917969,612.855469L910.140625,613.875L910.382813,614.878906L910.65625,615.886719L910.951172,616.90625L911.271484,617.863281L911.615234,618.863281L911.976563,619.8125L912.369141,620.769531L912.787109,621.742188L913.21875,622.65625L913.689453,623.605469L914.167969,624.507813L914.675781,625.410156L915.210938,626.304688L915.761719,627.183594L916.339844,628.050781L916.9375,628.90625L917.558594,629.742188L918.21875,630.585938L918.869141,631.378906L919.564453,632.197266L920.261719,632.953125L921.007813,633.734375L921.039063,633.769531L921.066406,633.804688L921.800781,634.726563L922.550781,635.632813L923.316406,636.519531L924.097656,637.394531L924.886719,638.246094L925.699219,639.085938L926.515625,639.902344L927.355469,640.707031L928.21875,641.503906L929.066406,642.257813L929.9375,643.003906L930.824219,643.734375L931.722656,644.445313L932.648438,645.154297L933.554688,645.816406L934.488281,646.472656L935.433594,647.109375L936.402344,647.738281L937.355469,648.332031L938.347656,648.921875L939.332031,649.488281L940.3125,650.021484L941.332031,650.558594L942.328125,651.058594L943.351563,651.542969L944.382813,652.011719L945.417969,652.460938L946.460938,652.890625L947.519531,653.300781L948.578125,653.691406L949.664063,654.072266L950.71875,654.408203L951.816406,654.746094L952.902344,655.058594L953.976563,655.341797L955.078125,655.613281L956.199219,655.867188L957.300781,656.099609L958.398438,656.304688L959.511719,656.492188L960.636719,656.654297L961.78125,656.814453L962.886719,656.927734L964.035156,657.039063L965.152344,657.115234L966.308594,657.183594L967.445313,657.226563L968.574219,657.246094L969.707031,657.242188L970.847656,657.222656L971.988281,657.175781L973.152344,657.115234L974.277344,657.023438L975.441406,656.916016L976.570313,656.779297L977.734375,656.625L978.878906,656.449219L980,656.257813L981.164063,656.03125L982.289063,655.792969L983.425781,655.527344L984.5625,655.238281L985.699219,654.925781L986.847656,654.589844L988.691406,653.890625L990.605469,653.109375L992.441406,652.308594L994.292969,651.441406L996.09375,650.546875L997.859375,649.609375L999.574219,648.644531L1001.300781,647.617188L1002.96875,646.5625L1004.589844,645.480469L1006.214844,644.339844L1007.789063,643.175781L1009.328125,641.976563L1010.835938,640.742188L1012.285156,639.488281L1013.738281,638.171875L1015.144531,636.839844L1016.507813,635.476563L1017.839844,634.082031L1019.128906,632.660156L1020.371094,631.226563L1021.611328,629.726563L1022.792969,628.21875L1023.9375,626.683594L1025.042969,625.125L1026.097656,623.558594L1027.140625,621.929688L1028.132813,620.296875L1029.082031,618.644531L1029.992188,616.96875L1030.863281,615.269531L1031.691406,613.554688L1032.484375,611.816406L1033.220703,610.082031L1033.9375,608.289063L1034.601563,606.5L1035.222656,604.695313L1035.789063,602.894531L1036.337891,601.039063L1036.814453,599.210938L1037.269531,597.328125L1037.667969,595.480469L1038.027344,593.570313L1038.345703,591.671875L1038.613281,589.765625L1038.828125,587.878906L1039.003906,585.933594L1039.130859,584.027344L1039.214844,582.066406L1039.246094,580.125L1039.234375,578.179688L1039.171875,576.226563L1039.064453,574.277344L1038.898438,572.339844L1038.6875,570.359375L1038.429688,568.398438L1038.121094,566.441406L1037.761719,564.480469L1037.351563,562.519531L1036.898438,560.59375L1036.378906,558.613281L1035.8125,556.667969L1035.207031,554.746094L1034.527344,552.785156L1033.941406,551.492188L1033.308594,550.136719L1032.660156,548.789063L1031.996094,547.445313L1031.320313,546.105469L1030.632813,544.78125L1029.933594,543.46875L1029.216797,542.148438L1028.482422,540.851563L1027.736328,539.546875L1026.972656,538.257813L1026.197266,536.984375L1025.412109,535.703125L1024.607422,534.449219L1023.789063,533.1875L1022.960938,531.9375L1022.933594,531.894531L1022.910156,531.851563L1022.871094,531.765625L1022.851563,531.71875L1022.835938,531.675781L1022.8125,531.582031L1022.804688,531.53125L1022.796875,531.484375L1022.792969,531.4375L1022.792969,531.339844L1022.796875,531.292969L1022.800781,531.242188L1022.8125,531.195313L1022.820313,531.152344L1023.320313,529.050781L1023.324219,529.03125L1023.859375,526.941406L1023.863281,526.925781L1024.4375,524.847656L1024.445313,524.828125L1025.058594,522.761719L1025.0625,522.742188L1025.714844,520.691406L1025.71875,520.675781L1026.402344,518.640625L1026.410156,518.621094L1027.142578,516.580078L1027.898438,514.578125L1027.90625,514.558594L1028.703125,512.570313L1028.710938,512.554688L1029.542969,510.578125L1029.550781,510.558594L1030.417969,508.601563L1030.425781,508.585938L1031.328125,506.644531L1031.335938,506.628906L1032.277344,504.703125L1032.285156,504.6875L1033.257813,502.78125L1033.265625,502.761719L1034.285156,500.857422L1035.320313,498.996094L1035.332031,498.976563L1036.410156,497.128906L1036.417969,497.113281L1037.527344,495.28125L1037.539063,495.265625L1038.683594,493.457031L1038.691406,493.441406L1039.867188,491.652344L1039.878906,491.636719L1041.101563,489.853516L1042.339844,488.113281L1042.351563,488.097656L1043.625,486.375L1043.636719,486.359375L1044.941406,484.660156L1044.953125,484.644531L1046.310547,482.951172L1047.675781,481.304688L1047.6875,481.289063L1049.089844,479.660156L1049.101563,479.644531L1050.552734,478.021484L1052.007813,476.445313L1052.023438,476.429688L1053.537109,474.861328L1055.072266,473.318359L1056.621094,471.824219L1057.636719,470.716797L1058.695313,469.605469L1058.710938,469.589844L1059.810547,468.478516L1060.919922,467.388672L1062.044922,466.318359L1063.185547,465.277344L1064.345703,464.244141L1065.5,463.25L1065.515625,463.238281L1066.707031,462.25L1067.894531,461.292969L1067.910156,461.28125L1069.138672,460.326172L1070.355469,459.414063L1070.371094,459.402344L1071.630859,458.496094L1072.875,457.625L1072.890625,457.617188L1074.177734,456.75L1075.453125,455.917969L1075.46875,455.90625L1076.765625,455.09375L1076.78125,455.085938L1078.107422,454.285156L1079.421875,453.519531L1079.4375,453.507813L1080.791016,452.755859L1082.128906,452.03125L1082.144531,452.023438L1083.503906,451.320313L1083.519531,451.3125L1084.890625,450.632813L1084.90625,450.625L1086.292969,449.96875L1086.308594,449.960938L1087.703125,449.324219L1087.71875,449.316406L1089.142578,448.701172L1090.550781,448.113281L1090.570313,448.105469L1092,447.539063L1092.015625,447.535156L1093.453125,446.992188L1093.46875,446.984375L1094.917969,446.464844L1094.933594,446.457031L1096.390625,445.964844L1096.40625,445.960938L1097.875,445.488281L1097.917969,445.476563L1097.96875,445.464844L1098.0625,445.449219L1098.109375,445.445313L1098.160156,445.441406L1098.207031,445.441406L1098.253906,445.445313L1098.328125,445.453125L1098.855469,445.53125L1098.875,445.535156L1099.398438,445.625L1099.4375,445.632813L1099.953125,445.742188L1099.984375,445.746094L1100.496094,445.871094L1100.527344,445.878906L1101.03125,446.019531L1101.058594,446.03125L1101.558594,446.1875L1101.589844,446.195313L1102.085938,446.367188L1102.117188,446.378906L1102.601563,446.566406L1102.625,446.578125L1103.105469,446.777344L1103.136719,446.789063L1103.609375,447.003906L1103.640625,447.019531L1104.105469,447.25L1104.132813,447.265625L1104.589844,447.511719L1104.613281,447.523438L1105.0625,447.78125L1105.085938,447.796875L1105.527344,448.066406L1105.5625,448.085938L1105.992188,448.371094L1106.007813,448.382813L1106.433594,448.679688L1106.46875,448.703125L1106.878906,449.015625L1106.898438,449.03125L1107.304688,449.355469L1107.332031,449.378906L1107.722656,449.714844L1107.742188,449.730469L1108.125,450.078125L1108.144531,450.097656L1108.519531,450.457031L1108.546875,450.484375L1108.90625,450.855469L1108.925781,450.878906L1109.277344,451.265625L1109.300781,451.289063L1109.636719,451.683594L1109.652344,451.703125L1109.980469,452.109375L1110,452.132813L1110.316406,452.550781L1110.335938,452.578125L1110.636719,453.003906L1110.65625,453.03125L1110.945313,453.46875L1110.964844,453.5L1111.238281,453.949219L1111.253906,453.976563L1111.515625,454.4375L1111.527344,454.460938L1111.777344,454.929688L1111.792969,454.957031L1111.996094,455.375L1113.328125,457.306641L1114.667969,459.300781L1115.974609,461.318359L1117.257813,463.335938L1118.503906,465.355469L1118.511719,465.371094L1119.732422,467.414063L1120.933594,469.474609L1122.095703,471.537109L1123.238281,473.611328L1124.351563,475.697266L1125.427734,477.785156L1126.478516,479.888672L1127.507813,481.998047L1128.498047,484.115234L1129.466797,486.244141L1130.410156,488.376953L1131.318359,490.521484L1132.197266,492.669922L1133.052734,494.826172L1133.876953,496.990234L1134.673828,499.158203L1135.443359,501.333984L1136.185547,503.517578L1136.896484,505.705078L1137.583984,507.900391L1138.240234,510.09375L1138.867188,512.28125L1138.871094,512.296875L1139.474609,514.509766L1140.048828,516.724609L1140.589844,518.939453L1141.111328,521.162109L1141.603516,523.388672L1142.0625,525.615234L1142.501953,527.849609L1142.90625,530.083984L1143.291016,532.322266L1143.640625,534.560547L1143.964844,536.785156L1143.96875,536.800781L1144.261719,539.046875L1144.537109,541.294922L1144.777344,543.541016L1144.996094,545.773438L1144.996094,545.789063L1145.183594,548.044922L1145.349609,550.294922L1145.480469,552.548828L1145.589844,554.798828L1145.667969,557.048828L1145.722656,559.302734L1145.75,561.535156L1145.75,563.796875L1145.722656,566.052734L1145.671875,568.298828L1145.589844,570.544922L1145.484375,572.791016L1145.345703,575.033203L1145.1875,577.271484L1145.003906,579.492188L1145.003906,579.507813L1144.789063,581.742188L1144.544922,583.978516L1144.28125,586.205078L1143.986328,588.431641L1143.671875,590.654297L1143.328125,592.851563L1143.324219,592.867188L1142.953125,595.082031L1142.552734,597.291016L1142.132813,599.494141L1141.677734,601.693359L1141.201172,603.888672L1140.703125,606.058594L1140.703125,606.074219L1140.169922,608.253906L1139.615234,610.431641L1139.037109,612.603516L1138.433594,614.763672L1137.798828,616.919922L1137.142578,619.072266L1136.464844,621.195313L1135.748047,623.339844L1135.013672,625.470703L1134.255859,627.587891L1133.470703,629.697266L1132.658203,631.798828L1131.816406,633.892578L1130.955078,635.974609L1130.068359,638.042969L1129.158203,640.111328L1128.220703,642.166016L1127.253906,644.208984L1126.267578,646.244141L1125.25,648.261719L1124.212891,650.279297L1123.150391,652.279297L1122.058594,654.271484L1120.947266,656.242188L1119.804688,658.212891L1118.636719,660.169922L1117.455078,662.105469L1116.238281,664.037109L1114.996094,665.949219L1113.740234,667.853516L1112.449219,669.744141L1111.136719,671.623047L1109.796875,673.480469L1108.433594,675.324219L1107.046875,677.162109L1105.636719,678.976563L1104.203125,680.783203L1102.742188,682.570313L1101.257813,684.345703L1099.753906,686.097656L1098.21875,687.839844L1096.664063,689.568359L1095.085938,691.273438L1093.474609,692.970703L1091.847656,694.640625L1090.195313,696.296875L1088.517578,697.9375L1086.816406,699.564453L1085.09375,701.164063L1083.347656,702.75L1081.572266,704.316406L1079.775391,705.867188L1077.957031,707.394531L1076.111328,708.90625L1074.246094,710.394531L1072.359375,711.867188L1070.443359,713.320313L1068.507813,714.75L1066.544922,716.160156L1065.242188,717.072266L1063.923828,717.980469L1062.601563,718.861328L1061.267578,719.734375L1059.929688,720.583984L1058.582031,721.425781L1057.220703,722.25L1055.855469,723.052734L1054.478516,723.847656L1053.095703,724.615234L1051.707031,725.369141L1050.306641,726.117188L1048.900391,726.837891L1047.492188,727.541016L1046.074219,728.232422L1044.642578,728.914063L1043.208984,729.568359L1041.773438,730.208984L1040.339844,730.828125L1040.324219,730.832031L1038.867188,731.439453L1037.410156,732.029297L1035.943359,732.603516L1034.470703,733.162109L1032.990234,733.705078L1031.511719,734.228516L1030.039063,734.730469L1030.023438,734.734375L1028.527344,735.224609L1027.025391,735.697266L1025.523438,736.154297L1024.013672,736.595703L1022.498047,737.011719L1020.978516,737.419922L1019.451172,737.810547L1017.923828,738.181641L1016.398438,738.527344L1014.857422,738.869141L1013.318359,739.183594L1011.775391,739.486328L1010.228516,739.765625L1008.673828,740.037109L1007.125,740.28125L1005.568359,740.517578L1004.005859,740.726563L1002.443359,740.921875L1000.876953,741.103516L999.310547,741.261719L997.740234,741.402344L996.166016,741.527344L994.597656,741.638672L993.035156,741.726563L993.019531,741.726563L991.435547,741.796875L989.859375,741.847656L988.275391,741.882813L986.710938,741.902344L985.113281,741.902344L983.525391,741.882813L981.939453,741.84375L980.355469,741.789063L978.785156,741.71875L978.769531,741.71875L977.173828,741.623047L975.587891,741.515625L974.003906,741.386719L972.416016,741.242188L970.826172,741.072266L968.234375,740.773438L968.214844,740.773438L965.628906,740.429688L965.613281,740.425781L963.039063,740.039063L963.023438,740.035156L960.464844,739.605469L960.445313,739.605469L957.898438,739.132813L957.882813,739.128906L955.347656,738.613281L955.332031,738.609375L952.8125,738.054688L952.792969,738.050781L950.267578,737.443359L947.785156,736.808594L947.765625,736.804688L945.289063,736.121094L945.273438,736.117188L942.8125,735.398438L942.796875,735.390625L940.355469,734.628906L940.339844,734.625L937.910156,733.820313L937.894531,733.816406L935.484375,732.976563L935.464844,732.96875L933.056641,732.080078L930.6875,731.164063L930.667969,731.15625L928.294922,730.189453L925.960938,729.195313L925.945313,729.1875L923.628906,728.152344L923.613281,728.144531L921.3125,727.074219L921.296875,727.066406L919.019531,725.953125L919.003906,725.945313L916.746094,724.800781L916.730469,724.792969L914.492188,723.609375L914.476563,723.601563L912.240234,722.367188L910.037109,721.101563L907.867188,719.816406L907.847656,719.808594L905.681641,718.462891L903.5625,717.105469L903.546875,717.097656L901.423828,715.6875L899.351563,714.257813L899.335938,714.246094L897.263672,712.769531L895.238281,711.273438L895.222656,711.261719L893.201172,709.714844L891.208984,708.134766L889.261719,706.539063L889.246094,706.527344L887.302734,704.882813L885.392578,703.205078L883.505859,701.498047L881.650391,699.755859L879.839844,698.003906L878.027344,696.191406L876.251953,694.349609L874.509766,692.490234L872.816406,690.613281L872.804688,690.597656L871.119141,688.669922L869.476563,686.716797L867.857422,684.736328L866.285156,682.746094L866.273438,682.730469L864.730469,680.703125L864.722656,680.6875L863.197266,678.615234L861.714844,676.521484L860.273438,674.417969L860.261719,674.402344L858.851563,672.265625L858.84375,672.25L857.457031,670.072266L856.117188,667.886719L856.105469,667.871094L854.800781,665.65625L854.792969,665.640625L853.523438,663.398438L853.515625,663.382813L852.269531,661.099609L851.074219,658.816406L851.066406,658.800781L849.90625,656.484375L849.898438,656.46875L848.773438,654.125L848.765625,654.109375L847.679688,651.746094L847.675781,651.730469L846.625,649.34375L846.617188,649.328125L845.609375,646.914063L845.585938,646.847656L844.960938,645.011719L844.953125,644.996094L844.359375,643.152344L844.355469,643.136719L843.796875,641.289063L843.792969,641.273438L843.269531,639.421875L843.265625,639.40625L842.773438,637.546875L842.765625,637.527344L842.308594,635.667969L842.304688,635.648438L841.882813,633.78125L841.878906,633.765625L841.488281,631.894531L841.488281,631.878906L841.128906,630.007813L841.125,629.992188L840.800781,628.117188L840.796875,628.097656L840.503906,626.21875L840.5,626.203125L840.242188,624.320313L840.242188,624.304688L840.015625,622.425781L840.011719,622.40625L839.820313,620.523438L839.820313,620.507813L839.65625,618.625L839.65625,618.605469L839.53125,616.71875L839.527344,616.703125L839.429688,614.820313L839.429688,614.800781L839.367188,612.917969L839.367188,612.902344L839.335938,611.019531L839.335938,609.105469L839.371094,607.226563L839.371094,607.210938L839.4375,605.332031L839.4375,605.316406L839.53125,603.441406L839.535156,603.421875L839.667969,601.550781L839.667969,601.535156L839.828125,599.667969L839.828125,599.652344L840.019531,597.789063L840.023438,597.773438L840.246094,595.914063L840.246094,595.894531L840.503906,594.039063L840.507813,594.023438L840.792969,592.171875L840.796875,592.152344L841.117188,590.308594L841.117188,590.292969L841.464844,588.453125L841.46875,588.4375L841.847656,586.605469L841.851563,586.585938L842.271484,584.744141L842.710938,582.929688L842.714844,582.910156L843.1875,581.101563L843.191406,581.085938L843.695313,579.28125L843.703125,579.265625L844.238281,577.472656L844.242188,577.457031L844.808594,575.671875L844.8125,575.65625L845.40625,573.878906L845.414063,573.859375L846.042969,572.089844L846.046875,572.074219L846.703125,570.320313L846.710938,570.304688L847.404297,568.541016L848.117188,566.808594L848.125,566.789063L848.871094,565.066406L848.878906,565.050781L849.65625,563.335938L849.664063,563.320313L850.472656,561.621094L850.480469,561.605469L851.316406,559.917969L851.324219,559.902344L852.203125,558.208984L853.09375,556.550781L853.101563,556.535156L854.027344,554.886719L854.035156,554.871094L854.988281,553.238281L854.996094,553.222656L855.980469,551.601563L855.992188,551.585938L857.019531,549.966797L858.058594,548.382813L858.066406,548.367188L859.136719,546.792969L859.148438,546.777344L860.267578,545.201172L861.390625,543.667969L861.398438,543.652344L862.572266,542.111328L863.753906,540.609375L863.765625,540.59375L864.980469,539.105469L864.992188,539.089844L866.25,537.603516L867.519531,536.15625L867.535156,536.144531L868.847656,534.697266L870.171875,533.289063L871.722656,531.46875L871.742188,531.449219L873.363281,529.644531L873.378906,529.625L875.035156,527.867188L875.050781,527.851563L876.742188,526.148438L876.761719,526.128906L878.484375,524.472656L878.503906,524.457031L880.261719,522.855469L880.277344,522.839844L882.070313,521.285156L882.089844,521.269531L883.910156,519.765625L883.929688,519.75L885.777344,518.296875L885.796875,518.28125L887.675781,516.878906L887.695313,516.863281L889.605469,515.515625L889.625,515.503906L891.558594,514.203125L891.578125,514.1875L893.535156,512.9375L893.558594,512.925781L895.546875,511.730469L895.566406,511.71875L897.574219,510.570313L897.597656,510.558594L899.628906,509.464844L899.648438,509.453125L901.699219,508.410156L901.722656,508.398438L903.796875,507.410156L903.816406,507.402344L905.910156,506.460938L905.933594,506.449219L908.042969,505.5625L908.0625,505.554688L910.191406,504.71875L910.214844,504.710938L912.363281,503.925781L912.386719,503.914063L914.546875,503.183594L914.570313,503.179688L916.746094,502.5L916.769531,502.492188L918.960938,501.867188L918.980469,501.859375L921.183594,501.285156L921.207031,501.28125L923.417969,500.761719L923.441406,500.753906L925.667969,500.285156L925.691406,500.28125L927.925781,499.863281L927.949219,499.859375L930.191406,499.496094L930.214844,499.492188L932.464844,499.183594L932.488281,499.183594L934.742188,498.925781L934.765625,498.921875L937.027344,498.71875L937.050781,498.71875L939.316406,498.566406L939.339844,498.5625L941.609375,498.46875L941.632813,498.46875L943.90625,498.421875L943.929688,498.421875L946.203125,498.433594L946.226563,498.433594L948.5,498.5L948.523438,498.5L950.796875,498.617188L950.820313,498.621094L953.089844,498.792969L953.113281,498.792969L955.382813,499.015625L955.410156,499.019531L957.675781,499.300781L957.699219,499.304688L959.957031,499.640625L959.976563,499.644531L962.230469,500.03125L962.257813,500.035156L964.507813,500.480469L964.527344,500.484375L966.765625,500.980469L966.792969,500.988281L969.023438,501.542969L969.042969,501.546875L971.265625,502.152344L971.289063,502.160156L973.496094,502.820313L973.523438,502.828125L975.722656,503.546875L975.742188,503.554688L977.929688,504.328125L977.953125,504.335938L980.121094,505.164063L980.140625,505.171875L982.300781,506.050781L982.328125,506.0625L984.464844,507.003906L984.484375,507.011719L986.609375,508.003906L986.632813,508.015625L988.738281,509.066406L988.761719,509.078125L990.847656,510.179688L990.871094,510.191406L992.9375,511.355469L992.957031,511.367188L995.003906,512.582031L995.023438,512.59375L997.046875,513.867188L997.070313,513.882813L999.070313,515.210938L999.089844,515.222656L1001.066406,516.609375L1001.085938,516.625L1003.035156,518.066406L1003.054688,518.082031L1004.972656,519.570313L1006.464844,520.703125L1006.484375,520.71875L1007.941406,521.882813L1007.960938,521.898438L1009.378906,523.089844L1009.398438,523.105469L1010.78125,524.328125L1010.800781,524.347656L1012.144531,525.601563L1012.160156,525.617188L1013.464844,526.894531L1013.484375,526.914063L1014.753906,528.222656L1014.769531,528.238281L1016,529.566406L1016.015625,529.585938L1017.210938,530.945313L1017.230469,530.964844L1018.382813,532.347656L1018.394531,532.363281L1019.511719,533.765625L1019.527344,533.789063L1020.605469,535.21875L1020.621094,535.238281L1021.660156,536.6875L1021.675781,536.707031L1022.675781,538.179688L1022.6875,538.199219L1023.652344,539.691406L1023.667969,539.714844L1024.589844,541.226563L1024.601563,541.246094L1025.488281,542.777344L1025.5,542.800781L1026.34375,544.351563L1026.355469,544.371094L1027.160156,545.9375L1027.167969,545.957031L1027.9375,547.539063L1027.949219,547.5625L1028.675781,549.160156L1028.6875,549.183594L1029.375,550.800781L1029.382813,550.820313L1030.03125,552.445313L1030.039063,552.46875L1030.648438,554.113281L1030.65625,554.136719L1031.222656,555.789063L1031.230469,555.808594L1031.761719,557.476563L1031.769531,557.5L1032.257813,559.175781L1032.265625,559.203125L1032.710938,560.890625L1032.714844,560.910156L1033.125,562.605469L1033.128906,562.628906L1033.496094,564.335938L1033.503906,564.359375L1033.828125,566.070313L1033.832031,566.09375L1034.117188,567.816406L1034.117188,567.839844L1034.363281,569.566406L1034.367188,569.589844L1034.570313,571.320313L1034.574219,571.34375L1034.738281,573.082031L1034.738281,573.105469L1034.859375,574.84375L1034.863281,574.871094L1034.941406,576.617188L1034.941406,576.636719L1034.980469,578.382813L1034.980469,578.410156L1034.976563,580.15625L1034.976563,580.175781L1034.933594,581.925781L1034.933594,581.953125L1034.84375,583.703125L1034.839844,583.726563L1034.710938,585.472656L1034.710938,585.496094L1034.542969,587.242188L1034.539063,587.265625L1034.324219,589.007813L1034.320313,589.03125L1034.066406,590.773438L1034.0625,590.800781L1033.761719,592.535156L1033.757813,592.554688L1033.417969,594.289063L1033.414063,594.3125L1033.03125,596.039063L1033.023438,596.066406L1032.597656,597.785156L1032.59375,597.808594L1032.125,599.519531L1032.117188,599.542969L1031.601563,601.25L1031.59375,601.273438L1031.039063,602.96875L1031.03125,602.992188L1030.433594,604.675781L1030.425781,604.699219L1029.78125,606.378906L1029.773438,606.398438L1029.089844,608.0625L1029.078125,608.089844L1028.347656,609.742188L1028.339844,609.761719L1027.566406,611.402344L1027.554688,611.425781L1026.738281,613.050781L1026.726563,613.074219L1025.863281,614.6875L1025.851563,614.707031L1024.945313,616.304688L1024.933594,616.328125L1023.984375,617.910156L1023.96875,617.933594L1022.972656,619.496094L1022.960938,619.511719L1021.921875,621.0625L1021.90625,621.085938L1020.824219,622.613281L1019.816406,624.066406L1019.804688,624.085938L1018.757813,625.515625L1018.742188,625.535156L1017.664063,626.9375L1017.648438,626.960938L1016.535156,628.328125L1016.519531,628.34375L1015.375,629.683594L1015.359375,629.703125L1014.1875,631.011719L1014.167969,631.03125L1012.960938,632.304688L1012.945313,632.320313L1011.710938,633.566406L1011.691406,633.585938L1010.425781,634.796875L1010.40625,634.8125L1009.113281,635.988281L1009.097656,636.003906L1007.777344,637.148438L1007.757813,637.167969L1006.410156,638.277344L1006.390625,638.289063L1005.019531,639.367188L1004.996094,639.386719L1003.59375,640.425781L1003.578125,640.4375L1002.15625,641.445313L1002.132813,641.460938L1000.683594,642.429688L1000.664063,642.441406L999.191406,643.375L999.167969,643.390625L997.671875,644.285156L997.652344,644.296875L996.132813,645.15625L996.109375,645.167969L994.570313,645.988281L994.550781,646L992.992188,646.785156L992.96875,646.796875L991.386719,647.542969L991.367188,647.550781L989.769531,648.257813L989.742188,648.269531L988.125,648.933594L988.105469,648.941406L986.46875,649.570313L986.441406,649.578125L984.785156,650.164063L984.765625,650.171875L983.09375,650.71875L983.066406,650.726563L981.378906,651.230469L981.355469,651.238281L979.65625,651.699219L979.632813,651.707031L977.914063,652.128906L977.890625,652.132813L976.160156,652.511719L976.132813,652.515625L974.386719,652.851563L974.339844,652.859375L974.273438,652.867188L972.933594,652.964844L972.910156,652.96875L971.570313,653.035156L971.542969,653.035156L970.210938,653.066406L970.191406,653.066406L968.867188,653.070313L968.84375,653.070313L967.519531,653.042969L967.496094,653.042969L966.183594,652.984375L966.15625,652.980469L964.847656,652.890625L964.828125,652.890625L963.527344,652.773438L963.503906,652.769531L962.207031,652.621094L962.183594,652.621094L960.898438,652.445313L960.875,652.441406L959.597656,652.234375L959.578125,652.230469L958.308594,651.996094L958.285156,651.992188L957.023438,651.730469L957,651.722656L955.75,651.429688L955.726563,651.425781L954.484375,651.105469L954.464844,651.097656L953.230469,650.75L953.207031,650.746094L951.988281,650.375L951.964844,650.367188L950.753906,649.964844L950.734375,649.957031L949.535156,649.53125L949.515625,649.523438L948.328125,649.070313L948.304688,649.0625L947.128906,648.582031L947.109375,648.574219L945.945313,648.066406L945.925781,648.058594L944.777344,647.53125L944.753906,647.519531L943.617188,646.960938L943.601563,646.953125L942.476563,646.375L942.453125,646.363281L941.34375,645.757813L941.324219,645.746094L940.230469,645.117188L940.210938,645.105469L939.132813,644.449219L939.117188,644.4375L938.050781,643.761719L938.03125,643.75L936.984375,643.050781L936.964844,643.039063L935.929688,642.316406L935.910156,642.300781L934.894531,641.554688L934.878906,641.542969L933.878906,640.773438L933.859375,640.757813L932.878906,639.964844L932.863281,639.953125L931.898438,639.140625L931.882813,639.128906L930.933594,638.296875L930.914063,638.277344L929.970703,637.404297L929.066406,636.535156L929.046875,636.515625L928.15625,635.617188L928.140625,635.601563L927.269531,634.683594L927.253906,634.667969L926.40625,633.730469L926.394531,633.714844L925.5625,632.761719L925.546875,632.742188L924.738281,631.765625L924.722656,631.75L923.933594,630.753906L923.921875,630.734375L923.15625,629.71875L923.144531,629.703125L922.398438,628.671875L922.382813,628.652344L921.664063,627.601563L921.652344,627.582031L920.953125,626.511719L920.941406,626.492188L920.265625,625.40625L920.253906,625.386719L919.601563,624.28125L919.589844,624.261719L918.960938,623.140625L918.949219,623.121094L918.34375,621.984375L917.746094,620.789063L917.191406,619.621094L917.179688,619.597656L916.652344,618.410156L916.644531,618.390625L916.140625,617.191406L916.132813,617.167969L915.65625,615.949219L915.648438,615.929688L915.199219,614.699219L915.1875,614.675781L914.765625,613.425781L914.761719,613.40625L914.367188,612.148438L914.359375,612.121094L913.996094,610.84375L913.988281,610.824219L913.648438,609.535156L913.644531,609.511719L913.335938,608.210938L913.332031,608.1875L913.050781,606.871094L913.039063,606.804688L912.882813,605.707031L912.878906,605.683594L912.75,604.589844L912.746094,604.566406L912.644531,603.476563L912.644531,603.449219L912.570313,602.359375L912.566406,602.335938L912.519531,601.25L912.519531,601.226563L912.5,600.144531L912.5,600.121094L912.503906,599.042969L912.503906,599.019531L912.535156,597.945313L912.535156,597.921875L912.589844,596.855469L912.59375,596.828125L912.675781,595.761719L912.675781,595.738281L912.785156,594.683594L912.789063,594.660156L912.921875,593.605469L912.925781,593.582031L913.082031,592.539063L913.085938,592.519531L913.265625,591.476563L913.269531,591.449219L913.476563,590.417969L913.480469,590.394531L913.710938,589.371094L913.71875,589.347656L913.972656,588.328125L913.976563,588.304688L914.253906,587.296875L914.261719,587.277344L914.558594,586.277344L914.566406,586.25L914.890625,585.257813L914.894531,585.242188L915.238281,584.257813L915.246094,584.234375L915.613281,583.261719L915.625,583.238281L916.015625,582.277344L916.023438,582.253906L916.4375,581.300781L916.445313,581.28125L916.878906,580.339844L916.890625,580.320313L917.34375,579.386719L917.355469,579.363281L917.832031,578.445313L917.839844,578.425781L918.335938,577.515625L918.351563,577.492188L918.871094,576.597656L918.878906,576.582031L919.417969,575.695313L919.429688,575.675781L919.984375,574.804688L920,574.785156L920.578125,573.929688L920.589844,573.910156L921.1875,573.066406L921.199219,573.046875L921.816406,572.214844L921.832031,572.199219L922.46875,571.382813L922.484375,571.363281L923.140625,570.5625L923.152344,570.546875L923.824219,569.761719L923.84375,569.742188L924.535156,568.972656L924.546875,568.957031L925.257813,568.199219L925.277344,568.179688L926.007813,567.441406L926.023438,567.425781L926.769531,566.703125L926.785156,566.6875L927.546875,565.984375L927.5625,565.96875L928.34375,565.277344L928.367188,565.261719L929.164063,564.59375L929.179688,564.578125L929.992188,563.925781L930.007813,563.914063L930.835938,563.277344L930.859375,563.261719L931.707031,562.648438L931.722656,562.636719L932.582031,562.039063L932.601563,562.023438L933.480469,561.445313L933.5,561.433594L934.394531,560.875L934.417969,560.863281L935.324219,560.328125L935.339844,560.316406L936.261719,559.796875L936.285156,559.785156L937.222656,559.289063L937.246094,559.277344L938.199219,558.804688L938.21875,558.792969L939.183594,558.339844L939.203125,558.332031L940.183594,557.898438L940.210938,557.886719L941.203125,557.480469L941.222656,557.472656L942.226563,557.085938L942.25,557.078125L943.269531,556.714844L943.292969,556.707031L944.328125,556.367188L944.351563,556.359375L945.394531,556.042969L945.417969,556.035156L946.476563,555.742188L946.5,555.738281L947.566406,555.472656L947.589844,555.464844L948.671875,555.222656L948.765625,555.207031L949.621094,555.097656L949.644531,555.09375L950.5,555.007813L950.523438,555.007813L951.378906,554.941406L951.402344,554.9375L952.25,554.890625L952.277344,554.890625L953.125,554.867188L953.148438,554.867188L953.992188,554.863281L954.015625,554.863281L954.855469,554.878906L954.878906,554.878906L955.71875,554.914063L955.746094,554.917969L956.578125,554.976563L956.597656,554.976563L957.425781,555.050781L957.453125,555.054688L958.277344,555.152344L958.296875,555.152344L959.117188,555.265625L959.144531,555.273438L959.957031,555.410156L959.976563,555.410156L960.785156,555.5625L960.808594,555.570313L961.613281,555.742188L961.640625,555.746094L962.4375,555.9375L962.460938,555.945313L963.25,556.15625L963.269531,556.160156L964.054688,556.386719L964.078125,556.394531L964.855469,556.640625L964.875,556.648438L965.644531,556.910156L965.671875,556.917969L966.433594,557.199219L966.449219,557.207031L967.207031,557.503906L967.234375,557.511719L967.980469,557.828125L968,557.839844L968.738281,558.171875L968.757813,558.179688L969.488281,558.527344L969.507813,558.535156L970.230469,558.898438L970.253906,558.910156L970.96875,559.292969L970.988281,559.304688L971.691406,559.703125L971.714844,559.714844L972.40625,560.128906L972.421875,560.140625L973.105469,560.570313L973.125,560.582031L973.800781,561.027344L973.824219,561.042969L974.501953,561.521484L975.148438,561.988281L975.171875,562.003906L975.830078,562.513672L976.457031,563.011719L976.480469,563.027344L977.097656,563.546875L977.117188,563.5625L977.722656,564.097656L977.738281,564.113281L978.349609,564.681641L978.925781,565.234375L978.945313,565.253906L979.515625,565.832031L979.53125,565.851563L980.085938,566.441406L980.101563,566.453125L980.644531,567.054688L980.664063,567.078125L981.191406,567.695313L981.203125,567.710938L981.71875,568.339844L981.734375,568.355469L982.234375,568.996094L982.246094,569.015625L982.734375,569.671875L982.75,569.691406L983.222656,570.355469L983.234375,570.375L983.691406,571.054688L983.707031,571.074219L984.148438,571.765625L984.160156,571.785156L984.585938,572.488281L984.597656,572.511719L985.003906,573.222656L985.015625,573.242188L985.410156,573.96875L985.421875,573.988281L985.800781,574.722656L985.8125,574.746094L986.171875,575.496094L986.179688,575.515625L986.523438,576.273438L986.53125,576.292969L986.871094,577.085938L987.179688,577.867188L987.1875,577.890625L987.476563,578.679688L987.484375,578.699219L987.757813,579.496094L987.765625,579.519531L988.019531,580.328125L988.261719,581.175781L988.265625,581.191406L988.484375,582.015625L988.492188,582.046875L988.6875,582.886719L988.691406,582.90625L988.871094,583.75L988.882813,583.816406L989.050781,585L989.058594,585.042969L989.175781,586.222656L989.179688,586.265625L989.242188,587.441406L989.242188,587.484375L989.253906,588.652344L989.253906,588.695313L989.21875,589.855469L989.214844,589.902344L989.125,591.058594L989.121094,591.097656L988.984375,592.242188L988.980469,592.285156L988.796875,593.417969L988.789063,593.464844L988.554688,594.582031L988.542969,594.617188L988.253906,595.773438L987.925781,596.863281L987.914063,596.898438L987.546875,597.972656L987.53125,598.015625L987.117188,599.070313L987.101563,599.109375L986.640625,600.144531L986.625,600.179688L986.125,601.195313L986.105469,601.234375L985.5625,602.230469L985.539063,602.265625L984.957031,603.234375L984.9375,603.269531L984.3125,604.214844L984.285156,604.25L983.621094,605.167969L983.597656,605.203125L982.894531,606.09375L982.867188,606.125L982.128906,606.984375L982.101563,607.015625L981.324219,607.847656L981.292969,607.878906L980.476563,608.679688L980.449219,608.707031L979.601563,609.472656L979.566406,609.5L978.683594,610.230469L978.648438,610.257813L977.726563,610.953125L977.695313,610.976563L976.746094,611.636719L976.710938,611.664063L975.726563,612.285156L975.6875,612.304688L974.671875,612.882813L974.632813,612.90625L973.585938,613.445313L973.546875,613.464844L972.46875,613.960938L972.425781,613.976563L971.320313,614.425781L971.277344,614.445313L971.222656,614.460938L970.136719,614.773438L970.089844,614.785156L969.003906,615.042969L968.953125,615.054688L967.863281,615.253906L967.820313,615.261719L966.730469,615.410156L966.679688,615.414063L965.59375,615.507813L965.542969,615.511719L964.457031,615.550781L964.40625,615.550781L963.328125,615.535156L963.285156,615.535156L962.214844,615.472656L962.167969,615.46875L961.101563,615.355469L961.050781,615.347656L959.996094,615.179688L959.953125,615.171875L958.914063,614.960938L958.867188,614.949219L957.835938,614.6875L957.789063,614.675781L956.777344,614.367188L956.734375,614.351563L955.734375,613.996094L955.6875,613.980469L954.710938,613.578125L954.671875,613.558594L953.710938,613.113281L953.671875,613.09375L952.734375,612.605469L952.6875,612.582031L951.777344,612.046875L951.742188,612.023438L950.851563,611.449219L950.8125,611.421875L949.949219,610.804688L949.910156,610.777344L949.078125,610.121094L949.042969,610.089844L948.238281,609.390625L948.203125,609.359375L947.433594,608.625L947.402344,608.59375L946.664063,607.820313L946.632813,607.785156L945.925781,606.972656L945.890625,606.929688L945.226563,606.078125L945.199219,606.046875L944.570313,605.164063L944.546875,605.121094L943.957031,604.203125L943.929688,604.160156L943.382813,603.207031L943.359375,603.164063L942.859375,602.175781L942.839844,602.132813L942.378906,601.113281L942.359375,601.066406L941.947266,600.023438L941.640625,599.253906L941.625,599.210938L941.355469,598.433594L941.339844,598.382813L941.113281,597.601563L941.101563,597.554688L940.914063,596.769531L940.902344,596.722656L940.753906,595.933594L940.746094,595.882813L940.640625,595.09375L940.636719,595.050781L940.566406,594.261719L940.5625,594.207031L940.535156,593.421875L940.535156,593.375L940.542969,592.589844L940.542969,592.542969L940.589844,591.761719L940.59375,591.714844L940.675781,590.941406L940.683594,590.890625L940.804688,590.121094L940.964844,589.320313L940.976563,589.269531L941.167969,588.519531L941.179688,588.472656L941.40625,587.730469L941.421875,587.683594L941.683594,586.957031L941.699219,586.914063L941.996094,586.195313L942.015625,586.152344L942.34375,585.453125L942.363281,585.414063L942.722656,584.726563L942.75,584.683594L943.144531,584.015625L943.167969,583.976563L943.59375,583.324219L943.621094,583.285156L944.078125,582.65625L944.105469,582.617188L944.597656,582.003906L944.628906,581.964844L945.148438,581.378906L945.179688,581.347656L945.726563,580.78125L945.765625,580.742188L946.347656,580.203125L946.382813,580.171875L946.988281,579.660156L947.023438,579.632813L947.660156,579.144531L947.703125,579.113281L948.367188,578.65625L948.410156,578.628906L949.105469,578.203125L949.144531,578.179688L949.863281,577.78125L949.910156,577.757813L950.609375,577.417969L950.984375,577.1875L951.019531,577.167969L951.4375,576.933594L951.480469,576.910156L951.957031,576.671875L952.390625,576.484375L952.433594,576.46875L952.875,576.300781L952.914063,576.285156L953.359375,576.136719L953.40625,576.125L953.851563,576L953.902344,575.984375L954.355469,575.882813L954.398438,575.875L954.855469,575.792969L954.894531,575.785156L955.351563,575.722656L955.402344,575.71875L955.859375,575.679688L955.902344,575.675781L956.359375,575.65625L956.410156,575.65625L956.871094,575.660156L956.90625,575.660156L957.363281,575.679688L957.414063,575.683594L957.867188,575.726563L957.917969,575.734375L958.371094,575.800781L958.40625,575.804688L958.855469,575.886719L958.90625,575.898438L959.351563,576.003906L959.386719,576.011719L959.828125,576.132813L959.878906,576.148438L960.3125,576.292969L960.351563,576.308594L960.78125,576.472656L960.824219,576.488281L961.246094,576.671875L961.289063,576.691406L961.703125,576.894531L961.742188,576.917969L962.148438,577.140625L962.191406,577.164063L962.585938,577.40625L962.621094,577.429688L963.007813,577.691406L963.042969,577.714844L963.417969,577.992188L963.460938,578.027344L963.824219,578.328125L963.855469,578.355469L964.207031,578.671875L964.242188,578.703125L964.582031,579.039063L964.617188,579.074219L964.941406,579.429688L964.976563,579.46875L965.279297,579.849609L965.621094,580.25L965.65625,580.292969L965.972656,580.71875L965.996094,580.75L966.292969,581.183594L966.324219,581.230469L966.59375,581.675781L966.617188,581.71875L966.863281,582.171875L966.886719,582.214844L967.109375,582.675781L967.128906,582.722656L967.328125,583.195313L967.347656,583.242188L967.519531,583.71875L967.53125,583.757813L967.683594,584.242188L967.699219,584.289063L967.828125,584.777344L967.839844,584.828125L967.941406,585.320313L967.949219,585.359375L968.03125,585.855469L968.035156,585.910156L968.089844,586.40625L968.09375,586.445313L968.128906,586.945313L968.132813,587L968.140625,587.5L968.140625,587.539063L968.128906,588.039063L968.125,588.09375L968.085938,588.59375L968.082031,588.632813L968.023438,589.128906L968.015625,589.183594L967.929688,589.679688L967.921875,589.71875L967.816406,590.207031L967.804688,590.261719L967.671875,590.746094L967.660156,590.78125L967.507813,591.261719L967.492188,591.308594L967.316406,591.78125L967.296875,591.828125L967.097656,592.292969L967.074219,592.34375L966.847656,592.800781L966.832031,592.828125L966.589844,593.277344L966.5625,593.328125L966.292969,593.765625L966.265625,593.808594L965.972656,594.234375L965.945313,594.269531L965.632813,594.683594L965.601563,594.726563L965.261719,595.128906L965.230469,595.164063L964.871094,595.550781L964.835938,595.585938L964.453125,595.960938L964.382813,596.023438L964.34375,596.054688L964.304688,596.082031L964.261719,596.105469L964.207031,596.136719L963.921875,596.28125L963.597656,596.46875L963.3125,596.648438L963.105469,596.796875L962.816406,597.027344L962.601563,597.210938L962.371094,597.429688L962.117188,597.699219L961.945313,597.902344L961.71875,598.195313L961.570313,598.40625L961.769531,598.328125z"/>
</svg>
