<?xml version="1.0" encoding="UTF-8"?>
<svg xmlns="http://www.w3.org/2000/svg" width="210.837mm" height="270.707mm" viewBox="-1179.123047 -825.357910 210.836792 270.706848">
    <path transform="matrix(-0.26455,0,0,-0.26455,-952.001343,-544.140991)" style="stroke:#000000;stroke-width:0.05mm;fill:none" d="M487.670837,1055.75C474.802673,1038.290405,466.349854,1021.480042,463.031952,1006.75C461.824097,1001.387512,460.66391,997,460.453766,997C460.243652,997,457.611877,1002.174988,454.605377,1008.5C451.598877,1014.825012,448.743286,1020,448.259613,1020C446.990448,1020,435.655853,1000.815796,431.71637,992C429.873047,987.875,425.930206,978.504761,422.954529,971.177185C416.985413,956.478394,417.368286,956.529907,414.19989,970C413.10025,974.674988,408.179688,988.216003,403.265289,1000.091064C394.844299,1020.439392,393.619446,1022.728455,381.984558,1039.860596C375.19455,1049.858765,369.318115,1057.692749,368.925812,1057.269531C366.919128,1055.104492,359.347107,1017.379272,358.133453,1003.5L357.346466,994.5L355.576111,998.5C354.602417,1000.700012,350.958405,1008.349976,347.478302,1015.5C340.733154,1029.358154,332.525146,1040.187866,322.240845,1048.79834L317.108521,1053.095337L316.597687,1049.797729C316.316711,1047.984009,315.643005,1038.102539,315.100555,1027.838989C314.203979,1010.875916,314.334778,1007.05426,316.537964,985.836365C317.871002,972.998474,320.030579,956.195923,321.336975,948.497375C322.643402,940.798828,323.653687,934.414185,323.582062,934.309265C323.510437,934.204346,321.357178,936.736206,318.797028,939.935547C316.236908,943.134949,306.091492,952.926025,296.251709,961.693542C279.485199,976.632813,277.188904,978.305542,259.702911,988.3172C249.440872,994.192749,240.809616,999,240.522324,999C239.339096,999,240.267365,994.189209,245.561844,972.882629C248.620865,960.572144,252.442322,944.672546,254.053955,937.550171C255.665588,930.427734,259.462769,916.857056,262.492096,907.393066C265.521454,897.929077,268,889.878174,268,889.502197C268,889.12616,264.287506,890.814697,259.75,893.254517C237.036407,905.467407,201.715744,915.970093,183.199234,916.016968C173.726852,916.040955,148.996765,912.804504,149.015457,911.543335C149.041885,909.760132,164.371078,889.876038,172.097717,881.602417C176.141479,877.2724,182.876129,871.328918,187.063614,868.394714C192.270203,864.746338,195.857697,861.281738,198.41124,857.435852C200.464966,854.342712,202.000092,851.674133,201.822647,851.505615C201.645187,851.337158,196.550003,852.069397,190.5,853.132874C180.880478,854.823853,176.770432,854.982483,157.75,854.396912C141.584335,853.899292,136,853.411987,136,852.499023C136,850.564087,165.134857,822.633179,174.042282,816.028687C178.462891,812.751038,187.349289,807.094543,193.789871,803.458801C200.230438,799.823059,205.927505,796.432434,206.449997,795.924133C207.035675,795.354431,205.826157,795,203.296097,795C190.968277,795,152.225204,785.658569,139.5,779.61792C131.39534,775.770691,108.475182,759.110657,109.683952,757.945496C111.088203,756.591858,124.143822,750.316223,132.5,746.978088C147.3741,741.036255,155.849701,738.970581,169.391312,737.987C176.481537,737.472046,182.450668,736.88269,182.656052,736.677307C182.861435,736.471924,174.313843,732.609375,163.661392,728.093811C153.008942,723.578308,142.53981,718.709717,140.396652,717.274719C130.569489,710.694702,116,697.383179,116,694.984558C116,694.510437,118.137497,693.845398,120.75,693.506653C130.033096,692.30304,130.261139,692.19165,129.552444,689.206482C128.501984,684.781616,120.026047,673.080811,112,664.975891C107.875,660.810303,98.355644,653.02356,90.845871,647.671997C75.167915,636.499695,68.156029,630.550476,69.295479,629.387573C69.732994,628.94104,71.082993,629.209167,72.295479,629.983459C73.507965,630.75769,79.391205,634.031006,85.369339,637.257446C96.218758,643.112976,96.26915,643.128174,112.869339,645.549561C136.114609,648.940247,160.863708,656.063049,176,663.718628L187.5,669.535095L194,668.300415C197.574997,667.621338,207.431061,666.752686,215.902359,666.369995L231.304703,665.674316L226.902359,661.691467C201.213379,638.4505,191.813202,628.549561,180.407974,612.720032C173.980331,603.799011,168.221542,595.863953,167.610672,595.086548C166.665298,593.883423,167.690628,593.767212,174.5,594.305908C190.05098,595.536194,217.155457,600.69458,227.862915,604.46167C233.5625,606.466858,238.381165,607.952148,238.57103,607.762268C238.76091,607.572449,234.893433,599.433044,229.976654,589.674744C225.05986,579.916443,220.129501,568.910095,219.020309,565.216187C217.184814,559.103577,213.515747,528.15094,214.508926,527.157715C215.03891,526.627747,223.78479,530.117798,235.874954,535.68396C241.031189,538.057739,245.342422,540,245.45549,540C245.568558,540,245.071716,537.1875,244.351379,533.75C242.956757,527.094727,242.651169,523,243.549103,523C245.061401,523,275.775482,540.049072,284.5,545.731445C297.979736,554.510925,317.940308,569.593872,332.387939,581.917358C338.9263,587.494385,344.422638,591.910706,344.60199,591.731323C344.781372,591.551941,343.378296,586.251526,341.48407,579.952576C337.277863,565.965576,336.44931,560.183899,334.898773,534C333.710632,513.936035,333.742157,513.055176,336.380188,492.587769C337.86261,481.086029,338.721039,471.352081,338.28775,470.956787C336.926575,469.714813,309.264374,455.766754,290.5,446.86084C274.258972,439.152527,271.455658,438.149109,261.813019,436.59256C255.935181,435.643738,246.710175,433.750061,241.313019,432.384369C225.339737,428.342468,178.991104,414.036102,174.581177,411.786316C169.341446,409.11322,150.184586,397.739624,117.39566,377.834778L91.291321,361.987885L81.797112,349.243958C76.575302,342.234772,71.455116,335.181793,70.418922,333.570648C69.166298,331.622955,67.312378,323.412567,64.886787,309.070648C62.880299,297.206787,61.388775,287.333649,61.572285,287.130371C61.979633,286.679077,83.778931,303.60553,98.057549,315.459991C103.800896,320.228241,110.074997,324.938721,112,325.927704C115.324295,327.63559,183.09874,348.667816,199,352.926147C208.097595,355.362457,239.247864,362.261658,251.109207,364.467346C255.844269,365.347839,269.609558,367.069519,281.6987,368.293304C302.522186,370.401245,304.79953,370.449066,324.96936,369.201813L346.259705,367.885284L361.379852,361.871124C378.437622,355.086243,383.104706,352.641571,398,342.689087C412.635773,332.909973,418.527222,328.292664,433.887024,314.563171L447.274048,302.597076L446.542297,258.548553C446.139862,234.321838,445.391357,209.550003,444.878967,203.5C443.482635,187.012939,442.116425,127.809616,442.054688,81.114075L442,39.728153L446.25,40.309971C448.587494,40.629971,454.66507,41.205898,459.755676,41.589802C464.846313,41.973709,469.666473,42.785557,470.467163,43.393909C471.69931,44.330048,472.159393,57.441757,473.461487,128.728317C474.307678,175.053879,475,214.4487,475,216.272339C475,219.274353,476.253571,220.688889,488.25,231.223648C503.026917,244.200119,509.446228,249.082047,525.5,259.55246C538.949524,268.324341,544.788513,271.273315,561.5,277.734314L574.5,282.760376L595,283.935455C612.437134,284.934998,617.965271,284.875458,632,283.537018C658.845459,280.976837,669.545288,279.349091,691.597839,274.47052C718.557068,268.5065,726.276489,266.38147,771.664978,252.429489L809.378723,240.836624L815.439331,235.570526C825.075806,227.197372,856.974121,202,857.9375,202C858.418884,202,858.648254,202.787506,858.447144,203.75C858.246033,204.712494,856.691406,214.274994,854.992371,225C853.293335,235.725006,851.523743,245.399994,851.059937,246.5C850.59613,247.600006,845.27002,254.934586,839.224121,262.799072L828.231567,277.098145L786.865784,302.141541L745.5,327.184937L723,334.138123C690.918274,344.052368,673.295898,348.744629,659.18457,351.130066C647.120361,353.169464,646.325867,353.471588,620.240051,365.939484C605.594055,372.939667,593.450073,379.149719,593.253479,379.739594C593.056824,380.329498,596.246277,382.105652,600.341125,383.686646C607.184875,386.328979,608.955444,387.689636,622.260803,400.531921C636.592529,414.364899,636.795288,414.622345,642.816345,426.633698L648.897461,438.764679L649.591431,455.19693L650.2854,471.629211L639.8927,480.001373C634.176697,484.606079,623.200012,492.496796,615.5,497.536255L601.5,506.698944L589,507.999573C582.125,508.714935,575.511719,509.662323,574.303772,510.104919C571.677002,511.067352,571.51178,511.984833,570.090393,533.5C569.509094,542.299988,568.543091,551.229675,567.943787,553.34375C567.344543,555.457825,567.070984,557.404358,567.335999,557.669312C567.600952,557.934326,573.245239,552.978394,579.878784,546.656189C591.987854,535.11554,601.361389,528.794312,614.685364,523.183533C622.085876,520.0672,623.322205,520.236755,622.463745,524.25C620.126831,535.175232,609.738098,563.812561,602.305908,579.816528C597.627502,589.890625,593.965759,598.299072,594.16864,598.501953C594.371521,598.704834,601.279053,597.557983,609.518738,595.953369C617.758423,594.348816,625.793762,592.802856,627.375,592.517944C630.13855,592.020081,630.225525,592.122314,629.618835,595.155945C628.873901,598.880371,616.08667,625.665161,612.951477,630.068115C611.758179,631.743958,611.032715,633.366089,611.339417,633.672729C611.646057,633.979431,616.307678,632.886292,621.698486,631.243591C627.089294,629.600891,636.744019,627.040161,643.153381,625.553101C653.131836,623.237976,655.664673,622.22522,660.775208,618.50647C668.868469,612.617493,673.637634,610.31427,696.161621,601.416931C706.797729,597.215454,725.174988,589.274902,737,583.771118C773.440857,566.810425,806.576416,552.683167,808.422974,553.32019C809.01532,553.524536,804.661499,555.980225,798.747864,558.777344C785.509399,565.038879,772.418701,574.742065,760.487427,587.137085C744.50415,603.741577,732.11731,620.339966,722.53009,638C719.39502,643.775024,716.305664,648.995667,715.664978,649.601501C715.024231,650.207275,708.316711,652.906128,700.759338,655.598877C684.746155,661.304565,684.903564,661.55188,705.231689,662.625061C712.254272,662.995789,718,663.648438,718,664.075378C718,665.156189,696.089172,685.561768,687,692.94574C682.875,696.296814,676.18512,701.842407,672.133606,705.269287C668.082092,708.696167,662.150146,713.505005,658.951599,715.955566C655.753052,718.406067,653.315247,720.701111,653.534363,721.055603C653.753418,721.410034,658.110291,721.996399,663.216309,722.358643C675.948242,723.261841,705.841187,729.435486,713.888,732.823608C720.0495,735.417908,744.334045,750.113464,745.453857,751.925354C746.198853,753.130798,725.005493,764.340637,711.240295,770.021912C700.251282,774.557434,698.026978,775.106567,684.869507,776.532837C669.164307,778.235168,664.824402,778.998413,666.774719,779.714905C668.416687,780.318054,693,806.937378,693,808.112183C693,808.600464,691.424988,809,689.5,809C687.575012,809,686,809.385742,686,809.857178C686,810.328613,689.262512,813.400818,693.25,816.684265C704.622192,826.048523,711.713806,834.488708,719.562195,848L726.82312,860.5L723.66156,861.365845C721.922668,861.842102,711.5,861.990417,700.5,861.695435C678.631714,861.10907,674.913025,860.423401,656.543701,853.59021C645.233459,849.382935,645.231995,848.920471,656.5672,861C659.921875,864.575012,664.686401,870.252991,667.154968,873.617737C673.302124,881.996521,689.444092,908.889221,688.745483,909.58783C688.02887,910.304443,674.157898,907.743164,658.142395,903.93689C651.345764,902.321594,645.325073,901,644.763123,901C644.201111,901,647.829773,904.848694,652.826782,909.552612C657.82373,914.256592,663.752441,920.894043,666.001648,924.302612C671.325378,932.370483,679.531433,948.80188,678.668091,949.665222C677.227112,951.106201,641.090027,940.651245,623.721741,933.768433C613.943665,929.893555,605.713501,926.953186,605.432373,927.234253C605.151306,927.515381,606.067322,930.789978,607.468018,934.51123L610.014648,941.2771L604.757324,940.633667C601.865784,940.279785,595.900024,939.086914,591.5,937.98291C583.747559,936.03772,554.587036,925.895142,545.293274,921.911377C542.776306,920.832458,540.530396,920.136292,540.302429,920.364258C540.074463,920.592224,541.915222,924.766052,544.393066,929.639404C547.487854,935.726257,550.949402,945.583435,555.450684,961.127808L562.003174,983.755554L563.628174,1005.917908C564.521851,1018.107178,564.979309,1028.354004,564.644653,1028.688721C562.795837,1030.537476,526.884949,999.812195,519.356323,989.939941C517.302795,987.247192,515.466736,985.19989,515.276245,985.390442C515.085754,985.580933,514.269104,993.251465,513.461548,1002.436035C512.653931,1011.620605,511.295074,1022.204468,510.441864,1025.955688C509.056122,1032.048462,494.944061,1063,493.55188,1063C493.256226,1063,490.609741,1059.737549,487.670837,1055.75z"/>
    <path transform="matrix(-0.26455,0,0,-0.26455,-952.001343,-544.140991)" style="stroke:#000000;stroke-width:0.05mm;fill:none" d="M378.987946,910.022522C379.851379,908.40918,379.765808,908.152649,378.523132,908.629517C377.685425,908.950989,377,909.84082,377,910.606995C377,912.560303,377.747375,912.340576,378.987946,910.022522z"/>
    <path transform="matrix(-0.26455,0,0,-0.26455,-952.001343,-544.140991)" style="stroke:#000000;stroke-width:0.05mm;fill:none" d="M563.841003,848.117004C562.952332,846.694031,562.366577,846.510803,561.443176,847.367004C560.124146,848.590088,561.331543,849.955139,563.758484,849.98468C564.740662,849.996643,564.758789,849.58667,563.841003,848.117004z"/>
    <path transform="matrix(-0.26455,0,0,-0.26455,-952.001343,-544.140991)" style="stroke:#000000;stroke-width:0.05mm;fill:none" d="M279,716.5C279,715.601685,278.097473,715.012756,276.75,715.031799C274.556274,715.062805,274.548553,715.100342,276.441132,716.531799C278.851685,718.355042,279,718.35321,279,716.5z"/>
    <path transform="matrix(-0.26455,0,0,-0.26455,-952.001343,-544.140991)" style="stroke:#000000;stroke-width:0.05mm;fill:none" d="M487.645905,530.187439C485.526184,530.015503,483.672028,530.015503,483.525604,530.187439C483.379211,530.359314,483.027527,534.750183,482.744141,539.944885L482.228882,549.389832L486.864441,539.944885L491.5,530.5L487.645905,530.187439z"/>
    <path transform="matrix(-0.26455,0,0,-0.26455,-952.001343,-544.140991)" style="stroke:#000000;stroke-width:0.05mm;fill:none" d="M429,517.035156C429,515.954529,428.100006,514.588684,427,514C424.707275,512.772949,424.348267,513.913757,426.035187,517.065735C427.373688,519.566772,429,519.549988,429,517.035156z"/>
    <path transform="matrix(-0.26455,0,0,-0.26455,-952.001343,-544.140991)" style="stroke:#000000;stroke-width:0.05mm;fill:none" d="M374.957214,497.065247C376.375763,488.514862,376.68866,484.425629,375.958923,483.974609C375.375214,483.613861,370.342896,482.571045,364.77594,481.657257C357.57074,480.474518,353.119263,479.129486,349.327118,476.989349C346.397217,475.335785,344,474.225311,344,474.521576C344,474.81781,346.363586,477.859161,349.252411,481.280121C352.141235,484.70105,358.539215,492.831024,363.470154,499.346741C368.401093,505.862457,372.538727,510.812469,372.664856,510.346741C372.791016,509.881042,373.822571,503.904358,374.957214,497.065247z"/>
    <path transform="matrix(-0.26455,0,0,-0.26455,-952.001343,-544.140991)" style="stroke:#000000;stroke-width:0.05mm;fill:none" d="M438.418457,464.882904L450.829041,458.684631L451.551025,448.092316C452.488495,434.33844,451.686096,421.5354,448.546753,400.157135C446.243805,384.474487,446,379.834961,446,351.691315L446,320.568329L440.75,325.630432C434.412415,331.741241,415.604156,346.431854,408,351.210602C404.975006,353.111633,397.238953,357.458038,390.808777,360.869293C384.378632,364.280548,377.952881,368.455719,376.529358,370.147491C373.675018,373.539673,362.674438,391.762146,358.458588,400.081757C356.101624,404.733002,355.768921,406.573517,355.738831,415.12851C355.708801,423.662964,356.030212,425.536774,358.321838,430.187897C360.542786,434.695557,383.892517,464.015198,385.843353,464.745972C386.204498,464.881256,388.020935,462.05072,389.879883,458.455933C391.738831,454.861115,393.763824,452.081421,394.379883,452.278809C395.701782,452.702301,404.413208,464.91095,409.624725,473.643677L413.291168,479.787354L419.649536,475.434265C423.146606,473.040039,431.592651,468.291931,438.418457,464.882904z"/>
    <path transform="matrix(-0.26455,0,0,-0.26455,-952.001343,-544.140991)" style="stroke:#000000;stroke-width:0.05mm;fill:none" d="M504.794586,431.419922C522.629822,420.093781,546.562988,403.716461,551.5,399.459656L554.5,396.872955L549,397.484436C545.974976,397.82077,541.878662,398.346283,539.897034,398.652252C535.54834,399.32373,535.396484,399.035217,534.488586,388.375916L533.817749,380.5L545.022278,367C557.390991,352.097382,561.443787,346.5625,563.0896,342.325653C563.693298,340.771545,564.146729,334.817322,564.097229,329.094025C563.995911,317.382935,565.179565,320.327271,550.754944,295.904694L542.725159,282.309418L534.11261,278.051422C515.201843,268.702087,499.761505,258.30722,481.697601,242.76416C478.506256,240.018188,475.746613,237.935394,475.565033,238.135742C474.980255,238.780914,476.94046,343.804535,477.932892,365C478.831665,384.195313,483.544189,438.859985,484.558289,441.85376C485.202667,443.756012,486.0867,443.300201,504.794586,431.419922z"/>
</svg>
