<?xml version="1.0" encoding="UTF-8"?>
<svg xmlns="http://www.w3.org/2000/svg" width="135.065mm" height="77.357mm" viewBox="-1366.176758 -636.599121 135.064697 77.357178">
    <path transform="matrix(-0.26455,0,0,-0.26455,-1230.77832,-559.215881)" style="stroke:#000000;stroke-width:0.05mm;fill:none" d="M409.112976,291.509674C390.593536,287.334412,381.255798,282.239349,377.012756,273.994385C374.294189,268.7117,373.218933,263.818207,371.52066,249C368.978699,226.819916,363.063416,206.479996,356.320984,196.735214C348.21167,185.014938,330.82312,176.884521,307.619843,173.963913C293.285431,172.159622,257.25592,173.298599,224.5,176.591492C187.942215,180.266586,151.669724,180.537903,139.726349,177.225616C128.281128,174.051483,116.658005,167.600906,94.680153,152.225998C74.135857,137.853958,56.136826,127.945114,43.5,124.050255C34.398479,121.245026,19.493038,119.013321,9.809017,119.005898C-1.289354,118.997391,-1.616173,116.778023,9,113.512024C16.364798,111.246284,39.707146,110.371407,51.36451,111.924194C56.23999,112.573616,63.889992,114.254417,68.36451,115.659302C77.820557,118.628258,96.595871,127.945282,107.603691,135.131256C113.084763,138.709335,115.10672,139.617126,114.700539,138.317459C114.38813,137.317856,113.403114,134.509689,112.511612,132.077087C111.62011,129.644485,110.219955,123.119484,109.400154,117.577087C106.892662,100.624672,105.16449,93.039055,102.468002,87.149147C99.113106,79.821091,96.628578,77.28199,92.057159,76.509659C90.008545,76.163544,86.907616,75.013893,85.166206,73.95488C82.296913,72.209961,82,71.56514,82,67.078651C82,64.063499,83.139732,59.072868,84.915131,54.31395C86.518448,50.016277,89.904564,39.952488,92.439835,31.94997C98.849815,11.716985,103.754707,4.994376,114.899223,1.167306C119.225357,-0.318305,129.454071,-0.243796,134,1.306442C138.552521,2.858928,138.91864,5.541499,135.448227,11.917789C132.643021,17.071867,130.096115,18.7097,124.102112,19.214077C121.065186,19.469627,120.374687,20.131254,117.602112,25.442322C114.701279,30.999075,114.5,32.072639,114.5,41.988018C114.5,58.269333,115.830475,59.517139,134.844788,61.068661C154.897873,62.704945,165.267456,66.582054,179.193161,77.650169C195.404434,90.534866,203.85025,92.570084,228.777084,89.598595C244.945587,87.671173,259.790863,83.981888,283.5,75.999077C293.399994,72.665771,307.575012,68.407227,315,66.535645C329.944702,62.768604,359.670197,57,364.136963,57C366.299622,57,367,56.527439,367,55.068218C367,52.610176,372.130707,38.648979,375.418182,32.161472C376.800262,29.434076,378.918396,23.265818,380.125183,18.454229C383.796387,3.816687,386.987701,1.692827,407,0.568755C419.12851,-0.112493,423.368286,1.151191,423.800385,5.576188C424.04953,8.127459,423.328125,9.364589,419.572723,12.826187C416.894653,15.294748,414.069244,17,412.657196,17C409.154022,17,405.215546,20.562935,404.040009,24.795486C402.590973,30.012871,402.779053,44.428291,404.385193,51.253735C406.279724,59.304585,409.424652,63.534077,420.796936,73.32518C437.205566,87.45237,443.127502,95.322594,447.138641,108.333138C450.402008,118.918098,449.462708,132.860123,444.095734,153.5C438.46875,175.139862,437.69989,181.184845,439.033264,193.302383C440.548279,207.070404,443.182983,215.07547,447.425446,218.800415C451.805084,222.645752,454.305298,223.399582,473,226.511185C498.076172,230.684952,498.890076,231.080063,504.604675,241.853821C506.543579,245.509216,509.092865,250.142868,510.269745,252.150803C512.164917,255.384247,512.243225,256.002991,510.954773,257.563324C508.384399,260.675995,501.662231,262.889191,488.425385,264.980865C465.680634,268.574951,454.527557,273.117828,450.631348,280.375153C448.60318,284.152985,444.745789,286.194916,432.62561,289.906555C423.274628,292.770203,416.694092,293.218872,409.112976,291.509674z"/>
</svg>
