<?xml version="1.0" encoding="UTF-8"?>
<svg xmlns="http://www.w3.org/2000/svg" width="127.344mm" height="214.219mm" viewBox="-1147.396484 -600.661133 127.343872 214.219055">
    <path transform="matrix(-0.26455,0,0,-0.26455,-988.451233,-374.532959)" style="stroke:#000000;stroke-width:0.05mm;fill:none" d="M259.5,853.953979C256.75,853.525635,252.374542,853.135803,249.776749,853.087585C244.870422,852.996582,236.444763,849.601379,235.588623,847.370361C234.439148,844.374878,218.406357,819.902771,213.398605,813.5C210.387436,809.650024,206.304688,803.252136,204.325851,799.282471C201.350433,793.31366,200.824402,791.345825,201.285446,787.908508C201.873322,783.525574,201.599701,783.090515,194.629105,777.325684C191.270447,774.547974,191.015564,769.19928,194.108688,766.404968C196.013901,764.683838,196.175934,763.679749,195.787811,756C195.321243,746.767944,193.302307,741.467407,188.569901,737.049927C186.104782,734.74884,185.672318,734.672852,181.458237,735.799927C178.990417,736.459961,176.14389,737,175.132614,737C172.466827,737,156.0047,719.459778,152.607758,713C151.017029,709.974976,148.934967,706.599976,147.980942,705.5C147.026917,704.400024,145.715302,701.840637,145.066238,699.8125C144.417191,697.784363,143.083786,695.084351,142.103119,693.8125C141.122452,692.540588,139.828491,690.057617,139.227631,688.294678C138.626785,686.531738,136.317642,682.412903,134.096207,679.141663C131.874771,675.870483,127.523155,668.247925,124.425941,662.202759C117.972473,649.606689,117.904854,647.89801,123.566269,640.48114C125.430992,638.038208,127.649399,634.568054,128.496063,632.769714C129.342728,630.971375,130.686859,628.375,131.483002,627C132.27916,625.625,133.201599,622.343506,133.532883,619.707825C133.944702,616.431213,135.051407,613.87207,137.032135,611.61615C138.625458,609.801514,140.392792,607.097107,140.959549,605.606384C143.916992,597.827759,145.020233,528.398315,142.740936,493.5C140.800171,463.784821,141.218063,450.344086,144.419907,439.5C147.999954,427.374969,151.4935,420.412262,155.05188,418.310272C156.659424,417.360687,160.251251,413.742828,163.033722,410.270599C167.527466,404.662872,169.20752,403.429077,178.069412,399.228729L188.046066,394.5L190.158844,387.31308C192.445541,379.534546,196.97168,373,200.0728,373C204.266434,373,205.999512,369.568207,206.006607,361.25C206.010239,356.987488,205.493393,350.084442,204.858063,345.909912C204.222733,341.735352,204.008408,337.102631,204.38179,335.61496C204.781982,334.020477,210.312012,327.670624,217.852615,320.147034C230.508957,307.519318,230.684021,307.282196,234.366119,297.779236C238.836945,286.240662,244.236145,277.654266,249.793884,273.244293C252.376343,271.19516,255.298492,267.303802,257.678711,262.744293C262.366974,253.76355,268.573486,247.566986,278.693115,241.763565C292.310944,233.953995,299.567413,231.915298,321.829926,229.644348C332.4133,228.564758,335.535217,227.894699,336.981659,226.392303C337.983643,225.351532,344.537842,216.625,351.546539,207C358.555237,197.375,366.181396,187.25,368.493561,184.5C383.270721,166.924698,399,144.719543,399,141.433838C399,139.877106,398.05896,138.891556,395.75,138.030136C393.962494,137.363251,391.487488,136.418304,390.25,135.930252C386.966705,134.635361,387.45575,131.499481,391.312714,129.115738C393.134735,127.989685,395.242279,125.91584,395.996155,124.507195C397.785645,121.163498,400.482635,120.499214,412.25,120.503784C417.612488,120.505867,422,120.168365,422,119.753784C422,119.339203,423.690826,119,425.757355,119C428.839172,119,430.625061,119.943916,435.690369,124.25C443.352142,130.763351,450.109222,135,452.835724,135C453.977661,135,457.162109,136.326721,459.912292,137.948273C462.662445,139.569824,467.10022,141.546219,469.774017,142.34024C472.447784,143.134277,476.645569,144.699661,479.102417,145.818878C485.631683,148.793304,488.496765,149.310989,492.196899,148.184891C494.013611,147.631989,496.724518,146.90889,498.22113,146.578003C499.717773,146.247116,501.406006,145.109909,501.972778,144.050888C502.823761,142.46077,502.28418,141.294556,498.874725,137.355255C491.464539,128.793457,480.535614,122,474.172119,122C471.940338,122,469.719238,121.366623,469.027313,120.532906C468.357635,119.725998,464.590027,117.521637,460.654877,115.634315C452.083466,111.523445,445.408386,105.042587,444.552002,100C444.225098,98.074997,444.322021,95.952377,444.767395,95.283066C446.527527,92.637917,462.830933,86.170311,472.93158,84.110268C479.937103,82.68148,485.308868,80.888824,489.412323,78.610344C492.760529,76.751213,497.068359,74.894325,498.985229,74.483932C501.073944,74.036743,503.79837,72.287697,505.784485,70.118881L509.098511,66.5L520.299255,65.865257C528.277588,65.413132,533.226196,64.578415,537.5,62.963905C543.907654,60.543301,549.648254,55.480049,550.180054,51.779984C550.488403,49.634708,556.9599,45.053429,559.734253,45.016449C560.413025,45.007404,562.327759,46.237499,563.989075,47.75C566.295471,49.849716,567.383911,52.155262,568.592102,57.5C571.724915,71.358696,579.373657,88.78434,585.49115,96C592.808228,104.630501,594.052856,108.880028,595.551697,130.349625C596.289307,140.91507,597.358826,151.638855,597.928345,154.180283C599.655823,161.888474,601.286194,201.338867,600.689941,221C600.246887,235.606979,599.397827,243.813889,596.65509,260C592.327209,285.541016,585.805603,315.960999,582.034424,328.197876C580.457764,333.314056,578.647339,340.091064,578.011292,343.257935C572.071106,372.835175,537.117188,449.50827,508.111176,496.587158C505.768677,500.389221,500.667725,508.674988,496.775696,515C492.883698,521.325012,487.052368,531.224976,483.817169,537C480.582001,542.775024,476.03714,550.464233,473.717499,554.087158C471.397888,557.710083,466.680359,565.135071,463.234161,570.587158C459.787933,576.039246,453.596802,585.224976,449.476074,591C445.355347,596.775024,438.118286,607.349976,433.393768,614.5C428.66922,621.650024,423.525177,629.299988,421.962555,631.5C414.41748,642.12262,390.607056,677.675903,384.786285,687.010864C381.18161,692.791809,372.499817,708.316833,365.493439,721.510864C350.692627,749.382935,333.193451,779.541809,328.074585,786C326.112885,788.474976,320.063141,795.224976,314.630707,801C302.198212,814.216553,293.309418,826.588013,286.679749,839.902527C281.756836,849.789246,281.252075,850.420959,276.5,852.642761C271.350677,855.050293,268.132263,855.298523,259.5,853.953979z"/>
</svg>
