<?xml version="1.0" encoding="UTF-8"?>
<svg xmlns="http://www.w3.org/2000/svg" width="211.084mm" height="140.822mm" viewBox="-994.790710 -453.396362 211.084412 140.822083">
    <path transform="matrix(-0.26455,0,0,-0.26455,-783.43158,-312.111633)" style="stroke:#000000;stroke-width:0.05mm;fill:none" d="M101.960472,531.614502C90.732895,528.264526,81.519135,523.217163,75.382401,517.054993C70.990891,512.645264,69.581924,510.363647,67.971992,505.054993C64.893425,494.903564,64.500679,494.434967,57.136341,492.126282C47.727436,489.176636,31.088783,484.787537,27.25,484.242554C25.4625,483.9888,24,483.380432,24,482.890594C24,482.400757,23.3445,482,22.543335,482C20.502462,482,5.339565,474.617279,2.962852,472.46637C0.562955,470.294495,0.395739,465.111145,2.468564,457.144348C4.4385,449.572998,10.315263,438.32785,13.695614,435.661469C15.916523,433.909637,22.76647,430.188416,25,429.520386C25.275,429.438141,27.525,428.782959,30,428.064453C35.407166,426.49469,49.898434,422.000305,52,421.241302C52.825001,420.943329,54.400002,420.539398,55.5,420.343689C64.664673,418.713104,71.546547,415.596344,76.659607,410.76059C79.626083,407.955048,81.892563,405.177704,81.696236,404.588715C81.499916,403.999756,81.894112,402.963043,82.572235,402.284912C83.250351,401.606781,84.145111,398.677765,84.560585,395.77597C85.868805,386.639008,85.223221,377.917633,82.4422,367.157837C81.682777,364.219666,81.100906,361.519653,81.149139,361.157837C81.19738,360.796021,81.149124,360.274994,81.041908,360C80.288246,358.066864,79.967705,354.737152,80.079231,350C80.322128,339.6828,80.071419,333.924561,79.326866,332.719849C78.103668,330.740692,77.766312,323,78.903259,323C79.471939,323,79.662468,323.787506,79.326645,324.75C78.782997,326.308136,78.883057,326.335541,80.239311,325C81.580627,323.679169,81.602081,322.425018,80.418945,314.5C79.679955,309.549988,78.875511,304.712494,78.631287,303.75C78.387062,302.787506,78.595108,302,79.09362,302C79.592133,302,80,301.325012,80,300.5C80,298.846832,81.557091,298.474335,82.447212,299.914581C82.758102,300.417603,82.447159,301.031006,81.756233,301.277679C81.0653,301.524353,80.871254,302.121552,81.325005,302.604767C81.786369,303.0961,82.57962,302.715668,83.124695,301.741669C83.660774,300.783752,84.77858,300,85.608704,300C86.438835,300,86.846336,299.560394,86.514259,299.023071C86.182182,298.485748,86.362404,296.348267,86.914757,294.273071C87.995094,290.214203,88.868378,281.406464,88.949608,273.75C88.991791,269.773895,89.308418,269,90.893013,269C93.039673,269,94,267.138428,94,262.977234C94,261.404663,94.457344,259.835388,95.016312,259.489929C95.575287,259.14447,95.768288,258.434113,95.445213,257.911346C94.317688,256.086975,97.152702,249.892441,99.528603,248.98912C100.936409,248.453873,102.689453,246.229813,103.950394,243.379242C105.099464,240.78157,107.830704,237.002686,110.019806,234.98172C112.302429,232.874405,114,230.384048,114,229.142715C114,225.499863,117.978271,218.054428,119.593536,218.674271C120.381096,218.976486,121.673141,218.686234,122.464745,218.029251C123.256348,217.372284,124.780777,217.113037,125.852364,217.45314C127.350777,217.928726,128.111023,217.370468,129.14447,215.035767C129.88353,213.366089,131.053375,212,131.74411,212C132.434845,212,133,211.324997,133,210.5C133,209.675003,133.38475,209,133.854996,209C134.325241,209,135.989975,206.975006,137.554398,204.5C139.118835,202.024994,140.953766,200,141.632019,200C142.310287,200,143.150879,199.100006,143.5,198C143.849121,196.899994,144.779449,196,145.567383,196C146.355331,196,147,195.497513,147,194.883362C147,194.259064,147.881805,193.99733,149,194.289749C150.100006,194.577408,151,194.385895,151,193.864182C151,192.814072,152.253143,191.132889,156,187.156311C157.375,185.697021,159.411163,182.668579,160.524796,180.426453C161.638428,178.184326,163.100922,176.533646,163.774796,176.75827C164.448654,176.98288,165,176.440048,165,175.551941C165,174.663849,165.787506,173.641739,166.75,173.280594C168.860199,172.488785,170.924561,169.991898,170.968201,168.178574C171.007111,166.561401,173.45401,164,174.959961,164C175.566498,164,176.321793,163.324997,176.638367,162.5C176.954956,161.675003,177.824997,161,178.571808,161C179.968796,161,182.529694,157.19635,181.694809,156.361465C181.43782,156.104492,181.869873,153.780533,182.654907,151.197113C183.439957,148.613708,184.306046,144.024994,184.579559,141C184.853073,137.975006,185.541061,132.350006,186.108414,128.5C187.181778,121.216324,187.127563,51.5,186.048538,51.5C185.865799,51.5,184.997772,45.783001,184.726395,42.792068C184.641159,41.852707,182.987534,40.27771,181.051682,39.292068C175.033127,36.227749,167.515961,31.616833,167.160721,30.771572C166.974106,30.327564,166.269135,29.409821,165.594116,28.732143C162.800278,25.927292,160.98967,22.174166,161.570084,20.390905C164.614731,11.036673,169.456589,6,175.404373,6C177.477234,6,179,5.50591,179,4.833333C179,4.191667,179.284164,3.950834,179.631485,4.29815C179.978806,4.645465,181.105988,4.478461,182.136353,3.92703C185.061096,2.36175,194.362854,2.619157,197.726273,4.35845C199.38736,5.217432,201.004822,5.661841,201.320633,5.346027C201.636459,5.030212,205.796814,6.735659,210.565887,9.135909C216.683716,12.214975,220.600708,15.008168,223.868469,18.621914C229.53476,24.888138,235.517929,36.451233,237.24823,44.479687C238.1996,48.893951,239.119614,50.749847,240.762573,51.568947C241.986633,52.179211,242.754944,52.911728,242.46991,53.196758C242.184875,53.481792,242.637543,54.284225,243.47583,54.979942C244.518158,55.84499,245,55.890041,245,55.122444C245,54.5051,245.388123,54,245.862488,54C246.725632,54,246.699188,55.023033,245.642868,62.5C245.332047,64.699997,245.319321,65.706993,245.614563,64.737755C245.909805,63.768524,246.596619,63.250698,247.140823,63.587036C247.744186,63.959934,247.550278,64.842682,246.64389,65.849274C244.784088,67.914703,244.178528,70.378677,245.5,70.5037C248.523193,70.789734,251,72.357033,251,73.984055C251,75.00116,251.475754,75.99192,252.057236,76.185745C252.638702,76.37957,252.816559,77.314484,252.452438,78.263336C252.088333,79.212181,251.387589,79.73954,250.895218,79.435242C250.402847,79.130936,250,79.298721,250,79.808098C250,80.317467,251.780823,81.91272,253.957382,83.353096L257.914764,85.97197L255.999313,90.235985L254.083862,94.5L256.197662,95.022835C258.164978,95.50943,258.196716,95.660423,256.655731,97.201401C254.594101,99.263039,254.522888,101,256.5,101C257.325012,101,258,100.523445,258,99.940987C258,99.358521,258.500305,99.191177,259.111816,99.569099C259.723297,99.947021,260.616394,99.636078,261.096497,98.878113C261.701874,97.922318,261.97406,98.463165,261.98468,100.643013C261.993561,102.462166,261.395752,104.017899,260.56543,104.336525C259.776398,104.639297,258.626556,105.924942,258.010254,107.193512C256.913116,109.451706,256.924622,109.458122,258.559601,107.5C259.729553,106.098763,260.370422,105.876091,260.700165,106.756233C260.959015,107.447159,261.651917,107.715126,262.239929,107.351723C262.877136,106.957901,263.016693,107.163956,262.585419,107.861801C262.187439,108.505753,261.494049,108.805344,261.044586,108.527557C260.595123,108.249771,259.993347,108.917435,259.707306,110.011246C259.421265,111.105064,259.627258,112,260.165039,112C260.70285,112,260.409821,112.733025,259.513916,113.628937C258.618011,114.524857,258.135864,115.911659,258.442505,116.710724C258.749115,117.509796,259,118.576767,259,119.081787C259,119.586807,259.654633,120,260.454773,120C261.610077,120,261.83725,121.28656,261.55838,126.25C261.365265,129.6875,260.978607,133.706879,260.699158,135.181961C260.308136,137.245819,260.527985,137.734634,261.652985,137.302917C262.457062,136.99437,262.878387,136.125488,262.589294,135.37207C262.300171,134.618652,262.454224,132.989227,262.931641,131.751114C263.587646,130.049911,263.925873,129.866425,264.316315,131C265.544464,134.565765,266.012665,138.125854,265.18631,137.615143C264.694702,137.31131,263.776642,138.194778,263.14624,139.578415C261.742401,142.659485,261.670868,144.321442,262.976837,143.514313C263.587036,143.137177,263.735504,144.522537,263.372375,147.205292C262.714417,152.066284,262.696198,152.30983,262.939209,153C263.036011,153.274994,263.299683,155.264404,263.525146,157.420914C263.75061,159.577423,264.512177,161.708023,265.217529,162.155594C266.253174,162.812759,266.248077,162.972321,265.190979,162.98468C264.471039,162.993103,264.164612,163.457336,264.510071,164.016312C264.85553,164.575287,265.560913,164.771378,266.077545,164.452072C266.594208,164.132767,267.389008,164.87735,267.843781,166.10672C268.39035,167.584244,268.916534,167.944092,269.395996,167.168259C269.909607,166.33725,270.675751,166.291275,272.020172,167.010803C273.064514,167.569717,274.274719,167.967636,274.709503,167.895081C276.433044,167.607452,277.918121,168.057678,279.178558,169.25C279.905365,169.9375,281.729919,171.134476,283.233124,171.909943C284.736328,172.68541,286.855011,174.147919,287.941315,175.159943C290.455994,177.502747,291,177.474289,291,175C291,173.899994,291.435883,173,291.968628,173C292.501343,173,292.678223,172.324997,292.361633,171.5C291.639191,169.617386,293.403534,169.546387,295.241272,171.384109C297.681274,173.824142,304.826813,177,307.87677,177C309.937897,177,311.454498,177.832779,312.884918,179.75C314.013367,181.262497,314.950897,181.998184,314.968323,181.384857C314.985748,180.77153,314.048706,179.060333,312.885986,177.582199C311.723297,176.104065,311.029633,174.637039,311.344513,174.322159C312.16098,173.505692,320.122559,176.819275,322.5,178.965027C323.600006,179.95784,325.625,181.106659,327,181.51796C329.43399,182.246048,329.453156,182.213287,327.725891,180.277512C326.052673,178.402298,326.230682,175,328.002014,175C328.435455,175,329.849823,176.117218,331.14505,177.482727C332.440277,178.848221,334.07663,179.973221,334.781372,179.982727C335.486145,179.992218,336.321777,180.675003,336.638367,181.5C336.954956,182.324997,337.867401,183,338.666016,183C339.46463,183,339.837952,182.546829,339.495636,181.992935C338.354309,180.146255,342.18515,179.678162,344.971161,181.323883C346.482666,182.216766,347.956207,182.710464,348.245667,182.42099C348.535156,182.131516,349.736206,183.120468,350.914673,184.618652C352.577515,186.732605,353.325256,187.074738,354.253632,186.146362C355.182007,185.217987,355.173706,184.507767,354.216492,182.975037C353.112488,181.207245,353.243835,181,355.468475,181C357.016113,181,358.57196,181.943283,359.591949,183.5C360.492889,184.875,362.104828,186,363.174042,186C364.243225,186,364.837952,186.453171,364.495636,187.007065C363.714661,188.270706,366.966309,189.61647,367.850922,188.395721C368.612915,187.344177,372.51239,187.196228,373.507416,188.181107C373.885864,188.55571,374.768463,188.642349,375.468719,188.373627C376.168976,188.104919,377.010864,188.585922,377.339569,189.442535C377.668274,190.299133,378.626343,191,379.468628,191C380.310883,191,381,191.449997,381,192C381,192.550003,382.035004,193,383.299988,193C384.565002,193,386.081177,193.481186,386.669312,194.069305C387.257416,194.65741,388.359924,195.236755,389.119293,195.35672C391.58078,195.74556,397,198.465103,397,199.311493C397,199.764297,397.862122,199.861145,398.915833,199.526703C399.969543,199.192276,401.123322,199.390533,401.479767,199.967285C401.836243,200.544037,403.302307,200.802963,404.737701,200.542679C406.173126,200.282379,409.40686,200.559464,411.923767,201.158401C418.805695,202.796082,436.496735,202.940033,443.048187,201.411682C450.904846,199.578842,460.670319,193.893616,459.424469,191.877808C459.133881,191.407608,459.594482,191.290894,460.448059,191.618439C461.384033,191.977615,462,191.671631,462,190.847534C462,190.095993,462.899994,188.919037,464,188.232071C465.100006,187.545105,466,186.322235,466,185.514572C466,184.706924,467.147614,183.294174,468.550232,182.375137C469.959076,181.452026,470.868225,180.099014,470.581604,179.352081C470.296234,178.608429,470.468323,178,470.963989,178C471.459686,178,472.161194,177.067459,472.522949,175.927673C472.892975,174.761841,473.757202,174.076584,474.498657,174.361099C475.292236,174.665634,476.059601,173.898682,476.427338,172.433426C476.777588,171.037979,477.776428,169.993469,478.769043,169.98468C480.13443,169.97261,480.210663,169.786087,479.130035,169.101517C477.982666,168.374695,477.997711,168.092804,479.222595,167.366837C480.027008,166.890076,481.482758,165.262497,482.457611,163.75C483.432434,162.237503,484.853271,161,485.615021,161C486.37674,161,487,160.324997,487,159.5C487,158.675003,487.723145,158,488.606995,158C489.624573,158,490.002869,157.449844,489.638367,156.5C489.301422,155.621948,489.624023,155,490.416382,155C491.998688,155,495.49939,150.180862,495.501312,148C495.502045,147.175003,495.952057,146.461136,496.501312,146.413635C498.569031,146.234818,501.000793,144.744431,501.021973,143.643005C501.034088,143.014359,503.058105,141.149994,505.519806,139.5C507.981506,137.850006,509.996613,135.91095,509.997833,135.190979C509.999023,134.471024,510.389862,134.12291,510.866364,134.417404C511.342834,134.711899,512.537598,134.063446,513.521362,132.976425C514.505066,131.889389,515.877747,131,516.571655,131C517.265564,131,517.983337,130.645844,518.166687,130.212982C518.349976,129.780121,520.525024,127.867615,523,125.962975C525.474976,124.058342,527.724976,122.229767,528,121.89949C528.275024,121.569206,530.493103,120.050186,532.929138,118.52388C535.365112,116.997574,538.465698,114.721886,539.819214,113.466789C541.172791,112.2117,545.549011,108.780724,549.544128,105.842407C553.539246,102.904083,557.62085,99.294456,558.61438,97.821022C559.60791,96.347588,560.888611,95.407234,561.460388,95.731346C562.032166,96.055466,562.166382,95.952408,561.758667,95.502335C561.350952,95.052261,561.398926,94.192612,561.865295,93.59201C563.451721,91.548973,568.029663,78.390182,568.529175,74.437424C568.802856,72.271843,569.50415,68.25,570.087585,65.5C571.342224,59.586906,572.100342,43.669937,571.314636,39.739277C570.949463,37.912704,569.95697,36.776318,568.381348,36.380871C567.071594,36.052143,566,35.381969,566,34.89159C566,34.401215,565.382324,34,564.62738,34C561.622803,34,552,21.463825,552,17.54966C552,16.697348,551.657104,16,551.238098,16C550.819031,16,550.481506,13.658046,550.488098,10.795657C550.49884,6.090534,550.739807,5.52837,553,4.935127C554.375,4.574224,556.732239,4.496377,558.238342,4.762134C559.780823,5.034321,561.986389,4.583701,563.28894,3.730236C564.958557,2.636274,569.131165,2.115755,578.30072,1.857572C585.2854,1.660908,591.000122,1.738437,591.000061,2.029859C591.000061,2.321282,593.312744,3.446282,596.139465,4.529859C603.025085,7.169365,607.001892,12.031215,609.110962,20.388247C610.461426,25.739517,610.78479,32.578857,610.857971,57.342079C610.907349,74.055061,611.450317,91.727715,612.064636,96.614655C613.408997,107.309479,613.387878,108.922997,611.85498,112.629128C611.201904,114.208107,610.607788,115.724998,610.534607,116C609.659302,119.291924,608.464417,121.852249,607.034485,123.5C604.912109,125.945663,599,136.940918,599,138.442398C599,139.040359,598.16626,141.097961,597.147217,143.014816C595.282715,146.52211,593.354919,153.51413,592.464172,160C591.897888,164.12326,593.675964,175.166199,595.628296,179.651123C596.382751,181.384247,597,183.521744,597,184.401123C597,185.280502,597.450012,186,598,186C598.549988,186,599,187.173141,599,188.606995C599,190.519775,599.401611,191.05986,600.50824,190.635223C601.72998,190.166382,601.930969,190.763336,601.56665,193.778229C601.294312,196.031494,601.702148,198.486435,602.600159,200L604.083435,202.5L603.41748,200C603.051208,198.625,603.0896,197.819656,603.502808,198.210358C604.654053,199.298965,605.848206,207,604.865723,207C604.389587,207,604,207.476563,604,208.059021C604,208.641479,604.497375,208.810623,605.105347,208.434891C605.883484,207.953979,606.062561,209.416611,605.710327,213.37587C605.43512,216.469147,605.500244,219.003082,605.85498,219.006836C606.209717,219.01059,607.441528,220.473099,608.592346,222.256836C610.862122,225.775131,611.042175,232.674286,609.068359,240.5C608.513489,242.699997,608.09375,247.425003,608.135559,251C608.177429,254.574997,607.87262,261.732361,607.458252,266.905212C606.708069,276.270508,606.714233,276.307983,608.909607,275.733887C610.651001,275.278503,610.884766,275.433899,610.022034,276.473419C609.421326,277.197266,609.018311,278.174347,609.126404,278.644745C609.234497,279.115143,608.805481,280.753113,608.173035,282.284698C607.540588,283.816254,607.113525,285.391266,607.223999,285.784698C607.334534,286.178101,606.930359,287.399994,606.325989,288.5C605.721558,289.600006,604.971558,293.200012,604.659241,296.5C603.974121,303.740173,601.628967,311.911957,598.489136,318C595.05896,324.65094,588,340.083344,588,340.931427C588,341.335815,588.674988,341.666656,589.5,341.666656C590.325012,341.666656,591,341.119141,591,340.449951C591,339.375275,593.603394,338.006256,596.5,337.5578C597.049988,337.472626,599.299988,336.52832,601.5,335.45932C603.700012,334.39032,607.412476,333.512146,609.75,333.507843C612.087524,333.50351,613.549988,333.350006,613,333.166656C612.450012,332.983337,612,332.468109,612,332.021698C612,330.880341,619.91626,330.248779,620.286865,331.360535C620.667603,332.502808,628,332.94046,628,331.820923C628,331.369415,627.099976,331,626,331C624.900024,331,624,330.592133,624,330.093628C624,329.010925,627.797668,329.863586,628.574585,331.120697C629.447449,332.53302,634.420593,332.135773,637.957764,330.371185C640.521729,329.092102,641.389526,329.012268,641.999573,329.999298C642.426819,330.690613,643.276733,330.947021,643.888184,330.569092C644.499695,330.191162,645,330.385071,645,331C645,331.614929,645.450012,331.839905,646,331.5C646.549988,331.160095,647,331.406677,647,332.047974C647,332.68927,647.674988,332.954956,648.5,332.638367C649.325012,332.321777,650,332.461151,650,332.948059C650,333.434967,649.4375,334.060303,648.75,334.337708C648.003235,334.639038,648.20459,334.873901,649.25,334.921051C650.212524,334.964478,651,334.546173,651,333.991516C651,333.37146,651.722412,333.434235,652.875732,334.154449C654.667297,335.273346,654.637085,335.431854,652.201111,337.689423C650.798401,338.98938,649.390503,339.631897,649.072449,339.117218C648.754395,338.60257,647.370422,339.100555,645.99707,340.223877C643.700012,342.102722,643.673462,342.212341,645.665833,341.592468C646.859619,341.221069,648.124878,341.393036,648.484924,341.975647C648.844238,342.556976,649.44458,342.848602,649.819092,342.623657C650.193604,342.398743,652.62616,341.930298,655.224731,341.582703C659.747742,340.977661,659.978699,341.066956,660.63269,343.672699C661.065857,345.39859,660.892151,346.53595,660.157959,346.780701C657.877258,347.540924,659.055908,349,661.950806,349C666.377441,349,675,351.037079,675,352.082855C675,352.58728,675.498169,353,676.106995,353C676.71582,353,676.973999,352.374664,676.680725,351.610382C676.308655,350.640717,676.880554,350.262939,678.573059,350.360382C679.907104,350.437164,680.992004,350.725006,680.984009,351C680.959045,351.853943,679.297668,354.183533,678.888184,353.93869C678.674683,353.811005,677.375,354.072266,676,354.519257C673.715881,355.26181,673.931824,355.445557,678.5,356.646729C681.25,357.369812,685.32251,357.970093,687.549988,357.980713C689.777527,357.991333,692.088257,358.488251,692.684998,359.084991C693.281738,359.681732,695.959229,360.312805,698.63501,360.487366C701.31073,360.661926,703.837524,360.848694,704.25,360.902374C704.662476,360.956085,705,361.930328,705,363.067383C705,364.679688,705.440247,364.995056,707,364.5C709.598328,363.675323,709.530212,364.428101,706.774292,366.995636L704.548584,369.069183L706.858826,369.67334C708.195984,370.02301,708.711304,370.560364,708.082336,370.949127C707.484619,371.318512,709.220398,372.190979,711.939697,372.887909C714.658936,373.584839,717.392822,374.768402,718.015015,375.518066C718.637146,376.267761,719.78833,376.634735,720.57312,376.333557C721.35791,376.03241,722,376.31073,722,376.952026C722,377.593323,722.376648,377.885254,722.837036,377.600708C724.136414,376.797668,727.687744,379.697906,728.307617,382.068329C728.759644,383.796783,728.50061,384.102661,726.932251,383.692535C724.251404,382.991486,724.500854,384.845001,727.25,386.053589C729.357239,386.980011,729.325562,387.018494,726.75,386.660065C725.237488,386.449554,724,386.650818,724,387.1073C724,387.563751,723.346558,387.686493,722.547913,387.380005C719.911133,386.368195,718.988953,387.988983,721.036499,390.036469C722.116394,391.116425,723.427612,392,723.950317,392C724.472961,392,725.260498,392.573303,725.700317,393.274017C726.788452,395.007538,734.46051,400.066437,739.25,402.208527C742.656616,403.732147,742.718506,404.715515,739.5,406.181946C738.125,406.808441,737,407.99881,737,408.827179C737,409.655579,737.29303,410.040314,737.651123,409.68222C738.009216,409.324097,738.894958,409.811584,739.619324,410.765533C740.690918,412.176758,740.942444,412.220459,740.968994,411C740.988647,410.095856,742.327393,410.989624,744.339172,413.25C746.174866,415.3125,748.199524,417,748.838379,417C749.477295,417,749.887512,417.542053,749.75,418.204559C749.612488,418.867035,749.960571,419.429535,750.523499,419.454559C751.086365,419.479553,752.633728,420.512512,753.962036,421.75C755.290344,422.987488,756.768799,424,757.247559,424C757.726318,424,757.843079,424.444855,757.50708,424.988556C757.165894,425.540588,757.536743,425.731262,758.346924,425.42038C759.144836,425.114166,760.099304,425.351685,760.467957,425.948151C760.836609,426.544617,761.557129,426.773712,762.069092,426.457306C762.581116,426.140869,763,426.358521,763,426.940979C763,427.523438,762.099976,428,761,428C759.900024,428,759,428.450012,759,429C759,429.549988,758.325012,430,757.5,430C756.674988,430,756,430.450012,756,431C756,431.549988,756.358459,432,756.796631,432C757.234741,432,758.472229,432.669403,759.546631,433.487549C760.620972,434.305695,764.247192,436.956696,767.604919,439.378662C774.120178,444.078217,776.124634,447.472656,772.884827,448.319855C771.849243,448.590668,770.720276,448.356445,770.375977,447.799347C769.985229,447.167084,769.426941,447.296295,768.89032,448.14325C767.607605,450.167603,767.816406,451,769.606995,451C770.68988,451,771.007385,451.538422,770.580444,452.65094C769.950745,454.291962,773.125488,458.24527,774.719177,457.804657C776.047852,457.437317,782,460.988159,782,462.148132C782,462.877991,781.498169,462.82843,780.5,462C779.243408,460.957123,779,461.114716,779,462.971161C779,464.346222,779.759033,465.385712,781,465.710266C783.082947,466.254944,783.84906,470,781.877563,470C781.145813,470,781.230103,470.572327,782.11969,471.644257C783.33252,473.10556,783.235596,473.209534,781.248474,472.578857C777.468567,471.379181,779.60022,474.453644,783.534729,475.876404C785.863037,476.718323,787,477.764404,787,479.064728C787,480.12912,786.512512,481,785.916687,481C785.320862,481,785.030029,481.5625,785.270386,482.25C785.510803,482.9375,786.50708,483.354279,787.484436,483.176147C789.040588,482.892548,788.984802,483.203125,787.035278,485.676147C785.191711,488.014771,785.073792,488.553711,786.349182,488.812653C787.224182,488.990295,787.651001,489.745972,787.337585,490.562653C787.021606,491.385986,787.377563,492,788.170776,492C789.448853,492,793,495.343353,793,496.5466C793,496.834686,792.115845,496.597168,791.035156,496.018829C789.193909,495.033386,789.209595,495.185699,791.285156,498.441315C792.503357,500.35202,794.0625,501.934387,794.75,501.957672C795.4375,501.980957,796,502.450012,796,503C796,503.549988,796.674988,504,797.5,504C799.464111,504,799.409363,505.415375,797.380066,507.099548C793.122375,510.633118,775.217285,507.515076,766.858459,501.784454C761.131775,497.858337,752.540527,491.357635,747.77063,487.3414C738.544373,479.572815,730.253418,473.378693,727.347168,472.083099C726.163086,471.555237,724.924255,470.686462,724.594238,470.152466C724.264221,469.618469,720.28302,466.739319,715.74707,463.754364C704.870178,456.596527,702.210022,454.839691,699.100952,452.761017C697.67041,451.804565,695.825012,450.718811,695,450.348175C694.174988,449.97757,691.25,448.223206,688.5,446.449554C677.059082,439.070709,657.320251,427.691864,650.166687,424.351654C645.950012,422.382721,639.349976,419.275726,635.5,417.447174C631.650024,415.618622,626.025024,413.1745,623,412.015778C619.974976,410.857086,616.150024,409.289215,614.5,408.531647C612.849976,407.774048,610.262512,406.845734,608.75,406.468719C607.237488,406.091675,606,405.396088,606,404.922974C606,404.44986,605.336548,404.317352,604.525696,404.62851C603.714844,404.939667,602.328552,404.471405,601.445068,403.587921C600.561584,402.704468,599.425049,402.237305,598.919373,402.549835C598.413696,402.862335,598,402.669434,598,402.121155C598,401.572876,597.212524,401.135956,596.25,401.150208C592.996643,401.198395,583.812561,398.139923,581.727539,396.313995C580.588318,395.316284,579.985107,395.0625,580.387146,395.75C581.266418,397.253784,579.396729,397.450958,578.470398,395.952148C578.114258,395.375824,577.075195,394.984283,576.161438,395.082031C573.460632,395.370941,567.989563,393.825867,568.542969,392.930511C568.82373,392.476227,568.062256,392.295441,566.85083,392.528717C565.639343,392.762024,564.041504,392.449371,563.299927,391.833954C562.558411,391.218536,561.691284,390.975403,561.372986,391.29364C561.054749,391.611908,559.603149,391.418701,558.147156,390.864288C550.596558,387.989075,530.508728,386.546295,519.5,388.088531C516.200012,388.550842,511.924988,389.155579,510,389.432373C508.075012,389.709167,503.125,390.18869,499,390.497955C494.875,390.807251,490.375,391.272888,489,391.532684C478.578522,393.501831,440.55304,393.907745,418.5,392.285217C399.157715,390.862122,364.970795,390.349121,356,391.347351C352.975006,391.68396,346,392.43042,340.5,393.006134C315.122894,395.662537,310.047119,396.356567,303.5,398.065277C287.732391,402.18042,260.032715,412.796173,256.435547,416.102478C255.300095,417.146118,253.950104,418.012115,253.435547,418.026886C252.92099,418.041687,250.925003,419.406738,249,421.060333C247.074997,422.713928,242.800003,426.167419,239.5,428.734772C236.199997,431.302124,233.140137,433.987091,232.700317,434.701355C232.260483,435.415588,231.360474,436.002472,230.700317,436.005463C228.596115,436.015045,210.354813,454.314148,207.529175,459.25C206.0336,461.862488,204.47876,464,204.073959,464C203.669159,464,202.709824,465.237488,201.942108,466.75C201.174408,468.262512,198.016632,473.325012,194.924835,478C191.833054,482.674988,189.006607,487.333496,188.64386,488.352234C188.043564,490.038055,180.251846,501.814026,178.951981,503C178.650574,503.274994,177.132294,505.75,175.578003,508.5C171.545151,515.635315,162.416443,524.699402,156,527.939453C143.549637,534.226257,116.808891,536.0448,101.960472,531.614502z"/>
    <path transform="matrix(-0.26455,0,0,-0.26455,-783.43158,-312.111633)" style="stroke:#000000;stroke-width:0.05mm;fill:none" d="M645,338.592865C645,338.290375,643.862244,338.561279,642.471619,339.194885C640.782776,339.964386,640.338562,340.591217,641.133789,341.082703C642.208191,341.746704,645,339.948761,645,338.592865z"/>
    <path transform="matrix(-0.26455,0,0,-0.26455,-783.43158,-312.111633)" style="stroke:#000000;stroke-width:0.05mm;fill:none" d="M620,333.218109C620,332.788055,618.762512,332.367554,617.25,332.28363C614.877014,332.151978,614.77417,332.249542,616.5,332.995239C619.104675,334.120697,620,334.177704,620,333.218109z"/>
    <path transform="matrix(-0.26455,0,0,-0.26455,-783.43158,-312.111633)" style="stroke:#000000;stroke-width:0.05mm;fill:none" d="M294.5,178C294.160095,177.449997,293.346039,177.006897,292.690979,177.01532C291.975372,177.024521,292.098694,177.417542,293,178C294.921112,179.241531,295.267303,179.241531,294.5,178z"/>
    <path transform="matrix(-0.26455,0,0,-0.26455,-783.43158,-312.111633)" style="stroke:#000000;stroke-width:0.05mm;fill:none" d="M629,330.091888C629,329.243195,632.328674,328.0401,634.75,328.013641C635.4375,328.006134,636,328.487488,636,329.083344C636,329.679169,635.4375,329.968781,634.75,329.726929C634.0625,329.485046,632.487488,329.661407,631.25,330.118835C630.012512,330.576233,629,330.564117,629,330.091888z"/>
</svg>
