<?xml version="1.0" encoding="UTF-8"?>
<svg xmlns="http://www.w3.org/2000/svg" width="1240.000mm" height="453.292mm" viewBox="-1364.000000 -744.291626 1240.000000 453.291626">
    <path transform="matrix(-1,0,0,-1,0,0)" style="stroke:none;fill:#000000;fill-rule:evenodd" d="M124,663C128.649994,665.549988,154.064713,682.182434,170,689C208.984497,705.678711,247.119064,704.180176,271,700C293.110229,696.129761,300.308014,693.676941,322,688C361.561737,677.646484,438.833191,633.694458,468,631C484.406189,629.484375,497.771301,628.640015,527,632C567.879456,636.69928,569.069031,635.441956,608,649C642.584595,661.044373,675.900024,670.549988,687,674L718,683C721.795776,684.833069,730.617371,692.083191,739,694C757.374207,698.201538,758.426758,700.817444,780,704C789.282776,705.369446,786.485046,703.828613,796,704C810.477295,704.260742,814.953918,706.332581,831,707C852.431274,707.891418,851.442017,708.107971,876,707C888.54303,706.434082,889.004089,706.050476,902,705C931.509277,702.614685,931.498291,703.479309,961,701C984.998596,698.983154,1002.799988,694.599976,1010,694C1014.049988,693.700012,1024.603271,689.914368,1038,688C1055.991089,685.429138,1079.195801,693.027161,1082,695C1090.099976,700.700012,1104.560059,721.208496,1134,735C1146.005005,740.623901,1158.099976,740.950012,1162,742C1165.449951,742.299988,1173.49292,743.911194,1185,744C1198.991455,744.107971,1206,742.5,1213,742C1214.199951,742,1217.047607,741.566162,1221,742C1225.554932,742.5,1221.903931,744.014221,1226,744C1230.453369,743.984558,1233.204102,741.825989,1235,740C1235.75,740.900024,1241.50415,745.485779,1244,744C1247.445557,741.948853,1248.75,739.5,1251,738C1254.077637,736.883179,1257.975098,736.921753,1260,734C1261.289795,736.64801,1263.578125,737.298401,1270,732C1270.599976,731.25,1272.189819,726.961365,1275,726C1284.100464,722.886841,1289.085938,723.643677,1293,722C1295.909302,720.778259,1300.244141,722.111511,1309,722C1311.90979,721.962952,1314.971802,719.487305,1322,720C1327.539063,720.404053,1330.885864,721.7854,1335,719C1336.846313,717.75,1338.30127,716.79126,1341,714C1344.939819,709.925171,1355.86792,708.179077,1360,698C1361.671875,693.881653,1362.5,692,1362,689C1361.849976,688.25,1359.831055,686.246765,1361,684C1362.725464,680.683533,1363.849976,676.650024,1364,672C1363.640869,665.276733,1359.812134,649.621277,1353,641C1354.615967,646.542236,1353.965698,653.421082,1351,654C1354.321655,648.712219,1348.863525,639.560181,1346,635C1347.895752,641.395752,1350.212891,652.713013,1344,651C1345.95166,649,1343.164795,645,1341,643C1342.2771,645.740479,1342.263916,651.151611,1339,652C1341.098999,647.450195,1334.94519,639.829285,1332,636C1332.566284,639.703369,1337.177368,649.346252,1333,650C1333.594604,649.153076,1327.568481,644.252625,1325,642C1326.689941,645.592834,1323.579712,648.601868,1322,650C1323.030029,647.953064,1320.789307,643.428955,1318,641C1318.944946,643.740845,1317.309326,648.634888,1316,651C1315.671875,648.045166,1314.626221,642.221985,1311,640C1309.442993,644.289612,1307.252808,647.899841,1306,650C1306.268921,647.883301,1305.091675,643.039612,1300,642C1299.833618,643.740051,1301.145142,646.44635,1295,651C1295.909424,648.647705,1295.14502,644.588806,1293,643C1293.062134,645.696289,1289.596191,650.063171,1287,652C1288.213623,649.281799,1286.21106,644.337646,1284,642C1282.970215,644.308533,1279.312378,647.593628,1276,648C1274,645.75,1266.02124,642.240662,1268,639C1271.5,635.25,1276.689575,632.815125,1281,624C1286.318726,613.122803,1285.400024,602.75,1286,599C1286.806763,597.783752,1288.264526,594.572327,1290,598C1290.799805,596.411133,1290.991699,593.389832,1290,592C1290.441528,591.382874,1292.563965,592.62793,1294,594C1294.360596,591.389404,1293.36731,587.882629,1293,586C1295.437256,584.291992,1297.35791,586.915527,1298,588C1301.175049,586.943604,1298.781616,578.273743,1299,575C1300.892212,576.634338,1305.358276,578.150024,1306,583C1308.023682,579.795593,1306.75,572.5,1307,569C1308.549683,571.929016,1312.694214,576.293945,1313,581C1315.403198,575.527222,1313.75,569.75,1314,566C1315.736328,568.640869,1319.08667,572.942932,1321,577C1323.928467,570.70697,1320.25,564.25,1320,560C1323.259521,562.020569,1326.452393,566.648254,1328,570C1329.623413,565.850647,1330.148804,560.440491,1330,557L1329,553C1328.400024,552.099976,1327.384888,549.654114,1325,547C1319.833862,541.250732,1319.900757,540.68573,1313,538C1303.71228,534.385254,1301.983276,535.964966,1292,538C1276.708496,541.117065,1269.349976,550.900024,1265,553C1260.650024,556,1251.518677,564.96814,1236,573C1221.92395,580.285217,1220.548462,577.490784,1206,584C1190.519531,590.926147,1182.5,596.599976,1178,599C1163.752197,586.745178,1148.891235,574.832886,1121,550C1112.002075,541.988708,1110.5,535.75,1107,531C1107,531,1107,531,1107,531C1096.185181,516.416992,1091.25,516.75,1086,512C1083.150024,509.600006,1077.839233,501.217865,1067,496C1060.324829,492.786652,1053.045776,496.454163,1052,493C1050.936401,489.487274,1058.815063,488.183441,1064,482C1068.152832,477.047394,1071.949951,471.649994,1073,470C1073.623291,466.475952,1069.861816,462.432892,1067,461C1067.29248,463.422607,1071.337158,470.050354,1067,471C1065.863647,472.590973,1060.768311,475.987823,1059,478C1063.167969,473.948914,1066.721558,458.472321,1061,453C1059.160767,451.240845,1055.509888,451.839569,1053,454C1054.907593,453.402466,1058.857666,454.955109,1059,457C1058.699951,458.649994,1059.115601,462.969147,1057,468C1051.434692,481.234131,1044.449219,486.154907,1040,492C1031.294189,491.867859,1015.841125,485.726807,1008,483L1014,476L1023,473C1029.588257,467.55722,1024.019165,465.865021,1023,464C1024.479858,470.538666,1012.002258,469.75177,1008,472C1005.966003,470.179688,1009.653015,457.903107,1013,450C1012.717102,448.883209,1012.873657,446.469055,1010,446C1012.168518,450.759552,1004.000244,455.749969,1002,461L994,479C988.299988,476.75,975.509399,469.780884,956,464C922.377869,454.037323,920.176147,460.994659,887,450C878.146729,447.06601,878.940552,447.753113,870,446C860.946167,444.22467,861.524353,445.729767,853,442C842.272217,437.306122,842.514771,436.25177,831,432C819.51239,427.75824,817.115662,431.453613,807,425C798.397522,419.51178,798.878967,417.278656,796,408C793.682068,400.52948,793.694214,400.407623,795,392C797.385803,376.638397,792.976379,373.016907,792,362C790.483032,344.883453,800.897156,346.538757,811,332C816.794006,323.661987,816.31488,321.584656,823,317C832.988159,310.150146,844.799988,314.299988,849,314C851.849976,313.25,860.255249,314.143158,868,309C874.465271,304.706512,876.5,297.950012,878,296C877.985107,295.180237,876.071594,295.722992,875.540955,296.081268C869.881348,299.902313,862.208435,303.824127,856.722778,301.511719C852.82666,292.140076,824.79425,299.770233,815.29425,299.020233C815.786926,296.998596,816.956787,292.946442,815,291C813.996521,292.127441,813.102966,296.135284,810,299C808.113159,299.364105,805.729736,300.187897,803.612305,299.235046C790.717224,293.432098,793.541199,296.024872,784,297C777.314331,297.683289,775.34436,296.432495,771,301C767.143677,305.054382,761.366028,310.46402,760,321C759.50647,324.806366,762.363892,325.128204,762,329C760.104431,349.167755,748.676392,348.543274,745,369C741.6521,387.628754,739.983398,389.068787,747,407C752.463135,420.961212,761.967957,420.756317,766,434C759.25,435.350006,742.733948,445.409546,721,443C711.671204,441.965759,714.597351,436.731567,706,432C696.5578,426.803467,690.372314,430.835724,688,422C683.50354,405.252899,687.465637,399.102844,683,377C680.222534,363.252991,675.292542,363.579865,675,350C674.700195,336.081848,680.72998,336.199463,682,322C682.661499,314.603882,681.150024,309.25,681,307C680.824768,302.361816,673.467346,298.223938,670,296C669.332642,295.91748,669.634705,297.281311,670,298C674.723328,307.292633,671.066528,313.513916,669,317C666.405212,316.096161,661.586304,330.003235,661,327C660.235291,323.083008,657.665283,316.23288,650.374146,310.480957C649.833679,310.054596,649.206116,310.072144,649,310C653.387695,322.238037,645.689514,327.966248,641,333C640.25,333.75,638.011169,335.998444,637,339C630.649841,357.850159,631.960632,350.474152,642,382L649,395C643.05011,391.171478,627.962402,380.058594,626,394C628.577026,392.466187,637.146973,393.128845,637,395C639.25,397.25,647.021667,401.090912,652,410C657.066101,419.066071,652.881592,417.691376,657,431C662.651428,449.262604,658.514709,451.495514,671,463C690.940674,481.374268,716.136658,475.520203,729,483C731.25,485.5,735.75,489.5,738,492C729.450012,495.75,712.803162,498.467377,689,517C684.639587,520.394897,678.454163,524.651367,674,526C667.823181,527.870178,666.219299,523.16333,660,525C654.962708,526.487549,656.270691,530.520508,651,531C600.274963,535.614746,594.019714,520.18396,538,532C471.33429,546.061584,472.715149,545.125732,418,587C369.536987,624.089417,273.507965,676.164368,233,682C209.689896,685.358093,187.39418,678.49231,164,674C153.037109,671.894836,127.87883,661.078491,124,663z"/>
</svg>
