<?xml version="1.0" encoding="UTF-8"?>
<svg xmlns="http://www.w3.org/2000/svg" width="137.069mm" height="157.526mm" viewBox="-835.597656 -642.399902 137.069214 157.526337">
    <path transform="matrix(-0.26462,0,0,-0.26462,-698.528442,-484.882385)" style="stroke:#000000;stroke-width:0.05mm;fill:none" d="M0,297.5C0.348633,280.881531,3.535239,278.137512,3.737242,275.25C4.047984,270.808136,4.409282,270,6.084378,270C10.400831,270,14.95397,273.169403,25.24526,283.337677C31.155153,289.176941,37.747307,294.850769,39.894489,295.946167C42.041672,297.041595,44.845604,299.639313,46.12545,301.718903C48.436085,305.473419,59.408867,318.600952,63.556911,322.573425C64.747688,323.713776,66.495682,326.976288,67.441345,329.823425C68.646065,333.45047,69.688309,335,70.923248,335C72.822968,335,92.173088,351.201782,93,353.484802C93.275002,354.244019,95.525002,356.299225,98,358.05188C100.474998,359.804565,104.75,363.370575,107.5,365.976349C111.586868,369.848907,121,375.147125,121,373.57486C121,373.349915,119.441116,368.507233,117.535812,362.813324C115.630508,357.119415,113.768547,349.88208,113.398132,346.730377C112.997673,343.32309,112.239365,341,111.527618,341C109.738159,341,105.62822,321.776306,105.411873,312.394409C105.309059,307.93634,104.760948,303.421844,104.193832,302.362183C102.897354,299.939667,101.49855,273.486511,102.410019,268.62796C102.90683,265.979706,104.075294,264.341431,106.776314,262.506042C110.343826,260.081848,110.37912,260,107.857132,260C104.948357,260,104,257.414764,104,249.485474C104,239.425613,110.200157,213.25325,113.181213,210.72934C115.127609,209.081436,115.159157,208.833344,113.636292,207.150604C111.329094,204.601181,111.604042,198.900848,114.356453,192.219864C115.652504,189.073944,117.980736,182.899994,119.530304,178.5C121.079872,174.100006,122.432327,170.374649,122.535751,170.221436C122.639183,170.068222,124.698448,169.555023,127.111908,169.080994C129.52536,168.606964,130.514053,168.16983,129.309021,168.109558C128.103973,168.049301,126.908997,167.661774,126.653511,167.248383C125.764397,165.809769,130.754837,152.133102,135.011642,144.3423C137.368362,140.029037,139.977707,135.149994,140.810211,133.5C141.6427,131.850006,143.825974,128.811203,145.661911,126.747116C149.053726,122.933838,150.50177,118.508751,147.558456,120.951492C145.816254,122.397392,145.248596,120.549431,140.961746,99.476242C136.147522,75.810661,134.628891,62.1726,134.561661,42C134.483078,18.423376,134.922043,16.865196,144.350067,7.254837L151.5,-0.033383L158.888214,0.907034C165.856796,1.794037,166.558945,2.121572,171.250702,6.673725C173.986557,9.328176,176.909302,13.075,177.745697,15C179.223587,18.401463,179.295105,18.436655,180.286011,16.25C181.027176,14.614465,182.158707,14,184.429382,14C188.789963,14,193.285233,20.687193,192.769516,26.406815C192.452209,29.925833,192.743942,30.50639,195.708618,32.255589C198.758347,34.054974,198.998657,34.575756,198.981674,39.348778C198.971603,42.18195,198.295685,49.197872,197.47963,54.939713C196.596008,61.156929,196.368286,65.609581,196.916595,65.948456C197.422974,66.261414,197.986404,67.977379,198.16864,69.761703L198.5,73.00592L204.5,69.291412C209.563995,66.156372,211.396576,65.570908,216.247208,65.538452C221.401474,65.503967,221.99469,65.283859,221.997208,63.404987C222.001144,60.448616,224.274719,58.697536,236.542297,52.202522C244.375015,48.055527,247.384338,45.941395,247.514618,44.494164C247.613358,43.397373,248.62883,39.525623,249.77121,35.890274C250.913605,32.254925,252.586029,25.054924,253.487717,19.890274C255.596222,7.813378,259.120361,0,262.458984,0C264.435913,0,265.199341,0.920614,266.812469,5.25C271.007904,16.509706,279.028564,43.764931,278.5383,45.095806C278.253784,45.868111,278.35379,46.971607,278.760498,47.548012C279.867706,49.117157,287.980896,53.562405,292.266968,54.94828C294.338806,55.618191,297.664246,57.703884,299.65683,59.583149C301.870575,61.670982,304.294983,63.000999,305.889893,63.002571C307.325439,63.003986,310.975006,64.486969,314,66.298088C320.796356,70.367188,325.853912,72.479416,326.722046,71.611305C327.083893,71.249458,326.646149,64.176697,325.749298,55.894054L324.118652,40.834705L327.638214,37.744514C330.61203,35.133453,331.074463,34.177216,330.620636,31.577162C330.268677,29.560852,330.896271,26.61467,332.44101,23.031319L334.798523,17.562637L341.363586,16.350977C349.531952,14.843406,350.041931,14.550405,354.369293,8.878579C357.760956,4.433176,358.168732,4.216571,365.075134,3.19151L372.255035,2.125861L379.377502,8.193516C389.884216,17.144188,390.519012,19.06883,390.362885,41.5C390.182373,67.436058,387.542145,90.809074,381.976044,115.745796L379.01947,128.991592L382.359528,134.245789C387.669342,142.598526,397,160.937286,397,163.020554C397,164.066406,397.891907,165.753036,398.982025,166.768631C401.2099,168.844208,412,197.563416,412,201.417587C412,202.786148,411.478607,205.050247,410.841339,206.448883C409.893433,208.529312,409.978973,209.319275,411.311615,210.79184C414.501465,214.316574,419.57959,242.819077,418.83078,252.995422L418.5,257.490845L413.75,258.353607C407.973328,259.402832,407.666504,260.531158,412.929047,261.37265C415.090027,261.718231,417.532593,262.675446,418.357025,263.499878C420.523346,265.666199,421.250854,273.712646,420.619141,288.519745C420.314575,295.658875,420.030731,302.625,419.988403,304C419.789764,310.450256,413.662781,339.590576,412.273071,340.69458C411.445984,341.351624,410.623322,343.601624,410.444916,345.69458C410.266479,347.787567,408.124512,356.25,405.684967,364.5L401.24942,379.5L404.250854,379.822754C406.444977,380.058716,408.227051,379.321198,410.87616,377.080963C412.869263,375.395416,417.200012,372.388306,420.5,370.398468C423.94339,368.322174,433.414124,360.009674,442.726379,350.890289C451.650909,342.150635,459.358795,335,459.855072,335C460.351318,335,461.333862,333.537506,462.038513,331.75C462.743134,329.962494,464.97406,326.25,466.996124,323.5C469.018188,320.75,471.908203,316.331879,473.418365,313.681946C477.608643,306.329041,483.870056,300.295258,488.136597,299.49881C491.388458,298.891785,491.835876,298.427734,492.366028,295.112457C493.124023,290.372192,498.452118,282.303772,502.416504,279.892914C504.104034,278.866638,506.63208,276.337585,508.034363,274.272797C511.007751,269.894592,515.59082,267.73941,517.043579,270.036255C517.552734,270.841309,517.976196,280.725006,517.984497,292C518.001282,314.680389,517.261047,320.228119,511.379944,341.499756C507.409027,355.862366,505.468201,360.311249,501.597321,363.924316C500.168793,365.25769,499,367.405182,499,368.696503C499,372.019348,491.679474,386.224243,485.702118,394.5C471.633301,413.978577,460.306244,425.848267,446.256287,435.835632C420.386383,454.225128,410.1698,458.405121,384.66095,461.036621C370.579193,462.489288,361.312988,461.740295,354.5,458.598663C349.61499,456.346069,349.435181,456.106079,346.681122,448.162476C345.130768,443.690643,344.144806,439.574707,344.490143,439.01593C346.324646,436.047668,340.595123,439.327545,334.641846,444.653656C331.969849,447.044128,329.247772,449,328.592743,449C327.937714,449,326.828552,450.585205,326.12796,452.522705C325.427338,454.460175,323.246765,457.606445,321.282196,459.514404C317.863403,462.834686,317.469971,462.959625,312.105133,462.428497C309.022308,462.123291,305.46579,461.662994,304.201721,461.405609C301.988373,460.954956,301.956818,461.039459,303.347168,463.693054C304.74826,466.367157,304.644928,466.608093,299.843658,471.86145L294.896454,477.274475L295.389191,490.887238C295.660187,498.374268,296.406311,508.774994,297.047241,514C298.53717,526.146362,297.833344,531.829346,293.084137,546C290.964355,552.325012,288.989685,560.381409,288.695953,563.903076C288.101624,571.028809,286.289948,574.234741,280.908051,577.68457C277.11145,580.118286,277.24292,579.992554,269.200684,588.879395L263.427582,595.258789L259.36911,593.188293C255.412704,591.169922,249,584.866516,249,582.995911C249,582.481995,246.587067,580.517944,243.637939,578.631409C237.642639,574.796265,234,568.834595,234,562.857727C234,560.926758,232.617523,554.431335,230.927826,548.423401C226.442841,532.476624,226.108231,529.802795,227.133606,518.10498C227.644882,512.272217,228.226883,502.709534,228.426941,496.854492C228.637253,490.699432,229.362106,485.022736,230.14534,483.396698C231.471725,480.643097,231.357178,480.441101,224.659012,473.721466C218.294693,467.336761,217.928879,466.736084,219.409012,465.100555C222.031464,462.202759,221.301147,461.808563,214.633072,462.522644C208.792847,463.148102,207.928589,462.98111,204.185913,460.504333C200.157379,457.838379,200.044846,457.823883,195.302841,459.360657C189.047287,461.387909,173.719803,463.992737,168.022385,463.996796C165.559692,463.998566,155.209702,462.621185,145.022385,460.935974C126.679916,457.901703,126.373726,457.809235,113.5,451.415192C91.395905,440.436676,79.761185,432.973633,78.485901,428.955566C78.182076,427.998322,76.485954,426.617065,74.716743,425.886139C72.947533,425.155212,68.446983,421.506805,64.715515,417.778595C60.984051,414.050354,57.122448,411,56.134171,411C53.924477,411,41.33823,397.195801,40.498928,393.851746C40.164219,392.518158,38.904022,390.993469,37.698486,390.463531C34.789639,389.184814,27.744019,378.286316,23.943989,369.187378C17.553112,353.884827,13,339.571594,13,334.78363C13,330.730988,12.706229,330,11.077552,330C8.645009,330,7.15744,325.433167,4.981539,312.146057C3.213066,301.655853,1.623535,305.015564,0,297.5z"/>
</svg>
