<?xml version="1.0" encoding="UTF-8"?>
<svg xmlns="http://www.w3.org/2000/svg" width="348.579mm" height="399.824mm" viewBox="-1506.125732 -917.656250 348.578857 399.824219">
    <path transform="matrix(-1,0,0,-1,0,0)" style="stroke:#ff0000;stroke-width:0.05mm;fill:none" d="M1336.597656,520.03125L1337.851563,523.40625C1339.096436,527.027954,1340.268555,530.674927,1341.367188,534.34375C1342.187622,537.036011,1342.971558,539.739502,1343.71875,542.453125L1344.714844,546.347656L1344.890625,548.992188L1346.46875,550.863281L1348.882813,552.304688L1351.695313,553.726563L1354.226563,554.75L1356.734375,556.003906L1358.847656,557.550781L1361.085938,559.332031C1362.806396,559.907471,1364.502441,560.46936,1366.226563,561.035156L1368.855469,562.386719L1372.039063,564.183594L1374.628906,565.421875L1377.210938,566.066406L1377.457031,563.574219L1377.253906,560.550781L1376.90625,556.761719L1376.625,554.121094L1376.347656,551.585938L1376.074219,549.050781L1375.800781,546.519531L1376.847656,544.210938L1378.894531,542.375L1380.136719,540.160156L1380.019531,537.464844L1380.796875,534.441406C1381.459839,532.814392,1382.144409,531.197937,1382.851563,529.589844C1384.756104,529.241089,1386.63623,528.892456,1388.539063,528.535156L1391.332031,527.867188L1393.679688,526.523438C1395.066528,524.864502,1396.462036,523.21814,1397.871094,521.578125L1400.460938,520.386719L1403.222656,519.921875L1406.445313,519.441406L1409.253906,520.222656C1411.003662,521.705078,1412.748169,523.200562,1414.480469,524.703125L1417.003906,527.207031L1418.667969,529.691406L1419.652344,532.679688L1420.125,536.675781L1420.238281,540.710938C1420.255249,543.81781,1420.234497,546.921326,1420.175781,550.027344C1420.098633,552.856384,1419.985352,555.685547,1419.835938,558.511719C1419.663452,561.284241,1419.453857,564.053467,1419.207031,566.820313C1418.935913,569.562927,1418.625977,572.301331,1418.277344,575.035156C1417.903442,577.771851,1417.491699,580.504944,1417.042969,583.230469C1416.243408,587.89386,1415.317139,592.535278,1414.265625,597.148438C1413.814209,599.165344,1413.389404,601.070374,1412.941406,603.089844L1413.359375,605.753906L1414.855469,608.113281L1416.828125,611.402344L1419,615.320313L1421.121094,619.375L1422.949219,623.082031L1424.226563,625.945313L1424.988281,628.515625L1426.53125,630.703125L1428.042969,633.867188L1429.476563,637.332031C1430.507935,639.917419,1431.487427,642.523926,1432.414063,645.148438L1433.644531,648.773438L1434.660156,652.339844L1434.574219,655L1433.675781,657.609375L1434.898438,660.550781L1436.105469,664.101563L1437.011719,667.878906L1437.585938,670.691406L1438.113281,673.648438L1438.574219,676.648438L1438.957031,679.589844L1439.234375,682.371094L1439.445313,686.074219L1439.289063,689.539063L1437.578125,691.339844L1434.34375,691.988281L1433.96875,693.363281L1436.535156,693.90625L1438.921875,694.953125L1440.21875,697.894531L1440.652344,701.800781L1440.75,705.300781L1440.691406,709.535156L1440.550781,713.128906C1440.422119,716.192017,1440.30835,718.978455,1440.1875,722.042969L1439.8125,725.632813L1439.210938,729.222656C1438.560425,732.837158,1437.825928,736.435364,1437.007813,740.015625L1436.171875,743.480469L1435.28125,746.484375L1434.003906,749.007813L1433.4375,752.199219L1432.726563,755.179688L1431.730469,758.941406C1431.229492,760.740601,1430.712769,762.534241,1430.179688,764.324219L1427.941406,771.894531L1429.585938,773.375L1432.058594,772.910156C1433.707642,771.748779,1435.338501,770.564392,1436.953125,769.355469C1438.641357,768.229126,1440.307983,767.120972,1442,766L1444.039063,764.371094L1446.519531,762.246094L1449.332031,759.722656L1452.355469,756.910156C1454.380249,754.970825,1456.38855,753.028809,1458.394531,751.070313C1460.036865,749.479675,1461.695435,747.906799,1463.371094,746.351563C1464.842529,745.005981,1466.327881,743.673279,1467.824219,742.355469L1469.007813,739.910156L1470.449219,737.464844C1471.540527,735.895142,1472.627197,734.319946,1473.707031,732.742188L1475.222656,730.386719L1476.867188,727.648438L1478.46875,725.359375L1480.1875,723.332031L1482.820313,720.933594L1485.292969,719.527344L1487.933594,718.714844L1488.886719,716.367188L1489.78125,713.648438L1491.457031,710.660156L1493.539063,707.960938L1495.648438,706.125L1497.609375,704.496094L1499.429688,702.34375L1501.671875,699.953125L1504.414063,698.871094L1505.734375,700.964844L1505.933594,704.242188L1506.035156,707.191406C1506.142822,711.808899,1506.155884,716.429199,1506.074219,721.046875L1505.992188,723.902344L1505.855469,726.511719L1505.390625,731.285156L1504.59375,735.976563L1504.046875,738.488281L1503.382813,741.207031C1502.837769,743.338135,1502.269409,745.466919,1501.679688,747.585938L1500.445313,751.890625L1499.363281,755.25L1498.363281,757.84375L1496.847656,760.648438L1495.097656,762.675781L1493.589844,764.867188L1492.964844,767.5625L1491.921875,770.144531L1490.382813,773.320313L1488.507813,776.769531L1486.460938,780.1875L1484.402344,783.25C1483.264771,784.815247,1482.108887,786.370117,1480.9375,787.910156L1478.695313,790.789063L1476.5,793.488281L1474.335938,796.019531L1472.191406,798.402344L1470.054688,800.640625L1467.910156,802.753906L1465.75,804.753906L1463.554688,806.65625L1461.316406,808.472656L1459.019531,810.214844C1457.263184,811.482422,1455.491333,812.735352,1453.710938,813.96875C1451.323364,815.591492,1448.901978,817.165222,1446.449219,818.6875L1443.1875,820.570313L1440.074219,822.171875L1437.039063,823.523438L1434.007813,824.652344L1430.910156,825.59375L1427.675781,826.371094L1424.226563,827.015625L1420.492188,827.558594L1417.769531,827.871094L1414.101563,828.238281L1409.878906,828.480469L1406.132813,828.46875L1402.8125,828.199219L1399.882813,827.671875L1397.289063,826.878906L1394.707031,825.710938L1392.613281,823.816406L1391.277344,820.59375L1390.359375,817.886719L1389.628906,815.296875L1389.578125,812.792969L1387.316406,813.441406L1384.710938,815.335938C1383.349487,816.503113,1381.9729,817.653015,1380.582031,818.785156L1378.296875,820.113281L1377.015625,822.296875L1375.703125,824.65625L1374.085938,826.664063L1371.933594,828.582031L1369.128906,829.097656L1366.523438,828.851563L1363.992188,828.542969L1361.410156,828.136719L1361.898438,830.234375L1361.582031,832.714844L1359.328125,835.3125L1357.109375,837.738281L1356.054688,840.480469C1356.156128,843.46167,1356.265259,846.430298,1356.382813,849.410156C1356.546875,853.098145,1356.790283,856.783325,1357.113281,860.460938C1357.359131,862.784363,1357.59375,865.112061,1357.816406,867.4375L1357.910156,870.765625L1357.6875,873.925781L1357.113281,877.199219L1356.15625,880.863281C1355.332031,883.420288,1354.528564,885.977722,1353.742188,888.546875L1352.839844,891.933594L1352.167969,894.964844L1351.707031,898.394531L1351.09375,901.269531L1349.464844,904.152344L1347.441406,905.945313L1345.035156,907.550781L1342.585938,909.8125C1340.955566,911.572876,1339.337524,913.347351,1337.734375,915.132813L1335.792969,917.277344L1333.457031,917.65625L1330.648438,916.066406L1328.332031,914.183594L1326.328125,912.132813L1324.984375,909.847656L1322.90625,908.109375L1320.527344,906.488281L1318.027344,904.15625L1316.230469,901.464844L1315.21875,898.550781L1314.945313,895.65625L1314.410156,892.71875L1313.753906,889.875C1313.276978,888.02063,1312.776489,886.170227,1312.253906,884.328125L1311.179688,880.226563L1310.496094,876.984375L1310.148438,874.191406L1310.082031,871.429688L1310.246094,868.28125C1310.684326,863.25,1311.01123,858.209778,1311.226563,853.164063L1311.367188,850.097656L1311.601563,847.292969L1312.039063,844.367188L1312.855469,841.910156L1311.335938,839.226563C1309.870117,837.721313,1308.391235,836.213745,1306.914063,834.71875L1304.984375,832.464844L1305.886719,829.921875L1303.902344,828.851563L1301.070313,829.121094L1298.433594,829.199219L1295.546875,828.054688L1293.324219,826.644531L1290.339844,826.472656L1287.804688,827.246094L1284.871094,827.960938L1281.445313,828.652344L1277.875,829.257813L1274.511719,829.722656L1271.703125,829.984375L1268.464844,829.855469L1264.828125,829.414063C1260.639526,828.84375,1256.463135,828.200684,1252.296875,827.484375L1247.835938,826.703125L1244.542969,825.988281L1241.839844,825.171875L1239.160156,824.082031L1235.929688,822.542969C1234.065918,821.620056,1232.211426,820.692078,1230.355469,819.753906L1227.078125,818.054688L1224.089844,816.453125L1221.398438,814.949219L1218.996094,813.546875L1215.074219,811.027344L1212.316406,808.902344L1210.363281,806.4375L1208.414063,804.652344L1206.113281,803.296875L1203.695313,801.335938L1201.734375,799.539063L1199.84375,797.707031L1197.519531,795.695313L1195.324219,794.355469L1193.132813,792.867188L1190.90625,790.695313L1188.546875,788.113281L1186.472656,785.566406L1184.800781,782.8125L1183.324219,780.765625L1181.003906,778.796875L1179.378906,776.644531L1177.636719,773.945313L1175.910156,770.914063L1174.34375,767.769531L1173.136719,764.9375C1172.454224,763.277466,1171.79541,761.608521,1171.160156,759.929688L1169.839844,756.351563L1168.367188,751.988281L1167.25,748.210938L1166.542969,745.183594L1166.292969,742.429688L1165.667969,739.964844L1163.535156,738.71875L1162.570313,736.152344L1161.929688,733.480469C1161.456787,731.076294,1161.015381,728.665894,1160.605469,726.25L1159.746094,723.261719L1158.363281,720.65625L1157.546875,717.972656L1157.644531,715.367188L1158.019531,711.191406L1158.550781,708.175781L1159.402344,705.261719C1159.83728,703.407715,1160.295288,701.561035,1160.777344,699.71875L1163.910156,699.910156L1166.582031,701.390625L1168.761719,703.074219L1171.378906,705.402344L1174.535156,708.445313L1176.546875,710.386719L1178.539063,712.226563L1181.28125,714.617188L1183.4375,716.316406L1185.933594,717.953125L1187.773438,719.71875L1189.800781,722.542969L1191.699219,724.980469L1193.988281,727.777344L1196.382813,730.582031L1198.589844,733.054688L1200.527344,735.066406L1201.921875,737.308594C1202.589111,738.895264,1203.250244,740.483032,1203.90625,742.074219L1206.78125,744.023438L1209.570313,746.09375L1212.972656,748.855469L1216.316406,751.742188L1218.925781,754.195313L1220.714844,756.410156L1222.683594,758.121094L1224.9375,759.808594L1227.203125,761.664063C1228.623901,762.933777,1230.061035,764.183472,1231.515625,765.414063L1234.476563,767.410156L1237.230469,768.894531L1238.789063,768.511719C1238.195801,766.625305,1237.585449,764.746277,1236.957031,762.871094L1236.007813,759.941406L1235.125,756.871094L1234.40625,754C1234.056152,752.104004,1233.689819,750.206482,1233.308594,748.316406L1231.886719,746.261719L1231.03125,743.660156L1230.144531,739.992188L1229.347656,735.792969L1228.757813,731.617188L1228.484375,727.996094L1228.324219,725.074219L1227.945313,722.179688L1227.230469,719.226563L1226.828125,715.363281L1226.507813,710.511719L1226.308594,705.523438L1226.28125,701.25L1226.464844,698.546875L1227.625,695.957031L1229.953125,694.050781L1230.519531,692.742188L1228.320313,691.699219L1227.664063,689.019531L1227.535156,685.664063L1227.851563,681.5L1228.21875,678.972656L1228.691406,676.269531L1229.25,673.488281L1229.871094,670.722656L1230.535156,668.058594L1231.21875,665.59375L1232.558594,661.632813L1234.011719,659.324219L1234.019531,657.175781L1233.042969,654.804688L1233.210938,651.347656L1234.074219,648.234375C1235.449219,644.815552,1236.753052,641.367676,1237.984375,637.894531C1238.607178,636.111938,1239.247803,634.335938,1239.90625,632.566406L1242.300781,631.714844L1244.847656,631.066406L1242.710938,629.914063L1243.335938,627.058594L1244.292969,624.21875L1245.539063,621.019531L1246.949219,617.800781L1248.402344,614.90625C1249.836914,612.276245,1251.256348,609.632813,1252.65625,606.984375L1254.300781,604.617188L1256.113281,602.417969L1257.625,600.007813L1256.570313,599.355469L1254.949219,596.476563L1254.152344,593.09375C1253.280029,589.025269,1252.444336,584.950806,1251.644531,580.867188C1251.192627,578.537781,1250.769531,576.203125,1250.375,573.863281L1249.859375,570.625L1249.421875,567.515625L1249.054688,564.492188L1248.753906,561.519531L1248.515625,558.558594L1248.335938,555.566406L1248.210938,552.507813L1248.132813,549.34375C1248.081787,545.97876,1248.080444,542.610962,1248.128906,539.246094L1248.214844,536.597656L1248.628906,532.457031L1249.496094,529.378906L1250.972656,526.804688L1253.222656,524.171875C1254.908936,522.431335,1256.596924,520.702942,1258.296875,518.976563L1261.15625,517.960938L1264.472656,518.382813L1267.304688,518.808594L1269.742188,519.683594L1272.054688,521.554688L1274.171875,523.710938L1275.835938,525.75L1277.390625,528.390625L1278.871094,528.707031L1280.957031,527.230469L1283.824219,527.957031L1285.695313,529.925781L1286.953125,532.613281C1287.147461,534.484741,1287.36084,536.351624,1287.59375,538.21875L1289.722656,539.765625L1291.34375,541.855469L1291.441406,544.785156L1291.234375,547.835938L1290.945313,550.730469C1290.71582,552.734253,1290.460693,554.733276,1290.179688,556.730469L1289.890625,559.929688L1290.320313,562.472656L1291.128906,566.902344C1292.976074,565.745422,1294.837646,564.604797,1296.707031,563.484375L1299.171875,562.355469L1302.292969,561.890625L1305.136719,561.820313L1306.941406,560.441406L1308.117188,558.085938L1310.523438,556.355469L1313.136719,554.839844C1315.119141,553.774536,1317.123779,552.691528,1319.101563,551.617188L1321.722656,550.058594L1323.902344,548.242188L1324.609375,545.460938C1325.153564,543.535889,1325.703125,541.619751,1326.261719,539.699219L1326.941406,536.925781L1327.59375,533.960938L1328.132813,531.15625L1328.914063,527.34375L1329.828125,524.074219L1330.839844,521.417969L1332.476563,518.722656L1334.773438,517.832031L1336.597656,520.03125z"/>
    <path transform="matrix(-1,0,0,-1,0,0)" style="stroke:#ff0000;stroke-width:0.05mm;fill:none" d="M1371.796875,741.714844L1371.316406,741.886719C1370.854126,742.139465,1370.408691,742.422058,1369.984375,742.734375C1369.146362,743.316162,1368.336792,743.937988,1367.558594,744.597656C1366.555054,745.481262,1365.602661,746.421204,1364.707031,747.414063C1364.330566,747.815369,1363.960815,748.223267,1363.597656,748.636719L1363.375,749.113281L1363.386719,749.3125L1362.9375,749.339844C1362.633911,749.308044,1362.328491,749.301636,1362.023438,749.3125C1361.378052,749.394348,1360.733765,749.481689,1360.089844,749.574219C1359.569702,749.668762,1359.057129,749.800537,1358.554688,749.964844L1358.128906,750.148438L1358.175781,750.53125C1357.974731,750.344238,1357.755737,750.177612,1357.523438,750.03125C1356.669189,750.277283,1355.811157,750.508789,1354.949219,750.726563L1354.464844,750.902344L1354.003906,751.199219L1353.785156,751.546875L1353.507813,751.742188L1353.070313,751.769531L1352.433594,751.960938C1351.617676,752.249023,1350.824219,752.596924,1350.058594,753L1349.488281,753.34375L1349.066406,753.671875L1348.777344,754.003906L1348.847656,754.386719L1348.625,754.433594L1348.164063,754.308594L1347.71875,754.398438C1347.398804,754.58551,1347.092407,754.7948,1346.800781,755.023438C1346.212158,755.457581,1345.646851,755.922302,1345.105469,756.414063L1344.789063,756.78125C1344.568359,756.999634,1344.332397,757.201782,1344.085938,757.390625L1343.640625,757.757813C1343.155396,758.194763,1342.704468,758.668091,1342.289063,759.171875L1342.03125,759.523438L1341.898438,759.898438C1341.330322,760.459717,1340.811401,761.068665,1340.347656,761.71875C1340.161743,761.973083,1339.973633,762.228027,1339.785156,762.480469L1339.589844,762.3125L1339.527344,761.816406L1339.511719,761.25C1339.53479,760.945984,1339.564209,760.642456,1339.601563,760.339844C1339.624023,760.035645,1339.635864,759.730774,1339.640625,759.425781L1339.679688,759.011719L1339.800781,758.574219C1339.957031,757.558655,1340.0177,756.530762,1339.980469,755.503906C1340.122192,755.276855,1340.275757,755.031372,1340.417969,754.804688L1340.578125,754.417969C1340.771362,753.373352,1341.04126,752.344421,1341.386719,751.339844L1341.445313,750.9375L1341.425781,750.464844C1341.450928,749.832275,1341.518799,749.202209,1341.625,748.578125C1341.694946,748.165039,1341.748657,747.74939,1341.785156,747.332031L1341.800781,746.894531L1341.746094,746.410156L1341.480469,745.984375C1341.053467,746.166443,1340.619873,746.332947,1340.179688,746.480469L1339.738281,746.691406C1339.418457,746.861267,1339.108521,747.049255,1338.8125,747.257813L1338.542969,747.613281L1338.332031,748.03125L1338.023438,748.421875C1337.748169,748.698486,1337.475708,748.978638,1337.207031,749.261719L1336.921875,749.59375L1336.679688,749.957031L1336.714844,750.347656L1336.453125,750.65625L1336.117188,750.945313C1335.862671,751.220642,1335.623413,751.509644,1335.402344,751.8125C1334.869141,752.534119,1334.37085,753.280884,1333.910156,754.050781C1333.643188,754.522522,1333.416016,755.015564,1333.226563,755.523438L1333.097656,755.933594L1333.054688,756.417969C1332.96521,756.710388,1332.856689,756.996704,1332.726563,757.273438C1332.569214,757.775269,1332.457031,758.290283,1332.394531,758.8125C1332.397949,759.09021,1332.411011,759.367737,1332.433594,759.644531C1332.41748,759.947266,1332.383789,760.248901,1332.328125,760.546875L1332.273438,760.96875L1332.246094,761.460938L1332.28125,761.886719L1332.230469,762.304688L1332.09375,762.785156L1332.070313,763.339844C1332.119507,764.416504,1332.236938,765.488953,1332.421875,766.550781C1332.478516,766.926758,1332.541382,767.301697,1332.609375,767.675781C1332.673096,767.973145,1332.757446,768.265686,1332.863281,768.550781C1333.090576,769.075317,1333.331665,769.593506,1333.585938,770.105469C1333.901978,770.747681,1334.231323,771.383484,1334.574219,772.011719L1334.859375,772.445313C1335.510986,773.21759,1336.243164,773.917664,1337.042969,774.535156L1337.296875,774.9375L1337.320313,775.359375L1337.4375,775.839844C1337.609619,776.07428,1337.793457,776.299805,1337.988281,776.515625L1338.035156,776.871094L1337.621094,776.992188C1337.539063,777.275085,1337.478271,777.563721,1337.4375,777.855469L1337.332031,778.441406L1337.125,778.886719L1336.730469,779.007813C1336.307983,779.213379,1335.903442,779.45343,1335.515625,779.71875C1334.840576,780.158875,1334.155518,780.583679,1333.460938,780.992188L1333.039063,781.261719L1332.6875,781.527344C1332.440674,781.739563,1332.212402,781.972168,1332,782.21875C1331.567627,782.752441,1331.126465,783.278564,1330.675781,783.796875L1330.347656,784.136719L1329.996094,784.441406L1329.710938,784.84375L1329.527344,785.324219L1329.457031,785.863281L1329.46875,786.324219L1329.433594,786.753906L1329.261719,787.140625L1329.183594,787.589844L1329.152344,788.066406L1329.207031,788.578125L1329.472656,788.84375C1330.005615,788.902832,1330.538574,788.966431,1331.070313,789.035156L1331.589844,789.144531L1332.023438,789.304688L1332.441406,789.402344L1332.964844,789.347656C1333.282471,789.224487,1333.589233,789.075073,1333.882813,788.902344L1334.339844,788.707031C1334.914307,788.491272,1335.495605,788.293945,1336.082031,788.113281C1336.439819,787.989441,1336.789429,787.843384,1337.125,787.667969C1337.424927,787.498413,1337.710327,787.304565,1337.976563,787.085938C1339.046631,786.126953,1340.15979,785.217285,1341.3125,784.359375L1341.765625,784.242188C1342.119751,784.291382,1342.475464,784.328491,1342.832031,784.355469L1343.183594,784.167969L1343.410156,783.910156C1343.586426,784.284058,1343.783691,784.647766,1344,785L1344.328125,785.316406L1344.773438,785.417969L1345.183594,785.441406C1345.460449,785.410583,1345.738281,785.381653,1346.015625,785.355469L1346.398438,785.53125C1346.675171,785.604492,1346.952881,785.676208,1347.230469,785.746094L1347.714844,785.910156L1348.007813,786.140625L1347.691406,786.382813L1347.421875,786.714844C1347.218628,786.985291,1347.031006,787.26709,1346.859375,787.558594L1346.808594,788.003906L1346.894531,788.449219L1347.035156,788.855469L1347.238281,789.285156L1347.511719,789.742188C1347.859741,790.254089,1348.244629,790.73999,1348.664063,791.195313C1349.130127,791.732178,1349.635498,792.233887,1350.179688,792.691406L1350.585938,793.003906C1351.022705,793.314087,1351.484619,793.587219,1351.96875,793.816406L1352.511719,794.066406C1353.537231,794.500061,1354.588867,794.868591,1355.660156,795.171875C1356.613037,795.412109,1357.585815,795.56488,1358.566406,795.628906C1359.447388,795.698181,1360.331665,795.718384,1361.214844,795.6875L1361.847656,795.640625C1362.241577,795.597595,1362.633911,795.541443,1363.023438,795.46875L1363.453125,795.363281L1363.863281,795.195313L1364.285156,795.1875L1364.710938,795.226563L1365.214844,795.164063L1365.644531,795.054688C1366.656616,794.733154,1367.652466,794.362732,1368.628906,793.945313L1369.3125,793.613281L1369.972656,793.234375C1371.11438,792.497314,1372.218018,791.702759,1373.277344,790.851563L1373.425781,790.484375L1373.03125,790.230469C1372.712158,790.174744,1372.390015,790.139099,1372.066406,790.125C1371.792236,790.048767,1371.515991,789.980408,1371.238281,789.917969L1370.695313,789.898438L1370.152344,789.957031L1369.71875,790.089844L1369.324219,790.183594L1368.976563,789.917969L1368.5625,789.726563L1368.007813,789.609375L1367.585938,789.574219C1367.2677,789.570923,1366.949585,789.586182,1366.632813,789.617188L1366.1875,789.640625C1365.877686,789.646362,1365.58313,789.651489,1365.273438,789.65625L1364.824219,789.695313L1364.394531,789.765625C1363.293701,789.518005,1362.186401,789.299683,1361.074219,789.109375C1360.354614,788.976135,1359.641479,788.809326,1358.9375,788.609375C1358.483643,788.423584,1358.022339,788.256714,1357.554688,788.109375L1357.117188,787.957031L1356.828125,787.679688L1356.867188,787.328125C1357.899902,786.988525,1358.922729,786.618774,1359.933594,786.21875L1360.398438,785.996094L1360.84375,785.929688C1361.457397,785.720032,1362.060059,785.479614,1362.648438,785.207031C1363.093262,785.010193,1363.533447,784.80304,1363.96875,784.585938L1364.472656,784.300781C1365.026855,783.93573,1365.585083,783.569641,1366.140625,783.207031C1366.661743,782.87085,1367.153198,782.490723,1367.605469,782.066406L1367.867188,781.625L1367.78125,781.21875L1367.613281,780.835938L1367.828125,780.757813L1368.210938,781.117188L1368.605469,781.171875C1368.931152,780.974243,1369.23999,780.750061,1369.527344,780.5C1370.276001,779.857117,1370.971558,779.155212,1371.609375,778.402344L1371.957031,777.917969L1372.226563,777.488281L1372.648438,777.359375L1373,777.125C1373.525024,776.46344,1374.01416,775.774292,1374.46875,775.0625C1374.682007,774.741394,1374.878052,774.409058,1375.054688,774.066406L1375.195313,773.664063L1375.457031,773.328125C1376.078857,772.27771,1376.618896,771.180969,1377.070313,770.046875L1377.378906,769.746094C1378.513794,769.285217,1379.63208,768.784424,1380.730469,768.242188C1382.817749,767.188599,1384.803345,765.944458,1386.660156,764.523438L1387.132813,764.09375L1387.429688,763.6875L1387.597656,763.242188C1387.67041,762.861511,1387.720337,762.476807,1387.742188,762.089844L1387.785156,761.589844L1387.628906,761.152344C1387.404175,760.921387,1387.17749,760.692322,1386.949219,760.464844L1386.554688,760.238281C1386.212891,760.208191,1385.869385,760.179443,1385.527344,760.152344L1385.132813,759.972656C1384.788696,759.667847,1384.452026,759.354431,1384.125,759.03125C1383.841675,759.09491,1383.588013,759.151672,1383.304688,759.214844L1382.839844,759.394531L1382.5,759.660156L1382.097656,759.703125L1381.671875,759.609375L1381.277344,759.6875C1380.718628,760.188171,1380.15625,760.683716,1379.589844,761.175781L1379.214844,761.480469L1378.871094,761.679688L1378.714844,761.285156C1378.650757,760.94397,1378.602661,760.599915,1378.574219,760.253906L1378.503906,759.789063C1378.420898,759.514465,1378.335938,759.238586,1378.25,758.964844C1378.274536,758.675171,1378.283691,758.384399,1378.277344,758.09375L1378.210938,757.652344C1378.123291,757.351135,1378.064453,757.042419,1378.03125,756.730469L1377.996094,756.285156L1378.089844,755.90625L1378.417969,755.636719C1379.237671,754.664307,1380.018311,753.659668,1380.757813,752.625L1381.078125,752.148438L1381.195313,751.707031L1380.867188,751.492188L1380.367188,751.527344C1379.842651,751.652588,1379.335083,751.839355,1378.851563,752.078125C1378.290649,752.348022,1377.714111,752.584167,1377.125,752.785156C1376.828369,752.888123,1376.53418,752.997803,1376.242188,753.113281L1375.804688,753C1375.522583,752.88446,1375.246338,752.755249,1374.976563,752.613281C1374.639648,752.443115,1374.298218,752.281799,1373.953125,752.128906L1373.503906,751.976563L1373.089844,752.042969L1372.746094,751.9375L1372.472656,751.574219L1372.121094,751.214844C1371.845093,751.04657,1371.55542,750.901917,1371.253906,750.785156L1370.785156,750.589844C1371.043213,750.315552,1371.307739,750.047363,1371.578125,749.785156C1372.003662,749.539307,1372.433228,749.300903,1372.867188,749.070313C1373.148315,748.923157,1373.420654,748.759644,1373.683594,748.582031L1374.054688,748.296875L1374.175781,747.894531L1374.179688,747.476563C1374.399292,747.272766,1374.622314,747.072449,1374.847656,746.875L1375.082031,746.460938L1375.164063,746.035156L1374.992188,745.597656L1374.605469,745.460938L1374.511719,745.242188L1374.707031,744.796875L1374.820313,744.390625C1374.886841,744.078369,1374.924194,743.76062,1374.929688,743.441406L1374.820313,743.046875C1374.676514,742.74884,1374.52356,742.455322,1374.359375,742.167969L1373.960938,741.890625C1373.57959,741.833252,1373.201294,741.774902,1372.820313,741.714844L1372.269531,741.667969L1371.796875,741.714844z"/>
    <path transform="matrix(-1,0,0,-1,0,0)" style="stroke:#ff0000;stroke-width:0.05mm;fill:none" d="M1341.132813,668.886719L1340.507813,669.066406C1340.119141,669.211426,1339.717285,669.360474,1339.328125,669.503906L1338.953125,669.882813C1338.817627,670.227539,1338.69043,670.575439,1338.570313,670.925781L1338.53125,671.445313C1338.664795,671.818481,1338.804077,672.189758,1338.949219,672.558594L1338.953125,673.054688C1338.868652,673.38916,1338.767212,673.719116,1338.648438,674.042969L1338.476563,674.5625C1338.670898,674.817749,1338.868042,675.072021,1339.066406,675.324219L1339.484375,675.71875L1339.925781,675.9375L1340.167969,676.335938L1340.28125,676.824219L1340.554688,677.199219C1341.349976,677.528564,1342.14209,677.867493,1342.929688,678.214844L1343.433594,678.453125L1343.808594,678.714844L1343.476563,679.070313C1343.158936,679.310913,1342.824097,679.52771,1342.476563,679.722656L1342.027344,680.023438C1341.773438,680.25531,1341.550537,680.459045,1341.296875,680.691406C1340.985229,680.815369,1340.678223,680.950623,1340.375,681.09375L1339.953125,681.382813C1339.547241,681.724976,1339.108154,682.025879,1338.640625,682.277344L1338.199219,682.363281L1337.761719,682.15625C1336.347046,681.787354,1334.919067,681.471863,1333.480469,681.210938L1332.828125,681.113281L1332.3125,681.207031L1332.25,681.65625L1332.535156,682.15625L1332.871094,682.554688C1333.17749,682.878296,1333.506958,683.17926,1333.855469,683.457031C1334.410156,683.906555,1334.936768,684.389587,1335.433594,684.902344C1335.687988,685.158508,1335.946899,685.410156,1336.210938,685.65625L1336.308594,686.167969C1336.329468,686.517822,1336.329834,686.86853,1336.316406,687.21875C1336.30542,687.652283,1336.305664,688.085999,1336.316406,688.519531L1336.378906,689.058594L1336.652344,689.457031L1336.710938,689.867188L1336.46875,690.328125L1336.265625,690.867188L1336.226563,691.363281C1336.240356,691.761841,1336.25708,692.160339,1336.277344,692.558594C1335.866455,692.427795,1335.45874,692.287354,1335.054688,692.136719C1334.587036,691.818665,1334.127197,691.489075,1333.675781,691.148438C1333.379639,690.935974,1333.076416,690.733337,1332.765625,690.542969L1332.289063,690.296875L1331.8125,690.367188L1331.375,690.570313C1331.05481,690.444824,1330.737305,690.312744,1330.421875,690.175781L1329.878906,690.136719L1329.398438,690.261719L1329.023438,690.65625L1329.074219,691.121094L1328.894531,691.328125L1328.332031,691.34375L1327.859375,691.429688C1327.502075,691.509888,1327.153931,691.626404,1326.820313,691.777344L1326.460938,692.089844C1326.222656,692.384338,1325.995483,692.687622,1325.78125,693L1325.6875,693.546875C1325.813599,693.96759,1325.942017,694.39917,1326.066406,694.820313L1326.289063,695.414063L1326.566406,695.878906L1326.984375,696.292969L1327.609375,696.726563C1328.911377,697.516174,1330.258789,698.22821,1331.644531,698.859375C1332.887817,699.397522,1334.15918,699.868225,1335.453125,700.269531C1336.226685,700.522583,1337.005615,700.759705,1337.789063,700.980469L1338.394531,700.980469L1338.59375,700.867188L1338.84375,701.324219C1338.956421,701.656128,1339.097168,701.977844,1339.265625,702.285156C1339.567749,702.743958,1339.86499,703.206177,1340.15625,703.671875C1340.596924,704.344849,1341.097046,704.976807,1341.648438,705.5625L1342.050781,705.917969L1342.425781,705.675781L1342.300781,706.144531L1342.222656,706.601563C1342.901001,707.363953,1343.563965,708.140442,1344.210938,708.929688L1344.632813,709.34375L1345.171875,709.679688L1345.636719,709.734375L1345.980469,709.925781L1346.21875,710.367188C1346.713745,710.933838,1347.249268,711.463867,1347.824219,711.949219C1348.382813,712.451782,1348.981689,712.907593,1349.617188,713.308594L1350.167969,713.585938L1350.652344,713.71875L1351.015625,713.460938L1351.175781,713.667969L1351.273438,714.210938L1351.582031,714.625L1352,714.898438C1352.95752,715.438293,1353.946167,715.920959,1354.960938,716.34375L1355.496094,716.496094L1355.992188,716.691406C1356.35083,716.868774,1356.712891,717.039551,1357.078125,717.203125C1357.771484,717.486328,1358.482666,717.723816,1359.207031,717.914063L1359.699219,718.007813L1360.15625,717.964844C1360.492798,718.072388,1360.828735,718.181946,1361.164063,718.292969C1361.867554,718.488708,1362.580811,718.647644,1363.300781,718.769531L1363.875,718.882813L1363.796875,719.167969L1363.3125,719.476563L1362.730469,719.773438C1362.232666,719.945374,1361.739136,720.129211,1361.25,720.324219C1360.951172,720.469116,1360.643799,720.595886,1360.328125,720.699219L1359.816406,720.789063C1358.889893,721.071167,1357.984375,721.417358,1357.105469,721.824219L1356.539063,722.113281C1356.226318,722.075684,1355.914673,722.039307,1355.601563,722.003906L1355.117188,722.027344C1353.939575,722.344238,1352.73938,722.569214,1351.527344,722.703125L1351.078125,722.839844L1350.597656,723.09375C1349.928101,723.376099,1349.241577,723.616516,1348.542969,723.816406C1348.080811,723.948608,1347.623169,724.096313,1347.171875,724.261719L1346.707031,724.460938L1346.230469,724.757813L1345.921875,725.242188C1346.173218,725.483276,1346.428467,725.720276,1346.6875,725.953125L1347.078125,726.351563L1347.511719,726.703125C1347.847412,726.94751,1348.195435,727.174561,1348.554688,727.382813L1349.058594,727.492188L1349.597656,727.503906L1350.152344,727.628906C1350.728027,727.84906,1351.314819,728.03949,1351.910156,728.199219L1352.40625,728.273438L1352.796875,728.042969L1353.246094,728.160156L1353.710938,728.367188C1354.12146,728.49469,1354.538818,728.59845,1354.960938,728.679688C1355.972534,728.879456,1356.993286,729.029236,1358.019531,729.128906C1358.641357,729.173706,1359.265625,729.167725,1359.886719,729.113281L1360.375,729.046875L1360.898438,728.847656C1361.244995,728.796997,1361.594971,728.773254,1361.945313,728.773438C1362.542114,728.679443,1363.130981,728.541199,1363.707031,728.359375C1363.998047,728.227356,1364.280396,728.076599,1364.550781,727.90625C1364.874146,727.778198,1365.203735,727.666626,1365.539063,727.574219C1365.875977,727.47052,1366.207153,727.349548,1366.53125,727.210938L1366.953125,726.960938L1367.410156,726.808594L1367.980469,726.714844L1368.566406,726.464844C1369.659912,725.884094,1370.715088,725.233704,1371.726563,724.519531C1372.089111,724.279175,1372.445679,724.030151,1372.796875,723.773438C1373.078613,723.566772,1373.341919,723.335999,1373.582031,723.082031C1373.907593,722.725647,1374.217651,722.355469,1374.511719,721.972656C1375.141724,721.199097,1375.749023,720.407166,1376.332031,719.597656L1376.640625,719.089844C1377.048096,718.178101,1377.381348,717.234985,1377.636719,716.269531L1377.738281,715.796875L1378.03125,715.335938L1378.453125,715.105469L1378.894531,714.746094C1379.056885,714.452881,1379.200928,714.149963,1379.328125,713.839844L1379.671875,713.617188L1380,713.988281C1380.334351,713.932617,1380.664551,713.854187,1380.988281,713.753906L1381.648438,713.574219L1382.210938,713.570313L1382.53125,713.917969C1382.954956,714.253113,1383.401001,714.559021,1383.867188,714.832031C1384.65564,715.316101,1385.433228,715.817078,1386.199219,716.335938L1386.6875,716.640625C1386.984741,716.807312,1387.293579,716.952209,1387.613281,717.070313C1388.206177,717.253479,1388.805664,717.414368,1389.410156,717.554688C1389.948853,717.672668,1390.478271,717.829651,1390.996094,718.019531L1391.484375,718.234375L1392.042969,718.332031L1392.632813,718.28125L1393.226563,718.089844L1393.699219,717.855469L1394.160156,717.675781L1394.648438,717.664063L1395.152344,717.527344L1395.660156,717.324219L1396.164063,717.015625L1396.3125,716.609375C1396.113159,716.023682,1395.918457,715.446289,1395.722656,714.859375L1395.578125,714.265625L1395.535156,713.738281L1395.429688,713.253906L1395.113281,712.734375C1394.825806,712.471741,1394.522461,712.226807,1394.203125,712.003906C1393.730469,711.604919,1393.285889,711.173706,1392.871094,710.714844C1392.53125,710.335327,1392.172729,709.9729,1391.796875,709.628906L1391.324219,709.246094C1391.002075,709.016052,1390.659302,708.816406,1390.300781,708.648438C1389.909058,708.475342,1389.516113,708.30603,1389.121094,708.140625C1388.008301,707.63562,1386.910156,707.099121,1385.828125,706.53125L1385.484375,706.117188C1385.357056,705.726318,1385.22168,705.338318,1385.078125,704.953125L1384.710938,704.683594L1384.332031,704.574219C1384.631104,704.205811,1384.910767,703.82196,1385.171875,703.425781L1385.339844,702.929688L1385.226563,702.414063L1385.046875,701.976563C1384.875488,701.70813,1384.709961,701.435913,1384.550781,701.160156L1384.542969,700.675781C1384.485107,700.352173,1384.424316,700.029358,1384.359375,699.707031L1384.289063,699.121094L1384.386719,698.703125L1384.789063,698.914063C1385.321777,699.059631,1385.86731,699.153748,1386.417969,699.195313L1386.90625,699.03125L1387.324219,698.722656L1387.683594,698.378906L1388.027344,697.957031C1388.278687,697.60376,1388.504883,697.233215,1388.703125,696.847656C1389.197266,695.871399,1389.61377,694.857849,1389.949219,693.816406L1390.113281,693.226563C1390.258911,692.646545,1390.350342,692.054138,1390.382813,691.457031C1390.417114,690.670227,1390.399414,689.881958,1390.328125,689.097656C1390.27063,688.34259,1390.189087,687.589539,1390.082031,686.839844C1389.904541,685.752075,1389.625854,684.683105,1389.246094,683.648438C1388.836182,682.500366,1388.35144,681.380493,1387.792969,680.296875C1387.460815,679.682983,1387.086182,679.093018,1386.671875,678.53125L1386.351563,678.132813L1385.976563,677.792969L1385.761719,677.355469L1385.59375,676.894531L1385.277344,676.402344C1385.037842,676.101013,1384.781982,675.81311,1384.511719,675.539063C1383.812744,674.819397,1383.086792,674.126404,1382.335938,673.460938L1381.65625,672.914063C1380.989258,672.434265,1380.292236,671.997742,1379.570313,671.605469C1378.677734,671.088806,1377.765503,670.606873,1376.835938,670.160156L1376.382813,670.1875L1376.3125,670.71875C1376.411255,671.077637,1376.532837,671.429749,1376.675781,671.773438C1376.731567,672.095276,1376.795654,672.415649,1376.867188,672.734375L1377.113281,673.308594L1377.445313,673.84375C1377.675415,674.078857,1377.889282,674.329102,1378.089844,674.589844L1377.984375,675.082031L1377.988281,675.605469L1378.136719,676.238281L1378.308594,676.695313C1378.459961,677.027466,1378.632446,677.349609,1378.824219,677.660156C1379.069336,678.120117,1379.305176,678.585083,1379.53125,679.054688C1379.69165,679.354126,1379.875732,679.64032,1380.082031,679.910156C1380.30249,680.918213,1380.551147,681.920044,1380.828125,682.914063C1381.084961,683.825195,1381.303589,684.746643,1381.484375,685.675781L1381.566406,686.148438C1381.594727,686.710449,1381.648438,687.270874,1381.726563,687.828125L1381.785156,688.355469L1381.640625,688.789063L1381.257813,688.921875C1380.521729,688.156982,1379.771484,687.405334,1379.007813,686.667969C1378.731445,686.399475,1378.439697,686.147095,1378.132813,685.914063L1377.84375,685.484375C1377.447266,685.072876,1377.031494,684.680542,1376.597656,684.308594C1376.04895,683.823547,1375.486328,683.35437,1374.910156,682.902344L1374.371094,682.523438C1373.503174,681.983398,1372.626953,681.457153,1371.742188,680.945313L1371.175781,680.648438L1370.511719,680.371094L1369.925781,680.316406L1369.542969,680.605469L1369.230469,680.964844L1369.042969,680.785156L1369.226563,680.207031L1369.089844,679.773438L1368.550781,679.441406C1367.331543,678.83905,1366.054321,678.362244,1364.738281,678.019531C1364.324951,677.928589,1363.906006,677.865417,1363.484375,677.828125L1363.144531,677.453125L1362.726563,677.203125C1362.281494,677.085144,1361.830322,676.991028,1361.375,676.921875C1360.648193,676.795898,1359.917236,676.694214,1359.183594,676.617188L1358.539063,676.578125L1358.054688,676.628906L1357.574219,676.523438C1356.179321,676.396118,1354.776855,676.376892,1353.378906,676.464844L1352.914063,676.292969C1351.877441,675.34137,1350.806641,674.427856,1349.703125,673.554688C1347.582764,671.906494,1345.313965,670.458923,1342.925781,669.230469L1342.246094,668.949219L1341.679688,668.839844L1341.132813,668.886719z"/>
    <path transform="matrix(-1,0,0,-1,0,0)" style="stroke:#ff0000;stroke-width:0.05mm;fill:none" d="M1286.445313,674.148438L1286.253906,674.480469L1286.132813,674.804688C1286.021851,675.202332,1285.938477,675.607117,1285.878906,676.015625C1285.789307,676.488831,1285.673828,676.956787,1285.535156,677.417969L1285.453125,677.757813L1285.191406,677.984375C1284.850098,678.192078,1284.503784,678.391785,1284.152344,678.582031L1283.835938,678.769531L1283.546875,678.984375L1283.40625,679.273438L1283.191406,679.445313C1282.947388,679.447083,1282.704224,679.471985,1282.464844,679.519531L1282.164063,679.660156C1281.939209,679.800293,1281.7146,679.942017,1281.492188,680.085938C1281.435181,679.804993,1281.380493,679.524048,1281.328125,679.242188C1281.362061,678.866699,1281.399658,678.491821,1281.441406,678.117188C1281.48938,677.758545,1281.50415,677.395935,1281.476563,677.035156L1281.277344,676.785156L1281.011719,676.601563C1280.980713,676.373901,1280.952148,676.146179,1280.925781,675.917969L1280.769531,675.59375L1280.535156,675.355469L1280.1875,675.273438L1279.933594,675.457031L1279.753906,675.421875L1279.558594,675.101563C1279.421143,674.918274,1279.265259,674.749573,1279.09375,674.597656L1278.808594,674.371094L1278.507813,674.269531C1278.258423,674.233276,1278.008545,674.200867,1277.757813,674.175781L1277.414063,674.304688C1277.212524,674.518005,1277.007568,674.733337,1276.804688,674.945313L1276.535156,675.273438L1276.359375,675.585938L1276.257813,675.964844L1276.214844,676.46875C1276.180786,677.727234,1276.248169,678.986389,1276.414063,680.234375C1276.556274,681.125305,1276.727783,682.011353,1276.929688,682.890625C1276.990723,683.178955,1277.059448,683.465576,1277.136719,683.75L1277.335938,684.097656L1277.46875,684.175781L1277.289063,684.472656C1277.135498,684.648254,1276.997559,684.83667,1276.875,685.035156C1276.644043,685.473755,1276.419067,685.9151,1276.199219,686.359375C1276.083252,686.618042,1275.978149,686.88147,1275.882813,687.148438C1275.801392,687.374084,1275.74353,687.6073,1275.703125,687.84375L1275.964844,687.980469L1275.65625,688.0625L1275.363281,688.171875C1275.150635,688.816528,1274.922607,689.455994,1274.679688,690.089844L1274.582031,690.46875L1274.566406,690.890625L1274.6875,691.179688L1274.691406,691.441406L1274.519531,691.722656C1274.197266,692.671692,1274.00415,693.659607,1273.945313,694.660156L1273.96875,695.066406L1274.054688,695.390625L1274.320313,695.515625L1274.253906,695.675781L1273.976563,695.914063L1273.839844,696.230469L1273.820313,696.558594C1273.826172,697.289917,1273.875122,698.020264,1273.964844,698.746094L1274.058594,699.105469C1274.103149,699.338684,1274.130005,699.575073,1274.132813,699.8125C1274.151245,700.131287,1274.192749,700.448303,1274.253906,700.761719C1274.307983,701.083191,1274.378418,701.401672,1274.46875,701.714844L1274.578125,702.03125L1274.753906,702.28125C1274.809814,702.508728,1274.858154,702.737976,1274.898438,702.96875C1275.064819,703.562073,1275.251465,704.149475,1275.457031,704.730469L1275.269531,704.777344L1274.929688,704.601563L1274.566406,704.363281C1274.385498,704.21814,1274.20874,704.067932,1274.035156,703.914063C1273.85437,703.766357,1273.668335,703.625305,1273.476563,703.492188L1273.234375,703.285156L1273.015625,703.019531C1272.445679,702.479004,1271.825806,701.99353,1271.164063,701.570313C1271.083252,701.376465,1271,701.183838,1270.914063,700.992188L1270.742188,700.722656C1270.170288,700.146362,1269.64209,699.528442,1269.160156,698.875L1268.933594,698.660156C1268.609741,698.460938,1268.30481,698.2323,1268.023438,697.976563C1267.726318,697.706421,1267.431641,697.433044,1267.140625,697.15625C1266.954224,696.983887,1266.758179,696.822266,1266.550781,696.675781L1266.222656,696.5L1265.839844,696.484375C1265.7677,696.831421,1265.682617,697.17572,1265.582031,697.515625C1265.510132,697.909912,1265.477295,698.31012,1265.476563,698.710938L1265.582031,699.035156L1265.753906,699.351563L1265.863281,699.714844C1265.930664,700.119629,1266.017212,700.520996,1266.121094,700.917969L1266.242188,701.226563L1266.503906,701.375C1266.569214,701.581421,1266.606201,701.795532,1266.617188,702.011719C1266.801392,702.723938,1267.038086,703.42157,1267.328125,704.097656C1267.416382,704.315552,1267.509644,704.531433,1267.605469,704.746094C1267.828857,705.221619,1268.1073,705.669495,1268.4375,706.078125L1268.722656,706.316406L1268.90625,706.5625L1269.113281,706.894531C1269.366089,707.207336,1269.641113,707.501526,1269.9375,707.773438L1270.207031,707.949219L1270.476563,708.109375L1270.761719,708.351563L1270.996094,708.570313C1271.1698,708.728394,1271.350098,708.878845,1271.535156,709.023438L1271.820313,709.183594L1272.058594,709.398438L1272.300781,709.695313C1272.652222,709.966064,1273.025879,710.206482,1273.417969,710.414063C1274.130249,710.802795,1274.8573,711.163818,1275.597656,711.496094C1275.809448,711.589478,1276.029419,711.662476,1276.253906,711.71875C1276.954712,711.853271,1277.659424,711.967163,1278.367188,712.058594C1278.636108,712.09491,1278.905762,712.125977,1279.175781,712.152344L1279.570313,712.160156C1280.338623,712.090454,1281.09668,711.936523,1281.832031,711.703125L1282.195313,711.71875L1282.46875,711.886719L1282.824219,712.019531C1283.046631,712.024109,1283.269043,712.006836,1283.488281,711.96875L1283.730469,712.097656L1283.628906,712.40625C1283.769043,712.58252,1283.921631,712.748718,1284.089844,712.898438L1284.410156,713.21875L1284.601563,713.542969L1284.507813,713.84375C1284.453979,714.199402,1284.42334,714.558228,1284.421875,714.917969C1284.404785,715.533142,1284.373657,716.14801,1284.328125,716.761719L1284.3125,717.144531C1284.312134,717.371277,1284.33374,717.597412,1284.375,717.820313C1284.493164,718.346558,1284.633301,718.867615,1284.792969,719.382813C1284.852539,719.615173,1284.903687,719.84967,1284.945313,720.085938L1284.984375,720.4375L1285.113281,720.792969L1285.335938,721.117188L1285.644531,721.398438L1285.9375,721.589844L1286.191406,721.796875L1286.359375,722.074219L1286.609375,722.320313L1286.894531,722.546875L1287.238281,722.734375L1287.523438,722.683594C1287.791016,722.374634,1288.061523,722.068542,1288.335938,721.765625L1288.632813,721.484375C1288.826782,721.366516,1289.005127,721.224548,1289.164063,721.0625L1289.359375,720.710938L1289.429688,720.359375C1289.486816,719.810303,1289.606323,719.269653,1289.78125,718.746094C1289.935303,718.297729,1290.049561,717.836487,1290.117188,717.367188L1290.136719,716.984375C1290.131714,716.695557,1290.109863,716.407288,1290.070313,716.121094C1289.962036,715.182922,1289.891357,714.240784,1289.859375,713.296875L1289.984375,712.960938C1290.169312,712.760925,1290.34729,712.554749,1290.519531,712.34375L1290.554688,712.039063L1290.492188,711.785156C1290.804199,711.834656,1291.11853,711.867493,1291.433594,711.890625L1291.773438,711.820313L1292.035156,711.585938C1292.171631,711.420288,1292.289429,711.240112,1292.382813,711.046875L1292.535156,710.78125C1292.729126,710.675293,1292.909546,710.546204,1293.070313,710.394531L1293.308594,710.1875L1293.621094,709.953125L1293.898438,709.871094L1293.90625,710.175781C1294.001953,710.530029,1294.128296,710.875305,1294.285156,711.207031L1294.542969,711.433594L1294.859375,711.570313L1295.175781,711.664063L1295.535156,711.722656C1295.820801,711.748779,1296.107788,711.755432,1296.394531,711.746094C1297.257935,711.700195,1298.115112,711.572571,1298.953125,711.359375C1299.204468,711.283691,1299.452881,711.198303,1299.695313,711.097656C1300.295166,710.823792,1300.86853,710.494995,1301.40625,710.113281C1302.125244,709.643005,1302.800903,709.109314,1303.421875,708.515625C1304.254883,707.667053,1304.997559,706.734558,1305.640625,705.734375L1305.886719,705.316406C1306.091675,704.954468,1306.267944,704.576904,1306.414063,704.1875L1306.484375,703.855469L1306.664063,703.585938L1306.875,703.339844C1306.99707,703.129517,1307.097046,702.907166,1307.171875,702.675781C1307.411377,701.901062,1307.612427,701.11499,1307.773438,700.320313L1307.863281,699.746094L1307.914063,699.164063C1307.948608,698.127258,1307.929199,697.089417,1307.855469,696.054688L1307.691406,695.800781L1307.359375,695.9375C1307.184326,696.112671,1307.019897,696.298218,1306.871094,696.496094C1306.706299,696.637085,1306.544067,696.780762,1306.382813,696.925781C1306.2052,697.139832,1306.053223,697.373901,1305.933594,697.625L1305.828125,697.957031L1305.71875,698.246094L1305.398438,698.347656L1305.097656,698.523438L1304.78125,698.820313C1304.550415,699.085388,1304.353149,699.377502,1304.1875,699.6875C1304.005371,699.983032,1303.815308,700.27356,1303.617188,700.558594C1303.499634,700.751221,1303.396118,700.952148,1303.308594,701.160156C1302.673218,701.742859,1302.053101,702.341797,1301.449219,702.957031C1301.051392,703.350952,1300.635376,703.726257,1300.203125,704.082031C1299.792725,704.353333,1299.3927,704.639954,1299.003906,704.941406L1298.703125,705L1298.5,704.824219C1298.699951,704.147339,1298.885254,703.46637,1299.054688,702.78125L1299.136719,702.414063L1299.199219,702.027344L1299.351563,701.714844C1299.575562,700.877258,1299.747925,700.026794,1299.867188,699.167969C1299.899292,698.800232,1299.918945,698.43158,1299.925781,698.0625C1299.956665,697.463989,1299.958252,696.864258,1299.929688,696.265625L1299.871094,695.789063L1299.707031,695.433594L1299.414063,695.3125L1299.101563,695.25L1299.144531,695.082031L1299.539063,694.996094L1299.742188,694.773438L1299.757813,694.351563C1299.699829,693.44812,1299.551514,692.552795,1299.3125,691.679688C1299.227173,691.411926,1299.124634,691.150085,1299.007813,690.894531L1299.109375,690.574219L1299.117188,690.25C1298.930298,689.633423,1298.711548,689.027039,1298.460938,688.433594C1298.357666,688.156433,1298.233276,687.887573,1298.089844,687.628906L1297.898438,687.367188L1297.800781,687.054688C1297.412476,686.207214,1296.959106,685.391174,1296.445313,684.613281L1296.390625,684.289063C1296.567871,683.484863,1296.723022,682.676086,1296.855469,681.863281C1297.141968,679.98584,1297.240845,678.084595,1297.152344,676.1875L1297.085938,675.703125L1296.964844,675.339844L1296.753906,675.039063C1296.545288,674.830017,1296.325439,674.632385,1296.09375,674.449219L1295.800781,674.203125L1295.457031,674.113281C1295.213745,674.14801,1294.971313,674.189514,1294.730469,674.238281L1294.414063,674.386719C1294.249512,674.591675,1294.083008,674.794739,1293.914063,674.996094L1293.628906,675.164063C1293.407837,675.226685,1293.183472,675.277527,1292.957031,675.316406L1292.601563,675.390625C1292.516113,675.586609,1292.434937,675.784363,1292.359375,675.984375L1292.269531,676.351563L1292.289063,676.679688L1292.140625,676.953125L1291.894531,677.179688L1291.769531,677.460938C1291.861206,678.150574,1291.938232,678.842163,1292,679.535156L1291.976563,679.839844L1291.660156,679.765625C1291.415649,679.661255,1291.177856,679.541809,1290.949219,679.40625L1290.628906,679.246094C1290.418579,679.181824,1290.208862,679.115845,1290,679.046875C1289.823608,678.911438,1289.645752,678.777832,1289.464844,678.648438L1289.15625,678.5C1288.824341,678.377441,1288.50415,678.225037,1288.203125,678.039063L1288.007813,677.816406L1287.984375,677.492188C1287.694458,676.411316,1287.348755,675.346191,1286.949219,674.300781L1286.726563,674.039063L1286.445313,674.148438z"/>
    <path transform="matrix(-1,0,0,-1,0,0)" style="stroke:#ff0000;stroke-width:0.05mm;fill:none" d="M1392.480469,622.5C1391.980225,622.496887,1391.482056,622.561768,1391,622.695313L1390.746094,622.828125C1390.571411,622.874451,1390.393921,622.909546,1390.214844,622.933594C1389.916138,623.012024,1389.625977,623.119873,1389.347656,623.253906C1389.209595,623.341858,1389.076416,623.437134,1388.945313,623.535156C1388.790771,623.623169,1388.630127,623.700012,1388.464844,623.765625C1388.300903,623.841614,1388.139893,623.923645,1387.984375,624.015625L1387.785156,624.167969C1387.625732,624.25531,1387.454468,624.318542,1387.277344,624.359375C1386.897461,624.577698,1386.539185,624.83136,1386.207031,625.117188C1385.798584,625.451782,1385.399658,625.797974,1385.011719,626.15625L1384.820313,626.351563C1384.606445,626.609497,1384.417725,626.887329,1384.253906,627.179688C1383.984985,627.613953,1383.725464,628.053955,1383.476563,628.5L1383.351563,628.777344C1383.173706,629.34552,1383.054565,629.930542,1383,630.523438L1382.878906,630.777344L1382.679688,630.921875L1382.476563,631.132813C1382.412109,631.290405,1382.357178,631.451843,1382.316406,631.617188L1382.152344,631.753906L1381.964844,631.585938C1381.689941,631.679321,1381.419189,631.784241,1381.152344,631.898438L1380.863281,631.9375L1380.679688,631.78125C1380.346924,631.581177,1379.998657,631.408264,1379.640625,631.257813C1379.224121,631.055908,1378.811646,630.856689,1378.394531,630.65625L1378.152344,630.566406L1377.898438,630.496094C1377.488403,630.429016,1377.076782,630.371704,1376.664063,630.324219L1376.390625,630.28125L1376.117188,630.226563L1375.855469,630.148438L1375.566406,630.132813L1375.269531,630.195313L1374.980469,630.328125L1374.753906,630.480469L1374.53125,630.597656L1374.285156,630.636719C1374.113647,630.701111,1373.94751,630.778992,1373.789063,630.871094L1373.554688,631.0625L1373.503906,631.277344C1373.645142,631.560242,1373.781616,631.845642,1373.914063,632.132813L1374.023438,632.421875L1374.078125,632.6875L1374.164063,632.929688L1374.355469,633.171875L1374.585938,633.328125C1374.861572,633.480774,1375.123291,633.657043,1375.371094,633.851563C1375.64978,634.094727,1375.93811,634.326843,1376.238281,634.542969C1376.407593,634.655273,1376.585327,634.754211,1376.769531,634.839844C1376.975586,634.922913,1377.187256,634.99115,1377.402344,635.046875C1378.100586,635.251099,1378.790039,635.484375,1379.46875,635.746094L1379.667969,635.933594C1379.752197,636.126953,1379.845581,636.316284,1379.949219,636.5L1380.152344,636.613281L1380.351563,636.644531C1380.224243,636.851746,1380.104126,637.063354,1379.996094,637.28125L1379.941406,637.542969L1380.035156,637.800781L1380.152344,638.011719C1380.258057,638.135986,1380.359741,638.263611,1380.457031,638.394531L1380.488281,638.640625C1380.58252,638.892944,1380.659668,639.151306,1380.71875,639.414063L1380.695313,639.636719L1380.476563,639.550781L1380.222656,639.523438C1380.025146,639.508118,1379.826904,639.506775,1379.628906,639.511719L1379.390625,639.625C1379.260986,639.740601,1379.141968,639.867798,1379.039063,640.007813C1378.927246,640.170593,1378.829468,640.34259,1378.75,640.523438L1378.613281,640.847656C1378.387939,641.47345,1378.223267,642.119507,1378.125,642.777344C1378.073853,643.191162,1378.074951,643.609985,1378.128906,644.023438C1378.240234,644.88031,1378.434326,645.724365,1378.710938,646.542969C1378.996338,647.300781,1379.358765,648.027405,1379.792969,648.710938C1380.122314,649.263611,1380.522827,649.770508,1380.984375,650.21875L1381.199219,650.367188L1381.335938,650.578125L1381.449219,650.800781L1381.640625,651.03125C1382.279541,651.608643,1382.970215,652.125977,1383.703125,652.578125C1384.373535,652.924988,1385.066528,653.226257,1385.777344,653.480469C1385.958252,653.55304,1386.141968,653.618164,1386.328125,653.675781L1386.554688,653.632813L1386.558594,653.359375L1386.429688,653.078125L1386.304688,652.84375L1386.234375,652.617188L1386.148438,652.367188L1385.988281,652.09375L1385.785156,651.839844C1385.654053,651.733459,1385.528809,651.620178,1385.410156,651.5L1385.433594,651.242188L1385.398438,650.980469L1385.28125,650.664063C1385.162231,650.421326,1385.01416,650.194214,1384.84375,649.984375C1384.689331,649.766235,1384.539917,649.544617,1384.394531,649.320313L1384.234375,649.109375L1384.0625,648.921875C1383.88916,648.422119,1383.69873,647.928406,1383.492188,647.441406C1383.273926,646.918884,1383.082275,646.38562,1382.917969,645.84375C1382.849731,645.470764,1382.766357,645.100586,1382.667969,644.734375L1382.714844,644.503906L1382.898438,644.410156C1383.392212,644.817078,1383.898926,645.208008,1384.417969,645.582031L1384.675781,645.746094C1384.792603,645.892151,1384.92981,646.020325,1385.082031,646.128906C1385.541626,646.465149,1386.015869,646.780884,1386.503906,647.074219C1386.850952,647.256836,1387.205811,647.424072,1387.566406,647.578125C1387.994141,647.790588,1388.44165,647.960266,1388.902344,648.085938L1389.203125,648.078125L1389.378906,647.90625L1389.515625,647.703125L1389.621094,647.785156L1389.566406,648.085938L1389.660156,648.300781C1390.115723,648.508728,1390.594482,648.661316,1391.085938,648.757813C1391.495361,648.860596,1391.914185,648.922058,1392.335938,648.9375L1392.636719,648.9375L1392.832031,649.105469L1393.058594,649.207031C1393.778564,649.284851,1394.503662,649.304016,1395.226563,649.261719L1395.472656,649.207031L1395.722656,649.230469C1396.439819,649.207825,1397.154175,649.12854,1397.859375,648.996094L1398.105469,649.054688C1398.694946,649.469849,1399.296875,649.867004,1399.910156,650.246094C1401.093628,650.948425,1402.338379,651.541809,1403.628906,652.019531L1403.992188,652.117188L1404.289063,652.136719L1404.5625,652.078125C1404.775513,651.998108,1404.982056,651.901855,1405.179688,651.789063L1405.441406,651.652344L1405.609375,651.433594C1405.658569,651.251465,1405.699829,651.067444,1405.738281,650.882813L1405.726563,650.613281C1405.629761,650.435242,1405.536621,650.255188,1405.445313,650.074219L1405.410156,649.824219C1405.453247,649.557495,1405.502563,649.291687,1405.558594,649.027344L1405.382813,648.847656C1405.258545,648.718933,1405.121948,648.602661,1404.972656,648.503906L1404.734375,648.417969L1404.585938,648.230469L1404.5,647.988281L1404.335938,647.816406C1403.818115,647.67627,1403.303345,647.524475,1402.792969,647.359375L1402.585938,647.25L1402.730469,647.050781C1402.879517,646.909668,1403.034912,646.775452,1403.199219,646.652344C1403.337646,646.542969,1403.463867,646.418945,1403.574219,646.28125L1403.738281,646.085938L1403.972656,645.953125L1404.183594,645.824219L1404.378906,645.652344L1404.558594,645.464844C1404.696411,645.339539,1404.842896,645.224548,1404.992188,645.113281L1405.207031,645.042969L1405.445313,645.121094C1406.298828,645.240417,1407.158081,645.313354,1408.019531,645.339844L1408.273438,645.257813L1408.277344,645.027344L1408.101563,644.792969C1407.962524,644.654541,1407.812378,644.52771,1407.652344,644.414063C1407.319824,644.201172,1406.992798,643.979919,1406.671875,643.75C1406.457397,643.573547,1406.237183,643.404358,1406.011719,643.242188L1405.933594,642.988281C1405.886108,642.684875,1405.848022,642.380066,1405.820313,642.074219C1405.802002,641.887756,1405.767334,641.703247,1405.714844,641.523438L1405.550781,641.339844L1405.492188,641.132813L1405.585938,640.882813L1405.65625,640.59375L1405.644531,640.339844C1405.611206,640.137634,1405.578979,639.936829,1405.546875,639.734375C1405.763672,639.778198,1405.97998,639.824646,1406.195313,639.875L1406.464844,640.011719C1406.786621,640.205139,1407.117554,640.38269,1407.457031,640.542969L1407.714844,640.636719L1407.953125,640.570313L1408.164063,640.4375C1408.334473,640.48175,1408.504028,640.529053,1408.671875,640.582031L1408.953125,640.566406L1409.1875,640.472656L1409.351563,640.25L1409.296875,640.015625L1409.378906,639.898438C1409.556763,639.884155,1409.731934,639.84552,1409.898438,639.78125C1410.076294,639.719788,1410.247437,639.640015,1410.40625,639.539063L1410.566406,639.359375C1410.667969,639.193115,1410.764771,639.023987,1410.855469,638.851563L1410.871094,638.570313C1410.74939,638.256653,1410.605957,637.951904,1410.445313,637.65625L1410.273438,637.4375L1410.039063,637.253906L1409.691406,637.070313C1408.808105,636.672058,1407.89502,636.343628,1406.960938,636.085938C1406.063599,635.869629,1405.157959,635.689941,1404.246094,635.546875L1403.941406,635.585938L1403.847656,635.65625L1403.691406,635.441406L1403.5625,635.203125C1403.470947,635.055786,1403.367188,634.916565,1403.253906,634.785156C1402.937378,634.377563,1402.589355,633.995361,1402.210938,633.644531C1402.07312,633.519592,1401.925781,633.40564,1401.769531,633.304688L1401.59375,633.449219C1401.625122,633.291016,1401.637695,633.130005,1401.640625,632.96875C1401.248779,632.621582,1400.861938,632.268677,1400.480469,631.910156L1400.242188,631.722656L1399.945313,631.589844L1399.707031,631.589844L1399.519531,631.511719L1399.371094,631.304688C1398.887817,630.884644,1398.365112,630.512085,1397.808594,630.195313L1397.457031,630.023438L1397.160156,629.914063L1396.90625,629.878906L1396.738281,630.03125L1396.644531,629.9375L1396.558594,629.667969L1396.375,629.476563C1396.180054,629.377014,1395.97876,629.290833,1395.773438,629.214844C1395.371826,629.063232,1394.963623,628.930115,1394.550781,628.8125L1394.269531,628.769531C1394.091064,628.726929,1393.915405,628.673828,1393.742188,628.613281L1393.417969,628.507813C1393.047485,628.411133,1392.671997,628.334839,1392.292969,628.28125L1392.035156,628.265625L1391.804688,628.316406C1391.263184,628.193909,1390.711182,628.122437,1390.15625,628.105469L1389.855469,628.082031L1389.878906,627.933594C1390.168945,627.674683,1390.501953,627.469299,1390.859375,627.316406C1391.017944,627.230591,1391.174683,627.141602,1391.328125,627.046875L1391.546875,626.9375L1391.800781,626.859375C1392.356934,626.621704,1392.885864,626.325195,1393.382813,625.980469C1393.544312,625.976807,1393.705688,625.974731,1393.867188,625.976563L1394.113281,625.933594L1394.355469,625.835938C1394.859009,625.645264,1395.374512,625.487549,1395.898438,625.363281L1396.117188,625.265625C1396.42688,625.049744,1396.758423,624.867249,1397.105469,624.71875C1397.412476,624.58606,1397.716187,624.445923,1398.015625,624.296875L1398.238281,624.167969L1398.460938,623.988281L1398.585938,623.722656C1398.360596,623.567627,1398.142212,623.402649,1397.929688,623.230469L1397.6875,623.078125C1397.501709,622.973328,1397.309692,622.880005,1397.113281,622.796875L1396.851563,622.773438L1396.578125,622.800781L1396.285156,622.773438C1395.978027,622.699585,1395.668213,622.637268,1395.355469,622.59375L1395.097656,622.585938L1394.914063,622.730469L1394.679688,622.695313L1394.429688,622.621094C1393.78418,622.528809,1393.132446,622.487305,1392.480469,622.5z"/>
    <path transform="matrix(-1,0,0,-1,0,0)" style="stroke:#ff0000;stroke-width:0.05mm;fill:none" d="M1294.832031,587.261719C1294.5802,587.411438,1294.331299,587.566406,1294.085938,587.726563L1293.804688,588.03125C1293.70874,588.330322,1293.615234,588.629272,1293.523438,588.929688L1293.285156,589.242188C1292.94519,589.487061,1292.598877,589.723083,1292.246094,589.949219C1292.241943,590.204285,1292.240601,590.459717,1292.242188,590.714844L1292.308594,591.160156L1292.476563,591.515625L1292.433594,591.882813L1292.265625,592.242188L1292.253906,592.609375C1292.666992,593.329041,1293.060303,594.059753,1293.433594,594.800781L1293.542969,595.148438L1293.160156,595.207031C1292.843628,595.198914,1292.527954,595.171692,1292.214844,595.125L1291.789063,595.09375C1291.527222,595.110962,1291.265381,595.130371,1291.003906,595.152344C1290.751221,595.071838,1290.494629,595.003845,1290.234375,594.953125C1289.96814,594.929565,1289.700806,594.921448,1289.433594,594.929688C1289.144531,594.916565,1288.856201,594.888672,1288.570313,594.84375L1288.253906,594.679688L1288.082031,594.335938C1287.280273,593.269958,1286.42395,592.246338,1285.515625,591.269531L1285.148438,591.078125L1284.890625,591.328125L1284.824219,591.78125C1284.829102,592.271057,1284.891602,592.758545,1285.007813,593.234375C1285.13855,593.786072,1285.231323,594.34613,1285.289063,594.910156C1285.321533,595.194885,1285.361084,595.47876,1285.40625,595.761719L1285.214844,596.125C1284.931396,596.507324,1284.638794,596.882813,1284.335938,597.25C1284.151855,597.473877,1283.986938,597.71283,1283.84375,597.964844L1283.820313,598.347656L1283.65625,598.632813C1283.38501,598.738403,1283.127319,598.875366,1282.886719,599.039063L1282.621094,599.328125C1282.436279,599.586914,1282.252319,599.843567,1282.066406,600.101563C1281.878052,599.816101,1281.692749,599.528503,1281.511719,599.238281C1281.412842,598.954529,1281.325317,598.66687,1281.253906,598.375C1281.141113,597.953552,1281.011597,597.536743,1280.867188,597.125L1280.6875,596.738281L1280.351563,596.546875L1279.980469,596.460938C1279.845337,596.224121,1279.712646,595.985474,1279.582031,595.746094L1279.261719,595.457031L1278.898438,595.300781L1278.476563,595.363281L1278.277344,595.679688L1278.0625,595.71875L1277.707031,595.453125L1277.367188,595.273438L1276.964844,595.105469L1276.550781,594.984375L1276.175781,595.003906C1275.882935,595.072754,1275.592529,595.151001,1275.304688,595.238281L1274.976563,595.535156C1274.845581,595.861511,1274.716797,596.187622,1274.589844,596.515625L1274.4375,596.992188L1274.386719,597.421875L1274.441406,597.882813L1274.621094,598.460938C1275.046997,599.590332,1275.539063,600.693604,1276.09375,601.765625C1276.605347,602.70874,1277.168823,603.622864,1277.78125,604.503906C1278.138306,605.042603,1278.508179,605.572754,1278.890625,606.09375L1279.269531,606.390625L1279.445313,606.417969L1279.378906,606.824219L1279.257813,607.21875L1279.171875,607.628906C1279.107056,608.217468,1279.05603,608.807434,1279.019531,609.398438C1279.000244,609.879211,1279.010742,610.360718,1279.054688,610.839844L1279.132813,611.257813L1279.484375,611.292969C1279.280396,611.437683,1279.085449,611.594971,1278.90625,611.769531C1278.955688,612.577454,1278.989624,613.386108,1279.007813,614.195313L1279.066406,614.660156L1279.238281,615.132813L1279.5,615.394531L1279.621094,615.683594L1279.558594,616.074219C1279.599609,616.806702,1279.700928,617.534546,1279.863281,618.25C1279.944946,618.702026,1280.070557,619.14502,1280.234375,619.574219L1280.441406,620.015625L1280.679688,620.335938L1281.035156,620.351563L1281.03125,620.558594L1280.828125,620.945313L1280.816406,621.355469L1280.945313,621.730469C1281.278564,622.535645,1281.656738,623.321472,1282.082031,624.082031L1282.34375,624.4375L1282.558594,624.804688C1282.695557,625.090942,1282.838013,625.374695,1282.984375,625.65625C1283.272949,626.17395,1283.601196,626.66864,1283.964844,627.136719L1284.226563,627.4375L1284.53125,627.632813C1284.990112,628.361023,1285.515503,629.045349,1286.101563,629.675781L1286.402344,630.027344L1286.214844,630.167969L1285.761719,630.125L1285.253906,630.023438C1284.858398,629.886597,1284.460205,629.758362,1284.058594,629.640625C1283.80188,629.589294,1283.549194,629.519287,1283.304688,629.425781L1282.9375,629.230469L1282.453125,629.046875C1281.734619,628.789856,1280.99646,628.591614,1280.246094,628.453125C1280.070435,628.276001,1279.893066,628.100342,1279.714844,627.925781L1279.398438,627.703125C1278.508301,627.325134,1277.648804,626.878723,1276.828125,626.367188C1276.583984,626.25769,1276.324341,626.187744,1276.058594,626.15625C1275.503784,626.003845,1274.958374,625.819092,1274.425781,625.601563C1273.949829,625.401611,1273.460938,625.234009,1272.960938,625.105469L1272.523438,625.058594L1272.09375,625.210938C1272.130371,625.483826,1272.171509,625.756104,1272.21875,626.027344C1272.242065,626.321594,1272.29187,626.613037,1272.367188,626.898438L1272.550781,627.480469L1272.6875,627.835938L1272.945313,628.148438L1273.277344,628.417969L1273.5625,628.769531C1273.752075,629.070557,1273.946289,629.368713,1274.144531,629.664063L1274.382813,629.984375L1274.65625,630.273438L1275.011719,630.320313L1275.230469,630.613281L1275.421875,630.96875C1275.616089,631.248901,1275.824341,631.519165,1276.046875,631.777344C1276.583252,632.394165,1277.145874,632.987366,1277.734375,633.554688C1278.194336,633.97876,1278.70105,634.349243,1279.246094,634.65625L1279.667969,634.789063L1279.980469,634.980469L1280.359375,635.253906C1280.776489,635.488281,1281.21167,635.688904,1281.660156,635.855469C1281.906738,635.911011,1282.155518,635.956238,1282.40625,635.988281L1282.832031,636.125C1283.206665,636.283875,1283.591309,636.418335,1283.984375,636.523438L1284.371094,636.574219L1284.730469,636.703125L1285.132813,636.921875L1285.621094,637.050781C1286.458618,637.207825,1287.305542,637.310303,1288.15625,637.359375C1288.767822,637.417297,1289.381836,637.444946,1289.996094,637.441406L1290.40625,637.398438C1290.783081,637.33429,1291.157349,637.256165,1291.527344,637.160156C1292.298462,636.985657,1293.064453,636.789246,1293.824219,636.570313L1294.265625,636.402344C1294.966187,636.035156,1295.634766,635.609985,1296.265625,635.132813L1296.5625,634.886719L1296.972656,634.742188L1297.347656,634.804688L1297.796875,634.796875L1298.148438,634.636719L1298.511719,634.441406L1298.835938,634.472656L1298.859375,634.863281C1299.094604,634.993713,1299.338135,635.108337,1299.589844,635.203125L1300.089844,635.414063L1300.445313,635.6875L1300.472656,636.0625C1300.566895,636.480164,1300.698242,636.888489,1300.859375,637.285156C1301.112549,637.973022,1301.352417,638.665955,1301.578125,639.363281C1301.665527,639.636292,1301.773804,639.902039,1301.898438,640.160156L1302.101563,640.511719C1302.377563,640.918274,1302.672363,641.311768,1302.984375,641.691406C1303.258423,642.033386,1303.512939,642.390686,1303.746094,642.761719L1303.945313,643.132813L1304.246094,643.46875L1304.636719,643.726563L1305.101563,643.898438L1305.511719,643.980469L1305.886719,644.097656L1306.195313,644.328125L1306.578125,644.488281L1306.996094,644.609375L1307.460938,644.664063L1307.753906,644.484375C1307.911865,644.021606,1308.074219,643.560791,1308.242188,643.101563L1308.441406,642.660156L1308.675781,642.3125L1308.84375,641.957031L1308.898438,641.480469L1308.820313,641.0625C1308.678223,640.595459,1308.583984,640.11499,1308.539063,639.628906C1308.498413,639.241333,1308.461914,638.85321,1308.429688,638.464844C1308.384033,637.968994,1308.275024,637.480896,1308.097656,637.015625L1307.898438,636.574219C1307.262085,635.431458,1306.677124,634.260986,1306.144531,633.066406L1306.132813,632.640625C1306.244141,632.334045,1306.349609,632.025452,1306.449219,631.714844L1306.351563,631.363281L1306.167969,631.113281C1306.533569,631.023743,1306.895508,630.919922,1307.253906,630.804688L1307.601563,630.578125C1307.729614,630.347778,1307.825195,630.100952,1307.882813,629.84375C1307.90625,629.591553,1307.937378,629.340088,1307.976563,629.089844L1308.207031,628.78125C1308.328369,628.549316,1308.446289,628.322388,1308.566406,628.089844L1308.808594,627.6875L1309.074219,627.472656L1309.222656,627.804688C1309.484985,628.155273,1309.781006,628.479126,1310.101563,628.777344L1310.488281,628.914063L1310.898438,628.925781L1311.289063,628.886719C1311.590576,628.833374,1311.88562,628.749268,1312.171875,628.640625C1312.818237,628.378662,1313.443726,628.06781,1314.042969,627.710938C1314.489624,627.457153,1314.918335,627.173096,1315.328125,626.863281C1315.976563,626.349976,1316.543213,625.741394,1317.015625,625.0625C1317.609497,624.242188,1318.148804,623.38385,1318.628906,622.492188C1319.105957,621.540283,1319.487183,620.543335,1319.765625,619.515625C1319.940308,618.904053,1320.087524,618.284912,1320.207031,617.660156C1320.329102,616.9823,1320.383911,616.294006,1320.367188,615.605469L1320.300781,615.210938L1320.378906,614.832031L1320.5,614.460938L1320.542969,614C1320.53186,613.47821,1320.486206,612.957764,1320.410156,612.441406C1320.34314,611.865601,1320.255249,611.292419,1320.148438,610.722656C1319.959229,609.861938,1319.685913,609.021973,1319.332031,608.214844C1319.030151,607.453857,1318.695679,606.706177,1318.332031,605.972656L1318.035156,605.769531L1317.730469,606.066406C1317.617432,606.338989,1317.523071,606.618774,1317.441406,606.902344C1317.317871,607.130188,1317.202393,607.362366,1317.09375,607.597656L1316.964844,608.074219L1316.910156,608.570313C1316.938232,608.829712,1316.947632,609.090637,1316.945313,609.351563L1316.640625,609.605469L1316.386719,609.933594L1316.167969,610.402344C1316.03479,610.800232,1315.945801,611.211548,1315.902344,611.628906C1315.829224,612.0354,1315.748169,612.440247,1315.660156,612.84375C1315.613159,613.108154,1315.591797,613.376099,1315.585938,613.644531C1315.143921,614.573792,1314.72583,615.514099,1314.332031,616.464844C1314.069946,617.077698,1313.777344,617.677124,1313.457031,618.261719C1313.202637,618.628418,1312.962891,619.004944,1312.738281,619.390625L1312.515625,619.746094L1312.210938,619.949219L1311.910156,619.84375C1311.825928,619.006042,1311.725952,618.1698,1311.609375,617.335938C1311.565796,617.033691,1311.508057,616.733643,1311.433594,616.4375L1311.460938,616.027344L1311.414063,615.578125C1311.2771,614.706665,1311.103516,613.841431,1310.894531,612.984375C1310.818237,612.69635,1310.722534,612.41394,1310.613281,612.136719C1310.378296,611.491089,1310.133911,610.848938,1309.878906,610.210938L1309.667969,609.746094L1309.390625,609.246094L1309.050781,608.925781L1308.671875,608.921875L1308.296875,608.992188L1308.269531,608.789063L1308.667969,608.519531L1308.796875,608.179688L1308.621094,607.707031C1308.153809,606.736023,1307.589722,605.81488,1306.9375,604.957031C1306.727905,604.69458,1306.499146,604.447876,1306.25,604.222656L1306.222656,603.824219L1306.082031,603.464844C1305.689209,602.964417,1305.269165,602.486023,1304.824219,602.03125C1304.493408,601.67688,1304.144653,601.339722,1303.777344,601.023438L1303.449219,600.820313L1303.203125,600.515625C1302.3927,599.75592,1301.527466,599.056946,1300.613281,598.425781L1300.40625,598.09375C1300.223633,596.992493,1300.002075,595.898132,1299.742188,594.8125C1299.227783,592.747314,1298.521606,590.73468,1297.632813,588.800781L1297.34375,588.292969L1297.042969,587.949219L1296.683594,587.707031C1296.359131,587.567261,1296.026611,587.446716,1295.6875,587.347656L1295.253906,587.210938L1294.832031,587.261719z"/>
</svg>
