<?xml version="1.0" encoding="UTF-8"?>
<svg xmlns="http://www.w3.org/2000/svg" width="87.534mm" height="78.588mm" viewBox="-982.324707 -628.111145 87.533752 78.588013">
    <path transform="matrix(-1,0,0,-1,0,0)" style="stroke:none;fill:#000000;fill-rule:evenodd" d="M980.472839,627.908691C978.346741,627.346985,975.975525,626.055725,975.975525,625.459656C975.975525,625.30835,975.373901,625.040161,974.638672,624.863831C973.694336,624.637268,973.135986,624.318848,972.737061,623.779236C972.343262,623.246582,971.943115,623.01532,971.415283,623.01532C970.14502,623.01532,967.774475,621.456177,967.774475,620.620728C967.774475,620.482727,967.387573,620.367188,966.914673,620.364014C965.678711,620.355652,964.06427,619.543091,963.098755,618.44342C962.598267,617.873413,961.855347,617.382263,961.245056,617.217957C959.792175,616.826721,957.753967,615.463135,957.457825,614.684204C957.267395,614.183289,957.014709,614.02063,956.427002,614.02063C955.998779,614.02063,955.47467,613.953979,955.26239,613.872498C954.97052,613.760498,954.830078,614.034851,954.686707,614.996826C954.582397,615.696655,954.109009,617.281189,953.634766,618.518005C953.160522,619.754761,952.696106,620.983215,952.602783,621.247864C952.397339,621.830688,951.711731,621.680664,950.237671,620.730347C948.404907,619.548767,947.130859,616.657349,946.989807,613.359253C946.940063,612.195251,946.89386,611.200745,946.887146,611.149292C946.880432,611.097839,946.442444,611.435547,945.913818,611.899658C945.385193,612.36377,944.254272,613.046448,943.400635,613.416687C942.030945,614.010681,941.848511,614.177917,941.848511,614.839539C941.848511,615.309143,942.039063,615.691284,942.358459,615.862244C942.895691,616.149719,943.700378,615.980286,943.700378,615.57959C943.700378,615.449707,943.878967,615.343384,944.097229,615.343384C944.762451,615.343384,944.553772,616.590942,943.735291,617.506958C943.055298,618.268005,942.795288,618.367737,941.231873,618.467285C939.574402,618.572815,939.447083,618.538208,938.683777,617.774902C938.136963,617.228088,937.880249,616.711304,937.880249,616.157349C937.880249,615.233398,937.62146,615.154114,936.660706,615.783569C936.154358,616.115356,935.065308,616.267029,932.238831,616.399353C930.17627,616.495911,928.458679,616.55542,928.421936,616.531677C928.385254,616.507935,928.710449,615.843933,929.144653,615.056152C929.578918,614.268372,929.93634,613.523071,929.938965,613.400024C929.947449,613.005188,922.673523,613.312073,922.17334,613.727661C921.929443,613.930237,921.678711,614.0448,921.616089,613.982239C921.411682,613.777832,921.388367,612.05542,921.578735,611.222229L921.764709,610.40802L919.70343,609.812988C918.569763,609.485718,917.116272,609.10791,916.47345,608.97345C915.830627,608.83905,915.251587,608.675903,915.186646,608.610962C915.121704,608.546021,915.318604,608.088318,915.624207,607.593872L916.179871,606.694824L915.519836,606.394104C915.15686,606.228699,914.0177,605.28772,912.988403,604.30304C910.694946,602.108948,910.430054,601.949219,909.769531,602.361755C909.487793,602.537659,909.195068,602.619385,909.119019,602.543335C908.830872,602.255188,909.357605,600.987183,910.020813,600.372559C910.70343,599.73999,910.705566,599.725952,910.208557,599.167358C909.284424,598.128723,906.685059,597.089844,905.009888,597.0896L903.488708,597.089417L903.488708,595.873657C903.488708,594.597229,904.09906,593.441833,905.267334,592.506714C905.598633,592.241516,905.868774,591.943909,905.867676,591.845337C905.866516,591.746765,905.393005,591.39624,904.815369,591.066406C903.817871,590.496826,902.30542,588.814819,900.361572,586.113586C899.419128,584.803894,898.46698,584.27179,897.567566,584.552185C896.851074,584.775574,896.619507,585.138062,896.614502,586.044434C896.608948,587.040649,896.225891,586.956665,895.429504,585.784607C894.538635,584.473633,894.574158,583.561218,895.559753,582.438721C896.418701,581.460449,896.324768,581.485352,902.166016,580.688354C905.035339,580.296875,906.224915,579.763855,907.85968,578.13739C910.052429,575.955627,911.041626,574.631531,913.662476,570.369812C916.111877,566.386841,918.515869,563.357422,922.176636,559.640442C928.641846,553.07605,932.436768,550.686462,937.910706,549.733215C939.8479,549.395874,942.274597,549.471924,942.186157,549.867188C942.153625,550.012695,941.693237,551.203186,941.163086,552.512695C939.35498,556.979187,938.246277,562.620239,938.500488,566.060059C938.828125,570.492676,939.983765,573.275146,942.570374,575.859253C943.480652,576.768616,944.393982,577.512695,944.600037,577.512695C944.80603,577.512695,945.644714,576.966858,946.463684,576.299683C948.273987,574.825012,950.457581,573.902283,953.020264,573.528992C954.078186,573.374939,955.615295,573.146423,956.435974,573.02124C957.256714,572.896057,958.566284,572.498962,959.346069,572.138794C960.125854,571.778564,961.800598,571.005188,963.067688,570.420044C965.148315,569.45929,965.461487,569.215637,966.300049,567.904663C967.570435,565.918823,968.363403,565.343384,969.829712,565.343384C971.422607,565.343384,972.715942,565.758789,973.992493,566.68042C974.573914,567.100159,975.525757,567.68573,976.107788,567.981689C976.730347,568.298218,977.438232,568.965942,977.827393,569.603577C978.191101,570.199707,978.754639,571.121887,979.07959,571.652954C980.342285,573.716248,979.592224,576.349243,976.912109,579.261597C971.529663,585.110596,964.599854,594.638733,964.599854,596.190369C964.599854,596.393799,964.783142,596.560303,965.007202,596.560303C965.697571,596.560303,967.476013,597.589966,967.786011,598.169128C968.215454,598.971558,967.952393,599.366882,966.587158,599.970825C964.918457,600.708923,964.172119,601.341858,962.881775,603.113159C962.274353,603.946899,961.460083,604.798035,961.072205,605.004517C960.271606,605.430664,960.178833,605.863159,960.780884,606.362793C961.032043,606.571228,961.137695,606.93335,961.049683,607.28418C960.931274,607.755859,961.140259,608.008606,962.185852,608.65863C962.944031,609.129944,963.61731,609.797302,963.835083,610.293396C964.072327,610.833862,964.681763,611.402405,965.550781,611.893799C966.831177,612.61792,968.303528,614.047363,968.303528,614.566467C968.303528,614.698853,968.69043,614.97345,969.16333,615.176636C970.24707,615.642334,972.27179,617.385986,972.27179,617.853638C972.27179,618.047546,972.800781,618.462341,973.447388,618.77533C974.172363,619.126282,974.751038,619.633789,974.957153,620.099548C975.176208,620.594299,975.551147,620.906677,976.044495,621.00531C976.838623,621.164124,978.621033,622.846008,978.621033,623.436462C978.621033,623.62738,979.160461,624.154724,979.819824,624.608337C980.903809,625.354187,982.324707,627.13269,982.324707,627.743652C982.324707,628.173584,981.689575,628.230164,980.472839,627.908691z"/>
</svg>
