<?xml version="1.0" encoding="UTF-8"?>
<svg xmlns="http://www.w3.org/2000/svg" width="305.879mm" height="235.953mm" viewBox="-1032.936035 -812.145020 305.878723 235.953003">
    <path transform="matrix(-1,0,0,-1,0,0)" style="stroke:#000000;stroke-width:0.05mm;fill:none" d="M877.911987,810.35199C875.127686,810.420898,872.342163,810.29248,869.575989,809.968018C865.848328,809.427429,862.175537,808.560303,858.599976,807.375977C856.429138,806.64032,854.293701,805.804688,852.200012,804.872009C848.544373,803.261597,844.802673,801.854187,840.992004,800.656006C837.694458,799.629761,834.355347,798.741028,830.984009,797.992004C829.009094,797.563538,826.986938,797.391479,824.968018,797.47998C823.013855,797.533264,821.067993,797.75592,819.151978,798.143982C816.725464,798.596741,814.328918,799.197876,811.976013,799.94397C809.430908,800.726563,806.909424,801.585693,804.416016,802.52002L798.728027,804.687988C796.509705,805.543579,794.037048,806.493774,791.815979,807.343994C788.603394,808.548462,785.344971,809.626648,782.047974,810.575989C779.665161,811.228699,777.233154,811.686584,774.776001,811.94397C768.546631,812.376099,762.288757,812.131958,756.112,811.216003C753.437073,810.813843,750.789368,810.247498,748.184021,809.52002C745.531372,808.767761,742.956726,807.763794,740.495972,806.52002C738.587952,805.522888,736.795532,804.318542,735.151978,802.927979C733.121094,801.163452,731.449951,799.022888,730.231995,796.624023C728.005066,792.425903,726.915894,787.717651,727.072021,782.968018C727.217834,779.454163,727.863892,775.979004,728.992004,772.64801C729.833435,770.071289,730.827271,767.546936,731.968018,765.088013C732.478455,763.965576,732.844299,762.782715,733.05603,761.567993C733.312988,759.931641,733.184143,758.257813,732.679993,756.679993C732.458801,755.931641,732.207825,755.192444,731.927979,754.463989C731.740784,753.89032,731.60376,753.301575,731.52002,752.703979L731.504028,752.463989C731.49823,752.140442,731.535583,751.817505,731.616028,751.504028C731.643127,751.345337,731.697388,751.19281,731.768005,751.047974C730.748779,748.435852,730.333923,745.62738,730.552002,742.83197L730.711975,742.664001C731.738342,741.663208,733.225952,741.295105,734.599976,741.703979L734.960022,741.823975C735.268005,740.554688,735.493347,739.266724,735.632019,737.968018C735.668701,737.902283,735.704773,737.836243,735.736023,737.768005C735.78479,737.707764,735.838989,737.652405,735.895996,737.599976C736.053406,737.44989,736.251648,737.351135,736.463989,737.304016C736.61084,737.294373,736.757813,737.288208,736.903992,737.304016L737.119995,737.367981C738.093628,738.921448,738.737366,740.658691,739.007996,742.471985L739.703979,742.231995C740.806885,740.379211,742.36499,738.838623,744.231995,737.76001L744.624023,738.263977C744.056152,739.800415,744.058411,741.489624,744.632019,743.023987C744.882019,742.933044,745.120422,742.811707,745.335999,742.656006C746.001831,742.224365,746.550476,741.633972,746.927979,740.935974L747.023987,741.223999C747.464233,742.684509,747.450134,744.24353,746.984009,745.695984C748.33667,744.632507,749.735352,743.628845,751.176025,742.687988C750.997925,743.399597,750.90863,744.130432,750.911987,744.864014L750.927979,745.088013C750.944519,745.211487,750.966553,745.334045,750.992004,745.455994C751.023193,745.554321,751.059998,745.650696,751.104004,745.744019L751.184021,745.880005L751.296021,746L751.424011,746.104004C751.51886,746.146606,751.615173,746.185913,751.711975,746.223999C751.869141,746.241394,752.027771,746.240784,752.184021,746.216003C752.386658,746.188293,752.583374,746.13208,752.776001,746.064026C753.753601,745.610229,754.648376,744.996277,755.424011,744.247986L755.504028,744.383972C755.776672,744.892822,755.875854,745.476807,755.791992,746.047974C755.757019,746.252441,755.703064,746.453125,755.632019,746.64801C756.96875,747.261963,758.013611,748.372009,758.544006,749.744019L759.072021,749.744019C761.070374,747.19989,763.823547,745.354431,766.935974,744.471985C771.525513,741.661255,776.576965,739.686584,781.856018,738.640015C789.343567,736.869751,797.173218,739.653381,801.864014,745.752014C809.345093,752.416199,818.513489,756.896545,828.367981,758.703979C829.976746,758.762512,831.426697,757.737427,831.903992,756.200012C833.963318,744.271667,838.356445,732.867126,844.83197,722.640015C849.619202,716.81311,852.337585,709.561951,852.559998,702.023987C850.545715,691.399536,848.793152,680.726807,847.304016,670.015991C848.321594,663.872803,849.876892,657.830933,851.952026,651.960022C853.592896,631.618408,856.756409,611.428528,861.416016,591.559998C860.988708,586.487427,860.956543,581.389526,861.320007,576.312012C863.099731,575.864868,864.955688,576.694885,865.807983,578.320007C869.977295,581.179199,874.946594,582.641357,880,582.495972C885.053406,582.640625,890.022461,581.178772,894.192017,578.320007C895.045776,576.696045,896.90033,575.866089,898.679993,576.312012C899.043518,581.389465,899.011414,586.487549,898.583984,591.559998C903.243591,611.428711,906.407043,631.618408,908.047974,651.960022C910.126099,657.830017,911.681519,663.872253,912.695984,670.015991C911.206665,680.727783,909.454468,691.398438,907.440002,702.023987C907.66272,709.561951,910.380676,716.813232,915.16803,722.640015C921.64386,732.867004,926.036743,744.271667,928.096008,756.200012C928.289673,756.793762,928.627625,757.329407,929.080017,757.76001C929.270996,757.945313,929.488403,758.100708,929.719971,758.231995C930.302429,758.56073,930.963501,758.725525,931.632019,758.703979C941.48645,756.896545,950.654785,752.416016,958.135986,745.752014C962.826721,739.653259,970.656433,736.869812,978.143982,738.640015C983.422913,739.687073,988.474426,741.661499,993.064026,744.471985C996.176331,745.354736,998.929504,747.200012,1000.927979,749.744019L1001.455994,749.744019C1001.986511,748.371948,1003.030518,747.260559,1004.367981,746.64801C1004.296997,746.45282,1004.237305,746.253601,1004.208008,746.047974C1004.112671,745.423706,1004.246399,744.786682,1004.575989,744.247986C1005.352783,744.994934,1006.247253,745.608704,1007.223999,746.064026L1007.512024,746.159973C1007.710938,746.209778,1007.915222,746.23053,1008.119995,746.23999C1008.27948,746.223694,1008.432373,746.174255,1008.575989,746.104004C1008.66095,746.034729,1008.743164,745.962158,1008.815979,745.880005L1008.895996,745.744019C1008.939697,745.650574,1008.97699,745.554382,1009.007996,745.455994C1009.110657,744.971802,1009.124451,744.473022,1009.047974,743.984009C1009.004089,743.547302,1008.927185,743.114624,1008.823975,742.687988C1010.264709,743.628723,1011.663452,744.632385,1013.015991,745.695984C1012.511597,744.146118,1012.531555,742.473633,1013.072021,740.935974C1013.579529,741.871521,1014.388489,742.607605,1015.367981,743.023987C1015.941956,741.489563,1015.946838,739.799561,1015.375977,738.263977L1015.768005,737.76001C1017.634705,738.839233,1019.194153,740.37854,1020.296021,742.231995L1020.992004,742.471985C1021.263489,740.658875,1021.905884,738.921143,1022.880005,737.367981C1023.02002,737.311584,1023.169739,737.280945,1023.320007,737.296021C1023.464233,737.2995,1023.6073,737.321045,1023.744019,737.367981L1023.935974,737.471985L1024.104004,737.599976C1024.192505,737.673279,1024.267212,737.761841,1024.319946,737.864014L1024.368042,737.968018C1024.507446,739.266663,1024.732056,740.554688,1025.040039,741.823975C1025.50708,741.642456,1026.003052,741.546936,1026.504028,741.544006C1027.624634,741.529968,1028.696411,742.000671,1029.447998,742.83197C1029.667358,745.62738,1029.252441,748.436218,1028.232056,751.047974L1028.319946,751.271973C1028.49939,751.810059,1028.54126,752.38446,1028.447998,752.94397C1028.285645,753.826904,1028.031616,754.690674,1027.687988,755.52002C1027.404297,756.323181,1027.171997,757.143494,1026.991943,757.976013C1026.6427,759.89325,1026.81604,761.86969,1027.495972,763.695984C1027.738647,764.401245,1028.018433,765.093201,1028.33606,765.768005C1029.802734,768.963806,1030.991333,772.279968,1031.887939,775.679993C1032.577148,778.410767,1032.929199,781.215576,1032.936035,784.031982C1032.906372,789.460876,1031.254272,794.75708,1028.192017,799.23999C1026.7146,801.309875,1024.880493,803.10022,1022.776001,804.528015C1020.440247,806.143616,1017.900818,807.442993,1015.223999,808.392029C1012.552856,809.383545,1009.801331,810.143494,1007,810.664001C1003.395508,811.381226,999.742859,811.830261,996.072021,812.007996C992.458191,812.211731,988.835144,812.190308,985.223999,811.94397C981.977051,811.597961,978.775269,810.911865,975.671997,809.895996C972.729187,808.9953,969.820557,807.986572,966.952026,806.872009C963.170837,805.411743,959.375305,803.958618,955.583984,802.52002C952.104492,801.20105,948.564636,800.047974,944.976013,799.064026C942.343384,798.36499,939.660828,797.869995,936.952026,797.583984C935.355713,797.445313,933.75116,797.426941,932.151978,797.528015C930.745361,797.645142,929.351318,797.881592,927.984009,798.231995C923.954834,799.153198,919.976196,800.282593,916.064026,801.616028C912.962891,802.708313,909.906982,803.925293,906.903992,805.263977C904.432251,806.334045,901.900024,807.258606,899.320007,808.031982C896.182129,808.952148,892.977966,809.628662,889.736023,810.05603C886.501221,810.381531,883.245728,810.45105,880,810.263977C879.304504,810.298889,878.607971,810.328125,877.911987,810.35199z"/>
    <path transform="matrix(-1,0,0,-1,0,0)" style="stroke:#000000;stroke-width:0.05mm;fill:none" d="M957.047974,756.104004C955.197937,756.114929,953.40387,756.741272,951.952026,757.888C945.786499,760.208008,939.664978,762.634277,933.583984,765.16803L933.463989,765.312012C933.291199,765.521912,933.18158,765.777771,933.151978,766.047974C933.096252,766.251343,933.097839,766.465942,933.143982,766.671997C933.169189,766.792908,933.207092,766.910583,933.255981,767.023987C933.31012,767.068359,933.359619,767.117676,933.40802,767.16803C933.465942,767.2724,933.524841,767.376221,933.583984,767.47998C933.623596,767.588501,933.659668,767.698303,933.695984,767.807983C933.846436,768.604492,933.874207,769.419373,933.776001,770.223999C933.657654,771.543945,933.475647,772.857361,933.231995,774.159973C932.901062,775.8703,932.610291,777.588013,932.359985,779.312012C932.283875,779.914307,932.246643,780.520874,932.247986,781.127991C932.258301,781.235046,932.26947,781.342041,932.288025,781.447998C932.317688,781.579163,932.36322,781.705383,932.40802,781.83197C932.44751,781.880432,932.486084,781.929565,932.528015,781.976013C932.580933,782.000916,932.633728,782.02594,932.687988,782.047974C932.758118,782.051758,932.827271,782.04303,932.895996,782.031982C933.339966,781.842041,933.794189,781.677246,934.255981,781.536011C935.084106,781.319702,935.936096,781.207581,936.791992,781.200012C938.341492,781.138794,939.893066,781.233032,941.424011,781.47998C944.193726,781.882202,946.933289,782.470032,949.624023,783.23999C952.811768,784.115173,955.968018,785.099731,959.088013,786.192017C965.218018,788.361511,971.298218,790.662903,977.328003,793.096008C979.641907,794.008911,981.965027,794.899719,984.296021,795.768005C985.980957,796.350586,987.739563,796.69281,989.52002,796.783997C992.394287,796.956116,995.278198,796.864685,998.135986,796.512024C1002.090271,796.074829,1005.990051,795.23822,1009.776001,794.015991C1011.477356,793.450989,1013.128235,792.744019,1014.711975,791.903992C1015.876038,791.261658,1016.937439,790.449402,1017.864014,789.495972C1018.424316,788.860107,1018.809082,788.08844,1018.968018,787.255981C1019.232605,784.540771,1019.167969,781.803833,1018.776001,779.104004C1018.554504,777.913757,1018.186768,776.755493,1017.679993,775.656006C1016.832214,773.969971,1015.415161,772.637939,1013.679993,771.895996C1013.113403,771.618225,1012.534241,771.366943,1011.94397,771.143982C1011.32135,770.899719,1010.717285,770.610779,1010.135986,770.280029C1009.645874,769.98291,1009.202637,769.614258,1008.823975,769.184021C1004.560181,766.572754,999.167969,766.674316,995.007996,769.447998C983.181763,773.215698,970.281006,768.836304,963.192017,758.64801C961.582764,756.988342,959.359436,756.066101,957.047974,756.104004z"/>
    <path transform="matrix(-1,0,0,-1,0,0)" style="stroke:#000000;stroke-width:0.05mm;fill:none" d="M802.495972,756.104004C800.343933,756.190796,798.306702,757.101257,796.807983,758.64801C789.719299,768.836548,776.818176,773.216003,764.992004,769.447998C760.833069,766.671753,755.438904,766.57019,751.176025,769.184021L750.984009,769.392029C750.515686,769.871765,749.964722,770.262573,749.359985,770.552002C748.744934,770.858337,748.114868,771.133423,747.471985,771.375977C746.594482,771.721191,745.751343,772.147766,744.952026,772.64801C743.830078,773.406738,742.925781,774.444641,742.320007,775.656006C741.640686,777.122925,741.216125,778.694641,741.064026,780.304016C740.820251,782.614441,740.810181,784.943359,741.031982,787.255981L741.080017,787.512024C741.332886,788.433838,741.840515,789.264832,742.544006,789.911987C743.656006,790.937866,744.921875,791.783081,746.296021,792.416016C748.452759,793.447021,750.706421,794.261719,753.023987,794.848022C757.56134,796.060791,762.225098,796.737,766.919983,796.864014C768.616211,796.902527,770.31311,796.8302,772,796.64801C773.512207,796.44342,774.994507,796.058899,776.416016,795.504028C780.550171,793.934326,784.662476,792.330933,788.768005,790.687988C793.22998,788.952271,797.725098,787.298218,802.247986,785.728027C806.007751,784.447937,809.82196,783.334961,813.679993,782.392029C816.016479,781.845581,818.387146,781.457642,820.776001,781.231995C822.214539,781.118835,823.661072,781.169556,825.088013,781.383972C825.749329,781.505005,826.391357,781.714355,827,782C827.071533,782.020447,827.143311,782.039978,827.216003,782.05603L827.312012,782.047974C827.395691,782.015015,827.471008,781.966003,827.536011,781.903992C827.627136,781.766541,827.68573,781.610718,827.711975,781.447998C827.727783,781.341614,827.74115,781.234985,827.752014,781.127991C827.75824,780.337158,827.696289,779.547058,827.559998,778.768005C827.322083,777.227966,827.057983,775.691101,826.768005,774.159973C826.49353,772.672485,826.295959,771.171875,826.176025,769.664001C826.148743,769.042419,826.190247,768.419739,826.304016,767.807983C826.340576,767.698425,826.377075,767.588684,826.416016,767.47998L826.487976,767.343994C826.521057,767.284485,826.556152,767.225952,826.59198,767.16803C826.639526,767.11676,826.69043,767.068909,826.744019,767.023987L826.815979,766.848022C826.85199,766.728394,826.868835,766.604431,826.880005,766.47998C826.883362,766.190125,826.83075,765.903015,826.728027,765.632019C826.670044,765.52179,826.605774,765.415161,826.536011,765.312012L826.416016,765.16803C820.336182,762.634644,814.212524,760.207642,808.047974,757.888C806.47052,756.648193,804.500427,756.016174,802.495972,756.104004z"/>
</svg>
