<?xml version="1.0" encoding="UTF-8"?>
<svg xmlns="http://www.w3.org/2000/svg" width="158.616mm" height="156.520mm" viewBox="-1031.811523 -760.599976 158.615845 156.520203">
    <path transform="matrix(-0.26455,0,0,-0.26455,-873.170654,-598.801514)" style="stroke:#000000;stroke-width:0.05mm;fill:none" d="M288.146759,610.982483C277.316803,608.710022,270,600.808105,270,591.384644C270,585.80304,271.104553,583.773254,278.099915,576.5C285.807831,568.48584,288.97525,558.568115,288.992432,542.393494L289,535.286987L279.835114,534.595093C274.794434,534.2146,267.2883,533.256165,263.154785,532.465271C259.021271,531.674438,255.465897,531.200745,255.253937,531.41272C255.041977,531.624695,255.360931,533.626709,255.962738,535.861572C257.406586,541.223694,256.497925,544.355652,252.473129,547.889465C248.033615,551.787415,241.103958,553.227722,233.038727,551.928833C220.094696,549.844238,211.153061,544.750671,207.913116,537.616089C204.813416,530.790344,205.519791,525.501038,210.221237,520.333069L212.192551,518.166138L199.6091,511.975159C192.688202,508.570129,181.595383,502.232727,174.958374,497.89209C168.321365,493.551453,162.707352,490,162.482803,490C161.715347,490,154.281387,501.491058,151.531006,506.928741C147.187729,515.515686,145.966721,519.761414,144.524216,531.292664C143.768463,537.334167,142.471313,543.157959,141.577637,544.521851C139.069427,548.349854,134.202667,550.406616,127.763969,550.359741C116.324837,550.276428,98.920898,538.669434,93.4412,527.46936C91.194336,522.876892,90.830704,521.017212,91.194954,515.981506C91.95919,505.416138,96.318962,501.672424,110.225777,499.639893C122.420685,497.857574,126.544762,495.542847,137.679947,484.230804L146.050644,475.727142L135.737183,465.113586C130.064789,459.276123,124.139412,452.798645,122.569695,450.719208L119.71566,446.938416L117.911339,449.905396C112.688095,458.494324,99.753677,456.539795,90.533714,445.768341C85.263718,439.611542,80,428.574646,80,423.681366C80,415.95105,84.84903,409.079926,91.478683,407.415985C94.597023,406.633331,94.762177,407.493195,88.638611,392.629364C86.175461,386.650513,82.683784,376.638031,80.879333,370.379364C78.862778,363.38504,77.097122,359,76.297379,359C73.752884,359,57.868423,364.95285,51.842113,368.164825C48.474079,369.959991,42.74427,374.296234,39.109207,377.800934C35.474144,381.305664,31.15,385.032501,29.5,386.082825C23.770866,389.729797,16.869612,387.931793,10.806571,381.212616C5.965706,375.84787,4.291945,372.461426,1.944184,363.281769C-1.610851,349.381714,-0.102781,339.766846,6.730583,332.765594C13.779761,325.543213,20.428965,325.443756,31,332.402557C40.65575,338.75882,43.240101,339.350769,58.750771,338.758911C66.121704,338.477661,72.504265,337.85434,72.934235,337.373779C73.364212,336.893188,73.357727,333.125,72.91983,329C72.481926,324.875,72.095825,314.915131,72.061821,306.866974L72,292.233917L68.027359,293.602631C63.337555,295.218384,59.994347,294.298431,55.713333,290.214172C47.762276,282.62851,48.410717,257.563568,56.788845,248.641006C62.21368,242.863647,70.607201,241.358047,76.632034,245.081604C79.233841,246.689606,80.10463,246.860245,80.459396,245.831604C80.71199,245.099228,82.343643,240.225006,84.085289,235C85.826935,229.774994,89.443031,220.585297,92.121048,214.578415C94.799072,208.571548,96.879883,203.578903,96.745087,203.483643C96.610291,203.388382,93.125,201.930359,89,200.243591C74.23333,194.205322,70.788483,193.555557,54.842411,193.800888C40.366138,194.023605,40.146606,193.994247,37.095184,191.426636C35.021984,189.682159,33.476204,187.006027,32.396538,183.292099C30.362358,176.294769,31.619392,168.707199,36.503853,158.5C43.096756,144.72261,50.747158,138.625916,61.54398,138.545181C71.356316,138.471832,75.096153,142.141037,79.161942,155.830429C82.196915,166.049088,88.631699,172.880981,105.118484,183.388794L107.736961,185.057678L115.709518,174.278839C120.094421,168.350479,127.353607,159.386887,131.841034,154.359741C136.328461,149.332596,140,145.002609,140,144.737549C140,144.472488,138.152756,143.960236,135.895035,143.599197C126.410316,142.082535,122.336342,137.251343,123.346901,128.718796C124.461067,119.311394,133.841919,107.670708,144.518311,102.447235C149.173828,100.16951,150.895615,99.827492,155.162582,100.332848C164.294067,101.414337,167.945724,105.454681,168.740509,115.356018L169.250671,121.71154L178.38945,115.967697C185.447998,111.531311,199.351868,104.203819,211.814178,98.352486C212.457535,98.050415,204.594437,83.304169,200.961685,78C196.435806,71.391777,191.603683,66.75354,183.28714,61.03463C175.73941,55.844395,173.833328,53.121891,173.833328,47.531509C173.833328,37.344482,182.533478,28.473564,198.370758,22.512426C211.080536,17.728477,223.667023,19.763689,229.617325,27.564932C233.770966,33.010635,233.743973,37.142979,229.48378,48.015175C226.006363,56.889683,225.800705,58.014774,226.287689,65.5C226.6875,71.645226,230.915222,89.036446,232.420685,90.72876C232.532608,90.854584,237.822815,89.644592,244.176682,88.039902C256.580963,84.907166,274.218018,82,280.819305,82C283.053772,82,285.099579,81.647888,285.36557,81.217529C285.631531,80.78717,283.409424,77.085587,280.427551,72.991783C274.011017,64.182594,272.918579,60.163563,275.591492,55.200226C279.489014,47.962963,289.257263,44,303.198761,44C315.561554,44,321.754608,47.381786,325.409088,56.128151C327.356781,60.789654,326.075073,65.769409,321.627411,70.820778C317.21167,75.835899,314,80.120941,314,80.997337C314,81.39753,317.9375,82.043549,322.75,82.432922C332.995728,83.261909,343.646057,85.163429,357.369049,88.613831C362.797028,89.9786,367.450897,90.882431,367.710999,90.622337C367.971069,90.362251,369.101837,86.178329,370.223785,81.32473C373.054016,69.081161,373.032166,54.90295,370.167847,45.0201C368.975525,40.906155,368,36.234268,368,34.638134C368,27.955801,374.956818,22.047352,384.624695,20.518721C392.696838,19.242397,408.684143,23.737106,417.293274,29.703236C425.118011,35.125782,428.617462,45.555016,425.202606,53.274906C423.079559,58.074409,420.522308,60.190063,411.785553,64.375038C404.35614,67.933792,399.230652,73.865318,393.693024,85.312843C386.847412,99.464211,386.379425,97.781967,398.831604,103.784096C404.787109,106.654747,414.732391,112.152679,420.93222,116.001732C427.13205,119.850777,432.335449,123,432.495331,123C433.418823,123,434.289978,118.298485,435.034149,109.298576C435.990631,97.730705,436.784332,95.680016,441.186005,93.403809C448.92865,89.39994,463.240234,93.735703,472.921844,103.018333C479.154877,108.994507,481.24411,113.122711,481.311554,119.595711C481.402954,128.372528,476.362762,133.326202,466.065948,134.579605C460.34845,135.275574,453,137.697205,453,138.885406C453,139.25293,456.180847,142.691574,460.068573,146.526825C468.875824,155.21521,479.163055,167.338364,485.502625,176.5C488.166718,180.350006,490.691254,183.900284,491.112701,184.389511C492.218384,185.672928,504.809937,176.027054,511.842377,168.509354C516.006897,164.057449,519.223694,159.225922,522.307617,152.790863C528.168701,140.560715,530.428528,138.490417,537.872192,138.531479C545.016968,138.570877,550.88385,141.77739,557.471436,149.24324C562.966492,155.470993,568.74939,166.892303,569.618652,173.234329C570.746887,181.465622,566.357727,190.259903,559.315735,193.877808C556.334595,195.409409,550.585327,195.267578,544,193.5C537.454529,191.743118,531.952637,191.616608,526.5,193.09758C521.52887,194.447784,503,203.047714,503,204.004807C503,204.391479,505.005676,208.999908,507.457092,214.245743C509.908478,219.491577,513.563171,228.557312,515.578613,234.391815C517.594055,240.226318,519.690063,245,520.236389,245C520.782715,245,524.665527,241.683304,528.864807,237.629547C539.764893,227.107407,541.81604,226.335007,549.053223,230.027161C554.084839,232.594101,558.318787,238.414108,560.905457,246.319351C565.063599,259.027222,564.57251,267.789276,559.354553,273.990448C553.343384,281.134338,546.75354,281.601074,536.989685,275.574493C533.791016,273.600159,529.733337,271.696655,527.972595,271.344513C525.160889,270.782166,524.838867,270.935181,525.325989,272.602142C527.220703,279.085754,528.215332,296.297607,527.805969,315.518951C527.42749,333.292816,527.588684,337.011932,528.756897,337.460205C531.561401,338.536407,550.659851,337.931396,557.122009,336.561646C560.764099,335.789642,566.400452,333.817047,569.647217,332.17807C578.635681,327.640717,583.225464,326.649536,587.321838,328.361115C597.457214,332.595947,601.921204,346.461639,598.595703,363.379364C595.972839,376.722534,590.322021,384.325195,580.937439,387.136902C572.817017,389.569824,569.276978,387.488373,557.220276,373.191895C554.530579,370.002533,551.001038,367.213684,547.720276,365.685455C541.497192,362.786682,525.68457,358.522858,523.818665,359.240448C523.093384,359.519379,521.655945,363.066864,520.62439,367.123779C519.034851,373.374725,514.154114,387.903412,511.484467,394.33075C510.76413,396.065002,511.324188,396.125122,522.112,395.47168C532.777344,394.825623,533.669922,394.916687,536.177612,396.906555C546.530457,405.121613,538.224182,434.445892,523.575378,441.397217C516.92041,444.555206,508.090179,442.863678,504.802734,437.801117C503.980896,436.535492,502.289063,432.422485,501.043121,428.661102C499.79718,424.899719,498.442444,422.199707,498.032593,422.661102C497.622742,423.122498,495.136078,426.875,492.506683,431C484.503387,443.555481,477.015381,452.953003,465.640839,464.716919L454.781677,475.947784L460.53067,481.223877C472.786438,492.471619,481.290009,497.548157,492,500.010834C504.910645,502.979492,509,506.875732,509,516.207947C509,523.585022,505.207855,530.868408,497.320374,538.640259C485.605164,550.183716,473.847931,553.749329,463.984772,548.75C457.092407,545.25647,455.449432,541.521118,455.737701,530C455.888153,523.986816,455.443512,518.664856,454.526276,515.5C453.175903,510.840851,446.083008,499.159454,440.672424,492.683899L438.319489,489.867828L428.909729,496.241364C423.734375,499.746796,417.13797,503.939026,414.251007,505.557434C411.364075,507.175842,409.014343,508.725006,409.029388,509C409.044434,509.274994,411.547974,511.008057,414.592834,512.851257C426.263611,519.916138,425.47348,530.389709,412.531769,540.171082C406.324554,544.862488,392.60437,549.522034,387.457092,548.686768C381.798187,547.768433,375.490601,543.55365,373.50119,539.361267C371.732758,535.634583,371.86676,533.798767,374.531006,525.25354C375.231079,523.008179,375.229248,523.007813,370.865692,524.548462C358.23877,529.006592,335.251556,533.585449,320.154053,534.649841L310.808136,535.308716L311.448975,540.904358C312.533478,550.373901,315.090088,562.041687,317.141724,566.884888C318.21698,569.423218,321.662445,575.257629,324.79837,579.850281C329.568604,586.836426,330.5,588.907288,330.5,592.526917C330.5,599.865173,322.444611,607.823608,312.792999,610.020813C305.711304,611.632935,293.514679,612.108887,288.146759,610.982483z"/>
</svg>
