<?xml version="1.0" encoding="UTF-8"?>
<svg xmlns="http://www.w3.org/2000/svg" width="394.439mm" height="211.197mm" viewBox="-1465.838623 -738.575806 394.438721 211.196960">
    <path transform="matrix(-0.493552,0,0,-0.493552,-1056.190674,-511.579437)" style="stroke:#000000;stroke-width:0.05mm;fill:none" d="M534,459.328857C522.611877,458.186523,511.859589,456.636841,499.5,454.356537C486.57428,451.971771,484.886139,451.868378,477.5,453.00885C470.519623,454.08667,468.67157,454.027039,463,452.540802C459.424988,451.603973,452.899994,450.249664,448.5,449.531219C438.111176,447.8349,427.759949,445.3302,421.5,442.998047C418.75,441.973511,413.799988,440.432129,410.5,439.572723C400.003326,436.839081,385.5755,432.380859,383.326782,431.176117C382.131531,430.535767,378.756531,429.519958,375.826782,428.918793C370.516479,427.829163,352.747314,420.20343,348,416.976807C346.625,416.042236,343.843231,414.740387,341.818268,414.083771C339.793304,413.427185,336.418304,411.518799,334.318268,409.842926C332.218231,408.167053,327.799988,405.42981,324.5,403.760193C320.18924,401.579193,314.417664,396.742035,304,386.579163C296.024994,378.799225,282.429657,365.778931,273.788116,357.645203C265.146576,349.511444,255.92157,340.115631,253.288101,336.765564C247.300949,329.149231,217.996475,297.619354,209.125153,289.248871C200.947815,281.533173,185.555862,271.059021,177.36261,267.634583C173.987045,266.223755,168.09584,264.20224,164.271057,263.142334C160.446274,262.082428,156.008102,260.554565,154.408447,259.74704C151.7556,258.407898,141.155716,256.755432,135,256.721405C123.233704,256.656372,98.843491,263.556458,88,270.017883C75.082954,277.714905,64.124435,281.178864,48.405464,282.533539C41.436218,283.134155,39.663734,282.944855,35.655464,281.171783C33.094959,280.039154,30.957798,278.524658,30.906219,277.806244C30.854639,277.087799,30.813932,261.424988,30.815758,243C30.819229,207.954895,31.420858,200.825729,36.04792,181C40.293007,162.810928,45.21769,149.996552,51.438099,140.953674C53.566528,137.859482,55.822803,132.038055,58.237175,123.411339C62.397404,108.546562,65.013763,101.986237,67.954727,99.045273C69.902161,97.097839,70.222801,97.063858,73.01693,98.508751C74.657616,99.357185,76,100.489807,76,101.025681C76,101.561554,76.449997,102,77,102C77.550003,102,78,100.953629,78,99.674721C78,96.849312,83.460083,78.238449,86.126961,71.973755C89.451683,64.163719,94.862907,63.034313,97.597725,69.579636C99.154709,73.30603,100.955536,88.133362,100.982674,97.449997C100.992241,100.736069,101.374771,102.974663,101.837067,102.449997C102.297455,101.927498,104.151459,94.75,105.957069,86.5C110.509796,65.69825,114.457825,53.960423,118.458435,49.332397C121.42067,45.905602,121.957207,45.65947,124.218758,46.689903C128.061539,48.440792,129.053116,54.156773,129.736954,78.5C130.20697,95.231468,130.575607,99.542084,131.276291,96.5C142.303986,48.621483,145.975433,39.198551,152.683472,41.557644C157.538025,43.2649,158.390808,48.292896,158.430557,75.442398C158.459625,95.293892,158.659546,98.62574,159.600632,94.942398C160.224884,92.499077,162.986847,81.257805,165.738327,69.961792C171.158127,47.711212,174.733337,38.534256,178.683167,36.734592C184.683655,34.000587,186.945023,40.005745,187.726669,60.75C188.042709,69.137497,188.600281,76,188.965714,76C189.331146,76,190.683975,72.962502,191.971985,69.25C197.964005,51.978962,202.27623,41.919933,204.294022,40.506615C205.477066,39.677979,207.650864,39,209.12468,39C211.244858,39,212.0392,39.673706,212.929169,42.226654C214.757614,47.471733,215.291168,61.679424,214.119736,73.930061C213.518616,80.216591,213.204498,85.537827,213.421692,85.755028C213.638885,85.972221,215.698044,80.153694,217.997574,72.824966C229.137512,37.321522,236.861572,25.305534,241.990631,35.5C244.42337,40.335274,243.917465,69.152313,241.123764,84.879036C239.914307,91.687508,239.094894,97.428223,239.302841,97.636185C239.510803,97.844139,242.060043,90.248573,244.967819,80.757141C252.279816,56.88961,257.280212,42.903919,260.413055,37.558144C263.682373,31.97949,267.149811,30.702627,270.340973,33.902237C272.410461,35.977188,272.493988,36.843174,272.354858,54.783482C272.265808,66.265823,271.597443,77.365128,270.625641,83.5C267.321838,104.356537,265.823486,106.276085,282.724487,68C290.085785,51.328732,296.620209,40.397839,300.751129,37.844791C303.834534,35.93914,304.214844,35.910751,306.510406,37.414852C309.887115,39.627373,310.343506,42.299488,309.743042,56.341881C309.198456,69.077393,306.571045,82.864807,301.054626,101.934723C299.39444,107.67382,298.208191,112.541534,298.418518,112.751862C298.628876,112.962196,302.056702,107.141571,306.03595,99.817139C323.87262,66.985954,330.920929,57,336.257141,57C340.867462,57,342,59.264629,342,68.483459C342,83.324989,338.252441,97.527252,326.556152,127.01152C323.067749,135.805191,320.361877,143,320.543091,143C320.724335,143,327.088562,134.337494,334.685852,123.75C363.680786,83.342949,371.515594,75.658447,377.557739,81.7006C378.956665,83.099533,379.160767,84.651634,378.708252,90.4506C377.982666,99.748566,373.687073,111.792107,363.94281,131.848297C359.574249,140.839859,356,148.416504,356,148.685287C356,148.954071,360.71991,143.335892,366.488647,136.200439C381.306976,117.871506,390.30246,108.51609,395.550873,105.975365C399.766235,103.934761,400.199127,103.900452,402.522644,105.422882C409.955841,110.293289,400.89032,134.647781,378.163422,170.863907C372.515503,179.864059,368.073944,187.407272,368.293274,187.626617C368.512634,187.845947,372.011993,184.30719,376.069672,179.762711C387.258636,167.231384,411.883087,142.236282,417.339783,137.871414C422.951324,133.382675,427.555298,132.746155,430.541779,136.046158C432.205475,137.884521,432.274506,138.659668,431.221558,143.67955C428.910095,154.699524,415.457611,178.895966,399.909088,200C398.085632,202.475006,404.455353,196.603363,414.064026,186.95192C433.555023,167.374161,439.158508,163.46196,443.908783,166.115128C445.749451,167.143204,446.594238,168.54129,446.825348,170.942017C447.558319,178.555588,436.44516,201.609009,422.694397,221C419.958374,224.858261,424.026978,221.208786,436.324646,208.773911C445.9664,199.024567,456.000824,189.687073,458.623352,188.023911C463.578979,184.881134,468.71225,184.112244,470.799988,186.199997C476.064026,191.464035,463.426544,218.849609,442.929779,246.595047C440.768402,249.520798,439,252.196152,439,252.540283C439,252.884399,442.472473,249.416107,446.716614,244.832977C463.200531,227.032425,478.753448,211.554855,484.360016,207.371979C488.917816,203.971527,491.0802,203,494.090942,203C497.428284,203,498.052094,203.35936,498.61618,205.606827C499.619965,209.606247,497.2547,218.560822,492.569153,228.5C487.228821,239.828186,482.111084,248.155319,471.877136,262.168213C467.431824,268.255005,464.24295,273.069672,464.79071,272.867554C465.338501,272.665405,474.722168,264.090881,485.643341,253.81308C508.174652,232.60907,518.543518,223.892853,524.908752,220.805939C528.915466,218.862869,529.553894,218.802246,531.908752,220.141235C534.111633,221.393814,534.49231,222.290222,534.44873,226.122635C534.350281,234.77916,521.548401,256.989929,506.14502,275.228546C501.940247,280.207275,497.600006,285.446411,496.5,286.871124L494.5,289.461487L496.611908,287.980743C497.773468,287.166351,507.448486,278.32135,518.111938,268.325226C538.695496,249.029755,549.32019,239.819351,555.153809,236.213943C562.418457,231.724152,568.829895,234.498703,567.672363,241.631409C566.442139,249.212479,554.675537,270.221069,545.110657,281.914032C539.728333,288.493866,542.608337,286.645447,555.104248,275.5C578.987244,254.198166,591.810608,245,597.624939,245C600.652649,245,603,247.565353,603,250.874329C603,254.348465,596.409485,268.020691,590.249146,277.326385C583.02356,288.241241,583.284973,287.698517,586.160645,285.814301C587.547119,284.905853,595.297363,279.409698,603.383423,273.600616C628.693054,255.417969,636.673462,251.584534,641.022644,255.520477C643.777283,258.013428,643.512207,260.495575,639.633606,268.528198C635.295471,277.512543,629.942688,284.308014,613.734192,301.408112C606.483582,309.057587,601.079468,315.132568,601.725037,314.908112C602.961365,314.478271,618.991211,299.986511,632.5,287.086151C697.565857,224.950821,697.302002,225.180893,699.84613,228.353241C701.586914,230.52388,699.705139,236.383865,693.079346,249.426025C681.379211,272.456238,667.927063,291.152344,644.056641,317.558838C637.311401,325.020721,631.951721,331.264008,632.146301,331.4328C633.139465,332.294556,681.559143,291.47876,716.815674,260.059998C741.34668,238.199234,751.661621,230,754.632263,230C758.936279,230,755.76001,239.894623,746.286011,256C734.540833,275.96637,725.678711,286.898804,696.654541,317.226166L674.502502,340.372803L687.001221,332.014679C703.851074,320.746918,723.18927,306.87973,749,287.556091C777.784485,266.006104,786.668396,259.684753,791.878418,257.045929C795.730286,255.095016,796.433655,255.005066,797.726624,256.298035C799.019592,257.591003,798.957764,258.307007,797.212891,262.251556C794.719116,267.889191,784.733337,282.793152,777.856689,291.141052C756.071594,317.587097,726.11969,344.429108,691.266602,368.74057C682.888184,374.584839,676.20459,379.537933,676.414124,379.747437C677.512634,380.846008,748.605957,342.661774,796,315.517853C822.267334,300.473785,830,297.480072,830,302.354675C830,308.117035,799.917725,340.240326,781.5,354.145294C758.549927,371.472107,726.285583,391.436493,697.744141,405.971344C688.595032,410.630585,681.2276,414.560913,681.37207,414.705414C681.827087,415.160431,716.690613,404.376923,736.5,397.654022C757.9151,390.386139,766.75592,387.156372,792.5,377.195953C820.757324,366.263123,830,363.881897,830,367.534698C830,369.984009,813.33252,386.607147,803.5,393.964172C791.320496,403.077271,780.16626,409.62439,761.872864,418.397644C725.175476,435.997192,696.62793,444.355011,659,448.515564C651.025024,449.397369,640.450012,451.018707,635.5,452.11853C611.206848,457.516113,555.429504,461.478394,534,459.328857z"/>
</svg>
