<?xml version="1.0" encoding="UTF-8"?>
<svg xmlns="http://www.w3.org/2000/svg" width="195.984mm" height="488.725mm" viewBox="-1051.844360 -828.311523 195.983765 488.724854">
    <path transform="matrix(-1.998136,0,0,-1.998136,-644.075928,-339.58667)" style="stroke:#000000;stroke-width:0.05mm;fill:none" d="M133.684982,244.034424C126.36895,241.70517,120,233.206528,120,225.773376C120,223.796021,120.908463,219.325592,122.018799,215.839096C127.564644,198.425003,125.076454,188.112869,113.970963,182.485291C111.313507,181.138657,108.432899,179.028442,107.569611,177.795929C104.181183,172.958267,106.489738,156.083344,112.172188,144.152283C117.767525,132.404129,125.83445,126.998291,135.587845,128.460907L139.817902,129.095245L142.78392,121.297623C144.415237,117.008926,146.742905,110.462502,147.956497,106.75C151.111435,97.098885,152.435837,97.986893,151.685089,109.25C151.345978,114.337502,150.823959,120.074997,150.525055,122L149.981567,125.5L151.490997,122.256516C153.050568,118.905273,159.06514,95.881989,161.027908,85.75C161.640549,82.587502,162.559891,80,163.070892,80C164.894547,80,164.537949,101.602203,162.504288,114.323189C161.816422,118.625938,161.617676,121.77594,162.062607,121.323189C163.902802,119.450661,167.1492,99.211037,168.610565,80.5C170.398315,57.609821,170.791519,54.837391,171.941452,57.014133C174.203308,61.29565,176.135956,80.204575,175.898178,95.726662C175.76123,104.667374,175.890259,112.223595,176.184921,112.518265C176.479599,112.812927,177.307129,104.493927,178.023895,94.031601C179.184387,77.092529,179.136627,72.955185,177.587891,56.254597C176.631317,45.939568,175.62854,33.900002,175.359512,29.5C174.91304,22.198076,175.004028,21.665457,176.402283,23.396137C181.796249,30.072533,187.108719,58.287487,188.922607,89.892677L189.703568,103.5L189.851776,81.081909C189.933304,68.751968,189.546921,55.701965,188.993164,52.081913C186.941071,38.666817,185.688309,32.146996,182.384476,17.687874C178.747345,1.770037,178.501053,0,179.923279,0C181.465607,0,190.722824,19.899416,194.393875,31.106146C210.764786,81.0821,205.989288,151.773849,183.01825,199.5C173.290771,219.710464,159.618439,237.101746,149.671875,241.916794C144.626297,244.359314,137.620285,245.287338,133.684982,244.034424z"/>
</svg>
