<?xml version="1.0" encoding="UTF-8"?>
<svg xmlns="http://www.w3.org/2000/svg" width="239.022mm" height="158.139mm" viewBox="-1458.057373 -499.437500 239.022217 158.138794">
    <path transform="matrix(-1,0,0,-1,0,0)" style="stroke:#000000;stroke-width:0.05mm;fill:none" d="M1338.539063,454.769531L1338.523438,454.765625C1338.455688,454.691772,1338.392456,454.614075,1338.335938,454.53125C1338.149902,454.196106,1337.975464,453.854736,1337.8125,453.507813C1337.758423,453.419769,1337.700928,453.333893,1337.640625,453.25C1337.605103,453.205811,1337.56311,453.168762,1337.523438,453.128906C1337.342163,453.418793,1337.184448,453.722717,1337.054688,454.039063C1337.036499,454.138855,1337.014771,454.237976,1336.988281,454.335938L1336.9375,454.449219C1336.886353,454.530853,1336.817139,454.5979,1336.738281,454.652344C1336.279053,455.720825,1335.77063,456.767487,1335.214844,457.789063C1335.131958,457.928955,1335.047485,458.067993,1334.957031,458.203125C1334.896606,458.271423,1334.839355,458.342438,1334.777344,458.410156L1334.738281,458.429688L1334.671875,458.449219C1334.617188,458.480255,1334.568359,458.51944,1334.519531,458.558594C1334.436157,458.646851,1334.356567,458.738678,1334.289063,458.839844C1334.048828,459.358398,1333.697021,459.817139,1333.261719,460.1875C1332.774414,460.59259,1332.301025,461.014374,1331.84375,461.453125C1331.194946,462.024475,1330.547729,462.589935,1329.894531,463.15625C1329.560303,463.452362,1329.260864,463.785004,1328.996094,464.144531C1328.932495,464.25354,1328.866577,464.361053,1328.800781,464.46875C1328.724854,464.551361,1328.638184,464.622559,1328.546875,464.6875L1328.453125,464.734375C1328.361572,464.743256,1328.270508,464.757568,1328.179688,464.773438L1328.085938,464.804688C1328.016724,464.838745,1327.95459,464.883362,1327.890625,464.925781L1327.710938,465.117188C1327.591553,465.371674,1327.431274,465.604248,1327.238281,465.808594L1327.171875,465.847656L1327.109375,465.863281L1327.058594,465.855469L1327.003906,465.84375C1326.962036,465.850464,1326.922119,465.863678,1326.882813,465.878906C1326.821411,465.937286,1326.759766,465.9953,1326.699219,466.054688C1326.618774,466.174438,1326.546509,466.299408,1326.476563,466.425781C1326.398682,466.504395,1326.311035,466.572052,1326.21875,466.632813C1326.156372,466.659332,1326.091675,466.678436,1326.027344,466.699219C1325.938599,466.703766,1325.849976,466.711426,1325.761719,466.722656L1325.617188,466.792969C1325.582031,466.829468,1325.547485,466.866638,1325.515625,466.90625C1325.498413,466.952515,1325.486816,467,1325.472656,467.046875L1325.460938,467.121094C1325.440063,467.175354,1325.410278,467.224854,1325.378906,467.273438C1325.313232,467.343719,1325.24353,467.410004,1325.164063,467.464844C1325.037964,467.519257,1324.910156,467.569641,1324.78125,467.617188L1324.601563,467.722656L1324.457031,467.84375C1324.409546,467.908844,1324.364868,467.975861,1324.320313,468.042969C1324.247437,468.127502,1324.174927,468.212311,1324.097656,468.292969C1323.544312,468.822815,1322.977539,469.338379,1322.398438,469.839844C1322.112427,470.091614,1321.861328,470.381042,1321.664063,470.707031L1321.5625,470.800781L1321.449219,470.84375C1321.378418,470.828583,1321.306396,470.823425,1321.234375,470.820313C1321.195801,470.835266,1321.157715,470.851501,1321.121094,470.871094L1321.011719,470.976563C1320.946411,471.085266,1320.880371,471.193665,1320.8125,471.300781L1320.644531,471.476563C1320.516724,471.584656,1320.376709,471.676666,1320.230469,471.757813L1320.078125,471.832031L1319.90625,471.925781C1319.154419,472.365997,1318.465942,472.905853,1317.855469,473.527344L1317.777344,473.628906C1317.73877,473.702637,1317.6875,473.767181,1317.640625,473.835938L1317.511719,473.914063L1317.363281,473.9375L1317.207031,473.902344C1317.131348,473.88623,1317.054321,473.877686,1316.976563,473.886719L1316.898438,473.914063L1316.828125,473.957031L1316.761719,474.011719C1316.675903,474.143036,1316.588623,474.272858,1316.5,474.402344C1316.154175,474.817047,1315.769043,475.197601,1315.347656,475.535156C1314.398315,476.308136,1313.461548,477.097473,1312.539063,477.902344C1312.212158,478.168549,1311.918335,478.473328,1311.667969,478.8125C1311.604858,478.930725,1311.515625,479.031952,1311.40625,479.109375C1311.269897,479.139099,1311.138916,479.189087,1311.019531,479.261719L1310.886719,479.355469C1310.323853,479.75946,1309.816895,480.23587,1309.375,480.769531C1309.276123,480.919403,1309.180908,481.071747,1309.089844,481.226563L1308.898438,481.433594C1308.72937,481.577087,1308.536743,481.688721,1308.332031,481.773438C1308.261597,481.794617,1308.189453,481.807953,1308.117188,481.820313L1308.023438,481.820313C1307.957153,481.807312,1307.892822,481.78717,1307.828125,481.767578C1307.434204,482.25415,1306.985596,482.693909,1306.488281,483.074219C1306.402344,483.122437,1306.312866,483.163727,1306.222656,483.203125L1306.113281,483.242188L1306.039063,483.242188C1306.020752,483.21814,1306.010132,483.191193,1306,483.164063C1306.004028,483.12616,1306.008423,483.088287,1306.015625,483.050781C1306.128418,482.53299,1306.343384,482.041992,1306.660156,481.617188L1306.738281,481.539063C1306.807251,481.49707,1306.870483,481.447388,1306.9375,481.402344C1307.009766,481.311768,1307.061646,481.207611,1307.097656,481.097656C1307.104126,481.007294,1307.109741,480.917084,1307.125,480.828125C1307.153076,480.760254,1307.180298,480.692078,1307.21875,480.628906C1307.271851,480.55899,1307.331543,480.49469,1307.394531,480.433594L1307.507813,480.34375C1307.683716,480.238007,1307.863159,480.138275,1308.046875,480.046875C1308.157593,479.97348,1308.260742,479.889679,1308.359375,479.800781L1308.429688,479.71875L1308.480469,479.644531L1308.5,479.574219L1308.519531,479.507813C1308.571289,479.425812,1308.633545,479.351959,1308.699219,479.28125L1308.890625,479.132813L1309.34375,478.882813C1309.436523,478.813782,1309.526855,478.741333,1309.609375,478.660156C1309.661987,478.593384,1309.700317,478.518372,1309.734375,478.441406L1309.753906,478.375C1309.781372,478.321899,1309.817505,478.275116,1309.851563,478.226563C1309.934448,478.142883,1310.029053,478.073364,1310.121094,478C1310.373657,477.899139,1310.606201,477.752197,1310.800781,477.5625C1310.942627,477.414398,1311.062866,477.247253,1311.152344,477.0625C1311.214844,476.980011,1311.282837,476.901886,1311.355469,476.828125C1311.604736,476.578033,1311.894531,476.371674,1312.210938,476.214844C1312.556274,476.043518,1312.874634,475.822083,1313.152344,475.554688C1313.196899,475.500702,1313.242188,475.447601,1313.277344,475.386719L1313.316406,475.316406C1313.356323,475.255463,1313.408203,475.20575,1313.457031,475.152344L1313.554688,475.066406C1313.800537,474.904205,1314.053223,474.752838,1314.3125,474.613281C1314.434448,474.523071,1314.542847,474.416931,1314.644531,474.304688L1314.726563,474.195313C1314.782593,474.088257,1314.838257,473.981201,1314.878906,473.867188C1314.940186,473.787354,1315.004395,473.710419,1315.0625,473.628906C1315.353027,473.353149,1315.693359,473.135925,1316.0625,472.980469C1316.658691,472.653229,1317.183594,472.210083,1317.609375,471.679688C1317.751953,471.540131,1317.908813,471.415497,1318.082031,471.316406L1318.171875,471.28125C1318.226685,471.276947,1318.281494,471.274506,1318.335938,471.265625L1318.457031,471.214844C1319.240723,470.738159,1319.925903,470.117279,1320.480469,469.386719L1320.523438,469.285156C1320.520142,469.244843,1320.522095,469.20462,1320.519531,469.164063L1320.542969,469.105469C1320.579712,469.056519,1320.622803,469.013641,1320.664063,468.96875C1320.772217,468.891968,1320.880981,468.816132,1320.996094,468.75C1321.265991,468.63501,1321.518066,468.482269,1321.742188,468.292969C1321.783936,468.244629,1321.824219,468.195068,1321.863281,468.144531C1321.888672,468.066742,1321.929321,467.996674,1321.96875,467.925781C1322.030151,467.847351,1322.100708,467.776978,1322.171875,467.707031C1322.490112,467.441315,1322.82019,467.190277,1323.160156,466.953125C1323.377319,466.803406,1323.567261,466.616943,1323.714844,466.398438C1323.737915,466.295288,1323.791992,466.20285,1323.863281,466.125C1323.95105,466.047882,1324.040894,465.973206,1324.136719,465.90625C1324.489624,465.74762,1324.816895,465.537842,1325.113281,465.289063C1325.799805,464.523834,1326.508423,463.778656,1327.238281,463.054688C1327.498535,462.755829,1327.766724,462.463898,1328.042969,462.179688L1328.207031,462.050781C1328.293091,462.003723,1328.373535,461.947754,1328.453125,461.890625C1328.507813,461.845123,1328.556396,461.793579,1328.609375,461.746094C1329.758667,460.542938,1330.81604,459.255402,1331.773438,457.894531C1331.809692,457.844086,1331.829956,457.785706,1331.847656,457.726563L1331.871094,457.625L1331.933594,457.523438L1332.027344,457.429688L1332.148438,457.359375L1332.183594,457.332031L1332.234375,457.277344C1332.509644,456.878723,1332.753418,456.459045,1332.957031,456.019531C1333.563843,454.849335,1334.096802,453.642365,1334.554688,452.40625C1334.668823,452.091614,1334.730225,451.760406,1334.738281,451.425781C1334.726196,451.305389,1334.710205,451.185425,1334.671875,451.070313L1334.601563,450.917969C1334.465088,450.698212,1334.286133,450.507782,1334.074219,450.359375C1333.990234,450.283234,1333.910278,450.203064,1333.832031,450.121094C1333.360107,449.515686,1332.938599,448.872742,1332.570313,448.199219L1332.5,448.300781L1332.371094,448.460938C1332.233887,448.627472,1332.067139,448.766754,1331.882813,448.878906L1331.753906,448.976563C1331.375977,449.300385,1331.049438,449.67981,1330.785156,450.101563C1330.315308,450.672913,1329.83374,451.234528,1329.339844,451.785156C1328.851807,452.400482,1328.342285,452.998413,1327.8125,453.578125C1327.5802,453.80127,1327.349121,454.026459,1327.121094,454.253906L1326.984375,454.4375C1326.698853,454.922729,1326.362671,455.376038,1325.984375,455.792969C1324.974854,456.984161,1323.902832,458.121002,1322.773438,459.199219C1322.458862,459.520142,1322.147583,459.84436,1321.839844,460.171875C1321.752441,460.275574,1321.661255,460.375946,1321.570313,460.476563C1321.549683,460.525604,1321.531738,460.575714,1321.511719,460.625C1321.448608,460.739197,1321.373901,460.846222,1321.289063,460.945313L1321.082031,461.132813C1320.958984,461.214691,1320.829712,461.286041,1320.699219,461.355469C1320.633545,461.414856,1320.56665,461.472961,1320.5,461.53125C1320.405762,461.587433,1320.325439,461.6651,1320.273438,461.761719C1320.250366,461.830017,1320.228149,461.898621,1320.199219,461.964844L1320.085938,462.109375C1319.97998,462.203674,1319.862793,462.283905,1319.738281,462.351563C1319.693604,462.383514,1319.64856,462.414917,1319.605469,462.449219L1319.554688,462.542969L1319.464844,462.703125C1319.400146,462.764069,1319.343384,462.832916,1319.287109,462.902344C1319.291504,462.993622,1319.275879,463.082977,1319.257813,463.171875C1319.233521,463.234711,1319.199341,463.292206,1319.167969,463.351563L1319.023438,463.507813C1318.739502,463.661926,1318.471313,463.843811,1318.226563,464.054688C1317.906006,464.430054,1317.582642,464.808563,1317.261719,465.183594C1317.036255,465.441742,1316.783813,465.6745,1316.511719,465.882813L1316.347656,465.976563C1316.233276,466.014313,1316.123535,466.063812,1316.015625,466.117188L1315.84375,466.261719L1315.703125,466.449219C1315.642334,466.587067,1315.584595,466.726288,1315.53125,466.867188C1315.45813,467.000916,1315.360962,467.1185,1315.253906,467.226563C1314.643066,467.592926,1314.07959,468.033081,1313.574219,468.535156C1312.847412,469.216461,1312.116211,469.906952,1311.394531,470.59375C1310.949463,470.969788,1310.486694,471.324432,1310.007813,471.65625L1309.75,471.894531C1309.624023,472.020142,1309.525513,472.169678,1309.453125,472.332031L1309.367188,472.503906L1309.222656,472.660156L1309.039063,472.777344L1308.835938,472.84375L1308.726563,472.875L1308.597656,472.933594L1308.460938,473.011719C1308.145386,473.223663,1307.869629,473.489532,1307.640625,473.792969C1307.197876,474.26474,1306.65979,474.63797,1306.0625,474.886719C1305.830566,474.989197,1305.625977,475.145691,1305.472656,475.347656C1305.414185,475.455292,1305.336426,475.551819,1305.238281,475.625C1304.535156,476.25116,1303.793091,476.832214,1303.015625,477.363281C1301.472046,478.465942,1299.88208,479.502045,1298.25,480.46875C1297.955566,480.65979,1297.680298,480.87912,1297.433594,481.128906C1297.396484,481.181702,1297.363037,481.236511,1297.332031,481.292969C1297.327271,481.346893,1297.328857,481.328766,1297.324219,481.382813C1297.306885,481.417114,1297.289307,481.451324,1297.269531,481.484375C1297.233765,481.529785,1297.189087,481.564758,1297.148438,481.605469C1297.091797,481.658325,1297.026733,481.699341,1296.964844,481.746094C1296.262573,482.163147,1295.531128,482.529053,1294.777344,482.84375C1294.254272,483.071289,1293.754761,483.35022,1293.289063,483.679688C1293.18811,483.757843,1293.093384,483.843903,1293.015625,483.945313C1292.996216,483.983032,1292.976685,484.021027,1292.957031,484.058594C1292.856079,484.171844,1292.744751,484.275177,1292.621094,484.363281C1291.793457,484.897217,1290.927734,485.369476,1290.03125,485.777344C1289.019531,486.243866,1288.039429,486.776001,1287.097656,487.371094L1286.992188,487.449219C1286.907959,487.52417,1286.821899,487.596832,1286.734375,487.667969C1286.65564,487.717377,1286.57605,487.764954,1286.496094,487.8125C1284.775757,488.677002,1283.023193,489.475525,1281.242188,490.207031C1277.541016,491.791992,1273.815918,493.323669,1270.070313,494.800781C1269.564575,495.012787,1269.035889,495.165192,1268.496094,495.261719C1268.419434,495.268799,1268.342651,495.274017,1268.265625,495.269531C1268.211426,495.26001,1268.157349,495.250092,1268.105469,495.230469L1267.976563,495.1875C1267.586182,495.1651,1267.197388,495.243744,1266.839844,495.402344C1266.391113,495.589966,1265.94043,495.773865,1265.488281,495.953125C1265.172607,496.062164,1264.852051,496.156158,1264.527344,496.234375C1264.169067,496.299957,1263.805664,496.331726,1263.441406,496.335938L1263.246094,496.367188C1263.116211,496.390625,1262.990234,496.429169,1262.863281,496.464844C1262.599121,496.584747,1262.339844,496.715149,1262.085938,496.855469C1261.574829,497.050049,1261.031372,497.143463,1260.484375,497.148438C1259.751953,497.231903,1259.036377,497.425781,1258.363281,497.726563C1258.234131,497.777924,1258.103271,497.824554,1257.96875,497.859375L1257.800781,497.902344C1257.713989,497.914459,1257.626587,497.921356,1257.539063,497.925781L1257.457031,497.910156C1257.427979,497.884186,1257.403076,497.854797,1257.375,497.828125L1257.304688,497.804688L1257.210938,497.796875L1257.097656,497.808594C1256.88623,497.839813,1256.680664,497.902832,1256.488281,497.996094C1256.208374,498.111847,1255.911987,498.183167,1255.609375,498.199219C1255.513916,498.184021,1255.417236,498.18045,1255.320313,498.171875C1255.246338,498.145508,1255.171997,498.11908,1255.097656,498.09375L1254.957031,498.074219C1254.710205,498.074799,1254.46521,498.109314,1254.226563,498.171875C1253.964966,498.26416,1253.705933,498.363495,1253.449219,498.46875L1253.101563,498.5625C1252.97583,498.589691,1252.84668,498.599426,1252.71875,498.585938C1252.639771,498.553345,1252.556519,498.536804,1252.472656,498.523438L1252.34375,498.535156C1252.035034,498.579803,1251.734741,498.67041,1251.453125,498.804688C1251.169922,498.935699,1250.870361,499.027618,1250.5625,499.078125C1250.484375,499.082153,1250.40625,499.08316,1250.328125,499.078125C1250.25647,499.05246,1250.18396,499.030579,1250.113281,499.003906L1250.019531,498.996094L1249.910156,499.003906C1249.66626,499.060577,1249.425293,499.128601,1249.1875,499.207031C1249.006592,499.236542,1248.822754,499.243591,1248.640625,499.222656C1248.563843,499.207245,1248.491089,499.179321,1248.417969,499.152344C1248.272583,499.092133,1248.117432,499.064941,1247.960938,499.050781L1247.722656,499.0625L1247.515625,499.121094L1247.324219,499.1875L1247.132813,499.210938L1246.953125,499.199219L1246.753906,499.117188L1246.664063,499.101563C1246.488281,499.110168,1246.313599,499.133575,1246.144531,499.183594C1245.991821,499.23645,1245.84082,499.293945,1245.691406,499.355469C1245.590698,499.383728,1245.489136,499.408386,1245.386719,499.429688L1245.246094,499.4375C1245.163574,499.433014,1245.081421,499.424622,1245,499.410156L1244.902344,499.371094C1244.786743,499.280823,1244.661499,499.204102,1244.527344,499.144531L1244.367188,499.121094L1244.226563,499.148438C1243.958374,499.222687,1243.680298,499.254395,1243.402344,499.242188C1242.835327,499.262329,1242.267822,499.227142,1241.707031,499.140625C1240.723389,498.907806,1239.720581,498.764679,1238.710938,498.714844C1238.176636,498.696136,1237.642822,498.668304,1237.109375,498.632813C1236.938599,498.623596,1236.768555,498.602905,1236.601563,498.566406L1236.386719,498.519531C1236.183472,498.474152,1235.995605,498.378906,1235.832031,498.25L1235.644531,498.199219L1235.445313,498.195313C1235.314453,498.231293,1235.182007,498.266083,1235.050781,498.300781C1234.802979,498.340057,1234.547852,498.304871,1234.324219,498.191406C1234.232056,498.150879,1234.137817,498.115753,1234.042969,498.082031C1233.50708,497.928223,1232.961548,497.809692,1232.410156,497.726563C1230.26416,497.161987,1228.175781,496.398315,1226.171875,495.445313C1226.028931,495.377716,1225.89624,495.290894,1225.773438,495.191406C1225.737061,495.132782,1225.699219,495.075134,1225.664063,495.015625C1225.589355,494.918091,1225.488159,494.846252,1225.371094,494.808594C1225.309082,494.794769,1225.247192,494.780273,1225.1875,494.757813C1224.994873,494.664948,1224.810059,494.556396,1224.640625,494.425781C1224.228882,494.1315,1223.858521,493.783142,1223.539063,493.390625L1223.460938,493.273438C1223.376343,493.077332,1223.252808,492.900818,1223.101563,492.75C1223.041992,492.70993,1222.981567,492.671051,1222.914063,492.644531L1222.851563,492.617188C1222.505981,492.262604,1222.203491,491.86853,1221.953125,491.441406C1221.515991,490.780762,1221.127808,490.08902,1220.792969,489.371094C1220.435425,488.571381,1220.215576,487.716888,1220.144531,486.84375L1220.148438,486.730469L1220.160156,486.640625C1220.172729,486.609161,1220.186768,486.57843,1220.199219,486.546875C1220.201782,486.417206,1220.177246,486.289551,1220.144531,486.164063C1219.957031,485.538239,1219.721924,484.927795,1219.445313,484.335938C1219.25354,483.933075,1219.119873,483.505249,1219.039063,483.066406C1219.03479,483.027191,1219.037476,482.988403,1219.035156,482.949219C1219.043823,482.929657,1219.05542,482.912262,1219.066406,482.894531C1219.103638,482.861115,1219.130249,482.82019,1219.160156,482.78125C1219.228882,482.598572,1219.279663,482.409454,1219.296875,482.214844C1219.316772,481.764435,1219.363281,481.31546,1219.439453,480.871094C1219.332764,480.655365,1219.241577,480.432251,1219.167969,480.203125C1218.998413,479.607269,1219.000122,478.976318,1219.164063,478.378906C1219.431763,477.056854,1219.889282,475.780396,1220.523438,474.589844C1220.667358,474.291748,1220.858643,474.017975,1221.09375,473.785156L1221.222656,473.675781C1221.396729,473.621216,1221.550903,473.514221,1221.664063,473.371094L1221.757813,473.25L1221.921875,472.960938C1222.206665,472.326813,1222.250244,471.608948,1222.03125,470.949219L1222.007813,470.792969C1222.012939,470.700836,1222.022827,470.609039,1222.046875,470.519531L1222.117188,470.390625L1222.226563,470.25C1222.467285,470.024109,1222.697266,469.786774,1222.90625,469.53125C1223.498535,468.728302,1224.020508,467.875793,1224.46875,466.984375C1224.669067,466.598389,1224.919067,466.240295,1225.210938,465.917969L1225.253906,465.878906C1225.313354,465.844208,1225.373047,465.81015,1225.433594,465.777344L1225.570313,465.660156L1225.691406,465.515625C1225.737183,465.43811,1225.783813,465.361237,1225.832031,465.285156C1225.927856,465.194122,1226.029419,465.109009,1226.144531,465.042969C1226.428833,464.888794,1226.735474,464.78244,1227.050781,464.710938C1227.121704,464.693756,1227.189819,464.667572,1227.257813,464.640625L1227.402344,464.566406L1227.484375,464.484375L1227.558594,464.328125C1227.602783,463.960693,1227.602417,463.589172,1227.550781,463.222656C1227.541992,462.914429,1227.470093,462.611267,1227.347656,462.328125L1227.34375,462.203125C1227.358643,462.088501,1227.379028,461.974609,1227.410156,461.863281C1227.646362,461.11554,1228.015381,460.417236,1228.5,459.800781C1228.567261,459.737305,1228.636719,459.67627,1228.71875,459.632813C1229.463745,459.329041,1230.091797,458.793427,1230.496094,458.097656L1230.554688,457.976563C1230.762085,457.662933,1231.029175,457.393494,1231.34375,457.1875C1231.675049,456.916779,1231.941162,456.575928,1232.136719,456.195313C1232.407349,455.773926,1232.610962,455.312469,1232.738281,454.828125C1232.840942,454.536072,1232.951782,454.246918,1233.070313,453.960938C1233.145752,453.732605,1233.154907,453.488342,1233.101563,453.253906C1233.088257,453.205139,1233.080688,453.155396,1233.074219,453.105469C1233.080566,453.03241,1233.088135,452.959442,1233.097656,452.886719C1233.282349,452.119202,1233.549194,451.373932,1233.894531,450.664063C1234.169922,449.998779,1234.522339,449.367828,1234.945313,448.785156C1234.994141,448.726135,1235.045776,448.669556,1235.097656,448.613281C1235.140503,448.584717,1235.181152,448.55304,1235.226563,448.527344C1235.297974,448.516083,1235.370117,448.503754,1235.441406,448.492188L1235.601563,448.402344L1235.746094,448.265625C1235.839844,448.089813,1235.951782,447.924194,1236.082031,447.773438L1236.222656,447.664063C1236.279419,447.642639,1236.335449,447.619202,1236.390625,447.59375L1236.4375,447.546875C1236.69751,447.159485,1236.921265,446.749023,1237.105469,446.320313C1237.502319,445.480194,1237.874146,444.628479,1238.21875,443.765625L1238.257813,443.574219C1238.39563,442.947601,1238.474609,442.309235,1238.496094,441.667969L1238.492188,441.550781C1238.484497,441.512848,1238.47644,441.475433,1238.46875,441.4375L1238.46875,441.382813C1238.477173,441.325348,1238.488525,441.268494,1238.496094,441.210938C1238.745605,440.317749,1239.057617,439.443237,1239.429688,438.59375C1239.435181,438.522552,1239.450195,438.453796,1239.453125,438.382813C1239.692261,437.601715,1240.004517,436.845093,1240.382813,436.121094C1240.947632,434.90329,1241.577637,433.716736,1242.269531,432.566406C1242.334473,432.468994,1242.401001,432.372742,1242.46875,432.277344L1242.554688,432.167969L1242.628906,432.085938L1242.691406,432.027344C1242.72876,432.005676,1242.766846,431.985657,1242.804688,431.964844C1242.833008,431.939575,1242.862793,431.916412,1242.890625,431.890625C1243.083618,431.405945,1243.229736,430.903687,1243.324219,430.390625C1243.320068,430.329346,1243.314209,430.268188,1243.308594,430.207031C1243.39856,429.628204,1243.55127,429.06073,1243.765625,428.515625C1243.994995,427.758331,1244.319214,427.03299,1244.734375,426.359375C1244.824829,426.231995,1244.927002,426.112976,1245.050781,426.017578C1245.56311,424.857544,1246.179688,423.746643,1246.894531,422.699219C1246.936035,422.667145,1246.979614,422.638062,1247.023438,422.609375C1247.160278,422.485504,1247.286987,422.351074,1247.402344,422.207031C1247.792725,421.717499,1248.172974,421.21991,1248.542969,420.714844C1249.173462,419.894592,1249.943481,419.191925,1250.816406,418.636719C1251.075317,418.494629,1251.339355,418.361786,1251.609375,418.242188L1251.804688,418.101563C1251.944092,417.972473,1252.061646,417.821381,1252.148438,417.652344C1252.577393,417.130585,1253.064941,416.660095,1253.601563,416.25C1254.324341,415.636444,1255.102661,415.0914,1255.925781,414.621094C1257.29895,413.864868,1258.806152,413.383514,1260.363281,413.203125C1260.592163,413.187286,1260.821655,413.172821,1261.050781,413.160156C1261.401978,413.137939,1261.753662,413.122162,1262.105469,413.113281C1261.688232,412.571106,1261.271484,412.032257,1260.851563,411.492188C1260.064453,410.2547,1259.352417,408.971069,1258.71875,407.648438C1257.970215,406.193604,1257.30127,404.699219,1256.714844,403.171875C1256.595825,402.910645,1256.523438,402.630096,1256.503906,402.34375L1256.503906,402.179688L1256.488281,401.992188C1256.400635,401.415863,1256.228882,400.855499,1255.980469,400.328125L1255.882813,399.984375C1255.829956,399.823242,1255.836304,399.649872,1255.898438,399.492188C1255.940796,399.293243,1255.949951,399.089325,1255.933594,398.886719C1255.817139,398.197784,1255.838989,397.492401,1256,396.8125C1256.1073,396.399597,1256.152222,395.972656,1256.125,395.546875C1256.109863,395.490723,1256.094116,395.434845,1256.078125,395.378906C1256.038086,395.025146,1256.067627,394.666931,1256.164063,394.324219C1256.266479,393.978333,1256.310791,393.61731,1256.28125,393.257813C1256.277954,393.220154,1256.273926,393.182617,1256.277344,393.144531C1256.349609,392.79187,1256.465576,392.449677,1256.621094,392.125C1257.037476,391.105042,1257.550903,390.127472,1258.15625,389.207031C1258.203003,389.13208,1258.267212,389.071747,1258.332031,389.011719C1258.402832,388.97403,1258.47168,388.932861,1258.527344,388.875L1258.605469,388.792969C1258.928223,388.365448,1259.184937,387.891846,1259.363281,387.386719C1259.830688,386.23764,1260.144287,385.031891,1260.296875,383.800781C1260.309204,383.506653,1260.310791,383.212219,1260.300781,382.917969C1260.312256,382.836487,1260.327148,382.755524,1260.347656,382.675781C1260.365601,382.639771,1260.384766,382.60437,1260.40625,382.570313C1260.432739,382.54837,1260.461914,382.53067,1260.488281,382.507813C1260.738525,382.155701,1260.947998,381.776398,1261.117188,381.378906C1261.273315,380.993439,1261.483154,380.632233,1261.734375,380.300781L1261.816406,380.210938C1261.875977,380.166321,1261.936035,380.122101,1261.996094,380.078125C1262.136475,379.935608,1262.235352,379.757172,1262.28125,379.5625C1262.325806,379.432983,1262.403809,379.319519,1262.496094,379.21875C1262.545044,379.177887,1262.596191,379.139618,1262.652344,379.109375L1262.738281,379.074219C1262.796021,379.065948,1262.853149,379.054626,1262.910156,379.042969L1263.011719,379C1263.271729,378.851379,1263.488281,378.638214,1263.644531,378.382813C1264.033203,377.87323,1264.551758,377.477966,1265.144531,377.234375L1265.335938,377.117188L1265.435547,377.035156C1265.557739,376.783173,1265.74585,376.570343,1265.972656,376.40625L1266.03125,376.296875C1266.157471,375.942169,1266.327637,375.604462,1266.539063,375.292969C1266.589233,375.227325,1266.639893,375.162384,1266.703125,375.109375C1266.748413,375.080261,1266.793823,375.051392,1266.839844,375.023438C1266.891357,374.9758,1266.937988,374.923584,1266.984375,374.871094C1267.067749,374.762299,1267.135864,374.643066,1267.195313,374.519531L1267.414063,373.972656L1267.546875,373.726563C1267.590576,373.661652,1267.638428,373.599915,1267.6875,373.539063L1267.757813,373.472656C1268.008911,373.328278,1268.190918,373.087372,1268.253906,372.804688C1268.349365,372.512146,1268.55188,372.267609,1268.820313,372.117188C1268.998291,372.025726,1269.131958,371.868073,1269.199219,371.679688C1269.192627,371.486664,1269.240234,371.294312,1269.351563,371.136719C1269.443604,371.02121,1269.559204,370.928162,1269.6875,370.855469L1269.871094,370.75L1270.003906,370.625L1270.046875,370.5625C1270.06189,370.522064,1270.071655,370.480072,1270.078125,370.4375C1270.07019,370.400757,1270.060425,370.36441,1270.050781,370.328125C1270.056885,370.292053,1270.067993,370.257507,1270.078125,370.222656L1270.117188,370.171875C1270.224976,370.083954,1270.351563,370.024872,1270.484375,369.984375L1270.566406,369.925781L1270.644531,369.851563C1270.780518,369.696472,1270.858765,369.499023,1270.867188,369.292969C1270.9104,368.511932,1271.103271,367.746307,1271.4375,367.039063C1271.490845,366.937866,1271.549561,366.839661,1271.609375,366.742188C1271.679565,366.605408,1271.803223,366.501495,1271.953125,366.46875C1272.065063,366.458374,1272.1698,366.410919,1272.25,366.332031L1272.296875,366.269531C1272.31665,366.216766,1272.331787,366.163391,1272.355469,366.113281C1272.355835,366.051849,1272.362793,365.990967,1272.367188,365.929688L1272.40625,365.828125C1272.501587,365.660461,1272.6427,365.524323,1272.808594,365.425781C1273.021118,365.307129,1273.236328,365.192596,1273.453125,365.082031C1273.656006,364.980133,1273.83252,364.831665,1273.960938,364.644531C1273.97937,364.597717,1273.997925,364.550995,1274.015625,364.503906C1274.074097,364.433685,1274.140381,364.370544,1274.210938,364.3125C1274.672363,363.999207,1275.16333,363.731842,1275.675781,363.511719C1275.918213,363.404358,1276.137939,363.251038,1276.320313,363.058594C1276.327881,363.02417,1276.322266,362.991425,1276.324219,362.957031C1276.342041,362.888245,1276.36792,362.82196,1276.398438,362.757813C1276.604248,362.393524,1276.83667,362.044922,1277.09375,361.714844L1277.183594,361.570313C1277.814331,360.479614,1278.358032,359.340729,1278.808594,358.164063C1279.32373,356.874847,1279.945679,355.630981,1280.667969,354.445313C1280.844849,354.122894,1281.108154,353.857208,1281.425781,353.671875L1281.546875,353.558594L1281.636719,353.425781C1281.652466,353.368958,1281.672363,353.313568,1281.691406,353.257813C1281.955688,352.997284,1282.267334,352.789825,1282.605469,352.636719C1283.571533,352.10144,1284.594727,351.6763,1285.65625,351.371094C1285.73877,351.35202,1285.822266,351.338104,1285.90625,351.328125C1287.493774,350.563324,1289.1427,349.933136,1290.835938,349.445313C1291.346802,349.214325,1291.837524,348.940704,1292.300781,348.625C1292.338745,348.585541,1292.380859,348.55188,1292.414063,348.507813C1292.416626,348.477356,1292.411499,348.448029,1292.410156,348.417969L1292.425781,348.355469L1292.460938,348.289063L1292.519531,348.222656C1292.641479,348.116791,1292.776611,348.027649,1292.921875,347.957031C1293.120972,347.864471,1293.296265,347.725464,1293.417969,347.542969C1293.49292,347.432617,1293.531006,347.300262,1293.515625,347.167969C1293.533936,347.060883,1293.587891,346.964142,1293.660156,346.882813C1293.767822,346.749603,1293.907959,346.647949,1294.0625,346.574219C1294.223755,346.493652,1294.37085,346.38739,1294.492188,346.253906L1294.527344,346.1875L1294.542969,346.125C1294.53479,346.089874,1294.5271,346.05481,1294.519531,346.019531L1294.535156,345.957031C1294.560547,345.908386,1294.596069,345.867645,1294.628906,345.824219L1294.792969,345.6875C1295.020874,345.583099,1295.238037,345.456329,1295.4375,345.304688C1295.526245,345.236664,1295.592163,345.145142,1295.636719,345.042969C1295.64978,345.004791,1295.666748,344.96817,1295.6875,344.933594L1295.746094,344.867188C1296.210205,344.475128,1296.724487,344.146912,1297.273438,343.886719C1298.030396,343.488586,1298.815063,343.145508,1299.621094,342.859375C1299.897583,342.758057,1300.184082,342.685913,1300.476563,342.652344L1301.152344,342.589844C1301.907715,342.186005,1302.716553,341.891602,1303.554688,341.714844C1303.628052,341.695892,1303.703491,341.703644,1303.777344,341.71875C1303.946289,341.729126,1304.115356,341.717041,1304.28125,341.683594C1304.741333,341.575592,1305.200195,341.467651,1305.660156,341.359375C1306.016479,341.285278,1306.383545,341.278198,1306.742188,341.339844C1306.862305,341.378326,1306.982056,341.41687,1307.101563,341.457031C1307.194458,341.473663,1307.288574,341.480286,1307.382813,341.480469C1307.424194,341.466034,1307.465454,341.451477,1307.503906,341.429688L1307.539063,341.386719C1307.557983,341.375763,1307.575562,341.362701,1307.597656,341.355469C1307.641968,341.354095,1307.686157,341.352661,1307.730469,341.355469C1308.254883,341.468994,1308.764771,341.641937,1309.25,341.871094C1310.007813,342.239777,1310.795898,342.54306,1311.605469,342.777344C1311.671509,342.792084,1311.737793,342.806213,1311.804688,342.816406C1311.886719,342.820404,1311.967407,342.804962,1312.042969,342.773438C1312.449951,342.670685,1312.869751,342.627869,1313.289063,342.648438C1313.905396,342.64563,1314.508789,342.641724,1315.125,342.636719C1315.416748,342.668152,1315.702881,342.740112,1315.972656,342.855469L1316.234375,342.9375L1316.515625,342.972656L1316.65625,342.96875C1316.825073,342.951569,1316.98999,342.908447,1317.148438,342.847656C1317.633301,342.837677,1318.112793,342.944397,1318.550781,343.152344C1319.092773,343.366028,1319.604736,343.649719,1320.070313,344C1320.310425,344.18396,1320.505005,344.42099,1320.640625,344.691406C1320.768311,344.886719,1320.935425,345.054169,1321.136719,345.171875C1321.383789,345.313782,1321.603882,345.497772,1321.792969,345.710938C1322.397827,346.333649,1322.912354,347.038361,1323.320313,347.804688C1323.37207,347.912689,1323.412842,348.025421,1323.445313,348.140625C1323.450684,348.216064,1323.451294,348.291626,1323.449219,348.367188C1323.45459,348.443329,1323.464233,348.519073,1323.492188,348.589844C1323.546631,348.725555,1323.628296,348.849365,1323.742188,348.941406C1323.819946,348.976105,1323.891846,349.023773,1323.945313,349.089844C1324.245483,349.504395,1324.502808,349.948242,1324.714844,350.414063C1325.231934,351.520264,1325.72168,352.63916,1326.183594,353.769531C1326.597778,354.728088,1327.035278,355.676239,1327.496094,356.613281C1328.419067,358.819183,1329.196899,361.083191,1329.824219,363.390625C1330.500244,365.539581,1331.216309,367.674835,1331.972656,369.796875C1332.068481,370.032135,1332.125366,370.281586,1332.140625,370.535156C1332.133667,370.55899,1332.135132,370.582062,1332.128906,370.605469C1332.220703,371.109192,1332.349487,371.60556,1332.515625,372.089844C1332.865967,373.078735,1333.14917,374.090179,1333.363281,375.117188C1333.407959,375.251709,1333.415771,375.396393,1333.386719,375.535156C1333.36084,375.613739,1333.346924,375.69516,1333.339844,375.777344L1333.367188,375.871094C1333.397217,375.902405,1333.425171,375.935608,1333.453125,375.96875C1333.738159,376.744202,1333.971313,377.537689,1334.152344,378.34375C1334.575684,379.950531,1334.937988,381.572845,1335.238281,383.207031C1335.25,383.299316,1335.261108,383.391754,1335.269531,383.484375L1335.273438,383.574219C1335.258545,383.647552,1335.255005,383.722778,1335.265625,383.796875C1335.348389,384.237,1335.462524,384.670654,1335.609375,385.09375C1335.850952,385.816895,1335.999878,386.567657,1336.054688,387.328125C1336.092651,388.093231,1336.24292,388.848663,1336.5,389.570313C1336.58728,389.798859,1336.637207,390.04071,1336.628906,390.285156C1336.700073,390.935486,1336.822388,391.579163,1336.992188,392.210938C1337.310181,393.528717,1337.548584,394.864624,1337.707031,396.210938C1337.731323,396.443604,1337.726929,396.677948,1337.699219,396.910156C1337.686401,396.958496,1337.670166,397.005524,1337.660156,397.054688C1337.657959,397.126984,1337.668945,397.197815,1337.675781,397.269531C1337.774902,397.654175,1337.921021,398.025269,1338.109375,398.375C1338.196045,398.616669,1338.273804,398.861481,1338.324219,399.113281C1338.330444,399.213959,1338.344971,399.313934,1338.359375,399.414063C1338.379883,400.095856,1338.442627,400.775757,1338.550781,401.449219C1338.661743,400.728729,1338.729126,400.002136,1338.75,399.273438C1338.814331,398.839111,1338.94751,398.417694,1339.148438,398.027344C1339.254028,397.830505,1339.336182,397.621887,1339.394531,397.40625C1339.416504,397.322754,1339.428467,397.237518,1339.441406,397.152344C1339.431519,397.03653,1339.416382,396.921173,1339.386719,396.808594C1339.364746,396.366943,1339.401978,395.924255,1339.496094,395.492188C1339.648071,394.263245,1339.881348,393.045471,1340.195313,391.847656C1340.328003,391.334778,1340.420532,390.812347,1340.472656,390.285156C1340.46106,390.199127,1340.463623,390.111725,1340.484375,390.027344C1340.626465,389.527313,1340.763184,389.026367,1340.894531,388.523438C1340.99231,388.058136,1341.046631,387.584686,1341.058594,387.109375C1341.163086,386.247711,1341.361816,385.399933,1341.652344,384.582031C1341.747437,384.291473,1341.810791,383.991455,1341.84375,383.6875C1341.840942,383.649384,1341.833496,383.612061,1341.828125,383.574219L1341.832031,383.484375C1341.94104,382.676971,1342.095459,381.876343,1342.292969,381.085938C1342.628784,379.532104,1343.019531,377.990875,1343.464844,376.464844C1343.504028,376.319427,1343.551147,376.176178,1343.613281,376.039063C1343.645752,375.977661,1343.686279,375.921265,1343.734375,375.871094L1343.761719,375.777344C1343.747559,375.681152,1343.73291,375.585083,1343.703125,375.492188C1343.725708,375.082428,1343.800415,374.677185,1343.921875,374.285156C1344.231323,373.249817,1344.537354,372.21991,1344.84375,371.183594C1344.917969,370.989899,1344.961426,370.785339,1344.96875,370.578125C1344.961304,370.542938,1344.96521,370.508209,1344.964844,370.472656C1345.033081,370.093597,1345.137817,369.72226,1345.277344,369.363281C1346.218262,366.786469,1347.066406,364.176636,1347.820313,361.539063C1348.381836,359.643311,1349.073608,357.788696,1349.890625,355.988281C1350.533813,354.696167,1351.12146,353.377289,1351.652344,352.035156C1352.021606,351.083282,1352.474121,350.165741,1353.003906,349.292969C1353.052979,349.223938,1353.102661,349.155396,1353.15625,349.089844C1353.192383,349.055481,1353.229248,349.021851,1353.269531,348.992188L1353.355469,348.941406L1353.4375,348.871094L1353.503906,348.789063C1353.535645,348.72113,1353.573364,348.656158,1353.609375,348.589844C1353.628418,348.516571,1353.641602,348.442047,1353.652344,348.367188C1353.657349,348.291931,1353.656006,348.2164,1353.65625,348.140625C1353.689209,348.025421,1353.726929,347.91156,1353.78125,347.804688C1354.295288,346.83075,1354.989746,345.964142,1355.828125,345.25C1355.896729,345.207977,1355.967285,345.169128,1356.039063,345.132813C1356.095947,345.088531,1356.151123,345.042114,1356.203125,344.992188C1356.399902,344.788452,1356.570313,344.560516,1356.707031,344.3125C1356.868286,344.137512,1357.045776,343.97821,1357.242188,343.84375C1357.881958,343.407074,1358.593384,343.086395,1359.34375,342.894531C1359.54248,342.842529,1359.748901,342.825653,1359.953125,342.847656L1360.085938,342.886719C1360.424194,343.012421,1360.797485,342.99826,1361.128906,342.855469C1361.47168,342.699158,1361.845825,342.624908,1362.222656,342.628906C1362.896851,342.652557,1363.571533,342.661835,1364.246094,342.65625C1364.43457,342.664093,1364.622192,342.68573,1364.808594,342.714844C1364.893555,342.727386,1364.97583,342.751007,1365.058594,342.773438C1365.109375,342.801239,1365.165649,342.813965,1365.222656,342.820313L1365.296875,342.816406C1365.885376,342.688782,1366.457886,342.496185,1367.003906,342.242188C1367.66626,341.923523,1368.35022,341.652039,1369.050781,341.429688C1369.156616,341.400757,1369.262451,341.371948,1369.371094,341.355469C1369.428711,341.348999,1369.486694,341.353394,1369.542969,341.367188C1369.562378,341.387054,1369.579102,341.409027,1369.597656,341.429688C1369.637085,341.448761,1369.675293,341.469757,1369.71875,341.480469C1369.939453,341.476227,1370.15625,341.425934,1370.359375,341.339844C1370.555054,341.30307,1370.754639,341.288849,1370.953125,341.304688C1371.443481,341.353699,1371.927612,341.451996,1372.398438,341.597656C1372.698486,341.688782,1373.011108,341.733856,1373.324219,341.71875C1373.454956,341.699646,1373.588013,341.709076,1373.714844,341.746094C1374.491333,341.939056,1375.24292,342.221313,1375.953125,342.589844C1376.258057,342.605438,1376.56189,342.638824,1376.863281,342.6875C1377.471436,342.835571,1378.062744,343.045654,1378.628906,343.3125C1379.491577,343.671661,1380.315674,344.117218,1381.089844,344.640625C1381.211182,344.722717,1381.317017,344.824219,1381.414063,344.933594C1381.429321,344.970642,1381.449341,345.005249,1381.464844,345.042969C1381.4823,345.084259,1381.500488,345.125305,1381.523438,345.164063C1381.674438,345.344727,1381.869019,345.484711,1382.089844,345.566406C1382.255005,345.649597,1382.40686,345.757233,1382.53125,345.894531C1382.550537,345.934723,1382.568604,345.975464,1382.578125,346.019531C1382.570435,346.075195,1382.564209,346.131012,1382.574219,346.1875C1382.638794,346.292297,1382.725342,346.38031,1382.824219,346.453125C1382.9729,346.532776,1383.119141,346.616852,1383.261719,346.707031C1383.386353,346.80603,1383.491699,346.92804,1383.554688,347.074219L1383.585938,347.167969C1383.592773,347.261749,1383.607178,347.354736,1383.632813,347.445313L1383.683594,347.542969C1383.807861,347.724274,1383.977661,347.870728,1384.179688,347.957031L1384.410156,348.082031C1384.490356,348.147217,1384.567993,348.215515,1384.640625,348.289063L1384.675781,348.355469C1384.682373,348.406219,1384.685547,348.456787,1384.6875,348.507813C1384.751099,348.580444,1384.825195,348.641846,1384.902344,348.699219C1385.341309,348.975189,1385.796265,349.224915,1386.265625,349.445313C1387.960083,349.929626,1389.609375,350.55957,1391.195313,351.328125L1391.246094,351.332031C1391.695313,351.421082,1392.133545,351.558472,1392.554688,351.738281C1393.466797,352.07663,1394.340332,352.511383,1395.160156,353.035156C1395.234741,353.090118,1395.306885,353.148132,1395.375,353.210938L1395.410156,353.257813C1395.427979,353.313965,1395.44458,353.370453,1395.464844,353.425781C1395.568848,353.601166,1395.729004,353.734558,1395.914063,353.820313L1396.027344,353.921875C1396.454712,354.436615,1396.817383,355.001648,1397.105469,355.605469C1397.616699,356.605865,1398.082031,357.629059,1398.5,358.671875C1398.917236,359.726288,1399.421997,360.743927,1400.007813,361.714844C1400.295654,362.073608,1400.547119,362.460236,1400.753906,362.871094L1400.777344,362.957031C1400.776123,362.990936,1400.776367,363.024872,1400.78125,363.058594C1401.030396,363.299713,1401.322754,363.491882,1401.644531,363.621094C1402.13623,363.815277,1402.595337,364.083344,1403.007813,364.414063C1403.05542,364.460938,1403.088745,364.518372,1403.117188,364.578125C1403.170532,364.711182,1403.261108,364.826416,1403.382813,364.902344C1403.619385,365.070038,1403.871948,365.213806,1404.136719,365.332031L1404.292969,365.425781C1404.380371,365.48703,1404.464722,365.552368,1404.542969,365.625C1404.635254,365.706299,1404.706299,365.810272,1404.734375,365.929688C1404.727295,366.073517,1404.76709,366.215179,1404.851563,366.332031L1404.910156,366.386719C1404.957275,366.41861,1405.010376,366.435577,1405.0625,366.457031C1405.196289,366.465576,1405.323486,366.524109,1405.402344,366.632813C1405.586182,366.869598,1405.729858,367.134735,1405.828125,367.417969C1406.068359,368.059631,1406.210205,368.733978,1406.25,369.417969L1406.28125,369.539063C1406.321655,369.652588,1406.379272,369.759399,1406.457031,369.851563L1406.535156,369.925781C1406.640381,369.991455,1406.753174,370.043518,1406.871094,370.082031C1406.925049,370.125305,1406.977539,370.170532,1407.023438,370.222656L1407.042969,370.277344C1407.043335,370.331726,1407.032349,370.384308,1407.023438,370.4375L1407.03125,370.5L1407.054688,370.5625L1407.097656,370.625L1407.230469,370.75C1407.355347,370.822327,1407.478882,370.89679,1407.601563,370.972656C1407.679443,371.049713,1407.747803,371.135468,1407.808594,371.226563C1407.86731,371.370758,1407.901978,371.523865,1407.902344,371.679688C1407.955444,371.800415,1408.023926,371.914063,1408.117188,372.007813C1408.230591,372.083893,1408.344971,372.158386,1408.460938,372.230469C1408.578735,372.337433,1408.681396,372.460205,1408.761719,372.597656C1408.830444,372.805634,1408.924561,373.003937,1409.03125,373.195313L1409.15625,373.34375C1409.217651,373.388275,1409.280029,373.431519,1409.34375,373.472656L1409.414063,373.539063C1409.463989,373.599243,1409.509888,373.662506,1409.554688,373.726563L1409.6875,373.972656C1409.779297,374.24826,1409.895874,374.515137,1410.042969,374.765625C1410.082275,374.836609,1410.133179,374.900452,1410.191406,374.957031L1410.261719,375.023438C1410.307251,375.052551,1410.352417,375.081055,1410.398438,375.109375C1410.455933,375.16803,1410.512695,375.227448,1410.5625,375.292969C1410.776733,375.650574,1410.964844,376.023071,1411.128906,376.40625C1411.207886,376.467224,1411.282349,376.533661,1411.355469,376.601563L1411.480469,376.742188L1411.585938,376.886719L1411.673828,377.050781C1411.830566,377.162384,1411.996582,377.260254,1412.171875,377.339844L1412.539063,377.542969C1412.980591,377.828766,1413.359497,378.201111,1413.648438,378.640625L1413.871094,378.855469L1413.980469,378.9375L1414.089844,379C1414.152344,379.024811,1414.216187,379.045776,1414.28125,379.0625C1414.340088,379.069214,1414.393921,379.090851,1414.449219,379.109375C1414.502808,379.143646,1414.555176,379.179688,1414.605469,379.21875L1414.734375,379.375C1414.790161,379.501068,1414.842529,379.628601,1414.890625,379.757813C1414.950195,379.872223,1415.023193,379.978821,1415.105469,380.078125C1415.166138,380.122742,1415.224854,380.165894,1415.285156,380.210938C1415.481323,380.431915,1415.647949,380.677795,1415.773438,380.945313C1415.991089,381.460663,1416.250366,381.957794,1416.550781,382.429688L1416.613281,382.507813C1416.650146,382.544647,1416.690552,382.577759,1416.726563,382.617188L1416.753906,382.675781C1416.788818,382.818909,1416.800049,382.966125,1416.796875,383.113281C1416.779297,383.479156,1416.792236,383.84613,1416.855469,384.207031C1417.067627,385.571136,1417.480957,386.895966,1418.078125,388.140625C1418.198364,388.371063,1418.337158,388.591217,1418.496094,388.796875C1418.545532,388.846436,1418.596436,388.894562,1418.648438,388.941406C1418.648438,388.941437,1418.769653,389.011688,1418.769531,389.011719L1418.820313,389.058594C1419.134277,389.442902,1419.399414,389.864655,1419.613281,390.3125C1420.08313,391.160004,1420.476929,392.047485,1420.789063,392.964844C1420.802979,393.024292,1420.813232,393.084473,1420.824219,393.144531C1420.784058,393.540924,1420.822998,393.941376,1420.933594,394.324219L1421.003906,394.667969C1421.025635,394.824677,1421.036255,394.982574,1421.042969,395.140625C1421.032837,395.219727,1421.031128,395.299255,1421.023438,395.378906C1420.957153,395.574402,1420.945557,395.783417,1420.972656,395.988281C1421.031128,396.417328,1421.10144,396.844421,1421.183594,397.269531C1421.235229,397.648773,1421.253052,398.031952,1421.230469,398.414063C1421.169189,398.704132,1421.145508,399.001312,1421.167969,399.296875C1421.177002,399.362885,1421.192383,399.427032,1421.203125,399.492188L1421.230469,399.550781L1421.253906,399.617188C1421.244873,399.995667,1421.1427,400.364899,1420.972656,400.703125C1420.733521,401.217621,1420.601807,401.776459,1420.597656,402.34375L1420.59375,402.445313C1420.396729,403.200775,1420.128296,403.935608,1419.792969,404.640625C1418.840576,406.837494,1417.755371,408.974243,1416.542969,411.039063C1416.282959,411.464417,1415.989258,411.868256,1415.664063,412.246094C1415.436401,412.531158,1415.213379,412.82019,1414.996094,413.113281C1415.743774,413.131958,1416.490479,413.179565,1417.234375,413.257813C1419.30957,413.60376,1421.262451,414.472992,1422.910156,415.78125C1423.609619,416.287628,1424.255371,416.86438,1424.839844,417.5L1424.953125,417.652344L1425.023438,417.773438L1425.132813,417.9375L1425.292969,418.101563C1425.414795,418.206055,1425.556519,418.282471,1425.703125,418.347656C1425.832275,418.402954,1425.959473,418.462311,1426.085938,418.523438C1426.696899,418.870392,1427.256958,419.300262,1427.746094,419.804688C1428.321533,420.416077,1428.854004,421.066406,1429.335938,421.753906C1429.561523,422.057404,1429.80603,422.346741,1430.078125,422.609375C1430.121216,422.63736,1430.163208,422.666779,1430.203125,422.699219C1430.261963,422.769897,1430.318481,422.842468,1430.371094,422.917969C1430.999512,423.919006,1431.566162,424.957397,1432.068359,426.027344L1432.214844,426.167969C1432.483032,426.49646,1432.702393,426.862396,1432.855469,427.257813C1433.264038,428.18277,1433.574829,429.147675,1433.785156,430.136719L1433.792969,430.207031C1433.77771,430.398315,1433.800415,430.589783,1433.855469,430.773438C1433.945313,431.163086,1434.068481,431.544586,1434.230469,431.910156C1434.286255,431.955811,1434.348511,431.990967,1434.410156,432.027344C1434.491699,432.103821,1434.565552,432.188019,1434.632813,432.277344C1435.256958,433.227081,1435.812256,434.220276,1436.292969,435.25C1436.734253,436.104095,1437.134033,436.978973,1437.492188,437.871094C1437.525879,437.992493,1437.566406,438.111938,1437.609375,438.230469C1437.654053,438.346375,1437.677734,438.46991,1437.671875,438.59375C1438.042969,439.443634,1438.355835,440.31781,1438.605469,441.210938C1438.609375,441.286682,1438.622192,441.361664,1438.632813,441.4375C1438.625366,441.47406,1438.617188,441.514252,1438.609375,441.550781L1438.601563,441.667969C1438.640137,442.373474,1438.735718,443.074554,1438.882813,443.765625C1439.339478,444.957214,1439.869751,446.119354,1440.46875,447.246094C1440.520752,447.354462,1440.584351,447.457123,1440.664063,447.546875L1440.710938,447.59375C1440.765259,447.621552,1440.822998,447.63916,1440.878906,447.664063C1440.978394,447.738281,1441.064453,447.827515,1441.144531,447.921875L1441.246094,448.097656L1441.355469,448.265625C1441.44458,448.356903,1441.544678,448.437134,1441.660156,448.492188C1441.7323,448.504333,1441.802856,448.515778,1441.875,448.527344C1441.9198,448.553192,1441.963745,448.580231,1442.003906,448.613281C1442.056396,448.668976,1442.1073,448.726288,1442.15625,448.785156C1442.736328,449.629974,1443.210205,450.542999,1443.566406,451.503906C1443.757813,451.949249,1443.90625,452.411957,1444.003906,452.886719C1444.016724,452.987823,1444.025757,453.089386,1444.019531,453.191406C1443.94397,453.382904,1443.93689,453.594543,1443.992188,453.792969C1444.066895,454.040771,1444.154663,454.284363,1444.253906,454.523438C1444.356201,454.773773,1444.44165,455.030792,1444.507813,455.292969C1444.750732,455.874084,1445.069336,456.420807,1445.460938,456.914063L1445.613281,457.074219L1445.757813,457.1875L1446.011719,457.367188C1446.316406,457.625031,1446.557617,457.949066,1446.722656,458.3125C1447.147949,458.893829,1447.71936,459.352112,1448.382813,459.632813L1448.488281,459.695313C1448.622925,459.821411,1448.746704,459.95871,1448.847656,460.113281C1449.209106,460.654633,1449.496338,461.242279,1449.691406,461.863281L1449.734375,462.046875C1449.754395,462.139313,1449.763428,462.233978,1449.753906,462.328125L1449.726563,462.417969C1449.707764,462.475525,1449.682251,462.530731,1449.65625,462.585938C1449.633423,462.678986,1449.614624,462.772919,1449.597656,462.867188C1449.508545,463.348969,1449.491089,463.840942,1449.542969,464.328125L1449.617188,464.484375C1449.686523,464.544952,1449.760376,464.600128,1449.84375,464.640625L1449.9375,464.675781C1450.289185,464.762634,1450.631592,464.883789,1450.957031,465.042969C1451.068848,465.113586,1451.172974,465.194855,1451.269531,465.285156C1451.354736,465.481995,1451.494995,465.650116,1451.667969,465.777344C1451.740356,465.826813,1451.81543,465.872162,1451.890625,465.917969C1451.967041,466.020233,1452.049072,466.118286,1452.136719,466.210938C1452.453247,466.66452,1452.736816,467.140137,1452.988281,467.632813C1453.370605,468.38446,1453.834106,469.09198,1454.371094,469.742188C1454.593018,469.939758,1454.796997,470.156891,1454.980469,470.390625C1455.025879,470.473907,1455.066895,470.559662,1455.089844,470.652344L1455.09375,470.792969C1454.94812,471.264252,1454.900757,471.761536,1454.96875,472.25C1455.032959,472.603271,1455.159546,472.941772,1455.34375,473.25L1455.4375,473.371094L1455.535156,473.472656L1455.644531,473.550781C1455.723999,473.589935,1455.800293,473.634827,1455.878906,473.675781C1456.100952,473.862061,1456.282837,474.090057,1456.429688,474.339844C1456.980225,475.286072,1457.402466,476.301392,1457.683594,477.359375C1457.848877,477.883026,1457.966919,478.420471,1458.039063,478.964844C1458.11731,479.629608,1457.977295,480.300476,1457.654297,480.886719C1457.739014,481.324768,1457.787842,481.768982,1457.804688,482.214844C1457.828613,482.369904,1457.859253,482.523865,1457.898438,482.675781C1457.92981,482.734802,1457.955078,482.796631,1457.988281,482.855469C1458.009888,482.875641,1458.033203,482.893677,1458.054688,482.914063C1458.060791,483.1922,1457.997314,483.46579,1457.890625,483.722656C1457.636963,484.365601,1457.378662,485.008667,1457.117188,485.648438C1457.059692,485.819,1457.00647,485.990997,1456.957031,486.164063C1456.921387,486.288727,1456.904175,486.417358,1456.902344,486.546875C1456.914795,486.578156,1456.928589,486.609558,1456.941406,486.640625C1456.963989,486.996979,1456.928833,487.354431,1456.835938,487.699219C1456.579346,488.84494,1456.118896,489.93515,1455.476563,490.917969C1455.153198,491.498291,1454.769409,492.042999,1454.332031,492.542969L1454.25,492.617188C1454.210083,492.633972,1454.169678,492.649628,1454.128906,492.664063C1454.061279,492.712952,1453.993408,492.761414,1453.929688,492.816406C1453.837646,492.92511,1453.76001,493.045013,1453.695313,493.171875C1453.655273,493.247375,1453.608887,493.319,1453.5625,493.390625C1453.106689,493.948975,1452.547241,494.413422,1451.914063,494.757813L1451.8125,494.792969C1451.752319,494.805298,1451.692505,494.817688,1451.632813,494.832031L1451.53125,494.90625C1451.461182,494.999695,1451.393799,495.094788,1451.328125,495.191406C1451.257324,495.271606,1451.166382,495.332031,1451.066406,495.371094C1450.372803,495.738464,1449.654907,496.057983,1448.917969,496.328125C1447.542847,496.89035,1446.130371,497.357147,1444.691406,497.726563C1444.083008,497.81076,1443.48291,497.947632,1442.898438,498.136719L1442.777344,498.191406L1442.546875,498.273438L1442.292969,498.308594L1442.050781,498.300781C1441.918579,498.266083,1441.788208,498.231079,1441.65625,498.195313L1441.457031,498.199219L1441.269531,498.25C1441.190552,498.304138,1441.111572,498.358032,1441.03125,498.410156C1440.516968,498.594788,1439.972168,498.679352,1439.425781,498.667969C1438.110352,498.677612,1436.799683,498.82782,1435.515625,499.113281C1435.050537,499.208801,1434.576172,499.251984,1434.101563,499.242188C1433.716187,499.257629,1433.330322,499.235504,1432.949219,499.175781C1432.877808,499.154205,1432.805176,499.142548,1432.734375,499.121094L1432.574219,499.144531C1432.465942,499.187042,1432.366943,499.247864,1432.273438,499.316406C1432.218262,499.351349,1432.163208,499.386414,1432.101563,499.410156L1431.984375,499.433594C1431.789673,499.45401,1431.592651,499.426483,1431.410156,499.355469C1431.25708,499.303864,1431.105713,499.246857,1430.957031,499.183594C1430.82312,499.143494,1430.685303,499.119781,1430.546875,499.101563L1430.4375,499.101563C1430.337769,499.127716,1430.23938,499.158173,1430.144531,499.199219L1429.96875,499.210938C1429.837769,499.197479,1429.709473,499.166718,1429.585938,499.121094C1429.44458,499.059937,1429.289917,499.035583,1429.136719,499.050781C1428.981079,499.059753,1428.829834,499.098999,1428.683594,499.152344L1428.578125,499.195313L1428.457031,499.222656L1428.328125,499.238281C1428.189575,499.235229,1428.051514,499.224487,1427.914063,499.207031C1427.748901,499.156982,1427.584839,499.103455,1427.421875,499.046875C1427.254639,498.9935,1427.076172,498.979828,1426.90625,499.023438C1426.861328,499.040527,1426.819214,499.062927,1426.773438,499.078125L1426.667969,499.085938C1426.450684,499.072876,1426.236084,499.030914,1426.03125,498.957031C1425.776855,498.854279,1425.521729,498.754608,1425.265625,498.65625C1425.057129,498.595062,1424.844482,498.550171,1424.628906,498.523438L1424.523438,498.53125C1424.446289,498.564301,1424.364746,498.585266,1424.28125,498.59375C1424.187012,498.588623,1424.09314,498.577728,1424,498.5625C1423.684448,498.475067,1423.37561,498.365967,1423.074219,498.238281C1422.776367,498.129181,1422.461792,498.073853,1422.144531,498.074219C1422.018555,498.084015,1421.896484,498.120026,1421.78125,498.171875C1421.629761,498.193146,1421.476685,498.203552,1421.324219,498.1875C1421.019897,498.144409,1420.724121,498.054993,1420.445313,497.925781C1420.345337,497.889496,1420.243408,497.859253,1420.140625,497.832031C1420.057739,497.81665,1419.974121,497.807281,1419.890625,497.796875C1419.835205,497.803375,1419.780396,497.813293,1419.726563,497.828125C1419.699341,497.855591,1419.673462,497.884186,1419.644531,497.910156L1419.5625,497.925781C1419.474731,497.92511,1419.387695,497.913879,1419.300781,497.902344C1418.954346,497.810181,1418.615234,497.691925,1418.289063,497.542969C1417.67688,497.310455,1417.032471,497.175171,1416.378906,497.132813C1415.911865,497.119781,1415.449951,497.027496,1415.015625,496.855469L1414.84375,496.773438C1414.703247,496.687988,1414.560059,496.607056,1414.414063,496.53125C1413.995605,496.361938,1413.544312,496.288422,1413.09375,496.316406C1412.587646,496.254181,1412.09082,496.131989,1411.613281,495.953125C1411.070923,495.718079,1410.521362,495.5,1409.964844,495.300781L1409.707031,495.230469C1409.568115,495.199951,1409.42688,495.184998,1409.285156,495.175781L1409.125,495.1875L1408.996094,495.230469L1408.925781,495.257813C1408.860718,495.263367,1408.795654,495.269348,1408.730469,495.273438C1408.435181,495.250946,1408.143188,495.192627,1407.867188,495.085938C1406.5979,494.653839,1405.345459,494.173218,1404.113281,493.644531C1400.037476,492.010376,1395.995361,490.29541,1391.988281,488.5C1391.431763,488.25531,1390.890869,487.976624,1390.367188,487.667969C1389.998413,487.346527,1389.591675,487.070557,1389.152344,486.855469C1388.063599,486.274811,1386.964233,485.71344,1385.855469,485.171875C1385.294067,484.902832,1384.762329,484.575775,1384.269531,484.195313L1384.195313,484.121094C1384.164917,484.082367,1384.140625,484.040222,1384.113281,484L1384.085938,483.945313C1383.818481,483.650024,1383.490967,483.416321,1383.128906,483.25C1382.392212,482.88443,1381.651489,482.527832,1380.90625,482.179688C1380.538208,482.01413,1380.194214,481.799683,1379.882813,481.542969C1379.842896,481.492889,1379.805298,481.440948,1379.777344,481.382813C1379.770386,481.336975,1379.763672,481.291077,1379.75,481.246094C1379.690063,481.150726,1379.620483,481.061493,1379.53125,480.992188C1378.982544,480.528717,1378.382568,480.129822,1377.746094,479.796875C1375.830078,478.635834,1373.990479,477.35318,1372.238281,475.957031C1371.983398,475.776733,1371.764038,475.55069,1371.59375,475.289063C1371.439941,475.117188,1371.249268,474.982086,1371.039063,474.886719C1370.733643,474.747131,1370.437622,474.587494,1370.160156,474.398438C1369.751709,474.1026,1369.382324,473.755432,1369.070313,473.359375L1368.78125,473.113281L1368.640625,473.011719C1368.553833,472.962677,1368.464966,472.917877,1368.375,472.875C1368.269043,472.848297,1368.166504,472.810974,1368.0625,472.777344C1367.875854,472.682281,1367.729858,472.524994,1367.648438,472.332031C1367.593384,472.221497,1367.531616,472.114532,1367.457031,472.015625L1367.351563,471.894531C1367.077026,471.641022,1366.782959,471.409302,1366.46875,471.207031C1365.82251,470.722931,1365.218018,470.185333,1364.660156,469.601563C1363.954834,468.894958,1363.211426,468.227539,1362.433594,467.601563C1362.355591,467.544861,1362.276245,467.490021,1362.195313,467.4375C1362.075439,467.373688,1361.957642,467.306091,1361.847656,467.226563C1361.742798,467.11676,1361.649414,466.996887,1361.570313,466.867188L1361.488281,466.65625C1361.436279,466.511566,1361.353882,466.381287,1361.257813,466.261719L1361.085938,466.117188C1360.981567,466.056427,1360.868408,466.014801,1360.753906,465.976563L1360.589844,465.882813C1360.140015,465.52771,1359.737793,465.116211,1359.390625,464.660156C1359.226685,464.451752,1359.055176,464.249329,1358.875,464.054688C1358.692383,463.877472,1358.485718,463.725739,1358.253906,463.621094C1358.124146,463.562805,1358.012817,463.469666,1357.933594,463.351563L1357.882813,463.261719C1357.853882,463.202972,1357.839355,463.140167,1357.820313,463.078125L1357.806641,462.886719L1357.75,462.839844C1357.662231,462.755768,1357.589722,462.656494,1357.546875,462.542969C1357.521973,462.505371,1357.503174,462.464722,1357.480469,462.425781C1357.314819,462.336365,1357.155273,462.235718,1357.015625,462.109375L1356.902344,461.964844L1356.847656,461.828125C1356.828491,461.776703,1356.805664,461.726837,1356.777344,461.679688C1356.617432,461.521606,1356.442749,461.378693,1356.246094,461.269531C1356.088257,461.180237,1355.940063,461.074585,1355.8125,460.945313C1355.722534,460.850159,1355.644409,460.74408,1355.589844,460.625C1355.571411,460.575043,1355.551147,460.525909,1355.53125,460.476563C1355.101074,459.997406,1354.658325,459.529694,1354.203125,459.074219C1352.825439,457.768982,1351.547119,456.362793,1350.378906,454.867188C1350.251709,454.659241,1350.11853,454.454895,1349.980469,454.253906L1349.816406,454.074219C1349.320068,453.644165,1348.870605,453.162994,1348.472656,452.640625C1347.8573,451.897339,1347.228271,451.165405,1346.585938,450.445313C1346.351196,450.131958,1346.115601,449.819733,1345.878906,449.507813C1345.683228,449.273987,1345.459961,449.065277,1345.21875,448.878906L1344.984375,448.714844C1344.814575,448.560272,1344.661377,448.388458,1344.53125,448.199219L1344.449219,448.332031C1344.116943,448.967316,1343.720581,449.567078,1343.265625,450.121094C1343.091553,450.301697,1342.90918,450.474182,1342.714844,450.632813L1342.59375,450.773438C1342.529053,450.866821,1342.479004,450.968384,1342.429688,451.070313L1342.382813,451.238281L1342.363281,451.425781C1342.386719,451.874146,1342.486328,452.31488,1342.65625,452.730469C1343.239014,454.232269,1343.933838,455.688049,1344.734375,457.085938C1344.788696,457.173096,1344.846802,457.257935,1344.917969,457.332031L1344.953125,457.359375L1345.070313,457.429688L1345.167969,457.523438L1345.230469,457.625C1345.252808,457.718445,1345.285889,457.80835,1345.328125,457.894531C1346.321899,459.31665,1347.432007,460.653534,1348.648438,461.890625C1348.964355,462.066925,1349.238647,462.310181,1349.453125,462.601563L1349.566406,462.730469C1350.244141,463.442261,1350.941406,464.172852,1351.621094,464.882813C1351.791992,465.107269,1351.99292,465.307465,1352.21875,465.476563L1352.476563,465.648438C1352.640015,465.733429,1352.802368,465.819366,1352.964844,465.90625C1353.089844,465.988251,1353.205444,466.083984,1353.300781,466.199219L1353.34375,466.265625C1353.370728,466.341522,1353.401733,466.415863,1353.445313,466.484375C1353.688843,466.766052,1353.973633,467.009155,1354.289063,467.207031C1354.516602,467.355103,1354.732788,467.520203,1354.929688,467.707031C1355.028442,467.798157,1355.115112,467.901215,1355.191406,468.011719C1355.206909,468.056091,1355.222412,468.100311,1355.238281,468.144531L1355.285156,468.214844C1355.399658,468.342957,1355.53125,468.455292,1355.683594,468.535156C1355.90979,468.644775,1356.131104,468.764282,1356.34375,468.898438C1356.399658,468.943909,1356.453857,468.991364,1356.507813,469.039063L1356.558594,469.105469C1356.568848,469.141357,1356.574951,469.177826,1356.578125,469.214844L1356.578125,469.285156C1356.769409,469.630157,1357.025024,469.935028,1357.328125,470.1875C1357.718384,470.587982,1358.160767,470.934387,1358.644531,471.214844C1358.712402,471.243347,1358.783081,471.263977,1358.855469,471.277344L1358.929688,471.28125C1358.997192,471.30896,1359.061401,471.343506,1359.125,471.378906C1359.407227,471.589844,1359.663574,471.833496,1359.882813,472.109375L1360.042969,472.265625C1360.50708,472.676361,1361.030884,473.013947,1361.59375,473.273438C1361.751343,473.380066,1361.901245,473.49762,1362.039063,473.628906C1362.110229,473.700317,1362.167358,473.783112,1362.222656,473.867188C1362.290527,474.072266,1362.408203,474.255646,1362.554688,474.414063L1362.789063,474.613281C1363.053101,474.744263,1363.306519,474.895813,1363.546875,475.066406C1363.607788,475.121277,1363.669312,475.175537,1363.726563,475.234375C1363.775757,475.310608,1363.822754,475.388153,1363.871094,475.464844L1363.949219,475.554688C1364.025513,475.631317,1364.108765,475.699921,1364.191406,475.769531C1364.542236,476.004974,1364.900635,476.22876,1365.265625,476.441406C1365.52417,476.612152,1365.754272,476.821686,1365.949219,477.0625C1366.015503,477.207336,1366.101563,477.342163,1366.203125,477.464844L1366.300781,477.5625L1366.519531,477.742188C1366.670776,477.832428,1366.825317,477.916809,1366.980469,478C1367.072632,478.071289,1367.163208,478.14447,1367.246094,478.226563C1367.283325,478.273682,1367.318481,478.322357,1367.347656,478.375L1367.386719,478.507813C1367.418945,478.559631,1367.451904,478.611023,1367.488281,478.660156C1367.70166,478.856232,1367.947144,479.013153,1368.210938,479.132813C1368.297974,479.211487,1368.389038,479.285492,1368.480469,479.359375C1368.552368,479.440033,1368.602051,479.538208,1368.621094,479.644531C1368.658081,479.698151,1368.694946,479.751801,1368.738281,479.800781C1368.91394,479.958405,1369.113403,480.085785,1369.324219,480.191406C1369.418213,480.23465,1369.50647,480.288361,1369.59375,480.34375C1369.670532,480.39856,1369.740723,480.461884,1369.804688,480.53125L1369.882813,480.628906C1369.920166,480.692413,1369.949707,480.759705,1369.976563,480.828125C1369.984131,480.91803,1369.990356,481.007935,1370,481.097656L1370.066406,481.265625L1370.164063,481.402344C1370.261475,481.467346,1370.354492,481.538605,1370.441406,481.617188C1370.685181,481.917603,1370.86377,482.266174,1370.960938,482.640625C1370.988281,482.719635,1371.013794,482.799255,1371.039063,482.878906C1371.060059,482.956909,1371.076904,483.035583,1371.097656,483.113281L1371.101563,483.164063L1371.097656,483.203125L1371.0625,483.242188L1370.988281,483.242188L1370.878906,483.203125C1370.730347,483.143127,1370.588135,483.067719,1370.464844,482.964844C1370.024658,482.597168,1369.619751,482.189087,1369.257813,481.744141C1369.229004,481.769226,1369.195435,481.784576,1369.164063,481.804688C1369.104126,481.807587,1369.045166,481.817627,1368.984375,481.820313L1368.878906,481.804688L1368.769531,481.773438C1368.471191,481.664825,1368.210083,481.474365,1368.011719,481.226563C1367.895264,481.020264,1367.763794,480.822906,1367.617188,480.636719C1367.159912,480.121002,1366.64502,479.659485,1366.082031,479.261719C1366.010376,479.221619,1365.938232,479.182281,1365.863281,479.148438C1365.807251,479.135223,1365.750977,479.123993,1365.695313,479.109375C1365.627808,479.056366,1365.561523,479.001678,1365.503906,478.9375C1365.417847,478.756378,1365.292114,478.597198,1365.144531,478.460938C1364.807861,478.116913,1364.453979,477.790009,1364.082031,477.484375C1363.302002,476.829285,1362.532837,476.186401,1361.75,475.535156C1361.333618,475.193085,1360.948486,474.814606,1360.601563,474.402344C1360.513306,474.272614,1360.426025,474.142914,1360.339844,474.011719C1360.296631,473.975647,1360.253418,473.939728,1360.203125,473.914063C1360.12561,473.898529,1360.047974,473.885651,1359.96875,473.878906C1359.889893,473.892029,1359.811646,473.907257,1359.738281,473.9375L1359.589844,473.914063L1359.460938,473.835938L1359.371094,473.710938C1359.301392,473.606628,1359.227539,473.505096,1359.140625,473.414063C1358.410522,472.695526,1357.571045,472.097778,1356.65625,471.636719C1356.467529,471.496216,1356.305542,471.323853,1356.179688,471.125L1356.089844,470.976563C1356.023438,470.913574,1355.948608,470.861786,1355.867188,470.820313L1355.808594,470.816406C1355.75647,470.826141,1355.704102,470.833038,1355.652344,470.84375L1355.539063,470.800781L1355.433594,470.707031C1355.391479,470.629547,1355.344238,470.554993,1355.296875,470.480469C1355.210815,470.394958,1355.13147,470.302704,1355.0625,470.203125C1354.51416,469.657562,1353.942993,469.135376,1353.351563,468.636719C1353.081543,468.404938,1352.841064,468.140259,1352.644531,467.84375C1352.544922,467.756134,1352.440186,467.674377,1352.320313,467.617188C1352.191772,467.568756,1352.063843,467.518677,1351.9375,467.464844L1351.78125,467.34375C1351.742188,467.297577,1351.704834,467.249939,1351.671875,467.199219C1351.644897,467.101105,1351.615723,467.003571,1351.585938,466.90625C1351.557129,466.863281,1351.518799,466.830566,1351.484375,466.792969L1351.339844,466.722656C1351.251465,466.713348,1351.163086,466.704315,1351.074219,466.699219L1350.976563,466.671875L1350.882813,466.632813L1350.789063,466.574219C1350.675659,466.480042,1350.582153,466.365356,1350.507813,466.238281L1350.402344,466.054688C1350.344116,465.936096,1350.229126,465.85318,1350.097656,465.84375C1350.041992,465.853516,1349.98584,465.855408,1349.929688,465.847656C1349.883911,465.815674,1349.836792,465.785706,1349.792969,465.75C1349.680786,465.634674,1349.591553,465.499146,1349.527344,465.351563L1349.390625,465.117188L1349.210938,464.925781L1349.113281,464.855469L1349.015625,464.804688C1348.893066,464.78186,1348.770508,464.759369,1348.648438,464.734375L1348.554688,464.6875L1348.464844,464.628906L1348.300781,464.46875C1348.134399,464.144806,1347.913696,463.851471,1347.652344,463.597656C1347.021606,462.981232,1346.365112,462.391785,1345.683594,461.832031C1345.258179,461.454803,1344.838867,461.070404,1344.425781,460.679688C1344.129639,460.451141,1343.847046,460.205475,1343.578125,459.945313C1343.263916,459.621185,1343.002319,459.24939,1342.8125,458.839844C1342.741089,458.741699,1342.665649,458.646576,1342.582031,458.558594C1342.533936,458.518433,1342.4823,458.483002,1342.429688,458.449219C1342.394165,458.437378,1342.358765,458.42511,1342.324219,458.410156C1342.283813,458.37616,1342.249756,458.336182,1342.214844,458.296875C1341.877319,457.799622,1341.581055,457.275635,1341.328125,456.730469C1341.003174,456.0401,1340.680908,455.346008,1340.363281,454.652344C1340.311768,454.621155,1340.268677,454.580627,1340.222656,454.542969L1340.160156,454.449219L1340.109375,454.335938C1340.083008,454.225037,1340.061401,454.113129,1340.046875,454C1339.901245,453.704041,1339.745117,453.413391,1339.578125,453.128906C1339.46521,453.241821,1339.370728,453.37085,1339.289063,453.507813C1339.119019,453.900055,1338.919189,454.27887,1338.691406,454.640625C1338.654175,454.697845,1338.602905,454.744019,1338.539063,454.769531z"/>
</svg>
