<?xml version="1.0" encoding="UTF-8"?>
<svg xmlns="http://www.w3.org/2000/svg" width="235.691mm" height="92.460mm" viewBox="-1025.351807 -599.842163 235.691040 92.460480">
    <path transform="matrix(-1,0,0,-1,0,0)" style="stroke:none;fill:#000000;fill-rule:evenodd" d="M904.965698,599.676086C896.22229,599.163513,888.726135,597.78418,884.229248,595.860474C881.343933,594.62616,880.949341,594.132263,874.026611,583.091675C871.516602,579.088684,870.168274,577.199707,869.331665,576.51416L868.157898,575.552368L865.590698,575.866272C862.936768,576.190796,862.702454,576.177307,853.894043,575.191711C837.264648,573.331116,827.759521,570.975891,819.361084,566.635071C814.643982,564.197021,811.523987,562.086365,809.1604,559.734436C807.336548,557.919556,804.251709,554.261108,803.672424,553.225952C803.506775,552.929993,802.805176,552.73175,801.34314,552.567749C798.916687,552.295654,798.460876,551.929871,798.72876,550.469849C798.822266,549.960449,799.144348,548.970825,799.44458,548.270691C799.900879,547.206543,799.94342,546.844482,799.703796,546.063721C799.546143,545.550049,799.481934,544.960938,799.561096,544.754639C799.640259,544.54834,799.629639,543.977661,799.537476,543.48645C799.39801,542.743286,799.04895,542.3797,797.457581,541.320313C796.405823,540.620117,794.913147,539.585144,794.140625,539.020264C792.954163,538.152832,792.672119,538.046387,792.324158,538.335144C791.976624,538.623596,791.817322,538.56665,791.304871,537.970886C790.970825,537.582581,790.43634,536.57428,790.117126,535.730225C789.421631,533.891479,789.509521,531.664063,790.37561,529.176636C791.027588,527.304138,791.943787,526.247925,793.540283,525.528442C794.640259,525.032715,794.730713,525.028259,795.042664,525.454956C795.555237,526.155945,795.76593,527.919128,795.4328,528.719971C795.269775,529.111877,794.664368,529.703064,794.087463,530.033752C792.922852,530.701294,792.456787,531.7547,793.063171,532.348938C793.338562,532.618774,793.968811,532.668701,795.628052,532.552185L797.827881,532.397705L797.627686,531.312073C797.198975,528.987122,797.287598,528.680786,798.511292,528.255615C799.501404,527.91156,799.721619,527.914673,800.495911,528.28363C801.25946,528.647461,801.628052,528.655823,803.483826,528.351868C804.648193,528.161194,805.749634,527.99884,805.93158,527.991089C806.128418,527.982788,806.26239,527.613831,806.26239,527.080139C806.26239,525.082886,807.123962,521.695618,808.221741,519.376953C810.300659,514.986084,813.547241,511.653198,817.773315,509.571442C820.772888,508.093903,822.636536,507.604889,825.987366,507.416077C829.135803,507.238678,832.095581,507.745453,835.024231,508.963379C840.407898,511.20224,845.205017,516.490295,846.772095,521.913696L847.357849,523.940674L848.944885,524.106567C850.565796,524.276001,851.247803,524.042053,851.247803,523.31665C851.247803,523.117676,851.56366,522.165955,851.949646,521.201721C853.102356,518.322327,852.090515,518.434692,872.417419,518.928589C884.918518,519.232361,939.161621,520.038269,945.849548,520.019592C948.032654,520.01355,950.850342,519.947266,952.111084,519.872437C955.62146,519.66394,956.798889,520.593018,957.411865,524.055054L957.70813,525.727844L958.303101,523.308594C959.324585,519.155457,961.260254,515.844971,964.365723,512.93988C967.348633,510.149597,971.08905,508.301697,975.205261,507.5849C977.400757,507.202576,981.490662,507.391144,983.690247,507.976074C986.09082,508.614471,989.829163,510.569244,991.807739,512.220642C995.503662,515.305481,998.321655,520.339905,999.01416,525.095154L999.191772,526.314819L1000.917236,526.475952C1001.866272,526.564575,1003.286682,526.840088,1004.073669,527.088135L1005.504639,527.539185L1007.563843,526.584839C1011.060059,524.964478,1013.012207,524.712341,1017.429321,525.310425C1018.520874,525.458252,1020.447876,525.582825,1021.711609,525.587341C1023.834473,525.59491,1024.023071,525.639282,1024.191772,526.170776C1024.315186,526.559814,1024.234375,526.848267,1023.942017,527.062073C1023.548157,527.350098,1023.546997,527.409119,1023.928955,527.726074C1024.159546,527.917419,1024.588257,528.544678,1024.881714,529.119873C1025.33374,530.005981,1025.401611,530.565613,1025.325439,532.782959L1025.235596,535.400146L1024.097656,536.517944C1023.471741,537.132751,1022.757263,538.052185,1022.509888,538.561157C1022.262573,539.070068,1021.842957,539.5271,1021.577393,539.57666C1020.889832,539.705017,1020.114014,538.90387,1019.918945,537.864014C1019.827148,537.374634,1019.643555,536.974182,1019.510986,536.974182C1018.985413,536.974182,1015.144958,539.074951,1014.601868,539.659546C1014.283875,540.001892,1013.480225,541.770447,1012.815918,543.589722C1011.189209,548.044861,1010.8526,548.657349,1009.689575,549.278687C1009.144409,549.569946,1008.697998,549.91449,1008.697571,550.044373C1008.697205,550.174194,1009.262512,550.92749,1009.953796,551.718384C1011.762268,553.787231,1011.914612,554.119019,1011.459839,554.998413C1010.937073,556.009399,1008.259705,557.269104,1005.405762,557.846863L1003.077576,558.318237L1000.793274,561.48645C996.514099,567.421387,994.857544,569.388367,990.459412,573.756409C985.651855,578.531067,980.571411,582.903015,976.99176,585.345764C972.121521,588.66925,963.484741,593.32312,958.948242,595.068359C955.264648,596.485535,948.312866,597.790833,937.646362,599.068054C932.320557,599.70575,930.844238,599.770935,920.313721,599.83313C913.982666,599.870483,907.07605,599.799805,904.965698,599.676086M798.275146,535.717224C798.199341,535.05835,798.078796,534.981689,797.000671,534.906616L795.809875,534.823669L796.868347,535.626953C798.180298,536.622559,798.380798,536.635437,798.275146,535.717224M830.750671,536.177612C832.699463,535.238037,834.640991,533.171631,835.35553,531.276672C835.843018,529.983948,835.93158,529.31073,835.843506,527.569214C835.663818,524.016602,834.044678,521.515503,830.932678,519.983459C829.346741,519.202698,828.929199,519.112854,826.908325,519.117676C824.020142,519.124512,822.439026,519.787903,820.549805,521.7854C818.586792,523.861084,818.037842,525.218628,818.046326,527.977112C818.052063,529.837402,818.173096,530.484802,818.746338,531.720947C819.82135,534.039185,821.963928,535.902161,824.521179,536.742065C825.834534,537.173401,829.344971,536.855347,830.750671,536.177612M982.276001,536.133362C984.119202,535.27771,985.690491,533.697144,986.659485,531.723999C987.296265,530.427246,987.392273,529.924683,987.375,527.977112C987.359985,526.277649,987.216492,525.419983,986.788025,524.468506C986.000488,522.719604,984.036926,520.712036,982.268311,519.84729C981.001587,519.227966,980.442993,519.118835,978.524597,519.115845C976.506409,519.112671,976.084351,519.203613,974.503052,519.982056C967.272461,523.541687,968.037231,534.118469,975.705139,536.606262C977.466431,537.177734,980.495972,536.959656,982.276001,536.133362M942.409485,586.72345C949.563599,585.496033,953.596191,584.219421,959.688599,581.253296C962.47998,579.894287,963.533447,579.22113,964.784424,577.99707C968.278503,574.578125,969.126953,569.894653,966.499268,568.531372C965.320618,567.9198,961.318115,567.804199,954.449707,568.183228C951.175049,568.363892,944.625671,568.594482,939.89563,568.695618C930.654175,568.893127,930.38623,568.936218,929.867249,570.309021C929.479004,571.335876,929.285522,578.488892,929.536011,582.556213C929.773682,586.41571,930.00708,587.066223,931.256958,587.352539C932.473511,587.631226,939.393616,587.240845,942.409485,586.72345M920.983887,587.331116C922.805542,586.374512,922.827576,586.259338,922.827576,577.703552C922.827576,570.385925,922.80603,570.060791,922.272644,569.343079C921.193481,567.891052,921.071716,567.88501,899.01178,568.190491C887.950623,568.343689,878.217346,568.53894,877.382202,568.624451C872.989746,569.074036,873.274353,572.475891,878.254333,579.048828C881.745422,583.656616,883.546326,584.96405,887.935486,586.077454C893.786804,587.561768,899.34436,588.010193,911.052002,587.942627C919.515381,587.893738,919.965088,587.866089,920.983887,587.331116"/>
</svg>
