<?xml version="1.0" encoding="UTF-8"?>
<svg xmlns="http://www.w3.org/2000/svg" width="524.743mm" height="474.238mm" viewBox="-1582.610474 -575.114868 524.742798 474.237762">
    <path transform="matrix(-1.752805,0,0,-1.752805,-909.183594,-82.709396)" style="stroke:#000000;stroke-width:0.05mm;fill:none" d="M324,280.028564C317.396851,277.916809,311.924103,274.526276,305.756226,268.726074C299.923859,263.241364,298.675293,261.41925,296.517731,255.243896C293.875336,247.680771,290.432953,240.537064,289.463531,237.924561C287.714264,233.210464,276.727814,222.117401,260.832855,210.713699C255.451248,206.852707,251.475006,205.383102,249,204.48262C246.524994,203.582138,234.978485,195.732651,228.378479,195.254791C221.778473,194.776917,191.073151,188.628235,182.548157,187.753998C165.54364,186.010178,156.441193,184.294235,142.612076,184.901443C138.846985,183.248932,136.747467,185,136.237427,185C133.753265,185,109.663063,210.356125,106.907486,207.571396C101.051056,200.506592,116.500481,183.81218,123.886963,172.371964C123.65522,171.677383,122.659882,170.117508,122.34201,167.741409C120.688782,155.38356,123.550919,146.195343,123.764259,142.393097C123.296555,125.334717,123.122032,124.080147,120.023155,115.5C118.235367,110.550003,115.975266,105.375,115.00071,104C114.026154,102.625,112.488388,99.72422,111.58345,97.553825C109.129044,91.667152,105.690697,87.629082,97.035789,80.468697L89.228264,74.009377L88.579216,57.754688C87.978966,42.721863,87.551117,38.504215,85.193451,24.378672C84.19503,18.396839,85.099998,16.575584,89.500473,15.710721C91.150215,15.386482,93.729187,14.818057,95.231522,14.447553C98.707863,13.590224,101.990242,14.417881,105.234512,16.969826C107.622375,18.848122,107.716469,19.235106,106.637909,22.741554C106.002068,24.808699,104.293114,28.299999,102.840225,30.5C99.825966,35.064289,98.461784,43.451286,99.50267,51.019409C99.979439,54.48595,101.645424,58.091732,105.335045,63.64275C108.175766,67.916618,110.949997,71.53936,111.5,71.693298C113.704147,72.310204,117.327538,64.592735,117.689171,58.510979C117.943047,54.241505,117.754562,52.934582,117.038612,54C116.173462,55.287445,116.028458,55.252018,116.015312,53.75C116.005791,52.661564,116.756073,52,118,52C119.099998,52,120,51.643333,120,51.207405C120,50.771477,122.036331,49.870174,124.525185,49.204506C129.439911,47.890015,133.558929,48.929462,137.78952,52.551815L139.856491,54.321602L137.368958,57.58292C135.571335,59.939728,133.76918,61.03215,130.871078,61.521778C128.515747,61.919712,126.610069,62.880394,126.253311,63.849663C125.919228,64.757347,125.228294,65.780769,124.717911,66.123932C124.20752,66.467094,123.560318,69.617096,123.279678,73.123932C122.859413,78.375465,123.098404,79.893829,124.634712,81.733002C127.079391,84.659607,138.354141,93.410866,149,100.644905C160.411743,108.399368,170.554886,118.813766,171.475586,123.721573C172.284149,128.03157,174.66423,133,175.920349,133C177.676727,133,190.530014,128.784271,191.449997,127.906456C193.071198,126.359573,195.283752,126.897667,197.999176,129.499207L200.607788,131.998428L211.053894,130.570526C231.729919,127.744278,242.411316,125.276978,253.5,120.765877C259.549988,118.304619,266.660706,115.710434,269.301575,115.00103C273.095337,113.981918,273.958344,113.374199,273.413208,112.105598C273.033722,111.222519,272.370911,106,271.940308,100.5C269.834747,73.606346,267.741455,57.525429,265.404083,50.288239C263.746887,45.156948,264.049622,41.294598,266.013885,42.508587C267.821198,43.625568,269.885773,36.573399,270.585114,26.894157C271.632874,12.393016,274.364624,9.376253,285.325134,10.616295C288.666473,10.994323,292.867706,12.169429,294.661255,13.227642C297.590363,14.955864,297.798981,15.372926,296.711121,17.325832C294.980835,20.431986,290.794159,25,289.677582,25C288.575714,25,284.449341,29.276857,283.134155,31.782087C279.986267,37.778194,280.984955,48.174362,287.237823,74.5C291.115875,90.827171,291.93631,92.394264,291.949768,83.5C291.962585,75.055534,290.313599,62.913593,288.971741,61.571743C287.229523,59.829521,287.881409,56.172417,290.057281,55.481819C293.042847,54.534237,294,51.011318,294,40.970085C294,33.052853,293.776123,31.95055,291.971985,30.98501C289.593842,29.712255,290.251221,28,293.118042,28C294.218109,28,297.965759,26.24575,303.119019,26.095278C309.770416,25.901062,317,27.518274,317,29.200367C317,29.639591,315.762512,32.25808,314.25,35.01923C312.388947,38.41666,310.691864,40.221745,309,40.603271C304.388458,41.643219,304.112793,41.881897,303.451385,45.40741C302.44632,50.764973,308.265778,84.945267,313.003937,101.513817C314.101776,105.352715,315,109.455894,315,110.631981C315,115.151024,318.488678,123.728363,322.470856,129C331.771942,141.312805,333.347717,146.588593,334.418213,169C334.92984,179.712051,334.744476,183.564835,333.520599,187.656235C332.478729,191.139267,330.509033,190.303177,328.511536,193.570145C326.599976,196.696548,325.035858,196.301056,325.658875,200.416306C327.051392,209.614731,324.635132,211.606369,328.046844,221.222809C330.089294,226.979736,331.255676,232.081772,333.487183,233.212051C340.179749,236.601898,363.884644,230.937775,365.934723,230.937775C370.195587,230.937775,372.856384,230.689651,375.968506,234.81601C380.18515,240.406845,384.049927,245.786911,384.199646,249.830872C384.199646,252.298889,365.497375,258.011719,363.612091,259.124054C360.763641,260.804688,358,262.77951,358,265.640594C358,269.873993,356.431915,271.559113,347.563141,276.856537C341.110443,280.710785,340.13327,280.993988,333.563141,280.914063C329.678406,280.86676,325.375,280.468292,324,280.028564z"/>
</svg>
