<?xml version="1.0" encoding="UTF-8"?>
<svg xmlns="http://www.w3.org/2000/svg" width="219.506mm" height="146.452mm" viewBox="-877.019531 -709.291016 219.505676 146.452393">
    <path transform="matrix(-1,0,0,-1,0,0)" style="stroke:none;fill:#000000;fill-rule:evenodd" d="M866.796509,690.201843C868.542358,686.638672,871.590149,686.583374,874.463684,683.745178C876.472839,681.760681,876.783813,682.522034,877,681C877.258728,679.178833,874.942993,678.112793,874.643005,677.512817C874.246582,676.685913,873.305176,675.200256,871.145691,673.522278C869.344604,672.122803,868.039734,671.878845,867.289734,671.728821C866.496277,671.76947,865.633728,671.464539,863.209534,672.266846C861.559326,672.812988,860.207031,673.312012,859.757019,673.612C858.743469,672.770203,856.842529,669.833679,853,668C850.769348,666.935547,848.75,667.150024,848,667C846.25,667.25,843.601013,668.225281,842.808533,670.204346C841.485413,670.78656,838.656433,669.681458,838.235168,669.800781C836.099915,666.53064,830.3526,662.594177,824.604553,651.013977C823.793579,649.380127,823.169067,648.063232,822.677124,646.974731C822.195007,645.907959,822.910278,644.960938,823.483582,643.750366C821.820496,643.640015,820.728027,641.953308,820.344971,640.880798C820.70813,640.631958,822.789734,640.014648,822.766174,639.221802C820.665894,639.431519,819.341736,637.16272,818.737427,636.799377C816.976807,632.329468,809.975037,619.943054,806.13147,606.759644C805.444031,604.401672,806,601.75,806,601C805.849976,600.25,805.779236,598.548828,806.804016,597.298828C808.210815,595.582825,810.240723,597.026917,811.556824,595.594971C812.750427,594.296387,813.295044,593.083069,813.395142,592.45636L811.601624,591.111267C811.201233,590.333435,810.845093,589.356201,809.583984,588.734863C805.554688,586.749756,801.75,589.5,799,590C798.549988,590.150024,798.870239,589.968628,798,591C794.380493,595.289856,794.145935,602.567688,793.845947,604.5177C791.13446,604.888306,786.018494,605.284851,783.578186,605.683472C781.068665,610.526855,783.153992,617.711304,783,620C782.864746,620.68396,783.803101,623.459534,782.098511,624.559937C778.377747,626.961853,771.162292,629.689209,764.064575,632.099365C762.609436,632.593506,761.183716,632.392883,761.473389,630.523254C759.778564,631.076843,756.407288,634.616272,754.869751,635.10614C753.960938,635.395691,752.074585,635.327881,752.640442,632.989258C749.871643,633.869385,749.699463,636.339478,746,638C745.705261,636.372375,743.096924,639.702759,741,639C740.531738,636.712708,735.340454,636.609253,734.16748,631.464661C733.458313,628.35437,732.715515,628.248413,732.418823,623.662964C730.762207,623.369995,730.092163,624.542725,730,626C728,625.082703,728.272888,622.147583,729,618C727.861328,617.390625,725.599976,619.700012,725,620C724.700012,618.950012,722.924438,616.476624,723,613C723.032837,611.489868,723.849976,610.450012,724,610C723.700012,608.950012,722.5,603.75,722,602C722,602,723.882629,601.577942,723.882629,601.577942C725.632629,601.077942,727.273743,600.643311,727.6427,599.58844C727.946655,598.719421,727.652527,597.290771,726.508606,596.146545C724.345276,593.982605,720.661072,593.464478,719.684753,593.142517C718.795471,593.148499,716.394226,592.244507,713.756226,593.182251C711.04248,594.146912,708.879211,597.742493,708.165771,598.315125C707.840881,598.117859,706.824707,597.895325,706,597C702.360901,593.049255,701.211914,592.095154,701,587C700.795837,582.091675,701.931519,581.223755,705,577C707.225159,573.937073,708.328491,574.812073,711,572C712.710266,570.199768,713.717896,570.931763,713.875549,569.567627C714.217896,566.605103,712.001038,564.434814,708.444336,563.599243C707.359924,563.344482,704.118896,562.48053,700,563C696.922852,563.388062,695.398254,563.179932,694.49823,563.479919C693.351135,566.847046,691.127441,569.364929,689.96228,571.198975C689.264587,577.174744,689.488281,583.313721,689.643921,585.38385L690.618591,592.784668C691.963928,594.838501,688.218872,597.594482,689.564209,599.648315L691.454163,608.620911C690.494324,607.019409,689.05188,606.860229,688.25116,606.273315C688.322388,607.586304,684.804199,606.790588,684,605C683.544128,605.455872,684.827576,608.344238,681.745605,605.079834C680.951477,605.873962,681.007874,605.598633,679.238892,604.522644C677.738892,605.836426,674.5,604.75,673,603C674.14856,605.60022,670.589966,604.071167,668.635071,603.408691C669.641785,604.972473,663.704224,602.395264,663,600C662.496643,600.870728,664.557617,603.624329,661.234131,603.090576C663.257935,604.901733,658.4245,603.9505,657.513855,604.861145C659.143921,608.06543,662.306763,611.572815,669.231812,613.694397C677.325439,616.174011,677.463684,617.256226,681.506775,623.204224C686.460815,630.49231,688.430115,638.98822,685.627014,639.868713C688.796387,641.438232,686.700745,641.955383,685,642C685.424561,645.601563,684.167297,652.137024,688,660C691.419067,667.014343,692.585022,667.230713,699,672C711.690002,681.43457,709.699402,680.5,725,684C743.055237,688.130127,762.154602,683.682068,767.854614,683.682068C772.604614,682.703979,781.10553,683.565979,785.82019,688.139099C786.345825,688.648926,784.941223,686.101807,785.640869,686.16626C787.758301,686.361328,788.565918,687.328979,790.090088,687.54071L790,686C791.521973,686.108826,794.565979,686.326416,796.087952,686.435242C798.44043,688.036682,800.25647,688.184204,803.899963,689.782593C802.604492,686.320618,807.306763,689.709595,809.359802,689.34967L813.001953,692.248596C813.786987,691.596069,814.694458,692.784058,815.233459,690.649963C817.141418,692.612122,823.535034,697.747498,825,699C827.400024,700.5,836.165527,707.191284,844.781311,708.719543C853.647583,710.292236,853.221558,708.478821,860,705C863.989014,702.952759,863.970459,702.660278,865.720459,698.855408C867.428772,695.141113,865.988281,691.851379,866.796509,690.201843z"/>
</svg>
