<?xml version="1.0" encoding="UTF-8"?>
<svg xmlns="http://www.w3.org/2000/svg" width="172.418mm" height="125.932mm" viewBox="-922.414063 -590.738342 172.417969 125.932281">
    <path transform="matrix(-1,0,0,-1,0,0)" style="stroke:#000000;stroke-width:0.05mm;fill:none" d="M805.074219,464.816406C806.292236,464.860596,807.510071,464.920532,808.726563,464.996094L809,465L820,466L820.105469,466.117188C820.332947,466.32373,820.570618,466.518738,820.816406,466.703125C821.247864,467.034393,821.644958,467.408203,822,467.820313C822.164368,468.019531,822.3125,468.231598,822.445313,468.453125C822.726318,468.928986,822.91449,469.45401,823,470C823.305664,472.062683,823.593445,474.127899,823.863281,476.195313C823.970764,477.05249,824.12738,477.902863,824.332031,478.742188C824.403748,478.984589,824.491699,479.221832,824.59375,479.453125L824.683594,479.605469L824.78125,479.726563L824.886719,479.808594C824.957886,479.840759,825.035156,479.856781,825.113281,479.855469L825.238281,479.820313L825.359375,479.75L825.472656,479.664063C825.542969,479.601532,825.609436,479.53476,825.667969,479.460938C825.786987,479.313507,825.896545,479.158752,826,479C825.465454,481.932465,825.187073,484.905975,825.167969,487.886719L825.1875,489.882813L825.261719,491.878906L825.386719,493.871094C825.496643,495.214233,825.624207,496.55481,825.769531,497.894531L825.957031,499.933594C825.983948,500.288452,825.998169,500.644135,826,501L826.164063,501.039063C826.502136,501.098267,826.844299,501.131653,827.1875,501.136719L828.347656,501.167969C829.094604,501.175446,829.841187,501.207947,830.585938,501.265625L831.660156,501.390625L832.726563,501.570313L833.78125,501.808594C834.890747,502.098877,835.969055,502.49762,837,503C838.995483,503.98291,840.993042,504.957642,842.996094,505.925781C844.814514,506.810852,846.674805,507.607574,848.570313,508.3125C849.355774,508.602814,850.151855,508.863647,850.957031,509.09375C851.764526,509.317322,852.5802,509.510254,853.402344,509.671875C855.575562,510.087646,857.796265,510.197937,860,510C860.044006,509.200012,860.0625,508.398834,860.054688,507.597656C860.90094,507.74057,861.759644,507.796509,862.617188,507.761719C863.34613,507.731415,864.06897,507.613892,864.769531,507.410156C865.94928,507.069702,867.034607,506.461029,867.9375,505.628906C869.068665,504.599365,869.895691,503.279633,870.328125,501.8125C870.396729,501.589447,870.445313,501.360657,870.472656,501.128906C870.650635,499.814453,870.879883,498.507416,871.160156,497.210938C871.482056,495.601288,871.816162,493.998596,872.164063,492.394531C872.263062,492.485291,872.372314,492.564148,872.492188,492.625L872.660156,492.667969L872.824219,492.664063C873.006409,492.619904,873.17334,492.528229,873.308594,492.398438L873.488281,492.203125C873.65741,491.998291,873.799805,491.773071,873.917969,491.535156C874.191101,490.994904,874.411987,490.429779,874.578125,489.847656L874.800781,489.039063C875.136475,487.665833,875.3255,486.260834,875.363281,484.847656C875.386658,484.235657,875.357544,483.622803,875.277344,483.015625L875.515625,483.089844C875.665161,483.127441,875.818359,483.149078,875.972656,483.148438L876.175781,483.128906L876.316406,483.089844L876.453125,483.035156C876.540527,482.989075,876.625549,482.938751,876.707031,482.882813L876.832031,482.777344C876.909424,482.703461,876.983521,482.62619,877.050781,482.542969C877.271423,482.247467,877.451843,481.924042,877.589844,481.582031C877.767395,481.175873,877.925232,480.761353,878.0625,480.339844C878.275391,479.692841,878.499451,479.049438,878.734375,478.410156C878.934204,477.870667,879.171509,477.345825,879.445313,476.839844C879.703613,476.389954,880.003174,475.965027,880.339844,475.570313C881.318237,474.366333,882.46991,473.314148,883.757813,472.449219C884.430054,472.011047,885.13855,471.631195,885.875,471.3125C886.537292,471.036591,887.205444,470.774811,887.878906,470.527344C888.147156,470.426666,888.410583,470.313477,888.667969,470.1875L889,470L889.972656,470.300781L891.035156,470.347656L892.097656,470.335938L893.160156,470.265625L894.214844,470.140625C895.598267,469.924225,896.942993,469.508636,898.207031,468.90625C898.465881,468.784668,898.733826,468.683594,899.007813,468.601563C899.052979,468.576508,899.093994,468.545471,899.132813,468.511719L899.203125,468.441406C900.156067,468.419495,901.10968,468.420685,902.0625,468.445313C904.037292,468.507965,906.013977,468.466156,907.984375,468.320313C909.062622,468.232117,910.138367,468.117615,911.210938,467.976563L911.40625,467.96875C911.718506,467.964508,912.027527,468.031799,912.308594,468.167969C912.461609,468.25705,912.599854,468.368652,912.722656,468.496094L912.898438,468.699219C913.132507,469.030579,913.361511,469.365204,913.585938,469.703125C913.864929,470.116272,914.217285,470.474792,914.625,470.761719C915.008301,471.022064,915.41925,471.239532,915.851563,471.40625L916.472656,471.613281L917.109375,471.761719L917.753906,471.855469C918.146484,471.884552,918.539978,471.899353,918.933594,471.898438C919.177429,471.89386,919.421204,471.903809,919.664063,471.925781C919.777649,471.942871,919.889709,471.967987,920,472C920.056885,472.297333,920.082764,472.59967,920.078125,472.902344C920.081909,473.171875,920.083496,473.441406,920.082031,473.710938L920.019531,476.164063C919.999573,476.701965,920.009766,477.240631,920.050781,477.777344C920.061951,477.852783,920.079346,477.927063,920.101563,478L920.132813,478.058594L920.171875,478.078125L920.21875,478.054688L920.273438,477.984375L920.335938,477.867188C920.392395,477.739258,920.443054,477.608887,920.488281,477.476563C920.528503,478.461304,920.631653,479.442444,920.796875,480.414063C920.839783,480.656311,920.899353,480.895294,920.976563,481.128906L921.097656,481.433594L921.226563,481.660156C921.27478,481.71347,921.32312,481.766785,921.371094,481.820313L921.453125,481.878906C921.511414,481.899292,921.569641,481.919952,921.628906,481.9375L921.722656,481.9375L921.824219,481.917969L921.9375,481.875L922.042969,481.820313C922.176819,481.727264,922.302063,481.622375,922.414063,481.503906C922.377197,482.364532,922.252502,483.219147,922.042969,484.054688C921.957947,484.358429,921.85199,484.655914,921.726563,484.945313C921.477478,485.477142,921.161682,485.975159,920.785156,486.425781L919.371094,488.144531C918.919006,488.715149,918.480286,489.296051,918.054688,489.886719C917.28772,490.91684,916.42157,491.869293,915.46875,492.730469C914.848877,493.283142,914.192322,493.793304,913.503906,494.257813C912.734558,494.760132,911.97644,495.279938,911.230469,495.816406C909.995972,496.730438,908.868958,497.781403,907.871094,498.949219C907.424988,499.47699,906.986206,500.010986,906.554688,500.550781L904.851563,502.597656C904.368408,503.179169,903.979492,503.832977,903.699219,504.535156C903.460876,505.117615,903.276184,505.720551,903.144531,506.335938C902.853027,507.47464,902.729065,508.64978,902.777344,509.824219L902.886719,511.089844C903.01593,511.963715,903.126648,512.84021,903.21875,513.71875C903.390869,515.480835,903.317261,517.25824,903,519C902.748596,520.51532,902.433167,522.019165,902.054688,523.507813L901.734375,524.605469L901.363281,525.6875L900.9375,526.746094L900.460938,527.785156C899.790527,529.141724,899.136841,530.506226,898.5,531.878906C898.269287,532.40802,898.03241,532.933594,897.789063,533.457031C897.570679,533.896179,897.3255,534.321533,897.054688,534.730469L896.503906,535.507813L895.925781,536.234375C895.18335,537.079651,894.403992,537.891602,893.589844,538.667969C893.18335,539.053406,892.794983,539.457642,892.425781,539.878906C892.195801,540.130493,892.001099,540.412476,891.851563,540.71875L891.773438,540.917969C891.716553,541.098389,891.702698,541.289001,891.726563,541.476563L891.78125,541.652344C891.838318,541.777466,891.91217,541.894165,892,542C891.927368,542.122437,891.848022,542.240845,891.753906,542.347656C891.480652,542.634521,891.195618,542.909912,890.898438,543.171875C890.252869,543.741028,889.663696,544.371216,889.140625,545.054688C888.59845,545.792053,888.149292,546.593506,887.804688,547.441406C887.380737,548.431824,887.028809,549.451538,886.75,550.492188C886.451721,551.596313,886.114197,552.689331,885.738281,553.769531C885.061951,555.612183,884.200806,557.381592,883.167969,559.050781C882.81665,559.616577,882.470215,560.185852,882.128906,560.757813L882,561C881.615601,561.541931,881.273071,562.112427,880.976563,562.707031C880.634155,563.386047,880.273499,564.055542,879.894531,564.714844C878.982178,566.306091,877.753296,567.693359,876.285156,568.792969C875.634094,569.269897,874.966858,569.724365,874.285156,570.15625C873.665833,570.535034,873.029846,570.88562,872.378906,571.207031L871.386719,571.65625C870.267761,572.086975,869.138367,572.490906,868,572.867188C866.990479,573.219299,865.990295,573.596985,865,574C863.962585,574.427368,862.882141,574.741577,861.777344,574.9375C861.094482,575.059814,860.399841,575.102295,859.707031,575.066406L859.265625,575.011719C859.034607,574.978027,858.809937,574.909729,858.597656,574.8125L858.46875,574.742188L858.347656,574.660156C858.243835,574.578125,858.15509,574.478455,858.089844,574.363281L858.039063,574.25C858.013428,574.146484,858.001953,574.040161,858.003906,573.933594C858.016113,573.775635,858.057739,573.621765,858.121094,573.476563L858.269531,573.214844C858.482178,572.911682,858.739624,572.643188,859.027344,572.410156C859.523926,572.005737,860.054749,571.645264,860.613281,571.332031C861.276978,570.947937,861.954407,570.588196,862.644531,570.253906C864.192749,569.525513,865.746826,568.812195,867.308594,568.113281C868.162415,567.718567,869.002747,567.294983,869.828125,566.84375C870.161011,566.646912,870.481506,566.429749,870.789063,566.195313C871.603577,565.375488,872.45874,564.597046,873.351563,563.863281C873.631836,563.623718,873.879272,563.348267,874.085938,563.042969C874.314087,562.671631,874.508362,562.280579,874.667969,561.875C874.79303,561.588989,874.903992,561.296997,875,561C875.435974,559.827393,875.848938,558.645935,876.238281,557.457031C876.465393,556.770447,876.635071,556.066162,876.746094,555.351563C876.795288,554.974792,876.811462,554.594543,876.796875,554.214844L876.742188,553.75L876.640625,553.296875L876.484375,552.855469L876.273438,552.425781L876,552L875.8125,551.792969C875.690247,551.687805,875.553955,551.600403,875.410156,551.527344C875.265503,551.457336,875.116882,551.395813,874.964844,551.34375C874.348328,551.162109,873.71228,551.054688,873.070313,551.023438C872.43811,550.98999,871.804749,550.981934,871.171875,551L861,551C860.286377,551.02655,859.571716,551.015381,858.859375,550.964844C857.172424,550.865234,855.481384,550.85083,853.792969,550.921875C851.216431,551.051331,848.664368,551.487915,846.191406,552.222656C842.586548,553.182678,838.993652,554.181152,835.410156,555.21875C833.850708,555.675659,832.30304,556.173218,830.769531,556.710938C830.10675,556.944397,829.453979,557.205383,828.8125,557.492188C828.442566,557.656494,828.088379,557.854065,827.753906,558.082031C827.655579,558.160034,827.565613,558.247681,827.480469,558.339844L827.425781,558.421875L827.402344,558.496094L827.390625,558.574219L827.40625,558.644531L827.445313,558.710938L827.503906,558.777344L827.589844,558.839844C827.672241,558.878418,827.755493,558.9151,827.839844,558.949219L828,559C827.575867,559.046448,827.157471,559.135132,826.75,559.261719C826.03009,559.489563,825.330811,559.777954,824.660156,560.125C823.811707,560.553894,823.003967,561.058899,822.246094,561.632813C821.784058,561.992249,821.358337,562.396057,820.976563,562.839844C820.822754,563.030212,820.695313,563.240479,820.597656,563.464844L820.539063,563.648438L820.515625,563.824219L820.527344,563.988281L820.574219,564.140625L820.664063,564.277344L820.792969,564.402344L820.636719,564.367188C820.500916,564.347534,820.363647,564.341492,820.226563,564.347656C819.889404,564.380127,819.559814,564.465942,819.246094,564.59375C818.162964,565.017273,817.194397,565.688843,816.417969,566.554688C816.295105,566.70282,816.183167,566.85968,816.082031,567.023438L816.003906,567.175781C815.960388,567.279236,815.927979,567.386841,815.902344,567.496094L815.886719,567.632813L815.898438,567.765625L815.941406,567.886719L816,568C814.250183,568.90564,812.557007,569.916565,810.929688,571.027344C810.367065,571.411865,809.824829,571.825317,809.304688,572.265625C808.992371,572.542786,808.697876,572.839478,808.425781,573.15625C808.323608,573.290588,808.22876,573.430298,808.140625,573.574219L808.050781,573.769531L807.996094,573.953125L807.984375,574.125L808.011719,574.285156L808.085938,574.433594L807.382813,574.644531L806.699219,574.910156L806.035156,575.21875L805.394531,575.578125C805.10083,575.754578,804.830505,575.967041,804.585938,576.207031L804.425781,576.394531L804.375,576.480469C804.347656,576.532593,804.328613,576.588135,804.3125,576.644531L804.308594,576.714844L804.324219,576.777344L804.359375,576.835938L804.414063,576.886719L804.496094,576.925781L804.582031,576.960938C804.718323,576.996094,804.859436,577.007019,805,577C803.278198,578.427002,801.667908,579.983582,800.183594,581.65625C799.507324,582.423828,798.814514,583.176636,798.105469,583.914063C797.485779,584.54187,796.816528,585.118591,796.105469,585.640625C795.371155,586.180786,794.598267,586.666565,793.792969,587.09375C792.029114,588.022095,790.218079,588.857849,788.367188,589.597656C787.867371,589.801514,787.359131,589.983948,786.84375,590.144531C786.159119,590.35791,785.459045,590.517944,784.75,590.625C783.739441,590.752747,782.718506,590.776062,781.703125,590.695313L780.949219,590.625C779.326233,590.43689,777.714539,590.161926,776.121094,589.800781C775.326294,589.593506,774.552429,589.313232,773.808594,588.964844C773.07666,588.623413,772.372681,588.225037,771.703125,587.773438C771.016357,587.320374,770.354065,586.831299,769.71875,586.308594C769.250916,585.909485,768.767822,585.528381,768.269531,585.167969C768.181519,585.109131,768.091614,585.053162,768,585C767.19751,583.857605,766.405884,582.708008,765.625,581.550781L764.191406,579.511719C763.220581,578.162659,762.223938,576.831299,761.203125,575.519531L759.648438,573.570313C758.72998,572.470764,757.751892,571.422363,756.71875,570.429688C755.934998,569.679688,755.167969,568.912598,754.417969,568.128906C753.629211,567.29187,752.920715,566.382813,752.300781,565.414063L751.769531,564.53125L751.285156,563.617188C750.999939,563.028992,750.735474,562.430908,750.492188,561.824219C750.34198,561.455994,750.214478,561.078857,750.109375,560.695313C750.049866,560.443787,750.012878,560.187622,749.996094,559.929688L750.007813,559.644531C750.032104,559.460327,750.068176,559.277893,750.113281,559.097656C750.319275,558.537659,750.551208,557.987549,750.808594,557.449219C751.037842,556.857971,751.315552,556.286682,751.640625,555.742188L752.117188,555.042969L752.640625,554.375L753.210938,553.746094C753.627686,553.342285,754.048218,552.942505,754.472656,552.546875L754.59375,552.382813L754.773438,552.238281C754.963318,552.121155,755.165222,552.025146,755.375,551.949219C755.717896,551.830261,756.054504,551.693848,756.382813,551.539063L756.671875,551.375L756.945313,551.175781L757.191406,550.9375L757.40625,550.65625C757.582947,550.360352,757.695984,550.030396,757.730469,549.6875C757.755493,549.423828,757.759949,549.158508,757.738281,548.894531L757.832031,548.976563L757.921875,549.035156L758.011719,549.074219C758.07489,549.08606,758.139465,549.086731,758.203125,549.078125C758.265137,549.063904,758.325012,549.042175,758.382813,549.015625L758.527344,548.914063L758.660156,548.800781C758.874573,548.57251,759.068298,548.325562,759.238281,548.0625C759.507935,547.65625,759.785339,547.254944,760.070313,546.859375C760.207581,546.678223,760.357056,546.506653,760.519531,546.347656L760.757813,546.148438C760.903748,546.053833,761.056702,545.970825,761.214844,545.898438C761.426086,545.789734,761.624329,545.657776,761.808594,545.507813C761.869629,545.45166,761.924622,545.388916,761.964844,545.316406L762.003906,545.226563L762.019531,545.144531L762,544.953125L761.972656,544.765625L761.996094,544.609375L762.039063,544.527344L762.121094,544.660156L762.226563,544.738281L762.351563,544.765625L762.488281,544.738281L762.636719,544.667969L762.785156,544.546875L762.933594,544.367188C763.03241,544.22522,763.114807,544.072754,763.183594,543.914063L763.265625,543.667969L763.324219,543.417969C763.351563,543.248596,763.368164,543.077698,763.375,542.90625L763.359375,542.429688C763.329956,542.114258,763.273315,541.802063,763.191406,541.496094L763.039063,541.042969L763.132813,541.128906C763.183655,541.163391,763.237732,541.192261,763.292969,541.21875L763.359375,541.238281C763.406494,541.240784,763.45343,541.237122,763.5,541.230469C763.559998,541.207703,763.618347,541.180908,763.675781,541.152344L763.765625,541.085938L763.945313,540.894531C764.123474,540.646667,764.271179,540.37854,764.390625,540.097656L764.640625,539.445313C764.777771,539.039795,764.889282,538.626099,764.976563,538.207031C764.98468,538.137939,764.992615,538.069153,765,538C765.0448,538.227295,765.106323,538.450989,765.1875,538.667969L765.269531,538.84375C765.324158,538.940796,765.383362,539.035156,765.449219,539.125L765.546875,539.234375L765.652344,539.324219L765.761719,539.394531C765.83844,539.430359,765.918579,539.45752,766,539.480469C766.124634,539.49707,766.250916,539.49707,766.375,539.476563C766.560547,539.425964,766.73999,539.355225,766.910156,539.265625C767.317139,539.010254,767.671265,538.67926,767.957031,538.292969C768.200378,537.979858,768.412292,537.643616,768.589844,537.289063C768.815918,537.672302,769.065186,538.041382,769.335938,538.394531C769.492981,538.581726,769.662231,538.758301,769.84375,538.921875L769.941406,538.984375C770.004333,539.019043,770.070129,539.047607,770.136719,539.074219L770.230469,539.089844L770.320313,539.082031L770.40625,539.058594L770.488281,539.007813L770.570313,538.925781C770.69342,538.752258,770.778931,538.555481,770.824219,538.347656C770.953186,537.718079,771.010742,537.076111,771,536.433594L771,536C771.128235,536.158997,771.233398,536.334778,771.320313,536.519531C771.550598,536.983459,771.794556,537.440491,772.050781,537.890625C772.236755,538.216125,772.457397,538.520752,772.710938,538.796875L772.859375,538.9375C772.951965,539.009949,773.049622,539.075562,773.152344,539.132813L773.304688,539.191406L773.453125,539.214844L773.609375,539.203125L773.761719,539.15625L773.917969,539.0625L774.074219,538.925781C774.167542,538.821045,774.254028,538.710388,774.332031,538.59375L774.445313,538.410156C774.673523,537.958252,774.859924,537.48645,775,537C775.300537,538.877014,775.860474,540.703125,776.664063,542.425781C776.933167,542.998535,777.227661,543.559082,777.546875,544.105469C777.90033,544.719604,778.318359,545.294189,778.792969,545.820313L779,546C779.122681,546.420288,779.229614,546.845093,779.320313,547.273438C779.474548,547.940796,779.66864,548.598328,779.902344,549.242188L780.089844,549.6875L780.300781,550.074219C780.367737,550.182861,780.445984,550.283936,780.53125,550.378906L780.652344,550.496094L780.78125,550.585938L780.914063,550.644531L781.050781,550.671875L781.199219,550.664063L781.34375,550.617188L781.507813,550.519531L781.660156,550.398438L781.839844,550.207031L782,550C781.917847,550.459106,781.874023,550.924255,781.871094,551.390625L781.890625,552.050781L781.976563,552.804688L782.117188,553.546875L782.316406,554.28125C782.647156,555.279724,783.070801,556.244873,783.582031,557.164063C783.730286,557.438171,783.869324,557.717102,784,558L790,552C790.094177,551.755676,790.203857,551.5177,790.324219,551.285156C790.677368,550.614014,791.03125,549.949036,791.390625,549.28125L791.933594,548.210938L792.421875,547.117188L792.859375,546L793.242188,544.863281C793.732239,543.259399,794.009521,541.598022,794.066406,539.921875L794.066406,539.046875C794.035278,537.984924,793.842957,536.933899,793.496094,535.929688C793.323792,535.429565,793.14032,534.933167,792.945313,534.441406C792.722656,533.829651,792.528564,533.207825,792.363281,532.578125C792.247253,532.08075,792.158997,531.577332,792.097656,531.070313C792.040771,530.56311,792.009583,530.053345,792.003906,529.542969C791.984375,527.93396,792.06665,526.325256,792.25,524.726563C792.409119,523.466248,792.671204,522.221008,793.035156,521.003906C793.313843,520.07373,793.586914,519.150879,793.859375,518.21875C794.334106,516.50116,794.714661,514.759033,795,513L795.410156,510.652344L795.875,508.316406L796.394531,505.992188C796.64624,504.931793,796.910706,503.87442,797.1875,502.820313C797.399292,501.959412,797.589478,501.093109,797.757813,500.222656L797.910156,499.222656L798.011719,498.21875L798.054688,497.210938C798.06012,496.219666,798.014587,495.22879,797.917969,494.242188C797.862244,493.590485,797.787964,492.94046,797.695313,492.292969C797.489197,490.857849,797.257446,489.42688,797,488C796.772583,486.676147,796.582458,485.346191,796.429688,484.011719C796.302795,482.861206,796.110779,481.718842,795.855469,480.589844L795.632813,479.78125L795.355469,478.976563C794.826172,477.616058,794.070313,476.355194,793.121094,475.246094C792.724609,474.770905,792.310181,474.311035,791.878906,473.867188L791.78125,473.730469C791.715393,473.618958,791.662842,473.500061,791.628906,473.375L791.578125,473.15625C791.564026,472.958771,791.578247,472.760498,791.617188,472.566406L791.707031,472.273438C791.782837,472.073822,791.874084,471.880432,791.980469,471.695313C792.18457,471.34494,792.407715,471.005951,792.648438,470.679688L792.828125,470.414063L792.972656,470.128906L793,470L796,471L795.953125,470.835938C795.713135,470.267151,795.464233,469.701874,795.207031,469.140625C795.007629,468.667633,794.858459,468.175201,794.757813,467.671875L794.714844,467.308594L794.707031,466.953125L794.75,466.613281L794.792969,466.453125C794.823669,466.3479,794.866577,466.247101,794.914063,466.148438C794.966553,466.053497,795.026062,465.962738,795.089844,465.875L795.191406,465.746094L795.398438,465.535156L795.617188,465.371094L795.789063,465.273438C795.967102,465.182892,796.158081,465.120209,796.355469,465.089844C796.757568,465.03067,797.16449,465.009216,797.570313,465.03125C798.226196,465.061615,798.883057,465.062897,799.539063,465.035156C801.377747,464.846741,803.22644,464.773712,805.074219,464.816406z"/>
    <path transform="matrix(-1,0,0,-1,0,0)" style="stroke:#000000;stroke-width:0.05mm;fill:none" d="M781.578125,572.757813C781.476624,572.761841,781.375,572.763855,781.273438,572.761719C781.040039,572.786621,780.810364,572.837463,780.585938,572.90625C780.477478,572.947876,780.369873,572.99176,780.265625,573.042969L780.011719,573.195313C779.825989,573.334473,779.656372,573.494263,779.511719,573.675781C779.411621,573.811218,779.320007,573.952637,779.234375,574.097656C779.039551,574.47821,778.875793,574.87384,778.746094,575.28125C778.510498,576.001404,778.266907,576.718811,778.015625,577.433594C777.463196,578.681885,777.091858,580.002563,776.910156,581.355469L776.800781,582.019531C776.812622,582.053833,776.82489,582.087952,776.839844,582.121094L776.863281,582.144531L776.886719,582.164063L776.9375,582.183594C776.968506,582.190186,776.999634,582.19574,777.03125,582.199219C777.059448,582.190674,777.085571,582.177795,777.113281,582.167969C777.132629,582.146912,777.152771,582.126648,777.171875,582.105469L777.195313,582.042969C777.268066,581.699158,777.327087,581.352539,777.371094,581.003906C777.492371,580.251892,777.674988,579.511047,777.917969,578.789063C778.269592,577.896729,778.5979,576.995483,778.902344,576.085938C779.065369,575.518677,779.269104,574.963867,779.511719,574.425781C779.596497,574.247742,779.700928,574.079651,779.824219,573.925781L780.027344,573.703125L780.222656,573.535156L780.457031,573.394531L780.742188,573.273438C780.900818,573.225403,781.062683,573.188843,781.226563,573.164063C781.358765,573.146423,781.492676,573.147644,781.625,573.164063L781.824219,573.195313L782.03125,573.25C782.17688,573.303894,782.316406,573.372742,782.449219,573.453125C782.711609,573.619995,782.951111,573.820557,783.160156,574.050781C783.395325,574.292542,783.615906,574.548096,783.820313,574.816406C784.306519,575.416687,784.778076,576.028992,785.234375,576.652344L785.710938,577.394531L786.136719,578.160156L786.511719,578.957031C786.911682,579.916931,787.230347,580.908752,787.464844,581.921875C787.555908,582.319031,787.674255,582.709473,787.820313,583.089844C787.837341,583.112915,787.855164,583.135376,787.875,583.15625C787.907043,583.17218,787.94043,583.184204,787.972656,583.199219L788.019531,583.199219C788.046143,583.191956,788.072449,583.183533,788.097656,583.171875L788.132813,583.148438L788.152344,583.121094L788.175781,583.097656C788.183472,583.077087,788.188599,583.055908,788.195313,583.035156C788.194885,582.999939,788.194641,582.964722,788.1875,582.929688C788.012024,582.445129,787.86969,581.949219,787.761719,581.445313C787.513794,580.480774,787.192749,579.53656,786.800781,578.621094L786.457031,577.902344C786.210938,577.429504,785.937073,576.971619,785.636719,576.53125C785.016296,575.668335,784.363464,574.829285,783.679688,574.015625C783.406006,573.702332,783.097473,573.421387,782.761719,573.175781L782.570313,573.058594L782.367188,572.957031L782.160156,572.875C781.96936,572.821167,781.775024,572.781128,781.578125,572.757813z"/>
    <path transform="matrix(-1,0,0,-1,0,0)" style="stroke:#000000;stroke-width:0.05mm;fill:none" d="M768.929688,571.089844C768.716492,571.315491,768.49292,571.531128,768.261719,571.738281C768.002686,571.986145,767.764526,572.255066,767.550781,572.542969C767.358704,572.819336,767.208008,573.122131,767.101563,573.441406C767.032288,573.680115,766.995605,573.927246,766.996094,574.175781C767.013245,574.421021,767.080566,574.659546,767.191406,574.878906C767.306335,575.110474,767.45459,575.324341,767.636719,575.507813C767.708984,575.594116,767.776245,575.684448,767.839844,575.777344L774,574L769,571L768.929688,571.089844z"/>
</svg>
