<?xml version="1.0" encoding="UTF-8"?>
<svg xmlns="http://www.w3.org/2000/svg" width="172.418mm" height="125.939mm" viewBox="-922.415100 -590.743713 172.417603 125.939270">
    <path transform="matrix(-1,0,0,-1,0,0)" style="stroke:#000000;stroke-width:0.05mm;fill:none" d="M784,558C783.524048,556.857666,781.318054,553.802795,782,550C780.12854,552.649902,779.274048,546.657654,779,546C778.124573,545.319092,775.754517,541.755371,775,537C773.390808,542.353699,771.474609,536.369141,771,536C771.056213,541.077454,769.448425,538.69342,768.588501,537.290527C767.644592,539.203918,765.533325,540.766541,765,538C765,538.450012,764.030823,542.124695,763.040283,541.042847C764.093079,543.888123,762.384583,545.371277,762.040833,544.52887C761.740845,544.978882,762.629211,545.229797,761,546C759.67688,546.625488,758.714355,549.912842,757.739441,548.893311C757.998413,552.033447,754.948364,551.590149,754.474487,552.545471C753.874512,553.145447,752,554.585815,751,557C749.939331,559.560669,749.41095,559.49353,751,563C753.373413,568.237183,756.22937,569.315369,760,574C764.259094,579.291443,766.799988,583.349976,768,585C769.349976,585.75,772.198669,589.090149,777,590C784.057129,591.33728,785.605469,590.99176,792,588C799.056152,584.698669,798.455017,582.445923,805,577C803.150696,577.023682,805.294128,575.179016,808.084595,574.432617C807.054443,572.939697,814.062622,568.985168,816,568C815.172791,566.850037,819.170959,563.902283,820.794739,564.403931C819.177124,563.15033,824.962402,559.280273,828,559C824.268616,557.969971,838.539246,554.318604,847,552C853.638489,550.180786,858.900024,551.150024,861,551C863.5,551,868.5,551,871,551C871.75,551,875.145264,550.814148,876,552C877.621704,554.25,876.530762,556.688477,875,561C873.886169,564.137085,873.609924,563.312927,871,566C869.027832,568.030457,857.987122,571.239929,858,574C858.006592,575.418762,861.385559,575.468262,865,574C870.331177,571.834412,871.518494,572.183655,876,569C879.882324,566.242004,880.5,563,882,561C882.599976,559.799988,884.632385,557.205627,886,553C886.930054,550.139832,886.897949,549.454163,888,547C889.372864,543.942871,891.549988,542.900024,892,542C890.401428,540.17804,895.833923,537.938782,898,533C900.789917,526.638794,901.677673,526.617615,903,519C904.025696,513.091248,902.126831,511.215576,903,507C903.777405,503.246765,904.524231,503.122833,907,500C911.80835,493.934906,914.008057,495.458221,918.464661,489.3349C921.076904,485.745728,922.125,485.847107,922.4151,481.504822C920.990356,482.990692,920.663574,480.416168,920.486328,477.476196C919.583374,480.142944,920.310547,473.138641,920,472C919.25,471.700012,917.327026,472.30777,915,471C912.839417,469.785767,913.336243,467.691162,911,468C905.127014,468.776398,902.153503,468.330963,899.204651,468.441284C898.904663,468.741272,899.204651,468.441284,898,469C892.871338,471.378662,887.799988,469.850006,886,470C884.25,470,880.75,470,879,470C877.349976,471.049988,873.780762,471.157684,870,476C867.843201,478.76236,868.00177,484.0625,865.278748,483.014984C865.808594,486.950897,863.920715,494.172882,862.162781,492.392609C861.806519,494.022919,861.439636,495.858032,861,498C859.798035,503.855927,860.150024,508.200012,860,510C851.733948,510.739471,845.450562,507.095886,837,503C831.870056,500.51358,827.650024,501.450012,826,501C826,497.700012,824.125244,489.041748,826,479C824.105591,481.962921,824.091919,476.858643,823,470C822.612,467.562927,820.450012,466.600006,820,466C817.25,465.75,811.75,465.25,809,465C807.650024,465,804.456299,464.558746,800,465C797.47522,465.25,796,464.5,795,466C794,467.5,795.849976,470.25,796,471L793,470C793,470.600006,790.612244,472.586853,792,474C796.670837,478.756195,795.942993,482.148987,797,488C799.385986,501.207672,797.303101,499.050049,795,513C793.674438,521.028809,792.080933,520.985657,792,529C791.939514,534.989319,794.539368,535.141724,794,541C793.481079,546.636353,790.599976,550.349976,790,552L784,558z"/>
</svg>
