<?xml version="1.0" encoding="UTF-8"?>
<svg xmlns="http://www.w3.org/2000/svg" width="400.000mm" height="132.652mm" viewBox="-975.300781 -611.601563 400.000000 132.652344">
    <path transform="matrix(-1,0,0,-1,0,0)" style="stroke:none;fill:#000000;fill-rule:evenodd" d="M975.300781,611.601563L575.300781,611.601563L575.300781,478.949219L975.300781,478.949219L975.300781,611.601563M757.859375,562.707031L756.667969,563.898438L756.667969,566.472656C757.068054,566.867615,757.4646,567.264038,757.859375,567.664063L760.433594,567.664063C760.828125,567.264404,761.225342,566.867126,761.625,566.472656L761.625,563.898438L760.433594,562.707031L757.859375,562.707031M785.914063,595.40625C785.292847,595.467896,784.700256,595.695435,784.195313,596.0625L783.296875,596.71875L783.296875,599.539063C783.685181,599.848389,784.090515,600.135742,784.511719,600.398438C784.950073,600.663513,785.445984,600.819397,785.957031,600.855469L786.820313,600.855469L788.375,599.296875L788.375,597.21875C787.831543,596.613098,787.283142,596.007202,786.734375,595.40625L785.914063,595.40625M644.589844,539.511719L643.46875,539.671875L643.335938,552.792969C643.281433,556.832825,643.287964,560.870544,643.355469,564.910156L643.414063,566.253906C643.418457,566.361755,643.435303,566.468445,643.457031,566.574219L643.710938,567.238281L645.449219,566.90625L645.714844,539.351563L644.589844,539.511719M624.890625,541.800781L624.890625,539.425781L623.402344,539.425781L623.402344,559.734375L625.382813,559.734375L625.382813,543.828125C627.070923,543.054688,628.400269,542.446777,630.089844,541.675781L632.640625,541.664063L635.1875,541.652344C635.887817,542.283386,636.571655,542.901794,637.269531,543.535156L638.261719,547.101563L638.265625,559.734375L640.246094,559.734375L640.246094,544.839844L639.574219,543.246094C639.164856,542.299316,638.577271,541.440063,637.84375,540.714844L636.789063,539.773438C635.223267,539.625549,633.597107,539.469299,632.03125,539.316406L624.890625,541.800781M756.667969,539.425781L756.667969,560.230469L761.625,560.230469L761.625,539.425781L756.667969,539.425781M783.460938,572.617188L783.316406,582.527344C783.25769,585.724243,783.248657,588.920044,783.289063,592.117188C783.290894,592.378174,783.304932,592.638855,783.332031,592.898438L783.339844,592.933594L783.503906,593.421875L788.375,593.421875L788.375,572.617188L783.460938,572.617188M603.03125,539.425781L603.429688,540.082031C604.913574,542.091553,606.435059,544.074036,607.992188,546.027344C608.818909,547.0672,609.607239,548.13678,610.355469,549.234375C610.416687,549.335754,610.475525,549.438477,610.523438,549.546875L610.503906,549.601563C610.14209,550.191711,609.748169,550.761414,609.324219,551.308594C608.046814,553.023804,606.743347,554.719238,605.414063,556.394531L603.722656,558.640625C603.467896,558.989319,603.236755,559.354614,603.03125,559.734375L605.503906,559.734375C606.961853,557.808594,608.447144,555.905457,609.960938,554.023438C610.546143,553.290894,611.173462,552.593079,611.839844,551.933594C611.892395,551.884705,611.953979,551.848816,612.015625,551.8125C612.051697,551.809631,612.085754,551.822388,612.117188,551.839844C612.397217,552.068726,612.65509,552.323242,612.890625,552.597656C613.801025,553.622925,614.67395,554.681091,615.507813,555.769531L618.574219,559.734375C619.178467,559.754456,619.783386,559.74585,620.386719,559.707031L620.785156,559.632813C620.831421,559.613281,620.877563,559.593689,620.917969,559.5625C620.910706,559.52179,620.899597,559.481995,620.878906,559.445313C619.584595,557.617676,618.249634,555.819031,616.875,554.050781C616.058838,552.974426,615.240356,551.889282,614.429688,550.808594C614.086426,550.370178,613.774536,549.907959,613.496094,549.425781C615.446533,546.966553,617.371826,544.48938,619.273438,541.992188C619.782959,541.33313,620.275208,540.661072,620.75,539.976563C620.812622,539.877319,620.873962,539.777222,620.925781,539.671875C620.88208,539.598877,620.809692,539.548828,620.726563,539.53125C620.407715,539.450195,620.078857,539.417053,619.75,539.425781L618.574219,539.425781C617.355286,541.010254,616.128723,542.59259,614.898438,544.167969C614.175232,545.087585,613.418152,545.980103,612.628906,546.84375C612.482117,547.004761,612.325134,547.156372,612.152344,547.289063C612.110413,547.315735,612.064697,547.334656,612.015625,547.34375C611.879883,547.256104,611.754028,547.154114,611.640625,547.039063C610.557312,545.873291,609.532593,544.654297,608.570313,543.386719L605.503906,539.425781L603.03125,539.425781M683.84375,555.332031C682.268982,556.037537,680.714172,556.730408,679.136719,557.429688L674.183594,557.851563C673.25824,557.122559,672.407043,556.449951,671.484375,555.71875L671.210938,539.671875C670.469116,539.564453,669.723145,539.458618,668.980469,539.355469L668.980469,554.8125C669.465149,555.966431,669.949402,557.12561,670.429688,558.28125L673.6875,559.695313L675.667969,559.703125L677.652344,559.710938L684.339844,557.429688L684.339844,559.734375L686.339844,559.734375L686.074219,539.671875C685.327209,539.56366,684.591492,539.45929,683.84375,539.355469L683.84375,555.332031M775,572.617188L775,586.398438L773.476563,587.679688L771.949219,588.964844L770.046875,588.964844L770.046875,593.421875C770.305969,593.438171,770.565979,593.436401,770.824219,593.410156L770.960938,593.378906C771.687622,593.162537,772.3927,592.879089,773.066406,592.53125C773.825867,592.124939,774.612854,591.772217,775.421875,591.476563C775.606506,591.427856,775.798828,591.417786,775.988281,591.441406L775.988281,593.421875L780.449219,593.421875L780.449219,572.617188L775,572.617188M742.300781,572.617188L742.300781,600.855469L747.75,600.855469L747.75,572.617188L742.300781,572.617188M810.171875,539.425781L810.171875,567.664063L815.625,567.664063L815.625,539.425781L810.171875,539.425781M740.660156,539.609375C739.630737,539.707092,738.608093,539.866272,737.597656,540.085938L737.332031,540.175781C737.166992,540.266541,737.006897,540.366089,736.851563,540.472656L736.851563,544.199219C739.533325,544.061035,742.448242,543.908691,745.128906,543.765625C746.183044,544.705444,747.288269,545.693726,748.339844,546.636719L749.082031,550.691406C748.718933,551.772766,748.35675,552.861816,748,553.945313L745.21875,556.007813L736.851563,555.828125L736.851563,559.660156L737.71875,559.890625C738.652832,560.028992,739.594971,560.105286,740.539063,560.121094C742.405579,560.182617,744.273071,560.219055,746.140625,560.230469L750.449219,558.710938L751.640625,557.613281C752.421326,556.83606,753.054138,555.92395,753.511719,554.921875L754.191406,553.328125L754.191406,547.710938C753.814209,546.449036,753.411621,545.108398,753.03125,543.847656L749.335938,540.503906C747.421387,540.108887,745.475159,539.70459,743.5625,539.304688L740.660156,539.609375M655.746094,539.429688C653.53717,539.417419,651.332214,539.624329,649.164063,540.046875L649.164063,541.652344L658.824219,541.652344L662.125,543.453125C662.514282,544.30542,662.898804,545.156494,663.28125,546.011719C663.593445,546.693176,663.838806,547.403503,664.011719,548.132813C664.023193,548.35791,664.027893,548.583191,664.027344,548.808594L656.472656,548.945313L648.917969,549.085938C648.813599,550.571777,648.711304,551.991333,648.601563,553.476563C649.140747,554.878662,649.672241,556.267578,650.207031,557.671875C650.883423,558.159729,651.596375,558.59491,652.339844,558.972656C652.649963,559.122925,652.967896,559.256653,653.292969,559.371094C653.56311,559.447876,653.840515,559.497314,654.121094,559.507813C655.226624,559.578064,656.335388,559.582153,657.441406,559.519531L660.511719,559.359375L663.777344,557.484375L666.007813,553.085938C666.00415,551.127747,666.002686,549.058472,666.003906,547.101563C665.671326,545.915894,665.351013,544.765015,665.023438,543.578125L663.660156,542.269531C662.702759,541.416138,661.619873,540.715332,660.449219,540.191406L658.609375,539.425781L655.746094,539.429688M663.71875,552.675781C663.55957,553.457825,663.286499,554.212341,662.90625,554.914063C662.603699,555.418396,662.207153,555.859802,661.738281,556.214844C661.470642,556.422485,661.190002,556.612732,660.898438,556.785156L659.320313,557.75C657.852478,557.73584,656.331543,557.723877,654.863281,557.714844C654.290222,557.416016,653.723511,557.104858,653.164063,556.78125C652.669617,556.483704,652.242249,556.087402,651.902344,555.621094C651.417297,554.897705,651.157959,554.046753,651.152344,553.175781C651.135681,552.55481,651.13324,551.933533,651.144531,551.3125L664.046875,551.3125L663.71875,552.675781M695.066406,539.449219C693.650818,539.471497,692.239624,539.612671,690.847656,539.871094L689.789063,540.046875L689.789063,541.652344L699.449219,541.652344C700.153625,542.018677,700.8479,542.404419,701.53125,542.808594C702.774536,543.58197,703.69342,544.782043,704.117188,546.183594C704.227722,546.521912,704.319763,546.866028,704.390625,547.214844L704.722656,548.808594L697.132813,548.945313L689.539063,549.085938L689.238281,552.734375C689.5625,553.944214,689.959473,555.420288,690.285156,556.628906L692.835938,559.179688L693.914063,559.421875C694.789551,559.533569,695.672485,559.576538,696.554688,559.550781C698.08313,559.518921,699.610962,559.454956,701.136719,559.359375C702.246216,558.713013,703.294922,558.099609,704.402344,557.449219C705.125977,556.168457,705.889893,554.821045,706.617188,553.542969L706.625,549.933594L706.632813,546.328125L705.28125,543.09375L702.144531,540.453125L700.300781,539.941406C699.35907,539.702637,698.396057,539.557312,697.425781,539.507813C696.640625,539.453064,695.853333,539.433472,695.066406,539.449219M704.648438,551.824219C704.578674,552.285339,704.454407,552.736511,704.277344,553.167969C703.949463,554.038086,703.597839,554.89917,703.222656,555.75C702.172852,556.38916,700.994873,557.10791,699.945313,557.75L695.484375,557.71875C694.998474,557.469788,694.522888,557.201294,694.058594,556.914063C692.657471,555.95459,691.811768,554.373779,691.789063,552.675781L691.769531,551.3125L704.648438,551.3125L704.648438,551.824219M703.242188,574.019531L702.4375,575.246094C701.909363,576.146484,701.544556,577.132874,701.359375,578.160156L701.085938,579.847656C701.578003,581.022461,702.097046,582.26416,702.585938,583.4375L704.898438,584.914063L708.820313,585.179688L712.738281,585.445313L714.292969,587C713.937256,587.562622,713.591675,588.111694,713.238281,588.675781C711.966492,589.007813,711.123718,589.227539,709.851563,589.558594C708.308899,589.32074,706.770874,589.053833,705.238281,588.757813C704.494446,588.623535,703.759766,588.442566,703.039063,588.214844L702.171875,587.867188L702.171875,592.402344C703.09375,592.66748,704.474609,593.065918,705.394531,593.332031C707.88678,593.365234,710.218262,593.394043,712.710938,593.421875C714.032104,593.028687,715.289429,592.651978,716.609375,592.253906C717.235413,591.454651,717.867004,590.651794,718.496094,589.855469C718.651611,589.025879,718.989502,587.22168,719.144531,586.390625L718.019531,582.632813C717.116577,582.039612,716.240479,581.465759,715.335938,580.875L707.871094,580.417969C707.555237,580.2005,707.260681,579.953491,706.992188,579.679688C706.886353,579.544983,706.797241,579.397705,706.734375,579.238281C706.68512,579.078918,706.663513,578.912781,706.667969,578.746094C706.72052,578.282471,706.92926,577.85083,707.257813,577.519531C707.560669,577.198914,707.870483,576.884705,708.1875,576.578125L712.824219,576.589844L718.078125,577.988281L717.777344,573.425781C717.256592,573.274536,716.734741,573.128601,716.210938,572.988281C715.082703,572.778625,713.940002,572.655823,712.792969,572.621094C712.13092,572.583374,711.467834,572.563904,710.804688,572.5625L706.804688,572.53125L703.242188,574.019531M688.285156,572.664063L685.597656,573.085938C684.877686,573.619629,683.822754,574.400391,683.101563,574.933594C682.587158,576.523438,682.281494,577.46582,681.765625,579.054688L683.101563,583.179688C683.934937,583.772522,684.747314,584.352966,685.578125,584.949219C688.209717,585.099121,691.255005,585.274902,693.882813,585.429688L694.835938,586.382813C694.720093,586.990723,694.600342,587.607666,694.480469,588.214844C693.535767,588.666382,692.483398,589.170776,691.539063,589.625C689.0177,589.276733,686.502563,588.880798,683.996094,588.4375C683.694702,588.379883,683.395813,588.309631,683.101563,588.222656L682.949219,590.304688L682.796875,592.390625C683.88739,592.707214,684.982056,593.021667,686.074219,593.332031C688.946045,593.366211,691.403442,593.393555,694.277344,593.421875L695.875,592.75C696.820313,592.33783,697.680176,591.751892,698.40625,591.019531L699.34375,589.964844L699.574219,587.566406L699.804688,585.164063C699.24469,584.078064,698.762024,583.144592,698.199219,582.058594L695.980469,580.839844C693.504395,580.665283,690.634521,580.466064,688.15625,580.296875L687.0625,578.5L689.539063,576.460938C690.945435,576.579346,692.350525,576.713501,693.753906,576.863281C694.824158,576.98645,695.886902,577.167725,696.9375,577.40625L697.4375,577.558594L698.707031,578.039063L698.707031,573.664063C698.498413,573.507507,698.26947,573.379639,698.023438,573.292969C696.819885,573.015625,695.601929,572.805542,694.375,572.664063L690.972656,572.238281L688.285156,572.664063M752.488281,572.824219L750.722656,573.15625L750.722656,577.21875L757.503906,576.648438L761.855469,577.628906C762.444946,578.15918,763.018555,578.677734,763.605469,579.210938L763.605469,581.039063L750.226563,581.039063L750.226563,587.164063C750.938049,588.623413,751.648621,590.091675,752.351563,591.554688C753.69519,592.162109,755.080078,592.790771,756.421875,593.402344L758.652344,593.410156C760.033691,593.403809,761.409363,593.231384,762.75,592.898438L764.621094,592.378906C765.790649,591.354614,766.871948,590.40564,768.039063,589.378906L769.046875,585.746094L769.054688,579.707031C768.302734,578.27533,767.509766,576.770447,766.753906,575.339844L762.40625,572.921875C759.55719,572.77002,757.099609,572.64209,754.25,572.496094L752.488281,572.824219M763.605469,586.808594C762.839722,587.526245,762.07605,588.244385,761.3125,588.964844L757.316406,588.964844C756.772217,588.35791,756.225647,587.754089,755.675781,587.152344L755.675781,585L763.605469,585L763.605469,586.808594M727.4375,572.625C726.044556,572.61853,724.652161,572.682556,723.265625,572.816406L722.671875,572.914063C722.278442,573.012817,721.886719,573.117004,721.496094,573.226563L721.496094,577.390625L724.589844,577.023438L727.6875,576.65625C728.936707,576.81842,730.170227,577.085266,731.375,577.453125C732.065491,577.680176,732.748047,577.930603,733.421875,578.203125C733.637695,578.585022,733.842102,578.973267,734.035156,579.367188C734.18457,579.687439,734.296082,580.024109,734.363281,580.371094C734.384216,580.593079,734.385925,580.816345,734.375,581.039063L720.503906,581.039063L720.507813,583.640625C720.505127,585.119812,720.672668,586.594421,721.007813,588.035156L721.507813,589.832031L724.117188,592.441406C725.154175,592.76239,726.155579,593.074158,727.191406,593.398438C729.404297,593.263184,731.794312,593.11377,734.007813,592.972656C735.219299,592.174194,736.478333,591.341431,737.6875,590.539063L739.375,586.980469L739.660156,584.589844L739.945313,582.195313L738.339844,576.683594C737.150513,575.636475,736.089966,574.70459,734.898438,573.660156L731.15625,572.621094L727.4375,572.625M734.117188,586.117188C733.844238,586.875732,733.390015,587.555908,732.792969,588.097656L731.789063,588.964844L727.59375,588.964844L725.953125,587.152344L725.953125,585L734.441406,585L734.117188,586.117188M715.5625,539.910156L713.34375,540.511719L710.171875,543.878906L709.578125,546.726563L708.984375,549.578125L709.507813,552.402344L710.03125,555.222656L712.1875,558.136719L714.804688,559.355469L720.75,559.824219L724.960938,558.847656L724.960938,566.503906L725.308594,566.851563C725.52301,567.020081,725.794128,567.099487,726.066406,567.082031L726.246094,567.078125C726.56427,567.039124,726.879944,566.981995,727.191406,566.90625L727.457031,540.726563L726.652344,539.921875L717.777344,539.304688L715.5625,539.910156M719.265625,541.410156C720.551147,541.427002,721.834167,541.531189,723.105469,541.722656L724.960938,542.03125L724.960938,556.65625C723.610657,557.019409,722.231995,557.267334,720.839844,557.398438C719.656372,557.525391,718.470337,557.644043,717.285156,557.753906L713.851563,556.515625L711.585938,553.148438L711.585938,546.503906L713.835938,543.136719L717.285156,541.40625L719.265625,541.410156M795.984375,572.617188L793.34375,582.398438C792.455017,585.722168,791.542175,589.047791,790.609375,592.359375C790.508118,592.739807,790.381531,593.113037,790.230469,593.476563L795.976563,593.175781C796.450928,590.651001,796.928955,588.157959,797.421875,585.636719C797.706848,584.202209,798.031128,582.776062,798.394531,581.359375C798.464722,581.122864,798.541077,580.888245,798.625,580.65625C798.646545,580.620605,798.666382,580.584167,798.691406,580.550781C798.704773,580.551941,798.714661,580.546387,798.730469,580.550781C798.843567,580.705383,798.941711,580.870728,799.007813,581.050781C799.630798,582.495483,800.200134,583.962524,800.714844,585.449219C801.647949,588.099426,802.573608,590.76416,803.484375,593.421875L807.972656,593.421875L812.246094,580.46875L812.535156,580.757813C812.580444,580.843018,812.617432,580.932129,812.648438,581.023438C813.223328,583.032532,813.722351,585.062744,814.144531,587.109375L815.460938,593.175781C817.315918,593.276611,819.133545,593.372803,820.988281,593.46875L815.714844,572.863281L810.472656,572.863281C809.578735,575.480469,808.650757,578.179443,807.746094,580.792969C807.203491,582.338623,806.629211,583.872559,806.023438,585.394531L805.773438,585.914063C805.756226,585.941895,805.73468,585.966125,805.710938,585.988281C805.695251,585.97644,805.68219,585.96228,805.667969,585.949219C805.487671,585.590881,805.329285,585.221863,805.195313,584.84375C804.508972,583.011658,803.861511,581.164429,803.253906,579.304688L801.050781,572.617188L795.984375,572.617188M796.988281,539.433594L794.070313,539.445313L790.03125,541.28125C789.314819,542.189148,788.597046,543.101379,787.882813,544.011719C787.520325,545.357117,787.143372,546.749084,786.777344,548.09375L787.261719,554.179688L789.539063,558.230469L793.578125,560.230469L797.539063,560.222656L801.503906,560.214844C802.781799,559.481934,804.09906,558.729004,805.378906,558C806.06488,556.67926,806.734436,555.382629,807.414063,554.058594L807.605469,551.066406L807.796875,548.078125L806.664063,543.867188L803.78125,540.585938C802.513916,540.2052,801.171631,539.803589,799.902344,539.425781L796.988281,539.433594M801.175781,544.789063L801.699219,545.769531C802.099365,546.68866,802.356079,547.663635,802.464844,548.660156L802.707031,550.570313C802.376343,551.796448,802.05249,553.006592,801.726563,554.234375L799.140625,556.265625L795.367188,556.265625C794.436157,555.468506,793.553589,554.710449,792.625,553.910156C792.490967,551.580688,792.366943,549.380981,792.238281,547.050781L794.808594,543.996094C795.878662,543.834106,796.965881,543.666992,798.035156,543.5L801.175781,544.789063M775.496094,532.246094L770.789063,532.25C769.408691,532.970825,768.260742,533.569458,766.878906,534.289063C766.210144,535.188599,765.51593,536.118652,764.84375,537.015625L764.84375,559.488281L766.578125,559.792969C767.884949,559.959595,769.198914,560.063782,770.515625,560.105469C772.620056,560.17627,774.726501,560.218018,776.832031,560.230469L778.515625,559.667969C779.670898,559.239319,780.763855,558.658936,781.765625,557.941406L783.332031,556.78125C783.870117,555.375732,784.504395,553.714478,785.039063,552.308594C784.883789,550.098267,784.710938,547.672791,784.550781,545.460938L782.5,542.148438L779.210938,540.167969L770.046875,540.167969L770.046875,539.757813C770.065979,539.692871,770.082947,539.627563,770.113281,539.566406C770.528442,538.933533,771.014343,538.350037,771.5625,537.828125L773.082031,536.308594L778.003906,536.582031L782.925781,536.851563L782.925781,533.003906L780.199219,532.238281L775.496094,532.246094M777.941406,545.246094L779.011719,546.109375C779.324402,547.463501,779.612732,548.719421,779.921875,550.074219C779.517883,551.648743,779.003662,553.192993,778.382813,554.695313C777.491211,555.064941,776.579712,555.384705,775.652344,555.652344C774.620911,555.945129,773.543152,556.038818,772.476563,555.929688C772.242188,555.902344,772.008911,555.865723,771.777344,555.820313L770.292969,555.515625L770.011719,545.476563L771.589844,544.925781C772.701477,544.58197,773.856079,544.397644,775.019531,544.378906L776.871094,544.378906L777.941406,545.246094M806.457031,488.644531L801.574219,491.121094L796.503906,495.742188L795.183594,498.441406L793.859375,501.144531L792.992188,506.671875L793.363281,509.402344L793.734375,512.136719C794.573242,513.963379,795.388184,515.744629,796.222656,517.574219L800.671875,522.023438L803.191406,523.300781C804.596069,524.012268,806.061523,524.596497,807.570313,525.046875L809.429688,525.515625C811.746155,525.393555,814.44104,525.248535,816.757813,525.121094L822.976563,522.058594L825.457031,519.34375L827.9375,516.632813L828.941406,513.949219C829.550232,512.29126,829.993713,510.577209,830.265625,508.832031L830.589844,506.398438L829.984375,503.46875L829.378906,500.535156L826.957031,495.738281L822.507813,491.289063C820.608521,490.397217,818.760132,489.531982,816.859375,488.644531L806.457031,488.644531M892.164063,488.644531L886.390625,491.566406L881.101563,497.277344L878.789063,503.011719L878.929688,525.054688C878.96521,532.200439,879.05481,539.323547,879.199219,546.46875L879.265625,548.324219C879.369629,549.360107,879.552734,550.386353,879.8125,551.394531C879.893311,551.67157,880.011719,551.936096,880.160156,552.183594C880.385925,552.746155,880.57019,553.324463,880.710938,553.914063L881.035156,555.277344C881.236877,555.257019,881.440552,555.260254,881.640625,555.292969L881.710938,555.316406L881.816406,555.375L881.898438,555.457031L881.960938,555.558594C881.995544,555.65802,882.012085,555.762268,882.019531,555.867188C882.077148,556.03479,882.151794,556.196167,882.25,556.34375C882.708252,557.019226,883.221497,557.655701,883.785156,558.246094C884.575623,559.112915,885.427795,559.921387,886.335938,560.664063C886.594177,560.880249,886.882019,561.05835,887.191406,561.191406L887.292969,561.214844L887.398438,561.222656C887.45752,561.230347,887.515869,561.242065,887.574219,561.253906C887.66156,561.283325,887.742798,561.327515,887.816406,561.382813L887.878906,561.449219L887.925781,561.527344L887.949219,561.613281C887.952332,561.645935,887.956604,561.678467,887.960938,561.710938L887.988281,561.773438C888.016357,561.815186,888.046814,561.855164,888.078125,561.894531C888.341064,562.129639,888.635681,562.327148,888.957031,562.472656C889.78772,562.897766,890.682312,563.184204,891.605469,563.320313C891.73938,563.329712,891.873596,563.335266,892.007813,563.332031L892.90625,563.265625L892.90625,564.132813L894.515625,564.347656C896.041199,564.46344,897.573547,564.454163,899.097656,564.320313L902.074219,564.078125L904.054688,563.320313C905.128967,562.858948,906.160339,562.303345,907.136719,561.660156C907.638428,561.341736,908.129578,561.006775,908.609375,560.65625L911.183594,558.75C912.157104,557.338867,913.158569,555.884766,914.128906,554.472656L915.941406,549.085938L915.941406,503.011719L913.628906,497.277344L908.339844,491.566406L902.566406,488.644531L892.164063,488.644531M849.0625,488.644531L843.171875,491.535156L838.976563,495.734375C838.484741,496.649078,838.017151,497.576294,837.574219,498.515625C836.984314,499.809082,836.495728,501.146393,836.113281,502.515625L835.453125,504.992188L835.4375,584.296875L836.207031,587.246094L836.976563,590.191406C837.569092,591.138,838.173035,592.076416,838.789063,593.007813C841.415588,596.858887,845.408203,599.567383,849.957031,600.585938L852.339844,601.132813L858.386719,600.78125L863.675781,598.804688L869.191406,593.757813L872.347656,587.726563L872.347656,502.019531C871.490356,500.183472,870.575073,498.232178,869.710938,496.398438C868.384277,494.953613,866.99292,493.444092,865.660156,492.003906L859.464844,488.644531L849.0625,488.644531M939.539063,488.46875L935.738281,488.644531L929.199219,491.863281C927.846436,493.328613,926.369873,494.930664,925.019531,496.398438L923.703125,499.207031L922.382813,502.019531L922.382813,587.230469L925.039063,592.894531C926.664795,594.634277,927.910889,595.96582,929.539063,597.703125C931.369873,598.633057,933.15918,599.539307,934.992188,600.464844C936.144653,600.636292,937.299561,600.788574,938.457031,600.921875C940.328918,601.114563,942.218872,601.029175,944.066406,600.671875C945.387695,600.417847,946.703247,600.133789,948.011719,599.820313L953.097656,596.5625C954.22229,595.285706,955.347046,594.00592,956.46875,592.726563C957.275879,591.005981,958.237793,588.951782,959.042969,587.230469L959.179688,545.875L959.320313,504.515625C958.637451,502.309326,958.008057,500.265259,957.332031,498.058594C956.075928,496.415771,954.855713,494.825928,953.59375,493.1875L948.769531,489.875L946.054688,489.085938L943.335938,488.296875L939.539063,488.46875"/>
</svg>
