<?xml version="1.0" encoding="UTF-8"?>
<svg xmlns="http://www.w3.org/2000/svg" width="461.072mm" height="488.477mm" viewBox="-1400.535645 -795.806213 461.072144 488.476807">
    <path transform="matrix(-0.527154,0,0,-0.527154,-924.408325,-289.812744)" style="stroke:#000000;stroke-width:0.05mm;fill:none" d="M193,958.001099C191.074997,956.950317,188.477142,954.832703,187.22699,953.295288C185.976822,951.757874,183.584549,948.831665,181.910828,946.792664C179.732071,944.138306,178.741898,941.723938,178.42485,938.292664C177.254257,925.623779,176.395264,922.933411,174.5,926C172.437881,929.336609,164.026428,924.932312,160.952194,918.906311C158.992447,915.06488,158.918594,914.231201,160.020599,908.390808C160.678894,904.902039,162.601532,899.224304,164.293121,895.773743L167.368759,889.5L167.556229,863.909668L167.743713,838.319336L171.346176,830.340698C176.382523,819.186279,178.326385,811.022522,177.461258,804.658508C176.768845,799.564941,173.158157,791.076233,170.30304,787.82959C168.994965,786.342102,169.062225,786.037048,170.917038,785.044373C172.062668,784.431274,173.677795,782.895203,174.506195,781.630859C175.85733,779.568787,175.840652,778.980408,174.344284,775.916077C173.426819,774.037231,171.112885,770.74353,169.202179,768.59668C166.01152,765.011719,159,751.580688,159,749.053711C159,748.356934,160.412354,748.202209,162.998016,748.615662L166.996048,749.255005L166.369858,741.847168C165.800049,735.106323,165.986374,733.960388,168.439453,729.119507C169.922119,726.193542,171.252594,722.607239,171.396057,721.149841C171.742416,717.630981,168.096878,707.489075,164.692337,702.5L161.962738,698.5L166.900909,698.2005L171.839081,697.901062L169.337234,689.2005C165.287781,675.11792,165.3181,676,168.883423,676C170.597534,676,172,675.853821,172,675.675171C172,675.49646,170.875,672.042664,169.5,668C168.125,663.957336,167,660.111511,167,659.453674C167,658.779236,169.105469,657.978333,171.827957,657.617188L176.655899,656.976746L178.343918,647.238403C179.272308,641.882263,180.024734,633.112488,180.015961,627.75C180.007187,622.387512,180.393417,618,180.874268,618C181.355118,618,183.657196,618.673401,185.989975,619.49646C190.210739,620.985657,190.228226,620.981995,189.576782,618.74646C187.709213,612.337585,187.720352,610.043152,189.62204,609.424011C196.755402,607.101379,197.142014,606.814392,195.532867,605.036316C193.197189,602.455444,193.41626,582.561829,195.878143,573.683533C196.911118,569.958313,198.026978,566.639709,198.357819,566.308838C198.68866,565.978027,200.784256,566.914978,203.014694,568.391052C205.245148,569.867065,207.504288,570.806335,208.035034,570.478333C208.565765,570.15033,209.032883,565.746033,209.073059,560.690979L209.146133,551.5L211.066635,556.910217C212.12291,559.885864,213.168777,562.502136,213.390778,562.724121C213.612778,562.946106,214.777374,560.174011,215.978745,556.563904C217.180115,552.953735,218.342224,550,218.561203,550C218.780182,550,219.869965,551.784973,220.982941,553.966553C222.095917,556.148193,223.854477,558.386902,224.890839,558.941589C226.559891,559.834839,226.90831,559.410278,227.940735,555.225037C230.932495,543.097168,230.975662,543,233.371872,543C236.858536,543,237.05307,542.208679,234.905762,536.760925C233.817276,533.99939,233.082504,531.584167,233.272949,531.393738C233.463394,531.203247,235.959717,531.936768,238.820328,533.023743C245.593475,535.59729,246,535.542114,246,532.049194C246,530.42627,246.423492,526.938782,246.941101,524.299194C247.458694,521.659668,248.433289,514.87323,249.106842,509.218262C250.321289,499.022186,250.358917,498.923523,253.621857,497.375153C256.377563,496.067474,257.162933,494.894562,258.4552,490.156891C259.303833,487.045593,260.619751,482.25,261.379456,479.5C262.13913,476.75,263.797821,470.490662,265.065399,465.590332L267.370087,456.680664L268.866455,459.840332C269.689484,461.578156,270.703003,463,271.118774,463C272.536316,463,277.983429,450.519287,279.948334,442.769165C284.292542,425.634644,284.558472,408.405731,280.971313,376.5C279.624908,364.524445,277.957977,357.182434,275.10022,350.640808C272.992767,345.81665,272.950531,345.786621,269.238739,346.472839C264.894836,347.275909,256.341644,352.470978,244.140411,361.717133C233.581741,369.718536,230.68367,371.005554,223.28212,370.980194C208.807922,370.930603,201.230118,368.56369,189.5,360.428406C186.75,358.521179,182.699997,356.456055,180.5,355.839264C175.663559,354.483307,160.299652,354.274078,149.928711,355.422943C142.537155,356.24173,140.105133,355.774078,136.562988,352.852783C135.978348,352.370636,133.785583,350.659271,131.69017,349.049805C129.594772,347.440308,121.602867,340.188293,113.930382,332.934174C94.164856,314.24646,91.849709,308.653015,94.96386,287.110596C96.291527,277.926331,95.039803,272.64917,90.408684,267.906494C88.310669,265.757935,86.032578,264,85.346275,264C84.659966,264,81.732765,263.492645,78.841377,262.872559C74.571884,261.956909,72.475891,260.688904,67.683937,256.122559C60.870171,249.629623,50.832954,236.137268,47.923481,229.559921C45.163471,223.320465,45.577522,220.619186,53.987221,190C55.663883,183.89537,55.863377,181.63826,55.059479,177.868256C53.519764,170.647476,49.597836,160.980347,44.927563,152.89418C28.155458,123.854752,27.097967,120.842209,29.549347,109.085335C30.353685,105.227699,32.110207,100.452835,33.452724,98.474525C37.251476,92.876755,40.795361,78.331268,45.506775,49C46.434402,43.224998,47.26236,38.447086,47.346684,38.382412C47.740818,38.080128,232.926514,36.972057,311,36.804829C359.125,36.701748,416.5,36.313427,438.5,35.941895C460.5,35.570362,559.950012,34.978508,659.5,34.626663C759.049988,34.274818,852.517761,33.734348,867.206116,33.425621C881.89447,33.11689,896.002686,33.177773,898.557678,33.560917L903.203064,34.257538L902.850891,46.186386C902.516052,57.527657,902.37561,58.21069,899.999329,60.053173C898.624695,61.119038,894.349976,62.895302,890.5,64.000427C864.086304,71.582352,858.85144,72.925728,853.5,73.495338C843.222046,74.589348,840.500366,75.667023,837.697815,79.752365C833.468384,85.91777,828.784241,100.225945,825.032043,118.441536C823.926147,123.81028,820.854492,132.046921,818.774353,135.221588C817.855713,136.623688,814.969482,138.963882,812.360657,140.421997C808.072083,142.818924,806.77179,143.045639,798.799622,142.78656C790.069824,142.502853,789.957581,142.529892,787.52948,145.5C783.670288,150.220596,778.374146,161.833023,776.536377,169.603546C774.392944,178.66655,772.183411,182.23613,766.812683,185.312714C763.46637,187.229599,735.897827,197.702087,729.274719,199.572266C728.423706,199.812576,729.601868,204.339874,733.13208,214.395233L738.214722,228.872223L736.016113,235.686111C734.806885,239.433746,730.722717,249.274765,726.940186,257.555023C722.743408,266.742035,718.893372,277.070953,717.062378,284.055023C713.723938,296.789063,706.979065,340.372192,706.991821,349.127869C707.006836,359.475555,705.999207,360.660034,683.854614,376.325287C678.129089,380.375519,676.646301,382.108276,673.142639,388.842743C668.898071,397.001343,662.463562,414.796875,663.414368,415.747681C664.369629,416.702972,671.604431,411.081818,678.023865,404.396637C683.906067,398.270935,684.391479,397.982819,687.763916,398.615479C691.182129,399.256744,691.565186,399.00824,698.130493,391.890686L704.947754,384.5L706.810791,386.859558L708.673889,389.219147L716.086975,380.647675L723.5,372.076233L727.068359,376.170532C731.200439,380.911621,731.281921,380.895172,741.353516,373.283417L747.20697,368.859558L746.509644,373.929779C746.126099,376.718414,746.087708,379,746.424316,379C746.760925,379,751.519958,376.75,757,374C762.480042,371.25,767.188232,369,767.462708,369C767.737183,369,767.684204,371.024994,767.344971,373.5C767.005737,375.975006,766.994141,378,767.319214,378C767.644287,378,772.000671,376.200012,777,374C787.044922,369.579651,789.27594,369.11731,788.300964,371.658051C787.632202,373.400879,787.181519,373.416229,798.012512,371.327301C800.190308,370.907257,800.825195,371.460541,802.778137,375.480286L805.03125,380.117859L809.493347,379.44873L813.955444,378.779602L813.727722,384.132141L813.5,389.484711L822.182129,390.49234C826.957275,391.04657,831.125671,391.768402,831.445251,392.096466C831.764771,392.4245,831.363525,394.278992,830.553589,396.21756L829.080872,399.742188L836.558044,400.222046C840.670471,400.485962,844.292297,400.958954,844.606506,401.273163C844.920715,401.587372,844.000916,403.566956,842.562561,405.672241L839.947327,409.5L843.723633,411.223785C845.800659,412.171844,847.999817,412.959351,848.610718,412.973785C849.221619,412.98819,849.99762,415.332001,850.335205,418.182251C850.789978,422.022064,852.121216,425.127472,855.474487,430.170258C857.963501,433.913422,860,437.399994,860,437.918152C860,438.43634,856.512512,437.603638,852.25,436.067719C841.113953,432.054993,839,431.642303,839,433.480957C839,435.756805,832.389648,435.382172,827,432.800842C820.249634,429.567841,800.556458,429.055054,789.5,431.824371C782.252625,433.639648,777.567322,434.342133,765.5,435.422882C758.220215,436.07486,748.553101,438.266937,744.887451,440.096924C740.502319,442.286102,732.220764,451.272217,731.334656,454.802704C730.804016,456.916931,731.332031,457.901642,734.358765,460.44278L738.025818,463.521393L732.970642,465.316833C724.867188,468.194916,713.415771,478.141846,706.84668,488.008667C692.521423,509.525146,675.900879,535.391541,670.547852,544.5C665.984436,552.264893,662.445923,556.66803,654.71637,564.19989C646.13855,572.558289,643.222534,574.683838,633.63092,579.569397C627.508911,582.687683,615.533203,587.635071,607.01825,590.563538L591.536438,595.888062L578.01825,608.219727C566.373718,618.842163,563.529785,620.921997,557.5,623.224915C548.440063,626.685181,536.047424,629.457031,518,632.059753C509.845856,633.235718,499.99884,635.370361,495.5,636.937317C491.100006,638.469849,485.841766,640.025757,483.815033,640.394958C477.724335,641.504456,469.226593,648.71405,459.258514,661.229126C447.999634,675.364807,438.224945,683.763794,425.427155,690.299011C420.253448,692.940918,419.554352,694.477966,422.61441,696.483032C424.625854,697.800964,424.942535,698.41748,423.929626,699.043518C423.195862,699.497009,422.245087,699.651489,421.816803,699.38678C420.317596,698.460205,395.494263,701.19342,394,702.449585C393.174988,703.143127,390.166016,704.529297,387.313354,705.530029C381.841858,707.449463,382.188965,707.005798,376.726471,719.061646L374.206482,724.623291L377.103241,724.198181C379.457611,723.8526,380,724.139709,380,725.731506C380,728.677124,377.505585,730.428528,364.722198,736.458252C356.138275,740.507202,353.197571,742.351257,353.610168,743.426453C354.008942,744.465698,352.098816,745.932251,347.006622,748.496643C341.033783,751.504517,340.041779,752.345398,341.042999,753.551819C342.044067,754.757996,341.266388,755.421448,336.372009,757.536743C320.259796,764.500183,315.953156,767.977295,313.145508,776.289307C311.965485,779.782715,311,784.506042,311,786.785522L311,790.930054L321.25,791.215027C331.456757,791.498779,331.501282,791.510925,331.801636,794.096802C332.040161,796.150146,330.338623,798.661377,323.670715,806.096802C319.032806,811.268555,310.697388,819.549988,305.147491,824.5C293.211548,835.145813,288.279907,842.289551,278.955841,862.439941C272.196625,877.047363,266.021271,885.419006,259.604248,888.674011C253.203384,891.920776,243.114899,899.130432,239.730362,902.876709C234.94693,908.171387,227.508072,919.412964,220.45871,932C212.395538,946.397217,208.681763,952.134705,204.677979,956.379944C200.79184,960.500488,198.230225,960.856079,193,958.001099z"/>
    <path transform="matrix(-0.527154,0,0,-0.527154,-924.408325,-289.812744)" style="stroke:#000000;stroke-width:0.05mm;fill:none" d="M328.15686,472.914642C330.301239,468.960419,333.979034,459.98291,335.086212,456C335.774231,453.524994,336.621185,451.162628,336.968323,450.750244C337.31546,450.337891,338.640259,453.487915,339.912323,457.750244C342.414856,466.135468,342.042908,466.180328,345.817383,457.038239L347.659485,452.576477L350.329742,458.409088C351.79837,461.617004,353,464.637299,353,465.12085C353,465.60437,353.383972,466,353.853241,466C354.32254,466,354.997498,460.9375,355.353149,454.75C357.146149,423.558228,358.13208,404.249756,359.093567,381.5C359.674652,367.75,360.384216,353.891205,360.670349,350.702698C361.113831,345.76062,360.79068,344.11499,358.479736,339.547485C356.98877,336.600647,353.797272,332.254608,351.387512,329.889587L347.006134,325.5896L332.300629,328.908813C324.212616,330.734375,315.409607,332.877075,312.738403,333.670319L307.881683,335.11261L309.883148,338.306305C316.031219,348.116577,316.236053,349.089752,317.080658,372.5C317.517212,384.600006,318.121429,397.649994,318.42337,401.5C319.359497,413.436432,321.886536,437.13501,323.06189,445C323.678314,449.125,324.029083,457.992859,323.841339,464.70636C323.508484,476.609283,323.54834,476.880615,325.444855,475.621002C326.514526,474.910553,327.734924,473.692688,328.15686,472.914642z"/>
    <path transform="matrix(-0.527154,0,0,-0.527154,-924.408325,-289.812744)" style="stroke:#000000;stroke-width:0.05mm;fill:none" d="M463.180054,454.669006C470.511871,445.88739,474.366669,437.007202,477.79541,421C481.261017,404.820801,489.577271,375.034027,491.336304,372.5C492.481659,370.850006,496.707031,365.389282,500.726013,360.365051C507.917847,351.374359,512.150696,347.646912,545.011658,321.367065C560.904175,308.657349,561.184753,308.031158,561.047302,285.57428C560.927429,265.982422,560.483154,264.664551,554.961487,267.519928C543.790161,273.296844,529.466492,274.809113,522,271C518.66449,269.29834,516.106262,269,504.849945,269L491.620239,269L485.00119,272.999298C481.360687,275.198883,475.985931,279.043915,473.057281,281.543793C454.382233,297.484528,451.135925,298.895721,430.5,300.043823C414.240814,300.948425,406.808167,302.405609,397.200562,306.572327C391.581268,309.009338,391,309.541809,391,312.25238C391,313.8974,393.484467,321.125885,396.521027,328.315674C403.10022,343.893433,404.623383,351.821564,403.37674,364C401.990814,377.539185,402.323608,433.716003,403.878784,448.75C404.632629,456.037506,405.417267,462,405.622406,462C406.150452,462,415.597137,455.252899,421.342285,450.77243C424.005554,448.695404,426.575623,447.237732,427.053558,447.533112C427.531494,447.828491,428.220123,449.656372,428.583801,451.595032C429.347534,455.666077,429.095428,455.71402,438.930908,449.627228C443.017914,447.0979,446.535675,445.202332,446.748138,445.414825C446.960632,445.627289,445.971619,448.095886,444.550385,450.900574C443.12915,453.705261,442.186066,456,442.454651,456C442.723236,456,445.395966,454.915161,448.394073,453.589264C451.392181,452.263367,454.044067,451.377411,454.28714,451.620483C454.530212,451.863556,453.661255,455.004303,452.35611,458.599945L449.983124,465.137451L454.14743,462.818726C456.437805,461.543427,460.502502,457.876068,463.180054,454.669006z"/>
    <path transform="matrix(-0.527154,0,0,-0.527154,-924.408325,-289.812744)" style="stroke:#000000;stroke-width:0.05mm;fill:none" d="M615.036011,357.884003C629.041199,349.570221,641.811829,342.032715,643.415222,341.134003C652.646484,335.959747,656.726013,329.473511,663.97937,308.438019C666.17926,302.057953,668.913696,295.525543,670.055847,293.9216C671.197937,292.317627,673.840149,286.841583,675.927368,281.752625C678.014526,276.663696,681.102417,269.350006,682.789246,265.5C689.029053,251.258331,693,239.023743,693,234.040222C693,229.122574,688.777832,216.362274,685.490723,211.345459C683.730896,208.659653,683.537231,208.658386,667.5,211.226944C660.69812,212.316345,660.31604,212.536011,654,218.988434C641.354187,231.907318,638.206482,233.099808,611.932495,234.925476C605.278259,235.387848,599.476074,236.156265,599.038757,236.633072C597.929504,237.842514,600.497864,273.83432,602.364929,283.244476C604.023499,291.603882,607.284363,300,608.872314,300C609.414001,300,610.56427,299.292847,611.428589,298.428558C613.519043,296.338074,613.462708,297.531586,611,307.5C609.912964,311.899994,609.018311,315.836212,609.01178,316.247131C609.00531,316.658051,610.407104,317.56842,612.126892,318.270172L615.253723,319.546051L603.87854,324.023041C588.620422,330.028229,588.225952,330.700684,587.337952,352.22171C586.727173,367.023682,587.149109,373,588.805054,373C589.226868,373,601.030762,366.197815,615.036011,357.884003z"/>
</svg>
