<?xml version="1.0" encoding="UTF-8"?>
<svg xmlns="http://www.w3.org/2000/svg" width="484.881mm" height="305.540mm" viewBox="-991.875244 -597.615234 484.880707 305.539581">
    <path transform="matrix(-2.273296,0,0,-2.273296,-394.13089,-205.163391)" style="stroke:#000000;stroke-width:0.05mm;fill:none" d="M170.387192,172.066971C159.739456,170.369476,147.597763,165.273453,140.5,159.522964C138.300003,157.74057,134.230728,155.133392,131.457153,153.729248C126.300697,151.118744,121.588799,147.517822,108.137558,135.907974L100.5,129.315964L96,123.004089C89.271912,113.567024,85.939491,109.928612,81.357391,107.01693C79.078949,105.569107,72.509521,99.405708,66.758659,93.320473L56.302544,82.256424L54.126312,77.760925C52.929382,75.288399,51.432018,70.795547,50.798828,67.77681L49.647579,62.288197L51.573792,59.002346L53.5,55.716496L58.890854,52.962978L64.281708,50.209461L67.390854,44.416183C69.100883,41.229881,71.031235,38.455673,71.680519,38.251282C72.329803,38.046886,74.628464,39.476425,76.788658,41.428028L80.716286,44.976402L83.407013,50.972141C86.628777,58.151188,88.958809,68.526505,88.982635,75.79966L89,81.099319L90.514648,84.02832C92.184578,87.257614,100.885239,94.247299,105.343758,95.941315L108.187523,97.021797L113.275261,95.510895L118.362999,94L125.521538,94L132.680069,94L140.590042,96.099503C144.940521,97.254227,150.446518,98.647926,152.825592,99.196609L157.151199,100.194214L160.675476,99.533058L164.199768,98.871895L163.477402,96.685951C163.080093,95.483681,162.543381,90.895035,162.284714,86.488976L161.814392,78.477943L163.721207,76.752304L165.628021,75.026665L172.303497,77.606491L178.978989,80.18631L181.464828,83.140579C183.708755,85.807327,187,94.423645,187,97.631371C187,101.191849,197.989975,113,201.303757,113C203.180389,113,201.51738,109.759666,196.979156,104.57357C189.307831,95.807129,187.314896,89.834969,190.960007,86.536194L192.920013,84.762413L196.474747,85.429283L200.029495,86.096161L203.26474,89.333931C205.044128,91.1147,208.688004,95.775734,211.362228,99.691772L216.224472,106.811852L216.739227,111.378845L217.253998,115.945839L219.1427,116.545288L221.031403,117.144745L224.515701,115.99482L228,114.844894L228,113.109543C228,111.070282,232.608414,106.492729,235.55246,105.607651L237.604919,104.990623L239.55246,106.463509C240.623611,107.273598,242.088013,107.950706,242.806702,107.968193L244.113403,108L242.556702,105.777496C240.247116,102.480095,240.734329,101.108528,243.18811,104L245.309677,106.5L244.748718,104.250999C243.927277,100.957634,245.669449,100.508354,246.745361,103.736092L247.661545,106.484642L248.349823,103.742317C248.728378,102.234047,249.52832,101,250.127457,101L251.216812,101L250.589355,103.5C249.85582,106.422653,250.692719,106.718925,252.707886,104.25L254.136261,102.5L253.552795,105.5L252.96933,108.5L254.474335,106.572998C256.437836,104.058929,257.512512,105.173836,255.946396,108.100174L254.730743,110.371635L257.115356,112.486374C258.42691,113.649475,260.274384,115.975586,261.220856,117.655495L262.941711,120.709892L262.524292,124.008049L262.106873,127.306213L258.799774,130.903107C256.980865,132.881393,254.396622,136.680206,253.057022,139.34491L250.621368,144.189819L246.560684,147.57637C244.327316,149.438965,240.327682,152.77771,237.672623,154.995789C232.157074,159.603577,228.774094,161.557449,221,164.625229C217.975006,165.818939,212.574997,168.031052,209,169.541031L202.5,172.286453L189,172.584274C181.574997,172.748062,173.199234,172.515289,170.387192,172.066971z"/>
</svg>
