<?xml version="1.0" encoding="UTF-8"?>
<svg xmlns="http://www.w3.org/2000/svg" width="219.109mm" height="411.191mm" viewBox="-789.371094 -919.718750 219.109375 411.191010">
    <path transform="matrix(-1,0,0,-1,0,0)" style="stroke:#000000;stroke-width:0.05mm;fill:none" d="M701.675781,508.542969L701.921875,508.582031C702.087463,508.615234,702.250488,508.659821,702.410156,508.714844L702.644531,508.8125L703.445313,509.265625C703.981812,509.550598,704.533325,509.806335,705.097656,510.03125L705.945313,510.34375L706.808594,510.609375L707.683594,510.828125C708.269592,510.954712,708.86145,511.052612,709.457031,511.121094L710.351563,511.195313C711.25177,511.242523,712.154297,511.218964,713.050781,511.125L713.949219,511.003906C714.547974,510.904144,715.141113,510.77359,715.726563,510.613281L716.605469,510.34375C717.144958,510.799408,717.705444,511.229584,718.285156,511.632813C719.718567,512.643982,721.254211,513.501892,722.867188,514.191406C724.475891,514.881409,726.151367,515.403748,727.867188,515.75C729.249756,516.027466,730.653015,516.189636,732.0625,516.234375C734.528259,521.290894,739.453064,524.695068,745.054688,525.214844L745.625,526.304688L746.242188,527.367188L746.902344,528.398438L747.605469,529.394531L748.347656,530.359375L749.132813,531.289063C749.670166,531.896118,750.231812,532.481323,750.816406,533.042969C751.404724,533.599121,752.014771,534.131897,752.644531,534.640625C753.280273,535.145508,753.93573,535.625061,754.609375,536.078125L755.640625,536.734375L756.699219,537.34375L757.789063,537.910156L758.90625,538.429688C758.882874,539.036316,758.885132,539.643616,758.914063,540.25C758.981506,541.464172,759.158508,542.6698,759.445313,543.851563C759.591248,544.440979,759.763062,545.023621,759.960938,545.597656C760.268616,546.257629,760.602356,546.905273,760.960938,547.539063C761.683838,548.800293,762.515198,549.996094,763.445313,551.113281C763.914063,551.669617,764.404114,552.207703,764.914063,552.726563C764.074951,558.198608,764.544739,563.791565,766.285156,569.046875C765.541016,569.942444,764.932617,570.942627,764.480469,572.015625L764.175781,572.816406L763.933594,573.636719L763.746094,574.46875L763.621094,575.3125L763.558594,576.164063L763.554688,577.015625L763.613281,577.871094L763.734375,578.71875C763.937866,579.866333,764.31073,580.977173,764.839844,582.015625C763.656677,583.677429,762.437805,585.312988,761.183594,586.921875C760.81543,589.428772,760.558716,591.950806,760.414063,594.480469C757.571655,596.183655,755.251953,598.634949,753.707031,601.566406C753.81134,601.959351,753.870361,602.363037,753.878906,602.769531C753.884155,603.298279,753.805481,603.824463,753.644531,604.328125C753.482727,604.827148,753.24115,605.296631,752.929688,605.71875C752.532288,606.262695,752.021057,606.713196,751.433594,607.042969L750.8125,607.167969L750.207031,607.339844C749.814941,607.470154,749.433472,607.630554,749.066406,607.820313C748.70697,608.014099,748.360779,608.231506,748.03125,608.472656C747.707153,608.718018,747.401672,608.987,747.117188,609.277344C746.835022,609.570007,746.574707,609.882996,746.339844,610.214844C746.108276,610.551331,745.90094,610.903931,745.71875,611.269531L745.472656,611.835938L745.269531,612.425781L745.117188,613.035156L745.011719,613.660156C744.354736,613.921204,743.6875,614.155579,743.011719,614.363281L741.996094,614.648438C740.630188,614.998047,739.237244,615.231934,737.832031,615.347656L736.777344,615.410156C736.391785,616.324341,735.682495,617.06488,734.785156,617.488281C734.3479,617.697632,733.876892,617.826538,733.394531,617.875C733.025391,617.90741,732.653564,617.891052,732.289063,617.824219L731.917969,617.738281L731.496094,617.355469L731.046875,617.023438C730.742126,616.820618,730.419006,616.646912,730.082031,616.503906L729.574219,616.316406L729.054688,616.175781L728.523438,616.085938C728.168457,616.042053,727.810242,616.030823,727.453125,616.050781L726.917969,616.105469C726.560547,616.160889,726.208862,616.248535,725.867188,616.367188L725.359375,616.570313C725.024963,616.727295,724.705261,616.913635,724.402344,617.125C724.198975,617.276672,724.002563,617.437378,723.8125,617.605469C723.712219,617.680908,723.606262,617.748474,723.496094,617.808594C723.332458,617.895447,723.158386,617.959961,722.980469,618.011719L722.621094,618.070313L722.253906,618.074219L721.890625,618.015625C721.645264,617.95575,721.411804,617.855103,721.199219,617.71875C721.02533,617.230774,720.76886,616.776428,720.441406,616.375C720.045166,615.88208,719.55072,615.476685,718.988281,615.1875C718.424438,614.890381,717.804138,614.714661,717.167969,614.675781C716.906433,614.65625,716.643738,614.661377,716.382813,614.6875C716.2724,614.806763,716.145447,614.909546,716.007813,614.996094L715.808594,615.125C714.979797,615.612732,713.97522,615.703247,713.074219,615.367188L712.847656,615.273438C712.798035,614.724548,712.707764,614.180176,712.578125,613.644531L712.351563,612.863281L712.070313,612.101563L711.734375,611.367188L711.347656,610.660156L710.910156,609.988281L710.425781,609.347656L709.894531,608.746094L709.324219,608.183594L708.710938,607.660156L708.058594,607.1875L707.367188,606.757813L706.644531,606.378906C706.148193,606.141296,705.633545,605.943909,705.105469,605.789063C703.748596,602.463562,702.22052,599.21051,700.527344,596.042969C700.33136,591.174011,700.330078,586.298706,700.523438,581.429688L700.699219,580.457031L700.921875,579.5L701.191406,578.558594C701.387268,577.938232,701.614197,577.328125,701.871094,576.730469C702.255676,575.840088,702.706177,574.979614,703.21875,574.15625L703.75,573.347656C704.119751,572.817505,704.516296,572.306641,704.9375,571.816406L705.589844,571.09375C706.040955,570.623657,706.514221,570.175293,707.007813,569.75C707.507141,569.322205,708.027161,568.919189,708.566406,568.542969L709.882813,568.203125L711.207031,567.917969L712.539063,567.6875L713.882813,567.511719L715.230469,567.394531L716.582031,567.332031L717.9375,567.328125L719.296875,567.378906C721.951782,568.501282,724.738342,569.282227,727.589844,569.703125L728.179688,570.085938L728.742188,570.507813C729.101013,570.799011,729.440735,571.112854,729.761719,571.445313C730.55188,572.273132,731.204285,573.22229,731.691406,574.257813C731.887329,574.670715,732.056091,575.095947,732.195313,575.53125C732.332397,575.971191,732.444153,576.41864,732.53125,576.871094C732.614136,577.328125,732.667847,577.789978,732.691406,578.253906L732.707031,578.960938C732.6474,579.30304,732.522217,579.63031,732.339844,579.925781C732.163452,580.212402,731.937256,580.464966,731.671875,580.671875C731.541199,580.774475,731.399475,580.86145,731.253906,580.941406L731.023438,581.050781C730.621948,581.211914,730.189392,581.279968,729.757813,581.25C727.521912,579.435547,725.080688,577.889771,722.484375,576.644531L721.851563,576.519531L721.21875,576.449219L720.585938,576.4375L719.964844,576.480469L719.351563,576.578125L718.753906,576.726563L718.171875,576.925781L717.609375,577.175781L717.070313,577.46875L716.558594,577.8125L716.078125,578.195313L715.628906,578.625L715.21875,579.09375L714.84375,579.601563L714.515625,580.148438L714.230469,580.726563L714.203125,581.488281L714.230469,582.238281L714.3125,582.980469L714.445313,583.707031C714.554565,584.185913,714.695923,584.65686,714.867188,585.117188L715.152344,585.792969L715.484375,586.449219L715.863281,587.078125L716.285156,587.675781L716.75,588.246094L717.257813,588.785156L717.804688,589.285156L718.390625,589.746094L719.011719,590.167969C719.385742,590.376404,719.756775,590.590027,720.125,590.808594C722.432983,592.070618,725.123535,592.443115,727.6875,591.855469C731.212952,591.582458,734.567993,590.226074,737.292969,587.972656C739.075745,586.495605,740.541992,584.673706,741.605469,582.617188C742.365173,581.137756,742.906921,579.556213,743.214844,577.921875C742.280762,574.455566,741.520691,570.944641,740.9375,567.402344C738.028992,563.909241,736.20166,559.644287,735.679688,555.128906L735.058594,554.675781C733.575806,553.668274,731.912537,552.956238,730.160156,552.578125C729.419006,550.603882,728.009277,548.951965,726.175781,547.910156C724.721008,548.074829,723.247742,547.879456,721.886719,547.339844C720.524536,546.799561,719.315979,545.933228,718.367188,544.816406C716.303528,544.977051,714.246155,545.211609,712.199219,545.519531C710.046692,543.919189,707.292786,543.362061,704.6875,544L704.171875,544.144531C703.931458,544.49707,703.663391,544.829834,703.371094,545.140625L702.917969,545.574219L702.433594,545.964844L701.917969,546.308594L701.378906,546.609375L700.820313,546.859375L700.242188,547.066406L699.644531,547.21875L699.039063,547.324219C698.631104,547.376282,698.219666,547.396057,697.808594,547.382813L697.1875,547.332031L696.566406,547.226563L695.953125,547.0625L695.347656,546.847656C693.173645,548.141357,691.131409,549.644714,689.25,551.335938C687.714233,551.504456,686.248718,552.070679,685,552.980469L684.40625,553.445313L683.855469,553.960938L683.351563,554.515625L682.890625,555.113281C682.000488,556.376526,681.453064,557.848877,681.300781,559.386719C679.93634,561.545776,677.595276,562.89325,675.042969,562.988281L674.714844,563.859375L674.441406,564.746094L674.230469,565.648438L674.078125,566.558594L673.984375,567.476563L673.949219,568.402344L673.976563,569.328125L674.0625,570.253906C673.088318,572.060852,671.490234,573.451843,669.566406,574.167969C668.949341,576.997253,668.673828,579.890259,668.746094,582.785156C667.295105,583.406067,666.226807,584.681091,665.871094,586.21875C665.788147,586.572266,665.744263,586.933777,665.742188,587.296875C667.135498,589.665161,667.394226,592.533142,666.449219,595.113281L666.121094,595.117188C665.591003,595.146912,665.073914,595.292969,664.605469,595.542969C663.656677,596.040344,662.968384,596.923096,662.71875,597.964844C663.426636,601.252075,663.4599,604.648743,662.816406,607.949219C662.603577,609.048523,662.314941,610.131775,661.953125,611.191406C663.557983,616.959839,663.809509,623.020935,662.6875,628.902344C665.86792,634.02063,667.813843,639.808533,668.371094,645.808594C669.833984,651.454407,674.671082,655.58252,680.476563,656.140625L681.894531,657.0625L683.273438,658.035156L684.621094,659.054688L685.933594,660.113281L687.207031,661.222656L688.445313,662.371094L689.644531,663.5625L690.800781,664.792969C695.029907,666.26947,699.19873,667.914063,703.296875,669.722656C704.287781,671.646606,704.341309,673.918579,703.441406,675.886719C703.802856,677.88147,704.274841,679.854614,704.855469,681.796875C705.150879,682.764099,705.470215,683.72406,705.8125,684.675781C706.161255,685.628662,706.536621,686.571838,706.9375,687.503906C707.702026,687.694336,708.413574,688.055054,709.019531,688.558594C709.620728,689.049377,710.105652,689.66748,710.441406,690.367188C710.670776,690.841003,710.827698,691.34668,710.90625,691.867188L710.652344,692.679688C710.502197,693.22052,710.377197,693.767944,710.277344,694.320313C709.98584,695.970337,709.948975,697.655212,710.167969,699.316406C710.309692,700.423401,710.566528,701.512512,710.933594,702.566406C711.113892,703.099121,711.325317,703.620789,711.566406,704.128906L711.941406,704.890625L712.054688,706.277344L712.226563,707.660156L712.449219,709.035156L712.726563,710.398438L713.058594,711.75L713.441406,713.085938L713.878906,714.40625L714.371094,715.710938L714.941406,715.78125L715.503906,715.90625L716.042969,716.085938L716.566406,716.316406L717.0625,716.597656L717.527344,716.929688L717.957031,717.308594L718.351563,717.730469C717.364014,722.883484,715.654297,727.871399,713.273438,732.546875C712.213989,736.503784,712.248352,740.673828,713.371094,744.613281C713.611755,744.627441,713.850525,744.662903,714.085938,744.714844C714.314636,744.772339,714.539246,744.845093,714.757813,744.933594L715.074219,745.085938L715.375,745.261719C715.770325,745.510437,716.117371,745.828308,716.40625,746.195313L716.609375,746.476563C716.800415,746.774048,716.957092,747.092224,717.074219,747.425781C717.147827,747.656189,717.208252,747.890625,717.25,748.128906L715.871094,750.90625L714.554688,753.707031L713.289063,756.535156L712.085938,759.386719L710.9375,762.261719L709.847656,765.160156C709.141174,767.101135,708.472961,769.05603,707.84375,771.023438C708.073547,771.309387,708.267456,771.622192,708.425781,771.953125C708.527954,772.16925,708.615784,772.391907,708.683594,772.621094C708.744324,772.850342,708.794983,773.082153,708.832031,773.316406L708.871094,773.671875C708.911194,774.389526,708.792786,775.107056,708.523438,775.773438C708.427368,775.998718,708.314636,776.216492,708.1875,776.425781C703.183228,781.493286,699.174133,787.454529,696.367188,794C696.509094,794.22467,696.645508,794.45282,696.777344,794.683594C697.152466,795.388428,697.417236,796.147095,697.554688,796.933594L696.773438,797.453125L695.96875,797.925781C695.425537,798.227295,694.866028,798.498413,694.292969,798.738281C693.718933,798.974182,693.133789,799.181946,692.539063,799.359375L691.636719,799.597656L690.71875,799.785156C685.296021,803.264832,680.636902,807.810059,677.023438,813.144531C673.183472,816.797791,670.156494,821.219238,668.140625,826.121094C665.273621,828.217102,663.160706,831.183411,662.117188,834.578125C660.926514,838.422791,661.182983,842.570313,662.839844,846.238281C663.289307,846.367859,663.751709,846.446594,664.21875,846.472656L664.679688,846.472656L665.132813,846.433594C665.431091,846.395508,665.726135,846.335449,666.015625,846.253906L666.445313,846.109375L666.859375,845.929688C667.12854,845.79657,667.38739,845.643921,667.636719,845.476563C667.884827,845.301208,668.120056,845.108276,668.339844,844.898438L668.660156,844.5625C668.859924,844.321106,669.044983,844.067932,669.214844,843.804688C674.407288,840.026917,679.031372,835.524231,682.945313,830.433594C683.941406,829.648804,684.864685,828.775635,685.703125,827.824219C686.545654,826.876038,687.299683,825.852722,687.953125,824.765625C689.132141,824.563904,690.244141,824.078003,691.191406,823.347656C692.138489,822.617798,692.891174,821.666321,693.386719,820.578125C693.599426,820.666626,693.815063,820.748169,694.035156,820.816406C694.36438,820.912354,694.70166,820.978516,695.042969,821.011719C695.380554,821.044983,695.720459,821.046448,696.058594,821.019531C696.855652,820.951843,697.627625,820.709656,698.324219,820.316406L698.621094,820.132813L698.824219,819.660156C698.976929,819.355164,699.157104,819.064697,699.363281,818.792969C699.574768,818.528503,699.806519,818.280823,700.058594,818.054688L700.457031,817.734375C700.739563,817.539917,701.037048,817.368103,701.347656,817.222656C702.611267,818.087219,703.731445,819.144287,704.667969,820.355469L705.054688,820.886719C705.265198,820.387573,705.53302,819.914734,705.851563,819.476563C706.064941,819.185791,706.301025,818.912598,706.554688,818.65625C706.937866,818.272827,707.363953,817.934875,707.824219,817.648438C708.20343,817.968018,708.615479,818.246338,709.054688,818.476563C709.341675,818.629822,709.641235,818.758301,709.949219,818.863281C710.86969,819.17981,711.848755,819.288635,712.816406,819.183594L713.296875,819.117188L713.773438,819.011719C714.252441,818.884033,714.716003,818.704468,715.15625,818.476563C717.811218,818.844177,720.505066,818.831421,723.15625,818.4375C725.108643,818.143433,727.025146,817.647095,728.875,816.957031C734.177856,814.971924,738.758911,811.433838,742.019531,806.804688L742.589844,805.960938C751.310791,797.016541,759.174561,787.274719,766.078125,776.863281C766.145447,776.39093,766.249878,775.924622,766.390625,775.46875L766.636719,774.8125L766.933594,774.183594L767.285156,773.585938C767.538025,773.205017,767.818237,772.842957,768.125,772.503906L768.613281,772.023438L769.140625,771.582031L769.699219,771.191406L770.296875,770.847656L770.921875,770.554688L771.574219,770.316406C772.024658,770.177673,772.485718,770.076172,772.953125,770.015625C773.191895,769.987305,773.431702,769.968262,773.671875,769.957031C777.345886,769.713501,780.958069,769.484253,784.632813,769.261719L784.929688,769.480469L785.183594,769.738281L785.386719,770.03125L785.542969,770.351563L785.644531,770.691406L785.695313,771.042969L785.683594,771.40625L785.613281,771.769531C784.55365,772.752014,783.52832,773.770874,782.539063,774.824219L782.703125,775.121094L782.914063,775.378906L783.160156,775.589844L783.4375,775.757813L783.742188,775.875L784.0625,775.941406L784.394531,775.957031L784.730469,775.910156C784.873474,775.830322,785.02063,775.75824,785.171875,775.695313L785.398438,775.613281L785.628906,775.546875L785.863281,775.492188C786.178223,775.440002,786.497864,775.424683,786.816406,775.445313C786.97522,775.459595,787.132629,775.485046,787.289063,775.515625C787.445923,775.553223,787.601746,775.594788,787.753906,775.648438L787.976563,775.738281C788.126831,775.804993,788.271362,775.883301,788.414063,775.964844C788.666626,776.274292,788.879089,776.614075,789.046875,776.976563C789.146118,777.214111,789.223877,777.459961,789.28125,777.710938C789.330383,777.960938,789.360413,778.214233,789.371094,778.46875C789.374939,778.723755,789.354187,778.978271,789.316406,779.230469C789.245667,779.607727,789.125793,779.973755,788.960938,780.320313L788.773438,780.660156L788.550781,780.984375L788.292969,781.289063L788.003906,781.570313C774.236084,790.402344,762.800049,802.422974,754.664063,816.613281L753.515625,818.214844L752.417969,819.847656L751.363281,821.507813L750.363281,823.195313L749.40625,824.914063L748.503906,826.660156L747.648438,828.433594L746.84375,830.230469C747.154419,830.780823,747.403015,831.363892,747.585938,831.96875C747.996704,833.320984,748.069641,834.753174,747.800781,836.140625C747.713806,836.606384,747.589233,837.064514,747.421875,837.507813C746.918701,838.280579,746.487915,839.098145,746.132813,839.949219C745.595947,841.211426,745.230652,842.539734,745.042969,843.898438C744.851318,845.264587,744.839172,846.649841,745.003906,848.019531C744.716797,850.214478,745.187134,852.4422,746.339844,854.332031C746.502563,854.601929,746.680298,854.862488,746.871094,855.113281C746.125305,856.427307,745.448792,857.779541,744.84375,859.164063L745.101563,859.496094L745.3125,859.855469L745.472656,860.234375L745.578125,860.628906L745.636719,861.035156L745.640625,861.445313L745.585938,861.855469L745.480469,862.261719L743.65625,862.601563L741.820313,862.882813L739.976563,863.109375L738.125,863.277344L737.320313,863.855469L736.554688,864.476563C736.055664,864.901367,735.577576,865.350098,735.121094,865.820313C734.672424,866.292236,734.245728,866.784607,733.84375,867.296875C733.44519,867.811523,733.071472,868.34491,732.722656,868.894531L732.226563,869.730469C731.909973,870.299133,731.621948,870.883179,731.363281,871.480469L730.996094,872.390625C730.770203,873.0047,730.573547,873.62915,730.40625,874.261719L730.183594,875.222656L730.007813,876.199219L729.855469,876.820313C729.779907,877.233032,729.736084,877.650879,729.726563,878.070313L729.746094,878.6875L729.820313,879.296875L729.945313,879.894531L730.125,880.480469L730.351563,881.042969L730.628906,881.585938L730.949219,882.105469L731.316406,882.59375C731.582764,882.908264,731.873779,883.200867,732.183594,883.472656L732.675781,883.851563L733.210938,884.191406L733.777344,884.488281L734.152344,884.488281L734.523438,884.535156L734.875,884.632813L735.214844,884.773438L735.53125,884.960938L735.824219,885.183594L736.082031,885.449219L736.308594,885.746094C735.204651,887.104614,734.340149,888.641052,733.75,890.289063C734.129578,891.152039,734.336609,892.080933,734.359375,893.023438C734.365356,893.332458,734.354431,893.641602,734.324219,893.949219C734.243835,894.721313,734.041687,895.475891,733.722656,896.183594C733.528137,896.616089,733.292603,897.029114,733.015625,897.414063L733.09375,897.8125C733.193237,898.197266,733.334839,898.569946,733.519531,898.921875L733.722656,899.257813C733.86676,899.472107,734.026489,899.675293,734.199219,899.867188C734.374023,900.0578,734.567505,900.230225,734.773438,900.386719C734.980713,900.541321,735.199219,900.680054,735.425781,900.804688C735.656433,900.926208,735.896362,901.02948,736.144531,901.109375C736.527954,901.227966,736.923828,901.300842,737.324219,901.328125L737.824219,901.582031L738.289063,901.882813L738.71875,902.21875C738.986511,902.456482,739.234314,902.715759,739.457031,902.996094L739.765625,903.429688L740.03125,903.886719L740.257813,904.367188C740.387573,904.695618,740.489563,905.034241,740.566406,905.378906L740.652344,905.902344L740.6875,906.4375L740.671875,906.976563L740.605469,907.515625L740.484375,908.054688L740.308594,908.589844C740.087891,908.819214,739.85376,909.035217,739.605469,909.234375C739.239441,909.527832,738.842407,909.780334,738.421875,909.988281C738.144531,910.124756,737.858521,910.242798,737.566406,910.34375C736.978699,910.538025,736.368103,910.654419,735.75,910.6875C735.28125,910.712158,734.811157,910.687439,734.347656,910.613281C734.032898,910.563049,733.722778,910.487793,733.417969,910.394531C729.747559,910.464844,726.186218,911.654175,723.210938,913.804688C722.995422,913.868591,722.776123,913.918457,722.554688,913.957031L722.226563,913.992188C722.007813,914.005981,721.788452,913.997742,721.570313,913.976563L721.246094,913.933594L720.925781,913.859375L720.617188,913.765625C720.31073,913.652954,720.016846,913.508606,719.742188,913.332031C719.281372,913.019897,718.883362,912.624268,718.570313,912.164063C718.601685,911.897034,718.607361,911.627869,718.59375,911.359375C718.574524,911.096558,718.538269,910.835266,718.480469,910.578125C718.412109,910.328918,718.331299,910.083313,718.234375,909.84375C718.125793,909.609985,718.004272,909.382385,717.867188,909.164063L717.640625,908.847656C717.479431,908.646973,717.303101,908.459045,717.113281,908.285156C716.918945,908.110962,716.710876,907.952637,716.488281,907.816406L716.144531,907.621094C715.904358,907.498962,715.652893,907.400757,715.394531,907.324219C714.829346,907.331116,714.265198,907.375916,713.707031,907.464844L712.882813,907.628906L712.082031,907.851563L711.300781,908.128906C710.792175,908.337463,710.297668,908.578857,709.820313,908.851563L709.125,909.292969L708.464844,909.78125L707.839844,910.320313L707.253906,910.902344L706.710938,911.527344L706.214844,912.195313L705.765625,912.902344C705.479614,913.390381,705.233215,913.900452,705.023438,914.425781C704.695801,914.601868,704.355286,914.752991,704.003906,914.875L703.476563,915.035156L702.945313,915.152344C702.410156,915.244507,701.866699,915.279724,701.324219,915.253906L700.789063,915.203125C700.431763,915.15332,700.077881,915.081421,699.730469,914.984375L699.21875,914.816406C698.878845,914.687805,698.549194,914.533936,698.230469,914.359375L697.761719,914.070313C697.452148,913.863464,697.160278,913.63147,696.886719,913.378906C687.543091,914.037048,678.311096,915.807312,669.386719,918.652344C669.111328,918.878479,668.816772,919.0802,668.507813,919.257813C668.200256,919.434143,667.880371,919.588135,667.550781,919.71875C665.554382,919.713135,663.623901,919.002502,662.101563,917.710938C661.408081,917.127502,660.815063,916.434204,660.34375,915.660156C658.912781,914.93219,657.429504,914.311951,655.90625,913.804688C654.770142,913.425171,653.613342,913.110962,652.441406,912.863281C650.487854,912.450806,648.500061,912.221497,646.503906,912.179688C645.702942,912.162476,644.90155,912.17572,644.101563,912.21875C643.298401,912.264893,642.49707,912.338318,641.699219,912.441406C638.700867,911.092651,636.204041,908.833008,634.5625,905.984375L633.886719,905.359375C633.424194,904.958191,632.94342,904.578674,632.445313,904.222656C631.948608,903.871643,631.436035,903.543762,630.910156,903.238281C629.855286,902.639465,628.74469,902.144653,627.59375,901.761719L626.722656,901.496094C625.842896,901.252075,624.945801,901.075256,624.039063,900.96875L623.128906,900.878906C622.516602,900.836792,621.902527,900.825073,621.289063,900.84375C619.734924,898.899597,619.01123,896.420044,619.277344,893.945313C616.324829,887.245544,610.114441,882.551392,602.863281,881.539063C602.515564,881.451355,602.18512,881.306213,601.882813,881.113281C601.664001,880.969727,601.462219,880.802307,601.277344,880.617188C601.097351,880.427185,600.937805,880.219055,600.800781,879.996094C600.618713,879.692017,600.488159,879.360413,600.40625,879.015625L600.355469,878.753906L600.328125,878.480469L600.703125,877.765625C601.630798,875.886658,602.189514,873.84729,602.347656,871.757813C602.447327,870.486694,602.396484,869.208252,602.195313,867.949219C601.958923,866.442505,601.516296,864.975464,600.878906,863.589844C599.904846,861.473267,598.492432,859.587646,596.734375,858.058594C596.125977,857.534424,595.480896,857.054321,594.804688,856.621094L594.5,856.480469C593.095886,855.759521,592.203186,854.324219,592.175781,852.746094L592.1875,852.40625C593.769043,851.042236,595.362854,849.68457,596.960938,848.339844C599.51825,840.301697,597.844849,831.515747,592.511719,824.980469C591.186646,824.379944,590.260681,823.143311,590.054688,821.703125C591.014587,819.706116,592.687195,818.14093,594.742188,817.3125C595.0354,817.1922,595.335144,817.088318,595.640625,817.003906C597.065247,815.138184,598.338623,813.161804,599.449219,811.09375C600.327881,809.444946,601.101501,807.742371,601.765625,805.996094C602.425598,804.24585,602.974976,802.455933,603.410156,800.636719C603.732544,799.264099,603.990479,797.877136,604.183594,796.480469C603.503113,793.203857,602.755615,789.941589,601.941406,786.695313L602.535156,785.785156C602.944641,785.188599,603.381531,784.611328,603.84375,784.054688C604.308716,783.502502,604.797607,782.970825,605.308594,782.460938L606.097656,781.71875L606.921875,781.011719L607.78125,780.34375C609.99646,774.326416,611.310059,768.014771,611.679688,761.613281L611.824219,761.078125C612.102173,759.836914,612.062073,758.545654,611.707031,757.324219C611.45813,756.456909,611.054443,755.641785,610.515625,754.917969L610.175781,754.488281C609.936584,754.208679,609.675171,753.948914,609.394531,753.710938C609.913757,750.867065,610.76178,748.093201,611.921875,745.445313L612.050781,744.914063C612.372498,743.336792,612.150818,741.697021,611.421875,740.261719C611.019836,739.4646,610.470642,738.750854,609.804688,738.15625L609.382813,737.808594L609.8125,735.984375C610.078369,734.762695,610.312866,733.534546,610.515625,732.300781L610.789063,730.449219L610.816406,730.179688C610.875,729.014526,610.407471,727.884949,609.542969,727.101563C609.406372,726.984131,609.265259,726.872131,609.117188,726.769531L607.589844,726.746094L606.0625,726.777344L604.542969,726.867188L603.03125,727.007813L601.527344,727.203125L600.03125,727.453125L598.546875,727.753906L597.074219,728.109375L595.617188,728.519531L594.171875,728.980469L592.746094,729.496094L591.339844,730.058594L589.949219,730.675781L588.582031,731.34375L587.234375,732.0625L585.914063,732.828125C586.219971,732.566711,586.468201,732.244324,586.636719,731.878906C586.706787,731.733887,586.760498,731.581665,586.800781,731.425781L586.851563,731.1875C584.365967,731.763611,581.83844,732.141113,579.292969,732.316406C574.946472,726.930054,572.958618,720.016846,573.78125,713.144531L573.828125,712.414063L573.816406,711.691406L573.742188,710.972656L573.609375,710.261719L573.417969,709.566406L573.167969,708.886719L572.863281,708.230469L572.5,707.597656L572.042969,705.878906C571.759644,704.729675,571.506958,703.572815,571.285156,702.410156L570.984375,700.664063L570.734375,698.914063L570.539063,697.152344L570.394531,695.390625L570.300781,693.625L570.261719,691.859375L570.273438,690.089844L570.335938,688.320313L570.453125,686.554688L570.621094,684.792969L570.84375,683.03125L571.117188,681.277344L571.441406,679.53125C573.618896,674.35614,574.923096,668.855713,575.300781,663.253906C577.669617,658.030518,581.039124,653.322021,585.21875,649.394531C588.079102,649.615234,590.747437,650.918457,592.679688,653.039063L593.90625,653.878906L595.160156,654.675781L596.441406,655.421875L597.742188,656.121094L599.066406,656.773438L600.414063,657.375L601.78125,657.925781L603.164063,658.429688L604.566406,658.882813L605.984375,659.28125L607.417969,659.632813L608.863281,659.929688L610.320313,660.175781L611.789063,660.371094C612.774719,660.477722,613.76355,660.553345,614.753906,660.597656C616.552063,659.621338,617.777588,657.847595,618.054688,655.820313C621.865417,652.227417,623.389282,646.828613,622.019531,641.773438L621.535156,641.488281L621.085938,641.164063C620.804626,640.936707,620.544678,640.684204,620.308594,640.410156L619.976563,639.988281L619.6875,639.539063C619.509705,639.232605,619.359619,638.91095,619.238281,638.578125L619.078125,638.070313C618.989197,637.726929,618.929138,637.37677,618.898438,637.023438L618.878906,636.484375L618.910156,635.945313C618.949219,635.581177,619.0224,635.221497,619.128906,634.871094L619.316406,634.34375C623.096252,632.343079,624.740723,627.800293,623.117188,623.84375C620.99353,621.74176,619.821716,618.862549,619.875,615.875C620.647705,614.88739,621.395264,613.880737,622.117188,612.855469C622.836121,611.827637,623.529175,610.781555,624.195313,609.71875C625.012817,605.745178,624.701477,601.622253,623.296875,597.816406C623.032654,597.588562,622.812256,597.313965,622.652344,597.003906C622.568848,596.856262,622.498352,596.701416,622.449219,596.539063L622.378906,596.296875C622.345459,596.131592,622.31897,595.964966,622.304688,595.796875C622.28595,595.457214,622.32312,595.116821,622.414063,594.789063C622.493774,594.53949,622.600586,594.2995,622.734375,594.074219L623.3125,593.5625L623.84375,593.015625L624.335938,592.4375L624.78125,591.828125L625.183594,591.191406L625.539063,590.53125C625.758789,590.083557,625.948364,589.621704,626.105469,589.148438L626.316406,588.429688L626.480469,587.699219L626.589844,586.957031L626.648438,586.207031L626.65625,585.453125L626.609375,584.695313L626.507813,583.9375L626.351563,583.179688C626.708069,582.080994,626.901978,580.936035,626.925781,579.78125C626.961121,578.176392,626.673157,576.58075,626.078125,575.089844L625.808594,574.457031C625.513123,573.828064,625.164246,573.225464,624.765625,572.65625L624.738281,572.261719L624.765625,571.878906L624.851563,571.503906L624.988281,571.148438L625.171875,570.816406L625.40625,570.511719L625.683594,570.242188L626,570.011719C626.399109,570.039795,626.800293,570.024536,627.195313,569.960938C628.907349,569.707947,630.408569,568.683228,631.265625,567.179688C632.140381,563.991943,631.91449,560.602295,630.625,557.558594C632.442688,555.891357,634.317505,554.287537,636.246094,552.75C638.222473,549.629883,639.422485,546.081543,639.746094,542.402344C642.356323,541.383728,644.717102,539.815857,646.667969,537.804688C647.841003,536.600769,648.850952,535.248108,649.671875,533.78125C649.467651,532.110962,649.888611,530.424072,650.855469,529.046875C651.202026,528.546936,651.616577,528.0979,652.085938,527.710938L652.453125,527.429688C653.135925,527.27887,653.809021,527.087097,654.46875,526.855469L655.4375,526.480469L656.382813,526.046875L657.292969,525.5625L658.171875,525.027344L659.015625,524.441406L659.824219,523.804688L660.589844,523.121094L661.316406,522.394531L662,521.625L662.640625,520.8125C663.467712,519.692505,664.156982,518.47699,664.691406,517.191406L673.304688,516.71875C677.147461,515.374268,680.648132,513.202148,683.558594,510.355469C688.700928,511.295319,693.989624,511.050415,699.023438,509.640625C699.396484,509.186127,699.891846,508.847107,700.453125,508.671875C700.84729,508.544861,701.263733,508.501465,701.675781,508.542969z"/>
    <path transform="matrix(-1,0,0,-1,0,0)" style="stroke:#000000;stroke-width:0.05mm;fill:none" d="M731.640625,840.007813C729.08197,840.13446,726.798462,841.654602,725.691406,843.964844C724.92157,845.561157,724.787781,847.390442,725.316406,849.082031C725.683899,850.273865,726.366455,851.344788,727.292969,852.179688L727.546875,852.402344C727.893066,852.690369,728.26825,852.941528,728.664063,853.15625C730.007813,853.887146,731.555298,854.155457,733.066406,853.917969C734.425049,853.710693,735.692261,853.106567,736.707031,852.179688C737.121765,851.802795,737.489685,851.377563,737.804688,850.914063C738.726074,849.556824,739.137573,847.916504,738.964844,846.285156C738.798096,844.684143,738.08783,843.188599,736.949219,842.050781C735.81189,840.91156,734.31604,840.201111,732.714844,840.035156C732.35791,840.000305,731.998901,839.991638,731.640625,840.007813z"/>
</svg>
