<?xml version="1.0" encoding="UTF-8"?>
<svg xmlns="http://www.w3.org/2000/svg" width="396.332mm" height="380.642mm" viewBox="-468.024414 -805.500000 396.332458 380.641663">
    <path transform="matrix(-1.481482,2.566017,-2.566017,-1.481482,2644.619873,-1817.45459)" style="stroke:#ff0000;stroke-width:0.05mm;fill:none" d="M878.92511,588.476318C882.335205,596.838074,882.94635,606.102844,880.663818,614.839966C880.906311,617.030334,880.839783,619.247864,880.467773,621.420044C880.589294,623.559509,879.790161,631.922241,877,635C879.758545,636.897217,881.812805,635.938721,884,636C890.954468,638.725647,895.455139,641.682922,900.973816,646.716675C906.498413,652.337952,911.987976,657.990295,917.445313,663.676514C921.274719,665.387329,924.485229,668.228088,926.64978,671.820557C927.266785,674.171448,925.873901,676.584534,923.526367,677.214233C917.826172,676.038025,915.034729,674.931213,909.359192,673.642456C908.620789,674.151367,906.098206,672.864197,905.42041,672.277527C898.929077,670.179932,894.803894,666.213562,888.946472,666.648682C884.35614,665.915588,878.254761,667.93103,871,665C873.187561,668.73822,872.695496,673.920532,873.569519,677.125C873.217468,681.348206,872.301453,685.514221,870.848633,689.495239C869.131836,693.728943,867.172058,697.859009,864.978516,701.866516L864.855713,702.008057C864.7771,702.105103,864.699219,702.202759,864.623779,702.302368C862.283325,705.970825,859.914124,709.625854,857.521057,713.260193C855.922546,716.479248,853.666199,719.326111,850.897705,721.618042C849.740601,722.825073,847.831055,722.911926,846.55426,721.831543C844.910645,718.088928,844.784729,713.855835,846.203857,710.022461L846.259521,709.651611C848.243286,702.142517,848.911865,694.348816,848.236267,686.611511C847.340393,680.967041,845.859192,672.948486,843,668C840.051514,670.25061,836.35907,668.824158,834,671C831.159058,670.777588,828.348389,670.998535,825.602295,671.759521C822.166687,672.561462,818.620728,672.805359,815.107666,672.481506C810.355408,671.862732,805.573608,671.513855,800.781738,671.436401C794.791321,672.586731,788.622681,672.442932,782.692627,671.013611C781.200317,670.264465,780.198792,668.793884,780.049438,667.130798C782.88916,662.750061,787.580872,659.947327,792.784241,659.523193C796.403809,657.815186,799.95813,655.97522,803.442261,654.005676C805.941467,652.85968,808.354614,651.550232,810.677551,650.079468C812.827576,647.603943,821.039124,644.408447,824,643C821.979736,642.056702,820.805908,639.246948,819.051331,637.113525C816.650818,634.155273,814.434387,631.047729,812.418396,627.815125C808.78894,625.8974,806.838806,624.260376,802,620C797.578735,616.107239,798.359497,615.900818,794,612C791.242004,609.532166,787.309265,607.667847,786,606C786.293762,604.49823,789.36908,602.131714,793,602C796.630981,601.868225,801.863892,603.025513,804,603C805.732056,602.316162,806.987732,603.082458,811,604C812.725891,604.394714,815.218933,605.482422,817,606C819.520935,606.732605,822.611572,606.608704,824.709167,607.335083C827.897583,608.439148,830.235535,609.365112,830.62439,609.593506C833.20752,609.713257,835.708008,610.670959,837.713135,612.304382C839.987427,613.359741,845.99176,618.990051,848,622C850.239685,621.860535,848.951294,614.080566,850.391357,612.359558C852.012451,611.680359,852.653076,608.773743,855.844055,606.778625C859.11969,605.516968,861.621094,602.843689,862.662598,599.491577C864.36676,596.364868,863.957581,592.900085,863,589C861.875732,586.092407,863.573792,584.831787,864.055603,582.362854C865.127502,578.522583,867.187317,575.026184,870.026733,572.227173C873.527954,572.780151,876.092834,575.825378,876.043945,579.369629C876.855835,580.414124,877.608215,581.500549,878.300293,582.62793C877.847534,584.590027,878.06842,586.653992,878.92511,588.476318z"/>
</svg>
