<?xml version="1.0" encoding="UTF-8"?>
<svg xmlns="http://www.w3.org/2000/svg" width="400.010mm" height="292.401mm" viewBox="-1310.312988 -611.939270 400.010010 292.400909">
    <path transform="matrix(-0.410304,0,0,-0.410304,-900.462219,-255.795624)" style="stroke:#000000;stroke-width:0.05mm;fill:none" d="M179.207977,866.433105C177.977615,865.57135,176.325455,863.32135,175.536499,861.433105C174.536819,859.040527,173.454239,858,171.964706,858C170.789169,858,166.603714,857.149292,162.663681,856.109619C158.723663,855.069885,152.350006,853.500488,148.5,852.62207C144.649994,851.743652,137.449997,849.013489,132.5,846.555054C127.550003,844.096619,119.900002,840.849182,115.5,839.338562C101.518631,834.53833,92.588676,823.447083,89.060577,806.5C87.347572,798.271667,86.005585,796.517822,80.32605,795.085022C63.432816,790.823181,58.501183,789.465576,50,786.736816C44.775002,785.059631,37.176861,782.092529,33.11525,780.143311C22.006433,774.812012,21.90848,774.181824,28.119162,748C29.761482,741.076599,44.125832,724.569153,52.042709,720.507141C61.845993,715.477295,79.937218,711.714355,93.387764,711.907532C100.815758,712.01416,103.863182,711.664429,105.637764,710.501709C108.582497,708.572205,108.725792,704.615784,106,700.5C102.164848,694.709106,104.246574,690.291504,110.344284,691.281006C114.338905,691.92926,114.920059,691.590088,118.207474,686.692078C121.763771,681.393433,120.572388,676.198059,113.833763,667.619385C108.579559,660.93042,109.002876,657,114.977493,657C118.863052,657,122,654.34845,122,651.064148C122,649.51178,120.811539,645.645752,119.358978,642.4729C116.242874,635.666443,116.828773,632.316406,121.523262,630.097961C123.160469,629.32428,124.830612,628.198242,125.234688,627.595642C126.475929,625.744568,126.082115,619.090271,124.386032,613.255981C123.077362,608.754272,122.989449,606.978577,123.921288,603.868408C125.478905,598.669495,127.774109,597.583191,133.204407,599.47467C140.073273,601.867188,141.671936,601.524048,143.045441,597.362305C143.758881,595.200562,143.978973,591.853333,143.587875,589.112305C141.850235,576.933899,141.210449,574.199951,139.183014,570.289856C134.712723,561.668396,137.304001,557.725952,145.455215,560.747009C149.523331,562.254761,150.209183,562.283752,151.031616,560.983093C153.477417,557.11499,149.697693,543.873535,143.629791,535.052368C139.555771,529.129761,139.066132,524.584229,142.288559,522.60083C143.708511,521.726868,145.099762,522.066772,149.039078,524.25C156.623093,528.453186,157.114944,528.19519,156.788971,520.18457C156.53746,514.004028,156.767273,513.065308,159.255814,510.107819C162.780426,505.919067,162.835464,501.281738,159.429535,495.469971C157.884811,492.834106,156.986954,489.969696,157.179535,488.291901C157.458298,485.863342,157.982529,485.45993,161.207657,485.192169C163.246872,485.022858,165.807755,485.361938,166.898499,485.945679C168.51738,486.812073,169.16806,486.598145,170.440826,484.781006C172.685745,481.575958,172.364792,475.372803,169.5,466.596741C166.533737,457.509857,166.43515,455.819,168.75,453.73291C171.586029,451.177124,175.382492,450.715149,179.480103,452.427246C184.284958,454.434845,191.356979,454.479736,192.989227,452.513C194.918411,450.188477,193.35202,446.358856,189.242233,443.35202C184.500061,439.882538,183,438.075409,183,435.831909C183,432.541077,187.230453,430.938721,197.051529,430.509674C208.732407,429.999359,210.071136,429.019928,207.085846,423.168274C204.717743,418.526398,204.462067,415.937927,206.199997,414.200012C207.806702,412.593292,212.981216,412.681549,217.127869,414.386383C221.408844,416.146454,223.58017,415.313995,228.281509,410.110168L232,405.994232L232,393.16391C232,386.107208,232.422089,377.895996,232.937988,374.916779C238.540421,342.563141,240.047195,331.896484,239.377029,329.33374C239.067856,328.151489,239.376266,324.105255,240.062363,320.342102C241.452713,312.716278,242.638397,296.522705,243.565338,272.5C244.195023,256.181213,244.131699,255.467331,238.90863,220C236.869003,206.149918,235.538727,204,229.00856,204C216.209808,204,208.386765,197.156921,202.876678,181.141556C200.465393,174.133026,200.507889,170.89534,203.053619,167.658966C205.56163,164.470551,208.556076,163.628571,227.032089,160.916702C243.897049,158.441299,263.004608,158.607758,269,161.282318C275.405151,164.139664,279.228088,169.238113,282.5,179.286621C286.106171,190.361603,286.339325,190.517899,301.380951,191.9431C319.583405,193.667801,322.744232,195.213959,328.867065,205.388397C332.194061,210.916916,332.245941,211.188889,333.227509,228.24176C333.773895,237.733795,334.536316,246.079849,334.921783,246.788559C335.433777,247.729874,336.479523,247.258255,338.802246,245.038559C346.920044,237.280746,350.76178,246.241608,344.950409,259.379181C343.808502,261.960693,343.014984,265.293945,343.187103,266.786438C343.479309,269.320496,343.778198,269.478058,347.7052,269.168396C356.30188,268.490509,358.285492,271.513641,353.5,278C350.630707,281.889099,350.397766,283.821503,352.468201,286.558868C354.578156,289.34848,354.330841,295.997864,351.91391,301.461761C349.764343,306.321198,349.971893,311.49292,352.286896,310.755798C352.954102,310.543365,354.772919,308.02356,356.328735,305.156219C357.884552,302.28891,360.305176,299.190918,361.707886,298.27182C364.154388,296.668823,364.334503,296.694885,366.12915,298.911163C368.387482,301.700104,368.457428,303.875458,366.518829,311.032074C365.704193,314.039429,363.920959,321.32373,362.556091,327.219391C361.191193,333.115082,358.64444,340.686523,356.896637,344.044861L353.718781,350.150879L360.892029,357.031555C365.246246,361.208191,368.624329,363.697662,369.487854,363.366302C371.179352,362.717194,375.91745,354.412079,378.397949,347.748322C380.502594,342.094269,383.414917,339.616516,386.202484,341.108368C390.020294,343.151611,390.151062,346.341675,386.829102,356.397797C383.490265,366.505035,383.582367,369,387.294312,369C390.555542,369,393.431885,365.496094,395.503235,359C398.416229,349.864258,401.245148,347.953613,404.927429,352.634857C407.497314,355.901947,407.766205,365.576843,405.46814,372.090271C403.611938,377.351379,404.911957,381.688812,408.624359,382.620575C413.226807,383.775696,414.213013,382.552979,413.470703,376.611755C412.359344,367.716675,414.500763,364.65625,419.887146,367.44165C423.116333,369.111511,426.134094,373.458588,433.051422,386.404816C438.778687,397.123718,439.476135,397.878448,444.391418,398.676086C448.55249,399.351349,453,397.000702,453,394.12616C453,390.872314,455.162445,385.983429,457.048035,384.974304C461.546112,382.566986,466.160461,387.976715,467.528839,397.261719C468.439209,403.438965,471.341278,407.213684,474.866028,406.805237C477.117889,406.544281,477.5448,405.959625,477.808868,402.775177C477.978729,400.726532,477.452026,397.576538,476.638367,395.775177C474.231049,390.445526,473.892609,388.412628,474.949768,385.63208C477.352112,379.313446,484.685516,385.057556,491.886047,398.897888C494.240753,403.423889,496.768311,407.357605,497.502869,407.639465C498.237427,407.921356,499.99649,407.393188,501.411926,406.465759C505.282532,403.929626,508.405609,405.204071,510.799316,410.296478C513.292236,415.599854,514.138489,416.291138,520.798096,418.46402C526.478638,420.317474,530.283691,419.940399,533.295898,417.225555C534.876648,415.800842,535.011719,414.515656,534.423157,406.49765C533.844055,398.608643,533.987427,397.155396,535.493469,395.649384C537.016541,394.126312,537.497375,394.083923,539.366211,395.307983C541.544067,396.734436,542.07843,398.1362,546.110535,413C548.550598,421.994873,551.319519,426,555.098145,426C557.205017,426,557.262634,425.735535,556.632446,418.955109C555.887146,410.935852,556.900208,408,560.41272,408C563.535034,408,564.200012,408.960419,568.46405,419.628662C572.455872,429.615662,575.480408,433.352173,579.152161,432.832367C581.450806,432.506958,581.5,432.273376,581.5,421.678711C581.5,412.124176,581.727234,410.690186,583.441101,409.428711C587.870422,406.16864,590.89856,408.482513,593.349365,417C596.287598,427.211121,600.454041,429.957062,603.591309,423.75C605.621216,419.733826,608.959045,416,610.519348,416C612.408691,416,614.925781,412.621063,615.619263,409.153839C616.23407,406.079651,620.029541,402.044159,622.384888,401.960297C622.998169,401.938446,625.653503,399.938385,628.285583,397.515686C632.168335,393.941742,633.620117,391.590485,635.981201,385.052063C640.742493,371.86673,638.66095,374.18927,696.076111,318C709.283142,305.075012,721.422974,292.429169,723.05365,289.898132C724.684265,287.367096,727.113953,282.192108,728.452942,278.398132C729.791931,274.604156,732.023132,268.482483,733.411133,264.794403C738.932617,250.123093,742.481323,232.096832,743.557068,213.25679C744.425964,198.039673,744.401978,198,734.327881,198C725.875427,198,723.191528,196.917236,717.80072,191.332428C713.294128,186.66362,704.001709,171.270599,704.000732,168.472504C703.99939,164.727112,706.967834,162.15773,714.757935,159.161423C725.313354,155.101486,729.206482,154.711548,746,156.03215C753.974976,156.659286,763.473083,157.302444,767.106812,157.46138C782.180054,158.120697,795.66333,166.218491,799.005737,176.619293C801.700928,185.006027,805.670654,185.938217,816.637756,180.75975C823.335876,177.597015,823.822937,177.520325,837,177.554016C853.622375,177.596497,860.437683,179.682037,864.623352,186.007019C866.017395,188.113602,869.833862,191.514877,873.10437,193.565414C882.998779,199.769089,886.005249,204.327652,887.637268,215.600937C889.055298,225.395874,882.49115,250.505127,873.484802,269.736969C868.429932,280.530884,868.221008,282.224487,871.35907,286.966431C874.098145,291.105438,877.236877,293.426392,878.456726,292.214813C878.852539,291.821655,879.743469,290.149994,880.436646,288.5C882.714233,283.078369,886.989014,278.860413,889.865479,279.196503C894.49823,279.737762,894.886108,283.732758,891.179993,292.735809C887.516418,301.635498,887.220581,304.98465,889.88501,307.395935C891.670654,309.011902,891.908142,308.98053,894.388428,306.800934C896.201965,305.207275,897.309998,302.860779,897.993225,299.167267C899.447693,291.304108,902.446594,285.209259,905.558899,283.791199C907.924377,282.71344,908.442505,282.828217,910.023132,284.780273C911.451538,286.54422,911.704956,288.162476,911.28241,292.82193C910.765686,298.520691,910.819763,298.68042,913.62677,299.746338C922.89447,303.265686,926.309448,302.179749,930.5,294.380676C932.150024,291.309875,935.075012,287.465515,937,285.837616C938.924988,284.209747,941.625,281.845001,943,280.582642C949.98291,274.171722,955.395081,273.447296,956.577698,278.765228C957.837463,284.429932,958.199768,285.008789,960.81665,285.537323C962.29248,285.835419,964.773987,286.736481,966.331055,287.539642C967.888123,288.342834,969.996887,289,971.017212,289C972.037537,289,976.38855,285.460327,980.686157,281.134064C988.866211,272.899475,992.965027,270.840546,996.941345,272.968597C999.856262,274.528625,999.49646,277.942047,995.965576,282.225616C992.027832,287.002747,988.40625,295.272705,987.026917,302.637177C981.934021,329.828644,977.699707,349.76889,976.155273,353.833405C973.710144,360.268463,968.758972,367.336517,964.311768,370.740479C962.328918,372.258209,958.906616,375.075012,956.706665,377C951.002625,381.991272,926.253967,399.263733,911.931213,408.249573C908.868347,410.171143,903.169067,414.163574,899.266052,417.121674C895.363098,420.079742,889.769043,424.227631,886.8349,426.339172C883.900696,428.450684,876.706116,434.790222,870.846924,440.427032C860.848633,450.045837,859.871948,451.346436,854.956055,461.58786C842.529724,487.476318,842.680359,486.5,851.111816,486.5C861.361572,486.5,862.29187,490.376923,853.839233,497.866333C848.469971,502.623718,843,512.171631,843,516.786255C843,519.051208,843.711975,519.969116,846.5,521.298584C851.470154,523.668701,851.200073,526.811462,845.465149,533.338623C839.611572,540.000916,835.760925,547.792664,836.179504,552.128052C836.457275,555.005371,836.994019,555.585449,840.208435,556.482239C842.248108,557.05127,844.442627,558.042664,845.085205,558.685242C847.105408,560.705444,845.174683,564.782654,840.741516,567.85791C833.049744,573.193726,830.906494,576.206055,829.494507,583.665222C828.163025,590.699097,828.699768,593,831.672119,593C834.00824,593,838.709351,595.80011,839.401489,597.603943C840.078125,599.367065,837.624756,604,836.014465,604C835.497742,604,832.512512,604.95874,829.380615,606.130554C824.998108,607.770264,821.311829,610.477234,813.379883,617.880554C783.809631,645.480103,778.98114,649.077515,757.779663,659.305054C740.890259,667.452454,738.13501,668.616211,726.5,672.516602C712.752258,677.125244,703.46759,679.820313,695.34198,681.560974C691.02887,682.484924,685.700012,683.633484,683.5,684.113281C667.9776,687.498779,645.844666,690.693115,640.890747,690.262878C637.78241,689.992859,632.209167,690.424805,628.390747,691.231628C619.059692,693.203125,508.711548,693.00354,499.834991,690.999023C495.483521,690.016418,493.128265,689.982056,489.67746,690.851013C487.206573,691.473145,479.630859,692.452087,472.842468,693.026367C466.054108,693.600647,459.149994,694.478149,457.5,694.976379C451.475891,696.795227,415.138306,701.978149,408.315094,701.991699C406.013397,701.996277,402.976288,702.438721,401.565948,702.974915C400.15564,703.511108,393.038818,704.424255,385.750854,705.004028C373.419922,705.985046,368.384399,706.665466,355.487823,709.093384C352.73114,709.612366,348.456146,711.367859,345.987823,712.994507C341.391632,716.023376,325,731.736511,325,733.113586C325,733.53418,323.212219,735.94397,321.027191,738.468567C318.842133,740.993225,315.236755,746.083069,313.015228,749.779419C310.793701,753.475708,307.209839,758.974976,305.051086,762C302.892365,765.025024,297.691986,772.554932,293.49472,778.733215C289.297485,784.911499,285.43689,790.22998,284.915649,790.552124C284.394379,790.874268,281.781433,794.369324,279.109039,798.318909C276.436646,802.268494,273.297882,806.353638,272.134003,807.396912C269.071045,810.142517,265.375092,816.917664,264.596039,821.214905C264.225616,823.258118,263.512451,825.183289,263.01123,825.493042C262.51004,825.802795,258.635498,826.942322,254.401184,828.025269C245.624985,830.269836,235.899765,835.358459,231.5,840.008057C229.850006,841.75177,226.58783,844.305847,224.250748,845.683777C221.913651,847.061768,219.070511,849.496582,217.932648,851.094604C216.794785,852.692566,215.331955,854.004089,214.6819,854.009155C214.03186,854.01416,211.25,855.125122,208.5,856.477844C203.152008,859.108643,198.091095,859.654297,194.896484,857.94458C191.991547,856.389954,189.382797,857.642456,187.942856,861.283264C186.426697,865.116699,184.119232,868,182.56752,868C181.950134,868,180.438354,867.294922,179.207977,866.433105z"/>
    <path transform="matrix(-0.410304,0,0,-0.410304,-900.462219,-255.795624)" style="stroke:#000000;stroke-width:0.05mm;fill:none" d="M185.428574,845.428589C190.083527,840.773621,184.044662,830.75,176.585251,830.75C171.951202,830.75,168.26355,835.929565,169.471375,840.742004C170.738708,845.791443,181.813171,849.043945,185.428574,845.428589z"/>
    <path transform="matrix(-0.410304,0,0,-0.410304,-900.462219,-255.795624)" style="stroke:#000000;stroke-width:0.05mm;fill:none" d="M208.315735,840.875061C216.709732,836.55188,217.133041,831.748718,209.853226,823.429688C202.987991,815.584412,199.259979,812.750183,190.152466,808.452271C185.943619,806.466064,181.025162,803.426575,179.222595,801.697815C175.62735,798.249695,173.027023,791.141785,172.9561,784.568481C172.87619,777.161194,168.217712,768.154419,162.543442,764.436523C161.265564,763.599243,154.519897,762.039124,147.55304,760.969666C116.785156,756.246643,107.0214,751.211243,99.965599,736.427917C97.73658,731.75769,95.011963,727.541565,93.805649,726.895996C89.27195,724.469604,69.388557,727.813904,59.827389,732.610901C49.550201,737.767212,40.198853,750.614807,39.293915,760.821472C38.847115,765.860901,39.05748,766.748291,41.16304,768.706177C43.900463,771.251648,65.392006,777.758057,74.052353,778.663269C79.264122,779.208008,79.930183,779.03418,82.941452,776.343628C88.776512,771.130005,88.031364,760.687561,81.519829,756.421021C77.847748,754.015015,73.691101,755.407959,69.150665,760.566162C65.096207,765.172302,60.764336,767.983337,57.704544,767.993835C54.654366,768.004333,51,763.472961,51,759.680298C51,755.363586,53.635891,751.998596,60.842888,747.114929C69.816124,741.034424,74.495895,739,79.509819,739C87.497284,739,91.790115,742.535828,97.395874,753.731995C100.461617,759.855103,102.820084,761.620605,110.67366,763.671448C113.85022,764.500977,119.340965,766.714233,122.875313,768.589844C128.937622,771.806946,129.861221,772,139.190536,772C156.459564,772,161.643997,776.743958,162.981934,793.770142C163.419403,799.337219,164.44693,804.963562,165.342407,806.695251C167.538193,810.941406,172.347702,814.754517,177.045471,815.973694C179.220459,816.538147,182.8255,817.474182,185.056671,818.053833C189.720749,819.265381,196.270752,824.753052,197.83638,828.760803C198.424911,830.267334,199.390823,833.397583,199.982849,835.716919C201.42186,841.354309,204.130127,843.030762,208.315735,840.875061z"/>
    <path transform="matrix(-0.410304,0,0,-0.410304,-900.462219,-255.795624)" style="stroke:#000000;stroke-width:0.05mm;fill:none" d="M155.225098,835.833069C157.10878,833.656677,158.985611,827.850952,158.994431,824.173096C158.997498,822.89325,157.638672,820.484802,155.974838,818.820984C153.526337,816.372498,152.430237,815.925415,150.224838,816.475769C146.467896,817.413269,141.298096,821.522888,139.498947,825.002014C136.355545,831.080688,138.241455,834.904785,145.683807,837.542908C150.110275,839.112061,152.805069,838.629089,155.225098,835.833069z"/>
    <path transform="matrix(-0.410304,0,0,-0.410304,-900.462219,-255.795624)" style="stroke:#000000;stroke-width:0.05mm;fill:none" d="M122.799507,824.427856C124.033989,823.563232,126.375854,820.217407,128.003647,816.992798C131.09433,810.870178,134.979874,807.236145,141.162354,804.685974C146.800415,802.360352,149,799.629272,149,794.954529C149,789.485291,145.587723,785.987488,140.295456,786.031799C135.194351,786.074524,133.576645,787.52832,130.162338,795.138184C126.70211,802.850342,122.769699,806.429688,115.404541,808.570801C109.034775,810.422546,106.425835,813.380005,107.867332,817.115051C108.999702,820.049072,112.664352,823.546265,116.000511,824.876526C119.486748,826.266724,120.245728,826.216614,122.799507,824.427856z"/>
    <path transform="matrix(-0.410304,0,0,-0.410304,-900.462219,-255.795624)" style="stroke:#000000;stroke-width:0.05mm;fill:none" d="M233.97879,821.510986C239.484497,818.663879,238.827118,814.0224,231.845398,806.44812C229.529922,803.936096,224.004974,799.335693,219.567719,796.224915C215.130478,793.114197,208.041,787.290955,203.813324,783.284485C197.770767,777.558105,195.483551,776,193.120026,776C187.582886,776,185.166061,783.086792,188.676544,789.029602C189.733582,790.819031,193.66272,793.6474,199.309784,796.683899C209.887375,802.371582,216.673187,808.155884,222.040924,816.060242C227.049957,823.436401,228.752335,824.213684,233.97879,821.510986z"/>
    <path transform="matrix(-0.410304,0,0,-0.410304,-900.462219,-255.795624)" style="stroke:#000000;stroke-width:0.05mm;fill:none" d="M258.75,802.999634C259.987488,801.187195,261,798.499207,261,797.026428C261,793.710815,260.185608,792.990662,241.151627,779.474243C223.18222,766.713806,217.667358,761.103455,215.388794,753.265442C213.28923,746.043213,213.839432,735.849304,216.617447,730.501465C220.806763,722.436829,235.028107,718.280579,242.611343,722.904724C244.322571,723.948181,248.278946,728.429321,251.403259,732.862732C257.956116,742.161255,262.352081,746.111511,268.867432,748.556213C271.415344,749.512207,276.526276,751.803162,280.225037,753.647217C283.923798,755.491272,287.74881,756.985718,288.725037,756.968201C292.813843,756.894958,297.98291,750.391235,297.993408,745.306702C298.003662,740.33783,295.19342,739,284.745361,739C273.340942,739,270.332184,737.670959,261.801392,728.865051C250.309097,717.002197,248.640167,710.78595,253.663452,698.553955L256.326904,692.068298L254.528183,683.497009C253.538879,678.782837,251.900879,673.872437,250.888184,672.584961C248.35405,669.363342,227.32869,657.867859,222.860031,657.260742C220.70076,656.967346,217.039642,657.510254,213.860031,658.595398C204.934692,661.641296,198.3172,660.950195,184,655.476929C167.711441,649.250122,163.023834,648.790161,156.440582,652.772949C150.953125,656.092773,146.760742,657.533508,139.896347,658.458374C132.228256,659.491577,128.915161,664.102966,131.054062,670.765686C133.944901,679.770813,137.881714,680.238953,145.789581,672.518005C152.292175,666.169128,156.083313,664.132751,162.904617,663.32489C170.924423,662.375061,176.210007,663.699646,183.660721,668.526489C191.513626,673.613892,194.610748,673.99762,207.662033,671.500183C211.972916,670.675293,217.395615,670.000244,219.712494,670.000183C228.527252,669.999817,238.208008,675.628784,242.069748,683C244.176437,687.021179,243.718491,697.808838,241.237823,702.597229C237.957535,708.929138,234.648804,710.467773,216.667191,714.022949C212.820465,714.783508,209.755936,716.13916,207.667191,718.004272L204.5,720.832336L204.166885,739.666199C203.957611,751.498047,204.244202,759.8703,204.937775,762.185791C206.259613,766.598755,217.56424,777.41626,228.957718,785.170715C238.897217,791.935547,242.509323,795.420227,246.130264,801.737305C247.781372,804.617859,249.890015,807.404358,250.816132,807.929504C252.961472,809.146118,255.726456,807.42804,258.75,802.999634z"/>
    <path transform="matrix(-0.410304,0,0,-0.410304,-900.462219,-255.795624)" style="stroke:#000000;stroke-width:0.05mm;fill:none" d="M111.074028,794.962219C116.1884,792.353088,118.893837,787.257202,117.171532,783.477112C115.853432,780.584229,109.027924,777.055847,104.684258,777.021973C100.790474,776.991577,98.295387,778.528076,96.453003,782.090881C94.568832,785.734436,95.698891,790.304016,99.497849,794.403198C102.413933,797.549683,105.69191,797.708008,111.074028,794.962219z"/>
    <path transform="matrix(-0.410304,0,0,-0.410304,-900.462219,-255.795624)" style="stroke:#000000;stroke-width:0.05mm;fill:none" d="M276.571869,779.327942C282.102081,773.360779,280.341797,768.255737,271.787842,765.453735C265.193298,763.293579,255.507492,758.487854,251.334335,755.30542C249.593216,753.977661,246.458359,750.328247,244.367966,747.195618C238.671021,738.658325,236.96553,737,233.882385,737C230.738083,737,228,740.144104,228,743.754639C228,750.646973,233.195435,756.534851,248.429062,766.906555C253.968079,770.677734,260.74176,775.616516,263.481659,777.881653C269.462189,782.825745,272.970947,783.21344,276.571869,779.327942z"/>
    <path transform="matrix(-0.410304,0,0,-0.410304,-900.462219,-255.795624)" style="stroke:#000000;stroke-width:0.05mm;fill:none" d="M188.443298,761.777466C189.728287,759.942932,190,756.007019,190,739.227844C190,710.130981,189.775986,709.83667,166.993927,709.001099C150.172928,708.384094,147.857742,707.507568,141.767319,699.44989C139.71434,696.733826,136.897568,694.132507,135.507813,693.66925C132.086975,692.528992,127.091911,695.49585,124.556374,700.174011C122.705353,703.589172,122.694611,703.884949,124.330933,706.382324C125.33744,707.918457,129.869843,710.923462,135.273422,713.637329C143.816132,717.927734,145.310577,718.339905,155.498856,719.215576C171.467896,720.588074,172.499161,720.806519,175.309723,723.411255C179.549438,727.340454,180.540024,733.167175,178.469986,742C175.409973,755.056946,175.423538,758.150818,178.554565,761.28186C181.948624,764.675903,186.261749,764.89209,188.443298,761.777466z"/>
    <path transform="matrix(-0.410304,0,0,-0.410304,-900.462219,-255.795624)" style="stroke:#000000;stroke-width:0.05mm;fill:none" d="M162.545456,745.545471C165.429977,742.66095,165.69664,739.076294,163.25,736.074402C161.710373,734.185303,160.288544,733.886292,151.42218,733.586548C140.196136,733.207092,135.953079,731.79718,125.430283,724.949707C118.384773,720.365051,114.748314,719.928284,112.477425,723.394104C110.311493,726.699768,111.45932,730.45929,116.02993,735.029907C120.516663,739.516663,126.968269,742.068481,142.159241,745.36499C157.00383,748.586365,159.48262,748.608276,162.545456,745.545471z"/>
    <path transform="matrix(-0.410304,0,0,-0.410304,-900.462219,-255.795624)" style="stroke:#000000;stroke-width:0.05mm;fill:none" d="M310.580048,729.114319C314.305176,726.842773,317.412201,720.778442,316.570038,717.422974C316.237701,716.098877,314.672363,712.975952,313.091492,710.483215C311.510651,707.990479,309.687256,703.142334,309.039551,699.709656C307.597076,692.06488,306.477936,690.617188,297,684.136108C292.875,681.31543,287.024994,677.195557,284,674.980896C277.0224,669.872375,272.104858,668.895142,269,672C267.240601,673.759399,266.894135,674.960083,267.344696,677.736572C268.138733,682.629761,270.460999,684.7901,276.926025,686.650024C284.98233,688.967712,289.154938,691.322205,293.261627,695.867859C299.171967,702.409851,300.282623,705.450867,300.920715,716.838562C301.441315,726.129944,301.739136,727.370789,303.860779,729.088562C306.754272,731.431274,306.780273,731.431396,310.580048,729.114319z"/>
    <path transform="matrix(-0.410304,0,0,-0.410304,-900.462219,-255.795624)" style="stroke:#000000;stroke-width:0.05mm;fill:none" d="M285.428558,722.428589C288.760529,719.096619,286.942535,710.641052,281.733032,705.240234C277.388611,700.736267,272.311279,699.397644,269,701.883301C266.958008,703.416077,266.510376,704.588379,266.556702,708.282166C266.67984,718.10022,279.86972,727.987427,285.428558,722.428589z"/>
    <path transform="matrix(-0.410304,0,0,-0.410304,-900.462219,-255.795624)" style="stroke:#000000;stroke-width:0.05mm;fill:none" d="M334.02002,705.489624C339.55954,702.625061,340.803375,695.712463,336.545441,691.454529C333.478363,688.387451,329.193665,688.273193,325.522919,691.160645C323.086609,693.077026,322.832184,693.818848,323.272247,697.7229C323.780273,702.230225,327.097382,707,329.723969,707C330.480408,707,332.413635,706.320313,334.02002,705.489624z"/>
    <path transform="matrix(-0.410304,0,0,-0.410304,-900.462219,-255.795624)" style="stroke:#000000;stroke-width:0.05mm;fill:none" d="M205.712982,702.115234C208.34584,701.078613,213.649994,699.745422,217.5,699.152527C225.439667,697.92981,229.61763,694.686279,228.449402,690.652039C226.76358,684.830444,222.109558,683.952087,206.5,686.509399C195.45903,688.318237,192.615738,690.152649,192.198044,695.736511C191.945053,699.118591,192.331741,700.115784,194.582901,701.886536C197.88591,704.48468,199.605148,704.52002,205.712982,702.115234z"/>
    <path transform="matrix(-0.410304,0,0,-0.410304,-900.462219,-255.795624)" style="stroke:#000000;stroke-width:0.05mm;fill:none" d="M177.07692,692.076904C178.684616,690.469238,180,688.319336,180,687.299438C180,684.663757,177.362213,681.238647,173.988953,679.494263C165.195206,674.946838,151.419846,681.568054,153.384964,689.397644C154.344406,693.220398,158.4375,694.914124,166.82692,694.959961C173.617172,694.99707,174.36795,694.785889,177.07692,692.076904z"/>
    <path transform="matrix(-0.410304,0,0,-0.410304,-900.462219,-255.795624)" style="stroke:#000000;stroke-width:0.05mm;fill:none" d="M363,693C365.60675,690.39325,365.548187,689.62323,362.014618,680.039673C360.372681,675.586487,358.555023,668.974243,357.975372,665.345886C356.685425,657.271118,354.61731,653,351.997375,653C348.547302,653,346.887695,657.195801,346.274872,667.46759C345.743103,676.380554,345.901947,677.546326,348.541412,684.102905C352.647644,694.302979,358.249786,697.750244,363,693z"/>
    <path transform="matrix(-0.410304,0,0,-0.410304,-900.462219,-255.795624)" style="stroke:#000000;stroke-width:0.05mm;fill:none" d="M394.229462,687.904236C396.942047,684.257324,395.341431,678.976746,389.50473,672.317078C383.220642,665.146973,381.0466,659.93396,381.031738,652C381.016541,643.907104,383.12146,639.134338,393.151245,624.519592C397.193054,618.630127,401.722412,611.941406,403.216492,609.655762L405.932953,605.5L405.145142,586.5C404.711823,576.049988,404.734528,562.775024,405.195526,557C405.738983,550.192566,405.639313,543.159058,404.912109,537C404.250946,531.400085,404.07135,523.117554,404.47467,516.825073L405.158844,506.150177L402.538452,504.433228C399.246613,502.276337,396.316559,503.407318,392.611359,508.265106C388.636902,513.475891,388.399933,516.801208,391.386719,525.450256C394.489319,534.434631,394.787994,542.951965,392.341949,552.689758C390.869843,558.550171,390.833588,560.367737,392.018555,568.895264C392.752625,574.177856,393.33902,583.450012,393.321655,589.5C393.27652,605.213928,393.24292,605.28656,372.25,635.093811C366.909943,642.675964,366.833435,645.447449,371.534912,661C373.44693,667.325012,375.94278,675.875,377.081238,680C379.617096,689.18811,381.62735,691.209595,387.819244,690.797852C391.278076,690.567871,392.738678,689.908569,394.229462,687.904236z"/>
    <path transform="matrix(-0.410304,0,0,-0.410304,-900.462219,-255.795624)" style="stroke:#000000;stroke-width:0.05mm;fill:none" d="M435,684.987427C456.49472,682.241211,457.42749,681.355835,455.003387,666C453.513977,656.564941,450.908936,650.534241,446.262939,645.765625C439.488129,638.811951,431.024963,638.631409,426.926331,645.353088C422.819794,652.087708,425.511871,656.752136,434,657.609192C444.010315,658.619995,447,660.724487,447,666.759949C447,669.912292,443.985596,673.318909,440.17099,674.477539C438.682037,674.929749,434.76416,674.204895,429.308807,672.467773C421.851898,670.093384,420.292023,669.895508,416.941467,670.899414C414.832672,671.531189,412.183167,673.223022,411.05365,674.658936C408.614746,677.75946,408.369934,683.227051,410.571442,685.428589C412.600555,687.457703,416.16983,687.39325,435,684.987427z"/>
    <path transform="matrix(-0.410304,0,0,-0.410304,-900.462219,-255.795624)" style="stroke:#000000;stroke-width:0.05mm;fill:none" d="M326.24057,676.360962C327.747894,675.589539,329.648468,673.939941,330.46405,672.69519C332.078979,670.23053,333.948639,659.197388,333.980194,651.946167C334.005066,646.228088,331.143005,643.270691,319,636.467041C308.177948,630.403442,300.229126,624.987244,296.821716,621.35498C293.152008,617.443176,289.540222,609.924194,287.098694,601.113647C285.973145,597.05188,284.354919,592.664429,283.502625,591.363708C282.65036,590.062927,278.439178,587.231995,274.14444,585.072632C265.755524,580.854736,261.404541,576.686096,257.5914,569.213074C254.952362,564.041138,251.888245,560.89978,244.9021,556.203857C239.1315,552.324951,237.35611,549.618225,235.425461,541.75592C233.174866,532.590576,232.148758,530.417603,229.368958,528.929871C226.240784,527.255737,224.180603,528.36676,221.683044,533.07489C220.239441,535.796143,219.974197,537.929565,220.392197,543.456787C221.023361,551.802673,222.596695,554.278381,230.081497,558.703369C237.804138,563.268982,242.92569,568.610779,247.361313,576.726318C250.788315,582.99646,251.969345,584.224426,257.861328,587.643188C270.583618,595.025269,277.107758,603.868347,281.002411,619.009338C282.015533,622.948059,283.619904,627.027527,284.567657,628.074768C285.515381,629.122009,289.487885,631.761597,293.395416,633.940552C297.302948,636.119507,305.450012,641.191711,311.5,645.212097C324.147095,653.616394,326.789978,657.077087,324.62149,662.393738C321.966675,668.902771,315.395233,668.37854,307.634277,661.038574C301.739929,655.463928,287.028931,645.940247,280.404175,643.410278C276.202423,641.805603,275.53421,641.801575,269.972534,643.3479C262.047577,645.551208,256.52063,645.43042,251.379303,642.941589C245.221634,639.960693,240.929352,634.656189,234.492874,622.072998C227.833832,609.054626,229.737106,610.419922,205.655594,601.386841C198.649673,598.758911,189.983871,602.324707,190.01532,607.822571C190.045731,613.140991,193.183594,614.914001,204.370422,615.933655C218.340942,617.20697,223.714844,621.39679,227.117798,633.668884C228.125076,637.301453,229.585236,641.244263,230.36261,642.430664C232.143951,645.149353,255.84874,657.999084,259.089203,658.002625C260.415131,658.004028,264.483337,657.281372,268.129639,656.396667C278.006165,654.000305,282.409882,655.604614,297.5,667.096741C304.100006,672.123047,310.850006,676.850586,312.5,677.602417C315.863708,679.134949,321.882813,678.591125,326.24057,676.360962z"/>
    <path transform="matrix(-0.410304,0,0,-0.410304,-900.462219,-255.795624)" style="stroke:#000000;stroke-width:0.05mm;fill:none" d="M479.171265,677.345032C480.177063,676.434753,481,674.506653,481,673.060364C481,667.989502,475.970642,639.843872,474.58609,637.166443C473.816711,635.67865,470.666321,632.725159,467.585205,630.603088C458.528412,624.365479,455.995972,620.885925,456.021973,614.71521C456.035339,611.540466,456.869019,607.73938,458.15274,605C460.647705,599.675964,460.802582,593.254333,458.583801,587.124268C456.757843,582.079468,456.521362,574.393494,458.06662,570.315125C459.575684,566.332275,462.532715,563.427246,470.029877,558.562378C473.621307,556.231873,479.388794,551.141968,482.846497,547.251404C487.352783,542.181091,491.062592,539.163879,495.945709,536.5979C499.692566,534.628967,503.465271,531.938843,504.329498,530.619873C505.193695,529.300903,506.843048,524.459351,507.994659,519.860901C509.146301,515.26239,511.043091,508.575012,512.209717,505C514.178467,498.967285,514.245728,497.816559,513.145203,488.993378C511.817993,478.35257,512.579712,471.930603,516.089905,464.167267C519.949402,455.631348,520.080017,454.287598,517.983765,444.682983C516.902649,439.729462,515.340149,434.641846,514.511475,433.377197C510.462646,427.197906,488.597473,416.270599,482.820557,417.539429C479.165283,418.342255,476.568878,422.146088,477.404236,425.474518C478.113708,428.301178,481.310455,430.172546,488.384399,431.902191C495.540283,433.651886,500.516876,436.500031,503.692078,440.662933C506.158783,443.896973,506.499725,445.204376,506.497833,451.42215C506.496063,457.295868,505.93103,459.74704,503.176605,465.829926L499.857513,473.159851L501.100037,481.938751C502.074799,488.825745,502.085205,492.557495,501.148285,499.254761C498.65213,517.098083,495.679504,522.731262,485.975159,528.008179C481.371033,530.51178,478.517853,532.944702,476.011749,536.503967C470.142944,544.839233,464.700928,549.607361,458.851501,551.539429C451.251282,554.049744,449.329559,555.57019,447.412628,560.5896C445.980103,564.340637,445.844055,566.810852,446.522034,576.758484C447.955353,597.788818,447.725067,605.098755,445.51358,608.77124C442.446442,613.864563,436.924011,616,426.819122,616C419.659058,616,417.837585,616.339905,415.610626,618.091675C412.131897,620.828003,398.374115,641.696838,396.41626,647.207092C393.704193,654.839966,396.806488,662,402.825684,662C407.574951,662,409.940155,658.399719,410.917786,649.682251C411.387878,645.490295,412.650818,640.359375,413.724335,638.280273C416.323151,633.246887,422.863098,628.386353,429.718292,626.393494C440.20401,623.345215,449.120209,626.538391,457.222931,636.243652C465.458801,646.108459,467.757141,651.9953,468.645172,665.5C468.972137,670.472473,469.865509,675.506897,470.641541,676.75C472.325897,679.448181,476.523712,679.741028,479.171265,677.345032z"/>
    <path transform="matrix(-0.410304,0,0,-0.410304,-900.462219,-255.795624)" style="stroke:#000000;stroke-width:0.05mm;fill:none" d="M529.127563,677.34906C530.005676,676.292725,530.700745,671.876648,531.057373,665.088379C531.539795,655.903992,532.00061,653.76947,534.487427,649.200439C538.466858,641.888916,548.974365,631.329224,558.5,625.068665C562.900024,622.176819,569.255493,616.928345,572.623352,613.405396C578.048096,607.730774,579.179993,607,582.544617,607C587.68866,607,590,609.283813,590,614.366638C590,618.017456,589.424683,618.959351,584.25,623.780396C581.087524,626.726746,573.952271,632.235046,568.393921,636.020996C551.622498,647.444641,546.164307,654.889038,544.410034,668.732483C543.518494,675.767944,545.496704,679,550.694336,679C555.869263,679,557.998779,676.697571,558.005554,671.095032C558.021545,657.928406,564.331299,649.874756,578.43158,645.02356C581.692505,643.901611,585.238586,642.199829,586.311707,641.241821C588.728882,639.083984,603,610.505615,603,607.823059C603,605.158752,601.3302,602.24707,599.12561,601.0672C596.522339,599.674011,583.182983,597.00177,578.826599,597.000793C575.031738,597,570.877991,599.619629,561.054382,608.209351C558.609253,610.34729,553.488464,613.736206,549.674744,615.740234C543.656982,618.902466,542.170044,620.274414,538.421265,626.122864C535.699036,630.369812,532.060303,634.369873,528.581116,636.940063C525.5448,639.183105,522.51947,642.026733,521.858154,643.259155C520.807251,645.21759,518.20166,665.706421,518.053223,673.178589C518.023926,674.651794,518.707153,676.56427,519.571411,677.428589C521.638489,679.495667,527.382813,679.447876,529.127563,677.34906z"/>
    <path transform="matrix(-0.410304,0,0,-0.410304,-900.462219,-255.795624)" style="stroke:#000000;stroke-width:0.05mm;fill:none" d="M593.116089,676.883911C596.707886,673.292114,594.318787,663.765564,588.802612,659.68396C586.1875,657.748962,585.966736,657.740967,581.563354,659.422668C576.352783,661.412598,573.32312,664.760681,572.431274,669.514526C571.056946,676.840393,573.560486,678.836243,584.25,678.936584C589.842102,678.989136,591.362976,678.637024,593.116089,676.883911z"/>
    <path transform="matrix(-0.410304,0,0,-0.410304,-900.462219,-255.795624)" style="stroke:#000000;stroke-width:0.05mm;fill:none" d="M625.973694,677.513611C631.398071,674.708557,630.297974,669.250732,623.081604,663.165833C616.417786,657.546814,614.63147,653.394592,615.237,644.931458C615.817932,636.812439,620.531067,627.314087,626.292847,622.650696C631.081604,618.774841,638.451111,617.993591,646.145264,620.546143C653.805908,623.087524,663.202698,632.575989,665.405762,639.99469C669.338196,653.236633,665.526672,661.046753,653.413269,664.568237C643.78894,667.366089,640.322571,672.199585,645.505066,675.595276C647.851013,677.132385,648.746277,677.090576,659.600342,674.937317C674.276978,672.025635,676,670.807617,676,663.344055C676,660.31311,676.901245,654.303345,678.002808,649.989075C679.525024,644.0271,679.76062,641.500549,678.98468,639.459656C677.240417,634.871948,667.874084,622.059143,663.360107,618.085754C658.293335,613.625854,645.069641,606.990295,639.795044,606.260986C634.960083,605.592529,620.665161,610.532715,617.099792,614.104309C613.620667,617.589478,601.96344,643.568481,601.984009,647.790955C601.992798,649.601013,603.379944,653.733337,605.066467,656.973999C606.815735,660.335022,608.51532,665.57959,609.023071,669.183044C609.66272,673.722534,610.519287,675.992432,612.067383,677.25C614.745056,679.425232,622.01062,679.562988,625.973694,677.513611z"/>
    <path transform="matrix(-0.410304,0,0,-0.410304,-900.462219,-255.795624)" style="stroke:#000000;stroke-width:0.05mm;fill:none" d="M503.269318,675.58783C505.461151,673.395996,506.478027,640.378479,504.449066,637.281921C500.646149,631.477966,494.567474,630.678101,491.368256,635.56073C489.823273,637.91864,489.827759,638.610779,491.434692,645.794861C492.382599,650.032654,493.405151,658,493.707001,663.5C494.297394,674.256714,495.491547,677,499.583557,677C500.834015,677,502.492615,676.364502,503.269318,675.58783z"/>
    <path transform="matrix(-0.410304,0,0,-0.410304,-900.462219,-255.795624)" style="stroke:#000000;stroke-width:0.05mm;fill:none" d="M707.533752,664.435669C711.928101,662.291077,713.040955,659.313538,710.925476,655.360779C709.443726,652.592041,702.505188,649,698.638794,649C692.532227,649,687.904175,659.152466,691.505371,664.64856C693.040161,666.990967,693.680054,667.191284,698.382568,666.80127C701.234314,666.564819,705.352356,665.500244,707.533752,664.435669z"/>
    <path transform="matrix(-0.410304,0,0,-0.410304,-900.462219,-255.795624)" style="stroke:#000000;stroke-width:0.05mm;fill:none" d="M737.75,654.010986C741.722229,651.58905,742.073303,647.842957,738.75,643.3396C734.140137,637.092834,727.598938,632.828186,714.658875,627.632874C698.530457,621.15741,694.429565,617.670349,683.221558,600.900879C677.957214,593.024231,676.592407,592.055847,667.72876,589.90802C654.31366,586.657349,647.419617,573.825012,650.939453,558.657166C652.749268,550.858459,647.596985,545.267456,641.085815,547.964478C634.864807,550.54126,633.826416,560.757996,638.722168,571.219971C640.430908,574.871399,642.343628,580.338379,642.972717,583.368713C644.530884,590.874329,646.63269,593.148743,655.418335,596.83667C663.794739,600.352783,667.23877,602.303345,671.622559,606.014038C675.391113,609.203979,682.946533,618.461304,687.326599,625.255554C692.129822,632.706055,693.692749,633.782043,702.056396,635.395996C715.141113,637.921021,719.136108,640.481812,723.581604,649.193787C727.231873,656.347351,731.524414,657.806763,737.75,654.010986z"/>
    <path transform="matrix(-0.410304,0,0,-0.410304,-900.462219,-255.795624)" style="stroke:#000000;stroke-width:0.05mm;fill:none" d="M643.745544,653.461853C649.206543,651.180115,651,649.148743,651,645.244995C651,639.000183,642.738586,632.844849,636.468994,634.418457C631.102905,635.765259,628.114746,645.863464,631.606995,650.849304C634.483215,654.955688,638.236755,655.76355,643.745544,653.461853z"/>
    <path transform="matrix(-0.410304,0,0,-0.410304,-900.462219,-255.795624)" style="stroke:#000000;stroke-width:0.05mm;fill:none" d="M212.040573,643.463257C214.630646,641.119324,214.520218,637.714539,211.75,634.503418C209.33374,631.702576,204.050842,630.062256,197.322662,630.023865C194.529205,630.007874,190.920822,628.840515,186.430511,626.5C178.759491,622.501587,173.964523,622.035461,171,625C168.730591,627.269409,168.381165,631.771423,170.273575,634.359436C170.974045,635.317383,175.136551,637.175598,179.523575,638.488831C183.910614,639.802002,190.649994,642.043762,194.5,643.47052C202.388931,646.394043,208.805038,646.391418,212.040573,643.463257z"/>
    <path transform="matrix(-0.410304,0,0,-0.410304,-900.462219,-255.795624)" style="stroke:#000000;stroke-width:0.05mm;fill:none" d="M148.43454,641.040466C153.343674,638.00647,155.305481,633.138367,154.802475,625.238831C154.432617,619.430359,154.045776,618.430115,151.178436,615.868103C145.480515,610.777039,140.02652,612.984131,139.967361,620.404968C139.949402,622.657227,139.014969,626.974976,137.890854,630C134.682983,638.632324,134.434387,641.108887,136.612579,642.734314C138.99559,644.512512,143.969818,643.799805,148.43454,641.040466z"/>
    <path transform="matrix(-0.410304,0,0,-0.410304,-900.462219,-255.795624)" style="stroke:#000000;stroke-width:0.05mm;fill:none" d="M764.723145,641.027283C766.522888,639.929932,768.245483,637.870117,768.623718,636.363037C769.372925,633.378052,769.960083,634.010376,753.429199,620C742.32666,610.590271,740.506165,609.471497,731.528198,606.540771C717.612732,601.998291,710.117798,596.765991,705.685913,588.5C703.903503,585.175537,703.540771,582.811096,703.538391,574.5C703.536804,569,703.930481,561.018738,704.41333,556.763794C705.254944,549.346375,705.183044,548.871704,702.668274,545.242859C699.096802,540.089172,695.704163,538.327454,687.718689,537.47998C683.988953,537.084167,679.049255,535.801758,676.741577,534.630127C670.596558,531.510437,668.84082,527.692566,667.791626,515.16864C667.250305,508.706879,666.164551,502.89978,665.009644,500.288879C662.370789,494.323395,646.568726,476.180847,643.296204,475.359497C639.636292,474.440918,637.550659,476.111969,637.195801,480.247375C636.940063,483.227875,637.618469,484.64444,641.457581,489.146088C648.552185,497.465118,653.879578,505.869965,655.579529,511.425934C656.433411,514.216675,657.387939,521,657.700684,526.5C658.57605,541.895752,660.06543,543.669922,673.36322,545.157654C683.707092,546.314941,688.743958,549.000671,691.75,554.961914C694.401733,560.220459,694.63147,566.155457,692.5,574.338684C691.674988,577.506104,691,581.580872,691,583.393738C691,589.61792,704.349487,607.096985,712.137695,611.070251C714.165466,612.104736,718.692505,614.03064,722.197693,615.349976C737.306152,621.036804,744.693909,626.36554,750.826843,636C752.752441,639.025024,754.81665,641.830627,755.414001,642.23468C757.369507,643.557617,761.438904,643.029785,764.723145,641.027283z"/>
    <path transform="matrix(-0.410304,0,0,-0.410304,-900.462219,-255.795624)" style="stroke:#000000;stroke-width:0.05mm;fill:none" d="M353.044739,635.976074C354.097046,635.412903,356.854767,632.150391,359.173004,628.726074C361.491272,625.301697,365.529419,619.766846,368.146698,616.426331C370.763977,613.085876,374.164154,607.910828,375.702698,604.926331C378.390381,599.712646,378.498016,598.941772,378.449677,585.25592C378.404633,572.50592,378.184357,570.722778,376.349701,568.25592C373.531525,564.466614,367.120667,563.880737,364.088501,567.135376C361.305023,570.123108,361.432861,574.58313,364.490234,581.150696C368.977203,590.789246,367.227722,600.100525,358.818817,611.335815C351.404053,621.242859,344.988617,622.459839,332.913544,616.25C320.65271,609.944641,312,599.700562,312,591.490173C312,582.167603,317.406616,578.243103,342.334656,569.471191C350.768738,566.503296,352.527893,560.831543,349.506378,546.348511C346.235962,530.672485,352.26535,518.748291,366.143768,513.445068C373.058807,510.802673,373.482239,510.42688,382.299408,499.107147C384.609741,496.141052,387.303284,492.683441,388.285065,491.423492C389.266846,490.163574,390.702057,485.538422,391.474457,481.145355C394.138947,465.990479,399.007141,460.37207,413.606354,455.602814C416.414856,454.685333,419.64267,452.93689,420.779266,451.717346C423.293488,449.019653,429.477386,430.188568,431.098083,420.294617C432.243408,413.302704,432.19696,412.922821,429.530151,407.472137C428.018646,404.382721,425.049805,400.034149,422.932739,397.808624C419.63446,394.3414,418.683899,393.861969,416.291748,394.459015C409.287079,396.207336,407.952026,402.179596,413.127808,408.612488C419.193237,416.151062,420.330933,422.009979,417.403625,430.632141C413.896057,440.96347,408.63559,445.832001,397,449.515717C387.809357,452.425385,386.566895,454.203918,382.005432,470.980042C380.337616,477.113922,378.047119,483.947449,376.915466,486.16568C373.319244,493.214874,367.240234,498.781769,357.833435,503.640198C352.938995,506.16806,348.104248,509.449219,347.010437,510.985321C344.047668,515.146179,336,533.410461,336,535.973694C336,537.204407,336.689789,540.873291,337.532867,544.12677C339.328033,551.054626,338.3862,556.349121,334.75116,559.764038C331.932678,562.411865,323.48175,566.200195,315.225983,568.516602C308.440887,570.42041,304.742523,573.664063,301.006134,580.987976C298.374084,586.147217,298.474121,589.232117,301.593719,599.107361C305.077942,610.136902,310.30127,615.702942,324.422394,623.434082C330.117279,626.551941,337.158234,630.879761,340.06897,633.051453C345.485962,637.093079,349.33609,637.960876,353.044739,635.976074z"/>
    <path transform="matrix(-0.410304,0,0,-0.410304,-900.462219,-255.795624)" style="stroke:#000000;stroke-width:0.05mm;fill:none" d="M266.814514,627C268.025909,624.801208,267.940186,623.837341,266.103058,619C262.282898,608.941162,252.97403,599,247.375168,599C244.324051,599,241.581421,603.101318,242.559692,606.20105C243.9888,610.72937,253.307892,626.097046,255.825836,628.077637C259.418793,630.90387,264.963287,630.360107,266.814514,627z"/>
    <path transform="matrix(-0.410304,0,0,-0.410304,-900.462219,-255.795624)" style="stroke:#000000;stroke-width:0.05mm;fill:none" d="M521.385132,624.911682C526.838745,620.621887,528.561523,613.723145,524.987122,610.488342C520.859314,606.752747,513.78894,609.018127,509.955994,615.304321C507.382538,619.524902,507.493652,621.584595,510.454559,624.545471C513.496521,627.587402,517.800171,627.731628,521.385132,624.911682z"/>
    <path transform="matrix(-0.410304,0,0,-0.410304,-900.462219,-255.795624)" style="stroke:#000000;stroke-width:0.05mm;fill:none" d="M787.5,622.127136C790.825256,620.059448,812.672424,600.791626,814.670532,598.164429C816.50116,595.757385,816.307068,588.996765,814.345032,586.828735C810.80603,582.918213,806.983459,585.117859,800.549316,594.767395C794.038147,604.532471,786.308655,608.968018,779.158264,607.042603C774.283997,605.730103,766.331604,598.750244,761.974487,591.960266C760.194031,589.185669,757.539124,586.295898,756.074646,585.538574C754.610168,584.781311,748.528625,583.366028,742.560059,582.393494C729.728394,580.302734,726,578.055237,726,572.411133C726,565.214111,731.767456,563.307434,742.435303,566.977722C750.465881,569.740662,757.187744,570.498535,760.109802,568.97052C761.424377,568.283081,764.573608,565.800232,767.107971,563.453064C779.09198,552.354431,794.268921,550.859863,802.652771,559.952759C804.60376,562.068726,807.684998,565.419983,809.5,567.400024C813.724792,572.00885,817.119995,572.153564,821.098816,567.894226C824.960938,563.759766,825.177734,557.455017,821.574158,554.069641C819.274658,551.909424,802.557861,545.82074,789.537354,542.401062C781.730164,540.350586,779.083984,541.00708,770.999878,547.000122C759.031433,555.87262,757.099976,556.387573,738.802307,555.583435L723.019287,554.889832L720.589722,557.319336C717.73938,560.169678,716.564758,566.305786,717.196777,575.043335C717.888367,584.604553,722.548462,589.259277,734.629089,592.455627C744.997314,595.198914,750.733582,598.315918,759.092468,605.748718C781.084839,625.304443,781.762146,625.694946,787.5,622.127136z"/>
    <path transform="matrix(-0.410304,0,0,-0.410304,-900.462219,-255.795624)" style="stroke:#000000;stroke-width:0.05mm;fill:none" d="M485.684906,620.933411C489.480774,619.495178,492.800964,616.2677,495.103455,611.777832C498.174805,605.788696,502.78891,601.214722,510.201843,596.810791C515.40686,593.718567,518.101196,591.268677,521.013367,586.980347C525.887573,579.802795,529.640381,576.636414,537.493286,573.075745C547.036804,568.748474,549.923889,562.445129,544.365112,558.072571C539.031433,553.877075,530.565369,556.920471,524.230835,565.310486C522.066223,568.17749,517.866272,572.764832,514.897583,575.504578C511.928925,578.244385,504.966766,585.06604,499.426147,590.663879C490.261353,599.923279,488.817535,600.989807,483.426147,602.482666C475.04361,604.803894,473.236481,605.882874,472.054993,609.272095C470.706177,613.141296,472.327148,616.635803,476.897888,619.712646C480.740112,622.299133,481.720764,622.435364,485.684906,620.933411z"/>
    <path transform="matrix(-0.410304,0,0,-0.410304,-900.462219,-255.795624)" style="stroke:#000000;stroke-width:0.05mm;fill:none" d="M173.685547,607.825684C176.866882,604.836975,176.593994,601.754333,172.5,594.433594C167.57901,585.634033,167.691422,580.670349,173.08284,568.696716C176.796265,560.449707,177.289963,558.356689,178.539154,545.564636C179.502869,535.695923,180.826645,528.605774,182.976379,521.798584C186.759781,509.818359,193.529816,492.865662,198.360703,483.274963C204.204346,471.673676,202.998627,466.5,194.451294,466.5C187.912888,466.5,186.343994,468.545624,185.791794,477.790863C185.326248,485.585175,183.564011,490.286285,178.944656,496.056854C177.697601,497.614716,175.420395,504.647644,173.116394,514.056885C171.029083,522.581177,168.070328,531.895203,166.512329,534.846252C163.79599,539.991272,163.733231,540.428406,164.844879,546.461548C166.948608,557.878906,166.013214,562.367737,159.960876,569.899048C156.444061,574.275269,156.143509,576.534119,157.352936,589.5C158.559204,602.431946,158.924225,603.770386,162.114929,606.961121C165.821701,610.667847,170.303711,611.002747,173.685547,607.825684z"/>
    <path transform="matrix(-0.410304,0,0,-0.410304,-900.462219,-255.795624)" style="stroke:#000000;stroke-width:0.05mm;fill:none" d="M348.112701,601.190613C350.650055,598.923462,351.351074,597.401733,351.744568,593.306702C352.151123,589.0755,351.880463,587.880493,350.116089,586.116089C347.628174,583.628174,345.054138,583.477478,338.539215,585.438171C327.11441,588.876526,326.024139,595.945862,336,601.902588C340.793793,604.765076,344.345886,604.556274,348.112701,601.190613z"/>
    <path transform="matrix(-0.410304,0,0,-0.410304,-900.462219,-255.795624)" style="stroke:#000000;stroke-width:0.05mm;fill:none" d="M545.731567,601.25C548.004944,599.737488,554.135071,595.232422,559.354065,591.23877C569.206726,583.699341,569.52179,583.249512,573.024475,571.724609C574.52417,566.789917,577.839722,562.953064,584.0448,558.971252C590.049438,555.118103,592.001953,551.760193,591.994446,545.299683C591.988159,539.888,591.496399,537.807129,585.861572,519.34845C582.005554,506.716797,581.909912,506.074951,583.441589,503.112915C585.322266,499.476135,588.887573,498.29657,592.933655,499.972504C596.146606,501.303375,597.342102,503.723755,599.026245,512.307434C599.652893,515.501526,601.554016,522.026489,603.250916,526.807434C605.864685,534.171631,606.364136,537.104614,606.519531,546C606.620361,551.775024,606.769714,557.0625,606.85144,557.75C607.153809,560.293884,611.016357,563,614.345032,563C619.285706,563,621.331055,560.164978,621.809326,552.653687C622.138,547.491333,621.680054,545.053223,619.143066,538.460327C617.458374,534.082153,615.119629,526.813354,613.945923,522.307495C612.544373,516.92688,609.573303,510.062439,605.28949,502.307526C597.165955,487.601532,594.859863,485,589.947754,485C584.763428,485,581.676758,487.851685,577.320496,496.666077C574.048218,503.287048,573.58136,505.128784,573.59375,511.367645C573.603333,516.197937,574.478088,521.390869,576.303955,527.456787C581.028564,543.152832,579.881409,548.216003,569.52832,557.362C565.252258,561.139465,562.759521,564.223267,561.944031,566.744446C558.481506,577.449707,555.419006,580.904358,545.212891,585.61792C536.349121,589.711487,533,592.820313,533,596.954529C533,600.573059,536.063904,604,539.299072,604C540.563538,604,543.458191,602.762512,545.731567,601.25z"/>
    <path transform="matrix(-0.410304,0,0,-0.410304,-900.462219,-255.795624)" style="stroke:#000000;stroke-width:0.05mm;fill:none" d="M430.663239,600.523315C433.754486,598.358154,434.17627,595.097046,432.498871,586.331116C430.591949,576.365784,430.592346,566.985229,432.5,559.661316C434.552399,551.781616,434.384094,547.011658,431.834106,540.787048C428.799561,533.379639,428.774536,522.09082,431.779877,516.334229C434.369293,511.374329,437.852325,508.727386,446.256409,505.332672C456.152771,501.335175,456.764221,500.43515,459.919281,485.220673C462.174042,474.347778,461.829865,472.458252,456.252533,465.089325C447.578735,453.629272,447.878815,445.587158,457.455566,432.84726C462.968475,425.513458,464.03717,420.966278,461.399323,416.067322C459.285309,412.141266,455.623505,410.375702,451.65863,411.370819C448.388489,412.191589,446.439575,415.891602,445.533203,423C445.147491,426.024994,443.01651,433.822327,440.797668,440.327423C436.101776,454.094635,436.166809,457.050812,441.303741,463.337646C453.833618,478.672272,450.619537,490.597626,431.329315,500.346283C427.573181,502.244507,423.449219,504.925415,422.164886,506.303833C418.838684,509.87384,417.502167,521.408447,418.95575,534C419.573547,539.35144,419.931824,555.434814,419.776215,570.830139L419.5,598.160217L421.860779,600.080139C424.685791,602.377502,427.792664,602.533936,430.663239,600.523315z"/>
    <path transform="matrix(-0.410304,0,0,-0.410304,-900.462219,-255.795624)" style="stroke:#000000;stroke-width:0.05mm;fill:none" d="M623.454346,595.583496C628.208435,593.597107,630.294189,590.085144,629.436157,585.51123C628.642029,581.278381,624.589417,576,622.133606,576C615.413208,576,609.140686,590.182983,613.654968,595.171265C615.639893,597.364563,618.866821,597.500305,623.454346,595.583496z"/>
    <path transform="matrix(-0.410304,0,0,-0.410304,-900.462219,-255.795624)" style="stroke:#000000;stroke-width:0.05mm;fill:none" d="M231.476929,592.828552C237.892212,589.905579,234.492325,578.320068,225.634171,572.918579C218.492111,568.563599,213.011536,572.536987,213.003738,582.075684C212.99939,587.402039,215.226898,590.097534,221.544403,592.410706C226.502396,594.226135,228.248428,594.299561,231.476929,592.828552z"/>
    <path transform="matrix(-0.410304,0,0,-0.410304,-900.462219,-255.795624)" style="stroke:#000000;stroke-width:0.05mm;fill:none" d="M785.914185,589.391602C789.444153,587.306396,795,579.144409,795,576.043823C795,572.657654,791.257935,569,787.793579,569C783.500977,569,778.729187,571.344727,775.703308,574.940735C771.914978,579.442932,772.128845,583.328857,776.400024,587.599976C780.203308,591.40332,781.951416,591.732483,785.914185,589.391602z"/>
    <path transform="matrix(-0.410304,0,0,-0.410304,-900.462219,-255.795624)" style="stroke:#000000;stroke-width:0.05mm;fill:none" d="M194.042816,587.977112C196.69136,586.559631,197.969147,583.833862,199.024353,577.350342C199.52179,574.294006,201.565796,568.480286,203.566574,564.43103C207.005035,557.472107,207.163147,556.724426,206.452377,550.784363C205.461868,542.506531,205.708496,533.906738,207.038162,530.358887C207.627457,528.786499,209.862732,524.575012,212.005463,521C214.780777,516.369507,216.214447,512.522217,216.990036,507.623627C218.462051,498.326385,219.916687,495.217407,225.870987,488.642456C228.663269,485.559113,232.083755,480.79483,233.472076,478.055115C237.21759,470.663666,241.32312,466.53125,248.50766,462.921021C254.237396,460.04184,255.505112,458.824066,260.042419,451.840668C267.330627,440.623352,270.324005,438.725739,284.221252,436.512726C290.974243,435.437378,293.45694,427.366028,288.545441,422.454559C286.474426,420.383514,285.135162,420,279.974152,420C273.876831,420,273.842499,420.016449,269.17868,425.171295C261.63974,433.503967,255.520859,439.504578,236.722565,457L218.993835,473.5L213.465088,484.895935C207.546677,497.095093,195.549866,528.219543,194.538132,534C194.201202,535.924988,193.546188,542.741699,193.082535,549.148254C192.313614,559.773193,191.87764,561.582153,188.119781,569.73999C183.706192,579.321289,183.009537,584.248047,185.654984,587.171265C187.488571,589.197327,191.112259,589.545471,194.042816,587.977112z"/>
    <path transform="matrix(-0.410304,0,0,-0.410304,-900.462219,-255.795624)" style="stroke:#000000;stroke-width:0.05mm;fill:none" d="M490.523956,578.706909C495.487152,573.643127,502.34964,567.020447,505.773956,563.989929C511.30365,559.096069,512,558.064087,512,554.762939C512,551.904724,511.424194,550.668823,509.507294,549.412842C505.443268,546.75,502.215515,548.367798,493.5,557.436096C489.100006,562.014221,483.355225,567.190613,480.733826,568.939148C478.112457,570.687683,475.120544,573.027588,474.085175,574.138977C468.914093,579.689453,472.455963,590.039795,479,588.501526C480.375,588.178284,485.560791,583.770691,490.523956,578.706909z"/>
    <path transform="matrix(-0.410304,0,0,-0.410304,-900.462219,-255.795624)" style="stroke:#000000;stroke-width:0.05mm;fill:none" d="M596.387024,585.042969C599.082031,584.018311,602,579.372009,602,576.105408C602,575.008789,600.963318,572.906311,599.696228,571.433228C597.759094,569.181213,596.888,568.865662,594.223267,569.450989C589.904114,570.399597,586,575.229919,586,579.625C586,582.585205,586.478699,583.304626,589.25,584.509155C593.207153,586.229065,593.257446,586.232849,596.387024,585.042969z"/>
    <path transform="matrix(-0.410304,0,0,-0.410304,-900.462219,-255.795624)" style="stroke:#000000;stroke-width:0.05mm;fill:none" d="M677.545471,574.545471C679.351501,572.73938,680,571.010071,680,568C680,562.400818,676.625061,559,671.068481,559C667.873169,559,666.706665,559.518005,665.395325,561.519348C662.403992,566.084778,665.133972,573.858337,670.5,576.054626C673.759338,577.388672,674.95929,577.131592,677.545471,574.545471z"/>
    <path transform="matrix(-0.410304,0,0,-0.410304,-900.462219,-255.795624)" style="stroke:#000000;stroke-width:0.05mm;fill:none" d="M290,572C293.206757,568.793213,292.659851,563.734192,288.75,560.437378C281.657898,554.457214,273.744171,553.383972,271.138855,558.04895C269.878021,560.30658,269.92337,561.036255,271.535614,564.433777C273.648041,568.885376,280.951477,574,285.19577,574C286.738098,574,288.899994,573.099976,290,572z"/>
    <path transform="matrix(-0.410304,0,0,-0.410304,-900.462219,-255.795624)" style="stroke:#000000;stroke-width:0.05mm;fill:none" d="M317.714722,553.042725C320.527588,551.765747,322.135742,550.307312,322.549744,548.657837C323.898041,543.285767,320.212891,541.011536,310.125,540.990234C304.090179,540.977478,296.323975,537.323975,290.986969,531.986938C284.218262,525.218262,281.339233,517.856079,277.360443,497.141479C277.111267,495.844299,272.729065,490.556793,267.622162,485.391479C257.327454,474.978973,255.156937,474.115784,250.636368,478.636353C248.047928,481.224792,247.312088,484.376038,248.76532,486.6492C249.169388,487.281281,252.221939,489.801178,255.548767,492.248993C262.481018,497.34964,264.207916,500.318726,271.980164,520.5C278.535675,537.521973,279.724823,539.326477,286.716156,542.861572C289.897278,544.470093,295.166168,547.859253,298.424805,550.393066C303.515015,554.351074,304.994049,554.996887,308.924805,554.978027C311.441162,554.965942,315.396606,554.095093,317.714722,553.042725z"/>
    <path transform="matrix(-0.410304,0,0,-0.410304,-900.462219,-255.795624)" style="stroke:#000000;stroke-width:0.05mm;fill:none" d="M377.5,548.906555C379.135895,547.297424,379.5,545.616821,379.5,539.675232C379.5,530.542419,377.585938,527,372.651276,527C365.083466,527,360.298706,538.87561,364.552368,547.101257C367.217163,552.254456,373.242432,553.094543,377.5,548.906555z"/>
    <path transform="matrix(-0.410304,0,0,-0.410304,-900.462219,-255.795624)" style="stroke:#000000;stroke-width:0.05mm;fill:none" d="M263.443298,545.777466C264.299469,544.555115,265,542.792053,265,541.859619C265,540.349548,261.639862,532.280762,253.194656,513.511108C249.709854,505.766052,243.137451,499,239.098892,499C235.192245,499,232,503.02182,232,507.943726C232,512.34845,233.143219,513.945984,238.78624,517.42688C244.276932,520.813782,246.465515,524.5,248.550873,533.87323C249.874908,539.824585,250.931213,542.131226,253.516342,544.71637C257.405731,548.605713,261.179749,549.009155,263.443298,545.777466z"/>
    <path transform="matrix(-0.410304,0,0,-0.410304,-900.462219,-255.795624)" style="stroke:#000000;stroke-width:0.05mm;fill:none" d="M561.411133,544.923279C564.502014,541.249939,564.589783,538.882507,562.001221,529C557.458069,511.655121,558.673279,500.276337,566.467529,487.179321C571.651489,478.468445,572.307861,474.029449,568.777466,471.556702C563.358765,467.761261,558.058289,471.297638,556.033997,480.05899C555.342529,483.051544,553.206665,489.032074,551.287598,493.34906L547.798462,501.19812L548.649231,511.34906C549.117126,516.932068,549.43573,522.625,549.357178,524C548.428162,540.258301,548.637085,542.984802,551.005249,545.505615C554.283569,548.995178,558.167725,548.777832,561.411133,544.923279z"/>
    <path transform="matrix(-0.410304,0,0,-0.410304,-900.462219,-255.795624)" style="stroke:#000000;stroke-width:0.05mm;fill:none" d="M531.810181,542.618408C533.977966,540.450562,534.950745,534.22644,534.976135,522.360779C534.996155,513.030334,534.702637,510.85434,533.168701,508.960022C530.407532,505.55014,526.663147,506.885345,524.612244,512.011108C523.725525,514.227295,523,516.849304,523,517.837891C523,518.826416,522.110596,522.979797,521.02356,527.067627C518.380127,537.008057,518.468933,539.559875,521.566284,542.657227C523.644165,544.735046,524.735962,545.102783,527.302917,544.589417C529.04657,544.240662,531.074829,543.353699,531.810181,542.618408z"/>
    <path transform="matrix(-0.410304,0,0,-0.410304,-900.462219,-255.795624)" style="stroke:#000000;stroke-width:0.05mm;fill:none" d="M754.74646,540.028503C761.281311,537.062195,767.852173,532.194092,769.358643,529.202881C770.1073,527.716309,771.210205,522.068176,771.809448,516.651489C772.999817,505.892181,774.358032,502.900452,779.185913,500.40387C783.205872,498.325043,788.863708,498.93512,802.899353,502.960876C816.516418,506.866577,827.006104,507.881256,830.448486,505.625732C833.812012,503.421844,836.314331,498.388397,835.553467,495.356934C834.658447,491.790985,831.452271,491.028107,822.674988,492.292572C813.815186,493.56897,804.83075,492.571075,788.237366,488.467621C777.013367,485.691986,772.807312,486.003906,767.74292,489.987579C764.84375,492.268066,764.628906,492.964905,762.580322,506.733337C759.655212,526.392212,753.673157,531.803711,735.988281,530.789246C721.968628,529.984985,719.913086,526.728333,720.260559,505.871124L720.5,491.5L715.418213,480.5C712.623169,474.450012,709.574341,467.430298,708.643005,464.900665C706.639954,459.460175,704.160217,456.96817,697.81427,454.01828C695.237122,452.820313,690.598389,449.626129,687.506042,446.920074C681.340271,441.524506,678.207092,440.792938,675,444C670.724792,448.275177,673.588867,452.966003,684.712585,459.907623C696.136658,467.036682,702.578308,476.686218,707.137451,493.5C708.905396,500.020142,709.29126,504.077698,709.223206,515.434753C709.13208,530.653015,709.579102,532.367737,714.975159,537.498779C717.910339,540.289856,718.799927,540.538269,727.814392,541.083984C746.453247,542.212341,750.264526,542.062988,754.74646,540.028503z"/>
    <path transform="matrix(-0.410304,0,0,-0.410304,-900.462219,-255.795624)" style="stroke:#000000;stroke-width:0.05mm;fill:none" d="M457.404968,536.317322C461.037018,533.633789,464.27005,527.446472,463.451233,524.746155C461.182831,517.265381,453.198944,515.601013,447.399994,521.400024C444.548615,524.251404,444,525.520447,444,529.265137C444,535.600342,447.088715,539.409546,451.628296,538.672913C453.452667,538.376831,456.052155,537.316833,457.404968,536.317322z"/>
    <path transform="matrix(-0.410304,0,0,-0.410304,-900.462219,-255.795624)" style="stroke:#000000;stroke-width:0.05mm;fill:none" d="M828.076904,534.076904C830.200562,531.953308,831,530.19104,831,527.633606C831,522.497742,828.307861,521.003113,819.027466,520.986633C813.276001,520.976379,809.494568,520.271729,803,518C798.325012,516.364746,793.185425,515.020752,791.578735,515.013367C783.891663,514.978149,782.425598,525.010437,789.711792,527.78894C791.2453,528.373779,795.875,529.587219,800,530.485596C804.125,531.383911,810.200012,533.185486,813.5,534.489014C821.678467,537.719543,824.514465,537.639404,828.076904,534.076904z"/>
    <path transform="matrix(-0.410304,0,0,-0.410304,-900.462219,-255.795624)" style="stroke:#000000;stroke-width:0.05mm;fill:none" d="M641.139221,533.087158C643.057617,531.532715,643.485657,530.267822,643.42334,526.337158C643.303955,518.806335,640.387939,511.742096,633.356812,501.950073C623.73468,488.549774,621.5,483.721222,621.5,476.330566C621.5,471.139954,621.896667,469.730713,624,467.448212C627.749756,463.37912,635.657227,460.020325,641.5,460.014893C648.484131,460.008392,651.88501,462.385712,665.083008,476.5C678.791138,491.15979,681.21405,495.737152,681.756714,508C682.227112,518.629333,683.307861,521.563049,687.260803,522.941101C691.30896,524.352295,694.532471,522.312195,695.373169,517.806885C696.168823,513.542847,693.59314,497.660278,690.96814,490.644409C687.859253,482.335205,684.253601,477.742645,675.5,470.942505C659.961243,458.871399,656,454.109283,656,447.5C656,442.011169,658.414612,438.464661,665.259888,433.899536C668.691956,431.610687,672.0625,429.03595,672.75,428.177856C675.9021,424.243683,672.270081,416,667.384583,416C663.544678,416,656.024048,423.819122,649.935242,434.141846C641.631897,448.219055,637.145508,451.608063,624.157227,453.614441C618.384033,454.506256,614.335022,458.112427,610.860413,465.457001C606.522034,474.627411,606.910706,477.391113,614.367493,490.395386C624.021057,507.230682,626.88501,513.361145,628.547974,520.75C629.383545,524.462463,630.561096,528.748169,631.164734,530.273682C633.091736,535.143616,637.178528,536.296387,641.139221,533.087158z"/>
    <path transform="matrix(-0.410304,0,0,-0.410304,-900.462219,-255.795624)" style="stroke:#000000;stroke-width:0.05mm;fill:none" d="M321.944366,526.528748C324.714661,525.096191,325.174561,524.219299,332.486938,506.427277C334.843079,500.694489,339.932434,496.127197,348.500153,492.056671C359.502472,486.829468,363.482361,482.640503,366.064209,473.569916C367.171021,469.681458,369.409363,462.376923,371.0383,457.337585C374.633209,446.216248,374.685028,444.594116,371.545441,441.454559C368.303223,438.212311,364.755402,438.353241,360.807007,441.881134C357.599731,444.746826,357.579224,444.825989,356.978241,456.662262C356.467804,466.715027,355.997375,469.232361,353.947754,472.879181C351.114532,477.920227,346.007843,481.200531,337.632965,483.35907C334.406097,484.190765,330.752594,485.823242,329.514038,486.986816C325.790771,490.48465,322.176941,498.172546,321.093445,504.900452C319.51004,514.732422,316.045624,518.232178,309.518188,516.593933C306.797852,515.911133,303.987915,511.415863,304.021088,507.799652C304.056885,503.89679,308.651703,492.196655,312.928253,485.118744C317.545624,477.476746,317.864105,474.789368,315.394043,464.312042C313.452026,456.074585,314.02475,445.030334,316.965912,434C318.065796,429.875,318.97345,425.388367,318.982849,424.029694C318.992279,422.671021,316.821838,417.946014,314.159668,413.529694C311.497498,409.113373,308.139679,403.424225,306.697906,400.887146C303.647522,395.519531,301.577362,394.506683,290.5,392.962067C286.100006,392.348511,280.864746,391.603821,278.866089,391.307159C272.389862,390.345947,268.633057,397.17572,272.556702,402.777496C273.900879,404.696594,275.027161,405.000763,280.806702,405.005585C293.266815,405.015961,299.395966,408.359863,303.633118,417.459137C306.728546,424.106506,306.687592,430.426636,303.5,438C300.622375,444.836884,300.433136,447.798615,302.446442,454.488281C306.439728,467.756927,305.277863,477.24649,298.734406,484.806854C292.58493,491.912048,291.671478,494.851471,292.968658,503.360992C294.426392,512.924011,298.15564,520.412842,303.084106,523.674377C309.44754,527.885498,317.085419,529.041443,321.944366,526.528748z"/>
    <path transform="matrix(-0.410304,0,0,-0.410304,-900.462219,-255.795624)" style="stroke:#000000;stroke-width:0.05mm;fill:none" d="M743.769775,515.44873C747.137329,513.089966,747.921875,510.913208,748.935547,501.115021C750.042236,490.418457,749.318726,487.14502,744.518127,481.128265C740.226074,475.74881,736.19574,467.400299,735.16156,461.746826C733.475159,452.527649,736.952087,447.137695,748.137268,441.631958C756.197327,437.66452,757.996277,434.491608,757.998474,424.239227C758.000061,416.713043,755.697327,399.911957,753.89032,394.265625C751.870544,387.954559,744.050537,384.83432,739.828735,388.654999C737.080322,391.142303,737.575623,394.402618,742.221985,404.408264C745.69873,411.895081,746.448975,414.572052,746.471985,419.573029C746.512573,428.377441,743.521973,432.515564,733.561707,437.437042C717.582581,445.332458,717.245911,451.20166,731.091125,480.5C735.590149,490.020538,735.975159,492.831055,734.903137,508.327728C734.564331,513.225464,734.809753,514.382446,736.441101,515.577698C738.945862,517.412964,741.017456,517.376526,743.769775,515.44873z"/>
    <path transform="matrix(-0.410304,0,0,-0.410304,-900.462219,-255.795624)" style="stroke:#000000;stroke-width:0.05mm;fill:none" d="M481.43512,513.421997C484.375244,510.481903,485.283813,507.619019,486.543945,497.32431C487.843597,486.706879,487.256409,480.412323,484.822327,478.869019C482.691101,477.517761,478.267914,477.874969,476.610718,479.532135C475.768036,480.374817,474.829254,482.737335,474.524567,484.782135C474.219879,486.826965,473.258453,491.424988,472.388062,495C469.55304,506.64447,469.494934,509.833496,472.067871,512.572266C474.698669,515.37262,479.086487,515.770691,481.43512,513.421997z"/>
    <path transform="matrix(-0.410304,0,0,-0.410304,-900.462219,-255.795624)" style="stroke:#000000;stroke-width:0.05mm;fill:none" d="M423.054016,488.374084C432.540253,483.211029,434.583069,478.701843,430.379395,472.204468C427.780548,468.187561,424.645233,467.431366,418.552521,469.351929C409.666016,472.153137,403.732605,481.065857,406.145782,487.988373C408.064758,493.493134,413.423981,493.615387,423.054016,488.374084z"/>
    <path transform="matrix(-0.410304,0,0,-0.410304,-900.462219,-255.795624)" style="stroke:#000000;stroke-width:0.05mm;fill:none" d="M536.477905,490.612976C539.811584,487.279358,544.619995,471.66507,543.390015,468.167603C542.081482,464.44693,537.887634,462.306793,534.318054,463.538177C530.202942,464.957794,527.869934,470.537109,527.25238,480.435455C526.783203,487.95639,526.934631,488.934631,528.86731,490.86731C531.624023,493.624023,533.530579,493.560303,536.477905,490.612976z"/>
    <path transform="matrix(-0.410304,0,0,-0.410304,-900.462219,-255.795624)" style="stroke:#000000;stroke-width:0.05mm;fill:none" d="M825.64856,477.429718C827.380249,477.164459,830.028381,475.978912,831.533264,474.795197C834.852905,472.183929,846.129578,448.914032,846.283875,444.356567C846.356506,442.212311,845.136292,439.392761,842.44519,435.486237L838.5,429.759369L837.911621,416.629669C837.522705,407.94986,836.744934,401.974884,835.616699,399C831.102051,387.095337,828.603699,374.582214,828.551636,363.614075C828.500732,352.886902,828.459229,352.697632,825.704163,350.634613C823.137085,348.712341,822.691223,348.662933,820.254211,350.030762C816.627014,352.066681,814.044128,356.831573,813.338623,362.788849C812.819458,367.172089,813.236389,368.835876,816.808472,376.635345C821.232483,386.295074,823.308289,395.510651,825.038574,413.173218C825.776001,420.701233,827.129456,427.338043,829.074097,432.962219C834.020081,447.266815,832.403748,457.539307,824.225464,463.777191C821.020691,466.221619,819.829773,466.5,812.57782,466.5C805.21106,466.5,804.03656,466.213928,799.234985,463.25C789.692017,457.359283,783.403015,459.618195,783.881531,468.764709C784.106262,473.059937,789.094543,474.822388,811,478.346161C813.473083,478.743958,819.551208,478.363708,825.64856,477.429718z"/>
    <path transform="matrix(-0.410304,0,0,-0.410304,-900.462219,-255.795624)" style="stroke:#000000;stroke-width:0.05mm;fill:none" d="M286.974579,476.025421C289.640991,473.359009,290.372681,469.899872,289.683258,463.21991C289.006256,456.660522,286.417572,452.632507,282.586456,452.177338C277.424713,451.564056,271.011597,458.321503,271.003723,464.381958C270.99884,468.165833,274.508179,473.729004,278.395233,476.099274C282.35437,478.513519,284.505005,478.494995,286.974579,476.025421z"/>
    <path transform="matrix(-0.410304,0,0,-0.410304,-900.462219,-255.795624)" style="stroke:#000000;stroke-width:0.05mm;fill:none" d="M767.545471,473.545441C773.641968,467.448944,767.483276,453,758.788208,453C755.416992,453,749.986877,457.75296,750.021973,460.673065C750.056335,463.531036,753.639465,470.730347,756.402893,473.493774C759.702515,476.793396,764.276306,476.814606,767.545471,473.545441z"/>
    <path transform="matrix(-0.410304,0,0,-0.410304,-900.462219,-255.795624)" style="stroke:#000000;stroke-width:0.05mm;fill:none" d="M591.722473,469.481812C594.241394,467.717499,603,449.821228,603,446.43869C603,443.837616,598.717834,440,595.815491,440C592.942017,440,588.498169,442.590698,586.722107,445.301422C585.855896,446.623413,584.1745,450.907318,582.985718,454.821198C581.191528,460.728149,581.014465,462.513855,581.943909,465.330048C583.587585,470.310364,587.915894,472.148071,591.722473,469.481812z"/>
    <path transform="matrix(-0.410304,0,0,-0.410304,-900.462219,-255.795624)" style="stroke:#000000;stroke-width:0.05mm;fill:none" d="M339.656769,466.618805C342.389008,464.268646,342.425598,464.081909,342.462555,452.297668C342.497589,441.12854,342.668793,440.10257,345.114868,436.40451C347.00589,433.545593,350.02597,431.215363,356.024963,427.986572C369.262329,420.861877,371.210938,415.648438,365.42569,402.835419C362.823456,397.072083,361.485443,392.345154,360.830658,386.602203C359.673309,376.451782,358.617371,373.749237,354.34198,369.995392C350.285217,366.433502,346.708099,366.15097,344.556702,369.222504C341.834259,373.109344,342.643799,378.238892,347.404022,387.264374C358.345123,408.008972,357.525085,415.323822,343.452606,422.511566C338.090973,425.250092,335.019104,427.51535,333.772491,429.649841C329.865448,436.33963,327.444275,460.175842,330.149719,465.315735C332.462585,469.709869,335.568298,470.135559,339.656769,466.618805z"/>
    <path transform="matrix(-0.410304,0,0,-0.410304,-900.462219,-255.795624)" style="stroke:#000000;stroke-width:0.05mm;fill:none" d="M488.593475,460.859558C492.047333,457.403534,492.628204,453.068329,490.072693,449.81955C487.980774,447.160126,476.352448,442,472.451294,442C469.543091,442,466.32547,444.567078,465.597321,447.468262C464.907227,450.217834,467.038757,456.261169,469.788147,459.350037C474.328827,464.451355,484.211212,465.244629,488.593475,460.859558z"/>
    <path transform="matrix(-0.410304,0,0,-0.410304,-900.462219,-255.795624)" style="stroke:#000000;stroke-width:0.05mm;fill:none" d="M224.943619,448.25C230.246658,442.887512,239.343338,434.131805,245.158447,428.792908C258.486206,416.55658,259.552582,414.512207,257.860352,404.441254C256.831421,398.31778,256.842682,395.88858,257.921661,391.219727C258.648682,388.073883,259.572571,380.549988,259.974731,374.5C260.396423,368.156586,261.441895,361.595032,262.444427,359C263.84375,355.377777,264.069733,352.646912,263.602905,345C262.645813,329.322571,265.787323,323.366455,276.248627,321.024567C286.487122,318.732544,289,316.967072,289,312.065735C289,309.224426,285.527039,306,282.466766,306C281.073486,306,277.703583,307.129974,274.978119,308.511078C272.252655,309.892181,267.24939,311.579681,263.859741,312.261078C254.871918,314.067841,254.190491,315.334656,252.965607,332.513336C252.417114,340.205994,250.625458,354.557831,248.984177,364.406311C246.811829,377.441345,246,385.636414,246,394.530579C246,412.462799,243.296936,418.467621,232.31958,424.921478C229.118805,426.803284,223.574997,431.151733,220,434.584717C216.425003,438.0177,211.935226,442.169495,210.02272,443.810913C207.136475,446.288086,206.545456,447.47113,206.545456,450.771362C206.545456,455.719666,208.352341,458,212.2733,458C214.778183,458,216.968567,456.314453,224.943619,448.25z"/>
    <path transform="matrix(-0.410304,0,0,-0.410304,-900.462219,-255.795624)" style="stroke:#000000;stroke-width:0.05mm;fill:none" d="M567.75,453.369812C570.188538,450.680573,570.585083,447.961761,568.977112,444.957184C567.373657,441.961151,564.101196,440.71347,555.969543,439.997894C549.512512,439.429688,547.679138,438.812439,543.107361,435.667603C537.037415,431.492218,535.055786,431.175873,532.520325,433.97757C531.170288,435.469299,530.865723,436.962372,531.280579,440.055176C532.011169,445.502136,534.12677,447.604218,540.843079,449.556702C543.921265,450.451569,548.253357,452.11026,550.46991,453.242676C558.94696,457.573578,563.905029,457.610046,567.75,453.369812z"/>
    <path transform="matrix(-0.410304,0,0,-0.410304,-900.462219,-255.795624)" style="stroke:#000000;stroke-width:0.05mm;fill:none" d="M815.428589,450.428558C817.647522,448.209625,817.384155,443.763397,814.546936,435.543243C813.197815,431.634338,811.614502,424.175507,811.028503,418.968079C807.255859,385.441162,805.89502,381,799.39447,381C794.174194,381,792.86908,386.584839,795.538696,397.5C797.536743,405.66925,801,432.693634,801,440.115173C801,445.456177,801.337708,446.491577,803.923096,449.076935C807.259277,452.413116,812.793823,453.063324,815.428589,450.428558z"/>
    <path transform="matrix(-0.410304,0,0,-0.410304,-900.462219,-255.795624)" style="stroke:#000000;stroke-width:0.05mm;fill:none" d="M783.777466,446.443298C785.669373,445.118195,785.998718,443.96521,785.991333,438.693298C785.981506,431.684937,783.652405,410.791656,782.123901,404C781.566833,401.524994,780.615784,395.500854,780.010437,390.613037C778.241943,376.334503,774.149475,370.906372,761,365.398071C753.780701,362.373901,751.143982,361.791077,743.5,361.529968C735.370667,361.252258,733.815979,360.864594,727.429321,357.522888C720.587097,353.94278,720.245239,353.870667,716.847229,355.290466C712.710266,357.018982,709,361.363892,709,364.479858C709,369.790955,714.768311,371.381958,739.5,372.892365C753.554565,373.750702,755.913269,374.37323,760.85022,378.527435C765.720154,382.625183,767.802307,387.708496,770.148987,401.228943C772.464722,414.57077,772.996826,427.251129,771.616455,436.195618C770.763245,441.723999,770.827148,441.980957,773.791809,444.945618C777.168396,448.322266,780.402405,448.807281,783.777466,446.443298z"/>
    <path transform="matrix(-0.410304,0,0,-0.410304,-900.462219,-255.795624)" style="stroke:#000000;stroke-width:0.05mm;fill:none" d="M708.777466,440.443298C712.328125,437.956329,711.616699,434.135834,706.353088,427.424805C703.797302,424.166168,699.915833,417.713135,697.727539,413.084717C692.383301,401.781128,692.239197,396.861694,696.965637,387.079773C700.534424,379.693726,700.518982,377.991516,696.862305,375.684937C692.272278,372.789612,681.574402,384.268799,679.047913,394.800385C677.714233,400.359741,678.377869,402.778015,682.981018,409.132507C685.733276,412.931885,687.561401,417.791016,689.45343,426.336395C690.229065,429.839386,698.439636,438.817596,702.5,440.602753C706.31427,442.279694,706.149719,442.283875,708.777466,440.443298z"/>
    <path transform="matrix(-0.410304,0,0,-0.410304,-900.462219,-255.795624)" style="stroke:#000000;stroke-width:0.05mm;fill:none" d="M628.913452,437.257843C630.33606,436.219116,634.476807,430.875336,638.115112,425.382782C642.667908,418.509735,647.417542,412.950104,653.349854,407.549835C661.753479,399.899963,662.031738,399.500336,664.455688,391.601685C668.53009,378.32486,675.861816,369.045563,687.356995,362.617096C691.713684,360.180695,694.95105,357.478027,696.892029,354.656921C700.560364,349.325195,706.739929,343.686523,711.704956,341.140625C716.201782,338.834778,718.808594,336.09906,722.320557,330C723.745728,327.524994,727.642761,322.428467,730.980591,318.674347C740.064514,308.457642,744.552856,302.180359,747.918457,294.985504C751.075928,288.235504,758.448547,260.393585,766.540283,224.662048L771.259155,203.824097L769.280273,201.162048C767.91333,199.323242,766.210815,198.406311,763.775024,198.197052C757.989197,197.699982,757,199.560577,757,210.940445C757,226.984253,752.213806,250.237747,743.85614,274.799133C738.179077,291.482849,736.608582,294.785431,730.943481,301.952271C723.62793,311.207184,690.942383,343.912018,679.306702,353.619629C664.850769,365.680115,656.157227,376.398102,649.797913,390C645.54364,399.099365,643.862427,401.50592,637.194397,408.040955C623.443665,421.517517,615,431.774292,615,435.001251C615,436.686646,615.732727,438.350403,616.75,438.974884C619.175171,440.463593,625.804626,439.527771,628.913452,437.257843z"/>
    <path transform="matrix(-0.410304,0,0,-0.410304,-900.462219,-255.795624)" style="stroke:#000000;stroke-width:0.05mm;fill:none" d="M396.759155,434.005402C404.009583,429.584747,405.704956,421.878448,400.445313,417.25C397.377747,414.550568,392.706573,414.333344,386.981812,416.623962C379.936401,419.442963,377.828125,427.265411,382.588898,432.923279C384.717499,435.452972,385.917603,435.999329,389.338898,435.996277C391.725006,435.99411,394.890228,435.144897,396.759155,434.005402z"/>
    <path transform="matrix(-0.410304,0,0,-0.410304,-900.462219,-255.795624)" style="stroke:#000000;stroke-width:0.05mm;fill:none" d="M861.315735,429.867676C862.51709,429.244873,866.424988,425.951508,870,422.549072C873.575012,419.146606,879.286255,414.482239,882.69165,412.183777C889.350037,407.689728,892,404.685242,892,401.630157C892,400.571503,891.028076,397.039764,889.84021,393.78186C887.890442,388.434479,887.793213,387.246216,888.84021,381.563904C889.478088,378.101929,890,374.533783,890,373.634705C890,368.03009,879.107361,365.801758,874.454529,370.454559C871.33728,373.571838,871.369751,374.309479,875,382.840485C881.452942,398.004608,877.118774,407.45871,861.576355,412.121552C852.386536,414.878571,849.739746,419.728516,853.478943,426.95932C855.543945,430.952545,857.688049,431.74826,861.315735,429.867676z"/>
    <path transform="matrix(-0.410304,0,0,-0.410304,-900.462219,-255.795624)" style="stroke:#000000;stroke-width:0.05mm;fill:none" d="M729.046082,423.163788C732.235291,420.581299,731.832886,416.598755,727.571106,408.565338C724.624329,403.010773,724,400.787933,724,395.851196C724,388.843231,722.972656,386.460938,719.583679,385.610352C715.604614,384.611694,712.231384,386.827271,710.390015,391.648834C708.119751,397.593414,709.09314,403.567383,713.748291,412.260193C720.223694,424.351959,724.135498,427.140137,729.046082,423.163788z"/>
    <path transform="matrix(-0.410304,0,0,-0.410304,-900.462219,-255.795624)" style="stroke:#000000;stroke-width:0.05mm;fill:none" d="M335.315735,410.850281C336.51709,410.217957,337.830597,409.205444,338.23468,408.600281C339.812744,406.236938,338.87204,401.189789,336.013336,396.682068C327.949707,383.967072,326.598724,377.400421,329.906769,367C332.512817,358.806549,332.537323,354.953888,330.000702,352.23111C327.08963,349.106445,320.144073,345.258789,310.747803,341.565521C306.211517,339.782501,300.253571,337.125824,297.507965,335.661835C287.585052,330.370789,278,333.018005,278,341.04953C278,346.325684,280.370972,347.646576,291,348.291809C311.462219,349.534027,321.32193,358.463654,318.110138,372.844513C315.249268,385.653992,315.261414,385.7435,321.467682,397.609467C326.803955,407.811981,329.920502,412,332.176514,412C332.701752,412,334.11441,411.482635,335.315735,410.850281z"/>
    <path transform="matrix(-0.410304,0,0,-0.410304,-900.462219,-255.795624)" style="stroke:#000000;stroke-width:0.05mm;fill:none" d="M393.365143,399.927429C401.329865,393.662384,391.112915,379.833588,379.500336,381.161194C375.462799,381.622772,374.238068,385.20697,375.985382,391.447784C377.866089,398.16507,381.78418,402,386.766357,402C389.26236,402,391.706024,401.232483,393.365143,399.927429z"/>
    <path transform="matrix(-0.410304,0,0,-0.410304,-900.462219,-255.795624)" style="stroke:#000000;stroke-width:0.05mm;fill:none" d="M860.54187,396.953705C863.231506,393.98175,862.687927,389.536194,858.594727,381.028198C854.516785,372.552063,854.160095,368.88974,856.964539,364.290344C859.414734,360.27182,864.97406,357.394104,874.27594,355.329285C884.207764,353.124634,886.828247,351.591858,889.056641,346.683685C891.160095,342.050598,891.620056,332.648773,890.016724,327.058228C888.769714,322.710175,883.626526,317.361877,879.328003,315.943237C876.342896,314.958069,875.099182,315.269165,866.872681,319.058655C858.034241,323.130035,857.485168,323.249756,850.183289,322.69751C841.285828,322.024597,837.352539,323.291809,834.081848,327.885101C829.62262,334.14743,832.583496,341.906372,838.962463,340.674652C841.309021,340.221588,852.510498,335.897858,864.5,330.817322C872.218445,327.546631,877.620422,327.294739,880.572266,330.067871C885.681824,334.868073,882.307983,341.848328,873.864929,343.944916C865.822205,345.942078,853.53595,350.189117,849.786194,352.268311C842.749695,356.169983,841.585449,362.649475,845.007507,378.862946C847.864258,392.397644,848.863403,395.720551,850.597839,397.454987C852.832336,399.689453,858.316223,399.413025,860.54187,396.953705z"/>
    <path transform="matrix(-0.410304,0,0,-0.410304,-900.462219,-255.795624)" style="stroke:#000000;stroke-width:0.05mm;fill:none" d="M912.315735,391.845001C917.179504,389.273132,941.276978,371.459564,943.555542,368.751617C946.61676,365.113586,946.605957,363.973846,943.44696,357.296234C939.884644,349.766235,939.426392,343.92099,941.524841,332.779541C943.492859,322.330505,943.107361,319.016479,939.504761,315.413879C936.44342,312.352509,932.513184,312.280304,930.585815,315.25C929.34906,317.155609,929.265015,320.550385,930.036804,337.429535C930.537964,348.390778,930.676697,358.515778,930.345154,359.929535C928.509521,367.756195,922.529297,373.371124,912.59375,376.596771C905.788513,378.806152,903,381.463715,903,385.740051C903,392.388519,906.70105,394.813965,912.315735,391.845001z"/>
    <path transform="matrix(-0.410304,0,0,-0.410304,-900.462219,-255.795624)" style="stroke:#000000;stroke-width:0.05mm;fill:none" d="M302,377C303.100006,375.899994,304,373.845428,304,372.434265C304,366.105896,299.515686,363.356201,287.544891,362.344299C278.596161,361.58786,275.459045,363.036102,274.4552,368.387146C273.285278,374.62326,275.482452,376.543915,285.463898,378.010529C295.180115,379.438141,299.847046,379.152954,302,377z"/>
    <path transform="matrix(-0.410304,0,0,-0.410304,-900.462219,-255.795624)" style="stroke:#000000;stroke-width:0.05mm;fill:none" d="M794.4552,368.378815C796.708069,367.514313,798.610168,363.393066,799.465393,357.523468C800.466187,350.654724,802.997986,346.142395,809.072327,340.401581C812.605896,337.062012,815.319336,333.201477,817.587097,328.287231C819.548157,324.037659,823.168701,318.623596,826.399963,315.108795C830.157104,311.022003,832.221313,307.782104,832.954163,304.821594C835.499756,294.538544,836.302124,292.297363,838.696899,288.780579C840.089905,286.734894,843.341431,283.705994,845.922485,282.049744C853.143738,277.415863,854.413086,275.577271,861.471191,259.527496C872.787659,233.794403,875.702271,221.74588,872.585266,213.584137C871.24408,210.072296,869.000977,207.628326,861.698059,201.722122C856.639099,197.630737,851.375,193.674469,850,192.930389C846.864563,191.233658,830.31543,191.248932,824.09198,192.9543C815.662659,195.264114,811.483032,202.483032,815.974548,206.974564C819.45636,210.45636,822.485535,210.485931,831.000305,207.121185C835.344482,205.404541,840.061035,204,841.481506,204C850.698181,204,861.956055,215.271896,861.956055,224.5C861.956055,228.68956,858.985107,234.782486,853.594421,241.648361C850.538269,245.540741,848.11554,250.154648,846.358398,255.428574C844.646362,260.567169,841.53772,266.549286,837.524353,272.428589C834.118469,277.417847,827.592346,288.024994,823.021729,296C814.863525,310.234894,805.471191,324.623627,795.279419,338.5C787.486511,349.110291,783,357.063721,783,360.268097C783,365.642517,789.532532,370.267822,794.4552,368.378815z"/>
    <path transform="matrix(-0.410304,0,0,-0.410304,-900.462219,-255.795624)" style="stroke:#000000;stroke-width:0.05mm;fill:none" d="M912.658691,360.541321L916.11731,357.082672L915.808655,337.074768C915.479614,315.746552,915.317749,315.059235,910.266663,313.545227C908.621277,313.052032,907.344421,313.564636,905.416809,315.492279C903.167236,317.741852,902.88031,318.697144,903.370667,322.304382C903.684387,324.611969,904.227905,330.325012,904.578491,335C905.175781,342.964081,905.0177,343.996124,902.070984,351.36911C899.13324,358.719788,899.028809,359.39505,900.486084,361.61911C902.947571,365.375824,908.297913,364.9021,912.658691,360.541321z"/>
    <path transform="matrix(-0.410304,0,0,-0.410304,-900.462219,-255.795624)" style="stroke:#000000;stroke-width:0.05mm;fill:none" d="M767.457886,352.837219C768.91803,352.171967,771.468567,349.069946,773.419128,345.587219C775.294189,342.239258,779.011047,336.575012,781.678833,333C792.962341,317.879547,805.289673,299.159882,814.84436,282.63681C815.754944,281.062073,818.684082,276.117706,821.353516,271.649353C828.416077,259.827209,830.726685,254.968445,833.577087,245.945297C835.596924,239.551407,837.144348,236.757568,841.061707,232.4319C846.481079,226.447586,847.051636,224.261658,843.931091,221.437653C841.926025,219.623062,841.717834,219.620834,837.181091,221.365479C827.516907,225.081924,820.531738,225.242294,812.397461,221.934494C810.69104,221.240585,808.629639,220.928131,807.816528,221.240158C806.093628,221.901291,803.494263,228.772247,798.638733,245.5C791.786011,269.108246,789.810364,279.217041,788.401428,297.880737C787.628174,308.124237,786.539246,310.428131,776.590088,322.871277C765.889709,336.253937,760.058838,348.956085,762.992981,352.491547C764.492981,354.29892,764.285156,354.282837,767.457886,352.837219z"/>
    <path transform="matrix(-0.410304,0,0,-0.410304,-900.462219,-255.795624)" style="stroke:#000000;stroke-width:0.05mm;fill:none" d="M962.341431,351.175232C964.156006,349.170135,965.818848,342.539001,968.942688,324.850494C971.318481,311.397675,971.494995,307.011658,969.75,304.792938C969.0625,303.918793,964.349548,301.298126,959.276794,298.969238C950.371826,294.88092,949.966431,294.791962,947.526794,296.390472C943.690369,298.904205,944.372375,301.681335,950.101624,306.875122C958.712097,314.680908,959.504028,318.167755,955.992981,332.813354C953.600586,342.792725,953.509521,346.150909,955.525696,350.049652C957.262634,353.408508,959.922791,353.847809,962.341431,351.175232z"/>
    <path transform="matrix(-0.410304,0,0,-0.410304,-900.462219,-255.795624)" style="stroke:#000000;stroke-width:0.05mm;fill:none" d="M746.830078,345.25C747.958496,344.287506,749.987549,340.722656,751.33905,337.328156C753.994263,330.659302,756.92041,326.055145,766.656433,313.227173C773.525452,304.176636,774.336121,301.99408,775.962036,288.174622C777.307861,276.735901,779.018555,268.420654,783.554504,251.269485C790.313049,225.714188,792.05835,220.589645,796.147644,214.293106C801.178955,206.546097,802.041992,201.580246,799.022644,197.75C796.31842,194.319534,792.119751,194.119354,788.535522,197.25C786.480164,199.045288,785.668091,201.177948,784.517273,207.802689C783.723999,212.369171,782.166199,219.344162,781.055542,223.302689C778.525269,232.320786,772.318298,257.552917,767.477295,278.5C765.443604,287.299988,762.544067,297.200012,761.033936,300.5C757.916626,307.312012,749.920654,318.715302,740.965637,329.119995C734.057007,337.147003,732.516235,340.22757,734.012146,343.022644C736.227112,347.161407,743.17395,348.368561,746.830078,345.25z"/>
    <path transform="matrix(-0.410304,0,0,-0.410304,-900.462219,-255.795624)" style="stroke:#000000;stroke-width:0.05mm;fill:none" d="M345.224365,335.913422C348.1409,331.988647,348.625732,325.994324,346.262665,323.07605C344.501434,320.901031,343.513123,320.669403,335.412476,320.533234C325.949402,320.374146,324.472076,319.873779,317.298126,314.397766C309.731598,308.622101,301.454651,310.747498,302.19104,318.277039C302.584625,322.301331,306.44278,324.983734,316.801453,328.434967C321.035645,329.845703,327.424988,332.81134,331,335.025269C338.537598,339.693146,342.243652,339.924561,345.224365,335.913422z"/>
    <path transform="matrix(-0.410304,0,0,-0.410304,-900.462219,-255.795624)" style="stroke:#000000;stroke-width:0.05mm;fill:none" d="M859.529907,307.551971C864.166992,305.614441,865.691406,302.237762,863.682678,298.353241C862.851074,296.745056,861.029846,294.818726,859.635498,294.07251C854.439941,291.291931,848,296.731567,848,303.900635C848,308.817261,852.836182,310.348785,859.529907,307.551971z"/>
    <path transform="matrix(-0.410304,0,0,-0.410304,-900.462219,-255.795624)" style="stroke:#000000;stroke-width:0.05mm;fill:none" d="M336.402985,302.75C340.248688,296.778687,339.077545,287.067902,333.423767,278.047424C331.511414,274.996338,329.064545,269.575012,327.986206,266C326.907898,262.424988,324.904541,257.305328,323.534302,254.62294C320.477905,248.63974,320.207275,247.082092,319.131897,229.282745C317.901062,208.910553,316.704529,207.546707,298.022552,205.221695C291.49472,204.409286,285.106659,204.016449,283.826874,204.348709C282.547089,204.680969,278.443939,207.610229,274.70874,210.85817C270.874573,214.192169,265.664734,217.619492,262.743805,218.729355C259.898254,219.810577,256.701416,221.858734,255.639664,223.280807C253.764664,225.79216,253.756058,226.220108,255.339844,238.183212C257.6185,255.394958,258.50061,279.120117,257.131531,286.371613C255.746414,293.707855,256.457428,296.825714,259.701172,297.639862C263.318176,298.547668,269.580017,296.349365,271.94635,293.341064C274.370636,290.259094,274.515594,286.510681,272.500946,279C270.13559,270.181854,266.791046,244.015976,267.227661,237.744812C267.775665,229.874115,271.449005,224.795685,280,220.086975C285.743958,216.923996,287.330719,216.507233,293.642151,216.503845C299.380768,216.500748,301.218689,216.892563,302.994537,218.497635C307.30484,222.393387,308.198456,225.769196,309.136292,241.699142C310.159058,259.071472,311.184143,262.920746,317.836975,274.370636C322.223053,281.919312,322.4711,282.75824,322.972809,291.740234C323.440521,300.113281,323.766357,301.393677,325.860779,303.08905C329.185791,305.780518,334.562592,305.607605,336.402985,302.75z"/>
    <path transform="matrix(-0.410304,0,0,-0.410304,-900.462219,-255.795624)" style="stroke:#000000;stroke-width:0.05mm;fill:none" d="M306,296C309.134949,292.865051,308.520233,288.351563,303.886749,280.484131C297.158966,269.060577,295.845154,264.26123,295.267975,249C294.987183,241.574997,294.346191,234.712494,293.843536,233.75C293.246552,232.606857,291.753265,232,289.537384,232C285.752258,232,282.575745,235.102173,281.542145,239.808121C280.99762,242.287354,284.026398,261.963623,287.421051,278C288.177826,281.575012,289.102509,286.264496,289.475922,288.421112C290.880402,296.532928,300.880463,301.119537,306,296z"/>
    <path transform="matrix(-0.410304,0,0,-0.410304,-900.462219,-255.795624)" style="stroke:#000000;stroke-width:0.05mm;fill:none" d="M261.05423,204.13443C266.344574,200.724472,270.516327,196.357178,271.456909,193.244125C272.441803,189.984421,269.382446,180.458252,266.215393,176.923141C262.041412,172.264099,257.523651,171.701828,238.675079,173.495575C220.274078,175.246704,219.367798,175.444244,217.998795,178.002243C215.532486,182.610596,221.511215,189.054443,228.913132,189.765671C235.884308,190.435516,238.247025,189.609467,244.016754,184.485123C250.184341,179.007416,254.610947,178.41864,257.927429,182.634857C261.635956,187.349503,260.126831,191.904388,253.499069,196.00058C249.592499,198.414963,248.262329,201.753128,249.95015,204.90686C251.533981,207.866257,255.71579,207.575363,261.05423,204.13443z"/>
    <path transform="matrix(-0.410304,0,0,-0.410304,-900.462219,-255.795624)" style="stroke:#000000;stroke-width:0.05mm;fill:none" d="M781.777466,185.443298C786.344299,182.244583,783.607849,175.689804,776.596497,173.03299C774.999512,172.427872,767.349548,171.519958,759.596497,171.015411C751.843384,170.510864,741.582458,169.786148,736.794434,169.404922C729.545471,168.827759,727.663086,168.990738,725.544434,170.378937C720.824463,173.471573,723.573914,180.754578,730.265625,182.884872C734.387634,184.197098,745.117126,184.481827,756,183.567795C763.19397,182.963593,765.345093,183.161194,770,184.853882C776.791504,187.323517,778.939636,187.431015,781.777466,185.443298z"/>
</svg>
