<?xml version="1.0" encoding="UTF-8"?>
<svg xmlns="http://www.w3.org/2000/svg" width="258.101mm" height="216.878mm" viewBox="-1532.488037 -262.737732 258.101074 216.877594">
    <path transform="matrix(-1,0,0,-1,0,0)" style="stroke:none;fill:#ff0000;fill-rule:evenodd" d="M1315.777222,261.08429C1313.257813,258.544128,1311.920044,255.339432,1311.913818,251.828857C1311.9104,249.871414,1310.704712,245.335114,1309.111816,241.286102C1308.620239,240.036652,1308.023926,238.25647,1307.786621,237.330154C1307.549316,236.403839,1306.882202,234.568985,1306.304077,233.252701C1305.726074,231.936401,1305.072998,230.271301,1304.852905,229.552429C1304.632935,228.833572,1303.995361,227.166901,1303.436157,225.848724C1302.876953,224.530548,1302.218262,222.744202,1301.972534,221.879074C1301.726685,221.013947,1301.168823,219.467773,1300.732788,218.443146C1299.661255,215.925034,1299.309692,214.619293,1298.947632,211.811829C1298.4552,207.994659,1298.995605,196.960892,1299.815796,194.08696C1301.704956,187.466995,1303.867798,182.13031,1306.82373,176.795837L1307.756104,175.11319L1307.28833,173.621231C1306.51416,171.152283,1305.687256,169.793457,1303.748169,167.803711C1302.73291,166.761978,1301.377808,165.166199,1300.736694,164.257553C1299.390869,162.34996,1296.885742,157.757645,1296.532593,156.550461C1295.665894,153.587921,1295.200439,145.20166,1295.767334,142.764206C1295.90271,142.18219,1296.037842,139.563141,1296.067505,136.944092C1296.113892,132.855194,1296.05603,132.055878,1295.658447,131.288452C1294.398193,128.856308,1291.275757,117.746681,1291.275757,115.695061C1291.275757,115.090179,1291.050293,114.001717,1290.774658,113.27626C1290.165649,111.673485,1288.090454,108.708412,1287.027832,107.922836C1286.134766,107.262566,1282.256226,101.925552,1279.046753,96.940552C1278.504761,96.098587,1277.731567,94.943748,1277.328735,94.374245C1276.600708,93.344925,1276.595947,93.310394,1276.533203,88.554138C1276.498535,85.922585,1276.396606,83.114731,1276.306763,82.314468C1276.216797,81.514206,1276.043091,79.668961,1275.920654,78.213943C1275.5802,74.167038,1275.1875,69.802223,1274.861694,66.441452C1274.699463,64.768173,1274.503418,61.558434,1274.426025,59.308701C1274.275879,54.940762,1274.550171,52.791756,1275.348877,52.076523C1275.993164,51.499695,1278.52771,51.097534,1281.518799,51.097534C1282.937622,51.097534,1284.402466,50.981941,1284.77417,50.840656C1285.145752,50.699371,1286.225952,50.504257,1287.174561,50.407066C1288.87561,50.232796,1288.920166,50.244961,1290.418213,51.290611C1291.253662,51.873749,1292.440674,52.605747,1293.05603,52.917271C1294.680664,53.739719,1295.099854,54.692158,1294.677979,56.60339C1294.31543,58.245674,1293.994751,58.630268,1290.972534,61.04628C1288.869629,62.727455,1288.942261,62.426655,1288.728149,70.346283L1288.58313,75.706131L1289.841675,77.852753C1290.533813,79.033401,1291.717041,80.669083,1292.470947,81.48761C1293.224854,82.306137,1294.17688,83.511559,1294.586426,84.166321C1294.996094,84.821083,1296.031616,86.087181,1296.887695,86.979881C1297.743774,87.872574,1299.003906,89.384384,1299.687988,90.339447C1304.122559,96.530312,1304.183838,96.600182,1305.186279,96.600182C1305.808472,96.600182,1306.619751,95.589508,1306.619629,94.814468C1306.619507,94.41433,1306.372559,93.437492,1306.070923,92.643707C1305.45105,91.012993,1305.453369,90.908768,1306.293701,82.446747L1306.819092,77.155739L1308.637329,73.452034C1310.735962,69.177338,1310.962769,68.977356,1313.233398,69.399261C1314.663818,69.665016,1321.979004,69.530106,1324.271606,69.195686C1325.259888,69.051529,1325.476807,69.1203,1326.146606,69.7901C1327.553345,71.196785,1328.287354,76.543549,1327.346069,78.527069C1326.540283,80.225166,1323.364136,81.560898,1321.457764,81.003433C1320.129395,80.615028,1319.324585,81.109528,1318.462524,82.843567C1317.602661,84.573303,1317.235474,86.92337,1317.174438,91.087418C1317.130249,94.103935,1317.141968,94.169128,1317.934937,95.30957C1318.377808,95.946655,1319.241821,96.937965,1319.854736,97.512482C1321.249146,98.819458,1323.586548,101.73838,1326.328735,105.596878C1329.95459,110.698959,1330.244019,111.048302,1332.78894,113.3937C1335.485474,115.878769,1340.108643,119.104118,1341.720581,119.624786C1342.276245,119.80426,1343.504639,120.347198,1344.450439,120.831306C1345.396118,121.315414,1347.122314,121.940758,1348.286377,122.220955C1349.450439,122.50116,1350.888916,122.927551,1351.483154,123.168488C1353.417114,123.952698,1364.94043,123.484039,1369.318115,122.44313C1371.516968,121.92028,1375.853516,121.629066,1380.561523,121.688087C1396.056274,121.882324,1402.11853,121.841644,1403.841919,121.531876C1404.860474,121.348801,1406.58667,121.083252,1407.677856,120.941757C1408.769165,120.800255,1410.971558,120.267479,1412.572021,119.757782C1414.172607,119.248093,1416.15564,118.645294,1416.978882,118.418236C1417.802124,118.191177,1418.776123,117.704918,1419.143433,117.337685C1419.739136,116.741943,1420.376343,114.824638,1420.376343,113.627823C1420.376343,113.404167,1420.605591,112.368355,1420.885742,111.326027C1421.385742,109.466362,1422.10498,105.292801,1422.511719,101.89119C1422.624878,100.945419,1422.845825,99.516846,1423.002686,98.716583C1423.159668,97.916321,1423.402344,96.190132,1423.54187,94.880608C1423.681519,93.571075,1423.927246,91.725845,1424.087891,90.780075C1424.248657,89.834305,1424.486328,88.048592,1424.615967,86.811821C1424.745728,85.57505,1424.985229,83.789337,1425.148315,82.843567C1425.723999,79.504768,1425.988281,74.388596,1426.157593,63.306091L1426.328735,52.101955L1427.967041,50.562286C1429.87085,48.773285,1432.543701,47.114563,1434.796875,46.323845C1438.817017,44.913013,1446.079224,46.867126,1447.897339,49.848923C1448.636963,51.061909,1448.625977,54.520351,1447.876465,56.421795C1447.555054,57.237095,1447.366455,58.237808,1447.413452,58.878677L1447.492676,59.959969L1449.21228,60.171608C1450.158081,60.28801,1451.2146,60.585629,1451.560303,60.832981C1453.346069,62.111103,1453.600098,62.205883,1455.243896,62.207253C1457.463135,62.209106,1458.267456,62.66457,1459.116699,64.400345C1460.312378,66.844391,1460.546997,70.484016,1459.626587,72.311638C1458.98291,73.58963,1458.312256,73.848862,1455.649658,73.848862C1453.479614,73.848862,1453.131226,73.916634,1452.496826,74.462372C1451.903076,74.973068,1451.782837,75.294518,1451.779419,76.380363C1451.77356,78.225082,1452.321655,85.72422,1452.657959,88.399124C1453.617676,96.034485,1454.22229,103.088669,1454.766602,113.002296C1454.906372,115.548592,1455.133789,118.346214,1455.271851,119.219231C1455.409912,120.092239,1455.650024,121.699387,1455.80542,122.790657C1456.190918,125.498466,1457.051147,128.604736,1457.637085,129.404419C1458.280273,130.282349,1460.012939,131.226013,1461.862793,131.705872C1464.548218,132.402466,1465.600098,133.575089,1467.502808,137.993103C1468.157227,139.512543,1469.056763,141.035645,1469.862183,141.988312C1471.266724,143.649323,1472.506348,146.019516,1472.966187,147.922928C1473.12439,148.577698,1473.326782,149.411026,1473.416016,149.77478C1474.018555,152.230347,1474.490356,157.234863,1474.862549,165.118698C1475.160645,171.433792,1475.542114,176.206146,1475.79834,176.827332C1476.112305,177.588654,1477.167725,177.659348,1479.238281,177.057739C1480.675903,176.640045,1481.903564,176.49437,1483.986328,176.49437C1486.481445,176.49437,1487.02832,176.584167,1488.87854,177.297684C1491.304321,178.233139,1492.46875,179.330627,1494.066162,182.187119C1495.777832,185.247849,1496.038086,186.380569,1496.03479,190.755005C1496.03186,194.728104,1495.846313,195.797775,1494.745728,198.187485C1494.085938,199.619965,1494.033203,200.90712,1494.610596,201.484451C1495.096191,201.970093,1495.37439,201.912338,1497.973755,200.78595C1500.366577,199.749084,1504.22583,198.477463,1506.355103,198.024323C1510.658325,197.10849,1517.587158,197.951447,1521.302246,199.842789C1523.196777,200.807281,1527.680664,203.94104,1528.415161,204.813919C1528.809326,205.282303,1529.383057,206.155594,1529.690308,206.754562C1530.508301,208.349319,1531.469482,212.121323,1531.484619,213.795944C1531.491943,214.596222,1531.686401,216.203354,1531.91687,217.367386C1532.639282,221.016586,1532.678589,223.746796,1532.033447,225.466309C1531.727051,226.283157,1531.266479,227.141388,1531.01001,227.373474C1530.472412,227.860031,1525.872314,230.164215,1523.154053,231.308502C1519.097656,233.016159,1516.755127,233.965149,1515.740479,234.311951C1514.665527,234.679337,1510.44043,236.959503,1509.707397,237.567825C1508.783813,238.334351,1508.207275,240.191376,1508.197632,242.430634C1508.1875,244.796249,1508.08606,245.067627,1506.487427,247.004623C1504.136353,249.853485,1502.709106,251.063278,1500.231323,252.307678C1497.039063,253.910904,1495.857056,254.235474,1490.217529,255.057205C1489.126343,255.216202,1487.571533,255.461761,1486.762451,255.602875C1484.734985,255.956512,1476.184692,255.925873,1474.228271,255.557953C1469.47522,254.664139,1466.202393,253.642471,1463.177734,252.108383C1459.636353,250.312225,1458.329346,249.086456,1456.959473,246.276794C1456.496704,245.327744,1455.538086,243.792023,1454.829346,242.864075C1454.120483,241.936127,1453.090088,240.403091,1452.539551,239.457321C1451.989014,238.511551,1450.675171,236.725845,1449.619873,235.489075C1448.564453,234.252304,1447.303345,232.585648,1446.817383,231.78537C1446.331421,230.985092,1445.440918,229.759354,1444.838379,229.061493C1443.575195,227.598175,1441.537598,224.260208,1440.848877,222.526108C1440.588867,221.871353,1439.79895,220.483063,1439.093506,219.441025C1438.387939,218.399002,1437.338867,216.39122,1436.762207,214.979324C1436.185547,213.567413,1435.081543,211.503326,1434.309082,210.392456C1433.536499,209.281555,1432.56543,207.781433,1432.151245,207.058823C1431.736938,206.336197,1429.882324,204.236053,1428.029663,202.391846C1423.661377,198.043274,1423.302612,197.886032,1417.20166,197.646729C1411.540039,197.424637,1408.312012,196.538116,1404.982788,194.290985C1402.535278,192.638947,1400.095337,192.062119,1394.450439,191.801071C1389.841309,191.587921,1384.822632,191.283859,1377.519165,190.775253C1368.162842,190.123688,1365.269531,189.969635,1357.677856,189.718826C1348.156494,189.404266,1349.774048,189.404449,1340.746704,189.716934C1332.435303,190.004623,1327.148682,190.34227,1324.476807,190.756073C1323.458374,190.913818,1321.939453,191.142532,1321.101563,191.264343C1318.782959,191.601379,1317.711792,192.855545,1316.847046,196.245361C1316.618408,197.141479,1316.021606,198.927185,1315.520752,200.213608C1313.949585,204.248947,1313.778809,206.786591,1314.526733,214.98642C1314.771118,217.666321,1314.894775,218.624908,1315.585205,223.187485C1316.035034,226.160263,1317.556641,230.230042,1319.277466,233.062485C1320.172852,234.536224,1320.905396,235.842743,1320.905396,235.965805C1320.905396,236.088898,1321.731079,237.571045,1322.740356,239.259491C1323.749512,240.947937,1324.770996,242.903427,1325.010254,243.605011C1325.92981,246.301071,1326.078003,251.778549,1325.352417,256.256287C1325.005615,258.396667,1324.437378,259.666931,1323.376709,260.673096C1322.337769,261.658691,1319.785034,262.737732,1318.492432,262.737732C1317.524902,262.737732,1317.253174,262.572266,1315.777222,261.08429M1425.712646,114.68087C1426.265259,114.180717,1426.346436,113.258171,1425.878906,112.790665C1425.392944,112.304649,1424.395508,112.41291,1424.089355,112.984909C1423.27478,114.506836,1424.495605,115.782272,1425.712646,114.68087M1421.285034,174.225052C1422.095825,173.414246,1422.291748,172.789032,1421.974609,172.023422C1421.155151,170.045273,1417.466309,169.833389,1417.466309,171.764496C1417.466309,173.701645,1420.107056,175.403137,1421.285034,174.225052M1330.058838,118.716583C1331.239258,117.536224,1331.239258,116.669426,1330.058838,115.489067C1328.309692,113.739861,1326.464355,114.737427,1326.461914,117.433517C1326.459961,119.675568,1328.405762,120.369659,1330.058838,118.716583M1410.633301,136.109436C1411.219971,135.578491,1411.246826,134.920074,1410.723145,133.907379C1410.254395,133.001007,1409.58374,132.735565,1408.654785,133.088715C1407.395264,133.567642,1407.022949,135.098602,1407.942505,136.018173C1408.589355,136.665085,1409.967651,136.711838,1410.633301,136.109436M1447.670288,154.363419C1448.386108,153.715637,1448.322632,151.691238,1447.550415,150.541428C1446.423706,148.863708,1444.185791,149.337387,1444.185791,151.253586C1444.185791,153.827774,1446.238159,155.65947,1447.670288,154.363419M1456.421265,69.828308C1457.498291,68.582764,1456.46167,65.857048,1454.850952,65.699066C1454.234253,65.638588,1453.918091,65.77079,1453.602783,66.220901C1453.12207,66.907265,1453.041992,68.862747,1453.462402,69.648369C1454.04834,70.743134,1455.55127,70.834534,1456.421265,69.828308M1325.470825,137.244995C1328.22229,134.695007,1327.445679,130.01445,1324.551514,131.704712C1322.720215,132.774292,1321.325073,136.399994,1322.350342,137.425293C1323.02124,138.096222,1324.654175,138.001862,1325.470825,137.244995M1412.821533,152.586746C1414.480713,151.499649,1412.874756,147.393829,1410.790405,147.393829C1408.799927,147.393829,1407.808472,151.06189,1409.309937,152.871048C1409.736694,153.385208,1411.866089,153.212799,1412.821533,152.586746M1377.223755,165.480957C1377.5625,165.243683,1378.015015,164.629852,1378.229248,164.116882C1378.58728,163.260284,1378.578125,163.12944,1378.11731,162.512268C1377.200439,161.284286,1375.209839,161.18515,1374.459595,162.330109C1373.963623,163.087128,1374.212402,164.369797,1375.025635,165.247208C1375.741333,166.019424,1376.36084,166.085312,1377.223755,165.480957M1440.640869,112.896477C1441.866577,111.670753,1441.880981,110.556717,1440.680542,109.824799C1439.567871,109.146416,1438.252197,109.147644,1437.572021,109.827698C1436.931152,110.468575,1436.874512,111.909126,1437.446655,113.015434C1438.042847,114.168488,1439.420166,114.117203,1440.640869,112.896477M1399.899902,144.117157C1400.670532,142.462006,1400.701904,141.476044,1400.005981,140.780075C1399.424927,140.199081,1398.165039,140.084946,1397.320679,140.536835C1396.133057,141.172424,1395.561523,144.516052,1396.50061,145.334198C1397.751953,146.424225,1399.040527,145.962891,1399.899902,144.117157M1442.077759,200.817474C1442.552612,199.930054,1442.097778,198.744186,1440.743286,197.338989C1439.693481,196.249802,1439.364258,196.052261,1438.852783,196.204605C1437.551514,196.592148,1437.174194,198.194901,1437.982788,199.898987C1438.477051,200.940384,1439.183716,201.320297,1440.671265,201.344177C1441.537231,201.358078,1441.851318,201.240448,1442.077759,200.817474M1364.622803,185.737015C1365.234985,184.981094,1365.151367,183.255203,1364.450806,182.186005C1363.27417,180.390259,1359.259277,182.335022,1359.270264,184.695419C1359.276611,186.068954,1360.230591,186.582626,1362.545288,186.458939C1363.817749,186.390945,1364.201172,186.257675,1364.622803,185.737015M1348.061768,185.654129C1348.732666,185.076965,1348.771851,184.942368,1348.539429,184.009583C1348.200928,182.650528,1346.822388,181.680359,1345.524414,181.88765C1344.276123,182.086975,1343.623413,182.827057,1343.466309,184.221054C1343.282104,185.855118,1343.761475,186.28273,1345.777344,186.28273C1347.031494,186.28273,1347.471802,186.161575,1348.061768,185.654129M1398.928833,129.281921C1399.781494,128.841003,1400.005981,128.401947,1400.005981,127.17511C1400.005981,126.120193,1399.345825,125.467491,1398.069458,125.260361C1395.682007,124.872932,1394.227661,125.885513,1394.567749,127.698425C1394.828125,129.08609,1395.540649,129.668976,1396.976807,129.668976C1397.638794,129.668976,1398.517212,129.494797,1398.928833,129.281921M1489.421021,203.876831C1490.987061,203.066971,1491.458374,201.544647,1490.453857,200.540176C1489.968506,200.054825,1489.65686,199.996368,1488.041016,200.087662C1486.401001,200.180328,1486.111328,200.278778,1485.546509,200.935486C1484.777954,201.828964,1484.897705,202.503708,1486.009644,203.544632C1486.904175,204.382004,1488.200073,204.508209,1489.421021,203.876831M1493.590576,225.558563C1494.141602,225.172562,1494.979492,222.995163,1494.979492,221.94899C1494.979492,221.084885,1494.019043,220.409714,1492.789673,220.409714C1491.013916,220.409714,1489.711426,221.501511,1489.696899,223.002213C1489.674805,225.298401,1491.887695,226.751297,1493.590576,225.558563M1444.332275,216.804657C1445.229492,216.216766,1445.606934,214.879257,1445.249878,213.553116C1444.901978,212.261047,1444.380737,211.944092,1442.603882,211.944092C1441.517334,211.944092,1441.122925,212.072937,1440.595947,212.599884C1439.866333,213.329468,1439.903076,213.943741,1440.78064,215.696457C1441.672241,217.476974,1442.779175,217.822327,1444.332275,216.804657M1302.738159,140.948456C1304.08606,140.385269,1305.030518,138.585281,1304.633911,137.335632C1304.305908,136.302307,1301.486206,135.405212,1300.16272,135.913086C1299.581299,136.13623,1299.133545,138.010162,1299.33728,139.368301C1299.605957,141.160034,1300.849243,141.737701,1302.738159,140.948456M1381.27002,151.054321C1382.875732,149.932892,1382.776367,147.684326,1381.090088,146.979736C1379.968506,146.511108,1379.184448,146.664795,1377.301147,147.722366C1375.776855,148.578354,1375.24292,149.366287,1375.498047,150.383163C1375.854492,151.80304,1379.578003,152.236023,1381.27002,151.054321M1448.6073,163.518219C1449.394165,163.243927,1450.007324,162.344421,1450.004517,161.468689C1450.001343,160.498367,1449.402954,158.936066,1448.805786,158.338867C1448.002686,157.535873,1447.240356,157.542831,1446.422485,158.360641C1445.890503,158.892609,1445.773193,159.272934,1445.773193,160.4646C1445.773193,162.251602,1446.164673,163.169678,1447.067993,163.501205C1447.447021,163.64035,1447.769287,163.76358,1447.783936,163.77507C1447.798584,163.78656,1448.169067,163.670975,1448.6073,163.518219M1424.918823,130.468597C1426.454834,128.987991,1426.633423,127.934692,1425.49939,127.042664C1424.710327,126.421974,1424.355957,126.383942,1422.963867,126.770554C1421.413208,127.201225,1420.376343,128.220047,1420.376343,129.313049C1420.376343,130.546036,1420.782227,131.230026,1421.757446,131.640045C1422.870605,132.108109,1423.434692,131.899109,1424.918823,130.468597M1455.660034,138.757538C1456.044922,138.372665,1456.731079,137.303558,1457.184937,136.381729C1457.973267,134.780411,1457.990723,134.676147,1457.57605,134.043381C1456.654663,132.637177,1454.989014,132.96994,1452.861816,134.985138C1452.009766,135.792236,1451.857788,136.104492,1451.857788,137.04744C1451.857788,139.253479,1454.138428,140.279205,1455.660034,138.757538M1323.69519,76.903214C1324.532227,76.066154,1324.579102,74.482941,1323.796265,73.487709C1323.323242,72.886368,1323.049194,72.790657,1321.800171,72.790657C1320.615601,72.790657,1320.234131,72.908768,1319.702881,73.440002C1318.985107,74.157776,1318.925781,74.568794,1319.329956,76.024078C1319.666504,77.235748,1320.146851,77.53418,1321.777222,77.544518C1322.777954,77.550858,1323.182983,77.415459,1323.69519,76.903214M1307.590454,113.954124C1308.934448,112.391632,1308.000854,109.918922,1305.820313,109.26561C1304.40918,108.842842,1303.316528,109.317665,1302.637451,110.648674C1302.006592,111.885292,1301.98938,112.563354,1302.564209,113.536377C1303.178101,114.575554,1303.875366,114.862122,1305.540161,114.759384C1306.709839,114.68721,1307.087524,114.538872,1307.590454,113.954124M1312.952881,91.639862C1313.652832,91.073059,1314.114502,89.170319,1313.883667,87.804062C1313.690063,86.65815,1313.000854,86.075951,1311.561279,85.842346C1310.79895,85.718628,1310.505371,85.812164,1309.967163,86.350319C1308.802979,87.514549,1308.719971,90.499413,1309.821289,91.600662C1310.467041,92.24649,1312.177368,92.267906,1312.952881,91.639862M1489.980103,243.879898C1490.725098,243.379456,1490.8927,243.088425,1490.959351,242.180435C1491.074341,240.611862,1490.022705,239.459808,1488.298096,239.265442C1487.147705,239.135757,1486.989258,239.193558,1486.124268,240.058655C1485.346802,240.836075,1485.191162,241.180832,1485.191162,242.125473C1485.191162,243.787094,1485.935669,244.48378,1487.711304,244.48378C1488.69873,244.48378,1489.332031,244.315216,1489.980103,243.879898M1308.54895,164.004776C1309.116577,163.301117,1309.376831,162.649033,1309.467773,161.702103C1309.583252,160.500992,1309.521606,160.307938,1308.78894,159.575287C1307.880859,158.667175,1306.899902,158.551254,1305.213257,159.152771C1303.040039,159.927887,1302.716797,160.844788,1303.938232,162.770767C1305.568359,165.341187,1307.132935,165.759933,1308.54895,164.004776M1296.992432,111.024391C1299.283203,110.344101,1300.859009,107.972923,1300.15979,106.258438C1299.518188,104.685272,1297.806519,104.747658,1295.001099,106.446457C1292.499146,107.961426,1292.085571,109.17601,1293.537842,110.743088C1294.261475,111.523918,1295.084595,111.590942,1296.992432,111.024391M1433.996216,201.366943C1434.385376,200.936996,1434.446045,200.534729,1434.333252,199.130402C1434.1698,197.093948,1433.550415,195.917694,1432.285156,195.241211C1430.949707,194.527145,1429.99707,194.610657,1429.086182,195.521637C1427.810547,196.797226,1428.006592,197.448334,1430.381104,199.822891C1432.553955,201.995712,1433.183838,202.264709,1433.996216,201.366943M1453.246704,215.898743C1453.831299,215.265182,1453.974243,214.859146,1453.974243,213.831253C1453.974243,212.062531,1453.526367,210.941528,1452.635864,210.481033C1450.529907,209.391983,1448.683228,210.583389,1448.683228,213.031097C1448.683228,214.857315,1449.262939,216.108444,1450.326782,216.577988C1451.460693,217.078506,1452.348633,216.871979,1453.246704,215.898743M1449.497192,225.721054C1450.184937,225.03331,1450.270508,224.766998,1450.270508,223.31395C1450.270508,220.563232,1449.23938,219.215897,1447.178955,219.274292C1446.057495,219.306076,1444.94397,220.059967,1444.602417,221.0186C1444.104614,222.416107,1446.780029,226.49437,1448.194702,226.49437C1448.48584,226.49437,1449.071899,226.146378,1449.497192,225.721054M1451.166138,124.343643C1452.048462,123.941597,1452.481445,122.810783,1452.258545,121.49086C1452.069336,120.371269,1451.243164,119.085922,1450.714233,119.088432C1449.812622,119.092705,1448.293213,119.742287,1447.447021,120.485352C1445.72998,121.992897,1445.506958,123.645187,1446.927612,124.333099C1447.695435,124.704834,1450.358765,124.711464,1451.166138,124.343643M1480.939453,244.890396C1482.273438,244.2005,1482.408447,242.718567,1481.243164,241.553391C1480.519287,240.829498,1480.337646,240.780319,1478.399292,240.783981C1476.043213,240.788406,1475.164917,241.125397,1474.636353,242.227707C1474.156738,243.228119,1474.621948,244.153198,1475.937256,244.814072C1477.085693,245.391144,1479.888306,245.433914,1480.939453,244.890396M1283.804321,74.341896C1284.85498,74.011681,1285.191162,73.436508,1285.191162,71.969093C1285.191162,70.206841,1284.71875,69.8806,1282.166626,69.8806C1279.734009,69.8806,1278.983521,70.220901,1278.714478,71.446091C1278.495605,72.442383,1278.992676,74.281471,1279.577271,74.638168C1280.075806,74.94239,1282.415405,74.778412,1283.804321,74.341896M1315.812988,239.599106C1317.770996,238.687546,1318.008301,238.045609,1317.084839,236.158173C1316.175537,234.299789,1315.196411,233.70546,1313.755371,234.137207C1312.102783,234.632355,1311.381592,235.372925,1311.381592,236.574966C1311.381592,237.791,1311.999023,239.443787,1312.631226,239.920288C1313.290039,240.416794,1314.268921,240.317993,1315.812988,239.599106M1357.134766,133.122192C1357.993286,132.263611,1358.522461,130.98407,1358.662598,129.427658C1358.836304,127.498604,1358.294312,126.921715,1356.308228,126.921715C1355.166138,126.921715,1354.864868,127.0327,1354.334961,127.64872C1353.797974,128.273071,1353.709595,128.655472,1353.709595,130.357117C1353.709595,132.108093,1353.785156,132.414032,1354.359009,132.987854C1355.153687,133.782532,1356.413452,133.843491,1357.134766,133.122192M1457.947754,224.242935C1458.942383,223.728577,1459.266113,223.0979,1459.26123,221.683716C1459.255981,220.142639,1458.791992,219.3134,1457.611206,218.735229C1456.78064,218.328491,1456.475464,218.299881,1455.699463,218.555969C1454.283691,219.023209,1453.709717,219.939651,1453.709717,221.732452C1453.709717,223.826675,1454.349121,224.642517,1455.990723,224.642517C1456.64209,224.642517,1457.522827,224.462708,1457.947754,224.242935M1284.81543,82.319534C1286.776367,81.35939,1287.224609,80.615906,1286.659058,79.262177C1286.097778,77.91893,1285.401978,77.701263,1282.792358,78.052475C1280.048218,78.421776,1279.63562,78.754768,1279.63562,80.60022C1279.63562,81.612411,1279.787476,82.171722,1280.20752,82.705696C1280.727173,83.366341,1280.890503,83.417946,1281.993286,83.269974C1282.660767,83.180389,1283.930786,82.752701,1284.81543,82.319534M1408.523682,129.434875C1409.309448,128.732834,1409.378662,128.540192,1409.387695,127.031059C1409.39624,125.599525,1409.314209,125.32296,1408.744263,124.860962C1408.190674,124.412262,1407.867798,124.359375,1406.628174,124.514267C1405.823486,124.614792,1404.832642,124.869041,1404.426025,125.079277C1402.95166,125.841743,1402.855835,128.062225,1404.237793,129.444214C1404.868042,130.074371,1405.211426,130.198059,1406.330566,130.198059C1407.432739,130.198059,1407.820679,130.063049,1408.523682,129.434875M1322.423584,155.190262C1323.579468,154.380615,1324.033569,150.029068,1323.054688,149.143097C1321.744507,147.957458,1319.271606,148.527725,1318.109741,150.283417C1316.834106,152.210999,1317.043335,154.125076,1318.63562,155.096085C1319.629883,155.702377,1321.621704,155.751907,1322.423584,155.190262M1284.516479,66.134811C1285.269897,65.791542,1285.802856,64.349457,1285.549438,63.339867C1285.292969,62.317795,1284.175049,61.944096,1281.37439,61.944096C1278.972778,61.944096,1278.833496,61.975487,1278.417358,62.610657C1277.923584,63.364349,1278.016846,65.369278,1278.577271,66.044479C1278.98645,66.53746,1283.482666,66.60585,1284.516479,66.134811M1461.135376,215.506027C1462.23584,214.936996,1463.498047,213.109955,1463.498047,212.086182C1463.498047,211.071915,1462.425049,209.942169,1460.994629,209.450439C1459.682617,208.999359,1458.865723,209.200409,1458.044434,210.176559C1457.432373,210.903915,1457.369751,211.169662,1457.463623,212.643417C1457.572876,214.359848,1458.047363,215.217972,1459.132935,215.662247C1459.916138,215.982834,1460.266235,215.955536,1461.135376,215.506027M1437.040649,183.41568C1437.918823,182.537582,1438.336548,180.603088,1437.846069,179.686569C1437.225586,178.527328,1436.044312,178.445572,1432.73645,179.332886C1430.998169,179.799149,1429.900146,180.843018,1429.900146,182.029221C1429.900146,183.455826,1431.289917,184.058914,1434.748535,184.133209C1436.111572,184.162491,1436.376953,184.079437,1437.040649,183.41568M1449.64209,71.679031C1449.750244,71.50415,1449.859497,69.829208,1449.88501,67.956955C1449.93335,64.407814,1449.776611,63.838448,1448.730469,63.764603C1447.3927,63.670177,1446.89624,64.081924,1445.640503,66.327316C1444.588379,68.208687,1444.411133,69.796455,1445.177856,70.469498C1446.586548,71.705841,1449.189697,72.41114,1449.64209,71.679031M1348.938843,134.303192C1349.937744,133.786636,1350.209351,132.792908,1350.247559,129.515198C1350.283813,126.395538,1349.992676,125.894608,1348.120361,125.855614C1346.612305,125.824203,1346.116821,126.558266,1345.627319,129.548798C1345.224365,132.010834,1345.297974,133.090363,1345.9375,134.100189C1346.388794,134.812897,1347.772217,134.906479,1348.938843,134.303192M1341.804932,156.718826C1342.802734,156.220322,1343.182007,155.107468,1342.594971,154.400192C1342.033691,153.723755,1337.852905,151.626633,1337.065796,151.626633C1336.125122,151.626633,1334.784668,152.689209,1334.551025,153.620148C1334.30127,154.615158,1335.095703,156.05983,1336.219116,156.653473C1337.500732,157.330826,1340.509399,157.366013,1341.804932,156.718826M1307.616455,125.104691C1308.467651,124.198647,1309.595947,121.530205,1309.626953,120.349899C1309.649292,119.497375,1309.508179,119.173363,1308.87915,118.632278C1308.202148,118.04995,1307.929932,117.983322,1306.732788,118.106888C1304.376831,118.350044,1303.709595,119.119934,1303.709595,121.595413C1303.709595,123.232536,1304.037231,124.25753,1304.831543,125.105476C1305.571533,125.89537,1306.874023,125.895004,1307.616455,125.104691M1320.265015,247.658386C1321.938232,247.658386,1322.429321,246.196014,1321.467407,244.078445C1320.838013,242.69281,1320.228271,242.102829,1319.425415,242.102829C1318.391113,242.102829,1314.811768,243.722488,1314.375854,244.387817C1313.893433,245.1241,1314.097168,246.28154,1314.885742,247.284027C1315.426514,247.971634,1315.501831,247.987717,1317.420532,247.825531C1318.508057,247.733597,1319.788086,247.658386,1320.265015,247.658386M1493.830078,236.687164C1494.135742,236.473114,1494.446655,235.979431,1494.521118,235.590118C1494.692383,234.694321,1493.880981,231.241089,1493.285889,230.332809C1492.386475,228.960236,1490.636719,228.772659,1489.361938,229.91217C1488.600342,230.592972,1488.500244,230.838867,1488.516479,231.987885C1488.542725,233.843765,1489.532959,235.725189,1490.878906,236.476776C1492.112549,237.165573,1493.051514,237.232513,1493.830078,236.687164M1308.132202,215.581467C1310.52002,215.168167,1311.000977,214.735794,1310.936157,213.060791C1310.898315,212.085052,1310.73999,211.687714,1310.205566,211.228027C1309.558594,210.671509,1309.362305,210.649307,1306.417969,210.7995C1304.710205,210.886612,1303.164063,211.075317,1302.982178,211.218826C1302.261963,211.78714,1302.695435,214.673264,1303.661255,215.740479C1304.136963,216.26619,1304.186523,216.264435,1308.132202,215.581467M1320.227661,258.464233C1321.173462,258.033325,1321.964355,256.217987,1322.14502,254.063492C1322.282349,252.424805,1322.238037,252.165619,1321.734497,251.662033C1321.108398,251.035965,1320.799072,251.009293,1318.137817,251.352051C1316.134399,251.610062,1315.61438,251.999329,1315.61438,253.240967C1315.61438,254.39212,1316.699097,256.908051,1317.613281,257.87738C1318.503174,258.820862,1319.134155,258.962524,1320.227661,258.464233M1452.936279,173.60466C1454.15625,172.38475,1454.000244,171.465515,1452.153931,168.997208C1450.969482,167.413528,1450.151367,166.970551,1448.411377,166.970551C1447.265137,166.970551,1446.935425,167.090286,1446.28186,167.743866C1445.856567,168.169174,1445.508545,168.750839,1445.508545,169.036469C1445.508545,169.731476,1447.413574,172.550247,1448.568848,173.564514C1449.341187,174.242691,1449.717041,174.37796,1450.829102,174.37796C1451.950684,174.37796,1452.286133,174.254868,1452.936279,173.60466M1314.719727,82.020538C1315.932617,80.881081,1316.241943,79.464615,1315.928589,76.483315C1315.77417,75.013603,1315.506714,73.641037,1315.334229,73.433167C1315.161621,73.225288,1314.567505,73.055206,1314.013916,73.055206C1312.737427,73.055206,1312.224976,73.672935,1311.087769,76.582535C1310.137573,79.013687,1309.810425,81.299477,1310.323975,81.918297C1311.172119,82.940269,1313.678711,82.998566,1314.719727,82.020538M1310.304199,206.485138C1311.02832,205.564621,1311.037842,203.928436,1310.323364,203.213943C1310.032349,202.922943,1309.667114,202.684845,1309.511719,202.684845C1309.356323,202.684845,1307.919434,202.493378,1306.318604,202.259338C1303.408325,201.833893,1303.407837,201.833923,1302.792114,202.412445C1301.967285,203.187302,1301.703125,204.97731,1302.228271,206.233963L1302.624512,207.18219L1306.190186,207.18219C1309.727173,207.18219,1309.760376,207.176575,1310.304199,206.485138M1312.000977,198.966965C1312.960815,198.211884,1313.40332,196.501984,1312.855225,195.665512C1312.439331,195.030701,1311.020752,194.487946,1309.770508,194.485245C1309.393677,194.484436,1308.143677,194.241592,1306.992676,193.945587C1305.841797,193.649582,1304.634399,193.472748,1304.309692,193.552597C1303.520508,193.746658,1302.916016,194.987778,1302.916016,196.413773C1302.916016,198.021652,1303.380981,198.346817,1305.958374,198.540985C1307.122314,198.628677,1308.610474,198.870865,1309.265259,199.079178C1310.907959,199.601791,1311.209595,199.589417,1312.000977,198.966965M1502.235352,246.589691C1503.543945,245.383484,1504.347656,243.921036,1504.111328,243.1763C1503.94751,242.660294,1502.729614,242.104782,1501.752197,242.10025C1501.093018,242.097183,1498.916382,241.04422,1497.651978,240.11673C1496.615845,239.356674,1495.87085,239.286087,1495.03833,239.869156C1494.154053,240.488586,1494.213257,242.322647,1495.147827,243.257233C1495.531494,243.640839,1495.94397,243.954681,1496.064575,243.954681C1496.469849,243.954681,1498.210938,245.642578,1498.850098,246.655136C1499.729614,248.048218,1500.672852,248.029968,1502.235352,246.589691M1470.052856,156.241272C1470.823975,155.701233,1470.814209,154.742981,1470.001465,151.147919C1468.937256,146.43985,1468.075195,144.651855,1466.623413,144.141159C1465.995361,143.920258,1464.894775,144.867096,1464.688721,145.805573C1464.577515,146.311615,1464.750732,147.418289,1465.174561,148.910812C1465.536865,150.186264,1465.956421,152.044998,1466.107178,153.041351C1466.257813,154.037689,1466.572632,155.145279,1466.806763,155.502655C1467.538818,156.619843,1469.028442,156.958801,1470.052856,156.241272M1412.420898,186.160233C1413.165161,185.775375,1413.498047,185.270844,1413.498047,184.52771C1413.498047,184.313751,1412.689453,183.28183,1411.701172,182.234528C1410.63562,181.105438,1409.534912,179.592484,1408.996826,178.517639C1408.16394,176.853561,1407.171509,175.700714,1406.572021,175.700714C1406.439453,175.700714,1406.024048,176.007813,1405.648682,176.383148C1405.046509,176.985245,1404.985352,177.210983,1405.128052,178.301132C1405.296997,179.591614,1407.216797,183.773376,1408.233887,185.06636C1409.296631,186.417404,1411.04187,186.873337,1412.420898,186.160233M1315.483398,190.935135C1316.713501,189.704987,1316.644409,187.809265,1315.345459,187.152039C1314.984131,186.969208,1313.822998,186.817856,1312.765259,186.815735C1311.330811,186.812805,1310.428223,186.643707,1309.214355,186.150452C1308.319092,185.786697,1307.423218,185.489075,1307.223389,185.489075C1306.133545,185.489075,1304.828979,188.09433,1305.299438,189.33165C1305.556274,190.00708,1306.853394,190.497971,1308.471558,190.532089C1308.980835,190.542831,1310.171265,190.76503,1311.117065,191.025848C1313.651367,191.724762,1314.71582,191.702667,1315.483398,190.935135M1394.626221,188.382568C1395.546631,188.032654,1395.763916,187.699234,1395.769043,186.629623C1395.775879,185.206467,1394.462891,178.079605,1394.044922,177.271408C1393.278564,175.789459,1392.031738,175.653946,1391.018188,176.942505C1390.375122,177.759918,1390.330322,179.138458,1390.873657,181.38855C1391.084473,182.261551,1391.263062,183.987747,1391.270386,185.224518C1391.285278,187.700165,1391.382813,187.986603,1392.341431,188.369171C1393.212158,188.71666,1393.73938,188.719757,1394.626221,188.382568M1464.940552,222.626556C1465.175781,222.536301,1465.73877,221.911301,1466.19165,221.237671C1467.49939,219.292526,1468.282593,218.563004,1469.979492,217.709503C1472.547241,216.417999,1473.290161,215.468094,1472.716797,214.209595C1472.336548,213.375,1471.231567,212.933838,1469.457275,212.908203C1467.776978,212.883896,1467.317383,213.211777,1466.162231,215.25856C1465.731201,216.022202,1464.842651,217.086227,1464.1875,217.623062C1462.73584,218.812576,1462.262451,219.99649,1462.703613,221.333603C1463.112427,222.572083,1463.898438,223.026443,1464.940552,222.626556M1288.950684,58.261845C1290.243774,57.441765,1290.629883,56.748466,1290.369873,55.712883C1290.171997,54.924328,1288.857422,54.214119,1287.595215,54.213776C1284.94519,54.213058,1279.417236,54.608913,1278.798462,54.843708C1277.584473,55.304432,1277.229004,57.070492,1278.125244,58.188961C1278.336792,58.452999,1279.030273,58.494797,1281.069092,58.366398C1283.127075,58.236797,1283.977783,58.289593,1284.794312,58.597603C1286.452637,59.223156,1287.578247,59.132233,1288.950684,58.261845M1434.050171,54.652431C1436.675415,53.313931,1437.090698,53.181213,1438.643188,53.184658C1439.669067,53.186935,1440.973145,53.404594,1441.912476,53.730293C1443.790039,54.38139,1444.027466,54.392685,1444.563721,53.856419C1445.093018,53.327145,1445.095703,52.314548,1444.570068,51.512192C1443.691406,50.171242,1439.430542,49.065643,1436.936768,49.531528C1433.414795,50.189491,1429.63562,52.900654,1429.63562,54.769203C1429.63562,55.365231,1430.296387,56.123989,1430.81543,56.123989C1431.00708,56.123989,1432.462646,55.461788,1434.050171,54.652431M1283.28772,91.625755C1283.801514,91.233383,1285.652344,90.198059,1287.400391,89.32505C1290.912354,87.571251,1291.72876,86.812881,1291.305054,85.698402C1290.950195,84.76503,1289.977051,83.901772,1289.279785,83.901772C1288.964478,83.901772,1288.18335,84.300514,1287.543945,84.787857C1285.803467,86.114632,1284.867554,86.521339,1283.163696,86.691284C1280.783447,86.92868,1280.542236,87.01461,1280.210083,87.743851C1279.577393,89.132233,1279.915894,91.825806,1280.799561,92.43615C1281.245117,92.743889,1282.253418,92.415474,1283.28772,91.625755M1478.180542,184.682785C1479.63562,184.262695,1481.897095,183.723862,1483.206055,183.485336C1487.284912,182.742142,1488.607178,181.925659,1487.634399,180.750946C1486.700439,179.623108,1483.831421,179.565033,1479.900146,180.59436C1478.614258,180.931076,1477.670776,181.000626,1476.159302,180.870224C1473.096802,180.606033,1471.43457,181.535919,1471.43457,183.513245C1471.43457,184.562851,1471.89563,185.178772,1472.889893,185.457321C1473.945068,185.75293,1475.017822,185.595871,1478.180542,184.682785M1287.348389,98.083855C1287.994751,97.590347,1290.079834,96.4067,1291.981934,95.453537C1293.884155,94.500366,1295.634277,93.526596,1295.871338,93.289589C1296.573242,92.587715,1296.393433,91.61203,1295.374512,90.593109C1294.249756,89.468376,1293.712402,89.532295,1291.711792,91.028702C1290.962646,91.588959,1288.980835,92.727486,1287.307495,93.558762C1285.634277,94.39003,1284.056885,95.254303,1283.802246,95.479347C1283.123779,96.078972,1283.214478,97.44648,1283.988037,98.281128C1284.887207,99.251404,1285.896973,99.192123,1287.348389,98.083855M1312.419312,231.041534C1313.654785,230.129379,1313.678101,229.878906,1312.785156,227.098495C1312.328003,225.674957,1311.872559,223.566605,1311.773071,222.413269C1311.474365,218.949234,1311.011475,218.504913,1308.274414,219.054596C1305.218628,219.668289,1304.967773,220.391495,1306.600952,223.878372C1307.172607,225.098923,1307.874023,226.941772,1308.15979,227.973618C1308.744995,230.087341,1309.357056,231.40329,1309.854858,231.618118C1310.396729,231.851944,1311.726685,231.552917,1312.419312,231.041534M1292.111572,104.102448C1293.678589,102.710754,1294.971802,102.077286,1297.145996,101.636429C1298.907227,101.279297,1299.7677,100.678802,1300.386353,99.375084C1300.974854,98.135071,1300.574829,96.771118,1299.452393,96.190727C1298.574951,95.736977,1298.293335,95.832848,1296.302246,97.263237C1295.647461,97.733604,1293.598267,98.845734,1291.748535,99.734634C1287.933594,101.567886,1287.298096,102.178452,1287.840942,103.489014C1288.253174,104.484207,1289.296875,105.330338,1290.112183,105.330338C1290.471069,105.330338,1291.307129,104.816925,1292.111572,104.102448M1470.950684,242.723206C1471.614136,242.122864,1471.561035,240.986084,1470.839233,240.336868C1470.336548,239.884674,1467.822998,238.503555,1462.307495,235.648911C1460.335083,234.628052,1456.932495,235.155655,1455.964844,236.632401C1455.568848,237.236816,1455.567993,237.373474,1455.954346,238.298264C1456.90625,240.576202,1457.835205,240.988602,1460.316895,240.234787C1462.445068,239.588409,1463.397705,239.744705,1465.486206,241.08287C1468.940918,243.296387,1469.974487,243.606674,1470.950684,242.723206M1466.200562,196.583817C1466.999268,195.785141,1467.007568,195.748962,1466.792236,194.00444C1466.407593,190.88768,1466.517578,189.720917,1467.345337,188.134567C1467.940308,186.9944,1468.102783,186.33609,1468.096313,185.092239C1468.091797,184.219238,1467.940674,183.230728,1467.760376,182.895554C1467.01123,181.503036,1464.508911,180.784485,1463.352783,181.629883C1462.949219,181.924973,1462.856323,182.272568,1462.911011,183.283325C1462.949097,183.987228,1462.977295,187.203018,1462.973755,190.429535L1462.967285,196.295929L1463.665161,196.844879C1464.623413,197.598709,1465.250244,197.534164,1466.200562,196.583817M1475.998047,209.88768C1476.858521,209.132034,1476.437378,207.167404,1475.168701,206.019287C1474.692749,205.588531,1474.230347,205.525208,1471.842163,205.563599C1467.909302,205.626846,1466.855225,205.094986,1465.444824,202.335541C1464.055664,199.617844,1461.431152,200.015427,1460.94397,203.017365C1460.700073,204.520416,1461.249023,205.518799,1462.73291,206.270721C1463.43396,206.625977,1464.398926,207.252747,1464.877197,207.663483C1466.640137,209.177628,1466.95105,209.298599,1469.0802,209.298599C1470.591431,209.298599,1471.533447,209.462631,1472.79126,209.944763C1474.521973,210.608231,1475.19104,210.596329,1475.998047,209.88768M1384.412109,144.211395C1385.181396,143.799683,1385.641113,142.702881,1386.233643,139.865723C1386.886108,136.740799,1387.832642,134.553848,1389.444336,132.446747C1391.142456,130.226807,1391.275757,129.910187,1391.275757,128.09906C1391.275757,126.048843,1390.758423,125.436165,1389.0271,125.436165C1387.574829,125.436165,1386.871094,126.040695,1386.657959,127.471664C1386.342773,129.585739,1385.939209,130.84201,1384.694458,133.583374C1383.046753,137.21228,1381.751953,141.080231,1381.751953,142.373871C1381.751953,143.153473,1381.91272,143.513641,1382.448975,143.935486C1383.229004,144.549042,1383.666382,144.610504,1384.412109,144.211395M1425.100342,194.768585C1425.35144,194.634201,1425.960449,193.932816,1426.453735,193.209961C1428.404419,190.351425,1430.929688,190.080261,1434.297119,192.367722C1435.962524,193.499039,1436.641357,193.645599,1437.455322,193.049606C1438.411865,192.349258,1437.90918,189.182846,1436.679443,188.162247C1436.460449,187.980408,1435.351318,187.774231,1434.214966,187.704071C1433.078613,187.633911,1431.457642,187.396439,1430.613037,187.176376C1429.768311,186.956284,1428.756348,186.847717,1428.364258,186.935089C1427.362793,187.158264,1422.99939,190.484848,1422.453369,191.441452C1422.204224,191.87796,1421.921143,192.556488,1421.824341,192.94931C1421.474487,194.369186,1423.620239,195.56076,1425.100342,194.768585M1405.077759,189.284058C1405.869507,188.567505,1405.635132,187.600708,1404.100708,185.252991C1402.354004,182.580475,1401.889893,181.164124,1401.621216,177.684845C1401.451172,175.483322,1401.276733,174.763977,1400.581787,173.398651C1400.122437,172.496292,1399.484985,171.51413,1399.165039,171.21611C1397.996582,170.127594,1396.19043,170.781189,1395.886353,172.402588C1395.741211,173.175995,1395.883545,173.605576,1396.781738,175.106613C1397.369141,176.088135,1397.967041,177.367371,1398.110596,177.949387C1398.476196,179.433044,1399.172729,183.960922,1399.358032,186.058807C1399.443481,187.026932,1399.659912,188.019272,1399.838867,188.264023C1400.224731,188.791641,1402.723389,189.700974,1403.821045,189.713242C1404.246094,189.717987,1404.811646,189.524857,1405.077759,189.284058M1448.888916,92.2201C1449.600586,91.721611,1449.693848,90.149445,1449.065063,89.25164C1448.685547,88.709877,1448.442627,88.663673,1445.974609,88.663673C1444.071777,88.663673,1442.691284,88.500534,1441.208374,88.100395C1439.308716,87.587807,1438.013794,86.991203,1432.447632,84.063965C1430.386597,82.980087,1429.404175,82.869827,1428.703735,83.643791C1428.08374,84.328873,1428.002075,86.615929,1428.577393,87.184219C1428.795654,87.399826,1429.846313,87.756859,1430.912231,87.977623C1431.978149,88.198387,1433.882935,88.852158,1435.14502,89.43045C1438.35376,90.900604,1439.802612,91.433083,1441.937134,91.926643C1445.369751,92.720314,1448.015259,92.831993,1448.888916,92.2201M1387.289185,187.471451C1387.83252,186.926605,1387.790649,184.755844,1387.179321,181.78537C1386.575928,178.853317,1386.738159,176.664108,1387.67749,175.061234C1388.231445,174.115997,1388.7146,173.709396,1390.029175,173.081985C1392.157593,172.066177,1392.890137,171.27832,1393.051758,169.830933C1393.306763,167.548187,1391.35498,166.489029,1389.269043,167.778183C1388.164063,168.46109,1384.911621,172.51474,1383.979248,174.371078C1383.408447,175.507462,1383.272949,176.151886,1383.260986,177.786484C1383.22937,182.064865,1383.387207,186.990417,1383.564941,187.278076C1384.110718,188.161102,1386.478882,188.284073,1387.289185,187.471451M1314.598511,116.947929C1315.369385,116.535324,1316.136719,114.610962,1316.322144,112.624802C1316.462402,111.123047,1316.396851,110.737015,1315.792969,109.509384C1314.912842,107.719917,1313.105225,105.664391,1311.029541,104.092316C1310.131958,103.412491,1308.721802,102.222458,1307.895996,101.4478C1306.614746,100.24604,1306.245972,100.040573,1305.38269,100.047745C1303.786621,100.06102,1302.651489,101.296524,1302.651489,103.020279C1302.651489,104.411179,1303.513184,105.236099,1305.197632,105.457504C1308.816284,105.933167,1311.376465,108.02124,1312.015381,111.018173C1312.108765,111.456627,1312.004883,112.498405,1311.783081,113.345894C1311.267334,115.316742,1311.276245,116.151054,1311.819458,116.751312C1312.311768,117.295265,1313.758301,117.397606,1314.598511,116.947929M1449.332031,100.044083C1450.271606,99.68689,1450.656738,98.59166,1450.283569,97.338806C1450.122803,96.799271,1449.857178,96.274948,1449.693359,96.17363C1449.529419,96.072319,1448.074341,96.012589,1446.459839,96.040916C1442.689697,96.107063,1439.908569,95.425484,1434.349731,93.073082C1429.821777,91.156982,1428.848267,90.881042,1428.075317,91.294678C1427.422852,91.643875,1426.937256,93.252243,1427.242188,94.054199C1427.590454,94.970322,1428.070923,95.22863,1429.99939,95.536697C1430.988525,95.694717,1433.035889,96.352852,1434.549194,96.999245C1438.371338,98.631767,1443.842896,99.951866,1448.070679,100.261551C1448.388672,100.284836,1448.956299,100.186974,1449.332031,100.044083M1448.295898,84.853416C1448.648682,84.595436,1448.803467,84.162086,1448.803467,83.431808C1448.803467,81.790405,1448.415527,81.520813,1446.053345,81.520813C1444.933472,81.520813,1443.370728,81.330643,1442.580444,81.098198C1440.286133,80.423386,1437.024658,78.597923,1435.544556,77.160072C1434.431641,76.078957,1434.099243,75.538788,1433.750854,74.245682C1433.515625,73.372665,1433.202881,72.211472,1433.055786,71.665253C1432.602539,69.982346,1430.625732,69.314697,1429.934937,70.611244C1429.800171,70.864151,1429.60791,72.737747,1429.507568,74.77478C1429.292114,79.14827,1429.329956,79.238586,1431.622437,79.830978C1432.493896,80.056183,1433.861816,80.605217,1434.661987,81.051041C1438.544678,83.214027,1439.562012,83.726028,1440.958008,84.219521C1443.76123,85.210434,1447.380127,85.523056,1448.295898,84.853416M1316.196899,182.209305C1316.676758,181.714966,1317.621948,180.375687,1318.297241,179.233109C1319.713379,176.837051,1322.492676,170.049164,1322.492676,168.986542C1322.492676,167.190765,1320.981323,165.862106,1319.592773,166.437241C1318.52832,166.878189,1318.21228,167.650986,1317.831543,170.745148C1317.172119,176.102386,1315.628662,178.081665,1312.110352,178.081665C1310.532349,178.081665,1309.733154,178.508331,1309.13147,179.67189C1308.650024,180.602829,1308.61792,181.887512,1309.066772,182.258224C1309.669434,182.755905,1311.223511,183.060104,1313.286865,183.084259C1315.269165,183.107468,1315.348022,183.083786,1316.196899,182.209305M1450.495972,106.996727C1450.991211,106.439156,1451.087402,106.102798,1450.967041,105.350212C1450.718994,103.799667,1450.079468,103.481873,1447.546509,103.650238C1445.679565,103.77433,1444.766479,103.658211,1441.01123,102.819107C1438.299805,102.213226,1435.694092,101.439247,1434.132935,100.775993C1429.153442,98.660515,1427.455078,98.28933,1426.612183,99.132309C1426.084106,99.6604,1426.056152,101.709969,1426.571167,102.137444C1426.777344,102.30851,1427.759521,102.573158,1428.753784,102.725548C1430.665771,103.0186,1432.036255,103.592796,1434.374756,105.080498C1435.766357,105.965851,1435.873291,105.989441,1438.140747,105.911499C1440.57666,105.827766,1441.246704,106.015877,1443.656738,107.460243C1444.490112,107.959709,1444.846924,107.999283,1447.228149,107.8563C1449.658081,107.710388,1449.924316,107.64035,1450.495972,106.996727M1371.159302,151.896912C1371.799683,151.554184,1372.144287,150.386475,1371.778076,149.799973C1371.502563,149.35878,1371.344482,149.269501,1368.482422,147.938904C1367.242065,147.362198,1366.293457,146.658188,1365.275879,145.559113C1363.305542,143.430939,1362.704346,142.111908,1362.704346,139.91745C1362.704346,138.265793,1362.813354,137.950378,1364.576294,134.500748C1366.100708,131.517731,1366.475342,130.539154,1366.594116,129.228882C1366.721191,127.827408,1366.66748,127.547371,1366.177246,127.057152C1365.517578,126.397507,1364.327148,126.325615,1363.253906,126.880592C1362.394409,127.325066,1362.188477,127.90361,1362.167236,129.933517C1362.147339,131.835098,1361.688232,133.05864,1360.337646,134.809265C1359.312988,136.137344,1359.20459,136.439392,1358.842407,138.973602C1358.26355,143.023239,1358.27063,143.040955,1361.880005,146.593597C1363.58374,148.270493,1365.326782,150.10614,1365.753418,150.672806C1366.180054,151.239471,1366.888794,151.866791,1367.328369,152.066849C1368.200439,152.463715,1370.271851,152.371811,1371.159302,151.896912M1321.953125,119.092545C1322.518311,118.79007,1323.019409,117.504662,1323.027588,116.335838C1323.034058,115.427208,1323.725342,113.888023,1324.762451,112.473198C1325.696289,111.199165,1325.500732,110.515572,1323.370728,107.608452C1322.399536,106.282738,1321.126953,104.543304,1320.542847,103.743042C1319.95874,102.94278,1318.796631,101.570984,1317.960205,100.694626C1317.123779,99.81826,1315.866943,98.334396,1315.167236,97.397148C1313.697876,95.429314,1312.799683,95.006599,1311.142578,95.50309C1309.918335,95.869858,1309.351685,96.891182,1309.766724,97.982819C1309.910278,98.360268,1310.961304,99.379745,1312.102295,100.248322C1315.18335,102.593781,1318.059204,105.776405,1319.220337,108.125694C1320.452148,110.61805,1320.514282,112.187866,1319.504761,115.311417C1318.796753,117.501976,1318.800781,118.037666,1319.531616,118.888542C1319.967529,119.396149,1321.192993,119.499374,1321.953125,119.092545M1479.106445,229.668961C1480.197754,229.382935,1481.92395,229.145142,1482.942505,229.140503C1485.181763,229.13031,1485.968018,228.778625,1486.590088,227.508987C1486.996094,226.680359,1487.019531,226.371048,1486.756104,225.324844C1486.560669,224.54866,1486.165405,223.867172,1485.667603,223.448334C1484.389648,222.373093,1483.847046,222.527664,1481.088135,224.752731C1480.018311,225.615509,1475.64563,227.014648,1474.001831,227.020126C1473.285522,227.022507,1472.811646,226.837357,1472.348389,226.374115C1471.503052,225.528748,1471.5271,224.773788,1472.428101,223.872803C1473.032959,223.267853,1473.469727,223.114594,1474.994629,222.972198C1477.13208,222.772598,1479.374756,221.789154,1480.121216,220.72406C1480.491211,220.196152,1480.666626,219.310638,1480.802002,217.287827L1480.984375,214.562759L1480.071899,213.650253C1479.044189,212.622559,1478.154541,212.484894,1477.253906,213.214203C1476.782471,213.595963,1476.626953,214.085144,1476.471191,215.675323C1476.359253,216.818909,1476.081299,217.958527,1475.815308,218.364471C1475.545532,218.77626,1474.5271,219.461288,1473.364014,220.013367C1469.894653,221.660141,1468.259888,223.35434,1468.259888,225.303131C1468.259888,226.199677,1468.442017,226.508545,1469.674805,227.702515C1472.177002,230.126144,1475.064941,230.728256,1479.106445,229.668961M1510.152466,233.253021C1510.537476,232.896225,1510.852539,232.394394,1510.852539,232.137878C1510.852539,231.881348,1510.140869,231.01088,1509.271118,230.203506C1507.400513,228.467224,1507.070801,227.530289,1507.940918,226.424042C1508.355103,225.897629,1508.74707,225.700714,1509.380981,225.700714C1510.53833,225.700714,1511.451538,226.463776,1512.744751,228.511337C1513.864258,230.283951,1514.474976,230.650833,1515.848877,230.376038C1517.366699,230.072495,1527.070801,225.722336,1527.810059,225.014145C1528.828369,224.038422,1529.202271,222.772537,1529.030762,220.880692C1528.874878,219.161377,1528.323364,218.293304,1527.386963,218.293304C1526.61853,218.293304,1526.153564,218.8582,1525.131714,221.033356C1524.487061,222.405563,1523.992554,223.049652,1523.101929,223.67749C1521.3125,224.938736,1519.666504,225.508453,1517.719971,225.540192C1516.146118,225.565887,1515.772095,225.45549,1513.58667,224.320282C1510.853516,222.900589,1509.589844,222.611603,1507.994019,223.041321C1506.309937,223.494812,1505.109253,224.693542,1504.606323,226.423538C1503.905029,228.835785,1504.446045,230.711273,1506.438965,232.777435C1507.762939,234.149963,1509.012085,234.309952,1510.152466,233.253021M1470.950684,163.358124C1471.671021,162.706268,1471.580078,161.271973,1470.766846,160.458801C1470.163818,159.855652,1469.964355,159.808044,1468.701904,159.965775C1466.27124,160.26947,1464.50708,159.42749,1463.506836,157.486374C1463.330566,157.144394,1462.905762,155.537247,1462.562622,153.914932C1462.219604,152.292618,1461.676147,149.831741,1461.35498,148.446304C1460.558105,145.009109,1460.716431,144.294922,1462.726685,142.259552C1463.895996,141.075684,1464.291626,140.485565,1464.291626,139.925446C1464.291626,138.361145,1462.86084,136.018173,1461.90564,136.018173C1461.303589,136.018173,1460.764282,136.709015,1460.22583,138.170013C1459.977295,138.844269,1459.18335,140.131912,1458.461426,141.031433C1457.324585,142.447968,1457.148804,142.826324,1457.148804,143.856995C1457.148804,145.388184,1460.220947,159.87561,1460.854004,161.330078C1461.492188,162.796066,1462.532227,163.306244,1465.349854,163.535263C1469.3927,163.863831,1470.428101,163.831085,1470.950684,163.358124M1484.397461,252.154495C1489.922119,251.600204,1495.114502,250.805344,1495.694946,250.425064C1496.028931,250.206223,1496.302246,249.795944,1496.302246,249.513336C1496.302246,248.757584,1494.826172,247.207047,1493.777222,246.86084C1492.977173,246.596817,1492.680054,246.645859,1491.343384,247.262772C1489.494141,248.116196,1487.68103,248.337616,1485.646729,247.958511C1484.270874,247.702072,1483.907104,247.741745,1482.002808,248.355972C1479.013672,249.320129,1476.84375,249.183334,1473.914429,247.846069C1472.355469,247.134384,1471.403809,246.864731,1470.451172,246.864731C1468.535034,246.864731,1466.818237,246.257828,1464.802002,244.867661C1463.565796,244.015289,1462.736084,243.631165,1462.092041,243.6129C1460.199951,243.55928,1459.772461,244.896057,1461.171997,246.490082C1463.204102,248.80455,1468.067261,250.752457,1475.005981,252.03125C1477.251953,252.445175,1481.008789,252.494476,1484.397461,252.154495M1447.83667,77.764206C1448.306885,77.29393,1448.221558,76.108276,1447.682251,75.620224C1447.422729,75.385353,1446.364868,74.907135,1445.331421,74.55751C1442.107422,73.466751,1440.645142,71.851364,1440.681885,69.42128C1440.700439,68.187897,1441.664795,65.982437,1443.28772,63.461376C1444.069214,62.247498,1444.265747,61.690037,1444.251221,60.72921C1444.213501,58.227779,1443.461914,57.457973,1440.540283,56.928177C1438.578857,56.572506,1437.274902,56.845367,1435.367432,58.010593C1434.664185,58.440228,1433.354736,58.975918,1432.457397,59.201031C1430.006104,59.816029,1429.784546,60.13578,1429.681641,63.207527C1429.60376,65.529335,1429.649902,65.838089,1430.154907,66.375313C1431.319458,67.614258,1432.800171,66.865662,1434.133545,64.363838C1434.580444,63.525414,1435.630371,62.102264,1436.466675,61.201283C1437.827515,59.735287,1438.095337,59.563145,1439.015503,59.563145C1440.330444,59.563145,1441.01123,60.169289,1441.01123,61.340054C1441.01123,62.10685,1440.73938,62.505283,1439.189209,64.010696C1436.87439,66.258652,1436.146729,67.639877,1436.316406,69.463806C1436.471436,71.131683,1437.403442,73.607864,1438.258667,74.624237C1440.133789,76.852707,1446.621338,78.979523,1447.83667,77.764206M1375.728882,144.672699C1377.559814,143.501434,1377.970459,142.9039,1378.327026,140.891815C1378.720459,138.671158,1379.195801,137.266876,1381.230225,132.314468C1382.216553,129.913666,1383.10498,127.557648,1383.204712,127.07885C1383.581665,125.269287,1381.844971,124.213867,1379.598145,124.887032C1378.356323,125.259079,1377.989136,125.988632,1378.214722,127.63517C1378.413818,129.087128,1377.914917,131.016663,1376.237549,135.282639C1375.509888,137.133392,1374.778687,139.301788,1374.612793,140.101318C1374.389771,141.17543,1374.102783,141.730118,1373.513794,142.225739C1372.671631,142.934402,1372.460083,142.986801,1371.490112,142.726959C1370.854736,142.556763,1370.111816,141.406952,1370.111816,140.593872C1370.111816,140.331512,1370.535645,139.243088,1371.053711,138.17514C1372.880493,134.409454,1374.409546,129.927063,1374.544678,127.941422C1374.682495,125.915367,1374.490601,125.532639,1373.286377,125.432564C1370.546509,125.204857,1370.274658,125.517578,1370.111328,129.085297L1369.97876,131.984558L1368.193359,135.477722C1365.866211,140.031067,1365.86145,141.283447,1368.162964,143.472534C1370.810059,145.990265,1373.101074,146.353699,1375.728882,144.672699M1527.898315,214.252594C1528.44397,212.691833,1527.033203,208.615021,1525.370361,206.947647C1523.955811,205.529221,1520.679321,203.438004,1518.614136,202.635468C1512.616577,200.30481,1506.927979,200.750641,1499.344604,204.14563C1498.431396,204.554474,1496.737793,204.999222,1495.356689,205.192902C1492.087769,205.651306,1490.217529,206.835342,1490.217529,208.446564C1490.217529,209.493317,1491.112305,209.910583,1493.055908,209.77034C1494.484375,209.667282,1495.865479,209.234329,1499.873657,207.63327C1502.744263,206.486618,1505.862305,205.433136,1507.143433,205.177078C1512.87146,204.032181,1519.609497,205.873978,1522.730103,209.437637C1523.224487,210.002151,1523.986572,211.243454,1524.423828,212.196121C1524.860962,213.148788,1525.464478,214.201492,1525.764893,214.535492C1526.513184,215.367218,1527.557007,215.228806,1527.898315,214.252594M1309.240479,133.385315C1311.012085,132.481445,1311.775024,131.629486,1314.65271,127.341347C1317.62439,122.912964,1317.980835,121.945839,1317.028442,120.893501C1316.484497,120.292412,1314.64856,120.24221,1313.843018,120.806396C1313.515991,121.0355,1313.028687,121.957504,1312.689575,122.988937C1311.920776,125.32711,1311.303101,126.52861,1310.257935,127.719017C1308.620239,129.584213,1306.218262,130.135574,1304.039185,129.146484C1301.556885,128.019714,1300.19397,125.498634,1300.174438,121.997009C1300.16748,120.760239,1300.261475,119.073441,1300.383301,118.248566C1300.57666,116.938057,1300.532104,116.631386,1300.029541,115.818306C1299.319458,114.669334,1298.174072,114.24337,1296.706177,114.582344C1295.04834,114.965179,1294.635986,115.943016,1295.252319,118.030495C1295.402466,118.538803,1295.932129,120.502304,1296.429443,122.393829C1297.324219,125.797401,1298.595581,129.543335,1299.353149,131.008362C1299.759155,131.793457,1300.493286,132.088074,1302.916016,132.438156C1303.570801,132.532761,1304.642212,132.895401,1305.296997,133.244019C1306.756714,134.021225,1307.91272,134.062653,1309.240479,133.385315M1444.431152,146.167679C1445.128296,145.281464,1445.126709,144.477676,1444.425903,143.586868C1443.725464,142.696274,1442.774414,142.302979,1439.228516,141.437408C1434.761841,140.347031,1429.874268,138.661835,1429.187866,137.975464C1428.396606,137.184174,1428.411743,136.15979,1429.226685,135.344772C1430.08374,134.487717,1430.477661,134.520737,1432.817627,135.645828C1433.969849,136.19986,1436.187622,136.917175,1438.13501,137.365723C1441.809326,138.212082,1443.032837,138.599152,1444.664063,139.431335C1446.035767,140.131165,1446.838257,140.132935,1447.721558,139.438126C1448.565552,138.774231,1448.68457,137.188354,1447.955688,136.316895C1447.389526,135.640015,1443.770996,134.632813,1439.291626,133.905304C1437.545654,133.621735,1434.620972,133.00528,1432.79248,132.535385C1428.946533,131.547058,1428.628784,131.595886,1426.59729,133.487701C1425.526733,134.484711,1425.403076,134.721725,1425.405273,135.77211C1425.407959,137.0448,1426.433472,139.134445,1427.557129,140.156799C1427.900024,140.468765,1429.379517,141.45369,1430.844971,142.345551C1433.271118,143.822113,1433.696777,143.988464,1435.606812,144.206543C1438.10791,144.492096,1438.729492,144.70932,1440.546387,145.932892C1442.30481,147.117065,1443.621826,147.196671,1444.431152,146.167679M1478.577393,237.253815C1479.523193,237.259705,1481.074463,237.355438,1482.024902,237.466583C1483.660034,237.657791,1483.79834,237.630203,1484.604248,236.952164C1485.313599,236.355255,1485.455688,236.050751,1485.455688,235.127594C1485.455688,233.826843,1484.937622,232.970078,1484.010254,232.737335C1483.644897,232.64566,1481.900391,232.870148,1480.133545,233.236206C1476.550537,233.978516,1475.5354,234.035294,1473.497803,233.60733C1471.892944,233.270264,1468.932007,231.864136,1467.573486,230.793869C1467.065186,230.393433,1466.182617,229.331528,1465.612427,228.434097C1463.787109,225.561859,1463.02124,225.385773,1460.070923,227.160141C1458.358032,228.190369,1457.906128,228.345367,1456.631714,228.339737C1455.824829,228.336182,1454.644531,228.213379,1454.008911,228.066803C1453.023315,227.839569,1452.682373,227.883026,1451.693115,228.361908C1450.38208,228.996582,1450.031372,229.775742,1450.522827,230.962128C1450.862671,231.782684,1452.255249,233.204086,1452.960205,233.449951C1453.209229,233.536804,1454.32666,233.137482,1455.526733,232.532852C1459.031982,230.766891,1461.57373,230.826233,1464.693726,232.746857C1465.563843,233.282471,1467.882935,234.598022,1469.847168,235.670303L1473.418701,237.619904L1475.138184,237.431503C1476.083984,237.327881,1477.631592,237.247925,1478.577393,237.253815M1471.368408,170.487854C1471.860962,169.826736,1471.773071,168.367279,1471.206543,167.800735C1470.783569,167.377808,1470.138184,167.287369,1466.643066,167.161224C1462.276123,167.003616,1461.060669,166.76178,1459.52356,165.744583C1458.021729,164.750732,1457.312256,163.117508,1456.263794,158.240387C1454.377197,149.465576,1453.75647,146.440216,1453.576538,145.145157C1453.343506,143.466827,1453.08667,142.998291,1452.127686,142.50238C1451.063965,141.952332,1449.940674,142.002182,1449.135986,142.635147C1447.759155,143.718231,1448.041504,145.665314,1449.869019,147.68808C1451.242798,149.208679,1451.593262,150.289047,1451.593262,153.003494C1451.593262,155.112503,1451.68811,155.583054,1452.453003,157.270126C1453.234985,158.994675,1453.314697,159.409958,1453.333374,161.857849C1453.347656,163.740906,1453.466919,164.703506,1453.730225,165.062515C1453.937134,165.344742,1454.799316,166.541901,1455.645996,167.72287C1457.463989,170.258621,1457.502441,170.274246,1462.572021,170.541122C1464.463623,170.640701,1466.785034,170.818222,1467.730835,170.935623C1469.854248,171.199203,1470.937744,171.065842,1471.368408,170.487854M1362.721802,154.791946C1363.055176,154.613464,1363.233398,154.23822,1363.233398,153.714645C1363.233398,153.02951,1362.64502,152.329727,1359.237183,148.962051L1355.240845,145.012878L1353.880005,145.018402C1351.564209,145.027771,1349.40332,145.630417,1347.447021,146.812408C1345.327637,148.092972,1344.677979,148.174606,1343.776978,147.273575C1343.06604,146.562668,1342.996338,146.186386,1343.38562,145.162506C1343.92395,143.74646,1348.141846,141.914032,1351.686279,141.556396C1354.614258,141.260925,1355.296997,140.736237,1355.296997,138.781189C1355.296997,136.433929,1353.365479,135.841141,1350.671509,137.361542C1349.587036,137.973587,1348.734985,138.222992,1347.241089,138.365692C1345.53894,138.528275,1345.135864,138.667725,1344.433228,139.337128C1342.497192,141.181625,1339.953003,145.826019,1339.953003,147.515732C1339.953003,148.486679,1341.088867,149.618652,1342.861328,150.414063C1344.654541,151.218811,1345.05249,151.196259,1347.644653,150.142944C1351.512817,148.571198,1353.77356,149.022522,1357.325684,152.075653C1359.350464,153.815903,1361.265991,155.040375,1361.994263,155.059982C1362.112915,155.063171,1362.440308,154.942566,1362.721802,154.791946M1303.746826,148.549057C1306.842041,147.982773,1307.661621,147.370834,1309.529785,144.230713C1311.383179,141.115326,1312.957031,139.518707,1315.39502,138.280365C1316.461426,137.738678,1317.481812,137.172852,1317.662598,137.022964C1317.843384,136.873093,1318.243652,135.901184,1318.552124,134.863159C1319.283203,132.403152,1319.915771,131.19252,1321.195435,129.804291C1322.262695,128.646362,1322.859131,128.316345,1324.758667,127.832458C1326.322266,127.434143,1327.053833,126.531113,1327.195313,124.82457C1327.305054,123.501915,1327.260376,123.371666,1326.469482,122.706131C1325.505859,121.895271,1324.306641,121.784676,1322.891113,122.376114C1321.996094,122.750092,1321.413208,123.452744,1319.762329,126.147568C1319.299683,126.902596,1317.879639,129.074432,1316.606567,130.973846C1314.179688,134.594803,1313.171387,135.567551,1310.70105,136.670883C1309.082642,137.393784,1308.365601,138.24733,1307.830444,140.088165C1306.900391,143.28743,1304.990479,144.732391,1301.678223,144.742523C1299.633179,144.748779,1299.08667,145.028412,1298.787231,146.221863C1298.6073,146.938477,1298.844604,148.141235,1299.265991,148.648972C1299.636597,149.095612,1300.915283,149.067108,1303.746826,148.549057M1379.487061,186.813431C1379.980225,186.32019,1379.989014,186.125183,1379.69751,182.120255C1379.359375,177.476151,1379.556396,175.100403,1380.446899,173.083755C1381.13623,171.522568,1385.217651,166.156677,1386.404175,165.251709C1386.903076,164.87117,1387.994995,164.328308,1388.830566,164.04538C1391.179443,163.250076,1391.495972,163.014328,1392.52002,161.297806C1393.045776,160.416489,1394.289307,158.551926,1395.283447,157.154343C1397.413574,154.159531,1397.945557,152.998749,1397.971558,151.287811C1397.995239,149.73497,1397.301758,148.887238,1396.037354,148.923187C1394.654541,148.962509,1394.248657,149.508392,1392.729614,153.371384C1391.714233,155.953781,1390.282349,158.175629,1388.800781,159.467712C1388.197754,159.993668,1386.632935,160.928726,1385.323364,161.545609C1382.674561,162.793442,1382.232056,163.187088,1381.753296,164.721878C1381.212036,166.457138,1380.429932,167.505768,1378.989868,168.427002C1378.241089,168.905945,1377.474121,169.483887,1377.2854,169.711304C1376.562866,170.581894,1375.890625,175.896042,1375.817139,181.317245C1375.742676,186.820435,1375.76709,186.947678,1376.990112,187.427612C1377.640625,187.682892,1378.936279,187.364212,1379.487061,186.813431M1455.965698,207.395233C1457.018555,206.915512,1457.41333,205.881775,1457.41333,203.604156C1457.41333,201.767029,1457.506348,201.410614,1458.456299,199.607605L1459.499268,197.628067L1459.390991,189.09552C1459.27002,179.555695,1459.302368,179.347351,1461.090088,178.153076C1462.300049,177.344711,1464.770264,177.330536,1466.877686,178.119858C1467.710693,178.431839,1468.876709,178.739761,1469.468994,178.804092C1471.73291,179.049957,1473.130859,176.579346,1471.596191,175.044708C1471.02002,174.468582,1470.757202,174.4151,1468.619995,174.439178C1467.330688,174.453705,1464.394653,174.323288,1462.095459,174.149353C1457.28125,173.785126,1456.787476,173.895981,1455.994751,175.518845C1455.55603,176.417053,1455.53418,176.743073,1455.795044,178.496902C1456.007568,179.926361,1456.009033,181.191162,1455.800293,183.10997C1455.592896,185.016968,1455.593262,186.493683,1455.801636,188.4095C1456.167358,191.770477,1456.169067,195.103851,1455.805908,196.467911C1455.651001,197.049927,1454.92627,198.804398,1454.195313,200.36673C1452.762695,203.429108,1452.294067,205.844635,1452.972046,206.672287C1453.791748,207.67305,1454.814209,207.919922,1455.965698,207.395233M1451.36377,131.71521C1453.221436,130.753601,1453.887329,129.884018,1453.610718,128.781494C1453.35376,127.757828,1452.477173,127.506134,1450.760498,127.963066C1448.954102,128.443848,1447.004395,128.449432,1446.090698,127.976425C1445.697754,127.773048,1444.727539,127.169899,1443.934692,126.636101C1442.594971,125.734085,1442.398804,125.678329,1441.156982,125.846443C1440.421997,125.945923,1439.106445,126.249924,1438.233398,126.52198C1437.360474,126.794037,1436.199707,127.018173,1435.654053,127.02005C1433.794312,127.026451,1433,125.369377,1434.199097,123.984596C1434.704224,123.401184,1435.254639,123.215546,1437.83667,122.75769C1439.509888,122.460968,1441.167969,122.079147,1441.52124,121.909195C1441.874512,121.739243,1442.767456,120.728615,1443.505371,119.663368C1445.129761,117.318726,1446.496948,116.349838,1448.791992,115.916771C1449.7323,115.739365,1450.671631,115.397934,1450.879639,115.158043C1451.911743,113.967171,1451.568604,111.551697,1450.322876,111.239029C1449.417603,111.01181,1446.452393,111.520332,1445.661621,112.038429C1445.324585,112.259315,1444.687744,113.079582,1444.246582,113.861252C1443.042847,115.994278,1441.928955,116.840164,1439.642578,117.357544C1437.341553,117.878212,1437.044678,118.056351,1434.146851,120.654633C1429.691528,124.649277,1429.106445,125.290062,1429.106445,126.174797C1429.106445,127.667885,1429.964478,128.263168,1433.339233,129.11142C1435.012573,129.531998,1437.64624,130.011475,1439.191895,130.176895C1441.927124,130.46965,1444.390991,131.03772,1447.360474,132.060257C1449.297241,132.727188,1449.431274,132.715637,1451.36377,131.71521M1430.182129,148.178177C1430.83667,147.82785,1430.844849,146.751266,1430.197876,146.104309C1429.925171,145.831573,1428.942993,145.207977,1428.015381,144.718521C1424.916626,143.083618,1423.327637,141.095062,1421.837402,136.987366C1421.460571,135.948532,1421.114136,135.542068,1419.995117,134.826263C1418.0354,133.572693,1417.043579,132.341492,1416.698975,130.735001C1416.342773,129.074158,1416.342651,128.989365,1416.69165,127.732254C1417.365479,125.305656,1420.432129,123.376625,1424.134033,123.050705C1426.456299,122.846245,1426.208984,122.990494,1430.202271,119.511665C1433.903076,116.287598,1434.258545,115.785973,1434.025391,114.115341C1433.929932,113.43042,1433.749634,111.980042,1433.624756,110.892273C1433.419067,109.09935,1433.315186,108.84552,1432.513428,108.176132C1431.500732,107.330711,1427.88562,105.859444,1426.821045,105.859444C1425.763672,105.859444,1425.138184,106.560715,1425.138184,107.746193C1425.138184,108.908188,1425.619263,109.33297,1427.495239,109.827728C1428.136841,109.996941,1428.928345,110.310051,1429.25415,110.523537C1430.642456,111.433128,1430.75293,113.671677,1429.513916,115.785919C1428.526733,117.470322,1427.192871,118.271919,1424.833252,118.598793C1423.310303,118.809776,1422.622681,119.059799,1421.656616,119.753693C1419.90918,121.008934,1418.585571,121.64035,1416.477051,122.224663C1414.049316,122.89743,1413.059326,123.435783,1412.899048,124.170311C1412.601318,125.535835,1413.140747,131.111237,1413.699951,132.446747C1414.004639,133.174255,1414.451538,134.337006,1414.693237,135.03067C1414.991821,135.887756,1415.442871,136.518311,1416.100952,136.998749C1418.009521,138.391937,1419.116089,139.626205,1420.558105,141.970551C1422.779175,145.581451,1424.301392,147.036774,1426.796387,147.934769C1428.366699,148.499954,1429.437012,148.576904,1430.182129,148.178177M1418.280273,180.747513C1418.800903,180.226883,1419.053589,179.707428,1419.053589,179.157715C1419.053589,178.319824,1418.868042,178.144257,1416.143555,176.403961C1414.047363,175.065063,1413.139893,171.394089,1414.338501,169.102448C1415.18689,167.480301,1416.083984,166.895493,1417.928589,166.762054C1419.908325,166.618866,1421.347412,167.022736,1422.932617,168.166351C1425.688232,170.15451,1425.095459,170.110977,1432.490234,168.868378C1436.104248,168.261093,1439.678467,167.764206,1440.432983,167.764206C1442.893188,167.764206,1443.528564,166.473923,1442.603149,163.356918C1442.058472,161.522202,1442.037231,161.205948,1442.331787,159.312698C1442.646973,157.286621,1442.640503,157.234116,1441.857666,155.434799C1441.421143,154.43158,1440.926147,152.933472,1440.75769,152.105682C1440.36438,150.173599,1439.789795,149.469772,1437.789551,148.470245C1435.644409,147.3983,1434.430176,147.402283,1433.851685,148.483154C1433.477539,149.182266,1433.864136,149.794754,1435.984497,151.86232C1438.065552,153.891464,1438.853271,155.615067,1439.081177,158.637222C1439.430664,163.274063,1437.564697,165.097321,1431.615234,165.932404C1428.689941,166.343018,1427.199097,166.112427,1422.625,164.541931C1419.291016,163.397217,1418.3396,163.176208,1416.672607,163.159225C1412.833984,163.120132,1411.229736,164.881119,1410.467651,169.970566C1410.137329,172.176575,1410.132324,172.731766,1410.434814,173.609589C1410.924194,175.030258,1413.397827,178.935349,1414.707031,180.354019C1416.054565,181.814362,1417.098389,181.929321,1418.280273,180.747513M1485.961914,210.68071C1486.735474,210.105804,1487.014404,208.711121,1486.483521,208.071503C1486.301392,207.852112,1485.668335,207.430405,1485.076538,207.134338C1480.993164,205.09137,1479.67627,200.262848,1482.650635,198.239014C1484.368774,197.069977,1486.08728,196.600189,1488.645752,196.600189C1490.855103,196.600189,1491.082886,196.550079,1491.64856,195.939789C1493.067383,194.408813,1493.232666,188.258804,1491.922974,185.726151C1491.211914,184.351028,1490.661499,184.285019,1488.762329,185.347092C1487.59729,185.998642,1486.13269,186.500961,1484.078857,186.953369C1482.435303,187.315399,1479.975342,187.981857,1478.612427,188.434387C1476.422363,189.161453,1475.883911,189.242218,1473.982788,189.128769C1472.799438,189.058167,1471.582031,189.093185,1471.277466,189.206604C1469.964355,189.695435,1469.745239,192.803864,1470.954712,193.783279C1471.470215,194.200653,1471.901489,194.261063,1473.694092,194.166977C1475.679199,194.062805,1475.980225,193.964218,1478.191528,192.69455C1479.602783,191.884247,1481.524658,191.057938,1482.942505,190.651886C1484.251953,190.276825,1485.952881,189.73558,1486.722168,189.449112C1488.485596,188.79248,1488.92041,188.796371,1489.785034,189.476532C1490.282959,189.868118,1490.482178,190.270813,1490.482178,190.885437C1490.482178,192.202957,1489.609619,192.836487,1487.153687,193.301971C1484.081787,193.884232,1481.995483,194.643478,1480.114258,195.863724C1476.88562,197.957993,1475.809326,198.215149,1471.963623,197.810944C1470.150146,197.620346,1469.91687,197.651978,1469.251953,198.178696C1468.231201,198.987305,1468.221802,200.556488,1469.23291,201.351852C1469.87207,201.854645,1470.227661,201.901779,1472.870483,201.834015C1475.428345,201.768448,1475.916382,201.827515,1476.721069,202.300217C1477.968018,203.032745,1478.955444,204.561325,1479.618286,206.78537C1480.299683,209.070999,1480.902954,210.013229,1482.200684,210.817932C1483.381836,211.5504,1484.864258,211.496338,1485.961914,210.68071M1339.708374,185.721375C1339.812622,185.552826,1339.977661,184.562439,1340.075317,183.520508C1340.272461,181.416672,1340.966431,179.913986,1342.144043,179.040634C1343.953979,177.69838,1349.0271,178.443237,1350.911865,180.327957C1351.856079,181.272202,1352.122314,182.150787,1352.122314,184.322357C1352.122314,185.50853,1352.215942,185.78511,1352.706299,186.047562C1353.524292,186.485306,1354.729126,186.39978,1355.323486,185.861832C1355.696289,185.524475,1355.82605,185.046448,1355.82605,184.010254C1355.82605,180.836456,1357.503418,179.134445,1361.557983,178.194122C1362.53418,177.967712,1363.534302,177.674698,1363.780518,177.542969C1364.409424,177.206406,1365.042358,175.482208,1365.386475,173.168182C1365.742065,170.777313,1365.333984,168.149521,1363.907227,163.643784C1362.549194,159.355148,1362.200684,158.94516,1358.590576,157.388275C1358.01001,157.137863,1356.752197,156.287369,1355.795532,155.498291C1353.446655,153.560776,1352.522705,153.111938,1350.91394,153.126907C1349.22937,153.142563,1346.909058,153.897095,1346.564209,154.541397C1346.136108,155.341339,1346.263306,156.086777,1346.897461,156.494568C1347.224854,156.705093,1348.61377,157.080994,1349.984009,157.329926C1351.771118,157.654587,1353.128296,158.10936,1354.784912,158.938675C1359.021851,161.059692,1360.994995,163.527649,1361.810791,167.726578C1362.68335,172.217056,1361.381714,174.768173,1357.237671,176.68956C1354.838501,177.801941,1353.263428,177.686066,1349.344604,176.108932C1344.66748,174.226669,1341.666016,174.116028,1339.797119,175.756989C1337.697998,177.600006,1335.492432,184.153275,1336.459229,185.674316C1336.985352,186.501923,1339.206177,186.534088,1339.708374,185.721375M1505.077759,238.490402C1506.001465,237.654434,1505.688477,236.857422,1503.717773,235.026855C1501.422974,232.89537,1500.799561,231.468155,1500.799561,228.346222C1500.799561,225.432129,1501.504272,223.600601,1503.30542,221.832993C1505.080688,220.090744,1506.963379,219.351501,1509.625,219.351501C1511.362793,219.351501,1511.786499,219.4655,1513.934448,220.51091C1516.825928,221.918243,1517.635742,222.114243,1519.019409,221.741669C1521.004517,221.207123,1522.757324,219.085983,1522.757324,217.218201C1522.757324,216.113007,1521.095825,212.997742,1519.787231,211.649384C1517.973633,209.780472,1514.374634,208.504944,1510.915283,208.504944C1508.279419,208.504944,1505.766357,209.118683,1501.990112,210.684616C1495.185059,213.5065,1495.743774,213.358261,1491.804932,213.386627C1488.532715,213.410202,1488.107788,213.470718,1486.734375,214.108963C1484.949219,214.938446,1484.356323,215.739853,1484.331787,217.356201C1484.2948,219.803329,1486.18457,220.41188,1488.173218,218.593262C1490.357056,216.596191,1490.716797,216.523422,1495.433716,217.124786C1496.752686,217.292938,1496.903564,217.244858,1498.835083,216.041C1503.547363,213.103928,1508.680908,211.625427,1512.199097,212.192001C1513.864746,212.460266,1517.927246,214.20993,1518.885498,215.071823C1520.111206,216.17421,1519.937744,217.972427,1518.550415,218.547104C1517.650024,218.920044,1516.883789,218.652969,1515.228027,217.389084C1513.89917,216.374756,1511.849243,215.647797,1510.317749,215.647797C1508.708252,215.647797,1505.489746,216.603134,1503.170166,217.769394C1498.959229,219.886673,1498.596802,220.274704,1498.324219,222.958954C1498.248291,223.706284,1497.881348,225.041992,1497.508789,225.92717C1496.733643,227.768646,1496.657959,229.006287,1497.235474,230.388733C1497.457764,230.920746,1497.817383,232.375259,1498.034546,233.620972C1498.485962,236.210938,1498.912598,236.793472,1501.328735,238.119873C1502.954224,239.012268,1504.348755,239.150085,1505.077759,238.490402M1371.889893,186.371231C1372.121826,186.060074,1372.200439,184.512085,1372.168579,180.885376C1372.130859,176.588806,1372.210938,175.41745,1372.704468,173.055206C1373.023682,171.52742,1373.285156,169.968506,1373.285522,169.590927C1373.286011,169.213348,1372.832153,168.201462,1372.276855,167.342255C1370.958862,165.302399,1370.640869,164.330414,1370.640869,162.340561C1370.640869,160.146881,1371.334106,159.076431,1373.160156,158.450378C1375.001343,157.819199,1376.430908,157.869507,1378.470581,158.637222C1380.756226,159.497543,1381.268921,159.473877,1383.499023,158.405121C1386.71582,156.863525,1387.637817,155.805542,1389.440552,151.587753C1390.012573,150.24939,1390.911255,148.529037,1391.437622,147.764755C1392.333252,146.464325,1392.407471,146.199661,1392.592529,143.640533C1392.823364,140.450409,1393.568115,138.632629,1395.133789,137.438477C1396.457275,136.428955,1398.63501,136.267151,1400.398682,137.047302C1402.405273,137.934921,1403.470215,137.777679,1404.133057,136.495911C1404.647705,135.500687,1404.407959,134.273743,1403.512329,133.319382C1402.627808,132.376846,1401.741943,132.214722,1400.136719,132.701614C1399.352051,132.939636,1397.776245,133.103546,1396.25647,133.105255C1393.72522,133.108093,1393.68811,133.117432,1392.84021,133.965363C1391.629761,135.175797,1390.314575,138.108643,1389.682251,141.007706C1389.023193,144.029236,1388.719482,144.755493,1387.37085,146.536285C1386.605347,147.546997,1386.22876,148.377167,1385.993774,149.572098C1385.034424,154.448288,1381.853394,156.2052,1376.311401,154.919907C1374.424316,154.482269,1373.604248,154.562149,1371.862061,155.353333C1371.113037,155.693481,1370.151611,155.84964,1368.781738,155.853622C1365.517212,155.863159,1364.952148,156.729752,1366.296021,159.665405C1366.671021,160.484314,1367.461914,162.968933,1368.053711,165.186798C1369.416382,170.293686,1369.507324,173.030701,1368.425049,176.362091C1367.635498,178.792557,1367.578735,179.810059,1368.130859,181.630081C1368.347656,182.34494,1368.509766,183.611389,1368.490845,184.444382C1368.472046,185.277405,1368.543579,186.09967,1368.649902,186.271667C1369.183105,187.134308,1371.273193,187.198547,1371.889893,186.371231M1406.217529,172.267487C1406.551392,171.898514,1406.755249,171.048035,1406.908936,169.381897C1407.468628,163.317093,1410.15564,160.150787,1415.360474,159.423111C1417.050415,159.186829,1419.37561,159.666031,1423.84314,161.171356C1427.180908,162.296036,1427.990967,162.473007,1429.795532,162.471725C1432.369873,162.46991,1433.649902,162.131882,1434.727051,161.169449C1435.447632,160.525589,1435.557373,160.253052,1435.557373,159.10849C1435.557373,157.044571,1434.855957,155.600449,1432.977173,153.79631C1431.786865,152.653366,1431.052612,152.158432,1430.407104,152.063995C1429.910034,151.991287,1428.619873,151.811661,1427.540161,151.664841C1425.217041,151.348953,1422.265747,149.993332,1420.959229,148.642105C1420.479614,148.146027,1419.110596,146.266754,1417.916992,144.465912C1415.523315,140.854767,1414.15271,139.605957,1412.644043,139.661835C1410.176758,139.753204,1406.150513,140.024414,1405.630981,140.134247C1404.794434,140.311096,1404.257446,141.262207,1403.82373,143.335449C1403.595459,144.426437,1403.071533,145.739929,1402.486816,146.687256C1401.541016,148.219482,1401.524658,148.293427,1401.487793,151.192459C1401.443359,154.686691,1401.373047,154.855881,1397.897095,159.827698C1396.625488,161.646484,1395.448853,163.394608,1395.282349,163.712418C1394.611206,164.992889,1395.137085,166.469421,1396.493286,167.113007C1397.252075,167.473083,1397.536011,167.491119,1398.188721,167.220764C1399.045898,166.865692,1399.398315,166.303864,1400.358276,163.761932C1401.084229,161.839706,1401.97583,160.270142,1404.119873,157.139465L1405.623047,154.944565L1405.411621,153.484009C1405.295288,152.68071,1405.192139,151.181229,1405.182373,150.151825C1405.16748,148.570404,1405.28772,148.041138,1405.958374,146.738647C1407.047974,144.622284,1408.324951,143.635483,1410.172363,143.482269C1413.116577,143.238129,1415.464355,145.253891,1416.702393,149.088837C1417.263672,150.82756,1417.557617,151.342148,1418.266602,151.827728C1419.313965,152.544907,1427.358887,155.195709,1429.267212,155.452408C1431.753052,155.786804,1433.020386,157.120193,1432.317871,158.662033C1432.155762,159.01799,1431.694214,159.436005,1431.292236,159.590958C1430.522217,159.887863,1428.047607,159.192642,1420.640869,156.598465C1416.605835,155.185211,1415.991211,155.124008,1413.960327,155.933044C1413.05127,156.295166,1411.574829,156.675217,1410.679199,156.777603C1408.758911,156.997131,1408.459351,157.234436,1406.568604,160.03363C1405.062012,162.26413,1402.386963,167.823257,1402.386963,168.723633C1402.386963,170.222366,1404.130005,172.790665,1405.147217,172.790665C1405.475464,172.790665,1405.957031,172.555237,1406.217529,172.267487M1443.921265,208.392441C1447.994385,208.363449,1448.615723,207.866318,1449.111816,204.240051C1449.381348,202.268661,1449.700684,201.299225,1450.929199,198.722137C1452.724365,194.956436,1452.86731,193.971161,1452.273193,189.457321C1451.896851,186.59819,1451.882324,185.690338,1452.165771,182.752258C1452.567383,178.589661,1452.378906,177.998474,1450.608276,177.868805C1449.071899,177.756271,1448.716309,178.388214,1448.376953,181.833633C1447.997803,185.683578,1448.249756,188.659241,1449.208252,191.651596C1450.155762,194.609344,1450.16394,194.740646,1449.457642,195.63858C1448.328613,197.073944,1446.259277,196.151154,1445.89624,194.050385C1445.799072,193.488495,1445.482788,192.076385,1445.193237,190.912354C1444.271362,187.205383,1444.299072,183.752014,1445.294922,178.263046C1445.606567,176.544662,1445.592285,176.404419,1444.988281,175.265976C1444.639893,174.609085,1443.787842,173.467896,1443.095093,172.72998L1441.835449,171.388336L1439.373047,171.540375C1436.149658,171.739395,1427.346191,173.218231,1426.31897,173.733215C1425.528442,174.129517,1423.540405,176.786743,1423.065552,178.081665C1422.932129,178.445419,1422.737671,179.366745,1422.633423,180.129059C1422.361084,182.120071,1421.605225,183.069504,1419.314087,184.298599C1417.476196,185.284531,1417.285889,185.470322,1416.52771,187.019287C1415.1875,189.757202,1415.021606,189.854156,1411.679199,189.854156C1409.605347,189.854156,1408.696899,189.956818,1408.368408,190.228333C1407.685913,190.792435,1407.938721,191.862183,1408.908569,192.513367C1409.920288,193.192749,1413.606567,194.042709,1415.6521,194.068283C1417.544922,194.091965,1418.121826,193.608414,1418.56543,191.626297C1419.066528,189.38736,1420.162476,188.004028,1422.968994,186.06842C1424.322266,185.135117,1425.595459,184.116989,1425.798462,183.805939C1426.001343,183.494888,1426.281982,182.313705,1426.421997,181.181107C1426.734741,178.651016,1427.499512,177.506638,1429.474976,176.612793C1432.49231,175.247604,1437.886841,174.730667,1439.679443,175.634979C1441.818604,176.71405,1442.290649,179.986115,1440.884155,183.984131L1440.157104,186.050644L1440.709106,187.687836C1441.012695,188.588303,1441.372803,190.116455,1441.509277,191.083725C1441.803833,193.171997,1441.983765,193.542725,1443.569946,195.328705C1446.751465,198.910904,1446.907715,203.099319,1443.916016,204.602432C1442.665039,205.230942,1440.317627,205.201767,1438.630249,204.536697C1436.432617,203.670441,1435.455688,203.917007,1435.455688,205.337906C1435.455688,206.31311,1436.977539,208.502991,1437.935181,208.905609C1438.602661,209.186264,1438.933838,209.173264,1439.939209,208.827011C1440.713623,208.560272,1442.13501,208.405136,1443.921265,208.392441M1331.453491,186.783997C1332.579834,186.391357,1332.810181,185.860291,1332.810181,183.655655C1332.810181,181.594589,1333.31665,179.846222,1334.933105,176.327728C1336.810913,172.240417,1338.790527,171.052994,1343.656738,171.095139C1346.004028,171.115463,1346.711182,171.22821,1348.220215,171.822647C1353.189575,173.780258,1353.562378,173.890869,1354.644165,173.728882C1356.033447,173.520859,1357.283569,172.744522,1357.96167,171.668747C1358.752563,170.414017,1358.555664,167.815063,1357.526611,165.924225C1356.10144,163.305801,1353.754517,161.968781,1348.179077,160.599213L1344.63269,159.728058L1342.285156,160.340515C1339.153442,161.157578,1336.347168,161.039017,1334.601318,160.015869C1331.491089,158.193192,1329.910889,154.541595,1331.051147,151.812424C1331.489624,150.763031,1332.943237,149.455292,1334.609985,148.610687C1335.913086,147.950348,1336.521484,147.067245,1336.90686,145.276367C1337.22522,143.79715,1338.87561,140.670837,1340.426147,138.609726C1341.213745,137.562714,1341.957642,136.44455,1342.079102,136.124878C1342.209595,135.781769,1342.155029,134.638458,1341.945923,133.333847C1341.547729,130.849457,1341.73877,128.940094,1342.605591,126.740891C1343.308105,124.958611,1343.2677,124.542847,1342.313721,123.740105C1340.827026,122.489197,1339.4104,123.039513,1338.628662,125.171608C1338.432129,125.707458,1338.213501,128.103653,1338.109619,130.859436C1337.907959,136.211853,1337.761719,136.722107,1335.022461,141.629501C1333.316895,144.684998,1332.041016,146.159332,1329.908691,147.538696C1328.937134,148.167206,1327.973633,148.884644,1327.767456,149.133026C1327.561279,149.381378,1327.309692,150.371429,1327.208252,151.33313C1327.106689,152.294815,1326.940918,153.866653,1326.839722,154.826096L1326.655762,156.570496L1328.488159,158.662064C1329.496094,159.812424,1331.003906,161.615479,1331.838989,162.668854C1332.755005,163.824188,1333.624512,164.651123,1334.03064,164.753052C1334.401001,164.845993,1336.51001,164.668121,1338.717407,164.357803C1345.285156,163.434418,1347.24353,163.608459,1351.725586,165.513794C1354.726318,166.78952,1355.561523,167.517349,1355.561523,168.856888C1355.561523,169.583862,1355.403687,169.961151,1354.973511,170.262436C1354.033447,170.920868,1353.096191,170.748581,1351.430542,169.611115C1349.331055,168.177414,1347.057861,167.499344,1344.356445,167.50087C1342.00293,167.502213,1335.5,168.373932,1334.716797,168.793076C1334.191406,169.074295,1334.13916,169.184341,1331.879395,174.77478C1328.687378,182.671783,1328.281128,183.873642,1328.365234,185.171402C1328.430542,186.1772,1328.56604,186.463303,1329.106445,186.735474C1329.925171,187.147797,1330.382813,187.157257,1331.453491,186.783997M1323.944702,187.010239C1324.520386,186.511948,1324.652222,186.134918,1324.753906,184.695419C1324.928345,182.226028,1325.048828,181.794586,1326.517456,178.379913C1329.324463,171.853622,1330.728638,167.996078,1330.566406,167.257248C1330.387939,166.445023,1324.908203,159.741837,1324.044922,159.279831C1323.666626,159.077347,1322.760986,159.037262,1321.305176,159.158539C1318.49939,159.392242,1317.217041,159.049362,1315.874023,157.706375C1312.692871,154.525162,1312.729614,150.813232,1315.977905,147.216187C1318.161987,144.797592,1320.177124,144.253204,1323.154053,145.277435C1323.999878,145.568436,1324.923218,145.806534,1325.205811,145.806534C1326.996338,145.806534,1330.287964,142.869141,1332.065552,139.685104C1334.106689,136.029083,1334.403931,134.813263,1334.36792,130.27037C1334.334839,126.09539,1334.47937,125.377472,1335.82019,123.055206C1336.676758,121.571617,1336.684448,121.085358,1335.864502,120.265411C1335.06189,119.462776,1334.165771,119.438232,1333.206787,120.192612C1332.152832,121.021614,1330.958618,123.024559,1330.956421,123.966789C1330.955444,124.411194,1330.719116,125.756927,1330.431396,126.957329C1329.912354,129.122284,1329.912231,129.157166,1330.420776,131.286041C1330.821167,132.962723,1330.880005,133.71344,1330.689575,134.717667C1330.118652,137.727814,1327.601807,140.959137,1325.395508,141.514618C1324.151611,141.827759,1323.365112,141.716461,1321.077271,140.90361C1319.499512,140.343002,1318.546387,140.570038,1316.255493,142.052216C1314.509766,143.181671,1313.946655,143.851959,1311.956299,147.170258C1309.681641,150.962418,1308.497559,151.647705,1303.17041,152.255157C1300.832886,152.521713,1300.120361,152.699493,1299.837158,153.086899C1298.908936,154.356247,1299.982544,156.917648,1301.442749,156.917648C1301.775635,156.917648,1302.773315,156.543564,1303.65979,156.086365C1305.362183,155.208405,1307.258911,154.878677,1308.869263,155.180786C1310.124512,155.416275,1311.710693,156.875778,1312.556885,158.57399C1313.887329,161.24379,1313.293701,163.989059,1310.750977,166.926025C1310.079346,167.701782,1309.529785,168.588501,1309.529785,168.896484C1309.529785,169.204483,1309.832764,170.449753,1310.203003,171.663757C1310.733643,173.40332,1311.014404,173.93396,1311.528076,174.167984C1312.363403,174.548599,1313.350342,174.06485,1313.735474,173.085983C1313.885254,172.705307,1314.126099,171.284805,1314.27063,169.929337C1314.546753,167.33876,1315.388306,165.025208,1316.489502,163.828781C1318.310181,161.850647,1321.746826,162.035995,1324.102417,164.239349C1326.744629,166.7108,1326.821655,168.798813,1324.481567,174.510345C1322.582886,179.144608,1321.638306,181.038177,1320.390747,182.711288C1318.5896,185.126968,1318.431519,185.756882,1319.33728,186.908417C1319.827148,187.531143,1320.065308,187.605469,1321.571289,187.605469C1322.939087,187.605469,1323.386475,187.493271,1323.944702,187.010239"/>
</svg>
