<?xml version="1.0" encoding="UTF-8"?>
<svg xmlns="http://www.w3.org/2000/svg" width="590.000mm" height="373.998mm" viewBox="-988.577148 -491.314636 590.000366 373.997986">
    <path transform="matrix(-1,0,0,-1,0,0)" style="stroke:none;fill:#000000;fill-rule:evenodd" d="M607.766602,490.589569C607.367859,490.190826,607.041565,489.416229,607.041565,488.868896C607.041565,487.830841,613.533081,481.120605,616.254272,479.345551C617.115356,478.78418,620.540527,475.877411,623.866089,472.886627C627.191528,469.895844,631.223938,466.427765,632.82666,465.180115C638.942566,460.419006,643.235352,457.106201,645.785278,455.181396C647.23938,454.083435,650.740112,451.415863,653.564697,449.252563C656.389343,447.089844,660.739563,443.986694,663.231934,442.357727C670.412781,437.663757,670.112488,437.952576,669.664063,436.166534C669.195923,434.301392,665.922363,432.212067,660.528198,430.334686C657.590454,429.312531,656.553711,429.198364,654.961731,429.723999C652.184753,430.640533,647.745117,428.394745,645.846191,425.113708C644.5755,422.918304,644.486084,422.143738,644.659851,414.883698C644.877563,405.798981,645.972412,402.150879,650.016479,397.034546C652.686218,393.657684,652.686218,393.218414,650.025696,388.81308C649.152283,387.367371,648.000671,386.184357,647.466797,386.184357C646.932495,386.184357,645.328369,387.030243,643.901306,388.063721C640.453064,390.561157,634.302917,393.433502,632.401245,393.434235C630.247559,393.434723,628.913513,394.474548,619.912109,403.169373C608.206482,414.475891,603.511841,417.6026,598.240417,417.6026C597.138794,417.6026,596.073547,417.867859,595.87323,418.191711C595.672974,418.515533,595.259705,421.030823,594.954834,423.780518C593.884583,433.431946,592.406738,440.447266,590.81665,443.417847C590.437012,444.126862,589.281189,445.309265,588.248413,446.044739C587.133911,446.83847,585.685608,448.881897,584.685974,451.07135C581.839905,457.305573,570.477966,467.084503,560.718994,471.699432C558.780701,472.615936,556.180908,474.005585,554.941589,474.78772C551.851196,476.737152,549.963074,476.636841,548.673584,474.453186C548.030884,473.365143,546.94812,472.559143,545.827087,472.33493C542.460754,471.661926,541.649902,470.042053,543.093323,466.87384C543.738647,465.458038,545.014099,464.536011,550.851257,461.266418C560.703857,455.747955,565.103027,453.148102,567.994019,451.135529C570.760132,449.20993,575.657166,444.648865,576.351685,443.351044C576.701782,442.697296,577.168884,438.985138,577.389893,435.101746C577.752502,428.731903,577.99176,427.634674,579.837769,423.879364C582.453125,418.559052,584.798645,415.295776,587.448975,413.289276C588.607544,412.412537,590.864807,409.516022,592.465149,406.852936C595.427124,401.924896,598.93988,397.340851,601.531616,395.023224C610.521729,386.982483,614.748718,384.296814,621.14502,382.560669C623.095703,382.031067,624.235229,381.344727,624.564026,380.501373C624.835205,379.805237,625.402527,378.284454,625.824341,377.121399C626.245972,375.958313,628.373962,373.279938,630.552368,371.169281L634.513306,367.331879L633.035095,366.134918C632.074036,365.356476,631.020935,365.047119,630.023743,365.250702C620.597961,367.173279,613.220703,369.710327,593.749268,377.725189C587.237183,380.405792,581.14447,382.796631,578.342224,383.77066C576.680664,384.348175,572.058594,386.103394,568.070862,387.671204C564.08313,389.238556,557.421875,391.698242,553.268066,393.136597C549.114197,394.574829,543.339844,396.601898,540.436768,397.641083C537.533508,398.680359,533.319275,400.044617,531.071716,400.672546C528.824036,401.300751,524.674438,402.535126,521.849792,403.416168C509.681274,407.210388,491.282837,411.646423,482.991364,412.784607C480.726929,413.095276,478.643677,413.492249,478.361298,413.66684C477.804443,414.011261,470.692444,414.93869,461.127991,415.914398C443.689575,417.693817,423.285492,415.79541,413.396423,411.474579C411.070251,410.457947,407.535706,408.917847,405.54187,408.051453C400.723328,405.957886,399.513977,404.802094,398.778564,401.588654C397.709595,396.917297,400.952271,388.083344,406.935608,379.36673C408.495239,377.094788,410.858795,373.658722,412.188019,371.730865C415.532928,366.879639,423.668549,357.568359,431.220245,349.947754C438.523895,342.577637,441.349121,340.872589,452.103943,337.343842C462.350281,333.98233,466.272705,333.148529,477.290253,331.991394C478.869019,331.825348,480.157166,331.648285,480.153656,331.59726C480.149933,331.546173,479.748108,330.189758,479.260773,328.583099C478.06543,324.642639,478.831543,322.937592,484.461975,317.010254C490.062988,311.114075,492.912384,308.923248,504.70282,301.448914C507.981659,299.3703,523.548218,291.582794,526.827637,290.380066C531.978516,288.491119,543.369507,284.828491,546.177368,284.158142C549.595703,283.342163,556.60498,283.255768,559.068787,283.999756C560.032043,284.290741,562.315918,284.861725,564.143555,285.268494C567.500488,286.015747,584.056702,291.381592,587.405151,292.807068C588.4021,293.231659,591.800659,294.595306,594.957642,295.83783C598.114563,297.080383,601.785034,298.570953,603.114258,299.150024C604.443542,299.729187,607.570251,301.085022,610.062561,302.162903C618.603455,305.856354,636.270203,314.000946,640.415283,316.15625C642.879517,317.437622,644.148926,316.814667,645.559082,313.632751C647.68103,308.844116,647.334839,308.084015,642.689209,307.339813C638.819336,306.719757,632.931396,305.198364,631.511536,304.451813C629.98291,303.64801,628.836792,302.169525,628.81189,300.969849C628.787231,299.779938,623.634033,294.768127,621.156921,293.524597C617.146179,291.511505,603.882202,287.58905,596.770203,286.313599C593.230835,285.678589,582.488831,283.355438,579.527222,282.583832C575.600952,281.560974,574.524902,281.001495,572.668335,279.016388C571.44043,277.703796,571.278564,277.073029,571.588074,274.81427C571.937744,272.264801,571.852539,272.076294,569.504089,270.189056C566.72168,267.953247,562.086914,261.905853,560.714905,258.721588C557.662354,251.636932,556.881714,248.554306,556.585327,242.411346C556.417725,238.936081,556.000244,235.813004,555.65741,235.4702C554.393066,234.205841,545.96814,229.587952,533.061707,223.085022C521.815308,217.418823,519.37439,216.404984,516.97345,216.404984C513.987976,216.404984,512.379028,215.318634,512.99292,213.718338C513.180786,213.229309,514.70636,212.133301,516.383606,211.283691C519.092224,209.911087,519.781006,209.01506,519.511536,207.211945C519.339355,206.061127,520.72113,203.716843,521.571411,203.716843C522.099304,203.716843,524.017639,204.396561,525.833679,205.227341C527.650085,206.058105,529.331543,206.737213,529.571167,206.736099C531.422119,206.72876,545.468445,213.660721,549.583801,216.611969C554.165894,219.898453,558.848389,225.212357,560.590271,229.103424C561.4646,231.055542,562.155151,231.567917,565.785095,232.955017C570.14563,234.621521,571.998779,236.209366,575.490356,241.272583C579.032227,246.408188,580.867737,251.48465,581.558472,258.056122L581.967407,261.944977L586.196777,262.686066C594.817444,264.19635,601.545166,267.392578,613.38562,275.60202C623.861206,282.864838,627.04834,284.497986,629.234863,283.723206C630.746033,283.1875,630.898865,282.86969,630.817383,280.430664C630.658997,275.677917,629.49353,271.273926,627.041504,266.164215C624.104675,260.043732,621.014221,255.73941,614.65509,248.912659C604.342041,237.841293,597.985229,229.223022,595.579468,223.051147C595.126221,221.888077,594.522583,220.628922,594.237793,220.253067C593.281616,218.989746,591.936646,212.748993,591.936646,209.574554L591.936646,206.428268L586.863342,203.819305C584.072998,202.384598,580.418823,200.074738,578.74231,198.687363C577.066162,197.299667,575.060181,195.722107,574.285156,195.181931C572.231934,193.75061,569.350586,187.768463,569.812561,185.89534C570.017578,185.063477,570.354736,183.693161,570.562134,182.850876C570.980713,181.149475,569.926941,179.649246,566.80957,177.507568C550.557617,166.341812,539.795044,160.056366,535.343079,159.13121C531.165894,158.263092,531.090393,155.499512,535.187378,153.428894C537.777039,152.120224,539.371521,150.218811,539.371521,148.439865C539.371521,146.374924,540.688049,145.555023,542.746948,146.338043C545.581421,147.415955,555.745239,155.025803,559.593201,158.952042C561.576355,160.975952,563.508545,162.631439,563.886353,162.631439C564.263794,162.631439,567.194763,165.350327,570.398682,168.673416C575.630554,174.099701,576.442627,174.715393,578.370483,174.715393C581.361389,174.715393,583.215698,175.848251,587.442383,180.258957C593.283386,186.353424,596.770203,192.640701,596.770203,197.077148C596.770203,199.074783,598.598511,201.298843,600.244385,201.302307C601.558472,201.304886,604.970947,203.319885,607.253418,205.439987C609.713318,207.725082,616.215088,217.223068,618.481201,221.842758C619.541199,224.002762,620.730835,226.43103,621.12616,227.239243C622.441345,229.929337,623.051575,228.586792,623.103638,222.890976C623.16095,216.593491,624.092041,208.714767,625.409424,203.381683C628.296021,191.693939,630.631226,184.580719,633.983521,177.261871C634.853394,175.363083,635.997131,172.721542,636.525269,171.392303C637.053223,170.063065,638.231445,167.752014,639.143677,166.256622C640.055481,164.76123,641.609497,161.906403,642.595886,159.912552C644.423218,156.219711,649.297302,148.802582,654.137573,142.34903C658.04364,137.140976,668.991699,126.056992,673.219238,123.029816C679.853394,118.279755,682.380127,117.316666,688.205566,117.316666C693.8526,117.316666,694.976379,117.75351,704.619385,123.697601C708.723083,126.227371,714.896118,131.946091,717.729858,135.844482C718.494751,136.896286,720.683777,139.804886,722.594238,142.307434C724.5047,144.810043,726.068359,146.969452,726.068359,147.105331C726.068359,147.241333,727.569824,149.906448,729.404785,153.028412C736.84668,165.688675,742.280762,178.88736,745.769165,192.777069C748.513672,203.705963,749.137817,207.64473,749.584106,216.871338C750.215698,229.9263,750.920227,230.111801,754.702026,218.217575C758.404419,206.572876,763.341309,198.706848,768.776611,195.790985C770.226135,195.013382,770.685303,194.27565,771.019287,192.184998C772.210938,184.731766,782.687683,170.240097,788.436157,168.093857C789.52478,167.687378,791.008057,167.122452,791.732788,166.837814C792.45752,166.553284,794.613892,163.927444,796.525085,161.001999C800.639038,154.704391,809.013733,145.842621,813.676941,142.850784C815.504639,141.678497,817.865845,139.963791,818.92395,139.040421C821.829346,136.505371,823.345337,136.216553,824.72583,137.93367C825.360962,138.723358,826.737305,139.7789,827.784302,140.279404C830.699585,141.672455,830.523193,143.270554,827.146973,146.060013C823.409973,149.146988,819.937622,151.821762,818.183838,152.964294C814.643066,155.271118,804.977112,164.412003,801.764893,168.491867C799.967712,170.7742,799.830566,171.270859,799.933594,175.103149C800.028748,178.642059,799.807007,179.649246,798.410645,182.004654C795.969116,186.123825,790.492065,191.906601,785.381531,195.761017C780.955444,199.099564,780.82251,199.276596,780.086121,202.810547C777.98645,212.88916,772.263428,226.156723,763.651733,240.910461C762.088806,243.588409,759.75293,247.666733,758.46106,249.973404C757.169434,252.279785,755.507263,255.118927,754.767578,256.281982C751.259766,261.797699,745.40271,274.209717,745.40271,276.127655C745.40271,276.740082,745.924072,277.71347,746.560791,278.289703C747.955444,279.552032,748.733032,279.219116,753.546997,275.298126C763.782959,266.961151,782.566895,256.164154,790.811707,253.8797C793.180786,253.222931,795.275513,252.529327,795.466797,252.338287C795.844055,251.960754,796.499023,247.289719,797.24292,239.666565C797.881409,233.123718,800.075256,229.891861,807.723328,224.224838C809.267578,223.080765,811.100708,221.315292,811.796936,220.301758C816.546265,213.389435,826.280518,205.381409,836.655884,199.851578C841.361816,197.343155,850.41272,194.049698,852.598999,194.049698C854.888062,194.049698,855.369568,194.521576,855.938232,197.320038C856.218445,198.6996,856.941101,199.510422,858.711182,200.434006C862.782471,202.557388,861.870728,205.529434,857.148193,205.529434C855.252319,205.529434,850.457458,207.387939,842.678406,211.137009C840.396362,212.237228,827.711243,219.876083,824.029724,222.367783C822.246887,223.574387,819.854248,225.185776,818.713501,225.948563C815.983154,227.774155,815.766846,228.535446,816.873047,232.424561C817.384888,234.224564,817.665894,236.318726,817.496277,237.07782C815.827881,244.558151,812.132568,250.543915,805.20575,256.983978C800.788208,261.0914,800.271606,261.792267,800.625427,263.201172C801.171265,265.376953,799.292236,269.421478,796.661255,271.731049C790.768799,276.905029,768.501099,285.837494,755.976135,288.051453C753.193237,288.543701,752.674805,289.107422,752.662292,291.655945C752.655518,292.98877,752.0271,294.095062,750.387329,295.662201C746.84491,299.047668,739.094238,302.805145,735.654419,302.805145C734.801392,302.805145,733.246826,303.103607,732.200562,303.468475C730.302002,304.130157,730.297729,304.141632,730.297729,308.513977C730.297729,312.769562,731.153931,316.701691,732.0802,316.701691C732.762939,316.701691,744.64624,311.633698,748.20929,309.822906C749.919067,308.954071,751.480347,308.24292,751.678711,308.24292C752.181152,308.24292,783.619385,292.555573,784.377197,291.926422C784.716553,291.64502,788.25293,289.734558,792.236023,287.680695C796.219299,285.627228,801.789368,282.62619,804.614014,281.012695C807.438599,279.39917,811.470459,277.240356,813.573853,276.215607L817.398071,274.352386L827.168274,274.5737C837.698608,274.812103,842.930969,275.497864,851.43927,277.755219C870.48114,282.806854,886.863342,290.136963,895.24353,297.355621C896.406616,298.357666,897.494141,299.178162,897.660278,299.178864C897.826538,299.179962,899.148438,300.557556,900.598022,302.240967C902.377319,304.30719,903.511353,306.365112,904.088745,308.576233C904.885376,311.625824,904.859985,312.015533,903.723389,314.24353C902.028076,317.566895,902.998413,317.844208,907.793945,315.407959C911.443237,313.553802,912.339966,313.360474,918.167725,313.167786C925.113281,312.938141,928.247803,313.441437,936.838379,316.165497C949.254517,320.102722,960.685303,327.191162,970.44043,337.003357C981.006836,347.631744,985.317261,354.371552,987.676514,363.954742C988.646362,367.889862,988.791382,369.455933,988.311401,370.720856C987.967285,371.626221,987.685669,373.444244,987.685669,374.761169C987.685669,377.587219,984.748047,383.789917,982.355225,386.015289C976.948486,391.044525,968.714478,394.272125,958.38208,395.412415C951.31665,396.192291,930.737671,396.153595,924.547119,395.348846C921.888672,395.003204,916.450806,394.435852,912.463135,394.087616C908.475464,393.739227,904.669067,393.298767,904.004395,393.107941C902.77124,392.754395,898.635498,392.072235,891.618408,391.064789C889.458374,390.754517,885.515991,390.042725,882.857544,389.482056C877.866821,388.430145,875.76123,388.009613,869.565186,386.8284C856.367065,384.312531,814.365723,373.611603,799.478333,368.972137C792.039429,366.653656,786.814941,365.247711,782.560791,364.417847C781.231567,364.158325,777.832947,363.478607,775.008301,362.906464C765.745361,361.030396,749.771606,359.318115,747.636597,359.971832C746.134399,360.432251,747.295044,361.760284,749.603271,362.222168C750.569214,362.415222,753.44397,363.448395,755.990723,364.517365C760.230896,366.297211,760.73175,366.694153,761.924072,369.22345C763.168457,371.863068,763.602905,372.173615,771.687622,376.215088C786.882629,383.810455,791.315063,386.690674,798.723083,393.783508C803.900391,398.740753,804.009766,398.9039,804.009766,401.68335C804.009766,407.398315,810.281372,421.054382,817.639282,431.360687C822.617798,438.334381,824.286621,439.370605,851.741333,452.540283C854.653564,453.937195,854.683838,456.170898,851.808716,457.528656C850.6828,458.060242,849.382568,459.218475,848.919434,460.102142C847.948853,461.954865,845.518127,462.278717,843.858032,460.776642C843.291687,460.263702,839.523926,458.22757,835.486206,456.251038C831.448242,454.274933,827.404297,452.160248,826.499573,451.551758C825.594727,450.94339,822.44812,448.8414,819.507324,446.880951C811.774902,441.725769,805.442993,434.806488,801.998901,427.748474C798.665039,420.915375,797.685669,418.31192,796.794312,413.914948C796.131714,410.644653,796.021729,410.503265,793.565308,409.767548C791.060669,409.016937,782.766235,404.905396,778.633545,402.365417C773.055542,398.937134,768.400879,395.798309,768.047302,395.226654C767.832275,394.878754,766.610596,393.933777,765.33252,393.127106C764.05426,392.320587,762.160095,390.427002,761.123291,388.919983C759.261719,386.214539,759.206177,386.185577,756.700806,386.634583C755.305481,386.884613,753.196228,387.051971,752.01416,387.006409C749.422974,386.906372,743.254761,383.89325,740.262146,381.265442C737.07019,378.462677,736.55304,379.475342,738.012695,385.67038C738.666504,388.445251,739.551636,392.347168,739.97937,394.341003C740.56427,397.066528,741.316528,398.566132,743.00946,400.382965C746.030457,403.624481,746.450378,404.599091,746.655884,408.841736C747.030396,416.570038,746.731323,418.492584,744.76355,420.993652C742.480835,423.895294,739.743164,425.457153,736.939697,425.457153C735.092041,425.457153,734.639526,425.761047,733.607178,427.694672C730.911011,432.743774,727.821167,435.124298,723.962402,435.124298C721.967041,435.124298,721.848633,435.221588,722.458679,436.361603C722.822632,437.042023,723.852173,437.862518,724.745667,438.184662C726.855042,438.945221,730.005981,440.645447,736.330444,444.437134C739.149841,446.12735,741.925537,447.782227,742.498047,448.114532C743.071045,448.446838,746.009277,450.214111,749.027832,452.041809C752.046387,453.869537,754.980408,455.639191,755.54834,455.974823C756.115723,456.310486,759.435181,458.2995,762.924438,460.395264C766.413696,462.490814,769.811035,464.527527,770.474243,464.921021C771.137268,465.314209,772.360718,466.078522,773.193176,466.618713C774.025269,467.158844,775.657837,468.118896,776.820923,468.751801C777.984009,469.384674,780.838867,471.144714,783.165039,472.663483C785.49115,474.182007,788.104309,475.854431,788.972046,476.380249C791.136169,477.691223,792.297424,482.048065,790.89624,483.596313C789.660156,484.962128,788.365906,484.948212,785.144775,483.533447C778.1828,480.475342,775.623413,479.074219,764.716431,472.349609C760.883423,469.986481,757.299316,467.781158,756.751709,467.448853C756.203918,467.116547,752.456665,464.669556,748.424072,462.011078C732.118774,451.2612,728.468262,448.967072,722.749268,445.874542C712.519287,440.342133,711.580933,440.208008,707.50061,443.690643C703.594666,447.025177,699.142334,448.709656,695.694824,448.158447C693.076172,447.739929,686.675903,444.773315,684.818665,443.117737C683.830811,442.236908,683.597534,442.307587,681.797668,444.037872C679.182678,446.551483,673.345581,450.129547,665.648682,453.936951C659.232727,457.111053,654.941101,459.960449,649.88147,464.405121C648.354126,465.746826,644.848633,468.611908,642.091125,470.771942C639.333496,472.931946,635.961426,475.663513,634.59668,476.842773C633.2323,478.021698,631.300049,479.485077,630.303162,480.094696C629.306213,480.704346,627.131104,482.220856,625.469604,483.465088C621.246826,486.626678,612.083618,491.314636,610.125366,491.314636C609.226929,491.314636,608.165344,490.988373,607.766602,490.589569M586.777588,433.806244C588.597229,427.678192,587.483093,423.76059,585.293091,428.586975C584.140686,431.126343,583.673035,435.722443,584.484863,436.534088C585.369019,437.418427,585.888062,436.800964,586.777588,433.806244M511.732971,329.67511C517.185974,325.969452,514.016357,319.624176,508.164886,322.532532C503.748047,324.727844,502.437531,328.8992,505.674377,330.459167C507.846313,331.505737,509.319336,331.315399,511.732971,329.67511M597.23999,339.324829C599.655884,337.632874,598.761658,333.763611,595.573914,332.11499C589.139832,328.788055,583.583008,335.957458,589.82196,339.535614C591.567505,340.536652,595.676636,340.420044,597.23999,339.324829M670.494141,177.403107C672.181885,172.963226,666.277649,166.91098,661.990723,168.686966C657.806152,170.420151,658.963257,175.070663,664.263062,177.81842C667.787537,179.64563,669.689575,179.518753,670.494141,177.403107M726.171875,277.637329C728.816284,275.24411,726.667114,268.365936,723.275635,268.365936C721.254761,268.365936,718.399902,269.909637,717.576904,271.447968C715.495483,275.336548,722.856445,280.637787,726.171875,277.637329M901.615112,329.115204C902.430542,328.299255,903.098145,327.055206,903.098145,326.349823C903.098145,324.492188,899.90918,321.535278,897.905396,321.535278C893.956055,321.535278,892.735535,325.766449,895.80127,328.832092C897.957031,330.987305,899.659668,331.070679,901.615112,329.115204M893.047363,342.034119C896.4646,339.346405,893.6521,333.619202,888.915161,333.619202C886.970886,333.619202,886.620483,333.864502,885.817871,335.785706C885.0979,337.509644,885.051331,338.372437,885.591919,340.010437C886.721924,343.434387,890.101196,344.351563,893.047363,342.034119M773.648926,341.652252C774.730408,340.200714,774.584839,338.84552,773.151917,337.023773C771.719116,335.202789,769.771729,334.98407,767.132568,336.349091C765.335144,337.278229,764.265686,339.618286,765.054688,340.894897C766.47229,343.189087,772.132324,343.687531,773.648926,341.652252M698.033813,286.633636C698.39917,286.389709,699.01123,285.595825,699.39325,284.870026C701.144043,281.544067,699.072266,277.428894,695.646973,277.428894C692.642395,277.428894,691.024963,278.892242,691.024963,281.610138C691.024963,285.404297,695.29303,288.463318,698.033813,286.633636M914.933594,360.008911C916.340332,358.799103,916.509521,358.307312,916.15979,356.445007C915.261841,351.658722,911.641479,349.715607,908.72583,352.45462C906.276245,354.755798,906.958984,359.025696,910.046387,360.7146C911.895264,361.72583,913.147705,361.545166,914.933594,360.008911M503.156616,341.833069C504.877289,337.942841,503.361359,334.827606,499.746796,334.827606C497.018494,334.827606,495.024048,337.338043,495.486816,340.189087C495.947876,343.031372,497.456543,344.494751,499.924194,344.494751C501.772339,344.494751,502.097992,344.226501,503.156616,341.833069M639.668213,346.91153C641.897095,344.682648,640.845825,338.771179,638.097717,338.081635C637.348083,337.89328,636.146362,337.925903,635.427307,338.154327C633.738647,338.690247,632.23175,342.271912,632.733521,344.55658C633.463135,347.877655,637.374084,349.205658,639.668213,346.91153M594.303101,355.988922C601.052185,354.053162,600.651001,347.515747,593.782898,347.515747C591.521545,347.515747,590.395935,347.859497,589.150757,348.930603C587.017273,350.765717,586.890381,353.851959,588.881897,355.464447C590.447266,356.732178,591.393494,356.823395,594.303101,355.988922M899.624023,356.740051C902.125977,354.485748,899.965942,348.724121,896.618652,348.724121C894.324585,348.724121,891.852173,350.326447,891.01001,352.359314C890.321167,354.021729,890.370117,354.424713,891.432556,355.847534C893.392273,358.472229,897.236816,358.890961,899.624023,356.740051M808.410767,242.881378C810.255981,239.92215,811.016113,236.652832,810.416077,234.261597C809.643311,231.182434,806.262817,233.091095,804.340698,237.691772C803.403198,239.93544,803.049072,246.057159,803.8125,246.820328C804.516113,247.523544,806.662842,245.684357,808.410767,242.881378M644.329468,362.678192C647.027954,358.673431,645.288452,354.161896,641.045898,354.161896C639.002991,354.161896,636.04303,356.326111,636.04303,357.819366C636.04303,359.222656,638.054993,362.689545,639.553467,363.868469C641.564209,365.450104,642.6427,365.181854,644.329468,362.678192M497.981903,361.149994C499.332581,360.585724,500.191742,359.741669,500.445801,358.729218C501.802551,353.324493,497.003387,348.661285,492.982758,351.477264C491.858032,352.264709,491.639954,352.986145,491.639954,355.915131C491.639954,359.777893,492.51178,361.066071,495.737671,361.968781C495.831238,361.99472,496.841461,361.62674,497.981903,361.149994M671.132935,375.355255C672.104492,374.383759,672.899048,373.178406,672.899048,372.67572C672.899048,369.837158,669.925171,365.641632,667.913696,365.641632C667.28125,365.641632,665.969482,366.436157,664.997986,367.407776C661.486328,370.919312,663.672363,376.849487,668.565063,377.083069C669.006226,377.103882,670.161438,376.326874,671.132935,375.355255M965.888306,372.536224C968.275879,370.527191,968.469849,367.153961,966.34021,364.677551C965.178101,363.326385,964.631958,363.11731,963.200562,363.476776C960.79895,364.079193,957.47583,367.73819,957.47583,369.779602C957.47583,374.108856,962.185547,375.651978,965.888306,372.536224M588.809448,194.736145C589.240112,191.802689,581.694885,182.569946,578.866577,182.569946C577.262512,182.569946,576.454712,184.610336,577.076904,187.089905C577.544067,188.952072,580.963257,192.422592,584.605164,194.732346C587.685486,196.685806,588.522949,196.686417,588.809448,194.736145M707.295166,301.015656C707.892334,300.695892,708.722534,299.610168,709.139832,298.602448C709.782227,297.051392,709.747192,296.539032,708.91217,295.264679C706.738892,291.947723,702.494385,290.709717,700.842896,292.911438C699.732666,294.391724,700.193604,298.836182,701.620605,300.412903C702.767517,301.680145,705.509399,301.971375,707.295166,301.015656M836.966003,342.407532C838.846558,340.526978,838.844177,339.034637,836.958252,337.262909C835.202026,335.613037,830.291748,334.904327,828.236877,336.004303C826.462402,336.954376,825.568176,339.380829,826.412598,340.958282C828.018188,343.958221,834.522339,344.851257,836.966003,342.407532M910.053467,343.882782C911.723633,342.037476,911.562256,337.386353,909.778076,335.941833C908.120239,334.599213,906.626587,334.533936,904.361572,335.705383C901.121826,337.380951,900.514526,342.254395,903.301636,344.206726C905.171753,345.517059,908.729248,345.346069,910.053467,343.882782M737.604858,372.560608C739.509949,371.57547,741.771484,368.436646,741.775269,366.77298C741.778687,365.152832,739.993286,364.16922,737.26355,364.288025C732.422119,364.498474,729.693604,366.308685,729.693604,369.309967C729.693604,372.966309,733.664917,374.597656,737.604858,372.560608M433.136292,393.643188C434.843781,392.097626,434.596802,388.517151,432.648346,386.568817C430.626251,384.546967,428.796814,384.551208,426.381012,386.583923C423.080872,389.360626,422.622009,392.598511,425.34259,393.911621C427.465027,394.936127,431.87561,394.783875,433.136292,393.643188M739.723511,269.266418C741.276001,267.713989,742.985901,264.266449,742.985901,262.688629C742.985901,258.62326,733.640137,259.206299,732.057129,263.3703C731.236084,265.529205,732.389465,268.185272,734.781067,269.643524C737.222473,271.132538,737.910034,271.079987,739.723511,269.266418M819.114746,337.244385C820.66449,335.694611,820.69043,332.39389,819.167786,330.514099C818.236816,329.364441,817.468262,329.099182,815.206177,329.146484C810.321228,329.248444,806.70874,333.343689,809.137207,336.026825C811.361694,338.484802,817.166199,339.192902,819.114746,337.244385M527.280884,322.445038C530.819092,320.615692,532.029907,316.692017,529.706177,314.588654C528.34729,313.358643,525.639282,313.240234,523.549133,314.318909C519.61908,316.347046,518.428833,319.228455,520.373535,322.005005C521.500549,323.613708,524.634521,323.81369,527.280884,322.445038M656.409668,323.649963C657.977783,320.872467,658.247253,316.621338,656.924377,315.523621C655.113892,314.020844,652.772644,315.029266,650.699097,318.205292C648.498535,321.575745,648.283447,323.043945,649.694885,325.059082C650.451294,326.139252,651.129822,326.395416,652.851807,326.250824C654.698853,326.095734,655.260742,325.684875,656.409668,323.649963M455.99231,369.266815C457.544495,367.714661,457.514893,366.520752,455.841248,363.201843C454.661865,360.863068,454.199036,360.482422,452.3479,360.326294C448.332886,359.98819,443.817749,364.601227,445.487305,367.335083C447.2677,370.249878,453.806335,371.452789,455.99231,369.266815M783.212524,188.918091C787.746643,186.260986,793.518555,178.685577,793.016724,176.050919C792.67688,174.267075,790.384521,174.514191,788.02063,176.58963C784.796326,179.420258,780.433472,185.806625,780.031372,188.282532C779.840088,189.460815,779.899292,190.424515,780.162964,190.424515C780.426147,190.424515,781.79895,189.746597,783.212524,188.918091M483.510742,361.741852C485.205231,360.046783,485.354492,358.611816,484.138611,355.70163C483.155792,353.349274,481.624146,352.349304,479.005432,352.349304C476.223846,352.349304,475.045044,354.480927,475.943237,357.888153C476.322937,359.327789,477.025635,361.118011,477.504395,361.865417C478.702271,363.735382,481.576416,363.676208,483.510742,361.741852M580.322449,332.074463C582.089417,330.836884,582.080994,328.172363,580.305847,326.531586C578.55249,324.91153,574.364746,323.681976,572.334412,324.191559C569.317322,324.949005,568.80011,329.212769,571.409302,331.821991C572.916504,333.329193,578.312622,333.482056,580.322449,332.074463M644.034546,276.465881C644.94043,274.835663,645.688416,272.937286,645.696045,272.247467C645.727661,269.413605,639.737671,266.553345,637.558594,268.361694C635.867188,269.765259,636.784973,277.599854,638.922119,280.003906C639.742493,280.926575,640.036133,280.959198,641.127808,280.249329C641.820374,279.798553,643.128418,278.096527,644.034546,276.465881M689.772705,271.607513C692.136108,268.602783,690.911987,266.484436,686.182495,265.394684C682.060486,264.444702,679.242493,264.604797,677.670227,265.878174C676.437866,266.875977,676.352661,267.206482,676.975342,268.573425C677.919922,270.645569,682.80481,273.136047,685.99646,273.171356C688.022095,273.194061,688.7677,272.885315,689.772705,271.607513M614.62146,347.845306C616.400574,346.066284,616.449524,345.370209,614.96521,342.935913C613.712524,340.881653,610.439575,339.056976,608.007568,339.056976C604.140808,339.056976,602.704041,344.045837,605.584778,347.469391C606.944275,349.084839,607.54126,349.328339,610.143738,349.328339C612.518005,349.328339,613.446045,349.020813,614.62146,347.845306M758.404541,379.302277C759.355408,378.607086,759.439941,378.213165,758.896484,377.020172C757.641907,374.266571,755.020325,371.764557,752.302002,370.726501C749.652588,369.714569,749.518494,369.719971,747.938721,370.89389C746.082397,372.273926,745.450439,375.418762,746.720886,376.954529C748.927002,379.620331,756.020264,381.045654,758.404541,379.302277M663.656006,306.919922C666.104248,304.620178,665.171997,302.66861,660.815063,300.972382C659.652039,300.51947,657.884766,299.660309,656.887817,299.062561C654.81665,297.821136,651.133423,297.623566,650.060425,298.696625C648.660461,300.096527,649.294312,302.191895,651.909424,304.806824C656.002075,308.899078,660.65741,309.737122,663.656006,306.919922M945.878052,348.568695C948.833984,346.125458,947.235962,343.518982,940.928345,340.49585C935.948853,338.109589,935.515137,338.058228,933.912109,339.661163C931.637939,341.935364,932.701294,346.49826,935.906738,348.220154C939.081055,349.925873,944.026978,350.098694,945.878052,348.568695M635.91687,384.82489C637.415771,384.077515,639.743713,382.488464,641.090088,381.294189C643.121826,379.492279,643.527832,378.759949,643.477783,376.989807C643.394897,374.056885,642.328491,372.287811,640.645203,372.287811C638.008484,372.287811,630.001038,382.041962,630.001038,385.253967C630.001038,386.621185,632.710266,386.424835,635.91687,384.82489M642.337646,299.417419C643.796692,298.85733,643.503662,295.724579,641.699036,292.586884C639.439819,288.658478,638.478516,287.700226,636.797852,287.700226C634.891418,287.700226,631.909119,289.468719,631.467163,290.861084C630.891052,292.677002,635.183228,298.386658,637.855591,299.359009C639.130493,299.822845,641.210693,299.850037,642.337646,299.417419M673.922058,162.330765C674.632446,161.833298,676.324219,159.762726,677.681641,157.730438C680.536682,153.45491,680.96991,150.42485,678.884766,149.30899C676.661987,148.119843,674.837891,149.198334,671.084106,153.922272C667.420776,158.531967,666.610596,160.934845,668.186279,162.510605C669.192871,163.517197,672.370361,163.417496,673.922058,162.330765M574.90564,260.941223C575.246338,256.823334,571.348022,246.39006,567.967407,242.372681C566.218384,240.293716,563.839661,239.962616,563.376831,241.733429C562.353943,245.644501,568.984375,261.836365,572.141907,263.136719C573.88385,263.85437,574.719421,263.190369,574.90564,260.941223M603.00293,409.055939C605.00061,408.008514,615.747437,398.540771,618.826965,395.115692C623.13855,390.320068,622.106628,389.046417,616.267212,391.956299C612.855164,393.656464,602.991028,402.598572,601.033508,405.765839C598.876465,409.256195,599.77124,410.750977,603.00293,409.055939M652.347656,351.145569C654.293396,350.104126,654.854126,347.045654,654.268799,340.675201C653.974365,337.472778,653.390137,334.439087,652.970947,333.933868C651.901367,332.645233,649.12207,332.789642,647.845703,334.200317C646.89502,335.250549,646.848511,335.817871,647.435303,339.184937C647.7995,341.274384,648.036377,344.568481,647.961182,346.505341C647.849609,349.391174,648.036377,350.181458,648.997681,350.885773C650.387878,351.904602,650.860962,351.941498,652.347656,351.145569M743.033936,292.711395C743.993713,292.144684,745.202698,290.788269,745.720093,289.697449C746.875122,287.262787,746.301147,285.932953,743.341064,284.186432C742.190186,283.507111,740.790894,282.049164,740.231689,280.945526C738.118469,276.775757,736.076904,275.78183,733.819458,277.824615C732.130859,279.352631,732.439026,281.774261,734.581055,283.810944C736.697998,285.823608,738.152344,288.324982,738.152344,289.952576C738.152344,291.27951,739.782471,293.742188,740.661194,293.742188C741.006592,293.742188,742.074219,293.278168,743.033936,292.711395M772.444946,276.448853C780.084229,273.412781,791.016541,267.725464,792.375977,266.080322C793.918457,264.213287,794.174683,261.412231,792.849182,260.903595C791.445557,260.365143,788.667419,261.563263,778.633545,267.03363C762.987793,275.563721,758.006836,280.003967,765.694214,278.567993C767.166504,278.292877,770.204346,277.339447,772.444946,276.448853M683.407837,173.44989C684.292969,172.753555,685.549133,171.140961,686.199646,169.865616C686.849976,168.590042,688.745911,166.37323,690.411865,164.938126C693.057495,162.659836,693.441162,162.038742,693.441406,160.036148C693.441772,156.162918,689.49939,153.367889,687.233093,155.634064C686.761719,156.105515,686.019775,157.762817,685.5849,159.316483C684.792664,162.146881,682.812134,164.591461,678.965027,167.489822C677.361633,168.697586,676.927246,169.456451,676.927002,171.049469C676.927246,174.581268,680.355469,175.851273,683.407837,173.44989M796.155273,401.758484C796.155273,399.602356,789.831116,394.207458,781.272705,389.063232C772.448975,383.759125,767.750732,381.59668,766.279053,382.161346C765.341797,382.521118,765.347839,382.688446,766.361572,384.43457C767.762817,386.847778,772.189148,390.245148,781.654541,396.171326C788.630615,400.538849,793.539063,403.003998,795.400024,403.073608C795.815674,403.089172,796.155273,402.49765,796.155273,401.758484M859.095215,362.224945C860.824829,360.659454,860.420654,358.272858,857.769287,354.394501C856.432373,352.438751,854.906128,349.343445,854.378235,347.515747C853.089966,343.058563,851.490601,340.558411,849.36377,339.677399C847.118042,338.747009,845.17981,339.35968,844.471313,341.223358C843.685608,343.290588,844.508545,344.935791,848.061523,348.399323L851.137207,351.397583L851.137207,356.05899C851.137207,360.374878,851.255005,360.812897,852.729126,361.972626C854.645142,363.479828,857.580322,363.595856,859.095215,362.224945M607.041565,280.512451C607.041565,279.383453,602.370544,275.937744,598.292847,274.059235C593.254395,271.737335,581.489502,268.219696,579.644165,268.482483C578.618347,268.628754,578.302307,269.146545,578.155151,270.925262C577.898743,274.02121,579.854492,275.938934,583.833435,276.494415C585.465698,276.721954,590.471436,277.825836,594.957642,278.947174C603.195862,281.006317,607.041565,281.504181,607.041565,280.512451M626.703125,339.405457C628.134094,337.222046,628.000549,334.442108,626.382202,332.719696C625.619385,331.908142,623.023193,330.422394,620.613159,329.41922C618.202881,328.415863,613.973511,326.503601,611.214966,325.16925C604.167419,321.761261,601.60376,322.0047,601.60376,326.082275C601.60376,329.351776,605.448914,331.787292,610.662781,331.819885C614.165039,331.841644,617.559448,333.784149,619.769531,337.03186C620.866821,338.644318,622.054688,340.163269,622.408691,340.407166C623.72406,341.313629,625.764404,340.838135,626.703125,339.405457M731.175659,296.666199C733.23291,295.72879,733.122375,294.205017,730.756714,290.911469C728.418701,287.656128,726.735962,286.697266,722.386597,286.1409C718.00116,285.580109,716.19281,284.565674,714.063904,281.47168C711.614746,277.912231,710.662598,277.221649,708.835205,277.680389C706.71051,278.213745,705.90271,280.549561,706.9646,283.090729C708.075989,285.751068,714.747559,290.481964,718.599365,291.341187C721.850464,292.066742,723.708374,293.114441,726.265869,295.664215C728.154663,297.547424,728.90509,297.700897,731.175659,296.666199M724.674683,328.264954C726.968628,324.849274,727.084656,322.456055,725.143616,318.578857C723.72467,315.744019,723.410522,314.254059,723.220459,309.451324C722.911499,301.648712,722.750122,301.119446,720.328613,299.964661C716.006714,297.9039,713.45697,301.278961,715.458862,306.411591C718.793213,314.961609,718.976929,315.77124,719.109863,322.504669C719.182373,326.194824,719.44458,329.540863,719.691345,329.940704C720.531494,331.299713,723.250366,330.385559,724.674683,328.264954M799.458618,333.241058C800.000366,333.033142,801.236511,331.29364,802.20459,329.375183C804.853271,324.127869,806.064697,323.384705,815.187439,321.412689C818.406006,320.717194,818.944336,320.383057,819.986938,318.43573C821.10498,316.347626,821.111572,316.166382,820.124084,314.659485C819.469971,313.661377,818.53772,313.076508,817.599792,313.076508C814.453979,313.076508,798.126709,322.582947,794.418213,326.573792C790.925293,330.332947,794.548096,335.125458,799.458618,333.241058M684.982971,188.526978C686.146057,187.818008,688.457153,186.085159,690.118652,184.676041C691.780212,183.267181,694.63501,181.161575,696.462769,179.997543C701.218384,176.969055,702.125854,175.804153,701.660889,173.325684C701.450378,172.20253,700.605103,170.65155,699.782532,169.878738C697.724854,167.945953,696.083252,168.791855,693.146912,173.299011C688.37915,180.616577,686.367798,181.965744,680.222534,181.965744C673.849487,181.965744,672.413269,184.017609,676.161743,187.766052C678.651001,190.255341,681.713623,190.519379,684.982971,188.526978M669.723633,424.271515C670.130615,423.619202,670.723938,420.832642,671.041504,418.078491C671.77948,411.680847,672.731689,409.074341,676.162537,404.062836C679.11084,399.755798,679.580811,397.560181,677.94104,395.748016C676.674072,394.347656,673.977539,394.323486,672.742493,395.700439C672.22113,396.282288,671.209717,398.500916,670.494812,400.631744C669.780151,402.762299,668.518005,405.841888,667.690186,407.475586C666.525391,409.774628,663.231934,421.011475,663.231934,422.687561C663.231934,422.855469,663.827026,423.547913,664.554199,424.22522C666.239624,425.794922,668.757874,425.817841,669.723633,424.271515M711.830444,434.535065C713.807983,433.78299,713.820129,432.200592,711.869751,429.326935C709.484375,425.812439,709.781616,422.755768,712.962402,418.094482C715.105225,414.954407,716.24292,413.939362,719.396606,412.35672C724.737305,409.676117,725.545166,407.961426,722.772766,405.189087C719.557556,401.973816,716.09375,403.739288,711.145142,411.114197C706.704468,417.731873,704.257446,422.860321,703.860718,426.37854C703.545776,429.172363,704.498535,432.802368,705.919617,434.223541C706.952209,435.256042,709.570801,435.394379,711.830444,434.535065M750.684326,339.056976C752.888062,337.727722,755.068604,336.640198,755.529663,336.640198C755.990601,336.640198,757.911377,335.181671,759.797241,333.399078C764.213745,329.224884,765.132751,328.785614,769.449341,328.785614C772.159546,328.785614,773.420532,328.480499,774.624756,327.533386C777.44751,325.312714,776.136353,320.930481,772.648926,320.931549C770.733032,320.932281,765.191345,323.510376,757.856812,327.813751C754.828735,329.590393,750.639282,331.664642,748.546875,332.422791C743.245117,334.344238,741.29895,337.113281,743.007141,340.305084C743.967163,342.098511,746.25946,341.725708,750.684326,339.056976M949.621338,375.739258C951.448975,374.819397,952.003662,371.699921,950.552612,370.496033C949.598877,369.704254,944.693481,369.541107,941.6604,370.200226C938.82666,370.81601,928.636963,369.342957,924.719482,367.750854C920.248291,365.934082,918.251343,365.860962,916.244141,367.439667C914.242554,369.013672,913.840088,370.780945,915.122192,372.364014C915.961426,373.400146,917.137817,373.733673,921.30127,374.112854C924.129639,374.370483,928.464111,374.884033,930.933105,375.253235C939.881592,376.592133,947.531372,376.790894,949.621338,375.739258M731.374512,358.048553C732.610046,357.527863,735.484802,356.941833,737.763306,356.747131C740.934631,356.475983,742.315796,356.047577,743.654297,354.921478C745.646179,353.245331,745.949463,350.934296,744.402771,349.224854C742.872314,347.533875,740.284546,347.880096,736.861572,350.234619C732.08136,353.522675,726.733643,353.000641,722.848267,348.866364C721.486755,347.417236,721.032349,346.200989,720.616455,342.887604C719.995605,337.94162,719.627075,336.848022,718.425415,336.386993C717.039856,335.855316,715.453247,336.985168,714.365295,339.278473C712.048584,344.160645,713.831543,348.15799,721.241333,354.698456C726.493164,359.333832,727.520264,359.673401,731.374512,358.048553M907.206665,371.562775C908.430176,370.339294,908.015625,368.078979,906.270142,366.452148C904.665405,364.956512,904.421875,364.916595,899.170776,365.286041C893.940918,365.653748,893.583252,365.596313,889.805786,363.776581C886.570313,362.217651,884.973999,361.845459,880.742798,361.661072C877.918213,361.537933,874.657349,361.159698,873.49646,360.820709C869.829224,359.748932,867.589478,360.034668,866.488647,361.714355C865.584106,363.09436,865.581116,363.350525,866.452759,364.680603C867.537476,366.336487,871.633911,367.454224,876.616394,367.454224C879.170715,367.454224,887.66272,369.141785,897.660278,371.635406C900.846313,372.43042,906.381348,372.388123,907.206665,371.562775M652.884888,289.906036C653.257202,289.457825,653.8396,287.622894,654.180115,285.828613C654.575562,283.744568,655.345947,282.020172,656.313354,281.054962C657.647888,279.723022,658.310669,279.552032,661.889343,279.616486C667.258301,279.712738,671.162598,281.145905,675.848633,284.74176C677.969482,286.369171,680.328857,287.700226,681.092224,287.700226C684.280884,287.700226,685.540039,283.499847,683.019348,281.270966C682.271973,280.609985,679.220764,278.893463,676.239197,277.457123C671.207275,275.032623,670.291931,274.801849,663.477051,274.239685C654.121826,273.467773,653.224609,273.691925,651.731567,277.174866C651.088135,278.675934,649.741943,281.095154,648.740112,282.551514C647.738464,284.007385,646.918579,285.846558,646.918579,286.637817C646.918579,289.663269,651.158813,291.985779,652.884888,289.906036M533.517029,349.582977C536.571045,348.026276,541.244507,345.336395,543.902954,343.60611C550.039185,339.611633,551.728516,339.056976,557.755249,339.056976C563.216736,339.056976,565.35199,338.139801,565.35199,335.793274C565.35199,335.033051,564.811218,333.921295,564.150757,333.323608C563.101929,332.374573,562.149719,332.277283,556.649414,332.558075C549.386108,332.928589,546.963867,333.871155,539.219971,339.341034C534.988037,342.329895,532.275818,343.485748,526.480286,344.768677C522.7005,345.605286,520.612427,349.817139,522.861206,352.066071C524.325806,353.530518,526.993286,352.908813,533.517029,349.582977M714.910156,175.652512C717.677307,174.496674,717.752808,172.192871,715.131409,168.907547C714.100464,167.615463,711.070435,162.888229,708.397583,158.402069C702.294434,148.159119,701.373657,146.960983,696.834351,143.366821C690.173645,138.09259,686.804688,137.191132,684.049194,139.946594C680.986206,143.009552,683.071289,145.745941,689.305298,146.843933C695.407837,147.91864,698.337524,150.652649,700.677856,157.454453C701.508423,159.869064,702.850342,162.008514,704.877808,164.152283C707.035583,166.433655,707.957581,167.950195,708.221252,169.649536C708.847534,173.687653,709.424561,174.967331,710.973511,175.750992C712.815918,176.683243,712.419556,176.692932,714.910156,175.652512M787.411011,322.495483C788.066284,322.026459,789.860718,320.46344,791.398254,319.021332C794.448364,316.160919,809.49707,307.781921,814.953735,305.90564C820.10437,304.134979,827.58252,299.821625,828.323975,298.193848C828.850769,297.037506,828.755859,296.527527,827.821899,295.495514C826.194092,293.696289,822.526001,294.208649,818.831665,296.750061C817.260498,297.831421,812.820801,300.203491,808.966064,302.021576C805.111206,303.839539,798.781067,307.206726,794.899292,309.504089C791.01709,311.801025,787.577393,313.680695,787.255371,313.680695C786.93335,313.680695,785.54126,314.498199,784.161926,315.497101C781.217041,317.630341,780.780212,320.069458,782.976807,322.115936C784.531067,323.563538,785.769043,323.669891,787.411011,322.495483M706.503784,371.960968C707.940674,369.7677,706.968506,368.068726,702.566467,365.079407C695.944336,360.582703,693.390381,355.741272,692.98114,346.91153C692.65686,339.916748,693.862915,334.125519,696.555176,329.750458C699.804565,324.469849,699.337524,319.626007,695.667297,320.54718C693.519043,321.086365,691.323425,324.484955,689.367859,330.296112C687.852905,334.799194,687.739929,335.852295,687.72168,345.703156C687.699463,357.671692,687.759888,357.88797,692.808899,363.829041C694.361938,365.656769,696.265137,368.062683,697.037842,369.175568C699.966431,373.394104,704.659912,374.774719,706.503784,371.960968M952.625122,361.368591C957.115723,359.331421,959.288452,357.365356,959.288452,355.339539C959.288452,353.065277,957.373169,351.14093,955.109863,351.14093C953.786011,351.14093,952.887573,351.722137,951.495483,353.479919C948.833984,356.840302,946.98877,357.419739,940.22998,357.016418C933.307373,356.603485,930.419312,355.229523,927.487427,350.953796C925.03894,347.383423,924.417236,344.439178,925.427368,341.196045C926.77417,336.870392,926.57666,334.709198,924.738892,333.669342C923.276489,332.842194,922.910889,332.851257,920.994751,333.764893C919.31958,334.563568,918.784302,335.242065,918.458862,336.976654C917.738403,340.815796,918.579468,345.312836,920.839111,349.708221C922.013062,351.991638,923.270996,355.016235,923.634277,356.430084C924.805664,360.986938,929.356567,362.527618,941.766724,362.567627C948.707764,362.590454,950.326416,362.411591,952.625122,361.368591M464.67804,381.75766C465.77002,381.042023,467.195923,378.839722,468.737091,375.487701C471.878479,368.656006,472.021667,367.9086,470.765564,364.886261C470.178864,363.473785,469.38797,360.688446,469.00824,358.696136C468.486511,355.959381,467.988647,354.909882,466.971924,354.40271C465.105408,353.471893,462.738159,354.052521,461.654449,355.706238C460.80777,356.998627,460.894165,357.378632,462.899689,361.157593C465.40509,365.87851,465.655243,368.853546,463.859711,372.563385C462.059662,376.281555,459.780029,377.338898,452.971313,377.61438L447.231445,377.846375L443.53009,375.369202C441.494354,374.006744,439.275452,372.891998,438.599182,372.891998C437.333252,372.891998,434.241211,376.044708,434.241211,377.335419C434.241211,378.435516,435.951813,380.646271,437.444244,381.475006C439.102905,382.396027,447.56073,383.054596,456.321564,382.944397C461.66571,382.876984,463.330292,382.640747,464.67804,381.75766M883.642944,353.436859C884.784302,352.295532,884.513672,349.043152,883.176392,347.832977C882.192261,346.942383,881.429199,346.832977,878.795898,347.204376C871.785034,348.193024,870.48053,347.98822,868.388062,345.567596C867.307251,344.317108,865.723694,341.196442,864.748169,338.394135C861.905151,330.226013,860.073853,328.837585,848.546631,326.10733C845.153198,325.30365,839.966797,323.946014,837.021973,323.090515C828.442932,320.598755,824.55249,321.250671,824.55249,325.180115C824.55249,327.829193,825.966919,328.504059,831.142212,328.323364C835.18335,328.182007,836.18689,328.380188,839.560608,329.984924C842.113525,331.198792,844.330322,331.807831,846.206787,331.809967C850.703369,331.815063,853.624634,332.924377,856.327393,335.652405C857.729553,337.067352,859.273315,339.460602,859.88739,341.171661C863.493042,351.213409,864.924927,352.920868,869.830139,353.024963C871.678101,353.064056,874.005981,353.303955,875.00293,353.557709C877.901245,354.295441,882.853882,354.225952,883.642944,353.436859M724.227478,427.586487C725.176025,427.096344,726.536621,425.748383,727.251953,424.591003C729.10144,421.598145,731.537598,419.732391,734.781799,418.824249C738.923279,417.664825,740.140747,415.816589,739.845459,411.13623C739.651367,408.059906,739.277344,406.975372,737.755493,405.082092C734.093323,400.524963,732.402161,395.55603,730.893311,384.915039C730.045776,378.940033,727.734741,376.645264,725.327148,379.387115C723.650391,381.296997,723.519897,383.060028,724.769287,386.952728C725.43335,389.022278,726.156006,392.559845,726.374878,394.813599C726.707031,398.233856,727.123901,399.371552,728.896729,401.693787C733.655273,407.927582,734.391846,410.638031,732.113525,413.534058C731.450562,414.376801,728.712341,416.096924,726.027832,417.356506C720.657776,419.87619,718.213806,422.22229,718.213806,424.856171C718.213806,428.136169,720.849915,429.333069,724.227478,427.586487M593.54657,323.914246C595.498413,323.172028,596.143677,322.34549,596.156738,320.571564C596.172058,318.514282,594.463379,317.50769,584.952881,313.970001C579.988037,312.123077,572.692993,309.378815,568.742065,307.871735C560.972168,304.907745,555.994751,303.822632,552.663818,304.367645C545.623108,305.519806,538.864563,307.221252,537.558899,308.170471C535.877441,309.393311,535.273193,312.08078,536.380859,313.415161C537.493042,314.754974,540.44519,314.452881,545.413452,312.490906C549.167358,311.008362,550.836121,310.697784,555.141479,310.680511C561.041626,310.656708,563.181091,311.243958,567.466675,314.063812C569.687073,315.524719,571.685181,316.23584,575.008423,316.746979C580.754761,317.630951,581.421204,317.8992,584.699585,320.648468C587.086731,322.650604,590.235229,324.463196,591.444153,324.532623C591.671997,324.54538,592.617554,324.267426,593.54657,323.914246M843.161743,358.270447C844.371948,357.060242,843.979858,354.889343,842.188721,352.884705C840.499634,350.99469,840.456177,350.983826,834.183105,350.911499C827.949341,350.839417,827.830872,350.811005,824.076538,348.473114C820.708008,346.37561,819.699585,346.061432,815.179077,345.702484C810.811279,345.355713,809.624023,345.0065,806.894165,343.26767C803.926392,341.377106,803.264221,341.214569,797.259155,340.902618C791.491455,340.603119,790.644409,340.411011,789.234619,339.084961C788.367798,338.269714,787.239746,336.161682,786.727783,334.400421C785.658569,330.720886,784.134766,329.496185,781.896851,330.515503C780.037109,331.362549,779.538574,333.582367,780.41687,337.105713C781.84845,342.850128,784.02356,344.340668,793.798401,346.273132C797.254883,346.956238,803.209229,348.451019,807.030762,349.594757C810.852295,350.738525,817.649536,352.766205,822.135742,354.101044C826.621826,355.436157,832.059631,357.068085,834.219604,357.727936C838.738403,359.108459,842.118896,359.313293,843.161743,358.270447M877.455322,339.407776C878.304932,338.786285,878.627563,337.828644,878.625,335.933655C878.62207,333.703186,877.997925,332.381836,874.391235,326.976624C870.893188,321.734039,869.586304,320.29184,866.84198,318.647186C863.077332,316.391144,853.344299,313.147186,844.757568,311.286865C841.56665,310.595673,837.354858,309.355835,835.397583,308.532196C830.840332,306.614014,828.546875,306.610382,826.639709,308.517548C824.874512,310.282684,824.826782,310.723785,826.21405,312.431335C826.997681,313.396118,828.365601,313.884918,831.500732,314.320496C833.826904,314.643799,838.041199,315.577271,840.865845,316.394257C843.69043,317.211639,848.429749,318.439331,851.397339,319.123505C863.485718,321.909271,868.370056,325.64624,871.001221,334.123352C872.77887,339.850281,874.699646,341.423035,877.455322,339.407776M887.281555,324.977844C887.881958,323.719421,887.929138,322.824615,887.465332,321.494476C886.703857,319.311188,880.689636,311.898315,878.163635,310.031006C874.627747,307.416992,865.877747,303.507843,858.689636,301.330963C854.701904,300.123138,848.891357,298.310547,845.777832,297.302582C837.43335,294.601379,834.219604,294.801361,834.219604,298.021179C834.219604,300.252411,836.679321,301.88736,841.454712,302.831512C843.291016,303.194275,847.278809,304.153137,850.316284,304.961884C868.437134,309.786652,875.647644,313.863159,879.798645,321.631592C880.74707,323.406464,881.94519,325.347168,882.460815,325.944305C883.832703,327.533142,886.298401,327.03891,887.281555,324.977844M699.523438,440.540833C700.782104,439.867249,701.098145,437.863739,700.047974,437.214325C699.69397,436.995483,698.606445,435.71524,697.631226,434.369141C696.303223,432.535919,695.858521,431.248383,695.858521,429.235718C695.858521,423.805267,698.785889,416.5271,704.398804,408.002777C706.079712,405.449768,707.338257,402.843292,707.338257,401.91394C707.338257,401.020386,706.689392,398.679138,705.896606,396.710907C705.103943,394.742798,704.151123,390.840881,703.780212,388.039337C703.40918,385.23819,702.684143,382.302979,702.169312,381.517273C701.045532,379.802795,698.524231,378.740631,696.677612,379.203949C694.258057,379.811279,694.337158,381.717499,697.015625,387.354156C699.950134,393.528961,700.931396,398.422363,700.039429,402.43512C699.699402,403.96463,697.948425,407.663544,696.147949,410.654327C691.917358,417.681732,691.140381,420.013947,690.112427,428.773254C689.360352,435.179291,689.367676,436.17804,690.176392,437.411926C692.187988,440.4823,696.767822,442.015778,699.523438,440.540833M681.974731,435.704681C682.300354,435.097137,682.566162,432.664001,682.566162,430.298645C682.566162,422.338287,684.526855,416.285431,690.789185,404.914459C692.644775,401.54483,692.917297,400.557007,692.705811,397.957825C692.447876,394.783264,689.161621,386.868317,687.471436,385.349213C686.93335,384.865997,684.24585,383.484192,681.498413,382.278503C677.01062,380.309143,676.341187,380.165955,674.907959,380.869659C669.957214,383.299927,672.372192,387.991516,678.578003,387.999176C681.022461,388.00235,684.083923,389.903778,685.238464,392.1362C687.638428,396.77652,686.833008,401.652405,682.64917,407.813293C679.514404,412.429443,679.018311,413.737549,678.322754,419.223969C678.015381,421.647705,677.213013,424.710968,676.539917,426.03064C674.772705,429.494415,675.165405,436.327881,677.204224,437.587952C678.214783,438.212372,681.279846,437.002747,681.974731,435.704681M530.91272,365.236481C536.702148,363.305206,540.358154,361.571747,550.416504,355.989471C552.785889,354.674286,555.603271,353.766754,559.177368,353.167175C562.521301,352.606079,566.017212,351.517944,568.748535,350.187531C571.541382,348.827454,574.491089,347.918732,577.154053,347.5979C580.320923,347.216675,581.51001,346.791321,582.367249,345.732452C583.768494,344.00174,583.75885,343.80658,582.167053,341.782837C580.922119,340.200714,580.660522,340.131836,576.980652,340.42749C573.779907,340.684662,572.536499,341.130005,569.839661,342.987579C565.529602,345.956299,562.845764,346.849915,558.101624,346.898285C553.830566,346.941742,551.431274,347.807556,546.0177,351.261261C544.189941,352.427277,539.892944,354.836212,536.468933,356.615204C530.61969,359.653442,529.913391,359.869141,524.78894,360.178314C520.325378,360.447388,519.179199,360.720459,518.477539,361.679474C517.418579,363.127563,517.375732,365.102081,518.375671,366.362976C520.052307,368.476563,521.62384,368.335175,530.91272,365.236481M513.903259,356.256317C514.945618,354.931061,515.061646,354.121399,514.766907,350.223694C514.453186,346.078949,514.552307,345.532135,516.009888,343.329132C517.952087,340.394073,521.512024,338.25705,526.656555,336.938354C531.509705,335.694611,533.177246,334.83725,538.136108,331.036072C540.304993,329.373535,543.251038,327.511383,544.683594,326.8974C548.184326,325.396667,553.858337,324.539948,557.465149,324.967163C561.199341,325.409363,563.323059,324.881317,564.169067,323.300201C564.681885,322.342468,564.62146,321.73465,563.905823,320.642365C561.895386,317.574127,555.710815,317.192291,547.830261,319.650238C545.670227,320.323853,542.704224,321.181793,541.238647,321.556549C539.401733,322.026459,537.525085,323.229431,535.196655,325.42984C531.025757,329.371094,529.860229,329.989777,524.776001,330.958313C521.443787,331.593323,519.941162,332.315948,516.202942,335.080383C511.977814,338.205078,511.60199,338.669067,510.66449,341.916809C510.11145,343.83316,509.139282,346.248749,508.503998,347.284943C506.895905,349.908356,506.924927,354.946136,508.557434,356.578705C510.221405,358.242676,512.446045,358.108521,513.903259,356.256317M670.516113,266.64743C673.611389,264.141388,670.26416,261.894379,661.774048,260.779358C658.124634,260.299896,653.9375,259.316254,651.905029,258.461029C649.963745,257.643829,646.095032,256.393158,643.30896,255.681763C640.522583,254.970276,637.482178,253.995087,636.552856,253.514313C635.623108,253.033813,631.872253,249.140366,628.216919,244.86232C624.561462,240.584351,620.272888,235.992447,618.686768,234.657669C616.508118,232.824631,615.02179,230.702087,612.609741,225.979553C608.785889,218.492477,604.327515,211.787704,602.084839,210.151947C600.695068,209.138306,600.30481,209.081512,599.470825,209.773972C596.39563,212.326645,605.663391,228.963821,616.798157,240.879669C624.273865,248.879959,627.595154,252.862823,630.167725,256.912354C633.249817,261.764465,633.77063,262.09317,637.004761,261.228363C642.260254,259.822571,643.807556,260.270294,650.396729,265.102081C651.309875,265.771484,653.376831,266.183563,656.650879,266.349762C659.34082,266.486267,662.533447,266.832489,663.746155,267.118988C667.293335,267.957489,669.049072,267.835449,670.516113,266.64743M690.299927,376.396332C691.771729,374.92453,690.997742,372.984467,687.321045,368.926788C685.283875,366.679047,682.905151,363.320923,682.034363,361.464447C680.491943,358.175598,680.451538,357.780457,680.451538,346.005249C680.451538,335.011292,680.57959,333.514069,681.869629,329.40506C683.981201,322.679596,685.669922,319.785522,689.678345,316.022583C694.948608,311.074799,695.408447,308.921448,693.431641,298.446686C692.552979,293.791138,691.164551,291.929596,688.571655,291.929596C685.540039,291.929596,685.095337,294.001404,687.015564,299.181885C689.565796,306.062378,689.150146,307.75354,683.158569,314.874939C676.39917,322.9086,674.692871,328.7258,674.292603,345.098938C674.142456,351.246643,673.999878,357.011292,673.975342,357.909637C673.950928,358.807587,674.387817,360.167023,674.945679,360.930603C675.503784,361.693817,676.631165,363.243011,677.451843,364.373474C678.272156,365.503876,679.221313,367.54303,679.561157,368.904938C680.502258,372.679352,681.634521,374.273804,684.430908,375.761932C687.275879,377.276062,689.211182,377.485107,690.299927,376.396332M706.607117,270.832581C707.839722,270.195435,710.072266,268.406403,711.567627,266.856842C714.634521,263.678558,716.411499,262.614563,720.85321,261.295563C723.060669,260.640076,724.987427,259.400238,727.606201,256.950623C732.922974,251.977081,736.955383,250.984375,742.372437,253.314606C747.197754,255.390167,746.645508,255.883209,755.212036,241.855576C766.675293,223.084381,774.765503,203.799622,771.636353,202.704437C769.23645,201.864365,765.119995,208.780624,761.125549,220.365952C758.383301,228.319138,757.334961,230.26828,754.158569,233.322495C752.949097,234.485565,751.067017,237.362167,749.976196,239.714584C747.043091,246.042053,745.570679,246.897583,737.552734,246.935883C730.555176,246.968887,730.016785,247.148331,724.803711,251.181854C719.916992,254.962433,706.093628,263.225433,702.74762,264.365356C697.598633,266.120117,696.333435,268.434204,699.263123,270.738861C701.249146,272.301056,703.704651,272.332489,706.607117,270.832581M456.596497,396.183075C467.713745,395.184448,474.220337,393.808716,476.303925,392.016418C477.502319,390.985901,477.928284,389.869934,478.315704,386.743591C479.430328,377.753967,483.380554,374.70459,493.91037,374.70459C502.617004,374.70459,510.391174,372.415894,511.739929,369.45578C512.270874,368.291046,512.163879,367.716461,511.170471,366.379456C509.300018,363.862915,507.290466,363.969238,503.037933,366.808655C499.081238,369.451111,496.44873,369.895813,492.240143,368.633972C489.508331,367.814941,480.717865,370.0849,478.660767,372.140259C477.910767,372.890198,476.411133,375.850159,475.32843,378.718964C473.115234,384.583832,470.312378,388.167938,467.11673,389.22287C463.852295,390.30014,455.030426,390.767792,448.900818,390.18808C444.136627,389.73761,443.097595,389.805908,441.801514,390.655121C439.374176,392.245636,439.85318,395.244263,442.717041,396.387299C444.702881,397.179535,445.660553,397.165619,456.596497,396.183075M718.231201,396.736847C719.319519,395.426147,719.109863,392.848663,717.572998,388.633667C715.831482,383.856995,716.155334,379.923645,718.576843,376.452179C722.189453,371.272125,722.437134,370.739258,722.440063,368.123047C722.442627,365.750397,722.173096,365.237427,719.898987,363.289459C713.446655,357.762299,708.510376,352.594025,707.372314,350.17215C704.864136,344.835541,705.846558,339.091431,710.514709,331.80661C711.662476,330.015167,711.857666,328.923981,711.792114,324.664032C711.637085,314.637146,709.390747,308.717834,705.600952,308.351501C701.299927,307.935394,699.729614,312.558136,703.081055,315.768707C707.620422,320.117798,707.676025,323.66687,703.345337,332.624878C699.915771,339.719177,699.243896,344.90683,700.981567,350.88681C702.076904,354.656708,703.904663,356.783508,711.727539,363.392273C716.859253,367.727356,717.095459,370.620209,712.730164,375.663879C709.981079,378.840302,709.88916,379.652985,711.297974,388.405853C712.229248,394.192993,712.946411,396.347534,714.225952,397.201691C715.350525,397.952911,717.421753,397.712433,718.231201,396.736847M727.316528,168.652161C729.388428,167.543564,728.614502,165.205917,723.264038,156.414322C714.058716,141.288788,707.917725,134.094009,699.686768,128.793808C694.183716,125.249786,689.50238,123.660736,686.324829,124.256699C680.886536,125.276962,673.691772,130.687546,665.420776,139.977417C659.784302,146.307861,650.22052,159.791122,649.59314,162.29068C649.058594,164.421082,650.237427,165.652435,652.812134,165.652435C655.643799,165.652435,658.308899,162.80484,659.89978,158.080719C661.403564,153.614395,665.133911,148.612259,670.551086,143.797897C672.859131,141.74678,675.684998,138.763245,676.830688,137.168793C680.707703,131.77269,686.202881,129.533539,691.406494,131.230042C696.014404,132.732162,704.111267,139.118515,708.205872,144.480652C710.812378,147.893875,717.797485,159.113815,720.959229,164.966034C723.060059,168.85408,724.921631,169.933777,727.316528,168.652161M688.003967,202.481827C689.167053,201.892181,692.565674,199.479614,695.556396,197.119797C702.542175,191.608139,705.862793,189.995529,711.869751,189.197174C717.879089,188.398636,721.490356,187.256104,724.52832,185.191803C725.823059,184.311844,728.398804,183.143341,730.25177,182.59552C733.331421,181.684799,733.637146,181.436462,733.807251,179.706177C733.909668,178.665009,733.562866,176.980515,733.03656,175.962265C731.461426,172.916092,729.389648,173.399445,723.853638,178.104187C721.269287,180.300583,718.467529,182.369354,717.627136,182.70224C716.786743,183.035172,713.678101,183.272629,710.71875,183.230774C705.355896,183.154205,705.325073,183.162659,701.375122,185.73204C699.195557,187.14975,695.301453,189.984055,692.722412,192.030533C686.955078,196.606644,683.663452,197.973343,679.573547,197.488754C674.799194,196.923264,672.621094,195.456879,667.875,189.614655C666.437134,187.845184,664.230042,186.100876,662.010193,184.980026C657.122253,182.512543,654.515747,180.066147,652.255554,175.826096C650.332886,172.218246,648.084045,169.881805,646.535034,169.881805C644.469727,169.881805,641.636108,175.259155,642.505981,177.526306C642.697632,178.025787,644.322937,179.129654,646.117554,179.979462C647.912476,180.829254,650.254333,182.533691,651.321655,183.766876C652.388977,185.000031,655.029907,187.329803,657.189941,188.944107C659.349976,190.558044,663.101379,193.71315,665.526245,195.954849C673.715942,203.525909,681.489502,205.783203,688.003967,202.481827M414.623627,393.347046C418.024872,384.350616,418.915833,382.913208,423.047333,379.758667C424.990295,378.275391,426.399109,376.451324,427.796906,373.609192C429.41507,370.319336,430.439056,369.109741,433.310547,367.095978C435.881256,365.292999,437.459045,363.561401,439.132294,360.705231C441.884674,356.007141,444.635834,353.95285,449.950348,352.627472C452.110352,352.088898,455.244324,350.756042,456.914368,349.665497C460.890533,347.069855,462.180481,346.698853,466.816284,346.817657C469.373474,346.883148,472.071198,346.47287,474.74585,345.611511C478.646667,344.355164,478.915558,344.343689,481.859192,345.30661C485.481964,346.491608,487.504822,346.575592,488.498108,345.582306C489.536713,344.543701,489.392334,341.379517,488.229553,339.719879C487.316895,338.416534,486.936249,338.330139,483.547028,338.654419C471.694794,339.788666,466.779663,340.403137,463.544769,341.153381C456.916138,342.691223,445.660553,347.043854,442.011597,349.48053C436.922211,352.879211,420.878082,371.252228,413.428223,382.212738C409.460327,388.05069,405.843964,395.461182,405.843964,397.75415C405.843964,400.361206,407.417847,401.999817,409.701843,401.771729C411.430725,401.599213,411.638092,401.243958,414.623627,393.347046M493.106323,389.824707C495.013763,389.168488,499.375458,388.100861,502.79834,387.45166C506.221619,386.80304,511.024994,385.416412,513.472412,384.370605C515.920166,383.324707,521.269165,381.666779,525.358948,380.685425C533.853394,378.647583,541.938721,375.73111,552.361755,370.944305C558.627258,368.066895,567.72406,364.957092,576.601807,362.657135C581.674927,361.342804,583.890564,357.782837,580.926636,355.706665C578.957886,354.327454,577.797852,354.51416,572.053589,357.133118C569.198303,358.434784,564.551392,359.957336,561.726807,360.515961C557.7995,361.292633,554.884888,362.427948,549.340759,365.33963C539.842163,370.3284,528.025269,374.580719,522.28833,375.074951C518.903137,375.366821,517.070557,375.918427,514.12915,377.533752C508.996704,380.35144,500.072113,382.559174,493.811584,382.559174C488.299316,382.559174,486.831116,383.208069,485.596649,386.187531C485.012512,387.597565,484.988953,388.412628,485.500427,389.534637C486.347168,391.392517,488.328949,391.468628,493.106323,389.824707M698.99646,242.952774C701.092041,241.906937,705.933472,238.807404,709.755066,236.064743C713.57666,233.321884,718.133423,230.35347,719.88092,229.468399C722.985779,227.895599,732.564087,225.351334,738.314819,224.572464C741.594482,224.128418,743.20282,222.402847,742.878723,219.677002C742.599243,217.327591,741.136475,216.597107,738.329163,217.405594C724.241333,221.462112,718.17334,223.359879,716.388916,224.268341C715.218872,224.863739,711.283081,227.565704,707.641724,230.272781C704.000732,232.979919,699.272217,236.055878,697.13385,237.108521C693.63208,238.832779,692.731812,239.016464,688.057251,238.959274C682.666504,238.893799,676.154419,237.632233,664.742371,234.442749C655.03595,231.729843,652.550903,230.355881,645.557495,223.83403C634.303528,213.339279,630.001038,211.952667,630.001038,218.821762C630.001038,221.938217,630.905518,222.902512,634.536682,223.656219C638.299683,224.43718,640.446411,226.011703,643.592041,230.296753C644.787598,231.925583,646.687744,233.828217,647.81366,234.523972C650.612671,236.253464,658.841187,238.985031,668.971802,241.547104C686.240967,245.914566,692.476196,246.206406,698.99646,242.952774M691.188049,216.321793C692.580811,215.611679,696.381165,213.014832,699.633911,210.551346C707.155762,204.854538,709.854736,203.522888,717.636719,201.667038C721.110962,200.83844,725.630981,199.471756,727.681152,198.630524C729.731018,197.789063,732.585815,196.920837,734.025208,196.700684C738.397644,196.032669,738.943848,195.528152,738.600525,192.479828C738.016357,187.297791,736.378418,186.887543,730.540161,190.46106C725.117981,193.780212,721.744751,195.027878,715.08606,196.180023C707.80896,197.438644,705.759521,198.399307,699.181641,203.631577C691.87207,209.445831,687.592529,211.573212,683.224976,211.56424C675.786499,211.548447,667.817139,208.077347,661.25769,201.996246C658.854492,199.767807,654.848633,196.421768,652.356323,194.560547C649.864014,192.699326,646.737305,190.03299,645.408081,188.635834C642.057251,185.113617,640.207153,184.193436,638.657959,185.278488C637.088257,186.377594,635.796509,190.647446,636.586731,192.124084C636.927002,192.75972,638.662842,193.641861,640.688232,194.20752C644.221436,195.194641,647.287109,197.50267,658.573547,207.672379C663.189575,211.831818,668.049744,214.348892,674.866211,216.110474C682.119141,217.984955,687.784058,218.05806,691.188049,216.321793M692.370483,230.877777C694.546814,230.273117,697.705566,228.261734,708.51886,220.593552C712.38092,217.854446,714.885864,216.592896,718.790222,215.419922C721.629944,214.566406,726.061157,213.193069,728.637512,212.367783C731.213745,211.542404,735.156128,210.685654,737.398376,210.46402L741.475403,210.060913L741.660034,207.516159C741.88623,204.402008,740.960632,202.508453,739.213257,202.508453C738.490662,202.508453,735.713745,203.442535,733.041504,204.584824C730.369629,205.727005,725.013428,207.479782,721.139587,208.480682C711.755554,210.904984,711.150757,211.195587,703.108887,217.149719C699.287354,219.979401,694.957031,222.902512,693.485474,223.645935C688.199707,226.316833,680.804321,225.762787,668.211426,221.751816C661.905029,219.743164,658.323975,217.441177,650.138062,210.131683C643.776733,204.451553,636.883423,199.487457,635.357971,199.487457C633.157349,199.487457,631.116394,204.949417,632.572693,206.940704C633.03833,207.577667,634.482361,208.169159,636.064209,208.371643C640.153381,208.894821,641.830017,209.99263,648.797363,216.7061C655.890259,223.541153,658.394653,225.007538,667.40564,227.599258C679.86908,231.18425,687.606995,232.2005,692.370483,230.877777M699.805786,257.443146C705.146851,255.219818,712.18457,251.024261,720.094604,245.349197C727.045959,240.362,729.621094,239.364471,735.549133,239.364471C741.897095,239.364471,744.757446,237.534363,744.785034,233.45459C744.801514,230.987289,743.651733,230.461639,740.325562,231.415298C738.964355,231.805954,734.896362,232.799866,731.286438,233.625076C724.036499,235.281921,721.704224,236.462509,712.776001,242.997177C709.619141,245.307953,704.78186,248.346466,702.026123,249.74942C696.12677,252.753479,692.261108,253.238037,683.54657,252.065979C677.063782,251.194061,659.171692,246.813004,651.524048,244.225098C643.981567,241.673111,641.44397,240.010361,638.245728,235.529007C635.190491,231.247086,632.036621,229.212143,630.079163,230.25972C628.666382,231.015671,628.10022,232.380554,628.621216,233.77565C628.838562,234.356888,631.454163,237.476959,634.433533,240.708847C638.440491,245.054794,640.495972,246.806961,642.327454,247.439117C652.466919,250.937256,660.453186,253.262817,663.533997,253.613098C665.527832,253.839813,669.284729,254.805328,671.882935,255.757965C675.330322,257.022125,677.779175,257.506104,680.945862,257.548401C683.332275,257.580383,686.644531,257.955597,688.30603,258.382904C693.040527,259.59964,695.012085,259.438904,699.805786,257.443146M492.506592,330.521454C493.405396,329.814575,494.943695,327.57782,495.925903,325.550385C498.851013,319.51181,502.443573,316.525848,509.198334,314.520142C510.775452,314.051697,513.383179,312.565979,514.99408,311.218231C518.743591,308.080414,520.785217,307.003693,524.759583,306.068512C526.526245,305.65274,529.895264,304.150116,532.247131,302.729034C539.329224,298.450104,552.016113,295.884094,559.321167,297.253723C562.308655,297.813904,574.0047,301.852936,590.068481,307.871796C593.19458,309.043488,597.272888,310.938843,599.13147,312.084473C600.989929,313.22998,604.141418,314.62326,606.135254,315.18103C608.12915,315.738586,612.887146,317.62793,616.70874,319.379211C620.530273,321.130463,625.06897,323.187134,626.795288,323.949554C628.521362,324.711548,630.832397,326.270966,631.930969,327.414154C634.398987,329.982544,636.655701,331.202423,638.940369,331.202423C641.316467,331.202423,642.823303,329.41217,642.580688,326.87851C642.424561,325.249237,641.977417,324.663788,640.2724,323.852661C639.109314,323.2995,635.031006,321.355804,631.209473,319.532806C604.713013,306.894379,574.865051,294.966309,562.043213,291.892059C550.372131,289.093506,540.660278,291.370728,519.13092,301.954254C498.753143,311.971436,484.955109,323.146057,486.539978,328.348114C487.113281,330.229675,488.617737,331.80661,489.839508,331.80661C490.407959,331.80661,491.60791,331.228424,492.506592,330.521454M657.273743,416.58847C657.621948,411.709229,657.986816,410.468842,660.992065,403.96759C662.824646,400.002319,664.795532,395.311951,665.371826,393.544128C666.901184,388.851257,665.982178,386.253815,661.271118,381.954956C657.006226,378.063354,655.981567,375.996979,655.981567,371.289581C655.981567,366.176971,657.664185,363.154175,661.963318,360.542511C663.914063,359.357391,665.776733,357.695862,666.2146,356.750732C666.74408,355.607147,667.049194,351.296204,667.167297,343.286346C667.324097,332.641632,667.493286,330.990967,668.919006,326.183044C670.952332,319.326324,672.714172,315.908966,676.484375,311.506042C680.510742,306.804352,681.065369,305.06427,679.927856,300.707092C678.681213,295.933014,678.009949,295.129425,671.71936,290.871368C665.793091,286.860382,663.389587,286.21936,661.315796,288.095978C660.184326,289.120087,659.881592,291.101868,660.67334,292.298462C661.271851,293.202637,664.075317,294.568756,667.896606,295.817657C671.890625,297.122681,674.107422,299.603516,674.107422,302.767181C674.107422,305.394745,672.348022,308.337769,668.264404,312.539856C665.765259,315.11142,665.515137,315.657623,665.016113,319.629822C664.660217,322.464539,663.827026,325.180389,662.574402,327.586792L660.672974,331.240143L661.393311,339.022156C661.789673,343.302063,661.919556,348.119934,661.681885,349.727814C661.248901,352.661072,660.352905,353.820526,654.635986,358.847015C652.495911,360.728943,649.931091,367.381744,649.975586,370.934723C650.057983,377.480865,650.706299,379.214325,654.647827,383.427704C660.63324,389.825836,660.903931,393.40387,655.970093,400.887604C652.462646,406.206818,651.147949,410.370972,651.147949,416.157928C651.147949,420.137207,651.288696,420.647125,652.697021,421.754395C653.811279,422.631317,654.616638,422.836151,655.566956,422.486206C656.74707,422.05127,656.928894,421.421722,657.273743,416.58847M734.068604,343.437408C734.689087,342.737152,735.081177,340.807953,735.229797,337.72818C735.55127,331.052582,737.363892,328.947571,745.824585,325.424377C748.084717,324.483154,753.604675,321.742523,758.09082,319.333374C763.017456,316.687775,767.893311,314.545319,770.403076,313.92215C772.78186,313.331482,775.881958,311.997406,777.653442,310.801544C779.35553,309.652527,782.107666,308.018158,783.769165,307.170013C785.430725,306.321594,789.295166,304.174255,792.356201,302.397491C795.41748,300.621002,800.583374,297.872498,803.835938,296.290405C807.088745,294.708313,812.045654,292.06012,814.851807,290.405823C819.780518,287.500244,820.109253,287.399353,824.518921,287.425354C834.858276,287.486938,841.668823,288.350342,848.720337,290.492157C863.621094,295.01886,869.106567,296.954132,874.571106,299.612366C881.919189,303.187012,885.609009,306.006805,888.955444,310.606201C892.235229,315.113251,894.084717,316.182678,895.845276,314.589203C896.663452,313.848663,897.056152,312.727875,897.056152,311.130859C897.056152,309.079742,896.628418,308.34079,893.81012,305.522308C882.308289,294.020111,851.558899,282.452789,829.302917,281.254791C820.333984,280.771912,818.227783,281.309021,809.559387,286.286133C805.790955,288.450043,799.941772,291.651062,796.561523,293.40036C793.181396,295.149384,787.864441,298.018707,784.746033,299.776703C778.236572,303.446198,748.375366,317.780151,740.051636,321.230103C734.188232,323.660248,733.328369,324.497009,732.436523,328.637482C732.203369,329.719116,731.019165,332.030151,729.804077,333.773163C728.047729,336.292755,727.593384,337.511444,727.586914,339.71936C727.58252,341.246613,727.952271,342.946198,728.408081,343.495605C729.502014,344.813782,732.879517,344.779327,734.068604,343.437408M467.472046,408.292938C470.961304,407.811554,475.039612,407.14093,476.535004,406.803375C478.030396,406.465424,482.516541,405.617737,486.504272,404.919495C511.247925,400.586578,540.611938,391.042694,593.447144,370.161163C612.536133,362.617035,617.012024,361.020142,623.959106,359.275452C628.737061,358.075897,630.001038,357.043945,630.001038,354.342896C630.001038,351.7258,627.738342,349.328339,625.2677,349.328339C623.899292,349.328339,622.984497,349.958527,621.213074,352.119781C618.432495,355.512909,616.599976,356.327332,610.462463,356.896027C606.39386,357.272919,605.357666,357.616699,603.107849,359.333832C599.242004,362.284698,597.365967,363.106445,592.847656,363.828308C589.940369,364.293091,587.625671,365.172211,584.766174,366.898224C582.56189,368.228821,579.263611,369.733887,577.435913,370.242523C570.313049,372.225555,562.3479,374.99884,555.986938,377.71109C546.124023,381.91629,536.767395,385.33786,530.308533,387.101776C527.151611,387.963715,520.458313,390.013763,515.434998,391.656281C510.411743,393.298767,505.76001,394.643097,505.098907,394.643097C504.437439,394.643097,501.070862,395.452759,497.617188,396.442596C493.393311,397.653198,489.557861,398.31543,485.900055,398.4664C482.010864,398.626587,479.623657,399.063385,477.517395,400.000641C474.050537,401.54303,466.519836,402.719421,453.575531,403.740692C444.708923,404.440186,443.978943,404.413574,439.858765,403.241302C436.723022,402.34906,434.51535,402.092865,431.95755,402.324707C429.155884,402.578613,427.797028,402.376221,425.507935,401.363739C423.912903,400.657898,421.962738,400.080872,421.174194,400.080872C419.290894,400.080872,417.3237,402.103119,417.3237,404.039001C417.3237,406.23642,419.65567,407.030945,430.359222,408.479492C440.748962,409.885803,456.502258,409.806641,467.472046,408.292938M957.173706,388.330627C970.356079,386.759552,976.436768,383.79776,979.552002,377.430634C981.598389,373.247864,981.833496,367.637299,980.170288,362.69162C978.731445,358.414246,971.867188,348.2323,967.050781,343.232483C958.536255,334.393188,946.112061,326.712006,933.307983,322.370361C928.674927,320.799347,927.393433,320.628967,920.216431,320.628967C912.628174,320.628967,912.188232,320.696625,910.700317,322.093719C908.14856,324.489166,908.892944,327.768158,912.25769,328.956024C912.809326,329.150574,914.848511,328.520996,916.789185,327.556366C921.682617,325.124207,924.774902,325.184021,929.742798,327.80603C931.869995,328.928833,935.935059,330.552307,938.776245,331.413879C944.359375,333.106842,949.877441,336.356812,953.24646,339.936859C954.409546,341.172882,956.44873,342.734711,957.777954,343.408295C962.105225,345.601044,964.111694,347.529633,966.020142,351.331177C967.051758,353.386719,969.057129,356.317078,970.47583,357.84314C973.651978,361.259399,974.760132,363.342682,975.293579,366.90097C975.842285,370.561035,974.790894,374.209778,972.404297,376.928009C969.602661,380.118805,966.034302,381.49939,960.214233,381.644653C957.545288,381.711456,953.593872,382.247406,951.433838,382.836121C948.350098,383.67691,946.144653,383.835236,941.162476,383.575287C932.10083,383.101746,921.698242,381.990631,916.088379,380.895844C913.42981,380.37738,908.671753,379.887421,905.514893,379.807129C901.479492,379.704926,896.41394,378.925537,888.456909,377.183044C882.232178,375.819946,876.114685,374.700348,874.862549,374.69516C872.255676,374.684052,867.439575,373.522797,862.616943,371.741882C860.789185,371.066742,857.934387,370.505432,856.272827,370.494476C854.191406,370.480652,852.040405,369.901215,849.356262,368.631348C846.530151,367.294739,844.041504,366.650055,840.293335,366.284454C836.75061,365.938904,830.187256,364.313019,819.416809,361.113647C796.262207,354.234985,796.248291,354.230804,791.134888,353.258484C788.539917,352.764984,784.34375,351.531219,781.809753,350.516388C777.61969,348.838348,776.936951,348.728973,774.263245,349.302094C768.725891,350.489594,765.804626,350.145813,762.92627,347.968872C761.498535,346.889191,759.829712,345.634247,759.218018,345.181335C757.614746,343.993896,754.186523,344.796844,752.679199,346.713409C749.907593,350.237061,751.838013,352.659851,757.885925,353.247162C771.821167,354.600555,787.839111,358.140564,811.260132,365.042145C827.418823,369.803345,861.618164,378.114685,879.470825,381.618195C892.262451,384.128265,903.611694,385.828491,923.640869,388.233459C932.928589,389.348511,948.259399,389.393219,957.173706,388.330627"/>
</svg>
