<?xml version="1.0" encoding="UTF-8"?>
<svg xmlns="http://www.w3.org/2000/svg" width="258.762mm" height="236.717mm" viewBox="-1047.415527 -754.811951 258.762024 236.717285">
    <path transform="matrix(-0.26455,0,0,-0.26455,-782.380737,-500.889862)" style="stroke:#000000;stroke-width:0.05mm;fill:none" d="M760.762695,958.434692C757.515015,956.672546,756.951477,954.802917,756.525513,944.37793C755.782349,926.189026,754.325439,911.340759,753.05426,909C752.307556,907.625,748.885803,902.224976,745.450317,897C734.010742,879.601501,730.365234,863.758423,735.060547,851.846375C736.195679,848.966553,736.865112,845.598755,736.551147,844.347778C736.237671,843.098755,733.721863,839.472046,730.96051,836.288452C727.278015,832.042786,723.383606,825.169373,716.349182,810.5C711.07428,799.5,703.633362,783.974976,699.813721,776C689.742737,754.972778,681.637451,741.872009,673.5,733.468628C667.662842,727.440674,664.672668,725.326172,655.5,720.739868C642.641113,714.310425,632.19458,710.825012,619,708.56189C599.626221,705.238953,597.226379,704.635681,584.417542,699.868774C577.222168,697.190918,571.024963,695,570.645996,695C569.983521,695,559.408264,690.971863,544.344788,684.98175C535.124084,681.315063,522.598572,678.824768,504,676.960449C498.774994,676.436707,492.25,675.552551,489.5,674.995728C479.318848,672.934021,451.611176,670.41571,424,669.042542C390.629547,667.382935,382.121979,665.822144,342.5,654.090637C316.20401,646.304749,306.905762,644.730103,277.5,643.082825C261.892609,642.208496,250.983475,639.696716,233,632.836914C212.66954,625.081848,200.137436,621,196.658401,621C192.794296,621,190,623.1073,190,626.021423C190,629.309143,197.565933,645.491394,204.427917,656.880371L211.061829,667.890808L226.780914,679.136108C249.901703,695.676636,258.982452,703.835205,270.352783,718.283386C285.346649,737.335876,293.602722,752.301025,297.168488,766.890137C298.384064,771.863586,301.142761,777.911987,304.130585,782.154358C306.724365,785.83728,306.526764,789.608765,303.6409,791.499634C300.721771,793.412292,299.16272,792.872009,291.5,787.292053C288.200012,784.889038,280.429108,780.743408,274.231354,778.07959C262.967285,773.238281,254.181061,768.099915,233.5,754.259216C214.216278,741.353699,194,725.886169,194,724.037659C194,723.555176,190.908066,720.91156,187.129044,718.162964C183.350021,715.414307,178.100128,710.665894,175.462631,707.610901C172.825119,704.555847,168.154556,700.276672,165.083588,698.101624C156.754333,692.202209,143.397079,678.213379,141.097137,672.980957C140.004623,670.495544,137.534409,662.84552,135.607758,655.980957C133.681091,649.116455,130.65976,639.450012,128.893661,634.5C122.191002,615.713745,124.238243,602.559509,135.860687,589.734619C145.351715,579.261658,146.875671,576.795837,148.613571,569.10022C149.958786,563.143433,150.046692,560.857666,149.109955,556.193359C148.127365,551.300659,147.166183,549.702576,142.084366,544.512573C138.061264,540.40387,135.433899,536.600159,133.786835,532.5C132.461182,529.200012,129.073273,523.480225,126.258133,519.789307C120.369194,512.068481,115.778969,502.845825,113.992577,495.145538C112.681839,489.495544,113.00679,481.8078,115.182259,467C116.692863,456.717712,116.743431,400.864685,115.26284,378C114.710808,369.475006,113.552536,360.304871,112.688904,357.621979C108.645638,345.06131,78.843895,300.822906,58,276.440491C55.525002,273.545319,51.025002,268.174255,48,264.504791C44.974998,260.835327,39.936184,254.926376,36.802628,251.373764C29.889841,243.53653,26.487047,236.776886,24.784603,227.5C23.376831,219.828827,23.355082,193.973007,24.708899,137.5L25.5,104.5L28.66247,99.692238C30.558697,96.809494,32.481789,91.932068,33.465439,87.51075C34.856258,81.25927,35.680592,79.617851,38.88168,76.725861C47.07972,69.31942,59.81031,65.094788,74.10923,65.035622C81.846954,65.003609,83.3032,65.312035,88.494843,68.082451C93.715958,70.868591,94.826485,71.100449,100.04763,70.494469C105.158234,69.901321,106.075768,70.075768,108.007912,72.007912C110.625092,74.625092,110.384956,78.402267,107.022987,87.5C105.803513,90.800003,104.130455,95.430267,103.305092,97.78949C100.385727,106.134148,94.162575,110.900169,81.457291,114.521667C71.712769,117.29924,69.273705,118.803154,67.044205,123.408691C65.189583,127.239822,65.000107,129.526566,65.001175,148.06572C65.002724,174.918106,65.777824,178.666931,75.01532,196.5C83.168297,212.23938,90.327812,223.407761,96.398697,229.856689C100.372055,234.077469,115.61692,246.574081,131,258.220276C135.125,261.343231,140.278824,265.721222,142.452942,267.949188C144.754837,270.308075,147.34407,272,148.652054,272C151.699188,272,155.208923,267.088562,158.29921,258.5C164.936356,240.054047,174.36615,220.105881,187.267944,197.218491C193.700394,185.807526,196.612732,182.132309,203.292542,176.996307C206.156647,174.794144,210.676361,171.194092,213.336365,168.996185C219.041977,164.281754,222.986664,163.873901,232.405228,167.024582C236.111328,168.264343,241,169,245.532562,169C253.19133,169,265.676697,171.353745,270.24057,173.657959C276.804443,176.971909,277.543701,183.978897,272.412506,194.24382C266.521576,206.02861,261.906128,208.601074,244.928375,209.562332C237.701233,209.971527,231.354446,210.846085,229.762711,211.652115C227.63205,212.731033,225.012131,217.144348,217.940948,231.566162C206.773193,254.343018,202.569824,265.904388,203.451385,271.419708C204.563507,278.377502,214.598434,294.68631,223.190628,303.5C239.964798,320.706604,261.832428,344.093323,268.5,351.956879C272.350006,356.497467,276.89212,361.852203,278.593597,363.856262C288.159271,375.122986,306.606506,408.077728,309.555573,419.167664C310.335449,422.100433,311.244385,428.100006,311.575409,432.5C312.386169,443.27652,313.559967,446.7211,317.03363,448.517395C321.065399,450.602295,322.276154,450.434113,330.874146,446.594666C338.592102,443.148193,343.036438,442.04895,357.5,440.009155C368.769928,438.419769,378.693329,436.372528,392,432.891663C405.106476,429.463135,414.378754,428.189514,435,426.985199C451.445648,426.02475,465.927399,424.591949,474,423.126617C487.232819,420.724579,500.906982,417.845734,505.890015,416.41275C511.252136,414.870728,535.835205,413.54187,554,413.812103C556.474976,413.848907,572.864014,413.748383,590.419983,413.588715C622.192322,413.299713,622.34845,413.287933,624.169983,411.038422C626.402161,408.28183,626.531982,402.759186,624.5,397C622.423218,391.11377,622.625061,384.37146,625.08667,377.405212C627.884766,369.486725,634.112183,347.371307,637.872131,332C639.553833,325.125,641.63147,317.024994,642.489197,314C645.071228,304.893677,646.555176,290.046722,648.83606,250.5C649.248474,243.350006,650.831299,229.850006,652.353516,220.5C653.875732,211.149994,655.621155,200.435715,656.232239,196.690491C657.385254,189.623703,656.628418,182.918854,653.393372,171.540344C651.301575,164.182968,652.697021,161.030823,660.516052,155.451279C664.939575,152.294708,667.180359,149.939621,667.883911,147.707565C669.570923,142.355423,670.998962,132.951553,671.018433,127.066338C671.028564,124.004852,671.711365,117.685379,672.535706,113.023071C674.223389,103.478386,676.257446,99.790886,684.959717,90.5C688.050659,87.199997,691.845642,82.608849,693.392944,80.29744C698.203796,73.110931,698.604187,72.999939,719.714844,73.000504C736.076965,73.000946,739.178589,73.258919,743.760742,75.000504C747.210754,76.311798,751.442749,77,756.056152,77C762.191833,77,763.404602,77.313713,765.545471,79.454544C767.021606,80.930725,768,83.063629,768,84.805603C768,88.024055,764.001587,96.223053,760.663147,99.850235C757.062256,103.762566,747.487305,107.94503,737.362427,110.028313C725.606689,112.447144,716.820374,116.884834,712.800903,122.433533C710.386292,125.766846,709.95874,127.234711,710.205078,131.346252C710.434448,135.174805,711.008911,136.60498,712.790405,137.783035C714.986755,139.235397,715.29248,139.075867,720.23407,133.898804C730.069885,123.594368,733.084229,122.896706,742.480286,128.75L748.5,132.5L762.591248,132.5C773.062256,132.5,777.108582,132.8526,778.341248,133.872452C780.770508,135.882416,780.387329,141.086426,777.524292,144.967056C776.162659,146.812637,774.53772,149.937561,773.91333,151.911331C773.28894,153.885101,771.73053,157.333206,770.450134,159.573792C767.130676,165.382736,757.444824,169.7509,744.787048,171.147415C730.202515,172.756516,729.282166,172.950974,726.82135,174.943283C724.654053,176.698013,724.406921,178.039597,723.097412,195.161362C720.616516,227.598145,721.286621,249.709473,725.380554,270.5C726.247009,274.899994,727.430908,282.549988,728.011536,287.5C728.592163,292.450012,729.502075,298.418945,730.033569,300.764343C730.565125,303.109741,731.007019,306.934753,731.015625,309.264343C731.039429,315.726685,735.39679,338.655426,739.991211,356.494385C744.208374,372.868286,745.454102,381.102386,747.0271,403C747.520935,409.875,748.34552,417.975006,748.859436,421C751.022278,433.729919,756.73877,452.341827,762.987976,467C764.746582,471.125,767.046265,476.648926,768.098328,479.275421C769.150391,481.901917,772.876404,489.776917,776.378418,496.775421C790.675171,525.346741,794.82489,541.976013,796.896912,579C797.813843,595.384583,800.60437,604.05365,809.45636,618.01709C812.782898,623.264465,816.066711,629.965637,817.197998,633.815002C819.505615,641.667358,824.329407,651.548218,830.957642,662C833.573669,666.125,836.866882,671.525024,838.27594,674C839.685059,676.474976,842.917664,680.920593,845.459534,683.87915C850.378418,689.60437,852.503967,693.758423,853.593018,699.774841C854.594055,705.304993,856.735657,708.895569,859.437744,709.57373C860.812805,709.918823,865.399475,709.095825,870.169556,707.64801C874.751282,706.257324,881.610474,704.579285,885.412109,703.919006C893.346558,702.540894,898.398254,701.013428,916.5,694.51886C935.694641,687.632202,942.197205,686.480896,951.283936,688.360046C966.057922,691.415344,969.59314,693.328979,980,703.904175C999.978088,724.205383,1003.807922,730.22113,1001.027527,736.933533C999.919434,739.608704,985.665771,753.500122,980.415039,757.022217C979.166931,757.859375,972.937927,763.590576,966.572876,769.758179C953.522644,782.403503,953.717957,781.913818,957,793.757446C958.099976,797.726929,959,803.990784,959,807.677124C959,811.363525,959.539917,816.993652,960.199829,820.18866C961.307556,825.551575,961.225708,826.355713,959.134277,830.660583C956.932678,835.192139,953.048279,840.503967,946.233459,848.302307C941.81897,853.353882,940.806702,856.286072,940.899048,863.753845C940.986328,870.81073,942.559875,875.252563,947.539917,882.5C949.429626,885.25,951.370544,889.623962,951.853088,892.21991C952.909058,897.900085,955.23291,901.693359,958.595276,903.225342C961.75708,904.666016,963.920227,902.588196,966.453247,895.677368C968.704163,889.536194,971.694336,886.152039,975.515808,885.420776C979.425415,884.672668,984,888.043274,984,891.672119C984,894.818787,978.060486,908.672241,973.995361,915.007202C969.102905,922.63147,956.698364,931.13092,943.976929,935.575562C930.713623,940.209473,927.005676,939.091309,910.565002,925.5C898.741821,915.725891,891.704346,908.32373,888.821777,902.630005L885.850037,896.759949L880.674988,897.413025C866.768738,899.167908,864.802979,899.176086,856.42981,897.514587C851.652832,896.566711,846.241333,895.163147,844.404297,894.395569C840.047119,892.575012,833.604675,892.619263,829.647888,894.496826C820.506348,898.834778,810.301758,910.206116,804.602234,922.406067C797.939575,936.667786,783.661438,952.921692,773.737427,957.542053C767.746521,960.331299,764.650635,960.54425,760.762695,958.434692z"/>
    <path transform="matrix(-0.26455,0,0,-0.26455,-782.380737,-500.889862)" style="stroke:#000000;stroke-width:0.05mm;fill:none" d="M779.320313,935.75C787.99585,925.075806,790.897705,917.819824,787.589233,915.074036C785.322876,913.193115,779.515259,912.674866,775.511475,913.996216C772.80249,914.890259,771.429199,916.121887,770.403198,918.577393C768.790588,922.43689,768.536133,933.649719,769.97522,937.434875C771.517456,941.491272,775.192627,940.828613,779.320313,935.75z"/>
    <path transform="matrix(-0.26455,0,0,-0.26455,-782.380737,-500.889862)" style="stroke:#000000;stroke-width:0.05mm;fill:none" d="M943.5,921.136536C951.559082,917.47052,951.983154,912.832581,944.652222,908.536316C939.651917,905.605957,936.18158,905.378052,929.779236,907.55957C923.594849,909.666809,921.342773,912.229004,922.580811,915.749329C924.888245,922.310486,935.12439,924.946533,943.5,921.136536z"/>
    <path transform="matrix(-0.26455,0,0,-0.26455,-782.380737,-500.889862)" style="stroke:#000000;stroke-width:0.05mm;fill:none" d="M913.990906,904.510986C915.798096,902.333374,914.500671,897.364929,910.474792,891.046326C908.56366,888.046814,907,885.229431,907,884.785461C907,884.341431,906.041687,881.939514,904.870483,879.447815C902.398499,874.188965,899.61908,872.488708,892,871.574646C888.974976,871.211731,883.44342,870.205811,879.707642,869.339294C871.183777,867.362183,865.40033,868.666321,860.365784,873.700867C856.434326,877.632324,856.015991,881.197388,859.222534,883.443298C862.17981,885.514648,865.483643,885.406799,875.052856,882.926331C887.921021,879.590759,892.813232,881.801453,899.480713,893.964783C905.201111,904.400391,910.740967,908.42688,913.990906,904.510986z"/>
    <path transform="matrix(-0.26455,0,0,-0.26455,-782.380737,-500.889862)" style="stroke:#000000;stroke-width:0.05mm;fill:none" d="M807.270996,894.704468C812.967957,889.04187,817.925476,883.636536,818.28772,882.692566C819.880981,878.540649,814.151489,873.188721,809.635071,874.610107C808.460815,874.979675,803.337524,879.467041,798.25,884.58197C790.812378,892.059692,789,894.454834,789,896.806091C789,900.339661,792.429016,905,795.028992,905C796.081421,905,801.484314,900.456116,807.270996,894.704468z"/>
    <path transform="matrix(-0.26455,0,0,-0.26455,-782.380737,-500.889862)" style="stroke:#000000;stroke-width:0.05mm;fill:none" d="M773.75,899.676697C777.385132,896.404602,776.816101,891.416931,772.37323,887.608704C758.377502,875.612183,756.425537,869.717285,761.571716,854.987793C763.843323,848.485962,764.013123,847.109192,763.026489,843.190918C761.50824,837.161499,757.76593,829.957642,751.498413,821C745.586182,812.550049,741.896179,805.528809,735.510437,790.578369C733.090698,784.913086,728.330017,775.182495,724.931152,768.954834C721.532349,762.727173,716.380554,752.585815,713.482727,746.418518C707.240479,733.133606,702.116882,725.336182,693.759094,716.401611C685.350464,707.412781,682.762634,705.80542,657,693.569702L634.5,682.883484L624.90741,683.538391C614.614502,684.241028,614.704651,684.266541,602.277405,677.131165C600.395508,676.050598,595.861816,674.991516,591.379578,674.585327C583.755005,673.894409,579.374451,672.261475,571.930908,667.335571C569.481384,665.7146,565.434937,664.51355,559.371216,663.607727C549.768982,662.173279,546.692261,660.941467,540.612488,656.097412C535.475586,652.004517,529.566345,651.811096,525.076721,655.588867C521.284241,658.780029,521.041931,662.326172,524.463196,664.567871C525.817993,665.455566,530.655518,666.998169,535.213196,667.995911C539.770935,668.993652,548.450012,671.695679,554.5,674.000366C568.579956,679.363953,596.955017,689.363403,603.712708,691.343018C606.579651,692.182861,614.0047,693.617371,620.212708,694.530823C635.277039,696.747314,643.717041,699.553284,660.920959,708.064575C674.021301,714.545715,676.088318,715.945496,683.491638,723.349548C695.203735,735.062744,697.372375,738.938904,729.732361,806C734.525757,815.933655,739.5625,824.781738,742.388672,828.233521C747.784119,834.823303,750.946411,841.181458,750.978027,845.503174C750.990112,847.154907,750.099976,851.653503,749,855.5C747.900024,859.346497,747,863.650879,747,865.065308C747,870.203674,750.077637,877.765808,756.739136,888.995789C765.190369,903.242859,767.898865,904.943481,773.75,899.676697z"/>
    <path transform="matrix(-0.26455,0,0,-0.26455,-782.380737,-500.889862)" style="stroke:#000000;stroke-width:0.05mm;fill:none" d="M933.065735,892.964844C935.867188,891.465515,935.468689,888.455383,931.348999,879.996521C928.503357,874.153625,927.531128,870.697693,926.941589,864.329407C925.668884,850.581482,925.338684,850.229065,912.637024,849.059387C906.047302,848.452576,903.528198,847.710144,899.389404,845.155029C894.013123,841.835999,889.427612,841.169617,885.684265,843.16333C882.597717,844.807251,881.068665,847.085327,881.031799,850.095032C880.97406,854.809082,883.974915,856.266663,895.419922,857.083557C901.131165,857.491211,906.686401,858.296997,907.764832,858.874146C912.272156,861.286377,915.755493,866.930054,919.513794,877.909546C922.376892,886.273804,924.08606,889.736084,926.251709,891.55835C929.495544,894.287903,930.287964,894.451416,933.065735,892.964844z"/>
    <path transform="matrix(-0.26455,0,0,-0.26455,-782.380737,-500.889862)" style="stroke:#000000;stroke-width:0.05mm;fill:none" d="M842.603516,877.914063C843.315308,877.323364,844.39978,875.188538,845.013367,873.169983C848.100464,863.015198,850.982117,859.538696,858,857.502808C865.598389,855.298523,869,852.022034,869,846.907471C869,843.646179,864.573792,840,860.614746,840C857.702393,840,856.356995,840.849487,852.319336,845.237854C849.668701,848.118713,843.337524,854.572205,838.25,859.579041C830.15094,867.549622,829.001892,869.106445,829.01532,872.091125C829.023743,873.966003,829.373962,876.0401,829.793518,876.700195C831.760742,879.794861,839.458435,880.524292,842.603516,877.914063z"/>
    <path transform="matrix(-0.26455,0,0,-0.26455,-782.380737,-500.889862)" style="stroke:#000000;stroke-width:0.05mm;fill:none" d="M788.849731,874.472961C794.438904,869.77002,793.540649,861.882324,787.032715,858.516907C777.720825,853.701538,770.558228,861.443665,775.494263,870.988953C778.714783,877.216675,783.962219,878.585571,788.849731,874.472961z"/>
    <path transform="matrix(-0.26455,0,0,-0.26455,-782.380737,-500.889862)" style="stroke:#000000;stroke-width:0.05mm;fill:none" d="M816.433472,859.464539C818.213135,858.620056,823.681152,853.8396,828.584595,848.841431C852.724609,824.234924,852.000854,825.074463,851.98468,821.698303C851.966919,817.993164,851.409729,817.006653,848.027466,814.692017C844.663269,812.389771,838.764587,812.497681,836.589355,814.901306C835.642944,815.947021,834.223267,819.569336,833.434387,822.950867C830.172668,836.932617,824.63623,842.487,811.550171,844.906067C808.312683,845.504578,804.839478,846.740295,803.831909,847.6521C801.094666,850.129272,801.475708,855.203003,804.636353,858.363647C807.677734,861.405029,811.577332,861.768921,816.433472,859.464539z"/>
    <path transform="matrix(-0.26455,0,0,-0.26455,-782.380737,-500.889862)" style="stroke:#000000;stroke-width:0.05mm;fill:none" d="M789.744385,842.79718C790.434998,842.22406,791,840.536377,791,839.046814C791,835.123718,781.476135,817.338989,776.269775,811.539917C771.217102,805.911926,767.797424,799.551758,762,785C757.031128,772.527954,753.31311,765.098389,747.632751,756.290649C741.538818,746.841614,736.464172,736.452698,734.517212,729.440247C731.783813,719.595337,731.051392,718.344604,724.872498,712.970398C720.477722,709.147949,718.181091,706.150085,716.054504,701.459961C713.536865,695.90741,712.494568,694.731873,707.679626,692.014465C704.654968,690.307434,700.227234,687.2005,697.840149,685.110168C692.220459,680.188904,690.716553,679.441772,682.679077,677.577759C673.478516,675.444031,666.765625,671.819397,662.823669,666.856812C654.114014,655.892151,651.056946,654.170532,646.261353,657.52948C643.24353,659.64325,641.694885,665.589722,643.292542,668.928955C644.679138,671.826904,643.951904,671.422913,672.5,685.154358C693.461609,695.236816,693.515503,695.271057,702,703.914856C712.810974,714.928894,719.958374,725.326599,725.611206,738.263428C728.071289,743.893555,733.291016,754.292419,737.21051,761.372009C741.130066,768.451599,747.181885,780.807068,750.659119,788.828613C754.136292,796.850098,759.122986,806.509888,761.740662,810.294861C770.569824,823.061279,773.057129,827.475891,775.05304,833.922546C777.229553,840.952515,778.391724,842.791626,781.465271,844.070007C783.737244,845.014954,787.830383,844.385681,789.744385,842.79718z"/>
    <path transform="matrix(-0.26455,0,0,-0.26455,-782.380737,-500.889862)" style="stroke:#000000;stroke-width:0.05mm;fill:none" d="M939.502991,835.725464C941.398621,833.510864,943.710571,829.706177,944.640747,827.27063C946.224426,823.123901,946.226746,821.888184,944.677307,807.830994C943.767273,799.574768,942.454041,791.633179,941.759033,790.183105C940.052246,786.621948,936.153503,785.329102,932.508911,787.11554C927.48999,789.575684,927.269409,791.029053,930.445496,800.709473C933.908569,811.264465,934.090271,818.876526,931.082581,827.406555C928.572876,834.524475,928.428894,838.580994,930.642029,839.819519C933.219727,841.262085,935.774048,840.081909,939.502991,835.725464z"/>
    <path transform="matrix(-0.26455,0,0,-0.26455,-782.380737,-500.889862)" style="stroke:#000000;stroke-width:0.05mm;fill:none" d="M915.630981,831.440491C919.970764,824.817078,917.483887,798.098999,912.135986,793.892334C908.841919,791.301208,904.395508,791.980225,901.25,795.554688C898.209534,799.009827,898.419678,801.994751,902.022583,806.528442C905.543579,810.959045,906.4198,813.757385,905.693604,818.252686C905.405029,820.038696,904.845337,823.422607,904.449829,825.772461C903.87793,829.169739,904.097229,830.449951,905.520325,832.022461C908.192017,834.974609,913.516113,834.668152,915.630981,831.440491z"/>
    <path transform="matrix(-0.26455,0,0,-0.26455,-782.380737,-500.889862)" style="stroke:#000000;stroke-width:0.05mm;fill:none" d="M814.923279,828.411133C817.376038,826.347229,818,825.042908,818,821.979187C818,817.544373,815.341125,815.075562,808.295349,812.968201C802.595093,811.263245,799,813.386536,799,818.457947C799,829.256653,807.559753,834.607117,814.923279,828.411133z"/>
    <path transform="matrix(-0.26455,0,0,-0.26455,-782.380737,-500.889862)" style="stroke:#000000;stroke-width:0.05mm;fill:none" d="M884.746887,828.85199C888.911865,827.562744,891,824.532471,891,819.777466C891,815.601196,888.270569,812,885.105347,812C881.523315,812,870.432739,815.948181,868.21759,818.011963C862.317444,823.508728,869.277649,831.859375,878.5,830.348511C880.150024,830.078186,882.961121,829.404785,884.746887,828.85199z"/>
    <path transform="matrix(-0.26455,0,0,-0.26455,-782.380737,-500.889862)" style="stroke:#000000;stroke-width:0.05mm;fill:none" d="M795.171265,803.345032C798.220215,800.585754,797.308533,796.861572,789.92749,781.923523C786.037598,774.051086,781.725464,764.210266,780.345032,760.054993C777.222961,750.65741,775.933533,748.572205,769.954407,743.251221C764.456787,738.358765,759.998291,730.205261,760.003723,725.05365C760.008606,720.427795,762.945679,715.726074,767.863525,712.471619C770.031372,711.036987,778.036438,707.666626,785.652527,704.981873C794.341431,701.918945,800.151917,699.295471,801.25,697.939453C803.457886,695.213013,803.504883,690.215332,801.345032,687.828735C798.578186,684.771423,794.320129,685.606628,786.099915,690.81897C781.919922,693.469421,775.039001,697.259644,770.808899,699.241699C761.561646,703.574646,751.995667,709.924316,748.99054,713.724182C744.698242,719.151794,748.339355,731.114929,759.440491,748.0578C767.536926,760.414795,769.598816,764.455017,776.011292,780.52832C782.495667,796.781738,784.335449,800.332092,787.606934,802.905457C790.81842,805.43158,792.742126,805.543396,795.171265,803.345032z"/>
    <path transform="matrix(-0.26455,0,0,-0.26455,-782.380737,-500.889862)" style="stroke:#000000;stroke-width:0.05mm;fill:none" d="M828.607849,802.42627C829.39917,799.27356,828.181641,796.479309,823.062439,789.698914C817.659302,782.54248,813.490784,773.211121,810.912231,762.5C809.72052,757.549988,808.340881,751.832764,807.846375,749.794983C807.351807,747.757263,806.251892,745.394775,805.402161,744.544983C801.471436,740.614258,792.984863,744.573792,793.018738,750.322571C793.029053,752.071228,796.002808,760.020264,799.631897,768C803.25885,775.974976,807.496948,785.808167,809.049988,789.85144C813.031311,800.216858,817.971802,804.988464,824.730957,804.996277C827.369446,804.999329,828.080322,804.528076,828.607849,802.42627z"/>
    <path transform="matrix(-0.26455,0,0,-0.26455,-782.380737,-500.889862)" style="stroke:#000000;stroke-width:0.05mm;fill:none" d="M870.746521,801.081482C882.729309,797.230103,883.48175,796.763489,886.630188,791.231628C890.482117,784.463623,894.884949,780.108093,898.992432,779.002014C900.951843,778.474426,906.142639,778.129272,910.527527,778.235046C917.650757,778.406921,919.085876,778.112793,924,775.473877C928.365234,773.129761,931.047424,772.445557,937,772.157654C945.619995,771.740723,949.5672,769.539246,952.400696,763.568054C956.209778,755.540955,949.701355,753.741211,936.276001,759.109192C924.783203,763.704468,920.592712,764.800598,905.921753,767.049194C890.289734,769.445129,887.100342,770.75824,882.174622,776.826172C870.251282,791.514587,866.588623,793.642212,858.526855,790.563416C852.972595,788.4422,845.745483,781.404602,842.456848,774.914856C841.109741,772.256531,839.514404,766.800659,838.91156,762.790771C836.555298,747.117554,833.984619,737.334167,831.645081,735.136292C828.735046,732.402466,825.249817,732.416687,822.314453,735.174316C819.455688,737.859985,819.407471,740.425598,822.088074,747.212952C823.236511,750.12085,825.032349,756.498962,826.078918,761.386597C827.92572,770.01178,828.973206,772.397461,836.007751,784C843.983215,797.154358,843.843994,797.003357,851.280396,800.567139C855.220154,802.4552,859.16864,804,860.05481,804C860.940979,804,865.752258,802.686646,870.746521,801.081482z"/>
    <path transform="matrix(-0.26455,0,0,-0.26455,-782.380737,-500.889862)" style="stroke:#000000;stroke-width:0.05mm;fill:none" d="M869.977478,768.530457C877.625549,758.177673,881.331055,756.418823,902.771301,752.964783C918.164001,750.484985,941.531311,742.916809,944.75,739.368713C947.209106,736.657959,947.730591,731.851257,945.744385,730.20282C942.097168,727.175903,938.994385,727.659424,928.666199,732.86438C918.461975,738.006775,911.155457,740.064209,892.5,743.048279C886.513184,744.00592,882.208496,745.523987,875.394043,749.080688C870.385803,751.694641,864.310791,754.398499,861.894043,755.089233C855.561401,756.899109,854,758.566711,854,763.520142C854,770.02417,859.284851,775.522766,864.280396,774.216431C865.300659,773.949646,867.864319,771.39093,869.977478,768.530457z"/>
    <path transform="matrix(-0.26455,0,0,-0.26455,-782.380737,-500.889862)" style="stroke:#000000;stroke-width:0.05mm;fill:none" d="M280.33963,762.557312C281.048492,760.710022,279.559479,755.506104,277.355286,752.127319C276.412598,750.682312,272.13855,745.837769,267.857422,741.361633C262.838776,736.114441,259.204956,731.259277,257.628601,727.694885C254.916504,721.562378,251.116653,718.275696,248.458511,719.763306C247.551544,720.270813,244.602356,723.537903,241.904739,727.023438C234.245834,736.919312,235.110596,739.72229,247,743.539001C251.302612,744.920227,254.066864,746.837341,259.697113,752.345032C263.655548,756.217285,268.60553,760.421448,270.697113,761.687622C275.005737,764.295898,279.516357,764.702698,280.33963,762.557312z"/>
    <path transform="matrix(-0.26455,0,0,-0.26455,-782.380737,-500.889862)" style="stroke:#000000;stroke-width:0.05mm;fill:none" d="M972.5,745.420044C983.591858,736.595947,985,735.014954,985,731.385498C985,727.852539,981.281555,724,977.87146,724C976.849121,724,972.424316,727.162048,968.038452,731.026794C959.183899,738.829346,956.623352,743.683167,958.819397,748.50293C960.702698,752.636292,964.506714,751.779053,972.5,745.420044z"/>
    <path transform="matrix(-0.26455,0,0,-0.26455,-782.380737,-500.889862)" style="stroke:#000000;stroke-width:0.05mm;fill:none" d="M864.156372,737.998779C871.919556,733.222046,877.64563,731.313538,892.676819,728.492859C909.312195,725.371216,913.853455,723.967957,925.245117,718.429321C937.634216,712.405762,940.478088,712.099304,948.622253,715.9104C956.337769,719.520935,960.709045,719.803345,964.365112,716.927429C967.888611,714.155884,967.74585,710.805359,963.968933,707.627319C959.97699,704.268311,955.223633,702.910889,945.5,702.353027C938.067383,701.926636,936.684387,702.185791,926,706.007385C904.80835,713.587219,897.567749,715.834045,886,718.420044C879.674988,719.833984,871.799988,721.649109,868.5,722.453613C865.200012,723.258179,860.731995,724.19574,858.571106,724.537048C853.141296,725.394836,848,730.585083,848,735.208862C848,743.546692,853.575256,744.50946,864.156372,737.998779z"/>
    <path transform="matrix(-0.26455,0,0,-0.26455,-782.380737,-500.889862)" style="stroke:#000000;stroke-width:0.05mm;fill:none" d="M791.568665,731.5C796.256531,729.013062,799.453857,728,802.615173,728C814.052185,728,820.592957,719.837402,814.927429,712.634888C812.443115,709.476563,809.548889,709.298889,805.5,712.056091C799.635315,716.049744,795.128845,717.946472,787.946716,719.44397C776.686462,721.791809,773.13678,726.618469,778.452271,732.354004C781.669556,735.8255,783.659363,735.695984,791.568665,731.5z"/>
    <path transform="matrix(-0.26455,0,0,-0.26455,-782.380737,-500.889862)" style="stroke:#000000;stroke-width:0.05mm;fill:none" d="M227.413101,721.75C229.276657,718.862488,232.421066,714.949219,234.400681,713.053833C236.423904,711.116699,238,708.632507,238,707.380737C238,703.851929,232.473373,699,228.453812,699C225.460587,699,224.660736,699.617676,221.655685,704.25C219.782516,707.137512,216.618683,711.050781,214.624954,712.946167C210.044067,717.301086,210.022385,719.934448,214.53479,723.896423C220.05275,728.741211,223.244385,728.20929,227.413101,721.75z"/>
    <path transform="matrix(-0.26455,0,0,-0.26455,-782.380737,-500.889862)" style="stroke:#000000;stroke-width:0.05mm;fill:none" d="M841.545471,719.545471C842.992493,718.09845,844,715.931885,844,714.267273C844,710.409973,838.624023,699.546143,830.638855,687.26709C822.938171,675.425415,820.297668,673.790039,816.328613,678.404358C815.047852,679.893311,814,682.000916,814,683.087891C814,686.765869,816.885742,691.998657,821.815796,697.260559C827.751038,703.595337,828.440491,704.869141,829.977478,712.339478C831.888855,721.629456,836.554871,724.536011,841.545471,719.545471z"/>
    <path transform="matrix(-0.26455,0,0,-0.26455,-782.380737,-500.889862)" style="stroke:#000000;stroke-width:0.05mm;fill:none" d="M202.509521,704.25C203.790512,702.737488,206.674911,699.335144,208.919296,696.689209C213.977127,690.726379,214.31752,687.074341,210.095627,684.068115C208.49678,682.929626,205.626556,682,203.710281,682C200.71431,682,199.377365,682.910767,194.114655,688.53656C186.85643,696.295654,186.434875,698.634888,191.399994,703.599976C195.661102,707.861084,199.272217,708.072388,202.509521,704.25z"/>
    <path transform="matrix(-0.26455,0,0,-0.26455,-782.380737,-500.889862)" style="stroke:#000000;stroke-width:0.05mm;fill:none" d="M745.594421,697.820557C749.175293,694.679932,755.436462,690.768311,761.5,687.883545C767,685.266907,775.065186,680.858032,779.422607,678.08606C788.018982,672.617432,793.517334,670.525208,801.906372,669.53064C804.879883,669.178101,808.585876,668.231262,810.141907,667.426636C815.247864,664.786255,814.954834,657.982178,809.583618,654.46283C807.189819,652.894348,806.609863,652.985718,796.788147,656.478516C790.663635,658.656494,784.476624,661.664001,781.500061,663.910034C776.277405,667.850952,745.917908,683.56073,737.822449,686.511475C728.694275,689.838562,726.569824,694.723694,731.923096,700.076904C736.113708,704.267517,738.737305,703.834534,745.594421,697.820557z"/>
    <path transform="matrix(-0.26455,0,0,-0.26455,-782.380737,-500.889862)" style="stroke:#000000;stroke-width:0.05mm;fill:none" d="M178.428574,686.428589C181.267487,683.589661,180.191666,680.951172,173.533127,674.422485C169.334091,670.305298,165.87674,665.700195,163.674255,661.290833C158.112518,650.156189,151.042786,626.807617,151.020355,619.5C150.995682,611.454712,156.074509,602.624268,168.466644,589.166565C177.040756,579.855225,176.697845,581.291443,174.953079,562C174.381027,555.674988,173.197159,548.28949,172.32225,545.58783C171.447357,542.886108,165.228104,532.536072,158.501694,522.58783C138.625641,493.191315,137.960037,491.18573,140.434448,468.148407C141.348007,459.642853,142.056183,443.645203,142.123169,430C142.218582,410.560944,142.563522,405.219513,144.119263,399.090027C146.480957,389.785126,146.482773,386.81778,144.12854,383.9104C142.615616,382.042023,141.25087,381.589752,137.005051,381.549622C129.795914,381.481506,129.34079,382.410126,130.565048,394.68924C132.000595,409.087555,130.702499,458.826111,128.534317,472.5C125.812599,489.664825,127.599922,497.576569,137.316895,511.376892C139.688141,514.744629,143.117599,520.200012,144.937927,523.5C146.75824,526.799988,150.609558,532.424988,153.496414,536C160.065887,544.135498,161.496506,546.952393,163.037949,554.787354C165.903976,569.355042,162.250549,580.69751,150.407471,594C141.369583,604.151611,138.569427,610.2948,139.30011,618.368225C139.605331,621.740662,141.034836,628.099976,142.476791,632.5C143.918747,636.900024,146.677139,645.85968,148.606537,652.4104C150.53595,658.961182,152.740707,665.531677,153.506012,667.011597C157.487778,674.711548,171.476273,688,175.600021,688C176.291443,688,177.564285,687.292847,178.428574,686.428589z"/>
    <path transform="matrix(-0.26455,0,0,-0.26455,-782.380737,-500.889862)" style="stroke:#000000;stroke-width:0.05mm;fill:none" d="M726.59082,676.163025C729.290894,674.505127,734.070557,672.189209,737.212402,671.016541C745.324158,667.988892,771.333679,654.393738,773.415771,652.093079C775.734375,649.531067,775.104675,646.150391,771.859314,643.736694C769.515381,641.993408,768.784973,641.910767,765.359314,643.000977C763.236694,643.676514,757.469849,646.943848,752.544067,650.261719C747.618286,653.57959,740.193298,657.908264,736.044067,659.881042C729.484192,663,727.24762,663.535278,718.900208,663.984009C708.324219,664.55249,706,665.638489,706,670.011658C706,675.197021,712.900757,680.46991,718.59082,679.632385C720.290771,679.382141,723.890747,677.820923,726.59082,676.163025z"/>
    <path transform="matrix(-0.26455,0,0,-0.26455,-782.380737,-500.889862)" style="stroke:#000000;stroke-width:0.05mm;fill:none" d="M193.807983,668.322021C194.042374,665.903442,192.647598,662.626831,187.970932,654.609802C176.862762,635.567566,174.657974,624.471252,179.929398,614.138367C184.624008,604.936218,193.405121,603.635742,210.773849,609.570435C216.521027,611.53418,226.910522,615.374878,233.861633,618.105347C253.083099,625.655701,262.888275,628.009338,279.309326,629.014526C310.363495,630.915588,319.735291,632.612793,353.315582,642.416931C365.517029,645.979309,378.200012,649.5755,381.5,650.408508C390.290588,652.627441,411.97818,654.98053,423.735291,654.990906C438.196411,655.003723,484.829285,659.578796,495.5,662.031677C500.868683,663.265747,507.693481,663.234436,510.065735,661.964844C512.192444,660.82666,512.62085,657.028564,510.970367,653.94458C508.80127,649.891602,504.399506,648.715332,494.074585,649.429504C486.392883,649.960876,482.54776,649.686768,474.625061,648.042847C463.196259,645.671448,450.095581,644.47052,419.841461,643.020752C395.146362,641.837402,392.507507,641.437622,374,636.075928C331.851532,623.865417,320.363129,621.02478,309,620.004028C302.674988,619.435791,294.125,618.549072,290,618.033447C285.875,617.517761,278.899994,616.807617,274.5,616.4552C261.015564,615.375305,252.07515,613.070251,238,607.044739C230.574997,603.866089,219.007904,599.842896,212.295349,598.10437C205.582794,596.365784,198.213715,594.281067,195.919632,593.471619C187.775223,590.598145,186.303329,591.146851,177.737137,600.25C164.318954,614.509277,163.302002,619.724915,169.976563,640.051208C175.838226,657.901978,185.405273,672.438538,190.874496,671.804382C193.013977,671.556335,193.557007,670.911682,193.807983,668.322021z"/>
    <path transform="matrix(-0.26455,0,0,-0.26455,-782.380737,-500.889862)" style="stroke:#000000;stroke-width:0.05mm;fill:none" d="M626.534302,667.971558C627.279968,667.352661,628.413757,664.293396,629.053711,661.173157C629.693726,658.052917,631.80188,652.652222,633.738586,649.17157C637.259094,642.844543,637.259705,642.840942,636.755493,632.67157C636.478149,627.077209,636.644043,619.679016,637.124207,616.23114C638.935608,603.223633,647.160095,591,654.100525,591C658.047241,591,660.479126,592.333679,666.207153,597.639709C671.217285,602.28064,674.781128,603.173584,677.107239,600.370789C679.990906,596.896179,677.416321,586.205505,673.286987,584.507568C671.049377,583.587524,657.870605,580.932556,652.386292,580.296997C649.47522,579.959656,647.100159,580.418457,644.262085,581.866272C640.076294,584.001709,635,589.23877,635,591.421692C635,592.119202,633.102417,595.572205,630.783081,599.094971L626.566162,605.5L625.889221,622C625.516907,631.075012,624.706482,640.140076,624.088257,642.144653C623.470032,644.14917,620.497253,649.496216,617.482117,654.026917C611.630005,662.820557,611.306824,663.748901,613.25,666.18457C616.276733,669.978394,623.022766,670.885864,626.534302,667.971558z"/>
    <path transform="matrix(-0.26455,0,0,-0.26455,-782.380737,-500.889862)" style="stroke:#000000;stroke-width:0.05mm;fill:none" d="M693.777466,663.443298C697.3974,660.907776,696.698547,656.863831,691.889587,652.519165C682.370667,643.919434,672,643.8927,672,652.467896C672,659.982971,687.537842,667.813721,693.777466,663.443298z"/>
    <path transform="matrix(-0.26455,0,0,-0.26455,-782.380737,-500.889862)" style="stroke:#000000;stroke-width:0.05mm;fill:none" d="M597.198486,658.64563C599.003662,657.273804,605.614746,646.486389,609.238342,639C610.961487,635.440002,611.497559,632.202209,611.804626,623.5C612.16095,613.402527,612.014832,612.274353,610.023804,609.75C605.922485,604.549988,599,607.107727,599,613.823059C599,615.755249,599.484863,620.120483,600.077454,623.523499C601.35553,630.862549,600.094543,636.996399,596.586609,640.504333C595.335632,641.755249,591.564575,643.780579,588.206421,645.005005C580.554688,647.794983,578.282288,650.073669,579.567627,653.667786C581.395447,658.778992,592.789795,661.996033,597.198486,658.64563z"/>
    <path transform="matrix(-0.26455,0,0,-0.26455,-782.380737,-500.889862)" style="stroke:#000000;stroke-width:0.05mm;fill:none" d="M564.777466,648.443298C568.615601,645.755005,566.926697,639.640442,560.959167,634.619141C552.097595,627.162598,540.526062,637.084167,548.929138,644.933838C553.834595,649.516174,560.985107,651.099609,564.777466,648.443298z"/>
    <path transform="matrix(-0.26455,0,0,-0.26455,-782.380737,-500.889862)" style="stroke:#000000;stroke-width:0.05mm;fill:none" d="M729.316345,647.299622C733.237305,645.770935,736.380371,643.808838,748.342651,635.422302C751.006104,633.554993,755.056152,631.559509,757.342651,630.987854C767.491394,628.450745,770.668213,625.194946,767.585632,620.490295C765.35144,617.080505,759.332153,615.635742,753.489563,617.106934C749.750061,618.048584,747.818237,619.466187,743.193176,624.662537C736.068848,632.666931,728.098694,637,720.5,637C712.655762,637,704.408813,632.417786,694.295471,622.440063C685.30188,613.5672,683.24176,612.441956,680.064697,614.667236C678.419373,615.819702,678,617.191589,678,621.421875C678,628.604736,680.216248,631.243347,688.589966,634.029907C693.662292,635.717896,696.585388,637.551453,701.432739,642.085938C704.884399,645.314819,708.78656,648.41449,710.104248,648.974121C713.238647,650.305298,724.016296,649.365967,729.316345,647.299622z"/>
    <path transform="matrix(-0.26455,0,0,-0.26455,-782.380737,-500.889862)" style="stroke:#000000;stroke-width:0.05mm;fill:none" d="M662.586487,641.504395C665.050049,639.040833,665.073608,638.857971,664.422668,627.254395C663.56012,611.878235,661.62793,607.87262,655.781372,609.340027C651.733093,610.356079,650.792053,614.261292,651.166504,628.491394C651.460388,639.65918,651.730713,641.333801,653.441101,642.582703C656.348022,644.705139,659.791809,644.299133,662.586487,641.504395z"/>
    <path transform="matrix(-0.26455,0,0,-0.26455,-782.380737,-500.889862)" style="stroke:#000000;stroke-width:0.05mm;fill:none" d="M797.299011,641.933899C802.811462,640.403137,803.755127,637.626038,800.966003,631.142517C798.928467,626.40625,793.20575,620,791.012268,620C786.531433,620,782,625.431519,782,630.802429C782,634.329773,785.661316,640.016113,789.030029,641.720703C792.046875,643.247253,792.525085,643.259583,797.299011,641.933899z"/>
    <path transform="matrix(-0.26455,0,0,-0.26455,-782.380737,-500.889862)" style="stroke:#000000;stroke-width:0.05mm;fill:none" d="M526.204529,639.959961C528.242004,639.394104,530.829468,637.760925,531.954529,636.330688C534.475342,633.125977,534.694458,626.821228,532.352539,624.877625C528.507263,621.68634,513.775146,625.364868,511.065186,630.192932C509.800903,632.445435,509.780151,633.220703,510.926819,635.36322C512.381531,638.081421,517.267517,640.943848,520.5,640.97168C521.599976,640.981079,524.167053,640.525879,526.204529,639.959961z"/>
    <path transform="matrix(-0.26455,0,0,-0.26455,-782.380737,-500.889862)" style="stroke:#000000;stroke-width:0.05mm;fill:none" d="M495,634.70575C498.458099,632.956238,498.414337,628.398499,494.914337,625.7854C492.96347,624.328857,489.158234,623.53595,479.414337,622.555786C472.311462,621.841248,463.201233,620.24408,459.169434,619.00647C452.696228,617.019409,451.185516,616.887451,446.252655,617.878113C438.708282,619.39325,432.90509,619.289307,426.063416,617.516418C422.221375,616.520874,416.417603,616.10968,408.419067,616.266418L396.5,616.5L386.939514,612.30896C379.916687,609.230347,374.209869,607.5849,365.439514,606.109802C358.011932,604.860535,348.587311,602.337402,340.5,599.433044C327.538177,594.778137,327.450073,594.762329,310.5,594.054565C297.525421,593.512817,292.552826,592.922607,289.5,591.561829C283.110229,588.713623,279.753723,588.227966,272.9198,589.162537C264.370514,590.331726,257.316406,588.794739,251.259033,584.442932C243.883499,579.144104,239.877228,577.248962,234.476532,576.504211C225.673172,575.290283,211.606628,571.801514,207.834213,569.896484C201.093079,566.492249,199.567688,563.056702,199,550C198.503311,538.576294,198.470139,538.447693,194,530.619385C191.524994,526.285034,185.41304,516.609985,180.417862,509.119354C169.390732,492.583344,169.393402,492.588257,167.477188,485.331818C166.126862,480.218292,166.078003,475.743408,167.080505,449C168.219223,418.62265,168.235443,418.474426,171.111908,412.137726C172.700363,408.638489,174,404.545715,174,403.042725C174,395.77948,162.241562,394.006439,158.987076,400.778931C158.115952,402.591705,157.404449,411.17749,156.855591,426.5C156.402451,439.149994,155.522598,456.924988,154.90036,466C153.314392,489.130432,153.357559,489.26062,171.532074,516.158813C186.01741,537.597046,187.890579,542.610657,189.579361,564.462952C190.565323,577.220947,190.665329,577.297546,214.87439,583.824646C227.719955,587.288025,237.829422,590.708191,244.87439,593.974121C256.690887,599.452087,260.619965,600.496399,273,601.449829C277.674988,601.809875,285.549988,602.725891,290.5,603.485413C295.450012,604.244934,303.774994,605.151245,309,605.499451C321.332672,606.32135,327.503296,607.480774,338.5,611.042358C343.450012,612.645569,352.450012,615.123413,358.5,616.548706C364.549988,617.97406,375.015381,620.915833,381.756378,623.085999C395.004425,627.351135,396.406952,627.508301,443.5,630.006165C456.897552,630.716736,465.5961,631.720032,473,633.408569C484.992798,636.143677,491.409821,636.522034,495,634.70575z"/>
    <path transform="matrix(-0.26455,0,0,-0.26455,-782.380737,-500.889862)" style="stroke:#000000;stroke-width:0.05mm;fill:none" d="M583.288391,630.987793C586.625671,628.362671,587.504211,624.142456,585.641357,619.684082C583.177246,613.78656,576.67804,612.074951,572.314453,616.174316C568.04303,620.187073,569.92804,628.260803,575.89325,631.503113C579.394043,633.405884,580.294067,633.34314,583.288391,630.987793z"/>
    <path transform="matrix(-0.26455,0,0,-0.26455,-782.380737,-500.889862)" style="stroke:#000000;stroke-width:0.05mm;fill:none" d="M726.988953,620.505737C732.381042,617.717346,734.289185,613.145325,731.59729,609.463928C730.490662,607.9505,728.480103,607.419678,722.071411,606.94873C712.658325,606.25708,709.803406,604.656982,706.077698,597.984863C701.985901,590.657227,700.946777,583.97052,701.649231,569.488098C702.448792,553.003723,701.419006,549.207214,692.15918,534.5C688.349976,528.450012,682.944641,519.875427,680.147339,515.445435C673.065491,504.230255,672,501.251343,672,492.666992C672,486.648712,671.60553,484.768219,669.883972,482.57962C665.035583,476.415863,658,482.565033,658,492.96637C658,502.297333,660.282776,508.006927,666.958862,515.373718C671.84021,520.760071,673.267334,523.182068,675.012207,529.041077C676.735046,534.825989,678.16864,537.288513,682.65332,542.166809C685.689575,545.469482,688.809692,549.693542,689.586914,551.553711C691.431702,555.968994,691.378479,562.75061,689.440369,570.230042C687.973938,575.889343,687.997742,576.644531,689.8396,582.87439C690.916931,586.518494,692.112305,591.74408,692.495972,594.486816C693.481079,601.529053,694.83075,603.628052,703.209167,611.147949C715.402466,622.091858,720.240234,623.995605,726.988953,620.505737z"/>
    <path transform="matrix(-0.26455,0,0,-0.26455,-782.380737,-500.889862)" style="stroke:#000000;stroke-width:0.05mm;fill:none" d="M555.634521,615.873596C558.938354,612.769836,562,606.009949,562,601.819153C562,594.318604,555.238831,590.469482,550.702271,595.387268C547.466614,598.894775,541.999146,610.081482,541.999634,613.193298C542.000427,619.005188,550.518677,620.679688,555.634521,615.873596z"/>
    <path transform="matrix(-0.26455,0,0,-0.26455,-782.380737,-500.889862)" style="stroke:#000000;stroke-width:0.05mm;fill:none" d="M514.738831,611.882507C526.162903,608.765686,527.804138,607.670166,530.773621,601.178894C532.202454,598.055481,535.11908,592.799988,537.255005,589.5C540.243164,584.88324,541.009155,582.846619,540.577393,580.665833C539.288635,574.155762,533.072327,569.319336,528.274719,571.094055C525.630127,572.072388,525.170532,573.882202,524.775085,584.875671C524.475281,593.208984,524.454285,593.26825,520.625549,596.577942C516.086792,600.501404,508.108826,602.527344,501.130737,601.528503C498.583832,601.16394,492.450012,599.587097,487.5,598.024414C471.791412,593.06543,464.40387,592.927795,461.383179,597.537964C457.518494,603.436157,462.916656,606.873962,477.93924,608.081543C484.499023,608.608826,491.382721,609.88092,496.016541,611.422058C505.219482,614.482849,505.208893,614.482605,514.738831,611.882507z"/>
    <path transform="matrix(-0.26455,0,0,-0.26455,-782.380737,-500.889862)" style="stroke:#000000;stroke-width:0.05mm;fill:none" d="M785.428589,608.428589C787.558289,606.298889,787.402222,601.171936,785.092468,597.384033C783.276062,594.405273,782.847107,594.247437,775.346252,593.797791C769.477539,593.445984,766.185181,592.656067,762.283264,590.663696C754.760742,586.822693,747.904114,586.942017,743.861755,590.984375C741.425049,593.421143,740.934509,594.658386,741.188721,597.727295C741.64447,603.230103,744.445251,604.295959,753.470947,602.401428C761.800842,600.652893,764.498962,601.123901,770.754822,605.418701C773.364685,607.210388,776.174988,608.93866,777,609.259216C779.884033,610.379883,783.870056,609.987061,785.428589,608.428589z"/>
    <path transform="matrix(-0.26455,0,0,-0.26455,-782.380737,-500.889862)" style="stroke:#000000;stroke-width:0.05mm;fill:none" d="M441.805756,604.388855C448.536926,603.042603,451.284027,596.362122,446.75,592.365173C441.813354,588.013306,435.977692,586.925964,431.098846,589.448914C425.810822,592.183411,423.177277,599.242371,426.436066,601.94696C429.49704,604.487305,436.082214,605.533569,441.805756,604.388855z"/>
    <path transform="matrix(-0.26455,0,0,-0.26455,-782.380737,-500.889862)" style="stroke:#000000;stroke-width:0.05mm;fill:none" d="M409.11908,601.104675C411.125641,599.479858,411.317871,598.80603,410.465942,596.383545C409.139069,592.610657,403.573364,589.091736,391.5,584.392334C382.042542,580.711182,380.903198,580.5,370.5,580.5L359.5,580.5L351.597565,575.789246C341.864655,569.987366,335.424072,568.428223,322.5,568.745422C314.353577,568.945374,311.381866,568.590759,306.46759,566.832397C299.101532,564.196777,295.703583,564.811279,292.95163,569.276855C287.951691,577.390198,292.834534,579.996277,313.039886,579.998474C329.159454,580.000183,333.85498,580.879883,347.175537,586.393982C355.181824,589.708191,358.793152,590.538513,375.974915,593.015564C380.990723,593.738708,385.760956,595.275757,390.474915,597.687744C401.798737,603.481812,405.374176,604.137085,409.11908,601.104675z"/>
    <path transform="matrix(-0.26455,0,0,-0.26455,-782.380737,-500.889862)" style="stroke:#000000;stroke-width:0.05mm;fill:none" d="M590.139221,600.088379C592.010986,598.572693,592.5,597.208374,592.5,593.50177C592.5,589.619446,592.024292,588.417664,589.694214,586.413391C585.627686,582.915527,580.688171,583.157959,576.799744,587.046387C574.167603,589.678528,573.833557,590.596375,574.342896,593.796387C575.503418,601.086792,584.487122,604.665161,590.139221,600.088379z"/>
    <path transform="matrix(-0.26455,0,0,-0.26455,-782.380737,-500.889862)" style="stroke:#000000;stroke-width:0.05mm;fill:none" d="M618.332581,593.174744C621.938293,589.411194,623.332825,584.462341,621.726746,581.129944C618.230835,573.876343,605,578.872864,605,587.446655C605,595.181824,613.082764,598.654419,618.332581,593.174744z"/>
    <path transform="matrix(-0.26455,0,0,-0.26455,-782.380737,-500.889862)" style="stroke:#000000;stroke-width:0.05mm;fill:none" d="M728.927429,589.365112C731.422363,586.193298,731.566528,581.769409,729.366882,575.875732C728.296387,573.007324,727.601196,567.271545,727.348877,559.224915C726.819153,542.333801,725.255859,538.209656,710.27002,514.168701C702.272522,501.338806,701.387207,499.254608,697.880066,485C694.135742,469.781433,687.253967,455.565613,682.543701,453.319458C676.269897,450.327667,667,454.262634,667,459.917603C667,463.266937,669.008606,465.111542,675.099304,467.355682C683.194641,470.33844,685.361389,474.371887,686.410645,488.412231C687.131287,498.055573,688.83429,501.952545,700.282166,520.155029C715.60968,544.526306,716.387207,546.977722,716.453979,571.142883C716.495239,586.066711,716.696777,588.003418,718.404968,589.892883C721.185608,592.968506,726.294556,592.71228,728.927429,589.365112z"/>
    <path transform="matrix(-0.26455,0,0,-0.26455,-782.380737,-500.889862)" style="stroke:#000000;stroke-width:0.05mm;fill:none" d="M509.25,585.26709C512.983032,581.902954,510.860474,576.855713,504.761414,574.593567C499.127167,572.503906,484.154419,570.005005,477.119019,569.980164C468.650177,569.950317,458.258911,568.20813,453.198364,565.969604C450.444,564.751221,444.742737,560.12262,438.590454,554.110046C428.177948,543.934021,425.550507,542,422.138336,542C419.834808,542,416,546.422546,416,549.079102C416,551.962708,420.086945,555.94104,426.016205,558.829102C429.989471,560.764465,432.685577,563.078308,435.806183,567.231201C439.365692,571.96814,441.44754,573.603333,447.806427,576.656738C455.342438,580.275391,455.766235,580.355469,468.5,580.567566C480.512177,580.767578,482.297852,581.057373,492,584.380859C502.80188,588.081116,505.948059,588.242737,509.25,585.26709z"/>
    <path transform="matrix(-0.26455,0,0,-0.26455,-782.380737,-500.889862)" style="stroke:#000000;stroke-width:0.05mm;fill:none" d="M420.447205,582.020081C424.195618,580.59491,425.71225,576.735962,423.719299,573.694397C421.480103,570.276917,416.567413,568.420471,413.482513,569.825989C408.807404,571.956116,409.30954,579.983826,414.241882,581.96582C417.218292,583.161865,417.438995,583.163757,420.447205,582.020081z"/>
    <path transform="matrix(-0.26455,0,0,-0.26455,-782.380737,-500.889862)" style="stroke:#000000;stroke-width:0.05mm;fill:none" d="M780.777466,579.443298C783.590942,577.472656,783.613892,574.782532,780.973022,556.5C777.715332,533.947205,774.248474,523.450256,761.948059,498.896332C749.4953,474.038239,739.443848,447.011902,735.951782,428.99762C734.874268,423.439209,733.548584,412.503387,733.005798,404.695709C731.371826,381.191559,730.028076,372.432465,725.991211,358.970673C722.449341,347.159607,719.572327,331.249451,717.180786,310.247711C716.66394,305.708954,715.649536,301.282654,714.926575,300.411499C712.209106,297.137177,703.911377,301.232666,702.589172,306.500793C702.226868,307.944336,703.177551,311.557861,705.121765,316.126587C708.009949,322.913696,708.28125,324.569275,708.884399,339.083252L709.534424,354.725311L713.095032,360.11264C718.386108,368.118347,719.040771,370.910278,719.986023,389.5C720.461426,398.850006,721.089417,407.174988,721.381531,408C721.673706,408.825012,722.406372,415.575012,723.009705,423C723.814331,432.901306,724.788391,438.365997,726.663879,443.5C728.070313,447.350006,731.85437,458.032837,735.072876,467.239655C739.120239,478.817383,743.992371,489.918549,750.87262,503.239655C761.282532,523.39447,765.475464,534.678284,768.540466,550.786011C770.062256,558.783508,770.136658,561.027588,769.076843,566.95813C767.633179,575.036194,768.436707,577.414246,773.328735,579.542236C777.42218,581.322876,778.106995,581.313782,780.777466,579.443298z"/>
    <path transform="matrix(-0.26455,0,0,-0.26455,-782.380737,-500.889862)" style="stroke:#000000;stroke-width:0.05mm;fill:none" d="M567.599976,576.599976C573.413086,570.786926,571.562378,565.465393,562.303711,561.370789C554.249329,557.808716,551.569275,555.462463,543.437561,544.854187C534.497498,533.191345,528.772827,527.998047,520.209839,523.782532C513.982178,520.716675,513.112244,520.57019,497.372162,519.937073C481.588776,519.302185,480.776733,519.164612,474.461365,516.055603C466.632385,512.201416,461.767548,506.547272,456.010925,494.611633C451.821716,485.925842,450.063629,479.785858,450.024445,473.704559C449.979065,466.657745,442.800537,462.649689,437.222504,466.556702C434.079071,468.758453,434.396851,472.412933,438.504883,481.304199C440.432587,485.47644,443.383789,492.616638,445.063141,497.171295C448.630371,506.8461,450.967285,510.885712,456.451965,516.858215C466.210052,527.484192,472.533264,529.930603,493.04303,531.015076C516.780334,532.270203,523.530029,535.309448,531.180908,548.187866C533.793396,552.585266,536.895752,556.307068,539.282532,557.907104C546.719666,562.892578,549.708069,565.975098,552.887756,571.940735C557.760132,581.082275,561.829102,582.370911,567.599976,576.599976z"/>
    <path transform="matrix(-0.26455,0,0,-0.26455,-782.380737,-500.889862)" style="stroke:#000000;stroke-width:0.05mm;fill:none" d="M274.572296,572.940002C275.473541,572.192017,277.310577,569.087036,278.654541,566.040039C280.252594,562.416992,283.12262,558.596863,286.948853,555C291.875153,550.369019,292.910645,548.789001,293.502625,545C293.889343,542.525024,295.734436,536.990723,297.602875,532.701538C301.740601,523.203003,302.003601,518.703674,298.553284,516.442932C293.287201,512.992493,288.731628,518.220093,284.855957,532.161072C283.733795,536.19751,281.253754,542.786377,279.344727,546.803101C275.572571,554.739929,273.196899,556.791504,264.5,559.622742C253.739182,563.125916,252.107605,568.936157,260.594696,573.530029C263.994995,575.370544,272.053558,575.030334,274.572296,572.940002z"/>
    <path transform="matrix(-0.26455,0,0,-0.26455,-782.380737,-500.889862)" style="stroke:#000000;stroke-width:0.05mm;fill:none" d="M753.137817,572.862183C755.115845,570.884155,755.233276,570.005859,754.708496,561.112183C753.604492,542.401306,748.648499,528.636597,732.524963,499.5C729.036865,493.196808,725.475708,484.694153,722.891846,476.5C720.637207,469.350006,716.77655,458.850159,714.312561,453.166992C709.908875,443.010071,709.808411,442.532928,708.414795,425.166992C707.63501,415.450165,706.718994,406.825012,706.379211,406C706.039368,405.174988,705.475403,397.197876,705.125916,388.273041C704.548401,373.523438,704.296814,371.852356,702.362793,369.918365C699.625732,367.181305,696.539246,368.067902,693.934753,372.339294C691.261108,376.723999,691.417847,385.752808,694.509949,405.480713C697.467102,424.347656,697.669983,427.264618,696.667236,436.5C695.967224,442.946838,696.111816,443.855591,698.497253,448C704.184204,457.88028,708.079651,467.265686,710.996521,478.114594C715.151489,493.568359,715.918152,495.330627,725.116455,510.572174C738.498779,532.746643,741.969788,542.733459,741.988159,559.115112C741.998413,568.329163,742.27356,570.078064,744.072571,572.365112C746.603821,575.58313,750.218689,575.781311,753.137817,572.862183z"/>
    <path transform="matrix(-0.26455,0,0,-0.26455,-782.380737,-500.889862)" style="stroke:#000000;stroke-width:0.05mm;fill:none" d="M600.802612,569.302612C608.404846,565.456238,611,562.770081,611,558.747742C611,552.088562,606.09491,551.248596,595.343201,556.066528C583.984436,561.156555,581.173157,565.631226,586.634888,569.927429C590.187073,572.721558,594.413513,572.535156,600.802612,569.302612z"/>
    <path transform="matrix(-0.26455,0,0,-0.26455,-782.380737,-500.889862)" style="stroke:#000000;stroke-width:0.05mm;fill:none" d="M637.684875,569.933411C642.265503,568.197815,645,565.010742,645,561.407471C645,556.756226,644.146851,555.127319,640.805847,553.399597C636.954224,551.407837,632.817444,552.343384,628.42572,556.199341C624.100769,559.996765,623.721924,564.812805,627.454529,568.545471C630.103699,571.19458,633.234985,571.619385,637.684875,569.933411z"/>
    <path transform="matrix(-0.26455,0,0,-0.26455,-782.380737,-500.889862)" style="stroke:#000000;stroke-width:0.05mm;fill:none" d="M400.003387,567.150452C404.797943,562.355896,405.17511,555.034912,400.907043,549.608948C399.181671,547.415527,398.090302,546.951355,395.23465,547.196472C389.933868,547.651489,387.712006,551.238464,387.594238,559.531189C387.511475,565.360046,387.787476,566.401489,389.860779,568.084106C393.198456,570.792786,396.681702,570.472168,400.003387,567.150452z"/>
    <path transform="matrix(-0.26455,0,0,-0.26455,-782.380737,-500.889862)" style="stroke:#000000;stroke-width:0.05mm;fill:none" d="M674.545471,567.545471C677.700439,564.390503,677.767883,559.439087,674.717834,554.897888C671.552063,550.184387,666.461548,549.699768,662.075623,553.694275C654.690735,560.420227,659.219055,569.353455,670.295471,569.90979C671.282959,569.959412,673.195435,568.895447,674.545471,567.545471z"/>
    <path transform="matrix(-0.26455,0,0,-0.26455,-782.380737,-500.889862)" style="stroke:#000000;stroke-width:0.05mm;fill:none" d="M372.139221,565.08783C375.419617,562.430847,375.332825,555.047668,371.979279,551.477966C367.624817,546.842834,361.759735,548.77124,358.54776,555.894043C356.828522,559.706665,356.821442,560.078491,358.421448,562.520447C361.434143,567.118408,368.093475,568.364746,372.139221,565.08783z"/>
    <path transform="matrix(-0.26455,0,0,-0.26455,-782.380737,-500.889862)" style="stroke:#000000;stroke-width:0.05mm;fill:none" d="M518.799988,561.799988C521.747742,558.852234,518.95575,552.46344,513.348022,549.324524C508.537811,546.632019,506.075348,546.225403,487.5,545.056396C479.071045,544.52594,470.625397,543.445618,468.220734,542.590271C461.930847,540.352844,454.355743,534.995361,447,527.581848C439.901917,520.427979,435.897675,514.223999,433.393097,506.5C432.501373,503.75,429.841217,497,427.481598,491.5C425.121979,486,422.685425,479.603973,422.067017,477.286621C421.448608,474.969238,419.955414,472.381744,418.74881,471.536621C415.171875,469.031219,404.818604,469.587219,392.923431,472.923462C387.190552,474.531372,379.444702,476.554047,375.710419,477.418274C362.929352,480.37619,360.45285,483.172577,364.04425,490.591431C366.370117,495.395996,369.83844,497.39212,373.464935,496.013336C374.825012,495.496216,378.618011,492.609161,381.893829,489.597595C390.755066,481.451233,400.18927,479.086212,408.595459,482.90387C414.089325,485.398926,415.741089,488.461853,422.398773,508.5C425.505341,517.849976,428.823975,526.449219,429.773529,527.609375C430.723083,528.769531,433.975006,531.536255,437,533.757568C440.024994,535.978882,444.975006,540.353638,448,543.479187C455.71106,551.446594,461.096252,553.962769,472.889191,555.108337C496.77774,557.428894,499.945892,557.931885,505.60199,560.301941C512.18158,563.05896,516.994751,563.605286,518.799988,561.799988z"/>
    <path transform="matrix(-0.26455,0,0,-0.26455,-782.380737,-500.889862)" style="stroke:#000000;stroke-width:0.05mm;fill:none" d="M242.800003,560.799988C244.803162,558.796814,244.226181,553.557983,241.75,551.266235C239.142487,548.853027,221.915283,542,218.456345,542C213.247208,542,211.149384,550.791809,215.25,555.437622C219.063873,559.758484,239.804489,563.795532,242.800003,560.799988z"/>
    <path transform="matrix(-0.26455,0,0,-0.26455,-782.380737,-500.889862)" style="stroke:#000000;stroke-width:0.05mm;fill:none" d="M344.22345,554.25C345.066803,553.287476,347.9888,548.224976,350.716766,543L355.676666,533.5L356.323212,521C356.95047,508.873413,356.892181,508.350647,354.372192,503.5C352.943542,500.75,350.927734,496.073975,349.892609,493.108856C347.344604,485.809937,346.489563,485,341.332092,485C337.969391,485,336.320679,485.588409,334.454559,487.454559C330.466858,491.44223,331.188721,494.662231,337.370483,500.46167C344.869751,507.497131,346.355804,510.783203,345.765991,519.026611C345.375458,524.484863,344.362946,527.542236,340.144836,536.000427C334.569641,547.17981,333.518524,553.03772,336.75,554.919922C339.415894,556.472656,342.519684,556.194397,344.22345,554.25z"/>
    <path transform="matrix(-0.26455,0,0,-0.26455,-782.380737,-500.889862)" style="stroke:#000000;stroke-width:0.05mm;fill:none" d="M319.853638,552.5448C320.598175,551.816895,321.555298,548.05127,321.980591,544.176758C322.566162,538.842529,323.655762,535.519592,326.468719,530.489563C331.345825,521.768433,332.06424,519.058044,330.490662,515.315613C328.924194,511.590118,326.192566,510.766327,322.053131,512.771118C318.226563,514.62439,316.260742,518.189636,314.883057,525.774902C314.311157,528.923706,312.243622,535.06427,310.288574,539.420532C307.467926,545.705505,306.919678,547.869385,307.633545,549.899292C309.29953,554.636475,316.189026,556.127991,319.853638,552.5448z"/>
    <path transform="matrix(-0.26455,0,0,-0.26455,-782.380737,-500.889862)" style="stroke:#000000;stroke-width:0.05mm;fill:none" d="M585.889648,545.148315C598.393555,539.156738,600,537.778809,600,533.044983C600,525.414185,594.926697,524.948914,585.879272,531.75C580.471252,535.815247,578.896118,536.5,574.952332,536.5C568.630432,536.5,564.337646,533.045898,559.973145,524.447144C555.149353,514.943481,553.676453,513.365784,546.034912,509.517578C542.318298,507.645905,533.734192,502.938782,526.959167,499.057281C520.184143,495.175781,513.934265,491.996216,513.070496,491.991608C512.206726,491.986969,508.575012,492.731293,505,493.645599C496.73584,495.759186,490.586487,494.931885,485.118408,490.970825C479.959717,487.233856,478.03714,483.450684,476.814972,474.631531C476.276031,470.742371,475.434052,466.811035,474.943909,465.895203C473.671967,463.518555,469.374176,462.708771,466.201355,464.247986C463.783936,465.420715,463.508545,466.080963,463.58139,470.529236C463.681244,476.626984,468.887512,490.362823,473.34375,496.285522C475.131073,498.661011,478.59317,501.53241,481.277985,502.866028C485.512085,504.969238,487.316345,505.218689,497.519501,505.111542C511.263184,504.967255,516.134033,505.934113,525.907654,510.746613C537.704529,516.555359,544.076477,521.877075,552.40918,532.880005C561.827087,545.316101,567.343689,549.749695,573.632263,549.936584C574.804993,549.971497,580.320862,547.816711,585.889648,545.148315z"/>
    <path transform="matrix(-0.26455,0,0,-0.26455,-782.380737,-500.889862)" style="stroke:#000000;stroke-width:0.05mm;fill:none" d="M264.356354,543.149902C266.182831,541.243469,268.2117,536.71698,270.484131,529.478455C272.850891,521.939392,275.262512,516.635559,278.434875,511.992645C282.267944,506.382751,283.250549,503.917877,284.645081,496.414154C287.309448,482.077667,287.128906,480.372131,282.135742,472.708344C275.604614,462.68399,273.145569,455.694397,271.981445,443.845825C270.701385,430.817383,269.654419,425.692505,267.015045,419.535095C263.220917,410.683716,255.166031,398.429413,247.268417,389.493469C242.995789,384.659119,237.620148,378.382507,235.32254,375.545441C229.139481,367.910614,224.49379,366.248016,220.314453,370.174316C217.555603,372.766113,217.194229,378.404572,219.569611,381.795929C220.432892,383.028442,223.398499,385.181732,226.159821,386.580994C233.60878,390.355652,238.909058,395.77124,247.390396,408.273346C257.172241,422.692535,259.032593,427.991486,259.948395,444.043152C260.723328,457.626282,260.954987,458.333191,270.088562,474.986877C274.010468,482.137909,274.178192,482.799957,273.827484,489.745148C273.489807,496.432159,272.899414,498.120972,266.481537,510.75827C262.643219,518.316223,257.739655,527.367371,255.584732,530.871948C249.714005,540.419556,250.5811,546,257.935364,546C260.687347,546,262.32019,545.275269,264.356354,543.149902z"/>
    <path transform="matrix(-0.26455,0,0,-0.26455,-782.380737,-500.889862)" style="stroke:#000000;stroke-width:0.05mm;fill:none" d="M625.032715,542.483093C631.41748,539.181396,632.626465,530.211121,627.256104,525.986816C619.734314,520.07019,608.898987,533.539124,614.977356,541.25C617.446045,544.381714,620.610718,544.769775,625.032715,542.483093z"/>
    <path transform="matrix(-0.26455,0,0,-0.26455,-782.380737,-500.889862)" style="stroke:#000000;stroke-width:0.05mm;fill:none" d="M657.09259,541.452087C663.042725,538.375183,662.92804,530.641541,656.856506,525.532715C652.943481,522.240112,650.510437,522.335754,646.923096,525.923096C644.47113,528.375061,644,529.65271,644,533.850525C644,538.065674,644.415466,539.181641,646.634888,540.927429C649.773071,543.395935,653.018799,543.558777,657.09259,541.452087z"/>
    <path transform="matrix(-0.26455,0,0,-0.26455,-782.380737,-500.889862)" style="stroke:#000000;stroke-width:0.05mm;fill:none" d="M383.050018,537.160583C385.833252,534.90686,386.00351,529.259766,383.543396,520.797302C381.375885,513.341309,378.571381,509.795624,375.157135,510.194763C371.019165,510.678528,369.894653,514.126099,370.217072,525.339844C370.47464,534.298096,370.711487,535.350769,372.860779,537.089844C375.846161,539.505371,380.117706,539.535034,383.050018,537.160583z"/>
    <path transform="matrix(-0.26455,0,0,-0.26455,-782.380737,-500.889862)" style="stroke:#000000;stroke-width:0.05mm;fill:none" d="M411.545441,533.545471C412.895447,532.195435,414,530.540955,414,529.868774C414,529.196594,412.391876,523.663635,410.426422,517.573303C408.460968,511.483002,406.323456,504.714355,405.676422,502.531891C403.490875,495.160004,395.605286,493.856354,392.030945,500.276001C390.570526,502.898956,390.670868,503.339081,394.209076,509.830811C396.249084,513.573669,398.185089,518.630371,398.511322,521.067993C399.821991,530.861267,400.174011,532.084167,402.234619,534.003967C405.116577,536.688904,408.572174,536.518738,411.545441,533.545471z"/>
    <path transform="matrix(-0.26455,0,0,-0.26455,-782.380737,-500.889862)" style="stroke:#000000;stroke-width:0.05mm;fill:none" d="M240.297745,529.586975C241.508987,528.259766,243.357849,524.997253,244.406326,522.336975C245.454803,519.676636,249.021149,512.621765,252.331543,506.659546C260.16391,492.552948,260.780121,487.897003,255.948853,479.328003C246.126434,461.906433,246,461.547211,246,451.063263C246,439.883209,244.59549,431.079498,242.006577,426.031738C239.002716,420.174927,226.481567,403.956543,223.390549,401.918793C218.672043,398.808105,214.782776,399.766083,212.163345,404.684265C209.379532,409.911072,212.225342,414.628784,220.53273,418.558807C231.438705,423.71817,234.234955,430.585266,233.815994,451.180267C233.513092,466.070313,232.591919,463.125732,242.437286,478.738922C249.131042,489.354156,248.104706,496.773468,238.532593,506.965302C233.109573,512.739441,232.035416,514.51239,231.032059,519.345581C229.792053,525.318604,230.183975,528.041138,232.636932,530.49408C234.832352,532.689514,237.78537,532.339844,240.297745,529.586975z"/>
    <path transform="matrix(-0.26455,0,0,-0.26455,-782.380737,-500.889862)" style="stroke:#000000;stroke-width:0.05mm;fill:none" d="M214.407349,528.397156C216.559357,527.57135,218.234375,520.766296,217.391525,516.273438C216.889755,513.598816,214.844528,510.618347,209.99498,505.49469C205.1371,500.362244,201.959198,495.728058,198.450134,488.659393L193.608261,478.905945L192.718628,457.261963L191.828979,435.61795L195.91449,427.814117C198.161514,423.522003,200,419.393646,200,418.639984C200,417.886353,199.067337,416.084045,197.927414,414.634857C196.342758,412.62027,194.966751,412,192.082413,412C183.719421,412,182.231491,417.478638,181.360718,451.477875C180.550705,483.104034,180.573853,483.20993,191.985809,500.104645C196.297073,506.487213,201.262817,514.587219,203.020813,518.104675C207.837646,527.74231,210.304062,529.971741,214.407349,528.397156z"/>
    <path transform="matrix(-0.26455,0,0,-0.26455,-782.380737,-500.889862)" style="stroke:#000000;stroke-width:0.05mm;fill:none" d="M581.032715,518.483093C585.16156,516.347961,586.617371,512.894836,587.981934,502C588.636353,496.774994,589.784485,487.549988,590.533264,481.5C591.282043,475.450012,592.818359,468.13266,593.947327,465.239288C597.589783,455.904083,595.954468,452,588.401733,452C582.791382,452,581,454.430115,581,462.041016C581,465.118805,580.294617,470.012238,579.432495,472.915344C578.241699,476.92514,578.029541,480.2966,578.5495,486.943909C579.298584,496.518982,579.086853,497.248779,573.397766,504.701874C569.275513,510.102356,568.983765,514.074707,572.454529,517.545471C575.302795,520.393677,576.982849,520.577332,581.032715,518.483093z"/>
    <path transform="matrix(-0.26455,0,0,-0.26455,-782.380737,-500.889862)" style="stroke:#000000;stroke-width:0.05mm;fill:none" d="M611.067139,515.30127C615.065247,512.939514,615.99884,509.405609,616.007568,496.600769C616.020752,477.17569,618.39447,468.515015,625.856018,460.667572C631.25824,454.985992,634.397461,453.710724,644.711426,453.00769C655.372742,452.280975,658,450.770569,658,445.368073C658,442.910339,657.336304,441.611206,655.448792,440.374512C653.210144,438.907654,651.923584,438.840668,644.945496,439.827484C636.62085,441.00473,632.440308,442.661591,627.601013,446.701508C626.006531,448.032593,622.181519,450.395081,619.101013,451.951477C616.020447,453.507904,612.717468,455.647949,611.761108,456.707153C609.757202,458.926453,605.45166,477.210358,604.509949,487.5C604.157532,491.350006,603.203491,497.941223,602.389771,502.147156C600.803833,510.344238,601.240845,514.451843,603.861633,515.982361C606.232666,517.367065,607.824768,517.216553,611.067139,515.30127z"/>
    <path transform="matrix(-0.26455,0,0,-0.26455,-782.380737,-500.889862)" style="stroke:#000000;stroke-width:0.05mm;fill:none" d="M642.685547,512.825684C645.445251,510.233063,645.616089,506.927002,643.386475,499.257416C641.273315,491.988373,641.996765,486.052734,645.629211,480.857605C653.055115,470.237152,653.3255,468.834656,648.31488,466.929626C646.222168,466.133972,644.572571,466.273407,641.30188,467.522522C633.394043,470.542542,631.495605,475.535034,630.4729,496C629.829285,508.879578,629.898193,509.626373,631.971741,512.25C634.696899,515.69812,639.361206,515.948792,642.685547,512.825684z"/>
    <path transform="matrix(-0.26455,0,0,-0.26455,-782.380737,-500.889862)" style="stroke:#000000;stroke-width:0.05mm;fill:none" d="M311.961365,503.519989C315.503296,501.688385,319,497.36618,319,494.819672C319,491.984619,314.721619,488.226013,310.618286,487.456207C305.755737,486.544006,302.345642,487.542847,300.451111,490.434296C298.272827,493.758728,298.319153,500.590179,300.53656,503.040375C302.676178,505.404633,307.893311,505.623657,311.961365,503.519989z"/>
    <path transform="matrix(-0.26455,0,0,-0.26455,-782.380737,-500.889862)" style="stroke:#000000;stroke-width:0.05mm;fill:none" d="M229,497C232.621399,493.378601,231.696899,488.217438,226.05867,480.579498C218.760422,470.692749,217.995285,467.133392,219.377625,449.5C220.251373,438.354126,219.514694,435.038574,215.593597,432.46936C212.634232,430.530304,210.055801,431.130951,207.997528,434.238831C206.79509,436.054413,206.56282,439.451111,206.818771,451.476105C206.99408,459.712952,207.553787,468.712952,208.062531,471.476105C209.256638,477.961487,216.169479,492.015625,220.097382,495.943542C223.65033,499.49649,226.200851,499.799133,229,497z"/>
    <path transform="matrix(-0.26455,0,0,-0.26455,-782.380737,-500.889862)" style="stroke:#000000;stroke-width:0.05mm;fill:none" d="M561.922302,496.582672C564.632751,493.69754,565.132263,487.703705,562.852234,485.423676C561.984314,484.555725,558.062805,483.447266,553.903625,482.894226C539.49115,480.977814,533,474.958649,533,463.51062C533,456.704987,531.037048,454,526.098267,454C523.575623,454,521.703186,454.670502,520.493713,456.006927C518.749146,457.934692,518.745728,458.395935,520.407959,467.701996C521.359741,473.030487,522.565552,478.188263,523.087585,479.163696C523.60968,480.13916,526.166016,482.13678,528.768372,483.602875C531.370789,485.069,537.635254,488.687531,542.689514,491.644104C556.846069,499.925262,558.405884,500.325775,561.922302,496.582672z"/>
    <path transform="matrix(-0.26455,0,0,-0.26455,-782.380737,-500.889862)" style="stroke:#000000;stroke-width:0.05mm;fill:none" d="M505.171265,478.345001C508.212128,475.593048,507.067657,462.960876,503.509918,460.00824C499.738251,456.878021,490.612152,459.71283,489.441162,464.378357C488.584076,467.793365,490.761444,474.852356,493.524048,477.61496C496.385162,480.476074,502.399872,480.853088,505.171265,478.345001z"/>
    <path transform="matrix(-0.26455,0,0,-0.26455,-782.380737,-500.889862)" style="stroke:#000000;stroke-width:0.05mm;fill:none" d="M331.341034,473C336.770538,470.825928,340.494324,470,344.867035,470C348.981018,470,354.337158,468.906189,361.70047,466.562347C367.640198,464.671631,380.361389,461.237549,389.969757,458.931061C405.50946,455.200775,408.304871,454.804199,415.272339,455.341492C421.981415,455.858856,424.209442,455.583862,430.802582,453.424652C437.592682,451.200958,439.515076,450.98233,447.111633,451.570068C453.680878,452.078308,457.33728,451.831543,462.528503,450.529633C466.879242,449.438507,470.877228,449.054413,473.61322,449.464691C476.910248,449.959137,479.569397,449.492981,485.19635,447.434143C490.037811,445.66272,495.702606,444.517242,502,444.036285C507.845215,443.589844,513.808289,442.439178,517.5,441.045319C523.204956,438.891327,523.912903,438.843536,531.896057,440.073822C539.302734,441.21524,541.070313,441.168304,546.896057,439.675476C554.945068,437.612885,558.047546,437.57785,566.187927,439.457458C570.973938,440.562531,573.467102,440.662079,576.5,439.86911C589.51178,436.467163,589.812744,436.450745,596.327332,438.786896C605.043152,441.912384,609.450012,441.679382,616.04425,437.744263C622.034241,434.169739,623.647278,430.677673,620.40387,428.30603C618.136475,426.648102,591.40802,426.568573,546.583374,428.086365C517.272583,429.078827,513.376587,429.420532,501.5,432.040436C481.483734,436.455872,466.94162,438.687775,450,439.94458C418.162903,442.306335,404.622711,444.08844,388,448.104675C378.924988,450.297272,365.424988,453.169464,358,454.487305C350.575012,455.805145,340.470825,458.291687,335.546265,460.012939C320.113464,465.407074,311.306396,465.011353,305.147034,458.647003C300.796997,454.152222,299.127167,449.394806,297.994476,438.269012C296.425842,422.861053,295.316864,419.038147,288.55072,405.714081C281.134644,391.110199,274.775177,381.407806,264.654816,369.257111C257.876129,361.118469,239.381409,341.151337,231.014069,332.93808C229.01825,330.979034,224.812225,326.151245,221.667313,322.209717C218.522415,318.268158,215.018814,314.545258,213.881516,313.936584C208.338028,310.969818,202.748871,317.678986,205.023148,324.570129C206.283646,328.389496,209.054245,330.879669,215.53244,334.015717C220.621368,336.479218,224.079239,340.249451,227.572876,347.143799C229.290619,350.5336,231.884186,353.348083,236.151688,356.453308C244.267624,362.358856,265.073914,387.351715,273.12262,400.863434C281.138153,414.319427,284.746643,424.79068,286.027832,438.312195C286.575043,444.087708,287.685272,450.690857,288.494995,452.98584C290.515839,458.713531,295.845673,468.550385,297.969757,470.472626C298.987885,471.394012,303.823914,472.672943,309.527527,473.529144C314.921448,474.338837,319.559387,475.226044,319.834015,475.500671C320.913574,476.580261,324.163696,475.873962,331.341034,473z"/>
    <path transform="matrix(-0.26455,0,0,-0.26455,-782.380737,-500.889862)" style="stroke:#000000;stroke-width:0.05mm;fill:none" d="M564.849915,467.930756C568.348022,464.175934,568.510132,458.615204,565.232849,454.794006C563.247375,452.479004,555.997986,451.515533,551.567322,452.977783C547.336914,454.373932,545.631165,457.044128,546.485291,460.933075C548.089478,468.236725,560.248474,472.869812,564.849915,467.930756z"/>
    <path transform="matrix(-0.26455,0,0,-0.26455,-782.380737,-500.889862)" style="stroke:#000000;stroke-width:0.05mm;fill:none" d="M679.600281,438.23468C683.661438,435.52301,683.841492,430.126404,680.524292,410.54483C677.008667,389.792023,676.583679,384.21167,677.929993,376.48053C679.44751,367.766479,681.637207,363.629425,687.878418,357.684753C693.953308,351.898438,694.398804,350.135101,693.812256,334.196411C693.232727,318.450592,690.630127,313.33725,684.324036,315.554993C679.99115,317.078796,678.97406,320.142029,680.57605,326.842468C683.233093,337.955292,682.412842,343.273407,676.731262,351.770447C669.314087,362.863129,666.785156,371.533813,665.435364,390.5C664.820435,399.140594,664.918701,399.759552,667.896606,406C671.536682,413.627991,671.710144,416.622894,668.972473,424.579956C666.670105,431.272003,667.078491,435.241119,670.301697,437.498749C672.552551,439.075317,677.727905,439.484924,679.600281,438.23468z"/>
    <path transform="matrix(-0.26455,0,0,-0.26455,-782.380737,-500.889862)" style="stroke:#000000;stroke-width:0.05mm;fill:none" d="M653.202087,422.951721C655.868103,420.285736,656.182617,419.398132,655.709961,415.874115C654.966064,410.328094,652.612427,408,647.74939,408C641.097412,408,635,414.385376,635,421.35144C635,424.767944,637.353333,425.933197,644.326904,425.969604C649.508606,425.996643,650.491394,425.662445,653.202087,422.951721z"/>
    <path transform="matrix(-0.26455,0,0,-0.26455,-782.380737,-500.889862)" style="stroke:#000000;stroke-width:0.05mm;fill:none" d="M197.056839,398.000763C200.927078,396.925598,205.385818,392.790741,206.439178,389.299988C207.215744,386.726471,204.831772,381.533173,202.4552,380.621185C196.505661,378.338135,189.48114,381.358978,186.594589,387.441895C184.368515,392.133026,185.386124,395.825378,189.38475,397.565796C193.194168,399.223846,192.74559,399.198425,197.056839,398.000763z"/>
    <path transform="matrix(-0.26455,0,0,-0.26455,-782.380737,-500.889862)" style="stroke:#000000;stroke-width:0.05mm;fill:none" d="M649.20874,392.933685C650.547058,391.133087,651.389465,387.552643,652.032104,380.933685C653.204712,368.856384,655.834595,359.85434,661.624329,348.100037C665.168823,340.903992,666.356567,337.269867,666.690186,332.600037C667.269165,324.49588,664.959839,319.641357,660.311584,319.191223C655.939087,318.767792,654.503235,321.273743,652.019592,333.662628C650.177612,342.851196,642.389099,370.18103,638.564758,380.875732C636.565613,386.466248,636.576111,390.949768,638.595032,393.832184C640.814636,397.001129,646.546204,396.51593,649.20874,392.933685z"/>
    <path transform="matrix(-0.26455,0,0,-0.26455,-782.380737,-500.889862)" style="stroke:#000000;stroke-width:0.05mm;fill:none" d="M169.16774,382.970123C174.179657,381.578064,179,375.954956,179,371.500397C179,367.003693,176.446106,365.632416,169.191833,366.234009C164.398102,366.631531,163.230957,367.171478,160.335236,370.331238C156.5811,374.427734,155.94809,378.773651,158.75,381.214539C162.023605,384.066284,164.013687,384.401672,169.16774,382.970123z"/>
    <path transform="matrix(-0.26455,0,0,-0.26455,-782.380737,-500.889862)" style="stroke:#000000;stroke-width:0.05mm;fill:none" d="M143.28212,366.638031C147.044998,365.045349,149.456253,362.560364,150.884888,358.802765C151.710892,356.630219,151.547394,355.663361,150.039764,353.804596C148.454666,351.850281,147.334427,351.528687,142.669525,351.688782C134.961365,351.953278,129.238266,353.686279,127.916443,356.156128C126.556824,358.696594,127.432945,363.715942,129.66687,366.184387C131.668839,368.396545,138.583084,368.626892,143.28212,366.638031z"/>
    <path transform="matrix(-0.26455,0,0,-0.26455,-782.380737,-500.889862)" style="stroke:#000000;stroke-width:0.05mm;fill:none" d="M207,363.902618C214.570343,359.382233,216.060593,353.906738,211.07692,348.923065C206.857468,344.703613,202.220108,344.902924,197.105667,349.523499C193.494278,352.786163,190,358.362061,190,360.862183C190,361.445129,190.984848,362.83963,192.188568,363.96106C195.159805,366.729187,202.313583,366.700958,207,363.902618z"/>
    <path transform="matrix(-0.26455,0,0,-0.26455,-782.380737,-500.889862)" style="stroke:#000000;stroke-width:0.05mm;fill:none" d="M174.188614,351.704895C175.667358,351.042206,180.504868,346.605865,184.938614,341.846405C193.865997,332.263184,194.75502,329.664093,190.545456,325.454559C189.19545,324.104553,187.598114,323,186.995789,323C185.135254,323,180,325.993469,180,327.078003C180,327.64267,176.146774,331.92334,171.437271,336.590607C164.339066,343.625183,162.928024,345.536407,163.187271,347.765106C163.381531,349.43515,164.447083,350.930389,166,351.712097C169.072205,353.258545,170.725021,353.25708,174.188614,351.704895z"/>
    <path transform="matrix(-0.26455,0,0,-0.26455,-782.380737,-500.889862)" style="stroke:#000000;stroke-width:0.05mm;fill:none" d="M130.380188,339.485626C132.373642,338.65271,137.817657,337.584747,142.478012,337.112366L150.951385,336.25351L159.225693,328.524689C171.139008,317.396729,172.991119,313.005981,167.335052,309.299957C163.657196,306.890137,159.231552,308.630432,155.308289,314.029236C148.847839,322.919464,147.734222,324.09494,143.937286,326.031982C139.70047,328.193451,132.712875,328.597992,128.315094,326.936371C122.067223,324.575775,117.567299,318.250305,114.46669,307.46991C111.779518,298.126984,110.630112,296.53067,96.561348,282.602478C89.282257,275.396118,78.260849,263.958893,72.069328,257.186401C62.851921,247.104126,60.116161,243.366623,56.971848,236.560776C52.681107,227.273483,49.390064,224,44.343704,224C41.749958,224,40.70396,224.555634,39.875748,226.373352C38.292397,229.848434,41.37315,236.056091,49.146809,245.054337C52.684612,249.149445,58.336273,255.875,61.706055,260C65.075844,264.125,74.508026,275.453827,82.666466,285.17514C93.220406,297.750854,99.785591,306.694611,105.422096,316.17514C117.5093,336.505646,119.094978,338.950592,120.862907,339.983093C123.233864,341.367767,126.253273,341.209961,130.380188,339.485626z"/>
    <path transform="matrix(-0.26455,0,0,-0.26455,-782.380737,-500.889862)" style="stroke:#000000;stroke-width:0.05mm;fill:none" d="M138.315735,311.83667C144.021118,308.797974,144.274139,304.69928,139.542114,291.971375C135.575226,281.301514,133.566956,278.888885,118.5,266.692688C96.59491,248.961243,87.77372,240.671555,80.884529,231.343643C76.219048,225.026642,73.175537,221.831177,71.399933,221.385529C66.4021,220.131149,65.65345,224.905136,69.604599,232.834061C72.851898,239.35054,99.269852,266.83316,112.567947,277.52887C125.292931,287.763641,126.639786,289.950195,128.488739,303.375549C128.922318,306.523834,130.001404,309.092316,131.534653,310.625549C134.219498,313.310394,135.21489,313.48819,138.315735,311.83667z"/>
    <path transform="matrix(-0.26455,0,0,-0.26455,-782.380737,-500.889862)" style="stroke:#000000;stroke-width:0.05mm;fill:none" d="M197.007111,306.994934C198.650574,305.824677,200.264084,303.79599,200.592697,302.486725C201.924484,297.18042,195.965332,287,191.527466,287C190.125015,287,187.848495,288.532166,185.672867,290.940338C179.916794,297.311615,179.490524,305.528259,184.762711,308.4841C188.179489,310.399719,193.058929,309.806274,197.007111,306.994934z"/>
    <path transform="matrix(-0.26455,0,0,-0.26455,-782.380737,-500.889862)" style="stroke:#000000;stroke-width:0.05mm;fill:none" d="M673.780151,304.662872C676.926086,303.377441,681.54303,301.576294,684.0401,300.660339C686.721313,299.676788,690.58905,296.955383,693.486633,294.01358C697.209717,290.233643,699.92865,288.52124,704.760315,286.913361C709.637329,285.290405,711.352844,284.202118,712.089844,282.263733C713.099243,279.608704,713.06427,279.361389,708.52832,257.081146C705.770569,243.535172,705.288208,230.215591,707.076843,217C707.635132,212.875,708.474121,202.074997,708.941284,193C709.929199,173.807922,711.118591,169.82605,717.555969,164.159668C722.973816,159.390656,726.933472,158.200012,740.057068,157.393753C751.572937,156.686249,756.591003,154.99176,758.304016,151.232101C759.238831,149.180466,759.110901,148.55426,757.519287,147.390457C756.47345,146.625702,754.691223,145.99469,753.558899,145.98819C752.426514,145.981705,747.968872,145.109436,743.653015,144.04982C734.926147,141.907257,733.545959,142.143158,726.979858,146.899643C724.709717,148.544128,720.337585,150.452393,717.264099,151.140213C710.193909,152.722443,706.77832,156.037155,701.493896,166.444702L697.5,174.310532L696.839294,192.405258C696.475891,202.357361,695.429749,216.125,694.514465,223C691.160583,248.193069,691.182739,248.765167,695.872192,258.104492C698.142517,262.625854,700,267.391449,700,268.694702C700,275.099426,693.241028,282.82962,682.556274,288.644958C678.39325,290.910767,676.442566,291.332947,670.633606,291.22522C666.813721,291.154388,662.878113,291.530029,661.887939,292.059998C658.502991,293.871521,657.513245,302.23056,660.266907,305.75C661.785095,307.69043,667.494629,307.23111,673.780151,304.662872z"/>
    <path transform="matrix(-0.26455,0,0,-0.26455,-782.380737,-500.889862)" style="stroke:#000000;stroke-width:0.05mm;fill:none" d="M165.7995,294.427887C167.033997,293.563202,169.355682,290.257355,170.958832,287.081573C172.561966,283.905762,175.484131,280.000702,177.452515,278.403687C187.209976,270.487091,186.83786,271.038879,188.889938,261.443695C190.4823,253.998016,193.047516,247.862274,203.313614,226.94368C210.181381,212.949661,216.917435,200.296417,218.282623,198.825378C222.10704,194.704437,227.575027,193.471573,235.917374,194.849274C239.74971,195.482178,244.830597,196,247.208237,196C255.78569,196,262.599518,189.529907,258.635223,185.149429C257.18399,183.545807,254.942184,183.136368,244.702835,182.604767C237.991272,182.256332,230.147324,181.709946,227.27182,181.390579C220.780411,180.669617,217.670731,182.390106,209.308929,191.328918C204.481552,196.48938,201.447495,201.523895,192.266724,219.60759C186.123642,231.707855,179.118881,246.983749,176.700623,253.554031C169.81044,272.2742,167.195099,276.227386,158.175659,281.555298C152.929306,284.654388,151.939606,289.884216,155.77327,294.25C157.684143,296.426086,162.81665,296.517151,165.7995,294.427887z"/>
    <path transform="matrix(-0.26455,0,0,-0.26455,-782.380737,-500.889862)" style="stroke:#000000;stroke-width:0.05mm;fill:none" d="M674.684875,275.93338C679.028442,274.287659,682,270.987976,682,267.810547C682,266.248077,680.701782,262.614014,679.115112,259.734863C675.046326,252.351608,674.709106,249.90654,676.466431,240.528427C680.063843,221.330276,682,203.238251,682,188.821625C682,171.513565,682.788208,168.664047,691.148438,155.749176C696.970154,146.755753,696.713623,148.142456,695.91217,129.999435C695.562317,122.080139,698.606018,114.552483,704.93335,107.688126C710.224365,101.948051,716.399719,99.352531,728.093689,97.953773C743.986328,96.052795,750.098999,91.833122,742.487793,88.017357C738.3974,85.966721,711.247559,86.303505,707.084045,88.456528C703.226318,90.451462,690.161804,105.564713,687.834167,110.725182C686.485962,113.714134,685.636719,119.058426,684.931519,128.990952C683.624512,147.401138,681.723206,153.484741,675.081787,160.507004C668.026062,167.967407,667.597717,169.490204,669.648987,179.819077C671.147705,187.365753,671.200317,189.740204,670.094666,199.937805C669.405151,206.297012,667.927673,216.449997,666.81134,222.5C665.694946,228.550003,664.389221,240.699997,663.909668,249.5C663.430115,258.299988,662.756165,267.420959,662.412048,269.768829C662.007019,272.532074,662.21991,274.560028,663.015625,275.518829C664.454651,277.252777,670.624207,277.471954,674.684875,275.93338z"/>
    <path transform="matrix(-0.26455,0,0,-0.26455,-782.380737,-500.889862)" style="stroke:#000000;stroke-width:0.05mm;fill:none" d="M64.820206,209.710754C65.221947,206.211319,61.487373,198.331207,58.727039,196.853912C57.382973,196.134598,53.796711,195.968552,48.574448,196.38385C41.517864,196.945023,40.204723,197.360046,38.157631,199.676132C36.376678,201.691116,35.95866,203.043304,36.413567,205.317841C37.408146,210.290726,38.625488,210.993896,46.372444,211.070282C50.292599,211.108948,54.400002,211.538055,55.5,212.02388C56.599998,212.509689,59.075001,212.815567,61,212.703598C64.027313,212.527496,64.543243,212.123306,64.820206,209.710754z"/>
    <path transform="matrix(-0.26455,0,0,-0.26455,-782.380737,-500.889862)" style="stroke:#000000;stroke-width:0.05mm;fill:none" d="M48.397934,182.864548C49.768559,182.240051,51.097916,181.187225,51.352058,180.524933C51.606205,179.86264,51.483017,167.936279,51.078304,154.021912C50.673592,140.107559,50.692867,126.506439,51.12114,123.797211C51.549412,121.08799,53.560116,115.902451,55.589378,112.273788L59.278942,105.676231L58.276279,96.260643C57.126736,85.465744,55.81929,83.213951,51.771805,85.058113C48.562664,86.520294,47.620865,88.367897,44.473637,99.375534C43.077938,104.257072,41.39489,109.207077,40.733536,110.375534C39.924114,111.80558,39.288658,122.142593,38.789463,142C38.38158,158.225006,37.772484,173.56575,37.435917,176.090561C36.964836,179.624435,37.205956,181.063095,38.483418,182.340561C40.405926,184.263062,44.816875,184.496185,48.397934,182.864548z"/>
    <path transform="matrix(-0.26455,0,0,-0.26455,-782.380737,-500.889862)" style="stroke:#000000;stroke-width:0.05mm;fill:none" d="M85.5,97.940613C91.863518,94.117256,93.860542,86.608665,89.438942,83.13063C86.282982,80.648155,77.141327,78.496727,73.564011,79.394577C69.814957,80.335533,69.454216,82.236061,71.432167,90.626076C73.906082,101.119881,77.284683,102.876572,85.5,97.940613z"/>
</svg>
