<?xml version="1.0" encoding="UTF-8"?>
<svg xmlns="http://www.w3.org/2000/svg" width="150.688mm" height="150.199mm" viewBox="-1281.582031 -843.074219 150.688110 150.199463">
    <path transform="matrix(-1,0,0,-1,0,0)" style="stroke:#000000;stroke-width:0.05mm;fill:none" d="M1167.457031,692.878906L1167.828125,692.917969C1168.069702,692.96875,1168.305786,693.04187,1168.535156,693.132813C1168.758667,693.231262,1168.965942,693.361206,1169.164063,693.503906C1169.358887,693.656494,1169.534302,693.831665,1169.695313,694.019531C1170.240967,694.713013,1170.637939,695.511963,1170.855469,696.367188C1171.741577,699.672485,1172.647217,702.960999,1173.578125,706.253906C1177.601563,705.899719,1181.533569,707.588318,1184.046875,710.75C1184.579834,708.663025,1185.934082,706.879456,1187.800781,705.804688C1190.05481,704.380371,1192.730957,703.777161,1195.378906,704.089844C1196.14624,704.16394,1196.904541,704.313965,1197.640625,704.542969C1199.4198,705.020752,1201.13269,705.718018,1202.738281,706.621094C1204.570068,707.612305,1206.344971,708.705139,1208.054688,709.894531C1211.52832,712.185303,1214.888672,714.412354,1218.351563,716.71875C1212.912476,710.215149,1206.315552,704.775635,1198.894531,700.675781C1208.28418,701.215515,1216.886841,706.096558,1222.167969,713.878906L1220.632813,704.605469C1222.018921,704.657166,1223.333618,703.988464,1224.105469,702.835938C1218.988281,703.231689,1213.893677,701.826538,1209.703125,698.863281C1214.282471,698.185242,1218.959717,698.89801,1223.128906,700.910156C1227.93457,703.13446,1231.871094,706.883301,1234.328125,711.574219C1235.010864,712.968018,1235.578247,714.415527,1236.023438,715.902344C1236.474487,717.32428,1237.09314,718.687256,1237.863281,719.964844C1238.481445,716.709839,1238.049316,713.342773,1236.632813,710.347656C1235.454346,707.595032,1233.727295,705.111511,1231.558594,703.046875C1230.039185,701.52124,1228.391235,700.129272,1226.632813,698.886719C1224.318604,697.255737,1221.934692,695.725708,1219.488281,694.300781C1229.469604,696.430603,1237.632813,703.583923,1241.054688,713.199219C1240.70166,711.022583,1240.896118,708.792053,1241.625,706.710938C1240.139282,705.553406,1238.641724,704.414917,1237.128906,703.292969C1238.808105,702.598999,1240.568848,701.875122,1242.25,701.1875L1247.433594,720.078125C1247.73999,720.045288,1248.038696,719.956055,1248.304688,719.800781L1248.492188,719.679688C1248.675659,719.553894,1248.842285,719.404785,1248.980469,719.230469L1249.113281,719.050781C1249.19458,718.926758,1249.263428,718.795349,1249.324219,718.660156C1249.530273,718.193542,1249.560303,717.669434,1249.417969,717.179688C1247.963989,713.102417,1246.511108,708.976196,1245.089844,704.886719C1251.511719,711.341064,1255.425049,719.871582,1256.128906,728.949219C1257.44165,724.724976,1256.928101,720.144165,1254.710938,716.316406C1255.334229,716.974609,1255.939941,717.649353,1256.527344,718.339844C1256.87915,718.76825,1257.317017,719.118713,1257.816406,719.359375C1257.977661,719.425171,1258.147217,719.468689,1258.320313,719.488281C1258.48999,719.523254,1258.664917,719.520752,1258.835938,719.492188L1259.09375,719.449219C1259.939941,719.17627,1260.68396,718.656799,1261.242188,717.964844C1261.802246,717.185608,1262.47998,716.498352,1263.25,715.925781C1263.430176,715.813477,1263.620361,715.71814,1263.816406,715.636719C1261.987793,719.10144,1260.996582,722.94635,1260.921875,726.863281C1260.843506,729.812317,1261.059204,732.761841,1261.566406,735.667969C1261.753662,736.82135,1261.962158,737.971375,1262.191406,739.117188C1263.127686,743.283813,1264.112915,747.445313,1265.144531,751.589844C1265.824463,754.355164,1266.379761,757.149658,1266.808594,759.964844C1267.103271,762.081116,1267.281616,764.211914,1267.34375,766.347656C1267.369629,769.456787,1266.89502,772.549744,1265.9375,775.507813C1265.501831,776.758423,1264.963989,777.97113,1264.328125,779.132813C1264.670898,777.282776,1265.011963,775.410828,1265.34375,773.558594C1263.407104,775.418945,1262.404907,778.0495,1262.617188,780.726563L1262.65625,780.566406C1262.682373,780.477173,1262.72937,780.39563,1262.789063,780.324219L1262.878906,780.226563C1262.948853,780.17157,1263.021362,780.120056,1263.097656,780.074219L1263.226563,780.027344C1263.392822,779.987366,1263.563721,779.968811,1263.734375,779.980469L1263.964844,780.011719C1264.187744,780.066528,1264.397705,780.16394,1264.582031,780.300781L1264.75,780.457031L1264.894531,780.640625L1265.007813,780.84375C1265.071411,781.180603,1265.073486,781.526062,1265.011719,781.863281L1264.949219,782.109375C1264.896118,782.271118,1264.829102,782.427551,1264.757813,782.582031C1264.363647,783.276123,1263.880615,783.915833,1263.320313,784.484375C1262.747925,785.101624,1262.439331,785.916138,1262.449219,786.757813C1261.951416,785.876831,1261.47583,784.983276,1261.023438,784.078125C1260.22998,786.53418,1259.415771,789.074341,1258.632813,791.535156C1259.123535,791.207153,1259.702881,791.040527,1260.292969,791.046875C1260.646729,791.052002,1260.996094,791.127808,1261.320313,791.269531C1262.328125,791.647034,1263.248169,792.226196,1264.023438,792.972656C1264.290771,793.198975,1264.542725,793.442993,1264.777344,793.703125L1255.046875,809.507813C1253.904541,811.469788,1252.582153,813.321289,1251.097656,815.039063C1250.019775,816.227112,1248.751709,817.227478,1247.34375,817.996094C1246.540894,818.392334,1245.688721,818.67981,1244.808594,818.84375C1247.241943,819.778442,1249.964233,819.583618,1252.242188,818.316406C1254.649048,817.080139,1256.407837,814.868469,1257.074219,812.246094C1257.137939,811.964294,1257.183594,811.678589,1257.207031,811.390625L1263.753906,810.484375L1270.296875,809.574219C1269.63269,811.339172,1269.134521,813.162109,1268.808594,815.019531C1268.606812,816.455078,1268.72583,817.917725,1269.160156,819.300781C1270.01709,821.630798,1272.213135,823.200256,1274.695313,823.246094C1275.454102,823.21991,1276.183228,822.942688,1276.773438,822.464844L1277.015625,822.253906L1277.257813,822.074219L1277.519531,821.929688C1277.70166,821.855835,1277.889893,821.799011,1278.082031,821.757813L1278.375,821.730469C1278.572144,821.731018,1278.767822,821.757385,1278.960938,821.796875L1279.25,821.894531C1279.448364,821.962708,1279.637939,822.052307,1279.824219,822.148438C1280.435059,822.51123,1280.92749,823.040833,1281.246094,823.675781C1281.415161,824.04425,1281.528809,824.436157,1281.566406,824.839844C1281.587891,825.046448,1281.587891,825.254822,1281.5625,825.460938C1281.493164,826.285828,1281.234619,827.084045,1280.800781,827.789063C1280.235474,828.80957,1279.537354,829.750916,1278.71875,830.582031C1275.705933,833.81366,1272.049072,836.377625,1267.984375,838.109375C1264.678101,839.588501,1261.188843,840.618408,1257.609375,841.171875C1252.987793,841.918152,1248.297241,842.146179,1243.625,841.851563C1240.546265,841.708374,1237.474854,841.439758,1234.417969,841.046875C1230.704102,840.566772,1227.038452,840.106079,1223.320313,839.652344C1214.147461,838.624329,1204.907837,838.322632,1195.6875,838.75C1194.172607,840.017578,1192.432495,840.988708,1190.558594,841.613281L1190.292969,841.667969C1190.021851,841.712036,1189.747314,841.732239,1189.472656,841.726563C1188.232178,842.591858,1186.758545,843.061523,1185.246094,843.074219C1184.375244,843.102295,1183.505859,842.986511,1182.671875,842.734375C1181.6427,842.458435,1180.640625,842.089355,1179.679688,841.628906C1177.900513,840.721985,1176.079468,839.899292,1174.222656,839.164063C1171.658569,838.22821,1169.013062,837.532593,1166.320313,837.085938C1162.702759,836.501404,1159.07373,835.997437,1155.433594,835.574219C1152.591431,835.216553,1149.781982,834.635376,1147.03125,833.835938C1143.833008,832.840332,1140.807739,831.356689,1138.0625,829.4375C1135.942627,827.910706,1134.142456,825.983398,1132.761719,823.765625C1131.834839,822.176147,1131.208862,820.429504,1130.914063,818.613281C1130.81311,817.869629,1131.095703,817.126221,1131.667969,816.640625C1132.744507,815.761719,1134.19104,815.481812,1135.515625,815.902344C1135.794067,815.998352,1136.066284,816.112244,1136.320313,816.261719C1137.063843,816.636902,1137.75061,817.115356,1138.359375,817.683594C1139.223877,818.516541,1140.155273,819.2771,1141.144531,819.957031C1142.34729,820.731873,1143.806641,821.003845,1145.207031,820.710938L1145.457031,820.632813L1145.695313,820.53125C1145.847534,820.45282,1145.993774,820.363708,1146.136719,820.269531C1146.418091,820.071716,1146.65271,819.815979,1146.839844,819.527344C1148.907227,816.123047,1149.666504,812.083496,1148.980469,808.160156C1148.343872,804.103455,1146.325195,800.391174,1143.265625,797.652344C1142.447266,796.973206,1141.56543,796.374329,1140.632813,795.863281L1140.980469,795.726563C1141.215576,795.659119,1141.456177,795.612854,1141.699219,795.585938C1142.457886,795.521729,1143.216797,795.718262,1143.847656,796.144531C1144.696167,796.630127,1145.474609,797.228882,1146.160156,797.925781C1147.246338,799.060364,1148.423218,800.104431,1149.679688,801.046875C1150.265137,801.440674,1150.92041,801.718933,1151.609375,801.871094C1151.885864,801.91394,1152.166748,801.921387,1152.445313,801.894531C1152.725098,801.869019,1153.001953,801.81543,1153.265625,801.71875C1151.261108,799.540161,1149.575195,797.088745,1148.257813,794.4375C1150.097656,794.65271,1151.956543,794.249268,1153.542969,793.292969C1155.131348,792.336731,1156.35376,790.877258,1157.023438,789.148438C1155.533447,787.56012,1154.224731,785.811035,1153.121094,783.933594C1152.367554,782.53064,1151.914673,780.986267,1151.792969,779.398438C1151.773438,778.675903,1151.869995,777.955078,1152.074219,777.261719C1153.848145,771.078796,1153.667969,764.498596,1151.558594,758.421875C1150.91687,756.812073,1150.298584,755.194031,1149.703125,753.566406C1149.175293,752.018738,1148.883911,750.400269,1148.839844,748.765625C1148.885864,746.936768,1149.537598,745.174255,1150.695313,743.757813C1151.234497,743.174377,1151.897461,742.718201,1152.640625,742.4375C1151.965088,744.009644,1152.404419,745.837952,1153.71875,746.933594C1158.165649,734.554749,1160.6604,721.559631,1161.113281,708.414063L1160.902344,708.371094L1160.691406,708.367188L1160.484375,708.398438C1160.350708,708.432312,1160.224121,708.488525,1160.105469,708.558594L1159.941406,708.6875C1159.695923,708.957764,1159.503052,709.271362,1159.375,709.613281C1159.114258,710.224854,1158.992554,710.886108,1159.007813,711.550781C1157.345703,709.075623,1156.630981,706.084534,1156.992188,703.125C1157.006958,703.247559,1157.029419,703.369202,1157.074219,703.484375C1157.145874,703.651184,1157.253174,703.798889,1157.378906,703.929688C1157.58667,704.093933,1157.822754,704.218262,1158.078125,704.289063C1158.626221,704.456116,1159.219482,704.358398,1159.695313,704.039063C1160.355713,703.394043,1160.74707,702.523376,1160.796875,701.601563C1160.853638,701.239746,1160.882935,700.874084,1160.886719,700.507813C1160.986816,698.210266,1161.12085,695.91449,1161.289063,693.621094L1161.324219,693.542969L1161.375,693.476563L1161.441406,693.417969C1161.531982,693.348938,1161.636353,693.300293,1161.746094,693.269531C1161.907715,693.218323,1162.07312,693.17926,1162.242188,693.164063L1162.496094,693.15625C1162.732178,693.159912,1162.967407,693.18573,1163.199219,693.230469C1163.473633,693.266602,1163.736938,693.364868,1163.960938,693.527344C1164.001831,693.590881,1164.033936,693.65918,1164.058594,693.730469L1164.0625,693.84375L1163.886719,694.667969C1163.230591,696.271973,1162.912476,697.994019,1162.953125,699.726563C1163.009155,700.772034,1163.20874,701.804688,1163.542969,702.796875C1164.318604,705.479492,1165.748901,707.927063,1167.707031,709.917969C1168.27356,710.488098,1168.88501,711.01178,1169.535156,711.484375C1170.231567,710.431641,1170.915283,709.370117,1171.585938,708.300781L1171.394531,708.371094L1171.199219,708.414063L1171.003906,708.425781C1170.740601,708.413269,1170.486084,708.334656,1170.257813,708.203125C1169.8396,707.911804,1169.515015,707.504639,1169.335938,707.027344C1169.178345,706.614868,1169.148071,706.164001,1169.25,705.734375L1169.335938,705.507813L1169.464844,705.308594L1169.628906,705.136719L1169.824219,704.996094C1168.478271,701.223511,1167.096191,697.387207,1165.726563,693.621094C1166.035034,693.235107,1166.477783,692.981567,1166.964844,692.898438C1167.127563,692.872253,1167.292603,692.867981,1167.457031,692.878906z"/>
    <path transform="matrix(-1,0,0,-1,0,0)" style="stroke:#000000;stroke-width:0.05mm;fill:none" d="M1223.671875,707.414063C1223.375732,707.440369,1223.082153,707.489868,1222.792969,707.558594C1228.083618,711.000977,1230.442505,717.539673,1228.566406,723.566406C1228.186157,725.184753,1228.173462,726.867859,1228.527344,728.492188C1228.975708,730.511658,1229.553345,732.500305,1230.257813,734.445313C1230.709473,735.876709,1231.044067,737.342468,1231.257813,738.828125C1231.449951,740.461975,1231.143799,742.115662,1230.382813,743.574219L1230.242188,743.796875C1228.287476,740.999573,1227.072876,737.752747,1226.710938,734.359375C1225.033447,733.974915,1223.273193,734.286316,1221.824219,735.214844C1222.164673,732.602295,1221.282593,729.978394,1219.433594,728.101563C1218.740845,734.109375,1220.018188,740.179749,1223.074219,745.398438C1222.713135,746.070007,1222.334351,746.73175,1221.9375,747.382813C1223.488403,748.469604,1225.423584,748.858459,1227.273438,748.453125C1229.212891,748.093994,1230.989136,747.129028,1232.34375,745.695313C1233.595459,744.392761,1234.694702,742.951599,1235.617188,741.398438C1236.036377,740.707031,1236.446289,740.010559,1236.847656,739.308594C1236.526001,745.075745,1232.815063,750.103271,1227.398438,752.109375C1232.551758,751.977234,1237.674194,752.9422,1242.425781,754.941406C1243.484253,754.38385,1244.55603,753.8526,1245.640625,753.347656C1246.746582,752.795349,1247.817749,752.175842,1248.847656,751.492188L1248.808594,751.722656C1248.700195,752.08429,1248.504761,752.412598,1248.246094,752.6875C1247.611572,753.461243,1246.874146,754.144409,1246.054688,754.71875C1247.726929,754.496887,1249.284424,753.747559,1250.503906,752.582031C1251.253296,751.87146,1251.943359,751.100891,1252.566406,750.277344L1253.511719,749.039063C1252.749268,752.42511,1250.429077,755.249634,1247.257813,756.660156L1247.164063,756.828125C1247.091309,756.928894,1247.014771,757.026917,1246.933594,757.121094L1246.800781,757.246094C1246.706543,757.322815,1246.606079,757.391357,1246.503906,757.457031L1246.34375,757.535156C1246.125488,757.632874,1245.890991,757.687378,1245.652344,757.703125L1245.46875,757.703125C1245.34668,757.692017,1245.225952,757.670654,1245.105469,757.648438C1244.841675,757.587341,1244.610352,757.434082,1244.441406,757.222656L1244.3125,757.054688C1244.23584,756.936707,1244.170288,756.812134,1244.113281,756.683594C1244.059448,756.550598,1244.012817,756.414795,1243.988281,756.273438L1243.960938,756.0625C1242.993408,756.653015,1241.919434,757.047546,1240.800781,757.230469C1240.640991,757.256042,1240.478027,757.243958,1240.320313,757.207031L1240.089844,757.140625L1239.871094,757.039063L1240.140625,756.648438C1240.431396,756.278381,1240.778809,755.955994,1241.175781,755.703125C1238.059326,755.87561,1234.934204,755.603394,1231.894531,754.894531C1234.858887,758.258911,1238.838135,760.566589,1243.230469,761.46875C1248.876221,762.736145,1254.793213,761.772888,1259.746094,758.78125C1260.746948,758.141785,1261.687744,757.413086,1262.558594,756.605469C1261.911011,759.376953,1260.636108,761.962769,1258.832031,764.164063C1257.651001,765.572571,1256.078125,766.598267,1254.3125,767.109375C1253.544312,767.302673,1252.752686,767.385193,1251.960938,767.359375C1250.801025,767.264465,1249.643311,767.145935,1248.488281,767.003906C1247.641968,766.91449,1246.786865,766.954834,1245.953125,767.125C1244.379028,767.548828,1243.242432,768.917908,1243.113281,770.542969C1243.101929,770.704895,1243.113525,770.868164,1243.160156,771.023438C1243.20166,771.178955,1243.256958,771.330322,1243.324219,771.476563C1243.478027,771.761169,1243.698608,772.002502,1243.960938,772.191406C1246.821899,769.56488,1251.124023,769.279053,1254.304688,771.507813C1257.651001,771.143616,1260.336548,768.579773,1260.855469,765.253906C1261.27002,765.448669,1261.618652,765.758423,1261.871094,766.140625C1262.181519,766.65271,1262.316284,767.250122,1262.277344,767.847656C1262.25769,768.541077,1262.038208,769.213989,1261.644531,769.785156L1261.390625,770.113281C1260.737671,770.831482,1259.945435,771.409302,1259.0625,771.8125C1258.643921,772.035583,1258.215088,772.239136,1257.777344,772.421875C1252.125,774.908081,1246.337158,777.074219,1240.441406,778.910156C1239.223633,779.24231,1237.92981,779.161926,1236.761719,778.683594C1236.150635,778.404846,1235.592529,778.021484,1235.121094,777.542969C1234.451172,776.892883,1233.86438,776.16217,1233.375,775.367188C1232.696167,774.28009,1232.011353,773.196777,1231.320313,772.117188C1230.602417,770.988281,1229.685303,769.999573,1228.613281,769.199219C1226.929565,768.060364,1224.884766,767.582153,1222.871094,767.859375C1220.830688,768.102173,1218.956177,769.100464,1217.609375,770.652344C1216.845093,771.112549,1216.293457,771.855042,1216.070313,772.71875L1216.003906,773.035156C1215.882446,773.806641,1216.027954,774.597473,1216.425781,775.269531C1217.914063,773.763062,1219.410156,772.264282,1220.914063,770.773438C1221.392212,771.631592,1222.099365,772.340454,1222.960938,772.8125C1220.664185,777.217834,1217.015625,780.770508,1212.550781,782.949219C1216.942261,786.650513,1217.528442,793.199524,1213.863281,797.621094C1212.34668,799.432556,1210.259766,800.674622,1207.945313,801.148438L1208.296875,801.207031C1208.640503,801.280212,1208.964478,801.426819,1209.246094,801.636719C1209.698364,801.978821,1210.040527,802.446106,1210.230469,802.980469C1210.776611,804.273987,1210.606079,805.761169,1209.777344,806.894531C1209.171753,807.812439,1208.400391,808.609192,1207.503906,809.246094C1206.665283,809.911316,1205.755859,810.481812,1204.792969,810.949219L1204.617188,811C1204.49939,811.020691,1204.380859,811.036255,1204.261719,811.046875C1204.085938,811.048035,1203.911255,811.027161,1203.738281,810.996094L1203.40625,810.890625C1203.141357,810.767151,1202.897949,810.600647,1202.703125,810.382813L1202.589844,810.246094C1202.520264,810.145569,1202.455933,810.041504,1202.398438,809.933594C1202.190186,809.504272,1202.057129,809.04303,1201.992188,808.570313C1201.916992,807.973389,1201.948242,807.367798,1202.082031,806.78125C1202.426147,805.76123,1202.708618,804.721497,1202.929688,803.667969C1203.000488,803.09845,1202.967407,802.52063,1202.824219,801.964844L1202.703125,801.660156C1197.577881,802.994324,1192.173706,800.907898,1189.273438,796.476563C1186.376221,791.66449,1187.13208,785.497437,1191.105469,781.527344C1188.854614,779.678223,1186.048828,778.638,1183.136719,778.566406C1181.775757,775.883057,1182.332642,772.625854,1184.503906,770.542969C1185.244507,773.524475,1187.124756,776.096069,1189.738281,777.710938C1190.71521,773.891846,1188.890015,769.909851,1185.359375,768.15625C1184.518677,767.841309,1183.586792,767.87384,1182.773438,768.253906C1182.132813,768.616333,1181.548706,769.070557,1181.039063,769.601563C1180.36438,770.297668,1179.801514,771.094177,1179.367188,771.960938C1179.022461,772.598999,1178.724243,773.261169,1178.472656,773.941406C1177.911865,775.329895,1177.109985,776.608215,1176.105469,777.71875C1175.219604,778.617126,1173.974487,779.063354,1172.71875,778.941406C1166.901123,778.544006,1161.804077,774.902283,1159.542969,769.527344C1159.13855,768.650085,1158.580933,767.851563,1157.894531,767.171875C1157.535645,766.867981,1157.099976,766.670288,1156.636719,766.589844C1156.4823,766.558655,1156.324585,766.543762,1156.167969,766.558594C1156.619263,768.642883,1157.326172,770.663513,1158.273438,772.574219C1159.38623,774.913086,1160.640991,777.181824,1162.03125,779.367188C1163.735474,782.360474,1165.78479,785.143616,1168.136719,787.660156C1169.636841,789.199829,1171.397095,790.462219,1173.335938,791.390625C1175.203003,792.192322,1177.260864,792.44043,1179.265625,792.109375L1179.625,792.703125C1179.754761,792.013184,1179.859253,791.318726,1179.9375,790.621094C1179.818848,790.306274,1179.659302,790.009094,1179.476563,789.726563C1179.109497,789.168762,1178.631714,788.691345,1178.066406,788.335938C1177.7771,788.163757,1177.474609,788.014648,1177.160156,787.894531L1177.339844,787.664063L1177.550781,787.480469L1177.792969,787.335938C1177.959351,787.253235,1178.138916,787.199036,1178.324219,787.1875C1178.511963,787.176147,1178.699463,787.196838,1178.882813,787.238281C1179.295898,787.365234,1179.666382,787.602539,1179.953125,787.925781C1180.094727,788.127197,1180.244751,788.322571,1180.402344,788.511719L1180.601563,788.855469L1180.746094,789.230469C1181.001465,790.20697,1181.125,791.213379,1181.113281,792.222656C1181.144409,793.110107,1181.101318,793.998657,1180.984375,794.878906C1184.96875,801.183533,1189.373413,807.212891,1194.167969,812.925781C1198.080322,811.802917,1202.294556,812.723572,1205.382813,815.375C1205.670166,815.502563,1205.944458,815.657288,1206.203125,815.835938C1206.973511,816.385132,1207.552124,817.161255,1207.863281,818.054688C1208.657349,820.053162,1208.299194,822.323914,1206.9375,823.988281C1206.564453,824.404907,1206.111816,824.742615,1205.609375,824.988281C1206.19397,822.841003,1206.054321,820.561035,1205.214844,818.5C1202.654175,817.29248,1200.198608,816.131348,1197.640625,814.917969C1199.306152,818.017151,1199.810547,821.608948,1199.0625,825.046875C1199.966919,824.856506,1200.908691,824.950439,1201.753906,825.324219C1201.932983,825.430969,1202.087891,825.572266,1202.21875,825.734375L1202.304688,825.859375L1202.378906,826C1202.419556,826.095215,1202.450806,826.193848,1202.480469,826.292969C1201.903442,828.354614,1200.444824,830.055054,1198.496094,830.941406C1195.843262,832.259827,1192.732422,832.286621,1190.054688,831.019531C1189.005615,830.475403,1188.114136,829.671082,1187.464844,828.683594C1190.699829,829.769348,1194.2146,828.098267,1195.410156,824.902344C1196.349365,822.08606,1195.194946,818.997375,1192.640625,817.484375C1193.028931,818.582825,1193.426758,819.681274,1193.832031,820.773438C1193.072266,821.448181,1192.049805,821.745667,1191.046875,821.582031C1190.017456,821.472961,1189.015625,821.181946,1188.089844,820.71875C1180.048096,817.040527,1173.1604,811.240356,1168.167969,803.941406C1168.775391,805.679932,1169.364746,807.421753,1169.9375,809.171875C1168.275513,808.619324,1166.717651,807.792786,1165.328125,806.726563C1167.631104,812.64856,1170.369019,818.392151,1173.519531,823.910156C1174.135132,821.861145,1173.594971,819.637573,1172.097656,818.109375C1175.717651,817.955383,1179.246704,819.268311,1181.886719,821.75L1182,825.046875C1181.79187,825.17511,1181.566895,825.274292,1181.328125,825.328125C1181.212646,825.354004,1181.094849,825.369263,1180.976563,825.367188L1180.800781,825.359375L1180.625,825.335938C1180.510254,825.310364,1180.397095,825.277954,1180.285156,825.242188C1179.940186,825.120117,1179.64502,824.888672,1179.433594,824.589844C1179.289063,824.732239,1179.172729,824.900391,1179.082031,825.082031C1178.987671,825.256409,1178.923828,825.444641,1178.875,825.636719L1178.824219,825.925781C1178.797729,826.225952,1178.819214,826.528442,1178.894531,826.820313C1179.134033,827.753235,1179.525146,828.640808,1180.054688,829.445313C1180.68689,830.440369,1181.254517,831.475098,1181.753906,832.542969C1181.841919,832.782715,1181.908813,833.029724,1181.953125,833.28125C1182.022217,833.596497,1182.022705,833.923157,1181.953125,834.238281C1181.917603,834.363037,1181.874634,834.485596,1181.816406,834.601563L1181.714844,834.765625C1181.595947,834.917786,1181.462402,835.057739,1181.3125,835.179688L1181.144531,835.285156C1182.697144,839.009521,1186.786987,840.985046,1190.671875,839.894531C1191.803101,839.232422,1192.970215,838.633972,1194.167969,838.101563C1195.19812,837.586304,1196.209229,837.033936,1197.199219,836.445313L1197.863281,836.003906L1197.824219,836.234375L1197.753906,836.453125C1197.596924,836.768127,1197.401978,837.062439,1197.175781,837.332031C1202.20166,835.547424,1207.507324,834.68042,1212.839844,834.773438L1227.96875,835.117188C1227.718506,835.18103,1227.477539,835.276428,1227.25,835.398438C1226.564453,835.752869,1226.001953,836.306274,1225.640625,836.988281L1225.839844,837.207031C1225.97937,837.338257,1226.136108,837.449036,1226.300781,837.546875L1226.5625,837.667969C1226.830078,837.773987,1227.114502,837.832581,1227.402344,837.832031C1227.994629,837.789429,1228.57605,837.649719,1229.121094,837.414063C1229.885132,837.107056,1230.583618,836.657654,1231.183594,836.09375C1234.881958,832.497131,1237.796265,828.174622,1239.746094,823.398438C1237.393677,824.347778,1235.386719,825.993042,1234,828.117188C1232.052856,828.40625,1230.07312,827.873169,1228.535156,826.644531C1229.890137,826.083862,1231.323975,825.737122,1232.785156,825.613281L1232.582031,825.382813L1232.425781,825.125L1232.316406,824.847656C1232.261963,824.657227,1232.241333,824.459595,1232.242188,824.261719C1232.246338,824.06134,1232.295166,823.865295,1232.371094,823.679688L1232.511719,823.40625L1232.855469,823.121094C1233.098511,822.949097,1233.363159,822.810974,1233.640625,822.703125C1234.289429,822.545471,1234.932861,822.36676,1235.570313,822.167969C1236.397217,821.937622,1237.108276,821.407043,1237.570313,820.683594L1237.765625,820.328125C1237.966309,819.854553,1238.103516,819.356873,1238.175781,818.847656C1238.297974,818.133118,1238.348877,817.408203,1238.328125,816.683594C1239.958496,817.399048,1241.846924,817.195374,1243.28125,816.140625C1244.798706,815.145264,1245.852051,813.582825,1246.214844,811.804688C1246.531128,810.479858,1246.602661,809.108398,1246.425781,807.757813C1246.354614,806.951599,1246.232666,806.150635,1246.0625,805.359375L1245.375,805.925781C1245.139893,805.931213,1244.904907,805.914795,1244.671875,805.882813C1243.038208,805.636719,1241.74353,804.375732,1241.449219,802.75C1240.390259,802.731201,1239.331055,802.749451,1238.273438,802.804688C1240.217529,806.846497,1238.529419,811.698669,1234.496094,813.660156C1232.561401,814.575928,1230.351074,814.722717,1228.3125,814.070313C1229.374146,814.652771,1230.276611,815.488098,1230.929688,816.507813C1230.859253,816.606873,1230.782837,816.701233,1230.703125,816.792969C1230.616089,816.872986,1230.5271,816.950928,1230.433594,817.023438C1230.241089,817.15094,1230.029907,817.246887,1229.808594,817.3125L1229.46875,817.371094L1229.121094,817.367188L1228.949219,817.34375C1228.773804,817.302612,1228.604248,817.240967,1228.441406,817.164063C1228.344116,817.118652,1228.249878,817.066895,1228.160156,817.007813C1228.073486,816.942932,1227.993408,816.870361,1227.914063,816.796875C1227.420288,817.143188,1227.062378,817.651794,1226.90625,818.234375L1226.832031,818.582031C1226.80249,818.820679,1226.807617,819.061646,1226.832031,819.300781C1224.48645,818.294434,1221.949707,817.811951,1219.398438,817.886719C1221.175171,816.912537,1222.296875,815.064758,1222.34375,813.039063C1222.39917,812.218079,1222.322998,811.393372,1222.113281,810.597656C1220.302368,812.187134,1219.148682,814.394714,1218.878906,816.789063C1218.335449,820.519897,1219.623413,824.283752,1222.335938,826.902344C1222.987183,827.479675,1223.714111,827.965576,1224.496094,828.347656C1223.715332,828.860168,1222.920898,829.351257,1222.113281,829.820313C1220.041382,829.122925,1218.336304,827.623596,1217.375,825.660156C1216.596802,824.176697,1216.300781,822.486816,1216.535156,820.828125L1216.316406,821.148438C1216.000854,821.546265,1215.579834,821.848877,1215.097656,822.007813C1214.732666,822.122437,1214.35022,822.171387,1213.96875,822.140625C1214.088867,824.636963,1214.202393,827.101196,1214.3125,829.597656L1214.3125,829.726563L1214.289063,829.847656C1214.235962,830.004395,1214.132813,830.139038,1213.992188,830.226563C1213.915649,830.261841,1213.836548,830.291138,1213.753906,830.308594C1213.531738,830.322083,1213.310181,830.288452,1213.097656,830.222656L1212.792969,830.09375C1212.595825,829.972168,1212.404663,829.841309,1212.21875,829.703125C1212.036499,829.554016,1211.871704,829.385254,1211.722656,829.203125C1211.582275,829.015198,1211.457886,828.815491,1211.371094,828.597656C1211.231201,828.270935,1211.154785,827.921265,1211.136719,827.566406C1210.908691,825.009399,1211.36731,822.437927,1212.464844,820.117188C1213.590332,817.602966,1215.120239,815.290344,1216.992188,813.269531C1214.814209,813.108948,1212.861084,814.600525,1212.433594,816.742188C1211.531738,813.808105,1208.904053,811.740479,1205.839844,811.558594C1208.783813,811.219116,1211.706421,810.714478,1214.59375,810.046875C1217.040894,809.441528,1219.383423,808.472412,1221.542969,807.171875C1224.369629,805.365417,1226.546387,802.703979,1227.753906,799.574219C1228.270508,798.104187,1228.459595,796.538757,1228.304688,794.988281C1227.531738,796.059814,1226.591919,797.000122,1225.523438,797.777344C1225.255493,797.954102,1224.959106,798.08313,1224.648438,798.164063C1224.105835,799.472107,1223.303589,800.656494,1222.289063,801.644531C1221.77478,802.093323,1221.198486,802.465271,1220.578125,802.75C1221.664429,800.12561,1223.290283,797.758728,1225.351563,795.804688L1225.34375,795.84375L1225.640625,795.484375C1225.647339,790.975769,1228.792969,787.080505,1233.199219,786.125C1231.338989,787.281494,1229.820435,788.912842,1228.800781,790.851563C1228.556641,791.392334,1228.41626,791.973999,1228.382813,792.566406C1229.189941,791.721558,1229.936401,790.82074,1230.617188,789.871094C1230.647827,789.975769,1230.672607,790.082153,1230.675781,790.191406L1230.675781,790.355469C1230.567017,791.067932,1230.330811,791.755188,1229.976563,792.382813C1229.640991,793.034363,1229.260864,793.661804,1228.839844,794.261719C1228.973755,794.478271,1229.140015,794.673462,1229.335938,794.835938C1232.021118,790.040405,1237.217651,787.208557,1242.703125,787.550781L1242.910156,787.519531L1243.101563,787.460938L1243.28125,787.371094C1243.389404,787.294556,1243.487427,787.205688,1243.582031,787.113281C1243.664063,787.006226,1243.733032,786.890198,1243.792969,786.769531C1243.935059,786.313965,1244.024536,785.843506,1244.054688,785.367188C1244.083496,784.707336,1244.084961,784.046631,1244.058594,783.386719C1244.0625,782.629639,1244.118042,781.873657,1244.230469,781.125C1244.369751,780.47876,1244.731812,779.902649,1245.25,779.492188L1245.375,779.429688C1245.50647,779.387512,1245.643555,779.368958,1245.78125,779.359375C1246.043091,779.329834,1246.308594,779.347839,1246.5625,779.417969C1247.600708,779.641663,1248.424438,780.436035,1248.671875,781.46875C1244.699097,785.185242,1242.957764,790.706848,1244.074219,796.03125C1245.700684,792.448059,1247.715576,789.054138,1250.082031,785.910156C1249.982056,786.005981,1249.856445,786.067444,1249.722656,786.101563L1249.480469,786.128906L1249.238281,786.101563L1249.007813,786.019531C1248.887817,785.968018,1248.776245,785.900635,1248.667969,785.828125C1248.522583,785.704041,1248.39917,785.556946,1248.304688,785.390625C1248.254395,785.272583,1248.208984,785.152466,1248.179688,785.027344C1248.144287,784.834717,1248.150879,784.636963,1248.191406,784.445313L1248.277344,784.074219C1248.355591,783.82959,1248.469482,783.598206,1248.609375,783.382813C1248.791504,783.062073,1249.005737,782.760681,1249.25,782.484375C1250.415649,780.927673,1251.718628,779.478699,1253.144531,778.15625C1254.272705,777.180298,1255.603149,776.466736,1257.039063,776.0625C1253.952026,785.08313,1249.480591,793.568665,1243.785156,801.214844C1245.09436,801.697205,1246.55481,801.538635,1247.726563,800.78125C1248.889526,800.080505,1249.885986,799.135254,1250.648438,798.011719C1251.516846,796.832275,1252.248535,795.558228,1252.832031,794.214844C1255.709839,787.725159,1258.559937,781.191833,1261.359375,774.667969C1262.522217,771.859558,1263.388794,768.9375,1263.945313,765.949219C1264.400146,763.04126,1264.28833,760.072815,1263.617188,757.207031C1262.97522,754.627625,1261.668701,752.261475,1259.828125,750.34375C1259.522461,750.039917,1259.199829,749.753723,1258.863281,749.484375C1259.150146,751.607422,1258.432129,753.742249,1256.921875,755.261719C1255.495239,756.808411,1253.452271,757.637207,1251.351563,757.515625C1253.544434,755.853577,1255.05957,753.452332,1255.617188,750.757813C1256.407471,747.485596,1255.772705,744.031616,1253.871094,741.253906L1253.511719,740.789063C1253.66333,742.078979,1253.019287,743.334778,1251.875,743.949219C1251.516357,744.144165,1251.124268,744.270142,1250.71875,744.316406C1251.555542,740.314758,1250.580688,736.148071,1248.054688,732.933594C1246.724121,740.052795,1242.160156,746.149292,1235.703125,749.429688C1240.79126,744.640137,1243.938232,738.145142,1244.542969,731.183594C1244.947388,726.874084,1244.3573,722.529236,1242.816406,718.484375C1241.882324,722.354736,1242.285034,726.427429,1243.960938,730.039063C1242.819702,730.196594,1241.68042,730.367126,1240.542969,730.550781C1240.08606,727.215271,1239.165894,723.959839,1237.808594,720.878906C1237.928589,722.509216,1237.785522,724.148071,1237.390625,725.734375C1236.984863,727.212891,1235.953735,728.441162,1234.566406,729.09375C1234.025635,729.325867,1233.443848,729.445801,1232.855469,729.453125C1232.483032,729.441101,1232.116699,729.34967,1231.785156,729.179688C1230.815918,725.87738,1230.914063,722.353699,1232.0625,719.109375L1234.054688,726.789063C1234.272461,726.577942,1234.463745,726.341675,1234.632813,726.089844C1235.120605,725.323792,1235.348022,724.420776,1235.273438,723.515625C1235.252563,722.511108,1235.067017,721.516724,1234.71875,720.574219C1234.016968,718.777283,1233.224365,717.017212,1232.34375,715.300781C1231.363159,713.023987,1229.956543,710.955505,1228.199219,709.207031C1227.268188,708.319824,1226.107788,707.709717,1224.847656,707.453125C1224.457397,707.409607,1224.064209,707.397766,1223.671875,707.414063z"/>
    <path transform="matrix(-1,0,0,-1,0,0)" style="stroke:#000000;stroke-width:0.05mm;fill:none" d="M1241.5,830.632813C1240.716431,830.681458,1239.981934,831.028198,1239.441406,831.597656C1238.783691,832.261963,1238.258667,833.044739,1237.886719,833.902344C1237.596436,834.532959,1237.365356,835.189209,1237.199219,835.863281C1237.179199,836.028503,1237.183594,836.195862,1237.214844,836.359375C1237.249512,836.52417,1237.321289,836.677429,1237.410156,836.820313C1238.728882,836.398926,1239.826294,835.46875,1240.453125,834.234375L1240.613281,833.898438C1240.808716,833.434143,1240.941772,832.94574,1241,832.445313L1243.726563,831.925781C1243.657593,831.763184,1243.568848,831.610229,1243.46875,831.464844L1243.300781,831.265625L1243.109375,831.089844L1242.894531,830.941406C1242.464478,830.71759,1241.984375,830.6073,1241.5,830.632813z"/>
    <path transform="matrix(-1,0,0,-1,0,0)" style="stroke:#000000;stroke-width:0.05mm;fill:none" d="M1246.632813,831.941406C1246.483398,831.950134,1246.334839,831.96991,1246.1875,831.996094C1245.749146,832.08197,1245.336548,832.268188,1244.984375,832.542969C1244.792603,832.723633,1244.641602,832.942261,1244.527344,833.179688C1248.352417,834.710632,1252.584961,834.892395,1256.527344,833.695313C1253.390259,832.417786,1250.017944,831.819336,1246.632813,831.941406z"/>
    <path transform="matrix(-1,0,0,-1,0,0)" style="stroke:#000000;stroke-width:0.05mm;fill:none" d="M1198.503906,826.199219C1197.63208,826.947815,1197.027466,827.960938,1196.792969,829.085938L1196.640625,829.160156L1196.511719,829.261719C1196.439819,829.340942,1196.371704,829.423645,1196.316406,829.515625L1196.257813,829.664063C1196.235352,829.769409,1196.223267,829.876648,1196.222656,829.984375C1196.239746,830.079224,1196.259766,830.173584,1196.289063,830.265625L1196.34375,830.375L1196.417969,830.476563L1196.503906,830.566406C1198.246216,829.7146,1199.2146,827.815125,1198.894531,825.902344L1198.503906,826.199219z"/>
    <path transform="matrix(-1,0,0,-1,0,0)" style="stroke:#000000;stroke-width:0.05mm;fill:none" d="M1174.082031,803.390625C1173.227783,805.011475,1173.25354,806.954102,1174.152344,808.550781L1174.40625,808.667969C1174.672241,808.757751,1174.958618,808.772888,1175.230469,808.703125C1175.407471,808.658386,1175.574707,808.583252,1175.730469,808.488281L1175.941406,808.324219L1176.121094,808.128906C1176.218872,807.982727,1176.302979,807.827881,1176.367188,807.664063L1176.425781,807.402344L1176.441406,807.125L1176.425781,806.949219L1176.367188,806.78125C1176.413208,806.548279,1176.43689,806.311646,1176.441406,806.074219C1176.428467,805.484802,1176.238892,804.913696,1175.902344,804.429688C1175.501831,803.829712,1174.932739,803.360168,1174.265625,803.085938L1174.082031,803.390625z"/>
    <path transform="matrix(-1,0,0,-1,0,0)" style="stroke:#000000;stroke-width:0.05mm;fill:none" d="M1179.9375,803.789063C1180.552612,805.9422,1182.546631,807.40625,1184.785156,807.347656C1184.303101,806.227478,1183.811523,805.108765,1183.3125,803.996094C1182.427124,803.868286,1181.548462,803.697632,1180.679688,803.484375L1179.839844,803.375L1179.9375,803.789063z"/>
    <path transform="matrix(-1,0,0,-1,0,0)" style="stroke:#000000;stroke-width:0.05mm;fill:none" d="M1253.136719,801.636719C1250.578735,802.385498,1248.194336,803.633606,1246.121094,805.308594C1249.422485,805.772034,1252.67688,804.197693,1254.367188,801.324219L1253.136719,801.636719z"/>
    <path transform="matrix(-1,0,0,-1,0,0)" style="stroke:#000000;stroke-width:0.05mm;fill:none" d="M1232.4375,802.628906C1231.201172,802.730347,1230.070801,803.363892,1229.335938,804.363281L1229.183594,804.582031C1229.084839,804.757874,1228.998413,804.940552,1228.9375,805.132813C1231.053955,805.821472,1233.359985,804.913513,1234.449219,802.972656C1233.821777,802.679138,1233.126831,802.561157,1232.4375,802.628906z"/>
    <path transform="matrix(-1,0,0,-1,0,0)" style="stroke:#000000;stroke-width:0.05mm;fill:none" d="M1154.0625,773.972656C1154.022705,775.335632,1154.233154,776.694824,1154.6875,777.980469C1155.222168,779.472961,1155.869385,780.922729,1156.625,782.316406C1158.717529,786.540894,1160.858398,790.741943,1163.046875,794.917969C1164.118652,796.923706,1165.470337,798.766785,1167.0625,800.390625C1167.456909,800.759644,1167.880493,801.096252,1168.328125,801.398438L1168.597656,801.503906L1168.875,801.558594L1169.152344,801.558594C1169.332886,801.529358,1169.510498,801.484253,1169.679688,801.414063L1169.917969,801.269531L1170.128906,801.082031L1170.304688,800.851563C1170.560181,800.448242,1170.762817,800.013977,1170.90625,799.558594C1171.309204,798.207092,1171.724609,796.859436,1172.152344,795.515625C1171.520996,795.056885,1170.906738,794.612427,1170.273438,794.15625C1170.127808,794.230774,1169.990723,794.320435,1169.859375,794.417969C1169.544556,794.656616,1169.292725,794.968689,1169.128906,795.328125L1169.039063,795.542969C1168.925903,795.835083,1168.875244,796.148071,1168.890625,796.460938L1168.910156,796.695313C1168.930298,796.855835,1168.968262,797.013306,1169.015625,797.167969C1169.087891,797.37207,1169.188721,797.564575,1169.3125,797.742188L1169.179688,797.859375L1169.03125,797.949219L1168.875,798.011719L1168.707031,798.046875C1168.594849,798.048523,1168.482544,798.045776,1168.371094,798.03125L1168.207031,797.980469L1168.046875,797.902344C1167.455688,797.518188,1166.965332,796.996765,1166.632813,796.375C1164.867798,792.836487,1163.292847,789.206177,1161.914063,785.5C1161.170044,783.233215,1160.309448,781.006348,1159.335938,778.828125C1158.615845,777.298035,1157.613403,775.917725,1156.382813,774.757813C1155.712036,774.174866,1154.947632,773.709412,1154.121094,773.382813L1154.0625,773.972656z"/>
    <path transform="matrix(-1,0,0,-1,0,0)" style="stroke:#000000;stroke-width:0.05mm;fill:none" d="M1202.347656,737.964844C1196.418091,738.197693,1190.905518,741.077942,1187.328125,745.8125C1186.944824,746.35614,1186.590332,746.919495,1186.265625,747.5L1186.34375,747.742188C1186.413452,747.892578,1186.501221,748.033325,1186.597656,748.167969C1186.700562,748.297058,1186.827515,748.403076,1186.960938,748.5L1187.175781,748.625L1187.410156,748.714844C1187.814819,748.831848,1188.237061,748.878052,1188.65625,748.835938C1189.343506,748.739197,1189.973022,748.403015,1190.445313,747.894531C1190.726929,747.623962,1190.977661,747.322876,1191.191406,746.996094C1191.582397,746.408203,1191.969482,745.816345,1192.351563,745.222656C1195.980347,739.978577,1203.069702,738.476318,1208.511719,741.800781C1209.966675,742.698547,1211.214966,743.894531,1212.175781,745.308594C1213.920654,747.635742,1216.544922,749.14386,1219.433594,749.484375C1227.686035,757.899841,1235.116943,767.083374,1241.625,776.910156C1242.046875,776.088928,1242.447021,775.256714,1242.824219,774.414063C1240.434937,772.096924,1239.166748,768.858765,1239.34375,765.535156C1237.292358,764.288269,1235.393921,762.805725,1233.6875,761.117188C1232.644287,760.112244,1231.628296,759.079102,1230.640625,758.019531C1226.902344,754.124146,1223.156982,750.197144,1219.441406,746.277344C1217.61084,744.34668,1215.593384,742.602112,1213.417969,741.070313C1210.157593,738.87207,1206.275635,737.783081,1202.347656,737.964844z"/>
    <path transform="matrix(-1,0,0,-1,0,0)" style="stroke:#000000;stroke-width:0.05mm;fill:none" d="M1182.230469,753.789063C1180.384277,756.681335,1178.585449,759.601135,1176.832031,762.550781C1175.822021,764.370483,1175.068848,766.321411,1174.59375,768.347656C1174.36853,769.03009,1174.04541,769.675781,1173.640625,770.269531C1173.348267,770.654907,1172.929565,770.923157,1172.460938,771.042969C1172.30542,771.084778,1172.145386,771.106323,1171.984375,771.109375C1170.96814,772.803711,1170.946777,774.9151,1171.929688,776.628906C1174.5625,772.387085,1177.232422,768.158081,1179.929688,763.957031C1181.173706,761.930969,1182.266724,759.815918,1183.199219,757.628906C1183.662964,756.469116,1184.023926,755.270752,1184.273438,754.046875C1183.824097,753.789795,1183.499756,753.359863,1183.382813,752.855469C1183.322021,752.551636,1183.334229,752.237427,1183.425781,751.941406L1182.230469,753.789063z"/>
    <path transform="matrix(-1,0,0,-1,0,0)" style="stroke:#000000;stroke-width:0.05mm;fill:none" d="M1162.230469,761.789063L1161.976563,761.792969C1161.807129,761.809265,1161.640625,761.845459,1161.476563,761.890625C1161.317261,761.944702,1161.163818,762.014099,1161.015625,762.09375C1160.79895,762.227722,1160.600586,762.389465,1160.433594,762.582031L1160.714844,762.570313C1160.903687,762.571411,1161.091675,762.591125,1161.277344,762.625C1161.741699,762.712463,1162.17395,762.9198,1162.542969,763.214844C1162.787842,763.399841,1163.021362,763.599304,1163.242188,763.8125C1164.010376,764.679077,1164.744019,765.575623,1165.441406,766.5C1167.251465,768.64447,1169.869263,769.942627,1172.671875,770.085938C1170.587524,767.650269,1168.307983,765.388672,1165.855469,763.324219C1164.902344,762.546387,1163.7677,762.023865,1162.558594,761.796875C1162.449341,761.790466,1162.339966,761.788513,1162.230469,761.789063z"/>
    <path transform="matrix(-1,0,0,-1,0,0)" style="stroke:#000000;stroke-width:0.05mm;fill:none" d="M1195.480469,751.75C1193.736572,751.948059,1191.995239,752.171997,1190.257813,752.421875C1190.347778,753.62738,1190.213867,754.839172,1189.863281,755.996094C1189.481689,757.308594,1189.043945,758.604187,1188.550781,759.878906C1188.108521,761.130554,1187.907593,762.454834,1187.960938,763.78125C1188.047852,764.662903,1188.402222,765.497375,1188.976563,766.171875C1189.242188,765.978821,1189.481812,765.753235,1189.695313,765.503906C1190.035034,765.073425,1190.276733,764.573853,1190.398438,764.039063C1190.641235,763.125671,1190.866577,762.207214,1191.074219,761.285156C1191.494385,759.69928,1192.633545,758.401672,1194.152344,757.78125C1195.152344,757.334412,1196.216064,757.046387,1197.304688,756.925781C1201.378052,756.576538,1205.478394,756.713013,1209.519531,757.332031C1210.271729,757.486267,1210.996094,757.752747,1211.671875,758.117188C1211.831299,758.215881,1211.984863,758.324158,1212.121094,758.453125C1212.256714,758.57959,1212.379639,758.719421,1212.480469,758.875C1212.689819,759.184082,1212.827271,759.535217,1212.894531,759.902344L1213.15625,759.710938C1213.422363,759.539673,1213.716797,759.415771,1214.027344,759.355469C1214.334351,759.280457,1214.654053,759.267517,1214.964844,759.324219L1215.28125,759.390625C1214.687744,758.043945,1214.463379,756.563477,1214.632813,755.101563C1214.790771,754.206909,1215.292236,753.408752,1216.027344,752.875C1216.514526,752.523438,1217.081299,752.300659,1217.675781,752.214844C1217.871582,752.185608,1218.070435,752.181335,1218.265625,752.214844C1215.546509,751.466919,1212.652344,751.685242,1210.074219,752.828125C1210.177612,753.034729,1210.299561,753.231628,1210.441406,753.414063L1210.671875,753.667969L1210.925781,753.894531C1211.105957,754.033691,1211.298584,754.155579,1211.5,754.261719C1211.707886,754.363159,1211.928589,754.433716,1212.152344,754.492188C1212.101929,755.330261,1212.043335,756.166931,1211.976563,757.003906C1210.499268,755.57251,1208.593506,754.664124,1206.550781,754.421875C1205.278931,754.216919,1203.987183,754.166321,1202.703125,754.269531C1200.636963,754.484497,1198.577515,754.75946,1196.527344,755.09375C1195.293335,755.240356,1194.051147,755.307373,1192.808594,755.292969L1197.191406,751.484375L1195.480469,751.75z"/>
    <path transform="matrix(-1,0,0,-1,0,0)" style="stroke:#000000;stroke-width:0.05mm;fill:none" d="M1154.824219,757.605469C1155.063721,760.140076,1156.706055,762.327026,1159.074219,763.261719C1159.30896,762.873779,1159.553589,762.492065,1159.808594,762.117188C1158.938232,761.894165,1158.171265,761.377319,1157.640625,760.652344C1157.067993,759.967468,1156.594238,759.205872,1156.230469,758.390625C1156.108276,758.178406,1155.964722,757.979126,1155.796875,757.800781C1155.682983,757.686157,1155.561401,757.579468,1155.433594,757.480469C1155.237305,757.335266,1155.026123,757.211121,1154.800781,757.117188L1154.824219,757.605469z"/>
    <path transform="matrix(-1,0,0,-1,0,0)" style="stroke:#000000;stroke-width:0.05mm;fill:none" d="M1218.660156,757.015625C1218.306519,757.041687,1217.9552,757.093445,1217.609375,757.171875C1217.529053,758.232849,1217.911621,759.275208,1218.652344,760.039063L1218.992188,760.339844C1220.381714,760.224731,1221.761353,760.011719,1223.121094,759.703125C1223.651978,759.607178,1224.188232,759.543091,1224.726563,759.507813C1223.202148,757.778809,1220.959717,756.856689,1218.660156,757.015625z"/>
    <path transform="matrix(-1,0,0,-1,0,0)" style="stroke:#000000;stroke-width:0.05mm;fill:none" d="M1158.242188,742.613281L1157.472656,747.902344C1157.421387,748.330688,1157.271484,748.740845,1157.046875,749.109375L1156.925781,749.226563C1156.831543,749.283875,1156.729736,749.325745,1156.625,749.359375L1156.457031,749.375C1156.437622,751.261536,1157.286865,753.052063,1158.753906,754.238281C1159.753174,755.122437,1160.925659,755.789612,1162.199219,756.1875C1163.567139,756.656067,1164.985962,756.960388,1166.425781,757.09375C1167.879639,757.247803,1169.335205,757.380554,1170.792969,757.492188L1173.175781,757.742188C1173.54187,757.780945,1173.911499,757.753479,1174.269531,757.667969C1174.627808,757.580139,1174.96875,757.434143,1175.28125,757.238281C1175.38623,757.132385,1175.47583,757.012085,1175.535156,756.875L1175.582031,756.65625L1175.566406,756.429688C1174.547485,756.200073,1173.523682,755.991821,1172.496094,755.804688C1172.331787,755.24707,1172.142578,754.697144,1171.929688,754.15625C1174.322876,753.962036,1176.717651,753.786255,1179.113281,753.628906C1179.520386,753.589478,1179.910889,753.447571,1180.25,753.21875C1180.454102,753.082092,1180.640259,752.920288,1180.800781,752.734375C1180.858398,752.631226,1180.892334,752.518005,1180.914063,752.402344L1180.90625,752.226563L1180.855469,752.054688C1174.947144,752.686462,1169.158936,750.072998,1165.726563,745.222656C1164.754028,743.688904,1163.78894,742.149475,1162.832031,740.605469C1162.040039,739.344299,1160.937378,738.308044,1159.632813,737.589844C1159.414917,737.478699,1159.18689,737.388672,1158.953125,737.316406L1158.242188,742.613281z"/>
    <path transform="matrix(-1,0,0,-1,0,0)" style="stroke:#000000;stroke-width:0.05mm;fill:none" d="M1160.585938,743.5C1161.969238,746.856873,1164.239014,749.774719,1167.152344,751.941406L1167.113281,752.101563C1167.033691,752.364197,1166.87085,752.594788,1166.644531,752.75C1166.551147,752.808777,1166.453125,752.859314,1166.351563,752.902344C1162.953491,751.856445,1160.524292,748.86084,1160.199219,745.320313C1160.122681,744.490662,1160.165527,743.654602,1160.320313,742.835938L1160.585938,743.5z"/>
    <path transform="matrix(-1,0,0,-1,0,0)" style="stroke:#000000;stroke-width:0.05mm;fill:none" d="M1173.390625,708.308594C1173.289917,708.328247,1173.187866,708.338684,1173.085938,708.355469L1172.9375,708.40625C1172.696777,708.504578,1172.489868,708.667847,1172.328125,708.871094L1172.605469,709.066406C1173.225342,709.562927,1173.65564,710.259827,1173.808594,711.039063C1174.048096,711.918213,1174.178955,712.823364,1174.199219,713.734375C1174.246094,714.629333,1174.372681,715.518311,1174.578125,716.390625C1174.780273,717.101074,1175.098389,717.773682,1175.527344,718.375C1176.034912,719.322144,1176.320923,720.371765,1176.367188,721.445313C1176.411621,722.733093,1176.325562,724.022034,1176.113281,725.292969C1175.846436,726.872925,1175.685791,728.468872,1175.632813,730.070313C1175.642456,731.064453,1175.814941,732.050293,1176.144531,732.988281C1175.69397,733.093994,1175.237427,733.172363,1174.777344,733.222656C1174.35791,731.586182,1173.196411,730.240356,1171.640625,729.582031C1173.393677,736.110718,1176.990479,741.996338,1182,746.535156C1178.251343,747.274841,1174.449585,745.538452,1172.550781,742.222656C1172.240845,741.711548,1171.882568,741.231384,1171.480469,740.789063C1171.372681,740.695496,1171.258423,740.609619,1171.136719,740.535156C1170.955933,740.424377,1170.766357,740.328003,1170.5625,740.269531C1170.427002,740.226807,1170.28894,740.19281,1170.148438,740.171875C1169.270386,740.038452,1168.470459,739.595032,1167.886719,738.925781L1167.632813,738.613281C1166.845703,737.505615,1166.293457,736.248108,1166.015625,734.917969C1165.875122,734.33606,1165.759521,733.748413,1165.671875,733.15625L1165.496094,733.117188L1165.324219,733.113281L1165.152344,733.140625C1165.046997,733.17926,1164.946045,733.227844,1164.847656,733.28125L1164.714844,733.394531C1164.397217,733.821228,1164.205078,734.326599,1164.148438,734.855469L1164.136719,735.269531C1164.564209,741.55542,1169.047607,746.824219,1175.183594,748.253906C1177.015869,748.722412,1178.884521,749.034912,1180.769531,749.1875C1181.652222,749.333801,1182.549438,749.369934,1183.441406,749.300781L1183.675781,749.226563L1183.894531,749.117188C1184.033447,749.029175,1184.156738,748.920227,1184.273438,748.804688C1183.761108,748.634888,1183.251709,748.46759,1182.738281,748.300781C1182.560181,747.175476,1182.351563,746.055481,1182.113281,744.941406C1179.984375,741.572021,1178.065308,738.074463,1176.367188,734.46875C1176.809326,734.412231,1177.245239,734.316284,1177.671875,734.1875C1177.60498,734.020752,1177.545532,733.851196,1177.492188,733.679688C1177.156128,732.466919,1177.389526,731.166809,1178.128906,730.148438C1178.74646,729.912231,1179.373047,729.7005,1180.007813,729.515625C1179.602905,726.71167,1179.508545,723.871521,1179.726563,721.046875C1180.945435,721.753784,1181.885132,722.856567,1182.390625,724.171875C1182.903809,725.424255,1183.228394,726.745911,1183.351563,728.09375C1183.449219,728.833923,1183.513184,729.578186,1183.542969,730.324219C1183.537842,731.09668,1183.268188,731.842529,1182.785156,732.445313L1182.671875,732.546875L1182.546875,732.621094C1182.4552,732.649353,1182.364868,732.680725,1182.269531,732.695313L1182.125,732.691406L1181.984375,732.667969L1181.847656,732.613281L1181.71875,732.535156L1181.617188,732.84375C1181.554321,733.154358,1181.570801,733.475647,1181.667969,733.777344C1181.737183,733.974548,1181.833496,734.161499,1181.964844,734.324219L1182.1875,734.554688L1182.457031,734.742188L1182.792969,734.871094C1183.539063,733.831421,1184.116455,732.680542,1184.503906,731.460938C1184.799561,733.581726,1185.392456,735.650269,1186.265625,737.605469L1186.46875,737.507813C1186.595825,737.437866,1186.716797,737.357544,1186.832031,737.269531C1187.110229,737.043823,1187.336792,736.759949,1187.484375,736.433594C1187.541748,736.304688,1187.585693,736.170593,1187.625,736.035156C1187.726196,735.610962,1187.718018,735.168091,1187.59375,734.75C1187.542969,734.588623,1187.472534,734.433838,1187.378906,734.292969C1187.294434,734.147278,1187.182861,734.020264,1187.0625,733.902344C1186.541504,729.39209,1187.12854,724.82312,1188.769531,720.589844L1190.992188,719.398438L1191.070313,719.277344L1191.109375,719.144531L1191.105469,719.003906C1191.053101,718.869019,1190.988403,718.739563,1190.917969,718.613281C1190.805542,718.457458,1190.666382,718.323242,1190.507813,718.214844L1190.25,718.085938C1189.177612,717.703369,1188.071045,717.424622,1186.945313,717.253906C1185.76001,717.050354,1184.612305,716.667725,1183.542969,716.117188C1183.241455,715.9422,1182.96521,715.727051,1182.71875,715.480469C1182.10083,714.871948,1181.670654,714.097839,1181.488281,713.25C1181.431519,713.012024,1181.404419,712.767761,1181.417969,712.523438C1181.432983,712.386902,1181.455811,712.251526,1181.484375,712.117188C1181.579834,711.785034,1181.733887,711.472778,1181.945313,711.199219L1178.328125,710.003906L1174.71875,708.8125L1174.585938,708.683594C1174.491943,708.60498,1174.386719,708.542664,1174.28125,708.480469L1174.117188,708.40625L1173.941406,708.351563L1173.761719,708.316406C1173.638672,708.299255,1173.514404,708.300354,1173.390625,708.308594z"/>
    <path transform="matrix(-1,0,0,-1,0,0)" style="stroke:#000000;stroke-width:0.05mm;fill:none" d="M1196.457031,708.421875C1196.291992,708.427124,1196.127441,708.446655,1195.96875,708.492188C1195.580566,708.612061,1195.240845,708.850647,1194.992188,709.171875L1194.855469,709.382813C1196.945313,710.414673,1199.042358,711.463257,1201.121094,712.515625C1201.978027,712.940247,1202.778442,713.470581,1203.503906,714.09375C1204.273315,714.862915,1204.932251,715.734985,1205.464844,716.683594C1205.898804,717.458801,1206.425659,718.178162,1207.03125,718.828125C1207.86438,719.570923,1208.740967,720.26355,1209.65625,720.902344C1211.618164,722.413757,1213.107178,724.453674,1213.953125,726.78125C1214.739502,728.831299,1215.287109,730.965332,1215.585938,733.140625C1215.750122,734.188293,1215.893433,735.239563,1216.015625,736.292969C1217.587158,732.858887,1217.485352,728.891113,1215.738281,725.542969C1217.078125,725.599365,1218.318115,726.26825,1219.097656,727.359375L1215.792969,719.84375C1215.585449,720.057739,1215.3573,720.250732,1215.113281,720.421875C1214.747314,719.152161,1214.038208,718.008301,1213.0625,717.117188C1213.266968,717.939392,1213.268433,718.799194,1213.0625,719.621094C1211.483154,719.008301,1209.905029,718.380981,1208.335938,717.742188L1208.253906,717.433594C1208.115723,716.704102,1208.287476,715.949402,1208.738281,715.359375C1205.643066,713.254761,1202.508545,711.208862,1199.335938,709.222656L1199.042969,709.058594C1198.341187,708.708252,1197.581543,708.488892,1196.800781,708.414063L1196.457031,708.421875z"/>
    <path transform="matrix(-1,0,0,-1,0,0)" style="stroke:#000000;stroke-width:0.05mm;fill:none" d="M1205.953125,731.40625C1206.265137,731.996948,1206.603149,732.573608,1206.96875,733.132813L1207.265625,733.734375C1208.117676,732.045227,1208.001831,730.030273,1206.96875,728.445313L1205.953125,731.40625z"/>
    <path transform="matrix(-1,0,0,-1,0,0)" style="stroke:#000000;stroke-width:0.05mm;fill:none" d="M1164.992188,715.046875L1164.871094,717.515625C1164.832397,717.888672,1164.880737,718.266418,1165.023438,718.613281L1165.191406,718.949219L1165.328125,719.109375C1165.533691,718.896851,1165.717773,718.66449,1165.875,718.414063C1166.494019,717.451904,1166.726196,716.29071,1166.527344,715.164063C1166.476685,714.885132,1166.402222,714.611267,1166.308594,714.34375C1166.061157,713.660889,1165.646729,713.050842,1165.105469,712.566406L1164.992188,715.046875z"/>
    <path transform="matrix(-1,0,0,-1,0,0)" style="stroke:#000000;stroke-width:0.05mm;fill:none" d="M1191.222656,710.414063C1191.039795,710.43219,1190.859619,710.472839,1190.691406,710.546875L1190.527344,710.628906C1190.914063,711.509583,1191.314087,712.38501,1191.726563,713.253906C1191.88208,713.167603,1192.051392,713.108643,1192.226563,713.078125C1192.50415,713.020386,1192.790771,713.034912,1193.066406,713.101563L1193.386719,713.210938L1193.679688,713.378906C1193.770752,713.450134,1193.860352,713.523193,1193.945313,713.601563C1194.02478,713.689697,1194.098877,713.78241,1194.167969,713.878906L1194.261719,713.621094C1194.409424,713.295532,1194.638916,713.015259,1194.921875,712.796875C1195.063599,712.686096,1195.223511,712.601746,1195.390625,712.535156L1195.648438,712.453125C1195.645752,712.289978,1195.620361,712.127563,1195.558594,711.976563L1195.457031,711.761719C1195.292114,711.487732,1195.042725,711.27301,1194.742188,711.164063C1194.576782,711.111084,1194.404053,711.08728,1194.230469,711.085938L1194.164063,710.992188L1194.078125,710.917969L1193.984375,710.863281L1193.882813,710.824219C1193.73584,710.793945,1193.583496,710.811401,1193.449219,710.878906L1193.308594,710.972656C1193.263794,711.039734,1193.219849,711.107361,1193.191406,711.183594C1193.181641,711.238525,1193.185791,711.292725,1193.183594,711.347656L1193.207031,711.429688C1193.104858,711.259399,1192.985596,711.09967,1192.839844,710.964844C1192.408936,710.551758,1191.816406,710.3526,1191.222656,710.414063z"/>
</svg>
