<?xml version="1.0" encoding="UTF-8"?>
<svg xmlns="http://www.w3.org/2000/svg" width="590.001mm" height="329.384mm" viewBox="-953.546997 -778.224060 590.000610 329.384308">
    <path transform="matrix(-0.417005,0,0,-0.417005,-346.032135,-299.919312)" style="stroke:#000000;stroke-width:0.05mm;fill:none" d="M723.200012,1145.800049C721.330994,1143.930054,721.783997,1139.540039,724.156799,1136.527832C725.343018,1135.02002,729.372009,1131.829956,733.109619,1129.429688C740.86499,1124.459961,742.455994,1122.439941,743.971741,1115.647949C745.252014,1109.910034,746.958008,1106.430054,752.123413,1099C755.291992,1094.449951,756.396973,1091.439941,758.553833,1081.5C764.046021,1056.199951,758.866028,1043.599976,740.787781,1038.278809C736.677979,1037.069946,730.205994,1034.290039,726.40741,1032.099121C722.607971,1029.910034,715.450012,1026.699951,710.5,1024.971436C698.567993,1020.799988,690.95697,1016.469971,682.601624,1009.090393C678.807983,1005.73999,675.283997,1003,674.772217,1003C669.224976,1003,638.846985,986.057007,631,978.586853C627.947998,975.68103,621.71698,971.388,617,968.941284C609.023987,964.804016,570.29303,936.666992,552.5,922.084534C531.112,904.55603,503.040985,878.838013,495.805725,870.142639C492.438995,866.096008,486.791992,860.512024,483.256378,857.734131C479.721008,854.955994,475.079987,850.315979,472.942413,847.422058C470.804993,844.528992,466.539001,840.211975,463.463165,837.830566C460.386993,835.448975,455.476013,830.125,452.549957,826C449.623993,821.875,444.740997,816.474976,441.698914,814C438.493988,811.392029,433.958008,806.135986,430.91214,801.5C428.020996,797.099976,422.881012,790.575012,419.48877,787C416.096985,783.424988,412.074005,778.474976,410.549835,776C409.024994,773.525024,405.170013,768.799988,401.982697,765.5C398.795013,762.200012,394.158997,756.349976,391.680786,752.5C389.201996,748.650024,384.687988,742.395996,381.648102,738.602966C378.609009,734.809998,374.665985,728.960022,372.887268,725.602966C371.108002,722.245972,367.523987,717.025024,364.92276,714C362.321014,710.974976,355.127014,700.400024,348.934601,690.5C342.743011,680.599976,335.566986,669.125,332.989655,665C327.790009,656.679016,314.169006,633.177979,311.833862,628.5C311.01001,626.849976,306.191986,617.679993,301.127075,608.121948C296.062012,598.564026,290.757996,587.989014,289.341644,584.621948C287.924988,581.255005,284.627991,574.224976,282.015198,569C279.402008,563.775024,276.028992,555.900024,274.518341,551.5C270.73999,540.492981,265.458008,530.315002,262.780579,528.882568C257.917999,526.280029,248.449005,525.208008,202,522.002014C185.328003,520.851013,150.348007,517.627991,138,516.10553C127.400002,514.797974,122.165001,513.632019,108.5,509.530731C84.514297,502.333008,76.626297,498.466003,66.481537,488.933655C63.171398,485.822998,57.990799,481.882996,54.969128,480.177856C47.722,476.088013,42,470.756012,42,468.093689C42,463.992004,46.009399,463.373993,56.819881,465.812317C67.623703,468.248993,70.224098,468.416992,76.307182,467.074524C78.613197,466.56601,84.324997,465.661987,89,465.06665C110.458,462.334015,113.866997,461.631012,121.992371,458.265045C126.671997,456.326996,134.210999,453.662994,138.746033,452.347198C143.281006,451.031006,151.559006,447.67099,157.139755,444.881775C175.697006,435.605988,193.847,429.998993,205.312057,430.000824C212.320007,430.002014,223.634003,432.151001,231.870071,435.045593C240.438995,438.057007,243.936996,437.678986,249.109207,433.181488C254.410004,428.571014,261.082001,423.993011,266.521484,421.233093C268.733002,420.110992,273.007996,417.335999,276.021484,415.067474C282.899994,409.889008,298.38501,401.946991,307.279846,399.035736C311.035004,397.807007,318.173004,394.102997,323.279846,390.7341C328.351013,387.388,336.049011,383.144012,340.386749,381.30127C344.723999,379.459015,349.898987,376.67099,351.886749,375.106262C353.873993,373.540985,357.975006,370.763,361,368.932129C364.024994,367.101013,368.903992,363.666992,371.841675,361.301575C377.591003,356.671997,380.757996,355.970001,383.289063,358.766907C385.201996,360.880005,392,385.085999,392,389.782379C392,394.484009,389.269012,407.221008,386.377991,416C378.338989,440.411987,358.592987,470.449005,335.80777,492.925629C323.001007,505.558014,323.07901,508.001007,336.5,514.730774C346.606995,519.799011,358.739014,527.89801,367.167938,535.203003C371.200989,538.697998,376.988007,543.570007,380.029297,546.028931C392.990997,556.51001,397.733002,560.815002,424.052612,586C439.285004,600.575012,457.259003,617.450012,463.995819,623.5C470.733002,629.549988,479.451996,637.429016,483.372314,641.008545C495.234009,651.840027,500.596008,656.101013,522.997192,672.498108C546.252991,689.520996,560.138977,697.320984,581.994995,705.638062C597.513,711.544006,630.268005,721.179016,647.894226,725.024475C655.810974,726.752014,666.611023,729.500977,671.894226,731.135498C677.177002,732.77002,688.64801,735.664978,697.385437,737.57019C706.122009,739.474976,717.596985,742.106018,722.885437,743.417053C732.263,745.742004,741.822998,747.257019,755,748.507202C766.862,749.632996,790.276001,753.059021,807.5,756.190247L824.5,759.280396L847.5,758.076416C864.502014,757.185974,876.877991,757.143982,894.953735,757.915405L919.407532,758.958252L927.453735,756.410217C934.578003,754.153992,936.531006,753.937012,944.5,754.515808C952.413025,755.090027,954.570984,754.856995,962.361877,752.584717C970.117004,750.322998,973.064026,750,985.96582,750C1000.23999,750,1000.789978,749.921997,1003.364075,747.53833C1004.830017,746.184021,1006.469971,743.905029,1007.010193,742.473206C1008.679993,738.073975,1008.219971,717.088989,1006.321411,710.931519C1005.22998,707.416016,1004.609985,701.796021,1004.562622,695C1004.48999,684.903015,1004.359985,684.309998,1001.237671,679.548828C996.849976,672.853027,994.05603,665.034973,993.409119,657.641052C992.578003,648.146973,992.387024,647.685974,986.575806,641.17334C979.237,632.947998,976.328979,627.713989,974.65094,619.71106C972.984009,611.760986,972.393005,610.94397,965.409546,606.948242C959.059021,603.315002,955.73999,599.106995,956.18335,595.252075C956.437988,593.038025,957.275024,592.247009,960.464111,591.205688C964.304016,589.952026,964.710999,590.054016,973.464111,594.455811C982.013,598.755005,982.945984,599,990.782104,599.000183C1000.159973,599,1003.140015,599.97998,1011.986084,605.990601C1015.340027,608.265991,1021.869995,611.869995,1026.5,614C1039.47998,619.96698,1045.439941,624.588013,1062.252319,641.689636C1088.209961,668.103027,1104.050049,687.877991,1116.339478,709.231628C1121.030029,717.382996,1122.079956,717.492981,1143.795044,712.096741C1152.430054,709.950012,1163.780029,707.424988,1169,706.485168C1174.219971,705.546021,1183.449951,703.71698,1189.5,702.421387C1195.550049,701.125977,1203.890015,699.656006,1208.040771,699.155762C1212.619995,698.604004,1217.579956,697.234985,1220.6521,695.67627C1223.439941,694.263,1228.819946,692.58197,1232.611328,691.940918C1236.400024,691.299988,1242.569946,689.445007,1246.319824,687.820679C1250.069946,686.195984,1255.869995,684.427002,1259.206177,683.889404C1262.540039,683.35199,1268.339966,681.323975,1272.095459,679.381592C1276.829956,676.929016,1281.449951,675.469971,1287.209106,674.603516C1292.76001,673.768982,1297.51001,672.299988,1301.588501,670.160828C1304.939941,668.403015,1311.089966,666.312988,1315.258301,665.514893C1321.22998,664.372009,1324.420044,663.030029,1330.299805,659.194275C1335.569946,655.752991,1339.630005,653.940979,1344.130005,653.01886C1352.829956,651.237,1355.670044,649.973022,1362.794678,644.730103C1372.189941,637.812012,1382.319946,634.005981,1393.858887,633.062378C1402.219971,632.377991,1404.599976,631.734985,1411.764771,628.224854C1426.800049,620.859009,1439.339966,620.476013,1449.305176,627.078796C1455.060059,630.890991,1457.390015,635.617004,1456.753784,642.21106C1456.01001,650.002991,1452.780029,653.840027,1436.601929,666.185791C1435.01001,667.401978,1430.72998,672.190979,1427.101929,676.826843C1419.660034,686.328003,1407.97998,696.187012,1397.865234,701.501526C1389.790039,705.744995,1385.449951,709.221008,1383.485107,713.028809C1381.609985,716.64801,1380.02002,730.729004,1379.988403,744C1379.949951,757.174988,1378.650024,766.333008,1375.922363,772.612C1374.75,775.299988,1373.219971,782.150024,1372.506958,787.834106C1371.329956,797.221008,1370.859985,798.66803,1367.358276,803.620361C1361.900024,811.333984,1361.310059,812.632019,1359.638184,820.658875C1357.680054,830.044983,1355.949951,833.198975,1348.449463,841C1344.51001,845.101013,1341.030029,849.987976,1339.033813,854.240295C1336.660034,859.286011,1334.339966,862.302979,1329.800171,866.240295C1326.459961,869.132996,1321.939941,874.330994,1319.752197,877.791321C1316.98999,882.158997,1313.97998,885.296021,1309.92627,888.050049C1306.709961,890.231995,1302.73999,893.968994,1301.100708,896.353577C1297.26001,901.939026,1292.170044,906.374023,1286.037598,909.480896C1282.800049,911.122986,1279.599976,913.97699,1276.53772,917.950989C1272.689941,922.950012,1270.650024,924.549988,1264.213135,927.602478C1259.969971,929.61499,1254.109985,933.447021,1251.183105,936.117981C1248.26001,938.789001,1241.959961,943.002991,1237.183105,945.482727C1232.410034,947.961975,1224.449951,952.911011,1219.5,956.481445C1209.27002,963.857971,1181.400024,978.070984,1166.5,983.503235C1150.329956,989.401001,1132.349976,996.758972,1119.544678,1002.722107C1108.540039,1007.849976,1106.829956,1008.340027,1098.044678,1008.979919C1089.349976,1009.609985,1087.699951,1010.080017,1079.5,1014.260071C1069.569946,1019.320007,1060.859985,1021.98999,1044.472778,1025.005005C1038.48999,1026.099976,1025.829956,1029.030029,1016.33313,1031.501465C1002.080017,1035.209961,997.502991,1036,990.102173,1036C982.656006,1036,979.784973,1036.5,973.162598,1038.940063C959.708008,1043.900024,951.083984,1045.280029,938,1044.549561C928.799988,1044.040039,925.599976,1044.22998,922,1045.503174C915.198975,1047.910034,909.695007,1048.97998,898.768738,1050.022095C893.307007,1050.540039,886.961975,1051.530029,884.669006,1052.213989C879.119995,1053.869995,873.578003,1059.599976,867.518433,1069.956177C857.200012,1087.579956,844.89502,1100.02002,825,1112.937988C812.848022,1120.829956,804.953979,1124.589966,787,1131.03479C773.458008,1135.900024,771.674011,1136.290039,760,1136.942749C749.674988,1137.52002,746.869019,1138.030029,743.873474,1139.847778C739.520996,1142.48999,728.263977,1147,726.010376,1147C725.125,1147,723.859985,1146.459961,723.200012,1145.800049z"/>
    <path transform="matrix(-0.417005,0,0,-0.417005,-346.032135,-299.919312)" style="stroke:#000000;stroke-width:0.05mm;fill:none" d="M782.614258,1117.476685C801.380005,1111.209961,804.919006,1109.569946,817.5,1101.262817C835.905029,1089.109985,845.66803,1079.099976,854.498352,1063.319946C865.461975,1043.719971,873.916016,1038.310059,897.148254,1036.007935C909.942017,1034.73999,916.887024,1032.819946,919.727966,1029.768066C922.63501,1026.640015,925.294983,1015.789978,924.937256,1008.5C924.062012,990.661011,924.257996,989.18103,929.442444,974.57489C935.346008,957.940979,938.664001,952.609009,945.732178,948.389954C952.69397,944.234985,959.539001,943.057007,977.5,942.923889C995.231995,942.791992,998.544983,942.114014,1002.68573,937.769348C1009.900024,930.19397,1011,927.531006,1011,917.556213C1011,909.106018,1011.22998,908.025024,1013.978027,903.695801C1015.619995,901.112976,1017.330017,899,1017.776611,899C1018.22998,899,1020.440002,897.228027,1022.694519,895.062866C1026.359985,891.536987,1027.02002,890.155029,1028.928833,881.844666C1031.51001,870.635986,1034.150024,865.89502,1041.577515,859.103149C1054.449951,847.335022,1062.400024,843.986023,1077.339111,844.021973C1088.199951,844.047974,1092.51001,845.664978,1098.5,851.965515C1105.849976,859.687988,1117.560059,863.687988,1128.892578,862.346436C1142.969971,860.679993,1147.469971,862.664978,1154.556763,873.686401C1156.390015,876.539001,1158.839966,879.379028,1159.99585,879.997803C1162.880005,881.54303,1168.569946,879.591003,1170.712158,876.316589C1172.23999,873.97699,1172.22998,873.585999,1170.517944,870.403442C1168.290039,866.27301,1165.400024,864.023987,1152.792847,856.628296C1137.640015,847.737,1137.170044,847.60199,1128.461792,849.540649C1116.790039,852.137024,1112.209961,850.463013,1102.024902,839.885254L1095.394287,833L1077.322144,833C1067.380005,833,1057.76001,833.299011,1055.927856,833.664429C1053.930054,834.064026,1050.98999,835.984009,1048.552856,838.482788C1046.319946,840.767029,1039.939941,846.299011,1034.356689,850.775024C1021.109985,861.403992,1020.440002,862.31897,1019.635803,871.008728C1018.72998,880.747009,1017.219971,883.817993,1009.09613,892.398499C1001.51001,900.409973,1001.359985,900.778992,1000.647583,912.133484C1000.119995,920.65802,998.526001,924.538025,994.00647,928.341064C989.862976,931.828003,986.060974,932.366028,971.179871,931.573669C958.708984,930.909973,958.362,930.948975,950.150269,933.975098C938.484985,938.27301,936.703003,939.328003,930.558044,945.57251C924.859009,951.362976,923.026001,955.231018,921.117676,965.494812C920.505005,968.791992,918.106018,975.177979,915.787842,979.686096L911.572754,987.882507L912.786377,994.959839C915.588013,1011.299988,913.799011,1018.679993,906,1022.962891C902.041992,1025.140015,900.072021,1025.469971,889.646118,1025.714966L877.792175,1025.993408L866.455811,1033.027466C853.921021,1040.810059,851.598022,1043.27002,844.515625,1056.358032C835.421021,1073.160034,825.234985,1083.550049,807.5,1094.134888C788.922974,1105.219971,786.057983,1106.280029,775.026489,1106.125977C765.711975,1106,765.291992,1106.089966,762.812317,1108.746826C755.974976,1116.079956,756.440002,1122.869995,763.784973,1122.969604C765.041992,1122.98999,773.515015,1120.51001,782.614258,1117.476685z"/>
    <path transform="matrix(-0.417005,0,0,-0.417005,-346.032135,-299.919312)" style="stroke:#000000;stroke-width:0.05mm;fill:none" d="M790.707153,1087.366455C814.567993,1074.790039,821.877014,1067.5,835.385864,1042.788574C840.737976,1033,847.099976,1026.969971,857.726013,1021.637573C862.685974,1019.150024,867.026978,1016.369995,867.372253,1015.472412C869.572021,1009.73999,866.479004,1006.400024,859.798828,1007.300171C849.434021,1008.690002,830.684998,1025.390015,823.079895,1040.005371C816.601013,1052.459961,811.877991,1059.040039,804.801147,1065.464233C796.963013,1072.589966,791.218018,1075.540039,783.5,1076.429321C774.838989,1077.420044,773.969971,1077.829956,772.408691,1081.564209C770.580994,1085.939941,770.627991,1088.47998,772.571411,1090.428589C775.468018,1093.329956,781.252991,1092.349976,790.707153,1087.366455z"/>
    <path transform="matrix(-0.417005,0,0,-0.417005,-346.032135,-299.919312)" style="stroke:#000000;stroke-width:0.05mm;fill:none" d="M787.287354,1060.853394C794.223999,1057.310059,801.945007,1048.469971,807.991028,1037.140503C815.156982,1023.710022,821.927002,1014.940002,831.02655,1007.294678C840.606018,999.247009,848.710999,995.176025,857.851563,993.819336C865.823975,992.635986,869.697021,990.508972,874.302002,984.78717C876.995972,981.439026,877.374023,980.062988,878.145569,970.78717C879.296021,956.95697,881.129028,951.630005,887.477173,943.663879C890.393982,940.002991,893.05603,935.913025,893.392151,934.573608C894.275024,931.057007,892.465027,927.155029,889.620117,926.440796C886.461975,925.64801,880.526978,928.447021,878.100098,931.873291C875.465027,935.593018,870.416016,951.958008,868.505493,962.968323C866.666016,973.56897,864.33197,978.896973,860.397766,981.475037C858.903015,982.453979,853.656006,983.856995,848.737488,984.591431C840.778015,985.780029,839.302002,986.343994,835.31897,989.713684C832.856995,991.796021,828.065979,995.112976,824.671692,997.083557C820.304016,999.619995,817.622986,1002.059998,815.5,1005.434814C813.849976,1008.059998,809.5,1013.469971,805.834473,1017.459778C800.161987,1023.640015,798.854004,1025.780029,797.05426,1031.817749C794.304016,1041.050049,791.221985,1044.560059,782.259827,1048.641113C773.252991,1052.75,771.237976,1056.530029,775.277649,1061.75C776.765015,1063.670044,782.617981,1063.23999,787.287354,1060.853394z"/>
    <path transform="matrix(-0.417005,0,0,-0.417005,-346.032135,-299.919312)" style="stroke:#000000;stroke-width:0.05mm;fill:none" d="M775.406006,1036.733521C785.328003,1031.060059,786.205017,1021.599976,777.023315,1019.291321C772.14801,1018.070007,761,1026.719971,761,1031.724854C761,1034.01001,766.625,1039,769.173096,1038.983521C770.453003,1038.969971,773.257996,1037.959961,775.406006,1036.733521z"/>
    <path transform="matrix(-0.417005,0,0,-0.417005,-346.032135,-299.919312)" style="stroke:#000000;stroke-width:0.05mm;fill:none" d="M951.699829,1030.427002C962.122009,1028.27002,969.791016,1025.26001,971.109009,1022.796326C971.713989,1021.659973,972.369995,1017.159973,972.566711,1012.777527C973.213989,998.34198,977.078003,995.046021,994.744019,993.860474C1007.390015,993.012024,1015.320007,991.106018,1019.330627,987.95459C1021.969971,985.882019,1021.97998,985.817993,1021.869629,972.598938C1021.700012,951.836975,1024.310059,947.856995,1039,946.494202C1046.650024,945.783997,1048.27002,944.674011,1053.845337,936.330505C1062.560059,923.276001,1069.920044,921.825012,1080.488159,931.07489C1087.199951,936.945007,1090.890015,937.401001,1094.319946,932.785339C1096.109985,930.372986,1096.199951,929.627014,1095.143799,926.085571C1093.420044,920.346985,1089.709961,918.107971,1080.099854,917.011414C1075.709961,916.510986,1070.310059,915.177979,1068.099121,914.050537C1059.890015,909.86499,1055.859985,911.729004,1051.42627,921.762512C1047.060059,931.635986,1042.050049,935.249023,1031,936.498413C1023.150024,937.385986,1020.320007,938.736023,1016.023376,943.62616C1010.880005,949.489014,1009.73999,953.119019,1010.960815,959.745483C1013.179993,971.758972,1011.440002,977.65802,1004.612427,981.280884C1000.940002,983.22998,998.955994,983.463989,986,983.481018C978.025024,983.491028,970.934021,983.866028,970.242859,984.313416C967.846008,985.864014,966.143005,990.655029,965.000488,999.057068C962.968018,1014.01001,958.296997,1019,946.321411,1018.998474C939.689026,1019,937.484985,1020.219971,936.416443,1024.476807C936.093994,1025.76001,936.317017,1027.719971,936.912781,1028.837036C937.848022,1030.579956,938.984985,1031.119995,943.292175,1031.86377C943.728027,1031.939941,947.510986,1031.290039,951.699829,1030.427002z"/>
    <path transform="matrix(-0.417005,0,0,-0.417005,-346.032135,-299.919312)" style="stroke:#000000;stroke-width:0.05mm;fill:none" d="M747.452942,1023.3797C748.34198,1023.039978,750.448975,1020.75,752.135803,1018.302612C753.822021,1015.849976,757.629028,1012.289978,760.596069,1010.395386C767.140991,1006.210022,769.335022,1003.179993,768.431335,999.582581C767.685974,996.61499,764.505005,994,761.637939,994C760.583984,994,756.922974,996.838989,753.504089,1000.309326C749.297974,1004.580017,745.703979,1007.210022,742.393616,1008.442993C732.14801,1012.26001,730.067993,1017.580017,736.972534,1022.307983C739.466003,1024.01001,744.46698,1024.530029,747.452942,1023.3797z"/>
    <path transform="matrix(-0.417005,0,0,-0.417005,-346.032135,-299.919312)" style="stroke:#000000;stroke-width:0.05mm;fill:none" d="M1013.786926,1017.434998C1022.809998,1014.919983,1036.660034,1011.789978,1044.576172,1010.470581C1059.97998,1007.900024,1072.030029,1003.72998,1075.881592,999.626038C1080.869995,994.312988,1081.619995,979.320007,1077.400513,968.947327C1075.050049,963.161011,1074.869995,961.767029,1075.483398,954.357788C1076.109985,946.88501,1075.97998,945.982971,1074.082886,944.082886C1070.459961,940.460022,1065.199951,941.776978,1062.510376,946.97998C1060.319946,951.216003,1060.630005,954.658997,1063.921143,962.518921C1074.47998,987.765015,1066.76001,999.653992,1040.337524,998.820984C1030.859985,998.521973,1030.27002,998.632019,1024.150635,1001.82843C1016.690002,1005.72998,1007.140015,1007.960022,997.805786,1007.982727C989.711975,1008,985.939026,1010.429993,985.78894,1015.715271C985.567993,1023.48999,990.872986,1023.809998,1013.786926,1017.434998z"/>
    <path transform="matrix(-0.417005,0,0,-0.417005,-346.032135,-299.919312)" style="stroke:#000000;stroke-width:0.05mm;fill:none" d="M722,1009.5C723.047974,1006.73999,722.070007,1003.130005,719.755005,1001.211609C718.955994,1000.549988,715.870972,999.55603,712.900818,999.006104C700.723999,996.752991,699.611023,985.294006,711.232056,981.812317C719.94397,979.202026,726.03302,969.525024,728.103638,955C729.59198,944.557983,728.781006,938.622986,725.066101,932.76532C721.651001,927.380005,717.346008,925.369019,714.098999,927.64325C711.231018,929.651978,711.388,934.150024,714.601807,942.058289C716.700989,947.223999,717.127014,949.669006,716.805725,954.710083C716.301025,962.640991,713.039001,967.552979,704,973.998047C698.815979,977.69397,696.84198,979.901978,694.25,984.903503C692.463013,988.353027,691,992.492004,691,994.102051C691,998.268005,696.036987,1003.27002,705,1007.992126C714.333008,1012.909973,720.494019,1013.460022,722,1009.5z"/>
    <path transform="matrix(-0.417005,0,0,-0.417005,-346.032135,-299.919312)" style="stroke:#000000;stroke-width:0.05mm;fill:none" d="M895.385376,1010.8703C898.578979,1009.409973,900.413025,1004.929993,899.673889,1000.377686C897.640015,987.84198,886.302979,987.469971,880.804321,999.758423C879.163025,1003.429993,879.078979,1004.390015,880.199463,1006.729187C882.484009,1011.48999,889.698975,1013.460022,895.385376,1010.8703z"/>
    <path transform="matrix(-0.417005,0,0,-0.417005,-346.032135,-299.919312)" style="stroke:#000000;stroke-width:0.05mm;fill:none" d="M797.311462,1006.193115C803.437012,999.919983,803.963013,993.307007,798.532166,990.832703C795.130005,989.281982,789.190002,991.085999,785.092407,994.913635C779.028992,1000.580017,782.075989,1010,789.971375,1010C792.849976,1010,794.357971,1009.219971,797.311462,1006.193115z"/>
    <path transform="matrix(-0.417005,0,0,-0.417005,-346.032135,-299.919312)" style="stroke:#000000;stroke-width:0.05mm;fill:none" d="M946.256836,1004.928772C949.870972,1003.280029,951.070007,1000.51001,951.992676,991.648254C952.999023,981.987,954.200989,978.479004,957.813599,974.660706C963.47699,968.674988,969.44397,967.570007,986.114685,969.42395C993.166016,970.208008,993.887024,970.112976,995.864685,968.135315C998.577026,965.422974,998.633972,960.633972,995.984985,957.984985C994.106018,956.106018,993.112976,956.010986,981.234985,956.577881C951.38501,958.002991,950.255005,958.741028,941.851501,982.295288C937.435974,994.671021,936.903992,1000.900024,940,1004C942.296997,1006.299988,943.018982,1006.400024,946.256836,1004.928772z"/>
    <path transform="matrix(-0.417005,0,0,-0.417005,-346.032135,-299.919312)" style="stroke:#000000;stroke-width:0.05mm;fill:none" d="M737.874817,994.564758C743.942017,991.427002,747.539978,985.872009,751.358948,973.745728C755.45697,960.732971,755.63501,959.129028,753.447632,954.898743C750.77301,949.726013,745.517029,949.296997,742.976807,954.043335C742.388977,955.142029,741.492981,959.68103,740.985291,964.128967C740.007019,972.705017,737.101013,979.200989,732.686218,982.67688C729.085999,985.512024,726.861023,989.469971,727.665344,991.60907C729.27002,995.877014,733.158997,997.002991,737.874817,994.564758z"/>
    <path transform="matrix(-0.417005,0,0,-0.417005,-346.032135,-299.919312)" style="stroke:#000000;stroke-width:0.05mm;fill:none" d="M1112.474121,990.428772C1117.23999,987.914978,1123.920044,984.802979,1127.320068,983.514954C1130.719971,982.22699,1137.319946,979.515015,1142,977.488586C1146.680054,975.463013,1155.589966,972.036987,1161.813843,969.876709C1174.089966,965.616028,1199.689941,953.156006,1207.132446,947.819763C1209.680054,945.994019,1214.280029,942.544006,1217.350952,940.153687C1220.420044,937.763,1226.209961,934.473999,1230.216675,932.844849C1238.5,929.473999,1242,926.663025,1242,923.382385C1242,917.745972,1233.959961,916.528015,1223.275635,920.548218C1217.530029,922.711975,1215.300049,924.335022,1208.502808,931.298218C1200.930054,939.057983,1199.560059,939.973022,1183,948.291748C1168.540039,955.557007,1164.02002,957.351013,1157,958.623657C1147.310059,960.379028,1144.390015,961.586975,1137.83252,966.540771C1134.400024,969.132996,1131.319946,970.419983,1126.211182,971.393616C1121.72998,972.247986,1117.170044,973.994019,1113.378662,976.310303C1110.150024,978.286011,1105.25,980.435974,1102.5,981.088928C1096.140015,982.598022,1093,985.372986,1093,989.474304C1093,996.718994,1099.910034,997.057007,1112.474121,990.428772z"/>
    <path transform="matrix(-0.417005,0,0,-0.417005,-346.032135,-299.919312)" style="stroke:#000000;stroke-width:0.05mm;fill:none" d="M678.506042,985.748413C680.224976,984.27002,681.307983,982.122009,681.660706,979.49292C682.424011,973.802002,679.737,971.526001,672.146545,971.435364C662.921021,971.325012,662.481995,971.187012,656.445557,966.5C650.249023,961.687988,647.749023,961.085999,644.222534,963.556702C641.299988,965.604004,641.375,969.515991,644.391418,972.311768C647.450012,975.145996,671.926025,987.549011,675.194214,987.921082C675.575989,987.963989,677.065979,986.987,678.506042,985.748413z"/>
    <path transform="matrix(-0.417005,0,0,-0.417005,-346.032135,-299.919312)" style="stroke:#000000;stroke-width:0.05mm;fill:none" d="M820.656555,983.461121C827.736023,979.312988,829.840027,973.171021,825.75,968.593384C820.88501,963.148987,814.026978,965.179993,810.136536,973.218018C807.473999,978.718018,807.439026,981.439026,810,984C812.661011,986.661011,815.434998,986.520996,820.656555,983.461121z"/>
    <path transform="matrix(-0.417005,0,0,-0.417005,-346.032135,-299.919312)" style="stroke:#000000;stroke-width:0.05mm;fill:none" d="M1050.113647,983.939209C1053.77002,981.982971,1054.290039,978.323975,1052.001831,970.780029C1050.859985,967.005981,1049.040039,963.036011,1047.958618,961.958679C1045.380005,959.379028,1041.189941,959.471985,1038.314453,962.174316C1036.280029,964.08197,1036,965.29303,1036,972.039429C1036,981.825012,1037.98999,985,1044.138306,985C1046.329956,985,1049.02002,984.52301,1050.113647,983.939209z"/>
    <path transform="matrix(-0.417005,0,0,-0.417005,-346.032135,-299.919312)" style="stroke:#000000;stroke-width:0.05mm;fill:none" d="M783.833801,979.308533C793.96698,974.280029,795.671997,972.455994,801.663086,960.242432C804.169006,955.133972,804.208008,954.763,803.020813,947.133789C800.846985,933.161987,804.349976,924.017029,813.458618,919.879639C816.435974,918.526978,819.948975,918.038025,826.799683,918.021973C833.406006,918.005981,837.026001,917.526001,839.299683,916.362976C845.599976,913.140015,850.122986,908.700012,853.088318,902.825012C854.736023,899.562012,858.513,894.249023,861.482666,891.01886C867.844971,884.098022,868.114014,883.067993,868.336182,864.752258C868.481995,852.731995,868.289001,851.002991,866.595032,849.11853C864.692993,847.002991,859.651978,846.260986,857.399719,847.76532C854.536987,849.677002,854.023987,852.718018,855.650635,858.142944C858.419983,867.377014,857.849976,872.953003,853.184753,882.291626C843.754028,901.166992,837.302002,905.909973,817.647949,908.411743C804.445007,910.09198,797.72699,912.664978,795.6026,916.852417C793.83197,920.343018,793.004028,926.403015,792.037476,942.942688C790.859985,963.083984,788.382996,966.934021,775.565369,968.535095C768.281982,969.445007,765,972.197998,765,977.397827C765,981.338989,767.786011,984,771.912842,984C773.27002,984,778.63501,981.888977,783.833801,979.308533z"/>
    <path transform="matrix(-0.417005,0,0,-0.417005,-346.032135,-299.919312)" style="stroke:#000000;stroke-width:0.05mm;fill:none" d="M903.723694,973.335632C904.947021,971.153015,906.659973,966.585999,907.530334,963.187988C908.862976,957.987,908.905029,956.572998,907.799744,954.254395C905.890015,950.249023,900.89801,949.927979,897.503479,953.590759C892.953003,958.500977,890.31897,972.497986,893.25,976.193848C896.317993,980.062012,900.611023,978.890991,903.723694,973.335632z"/>
    <path transform="matrix(-0.417005,0,0,-0.417005,-346.032135,-299.919312)" style="stroke:#000000;stroke-width:0.05mm;fill:none" d="M850.042847,969.977112C852.924011,968.434998,853.969971,965.788025,855.544556,956.050903C856.333984,951.16803,858.109985,944.04303,859.490173,940.21582C862.401978,932.143005,862.596008,929.296021,860.443298,926.222534C858.322998,923.195984,852.997009,923.237976,849.426086,926.309937C846.848999,928.526978,846.736023,929.039978,846.6203,939.059937C846.502014,949.297974,846.427002,949.617004,842.75,955.519714C838.689026,962.038025,838.038025,966.280029,840.654968,969.171265C842.473999,971.18103,847.057007,971.575012,850.042847,969.977112z"/>
    <path transform="matrix(-0.417005,0,0,-0.417005,-346.032135,-299.919312)" style="stroke:#000000;stroke-width:0.05mm;fill:none" d="M1103,966.105957C1107.47998,962.875977,1106.27002,955.932983,1100.257202,950.36261C1092.959961,943.598999,1086.199951,952.656006,1090.125244,963.929321C1091.959961,969.18103,1097.449951,970.109985,1103,966.105957z"/>
    <path transform="matrix(-0.417005,0,0,-0.417005,-346.032135,-299.919312)" style="stroke:#000000;stroke-width:0.05mm;fill:none" d="M698.896423,960.46521C702.83197,955.981995,702.939026,951.838989,699.390808,941.271057C695.416992,929.434998,697.317017,919.911011,704.791016,914.210205C714.812012,906.567017,734.554993,915.440002,739.441956,929.783691C741.45697,935.697998,743.632019,938,747.205994,938C749.603027,938,750.369995,937.359009,751.656982,934.278564C753.807983,929.130981,753,921.692993,749.935486,918.431335C748.642029,917.054016,742.390015,912.952026,736.041809,909.314758C729.69397,905.677002,722.932983,901.643982,721.017883,900.350769C716.294006,897.161987,711.937012,897.382996,704.827393,901.172668C697.547974,905.052979,691.55603,911.559998,687.25,920.261169C683.367981,928.106018,683.281982,929.640991,686.37677,935.783264C689.830994,942.638977,690.247009,945.841003,688.59967,952.903137C686.666992,961.187012,687.622986,964,692.371643,964C695.036011,964,696.479004,963.218018,698.896423,960.46521z"/>
    <path transform="matrix(-0.417005,0,0,-0.417005,-346.032135,-299.919312)" style="stroke:#000000;stroke-width:0.05mm;fill:none" d="M633.717651,955.03064C638.747009,951.963989,646.151001,943.982971,650.128357,937.340027C653.421021,931.840027,654.484009,930.921021,661.628357,927.390137L669.5,923.5L674.5,914.019775C681.749023,900.275024,688.921021,892.991028,700.977356,887.129211C710.445007,882.526001,710.520996,882.460022,714.075256,875.697205C716.041992,871.955994,718.86499,867.68103,720.350403,866.19751C722.718018,863.83197,723.815979,863.505981,729.275208,863.545166C735.085022,863.586975,736.549011,864.137024,751.239075,871.795166C759.895996,876.307983,768.138,880,769.554871,880C775.148987,880,778.814026,875.880981,776.919373,871.722412C775.35498,868.288025,771.619995,866.414001,760.671814,863.569824C749.890991,860.768982,746.710022,859.349976,739.574829,854.15686C735.403992,851.122009,733.664001,850.51001,728.220337,850.163086L721.791077,849.753723L716.645508,855.557861C706.603027,866.885986,696.299988,876.546997,690.581299,880C675.919983,888.851013,675.739014,889.018982,671.374634,897.802917C666.630005,907.351013,665.413025,908.802979,654.387573,918.059143C649.926025,921.804993,643.710999,928.276001,640.577393,932.440308C634.348999,940.716003,630.637024,943.257996,624.899841,943.179199C618.046021,943.085022,609.041992,936.416016,602.949036,926.920593C600.257019,922.724976,598.578979,921.41803,591.643921,918.109558C579.338013,912.239014,558.14801,896.33197,551.445496,887.931702C548.031982,883.653015,543.166016,879.137024,538.710388,876.112183C529.887024,870.122009,527.10199,867.218994,522.788086,859.520935C520.945007,856.231995,518.289001,852.896973,516.885254,852.10907C514.609009,850.830994,513.908997,850.882996,510.416351,852.588196C505.95401,854.767029,504.791992,858.507019,507.359192,862.425476C508.906006,864.786011,523.504028,878.411011,544.547546,897.134827C560.244995,911.101013,565.505005,915.312012,577.5,923.513733C583,927.273987,591.325012,933.573975,596,937.514099C611.447998,950.53302,621.875977,957.002991,627.398926,956.996277C629.104004,956.994019,631.947998,956.109985,633.717651,955.03064z"/>
    <path transform="matrix(-0.417005,0,0,-0.417005,-346.032135,-299.919312)" style="stroke:#000000;stroke-width:0.05mm;fill:none" d="M673.389282,955.467834C677.229004,951.629028,675.677002,940.984009,671.063904,939.520264C668.070007,938.570007,662.905029,941.840027,660.556396,946.174011C658.692993,949.612,658.684998,949.870972,660.364685,952.433777C663.244019,956.828003,670.369019,958.487976,673.389282,955.467834z"/>
    <path transform="matrix(-0.417005,0,0,-0.417005,-346.032135,-299.919312)" style="stroke:#000000;stroke-width:0.05mm;fill:none" d="M1130,955C1133.089966,951.905029,1132.459961,949.400024,1126.25,940.245605C1117.699951,927.642029,1114.109985,925.505981,1110.072632,930.634888C1107.219971,934.263977,1107.439941,935.973999,1111.602173,942.149536C1113.579956,945.09198,1115.890015,948.849976,1116.722778,950.5C1117.560059,952.150024,1118.930054,954.286987,1119.775635,955.25C1121.880005,957.651001,1127.48999,957.513977,1130,955z"/>
    <path transform="matrix(-0.417005,0,0,-0.417005,-346.032135,-299.919312)" style="stroke:#000000;stroke-width:0.05mm;fill:none" d="M775.595032,952.899048C777.124023,951.213013,777.629028,948.598022,778.154785,939.649048C778.515015,933.517029,779.138977,925.695984,779.542053,922.267883C780.424988,914.752991,779.382996,913,774.032532,913C767.991028,913,766.440002,915.583008,766.787415,925.068909C766.965027,929.927002,766.46698,935.267029,765.481873,939.069946C764.572998,942.578979,764.171021,946.502014,764.546265,948.210571C765.929016,954.504028,771.857971,957.020996,775.595032,952.899048z"/>
    <path transform="matrix(-0.417005,0,0,-0.417005,-346.032135,-299.919312)" style="stroke:#000000;stroke-width:0.05mm;fill:none" d="M827.883118,951.369324C832.599976,948.065979,834.682007,937.515991,831.345032,933.828735C828.88501,931.111023,821.953003,931.35199,819.248474,934.25C816.575012,937.114014,815.599976,941.052002,816.44574,945.562378C817.692993,952.213013,822.903015,954.857971,827.883118,951.369324z"/>
    <path transform="matrix(-0.417005,0,0,-0.417005,-346.032135,-299.919312)" style="stroke:#000000;stroke-width:0.05mm;fill:none" d="M1176.5,935.484558C1194.349976,926.344971,1199,923.031982,1199,919.467896C1199,915.39801,1192.75,912.093994,1187.522827,913.404907C1186.160034,913.747009,1182.219971,916.554016,1178.772827,919.643372C1167.97998,929.309998,1159.790039,933.169006,1153.463745,931.580261C1148.52002,930.338989,1143.310059,923.838989,1140.899536,915.895203C1138.359985,907.530029,1138.75,902.406006,1142.47998,895.039429C1146.079956,887.940979,1145.829956,883.63501,1141.599976,879.400024C1139.26001,877.05603,1137.280029,876,1135.222412,876C1130.27002,876,1129.5,877.999023,1129.5,890.907104C1129.5,897.28302,1129.109985,906.099976,1128.637573,910.5L1127.775146,918.5L1131.416626,923.5C1133.420044,926.25,1136.72998,931.164978,1138.779053,934.421387C1145.209961,944.655029,1146.189941,945.348022,1153.335693,944.726501C1158.569946,944.271973,1162.079956,942.872009,1176.5,935.484558z"/>
    <path transform="matrix(-0.417005,0,0,-0.417005,-346.032135,-299.919312)" style="stroke:#000000;stroke-width:0.05mm;fill:none" d="M922.450073,933.580078C930.421021,925.190979,932.859009,923.737976,942.744141,921.48999C951.341003,919.534973,954.973999,916.434021,953.209473,912.560425C951.671997,909.185974,945.872009,907.697021,939.195007,908.963013C932.031982,910.322021,928.177002,912.148987,923,916.64093C920.525024,918.788025,916.700012,921.843018,914.5,923.428345C908.81897,927.52301,907.047974,930.007996,907.022217,933.921265C906.994995,938.065979,909.413025,941,912.855042,941C914.719971,941,917.284973,939.015991,922.450073,933.580078z"/>
    <path transform="matrix(-0.417005,0,0,-0.417005,-346.032135,-299.919312)" style="stroke:#000000;stroke-width:0.05mm;fill:none" d="M629.349976,923.696777C631.083008,921.880005,633.763,918.721008,635.307739,916.677856C636.85199,914.633972,641.763977,909.942993,646.223816,906.253906C658.473022,896.119995,662.784973,887.830017,658.040283,883.536438C655.083984,880.861023,651.698975,882.281982,646.799866,888.254761C639.098999,897.643005,629.620972,906.525024,623.709961,909.893127C620.525024,911.708008,617.242004,914.22699,616.414307,915.490417C614.471985,918.455017,615.442017,922.416016,618.747253,925.015808C622.440002,927.921021,625.710022,927.513977,629.349976,923.696777z"/>
    <path transform="matrix(-0.417005,0,0,-0.417005,-346.032135,-299.919312)" style="stroke:#000000;stroke-width:0.05mm;fill:none" d="M1036.599976,919.599976C1040.589966,915.609985,1041.130005,911.130005,1038,908C1033.329956,903.333984,1025.369995,907.81897,1024.312134,915.709351C1023.27002,923.448975,1030.469971,925.728027,1036.599976,919.599976z"/>
    <path transform="matrix(-0.417005,0,0,-0.417005,-346.032135,-299.919312)" style="stroke:#000000;stroke-width:0.05mm;fill:none" d="M879.75,913.517395C883.882996,909.08197,884.185974,904.094971,880.545471,900.454529C879.195007,899.10498,877.507996,898.002014,876.795471,898.003723C873.840027,898.012024,868.781982,902.265015,866.963806,906.27063C864.460022,911.786011,864.512024,912.603027,867.566284,915.657227C870.961975,919.052979,875.302979,918.289978,879.75,913.517395z"/>
    <path transform="matrix(-0.417005,0,0,-0.417005,-346.032135,-299.919312)" style="stroke:#000000;stroke-width:0.05mm;fill:none" d="M983.762634,916.006531C986.359009,913.588013,988.164001,907.554993,987.33728,904.060913C985.77301,897.450989,981.015015,896.335999,973.825562,900.895691C965.664001,906.070984,963.622009,911.984985,968.634888,915.927429C972.257019,918.776001,980.742004,918.820984,983.762634,916.006531z"/>
    <path transform="matrix(-0.417005,0,0,-0.417005,-346.032135,-299.919312)" style="stroke:#000000;stroke-width:0.05mm;fill:none" d="M1113.339355,913.25C1114.26001,911.419983,1114.910034,905.216003,1115.281616,894.708801C1115.810059,879.539978,1115.75,878.81897,1113.666626,876.425049C1110.589966,872.882019,1104.880005,872.122009,1102.112549,874.887451C1099.48999,877.515015,1099.459961,879.567017,1102,886C1104.390015,892.067017,1104.5,895.330994,1102.5,901C1101.680054,903.338013,1101,906.627991,1101,908.311279C1101,915.299988,1110.400024,919.062012,1113.339355,913.25z"/>
    <path transform="matrix(-0.417005,0,0,-0.417005,-346.032135,-299.919312)" style="stroke:#000000;stroke-width:0.05mm;fill:none" d="M1162.799683,914.603333C1164.280029,913.835022,1167,911.343994,1168.826294,909.067017C1178.26001,897.328003,1191.420044,895.440002,1204.223145,903.990173C1211.050049,908.546997,1212.699951,908.744019,1221.892212,906.096741C1237.219971,901.682007,1242.189941,902.142029,1248.618408,908.565735C1254.469971,914.414978,1256.199951,915.255005,1259.682739,913.930542C1266.910034,911.182007,1268.290039,905.114014,1262.75,900.430725C1255.189941,894.038025,1252.579956,893.502014,1229,893.47937L1207.5,893.458679L1198.28772,889.72937C1186.640015,885.015015,1183.439941,884.97699,1176.902588,889.473267C1172.02002,892.833984,1166.469971,894.982971,1162.650024,894.994446C1159.810059,895.002991,1154.02002,901.343018,1153.844482,904.650024C1153.540039,910.185974,1154.099976,912.518982,1156.151001,914.25C1158.650024,916.364014,1159.329956,916.400024,1162.799683,914.603333z"/>
    <path transform="matrix(-0.417005,0,0,-0.417005,-346.032135,-299.919312)" style="stroke:#000000;stroke-width:0.05mm;fill:none" d="M909.847229,908.672119C918.547974,900.395996,921.38501,898.525024,928.268799,896.52417C932.489014,895.296997,936.952026,894.940979,945.250061,895.169556C955.916016,895.463013,956.742981,895.340027,961.003357,892.824646C969.244019,887.960022,971.760986,884.445007,973.051819,876C974.586975,865.958984,977.349976,859.854004,982.515625,855.092346C988.54303,849.536011,993.234985,848.312988,1002.530396,849.875305C1011.23999,851.340027,1011.73999,851.156982,1021.738525,842.813049C1025.459961,839.708984,1030.969971,835.195984,1034,832.78363C1037.910034,829.669006,1039.589966,827.588989,1039.824951,825.610229C1040.27002,821.781006,1037.52002,819,1033.29541,819C1028.099976,819,1024.400024,821.481018,1020.263916,827.728943C1018.190002,830.861023,1014.940002,834.468994,1013.046326,835.747803C1009.929993,837.844971,1008.590027,838.054016,999.365723,837.882568L989.134827,837.692566L978.432068,844.096313C966.468994,851.254028,965,853.223022,965,862.101868C965,869.437988,963.119995,874.789978,959.037354,879.077515C954.039978,884.325012,948.812988,885.598022,938.333679,884.119202C929.684021,882.898987,927.377014,883.30603,916.703796,887.933472C911.994995,889.974976,899.822998,899.380005,897.38562,902.859863C895.414001,905.674011,895.169983,911.294983,896.926758,913.411743C899.505981,916.52002,902.908997,915.271973,909.847229,908.672119z"/>
    <path transform="matrix(-0.417005,0,0,-0.417005,-346.032135,-299.919312)" style="stroke:#000000;stroke-width:0.05mm;fill:none" d="M607.125977,904.244751C618.106995,896.948975,626.651978,890.002014,631.150696,884.7146C634.059021,881.296997,639.151978,875.565002,642.468933,871.976746C648.463013,865.494019,654,855.958008,654,852.118713C654,851.015015,652.952026,848.893005,651.671387,847.404358C649.799988,845.229004,648.812988,844.830017,646.645935,845.374023C642.734985,846.356018,640.515015,849.004028,638.045715,855.635193C634.697021,864.629028,630.643005,870.195007,620.351257,879.935852C608.93103,890.744019,604.229004,893.010986,597.157959,891.119751C592.40802,889.848999,588.47998,887.322998,581.5,881.049194C571.078003,871.682007,565.822998,869.320007,562.59137,872.551514C560.267029,874.875977,561.247009,878.567017,565.319153,882.829041C569.179993,886.869019,585.26001,898.200989,593.5,902.687561C600.310974,906.395996,603.362976,906.744995,607.125977,904.244751z"/>
    <path transform="matrix(-0.417005,0,0,-0.417005,-346.032135,-299.919312)" style="stroke:#000000;stroke-width:0.05mm;fill:none" d="M763.685547,902.825684C766.247986,900.41803,766.65802,897.278992,764.75,894.680542C764.062988,893.744995,760.125,891.609985,756,889.936218C751.875,888.263,745.630005,885.028015,742.123291,882.746765C732.937988,876.77301,726,877.335022,726,884.051025C726,887.814026,728.002991,889.596008,736.670471,893.546021C740.69397,895.380005,746.536987,898.70697,749.65564,900.93988C756.166992,905.60199,760.158997,906.138977,763.685547,902.825684z"/>
    <path transform="matrix(-0.417005,0,0,-0.417005,-346.032135,-299.919312)" style="stroke:#000000;stroke-width:0.05mm;fill:none" d="M1087.443237,900.777466C1089.430054,897.934998,1089.449951,891.085999,1087.470459,888.261353C1085.420044,885.335022,1079.959961,883.896973,1075.529541,885.119446C1069.819946,886.697021,1067.23999,892.848022,1070.078735,898.147095C1072.650024,902.960022,1084.640015,904.776001,1087.443237,900.777466z"/>
    <path transform="matrix(-0.417005,0,0,-0.417005,-346.032135,-299.919312)" style="stroke:#000000;stroke-width:0.05mm;fill:none" d="M795.290771,898.951111C800.211975,896.64801,804.215027,895.658997,811.653076,894.90686C817.06897,894.359009,823.383972,893.22998,825.686401,892.397339C836.71698,888.40802,845.940002,868.973022,841.662537,858.734741C840.257019,855.369995,839.732971,855,836.379761,855C830.289001,855,829,856.997986,829,866.432495C829,872.185974,828.54303,875.20697,827.433899,876.790894C823.661987,882.176025,811.015015,885.622009,798.769897,884.601135C789.880981,883.859985,785.624023,885.119995,782.167908,889.513672C778.033997,894.768982,780.278015,902,786.042725,902C787.546021,902,791.70697,900.627991,795.290771,898.951111z"/>
    <path transform="matrix(-0.417005,0,0,-0.417005,-346.032135,-299.919312)" style="stroke:#000000;stroke-width:0.05mm;fill:none" d="M1053.32373,898.533447C1054.170044,897.689026,1055.099976,893.976013,1055.511597,889.783447C1056.369995,881.085022,1057.790039,878.028992,1062.668213,874.301697C1066.109985,871.671021,1067.01001,871.486023,1077.290161,871.272095C1083.939941,871.133972,1088.800049,870.578003,1089.671997,869.857239C1092.23999,867.728027,1090.880005,862.820984,1087,860.197876C1081.900024,856.749023,1070.949951,857.30603,1062.5,861.444092C1050.5,867.322998,1041.939941,879.414001,1041.754028,890.766663C1041.630005,898.005005,1048.939941,902.913025,1053.32373,898.533447z"/>
    <path transform="matrix(-0.417005,0,0,-0.417005,-346.032135,-299.919312)" style="stroke:#000000;stroke-width:0.05mm;fill:none" d="M1284.632935,894.227783C1285.810059,893.276978,1287.300049,891.45697,1287.953979,890.182922C1290.459961,885.304016,1283.73999,879.659973,1266.700562,872.322876L1255.5,867.5L1235.528076,867.796509C1204.5,868.257019,1202.97998,867.669006,1185.910645,848.648071C1182.77002,845.14801,1178.849976,842.437012,1171.835693,838.917542C1160.099976,833.028992,1155.949951,829.547974,1152.567261,822.759094C1150.52002,818.658997,1150,816.133972,1150,810.391052C1150,804.197021,1150.459961,802.281006,1153.264648,796.868225C1157.130005,789.39801,1163.52002,784.083984,1171.897339,781.360718C1176.619995,779.825989,1180.319946,779.580994,1195.5,779.802368C1221.719971,780.184021,1229.75,777.791992,1250.525757,763.405212C1255.849976,759.716003,1260.97998,755.44397,1261.907104,753.912292C1264.26001,750.044006,1266.810059,707.994995,1265.025391,702.576904C1263.189941,697.004028,1255.800049,696.323975,1252.460449,701.420044C1251.040039,703.59198,1251.050049,704.382019,1252.550415,710.154175C1254.72998,718.497009,1254.180054,738.538025,1251.61853,744.5C1248.290039,752.244995,1238.939941,759.421997,1225.369385,764.643677C1219.099976,767.057983,1216.719971,767.35498,1198,768.067688C1169.47998,769.153015,1157.439941,772.536011,1150.316772,781.469666C1145.800049,787.133972,1137.829956,802.257019,1137.267456,806.234863C1136.900024,808.822998,1137.430054,811.560974,1138.969849,815.151611C1140.199951,818.002014,1141.569946,822.992981,1142.034302,826.242737C1142.48999,829.492981,1143.530029,833.161011,1144.338867,834.39447C1145.150024,835.627991,1151.589966,839.916992,1158.646362,843.926331C1174.800049,853.096008,1178.22998,855.828003,1182.262573,862.735901C1184.050049,865.791016,1186.630005,869.117981,1188.004028,870.129883C1189.380005,871.142029,1195.900024,873.833008,1202.5,876.111084L1214.5,880.252686L1225.5,879.40448C1241.040039,878.205994,1249.449951,878.64502,1257.452637,881.072205C1263.390015,882.874023,1265.359985,884.109985,1270.952637,889.572571C1277.969971,896.426025,1280.75,897.372009,1284.632935,894.227783z"/>
    <path transform="matrix(-0.417005,0,0,-0.417005,-346.032135,-299.919312)" style="stroke:#000000;stroke-width:0.05mm;fill:none" d="M895.076904,886.076904C898.541016,882.612976,898.692993,880.327026,895.941772,873.087402C894.359985,868.924988,893.822998,864.882019,893.616943,855.587402C893.310974,841.758972,892.692017,839.961975,884.867065,830.158264C878.304993,821.937988,875.130005,820.567017,864.386719,821.316772C858.666992,821.716003,852.471008,823.145996,843.386719,826.163086C832.104004,829.909973,829.380005,830.445984,821.5,830.471375C812.504028,830.5,812.494019,830.497009,799.5,824.286011C779.687012,814.815979,756.874023,809.145996,751,812.231934C748.034973,813.789978,747.062988,818.978027,749.377014,820.897949C750.190979,821.572998,755.500977,822.737976,761.178101,823.486877C773.349976,825.09198,783.554016,828.559998,794.2995,834.743896C802.679016,839.565979,814.481995,844,818.936829,844C820.447021,844,823.844971,843.348999,826.488281,842.553589C829.132019,841.757996,833.815979,840.809998,836.897217,840.445984C840.208008,840.054993,845.35498,838.349976,849.477783,836.276917C863.669983,829.142029,873.72699,831.232971,879.5,842.51886L882.5,848.383728L882.5,867.270996C882.5,884.812988,882.638,886.258972,884.441101,887.579102C887.629028,889.913025,891.835022,889.31897,895.076904,886.076904z"/>
    <path transform="matrix(-0.417005,0,0,-0.417005,-346.032135,-299.919312)" style="stroke:#000000;stroke-width:0.05mm;fill:none" d="M1000.018982,882.160767C1006.48999,874.30603,1007.52002,865.909973,1002.261108,863.90918C996.359985,861.666016,989.893982,866.249023,987.476501,874.391113C985.469971,881.146973,985.60199,882.692993,988.427734,885.518616C990.564026,887.655029,991.224976,887.817017,993.938721,886.871521C995.63501,886.280029,998.370972,884.161011,1000.018982,882.160767z"/>
    <path transform="matrix(-0.417005,0,0,-0.417005,-346.032135,-299.919312)" style="stroke:#000000;stroke-width:0.05mm;fill:none" d="M1306.349365,872.733948C1309.180054,868.945984,1307.900024,866.046021,1300.936279,860.430908C1289.780029,851.434021,1289.589966,851.340027,1282.151978,850.715942C1274.369995,850.062988,1271.329956,848.79303,1265.064941,843.554321C1262.719971,841.59198,1259.640015,839.697021,1258.229492,839.342773C1256.819946,838.989014,1250.170044,839.666992,1243.464233,840.849487C1228.47998,843.491028,1220.829956,843.565002,1215.5,841.119263C1210.48999,838.81897,1208.880005,836.987,1205.409912,829.613342C1202.170044,822.739014,1198.630005,820.646973,1187.564941,819.080566C1179.880005,817.992004,1176.300049,816.052979,1175.407471,812.487366C1174.359985,808.325989,1175.790039,805.070007,1179.399414,803.346558C1182.619995,801.812988,1183.119995,801.875977,1192.375732,804.958618C1204.040039,808.844971,1208.719971,808.965027,1216.102661,805.566528C1219.180054,804.14801,1225.030029,802.564026,1229.102661,802.044495C1233.170044,801.525024,1238.459961,800.40802,1240.84729,799.560364C1245.150024,798.034973,1263.319946,785.698975,1272.656738,777.960022C1282.160034,770.08197,1288.300049,770.533997,1299.414551,779.927734C1311.640015,790.265015,1313.25,796.947998,1306.051514,807.547791L1302.103027,813.365479L1302.569458,827.803528C1303.089966,843.950012,1303.199951,844.241028,1311.411865,851.812012C1317.449951,857.377014,1321.689941,857.219971,1324.83667,851.315735C1326.829956,847.570007,1326.170044,845.929993,1320.595703,840.826416C1313.790039,834.593994,1312.550049,831.684998,1313.302246,823.704102C1313.98999,816.354004,1315.599976,812.252991,1320.425781,805.503174C1324.839966,799.325989,1324.949951,796.221008,1321.008667,788.333313C1317.23999,780.794006,1310.619995,774.041016,1302.119507,769.055603C1293.430054,763.960022,1290.130005,760.383972,1289.223022,755.05957C1288.449951,750.507019,1290.089966,720.473999,1291.991333,704.572266C1292.910034,696.916992,1292.869995,694.515991,1291.814575,692.370422C1290.109985,688.911987,1287.329956,687.96698,1283.003174,689.371521C1277.77002,691.070007,1276.73999,694.093994,1278.734741,702.000183C1280.160034,707.659973,1280.209961,710.242981,1279.173096,722.977539C1278.52002,730.965027,1277.98999,741.909973,1277.992798,747.299683C1278,761.554016,1277.459961,762.302002,1257.5,775.676025C1242.189941,785.932983,1237.660034,788.187988,1225.455566,791.642029C1216.619995,794.142029,1214.209961,794.419983,1204,794.116272C1177.920044,793.340027,1177.839966,793.343994,1173.038696,796.016357C1167.040039,799.354004,1164,804.031982,1164.003784,809.897888C1164.01001,817.984009,1167.98999,822.219971,1181,828C1190.25,832.109009,1193.51001,834.572998,1199.620728,842.092346C1202.939941,846.172974,1207.23999,850.232971,1209.5,851.411438C1213.72998,853.620972,1219.060059,853.843018,1245,852.886841L1255.5,852.5L1271.063477,858.776306C1284.910034,864.362,1287.170044,865.609985,1291.563477,870.119934C1298.859985,877.61499,1302.26001,878.213989,1306.349365,872.733948z"/>
    <path transform="matrix(-0.417005,0,0,-0.417005,-346.032135,-299.919312)" style="stroke:#000000;stroke-width:0.05mm;fill:none" d="M603.515198,874.994202C607.184021,873.598999,617.375,863.674988,620.847961,858.113953C622.432983,855.575989,624.773987,850.463013,626.049438,846.751099C628.89801,838.463013,632.528015,834.580994,639.318848,832.559998C645.492004,830.723022,646.33197,830.200012,647.905701,827.212219C650.380981,822.513,646.622986,817,640.944092,817C638.044983,817,635.812012,818.041992,631.067505,821.608521C621.405029,828.872009,619.479004,831.229004,617.53595,838.173767C615.114014,846.827026,610.732971,855.205994,606.976257,858.366516C603.354004,861.414001,598.52301,861.817017,593.600891,859.480835C587.703003,856.682007,579.455017,847.09198,574.498535,837.270996C569.39801,827.164001,566.504028,824.270996,556.420044,819.200439C548.73999,815.338013,539.789001,813,532.684448,813C527.281006,813,527.000977,813.143982,520.146118,819.434387C512.893005,826.091003,508.946991,827.91803,501.5,828.070496C496.104004,828.18103,491.602997,829.937988,487.99704,833.34082C484.322998,836.807983,484.233002,838.934998,487.588898,842.923279C491.165009,847.174011,494.963989,847.04303,500.287964,842.485535C504.25,839.093994,507.208008,837.922974,515.299744,836.539978C517.888,836.098022,520.817993,834.333984,524.490295,831.008789C530.922974,825.182983,535.450989,823.645996,541.919617,825.09021C552.320007,827.411987,561.122009,835.265991,566.905273,847.383545C570.966003,855.892029,572.919983,858.164001,579.5,862.022034C581.700012,863.312012,586.026978,866.526978,589.115601,869.166321C594.026978,873.362976,597.887024,875.723999,600.184875,875.936584C600.562012,875.971008,602.059998,875.546997,603.515198,874.994202z"/>
    <path transform="matrix(-0.417005,0,0,-0.417005,-346.032135,-299.919312)" style="stroke:#000000;stroke-width:0.05mm;fill:none" d="M680.684448,869.089783C685.53302,865.838989,693.437988,859.146973,698.25,854.218567C705.671997,846.617004,707,844.757019,707,841.95752C707,837.689026,704.513977,835,700.567505,835C695.950012,835,693.130005,837.52301,690.033142,844.426086C686.83197,851.560974,682.663025,855.5,676.704529,857.020447C666.830994,859.539978,663.012024,863.03302,663.003723,869.549988C662.994019,877.124023,668.93103,876.969971,680.684448,869.089783z"/>
    <path transform="matrix(-0.417005,0,0,-0.417005,-346.032135,-299.919312)" style="stroke:#000000;stroke-width:0.05mm;fill:none" d="M918.382996,871.707886C920.396973,869.69397,920.75,868.085022,921.295105,858.46759C921.942017,847.046021,921.335022,844.577026,917.075134,841.281799C914.80603,839.526978,910.471008,839.72699,908.872437,841.65979C907.245972,843.625977,907.424011,863.442993,909.115112,868.74231C910.851013,874.179993,914.684021,875.406982,918.382996,871.707886z"/>
    <path transform="matrix(-0.417005,0,0,-0.417005,-346.032135,-299.919312)" style="stroke:#000000;stroke-width:0.05mm;fill:none" d="M812.753296,868.789795C817.487976,864.859985,816.047974,858.617004,810.045166,857.05365C807.820007,856.473999,804.088013,855.507996,801.75,854.907166C799.411987,854.30603,794.012024,851.590027,789.749817,848.871521C780.072021,842.698975,775.679016,840.809021,764.786743,838.127258C750.33197,834.56897,744.182007,835.713989,746.807434,841.476746C748.512024,845.21698,751.659973,846.734985,764.479919,849.994873C777.984009,853.429016,783.090027,856.036987,787.810425,861.91272C791.674011,866.721008,794.796021,868.945007,799.275024,870.079468C803.320984,871.104004,810.830994,870.38501,812.753296,868.789795z"/>
    <path transform="matrix(-0.417005,0,0,-0.417005,-346.032135,-299.919312)" style="stroke:#000000;stroke-width:0.05mm;fill:none" d="M947.011292,869.494202C948.976013,868.478027,950.304016,866.718018,951.092773,864.084778C953.304016,856.703979,950.512024,852.835999,942.82782,852.634216C937.752014,852.500977,934.940002,855.35199,934.268311,861.311951C933.827026,865.226013,934.109985,866.200989,936.333069,868.42395C939.26001,871.351013,942.744995,871.700012,947.011292,869.494202z"/>
    <path transform="matrix(-0.417005,0,0,-0.417005,-346.032135,-299.919312)" style="stroke:#000000;stroke-width:0.05mm;fill:none" d="M554.799988,864.799988C557.255005,862.344971,556.156006,856.551025,552.020264,850.152649C546.101013,840.994019,539.546021,837.828003,534.222534,841.556702C531.29303,843.609009,531.414001,846.843994,534.599426,851.610474C541.995972,862.679016,551.026001,868.573975,554.799988,864.799988z"/>
    <path transform="matrix(-0.417005,0,0,-0.417005,-346.032135,-299.919312)" style="stroke:#000000;stroke-width:0.05mm;fill:none" d="M600.988342,842.21051C602.497986,840.987976,603.367004,838.922974,603.731506,835.689758C604.252991,831.059998,604.146973,830.835022,598.793518,825.222412C595.098022,821.348022,592.77002,817.822998,591.619812,814.360779C590.682983,811.541992,589.14801,808.55603,588.208679,807.725891C582.882019,803.02002,538.955017,784,533.414856,784C531.781006,784,529.447998,784.697998,528.230225,785.55127C520.177979,791.190979,525.726013,799,537.786377,799C544.27002,799,551.447021,801.237,563.578796,807.04126C575.663025,812.822021,583.025024,819.93103,586.891296,829.549927C590.177002,837.724976,592.875,842.005005,595.381531,843.017517C598.372009,844.226013,598.526978,844.203003,600.988342,842.21051z"/>
    <path transform="matrix(-0.417005,0,0,-0.417005,-346.032135,-299.919312)" style="stroke:#000000;stroke-width:0.05mm;fill:none" d="M675.076904,841.076904C679.091003,837.062988,678.94397,832.807983,674.5,824.431335C671.518005,818.810974,670.997986,816.846985,670.985229,811.166931C670.97699,807.5,670.40802,803.388,669.720703,802.030029C667.624023,797.885986,662.671997,795.304993,655.303284,794.515808C651.586975,794.117981,646.382019,792.939026,643.736572,791.896179C636.572998,789.072998,633.38501,789.460022,625.484131,794.113892C621.643005,796.377014,616.474976,799.106995,614,800.181274C605.263,803.973999,603.013977,808.205994,607.026062,813.30603C610.986023,818.340027,615.296997,817.531006,622,810.497681C632.187988,799.80603,648.495972,799.304993,657.799011,809.397827C662.697998,814.713013,663.612,818.572021,662.28302,828.341187C661.20697,836.252991,662.083984,841.36499,664.789368,842.941956C668.046021,844.840027,672.036987,844.117004,675.076904,841.076904z"/>
    <path transform="matrix(-0.417005,0,0,-0.417005,-346.032135,-299.919312)" style="stroke:#000000;stroke-width:0.05mm;fill:none" d="M963.558838,836.40564C966.825989,834.429016,971.620972,831.729004,974.214111,830.406982C979.08197,827.924011,981,825.586975,981,822.137146C981,819.075012,978.242981,817,974.178589,817.003723C970.5,817.007019,968.70697,817.929016,959.690308,824.452332C951.018982,830.726013,943.197021,830.460022,936.3974,823.660522C932.192017,819.455017,930.015991,814.29303,930.005554,808.493408C929.994995,802.705994,928.017029,798.687988,922.193054,792.618286C918.031982,788.281982,915.810974,784.960022,914.568115,781.212158C911.828979,772.955994,911.088989,772.700012,886.629944,771.588196C870.567993,770.857971,862.52301,770.945007,852.552124,771.956665C825.875,774.664001,822.590027,774.570007,806.259094,770.641602C788.390015,766.343018,768.54303,763.377991,747.93988,761.930908C736.80603,761.148987,729.52301,760.039978,721.532959,757.909851C715.465027,756.291992,703.974976,753.598999,696,751.924316C688.025024,750.25,676.099976,747.143005,669.5,745.019287C662.900024,742.895996,652.237,740.20697,645.804077,739.044189C629.679016,736.129028,622.856018,734.234009,597.436584,725.607971C558.629028,712.440002,541.505005,704.416016,525.484192,691.892334C518.875,686.72699,508.524994,679.155029,502.484161,675.067688C496.442993,670.97998,488.125,664.390991,484,660.424561C479.875,656.458984,472.136993,649.453003,466.804382,644.856873C446.519989,627.374023,433.768005,615.515015,411.436462,593.370605C398.453003,580.494995,383.812012,567.031006,377.936462,562.563721C372.196014,558.198975,363.289001,550.849976,358.142426,546.232483C347.673004,536.840027,342.049011,533.017029,330.804565,527.65033C324.734009,524.752991,321.89801,522.606995,317.374603,517.485962C311.398987,510.721985,308.096008,509.016998,300.94635,509.005585C296.468994,508.998993,288.903015,512.765991,282.75,518.064758C277.681,522.43103,276.865997,525.090027,279.654999,528.171265C282.141998,530.919006,284.890015,530.409973,291.384979,525.99762C296.092987,522.799011,298.169006,522,301.766541,522C306.544006,522,306.983002,522.343994,318,534.754333C320.994995,538.127991,322.43399,538.877014,327.975403,539.943054C339.160004,542.096008,342.867004,544.843994,350.308075,556.5C352.980011,560.684998,354.929993,562.257019,362.268433,566.144653C367.091003,568.698975,372.94101,572.351013,375.268433,574.258972C385.040009,582.270996,395.748993,592.586975,399.264648,597.37384C406.626007,607.39801,408.977997,609.796997,414.495483,612.910522C418.899994,615.395996,421.036011,617.539978,424.598602,623.046326C428.39801,628.919983,430.045013,630.499023,434.961273,632.980469C441.105988,636.08197,443.876007,638.604004,449.263336,646C451.569,649.164978,454.569,651.546021,459.376953,654.027222C466.897003,657.90802,470.113007,661.112,474.239838,668.836487C476.589996,673.234985,477.941986,674.452026,483.739838,677.385254C487.458008,679.267029,493.200012,682.684021,496.5,684.978943C499.799988,687.273987,506.104004,691.513,510.509491,694.398376C515.124023,697.421021,521.000977,702.471985,524.374512,706.31427C529.775024,712.466003,530.783997,713.146973,537.36499,715.083313C541.289001,716.237976,553.049988,720.711975,563.5,725.02655C573.950012,729.341003,586.099976,733.835999,590.5,735.015564C594.900024,736.195007,601.942993,738.893982,606.150269,741.013245C611.463013,743.689026,616.093018,745.184998,621.30365,745.909424C625.429993,746.482971,631.117004,747.864014,633.940369,748.976501C637.517029,750.385986,641.413025,751.002014,646.787048,751.005554C656.393005,751.013,660.916992,752.242981,667.963806,756.764526C672.906982,759.935974,674.708008,760.45697,684.778137,761.627502C697.236023,763.075012,699.151001,763.518982,716.5,768.974304C728.158997,772.640991,729.039978,772.763,747.5,773.297974C770.888,773.974976,788.236023,776.908997,808.839783,783.670898L823.179504,788.377136L837.839783,785.438599C851.205994,782.758972,854.309998,782.5,873,782.5C893.125977,782.5,893.604004,782.549011,899.196472,785.170166C908.653992,789.603027,917.892029,803.731995,921.923462,819.931396C925.299011,833.494995,929.867004,837.984985,941.371521,839.047974C956.054993,840.405029,957.166992,840.271973,963.558838,836.40564z"/>
    <path transform="matrix(-0.417005,0,0,-0.417005,-346.032135,-299.919312)" style="stroke:#000000;stroke-width:0.05mm;fill:none" d="M1287.967407,835.539246C1290.050049,833.023987,1290.369995,826.622986,1288.584106,823.16272C1287.170044,820.424011,1286.420044,820,1283.009155,820C1277.47998,820,1271.76001,824.953003,1272.197754,829.367493C1272.77002,835.14502,1284.48999,839.731995,1287.967407,835.539246z"/>
    <path transform="matrix(-0.417005,0,0,-0.417005,-346.032135,-299.919312)" style="stroke:#000000;stroke-width:0.05mm;fill:none" d="M731,834.707458C736.447021,831.955994,736.880005,820.760986,731.725586,815.958923C728.526001,812.978027,721.395996,813.565979,718.824524,817.023438C716.036987,820.770996,715.47998,826.10199,717.443115,830.238831C719.978027,835.580017,725.603027,837.434021,731,834.707458z"/>
    <path transform="matrix(-0.417005,0,0,-0.417005,-346.032135,-299.919312)" style="stroke:#000000;stroke-width:0.05mm;fill:none" d="M1127.443237,833.777466C1129.380005,831.007019,1129.390015,829.661987,1127.460449,823.178589C1125.5,816.572998,1122.469971,814.29303,1117.810181,815.916321C1112.689941,817.702026,1110,820.822998,1110,824.987244C1110,832.971985,1123.310059,839.679016,1127.443237,833.777466z"/>
    <path transform="matrix(-0.417005,0,0,-0.417005,-346.032135,-299.919312)" style="stroke:#000000;stroke-width:0.05mm;fill:none" d="M1339.244507,831.022278C1342.369995,828.567993,1346,821.028992,1346,817.010925C1346,812.783997,1342.890015,810,1338.155029,810C1333.969971,810,1332.359985,811.297974,1329.484253,816.96405C1325.829956,824.169983,1328.25,833,1333.888184,833C1335.449951,833,1337.859985,832.109985,1339.244507,831.022278z"/>
    <path transform="matrix(-0.417005,0,0,-0.417005,-346.032135,-299.919312)" style="stroke:#000000;stroke-width:0.05mm;fill:none" d="M908.046021,826C909.661011,819.536011,900.557983,803.405029,892.781555,798.951904C888.643005,796.58197,887.883972,796.502991,870,796.58551C852.369019,796.666992,850.937012,796.823975,839.5,799.933899C824.262024,804.077026,819.484985,803.814026,805.247375,798.043945C785.844971,790.18103,765.013977,786.750977,742.320129,787.681213L727.5,788.288696L717,784.552673C694.677979,776.609985,681.328979,774.244019,676.540649,777.381409C672.822998,779.817993,672.934021,786.013977,676.75,789.024963C679.591003,791.267029,680.049988,791.278992,691.686646,789.421814C697.893005,788.43103,702.174988,789.601013,708.98468,794.148621C714.783997,798.020996,715.708008,798.297974,726.990662,799.538635C736.999023,800.638977,739.804016,800.627014,744.691895,799.458923C753.982971,797.239014,763.185974,797.666992,776.598267,800.942017C790.075012,804.232971,798.458008,807.182983,807.957336,811.978455C816.744019,816.414001,823.52301,816.95697,833.144836,813.994629C848.879028,809.151001,854.892029,807.916016,865.5,807.346863C882.29303,806.445984,888.396973,809.059998,894.564636,819.791504C898.776001,827.119995,900.987976,829.138977,904.429199,828.797058C906.664978,828.575012,907.578979,827.867981,908.046021,826z"/>
    <path transform="matrix(-0.417005,0,0,-0.417005,-346.032135,-299.919312)" style="stroke:#000000;stroke-width:0.05mm;fill:none" d="M1238.5,827.537659C1259.25,823.127014,1256.910034,824.14502,1262.651855,817C1269.329956,808.687012,1274.199951,806,1282.601563,806C1289.890015,806,1293.589966,803.651978,1294.600586,798.377197C1295.089966,795.843018,1294.640015,794.627014,1292.226318,791.927185C1288.209961,787.429016,1283.689941,787.383972,1277.779419,791.783691C1262.859985,802.887024,1250.51001,811.330994,1246.789917,812.974792C1244.420044,814.021973,1238.060059,815.330994,1232.651733,815.884277C1226.959961,816.466003,1221.800049,817.55603,1220.407959,818.468323C1214.939941,822.051025,1219.530029,828.987976,1227.384888,829.012817C1229.650024,829.02002,1234.650024,828.356018,1238.5,827.537659z"/>
    <path transform="matrix(-0.417005,0,0,-0.417005,-346.032135,-299.919312)" style="stroke:#000000;stroke-width:0.05mm;fill:none" d="M476.434448,826.024902C479.385986,824.903015,482.990997,819.541992,482.996277,816.265747C483.002014,812.560974,478.066986,807.945984,473.5,807.385742C468.07901,806.721008,462.997986,809.794006,463.003723,813.735291C463.009003,817.487976,466.289001,822.596008,470.240845,825.005432C474.084015,827.348022,473.295013,827.218994,476.434448,826.024902z"/>
    <path transform="matrix(-0.417005,0,0,-0.417005,-346.032135,-299.919312)" style="stroke:#000000;stroke-width:0.05mm;fill:none" d="M1007.076904,821.076904C1010.640015,817.515991,1010.809998,814.314026,1007.888611,805.718445C1006.02002,800.216003,1005.909973,798.796021,1006.888611,793.384705C1008.580017,784.101013,1008.27002,781.29303,1004.906982,774.976929C999.47699,764.789978,998.982971,764.544983,983.172485,764.212097C971.629028,763.968994,968.955017,764.203003,966,765.712097C963.010986,767.239014,962.5,768.008972,962.5,770.986511C962.5,775.88501,965.609009,777.286011,973.583374,775.980469C983.854004,774.299011,988.47998,774.690979,991.856506,777.532715C993.512024,778.926025,995.419006,781.737976,996.095093,783.782715C998.083984,789.799988,997.640015,800.715027,995.159546,806.787048C992.442017,813.440979,992.414001,817.986023,995.072571,821.365112C998.026001,825.119995,1003.159973,824.995972,1007.076904,821.076904z"/>
    <path transform="matrix(-0.417005,0,0,-0.417005,-346.032135,-299.919312)" style="stroke:#000000;stroke-width:0.05mm;fill:none" d="M698.401428,821.605652C705.497986,818.640991,707.268982,811.086975,701.923279,806.588867C695.315002,801.028015,684.997009,803.632996,685.001526,810.860779C685.004028,814.671021,688.096985,820.270996,691,821.721375C694.150024,823.296021,694.36499,823.291992,698.401428,821.605652z"/>
    <path transform="matrix(-0.417005,0,0,-0.417005,-346.032135,-299.919312)" style="stroke:#000000;stroke-width:0.05mm;fill:none" d="M1097.391235,815.385803C1106.77002,804.478027,1108.300049,803.284973,1114.459839,802.006836C1117.73999,801.327026,1121.390015,800.137024,1122.569458,799.362488C1123.75,798.588013,1127.369995,792.906006,1130.609619,786.736145C1138.439941,771.81897,1145.51001,764.47998,1155.63269,760.7547C1167.069946,756.544983,1177.26001,754.893982,1197,754.055664C1216.699951,753.218994,1220.619995,752.346008,1230.407837,746.606873C1237.780029,742.286987,1239.439941,738.482971,1239.848267,724.955444C1240.300049,710.119995,1238.930054,706,1233.551025,706C1229.430054,706,1225.98999,708.853027,1226.015015,712.25C1226.02002,713.487,1226.680054,716.299988,1227.471191,718.5C1229.599976,724.395996,1229.349976,729.190979,1226.711304,733.102112C1222.060059,740.010986,1212.209961,742.978027,1193.880981,742.992432C1177.920044,743.005005,1158.140015,747.151001,1145.370483,753.162659C1132.180054,759.375,1131.719971,759.817017,1127.065308,770.845337C1121.589966,783.810974,1118.52002,787.258972,1109,791.093994C1102.869995,793.564026,1100.400024,795.278015,1095.5,800.475098C1088.719971,807.664978,1085.52002,808.984985,1074.897827,808.994446C1067.420044,809.000977,1062.530029,806.559998,1060.165894,801.65094C1057.22998,795.544006,1055.680054,770.171021,1057.390015,756.288208C1058.140015,750.221985,1058.02002,748.672974,1056.616943,746.538208C1054.420044,743.187988,1049.219971,743.04303,1046.309692,746.25C1044.400024,748.354004,1044.290039,749.603027,1044.52002,765.5C1044.72998,779.932983,1045.089966,783.364014,1046.884644,788.225037C1048.430054,792.396973,1049.01001,796.330994,1049.0354,802.725037C1049.099976,818.312988,1050.079956,818.916992,1075.391235,818.964539L1094.282593,819L1097.391235,815.385803z"/>
    <path transform="matrix(-0.417005,0,0,-0.417005,-346.032135,-299.919312)" style="stroke:#000000;stroke-width:0.05mm;fill:none" d="M505.532867,812.55072C515.138977,808.536987,517.359985,797.064026,509.089294,794.180969C505.444,792.909973,502.221985,793.625977,499.154999,796.388062C493.667999,801.330017,492.545013,807.635986,496.454559,811.545471C499.294006,814.383972,500.756012,814.546021,505.532867,812.55072z"/>
    <path transform="matrix(-0.417005,0,0,-0.417005,-346.032135,-299.919312)" style="stroke:#000000;stroke-width:0.05mm;fill:none" d="M955.747131,809.723694C962.640015,803.705994,963.01001,803.551025,971.780029,803.017944C979.547974,802.546021,980.469971,802.265991,982.278259,799.837036C984.752014,796.513977,983.999023,792.700989,980.404358,790.345398C978.036011,788.794006,977.177002,788.78302,969.166016,790.203003C958.038025,792.174988,944.914978,798.289001,943.606323,802.109558C941.843018,807.258972,944.986023,813,949.568542,813C950.903015,813,953.682983,811.526001,955.747131,809.723694z"/>
    <path transform="matrix(-0.417005,0,0,-0.417005,-346.032135,-299.919312)" style="stroke:#000000;stroke-width:0.05mm;fill:none" d="M1033,805C1037.069946,800.934021,1034.540039,787.676025,1029.459961,786.400635C1025.5,785.406006,1023.559998,786.372009,1021.643921,790.299683C1019.400024,794.896973,1020.090027,802.093994,1023.072083,805.072083C1025.579956,807.575989,1030.459961,807.541016,1033,805z"/>
    <path transform="matrix(-0.417005,0,0,-0.417005,-346.032135,-299.919312)" style="stroke:#000000;stroke-width:0.05mm;fill:none" d="M455.938568,801.25C460.731995,797.367004,460.431,785.638977,455.454834,782.378479C453.389008,781.025024,452.506012,780.961975,450.021423,781.99115C441.091003,785.690002,439.473999,792.26001,445.845154,798.957886C450.036011,803.362976,452.609009,803.947998,455.938568,801.25z"/>
    <path transform="matrix(-0.417005,0,0,-0.417005,-346.032135,-299.919312)" style="stroke:#000000;stroke-width:0.05mm;fill:none" d="M1353.4552,798.378845C1355.52002,797.586975,1358,792.827026,1358,789.660461C1358,786.242004,1355.290039,783.572998,1349.778442,781.571533C1343.819946,779.406982,1340.75,775.767029,1338.058472,767.675537C1335.579956,760.241028,1333.550049,758.067993,1325.927734,754.717041C1316.619995,750.625977,1313.27002,744.338013,1314.404907,733.091614C1314.77002,729.466003,1315.48999,721.197998,1316.012451,714.718262C1316.790039,705.049011,1317.51001,701.677002,1320.037231,695.915283C1323.719971,687.536011,1323.650024,683.554993,1319.802612,680.692932C1317.180054,678.745972,1316.969971,678.737976,1312.54126,680.431091C1306.52002,682.731995,1305.599976,684.695984,1306.351563,693.630188C1306.719971,698.013,1306.410034,704.593994,1305.574585,710.200134C1303.569946,723.627991,1302.560059,747.875,1303.873047,751.238892C1304.459961,752.744995,1306.780029,755.219971,1309.018555,756.738892C1323.650024,766.646973,1328.719971,772.005005,1334.016479,783.136169C1339.150024,793.922974,1339.449951,794.388977,1342.923584,796.727478C1346.23999,798.965027,1350.280029,799.598022,1353.4552,798.378845z"/>
    <path transform="matrix(-0.417005,0,0,-0.417005,-346.032135,-299.919312)" style="stroke:#000000;stroke-width:0.05mm;fill:none" d="M485.193329,793.31842C487.743011,791.020996,488.358002,786.593018,486.600403,783.194153C484.924988,779.955017,483.22699,779,479.140717,779C474.471008,779,472,781.549011,472,786.365601C472,794.596008,479.429993,798.510986,485.193329,793.31842z"/>
    <path transform="matrix(-0.417005,0,0,-0.417005,-346.032135,-299.919312)" style="stroke:#000000;stroke-width:0.05mm;fill:none" d="M1084.076904,792.076904C1087.650024,788.505981,1087.719971,786.440002,1084.5,779.406311C1081.47998,772.797974,1081.380005,769.645996,1083.999512,762.760742C1086.26001,756.807983,1086.569946,751.969971,1084.800049,750.200012C1082.680054,748.08197,1078.199951,748.848999,1074.765747,751.917236L1071.5,754.834412L1071.5,772.810852C1071.5,789.085022,1071.680054,790.987,1073.405029,792.893677C1076.170044,795.950012,1080.540039,795.61499,1084.076904,792.076904z"/>
    <path transform="matrix(-0.417005,0,0,-0.417005,-346.032135,-299.919312)" style="stroke:#000000;stroke-width:0.05mm;fill:none" d="M606.900085,788.159973C611.080017,785.497986,617.341003,781.820007,620.814026,779.986511C627.926025,776.231995,630.280029,772.882019,629.806763,767.18988C629.546021,764.051025,628.94397,763.228027,625.779053,761.681519C620.426025,759.065002,617.468018,760.763,613.009827,769.008789C606.072998,781.838013,595.905029,783.309998,577.616638,774.131836C572.052002,771.338989,561.424988,766.504028,554,763.385315C536.903015,756.205017,532.872986,755.903992,521.977356,760.991699C515.481995,764.025024,513.294983,764.530029,505.319794,764.835815C497.811005,765.124023,495.821991,765.539001,494.394989,767.116028C492.765015,768.916992,492.757996,769.268982,494.285706,772.4729C498.276001,780.841003,506.778015,781.781006,517.868408,775.079529C528.143005,768.870972,532.856018,768.150024,543,771.23175C547.275024,772.531006,579.58197,786.692017,586.5,790.2995C594.137024,794.281982,597.90802,793.885986,606.900085,788.159973z"/>
    <path transform="matrix(-0.417005,0,0,-0.417005,-346.032135,-299.919312)" style="stroke:#000000;stroke-width:0.05mm;fill:none" d="M945.076416,783.727478C949.940979,780.448975,951.729004,776.895996,950.200684,773.541138C946.695984,765.848999,927.987976,766.887024,928.006592,774.773071C928.013977,777.755981,930.565979,782.203003,933.580261,784.483826C936.411011,786.625977,941.247986,786.307983,945.076416,783.727478z"/>
    <path transform="matrix(-0.417005,0,0,-0.417005,-346.032135,-299.919312)" style="stroke:#000000;stroke-width:0.05mm;fill:none" d="M661.184387,778.33313C665.038025,774.844971,662.497009,768.280029,656.394958,765.960083C653.422974,764.830017,646.971008,764.716003,645.399719,765.76532C643.947998,766.734009,642,770.492981,642,772.323486C642,778.747986,655.911011,783.106018,661.184387,778.33313z"/>
    <path transform="matrix(-0.417005,0,0,-0.417005,-346.032135,-299.919312)" style="stroke:#000000;stroke-width:0.05mm;fill:none" d="M439.25,772.96167C443.812988,768.236023,444.235992,764.14502,440.545441,760.454529C437.510986,757.419983,435.643005,757.383972,429.971191,760.25C424.029999,763.252991,422.171997,766.586975,423.992157,770.981018C425.575012,774.802002,430.630005,778.221985,433.496643,777.412048C434.597992,777.101013,437.187988,775.098022,439.25,772.96167z"/>
    <path transform="matrix(-0.417005,0,0,-0.417005,-346.032135,-299.919312)" style="stroke:#000000;stroke-width:0.05mm;fill:none" d="M1108.073486,775.284668C1111.47998,772.419006,1116,763.51001,1116,759.662598C1116,755.908997,1113.619995,753.599976,1109.746826,753.599976C1105.170044,753.599976,1101.719971,755.971008,1099.50293,760.634949C1093.660034,772.950012,1099.329956,782.642029,1108.073486,775.284668z"/>
    <path transform="matrix(-0.417005,0,0,-0.417005,-346.032135,-299.919312)" style="stroke:#000000;stroke-width:0.05mm;fill:none" d="M1029.02417,771.25C1032.089966,767.359985,1031.530029,757.252991,1028.030396,753.532288C1024.5,749.77002,1019.01001,750.01001,1015.588928,754.076721C1012.409973,757.856995,1012.390015,759.143005,1015.402771,765.618347C1019.330017,774.059021,1024.969971,776.390015,1029.02417,771.25z"/>
    <path transform="matrix(-0.417005,0,0,-0.417005,-346.032135,-299.919312)" style="stroke:#000000;stroke-width:0.05mm;fill:none" d="M1362.514038,767.984497C1363.660034,766.723022,1364.459961,764.01001,1364.675903,760.734497C1366.599976,730.929993,1368.339966,712.203003,1369.586914,708.019287C1371.76001,700.708008,1375.920044,696.570007,1385.885376,691.823059C1401.869995,684.208008,1411.609985,675.982971,1417.950806,664.741089C1422.319946,656.992004,1424.790039,654.632996,1432.687744,650.657227C1440.790039,646.578979,1443.069946,643.289001,1440.521851,639.393066C1437.51001,634.799988,1430.810059,635.19397,1419.293579,640.640991C1413,643.616028,1410.52002,647.013,1409.609131,653.88855C1408.099976,665.281982,1395.319946,676.653992,1378.547729,681.529175C1374.290039,682.765991,1371.290039,684.52002,1367.74353,687.836609C1358.469971,696.508972,1357.890015,698.47699,1356.069702,727.513977C1355.420044,737.934021,1354.72998,741.836975,1352.626221,747.092407C1348.619995,757.098022,1349.52002,764.445984,1355.216797,768.43927C1358.209961,770.536011,1360.319946,770.403992,1362.514038,767.984497z"/>
    <path transform="matrix(-0.417005,0,0,-0.417005,-346.032135,-299.919312)" style="stroke:#000000;stroke-width:0.05mm;fill:none" d="M473.524109,765.776001C481.229004,762.03302,481.562988,757.335022,474.561493,751.18811C469.605011,746.835999,465.220001,746.85498,460.423615,751.25061C457.815002,753.640991,456.730988,755.586975,456.325958,758.606445C455.022003,768.328979,462.151001,771.301025,473.524109,765.776001z"/>
    <path transform="matrix(-0.417005,0,0,-0.417005,-346.032135,-299.919312)" style="stroke:#000000;stroke-width:0.05mm;fill:none" d="M600.545471,762.545471C605.903992,757.185974,602.39502,753.138,589.369324,749.651672C584.369019,748.312988,573.577026,744.416016,565.388611,740.990417C545.987976,732.875,534.515991,729,529.889038,729C527.172974,729,524.924988,729.937988,521.654053,732.434265C514.965027,737.539978,511.598999,739,506.517548,739C499.795013,739,495.652008,736.833008,487.655182,729.134155C479.598999,721.377991,475.627991,719,470.731171,719C463.171997,719,446.475006,726.01001,439.548035,732.09198C436.729004,734.567017,436,735.940002,436,738.774841C436,743.213013,438.407013,746,442.241547,746C444.450012,746,446.692993,744.552979,451.336548,740.133911C458.901001,732.934021,460.639008,732,466.46637,732C473.365997,732,477.411011,734.203979,486.190674,742.74469L494.162659,750.5L501.831329,750.461365C507.971008,750.429993,510.79599,749.862976,516,747.61322C527.736023,742.539978,532.53302,741.487976,538.335815,742.713867C544.013,743.913025,570.640991,754.758972,583.290283,761.02417C592.744995,765.70697,597.007996,766.083008,600.545471,762.545471z"/>
    <path transform="matrix(-0.417005,0,0,-0.417005,-346.032135,-299.919312)" style="stroke:#000000;stroke-width:0.05mm;fill:none" d="M419.600006,751.599976C428.303009,742.896973,419.799988,732.278992,409.160675,738.564148C404.878998,741.093018,403.665985,744.265991,405.397614,748.409241C408.377014,755.539001,414.324005,756.875977,419.600006,751.599976z"/>
    <path transform="matrix(-0.417005,0,0,-0.417005,-346.032135,-299.919312)" style="stroke:#000000;stroke-width:0.05mm;fill:none" d="M1137.137085,741.569702C1150.310059,734.591003,1174.930054,729.140991,1196.396118,728.452148C1212.469971,727.937012,1214.25,727.093994,1213.80249,720.2005C1213.540039,716.182007,1213.099976,715.323975,1210.668335,714.164185C1208.199951,712.987976,1206.650024,713.085999,1198.668335,714.918457C1193.630005,716.077026,1182.969971,718.129028,1175,719.478638C1167.030029,720.828003,1156.449951,723.077026,1151.5,724.474304C1146.550049,725.872009,1138.900024,727.724976,1134.5,728.592773C1124.640015,730.536987,1122.410034,731.906006,1120.896606,736.950623C1119.890015,740.312988,1119.959961,741.29303,1121.378296,743.454651C1123.800049,747.150024,1127.420044,746.71698,1137.137085,741.569702z"/>
    <path transform="matrix(-0.417005,0,0,-0.417005,-346.032135,-299.919312)" style="stroke:#000000;stroke-width:0.05mm;fill:none" d="M1339.529541,741.967407C1341.01001,740.325989,1341.52002,737.390015,1342.170898,726.717407C1342.609985,719.447998,1343.25,710.731018,1343.599609,707.347168C1344.189941,701.502991,1344.099976,701.109009,1341.620483,699.486938C1338.109985,697.184021,1334.449951,698.237976,1332.430908,702.133667C1330.930054,705.028015,1328.829956,722.625,1328.603516,734.175293C1328.449951,742.104004,1335.109985,746.854004,1339.529541,741.967407z"/>
    <path transform="matrix(-0.417005,0,0,-0.417005,-346.032135,-299.919312)" style="stroke:#000000;stroke-width:0.05mm;fill:none" d="M1104.759033,739.75C1107.619995,736.695984,1109,732.718994,1109,727.530334C1109,723.828003,1107.949951,721.596985,1101.857666,712.345398C1085.910034,688.133972,1075.72998,675.781006,1049.920776,649.33429C1034.48999,633.523987,1030.569946,630.788025,1015.881714,625.574341C1013.340027,624.672974,1008.02002,621.474976,1004.046387,618.46759C996.940002,613.083984,993.296021,611.893005,990.104736,613.914124C987.643982,615.471985,989.377014,622.533997,993.436584,627.487915C999.197998,634.518005,1002.150024,636.127014,1011.129517,637.131531C1024.109985,638.583984,1031.310059,643.447998,1039.30896,656.170898C1041.599976,659.814026,1044.430054,662.752014,1047.218018,664.387573C1052.160034,667.281982,1055.709961,670.867004,1058.854126,676.139587C1060.050049,678.140991,1064.02002,682.405029,1067.672363,685.61377C1072.969971,690.260986,1074.97998,692.895996,1077.560059,698.562256C1080.050049,704.028015,1082.109985,706.797974,1086.467529,710.516357C1094.560059,717.429016,1095.380005,719.435974,1094.536255,730.225708C1094.040039,736.570984,1094.180054,739.517029,1095.043335,740.552185C1096.900024,742.794983,1102.329956,742.348022,1104.759033,739.75z"/>
    <path transform="matrix(-0.417005,0,0,-0.417005,-346.032135,-299.919312)" style="stroke:#000000;stroke-width:0.05mm;fill:none" d="M1034.789795,737.08728C1040.719971,734.031006,1046.569946,728.43103,1049.784546,722.727783C1051.430054,719.820007,1055.300049,715.281982,1058.384155,712.643127C1062.969971,708.723999,1064,707.276001,1064,704.737122C1064,700.747986,1060.540039,697,1056.866211,697C1053.329956,697,1050.040039,700.492981,1045.567627,708.995117C1041.130005,717.421021,1037.52002,720.781006,1031.038574,722.489807C1024.209961,724.291016,1022,726.357971,1022.01532,730.904968C1022.030029,734.971985,1022.650024,736.187012,1025.5,737.805054C1028.369995,739.43103,1030.569946,739.260986,1034.789795,737.08728z"/>
    <path transform="matrix(-0.417005,0,0,-0.417005,-346.032135,-299.919312)" style="stroke:#000000;stroke-width:0.05mm;fill:none" d="M1076.794678,736.349548C1081.930054,733.098022,1081.939941,724.5,1076.813721,720.69812C1074.420044,718.919983,1073.780029,718.846985,1070.947144,720.021912C1067.410034,721.487976,1062,728.252991,1062,731.215759C1062,738.059021,1069.819946,740.771973,1076.794678,736.349548z"/>
    <path transform="matrix(-0.417005,0,0,-0.417005,-346.032135,-299.919312)" style="stroke:#000000;stroke-width:0.05mm;fill:none" d="M401.600006,728.599976C407.851013,722.348999,405.222992,714.984985,396.75,715.014771C388.540009,715.04303,385.391998,718.703979,388.053375,725.128845C389.507996,728.640015,393.507996,732,396.234863,732C397.31601,732,399.730011,730.469971,401.600006,728.599976z"/>
    <path transform="matrix(-0.417005,0,0,-0.417005,-346.032135,-299.919312)" style="stroke:#000000;stroke-width:0.05mm;fill:none" d="M433.37912,718.950012C440.700012,712.682983,441.907013,712.072021,455.731506,707.618164C474.859009,701.455994,480.608002,702.695984,494.468445,715.969788C501.541992,722.744019,503.377991,724,506.204254,724C510.804993,724,514,721.565002,514,718.059265C514,714.541016,510.510986,711.435974,495.372955,701.4823C476.251007,688.909973,473.170013,687.973999,465.931519,692.543213C460.096008,696.22699,457.415985,697.070984,448.737152,697.957947C441.799988,698.666992,440.240997,699.242981,434.081696,703.375549C430.290985,705.919006,426.764008,708,426.244598,708C425.725006,708,423.433014,709.353027,421.150024,711.006287C418.005005,713.284973,417,714.684021,417,716.783752C417,721.296997,419.553986,724.000977,423.806702,723.991089C426.790009,723.984009,428.631012,723.013977,433.37912,718.950012z"/>
    <path transform="matrix(-0.417005,0,0,-0.417005,-346.032135,-299.919312)" style="stroke:#000000;stroke-width:0.05mm;fill:none" d="M1026.935303,708.533447C1028.569946,707.689026,1031.130005,704.612,1032.980103,701.283447C1034.73999,698.103027,1038.400024,693.432983,1041.09436,690.905945C1046.380005,685.955017,1047.069946,683.538025,1044.189575,679.985779C1040.630005,675.585999,1038.189941,676.690002,1022.327515,689.901367C1017.630005,693.812012,1017.27002,706.309021,1021.779602,708.936462C1023.969971,710.215027,1023.630005,710.242004,1026.935303,708.533447z"/>
    <path transform="matrix(-0.417005,0,0,-0.417005,-346.032135,-299.919312)" style="stroke:#000000;stroke-width:0.05mm;fill:none" d="M388.247559,702.586853C390.908997,701.442017,394.385986,701.051025,400.247559,701.23761C408.487,701.5,408.514008,701.492004,417.409607,696.5C422.309998,693.75,427.251007,690.242004,428.389099,688.704163C430.299011,686.124023,430.34201,685.700012,428.943146,683.204163C428.109009,681.71698,426.247986,679.932983,424.805969,679.239685C421.312988,677.559998,418.174988,678.817017,411.687897,684.491821C405.674011,689.752991,399.77301,692,391.971069,692C379.617004,692,373.589996,687.255005,369.457306,674.27594C367.237,667.304016,365.796997,664.72699,361.304535,659.692566C358.303986,656.328979,354.313995,650.960999,352.439911,647.762146C350.565002,644.564026,346.097992,637.862,342.513428,632.869141C338.209991,626.875977,335.463013,621.874023,334.429871,618.145813C331.691986,608.271973,331.035004,606.695007,327.08844,600.533997C324.963013,597.215027,322.43399,592.025024,321.468414,589C317.944,577.955994,305.89801,569.73999,302.894775,576.331604C301.575012,579.228027,303.010986,582.921997,309.891052,594.336426C312.597992,598.825989,317.697998,608.575012,321.225677,616C327.93399,630.119019,335.768005,643.661011,346.969879,660.5C350.628998,666,357.488007,677.025024,362.21347,685C370.339996,698.716003,374.580994,704.14801,378,705.221313C379.679993,705.749023,382.700989,704.971985,388.247559,702.586853z"/>
    <path transform="matrix(-0.417005,0,0,-0.417005,-346.032135,-299.919312)" style="stroke:#000000;stroke-width:0.05mm;fill:none" d="M1349.61853,685.376709C1353.420044,683.575012,1356.51001,679.783997,1357.543701,675.681702C1358.359985,672.413025,1355.98999,668.325012,1352.490723,666.99646C1349.030029,665.679993,1340.339966,668.507019,1336.718506,672.127686C1334.280029,674.567017,1333.869995,675.622009,1334.388916,678.194763C1335.170044,682.107971,1336.689941,683.955017,1340.499634,685.614075C1344.449951,687.335022,1345.550049,687.307007,1349.61853,685.376709z"/>
    <path transform="matrix(-0.417005,0,0,-0.417005,-346.032135,-299.919312)" style="stroke:#000000;stroke-width:0.05mm;fill:none" d="M457.985809,681.170288C460.816986,679.065979,461.678986,675.137024,459.997833,671.995972C458.51001,669.216003,453.128998,666.002991,450,666.026001C442.82901,666.078979,438.11499,677.11499,443.124542,682.124512C444.936005,683.935974,446.002014,684.159973,450.360352,683.643738C453.171997,683.310974,456.602997,682.197998,457.985809,681.170288z"/>
    <path transform="matrix(-0.417005,0,0,-0.417005,-346.032135,-299.919312)" style="stroke:#000000;stroke-width:0.05mm;fill:none" d="M396.71521,677.013672C397.384003,677.005981,399.520996,675.603027,401.46521,673.896423C406.123993,669.80603,406.341003,665.187988,402.076935,660.923096C399.790985,658.637024,398.255005,658,395.027252,658C387.846008,658,382.934998,661.593994,382.782074,666.96051C382.606995,673.111023,388.316986,678.724976,393.5,677.5C394.600006,677.23999,396.046997,677.020996,396.71521,677.013672z"/>
    <path transform="matrix(-0.417005,0,0,-0.417005,-346.032135,-299.919312)" style="stroke:#000000;stroke-width:0.05mm;fill:none" d="M1024.076904,671.076904C1027.589966,667.559021,1027.780029,664.447021,1024.726196,659.921692C1019.940002,652.812988,1010.429993,649.45697,1007.992493,654.014038C1006.22998,657.304993,1009.119995,667.598022,1013.24353,672.75C1015.140015,675.120972,1020.929993,674.228027,1024.076904,671.076904z"/>
    <path transform="matrix(-0.417005,0,0,-0.417005,-346.032135,-299.919312)" style="stroke:#000000;stroke-width:0.05mm;fill:none" d="M1381.890747,665.55542C1389.810059,661.539978,1396,655.211975,1396,651.121094C1396,649.205017,1392.810059,647,1390.044312,647C1386.48999,647,1372.199951,654.093018,1369.093994,657.400024C1366.530029,660.130981,1366.040039,664.143982,1367.997437,666.496948C1369.880005,668.768005,1376.430054,668.323975,1381.890747,665.55542z"/>
    <path transform="matrix(-0.417005,0,0,-0.417005,-346.032135,-299.919312)" style="stroke:#000000;stroke-width:0.05mm;fill:none" d="M431.586304,663.351501C434.979004,661.127991,437.191986,656.612976,436.412079,653.505676C435.562988,650.122986,430.472992,646,427.145782,646C419.454987,646,413.971008,657.372009,419.03894,662.811462C421.544006,665.5,427.890015,665.77301,431.586304,663.351501z"/>
    <path transform="matrix(-0.417005,0,0,-0.417005,-346.032135,-299.919312)" style="stroke:#000000;stroke-width:0.05mm;fill:none" d="M379.685547,648.825684C382.410004,646.265991,382.752014,641.35498,380.507538,637.014587C379.687012,635.427002,376.417999,632.130005,373.243683,629.6875C368.962006,626.393005,366.449005,623.380005,363.509735,618.017761C358.688995,609.223022,355.891998,606.794983,351.053314,607.201355C347.835999,607.471985,347.470001,607.812012,347.182678,610.803284C346.80899,614.692017,348.787994,618.35199,356.368774,627.79303C359.330994,631.481995,363.178986,637.044983,364.919586,640.156128C370.78299,650.632996,375.078003,653.153992,379.685547,648.825684z"/>
    <path transform="matrix(-0.417005,0,0,-0.417005,-346.032135,-299.919312)" style="stroke:#000000;stroke-width:0.05mm;fill:none" d="M409.714691,641.622681C414.567993,637.174988,414.826996,632.364014,410.450012,627.992249C406.17099,623.718994,402.122009,623.184998,398.310944,626.391846C394.755005,629.383972,393.696014,633.314026,395.087219,638.353699C397.09201,645.614014,403.738007,647.099976,409.714691,641.622681z"/>
    <path transform="matrix(-0.417005,0,0,-0.417005,-346.032135,-299.919312)" style="stroke:#000000;stroke-width:0.05mm;fill:none" d="M390.587189,616.507263C393.701996,611.752991,390.779999,607.107971,376.38858,593.942139C360.186005,579.119019,348.730988,574.231995,341.229614,578.942017C336.661987,581.809998,335.153992,585.401978,337.077301,588.828613C339.346985,592.872009,342.109009,593.820984,348.330017,592.693298C359.110992,590.739014,364.38501,593.698975,372.642151,606.336853C379.437988,616.737976,381.764008,619,385.664032,619C388.066986,619,389.394012,618.328003,390.587189,616.507263z"/>
    <path transform="matrix(-0.417005,0,0,-0.417005,-346.032135,-299.919312)" style="stroke:#000000;stroke-width:0.05mm;fill:none" d="M333.035187,569.481812C340.359009,565.695007,336.040009,555.302979,326.354156,553.40741C319.867004,552.138,316.501007,560.552979,321.138123,566.448486C324.671997,570.940979,328.382996,571.888,333.035187,569.481812z"/>
    <path transform="matrix(-0.417005,0,0,-0.417005,-346.032135,-299.919312)" style="stroke:#000000;stroke-width:0.05mm;fill:none" d="M302.487427,561.603455C303.806,560.284973,305.626007,556.653015,306.533722,553.532043C307.894012,548.853027,307.967987,547.335999,306.953918,544.888733C304.210999,538.265991,296.042999,536.802979,290.844086,542.002075C288.291992,544.554016,287.945007,545.491028,288.529724,548.252075C289.688995,553.726013,293.170013,561.005981,295.363831,562.542297C298.255005,564.567993,299.716003,564.375,302.487427,561.603455z"/>
    <path transform="matrix(-0.417005,0,0,-0.417005,-346.032135,-299.919312)" style="stroke:#000000;stroke-width:0.05mm;fill:none" d="M267.572113,513.714539C268.712006,513.046997,271.328003,510.613007,273.386963,508.307007C275.445007,506.001007,279.148987,502.931,281.61731,501.4841C287.037994,498.307007,288.744995,494.786011,286.513916,491.38089C283.108002,486.182007,277.001007,487.061005,269.761169,493.790741C259.433014,503.390991,256.502014,510.136993,261.222504,513.443298C263.856995,515.289001,264.81601,515.330017,267.572113,513.714539z"/>
    <path transform="matrix(-0.417005,0,0,-0.417005,-346.032135,-299.919312)" style="stroke:#000000;stroke-width:0.05mm;fill:none" d="M243.708313,509.49176C245.143005,508.487,246.257004,506.066986,247.044937,502.24176C248.959,492.957001,250.037003,491.52301,262.886902,481.193542C266.178986,478.546997,267,477.23999,267,474.643524C267,468.251007,263.080994,467.410004,254.221481,471.89978C246.348999,475.890015,244.119995,478.605988,242.349258,486.36908C239.856995,497.29599,233.029999,501.097992,219.659348,499.005371C215.722,498.389008,206.875,497.479004,200,496.983704C192.927994,496.473999,184.893997,495.252014,181.5,494.169128C173.794998,491.712006,151.184006,490.442993,141.829483,491.943268C130.925995,493.691986,126.111,492.147003,118.274971,484.387756L111.824043,478L100.662018,478.005585C83.417702,478.014008,78.344299,480.381989,84.25,485.663849C86.9151,488.048004,90.220001,489.359985,99,491.51944C102.574997,492.398987,108.987999,494.447998,113.252136,496.072479C126.023003,500.938995,131.585007,501.998993,152,503.458862C162.725006,504.226013,177.350006,505.584015,184.5,506.478119C199.089005,508.302002,226.373993,510.644012,235.527496,510.858765C239.479996,510.950989,242.296005,510.480988,243.708313,509.49176z"/>
    <path transform="matrix(-0.417005,0,0,-0.417005,-346.032135,-299.919312)" style="stroke:#000000;stroke-width:0.05mm;fill:none" d="M324.659546,484.25C343.053986,466.026001,352.497009,453.421997,363.880249,431.903748C371.178986,418.105988,374.423004,409.227997,376.516449,397.316742C378.251007,387.449005,377.774994,382.010986,374.952667,379.457153C373.342987,378,372.605011,377.92099,370.143005,378.940765C362.860992,381.957001,360.158997,388.140015,363.060547,395.146149C365.253998,400.441986,363.790985,408.140991,359.256653,415.161591C357.005005,418.64801,352.675995,426.674988,349.635956,433C344.128998,444.457001,333.419006,459.84201,324.697784,468.822723C322.144989,471.450989,317.269012,474.695007,312.256439,477.098083C303.970001,481.071014,301.697998,483.212006,300.471954,488.199677C299.492004,492.187012,303.589996,496,308.854309,496C312.550995,496,313.54599,495.26001,324.659546,484.25z"/>
    <path transform="matrix(-0.417005,0,0,-0.417005,-346.032135,-299.919312)" style="stroke:#000000;stroke-width:0.05mm;fill:none" d="M228,483C231.570999,479.428986,229.934006,475.06601,224.205673,472.888092C222.839005,472.368988,215.949997,471.429993,208.896072,470.803009C194.371002,469.510986,189.110992,470.373993,186.413025,474.492401C182.604996,480.303986,187.363998,482.949005,201.899216,483.09967C207.179993,483.154999,212.625,483.559998,214,484C219.033005,485.612,225.876999,485.122986,228,483z"/>
    <path transform="matrix(-0.417005,0,0,-0.417005,-346.032135,-299.919312)" style="stroke:#000000;stroke-width:0.05mm;fill:none" d="M144,477C148.287994,472.712006,145.423996,466,139.305176,466C136.384995,466,128,469.291992,128,470.438538C128,470.657013,127.733002,471.531006,127.407562,472.38028C127.046997,473.320007,127.886002,474.916992,129.553589,476.462067C133.130997,479.778015,140.932007,480.067993,144,477z"/>
    <path transform="matrix(-0.417005,0,0,-0.417005,-346.032135,-299.919312)" style="stroke:#000000;stroke-width:0.05mm;fill:none" d="M173,469.523804C177.013,461.524994,179.828995,459.43399,189.335007,457.393433C201.716995,454.735992,218.455002,456.062012,229.102707,460.543243C232.313004,461.894012,236.274994,463,237.906677,463C239.537994,463,246.414993,460.489014,253.186813,457.419647C268.335999,450.553986,271.07901,449.699005,274.181763,450.878998C278.515015,452.527008,279.506012,454.743011,279.278656,462.276367C278.990997,471.790985,281.397003,475.901001,287.295441,475.968201C290.190002,476.001007,294.979004,472.177002,295.025513,469.795441C295.040009,469.083008,293.576996,464.697998,291.775513,460.052124C288.996002,452.882996,287.368988,450.408997,281.026886,443.707489C274.044006,436.32901,273.334991,435.846008,270.222015,436.35141C268.390015,436.648987,263.877014,439.109985,260.195099,441.820007C256.513,444.529999,251.925003,447.562012,250,448.557373C244.634003,451.332001,235.266998,450.925995,225,447.475159C217.697998,445.020996,214.949997,444.618011,205.5,444.617981C192.658997,444.618011,184.873001,446.776001,169,454.736084C161.197006,458.648987,159.190002,460.134003,157.762726,463.050964C156.412003,465.811005,156.238007,467.345001,156.982437,469.938782C158.522003,475.306,160.785995,477.140991,165.448257,476.797821C169.380005,476.509003,169.604004,476.292999,173,469.523804z"/>
    <path transform="matrix(-0.417005,0,0,-0.417005,-346.032135,-299.919312)" style="stroke:#000000;stroke-width:0.05mm;fill:none" d="M315.68988,457.75C319.949005,453.259003,331.466003,437.933014,333.417542,434.159485C334.300995,432.450989,336.203003,427.785004,337.64389,423.789703C339.084991,419.795013,342.230011,413.654999,344.63205,410.146698C347.539001,405.901001,349,402.701996,349,400.58374C349,393.170013,342.927002,393.291992,333.187378,400.901489C328.294006,404.725006,327.002991,407.904999,326.978027,416.200348C326.942993,427.760986,321.713989,436.338989,310.201843,443.724396C304.212006,447.566986,302.673004,450.375,304.008423,455.029358C306.009003,462.005005,310.632996,463.082001,315.68988,457.75z"/>
    <path transform="matrix(-0.417005,0,0,-0.417005,-346.032135,-299.919312)" style="stroke:#000000;stroke-width:0.05mm;fill:none" d="M298.315735,434.8638C302.651001,432.609009,310.751007,425.016998,311.975098,422.06015C312.662994,420.39801,312.941986,417.904999,312.594238,416.519409C312.059998,414.390015,311.384003,414,308.230957,414.000061C303.588989,414,288.243988,422.369995,286.708801,425.739746C285.411011,428.588013,287.015015,431.924011,290.816681,434.282227C294.015991,436.266998,295.411011,436.375,298.315735,434.8638z"/>
</svg>
