<?xml version="1.0" encoding="UTF-8"?>
<svg xmlns="http://www.w3.org/2000/svg" width="909.823mm" height="378.542mm" viewBox="-1203.538574 -605.706177 909.822632 378.542084">
    <path transform="matrix(-1,0,0,-1,0,0)" style="stroke:#000000;stroke-width:0.05mm;fill:none" d="M468.953125,501.011719L479.183594,501.011719C481.34964,500.921936,483.516724,501.164246,485.609375,501.730469C487.18042,502.21756,488.62558,503.043213,489.84375,504.148438L491.660156,505.851563C492.341858,504.220154,493.028503,502.594727,493.722656,500.96875C494.542542,499.119934,495.582642,497.376862,496.820313,495.777344C497.585266,494.846069,498.541626,494.090424,499.625,493.5625C501.385681,492.799408,503.429749,493.133606,504.855469,494.417969C505.809692,495.218262,506.598236,496.197418,507.175781,497.300781C508.135925,499.009674,508.902466,500.820313,509.460938,502.699219C509.639587,503.220276,509.793304,503.749542,509.921875,504.285156C510.667389,506.818085,511.255707,509.394562,511.683594,512L511.851563,512.875C513.867065,500.05719,515.757935,487.21814,517.523438,474.363281C519.317139,461.715942,521.18042,449.052734,523.105469,436.425781C523.337769,434.961761,523.579468,433.503632,523.832031,432.042969C524.341125,429.30191,526.062988,426.938873,528.515625,425.613281C530.078796,424.824982,531.91333,424.781921,533.511719,425.496094C534.205872,425.839325,534.80957,426.340851,535.273438,426.960938C535.605591,427.656158,535.811951,428.404663,535.882813,429.171875L536.175781,431.472656C536.359131,433.030914,536.523071,434.590118,536.667969,436.152344C537.539185,446.820221,538.251587,457.499298,538.804688,468.1875C539.533203,481.952515,540.196289,495.704041,540.796875,509.472656C541.299316,520.441162,541.875977,531.444214,542.523438,542.40625C542.978882,537.26416,543.420288,532.093811,543.84375,526.949219C544.531982,519.223022,545.405823,511.515991,546.464844,503.832031C546.778442,501.592072,547.184998,499.366272,547.683594,497.160156C547.837341,496.625,548.03833,496.104553,548.285156,495.605469C549.52655,493.827637,551.711243,492.966217,553.832031,493.417969C554.572144,493.593048,555.274292,493.901093,555.90625,494.324219C556.478882,494.690399,557.007141,495.121582,557.480469,495.609375C558.429321,496.542511,559.279419,497.571075,560.015625,498.679688L560.949219,500.117188L560.960938,500.132813C561.890137,501.641296,562.752808,503.189697,563.546875,504.773438C564.362122,506.498505,565.323975,508.150452,566.421875,509.710938L566.542969,509.855469C567.079651,508.463501,567.492615,507.026917,567.777344,505.5625C568.424377,502.344666,568.985657,499.110992,569.460938,495.863281L569.796875,493.8125L569.796875,493.761719L570.175781,491.710938L570.1875,491.667969C570.589417,489.491669,571.09375,487.335693,571.699219,485.207031L571.964844,484.402344L571.972656,484.386719C572.326721,483.316528,572.775452,482.280151,573.3125,481.289063C573.777283,480.495361,574.362061,479.778076,575.046875,479.164063C576.497192,478.003723,578.482605,477.772949,580.160156,478.570313C581.072998,478.96637,581.916016,479.506927,582.65625,480.171875C583.998291,481.296112,585.229248,482.5466,586.332031,483.90625C588.337036,486.342163,590.242249,488.858704,592.042969,491.449219C593.695496,493.844177,595.480774,496.144562,597.390625,498.339844C598.058105,499.048828,598.825256,499.656677,599.667969,500.144531C600.365234,500.510468,601.129272,500.732025,601.914063,500.796875C603.082581,500.896698,604.25354,500.964386,605.425781,501L675.714844,501C676.451599,500.960022,677.190063,500.967712,677.925781,501.023438C679.274231,501.110382,680.611938,501.32074,681.921875,501.652344C683.580811,502.131714,685.108154,502.983917,686.386719,504.144531L688.195313,505.839844C688.872864,504.185638,689.569214,502.540314,690.285156,500.902344L690.570313,500.277344L690.574219,500.261719C691.390869,498.516724,692.433777,496.886963,693.675781,495.414063C694.300903,494.73645,695.027527,494.160278,695.828125,493.703125C697.562744,492.793243,699.672974,493.004822,701.191406,494.242188C702.236755,495.068726,703.095093,496.107269,703.710938,497.289063C704.681702,498.996338,705.447571,500.812256,705.992188,502.699219C706.912781,505.601379,707.629517,508.56427,708.136719,511.566406L708.390625,512.871094C710.573608,498.911804,712.623901,484.954224,714.546875,470.957031C716.253662,458.890747,718.040771,446.815491,719.902344,434.773438C720.049377,433.963013,720.184814,433.150238,720.308594,432.335938C720.737,429.595154,722.361755,427.186188,724.742188,425.761719C726.176453,424.944733,727.885071,424.758881,729.460938,425.25C730.384766,425.571991,731.196716,426.153137,731.796875,426.925781C732.138733,427.625031,732.35083,428.380798,732.417969,429.15625L732.710938,431.460938L732.714844,431.484375L732.972656,433.777344L732.976563,433.832031L732.976563,433.855469C733.036438,434.61853,733.112,435.380615,733.203125,436.140625C734.068726,446.809967,734.780884,457.485779,735.339844,468.175781C735.973633,479.964294,736.543457,491.780396,737.046875,503.574219C737.634033,516.511169,738.302002,529.40033,739.054688,542.328125C739.408752,538.507141,739.737,534.681091,740.039063,530.855469C740.776917,521.819641,741.761658,512.80603,742.992188,503.824219C743.310913,501.556091,743.726624,499.302826,744.238281,497.070313C744.3927,496.514191,744.614441,495.979034,744.898438,495.476563C746.126831,493.837128,748.166626,493.019409,750.1875,493.355469C750.801514,493.468231,751.390564,493.690338,751.925781,494.011719C752.702759,494.42514,753.408142,494.960846,754.015625,495.597656C754.967896,496.529388,755.816223,497.561707,756.546875,498.675781L757.480469,500.105469L757.492188,500.121094C758.411743,501.581726,759.252563,503.090546,760.011719,504.640625C760.791016,506.229889,761.663635,507.771637,762.625,509.257813C762.767517,509.459564,762.919067,509.654755,763.078125,509.84375C763.614685,508.451721,764.02771,507.015198,764.3125,505.550781C764.953003,502.330322,765.515625,499.095184,766,495.847656C766.207275,494.461456,766.442993,493.07959,766.707031,491.703125L766.722656,491.640625C766.891968,490.807007,767.070557,489.934509,767.242188,489.101563C767.373169,488.576538,767.494141,488.049072,767.605469,487.519531L767.625,487.480469C768.054199,485.576782,768.677002,483.721954,769.484375,481.945313C769.992798,480.894989,770.698608,479.952362,771.5625,479.167969C773.078674,477.942535,775.180115,477.742767,776.902344,478.65625C777.679016,479.007874,778.400024,479.471344,779.042969,480.03125C780.438416,481.193665,781.719055,482.487335,782.867188,483.894531C784.806335,486.238159,786.642639,488.664978,788.371094,491.167969C789.900513,493.323822,791.501648,495.427765,793.171875,497.476563C793.890198,498.351471,794.717163,499.131226,795.632813,499.796875C796.475891,500.355896,797.445679,500.694244,798.453125,500.785156L799.9375,500.886719C801.281128,499.66394,802.683899,498.507446,804.140625,497.421875C805.396423,496.336548,806.828796,495.474518,808.375,494.871094C809.774963,494.3573,811.286743,494.229248,812.753906,494.496094C813.936401,494.757904,814.983276,495.442169,815.695313,496.421875C816.052124,496.888763,816.353577,497.395569,816.589844,497.933594C819.684265,493.936768,823.771729,490.820099,828.445313,488.894531C829.961731,488.138123,831.547119,487.528564,833.179688,487.074219C833.983887,486.868134,834.810425,486.761627,835.640625,486.757813C836.383423,486.635406,837.117737,486.466736,837.839844,486.253906C838.675476,486.064911,839.538147,486.026459,840.386719,486.144531C842.40918,486.373657,844.331665,487.1474,845.949219,488.382813C848.046021,489.934784,849.726807,491.98053,850.839844,494.339844C851.867798,496.640778,852.154785,499.204681,851.660156,501.675781C851.35791,503.216949,850.979858,504.742188,850.527344,506.246094C850.305603,507.045929,850.133545,507.858673,850.011719,508.679688C850.010803,508.872772,850.044617,509.06488,850.121094,509.242188C850.164978,509.362274,850.234863,509.471039,850.320313,509.566406L850.453125,509.707031C850.626953,509.869019,850.846924,509.97345,851.082031,510.007813C851.248718,510.045288,851.420959,510.04895,851.589844,510.023438C852.015808,509.845795,852.415344,509.610504,852.777344,509.324219C854.570435,507.930847,856.349365,506.522766,858.117188,505.097656C858.409424,504.656006,858.674438,504.196899,858.910156,503.722656C859.041016,503.508911,859.187073,503.304962,859.34375,503.109375L859.097656,502.539063C861.098083,500.874146,863.058411,499.249878,865.066406,497.59375C866.178223,496.522522,867.464783,495.648895,868.871094,495.011719C872.11908,493.649139,875.870789,494.430511,878.304688,496.976563C878.808472,497.552185,879.290649,498.146179,879.75,498.757813C880.240051,499.507568,880.69104,500.282043,881.101563,501.078125C881.777222,502.319946,882.429565,503.573761,883.058594,504.839844C884.226379,506.065521,885.310974,507.367737,886.304688,508.738281C887.156372,509.853821,888.00769,510.972473,888.855469,512.089844L889.621094,512.34375C891.057068,511.870697,892.406555,511.167358,893.617188,510.261719C894.67334,509.479675,895.686584,508.641266,896.652344,507.75C897.941895,506.578186,899.303955,505.488831,900.730469,504.488281C901.263123,504.148132,901.812134,503.83429,902.375,503.546875C902.953796,503.209503,903.456909,502.756195,903.851563,502.214844C904.702759,500.794037,905.676208,499.450195,906.761719,498.199219C910.859131,493.480255,915.202454,488.980499,919.773438,484.71875C920.63031,483.989685,921.660828,483.493835,922.765625,483.28125C924.049072,482.997345,925.371948,482.938538,926.675781,483.105469C927.151611,483.188934,927.608337,483.357269,928.027344,483.597656C928.640015,483.984436,929.040833,484.633514,929.101563,485.355469C929.30188,486.931976,929.486755,488.509705,929.65625,490.089844C928.30896,493.973877,927.062622,497.891357,925.917969,501.839844C924.940308,505.108887,923.993042,508.304565,923.03125,511.578125C922.999878,511.975311,922.898865,512.363708,922.734375,512.726563C922.282776,513.846619,921.880005,514.985596,921.527344,516.140625C921.330444,516.80426,921.244446,517.495911,921.273438,518.1875L921.324219,518.390625C921.399231,518.584656,921.521301,518.75531,921.671875,518.898438C921.995422,519.12677,922.381409,519.247986,922.777344,519.25C923.323853,519.276184,923.865601,519.137573,924.332031,518.851563C925.255493,518.319275,926.103027,517.665039,926.851563,516.90625C927.487732,516.29425,928.096436,515.654297,928.675781,514.988281C930.241821,513.274048,931.861206,511.609131,933.53125,509.996094C933.89093,509.669098,934.279663,509.37558,934.691406,509.117188C935.531189,508.464386,936.327454,507.757416,937.074219,507C937.738403,506.36438,938.408997,505.727753,939.078125,505.097656C939.304321,504.633789,939.541382,504.175385,939.789063,503.722656C939.967041,503.429932,940.169067,503.152435,940.394531,502.894531L940.285156,502.539063C941.932556,501.016968,943.550842,499.465027,945.140625,497.882813C946.641113,496.423279,948.268799,495.100555,950.003906,493.929688C951.378235,493.032379,952.865295,492.321198,954.425781,491.8125C955.998169,491.34079,957.646912,491.177795,959.28125,491.332031C960.872437,491.423645,962.430542,491.825439,963.867188,492.515625C965.685364,493.43512,967.163025,494.910156,968.085938,496.726563C968.977966,498.492798,969.552429,500.402222,969.785156,502.367188C969.891724,503.163208,969.964722,503.96347,970.003906,504.765625C970.113525,505.673157,970.484192,506.528961,971.070313,507.230469C971.571472,506.754028,972.069031,506.273438,972.5625,505.789063C972.777405,505.561218,972.989868,505.330658,973.199219,505.097656C975.440125,503.39386,977.658203,501.659058,979.851563,499.894531C982.555664,497.098389,985.331543,494.372009,988.175781,491.71875C988.485291,491.453979,988.806152,491.202789,989.136719,490.964844C991.150879,489.483795,993.25946,488.135895,995.449219,486.929688C997.196655,485.896606,999.025574,485.007965,1000.917969,484.273438C1001.354126,484.135773,1001.813721,484.091125,1002.269531,484.128906C1003.568787,484.133057,1004.854187,484.396149,1006.050781,484.902344C1007.673035,485.629913,1008.874084,487.058258,1009.3125,488.78125C1009.94989,490.946899,1009.945618,493.25061,1009.300781,495.414063C1008.895996,496.678558,1008.272156,497.862122,1007.457031,498.910156C1006.97052,499.56192,1006.436462,500.176849,1005.859375,500.75C1005.773804,501.247437,1005.719421,501.749725,1005.695313,502.253906C1007.260071,500.845154,1008.816833,499.4328,1010.371094,498.011719C1011.692078,496.806274,1013.03302,495.624176,1014.394531,494.464844C1015.772705,493.288208,1017.29718,492.294342,1018.929688,491.507813C1020.016602,490.975403,1021.162781,490.573486,1022.34375,490.308594C1023.642578,490.026154,1024.976074,489.938416,1026.300781,490.046875C1027.925781,490.171692,1029.550659,490.317627,1031.171875,490.484375C1032.147705,490.565826,1033.126343,490.609924,1034.105469,490.617188C1036.761963,490.726135,1039.253906,491.934631,1040.984375,493.953125C1042.032349,495.136169,1042.882568,496.480408,1043.503906,497.933594C1044.267944,499.625854,1044.853149,501.393219,1045.25,503.207031C1045.463623,504.114563,1045.64563,505.029297,1045.796875,505.949219C1045.954712,506.831543,1046.367554,507.647064,1046.976563,508.304688L1047.328125,508.679688C1048.73938,507.242279,1050.155151,505.816193,1051.582031,504.394531C1051.854492,504.130127,1052.12915,503.868835,1052.40625,503.609375L1051.941406,502.539063C1052.568115,501.889648,1053.207275,501.252808,1053.859375,500.628906C1054.59314,499.95639,1055.377441,499.341156,1056.203125,498.785156C1062.056763,494.689087,1067.568481,490.124603,1072.683594,485.136719C1075.50769,482.324127,1078.097046,479.28537,1080.425781,476.050781C1081.300415,474.80658,1082.125122,473.528229,1082.898438,472.21875C1086.991577,465.42981,1091.232666,458.729431,1095.617188,452.125C1096.97644,450.057648,1098.471802,448.083191,1100.09375,446.214844C1102.327271,443.51358,1104.839844,441.055969,1107.589844,438.882813C1109.257813,437.608826,1111.077759,436.547272,1113.007813,435.722656C1114.679932,435.045593,1116.455566,434.660004,1118.257813,434.582031C1118.926147,434.535858,1119.5979,434.596344,1120.246094,434.765625C1121.310303,434.985962,1122.101196,435.885132,1122.183594,436.96875C1122.313965,437.893463,1122.205322,438.836517,1121.867188,439.707031C1121.517456,440.756439,1120.980835,441.733765,1120.285156,442.59375C1119.205322,444.129883,1118.21167,445.724823,1117.308594,447.371094L1114.765625,449.585938C1114.591553,450.082306,1114.47644,450.597534,1114.425781,451.121094C1113.658203,451.968018,1112.837524,452.765076,1111.96875,453.507813C1111.607544,454.334076,1111.170654,455.125031,1110.664063,455.871094C1109.103882,458.201965,1107.429932,460.454712,1105.648438,462.621094C1101.045654,468.289215,1096.251221,473.798798,1091.273438,479.140625L1090.140625,480.367188C1089.581421,481.488892,1089.12561,482.659241,1088.777344,483.863281C1087.658325,486.167877,1086.615967,488.509033,1085.652344,490.882813C1084.829468,492.815369,1083.99707,494.734863,1083.148438,496.65625C1082.447876,498.770142,1081.914185,500.935699,1081.550781,503.132813C1081.193604,505.173645,1080.873169,507.220917,1080.589844,509.273438C1080.691162,509.52182,1080.759766,509.78186,1080.800781,510.046875C1080.85376,510.62796,1080.982788,511.199707,1081.1875,511.746094C1082.39502,511.109924,1083.526001,510.33786,1084.558594,509.445313C1085.919067,508.295105,1087.241333,507.100342,1088.523438,505.863281C1090.497559,503.219025,1092.814941,500.84964,1095.414063,498.816406C1096.821411,497.735504,1098.342041,496.810883,1099.949219,496.058594C1100.775879,494.369476,1101.935059,492.864594,1103.359375,491.636719C1105.189697,490.147247,1107.417847,489.229736,1109.765625,488.992188C1110.981812,488.842529,1112.213013,488.865845,1113.421875,489.066406C1114.105835,489.212219,1114.757202,489.480743,1115.347656,489.855469C1116.267212,490.488373,1116.891602,491.466461,1117.082031,492.566406C1117.297241,493.546722,1117.312744,494.560211,1117.128906,495.546875C1117.027832,496.14859,1116.89978,496.745483,1116.746094,497.335938C1117.050171,498.125458,1117.334473,498.922546,1117.597656,499.726563C1117.349487,500.796387,1117.149902,501.876892,1117,502.964844C1116.974976,504.119873,1117.070435,505.274231,1117.28125,506.410156C1117.358398,506.816833,1117.506836,507.206909,1117.71875,507.5625C1117.812256,507.679382,1117.913452,507.790039,1118.03125,507.882813L1118.226563,508C1118.350464,508.056824,1118.484985,508.088531,1118.621094,508.082031C1118.929932,507.934509,1119.218262,507.747284,1119.480469,507.527344C1121.029907,506.333618,1122.560425,505.114441,1124.070313,503.871094C1123.897827,503.421204,1123.733154,502.98938,1123.5625,502.539063C1124.913696,501.245544,1126.465942,500.179565,1128.160156,499.386719C1130.592773,498.196228,1133.143066,497.262695,1135.769531,496.601563C1137.258423,496.140228,1138.761719,495.727051,1140.277344,495.363281C1144.980347,495.009705,1149.671753,494.525146,1154.347656,493.910156C1158.217041,490.81189,1162.29834,487.988495,1166.5625,485.460938C1168.519043,484.336121,1170.555786,483.35675,1172.65625,482.53125C1173.362061,482.268646,1174.082031,482.04599,1174.8125,481.863281L1176.089844,480.753906C1178.449829,479.756042,1180.918457,479.037415,1183.445313,478.613281C1186.570557,478.020325,1189.720825,477.568268,1192.886719,477.257813L1193.179688,477.355469C1193.850952,477.606537,1194.464966,477.990234,1194.976563,478.492188C1195.863281,479.346497,1196.676392,480.273987,1197.40625,481.265625C1195.412842,483.461365,1193.53894,485.762939,1191.792969,488.160156C1190.38501,489.906067,1188.442017,491.141876,1186.261719,491.667969C1185.121948,491.914063,1183.986694,492.178497,1182.855469,492.460938C1181.468872,492.819,1180.09436,493.223083,1178.734375,493.671875C1177.868774,494.330444,1176.958008,494.927612,1176.007813,495.457031C1175.28894,495.902039,1174.576416,496.357849,1173.871094,496.824219C1172.208618,497.659698,1170.653687,498.694092,1169.242188,499.90625C1167.238647,501.591919,1165.312256,503.367126,1163.46875,505.226563C1161.437866,507.181519,1159.429199,509.161499,1157.445313,511.164063L1157.207031,511.449219C1157.057739,511.645782,1156.929321,511.856812,1156.8125,512.074219C1156.052124,513.39856,1155.040405,514.561279,1153.835938,515.5C1151.459839,519.646667,1149.0448,523.765015,1146.585938,527.863281C1146.09436,528.390625,1145.627563,528.940674,1145.1875,529.511719C1144.736084,530.045532,1144.280396,530.575317,1143.820313,531.101563C1143.056763,532.127808,1142.48291,533.282532,1142.128906,534.511719C1141.60083,536.300354,1141.254883,538.137817,1141.097656,539.996094C1140.838623,542.496277,1140.745972,545.010925,1140.820313,547.523438C1141.030518,550.187378,1141.77417,552.781982,1143.007813,555.152344C1144.281006,557.688599,1145.848877,560.06604,1147.679688,562.234375C1151.342407,566.717957,1155.679443,570.605164,1160.535156,573.757813C1161.753418,574.52832,1163.011841,575.233582,1164.304688,575.871094C1167.496704,577.505859,1170.656616,579.199707,1173.785156,580.953125L1174.953125,581.582031C1177.178833,573.353577,1179.192383,565.07019,1180.992188,556.738281C1182.974121,547.853882,1184.747192,538.921082,1186.308594,529.953125C1186.701172,527.601379,1186.999756,525.234985,1187.203125,522.859375L1187.226563,522.066406C1187.562256,520.655396,1187.846191,519.232544,1188.078125,517.800781L1191.484375,501.003906C1192.84375,498.278381,1194.373901,495.641479,1196.066406,493.109375C1196.749146,492.12915,1197.520386,491.213654,1198.371094,490.375C1198.582886,490.182831,1198.815186,490.014709,1199.0625,489.871094C1199.256348,489.760345,1199.460693,489.669922,1199.671875,489.597656C1199.908813,489.551483,1200.151978,489.598663,1200.363281,489.714844C1200.503662,489.830322,1200.632324,489.95874,1200.753906,490.09375C1200.863647,490.240021,1200.960571,490.395355,1201.042969,490.558594C1201.501831,491.554962,1201.848511,492.599213,1202.078125,493.671875L1201.042969,498.535156C1201.265503,498.999146,1201.441162,499.484314,1201.5625,499.984375C1201.05188,505.602356,1200.583618,511.237549,1200.160156,516.863281C1199.89624,519.670288,1199.660645,522.477112,1199.453125,525.289063C1198.884888,531.78125,1197.902588,538.230713,1196.511719,544.597656L1197.535156,548.949219C1196.950439,550.656372,1196.5177,552.411926,1196.242188,554.195313C1195.856689,556.498718,1195.580811,558.81897,1195.414063,561.148438C1195.271729,562.897583,1195.086914,564.6427,1194.859375,566.382813C1194.741577,567.180786,1194.552002,567.966553,1194.292969,568.730469C1193.76001,570.8255,1193.276855,572.9328,1192.84375,575.050781C1192.684082,575.47406,1192.450195,575.866211,1192.148438,576.203125C1191.334717,577.191162,1190.459229,578.126587,1189.527344,579.003906C1188.423584,580.052673,1187.420898,581.203003,1186.535156,582.441406L1186.363281,582.726563C1185.425659,582.817993,1184.511353,583.072876,1183.660156,583.476563C1183.384888,583.645935,1183.156738,583.880432,1182.988281,584.15625C1182.929688,584.284058,1182.887939,584.418823,1182.871094,584.558594C1182.87207,584.700073,1182.887085,584.841187,1182.929688,584.976563L1183.0625,585.171875C1183.149292,585.305298,1183.269043,585.414673,1183.410156,585.488281C1184.182495,585.878113,1185.014038,586.136414,1185.871094,586.253906C1186.332397,586.358459,1186.804321,586.409241,1187.277344,586.40625C1188.719482,586.483521,1190.139404,586.795837,1191.480469,587.332031L1198.472656,590.746094C1199.706177,591.270081,1200.858765,591.966797,1201.898438,592.8125C1202.305542,593.168152,1202.63623,593.603149,1202.863281,594.09375C1202.962646,594.360535,1203.016968,594.641357,1203.027344,594.925781C1202.688721,596.048706,1202.401978,597.186646,1202.167969,598.335938C1202.567017,599.444397,1202.954102,600.558594,1203.328125,601.675781C1203.580933,602.321716,1203.612061,603.034058,1203.402344,603.695313L1203.285156,603.902344C1203.138062,604.091919,1202.954468,604.250732,1202.738281,604.355469L1202.507813,604.433594C1202.373413,604.465088,1202.235596,604.475037,1202.097656,604.476563C1200.704102,604.231567,1199.307861,603.975891,1197.917969,603.710938C1196.763672,604.05719,1195.625732,604.456055,1194.507813,604.90625C1192.421997,604.947144,1190.344604,604.629822,1188.367188,603.964844C1187.125366,603.317383,1185.885986,602.680176,1184.636719,602.046875C1184.236206,601.8526,1183.830811,601.668091,1183.421875,601.492188C1182.513306,601.640503,1181.605591,601.783691,1180.695313,601.921875C1180.375,601.920166,1180.05896,601.858521,1179.757813,601.75C1178.751343,601.111145,1177.667358,600.603394,1176.53125,600.242188C1175.221191,599.800781,1173.874634,599.476685,1172.507813,599.269531C1171.098145,599.028259,1169.718018,598.637939,1168.390625,598.105469C1162.21814,594.960449,1156.182983,591.553894,1150.300781,587.894531C1146.855103,585.718628,1143.587036,583.273804,1140.527344,580.582031C1138.209473,578.51709,1136.097778,576.231689,1134.222656,573.757813C1130.710571,569.065796,1128.473755,563.544006,1127.730469,557.730469C1127.454468,555.44397,1127.408813,553.135498,1127.59375,550.839844C1127.859741,547.134338,1128.563843,543.473389,1129.691406,539.933594C1130.934204,535.977661,1132.545532,532.147156,1134.503906,528.492188C1136.709595,524.32428,1139.211914,520.320435,1141.992188,516.511719C1145.426025,511.770416,1149.134155,507.234009,1153.097656,502.925781C1153.930542,502.011292,1154.77356,501.104309,1155.625,500.207031C1154.261108,500.757233,1152.868408,501.232971,1151.453125,501.632813C1150.282104,502.002594,1149.113525,502.383118,1147.949219,502.773438C1144.248535,503.595398,1140.552246,504.451355,1136.867188,505.339844C1134.543701,505.967072,1132.289185,506.825745,1130.136719,507.902344C1129.467773,508.259338,1128.827515,508.667755,1128.222656,509.125L1128.378906,509.484375L1128.582031,509.8125L1128.824219,510.117188L1129.109375,510.382813C1127.315552,512.152954,1125.366211,513.758179,1123.285156,515.179688C1121.807129,516.246399,1120.35498,517.348083,1118.929688,518.484375C1118.295776,519.00238,1117.680786,519.54303,1117.085938,520.105469C1115.479492,521.971436,1113.818604,523.789978,1112.105469,525.558594L1108.878906,528.972656C1107.723022,530.043396,1106.416504,530.939026,1105,531.628906C1103.614258,532.247742,1102.059326,532.379578,1100.589844,532C1100.010254,531.835693,1099.475952,531.53949,1099.035156,531.128906L1098.824219,530.914063C1098.38208,530.357483,1098.102417,529.68988,1098.015625,528.984375C1097.904541,528.000732,1097.934204,527.006226,1098.105469,526.03125C1098.459839,523.933533,1098.970703,521.865479,1099.632813,519.84375C1100.316895,517.821716,1100.97937,515.793579,1101.621094,513.757813C1102.240356,511.714325,1102.693237,509.624176,1102.976563,507.507813C1103.060791,506.844666,1103.078735,506.174866,1103.035156,505.507813L1102.980469,505.273438C1102.923828,505.124359,1102.850952,504.9823,1102.765625,504.847656C1102.643921,504.707184,1102.489136,504.600922,1102.320313,504.523438C1102.146484,504.461975,1101.965332,504.42511,1101.78125,504.414063L1101.355469,504.5C1098.310425,506.457855,1095.403809,508.623077,1092.65625,510.980469C1090.200195,513.29248,1087.796021,515.658936,1085.445313,518.078125C1083.457031,520.074158,1081.455688,522.057312,1079.441406,524.027344C1077.473877,525.650452,1075.6073,527.39209,1073.851563,529.242188C1072.77063,530.359375,1071.704956,531.493042,1070.65625,532.640625C1069.88147,533.683411,1068.835693,534.493774,1067.632813,534.984375C1066.697998,535.391846,1065.705811,535.652893,1064.691406,535.757813C1063.554077,535.915833,1062.400879,535.921448,1061.261719,535.777344C1060.702393,535.689209,1060.1698,535.476868,1059.703125,535.15625L1059.46875,534.957031C1059.181641,534.671448,1058.966797,534.322021,1058.839844,533.9375C1058.777832,533.741394,1058.748169,533.537292,1058.734375,533.332031C1058.703125,532.641785,1058.782104,531.951477,1058.964844,531.285156C1059.198975,530.151428,1059.480225,529.028015,1059.808594,527.917969C1061.043701,523.837769,1062.357544,519.78302,1063.75,515.753906C1065.023682,512.922302,1066.166626,510.033966,1067.175781,507.097656C1068.186523,504.249023,1069.175659,501.394684,1070.144531,498.53125L1069.550781,497.761719C1068.512085,498.318542,1067.535034,498.983276,1066.636719,499.746094C1064.625122,501.431915,1062.678589,503.193726,1060.800781,505.027344C1059.345459,506.423981,1057.903442,507.835968,1056.476563,509.261719L1056.964844,510.382813C1056.319458,511.132782,1055.739502,511.936676,1055.230469,512.785156C1054.669189,513.617798,1054.05188,514.411316,1053.382813,515.160156L1047.757813,520.105469C1047.69397,520.164001,1047.631104,520.223511,1047.574219,520.289063C1047.460205,520.420471,1047.392334,520.585266,1047.367188,520.757813C1047.268799,521.766724,1047.344482,522.784973,1047.585938,523.769531C1047.526001,525.423462,1047.355713,527.071594,1047.078125,528.703125C1046.796875,530.738098,1046.407349,532.756714,1045.910156,534.75C1045.792725,535.139587,1045.640991,535.517944,1045.453125,535.878906L1045.964844,537.5C1045.128296,541.71167,1044.089478,545.880493,1042.851563,549.992188C1041.391846,554.911926,1039.871704,559.816284,1038.292969,564.699219C1037.429932,566.156433,1036.669067,567.671875,1036.015625,569.234375C1035.504395,570.36438,1034.876953,571.754517,1034.367188,572.886719C1033.157593,576.499023,1031.672852,580.013245,1029.925781,583.398438C1027.593018,588.089783,1024.98291,592.638428,1022.109375,597.019531C1020.790344,598.988586,1019.333801,600.861877,1017.75,602.625C1016.902588,603.531006,1015.942871,604.324951,1014.894531,604.988281C1014.330688,605.309021,1013.718994,605.537354,1013.082031,605.660156C1011.466003,605.790649,1009.839966,605.64447,1008.273438,605.226563C1007.893433,605.117737,1007.520996,604.984375,1007.15625,604.832031C1006.160522,604.392395,1005.352783,603.612488,1004.886719,602.628906C1004.559143,601.979126,1004.323853,601.28656,1004.195313,600.570313C1003.757629,598.30481,1003.727356,595.97937,1004.105469,593.703125C1004.355774,592.258301,1004.55896,590.805725,1004.714844,589.347656C1004.759583,588.794006,1004.787354,588.239014,1004.796875,587.683594C1004.954285,586.362427,1005.282776,585.0672,1005.777344,583.832031C1006.103882,582.860962,1006.353577,581.865784,1006.523438,580.855469C1006.609131,580.277344,1006.653931,579.693848,1006.65625,579.109375C1006.718201,578.63385,1006.863892,578.173157,1007.082031,577.746094L1006.996094,576.550781C1007.666809,574.450806,1008.477234,572.398071,1009.421875,570.40625L1009.8125,569.558594C1010.89563,565.810303,1012.146912,562.112366,1013.5625,558.476563C1014.429504,557.099182,1015.295349,555.734253,1016.171875,554.363281L1016.632813,553.613281C1017.014648,552.18811,1017.534546,550.803528,1018.1875,549.480469C1018.873413,547.943542,1019.71344,546.480164,1020.695313,545.113281C1021.320313,544.207581,1021.927551,543.289429,1022.515625,542.359375C1023.036621,541.453735,1023.509827,540.521423,1023.933594,539.566406C1024.290161,538.812256,1024.633667,538.08313,1024.988281,537.328125C1026.042847,535.738953,1027.133179,534.173157,1028.257813,532.632813C1029.170166,531.335266,1030.069702,530.029663,1030.957031,528.714844C1032.67395,525.669312,1034.494019,522.68335,1036.414063,519.761719C1036.454468,517.207825,1036.151978,514.660156,1035.511719,512.1875C1035.102051,510.704407,1034.477905,509.289185,1033.65625,507.988281C1032.13269,505.679138,1029.768677,504.053528,1027.066406,503.460938C1025.783081,503.167419,1024.468628,503.032684,1023.152344,503.058594C1021.93811,503.301544,1020.738281,503.611603,1019.558594,503.988281C1017.978027,504.47171,1016.406006,504.983551,1014.84375,505.523438C1013.495117,506.406433,1012.207092,507.378601,1010.988281,508.433594C1010.296143,509.013794,1009.608398,509.599884,1008.925781,510.191406L1009.011719,510.382813C1008.517334,510.954834,1008.077881,511.572174,1007.699219,512.226563C1007.299683,512.855408,1006.91272,513.492188,1006.539063,514.136719L998.78125,519.25C997.762573,520.286682,996.905762,521.470642,996.238281,522.761719C995.653809,523.696533,994.844666,524.469849,993.886719,525.015625C993.458557,525.282349,993.013672,525.52124,992.554688,525.730469C991.170776,527.348511,989.664001,528.857239,988.046875,530.242188L987.355469,530.847656C985.33783,531.965698,983.47467,533.34198,981.8125,534.941406C978.251709,538.373047,974.457642,541.554016,970.457031,544.460938C968.484314,545.853455,966.398987,547.078857,964.222656,548.125C962.747131,548.804077,961.185974,549.278809,959.582031,549.535156C958.543518,549.666992,957.490173,549.615906,956.46875,549.386719C956.209473,549.310913,955.956482,549.214661,955.714844,549.09375L955.363281,548.890625C954.671875,548.408752,954.205444,547.66571,954.082031,546.832031C953.85437,545.243408,954.179138,543.625122,955,542.246094C955.435303,541.582947,955.998108,541.013184,956.65625,540.570313C958.206238,539.451721,959.740845,538.314209,961.261719,537.15625C963.531372,534.214172,966.200317,531.603088,969.191406,529.398438C969.687744,528.7547,970.171143,528.101074,970.640625,527.4375C972.126465,525.953186,973.723511,524.584534,975.417969,523.34375C975.914856,522.344116,976.535889,521.411255,977.265625,520.566406C979.10498,518.43811,981.076294,516.427673,983.167969,514.546875C984.34845,513.453186,985.544861,512.377808,986.757813,511.320313C987.38916,510.616882,987.977417,509.875916,988.519531,509.101563C989.991455,507.064789,991.45105,505.019318,992.898438,502.964844L992.300781,502.199219C990.897095,502.676636,989.574768,503.365784,988.378906,504.242188C986.779358,505.408325,985.268677,506.691864,983.859375,508.082031C981.888916,509.892639,979.900269,511.6922,977.902344,513.472656C977.463623,513.860046,977.004333,514.223389,976.527344,514.5625C975.651245,515.034485,974.797546,515.546753,973.96875,516.097656C972.117249,518.374268,970.027344,520.446045,967.734375,522.277344C966.36084,523.326721,964.844177,524.173584,963.230469,524.792969C962.136902,525.178711,960.978149,525.34552,959.820313,525.28125C958.86792,525.178223,958.019043,524.629211,957.53125,523.804688C957.387451,523.585327,957.2677,523.351074,957.175781,523.105469C956.757996,522.009644,956.525696,520.851807,956.488281,519.679688C956.615845,516.728699,956.670532,513.774231,956.652344,510.820313C956.582764,508.853271,955.743774,506.991943,954.316406,505.636719C953.315613,504.740997,951.984741,504.306458,950.648438,504.441406C949.996643,504.563202,949.388062,504.852539,948.878906,505.277344C948.588562,505.48465,948.311401,505.709778,948.046875,505.949219C947.305298,506.908142,946.536682,507.846191,945.742188,508.761719C945.091614,509.105194,944.483521,509.52359,943.929688,510.007813L944.109375,510.382813C943.657227,511.123444,943.154724,511.832092,942.605469,512.503906C942.368103,512.818237,942.129456,513.136902,941.894531,513.453125C939.806641,515.22522,937.821777,517.114929,935.949219,519.113281L935.359375,519.792969C932.645996,522.85791,930.187012,525.642578,927.480469,528.714844C924.483521,531.94751,921.5271,535.214966,918.609375,538.519531C917.174011,540.133545,915.417542,541.430115,913.453125,542.328125C911.367371,543.238647,909.072449,543.561401,906.816406,543.261719C905.783203,543.085876,904.833557,542.58606,904.101563,541.835938C903.477173,541.157959,903.0271,540.338623,902.785156,539.449219C902.245911,537.501709,902.184326,535.452942,902.605469,533.476563C903.203857,530.470398,903.949585,527.495483,904.839844,524.5625C905.926147,520.923584,907.078857,517.304016,908.296875,513.707031C908.865234,512.451904,909.427124,511.191345,909.980469,509.929688C910.34137,509.072632,910.549438,508.159149,910.597656,507.230469C910.536987,506.752594,910.325562,506.30777,910.003906,505.949219C909.532043,506.260162,909.117981,506.650696,908.777344,507.101563C908.613281,507.28302,908.453186,507.468048,908.296875,507.65625C907.733582,508.647003,907.029114,509.550507,906.207031,510.339844C905.121765,511.417145,903.998718,512.455444,902.839844,513.453125C901.890686,515.170166,900.645752,516.706177,899.164063,517.992188C898.8078,518.311035,898.440247,518.617065,898.0625,518.910156C897.638367,519.384705,897.243103,519.884277,896.878906,520.40625C896.228821,521.282166,895.474243,522.075439,894.632813,522.769531C893.060974,524.114685,891.385071,525.333191,889.621094,526.414063C888.012634,527.280334,886.333496,528.008484,884.601563,528.589844C881.791809,529.462524,878.731079,528.81488,876.515625,526.878906C875.530151,525.964172,874.714783,524.882202,874.105469,523.683594C873.050171,520.408081,871.96875,517.137634,870.863281,513.878906C870.440063,512.583374,869.823059,511.359314,869.03125,510.25C868.703796,509.831543,868.309509,509.470215,867.867188,509.175781C867.230957,508.775848,866.477051,508.605469,865.730469,508.691406C864.704102,508.778259,863.736267,509.206146,862.984375,509.910156L863.234375,510.382813C862.639099,511.019592,862.113098,511.717712,861.664063,512.464844C861.285339,513.027527,860.898376,513.584961,860.503906,514.136719L853.9375,518.65625C852.800293,519.972351,851.576172,521.210754,850.273438,522.363281C848.239868,524.214417,846.195801,526.045288,844.132813,527.863281C843.487244,529.125305,842.643738,530.275818,841.632813,531.269531C841.043457,531.879028,840.427063,532.461731,839.785156,533.015625C838.624634,534.017944,837.468201,535.009766,836.300781,536.003906C835.216125,537.009277,834.185791,538.071899,833.214844,539.1875C832.494629,539.978027,831.756287,540.751709,831,541.507813C829.963196,542.450134,828.756897,543.187012,827.445313,543.679688C826.218079,544.067993,824.918823,544.174316,823.644531,543.992188C823.041504,543.923767,822.456238,543.745178,821.917969,543.464844C821.52179,543.243652,821.231934,542.868408,821.132813,542.425781L821.109375,542.273438C821.683594,540.955688,822.281555,539.647949,822.902344,538.351563L822.390625,537.585938C819.997803,538.538147,817.567505,539.392944,815.105469,540.148438C814.276855,540.39563,813.40564,540.468811,812.546875,540.367188C811.003174,540.27356,809.485474,539.926819,808.054688,539.339844C805.869385,538.376282,804.107544,536.652588,803.097656,534.488281C802.345947,532.915283,801.84845,531.23291,801.625,529.503906C801.326111,527.536865,801.255432,525.54187,801.414063,523.558594C801.697815,521.058411,802.296387,518.604065,803.195313,516.253906C803.752136,514.736328,804.489258,513.291077,805.390625,511.949219C805.701111,511.506836,806.055115,511.09668,806.445313,510.722656C806.296326,510.151733,806.035217,509.616364,805.675781,509.148438C805.38855,508.844299,804.988586,508.67514,804.570313,508.679688C804.285645,508.691376,804.004761,508.746277,803.734375,508.835938C803.787659,509.558044,803.449219,510.251434,802.851563,510.660156C802.541443,510.870117,802.179077,510.991821,801.804688,511C800.990967,511.013824,800.17981,511.09375,799.378906,511.238281C797.919861,511.524658,796.436096,511.66571,794.949219,511.660156C792.945007,511.567596,791.041443,510.75589,789.585938,509.375C788.619141,508.478943,787.726868,507.505676,786.917969,506.464844C785.044128,504.060608,783.256531,501.59021,781.558594,499.058594C780.038696,496.873779,778.406189,494.769379,776.667969,492.753906C775.567688,497.018158,774.568542,501.309265,773.671875,505.621094C772.884583,509.49054,771.958252,513.330078,770.894531,517.132813L770.5625,518.191406L770.558594,518.210938L770.1875,519.257813L770.179688,519.273438C769.918213,520.025574,769.611206,520.761108,769.261719,521.476563C768.77063,522.465027,768.114258,523.362122,767.320313,524.128906C766.06543,525.263123,764.416748,525.862671,762.726563,525.796875C761.917053,525.700012,761.150635,525.378601,760.515625,524.867188C759.819214,524.341675,759.205994,523.71405,758.699219,523.003906C757.721924,521.672119,756.864197,520.256531,756.136719,518.773438C755.213684,516.938965,754.339539,515.0802,753.515625,513.199219C753.056274,512.199951,752.582397,511.207916,752.09375,510.222656C751.829712,511.645813,751.625183,513.079346,751.480469,514.519531C750.721375,521.020142,750.079285,527.534668,749.554688,534.058594C748.743652,543.843018,747.99707,553.638367,747.316406,563.433594C746.857117,569.86792,746.332458,576.295227,745.742188,582.71875C745.517029,585.139771,745.210815,587.552673,744.824219,589.953125L744.527344,591.609375C744.304016,592.691467,743.984863,593.751587,743.574219,594.777344C743.261475,595.450562,742.831665,596.063232,742.300781,596.582031C741.404968,597.372681,740.212524,597.741211,739.027344,597.589844C738.057983,597.529541,737.094421,597.397888,736.144531,597.195313C735.101135,596.906433,734.228271,596.191895,733.730469,595.230469C733.304993,594.395813,732.998474,593.505676,732.820313,592.585938L732.578125,591.3125L732.578125,591.296875C732.348633,590.010437,732.172424,588.715088,732.050781,587.414063L731.777344,584.566406L731.769531,584.53125C731.599121,582.611084,731.446655,580.68866,731.3125,578.765625L731.3125,578.707031C730.472656,564.914185,729.734863,551.133423,729.097656,537.332031L729.007813,535.75L728.9375,534.152344C728.664307,528.856445,728.404053,523.51709,728.160156,518.21875C727.326416,500.887878,726.365479,483.566772,725.277344,466.246094L723.246094,480.011719C721.120605,494.328918,719.075684,508.639465,717.105469,522.980469C716.7005,525.681885,716.025146,528.335815,715.089844,530.902344C714.644531,531.990417,714.077209,533.024475,713.398438,533.984375C712.755188,534.819946,711.896362,535.464172,710.914063,535.847656C709.651367,536.272583,708.262512,536.078125,707.164063,535.324219C706.440247,534.8573,705.809937,534.259033,705.308594,533.558594C704.514648,532.547241,703.851929,531.439392,703.335938,530.261719C702.572021,528.640625,701.928467,526.965515,701.410156,525.25C700.671997,522.851929,700.034851,520.424133,699.5,517.972656C698.857788,515.10437,698.094116,512.264526,697.210938,509.460938C696.87793,510.167358,696.579468,510.889648,696.316406,511.625C695.650208,513.327209,694.5625,514.832214,693.15625,516C691.066772,517.617676,688.267639,517.982056,685.832031,516.957031C684.34198,516.35791,682.994263,515.452515,681.875,514.300781C681.284912,513.728088,680.733154,513.11731,680.222656,512.472656C680.016907,512.276611,679.782166,512.114014,679.527344,511.988281C678.858337,511.607178,678.144409,511.310822,677.402344,511.105469C676.924377,511.041809,676.443054,511.006805,675.960938,511L605.398438,511C604.541382,511.011841,603.686707,511.094849,602.84375,511.25C601.378418,511.52951,599.890198,511.672363,598.398438,511.675781C596.395508,511.57782,594.495056,510.761932,593.042969,509.378906C592.432739,508.838257,591.866028,508.250366,591.347656,507.621094L591.011719,507.257813C589.186401,504.982269,587.452087,502.635437,585.8125,500.222656C584.173279,497.776398,582.398376,495.423615,580.496094,493.175781L580.132813,492.777344C579.030396,497.035675,578.032471,501.321533,577.140625,505.628906L576.585938,508.195313L576.582031,508.226563L575.996094,510.789063L575.988281,510.808594L575.378906,513.339844L575.363281,513.386719C575.09314,514.470154,574.811829,515.55127,574.519531,516.628906C574.058105,518.256042,573.475769,519.846375,572.777344,521.386719C572.286743,522.420776,571.611206,523.356262,570.785156,524.148438C569.516235,525.299438,567.839661,525.894653,566.128906,525.804688C565.350586,525.698914,564.616028,525.382813,564.003906,524.890625C563.299194,524.362549,562.679932,523.729309,562.164063,523.015625L561.390625,521.898438L561.375,521.878906L560.65625,520.730469L560.648438,520.710938L559.980469,519.53125L559.96875,519.511719C558.908997,517.442261,557.912354,515.341003,556.980469,513.210938C556.524048,512.2099,556.048645,511.217407,555.554688,510.234375C555.294739,511.656769,555.091431,513.088806,554.945313,514.527344C554.185242,521.029907,553.544617,527.544189,553.023438,534.070313C552.20752,543.865234,551.461426,553.635498,550.78125,563.441406C550.321716,569.87677,549.797058,576.305786,549.207031,582.730469L548.964844,584.96875C548.96283,584.985779,548.959473,585.002563,548.957031,585.019531L548.683594,587.238281C548.681152,587.252075,548.678467,587.267517,548.675781,587.28125C548.499268,589.021423,548.206848,590.747925,547.800781,592.449219C547.599792,593.221741,547.354614,593.982117,547.066406,594.726563C546.738953,595.474854,546.255615,596.144592,545.652344,596.695313C544.84967,597.344666,543.835876,597.676453,542.804688,597.625C541.816162,597.551575,540.830933,597.438171,539.851563,597.285156C538.641418,597.010193,537.627502,596.188354,537.105469,595.0625C536.804016,594.442993,536.567566,593.793823,536.402344,593.125C535.988159,591.245789,535.69342,589.342224,535.519531,587.425781L535.246094,584.617188C535.237976,584.592285,535.240356,584.568115,535.234375,584.542969L534.992188,581.667969L534.992188,581.644531L534.78125,578.769531L534.78125,578.71875C533.946777,564.925659,533.208008,551.155273,532.5625,537.351563L532.472656,535.761719L532.402344,534.164063L531.976563,525.660156C531.099121,506.835602,530.085449,487.993103,528.9375,469.179688L528.742188,466.261719C525.914063,485.119507,523.180664,504.091919,520.570313,522.984375C520.200134,525.584167,519.560059,528.138428,518.660156,530.605469C518.501221,531.052246,518.315857,531.489136,518.105469,531.914063L518.089844,531.9375C517.661255,532.873291,517.095642,533.73999,516.410156,534.507813C515.752197,535.208862,514.914978,535.716553,513.988281,535.972656C512.784546,536.241272,511.523132,535.98407,510.523438,535.261719C509.768982,534.757935,509.119507,534.112183,508.613281,533.359375L508.109375,532.652344L508.089844,532.628906C507.588684,531.883667,507.157471,531.09375,506.800781,530.269531C506.033325,528.651306,505.389648,526.977234,504.875,525.261719L504.347656,523.488281C504.235962,523.014954,504.107086,522.545898,503.960938,522.082031C503.441711,520.006104,502.94104,517.921265,502.460938,515.835938C501.933685,513.696411,501.338379,511.574249,500.675781,509.472656C500.350433,510.188293,500.050842,510.915283,499.777344,511.652344C499.618286,512.04895,499.436859,512.436218,499.234375,512.8125L499.222656,512.839844C498.59259,513.998962,497.762268,515.037354,496.769531,515.90625C494.656189,517.613403,491.774719,518.017334,489.273438,516.957031C488.124603,516.502625,487.063141,515.852478,486.136719,515.035156C485.229492,514.278259,484.409485,513.422607,483.691406,512.484375C483.600006,512.39325,483.49884,512.3125,483.390625,512.242188C482.623749,511.774261,481.802368,511.4021,480.945313,511.132813C480.472137,511.048828,479.992279,511.008453,479.511719,511.011719L477.410156,511.011719C492.215179,533.420837,488.526245,563.268188,468.710938,581.398438C450.97934,597.736511,424.597534,600.42218,403.9375,587.992188C398.885925,584.764038,394.234924,580.948425,390.082031,576.625C384.715271,582.396912,378.360138,587.163208,371.316406,590.699219C344.078827,603.303284,311.774963,591.566589,298.980469,564.417969C294.739624,555.471741,293.009888,545.540649,293.976563,535.6875C295.213379,523.122437,300.786285,511.379974,309.738281,502.476563L390.082031,422.164063L468.953125,501.011719z"/>
    <path transform="matrix(-1,0,0,-1,0,0)" style="stroke:#000000;stroke-width:0.05mm;fill:none" d="M1034.171875,536.945313C1033.723999,537.125916,1033.334351,537.42395,1033.027344,537.796875C1032.060913,538.952332,1031.227173,540.212646,1030.542969,541.554688C1030.119995,542.332397,1029.71875,543.121765,1029.339844,543.921875C1028.707764,545.090332,1028.031616,546.234558,1027.3125,547.351563C1026.552246,548.606384,1025.806274,549.869019,1025.074219,551.140625C1024.498291,552.021301,1023.995422,552.947571,1023.570313,553.910156C1021.392212,558.783752,1019.493164,563.777649,1017.882813,568.867188C1017.622925,569.728271,1017.46759,570.617371,1017.421875,571.515625C1017.342957,572.363586,1017.207153,573.205322,1017.015625,574.035156C1016.766663,575.129028,1016.526001,576.222839,1016.292969,577.320313L1016.890625,577.660156C1019.397339,575.307068,1021.635315,572.683167,1023.5625,569.835938C1024.604736,568.245483,1025.420044,566.517761,1025.988281,564.703125C1026.349609,563.457886,1026.532837,562.167664,1026.53125,560.871094C1026.669312,560.109131,1026.903442,559.367798,1027.226563,558.664063C1027.89856,557.09729,1028.633423,555.558228,1029.429688,554.050781C1030.16333,552.581299,1030.871582,551.099121,1031.554688,549.605469C1032.621704,546.550659,1033.584473,543.460144,1034.441406,540.339844C1034.676392,539.438232,1034.823608,538.515991,1034.878906,537.585938L1034.367188,536.902344L1034.171875,536.945313z"/>
    <path transform="matrix(-1,0,0,-1,0,0)" style="stroke:#000000;stroke-width:0.05mm;fill:none" d="M832.792969,497.761719C829.623901,497.760803,826.561707,498.910309,824.175781,500.996094C822.560059,502.356995,821.136841,503.931396,819.945313,505.675781L819.40625,506.460938C818.546875,507.477661,817.692871,508.502502,816.847656,509.53125C816.32959,509.971344,815.946533,510.548248,815.738281,511.195313C815.403442,512.131165,815.119019,513.084351,814.886719,514.050781L813.351563,518.910156C813.782959,520.44574,814.334167,521.945129,815,523.394531C815.217529,523.817688,815.494324,524.207886,815.824219,524.550781C816.116211,524.804749,816.468872,524.97937,816.847656,525.058594C818.402954,525.450256,819.983582,525.733765,821.578125,525.90625L822.21875,525.988281C822.5401,525.875427,822.832214,525.692749,823.074219,525.453125C823.834351,524.76123,824.492981,523.965515,825.03125,523.089844C825.913452,521.650391,826.823914,520.228027,827.761719,518.824219C828.864136,517.597412,830.345032,516.77417,831.96875,516.484375L832.410156,516.394531C832.754883,516.258972,833.058594,516.036865,833.292969,515.75C833.870544,515.03656,834.342346,514.243469,834.691406,513.394531C835.138794,512.356445,835.53009,511.295044,835.863281,510.214844C836.572693,508.318542,837.117676,506.364685,837.492188,504.375C837.696411,503.242371,837.696289,502.082581,837.496094,500.949219C837.363831,500.304443,837.082153,499.699036,836.667969,499.1875C836.170837,498.602875,835.501282,498.190033,834.753906,498.015625C834.117554,497.828979,833.455811,497.742249,832.792969,497.761719z"/>
    <path transform="matrix(-1,0,0,-1,-10.734375,-75.953156)" style="stroke:#000000;stroke-width:0.05mm;fill:none" d="M458.21875,230.058594L468.449219,230.058594C470.615265,229.968674,472.782349,230.211136,474.875,230.777344C476.446259,231.264008,477.891632,232.089493,479.109375,233.195313L480.925781,234.898438C481.60553,233.271667,482.296082,231.63678,482.988281,230.015625C483.807922,228.166672,484.847961,226.423523,486.085938,224.824219C486.852112,223.894272,487.80835,223.138977,488.890625,222.609375C490.651276,221.846161,492.695435,222.180359,494.121094,223.464844C495.074799,224.26561,495.86322,225.24469,496.441406,226.347656C497.401123,228.056763,498.167572,229.867355,498.726563,231.746094C498.905457,232.267075,499.059448,232.796295,499.1875,233.332031C499.932953,235.86496,500.521271,238.441483,500.949219,241.046875L501.117188,241.921875C503.132446,229.104797,505.02356,216.264099,506.789063,203.410156C508.58374,190.763733,510.447021,178.099304,512.371094,165.472656C512.603149,164.010071,512.845337,162.549011,513.097656,161.089844C513.623352,158.234268,515.470703,155.796982,518.078125,154.519531C519.669861,153.821228,521.491699,153.88031,523.035156,154.679688C523.621887,155.015137,524.13385,155.466904,524.539063,156.007813C524.870605,156.703262,525.076904,157.451645,525.148438,158.21875L525.441406,160.519531L525.445313,160.542969C525.545715,161.318848,525.632935,162.096176,525.707031,162.875L525.707031,162.914063L525.921875,165.132813C525.924988,165.15509,525.930481,165.176804,525.933594,165.199219C526.804565,175.866272,527.516968,186.546738,528.070313,197.234375C528.79834,210.99855,529.461426,224.747391,530.0625,238.519531C530.564941,249.488068,531.141602,260.490967,531.789063,271.453125C532.243286,266.319092,532.686157,261.132385,533.109375,255.996094C533.797974,248.27063,534.671997,240.562134,535.730469,232.878906C536.04364,230.639008,536.450317,228.412949,536.949219,226.207031C537.103455,225.672073,537.304688,225.151764,537.550781,224.652344C539.031921,222.528381,541.815125,221.76004,544.175781,222.824219C545.138,223.271515,546.009399,223.892548,546.746094,224.65625C547.695313,225.589035,548.544861,226.618073,549.28125,227.726563L550.214844,229.164063L550.226563,229.179688C551.356812,231.03479,552.399658,232.941895,553.351563,234.894531C554.051147,236.300095,554.873291,237.641266,555.808594,238.902344C556.344055,237.509949,556.757202,236.073547,557.042969,234.609375C557.689941,231.3918,558.251343,228.157501,558.726563,224.910156L559.0625,222.859375L559.0625,222.808594L559.441406,220.757813L559.453125,220.714844C559.854919,218.538559,560.359375,216.382507,560.964844,214.253906L561.230469,213.449219L561.238281,213.433594C561.592102,212.363312,562.040466,211.326691,562.578125,210.335938C563.044189,209.543091,563.629028,208.826294,564.3125,208.210938C565.762634,207.05011,567.748413,206.819183,569.425781,207.617188C570.33905,208.012375,571.182068,208.553268,571.921875,209.21875C573.264038,210.34285,574.494934,211.593399,575.597656,212.953125C577.602661,215.389114,579.507874,217.905441,581.308594,220.496094C582.96228,222.890137,584.747559,225.190552,586.65625,227.386719C587.325012,228.094284,588.091797,228.702255,588.933594,229.191406C589.631592,229.555679,590.395264,229.776581,591.179688,229.84375C592.348267,229.943542,593.519104,230.011322,594.691406,230.046875L664.980469,230.046875C667.070251,229.961044,669.161255,230.180679,671.1875,230.699219C672.846008,231.179535,674.372986,232.031876,675.652344,233.191406L677.460938,234.886719C678.138306,233.23291,678.835083,231.5867,679.550781,229.949219L679.835938,229.324219L679.839844,229.308594C680.655762,227.563202,681.698669,225.933197,682.941406,224.460938C683.713806,223.596771,684.668884,222.915695,685.738281,222.46875C687.517151,221.849213,689.493958,222.291443,690.839844,223.609375C691.713989,224.378769,692.438354,225.303223,692.976563,226.335938C693.948425,228.042679,694.714111,229.85881,695.257813,231.746094C696.178467,234.648178,696.895081,237.611191,697.402344,240.613281L697.65625,241.917969C699.838013,227.972778,701.892212,213.987976,703.8125,200.003906C705.520508,187.940399,707.308594,175.860382,709.167969,163.820313C709.322815,162.835388,709.489502,161.852005,709.667969,160.871094C710.228271,158.22879,711.912659,155.962311,714.28125,154.664063C715.769165,153.903503,717.511414,153.817856,719.066406,154.429688C719.852112,154.765945,720.538818,155.297256,721.0625,155.972656C721.404907,156.671616,721.615173,157.427826,721.683594,158.203125L721.976563,160.507813L721.980469,160.53125L722.238281,162.824219C722.281189,163.614914,722.357971,164.403427,722.46875,165.1875C723.334412,175.85672,724.04657,186.533905,724.605469,197.222656C725.239258,209.012985,725.809082,220.827042,726.3125,232.621094C726.898682,245.530548,727.569092,258.473022,728.320313,271.375C728.674316,267.556091,729.00293,263.725769,729.304688,259.902344C730.044067,250.867035,731.028809,241.852631,732.257813,232.871094C732.576416,230.602982,732.992126,228.349625,733.503906,226.117188C733.658264,225.561081,733.880493,225.026108,734.164063,224.523438C735.591492,222.607376,738.101807,221.847748,740.351563,222.652344C741.455811,223.105881,742.453613,223.78421,743.28125,224.644531C744.231873,225.577835,745.0802,226.609802,745.8125,227.722656L746.746094,229.152344L746.757813,229.167969C747.67749,230.628601,748.518494,232.137238,749.277344,233.6875C750.056458,235.276855,750.928955,236.818665,751.890625,238.304688C752.033142,238.506439,752.183777,238.702423,752.34375,238.890625C752.879089,237.498184,753.292053,236.061768,753.578125,234.597656C754.218506,231.377625,754.781311,228.141663,755.265625,224.894531C755.472961,223.508362,755.70874,222.126465,755.972656,220.75L755.988281,220.6875C756.333923,218.812042,756.754822,216.951004,757.25,215.109375C757.645508,213.701111,758.146912,212.324814,758.75,210.992188C759.258972,209.9422,759.964783,208.999802,760.828125,208.214844C762.344604,206.988754,764.44696,206.785995,766.167969,207.703125C766.944702,208.054733,767.665833,208.51796,768.308594,209.078125C769.703735,210.240875,770.984192,211.534622,772.132813,212.941406C774.071838,215.284973,775.908325,217.711899,777.636719,220.214844C779.166138,222.370834,780.767151,224.474701,782.4375,226.523438C783.156372,227.397842,783.983215,228.177597,784.898438,228.84375C785.742371,229.401291,786.711426,229.740585,787.71875,229.832031C788.911865,229.921921,790.10553,229.993484,791.300781,230.046875C791.367249,230.059387,791.433716,230.072601,791.5,230.085938C792.789551,229.259186,794.092285,228.451477,795.40625,227.664063L797.460938,226.382813C798.558228,225.82605,799.743774,225.463898,800.964844,225.3125C802.798584,225.011917,804.653503,224.858978,806.511719,224.855469C808.208313,224.723618,809.909485,225.044266,811.441406,225.785156C812.59491,226.37149,813.599548,227.213181,814.378906,228.246094C814.898376,228.904099,815.359863,229.605881,815.757813,230.34375C816.505981,231.711197,817.372498,233.010529,818.347656,234.226563C818.474426,234.352295,818.613586,234.465027,818.765625,234.558594L818.863281,234.570313L819.375,234.570313C821.089417,232.498352,822.780396,230.404846,824.445313,228.292969L825.175781,227.320313C826.069824,225.523621,827.098816,223.797287,828.253906,222.15625C829.705505,220.013245,831.263489,217.944244,832.921875,215.957031C834.118958,214.578812,835.415283,213.290192,836.800781,212.101563C837.53772,211.481995,838.363159,210.976288,839.25,210.601563C839.722046,210.430878,840.220764,210.345062,840.722656,210.351563C842.221008,210.328094,843.715088,210.517517,845.160156,210.914063C845.795715,211.111847,846.389038,211.425751,846.910156,211.839844C847.335449,212.211441,847.635193,212.705368,847.769531,213.253906C848.615906,216.974976,849.274292,220.736221,849.742188,224.523438C849.872375,225.778076,849.919495,227.039963,849.882813,228.300781C849.79895,229.28154,849.627686,230.252823,849.371094,231.203125L849.050781,232.4375C849.036194,232.599686,849.068115,232.76239,849.136719,232.910156L849.210938,233.023438L849.308594,233.117188L849.425781,233.183594C849.599976,233.269318,849.794617,233.301987,849.988281,233.289063C850.422363,232.725601,850.937927,232.229767,851.519531,231.820313L851.449219,231.585938C853.096497,230.063995,854.715088,228.51181,856.304688,226.929688C857.950684,225.323883,859.755615,223.889633,861.691406,222.648438C863.089905,221.790115,864.602051,221.132675,866.183594,220.695313C867.576538,220.3526,869.01709,220.245605,870.445313,220.378906C872.269592,220.476547,874.046448,220.995377,875.636719,221.894531C877.177063,222.812653,878.424561,224.15004,879.234375,225.75C879.836731,226.886871,880.283691,228.099457,880.5625,229.355469C880.90155,230.81926,881.104309,232.311325,881.167969,233.8125C881.278687,234.719727,881.648438,235.575897,882.234375,236.277344C882.981812,235.605133,883.692444,234.893158,884.363281,234.144531C886.604309,232.440659,888.822021,230.706039,891.015625,228.941406C893.720276,226.14595,896.496216,223.419479,899.339844,220.765625C899.650085,220.50174,899.970459,220.250031,900.300781,220.011719C902.318542,218.535995,904.426758,217.188309,906.613281,215.976563C908.361938,214.945801,910.190735,214.057434,912.082031,213.320313C912.519043,213.18573,912.977966,213.136673,913.433594,213.175781C914.732727,213.180801,916.017883,213.444107,917.214844,213.949219C918.677856,214.597656,919.804626,215.826263,920.324219,217.339844C921.173828,219.799667,921.167053,222.474304,920.304688,224.929688C919.825623,226.208755,919.129211,227.395554,918.246094,228.4375C917.865173,228.913895,917.457092,229.36795,917.023438,229.796875L916.996094,230C918.353333,228.746979,919.777344,227.568176,921.261719,226.46875C922.65387,225.253036,924.273865,224.326477,926.027344,223.742188C927.277405,223.379929,928.594238,223.311462,929.875,223.542969C931.206055,223.841293,932.35968,224.666183,933.074219,225.828125C933.320068,226.192657,933.532471,226.578629,933.710938,226.980469C936.807556,222.987396,940.892639,219.871689,945.5625,217.941406C947.080383,217.185135,948.666931,216.575424,950.300781,216.121094C951.104919,215.914703,951.931519,215.808395,952.761719,215.804688C953.504395,215.681732,954.238892,215.513611,954.960938,215.300781C955.796143,215.109528,956.659363,215.072067,957.507813,215.191406C959.530212,215.421082,961.452698,216.194351,963.070313,217.429688C965.186523,218.986511,966.876526,221.051437,967.984375,223.433594C968.993774,225.723373,969.27063,228.269363,968.777344,230.722656C968.482605,232.265076,968.105713,233.79068,967.648438,235.292969C967.425232,236.092407,967.253113,236.905304,967.132813,237.726563C967.114929,238.283676,967.454224,238.787567,967.972656,238.992188C968.312805,239.147659,968.708862,239.121902,969.027344,238.925781C969.337708,238.774475,969.629639,238.58786,969.898438,238.371094C971.691345,236.977859,973.470459,235.569656,975.238281,234.144531C975.530396,233.702789,975.795105,233.243546,976.03125,232.769531C976.299255,232.34903,976.604248,231.953293,976.941406,231.585938C977.076233,231.998627,977.222168,232.407623,977.378906,232.8125C978.20282,229.643677,979.134338,226.503845,980.171875,223.398438L982.8125,219.136719C983.0802,218.940399,983.375305,218.784653,983.6875,218.671875C986.915955,217.365448,990.199036,216.197632,993.527344,215.171875L993.699219,215.144531C993.874512,215.127991,994.051331,215.139252,994.222656,215.179688C994.791443,215.405609,995.304504,215.75209,995.726563,216.195313C997.108521,217.604004,998.321167,219.169266,999.339844,220.859375C1000.788635,223.14624,1002.123657,225.503357,1003.339844,227.921875C1005.005981,231.067871,1006.647461,234.229797,1008.261719,237.402344C1009.253906,239.3741,1010.163513,241.3862,1010.988281,243.433594C1011.299622,244.275589,1011.551514,245.138382,1011.742188,246.015625C1012.101074,247.288025,1012.455933,248.558136,1012.808594,249.832031C1015.054199,254.709106,1017.274414,259.501099,1019.542969,264.367188C1020.752075,266.996674,1021.941772,269.617462,1023.125,272.257813C1023.866333,274.509766,1024.895508,276.656616,1026.1875,278.644531L1026.789063,279.59375L1027.386719,279.335938C1027.997925,277.498383,1028.501465,275.626678,1028.894531,273.730469C1029.254883,272.133148,1029.607788,270.534119,1029.953125,268.933594C1030.464355,267.532806,1031.063232,266.165466,1031.746094,264.839844C1033.710327,257.406738,1035.760986,249.998169,1037.898438,242.613281C1038.248047,241.331879,1038.550293,240.038025,1038.804688,238.734375C1039.289307,236.512726,1039.815552,234.299637,1040.382813,232.097656L1041.921875,229.285156C1042.14502,227.603394,1042.400269,225.925888,1042.6875,224.253906C1043.868652,220.456619,1045.092896,216.678268,1046.363281,212.910156C1046.448364,212.053192,1046.725586,211.226288,1047.175781,210.492188C1047.70752,209.701202,1048.540771,209.162964,1049.480469,209.003906C1049.746948,208.949127,1050.017334,208.915497,1050.289063,208.902344C1050.618286,208.403427,1051.094238,208.018784,1051.652344,207.804688C1051.986328,207.667557,1052.327881,207.549683,1052.675781,207.453125C1052.960693,207.388275,1053.261353,207.45578,1053.484375,207.644531C1053.638672,207.765717,1053.764038,207.920456,1053.839844,208.101563C1054.12085,208.720947,1054.284424,209.387222,1054.320313,210.066406C1054.428223,211.20697,1054.392822,212.356552,1054.214844,213.488281C1053.807495,216.242966,1053.292725,218.980789,1052.671875,221.695313C1051.973877,225.085876,1051.234131,228.467499,1050.453125,231.839844C1049.798828,236.176895,1049.229614,240.527191,1048.746094,244.886719C1048.346191,247.128525,1047.83374,249.348694,1047.210938,251.539063C1046.734009,253.735977,1046.314575,255.945175,1045.953125,258.164063C1044.615234,266.030579,1043.354004,273.916626,1042.171875,281.808594C1040.687866,290.66568,1039.265747,299.536285,1037.90625,308.414063L1039.269531,313.957031C1038.563721,316.243958,1037.909912,318.5466,1037.308594,320.863281C1036.907349,321.772125,1036.15979,322.482269,1035.234375,322.84375C1034.447876,323.149628,1033.613281,323.313049,1032.769531,323.324219C1031.619263,323.347687,1030.475708,323.507019,1029.363281,323.800781C1028.801758,323.914978,1028.232422,323.986816,1027.660156,324.015625C1027.237549,323.972717,1026.836426,323.81015,1026.5,323.550781C1025.896362,323.072052,1025.311157,322.570587,1024.746094,322.046875C1024.463623,321.813019,1024.152832,321.61554,1023.820313,321.460938C1023.183716,321.966217,1022.606262,322.541809,1022.097656,323.175781C1021.329834,324.100922,1020.583435,325.044159,1019.859375,326.003906C1019.163391,326.844971,1018.368774,327.599365,1017.492188,328.25C1016.971985,328.602295,1016.400269,328.871857,1015.796875,329.046875C1015.00415,328.649963,1014.197754,328.281219,1013.378906,327.941406C1012.958557,327.742493,1012.630737,327.388,1012.476563,326.949219C1012.311279,326.415894,1012.299377,325.846497,1012.449219,325.308594C1013.008789,323.295197,1013.668518,321.310944,1014.425781,319.363281C1015.064148,317.608368,1015.613037,315.822266,1016.070313,314.011719L1016.1875,313.445313C1017.120605,312.08255,1017.907593,310.625397,1018.535156,309.097656C1018.896484,308.110321,1019.006714,307.048828,1018.859375,306.007813C1018.656982,304.610901,1018.336914,303.233582,1017.902344,301.890625C1016.822021,298.470215,1015.599487,295.09613,1014.238281,291.777344C1012.591248,287.615784,1010.97052,283.434204,1009.382813,279.25C1005.568115,266.839172,1000.927612,254.697861,995.492188,242.90625C994.823669,241.416321,994.089844,239.95665,993.292969,238.53125C992.8479,237.736267,992.381775,236.953461,991.894531,236.183594C991.523621,235.631012,991.095276,235.119263,990.617188,234.65625C990.369385,234.417786,990.030273,234.300827,989.6875,234.328125C989.347046,234.377487,989.046387,234.575912,988.863281,234.867188C988.627441,235.274933,988.473083,235.724594,988.410156,236.191406C988.302063,237.079224,988.248474,237.972809,988.25,238.867188C988.123535,240.685699,987.749207,242.478394,987.136719,244.195313C986.663818,245.717209,986.246826,247.256134,985.886719,248.808594C985.007996,253.312317,984.07489,257.800598,983.085938,262.28125C982.805481,263.852325,982.602112,265.43634,982.476563,267.027344C982.020996,272.216797,981.67981,277.416473,981.453125,282.621094C981.364563,283.532043,981.223206,284.437134,981.03125,285.332031C980.813477,286.795166,980.583008,288.255615,980.339844,289.714844C980.156738,290.918182,980.026672,292.128998,979.949219,293.34375C979.967224,295.763672,980.139404,298.180054,980.464844,300.578125C980.646301,302.24585,980.755737,303.920502,980.792969,305.597656C979.712158,310.186523,978.672852,314.786377,977.675781,319.394531C977.038635,322.148743,976.252441,324.866302,975.320313,327.535156C973.787659,331.438477,971.043945,334.747192,967.492188,336.976563C967.064636,337.00354,966.635498,336.986786,966.210938,336.929688L966.007813,336.867188C965.943176,336.837616,965.878784,336.807556,965.816406,336.773438C965.680115,336.673523,965.577759,336.535889,965.515625,336.378906C965.399414,336.11026,965.340881,335.819489,965.359375,335.527344C965.567383,334.605865,965.822876,333.695831,966.125,332.800781C965.946777,331.721436,965.776184,330.640381,965.613281,329.558594C965.764465,328.272919,965.978333,326.9953,966.253906,325.730469C966.601746,323.230408,966.759827,320.70755,966.726563,318.183594C966.949463,313.803589,967.345581,309.43454,967.914063,305.085938C968.253357,299.766022,968.664978,294.449249,969.148438,289.140625C969.631104,283.858246,970.128174,278.559357,970.636719,273.28125C971.156067,265.262665,972.203979,257.286835,973.773438,249.40625C974.074158,247.985031,974.401062,246.56929,974.753906,245.160156L971.058594,247.703125C969.921448,249.019302,968.697388,250.257782,967.394531,251.410156C965.36377,253.258667,963.313965,255.094604,961.253906,256.910156C960.637878,258.111237,959.843994,259.212494,958.898438,260.175781C957.513245,261.546204,956.062378,262.848541,954.550781,264.078125C953.674072,264.786682,952.841858,265.548676,952.058594,266.359375C950.768311,267.778625,949.45575,269.177124,948.121094,270.554688C947.085022,271.498016,945.878601,272.235199,944.566406,272.726563C943.503601,273.070435,942.381226,273.191528,941.269531,273.082031C940.473938,273.064941,939.693604,272.860199,938.992188,272.484375C938.57666,272.230286,938.296875,271.802856,938.230469,271.320313C938.804688,270.002686,939.402649,268.694702,940.023438,267.398438L939.511719,266.632813C937.118958,267.585022,934.688538,268.43988,932.226563,269.195313C931.381592,269.434753,930.49823,269.508148,929.625,269.414063C927.946838,269.310913,926.302185,268.899109,924.773438,268.199219C922.572693,267.100677,920.854492,265.228424,919.949219,262.941406C919.257813,261.307526,918.818176,259.578125,918.644531,257.8125C918.437622,256.084595,918.400879,254.340546,918.535156,252.605469C918.921814,249.137405,919.925842,245.766647,921.5,242.652344C921.958435,241.804626,922.492859,241.000336,923.097656,240.25C923.248047,240.084183,923.404236,239.923813,923.566406,239.769531C923.421143,239.192291,923.156555,238.651855,922.789063,238.183594C922.447144,237.81691,921.940918,237.651978,921.449219,237.75C920.829773,237.840775,920.245361,238.09552,919.757813,238.488281C919.893921,238.80336,920.033325,239.117432,920.175781,239.429688C919.620728,240.094849,919.123169,240.805893,918.6875,241.554688C918.354309,242.094864,918.026428,242.637436,917.703125,243.183594L909.945313,248.296875C908.927063,249.333939,908.069824,250.517548,907.402344,251.808594C906.818237,252.743927,906.010071,253.518677,905.050781,254.0625C904.621765,254.325439,904.178406,254.564148,903.722656,254.777344C902.337708,256.39563,900.829163,257.904053,899.210938,259.289063L898.519531,259.894531C896.50177,261.012268,894.638489,262.388641,892.976563,263.988281C889.416809,267.421051,885.622498,270.601837,881.621094,273.507813C879.48761,275.026398,877.21283,276.335876,874.828125,277.417969C873.397339,278.0289,871.887878,278.435181,870.34375,278.625C869.287231,278.722504,868.222168,278.61322,867.207031,278.304688C865.983276,277.823822,865.179932,276.639008,865.191406,275.324219C865.098145,273.912384,865.439148,272.505737,866.167969,271.292969C866.601013,270.628113,867.164612,270.058228,867.824219,269.617188C869.373535,268.500122,870.907471,267.362,872.425781,266.203125C874.696289,263.261871,877.365173,260.650879,880.355469,258.445313C880.855225,257.804138,881.338379,257.150269,881.804688,256.484375C883.293091,255.002853,884.889954,253.634415,886.582031,252.390625C887.151917,251.269363,887.864807,250.226746,888.703125,249.289063C890.581177,247.167221,892.580627,245.156052,894.691406,243.265625C895.754517,242.284424,896.831604,241.318085,897.921875,240.367188C898.553284,239.663757,899.141846,238.92305,899.683594,238.148438C901.154846,236.11264,902.616028,234.064911,904.0625,232.011719L903.464844,231.246094C902.060974,231.723038,900.738342,232.411865,899.542969,233.289063C897.94751,234.460449,896.437256,235.743698,895.023438,237.128906C893.052612,238.944427,891.069092,240.739349,889.066406,242.519531C888.628052,242.907318,888.169128,243.271271,887.691406,243.609375C886.815674,244.081955,885.961914,244.594208,885.132813,245.144531C883.282715,247.422333,881.192505,249.494293,878.898438,251.324219C877.41687,252.472992,875.755066,253.368057,873.980469,253.972656C873.010254,254.265411,871.996155,254.386078,870.984375,254.328125C870.033203,254.222122,869.187378,253.674774,868.699219,252.851563C868.410461,252.376404,868.194885,251.860352,868.0625,251.320313C867.819885,250.47583,867.681519,249.604736,867.652344,248.726563C867.779907,245.775513,867.834656,242.820999,867.816406,239.867188C867.744507,237.900543,866.906189,236.040146,865.480469,234.683594C864.480652,233.786346,863.148926,233.3517,861.8125,233.488281C861.277588,233.578247,860.7724,233.79512,860.335938,234.117188C859.942017,234.385101,859.566223,234.678741,859.210938,234.996094C858.47467,235.959351,857.706055,236.8974,856.90625,237.808594C856.256348,238.153198,855.648193,238.571259,855.09375,239.054688L855.273438,239.429688C853.832031,240.641251,852.439148,241.909058,851.097656,243.230469C850.880554,243.490128,850.642639,243.731598,850.386719,243.953125C849.433899,244.856323,848.615662,245.891632,847.957031,247.027344C847.773132,247.400558,847.653259,247.802002,847.601563,248.214844C846.783386,251.371979,846.002808,254.54245,845.261719,257.71875C844.606567,260.332275,843.90741,262.933563,843.164063,265.523438C842.276978,267.59967,841.492249,269.718018,840.8125,271.871094C840.39978,273.132568,839.989258,274.403473,839.585938,275.667969C838.449829,280.659332,836.438416,285.409851,833.644531,289.699219C832.774536,290.903992,832.06311,292.215424,831.527344,293.601563C830.908569,295.130859,830.161011,296.604889,829.292969,298.007813C828.5625,299.282379,827.844727,300.560455,827.136719,301.847656C823.768799,306.827332,820.271484,311.718384,816.648438,316.515625C812.952332,320.968109,808.922546,325.132446,804.59375,328.972656C803.483398,329.949463,802.321594,330.866028,801.113281,331.71875C800.112122,332.419556,799.049316,333.027893,797.9375,333.535156C797.347534,333.776215,796.733398,333.953644,796.105469,334.0625L795.757813,334.078125C795.095886,333.544525,794.52002,332.91217,794.050781,332.203125C793.646179,332.202515,793.24353,332.260437,792.855469,332.375C791.330627,332.445557,789.932251,331.532043,789.378906,330.109375C789.047363,329.335266,788.831238,328.516663,788.738281,327.679688C788.609375,326.753326,788.566223,325.817078,788.609375,324.882813C788.721436,323.883423,788.901611,322.892822,789.148438,321.917969C789.270508,321.366028,789.398193,320.815033,789.53125,320.265625C789.947266,319.839264,790.241394,319.309143,790.382813,318.730469C790.551819,318.111664,790.695129,317.486115,790.8125,316.855469C790.865723,315.63501,791.094482,314.428528,791.492188,313.273438C793.464661,309.443512,795.174316,305.483887,796.609375,301.421875C797.570679,299.749451,798.505981,298.061188,799.414063,296.359375C800.184326,294.989014,800.982788,293.63446,801.808594,292.296875C802.983032,290.048431,804.209961,287.827759,805.488281,285.636719C806.095398,284.635559,806.716309,283.643677,807.351563,282.660156C807.799683,281.710449,808.389771,280.834564,809.101563,280.0625C810.07373,278.960205,811.054443,277.864868,812.042969,276.777344C812.477295,275.796509,813.002991,274.858734,813.613281,273.976563C815.603394,271.033325,817.707825,268.16925,819.921875,265.390625C822.683716,261.831299,825.509338,258.319153,828.394531,254.859375C830.350159,252.462769,832.292847,250.043884,834.210938,247.617188C835.463989,242.861359,836.425476,238.033218,837.089844,233.160156C837.338501,231.126755,837.4599,229.079788,837.453125,227.03125C837.443665,226.406738,837.349426,225.786316,837.171875,225.1875C837.056396,224.93956,836.836243,224.755295,836.570313,224.691406L836.429688,224.679688C836.061035,225.172287,835.646484,225.628845,835.191406,226.042969C834.604675,226.607498,834.050354,227.204727,833.53125,227.832031C832.671509,228.662659,831.918274,229.596848,831.289063,230.613281C830.089111,232.503647,828.996277,234.459778,828.015625,236.472656C826.414246,239.708405,824.884033,242.978455,823.425781,246.28125C822.43573,248.395416,821.310974,250.443909,820.058594,252.414063C819.464355,253.312149,818.791199,254.155365,818.046875,254.933594C817.755188,255.208862,817.428223,255.444244,817.074219,255.632813L814.089844,256.910156C813.394897,257.206848,812.687195,257.472931,811.96875,257.707031C811.27533,257.868347,810.546814,257.663147,810.042969,257.160156C809.894226,257.025818,809.757813,256.878448,809.636719,256.71875C809.084656,255.983246,808.653503,255.164337,808.359375,254.292969C808.016541,253.236893,807.718323,252.166931,807.464844,251.085938C806.786499,248.519806,806.085327,245.96344,805.359375,243.410156C805.319153,243.183472,805.237549,242.966476,805.125,242.765625C804.622253,241.639542,803.909363,240.619614,803.023438,239.761719C801.871704,238.733063,800.367615,238.187622,798.824219,238.238281C796.740967,238.586273,794.666077,238.983551,792.601563,239.429688L792.550781,239.308594C792.191162,239.761902,791.648743,240.033234,791.070313,240.046875C790.256653,240.061005,789.445435,240.140747,788.644531,240.285156C787.185486,240.57132,785.70166,240.712494,784.214844,240.707031C782.210754,240.6138,780.307251,239.802475,778.851563,238.421875C777.884521,237.526031,776.992432,236.552628,776.183594,235.511719C774.309692,233.107468,772.522095,230.637146,770.824219,228.105469C769.304382,225.920517,767.672058,223.816162,765.933594,221.800781C764.83313,226.065704,763.834229,230.35553,762.9375,234.667969C762.150269,238.537216,761.223816,242.377075,760.160156,246.179688L759.828125,247.238281L759.824219,247.257813L759.453125,248.304688C759.070496,249.458862,758.551208,250.562973,757.90625,251.59375C757.313477,252.534607,756.5177,253.330933,755.578125,253.925781C754.496887,254.572556,753.25116,254.891937,751.992188,254.84375C751.182434,254.747757,750.415466,254.42659,749.78125,253.914063C749.083862,253.389709,748.470947,252.761505,747.964844,252.050781C746.987793,250.718796,746.130127,249.303238,745.402344,247.820313C744.479248,245.985764,743.605408,244.127228,742.78125,242.246094C742.322083,241.246948,741.848022,240.254547,741.359375,239.269531C741.095215,240.692688,740.890625,242.126144,740.746094,243.566406C739.987122,250.066025,739.34491,256.582489,738.820313,263.105469C738.009521,272.889404,737.262939,282.686188,736.582031,292.480469C736.089539,299.522644,735.503845,306.551544,734.824219,313.578125C734.568848,315.949432,734.224731,318.310608,733.792969,320.65625C733.569214,321.738251,733.250244,322.79837,732.839844,323.824219C732.529785,324.49884,732.097839,325.110413,731.566406,325.628906C730.670105,326.418732,729.478149,326.786621,728.292969,326.636719C727.32373,326.575531,726.360229,326.443604,725.410156,326.242188C724.367065,325.951965,723.49231,325.239655,722.996094,324.277344C722.570923,323.442566,722.264465,322.55246,722.085938,321.632813L721.84375,320.359375L721.84375,320.34375C721.61322,319.057465,721.437256,317.762085,721.316406,316.460938L721.042969,313.613281L721.035156,313.578125C720.864685,311.657806,720.712341,309.73587,720.578125,307.8125L720.578125,307.753906C719.738281,293.960327,719.000977,280.183472,718.363281,266.378906L718.273438,264.796875L718.203125,263.199219L717.777344,254.695313C716.866211,234.878937,715.788574,215.090424,714.542969,195.292969L712.511719,209.058594C710.386719,223.375,708.341309,237.687988,706.371094,252.027344C705.966187,254.72879,705.290894,257.382751,704.355469,259.949219C703.910522,261.037476,703.343323,262.071655,702.664063,263.03125C702.022156,263.868073,701.162598,264.512207,700.179688,264.894531C698.917053,265.32077,697.5271,265.127136,696.429688,264.371094C695.706299,263.903625,695.076355,263.305237,694.574219,262.605469C693.78064,261.593842,693.117737,260.486206,692.601563,259.308594C691.837646,257.6875,691.194092,256.01236,690.675781,254.296875C689.937622,251.898804,689.300354,249.471024,688.765625,247.019531C688.123413,244.151291,687.359741,241.31134,686.476563,238.507813C686.143799,239.214401,685.84552,239.93663,685.582031,240.671875C684.915955,242.374176,683.828796,243.879837,682.421875,245.046875C680.331543,246.663223,677.533081,247.029037,675.097656,246.003906C673.608093,245.403625,672.260254,244.498993,671.140625,243.347656C670.551086,242.774475,669.999023,242.16391,669.488281,241.519531C669.283752,241.32225,669.04834,241.159821,668.792969,241.035156C668.123718,240.654449,667.409973,240.357986,666.667969,240.152344C666.190063,240.088272,665.708679,240.053345,665.226563,240.046875L594.664063,240.046875C593.807007,240.0578,592.952393,240.1418,592.109375,240.296875C590.644104,240.576874,589.155823,240.719391,587.664063,240.722656C585.661316,240.623306,583.760803,239.808502,582.308594,238.425781C581.698792,237.884659,581.13208,237.296844,580.613281,236.667969L580.277344,236.304688C578.452148,234.029251,576.717651,231.682327,575.078125,229.269531C573.43927,226.822952,571.664307,224.470261,569.761719,222.222656L569.398438,221.824219C568.295898,226.08287,567.298218,230.368042,566.40625,234.675781L565.851563,237.242188L565.847656,237.273438L565.261719,239.835938L565.253906,239.855469L564.644531,242.386719L564.628906,242.433594C564.279541,243.933456,563.87561,245.420181,563.417969,246.890625C562.986816,248.233719,562.463379,249.54538,561.851563,250.816406C561.333801,251.79686,560.641968,252.674911,559.808594,253.40625C558.568665,254.421127,556.994568,254.936981,555.394531,254.851563C554.615723,254.747833,553.880249,254.431808,553.269531,253.9375C552.565674,253.40831,551.945374,252.776291,551.429688,252.0625L550.65625,250.945313L550.640625,250.925781L549.921875,249.777344L549.914063,249.757813L549.246094,248.578125L549.234375,248.558594C548.1745,246.489136,547.177979,244.387955,546.246094,242.257813C545.789795,241.256607,545.314514,240.264328,544.820313,239.28125C544.560547,240.703568,544.357178,242.135773,544.210938,243.574219C543.450867,250.077011,542.810242,256.59079,542.289063,263.117188C541.473633,272.911621,540.727539,282.681885,540.046875,292.488281C539.587158,298.926147,539.062866,305.349884,538.472656,311.777344L538.230469,314.015625C538.227905,314.032684,538.225464,314.049377,538.222656,314.066406L537.949219,316.285156C537.946594,316.299469,537.944214,316.313812,537.941406,316.328125C537.758362,318.269165,537.412109,320.191345,536.90625,322.074219C536.720032,322.749756,536.483582,323.410339,536.199219,324.050781C535.878601,324.687866,535.444275,325.260895,534.917969,325.742188C534.114136,326.389465,533.101196,326.720154,532.070313,326.671875C531.081787,326.597809,530.09668,326.484528,529.117188,326.332031C527.90802,326.054413,526.89502,325.233978,526.371094,324.109375C526.068726,323.490295,525.833374,322.840698,525.667969,322.171875C525.253967,320.292633,524.958984,318.389099,524.785156,316.472656L524.511719,313.664063C524.506653,313.639526,524.502136,313.614838,524.5,313.589844L524.257813,310.714844L524.257813,310.691406L524.046875,307.816406L524.046875,307.765625C523.212646,293.976868,522.473389,280.197723,521.828125,266.398438L521.738281,264.808594L521.667969,263.210938L521.242188,254.707031C520.364746,235.882294,519.351074,217.039734,518.203125,198.226563L518.007813,195.308594C515.170898,214.2323,512.456055,233.074097,509.835938,252.03125C509.436127,254.867508,508.708618,257.647827,507.667969,260.316406L507.371094,260.960938L507.355469,260.984375C506.92865,261.921082,506.362335,262.78775,505.675781,263.554688C505.063843,264.200745,504.302094,264.686005,503.457031,264.964844C502.082184,265.344269,500.608368,265.025146,499.511719,264.113281C498.873383,263.642334,498.321472,263.064545,497.878906,262.40625C497.151337,261.453857,496.542633,260.41626,496.066406,259.316406C495.298828,257.698212,494.65509,256.024139,494.140625,254.308594L493.613281,252.535156C493.502625,252.061584,493.373749,251.592438,493.226563,251.128906C492.706238,249.051575,492.206238,246.969666,491.726563,244.882813C491.197052,242.743759,490.601776,240.621918,489.941406,238.519531C489.616089,239.235123,489.316345,239.962204,489.042969,240.699219C488.886597,241.096985,488.705383,241.484558,488.5,241.859375L488.488281,241.886719C487.858582,243.046036,487.027954,244.084274,486.035156,244.953125C483.789337,246.760178,480.698364,247.099518,478.113281,245.824219C477.126862,245.383682,476.212769,244.796371,475.402344,244.082031C474.495239,243.325012,473.67514,242.469452,472.957031,241.53125C472.865326,241.440384,472.765198,241.358307,472.65625,241.289063C471.88916,240.821457,471.068024,240.448914,470.210938,240.179688C469.737885,240.094864,469.257935,240.054321,468.777344,240.058594L466.675781,240.058594C481.719177,262.825165,477.64801,293.201233,457.140625,311.203125C439.385406,326.893372,413.505615,329.255493,393.203125,317.039063C388.151794,313.810638,383.500854,309.994934,379.347656,305.671875C373.980835,311.443726,367.625732,316.210052,360.582031,319.746094C344.600433,327.154022,326.025116,326.388763,310.707031,317.691406C300.063507,311.668213,291.755859,302.239258,287.121094,290.921875C281.702057,277.826569,281.598358,263.135315,286.832031,249.964844C289.583435,243.048935,293.726379,236.772003,299.003906,231.523438L379.347656,151.210938L458.21875,230.058594z"/>
    <path transform="matrix(-1,0,0,-1,-10.734375,-75.953156)" style="stroke:#000000;stroke-width:0.05mm;fill:none" d="M828.421875,267.445313C827.501282,268.309998,826.670227,269.26535,825.941406,270.296875C823.363586,273.340698,820.888062,276.470245,818.519531,279.679688C817.251099,281.358276,815.997498,283.051025,814.761719,284.753906C813.022644,287.274048,811.431458,289.892944,809.996094,292.597656C807.471924,297.335754,805.052979,302.130676,802.742188,306.976563C801.482849,309.446777,800.333374,311.971252,799.296875,314.542969C799.05896,315.203247,798.878235,315.882782,798.757813,316.574219C798.695557,317.004761,798.765808,317.443329,798.953125,317.835938C799.122131,318.073944,799.39563,318.213989,799.6875,318.214844C799.953796,318.240234,800.222168,318.171417,800.433594,318.007813C801.018616,317.614258,801.553711,317.151184,802.027344,316.628906C803.580811,314.943024,805.026245,313.160767,806.355469,311.292969C807.870972,309.200806,809.340149,307.075134,810.761719,304.917969C813.96521,300.138,817.158081,295.32074,820.3125,290.507813C821.177917,289.705963,821.805298,288.681396,822.128906,287.546875C822.228394,287.148376,822.276672,286.738831,822.273438,286.328125C823.345703,283.331299,824.455994,280.344543,825.601563,277.375C826.719727,274.040619,827.941589,270.742432,829.265625,267.484375L828.839844,267.058594L828.421875,267.445313z"/>
    <path transform="matrix(-1,0,0,-1,-10.734375,-75.953156)" style="stroke:#000000;stroke-width:0.05mm;fill:none" d="M949.425781,226.820313C946.425293,226.926819,943.553711,228.066772,941.296875,230.046875C939.677429,231.402466,938.253662,232.976013,937.066406,234.722656L936.527344,235.507813C935.668335,236.524124,934.813538,237.54985,933.96875,238.578125C933.519958,238.943497,933.174194,239.419907,932.96875,239.960938C932.582092,240.985016,932.260925,242.032669,932.007813,243.097656L930.472656,247.957031C930.92041,249.589874,931.519409,251.17746,932.261719,252.699219C932.512207,253.188339,932.892517,253.599319,933.363281,253.882813C933.55365,253.985138,933.757446,254.06015,933.96875,254.105469C935.735352,254.539673,937.530029,254.850464,939.339844,255.035156C939.663696,254.92746,939.957703,254.744995,940.195313,254.5C940.9552,253.807877,941.614197,253.012436,942.152344,252.136719C943.034668,250.697144,943.944946,249.275101,944.882813,247.871094C945.987122,246.646286,947.466736,245.823029,949.089844,245.53125L949.53125,245.441406C949.87677,245.307739,950.179016,245.083221,950.414063,244.796875C950.993896,244.085739,951.463867,243.291763,951.808594,242.441406C952.255127,241.402496,952.647461,240.341171,952.984375,239.261719C953.745056,237.230743,954.313965,235.133087,954.683594,232.996094C954.811768,231.99852,954.791199,230.987396,954.621094,229.996094C954.464661,229.22966,954.088257,228.525772,953.539063,227.96875C953.127441,227.564102,952.620911,227.269699,952.066406,227.109375C951.209106,226.863144,950.31604,226.765427,949.425781,226.820313z"/>
</svg>
