<?xml version="1.0" encoding="UTF-8"?>
<svg xmlns="http://www.w3.org/2000/svg" width="991.000mm" height="183.545mm" viewBox="-1187.455811 -737.065735 991.000000 183.544678">
    <path transform="matrix(-1,0,0,-1,3.669189,34.713318)" style="stroke:#000000;stroke-width:0.05mm;fill:none" d="M359.664063,604.378906L476.253906,604.378906C476.565887,602.286072,476.903107,600.197876,477.265625,598.113281C477.789917,595.257996,479.637573,592.820923,482.246094,591.546875C483.836853,590.845032,485.660126,590.901733,487.203125,591.703125C487.788177,592.041016,488.300323,592.49176,488.707031,593.03125C489.039429,593.726379,489.245911,594.474915,489.316406,595.242188C489.728363,598.277283,490.046265,601.324158,490.269531,604.378906L672.796875,604.378906L673.335938,600.84375C673.4823,600.033081,673.617798,599.220642,673.742188,598.40625C674.184387,595.557739,675.922913,593.075867,678.449219,591.6875C679.828308,590.996216,681.421021,590.863586,682.894531,591.320313C683.817261,591.644714,684.628906,592.224854,685.230469,592.996094C685.57135,593.695618,685.780518,594.45166,685.851563,595.226563L686.144531,597.53125L686.148438,597.554688L686.40625,599.847656C686.409607,599.873962,686.407776,599.89978,686.410156,599.925781C686.469727,600.688965,686.545166,601.450928,686.636719,602.210938L686.804688,604.378906L1061.8125,604.378906C1063.440063,603.218933,1065.208008,602.270203,1067.074219,601.554688C1068.717773,600.969666,1070.446899,600.661011,1072.191406,600.640625C1072.89563,600.633423,1073.594727,600.763489,1074.246094,601.03125L1074.421875,601.121094L1074.738281,601.34375C1075.137695,601.683289,1075.421753,602.13739,1075.554688,602.644531C1075.672485,603.2146,1075.696533,603.799438,1075.640625,604.378906L1181.324219,604.378906C1186.769653,604.487183,1191.127808,608.932373,1191.125,614.378906L1191.125,741.199219C1191.020142,746.645813,1186.572632,751.005493,1181.125,751L1136.355469,751C1136.4021,751.081482,1136.452881,751.159668,1136.496094,751.242188C1136.568848,751.33667,1136.650391,751.423706,1136.742188,751.5L1136.84375,751.558594C1137.615112,751.9505,1138.447144,752.209412,1139.304688,752.324219C1139.765015,752.434509,1140.237671,752.485107,1140.710938,752.476563C1142.152832,752.555786,1143.572266,752.86853,1144.914063,753.402344L1151.90625,756.816406C1153.138794,757.342224,1154.29187,758.037964,1155.332031,758.882813C1155.798828,759.279968,1156.156372,759.790222,1156.363281,760.367188L1156.414063,760.574219C1156.438721,760.713745,1156.451416,760.854797,1156.460938,760.996094C1156.123047,762.119202,1155.835938,763.25708,1155.601563,764.40625C1156.022827,765.616455,1156.427856,766.78186,1156.847656,767.992188L1156.910156,768.242188C1157.02124,768.74762,1156.997925,769.27417,1156.835938,769.765625C1156.716431,769.996399,1156.54541,770.19696,1156.328125,770.339844L1156.171875,770.425781C1156.033203,770.483154,1155.887207,770.520569,1155.738281,770.539063L1155.53125,770.546875C1154.137329,770.302002,1152.741821,770.046387,1151.351563,769.78125C1150.197144,770.12738,1149.059204,770.526245,1147.941406,770.976563C1145.855469,771.02002,1143.778076,770.700745,1141.800781,770.035156C1140.560547,769.393494,1139.314209,768.752625,1138.070313,768.117188C1137.667725,767.926941,1137.262939,767.742126,1136.855469,767.5625C1135.947144,767.710754,1135.038818,767.853943,1134.128906,767.992188L1133.890625,767.980469C1133.651611,767.957642,1133.418091,767.899109,1133.191406,767.820313C1132.183838,767.183472,1131.099854,766.676514,1129.964844,766.3125C1128.654663,765.87146,1127.30835,765.545898,1125.941406,765.339844C1124.531738,765.09845,1123.151489,764.708679,1121.824219,764.175781C1115.651123,761.032715,1109.615234,757.625854,1103.734375,753.964844C1102.246948,753.029907,1100.793945,752.041077,1099.378906,751L982.585938,751C980.324951,755.418884,977.806396,759.700928,975.042969,763.824219C973.858643,765.526306,972.569824,767.153198,971.183594,768.695313C970.338013,769.603271,969.377991,770.3974,968.328125,771.058594C967.763794,771.378113,967.151733,771.604126,966.515625,771.730469C964.702209,771.886108,962.876282,771.677246,961.144531,771.117188C960.825256,771.019287,960.518433,770.884949,960.226563,770.722656C959.23468,770.170715,958.479187,769.27478,958.09375,768.207031C957.884277,767.702637,957.72937,767.17749,957.628906,766.640625C957.190918,764.375122,957.160583,762.049622,957.539063,759.773438C957.789551,758.328613,957.992798,756.876099,958.148438,755.417969C958.194885,754.86438,958.222412,754.309387,958.230469,753.753906C958.341248,752.819275,958.540588,751.8974,958.824219,751L698.945313,751C698.698181,753.237671,698.369751,755.46582,697.960938,757.679688C697.736816,758.761597,697.418335,759.821838,697.007813,760.847656C696.694763,761.520508,696.261108,762.129578,695.734375,762.652344C695.289612,763.041077,694.771667,763.338013,694.207031,763.511719C693.642151,763.685303,693.046692,763.738464,692.460938,763.660156C691.491211,763.603699,690.527405,763.471375,689.578125,763.265625C688.535034,762.974976,687.659912,762.263428,687.164063,761.300781C686.737854,760.466431,686.430908,759.576294,686.253906,758.65625L686.011719,757.382813L686.011719,757.367188C685.781311,756.080933,685.605652,754.785461,685.484375,753.484375L685.246094,751L502.402344,751C502.248108,752.217224,502.099487,753.4375,501.957031,754.65625C501.764191,756.15509,501.469147,757.638977,501.074219,759.097656C500.887482,759.772522,500.652405,760.432983,500.371094,761.074219C500.000183,761.83252,499.454102,762.491455,498.777344,762.996094C498.030243,763.499756,497.138123,763.741943,496.238281,763.695313C495.249359,763.625732,494.264038,763.512451,493.285156,763.355469C492.072083,763.086975,491.056061,762.262573,490.539063,761.132813C490.237152,760.513489,490.001068,759.864197,489.835938,759.195313C489.421753,757.316101,489.126892,755.412537,488.953125,753.496094L488.710938,751L417.898438,751C400.224457,764.23999,376.291199,765.450928,357.371094,754.0625C355.855804,753.095154,354.375488,752.073669,352.933594,751L334.179688,751C331.203979,753.184509,328.049622,755.114502,324.75,756.769531C308.348816,764.37384,289.245056,763.358459,273.742188,754.058594C272.165527,753.120911,270.639893,752.099915,269.171875,751L209.925781,751C204.480881,750.890625,200.12468,746.445984,200.125,741L200.125,614.179688C200.233658,608.734497,204.678741,604.377686,210.125,604.378906L327.363281,604.378906L343.515625,588.234375L359.664063,604.378906z"/>
    <path transform="matrix(-1,0,0,-1,3.669189,34.713318)" style="stroke:#000000;stroke-width:0.05mm;fill:none" d="M210.125,614.378906L210.125,741L258.898438,741C250.756744,730.637756,246.608948,717.695557,247.210938,704.53125C247.8479,690.963379,253.541962,678.125854,263.171875,668.546875L317.359375,614.378906L210.125,614.378906z"/>
    <path transform="matrix(-1,0,0,-1,3.669189,34.713318)" style="stroke:#000000;stroke-width:0.05mm;fill:none" d="M480.074219,646.496094C477.993652,660.638794,475.960449,674.893555,474.003906,689.054688C473.604279,691.890991,472.877014,694.671387,471.835938,697.339844L471.539063,697.984375L471.523438,698.007813C471.055237,699.058472,470.399719,700.015198,469.589844,700.832031C468.974487,701.403503,468.231689,701.820435,467.421875,702.042969C466.218353,702.312134,464.957764,702.052795,463.957031,701.332031C463.202148,700.828735,462.552399,700.183105,462.046875,699.429688L461.542969,698.722656C461.030823,697.972534,460.592926,697.174377,460.234375,696.339844C459.465149,694.722351,458.82135,693.048096,458.308594,691.332031L457.78125,689.558594C457.670502,689.085083,457.541565,688.615906,457.394531,688.152344C456.872894,686.074951,456.373138,683.994019,455.894531,681.90625C455.369385,679.766235,454.774017,677.643921,454.109375,675.542969C453.784058,676.258606,453.484528,676.985657,453.210938,677.722656C453.057037,678.12146,452.875427,678.509033,452.667969,678.882813C452.040924,680.055115,451.205994,681.10376,450.203125,681.976563C448.091339,683.686951,445.20752,684.091614,442.707031,683.027344C441.557709,682.573914,440.496643,681.923096,439.570313,681.105469C438.663452,680.348206,437.843414,679.492615,437.125,678.554688C437.039673,678.457336,436.936401,678.377441,436.824219,678.3125C436.05719,677.844849,435.235779,677.473022,434.378906,677.203125C433.905884,677.118286,433.425873,677.078857,432.945313,677.082031L430.84375,677.082031C443.830322,696.736328,442.750183,722.501709,428.164063,741L487.992188,741C487.246094,728.48999,486.57959,715.941895,485.996094,703.421875L485.90625,701.832031L485.835938,700.234375L485.410156,691.730469C484.533203,672.91333,483.518555,654.054443,482.371094,635.25L482.175781,632.332031L480.074219,646.496094z"/>
    <path transform="matrix(-1,0,0,-1,3.669189,34.713318)" style="stroke:#000000;stroke-width:0.05mm;fill:none" d="M676.679688,646.082031C674.554688,660.398926,672.509277,674.710693,670.539063,689.050781C670.134583,691.752319,669.459351,694.406372,668.523438,696.972656C668.079224,698.061279,667.51239,699.095764,666.832031,700.054688C666.188965,700.890442,665.330078,701.53479,664.347656,701.917969C663.085938,702.348206,661.695801,702.15033,660.597656,701.394531C659.872314,700.929504,659.241577,700.331055,658.742188,699.628906C657.948792,698.617126,657.286194,697.509399,656.769531,696.332031C656.005066,694.711121,655.361511,693.036011,654.84375,691.320313C654.105347,688.922485,653.468018,686.494385,652.933594,684.042969C652.290283,681.174927,651.526489,678.335083,650.644531,675.53125C650.313477,676.238586,650.014832,676.960632,649.75,677.695313C649.031189,679.556885,647.798035,681.175781,646.191406,682.359375C644.142456,683.73407,641.53949,683.985291,639.265625,683.027344C637.775269,682.428528,636.427307,681.52356,635.308594,680.371094C634.71814,679.798767,634.166382,679.187927,633.65625,678.542969C633.447021,678.351135,633.214539,678.186157,632.960938,678.058594C632.290588,677.680176,631.576721,677.38501,630.835938,677.175781C630.357971,677.112183,629.876709,677.07666,629.394531,677.070313L558.832031,677.070313C557.975159,677.0849,557.120728,677.168213,556.277344,677.320313C554.812073,677.600403,553.323853,677.742859,551.832031,677.746094C549.828613,677.650269,547.927551,676.833923,546.476563,675.449219C545.865112,674.909851,545.298706,674.321533,544.78125,673.691406L544.445313,673.328125C542.620178,671.052551,540.885742,668.705627,539.246094,666.292969C537.6073,663.846375,535.832336,661.493652,533.929688,659.246094L533.566406,658.847656C532.464844,663.106567,531.467163,667.391724,530.574219,671.699219L530.019531,674.265625L530.015625,674.296875L529.429688,676.859375L529.421875,676.878906L528.8125,679.410156L528.796875,679.457031C528.447754,680.956909,528.043762,682.443726,527.585938,683.914063C527.158203,685.258362,526.634949,686.570435,526.019531,687.839844C525.459778,688.919373,524.679016,689.869019,523.726563,690.625C522.526123,691.513245,521.05365,691.955505,519.5625,691.875C518.783752,691.770874,518.048706,691.45459,517.4375,690.960938C516.731262,690.43457,516.111206,689.801575,515.597656,689.085938L514.824219,687.96875L514.808594,687.949219L514.089844,686.800781L514.082031,686.78125C513.55011,685.887878,513.062683,684.968689,512.621094,684.027344C511.848083,682.463074,511.112061,680.880371,510.414063,679.28125C509.955627,678.281006,509.480377,677.288879,508.988281,676.304688C508.728394,677.727051,508.525299,679.159119,508.378906,680.597656C507.619263,687.10022,506.978638,693.614624,506.457031,700.140625C505.642578,709.927246,504.895508,719.713867,504.214844,729.511719C503.948181,733.340393,503.649475,737.176392,503.320313,741L684.523438,741C683.770752,728.45697,683.108154,715.953796,682.53125,703.402344L682.441406,701.820313L682.371094,700.222656L681.972656,692.257813C681.050293,672.283142,679.961426,652.272705,678.710938,632.316406L676.679688,646.082031z"/>
    <path transform="matrix(-1,0,0,-1,3.669189,34.713318)" style="stroke:#000000;stroke-width:0.05mm;fill:none" d="M729.296875,662.027344C728.285156,666.197021,727.348572,670.386169,726.488281,674.589844C725.848816,677.480591,725.12854,680.352722,724.328125,683.203125L723.996094,684.261719L723.992188,684.28125L723.621094,685.328125C723.236694,686.482849,722.71814,687.588379,722.074219,688.621094C721.478516,689.558716,720.684326,690.354492,719.746094,690.949219C718.665283,691.597229,717.419373,691.916199,716.160156,691.867188C715.35083,691.769287,714.584778,691.448059,713.949219,690.9375C713.250427,690.414734,712.637451,689.786194,712.132813,689.074219C711.155029,687.742737,710.29718,686.327148,709.570313,684.84375C708.647461,683.009338,707.773315,681.15033,706.949219,679.269531C706.490112,678.270569,706.01593,677.277954,705.527344,676.292969C705.263794,677.716187,705.059143,679.149719,704.914063,680.589844C704.154846,687.091675,703.513,693.603638,702.988281,700.128906C702.17749,709.909912,701.43042,719.71167,700.75,729.503906C700.481873,733.337402,700.183533,737.171021,699.855469,741L960.980469,741C961.644104,739.172363,962.399841,737.379456,963.246094,735.628906C964.329346,731.880432,965.580505,728.1828,966.996094,724.546875C967.862915,723.1698,968.729126,721.804382,969.605469,720.433594L970.066406,719.683594C970.515869,718.059509,971.125977,716.484131,971.886719,714.980469C972.518982,713.65033,973.269348,712.379517,974.128906,711.183594C974.756226,710.279297,975.363037,709.361206,975.949219,708.429688C976.472229,707.525146,976.946045,706.592957,977.367188,705.636719C977.724854,704.880371,978.066406,704.155518,978.421875,703.398438C979.478394,701.810425,980.568542,700.244873,981.691406,698.703125C982.605652,697.407959,983.506165,696.10083,984.390625,694.785156C986.107666,691.73999,987.927917,688.753601,989.847656,685.832031C989.900574,683.085571,989.54126,680.346802,988.78125,677.707031C988.330872,676.256348,987.660461,674.883606,986.792969,673.636719C985.264832,671.547729,983.027893,670.087036,980.5,669.53125C979.216553,669.238525,977.9021,669.103333,976.585938,669.128906C975.372742,669.376343,974.173157,669.686523,972.992188,670.058594C971.411377,670.541992,969.839844,671.053711,968.277344,671.59375C966.928711,672.476685,965.640747,673.449036,964.421875,674.503906C963.729187,675.084595,963.04248,675.6698,962.359375,676.261719L962.445313,676.453125C961.95282,677.026672,961.51355,677.643799,961.132813,678.296875C960.733459,678.925903,960.346558,679.5625,959.972656,680.207031L952.214844,685.320313C951.195984,686.356812,950.338196,687.540344,949.671875,688.832031C949.088013,689.767578,948.280579,690.543701,947.320313,691.085938C946.893494,691.35498,946.448547,691.594177,945.988281,691.800781C944.396851,693.644653,942.658142,695.356201,940.789063,696.917969C938.772217,698.037231,936.908875,699.413147,935.246094,701.011719C931.686462,704.444519,927.892212,707.625671,923.890625,710.53125C921.757874,712.050964,919.482788,713.360107,917.097656,714.441406C915.669678,715.048645,914.164673,715.455383,912.625,715.648438C911.713013,715.723999,910.795105,715.657898,909.902344,715.457031C909.406494,715.327637,908.94397,715.093445,908.546875,714.769531C907.991699,714.290161,907.630188,713.62677,907.515625,712.902344C907.292908,711.31366,907.616333,709.696838,908.433594,708.316406C908.872131,707.655945,909.434875,707.087341,910.089844,706.640625C911.639526,705.522339,913.174744,704.384155,914.695313,703.226563C916.968079,700.287231,919.636475,697.676331,922.625,695.46875C923.121704,694.825134,923.604858,694.171631,924.074219,693.507813C925.562073,692.025757,927.158997,690.657227,928.851563,689.414063C929.348206,688.414307,929.969482,687.481445,930.699219,686.636719C932.539063,684.508972,934.510376,682.498413,936.601563,680.617188C937.782288,679.523743,938.978821,678.448547,940.191406,677.390625C940.822693,676.687134,941.411377,675.946472,941.953125,675.171875C943.426392,673.138306,944.888306,671.089722,946.332031,669.035156L945.734375,668.269531C944.332336,668.75061,943.010864,669.440002,941.8125,670.3125C940.212524,671.478149,938.701721,672.761658,937.292969,674.152344C935.31897,675.966187,933.337341,677.759399,931.335938,679.542969C930.900513,679.934204,930.441467,680.298462,929.960938,680.632813C929.085205,681.105408,928.231445,681.617615,927.402344,682.167969C925.55127,684.444946,923.46106,686.516541,921.167969,688.347656C919.684265,689.494141,918.02301,690.389954,916.25,691C915.278809,691.288269,914.265442,691.407288,913.253906,691.351563C912.782104,691.309753,912.328674,691.148071,911.933594,690.886719C911.734314,690.763794,911.552307,690.614441,911.394531,690.441406C910.964355,689.956299,910.645691,689.383179,910.460938,688.761719C910.13916,687.788452,909.956604,686.774475,909.921875,685.75C910.049561,682.798584,910.10437,679.84491,910.085938,676.890625C910.01416,674.923889,909.176819,673.062561,907.75,671.707031C907.002563,671.045044,906.07019,670.628052,905.078125,670.515625L904.582031,670.488281L904.082031,670.511719C903.428406,670.627319,902.816589,670.915833,902.3125,671.347656C902.021912,671.554688,901.744202,671.779236,901.480469,672.019531C900.740173,672.979614,899.971497,673.917358,899.175781,674.832031C898.52594,675.176636,897.91925,675.596558,897.363281,676.078125L897.542969,676.453125C897.091797,677.194397,896.590088,677.903809,896.039063,678.574219C895.803833,678.891541,895.566406,679.208313,895.328125,679.523438C893.240295,681.295471,891.255066,683.185181,889.382813,685.183594L888.792969,685.863281L884.851563,690.324219L880.914063,694.785156C877.917969,698.018555,874.961548,701.286133,872.042969,704.589844C870.424866,706.428223,868.382996,707.844666,866.09375,708.714844C864.223206,709.384705,862.219238,709.596252,860.25,709.332031C858.627686,709.058228,857.250183,707.98999,856.578125,706.488281C856.432617,706.175415,856.311462,705.851868,856.21875,705.519531C855.680054,703.571899,855.618042,701.523254,856.039063,699.546875C856.637695,696.540833,857.383423,693.565796,858.273438,690.632813C859.361206,686.994019,860.513672,683.374878,861.730469,679.777344C862.298706,678.522644,862.86084,677.261475,863.414063,676C863.774841,675.142883,863.984192,674.229553,864.03125,673.300781L863.957031,672.949219L863.832031,672.617188L863.65625,672.304688L863.4375,672.019531C862.964355,672.328796,862.549255,672.719055,862.210938,673.171875C862.049194,673.355408,861.88916,673.540466,861.730469,673.726563C861.167908,674.717773,860.463135,675.621155,859.640625,676.410156C858.557556,677.489746,857.434082,678.52771,856.273438,679.523438C855.203247,681.449036,853.770325,683.149231,852.054688,684.53125L851.496094,684.980469C851.072632,685.455627,850.677063,685.954895,850.3125,686.476563C849.661316,687.351624,848.907898,688.145813,848.066406,688.839844C846.495422,690.186035,844.819275,691.404358,843.054688,692.484375C841.446411,693.351013,839.766968,694.07843,838.035156,694.660156C834.707275,695.700073,831.082397,694.585754,828.914063,691.855469C828.381348,691.206482,827.919922,690.502197,827.539063,689.753906C826.483032,686.476379,825.403076,683.210449,824.296875,679.949219C823.876526,678.652588,823.257935,677.428894,822.464844,676.320313C822.083801,675.82489,821.604248,675.414246,821.058594,675.109375C820.891296,675.027161,820.718994,674.955688,820.542969,674.894531C819.971558,674.722168,819.366272,674.694153,818.78125,674.8125C817.895691,674.960693,817.073547,675.367004,816.417969,675.980469L816.667969,676.453125C816.073303,677.090393,815.546936,677.788208,815.097656,678.535156C814.718567,679.097534,814.33197,679.655334,813.9375,680.207031L807.371094,684.726563C806.235718,686.044373,805.011475,687.282898,803.707031,688.433594C801.676636,690.286926,799.63147,692.118774,797.566406,693.933594C796.922119,695.19635,796.07843,696.347107,795.066406,697.339844C794.479187,697.951477,793.861816,698.533325,793.21875,699.085938C792.064148,700.08844,790.901184,701.085876,789.734375,702.074219C788.649719,703.079651,787.619629,704.142395,786.648438,705.257813C785.930298,706.050293,785.191772,706.823914,784.433594,707.578125C783.39801,708.522095,782.191101,709.258423,780.878906,709.75C779.504456,710.1828,778.043884,710.264832,776.628906,709.992188C776.12738,709.891663,775.64624,709.707458,775.207031,709.445313L775.074219,709.34375C774.995911,709.265625,774.918701,709.186401,774.847656,709.101563C774.754456,708.962646,774.670532,708.817627,774.613281,708.660156C774.581543,708.556641,774.556213,708.451233,774.542969,708.34375C775.117493,707.025879,775.715149,705.718567,776.335938,704.421875L775.824219,703.65625C773.335266,704.659607,770.799927,705.543335,768.226563,706.304688C767.492126,706.484802,766.731079,706.528931,765.980469,706.4375C764.286438,706.339355,762.625427,705.927917,761.082031,705.222656C758.882141,704.124634,757.166504,702.250977,756.261719,699.964844C755.658997,698.564209,755.254333,697.086426,755.058594,695.574219C754.759827,693.607178,754.689331,691.612183,754.847656,689.628906C755.215271,686.322144,756.145081,683.102661,757.597656,680.109375C758.070313,679.140137,758.647705,678.225647,759.320313,677.382813C759.498474,677.178711,759.684631,676.981812,759.878906,676.792969C759.732178,676.221497,759.468933,675.686584,759.109375,675.21875C758.924561,675.039368,758.702942,674.904053,758.460938,674.816406C758.030029,674.722961,757.582703,674.756775,757.167969,674.90625C757.25,675.937256,756.533936,676.861755,755.515625,677.042969C755.016541,677.068726,754.5177,677.101135,754.019531,677.140625C753.247681,677.233826,752.478943,677.352295,751.714844,677.496094C750.488708,677.684875,749.247437,677.755737,748.007813,677.707031C746.138184,677.535217,744.381836,676.737244,743.019531,675.445313C742.050659,674.55127,741.15802,673.578064,740.351563,672.535156C738.475403,670.132629,736.687683,667.662109,734.992188,665.128906C733.471558,662.94458,731.839233,660.84021,730.101563,658.824219L729.296875,662.027344z"/>
    <path transform="matrix(-1,0,0,-1,3.669189,34.713318)" style="stroke:#000000;stroke-width:0.05mm;fill:none" d="M987.605469,703.015625L987.28125,703.175781L986.980469,703.371094C986.651917,703.647278,986.355347,703.959534,986.105469,704.308594C985.288025,705.341003,984.575256,706.452087,983.976563,707.625C983.554932,708.403503,983.153442,709.192566,982.773438,709.992188C982.143066,711.161621,981.466675,712.305786,980.746094,713.421875C979.98822,714.677612,979.241882,715.940979,978.507813,717.210938C977.93335,718.092468,977.429932,719.018372,977.003906,719.980469C974.827698,724.85498,972.928955,729.848572,971.316406,734.9375C971.055481,735.798279,970.899414,736.687561,970.855469,737.585938C970.735657,738.737,970.53363,739.878052,970.25,741L973.003906,741C974.616821,739.226379,976.078796,737.32135,977.375,735.304688C978.419983,733.612,979.192688,731.765625,979.660156,729.832031C979.865356,728.882263,979.968018,727.913086,979.964844,726.941406C980.101196,726.179077,980.336609,725.437988,980.660156,724.734375C981.332214,723.167664,982.067505,721.628662,982.863281,720.121094C983.598694,718.65271,984.307373,717.170227,984.988281,715.675781C986.057251,712.621338,987.02002,709.53125,987.875,706.410156C988.109863,705.508545,988.256226,704.586243,988.3125,703.65625L987.800781,702.972656L987.605469,703.015625z"/>
    <path transform="matrix(-1,0,0,-1,3.669189,34.713318)" style="stroke:#000000;stroke-width:0.05mm;fill:none" d="M1022.21875,664.269531C1021.465088,664.730896,1020.746887,665.247925,1020.070313,665.816406C1018.059387,667.503052,1016.112793,669.264587,1014.234375,671.097656C1012.782593,672.496216,1011.338989,673.909668,1009.910156,675.332031L1010.398438,676.453125C1009.754456,677.204285,1009.174194,678.007751,1008.664063,678.855469C1008.102905,679.688232,1007.485352,680.481567,1006.816406,681.230469L1001.191406,686.175781C1001.055542,686.283752,1000.949951,686.423645,1000.871094,686.578125C1000.843201,686.660156,1000.81897,686.743347,1000.800781,686.828125C1000.702271,687.837097,1000.776855,688.85553,1001.019531,689.839844C1000.959778,691.493835,1000.789734,693.141907,1000.511719,694.773438C1000.229797,696.808289,999.840027,698.826843,999.34375,700.820313C999.22583,701.209656,999.070984,701.586548,998.886719,701.949219L999.398438,703.570313C998.562622,707.781982,997.523499,711.951111,996.285156,716.0625C994.825378,720.983643,993.306091,725.885437,991.726563,730.769531C990.863831,732.226929,990.103149,733.742371,989.449219,735.304688C988.927612,736.46228,988.324097,737.799927,987.800781,738.957031C987.575317,739.642944,987.335938,740.324097,987.082031,741L1088.574219,741C1083.027344,734.253784,1080.320923,725.615356,1081.027344,716.910156C1081.336182,712.686523,1082.204468,708.522461,1083.609375,704.527344C1084.973633,700.53656,1086.703369,696.680115,1088.777344,693.007813C1091.134644,688.76062,1093.791016,684.686523,1096.726563,680.816406C1100.162476,676.216858,1103.855957,671.815186,1107.789063,667.632813L1109.058594,666.277344C1107.694946,666.828125,1106.302246,667.303955,1104.886719,667.703125C1103.716309,668.072937,1102.546875,668.453674,1101.382813,668.84375C1097.681152,669.665894,1093.987305,670.521362,1090.300781,671.410156C1087.977661,672.038269,1085.723145,672.897217,1083.570313,673.972656C1082.902344,674.331238,1082.262085,674.739441,1081.65625,675.195313L1081.8125,675.554688C1081.993896,675.899963,1082.239624,676.208008,1082.542969,676.453125C1080.750366,678.224609,1078.800781,679.829834,1076.71875,681.25C1075.243286,682.320251,1073.791504,683.421875,1072.363281,684.554688C1071.731445,685.075134,1071.116577,685.615784,1070.519531,686.175781C1068.914917,688.043457,1067.253906,689.861816,1065.539063,691.628906L1062.3125,695.042969C1061.158691,696.11615,1059.851685,697.012146,1058.433594,697.699219C1057.048218,698.320313,1055.492798,698.452515,1054.023438,698.070313C1053.253296,697.870361,1052.574219,697.413452,1052.101563,696.773438C1051.74353,696.264587,1051.521606,695.672668,1051.449219,695.054688C1051.33728,694.071045,1051.365479,693.076172,1051.539063,692.101563C1051.893921,690.004028,1052.404907,687.935913,1053.066406,685.914063C1053.753296,683.893738,1054.41626,681.86438,1055.054688,679.828125C1055.729126,677.627258,1056.199463,675.369019,1056.460938,673.082031C1056.498535,672.581543,1056.500854,672.079041,1056.46875,671.578125L1056.414063,671.34375C1056.352905,671.196777,1056.281738,671.054138,1056.199219,670.917969C1056.134399,670.853638,1056.066284,670.792725,1055.996094,670.734375C1055.914795,670.688599,1055.835205,670.639954,1055.753906,670.59375L1055.488281,670.523438L1055.214844,670.484375L1054.789063,670.570313C1051.745483,672.530273,1048.839111,674.695618,1046.089844,677.050781C1043.635864,679.36499,1041.231689,681.731323,1038.878906,684.148438C1036.88855,686.146484,1034.891357,688.125488,1032.875,690.097656C1030.908203,691.721619,1029.041504,693.463013,1027.285156,695.3125C1026.204102,696.429871,1025.138672,697.563171,1024.089844,698.710938C1023.316956,699.755615,1022.271484,700.568359,1021.066406,701.054688C1020.131836,701.463135,1019.139709,701.724854,1018.125,701.828125C1016.987915,701.989563,1015.834106,701.99646,1014.695313,701.847656C1014.029663,701.756531,1013.403381,701.474915,1012.902344,701.027344L1012.699219,700.804688C1012.576721,700.644592,1012.476257,700.469543,1012.386719,700.289063C1012.26416,700.007813,1012.190063,699.708313,1012.167969,699.402344C1012.135925,698.712158,1012.213379,698.021118,1012.398438,697.355469C1012.632996,696.221863,1012.914368,695.098511,1013.242188,693.988281C1014.475464,689.907654,1015.789429,685.8526,1017.183594,681.824219C1018.45752,678.992859,1019.600891,676.10437,1020.609375,673.167969C1021.62085,670.316956,1022.608521,667.467041,1023.578125,664.601563L1022.984375,663.832031L1022.21875,664.269531z"/>
    <path transform="matrix(-1,0,0,-1,3.669189,34.713318)" style="stroke:#000000;stroke-width:0.05mm;fill:none" d="M1069.664063,614.378906L1068.199219,615.65625C1068.02832,616.153564,1067.912842,616.668274,1067.859375,617.191406C1067.093628,618.039978,1066.272461,618.836914,1065.402344,619.578125C1065.042969,620.405334,1064.606445,621.196716,1064.097656,621.941406C1062.537109,624.272156,1060.863403,626.524841,1059.082031,628.691406C1054.125488,634.789673,1048.953247,640.708374,1043.574219,646.4375C1043.015869,647.55957,1042.560303,648.729919,1042.210938,649.933594C1041.092407,652.238342,1040.050049,654.579529,1039.085938,656.953125C1038.26355,658.884521,1037.430054,660.806396,1036.582031,662.726563C1035.881348,664.840393,1035.34729,667.00592,1034.984375,669.203125C1034.627441,671.243713,1034.307007,673.291626,1034.023438,675.34375L1034.09375,675.535156C1034.201416,675.864014,1034.264282,676.205627,1034.289063,676.550781C1034.35498,676.983154,1034.464722,677.407898,1034.621094,677.816406C1035.828979,677.180725,1036.959961,676.408752,1037.992188,675.515625C1039.353149,674.365784,1040.675415,673.171265,1041.957031,671.933594C1044.061523,669.107788,1046.5625,666.600159,1049.382813,664.488281C1050.638428,663.576904,1051.977661,662.786621,1053.382813,662.128906C1054.267212,660.302673,1055.551147,658.698792,1057.140625,657.4375C1059.159546,655.926941,1061.593262,655.072388,1064.113281,654.984375C1065.030151,654.937622,1065.949219,654.98999,1066.855469,655.136719C1067.679443,655.302246,1068.452515,655.660339,1069.113281,656.179688C1069.853149,656.810181,1070.352661,657.678406,1070.515625,658.636719C1070.728271,659.61731,1070.74231,660.630066,1070.5625,661.617188C1070.460571,662.21875,1070.332397,662.815552,1070.179688,663.40625C1070.483765,664.195801,1070.768066,664.992737,1071.03125,665.796875C1070.783691,666.86676,1070.584595,667.947388,1070.433594,669.035156C1070.397461,670.2948,1070.516602,671.553955,1070.785156,672.785156C1070.862915,673.084839,1070.989014,673.369751,1071.152344,673.632813C1071.294312,673.808044,1071.466553,673.954895,1071.660156,674.070313C1071.723511,674.09436,1071.7854,674.121216,1071.851563,674.136719C1071.918823,674.148804,1071.986694,674.150269,1072.054688,674.152344C1072.364746,674.007019,1072.653809,673.820313,1072.914063,673.597656C1074.464111,672.404175,1075.994141,671.185425,1077.503906,669.941406C1077.336182,669.504028,1077.162109,669.047485,1076.996094,668.609375C1078.348511,667.317383,1079.901245,666.25293,1081.59375,665.457031C1084.026733,664.267212,1086.576904,663.333679,1089.203125,662.671875C1090.693237,662.215271,1092.196655,661.802368,1093.710938,661.433594C1098.41333,661.080078,1103.105835,660.59552,1107.78125,659.980469C1111.6521,656.884277,1115.733398,654.061035,1119.996094,651.53125C1121.953857,650.40863,1123.990356,649.429443,1126.089844,648.601563C1126.795776,648.339355,1127.515625,648.116272,1128.246094,647.933594L1129.523438,646.824219C1131.884033,645.827881,1134.352295,645.109253,1136.878906,644.683594C1140.004761,644.093933,1143.154785,643.641907,1146.320313,643.328125C1147.104126,643.570068,1147.820068,643.992737,1148.410156,644.5625C1149.296631,645.416992,1150.109619,646.344543,1150.839844,647.335938C1148.848877,649.533875,1146.974976,651.835022,1145.226563,654.230469C1143.818604,655.976501,1141.875244,657.21051,1139.695313,657.738281C1137.150146,658.262207,1134.636719,658.93103,1132.167969,659.742188C1131.30249,660.401062,1130.391357,660.99762,1129.441406,661.527344C1128.722168,661.972412,1128.01001,662.427673,1127.304688,662.894531C1125.642944,663.731079,1124.088745,664.766235,1122.675781,665.976563C1120.674438,667.664673,1118.747925,669.439758,1116.902344,671.296875C1114.873779,673.254395,1112.865723,675.233887,1110.878906,677.234375C1110.636353,677.514648,1110.422485,677.818481,1110.246094,678.144531C1109.487305,679.470093,1108.477173,680.635132,1107.269531,681.570313C1104.896606,685.716187,1102.479126,689.838745,1100.019531,693.933594C1099.529175,694.462097,1099.063232,695.012634,1098.621094,695.582031C1098.171875,696.117615,1097.716187,696.647522,1097.253906,697.171875C1096.35437,698.390686,1095.715088,699.781677,1095.375,701.257813C1094.951904,702.832581,1094.668945,704.44165,1094.53125,706.066406C1094.274048,708.566711,1094.181274,711.081238,1094.253906,713.59375C1094.463623,716.25769,1095.208374,718.851929,1096.441406,721.222656C1097.714478,723.759033,1099.282349,726.136353,1101.113281,728.304688C1104.998535,733.075623,1109.655396,737.161987,1114.890625,740.394531C1115.236084,740.604492,1115.586304,740.806763,1115.941406,741L1130.136719,741C1131.682861,734.963928,1133.112549,728.899536,1134.425781,722.808594C1136.40918,713.924133,1138.182129,704.991943,1139.742188,696.023438C1140.136719,693.671997,1140.435181,691.30542,1140.636719,688.929688L1140.660156,688.136719C1140.995972,686.725708,1141.280151,685.302917,1141.511719,683.871094L1144.917969,667.074219C1146.279053,664.349609,1147.809448,661.713013,1149.5,659.179688C1150.184082,658.2005,1150.955444,657.285278,1151.804688,656.445313C1152.174927,656.09314,1152.621338,655.831787,1153.105469,655.667969L1153.285156,655.652344L1153.460938,655.667969L1153.632813,655.710938C1153.773682,655.767212,1153.899048,655.855469,1154,655.96875C1154.197998,656.157715,1154.357788,656.382385,1154.476563,656.628906C1154.936523,657.624817,1155.283081,658.66925,1155.511719,659.742188L1154.476563,664.605469C1154.697388,665.070129,1154.871216,665.555603,1154.996094,666.054688C1154.485474,671.673462,1154.017456,677.307007,1153.59375,682.933594C1153.329468,685.738953,1153.093628,688.549072,1152.886719,691.359375C1152.320923,697.851929,1151.338501,704.301453,1149.945313,710.667969L1150.96875,715.019531C1150.385132,716.727051,1149.95166,718.4823,1149.675781,720.265625C1149.290405,722.56897,1149.014282,724.889343,1148.847656,727.21875C1148.705078,728.967957,1148.520142,730.712952,1148.292969,732.453125C1148.174194,733.250916,1147.983154,734.036072,1147.726563,734.800781C1147.203613,736.855774,1146.729614,738.922424,1146.304688,741L1181.125,741L1181.125,614.378906L1069.664063,614.378906z"/>
    <path transform="matrix(-1,0,0,-1,3.669189,34.713318)" style="stroke:#000000;stroke-width:0.05mm;fill:none" d="M491.019531,614.378906C491.489746,620.999207,491.89624,627.629639,492.238281,634.257813C492.967529,648.05249,493.628662,661.743958,494.230469,675.542969C494.732422,686.510437,495.30957,697.517029,495.957031,708.476563C496.411255,703.341492,496.854126,698.158142,497.277344,693.019531C497.965973,685.294556,498.840057,677.585266,499.898438,669.902344C500.211853,667.662476,500.618469,665.436523,501.117188,663.230469C501.272888,662.695984,501.473389,662.175537,501.71875,661.675781C503.1987,659.55072,505.984039,658.784851,508.34375,659.851563C509.305389,660.298218,510.176758,660.917664,510.914063,661.679688C511.861481,662.614136,512.711121,663.642761,513.449219,664.75L514.382813,666.1875L514.394531,666.203125C515.566162,668.123169,516.642944,670.099609,517.621094,672.125C518.307068,673.450806,519.094543,674.721497,519.976563,675.925781C520.512695,674.53363,520.925781,673.097107,521.210938,671.632813C521.858765,668.415466,522.420166,665.18103,522.894531,661.933594L523.230469,659.882813L523.230469,659.832031L523.609375,657.78125L523.621094,657.738281C524.023987,655.562256,524.528503,653.406189,525.132813,651.277344L525.398438,650.472656L525.40625,650.457031C525.761902,649.387451,526.210449,648.351074,526.746094,647.359375C527.210876,646.565674,527.796265,645.84906,528.480469,645.234375C529.930542,644.073303,531.917175,643.84082,533.59375,644.640625C534.505615,645.038391,535.347961,645.579346,536.089844,646.242188C537.430786,647.367615,538.661621,648.617981,539.765625,649.976563C541.770203,652.412842,543.675537,654.92926,545.476563,657.519531C547.127502,659.915588,548.912964,662.216125,550.824219,664.410156C551.490723,665.120178,552.257507,665.729065,553.101563,666.214844C553.797668,666.583801,554.562195,666.805969,555.347656,666.867188C556.515808,666.97113,557.687073,667.038696,558.859375,667.070313L629.148438,667.070313C631.238159,666.984924,633.329224,667.204163,635.355469,667.722656C637.013184,668.204773,638.540039,669.056641,639.820313,670.214844L641.628906,671.910156C642.307861,670.257629,643.005066,668.610413,643.71875,666.972656L644.003906,666.347656L644.007813,666.332031C644.8255,664.587646,645.868225,662.957825,647.109375,661.484375C647.812195,660.712219,648.652771,660.077698,649.589844,659.617188C651.266357,658.890259,653.208252,659.158508,654.625,660.3125C655.669922,661.139404,656.527832,662.178162,657.144531,663.359375C658.114807,665.066895,658.880371,666.882813,659.425781,668.769531C660.345398,671.672058,661.062073,674.634827,661.570313,677.636719L661.824219,678.941406C664.006226,664.995483,666.059937,651.011841,667.980469,637.027344C669.050781,629.452393,670.145508,621.942444,671.28125,614.378906L491.019531,614.378906z"/>
    <path transform="matrix(-1,0,0,-1,3.669189,34.713318)" style="stroke:#000000;stroke-width:0.05mm;fill:none" d="M687.550781,614.378906C688.217468,623.947327,688.779724,633.514587,689.238281,643.09375C689.685791,651.910034,690.102783,660.825623,690.480469,669.644531C691.067383,682.580139,691.735352,695.469849,692.488281,708.398438C692.842468,704.57605,693.170471,700.752869,693.472656,696.925781C694.212097,687.889893,695.196777,678.876648,696.425781,669.894531C696.744507,667.626465,697.160217,665.373047,697.671875,663.140625C697.828918,662.585388,698.050171,662.050354,698.332031,661.546875C699.758423,659.629944,702.269775,658.870911,704.519531,659.675781C705.622498,660.131958,706.620544,660.80896,707.449219,661.667969C708.399963,662.601196,709.248535,663.632996,709.980469,664.746094L710.914063,666.175781L710.925781,666.191406C711.844971,667.652283,712.686035,669.160889,713.445313,670.710938C714.224243,672.300354,715.097046,673.842102,716.058594,675.328125C716.196167,675.533447,716.347595,675.729187,716.511719,675.914063C717.047729,674.521851,717.460876,673.085388,717.746094,671.621094C718.386597,668.400574,718.949158,665.165588,719.433594,661.917969C719.641235,660.531677,719.876892,659.150146,720.140625,657.773438L720.15625,657.710938C720.539063,655.595276,721.028015,653.500183,721.621094,651.433594C722.015747,650.126892,722.516479,648.854614,723.117188,647.628906C723.605957,646.732971,724.241638,645.925537,724.996094,645.238281C726.514221,644.016296,728.614197,643.81366,730.335938,644.726563C731.313416,645.188721,732.210999,645.803467,732.996094,646.546875C734.189392,647.593872,735.294922,648.736755,736.300781,649.964844C738.239868,652.308472,740.076355,654.735291,741.804688,657.238281C743.333618,659.39447,744.934814,661.498474,746.605469,663.546875C747.323608,664.421936,748.150879,665.201355,749.066406,665.867188C749.908142,666.428955,750.878418,666.768616,751.886719,666.855469L753.371094,666.957031C754.71637,665.735962,756.118958,664.579773,757.574219,663.492188C758.832275,662.409912,760.263672,661.547424,761.808594,660.941406C763.208618,660.428162,764.720581,660.298889,766.1875,660.566406C767.516296,660.869751,768.667542,661.693787,769.386719,662.851563C769.630798,663.217224,769.844177,663.602478,770.023438,664.003906C773.119995,660.009155,777.206787,656.893066,781.878906,654.964844C783.395508,654.208801,784.980896,653.599487,786.613281,653.144531C787.417603,652.939087,788.24408,652.832031,789.074219,652.828125C789.817932,652.710571,790.552795,652.542358,791.273438,652.324219C792.10907,652.135742,792.97168,652.098145,793.820313,652.214844C795.842468,652.445374,797.765076,653.21814,799.382813,654.453125C801.613098,656.095215,803.365051,658.302368,804.457031,660.847656C805.337158,663.035828,805.557739,665.433655,805.09375,667.746094C804.790833,669.287048,804.412781,670.812378,803.960938,672.316406C803.737671,673.115845,803.565613,673.928711,803.445313,674.75C803.452087,674.894775,803.468689,675.039001,803.503906,675.179688L803.554688,675.3125L803.640625,675.484375C803.745605,675.640991,803.873596,675.781372,804.027344,675.890625L804.179688,675.976563C804.367493,676.053955,804.566528,676.100891,804.769531,676.109375C804.854553,676.111877,804.939697,676.108765,805.023438,676.09375L805.339844,675.953125C805.650391,675.80072,805.940918,675.61084,806.210938,675.394531C808.004028,674.001221,809.78302,672.593079,811.550781,671.167969C811.844482,670.727234,812.109375,670.267944,812.34375,669.792969C812.477112,669.580872,812.621399,669.375793,812.777344,669.179688L812.53125,668.609375C814.531006,666.948242,816.495117,665.320801,818.5,663.664063C819.613586,662.594971,820.899719,661.721619,822.304688,661.082031C825.552063,659.71936,829.302429,660.503479,831.738281,663.046875C832.239685,663.62439,832.72229,664.218079,833.183594,664.828125C833.674255,665.577454,834.125427,666.35199,834.535156,667.148438C835.209167,668.390869,835.861633,669.645081,836.492188,670.910156C837.65979,672.135925,838.744141,673.438354,839.738281,674.808594C840.591919,675.926941,841.438843,677.039612,842.289063,678.160156L843.054688,678.414063C844.490662,677.940796,845.840515,677.23822,847.050781,676.332031C848.107178,675.550293,849.120789,674.712219,850.085938,673.820313C851.375916,672.648987,852.737671,671.559326,854.164063,670.558594C854.698914,670.222046,855.247864,669.908447,855.808594,669.617188C856.386292,669.277771,856.892151,668.82782,857.285156,668.285156C858.136169,666.864258,859.109802,665.520447,860.195313,664.269531C864.293274,659.551025,868.636658,655.051392,873.207031,650.789063C874.065002,650.061707,875.095093,649.566101,876.199219,649.351563C877.483276,649.072083,878.805359,649.013489,880.109375,649.175781L880.460938,649.253906C880.810059,649.350708,881.147949,649.485535,881.460938,649.667969C882.074219,650.053711,882.471924,650.704041,882.535156,651.425781C882.735413,653.001709,882.92041,654.580811,883.089844,656.160156C881.743225,660.043945,880.496582,663.962219,879.351563,667.910156C878.389771,671.126526,877.411499,674.426697,876.464844,677.648438C876.445679,677.947388,876.384827,678.242371,876.28125,678.523438C875.783813,679.731323,875.343323,680.961853,874.960938,682.210938C874.762146,682.874146,874.675964,683.566162,874.707031,684.257813C874.749695,684.425171,874.815613,684.585022,874.902344,684.734375L875,684.859375L875.105469,684.96875C875.424133,685.205505,875.813965,685.327698,876.210938,685.320313C876.483154,685.333313,876.75592,685.307312,877.019531,685.238281C877.281067,685.166016,877.530029,685.056213,877.765625,684.921875C878.690002,684.390991,879.537903,683.736816,880.285156,682.976563C880.922546,682.365723,881.531494,681.725952,882.109375,681.058594C883.678528,679.347168,885.297852,677.682617,886.964844,676.066406C887.328186,675.743774,887.716064,675.450012,888.125,675.1875C888.965088,674.535095,889.761108,673.82782,890.507813,673.070313C891.173828,672.4328,891.840576,671.799744,892.511719,671.167969C892.738464,670.704346,892.97583,670.246216,893.222656,669.792969C893.397522,669.49823,893.599548,669.220215,893.828125,668.964844L893.71875,668.609375C895.366699,667.088135,896.985413,665.53595,898.574219,663.953125C900.218933,662.347473,902.022217,660.912659,903.957031,659.671875C905.358154,658.816711,906.87085,658.159607,908.453125,657.722656C910.041687,657.338257,911.687195,657.247253,913.308594,657.453125C914.950073,657.617798,916.538086,658.128784,917.964844,658.957031C919.697632,660.017212,921.052856,661.596008,921.839844,663.46875C922.626892,665.231689,923.117004,667.112549,923.292969,669.035156C923.361816,669.633545,923.410156,670.234192,923.4375,670.835938C923.550537,671.742676,923.920227,672.597717,924.503906,673.300781C925.252686,672.630066,925.963379,671.917908,926.632813,671.167969C928.875,669.464661,931.091919,667.730835,933.285156,665.964844C935.989868,663.169495,938.765869,660.442993,941.609375,657.789063C941.919556,657.525085,942.239746,657.273132,942.570313,657.035156C944.584106,655.553711,946.692749,654.20575,948.882813,653C950.631592,651.96936,952.460449,651.081299,954.351563,650.34375C954.788574,650.208679,955.24762,650.157898,955.703125,650.199219C957.114868,650.200134,958.508789,650.514038,959.785156,651.117188C961.258484,651.884216,962.33606,653.241943,962.746094,654.851563C963.437805,657.179138,963.377625,659.665649,962.574219,661.957031C962.092896,663.235107,961.398254,664.422729,960.515625,665.464844C960.13269,665.938293,959.72467,666.390869,959.292969,666.820313C959.206848,667.317688,959.151245,667.819946,959.128906,668.324219C961.346558,666.300537,963.564575,664.295532,965.800781,662.292969L967.828125,660.535156C969.66571,658.960266,971.766602,657.721924,974.035156,656.878906C975.388062,656.397339,976.807007,656.127563,978.242188,656.078125C978.739929,656.06488,979.238098,656.077026,979.734375,656.117188C981.359985,656.242065,982.983643,656.387878,984.605469,656.554688C985.581299,656.635803,986.559875,656.679565,987.539063,656.6875C990.40094,656.813965,993.059937,658.201538,994.800781,660.476563C995.818787,661.730774,996.633118,663.137573,997.214844,664.644531C997.931946,666.358215,998.476196,668.139221,998.839844,669.960938C999.002991,670.754517,999.156738,671.550415,999.300781,672.347656C999.546265,673.272095,1000.054626,674.105896,1000.761719,674.75C1002.173462,673.312256,1003.588379,671.886963,1005.015625,670.464844C1005.288269,670.200684,1005.562805,669.939209,1005.839844,669.679688L1005.375,668.609375C1006.000793,667.959229,1006.640259,667.322266,1007.292969,666.699219C1008.027283,666.027222,1008.81073,665.41095,1009.636719,664.855469C1015.49115,660.760376,1021.002808,656.195801,1026.117188,651.207031C1029.217285,648.131836,1032.026123,644.776489,1034.507813,641.183594C1035.142822,640.236084,1035.751343,639.270813,1036.332031,638.289063C1040.426758,631.501587,1044.668457,624.800537,1049.050781,618.195313C1049.90918,616.88031,1050.82959,615.606812,1051.808594,614.378906L687.550781,614.378906z"/>
    <path transform="matrix(-1,0,0,-1,3.669189,34.713318)" style="stroke:#000000;stroke-width:0.05mm;fill:none" d="M785.632813,663.847656C782.671265,663.982178,779.842712,665.11676,777.609375,667.066406C775.757996,668.642029,774.150757,670.483826,772.839844,672.53125C771.979126,673.549561,771.127808,674.571167,770.28125,675.601563C769.765015,676.043213,769.383179,676.619995,769.171875,677.265625C768.836731,678.201416,768.552551,679.154602,768.320313,680.121094L766.785156,684.980469C767.217529,686.515747,767.769226,688.014832,768.433594,689.464844C768.650513,689.888367,768.92804,690.278076,769.257813,690.621094C769.399841,690.753052,769.56073,690.863892,769.738281,690.941406C769.909546,691.029053,770.093506,691.08728,770.28125,691.128906C772.047852,691.563293,773.84259,691.873779,775.652344,692.058594C775.888672,691.966614,776.11438,691.848816,776.316406,691.695313C777.160645,690.967834,777.885071,690.111938,778.464844,689.160156C779.347717,687.721191,780.258118,686.298645,781.195313,684.894531C782.302307,683.673035,783.780579,682.850403,785.402344,682.554688L785.84375,682.464844C786.184326,682.321228,786.487976,682.102783,786.726563,681.820313C787.306458,681.108582,787.775879,680.313904,788.125,679.464844C788.572632,678.426819,788.964233,677.36554,789.296875,676.285156C790.064392,674.256714,790.63147,672.158081,790.992188,670.019531C791.124573,669.022095,791.105408,668.010254,790.929688,667.019531C790.829285,666.538025,790.648865,666.076355,790.386719,665.660156L790.101563,665.257813C789.600891,664.677429,788.931519,664.269897,788.1875,664.085938C787.356445,663.857544,786.49176,663.77594,785.632813,663.847656z"/>
    <path transform="matrix(-1,0,0,-1,3.669189,34.713318)" style="stroke:#000000;stroke-width:0.05mm;fill:none" d="M369.667969,614.378906L422.386719,667.082031L432.617188,667.082031C434.783203,666.992798,436.950134,667.235535,439.042969,667.800781C440.612915,668.290588,442.05777,669.115479,443.277344,670.21875L445.09375,671.921875C445.776611,670.292847,446.464722,668.66394,447.15625,667.039063C447.976227,665.190308,449.016724,663.44751,450.253906,661.847656C451.018463,660.91626,451.975983,660.161987,453.058594,659.632813C454.819275,658.870239,456.8638,659.203674,458.289063,660.488281C459.242798,661.289063,460.03183,662.267822,460.609375,663.371094C461.568573,665.080444,462.335266,666.89093,462.894531,668.769531C463.072998,669.290649,463.226624,669.819946,463.355469,670.355469C464.100586,672.888489,464.688965,675.464966,465.117188,678.070313L465.285156,678.945313C467.300537,666.128052,469.19165,653.287476,470.957031,640.433594C472.184082,631.773682,473.457031,623.028564,474.75,614.378906L369.667969,614.378906z"/>
    <path transform="matrix(-1,0,0,-1,50.200996,-131.305908)" style="stroke:#ff0000;stroke-width:0.05mm;fill:none" d="M1016.808716,574.952759C1016.63269,575.741028,1016.460876,576.529724,1016.29303,577.320313L1016.890625,577.660156C1017.797302,576.809021,1018.668884,575.922424,1019.503296,575.002625"/>
    <path transform="matrix(-1,0,0,-1,50.200996,-131.305908)" style="stroke:#ff0000;stroke-width:0.05mm;fill:none" d="M1192.84375,575.050781C1192.684082,575.47406,1192.450195,575.866211,1192.148438,576.203125C1191.334717,577.191162,1190.459229,578.126587,1189.527344,579.003906C1188.423584,580.052673,1187.420898,581.203003,1186.535156,582.441406L1186.363281,582.726563C1185.425659,582.817993,1184.511353,583.072876,1183.660156,583.476563C1183.384888,583.645935,1183.156738,583.880432,1182.988281,584.15625C1182.929688,584.284058,1182.887939,584.418823,1182.871094,584.558594C1182.87207,584.700073,1182.887085,584.841187,1182.929688,584.976563"/>
    <path transform="matrix(-1,0,0,-1,50.200996,-131.305908)" style="stroke:#ff0000;stroke-width:0.05mm;fill:none" d="M1162.473267,574.980774C1165.665283,576.61554,1170.656616,579.199707,1173.785156,580.953125L1174.953125,581.582031C1175.543213,579.400391,1176.118408,577.214905,1176.678589,575.025696"/>
    <path transform="matrix(-1,0,0,-1,50.200996,-131.305908)" style="stroke:#ff0000;stroke-width:0.05mm;fill:none" d="M1005.338318,585.085999C1005.466064,584.66217,1005.612427,584.243774,1005.777283,583.832031C1006.103882,582.860962,1006.353577,581.865784,1006.523376,580.855469C1006.60907,580.277344,1006.65387,579.693848,1006.656311,579.109375C1006.718201,578.63385,1006.863892,578.173157,1007.08197,577.746094L1006.996094,576.550781C1007.170593,576.004456,1007.354553,575.461304,1007.547852,574.92157"/>
    <path transform="matrix(-1,0,0,-1,50.200996,-131.305908)" style="stroke:#ff0000;stroke-width:0.05mm;fill:none" d="M1146.000732,584.97229C1144.11145,583.59314,1142.285034,582.128357,1140.527344,580.582031C1138.209473,578.51709,1136.981201,577.454651,1135.106079,574.980774"/>
    <path transform="matrix(-1,0,0,-1,50.200996,-131.305908)" style="stroke:#ff0000;stroke-width:0.05mm;fill:none" d="M1033.637573,574.963196C1032.575806,577.848206,1031.336304,580.665344,1029.925781,583.398438C1029.664063,583.924683,1029.398926,584.449158,1029.130249,584.971802"/>
    <path transform="matrix(-1,0,0,-1,50.200996,-131.305908)" style="stroke:#ff0000;stroke-width:0.05mm;fill:none" d="M1098.318115,448.366913C1098.891724,447.63501,1099.483765,446.917419,1100.09375,446.214844C1102.327271,443.51358,1104.839844,441.055969,1107.589844,438.882813C1107.838379,438.693024,1108.09021,438.507965,1108.345337,438.327698"/>
    <path transform="matrix(-1,0,0,-1,50.200996,-131.305908)" style="stroke:#ff0000;stroke-width:0.05mm;fill:none" d="M1122.20105,438.358246C1122.147949,438.81839,1122.036255,439.27179,1121.867188,439.707031C1121.517456,440.756439,1120.980835,441.733765,1120.285156,442.59375C1119.205322,444.129883,1118.21167,445.724823,1117.308594,447.371094L1116.189087,448.34613"/>
    <path transform="matrix(-1,0,0,-1,50.200996,-131.305908)" style="stroke:#ff0000;stroke-width:0.05mm;fill:none" d="M549.889954,574.943542C549.672974,577.539978,549.445313,580.135559,549.207031,582.730469L548.964844,584.96875C548.96283,584.985779,548.959473,585.002563,548.957031,585.019531"/>
    <path transform="matrix(-1,0,0,-1,50.200996,-131.305908)" style="stroke:#ff0000;stroke-width:0.05mm;fill:none" d="M535.246094,584.617188C535.237976,584.592285,535.240356,584.568115,535.234375,584.542969L534.992188,581.667969L534.992188,581.644531L534.78125,578.769531L534.78125,578.71875C534.704773,577.455078,534.62915,576.191589,534.554321,574.928284"/>
    <path transform="matrix(-1,0,0,-1,50.200996,-131.305908)" style="stroke:#ff0000;stroke-width:0.05mm;fill:none" d="M731.777344,584.566406L731.769531,584.53125C731.599121,582.611084,731.189392,576.903809,731.055237,574.980774"/>
    <path transform="matrix(-1,0,0,-1,50.200996,-131.305908)" style="stroke:#ff0000;stroke-width:0.05mm;fill:none" d="M746.387268,574.980774C746.243958,576.521667,745.806519,581.193726,745.407715,585.00592"/>
    <path transform="matrix(-1,0,0,-1,50.200996,-131.305908)" style="stroke:#ff0000;stroke-width:0.05mm;fill:none" d="M717.816589,448.487885C718.31073,445.18454,718.810669,441.882538,719.316162,438.582642L733.380554,438.355103C733.640076,441.63446,733.885071,444.914429,734.115601,448.195313"/>
    <path transform="matrix(-1,0,0,-1,50.200996,-131.305908)" style="stroke:#ff0000;stroke-width:0.05mm;fill:none" d="M521.30365,448.376038C521.802063,445.033295,522.304932,441.691956,522.812195,438.352966"/>
    <path transform="matrix(-1,0,0,-1,50.200996,-131.305908)" style="stroke:#ff0000;stroke-width:0.05mm;fill:none" d="M536.846191,438.36261C537.112854,441.712738,537.363892,445.063965,537.599243,448.416229"/>
    <path transform="matrix(-1,0,0,-1,50.200996,-131.305908)" style="stroke:#ff0000;stroke-width:0.05mm;fill:none" d="M406.384705,438.461914L416.361298,448.435547"/>
    <path transform="matrix(-1,0,0,-1,50.200996,-131.305908)" style="stroke:#ff0000;stroke-width:0.05mm;fill:none" d="M363.779236,448.456665L373.864441,438.375366"/>
    <path transform="matrix(-1,0,0,-1,50.200996,-131.305908)" style="stroke:#ff0000;stroke-width:0.05mm;fill:none" d="M474.761536,574.889038C472.949402,577.187988,470.931427,579.36676,468.710938,581.398438C467.359772,582.643433,465.958374,583.809143,464.513123,584.894897"/>
    <path transform="matrix(-1,0,0,-1,50.200996,-131.305908)" style="stroke:#ff0000;stroke-width:0.05mm;fill:none" d="M399.557495,584.971741C396.174927,582.459595,393.005096,579.668091,390.082031,576.625C387.18988,579.735474,384.010712,582.553894,380.5914,585.045166"/>
    <path transform="matrix(-1,0,0,-1,50.200996,-131.305908)" style="stroke:#ff0000;stroke-width:0.05mm;fill:none" d="M315.871277,585.03064C311.999878,582.168457,308.477478,578.770691,305.428223,574.882446"/>
</svg>
