<?xml version="1.0" encoding="UTF-8"?>
<svg xmlns="http://www.w3.org/2000/svg" width="255.292mm" height="192.561mm" viewBox="-814.661255 -342.229614 255.292236 192.561172">
    <path transform="matrix(-1,0,0,-1,0,0)" style="stroke:none;fill:#000000;fill-rule:evenodd" d="M608.21875,341.511963C606.102417,340.493286,604.778015,338.956299,601.790405,334.051575C598.481323,328.619141,594.755127,318.927246,592.890686,310.903412C592.654053,309.884888,592.294434,308.33728,592.091614,307.464264C590.851807,302.127747,590.928589,295.514648,592.308167,288.813477C593.369812,283.656433,594.63501,281.901184,598.695923,279.951691C602.884155,277.941101,604.123047,276.14325,604.250488,271.89093C604.406738,266.677856,601.893127,260.361542,597.667114,255.347855C595.657471,252.963654,595.032959,252.46315,591.155212,250.129105C585.882813,246.955551,585.182983,247.02269,585.984253,250.625183C586.206055,251.622116,586.562439,253.544525,586.776367,254.897202C587.387024,258.759033,586.636963,260.118591,583.730347,260.418579C581.550049,260.643616,580.458191,260.088196,579.649475,258.342651C578.88916,256.701599,578.953491,256.252228,580.27832,253.952057C582.011353,250.943039,582.159729,250.595657,582.160095,249.545258C582.160461,248.649506,581.985107,248.33548,580.901001,247.290527C579.518738,245.958237,577.470154,245.020966,576.482361,245.26889C575.403259,245.539719,574.306641,246.686584,573.20166,248.69989C571.844604,251.172531,571.173767,251.633591,568.924438,251.639572C566.904724,251.644928,565.170044,250.98233,564.741455,250.041794C564.344482,249.170532,565.005188,247.05835,565.950623,246.176376C566.996887,245.200272,567.560913,244.956848,570.413025,244.250366C573.561462,243.47049,574.223999,242.939758,574.223999,241.1978C574.223999,238.42627,571.504822,237.6931,567.805481,239.467178C566.710815,239.992126,565.267456,240.453918,564.435669,240.545319C563.175476,240.683777,562.785767,240.605087,561.525635,239.957733C559.831177,239.087311,559.354187,238.297455,559.369019,236.386414C559.380737,234.872162,559.852356,234.000458,561.077026,233.229614C562.245728,232.493942,563.778503,232.702179,566.865234,234.015976C568.225647,234.594971,569.634277,235.140045,569.995605,235.22728C572.102417,235.73584,574.703125,231.264984,574.117188,228.141907C573.918762,227.084122,572.636108,225.696289,570.652588,224.393311C568.133728,222.738617,567.081177,221.135834,567.081177,218.955002C567.081177,217.299805,568.140625,215.153687,569.237793,214.586304C570.941223,213.705444,574.667725,214.613861,575.678406,216.156326C576.276184,217.068665,576.817871,219.201874,577.12616,221.857559C577.417114,224.364258,577.845764,225.048126,579.647278,225.879593C580.981201,226.495239,584.984314,226.5746,586.081604,226.007172C586.559021,225.7603,587.056335,225.069031,587.556641,223.956909C589.364746,219.937592,590.484619,217.855621,591.0979,217.37323C591.629578,216.955002,592.172607,216.855789,593.930298,216.855789L596.104919,216.855789L597.466064,218.294983C598.822754,219.729462,598.827209,219.739899,598.827209,221.486847L598.827209,223.239502L597.438293,224.612686C596.646973,225.395096,595.289734,226.352097,594.283569,226.837128C591.437988,228.208923,591.315369,228.718994,593.029358,232.054443C593.481628,232.934601,594.091614,234.292404,594.384888,235.071777C594.877502,236.381134,595.031433,236.538574,596.409668,237.143127C601.638611,239.436844,602.848694,239.901154,603.391174,239.821899C603.831909,239.757507,604.483398,238.693466,606.3573,234.977478C608.978882,229.779053,610.763,226.613983,611.651367,225.585953C611.965698,225.222198,612.443298,224.567429,612.712708,224.13092C614.110229,221.866394,618.439392,217.266296,620.917114,215.412994C627.910034,210.182465,633.285156,207.975235,642.477966,206.559357C643.423767,206.413681,647.590454,206.217896,651.737244,206.124268C656.193604,206.023651,659.41217,205.843872,659.607605,205.684692C659.78949,205.536545,659.938293,205.249542,659.938293,205.046875C659.938293,204.300293,657.775818,199.221924,656.912231,197.940445C655.789185,196.274033,653.5802,191.840424,652.79895,189.684814C652.291992,188.28598,652.220642,187.659378,652.316956,185.451996C652.440735,182.615295,652.902832,181.347824,654.292358,180.033783C655.450073,178.938965,658.784912,177.48349,660.864258,177.165497C661.882751,177.00972,663.787476,176.711563,665.097046,176.502914C666.406555,176.294266,668.608948,175.999313,669.991211,175.847458C673.006348,175.516205,673.201294,175.457077,673.000793,174.934586C672.875977,174.609344,672.357056,174.52774,670.413452,174.52774L667.982178,174.52774L667.008057,173.530182C666.472351,172.981506,665.961487,172.170105,665.872864,171.727066C665.441101,169.568115,667.195618,167.120346,669.174927,167.120346C670.154785,167.120346,670.613281,167.322281,675.149963,169.752151C676.998047,170.742004,678.322815,170.747925,679.899658,169.773376C680.832214,169.197021,682.160522,167.093292,682.160522,166.192673C682.160522,165.464951,681.130676,163.725464,680.407532,163.231705C679.131531,162.360504,676.823608,160.126984,676.447144,159.398987C675.914612,158.369141,675.984497,156.559113,676.595581,155.556946C677.146729,154.653046,678.851746,153.628281,679.804504,153.628281C681.159546,153.628281,682.48822,154.264297,683.08844,155.200272C683.5896,155.981857,683.713989,156.617142,683.821655,158.945786C683.893005,160.488129,684.098999,162.035767,684.27948,162.384933C685.368896,164.492752,687.117615,164.861664,688.668457,163.310822C689.469788,162.509506,689.567261,162.256882,689.561646,160.996002C689.557739,160.10759,689.311951,158.989716,688.901489,157.993362C688.412903,156.807281,688.247314,155.921417,688.246399,154.488831C688.245239,152.649017,688.285278,152.526169,689.237244,151.446503C690.627441,149.869858,690.910767,149.677979,691.862427,149.668442C692.876953,149.658264,694.090576,150.60556,694.695068,151.879471C695.352844,153.265625,695.25708,155.976624,694.480652,157.948242C693.589844,160.210419,693.205627,161.794846,693.3797,162.488449C693.598755,163.361374,695.713867,165.187256,696.881531,165.51149C699.435547,166.220673,700.730103,165.719421,703.721375,162.863007C706.233398,160.464264,707.096375,159.977478,708.837097,159.977478C710.584229,159.977478,712.450684,161.194611,713.368713,162.932648L714.021362,164.168243L713.392456,165.710434C712.004822,169.113403,711.154419,169.573624,706.187988,169.609406C702.222717,169.63797,701.834839,169.820953,700.488098,172.298447C699.745728,173.664093,699.634766,174.123291,699.628296,175.857773C699.623108,177.238556,699.746582,178.028748,700.031006,178.434799C700.256592,178.756882,701.476868,179.630798,702.742676,180.376831C705.072632,181.750061,707.159485,183.442261,707.746399,184.434357C708.18634,185.17804,708.166748,187.315491,707.709961,188.408737C707.292114,189.408798,705.628784,190.739517,704.212341,191.207001C702.882019,191.646042,701.599121,191.306824,700.356323,190.187408C699.068054,189.027008,698.443726,187.723969,698.027954,185.327667C697.836731,184.2258,697.530579,183.388702,697.213989,183.102203C696.742249,182.675262,696.608887,182.672089,695.319763,183.057266C690.394348,184.5289,685.068359,187.078186,682.756592,189.070618C680.135803,191.329376,680.044128,191.42746,680.044128,191.973236C680.044128,192.330124,680.398743,192.687332,681.116699,193.053589C684.832764,194.949402,690.700378,200.379517,694.258545,205.215576C696.163208,207.80426,696.858398,208.305969,699.356323,208.894592C705.812378,210.415939,713.127747,214.142273,719.747375,219.281509C720.559021,219.911652,721.86853,220.930206,722.657471,221.544952C723.446289,222.159698,724.673096,223.112091,725.383667,223.661362C726.094177,224.210632,727.060486,225.017181,727.530945,225.453674C728.001465,225.890182,729.013184,226.723511,729.779297,227.305527C730.54541,227.887543,731.841064,228.939667,732.658447,229.643585C737.016785,233.396729,748.422363,241.501312,753.456848,244.422455C765.458496,251.386185,771.920349,252.560303,781.102295,249.445679C787.144653,247.396057,792.375854,244.232666,796.471069,240.152039C802.722839,233.922546,805.814575,227.518311,808.512878,215.20874C810.363037,206.768219,810.994141,203.240997,810.995483,201.332367C810.996155,200.440765,811.141663,199.8172,811.412231,199.546661C812.542358,198.416519,813.26709,199.53183,813.462708,202.702362C813.543518,204.011871,813.862671,206.171402,814.171936,207.501282C814.688538,209.722839,814.723694,210.453583,814.604858,216.496002C814.434326,225.168427,814.013672,228.509064,812.556396,232.765457C810.580933,238.53537,805.121094,246.188293,800.373596,249.841888C796.479614,252.838593,795.242676,253.721954,793.763062,254.562698C792.838013,255.088364,791.697449,255.757019,791.228455,256.048615C790.75946,256.34021,789.807068,256.799866,789.112061,257.070068C788.416992,257.340271,786.755737,257.985016,785.420349,258.502869C784.084961,259.020752,781.363159,259.862,779.371948,260.372345L775.751526,261.300232L769.485718,261.300232C761.806641,261.300232,760.046448,261.011475,751.60498,258.366669C745.783081,256.542633,737.849731,252.689743,730.440918,248.088135C729.422424,247.455521,727.398621,246.225342,725.943604,245.35437C724.488586,244.483414,723.000488,243.568878,722.636719,243.322083C722.272949,243.075287,721.201538,242.43187,720.255737,241.892288C719.309998,241.352692,716.988586,239.958908,715.097046,238.794983C710.506287,235.970169,706.821411,233.999023,704.250488,232.992874C700.159973,231.392029,698.133118,231.067383,696.736938,231.789368C695.799316,232.2742,694.526611,233.71347,694.138916,234.727295C692.735413,238.39743,692.261841,239.510773,691.219238,241.591248C688.928589,246.162109,685.880615,249.941879,682.066589,252.941391C677.378052,256.628662,676.456482,258.156738,677.258179,260.91449C677.625061,262.176422,677.989563,262.730927,679.251343,263.946594C681.171387,265.796387,684.056763,267.750366,685.508057,268.183563C686.926758,268.607056,688.400024,268.336365,688.837219,267.57193C689.036438,267.223572,689.173706,266.02771,689.17749,264.607117C689.188843,260.401031,690.085327,258.679871,692.379456,258.459442C693.623962,258.339844,693.75,258.385742,694.445251,259.212036C695.10553,259.996704,695.17041,260.240112,695.044495,261.459869C694.912964,262.734467,693.963623,264.708557,693.278564,265.131927C692.806885,265.423462,691.948853,267.323364,691.948853,268.076355C691.948853,268.880371,693.570496,270.554932,694.870605,271.093445C696.071533,271.590881,696.894897,271.208313,698.895752,269.223267L700.748779,267.384888L702.536438,267.384888C704.88739,267.384888,705.573242,267.88266,705.573242,269.588867C705.573242,270.493195,705.413391,270.954834,704.911865,271.499023C704.021118,272.465424,702.370178,273.192108,701.049194,273.199188C699.017029,273.210083,697.239868,274.112122,697.239868,275.132751C697.239868,275.42041,697.494324,276.067505,697.805359,276.570679C698.434326,277.58844,698.249634,277.583374,701.551941,276.673767C703.473022,276.144623,703.71698,276.131958,705.088196,276.490051C706.733704,276.919739,707.631104,277.626648,708.376709,279.080688C709.106812,280.504272,709.025757,281.266296,708.072144,281.945313C707.379028,282.438904,706.993774,282.505676,705.360535,282.415283C703.824951,282.330322,703.076233,282.12027,701.488586,281.328918C699.233887,280.205078,698.808228,280.152924,697.664063,280.860046C696.520752,281.56665,695.803467,282.614471,695.309509,284.2995C694.684753,286.430756,695.10791,287.268463,697.307861,288.255524C699.408203,289.197876,700.014587,290.025452,700.016357,291.952179C700.017578,293.301575,699.959167,293.423309,698.827209,294.429718C697.357788,295.736145,696.800171,295.956329,694.961365,295.956329C692.46637,295.956329,691.75769,294.650604,692.014954,290.527374C692.209045,287.41626,691.76001,286.472809,689.712097,285.689148C688.076538,285.063232,686.258362,284.941528,685.270264,285.391754C684.92981,285.546844,684.073853,286.62204,683.368042,287.781067C682.662231,288.940125,681.74115,290.177521,681.321167,290.530884C679.785583,291.822998,677.430542,291.715637,675.866333,290.282227C674.999817,289.488098,674.904846,289.266052,674.89563,288.012695C674.88855,287.052368,674.762878,286.560608,674.488586,286.420074C673.95105,286.144714,668.247864,285.660034,667.585022,285.833374C666.887939,286.015656,665.758423,288.274597,665.758423,289.486389C665.758423,290.937195,666.794861,291.80304,669.530334,292.637421C671.404236,293.208984,671.962708,293.511414,672.74646,294.378906C673.747437,295.486877,673.971252,296.558777,673.364258,297.337769C672.839905,298.010559,671.24353,298.864838,670.520325,298.859558C669.346375,298.851013,667.772644,297.922668,666.948914,296.752747C665.602051,294.839966,664.126465,293.310822,663.627502,293.310822C662.979614,293.310822,662.054688,294.545898,662.054688,295.411102C662.054688,295.7995,662.430542,296.706055,662.889893,297.42569C664.000977,299.16626,664.435669,300.692993,664.435669,302.855042C664.435669,305.016754,664.290588,305.447815,663.456299,305.764984C662.529968,306.117188,661.980408,305.720947,660.959839,303.964996C659.647339,301.706848,659.451477,301.052368,659.429321,298.8508C659.41748,297.676666,659.272705,296.680969,659.078491,296.438965C658.734314,296.01001,656.246216,295.427216,654.758972,295.427216C653.73938,295.427216,652.67981,296.518524,652.38916,297.867981C652.001221,299.66922,650.731079,301.450958,649.303284,302.196899C648.358521,302.69046,645.666077,302.682373,644.954285,302.183777C644.036377,301.540863,643.694214,300.387634,644.077148,299.227356C644.567383,297.741882,646.515747,295.799072,648.014465,295.30127C650.77002,294.386017,651.900696,291.81897,650.706482,289.189514C650.15686,287.979309,649.082947,287.017273,648.056702,286.815613C647.680237,286.741638,646.557312,286.436096,645.561401,286.136658C642.735779,285.287048,640.650024,283.103912,641.026489,281.389954C641.302979,280.131104,642.294373,279.554199,644.181274,279.554199C646.262878,279.554199,648.149231,280.450226,649.475769,282.069092C650.053284,282.773865,650.57782,283.178619,650.802124,283.092529C651.006226,283.014221,651.375549,282.091858,651.622864,281.042847C652.041565,279.266785,652.04248,279.077454,651.635864,278.291168C651.395691,277.826721,650.87384,277.281555,650.476135,277.07959C649.337097,276.50116,645.211792,275.849365,642.693604,275.849976C641.429932,275.850281,640.072266,275.727417,639.676636,275.576996C638.788757,275.23941,635.352478,275.934265,634.501343,276.623474C633.94635,277.072876,633.945801,277.085236,634.43457,278.117004C634.705627,278.689209,635.677734,279.8974,636.59491,280.801849C640.026611,284.186096,641.051147,286.022797,641.485779,289.570007C642.237915,295.70813,641.650146,301.539764,639.44165,309.851563C636.30188,321.667969,625.776062,338.657013,619.921936,341.356995C618.354492,342.079926,618.059082,342.122131,614.038818,342.197083C609.840698,342.275391,609.79303,342.269745,608.21875,341.511963M648.827209,298.724792C648.827209,298.511658,648.663208,298.33728,648.462769,298.33728C647.973999,298.33728,647.41626,299.038757,647.630005,299.384613C647.865295,299.76532,648.827209,299.235199,648.827209,298.724792M692.204102,156.026627C692.938354,154.654663,692.216003,152.605316,691.315552,153.505768C690.624023,154.197266,690.908752,156.53833,691.684326,156.53833C691.81958,156.53833,692.053467,156.30806,692.204102,156.026627M570.036499,248.428543C570.729431,247.801483,570.640808,247.279068,569.841553,247.279068C568.875549,247.279068,568.139343,247.740753,568.139343,248.346588C568.139343,249.010178,569.33667,249.061905,570.036499,248.428543M671.247803,171.980057C672.037781,171.768356,672.000122,171.250549,671.145996,170.578705C670.280212,169.897675,669.300537,169.872772,668.952576,170.522949C668.41626,171.525055,669.760742,172.378586,671.247803,171.980057M681.056824,158.800781C681.188782,157.677353,680.896118,156.857056,680.295349,156.666382C678.989197,156.251816,678.535461,157.96376,679.654785,159.08313C680.462402,159.890747,680.940125,159.79454,681.056824,158.800781M680.165466,287.719971C681.080444,286.632629,680.956177,286.023193,679.830078,286.075348C678.185059,286.15155,677.13031,287.381165,677.980652,288.231445C678.539612,288.790405,679.442688,288.579041,680.165466,287.719971M696.657898,292.728821C697.450134,291.936523,696.576904,290.400757,695.334229,290.400757C694.786377,290.400757,694.461426,291.42218,694.703003,292.384888C694.830322,292.892029,695.040588,293.046265,695.604736,293.046265C696.009338,293.046265,696.483276,292.903412,696.657898,292.728821M583.959473,257.279053C584.556702,256.681885,584.180786,254.421936,583.484253,254.421936C582.955261,254.421936,582.160522,255.616592,582.160522,256.411865C582.160522,256.869446,582.239868,257.323181,582.336914,257.420166C582.624329,257.707611,583.617249,257.621277,583.959473,257.279053M601.78894,323.552338C603.233276,322.168518,602.515442,320.294952,600.540833,320.294952C599.082458,320.294952,598.681213,321.371735,599.525513,323.019714C600.269348,324.471741,600.718872,324.577515,601.78894,323.552338M564.925293,237.72937C566.011963,237.350571,566.022156,236.582489,564.947937,236.026978C564.502136,235.796448,563.758118,235.644592,563.294495,235.689484C562.554443,235.761169,562.451538,235.867065,562.451538,236.556976C562.451538,237.129608,562.630981,237.433594,563.112915,237.677414C563.922546,238.087036,563.901062,238.086426,564.925293,237.72937M633.424438,262.740265C634.532043,261.964417,633.982727,258.916229,632.673584,258.573883C631.189697,258.185852,630.086121,259.755859,630.572693,261.562805C630.957397,262.991455,632.283813,263.539124,633.424438,262.740265M593.134338,224.266052C595.729126,222.781494,596.602783,221.259369,595.454163,220.224289C594.042358,218.951965,592.613525,219.666382,591.387634,222.257584C590.016602,225.155701,590.535828,225.752777,593.134338,224.266052M632.94519,290.543884C633.685364,289.651978,632.208435,287.182922,630.709717,286.806763C629.749451,286.565735,628.985901,287.114868,628.985901,288.046509C628.985901,289.128601,629.38446,289.799774,630.391724,290.41394C631.392273,291.024017,632.499939,291.080383,632.94519,290.543884M712.050903,226.910736C712.73999,226.541946,713.226746,224.970184,712.862549,224.289719C712.156128,222.969803,709.962219,222.436249,709.418518,223.452148C708.970581,224.289108,709.100769,225.723328,709.692993,226.476196C710.268799,227.208298,711.180847,227.376373,712.050903,226.910736M789.742737,253.645538C790.93573,252.918091,791.060791,252.245499,790.257874,250.875412C789.467957,249.527451,788.955566,249.329285,787.62854,249.858566C786.560303,250.284637,786.215454,251.021774,786.514832,252.239395C786.986572,254.15799,788.104004,254.644775,789.742737,253.645538M675.332886,255.342361C675.71814,254.496811,675.103516,253.553253,673.701599,252.838043C672.305725,252.125916,671.190979,252.146286,670.667603,252.893494C669.72876,254.233841,670.382996,255.246277,672.693298,256.028381C674.240356,256.552124,674.85437,256.392517,675.332886,255.342361M783.284058,256.299225C784.679077,255.768875,784.82666,254.67218,783.742859,252.890076C783.126099,251.875931,782.208801,251.771591,780.903931,252.567169C779.972961,253.134796,779.897339,253.467163,780.331177,255.083313C780.785095,256.774323,781.384888,257.021301,783.284058,256.299225M709.087708,166.571442C710.606018,166.042175,711.186401,164.400177,710.202881,163.416641C709.192993,162.406769,707.575562,162.893066,705.771606,164.748932C705.298767,165.235443,704.911865,165.793289,704.911865,165.988617C704.911865,166.764252,707.49884,167.125336,709.087708,166.571442M737.083923,247.870255C737.557373,247.557037,738.245178,246.039444,738.245178,245.308075C738.245178,244.937103,737.996765,244.385162,737.693176,244.081543C736.982544,243.370972,736.041687,243.578491,734.872192,244.703766C733.616211,245.91217,733.727234,246.886185,735.208862,247.658768C736.069153,248.107346,736.630005,248.170593,737.083923,247.870255M574.223999,221.66571C574.223999,220.158203,573.49646,217.990295,572.835083,217.527039C570.954651,216.20993,569.258667,218.111023,570.379883,220.279205C570.874512,221.235718,572.818359,222.675903,573.614746,222.675903C574.144348,222.675903,574.223999,222.543823,574.223999,221.66571M689.677429,274.154083C690.759827,272.218567,690.839478,271.628235,690.107666,270.965942C689.53949,270.451721,688.585022,270.554504,687.5177,271.244873C687.013916,271.570679,686.922424,271.863953,686.922424,273.152222C686.922424,274.819397,687.424927,275.850525,688.237427,275.850525C688.566406,275.850525,689.042114,275.290131,689.677429,274.154083M670.202881,266.273773C671.158508,265.318115,669.985718,263.892212,667.15155,262.564087C664.527954,261.334625,664.068665,261.346375,663.959473,262.64566C663.848206,263.968811,664.455933,264.582764,666.948914,265.665527C669.253967,266.666748,669.722351,266.754272,670.202881,266.273773M777.452576,257.595642C777.935913,256.998718,777.91687,256.646118,777.29541,254.686478C777.037537,253.873306,776.882324,253.750641,776.020935,253.679108C774.453125,253.54895,774.058533,253.914886,773.877686,255.666611C773.651184,257.861725,774.106506,258.502045,775.761414,258.315521C776.583984,258.222809,777.134399,257.988525,777.452576,257.595642M704.647339,187.755264C705.733826,186.668762,705.047791,185.158539,702.828491,183.751083C702.171326,183.334335,701.402222,182.993347,701.119324,182.993347C700.655579,182.993347,700.619446,183.133041,700.751709,184.414627C700.905029,185.90033,701.746277,187.873962,702.325439,188.106796C703.087524,188.413208,704.150269,188.252319,704.647339,187.755264M770.633667,257.974487C771.272095,257.33609,771.197754,254.834839,770.520325,254.157379C769.962646,253.599716,768.563721,253.451614,767.888489,253.878769C767.373169,254.204819,767.155273,257.445129,767.611755,257.995117C768.055359,258.529663,770.092407,258.515747,770.633667,257.974487M695.002136,279.182129C695.474487,278.8367,695.485291,278.718109,695.152588,277.528687C694.955383,276.823914,694.703857,275.791321,694.593628,275.233978C694.348145,273.993469,694.015991,273.630127,693.327148,273.848755C692.828491,274.007019,691.684326,276.177429,691.684326,276.965027C691.684326,277.529114,692.467896,278.497498,693.368652,279.046753C694.361389,279.65213,694.359558,279.651978,695.002136,279.182129M727.221741,233.146378C729.10083,231.055099,729.338135,230.360031,728.397949,229.701477C727.466309,229.048904,726.70752,229.193436,726.046387,230.149445C725.719299,230.62233,724.937378,231.569611,724.308777,232.254517C722.715515,233.990417,722.841125,235.109772,724.62915,235.109772C725.324402,235.109772,725.741028,234.79425,727.221741,233.146378M764.065491,258.187714C764.225647,258.080811,764.425537,256.903015,764.509705,255.570313C764.640015,253.507202,764.596741,253.089401,764.218506,252.75769C763.598511,252.213974,762.658081,251.964981,761.922241,252.149658C761.309448,252.303467,761.300598,252.352295,761.401245,255.013016C761.483887,257.196381,761.592346,257.784729,761.962036,258.055054C762.464294,258.422302,763.60614,258.494324,764.065491,258.187714M670.802246,192.507858C671.519348,192.124084,671.442505,191.249023,670.520508,189.300171C670.048218,188.301788,669.72699,187.191772,669.726868,186.55751C669.726563,185.109161,669.13147,184.316101,668.044983,184.316101C666.375061,184.316101,666.161133,185.256012,667.245361,187.829376C667.626648,188.734375,668.094604,189.99205,668.285156,190.624207C668.858521,192.525543,669.655151,193.121765,670.802246,192.507858M584.644714,245.359299C585.134521,244.582733,584.478699,243.545837,582.232544,241.545532C580.324951,239.846741,579.929443,239.607117,579.032837,239.607117C577.649902,239.607117,577.002625,240.335297,577.102722,241.778442C577.124878,242.097717,577.657837,242.387878,578.9198,242.767792C580.241211,243.165588,581.109802,243.65274,582.26062,244.641556C583.857605,246.013672,584.17218,246.108383,584.644714,245.359299M677.247437,190.778687C677.834229,190.191925,677.791382,190.051956,676.60498,188.681183C675.649963,187.577759,675.546753,187.318207,675.546753,186.019592C675.546753,184.515961,674.963135,183.522461,674.079712,183.522461C673.631287,183.522461,672.372192,184.668488,672.372192,185.07666C672.372192,185.936096,674.086548,190.090149,674.651306,190.599182C675.418518,191.290695,676.650269,191.37587,677.247437,190.778687M619.991211,272.94043C620.643372,272.2883,620.668274,271.566772,620.057373,271.023315C619.702332,270.707489,618.854248,270.597412,616.4198,270.551147C612.396667,270.474731,612.61731,270.43689,612.305664,271.256592C612.104858,271.78476,612.13855,272.103088,612.444763,272.570374C612.819824,273.142822,613.052979,273.193207,615.692505,273.272156C617.256531,273.318909,618.744507,273.382477,618.999146,273.413361C619.253784,273.444275,619.700195,273.231445,619.991211,272.94043M692.742554,282.993347C692.945679,282.613708,692.94165,282.307159,692.728027,281.908081C692.324768,281.154541,686.61731,278.426636,685.369568,278.391113L684.40918,278.363708L684.330811,279.853729C684.22467,281.870239,684.542664,282.157349,686.850891,282.129333C688.299805,282.111755,688.894714,282.240417,689.964783,282.802734C691.565002,283.643646,692.365112,283.698547,692.742554,282.993347M665.440918,193.787003C665.982788,193.245148,665.795166,192.107864,664.83252,190.099106C664.323242,189.036453,663.906555,187.913574,663.906555,187.60379C663.906555,187.294022,663.775635,186.664948,663.615601,186.205841C663.127625,184.806091,661.220825,184.749878,660.699951,186.119873C660.474243,186.713593,660.59198,187.122803,661.473938,188.808868C662.046082,189.902664,662.593384,191.159546,662.690125,191.601929C662.983337,192.942673,663.828735,194.104462,664.511108,194.104462C664.8479,194.104462,665.266357,193.961609,665.440918,193.787003M577.438416,237.204865C578.164795,236.816116,578.721375,235.382355,578.721375,233.899826C578.721375,233.225037,578.907043,231.956451,579.133911,231.080795C579.624329,229.188385,579.532898,228.85376,578.394714,228.375183C577.18988,227.868561,576.869507,228.227142,576.869507,230.082428C576.869507,231.852448,576.372131,233.433929,575.424744,234.675995C574.643555,235.70015,574.5802,236.332047,575.190918,237.006927C575.682312,237.549896,576.636658,237.633942,577.438416,237.204865M619.410095,250.4189C619.480835,249.571945,619.301941,249.243088,617.899109,247.641129C617.023926,246.641739,615.867798,245.022675,615.329895,244.043243C613.723145,241.117706,612.781982,240.506836,611.916443,241.827789C611.325684,242.729431,611.601501,243.462036,613.273071,245.430786C614.074402,246.374588,615.091431,247.775696,615.533142,248.544357C616.875916,250.880997,617.559875,251.55191,618.505432,251.459854C619.244507,251.387909,619.338135,251.280197,619.410095,250.4189M627.227661,263.080841C628.135986,262.416687,627.784912,260.553131,626.591431,259.703278C625.722412,259.084503,625.585327,259.073395,620.640564,259.221008C617.120728,259.32605,616.022949,259.715454,616.022949,260.858948C616.022949,262.482544,617.265076,262.780548,620.100159,261.837097C622.255737,261.119781,623.696228,261.223511,624.716492,262.169556C625.386536,262.790771,626.309937,263.391693,626.620544,263.4086C626.701843,263.413025,626.975037,263.265533,627.227661,263.080841M731.224243,244.733215C731.460571,244.642517,731.875,244.13501,732.145203,243.605408C732.887512,242.150391,733.94519,241.234863,735.374268,240.810486C737.079346,240.304138,738.137939,239.656097,738.477539,238.910812C738.706665,238.407852,738.64209,238.167892,738.106384,237.531189C737.015381,236.234604,736.444092,236.271759,735.077881,237.728149C734.419067,238.43042,733.020447,239.565643,731.969727,240.25087C730.919067,240.936096,729.753601,241.860138,729.379883,242.304291C728.769531,243.029602,728.738037,243.169098,729.070129,243.674286C729.273499,243.983643,729.724609,244.383804,730.072693,244.563538C730.826843,244.952988,730.700195,244.934326,731.224243,244.733215M661.327209,291.641418C662.736023,290.340515,662.848755,290.150085,662.854187,289.062195C662.857361,288.416138,663.095459,287.368591,663.383301,286.734314C664.239197,284.848053,664.10553,284.242676,662.587158,283.128113C661.089172,282.028503,660.623718,282.020203,659.834045,283.079102L659.276917,283.826172L660.004456,285.129456C660.958374,286.838409,660.922363,287.609863,659.8078,289.339844C658.873718,290.789703,658.417847,292.247833,658.737244,292.764557C659.091125,293.337219,659.844543,293.010498,661.327209,291.641418M612.054688,329.149475C613.000488,328.4935,614.556335,327.155518,615.512207,326.176147C616.468018,325.196777,617.628784,324.081787,618.091553,323.698425C619.48999,322.539978,618.968811,320.824036,617.218567,320.824036C616.257263,320.824036,615.567261,321.459839,614.740845,323.107208C613.96991,324.643921,612.617432,325.826904,610.395813,326.907654C608.649475,327.757202,608.475952,327.914124,608.399109,328.713409C608.209045,330.689209,609.596191,330.854675,612.054688,329.149475M624.670044,323.12146C624.842651,322.949158,626.062866,320.697357,627.381714,318.117462C630.031799,312.93338,630.286743,311.909302,629.118225,311.143616C628.028687,310.429749,627.300537,311.118042,626.744385,313.387421C626.010132,316.383606,624.928772,318.38974,623.154297,320.047485C622.287598,320.857178,621.578491,321.725677,621.578491,321.977509C621.578491,322.22937,621.882141,322.739014,622.253174,323.110107C622.778198,323.635101,623.086304,323.745972,623.64209,323.609741C624.034912,323.513489,624.497498,323.293762,624.670044,323.12146M700.890686,228.443085C701.076294,228.257523,701.20813,227.367249,701.20813,226.300232C701.20813,224.592514,701.152588,224.41925,700.346008,223.612671C699.371277,222.63797,697.881592,222.133362,694.065308,221.485245C689.410583,220.694733,689.391479,220.694153,689.049133,221.333923C688.880554,221.648941,688.77948,222.287262,688.824585,222.752411C688.946899,224.014008,689.890015,224.382599,691.955872,223.976166C693.833374,223.606796,696.048096,223.779144,697.221497,224.385956C698.14447,224.863251,698.562622,225.690582,698.562622,227.039307C698.562622,227.528687,698.749756,228.11618,698.978394,228.344818C699.471741,228.838226,700.445496,228.888275,700.890686,228.443085M655.766479,292.318756C656.513672,291.470001,656.778687,287.09259,656.22345,284.771667C655.892944,283.390442,655.902161,283.160583,656.318787,282.386963C656.572388,281.916077,657.31189,281.194214,657.962219,280.782776C658.961243,280.150757,659.144653,279.903076,659.144653,279.185974C659.144653,278.719208,659.00177,278.194397,658.827209,278.019836C658.018921,277.211548,655.406738,278.109558,654.940674,279.355927C654.818298,279.683228,654.63562,280.623352,654.53479,281.445068C654.417358,282.40213,654.071838,283.380066,653.573486,284.165894C652.65448,285.614929,652.625366,285.999847,653.318726,287.527954C653.66626,288.293854,653.843994,289.263184,653.847839,290.414001C653.851135,291.401337,653.990234,292.283386,654.171143,292.464264C654.624329,292.91748,655.293152,292.856476,655.766479,292.318756M683.659058,179.060699C686.690674,177.479736,689.619629,176.04126,690.167786,175.864059C692.387268,175.146591,692.633545,171.882248,690.468201,171.882248C689.662964,171.882248,689.293152,172.13089,687.765869,173.699463C686.342529,175.161285,685.465393,175.780197,683.281006,176.864014C681.787476,177.605057,679.735657,178.458496,678.721436,178.760529C676.881165,179.308594,676.340454,179.773285,676.340454,180.806656C676.340454,181.468018,676.845764,181.93515,677.561157,181.93515C677.883301,181.93515,680.62738,180.641663,683.659058,179.060699M632.954163,243.310822C633.765625,242.499359,633.640869,241.352631,632.661255,240.619293C632.209167,240.280853,631.420532,239.614075,630.908691,239.137573C630.040161,238.32901,629.986328,238.185349,630.101807,236.983673C630.259521,235.342087,631.027954,234.349548,633.384766,232.743256C634.384705,232.061768,635.341431,231.226776,635.510864,230.887756C635.973328,229.96228,635.570007,229.17334,634.584106,229.07486C633.856445,229.002167,633.45752,229.282959,631.237366,231.430771C628.448608,234.128662,627.134094,235.898819,627.134094,236.95636C627.134094,237.667877,630.325439,242.463852,631.406494,243.376953C632.105286,243.967224,632.306396,243.958618,632.954163,243.310822M606.524597,319.190643C607.643921,318.561584,608.376526,317.583374,609.673584,314.985962C610.689941,312.950806,611.609619,311.911041,612.582336,311.697388C613.033264,311.598328,614.054443,311.800201,615.328735,312.240234C617.238953,312.899902,617.395569,312.91571,618.012878,312.51123C618.784607,312.005585,618.874573,311.03775,618.205505,310.438416C617.754456,310.034363,613.608032,309.183838,612.089172,309.183838C610.880737,309.183838,608.749084,311.043518,608.2146,312.564148C607.222717,315.385925,607.125793,315.511414,605.307434,316.327271C603.751587,317.025299,603.589111,317.172485,603.589111,317.883728C603.589111,318.417236,603.812744,318.845154,604.286133,319.217529C605.153503,319.89978,605.265259,319.898468,606.524597,319.190643M608.593018,307.558105C608.956848,306.906921,608.925354,306.731079,608.138977,305.025024C606.521301,301.515381,606.445435,297.035492,607.949097,293.805481C608.312805,293.02417,608.611572,292.254547,608.612976,292.095215C608.61792,291.54007,607.610107,290.889496,606.879395,290.976196C605.712585,291.114594,605.23291,292.090454,604.924255,294.953827C604.52594,298.648376,604.579712,300.782959,605.150818,303.94989C605.64447,306.687164,606.023254,307.792908,606.604919,308.194153C607.176025,308.588196,608.200684,308.260376,608.593018,307.558105M759.314819,251.640793C759.573547,250.966553,758.985413,250.550385,754.493958,248.229523C752.110229,246.997757,748.21283,244.672852,745.83313,243.06308C743.453491,241.453308,741.376404,240.136215,741.217468,240.136215C740.644592,240.136215,740.097046,240.985809,740.097046,241.874695C740.097046,243.061951,740.751343,243.685547,742.612488,244.272247C743.603882,244.584747,744.615356,245.187012,745.608398,246.056061C747.00885,247.281616,750.320251,249.039505,755.440918,251.275726C757.359253,252.113449,759.071533,252.274796,759.314819,251.640793M758.464355,256.91626C759.000427,256.380188,758.988647,256.218567,758.354492,255.41243C757.964478,254.916534,757.420288,254.672272,756.244141,254.465088C755.34668,254.307007,752.581177,253.267868,749.867432,252.069031C746.104431,250.406647,744.801575,249.695862,743.799622,248.758636C742.253906,247.312836,741.353271,247.017853,740.590942,247.707718C739.803467,248.420395,739.514526,249.074966,739.71228,249.69812C739.887512,250.250153,743.309692,252.001175,748.298096,254.091248C750.616089,255.062439,757.183716,257.3125,757.736877,257.324951C757.908325,257.328796,758.235718,257.144897,758.464355,256.91626M674.488586,220.294952C675.55249,219.231018,675.084167,218.317596,672.653687,216.7164C670.948608,215.593124,669.40802,214.026794,668.709595,212.706512C668.201172,211.745438,668.361084,210.838318,669.209167,209.872375C670.716553,208.155594,673.277527,207.413742,675.188538,208.140305C676.330872,208.574615,677.134094,208.257874,677.134094,207.373062C677.134094,206.484558,676.241516,205.566559,675.043457,205.222992C673.984863,204.919373,671.649719,205.598877,669.329834,206.88562C666.954468,208.203125,665.248596,210.983017,665.806091,212.627747C665.930298,212.99411,667.190613,214.556366,668.606812,216.099396C670.02301,217.642426,671.551941,219.3367,672.004456,219.864471C672.933533,220.948059,673.702271,221.081268,674.488586,220.294952M680.919495,174.717575C683.982666,173.266541,684.331787,173.008713,686.083984,170.903168C687.602356,169.078705,688.463074,168.671036,690.600464,168.764038C691.843933,168.818146,692.07959,168.741196,692.629822,168.101547C693.309021,167.31192,693.257324,166.82457,692.392456,165.863724C691.670776,165.062012,691.126648,165.113068,689.703796,166.116013C688.717896,166.810913,688.188721,166.983429,686.764954,167.074097L685.028503,167.184662L684.220886,168.875412C682.84375,171.758469,680.669617,173.189056,677.649963,173.199188C675.33667,173.20694,674.828125,173.770752,675.602173,175.469559C675.894043,176.110214,676.028015,176.161545,677.131165,176.055542C677.815063,175.989838,679.460693,175.408615,680.919495,174.717575M674.379944,248.074951C675.079712,247.100906,675.804626,246.504318,677.142639,245.801208C680.503601,244.035065,683.243286,240.306122,685.192627,234.844391C685.892761,232.882568,686.809326,230.928314,687.55542,229.806305C689.137146,227.427582,689.13678,226.115051,687.554443,226.115051C686.342224,226.115051,684.912231,228.511063,683.25354,233.321518C682.676819,234.993958,681.909851,236.944824,681.549072,237.656799C679.871826,240.966705,676.966003,243.750122,674.400574,244.504257C672.436523,245.081589,671.938171,245.552094,671.572266,247.174484C671.253845,248.586258,671.639465,249.395477,672.630615,249.395477C673.288147,249.395477,673.60083,249.159409,674.379944,248.074951M632.225159,307.563599C633.153381,307.090027,633.60498,307.027344,635.09314,307.165649C637.088623,307.351135,637.380676,307.179901,637.623779,305.682068C637.800293,304.594299,637.232544,303.892731,636.176025,303.893036C635.786255,303.893158,634.693604,304.270752,633.747803,304.732117C632.411377,305.384033,631.674561,305.572784,630.440918,305.579193C628.344604,305.590088,627.021423,304.891846,622.850464,301.573669C618.612122,298.201965,618.076538,297.835266,617.106506,297.641296C615.992798,297.418518,614.964783,298.108215,614.964783,299.078156C614.964783,300.281616,615.618408,300.93158,617.019104,301.12085C619.262878,301.424133,619.941956,301.771271,621.374939,303.347443C622.141663,304.190826,623.304688,305.150574,623.959473,305.480225C624.614258,305.809937,625.596924,306.431396,626.14325,306.861298C627.907166,308.24939,630.33197,308.529388,632.225159,307.563599M674.348083,234.233521C674.568481,233.897079,675.047913,232.269913,675.41333,230.617584C676.1828,227.138702,676.964722,225.276031,678.260803,223.834625C680.104065,221.784637,680.573242,220.863922,680.573242,219.296661C680.573242,216.884033,680.129517,215.87738,678.552734,214.712509C677.788025,214.147614,676.795837,213.152634,676.347778,212.501419C675.75061,211.633453,675.252319,211.233246,674.480957,211.002167C673.111938,210.59198,672.107605,210.990814,672.107605,211.944672C672.107605,212.629486,672.681274,213.171082,675.130859,214.79895C677.495483,216.370331,678.54303,218.296371,678.076294,220.214447C677.973206,220.638275,677.153809,221.653534,676.164978,222.582672L674.434204,224.209015L673.949951,226.622833C673.683594,227.950424,673.136841,229.965073,672.734924,231.099823C672.078186,232.953857,672.039429,233.248245,672.352539,234.004089C672.780701,235.037903,673.748169,235.149109,674.348083,234.233521M726.334167,241.462311C726.6026,241.318649,727.077271,240.788422,727.389038,240.284027C727.700745,239.779602,728.931641,238.690704,730.124329,237.864227C732.605713,236.144699,733.747803,235.147064,733.747803,234.699112C733.747803,234.178268,732.739014,233.067993,732.118286,232.905655C731.674316,232.789551,731.339478,232.977127,730.723022,233.687256C728.387878,236.377029,727.20343,237.578064,726.555603,237.913086C725.347778,238.537643,724.026978,238.367661,722.215271,237.354492C719.72467,235.96167,719.023315,234.838196,719.770813,233.438934C720.408875,232.244629,722.907349,229.120102,723.682739,228.546829C724.741333,227.764206,724.780273,226.647461,723.77655,225.857941C722.577698,224.914917,722.102234,225.214127,720.75354,227.760223C720.081543,229.028809,718.734131,231.25351,717.759216,232.70401C716.292236,234.886566,716.033569,235.428986,716.259033,235.850143C716.543945,236.382507,725.167053,241.710266,725.762573,241.721893C725.808533,241.722778,726.065735,241.605988,726.334167,241.462311M681.715027,186.305588C684.083679,184.376129,691.909058,180.770416,695.424438,179.988708L696.843079,179.673248L696.843079,176.505264C696.843079,173.534546,696.891541,173.238434,697.621826,171.749969C698.050171,170.876953,698.491516,169.957733,698.6026,169.707275C698.920654,168.990021,698.153931,168.443085,696.830261,168.443085C695.047363,168.443085,694.707153,169.138229,694.798401,172.594406C694.908325,176.755371,694.282715,177.9048,691.443665,178.758423C689.892212,179.224915,679.626587,184.207352,678.787537,184.901123C678.033691,185.524399,678.779968,187.490723,679.770325,187.490723C680.039734,187.490723,680.914856,186.957397,681.715027,186.305588M680.782593,250.255264C683.322754,248.133759,685.877563,245.214737,687.407104,242.686432C688.233276,241.32074,689.822754,237.868408,691.545471,233.697708C692.299377,231.872559,693.13678,230.829773,694.935181,229.476791C695.481995,229.065369,695.917114,228.508545,695.917114,228.220184C695.917114,227.491943,694.985046,226.64415,694.184448,226.64415C692.90332,226.64415,692.023987,227.339752,691.567383,228.714417C691.332336,229.422134,690.836548,230.406555,690.465698,230.902023C689.534851,232.145752,688.880127,233.460754,688.073242,235.707077C686.046265,241.35025,682.548462,246.283066,679.27301,248.117767C676.610901,249.608917,675.940796,250.5354,676.614258,251.793823C677.156494,252.806992,678.179443,252.429428,680.782593,250.255264M629.267517,256.842285C630.040771,256.216125,630.446533,253.553757,630.356445,249.697372C630.289734,246.838501,630.036316,245.978302,628.981506,245.02977C628.467407,244.567459,626.457642,241.868149,624.571899,239.107239C623.601807,237.686874,623.717102,235.859406,624.886353,234.123169C626.25946,232.084229,630.516602,227.740784,631.748596,227.12178C633.334473,226.324982,633.747803,225.868896,633.747803,224.91597C633.747803,223.884644,633.18634,223.353912,632.324158,223.570313C631.422363,223.796646,626.221436,228.625763,624.494446,230.84024C623.697449,231.862244,622.587158,233.44931,622.027222,234.367065C620.39032,237.049835,620.605652,237.682739,625.295227,243.972198C627.583313,247.040894,627.971191,247.838623,628.119446,249.78035C628.21405,251.019379,628.08783,251.856323,627.55896,253.496002C626.723389,256.086365,626.714111,256.399475,627.45752,256.920166C628.217651,257.452576,628.530457,257.439117,629.267517,256.842285M615.889343,333.826965C616.326599,333.572784,617.293945,332.5495,618.039001,331.553009C620.347351,328.465668,622.256592,327.805664,624.778503,329.223297C626.374023,330.120178,626.560791,330.030579,628.259521,327.552734C630.919983,323.672119,636.27887,312.083191,636.074219,310.652863C636.012573,310.221985,635.777893,310.096344,634.938293,310.0448C633.297729,309.944092,632.87915,310.433746,632.661926,312.708069C632.495789,314.447571,632.226379,315.141693,629.959839,319.670044C628.575134,322.436462,627.13092,325.069885,626.750366,325.522095C625.725464,326.740112,624.506104,327.06189,622.902588,326.537384C620.429077,325.728333,620.115906,325.841003,617.650146,328.427612C616.087891,330.066467,614.926331,331.015686,613.681885,331.670593C611.707031,332.7099,611.330933,333.427795,612.370361,334.174133C613.096436,334.695496,614.660828,334.541168,615.889343,333.826965M627.398621,285.374329C627.689636,285.083313,627.927734,284.622437,627.927734,284.350098C627.927734,284.07782,627.302734,282.559937,626.538818,280.977112C625.21582,278.235718,625.150208,277.998779,625.15509,275.982788C625.159424,274.190491,625.272217,273.652222,625.891846,272.467987C626.916016,270.51062,628.29834,269.071381,629.597961,268.609436C630.207153,268.392944,631.776917,268.147766,633.086426,268.064606C636.164978,267.869202,638.513367,267.305847,639.059143,266.631897C639.420593,266.185516,639.469299,265.566681,639.367981,262.709015C639.241089,259.128296,638.94043,258.125641,637.993408,258.125641C637.032349,258.125641,636.58313,258.896881,636.771301,260.223816C637.206726,263.294342,637.231567,263.897247,636.94458,264.433533C636.289917,265.656647,633.806396,266.25354,631.151001,265.825928C628.991028,265.478058,627.874756,265.807983,626.957764,267.065247C626.564209,267.604797,625.661987,268.652435,624.95282,269.393311C623.738953,270.661407,623.625671,270.903931,623.019409,273.53241C622.26709,276.794159,622.414673,278.422424,623.603943,279.981659C624.132996,280.675262,624.342834,281.301086,624.420654,282.417206C624.553406,284.321899,624.902649,285.23645,625.631714,285.588928C626.483643,286.000793,626.812012,285.960907,627.398621,285.374329M619.308228,307.171387C619.792664,306.985504,619.852173,306.208923,619.440796,305.440369C619.060791,304.730225,617.627747,304.157471,616.229858,304.156982C614.732544,304.156433,613.387939,303.446106,612.725098,302.305542C611.962585,300.99353,611.949829,297.232544,612.704041,296.118652C613.399597,295.09137,614.61145,294.632385,616.60968,294.639404C618.799011,294.647034,620.032471,295.232849,622.574341,297.472198C624.766907,299.403778,627.530823,301.441193,628.906677,302.140015C630.644958,303.02298,632.954163,302.44812,632.954163,301.132446C632.954163,300.270142,632.53894,300.014526,630.573242,299.666748C628.410034,299.284058,626.702087,298.196899,623.694946,295.288452C622.45813,294.092285,621.148621,292.95874,620.784851,292.76947C619.818115,292.266479,613.100891,292.372986,612.066833,292.907715C610.760437,293.583313,609.513611,297.715149,609.834778,300.30481C610.031982,301.895599,611.13739,304.888123,611.775879,305.559814C612.049622,305.847839,612.900635,306.135071,613.927429,306.286011C614.861755,306.42334,616.161865,306.706879,616.816589,306.916138C618.16394,307.34671,618.706482,307.402283,619.308228,307.171387M666.103027,199.472504C669.526306,197.908081,670.05304,197.505936,669.941528,196.542007C669.820557,195.496033,668.685669,195.003387,667.641296,195.543457C667.21344,195.764709,666.604736,196.275513,666.288635,196.678543C665.597961,197.559235,664.777649,198.050659,663.976868,198.063354C662.825134,198.081604,661.843506,196.726868,659.674683,192.125824C657.903748,188.368774,657.557495,187.416641,657.55835,186.30571C657.560303,183.631531,658.997253,182.444763,662.451538,182.264435C663.61554,182.203659,665.310913,181.910431,666.218994,181.612823C667.66449,181.139084,668.059692,181.108826,669.393555,181.369812C670.443726,181.575287,671.213074,181.585663,671.869568,181.403229C673.354553,180.990524,674.209717,179.733032,673.585754,178.8797C673.274475,178.45401,673.015137,178.443207,670.230896,178.740189C668.571289,178.917206,665.434814,179.353104,663.260925,179.708847C660.036255,180.236526,659.018127,180.514938,657.731812,181.220779C655.508484,182.440796,655.115662,183.240189,655.235474,186.300232C655.323975,188.561188,655.402588,188.834518,656.795898,191.723511C657.602844,193.39679,658.818604,195.655624,659.497559,196.743134C660.176453,197.830627,660.732422,198.842545,660.73291,198.991806C660.733521,199.141083,660.977539,199.66275,661.275269,200.151077C661.956482,201.268494,662.269165,201.224548,666.103027,199.472504M794.750732,250.378159C795.607727,249.880371,799.26947,246.584717,801.513428,244.291626C805.504639,240.212906,808.962341,234.492584,810.341553,229.686478C811.686157,225.001312,812.357849,217.502426,811.481567,216.960815C811.129761,216.743423,810.575195,218.287689,809.704346,221.909302C808.487183,226.971039,806.92511,231.170929,805.095276,234.301544C802.018066,239.566223,797.567871,244.473663,794.28363,246.224167C792.3797,247.238937,791.90155,247.858002,792.249878,248.857239C792.553223,249.727371,793.427368,250.722015,793.877197,250.708847C794.053406,250.70369,794.446472,250.554886,794.750732,250.378159M599.981995,317.630249C600.90918,316.900909,600.861816,316.305725,599.730652,314.473053C598.714417,312.82666,597.565552,308.877411,596.845093,304.554199C596.336304,301.500916,596.338196,297.083801,596.849915,293.125977C597.317566,289.508881,597.83313,287.715881,598.763977,286.469391C599.640808,285.295166,603.641174,282.706421,605.206055,282.300476C606.685425,281.916748,607.5578,282.080536,610.384644,283.272766C612.347351,284.100525,612.652893,284.15033,616.445251,284.261353C620.807007,284.389038,621.578491,284.220215,621.578491,283.13797C621.578491,281.40448,620.796631,280.969482,618.750061,281.564453C616.09314,282.336853,611.316345,281.571289,607.713501,279.795654C606.853638,279.371826,605.91333,279.025085,605.623901,279.025085C605.334473,279.025085,604.430847,279.578186,603.615906,280.25415C602.800903,280.930176,601.286682,281.872375,600.251038,282.347961C596.800903,283.932343,595.922852,285.176819,595.036255,289.73938C593.808716,296.056335,593.788452,302.173706,594.978027,307.33197C596.136536,312.35553,597.540649,317.223114,597.973328,317.715576C598.510193,318.326599,599.130249,318.300232,599.981995,317.630249M623.186157,267.140686C624.109558,266.217285,624.172852,265.447937,623.371521,264.886658C622.605652,264.350281,622.24585,264.366058,620.224121,265.024841C618.19043,265.6875,615.797668,265.59317,614.72583,264.808167C613.688843,264.048584,613.11377,262.693909,613.113342,261.009338C613.112976,259.787994,612.971008,259.3237,612.30426,258.363831C611.859558,257.723572,610.831726,256.187805,610.020264,254.951035C609.20874,253.714264,607.533142,251.341019,606.296631,249.677155C604.259094,246.935425,602.80481,244.443588,602.798035,243.68251C602.792969,243.115173,601.822083,242.569641,598.259155,241.132141C596.273438,240.330994,594.214905,239.34462,593.684692,238.940186C592.551392,238.07579,589.631958,232.478363,589.410156,230.74469C589.062195,228.024841,589.041382,227.966904,588.41156,227.966904C588.079773,227.966904,587.535767,228.256989,587.202698,228.611542C586.647095,229.202972,586.620178,229.361328,586.876892,230.529541C587.030762,231.229889,587.229858,232.365265,587.319275,233.052643C587.426147,233.87413,587.794983,234.735367,588.39563,235.565872C588.898193,236.260773,589.828796,237.61087,590.463745,238.566086C592.103333,241.032852,593.447571,242.082626,596.250793,243.085358C599.343018,244.191467,600.049072,244.691528,601.43158,246.754486C602.063721,247.697769,603.509644,249.719559,604.644653,251.24733C605.779724,252.775116,607.433228,255.149612,608.319031,256.523987C609.88092,258.947296,610.161621,259.624817,611.638367,264.535278C612.137451,266.194885,612.498352,266.938477,612.921265,267.178772C613.432251,267.469116,615.199036,267.614685,621.268188,267.866516C622.215454,267.905823,622.546204,267.78064,623.186157,267.140686M638.47699,300.6521C639.30957,298.028473,638.994934,289.369354,637.982788,287.051392C637.718506,286.446045,636.37207,284.769714,634.990723,283.326233C631.640686,279.825439,630.112732,276.807251,630.822693,275.093262C631.202026,274.17749,631.657593,273.979462,635.182739,273.198303C637.517883,272.680847,638.234497,272.637146,641.664246,272.802795C647.796326,273.098938,650.015442,273.58728,653.062439,275.311035C653.927429,275.800415,654.088257,275.810516,655.419922,275.459229C656.205933,275.251892,656.947083,274.927704,657.066895,274.738861C657.442871,274.146149,657.312988,273.22522,656.778076,272.690247C656.351196,272.263428,656.114319,272.218231,655.39093,272.42572C653.892578,272.855408,652.783264,272.713623,651.501953,271.928589C649.697571,270.823059,648.712341,270.559509,646.384033,270.559509C645.229248,270.559509,643.532776,270.359192,642.614136,270.114441C641.000122,269.684357,640.864929,269.688354,638.602417,270.233948C637.314697,270.544495,635.074219,270.926788,633.623596,271.083496C630.324158,271.439941,629.48407,271.920288,628.584717,273.964844C627.849792,275.635437,628.075806,277.03952,629.612244,280.347839C630.878052,283.073578,631.155823,283.477203,632.281189,284.226318C635.20813,286.174744,636.113647,287.635864,636.122986,290.424866C636.12616,291.383881,636.306091,292.75293,636.522766,293.467194C637.076416,295.292358,637.020691,296.172821,636.261047,297.599731C635.897278,298.283081,635.59967,299.204712,635.59967,299.647919C635.59967,300.670105,636.426697,301.511871,637.43103,301.511871C638.070923,301.511871,638.25116,301.363708,638.47699,300.6521M635.67627,249.721573C635.908997,249.464401,636.534546,248.214508,637.066406,246.944016C638.232422,244.158508,639.589111,242.007599,641.477051,239.951202C642.251892,239.107193,643.625366,237.444275,644.529114,236.255829C646.57959,233.559601,647.386963,233.140137,653.406006,231.644165C655.8974,231.024933,658.223877,230.289612,658.697021,229.971848C659.209167,229.627899,659.688477,228.98291,659.914978,228.332977C660.254272,227.359451,660.242188,227.167938,659.782715,226.242279C658.991577,224.648346,658.109314,224.155716,655.840576,224.041153C654.248718,223.96077,653.350891,224.09491,651.001099,224.764206C647.413208,225.786148,646.232117,225.816833,645.161438,224.915924C644.304993,224.195236,643.945557,223.306702,643.666809,221.220871C643.43988,219.52301,642.07666,215.512665,641.630127,215.229401C641.009094,214.835419,639.922852,214.99469,639.416748,215.553925C638.926453,216.095718,638.933411,216.130188,639.887329,217.87439C640.419861,218.84816,641.108887,220.654236,641.418579,221.887909C642.072144,224.491333,643.354065,227.03598,644.398193,227.802429L645.12793,228.338104L649.160095,227.447784C651.377808,226.958099,653.653687,226.398407,654.21759,226.203979C655.857361,225.638672,656.945496,225.742828,657.450439,226.513428C657.812927,227.066666,657.831787,227.304306,657.564575,227.949463C657.197266,228.836182,657.036133,228.920853,655.276367,229.15213C653.729614,229.355408,646.338196,231.059448,645.353638,231.439758C644.930542,231.60318,644.370239,232.236908,643.924072,233.056671C643.071899,234.622375,641.045349,237.111298,638.482788,239.73938C636.915588,241.346619,636.63623,241.783447,636.367737,243.046265C636.106384,244.275772,635.838379,244.713028,634.63855,245.86734C633.384399,247.07399,633.21875,247.3573,633.21875,248.295532C633.21875,248.908386,633.394592,249.533539,633.63446,249.773407C634.186401,250.325363,635.152039,250.300842,635.67627,249.721573M604.764587,313.093201C605.453552,312.109589,605.269531,311.175507,604.126709,309.855042C602.965759,308.513672,602.749512,307.886841,602.115112,304.025085C601.593384,300.848938,601.747559,294.375061,602.404724,291.866119C603.395569,288.083252,606.35553,286.685883,609.29126,288.615051L610.59967,289.474854L615.890686,289.474854C622.413147,289.474854,622.472168,289.495117,625.493225,292.770905C627.212891,294.63559,628.060791,295.325012,629.552429,296.071228C632.372131,297.481873,633.747803,297.23175,633.747803,295.308441C633.747803,294.140381,633.398926,293.919678,631.355591,293.795105C629.171814,293.661926,628.273071,293.057251,626.749451,290.696045C625.89563,289.372742,625.25415,288.726898,624.120361,288.048767L622.620605,287.151825L617.536072,287.19043C612.655457,287.227478,612.377258,287.201324,610.59967,286.538239C606.319824,284.941742,606.6026,284.998383,605.332825,285.483307C603.572388,286.15564,601.444092,287.773499,600.879822,288.868347C599.641479,291.270996,598.999146,299.557007,599.714966,303.894012C600.188538,306.763184,601.718872,312.019531,602.369995,313.013306C602.940247,313.883575,604.181946,313.925018,604.764587,313.093201M618.271606,338.928528C619.284546,338.5672,620.09552,337.940033,621.733887,336.251038C624.212524,333.695679,624.725647,332.900757,624.317261,332.248596C623.970825,331.695374,622.219299,331.513123,621.665466,331.972778C621.442627,332.157715,620.871887,332.909424,620.397156,333.64325C618.684326,336.290833,616.813843,337.310242,613.642029,337.324707C610.910583,337.337219,609.61615,336.583282,608.476563,334.316101C608.220581,333.806854,607.37854,332.704468,606.605286,331.866333C603.766113,328.789001,604.498291,326.554169,609.145874,324.111938C611.149109,323.059296,611.83374,322.336884,612.960327,320.086975C614.117371,317.776337,615.568237,317.228638,618.346558,318.053711C619.543396,318.409149,619.818848,318.411682,620.625671,318.074554C621.133972,317.862183,621.845276,317.235016,622.219971,316.668823C623.000916,315.488708,624.500977,311.268097,624.54303,310.132568C624.577393,309.20401,623.698059,308.390198,622.660339,308.390198C621.480469,308.390198,621.303589,308.798492,621.463501,311.152405C621.629822,313.60144,621.391418,314.266418,620.014404,315.194397C618.925781,315.928009,617.322754,315.984192,615.337158,315.358276C614.034973,314.947784,613.898804,314.948181,613.263977,315.364136C612.89032,315.608948,612.169128,316.634277,611.661316,317.642578C610.396484,320.154236,609.31842,321.297333,607.404602,322.156006C606.066589,322.756317,605.644226,323.1138,604.960999,324.224213C604.425964,325.093689,603.765991,325.754883,603.087646,326.100952C602.511597,326.394836,601.959351,326.890137,601.860535,327.20166C601.632813,327.919006,603.020386,330.701782,605.44873,334.398102C608.642578,339.259491,609.317444,339.653687,614.171082,339.492615C615.952637,339.433472,617.423279,339.231201,618.271606,338.928528M636.589417,255.577332C637.718323,255.19429,638.96167,254.584198,639.352295,254.221588C639.742981,253.858963,640.499268,252.535461,641.032898,251.280472C642.438843,247.974243,643.479797,245.973419,644.421143,244.767838C646.828003,241.68541,649.286987,238.998566,650.33844,238.302094C651.670532,237.419769,654.896729,236.293549,659.40918,235.135666C661.08252,234.706299,662.648987,234.278183,662.890259,234.18428C663.410217,233.981934,663.642456,233.442261,664.697144,229.984634C665.713318,226.65332,665.721069,225.514053,664.738098,223.984314C663.473755,222.016708,660.97052,219.656525,659.764893,219.295303C658.29541,218.855042,654.957153,218.889603,650.82196,219.387909C646.887573,219.86203,646.138733,220.240662,646.591553,221.526917C646.970764,222.603821,647.894165,222.716156,650.176514,221.962982C652.803589,221.096054,656.394592,220.866852,658.366882,221.440201C661.365906,222.312042,663.34021,225.065689,663.005859,227.910492C662.748657,230.098877,661.710388,231.809753,660.145447,232.623932C659.750122,232.82962,657.428711,233.540283,654.986755,234.203156C649.343445,235.735077,648.647644,236.053131,647.21814,237.754456C646.575378,238.519501,645.320068,239.996872,644.42865,241.037491C641.926147,243.958832,640.710571,245.837006,639.809082,248.175369C638.154358,252.467224,637.559021,253.099182,635.170654,253.099182C634.379822,253.099182,633.744324,253.25975,633.437988,253.537003C632.762207,254.14856,632.816223,255.353485,633.542114,255.861954C634.290527,256.386169,634.17334,256.397095,636.589417,255.577332M619.131409,278.328949C619.458801,278.123108,619.726685,277.733948,619.726685,277.464111C619.726685,276.460907,619.012024,276.247375,615.650391,276.246216C612.933655,276.245239,612.264954,276.159058,611.213684,275.674164C609.200317,274.745483,608.732178,273.250244,609.561646,270.397095C609.973572,268.980042,609.968994,268.934906,609.181946,266.652649C608.743774,265.38208,608.144714,263.509216,607.850647,262.490723C607.556641,261.472198,606.69342,259.595154,605.932373,258.319489C604.311279,255.602188,598.839966,248.202347,597.82605,247.355972C597.440979,247.0345,596.169434,246.392609,595.000366,245.92955C591.759766,244.64592,590.305115,243.565796,588.861023,241.370926C588.174927,240.328079,587.083069,238.879608,586.434692,238.1521C584.421448,235.893051,584.279053,235.538208,584.277893,232.777557C584.277344,231.422089,584.153687,230.082809,584.003052,229.801361C583.694885,229.225494,582.626953,229.116592,582.227844,229.620346C582.08374,229.802216,581.884644,231.472153,581.785461,233.331299L581.605042,236.711578L584.228271,239.283691C586.41394,241.426727,586.927429,242.088104,587.306335,243.248383C587.848511,244.908783,588.254517,245.239655,592.606018,247.567322C595.194763,248.952072,596.166077,249.651489,597.900391,251.379608C601.451294,254.917831,604.1745,259.318359,606.004211,264.474854C606.862488,266.893738,606.897766,267.146973,606.943726,271.220886C606.969971,273.54892,606.999695,275.650879,607.009827,275.891968C607.027405,276.309814,609.313538,277.409698,611.835938,278.213837C614.348389,279.014771,617.950195,279.071625,619.131409,278.328949M623.542236,255.767258C624.105469,255.144836,625.006958,251.777267,625.013123,250.272491C625.019531,248.706802,624.713257,248.059647,622.673279,245.32872C619.917969,241.640228,618.10437,238.841095,617.833008,237.858368C617.674133,237.28299,617.68689,236.601242,617.869263,235.924042C618.194641,234.715561,621.187317,230.112793,623.069092,227.926483C626.09198,224.414459,630.784912,220.646927,632.933838,220.006912C634.920105,219.415375,636.151733,220.782776,636.529297,223.998657C636.769897,226.047668,637.033936,226.749268,638.032043,227.991272C639.777832,230.163666,638.909241,232.600098,635.61499,234.771393C633.74707,236.002563,633.493286,236.286774,633.487305,237.153931C633.4823,237.887756,634.583496,238.655197,635.310486,238.424469C635.978149,238.212555,638.994141,234.973083,640.544067,232.803009C641.981628,230.790314,642.062134,229.958145,640.96759,228.423721C639.770203,226.745117,639.393555,225.895004,638.776733,223.479172C638.22168,221.305145,636.983826,218.483398,636.190369,217.583313C635.61438,216.929962,634.446655,217.019379,632.253906,217.884674C629.374695,219.020859,626.780396,220.892365,623.425903,224.253082C620.188416,227.496552,617.758179,230.785828,615.991638,234.315216C614.584595,237.126434,614.547607,238.155365,615.803772,239.545776C616.325928,240.123718,617.246704,241.441757,617.850037,242.474777C618.453369,243.507797,619.433228,244.91478,620.027466,245.60141C623.253845,249.329163,623.557617,251.38179,621.213257,253.614044C619.67041,255.083069,620.016968,256.273804,621.987244,256.273804C622.731567,256.273804,623.231079,256.111084,623.542236,255.767258M674.926514,240.93634C677.422424,239.504822,678.965942,237.080444,680.481079,232.211884C681.662354,228.416138,682.270752,227.198975,684.105103,224.961044C685.123413,223.71875,685.610352,222.866821,685.739685,222.100967C685.841064,221.501053,686.100586,220.587616,686.316406,220.071106C686.778259,218.965607,686.618835,217.54126,685.86853,216.070496C685.351685,215.057465,684.905212,214.73938,684.000061,214.73938C683.098145,214.73938,682.94928,215.548492,683.479492,217.568146C684.220703,220.39122,683.763855,221.827789,681.098022,225.056854C679.649841,226.811081,679.044556,228.180389,678.28717,231.416229C677.767578,233.636078,677.358093,234.709351,676.549133,235.971649C674.96991,238.43576,674.552002,238.813461,673.404724,238.813461C672.534302,238.813461,672.269226,238.643707,671.236084,237.424576C668.932495,234.706177,668.746887,233.632263,669.960205,230.042755C670.379639,228.801819,670.866699,226.93399,671.042419,225.891998C671.331909,224.17569,671.316162,223.924942,670.875,223.226715C670.351135,222.397583,666.804443,218.314377,664.212891,215.55687L662.619141,213.861115L654.855713,214.042938C650.585815,214.142944,646.747681,214.316925,646.326538,214.429565C645.291748,214.706314,644.942261,215.309753,645.274353,216.246597C645.511414,216.915527,645.652771,216.985474,646.719177,216.961533C647.369324,216.94693,648.61554,216.79718,649.488586,216.628723C652.110779,216.122757,658.819946,215.933228,660.480103,216.318192C661.80542,216.625549,662.140869,216.876251,664.614929,219.408798C667.426025,222.286316,668.668457,224.229401,668.668457,225.748108C668.668457,226.216675,668.193604,228.246872,667.613281,230.259674C667.032898,232.272461,666.556702,234.24231,666.555054,234.637115C666.552917,235.147842,666.996887,235.834793,668.09375,237.018066C668.941711,237.9328,670.135925,239.365723,670.74762,240.202362C671.704224,241.510788,671.978821,241.723175,672.711182,241.721039C673.179504,241.719666,674.176392,241.366562,674.926514,240.93634M683.959106,274.00177C684.002563,272.912231,683.973145,271.761902,683.893738,271.445557C683.814331,271.129211,683.155762,270.505127,682.430298,270.058746C680.104492,268.627655,677.225586,266.385498,676.248901,265.244446C675.365417,264.21225,675.011963,263.389923,674.254395,260.60434C673.941284,259.453247,673.49292,259.146057,671.578491,258.770966C670.222412,258.505249,668.273376,257.453522,667.636353,256.643707C666.889709,255.694458,666.924194,254.268616,667.742554,252.254669C668.217957,251.084656,668.403931,250.133591,668.403931,248.872131C668.403931,247.805252,668.615173,246.491653,668.94281,245.521545C669.346069,244.327301,669.41748,243.756912,669.22644,243.254471C668.853943,242.274734,665.039917,237.778152,664.292542,237.437622C663.80481,237.215408,663.138916,237.254608,661.465698,237.604034C658.499695,238.223465,655.064514,239.260834,653.430603,240.030518C650.85968,241.241608,646.696472,246.094238,644.9422,249.924576C644.309143,251.306854,643.29303,253.414383,642.684082,254.607986L641.577026,256.778198L641.885132,258.708527C642.054626,259.770203,642.273132,261.865417,642.370728,263.364502C642.617676,267.158905,642.584839,267.128845,646.781982,267.401062C649.995544,267.609467,650.212097,267.661377,652.168335,268.692017C653.289307,269.282623,654.469666,269.765869,654.791321,269.765869C656.205627,269.765869,656.272095,267.908691,654.899109,266.753418C654.046814,266.036255,651.666565,265.411743,648.386658,265.0448C645.902588,264.766907,645.27771,264.4823,644.700439,263.365906C643.588562,261.21582,644.037048,257.894592,646.098755,253.010162C647.664551,249.300568,649.336182,246.814713,651.923645,244.348007C654.599121,241.797379,657.038208,240.495087,659.928955,240.073761C664.516418,239.405136,666.885925,241.295319,666.474121,245.294952C666.399231,246.022461,665.89325,249.093307,665.349792,252.119049C664.205566,258.489136,664.233398,258.75647,666.071472,259.047882C667.341492,259.249268,670.325989,260.658752,671.697754,261.705017C672.986755,262.688232,673.46698,263.87796,673.375,265.86026L673.298096,267.517151L675.546753,268.604065C678.367798,269.967621,680.222412,271.620209,681.359741,273.783691C682.505615,275.96344,682.671509,276.155457,683.327881,276.061707C683.823242,275.990906,683.888245,275.778748,683.959106,274.00177M616.968018,256.456696C617.934448,255.625443,617.674194,254.945862,615.882813,253.622467C614.890747,252.889557,614.131653,252.009598,613.377197,250.717758C612.78186,249.698425,611.726501,248.180359,611.03186,247.344254C607.83197,243.492523,607.659302,242.068283,610.065491,239.371674C611.134277,238.173798,611.585083,237.39209,612.010803,235.998169C613.632446,230.688751,620.34021,222.037354,625.81134,218.198822C628.725464,216.154236,632.060852,214.552582,634.181763,214.179199C635.238342,213.993225,636.670288,213.490875,637.609253,212.976822C639.084229,212.169281,639.416382,212.093887,641.498413,212.093887C642.750488,212.093887,644.434143,211.92218,645.239868,211.712311C646.248352,211.449646,649.075562,211.273834,654.313599,211.148117C658.498474,211.047668,662.12854,210.859238,662.380493,210.72937C662.632385,210.599503,663.23645,209.633148,663.722839,208.581924C664.844971,206.156769,665.912537,205.217834,669.461182,203.535004C672.521729,202.083679,674.136353,201.783264,676.073425,202.304871C677.220581,202.61377,678.136719,203.391846,680.079773,205.707611C680.647156,206.383789,680.973328,206.53833,681.83313,206.53833C683.238403,206.53833,683.744385,205.96933,683.200684,205.00058C682.68103,204.074829,678.921326,201.114609,677.266357,200.328186C676.538818,199.982483,675.259888,199.617584,674.424316,199.517303C672.928162,199.337769,672.847473,199.363525,669.133301,201.207001C667.058838,202.236603,664.806946,203.310181,664.129028,203.592682C662.959045,204.080261,662.881226,204.178162,662.596252,205.520752C662.256226,207.122528,661.986206,207.555054,660.874878,208.277786C660.219971,208.703674,659.570679,208.791748,656.906616,208.815994C651.296997,208.867035,642.416382,209.395203,640.089294,209.816193C637.451965,210.293274,631.518921,212.271545,629.171631,213.456451C623.081848,216.530563,616.714966,222.648926,612.613647,229.368195C612.01001,230.357147,610.516418,233.154755,609.294556,235.585114C608.072693,238.015472,606.765259,240.413971,606.389221,240.915131C605.111633,242.617737,605.535034,243.769897,609.311096,248.866379C610.335266,250.248657,611.92865,252.510559,612.851929,253.892838C615.153809,257.339111,615.611023,257.623901,616.968018,256.456696M714.345703,232.530396C714.745056,231.839264,715.510986,230.678543,716.047729,229.951035C716.584534,229.223511,717.40686,227.861725,717.875122,226.924835C718.343445,225.987946,718.971924,224.889496,719.271851,224.483841C719.72168,223.875397,719.765869,223.633789,719.524353,223.103638C719.211914,222.417892,715.957886,219.826569,713.772827,218.523483C706.682556,214.294983,703.593506,212.889053,698.771362,211.695923C695.534302,210.895004,694.528015,210.279572,692.847107,208.072693C690.605286,205.12941,687.050964,201.159821,685.211975,199.545471C684.228516,198.68219,682.126221,197.11673,680.5401,196.066681C677.864563,194.295349,677.524414,194.144226,675.829468,193.97403C673.608459,193.750977,672.955078,193.930283,672.730652,194.824432C672.444214,195.965576,672.910095,196.333755,674.913574,196.549774C677.561768,196.835281,678.508484,197.284119,681.895996,199.859909C684.080322,201.520828,685.162109,202.541519,685.731934,203.479065C686.168457,204.197235,687.436401,205.685333,688.549561,206.785934C689.662781,207.88652,691.050842,209.451904,691.634216,210.264587C693.137512,212.358887,694.076111,213.062408,695.8479,213.422897C700.938477,214.458633,706.147583,216.527695,708.095642,218.287643C709.322876,219.396408,709.716919,219.603271,711.370789,220.007065C712.855225,220.369507,715.243652,221.857849,715.866699,222.808655C716.573242,223.887054,716.384338,225.266907,715.250977,227.305527C713.431458,230.578384,712.167114,231.18988,709.632141,230.023102C706.667847,228.658661,705.619873,226.616791,706.379517,223.685364C706.955933,221.460983,706.775879,220.991364,704.876221,219.763519C702.69574,218.354233,699.760864,217.264191,696.294983,216.576385C692.068054,215.737564,691.473145,215.363037,689.369812,212.216644C688.126282,210.35643,686.34082,208.654724,685.632568,208.654724C685.360474,208.654724,684.586365,208.898682,683.912354,209.196808C682.914307,209.638321,682.393005,209.705643,681.102844,209.559692C678.602661,209.276825,678.021973,210.124634,679.62085,211.723511C680.704224,212.80687,681.174133,212.834915,682.935059,211.921326C684.161316,211.285095,684.384399,211.248688,685.326416,211.530945C686.579712,211.906433,687.696899,213.177185,688.778687,215.457764C689.207642,216.362122,689.828613,217.269043,690.158508,217.47316C690.488464,217.677277,692.425049,218.16803,694.462097,218.563751C700.672729,219.770264,702.679749,220.63205,703.638733,222.50415C704.198425,223.596741,704.252197,224.388428,704.045776,228.496002C703.987,229.664917,704.007019,229.696075,705.149414,230.215576C705.789307,230.506592,707.634521,231.417786,709.249939,232.240448C712.997437,234.148956,713.397461,234.171722,714.345703,232.530396M681.578491,281.63324C681.695618,280.65033,680.757202,278.368835,679.261353,276.000061C676.90564,272.269379,676.177185,271.778625,669.991211,269.754272C665.435547,268.263397,664.407104,267.837219,662.956238,266.83902C660.397339,265.07843,660.399353,263.676819,662.982117,248.931992C663.205078,247.659134,663.458984,245.900009,663.546265,245.022812C663.758301,242.893127,663.511169,242.695404,660.792725,242.819611C658.996155,242.901703,658.524414,243.034607,657.171387,243.83992C655.112061,245.065628,652.536377,247.480621,651.199158,249.439682C649.162476,252.423462,646.975342,258.075928,646.975342,260.355865C646.975342,261.689331,647.281921,261.881042,650.149963,262.340942C654.497009,263.038025,656.909241,263.907349,657.653748,265.045166C657.876953,265.38623,658.233582,266.320068,658.446228,267.120361C658.658936,267.920593,659.206848,270.003967,659.663818,271.749969C660.420105,274.639648,662.031677,278.53421,662.899597,279.569672C663.089661,279.796448,663.934326,280.540497,664.776611,281.223114C666.621399,282.71817,667.647827,282.824707,670.36261,281.802887C672.466431,281.010986,674.478149,280.926514,675.086548,281.604492C675.315063,281.8591,675.588745,282.54364,675.694824,283.125641C675.800903,283.707642,676.003479,284.259003,676.14502,284.350891C676.28656,284.442749,677.549133,284.018677,678.950745,283.408508C681.118591,282.464783,681.510986,282.199677,681.578491,281.63324"/>
</svg>
