<?xml version="1.0" encoding="UTF-8"?>
<svg xmlns="http://www.w3.org/2000/svg" width="423.731mm" height="119.336mm" viewBox="-433.887207 -129.609131 423.731140 119.335876">
    <path transform="matrix(1.32029,-0,0,1.32029,-541.78302,-916.099976)" style="stroke:#000000;stroke-width:0.05mm;fill:none" d="M312.039063,596.09375L352.113281,596.09375C353.243652,598.080933,354.561035,600.401733,355.6875,602.390625L335.773438,636.90625L315.855469,671.425781C313.298523,671.472412,310.927948,671.518311,308.367188,671.570313L307.320313,669.777344C307.275879,669.699341,307.231415,669.621277,307.1875,669.542969L307.117188,669.421875L307.035156,669.285156L306.945313,669.125L306.839844,668.945313L306.726563,668.746094L306.597656,668.527344C304.899658,665.591797,303.379639,662.959473,301.6875,660.023438L301.023438,658.875L300.328125,657.671875L299.609375,656.425781L298.863281,655.132813L298.089844,653.796875L297.296875,652.417969L296.476563,651L295.636719,649.546875L294.78125,648.058594L293.902344,646.539063L293.007813,644.988281L292.097656,643.410156L291.171875,641.808594L290.230469,640.179688L289.28125,638.53125C288.65625,637.444702,287.97583,636.265259,287.347656,635.179688L268.421875,602.382813C269.63501,600.303223,270.815979,598.205566,271.964844,596.089844L312.039063,596.09375z"/>
    <path transform="matrix(1.32029,-0,0,1.32029,-541.78302,-916.099976)" style="stroke:#000000;stroke-width:0.05mm;fill:none" d="M288.328125,625.398438C288.756104,630.647827,290.931976,635.601868,294.507813,639.46875C295.673065,640.775146,296.971771,641.956055,298.382813,642.992188C298.919373,643.366516,299.481995,643.702026,300.066406,643.996094L300.121094,644.011719L300.136719,644.003906C300.588379,643.332764,301.014465,642.644775,301.414063,641.941406C302.394623,640.288635,303.360687,638.632141,304.316406,636.964844L308.363281,629.925781C307.756348,629.389648,307.172424,628.828003,306.613281,628.242188C305.773621,627.334717,305.219116,626.200562,305.019531,624.980469L304.722656,623.496094L296.441406,623.425781L288.15625,623.355469L288.328125,625.398438z"/>
    <path transform="matrix(1.32029,-0,0,1.32029,-541.78302,-916.099976)" style="stroke:#000000;stroke-width:0.05mm;fill:none" d="M319.488281,623.363281C319.359436,624.03125,319.212341,624.695618,319.046875,625.355469C318.702362,626.703918,317.951843,627.914612,316.898438,628.824219L315.742188,629.914063C317.593323,633.184692,319.465149,636.441589,321.359375,639.6875C322.14917,641.077332,322.981567,642.442688,323.855469,643.78125C323.901337,643.860291,323.957123,643.933289,324.023438,643.996094L324.039063,644.003906L324.074219,644L324.121094,643.984375C325.256042,643.362122,326.316376,642.612732,327.28125,641.75C329.22937,640.038452,330.938629,638.072998,332.363281,635.90625C334.209869,632.795654,335.374695,629.328857,335.78125,625.734375C335.843567,624.945618,335.864441,624.154175,335.84375,623.363281L319.488281,623.363281z"/>
    <path transform="matrix(1.32029,-0,0,1.32029,-541.78302,-916.099976)" style="stroke:#000000;stroke-width:0.05mm;fill:none" d="M311.542969,618.59375C310.511688,618.717041,309.547913,619.169495,308.792969,619.882813C308.293518,620.339844,307.878601,620.881592,307.570313,621.484375C307.33139,622.081482,307.236908,622.726501,307.292969,623.367188C307.284882,624.113586,307.42392,624.854614,307.703125,625.546875C308.333405,626.977356,309.642212,627.993835,311.183594,628.253906C313.376038,628.657898,315.560822,627.513062,316.476563,625.480469C316.743927,624.957886,316.931427,624.398071,317.035156,623.820313C317.088562,623.461548,317.05719,623.095093,316.945313,622.75C316.696655,621.843323,316.261475,620.998657,315.667969,620.269531C314.871155,619.335205,313.751068,618.734924,312.53125,618.59375C312.20285,618.557495,311.87146,618.558228,311.542969,618.59375z"/>
    <path transform="matrix(1.32029,-0,0,1.32029,-541.78302,-916.099976)" style="stroke:#000000;stroke-width:0.05mm;fill:none" d="M310.492188,599.671875C307.869598,599.859924,305.294037,600.466431,302.863281,601.46875C302.126404,601.760132,301.404205,602.087402,300.699219,602.449219L300.570313,602.527344L300.46875,602.597656C300.418152,602.636902,300.376984,602.685547,300.335938,602.734375C300.312775,602.776062,300.293854,602.820068,300.285156,602.867188C300.305634,603.060364,300.373077,603.245911,300.488281,603.402344C302.986816,607.840942,305.534424,612.258484,308.125,616.644531C308.201416,616.769226,308.289581,616.886475,308.390625,616.992188C308.471863,616.989868,308.550781,616.969971,308.625,616.9375C309.105621,616.757385,309.592865,616.595642,310.085938,616.453125C311.568848,616.114563,313.114624,616.174988,314.566406,616.628906C314.969666,616.786499,315.388947,616.899841,315.816406,616.96875L315.851563,616.960938C318.561707,612.303101,321.240662,607.634888,323.894531,602.945313L323.890625,602.875C323.751404,602.694153,323.569275,602.551453,323.363281,602.453125C322.335022,601.891357,321.257629,601.424561,320.144531,601.058594C317.058075,599.93219,313.770935,599.460083,310.492188,599.671875z"/>
    <path transform="matrix(-0.660148,1.14341,-1.14341,-0.660148,697.02002,-306.427002)" style="stroke:#000000;stroke-width:0.05mm;fill:none" d="M587.449219,597.878906C588.28418,599.388062,589.136841,600.886353,590.007813,602.375L570.089844,636.902344L550.167969,671.425781C548.219727,671.477417,546.269226,671.511292,544.320313,671.527344C543.822754,671.55249,543.323914,671.514465,542.835938,671.414063L542.714844,671.367188L542.617188,671.308594C542.444092,671.139893,542.2995,670.944641,542.1875,670.730469L542.121094,670.617188C541.40686,669.388794,540.711304,668.189819,540,666.960938L539.769531,666.5625L539.53125,666.148438L539.28125,665.71875L539.023438,665.269531L538.753906,664.808594L538.476563,664.328125L538.191406,663.832031L537.898438,663.324219L537.59375,662.800781L537.28125,662.261719L536.964844,661.707031L536.636719,661.140625L536.300781,660.558594L535.605469,659.355469L534.882813,658.101563L534.128906,656.800781L533.347656,655.449219L532.542969,654.054688L531.714844,652.617188L530.859375,651.136719L529.984375,649.621094L529.089844,648.070313L528.171875,646.484375L527.238281,644.863281L526.289063,643.21875L525.324219,641.542969L524.34375,639.84375L523.351563,638.121094L522.34375,636.378906L502.742188,602.390625L506.320313,596.09375L546.394531,596.09375L586.464844,596.089844L587.449219,597.878906z"/>
    <path transform="matrix(-0.660148,1.14341,-1.14341,-0.660148,697.02002,-306.427002)" style="stroke:#000000;stroke-width:0.05mm;fill:none" d="M540.601563,600.355469L540.59375,600.382813C540.606506,600.483643,540.639038,600.580566,540.683594,600.671875C541.726318,603.221069,542.795166,605.820557,543.847656,608.367188C544.687744,610.412354,545.50415,612.394043,546.347656,614.4375C547.113525,616.28772,547.890869,618.171509,548.652344,620.023438L548.664063,620.095703C547.889404,620.020874,547.119812,619.900085,546.359375,619.734375C541.980408,618.891113,537.614685,617.986206,533.261719,617.019531C530.444702,616.391602,527.618042,615.801514,524.785156,615.25C526.534912,618.459961,528.320068,621.650085,530.140625,624.820313C533.807617,631.317139,537.487305,637.801514,541.183594,644.28125L548.660156,644.28125C549.974487,644.285889,551.288696,644.257263,552.601563,644.195313C552.885315,644.197693,553.167664,644.147888,553.429688,644.039063L553.464844,643.996094C553.462585,643.970825,553.460327,643.945618,553.449219,643.921875C552.149292,641.941406,550.815552,639.982422,549.449219,638.046875C547.09967,634.699463,544.759827,631.324097,542.449219,627.949219C542.280701,627.715088,542.131104,627.467773,542.007813,627.207031L542,627.171875L542.015625,627.140625C542.055542,627.147583,542.094788,627.157654,542.132813,627.171875C542.172424,627.188477,542.213196,627.201416,542.253906,627.214844C546.367859,628.12793,550.493103,628.99939,554.625,629.828125C558.615906,630.674133,562.610901,631.480896,566.617188,632.25C566.641907,632.252319,566.666565,632.256348,566.691406,632.257813C564.040771,628.916077,561.363892,625.600281,558.65625,622.304688C552.773071,615.031494,546.856812,607.80127,540.890625,600.59375C540.814209,600.497375,540.728149,600.40863,540.621094,600.347656L540.601563,600.355469z"/>
    <path transform="matrix(-1.32029,0,0,-1.32029,498.924011,631.622986)" style="stroke:#000000;stroke-width:0.05mm;fill:none" d="M471.070313,491.753906L472.851563,494.917969L452.867188,529.546875L432.882813,564.179688L425.546875,564.179688L405.5625,529.546875L385.582031,494.917969L387.363281,491.753906L389.144531,488.59375L469.289063,488.59375L471.070313,491.753906z"/>
    <path transform="matrix(-1.32029,0,0,-1.32029,498.924011,631.622986)" style="stroke:#000000;stroke-width:0.05mm;fill:none" d="M432.660156,494.570313C432.603912,494.572906,432.547729,494.576263,432.492188,494.585938L432.4375,494.605469L432.402344,494.625L432.390625,494.652344C432.550903,494.803711,432.738739,494.922882,432.945313,495C433.686279,495.308044,434.413635,495.648254,435.125,496.019531C436.251953,496.624023,437.318207,497.33548,438.308594,498.144531C438.911865,498.653564,439.427643,499.258057,439.835938,499.933594C440.782135,501.442719,441.34436,503.160919,441.472656,504.9375C441.525208,505.198212,441.541229,505.465057,441.523438,505.730469C441.495758,505.713409,441.472015,505.692657,441.445313,505.675781C441.131439,505.290039,440.839203,504.887085,440.570313,504.46875C439.988495,503.611267,439.183655,502.929077,438.242188,502.496094C437.462708,502.155884,436.603485,502.04248,435.761719,502.164063C435.241577,502.253998,434.780518,502.553955,434.492188,502.996094C434.158356,503.562714,433.925171,504.182373,433.800781,504.828125C433.603149,505.825134,433.457397,506.831726,433.363281,507.84375C433.139771,509.880737,432.725037,511.892151,432.125,513.851563C431.87561,514.700134,431.522339,515.514832,431.074219,516.277344C430.57608,517.032349,430.03067,517.755127,429.441406,518.441406C428.835297,519.189758,428.184418,519.900818,427.492188,520.570313C427.35968,520.718567,427.197968,520.83783,427.019531,520.925781L426.976563,520.925781C426.960541,520.867188,426.961975,520.805786,426.988281,520.75C427.561646,519.328979,428.048248,517.874512,428.445313,516.394531C428.742432,515.059021,428.899292,513.696228,428.914063,512.328125C428.969147,511.205139,428.886261,510.079498,428.667969,508.976563C428.382446,507.704926,427.804596,506.517456,426.980469,505.507813C426.151642,504.594238,425.098724,503.913086,423.925781,503.53125C423.289856,503.339508,422.606812,503.373169,421.992188,503.625C420.971588,504.0383,420.061432,504.682953,419.332031,505.507813C418.631897,506.263824,418.078613,507.143555,417.699219,508.101563L417.308594,509.101563C417.383972,508.08078,417.497437,507.06311,417.648438,506.050781C417.866364,504.563232,418.318573,503.119446,418.988281,501.773438C419.777435,500.293976,420.815887,498.96167,422.058594,497.835938C422.915436,497.015991,423.842163,496.272339,424.828125,495.613281C425.234497,495.399231,425.620575,495.148651,425.980469,494.863281L426.03125,494.792969L426.03125,494.746094L425.976563,494.71875C425.623047,494.72229,425.272095,494.776947,424.933594,494.878906C422.881805,495.3396,420.898071,496.063232,419.03125,497.03125C416.69278,498.250031,414.673676,500.001709,413.136719,502.144531C411.749512,504.097351,410.847076,506.35199,410.503906,508.722656C410.201965,511.232178,410.306122,513.773621,410.8125,516.25C411.292694,518.129761,411.994385,519.945618,412.902344,521.660156C412.991852,521.852173,413.114594,522.027527,413.269531,522.171875L413.3125,522.199219C413.330872,522.197815,413.347565,522.20282,413.367188,522.199219C413.455322,522.02655,413.50766,521.838013,413.519531,521.644531C413.617157,520.90332,413.694092,520.159607,413.75,519.414063C413.858795,518.434998,414.150879,517.485168,414.609375,516.613281C414.854248,516.137695,415.228455,515.740601,415.691406,515.472656C416.6203,515.033752,417.674103,514.934998,418.667969,515.195313C419.397827,515.357483,420.070679,515.712463,420.617188,516.222656C421.108063,516.718689,421.409576,517.371033,421.46875,518.066406C421.565735,519.00116,421.535797,519.944519,421.378906,520.871094C421.226013,521.828369,421.03714,522.779602,420.8125,523.722656C420.528778,525.234802,420.386505,526.77002,420.386719,528.308594C420.349701,529.717651,420.368011,531.127502,420.441406,532.535156C420.500397,533.310669,420.687561,534.071167,420.996094,534.785156C422.063385,537.490723,423.921539,539.812073,426.328125,541.445313C426.639618,541.679138,426.973175,541.882019,427.324219,542.050781L427.390625,542.066406L427.421875,542.039063C427.422546,541.739685,427.372009,541.44281,427.273438,541.160156C426.436798,538.719788,425.936127,536.177002,425.785156,533.601563C425.69751,531.656189,426.106049,529.720459,426.972656,527.976563C427.666809,526.576355,428.773529,525.422119,430.144531,524.671875C431.701263,523.856201,433.526917,523.725891,435.183594,524.3125C436.316498,524.749512,437.253906,525.580322,437.824219,526.652344C438.288757,527.521484,438.57254,528.475464,438.660156,529.457031C438.677002,529.852478,438.735046,530.245178,438.832031,530.628906L438.859375,530.691406C438.881134,530.714478,438.905853,530.734436,438.933594,530.75C438.965759,530.752014,438.996918,530.744324,439.027344,530.734375C439.320984,530.536255,439.563812,530.271423,439.734375,529.960938C440.364624,529.003296,440.881287,527.975708,441.273438,526.898438C441.443146,526.257629,441.522095,525.596313,441.507813,524.933594C441.531616,524.029907,441.496399,523.125671,441.402344,522.226563C441.194672,520.885681,440.889313,519.56189,440.488281,518.265625C440.140106,517.134155,439.868774,515.980469,439.675781,514.8125C439.572418,514.216614,439.573273,513.607056,439.679688,513.011719C439.929321,511.900543,440.685577,510.970612,441.722656,510.5C442.888824,509.939636,444.244171,509.928436,445.417969,510.472656C445.917053,510.735352,446.326996,511.138519,446.605469,511.628906C447.215698,512.706238,447.625305,513.885498,447.8125,515.109375C447.942108,515.911499,448.009094,516.722656,448.011719,517.535156C448.010895,517.637329,448.042114,517.736206,448.09375,517.824219L448.140625,517.839844L448.191406,517.820313C448.357697,517.611755,448.4841,517.374756,448.566406,517.121094C449.435822,514.939148,449.902863,512.61792,449.945313,510.269531C449.978302,506.386353,448.412872,502.660065,445.617188,499.964844C443.156921,497.502533,440.024689,495.820435,436.613281,495.128906C435.439545,494.864532,434.249329,494.679413,433.050781,494.574219C432.920898,494.563446,432.790405,494.564056,432.660156,494.570313z"/>
    <path transform="matrix(-1.32029,0,0,-1.32029,407.191986,634.807007)" style="stroke:#000000;stroke-width:0.05mm;fill:none" d="M546.375,488.652344L586.425781,488.710938C587.545898,490.642456,588.897949,492.967651,590.023438,494.898438L570.433594,528.875L569.429688,530.617188C563.19458,541.479004,556.931396,552.297852,550.617188,563.113281C550.558472,563.225037,550.492554,563.332886,550.421875,563.4375C550.367249,563.513794,550.309387,563.587585,550.25,563.660156C550.105896,563.823792,549.90741,563.931396,549.691406,563.960938C548.961121,564.071411,548.2229,564.120911,547.484375,564.109375C545.88678,564.139709,544.296997,564.163086,542.699219,564.179688L522.726563,529.554688L502.75,494.933594L506.320313,488.589844L546.375,488.652344z"/>
    <path transform="matrix(-1.32029,0,0,-1.32029,407.191986,634.807007)" style="stroke:#000000;stroke-width:0.05mm;fill:none" d="M538.261719,513.601563L538.265625,513.65625C538.925659,518.081116,539.629639,522.506714,540.375,526.917969C540.973511,530.679626,541.606201,534.43396,542.273438,538.183594C542.287476,538.251465,542.305115,538.318604,542.339844,538.378906L542.394531,538.441406L542.472656,538.484375L542.566406,538.511719C542.883606,538.51416,543.198608,538.462158,543.5,538.363281C545.119446,537.99585,546.751831,537.615967,548.367188,537.230469C548.895203,537.108032,549.410034,536.933899,549.902344,536.707031L549.949219,536.671875C549.958252,536.651123,549.957397,536.630249,549.957031,536.609375C548.938843,534.449463,547.882446,532.306519,546.789063,530.183594C544.134644,524.871704,541.427002,519.574951,538.675781,514.3125C538.55011,514.057922,538.410645,513.810303,538.255859,513.572266L538.261719,513.601563z"/>
    <path transform="matrix(-1.32029,0,0,-1.32029,407.191986,634.807007)" style="stroke:#000000;stroke-width:0.05mm;fill:none" d="M531.082031,524.753906C531.058838,524.773804,531.037781,524.795593,531.019531,524.820313C530.743958,525.437073,530.508728,526.071167,530.316406,526.71875C529.693726,528.553406,529.142578,530.411621,528.664063,532.289063C528.62262,532.407959,528.608704,532.534485,528.617188,532.660156L528.65625,532.679688C528.713501,532.691467,528.770508,532.704285,528.828125,532.714844L528.957031,532.730469C530.944458,532.850281,532.937805,532.826904,534.921875,532.660156L535.015625,532.640625C535.046143,532.628967,535.076782,532.617859,535.105469,532.601563C535.118835,532.571228,535.123535,532.539246,535.132813,532.507813C535.241516,531.602722,535.30365,530.692688,535.320313,529.78125L535.417969,527.164063C534.590088,526.631836,533.754883,526.109314,532.914063,525.597656C532.404602,525.269165,531.860962,524.996887,531.292969,524.785156C531.240723,524.772583,531.18811,524.76416,531.136719,524.75L531.082031,524.753906z"/>
    <path transform="matrix(-1.32029,0,0,-1.32029,407.191986,634.807007)" style="stroke:#000000;stroke-width:0.05mm;fill:none" d="M545.757813,510.304688C547.361572,512.351563,549.001099,514.369995,550.675781,516.359375C554.138062,520.589478,557.660278,524.769287,561.242188,528.898438C561.579224,529.316284,561.94812,529.707458,562.34375,530.070313L562.378906,530.046875C563.139709,529.250549,563.865784,528.421753,564.554688,527.5625C565.557312,526.406921,566.520142,525.217529,567.441406,523.996094C567.460144,523.972107,567.466187,523.944641,567.476563,523.917969C562.728577,520.878967,557.953186,517.868225,553.164063,514.894531C550.71051,513.33728,548.238037,511.80191,545.753906,510.292969L545.757813,510.304688z"/>
    <path transform="matrix(-1.32029,0,0,-1.32029,407.191986,634.807007)" style="stroke:#000000;stroke-width:0.05mm;fill:none" d="M539.359375,493.375C535.634399,493.487244,532.120728,495.13382,529.652344,497.925781C528.175415,499.488892,527.137085,501.41449,526.644531,503.507813C526.063965,506.096375,526.189392,508.792938,527.007813,511.316406C527.657104,513.145325,528.699768,514.809509,530.0625,516.191406C530.47699,516.648315,530.93927,517.05957,531.441406,517.417969C531.533875,517.484375,531.637146,517.533447,531.746094,517.566406C531.77356,517.569458,531.795654,517.558228,531.820313,517.550781L531.847656,517.503906L531.878906,517.425781C532.241394,516.144836,532.538391,514.846191,532.769531,513.535156C532.960327,512.441833,533.214722,511.360596,533.53125,510.296875C533.584595,510.107666,533.673523,509.930573,533.796875,509.777344C533.82489,509.769684,533.853394,509.764069,533.882813,509.765625C533.928772,509.774414,533.974548,509.783875,534.019531,509.796875C534.680359,510.01593,535.328552,510.271332,535.960938,510.5625L537.746094,511.367188C538.917969,510.926086,540.079773,510.458527,541.230469,509.964844C541.779175,509.748688,542.304199,509.476501,542.796875,509.152344L542.847656,509.105469C542.861633,509.076324,542.868164,509.04657,542.882813,509.019531L542.886719,508.945313C542.848022,507.887085,542.738708,506.832581,542.558594,505.789063C542.394287,504.810638,542.274353,503.825226,542.199219,502.835938C542.202515,502.811188,542.203064,502.786377,542.207031,502.761719C544.847717,501.23999,547.484802,499.737671,550.140625,498.242188C549.502625,497.625275,548.850037,497.02356,548.183594,496.4375C545.719116,494.365814,542.577393,493.275238,539.359375,493.375z"/>
    <path transform="matrix(-1.32029,0,0,-1.32029,407.191986,634.807007)" style="stroke:#000000;stroke-width:0.05mm;fill:none" d="M560.519531,509.070313L560.449219,509.09375C560.36322,509.136505,560.28241,509.189209,560.214844,509.257813C559.802612,509.709808,559.446594,510.209778,559.152344,510.746094C558.685425,511.519287,558.225098,512.29425,557.769531,513.074219C559.528931,513.944458,561.299377,514.795227,563.078125,515.625C563.650269,515.908569,564.240051,516.15509,564.84375,516.363281C564.90863,516.353394,564.969116,516.32782,565.019531,516.285156L565.0625,516.210938C565.160583,515.835144,565.193787,515.445496,565.160156,515.058594C565.091187,513.314026,564.983093,511.571716,564.835938,509.832031C563.449036,509.621582,562.068481,509.372772,560.695313,509.085938C560.63739,509.074097,560.578613,509.069061,560.519531,509.070313z"/>
    <path transform="matrix(-1.32029,0,0,-1.32029,407.191986,634.807007)" style="stroke:#000000;stroke-width:0.05mm;fill:none" d="M572.285156,500.496094C565.161255,500.914795,558.109741,501.354736,550.988281,501.824219C550.728516,501.843811,550.469421,501.870148,550.210938,501.902344L550.179688,501.910156C550.203918,501.923187,550.229126,501.933624,550.253906,501.945313C552.151306,502.463989,554.060791,502.938049,555.980469,503.367188L556.601563,503.519531L557.261719,503.675781L557.953125,503.84375L558.671875,504.015625C563.228088,505.136963,567.821594,506.254639,572.382813,507.351563L572.402344,507.335938C572.416992,507.292175,572.430847,507.248138,572.441406,507.203125C572.538147,506.348541,572.582336,505.488892,572.574219,504.628906C572.610657,503.339996,572.571838,502.049957,572.457031,500.765625C572.448303,500.698364,572.4328,500.632477,572.417969,500.566406L572.398438,500.511719L572.378906,500.496094L572.285156,500.496094z"/>
    <path transform="matrix(-1.32029,0,0,-1.32029,530.622009,917.549988)" style="stroke:#000000;stroke-width:0.05mm;fill:none" d="M587.453125,705.386719C588.280884,706.88623,589.135193,708.370728,590.015625,709.839844L550.148438,778.933594L542.742188,779.082031C541.341187,776.704834,539.957886,774.333862,538.578125,771.945313L536.117188,767.6875L535.421875,766.484375L534.699219,765.234375L533.945313,763.929688L533.167969,762.582031L532.363281,761.191406L531.535156,759.757813L530.683594,758.285156L529.8125,756.773438L528.917969,755.226563L528.007813,753.648438L527.078125,752.035156L526.132813,750.398438L525.171875,748.734375L524.195313,747.042969L523.210938,745.332031L522.210938,743.601563L502.742188,709.859375L504.53125,706.730469L506.320313,703.605469L546.394531,703.601563L586.464844,703.601563L587.453125,705.386719z"/>
    <path transform="matrix(-1.32029,0,0,-1.32029,530.622009,917.549988)" style="stroke:#000000;stroke-width:0.05mm;fill:none" d="M569.273438,720.40625C569.257629,720.481323,569.241333,720.556091,569.238281,720.632813C569.282654,721.124451,569.319031,721.616577,569.347656,722.109375C569.348755,723.372864,569.110718,724.624878,568.648438,725.800781C567.848633,727.918274,566.434204,729.747986,564.585938,731.054688C563.324463,731.909119,561.859619,732.415283,560.339844,732.523438C558.737793,732.700623,557.116211,732.537231,555.582031,732.042969C554.725342,731.741028,553.922668,731.304321,553.203125,730.75C552.338928,730.1073,551.577637,729.33667,550.945313,728.464844L549.214844,729.222656C549.333496,729.776367,549.333862,730.348694,549.214844,730.902344C549.173401,731.080139,549.093506,731.246216,548.992188,731.398438C548.639893,731.909241,548.194885,732.349487,547.679688,732.695313C547.493408,732.799438,547.296143,732.882935,547.089844,732.9375L547.257813,734.679688C552.621216,735.205627,556.620178,739.860779,556.332031,745.242188C556.160706,748.752808,554.222717,751.9375,551.183594,753.703125C550.521362,754.071655,549.849365,754.422119,549.167969,754.753906C549.816284,754.659729,550.46228,754.550293,551.105469,754.425781C555.726746,753.314453,559.417358,749.844482,560.8125,745.300781C561.305786,743.819519,561.615417,742.283264,561.734375,740.726563C561.731995,740.135498,561.734558,739.544128,561.742188,738.953125C563.136414,738.202637,564.4328,737.28302,565.601563,736.214844C566.750366,735.152588,567.746704,733.936707,568.5625,732.601563C570.341675,729.573853,570.884583,725.976501,570.078125,722.558594C569.9505,721.832336,569.728943,721.125671,569.417969,720.457031C569.39209,720.416992,569.352783,720.391479,569.3125,720.367188L569.273438,720.40625z"/>
    <path transform="matrix(-1.32029,0,0,-1.32029,530.622009,917.549988)" style="stroke:#000000;stroke-width:0.05mm;fill:none" d="M523.273438,720.566406C523.237976,720.628845,523.205139,720.692566,523.167969,720.753906C522.484009,722.724426,522.216492,724.815369,522.382813,726.894531C522.600952,729.393372,523.504944,731.783813,524.996094,733.800781C526.205811,735.495422,527.741089,736.931885,529.511719,738.027344C529.924988,738.311951,530.298035,738.650574,530.625,739.03125C530.935486,739.556946,531.079529,740.164246,531.039063,740.773438C531.160767,744.256897,532.46228,747.595581,534.730469,750.242188C536.703003,752.487122,539.368713,754.008911,542.304688,754.566406C542.396729,754.60376,542.49469,754.624084,542.59375,754.632813C542.691223,754.641235,542.78894,754.645691,542.886719,754.648438L542.902344,754.511719C542.853394,754.463501,542.80011,754.419739,542.742188,754.382813C541.499268,753.781067,540.368164,752.971436,539.398438,751.988281C538.520752,751.078979,537.812622,750.020508,537.304688,748.863281C536.969971,748.247375,536.724609,747.587036,536.574219,746.902344C536.409668,745.358398,536.44696,743.799561,536.6875,742.265625C536.907349,741.075134,537.40387,739.95282,538.140625,738.992188C539.164124,737.637817,540.456482,736.509338,541.9375,735.679688C543.061523,735.127258,544.279114,734.789856,545.527344,734.6875L545.761719,732.953125C545.391357,732.879089,545.047852,732.70459,544.769531,732.449219C544.313538,732.089355,543.932983,731.643127,543.648438,731.136719C543.464661,730.509521,543.433655,729.847046,543.566406,729.207031L541.847656,728.464844C540.584045,730.235474,538.773743,731.541809,536.695313,732.183594C534.81543,732.820984,532.784973,732.866638,530.878906,732.3125C528.844238,731.649048,527.048218,730.405212,525.710938,728.734375C524.442871,727.274475,523.696228,725.434509,523.585938,723.503906C523.558716,722.770996,523.528748,722.037537,523.496094,721.304688C523.488098,721.033386,523.442566,720.764648,523.367188,720.503906L523.34375,720.488281L523.273438,720.566406z"/>
    <path transform="matrix(-1.32029,0,0,-1.32029,530.622009,917.549988)" style="stroke:#000000;stroke-width:0.05mm;fill:none" d="M538.449219,742.480469C539.299072,742.92334,540.169922,743.324829,541.058594,743.683594C543.062988,744.474182,545.225037,744.786377,547.371094,744.59375C549.300476,744.453552,551.188965,743.967102,552.945313,743.15625L554.339844,742.480469C553.85675,741.589905,553.359131,740.706604,552.847656,739.832031C552.717285,739.606201,552.546997,739.40686,552.351563,739.234375L552.246094,739.179688L552.070313,739.160156L551.894531,739.175781C551.460205,739.343201,551.033813,739.530701,550.617188,739.738281C547.683472,741.019958,544.32605,740.899719,541.492188,739.410156L540.425781,738.863281L538.449219,742.480469z"/>
    <path transform="matrix(-1.32029,0,0,-1.32029,530.622009,917.549988)" style="stroke:#000000;stroke-width:0.05mm;fill:none" d="M539.417969,717.125L539.265625,717.183594C538.742554,717.462769,538.24823,717.792786,537.789063,718.167969C536.572998,719.086609,535.483887,720.162231,534.550781,721.367188C533.274353,723.09021,532.416809,725.087097,532.046875,727.199219C531.839417,728.327271,531.691956,729.465637,531.605469,730.609375L535.734375,730.609375C535.796814,729.830566,535.874817,729.052917,535.96875,728.277344C536.420532,725.179565,538.246582,722.451294,540.9375,720.851563L541.582031,720.386719C541.531128,720.195068,541.446411,720.014771,541.339844,719.847656C540.83728,718.893799,540.249146,717.987549,539.582031,717.140625L539.53125,717.101563L539.417969,717.125z"/>
    <path transform="matrix(-1.32029,0,0,-1.32029,530.622009,917.549988)" style="stroke:#000000;stroke-width:0.05mm;fill:none" d="M553.175781,717.113281L553.148438,717.136719C552.390808,718.159241,551.722778,719.245178,551.152344,720.382813C551.567505,720.718933,552.004578,721.027039,552.460938,721.304688C553.820984,722.222351,554.931763,723.463745,555.691406,724.917969C556.494934,726.355042,556.933899,727.967163,556.96875,729.613281L556.972656,730.609375L560.941406,730.609375C560.94928,729.993347,560.941284,729.377319,560.917969,728.761719C560.618896,724.804932,558.688599,721.150513,555.589844,718.671875C554.930298,718.089844,554.20575,717.585876,553.429688,717.171875L553.195313,717.101563L553.175781,717.113281z"/>
    <path transform="matrix(-1.32029,0,0,-1.32029,530.622009,917.549988)" style="stroke:#000000;stroke-width:0.05mm;fill:none" d="M554.960938,709.527344C553.046448,709.645813,551.164429,710.07843,549.390625,710.808594C548.379272,711.230774,547.378906,711.678711,546.390625,712.152344C545.240845,711.598572,544.074951,711.078918,542.894531,710.59375C539.85553,709.432678,536.52655,709.265686,533.386719,710.117188C532.388794,710.409424,531.432495,710.828735,530.542969,711.367188C529.211792,712.304199,527.976379,713.3703,526.855469,714.550781C526.796204,714.624573,526.744324,714.703979,526.695313,714.785156L526.808594,714.863281C527.135742,714.750244,527.441101,714.580933,527.707031,714.359375C528.875244,713.588562,530.200317,713.088013,531.585938,712.890625C532.843323,712.707642,534.117737,712.674683,535.382813,712.792969C536.217285,712.948486,537.023804,713.226379,537.777344,713.617188C539.117798,714.230652,540.310974,715.125061,541.277344,716.238281C543.817627,719.199219,544.39502,723.370789,542.753906,726.910156L544.175781,727.984375C544.621948,727.498596,545.213867,727.169922,545.863281,727.054688C546.890259,726.842224,547.950439,727.212646,548.625,728.015625L550.046875,726.953125C548.313599,723.301208,548.966858,718.963501,551.699219,715.984375C554.213257,713.212219,558.049438,712.047913,561.679688,712.957031C562.791626,713.207825,563.850769,713.651611,564.808594,714.269531C565.217224,714.518127,565.645569,714.732971,566.089844,714.910156L566.136719,714.902344C566.155823,714.820251,566.134338,714.734741,566.078125,714.671875C565.941772,714.493408,565.795227,714.322998,565.640625,714.160156C564.381226,712.959412,562.980591,711.91626,561.46875,711.054688C559.469177,709.988342,557.226135,709.462158,554.960938,709.527344z"/>
    <path transform="matrix(1.32029,-0,0,1.32029,-818.482971,-916.640991)" style="stroke:#000000;stroke-width:0.05mm;fill:none" d="M471.070313,599.242188L472.851563,602.375L452.933594,636.902344L433.015625,671.425781C430.932892,671.459045,428.856323,671.495422,426.773438,671.535156C426.399445,671.529358,426.027008,671.487,425.660156,671.414063L425.542969,671.367188C425.451935,671.3078,425.367767,671.238953,425.289063,671.164063C424.044617,669.049316,422.810974,666.930847,421.585938,664.804688L419.648438,661.453125L417.714844,658.101563L415.703125,654.621094C414.172852,651.973145,412.531738,649.12793,411.007813,646.480469L410.074219,644.863281L409.121094,643.214844L408.15625,641.539063L407.175781,639.839844L406.183594,638.117188L405.179688,636.375L385.578125,602.382813C386.748047,600.31665,387.969238,598.16748,389.144531,596.105469L469.289063,596.105469L471.070313,599.242188z"/>
    <path transform="matrix(1.32029,-0,0,1.32029,-818.482971,-916.640991)" style="stroke:#000000;stroke-width:0.05mm;fill:none" d="M441.175781,602.117188C439.850922,602.130066,438.534454,602.329529,437.265625,602.710938C435.206512,603.294678,433.215027,604.094849,431.324219,605.097656C431.235931,605.155945,431.153168,605.22229,431.078125,605.296875C431.101074,605.347534,431.131073,605.394165,431.160156,605.441406C431.850647,606.03833,432.611633,606.548401,433.425781,606.960938L433.625,607.015625C433.82962,607.067261,434.045105,607.056946,434.246094,606.992188C435.963287,606.333069,437.808289,606.073853,439.640625,606.234375C441.9776,606.493591,443.748718,608.465088,443.75,610.816406C443.764893,612.69342,443.417755,614.555603,442.726563,616.300781C442.52359,616.81488,442.293823,617.318054,442.039063,617.808594L439.527344,622.246094C437.995697,624.263672,436.322235,626.169678,434.519531,627.949219C433.074554,629.354187,431.552643,630.677734,429.960938,631.914063C428.786835,632.776794,427.564789,633.572205,426.300781,634.296875L424.679688,635.257813C423.691803,635.655884,422.685394,636.006531,421.664063,636.308594C420.65274,636.592224,419.611969,636.757751,418.5625,636.800781C417.580688,636.821594,416.605652,636.635681,415.699219,636.257813C414.380463,635.652466,413.491974,634.383179,413.367188,632.9375C413.127686,631.289063,413.242157,629.608521,413.703125,628.007813L414.121094,626.6875C413.648895,625.859375,413.109436,625.071533,412.507813,624.332031C412.440613,624.270996,412.370361,624.21344,412.296875,624.160156C412.264893,624.18689,412.22702,624.200317,412.191406,624.222656C410.629059,626.974243,409.615631,630.002869,409.207031,633.140625C409.062592,634.495483,409.128754,635.864441,409.402344,637.199219C409.769409,638.70105,410.644989,640.02948,411.878906,640.960938C413.481079,641.973206,415.352264,642.477112,417.246094,642.40625C419.611053,642.191589,421.929474,641.617432,424.121094,640.703125C427.068695,639.493347,429.85968,637.932617,432.433594,636.054688C433.052917,635.488037,433.695587,634.947388,434.359375,634.433594C435.608032,633.385681,436.809784,632.28302,437.960938,631.128906C439.374817,629.690308,440.775452,628.236206,442.160156,626.769531L445.183594,622.191406C446.024811,620.663574,446.804138,619.102356,447.519531,617.511719C447.882568,616.636719,448.222534,615.752258,448.539063,614.859375C448.953827,613.633423,449.168823,612.348877,449.175781,611.054688C449.210419,609.878479,449.187042,608.701233,449.105469,607.527344C448.952545,606.741455,448.653259,605.991394,448.222656,605.316406C447.34259,603.85791,445.913544,602.814453,444.257813,602.414063C443.418427,602.206726,442.555969,602.107178,441.691406,602.117188L441.175781,602.117188z"/>
    <path transform="matrix(1.32029,-0,0,1.32029,-818.482971,-916.640991)" style="stroke:#000000;stroke-width:0.05mm;fill:none" d="M442.84375,628.375C443.14032,629.058105,443.349152,629.776062,443.464844,630.511719C443.864532,631.973633,443.884338,633.513367,443.519531,634.984375C443.097504,636.50061,441.862183,637.653076,440.320313,637.96875C439.271515,638.220337,438.183411,638.264221,437.117188,638.101563C435.919464,637.95459,434.744293,637.661438,433.617188,637.230469C433.543243,637.198364,433.461121,637.196594,433.382813,637.214844C433.332275,637.185608,433.282776,637.154785,433.230469,637.128906L430.53125,638.902344C433.261536,640.482666,436.233521,641.602173,439.328125,642.214844C441.301453,642.573303,443.334717,642.388428,445.210938,641.679688C446.648438,641.071472,447.821259,639.970154,448.519531,638.574219C449.197815,636.971741,449.450836,635.22113,449.253906,633.492188C449.117188,632.004028,448.806183,630.536987,448.328125,629.121094C447.731689,627.28186,446.960297,625.503906,446.023438,623.8125L442.84375,628.375z"/>
    <path transform="matrix(1.32029,-0,0,1.32029,-818.482971,-916.640991)" style="stroke:#000000;stroke-width:0.05mm;fill:none" d="M416.316406,602.140625C415.537323,602.187195,414.763062,602.29303,414,602.457031C411.766754,603.022095,410.035675,604.787109,409.515625,607.03125C409.084167,608.860413,409.02829,610.757996,409.351563,612.609375C409.476532,613.360291,409.657928,614.100708,409.894531,614.824219C411.528229,619.48999,414.015747,623.810852,417.230469,627.566406C418.425812,628.920288,419.656677,630.24231,420.921875,631.53125C421.863739,632.499207,422.811951,633.457764,423.769531,634.410156L426.40625,633.011719C423.847473,630.942383,421.48941,628.636841,419.363281,626.125C417.572662,623.96167,416.045135,621.593628,414.8125,619.070313C414.198151,617.735229,413.720398,616.341431,413.386719,614.910156C413.159912,613.876648,413.106964,612.812561,413.230469,611.761719C413.418884,610.569214,414.019104,609.480774,414.925781,608.683594C415.337158,608.347351,415.81955,608.109375,416.335938,607.984375C418.470245,607.582764,420.672974,607.755493,422.71875,608.484375C423.996704,608.932434,425.226929,609.506592,426.390625,610.199219C428.771912,611.571838,430.998444,613.19696,433.03125,615.046875C435.045135,616.786194,436.858521,618.744812,438.4375,620.886719L441.039063,616.605469C440.511902,615.904419,439.93869,615.239258,439.324219,614.613281C436.417358,611.557983,433.152924,608.864136,429.601563,606.589844C427.560028,605.299866,425.402191,604.203918,423.15625,603.316406C421.423798,602.667114,419.607056,602.27002,417.761719,602.136719C417.280182,602.11438,416.797821,602.115845,416.316406,602.140625z"/>
    <path transform="matrix(1.32029,-0,0,1.32029,-818.482971,-916.640991)" style="stroke:#000000;stroke-width:0.05mm;fill:none" d="M428.082031,617.601563C426.856506,617.672424,425.696533,618.179504,424.8125,619.03125C423.693817,620.06665,423.082703,621.539429,423.144531,623.0625C423.212646,624.403748,423.792175,625.668335,424.761719,626.597656C426.069458,627.918274,428.005798,628.397949,429.777344,627.835938C432.225311,627.052856,433.752167,624.618835,433.390625,622.074219C433.151154,620.316589,432.012573,618.810913,430.386719,618.101563C429.671234,617.747803,428.87973,617.574585,428.082031,617.601563z"/>
</svg>
