<?xml version="1.0" encoding="UTF-8"?>
<svg xmlns="http://www.w3.org/2000/svg" width="258.179mm" height="202.361mm" viewBox="-608.184265 -801.220276 258.178833 202.360962">
    <path transform="matrix(-1,0,0,-1,0,0)" style="stroke:none;fill:#000000;fill-rule:evenodd" d="M542.530579,800.924377C540.807129,800.439453,539.776062,799.734253,538.779785,798.358887C537.662842,796.817017,537.093994,794.873047,537.131042,792.724915C537.158325,791.146851,537.360962,790.391357,538.501831,787.61554C539.873352,784.278259,541.479492,781.12207,542.776123,779.216431C543.178223,778.625427,544.365295,776.661133,545.414001,774.851379C547.601196,771.077026,548.907471,769.178833,551.188599,766.460266C555.060486,761.845825,555.804565,760.37915,556.791443,755.416077C557.255737,753.080933,557.336121,751.880676,557.257629,748.453369C557.17395,744.796997,557.089966,744.149353,556.5401,742.921387C555.866394,741.41687,554.624634,740.159912,553.240601,739.581665C552.277283,739.179138,546.919922,738.823547,541.566162,738.806702C538.664063,738.797546,537.507263,738.928833,534.158752,739.647522C530.095581,740.519531,523.703186,741.64624,517.359802,742.608521C513.838745,743.1427,511.43576,743.405701,505.455017,743.911499C503.781738,744.05304,501.222229,744.2854,499.767212,744.427979C498.312164,744.570496,495.980713,744.615906,494.586121,744.52887C492.902069,744.423828,491.572021,744.485474,490.625488,744.712524C489.841675,744.900574,487.470764,745.085083,485.356812,745.12262C481.671143,745.187988,477.174377,745.460266,470.931213,745.996216C465.41156,746.469971,458.647919,748.848999,454,751.951416C451.85675,753.382019,446.649231,758.489746,445.335693,760.449768C444.75061,761.322754,443.887299,762.453735,443.417236,762.963013C442.947144,763.472229,441.117432,765.793701,439.351257,768.121704C435.583557,773.087952,435.432129,773.282776,432.257324,777.248718C427.73877,782.893311,427.018738,783.697998,425.078369,785.271606C422.657532,787.234924,421.572876,788.940063,420.797729,792.000854C420.319946,793.887512,419.194489,794.870728,415.530334,796.602539C413.714294,797.460876,411.269897,798.442932,410.098328,798.784851C406.048889,799.966736,403.993073,800.498901,402.242096,800.818542C400.637329,801.11145,400.406921,801.094482,399.596619,800.623657C399.108429,800.339966,398.332611,799.518127,397.872559,798.797363C395.886078,795.684814,396.30368,795.929932,389.052917,793.621704C386.215607,792.718506,383.417999,791.748291,382.835968,791.465759C382.253967,791.183228,381.031311,790.221008,380.118958,789.327515C378.738617,787.975769,378.323029,787.347351,377.643616,785.584351C376.008209,781.340759,373.865875,777.968079,371.98645,776.678345C370.097809,775.382263,363.322906,772.132629,359.470337,770.674927C357.686218,769.999878,352.293915,766.377197,351.090546,765.045227C349.875763,763.700562,349.732727,763.004211,350.401886,761.692566C351.980072,758.59906,354.003296,756.498901,356.584717,755.27478C358.236969,754.491272,358.506073,754.238586,360.057098,752.014343C363.177765,747.539124,367.345886,744.240845,371.166016,743.223633C373.133087,742.699829,373.605072,742.746765,378.381226,743.941772C382.565765,744.98877,382.832977,745.022339,386.082947,744.910278C391.280701,744.731018,393.956055,743.640625,397.611084,740.21167C401.770172,736.309814,403.348572,732.729858,404.767303,723.980713C405.419037,719.961487,405.661804,717.674805,405.880524,713.494507C405.94516,712.259033,406.111755,710.82605,406.250702,710.309998C406.389648,709.793945,406.483582,708.602417,406.459412,707.662109C406.435272,706.721741,406.552521,705.178589,406.720032,704.232849C406.887512,703.287048,407.160919,701.441833,407.327606,700.132324C407.66803,697.457703,408.956055,692.158386,409.531891,691.063049C410.077271,690.025696,412.106018,688.126099,413.578156,687.274414C414.275787,686.870789,416.096558,685.886597,417.624329,685.08728C419.1521,684.287964,421.019226,683.179443,421.773468,682.623901C423.535034,681.326355,426.272919,677.502686,427.806793,674.197876C428.451691,672.808411,429.2034,671.34906,429.477264,670.954834C431.752441,667.679932,434.738617,659.820496,435.328125,655.555603C435.499084,654.318848,435.752319,652.578918,435.8909,651.689087C436.02948,650.799316,436.142853,649.324951,436.142853,648.41272C436.142853,647.500488,436.27063,645.966614,436.426819,645.004089C436.847534,642.411011,437.72699,637.592346,438.010864,636.324707C438.373932,634.703369,438.314575,633.000977,437.872986,632.370483C437.44397,631.757996,436.903717,631.519958,434.071899,630.695435C432.147247,630.13501,432.128784,630.120972,431.525757,628.755981C430.548431,626.543762,430.184052,624.522095,430.545288,623.316345C431.001099,621.794983,430.938843,621.388672,429.925934,619.275085C429.416687,618.212463,429,617.003113,429,616.587646C429,615.507629,430.286285,614.286377,431.426727,614.28363C431.910828,614.28241,433.675903,614.098083,435.349213,613.873901C437.022491,613.649719,440.236755,613.353455,442.492065,613.215515C452.192139,612.622131,456.697632,612.424927,457.458954,612.560364C459.185089,612.867371,460.442352,615.299622,460.089874,617.650024C459.994751,618.284363,459.686829,619.472168,459.405548,620.289673C458.614014,622.590332,458.718536,623.472717,459.997528,625.286865C460.60437,626.147644,461.315216,627.409607,461.577209,628.091248C462.26355,629.877075,462.454285,633.097046,462.094818,636.829346C461.922668,638.616882,461.658844,642.10321,461.508545,644.576782C460.993805,653.04895,460.800812,655.688416,460.657379,656.21698C460.57843,656.507935,460.447327,658.130554,460.366028,659.822693L460.218231,662.899353L460.945099,663.175415C461.344879,663.327209,462.50528,663.592163,463.523804,663.76416C464.542328,663.936157,466.208984,664.292053,467.227509,664.555054C468.246033,664.818054,469.734131,665.17157,470.534393,665.340698C471.334656,665.509888,473.417969,665.988037,475.164001,666.403381C476.910034,666.818726,480.481476,667.651123,483.100525,668.253174C485.719604,668.855225,490.421936,670.172729,493.550262,671.18103C499.32782,673.043213,502.154663,673.774414,505.719574,674.328857C506.810852,674.498535,508.134186,674.748779,508.660339,674.884888C509.901489,675.205933,516.853638,675.204895,518.704529,674.883362C519.492676,674.74646,521.030396,674.496887,522.121704,674.328674C525.443237,673.816772,529.483521,672.805298,533.100525,671.580078C534.992065,670.939392,537.238281,670.263916,538.092163,670.079102C538.946045,669.894287,539.863281,669.556824,540.130493,669.329224C540.397705,669.101624,540.989136,667.963745,541.444824,666.800598C541.900513,665.637512,542.649902,664.098633,543.110168,663.380981C544.917664,660.562866,547.031189,657.500854,548.493286,655.582153C550.531189,652.907837,556.850891,646.621094,559.820129,644.314331C562.726807,642.056152,569.139221,638.143555,572.972656,636.289185C575.585815,635.025085,575.888306,634.798828,576.838135,633.398071C578.088928,631.553345,578.988953,629.799927,580.088318,627.06604C581.515991,623.515564,582.173706,620.075317,582.174255,616.154968C582.174683,612.703552,581.714661,611.583252,579.707825,610.148254C576.785767,608.058899,576.131836,607.218933,575.571777,604.835754C575.189758,603.210083,575.41333,601.470276,576.091431,600.792175C576.660889,600.222717,578.595276,599.63501,581.645508,599.104736C584.657898,598.581055,588.194153,598.879333,591.566162,599.941589C592.874573,600.35376,598.399719,603.188782,599.036987,603.774963C600.027588,604.686096,600.693115,606.899353,600.693115,609.282349C600.693115,612.23938,600.973633,612.673096,603.846191,614.156677C606.741821,615.652222,607.44281,616.281494,607.861816,617.761597C608.267578,619.194946,608.297485,622.310669,607.917358,623.544983C607.760498,624.05426,607.487915,625.185242,607.311584,626.058228C606.66095,629.279419,604.836365,634.121582,602.521484,638.770508L600.143433,643.546265L600.111694,648.162048C600.09021,651.270508,599.971741,652.993774,599.748779,653.439209C599.154846,654.625366,597.952454,655.513916,595.798401,656.358459C593.43811,657.283936,592.313232,658.288269,591.096497,660.556824C589.808472,662.958191,588.881775,666.477539,589.13208,668.016968C589.212463,668.511108,589.431641,669.851013,589.619263,670.994629C589.934509,672.916931,589.914307,673.286316,589.35083,675.888794C587.939819,682.405884,587.928589,682.667542,588.871277,687.037048C589.043945,687.837341,589.178772,690.039734,589.170898,691.931274C589.15741,695.171021,589.099304,695.544556,588.168457,698.373779C586.842896,702.402649,585.774048,704.430847,583.457397,707.312927C582.388123,708.64325,581.005737,710.369385,580.385498,711.148926C579.078125,712.791931,576.934326,716.862732,576.128662,719.232178C574.7547,723.273071,574.570313,725.569946,575.293945,729.629639C575.578064,731.223816,576.156433,738.655273,576.127808,740.343933C576.11792,740.925964,576.036438,742.058472,575.946777,742.860596C575.82196,743.977051,575.90564,744.62854,576.303772,745.63855C576.812317,746.928711,576.813171,746.992615,576.341858,748.515869C576.076782,749.37262,575.509644,750.741577,575.081543,751.557983C574.40271,752.852661,574.280029,753.431152,574.121643,756.084717C573.85321,760.583496,573.603149,762.782227,573.309448,763.227539C573.165527,763.445801,572.984009,764.723999,572.906189,766.067993C572.764832,768.50885,572.763489,768.512695,571.694214,769.5401C570.390381,770.792969,569.607178,772.399963,568.919495,775.233215C568.145325,778.422729,568.020508,778.639282,565.587402,781.013794C563.723083,782.833191,563.149658,783.603638,562.178345,785.594238C561.536072,786.910461,561.01062,788.181091,561.01062,788.417847C561.01062,789.067871,559.775757,790.402405,558.461792,791.172424C557.818115,791.549622,556.948486,792.350891,556.529297,792.952942C556.110107,793.555054,555.209595,794.583374,554.528198,795.238159C553.846863,795.892883,552.766663,797.2229,552.127808,798.193726C551.091064,799.769043,550.804932,800.019165,549.466553,800.519897C547.482361,801.262329,544.375488,801.443481,542.530579,800.924377M527.398438,687.328003C528.201294,686.758484,528.510071,685.695801,528.107422,684.888062C527.325684,683.32019,524.192322,683.894043,524.023804,685.635986C523.819458,687.748718,525.568909,688.625916,527.398438,687.328003M420.335968,718.213379C421.272705,717.106323,420.623108,715.5755,419.04895,715.18042C417.461182,714.781921,416.269897,715.979431,416.669617,717.572144C417.0224,718.977722,419.345428,719.384033,420.335968,718.213379M440.053772,751.174438C440.744049,750.690918,441.433868,749.456848,441.433868,748.705444C441.433868,747.882263,440.477386,747.346619,439.571472,747.662354C437.868958,748.255859,436.841522,750.328369,437.783081,751.269897C438.226227,751.713013,439.352417,751.66571,440.053772,751.174438M573.954346,683.165405C574.990784,681.847778,574.47345,679.666199,572.904785,678.739563C570.822876,677.509766,569.073547,679.003723,569.732056,681.449219C570.318848,683.628357,572.797668,684.635925,573.954346,683.165405M409.351898,750.645874C411.270782,749.38855,408.011902,746.697266,405.655396,747.593201C405.269409,747.739929,404.749054,748.17218,404.499084,748.553711C403.931458,749.419983,404.236053,750.490173,405.194855,750.998352C406.002075,751.426147,408.481903,751.215881,409.351898,750.645874M419.223816,725.969299C420.078247,725.277405,420.001434,723.874268,419.065033,723.068787C418.049561,722.195251,416.087158,722.323364,415.541931,723.298767C415.009918,724.25061,415.342957,725.304016,416.374817,725.933167C417.442993,726.584473,418.448395,726.597168,419.223816,725.969299M453.813416,690.576721C455.229248,689.660706,455.118835,687.861694,453.582764,686.819519C451.906189,685.681946,450.164032,686.626953,450.164032,688.674011C450.164032,689.489075,450.342651,689.901917,450.964325,690.52356C451.825928,691.385193,452.543121,691.39856,453.813416,690.576721M571.334473,673.611145C571.82074,672.99469,571.89209,672.625916,571.801819,671.195313C571.707092,669.693115,571.601746,669.42334,570.84613,668.74823C569.262024,667.332764,567.624329,667.916077,567.624329,669.89563C567.624329,673.296265,569.835815,675.510925,571.334473,673.611145M426.94989,758.20575C427.753174,757.573853,428.055328,756.224731,427.652405,755.068909C427.30426,754.07019,426.722961,753.703735,425.486969,753.703735C423.96936,753.703735,423.213654,755.038818,423.702881,756.855652C424.179718,758.626465,425.642029,759.234497,426.94989,758.20575M462.742188,718.133789C464.158447,716.717529,463.216217,713.196899,461.372375,713.01532C460.720001,712.95105,460.396912,713.121765,459.727356,713.884338C458.655212,715.105408,458.613037,716.291992,459.600098,717.465088C460.795715,718.885925,461.780426,719.095459,462.742188,718.133789M602.130615,630.178101C602.649048,629.605286,603.005493,628.214172,602.865051,627.311951C602.66626,626.034424,600.23877,625.50708,599.009216,626.474243C597.964417,627.296082,598.04541,628.622192,599.21167,629.788391C600.250732,630.827454,601.403687,630.981384,602.130615,630.178101M450.353943,627.011169C451.150085,625.825806,451.129456,624.750916,450.294556,623.916016C449.729614,623.351074,449.430054,623.264771,448.271057,623.332825C447.15625,623.398315,446.816162,623.539795,446.386871,624.116699C445.935059,624.723938,445.904999,624.94104,446.168365,625.696533C447.006042,628.099487,449.167084,628.778259,450.353943,627.011169M541.860107,728.245361C543.040161,727.707703,543.018311,725.986084,541.824585,725.4422C541.4505,725.271729,540.370789,725.132324,539.425293,725.132324C537.952759,725.132324,537.612976,725.225464,537.056763,725.781616C535.426636,727.411743,537.1073,729.015015,540.079468,728.665161C540.716797,728.590088,541.518066,728.401184,541.860107,728.245361M410.415344,794.711914C411.126495,794.27832,411.275146,794.024658,411.275146,793.244751C411.275146,790.789795,408.976257,789.071411,407.571411,790.476196C407.159912,790.887756,407.042328,791.358032,407.042328,792.592651C407.042328,793.827209,407.159912,794.297485,407.571411,794.709045C408.243439,795.381042,409.316132,795.382141,410.415344,794.711914M585.201904,693.062866C585.704224,692.345764,585.74707,689.830566,585.273071,688.888916C584.848877,688.046204,583.65918,687.869873,582.908325,688.538391C582.219116,689.152039,581.645508,690.498474,581.645508,691.502441C581.645508,693.175354,584.305603,694.342529,585.201904,693.062866M455.965454,731.755615C457.621338,730.910828,457.868713,729.180298,456.473358,728.202942C456.104767,727.944763,455.32608,727.777832,454.49054,727.777832C452.620544,727.777832,451.486755,728.678162,451.486755,730.163086C451.486755,732.099854,453.728363,732.896851,455.965454,731.755615M603.808838,622.074951C604.730774,621.42926,604.638428,619.513062,603.637085,618.511719C602.142151,617.016846,600.369995,617.168457,599.541504,618.862183C598.86908,620.236694,599.300049,621.301758,600.805237,621.985413C602.130615,622.587341,603.038696,622.614441,603.808838,622.074951M410.987885,785.553345C411.384064,785.319336,412.086945,784.572815,412.549866,783.89447C413.654449,782.275757,413.694519,780.9646,412.664093,780.154053C410.798309,778.686401,407.835968,781.065491,407.835968,784.031555C407.835968,785.807678,409.333435,786.53064,410.987885,785.553345M456.657532,723.160217C457.645172,722.172546,457.548126,720.823303,456.40741,719.682556C455.91272,719.187866,455.26355,718.783081,454.964844,718.783081C453.031647,718.783081,451.700684,720.903992,452.588196,722.570313C453.073792,723.482117,453.648926,723.792114,454.871826,723.801147C455.732727,723.807495,456.165588,723.652161,456.657532,723.160217M530.537109,694.702271C531.460693,694.139099,532.259583,692.643433,532.123291,691.7323C531.99231,690.856384,530.792297,690.124634,529.83252,690.335388C528.650818,690.594971,527.41272,691.841736,527.41272,692.772156C527.41272,693.677734,528.043335,694.658386,528.829895,694.97583C529.610046,695.290649,529.558472,695.298889,530.537109,694.702271M426.112915,768.180054C427.254333,767.410828,428.196411,765.752808,428.201996,764.503357C428.210358,762.633301,425.932678,761.81543,424.433319,763.150085C423.147003,764.295105,422.778015,766.878052,423.72821,768.08606C424.400696,768.940979,424.951569,768.962708,426.112915,768.180054M582.565063,702.014526C583.466736,701.112915,583.928955,699.266479,583.460327,698.438416C582.897095,697.443359,581.812927,696.779297,580.511902,696.63269C579.451111,696.513062,579.26886,696.572937,578.878296,697.168945C578.5047,697.739136,578.484985,698.011963,578.74707,698.986084C579.612549,702.203125,581.153931,703.42572,582.565063,702.014526M490.13147,740.496582C490.777527,739.850464,490.904755,739.508179,490.904755,738.415833C490.904755,736.606079,490.193085,735.714294,488.74881,735.714294C487.152527,735.714294,486.142853,736.820129,486.142853,738.568359C486.142853,740.378113,486.854553,741.269897,488.298798,741.269897C489.116943,741.269897,489.534241,741.093811,490.13147,740.496582M481.970032,707.738159C482.70343,706.902954,482.719788,706.205017,482.065033,703.684204C481.34964,700.929871,480.527771,699.82489,479.437042,700.151123C477.924805,700.603394,477.599915,702.21875,478.455017,705.033997C479.301514,707.820862,480.850769,709.012695,481.970032,707.738159M480.316406,688.601013C483.15625,687.991943,482.696259,685.815247,479.591553,685.170715C477.58667,684.754517,476.008118,685.040955,474.888306,686.02417C473.91037,686.882813,473.644379,688.175659,474.30423,688.863037C474.67569,689.249939,477.957336,689.106934,480.316406,688.601013M464.958557,727.886597C465.881561,727.109863,465.978394,726.401794,465.363037,724.929016C464.72168,723.393982,463.977051,722.751343,462.839844,722.751343C461.402191,722.751343,460.481476,723.90332,460.481476,725.702026C460.481476,726.811401,460.606293,727.149658,461.254761,727.798157C462.289703,728.833069,463.791077,728.868896,464.958557,727.886597M441.581207,728.188721C441.971191,727.593567,441.969147,727.378845,441.555725,725.520508C441.251678,724.15387,441.161285,723.011963,441.27652,721.993286C441.489716,720.109009,441.091217,718.839966,440.217529,718.620728C438.746399,718.251465,438.041443,719.281372,437.823792,722.117798C437.529419,725.954407,438.631439,728.835999,440.393066,728.835999C440.911682,728.835999,441.293335,728.628052,441.581207,728.188721M360.763428,766.392822C361.559967,765.966553,361.408539,764.537476,360.342499,762.420593C359.204742,760.161255,358.599426,759.523804,357.591736,759.523804C356.65802,759.523804,355.384796,760.532471,354.928802,761.633301C354.649323,762.308044,354.66568,762.533325,355.035156,763.097229C355.543579,763.873169,357.507843,765.367065,359.026459,766.132751C360.267822,766.758667,360.121002,766.736633,360.763428,766.392822M599.09552,637.251709C599.408142,636.916138,599.634888,636.3125,599.634888,635.815918C599.634888,634.916443,599.324097,634.588379,597.334106,633.387695C596.780762,633.053833,595.871948,632.127625,595.314575,631.329529C594.757141,630.531372,594.013977,629.690247,593.663086,629.460327C592.847656,628.926025,591.841309,629.165649,591.275757,630.028748C590.682312,630.934509,590.983398,631.899719,592.173035,632.905151C592.709961,633.358948,594.048645,634.652832,595.147888,635.780457C597.336182,638.02533,598.107117,638.312622,599.09552,637.251709M568.143005,767.465942C568.719421,767.157471,569.21167,765.866211,569.21167,764.662537C569.21167,764.185669,569.454285,762.566528,569.750854,761.064453C570.656677,756.47644,570.700806,755.457458,570.023132,754.779785C568.680908,753.437561,567.439758,754.719116,567.070374,757.828613C566.933716,758.979248,566.522522,761.194641,566.156616,762.751648C565.442871,765.789124,565.489502,766.703064,566.390686,767.334229C567.042542,767.790833,567.475159,767.823364,568.143005,767.465942M440.498962,760.416626C440.736084,760.325623,441.419556,759.522034,442.017822,758.630859C442.616058,757.739746,444.396088,755.733948,445.973389,754.173584C448.947571,751.231445,449.266235,750.643555,448.403442,749.690186C447.829102,749.055542,446.158356,749.043091,445.601685,749.669312C445.375366,749.92395,444.866058,750.727539,444.46991,751.455078C443.475555,753.281067,442.619476,754.131958,440.799713,755.102905C439.047668,756.037781,438.261719,757.08075,438.260254,758.4729C438.258545,760.094482,439.202545,760.914063,440.498962,760.416626M596.304565,616.646301C597.272339,615.496216,597.342285,614.979248,597.032471,611.26886C596.657166,606.773743,596.290039,606.172546,592.978516,604.630981C591.306519,603.8526,591.079224,603.831665,590.50769,604.403137C589.822144,605.088684,590.24408,606.036621,592.083008,607.942322C594.133301,610.067017,594.366638,610.940491,593.566162,613.494507C592.656494,616.397095,592.970093,617.460327,594.736145,617.460327C595.397949,617.460327,595.791504,617.256104,596.304565,616.646301M395.662872,791.007324C396.294006,790.669556,396.79834,789.141541,396.573883,788.247192C396.317841,787.227051,395.550751,786.945496,392.840912,786.877014C391.090759,786.832764,389.760071,786.615723,388.07901,786.100342C385.292969,785.246216,383.944244,785.154053,383.322998,785.775269C382.952667,786.14563,382.927795,786.341064,383.180481,786.89563C383.625885,787.873169,384.841949,788.505432,387.567627,789.176697C388.893799,789.503296,390.931213,790.105469,392.095245,790.514954C394.411896,791.329895,394.927307,791.401001,395.662872,791.007324M536.78595,685.611084C537.960022,684.826843,539.786926,683.875854,540.845703,683.497803C543.367554,682.597473,544.223267,682.140015,544.72467,681.424133C545.257568,680.663391,545.24884,679.926514,544.699707,679.319824C544.026855,678.576294,543.36322,678.719971,540.367493,680.257629C538.844177,681.03949,536.617004,682.001221,535.418213,682.394775C533.061279,683.168579,532.174622,683.927429,532.174622,685.171021C532.174622,686.096313,533.070801,687.037048,533.952332,687.037048C534.357361,687.037048,535.548828,686.4375,536.78595,685.611084M394.128754,759.931519C395.39267,759.724304,396.776886,759.373718,397.204773,759.152466C397.915009,758.785156,400.196625,755.979492,400.922363,754.580933C401.895996,752.704651,400.171967,751.036011,398.586365,752.319946C398.268433,752.577393,397.630219,753.500061,397.168152,754.370239C396.47699,755.671875,396.099518,756.065674,395.039307,756.591187L393.75058,757.22998L391.732422,756.61322C388.030823,755.482056,386.936523,755.616211,386.936523,757.201416C386.936523,758.23175,388.17981,759.401001,389.808655,759.902466C391.365509,760.381775,391.381622,760.381836,394.128754,759.931519M413.859711,700.912415C414.768372,700.27594,415.047913,699.525452,415.265503,697.137817C415.420624,695.436035,415.621857,694.69519,416.142822,693.907959C417.053192,692.532288,418.86734,691.523987,421.434448,690.966919C422.733459,690.684998,423.694336,690.325073,423.900421,690.043213C424.33194,689.453125,424.335815,688.056152,423.90741,687.511169C423.191956,686.601074,422.526672,686.715576,419.573303,688.257263C413.753845,691.295105,413.155945,691.919739,411.955139,696.215881C411.098907,699.279053,411.077698,700.36084,411.863098,700.91095C412.605408,701.430908,413.118927,701.431274,413.859711,700.912415M389.575958,767.207153C389.969086,766.472534,389.907562,765.284241,389.441986,764.619507C389.219482,764.301819,388.223816,763.61438,387.229431,763.091797C384.374847,761.591797,383.164093,760.18042,382.804901,757.934143C382.414612,755.493408,380.434875,754.657104,378.958588,756.309326C378.416565,756.915955,378.20636,757.427307,378.20636,758.139099C378.20636,759.025024,378.390259,759.290833,379.98819,760.714294C380.968201,761.587341,382.963562,763.515137,384.422302,764.998413C385.881042,766.481628,387.37088,767.806824,387.733032,767.943298C388.492249,768.229431,389.174744,767.956787,389.575958,767.207153M525.676147,701.479248C527.358093,700.776428,527.260803,699.542236,525.345093,697.278564C524.358826,696.11322,523.915894,695.288208,523.49054,693.824219C523.183167,692.766418,522.56604,691.396179,522.119141,690.779236C521.672241,690.162231,520.894409,688.789246,520.390747,687.728088C519.4552,685.757202,518.807007,685.185242,517.508911,685.185242C517.168091,685.185242,516.620056,685.403198,516.291016,685.669678C515.473633,686.331543,515.699463,687.058838,517.367737,689.137512C518.948059,691.106689,520.664063,694.41095,521.841064,697.751343C522.940796,700.872498,523.412231,701.54364,524.709534,701.835083C524.75061,701.84436,525.185547,701.684204,525.676147,701.479248M578.718018,676.343811C578.98175,676.026001,579.000366,675.067017,578.804871,671.879639C578.575684,668.144592,578.494324,667.707275,577.786743,666.407166C577.281311,665.478516,576.20105,664.27002,574.635803,662.88208C571.903992,660.459656,570.91449,659.790771,570.060913,659.789368C569.069763,659.787781,567.401001,660.793213,566.951172,661.662964C566.178589,663.157104,567.312866,664.021179,570.046875,664.021179C572.079956,664.021179,573.814941,665.299194,575.074829,667.724915C575.630737,668.795288,575.693115,669.264709,575.693115,672.378967C575.693115,676.030457,575.838623,676.540466,577.006714,676.982483C577.591064,677.203613,578.189941,676.980103,578.718018,676.343811M419.067993,770.211731C419.422729,769.856934,419.461975,769.400879,419.310394,767.393127C419.143768,765.185852,419.188965,764.826416,419.88623,762.814941L420.642914,760.632019L420.188446,758.689026C419.938477,757.620422,419.733734,756.091309,419.733459,755.291016C419.733154,754.490784,419.584137,753.541992,419.402283,753.182556C418.935699,752.260437,417.435699,751.322754,416.427124,751.322754C414.801941,751.322754,414.607635,752.487244,415.904877,754.452637C417.659515,757.111023,417.794037,759.647827,416.420654,764.178772C415.241516,768.068848,415.263885,769.174438,416.539124,770.031067C417.593506,770.73938,418.477173,770.80249,419.067993,770.211731M455.396576,620.162598C455.582642,619.918701,455.867737,619.275879,456.03009,618.734009C456.27533,617.915527,456.25061,617.63501,455.884033,617.0755C455.449219,616.411926,455.393951,616.402222,452.075928,616.407471C450.224121,616.4104,447.968201,616.519958,447.062805,616.650879C446.15741,616.78186,443.121704,617.033813,440.316772,617.210876C434.836945,617.556702,434.026459,617.776306,434.026459,618.915405C434.026459,620.04187,434.862213,620.293518,439.208679,620.475891C443.083252,620.638428,443.25412,620.622864,445.028809,619.946533C447.684692,618.934387,449.758728,618.971924,452.015869,620.07312C453.837646,620.961853,454.767853,620.98645,455.396576,620.162598M585.406982,675.463013C586.063965,674.710693,586.173828,673.259033,585.753601,670.882751C585.53656,669.655212,585.35675,667.584229,585.354065,666.28064L585.349243,663.910522L583.981201,662.709229C581.373657,660.419556,580.150391,659.029175,579.276794,657.362549C577.587952,654.140625,576.273682,653.441528,574.922974,655.046753C573.837158,656.337158,574.005615,657.050293,575.759277,658.587402C578.021118,660.569885,580.538879,663.1651,581.254639,664.251831C582.226196,665.72699,582.703735,668.017334,582.703735,671.202393C582.703735,673.995667,582.96167,675.32489,583.580078,675.71814C584.124207,676.064148,584.987244,675.943604,585.406982,675.463013M545.110596,789.564209C545.576477,789.323364,546.202576,788.513977,546.799011,787.381714C547.320435,786.391907,548.39679,784.768311,549.190979,783.773682C550.144287,782.579773,550.785706,781.456238,551.078796,780.466797C552.316833,776.287292,552.626038,775.836853,555.177063,774.496338C556.200562,773.958496,557.157959,773.294189,557.304688,773.02002C557.975952,771.765747,557.257996,770.213989,555.709595,769.572632C554.324341,768.99884,553.422424,769.652527,551.447937,772.661316C550.508301,774.09314,549.164551,776.335999,548.46167,777.645508C547.75885,778.955078,546.382568,781.276489,545.403198,782.80426C542.333191,787.593506,541.938843,788.736023,543.080017,789.535278C543.808716,790.045654,544.169678,790.050842,545.110596,789.564209M558.285278,686.11084C559.13269,685.517273,559.208557,684.631226,558.76825,680.471741C558.178467,674.900513,557.13031,671.129272,555.439148,668.493774C554.648682,667.262024,554.340332,667.046631,551.30188,665.604065C548.740356,664.387878,547.888672,664.094727,547.427063,664.270203C546.644287,664.567871,546.232605,665.093628,546.044006,666.036621C545.828125,667.116089,546.416748,667.554199,549.019592,668.25116C552.611145,669.212891,554.056396,670.982361,555.223816,675.847168C555.700562,677.833618,555.761414,678.692993,555.639465,681.712769C555.499634,685.175476,555.51001,685.264221,556.125122,685.879395C556.850708,686.604919,557.483093,686.672668,558.285278,686.11084M517.741577,717.401489C518.044861,716.968567,518.157471,716.114014,518.168701,714.160767C518.178772,712.406982,518.356079,710.880371,518.691833,709.656128C520.109131,704.488464,520.119629,704.418396,519.67041,703.153748C518.107788,698.755249,516.61731,695.305298,515.390503,693.247192C513.216492,689.600159,512.150513,688.783203,510.965271,689.855835C510.028992,690.703186,510.298706,691.625305,512.262207,694.289673C513.651672,696.175049,514.626587,698.04425,515.654602,700.793701C516.301819,702.524719,516.396545,703.148987,516.397278,705.687866C516.398071,708.361389,516.31897,708.824402,515.42395,711.384827C514.190552,714.913208,514.166199,716.997131,515.349121,717.786987C515.983337,718.210449,517.326599,717.994019,517.741577,717.401489M448.456482,726.599365C449.253662,725.802185,449.261078,725.384338,448.522736,722.874695C448.002777,721.107361,447.9758,720.75769,448.27359,719.644348C448.784821,717.73291,449.621033,716.864075,452.262512,715.499817C454.205078,714.49646,454.804993,714.035645,455.490479,713.02002C455.953552,712.333862,457.071533,710.996948,457.974854,710.049072C459.764343,708.171265,460.036591,707.456299,460.383545,703.723022C460.584808,701.557495,460.398102,700.644714,459.674713,700.257568C458.322144,699.533691,457.376251,700.775818,457.040894,703.716309C456.90863,704.876099,456.571655,706.342041,456.292114,706.973999C455.559753,708.629639,452.682495,711.551208,449.712219,713.655273C446.503601,715.928223,445.470215,716.951355,445.271881,718.051697C445.186279,718.526733,445.219543,720.510986,445.345825,722.461243C445.566223,725.864624,445.604462,726.032043,446.29718,726.62793C447.21228,727.415039,447.646545,727.409302,448.456482,726.599365M594.175781,653.170715C596.231567,652.193237,596.458191,651.598022,596.459351,647.17334C596.459839,645.109375,596.345398,643.118469,596.204956,642.749023C596.064514,642.379639,594.506104,640.645691,592.741943,638.895874C589.368103,635.5495,588.732056,635.204468,587.684814,636.152161C587.127319,636.656738,587.041992,638.060181,587.531738,638.671387C587.713623,638.898438,588.616028,639.586853,589.537109,640.201294C590.576904,640.894897,591.507568,641.784912,591.992126,642.54895C592.784668,643.798706,593.652649,646.335022,593.964111,648.31134C594.305054,650.475037,592.622009,651.977295,590.893433,651.052185C590.159668,650.659424,589.830078,649.900818,589.557617,647.977173C589.253662,645.830872,588.574707,644.49115,587.190186,643.306091C585.835449,642.146423,584.968872,641.905212,584.130737,642.454346C583.114014,643.120544,583.294983,644.175476,584.727905,645.934692C585.404724,646.765564,586.496948,648.457703,587.15509,649.694885C587.813232,650.932129,588.820923,652.413574,589.394409,652.987C590.368042,653.960632,590.51825,654.021545,591.662964,653.906128C592.337219,653.838196,593.468018,653.507202,594.175781,653.170715M457.306885,745.90155C458.834656,745.209473,461.691803,744.111145,463.656067,743.460876C466.860779,742.399902,467.553497,742.264343,470.4021,742.140991C474.023743,741.984192,474.767212,741.699585,474.767212,740.470093C474.767212,738.874756,473.132751,738.139282,470.31311,738.465942C468.088867,738.723572,464.90152,739.632446,462.068787,740.816833C454.641968,743.922119,455.280701,743.724365,453.097656,743.593567C451.484558,743.496948,450.673981,743.277588,448.973541,742.477783C446.19809,741.172241,445.507263,740.978455,444.710083,741.281494C443.438599,741.764954,443.018463,744.185608,444.090973,744.848511C444.260834,744.953491,445.499084,745.122498,446.842682,745.224121C449.052246,745.391235,449.434937,745.503479,450.849152,746.399475C452.834839,747.657593,453.552551,747.602173,457.306885,745.90155M402.236847,772.646973C403.724792,771.261597,403.854919,770.791626,403.792206,767.028687L403.735443,763.62439L405.139313,760.978882C406.808105,757.834167,407.480042,757.142883,408.86792,757.142883C410.152527,757.142883,410.866272,757.885132,410.866272,759.220947C410.866272,759.978577,410.570557,760.598145,409.552002,761.974243C408.114166,763.91687,407.622345,765.01416,407.591553,766.348022C407.568756,767.335693,408.541016,768.518555,409.37558,768.518555C410.225891,768.518555,411.244965,767.495972,411.564789,766.321838C411.73111,765.711243,412.210175,764.180664,412.629364,762.920593C413.511414,760.269226,413.587006,758.524841,412.886719,756.982788C412.074982,755.195313,411.424652,754.760925,409.571808,754.768433C407.441711,754.776978,405.722351,755.196411,404.987366,755.88678C404.65741,756.196716,403.585999,757.642761,402.606415,759.10022L400.825409,761.750122L400.808929,765.068237C400.79541,767.790771,400.694458,768.623657,400.246552,769.709045C399.334412,771.91925,399.259186,772.640137,399.876221,773.257202C400.52417,773.905151,401.024353,773.775879,402.236847,772.646973M594.532532,625.119141C595.277954,624.859253,595.931213,623.954468,595.931213,623.181824C595.931213,622.447205,594.697571,621.717896,592.779175,621.318298C589.099915,620.552063,588.151428,618.652283,589.197021,614.143677C589.694336,611.99939,589.477661,611.140625,588.020386,609.47998C586.782166,608.069031,586.240967,607.044067,586.013245,605.678711C585.736267,604.018066,585.363403,603.266052,584.657471,602.944397C583.691406,602.504211,581.907959,602.581299,580.851868,603.108887C580.059448,603.504761,579.925903,603.704346,579.925903,604.492676C579.925903,605.297668,580.092773,605.53125,581.248657,606.344543C583.500122,607.928589,584.972656,609.585205,585.513184,611.142273C585.927185,612.334961,585.994324,613.197571,585.926575,616.4552C585.875916,618.89093,585.952454,620.543701,586.131409,620.878113C586.288574,621.171753,586.980408,621.732849,587.668884,622.125C588.357361,622.51709,589.537354,623.302734,590.291077,623.870789C592.177002,625.292114,593.185181,625.588806,594.532532,625.119141M434.687836,701.75769C440.039459,700.331604,441.786499,696.621521,439.704437,691.104065C439.327057,690.104004,438.787964,688.663696,438.5065,687.903442C437.942444,686.380066,437.841339,684.304443,438.275024,683.152161C438.429169,682.742554,438.947113,681.990784,439.425995,681.481506C439.904846,680.972229,440.493011,680.26123,440.733002,679.901489C441.75415,678.370667,440.810638,676.087585,439.220734,676.242188C438.447571,676.317322,438.289703,676.528442,436.885071,679.365112C436.056519,681.038391,435.181915,683.042908,434.941528,683.819641C434.426941,685.4823,434.609344,686.520386,435.914368,689.355652C437.190247,692.127563,437.465698,693.072876,437.46463,694.676147C437.46283,697.360229,435.772858,698.943359,432.912659,698.940369C430.423401,698.937744,429.205841,698.381042,426.059204,695.806763C424.664246,694.665527,424.63736,694.656616,422.87735,694.756104C420.90918,694.86731,420.00528,695.404663,420.00528,696.463501C420.00528,697.237915,420.782288,697.7323,422.650787,698.146973C423.45105,698.324585,425.355835,699.131592,426.883606,699.94043C431.078217,702.161194,432.196442,702.42157,434.687836,701.75769M564.667786,658.364502C565.493652,657.581421,567.025208,656.512085,568.07135,655.988281C569.482056,655.281921,570.176758,654.740295,570.76062,653.891724C573.182739,650.371277,576.920593,648.786255,579.168457,650.326477C579.650085,650.656555,580.578796,651.853882,581.271606,653.038147C583.447693,656.757751,584.051514,657.63916,584.984497,658.458313C586.059082,659.401855,587.300476,659.533081,587.720825,658.747559C588.283325,657.696594,588.028076,656.969421,586.587219,655.518188C585.81311,654.738525,584.492981,652.928467,583.653625,651.49585C582.814209,650.063293,581.54834,648.290344,580.840454,647.555908L579.553406,646.220642L577.999939,646.361511C575.194702,646.615845,572.260193,648.285217,567.624329,652.263794C566.678589,653.075439,564.952393,654.316895,563.78833,655.022522C560.684082,656.904419,559.8479,657.995361,560.613892,659.164307C560.932129,659.650085,561.260315,659.788391,562.094543,659.788391C563.028442,659.788391,563.359375,659.605225,564.667786,658.364502M505.210815,680.708191C506.788208,679.130859,506.019348,678.204834,502.649109,677.622803C500.016357,677.168152,496.727722,676.252869,491.433868,674.501465C487.360809,673.153931,481.797546,671.717651,477.544983,670.915771C475.944458,670.614014,474.050537,670.18927,473.336243,669.971924C471.568909,669.434143,471.145508,669.470642,470.390106,670.226074C469.554321,671.06189,469.544983,672.229736,470.366425,673.184692C470.989624,673.909241,471.004272,673.911804,474.090759,673.847595C478.331848,673.759338,481.909485,674.505493,489.160248,676.990479C490.892578,677.584167,493.77887,678.418945,495.57428,678.845459C497.512451,679.305969,499.564606,679.993652,500.625641,680.538269C502.934753,681.72345,504.150543,681.768494,505.210815,680.708191M547.651428,796.939697C548.173523,796.691895,549.64624,795.17334,551.307434,793.1698C552.837341,791.324585,554.802185,789.133179,555.673706,788.300049C556.756348,787.265015,557.40332,786.385132,557.716125,785.522217C558.933228,782.164917,559.402344,781.439941,562.019897,778.871887C564.22583,776.707642,564.685242,776.108521,565.062988,774.903503C565.697388,772.879822,565.640686,771.801819,564.858582,771.019775C563.428345,769.589539,562.164551,770.4823,561.637878,773.2948C561.187683,775.698669,560.735107,776.358765,558.836182,777.380981C556.297119,778.747864,555.869812,779.309082,555.079102,782.316406C554.726196,783.658508,554.308228,784.444824,553.32135,785.623291C551.404419,787.912231,550.514587,789.095398,549.285522,790.989624C547.658569,793.496948,547.15686,793.783081,544.388428,793.783081C543.127197,793.783081,541.946411,793.879395,541.764526,793.997131C541.334595,794.275391,541.354248,795.507996,541.797974,796.092285C542.740723,797.333618,545.867432,797.786255,547.651428,796.939697M560.982605,766.694702C561.258179,766.419067,561.561462,765.675049,561.656494,765.04126C561.897644,763.432983,563.039551,757.813354,563.799011,754.497375C564.408203,751.837463,564.428711,751.439026,564.281616,745.105835C564.156616,739.726318,564.207336,738.011292,564.553406,735.915588C565.335327,731.180298,565.023743,729.629639,563.290405,729.629639C562.714172,729.629639,562.221924,729.846436,561.81543,730.279114C561.233337,730.898743,561.213806,731.048706,561.390503,733.540894C561.552734,735.828918,561.504578,736.364075,561.002686,737.851746C560.389648,739.669128,560.390686,740.888672,561.008484,744.576782C561.434753,747.121338,561.13208,752.793396,560.359131,756.746094C559.749146,759.865295,559.204773,761.533997,558.118652,763.614136C557.401245,764.988098,557.427917,765.753601,558.220764,766.546448C559.009399,767.335022,560.274353,767.402954,560.982605,766.694702M434.713196,730.024902C435.081238,729.463196,435.096832,729.239502,434.815277,728.559814C434.371765,727.489136,434.005493,727.331116,431.268982,727.030457C426.62323,726.519897,425.64801,724.345215,427.252625,718.073792C428.176056,714.464722,428.157471,713.491577,427.142944,712.336121C426.12561,711.177429,422.59024,709.451538,420.00528,708.851624C417.707123,708.318298,416.273285,707.657776,414.998077,706.545105C412.612,704.463074,410.216919,704.696289,410.216919,707.01062C410.216919,708.159668,410.668823,708.662354,412.132385,709.141479C412.897675,709.392029,414.10965,709.890503,414.825684,710.249207C415.541718,710.60791,417.148865,711.066162,418.397095,711.267517C420.999878,711.687439,421.907471,711.998962,423.114014,712.886658C424.925018,714.219055,425.220551,716.239319,424.085571,719.52771C423.438629,721.401978,423.417786,721.630005,423.675934,724.005737C424.078461,727.709961,424.263031,727.89209,429.39682,729.650635C432.962463,730.87207,434.105377,730.952515,434.713196,730.024902M485.563873,724.328369C486.857483,723.123169,485.861725,721.764648,483.067474,720.922607C480.546997,720.163086,478.612183,718.985291,477.753601,717.687805C477.117889,716.727234,477.016602,716.265381,476.869934,713.658569C476.717987,710.957642,476.623962,710.555786,475.732361,708.796204C473.509033,704.408508,473.414551,700.060852,475.488892,697.595642C476.444763,696.459595,477.58728,696.031799,479.664917,696.031799C481.159668,696.031799,481.496552,695.940247,482.054352,695.382446C483.30542,694.131348,482.668182,692.59259,480.899109,692.592651C479.366577,692.592773,475.804901,693.349976,474.914917,693.864929C474.46991,694.122437,473.660706,694.983154,473.116699,695.77771C471.710876,697.830811,471.061981,700.080261,471.070313,702.871826C471.077393,705.234924,471.389801,706.416321,473.015625,710.227539C473.505066,711.374878,473.819702,712.823242,474.078796,715.121704C474.28125,716.917236,474.566467,718.683899,474.712646,719.047668C475.109314,720.034424,476.309204,721.043213,477.941803,721.762451C478.742065,722.115051,479.753967,722.704346,480.190491,723.072083C482.398682,724.932251,484.410767,725.402649,485.563873,724.328369M497.845642,740.047668C498.058411,739.580688,498.011963,738.754822,497.660339,736.75293C497.031982,733.175781,497.184021,731.839539,498.424133,730.03894C499.855103,727.961182,505.40094,722.261902,507.188721,721.031799C509.546936,719.40918,510.746033,718.165344,510.746033,717.341797C510.746033,716.443909,510.351318,715.699036,509.687195,715.343628C508.705078,714.817993,507.866821,715.334595,506.244995,717.46521C505.383484,718.596924,503.591309,720.517151,502.262329,721.732361C500.93338,722.947571,499.016907,724.98999,498.00354,726.271118C496.990143,727.552185,495.781921,728.831543,495.318604,729.114014C494.217346,729.785522,492.631958,729.771118,490.127991,729.066895C488.497528,728.608337,487.694153,728.531921,485.789734,728.654358C483.025391,728.832031,482.174622,729.252563,482.174622,730.441406C482.174622,731.445862,483.215942,732.539734,484.172119,732.539734C484.556458,732.539734,485.533142,732.347229,486.342529,732.111938C488.427124,731.50592,491.794434,731.699829,493.089905,732.500427C494.453552,733.343262,494.997009,734.885315,494.763916,737.250854C494.560669,739.313477,494.853607,740.388184,495.704895,740.703125C496.585083,741.028748,497.530548,740.739258,497.845642,740.047668M432.915344,694.391541C433.466644,693.840271,433.268463,692.978027,431.976196,690.305725C430.762115,687.795166,430.719574,687.626404,430.719574,685.321838L430.719574,682.936523L433.098022,678.185059C435.71347,672.959961,436.75824,671.585266,438.339203,671.288696C440.709778,670.843994,442.898956,672.611023,444.676392,676.403931C446.777924,680.888489,450.240631,683.515381,452.221558,682.127869C453.355011,681.333984,452.897675,680.070129,451.019836,678.807068C448.957703,677.419983,448.347839,676.738892,446.071136,673.280457C443.032776,668.664978,443.148315,668.749268,439.434204,668.440125C437.297607,668.262268,436.183014,668.271301,435.746887,668.470032C435.043518,668.790527,433.162781,671.846252,430.936584,676.285645C430.123718,677.906616,428.987152,679.927246,428.410889,680.77594C426.872375,683.041931,426.780823,683.578186,427.554321,685.792175C427.969635,686.980896,428.206879,688.241943,428.207825,689.265747C428.209961,691.589417,428.591309,692.665405,429.799652,693.75708C430.907593,694.757996,432.27121,695.035706,432.915344,694.391541M440.646027,664.282654C441.225098,663.972717,441.694061,662.500854,441.698669,660.978882C441.700439,660.396851,441.932617,658.373047,442.21463,656.481506C442.496643,654.589966,442.857788,651.494751,443.017181,649.60321C443.176575,647.71167,443.588776,644.199768,443.933228,641.79895C444.277649,639.398193,444.635986,636.064819,444.729523,634.391541C444.893066,631.466431,444.873749,631.303406,444.228088,630.158752C443.858765,629.504028,443.136658,628.189331,442.623444,627.237183C441.500336,625.153748,440.798859,624.693542,438.193939,624.331238C435.332947,623.933289,434.262024,624.455811,434.663147,626.054016C434.855652,626.821045,435.721222,627.312012,437.702759,627.777954C440.446289,628.423157,441.962952,630.634827,441.962952,633.990234C441.962952,634.735229,441.555481,637.779053,441.057434,640.754395C440.559387,643.729675,440.075836,647.175964,439.982849,648.41272C439.587158,653.674744,438.964447,657.894348,438.232666,660.271606C437.321167,663.232788,437.314301,663.34082,437.99469,664.021179C438.56662,664.593079,439.832642,664.717957,440.646027,664.282654M490.664093,717.679504C492.891235,716.577515,496.445892,713.085876,497.376953,711.085693C498.165375,709.392029,498.279358,706.820801,497.647034,704.993591C496.618164,702.020569,494.917114,698.512817,493.99176,697.456055C492.763885,696.053833,490.839386,695.37677,488.607666,695.561829C486.826721,695.709534,485.905121,696.36554,485.242188,697.95752L484.738281,699.16748L485.742126,702.219604C486.62738,704.911072,486.729065,705.482056,486.602966,707.052856C486.439392,709.091003,486.65097,709.853638,487.542053,710.4375C488.05014,710.770447,488.333984,710.79303,489.016937,710.554932C491.242554,709.779053,491.127899,706.244934,488.755798,702.504517C487.629333,700.728271,487.465302,699.390137,488.269104,698.534485C489.134613,697.61322,490.489929,697.646973,491.350342,698.611145C491.995117,699.333679,493.372681,702.238403,494.392853,705.026489C495.031677,706.7724,494.961975,709.136536,494.226746,710.661316C493.090179,713.018433,490.208374,715.123474,488.118103,715.123474C486.734131,715.123474,486.108307,714.811951,484.500732,713.322876C482.569,711.533447,480.851868,711.847656,480.851868,713.990601C480.851868,715.432129,481.849854,716.244629,485.119568,717.465088C486.628113,718.028137,488.111267,718.495544,488.415405,718.503662C488.719543,718.511841,489.731445,718.140991,490.664093,717.679504M466.994843,686.538635C469.432556,685.905334,470.222137,685.417847,471.593201,683.699646C473.116089,681.791138,474.812744,680.951111,477.133972,680.956299C479.54245,680.961731,481.801575,681.551086,484.216736,682.803894C485.74881,683.598633,486.917725,683.979553,488.788361,684.293701C490.170624,684.525757,492.601349,685.178467,494.189941,685.74408C497.449829,686.904785,498.93689,687.053406,499.361084,686.260803C499.812988,685.416382,499.674744,684.72583,498.937744,684.146118C498.178284,683.548706,497.909393,683.463196,493.021179,682.264038C491.202393,681.817871,487.828735,680.806641,485.52417,680.016968C481.313293,678.574036,477.771912,677.778931,475.560852,677.780151C473.580872,677.781189,472.481201,678.224976,471.532318,679.405823C468.533081,683.138428,467.645691,683.711182,464.846558,683.720947C463.41095,683.725952,462.578461,683.558167,461.142853,682.974487C458.778503,682.013184,457.670197,681.963196,457.002502,682.78772C456.688995,683.174927,456.560608,683.616455,456.660065,683.965454C456.870361,684.703491,458.20752,685.937378,458.958282,686.086121C460.535522,686.398682,464.111267,686.982056,464.582001,687.003662C464.873016,687.01709,465.958801,686.8078,466.994843,686.538635M477.959167,728.297607C478.646851,727.929565,478.60614,726.938904,477.875183,726.252197C477.547546,725.944397,476.38681,725.332886,475.295807,724.893311C471.777344,723.475769,470.708862,721.686707,470.244049,716.434814C469.976624,713.413269,469.785797,712.7453,468.118256,708.994751C467.246704,707.034546,467.236023,706.962769,467.231812,703.042358C467.226654,698.286987,467.533356,697.072327,469.469482,694.179932C470.199951,693.088623,470.797913,691.979614,470.798279,691.715454C470.800201,690.326233,469.54483,689.690247,468.040955,690.318604C467.03833,690.737549,466.540497,691.534729,466.063721,693.484863C465.890381,694.193787,465.433502,695.384277,465.048462,696.130371C464.362915,697.458618,464.346985,697.604614,464.28302,703.15625C464.213867,709.158997,464.220093,709.196655,465.559387,710.868225C466.882324,712.519287,467.359802,714.223022,467.359802,717.292236L467.359802,720.028442L468.824371,723.10968C469.673523,724.896057,470.546783,726.359741,470.902496,726.592834C471.772614,727.162964,475.814117,728.527771,476.702576,728.551514C477.112274,728.5625,477.677734,728.448242,477.959167,728.297607M435.171631,708.618958C439.455017,707.571228,441.52179,706.625305,443.619019,704.752747C445.618225,702.967712,446.288361,701.76123,447.129639,698.432495C447.954163,695.170044,447.906616,693.694458,446.903137,691.402161C446.328613,690.089661,446.207245,689.411804,446.202057,687.486877C446.194794,684.796448,445.826111,683.837708,444.604095,683.331543C443.875671,683.029846,443.699463,683.051392,443.070435,683.519287C441.92804,684.369141,441.988892,685.779785,443.324921,689.41803C444.365875,692.252808,444.443237,692.650146,444.459137,695.242798C444.47522,697.870361,444.427826,698.123474,443.606689,699.792358C442.163269,702.72583,439.287903,704.74707,435.190369,705.708618C432.055878,706.444153,430.651001,706.176147,426.287384,704.010132C424.214508,702.981201,421.780701,701.937866,420.878967,701.691528C419.345642,701.272766,419.195618,701.2724,418.564148,701.686157C417.649323,702.285583,417.64856,703.476318,418.562531,704.19519C418.933044,704.486694,420.062103,704.912964,421.071594,705.142578C423.572906,705.711487,425.308472,706.42804,427.809509,707.9245C430.056213,709.268677,430.484894,709.472656,431.116394,709.497925C431.334656,709.506653,433.159515,709.111084,435.171631,708.618958M465.52829,670.919861C467.269928,669.178223,465.951355,667.726746,462.624542,667.723389C459.850372,667.720642,457.892517,666.783569,456.876434,664.972107C456.047668,663.494629,455.92511,662.189148,456.357666,659.44519C456.741943,657.007385,457.053131,653.924561,457.56485,647.486816C458.482971,635.935974,458.583679,631.515259,457.975098,629.479248C457.261414,627.091675,455.483521,625.966309,454.544098,627.307556C453.945496,628.162231,454.032776,629.07666,454.925934,631.30719C455.830078,633.565186,455.870544,634.291199,455.331421,638.579346C455.11795,640.277405,454.697876,644.642883,454.397919,648.280457C454.097961,651.91803,453.603516,656.374878,453.299164,658.184509C452.635834,662.128174,452.742157,663.804504,453.766571,665.55481C454.654938,667.072754,456.806824,669.388062,458.034363,670.146729C459.38092,670.978943,461.751648,671.662842,463.345764,671.678955C464.560547,671.691162,464.861694,671.586426,465.52829,670.919861M433.345764,722.865112C433.834167,722.37677,433.945374,721.902771,434.131165,719.518066C434.402924,716.029785,436.008606,714.5896,439.656647,714.56189C441.762451,714.545898,442.52182,714.167297,446.583801,711.108093C451.861725,707.133118,452.523865,706.262756,453.201385,702.409241C453.90094,698.430359,455.003662,696.920776,457.771027,696.153625C460.880371,695.291687,461.882202,694.517639,462.220184,692.715942C462.484955,691.304688,461.823761,690.476196,460.432648,690.476196C459.428345,690.476196,459.215515,690.610718,457.859375,692.102112C456.744629,693.328125,455.918549,693.940369,454.501099,694.591309C453.467163,695.066101,452.378143,695.76355,452.081055,696.141235C451.777039,696.527771,451.244507,698.094421,450.862793,699.725159C449.808777,704.228271,448.823181,705.771729,445.264099,708.492676C442.59198,710.535583,441.343781,711.114746,437.63562,712.032471C433.86142,712.966431,433.343262,713.164124,432.660095,713.930542C432.181976,714.466919,430.587311,720.265381,430.587311,721.467468C430.587311,722.932129,432.373688,723.837219,433.345764,722.865112M481.682312,741.028442C482.224915,740.588745,482.298401,740.32312,482.242126,739.003784C482.167114,737.243469,481.394531,735.716492,479.927124,734.428101C478.362671,733.054504,477.713196,732.727722,475.599274,732.250549C474.486877,731.999512,472.670044,731.554077,471.561859,731.260864C469.358154,730.677612,468.674469,730.740967,466.498535,731.729614C465.80658,732.044006,464.341919,732.473145,463.243683,732.683228C461.008057,733.111023,460.813782,733.196289,458.698425,734.678101C455.912903,736.629395,452.78717,736.998779,450.36087,735.663391C449.538483,735.210754,448.95575,734.570313,448.18277,733.269409C446.939636,731.177246,446.056396,730.63623,445.006836,731.323853C444.214539,731.843018,444.136108,732.893799,444.754211,734.707825C445.317505,736.361023,445.888977,736.81604,449.240906,738.280273C453.368591,740.083435,454.198944,740.051025,458.761902,737.908936C466.926239,734.076172,472.913361,733.364929,476.823853,735.763245C477.845459,736.389771,478.389526,737.341919,478.631897,738.927307C479.013367,741.422852,480.19281,742.235229,481.682312,741.028442M497.82019,720.782715C505.039093,713.371948,504.907959,713.605591,504.993958,708.002075L505.058197,703.815918L502.015869,697.782043C500.34259,694.463501,498.729675,691.58313,498.431641,691.381287C497.660583,690.859192,489.683105,688.350037,488.259277,688.181824C486.149841,687.932556,484.911682,689.550598,486.094299,691.011047C486.523071,691.540527,486.907593,691.625122,489.661713,691.795715C492.382263,691.964233,492.952026,692.087097,494.462769,692.830811C496.55542,693.861023,497.422485,694.872925,499.019226,698.148193C502.511383,705.311279,503.024597,708.605286,501.232117,712.351563C499.829956,715.282166,495.604126,719.588867,492.673523,721.073853C491.954956,721.437988,491.084473,722.018494,490.739075,722.363892C489.434021,723.668945,490.293396,725.396851,492.247437,725.396851C493.295532,725.396851,493.450623,725.268433,497.82019,720.782715M577.081299,691.956177C577.356628,691.60614,577.727295,690.670105,577.904968,689.876038C578.415527,687.594604,579.67865,685.730591,581.382629,684.743835C583.908325,683.281311,584.291016,682.886658,584.291016,681.744812C584.291016,680.088684,583.035889,679.304382,581.301636,679.876709C579.985718,680.311035,579.304688,681.169678,577.655029,684.474548C576.01123,687.7677,575.141602,688.62439,573.442505,688.62439C571.382324,688.62439,567.361938,685.912659,566.236572,683.764099C565.748596,682.832397,565.660645,682.205688,565.637939,679.497375C565.615173,676.781982,565.523438,676.13147,565.003784,675C564.012085,672.840881,563.683838,671.440674,563.536194,668.740723C563.377686,665.84137,563.191772,665.201172,562.255127,664.3302C561.481079,663.610474,559.746704,663.300415,558.932312,663.736206C558.075012,664.195068,558.222473,665.292114,559.419189,667.359192C561.031738,670.14447,562.403381,675.830078,562.837463,681.527832C562.994385,683.587646,563.252502,685.189636,563.506592,685.68103C564.106934,686.841919,566.945374,688.766724,571.047485,690.794678C575.092407,692.794312,576.247131,693.016602,577.081299,691.956177M554.983643,661.34552C555.233643,661.050354,555.505127,660.370911,555.587097,659.835632C556.140442,656.220398,557.19104,654.767578,561.324097,651.901855C562.824951,650.861206,565.302917,649.001892,566.830688,647.77002C569.976013,645.233948,573.180481,643.439148,576.089966,642.583923C577.181213,642.263184,578.554138,641.727417,579.140869,641.393311C580.566467,640.581604,582.309265,638.344727,583.246033,636.12439C583.666382,635.127991,584.53302,633.645935,585.171814,632.830994C586.550293,631.072388,587.355957,629.55719,587.597656,628.268677C587.74115,627.503906,587.659119,627.202576,587.156799,626.648926C585.643188,624.980591,584.645386,625.598145,583.393311,628.978149C582.452393,631.518433,580.216309,635.7005,579.071655,637.060852C578.149536,638.156738,576.901245,638.914734,574.128174,640.062683C571.794983,641.028503,567.553955,643.446655,565.111084,645.203979C559.404907,649.30896,556.017944,652.423828,552.580261,656.727905C550.185608,659.726196,550.091858,660.737854,552.122192,661.67157C553.360535,662.241028,554.317566,662.132019,554.983643,661.34552M403.05896,796.446777C403.282043,796.17804,403.321167,795.352783,403.193878,793.602905C403.067719,791.868469,403.117676,790.784668,403.362366,789.947144C403.563599,789.258362,403.715515,787.363037,403.722809,785.449768C403.734497,782.388245,403.789642,782.032593,404.465759,780.655823C405.901123,777.732971,408.751465,775.396851,410.882233,775.396851C414.216736,775.396851,417.862915,778.514099,417.883057,781.38208C417.892273,782.690979,417.168579,784.396973,415.934387,785.975769C414.046021,788.391479,413.803711,789.235718,414.572235,790.721863C415.519775,792.554199,416.862457,791.77832,418.021179,788.728943C418.968628,786.235413,419.172821,785.862915,420.392517,784.403076C421.80835,782.708435,421.820892,782.319031,420.549072,779.542603C418.509155,775.089355,418.874451,775.509521,415.655975,773.914978C412.354584,772.279358,411.223511,772.030701,409.094788,772.472595C407.723267,772.757324,407.405029,772.979553,404.980042,775.345642C403.534515,776.756104,402.229187,778.148193,402.079346,778.439209C401.929504,778.730164,401.482361,780.201233,401.085663,781.70813C400.44281,784.150208,400.383759,784.725342,400.54245,786.999146C400.703857,789.311768,400.655975,789.74707,400.030304,791.65509C399.360809,793.696777,399.353119,793.793884,399.774109,794.89624C400.012817,795.521301,400.462769,796.21106,400.774048,796.429077C401.490448,796.930847,402.64978,796.93988,403.05896,796.446777M466.298676,679.234375C467.16748,678.785034,467.888885,677.87085,467.888885,677.219177C467.888885,676.976624,467.672424,676.510864,467.407837,676.184143C466.983826,675.660522,466.725037,675.599976,465.225281,675.673645C461.21582,675.870605,459.943542,675.634827,456.926849,674.135925C454.089661,672.726196,450.884613,669.166138,449.290222,665.653442C448.592194,664.115601,448.563049,661.213867,449.212646,657.936523C449.457825,656.699768,449.94751,652.533081,450.300903,648.677246C450.654266,644.821472,451.142639,640.111755,451.386139,638.211243C451.632996,636.28479,451.747742,634.32312,451.645477,633.778015C451.31015,631.990662,449.470154,631.478516,448.891357,633.011475C448.742126,633.406738,448.555176,635.040771,448.475922,636.642578C448.396698,638.244385,448.14859,640.775208,447.924561,642.266602C447.700562,643.757996,447.335999,646.971252,447.114441,649.407104C446.892883,651.843018,446.468323,655.502686,446.170959,657.539734C445.873596,659.576782,445.608734,662.258423,445.582336,663.498962L445.534393,665.754517L446.884491,667.599487C447.627045,668.614258,448.835266,670.337341,449.569458,671.428589C450.914673,673.428101,452.054718,674.632324,454,676.108582C455.634644,677.349121,456.639099,677.777466,458.84436,678.174316C459.963013,678.375671,461.533081,678.776794,462.333344,679.065674C464.107544,679.706238,465.288971,679.75647,466.298676,679.234375M396.482147,782.068176C397.597015,781.072021,397.859955,779.227051,396.99823,778.447144C396.436066,777.938416,396.397522,777.937622,395.185486,778.409241C391.978088,779.657227,391.270752,779.726196,387.404785,779.167664C383.03833,778.536804,381.813843,777.998413,380.119476,775.964233C377.552185,772.88208,375.188538,770.768433,372.67337,769.305664C369.763062,767.613098,368.919464,766.615112,368.108124,763.904785C367.800598,762.877563,367.208801,761.170898,366.792999,760.112183C365.454315,756.703552,365.828461,754.936584,368.382843,752.603882C370.442749,750.722656,371.102722,749.769653,371.008789,748.811707C370.925659,747.963562,370.43338,747.718811,369.354919,747.989502C367.842468,748.36908,363.320648,753.41217,362.45105,755.689148L361.980896,756.920288L363.319946,759.486206C364.963409,762.635498,365.507935,764.404541,365.507935,766.594482C365.507935,768.677246,365.853851,769.080933,368.983093,770.650146C374.110382,773.221313,376.160126,774.964172,378.59494,778.822937C379.470459,780.21051,380.329285,781.26886,380.668945,781.378784C380.987793,781.481995,382.277618,781.541565,383.535217,781.511108C385.096313,781.473389,386.481232,781.621582,387.900299,781.978394C390.732056,782.69043,390.991058,782.727051,393.47995,782.76825C395.513489,782.80188,395.713074,782.75531,396.482147,782.068176M393.015747,774.801636C393.656464,774.474243,394.400452,773.904114,394.669067,773.534729C395.252594,772.732239,396.690216,768.104614,396.904114,766.340332C397.09729,764.74646,396.535248,763.756653,395.437012,763.756653C394.191162,763.756653,393.757294,764.531921,393.540833,767.144958C393.211914,771.115906,392.079987,772.486816,389.130188,772.486816C386.781677,772.486816,385.300964,771.628052,382.658325,768.733398C381.45517,767.415527,379.573486,765.654175,378.476807,764.819336C376.254578,763.127686,374.608185,761.423157,374.226288,760.418701C373.400238,758.246033,374.362579,755.194275,376.602814,752.88208C378.333923,751.095398,379.442474,750.84668,382.468506,751.565857C384.505585,752.049988,385.030334,752.081909,386.747681,751.826538C388.370605,751.585144,388.987061,751.607666,390.355377,751.958191C392.554138,752.521484,393.266052,752.491699,393.996185,751.805786C394.805756,751.045227,394.836426,749.434326,394.056213,748.654175C393.579437,748.177368,393.299286,748.123901,392.005951,748.262939C387.944794,748.699585,382.487854,748.718445,380.273499,748.303467C376.272186,747.553711,376.136047,747.610474,374.801147,750.585693C374.300568,751.701416,373.406799,753.00354,372.39505,754.091064C369.944305,756.725464,369.90686,756.984985,371.382111,761.111145C372.432983,764.050354,373.04718,764.820007,375.715485,766.541382C378.334778,768.231079,379.828217,769.560974,381.707458,771.877197C383.897705,774.576721,385.626831,775.330994,389.724365,775.37439C391.437988,775.392456,392.077026,775.281311,393.015747,774.801636M429.749939,742.879456C430.970367,742.256836,432.877563,740.22876,433.385254,739.013733C433.871613,737.849731,433.863464,736.678101,433.362335,735.708984C432.851471,734.721069,432.68338,734.639648,428.778503,733.486328C426.983429,732.956177,424.569427,732.047119,423.414063,731.466248C421.547882,730.527954,421.011627,730.38623,418.6091,730.196594C412.169067,729.688293,410.131866,727.063599,411.921692,721.580688C412.404724,720.100952,412.588715,718.886719,412.6492,716.779602C412.729187,713.993347,412.721619,713.952637,412.025696,713.426636C410.422668,712.214844,409.418579,713.457458,409.429016,716.640015C409.432159,717.600464,409.116364,720.490356,408.727234,723.061951C407.801666,729.178528,407.719543,728.960083,411.653992,730.846924C413.505371,731.734863,415.749329,732.54834,417.756622,733.059265C419.502655,733.503723,422.002625,734.301025,423.312164,734.831055C424.863586,735.458984,426.371033,735.861694,427.638794,735.986694C429.22464,736.143066,429.709839,736.303894,430.262268,736.856323C431.54187,738.135925,430.927948,740.024536,429.122284,740.363281C428.101501,740.55481,424.873016,739.769897,422.020111,738.636597C420.938416,738.206848,418.444305,737.373962,416.477661,736.785645C414.510986,736.197266,411.800476,735.179871,410.454285,734.524658C407.781708,733.223877,407.069733,733.094299,406.453247,733.796326C405.238464,735.179749,405.949158,736.527344,408.164734,737.041687C408.929688,737.219238,411.638885,738.113281,414.185181,739.028381C423.850372,742.501953,425.443481,743.065552,425.957672,743.193359C427.172089,743.495239,428.80838,743.359863,429.749939,742.879456M504.507507,739.616455C504.828461,739.123352,504.846497,738.677856,504.612488,737.02124C504.378204,735.362305,504.402222,734.775879,504.753357,733.582092C505.266998,731.835754,507.005737,729.558533,509.094757,727.896118C512.000366,725.583862,513.453064,725.09259,518.814819,724.608948C525.569092,723.999695,525.585205,723.984558,524.901306,718.893188C524.345093,714.751953,524.556213,712.160889,525.617981,710.097656C526.128052,709.106567,526.494995,708.767151,527.512573,708.345459L528.774536,707.822388L531.069824,708.409424C533.963318,709.149475,534.237305,709.144165,536.774048,708.299377C539.603271,707.357178,540.580811,706.430298,541.834473,703.501343C543.487488,699.639282,544.263672,698.270142,545.502869,697.031006C546.804871,695.729004,549.969421,693.973511,552.349548,693.23291C554.196106,692.658325,554.925903,692.029785,554.925903,691.013916C554.925903,689.276978,553.178833,688.91394,551.115967,690.222229C550.418518,690.66449,548.649414,691.627808,547.184692,692.362854C545.71991,693.0979,544.180176,693.95166,543.763062,694.26001C542.72467,695.02771,541.69873,696.71228,540.260437,700.010986C538.849121,703.247864,537.91272,704.498291,536.324219,705.267273C534.920166,705.94696,532.605286,705.998047,530.572144,705.394287C527.699951,704.541382,524.420349,705.509888,523.477295,707.489502C522.346558,709.863159,522.012817,711.831726,522.000854,716.197205L521.989441,720.357422L521.256531,721.091431C520.536377,721.812622,520.455688,721.827759,516.626892,721.957703C512.208008,722.107727,512.282715,722.081848,508.898499,724.631958C506.575195,726.382568,502.632172,730.602783,501.922546,732.098145C501.144836,733.737122,501.436523,739.41687,502.327423,739.98175C503.008392,740.413513,504.108704,740.229126,504.507507,739.616455M514.714294,739.299927C526.513916,737.302673,529.776062,736.708496,532.174622,736.119568C535.945557,735.193726,542.67627,734.707397,545.847168,735.131653C548.797852,735.526489,549.466675,735.272644,549.581421,733.714539C549.641418,732.900024,549.528564,732.525391,549.108521,732.145386C548.263184,731.380371,545.917786,731.316345,543.086304,731.981079C540.408936,732.60968,538.92218,732.670654,536.510742,732.250732C534.754517,731.944885,534.258179,732.035706,530.851868,733.286011C528.980652,733.972839,526.134216,734.533813,521.272095,735.173889C518.282593,735.567444,516.953369,735.873535,515.539917,736.493958C513.447876,737.41217,512.369019,737.506104,511.580261,736.838623C510.766418,736.150024,510.648743,735.191711,511.25708,734.206909C511.692963,733.501343,512.143982,733.247559,513.974487,732.677917C515.181641,732.302307,517.300293,731.819031,518.682556,731.604004C520.064819,731.388977,522.688171,730.983643,524.512207,730.703369C528.155518,730.143433,530.63208,729.34436,531.541016,728.435425C532.858154,727.118286,533.054321,724.002808,532.023376,720.774231C531.445496,718.964539,531.36145,718.275269,531.431519,715.922974C531.509338,713.312317,531.483337,713.15686,530.888672,712.675171C530.104614,712.0401,530.025208,712.043335,529.132385,712.745605L528.399719,713.321899L528.548401,715.986389C528.630188,717.451843,528.952332,719.873169,529.264343,721.367249C530.31604,726.404114,529.410034,727.252441,521.990845,728.17749C520.244019,728.395264,517.862427,728.701843,516.698425,728.858765C513.198364,729.330627,510.297211,731.147278,509.051514,733.647034C508.031372,735.694214,508.177673,738.459045,509.353485,739.351868C509.928345,739.788452,511.943726,739.768921,514.714294,739.299927M571.078125,750.256714C572.067871,749.727051,572.473206,748.473938,572.225525,746.710022C572.101563,745.827759,572.033936,742.794556,572.075195,739.969543C572.15094,734.778687,571.918945,731.747131,571.15448,727.937256C570.622681,725.28717,570.7771,723.979004,572.116394,719.789795C573.448792,715.62207,574.667664,712.941284,576.527405,710.088196C578.426697,707.174438,578.516846,706.595398,577.337952,704.881592C576.002869,702.940796,575.380249,701.619141,574.779175,699.450073C574.450928,698.265503,573.977173,697.243408,573.549316,696.796875C573.166626,696.397339,571.289978,695.27063,569.379089,694.293091C567.468201,693.315491,565.155579,691.997681,564.23999,691.364563C561.868713,689.725037,561.119141,689.380737,560.344482,689.575134C559.162598,689.871765,558.729919,691.593445,559.63208,692.409912C559.892456,692.645508,561.29126,693.354248,562.74054,693.984802C565.952271,695.382263,568.926758,697.098511,570.322754,698.35968C571.017517,698.987427,571.821167,700.233704,572.733215,702.097778C573.955688,704.596558,574.101563,705.078796,574.103577,706.628662C574.105652,708.224182,573.97467,708.627808,572.468994,711.66687C571.568726,713.483948,570.451111,716.274841,569.985291,717.868896C568.935059,721.462891,568.611328,722.112061,567.545349,722.762085C566.517761,723.388672,565.571594,723.410461,563.209534,722.862061C561.767334,722.527222,561.2052,722.50415,560.394897,722.746521C558.952087,723.178101,555.493774,726.553406,554.408875,728.588867C553.591064,730.123291,553.557312,730.303345,553.644409,732.668823C553.723755,734.825317,553.814697,735.227844,554.351563,735.79895C555.112427,736.608215,556.068481,736.816284,556.769592,736.325195C557.258972,735.982422,557.295776,735.696533,557.237671,732.690186L557.174622,729.427246L558.002441,728.271851C559.265564,726.50885,561.261353,725.581726,563.856567,725.552307C566.337219,725.524231,567.489807,726.070984,568.284546,727.652893C568.881226,728.840454,568.903748,730.075684,568.553528,742.377258L568.360107,749.172485L569.038391,749.85083C569.770386,750.582825,570.279541,750.684143,571.078125,750.256714M426.902222,777.71167C427.688721,776.795654,428.85849,775.38208,431.992126,771.560913C434.778076,768.163635,436.40741,765.694336,436.40741,764.869507C436.40741,764.481445,435.962738,763.447266,435.41925,762.571411C434.501465,761.092285,434.432098,760.837524,434.445557,758.994751C434.453491,757.903442,434.502319,756.355835,434.554047,755.555603C434.630707,754.368896,434.513031,753.837097,433.915924,752.672119C432.32254,749.563293,433.170105,747.537354,437.275635,744.641296C438.615112,743.696411,438.94046,743.28009,439.892883,741.291748C441.178986,738.606873,441.391907,737.144531,440.795502,735.093018C440.300354,733.389648,439.472229,732.641663,438.384094,732.914795C437.48053,733.141541,437.135315,734.118896,437.460724,735.528931C438.206726,738.761047,437.563446,740.557495,434.501984,743.791687C430.36084,748.166504,428.36731,748.357422,419.608459,745.218018C417.571411,744.487915,414.714294,743.419006,413.259247,742.842651C409.165833,741.221252,404.653931,739.906738,403.81485,740.091003C403.414215,740.179016,401.832306,741.394043,400.290466,742.798035C397.651093,745.201416,397.497437,745.397949,397.571899,746.275513C397.6297,746.956848,397.835693,747.308899,398.34201,747.591736C399.375092,748.168884,400.423767,747.61792,401.632416,745.863037C402.225891,745.001343,403.041199,744.202026,403.636597,743.898315C405.688232,742.851685,408.717651,743.458618,412.181946,745.610474C413.635712,746.513489,414.54538,746.864868,416.261444,747.186218C417.793274,747.473083,419.066132,747.927002,420.415649,748.667603C422.325348,749.715698,422.410614,749.735474,425.027771,749.735474C430.53302,749.735474,431.87265,751.33667,431.524506,757.500671C431.355865,760.486877,431.385315,760.807922,431.940918,762.037048C432.853638,764.056335,432.763,765.705872,431.636047,767.586243C431.131989,768.427246,430.00528,769.857483,429.132263,770.764526C427.887207,772.058105,427.191376,772.542236,425.904846,773.009949C425.002777,773.337891,424.091248,773.800781,423.879181,774.038574C423.184631,774.817444,423.226318,776.490906,423.970642,777.71167C424.383759,778.389221,424.671783,778.571472,425.329437,778.571472C425.943207,778.571472,426.359314,778.343994,426.902222,777.71167M511.381409,710.702515C512.123718,709.960205,512.400085,708.370728,512.281738,705.524719C512.141602,702.153564,511.459229,700.27832,508.994507,696.49054C506.56543,692.757568,506.15741,691.873779,506.135437,690.297913C506.112152,688.62384,506.669464,687.764709,508.508148,686.640259C509.221924,686.203735,510.582886,685.06311,511.532593,684.10553C514.274475,681.34082,514.279053,681.338989,518.173096,681.411987C521.153442,681.467896,521.725891,681.40271,523.403076,680.816772C524.869446,680.304443,525.812378,680.158752,527.662476,680.158752C529.456177,680.158752,530.38147,680.022583,531.437256,679.603088C532.206543,679.297485,533.8479,678.688599,535.084656,678.249939C536.321411,677.811279,538.166687,677.032837,539.185181,676.520081C544.290222,673.94989,546.867798,673.962097,548.349487,676.563477C548.868958,677.475464,548.966431,678.022766,548.969666,680.045227C548.973206,682.21875,548.905518,682.547729,548.251953,683.535889C547.423584,684.788269,546.233765,685.545471,542.912842,686.933716C540.307373,688.022827,537.631165,689.715576,536.875916,690.752258C536.606323,691.122314,536.201904,692.129089,535.977173,692.989502C535.341919,695.422241,534.683472,696.451416,532.830811,697.907349C531.3302,699.08667,531.116394,699.365295,531.116394,700.141479C531.116394,701.692322,532.848389,702.337891,534.591187,701.436646C535.24176,701.10022,535.737244,700.30011,537.200989,697.222412C539.636963,692.100464,540.132263,691.596313,545.389282,688.887329C547.694336,687.699524,549.948669,686.367554,550.398926,685.927368C551.557129,684.795044,551.830994,683.477539,551.680664,679.761963C551.478638,674.766052,550.598877,673.088989,547.58252,671.94928C545.327087,671.097046,543.923523,671.153564,542.283813,672.162476C540.720093,673.124634,530.874756,676.507813,527.941772,677.09082C522.732483,678.126343,519.343567,678.587036,515.799561,678.741333C513.347046,678.848022,511.671051,679.043335,511.209534,679.276123C510.764465,679.500488,510.181458,680.239075,509.70636,681.180298C508.854309,682.868164,507.627075,684.086914,505.910645,684.94989C504.437653,685.690369,503.913513,686.175659,503.310486,687.357239C502.24408,689.446594,502.849152,691.499084,506.363708,697.714355C508.919312,702.233826,509.280029,703.496826,509.052673,707.130066C508.907532,709.44989,508.948914,710.021118,509.297974,710.515869C509.784302,711.205383,510.788574,711.295349,511.381409,710.702515M550.107788,727.364136C550.432678,727.136597,551.096924,726.333008,551.583862,725.57843C552.402344,724.31012,553.55603,723.107483,556.858154,720.080383C558.006226,719.027893,558.193298,718.685425,558.795288,716.534424C559.161804,715.224915,560.018555,713.141541,560.699097,711.904785C562.207886,709.162964,562.551697,708.31073,562.577759,707.248169C562.646973,704.425659,557.571045,702.126038,554.657227,703.659851C553.486877,704.27594,552.272278,706.057129,551.342651,708.520752C549.801086,712.60614,548.156921,715.175354,546.229004,716.511353C544.78125,717.514648,541.160889,718.783081,539.744995,718.783081C538.488525,718.783081,537.579468,718.138367,537.307373,717.05426C536.968872,715.705444,538.701721,714.289124,540.697876,714.283142C541.929199,714.27948,544.099731,713.196655,544.991638,712.140991C545.408752,711.647339,546.219788,710.231506,546.793945,708.994751C549.530334,703.099976,549.919861,702.404724,551.008301,701.473083C552.592834,700.116821,554.192383,699.426392,556.106201,699.272827C560.516541,698.918762,566.091614,702.48175,566.656677,706.015564C566.908325,707.589539,566.231323,709.722412,564.313354,713.3974C563.369812,715.2052,562.5979,716.951538,562.5979,717.278076C562.5979,718.177002,563.329712,719.047668,564.085327,719.047668C565.513062,719.047668,565.855164,718.579834,566.697388,715.476196C566.934265,714.60321,567.731445,712.60144,568.468872,711.027893C570.103149,707.540466,570.258057,706.496582,569.457397,704.365112C568.321533,701.341431,565.496826,699.175659,559.643799,696.84082C557.171631,695.854675,556.549438,695.84137,554.081909,696.721619C549.632141,698.309021,547.809814,699.769348,546.400024,702.877441C545.962891,703.841187,545.181885,705.55603,544.664368,706.688354C543.227661,709.831848,542.175049,710.655701,537.751831,712.098572C535.594238,712.802368,535.21167,713.475586,535.238953,716.520325C535.263184,719.230652,535.729004,720.475037,536.950989,721.093445C537.864868,721.555908,543.57312,721.537903,544.683105,721.06897C546.203857,720.426575,549.829956,717.529663,550.91748,716.088379C551.500854,715.315186,552.652527,713.075439,553.476746,711.111145C555.38208,706.57019,555.780701,705.928284,556.931274,705.548584C557.695313,705.296448,557.967712,705.316528,558.498108,705.664063C559.997559,706.646484,559.993103,707.880127,558.481873,710.156189C557.954956,710.949768,557.064819,712.744263,556.503784,714.144043C554.983154,717.937805,552.898804,720.450378,549.187378,722.963623C546.618347,724.703308,546.112061,725.866272,547.374207,727.128479C548.124023,727.878235,549.236816,727.974182,550.107788,727.364136"/>
</svg>
