<?xml version="1.0" encoding="UTF-8"?>
<svg xmlns="http://www.w3.org/2000/svg" width="257.253mm" height="259.597mm" viewBox="-524.769287 -775.203613 257.253113 259.596802">
    <path transform="matrix(-1,0,0,-1,0,0)" style="stroke:none;fill:#000000;fill-rule:evenodd" d="M333.413727,774.972412C332.027588,774.498169,331.009186,773.253174,330.634094,771.574524C330.195984,769.613892,329.833221,768.778809,329.294312,768.490356C328.299622,767.958008,327.740906,768.203613,326.923157,769.532593C325.958069,771.101074,325.144348,771.67511,323.886078,771.67511C322.032593,771.67511,320.635803,770.479431,319.251648,767.708008C318.072144,765.346313,317.512817,763.627563,317.129303,761.186462C316.609192,757.876038,316.010406,757.145203,313.503571,756.76123C312.037598,756.536682,308.786774,755.471558,307.320129,754.735168C304.821472,753.480652,300.829315,750.541809,298.361206,748.139954C296.304199,746.138184,295.563782,745.20697,294.777252,743.632751C293.39389,740.864014,291.55365,735.289612,290.94165,732.014038C290.146667,727.759155,289.881073,727.517822,284.646545,726.293091C282.658966,725.828064,280.199432,725.203369,279.180908,724.904846C277.154144,724.310852,275.208588,723.92157,272.963989,723.661011C270.02887,723.320313,268.321259,722.007813,267.680511,719.600159C267.436157,718.681885,267.455139,718.04425,267.775024,716.425537C267.995178,715.311462,268.288879,713.62616,268.427673,712.68042C268.566467,711.734619,268.927887,710.30603,269.230835,709.505798C269.832092,707.91748,272.966736,702.366699,274.266876,700.588074C275.165833,699.358276,279.747345,696.203552,283.026611,694.556335C285.61261,693.257324,287.029968,692.224365,287.637573,691.19574C288.263397,690.136292,288.26889,687.858704,287.649536,686.225342C286.903992,684.259216,285.915558,680.12262,285.749908,678.275269C285.628021,676.916138,285.694672,676.348328,286.058655,675.644409C286.70929,674.38623,286.600525,672.72229,285.678711,669.830688C284.088287,664.841675,283.923553,663.925781,284.31073,662.225952C284.893219,659.668762,284.951202,657.905762,284.508972,656.198914C284.282776,655.325928,284.018219,653.361572,283.921051,651.833862C283.770874,649.472412,283.815765,648.897461,284.220459,647.997864C284.598541,647.157471,284.707153,646.147583,284.748047,643.09198C284.801453,639.101563,285.151245,637.206238,286.221436,635.108459C286.890533,633.796936,287.405823,630.872192,287.772522,626.304749C288.162476,621.447144,288.342285,620.826538,289.668182,619.762268C291.053741,618.650085,291.860413,617.031494,292.784515,613.509277C293.641876,610.241272,294.124634,609.189148,295.071136,608.525574C296.789124,607.321045,297.44809,606.623657,298.879456,604.494873C299.723938,603.238953,300.92215,601.263367,301.542175,600.104614C303.105835,597.182434,303.708313,596.43927,305.500519,595.222229C307.105774,594.132141,307.808777,593.375366,309.866943,590.522217C311.191498,588.686035,313.417725,586.926636,316.864258,584.992065C320.719116,582.828308,321.574982,581.765259,322.154572,578.421143C322.331116,577.402588,322.814667,574.783569,323.229126,572.601013C323.643616,570.418457,324.110657,567.911316,324.267029,567.029541C324.42337,566.147766,324.555542,563.528687,324.56073,561.209412C324.566833,558.465149,324.703979,556.438232,324.9534,555.405273C325.447815,553.357666,325.44339,551.762024,324.937256,549.579651C324.506653,547.722961,324.532959,547.485901,325.412598,545.29126C325.90509,544.062439,325.932373,543.756348,325.656097,542.559387C325.288605,540.967346,325.248749,538.364685,325.578583,537.497131C326.008331,536.366821,326.488373,532.132935,326.300385,531.130859C326.139648,530.274109,325.857758,529.966675,324.208618,528.849792C321.994354,527.35022,319.303375,524.637085,318.530334,523.124756C318.234314,522.545715,317.384613,521.312683,316.64209,520.384766C314.955597,518.277161,314.794464,517.25238,315.98175,516.185669C316.769714,515.477783,317.920013,515.419128,319.557709,516.003479C320.337616,516.281677,321.405853,516.390869,322.831726,516.338074C323.995728,516.294922,327.031433,516.262634,329.577759,516.266235C335.272522,516.274353,336.530945,516.639465,338.366943,518.81665C338.989258,519.554565,340.000916,520.69043,340.615173,521.340759C341.706543,522.496399,341.76062,522.519409,342.996094,522.35553C343.691406,522.263367,347.374969,522.120605,351.181824,522.03833C357.182587,521.908691,358.306885,521.947937,359.633606,522.333618C361.8526,522.978699,363.956177,524.12384,365.104614,525.31189C366.583527,526.841797,370.655914,533.263794,372.360718,536.754456C373.177917,538.427734,374.21344,540.315979,374.661865,540.950562C375.467224,542.09021,375.477661,542.147156,375.513794,545.598877C375.545624,548.642456,375.626129,549.242004,376.137512,550.244385C376.5336,551.020813,376.793945,552.176941,376.937469,553.797119C377.205322,556.820374,377.53244,558.243774,378.375458,560.05481C379.018555,561.43634,379.043579,561.685181,379.046082,566.722778C379.048553,571.762634,379.074066,572.015991,379.737946,573.593262C380.459808,575.30835,380.452423,575.095154,379.941772,579.479736C379.809357,580.616821,379.868835,580.876343,380.364807,581.325195C380.99707,581.8974,381.965027,581.958862,384.868744,581.611328C386.417267,581.426025,386.661438,581.463501,387.323212,581.988586C387.727417,582.309265,388.297699,583.04126,388.590515,583.615234C389.147125,584.706299,390.183228,585.488037,391.74707,585.996887C392.256317,586.162598,393.737366,586.774536,395.038269,587.35675C397.159668,588.306152,397.710815,588.436401,400.382507,588.619751C402.619598,588.773315,403.787598,588.99469,405.072906,589.508911C406.014221,589.885498,407.028137,590.193604,407.325989,590.193604C407.623901,590.193604,409.825073,590.6698,412.217529,591.251831C414.609924,591.833801,417.143524,592.311157,417.847717,592.312622C418.62674,592.314148,419.645905,592.555847,420.450745,592.929871C422.385132,593.828735,422.688354,593.871582,427.479309,593.923828C430.514709,593.95697,432.052917,593.871399,432.501953,593.644531C432.85791,593.4646,433.928223,592.525269,434.880371,591.557129C439.493225,586.866699,443.976868,583.578247,449.741882,580.657227C452.320251,579.350769,455.300659,577.946594,456.36499,577.536743C457.429321,577.126892,459.387268,576.060608,460.716003,575.167175C462.044708,574.273743,464.12384,573.076843,465.336273,572.507446C468.155457,571.183472,470.649292,569.334656,471.722961,567.772705C472.187286,567.097168,473.351776,565.688477,474.31073,564.642212C476.250183,562.526123,478.056519,559.299561,479.378082,555.590637C480.152527,553.417114,480.208862,552.994019,480.389038,547.997864C480.493958,545.087769,480.709839,542.296753,480.868774,541.795532C481.490692,539.833801,480.533905,538.237488,477.225342,535.716614C474.604431,533.719727,473.067017,532.026245,472.727051,530.76178C471.836548,527.449341,471.112122,524.193909,471.112122,523.504333C471.112122,523.007263,471.362061,522.459351,471.778931,522.04248C472.368591,521.45282,472.65155,521.379639,474.226013,521.409851C475.2052,521.428589,477.434906,521.361755,479.180908,521.26123C481.874512,521.106262,482.773529,521.164185,485.114288,521.643494C490.352173,522.716064,492.329926,524.435486,494.612183,529.900757C495.306976,531.564697,496.391876,533.686523,497.02301,534.615906C498.426361,536.682434,498.604553,537.417664,498.91983,542.442261C499.056763,544.624817,499.235168,547.212524,499.316345,548.192749C499.575745,551.326599,498.959229,552.503235,495.349213,555.764221C493.738068,557.219604,493.185181,558.47644,492.681824,561.828064C492.012878,566.281738,490.956482,568.406616,487.020203,573.216309C482.484375,578.758484,482.487793,578.753357,482.487793,580.003052C482.487793,581.293579,483.301575,582.509399,484.622559,583.192505C486.553284,584.190918,487.930054,583.188232,488.842163,580.119507C489.637909,577.442078,490.135986,576.541992,492.151794,574.138794C495.578308,570.053772,496.298737,568.588928,496.912598,564.458557C497.584167,559.939819,498.107117,558.899902,500.804016,556.71991C503.64856,554.420593,504.609344,551.553833,505.234436,543.500488C505.369965,541.754456,505.782196,539.135437,506.150513,537.680359C506.518829,536.225342,506.821136,534.737244,506.822327,534.373535C506.825745,533.31488,505.917847,532.113953,504.263916,530.989441C502.408508,529.728027,500.45813,527.690674,499.719177,526.242188C499.420715,525.657227,498.978027,524.360535,498.735443,523.360718C498.492798,522.36084,498.000214,521.025879,497.640717,520.394043C497.28125,519.762207,496.886902,518.895752,496.764374,518.468628C496.493317,517.523499,496.900604,516.211731,497.577606,515.849426C498.280975,515.472961,499.715637,515.53186,501.015808,515.990601C501.944397,516.318237,503.06543,516.361816,507.19986,516.23114C512.953369,516.049316,515.691223,516.406738,517.447632,517.569092C518.708618,518.403564,520.241333,521.467834,521.276855,525.224915C521.731079,526.872681,522.255615,528.152039,522.686951,528.664063C523.064697,529.112427,523.545288,529.700928,523.754822,529.971741C524.126404,530.451904,524.322693,532.274109,524.713501,538.87085C524.83783,540.970093,524.768677,542.18457,524.430359,543.842529C524.088379,545.518555,524.00238,547.079834,524.06604,550.456299L524.149414,554.87616L523.24585,557.483154L522.342346,560.09021L522.677917,563.210938L523.013428,566.331726L522.035461,568.672729C521.282349,570.475464,521.025635,571.500305,520.918945,573.130127C520.754272,575.645081,520.352478,576.504517,518.321716,578.685669C516.295715,580.861816,515.481201,582.298035,515.498169,583.664673C515.519775,585.401611,515.115295,586.664307,513.510864,589.869385C511.911804,593.063843,511.763184,593.916992,512.232971,597.204224C512.389832,598.301758,512.262024,599.072876,511.482422,601.733215C510.110535,606.414795,510.030884,607.503662,510.922607,609.38855C511.576233,610.770203,511.615845,611.016235,511.335327,611.952454C511.164673,612.522034,510.599365,613.653564,510.079041,614.46698C509.558716,615.280334,508.763977,616.729004,508.312927,617.686157C507.535583,619.335754,507.496094,619.575012,507.555511,622.278503C507.615387,625.004395,507.575684,625.238464,506.658203,627.569519C504.835175,632.201294,504.643311,633.557373,505.528046,635.557434C506.186646,637.046326,506.074829,638.006836,504.990417,640.177246C504.58606,640.986511,503.864502,642.839111,503.386932,644.294128C502.909393,645.749146,502.07489,647.83252,501.532471,648.923767C499.841858,652.325012,499.310608,654.052307,499.653015,655.034485C500.031921,656.12146,500.02887,657.273254,499.645203,657.990234C499.478577,658.301514,497.454773,660.42926,495.147827,662.718506C492.840881,665.00769,490.95343,667.08429,490.95343,667.333069C490.95343,667.581909,491.518433,668.809448,492.208984,670.060974L493.464569,672.336487L493.555847,676.073486C493.623657,678.849304,493.531311,680.380371,493.196869,682.025879C492.659607,684.669312,492.312805,685.404114,491.161316,686.33905C489.442322,687.734741,489.124664,688.135193,485.791229,693.108826C483.93219,695.882568,482.114746,698.385132,481.752441,698.670166C481.258423,699.058716,480.681519,699.188354,479.445496,699.188354C477.948242,699.188354,477.654755,699.287109,476.240417,700.267212C473.711365,702.019775,468.120361,705.697632,467.446289,706.052185C467.103333,706.232544,465.912842,706.410645,464.800781,706.447998C463.11084,706.504822,462.34436,706.698975,460.133301,707.630371C458.678284,708.243347,456.237793,709.199463,454.710022,709.755127C453.182251,710.310791,451.277496,711.076111,450.477234,711.455811C448.721619,712.288696,447.201721,712.345276,446.112122,711.618164C445.392395,711.137878,445.035095,711.103516,442.276184,711.249329C440.602875,711.337708,438.221924,711.647644,436.985168,711.938049C434.329071,712.561707,432.904846,712.445984,431.241882,711.471375C429.733276,710.58728,428.259399,710.182983,424.5513,709.635925C420.199524,708.993958,419.213318,708.635376,418.115601,707.295715C417.566742,706.625916,416.02478,705.451233,414.292511,704.38324C410.842773,702.256348,410.087006,701.556885,408.40094,698.930359C407.69812,697.835449,406.688995,696.522949,406.158508,696.013733C404.797363,694.707031,404.395325,693.795349,404.16272,691.487732C404.017822,690.05072,403.723083,689.001953,403.138672,687.844238C402.112213,685.810852,401.884277,684.243408,402.339294,682.346802C402.931396,679.878723,401.999084,679.340271,399.184601,680.524841C397.022369,681.434937,395.612427,681.888367,393.833466,682.245789C393.016724,682.409912,391.966919,682.825623,391.500671,683.169678C390.412964,683.972107,390.193909,684.05188,384.207367,685.824951C378.048706,687.648926,377.549316,687.86377,376.984833,688.93219C376.444611,689.954651,375.516602,690.883728,373.015808,692.905762C370.457397,694.974426,367.212799,699.116821,366.778076,700.869568C366.661835,701.338257,366.753815,702.115906,367.020477,702.918701C367.509583,704.391235,367.372192,705.068481,366.047333,707.716492C365.344818,709.120544,363.901489,714.12146,363.004639,718.259033C362.596863,720.140137,362.706116,720.700256,363.728821,721.972046C364.587616,723.039917,364.4599,724.356567,363.325836,726.127197C362.243896,727.816406,361.380341,729.543457,359.599335,733.579834C358.17337,736.811523,357.981415,737.342163,357.764832,738.650818C357.65332,739.324585,357.195709,740.05249,356.267914,741.031799C353.961853,743.465881,351.66095,746.352295,350.771393,747.926941C350.240784,748.866211,349.071716,750.210754,347.699951,751.459473C345.327148,753.619507,344.657104,754.659241,344.657104,756.181274C344.657104,757.4021,344.116028,758.694214,342.890442,760.400146C341.785004,761.938843,341.217957,763.575989,341.217957,765.22876C341.217957,766.511719,340.073792,769.619019,338.676117,772.131836C337.204681,774.777222,335.512543,775.690613,333.413727,774.972412M345.288086,694.138489C346.784149,692.96167,347.223877,690.837524,346.232391,689.577026C344.906128,687.890991,340.278107,687.960449,339.357697,689.680237C339.181091,690.010254,339.103912,690.73053,339.182434,691.315918C339.534882,693.943604,343.314545,695.690918,345.288086,694.138489M314.762543,648.837158C316.924988,647.792847,317.829163,645.427002,316.531708,644.20813C316.169586,643.86792,315.278198,643.514099,314.349182,643.341858C310.721832,642.669434,308.013123,644.456726,308.524933,647.184875C308.961182,649.510254,311.807495,650.264221,314.762543,648.837158M478.007813,589.477051C480.289063,587.557495,480.413818,583.770264,478.23291,582.642517C477.503815,582.265503,477.215515,582.247009,476.307129,582.519165C473.030121,583.500977,471.536865,586.154236,473.030151,588.341919C474.294769,590.19458,476.545105,590.707825,478.007813,589.477051M304.185059,643.407471C306.791779,642.022278,307.037598,638.35675,304.65802,636.354492C302.203247,634.28894,299.742737,636.181335,299.47583,640.340271C299.354858,642.225708,299.374939,642.306641,300.158386,643.090088C300.810486,643.742188,301.186401,643.897339,302.114441,643.897339C302.746277,643.897339,303.67807,643.67688,304.185059,643.407471M320.45752,713.734436C322.417664,712.522949,322.769623,709.311401,321.122711,707.66449C320.196472,706.738281,317.910858,707.059448,316.155365,708.36261C313.871063,710.058228,314.257294,712.49646,317.011597,713.7677C318.387817,714.402832,319.391663,714.393127,320.45752,713.734436M412.563171,622.452515C414.204895,621.833557,416.085693,619.329956,416.085693,617.763489C416.085693,615.281189,410.637146,614.157898,408.957001,616.293884C407.7005,617.891235,408.894135,621.640076,410.926941,622.480896C411.64093,622.776245,411.707642,622.775085,412.563171,622.452515M384.08783,626.634521C385.226379,625.867249,385.865631,624.753723,386.191406,622.970215C386.51123,621.21936,386.249756,620.154907,385.331421,619.469238C384.65567,618.964722,384.591797,618.962463,383.439972,619.402344C380.53656,620.511169,378.537781,624.899109,380.152954,626.618347C380.942993,627.45929,382.852295,627.467163,384.08783,626.634521M330.614929,709.350586C332.16214,708.048706,332.664001,704.229614,331.566681,702.107666C330.882507,700.784668,329.466675,700.672974,327.686829,701.801758C324.745728,703.666931,324.591431,706.802063,327.322693,709.200134C328.500946,710.23468,329.509491,710.280762,330.614929,709.350586M404.945862,630.260559C406.310669,629.357422,407.620056,627.41571,407.620056,626.295044C407.620056,624.090149,404.222321,622.389343,402.386414,623.675293C401.107971,624.57074,400.24646,627.507629,400.732635,629.31311C401.275635,631.329651,402.809235,631.674561,404.945862,630.260559M467.858582,594.966248C469.101776,594.208191,469.607849,593.050171,469.462402,591.296387C469.361023,590.073669,469.207214,589.720032,468.503143,589.090942C467.423584,588.126343,466.13269,588.106445,464.287598,589.025879C462.658813,589.837524,461.852875,590.860718,461.852875,592.11676C461.852875,594.578979,465.587524,596.350952,467.858582,594.966248M316.281097,638.466248C317.002838,637.960693,317.438721,636.459717,317.153015,635.463501C316.778595,634.15802,316.396851,633.660583,315.120667,632.815308C313.074219,631.459778,311.070221,631.768066,310.131805,633.582764C309.268005,635.253113,309.95813,637.504456,311.604645,638.387451C312.748077,639.000671,315.453003,639.046265,316.281097,638.466248M381.966644,602.296814C383.294769,601.625854,384.339661,600.257141,384.339661,599.188354C384.339661,597.542053,381.999969,595.497437,380.106842,595.48938C378.787323,595.483765,377.409973,596.258667,377.112366,597.174072C376.566772,598.852295,377.908569,602.022705,379.423889,602.635742C380.294006,602.987732,380.708282,602.932495,381.966644,602.296814M394.044373,628.568359C395.324829,627.987061,396.338531,626.603943,396.774353,624.843628C397.151489,623.320435,396.821899,622.387207,395.655762,621.676208C393.840698,620.56958,391.594543,621.31781,390.679291,623.333984C390.097839,624.614929,389.991577,627.388611,390.49884,628.043518C391.358795,629.153625,392.411926,629.309509,394.044373,628.568359M319.569214,610.026978C320.979309,609.635315,322.170349,608.177246,322.170349,606.84259C322.170349,604.584839,320.896362,602.892029,319.197266,602.892029C317.419586,602.892029,315.720337,604.182617,314.894226,606.160156C314.147369,607.94812,314.779694,609.197144,316.795685,609.916138C318.031555,610.356934,318.337311,610.369141,319.569214,610.026978M303.66333,655.16449C304.761108,654.437988,305.768219,652.804932,305.768219,651.751221C305.768219,650.989258,304.839172,649.562866,303.880463,648.852905C303.12561,648.293884,301.164764,647.966614,300.128601,648.226685C297.558716,648.871643,297.717407,655.719055,300.311676,656.126831C301.238831,656.272583,302.563751,655.892151,303.66333,655.16449M449.958801,666.38208C452.313538,665.935486,454.018799,665.011414,454.548676,663.894775C455.328308,662.251831,454.615143,660.299866,452.986603,659.619385C452.19455,659.288452,451.916473,659.304199,450.427795,659.764282C446.2547,661.054016,443.925293,664.071106,445.781433,665.782471C446.723389,666.65094,447.757996,666.799438,449.958801,666.38208M493.358307,541.553223C494.324768,540.358276,493.802002,537.797424,492.260864,536.177368C490.945251,534.794373,490.147034,534.855591,487.320923,536.556396C485.083252,537.903076,484.520935,540.131226,486.013916,541.735413C486.561829,542.324219,486.725098,542.347534,489.720123,542.264526C492.641083,542.183594,492.88736,542.135437,493.358307,541.553223M519.226318,536.39856C520.127747,535.312439,519.5896,532.136414,518.250122,530.637268C517.290588,529.563416,516.208252,529.568909,513.900269,530.659363C511.788544,531.657166,511.059235,532.480103,511.059235,533.865356C511.059235,535.45813,511.963867,536.308228,513.87561,536.51178C516.781616,536.821228,518.912964,536.776123,519.226318,536.39856M326.492615,764.799438C327.307251,763.831238,327.806213,761.647278,327.835938,758.919312C327.862793,756.455078,327.424561,755.822388,325.544312,755.610474C324.008514,755.437378,322.659424,756.06897,322.017029,757.261841C321.578552,758.075989,321.561371,758.366821,321.842041,760.224121C322.013184,761.356812,322.285919,762.745239,322.44809,763.309448C323.104095,765.591614,325.181885,766.357117,326.492615,764.799438M517.65332,557.267273C519.029297,556.555725,519.721191,553.667725,518.822937,552.385376C518.407593,551.792358,518.277832,551.768555,516.243591,551.911804C514.888672,552.007263,513.392517,551.92749,512.171875,551.694702C509.888062,551.259216,509.175049,551.471436,508.558777,552.770264C507.751678,554.471008,508.190643,555.928589,509.753296,556.736694C511.267731,557.519836,516.487061,557.870361,517.65332,557.267273M333.810547,527.533936C335.564606,526.249695,336.180481,523.992371,335.138245,522.667419C334.184509,521.454895,332.714508,521.064941,328.651825,520.946716C325.637299,520.858948,324.84967,520.913208,324.419006,521.238281C323.903503,521.627441,323.9021,521.660278,324.364685,522.516174C324.826111,523.369995,329.018005,526.881226,330.717926,527.83783C331.687897,528.383728,332.799072,528.274536,333.810547,527.533936M518.329956,547.073608C519.200928,546.742493,519.789429,545.378784,519.789429,543.691833C519.789429,541.602295,519.490051,541.397217,516.305481,541.30481C514.802307,541.261169,512.991333,541.20166,512.281006,541.172546C511.154358,541.126282,510.921021,541.210938,510.451843,541.83606C510.125,542.271606,509.867981,543.108643,509.796509,543.970459C509.696228,545.180115,509.771179,545.495483,510.307312,546.118713C510.901184,546.809204,511.087799,546.85675,513.709106,546.98645C515.234497,547.061951,516.532104,547.17157,516.592773,547.230042C516.788025,547.418579,517.619629,547.343628,518.329956,547.073608M511.782745,526.56604C514.938477,525.66156,515.512634,525.404907,515.699768,524.815308C516.074768,523.63385,515.270081,522.191956,513.837036,521.477356C513.546021,521.332275,511.367035,521.129272,508.994873,521.026306C505.198914,520.861511,504.600586,520.892334,504.00415,521.283081C503.438721,521.653564,503.349976,521.871887,503.468353,522.601257C503.81604,524.743896,506.494751,527.230652,508.455078,527.230652C509.009949,527.230652,510.507385,526.93158,511.782745,526.56604M485.039307,532.491821C487.310822,531.791809,488.723938,531.081421,488.934021,530.533997C489.138062,530.002319,488.543152,528.56543,487.871765,527.968262C487.063232,527.249084,485.679443,526.768616,483.134338,526.323486C480.666931,525.891846,478.345459,525.788269,477.595001,526.076233C477.353699,526.168823,477.045349,526.536377,476.90979,526.892944C476.341797,528.386841,478.502808,531.12854,481.260376,532.412476C482.913757,533.182312,482.806152,533.180054,485.039307,532.491821M472.95929,672.434265C475.750793,670.732544,474.951538,668.996277,470.547974,667.195801C468.67276,666.429077,468.040924,665.982117,465.796753,663.834595C463.506958,661.643433,463.098083,661.357666,462.25293,661.357666C459.71991,661.357666,458.0755,663.88739,459.462402,665.650513C459.748199,666.013855,461.291809,666.994385,462.892639,667.829468C464.704529,668.774719,466.430786,669.920044,467.465637,670.863586C468.379944,671.697205,469.366119,672.514832,469.657104,672.680542C470.491516,673.155579,471.955109,673.046448,472.95929,672.434265M402.85022,618.955688C403.728821,618.511108,404.710022,617.004883,404.710022,616.100708C404.710022,614.185547,402.604126,613.131897,396.773499,612.129761C392.638,611.418945,389.669678,611.362427,388.732208,611.976685C387.073242,613.063721,386.398712,615.797607,387.514252,616.913208C388.25766,617.656616,389.372192,617.582886,392.14389,616.606995C395.068542,615.577271,395.915466,615.673279,397.851868,617.253784C400.486694,619.404297,401.369568,619.704956,402.85022,618.955688M445.647095,686.905273C447.503418,686.551636,450.184326,686.064209,451.604767,685.822021C457.086029,684.88739,459.240326,682.447021,456.320862,680.479614C454.849823,679.488281,453.269897,679.64624,450.243286,681.087402C447.057983,682.604126,445.73175,682.776611,443.047241,682.023315C440.263672,681.24231,439.241119,681.283203,438.311432,682.212891C437.281128,683.243164,436.804657,684.886353,437.234985,685.925232C437.957764,687.670166,440.237152,687.93573,445.647095,686.905273M354.103699,544.928894C357.147278,543.455505,357.578491,541.814941,355.639374,539.086243C353.642883,536.276855,353.223206,535.598816,352.902435,534.664734C352.477783,533.428101,352.515533,531.486694,352.990448,530.140686C353.578949,528.472656,353.508911,527.318604,352.792023,526.872131C351.260681,525.918518,348.705963,526.19342,347.917542,527.396667C347.505035,528.026245,347.504913,528.223389,347.915588,530.362488C348.157532,531.622803,348.427307,533.368225,348.515076,534.241211C348.602844,535.114258,348.961182,536.757324,349.311401,537.892456C349.661591,539.027588,349.94812,540.575989,349.94812,541.333374C349.94812,545.056885,351.344116,546.264771,354.103699,544.928894M306.367401,631.057617C307.972809,629.966736,308.413727,628.777588,308.413727,625.538818C308.413727,621.457336,308.793396,620.772583,312.050598,618.979675C313.105103,618.399231,314.206299,617.621216,314.497681,617.250793C315.614014,615.831665,314.823395,613.274841,313.037567,612.528625C312.248657,612.198975,311.994812,612.196289,311.257629,612.50946C309.319885,613.332764,308.172211,614.965332,304.974762,621.446716C301.894653,627.690308,301.4422,629.782959,302.864899,631.205627C303.61377,631.954529,305.142609,631.889893,306.367401,631.057617M304.193298,666.07074C304.986755,665.704468,306.35022,664.849182,307.223267,664.169983C308.096252,663.490845,310.199799,661.925171,311.897797,660.690796C313.639496,659.424622,315.232758,658.045593,315.553467,657.526733C316.697388,655.675781,315.681671,654.213684,313.120453,654.024414C311.1698,653.880249,310.093872,654.486633,309.027771,656.331177C306.821838,660.147766,306.088593,660.668579,302.990448,660.619263C300.495483,660.57959,299.568359,660.905396,299.046387,662.005371C298.814819,662.493408,298.625366,663.205811,298.625366,663.588623C298.625366,664.499756,299.303375,666.101196,299.884796,666.563416C300.542694,667.086426,302.470459,666.865967,304.193298,666.07074M293.893829,723.063965C294.406128,722.518372,295.453613,721.279907,296.221619,720.311829C298.781555,717.085022,301.665955,715.365601,305.973419,714.498474C309.306396,713.827515,309.294189,713.831726,310.103821,713.08136C310.616608,712.60614,310.794678,712.180298,310.794678,711.429138C310.794678,708.862549,307.996826,707.672241,305.239136,709.065674C302.02771,710.688232,296.899841,713.548218,295.511444,714.491028C292.860321,716.291382,290.121796,719.682373,289.727722,721.652771C289.597809,722.302368,289.715698,722.594482,290.373016,723.251831C291.54184,724.420654,292.677002,724.360107,293.893829,723.063965M376.323364,672.881592C377.458496,672.526733,379.39917,671.980957,380.635956,671.668884C383.214355,671.018311,393.012726,667.7453,394.512177,667.033752C395.800018,666.422607,396.332642,665.270874,395.956848,663.90979C395.405853,661.914246,393.54184,661.937073,389.092407,663.993896C383.9422,666.374756,379.196228,667.702148,375.820923,667.705811C374.15152,667.707581,372.190399,668.253235,371.368958,668.944397C370.034241,670.067505,370.385315,672.310974,372.038055,673.219849C372.868103,673.676392,374.090057,673.579895,376.323364,672.881592M335.223541,634.094788C335.603394,633.795959,336.050415,633.096924,336.216858,632.541382C336.643036,631.118896,336.217102,630.023071,334.388977,627.838928C333.560913,626.849609,332.147949,624.849731,331.249084,623.394653C329.459473,620.497803,325.025848,615.014282,323.842285,614.233948C323.431976,613.96344,322.637939,613.741272,322.077759,613.740356C319.997314,613.736755,318.530487,616.282593,319.673065,617.913879C319.900116,618.238037,321.090118,619.164612,322.317505,619.9729C325.771423,622.247437,328.642456,626.176086,330.233398,630.804565C331.306458,633.926514,331.898743,634.638062,333.424164,634.638062C334.141937,634.638062,334.776367,634.446472,335.223541,634.094788M325.309998,643.819275C326.672119,643.149963,327.044006,642.241577,327.150757,639.322815C327.265533,636.185669,326.927429,634.912598,324.809692,630.507935C323.734955,628.272583,323.18396,627.493164,321.458038,625.766541C317.851746,622.158813,316.668976,621.608521,314.874023,622.703064C313.845154,623.330444,313.081726,624.878052,313.303345,625.887085C313.541382,626.971008,314.386719,627.61322,316.474548,628.296448C317.93515,628.774414,318.597809,629.180054,319.662262,630.247803C322.492432,633.086731,323.066406,636.067688,321.44281,639.495789C320.204498,642.110474,320.290771,643.405212,321.746979,644.060913C322.635132,644.460876,324.223511,644.353149,325.309998,643.819275M342.461731,626.183167C342.927551,625.899109,343.49054,625.315002,343.71286,624.885132C344.318542,623.713867,343.866882,622.816528,341.691223,620.868591C339.420837,618.835876,334.661438,612.550537,332.850067,609.19281C331.359131,606.429138,330.460205,605.537537,329.164795,605.537537C327.387848,605.537537,326.010559,607.641052,326.50296,609.602905C326.593353,609.963074,327.629608,611.189758,328.805725,612.328857C331.029724,614.482849,334.297211,618.808655,337.026245,623.211975C337.900116,624.622009,338.873352,625.981323,339.189026,626.232727C339.953522,626.841553,341.418274,626.819397,342.461731,626.183167M314.373688,703.862488C315.263397,703.325562,316.784058,702.712097,317.812866,702.475098C320.733276,701.802429,321.435394,701.398499,323.340515,699.295044C324.319885,698.213684,325.467041,697.150085,325.889832,696.931458C326.312592,696.712891,327.854492,696.251343,329.316254,695.905884C330.778015,695.560425,332.368225,695.00769,332.850006,694.677551C335.627808,692.77417,335.876678,689.088074,333.279907,688.310059C331.669006,687.827393,330.421356,688.323425,328.31189,690.285156C325.85556,692.569458,324.905853,693.25592,321.134155,695.473389C317.210938,697.779907,315.940399,698.360718,312.673279,699.341248C308.609253,700.560913,307.332825,702.38092,309.218842,704.266968C309.95575,705.003845,310.140594,705.061584,311.401367,704.948547C312.364594,704.862183,313.258423,704.535583,314.373688,703.862488M355.10675,692.243896C355.929565,691.473267,357.221588,689.428406,359.549927,685.21167C360.62439,683.265747,360.485687,681.84082,359.011536,679.681213C357.529663,677.510254,357.027771,676.445618,356.064178,673.429199C355.048798,670.25061,354.520355,669.467529,352.998505,668.886353C351.48877,668.309753,350.228027,668.5354,349.016541,669.599121C348.298676,670.229431,348.096252,670.608582,348.096252,671.323059C348.096252,672.647339,348.416779,673.085693,350.54953,674.678406C353.996338,677.25238,354.838226,678.494141,355.148376,681.461487C355.384003,683.71582,354.840424,684.957031,352.750793,686.936035C350.891663,688.696716,350.508942,689.612488,351.004639,691.114502C351.679504,693.159302,353.572723,693.680542,355.10675,692.243896M464.955872,680.414795C466.192749,679.853333,467.141357,678.564697,467.142883,677.443848C467.144287,676.44165,466.265381,675.570923,463.969299,674.299744C462.878021,673.695618,461.000122,672.491638,459.796143,671.624268C456.511841,669.258057,455.853516,669.193848,452.268005,670.890076C450.264099,671.838074,448.62265,671.908264,446.201843,671.149414C444.012421,670.463074,443.255676,670.482422,442.366516,671.247253C441.732788,671.792358,441.634613,672.069641,441.640625,673.297485C441.649353,675.097107,442.247467,676.237549,443.492218,676.828247C444.84082,677.468201,446.367859,677.259399,449.419006,676.017822C451.81192,675.044128,452.073792,674.994812,454.888275,674.988525C458.53479,674.980469,458.899658,675.190979,460.397858,678.167664C461.818604,680.990417,462.714661,681.43219,464.955872,680.414795M438.050629,613.026123C438.4104,612.779785,439.478546,611.904114,440.424316,611.080139C441.370087,610.256226,443.096252,608.950684,444.260284,608.178955C445.424316,607.407288,447.44812,605.681213,448.757629,604.343262C451.477356,601.564514,452.025024,601.228943,454.952179,600.547363C457.497314,599.954712,458.329041,599.455627,458.85022,598.208252C459.659668,596.270935,458.486938,593.894348,456.724213,593.899902C454.812134,593.905884,451.05542,596.448303,444.6828,602.049072C440.997131,605.28833,440.014557,605.953308,437.290497,607.051758C434.348694,608.237976,433.607422,608.777161,433.400238,609.881409C432.94043,612.332458,436.02124,614.415771,438.050629,613.026123M308.688599,735.690735C308.966125,735.542236,309.776733,734.837158,310.489899,734.124023C312.203125,732.410767,313.379639,732.048279,315.851471,732.472168C320.987457,733.352905,321.958038,732.719482,325.96521,725.871582C326.785767,724.46936,327.961609,722.27063,328.578186,720.985657C330.52124,716.936279,330.212311,713.738586,327.878082,713.738586C325.710205,713.738586,323.916168,716.104004,323.458893,719.565308C322.817657,724.419067,321.914978,726.020447,319.038422,727.407532C317.652679,728.075745,317.214355,728.141602,313.175629,728.288635C308.413452,728.462036,307.245697,728.791077,306.064728,730.292419C304.884338,731.793091,305.126038,734.050659,306.599823,735.290771C307.466339,736.019897,307.913544,736.10553,308.688599,735.690735M285.524628,720.778748C285.872131,720.431213,286.22995,719.687195,286.319824,719.125305C286.859222,715.752747,287.7677,714.124207,290.119171,712.314819C292.602112,710.404236,297.285461,707.509155,300.41861,705.948059C303.813843,704.256409,304.565735,703.551025,304.565735,702.057617C304.565735,701.162109,304.40625,700.842346,303.583557,700.088379C301.940521,698.582642,300.58963,698.863037,298.030762,701.240906C295.71817,703.389893,293.96463,704.647339,290.244293,706.824707C285.910065,709.361389,284.64035,710.638428,283.041748,714.068604C281.119232,718.193848,280.828888,719.07135,281.126984,719.855347C281.683685,721.319641,284.411041,721.892334,285.524628,720.778748M377.966187,682.801819C379.216309,682.228394,381.601685,681.382813,383.267029,680.922729C384.932373,680.462708,388.235168,679.319214,390.606506,678.381714C393.299377,677.317139,395.887207,676.49115,397.499268,676.18158C398.918884,675.908997,400.297852,675.600586,400.563599,675.496277C401.813904,675.005615,401.552368,672.697327,400.07959,671.224548C398.945465,670.090454,397.855194,670.067627,396.160309,671.142456C395.475067,671.577026,394.412415,672.188721,393.798859,672.501709C391.937439,673.451294,379.993713,677.20459,377.419495,677.648804C376.093079,677.877686,374.756317,678.161194,374.448883,678.278809C373.139801,678.779663,372.376068,680.40033,372.720856,681.94574C373.209778,684.137268,374.570557,684.359375,377.966187,682.801819M478.114746,664.386047C479.212341,663.865173,479.985657,662.493835,479.738007,661.507202C479.356079,659.985596,478.374329,659.489807,474.47345,658.848755C473.176697,658.63562,471.917419,657.502441,471.671448,656.327393C471.375977,654.915588,471.759399,653.447571,473.221008,650.394531C474.384399,647.964417,474.852051,647.307861,476.823792,645.336121C478.069977,644.089905,479.258972,642.664917,479.465942,642.169556C480.058624,640.751099,479.949036,639.482666,479.16626,638.69989C478.592987,638.126587,478.341614,638.051025,477.512817,638.202515C476.085754,638.463379,474.449951,639.504761,473.554321,640.722656C472.399841,642.292542,468.360107,650.544189,467.424438,653.243774C466.44928,656.05719,466.402374,657.260498,467.22052,658.474487C468.374207,660.186523,475.313141,664.796753,476.736115,664.796753C477.01825,664.796753,477.638641,664.611938,478.114746,664.386047M276.957886,718.793823C277.244171,718.443848,277.431763,717.483765,277.539856,715.815186C277.681793,713.624512,277.821594,713.106323,278.807892,711.115967C280.436249,707.829712,283.167297,705.190552,287.430176,702.783691C289.257355,701.752075,291.491272,700.221985,292.588898,699.250366C293.653656,698.3078,295.337799,696.883789,296.331421,696.085876C298.52713,694.322632,299.152161,693.367554,299.153473,691.773682C299.155121,689.793518,297.861511,688.606323,295.702332,688.606323C294.234314,688.606323,293.387604,689.530273,292.592102,692.000244C291.677155,694.841064,290.419678,696.033569,285.397858,698.822693C280.381042,701.609131,278.811432,702.783997,277.334137,704.858643C274.811157,708.401855,272.434875,714.045471,272.434875,716.494324C272.434875,717.728394,273.130493,718.888062,274.124878,719.311707C274.950073,719.66333,276.474548,719.384644,276.957886,718.793823M427.19809,614.003113C427.925232,614.003113,429.269775,612.519348,429.459656,611.507446C429.835602,609.503418,428.736145,608.860107,424.281006,608.477478C422.304779,608.307739,420.077332,607.926758,418.731201,607.528259C417.494415,607.162048,414.280121,606.446655,411.588318,605.938354C408.896545,605.430054,405.444153,604.6474,403.916382,604.199097C402.388611,603.750854,399.412415,603.041382,397.302612,602.622498C395.19281,602.203613,392.611237,601.67627,391.565765,601.450562C389.558136,601.017212,388.682739,601.14801,387.712036,602.026489C386.938416,602.726624,386.642944,604.310425,387.087463,605.374268C387.671997,606.773315,388.19281,606.927002,391.704285,606.736816C394.481598,606.586426,395.167572,606.647949,398.58017,607.353455C401.513062,607.959778,402.890076,608.395142,404.664825,609.277161L406.958679,610.417175L410.794678,610.424438L414.630676,610.431702L416.879333,611.546204C418.856262,612.526001,420.606293,613.044006,425.477234,614.091064C425.768219,614.153625,426.164856,614.159424,426.358643,614.103943C426.552429,614.048523,426.930176,614.003113,427.19809,614.003113M307.71405,685.659668C313.388367,683.481506,315.170349,682.41333,319.779053,678.427612C325.388336,673.576538,326.667236,672.908813,330.371399,672.897461C332.234375,672.891724,333.15976,673.058594,335.766357,673.870117C339.343994,674.984009,341.047546,675.095581,342.741089,674.326843C344.026855,673.743225,344.522034,672.84375,344.128052,671.807495C343.762268,670.845459,342.450226,670.162476,340.315704,669.823059C339.28418,669.659058,336.6185,669.222534,334.391998,668.853027C327.000916,667.626404,325.22998,668.073853,319.921661,672.509155C315.347137,676.331421,311.637634,679.012329,309.339661,680.156921C307.565399,681.04071,306.837463,681.246155,304.836853,681.427734C302.123016,681.674133,301.442047,681.952332,300.87677,683.045471C300.287292,684.185425,300.381409,685.277222,301.147614,686.187866C302.299683,687.557007,302.89624,687.509033,307.71405,685.659668M346.671326,646.151855C348.468323,645.618164,349.825684,644.65155,353.374756,641.378235C356.497192,638.498352,358.139435,637.38446,360.354736,636.643799C361.801361,636.160156,366.41098,635.381836,371.506561,634.760742C376.534393,634.147949,378.181946,633.217346,378.450043,630.838684C378.566315,629.807251,378.490417,629.558411,377.870575,628.938599C377.249573,628.317627,376.997314,628.241028,375.920441,628.346863C375.240173,628.413696,373.711212,628.897339,372.522766,629.421631C369.996765,630.536011,367.881653,631.00293,362.721283,631.585388C356.820618,632.251404,355.806458,632.744507,351.597687,636.993103C348.144104,640.47937,346.186981,641.715881,343.719116,641.970581C341.666992,642.182373,340.754913,641.919983,338.42572,640.447693C335.887054,638.843018,334.677917,638.432739,333.490814,638.773193C331.787109,639.261841,330.843628,641.884766,331.853119,643.32605C332.403595,644.111938,333.056152,644.350342,336.720612,645.104248C338.39389,645.448486,340.536743,645.903564,341.482513,646.115479C343.734406,646.620056,345.063354,646.629333,346.671326,646.151855M309.707214,695.322876C310.814575,694.807312,312.436462,694.113037,313.311371,693.780029C317.555359,692.164734,321.49176,689.679199,325.212677,686.265259C326.667694,684.930237,328.342194,683.601318,328.933777,683.312073C330.477509,682.557312,332.16217,682.638184,334.513977,683.579834C336.846863,684.513977,337.839752,684.556641,340.15976,683.822571C342.068237,683.21875,342.873535,683.265625,345.790283,684.150513C347.317993,684.614014,347.703308,684.645874,348.382111,684.364685C350.509583,683.483459,350.442566,680.186279,348.269867,678.843506C347.016357,678.068787,345.586578,678.144531,343.165466,679.114014C341.367279,679.834045,340.884521,679.921448,339.375641,679.800049C338.424622,679.723572,336.33905,679.278687,334.740997,678.811523C332.344818,678.110962,331.525116,677.984253,330.065033,678.088684C327.815002,678.249695,326.872314,678.796692,323.096252,682.132385C317.844147,686.771973,313.10553,689.462524,307.930603,690.743408C304.133698,691.683228,303.387268,692.190796,303.387268,693.833008C303.387268,695.041748,303.796173,695.719421,304.796997,696.169434C305.93988,696.68335,307.282104,696.451904,309.707214,695.322876M344.557068,636.625793C345.107574,636.395752,346.943298,634.759338,348.979797,632.683289C353.538086,628.036316,355.132294,627.247437,360.794678,626.836853C364.523987,626.566467,366.587891,626.170227,369.998474,625.070007C373.907196,623.809082,374.711975,623.189758,376.144928,620.339722C376.986023,618.666931,377.585022,617.924744,379.471924,616.217529C383.901489,612.209778,385.246674,608.786377,382.943665,607.382141C382.47467,607.096191,381.646423,606.861816,381.103088,606.861267C379.672821,606.859863,378.713623,607.869812,377.712524,610.431274C377.25766,611.595093,376.362793,613.333496,375.723938,614.294495C374.311188,616.419556,371.177826,619.437317,369.387268,620.397339C366.898621,621.731628,361.647552,622.717102,357.223267,622.680054C355.664459,622.667053,354.723511,622.810608,353.651825,623.224976C351.329681,624.122925,349.351105,625.450317,348.493103,626.686035C346.734375,629.218811,345.443604,630.295105,343.393677,630.937866C341.970947,631.383972,341.263611,631.775208,340.682037,632.437561C338.43103,635.001343,341.2229,638.01886,344.557068,636.625793M305.900513,676.074951C308.584686,675.006714,311.632172,672.970398,316.116486,669.248596C322.227936,664.176331,324.338013,663.12439,328.387268,663.131226C331.311432,663.13623,339.497681,664.49646,342.428345,665.464355C345.067535,666.335938,346.329895,666.236084,347.368744,665.073486C347.892639,664.487244,348.096252,663.977234,348.096252,663.251404C348.096252,661.49353,346.53894,660.563965,343.593719,660.563965C341.258118,660.563965,337.903442,660.070007,334.339661,659.201294C330.209534,658.19458,328.268433,658.169922,324.335236,659.074036C320.612244,659.929871,319.912781,660.260742,317.822388,662.155151C316.901245,662.989929,314.794403,664.701599,313.140442,665.958862C311.486511,667.216187,309.570923,668.708496,308.883575,669.275024C307.440308,670.464783,305.856873,671.032593,303.284088,671.283142C301.177551,671.48822,300.358582,672.083374,300.070648,673.618164C299.8508,674.789978,300.577057,676.415894,301.535431,676.8974C302.354431,677.308899,303.20047,677.149536,305.900513,676.074951M355.73938,664.502686C356.304108,664.305786,357.094849,663.540283,358.130432,662.187866C358.981445,661.076477,360.018311,659.854553,360.434601,659.472534C361.967499,658.065674,364.68576,656.234009,366.683441,655.261841C368.724792,654.268372,369.437134,654.102112,376.220276,653.035889C379.208496,652.566223,385.630615,650.554688,387.811401,649.405273C389.852905,648.329346,391.172882,646.986084,393.300232,643.819519C394.297913,642.334534,395.921234,640.107666,396.907593,638.87085C398.835449,636.453613,399.419006,635.358643,399.419006,634.158447C399.419006,632.523682,397.184418,631.766785,395.258606,632.749268C394.022949,633.379639,393.433655,634.25293,392.418671,636.957703C391.029694,640.659058,387.435791,644.490112,383.680786,646.272095C380.897736,647.592834,378.321259,648.243469,372.671295,649.052185C365.715057,650.047974,364.643951,650.506226,359.76944,654.572571C358.134216,655.936646,356.01355,657.510498,355.056824,658.070068C353.004578,659.270264,351.866028,660.340881,351.626312,661.296082C351.382111,662.268982,352.249481,663.765015,353.387268,664.333435C354.47757,664.878052,354.630798,664.889099,355.73938,664.502686M353.622742,609.602173C354.169128,609.219482,354.22702,609.006958,354.123779,607.762268C353.997681,606.241394,353.514496,605.406738,350.512695,601.524475C346.856445,596.795837,346.444214,591.722229,349.065552,583.712158C349.898193,581.167725,351.09314,578.724243,352.778198,576.120361C355.32959,572.177673,355.67157,570.37561,354.701172,565.987244C353.727234,561.58313,353.340149,558.865234,353.134399,554.986877C352.914978,550.850586,352.6698,549.982788,351.469818,549.094727C350.52298,548.393982,349.515503,548.715088,348.796143,549.946899C347.729431,551.773315,347.946228,555.070618,349.720154,564C350.113739,565.981262,350.23999,567.430969,350.161621,569.069763C350.053101,571.339722,350.028076,571.411499,347.876709,575.619141C342.806183,585.536255,341.533112,593.967102,344.220001,599.835999C345.338593,602.279358,348.613617,607.624512,349.590759,608.601685C351.060913,610.071838,352.457489,610.418396,353.622742,609.602173M323.461823,742.525635C326.313232,741.145325,331.916565,734.518738,336.070007,727.61499C338.147552,724.161804,338.760773,722.219604,339.271393,717.475586C339.5401,714.978943,340.100037,711.972046,340.849731,708.999451C341.759277,705.393188,342.011597,703.915649,342.011597,702.196533C342.011597,700.131531,341.96402,699.946167,341.2146,699.092651C339.620087,697.276611,337.050293,696.894409,335.938416,698.307922C335.215332,699.227173,335.241028,699.439026,336.377777,701.9328C337.802887,705.059143,337.755676,706.203552,336.05481,709.760803L334.736481,712.518066L334.802429,715.437439C334.903564,719.912964,334.251007,721.80072,330.464722,727.985901C326.849182,733.892212,324.0513,737.148254,322.013672,737.82074C321.416321,738.017822,320.40213,738.072998,319.300262,737.96814C314.646606,737.525513,314.075684,737.515381,313.068634,737.858032C312.500519,738.051331,311.799622,738.527649,311.511108,738.916504C310.99231,739.615723,310.992126,739.632996,311.495209,740.494446C312.32193,741.909912,313.410889,742.361755,316.847717,742.715149C321.470062,743.19043,322.127594,743.17157,323.461823,742.525635M330.19574,751.556152C330.57489,751.257874,331.531799,749.918579,332.322205,748.579956C333.112579,747.241272,334.857849,744.836487,336.200562,743.235962C341.73288,736.641296,343.912231,733.501709,346.141602,728.91449C347.908844,725.278198,348.49527,723.042725,348.878845,718.480103C349.233734,714.259033,349.788757,711.403809,351.394745,705.537537C352.88916,700.078857,353.034119,699.063293,352.500854,697.787109C351.86261,696.259521,350.535767,695.987976,348.563721,696.981262C347.263855,697.635986,346.941345,698.694336,347.004333,702.098389C347.051605,704.653625,346.956604,705.500732,346.410889,707.389404C345.122162,711.849792,344.911438,712.880676,344.388824,717.282104C344.096954,719.740295,343.672913,722.478394,343.446564,723.36676C342.562561,726.83606,340.082794,731.070435,334.934967,737.901123C331.45578,742.5177,330.43396,743.637146,328.326965,745.140686C326.245514,746.625977,325.609497,747.429932,325.609497,748.575745C325.609497,751.223816,328.352264,753.006226,330.19574,751.556152M362.48819,607.549622C363.645691,607.065979,364.233826,606.185547,364.233826,604.936401C364.233826,603.485962,363.651611,602.532837,361.167816,599.916992C359.698212,598.369263,358.681702,597.011841,358.097107,595.816467C357.258881,594.102478,357.223785,593.905518,357.236542,590.987244C357.248199,588.313477,357.33783,587.720581,357.976563,586.093079C358.86322,583.833862,360.327362,581.4599,362.368195,578.972656C365.263123,575.444458,365.502716,574.397278,364.753113,568.549194C364.460602,566.26709,363.858307,562.673767,363.414703,560.563965C362.819305,557.732422,362.558441,555.61969,362.418396,552.495178C362.297913,549.806824,362.099457,548.021057,361.874512,547.601013C361.266785,546.466125,360.737885,546.013733,360.01889,546.013733C357.930847,546.013733,356.819946,548.896362,357.623016,552.230652C357.763184,552.812683,358.05188,554.895996,358.264496,556.860291C358.477142,558.824585,359.030884,562.157898,359.494995,564.2677C360.076355,566.910156,360.344727,568.844482,360.357635,570.484619C360.380432,573.38324,359.984253,574.365417,357.017517,578.765259C354.752045,582.125122,353.58075,584.858276,352.80014,588.606323C351.80365,593.390808,352.436737,596.030701,355.464691,599.717407C356.360962,600.808716,357.290283,602.237244,357.529846,602.892029C358.95993,606.800781,359.05957,606.984802,360.001038,607.455078C361.119873,608.014038,361.355225,608.022949,362.48819,607.549622M320.781464,752.473877C321.485535,751.739441,321.641235,751.366089,321.641235,750.411987C321.641235,748.267822,320.469513,747.619446,316.572205,747.6073C312.663269,747.595154,309.758301,746.166809,307.029846,742.915466C306.200928,741.927734,304.740479,740.34906,303.784363,739.407349C298.952026,734.647949,299.128204,728.761475,304.201172,725.479797C307.123352,723.589478,308.332916,723.26239,312.40152,723.26239C316.276367,723.26239,317.250671,722.990601,318.015289,721.696167C318.550171,720.790649,318.587067,719.607178,318.100433,718.966248C317.114929,717.668335,313.825104,717.327454,311.166779,718.247864C310.307373,718.54541,308.381958,719.079102,306.888123,719.433838C305.394257,719.788574,303.804749,720.268738,303.355896,720.500854C302.907043,720.732971,300.986084,722.468567,299.087128,724.357727C295.777283,727.650513,295.629669,727.843872,295.517639,729.032776C295.313263,731.202332,297.419678,738.433167,299.048553,741.153564C300.13446,742.967102,302.210205,745.159729,304.915192,747.350525C307.589294,749.516296,308.724579,750.129333,312.586761,751.492859C314.438416,752.146606,316.548645,752.900757,317.276154,753.168762C318.916504,753.77301,319.681335,753.621399,320.781464,752.473877M446.926147,696.680298C449.85437,696.205383,455.068176,694.720215,458.281433,693.44574C459.590973,692.926331,463.082703,691.32605,466.040833,689.889465L471.41925,687.277588L474.083984,684.56897C475.549622,683.079163,477.202271,681.289734,477.756561,680.592407C479.458374,678.451416,479.408386,676.516846,477.63208,675.774658C475.610046,674.92981,473.096924,676.732788,471.429993,680.224243C469.754425,683.733887,468.64386,684.598694,464.709839,685.457275C461.94342,686.061096,461.736755,686.154114,459.604187,687.755615C457.142273,689.604553,455.819763,690.069336,449.328857,691.36676C443.044556,692.622864,439.923767,692.876343,438.041626,692.283447C437.533325,692.123291,435.212646,691.907654,432.884644,691.804138C427.775391,691.577026,427.459412,691.447632,424.420166,688.336792C422.064819,685.925964,421.20285,685.37323,419.739014,685.334839C418.445862,685.300903,417.909546,685.851563,417.890472,687.232788C417.860352,689.414795,419.565186,691.291016,423.889923,693.835449C427.821411,696.148499,431.89505,696.915833,440.821136,697.024658C443.043091,697.051758,445.485535,696.91394,446.926147,696.680298M328.493408,601.410156C329.355927,600.313599,329.419739,599.165161,328.815247,595.617981C328.507111,593.809814,328.255005,591.741089,328.255005,591.020752C328.255005,589.133911,328.877197,586.23938,329.96814,583.050781C330.490845,581.522949,331.3237,578.844421,331.818878,577.098389C332.314087,575.352356,333.15686,572.618286,333.691772,571.022705C334.663879,568.122864,334.664215,568.120361,334.496704,564.805786C334.015137,555.275696,334.018799,554.38147,334.561676,548.923767C335.397217,540.523804,335.461426,539.151367,335.131775,536.738892C334.667419,533.340454,333.696045,531.962891,332.054443,532.374878C330.802826,532.689026,330.579224,533.852234,330.365967,541.158386C330.259155,544.817383,330.099152,547.928528,330.010437,548.072144C329.921692,548.215698,329.791473,552.581787,329.721069,557.774536L329.593079,567.215942L328.553131,571.628052C327.981171,574.054749,327.209259,577.449158,326.837769,579.171265C326.159821,582.313965,325.801239,583.117676,323.881805,585.796326C322.476868,587.756958,322.465302,588.095947,323.720978,590.511414C324.967468,592.909241,325.036652,593.571167,324.262115,595.689636C323.227081,598.520569,323.150421,599.018372,323.588074,600.065857C324.402222,602.014282,327.376892,602.829529,328.493408,601.410156M460.274231,657.517212C461.300232,656.986633,461.726471,656.095825,462.374054,653.128723C462.676941,651.740906,463.366241,649.728638,463.947693,648.534851C464.516754,647.366455,465.869232,644.565308,466.953217,642.309998C468.578644,638.928162,469.19696,637.926697,470.481079,636.59613C472.592041,634.408691,473.361755,634.05304,476.462524,633.83252C478.101868,633.715942,479.26889,633.496399,479.679565,633.227295C480.637939,632.599365,481.487152,630.522156,482.834167,625.511047C485.588867,615.263184,486.870453,608.186829,487.265839,601.041077C487.414764,598.349792,487.701691,595.314026,487.903442,594.295044C488.735962,590.090698,488.705627,588.868469,487.743347,587.835571C487.070435,587.11322,485.683838,587.114746,484.763367,587.838745C483.899628,588.518188,482.875977,590.487,482.644958,591.913208C482.55069,592.495178,482.645996,594.102356,482.85675,595.484619C483.204773,597.767212,483.195618,598.374146,482.756897,602.098389C482.491211,604.353638,482.139404,607.389404,481.975159,608.844421C481.649109,611.733154,479.353027,622.413696,478.496216,625.027588C477.500793,628.064331,475.648438,629.533691,470.583038,631.30481C468.101624,632.172485,466.194855,633.592346,465.133057,635.363159C464.681885,636.115662,463.624756,638.432983,462.783875,640.512695C460.744019,645.558167,459.001038,649.241882,457.397491,651.896606C456.670288,653.100586,455.992706,654.414612,455.891785,654.816711C455.346771,656.988159,458.06189,658.661255,460.274231,657.517212M350.400299,655.394836C352.372742,654.106445,356.157776,651.255554,358.441772,649.337891C362.605896,645.841614,364.362,645.173645,372.038055,644.165894C377.098816,643.501587,378.88147,643.071533,381.165039,641.964355C383.486389,640.838867,386.831909,637.519653,387.992126,635.19104C388.977203,633.213989,389.045807,632.329346,388.288696,631.366882C387.848969,630.8078,387.516235,630.6698,386.608246,630.6698C384.85614,630.6698,383.931122,631.47467,382.354584,634.370911C380.248688,638.239624,379.219421,638.73114,370.979858,639.802307C361.345642,641.054749,360.843445,641.259644,355.321655,646.189148C351.035431,650.015625,349.11795,651.089783,345.910004,651.461426C344.017212,651.680786,336.169159,650.257813,332.299805,648.993774L329.334045,648.024902L327.00882,648.481323C325.729919,648.732361,323.856415,649.048035,322.845459,649.1828C320.253448,649.52832,318.829865,650.722778,318.553375,652.784119C318.440613,653.624756,318.524628,653.920715,318.997467,654.348511C319.813721,655.087097,321.243317,654.991028,324.356049,653.988403C327.886627,652.851196,329.411194,652.880859,334.605957,654.187744C336.943115,654.775757,340.069153,655.353333,341.879333,655.531677C343.625366,655.703735,345.64917,655.927185,346.376678,656.02832C348.00415,656.254517,349.427063,656.030518,350.400299,655.394836M428.496643,662.208496C428.895782,661.910645,429.522827,660.869385,430.001465,659.709717C430.452759,658.616211,431.167053,657.268799,431.588776,656.715454C432.75,655.191833,437.375488,651.113464,440.354614,648.98645C443.331604,646.861023,444.81842,645.308716,446.111816,642.975708C447.578552,640.330078,449.376709,636.103638,450.751343,632.070679C453.164337,624.991577,454.538116,623.33136,460.369659,620.446655C464.189972,618.556885,465.513672,617.476501,466.328003,615.583496C467.045166,613.916382,468.296814,605.14093,468.115662,603.049927C467.956818,601.216492,467.341858,600.240479,466.081604,599.821655C464.237183,599.20874,462.242981,600.32605,461.949097,602.137085C461.833679,602.848328,462.005829,603.544067,462.665649,605.032898C463.861877,607.732117,463.979187,609.520081,463.087769,611.467224C461.935364,613.984375,460.17926,615.558105,456.227966,617.614624C452.399902,619.606995,450.230164,621.420349,449.152832,623.527588C448.818268,624.182007,447.842133,626.860291,446.983643,629.479309C445.212616,634.882324,442.889221,639.866577,441.088013,642.126709C440.414673,642.97168,438.839722,644.459778,437.588165,645.433594C436.336609,646.40741,434.587738,647.766846,433.701782,648.45459C432.815857,649.142334,431.01004,650.92804,429.688904,652.422852C428.367737,653.917664,426.641541,655.647888,425.852905,656.267761C422.529572,658.879944,422.082153,659.353882,422.082153,660.261963C422.082153,661.384521,422.845032,662.127319,424.461182,662.578186C426.048279,663.020935,427.598206,662.878967,428.496643,662.208496M439.66748,667.465576C440.254761,666.989868,440.292053,666.787476,440.292053,664.074158C440.292053,661.386475,440.340729,661.11499,441.002258,660.114502C441.847961,658.835327,444.636169,656.91687,447.345337,655.750061C450.433167,654.420105,450.769958,654.073486,452.887451,650.046265C456.296387,643.562866,456.712646,642.669922,458.405701,638.209717C461.218445,630.799744,462.869324,628.971008,468.721802,626.782104C473.090179,625.148315,473.869202,624.165894,475.078613,618.765015C475.355591,617.528259,475.884918,615.206848,476.254883,613.606323C476.648438,611.903992,477.098419,608.665039,477.339142,605.802063C477.565491,603.110291,477.864136,600.101501,478.002747,599.115967C478.489105,595.658813,477.583374,593.989868,475.357147,594.240784C474.433289,594.34491,473.984985,594.579102,473.319763,595.304932C472.112488,596.622253,471.974304,597.745117,472.664368,600.630005C472.97937,601.946838,473.235168,603.494263,473.232788,604.068665C473.228455,605.138245,471.867981,613.874146,471.335449,616.251831C470.548981,619.763611,468.590393,622.025818,464.779175,623.824402C460.860199,625.673889,460.306396,625.973633,459.346985,626.764465C457.568329,628.230591,456.9375,629.423462,454.693542,635.563965C453.949127,637.601013,452.409607,641.183228,451.2724,643.524414C448.796875,648.620789,447.533325,650.133728,443.515381,652.812378C439.06427,655.779785,434.819183,660.330505,433.857147,663.165955C433.303925,664.796509,434.770844,666.73114,437.22583,667.608643C438.532593,668.075745,438.943848,668.051636,439.66748,667.465576M433.093018,686.288757C433.8255,685.625854,433.59668,683.64624,432.643005,682.395935C431.91333,681.43927,428.304504,678.865051,426.138611,677.756287C425.483826,677.421143,423.36853,676.691772,421.437927,676.135498C419.507324,675.579224,417.185883,674.75708,416.279175,674.308533C412.489441,672.433655,407.790894,667.974487,406.150818,664.696228C404.730621,661.857422,404.887451,659.565735,406.696075,656.728027C409.99762,651.547852,419.505371,641.414612,425.874023,636.288391C429.546906,633.332092,430.738708,631.938599,432.061584,629.053772C433.404053,626.126221,435.133301,620.557068,435.133301,619.161133C435.133301,617.422791,434.315613,616.648621,432.479492,616.648621C431.334442,616.648621,431.004456,616.768555,430.351074,617.421936C429.92572,617.847229,429.566925,618.41272,429.553711,618.678528C429.540466,618.944397,429.510712,620.471375,429.487549,622.071899C429.451233,624.582825,429.358765,625.145264,428.813171,626.172424C427.664764,628.334656,425.782532,630.43988,422.69989,633.009888C413.562805,640.627686,407.781494,647.033875,402.737061,655.130554C399.779785,659.877136,399.510681,660.846802,400.358398,663.701294C400.686371,664.805786,401.208862,665.547302,402.964417,667.399719C404.958374,669.503723,405.225952,669.914063,405.87558,671.864868C406.808838,674.667114,407.376465,675.213257,409.947144,675.782104C412.580139,676.364807,413.153076,676.676758,415.309814,678.702393C416.2948,679.627441,417.378235,680.442993,417.717499,680.514648C418.056763,680.586304,419.405792,680.688354,420.715332,680.741394C423.711609,680.862793,424.33606,681.182068,426.91391,683.9104C429.742737,686.90448,431.615967,687.625488,433.093018,686.288757M335.848877,767.177734C336.17804,766.505981,336.565979,764.949829,336.739258,763.606323C337.095398,760.845093,337.610168,759.379822,339.947083,754.475952C341.412109,751.401611,341.930969,750.601318,343.652924,748.76001C344.754211,747.582397,346.343445,745.679199,347.18457,744.53064C348.025726,743.382019,349.572693,741.37085,350.622345,740.06134C352.746429,737.411377,353.161163,736.67395,354.70047,732.810181C355.287659,731.336304,356.301788,729.067749,356.954071,727.768921C358.545471,724.600342,358.714172,723.721558,358.352509,720.485107C358.078949,718.037109,358.103455,717.622253,358.665466,715.188599C359.000854,713.736328,359.842926,710.76239,360.536743,708.579834C361.44986,705.707397,361.850159,703.954102,361.986389,702.230652C362.36087,697.492554,363.591278,695.222229,368.232605,690.7052C370.873993,688.134521,371.376709,687.518005,371.376709,686.849182C371.376709,684.798096,367.8349,683.609192,365.794128,684.97522C365.12854,685.420715,364.483215,686.385437,363.307922,688.692078C362.434875,690.405457,361.138885,692.48584,360.427887,693.315308C357.92746,696.232056,357.83902,696.442322,357.59613,700.048035C357.415771,702.725586,357.188599,703.886597,356.289093,706.728027C354.715393,711.699036,354.221863,714.162415,353.903931,718.632751C353.563416,723.420044,353.172913,725.233398,351.769806,728.542114C349.62027,733.611084,346.67569,738.288086,342.685242,742.971375C339.97876,746.147827,338.874847,747.620972,336.373108,751.394836C333.270874,756.074524,333.261322,756.09552,332.877625,759.055908C332.685242,760.5401,332.344086,762.587769,332.119507,763.606323C331.817139,764.9776,331.779266,765.711914,331.973572,766.436035C332.308197,767.682922,333.382263,768.55249,334.457825,768.447266C335.120819,768.382385,335.370117,768.154907,335.848877,767.177734M367.250092,680.036377C368.386505,679.561523,368.996185,678.675659,368.993988,677.502441C368.991852,676.358215,368.442627,675.493286,366.799988,674.047363C366.106354,673.436829,365.364258,672.59967,365.150879,672.187012C364.657776,671.233521,364.651093,669.21637,365.137939,668.28894C366.050476,666.550659,369.516846,664.066467,372.067383,663.322937C372.810974,663.106201,374.848267,662.761353,376.594666,662.556641C380.861328,662.056641,382.594696,661.574341,386.203369,659.883057C389.078308,658.535645,390.37207,658.157654,393.411682,657.776978C395.102417,657.565186,396.107758,656.645386,397.813141,653.749878C398.562378,652.477783,400.682861,649.353638,402.525269,646.807373C406.465759,641.361572,412.340302,635.172424,418.352844,630.132385C420.400055,628.41626,422.470825,626.561462,422.954529,626.010559C424.201813,624.589966,424.888489,622.878174,424.920715,621.109009C424.943176,619.876099,424.837097,619.485352,424.334351,618.949219C423.585632,618.150757,422.468964,617.894836,421.384155,618.27301C420.379211,618.623291,420.158722,619.026001,419.65152,621.437073C418.995483,624.555847,418.032654,625.60498,414.694092,626.839111C413.259674,627.369324,412.268463,628.413574,410.806885,630.934326C409.796692,632.676575,409.13501,633.276733,406.037659,635.259827C404.59668,636.182373,404.118439,636.695435,403.041412,638.473999C402.336548,639.638062,400.897217,641.721375,399.842896,643.103638C398.788574,644.485962,397.123108,646.840576,396.141846,648.336121C394.224487,651.258484,392.724426,652.665649,390.359558,653.760437C387.786896,654.951416,380.25946,657.361572,377.858154,657.763184C376.548645,657.982178,374.303711,658.358093,372.869385,658.598633C368.971039,659.252197,366.751923,660.458496,363.259094,663.822693C360.298187,666.674561,359.736481,667.4646,359.736481,668.777283C359.736481,669.510864,361.113403,673.097351,363.080719,677.488037C364.281555,680.168091,365.358917,680.826538,367.250092,680.036377M437.288025,677.580322C438.260834,676.727783,437.993927,674.490112,436.762085,673.171265C436.375519,672.757385,435.371185,672.069336,434.530243,671.642334C433.68927,671.215332,432.55835,670.467773,432.017029,669.98114C429.823792,668.009521,429.147827,667.706848,426.937378,667.706848C424.356567,667.706848,423.006104,667.295044,419.973206,665.583313C416.995972,663.903015,416.15979,663.144409,415.796082,661.793701C415.265625,659.823669,415.717651,659.208252,423.030151,651.944885C426.794983,648.205322,430.97995,644.325134,432.620056,643.053284C435.967072,640.457947,437.274841,639.11499,438.625488,636.886719C439.984863,634.644043,441.815674,630.040833,442.944366,626.027954C443.474487,624.143127,444.331116,621.794495,444.847992,620.808777C446.291382,618.055969,449.009521,615.777893,454.048645,613.097595C458.236755,610.869995,459.307495,609.273254,458.385925,606.629639C457.563232,604.269714,455.07251,604.933594,451.761353,608.395264C450.794312,609.406311,449.187164,610.807983,448.189911,611.510254C444.160889,614.34729,441.203552,616.74176,440.677673,617.592651C440.338898,618.140808,439.973785,619.478088,439.742432,621.018005C439.323547,623.806396,437.575104,628.991577,435.896332,632.42395C434.595673,635.083191,432.791748,637.107605,428.950958,640.218018C422.729889,645.256165,412.101166,656.5224,410.934082,659.315613C410.030273,661.47876,410.735931,663.500366,413.241882,665.92688C416.826111,669.397583,418.403137,670.245178,424.007202,671.713135C428.046967,672.771301,429.84848,673.669189,432.139526,675.766357C434.823792,678.223511,436.058014,678.658325,437.288025,677.580322M295.215515,684.352661C296.990967,683.088379,297.223358,681.039551,295.951569,677.863464C295.074524,675.673096,295.095276,676.100037,295.620941,671.061523C295.766876,669.662842,295.691559,669.330322,294.797485,667.425049C293.518463,664.699463,293.412689,663.774597,294.099976,661.325256C294.816925,658.770264,294.802002,658.157959,293.965088,655.782288C292.946228,652.890137,292.979431,650.998047,294.103271,647.910706L295.001709,645.442627L294.657684,642.843506C294.201355,639.395813,294.405121,638.164429,295.905945,635.299438L297.153229,632.918457L297.302643,629.13916L297.452026,625.359802L300.69281,618.89856C303.669922,612.963013,304.064911,612.312683,305.547668,610.905396C309.413452,607.236328,309.374908,607.285706,310.115692,605.06134C311.336975,601.394104,312.584656,600.017639,315.821136,598.767029C318.527557,597.721191,319.508881,596.309326,319.519043,593.446777C319.529419,590.506897,318.75061,589.752808,316.719421,590.736084C315.851837,591.156067,315.010529,591.955872,313.706696,593.600098C312.711731,594.854858,310.725128,597.01239,309.291992,598.394653C307.41394,600.206055,306.435852,601.388123,305.789551,602.627441C304.227234,605.623352,302.618347,607.926025,300.62616,610.017395C298.407257,612.346741,298.046173,612.964294,296.985474,616.24353C296.560425,617.557617,295.681702,619.486145,295.032776,620.529114C293.071838,623.680725,292.836914,624.418213,292.550598,628.321411C292.299683,631.742065,292.065125,632.817566,290.594971,637.287537C290.118835,638.735229,289.895874,640.137573,289.774719,642.446289C289.683228,644.190125,289.413544,646.914795,289.175446,648.50116C288.770569,651.198303,288.772186,651.593018,289.200287,654.585815C289.555206,657.067078,289.61673,658.593506,289.474091,661.378967C289.290924,664.955811,289.294098,664.984619,290.187897,667.860474L291.085693,670.749146L291.013123,675.751953C290.955872,679.697998,291.028992,681.058899,291.359161,682.194702C292.089691,684.707642,293.560852,685.530884,295.215515,684.352661M349.95343,619.952759C351.950897,618.9198,351.665955,616.20813,349.373749,614.436584C348.889404,614.062195,347.875183,613.301086,347.119934,612.745178C346.364685,612.189331,345.371033,611.262817,344.911865,610.686279C343.276031,608.632446,339.654327,602.222168,338.975616,600.179321C336.722687,593.398132,338.228943,583.971497,343.213226,573.659241C345.18396,569.581848,345.319122,568.136963,344.264862,562.415833C343.841919,560.120544,343.498291,557.120972,343.409363,554.94751L343.260742,551.315125L344.261658,548.505798C345.225952,545.799194,345.25647,545.60791,345.095825,543.275696C345.00415,541.944336,344.612122,539.426392,344.22467,537.680359C343.659302,535.13269,343.52478,533.86499,343.543335,531.260925C343.564575,528.283997,343.518677,527.96106,342.987457,527.349915C342.229248,526.477539,340.673889,526.212646,339.77356,526.802551C338.217743,527.82196,337.837402,530.286621,338.850159,532.786194C339.906189,535.392578,340.151306,536.972961,340.15564,541.203369C340.158386,543.91571,339.989258,546.364746,339.644043,548.610718C338.657532,555.029541,338.669586,556.540955,339.764648,563.720581C340.300873,567.236389,340.055267,568.97583,338.46875,572.898499C336.860901,576.873901,333.84729,586.712341,333.480621,589.183044C333.231171,590.864075,333.256714,591.777283,333.628662,594.473999C333.875885,596.266602,334.077484,598.588623,334.07663,599.634033C334.074738,601.988037,334.234772,602.413208,336.29837,605.537537C337.211365,606.9198,338.506683,608.943604,339.176849,610.034912C339.846985,611.12616,341.191162,612.911865,342.163879,614.003113C343.136597,615.094421,344.521637,616.79071,345.24173,617.772705C345.961853,618.7547,346.806152,619.736816,347.11795,619.955261C347.842468,620.462708,348.969208,620.461731,349.95343,619.952759M481.404175,655.418396C482.497192,654.853149,484.72998,652.300232,485.791626,650.401794C487.120544,648.025452,488.678589,643.050293,489.618408,638.181885C490.06488,635.869019,490.783997,632.488586,491.216431,630.6698C494.038452,618.801208,495.999512,609.795288,496.231049,607.641235C496.378845,606.26593,496.689636,603.295471,496.921692,601.040161C497.153778,598.784912,497.44342,596.225342,497.565369,595.352356C497.687317,594.479309,497.798523,591.9198,497.812531,589.66449C497.848572,583.861023,498.085144,583.113953,501.414734,578.288818C502.468994,576.761108,503.815857,574.558716,504.407776,573.394653C505.508972,571.229126,508.413727,562.878418,508.413727,561.878174C508.413727,560.618713,507.180603,559.256592,506.032776,559.248108C504.28833,559.235168,502.731079,561.126526,502.291473,563.791931C501.258179,570.057007,500.662109,571.523193,497.419556,575.775635C495.306,578.547485,493.990051,580.892761,493.205688,583.285767C492.72467,584.753174,492.740051,585.671265,493.307129,589.355957C493.499268,590.604553,493.467377,591.649414,493.181915,593.456482C492.719025,596.38678,492.392426,599.420959,492.010437,604.339966C491.691589,608.445923,490.970276,612.457092,489.202393,619.955505C488.550598,622.720093,487.717743,626.291504,487.351624,627.892029C486.985474,629.492554,486.197754,631.992554,485.601044,633.447571C484.521759,636.079468,484.516052,636.111511,484.494049,639.664551C484.464905,644.367432,484.11615,645.153748,480.304871,649.108643C478.671906,650.803101,477.472809,652.278748,477.358704,652.734253C476.815491,654.903015,479.261963,656.526184,481.404175,655.418396M363.922974,617.051208C367.903229,616.086182,370.307678,614.061646,372.67627,609.680908C374.491882,606.322876,374.574829,605.511475,373.410675,602.495178C372.905243,601.185669,372.409424,599.611084,372.308807,598.996094C372.064606,597.503052,371.295715,596.431824,369.423096,594.975647C367.487488,593.470459,366.87851,592.388855,366.881927,590.46228C366.887085,587.556763,368.981628,584.312744,372.204468,582.21875C373.367798,581.462891,374.490784,580.513489,374.700012,580.108887C375.19281,579.156006,375.181824,576.894348,374.670288,573.969849C374.445679,572.685669,374.22699,569.768982,374.184357,567.488342C374.118103,563.945679,374.002869,562.968689,373.392975,560.780273C372.617737,557.998474,371.532471,552.039795,370.984283,547.555298C370.794464,546.002441,370.440857,544.134888,370.198547,543.405273C369.956177,542.67572,368.562927,540.140503,367.102356,537.771484C365.641785,535.402466,364.043121,532.662598,363.549744,531.682861C362.530029,529.658081,361.322876,528.174194,360.239441,527.613953C358.751556,526.844543,356.826416,527.326233,356.826416,528.467957C356.826416,529.235657,357.661316,532.094482,358.18573,533.122375C358.474548,533.688538,359.233643,534.861877,359.87262,535.729858C360.511597,536.5979,361.417725,537.987061,361.886169,538.816956C362.354675,539.646851,363.44043,541.300964,364.299011,542.492737C366.517395,545.572021,366.836121,546.585815,367.270782,551.945007C367.476044,554.47583,367.930847,557.770569,368.297852,559.385376C368.660126,560.97937,369.080292,563.176392,369.231567,564.2677C369.958771,569.513367,370.368286,573.993469,370.228455,575.174011C369.990265,577.185181,368.993591,579.017517,366.879303,581.331177C363.510681,585.017517,362.11264,587.800537,362.12323,590.798767C362.131226,593.058472,362.679169,594.112183,365.51123,597.314087C368.535889,600.733765,369.260284,602.119202,369.260284,604.484131C369.260284,605.448181,369.077942,606.764099,368.855103,607.408386C367.945313,610.038879,365.430267,612.421448,363.184204,612.780579C362.513062,612.887939,361.260315,612.755249,359.733704,612.415222C357.080872,611.82428,356.36676,611.893921,355.488129,612.829224C354.390442,613.99762,354.769684,616.711548,356.129211,617.417114C356.881897,617.8078,361.744019,617.579468,363.922974,617.051208M487.746307,663.358582C488.150482,663.149536,488.937317,662.405518,489.494781,661.705139C490.052277,661.004761,491.258118,659.657898,492.1745,658.712158C494.054779,656.771484,494.767456,655.381104,495.168396,652.871277C495.46582,651.009521,496.069092,649.125244,497.109863,646.807373C497.469177,646.00708,498.335266,643.804688,499.034485,641.913208L500.305786,638.473999L500.35437,634.638062C500.400818,630.971069,500.44632,630.673889,501.387512,627.892029C501.997131,626.090149,502.467896,624.075317,502.623718,622.601013C503.084167,618.243958,503.352417,617.15332,504.630768,614.441162L505.897095,611.754456L505.822998,608.04126C505.758545,604.81012,505.835999,603.96875,506.419617,601.559814C506.941345,599.40625,507.090363,598.104065,507.090637,595.696045C507.091064,591.972961,507.377197,590.509766,508.687805,587.528687C509.236206,586.281189,510.05542,584.060059,510.508179,582.592773C511.300995,580.023621,511.700317,579.296143,514.37677,575.545288C514.882446,574.836609,515.540466,573.408081,515.839111,572.370728C516.137695,571.333374,516.731995,569.377563,517.15979,568.024475C518.160522,564.85907,518.188965,563.172302,517.257385,562.240723C516.673706,561.657104,516.427124,561.584595,515.519165,561.729736C514.937256,561.822815,514.182007,562.081848,513.84082,562.30542C513.111145,562.783447,512.383911,564.451538,512.37738,565.661926C512.359192,569.045227,509.905701,574.531982,504.292908,583.741272C503.560608,584.94281,503.115723,587.328918,502.867889,591.384094C502.725647,593.712158,502.433868,596.866882,502.219513,598.394653C502.005188,599.922424,501.647461,603.196289,501.424652,605.6698C501.113586,609.122803,500.743439,611.28363,499.830658,614.974915C498.186523,621.623901,496.115723,631.284241,495.587341,634.770325C494.980835,638.771729,494.166016,641.900635,492.301117,647.389038C489.881531,654.509949,489.593842,654.966858,485.274139,658.549805C484.592377,659.115295,483.921082,659.876465,483.782349,660.241333C483.414246,661.209473,483.942749,662.543457,484.950012,663.188599C485.950134,663.829224,486.74292,663.877441,487.746307,663.358582M437.544312,706.81543C438.342834,706.64209,441.411621,706.491272,444.524841,706.472412L450.080383,706.438843L454.973846,704.507202C457.665222,703.444824,461.058105,702.285645,462.51355,701.931152C465.937408,701.097351,466.935699,700.696655,468.863464,699.382507C469.736481,698.787354,471.170776,697.807556,472.05072,697.205139C472.930725,696.602722,474.780365,695.672119,476.161072,695.137146C479.093567,694.000854,480.051208,693.144775,482.282715,689.664551C483.075714,688.427734,484.593323,686.412354,485.655243,685.185913C488.109344,682.35144,488.636536,681.186401,488.78302,678.273315C488.913055,675.6875,488.30719,672.990173,486.964233,670.176208C486.131958,668.432312,485.194946,667.64679,483.58905,667.346741C482.24881,667.096252,480.466125,667.650146,479.706329,668.553101C478.449158,670.04718,479.038147,671.296326,481.658325,672.692871C484.984924,674.465942,485.476776,676.295105,483.622345,679.99707C481.668518,683.897461,478.34314,687.949768,475.052246,690.440613C471.766663,692.927429,463.279114,696.98407,456.824219,699.152832C448.55011,701.932739,448.353912,701.966064,440.292053,701.966064C433.007935,701.966064,431.363678,701.793884,427.196777,700.594482C423.106628,699.417114,419.633972,697.379761,416.256683,694.175903C413.500366,691.561157,412.778442,689.754944,413.190521,686.504761C413.419922,684.695313,413.390198,684.421143,412.845642,683.32605C411.84906,681.321899,408.735474,679.831848,407.487793,680.761963C407.08374,681.063171,406.969116,681.430908,407.002686,682.317871C407.053528,683.660522,408.906738,690.631226,409.667664,692.341858C410.538452,694.299622,413.375549,697.800659,415.173523,699.136292C421.403198,703.763977,422.756897,704.480103,426.270874,705.00647C427.434906,705.180847,429.458679,705.659912,430.768219,706.071106C434.508972,707.245605,435.208893,707.32251,437.544312,706.81543M434.388611,602.977173C437.605804,601.433472,439.249939,600.324402,442.066772,597.797791C448.28009,592.224609,451.081604,590.218506,453.651825,589.501953C457.11673,588.535889,457.528229,588.327026,459.58728,586.488342C461.737823,584.567993,462.542603,584.194824,465.899841,583.561768C467.314819,583.294983,467.623383,583.094177,469.885193,580.968628C472.243164,578.752686,472.427551,578.637451,474.710388,577.952332C477.336548,577.164185,477.896515,576.71936,479.781311,573.923767C480.369873,573.050781,481.725586,571.323975,482.793945,570.086548C486.35675,565.959961,487.235291,564.131592,488.045746,559.157166C488.712646,555.063782,489.267639,553.957764,491.513794,552.245667C493.609131,550.648499,494.146545,549.967529,494.308411,548.704712C494.47641,547.393433,493.932739,546.694092,492.770142,546.725952C489.865723,546.805603,486.383118,547.296021,485.999878,547.67926C485.704102,547.975037,485.510529,548.97168,485.337433,551.089844C485.146515,553.425903,484.861267,554.778992,484.037231,557.25708C482.318481,562.425842,481.051392,564.728516,477.746094,568.689941C474.757629,572.271606,472.95459,573.902161,470.346466,575.381592C469.530823,575.844238,467.315857,577.109009,465.424316,578.192139C463.532776,579.275269,458.770874,581.74823,454.842285,583.687622C447.039734,587.53949,445.343994,588.647034,440.598083,592.991211C434.851105,598.251648,433.798828,598.884888,430.423096,599.113953C427.797516,599.292114,423.510834,598.822998,420.029175,597.97644C418.515015,597.608276,415.788086,597.009827,413.969299,596.646545C412.150513,596.283264,408.817169,595.522339,406.56189,594.955566C404.30658,594.388733,400.913727,593.685913,399.022186,593.393677C393.980896,592.614746,390.635193,591.357544,387.895416,589.212524C385.391693,587.252258,384.884521,587.00293,381.777771,586.205139C378.15509,585.27478,376.831665,585.203552,375.440155,585.863831C373.966034,586.563354,372.495605,588.145935,372.287109,589.257324C371.968689,590.95459,373.06308,592.574585,374.528107,592.574585C374.887115,592.574585,375.993561,592.083557,376.986847,591.483398C380.432556,589.401489,382.343262,589.778137,385.926941,593.245728C387.163727,594.442505,388.553894,595.612915,389.016174,595.846802C389.478516,596.080627,391.026123,596.44928,392.455322,596.666077C395.373535,597.108643,401.977051,598.531006,406.56189,599.70459C408.235168,600.132935,410.675629,600.677368,411.985168,600.91449C413.294678,601.151611,415.854187,601.699219,417.672974,602.131348C419.49176,602.563477,422.289398,603.094604,423.889923,603.311584C425.490448,603.528503,427.216644,603.81427,427.725891,603.946594C428.235168,604.078918,429.429321,604.161194,430.379639,604.129456C431.789581,604.082397,432.527161,603.870361,434.388611,602.977173"/>
</svg>
