<?xml version="1.0" encoding="UTF-8"?>
<svg xmlns="http://www.w3.org/2000/svg" width="258.372mm" height="187.191mm" viewBox="-2507.927246 -980.903564 258.371826 187.191406">
    <path transform="matrix(-1,0,0,-1,0,0)" style="stroke:none;fill:#0000ff;fill-rule:evenodd" d="M2294.308838,980.460266C2293.338623,980.006592,2291.186768,979.718262,2286.10791,979.361206C2283.04248,979.145752,2278.689697,978.157166,2275.425049,976.935059C2273.595947,976.250305,2271.998779,974.89679,2271.244141,973.392273C2270.637451,972.182983,2269.831543,971.224121,2269.044434,970.775269C2268.532715,970.483582,2266.5354,970.324402,2257.271973,969.837219C2254.871094,969.710999,2252.430664,969.479248,2251.848633,969.322266C2250.671387,969.004761,2249.615479,967.963623,2249.570557,967.076355C2249.480225,965.290833,2249.691162,962.742554,2249.955811,962.421204C2250.123779,962.217102,2250.334229,960.907593,2250.423584,959.511108C2250.624756,956.362183,2251.385498,954.058777,2252.529053,953.136108C2252.979736,952.772339,2254.499268,951.388489,2255.905518,950.060852C2258.455078,947.653809,2260.040039,946.547424,2263.984375,944.421143C2265.808838,943.437622,2266.202393,943.320068,2267.158936,943.473145C2269.281738,943.812988,2270.087891,943.703979,2271.870117,942.836182C2273.982178,941.8078,2275.966797,939.844788,2278.817139,935.965454C2279.181152,935.469971,2279.669922,934.489502,2279.90332,933.786621C2280.17041,932.982666,2280.616943,932.302856,2281.107422,931.953552C2282.742432,930.789429,2283.323486,928.412231,2282.61792,925.774475L2282.302734,924.595703L2283.579346,923.230835L2284.856201,921.865906L2284.686035,920.034851L2284.515869,918.203796L2285.795898,916.953003C2286.802002,915.970032,2287.223633,915.277466,2287.765869,913.71814C2288.145508,912.626831,2288.525635,911.300781,2288.611084,910.771301C2288.696533,910.241821,2289.287109,909.015625,2289.923584,908.046448C2290.560303,907.077332,2291.203125,905.962891,2291.352051,905.570007C2291.501221,905.177124,2291.9375,904.04248,2292.321777,903.048462C2292.705811,902.054504,2293.144531,900.535889,2293.296387,899.673767C2293.546631,898.252197,2293.674561,898.038452,2294.668213,897.378418C2295.458496,896.853516,2296.000488,896.171753,2296.612305,894.933044C2298.291504,891.532776,2299.099365,889.508545,2299.247314,888.330139C2299.338135,887.606567,2299.68335,886.763489,2300.117432,886.204895C2300.874023,885.231262,2302.920898,881.136963,2303.078857,880.280884C2303.129883,880.005432,2303.349854,879.695679,2303.568115,879.592407C2305.813965,878.530029,2306.60083,878.037659,2306.952881,877.474731C2307.180176,877.110962,2307.754883,876.396667,2308.22998,875.887451C2308.704834,875.378174,2309.368164,874.580505,2309.703857,874.114868C2310.039551,873.649231,2310.984375,872.399231,2311.803223,871.337097C2312.622314,870.274963,2313.734863,868.523193,2314.275879,867.444214C2316.162842,863.679688,2318.702637,856.580872,2319.962891,851.548828C2320.090332,851.039551,2320.389404,849.84906,2320.627441,848.90332C2321.5354,845.296448,2321.836914,843.590149,2322.498047,838.321289C2323.157715,833.063171,2323.745361,829.250366,2324.170166,827.474731C2324.523193,825.998047,2324.533691,822.651489,2324.193115,820.199585C2324.051514,819.181091,2323.828857,817.470703,2323.698242,816.398804C2323.394287,813.902222,2323.035645,813.494873,2321.568359,813.979126C2320.496582,814.332825,2319.671875,814.216858,2317.645996,813.427368C2316.352783,812.923401,2314.169189,811.033813,2313.035889,809.437805C2311.430908,807.17749,2311.168945,806.630554,2311.348389,805.915649C2311.552002,805.10376,2312.523193,804.797119,2315.606934,804.57074C2318.740234,804.340759,2318.792236,804.110718,2315.986084,802.896851C2315.12793,802.525635,2314.449707,801.933655,2313.63623,800.846008C2312.330811,799.100342,2312.033691,798.27002,2312.033691,796.366699C2312.033691,794.669373,2312.442139,794.283508,2314.547119,793.991333C2317.09082,793.638245,2323.3396,793.61438,2325.894531,793.948059C2329.99707,794.483826,2332.666748,796.32135,2332.670166,798.611755C2332.670898,799.135864,2332.787598,799.982178,2332.929443,800.492493C2333.071289,801.002747,2333.304443,802.312256,2333.447754,803.402527C2334.225342,809.320068,2334.772949,810.81842,2336.577637,811.965149C2338.105225,812.935913,2338.599854,813.621033,2338.569092,814.724243C2338.114014,831.119324,2338.147217,832.609619,2339.055176,836.601685C2339.339355,837.851624,2339.786133,849.163147,2339.906494,858.162537C2339.936523,860.417847,2340.052246,862.523621,2340.163574,862.84198C2340.385498,863.477051,2341.421387,863.903381,2343.593262,864.25354C2345.507324,864.562134,2347.31958,864.98761,2349.335449,865.601807C2350.28125,865.889954,2352.066895,866.429871,2353.303711,866.801636C2359.192139,868.571594,2360.169434,868.905823,2366.398926,871.280823C2367.271973,871.613647,2368.938477,872.313538,2370.102539,872.83606C2371.266602,873.358643,2372.457031,873.884338,2372.748047,874.004333C2373.039063,874.124268,2374.259277,874.656555,2375.459717,875.187195C2383.310547,878.657654,2383.223145,878.620667,2384.906494,879.183655C2385.62793,879.424927,2387.175781,880.198425,2388.345703,880.902466C2391.164795,882.598938,2392.268799,883.030273,2393.791748,883.030273C2394.748047,883.030273,2395.249268,883.187866,2395.81958,883.667725C2397.193848,884.824097,2400.191162,886.734009,2400.631836,886.734009C2400.869629,886.734009,2401.479004,887.013916,2401.985596,887.356018C2403.69873,888.512695,2404.592773,888.657959,2406.360596,888.066711C2408.441406,887.370728,2408.551514,887.382446,2409.641602,888.416504C2410.156982,888.905396,2411.451172,889.768494,2412.517578,890.334473C2414.402588,891.335083,2414.466797,891.349365,2414.83252,890.850098C2415.039307,890.567627,2415.20874,890.031921,2415.209229,889.659607C2415.209717,889.287292,2415.453613,887.792175,2415.751221,886.337158C2416.048828,884.882141,2416.358887,883.208374,2416.44043,882.617676C2416.521973,882.026978,2417.102051,880.598389,2417.729736,879.443054C2418.357422,878.28772,2420.140381,874.842468,2421.69165,871.786926C2423.243164,868.731323,2424.665527,866.052795,2424.852295,865.834534C2425.039307,865.616272,2425.237549,865.317017,2425.292969,865.169495C2425.423584,864.821533,2428.565674,859.102478,2429.288086,857.89801C2431.416504,854.348999,2434.705811,849.776733,2436.441162,847.954651C2438.543945,845.746948,2439.073486,845.085022,2440.762695,842.554077C2441.296875,841.753845,2441.807861,841.039551,2441.898438,840.966797C2442.838135,840.212402,2444.239746,837.487305,2444.959717,835.014404C2445.213867,834.141418,2445.528564,833.08197,2445.65918,832.660095C2445.990723,831.587158,2445.955322,826.942871,2445.60376,825.428284C2444.708984,821.574158,2443.138916,817.263062,2442.286621,816.321472C2442.059082,816.070129,2441.498535,815.783386,2441.040771,815.684204C2439.885986,815.434143,2436.72998,813.81781,2435.559326,812.876953C2433.545654,811.258728,2432.217041,808.120239,2433.263916,807.454285C2433.610352,807.233887,2436.216797,806.918884,2440.167969,806.619995L2442.508301,806.442993L2441.934326,805.715454C2441.618652,805.315369,2441.214355,804.987976,2441.035645,804.987976C2440.856934,804.987976,2440.023682,804.375549,2439.183838,803.627014C2437.960449,802.53656,2437.686523,802.148682,2437.805176,801.675293C2437.901367,801.292542,2437.72168,800.742798,2437.295166,800.11438C2436.07959,798.322937,2436.433838,797.645996,2438.621094,797.580811C2447.580078,797.313965,2453.920898,797.324341,2454.260742,797.606384C2454.474121,797.78363,2455.05249,798.802063,2455.545898,799.869629C2456.039063,800.937256,2456.945068,802.527161,2457.55957,803.402893C2458.633545,804.934082,2458.664551,805.034058,2458.37085,806.014282C2457.975586,807.333862,2457.967529,815.398254,2458.360352,816.629944C2458.522461,817.138184,2458.763184,820.94696,2458.895508,825.09375C2459.027832,829.240601,2459.199951,834.041443,2459.278076,835.762268C2459.416504,838.815186,2459.403564,838.912659,2458.742676,839.779053C2458.293701,840.367676,2458.06543,841.002014,2458.06543,841.661255C2458.06543,842.348694,2457.737793,843.207397,2457.003418,844.443542C2456.419189,845.426941,2455.822998,846.304504,2455.678711,846.393738C2455.116699,846.74115,2452.551758,850.96991,2451.990479,852.474731C2451.07959,854.916748,2450.867432,856.549011,2450.742188,862.081787C2450.635498,866.789429,2450.671387,867.326477,2451.19751,868.907593C2452.004639,871.333435,2453.112061,872.671265,2455.166748,873.702881C2456.106445,874.174622,2456.951416,874.561523,2457.044678,874.562622C2457.137939,874.563782,2457.792725,874.080444,2458.499756,873.488525C2460.029541,872.207825,2461.302246,871.517212,2463.322021,870.872009C2464.143555,870.609619,2465.231445,870.16687,2465.739502,869.888123C2466.879639,869.262817,2468.403564,868.813538,2469.975098,868.639404C2470.632324,868.566589,2471.845459,868.197815,2472.670898,867.819946C2473.496094,867.442139,2474.869873,867.020508,2475.723389,866.883057C2477.353516,866.620483,2480.314697,865.723083,2481.213623,865.219116C2481.540039,865.036072,2482.857666,864.950378,2484.652832,864.9953C2487.191162,865.058838,2488.696777,864.929199,2492.366699,864.331177C2492.984131,864.23053,2493.46582,864.374268,2494.213623,864.882507C2495.120361,865.498657,2495.47583,865.569946,2497.640137,865.569946C2499.843262,865.569946,2500.20166,865.494751,2501.734375,864.710205C2502.658203,864.237305,2504.029297,863.237366,2504.781494,862.488159C2507.926025,859.355591,2508.722656,859.99762,2507.129883,864.381104C2506.601563,865.835205,2506.068604,867.352112,2505.945557,867.751953C2505.696045,868.562805,2503.118896,872.320129,2502.311035,873.050598C2501.632324,873.664368,2497.943359,875.453735,2495.102539,876.547119C2493.426514,877.192261,2492.21875,877.460144,2490.359619,877.599487C2486.185547,877.912231,2480.029297,880.256653,2476.897461,882.726013C2474.401367,884.694092,2471.452637,887.801392,2469.85791,890.143799C2467.403076,893.750061,2467.050293,894.810059,2466.903809,899.019897C2466.816162,901.541626,2466.629395,902.974365,2466.21167,904.326355C2464.452881,910.021851,2463.527344,912.570007,2462.862549,913.549011C2462.453613,914.151306,2461.671631,915.417847,2461.124756,916.363647C2460.578125,917.309387,2459.782227,918.559387,2459.356445,919.141418C2458.93042,919.723389,2457.271729,921.974915,2455.670166,924.144775C2454.068848,926.314636,2452.572021,928.48291,2452.344238,928.963135C2451.923096,929.850525,2451.767822,929.941467,2450.12915,930.261597C2448.398926,930.599548,2441.332764,935.760437,2438.233398,938.949768C2437.437988,939.768127,2436.571289,940.437683,2436.307373,940.437683C2436.043457,940.437683,2435.086914,940.740662,2434.181885,941.110901C2431.884033,942.051025,2431.327393,942.328613,2430.419922,942.986694C2429.801514,943.435181,2429.10083,943.597351,2427.245361,943.721191C2422.361572,944.047241,2415.802979,944.738281,2413.129395,945.20874C2411.397461,945.513428,2410.979736,945.498596,2409.344238,945.074402C2407.836182,944.683228,2406.831543,944.622009,2403.751221,944.733521C2401.434082,944.817505,2399.743652,944.764282,2399.335449,944.594727C2398.617432,944.296387,2395.152588,943.825195,2393.978271,943.86615C2393.578125,943.880127,2392.744873,943.911743,2392.126465,943.936462C2391.508057,943.961121,2390.287842,943.768066,2389.414795,943.507446C2386.892334,942.754272,2381.716309,942.343445,2379.191406,942.695923C2378.246338,942.827881,2377.574463,942.724426,2376.28125,942.247803C2374.887451,941.734131,2374.147461,941.635803,2371.954346,941.672729C2370.499512,941.697266,2368.654297,941.708374,2367.854004,941.697388C2358.541504,941.56958,2357.437988,941.619385,2355.49585,942.254639C2354.165039,942.68988,2353.284424,942.829651,2352.585693,942.716431C2349.509033,942.217834,2349.085205,942.22229,2347.687744,942.768066C2346.676758,943.162964,2345.456299,943.347595,2343.250732,943.439331C2340.393555,943.558105,2338.765869,943.906372,2337.924316,944.578979C2337.176514,945.176575,2332.82666,946.240051,2330.023193,946.510681C2327.81543,946.723755,2326.5979,947.168396,2324.616455,948.484802C2323.479004,949.240356,2323.119629,949.702637,2322.23291,951.550842C2321.280762,953.534851,2319.833984,955.451172,2317.200195,958.216919C2316.686768,958.756042,2316.266602,959.361084,2316.266602,959.561462C2316.266602,959.761841,2316.709229,960.213562,2317.250244,960.565308C2318.740967,961.53479,2319.441162,962.749084,2319.441162,964.365356C2319.441162,965.567017,2319.323975,965.858521,2318.449219,966.833496C2316.716309,968.764709,2315.813477,969.906738,2315.208008,970.93396C2314.49292,972.146484,2313.975342,972.448242,2312.609863,972.448242C2311.847412,972.448242,2311.199463,972.699097,2310.218018,973.374207C2309.477783,973.883423,2308.724854,974.30011,2308.544922,974.30011C2308.36499,974.30011,2307.712891,974.795776,2307.095703,975.401489C2305.939453,976.536255,2304.518311,977.199219,2303.227051,977.206177C2302.370605,977.210815,2300.661133,978.02356,2300.111328,978.687439C2299.672607,979.217163,2296.238281,980.918884,2295.63916,980.903564C2295.416748,980.897827,2294.818115,980.698364,2294.308838,980.460266M2255.611572,966.577332C2256.015381,966.384277,2256.382813,965.969543,2256.427734,965.65564C2256.498779,965.157593,2256.319336,965.04541,2255.018799,964.775391C2253.701172,964.501831,2253.469238,964.519409,2253.019043,964.926697C2252.447998,965.443481,2252.333496,966.770935,2252.840576,966.994202C2253.31543,967.203186,2254.754883,966.986633,2255.611572,966.577332M2282.966064,971.492676C2283.552979,970.961609,2283.607666,970.252747,2283.094971,969.827087C2282.892822,969.659363,2281.998047,969.393677,2281.106689,969.236633C2279.168457,968.895264,2278.62915,969.171387,2278.753174,970.441589C2278.904785,971.995605,2281.652832,972.681152,2282.966064,971.492676M2324.605469,805.076904C2325.59082,804.091614,2324.401123,802.077881,2322.83374,802.077881C2320.62207,802.077881,2319.669189,803.960388,2321.359131,804.990845C2322.412842,805.63324,2324.006836,805.675537,2324.605469,805.076904M2416.246338,907.742249C2417.243164,906.903442,2417.3396,905.716309,2416.485107,904.80658C2415.699707,903.970581,2414.796875,904.035889,2413.834473,904.998535C2413.161377,905.671631,2413.056885,905.941284,2413.194092,906.651978C2413.374756,907.587036,2414.207031,908.427124,2414.952881,908.427124C2415.216553,908.427124,2415.798584,908.118896,2416.246338,907.742249M2423.49292,930.345215C2424.255127,929.94397,2424.45874,929.606812,2424.463623,928.737427C2424.469482,927.689209,2423.460693,927.105774,2421.938477,927.277344C2419.877686,927.509644,2419.037842,928.948242,2420.284668,930.109924C2420.938232,930.71875,2422.557617,930.837463,2423.49292,930.345215M2365.352783,882.910034C2366.110352,882.152466,2366.17041,881.536621,2365.570557,880.680237C2365.111084,880.024048,2363.71167,879.326599,2362.854736,879.326599C2361.512695,879.326599,2361.01123,881.537903,2362.052979,882.862305C2362.804443,883.817566,2364.421875,883.840942,2365.352783,882.910034M2456.988037,905.084534C2457.755615,904.109009,2457.705811,902.752258,2456.87207,901.918518C2456.333984,901.380371,2455.994873,901.269531,2455.088379,901.335327C2453.677734,901.437683,2453.078369,902.373657,2453.55249,903.733765C2454.251221,905.738159,2455.948975,906.40564,2456.988037,905.084534M2432.466309,895.626892C2432.573242,895.4646,2432.662354,894.84668,2432.664551,894.253662C2432.669678,892.944824,2431.881104,892.078552,2430.477539,891.850769C2428.725098,891.566406,2427.527832,893.557251,2428.634277,894.915649C2429.537842,896.024902,2431.913574,896.46582,2432.466309,895.626892M2443.364014,812.508728C2443.952148,811.920715,2443.881836,810.64563,2443.225342,809.989014C2442.729492,809.493164,2442.423096,809.444214,2440.328125,809.526062C2439.039795,809.576416,2437.852783,809.750549,2437.69043,809.913025C2437.207764,810.396118,2438.431152,811.538208,2440.208496,812.263855C2442.067383,813.022827,2442.793701,813.079224,2443.364014,812.508728M2333.306641,882.480835C2334.526123,881.031494,2334.569336,879.578796,2333.418213,878.722717L2332.712891,878.197998L2331.769531,878.780945C2330.459717,879.590454,2329.664795,880.768372,2329.871826,881.593079C2330.318359,883.372131,2332.156738,883.84729,2333.306641,882.480835M2422.406982,911.598633C2423.892334,909.76416,2421.506592,906.808411,2419.693604,908.237122C2418.317383,909.321655,2417.949219,911.258423,2418.978271,912.001648C2419.818359,912.608459,2421.775635,912.378418,2422.406982,911.598633M2324.619141,857.816284C2325.161377,857.349976,2325.359131,856.895752,2325.455078,855.895813C2325.56665,854.73407,2325.499023,854.50415,2324.855957,853.861084C2323.495117,852.500183,2322.46582,853.05188,2321.823975,855.48645C2321.446045,856.919128,2321.655029,857.847351,2322.425293,858.157227C2323.376709,858.540039,2323.866211,858.463928,2324.619141,857.816284M2370.755859,932.691895C2371.813965,932.156494,2372.248779,931.15033,2371.844238,930.173706C2371.287842,928.830017,2368.864746,928.315674,2367.854004,929.326599C2367.185547,929.994934,2367.132813,931.850708,2367.762695,932.546509C2368.274902,933.112549,2369.780029,933.185669,2370.755859,932.691895M2378.730469,933.014221C2379.900879,932.387817,2379.840088,930.048767,2378.631348,929.202087C2377.269287,928.248047,2375.225586,928.984009,2374.826904,930.572205C2374.37085,932.389954,2376.918701,933.983887,2378.730469,933.014221M2454.180908,886.437134C2455.291016,885.866821,2456.213623,884.796814,2456.213623,884.080017C2456.213623,883.097778,2455.44873,882.510986,2453.934326,882.331665C2452.117432,882.116455,2451.363525,882.734802,2451.363525,884.440674C2451.363525,886.396484,2452.580811,887.259094,2454.180908,886.437134M2289.588379,927.832031C2290.751709,926.717529,2290.598877,925.113098,2289.263672,924.422607C2287.377441,923.447205,2285.843262,924.362183,2285.843262,926.462646C2285.843262,928.15979,2286.544434,928.924683,2287.898438,928.704895C2288.414063,928.621277,2289.174561,928.228455,2289.588379,927.832031M2258.848877,961.739258C2260.483643,960.893982,2261.231689,958.985474,2260.29541,958.049194C2259.706299,957.460205,2259.5625,957.495605,2257.103027,958.836304C2254.293701,960.367676,2253.746826,961.262024,2255.248779,961.868042C2256.152344,962.232666,2258.024414,962.16571,2258.848877,961.739258M2296.374512,932.446289C2296.476074,931.222229,2296.101318,930.502197,2295.019531,929.842529C2293.227783,928.75,2291.134277,929.543884,2291.134277,931.315796C2291.134277,932.723938,2292.633545,933.569092,2294.970215,933.478394L2296.292969,933.427124L2296.374512,932.446289M2323.273682,898.906738C2324.103516,898.127014,2324.119385,897.291199,2323.322021,896.364197C2322.826904,895.788513,2322.419678,895.623657,2321.253418,895.526978C2319.881348,895.413208,2319.762207,895.453003,2319.092041,896.249268C2318.181396,897.331604,2318.130859,898.69104,2318.978271,899.303345C2319.882813,899.956726,2322.403564,899.723938,2323.273682,898.906738M2330.106689,898.070068C2330.926514,897.63855,2331.072754,897.333618,2331.077393,896.046265C2331.087158,893.314636,2329.080566,892.133423,2327.357422,893.856506C2326.40332,894.810669,2326.321289,896.117004,2327.149658,897.170105C2328.027588,898.286133,2329.084961,898.60791,2330.106689,898.070068M2327.804932,878.224487C2330.605225,876.122192,2331.195801,874.844727,2329.855225,873.790222C2328.928467,873.061096,2328.747559,873.086975,2327.22583,874.166382C2325.99707,875.038025,2324.996826,876.37793,2324.996826,877.151917C2324.996826,877.614685,2326.198486,878.797485,2326.668701,878.797485C2326.873779,878.797485,2327.385254,878.539673,2327.804932,878.224487M2295.810059,977.204163C2298.251465,976.804199,2300.393555,975.44751,2300.393555,974.301331C2300.393555,973.368286,2299.259766,972.387939,2298.3125,972.501831C2297.7771,972.566162,2297.532715,972.89447,2296.973633,974.30011C2296.386719,975.776611,2296.187012,976.031555,2295.561768,976.103638C2294.982422,976.17041,2294.739746,976.022156,2294.373047,975.377808C2294.119385,974.932373,2293.782471,974.567261,2293.623779,974.566345C2292.99292,974.562683,2292.401123,977.065918,2292.912109,977.577026C2293.016846,977.681763,2293.403809,977.691162,2293.771973,977.5979C2294.139893,977.5047,2295.057129,977.327515,2295.810059,977.204163M2399.4729,935.043274C2399.864258,934.757141,2399.999756,934.257507,2400.082275,932.797791C2400.187012,930.946594,2400.175293,930.907288,2399.259277,929.991211C2398.151123,928.883057,2397.684814,928.836731,2396.7771,929.744446C2396.176514,930.345032,2396.114502,930.571594,2396.26001,931.63324C2396.35083,932.296753,2396.425293,933.104553,2396.425293,933.428345C2396.425293,934.951965,2398.264893,935.926636,2399.4729,935.043274M2298.218262,926.79834C2299.400879,925.970093,2298.691406,923.498535,2297.077637,922.82428C2295.679688,922.240234,2294.390625,922.34259,2293.635498,923.097656C2292.325195,924.407959,2293.168701,925.85498,2295.713135,926.661377C2297.731445,927.300903,2297.517578,927.289246,2298.218262,926.79834M2346.999756,911.163879C2347.658936,910.567383,2347.614014,910.158997,2346.670166,908.162598C2345.649902,906.005005,2345.209717,905.51709,2344.282959,905.51709C2342.134521,905.51709,2342.239014,909.772827,2344.419922,911.102844C2345.427002,911.716858,2346.364258,911.739014,2346.999756,911.163879M2424.732178,923.785767C2425.602539,923.174316,2425.696289,922.354248,2424.978271,921.636169C2424.444824,921.102722,2424.209961,921.066833,2422.056641,921.189636C2419.528564,921.33374,2418.577881,921.731018,2418.064453,922.858032C2417.822754,923.388184,2417.857666,923.601135,2418.257568,924.043213C2418.708008,924.540894,2418.949463,924.569458,2421.408203,924.41626C2423.311279,924.297729,2424.259521,924.117859,2424.732178,923.785767M2372.880371,919.802795C2373.765381,918.917725,2373.554199,918.020081,2372.124512,916.590393C2370.959473,915.425293,2370.72583,915.30542,2369.620605,915.30542C2368.231689,915.30542,2367.854004,915.719666,2367.854004,917.242859C2367.854004,918.448059,2368.490479,919.170593,2370.102539,919.794861C2371.79541,920.450439,2372.231445,920.451721,2372.880371,919.802795M2403.02002,906.671875C2403.328857,906.278931,2403.568115,905.584656,2403.568115,905.080688C2403.568115,904.355774,2403.405518,904.08728,2402.708496,903.662292C2401.568115,902.967041,2399.06958,902.929626,2398.481689,903.59906C2397.834229,904.336365,2397.673096,905.226501,2398.030762,906.089722C2398.437744,907.072693,2399.038086,907.330566,2400.969727,907.352173C2402.287354,907.366882,2402.538818,907.283447,2403.02002,906.671875M2319.20166,950.880798C2320.556641,948.326599,2320.633301,947.978882,2319.983887,947.329529C2319.367432,946.713135,2317.81543,946.592651,2317.37207,947.126831C2316.894531,947.702271,2315.737549,951.169189,2315.737549,952.024902C2315.737549,952.469727,2315.928467,953.024658,2316.161621,953.257874C2316.875,953.971252,2318.049316,953.053101,2319.20166,950.880798M2349.074463,927.073608C2349.554199,926.495544,2349.185791,921.694336,2348.612793,921.059387C2347.862549,920.227783,2346.276367,920.522766,2345.878906,921.567749C2345.57666,922.36261,2346.07251,926.048218,2346.593506,926.879517C2347.036621,927.586426,2348.550537,927.704895,2349.074463,927.073608M2409.670166,910.05365C2410.222412,909.606384,2410.270264,909.371582,2410.220459,907.349609C2410.15625,904.73584,2409.771484,903.929749,2408.588623,903.929749C2407.497314,903.929749,2406.848633,904.684814,2406.464111,906.402832C2406.0625,908.197693,2406.419189,909.295654,2407.647705,910.044678C2408.663818,910.664368,2408.914551,910.665466,2409.670166,910.05365M2290.025146,975.549255C2290.436523,974.689331,2290.061523,973.129883,2289.380371,972.86853C2288.374268,972.482422,2286.664307,972.741943,2285.157959,973.509216C2283.062988,974.576416,2282.56958,974.983093,2282.761963,975.484253C2283.033203,976.190918,2284.016357,976.39386,2286.898438,976.338013C2289.649902,976.284729,2289.67627,976.278076,2290.025146,975.549255M2272.500977,955.770203C2274.667236,955.389404,2275.40918,955.057434,2275.74585,954.318787C2276.120117,953.497559,2275.679199,952.162231,2274.958496,951.933472C2274.310791,951.727905,2270.581299,952.519409,2269.771973,953.034302C2268.981934,953.536682,2269.005859,954.576538,2269.825928,955.396851C2270.575439,956.146301,2270.456299,956.129639,2272.500977,955.770203M2285.54834,936.749573C2287.083984,935.966125,2288.224365,934.5271,2288.224365,933.37262C2288.224365,931.446533,2286.331787,930.741028,2284.999756,932.170532C2283.62915,933.641663,2282.404053,935.46759,2282.404053,936.039978C2282.404053,937.33075,2283.794189,937.64447,2285.54834,936.749573M2433.077637,922.063477C2433.88208,921.259033,2433.893799,920.808533,2433.131592,919.974365C2432.212402,918.96814,2429.768311,917.421814,2429.096924,917.421814C2428.402344,917.421814,2427.429199,918.163513,2427.361328,918.744568C2427.199707,920.129272,2427.977783,921.059448,2430.155518,922.084839C2431.827148,922.871948,2432.272461,922.868652,2433.077637,922.063477M2430.995117,901.685181C2431.303711,901.469238,2431.68042,900.935242,2431.832764,900.498535C2432.212646,899.408447,2431.67334,898.90332,2430.12915,898.90332C2429.344727,898.90332,2428.423584,898.637573,2427.377686,898.109619C2425.540039,897.181946,2424.982666,897.130005,2424.351563,897.827332C2423.763672,898.476868,2423.986816,899.666199,2424.848633,900.475769C2425.561279,901.145264,2428.135742,902.018433,2429.501465,902.053772C2430.014648,902.067017,2430.687012,901.901184,2430.995117,901.685181M2347.68457,933.924866C2348.673584,933.637329,2349.611816,933.55011,2350.541016,933.659302C2352.995605,933.947815,2353.807129,932.451538,2352.114502,930.75885C2351.365479,930.009888,2350.790771,929.975586,2348.359863,930.534668C2345.812012,931.120605,2344.599854,931.980896,2344.581787,933.215576C2344.573486,933.7948,2345.176758,934.329651,2345.855469,934.344971C2346.05127,934.349426,2346.874512,934.160339,2347.68457,933.924866M2357.765381,904.679138C2358.148682,904.218262,2359.265869,903.041565,2360.248047,902.064209C2362.358887,899.963623,2362.486816,899.429871,2361.059082,898.678345C2360.179443,898.215332,2359.343994,898.662964,2356.849854,900.933411C2355.147949,902.482544,2354.627441,903.118042,2354.630371,903.641968C2354.635254,904.452881,2354.838135,904.795959,2355.552246,905.200928C2356.433105,905.700378,2357.033691,905.558777,2357.765381,904.679138M2307.619873,909.974792C2309.073975,909.209473,2308.925293,908.295715,2306.978271,906.033569C2305.324219,904.111755,2303.513672,902.606995,2302.85498,902.606995C2302.6521,902.606995,2302.186279,902.906616,2301.820068,903.272827C2301.328125,903.764771,2301.176025,904.161804,2301.237061,904.793945C2301.309814,905.548767,2301.500244,905.735474,2302.857666,906.382202C2304.229492,907.035767,2304.463623,907.268799,2305.024902,908.537537C2305.796143,910.28186,2306.400635,910.616577,2307.619873,909.974792M2325.791016,811.46875C2326.197754,810.978699,2325.956299,809.577942,2325.349365,808.90741C2325.016113,808.539063,2324.521729,808.427124,2323.228271,808.427124C2322.024658,808.427124,2321.091797,808.237732,2319.970215,807.765747C2318.276855,807.052917,2317.321533,806.945862,2316.513672,807.378235C2315.855469,807.73053,2315.866943,808.18396,2316.556152,809.060181C2317.382568,810.110901,2318.817383,810.715942,2320.971191,810.921997C2322.030762,811.023438,2323.340332,811.268982,2323.881104,811.467651C2325.172119,811.942017,2325.398193,811.942139,2325.791016,811.46875M2425.114014,894.347046C2425.657715,893.570679,2425.628418,892.028809,2425.057129,891.349121C2424.547852,890.74353,2421.784912,888.395874,2420.77124,887.707336C2420.411377,887.463013,2419.788818,887.263062,2419.387451,887.263062C2418.812744,887.263062,2418.618164,887.417664,2418.471924,887.990601C2418.063232,889.591431,2418.385986,890.142578,2420.287598,891.093079C2421.082764,891.490417,2421.624512,892.023926,2422.08667,892.864624C2422.450439,893.526245,2422.911377,894.262756,2423.111084,894.501343C2423.625732,895.116028,2424.629639,895.038696,2425.114014,894.347046M2294.071289,945.389465C2294.659912,944.994263,2294.999512,944.535278,2295.054688,944.060791C2295.125732,943.447937,2294.994385,943.275513,2294.203369,942.945007C2293.688721,942.72998,2293.055664,942.553467,2292.796387,942.552612C2291.600098,942.548889,2290.169189,941.885742,2289.002197,940.79425C2287.946777,939.807068,2287.587402,939.621826,2286.862793,939.692017C2286.254395,939.750916,2285.877686,939.981079,2285.612549,940.456055C2285.010254,941.534241,2285.386719,942.394043,2286.69751,942.934875C2287.318848,943.191345,2288.18457,943.55188,2288.621094,943.736084C2289.057617,943.920288,2289.931885,944.50354,2290.564209,945.032104C2291.914551,946.161377,2292.789551,946.250488,2294.071289,945.389465M2312.759277,950.424438C2312.902832,950.242554,2313.349854,949.046204,2313.75293,947.765869C2314.313721,945.982971,2314.449463,945.134583,2314.332031,944.142517C2314.036377,941.64801,2312.781738,940.276489,2311.379639,940.915344C2310.421387,941.351929,2310.261719,942.39093,2310.938721,943.784302C2311.700928,945.353027,2311.6521,946.186401,2310.710938,947.670227C2310.274658,948.358521,2309.91748,949.09613,2309.91748,949.309326C2309.91748,950.389343,2312.108154,951.249023,2312.759277,950.424438M2305.328857,973.096191C2306.539551,972.172791,2306.505859,971.320435,2305.210205,970.092529C2303.376465,968.354675,2300.274658,966.150513,2299.289551,965.885437C2297.516357,965.408081,2296.685059,966.679932,2297.605957,968.461121C2298.040039,969.300232,2298.488281,969.538208,2299.634766,969.538208C2300.589844,969.538208,2301.880615,970.171753,2302.200439,970.797607C2302.32959,971.05072,2302.512451,971.663086,2302.606689,972.158508C2302.941895,973.923035,2303.8396,974.232239,2305.328857,973.096191M2428.629883,914.445618C2429.117188,913.822876,2429.161865,912.991333,2428.812988,911.04071C2428.62085,909.96698,2428.45752,908.293396,2428.449951,907.321655C2428.434814,905.418335,2428.131348,904.856262,2426.960449,904.562378C2426.032959,904.32959,2424.996826,905.080933,2424.996826,905.986145C2424.99707,906.382935,2425.239014,907.344116,2425.534668,908.122192C2425.978516,909.289734,2426.041748,909.874878,2425.896973,911.472717C2425.72998,913.31427,2425.754883,913.442078,2426.405273,914.092529C2427.133789,914.820923,2428.203369,914.990723,2428.629883,914.445618M2314.696777,899.423096C2315.115479,899.198975,2315.208496,898.860474,2315.208496,897.558105C2315.208496,895.644653,2315.670654,894.653931,2316.924805,893.878723C2318.538574,892.88147,2318.758789,891.982971,2317.697998,890.722534C2316.963379,889.849487,2315.776123,889.62146,2315.252197,890.252808C2315.094971,890.442078,2314.24707,892.043335,2313.36792,893.811096C2311.74292,897.078308,2311.376709,898.669556,2312.08667,899.379517C2312.476563,899.769226,2314.002197,899.794739,2314.696777,899.423096M2348.054932,890.944153C2348.350098,890.786255,2348.837158,890.101685,2349.137207,889.422974C2349.4375,888.744324,2350.371094,887.472412,2351.212158,886.596558C2353.042236,884.690674,2353.452148,883.809143,2352.973389,882.809875C2352.518555,881.860962,2351.377686,881.322449,2350.648682,881.712524C2350.346924,881.874023,2349.708252,882.861572,2349.229248,883.907104C2348.750488,884.952637,2347.91626,886.333984,2347.375732,886.976746C2345.719971,888.945801,2345.257568,890.222229,2345.949219,890.913879C2346.344482,891.309143,2347.346191,891.323547,2348.054932,890.944153M2393.241455,934.105896C2393.675781,933.294434,2393.561768,932.283081,2392.969238,931.690552C2392.497803,931.219116,2392.14502,931.153748,2390.389893,931.212097C2389.271484,931.249268,2387.194824,931.17981,2385.775146,931.057617C2383.468994,930.859192,2383.137695,930.886353,2382.666748,931.3125C2382.376709,931.57489,2382.139648,932.061951,2382.139648,932.394897C2382.139648,933.407043,2383.078857,933.821106,2385.439209,933.849487C2386.607178,933.863464,2388.217773,934.025635,2389.017822,934.209717C2391.364014,934.749573,2392.91748,934.711365,2393.241455,934.105896M2307.581787,947.1427C2307.889648,946.864075,2308.06543,946.337341,2308.06543,945.693787C2308.06543,944.485779,2307.485352,944.02002,2305.660156,943.763306C2304.941895,943.662231,2303.860596,943.210205,2303.014648,942.657104C2301.751709,941.831482,2301.438477,941.737976,2300.341797,941.859253C2298.607178,942.051147,2297.483643,942.678223,2297.483643,943.454468C2297.483643,944.381897,2298.06958,944.710571,2300.384766,945.081238C2301.995361,945.339111,2302.895996,945.666504,2304.280518,946.497192C2306.257813,947.683533,2306.855225,947.800293,2307.581787,947.1427M2327.433594,938.293213C2330.638916,937.948547,2331.756836,937.547363,2332.195557,936.584412C2332.48291,935.953918,2332.449219,935.822998,2331.882324,935.363892C2331.439453,935.005249,2331.041992,934.902039,2330.569092,935.022827C2326.779053,935.990967,2325.2854,935.984436,2323.36499,934.991333C2322.307129,934.444397,2321.318604,934.607788,2320.707275,935.430664C2320.005859,936.374573,2320.29541,937.305054,2321.509766,938.009094C2322.631592,938.659546,2323.595947,938.705811,2327.433594,938.293213M2298.376221,919.20752C2298.582764,918.880127,2298.952148,917.89801,2299.196777,917.025024C2299.727539,915.13092,2300.578125,913.604065,2301.692627,912.544312C2302.251465,912.012939,2302.51001,911.516479,2302.51001,910.97406C2302.51001,909.346741,2300.515381,908.327515,2299.508545,909.440247C2299.267578,909.706482,2298.762207,910.682617,2298.385742,911.609436C2298.009033,912.536255,2297.235352,914.22052,2296.66626,915.352295C2295.540771,917.590942,2295.393066,918.571655,2296.06958,919.31897C2296.688721,920.003174,2297.911133,919.944092,2298.376221,919.20752M2348.541748,917.514832C2350.768066,917.332581,2352.228516,916.180176,2352.239502,914.597107C2352.245605,913.738892,2351.272705,912.659912,2350.49292,912.659912C2350.295898,912.659912,2349.477295,913.255127,2348.674072,913.982666C2346.901611,915.587708,2346.424316,915.626709,2344.14624,914.352661C2342.921631,913.667847,2342.258545,913.446045,2341.78833,913.564026C2340.4021,913.911987,2341.321289,916.182251,2343.371826,917.474548C2344.025635,917.886719,2344.449463,917.949219,2345.631592,917.807922C2346.431885,917.712219,2347.741455,917.580322,2348.541748,917.514832M2388.664551,915.503845C2388.957275,915.176453,2389.4729,914.432373,2389.810303,913.850403C2390.68457,912.342407,2391.849609,911.143127,2393.447754,910.106323C2395.189697,908.976318,2395.782227,908.144348,2395.379883,907.3927C2394.571289,905.881836,2392.644531,906.034119,2391.381104,907.708801C2390.918457,908.322144,2389.483154,909.845276,2388.19165,911.093506C2386.281006,912.940063,2385.843262,913.508545,2385.843262,914.143127C2385.843262,915.925598,2387.550537,916.749084,2388.664551,915.503845M2448.836914,809.719116C2449.617676,808.938538,2449.387207,807.572632,2448.164063,805.730408C2447.412598,804.598877,2447.153564,803.893677,2447.008789,802.587036C2446.782227,800.542969,2446.359619,800.235779,2443.76416,800.22998C2440.702881,800.223083,2440.440186,801.109253,2443.001465,802.804077C2444.685303,803.918335,2445.106934,804.610352,2445.36377,806.680054C2445.588623,808.493225,2446.043945,809.387268,2447.018311,809.928345C2447.861572,810.396667,2448.198242,810.357971,2448.836914,809.719116M2317.819092,925.45874C2318.356689,925.082153,2318.412109,924.881104,2318.273682,923.805298C2317.821289,920.290344,2317.814453,919.09845,2318.237549,917.469604C2318.736084,915.549683,2318.605713,914.847961,2317.686279,914.498352C2316.875977,914.190247,2315.378418,914.758057,2314.965088,915.530151C2314.59375,916.224304,2314.601807,917.49884,2314.986084,918.781128C2315.222168,919.569397,2315.216553,920.21582,2314.961426,921.5896C2314.592773,923.576294,2314.770996,924.401245,2315.77124,925.332947C2316.486084,925.999023,2317.002441,926.030701,2317.819092,925.45874M2442.344727,872.24646C2442.537598,871.857605,2442.566895,871.208618,2442.428711,870.394592C2442.311523,869.705322,2442.092285,868.427124,2441.941162,867.554077C2441.790039,866.681091,2441.665771,865.221008,2441.665039,864.309448C2441.663574,862.80426,2441.584473,862.568359,2440.803711,861.73938C2439.683594,860.550354,2438.718018,860.31427,2437.982666,861.049683C2437.196533,861.835693,2437.294678,862.727783,2438.380859,864.669861C2439.414307,866.517883,2439.610596,867.926147,2439.19458,870.508484C2438.999512,871.719666,2439.038818,871.940063,2439.540283,872.441528C2440.311768,873.213074,2441.921143,873.101135,2442.344727,872.24646M2422.468506,904.400024C2423.045166,903.576599,2423.00293,903.373657,2421.928467,901.811584C2421.179932,900.723572,2420.921875,900.024292,2420.72168,898.541138C2420.411621,896.246338,2419.706055,894.693359,2418.488037,893.623901C2417.453857,892.715942,2417.018311,892.633911,2416.417725,893.234375C2415.794922,893.857239,2415.90625,894.583008,2416.926514,896.554993C2417.539307,897.739014,2417.943115,898.98999,2418.123779,900.26416C2418.403564,902.236206,2419.311279,904.202393,2420.173828,904.705078C2420.971436,905.169922,2422.027588,905.02948,2422.468506,904.400024M2325.53125,871.78418C2326.374756,871.347961,2326.848633,870.653381,2326.848633,869.853394C2326.848633,869.211182,2324.974854,863.623352,2324.366699,862.452515C2323.820801,861.401123,2321.9375,860.390808,2320.974121,860.632568C2320.236816,860.817627,2319.705811,861.78479,2319.705811,862.942566C2319.705811,863.555115,2319.866943,863.79303,2320.43335,864.016296C2322.669922,864.898071,2322.920898,865.073425,2323.324219,866.035645C2323.67041,866.861877,2323.689941,867.291687,2323.441895,868.642822C2323.062256,870.710571,2323.067139,871.471069,2323.462402,871.866272C2323.890137,872.294006,2324.599609,872.265869,2325.53125,871.78418M2331.241943,844.091248C2332.618896,842.789001,2332.778076,842.712769,2334.334717,842.610352C2336.215088,842.486694,2336.636963,842.13855,2336.636963,840.710571C2336.636963,837.884216,2334.340576,837.956543,2331.276367,840.879395L2329.719238,842.364563L2327.5,842.19397C2325.028076,842.003967,2324.732178,842.180298,2324.732178,843.843872C2324.732178,844.832336,2325.02002,845.020081,2326.848633,845.22406C2329.735596,845.546082,2329.69165,845.557434,2331.241943,844.091248M2428.42749,934.225037C2430.567627,933.147278,2431.610596,932.250732,2431.610596,931.488647C2431.610596,931.209534,2431.375977,930.450684,2431.089111,929.802246C2430.802246,929.15387,2430.48877,927.952332,2430.392334,927.132141C2430.192627,925.433228,2429.682617,924.806702,2428.47168,924.772278C2426.697754,924.721863,2426.351563,926.143616,2427.642334,928.178711C2428.078857,928.867004,2428.436035,929.769409,2428.436035,930.184082C2428.436035,931.186584,2427.428955,932.155823,2426.150635,932.383728C2424.983154,932.591858,2423.229492,933.486206,2423.044922,933.967651C2422.976318,934.14624,2423.106934,934.55896,2423.335205,934.884827C2423.701172,935.407104,2423.913818,935.46051,2425.127686,935.335205C2425.953857,935.25,2427.274658,934.805542,2428.42749,934.225037M2447.582031,920.794861C2448.507813,919.956421,2449.864502,917.244873,2449.864502,916.233276C2449.864502,915.209473,2447.211914,909.667603,2446.223145,908.625488C2445.429443,907.789063,2444.946533,907.717712,2444.263672,908.335815C2443.455078,909.067505,2443.682617,910.085388,2445.134766,912.234924C2446.919678,914.877014,2447.058105,915.914063,2445.925049,918.158386C2444.989746,920.01123,2444.934814,920.39093,2445.518311,920.974365C2446.098633,921.554688,2446.811523,921.492676,2447.582031,920.794861M2377.233643,916.19928C2377.875,915.953186,2378.472412,914.616821,2378.28125,913.85553C2377.945801,912.518738,2376.076904,911.340454,2370.753174,909.109497C2367.425537,907.715027,2366.266602,907.865173,2366.266602,909.690857C2366.266602,910.3255,2366.490479,910.808167,2367.039795,911.357544C2367.752197,912.069763,2367.964355,912.130798,2369.728271,912.130798C2372.069336,912.130798,2373.370117,912.786804,2374.699219,914.637817C2375.433838,915.660645,2375.845703,916.001953,2376.760742,916.346863C2376.7854,916.356079,2376.998047,916.289673,2377.233643,916.19928M2313.212402,931.014099C2313.73291,930.814453,2314.414795,929.558167,2314.414795,928.799316C2314.414795,928.494812,2313.881104,927.675293,2313.229004,926.978149C2311.405029,925.028137,2311.120117,924.122437,2311.532227,921.5849C2311.93457,919.106934,2311.756592,918.649414,2310.34375,918.529602C2309.521484,918.459839,2309.219727,918.595825,2308.418701,919.39679C2307.558594,920.256836,2307.482422,920.449402,2307.614502,921.433716C2307.694824,922.031555,2308.231201,923.427063,2308.806885,924.53479C2309.382324,925.642517,2310.171875,927.4375,2310.561523,928.523682C2310.951172,929.609924,2311.396729,930.651611,2311.552002,930.838501C2311.856445,931.205566,2312.52832,931.276611,2313.212402,931.014099M2324.870361,892.185303C2325.433105,891.326782,2325.175293,890.466858,2323.841064,888.748474C2322.597412,887.146851,2321.777832,886.421509,2319.705811,885.088806C2318.905518,884.574036,2317.780029,883.662231,2317.205078,883.0625C2315.941406,881.744995,2314.99292,881.62207,2314.169434,882.669128C2313.422363,883.618896,2313.479004,884.172729,2314.434326,885.260803C2315.034424,885.944336,2315.740479,886.345215,2317.129883,886.791138C2319.546631,887.566956,2320.575439,888.517517,2321.154785,890.509949C2321.646973,892.203003,2322.297607,892.818665,2323.594482,892.818665C2324.210693,892.818665,2324.573486,892.638672,2324.870361,892.185303M2264.124268,966.914307C2264.330078,966.783997,2264.596924,965.931946,2264.723389,965.000366C2264.865967,963.950317,2265.371338,962.436462,2266.072021,960.959412C2267.308594,958.353027,2267.459961,957.053345,2266.698486,955.583191C2266.323975,954.860352,2266.104736,954.723389,2265.321777,954.723389C2264.686035,954.723389,2264.184814,954.929321,2263.741455,955.372742C2262.984619,956.129395,2262.951416,956.438843,2263.48877,957.724915C2264.549561,960.263794,2263.494629,962.689087,2260.710938,964.111023C2260.056396,964.445496,2259.290527,964.973816,2259.009277,965.285034C2258.544189,965.799683,2258.5354,965.888672,2258.913818,966.267029C2259.659668,967.013,2263.261719,967.460449,2264.124268,966.914307M2308.006592,901.136963C2308.531494,900.769287,2308.594727,900.496399,2308.594727,898.592529C2308.594727,896.666382,2308.698975,896.228455,2309.671631,894.068115C2310.263916,892.752686,2311.156738,891.038208,2311.655762,890.25824C2312.652344,888.700256,2312.795166,887.693848,2312.125,886.953247C2311.563232,886.332397,2310.388428,886.331909,2309.827148,886.952209C2309.396973,887.427368,2307.575195,891.855286,2305.780762,896.786194C2304.743164,899.637207,2304.779297,900.268921,2306.022461,901.026917C2307.052734,901.655151,2307.251221,901.666138,2308.006592,901.136963M2339.687012,911.953125C2340.040771,911.599304,2340.084717,911.295044,2339.906494,910.431946C2339.78418,909.838562,2339.682861,908.319824,2339.681641,907.057007C2339.678711,904.277954,2340.128662,903.459534,2341.95166,902.928284C2342.593262,902.741211,2343.416016,902.500977,2343.779785,902.394409C2344.282227,902.247192,2344.461182,901.993713,2344.524414,901.340332C2344.600586,900.553955,2344.509766,900.435608,2343.466309,899.962036C2342.013916,899.302979,2340.958984,899.299316,2339.89209,899.949829C2338.681885,900.687805,2338.26709,901.456604,2337.57666,904.241821C2337.240479,905.597961,2336.772461,907.168518,2336.536621,907.731934C2336.030518,908.941284,2335.994873,910.240784,2336.45166,910.840698C2336.845947,911.358704,2338.497803,912.393005,2338.932861,912.394409C2339.104492,912.394897,2339.443604,912.19635,2339.687012,911.953125M2277.113281,973.762207C2277.113281,973.611938,2276.831787,972.927368,2276.487793,972.241089C2275.605225,970.479736,2275.426758,969.229248,2275.897461,968.102905C2276.524658,966.60144,2277.635498,966.101196,2280.344482,966.100037C2282.352539,966.099182,2282.685547,966.033081,2282.924072,965.587341C2283.613281,964.299438,2282.913818,962.395386,2281.751221,962.395386C2281.408691,962.395386,2280.49292,962.627197,2279.716064,962.910522C2278.939209,963.193787,2277.645508,963.606079,2276.841309,963.826721C2275.135254,964.294678,2274.347168,965.035095,2273.160156,967.285278C2272.578125,968.388611,2272.373535,969.070068,2272.485596,969.533936C2272.747803,970.6203,2274.420654,972.956543,2275.336426,973.514771C2276.260986,974.078491,2277.113281,974.197205,2277.113281,973.762207M2374.841797,926.251099C2376.864258,925.561951,2378.962158,923.140015,2378.964111,921.491882C2378.965332,920.450073,2378.060791,919.273682,2377.258545,919.273682C2376.47998,919.273682,2376.181885,919.650208,2375.792725,921.125488C2375.41748,922.547791,2374.675293,923.418823,2373.645996,923.644897C2372.573486,923.880493,2370.095703,923.309326,2368.328613,922.419189C2366.556641,921.52655,2365.752441,921.663879,2365.219727,922.950012C2364.419922,924.881226,2365.719482,926.005188,2368.450195,925.743774C2369.734863,925.620789,2370.426514,925.703186,2371.557617,926.114014C2373.370361,926.772339,2373.318359,926.770203,2374.841797,926.251099M2436.048096,871.390076C2436.287598,870.936462,2436.348633,870.198364,2436.241699,869.040649C2436.060791,867.078125,2435.688965,866.082825,2434.550293,864.510681C2433.316895,862.808167,2433.406006,861.716064,2434.91748,860.014404C2436.248779,858.515259,2436.35498,858.018799,2435.55957,857.007751C2434.704346,855.920593,2433.918701,856.092102,2432.996582,857.567322C2431.317871,860.252869,2429.990234,862.950073,2430.071045,863.510437C2430.11792,863.835449,2430.568115,864.356689,2431.081543,864.680054C2433.123535,865.966553,2433.239258,866.207886,2433.147949,868.989563C2433.067627,871.432068,2433.08252,871.505005,2433.727051,871.842224C2434.688965,872.345581,2435.641357,872.160034,2436.048096,871.390076M2419.351563,935.377563C2419.811768,935.236511,2420.260742,934.931519,2420.349854,934.699829C2420.590332,934.072754,2419.79126,933.039063,2418.720215,932.591492C2417.878418,932.239807,2417.574951,932.242188,2415.93042,932.613586C2413.604248,933.138916,2409.80957,933.141296,2407.404297,932.618896C2406.385742,932.397705,2405.23291,932.148376,2404.842285,932.064819C2404.305664,931.950073,2403.966553,932.078735,2403.453369,932.591858C2402.697021,933.34845,2402.583984,934.255371,2403.149658,935.030029C2403.475098,935.475525,2403.974121,935.564819,2406.919434,935.704285C2411.15625,935.904907,2418.239014,935.718811,2419.351563,935.377563M2464.724609,893.151367C2465.406006,891.36145,2467.030273,888.688965,2469.090332,885.968445C2469.574219,885.329102,2469.970215,884.625244,2469.970215,884.404297C2469.970215,884.18335,2469.626709,883.456421,2469.207031,882.788879C2468.787109,882.121399,2468.303467,881.134521,2468.132324,880.595825C2467.804932,879.565247,2467.16333,879.174255,2466.266357,879.458923C2465.29248,879.768066,2465.168457,880.463989,2465.750977,882.350403C2466.113281,883.523071,2466.231934,884.401367,2466.113525,885.032837C2465.849365,886.440491,2463.543945,889.846252,2461.718994,891.524658C2460.34375,892.789551,2460.130371,893.106323,2460.272461,893.672363C2460.481689,894.505798,2461.859619,895.223145,2463.080566,895.134033C2463.956299,895.070129,2464.025635,894.986511,2464.724609,893.151367M2297.455078,939.40509C2298.416504,939.128174,2299.644287,938.826111,2300.183594,938.733887C2301.454834,938.516479,2302.081299,937.695557,2302.506836,935.69043C2303.07666,933.005493,2302.259033,929.847961,2300.790283,929.062012C2300.218994,928.756226,2300.06543,928.77301,2299.602539,929.192017C2298.963623,929.770142,2298.934082,930.462646,2299.482422,932.004944C2299.70874,932.641663,2299.901611,933.632507,2299.911133,934.206909C2299.93457,935.625854,2298.768311,936.712769,2297.148682,936.781494C2295.331055,936.858643,2294.253662,936.737671,2292.92627,936.307312C2290.885986,935.645874,2289.802002,936.134827,2290.158447,937.555481C2290.354248,938.3349,2291.406738,938.986328,2293.28833,939.492493C2295.168213,939.998169,2295.413818,939.992981,2297.455078,939.40509M2289.017822,969.273682C2289.75,968.541565,2289.696045,967.471436,2288.711914,963.222961C2287.989502,960.103577,2287.883545,959.181641,2287.925049,956.383423C2287.968262,953.452515,2287.922607,953.098999,2287.437256,952.613586C2287.105469,952.28186,2286.55249,952.077881,2285.984863,952.077881C2284.671143,952.077881,2284.374512,952.743652,2284.7771,954.789612C2284.965088,955.746033,2285.018311,957.127563,2284.910889,958.273682C2284.739014,960.107788,2284.766113,960.235657,2285.703613,962.002747C2286.739014,963.954224,2286.786621,964.795471,2285.952881,966.407471C2285.053467,968.146729,2285.838867,969.802795,2287.562988,969.802795C2288.135986,969.802795,2288.69043,969.601196,2289.017822,969.273682M2413.958984,929.611328C2416.351807,929.360291,2417.060303,928.897339,2417.060303,927.5849C2417.060303,925.839905,2415.897949,925.49585,2413.215088,926.446777C2411.866943,926.924622,2411.283691,926.981873,2409.212402,926.839844C2406.244873,926.636353,2404.973145,926.208496,2403.244873,924.832397C2401.798096,923.680603,2401.098389,923.529968,2400.348389,924.208862C2399.559326,924.922913,2399.717041,926.311584,2400.687744,927.198242C2401.869873,928.278015,2403.024658,928.681763,2406.610596,929.269287C2410.262451,929.867554,2411.131104,929.907959,2413.958984,929.611328M2311.782471,969.663696C2312.872559,969.099915,2312.851563,968.083862,2311.737061,967.475647C2311.282959,967.227783,2309.5271,965.925415,2307.834961,964.581482C2302.913574,960.672485,2297.33374,958.137573,2296.030762,959.218994C2295.459473,959.693054,2295.538574,961.147461,2296.179932,961.962891C2296.669678,962.585449,2296.908203,962.659912,2298.411377,962.659912C2300.62793,962.659912,2301.070557,962.854675,2304.281738,965.243042C2306.1521,966.634277,2307.299316,967.709717,2307.936279,968.669067C2308.802002,969.973083,2308.936523,970.067322,2309.93335,970.067322C2310.520996,970.067322,2311.353027,969.885681,2311.782471,969.663696M2474.750977,880.525513C2477.361572,878.297119,2483.396484,875.78656,2487.827393,875.085449C2488.845947,874.924316,2490.006592,874.667236,2490.406738,874.514221C2491.974854,873.914429,2490.760498,872.71283,2488.586426,872.71283C2486.584961,872.71283,2480.58374,874.307617,2477.377686,875.691406C2475.849854,876.35083,2473.936279,877.078613,2473.125244,877.308716C2471.164307,877.86499,2470.602051,878.48114,2471.003662,879.633423C2471.850342,882.062012,2472.710938,882.266907,2474.750977,880.525513M2313.93042,905.617004C2315.337402,905.25647,2316.049561,905.231323,2318.383057,905.460022C2322.045654,905.818909,2326.42041,905.212158,2327.758545,904.159668C2328.668945,903.443481,2328.71875,901.776978,2327.8479,901.166992C2326.964355,900.548035,2326.318604,900.660645,2324.87793,901.684814C2322.900146,903.090942,2321.862061,903.282715,2319.224609,902.729187C2317.354736,902.336792,2316.803711,902.315674,2315.57959,902.5896C2314.692871,902.788086,2313.490723,902.843079,2312.457764,902.732422C2311.371826,902.61615,2310.579102,902.658936,2310.215332,902.853638C2308.968018,903.521179,2309.986084,906.046143,2311.502441,906.046143C2311.916748,906.046143,2313.009277,905.853027,2313.93042,905.617004M2330.405029,889.585205C2331.032227,888.689697,2330.937744,887.083252,2330.22168,886.469421C2328.705322,885.169678,2327.19873,883.573059,2326.716309,882.754883C2326.302246,882.052612,2325.755615,881.680908,2324.203125,881.046265C2321.739258,880.039063,2321.283936,879.358032,2321.823486,877.486694C2322.668213,874.557434,2322.442871,873.755981,2320.88501,874.147034C2319.688477,874.447327,2317.893066,877.863647,2318.22876,879.20105C2318.436768,880.029785,2318.972412,880.527283,2322.483643,883.152832C2325.869629,885.684937,2326.044678,885.864807,2326.995605,887.792175C2327.390381,888.592468,2327.894531,889.455566,2328.115723,889.710205C2328.6875,890.368408,2329.902832,890.302002,2330.405029,889.585205M2325.229004,944.684692C2326.324219,944.203979,2327.862549,943.798218,2329.241699,943.626221C2331.739258,943.314636,2335.968994,942.247253,2337.172852,941.624695C2338.784912,940.790955,2337.724854,938.585815,2335.71167,938.585815C2335.150879,938.585815,2334.505127,938.869751,2333.829346,939.41333C2332.455322,940.518921,2331.544434,940.872314,2329.494141,941.095581C2328.54834,941.198547,2326.963135,941.449768,2325.971436,941.653931C2322.648193,942.337891,2321.798096,942.181519,2319.856445,940.528992C2318.581299,939.443481,2317.523438,939.359619,2316.910156,940.295349C2316.553467,940.839722,2316.534668,941.101929,2316.79541,941.892029C2317.156738,942.986267,2317.825195,943.477966,2319.306396,943.738831C2319.887207,943.841064,2320.833252,944.271118,2321.408936,944.694458C2322.711182,945.652222,2323.026367,945.651428,2325.229004,944.684692M2328.311523,838.996399C2329.626221,838.447083,2329.929932,837.619934,2329.394287,836.047607C2328.858643,834.475708,2328.856445,833.47168,2329.38208,830.154297C2329.687988,828.222595,2329.775879,826.12439,2329.712646,822.273315C2329.631104,817.314026,2329.591797,816.964539,2328.997314,815.927307C2328.337891,814.776184,2327.365234,814.060181,2326.873779,814.363892C2326.478271,814.608398,2326.517334,816.298218,2326.984619,819.141418C2327.522461,822.415771,2327.477051,825.662598,2326.83667,829.723389C2325.492432,838.246582,2325.488037,838.285278,2325.785156,838.840393C2326.128174,839.481323,2327.019287,839.536316,2328.311523,838.996399M2315.718262,965.401978C2316.019775,965.018616,2316.266602,964.477295,2316.266602,964.198975C2316.266602,963.48999,2313.943848,961.245361,2312.39917,960.461243C2311.688965,960.10083,2310.323975,959.168335,2309.365967,958.388977C2308.338379,957.553223,2305.816162,956.049805,2303.216064,954.723389C2299.578857,952.868042,2298.595703,952.474731,2297.593262,952.474731C2296.188477,952.474731,2295.367188,953.210632,2295.367188,954.469238C2295.367188,955.688049,2295.940186,956.023193,2297.959961,955.985779C2299.649902,955.954407,2299.908447,956.03595,2302.650391,957.464844C2306.199951,959.314697,2309.947021,961.937195,2312.423584,964.304932C2313.446045,965.282471,2314.482178,966.08606,2314.726318,966.090637C2314.970215,966.095276,2315.416748,965.7854,2315.718262,965.401978M2342.655029,930.772034C2343.681396,930.053162,2343.892822,928.650513,2343.266846,926.712769C2342.948975,925.728333,2342.717773,924.294922,2342.712158,923.273621C2342.701416,921.230652,2342.427734,920.634277,2341.020752,919.585205C2340.452148,919.161255,2339.496826,918.114136,2338.897705,917.258301C2338.29834,916.402466,2337.264404,915.345093,2336.599854,914.908569C2335.935303,914.472046,2334.897705,913.668518,2334.293945,913.122864C2333.083496,912.02887,2332.425537,911.914856,2330.883057,912.531982C2328.796631,913.366821,2328.857666,914.747314,2331.004639,915.281372C2333.324463,915.858521,2334.958496,916.867554,2336.924072,918.936768C2338.144775,920.221802,2339.093262,921.527588,2339.613525,922.639832C2340.365723,924.246826,2340.415283,924.544067,2340.381592,927.241638C2340.349854,929.796021,2340.406006,930.185547,2340.872314,930.651917C2341.505127,931.284668,2341.886475,931.310303,2342.655029,930.772034M2294.68335,971.912354C2295.039063,970.714539,2295.028564,970.450867,2294.557861,968.752441C2294.275391,967.733276,2294.041504,966.510986,2294.038086,966.036255C2294.034668,965.561523,2293.725342,964.458862,2293.351074,963.585815C2292.763916,962.217102,2292.638672,961.41571,2292.441895,957.765747C2292.316406,955.437683,2292.283203,953.138123,2292.368164,952.655518C2292.484131,951.996826,2292.923584,951.444458,2294.131104,950.439453L2295.739746,949.10083L2297.868164,949.278259C2299.814209,949.440491,2300.257568,949.595825,2303.039063,951.089844C2304.712402,951.988647,2306.914795,953.129822,2307.93335,953.625793C2308.985596,954.138184,2310.503174,955.19812,2311.448242,956.080505C2313.242188,957.755554,2313.92627,957.969299,2314.513428,957.038208C2315.682129,955.184875,2315.113281,954.366028,2312.468262,954.095093C2310.231445,953.865845,2309.535645,953.595337,2308.290771,952.470581C2307.057373,951.356445,2301.889404,948.766663,2299.839355,948.235413C2296.653564,947.409912,2294.541748,947.928772,2292.284424,950.091553L2291.134277,951.193542L2291.134277,955.564514C2291.134277,957.968506,2291.241699,960.28064,2291.373047,960.702454C2291.504395,961.124268,2291.927979,962.859253,2292.314453,964.557983C2292.926514,967.247803,2292.977295,967.794189,2292.706543,968.790771C2292.535645,969.420105,2292.394775,970.196838,2292.393311,970.516724C2292.390381,971.261108,2293.731689,973.567505,2294.05249,973.369263C2294.186035,973.286743,2294.469727,972.631104,2294.68335,971.912354M2379.614502,883.130493C2379.850098,883.0401,2380.225586,882.612671,2380.448975,882.180542C2380.819824,881.46344,2380.815918,881.351318,2380.40332,880.895386C2380.154785,880.620667,2379.282959,880.148682,2378.466064,879.846558C2377.64917,879.544434,2375.849854,878.779419,2374.467773,878.146484C2368.845703,875.572144,2365.203857,874.027527,2362.695068,873.153198C2361.240234,872.646057,2358.952881,871.803833,2357.612549,871.281494C2356.272217,870.759216,2354.937012,870.331909,2354.645752,870.331909C2353.876953,870.331909,2353.515625,871.160461,2353.857178,872.140137C2354.203613,873.133789,2354.850586,873.568726,2356.844238,874.147827C2357.700195,874.396484,2359.009766,874.935791,2359.75415,875.346191C2360.689941,875.862,2361.669922,876.145874,2362.927734,876.265381C2364.938477,876.456421,2365.852295,876.841736,2367.513428,878.199036C2368.249023,878.800171,2369.23999,879.267212,2370.428223,879.572815C2372.540527,880.116089,2372.946289,880.316711,2375.368896,882.014404C2377.185547,883.287476,2378.384277,883.6026,2379.614502,883.130493M2255.360352,956.397278C2256.127686,955.912354,2257.931396,954.925354,2259.368896,954.204102C2260.806152,953.482788,2262.552734,952.530762,2263.250244,952.08844C2263.947754,951.646118,2264.748047,951.284241,2265.028809,951.284241C2265.309326,951.284241,2266.20874,950.994507,2267.0271,950.640381C2267.845703,950.286255,2269.348633,949.807007,2270.367188,949.575439C2274.327148,948.675171,2274.421143,948.631531,2276.533203,946.709961C2277.652344,945.69165,2279.397217,944.309753,2280.4104,943.639099C2282.601563,942.188782,2283.043457,941.282776,2282.310303,939.745056C2281.605957,938.268066,2280.80249,938.55603,2278.711914,941.034973C2276.770752,943.336365,2274.601563,945.079102,2272.167969,946.292419C2270.602783,947.072754,2270.434326,947.100769,2268.394287,946.920166C2265.542236,946.667725,2264.943848,947.012695,2264.943848,948.909424C2264.943848,949.873291,2264.802002,950.367798,2264.414795,950.755127C2263.733398,951.436523,2263.506592,951.422424,2262.124756,950.612671C2260.694092,949.774231,2260.458008,949.876465,2257.907471,952.439697C2256.875,953.477478,2255.356934,954.972107,2254.534424,955.761108C2252.315674,957.889587,2252.623535,958.126831,2255.360352,956.397278M2441.973389,885.502502C2442.635254,884.903564,2442.620117,883.193298,2441.947021,882.520264C2441.665039,882.238281,2440.925781,881.953003,2440.293701,881.882202C2436.369141,881.442749,2432.140381,880.809204,2431.157959,880.51355C2429.574219,880.036926,2427.408203,878.595337,2426.815674,877.62384C2426.26001,876.712708,2426.160156,874.836548,2426.619873,873.952026C2426.785156,873.634216,2427.552979,872.704895,2428.325928,871.886841C2429.099121,871.068848,2429.811279,870.082275,2429.908447,869.69458C2430.248779,868.339233,2429.456787,866.363647,2428.573242,866.363647C2428.403076,866.363647,2428.015137,866.63147,2427.711182,866.958862C2426.999512,867.72583,2422.615723,876.572571,2422.615723,877.241821C2422.615723,877.55127,2423.105469,878.084473,2423.867676,878.604492C2424.556152,879.074402,2425.776367,880.068665,2426.579346,880.814026C2428.786621,882.862915,2429.22168,883.034668,2433.859375,883.685669C2436.196533,884.013733,2437.016113,884.255432,2438.332275,885.004639C2440.108154,886.015442,2441.236084,886.169678,2441.973389,885.502502M2353.446533,892.478577C2353.743652,892.30188,2354.887695,891.40979,2355.989258,890.496216C2358.354248,888.53479,2359.011963,887.348267,2358.949951,885.156128C2358.862061,882.043457,2358.447021,878.594238,2358.111816,878.191162C2357.918945,877.959229,2356.825928,877.458008,2355.682617,877.077271C2353.302734,876.284668,2351.657715,875.201172,2351.049805,874.025818C2350.721924,873.391479,2350.668945,872.806763,2350.810059,871.375305L2350.990967,869.538696L2349.83252,869.03302C2347.792969,868.142822,2346.077637,867.737793,2345.405029,867.987671C2344.453857,868.341064,2344.860107,869.348328,2346.774414,871.383484C2348.203613,872.902649,2348.502197,873.409241,2349.14502,875.404724C2349.549561,876.6604,2350.05542,877.833008,2350.269287,878.010376C2350.48291,878.187744,2351.457764,878.50061,2352.435303,878.705505C2354.157715,879.066589,2355.158936,879.678101,2355.714355,880.708374C2356.250244,881.702393,2356.470459,883.834351,2356.177979,885.197998C2355.920654,886.398193,2355.635742,886.79718,2353.669678,888.710815C2351.855957,890.476196,2351.451904,891.015015,2351.451904,891.667725C2351.451904,892.10675,2351.53125,892.545288,2351.628174,892.642273C2351.903564,892.917786,2352.852295,892.832397,2353.446533,892.478577M2269.902588,967.355713C2270.046631,967.173828,2270.430908,966.21283,2270.756592,965.220154C2271.73584,962.236206,2272.872803,961.501465,2279.047607,959.862427C2280.759277,959.408081,2281.512695,958.871948,2281.692627,957.980286C2281.775146,957.571289,2281.728027,955.781494,2281.587891,954.002991C2281.376953,951.326599,2281.400146,950.608276,2281.723389,949.834656C2282.338867,948.361877,2283.137207,948.208374,2285.789307,949.052979C2287.577637,949.622375,2288.132324,949.703247,2288.645508,949.46936C2289.409668,949.121216,2289.498291,948.122131,2288.81958,947.50885C2288.030029,946.795471,2284.959473,945.4646,2284.103027,945.464355C2283.180176,945.464111,2281.479248,946.507385,2279.497559,948.289185C2277.971436,949.661072,2277.862305,950.216187,2278.700439,952.342468C2279.481201,954.323425,2279.4021,955.566772,2278.424072,956.680786C2277.541016,957.686401,2275.33252,958.569092,2273.012695,958.843506C2270.736328,959.112793,2270.319336,959.387817,2269.474121,961.176392C2268.328369,963.601501,2267.324707,966.040894,2267.324707,966.40094C2267.324707,967.404541,2269.28833,968.131836,2269.902588,967.355713M2440.513428,920.035034C2441.979248,919.300171,2442.584961,918.537964,2443.016113,916.886475C2443.356689,915.581848,2443.176025,915.034424,2441.403564,911.998535C2439.878906,909.387207,2440.158691,907.516541,2442.299805,906.007324C2443.766602,904.97345,2444.171143,904.155029,2444.595947,901.360962C2444.861328,899.617188,2444.860107,898.574097,2444.589844,896.069946C2443.85498,889.259155,2443.599365,888.491821,2442.11499,888.636414C2440.844482,888.760132,2440.657959,889.618774,2441.249268,892.620667C2441.895264,895.900024,2442.091064,900.153564,2441.666016,901.671448C2441.455566,902.423584,2440.721924,903.591675,2439.650635,904.880127C2436.850098,908.248535,2436.868896,909.352783,2439.813965,914.507629C2440.10376,915.014648,2440.340576,915.623596,2440.340576,915.86084C2440.340576,916.61908,2439.287598,917.663635,2438.192139,917.991821C2437.23877,918.277466,2436.10791,919.269165,2436.10791,919.81958C2436.10791,919.935059,2436.308105,920.229675,2436.552734,920.474243C2437.141846,921.063477,2438.836914,920.875488,2440.513428,920.035034M2465.022705,876.772644C2465.488037,876.531982,2466.702393,876.062622,2467.721191,875.729614C2468.73999,875.396606,2471.299805,874.515259,2473.409424,873.771118C2480.527832,871.260254,2481.925781,870.843262,2484.973633,870.322266C2490.645752,869.352539,2492.834229,869.723328,2493.509277,871.768433C2494.081299,873.50177,2494.633301,873.495117,2498.574707,871.707764C2500.420166,870.870728,2501.907959,869.360718,2501.621582,868.61499C2501.428223,868.110779,2500.941162,868.113953,2498.41748,868.635864C2496.190186,869.096497,2495.678955,869.032715,2493.559082,868.029907C2492.327637,867.447266,2491.925537,867.380066,2490.640381,867.542053C2489.820801,867.645325,2487.483643,867.819214,2485.446533,867.928345C2483.081299,868.055115,2481.397461,868.27594,2480.787109,868.539307C2480.26123,868.766174,2478.783691,869.209717,2477.503418,869.524902C2476.2229,869.840088,2474.487305,870.377625,2473.645996,870.719421C2472.804688,871.061218,2471.261475,871.5354,2470.216064,871.773132C2469.170898,872.010864,2467.64624,872.483948,2466.828125,872.824402C2466.01001,873.164917,2464.677002,873.633423,2463.866211,873.865662C2461.452881,874.556519,2460.838135,875.893433,2462.514893,876.803833C2463.446533,877.309631,2463.997314,877.302795,2465.022705,876.772644M2315.155518,937.685059C2316.25415,937.113342,2316.924316,936.26062,2318.088135,933.952881C2319.178711,931.790405,2320.102051,930.913879,2321.289551,930.913879C2321.606445,930.913879,2322.679443,931.270996,2323.674072,931.70752C2326.763672,933.063599,2330.977783,932.710144,2331.612305,931.041748C2331.991211,930.044922,2331.935303,927.602051,2331.510254,926.584717C2330.988037,925.3349,2330.076172,924.726013,2327.543945,923.936523C2324.805664,923.082764,2323.674072,922.022217,2323.674072,920.309509C2323.674072,918.973267,2324.13501,918.090271,2325.50415,916.80426C2327.362305,915.05896,2326.651367,913.667664,2324.184814,914.221924C2322.727051,914.549438,2321.894775,915.157349,2321.717529,916.023987C2321.006348,919.503235,2320.95874,922.290344,2321.582275,923.958618C2321.863281,924.710266,2323.325928,925.447632,2326.171143,926.272156C2329.023438,927.098755,2329.447266,927.328735,2329.656738,928.163269C2330.052246,929.73877,2328.619141,930.799194,2327.000488,930.128784C2319.540771,927.039246,2318.417725,927.110962,2317.060303,930.763123C2316.234131,932.985535,2315.563965,933.683044,2313.746338,934.211426C2312.917725,934.452332,2312.196533,934.842651,2312.040039,935.134827C2311.637939,935.886414,2311.711914,937.16803,2312.185059,937.640991C2312.700928,938.157043,2314.205322,938.179321,2315.155518,937.685059M2390.97998,921.881104C2391.345459,921.7146,2391.923828,921.14917,2392.265381,920.624451C2394.429199,917.301636,2395.062012,916.476501,2396.350098,915.299316C2398.159912,913.645264,2400.03418,913.00708,2401.76709,913.454956C2402.394043,913.616943,2404.056641,914.529663,2405.461914,915.483154C2408.904785,917.819336,2409.762451,917.934021,2411.757568,916.325256C2412.543457,915.691589,2413.730713,914.752441,2414.395752,914.238281C2415.890625,913.082825,2416.096436,912.186951,2415.055176,911.367859C2413.789551,910.372375,2413.309082,910.612061,2410.939941,913.420837C2409.621582,914.983643,2407.817383,914.475586,2404.836182,911.702026L2403.59082,910.543518L2400.818115,910.543518L2398.04541,910.543518L2395.846436,912.213501C2394.160645,913.493774,2393.297363,914.399841,2392.146484,916.096802C2390.354004,918.739746,2389.231689,919.535706,2387.29834,919.535156C2385.476563,919.534607,2384.572021,918.874329,2383.594727,916.831665C2382.902344,915.384827,2382.697754,915.163086,2381.99292,915.094116C2380.364746,914.934814,2380.108154,917.091736,2381.477051,919.427979C2381.85498,920.072754,2382.434082,920.7771,2382.763672,920.993103C2384.202637,921.936035,2389.583252,922.517517,2390.97998,921.881104M2435.487061,916.239441C2436.401123,915.599182,2436.378906,914.91925,2435.376953,912.867554C2434.559326,911.192932,2434.43457,910.680298,2434.425293,908.956177C2434.413086,906.692993,2434.812012,905.723694,2436.656738,903.532959C2438.713135,901.090637,2439.067383,899.575317,2438.480469,895.728699C2438.335938,894.782959,2438.110107,892.838867,2437.978271,891.408508C2437.636963,887.703369,2437.187988,887.319275,2432.352295,886.595215C2427.599121,885.883484,2426.848145,885.516846,2423.454834,882.250793C2422.388672,881.224487,2421.367676,880.384766,2421.186279,880.384766C2421.004639,880.384766,2420.574951,880.684143,2420.231201,881.050049C2419.763428,881.548035,2419.602051,882.030151,2419.589844,882.967651L2419.573486,884.219971L2420.763916,884.566956C2422.803711,885.161621,2423.542725,885.582458,2425.154541,887.067383C2427.28125,889.026733,2427.47998,889.106445,2429.798828,888.93103C2431.036865,888.837402,2432.14917,888.89978,2432.744141,889.096191C2433.953125,889.495239,2435.207031,890.90918,2435.580078,892.294067C2435.914063,893.534546,2435.688232,899.587097,2435.255127,901.000916C2435.091064,901.537231,2434.275635,902.596191,2433.260498,903.59137L2431.543945,905.274658L2431.708008,907.446106C2431.79834,908.640442,2431.938965,910.689026,2432.020752,911.998535C2432.225098,915.268921,2432.299561,915.514038,2433.270996,916.106323C2434.291748,916.728577,2434.749268,916.756104,2435.487061,916.239441M2335.408936,835.624878C2335.607666,835.307129,2335.596191,834.533936,2335.368896,832.96228C2335.191406,831.735229,2335.106201,829.516235,2335.17749,827.986755C2335.248291,826.468384,2335.369141,822.990723,2335.445801,820.258667L2335.585205,815.29126L2333.883057,813.478943C2331.83667,811.300049,2331.391113,810.087463,2330.553467,804.417664C2329.880615,799.864075,2329.62085,798.803284,2329.034668,798.217102C2328.016846,797.199341,2326.82666,796.967285,2321.689941,796.784729C2316.631592,796.605042,2315.665527,796.697266,2315.401611,797.385193C2315.178955,797.965271,2315.934814,799.278625,2316.778076,799.776672C2317.777832,800.36731,2318.778564,800.336182,2320.234863,799.669128C2322.817627,798.486084,2326.314941,799.270874,2327.432129,801.284241C2327.856445,802.048767,2327.922363,802.553589,2327.810547,804.180237C2327.699951,805.789856,2327.785645,806.467529,2328.279541,807.883972C2328.611816,808.837463,2328.966309,810.059631,2329.066895,810.599976C2329.18042,811.209778,2329.709473,812.112732,2330.461914,812.980896C2331.860107,814.594543,2332.555664,815.999573,2332.79126,817.686401C2332.941406,818.761108,2332.566162,829.131775,2332.229248,833.217773C2332.104736,834.725403,2332.150391,834.91687,2332.782471,835.549011C2333.57251,836.33905,2334.937256,836.378418,2335.408936,835.624878M2394.223633,927.647339C2395.450928,927.00647,2396.341309,925.86084,2397.106445,923.937622C2397.509521,922.925171,2398.262451,921.665405,2398.806152,921.093689C2399.65918,920.197083,2399.933594,920.067322,2400.977783,920.067322C2401.999756,920.067322,2402.437256,920.262451,2403.995117,921.41333C2406.86499,923.533691,2408.481934,923.990417,2411.35083,923.490845C2413.488037,923.118652,2414.385742,922.558533,2415.702881,920.775452C2417.193604,918.757629,2418.571289,918.125,2421.394775,918.161682C2424.566162,918.202881,2425.619629,917.227051,2424.073242,915.680542C2423.435791,915.043091,2423.333984,915.027283,2420.964844,915.197693C2419.617432,915.294617,2418.158203,915.519592,2417.72168,915.697632C2417.285156,915.875732,2415.975586,916.890076,2414.811523,917.951782C2410.787842,921.621704,2409.140137,921.727966,2404.510986,918.615967C2401.787109,916.784851,2400.967041,916.485229,2399.764648,916.882019C2398.550537,917.282715,2396.82373,919.183838,2395.223633,921.881348C2393.411133,924.936951,2392.975586,925.204407,2389.631836,925.315735C2387.547363,925.385132,2386.444824,925.280518,2384.753418,924.852783C2382.004883,924.157715,2381.496094,924.161133,2380.827148,924.879089C2379.901611,925.872559,2380.281982,927.392151,2381.551025,927.770874C2381.736328,927.826294,2384.495605,927.908875,2387.682617,927.954468C2392.393555,928.021851,2393.616455,927.964417,2394.223633,927.647339M2407.602539,900.825806C2408.067139,900.407104,2408.208008,899.318115,2407.901123,898.518311C2407.584473,897.693115,2406.384277,897.342163,2403.937988,897.359619C2400.987061,897.380737,2399.888916,896.977234,2396.12915,894.490784C2392.68457,892.212769,2387.822021,890.062317,2386.087402,890.049683C2385.130859,890.042725,2384.66748,890.207642,2383.883057,890.834534C2380.302979,893.695923,2379.436523,893.76355,2373.891846,891.614441C2368.320313,889.454956,2368.128418,889.359985,2366.554443,887.983215C2364.991211,886.615906,2364.440186,886.384399,2363.064209,886.516113C2362.395264,886.580139,2362.083008,886.783813,2361.825195,887.324158C2361.320801,888.381958,2361.783936,889.019836,2363.707275,889.916626C2364.605713,890.335449,2366.026367,891.118652,2366.864258,891.657104C2367.775635,892.242554,2370.168213,893.245239,2372.81665,894.151733C2375.252441,894.985352,2377.784912,895.879211,2378.444092,896.138062C2379.98291,896.74231,2380.65918,896.562378,2382.507813,895.056396C2384.978027,893.044189,2386.312744,892.709961,2388.675537,893.512146C2390.463379,894.119141,2394.898682,896.705383,2396.514893,898.083374C2398.239258,899.553528,2399.08667,899.898987,2400.994629,899.909668C2402.15918,899.916138,2402.912598,900.11261,2404.169189,900.737549C2405.903564,901.599976,2406.720215,901.620972,2407.602539,900.825806M2361.068115,924.608643C2361.30957,924.341858,2361.691895,923.501404,2361.917725,922.741089C2362.143555,921.980713,2362.720947,920.919189,2363.200928,920.382263C2364.452148,918.982727,2364.627441,918.543457,2364.831055,916.298218C2365.010742,914.314453,2365.000244,914.266968,2363.99585,912.482605C2363.161621,911.000854,2362.977783,910.413635,2362.973633,909.218628C2362.967041,907.314514,2363.657471,906.107117,2365.214355,905.299805C2366.903809,904.423828,2368.304443,904.638916,2372.615723,906.436401C2376.898193,908.22168,2378.041748,908.868958,2379.920654,910.570435C2382.111328,912.554382,2382.310059,912.495239,2386.114014,908.728638C2388.753906,906.114563,2389.282471,905.45929,2389.282471,904.801392C2389.282471,904.367065,2389.074219,903.832825,2388.81958,903.614136C2387.407227,902.401123,2386.205078,902.981384,2385.019531,905.448547C2383.337891,908.948059,2382.339355,909.257813,2379.813477,907.063599C2377.464355,905.022949,2368.865479,901.813354,2365.747559,901.813354C2364.546387,901.813354,2364.688477,901.698792,2361.650146,905.115845C2359.452148,907.58783,2359.419434,907.818054,2360.780762,911.204895C2362.571533,915.659424,2362.372559,917.455505,2359.764893,920.378052C2358.2229,922.106018,2357.936768,922.692871,2358.174316,923.639343C2358.526611,925.042786,2360.175293,925.595093,2361.068115,924.608643M2448.105713,854.3927C2448.309082,854.065369,2448.615234,853.216003,2448.785889,852.50531C2449.213379,850.72644,2449.850586,849.542969,2452.36377,845.860962C2454.100342,843.316528,2454.730469,842.112427,2455.538574,839.794922C2456.502686,837.030151,2456.539063,836.804077,2456.368896,834.636169C2456.270996,833.38916,2456.133301,829.809387,2456.062744,826.681091C2455.974365,822.758423,2455.763916,819.925903,2455.384766,817.554077C2454.918945,814.639587,2454.861084,813.464111,2455.006104,809.848572L2455.177246,805.582214L2453.873291,803.102539C2452.499756,800.490173,2451.907715,799.987854,2450.592285,800.318054C2449.288086,800.645386,2449.458496,801.427063,2451.71875,805.48114C2452.626709,807.109436,2452.717285,808.29425,2452.096924,810.427734C2451.709961,811.759094,2451.719971,812.061096,2452.255127,815.230347C2452.569336,817.090454,2452.998535,819.445618,2453.209229,820.464172C2453.752197,823.08905,2454.012695,834.580933,2453.579102,836.789368C2453.096436,839.248779,2452.198242,841.248657,2450.169189,844.381348C2449.170898,845.922668,2448.019775,847.762817,2447.611328,848.470642C2447.202881,849.178406,2446.292725,850.333496,2445.588867,851.037415C2444.884766,851.741333,2444.308838,852.55249,2444.308838,852.840088C2444.308838,853.483398,2444.952637,854.152832,2446.01709,854.616516C2447.177246,855.121948,2447.686523,855.067444,2448.105713,854.3927M2414.395508,901.380859C2415.103516,900.480713,2415.091553,900.307983,2414.171387,898.178101C2413.746338,897.194702,2413.240479,895.858826,2413.046875,895.209473C2412.727051,894.135925,2412.491943,893.901733,2410.452637,892.625916L2408.209961,891.2229L2405.556885,891.293274L2402.904053,891.363647L2400.127686,889.940369C2398.600586,889.157593,2396.807617,888.131714,2396.143066,887.660767C2394.349365,886.389465,2393.912598,886.196838,2391.5625,885.641418C2390.044189,885.282593,2388.780029,884.747986,2387.249268,883.817505C2385.876221,882.982788,2384.781982,882.501221,2384.258545,882.501221C2383.517578,882.501221,2383.370361,882.643005,2382.817383,883.890076C2382.095215,885.518738,2381.584717,886.018799,2380.185303,886.468506C2378.202393,887.105774,2375.893066,886.455627,2373.110352,884.476746C2371.359375,883.231628,2370.307617,882.732422,2369.379395,882.706055C2367.98291,882.666321,2367.365234,884.225952,2368.316895,885.389771C2368.781494,885.957947,2376.523926,889.414429,2378.114502,889.763794C2379.331787,890.031189,2380.659668,889.503418,2382.190674,888.143677C2383.68335,886.818054,2384.416504,886.469421,2385.711914,886.469421C2387.217773,886.469421,2393.945557,889.399292,2397.385742,891.553101C2399.112793,892.634399,2400.930664,893.65918,2401.425049,893.830261C2401.919678,894.001404,2403.348389,894.14209,2404.599609,894.142883C2407.387207,894.144653,2408.602539,894.461426,2409.776123,895.491821C2410.897949,896.476746,2411.275146,897.578369,2411.193848,899.633484C2411.116943,901.580566,2411.452148,902.077881,2412.840576,902.077881C2413.613037,902.077881,2413.974854,901.91571,2414.395508,901.380859M2337.695068,897.845093C2338.390137,897.150208,2338.373291,897.000244,2337.37085,894.955933C2336.711182,893.610718,2336.494629,892.784485,2336.416992,891.317505C2336.287598,888.87146,2336.701904,887.637207,2338.884033,883.968994C2339.826904,882.383972,2340.669189,880.710266,2340.755615,880.249634C2340.964111,879.137329,2340.436279,877.973206,2338.817627,875.976807C2338.09082,875.0802,2337.130615,873.711121,2336.684082,872.934448C2336.237549,872.157837,2335.132324,870.691711,2334.228271,869.676453C2332.333008,867.54834,2331.51123,865.920227,2330.891846,863.066284C2330.515137,861.330566,2330.49707,860.721497,2330.766357,858.858459C2331.186768,855.952148,2331.15918,853.319641,2330.690186,851.557556C2330.081299,849.268921,2329.669434,848.895447,2327.020508,848.230286C2324.825684,847.679138,2324.677246,847.672546,2324.145996,848.102722C2323.494141,848.630493,2323.37793,850.140991,2323.960693,850.509827C2324.166748,850.64032,2324.666504,850.748901,2325.071289,850.751099C2326.15625,850.75708,2327.541748,851.414063,2328.025146,852.151672C2328.258301,852.507507,2328.518555,853.559143,2328.60376,854.488586C2328.727539,855.842407,2328.642822,856.49408,2328.17749,857.765747C2327.21875,860.38501,2327.22998,860.742554,2328.374268,864.021667C2328.950684,865.673462,2329.568848,867.648132,2329.748047,868.409668C2330.0271,869.594971,2330.294434,869.985413,2331.60498,871.120667C2332.726074,872.09198,2333.292725,872.833801,2333.722656,873.892578C2334.126953,874.889221,2334.679932,875.641968,2335.502441,876.315918C2336.954346,877.505554,2337.692871,878.660339,2337.694092,879.742432C2337.696045,881.222656,2336.878906,883.012329,2335.525146,884.49353C2334.108398,886.043701,2334.246338,885.605469,2333.558594,890.749207C2333.404297,891.903076,2333.535156,892.675171,2334.546143,896.578918C2334.979492,898.252197,2336.625977,898.914246,2337.695068,897.845093M2348.473633,896.886719C2349.361328,896.211182,2349.776367,895.247192,2349.495117,894.514221C2349.355469,894.150513,2348.990723,894.117859,2346.857422,894.277832C2344.080566,894.485962,2343.488281,894.309937,2342.856689,893.088501C2342.393555,892.193176,2342.338623,890.213745,2342.736572,888.780151C2342.888916,888.232239,2343.647705,886.857727,2344.422852,885.725708C2346.292236,882.996399,2347.218262,881.122925,2347.222412,880.062866C2347.224121,879.585144,2346.837158,878.186157,2346.362549,876.953979C2345.696045,875.224182,2345.161865,874.350098,2344.017578,873.118042C2342.161133,871.119019,2341.928955,870.672424,2341.923828,869.092651C2341.918945,867.516724,2341.776855,867.288025,2340.463623,866.740479C2338.945557,866.107483,2338.014648,865.380188,2337.499268,864.424805C2337.135254,863.749695,2337.000732,862.423401,2336.811035,857.633484C2336.681396,854.359619,2336.55957,850.431091,2336.540039,848.90332C2336.520508,847.375549,2336.408447,845.976685,2336.290771,845.794861C2335.743164,844.949036,2333.449707,845.804443,2332.935547,847.046265C2332.700928,847.612488,2332.780762,848.059021,2333.387207,849.575195C2334.122314,851.41272,2334.123535,851.428345,2334.063965,857.177307C2333.990234,864.265076,2334.13916,864.820984,2336.910889,867.810303C2337.910156,868.888184,2339.026123,870.358398,2339.390381,871.077515C2339.754883,871.796631,2340.756104,873.321838,2341.615723,874.466919C2343.736328,877.292053,2344.14624,878.148865,2344.131592,879.726563C2344.118164,881.192017,2343.66748,882.22522,2341.746826,885.194214C2339.490723,888.68158,2339.110352,890.525879,2340.077148,893.288208C2340.853027,895.505432,2341.334229,896.015015,2343.266846,896.666077C2344.203857,896.981689,2345.267822,897.371094,2345.631592,897.531433C2346.487061,897.908508,2347.404053,897.7005,2348.473633,896.886719M2308.131592,940.12085C2308.48877,939.707764,2308.594727,939.10498,2308.594727,937.483215C2308.594727,936.327026,2308.722656,934.872192,2308.879395,934.250366C2309.14624,933.190552,2309.087158,932.938782,2307.936768,930.231079C2307.261719,928.642334,2306.253418,926.568665,2305.695801,925.622864C2304.445557,923.502502,2304.003174,921.942017,2304.243164,920.500488C2304.718018,917.647278,2306.774902,915.598145,2309.207031,915.555054C2310.765137,915.527405,2311.738525,914.974365,2312.635254,913.607178C2314.240967,911.158875,2315.734619,910.648743,2318.587158,911.574219C2320.240967,912.110718,2320.251953,912.11084,2321.894043,911.595947C2322.800293,911.31189,2324.236084,911.077881,2325.084717,911.07605C2326.202393,911.073547,2327.11377,910.860474,2328.391602,910.302917C2329.361816,909.879578,2330.642578,909.403931,2331.237793,909.24585C2331.833008,909.087769,2332.50708,908.749634,2332.735352,908.494385C2333.298828,907.864563,2335.071777,901.922852,2334.86792,901.347656C2334.570801,900.509338,2333.918701,899.961426,2333.2229,899.965576C2331.938477,899.973145,2331.75293,900.302856,2331.598633,902.853149C2331.437744,905.51416,2331.073242,906.156128,2329.169189,907.132568C2326.857666,908.317932,2321.688721,909.088623,2318.625732,908.70459C2316.186279,908.398682,2313.391357,908.703552,2312.339111,909.390259C2311.997803,909.613037,2311.521729,910.161011,2311.281006,910.608032C2310.224365,912.570068,2309.661133,912.952271,2307.461426,913.198975C2306.334473,913.325317,2305.169189,913.599182,2304.871826,913.807617C2303.933105,914.465088,2303.101318,915.817627,2302.102295,918.311707C2301.33374,920.230225,2301.159912,920.974243,2301.259033,921.919189C2301.446777,923.705933,2302.358643,925.832336,2303.698242,927.606995C2305.956299,930.598022,2306.60083,934.661316,2305.270752,937.518677C2304.453369,939.27478,2304.579834,940.063965,2305.76001,940.574097C2306.756348,941.004822,2307.488281,940.86499,2308.131592,940.12085M2291.616943,920.762695C2292.081055,920.29895,2292.29126,919.676025,2292.473633,918.223206C2292.64917,916.825073,2293.078125,915.507629,2294.04126,913.409424C2294.770508,911.820618,2295.367188,910.418762,2295.367188,910.294128C2295.367188,910.169556,2295.799316,909.430603,2296.327637,908.6521C2297.603271,906.7724,2298.012695,905.753723,2298.012695,904.458862C2298.012695,902.849854,2298.568359,901.814697,2300.16333,900.453003C2301.348877,899.440674,2301.6875,898.952454,2302.089844,897.675171C2303.073486,894.551758,2306.531738,886.052368,2307.147461,885.245117C2307.496094,884.787964,2308.304443,884.083069,2308.943848,883.67865C2309.583008,883.27417,2310.51001,882.349976,2311.003906,881.624939C2311.497559,880.899841,2312.538818,879.835205,2313.317627,879.259094C2314.407959,878.452515,2314.881348,877.868347,2315.376709,876.718872C2316.47168,874.177612,2316.616699,873.955261,2318.315674,872.211304C2320.49585,869.973267,2320.968018,868.215027,2319.761475,866.826599C2318.84668,865.773865,2318.058838,866.368225,2316.868652,869.009155C2316.176025,870.545654,2311.900635,876.50293,2309.600586,879.13623C2309.120117,879.686218,2308.072266,880.585938,2307.271973,881.13562C2305.994385,882.012939,2305.615967,882.504456,2304.171387,885.161987C2303.266357,886.826843,2302.345215,888.784241,2302.124756,889.51178C2301.904053,890.239258,2301.156494,892.256714,2300.463379,893.994995C2299.433105,896.57843,2298.948486,897.431458,2297.808105,898.666748C2296.557373,900.021362,2296.31543,900.488647,2295.472168,903.178162C2294.903076,904.993103,2293.968994,907.171326,2293.107666,908.69165C2292.279785,910.153137,2291.39917,912.1875,2291.003906,913.552917C2290.224609,916.243042,2290.042969,916.631836,2288.885498,918.083191C2287.821777,919.417114,2287.624512,919.970276,2287.978027,920.630493C2288.598633,921.790039,2290.519287,921.859802,2291.616943,920.762695M2436.817627,927.741028C2437.828857,926.816895,2438.690186,926.295898,2439.68457,926.006836C2441.768555,925.40094,2442.841309,925.684082,2444.389648,927.248474C2445.088867,927.954956,2445.828613,928.532959,2446.033447,928.532959C2446.708984,928.532959,2449.192139,927.44519,2449.790283,926.887207C2450.325439,926.387939,2451.761963,924.464233,2455.646973,919.0448C2457.841064,915.983826,2457.84375,915.954163,2456.074707,914.384033L2454.579346,913.056763L2454.362793,911.083313C2454.147705,909.121948,2454.137207,909.101257,2452.644531,907.689636C2451.14502,906.271484,2450.145752,904.590576,2450.134766,903.467834C2450.131592,903.141052,2450.381104,902.145569,2450.688965,901.255615C2451.283691,899.537476,2451.263184,898.883362,2450.532715,896.266296C2450.291016,895.399963,2450.126221,893.702148,2450.122314,892.033447C2450.115723,889.312988,2450.09375,889.213257,2449.198975,887.808716C2448.034668,885.980957,2447.874268,885.084412,2448.371338,883.180847C2448.879883,881.233643,2448.712646,880.788147,2446.63623,878.556213C2444.252197,875.993774,2443.952637,875.827454,2442.043701,876.006287C2440.978516,876.106079,2440.001221,876.023438,2439.133789,875.760315C2438.415283,875.542358,2436.925293,875.362793,2435.82251,875.361206C2434.028809,875.358643,2433.688232,875.272583,2432.588379,874.544067C2431.187012,873.615845,2430.685547,873.622559,2429.971924,874.579163C2429.561768,875.12915,2429.519531,875.390503,2429.744629,875.982422C2430.259766,877.337402,2432.580078,877.957214,2439.275879,878.52832C2442.833984,878.831787,2444.340088,879.442688,2445.157959,880.913879C2445.593994,881.69812,2445.652344,882.191162,2445.53833,884.135254C2445.408936,886.34552,2445.437744,886.498108,2446.311035,888.249146C2447.088135,889.806885,2447.258789,890.501892,2447.500977,893.096558C2448.064697,899.136536,2448.0896,900.796204,2447.642334,902.512939C2447.409424,903.406921,2447.218994,904.387817,2447.218994,904.692627C2447.218994,904.997498,2447.822266,905.912964,2448.55957,906.727112C2449.45166,907.712402,2450.468994,909.360901,2451.601807,911.657654C2454.070801,916.663452,2453.990723,917.239136,2450.094482,922.494812C2448.461426,924.697693,2447.93042,925.09375,2446.610352,925.09375C2445.777588,925.09375,2445.393066,924.900635,2444.517334,924.042175C2443.927246,923.463806,2443.219727,922.91925,2442.945068,922.832031C2442.67041,922.744873,2441.704102,922.918457,2440.797852,923.217773C2439.891602,923.51709,2438.362305,923.871826,2437.399414,924.006104C2434.351318,924.431274,2433.282715,925.332031,2433.54126,927.258667C2433.835938,929.457214,2434.786865,929.597168,2436.817627,927.741028M2416.795654,941.678345C2418.614502,941.46051,2421.9375,941.135986,2424.180176,940.957153L2428.258057,940.631958L2431.190918,939.214539C2432.803955,938.434937,2434.267578,937.795959,2434.443359,937.794617C2434.618896,937.793274,2435.696777,936.918823,2436.838135,935.85144C2437.979492,934.783997,2439.821045,933.298157,2440.93042,932.549561C2442.039795,931.801025,2443.030762,930.925781,2443.132568,930.604675C2443.388672,929.797791,2442.434326,929.062012,2441.131592,929.062012C2440.277832,929.062012,2439.870361,929.296875,2438.37793,930.649353C2437.414551,931.522339,2436.511963,932.236633,2436.37207,932.236633C2436.232178,932.236633,2435.312012,932.988464,2434.327148,933.907349C2432.204102,935.888184,2431.3479,936.431458,2428.641846,937.515015C2426.768555,938.265137,2426.368652,938.328125,2423.619141,938.306152C2421.976074,938.29303,2420.095947,938.402283,2419.441162,938.54895C2417.252441,939.039124,2411.49585,939.164551,2406.875,938.822693C2404.401611,938.639648,2401.320068,938.515808,2400.027588,938.547424C2398.366943,938.588074,2397.280518,938.470459,2396.323975,938.146484C2395.382813,937.827759,2394.310303,937.707947,2392.804199,937.753418C2391.612793,937.789368,2389.665283,937.634277,2388.476074,937.408691C2387.286865,937.183105,2385.702148,936.994263,2384.954346,936.989136C2384.206543,936.983948,2382.939941,936.823181,2382.139648,936.631897C2381.259033,936.421387,2379.839844,936.33313,2378.545166,936.408264C2376.761719,936.51178,2376.195313,936.439209,2375.138672,935.971802C2373.635254,935.306763,2372.887695,935.278198,2370.853516,935.808044C2365.712646,937.147095,2363.39917,935.011475,2364.405762,929.855713C2364.689697,928.400696,2364.314697,927.459595,2363.310303,927.106323C2362.776123,926.918457,2362.437744,926.966797,2361.922119,927.304688C2361.101807,927.842041,2361.046631,928.711914,2361.636963,931.796936C2361.855225,932.937378,2362.033691,934.684814,2362.033691,935.680176C2362.033691,936.931091,2362.155518,937.611633,2362.428223,937.884277C2363.120117,938.576111,2367.712646,938.889221,2371.160889,938.479614C2372.742188,938.291748,2373.418213,938.359131,2375.790527,938.941223C2377.845215,939.445435,2378.94751,939.583252,2380.025391,939.470764C2381.536865,939.312988,2388.190674,939.96936,2389.809814,940.435913C2390.318115,940.582397,2391.627686,940.703613,2392.719971,940.705261C2393.812012,940.706909,2396.152588,940.931213,2397.921143,941.203735C2400.181152,941.552002,2401.989258,941.663635,2404.005859,941.579346C2405.97583,941.49707,2407.455566,941.584167,2408.727051,941.8573C2410.758301,942.293579,2411.864014,942.269043,2416.795654,941.678345M2460.182373,912.130371C2460.967529,911.027649,2463.232422,904.232849,2463.650635,901.725403C2464.122314,898.897217,2463.830566,898.354614,2461.626953,897.960144C2460.411377,897.742554,2459.577148,897.349304,2457.989014,896.244995C2456.752686,895.385437,2455.868164,894.572266,2455.777832,894.21228C2455.526855,893.212646,2455.903809,892.346191,2456.926758,891.571106C2458.823975,890.133667,2460.978516,887.966248,2461.830811,886.637817C2462.57959,885.470947,2462.69043,885.078003,2462.660645,883.697632C2462.617188,881.703125,2462.145264,880.634216,2460.508789,878.824341L2459.217529,877.39624L2456.988037,877.2146C2452.311035,876.833557,2449.052979,873.864136,2448.042969,869.062256C2447.880859,868.291199,2447.748047,865.767029,2447.748047,863.453003C2447.748047,858.312134,2447.649414,858.024841,2445.745605,857.6297C2444.122314,857.292664,2440.676025,854.984375,2440.139648,853.874634C2439.647461,852.856567,2440.039795,852.123169,2442.258301,849.91394C2444.598145,847.583923,2449.080811,840.743408,2450.109619,837.932434C2450.771729,836.123779,2450.790039,835.897827,2450.780762,829.723389C2450.771729,823.701416,2450.73291,823.210571,2450.024658,820.199585C2449.61377,818.453552,2449.178955,816.328125,2449.05835,815.47644C2448.9375,814.624756,2448.634521,813.702148,2448.384766,813.426208C2447.45166,812.395203,2445.291748,813.168884,2445.309326,814.527771C2445.313965,814.88269,2445.640381,815.887451,2446.034424,816.760437C2447.762939,820.588074,2448.621094,824.75824,2448.620361,829.326599C2448.619385,835.249695,2447.654541,838.091553,2443.758057,843.647034C2442.393555,845.592224,2440.373291,848.136108,2439.268066,849.30011C2436.959717,851.731567,2436.372314,852.526245,2436.372314,853.218445C2436.372314,853.48999,2437.191895,854.610229,2438.193359,855.707947C2439.59668,857.245789,2440.456055,857.923279,2441.939453,858.660645C2444.411377,859.889465,2444.837402,860.612549,2444.8396,863.581726C2444.840332,864.747986,2444.965332,866.416504,2445.116943,867.289551C2445.268799,868.162537,2445.490967,869.874451,2445.610596,871.093811L2445.828613,873.31073L2447.521973,874.92981C2448.453369,875.820251,2449.699463,877.140625,2450.290771,877.863953L2451.366211,879.179138L2453.738037,879.346863C2456.547363,879.545532,2458.393799,880.328857,2459.345459,881.725586C2460.152344,882.909851,2459.971924,884.470764,2458.821045,886.264343C2457.877197,887.735229,2456.887451,888.55127,2455.112061,889.322693C2454.43335,889.617554,2453.748779,890.100281,2453.59082,890.395386C2453.224609,891.079468,2453.220215,893.991272,2453.582764,895.681458C2453.929932,897.300598,2454.572754,898.010376,2456.016357,898.368652C2459.545166,899.244385,2460.710938,900.33136,2460.710938,902.745117C2460.710938,904.630737,2460.091797,906.238708,2458.87915,907.501221C2458.320068,908.083191,2457.724854,908.828918,2457.556152,909.158325C2456.937988,910.364929,2458.004395,912.924438,2459.125,912.924438C2459.395508,912.924438,2459.871338,912.567139,2460.182373,912.130371M2347.312988,939.749573C2348.51416,939.436646,2349.525879,939.369873,2351.187256,939.493835C2352.958496,939.626038,2353.969482,939.544434,2355.949219,939.109558C2357.331543,938.805847,2358.63501,938.386841,2358.846191,938.178345C2359.181641,937.847168,2359.171387,937.306152,2358.765869,933.893616C2358.160645,928.798401,2358.018066,928.321411,2356.726807,927.071106C2355.282471,925.672485,2354.890869,924.856567,2354.890869,923.244507C2354.890869,921.640259,2355.440674,920.475159,2357.118164,918.523926C2357.785156,917.747803,2358.405029,916.818115,2358.495605,916.457886C2358.767578,915.373535,2358.445313,913.710083,2357.503174,911.337158L2356.610596,909.088501L2354.626465,908.105957C2351.643555,906.628967,2350.494385,904.814941,2351.151855,902.621155C2351.648682,900.962402,2357.561035,895.774414,2359.594238,895.213013C2361.135498,894.787476,2362.359863,895.260803,2363.637695,896.776245C2364.895996,898.268433,2364.91626,898.278564,2367.685303,898.804504C2370.488037,899.336792,2376.754395,901.568604,2379.172119,902.89563C2380.499023,903.62384,2381.329102,903.924927,2381.731445,903.823975C2382.062012,903.740967,2382.726563,903.063354,2383.225342,902.300293C2384.464355,900.404846,2385.256836,899.886292,2387.120117,899.751465C2389.078857,899.609863,2389.970459,900.047607,2391.236816,901.772827C2392.727051,903.80304,2394.557617,904.213684,2395.526367,902.735107C2395.921631,902.131897,2395.922363,902.024841,2395.533936,901.432007C2394.606934,900.017212,2388.601807,896.522339,2387.0979,896.522339C2385.938965,896.522339,2384.890869,896.992615,2384.123047,897.85675C2383.83252,898.18396,2383.130371,898.791382,2382.562988,899.206604C2381.058838,900.307129,2379.842041,900.225159,2376.501465,898.798401C2375.003906,898.158691,2372.415527,897.260986,2370.75,896.80365C2368.189941,896.100647,2367.21582,895.664856,2364.451172,893.985962C2359.97583,891.268188,2359.823242,891.254028,2357.422852,893.331543C2356.763184,893.902588,2355.492676,894.759155,2354.600098,895.234985C2353.459717,895.842712,2352.669678,896.515808,2351.944824,897.496948C2351.377441,898.265137,2350.26416,899.373169,2349.470947,899.959106C2347.196533,901.639343,2346.977783,902.499756,2348.296875,904.579712C2348.744385,905.285156,2349.348877,906.469177,2349.640625,907.210815C2350.339355,908.988281,2350.746582,909.400269,2352.663818,910.26947C2354.489502,911.09729,2355.318604,912.065186,2355.574951,913.667236C2355.887939,915.625244,2355.529053,916.533081,2353.651367,918.532349C2351.959473,920.333618,2351.921631,920.405212,2352.088135,921.479492C2352.182129,922.085083,2352.331299,923.532959,2352.419678,924.69696L2352.580322,926.813354L2354.098633,928.408752C2354.969727,929.323792,2355.684082,930.339111,2355.774414,930.789673C2356.424561,934.035278,2356.494385,934.908508,2356.159912,935.60614C2355.624268,936.723145,2354.791748,936.994751,2352.455322,936.814575C2351.029541,936.70459,2349.508057,936.804993,2347.485352,937.142395C2343.952393,937.73175,2343.491943,937.613464,2342.110107,935.760986C2341.406738,934.818054,2340.717285,934.23877,2339.858398,933.869324C2339.17749,933.576416,2338.322998,933.019897,2337.959473,932.632568C2337.323486,931.9552,2337.29834,931.795898,2337.29834,928.444946C2337.29834,924.174988,2336.958252,923.314514,2334.266357,920.775146C2332.322266,918.941162,2330.02002,917.808838,2328.838135,918.105469C2327.91626,918.336914,2327.325195,919.115417,2327.424072,919.968384C2327.514648,920.750916,2328.03125,921.0354,2330.489746,921.656494C2333.725586,922.474121,2335.41626,926.151184,2334.750244,930.924194C2334.576904,932.166626,2334.515625,933.503723,2334.614014,933.895569C2334.810547,934.678894,2335.73877,935.268372,2337.210205,935.544434C2338.898682,935.861206,2339.707275,936.556763,2340.333984,938.23175C2340.650391,939.077515,2341.049316,939.858521,2341.220215,939.967285C2341.777588,940.321777,2345.647949,940.183472,2347.312988,939.749573"/>
</svg>
