<?xml version="1.0" encoding="UTF-8"?>
<svg xmlns="http://www.w3.org/2000/svg" width="239.701mm" height="239.687mm" viewBox="-865.847900 -927.846436 239.700562 239.686768">
    <path transform="matrix(-1,0,0,-1,0,0)" style="stroke:#000000;stroke-width:0.05mm;fill:none" d="M747.550781,688.164063C780.298401,688.55426,811.453003,702.361023,833.738281,726.359375C856.222168,750.470703,867.752197,782.797668,865.601563,815.695313C863.698853,845.757019,850.514771,873.991882,828.6875,894.75C804.486816,917.868774,771.702026,929.785217,738.304688,927.601563C708.736572,925.73114,680.91748,912.942932,660.246094,891.71875C636.863403,867.820068,624.556763,835.220886,626.3125,801.832031C627.802917,772.210754,640.259216,744.202881,661.257813,723.257813C684.091003,700.369568,715.224121,687.708313,747.550781,688.164063z"/>
    <path transform="matrix(-1,0,0,-1,0,0)" style="stroke:#000000;stroke-width:0.05mm;fill:none" d="M751.09375,914.273438L749.628906,910.804688L744.402344,914.273438L742.9375,910.804688L737.652344,914.273438L736.199219,910.804688L734.796875,911.425781L736.96875,916.53125L742.21875,913.0625L743.683594,916.53125L748.933594,913.0625L750.421875,916.53125L757.195313,912.050781L756.367188,910.804688L751.09375,914.273438z"/>
    <path transform="matrix(-1,0,0,-1,0,0)" style="stroke:#000000;stroke-width:0.05mm;fill:none" d="M773.640625,905.257813L773.589844,905.308594L773.542969,905.414063C773.424866,905.830566,773.334412,906.254395,773.277344,906.683594L772.984375,908.5625L770.289063,909.335938C771.180786,909.622925,772.095886,909.915649,772.988281,910.199219C773.084351,911.041809,773.201294,911.88208,773.339844,912.71875C773.387146,913.039001,773.468201,913.35321,773.582031,913.65625C773.597839,913.675598,773.618408,913.685303,773.640625,913.691406C773.817871,913.210144,773.942139,912.711182,774.011719,912.203125C774.120117,911.536255,774.22998,910.86554,774.339844,910.199219C775.244873,909.911987,776.131775,909.62793,777.035156,909.335938L774.339844,908.5625C774.229126,907.708923,774.096619,906.858398,773.941406,906.011719C773.906921,905.767212,773.834534,905.530273,773.734375,905.304688L773.6875,905.253906L773.640625,905.257813z"/>
    <path transform="matrix(-1,0,0,-1,0,0)" style="stroke:#000000;stroke-width:0.05mm;fill:none" d="M717.503906,902.558594L717.457031,902.609375C717.419067,902.693176,717.385559,902.77887,717.359375,902.867188C717.266968,903.235229,717.197449,903.608582,717.144531,903.984375L716.851563,905.867188C715.94519,906.123352,715.061279,906.375732,714.15625,906.636719C715.057556,906.928406,715.951904,907.214478,716.855469,907.5C716.94989,908.342896,717.067444,909.182922,717.207031,910.019531C717.256226,910.321411,717.327698,910.619202,717.421875,910.910156C717.436218,910.935669,717.451172,910.960815,717.46875,910.984375C717.480408,910.987183,717.490356,910.992859,717.503906,910.992188C717.621399,910.713623,717.709534,910.423584,717.757813,910.125C717.928101,909.253845,718.076416,908.37854,718.203125,907.5C719.099609,907.216675,720.007813,906.926147,720.902344,906.636719L718.207031,905.863281C718.091614,904.922974,717.94104,903.987305,717.753906,903.058594C717.717224,902.940613,717.680054,902.823059,717.652344,902.703125L717.601563,902.605469L717.554688,902.554688L717.503906,902.558594z"/>
    <path transform="matrix(-1,0,0,-1,0,0)" style="stroke:#000000;stroke-width:0.05mm;fill:none" d="M751.105469,904.933594L749.628906,901.464844L744.402344,904.933594L742.9375,901.464844L737.664063,904.933594L736.210938,901.464844L734.808594,902.089844L736.980469,907.191406L742.230469,903.722656L743.695313,907.191406L748.945313,903.722656L750.433594,907.191406L757.207031,902.710938L756.378906,901.464844L751.105469,904.933594z"/>
    <path transform="matrix(-1,0,0,-1,0,0)" style="stroke:#000000;stroke-width:0.05mm;fill:none" d="M800.402344,884.324219C799.647278,884.299744,798.891846,884.36499,798.152344,884.519531C797.814026,884.605103,797.486572,884.728088,797.171875,884.878906C796.662842,885.167847,796.230896,885.575623,795.917969,886.070313C795.192871,887.303589,794.582458,888.600769,794.09375,889.945313C793.015686,888.756592,791.512512,888.041199,789.910156,887.953125C787.530518,887.793457,785.435913,889.505188,785.105469,891.867188C784.946045,892.825928,785.111572,893.811523,785.578125,894.664063C786.325989,896.054016,787.758423,896.939026,789.335938,896.992188C790.807129,897.060913,792.227539,896.445679,793.191406,895.332031C793.656616,894.834717,794.041626,894.268433,794.339844,893.65625C794.485718,894.162537,794.604309,894.676331,794.695313,895.195313C795.000977,897.593933,795.351196,899.985657,795.746094,902.371094C795.975281,903.77887,796.362488,905.156372,796.902344,906.476563L799.28125,906.011719C800.126953,904.983215,800.830383,903.845764,801.371094,902.628906C801.971069,901.334045,802.417175,899.973206,802.699219,898.574219C802.912109,899.870605,803.186829,901.155884,803.523438,902.425781C803.708252,903.056824,803.924255,903.678345,804.167969,904.289063L804.339844,904.640625L804.554688,904.96875L804.8125,905.261719L805.109375,905.515625C805.514954,905.797668,805.991577,905.959839,806.484375,905.996094C807.073669,906.028748,807.664124,906.033813,808.253906,906.011719L808.253906,904.511719C807.897583,904.540588,807.538269,904.515625,807.191406,904.429688C806.80719,904.334595,806.455322,904.139221,806.164063,903.871094C805.880005,903.575989,805.649414,903.234741,805.46875,902.867188L805.316406,902.488281C804.621704,900.156494,804.148438,897.764404,803.902344,895.34375C803.846802,894.661621,803.82019,893.977356,803.824219,893.292969L802.03125,893.292969C802.090942,894.926636,801.893799,896.559692,801.449219,898.132813C801.018005,899.767944,800.387146,901.343506,799.570313,902.824219C799.17627,903.506409,798.73053,904.157593,798.234375,904.769531C797.898682,903.915222,797.648865,903.02948,797.492188,902.125C797.1922,900.237366,796.931702,898.343872,796.710938,896.445313C796.594971,895.610962,796.47113,894.777466,796.339844,893.945313C796.176453,893.146057,795.870544,892.382751,795.4375,891.691406C795.914856,890.196838,796.517517,888.745178,797.238281,887.351563L797.386719,887.117188C797.756409,886.582886,798.309814,886.203186,798.941406,886.050781C799.821411,885.853699,800.724609,885.780823,801.625,885.832031L801.625,884.332031C801.21759,884.31958,800.809875,884.315796,800.402344,884.324219z"/>
    <path transform="matrix(-1,0,0,-1,0,0)" style="stroke:#000000;stroke-width:0.05mm;fill:none" d="M687.632813,885.871094C688.829407,887.094727,689.811218,888.511658,690.535156,890.0625C691.24176,891.634888,691.60907,893.338684,691.613281,895.0625L687.765625,895.0625L687.765625,896.417969L691.613281,896.417969C691.505493,898.182129,690.989746,899.897095,690.109375,901.429688C689.437561,902.671631,688.604492,903.819275,687.632813,904.84375L689.5,904.84375C691.706055,902.549805,693.081787,899.583984,693.40625,896.417969L697.140625,896.417969C697.469421,899.582703,698.844788,902.547119,701.046875,904.84375L702.914063,904.84375C701.710999,903.552612,700.711792,902.085571,699.953125,900.492188C699.375977,899.204956,699.032043,897.8255,698.9375,896.417969L702.78125,896.417969L702.78125,895.0625L698.9375,895.0625C698.937317,892.734802,699.610718,890.45697,700.871094,888.5C701.457764,887.554321,702.142395,886.673035,702.914063,885.871094L700.949219,885.871094C699.165344,887.896179,697.928284,890.343201,697.355469,892.980469C697.222961,893.666809,697.151611,894.363586,697.140625,895.0625L693.40625,895.0625C693.406799,894.16394,693.285706,893.269653,693.050781,892.402344C692.434692,889.981812,691.252563,887.741821,689.597656,885.871094L687.632813,885.871094z"/>
    <path transform="matrix(-1,0,0,-1,0,0)" style="stroke:#000000;stroke-width:0.05mm;fill:none" d="M790.195313,889.332031C790.458618,889.370178,790.71814,889.430298,790.972656,889.507813C792.028992,889.924866,792.963379,890.601013,793.691406,891.472656C793.392578,892.34436,792.976746,893.171387,792.453125,893.929688C792.138428,894.350464,791.768555,894.727112,791.351563,895.046875L791.054688,895.230469C790.750732,895.39624,790.423218,895.515564,790.082031,895.574219C788.757813,895.809387,787.440186,895.138977,786.851563,893.929688L786.742188,893.671875C786.570557,893.218994,786.515259,892.730225,786.578125,892.25C786.614136,891.504761,786.924072,890.799377,787.441406,890.261719C787.636108,890.070251,787.847534,889.896423,788.078125,889.75L788.320313,889.621094C788.901367,889.337708,789.555054,889.242798,790.195313,889.332031z"/>
    <path transform="matrix(-1,0,0,-1,0,0)" style="stroke:#000000;stroke-width:0.05mm;fill:none" d="M726.976563,876.785156L726.925781,876.835938C726.895264,876.922974,726.865906,877.010071,726.828125,877.09375L726.777344,877.300781C726.597107,878.22699,726.444641,879.158386,726.320313,880.09375C725.421753,880.347656,724.521973,880.604553,723.625,880.863281C724.532898,881.155396,725.415161,881.437622,726.324219,881.726563C726.419373,882.569519,726.538574,883.409607,726.679688,884.246094C726.71875,884.567566,726.796875,884.883301,726.917969,885.183594L726.9375,885.210938C726.949951,885.216187,726.963013,885.218811,726.976563,885.21875L727.011719,885.152344C727.18811,884.577332,727.319458,883.989685,727.40625,883.394531L727.675781,881.726563C728.571899,881.441772,729.479858,881.151367,730.375,880.863281C729.46875,880.604553,728.582336,880.350647,727.675781,880.089844C727.564941,879.236267,727.431824,878.385803,727.277344,877.539063C727.246582,877.294006,727.182739,877.053528,727.074219,876.832031L727.023438,876.78125L726.976563,876.785156z"/>
    <path transform="matrix(-1,0,0,-1,0,0)" style="stroke:#000000;stroke-width:0.05mm;fill:none" d="M775.976563,876.785156L775.925781,876.835938C775.887207,876.919678,775.859619,877.007263,775.828125,877.09375C775.738464,877.462402,775.66925,877.835693,775.613281,878.210938L775.320313,880.09375C774.424805,880.34668,773.519287,880.605225,772.625,880.863281C773.516785,881.150146,774.430908,881.442505,775.324219,881.726563C775.427979,882.669861,775.564575,883.609314,775.734375,884.542969C775.770813,884.774109,775.835938,885.000061,775.9375,885.210938L775.957031,885.222656C775.979614,885.201355,775.993103,885.175476,776.011719,885.152344C776.18866,884.577515,776.321167,883.989929,776.40625,883.394531L776.675781,881.726563C777.579163,881.439453,778.472839,881.153564,779.375,880.863281C778.470459,880.604858,777.580139,880.349731,776.675781,880.089844C776.565125,879.236328,776.432129,878.385681,776.277344,877.539063C776.238953,877.332581,776.189209,877.128357,776.121094,876.929688L776.074219,876.832031L776.023438,876.78125L775.976563,876.785156z"/>
    <path transform="matrix(-1,0,0,-1,0,0)" style="stroke:#000000;stroke-width:0.05mm;fill:none" d="M671.355469,875.03125L671.308594,875.085938C671.267822,875.16748,671.239868,875.253784,671.210938,875.339844C671.118958,875.708008,671.048645,876.081177,670.996094,876.457031L670.703125,878.339844C669.801208,878.594666,668.908813,878.849487,668.007813,879.109375C668.90918,879.401123,669.80365,879.687134,670.707031,879.972656C670.800171,880.815674,670.917603,881.655884,671.058594,882.492188C671.096191,882.825378,671.181519,883.151733,671.320313,883.457031C671.331543,883.462219,671.343323,883.464478,671.355469,883.464844L671.394531,883.398438C671.428223,883.295959,671.460754,883.192993,671.492188,883.089844C671.609741,882.611023,671.70697,882.127441,671.785156,881.640625L672.054688,879.972656C672.954041,879.688416,673.856567,879.39978,674.753906,879.109375L672.058594,878.335938C671.944458,877.395508,671.793396,876.459778,671.605469,875.53125C671.579285,875.410706,671.544495,875.292297,671.503906,875.175781L671.453125,875.078125L671.40625,875.027344L671.355469,875.03125z"/>
    <path transform="matrix(-1,0,0,-1,0,0)" style="stroke:#000000;stroke-width:0.05mm;fill:none" d="M657.511719,846.660156C657.5625,851.512146,656.938049,856.347473,655.65625,861.027344C655.245483,862.420593,654.721619,863.777954,654.089844,865.085938C653.65802,865.962463,653.110229,866.777161,652.457031,867.503906C652.124817,867.838196,651.737244,868.112183,651.3125,868.316406L651.011719,868.425781C650.126282,868.684326,649.173584,868.35553,648.636719,867.605469C648.356812,867.237854,648.149414,866.819885,648.039063,866.371094C647.844788,865.55719,647.816284,864.712891,647.949219,863.886719C648.168274,862.696411,648.596252,861.554321,649.210938,860.511719L647.367188,860.511719C646.80127,861.524902,646.397156,862.620117,646.167969,863.757813C645.981995,864.834167,646.046997,865.938843,646.363281,866.984375C646.718201,868.006226,647.404541,868.881287,648.320313,869.457031C649.89978,870.343872,651.866028,870.151184,653.238281,868.96875C654.129333,868.240051,654.859375,867.333801,655.382813,866.308594C656.23114,864.796143,656.862854,863.171997,657.261719,861.484375C657.800659,859.358337,658.135437,857.18573,658.261719,854.996094L658.566406,854.996094C658.72937,857.307678,659.102173,859.599609,659.679688,861.84375C660.168091,863.709473,660.929077,865.492798,661.9375,867.136719C662.501404,868.009033,663.233887,868.759277,664.089844,869.347656C665.300537,870.104004,666.804688,870.213745,668.117188,869.652344C669.580261,868.91333,670.559937,867.472046,670.710938,865.839844C670.829956,864.899841,670.754761,863.945557,670.492188,863.035156C670.25946,862.151001,669.909058,861.301941,669.449219,860.511719L667.617188,860.511719C668.084839,861.257935,668.447937,862.064941,668.695313,862.910156C668.992371,863.930786,669.041016,865.007813,668.835938,866.050781C668.68396,866.759033,668.317932,867.40509,667.773438,867.882813C667.398315,868.184448,666.930542,868.348145,666.449219,868.34375L666.207031,868.332031C665.719604,868.278381,665.257507,868.088135,664.875,867.78125C664.138977,867.170105,663.536743,866.414429,663.101563,865.5625C662.432861,864.37262,661.884521,863.11908,661.464844,861.820313C660.71344,859.412537,660.168091,856.945129,659.832031,854.445313C659.461304,851.867249,659.289185,849.264587,659.316406,846.660156L657.511719,846.660156z"/>
    <path transform="matrix(-1,0,0,-1,0,0)" style="stroke:#000000;stroke-width:0.05mm;fill:none" d="M772.191406,852.289063C771.940735,853.491699,771.728333,854.701843,771.554688,855.917969L770.992188,859.488281C769.47345,859.961975,767.947266,860.411133,766.414063,860.835938L766.179688,860.933594C766.124451,860.963074,766.071533,860.99646,766.019531,861.03125L765.976563,861.074219C765.96875,861.095398,765.970276,861.116089,765.972656,861.136719C766.004395,861.157654,766.037292,861.176575,766.070313,861.195313C766.828003,861.49353,767.607849,861.731873,768.402344,861.910156C769.223572,862.091797,770.030396,862.333557,770.816406,862.632813C770.865723,862.661621,770.916992,862.686523,770.964844,862.71875C770.978271,862.756409,770.993469,862.793335,771.003906,862.832031C771.02594,862.91217,771.043335,862.993408,771.0625,863.074219C771.410156,864.758545,771.726563,866.448486,772.011719,868.144531C772.104553,868.769043,772.229492,869.388489,772.386719,870L772.394531,869.984375C772.660095,868.511169,772.889404,867.031372,773.082031,865.546875C773.191956,864.718689,773.347229,863.897156,773.546875,863.085938L773.628906,862.929688C773.822754,862.701538,774.078003,862.535889,774.359375,862.433594C775.07251,862.158997,775.80188,861.92865,776.542969,861.742188C777.165405,861.57312,777.777344,861.367493,778.375,861.125C778.412964,861.104553,778.4505,861.083313,778.488281,861.0625L778.511719,861.039063C778.509949,861.018738,778.498718,861.005798,778.492188,860.988281C778.455811,860.964783,778.420044,860.940369,778.382813,860.917969C777.735657,860.635742,777.063049,860.416077,776.375,860.257813C775.543091,860.056763,774.721863,859.813965,773.914063,859.53125C773.877502,859.514648,773.840637,859.498474,773.804688,859.480469C773.775757,859.446777,773.752502,859.409302,773.730469,859.371094C773.47644,858.640564,773.282654,857.890625,773.148438,857.128906C772.899719,855.690369,772.635254,854.253174,772.355469,852.820313C772.321899,852.650757,772.282043,852.482544,772.234375,852.316406L772.197266,852.257813L772.191406,852.289063z"/>
    <path transform="matrix(-1,0,0,-1,0,0)" style="stroke:#000000;stroke-width:0.05mm;fill:none" d="M835.917969,854.953125L832.089844,851.117188L830.808594,852.386719L834.636719,856.222656L826.5,864.375L825.585938,857.894531L823.804688,858.175781L825.050781,867.074219L833.941406,868.320313L834.222656,866.535156L827.746094,865.621094L835.894531,857.480469L839.722656,861.3125L840.992188,860.03125L837.164063,856.195313L842.785156,850.59375L841.542969,849.347656L835.917969,854.953125z"/>
    <path transform="matrix(-1,0,0,-1,0,0)" style="stroke:#000000;stroke-width:0.05mm;fill:none" d="M803.882813,850.058594C803.632935,851.261353,803.420471,852.471497,803.246094,853.6875L802.683594,857.257813C801.164978,857.731689,799.63855,858.180969,798.105469,858.605469C797.993652,858.646362,797.885376,858.696167,797.78125,858.753906C797.739136,858.779114,797.705078,858.812866,797.667969,858.84375L797.652344,858.886719C797.687622,858.916016,797.723694,858.944275,797.765625,858.964844C798.521606,859.264038,799.300293,859.502258,800.09375,859.679688C800.9151,859.865845,801.723083,860.106873,802.511719,860.402344C802.552002,860.423096,802.592712,860.443726,802.632813,860.464844L802.65625,860.488281C802.687927,860.606934,802.721924,860.724915,802.753906,860.84375C803.134888,862.715942,803.48645,864.593384,803.808594,866.476563C803.877991,866.91156,803.967346,867.343201,804.078125,867.769531C804.288757,866.717957,804.458008,865.658569,804.585938,864.59375C804.736572,863.362976,804.945862,862.140076,805.214844,860.929688L805.238281,860.855469L805.320313,860.699219C805.389282,860.623657,805.461182,860.550842,805.539063,860.484375C805.610352,860.434998,805.682861,860.38739,805.757813,860.34375C806.404053,860.049133,807.076172,859.815125,807.765625,859.644531C808.549805,859.451233,809.318909,859.2005,810.066406,858.894531C810.115479,858.869629,810.163086,858.84198,810.207031,858.808594L810.207031,858.785156C810.139648,858.729492,810.064697,858.685669,809.988281,858.644531C809.913269,858.615173,809.838867,858.58429,809.765625,858.550781C808.911438,858.257385,808.0448,858.001587,807.167969,857.785156C806.616455,857.647522,806.073669,857.47699,805.542969,857.273438C805.513489,857.256836,805.486633,857.236572,805.460938,857.214844L805.421875,857.140625L805.375,857.035156C805.022278,855.878357,804.757019,854.696655,804.582031,853.5C804.40979,852.353516,804.190796,851.2146,803.925781,850.085938L803.888672,850.027344L803.882813,850.058594z"/>
    <path transform="matrix(-1,0,0,-1,0,0)" style="stroke:#000000;stroke-width:0.05mm;fill:none" d="M731.976563,854.785156L731.925781,854.835938C731.764343,855.279236,731.661804,855.741638,731.613281,856.210938L731.320313,858.089844L728.625,858.863281C729.519409,859.151123,730.428223,859.441772,731.324219,859.726563C731.428711,860.6698,731.565308,861.609192,731.734375,862.542969C731.754517,862.76593,731.817993,862.983154,731.917969,863.183594C731.929688,863.197876,731.942566,863.21106,731.957031,863.222656C732.06427,863.035461,732.133972,862.830078,732.167969,862.617188C732.374084,861.660522,732.543091,860.696167,732.675781,859.726563C733.567688,859.443115,734.48407,859.150024,735.375,858.863281C734.427795,858.592529,733.622864,858.361816,732.675781,858.089844C732.565491,857.236206,732.4328,856.38562,732.277344,855.539063C732.243225,855.331726,732.186523,855.129272,732.121094,854.929688L732.074219,854.832031L732.023438,854.78125L731.976563,854.785156z"/>
    <path transform="matrix(-1,0,0,-1,0,0)" style="stroke:#000000;stroke-width:0.05mm;fill:none" d="M697.265625,851.28125L697.214844,851.335938L697.167969,851.4375L697.117188,851.59375C697.028748,851.961365,696.957031,852.332886,696.902344,852.707031L696.609375,854.589844C695.714844,854.847778,694.809814,855.106201,693.914063,855.359375C694.837463,855.655151,695.691589,855.929565,696.613281,856.226563C696.708801,856.955322,696.807983,857.686218,696.910156,858.414063C696.964294,858.827759,697.054443,859.236084,697.183594,859.632813C697.203491,859.663513,697.224182,859.693298,697.246094,859.722656C697.361328,859.538147,697.430176,859.329163,697.457031,859.113281C697.661926,858.157654,697.831177,857.194702,697.964844,856.226563C698.878418,855.932007,699.750244,855.651978,700.664063,855.359375C699.762695,855.105713,698.86438,854.849609,697.964844,854.589844C697.8526,853.735168,697.720337,852.883362,697.566406,852.035156C697.543945,851.880249,697.507751,851.727539,697.460938,851.578125C697.434692,851.491821,697.402039,851.407593,697.359375,851.328125L697.3125,851.28125L697.265625,851.28125z"/>
    <path transform="matrix(-1,0,0,-1,0,0)" style="stroke:#000000;stroke-width:0.05mm;fill:none" d="M752.722656,841.726563C752.472473,842.930542,752.260437,844.14209,752.085938,845.359375L751.523438,848.929688C750.003235,849.396118,748.47583,849.845703,746.945313,850.277344C746.833984,850.320923,746.724182,850.368408,746.617188,850.421875L746.550781,850.46875L746.507813,850.515625C746.500671,850.536133,746.503479,850.555298,746.507813,850.574219C746.537354,850.599609,746.571655,850.617493,746.605469,850.636719C747.201843,850.880615,747.817017,851.076111,748.445313,851.21875C749.356018,851.43158,750.255798,851.689331,751.140625,851.992188L751.253906,852.035156C751.325317,852.069214,751.397949,852.100647,751.46875,852.136719L751.496094,852.160156C751.539063,852.275574,751.572083,852.394409,751.59375,852.515625C751.960938,854.295471,752.294312,856.08252,752.59375,857.875C752.679932,858.400146,752.787415,858.92157,752.917969,859.4375C752.940491,859.354797,752.958801,859.27124,752.976563,859.1875C753.234741,857.592712,753.479736,855.993469,753.710938,854.394531C753.799683,853.764709,753.921936,853.140015,754.078125,852.523438L754.160156,852.371094L754.289063,852.222656C754.427856,852.114258,754.575134,852.016968,754.734375,851.941406C755.494446,851.631226,756.276917,851.379089,757.074219,851.183594C757.722473,851.014038,758.357666,850.797241,758.972656,850.53125C759.000366,850.508362,759.026367,850.483826,759.046875,850.453125C759.003784,850.419128,758.960999,850.384888,758.914063,850.355469C758.2677,850.072144,757.595276,849.852051,756.90625,849.699219C756.075806,849.492859,755.254822,849.249939,754.445313,848.972656C754.408752,848.955933,754.372375,848.938904,754.335938,848.921875L754.300781,848.882813C754.24762,848.781189,754.206726,848.674194,754.167969,848.566406C753.843689,847.45282,753.594421,846.318787,753.421875,845.171875C753.247864,844.024414,753.028687,842.884277,752.765625,841.753906L752.728516,841.695313L752.722656,841.726563z"/>
    <path transform="matrix(-1,0,0,-1,0,0)" style="stroke:#000000;stroke-width:0.05mm;fill:none" d="M676.023438,832.09375C675.772949,833.296326,675.560303,834.506592,675.386719,835.722656L674.824219,839.292969C673.305542,839.766846,671.779297,840.216003,670.246094,840.640625C670.132568,840.677795,670.02655,840.732178,669.921875,840.789063L669.851563,840.835938L669.808594,840.882813L669.792969,840.921875C669.80896,840.938354,669.826111,840.954041,669.84375,840.96875C669.964233,841.028137,670.088013,841.080627,670.214844,841.125C671.195435,841.44574,672.188477,841.726807,673.191406,841.96875C673.687561,842.094727,674.175232,842.251953,674.652344,842.4375C674.692932,842.457703,674.733276,842.479004,674.773438,842.5C674.844543,842.615784,674.88678,842.747131,674.894531,842.882813C675.275391,844.753296,675.627014,846.630188,675.949219,848.511719C676.01532,848.947327,676.106262,849.378723,676.21875,849.804688C676.391418,848.965637,676.529236,848.119873,676.632813,847.269531C676.809814,845.861267,677.041992,844.46051,677.328125,843.070313C677.345398,843.010315,677.365112,842.951294,677.378906,842.890625C677.432373,842.779358,677.50116,842.676025,677.589844,842.589844C677.877014,842.358215,678.209778,842.188049,678.566406,842.09375C679.448303,841.81366,680.333618,841.54541,681.222656,841.289063C681.600769,841.182495,681.969238,841.043396,682.320313,840.867188C682.332031,840.853394,682.342468,840.838623,682.347656,840.820313C682.30542,840.785156,682.262329,840.751038,682.214844,840.722656C681.56897,840.438293,680.895813,840.220276,680.207031,840.066406C679.376038,839.860596,678.554626,839.617371,677.746094,839.335938C677.708862,839.32074,677.672791,839.302917,677.636719,839.285156C677.607422,839.251343,677.586304,839.212891,677.5625,839.175781C677.305237,838.446228,677.110046,837.696228,676.980469,836.933594C676.739929,835.562805,676.489746,834.191589,676.230469,832.824219C676.184631,832.587891,676.128418,832.353699,676.066406,832.121094L676.029297,832.0625L676.023438,832.09375z"/>
    <path transform="matrix(-1,0,0,-1,0,0)" style="stroke:#000000;stroke-width:0.05mm;fill:none" d="M730.007813,830.640625C729.758057,831.844727,729.545959,833.056213,729.371094,834.273438L728.804688,837.84375C727.286804,838.316284,725.762146,838.765564,724.230469,839.191406C724.122437,839.242432,724.012207,839.288635,723.902344,839.335938C723.865723,839.367065,723.827148,839.395569,723.792969,839.429688L723.777344,839.46875C723.839783,839.510254,723.903625,839.54895,723.96875,839.585938C724.044067,839.616577,724.119324,839.64679,724.195313,839.675781C725.177856,839.993164,726.171997,840.273376,727.175781,840.515625C727.69751,840.646973,728.209106,840.815857,728.707031,841.019531C728.741028,841.046753,728.771729,841.077087,728.796875,841.113281C729.135315,842.572327,729.41925,844.043396,729.648438,845.523438C729.796387,846.474304,729.980835,847.419189,730.203125,848.355469C730.408752,847.303223,730.577393,846.243958,730.707031,845.179688C730.860107,843.984375,731.062073,842.795959,731.3125,841.617188L731.339844,841.511719L731.363281,841.4375L731.445313,841.285156C731.509888,841.205261,731.584167,841.134888,731.660156,841.066406C731.732788,841.017029,731.807922,840.97168,731.882813,840.925781C732.528259,840.630188,733.200378,840.396484,733.890625,840.230469C734.640442,840.0354,735.378296,839.79718,736.101563,839.519531C736.169556,839.484375,736.239441,839.454224,736.304688,839.414063C736.315063,839.401184,736.323059,839.386902,736.328125,839.371094L736.304688,839.339844C736.268921,839.315308,736.231812,839.292847,736.195313,839.269531C735.550232,838.98645,734.87854,838.768494,734.191406,838.613281C733.33429,838.414246,732.49054,838.161438,731.664063,837.859375L731.621094,837.835938C731.59491,837.79834,731.568298,837.760986,731.542969,837.722656C731.28656,836.992859,731.092041,836.242798,730.960938,835.480469C730.733032,834.185974,730.498291,832.889954,730.257813,831.597656C730.198914,831.285583,730.131104,830.97522,730.050781,830.667969L730.013672,830.607422L730.007813,830.640625z"/>
    <path transform="matrix(-1,0,0,-1,0,0)" style="stroke:#000000;stroke-width:0.05mm;fill:none" d="M648.417969,835.089844L648.367188,835.140625L648.320313,835.246094C648.200134,835.662048,648.113525,836.086731,648.054688,836.515625L647.761719,838.398438C646.857971,838.653931,645.968994,838.907715,645.066406,839.167969C645.959473,839.455383,646.871277,839.747009,647.765625,840.03125C647.861145,840.760742,647.960144,841.490295,648.0625,842.21875C648.111816,842.634521,648.202515,843.044556,648.335938,843.441406C648.349854,843.466431,648.363403,843.491455,648.378906,843.515625L648.398438,843.527344L648.417969,843.523438L648.453125,843.457031C648.632324,842.882813,648.764038,842.294922,648.847656,841.699219L649.117188,840.03125C650.008606,839.747803,650.925903,839.454468,651.816406,839.167969C650.913818,838.910278,650.018677,838.653687,649.117188,838.394531C649.006836,837.540894,648.87384,836.69043,648.71875,835.84375C648.678528,835.600891,648.613464,835.362671,648.515625,835.136719L648.464844,835.085938L648.417969,835.089844z"/>
    <path transform="matrix(-1,0,0,-1,0,0)" style="stroke:#000000;stroke-width:0.05mm;fill:none" d="M850.554688,830.230469L850.503906,830.285156C850.339783,830.727661,850.237244,831.19043,850.191406,831.660156L849.898438,833.539063L847.203125,834.3125C848.10144,834.596375,849.006226,834.885803,849.902344,835.175781C849.998108,835.906982,850.09668,836.633057,850.199219,837.363281C850.245239,837.795898,850.343262,838.221619,850.496094,838.628906L850.515625,838.660156C850.528137,838.665466,850.541382,838.666687,850.554688,838.664063C850.609131,838.542847,850.65509,838.418091,850.6875,838.289063C850.805908,837.810181,850.904541,837.32666,850.984375,836.839844L851.253906,835.175781C852.155762,834.884277,853.046265,834.599121,853.949219,834.3125L851.253906,833.539063C851.143188,832.685547,851.010376,831.8349,850.855469,830.988281C850.82312,830.833984,850.788757,830.680176,850.75,830.527344L850.699219,830.378906L850.648438,830.277344L850.601563,830.230469L850.554688,830.230469z"/>
    <path transform="matrix(-1,0,0,-1,0,0)" style="stroke:#000000;stroke-width:0.05mm;fill:none" d="M771.976563,829.785156L771.925781,829.835938L771.878906,829.941406C771.760193,830.357727,771.671753,830.781982,771.613281,831.210938L771.320313,833.089844L768.625,833.863281C769.540283,834.157837,770.407715,834.435303,771.324219,834.726563C771.427795,835.669861,771.564819,836.609253,771.734375,837.542969C771.778137,837.76123,771.836487,837.976318,771.917969,838.183594C771.934265,838.200195,771.953186,838.212769,771.976563,838.21875C772.124451,837.843872,772.226746,837.45282,772.289063,837.054688C772.429749,836.280518,772.558716,835.504639,772.675781,834.726563C773.585938,834.437134,774.465942,834.155762,775.375,833.863281C774.456726,833.600952,773.593201,833.353638,772.675781,833.089844C772.564941,832.236267,772.432068,831.385742,772.277344,830.539063C772.237427,830.333008,772.186279,830.129272,772.121094,829.929688C772.092896,829.877502,772.062683,829.826416,772.023438,829.78125L771.976563,829.785156z"/>
    <path transform="matrix(-1,0,0,-1,0,0)" style="stroke:#000000;stroke-width:0.05mm;fill:none" d="M805.976563,828.785156C805.899231,828.87262,805.843872,828.977844,805.828125,829.09375C805.740295,829.46283,805.667603,829.835449,805.613281,830.210938L805.320313,832.09375C804.424805,832.346924,803.51947,832.605347,802.625,832.863281C803.509766,833.148071,804.438477,833.445068,805.324219,833.726563C805.428955,834.669739,805.565552,835.60907,805.734375,836.542969C805.764954,836.694153,805.79895,836.844604,805.84375,836.992188C805.867065,837.056519,805.891052,837.120605,805.917969,837.183594C805.931519,837.196289,805.941223,837.211365,805.957031,837.222656C805.979858,837.202087,805.994995,837.176758,806.011719,837.152344C806.049194,837.051086,806.082947,836.948486,806.109375,836.84375C806.230835,836.36554,806.330933,835.882141,806.40625,835.394531L806.675781,833.726563C807.575317,833.440552,808.476501,833.152344,809.375,832.863281C808.463501,832.602844,807.586426,832.351624,806.675781,832.089844C806.564758,831.236267,806.432312,830.385742,806.277344,829.539063C806.237549,829.296143,806.170776,829.058472,806.074219,828.832031L806.023438,828.78125L805.976563,828.785156z"/>
    <path transform="matrix(-1,0,0,-1,0,0)" style="stroke:#000000;stroke-width:0.05mm;fill:none" d="M831.121094,824.5625C831.086182,824.614258,831.058044,824.669189,831.027344,824.722656C830.902222,825.137329,830.815308,825.562378,830.761719,825.992188L830.46875,827.871094L827.773438,828.644531C828.661499,828.926819,829.586304,829.222595,830.472656,829.507813C830.566833,830.350708,830.68396,831.190857,830.824219,832.027344C830.867981,832.328918,830.943726,832.624634,831.039063,832.914063L831.0625,832.960938C831.075012,832.977173,831.089844,832.990967,831.105469,833.003906L831.121094,832.996094L831.160156,832.929688C831.341187,832.356262,831.470764,831.767883,831.550781,831.171875L831.820313,829.507813C832.721008,829.217957,833.618408,828.930969,834.519531,828.644531L831.824219,827.871094C831.70929,826.930725,831.558594,825.995056,831.371094,825.066406L831.320313,824.863281C831.291077,824.776855,831.259033,824.691406,831.21875,824.609375L831.171875,824.5625L831.121094,824.5625z"/>
    <path transform="matrix(-1,0,0,-1,0,0)" style="stroke:#000000;stroke-width:0.05mm;fill:none" d="M724.8125,807.683594C724.799194,807.737732,724.786621,807.789612,724.773438,807.84375C724.547424,808.995239,724.348389,810.151794,724.175781,811.3125L723.613281,814.882813C722.092957,815.352417,720.566833,815.80304,719.035156,816.234375L718.796875,816.332031C718.73175,816.380432,718.664673,816.426025,718.597656,816.472656L718.582031,816.511719L718.59375,816.53125C718.625793,816.552856,718.658936,816.572876,718.691406,816.59375C719.288818,816.834534,719.904358,817.027832,720.53125,817.175781C721.484253,817.391479,722.423767,817.663147,723.34375,817.992188C723.400024,818.015503,723.455566,818.03894,723.511719,818.0625C723.536133,818.08136,723.562317,818.097107,723.585938,818.117188C723.834778,819.115723,724.04126,820.12439,724.203125,821.140625C724.432922,822.559753,724.697205,823.972717,724.996094,825.378906L725.007813,825.394531C725.032288,825.312622,725.047791,825.228638,725.0625,825.144531L725.089844,825.011719C725.336609,823.460693,725.573853,821.905518,725.800781,820.351563C725.886108,819.721191,726.009827,819.096619,726.167969,818.480469C726.220337,818.368652,726.291077,818.266541,726.378906,818.179688L726.464844,818.109375C726.537354,818.059814,726.612732,818.014771,726.6875,817.96875C727.332703,817.672485,728.005127,817.439697,728.695313,817.273438C729.47876,817.075684,730.247253,816.823059,730.996094,816.519531C731.034668,816.500122,731.071655,816.477905,731.109375,816.457031C731.11792,816.441772,731.129517,816.429626,731.132813,816.410156C731.112366,816.388794,731.09082,816.368591,731.066406,816.351563C731.017151,816.323669,730.968262,816.295532,730.917969,816.269531C730.842407,816.238281,730.767212,816.206421,730.691406,816.175781C729.838806,815.882629,728.973572,815.627502,728.097656,815.414063C727.543884,815.278442,726.999084,815.107666,726.46875,814.898438C726.442505,814.879333,726.416016,814.860657,726.390625,814.839844C726.164673,814.294617,726.002258,813.725525,725.898438,813.144531C725.623901,811.727051,725.360962,810.308167,725.109375,808.886719C725.040588,808.491516,724.955078,808.099487,724.855469,807.710938L724.818359,807.652344L724.8125,807.683594z"/>
    <path transform="matrix(-1,0,0,-1,0,0)" style="stroke:#000000;stroke-width:0.05mm;fill:none" d="M683.789063,804.027344C683.538452,805.229919,683.325867,806.440125,683.152344,807.65625L682.585938,811.226563C681.067139,811.696289,679.541992,812.146973,678.011719,812.578125C677.895508,812.609802,677.788452,812.664185,677.683594,812.722656L677.617188,812.769531C677.596802,812.797485,677.575378,812.824524,677.558594,812.855469L677.570313,812.875C677.629883,812.907898,677.688477,812.942627,677.75,812.972656C678.325073,813.188293,678.911682,813.371704,679.507813,813.519531C680.421387,813.726196,681.322754,813.98407,682.207031,814.292969C682.298828,814.335083,682.394104,814.368591,682.488281,814.40625C682.522949,814.431091,682.554321,814.4599,682.578125,814.496094C682.91687,815.956299,683.201111,817.428711,683.429688,818.910156C683.579834,819.85907,683.763489,820.802368,683.980469,821.738281C684.154541,820.899353,684.293884,820.053528,684.398438,819.203125C684.568848,817.793884,684.80072,816.392761,685.09375,815.003906C685.105652,814.942383,685.127502,814.884338,685.144531,814.824219C685.200378,814.714417,685.272156,814.614075,685.355469,814.523438L685.441406,814.453125C685.604919,814.344543,685.778442,814.252869,685.957031,814.171875C686.670776,813.900024,687.39978,813.670044,688.140625,813.484375C688.791016,813.320129,689.427002,813.102417,690.039063,812.828125L690.085938,812.800781C690.093384,812.785095,690.10498,812.773254,690.109375,812.753906L690.085938,812.726563C689.993652,812.662537,689.893188,812.612061,689.789063,812.570313C689.046204,812.289307,688.2854,812.058411,687.511719,811.878906C686.810486,811.709351,686.120544,811.496094,685.445313,811.242188L685.402344,811.222656C685.373901,811.186523,685.348083,811.148621,685.324219,811.109375C685.292603,811.028809,685.262024,810.947754,685.230469,810.867188C684.907166,809.752075,684.657959,808.61676,684.484375,807.46875C684.313232,806.322388,684.095459,805.183411,683.832031,804.054688L683.794922,803.996094L683.789063,804.027344z"/>
    <path transform="matrix(-1,0,0,-1,0,0)" style="stroke:#000000;stroke-width:0.05mm;fill:none" d="M836.300781,798.746094L839.15625,801.320313L839.15625,799.511719C839.658875,799.50238,840.161682,799.505371,840.664063,799.523438C841.160706,799.548523,841.650818,799.647705,842.117188,799.820313L842.390625,799.960938C842.832581,800.223938,843.165344,800.637146,843.328125,801.125C843.426941,801.547119,843.486633,801.977173,843.507813,802.410156L843.527344,802.90625L843.527344,815.066406C843.516235,816.009827,843.669617,816.947693,843.976563,817.839844C844.220337,818.517883,844.559143,819.157715,844.980469,819.742188L846.761719,819.386719C847.710815,818.280212,848.451599,817.010864,848.949219,815.640625C849.047913,816.691895,849.334595,817.716797,849.792969,818.667969C849.987671,819.051453,850.2229,819.41333,850.5,819.742188L852.242188,819.386719C853.155334,818.338501,853.873596,817.135498,854.367188,815.835938C854.592163,817.099792,855.062195,818.307739,855.757813,819.386719L857.699219,819.386719C857.027466,818.511902,856.576233,817.48822,856.382813,816.402344C856.230286,815.682312,856.16272,814.946899,856.175781,814.210938L856.175781,801.320313L854.367188,801.320313L854.367188,812.636719C853.868225,814.644653,852.901611,816.506531,851.546875,818.070313L851.417969,817.828125C851.30072,817.579956,851.204407,817.32251,851.128906,817.058594C850.845032,815.886597,850.719421,814.681946,850.753906,813.476563L850.753906,801.320313L848.949219,801.320313L848.949219,812.234375C848.580811,813.983521,847.873901,815.643982,846.867188,817.121094C846.638794,817.450867,846.392334,817.767822,846.128906,818.070313C845.90863,817.726074,845.74176,817.350098,845.644531,816.953125C845.414551,816.028687,845.311218,815.077332,845.335938,814.125L845.335938,803.238281C845.353882,802.56958,845.292419,801.901062,845.15625,801.246094C845.033508,800.631836,844.80011,800.044739,844.464844,799.515625C844.363037,799.373352,844.249451,799.240051,844.128906,799.113281C843.638733,798.638977,843.02301,798.315674,842.355469,798.175781C842.038696,798.098877,841.716309,798.046448,841.390625,798.03125C840.64624,798.001465,839.901062,797.994873,839.15625,798.011719L839.15625,796.253906L836.300781,798.746094z"/>
    <path transform="matrix(-1,0,0,-1,0,0)" style="stroke:#000000;stroke-width:0.05mm;fill:none" d="M644.25,796.4375C642.361145,796.634705,640.610229,797.516968,639.328125,798.917969C637.27417,801.04718,636.676025,804.189453,637.800781,806.925781C638.549927,808.677063,639.883728,810.114319,641.574219,810.992188C640.321655,811.463196,639.27356,812.357788,638.609375,813.519531C638.119629,814.276611,637.671936,815.060242,637.269531,815.867188C636.898804,816.525452,636.427856,817.121826,635.875,817.636719C635.792297,817.704224,635.703369,817.763123,635.613281,817.820313C635.110413,818.129883,634.522705,818.271484,633.933594,818.230469L633.933594,819.585938C634.320313,819.602051,634.707642,819.59729,635.09375,819.570313C635.719666,819.513855,636.321167,819.297974,636.835938,818.9375C637.687622,818.297607,638.399841,817.490601,638.929688,816.566406C639.349182,815.899597,639.742432,815.216675,640.109375,814.519531C640.484314,813.854736,640.942078,813.240112,641.472656,812.691406C641.926453,812.248352,642.476868,811.916382,643.082031,811.726563C644.380981,811.331116,645.770508,811.347778,647.058594,811.777344C647.324768,811.877075,647.580627,812.002014,647.824219,812.148438C648.398621,812.546265,648.897888,813.042419,649.300781,813.613281C649.866455,814.462158,650.38739,815.339966,650.863281,816.242188C651.379395,817.186646,652.059692,818.031738,652.875,818.734375C653.448853,819.200562,654.143799,819.495911,654.878906,819.574219C655.273132,819.594116,655.667969,819.598511,656.0625,819.585938L656.0625,818.230469L655.832031,818.242188C655.451904,818.244568,655.077393,818.159058,654.730469,818.003906C653.961609,817.561035,653.328613,816.916687,652.898438,816.140625C652.338013,815.087219,651.735962,814.056458,651.09375,813.050781C650.435486,812.106689,649.502747,811.387573,648.421875,810.992188C649.733398,810.294434,650.843262,809.271912,651.648438,808.023438C653.574646,804.905212,652.954224,800.848633,650.183594,798.449219C648.58667,796.957458,646.424927,796.224976,644.25,796.4375z"/>
    <path transform="matrix(-1,0,0,-1,0,0)" style="stroke:#000000;stroke-width:0.05mm;fill:none" d="M797.386719,811.070313C797.354431,811.122314,797.325684,811.175659,797.292969,811.226563C797.168762,811.641479,797.079895,812.066162,797.027344,812.496094L796.734375,814.378906C795.829956,814.634399,794.942505,814.887817,794.039063,815.148438C794.897339,815.424927,795.879883,815.740601,796.738281,816.015625C796.834351,816.858276,796.951599,817.698425,797.089844,818.535156C797.12439,818.716858,797.163269,818.897522,797.203125,819.078125C797.23645,819.210876,797.278137,819.341309,797.328125,819.46875C797.344604,819.484314,797.362366,819.49823,797.386719,819.503906C797.418884,819.441711,797.447449,819.377808,797.472656,819.3125C797.61853,818.775269,797.733521,818.230164,797.816406,817.679688L798.085938,816.015625C799.038757,815.710327,799.833435,815.454956,800.785156,815.148438C799.885071,814.888916,798.991455,814.633789,798.089844,814.378906C797.973755,813.437378,797.822937,812.500549,797.636719,811.570313C797.602417,811.414124,797.553711,811.261475,797.484375,811.117188L797.4375,811.066406L797.386719,811.070313z"/>
    <path transform="matrix(-1,0,0,-1,0,0)" style="stroke:#000000;stroke-width:0.05mm;fill:none" d="M745.589844,804.019531C744.936096,804.091492,744.310486,804.321167,743.761719,804.683594C742.060547,805.841003,741.50946,808.09436,742.484375,809.90625C743.538818,811.847412,745.965149,812.57019,747.90625,811.515625C749.716553,810.533691,750.488281,808.338806,749.6875,806.441406C748.998718,804.824585,747.338501,803.84491,745.589844,804.019531z"/>
    <path transform="matrix(-1,0,0,-1,0,0)" style="stroke:#000000;stroke-width:0.05mm;fill:none" d="M772.699219,803.558594L772.652344,803.609375C772.552246,803.837097,772.488159,804.078491,772.449219,804.324219C772.306396,805.169617,772.172363,806.015076,772.046875,806.863281L769.351563,807.636719C770.257202,807.924561,771.146545,808.208984,772.050781,808.5C772.144043,809.343018,772.261841,810.183105,772.402344,811.019531C772.448181,811.32074,772.523804,811.616272,772.617188,811.90625C772.630981,811.933472,772.647644,811.958862,772.664063,811.984375L772.683594,811.996094C772.704041,811.973877,772.719543,811.948792,772.738281,811.925781C772.781555,811.826721,772.81012,811.72229,772.835938,811.617188C772.955566,811.138794,773.053589,810.655273,773.128906,810.167969L773.398438,808.5C774.294189,808.211792,775.201233,807.921753,776.097656,807.636719L773.402344,806.863281C773.292236,806.009644,773.159424,805.159058,773.003906,804.3125C772.973389,804.159119,772.936707,804.00708,772.898438,803.855469L772.847656,803.703125C772.820496,803.650269,772.789429,803.599548,772.75,803.554688L772.699219,803.558594z"/>
    <path transform="matrix(-1,0,0,-1,0,0)" style="stroke:#000000;stroke-width:0.05mm;fill:none" d="M645.492188,798.222656C648.327515,798.435913,650.610107,800.635132,650.925781,803.460938C651.174744,805.799377,649.999451,808.06134,647.941406,809.199219C645.698181,810.449768,642.91095,810.144714,640.992188,808.4375C638.618164,806.323059,638.372681,802.699097,640.441406,800.285156C641.699585,798.831299,643.575989,798.064636,645.492188,798.222656z"/>
    <path transform="matrix(-1,0,0,-1,0,0)" style="stroke:#000000;stroke-width:0.05mm;fill:none" d="M807.75,786.929688C807.486633,788.13031,807.262634,789.339417,807.078125,790.554688L806.488281,794.121094C804.965271,794.581177,803.43512,795.017334,801.898438,795.429688C801.787598,795.474548,801.677551,795.521301,801.570313,795.574219C801.517395,795.604858,801.473877,795.648926,801.445313,795.703125C801.477661,795.735901,801.514343,795.763123,801.554688,795.785156C801.655457,795.830322,801.754822,795.877991,801.859375,795.914063C802.83905,796.240295,803.830688,796.529358,804.832031,796.78125C805.353638,796.913513,805.864075,797.086487,806.359375,797.296875C806.385071,797.313965,806.409302,797.332703,806.433594,797.351563C806.67334,798.351807,806.869873,799.361877,807.023438,800.378906C807.239868,801.781616,807.488647,803.179138,807.769531,804.570313C807.777344,804.59491,807.784607,804.620117,807.792969,804.644531C807.8078,804.596863,807.82373,804.549683,807.832031,804.5C808.08728,803.069153,808.319031,801.633728,808.527344,800.195313C808.645813,799.368408,808.807129,798.548157,809.011719,797.738281L809.09375,797.582031C809.161682,797.505493,809.234192,797.433167,809.3125,797.367188L809.417969,797.300781L809.535156,797.230469C809.632813,797.182068,809.732788,797.138855,809.832031,797.09375L810.007813,797.023438C810.816223,796.749817,811.634521,796.506165,812.460938,796.292969C812.962769,796.165894,813.452576,795.995056,813.925781,795.785156C813.952698,795.764282,813.978577,795.742188,813.996094,795.710938C813.930908,795.65332,813.857178,795.60791,813.78125,795.566406C813.009766,795.254578,812.215515,795.002258,811.40625,794.808594C810.706665,794.632996,810.018311,794.415588,809.34375,794.160156C809.31543,794.14209,809.289978,794.120422,809.265625,794.097656C809.224243,793.99115,809.178711,793.88623,809.132813,793.78125C808.820251,792.664001,808.581299,791.527466,808.417969,790.378906C808.253601,789.230469,808.043823,788.088867,807.789063,786.957031L807.755859,786.898438L807.75,786.929688z"/>
    <path transform="matrix(-1,0,0,-1,0,0)" style="stroke:#000000;stroke-width:0.05mm;fill:none" d="M666.5,792.449219L666.449219,792.503906L666.402344,792.605469C666.282898,793.021606,666.194275,793.445862,666.136719,793.875L665.84375,795.757813C664.944336,796.012024,664.046692,796.26825,663.148438,796.527344C663.969788,796.790405,665.027161,797.130005,665.847656,797.394531C665.942932,798.122803,666.041931,798.850891,666.144531,799.578125C666.193787,799.993896,666.284302,800.403992,666.417969,800.800781C666.438843,800.830566,666.455444,800.862671,666.480469,800.890625C666.503784,800.86908,666.518005,800.842102,666.535156,800.816406C666.712769,800.24176,666.843811,799.65387,666.929688,799.058594L667.199219,797.394531L669.894531,796.527344C668.996338,796.268311,668.098694,796.012085,667.199219,795.757813C667.087585,794.903015,666.954956,794.051331,666.800781,793.203125L666.746094,792.949219C666.721619,792.828186,666.683533,792.710815,666.644531,792.59375L666.59375,792.496094L666.546875,792.445313L666.5,792.449219z"/>
    <path transform="matrix(-1,0,0,-1,0,0)" style="stroke:#000000;stroke-width:0.05mm;fill:none" d="M845.425781,782.734375L845.378906,782.785156C845.244385,783.112061,845.161987,783.457458,845.121094,783.808594C844.996521,784.550842,844.880859,785.294128,844.773438,786.039063L842.078125,786.8125C842.972534,787.10199,843.881226,787.392639,844.777344,787.675781C844.872681,788.518616,844.989807,789.358582,845.128906,790.195313C845.177246,790.497437,845.245972,790.796021,845.34375,791.085938C845.363037,791.120911,845.389954,791.148987,845.425781,791.167969L845.464844,791.101563C845.499084,790.999268,845.530762,790.896057,845.5625,790.792969C845.680054,790.314148,845.777161,789.830566,845.855469,789.34375L846.125,787.675781C847.025513,787.389404,847.924805,787.101807,848.824219,786.8125L846.128906,786.039063C846.014282,785.098694,845.862732,784.163086,845.675781,783.234375C845.644226,783.114807,845.608398,782.996521,845.570313,782.878906L845.523438,782.78125L845.472656,782.730469L845.425781,782.734375z"/>
    <path transform="matrix(-1,0,0,-1,0,0)" style="stroke:#000000;stroke-width:0.05mm;fill:none" d="M701.976563,781.785156L701.925781,781.839844C701.822266,782.06604,701.757751,782.307861,701.726563,782.554688C701.577271,783.398926,701.441895,784.245056,701.320313,785.09375C700.425598,785.346436,699.518616,785.605469,698.625,785.863281C699.519775,786.151306,700.428467,786.441956,701.324219,786.726563C701.428894,787.6698,701.565186,788.609131,701.734375,789.542969C701.757263,789.776978,701.823608,790.005371,701.9375,790.210938C701.951233,790.218445,701.963562,790.216492,701.976563,790.21875C702.03009,790.097229,702.076172,789.972534,702.109375,789.84375C702.231506,789.365723,702.330566,788.88208,702.40625,788.394531L702.675781,786.726563C703.585449,786.437378,704.46637,786.15564,705.375,785.863281C704.43634,785.595154,703.61438,785.359558,702.675781,785.089844C702.565308,784.236267,702.432312,783.385681,702.277344,782.539063C702.244995,782.386108,702.210815,782.233459,702.171875,782.082031C702.144714,781.996643,702.111511,781.913452,702.074219,781.832031L702.023438,781.78125L701.976563,781.785156z"/>
    <path transform="matrix(-1,0,0,-1,0,0)" style="stroke:#000000;stroke-width:0.05mm;fill:none" d="M739.695313,781.558594L739.648438,781.609375C739.606506,781.691467,739.574402,781.778076,739.550781,781.867188C739.457275,782.235046,739.385559,782.608093,739.335938,782.984375L739.042969,784.863281L736.347656,785.636719C737.257935,785.926147,738.137939,786.207642,739.046875,786.5C739.142517,787.342712,739.259644,788.182861,739.398438,789.019531C739.445862,789.320435,739.519531,789.616455,739.613281,789.90625L739.636719,789.953125L739.660156,789.984375L739.679688,789.996094L739.695313,789.988281L739.734375,789.925781C739.909973,789.35083,740.041199,788.763306,740.125,788.167969L740.394531,786.5C741.293579,786.210693,742.193909,785.922729,743.09375,785.636719L740.398438,784.863281C740.288574,784.009644,740.155212,783.159119,740,782.3125C739.979919,782.157227,739.941467,782.005005,739.894531,781.855469C739.883118,781.74054,739.831299,781.632507,739.746094,781.554688L739.695313,781.558594z"/>
    <path transform="matrix(-1,0,0,-1,0,0)" style="stroke:#000000;stroke-width:0.05mm;fill:none" d="M641.398438,779.765625C641.289917,779.917664,641.224976,780.095764,641.203125,780.28125C641.137207,780.58252,641.08252,780.886108,641.039063,781.191406L640.746094,783.070313L638.050781,783.84375C638.944214,784.131409,639.855347,784.422791,640.75,784.707031C640.845764,785.549744,640.962769,786.389893,641.101563,787.226563C641.137085,787.560181,641.221558,787.88739,641.363281,788.191406L641.382813,788.203125C641.405518,788.183167,641.422485,788.158569,641.4375,788.132813C641.615479,787.558472,641.746643,786.970764,641.828125,786.375L642.097656,784.707031C642.997681,784.422607,643.898804,784.134399,644.796875,783.84375L642.101563,783.070313C641.99115,782.216736,641.858337,781.36615,641.703125,780.519531C641.668945,780.312256,641.614868,780.108887,641.546875,779.910156L641.496094,779.8125L641.449219,779.761719L641.398438,779.765625z"/>
    <path transform="matrix(-1,0,0,-1,0,0)" style="stroke:#000000;stroke-width:0.05mm;fill:none" d="M773.980469,772.824219L773.957031,772.851563C773.938721,772.883545,773.923218,772.916748,773.90625,772.949219C773.743958,773.451538,773.630249,773.968201,773.566406,774.492188L773.324219,776.167969C772.461487,776.435974,771.566711,776.711975,770.703125,776.976563C771.545166,777.258484,772.480835,777.57074,773.324219,777.851563C773.417114,778.518921,773.514771,779.185608,773.617188,779.851563C773.671448,780.281616,773.776489,780.703857,773.929688,781.109375C773.952759,781.134521,773.971741,781.162354,774,781.183594C774.025696,781.161133,774.049927,781.137329,774.070313,781.109375C774.245972,780.593323,774.367432,780.060608,774.433594,779.519531L774.675781,777.851563C775.524658,777.569214,776.448853,777.26062,777.296875,776.976563C776.418091,776.707275,775.554077,776.440796,774.675781,776.167969C774.583191,775.496582,774.485474,774.826233,774.382813,774.15625C774.324036,773.725647,774.221619,773.30188,774.070313,772.894531C774.053589,772.870972,774.038025,772.846619,774.019531,772.824219L774,772.816406L773.980469,772.824219z"/>
    <path transform="matrix(-1,0,0,-1,0,0)" style="stroke:#000000;stroke-width:0.05mm;fill:none" d="M683.695313,761.558594L683.648438,761.609375C683.518311,761.936584,683.429382,762.27887,683.390625,762.628906C683.277588,763.365479,683.159058,764.126953,683.042969,764.863281L680.347656,765.636719C681.25,765.923584,682.145508,766.209961,683.046875,766.5C683.143188,767.342529,683.260193,768.1828,683.398438,769.019531C683.443665,769.338501,683.523987,769.651367,683.636719,769.953125C683.652649,769.970703,683.671936,769.982666,683.695313,769.988281L683.734375,769.925781C683.911133,769.351135,684.041565,768.763367,684.125,768.167969L684.394531,766.5C685.28772,766.212646,686.199524,765.921021,687.09375,765.636719L684.398438,764.863281C684.285034,763.922729,684.133911,762.987061,683.945313,762.058594C683.921387,761.9375,683.887634,761.818481,683.84375,761.703125L683.792969,761.601563L683.746094,761.554688L683.695313,761.558594z"/>
    <path transform="matrix(-1,0,0,-1,0,0)" style="stroke:#000000;stroke-width:0.05mm;fill:none" d="M736.9375,759.523438L736.886719,759.578125L736.839844,759.679688L736.789063,759.835938C736.698059,760.203003,736.626648,760.574707,736.574219,760.949219L736.28125,762.832031C735.377869,763.092529,734.490784,763.345825,733.585938,763.601563C734.479492,763.887695,735.392212,764.180908,736.285156,764.46875C736.381104,765.200378,736.479492,765.925537,736.582031,766.65625C736.632568,767.070557,736.723572,767.479004,736.855469,767.875C736.872314,767.908264,736.894897,767.936707,736.917969,767.964844C736.939453,767.942688,736.958496,767.918518,736.972656,767.890625C737.152588,767.316833,737.285034,766.729065,737.363281,766.132813L737.636719,764.46875L740.332031,763.601563C739.436218,763.348389,738.531189,763.089966,737.636719,762.832031C737.524841,761.977295,737.392273,761.125549,737.238281,760.277344C737.205811,760.12439,737.172058,759.97168,737.132813,759.820313C737.100159,759.713501,737.049744,759.613892,736.984375,759.523438L736.9375,759.523438z"/>
    <path transform="matrix(-1,0,0,-1,0,0)" style="stroke:#000000;stroke-width:0.05mm;fill:none" d="M667.328125,747.632813C664.468201,748.265015,661.546082,748.573364,658.617188,748.550781C655.262817,748.575073,651.919189,748.169434,648.667969,747.34375L648.667969,748.84375C650.202209,749.264648,651.764893,749.574097,653.34375,749.769531L653.34375,765.335938C651.760132,765.488159,650.19458,765.790466,648.667969,766.238281L648.667969,767.742188C649.894592,767.401245,651.14563,767.155579,652.410156,767.007813C656.299744,766.508362,660.234863,766.473083,664.132813,766.902344C665.622498,767.083679,667.098511,767.364258,668.550781,767.742188L668.550781,766.238281C667.028564,765.79425,665.468506,765.492493,663.890625,765.335938L663.890625,749.769531C665.464294,749.57373,667.021667,749.264038,668.550781,748.84375L668.550781,747.34375L667.328125,747.632813z"/>
    <path transform="matrix(-1,0,0,-1,0,0)" style="stroke:#000000;stroke-width:0.05mm;fill:none" d="M662.082031,765.214844C659.772888,765.080139,657.457642,765.080078,655.148438,765.214844L655.148438,749.882813C657.453796,750.115967,659.776733,750.116211,662.082031,749.882813L662.082031,765.214844z"/>
    <path transform="matrix(-1,0,0,-1,0,0)" style="stroke:#000000;stroke-width:0.05mm;fill:none" d="M823.523438,754.351563L823.523438,756.171875L828.898438,756.171875C827.965881,757.048523,827.434631,758.270874,827.425781,759.550781C827.463928,761.948059,828.998413,764.06427,831.261719,764.855469C833.238831,765.565186,835.44574,765.161926,837.039063,763.792969C838.036011,762.938171,838.716858,761.773254,838.96875,760.484375C839.240479,758.903015,838.712891,757.290405,837.5625,756.171875L842.945313,756.171875L842.945313,754.351563L835.269531,754.351563L835.269531,756.046875C836.962952,757.022278,837.675781,759.100037,836.929688,760.90625C836.079651,762.943909,833.745667,763.916321,831.703125,763.078125C830.514771,762.587952,829.639038,761.553894,829.335938,760.304688C829.106628,759.322388,829.270508,758.288635,829.792969,757.425781C830.141479,756.855713,830.621643,756.376038,831.203125,756.046875L831.203125,754.351563L823.523438,754.351563z"/>
    <path transform="matrix(-1,0,0,-1,0,0)" style="stroke:#000000;stroke-width:0.05mm;fill:none" d="M790.699219,756.558594L790.652344,756.609375L790.605469,756.714844C790.479065,757.129211,790.390625,757.554138,790.339844,757.984375L790.046875,759.863281L787.351563,760.636719C788.261353,760.925842,789.142883,761.207825,790.050781,761.5C790.146973,762.342651,790.263672,763.1828,790.402344,764.019531C790.440735,764.339722,790.522888,764.652893,790.640625,764.953125C790.654907,764.967529,790.66687,764.983582,790.683594,764.996094L790.699219,764.988281L790.738281,764.925781C790.915649,764.351318,791.045349,763.763367,791.128906,763.167969L791.398438,761.5C792.297485,761.210693,793.197266,760.922974,794.097656,760.636719L791.402344,759.863281C791.291626,759.009705,791.159119,758.159119,791.003906,757.3125C790.966492,757.105896,790.914917,756.902039,790.847656,756.703125L790.796875,756.601563L790.75,756.554688L790.699219,756.558594z"/>
    <path transform="matrix(-1,0,0,-1,0,0)" style="stroke:#000000;stroke-width:0.05mm;fill:none" d="M706.976563,754.785156C706.936584,754.833008,706.907776,754.887207,706.878906,754.941406C706.828125,755.055542,706.799255,755.177551,706.777344,755.300781C706.596069,756.225525,706.443604,757.155579,706.320313,758.089844L703.625,758.863281C704.520569,759.151489,705.427917,759.44165,706.324219,759.726563C706.421265,760.569214,706.540039,761.409424,706.679688,762.246094C706.72467,762.566467,706.801819,762.881653,706.917969,763.183594C706.93457,763.199585,706.953186,763.212402,706.976563,763.21875C707.006836,763.154907,707.033691,763.089539,707.058594,763.023438C707.206299,762.487732,707.323975,761.944092,707.40625,761.394531L707.675781,759.726563C708.560791,759.445313,709.490784,759.147949,710.375,758.863281C709.511047,758.616516,708.540222,758.33844,707.675781,758.089844C707.566101,757.236206,707.433105,756.385559,707.277344,755.539063L707.222656,755.285156C707.200195,755.163757,707.164551,755.045288,707.121094,754.929688L707.074219,754.832031L707.023438,754.78125L706.976563,754.785156z"/>
    <path transform="matrix(-1,0,0,-1,0,0)" style="stroke:#000000;stroke-width:0.05mm;fill:none" d="M762.304688,754.667969C762.269714,754.718811,762.238708,754.771729,762.207031,754.824219C762.084595,755.239563,761.996826,755.664307,761.941406,756.09375L761.652344,757.972656L758.957031,758.746094C759.851868,759.035278,760.755981,759.324829,761.652344,759.609375C761.755493,760.552734,761.892334,761.492188,762.0625,762.425781C762.090393,762.65863,762.159485,762.884644,762.265625,763.09375L762.285156,763.105469C762.308411,763.084778,762.321655,763.058777,762.339844,763.035156C762.514954,762.459839,762.647034,761.872375,762.734375,761.277344L763.003906,759.609375C763.909058,759.321594,764.798828,759.037048,765.703125,758.746094C764.717896,758.463379,763.991089,758.255127,763.003906,757.972656C762.890503,757.032288,762.740417,756.096741,762.554688,755.167969L762.5,754.964844C762.473938,754.879028,762.439392,754.796387,762.402344,754.714844L762.351563,754.664063L762.304688,754.667969z"/>
    <path transform="matrix(-1,0,0,-1,0,0)" style="stroke:#000000;stroke-width:0.05mm;fill:none" d="M823.523438,748.929688L823.523438,750.75L842.945313,750.75L842.945313,748.929688L823.523438,748.929688z"/>
    <path transform="matrix(-1,0,0,-1,0,0)" style="stroke:#000000;stroke-width:0.05mm;fill:none" d="M728.960938,732.585938C728.702209,733.787231,728.479431,734.996277,728.292969,736.210938L727.699219,739.777344C726.17627,740.237122,724.645813,740.673645,723.109375,741.085938C722.97113,741.135986,722.835876,741.194214,722.714844,741.277344C722.688965,741.307678,722.672913,741.342957,722.667969,741.382813C722.759094,741.437317,722.854675,741.483765,722.953125,741.523438C723.813965,741.833252,724.691956,742.092896,725.582031,742.304688C726.259949,742.471252,726.924561,742.687988,727.570313,742.953125L727.621094,742.984375C727.644592,743.028625,727.666504,743.073486,727.683594,743.121094C727.992798,744.560486,728.257446,746.009094,728.476563,747.464844C728.627563,748.407532,728.80072,749.346741,728.996094,750.28125L729.007813,750.300781C729.224548,749.250549,729.401978,748.192505,729.539063,747.128906C729.701111,745.935547,729.913818,744.749634,730.175781,743.574219C730.19397,743.513977,730.215942,743.455811,730.226563,743.394531L730.308594,743.238281L730.441406,743.09375C730.621887,742.947327,730.826294,742.833984,731.042969,742.75L731.222656,742.679688C732.030579,742.404541,732.848938,742.160767,733.675781,741.949219C734.175049,741.817566,734.66394,741.648865,735.136719,741.441406C735.159973,741.424316,735.184875,741.409851,735.207031,741.390625L735.210938,741.367188C735.187622,741.346008,735.168091,741.32196,735.140625,741.304688L735.078125,741.265625C734.578735,741.037109,734.059387,740.855042,733.527344,740.71875C732.521912,740.472839,731.530884,740.171387,730.558594,739.816406L730.515625,739.792969C730.46637,739.725281,730.424011,739.652893,730.394531,739.574219C730.111145,738.651123,729.89624,737.708374,729.75,736.753906C729.550232,735.393738,729.308044,734.040344,729.023438,732.695313L729.003906,732.613281L728.966797,732.554688L728.960938,732.585938z"/>
    <path transform="matrix(-1,0,0,-1,0,0)" style="stroke:#000000;stroke-width:0.05mm;fill:none" d="M812.5,740.902344L812.453125,740.957031L812.402344,741.058594C812.281982,741.474304,812.192627,741.898438,812.140625,742.328125L811.847656,744.210938C810.947388,744.470581,810.054016,744.725708,809.152344,744.980469C810.068298,745.275696,810.933777,745.553772,811.851563,745.847656C811.947937,746.690247,812.064941,747.530457,812.203125,748.367188C812.250488,748.668091,812.322632,748.9646,812.417969,749.253906L812.441406,749.300781C812.454773,749.315979,812.468384,749.330994,812.484375,749.34375C812.505493,749.320313,812.518616,749.293091,812.539063,749.269531C812.716797,748.69519,812.845459,748.106995,812.929688,747.511719L813.199219,745.847656C814.14917,745.543335,814.949097,745.286255,815.898438,744.980469C814.996826,744.725708,814.103271,744.470581,813.203125,744.210938C813.0896,743.269104,812.938416,742.332153,812.75,741.402344L812.699219,741.199219C812.670532,741.113831,812.635986,741.030701,812.597656,740.949219L812.550781,740.902344L812.5,740.902344z"/>
    <path transform="matrix(-1,0,0,-1,0,0)" style="stroke:#000000;stroke-width:0.05mm;fill:none" d="M789.902344,708.554688C790.416565,709.157532,790.862366,709.815857,791.226563,710.519531C791.480896,711.03656,791.661072,711.586487,791.769531,712.152344C790.54187,713.182251,789.490112,714.404968,788.65625,715.773438C786.514771,719.477539,786.681824,724.079102,789.082031,727.621094L790.574219,727.070313C791.233765,726.062378,791.756165,724.970886,792.125,723.824219L792.125,727.265625C792.111389,728.88623,792.624268,730.467957,793.589844,731.769531L795.332031,731.441406C796.314514,730.326782,797.067139,729.028687,797.542969,727.621094C797.625854,728.46875,797.825439,729.300964,798.136719,730.09375C798.37793,730.690918,798.695862,731.254089,799.082031,731.769531L800.851563,731.441406C801.765564,730.383423,802.485779,729.172424,802.976563,727.863281C803.151367,729.149048,803.626343,730.376099,804.367188,731.441406L806.269531,731.441406C805.280396,729.983643,804.762878,728.257629,804.78125,726.496094L804.78125,713.375L802.976563,713.375L802.976563,724.703125C802.424255,726.675232,801.463135,728.509094,800.15625,730.085938C799.941589,729.720215,799.789917,729.32135,799.703125,728.90625C799.46405,727.900696,799.350586,726.869446,799.363281,725.835938L799.363281,713.375L797.542969,713.375L797.542969,724.277344C797.220642,725.669922,796.710144,727.011963,796.023438,728.265625C795.645508,728.913269,795.206604,729.523315,794.710938,730.085938C794.541931,729.805542,794.414063,729.50238,794.324219,729.1875C794.029846,728.163574,793.897095,727.100037,793.929688,726.035156L793.929688,715.046875C793.927063,714.25824,793.86554,713.470947,793.746094,712.691406L794.128906,712.476563C795.209595,711.942322,796.358276,711.55896,797.542969,711.335938L797.542969,709.785156C796.090454,709.986267,794.685486,710.44519,793.394531,711.140625C793.072205,710.2146,792.610291,709.34314,792.027344,708.554688L789.902344,708.554688z"/>
    <path transform="matrix(-1,0,0,-1,0,0)" style="stroke:#000000;stroke-width:0.05mm;fill:none" d="M702.445313,717.777344C700.000427,717.936707,698.104309,719.97583,698.125,722.425781C698.130066,723.157532,698.302917,723.878052,698.625,724.535156C699.134155,725.465149,699.932312,726.203918,700.898438,726.640625C699.863831,727.054871,698.77417,727.316101,697.664063,727.414063C695.487,727.666687,693.283752,727.580811,691.132813,727.160156C688.760376,726.723694,686.453796,725.984558,684.269531,724.960938L684.269531,726.917969C686.791931,728.120361,689.492004,728.906311,692.265625,729.246094C694.772644,729.511841,697.305786,729.364746,699.765625,728.8125C700.967041,728.521667,702.135559,728.108704,703.253906,727.582031C704.128113,727.145142,704.940186,726.593628,705.667969,725.941406C706.216431,725.438782,706.655396,724.828491,706.957031,724.148438C707.92627,721.882568,706.929688,719.255554,704.703125,718.199219C703.996582,717.874878,703.22113,717.727539,702.445313,717.777344z"/>
    <path transform="matrix(-1,0,0,-1,0,0)" style="stroke:#000000;stroke-width:0.05mm;fill:none" d="M772.019531,720.121094C771.983154,720.172852,771.954956,720.228394,771.921875,720.28125L771.875,720.433594C771.779053,720.801147,771.704895,721.174072,771.65625,721.550781L771.367188,723.429688L768.671875,724.203125C769.571899,724.489197,770.472046,724.777039,771.371094,725.066406C771.466003,725.90918,771.583252,726.74939,771.722656,727.585938C771.762634,727.918274,771.846252,728.244141,771.980469,728.550781C771.993225,728.55542,772.006226,728.55658,772.019531,728.554688L772.058594,728.488281C772.232422,727.912903,772.362061,727.325195,772.449219,726.730469L772.71875,725.066406C773.613342,724.776855,774.521667,724.486328,775.417969,724.203125L772.722656,723.429688C772.608032,722.487976,772.456665,721.551086,772.269531,720.621094C772.238892,720.502441,772.207703,720.383972,772.164063,720.269531C772.138428,720.215515,772.104858,720.166504,772.066406,720.121094L772.019531,720.121094z"/>
    <path transform="matrix(-1,0,0,-1,0,0)" style="stroke:#000000;stroke-width:0.05mm;fill:none" d="M703.113281,719.003906C704.860535,719.201416,706.164795,720.703186,706.117188,722.460938C706.080505,724.256042,704.634949,725.702576,702.839844,725.738281C701.027893,725.789856,699.490112,724.416443,699.347656,722.609375C699.203186,720.774963,700.56189,719.165344,702.394531,719C702.633667,718.975891,702.874756,718.97467,703.113281,719.003906z"/>
    <path transform="matrix(-1,0,0,-1,0,0)" style="stroke:#000000;stroke-width:0.05mm;fill:none" d="M792.125,721.015625C791.666504,722.61676,790.917053,724.11969,789.914063,725.449219C788.157104,721.698914,788.880371,717.255188,791.738281,714.257813L792.125,713.851563L792.125,721.015625z"/>
    <path transform="matrix(-1,0,0,-1,0,0)" style="stroke:#000000;stroke-width:0.05mm;fill:none" d="M695.84375,711.335938C694.509277,711.384338,693.181946,711.555481,691.878906,711.847656C690.331055,712.208435,688.843262,712.789978,687.460938,713.574219C686.588013,714.09552,685.814209,714.767334,685.175781,715.558594C683.753845,717.472595,684.028748,720.155518,685.808594,721.742188C687.625549,723.349731,690.379822,723.267761,692.097656,721.554688C693.693359,719.982849,693.927734,717.492432,692.65625,715.648438C692.158264,714.945557,691.484375,714.386353,690.703125,714.023438C691.558533,713.674805,692.457581,713.443848,693.375,713.335938C695.131348,713.068542,696.915955,713.040527,698.679688,713.253906C701.673645,713.589966,704.591675,714.417603,707.316406,715.703125L707.316406,713.746094C705.333679,712.794128,703.235229,712.104614,701.074219,711.695313C699.352844,711.356018,697.595337,711.235291,695.84375,711.335938z"/>
    <path transform="matrix(-1,0,0,-1,0,0)" style="stroke:#000000;stroke-width:0.05mm;fill:none" d="M688.996094,714.929688C690.797607,715.004639,692.230042,716.466736,692.261719,718.269531C692.265686,720.142761,690.759888,721.669312,688.886719,721.6875C687.11792,721.7005,685.636414,720.348877,685.492188,718.585938C685.319153,716.870544,686.485535,715.308044,688.179688,714.988281C688.447998,714.933167,688.722473,714.916199,688.996094,714.929688z"/>
    <path transform="matrix(-1,0,0,-1,0,0)" style="stroke:#000000;stroke-width:0.05mm;fill:none" d="M739.878906,694.683594C739.051636,694.818054,738.265259,695.135132,737.574219,695.609375C737.129822,695.892334,736.71637,696.221313,736.339844,696.589844L737.398438,697.75C737.796021,697.403564,738.218872,697.087341,738.664063,696.804688C739.205017,696.486267,739.817749,696.310608,740.445313,696.296875C741.42981,696.336548,742.262634,697.038208,742.476563,698C742.566406,698.350708,742.588745,698.715088,742.542969,699.074219C742.276367,700.290649,741.882446,701.475647,741.367188,702.609375C740.809021,703.942932,740.215149,705.260925,739.585938,706.5625C739.08905,707.616943,738.634094,708.690613,738.222656,709.78125C737.645874,711.443787,737.566345,713.237854,737.992188,714.945313C738.535095,716.85791,740.003906,718.370483,741.902344,718.960938C743.820801,719.611328,745.91925,719.473572,747.734375,718.574219C749.68219,717.574097,750.885376,715.548462,750.839844,713.359375C750.72052,711.823669,750.266724,710.332581,749.507813,708.992188C750.459717,709.336487,751.501404,709.345581,752.457031,709.011719C754.86676,708.168274,756.192505,705.581604,755.457031,703.136719C754.810791,700.990479,752.753357,699.588379,750.519531,699.773438L750.246094,699.800781C749.25531,699.943176,748.336609,700.397766,747.617188,701.09375C747.257813,701.446411,746.946228,701.844727,746.695313,702.28125C746.22998,703.12616,746.067261,704.105408,746.238281,705.054688C746.567627,706.320801,747.055298,707.540405,747.691406,708.683594C748.119812,709.56897,748.476746,710.487183,748.757813,711.429688C749.025452,712.418884,749.083557,713.452881,748.921875,714.464844C748.777466,715.151062,748.460327,715.788513,748.007813,716.324219C747.276917,717.158447,746.259277,717.688599,745.15625,717.804688C744.102356,717.957886,743.025574,717.798767,742.066406,717.335938C741.758606,717.169128,741.464966,716.977234,741.195313,716.753906C740.585632,716.247131,740.133606,715.576355,739.882813,714.824219C739.52948,713.884705,739.441284,712.866394,739.621094,711.878906C739.745117,711.067871,739.961548,710.273743,740.265625,709.511719C740.881042,708.04834,741.545471,706.606201,742.257813,705.1875C742.987549,703.624084,743.601318,702.009094,744.09375,700.355469C744.286499,699.636292,744.370483,698.892639,744.347656,698.148438C744.153625,696.104309,742.395569,694.568604,740.34375,694.648438L739.878906,694.683594z"/>
    <path transform="matrix(-1,0,0,-1,0,0)" style="stroke:#000000;stroke-width:0.05mm;fill:none" d="M721.011719,702.3125L720.964844,702.363281C720.799744,702.805603,720.694946,703.268066,720.652344,703.738281L720.359375,705.617188L717.664063,706.390625C718.553284,706.673279,719.475708,706.968323,720.363281,707.253906C720.458496,708.096619,720.5755,708.93689,720.714844,709.773438C720.753784,710.106384,720.839722,710.432312,720.976563,710.738281C720.987793,710.742554,720.999451,710.744568,721.011719,710.742188L721.050781,710.679688C721.227783,710.105103,721.358154,709.517273,721.441406,708.921875L721.710938,707.253906C722.606567,706.96582,723.514526,706.675415,724.410156,706.390625L721.714844,705.617188C721.604919,704.76355,721.471924,703.912964,721.316406,703.066406C721.280029,702.820984,721.213074,702.580872,721.109375,702.355469L721.0625,702.308594L721.011719,702.3125z"/>
    <path transform="matrix(-1,0,0,-1,0,0)" style="stroke:#000000;stroke-width:0.05mm;fill:none" d="M751.199219,701.113281C752.30127,701.194031,753.293518,701.812866,753.839844,702.773438C754.762634,704.33606,754.295593,706.345642,752.785156,707.351563C751.304993,708.326904,749.318115,707.957825,748.292969,706.511719C747.213989,704.992676,747.533813,702.888794,749.023438,701.769531C749.157776,701.670105,749.29718,701.577515,749.445313,701.5C749.59198,701.418396,749.748657,701.358521,749.90625,701.300781C750.323792,701.165588,750.760498,701.099365,751.199219,701.113281z"/>
</svg>
