<?xml version="1.0" encoding="UTF-8"?>
<svg xmlns="http://www.w3.org/2000/svg" width="321.302mm" height="500.001mm" viewBox="-426.547913 -618.018494 321.302429 500.000977">
    <path transform="matrix(-1,0,0,-1,0,0)" style="stroke:none;fill:#000000;fill-rule:evenodd" d="M304.974823,617.358887C304.095581,616.976196,303.240692,616.443848,303.075043,616.175781C302.808136,615.743958,302.159821,612.527344,300.63092,604.049194C299.770477,599.277771,298.497894,587.511597,297.64798,576.469238C297.410156,573.379272,296.92395,568.552734,296.567535,565.743652C296.041107,561.594604,295.716248,546.44519,295.970673,537.908386C295.999969,536.925232,296.031342,534.97168,296.040405,533.567139C296.055634,531.201965,296.761261,520.832275,297.395813,513.648254C297.544678,511.96283,297.358765,508.975525,296.982697,507.009888C296.220001,503.023376,295.316193,502.294128,293.617554,504.294617C289.952484,508.611023,288.994141,510.005493,288.681335,511.477264C288.010651,514.632813,285.858856,515.843994,284.081329,514.066528C282.853485,512.838623,283.350189,509.523499,285.175903,506.760925L286.654572,504.523529L286.492554,493.763702C286.344513,483.932922,286.244629,482.91214,285.335876,481.941498C283.990051,480.503998,280.202545,478.662598,278.591644,478.662598C277.24588,478.662598,274.141449,475.549072,274.141449,474.199341C274.141449,472.985962,272.054108,469.090576,270.315552,467.059448C268.883392,465.386292,267.522339,464.627686,262.300323,462.592163C251.764603,458.485352,251.644287,458.416931,247.072235,453.935822C242.801712,449.750244,237.729645,445.965027,235.002136,444.92804C232.126846,443.834839,225.404022,437.509338,222.775192,433.423737C221.206345,430.985474,219.215225,429.010712,216.253418,426.955536C214.826324,425.965302,212.852676,421.263428,212.852676,418.853912C212.852676,416.178284,209.599701,408.742126,206.770798,404.950928C204.129532,401.411224,195.419479,393.096954,191.694794,390.559998C190.04512,389.436371,187.752914,387.776642,186.601013,386.871765C185.449097,385.966858,183.592606,384.728943,182.475479,384.12085C180.051392,382.801392,175.533371,379.512848,174.763702,378.507721C174.462097,378.1138,173.949112,376.858398,173.623734,375.717987C172.737625,372.61203,171.299469,371.570862,167.396851,371.210052C159.895554,370.516479,157.320358,370.08374,156.13327,369.317383C154.381302,368.186371,152.895477,367.801941,148.499481,367.342346C144.836624,366.959381,142.2668,366.0961,134.668777,362.696228C132.152618,361.570313,130.535553,361.192474,128.233063,361.192474C124.615677,361.192474,123.153778,360.762817,117.344368,357.992157C111.568336,355.237427,109.939568,353.962372,107.627892,350.385742C104.408058,345.404053,104.452156,341.729797,107.755272,339.771912C110.506638,338.141113,110.729347,337.829651,110.179039,336.382202C109.468575,334.51355,109.567688,331.740601,110.402176,330.139679C111.077187,328.844696,116.106285,323.924072,122.825493,317.984375C124.445839,316.552002,127.002136,314.721252,128.506165,313.916016C130.010193,313.110779,132.252914,311.561035,133.48999,310.472107C136.058975,308.210785,139.720184,307.101501,144.711151,307.072266C147.698044,307.054779,147.879303,306.977539,149.413803,305.068054C150.955612,303.149475,151.14505,303.069946,154.989731,302.727539C160.648041,302.223572,165.17189,302.267578,168.418335,302.858185C174.54393,303.972565,176.967621,304.47937,179.80722,305.239624C181.436127,305.675781,184.03685,306.032593,185.586609,306.032593C189.067993,306.032593,190.258911,306.639191,191.20015,308.891907C191.75618,310.222656,192.641724,311.000214,194.859772,312.105225C196.469131,312.906982,198.547134,313.961121,199.4776,314.447754C202.561249,316.060425,202.343231,314.085815,199.185043,311.798096C196.924377,310.160461,190.79953,303.645203,187.060333,298.900543C185.655792,297.118347,183.559128,294.603943,182.401062,293.312988C181.243011,292.022034,179.820831,290.026123,179.240692,288.877716C178.349182,287.112915,177.62677,286.539673,174.574448,285.174866C172.588181,284.286713,170.605255,283.560059,170.167953,283.560059C168.391006,283.560059,161.85556,280.06485,160.960419,278.635803C160.457428,277.832825,158.884415,275.878052,157.464813,274.291931C150.185837,266.159058,148.348343,263.160889,145.146515,254.19252C143.577911,249.798935,143.369934,248.700806,143.658264,246.335205C143.889984,244.434204,144.36647,243.212296,145.201782,242.376984C147.544693,240.034073,149.60556,241.152069,153.363297,246.80452C156.985428,252.252991,157.800919,252.361771,162.31311,247.998611C164.839813,245.555328,167.357635,244.422989,175.313324,242.152054C179.853455,240.856079,181.245483,240.692139,187.846756,240.676041C194.706299,240.659317,195.649078,240.775558,200.205872,242.199921C203.211853,243.139542,205.997208,244.395477,207.335922,245.414902C208.54425,246.335052,211.141693,247.840637,213.108047,248.760651C216.548874,250.370544,238.969574,258.023071,240.245483,258.023071C240.921341,258.023071,247.941513,260.404297,255.937622,263.345795C262.64325,265.812561,268.011688,267.21637,270.73941,267.21637C272.880463,267.21637,273.155212,267.028625,277.280396,262.747437C281.494049,258.37439,284.356232,253.874527,284.356232,251.622971C284.356232,251.022293,285.047424,249.914963,285.892242,249.162231C287.404694,247.814636,287.416443,247.765366,286.658356,245.951004C285.649933,243.537506,285.687073,242.530701,286.822449,241.503204C287.852509,240.571014,290.244843,240.36676,290.740479,241.168671C291.314484,242.097458,292.540771,241.699539,293.136993,240.391037C293.667511,239.226685,293.549988,238.943268,291.916168,237.446747C290.881195,236.498734,289.946289,235.053131,289.729309,234.065277C289.396606,232.550507,289.544403,232.158356,290.939209,230.854813C292.19046,229.68541,292.528076,228.947693,292.528076,227.38295C292.528076,226.290131,292.312317,225.26268,292.048615,225.099716C291.784973,224.936752,290.894684,223.601654,290.070282,222.132813C287.444275,217.454056,287.547455,212.415344,290.315125,210.175522C291.659271,209.087723,291.675537,209.008621,290.985657,206.918182C290.294861,204.825134,290.311066,204.747772,291.687164,203.564087C293.449066,202.048553,294.479553,202.040741,296.67041,203.526367C299.152893,205.209763,300.124359,205.487518,301.310028,204.852966C302.191528,204.381195,302.311005,203.957977,302.066406,202.17334C301.57486,198.587341,300.358032,196.2789,298.781494,195.941803C296.237701,195.397858,295.073975,194.72229,294.496124,193.454056C294.011658,192.390793,294.156006,191.792023,295.452179,189.488312C296.304657,187.973236,297.631378,186.43866,298.456329,186.01355C303.466919,183.431564,306.508545,181.337982,309.898102,178.138031C314.596802,173.702209,317.772491,171.147186,324.426483,166.449158C325.141266,165.944458,325.726135,165.183319,325.726135,164.757751C325.726135,164.332184,326.520203,162.331879,327.490723,160.312622C329.019165,157.132584,331.042603,151.976166,334.242554,143.106659C334.838257,141.455597,336.548401,139.298035,340.315063,135.445557C346.423035,129.198486,348.198669,126.269913,348.198669,122.443253C348.198669,117.600876,344.403992,118.027008,387.525635,118.027008C421.537109,118.027008,425.612457,118.111885,426.138428,118.831238C426.821411,119.765244,426.60434,134.101257,425.84436,138.254639C424.312988,146.623779,424.237274,148.497864,424.513794,171.197327C424.669495,183.978592,425.045319,200.641479,425.348969,208.225952C425.84964,220.732513,425.947235,229.785919,425.84433,254.19252C425.825378,258.687012,425.85022,264.088104,425.899536,266.194885C425.948853,268.301697,425.670868,271.864136,425.28183,274.111389C424.338776,279.558929,424.347351,319.91507,425.29303,326.71756C425.698975,329.637451,426.013641,340.213654,426.155731,355.711517C426.370422,379.125854,426.337555,380.249573,425.339172,383.601898C424.460541,386.552094,424.298889,388.523407,424.298889,396.286316C424.298889,406.780792,424.569305,406.062012,419.101105,410.101593C417.509735,411.277222,415.442596,413.200867,414.507446,414.376312C413.572357,415.551788,411.512665,417.913727,409.930389,419.625061C406.509766,423.324738,404.414734,427.347321,402.930786,433.06488C402.114868,436.208405,401.967438,437.59726,402.34433,438.588623C403.184601,440.798676,402.929108,442.070679,401.008514,445.239197C399.336395,447.997742,397.740417,452.500916,397.740417,454.460358C397.740417,454.886139,398.429901,455.814697,399.272644,456.523773C400.115387,457.23288,400.802612,458.194855,400.799866,458.661438C400.79129,460.117157,398.341949,464.859558,396.467834,467.049042C395.4823,468.200378,394.675995,469.408081,394.675995,469.732788C394.675995,470.057526,393.738342,471.164978,392.592285,472.193787C390.805817,473.797546,390.554352,474.272766,390.829407,475.525208C391.276093,477.55896,389.77298,481.08844,388.100739,481.932465C387.363068,482.304779,385.150696,483.130981,383.184357,483.768433C381.218018,484.405884,379.321869,485.154816,378.970734,485.432739C378.087524,486.131775,378.172699,487.889801,379.188507,489.926025C380.023346,491.599426,380.010559,491.703583,378.677765,494.090668C377.778809,495.700867,377.310852,497.301697,377.310852,498.766846C377.310852,500.473267,376.95224,501.445923,375.778625,502.922729C374.573608,504.439087,374.246399,505.356537,374.246399,507.21936C374.246399,509.508057,374.121521,509.702026,370.543549,512.971252C368.506958,514.832031,365.866089,517.206848,364.674896,518.248535C363.19458,519.543091,362.332916,520.812134,361.952362,522.258179C361.646179,523.421753,360.931244,525.173279,360.363617,526.150391C359.796021,527.127625,358.671051,529.589966,357.863708,531.622375C356.151001,535.93396,352.270447,543.286865,349.944366,546.628174C349.05011,547.912781,347.91452,549.751465,347.420776,550.714111C346.504272,552.501343,345.271729,554.15918,342.024414,557.9729C341.016327,559.15686,339.234985,561.504578,338.06601,563.190002C336.896973,564.875427,335.498535,566.828979,334.958282,567.53125C330.041321,573.923218,323.544312,585.845947,320.150635,594.704956C319.042755,597.596985,316.990326,602.491455,315.589722,605.581421C314.189117,608.671387,312.65271,612.310669,312.175507,613.668762C311.581146,615.360474,310.803711,616.445496,309.706757,617.11438C307.828369,618.259766,307.128082,618.295898,304.974823,617.358887M322.320038,573.532471C326.410004,568.068726,326.067444,565.488281,321.252075,565.488281C318.614197,565.488281,317.017212,567.162537,316.663757,570.298584C316.137573,574.966675,319.71524,577.012207,322.320038,573.532471M249.143478,427.573486C251.601761,426.257843,252.485428,421.578857,250.533768,420.211853C247.818359,418.309906,242.475586,419.982452,242.475586,422.734497C242.475586,424.695435,245.645676,427.9039,247.744232,428.066986C247.973389,428.084808,248.603058,427.862732,249.143478,427.573486M338.169891,220.545609C340.192413,219.700531,342.069794,217.457947,342.069794,215.887054C342.069794,213.972992,340.179321,212.056503,338.291229,212.056503C335.597412,212.056503,333.387238,215.159805,333.387238,218.942169C333.387238,221.306168,335.030823,221.857193,338.169891,220.545609M274.963287,457.457611C276.818634,455.602234,278.906006,450.799683,278.522003,449.269775C278.270966,448.269562,277.881531,448.018219,276.582794,448.018219C274.322113,448.018219,269.034027,453.351563,269.034027,455.631561C269.034027,458.609802,272.686279,459.734589,274.963287,457.457611M159.837418,317.027954C161.712891,315.152466,163.121353,311.764893,162.463013,310.713013C161.34967,308.934204,156.096725,309.378662,153.621933,311.46109C151.229004,313.474609,151.742844,315.847046,154.932098,317.510223C157.040863,318.609955,158.387833,318.477509,159.837418,317.027954M317.85733,247.551849C318.869995,246.006332,318.679199,240.738998,317.524323,238.359604C316.499603,236.248322,314.47403,236.037079,313.016907,237.889526C311.641388,239.638214,311.459564,245.879074,312.731232,247.694641C313.884613,249.341293,316.736908,249.261856,317.85733,247.551849M342.890167,318.978119C347.045105,315.876343,348.198669,314.618408,348.198669,313.189545C348.198669,310.006256,345.924805,309.877014,340.160248,312.732635C334.327637,315.621948,333.586121,316.895386,336.106049,319.694885C337.671539,321.434052,339.918365,321.196655,342.890167,318.978119M301.489227,495.795593C302.395416,494.889404,302.742859,493.984985,302.742859,492.532349C302.742859,489.498474,301.464813,488.258759,298.044922,487.975128C295.524841,487.766144,295.130127,487.869507,294.384888,488.933533C292.989471,490.92572,293.570923,494.978027,295.457733,496.410797C296.920227,497.521362,300.086395,497.198425,301.489227,495.795593M268.483734,326.738007C271.599731,325.126648,270.627106,322.052917,266.317444,319.891876C264.173248,318.816711,263.735687,318.756256,262.325348,319.340454C260.563904,320.070068,258.824097,322.528259,258.821167,324.291534C258.817627,326.419373,260.52829,327.483643,263.951996,327.483643C265.661896,327.483643,267.68576,327.150635,268.483734,326.738007M232.991089,373.968384C233.676575,373.282928,234.047546,372.049713,234.19928,369.952148C234.385498,367.377716,234.256943,366.763794,233.339508,365.846375C231.79303,364.299896,230.512527,364.504303,228.098969,366.682922C225.420792,369.100403,224.494843,371.12912,225.28154,372.855682C226.462006,375.446533,230.875916,376.083588,232.991089,373.968384M215.406372,296.676697C217.94957,295.433167,218.462585,294.178101,217.4384,291.705475C217.014206,290.681396,216.148788,289.982513,214.547638,289.371033C211.841217,288.337463,210.151184,288.743134,208.625458,290.792664C207.76651,291.946472,207.699066,292.396729,208.179016,293.773438C208.919128,295.896545,210.803268,297.848572,212.086578,297.821777C212.648392,297.810059,214.142288,297.294769,215.406372,296.676697M342.374268,187.244263C348.285461,184.022064,349.427399,182.090469,347.140137,179.182678C345.524841,177.129166,343.67572,177.400635,340.174408,180.205307C335.17395,184.210846,333.89798,185.597931,333.89798,187.02832C333.89798,190.309937,336.622833,190.379364,342.374268,187.244263M313.468384,384.686493C314.577148,383.577728,314.812683,381.136658,313.963989,379.550812C313.085693,377.909729,310.498047,376.881958,307.963776,377.167603C305.178101,377.481598,303.590118,378.918457,303.651276,381.069733C303.711151,383.176117,304.052399,383.613037,306.508728,384.728455C309.326202,386.007874,312.164093,385.990784,313.468384,384.686493M317.380615,342.98822C319.8367,341.822754,321.640228,339.011414,321.640228,336.34845C321.640228,334.592102,321.361908,333.979889,320.068817,332.891846C317.183868,330.464325,315.333832,331.38562,312.758606,336.532318C311.095825,339.855408,311.031647,341.961395,312.560577,343.032257C314.008514,344.046448,315.172974,344.035828,317.380615,342.98822M254.081024,397.172028C257.699707,394.800934,255.823639,389.283142,251.398743,389.283142C249.515198,389.283142,242.714951,393.85318,242.204285,395.462219C241.991653,396.132172,242.209778,396.882538,242.812607,397.554718C243.673279,398.514435,244.136444,398.575806,248.312408,398.283325C251.080276,398.089447,253.347397,397.65271,254.081024,397.172028M228.829697,304.305908C229.733612,303.91803,231.264709,302.769409,232.232117,301.753418C233.7733,300.134827,233.930328,299.733459,233.500488,298.51123C232.866791,296.70932,231.08313,295.834717,228.022797,295.825317C226.055695,295.819275,225.337677,296.071075,224.382324,297.101929C222.794647,298.815063,222.3965,301.085297,223.303207,303.25531C223.9142,304.71759,224.300064,305.011108,225.611511,305.011108C226.477585,305.011108,227.925781,304.693787,228.829697,304.305908M196.2686,289.898254C197.222519,289.170685,198.939667,288.449738,200.084488,288.296204C202.737701,287.940308,203.492554,286.728119,202.389374,284.594788C201.954727,283.754272,200.924927,282.717957,200.100922,282.29187C198.31366,281.367615,194.537735,281.299988,193.395386,282.171753C191.270966,283.792969,190.065369,289.169861,191.503769,290.608276C192.496353,291.60083,194.410309,291.315643,196.2686,289.898254M402.643677,187.660858C404.773285,186.238892,404.719055,181.992462,402.553162,180.573303C401.493469,179.878983,400.471497,179.801926,396.342499,180.105011C390.85672,180.50769,389.568604,180.958557,389.568604,182.475967C389.568604,184.163055,391.936523,185.847473,395.847504,186.942383C399.806183,188.050659,401.751862,188.256348,402.643677,187.660858M290.230652,329.75943C293.297211,328.308716,294.208954,327.154297,293.964081,325.03241C293.759064,323.255676,292.376465,323.071228,287.23056,324.134155C285.111542,324.571838,282.377808,324.929962,281.155579,324.929962C278.818878,324.929962,277.341217,325.689453,277.180695,326.9729C276.960022,328.737061,277.276428,329.549316,278.495514,330.348083C281.443939,332.279968,285.312897,332.085876,290.230652,329.75943M380.446503,402.191711C381.101776,401.1315,382.732758,399.055023,384.071014,397.577271C385.409241,396.099518,386.50415,394.564606,386.50415,394.16626C386.50415,392.567169,384.963531,391.836853,381.590271,391.836853C377.855865,391.836853,375.74054,392.69162,374.897858,394.541046C373.329468,397.983276,373.759827,403.99646,375.650269,405.054413C376.90625,405.757294,379.02417,404.493164,380.446503,402.191711M225.510941,405.882813C227.397461,404.899994,230.399567,403.597046,232.182281,402.987396C235.636337,401.806152,236.615646,400.729523,235.021072,399.866547C234.486099,399.576996,232.810242,398.094543,231.296967,396.572174C228.356003,393.613525,227.541489,393.44342,224.828278,395.221161C222.613281,396.672485,219.971817,407.669769,221.838226,407.669769C221.971695,407.669769,223.62442,406.865631,225.510941,405.882813M240.711197,342.062927C242.387527,340.386627,242.309067,338.487305,240.417053,334.941772C239.565765,333.346497,238.505936,330.613586,238.061859,328.868652C236.871185,324.190033,236.596695,323.824219,234.414063,324.007324C233.006104,324.125427,232.358841,324.502869,231.776367,325.545349C231.053833,326.838562,231.126251,327.283997,232.9095,332.514526C233.957245,335.587769,234.815338,338.528503,234.816391,339.0495C234.817444,339.570496,235.273727,340.743744,235.830368,341.656677C237.079117,343.704773,238.916443,343.857727,240.711197,342.062927M215.587173,310.908997C217.310516,309.311859,217.411377,306.932404,215.803482,305.806183C215.179153,305.368896,213.627777,305.006073,212.355988,304.999878C208.671539,304.982056,206.009827,303.468719,203.921844,300.204651C201.942673,297.110718,200.58107,296.10199,199.042862,296.59021C197.818253,296.978882,196.918579,298.535034,197.31749,299.574585C197.479233,299.996063,200.483765,303.000549,203.994263,306.251221C209.793976,311.621643,210.553192,312.161469,212.306351,312.161469C213.646454,312.161469,214.648499,311.778931,215.587173,310.908997M137.73613,353.832336C138.86145,352.47641,139.015976,349.514221,138.01886,348.412415C137.21315,347.522156,136.434677,347.402527,131.446411,347.402527C125.872543,347.402527,125.721603,347.370972,121.351173,345.294037C116.558968,343.016663,114.637825,342.916595,114.004707,344.911377C113.013206,348.035339,119.9132,352.05896,129.127136,353.729797C134.325241,354.672424,137.012329,354.704437,137.73613,353.832336M389.721069,275.93808C392.998627,274.691956,391.495239,271.665344,387.156433,270.774963C381.727203,269.660858,380.543701,268.433228,379.922241,263.270966C379.431427,259.194,377.94458,257.512329,374.830811,257.512329C371.284607,257.512329,370.780518,259.450012,373.295593,263.413544C374.177155,264.802826,375.38382,267.425385,375.97699,269.241425C377.237457,273.100525,378.104492,273.761963,383.95047,275.324127C388.562927,276.556702,388.196533,276.5177,389.721069,275.93808M309.637848,506.810852C312.29248,505.587524,316.233185,502.070038,316.98645,500.251526C317.461578,499.104523,317.384888,497.87793,316.598297,494.042999C315.476227,488.572357,314.2995,486.579041,312.192078,486.579041C310.118713,486.579041,309.523987,487.842957,310.339783,490.515503C312.077271,496.207275,311.569153,498.706024,308.275848,500.666046C304.207764,503.087158,303.311157,504.841644,305.120331,506.840729C306.176025,508.007263,307.05426,508.001465,309.637848,506.810852M312.819336,592.734619C315.771454,584.265747,315.974182,582.814819,314.409729,581.352478C312.513092,579.579651,307.887878,577.111572,307.058502,577.429871C305.679016,577.959229,305.379974,579.896484,306.101624,583.628662C306.480927,585.589966,306.799683,589.844116,306.809998,593.082275C306.824615,597.667603,307.012329,599.231934,307.658661,600.154663L308.488556,601.339539L309.510345,600.317749C310.072327,599.755737,311.561371,596.343384,312.819336,592.734619M332.520721,292.815186C338.893188,289.787842,339.309784,289.219604,339.851013,282.816895C340.224213,278.402008,339.405396,276.409698,337.217773,276.409698C335.492279,276.409698,334.577301,278.091705,334.266357,281.835205C333.797546,287.479492,331.718048,289.178192,325.277252,289.178192C322.253876,289.178192,320.995331,289.385284,320.399841,289.980774C319.260559,291.120056,319.400391,293.578003,320.677124,294.854736C322.384735,296.562317,325.911469,295.954987,332.520721,292.815186M286.937622,440.972412C291.465698,438.125366,293.399689,437.802002,301.541443,438.530426C306.189545,438.94632,306.217896,438.941772,307.068176,437.644104C308.174744,435.955261,307.433502,434.428772,305.016449,433.418884C303.197418,432.658844,290.186584,432.372681,286.943054,433.021393C283.60025,433.689941,280.413788,438.783722,281.762238,441.303284C282.560028,442.794006,284.208038,442.68866,286.937622,440.972412M358.882477,357.6539C359.30661,357.385437,359.775818,355.791809,360.014557,353.808899C360.277985,351.620728,361.17218,348.758606,362.541534,345.720337C365.028809,340.201782,365.365387,337.005188,363.695618,334.75885C362.377838,332.985962,360.074677,332.675415,358.385925,334.042877C357.245087,334.966675,357.158661,335.384521,357.139313,340.069824C357.119385,344.897339,357.029724,345.294922,354.95694,349.747681C353.768066,352.301636,352.795349,354.772339,352.795349,355.238159C352.795349,357.416626,356.767059,358.992859,358.882477,357.6539M331.695374,253.535873C332.663605,252.920227,333.416138,250.411514,333.079346,248.921997C332.909088,248.169006,332.198853,245.714249,331.501038,243.466995C330.397156,239.91185,330.254791,238.625992,330.405243,233.56842C330.55072,228.678375,330.448853,227.673386,329.763428,227.236664C328.420898,226.381256,326.346985,227.270874,324.974243,229.291016C323.351563,231.679016,323.357178,232.763824,325.012665,236.697083C326.453949,240.121384,326.744812,243.269623,326.049438,247.918564C325.626831,250.744141,325.662567,250.887726,327.162415,252.387543C328.659912,253.885071,330.437897,254.335464,331.695374,253.535873M155.275513,331.186523C155.718536,330.694946,156.23584,329.672241,156.425064,328.913879C156.890167,327.05011,154.99295,325.167633,152.168518,324.69043C148.7939,324.1203,146.932907,322.533875,145.599197,319.090271C144.953613,317.423401,144.135468,315.86261,143.781067,315.621826C142.069244,314.458679,137.690598,316.397888,130.24054,321.618652C128.032852,323.165741,129.210068,325.951447,132.071533,325.951447C132.623917,325.951447,134.305313,325.379089,135.807968,324.679565C140.433075,322.526489,143.108673,323.231323,146.525345,327.50293C149.818558,331.620178,153.491364,333.166321,155.275513,331.186523M267.755646,402.410736C270.475342,399.69104,271.291992,395.043732,269.795563,390.802368C268.871307,388.1828,260.602203,375.766174,258.878052,374.409027C257.277985,373.149506,256.029938,373.197632,254.75322,374.567993C253.339188,376.085785,253.338974,379.496979,254.752808,381.014587C255.325348,381.62912,256.646912,382.571655,257.689575,383.10907C261.581055,385.114899,264.437378,389.340576,264.437378,393.091827C264.437378,394.080994,263.977844,396.099426,263.416168,397.577179C262.174042,400.845276,262.139282,401.944672,263.239685,403.160583C264.483246,404.534698,265.860321,404.306061,267.755646,402.410736M309.355347,465.427765C316.006592,463.76886,316.701294,463.229065,317.485046,459.11084C317.764038,457.644867,318.583221,453.398376,319.305511,449.674194C320.027802,445.950012,320.618744,442.34317,320.618744,441.658997C320.618744,439.098206,316.088623,437.797607,314.249084,439.830261C313.50943,440.647552,313.399078,441.364197,313.65918,443.660797C313.835144,445.214661,314.120483,447.725983,314.293335,449.241577C314.707794,452.876984,313.514648,456.47226,311.127075,458.782349L309.319427,460.531342L303.047546,460.531342C296.178894,460.531342,295.075806,460.911682,295.0896,463.275238C295.11264,467.233673,299.475433,467.891907,309.355347,465.427765M214.879013,399.262634C215.764236,398.196014,216.129379,394.720032,215.483078,393.51239C215.181244,392.948425,213.354477,391.548401,211.423599,390.401306C207.067947,387.81366,204.623505,385.153259,202.696365,380.903046C201.061905,377.29837,199.396393,376.003937,196.392639,376.003937C193.334778,376.003937,190.988968,378.625214,192.020554,380.889404C192.284912,381.469635,194.034988,382.927979,195.909637,384.130188C197.934586,385.428802,202.013123,389.090302,205.957703,393.150848C209.609482,396.910034,212.971375,399.990845,213.428574,399.997192C213.885757,400.00351,214.538452,399.672943,214.879013,399.262634M185.301025,280.991211C186.473099,280.363953,187.826447,277.908356,187.826447,276.408997C187.826447,274.990601,185.102646,273.856018,181.697571,273.856018C178.425415,273.856018,176.211304,272.930237,173.428894,270.398682C172.218063,269.297058,169.963318,267.56604,168.418335,266.552002C166.744843,265.453674,164.674332,263.420288,163.296524,261.522125C160.806763,258.09201,158.659134,256.959229,156.667084,258.02533C154.514664,259.177307,155.326553,260.759094,161.778717,267.984436C167.222763,274.080872,168.131241,274.754517,173.534195,276.701416C175.636353,277.458923,178.505447,278.835632,179.909973,279.760742C182.652145,281.566956,183.754959,281.818665,185.301025,280.991211M351.617676,409.501221L353.05072,408.26825L353.057678,399.158752C353.06427,390.592987,353.147705,389.805359,354.455719,385.963348C356.148132,380.992157,356.190552,379.868713,354.72464,378.841949C352.92038,377.578156,350.869202,377.851501,349.133789,379.586884L347.593781,381.126923L347.94516,385.843445C348.211792,389.423187,348.021179,392.678711,347.154266,399.35025C346.082275,407.599762,346.064301,408.220276,346.861755,409.437347C347.946045,411.092224,349.740601,411.116302,351.617676,409.501221M210.298981,355.142151C211.980698,353.960938,214.384903,349.197937,214.384903,347.047455C214.384903,346.110199,213.566208,342.186798,212.565567,338.328796C211.154495,332.888306,210.720734,330.152283,210.632614,326.136353C210.504166,320.281921,210.052673,319.311829,207.456345,319.311829C205.521317,319.311829,204.167755,320.780334,204.173889,322.872955C204.17598,323.582947,205.095306,328.259338,206.216858,333.264893C207.338394,338.270447,208.256027,343.134888,208.256027,344.074677C208.256027,345.085083,207.421082,347.359314,206.213058,349.639404C203.848984,354.10144,203.760132,354.715698,205.319275,355.818451C206.623642,356.741028,208.357986,356.505463,210.298981,355.142151M326.959778,544.343628C328.985809,543.49707,331.077759,540.613159,333.901764,534.773438C336.315033,529.783081,336.44165,527.877563,334.60495,524.191772C332.944702,520.860046,331.310242,519.651367,329.549866,520.45343C327.892639,521.208496,327.555481,522.87677,328.512329,525.587158C329.413971,528.141113,329.545288,533.689636,328.770111,536.480591C327.735565,540.205688,323.805817,541.652649,321.361633,539.208496C319.874634,537.721436,319.731415,535.512573,320.908905,532.226807C322.217255,528.575928,321.217957,525.139893,318.847778,525.139893C315.918335,525.139893,314.882263,529.749512,315.938263,538.084595C316.476807,542.335205,317.606689,544.278564,319.788422,544.706604C322.195068,545.178833,325.342072,545.019531,326.959778,544.343628M368.336426,169.884003C368.916809,169.303635,369.139221,168.066299,369.139771,165.415039C369.141327,158.446411,371.549286,156.180145,378.587677,156.523132C381.742035,156.676849,383.281067,157.033249,385.338013,158.086288C388.643494,159.778534,390.760773,159.853088,391.837952,158.315201C393.35611,156.147736,392.460175,152.740997,390.140778,151.861618C388.062683,151.073746,372.949951,151.166,371.00946,151.978409C368.092712,153.199493,364.188477,158.406082,362.949127,162.727417C362.323059,164.910538,363.26886,167.830048,365.101929,169.372467C366.926056,170.907379,367.260193,170.96022,368.336426,169.884003M162.800201,362.213959C163.452011,361.562134,163.821671,360.511475,163.821671,359.310791C163.821671,358.275818,164.298965,356.443115,164.882339,355.238037C166.027069,352.873352,167.394882,351.91333,176.724121,346.926666C185.325256,342.329224,186.164154,341.073334,185.023117,334.502625C184.288422,330.271729,183.191864,327.772644,181.725861,326.988037C180.187225,326.164612,179.233673,326.361053,178.369858,327.679382C177.645889,328.784302,177.648544,329.231812,178.398483,332.529053C179.385941,336.870544,178.958084,338.757202,176.452866,341.108643C174.058319,343.356201,169.118774,346.165405,165.745819,347.197937C161.956406,348.35791,160.670059,349.816589,159.032959,354.809998C157.287506,360.13382,157.298676,361.456787,159.097336,362.432587C160.982452,363.455261,161.595062,363.419098,162.800201,362.213959M373.863556,357.71637C375.037476,356.54248,378.33905,343.41806,378.309875,340.041321C378.275238,336.031311,376.544678,325.086914,375.804138,324.194611C375.372314,323.674255,374.288391,323.397766,372.680603,323.397766C370.71521,323.397766,370.057983,323.62677,369.42334,324.532867C368.279144,326.166443,368.41568,326.940979,370.397797,330.061035C374.102539,335.892517,373.990173,340.587769,369.934174,349.436218C367.268341,355.251953,366.93219,357.878448,368.755951,358.642212C370.278137,359.279633,372.748016,358.83197,373.863556,357.71637M226.59584,420.222015C228.638168,418.515717,229.80957,417.996063,234.102432,416.891968C235.255783,416.595337,237.270294,415.534973,238.579117,414.535614C243.001648,411.158752,246.233414,410.499084,250.774109,412.046234C254.014725,413.150421,256.175476,412.850677,257.463165,411.118317C258.301636,409.990295,258.409454,409.439117,258.012512,408.310425C257.180542,405.944672,255.685242,405.596924,248.562668,406.112793L242.220215,406.572113L235.723373,409.691986C228.287796,413.262634,225.5457,414.309387,223.62764,414.309387C222.882736,414.309387,221.73642,414.685425,221.080231,415.14502C220.072678,415.850739,219.929169,416.293671,220.157196,417.993744C220.476898,420.377197,221.757553,421.97049,223.353668,421.97049C223.985825,421.97049,225.444809,421.183685,226.59584,420.222015M340.443481,377.073669C340.916595,376.819305,342.093567,375.554932,343.05899,374.264008C346.490692,369.675049,351.974823,368.658752,357.686829,371.553223C360.772705,373.116943,361.651611,373.23053,366.840668,372.735748C374.462799,372.009003,377.310852,370.948456,377.310852,368.836945C377.310852,366.857574,376.052582,366.599854,365.892975,366.498505C357.43045,366.414032,355.705322,366.256714,353.06842,365.328918C348.69928,363.791626,347.178192,363.926025,344.328644,366.101135C342.999817,367.115448,340.685028,368.730591,339.184692,369.690338C335.041809,372.340515,334.121552,374.467316,336.065979,376.897736C336.660736,377.641144,339.198273,377.743134,340.443481,377.073669M389.875031,463.64682C391.697418,461.824463,392.184662,459.521179,390.998657,458.335175C390.626068,457.962585,388.813873,457.72226,386.376648,457.72226C381.791199,457.72226,380.965118,457.388977,375.459778,453.317596C371.313171,450.251007,370.671234,449.38916,370.671234,446.88858C370.671234,444.551422,371.624084,443.37442,375.721313,440.650574C382.074066,436.427277,384.62619,432.284546,382.692902,429.333984C381.231323,427.103333,379.504517,427.988892,375.702057,432.919128C374.199188,434.867737,371.475647,437.715057,369.64975,439.246521C365.295959,442.898285,364.402191,444.454041,364.719849,447.828033C364.855438,449.268433,365.273163,450.952393,365.648163,451.57016C367.265594,454.234863,384.596741,465.335999,387.193634,465.370728C387.713318,465.377686,388.919952,464.601929,389.875031,463.64682M295.209442,383.769196C295.81189,383.248016,296.103241,382.252258,296.103241,380.714386C296.103241,378.560089,295.880005,378.201263,292.101227,374.281616C287.849487,369.871368,282.665466,362.949982,280.767548,359.149536C277.731598,353.070251,275.098541,350.968018,267.350616,348.437317C263.415558,347.152008,261.774933,347.335693,260.554565,349.198181C259.207001,351.254883,260.51825,352.681702,264.789581,353.806458C271.299683,355.520813,273.612701,357.350586,277.991852,364.250305C279.326691,366.353485,281.85495,369.956421,283.610229,372.256805C285.71048,375.009369,287.176819,377.566986,287.899139,379.737488C289.603455,384.859039,292.25766,386.322876,295.209442,383.769196M150.002747,358.929047C150.336517,358.526855,150.820984,356.7052,151.079346,354.880859C151.337708,353.056519,152.012085,350.389252,152.577988,348.953552C154.515656,344.037659,153.681351,341.761566,149.033707,339.284393C147.325211,338.373779,144.860596,336.705444,143.556793,335.577026C140.021454,332.517212,139.181274,332.328339,134.838562,333.617218C130.024719,335.045898,128.511566,334.706604,125.404251,331.501801C124.078598,330.134521,122.619156,329.015869,122.161057,329.015869C120.865074,329.015869,117.85511,332.316528,117.85511,333.737671C117.85511,335.540527,119.102608,336.402222,123.882668,337.901123C127.224335,338.948975,129.172073,339.231262,133.075974,339.233521C140.194504,339.23761,143.53334,340.452972,146.154205,343.99408C147.763214,346.16803,147.60054,350.516479,145.795731,353.576263C144.205612,356.272003,144.021332,358.359558,145.307373,359.108582C146.620453,359.873413,149.304169,359.770782,150.002747,358.929047M390.270844,300.403717C391.489716,299.243683,391.50589,296.866425,390.300934,295.985321C389.087738,295.098206,387.272095,295.12973,381.947296,296.13031C373.260925,297.762512,368.670471,296.22168,366.210266,290.8479C364.25885,286.585449,364.355011,282.27478,366.494934,278.084167C368.433105,274.288666,368.616852,271.218933,367.085663,268.217529C366.234924,266.549927,365.788757,266.194885,364.543762,266.194885C362.65097,266.194885,361.419373,267.924316,361.17395,270.926636C359.839264,287.255554,359.834564,287.442749,360.676697,290.729919C361.981476,295.822937,364.525635,299.216034,368.372894,300.99411C370.214447,301.845215,371.347351,301.907593,379.864532,301.626709C387.962341,301.35968,389.450134,301.184814,390.270844,300.403717M390.726349,448.577332C392.899841,445.994293,394.666443,440.710205,395.188568,435.230591C395.729248,429.555786,397.106323,424.932037,399.344421,421.27652C401.721008,417.394836,410.828522,406.84903,413.397491,405.00415C414.673218,404.087952,416.039124,402.715546,416.43277,401.954254C418.178375,398.578674,416.605896,395.527618,413.427856,396.12384C411.465881,396.491913,409.756287,398.167725,407.749084,401.690521C406.981934,403.036835,404.703461,406.141174,402.685791,408.588989C394.390259,418.653015,391.112488,422.894714,390.610229,424.215729C390.239777,425.190155,390.251221,426.645142,390.648285,429.049255C391.29541,432.967957,390.704498,437.015869,389.10025,439.6539C388.575378,440.516937,386.799774,442.244385,385.154419,443.492676C381.560699,446.219055,380.981873,447.995667,383.281219,449.242157C384.070648,449.670135,385.787842,450.02948,387.097198,450.04071C389.111115,450.058014,389.670105,449.832642,390.726349,448.577332M335.081238,363.03421C336.596649,361.799927,339.150391,359.917664,340.756226,358.85144C343.791046,356.836426,344.745758,355.531464,345.395752,352.509888C345.607269,351.526733,346.472046,348.998566,347.317474,346.891785C348.674042,343.511414,348.863953,342.397766,348.933319,337.416473C349.000916,332.56076,349.17038,331.51532,350.145569,329.937439C351.419098,327.87677,353.436859,326.751953,357.374481,325.907471C360.136963,325.315033,361.988647,323.990662,361.988647,322.607239C361.988647,321.41095,359.522125,319.374451,357.647217,319.022736C355.721924,318.66156,353.119446,319.794861,352.282349,321.358978C351.983551,321.917297,350.081818,323.537964,348.056244,324.960449C346.030701,326.382935,344.166595,327.916382,343.913788,328.368073C343.661011,328.819763,343.408203,332.195618,343.351959,335.869904C343.179138,347.162201,340.849335,352.172607,333.418915,357.231812C331.048584,358.845642,328.926147,360.454468,328.702362,360.806976C327.562683,362.602051,329.026581,365.278381,331.148193,365.278381C331.795959,365.278381,333.565857,364.268524,335.081238,363.03421M324.981659,353.914429C330.848328,349.242981,333.563599,346.387451,334.330444,344.082703C334.704254,342.959045,335.135803,339.529816,335.289368,336.462097C335.617767,329.902466,335.215057,328.811951,331.381439,325.878601C330.003784,324.824463,328.271179,322.815369,327.383728,321.24292C325.69931,318.258301,324.53067,317.274536,321.482483,316.275299C319.010529,315.464966,316.869995,316.243317,316.036469,318.255615C314.811188,321.213715,316.440765,323.306946,320.58371,324.09668C325.999542,325.129028,330.014801,330.48349,330.017578,336.676971C330.018799,339.380737,329.742798,340.503693,328.530182,342.728394C325.63681,348.036896,319.532928,351.999146,314.248596,351.999146C311.265411,351.999146,310.007843,351.465149,307.134521,348.978333C305.27298,347.367188,304.303528,346.891785,302.8797,346.891785C299.264038,346.891785,298.10321,349.634247,300.508789,352.493103C303.19519,355.68573,307.493103,356.828125,317.603638,357.036987L320.972809,357.106567L324.981659,353.914429M390.035126,251.498032C391.411194,250.475433,392.061401,248.053848,391.193054,247.185486C390.918976,246.911407,388.372406,246.625992,385.534088,246.551254C380.911133,246.429535,380.028015,246.245331,377.05835,244.783371C372.589813,242.583511,370.994507,240.223892,369.336426,233.361542C368.643127,230.49234,367.828583,227.515259,367.526306,226.745789C366.866394,225.065994,364.280273,222.661163,360.029633,219.774612C354.889832,216.284241,354.205322,213.674255,357.169983,208.871124C359.170349,205.630249,359.166748,204.093201,357.157593,203.588928C355.123993,203.078522,351.37915,205.74411,349.793304,208.830811C348.93399,210.503418,349.104218,214.633575,350.114746,216.628632C350.609344,217.605164,352.779846,219.769745,354.97998,221.480667C361.448822,226.511078,364.561676,231.421509,365.624603,238.272278C366.372894,243.095108,366.603302,243.603363,369.204651,246.169647C370.811066,247.754395,372.206177,248.574509,374.240997,249.130234C375.788971,249.552994,378.779205,250.575882,380.886017,251.403351C385.188477,253.09314,387.851501,253.120712,390.035126,251.498032M307.651306,571.226318C308.553955,570.62915,309.724396,567.963989,310.059113,565.743652C310.282013,564.265259,310.019989,562.712891,309.110901,560.125549C307.644287,555.951538,307.538727,553.443481,308.669434,549.635986C309.390442,547.20813,309.405731,546.416504,308.797119,543.031372C307.899017,538.03595,307.886719,526.025879,308.777191,523.505493C309.69812,520.898926,312.410797,518.684265,315.896667,517.693176C317.51062,517.234314,321.182556,515.734253,324.056519,514.359802C329.6185,511.699677,330.551147,510.620819,329.303619,508.289825C328.554138,506.889374,325.496033,505.577759,324.028748,506.027466C323.417328,506.214844,321.537048,507.683807,319.850311,509.291809C316.07782,512.888306,314.407684,513.775757,309.736328,514.665833C305.537323,515.465942,304.553741,516.330444,304.087128,519.630981C303.603485,523.052246,302.659546,554.278076,302.979095,556.286377C303.136261,557.274292,303.472534,560.56366,303.726288,563.596069C304.289917,570.330444,305.487244,572.658081,307.651306,571.226318M330.394348,416.22467C332.724609,415.030792,335.468048,413.249603,336.490753,412.266449L338.350342,410.478851L338.642822,404.605347C338.803711,401.374908,339.305847,396.467316,339.758698,393.699493C340.90387,386.700378,339.832611,383.868805,336.446045,384.943634C334.193207,385.658691,333.633759,387.94281,333.756927,395.92276C333.923248,406.701447,332.720337,409.869232,327.657806,411.983978C323.817963,413.587952,319.928162,412.833588,315.765472,409.677673C312.363556,407.098541,311.012177,406.648438,306.667816,406.647614C304.649567,406.647217,301.044647,406.302795,298.656952,405.882202C296.269226,405.461609,293.484772,405.117188,292.469269,405.11676C290.002258,405.115845,287.931396,406.758636,287.931396,408.716553C287.931396,411.350555,289.221863,411.714996,298.14621,411.601227C307.233459,411.485413,308.521149,411.789795,316.412659,415.91925C322.677094,419.197296,324.513733,419.237427,330.394348,416.22467M381.907501,476.175568C382.757751,475.547577,383.184357,474.739044,383.184357,473.755463C383.184357,472.394104,382.782471,472.078217,378.056183,469.72464C373.212311,467.3125,368.991943,464.568909,363.347321,460.162598C359.708557,457.322083,356.333923,457.555634,350.691284,461.038483C347.149719,463.224457,344.339844,463.451508,342.745667,461.680511C341.181793,459.943054,340.964996,458.818329,341.839111,456.976288C342.8526,454.840546,346.161255,453.022003,351.518494,451.656219C356.48819,450.389252,358.482117,448.3974,357.001129,446.179413C355.630005,444.125977,352.585449,444.219757,346.481781,446.503418C341.030243,448.54306,338.734161,451.681091,338.154999,457.883331C337.794434,461.744659,338.493469,464.254059,340.597168,466.650024C342.867065,469.235321,343.923737,469.261536,349.518036,466.871368C358.66391,462.963837,363.214203,464.317719,373.381256,473.97168C377.041504,477.447144,377.501801,477.731171,378.99939,477.437958C379.896576,477.262299,381.205231,476.694244,381.907501,476.175568M392.058075,237.917221C394.134064,235.707428,394.46167,231.221313,393.205933,222.199326C392.605408,217.884857,392.115936,213.585159,392.118164,212.64444C392.125824,209.468323,390.777618,207.601532,387.265717,205.925446C385.502441,205.083923,383.909241,204.395416,383.72522,204.395416C382.795471,204.395416,377.127167,200.265594,373.811615,197.172531C369.966949,193.585876,368.673279,193.063171,366.508484,194.221741C365.941376,194.525238,365.133972,195.595383,364.714294,196.599823C363.572601,199.332306,364.775391,200.64859,369.938446,202.316772C372.81076,203.244812,375.420624,204.621643,378.847931,207.016922C381.513855,208.880112,384.088531,210.842072,384.569366,211.376862C386.110291,213.090576,387.435181,216.796219,388.007935,220.994446C388.314545,223.241699,388.911926,226.228271,389.33551,227.631256C389.759094,229.034241,389.967163,230.812653,389.797913,231.583267C389.200684,234.302399,385.400085,235.977203,383.439728,234.385132C381.71994,232.988434,381.304932,231.819519,380.860291,227.120026C380.604248,224.413727,380.111938,221.238846,379.766205,220.064743C378.937073,217.24881,374.600586,213.057053,370.353455,210.966187C367.253052,209.439896,367.06131,209.408081,365.829102,210.215454C363.324036,211.856842,364.23996,213.614838,369.412018,217.092606C373.697479,219.974182,374.837311,221.971985,376.256989,229.089783C376.808899,231.856796,377.61972,234.669037,378.058868,235.339233C379.734619,237.896744,382.574097,238.953522,388.075012,239.066971C390.453308,239.116028,391.109924,238.926498,392.058075,237.917221M178.524277,361.615662C180.850677,359.458649,183.242493,357.924744,187.206848,356.047485C190.216232,354.622406,193.428436,353.090729,194.345093,352.643768C195.577927,352.042603,196.47522,350.904541,197.792587,348.271301C199.911499,344.035828,200.044388,341.80069,198.556641,335.420166C197.997406,333.021729,197.283722,329.392944,196.970718,327.356232C196.24617,322.641907,195.595184,321.590881,191.740295,318.911804C190.009033,317.708588,187.788132,316.049072,186.804962,315.223999C185.407822,314.051514,183.901825,313.498535,179.909973,312.692108C171.662399,311.026001,170.406006,311.243774,169.694733,314.462646C169.084824,317.222778,168.259476,319.026276,166.667282,321.078033C165.293137,322.848816,165.063492,323.619415,164.816086,327.289673C164.525787,331.595947,164.300049,332.113251,160.708359,336.702271C158.411026,339.637512,161.257141,341.033447,165.540695,339.072388C169.542419,337.240356,170.076462,336.178436,170.157318,329.892761C170.2146,325.438416,170.409988,324.304688,171.492035,322.147461C173.170944,318.800232,174.911163,317.58075,177.992691,317.592102C181.040665,317.603271,185.620331,319.779602,188.359116,322.518372C190.824066,324.983337,192.199295,328.582642,193.306793,335.467712C194.325424,341.800171,193.843567,344.612732,191.286514,347.260193C190.412506,348.165039,186.3461,350.689087,182.25,352.86908C174.382599,357.056274,171.28215,359.376587,170.756607,361.47049C170.341553,363.124237,171.178238,364.6474,172.630814,364.882446C174.421173,365.172119,175.086029,364.803558,178.524277,361.615662M398.110229,262.492065C401.011353,261.201294,403.310303,259.831909,403.781555,259.113861C404.368561,258.21936,404.66803,255.769958,404.936646,249.665176C405.136047,245.132553,405.58313,239.496368,405.930115,237.140335C406.310425,234.558136,406.444153,230.703644,406.266815,227.436279C405.726044,217.472321,404.352081,202.118958,403.825439,200.154877C403.224243,197.912674,401.843781,196.34787,400.179443,196.022049C391.96701,194.414337,386.464355,192.113724,383.931396,189.228882C383.094971,188.276215,381.744568,186.185196,380.930481,184.582153C378.832001,180.44989,375.253662,177.326202,372.6185,177.326202C368.824066,177.326202,369.588593,184.131317,373.662354,186.617752C374.685852,187.242447,377.411102,189.552612,379.718506,191.751434C383.849152,195.687775,386.476593,197.253906,392.731232,199.507843C398.222351,201.486649,399.231232,203.313751,400.083191,212.822617C400.435577,216.75531,400.993896,222.271301,401.323883,225.080368C402.014221,230.956207,401.737091,234.463623,400.218872,239.067215C399.340027,241.73201,399.216156,242.899689,399.541534,245.451462C400.790527,255.246414,399.999084,256.529663,391.1008,259.137146C389.060516,259.735046,388.78479,259.993408,388.644836,261.438538C388.515045,262.778625,388.740784,263.203949,389.921692,263.844116C392.03833,264.991608,392.759796,264.872498,398.110229,262.492065M283.595398,287.449921C284.453766,286.822235,284.547943,286.135864,284.436737,281.317535C284.288239,274.883789,284.769623,273.488464,289.352875,267.066956C290.998444,264.761444,293.424957,261.228333,294.745117,259.215637C296.065308,257.202942,298.727661,254.153458,300.661499,252.43898L304.177521,249.321762L304.363617,242.308456C304.627899,232.348145,305.851593,230.325165,312.446899,228.945465C315.063507,228.398102,315.58844,228.01413,320.108002,223.341675C323.197418,220.147736,325.213379,217.604294,325.65741,216.340179C326.040955,215.24823,327.002625,212.856903,327.794373,211.026123C329.13382,207.929047,329.235077,207.21817,329.249481,200.81131C329.257996,197.023987,329.100739,193.672363,328.900085,193.363281C328.699402,193.054199,328.013672,192.526642,327.376282,192.190918C325.879272,191.402466,323.7836,192.335251,322.697052,194.273682C322.004791,195.508636,322.022919,196.020096,322.881012,199.465912C324.172211,204.65126,323.793823,208.579681,321.583679,212.934021C318.538757,218.933014,311.654266,224.507553,304.613129,226.675537C299.404755,228.27919,298.097656,231.278305,299.966156,237.33812C301.304565,241.678909,300.690857,243.631348,296.601685,248.041519C294.485199,250.324173,292.328644,253.330963,291.201538,255.570847C288.64502,260.651154,286.165314,264.180542,281.803467,268.947113L278.116516,272.976196L278.463959,277.885071C278.902466,284.080688,279.495605,286.381653,280.909363,287.371887C282.278168,288.330688,282.386566,288.333801,283.595398,287.449921M404.3367,363.032288C405.153961,362.047546,405.56308,338.307343,404.84671,333.43924C404.55069,331.427734,404.069336,320.933411,403.777039,310.11853C402.994598,281.167358,402.985077,281.783752,404.2771,277.760437C406.089508,272.11676,405.629364,268.748596,403.045929,268.748596C402.279602,268.748596,401.109161,269.387207,400.189026,270.307312C398.727936,271.768433,398.656311,272.016296,399.045441,274.265564C400.527374,282.830963,398.713043,284.368591,388.036377,283.595734C384.154327,283.314728,381.210449,282.803741,379.35379,282.088715C375.782593,280.713348,374.501465,280.724915,373.509247,282.141479C372.334839,283.818176,372.52179,285.967804,373.967804,287.413818C375.419006,288.86499,376.244965,288.919861,383.92691,288.075195C391.263611,287.268494,394.758698,287.750702,397.095184,289.891907C399.417786,292.020447,399.799805,295.087952,398.508636,301.240784C397.652924,305.318298,397.651062,305.775635,398.4729,309.91391C399.168152,313.414795,399.270599,315.669739,398.988586,321.266174C398.749756,326.00647,398.848755,329.80835,399.296814,333.101807C400.365295,340.955811,400.107849,347.895874,398.552979,353.156036C396.824615,359.003113,396.850311,360.38092,398.722626,362.253235C400.374084,363.904724,403.278198,364.307709,404.3367,363.032288M285.716431,302.724701C287.202118,301.684082,287.602783,299.694397,286.684296,297.918243C285.727875,296.068787,285.045013,295.81781,280.969269,295.81781C278.965393,295.81781,277.05545,295.502136,276.114136,295.015381C273.472076,293.649109,271.851532,289.009094,270.824585,279.870422C270.348083,275.629883,269.648041,275.024902,263.550995,273.583984C260.679382,272.905334,255.509628,271.227844,252.062637,269.856201C244.093567,266.68512,241.804443,265.954681,235.835968,264.678406C230.650482,263.56958,213.26564,257.75177,209.66188,255.919281C208.4673,255.311859,206.110916,253.879288,204.425476,252.735794C196.055923,247.057495,186.031067,246.322952,173.33049,250.457382C167.897583,252.225952,166.489182,254.695801,169.479004,257.211548C171.58728,258.985565,172.76445,258.879028,175.181442,256.695435C178.309494,253.869415,180.823914,252.939865,185.37529,252.926895C192.811295,252.905685,197.039169,254.428833,204.425476,259.789917C209.367783,263.377136,210.812653,264.020599,215.955917,264.924866C220.581085,265.738068,222.110764,266.442139,225.357346,269.252014C228.031601,271.566589,228.50206,271.641602,232.817322,270.441864C235.490555,269.698669,236.334808,269.668762,239.015182,270.222351C243.493317,271.147308,247.02652,272.577209,250.699158,274.950989C253.34668,276.66214,254.66922,277.144348,258.110168,277.653107C260.413788,277.993713,262.916229,278.677063,263.671112,279.171692C265.554077,280.405457,266.918457,283.751495,267.588715,288.779297C268.661133,296.824402,269.479645,298.455505,272.805908,299.175995C273.680908,299.36554,276.120544,300.399719,278.227356,301.474243C282.402313,303.603485,284.065338,303.881165,285.716431,302.724701M288.123016,316.004791C294.081909,315.153015,294.472229,314.871094,297.9375,308.915894C301.090485,303.497406,301.288269,301.588989,299.353668,295.248993C298.089142,291.10495,297.890839,289.618927,297.890839,284.287659L297.890839,278.12027L300.146576,273.562134C301.76059,270.300629,303.286133,268.122803,305.509338,265.906372C311.118774,260.313904,314.861572,260.291992,325.658752,265.78833C332.693329,269.369324,335.276245,269.813538,337.885254,267.891174C339.448273,266.739502,346.929962,253.075058,347.423218,250.471252C347.678772,249.122055,347.222565,247.669769,345.096741,243.065536C341.803009,235.931641,341.423889,233.596298,343.261383,231.75882C344.785156,230.235046,347.341919,230.002243,349.091858,231.227936C350.196869,232.001923,350.562653,233.033081,351.730927,238.667648C352.677002,243.230591,355.449554,245.129425,357.636932,242.712433C360.872559,239.137085,351.569427,225.335739,345.923706,225.335739C343.612671,225.335739,339.62381,228.017654,338.720947,230.178543C337.503845,233.091431,337.807343,237.801773,339.526184,242.676331C341.720551,248.899429,341.631989,252.13858,339.133057,257.054993C336.909576,261.429535,335.112335,262.773651,331.58139,262.702759C329.119843,262.653381,327.216278,261.836792,323.683167,259.314667C320.595123,257.110229,320.060364,256.93985,314.755707,256.470276C309.459808,256.001526,308.070435,256.393219,304.91391,259.244965C302.655701,261.285095,294.432159,272.822449,293.346191,275.473999C292.96286,276.409973,292.492126,280.163635,292.30011,283.81543C291.953857,290.401001,291.963135,290.482056,293.443939,293.774841C295.393799,298.110718,295.692474,299.886658,295.014465,303.113647C294.567963,305.23877,293.975433,306.243774,292.083374,308.085205C287.099274,312.935913,280.641602,312.85672,273.280273,307.854553C271.23172,306.462555,268.619049,306.141113,267.603973,307.15625C266.711029,308.049164,266.85434,310.901062,267.833069,311.715881C268.296173,312.10141,270.422119,313.373901,272.557404,314.54364C275.955078,316.404938,276.854248,316.67392,279.759583,316.69812C281.58548,316.713318,285.34903,316.401306,288.123016,316.004791M304.726288,217.933105C311.855072,214.251221,315.464325,209.975464,315.507019,205.16153C315.516998,204.037903,315.026825,201.219666,314.417755,198.898773C313.466736,195.274689,313.396912,194.390274,313.923157,192.633759C314.835663,189.588165,317.080994,187.390274,321.773285,184.94957C324.804108,183.373108,326.82663,181.853668,329.002075,179.518906C330.663422,177.735931,333.566528,175.132599,335.453522,173.733749C339.246002,170.922272,339.726532,170.065338,340.510101,164.716278C341.125031,160.518417,342.970337,155.076385,345.412933,150.257019C347.870941,145.407318,357.463287,133.704224,360.391022,131.983093L362.754761,130.593536L376.396271,130.42897C384.751801,130.328171,392.371307,130.506256,396.059753,130.88855C399.371826,131.231827,403.460724,131.4879,405.146149,131.457596C412.73584,131.321136,418.011993,131.006836,418.577209,130.657516C419.387573,130.156708,419.368988,126.50724,418.55307,125.910057C418.189423,125.643906,404.983307,125.382751,387.870148,125.303299C353.424896,125.143364,356.209503,124.749924,353.801544,130.116821C352.70462,132.561676,351.043945,134.749435,347.28418,138.702789C344.509216,141.620605,341.770905,145.011749,341.199005,146.238663C340.627136,147.465576,338.837708,152.146744,337.222504,156.641266C334.072357,165.407043,332.598511,168.616974,330.73468,170.771347C330.086792,171.520233,327.028503,174.021698,323.938538,176.330154C320.848572,178.638611,317.171234,181.632782,315.766724,182.983826C314.362183,184.334885,311.719116,186.548462,309.893219,187.902924C306.108032,190.710754,305.548859,192.176636,307.316223,194.658676C308.980225,196.995514,309.893219,200.154053,309.893219,203.573792C309.893219,209.401413,307.52655,211.825897,301.175446,212.504486C297.044403,212.945892,296.103241,213.686432,296.103241,216.495422C296.103241,218.433243,297.599274,220.228333,299.214233,220.228333C299.801636,220.228333,302.282043,219.19548,304.726288,217.933105M404.65863,377.814728C406.842651,375.630737,406.040344,372.273956,403.19516,371.69165C402.582764,371.566345,400.879242,371.3703,399.409546,371.256012C396.006561,370.991425,393.348938,369.201721,390.745209,365.421204C388.965118,362.836578,388.80423,362.317017,388.823425,359.215088C388.837708,356.907654,389.273773,354.610016,390.192993,351.999146C392.159332,346.414124,392.390594,342.983154,391.36087,334.671753C390.598999,328.5224,390.55658,326.565369,391.061584,320.854126C391.733978,313.249359,391.332001,310.628174,389.287903,309.288879C388.169128,308.555786,387.403137,308.53125,382.540649,309.072266C371.350098,310.317444,371.00058,310.319519,367.276276,309.163452C365.351257,308.565857,362.685852,307.270935,361.353088,306.285767C356.476318,302.680908,352.892792,295.893921,352.455139,289.433563C352.075165,283.824768,353.082397,268.871338,354.048279,265.781433C355.134552,262.306274,357.728271,259.439148,360.834503,258.279846C364.025696,257.088806,365.053101,256.136292,365.053101,254.368729C365.053101,251.835876,362.044983,249.852554,359.262573,250.550888C356.821289,251.163605,355.312439,253.128708,351.293396,260.929871C346.19693,270.822327,346.026459,271.402039,347.006256,275.507813C347.756805,278.652771,347.71582,282.877625,346.869293,289.619354C346.56842,292.015625,346.721649,292.783447,348.092163,295.74823C348.953949,297.612396,350.332611,300.631531,351.155853,302.457428C353.161377,306.905426,356.183502,310.228271,359.28064,311.390625C360.629608,311.896912,363.111877,312.999084,364.796814,313.839844C367.259094,315.068573,368.719482,315.417603,372.237793,315.618225C376.389893,315.85495,376.77121,315.785583,379.64444,314.271118C383.388367,312.297638,384.152527,312.284973,386.032684,314.165131C387.932648,316.065125,387.91037,317.238159,385.907806,320.738281L384.290009,323.565918L385.203064,329.227661C386.856262,339.479431,386.817322,342.730957,384.957825,349.700836C382.507996,358.883423,382.429138,359.487488,383.262726,362.68866C384.398193,367.049255,386.054321,369.467896,389.004089,371.073334C390.421112,371.844604,392.794098,373.580078,394.277405,374.929962C399.087433,379.307343,402.279114,380.194244,404.65863,377.814728M345.200043,201.728119C347.433624,199.314392,349.155273,198.055344,352.358429,196.493042C356.173767,194.632126,356.868744,194.053268,359.647156,190.421967C362.709167,186.420013,362.718079,186.398193,362.622101,183.159149C362.500214,179.046661,361.545197,176.773239,358.630402,173.657104C355.846191,170.680542,354.348083,167.581238,354.355469,164.813095C354.367371,160.351639,357.696045,153.768799,362.637756,148.433914C367.210541,143.497299,367.674377,143.379578,381.907501,143.542801C395.238007,143.695679,396.598785,143.987854,398.408936,147.085724C399.812408,149.487564,400.590057,156.974182,399.815857,160.630219C398.271667,167.922287,391.572113,170.19516,383.553467,166.147369C380.013702,164.360504,378.767334,164.195648,377.602692,165.360306C375.710907,167.252075,377.063538,170.223358,380.886017,172.572723C383.726837,174.318756,385.04837,174.436951,388.794037,173.280045C390.948456,172.614609,393.626038,172.218811,395.973389,172.218811C402.810913,172.218811,403.469177,171.394226,404.359772,161.713562C404.852722,156.355453,404.797119,154.722275,403.909912,148.498566C403.171204,143.316406,402.648285,141.147919,401.975006,140.474609C400.465393,138.964996,396.728912,138.600754,381.141388,138.443649C364.595245,138.276871,364.903015,138.222702,361.418427,141.915405C357.765106,145.786911,353.327087,151.854553,351.784302,155.087158C350.175323,158.458466,348.198669,165.28688,348.198669,167.473846C348.198669,169.414978,349.490784,171.40274,351.786896,172.993958C356.153442,176.019989,358.079376,182.052734,356.046478,186.336731C354.614838,189.353668,347.785614,194.179108,341.91861,196.319244C338.664246,197.506348,336.962402,199.211884,336.962402,201.286209C336.962402,203.511169,338.289398,204.906158,340.405853,204.906158C342.022766,204.906158,342.634216,204.500824,345.200043,201.728119M259.733948,435.471344C261.102325,434.512878,262.379944,432.072601,263.86087,427.588623C266.179962,420.567108,269.004517,417.239563,275.578674,413.78421C279.216522,411.872162,280.055939,410.659241,280.550171,406.600494C281.055176,402.4534,282.452301,399.895477,284.99469,398.463104C286.945587,397.363983,287.711395,397.250092,292.560181,397.337891C295.527313,397.391632,299.779236,397.784668,302.00885,398.211304C308.038269,399.365051,309.691498,399.259125,310.744873,397.65152C311.528015,396.456238,311.541138,396.175232,310.869629,394.978912C310.221466,393.824097,309.394409,393.481232,304.796906,392.461395L299.474518,391.280823L294.520752,392.358551C290.545258,393.223419,289.173676,393.330383,287.575684,392.900085C284.84314,392.164307,282.937286,389.991272,281.789246,386.302673C280.511169,382.196106,279.123627,379.514191,276.196869,375.493195C274.867859,373.667297,272.607269,370.416901,271.173431,368.270111C269.739532,366.123291,267.80423,363.895813,266.872772,363.32016C264.603088,361.917419,257.02066,359.149536,255.447617,359.149536C253.048477,359.149536,244.018936,364.370392,242.943863,366.379211C242.603867,367.014496,242.142197,369.35437,241.917938,371.578918C241.064835,380.041412,238.062668,383.154266,230.754257,383.154266C225.279114,383.154266,223.291412,382.385223,219.894272,378.952393C216.799805,375.825439,215.352463,375.352264,212.649429,376.583832C209.981491,377.799469,210.60878,380.22879,214.227463,382.694946C215.578125,383.615417,217.570084,385.072144,218.654037,385.932037C220.568604,387.450958,220.75679,387.49118,225.248505,387.342072C229.04892,387.215881,230.356537,387.385162,232.592667,388.292725C234.174652,388.934814,235.796646,389.2677,236.468369,389.088165C238.130966,388.643799,245.025406,382.720215,245.581085,381.258667C245.839401,380.579254,246.050751,378.743439,246.050751,377.179077C246.050751,373.473724,246.862167,370.873413,248.722641,368.616272C250.741791,366.166718,252.906693,365.132477,256.015015,365.132477C259.480957,365.132477,262.685822,366.645782,265.3349,369.533203C268.339874,372.808624,274.378754,382.045044,276.828644,387.112854C279.380829,392.392212,279.55481,395.845215,277.53656,401.163147C275.641663,406.156067,273.506104,409.000214,270.428955,410.628998C267.444641,412.208649,262.836365,416.281311,261.402252,418.606476C260.867493,419.473541,260.066925,421.751221,259.62323,423.668091C259.178528,425.589172,258.14267,428.132599,257.315063,429.33551C255.186493,432.42926,254.912979,433.897156,256.221283,435.205444C257.496155,436.480347,258.215637,436.53479,259.733948,435.471344M360.626068,512.004028C366.205078,506.697906,367.125916,505.309509,369.41861,498.747192C370.970703,494.304657,371.170166,493.143921,371.158722,488.622009C371.150635,485.430145,370.898743,483.069397,370.487183,482.327545C369.608154,480.743134,363.236084,475.245148,360.859833,474.020782C358.320557,472.712463,356.054169,472.790955,351.913208,474.330627C347.527344,475.961395,346.666473,476.965454,346.666473,480.450165C346.666473,484.100067,345.513885,485.534363,342.580872,485.534363C340.837921,485.534363,340.186127,485.251831,339.149811,484.047058C337.961517,482.665527,337.894989,482.31134,338.214569,479.068054L338.558624,475.576385L335.486115,472.376709C331.371521,468.091766,330.348267,465.730011,330.334015,460.485352C330.315308,453.591858,332.62558,446.294891,335.766479,443.327026C337.669708,441.528656,342.420807,439.208527,347.11441,437.7854C350.197113,436.850739,351.571655,436.701294,354.674408,436.963593C357.37027,437.191467,358.938934,437.082001,360.100006,436.584991C362.416138,435.593536,367.340515,430.938629,370.910919,426.365784C373.883331,422.558716,377.552368,419.927521,379.888611,419.927521C382.560669,419.927521,384.158173,418.595459,390.217346,411.314728C399.746979,399.863953,403.358551,394.315125,403.358551,391.124573C403.358551,387.347778,398.650543,384.797852,396.200653,387.247742C395.19577,388.252625,395.089935,388.758911,395.330444,391.41098C395.715485,395.657593,395.033905,397.527527,391.773834,401.168854C390.207397,402.918488,387.695801,406.008057,386.192505,408.034668C383.287842,411.95047,382.273743,412.672394,377.821594,413.993744C374.298218,415.039429,374.357178,414.990417,368.74054,421.546051C361.38913,430.126495,359.698242,431.112305,351.290955,431.719482L345.389618,432.145721L337.572449,436.038239C330.899933,439.360809,329.65387,440.167664,329.062744,441.548492C328.681854,442.438202,327.435211,448.047485,326.29245,454.013519C324.016846,465.893768,324.029572,466.350403,326.714966,469.213898C329.630096,472.322296,331.344971,475.310486,333.697723,481.38147C336.442078,488.462921,338.72583,491.431091,341.430115,491.431091C343.337921,491.431091,345.387024,489.851715,346.628235,487.424561C348.124481,484.498718,353.820831,479.314667,355.98584,478.908508C359.409058,478.266327,362.480774,480.106384,364.638336,484.091644C366.508423,487.545929,366.863556,490.5755,365.858276,494.49942C364.170013,501.089478,360.986176,505.257172,355.691437,507.808167C352.207062,509.486908,351.263123,510.434387,351.263123,512.25293C351.263123,513.644775,353.827393,516.457336,355.096344,516.457336C355.562378,516.457336,358.050781,514.453369,360.626068,512.004028M186.726456,373.341583C190.163086,367.025513,194.634903,365.671112,201.541351,368.854492C205.579239,370.715698,206.027496,370.708832,212.852676,368.681763C216.53714,367.587524,217.425781,367.101044,218.726181,365.466461C219.568909,364.407196,221.556625,362.123718,223.143326,360.39212C225.616913,357.692627,226.217682,356.622681,227.356934,352.887695C228.087708,350.491882,228.685608,347.905151,228.685608,347.139404C228.685608,346.373688,227.518738,342.0401,226.09256,337.509216C222.581284,326.354126,222.551682,321.785767,225.970627,318.69165C227.43837,317.363403,230.473267,316.247711,232.627441,316.244537C236.780334,316.238403,238.178391,315.437256,241.745209,311.019531C246.903763,304.63031,246.83754,304.820862,246.685089,296.806396C246.589722,291.793396,246.764648,289.181763,247.317978,287.357727C248.378769,283.860779,248.300278,283.177307,246.648254,281.525269C244.859283,279.736328,238.509979,277.722778,235.802811,278.085876C234.777145,278.22345,232.730377,279.166687,231.254471,280.181915C227.099579,283.039978,224.426605,282.447693,221.599838,278.042572C219.699692,275.081421,217.985931,274.109894,212.864746,273.090576C207.96312,272.114929,205.040649,270.659546,199.056381,266.213928C195.530563,263.594666,193.261276,262.319977,190.725082,261.534149C185.050659,259.77594,179.654602,260.924408,179.654602,263.890381C179.654602,265.527863,180.999466,266.192078,184.345367,266.207092C189.287262,266.229279,190.883835,266.888794,193.953308,270.175903C196.414047,272.811096,197.215363,273.322144,200.38295,274.276367C202.858551,275.022095,204.71376,275.990173,206.256454,277.341248C209.044724,279.783142,210.360535,280.495605,212.082199,280.495605C215.634583,280.495605,218.135468,281.668701,221.487473,284.907288C224.138397,287.468506,225.246002,288.19104,226.902161,288.439392C230.062927,288.913391,232.334778,288.119263,233.646591,286.081848C235.888336,282.600189,236.461288,281.958984,237.778107,281.458313C239.696655,280.728882,241.317764,281.304169,242.210922,283.031342C243.333389,285.201965,243.182983,286.392517,241.369705,289.690887L239.753082,292.631531L240.603592,295.66272C242.19133,301.32135,241.513046,303.893738,237.425034,307.71759C234.865082,310.112122,231.118805,311.785217,226.959808,312.391357C224.977615,312.680267,223.970032,313.220276,222.033997,315.031189C218.588104,318.254395,218.279907,319.275665,218.617493,326.352386C218.85228,331.274445,219.226929,333.366486,220.729828,338.1474C223.124863,345.766357,223.194641,349.372192,221.035385,353.936493C219.312241,357.578857,215.193039,361.984314,212.086578,363.507172C210.749329,364.16272,208.985046,364.509277,206.979172,364.510468C204.310013,364.512054,203.507935,364.258911,200.760864,362.548035C197.286163,360.383972,196.489761,360.361328,191.971176,362.298218C189.156525,363.5047,183.385651,367.304779,181.491364,369.199066C180.372574,370.317871,180.143982,370.917389,180.382156,372.108246C181.19841,376.189575,184.79628,376.888947,186.726456,373.341583M263.417999,449.550446C264.820496,446.960205,265.992126,445.647247,268.74939,443.576019C272.724396,440.590057,272.782501,440.509705,274.719543,435.321564C276.552124,430.413116,278.387726,427.837982,281.255951,426.151794L283.590118,424.779572L294.315643,424.832611C306.125549,424.891022,306.773376,425.0224,311.680786,428.354095C313.274139,429.435822,315.867096,430.507416,318.575775,431.203644C326.191071,433.16098,325.405731,433.287659,334.582184,428.621704L342.835907,424.424927L348.550385,424.002655C355.486664,423.490112,356.981232,422.846985,360.785919,418.737427C367.916779,411.035278,368.447723,409.80899,366.77594,404.902557C365.574371,401.37619,365.994629,392.917603,367.518799,389.951172C370.106537,384.914612,377.23175,382.563477,384.914307,384.211121C389.84903,385.26944,391.234589,382.616913,387.442535,379.371094C384.383484,376.752655,382.667969,376.584381,377.922943,378.437195C375.760376,379.281647,372.61203,380.12677,370.926605,380.315277C364.233002,381.063904,363.900635,381.434418,361.676666,390.627289C360.390961,395.941711,360.360596,396.39032,360.963593,401.159454C361.728943,407.212585,361.384735,409.875763,359.440918,412.940887C356.662445,417.322052,352.226288,419.258636,346.939667,418.398224C343.451843,417.830566,342.742767,418.07077,336.118896,422.064026C326.565277,427.823425,322.713043,427.964813,312.648621,422.925476L306.151154,419.67215L298.19046,419.628174C293.812042,419.603943,288.886383,419.295837,287.244537,418.943451C284.320892,418.315979,284.19046,418.3367,280.916656,419.948395C276.540161,422.102905,273.013916,425.570129,271.847687,428.865479C269.864746,434.468628,268.062958,437.690765,265.157593,440.829498C259.379608,447.071564,255.390335,446.983246,250.733704,440.510101C248.873398,437.924194,247.828461,437.006714,245.566406,435.973053C239.859909,433.365601,239.173233,432.86496,237.490128,430.084686C236.574036,428.571381,235.484558,426.931061,235.069122,426.439453C234.020706,425.198944,232.065475,425.323334,230.424332,426.734985C229.27536,427.723297,229.104279,428.176483,229.412094,429.416382C229.948639,431.577454,234.364548,435.617737,239.931168,439.04068C245.243896,442.307526,247.749878,444.226318,252.483246,448.651703C256.227386,452.152252,258.042908,453.191559,260.092163,453.007507C261.398621,452.890167,261.881348,452.388397,263.417999,449.550446M330.937195,559.31543C332.686401,558.488281,339.70166,549.351257,343.783875,542.58313C348.150421,535.34375,351.768036,527.50769,351.771393,525.281616C351.77356,523.842896,351.404572,523.391357,348.840607,521.694702C345.457458,519.455994,343.97644,517.130127,343.050323,512.60144C341.950256,507.222137,343.180328,505.184967,349.401733,502.082367C351.689606,500.941437,354.214539,499.399658,355.012756,498.65625C358.070099,495.808807,359.530609,490.797119,357.805756,489.072266C356.470642,487.737152,355.015137,488.689331,352.392365,492.613617C350.820618,494.965332,349.031128,496.89679,347.409393,497.991913C345.054291,499.582275,344.642761,499.6875,341.472656,499.509766C338.497986,499.343018,337.69281,499.061768,335.11734,497.290222C331.28067,494.651093,329.501678,492.046783,326.988007,485.389679C324.90506,479.87326,321.563538,474.274841,319.484833,472.818878C317.850159,471.67392,315.922089,471.821075,309.074463,473.613342C301.453033,475.608124,297.891266,475.50708,293.294159,473.165558C285.534912,469.21344,284.270874,464.559998,289.029968,457.466888C292.31366,452.572754,292.806274,452.33902,299.545441,452.477295C305.122284,452.591736,305.309174,452.559692,306.099731,451.353149C306.975922,450.0159,306.751038,448.52417,305.481964,447.255127C304.892303,446.665436,303.44046,446.487152,299.258881,446.490997C294.614197,446.495209,293.422882,446.673889,291.230316,447.694855C288.866425,448.795624,285.888458,451.549591,285.888458,452.634888C285.888458,454.256775,283.382721,459.230713,281.494751,461.356415C279.674255,463.40625,279.24884,464.254669,279.24884,465.835632C279.24884,468.732971,281.021027,470.946564,285.142242,473.19696C287.097656,474.264679,289.749207,476.239471,291.034576,477.585358L293.371674,480.03241L299.188538,480.339264C304.83313,480.637024,305.10672,480.601654,308.428711,479.143616C314.918121,476.29538,318.281219,477.538452,321.350494,483.919769C322.331665,485.959717,323.495483,489.231232,323.936737,491.189819C325.398224,497.677124,325.7211,498.06601,331.17688,499.911285C336.879517,501.840057,338.26532,503.994507,337.765533,510.15448C337.37973,514.908875,337.392822,514.94751,340.995178,519.706909C345.647644,525.853638,345.597229,529.151367,340.709229,538.419128C336.09549,547.16687,332.264496,551.622009,328.443695,552.682983C325.859283,553.400635,325.15213,553.374512,321.491119,552.425842C319.205017,551.833435,318.077423,551.761475,317.217896,552.153076C315.640289,552.871887,315.17688,554.942383,316.232941,556.554077C317.001404,557.72699,317.377899,557.828247,321.01358,557.840637C323.80307,557.850098,325.55896,558.137451,327.002991,558.82074C329.499237,560.001953,329.488159,560.00061,330.937195,559.31543M416.361786,388.109497C416.784729,387.463989,417.506989,384.993286,417.966766,382.619049C419.140625,376.557739,419.152618,338.129517,417.983795,328.249756C417.420441,323.488403,417.165436,315.614197,417.082153,300.414459C416.981415,282.021118,417.087982,278.475983,417.888336,273.600647C418.697174,268.673523,418.735748,267.279938,418.201904,262.270447C417.71759,257.726013,417.730408,255.063873,418.264648,249.246613C418.633972,245.225113,418.91507,238.027618,418.889374,233.252197C418.828247,221.908173,417.843048,199.35733,417.238129,195.457458C416.738983,192.239441,416.868439,156.011841,417.417419,145.27951L417.737366,139.025146L416.3479,138.496872C414.502228,137.795135,411.611603,138.740631,411.044769,140.231476C410.78891,140.90448,410.927643,142.846786,411.396881,145.161118C412.318634,149.707184,412.401794,164.487518,411.527588,168.388275C410.425751,173.304718,410.350861,176.471786,411.273315,179.141602C412.349976,182.257813,412.363495,186.060181,411.30838,189.009766C410.294312,191.844467,410.297028,193.977875,411.318268,196.797791C412.305084,199.522736,413.716492,218.5504,413.776062,229.932404C413.824158,239.118698,412.859253,255.92308,412.03717,260.215485C411.563782,262.687317,411.613617,263.653564,412.340179,266.088989C413.490997,269.946533,413.395203,274.127625,412.02771,279.729492C411.07196,283.644653,410.959381,285.083435,411.268188,289.433563C411.467621,292.242615,411.706482,301.435944,411.799011,309.863159C411.901855,319.229095,412.269653,327.766357,412.745148,331.824951C413.346313,336.955811,413.450073,341.366028,413.201813,351.233032C412.754486,369.010162,412.750488,368.757568,413.53595,372.186005C414.423035,376.057861,414.039215,378.12439,411.782349,381.62735C409.673035,384.901306,409.554504,386.332184,411.251801,388.029541C412.897766,389.675476,415.310944,389.713257,416.361786,388.109497M324.746918,403.541595C325.748871,402.539673,325.789948,402.130066,325.453735,396.496918C325.104523,390.645752,325.132568,390.411743,326.747101,385.709473C329.178253,378.628876,328.621826,375.714752,323.683167,369.662781C320.849487,366.190308,318.184418,364.7724,314.456299,364.753815C312.929779,364.746216,309.586609,364.537262,307.027069,364.28949C301.832031,363.786591,299.285187,362.739258,296.810181,360.088074C294.989502,358.137817,289.726288,350.20282,289.018372,348.340881C287.788818,345.106873,290.062378,342.154724,294.485535,341.241913C298.316528,340.451294,301.202454,339.312256,302.63205,338.026611C303.273346,337.449829,304.856781,334.84491,306.150787,332.237793C308.479431,327.546143,308.499329,327.46228,308.097717,324.043152C307.570404,319.554504,307.667297,317.915833,308.619476,315.217041C311.023438,308.403503,315.862671,306.159241,322.917084,308.586304C327.105164,310.027222,329.141418,309.90625,332.081207,308.04187C333.43927,307.180664,335.840027,306.001831,337.41629,305.422241C338.992554,304.842682,340.684418,304.017792,341.176025,303.589172C342.983795,302.012939,341.701721,298.371521,339.338989,298.371521C338.766815,298.371521,336.750244,299.291443,334.857697,300.415771C326.591797,305.326447,317.99118,305.044983,313.756561,299.72522C312.192749,297.760712,312.191498,297.753937,312.168671,291.042664C312.151276,285.937012,311.919617,283.637878,311.202698,281.45636C309.992462,277.773682,310.378235,276.138245,312.72052,275.021301C315.729401,273.586456,317.302979,274.617218,320.211945,279.928528C320.944977,281.266937,321.382141,281.51709,322.988068,281.51709C326.839813,281.51709,328.607605,277.712524,325.977753,275.082703C324.330017,273.434937,317.661499,270.264709,315.152069,269.936096C312.471313,269.585022,310.172546,271.263458,308.034515,275.132843C304.814423,280.960632,304.737244,285.278839,307.670898,295.476044C309.734161,302.647827,309.379791,305.149872,305.375122,311.685486C303.616364,314.555725,302.04187,317.581726,301.876251,318.409851C301.710602,319.238037,301.874512,321.502502,302.240479,323.442078C303.46756,329.945313,301.331207,332.960632,292.332367,337.426636C284.742615,341.193359,281.185303,341.191467,275.286835,337.417664L271.68219,335.11145L264.580688,335.255798C257.619324,335.397278,257.438232,335.373077,255.402039,334.029297C252.899033,332.377441,251.203842,329.1521,250.804352,325.281555C250.389816,321.264984,251.310135,319.126831,255.241257,314.973511C257.840881,312.22699,258.753662,310.869202,259.033386,309.332855C259.235992,308.219971,259.868469,305.755554,260.438812,303.856323C261.343781,300.843018,261.404266,299.992096,260.913666,297.174896C260.604462,295.399292,260.351471,292.981201,260.351471,291.801331C260.351471,287.182068,257.802551,284.349731,255.614578,286.53772C254.698624,287.453674,254.594742,288.091797,254.753677,291.826294C255.232361,303.074768,255.105942,304.542175,253.352692,308.087311C252.452896,309.906738,250.209854,313.202637,248.368179,315.411499C246.526489,317.620422,244.87886,319.988678,244.706772,320.674316C244.184616,322.754761,244.829117,325.083954,247.542862,330.923737C250.806534,337.94693,251.028381,340.978912,248.589706,345.231201C246.70459,348.51825,244.197403,350.223083,240.183807,350.946991C236.447235,351.620941,234.740189,353.09668,234.665894,355.717224C234.553787,359.672424,237.253952,360.209473,241.601089,357.096527C243.177917,355.967377,245.915894,354.393921,247.685425,353.599945C249.454971,352.805969,251.216354,351.778503,251.599594,351.31665C251.982834,350.854828,252.609802,348.832123,252.992859,346.821747C254.136581,340.819244,256.12677,339.458649,263.140198,339.88446C266.620972,340.095825,268.985474,340.605164,272.748169,341.954102C281.529846,345.102478,283.122894,346.427612,286.666168,353.531372C289.001129,358.212708,290.757416,360.806519,294.671082,365.35376C298.782623,370.13089,300.003265,370.711639,304.185242,369.880402C311.095764,368.506805,316.425873,369.724457,319.786743,373.444519C323.116821,377.130554,323.50531,381.915527,320.92746,387.495575C318.980011,391.710999,318.039276,400.390656,319.318268,402.342651C320.815765,404.628113,323.145813,405.1427,324.746918,403.541595"/>
</svg>
