<?xml version="1.0" encoding="UTF-8"?>
<svg xmlns="http://www.w3.org/2000/svg" width="448.246mm" height="310.848mm" viewBox="-894.778564 -448.147278 448.245850 310.847656">
    <path transform="matrix(0.26455,0,0,-0.26455,-925.868896,-120.115067)" style="stroke:#000000;stroke-width:0.05mm;fill:none" d="M1788.967041,1077.505981C1796.630249,1080.956787,1796.327759,1082.182617,1798.051392,1091.271118C1799.015503,1096.354492,1801.218262,1101.452026,1805.628052,1108.804199C1810.993042,1117.748901,1813.768066,1137.198364,1810.474731,1142.773438C1808.239624,1146.557251,1794.189941,1152.667236,1780,1156.026367C1774.775024,1157.263306,1768.424316,1159.082397,1765.887451,1160.068848C1752.650146,1165.216187,1732.334106,1168.931152,1716.789429,1169.046753C1710.964355,1169.09021,1696.24353,1172.910156,1697.40918,1174.075928C1697.67395,1174.340576,1695.047974,1175.576538,1691.573853,1176.82251C1680.717896,1180.715942,1672.314209,1189.981567,1675.032471,1195.060669C1677.008667,1198.753296,1667.944702,1211,1663.235352,1211C1662.22168,1211,1659.841553,1212.613403,1657.946167,1214.585327C1656.050781,1216.557251,1653.238525,1218.831177,1651.696777,1219.63855C1650.155029,1220.445801,1648.003174,1221.996826,1646.914917,1223.085083C1645.354492,1224.645508,1644.57312,1224.82959,1643.21814,1223.956299C1641.678711,1222.964111,1641.674194,1222.902588,1643.174561,1223.364136C1644.241577,1223.692383,1645.467285,1222.935791,1646.553101,1221.278687L1648.25708,1218.677979L1644.37854,1220.998169C1642.245361,1222.274292,1639.673462,1224.259155,1638.663208,1225.40918C1637.652954,1226.559082,1637.112793,1226.944336,1637.462769,1226.265259C1637.812744,1225.586182,1634.941895,1226.634521,1631.083008,1228.594971C1627.224121,1230.555298,1623.638062,1231.894287,1623.114014,1231.570435C1622.589966,1231.246582,1621.5625,1231.548218,1620.830566,1232.240845C1620.098755,1232.93335,1618.599976,1233.588867,1617.5,1233.69751C1615.152466,1233.929443,1606.377319,1235.077026,1603.5,1235.528442C1602.400024,1235.70105,1600.375,1236.129883,1599,1236.481323C1597.625,1236.832886,1594.281738,1237.309204,1591.570557,1237.539795C1588.859253,1237.770264,1586.181763,1238.418213,1585.620483,1238.979492C1584.202148,1240.397827,1579.414551,1240.256958,1577.821411,1238.75C1576.502075,1237.501953,1572.83252,1237.406616,1561.487183,1238.325928C1555.49707,1238.811401,1545.401611,1237.528442,1543.5,1236.040283C1540.429932,1233.637573,1521.363281,1230.757324,1519.193604,1232.368408C1518.262329,1233.059937,1517.975098,1232.930908,1518.193604,1231.919312C1518.424683,1230.848755,1517.271484,1230.483032,1513.5,1230.430908C1510.75,1230.392822,1507.824951,1230.060547,1507,1229.692505C1506.175049,1229.324463,1504.375,1228.826538,1503,1228.585938C1501.625,1228.345459,1500.275024,1228.06189,1500,1227.955933C1499.724976,1227.849854,1499.162476,1227.816406,1498.75,1227.881592C1498.337524,1227.946655,1498,1227.501831,1498,1226.893066C1498,1226.28418,1497.274902,1226.064331,1496.388672,1226.404297C1495.335327,1226.808594,1494.945557,1226.584351,1495.263062,1225.756958C1495.60376,1224.869019,1494.444824,1224.440796,1491.379517,1224.322266C1488.939087,1224.227783,1486.314941,1223.457764,1485.435181,1222.578003C1484.56897,1221.711792,1482.766602,1220.728516,1481.430054,1220.393066C1480.093506,1220.057617,1479,1219.373169,1479,1218.87207C1479,1218.37085,1477.948242,1218.151611,1476.66272,1218.384766C1474.250488,1218.822144,1468,1215.544922,1468,1213.842773C1468,1213.314331,1467.581055,1213.140869,1467.069092,1213.457275C1466.557129,1213.773682,1465.836548,1213.544556,1465.467896,1212.94812C1465.099365,1212.351685,1464.168213,1212.105225,1463.398804,1212.400391C1462.629517,1212.695679,1462,1212.546265,1462,1212.068359C1462,1211.590454,1459.75,1210.659668,1457,1210C1454.25,1209.340332,1452,1208.34729,1452,1207.793213C1452,1207.239258,1451.392578,1207.019043,1450.650269,1207.303955C1449.907959,1207.588867,1448.10791,1206.797119,1446.650269,1205.544556C1443.899536,1203.18103,1443.07019,1201.397461,1445.25,1202.533325C1445.9375,1202.891602,1444.762817,1201.568115,1442.639526,1199.592285C1440.516357,1197.616577,1438.40918,1196,1437.956909,1196C1437.504761,1196,1436.847046,1195.093506,1436.495361,1193.985474C1436.143677,1192.877441,1435.368896,1192.271973,1434.773438,1192.640015C1434.178101,1193.007935,1433.971069,1192.855835,1434.313477,1192.30188C1435.053345,1191.104736,1432.626343,1187.5,1431.080566,1187.5C1429.477539,1187.5,1430.260742,1185.578979,1431.965942,1185.328735C1432.772217,1185.210449,1434.02063,1185.602173,1434.740112,1186.199341C1436.28894,1187.484741,1436.535156,1187.284302,1437.441284,1184C1437.937988,1182.199463,1437.854248,1181.901733,1437.141724,1182.935669C1436.393555,1184.021484,1435.821045,1184.096313,1434.792725,1183.24292C1433.963013,1182.554321,1432.879761,1182.456299,1432.01416,1182.991211C1431.233887,1183.473511,1430.166992,1183.603149,1429.643188,1183.279541C1429.119507,1182.955811,1429.012085,1183.210571,1429.404541,1183.845459C1429.796997,1184.480469,1429.657349,1185,1429.094238,1185C1427.928589,1185,1425.838135,1181.514038,1426.23645,1180.234741C1426.573608,1179.151733,1421.76416,1172.015869,1420.69104,1172.006836C1420.245972,1172.003052,1420.160034,1171.550049,1420.5,1171C1420.839966,1170.449951,1420.614868,1170,1420,1170C1419.385132,1170,1419.182739,1169.513428,1419.550293,1168.918579C1419.949219,1168.273071,1419.469238,1167.916504,1418.359253,1168.033813C1414.536377,1168.437866,1413.515869,1168.084106,1414.800049,1166.800049C1416.442993,1165.156982,1416.31189,1163.666382,1414.582764,1164.329834C1413.803223,1164.629028,1412.917358,1164.227173,1412.614136,1163.43689C1411.621338,1160.849609,1403.304932,1163.21521,1400.235474,1166.95813C1399.540039,1167.806152,1399.06665,1168.050049,1399.183594,1167.5C1399.985596,1163.728149,1394.794189,1159.715942,1391.703979,1161.71936C1389.685791,1163.027832,1386.587769,1162.594849,1384.898438,1160.768188C1384.0177,1159.815674,1383.005127,1159.328247,1382.648438,1159.684814C1382.29187,1160.041504,1382,1159.458496,1382,1158.38916C1382,1155.96167,1379.161743,1151.781982,1378.000732,1152.499634C1377.526367,1152.792725,1376.881714,1152.617554,1376.568115,1152.110229C1376.254517,1151.602905,1375.098511,1151.422974,1373.999023,1151.710571C1372.899536,1151.998047,1372,1151.761108,1372,1151.18396C1372,1150.606934,1371.195801,1149.879517,1370.212769,1149.567505C1368.219849,1148.934937,1367.448242,1145.008667,1369.312134,1144.984741C1370.141479,1144.973999,1370.107666,1144.720459,1369.199951,1144.144653C1368.484863,1143.691162,1367.826538,1142.348022,1367.737061,1141.160034C1367.54834,1138.653442,1365.790161,1138.343018,1364,1140.5C1363.315308,1141.324951,1362.247681,1141.986328,1361.627563,1141.969604C1361.007446,1141.952881,1361.287476,1141.480469,1362.25,1140.919922C1364.150513,1139.812988,1364.609619,1136.494873,1363,1135.5C1362.449951,1135.160034,1362,1135.610107,1362,1136.5C1362,1137.389893,1361.592285,1137.866089,1361.093872,1137.557983C1359.783936,1136.748413,1361.009399,1132.914551,1362.363647,1133.585449C1362.988647,1133.89502,1362.636963,1133.44751,1361.582031,1132.591064C1360.219604,1131.484985,1359.301025,1131.335205,1358.410767,1132.074097C1357.457031,1132.865601,1357.285278,1132.625,1357.692383,1131.068359C1357.986572,1129.943115,1358.695801,1129.312012,1359.268188,1129.665771C1359.842773,1130.020874,1360.013062,1129.8302,1359.648315,1129.239868C1359.284912,1128.651855,1359.551636,1127.982788,1360.241089,1127.75293C1360.990356,1127.503174,1360.48999,1126.799561,1358.997314,1126.003784C1356.818237,1124.842163,1356.654663,1124.860229,1357.713745,1126.14502C1358.694702,1127.335205,1358.521484,1127.965332,1356.810059,1129.430664C1355.408081,1130.631104,1354.842407,1130.780151,1355.136108,1129.871826C1355.642456,1128.305542,1350.4729,1122.900146,1349.391724,1123.865601C1349.000977,1124.214478,1348.984741,1123.658325,1349.355591,1122.629517C1349.901001,1121.116089,1349.645142,1120.859497,1348.014893,1121.285889C1346.906738,1121.575684,1346,1121.372803,1346,1120.834961C1346,1119.425781,1343.351807,1116.981567,1342.619019,1117.714233C1342.278564,1118.05481,1342,1117.758301,1342,1117.05542C1342,1116.122803,1340.986572,1115.963623,1338.25,1116.466553C1333.678223,1117.306641,1334.951538,1115.536499,1339.626343,1114.553101C1341.638794,1114.129761,1343.243408,1114.359375,1344.130249,1115.197754C1348.371704,1119.207275,1349,1119.383423,1349,1116.563477C1349,1114.987183,1348.577637,1114.143066,1347.97522,1114.515259C1347.411621,1114.863647,1347.014893,1114.77771,1347.093628,1114.324341C1347.494141,1112.018921,1346.859863,1110.839844,1345.5,1111.361572C1344.675049,1111.678223,1344,1111.515503,1344,1111C1344,1110.484497,1343.327637,1110.320801,1342.505737,1110.63623C1341.68396,1110.951538,1341.190308,1111.499878,1341.408813,1111.854736C1341.627319,1112.209595,1339.642578,1112.5,1336.998169,1112.5C1334.353882,1112.5,1332.38208,1112.189941,1332.616455,1111.810913C1332.850952,1111.431885,1330.89563,1111.241699,1328.271362,1111.388428C1323.368896,1111.662354,1312.029297,1105.553589,1305.023438,1098.864502C1303.661377,1097.564087,1302.423828,1096.612549,1302.273438,1096.75C1300.988159,1097.925049,1300.006592,1096.689941,1301.127563,1095.307983C1301.981079,1094.255859,1302.041382,1093.891357,1301.287231,1094.344116C1300.612061,1094.749268,1298.173706,1093.852539,1295.787231,1092.321289C1293.429199,1090.80835,1291.129028,1089.678345,1290.675659,1089.810059C1290.22229,1089.941772,1290.103271,1089.641968,1290.411133,1089.143799C1290.719116,1088.645508,1289.450562,1087.196045,1287.592163,1085.922729C1285.411011,1084.428223,1284.404907,1083.056763,1284.753906,1082.053711C1285.186157,1080.811157,1285.030518,1080.744385,1283.976929,1081.720215C1282.923584,1082.695801,1282.090698,1082.345093,1279.821045,1079.970215C1278.259888,1078.336548,1276.568604,1077,1276.062744,1077C1275.556763,1077,1274.548218,1076.420654,1273.821411,1075.712524C1271.561401,1073.510742,1265.34082,1070,1263.699341,1070C1262.838867,1070,1261.879028,1069.212524,1261.566528,1068.25C1261.008423,1066.530884,1253.664307,1062.562256,1251.289185,1062.696289C1250.623291,1062.733887,1250.114014,1062.480103,1250.157593,1062.132324C1250.482178,1059.540894,1249.940918,1058.543945,1249,1060C1248.156494,1061.305176,1248.028687,1061.288574,1248.015259,1059.872559C1248.006836,1058.977539,1244.987183,1056.165039,1241.304932,1053.622559C1237.622681,1051.0802,1235.035156,1048.981079,1235.554932,1048.95813C1237.173462,1048.886353,1229.599854,1045.086182,1227.75,1045.04187C1226.787476,1045.018921,1226,1044.550049,1226,1044C1226,1043.449951,1225.4729,1043,1224.828735,1043C1224.18457,1043,1222.822632,1042.244507,1221.802368,1041.321045C1220.649048,1040.277466,1217.970825,1039.56543,1214.723633,1039.439331C1207.896118,1039.174316,1205.557495,1038.238159,1207.094971,1036.38562C1208.010132,1035.282837,1207.598633,1034.734741,1205.052246,1033.664063C1201.098145,1032.001465,1190,1031.473267,1190,1032.947632C1190,1035.080688,1188.165527,1033.913574,1187.209961,1031.172607C1186.667847,1029.617432,1185.048828,1027.076782,1183.612183,1025.526489C1182.175537,1023.976318,1181,1022.398682,1181,1022.02063C1181,1021.642639,1180.4375,1021.320557,1179.75,1021.304993C1179.0625,1021.289368,1175.349976,1021.006836,1171.5,1020.677063C1166.59375,1020.256775,1165.098267,1020.371094,1166.5,1021.059265C1168.231812,1021.909363,1168.164673,1021.961304,1166,1021.446411C1164.625,1021.119324,1161.37085,1020.603638,1158.768555,1020.300415C1156.16626,1019.997192,1154.254272,1019.397522,1154.519897,1018.967834C1154.785522,1018.538086,1154.102173,1018.422058,1153.001343,1018.7099C1151.900635,1018.997742,1151,1018.76355,1151,1018.189453C1151,1017.598999,1149.619873,1017.320313,1147.822266,1017.547791C1146.074585,1017.768982,1144.049561,1017.456116,1143.322266,1016.852539C1142.359497,1016.053467,1142,1016.060242,1142,1016.877563C1142,1018.107422,1139.853516,1017.980042,1138.906372,1016.69397C1138.579834,1016.250671,1136.571411,1015.671997,1134.443115,1015.40802C1132.314941,1015.144043,1130.332031,1014.60675,1130.036743,1014.21405C1129.741577,1013.821289,1128.599976,1012.97937,1127.5,1012.343079C1126.400024,1011.706726,1125.623657,1010.660767,1125.77478,1010.018738C1125.925903,1009.376648,1125.639404,1009.104858,1125.138062,1009.414673C1123.933716,1010.158997,1121.804932,1007.550171,1122.758667,1006.498657C1123.166382,1006.049133,1122.75061,1005.94928,1121.834595,1006.276794C1120.918701,1006.604309,1118.893677,1006.489685,1117.334595,1006.022095C1115.775635,1005.554504,1115.0625,1005.13324,1115.75,1005.085938C1116.4375,1005.038696,1117,1004.564148,1117,1004.031372C1117,1003.498657,1116.370483,1003.304321,1115.601196,1003.599548C1114.831787,1003.894775,1113.900635,1003.648315,1113.532104,1003.05188C1113.163452,1002.455383,1112.431763,1002.233154,1111.906128,1002.558044C1111.380493,1002.882874,1111.014893,1002.77771,1111.093628,1002.324341C1111.441162,1000.324036,1110.927856,998,1110.138672,998C1109.664917,998,1109.483765,999.080139,1109.736206,1000.400269C1110.130249,1002.461548,1109.828247,1002.779358,1107.598267,1002.650269C1105.63855,1002.536865,1105.001221,1001.962402,1105.000732,1000.309021C1105.000366,999.104004,1104.473511,997.792664,1103.830078,997.394958C1103.025024,996.8974,1102.876221,997.235046,1103.352905,998.477417C1103.942871,1000.014832,1103.81604,1000.092285,1102.498779,998.998962C1101.647827,998.292786,1100.721191,997.945496,1100.439453,998.227173C1100.157837,998.50885,1098.256226,998.161133,1096.213623,997.454407C1092.983154,996.336548,1092.250244,996.386047,1090.580444,997.834717C1088.788086,999.389648,1088.701416,999.388611,1089.272705,997.818542C1089.737793,996.540649,1089.40686,996.229065,1087.894165,996.520386C1086.799438,996.731201,1084.990601,995.990601,1083.874512,994.874512C1082.756348,993.756287,1081.165161,993.106384,1080.3302,993.426819C1079.356445,993.800476,1078.627563,993.291992,1078.290771,992.00415C1077.839722,990.279053,1075.671631,989.438721,1072.784668,989.869995C1072.391235,989.928772,1070.928711,989.543213,1069.534668,989.013184C1068.140625,988.483154,1066.999146,988.375854,1066.998047,988.77478C1066.996948,989.173645,1065.646973,989.59436,1063.998047,989.709717C1062.349121,989.825073,1061,989.48761,1061,988.959717C1061,988.431885,1061.810059,988,1062.800049,988C1063.790039,988,1065.027466,987.593689,1065.550049,987.097046C1066.07251,986.600464,1067.394165,986.032898,1068.486938,985.835876C1070.302124,985.508606,1070.198608,985.189697,1067.290527,982.146667C1065.539795,980.314575,1063.671631,979.084961,1063.139038,979.414063C1062.606567,979.743164,1061.942871,979.447144,1061.664307,978.756226C1061.326904,977.91925,1061.131592,977.885925,1061.078979,978.656372C1061.035522,979.292419,1060.150757,979.590698,1059.112915,979.319275C1058.074951,979.047852,1056.92334,979.314941,1056.553833,979.912903C1056.184326,980.510803,1055.120972,980.993103,1054.19104,980.98468C1053.101074,980.974792,1052.905029,980.708191,1053.639282,980.23468C1054.464722,979.702454,1054.395752,979.144653,1053.389282,978.210571C1052.625244,977.501404,1052,977.310974,1052,977.787354C1052,978.263794,1050.66626,978.457886,1049.036011,978.218628C1047.405884,977.97937,1046.168457,977.269775,1046.286011,976.641785C1046.403687,976.013794,1045.953125,975.6073,1045.284668,975.738464C1044.616211,975.869568,1042.868408,975.520264,1041.400513,974.962158C1037.226318,973.375122,1029.275635,972.744934,1028.535522,973.942444C1026.151245,977.800415,1022.548645,974.212036,1024.625854,970.048096C1026.150757,966.991577,1024.96814,963.941528,1022,963.275757C1017.198792,962.198792,1016.194031,961.657898,1016.673584,960.408325C1016.970764,959.633728,1016.71582,959,1016.106995,959C1015.498169,959,1015,958.380127,1015,957.622437C1015,953.541382,1003.388489,951.604004,1002.405396,955.520996C1002.063171,956.88446,1001.381958,958,1000.891602,958C1000.401245,958,1000,959.09845,1000,960.440979C1000,963.482422,998.395081,964.572754,996.380005,962.900391C995.129944,961.862976,994.673584,961.893188,993.903442,963.064331C993.119324,964.256714,992.63916,964.118774,991.069397,962.25C990.029907,961.012512,988.46405,960,987.589722,960C986.666687,960,986,959.161255,986,958C986,955.596436,986.173645,955.611633,981.417603,957.598877C977.911011,959.064026,977.701965,959.064026,978.917969,957.598877C980.464966,955.734863,978.983032,955.416931,977.175049,957.224976C976.208435,958.191589,975.511475,958.176025,973.870422,957.151123C972.726563,956.436829,972.075378,956.312988,972.42334,956.875977C973.448547,958.53479,969.810303,959.819519,965.5,959.320801C960.921997,958.791077,960.608765,958.791504,956.368835,959.334229C952.743652,959.798279,951,960.702393,951,962.118042C951,962.66803,951.5625,962.78009,952.25,962.367065C952.978516,961.929382,952.874207,962.402039,952,963.5C951.174988,964.536133,951.011353,965.077576,951.636292,964.703186C955.107178,962.623962,953.464539,968.088562,949.911987,970.439514C944.694824,973.89209,941.649841,973.730957,938.25769,969.822754C932.337036,963.001343,930,961.353455,930,964C930,964.549988,930.525024,965,931.166687,965C931.80835,965,932.044189,965.289124,931.690857,965.642517C931.337463,965.99585,930.433533,965.77478,929.682129,965.151184C928.930786,964.527588,928.030457,964.302856,927.681519,964.651794C927.332581,965.000732,926.78894,964.613586,926.47345,963.791382C925.789551,962.009216,921,962.585449,921,964.44989C921,965.119141,920.325012,965.666687,919.5,965.666687C918.674988,965.666687,918,965.265137,918,964.774292C918,964.283508,917.555176,964.156921,917.011475,964.49292C916.44458,964.843262,916.276917,964.441833,916.618469,963.551941C917.203979,962.026123,918.275879,961.604065,920.75,961.925354C922.533508,962.156982,922.294067,960.943726,920.25,959.392029C918.111328,957.768555,917,957.654724,917,959.059021C917,959.641479,917.450012,959.839905,918,959.5C918.549988,959.160095,919,959.358521,919,959.940979C919,960.523438,918.325012,961,917.5,961C916.674988,961,916,960.606262,916,960.125C916,959.643738,914.537476,958.905884,912.75,958.485291C910.962524,958.064697,909.275024,957.664063,909,957.594971C908.724976,957.525879,907.872253,957.071899,907.105042,956.58606C906.006714,955.890625,905.816467,956.259644,906.210571,958.321106C906.48584,959.76123,906.326111,960.701538,905.85553,960.410706C905.38501,960.119934,905,959.233521,905,958.440979C905,957.648438,904.523438,957,903.940979,957C903.358521,957,903.140869,956.581116,903.457275,956.069092C903.773743,955.557129,903.505737,954.812561,902.861816,954.414612C902.172302,953.988464,901.957703,954.122498,902.339722,954.740723C902.696594,955.318054,902.279297,956.062561,901.412476,956.395203C899.129517,957.27124,898.794922,957.152466,899.595642,955.75C899.988159,955.0625,898.888611,955.822754,897.152222,957.439453C894.921082,959.516724,894.354187,960.600891,895.219482,961.135681C896.8125,962.120178,893.625061,963.453857,891.566833,962.664001C890.778564,962.361511,887.508362,963.810852,884.299744,965.884644C881.091125,967.958496,877.911011,969.470337,877.23291,969.244324C876.55481,969.01825,876,969.248596,876,969.756165C876,970.747803,871.656921,973,869.744629,973C869.105896,973,870.252075,971.425964,872.291687,969.502197C877.18811,964.883728,876.97406,964.583557,871.050232,967.761108C867.622864,969.599609,866.389954,970.764954,867.041565,971.55011C868.16394,972.902405,867.276367,974.00592,865.083313,973.98468C863.695923,973.971252,863.685608,973.849426,865,973C867.332275,971.492737,865.649048,971.829529,862.166382,973.566895C860.438904,974.42865,858.519409,974.821045,857.90094,974.438782C857.28241,974.056519,856.445251,974.279541,856.040527,974.934448C855.635803,975.589294,853.901611,976.164978,852.186768,976.213745C850.471924,976.262512,849.23645,976.571838,849.441284,976.901184C849.646057,977.23053,847.322449,977.342468,844.277649,977.149963C840.405762,976.905151,838.484497,977.20575,837.886169,978.149963C837.253418,979.148438,837.026611,979.174438,837.01532,978.25C837.006897,977.5625,836.212524,976.964478,835.25,976.921082C833.871033,976.858826,833.81427,976.71875,834.982117,976.260315C835.797302,975.940369,837.066956,975.075867,837.803589,974.339294C838.540161,973.602661,839.673218,972.96698,840.321411,972.926575C845.645447,972.594849,849.009888,972.111938,849.921509,971.548523C854.277466,968.856384,844.036926,968.854675,838.5,971.546631C835.870667,972.825012,832.786682,973.417847,829.5,973.276794L824.5,973.062195L828.5,974.42627C833.123962,976.003052,832.203247,976.347839,826.75,975.081482C824.562073,974.573364,823,974.583313,823,975.105286C823,975.597412,822.549988,976,822,976C821.450012,976,821.112488,975.493774,821.25,974.875C821.387512,974.256226,820.937195,973.54364,820.249329,973.291443C819.467712,973.004883,819.215515,973.39801,819.576904,974.339722C820.471924,976.672119,816.364807,978.50769,814.476379,976.619263C813.664368,975.807251,812.971497,974.548218,812.936584,973.821411C812.901733,973.094666,812.481934,973.470093,812.003662,974.655823C811.470337,975.978149,809.851685,977.086853,807.817078,977.523438C805.992676,977.914917,804.049988,978.516785,803.5,978.860962C799.597168,981.303162,793.701843,976.549805,797.333862,973.88916C797.79248,973.553223,797.43158,972.99585,796.531921,972.650635C795.575867,972.283752,795.150024,972.433716,795.50708,973.011475C796.278198,974.259155,795.79187,974.251587,792.402832,972.963074C789.812683,971.978271,783.598877,973.782776,782,975.984009C781.407104,976.800232,775.178894,979.01355,773.600769,978.968811C772.995361,978.951599,774.299988,977.828918,776.5,976.473938C778.700012,975.118896,779.951599,974.007935,779.281372,974.005127C778.541077,974.002014,778.321411,973.325989,778.721741,972.282776C779.305969,970.760254,779.200928,970.731873,777.795288,972.032776C776.92334,972.839722,776.457214,973.907043,776.75946,974.40448C777.061707,974.901978,776.802185,974.995789,776.182739,974.612976C775.563293,974.230103,773.904724,974.671509,772.497009,975.593872C769.480042,977.570679,768.203064,976.939819,770.523804,974.619019C771.414307,973.728577,771.71582,973,771.193848,973C770.671936,973,769.761719,973.582214,769.171143,974.293823C767.302917,976.5448,752.283813,976.563293,751.701904,974.315247C751.288086,972.716736,751.21814,972.704407,751.116028,974.211914C751.011108,975.759827,749.635132,975.890259,736.75,975.573975C719.270996,975.144836,719.765686,975.18811,720.410706,974.14447C720.701538,973.673889,719.828064,973.501343,718.469727,973.761047C717.070618,974.028503,716,973.762756,716,973.147949C716,972.551086,715.334229,972.318237,714.520508,972.630493C713.706787,972.942749,710.99884,972.209656,708.502869,971.001404C705.195496,969.40033,702.749207,968.925842,699.482422,969.251892C696.393982,969.560059,695,969.322632,695,968.488281C695,967.714111,695.966797,967.462158,697.680542,967.789795C699.945618,968.222778,700.158142,968.085022,699.051453,966.901123C698.169128,965.957153,695.091919,965.439392,689.620911,965.314209C685.154419,965.212036,679.362488,964.935181,676.75,964.698914C674.041321,964.453979,672,964.687805,672,965.243103C672,965.778625,673.078064,965.946228,674.395752,965.61554C676.042236,965.202271,676.976868,965.497375,677.384277,966.559082C677.710327,967.408691,677.622498,967.884705,677.189148,967.616882C676.755737,967.34906,673.273376,966.873291,669.450562,966.55957C665.627747,966.245911,659.611328,965.740906,656.08075,965.437317C652.550171,965.133789,648.093567,964.230286,646.177185,963.429565C644.260864,962.628845,642.462036,962.204651,642.17981,962.486877C641.897583,962.769104,642.266663,963,643,963C643.733337,963,644.044189,963.289124,643.690857,963.642517C643.337463,963.99585,642.362427,963.715759,641.52417,963.020081C640.481873,962.155029,640,962.109985,640,962.877563C640,963.494873,639.662476,963.946716,639.25,963.881592C637.108276,963.543396,635.998413,964.178467,635.98468,965.75C635.972961,967.091797,635.771912,967.188477,635.122864,966.164612C634.657288,965.430115,633.876709,964.856079,633.388184,964.888916C630.869385,965.05835,626,962.417725,626,960.882446C626,959.938782,625.4375,958.939697,624.75,958.662292C624.003235,958.360962,624.20459,958.126099,625.25,958.078918C626.212524,958.035522,627,957.325012,627,956.5C627,954.731445,626.515808,954.653625,623.974365,956.013733C622.423157,956.843933,621.687927,956.496948,619.913879,954.097351C617.859375,951.318481,614,949.282166,614,950.97699C614,951.411377,614.945251,952.013916,616.100586,952.31604C620.096802,953.361084,617.103882,954.595581,609.980652,954.840393C605.214722,955.00415,603.043823,954.738159,603.473389,954.043091C603.827942,953.46936,606.116455,953,608.559021,953C611.028076,953,613,952.528076,613,951.937134C613,951.3526,612.212524,950.971741,611.25,951.09082C609.098022,951.357117,606.073425,950.188477,603.75,948.192993C602.76123,947.343811,602,947.159058,602,947.768311C602,949.419128,596.930176,955.07489,595.977966,954.486389C595.516113,954.200928,594.87262,954.397034,594.548096,954.922241C594.223511,955.447388,592.954895,955.639404,591.728943,955.348877C590.503052,955.058411,588.825012,954.715515,588,954.586975C587.174988,954.458435,585.523438,954.029846,584.329895,953.634583C581.749084,952.779907,578.514954,951.986816,574.75,951.285339C573.237488,951.00354,571.993103,950.261597,571.98468,949.636475C571.976257,949.011414,571.533142,949.174988,571,950C570.404053,950.92218,570.024719,951.03656,570.01532,950.296997C569.997803,948.922424,563.508972,946.867432,561.554443,947.617493C560.841431,947.891113,559.989136,947.414063,559.6604,946.557495C559.331726,945.700867,558.421814,945,557.638367,945C556.85498,945,555.983765,944.400085,555.702393,943.666809C555.394104,942.863403,553.761963,942.380981,551.595398,942.452881C549.61792,942.518494,548,942.191895,548,941.727051C548,941.262268,547.4375,941.199524,546.75,941.587708C545.899597,942.06781,545.819702,941.957825,546.5,941.243774C547.049988,940.666443,548.400024,939.977661,549.5,939.713074C550.599976,939.448486,549.737488,939.17981,547.583313,939.116028C545.429138,939.052185,543.959656,939.29303,544.31781,939.651123C545.65625,940.989624,541.599976,942.910828,540.060852,941.667297C538.927673,940.75177,538.785034,940.780823,539.399292,941.802124C540.256104,943.226685,535.006653,943.179321,533.94281,941.75293C532.999512,940.488281,527.070496,940.161438,527.295471,941.386475C527.407959,941.998901,526.262512,942.642395,524.75,942.816406C523.237488,942.990479,522,942.688721,522,942.145874C522,941.339783,519.864502,940.53479,515,939.507324C512.030518,938.880066,509.135803,937.395142,507.457672,935.638184C503.053558,931.027344,495.756042,924.580627,496.547516,926C497.275726,927.305969,497.158966,927.317383,495.644623,926.088257C494.408875,925.085266,494.242554,924.46814,495.070129,923.956665C495.892578,923.448364,495.557343,922.320251,493.929413,920.118408C491.432983,916.74176,490.448944,916.121582,491.361633,918.5C491.678223,919.325012,491.5495,920,491.075592,920C489.93396,920,488.842804,917.063354,489.555786,915.909729C489.865021,915.409363,489.641479,915,489.059021,915C488.476563,915,488,915.539978,488,916.200012C488,917.057678,487.692566,917.09259,486.922272,916.322266C485.275635,914.675598,483.989655,908.190735,483.929321,901.229614C483.897858,897.596008,483.480774,895.202881,482.9375,895.538635C481.6185,896.353821,481.765137,893.634827,483.112854,892.287109C483.724945,891.675049,483.893707,890.637024,483.487854,889.980347C482.931152,889.07959,482.53894,889.119568,481.89032,890.14325C481.239594,891.170166,481.007721,891.013855,480.936371,889.5C480.884521,888.400024,480.615143,888.0625,480.337708,888.75C479.48349,890.867004,478.451111,890.222778,471.924194,883.5C466.291138,877.697876,465.19635,877,461.727844,877C458.466125,877,457.132111,876.289978,453.421051,872.578918C449.304535,868.462463,447.692566,866.073914,449.988556,867.49292C450.55542,867.843262,450.723053,867.441833,450.381561,866.551941C450.054016,865.698364,449.353851,865,448.825623,865C448.297394,865,448.13269,864.157288,448.459595,863.127258C449.274261,860.560547,443.666779,855.778442,435.17157,851.795166C431.502197,850.074707,428.274994,848.380676,428,848.03064C426.886749,846.61377,420.227478,842.034851,416,839.779419C408.20462,835.620483,406.605133,834.589355,402.381805,831C400.116791,829.075012,395.981934,825.700012,393.193237,823.5C389.439758,820.538879,388.264618,819.012939,388.668579,817.624756C389.021759,816.411072,388.8237,815.990906,388.107147,816.433777C387.440308,816.845886,387,816.332275,387,815.142334C387,814.055725,387.5625,812.96991,388.25,812.729431C389.141724,812.417542,388.926758,811.63208,387.5,809.989136L385.5,807.686035L387.855377,808.276917C390.064789,808.831238,390.10614,808.763489,388.522827,807.18396C385.149414,803.818542,375.026672,788.765869,375.55835,787.905579C375.858643,787.419678,375.353821,785.440491,374.436493,783.507446C373.519196,781.574341,373.010956,779.066101,373.307098,777.933655C374.034332,775.15271,371.37915,769.08606,368.414001,766.753662C367.086304,765.70929,366,764.354004,366,763.741882C366,763.129761,365.09201,761.662415,363.982269,760.48114C362.384552,758.780457,362.280487,758.333313,363.482269,758.333313C364.317017,758.333313,364.811981,758.521362,364.582153,758.75116C363.809448,759.523926,367.428558,763.000305,368.972229,762.968201C370.236298,762.941895,370.197937,762.707092,368.75,761.607971C367.787506,760.877319,367,759.796936,367,759.207153C367,758.617371,366.067444,757.838806,364.927673,757.477051C363.545227,757.038269,363.046692,756.266785,363.430145,755.159668C363.919495,753.746643,363.799835,753.76355,362.625183,755.273315C361.328461,756.93988,361.208801,756.909851,360.636383,754.773315C359.656647,751.116516,359.907745,747.197449,361.148285,746.783936C362.60025,746.299927,358.629181,733.822266,355.647614,729.5C354.083527,727.232605,353.995972,726.835144,355.289063,727.872437C357.494049,729.641174,357.476501,729.490417,354.404846,720.280884C352.977539,716.001404,351.824738,711.181519,351.843079,709.570068C351.86145,707.958557,351.229248,705.091125,350.438232,703.197937C348.678009,698.985107,348.650909,698.484985,350.25,699.722351C354.966766,703.372009,355.508179,700.750977,351.59906,693.191589C349.910278,689.925842,350.541016,689.017395,352.947174,691.25C354.054047,692.277039,354.166412,692.14325,353.577148,690.5C351.234436,683.967163,351.938934,681.956116,355.738556,684.330078C357.046722,685.1474,356.473267,682.527222,354.889709,680.45166C353.750916,678.959106,354.18399,670.639221,355.444855,669.786499C358.548431,667.687622,355.422913,643.464111,351.02301,635.516052C349.495758,632.757202,347.944183,629.101807,347.575043,627.392944C347.205902,625.684082,345.350525,622.590027,343.451935,620.517273C341.553375,618.444519,340.010315,616.242676,340.022949,615.624329C340.035583,615.00592,337.223083,611.879883,333.772949,608.67749C327.958862,603.280945,328.641693,603.365723,337.078613,609.088074C342.374268,612.67981,341.252075,610.601257,334.243713,603.83728C326.780579,596.634277,322.68634,593.646973,321.670166,594.663147C321.301575,595.031738,321,594.826416,321,594.206787C321,593.587219,319.194641,592.539368,316.988129,591.878296C314.781586,591.217224,312.419098,589.987732,311.738129,589.146179C310.751617,587.927002,310.754028,587.768677,311.75,588.367065C313.571838,589.461609,313.278992,588.471191,311.308044,586.872437C310.158386,585.93988,309.856781,585.900635,310.367065,586.75C311.368958,588.417664,309.493195,588.350342,307.800781,586.657959C304.994049,583.851196,300.265228,581.999207,301.652313,584.25C302.075989,584.9375,301.218384,584.712524,299.746521,583.75C298.274628,582.787476,295.592041,582.044861,293.785187,582.09967C290.650787,582.194763,290.614746,582.238647,293,583.054688C294.857697,583.690308,294.022339,583.857361,289.748474,583.705017C286.585144,583.592285,283.808167,583.950012,283.577423,584.5C283.34668,585.049988,283.122375,584.9375,283.078949,584.25C282.993927,582.903687,280.383392,582.507507,279.833344,583.757446C279.3284,584.904785,271.337067,591,270.337708,591C269.85675,591,268.695984,592.237488,267.75824,593.75C266.417511,595.912415,266.047546,596.106201,266.026611,594.65686C266.004761,593.143677,265.14978,593.507141,261.25,596.687439C258.637512,598.817993,254.568085,601.859558,252.206848,603.446472C249.845612,605.033447,247.57959,606.928833,247.171234,607.658508C246.377335,609.077148,233.225708,618,231.92865,618C231.502502,618,229.840515,619.313354,228.235336,620.918518C226.120758,623.033081,223.613724,624.172119,219.134064,625.053406C215.733536,625.722412,212.710693,626.659119,212.416626,627.134888C212.122559,627.610718,210.221024,627.964478,208.190979,627.921082L204.5,627.842102L207.5,626.841797C209.149994,626.291687,211.175003,625.618591,212,625.346008C212.998917,625.016052,212.330811,624.344849,210,623.336792C204.956512,621.155518,194.014221,622.05011,186.950607,625.221191C180.500504,628.116882,176.56897,627.911865,172.564621,624.471008C171.063583,623.181213,169.197479,622.370728,168.417725,622.669922C167.584915,622.989502,167,622.599121,167,621.723633C167,620.534668,163.767273,618.800781,162.15654,619.125793C161.967636,619.16394,160.61763,618.081177,159.15654,616.719727C155.357986,613.180237,152.659576,612,148.365738,612C143.995331,612,144.761963,610.796997,150.25,609.043274C152.3125,608.384155,154,607.389404,154,606.832764C154,605.697266,149.967773,602.084717,148.642975,602.033264C147.256561,601.979431,135.188339,596.041748,134.828857,595.236572C134.64798,594.831421,132.52533,593.214966,130.111862,591.644409C126.818794,589.501404,126.068047,588.575989,127.1035,587.936035C128.202377,587.256897,128.230499,586.830505,127.241638,585.841614C124.130043,582.730042,128.041916,578.650879,132.497757,580.360779C133.413834,580.71228,134,580.364197,134,579.468628C134,577.67041,135.14946,577.58551,136.958633,579.25C137.705887,579.9375,136.783386,578.539917,134.90863,576.144226C133.03389,573.748535,129.843033,570.942505,127.817848,569.908508C125.792664,568.874573,123.810638,567.502625,123.413338,566.859802C122.962639,566.130554,123.125153,565.95929,123.84549,566.40448C124.480469,566.796936,125,566.903198,125,566.640564C125,566.377991,123.401329,565.17511,121.447403,563.967468C116.795914,561.092712,117.687286,560.292542,122.605034,562.928284C125.075478,564.25238,126.76754,564.632446,127.395615,564.004395C128.687073,562.712952,128.11409,562.283691,124.306252,561.690063C120.718384,561.130737,116.665039,558.668274,117.673027,557.660278C118.729553,556.60376,122.497574,556.897583,123.73278,558.132813C125.003288,559.40332,128.432556,558.508911,127.579979,557.129395C127.279251,556.642822,129.979782,556.324646,133.581177,556.422363C140.077637,556.598633,142.796707,555.600586,139.313385,554.318359C138.316025,553.951233,137.134842,553.044922,136.688538,552.304382C136.242233,551.563843,135.465118,551.212524,134.961609,551.523743C131.406158,553.72113,119.705002,546.152161,122.435814,543.421326C124.586571,541.270569,124.395782,540.08374,122,540.710266C119.607124,541.335999,119.390846,539.752014,121.571426,537.571411C123.411674,535.731201,127.110771,535.510742,128.744049,537.144043C129.602783,538.002808,129.740875,537.725098,129.297745,536.030579C128.747513,533.926453,128.868362,533.859192,131.075775,535.040527C132.888016,536.010437,132.455765,535.127502,129.235031,531.280701C126.920006,528.515686,123.670067,525.691772,122.012947,525.005371C117.662308,523.203247,118.306709,522,123.622444,522C127.503342,522,128.055725,522.227905,127.06575,523.420776C125.628197,525.152893,130.77919,531.573608,133.009842,530.830078C133.986343,530.504578,133.506729,529.465637,131.326981,527.184753C129.192947,524.95166,128.412537,523.292786,128.725586,521.655151C128.980286,520.322754,128.489899,518.632751,127.586403,517.729248C126.713882,516.85675,126,515.660706,126,515.071411C126,514.482117,125.622231,514,125.160515,514C124.698799,514,123.808449,512.875,123.181953,511.5C122.555466,510.125,122.290375,509,122.592865,509C123.65052,509,126.000137,511.868713,126.015312,513.178589C126.026382,514.133789,126.235992,514.177185,126.771645,513.335266C127.762871,511.777222,130.458115,513.717285,131.392548,516.661438C131.768524,517.846008,132.756119,519.076172,133.587204,519.395081C136.319214,520.443481,131.939255,513.980713,126.060944,508.289856L120.621895,503.024292L124.810944,503.379456C128.014008,503.651001,129,503.383942,129,502.244843C129,501.027771,129.277145,500.985138,130.514297,502.011871C131.347168,502.703094,133.484665,503.365967,135.264297,503.484955C137.04393,503.603912,140.201187,504.668488,142.280411,505.850616C144.35965,507.032776,146.60965,507.981262,147.280411,507.958374C149.501053,507.882568,140.860504,501.128143,137.649857,500.430023C134.521255,499.749756,127.917625,495.560028,123.180771,491.25C120.466637,488.780426,121.648918,488.370575,127,489.926086C128.375,490.325775,130.822372,490.287994,132.438614,489.842102C134.587601,489.249268,135.84259,489.452545,137.109039,490.598663C139.016953,492.325317,141.254517,489.963501,140.28154,487.25C140.035019,486.5625,140.375931,486,141.039108,486C141.962769,486,141.953613,485.649048,141,484.5C140.315308,483.674988,138.719543,483,137.453842,483C135.442429,483,131.371811,482.283691,122,480.280609C120.010971,479.855469,120.726334,479.455017,125.5,478.32132C136.187088,475.783234,137.289825,475.757202,142.333405,477.92395C148.499573,480.572998,147.954971,478.659882,141.460205,474.856537C134.724213,470.911896,133.143845,470.245605,128.5,469.392426L124.5,468.657532L130.696762,467.815338C135.335281,467.184937,137.956253,467.339294,141.11972,468.429199C143.825516,469.36142,145.947083,469.563507,147.016983,468.990906C148.137024,468.391479,149.976028,468.698364,152.594025,469.92157C165.425262,475.916687,167.453995,476.170868,162.677094,471.184845C161.204697,469.64798,160,467.907776,160,467.317719C160,466.727661,159.324997,465.684692,158.5,465C157.675003,464.315308,157,463.360199,157,462.877563C157,461.298706,159.321289,461.954895,161.855148,464.25L164.339188,466.5L162.761246,464.158356C159.470978,459.275604,152.306503,456.230408,148.677948,458.172363C146.65741,459.253723,146.676987,459.332062,149.555679,461.686829L152.5,464.095276L149.817276,462.917786C146.638977,461.522766,142.138306,452.341461,143.912079,450.871277C144.501266,450.382904,144.798828,450.250336,144.573318,450.576691C143.931183,451.505951,146.090469,457,147.097824,457C148.366211,457,148.21936,455.619354,146.800003,454.200012C145.866669,453.266663,145.911118,453,147,453C148.088882,453,148.133331,452.733337,147.199997,451.799988C144.721527,449.321533,146.176361,449.427307,151.75,452.130829C154.912506,453.664825,158.399994,454.85257,159.5,454.770294C160.600006,454.688019,163.862503,456.323273,166.75,458.404144C172.334976,462.429016,173.240448,462.392426,170,458.272858C168.899994,456.874451,167.9879,455.228455,167.973099,454.615143C167.958298,454.001801,166.570419,451.924988,164.888901,450C163.207382,448.075012,162.148804,447.107391,162.536484,447.849762C163.098831,448.926605,162.829254,448.978973,161.203217,448.108765C159.245651,447.061096,152.453949,434.992798,153.829819,435.006836C154.735443,435.016052,159,441.352966,159,442.689423C159,443.275543,159.686844,444.325134,160.526306,445.02182C161.694427,445.991302,161.577087,445.179199,160.026306,441.561371C157.665665,436.05423,157.423599,434.289917,159.571976,438.25C161.09726,441.061523,163,441.935181,163,439.823975C163,438.820282,165.722946,442.297668,170.725174,449.689545C171.750015,451.203979,171.790894,451.039703,170.975174,448.684906C169.566544,444.61853,169.798035,444.179413,171.905258,446.920654C173.636047,449.17218,178,450.865753,178,449.285889C178,448.900024,176.341736,446.886108,174.314972,444.810516C170.206009,440.60257,170.296783,439.430481,174.611313,440.984497C178.752823,442.476166,172.596207,437.13446,165.25,432.862244C157.977249,428.632751,158.644623,427.287018,166.138794,431.070068C170.551773,433.297729,172.4832,433.836182,173.009018,432.985413C173.496872,432.196045,175.282318,433.41095,178.370239,436.633484C180.916611,439.290833,183,440.965515,183,440.35498C183,439.744415,182.324997,438.684692,181.5,438C180.675003,437.315308,179.997162,436.247711,179.993683,435.627563C179.987885,434.593506,177.255524,432.571747,171.300812,429.195435C168.590714,427.658813,168.285263,426,170.712402,426C171.900635,426,170.917282,424.469452,167.5,421C162.598129,416.023285,162.255936,414.996246,166.203598,417.108978C167.343262,417.718903,169.671082,418.437836,171.376511,418.706635L174.47731,419.195313L169.988647,415.138672C167.519897,412.907501,166.0625,411.063568,166.75,411.041016C167.4375,411.018463,168.001694,411.337494,168.003754,411.75C168.009644,412.930389,176.863098,416.26651,178.412186,415.672058C179.177948,415.378235,180.095032,415.428345,180.45015,415.783478C181.772964,417.106293,186.113434,416.737976,185.580109,415.348175C184.603317,412.802673,186.853821,414.004425,190.768631,418.118774C194.200699,421.725769,194.950333,422.096954,196.801834,421.106049C198.582474,420.153076,199.093201,420.305634,200.039032,422.072937C200.656693,423.22702,201.427353,423.905975,201.751633,423.581696C202.602051,422.731262,197.879684,417.956329,196.829865,418.605164C196.346191,418.904083,196.074097,418.77771,196.22522,418.324341C196.376358,417.870941,195.69606,416.600006,194.713486,415.5C193.730896,414.399994,191.777374,412.036285,190.37233,410.247314C188.967285,408.458344,187.408722,407.247406,186.908844,407.556335C186.408981,407.865265,186,407.471588,186,406.681458C186,405.891357,185.251328,404.627289,184.336273,403.872437C182.813797,402.616516,182.783707,402.712219,183.981796,405C185.28804,407.494293,185.286179,407.495697,183.169098,405.616364C181.167252,403.839294,181.072311,402,182.982422,402C183.45784,402,185.9505,403.605774,188.521667,405.56839C193.687744,409.511749,195.043274,409.414154,192.965332,405.248505C192.211273,403.736816,191.384338,402.049988,191.127701,401.5C190.691971,400.566162,198.426865,407.358032,207.412033,415.79895C209.770416,418.014496,210.884247,418.652252,210.216629,417.404785C209.607544,416.266693,208.409622,414.754913,207.554596,414.045319C206.69957,413.335693,206,412.276031,206,411.69046C206,411.104919,207.237503,411.769043,208.75,413.166321C212.278992,416.426453,215,417.428802,215,415.468628C215,414.114349,213.645432,412.552734,209.571671,409.210571C207.580795,407.57724,207.56427,406.238739,209.529831,405.823334C210.63797,405.589111,209.840073,404.174561,206.635239,400.691589C204.201813,398.046967,201.981003,394.680939,201.700104,393.211517L201.189377,390.539856L203.189392,393.285431C206.424576,397.726624,209.212143,398.792847,208.462708,395.302429C207.9375,392.856323,208.600922,393.29483,213.680496,398.751251C216.881226,402.189453,219.840973,405.001953,220.257721,405.001251C221.105194,404.999847,213.357285,393.338837,211.91774,392.449158C211.412979,392.137207,211,391.429626,211,390.87674C211,390.323883,214.375,392.629333,218.5,396C222.625,399.370667,226,401.819458,226,401.441803C226,401.064117,226.675003,401.315308,227.5,402C228.324997,402.684692,229,402.909698,229,402.5C229,402.090302,229.675003,402.315308,230.5,403C233.1194,405.17392,232.195175,402.294312,229.147095,398.78479C227.578003,396.978149,226.490509,394.9375,226.730438,394.25C226.970367,393.5625,226.566666,392.993103,225.833328,392.98468C224.824966,392.973114,224.861221,392.740967,225.982086,392.032227C227.067398,391.345978,228.236954,391.885498,230.350739,394.047546C231.938354,395.671387,233.946793,397,234.813934,397C235.681076,397,237.652679,398.209198,239.195282,399.687103C240.791122,401.216003,242,401.812683,242,401.071472C242,400.35498,239.69545,397.570801,236.878769,394.884369C230.925217,389.206146,231.793274,388.432495,238.432053,393.5C243.482712,397.355255,244.500305,397.746155,243.638367,395.5C242.594681,392.780182,242.931702,393,252.25,401.117065C257.229767,405.454865,258.111786,405.051208,255.345474,399.700348C253.792023,396.695496,253.794601,396.585999,255.387848,397.907623C256.780853,399.063141,257.301025,399.081635,258.292389,398.010925C259.251556,396.974945,259.207886,396.873383,258.080048,397.517334C257.002686,398.132507,256.826294,397.895081,257.348877,396.533203C257.864288,395.190094,256.667267,393.449829,252.593155,389.619171C247.031052,384.389404,243.010422,378.680542,243.003738,376.003204C243.001678,375.179962,244.593185,376.747253,246.540421,379.486053C250.307373,384.784363,254.154099,388.024994,252.083221,384.155518C250.442902,381.090546,254.875259,382.181458,257.557861,385.50296C259.718689,388.178375,261.305725,387.970367,260.233673,385.152222C259.88797,384.2435,261.043976,385.134399,262.802582,387.132019C264.561157,389.129608,266.031616,391.379608,266.070282,392.132019C266.108948,392.884399,266.526367,392.600006,266.997894,391.5C267.469421,390.399994,267.650879,387.924988,267.401154,386L266.947113,382.5L268.753113,386.743835C269.746429,389.077972,271.352814,391.777954,272.322876,392.743835C274.00766,394.421356,274.013977,394.353912,272.46402,391.237885C269.910919,386.105072,271.36795,385.038544,274.391022,389.827362C277.035522,394.01651,280.890472,394.484131,279.333557,390.42688C278.458954,388.147644,280.034332,388.773926,282.244965,391.58429C283.510345,393.192963,284.531097,393.758698,284.948792,393.082855C285.388885,392.370789,286.3591,392.685913,287.768097,393.998566C288.949646,395.099365,290.520203,396,291.258179,396C291.996185,396,293.140015,396.540009,293.799988,397.200012C294.733337,398.133331,295,398.065735,295,396.895782C295,394.587708,289.148621,385.817719,285.63559,382.860535C282.986389,380.630524,278.182465,374,279.215973,374C280.691071,374,296.979309,389.72229,302.454041,396.430664C304.628784,399.095428,306.583832,400.748535,306.798584,400.104218C307.013367,399.45993,306.584045,398.186493,305.844543,397.274414C305.059052,396.305603,304.988281,395.908875,305.674316,396.320282C306.344482,396.722168,306.988464,396.357605,307.174316,395.47113C307.402557,394.382629,309.251465,395.650726,313.353027,399.708893L319.206055,405.5L317.594025,401.606323C316.707397,399.464813,314.861053,396.673798,313.490997,395.404083C312.120941,394.134369,311.014313,392.736511,311.031799,392.29776C311.049286,391.858978,311.661407,392.287506,312.392059,393.25C313.122681,394.212494,314.195831,395,314.776825,395C315.357819,395,316.75647,396.237488,317.884918,397.75C319.013367,399.262512,319.950897,399.915161,319.968323,399.200348C320.018738,397.131744,317.414948,392.710114,314.595001,390.075684C313.167755,388.74231,312,387.276093,312,386.817413C312,385.400665,322.548676,394.30719,325.002258,397.795563C326.437042,399.835449,327.873169,400.878906,328.771454,400.53421C329.777374,400.148193,330.038605,400.457001,329.622803,401.540588C329.289063,402.410309,329.44696,402.841797,329.97876,402.513123C330.504456,402.188232,331.507538,402.839844,332.207855,403.961212C334.190338,407.135681,336.186768,406.621429,334.910645,403.265015L333.870819,400.529999L336.435394,402.939331C339.919922,406.21286,339.96991,403.306122,336.5,399.182373C333.99762,396.208466,333.118713,392,335,392C335.549988,392,336,392.363983,336,392.808868C336,393.253754,336.696777,394.491241,337.548401,395.558868C338.946289,397.311279,338.946289,397.188873,337.548401,394.299652C336.696777,392.539459,336.010376,390.064484,336.023041,388.799652C336.037323,387.376495,337.680267,389.843597,340.333679,395.272705C344.360229,403.511414,346,405.120575,346,400.833344C346,399.816132,346.715363,399,347.606995,399C348.734436,399,349.007446,398.477783,348.521912,397.25C346.916534,393.190552,346.719971,388.790436,348.102905,387.870636C349.201843,387.13974,348.539673,386.058716,345,382.805023C342.524994,380.529968,341.351135,378.978455,342.391449,379.357178C347.36319,381.167206,329.02124,363.266907,321,358.480835C311.766205,352.971252,280.682678,322.04657,283.389648,321.062683C285.128632,320.430603,279.274567,314,276.960205,314C276.638947,314,275.427094,312.7164,274.267181,311.147522L272.158264,308.295044L274.829132,308.211365C283.867035,307.928253,290.736053,304.999481,287.022919,303.012268C282.881195,300.795685,282.955414,291,287.113953,291C288.788269,291,287.995697,288.388123,285.125427,284.446991C282.287567,280.550354,282.981689,269.634583,285.950684,271.469513C286.429321,271.76532,286.19635,269.643188,285.433014,266.753662C284.593445,263.575684,284.280457,259.491028,284.640839,256.415131C284.968475,253.618423,284.71524,248.89946,284.078094,245.928513C283.391113,242.725189,283.29599,240.401337,283.844391,240.218536C287.671173,238.942947,279.503784,223.759964,269.337158,213.25C259.966125,203.562454,259.699219,202.773193,266.898895,206.039734C269.318298,207.137421,271.479492,207.853851,271.701569,207.631775C272.815063,206.51828,266.198151,202.985306,261.18924,202.018921C251.686966,200.185608,251,199.991623,251,199.141708C251,198.259995,253.599274,198.34404,261.5,199.481201C269.893616,200.689301,269.834686,200.79599,264.331665,194.354645C258.922852,188.02356,261.32486,187.20755,267.663605,193.222733C271.128357,196.51062,273.764069,196.296204,271.933319,192.875397C271.160095,191.430618,271.177582,190.490936,271.996094,189.5047C273.151764,188.112213,270.467987,177.929321,268.743774,177.164597C268.32785,176.980118,268.254089,176.397903,268.579865,175.870789C268.90564,175.343674,268.638763,174.269653,267.986786,173.48407C267.056885,172.363617,267.146088,171.711044,268.400696,170.456451C271.011078,167.846069,268.86615,159.488129,263.579742,151.671158C261.027283,147.896866,261.132202,143.457138,263.833344,140.940643C266.578278,138.383331,266.560913,138.198242,263.25,134.722717L260.5,131.835999L263.25,129.630432C266.738678,126.832436,267.109619,120.226089,264,116.272873C260.313995,111.586876,261.273193,108.747017,269.25,100.729324C275.753754,94.192238,280.322723,91.043243,295.334503,82.751556C299.920959,80.218246,311.62738,80.313202,314.435547,82.906487C316.463501,84.779259,316.60611,84.779518,322.5,82.921211C325.799988,81.880745,329.850006,81.012238,331.5,80.991188C333.149994,80.970146,337.844574,80.063522,341.932373,78.976463C351.533295,76.423325,365.222321,76.290085,369.5,78.708138C371.340973,79.748795,376.170227,80.695206,382,81.157829C419.941193,84.168663,420.046448,84.186211,417.440826,87.065399C416.433533,88.178429,415.469238,90.007591,415.297913,91.130203C414.784546,94.494019,401.379852,109.33638,391.610535,117.358063C389.026306,119.480003,385.244263,123.711128,383.205963,126.760559C380.589661,130.674774,378.041718,133.069458,374.540283,134.904968C366.969635,138.873657,365.648315,144.017197,366.350555,166.785156C366.643799,176.291992,366.468292,186.622726,365.960571,189.74234C364.434296,199.120056,368.558441,227.21817,372.635956,235.222397C376.13031,242.081818,384.376892,251.727554,386.290497,251.193573C388.204559,250.659485,390.716156,253.227829,393.499451,258.565521C395.14917,261.729218,397.271759,264.519806,398.216339,264.766815C399.160919,265.013824,400.200378,266.056,400.526245,267.082733C400.852142,268.109467,402.701324,270.42337,404.63562,272.224762C406.569885,274.026154,409.251923,277.354492,410.595703,279.621094C411.939514,281.887726,414.30899,284.812714,415.861267,286.121094C417.413513,287.429504,419.534424,289.850006,420.574402,291.5C421.614349,293.149994,423.260559,295.088013,424.232605,295.806702C425.204681,296.525391,426,297.590973,426,298.174683C426,299.532806,432.165833,306.571167,433.102234,306.281982C433.490509,306.162048,434.356445,306.724548,435.02652,307.531982C435.696625,308.339386,436.864777,309,437.622437,309C438.380096,309,439.014984,309.787506,439.033264,310.75C439.061188,312.218109,439.383362,312.11972,441.033264,310.139221L443,307.778442L443,310.448242C443,311.916626,443.384186,312.880585,443.85376,312.590363C444.323334,312.300171,445.213684,313.173615,445.832336,314.531372C447.166687,317.459961,451.460785,318.104736,450.618347,315.25C445.675629,298.501099,443.38446,271.265472,447.112,273.569214C447.600403,273.871063,448,273.397675,448,272.517212C448,271.636749,448.899994,269.950348,450,268.769623C451.274689,267.401398,452,265.240631,452,262.811432C452,258.773987,452.956146,258.037292,455,260.5C458.200073,264.355835,462.125031,260.155182,460.903381,254.181961C460.373077,251.589066,460.526703,250.988144,461.613312,251.405106C462.649841,251.802856,463,250.949997,463,248.027634C463,245.87735,463.450012,243.83992,464,243.5C464.549988,243.16008,465.014313,241.44603,465.031799,239.690979C465.06192,236.668732,465.141235,236.602646,466.531799,238.441132C467.339325,239.508759,468,241.196259,468,242.191132C468,243.186005,468.397522,244,468.883362,244C470.167877,244,470.970734,240.256058,470.986359,234.193466L471,228.886932L474.00415,230.66153C479.577942,233.954041,481.203461,230.784073,482.142365,214.791183C482.571503,207.481033,483.340027,199.475006,483.850189,197C485.471588,189.133911,488.062378,181.920517,489.047546,182.529388C489.571381,182.853134,490,182.641479,490,182.059021C490,180.169373,491.628784,180.937881,492.98172,183.465866C494.499451,186.301743,496,185.902847,496,182.663483C496,178.679245,498.691925,175.988388,502.013214,176.652649C505.90564,177.431137,507.278015,174.068634,506.405792,165.890213C505.766876,159.899323,506.559021,158.558777,509,161.5C511.5578,164.58197,514.672058,160.123611,515.635925,152C515.929626,149.524994,516.418945,146.824997,516.723389,146C517.027832,145.175003,517.18158,143.054367,517.065063,141.287476C516.88147,138.503723,517.230042,137.992355,519.676636,137.456192C533.816528,134.357376,540.168274,125.463455,536.02478,114.565102C535.024292,111.933731,537.060913,110.671471,538.513855,113.022377C541.262451,117.469704,553.031616,120.720383,558.345764,118.5C560.427673,117.630112,565.011536,117,569.257813,117C573.284912,117,579.171326,116.324997,582.338684,115.5C585.506104,114.675003,590.888123,114.004486,594.298767,114.009964C597.709473,114.01545,605.333618,113.253845,611.241394,112.317505C621.424683,110.703545,623.113464,110.708763,643.741394,112.417931C655.708618,113.409492,668.200012,114.356125,671.5,114.521553C687.057373,115.301437,695.793274,120.633507,691.161255,126.522102C685.950684,133.146271,685.132385,143.275269,689.458374,147.601227C691.503052,149.645905,691.409058,151,689.222534,151C686.32135,151,683.204956,153.790436,682.494751,157.024002C682.014099,159.212265,680.751282,160.596405,677.915527,162.043091C674.185486,163.946014,673.482483,165.201279,673.841736,169.317444C673.954346,170.607742,673.492676,170.986832,672.250183,170.624435C665.067871,168.529724,657.034363,167.80072,648.716125,168.488846C643.647278,168.908157,635.450012,169.354568,630.5,169.480881C616.748047,169.831787,612.577087,172.653015,597.946533,191.5C593.677002,197,587.690063,204.365295,584.642273,207.867325C576.506897,217.215134,569.106934,232.668503,566.480774,245.794144C565.09314,252.729706,570.50708,266.739197,577.506714,274.325531C579.448059,276.429565,582.04071,279.978088,583.268188,282.211121C584.495667,284.444153,586.055847,287.222687,586.735229,288.38559C587.414673,289.548523,587.977173,291.283691,587.985229,292.241516C587.993347,293.199371,588.900024,294.545105,590,295.232086C591.099976,295.919037,592,296.842499,592,297.28418C592,297.725891,593.125,299.300537,594.5,300.783417C595.875,302.266296,597,303.972839,597,304.575745C597,305.779266,604.680115,313,605.960205,313C606.398621,313,607.343933,314.462494,608.060852,316.25C608.77771,318.037506,610.632324,320.665131,612.182129,322.089203C613.731934,323.513245,615,325.200745,615,325.839203C615,326.477631,615.873413,327,616.940979,327C618.008545,327,619.168945,327.464355,619.519714,328.031891C619.870483,328.599426,622.103699,329.978607,624.482422,331.096741C626.861206,332.214905,629.59552,334.000549,630.558716,335.06488C631.521912,336.129181,632.72168,337,633.224792,337C633.727966,337,636.155518,338.386963,638.619324,340.082123C642.781189,342.945526,644.450134,344.372101,652.5,351.946747C654.150024,353.499359,656.958252,355.505859,658.740601,356.40564C660.522888,357.30542,662.703796,359.14444,663.586975,360.492371C664.935791,362.550934,678.280518,370.769348,684.25,373.217773C685.212524,373.612549,686,374.628937,686,375.47644C686,377.835388,690.900269,382.808929,694.386292,383.988068C696.307312,384.637878,698.840637,386.939941,701,389.998199C702.924988,392.724457,704.773804,394.965179,705.108521,394.977539C705.443176,394.989899,708.138855,397.25,711.098877,400C714.058899,402.75,716.797119,405,717.183838,405C717.570557,405,718.673096,406.330933,719.634033,407.957611C720.594971,409.58432,722.592529,411.416992,724.07312,412.030273C727.463257,413.43454,731.547546,417.749268,732.519592,420.953369C733.356384,423.711792,734.304077,424.760651,738.228699,427.272034C740.945801,429.010742,740.9599,429.00647,741.566162,426.259064C742.582947,421.650879,742.838684,421.359467,742.921082,424.714813C742.973755,426.859711,743.670471,428.288483,745.014709,429.007874C746.122803,429.600891,747.666382,431.529236,748.444946,433.29306C749.796448,436.354797,749.891602,436.398132,750.546875,434.25C751.386353,431.498169,752.658691,431.349182,753.470703,433.907623C754.56958,437.369995,756.81604,437.150787,758.153992,433.450623C758.840271,431.552795,759.777222,430,760.236084,430C760.694946,430,760.604553,430.870422,760.035156,431.934265C758.684021,434.458893,758.729431,435.054108,760.25,434.75C762.181335,434.363739,763.925415,430.842346,763.964539,427.25C763.98407,425.462494,764.450012,424,765,424C766.680115,424,766.185547,431.796783,764.443604,432.771637C762.513916,433.851532,760.091492,440.633972,760.744141,443.129669C761.439392,445.788177,762.817505,444.489807,763.572571,440.464935C764.32251,436.467438,766,435.800598,766,439.5C766,442.239716,767.439941,442.816772,768.700317,440.582153C769.716125,438.781158,778.188171,432.022614,779.446167,432.009705C779.966553,432.004364,778.903564,433.536011,777.083984,435.413391C772.549744,440.091522,773.586121,441.710541,778.325317,437.3526C780.645569,435.219025,781.930054,433.260132,781.589966,432.373901C781.084106,431.055573,785.541992,423,786.777466,423C787.05896,423,787.017395,426.037506,786.685181,429.75C786.135071,435.897369,786.214966,436.321869,787.580078,434.504883C788.847229,432.818237,789.219177,432.736603,789.985718,433.976837C790.741882,435.200378,791.013733,435.116547,791.623291,433.471985C792.025208,432.38739,792.639587,431.274994,792.988525,431C793.337463,430.725006,794.111816,428.924988,794.709412,427C795.778625,423.555389,795.799072,423.59494,796.002747,429.5L796.209717,435.5L797.604309,431.5C798.915222,427.739899,798.979797,427.691742,798.680359,430.697174C798.505188,432.455627,798.730469,433.666595,799.180969,433.388184C799.631409,433.109772,800.067444,430.996033,800.149841,428.690979C800.256714,425.702057,800.419128,425.288757,800.716248,427.25C801.201416,430.452515,801.792297,430.659393,803.572571,428.25C804.750793,426.655457,804.992737,426.799957,806.295654,429.876434C808.468079,435.005798,809.419373,429.563141,807.54126,422.75C806.432556,418.727966,809.223022,419.133057,812.707397,423.499969C816.267639,427.962036,817.397644,427.933075,816.547485,423.40155C816.047791,420.737915,816.182617,419.994843,817.066528,420.541107C817.960327,421.093506,818.14679,419.705872,817.807983,415.022339C817.4198,409.65564,817.543518,409.022827,818.677734,410.573914C819.404968,411.568512,820,413.034454,820,413.831604C820,414.628723,820.869202,417.130219,821.931641,419.390472C822.994019,421.650696,824.1745,424.850006,824.554932,426.5C824.935303,428.149994,825.453613,428.9375,825.706604,428.25C826.497681,426.100586,827.854126,426.880676,828.314819,429.75C828.557678,431.262512,828.559387,429.125,828.318665,425C828.023865,419.948883,828.21106,417.827026,828.892029,418.501556C829.44812,419.052399,830.160706,423.102417,830.475525,427.501556C831.917236,447.647919,832.545837,451.323242,834.12384,448.833832C834.756958,447.835114,834.973206,447.814056,834.98468,448.75C834.993103,449.4375,835.450012,450,836,450C836.549988,450,837,449.126556,837,448.059021C837,445.543915,838.614197,444.552246,839.395203,446.587524C839.727844,447.454346,840,450.151764,840,452.581787C840,456.879028,841.479492,458.52002,842.636169,455.505737C842.951538,454.683899,843.612427,454.260468,844.104797,454.564758C844.597168,454.869049,845,454.191467,845,453.059021C845,450.798523,846.537354,450.26651,847.337708,452.25C847.615112,452.9375,847.895264,451.924988,847.960205,450L848.078308,446.5L849.621704,450C851.590332,454.464417,850.903137,463.660797,847.473328,478.75C847.192017,479.987488,847.420471,481,847.980957,481C848.541443,481,849,480.386047,849,479.635681C849,478.885315,851.063354,474.118866,853.585266,469.043549C856.542725,463.091736,857.977539,459.046692,857.626892,457.649567C857.327881,456.45816,857.553528,454.812134,858.128357,453.991699C858.938721,452.835114,859.052856,453.061646,858.636475,455C858.124512,457.383545,858.167053,457.409576,859.549744,455.558868C860.347351,454.491241,861,453.253754,861,452.808868C861,452.363983,861.519958,452,862.155457,452C863.003479,452,863.161316,456.057648,862.748657,467.25L862.18634,482.5L864.55481,473.5C865.857422,468.549988,866.945496,462.024994,866.972656,459C867.034973,452.053833,868.03064,445.900879,868.995728,446.497345C869.402954,446.749054,869.514465,450.053894,869.243469,453.841461C868.920105,458.360779,869.137329,460.966827,869.875366,461.422974C870.591248,461.865387,871,461.228271,871,459.670135C871,457.152466,873.711304,456.400146,875.217102,458.5C876.509888,460.302887,879.87793,455.680481,881.280334,450.17865C882.448303,445.596375,882.817444,445.075073,883.937927,446.425201C884.960144,447.656921,884.999146,448.946411,884.119568,452.439362C882.766724,457.812134,882.648193,466.664551,883.91864,467.449707C884.423889,467.761963,885.134644,466.663513,885.498108,465.008728C886.304443,461.337463,888,461.032715,888,464.559021C888,465.966461,888.423645,466.856232,888.941406,466.536224C889.459167,466.216217,890.035278,467.877167,890.221619,470.227203C890.496094,473.687988,890.677246,474.024902,891.174927,472C891.512817,470.625,892.735168,465.674988,893.891174,461L895.992981,452.5L895.668091,458.202942C895.489441,461.339569,895.690918,463.69101,896.115845,463.428406C896.540771,463.165802,897.03949,465.099457,897.224182,467.725464L897.559937,472.5L900.816833,465.690643C902.608154,461.945496,904.345459,457.445496,904.677612,455.690643C905.009705,453.935791,905.759644,451.893616,906.344116,451.152466C906.928589,450.411316,907.550415,448.863647,907.726013,447.713196C908.194153,444.645508,909,444.278748,909,447.133331C909,448.48999,908.573547,450.027496,908.052307,450.549988C906.618835,451.986938,905.486145,465,906.794495,465C907.383423,465,908.150879,464.100006,908.5,463C909.63446,459.42572,910.751526,460.890228,910.004944,464.972992C909.605347,467.158112,909.665771,468.706543,910.139221,468.413971C910.612671,468.121368,911,468.385071,911,469C911,471.725006,912.862183,468.559143,914.366272,463.27713C916.778442,454.805817,918.194275,453.270386,917.388,460C917.025574,463.024994,917.014465,465.238098,917.36322,464.917969C919.19928,463.232849,925.158325,449.141815,927.115784,441.856689C928.350708,437.260498,929.954895,432.612366,930.680542,431.527496C932.236389,429.201599,932.251953,429.514008,931.00354,438C929.548462,447.89032,929.566956,464.114319,931.034302,465.021179C931.70636,465.436554,931.931213,466.302277,931.533997,466.945038C931.136719,467.587769,931.118591,469.325592,931.493713,470.806824L932.175659,473.5L934.044861,470C935.072937,468.075012,936.644592,464.362488,937.537415,461.75C938.430237,459.137512,939.522278,457,939.964233,457C941.140137,457,945.261841,446.363831,946.018799,441.37616C946.376892,439.016571,946.325623,437.298737,945.904907,437.558777C944.637329,438.342194,936.996338,422.019562,937.045898,418.634216C937.086914,415.833038,937.410339,416.188751,940.089539,421.981995C944.6922,431.934296,948.23053,435.074615,949.968811,430.75L950.87323,428.5L950.936584,430.966553C951.035889,434.829926,954.121094,442,955.684143,442C956.460938,442,957.73822,443.462494,958.522522,445.25C959.860657,448.299805,959.987549,448.363434,960.582214,446.283112C960.930786,445.063843,962.100037,443.785645,963.180603,443.442688C964.894531,442.898712,965.047363,442.2883,964.378418,438.659576C963.677368,434.85672,963.466248,424.637482,964.01355,421C964.236389,419.51886,965.424683,425.62207,968.457642,443.826508C970.936707,458.706116,972.976807,460.505371,974.42511,449.089478C974.802612,446.113678,975.761414,442.751038,976.555725,441.616974C978.4646,438.891632,978.448303,440.858582,976.5,448.338684C975.674988,451.506073,975.046875,456.888123,975.104126,460.298798L975.208252,466.5L976.609619,461.5C977.380371,458.75,978.507935,455.149994,979.115295,453.5C979.722595,451.850006,980.672485,448.700012,981.226135,446.5C984.660889,432.850983,985.530334,436.968048,983.443604,457C982.693359,464.202087,984.426453,461.7146,985.88208,453.5C988.947144,436.202972,989.324951,430.529053,987.629822,427.251038C985.033936,422.231171,985.72644,421.41153,989.382751,425.1763C992.067017,427.940216,992.90387,429.778534,993.435669,434.079681C994.599548,443.493195,995.121338,445.417908,996.093384,443.883148C996.690063,442.94101,996.974243,443.642548,996.98468,446.083344C997.006775,451.253815,995.934509,451.56955,993.886658,446.995575C990.994751,440.536316,990.671021,443.281342,993.502869,450.25C995.537659,455.257385,1002,448.698242,1002,441.625549C1002,437.419312,996.690735,425.832916,994.356689,424.945526C992.260925,424.148682,989.921326,417.745331,991.243103,416.423584C991.968628,415.698059,999.595337,427.950775,1001.094299,432.25C1002.375916,435.925842,1003.925049,437.224487,1004.076538,434.75C1004.118591,434.0625,1004.336609,432.600006,1004.561035,431.5C1005.348145,427.641602,1005.3255,423.4823,1004.507263,421.613556C1003.891296,420.206757,1004.039612,419.845367,1005.090637,420.1922C1006.069824,420.51532,1006.652649,422.922607,1007,428.078644L1007.5,435.5L1008.807434,428.5C1009.526489,424.649994,1010.378601,420.375,1010.700989,419L1011.287109,416.5L1012.00592,419C1012.842957,421.911224,1013.183289,421.215515,1015.038635,412.800323C1015.729797,409.665527,1016.90387,406.867126,1017.647644,406.581726C1019.332092,405.935333,1019.373535,405.531769,1017.018616,412.705261C1012.752075,425.701752,1011.475769,434.060089,1013.995483,432.502808C1014.466919,432.211426,1015.163452,434.460022,1015.543213,437.499725C1015.923035,440.539398,1016.631165,443.272034,1017.116882,443.572235C1017.6026,443.872437,1018,445.243042,1018,446.618042C1018,448.03006,1018.435181,448.84906,1019,448.5C1020.495972,447.575439,1020.205444,433.913239,1018.51532,425.707855C1017.513062,420.84201,1017.322693,417.525238,1017.929382,415.5C1018.80896,412.563934,1018.829956,412.587921,1018.914063,416.624268C1018.961304,418.892609,1019.730225,422.717621,1020.622742,425.124268C1021.77771,428.238647,1022.210815,432.526764,1022.125122,440C1022.038879,447.5242,1022.293335,450.01886,1023.022827,448.802277C1026.280029,443.370392,1028.831177,418.473328,1027.140747,408.615143C1026.489502,404.817322,1026.154907,401.511719,1026.397339,401.269379C1027.560669,400.105957,1029.427002,406.507019,1031.533936,418.887177C1033.142822,428.341217,1033.846191,430.972473,1033.836426,427.5C1033.788818,410.685791,1034.646118,408.491119,1036.100098,421.704468C1036.571899,425.992004,1037.157959,430.399994,1037.402466,431.5C1037.646973,432.600006,1037.881348,435.037506,1037.923462,436.916656C1038.111816,445.325165,1039.210693,438.007813,1039.21582,428.311584C1039.218994,422.365204,1039.434204,418.0625,1039.694092,418.75C1040.872681,421.867493,1042.820313,419.185455,1043.687988,413.25C1044.125122,410.260498,1043.5,409.483917,1041.273315,410.25C1040.873657,410.387512,1040.410767,411.390381,1040.244751,412.478607C1040.078613,413.566864,1039.44751,414.91684,1038.842285,415.478607C1038.051758,416.212341,1037.924316,415.725525,1038.389893,413.75C1038.74646,412.237488,1038.631958,411,1038.13562,411C1037.639282,411,1037.018066,409.875,1036.755249,408.5C1036.194458,405.56662,1036.341919,405.484802,1038.428589,407.571442C1039.857178,409,1040,408.825623,1040,405.653229C1040,401.034515,1040.858154,399.008331,1042.540894,399.654053C1043.440796,399.99942,1044.133789,399.19986,1044.545654,397.340912C1044.891724,395.778412,1045.273315,394.086823,1045.393555,393.581818C1045.513794,393.076843,1046.424316,395.664337,1047.417114,399.331818C1048.582153,403.635956,1049.73291,406,1050.663086,406C1051.455566,406,1052.562134,407.313934,1053.121948,408.91983C1053.681763,410.525726,1054.783325,412.086609,1055.569824,412.388428C1056.480225,412.737762,1057,414.391022,1057,416.937225C1057,420.004456,1057.335205,420.808624,1058.437378,420.385651C1060.042236,419.769836,1064,426.540039,1064,429.901154C1064,435.78186,1066.947388,432.211029,1067.081177,426.168213L1067.162476,422.5L1068.536133,425.5C1069.291626,427.149994,1069.943726,430.299988,1069.985352,432.5C1070.078369,437.426575,1071.397095,435.652405,1073.017822,428.420319C1074.319092,422.613861,1070.14978,398.857452,1066.86853,393.381958C1063.875122,388.386871,1064.716187,387.153687,1067.774048,392.05423C1070.284668,396.077637,1072.739258,402.801544,1074.422852,410.267517C1075.290771,414.116608,1077.734497,411.782837,1077.243042,407.574127C1076.334229,399.790558,1079.676758,408.41864,1080.889404,416.986328C1081.602539,422.024902,1082.358887,425.974396,1082.570313,425.76297C1083.095825,425.237518,1083.835327,421.029022,1083.925659,418.049988C1084.102661,412.214539,1086.115601,418.259064,1086.685791,426.338074C1087.351318,435.769104,1089.396973,439.996918,1089.641846,432.447479C1089.723633,429.928284,1090.465698,427.391449,1091.391846,426.465271C1092.276367,425.580811,1093.056274,423.989288,1093.125,422.928558C1093.193726,421.867859,1093.362549,420.549988,1093.5,420C1093.637451,419.450012,1093.851074,417.762512,1093.974731,416.25C1094.197998,413.516815,1094.203491,413.514832,1094.877319,415.925873C1096.376465,421.290588,1098.256592,419.52182,1097.592896,413.371063C1095.987183,398.488373,1095.863892,395.490479,1096.920044,397C1097.497192,397.825012,1097.976318,399.737488,1097.984741,401.25C1097.993164,402.762512,1098.449951,404,1099,404C1100.785156,404,1100.012573,397.645569,1097.480103,391.5C1093.746948,382.440247,1093.04895,376.770844,1096.494019,383.491058C1100.49707,391.299561,1101.256836,395.44516,1101.569092,411.185486C1101.840088,424.839935,1102.912598,430.790039,1104.883423,429.572021C1105.314087,429.305847,1105.533569,427.605743,1105.371094,425.794037C1105.204712,423.939392,1105.665527,424.90332,1106.425537,428C1107.321045,431.648315,1107.813354,432.594025,1107.887817,430.809021C1108.034302,427.296875,1110,426.056458,1110,429.476166C1110,433.375092,1113.349365,431.144775,1114.756226,426.30899C1117.426147,417.132141,1117.385864,413.334137,1114.567627,408.525177C1113.109009,406.036316,1112.140747,404,1112.415649,404C1115.707642,404,1118.866821,416.49057,1117.117554,422.589935C1115.422119,428.50174,1119.032959,426.062744,1122.30896,419.083344C1124.256836,414.933716,1125.537354,413.146942,1125.772949,414.25C1126.430176,417.327576,1127.792847,416.139771,1129.499512,411.001648C1130.545288,407.852936,1130.905518,404.846252,1130.4729,402.876556C1130.040527,400.908112,1130.151978,399.975891,1130.773682,400.360107C1133.480835,402.033264,1132.172607,413.059998,1128.674316,418.054535C1127.275024,420.052338,1127.279175,420.496429,1128.717529,422.69165C1129.922974,424.531342,1130.509399,424.802124,1131.138794,423.809662C1131.718994,422.894806,1131.973999,423.196075,1131.984741,424.809021C1131.993164,426.078979,1131.612793,426.878754,1131.139648,426.586273C1130.154297,425.977356,1129,435.483154,1129,444.205719C1129,450.44165,1130.390259,451.300415,1131.481567,445.738525C1132.454712,440.77887,1139.191406,422.6875,1140.680176,421.035706C1142.262085,419.280609,1142.343628,420.32486,1140.98999,425.006592C1140.434448,426.927979,1139.549072,432.100006,1139.022461,436.5C1138.49585,440.899994,1137.833496,445.60434,1137.550659,446.954102L1137.036255,449.408234L1139.136719,447.30777C1140.291992,446.152496,1142.108398,442.798157,1143.173218,439.853638L1145.109253,434.5L1144.535278,440.339752C1143.814087,447.679108,1145.806152,447.727325,1147.863403,440.420319C1149.732178,433.78299,1152,430.382965,1152,434.218475C1152,438.153717,1153.727417,438.519592,1154.550415,434.758728C1156.863892,424.188049,1164.820801,413.577545,1171.741089,411.834991C1176.755859,410.572235,1176.666382,411.103058,1173.5,401.403259C1170.596558,392.508972,1170.452881,391.301025,1172.5,393C1175.831787,395.765167,1171.691528,384.588715,1166.881958,377.834167C1165.395874,375.747253,1165.070801,374.529205,1165.804077,373.79599C1166.444824,373.155212,1166.5271,371.886322,1166.015137,370.539917C1165.553833,369.326569,1164.912842,366.571198,1164.590698,364.416901C1164.268555,362.262604,1188.076416,379.261932,1185.248291,373.785095C1182.420166,368.308289,1177.797729,357.440338,1177.686035,355.767151C1177.574463,354.093994,1176.947754,350.823395,1176.293579,348.499146C1175.639404,346.174896,1174.92395,342.46286,1174.703857,340.250183C1174.483765,338.037476,1174.049194,335.214142,1173.738159,333.976074C1173.427124,332.738007,1173.965088,333.444092,1174.933716,335.545166C1175.902222,337.64624,1176.997192,339.062744,1177.366943,338.692963C1177.736694,338.323212,1178.363037,339.746643,1178.758789,341.856201C1179.34082,344.958801,1179.615601,345.312714,1180.196777,343.708374C1180.591919,342.617523,1180.707275,340.825043,1180.453125,339.725037C1180.198975,338.625031,1179.759155,336.742432,1179.475708,335.541504C1178.673706,332.142883,1182.867065,333.744965,1184.869507,337.602142C1185.761108,339.319733,1186.662476,340.216888,1186.872437,339.595795C1187.08252,338.974731,1185.420532,335.045807,1183.179199,330.864868C1180.552246,325.964691,1179.648438,323.472107,1180.636108,323.851074C1181.47876,324.174438,1182.168213,324.840881,1182.168213,325.332031C1182.168213,325.823181,1182.618164,326.225037,1183.168213,326.225037C1184.87793,326.225037,1184.274414,324.139923,1181.668213,321.042664C1179.25415,318.173706,1178.485718,315.240875,1179.802979,313.923645C1190.710327,313.898834,1181.769043,315.29895,1183.39624,317.755676C1187.647095,324.173218,1188.357178,324.22464,1187.633667,318.0625C1187.28894,315.126892,1186.832275,312.162537,1186.618896,311.475037C1186.038818,309.605804,1187.903442,309.967896,1189.19397,311.975037C1190.244873,313.609375,1190.281128,313.603973,1189.743774,311.89325C1189.427246,310.885773,1189.168213,309.87326,1189.168213,309.64325C1189.168213,309.413239,1188.579346,309.225037,1187.859741,309.225037C1186.909668,309.225037,1186.55481,307.376007,1186.564453,302.475037C1186.571655,298.762543,1186.206787,293.475037,1185.753418,290.725037C1184.974243,285.997772,1185.018799,285.834137,1186.571289,287.725037C1188.143433,289.639832,1188.186523,289.565613,1187.580933,285.982574C1186.64917,280.469452,1188.005249,277.7211,1189.510376,282.072052C1190.611084,285.253906,1198.133057,280.943237,1192.514038,283.383484C1192.413696,282.509735,1193.058472,282.224579,1194.363037,282.565704C1195.977783,282.987976,1196.249878,282.714935,1195.76709,281.157288C1193.7854,274.76358,1193.782837,274.967957,1195.834595,275.619141C1197.202026,276.053162,1198.478516,275.4534,1200.061157,273.633148L1202.328613,271.02536L1200.248413,266.189819C1196.842041,258.271576,1198.406494,253.851547,1202.072266,261.036957C1203.161621,263.172363,1205.108398,265.611023,1206.398193,266.456177L1208.743408,267.992798L1208.546265,261.358917C1208.437866,257.710266,1208.022339,252.58754,1207.622803,249.975037C1206.813477,244.682892,1208.006348,243.685638,1210.213379,247.809433C1211.690552,250.569611,1216.936035,254.790558,1217.806763,253.919769C1218.094727,253.631882,1217.856934,252.511887,1217.278442,251.430908C1213.884277,245.088943,1210.105103,229.268875,1213.168213,234.225037C1214.608154,236.55481,1215.598999,234.465897,1214.352051,231.729263C1213.008179,228.779617,1213.538208,228.560165,1216.143677,230.987518C1220.934082,235.450546,1229.12146,231.945389,1224.804321,227.279755C1222.110352,224.368469,1220.168213,219.255859,1220.168213,215.075821C1220.168213,211.866531,1221.722412,211.245209,1222.626343,214.093155C1222.952515,215.120621,1224.153442,216.806717,1225.295288,217.840042L1227.371338,219.718826L1225.552612,215.721939C1224.552368,213.523636,1222.994019,210.600037,1222.0896,209.225037C1221.185181,207.850037,1220.131592,205.005585,1219.748169,202.904022C1219.364624,200.80246,1218.809937,198.327469,1218.515259,197.404022C1218.056885,195.967361,1218.135254,195.941528,1219.058594,197.225037C1219.878418,198.36467,1220.144897,197.283569,1220.168213,192.725037C1220.19812,186.860046,1221.373535,183.097,1222.746582,184.470093C1223.124512,184.848007,1224.325317,184.023773,1225.414917,182.638458C1227.911987,179.463943,1228.270996,179.835175,1227.218262,184.503113C1226.756592,186.550171,1226.726318,188.225037,1227.151123,188.225037C1228.577881,188.225037,1229.902222,185.753922,1230.627686,181.737671C1231.310425,177.95784,1231.42334,177.853745,1232.79834,179.737671C1240.30127,190.018478,1243.799927,188.381439,1238.168213,177.225037C1234.299438,169.560944,1234.07019,161.238922,1237.813477,164.345581C1238.544556,164.952347,1239.768677,165.208603,1240.533569,164.915054C1241.298584,164.621506,1242.429321,164.886154,1243.046387,165.503189C1243.875488,166.332321,1244.168213,166.258972,1244.168213,165.222092C1244.168213,164.422501,1221.630859,147.186615,1223.792114,149.297058C1227.620483,153.035309,1229.646973,154.04863,1228.697754,151.75C1228.41394,151.0625,1227.418701,148.699997,1226.486206,146.5L1224.790771,142.5L1227.209839,144.75C1228.540283,145.987503,1229.885864,147,1230.199829,147C1231.423584,147,1230.235596,136.276154,1228.569702,132.284424C1225.991089,126.105606,1227.164429,124.925224,1230.731567,130.109787C1236.133179,137.960861,1239.432007,139.362885,1236.609619,132.608078C1235.054443,128.886139,1235.783691,127.829498,1238.035156,130.542389C1240.084106,133.011246,1241.227173,130.697678,1240.466064,125.622093C1239.790894,121.120171,1232.233398,114.329224,1224.667358,111.425827C1221.290649,110.130089,1224.10791,109.302155,1228.485229,110.303825C1233.171875,111.376274,1239,107.468201,1239,103.253166C1239,100.749695,1244.257568,94.909195,1248.418945,92.789864C1250.663452,91.646729,1253.935913,89.618225,1255.690918,88.282089C1257.445923,86.945953,1261.270874,84.948547,1264.190918,83.843399C1267.110962,82.738258,1271.015625,80.682976,1272.868042,79.2761C1274.720459,77.869225,1278.54541,75.84407,1281.368042,74.775749C1284.190674,73.707428,1287.191406,72.213036,1288.036499,71.454872C1294.344727,65.795525,1343.939697,62.594292,1356.264282,67.050926C1359.244873,68.128716,1360.671265,68.159027,1363.321045,67.20089C1367.94751,65.527901,1370.139404,65.68441,1376.213013,68.121399C1381.859253,70.386925,1399.849243,70.909531,1420.176147,69.398529C1429.169067,68.730034,1438.815552,69.923317,1446.75,72.685745C1452.960693,74.848038,1452.640259,77.865799,1445.5,84.458191C1439.446411,90.047287,1438.891968,91.049446,1442.25,90.332161C1444.64917,89.819687,1444.15686,90.404068,1439.33667,93.790192C1437.725708,94.921799,1437.930176,95.014931,1441,94.547928L1444.5,94.015472L1442,95.985504C1440.625,97.069016,1439.161133,97.965538,1438.74707,97.977768C1438.332886,97.98999,1435.85791,99.374977,1433.24707,101.055511L1428.5,104.111023L1433,103.706673C1436.211426,103.418114,1438.072754,103.783104,1439.5,104.98127C1441.753052,106.872635,1448.475586,109,1452.199341,109C1455.332397,109,1456.242676,109.900238,1454.684814,111.458061C1453.040161,113.102699,1439.882935,116,1434.058838,116C1427.356567,116,1419.84082,118.499588,1416.840332,121.726494C1413.664185,125.142387,1409.482544,137.062134,1411.10791,138.066681C1411.764038,138.472198,1411.920166,139.67627,1411.491577,141.026428C1410.93396,142.783417,1411.101318,143.17511,1412.225342,142.74379C1415.07251,141.651184,1416.618164,143.761246,1413.883301,145.007339C1412.417603,145.67511,1410.981079,147.474564,1410.435425,149.326035C1409.756348,151.630188,1408.814941,152.591721,1407,152.834671C1402.697144,153.41069,1402.679443,154.691833,1406.940918,157.086929C1410.883545,159.302826,1410.966309,159.447647,1408.917603,160.544083L1406.779419,161.688446L1409.495728,164.404831C1413.246338,168.155441,1410.456299,169.376694,1402.274414,167.56575C1398.000732,166.619843,1396.670532,167.503571,1398.142822,170.310684C1399.260986,172.442795,1399.238525,172.453445,1397.281982,170.718536C1396.177002,169.738739,1393.629517,168.807648,1391.620728,168.64946C1389.124146,168.452835,1386.930054,167.355331,1384.686646,165.180908C1380.534668,161.156662,1379.296753,161.195343,1372.46936,165.562729C1366.178101,169.587204,1365.903687,170.085052,1363.13208,182.5C1359.680908,197.959427,1358.464478,216.942368,1358.90271,248.5C1359.949219,323.846466,1358.881104,350.975128,1354.394531,363C1353.892822,364.34491,1351.897339,390.539673,1351.918823,395.5C1351.923584,396.600006,1351.513794,399.075012,1351.008179,401C1349.857178,405.381653,1349.686401,411.507538,1350.465698,420.452423C1351.161133,428.434021,1351.38855,428.862946,1354.045532,427.203674C1355.860962,426.069885,1356,426.264008,1356,429.932495C1356,435.193176,1356.944092,435.511902,1362.125854,432.000488C1368.10498,427.948792,1369.916504,428.192108,1366.103638,432.53479C1364.396606,434.478943,1363,436.751282,1363,437.584442C1363,438.417633,1362.29187,440.468781,1361.42627,442.142578C1359.400513,446.060059,1359.938965,446.470154,1364.568726,444.535706C1367.297852,443.395447,1368.548218,443.269043,1369.051025,444.082611C1369.542969,444.878601,1370.531006,444.698181,1372.405396,443.470032C1376.057739,441.076904,1376.396851,441.951691,1373.480591,446.243408C1370.96106,449.951263,1371.048462,453,1373.674316,453C1374.679688,453,1374.937012,453.62323,1374.5,455C1374.049561,456.419312,1374.320313,457,1375.432617,457C1376.294678,457,1377,457.498138,1377,458.106995C1377,458.71582,1377.675049,458.940826,1378.5,458.606995C1383.138672,456.729889,1383.531372,456.671875,1382.25,458.052826C1380.559204,459.875092,1380.677124,461,1382.55896,461C1383.484009,461,1383.827515,461.470123,1383.403564,462.156097C1382.673218,463.337799,1386.401733,462.95163,1390.307373,461.44101C1391.801147,460.863281,1391.671021,461.395966,1389.557373,464.510529C1386.116943,469.580292,1386.301514,470.135315,1391.168945,469.356995L1395.338013,468.690338L1392.668945,472.189575C1389.511841,476.328766,1389.32666,477.409332,1391.889282,476.739197C1395.848999,475.703735,1396.646484,477.715759,1393.555298,480.94223C1390.109619,484.538788,1390.453003,485.304047,1394.935791,484.018402C1399.090698,482.826782,1406.506714,483.668091,1410.75,485.812408C1414.079712,487.495087,1414.690552,489.503296,1414.194336,497.137115C1413.964478,500.674011,1416.190552,502.503571,1418.936035,501.03421C1421.522217,499.650116,1421.533447,500.400757,1418.988159,504.519226C1416.434692,508.650696,1417.219604,512.016235,1420.123535,509.388184C1421.921875,507.760773,1422,507.823914,1422,510.904022C1422,513.184937,1422.362915,513.913147,1423.25,513.412292C1424.219604,512.864929,1424.234009,512.994324,1423.314331,513.989014C1420.939087,516.557983,1424.445557,518.423035,1428.163574,516.568298C1432.040527,514.634216,1432.210083,514.780701,1430.995728,519.015137C1429.588867,523.920227,1433.120239,525.705322,1437.777466,522.443298C1440.370972,520.626709,1440.653931,521.621338,1438.442017,524.779236C1436.296997,527.841736,1437.143433,528.663208,1443.025879,529.228455C1450.470215,529.943787,1454.018188,533.583557,1453.628052,540.105042C1453.304321,545.517456,1453.380859,545.583679,1461.159668,546.61554C1466.28186,547.295044,1466.317993,547.324097,1464.185425,549.050964C1462.432739,550.470215,1459.422363,555.858521,1460.27478,556.050842C1460.398682,556.078735,1462.525024,556.352844,1465,556.659912C1470.369141,557.325989,1470.646606,557.51593,1469.054199,559.434631C1467.411377,561.414124,1470.98938,562.352478,1477.464966,561.640381C1481.592773,561.186462,1482.081543,561.329468,1481.469849,562.811707C1479.891357,566.636597,1479.900635,567.918762,1481.525024,570.397949C1482.462769,571.829041,1483.853271,573,1484.61499,573C1486.407837,573,1486.400513,575.422729,1484.603271,576.914307C1481.724731,579.303284,1483.896973,582.272095,1488.03894,581.609741C1492.442993,580.905518,1494.279297,583.184143,1490.972046,585.249512C1489.887451,585.92688,1489,586.87793,1489,587.362976C1489,587.848022,1489.5625,587.801147,1490.25,587.258728C1490.9375,586.71637,1492.175049,586.246033,1493,586.213501C1497.184692,586.048584,1502.498047,584.832336,1503.828369,583.734924C1505.396851,582.440918,1505.340576,582.685364,1502.979614,587.420593C1501.855591,589.675171,1501.805908,590.435303,1502.761719,590.753906C1503.442749,590.980957,1504,592.061523,1504,593.155273C1504,594.981812,1504.447266,595.088013,1509.487793,594.458252C1516.144775,593.626526,1517.579956,595.371643,1514.104736,600.072205C1511.441528,603.674377,1513.157593,603.886658,1517.231201,600.458923C1520.145386,598.006775,1522.594116,597.805847,1520.18335,600.216675C1518.32666,602.073303,1518.781616,603,1521.549683,603C1524.717163,603,1523.804443,605.171631,1519.422974,608.059937C1517.815308,609.11969,1517.145996,609.989807,1517.935547,609.993408C1518.725098,609.997009,1520.36853,609.062927,1521.587646,607.917603C1522.937012,606.649963,1524.7229,605.98822,1526.1521,606.226257C1528.492554,606.615967,1528.491211,606.621582,1525.75,607.969116C1522.879517,609.380249,1522.102539,610.811096,1524.25,610.731384C1527.47583,610.611572,1528.979004,611.100281,1528.75,612.194397C1528.612549,612.851318,1529.849976,613.680664,1531.5,614.037292C1534.135864,614.607117,1534.257202,614.774414,1532.5,615.415894C1527.309448,617.310669,1523.606079,619.311096,1524.615356,619.674927C1525.228882,619.895996,1528.041382,619.166199,1530.865356,618.05304C1533.689453,616.939941,1536,616.144287,1536,616.284973C1536,616.425659,1533.077637,619.68158,1529.505859,623.520386C1523.440308,630.039368,1521.702271,633,1523.94104,633C1524.458496,633,1525.158569,632.552429,1525.496704,632.005371C1526.456665,630.452148,1530,628.786194,1530,629.888062C1530,630.415222,1528.834961,632.231079,1527.411133,633.923279C1524.360107,637.549133,1525.769653,637.943298,1531.26123,635C1537.374634,631.723389,1538.652466,634.159485,1533.405762,639.088501C1532.082642,640.331543,1531,641.720215,1531,642.174316C1531,643.712891,1533.68042,643.01062,1535.505493,640.993896C1536.504028,639.890503,1537.555542,639.222229,1537.842163,639.50885C1538.128784,639.795471,1536.819092,641.65094,1534.931641,643.632141L1531.5,647.234314L1534.502319,645.719543C1536.153687,644.886414,1538.360962,643.258667,1539.407349,642.102356C1540.453735,640.946045,1541.768677,640,1542.329346,640C1542.889893,640,1542.310547,641.105042,1541.041626,642.455627C1539.772827,643.806274,1538.611816,646.030518,1538.46167,647.398499C1538.311523,648.766479,1537.964111,650.248962,1537.689575,650.692871C1536.975098,651.848572,1542.64917,651.522156,1544.20166,650.318298C1547.567871,647.707764,1547.875122,648.125488,1545.928711,652.666199C1544.804932,655.288025,1543.387695,658.032837,1542.779419,658.765747C1541.896973,659.829102,1542.180054,660.00647,1544.180664,659.643677C1548.14624,658.924622,1549.64209,660.43689,1546.879395,662.371948C1545.600952,663.267395,1545.15332,664,1545.884521,664C1546.634644,664,1546.97168,664.631409,1546.657959,665.449097C1546.28479,666.421326,1546.582397,666.713745,1547.562256,666.337708C1548.594116,665.941772,1548.839966,666.25354,1548.400024,667.400024C1547.940796,668.596619,1548.200439,668.860352,1549.388672,668.404358C1551.619873,667.548157,1551.420044,669.60144,1548.931885,673.095642C1546.385742,676.671326,1546.927368,676.712891,1552.617065,673.378479C1557.78833,670.347961,1558.868164,670.626587,1556.014038,674.255066C1553.083008,677.981201,1553.196777,681.015259,1556.169556,678.404968C1558.305908,676.529236,1558.328247,676.529846,1557.626221,678.444763C1556.294189,682.07843,1555.806641,689.237488,1556.938965,688.53772C1557.522583,688.177063,1558,687.045349,1558,686.022766C1558,683.245972,1559.089844,680.9375,1560.104736,681.564758C1560.597168,681.86908,1561,682.991455,1561,684.059021C1561,685.126587,1561.401855,686,1561.893066,686C1563.703247,686,1564.007813,689.333862,1562.363525,691.150757C1561.437012,692.174561,1560.937622,693.270935,1561.253784,693.587158C1562.204224,694.537598,1566,692.040466,1566,690.464844C1566,689.65918,1566.449951,689,1567,689C1568.010986,689,1568.297363,691.023071,1568.380371,698.75C1568.410156,701.52478,1568.872803,703,1569.713013,703C1570.420898,703,1571,703.407898,1571,703.906372C1571,704.404907,1571.900024,704.577393,1573,704.289734C1575.755371,703.569214,1575.50354,704.65271,1572.25,707.516357C1570.156128,709.359253,1569.897705,709.944336,1571.166626,709.968384C1572.083374,709.985779,1573.022705,710.5625,1573.254028,711.25C1573.575195,712.204285,1574.127319,712.145142,1575.587402,711C1577.319458,709.641602,1577.38147,709.651855,1576.244629,711.108948C1574.88269,712.85437,1571.842163,722.175537,1572.439819,722.773071C1572.641357,722.974609,1574.64978,722.198975,1576.903076,721.049438C1582.191284,718.351624,1582.085449,718.690491,1575.5,725.544373C1569.859131,731.415161,1568.512451,733.866455,1571.934204,732.035156C1575.295532,730.236267,1575.468384,730.901611,1572.456665,734.045288L1569.539063,737.090515L1573.237427,735.545288C1578.274048,733.440796,1578.459595,733.545715,1575.945557,737.076477C1573.68103,740.256714,1571.507202,747.422607,1573.106934,746.43396C1573.598145,746.130371,1574,746.296143,1574,746.802307C1574,747.308472,1575.13147,747.506348,1576.514404,747.242004C1579.128296,746.74231,1579.165283,749.323547,1576.572998,751.33075C1575.982788,751.78772,1577.525024,751.905579,1580,751.592651C1584.463989,751.028381,1584.478027,751.03595,1581.75,752.543823C1579.109741,754.003235,1578.034424,756,1579.888916,756C1580.377808,756,1580.715332,756.783325,1580.638916,757.740662C1580.538208,759.002808,1581.46228,759.625183,1584,760.004517C1586.612305,760.39502,1587.056152,760.706421,1585.75,761.232483C1584.787476,761.620056,1584,762.867188,1584,764.003784C1584,765.788757,1584.28418,765.918274,1586.085693,764.954163C1589.101807,763.339966,1589.550049,764.485291,1587.114014,767.582214C1584.46106,770.954895,1584.421387,772.31842,1587,771.5C1589.591187,770.677612,1589.537964,771.798401,1586.85022,774.659424C1584.922729,776.711121,1584.873291,777.014099,1586.37146,777.58905C1587.833862,778.150269,1587.729736,778.542969,1585.536865,780.735901C1582.526489,783.746277,1583.029907,784.976929,1587.30896,785.067688C1590.498901,785.135315,1590.499146,785.135742,1588,786.264221C1586.625,786.885071,1585.317139,787.525024,1585.093506,787.68634C1584.158691,788.36084,1588.423706,796,1589.735229,796C1591.969238,796,1590.604126,798.461609,1588.171631,798.81958C1585.776001,799.172058,1585.153076,801,1587.428589,801C1590.073853,801,1592.30835,804.041016,1590.632935,805.360901C1588.905518,806.721802,1587.404785,813,1588.807007,813C1589.338257,813,1590.074585,815.137512,1590.443359,817.75C1591.393555,824.480835,1591.950806,826,1593.469604,826C1594.878784,826,1597.431152,831.55658,1597.075562,833.850342C1596.945557,834.689026,1597.334961,834.911072,1598.103027,834.436279C1598.970093,833.900391,1599.145264,834.178894,1598.689087,835.367981C1597.134277,839.419495,1607.174683,839.790588,1613.807129,835.926697C1617.998413,833.484985,1618.773438,833.487854,1616.557007,835.937012C1615.592896,837.002319,1615.080444,838.321228,1615.418335,838.867859C1615.756226,839.414551,1615.575317,840.14447,1615.016357,840.489929C1614.457397,840.835388,1614.018433,841.653992,1614.041016,842.309021C1614.063599,842.96405,1615.812256,841.587524,1617.92688,839.25C1622.020142,834.725464,1623.734497,833.759094,1622.035156,836.934265C1620.586304,839.641602,1620.71228,840,1623.113525,840C1624.893066,840,1625.157471,840.47406,1624.786743,843C1624.43457,845.399231,1624.71228,846,1626.173218,846C1627.19165,846,1628,846.717957,1628,847.622437C1628,848.987244,1628.250732,849.036804,1629.578857,847.934631C1631.31311,846.495239,1631.262573,860.752258,1629.515259,865.863831C1628.81665,867.907349,1628.970947,868.143982,1630.653198,867.610046C1632.366455,867.066345,1632.551758,867.399902,1632.201782,870.397766C1631.883423,873.123779,1632.202881,873.929626,1633.802734,874.437378C1636.06311,875.154785,1637.205566,878.47937,1636.428223,882.077576C1635.06604,888.383301,1635.225586,898.069519,1636.661865,896.259888C1637.947266,894.640564,1638.034546,894.699707,1637.755615,897C1637.588989,898.375,1636.900757,899.387512,1636.226318,899.25C1634.559082,898.910095,1634.692383,901.886597,1636.499634,905.351807C1638.112671,908.444458,1637.719604,911.622559,1635.120972,916.5C1634.241943,918.150024,1633.505615,919.950012,1633.484863,920.5C1633.464111,921.049988,1633.118286,922.024719,1632.716431,922.666077C1632.314575,923.307434,1632.391724,924.900146,1632.888062,926.205505C1633.857788,928.756104,1631.748901,944.843445,1630.30542,945.906738C1629.526123,946.480713,1627.995117,949.570801,1621.045532,964.59491C1616.323242,974.803894,1617.148438,975.919617,1630.5,977.376892C1632.699951,977.617004,1637.875,978.706421,1642,979.797852C1650.75354,982.113831,1685.950928,1028.903809,1701.875244,1027.888428C1707.650269,1027.520264,1715.075195,1027.5177,1718.375244,1027.882813C1721.675293,1028.247803,1728.200195,1028.786865,1732.875244,1029.080566C1743.975586,1029.778076,1749.022339,1030.684814,1750.919067,1032.322754C1751.768188,1033.055908,1754.018188,1033.757324,1755.919067,1033.881592C1759.470947,1034.113525,1763.778076,1036.223145,1765.151733,1038.403442C1765.578735,1039.081299,1766.665039,1039.353149,1767.565796,1039.007568C1768.673096,1038.58252,1768.965576,1038.763916,1768.468994,1039.567261C1767.9375,1040.427246,1768.720825,1040.633057,1771.304932,1040.312622C1774.045898,1039.972656,1774.875244,1040.227783,1774.875244,1041.411011C1774.875244,1042.459961,1775.51416,1042.785156,1776.875244,1042.429199C1778.722778,1041.946045,1779.439697,1043.144043,1778.993652,1045.968994C1778.700195,1047.827637,1781.817383,1046.477051,1782.455811,1044.468994C1783.146484,1042.296631,1783.196289,1042.288086,1783.899658,1044.218994C1784.300293,1045.31897,1784.178589,1046.781494,1783.629272,1047.468994C1782.936157,1048.336426,1783.016724,1048.718994,1783.892578,1048.718994C1784.586792,1048.718994,1785.752563,1047.931519,1786.483154,1046.968994C1787.964966,1045.01709,1788.353638,1046.414795,1786.947021,1048.637085C1786.374634,1049.541504,1786.542236,1050.809448,1787.409668,1052.137085C1790.362671,1056.656982,1791.283325,1071.651855,1788.967041,1077.505981z"/>
</svg>
