<?xml version="1.0" encoding="UTF-8"?>
<svg xmlns="http://www.w3.org/2000/svg" width="590.000mm" height="477.883mm" viewBox="-907.503906 -1013.937500 590.000000 477.882813">
    <path transform="matrix(-1,0,0,-1,0,0)" style="stroke:none;fill:#000000;fill-rule:evenodd" d="M624.988281,553.195313C629.541016,559.493652,633.890625,565.935364,638.03125,572.511719C642.261841,579.230713,646.189087,586.136169,649.800781,593.207031C652.630615,598.806641,655.175537,604.545715,657.425781,610.402344C660.135315,617.453064,662.250732,624.718079,663.75,632.121094C665.877747,629.123596,668.169006,626.245422,670.613281,623.5C676.023315,617.349854,682.160767,611.880066,688.890625,607.210938C692.95929,604.370422,697.226746,601.826233,701.660156,599.597656C706.1922,597.306946,710.871887,595.32074,715.667969,593.652344C721.235962,591.693604,726.929993,590.11322,732.710938,588.921875C737.689148,587.903442,742.704651,587.075928,747.746094,586.441406C750.903503,586.054749,754.073303,585.778503,757.25,585.613281L758.757813,585.515625L760.242188,585.425781L761.738281,585.328125L763.257813,585.230469C770.842896,584.728516,778.539917,584.239258,786.125,583.777344L783.066406,600.296875C782.767456,601.681335,782.395691,603.049072,781.953125,604.394531C781.236145,606.620911,780.451904,608.824951,779.601563,611.003906C777.410706,616.715515,774.986938,622.334412,772.335938,627.847656C770.076904,632.506348,767.576111,637.043579,764.84375,641.441406L764.964844,641.398438L768.066406,640.5L771.234375,639.714844L774.457031,639.027344L777.769531,638.445313C780.023193,638.112305,782.284058,637.832153,784.550781,637.605469L788.046875,637.332031L791.621094,637.15625C794.066895,637.077637,796.51416,637.056824,798.960938,637.09375C801.497986,637.146851,804.033752,637.252319,806.566406,637.410156C813.38324,637.876099,820.172546,638.677795,826.910156,639.8125C834.392883,641.068237,841.824646,642.61377,849.1875,644.445313C854.379272,645.713989,859.540588,647.102173,864.667969,648.609375C869.633789,650.056641,874.579102,651.571045,879.503906,653.152344C884.962463,654.869995,890.401245,656.654297,895.816406,658.503906C897.354614,659.025085,898.87384,659.601196,900.371094,660.230469L902.554688,661.3125L906.085938,664.84375L907.503906,670.207031L906.882813,674.160156L905.867188,676.5L904.949219,677.953125C903.717285,679.609985,902.29895,681.11969,900.722656,682.453125C898.242371,684.587463,895.648804,686.586609,892.953125,688.441406C889.568726,690.804688,886.076477,693.010254,882.488281,695.050781C878.563477,697.240356,874.509033,699.189392,870.347656,700.886719C869.148987,701.395264,867.940857,701.879883,866.722656,702.339844C864.194824,703.315674,861.644592,704.232422,859.074219,705.089844C853.472961,706.947693,847.806641,708.602356,842.085938,710.050781C839.017761,710.819458,835.937439,711.551758,832.851563,712.246094C826.795959,713.57605,820.70459,714.741943,814.585938,715.742188L814.914063,716.070313C817.215759,718.442993,819.470398,720.861755,821.675781,723.324219L824.976563,727.085938L828.210938,730.929688L831.367188,734.839844L834.4375,738.828125C836.216553,741.193359,837.932007,743.605591,839.582031,746.0625L841.40625,748.761719L845.011719,754.277344L848.464844,759.738281C850.629761,763.204346,852.68811,766.736023,854.636719,770.328125C855.289063,771.555847,855.877258,772.81665,856.398438,774.105469L856.898438,775.558594L857.433594,778.355469L856.769531,783.6875L853.820313,787.0625L852.355469,788.265625C851.825684,788.583252,851.292358,788.897461,850.757813,789.207031C849.649841,789.758789,848.508484,790.240601,847.339844,790.648438C846.151611,791.08197,844.949219,791.475891,843.734375,791.828125C841.097961,792.609497,838.434998,793.297302,835.75,793.890625C834.328735,794.187073,832.899658,794.446167,831.464844,794.667969C827.373108,795.16217,823.25415,795.395874,819.132813,795.367188L815.472656,795.3125L811.855469,795.136719C809.535889,795.011963,807.224304,794.767761,804.929688,794.40625L801.167969,793.726563L797.433594,792.898438C792.816345,791.750366,788.277283,790.308472,783.84375,788.582031L785.207031,790.460938C788.614136,795.267761,791.825134,800.210754,794.832031,805.277344C796.293518,807.758972,797.700317,810.272705,799.050781,812.816406C800.336304,815.281494,801.571045,817.773071,802.753906,820.289063C807.042175,829.539978,810.603638,839.110474,813.40625,848.914063C815.316223,855.536743,816.887268,862.252563,818.113281,869.035156C819.60144,877.080322,820.626709,885.20459,821.183594,893.367188C821.784119,901.721558,821.937988,910.102173,821.644531,918.472656C821.513428,922.502808,821.280273,926.528625,820.945313,930.546875C820.892334,931.198425,820.811707,931.847534,820.703125,932.492188C820.637085,933.176086,820.525391,933.854858,820.367188,934.523438L820.003906,935.996094L818.433594,939.832031L811.429688,945.085938L805.15625,943.296875C803.596924,942.578125,802.059692,941.812195,800.546875,941C798.738403,940.058472,796.939941,939.102051,795.148438,938.128906L789.972656,935.289063L784.726563,932.25L779.484375,929.070313L774.25,925.75L769.050781,922.296875L763.859375,918.726563L758.679688,915.019531L753.546875,911.199219L748.464844,907.273438L743.429688,903.242188L738.449219,899.101563L733.554688,894.898438L728.703125,890.570313L723.949219,886.179688L719.273438,881.710938L714.738281,877.207031L714.335938,876.792969C713.485535,880.379944,712.512268,883.936829,711.417969,887.457031C710.379395,890.867676,709.235413,894.245911,707.988281,897.585938C707.531616,898.798584,707.005859,899.984009,706.414063,901.136719C706.058472,901.718933,705.715759,902.308655,705.386719,902.90625L702.371094,905.921875L697.390625,907.582031L693.816406,907.132813L692.253906,906.652344C691.504761,906.378357,690.775269,906.052979,690.070313,905.679688C688.331787,904.795898,686.626099,903.848694,684.957031,902.839844L682.433594,901.253906L682.402344,901.496094L682.039063,903.125C681.660522,904.504944,681.212097,905.864868,680.695313,907.199219C680.509521,907.722229,680.307739,908.239502,680.089844,908.75C677.331055,916.011536,674.200684,923.126404,670.710938,930.066406L669.367188,932.730469L666.582031,938.007813L663.621094,943.351563L660.507813,948.726563L657.230469,954.132813L653.808594,959.554688L650.257813,964.984375L646.566406,970.402344L642.742188,975.832031L638.796875,981.230469L634.734375,986.605469L630.550781,991.945313L626.289063,997.210938L612.523438,1013.9375L596.199219,993.5625C588.924072,984.510193,582.009521,975.173035,575.472656,965.574219C571.277954,959.397034,567.288452,953.081848,563.511719,946.640625C559.975952,940.602966,556.677734,934.428711,553.625,928.132813L551.199219,922.976563L548.925781,917.808594L546.828125,912.671875L544.925781,907.636719L542.601563,901.222656C540.729492,902.410461,538.838806,903.567932,536.929688,904.695313L522.707031,913.132813L517.320313,899.101563C516.916321,898.08075,516.547485,897.046265,516.214844,896C515.272217,893.250671,514.408508,890.474548,513.625,887.675781C512.578369,884.047729,511.620972,880.394043,510.753906,876.71875L505.769531,881.667969L500.484375,886.691406L495.074219,891.640625L489.546875,896.492188L483.921875,901.246094L478.226563,905.867188L472.460938,910.367188L466.660156,914.726563L460.824219,918.933594L455,922.953125C449.310577,926.787659,443.498718,930.438171,437.574219,933.898438C432.938538,936.600037,428.213501,939.144226,423.40625,941.527344L418.410156,943.941406L410.425781,943.941406L406.4375,938.957031L405.542969,937.351563L404.964844,935.835938C404.77887,935.113037,404.603088,934.387939,404.4375,933.660156C404.079285,931.562927,403.835358,929.447937,403.707031,927.324219C403.630432,926.200073,403.575684,925.075378,403.542969,923.949219C403.414917,920.712524,403.360229,917.473572,403.378906,914.234375C403.357574,907.225098,403.523041,900.21521,403.875,893.214844C403.999359,890.829529,404.180389,888.44696,404.417969,886.070313L405.070313,880.703125L405.824219,875.417969L406.6875,870.183594L407.683594,865.027344L408.765625,859.957031L409.964844,854.933594L411.300781,849.972656L412.730469,845.097656L414.28125,840.269531L415.953125,835.507813L417.746094,830.808594L419.648438,826.1875L421.65625,821.632813L423.789063,817.121094L426.046875,812.660156L428.417969,808.292969C432.260254,801.475708,436.511475,794.897339,441.148438,788.59375C437.974579,789.845032,434.744507,790.949097,431.46875,791.902344C427.763916,792.975098,423.983887,793.767639,420.160156,794.273438C417.833008,794.602783,415.492035,794.825745,413.144531,794.941406C410.190247,795.109619,407.232483,795.200806,404.273438,795.214844C401.979218,795.267273,399.68399,795.25293,397.390625,795.171875C396.711426,795.147583,396.033691,795.092651,395.359375,795.007813C392.788116,794.56189,390.223022,794.073364,387.667969,793.542969L386.71875,793.335938L383.605469,792.546875C382.188293,792.138184,380.77774,791.70575,379.375,791.25C377.671234,790.702148,376.007141,790.037842,374.394531,789.261719L373.410156,788.746094C372.727356,788.258667,372.039978,787.77832,371.347656,787.304688L368.472656,783.851563L367.511719,778.726563L368.066406,775.8125L368.503906,774.324219C369.363617,772.222412,370.367249,770.182373,371.507813,768.21875C372.632813,766.203186,373.798431,764.210571,375.003906,762.242188C379.332245,755.124878,383.912994,748.165161,388.738281,741.375C390.376526,739.082825,392.067322,736.828125,393.808594,734.613281C398.48877,728.617188,403.458252,722.852539,408.699219,717.339844L410.230469,715.777344C405.70575,714.951172,401.196655,714.076904,396.691406,713.152344C393.222534,712.441895,389.763092,711.689331,386.3125,710.894531C382.660248,710.015503,379.025085,709.064697,375.410156,708.042969L371.039063,706.742188C368.233765,705.871826,365.447449,704.939148,362.683594,703.945313C360.042114,702.98645,357.422485,701.966492,354.828125,700.886719L351.078125,699.234375L347.464844,697.519531L343.96875,695.738281L340.546875,693.859375L337.269531,691.894531L334.125,689.882813L331.0625,687.753906L328.101563,685.535156C326.972137,684.614258,325.848846,683.691162,324.726563,682.761719C323.585876,681.791077,322.492157,680.766357,321.449219,679.691406C320.749786,678.964844,320.124359,678.170593,319.582031,677.320313L318.914063,676.195313L318.183594,674.46875L317.503906,671.5625L317.964844,667.015625L320.28125,663.3125L322.78125,661.128906L324.605469,660.253906C326.316895,659.53949,328.052185,658.884155,329.808594,658.289063C333.561157,656.973145,337.330139,655.708984,341.117188,654.496094C350.904724,651.27417,360.787659,648.352417,370.753906,645.734375C378.035797,643.824158,385.377563,642.155457,392.769531,640.730469C399.359924,639.471008,406.001373,638.497498,412.675781,637.8125C417.737396,637.306763,422.819611,637.040833,427.90625,637.015625C432.610107,636.992859,437.311462,637.234192,441.988281,637.738281C447.305847,638.306702,452.569733,639.296875,457.730469,640.699219L460.210938,641.453125L459.773438,640.761719C457.181091,636.581665,454.790222,632.279724,452.609375,627.871094L450.980469,624.507813C449.931396,622.255859,448.93634,619.979187,447.996094,617.679688C446.580566,614.12677,445.248108,610.540955,444,606.925781C443.308441,604.913269,442.688263,602.876648,442.140625,600.820313C441.815826,599.655884,441.604248,598.46283,441.507813,597.257813L441.507813,595.914063L441.75,593.53125L444.28125,587.621094L449.898438,585.371094L451.875,585.078125C453.810638,584.959167,455.751434,584.955261,457.6875,585.066406C464.789154,585.374329,471.878845,585.895325,478.949219,586.628906C480.135376,586.762024,481.318817,586.914368,482.5,587.085938C486.855713,587.753845,491.182281,588.59967,495.46875,589.621094C499.58667,590.603455,503.658569,591.770081,507.671875,593.117188C511.551208,594.421143,515.362122,595.92041,519.089844,597.609375C522.724548,599.25769,526.268738,601.098877,529.707031,603.125C531.39502,604.13916,533.059204,605.191284,534.699219,606.28125C536.311646,607.376221,537.900574,608.505371,539.464844,609.667969C541.798706,611.447388,544.062012,613.317322,546.25,615.273438C551.34845,619.898682,555.983643,625.010132,560.089844,630.535156L561.371094,632.285156C562.185852,627.978882,563.243591,623.721924,564.539063,619.535156C565.59845,615.99707,566.807922,612.505554,568.164063,609.070313C570.495483,603.240723,573.106445,597.527222,575.988281,591.949219C579.117188,585.854126,582.477539,579.881409,586.0625,574.042969C589.791199,567.961243,593.733582,562.013794,597.882813,556.210938L600.375,552.792969L612.71875,536.054688L624.988281,553.195313M622.375,706.007813L621.316406,706.160156L622.585938,706.316406L622.585938,705.976563L622.375,706.007813M602.40625,706.589844L602.6875,706.535156L604.371094,706.292969C603.736633,706.209473,603.103638,706.114502,602.472656,706.007813L602.40625,706.589844M538.710938,775.621094L538.566406,775.710938C537.889954,776.260986,537.2771,776.884888,536.738281,777.570313C529.289856,786.642212,523.762573,797.133118,520.492188,808.40625C519.413879,812.079651,518.542664,815.810852,517.882813,819.582031C517.555115,821.676453,517.330811,823.785767,517.210938,825.902344C516.711914,834.22052,516.758911,842.562805,517.351563,850.875C517.600586,853.920166,518.007385,856.950134,518.570313,859.953125C520.368408,869.613586,522.69873,879.166992,525.550781,888.570313C526.402405,891.329041,527.349609,894.057129,528.390625,896.75C531.738159,894.833862,535.025818,892.816223,538.25,890.699219C543.754211,887.009766,548.894592,882.804626,553.601563,878.140625C556.726746,875.088196,559.704163,871.887878,562.523438,868.550781C564.838196,865.899719,567.015442,863.131775,569.046875,860.257813C569.344727,859.814941,569.600586,859.345337,569.8125,858.855469L569.847656,858.730469C569.861328,858.624573,569.856567,858.517334,569.828125,858.414063C569.777588,858.227417,569.713806,858.044556,569.636719,857.867188C568.884094,855.992432,568.07373,854.141296,567.207031,852.316406C563.32959,844.210999,559.799194,835.94458,556.625,827.539063C550.991211,812.808594,545.978638,797.84668,541.601563,782.695313C541.05304,780.828735,540.430298,778.984741,539.734375,777.167969C539.552368,776.73053,539.353149,776.300415,539.136719,775.878906C539.072571,775.759033,538.987549,775.65094,538.875,775.574219L538.832031,775.566406L538.710938,775.621094M660.820313,695.695313C656.456482,695.790771,652.123962,696.457703,647.933594,697.679688C644.294067,698.861694,640.762939,700.354126,637.378906,702.140625C636.55719,702.5802,635.756958,703.058838,634.980469,703.574219C634.576965,703.864075,634.215027,704.207642,633.902344,704.59375L633.824219,704.726563C633.792664,704.810669,633.774597,704.898682,633.769531,704.988281L633.820313,705.101563C633.88916,705.173157,633.968506,705.233276,634.050781,705.289063C634.133972,705.34375,634.225403,705.381958,634.316406,705.421875C635.057556,705.684387,635.815857,705.895935,636.585938,706.054688C643.400574,707.474121,649.944031,709.974365,655.96875,713.460938C657.444519,714.367432,658.848389,715.386108,660.167969,716.507813C664.198059,719.819336,667.930725,723.476318,671.324219,727.4375C672.785095,729.127563,674.078735,730.9552,675.1875,732.894531C677.365112,736.59668,679.268738,740.453308,680.882813,744.433594C683.081299,749.760254,684.907288,755.233032,686.347656,760.8125C686.454773,761.238708,686.651733,761.636902,686.925781,761.980469C687.189392,762.271729,687.515564,762.499146,687.878906,762.648438C688.814575,763.056946,689.777832,763.399292,690.761719,763.671875C698.787231,765.938721,706.449829,769.334534,713.519531,773.757813C715.312683,774.9021,717.034424,776.154785,718.675781,777.507813C722.667969,780.716797,726.447876,784.181152,729.992188,787.878906C730.924561,788.871338,731.827148,789.891663,732.699219,790.9375C733.290344,791.73645,733.907715,792.515686,734.550781,793.273438L734.792969,793.523438L735.0625,793.742188L735.179688,793.785156L735.304688,793.808594L735.402344,793.761719L735.492188,793.699219L735.578125,793.582031C735.741211,793.317749,735.85791,793.027344,735.917969,792.722656C735.94635,792.591858,735.970764,792.460205,735.992188,792.328125C736.158386,790.932068,736.237061,789.526978,736.226563,788.121094C736.225586,781.154297,735.868408,774.192139,735.15625,767.261719C734.91272,764.884949,734.498474,762.528564,733.917969,760.210938C732.188477,752.678833,729.540955,745.387207,726.035156,738.5C720.235657,727.275024,712.023804,717.473022,701.988281,709.796875C695.285706,704.714294,687.750305,700.836243,679.71875,698.335938C673.598755,696.460815,667.21991,695.569458,660.820313,695.695313M686.152344,775.574219C686.024597,775.696228,685.919556,775.838928,685.832031,775.992188C685.743164,776.128784,685.673828,776.276855,685.617188,776.429688C684.89917,778.133972,684.278442,779.877747,683.757813,781.652344C679.026794,797.905273,673.606506,813.950073,667.511719,829.742188C665.27124,835.49469,662.885986,841.191589,660.359375,846.824219C659.101379,849.485413,657.854919,852.163574,656.628906,854.839844C656.127136,855.949768,655.660767,857.075317,655.230469,858.214844C655.20282,858.306274,655.173096,858.397095,655.144531,858.488281L655.125,858.621094C655.149109,858.743103,655.185608,858.862122,655.234375,858.976563C655.466492,859.460144,655.735535,859.924927,656.039063,860.367188C656.288147,860.750854,656.549316,861.126587,656.824219,861.492188C658.893494,864.273438,661.076294,866.968506,663.367188,869.570313C668.615967,875.691956,674.433533,881.301819,680.742188,886.324219C684.815063,889.53894,689.137146,892.424438,693.667969,894.953125C694.311584,895.297058,694.962708,895.626587,695.621094,895.941406C695.828186,896.037537,696.044128,896.112793,696.265625,896.167969L696.332031,896.140625L696.414063,896.050781L696.507813,895.90625C696.99054,894.97821,697.403992,894.015869,697.746094,893.027344C700.336914,885.990662,702.453491,878.788208,704.082031,871.46875C705.19696,866.591675,706.15564,861.680481,706.957031,856.742188C707.24939,854.750122,707.463074,852.747192,707.597656,850.738281C708.11377,843.017761,708.224609,835.275146,707.929688,827.542969C707.849365,825.698669,707.705139,823.857666,707.496094,822.023438C706.419617,814.829956,704.570313,807.773499,701.980469,800.976563C699.54541,794.66748,696.34729,788.680176,692.457031,783.148438C690.917542,780.862793,689.23584,778.676147,687.421875,776.601563C687.083618,776.243042,686.712463,775.916992,686.3125,775.628906L686.1875,775.574219L686.152344,775.574219M561.898438,695.789063C558.937012,695.802185,555.980286,696.026611,553.050781,696.460938C551.24353,696.737671,549.455078,697.125183,547.695313,697.621094C542.573853,699.032593,537.62439,701.006775,532.9375,703.507813C526.81604,706.75708,521.170715,710.833191,516.160156,715.621094C509.399445,722.029602,503.744995,729.512085,499.425781,737.765625C494.458344,747.19989,491.148376,757.417603,489.640625,767.972656C489.35083,769.913452,489.1604,771.867859,489.070313,773.828125C488.757874,779.240356,488.6875,784.663574,488.859375,790.082031C488.883179,790.968018,488.95462,791.852234,489.074219,792.730469C489.150024,793.144775,489.273193,793.549133,489.445313,793.933594L489.507813,794L489.578125,794.03125C489.756592,794.003845,489.911743,793.895264,490.007813,793.742188L490.140625,793.585938C491.335693,791.959534,492.642365,790.418213,494.050781,788.972656C497.995117,784.866333,502.169861,780.987549,506.554688,777.355469C507.586731,776.518005,508.640259,775.707886,509.714844,774.925781C516.260315,770.550537,523.380066,767.102478,530.871094,764.679688C533.301819,763.934204,535.736633,763.210693,538.179688,762.507813C538.914978,759.873291,539.661438,757.254944,540.425781,754.628906C542.059265,748.959839,544.208862,743.452393,546.847656,738.175781C550.119263,731.703125,554.452698,725.82489,559.667969,720.785156C567.505859,713.318115,577.306763,708.236267,587.925781,706.132813C588.615845,705.98999,589.406738,705.826416,590.097656,705.683594C590.455688,705.592896,590.805176,705.47113,591.140625,705.316406L591.25,705.226563C591.293152,705.163452,591.325012,705.092773,591.324219,705.015625C591.18689,704.686707,590.973999,704.396484,590.710938,704.15625C589.903015,703.479187,589.022461,702.893982,588.085938,702.410156C584.665161,700.557861,581.095459,698.995117,577.414063,697.738281C575.416565,697.066711,573.356812,696.596619,571.265625,696.335938C568.600708,695.966064,565.913208,695.782104,563.222656,695.785156L561.898438,695.789063M453.859375,596.175781L453.070313,596.214844C452.971619,596.227539,452.873291,596.242737,452.777344,596.269531L452.738281,596.292969C452.698578,596.409973,452.683014,596.533997,452.703125,596.65625L452.71875,596.839844C452.871979,597.691711,453.077667,598.533264,453.335938,599.359375C455.502838,606.452881,458.156189,613.388672,461.277344,620.117188C464.664368,627.34082,468.653687,634.266296,473.203125,640.820313C475.703644,644.382629,478.429291,647.781433,481.363281,650.996094C484.031494,653.863159,486.988556,656.447266,490.1875,658.707031C493.010925,660.657166,496.164917,662.079041,499.496094,662.902344C500.596588,663.186218,501.709747,663.418335,502.832031,663.597656C505.762909,664.065002,508.71405,664.394958,511.675781,664.585938C516.486938,664.872986,521.287292,665.313232,526.070313,665.90625C529.504395,666.344849,532.907043,667.001099,536.257813,667.871094C540.691406,669.057678,544.914734,670.923462,548.777344,673.402344C551.279236,674.982056,553.640747,676.773865,555.835938,678.757813C556.475586,679.398132,557.120117,680.03363,557.769531,680.664063C558.007019,680.88092,558.264893,681.074158,558.539063,681.242188C558.585999,681.244385,558.632874,681.246582,558.679688,681.242188C559.033264,681.166504,559.371216,681.028992,559.671875,680.828125C561.177063,679.919006,562.539246,678.792114,563.714844,677.484375C566.095032,674.678284,567.173889,670.994446,566.683594,667.347656C566.555176,666.690247,566.38031,666.042786,566.160156,665.410156C565.811218,664.317932,565.408447,663.243774,564.953125,662.191406C562.378296,656.073242,559.386841,650.138672,556,644.429688C551.923645,637.743225,547.030579,631.590454,541.433594,626.113281C534.399231,619.256348,526.319092,613.561523,517.496094,609.242188C511.731018,606.391968,505.721039,604.066101,499.539063,602.292969C492.939758,600.348022,486.2052,598.896118,479.390625,597.949219C474.450409,597.379028,469.495148,596.94397,464.53125,596.644531C460.980042,596.372986,457.420685,596.216675,453.859375,596.175781M769.273438,596.0625C764.175659,596.372559,759.084106,596.700684,753.988281,597.046875C746.615295,597.708191,739.295532,598.865723,732.078125,600.511719C725.920349,601.933472,719.88678,603.847168,714.035156,606.234375C708.991394,608.294983,704.124756,610.765625,699.484375,613.621094C689.300049,619.931641,680.441284,628.164185,673.402344,637.859375C671.18158,640.865967,669.157776,644.013062,667.34375,647.28125C664.758545,651.842468,662.425537,656.542419,660.355469,661.359375C659.763611,662.752686,659.224121,664.167847,658.738281,665.601563C658.362183,666.696655,658.184082,667.850281,658.210938,669.007813C658.220703,672.718018,659.762329,676.259216,662.472656,678.792969C663.407898,679.627075,664.449768,680.333374,665.570313,680.894531C665.824341,681.035339,666.091248,681.151611,666.367188,681.242188L666.453125,681.242188C666.944702,680.933655,667.391541,680.559021,667.78125,680.128906C668.657776,679.184021,669.603088,678.305237,670.609375,677.5C673.321533,675.264404,676.224548,673.270996,679.285156,671.542969C682.008606,670.089294,684.882385,668.936829,687.855469,668.105469C690.813965,667.258362,693.83136,666.632996,696.882813,666.234375C700.545898,665.705872,704.226563,665.308533,707.917969,665.042969C712.982971,664.695068,718.033997,664.171326,723.0625,663.472656C724.59021,663.237183,726.092712,662.860779,727.550781,662.347656C730.091003,661.437195,732.501038,660.197571,734.71875,658.660156C737.135193,657.025818,739.399536,655.177185,741.484375,653.136719C744.132263,650.585144,746.585815,647.839233,748.824219,644.921875C751.889343,640.977783,754.677368,636.825928,757.167969,632.496094C760.266113,627.168945,763.038086,621.658997,765.46875,615.996094C767.594727,611.18042,769.510559,606.274902,771.210938,601.292969C771.560791,600.220886,771.858154,599.132385,772.101563,598.03125L772.511719,595.851563L769.273438,596.0625M795.464844,648.261719C790.810913,648.293823,786.163086,648.606934,781.546875,649.199219C776.794006,649.843506,772.10321,650.883545,767.523438,652.308594C761.96106,654.077454,756.667175,656.599487,751.789063,659.804688C751.157776,660.236938,750.540405,660.689148,749.9375,661.160156C746.342407,664.037354,742.914978,667.117859,739.671875,670.386719C739.163574,670.906067,738.66333,671.433472,738.171875,671.96875C737.880188,672.308105,737.613159,672.66803,737.375,673.046875L737.351563,673.140625C737.345703,673.245972,737.380188,673.347168,737.445313,673.429688C737.775757,673.6073,738.141602,673.706421,738.515625,673.734375C740.584167,673.875549,742.657166,673.942017,744.730469,673.933594C747.209045,673.930115,749.686218,674.052734,752.152344,674.300781C755.84668,674.795654,759.475281,675.695557,762.972656,676.984375C768.282837,678.893311,773.373047,681.36554,778.15625,684.359375C780.153381,685.635132,782.063782,687.042053,783.875,688.570313C788.182007,692.139038,792.241821,695.995605,796.027344,700.113281C797.089783,701.286316,798.116211,702.49115,799.105469,703.726563C799.556274,704.273132,800.054382,704.77887,800.59375,705.238281L800.796875,705.378906C801.072571,705.554932,801.367249,705.700012,801.679688,705.796875L801.914063,705.863281C802.740662,706.019897,803.586243,706.050537,804.421875,705.953125C806.452087,705.729919,808.473877,705.437927,810.484375,705.078125C821.828613,703.312744,833.068176,700.928955,844.152344,697.9375C851.527649,695.937134,858.778687,693.503113,865.867188,690.648438C868.997498,689.352539,872.069214,687.920105,875.074219,686.355469C880.765198,683.281738,886.187866,679.735474,891.285156,675.753906C892.435242,674.842468,893.545715,673.881897,894.613281,672.875C895.117859,672.388794,895.564941,671.846313,895.945313,671.257813C896.006165,671.142944,896.048096,671.019836,896.082031,670.894531C896.076904,670.805176,896.063782,670.716675,896.046875,670.628906L895.988281,670.570313L895.925781,670.511719C895.800903,670.450073,895.673889,670.393005,895.546875,670.335938C893.619934,669.581116,891.671021,668.882935,889.703125,668.242188C880.645325,665.193237,871.53717,662.309448,862.375,659.589844C854.472717,657.27063,846.49585,655.214844,838.457031,653.425781C831.778748,651.974243,825.049072,650.771606,818.28125,649.820313C810.720337,648.779968,803.096985,648.259216,795.464844,648.261719M427.695313,648.207031C423.038696,648.233398,418.386139,648.485107,413.753906,648.960938C405.683777,649.770508,397.665833,651.035522,389.738281,652.75C380.304779,654.737061,370.954651,657.102295,361.710938,659.839844C351.65686,662.774231,341.682617,665.978699,331.800781,669.449219C330.854248,669.788757,329.918793,670.158752,328.996094,670.558594C328.951782,670.589111,328.912323,670.625549,328.875,670.664063C328.814484,670.755066,328.811523,670.870667,328.851563,670.972656C328.875977,671.104553,328.932892,671.22937,329.027344,671.324219C329.376953,671.801392,329.77356,672.242371,330.210938,672.640625C332.267578,674.553406,334.435303,676.343018,336.703125,678C341.294769,681.402344,346.178375,684.391846,351.296875,686.933594C357.060516,689.825317,363.022064,692.304138,369.136719,694.351563C375.332367,696.465881,381.626373,698.28186,387.996094,699.792969C396.580048,701.783813,405.218475,703.539917,413.898438,705.058594C415.843658,705.381897,417.795166,705.673767,419.75,705.933594C420.620697,706.039856,421.498566,706.074524,422.375,706.039063C423.161896,705.972717,423.906738,705.654541,424.496094,705.128906C424.91275,704.781067,425.293213,704.392151,425.632813,703.96875C427.356476,701.800598,429.2005,699.730896,431.15625,697.769531C434.482239,694.37146,437.987213,691.15332,441.65625,688.128906C443.577881,686.551453,445.610565,685.114197,447.738281,683.828125C451.93045,681.211792,456.361816,679.000122,460.972656,677.222656C463.059326,676.448975,465.200775,675.831543,467.378906,675.375C471.581268,674.440369,475.861389,673.898926,480.164063,673.757813C481.914795,673.731628,483.665466,673.812439,485.40625,674C486.101166,674.063477,486.80011,674.070251,487.496094,674.019531L487.667969,673.976563C487.736877,673.938416,487.80011,673.891541,487.859375,673.839844L487.886719,673.742188L487.875,673.621094C487.759308,673.26062,487.575897,672.925598,487.335938,672.632813C486.4245,671.489136,485.432159,670.412415,484.367188,669.410156C481.394135,666.498291,478.257385,663.758179,474.972656,661.203125C474.161133,660.582825,473.332642,659.984985,472.488281,659.410156C467.571411,656.354675,462.306,653.899658,456.804688,652.097656C452.813416,650.868774,448.731812,649.954529,444.597656,649.363281C439.00293,648.532776,433.351105,648.146179,427.695313,648.207031M648,874.863281C647.69342,875.111267,647.431152,875.40863,647.214844,875.738281L647.023438,876.03125C645.806458,878.071106,644.560181,880.093628,643.285156,882.097656C637.356812,891.307068,631.101196,900.302917,624.53125,909.066406L622.132813,912.195313C619.977173,914.89801,617.764282,917.555115,615.496094,920.164063C615.024231,920.686279,614.512024,921.170593,613.964844,921.613281C613.752014,921.782959,613.509888,921.911194,613.253906,922.003906L613.011719,922.066406L612.761719,922.097656C612.428833,922.08313,612.109375,921.967651,611.835938,921.777344L611.585938,921.605469C611.421509,921.490234,611.275146,921.352417,611.136719,921.207031C606.62915,916.57196,602.479431,911.601929,598.722656,906.339844C595.368408,901.73999,592.121582,897.063232,588.984375,892.3125C585.372864,886.800964,581.732971,881.331238,578.042969,875.871094C577.962708,875.771118,577.872009,875.680298,577.777344,875.59375C577.679504,875.539246,577.572021,875.505737,577.460938,875.492188C577.017517,875.606689,576.616272,875.843872,576.300781,876.175781C575.237183,877.178223,574.225586,878.234375,573.269531,879.339844C569.037537,884.194885,564.459106,888.736694,559.570313,892.929688L553.363281,898.089844C554.324219,900.788147,555.307251,903.484192,556.308594,906.167969C559.978149,915.778809,564.317017,925.120911,569.292969,934.125C574.190186,943.055054,579.534302,951.73291,585.304688,960.125C590.833862,968.218262,596.647583,976.114014,602.734375,983.796875C606.018433,987.937622,609.326538,992.078003,612.640625,996.195313C615.523376,992.732117,618.374329,989.24884,621.199219,985.738281C631.039795,973.443176,640.120728,960.558167,648.390625,947.15625C653.330811,939.104248,657.889282,930.824219,662.050781,922.34375C664.608765,917.063293,666.954346,911.6828,669.082031,906.214844C669.898743,904.255798,670.617126,902.257324,671.234375,900.226563C671.391052,899.645142,671.455994,899.043152,671.433594,898.441406C671.429443,898.28363,671.399475,898.128113,671.355469,897.976563C671.312073,897.836182,671.253418,897.701477,671.1875,897.570313C670.868286,897.078003,670.456482,896.652283,669.972656,896.320313C668.437317,895.226685,666.969971,894.04071,665.578125,892.769531C661.38446,889.061157,657.377014,885.147583,653.570313,881.042969C652.43811,879.775452,651.334778,878.481995,650.261719,877.164063C649.617126,876.386963,648.927002,875.648865,648.195313,874.953125L648.097656,874.875L648.042969,874.855469L648,874.863281M511.746094,678.664063C508.96756,678.689575,506.190399,678.795105,503.417969,678.980469C497.880707,679.375977,492.391418,680.27948,487.019531,681.679688C478.402008,683.852051,470.042786,686.943909,462.085938,690.902344C454.376099,694.711365,447.030457,699.217102,440.140625,704.363281C432.499481,710.011353,425.333496,716.275818,418.714844,723.09375C409.266052,732.748779,400.737,743.262939,393.238281,754.5C389.859589,759.523804,386.612274,764.635071,383.5,769.828125C382.617065,771.309082,381.752014,772.802063,380.90625,774.304688C380.229645,775.529236,379.613312,776.78595,379.058594,778.070313C378.960358,778.320618,378.908966,778.58667,378.898438,778.855469C378.914368,778.908325,378.939697,778.958069,378.980469,778.996094C379.361267,779.245972,379.767792,779.453796,380.191406,779.621094C383.534119,780.952942,386.989349,781.983032,390.515625,782.699219C392.732788,783.183472,394.964508,783.600403,397.207031,783.949219C397.49472,783.985046,397.784302,784.004089,398.074219,784.003906C402.833069,784.105347,407.593994,784.034973,412.347656,783.792969C415.982269,783.592102,419.598114,783.133972,423.167969,782.421875C426.669098,781.707092,430.113129,780.737061,433.472656,779.519531C437.063324,778.214966,440.613403,776.80011,444.117188,775.277344C445.995575,774.511536,447.838501,773.661682,449.640625,772.730469C450.609589,772.234436,451.499359,771.597168,452.28125,770.839844C453.070923,769.985535,453.742126,769.028992,454.277344,767.996094C455.948761,764.883484,457.74057,761.836792,459.648438,758.863281C462.911316,753.709717,466.359131,748.674805,469.984375,743.769531C472.139832,740.918945,474.424805,738.168701,476.832031,735.527344C482.033936,729.72229,487.510254,724.168945,493.242188,718.886719C495.404724,716.904175,497.65155,715.015808,499.976563,713.226563C507.782501,707.15155,516.143738,701.825928,524.949219,697.320313C532.174988,693.587097,539.637695,690.331299,547.289063,687.574219C549.746521,686.676758,552.212769,685.809937,554.691406,684.972656C551.306335,683.828247,547.883911,682.797729,544.429688,681.882813C539.142456,680.531311,533.751221,679.625671,528.3125,679.175781C524.376587,678.829102,520.427734,678.654541,516.476563,678.652344C514.899719,678.638062,513.322876,678.641968,511.746094,678.664063M707.625,678.445313C703.886719,678.531494,700.153076,678.767334,696.433594,679.152344C691.896423,679.638672,687.394226,680.408386,682.953125,681.457031C679.96637,682.15509,676.995056,682.921021,674.042969,683.753906C673.19574,683.994629,672.363525,684.285645,671.550781,684.625C671.361816,684.713928,671.190491,684.837036,671.050781,684.992188C671.032532,685.04425,671.020752,685.098083,671.011719,685.152344C671.042725,685.202637,671.074219,685.252502,671.101563,685.304688C671.393799,685.512085,671.72345,685.660034,672.070313,685.75C674.44751,686.401489,676.793823,687.161438,679.101563,688.027344C687.472717,691.17749,695.631531,694.864746,703.527344,699.066406C717.782349,706.918091,730.75708,716.897461,742.003906,728.660156C747.167603,734.037415,751.969727,739.750183,756.378906,745.761719C761.087646,752.146545,765.445557,758.782532,769.433594,765.640625C770.517029,767.577515,771.581604,769.499695,772.648438,771.445313C775.072388,772.58551,777.489868,773.706726,779.925781,774.820313C783.57782,776.483582,787.298523,777.991455,791.078125,779.339844C795.062988,780.741028,799.135437,781.878906,803.269531,782.746094C806.337341,783.378296,809.447205,783.786987,812.574219,783.96875C817.493164,784.299805,822.429993,784.264648,827.34375,783.863281C828.414673,783.765869,829.482788,783.639709,830.546875,783.484375C834.910522,782.732361,839.205933,781.627197,843.390625,780.179688C843.942871,779.981018,844.49115,779.770874,845.035156,779.550781C845.38092,779.398315,845.710083,779.210632,846.015625,778.988281L846.089844,778.898438C846.098083,778.842834,846.109314,778.787659,846.113281,778.730469C846.086792,778.573669,846.050903,778.418701,846.007813,778.265625C845.956787,778.114868,845.899048,777.966431,845.835938,777.820313C845.287964,776.583923,844.67926,775.375366,844.011719,774.199219C841.627869,769.949463,839.113831,765.774414,836.472656,761.679688C833.460205,756.904907,830.309448,752.219788,827.023438,747.628906C818.587891,736.15741,809.087341,725.508545,798.648438,715.824219C794.267456,711.781372,789.699829,707.944885,784.960938,704.328125C780.165283,700.707642,775.115906,697.436096,769.851563,694.539063C761.18634,689.678772,752.005859,685.800598,742.480469,682.976563C731.16571,679.675171,719.407776,678.146729,707.625,678.445313M609.394531,559.410156C601.703125,569.825134,594.731018,580.752991,588.527344,592.117188C585.174438,598.292297,582.12915,604.629272,579.402344,611.105469C576.363342,618.452026,574.034973,626.072693,572.449219,633.863281C571.413391,639.046936,570.786438,644.304016,570.574219,649.585938C570.408752,654.163086,570.672974,658.745605,571.363281,663.273438C571.927063,666.761169,572.868774,670.177002,574.171875,673.460938C576.934021,680.123169,581.785461,685.708435,587.996094,689.375C590.37793,690.804626,592.911865,691.964294,595.550781,692.832031C598.446838,693.822327,601.426392,694.549255,604.453125,695.003906C606.807312,695.345215,609.161011,695.670532,611.519531,695.980469C611.964783,696.015259,612.412354,696.0047,612.855469,695.949219C616.721863,695.580566,620.569519,695.036987,624.386719,694.320313C629.178528,693.412781,633.75592,691.608948,637.878906,689.003906C641.992065,686.359436,645.470947,682.839539,648.066406,678.695313C649.454956,676.486877,650.603333,674.136169,651.492188,671.683594C652.430115,669.179932,653.145142,666.598206,653.628906,663.96875C654.119385,661.609436,654.391296,659.210022,654.441406,656.800781C654.5177,650.137329,654.115662,643.477051,653.238281,636.871094C652.687378,633.648987,651.987427,630.454285,651.140625,627.296875C649.749451,622.063599,648.029907,616.923218,645.992188,611.90625C643.825562,606.494629,641.380981,601.198608,638.667969,596.039063C635.514465,589.98407,632.102417,584.067078,628.441406,578.304688C624.45459,571.974426,620.270386,565.770996,615.894531,559.703125L612.585938,555.089844L609.394531,559.410156M749.007813,776.871094C749.327209,785.883972,749.023071,794.908081,748.097656,803.878906C747.634033,808.115417,746.982483,812.329163,746.144531,816.507813C745.98291,817.274414,745.805969,818.037537,745.613281,818.796875C745.575928,818.854126,745.551941,818.918701,745.53125,818.984375C745.345154,818.912354,745.165588,818.825195,744.992188,818.726563C742.66687,817.278992,740.376831,815.774414,738.125,814.214844C732.182861,810.111816,726.326904,806.04541,720.40625,801.910156C718.72644,800.739685,717.02887,799.59668,715.3125,798.480469C715.297485,798.511536,715.286682,798.543884,715.28125,798.578125C715.357727,799.620178,715.515076,800.654663,715.753906,801.671875C718.846069,816.127136,720.054077,830.921997,719.347656,845.6875C719.076294,850.833557,718.47876,855.95697,717.558594,861.027344L717.074219,863.664063C719.842834,866.487244,722.618347,869.282166,725.421875,872.070313C741.694946,888.139282,759.492188,902.587463,778.5625,915.210938C786.935547,920.714355,795.580688,925.79248,804.464844,930.425781C806.00293,931.271057,807.567444,932.066895,809.15625,932.8125L809.203125,932.78125C809.239197,932.731262,809.267212,932.676697,809.292969,932.621094L809.335938,932.5C809.579346,931.496948,809.737366,930.475037,809.808594,929.445313C810.97583,915.374695,810.847717,901.226929,809.425781,887.179688C808.117798,874.448242,805.614502,861.867981,801.949219,849.605469C799.179565,840.408203,795.703125,831.438782,791.550781,822.777344C788.473755,816.519897,785.037109,810.446045,781.257813,804.585938C777.838013,799.266846,774.1698,794.111267,770.265625,789.136719C765.429932,782.948059,760.208557,777.070435,754.632813,771.539063L748.617188,765.621094L749.007813,776.871094M470.199219,771.683594C466.605042,775.247986,463.168182,778.967773,459.898438,782.832031C453.592255,790.234924,447.820129,798.07605,442.625,806.296875C437.783386,813.997681,433.559296,822.069641,429.992188,830.4375C425.801514,840.261902,422.47644,850.433228,420.054688,860.835938C417.935577,869.792969,416.402344,878.878662,415.464844,888.035156C415.360657,889.143188,415.272186,890.252686,415.199219,891.363281C414.788025,898.303162,414.574402,905.254883,414.558594,912.207031C414.534027,916.763184,414.61734,921.318726,414.808594,925.871094C414.91983,927.786743,415.128448,929.695374,415.433594,931.589844C415.502441,931.969116,415.608429,932.340698,415.75,932.699219L415.796875,932.75L415.839844,932.753906C420.799683,930.398193,425.664215,927.84668,430.421875,925.105469C436.959442,921.365784,443.343658,917.36377,449.558594,913.109375C469.22702,899.71405,487.529999,884.416443,504.203125,867.4375L507.917969,863.660156C507.44043,861.190735,507.019897,858.711365,506.65625,856.222656C506.002625,851.599365,505.623047,846.941589,505.519531,842.273438C505.129089,828.384521,506.431641,814.499695,509.398438,800.925781C509.552979,800.145752,509.65451,799.356201,509.703125,798.5625C509.693176,798.535156,509.682159,798.507629,509.671875,798.480469C509.228943,798.7276,508.799591,798.998352,508.386719,799.292969C503.522217,802.613281,498.679321,805.979614,493.871094,809.382813C490.042358,812.108398,486.166718,814.7677,482.246094,817.359375C481.579803,817.773132,480.890106,818.148132,480.179688,818.480469C480.004547,818.557617,479.812225,818.586487,479.621094,818.574219C479.553894,818.562317,479.492279,818.532349,479.4375,818.492188L479.363281,818.425781C479.209869,818.166138,479.102539,817.881653,479.042969,817.585938C478.458252,814.818237,477.959198,812.03302,477.546875,809.234375C476.856506,805.184387,476.431091,801.093628,476.273438,796.988281C476.124298,792.304993,476.060455,787.61908,476.082031,782.933594L476.058594,765.90625L470.199219,771.683594M611.847656,716.90625C603.196411,717.074219,594.724854,719.407104,587.207031,723.691406C584.329712,725.319885,581.592285,727.184265,579.023438,729.265625C575.457825,732.125916,572.245239,735.400269,569.453125,739.019531C564.258972,745.865417,560.940063,753.948181,559.824219,762.46875C559.334656,766.091919,559.223389,769.756165,559.492188,773.402344C559.855347,778.543274,560.533691,783.656982,561.523438,788.714844C563.703491,800.247742,566.804565,811.587646,570.796875,822.625C571.376953,824.195313,572.003479,825.748169,572.675781,827.28125C576.632813,836.196777,580.999512,844.924744,585.761719,853.4375C587.593262,856.65033,589.577271,859.773499,591.707031,862.796875C595.893616,868.852112,600.297607,874.754517,604.910156,880.492188C606.831421,882.865356,608.831299,885.174011,610.90625,887.414063C611.39856,887.944031,611.930176,888.436096,612.496094,888.886719L612.53125,888.898438C612.575256,888.881042,612.617126,888.859314,612.660156,888.839844C613.151978,888.452881,613.605469,888.019531,614.015625,887.546875C616.445068,884.860718,618.784912,882.09491,621.03125,879.253906C627.38678,871.41748,633.222229,863.173462,638.5,854.574219C648.210327,838.624023,655.525269,821.333862,660.210938,803.257813C661.904053,796.820618,663.291016,790.306885,664.367188,783.738281C665.336487,776.672974,665.664551,769.534607,665.347656,762.410156C665.251709,760.695801,665.065369,758.98761,664.789063,757.292969C662.515015,746.313171,656.608948,736.41925,648.023438,729.207031C642.350098,724.425232,635.710205,720.926025,628.558594,718.949219C623.123962,717.425598,617.489258,716.736694,611.847656,716.90625"/>
</svg>
