<?xml version="1.0" encoding="UTF-8"?>
<svg xmlns="http://www.w3.org/2000/svg" width="590.019mm" height="340.503mm" viewBox="-1555.715088 -978.828125 590.018799 340.502808">
    <path transform="matrix(-1,0,0,-1,0,0)" style="stroke:none;fill:#000000;fill-rule:evenodd" d="M1199.13623,638.401489C1206.965088,638.675781,1214.729004,639.928589,1222.246094,642.133423C1231.304199,644.815796,1239.814453,649.081543,1247.38623,654.730103C1255.626953,660.946899,1262.347656,668.955078,1267.038818,678.150269L1267.783447,679.675049C1270.391113,675.559204,1273.338135,671.668457,1276.594971,668.044678C1281.845459,661.855957,1287.896484,656.394043,1294.590088,651.804688C1303.121582,646.10498,1312.760986,642.271973,1322.876953,640.555542C1328.391602,639.568481,1333.969971,638.978516,1339.568848,638.791504C1343.703125,638.501221,1347.851807,638.483398,1351.988281,638.738281C1357.653564,639.180298,1363.201172,640.592163,1368.387695,642.913574C1375.883789,646.21521,1383.14624,650.02356,1390.123779,654.313477C1394.547119,657.134033,1398.551514,660.562988,1402.02002,664.498779C1404.177979,667.022095,1406.070801,669.760498,1407.666748,672.671997C1410.186768,677.009155,1412.393555,681.520996,1414.270752,686.172729C1414.588379,687.016235,1414.840088,687.882813,1415.041992,688.76123L1415.547363,692.555298L1414.917969,694.629517L1415.822021,694.762573L1415.822021,694.540894L1418.197754,689.957886L1420.245605,687.839233C1423.110107,685.328125,1426.562012,683.580078,1430.280273,682.750977C1433.693115,681.933716,1437.167969,681.401367,1440.669434,681.164185C1447.401611,680.635376,1454.158203,680.478882,1460.907471,680.694458C1470.657959,680.863525,1480.384766,681.70813,1490.018799,683.220825C1493.818359,683.840088,1497.561523,684.762939,1501.2146,685.977661C1504.035156,686.94165,1506.785889,688.098267,1509.449951,689.434937C1518.811035,694.078003,1527.658936,699.690552,1535.848633,706.180054C1540.831543,709.983154,1545.433105,714.260986,1549.588623,718.953979C1551.53833,721.261719,1553.156494,723.830078,1554.393311,726.586426C1555.372314,728.91394,1555.816895,731.430786,1555.696289,733.952881L1555.421631,736.018311L1554.765625,738.331909L1553.36499,741.124268L1551.52124,743.198608L1550.076172,744.413086C1548.327881,745.609375,1546.459229,746.620117,1544.500488,747.427002C1537.819824,750.238647,1531.010742,752.73291,1524.094238,754.899902C1520.351807,756.10791,1516.591309,757.266968,1512.818359,758.374756L1510.673096,758.800293L1506.081299,758.800293C1512.804199,770.840332,1517.095459,784.083374,1518.713379,797.777832C1519.278076,802.934937,1519.399414,808.130859,1519.076904,813.308594L1516.337646,854.51123L1501.498291,838.670166C1502.894531,845.648926,1503.132813,852.809937,1502.19873,859.865479C1502.047363,861.073242,1501.878418,862.278931,1501.693359,863.482178L1494.76123,905.668701L1474.665283,879.828491C1476.115967,887.156006,1476.842041,894.608765,1476.828125,902.078613C1476.909912,906.764893,1476.794189,911.452515,1476.482422,916.128906C1476.252441,918.513672,1475.726563,920.860718,1474.91333,923.114258C1473.63501,926.345093,1471.341553,929.070801,1468.380127,930.888428L1466.527588,931.863525L1463.938965,932.705688L1461.643066,933.095703C1459.109619,933.396851,1456.544434,933.286377,1454.046143,932.767822C1451.926758,932.366821,1449.840332,931.80835,1447.80542,931.092407C1434.254395,926.509888,1421.330322,920.250244,1409.333252,912.458984C1407.296143,911.107788,1405.317383,909.670654,1403.402832,908.150757C1402.393555,907.319092,1401.442139,906.419556,1400.54834,905.464844L1397.569824,902.114014C1393.668457,916.956665,1387.64624,931.159424,1379.689941,944.282837C1374.738525,952.648438,1369.230469,960.671021,1363.201904,968.296997C1361.349854,970.587402,1359.319824,972.727783,1357.129639,974.697266C1355.644531,975.958374,1353.97583,976.98645,1352.174316,977.729004C1351.387939,978.04541,1350.577637,978.298096,1349.754395,978.500122L1346.447754,978.819336L1343.026123,978.110107L1340.83667,977.126099C1338.638916,975.867432,1336.588867,974.367554,1334.719971,972.658447C1329.009521,967.535645,1323.706787,961.975708,1318.861328,956.028442C1314.460205,950.786865,1310.372803,945.289917,1306.619385,939.566895C1305.33374,937.559937,1304.217529,935.449341,1303.286133,933.255371C1294.252197,941.249512,1284.838623,948.805054,1275.079102,955.895508C1273.71582,956.891357,1272.293701,957.803955,1270.823975,958.634644C1268.131836,960.079102,1265.138184,960.873413,1262.083496,960.939453C1258.599609,960.848022,1255.190674,959.904053,1252.155273,958.191406C1249.194824,956.539795,1246.313477,954.750366,1243.52124,952.828369C1235.910889,947.832153,1228.705322,942.244873,1221.971436,936.11853C1220.882568,937.996826,1219.762451,939.918945,1218.664795,941.79187C1215.287842,947.040161,1211.599609,952.081177,1207.619629,956.888306C1203.929443,961.488647,1200.043457,965.927979,1195.971436,970.194092C1194.611328,971.580078,1193.206543,972.921753,1191.760742,974.218628C1190.336914,975.460449,1188.766846,976.523193,1187.089111,977.39209C1186.126953,977.822144,1185.129883,978.169678,1184.110596,978.43811L1181.034668,978.828125L1178.286621,978.367188L1176.628906,977.853027C1174.748535,977.05249,1172.991455,975.989014,1171.407715,974.697266C1164.573242,969.132324,1158.329834,962.879639,1152.774414,956.037354C1147.391846,949.096924,1142.796143,941.580811,1139.069824,933.627686C1133.856201,922.665161,1130.138184,911.052124,1128.015625,899.100098L1127.802979,899.942261L1126.242676,902.716797L1124.780029,904.365601C1123.073242,905.934204,1121.190674,907.300293,1119.168701,908.434448C1113.741211,911.53833,1108.200195,914.439453,1102.556641,917.130615C1093.382324,921.64563,1084.034424,925.800781,1074.535645,929.585327C1072.532959,930.35022,1070.494385,931.017944,1068.427979,931.588745L1045.495117,937.341919L1045.512939,901.599854C1045.460205,894.02478,1046.246826,886.467163,1047.862061,879.066162C1046.828125,880.360352,1045.755615,881.623169,1044.644287,882.851318L1042.826904,884.43811L1039.440674,886.24646L1034.494141,886.902466L1029.583252,885.501831L1026.418701,883.072876L1024.521484,880.732666L1023.528809,878.746948C1022.78418,876.921021,1022.298584,874.99939,1022.092773,873.038208C1021.731201,869.231812,1021.606201,865.40686,1021.720459,861.585205C1021.862549,854.528076,1022.229492,847.476807,1022.81958,840.443115L997.901123,862.959106L1004,814C1006.294434,795.628784,1011.96582,777.840088,1020.727539,761.530518C1019.764404,761.547363,1018.803223,761.444824,1017.864258,761.229126C1016.176758,760.895142,1014.52002,760.419312,1012.917725,759.793091C1008.248779,757.968628,1003.642578,755.988037,999.106934,753.853882L982.396973,746.141602L965.696289,738.402832L984.489014,715.009277C991.266846,706.467896,999.461426,699.154541,1008.716064,693.38855C1018.217773,687.515137,1028.69165,683.383911,1039.644531,681.190796C1047.205566,679.636353,1054.902588,678.836426,1062.621582,678.806274C1069.162842,678.799927,1075.699951,679.148804,1082.203369,679.852295C1088.194824,680.353516,1094.154541,681.179565,1100.056641,682.325562C1102.278076,682.800049,1104.447266,683.491089,1106.536621,684.38208C1108.343262,685.224609,1109.962646,686.420654,1111.297119,687.901367L1112.963623,690.02002L1114.23999,693.211182L1114.355225,694.017944L1114.904785,693.947021L1115.312744,690.631592L1116.119385,688.530762C1116.950928,686.833984,1117.92749,685.21228,1119.035889,683.681763C1123.033447,677.861816,1127.234375,672.185303,1131.632324,666.661743C1137.205322,659.757813,1143.907227,653.84729,1151.453613,649.180786C1158.887451,644.681396,1167.089355,641.595337,1175.64502,640.076904C1180.516846,639.142212,1185.455078,638.596313,1190.41333,638.445801C1193.318848,638.299683,1196.229492,638.285522,1199.13623,638.401489M1451.661621,692.936401C1446.335693,692.936401,1441.014648,693.2771,1435.731934,693.955811C1433.685303,694.205078,1431.674561,694.689209,1429.739502,695.400757C1429.46167,695.530518,1429.185547,695.66394,1428.915039,695.808594C1428.231201,696.144897,1427.618408,696.607788,1427.089111,697.156006L1426.947266,697.413086L1426.947266,697.634644C1426.987793,697.704224,1427.031982,697.771606,1427.089111,697.829712C1427.178467,697.8927,1427.272949,697.947021,1427.36377,698.006958C1427.689453,698.124512,1428.026611,698.203003,1428.365479,698.272949C1430.621338,698.542725,1432.893066,698.658081,1435.164551,698.618652C1438.961182,698.744507,1442.743896,699.137939,1446.484619,699.797607C1455.956299,701.388062,1465.331299,703.504028,1474.567627,706.135742C1480.335205,707.714478,1486.016357,709.593262,1491.587646,711.764771C1494.397217,712.917847,1497.11792,714.276978,1499.725342,715.833618C1504.425049,718.532227,1508.967773,721.494873,1513.33252,724.707031L1522.232666,731.373291L1513.33252,739.298218C1511.465088,740.885132,1509.753906,742.647583,1508.226563,744.563721C1507.9646,744.894775,1507.767578,745.269775,1507.61499,745.662964L1507.588379,745.902344L1507.65918,746.06189L1507.818848,746.150513L1508.084717,746.150513L1508.448242,746.07959C1516.561523,743.737427,1524.581055,741.081909,1532.489014,738.119263C1535.220947,737.130371,1537.893555,735.985107,1540.493652,734.688599C1540.73999,734.547485,1540.985596,734.405029,1541.220459,734.245361C1541.349121,734.138062,1541.471436,734.024048,1541.583984,733.899658C1541.753418,733.617432,1541.836182,733.296021,1541.867676,732.968872C1541.863281,732.579102,1541.829346,732.189819,1541.717041,731.816528L1541.575195,731.38208C1540.807617,729.645874,1539.766113,728.044922,1538.490234,726.639526C1535.45874,723.231812,1532.140625,720.090698,1528.570801,717.251953C1520.587891,710.735229,1511.910156,705.119995,1502.695068,700.506714C1499.773926,699.052002,1496.733643,697.848999,1493.608887,696.907715C1489.715576,695.879028,1485.755371,695.123291,1481.756836,694.647339C1471.775146,693.397339,1461.720703,692.825562,1451.661621,692.936401M1419.172852,808.30896L1431.060303,815.879395C1437.910889,820.31897,1444.208008,825.55957,1449.817871,831.489868C1455.782227,837.759766,1461.453125,844.302856,1466.811279,851.098389C1469.127686,853.996826,1471.436279,856.921265,1473.716797,859.847656L1485.719482,875.289795L1488.006348,861.372437C1488.949219,856.018066,1489.145996,850.558716,1488.591553,845.150269C1487.997803,839.243774,1486.017334,833.560913,1482.811768,828.564575C1479.520996,823.667847,1475.115479,819.621948,1469.958252,816.756958C1464.815186,813.906738,1459.275635,811.839966,1453.523193,810.622681C1446.529053,809.12915,1439.399902,808.356323,1432.248291,808.317871C1427.886719,808.295044,1423.535156,808.291992,1419.172852,808.30896M1058.304443,691.190063C1049.5979,691.431763,1040.96167,692.829468,1032.623779,695.347534C1018.700439,699.612915,1006.203613,707.59729,996.48291,718.439819C995.215088,719.836792,993.987793,721.270142,992.804199,722.739136L984.07251,733.607178C990.986816,736.849854,997.900635,740.044189,1004.851074,743.20752C1008.743408,745.05481,1012.715576,746.729248,1016.756104,748.224854C1017.56543,748.54248,1018.412109,748.755981,1019.273682,748.871948L1019.645996,748.880859L1019.912109,748.827637L1020.080322,748.712402L1020.160156,748.535034C1020.133789,748.351563,1020.081299,748.173828,1020.009521,748.003174C1019.440918,747.11145,1018.760254,746.295654,1017.970703,745.592041C1016.216797,743.881104,1014.404785,742.231079,1012.536621,740.64563L1002.298096,731.798706L1018.812744,720.77124C1031.861816,711.968262,1046.51123,705.808472,1061.930176,702.643188C1070.516357,700.896973,1079.212158,699.741455,1087.956543,699.185913C1091.429199,698.957764,1094.880859,698.47876,1098.283691,697.749878C1099.043945,697.61731,1099.772461,697.335571,1100.420166,696.916626C1100.5,696.831177,1100.589355,696.756348,1100.668457,696.668457C1100.699219,696.583374,1100.733154,696.49939,1100.75708,696.411377C1100.718018,696.277588,1100.668213,696.147583,1100.588623,696.030151C1100.070068,695.594849,1099.462158,695.278687,1098.806885,695.108276L1098.398926,694.97522C1095.178711,694.114746,1091.898438,693.49585,1088.585938,693.122559C1081.660645,692.210571,1074.702881,691.571655,1067.727539,691.207764C1064.587646,691.088623,1061.444824,691.081787,1058.304443,691.190063M1083.151855,808.344482C1077.124268,808.314209,1071.104492,808.790894,1065.156738,809.771606C1060.130127,810.573486,1055.274902,812.218994,1050.796143,814.638306C1045.794434,817.481323,1041.460693,821.362061,1038.084473,826.020386C1036.598877,828.276855,1035.56543,830.799927,1035.034912,833.448975C1034.292725,837.18042,1033.822266,840.960693,1033.625488,844.760132C1033.063232,851.976685,1032.80249,859.213501,1032.845459,866.451782C1032.821045,868.531006,1032.991699,870.607544,1033.341797,872.656982C1033.429932,873.036011,1033.553467,873.405518,1033.723145,873.756226C1033.792969,873.837402,1033.868896,873.911865,1033.94458,873.986694C1034.029541,873.993774,1034.113037,874.009888,1034.20166,874.004395C1034.296631,873.943848,1034.394043,873.88855,1034.476563,873.809448C1037.698975,870.005371,1040.838623,866.129883,1043.890625,862.187988C1047.839355,857.10437,1051.834717,852.057373,1055.875732,847.047241C1060.223877,841.712524,1064.980469,836.724121,1070.103271,832.128174C1075.380859,827.601807,1081.003174,823.493896,1086.919434,819.841797C1089.278564,818.354614,1091.660645,816.903198,1094.064209,815.489258L1106.093506,808.362183C1098.455322,808.314453,1090.790527,808.308594,1083.151855,808.344482M1142.358398,803.362549C1142.059082,803.38623,1141.762451,803.437012,1141.472168,803.513306C1138.80127,804.251221,1136.208252,805.245483,1133.724365,806.473999C1127.158936,809.609375,1120.750732,813.064331,1114.523682,816.827881C1107.067139,821.205811,1099.841309,825.966553,1092.876465,831.090942C1088.666016,834.224731,1084.736084,837.718872,1081.130859,841.533447C1075.61792,847.126465,1070.837891,853.396851,1066.903076,860.193359C1061.762207,869.265381,1058.503418,879.281494,1057.320557,889.641602C1056.856201,893.578003,1056.628662,897.538696,1056.637939,901.502319L1056.62915,921.172852L1063.880371,919.355713C1066.158203,918.711304,1068.39624,917.932983,1070.582031,917.024292C1083.882813,911.598145,1096.88208,905.460815,1109.52417,898.63916C1111.203857,897.763184,1112.807373,896.748291,1114.319824,895.607422L1114.523682,895.421265L1114.665527,895.261719C1114.709229,895.182617,1114.744141,895.099365,1114.771973,895.01355C1114.715576,894.934937,1114.643066,894.875244,1114.568115,894.818481C1114.393555,894.770508,1114.217529,894.735474,1114.044922,894.685547C1113.791016,894.674805,1113.536865,894.665527,1113.282715,894.676636C1111.400879,894.868164,1109.549316,895.287598,1107.768799,895.926514C1104.486572,897.151123,1101.070801,897.981812,1097.592285,898.39978C1094.030762,898.91394,1090.437988,899.18457,1086.8396,899.206421L1074.624268,899.206421L1076.335205,886.725098C1078.158203,873.279297,1083.145508,860.457642,1090.890625,849.316528C1095.885742,842.163818,1101.732666,835.645264,1108.300781,829.903076C1114.840332,824.172852,1121.860107,819.014893,1129.283203,814.487549C1133.600098,811.897705,1137.750488,809.040039,1141.711426,805.933228C1142.43335,805.388428,1143.078613,804.749268,1143.63501,804.036255C1143.665527,803.943848,1143.714844,803.861694,1143.750244,803.770264L1143.750244,803.66394L1143.706055,803.593018L1143.537598,803.468872L1143.315918,803.38916L1143.050049,803.344849L1142.721924,803.335938L1142.358398,803.362549M1376.481201,800.915894L1376.224121,800.933716C1376.091797,800.964722,1375.961914,801.003296,1375.833984,801.04895C1375.773682,801.09436,1375.71875,801.14624,1375.674316,801.208496C1375.689697,801.286621,1375.707275,801.364136,1375.736572,801.438965L1375.833984,801.5896C1377.099121,802.936646,1378.500244,804.148315,1380.009277,805.21521C1383.871094,808.109985,1387.832764,810.86853,1391.887695,813.485962C1400.615479,819.085449,1408.795898,825.496338,1416.318604,832.633423C1422.198975,838.234009,1427.460449,844.450684,1432.008789,851.178101C1438.261963,860.414795,1442.656006,870.781372,1444.942383,881.698853C1445.487549,884.3927,1445.901855,887.11145,1446.18335,889.845459L1447.663818,904.144043L1437.283203,901.803833C1429.783203,899.99939,1422.378418,897.821777,1415.095215,895.279419L1403.278809,891.104248L1408.411377,896.866211L1408.695068,897.167603C1410.470215,898.834106,1412.404541,900.321899,1414.46582,901.617676C1425.64209,908.900879,1437.68457,914.758179,1450.314209,919.054199C1452.088623,919.683105,1453.912598,920.160522,1455.765869,920.490356C1457.042236,920.675171,1458.341309,920.645752,1459.604248,920.383911C1460.291504,920.242798,1460.916504,919.881836,1461.359375,919.337891L1461.581055,919.04541C1461.726318,918.814331,1461.840088,918.56665,1461.953369,918.318481C1462.414063,916.953125,1462.678711,915.529785,1462.742432,914.090088C1463.071777,908.079224,1463.101074,902.055542,1462.831055,896.041748C1462.088135,881.692017,1458.193115,867.681519,1451.422363,855.007568C1444.155029,841.516846,1433.736328,829.982544,1421.052246,821.384277C1416.676514,818.575562,1412.164551,815.983765,1407.533691,813.618896C1400.33252,809.82605,1392.932129,806.425781,1385.363281,803.433472C1383.087891,802.512085,1380.750977,801.750488,1378.369141,801.155273C1377.753662,800.990845,1377.118164,800.909424,1376.481201,800.915894M1340.06543,790.24292C1339.993652,790.294312,1339.923828,790.3479,1339.861572,790.411377C1339.830566,790.517944,1339.794678,790.623047,1339.763916,790.730469C1339.767578,790.887451,1339.772461,791.044189,1339.790527,791.200317C1340.074463,792.368652,1340.510254,793.494873,1341.084717,794.551147C1343.390381,798.894287,1345.92627,803.110718,1348.681641,807.183228C1351.554199,811.447388,1354.393311,815.741699,1357.19165,820.054565C1361.097656,826.060547,1364.580566,832.331543,1367.616455,838.820923C1370.030273,843.975342,1371.826416,849.396851,1372.970703,854.972168C1374.192627,861.385986,1374.342285,867.958252,1373.413818,874.421021C1372.395508,881.937866,1370.35498,889.28064,1367.350586,896.245728C1362.030029,908.878662,1354.836914,920.637573,1346.013428,931.127808L1338.203857,940.320435C1333.650146,937.627686,1329.051025,934.934692,1324.472656,932.280273C1321.562744,930.55481,1318.539307,929.02832,1315.421875,927.714966C1314.81958,927.469116,1314.188965,927.300415,1313.54248,927.227417C1313.455322,927.252075,1313.376953,927.291992,1313.303223,927.342651L1313.2854,927.422485L1313.320801,927.732666L1313.409668,928.113892L1313.569092,928.565918C1314.452148,930.518799,1315.513184,932.38623,1316.742676,934.141724C1323.263672,943.75061,1330.735352,952.677734,1339.045898,960.788696C1340.685547,962.385742,1342.425537,963.876465,1344.258301,965.247559C1344.713379,965.605469,1345.227051,965.883179,1345.782959,966.04541C1345.914063,966.022461,1346.043213,965.993042,1346.173096,965.965698C1346.417969,965.855835,1346.662109,965.74353,1346.891113,965.602173L1347.166016,965.407227C1348.82373,964.063965,1350.32251,962.536011,1351.642578,960.859619C1355.760986,955.793091,1359.581787,950.491943,1363.08667,944.983154C1366.698486,939.450928,1370.035645,933.744019,1373.085938,927.883423C1377.895752,918.443726,1381.651123,908.502808,1384.281982,898.240234C1386.681396,888.89563,1387.67334,879.244873,1387.224854,869.607544C1386.577881,857.806519,1383.535156,846.26062,1378.280518,835.67395C1374.02417,827.135986,1368.74707,819.146484,1362.563721,811.88147C1357.339355,805.733887,1351.797607,799.863037,1345.960205,794.294067C1344.563477,792.929077,1343.037842,791.703003,1341.403809,790.633057C1341.096191,790.432617,1340.755127,790.284668,1340.393311,790.22522L1340.216064,790.216431L1340.06543,790.24292M1190.209473,786.971924C1188.529541,787.96228,1186.930176,789.083618,1185.431641,790.331665C1178.664063,795.786011,1172.281738,801.700806,1166.328369,808.03418C1154.561768,821.079224,1145.767578,836.521606,1140.550049,853.296753C1138.038086,861.435303,1136.877686,869.931396,1137.110596,878.445557C1137.410889,891.239624,1139.739502,903.904419,1144.007324,915.96936C1147.454346,926.022949,1152.281982,935.548584,1158.350342,944.274048C1161.875244,949.251831,1165.886963,953.866699,1170.326172,958.049561C1172.84668,960.575317,1175.519775,962.94397,1178.331055,965.141235C1178.781738,965.512207,1179.287109,965.810913,1179.829102,966.02771L1179.944336,966.04541C1180.048584,966.027954,1180.143311,965.98999,1180.24585,965.974487C1180.381592,965.923706,1180.507324,965.853638,1180.635742,965.78833C1182.058105,964.825195,1183.369385,963.70752,1184.545166,962.455322C1188.860107,958.046265,1192.946289,953.418823,1196.787109,948.591064C1200.077148,944.599487,1203.157227,940.438965,1206.015137,936.127441C1206.437744,935.471802,1206.844482,934.80603,1207.238525,934.132935L1212.140625,925.693848L1184.6604,940.639526C1181.527832,937.022217,1178.421143,933.371216,1175.352539,929.700684C1166.738037,919.156372,1160.191406,907.081543,1156.054199,894.109253C1154.427979,889.000488,1153.398682,883.720337,1152.987061,878.374634C1152.466797,866.878418,1154.279785,855.395752,1158.314697,844.618286C1160.940186,837.628296,1164.163818,830.877808,1167.950684,824.442505C1172.658691,816.412476,1177.786621,808.636719,1183.312988,801.146362C1187.653809,795.214111,1192.088379,789.345459,1196.609863,783.550171L1190.209473,786.971924M1344.205078,650.891724C1339.286621,650.988281,1334.374023,651.293091,1329.480957,651.804688C1323.251465,652.4646,1317.133545,653.928955,1311.281982,656.166138C1304.5979,658.839722,1298.439697,662.675659,1293.092041,667.494995C1287.580566,672.444214,1282.641602,677.995117,1278.36792,684.045288C1275.814209,687.630981,1273.836182,691.593872,1272.508301,695.790771C1271.915039,697.74939,1271.48584,699.753784,1271.2229,701.783325L1269.707031,713.404785L1280.752441,699.505127C1284.952393,694.146851,1289.706543,689.246826,1294.935791,684.887329C1299.479492,681.091553,1304.519287,677.932251,1309.916992,675.499756C1315.472168,672.991211,1321.458008,671.574585,1327.548584,671.324585C1334.371826,671.10437,1341.156494,672.429077,1347.396484,675.198364C1350.512451,676.535645,1353.506592,678.141113,1356.34082,680.00293C1357.297363,680.625,1358.1604,681.382202,1358.884766,682.263428C1359.253418,682.708984,1359.47876,683.251465,1359.558594,683.823608L1359.531982,684.187012L1359.43457,684.523926C1359.24585,684.890869,1358.988281,685.215332,1358.680908,685.490112C1357.614502,686.259521,1356.406494,686.811279,1355.126221,687.112427C1353.126465,687.659058,1351.095947,688.085938,1349.045166,688.388916C1344.908936,689.359375,1340.866211,690.691284,1336.962646,692.369141C1329.567139,695.494141,1322.34668,699.018921,1315.333252,702.926758C1307.2771,707.337769,1299.432373,712.123779,1291.824219,717.269653C1290.29126,718.28479,1288.826416,719.399292,1287.436279,720.602783C1287.310791,720.780884,1287.154053,720.934814,1286.984131,721.072632L1286.904541,721.187866L1286.842285,721.294189L1286.824707,721.374023L1286.833496,721.436035C1286.910889,721.463989,1286.990234,721.482788,1287.072754,721.489258L1287.223633,721.471558C1287.359863,721.434082,1287.49585,721.396729,1287.631348,721.356323C1297.510986,717.635376,1307.305664,713.893921,1317.150391,710.080566C1328.474365,705.672974,1340.051514,701.946167,1351.819824,698.920044C1360.975098,696.518433,1370.301514,694.826538,1379.716553,693.858276C1383.587891,693.531128,1387.470703,693.359375,1391.355957,693.344238C1394.029541,693.289185,1396.693359,692.999146,1399.316162,692.475464C1399.708496,692.378662,1400.095459,692.26123,1400.477539,692.129761L1400.903076,691.943604L1401.213379,691.748535L1401.399414,691.553589L1401.461426,691.34082C1401.43042,691.131836,1401.397705,690.923218,1401.337402,690.720215C1400.470947,688.408081,1399.455322,686.154785,1398.296875,683.974365C1396.91626,681.150635,1395.376709,678.407227,1393.687256,675.756836C1391.48584,672.473755,1388.750977,669.581299,1385.593994,667.202515C1382.077637,664.60376,1378.361084,662.288208,1374.477783,660.279297C1370.12207,657.917847,1365.661865,655.755737,1361.109863,653.799316C1356.498047,651.846436,1351.535889,650.855347,1346.527588,650.882813C1345.753418,650.86853,1344.979004,650.872559,1344.205078,650.891724M1191.911621,650.678955C1185.375977,650.7229,1178.867432,651.523071,1172.515869,653.063477C1162.341309,655.591553,1153.041992,660.834595,1145.611816,668.230835C1142.108887,671.706665,1138.891113,675.458618,1135.993652,679.453369C1132.793457,683.64563,1129.730469,687.941772,1126.810059,692.333618C1126.553467,692.705933,1126.340576,693.105835,1126.162842,693.521484L1126.145264,693.592407C1126.173096,693.635254,1126.208252,693.671021,1126.242676,693.707642C1126.494141,693.808472,1126.756104,693.880615,1127.022705,693.929199C1129.568359,694.304565,1132.135742,694.517578,1134.708496,694.567505C1138.311523,694.732544,1141.91626,694.827515,1145.523193,694.851196C1156.285156,694.939941,1166.984375,696.505493,1177.320557,699.505127C1185.802979,701.950073,1194.155518,704.82605,1202.345215,708.12146C1211.482666,711.803345,1220.571533,715.600342,1229.612549,719.512451C1234.056641,721.433838,1238.547119,723.249023,1243.077881,724.955322C1243.279053,725.019531,1243.476318,725.092041,1243.680664,725.141479L1243.77832,725.150269C1243.80542,725.123169,1243.835693,725.098755,1243.85791,725.061646C1243.74585,724.845459,1243.611572,724.641724,1243.450195,724.458862C1240.943115,721.80835,1238.28833,719.30188,1235.498779,716.950562C1231.246582,713.272461,1226.725586,709.917358,1221.971436,706.915894C1211.490723,700.126953,1200.435791,694.268555,1188.933105,689.408325C1185.371338,687.882446,1181.692383,686.646851,1177.932129,685.711792L1167.578369,683.371582L1177.524414,679.001343C1182.407715,676.957153,1187.577881,675.682617,1192.851074,675.216064C1200.505859,674.437256,1208.237793,674.989014,1215.704102,676.847168C1218.85498,677.623169,1221.914795,678.729004,1224.834717,680.144775C1228.116943,681.979736,1231.214355,684.128174,1234.080322,686.562744C1239.974121,691.348267,1245.391846,696.691772,1250.258301,702.519043C1251.689697,704.207031,1252.927979,706.049927,1253.945801,708.015015C1254.093506,708.3479,1254.220459,708.689209,1254.335938,709.034546C1254.385254,709.224243,1254.419434,709.417358,1254.451172,709.610718C1254.468994,709.844727,1254.493408,710.078125,1254.522217,710.311035L1254.681641,710.71875L1254.929932,711.091064L1255.257813,711.419067L1255.647949,711.685059L1256.100098,711.888916C1256.437256,712.003418,1256.790527,712.051636,1257.145996,712.066162C1257.375488,712.045288,1257.598145,711.984619,1257.810791,711.897705L1258.112305,711.693848C1258.670898,711.115479,1259.058838,710.391479,1259.211426,709.601807C1259.681641,707.578369,1259.843018,705.495605,1259.698975,703.423218C1259.408447,696.318481,1257.552734,689.366333,1254.265137,683.061279C1250.02832,675.030762,1243.901123,668.151367,1236.411865,663.018433C1229.83667,658.509644,1222.518311,655.194946,1214.791016,653.231934C1207.320068,651.32251,1199.619629,650.462402,1191.911621,650.678955M1387.686035,705.78125C1382.69043,705.819702,1377.699707,706.100586,1372.731445,706.623291C1371.187988,706.75061,1369.66333,707.05249,1368.192627,707.536377C1368.002441,707.647705,1367.807617,707.751587,1367.616455,707.86438C1367.563232,707.940674,1367.504395,708.012573,1367.457031,708.094849L1367.457031,708.210083L1367.501221,708.334229L1367.598877,708.458252C1368.065186,708.698608,1368.568604,708.861938,1369.088135,708.937012C1373.32251,709.812134,1377.590088,710.521851,1381.879639,711.064453C1385.966064,711.560913,1390.042236,712.142944,1394.10376,712.810791C1407.377441,715.136475,1420.122314,719.839355,1431.725098,726.692749C1440.81958,732.096802,1448.970215,738.951538,1455.854492,746.983765C1463.378174,755.594116,1470.258301,764.745972,1476.438232,774.366455C1478.05835,776.876221,1479.510254,779.490601,1480.781738,782.19397C1481.288574,783.187134,1481.609863,784.266113,1481.712646,785.376343L1481.686035,785.535889L1481.606201,785.668823C1481.512207,785.735229,1481.412598,785.790039,1481.313721,785.846191C1481.152344,785.880249,1480.989746,785.907471,1480.826172,785.925903C1480.604492,785.918335,1480.382568,785.90686,1480.161377,785.890503C1477.905029,785.469971,1475.700684,784.80896,1473.58374,783.922485C1468.607666,781.948242,1463.731934,779.729614,1458.974854,777.274048C1454.578369,775.024414,1450.066162,773.008911,1445.456299,771.237305C1440.526611,769.49585,1435.4375,768.24353,1430.262451,767.49646C1423.108887,766.48584,1415.928955,765.672974,1408.730469,765.058716C1396.906006,764.062744,1385.074707,762.947754,1373.272217,761.716675C1365.196289,760.875977,1357.156006,759.722778,1349.169189,758.259521C1338.827637,756.341797,1328.796875,753.015991,1319.357666,748.375488C1316.411133,746.957642,1313.494629,745.480469,1310.608398,743.943237L1290.556641,733.332275L1312.744629,754.988525C1320.388916,762.499268,1328.536865,769.479858,1337.131104,775.882324C1339.787354,777.921875,1342.606689,779.739624,1345.561523,781.316284C1349,782.831665,1352.550293,784.07959,1356.181152,785.04834C1363.515625,787.043701,1370.936768,788.703003,1378.422363,790.021362C1394.169922,792.813965,1410.018799,794.987183,1425.936523,796.536865C1432.877686,797.174561,1439.772949,797.833862,1446.706299,798.522461C1454.099854,799.257813,1461.442139,800.444702,1468.69043,802.077148C1474.084229,803.269043,1479.316406,805.102417,1484.274414,807.53772C1489.425049,810.160767,1494.066162,813.681763,1497.979004,817.935913L1504.432617,824.83252L1505.256836,812.43103C1505.811035,803.403564,1504.839355,794.34729,1502.384766,785.642212C1499.428467,775.157104,1494.791992,765.220459,1488.653564,756.220703C1475.36499,736.59668,1456.454102,721.450562,1434.402344,712.766479C1426.595459,709.7052,1418.435303,707.636353,1410.113281,706.605591C1405.273438,706.111572,1400.413574,705.839478,1395.548828,705.790039C1392.927979,705.74585,1390.306885,705.742798,1387.686035,705.78125M1135.497314,704.451538C1129.998291,704.535034,1124.508545,704.929688,1119.053467,705.630493C1112.708252,706.381592,1106.416504,707.534302,1100.216309,709.078857C1093.30835,710.834229,1086.634033,713.406006,1080.333008,716.737793C1068.230957,723.100464,1057.365723,731.578979,1048.252197,741.771362C1038.797119,752.323975,1031.102051,764.32959,1025.461182,777.327271C1020.181396,789.466797,1016.668457,802.300171,1015.027588,815.436157L1013.077393,831.028931C1017.415771,827.071777,1021.800049,823.114502,1026.179199,819.203613C1029.722656,816.016846,1033.523926,813.129028,1037.543701,810.569458C1042.691406,807.386108,1048.254639,804.929932,1054.076172,803.273926C1060.307861,801.519531,1066.651611,800.192383,1073.063965,799.302612C1082.830322,797.921997,1092.631592,796.810547,1102.458984,795.969482C1113.865479,794.941772,1125.252686,793.670532,1136.605469,792.157715C1143.809814,791.21936,1150.952637,789.854858,1157.995605,788.071167C1165.982178,785.94873,1173.700195,782.921387,1180.999268,779.046997C1190.155273,774.391724,1198.970947,769.095215,1207.380371,763.197144C1213.080078,759.21875,1218.36377,754.674683,1223.150391,749.634277C1224.998535,747.661621,1226.713623,745.567993,1228.282959,743.367065L1234.28418,734.945679C1230.514893,737.303101,1226.719727,739.641724,1222.919922,741.94873C1215.123779,746.484741,1206.799316,750.045166,1198.134521,752.550781C1189.29834,755.09436,1180.289063,756.989868,1171.177246,758.224121C1162.981445,759.360474,1154.750488,760.2323,1146.498291,760.839111C1130.780518,762.161865,1115.151123,764.375854,1099.684326,767.469849C1090.748779,769.264771,1081.932129,771.608887,1073.285645,774.490601C1068.41333,776.115601,1063.65918,778.076172,1059.058105,780.359009L1045.415527,787.282227C1047.892578,782.667847,1050.403076,778.055786,1052.932617,773.471191C1056.238281,767.716553,1059.811523,762.119507,1063.641113,756.699341C1066.541748,752.466675,1069.60791,748.350464,1072.833496,744.359863C1077.983398,738.308105,1083.929199,732.981934,1090.509521,728.52771C1103.671143,719.491821,1118.666992,713.477173,1134.424805,710.913818C1137.29834,710.512939,1140.18042,710.170044,1143.067627,709.885498C1145.736084,709.638184,1148.390625,709.255371,1151.019287,708.733154C1151.498535,708.619385,1151.968506,708.469238,1152.419922,708.272095C1152.541992,708.202393,1152.655273,708.119629,1152.765625,708.032837C1152.822021,707.956909,1152.866943,707.873901,1152.898438,707.784546L1152.880859,707.651611C1152.82959,707.552124,1152.76001,707.466431,1152.69458,707.376831L1152.526123,707.226074C1151.111816,706.36853,1149.561768,705.758423,1147.943115,705.417725C1145.041016,704.81665,1142.08667,704.504395,1139.123047,704.478149C1137.914795,704.438721,1136.706055,704.431152,1135.497314,704.451538M1297.169678,760.183105C1301.753906,766.322388,1305.801514,772.844604,1309.269775,779.676392C1314.906494,790.927124,1318.257813,803.183838,1319.127197,815.737549C1319.760742,823.66272,1319.585449,831.63147,1318.604248,839.52124C1317.26709,849.510498,1313.753174,859.085083,1308.3125,867.568726C1305.415283,872.131104,1302.195313,876.47998,1298.676514,880.581909C1293.625977,886.469971,1288.29541,892.111084,1282.702637,897.486694L1261.152832,918.486938L1241.969971,898.1604C1236.174072,892.119263,1230.719971,885.759277,1225.632324,879.110474C1221.56543,873.797119,1218.026855,868.099487,1215.065918,862.099243C1211.20166,854.063354,1208.862793,845.379272,1208.169189,836.489502C1207.26416,824.621826,1208.114746,812.685791,1210.695557,801.06665C1213.057129,790.944946,1216.9021,781.228149,1222.104248,772.230103C1223.921875,769.177368,1225.759277,766.148315,1227.626953,763.126221C1229.19043,760.572632,1230.585693,757.919678,1231.802246,755.183472C1232.081787,754.638306,1232.260254,754.046387,1232.325195,753.437256C1232.311523,753.358032,1232.31543,753.278931,1232.298584,753.197876L1232.254395,753.126953L1232.130127,753.03833L1231.96167,753.02063C1231.814209,753.043823,1231.67749,753.099121,1231.536133,753.144653C1231.353027,753.25769,1231.171875,753.373169,1230.986572,753.481567C1229.5625,754.639038,1228.261963,755.94043,1227.104004,757.364258C1223.029541,762.211792,1219.186768,767.249634,1215.588867,772.460571C1208.815918,781.968994,1202.526367,791.812378,1196.742676,801.953125C1193.132568,808.425293,1189.969482,815.13623,1187.275391,822.040283C1185.255859,827.498413,1184.144287,833.251343,1183.986572,839.069092C1183.740723,844.55896,1183.814697,850.058228,1184.208252,855.539551C1184.670898,861.194092,1186.043213,866.737549,1188.268311,871.956665C1190.476074,877.331177,1193.02832,882.557129,1195.909424,887.602661C1200.168701,894.677979,1205.023193,901.377563,1210.420898,907.627808C1220.27124,919.252075,1231.465576,929.666748,1243.769287,938.653809C1247.527588,941.321777,1251.377197,943.858276,1255.311035,946.259644C1256.565186,947.056763,1257.925293,947.674683,1259.353271,948.085815C1259.658691,948.14978,1259.964111,948.211426,1260.275146,948.23645L1260.709717,948.263062C1260.99707,948.247437,1261.283936,948.220947,1261.56958,948.183228C1262.6875,947.920532,1263.747314,947.451538,1264.680908,946.782715C1268.190674,944.373169,1271.620605,941.848145,1274.963867,939.21228C1286.379883,930.36145,1297.293701,920.882568,1307.656494,910.819092C1311.068848,907.528931,1314.311768,904.067383,1317.37207,900.44751C1322.477295,893.877319,1327.079346,886.931763,1331.138672,879.668945C1334.273926,874.053345,1336.615967,868.029785,1338.097412,861.771362C1339.239014,856.604248,1339.861816,851.336304,1339.958984,846.045532C1340.111084,840.991333,1340.022705,835.932861,1339.693115,830.887085C1339.27124,825.139771,1337.878906,819.505981,1335.579834,814.22168C1332.155029,806.220581,1328.220947,798.44812,1323.798828,790.952148C1317.706543,780.791626,1310.580078,771.288818,1302.532715,762.59436L1286.354736,745.485718L1297.169678,760.183105"/>
</svg>
