<?xml version="1.0" encoding="UTF-8"?>
<svg xmlns="http://www.w3.org/2000/svg" width="400.038mm" height="289.751mm" viewBox="-1397.276611 -540.116455 400.037842 289.750732">
    <path transform="matrix(-1,0,0,-1,0,0)" style="stroke:none;fill:#000000;fill-rule:evenodd" d="M1049.366211,539.834961C1048.691406,539.667847,1047.034912,538.97937,1045.685303,538.305054C1044.335571,537.630737,1042.329224,536.863281,1041.226807,536.599609C1037.129883,535.619873,1032.195557,532.192932,1030.07373,528.853882C1029.269165,527.587708,1027.729858,525.614014,1026.653076,524.467773C1024.682983,522.370605,1024.012329,520.840271,1023.533936,517.349365C1023.395203,516.337097,1023.107544,515.1698,1022.894775,514.755493C1022.301208,513.599487,1017.575134,511.583191,1014.592102,511.213226C1013.128235,511.031677,1010.230957,510.310364,1008.153625,509.610229C1006.076294,508.910156,1003.284119,508.136292,1001.948669,507.890564C1000.182739,507.565613,999.194519,507.117615,998.324585,506.247742C997.190063,505.11319,997.138184,504.910339,997.315491,502.30484C997.544128,498.945923,999.82959,493.320831,1001.992188,490.794312C1002.963379,489.659698,1004.637573,488.495544,1006.982666,487.324188C1011.813782,484.911102,1012.938599,484.600708,1017.985596,484.287994C1023.337708,483.95639,1023.489563,483.634674,1019.656921,480.746002C1018.16333,479.6203,1016.199585,477.757172,1015.293152,476.605743C1013.268066,474.033447,1011.534424,472.931305,1008.901428,472.542297C1006.665649,472.212006,1004.990173,470.901917,1004.990173,469.483978C1004.990173,468.18222,1006.983032,466.443787,1009.392822,465.643402C1011.399902,464.976746,1011.662048,464.97464,1013.57428,465.609802C1014.696411,465.982513,1015.719482,466.457428,1015.8479,466.665161C1015.976318,466.872894,1016.51709,467.042877,1017.049683,467.042877C1017.79071,467.042877,1018.310059,466.532471,1019.262085,464.86853C1020.98291,461.860779,1021.537781,461.461487,1025.034424,460.714478C1026.719604,460.354462,1028.560059,459.960541,1029.124146,459.839142C1030.452637,459.553131,1033.973755,460.882538,1037.46521,462.988342C1038.985596,463.905304,1041.273071,465.008179,1042.548462,465.439148C1043.82373,465.870117,1045.575195,466.613068,1046.44043,467.090149C1047.765869,467.820953,1048.400024,467.91391,1050.466309,467.680115C1053.218262,467.368774,1054.925049,466.819366,1055.384277,466.097046C1055.903198,465.281067,1055.740845,462.319,1055.092163,460.766541C1054.25,458.750946,1054.348022,456.943054,1055.415771,454.801636C1056.116699,453.395935,1057.234741,452.333832,1060.403809,450.063385L1064.488403,447.136993L1068.04187,441.241364C1071.046021,436.257263,1071.922974,434.36731,1073.713501,429.017517C1075.568726,423.474792,1075.808594,422.383362,1075.646362,420.224121C1075.531982,418.700256,1075.679321,417.134216,1076.032227,416.122925C1076.346313,415.223145,1076.653564,413.382629,1076.715088,412.032959C1076.779663,410.614685,1077.227905,408.629578,1077.777222,407.329529C1080.127319,401.767822,1080.293335,401.179993,1080.022949,399.377258C1079.720825,397.362122,1080.100586,396.424561,1082.144897,394.138245C1082.89978,393.294037,1083.517334,392.362366,1083.517334,392.067932C1083.517334,391.773438,1084.055786,391.134399,1084.713867,390.647888C1085.37207,390.161316,1086.982422,388.119812,1088.292603,386.111206C1089.602783,384.1026,1092.812256,380.16864,1095.424805,377.36908C1099.791626,372.689606,1100.198975,372.117279,1100.473999,370.274689C1100.741821,368.480164,1101.067261,367.992249,1103.584229,365.611938C1105.723999,363.58844,1106.740356,362.223602,1107.839722,359.897552C1108.634155,358.216797,1109.284058,356.630127,1109.284058,356.371582C1109.284058,355.376221,1112.125,346.787537,1113.932983,342.316956C1114.97522,339.739807,1115.828003,337.358154,1115.828003,337.024384C1115.828003,336.690582,1116.278076,334.934143,1116.828003,333.121155C1119.33252,324.865906,1120.69519,318.373108,1120.953491,313.465027C1121.098511,310.707825,1121.543823,307.392059,1121.969604,305.89859C1122.386353,304.436432,1122.914429,301.76001,1123.142944,299.950958C1123.371582,298.141907,1124.063477,295.105133,1124.680786,293.202515C1126.036621,289.023163,1126.121094,285.814026,1125.094971,277.473389C1124.70752,274.324127,1124.232666,270.471497,1124.039795,268.911957C1123.576904,265.169312,1123.185181,264.890381,1118.882568,265.239471L1115.586548,265.506927L1112.556763,262.901245C1107.676147,258.703979,1106.830078,257.792786,1106.830078,256.733673C1106.830078,255.096863,1107.68457,254.416992,1111.533569,252.991531C1121.458862,249.315674,1133.508423,249.506546,1141.594727,253.467712C1143.703857,254.500854,1143.841553,254.658981,1143.802246,256.001129C1143.779053,256.788452,1143.446655,258.536896,1143.063354,259.886597C1142.121948,263.201752,1142.251099,276.643768,1143.230713,277.305695C1143.573853,277.537537,1144.890747,277.622498,1146.218506,277.498474C1148.348633,277.29953,1148.695557,277.379547,1149.592651,278.276703C1150.244141,278.928253,1150.594849,279.746338,1150.598999,280.624512C1150.602539,281.365814,1150.87207,283.07663,1151.197998,284.426331C1151.523926,285.776001,1151.797119,287.926575,1151.805054,289.205383C1151.824829,292.352112,1152.303467,293.407776,1154.678589,295.543213C1155.873169,296.61731,1156.855713,297.913147,1157.073486,298.701721C1157.496582,300.233948,1157.102905,303.42157,1155.932129,307.943573C1154.293213,314.273682,1153.47876,323.292999,1153.254395,337.595764C1153.180298,342.319641,1152.973511,347.380981,1152.7948,348.84314C1151.994263,355.393433,1152.888428,356.615112,1159.795044,358.407227C1161.144775,358.757446,1163.900879,359.603821,1165.919678,360.288147C1168.742065,361.244781,1170.175781,361.507477,1172.123779,361.424896C1174.232666,361.33551,1174.817139,361.463867,1175.610596,362.190735C1176.839233,363.316193,1177.380493,363.460083,1182.289795,363.966309C1184.539307,364.198303,1187.852173,364.585388,1189.651733,364.826538C1193.922119,365.398743,1194.540771,365.461609,1202.739624,366.156128C1207.358154,366.547424,1210.455444,367.018921,1211.964722,367.560669C1213.214478,368.009186,1215.054932,368.506439,1216.054688,368.665649C1219.334106,369.187988,1224.315186,370.555969,1225.921753,371.37561C1226.788696,371.817871,1228.410522,372.352783,1229.525757,372.564331C1230.640991,372.775818,1232.276367,373.427246,1233.159912,374.011963C1237.403809,376.820374,1242.202393,376.66217,1242.833496,373.693024C1243.207031,371.935547,1244.0354,371.054321,1246.479004,369.815186C1248.15332,368.966156,1248.856445,368.832886,1250.56897,369.039856C1253.778198,369.427734,1258.566162,371.227478,1260.595825,372.808746C1262.475586,374.273193,1263.682861,374.398804,1265.041382,373.271301C1265.723022,372.705627,1268.170166,367.845551,1268.535278,366.332703C1268.716309,365.582825,1269.327393,364.946686,1270.385132,364.407043C1272.74939,363.200867,1275.067627,360.289734,1277.688477,355.235748C1280.111328,350.563721,1282.019043,348.281433,1286.79248,344.344177C1288.019775,343.331909,1289.855225,341.671387,1290.871216,340.654144C1293.917236,337.604553,1303.247559,331.411865,1311.457031,326.990967C1313.440063,325.923035,1315.648682,324.538208,1316.36499,323.913544C1317.081299,323.288879,1318.127441,322.639404,1318.689941,322.470337C1319.252197,322.301208,1321.368774,321.464478,1323.393311,320.610901C1325.417847,319.757324,1328.215698,318.763824,1329.61084,318.403107C1334.872803,317.042603,1335.477417,316.651337,1342.297852,310.193054C1343.723267,308.843384,1345.551025,307.133636,1346.359619,306.393646C1347.787354,305.086945,1347.821533,304.986877,1347.547607,302.917175C1347.392578,301.745117,1346.909668,299.98056,1346.474609,298.995941C1346.039551,298.011292,1345.683594,296.396942,1345.683594,295.408447C1345.683594,293.301575,1345.592041,293.246521,1340.431641,292.250916C1336.304443,291.45462,1335.02771,290.881714,1334.387451,289.538757C1334.119263,288.976379,1333.330322,287.340118,1332.634277,285.902588C1331.16748,282.873322,1331.063477,281.761841,1332.154541,280.774475C1332.856689,280.139069,1333.695313,280.084625,1340.02771,280.263306C1343.925781,280.373291,1348.195313,280.651886,1349.515503,280.882385C1351.060547,281.152161,1352.281494,281.162567,1352.94165,280.91156C1353.861084,280.562012,1353.939697,280.363708,1353.699829,278.997498C1353.552612,278.159241,1353.16748,275.29129,1352.843994,272.624268C1352.520386,269.957275,1352.019287,267.488739,1351.730347,267.138611C1350.858765,266.082458,1348.139648,265.093079,1344.252075,264.417603C1339.409546,263.576202,1338.605225,262.962921,1338.255493,259.845276C1338.106689,258.518311,1337.855103,256.579895,1337.696411,255.537689C1337.295654,252.903839,1338.16333,252.080841,1341.745361,251.697235C1344.209717,251.433319,1353.700073,251.685669,1358.566895,252.144485C1359.69165,252.250519,1362.579102,252.383484,1364.983521,252.439941C1367.387939,252.496399,1369.470825,252.658356,1369.612305,252.799805C1369.753784,252.941284,1370.040039,259.010834,1370.248535,266.28772C1370.66333,280.771484,1371.014404,285.915436,1372.028564,292.366455C1372.413086,294.811798,1372.765869,300.060181,1372.857056,304.690735C1372.981689,311.019226,1373.155518,313.026062,1373.664551,314.010376C1374.540405,315.704163,1374.481201,317.872009,1373.506714,319.782074C1372.555664,321.646362,1371.513794,322.528076,1368.717529,323.835266L1366.65686,324.798584L1366.701904,329.705261L1366.746826,334.612L1364.843262,336.339417C1363.796143,337.28952,1361.587646,338.772461,1359.935303,339.634827C1357.493164,340.909363,1355.639526,342.472656,1350.030151,347.98819C1341.414185,356.460114,1339.468018,358.760925,1338.553955,361.555786C1338.158936,362.763123,1337.287842,364.375183,1336.61792,365.138092C1335.94812,365.901001,1335.0979,367.158844,1334.728516,367.933258C1334.166992,369.111023,1334.148926,369.39801,1334.618652,369.688232C1335.369629,370.152466,1336.232056,369.810791,1337.70813,368.464294C1338.383057,367.848663,1339.633423,367.122131,1340.486938,366.849792C1341.340332,366.577454,1342.891724,365.70343,1343.934326,364.907593C1345.365723,363.814941,1346.388184,363.393646,1348.108643,363.187439C1349.361694,363.037231,1350.897095,362.577362,1351.520386,362.165497C1352.32373,361.634644,1353.11145,361.477997,1354.225708,361.627441C1355.489258,361.796936,1356.429443,361.526459,1359.018311,360.248657C1360.789551,359.374359,1362.540405,358.659027,1362.909058,358.659027C1364.040039,358.659027,1364.551514,359.721771,1364.418945,361.797089C1364.277466,364.012268,1363.856812,363.834167,1368.467041,363.511169C1369.789063,363.418549,1370.410767,363.600494,1371.151978,364.296814C1371.682495,364.795197,1372.493896,365.202942,1372.9552,365.202942C1373.416504,365.202942,1374.257324,365.567383,1374.823486,366.012787C1375.389648,366.458191,1376.338013,367.007019,1376.930908,367.232422C1377.523804,367.457825,1378.168457,368.059692,1378.363647,368.569824C1378.873535,369.90332,1379.935059,370.740784,1382.70874,371.997833C1385.819214,373.407532,1386.949585,374.358154,1389.709229,377.885132C1390.939941,379.457947,1392.105347,380.744812,1392.299072,380.744812C1392.492798,380.744812,1393.067871,381.434998,1393.576904,382.278534C1394.085938,383.12207,1395.113281,384.502991,1395.859741,385.347168C1397.644775,387.365723,1397.759766,389.665466,1396.139404,390.940002C1395.546631,391.40625,1394.914795,391.787659,1394.735107,391.787659C1394.55542,391.787659,1393.483154,392.362854,1392.352295,393.065796C1389.53418,394.817719,1385.549072,395.290009,1382.902222,394.185791C1377.944946,392.117737,1375.58728,391.701904,1367.596313,391.486145C1359.328369,391.262939,1355.307373,391.753113,1351.5271,393.445038C1349.524658,394.341217,1346.691895,396.783936,1345.895874,398.300903C1345.591919,398.880157,1344.5,400.274353,1343.469482,401.399078C1340.446045,404.69873,1339.090332,407.847046,1338.670166,412.544739C1338.184082,417.977661,1337.304688,422.122253,1335.586182,427.077881C1333.071289,434.330505,1331.044312,437.480225,1325.384888,442.930115C1322.321533,445.879974,1320.985352,446.817505,1316.810059,448.946167C1314.089844,450.333038,1310.284424,451.925568,1308.353638,452.485077C1306.422852,453.044556,1303.311523,454.13446,1301.439453,454.907013C1299.567261,455.679565,1297.023315,456.449097,1295.786133,456.617126C1294.548828,456.785095,1292.210815,457.543182,1290.590332,458.301758C1288.969849,459.060333,1287.129395,459.682953,1286.500366,459.685394C1285.871338,459.687836,1284.453247,459.963898,1283.348999,460.298859C1282.237793,460.635986,1279.766602,460.907959,1277.814941,460.907959C1274.722046,460.907959,1270.298218,461.563934,1260.981445,463.404083C1259.562622,463.684326,1247.819214,463.992584,1230.102295,464.214691C1214.37793,464.411804,1199.212036,464.785339,1196.400146,465.04483C1193.588379,465.304291,1187.606689,465.550385,1183.107788,465.591675C1174.557861,465.670135,1174.64978,465.656494,1166.190918,468.099945C1164.310059,468.64328,1161.803467,469.08786,1160.62085,469.08786C1156.472168,469.08786,1151.446655,470.243652,1148.368896,471.90564C1146.780151,472.763611,1143.179565,474.707184,1140.367798,476.224701C1130.442749,481.581085,1129.733887,482.135345,1129.733887,484.539429C1129.733887,485.962738,1128.814209,486.880188,1126.639282,487.626617C1125.364502,488.064148,1124.848267,488.557678,1124.152832,490.003693C1123.645752,491.058258,1122.19812,492.769409,1120.723633,494.057343C1119.32019,495.283142,1114.377686,499.987762,1109.740234,504.512085C1103.001343,511.086731,1100.311768,513.407349,1096.342651,516.071899C1092.58313,518.595703,1090.446899,520.405823,1087.549316,523.522766C1085.444214,525.78717,1081.86499,529.542664,1079.595581,531.868286C1075.501953,536.06311,1075.441895,536.104919,1072.029053,537.136597C1064.692871,539.35437,1053.031128,540.74292,1049.366211,539.834961M1318.406982,369.322754C1321.081055,368.30603,1319.527588,364.022247,1316.472656,363.988983C1313.12439,363.952515,1312.938721,368.207764,1316.23584,369.413086C1317.143311,369.744751,1317.315796,369.737579,1318.406982,369.322754M1228.371826,408.288635C1230.19165,406.641754,1228.52356,403.64856,1225.786011,403.64856C1224.603149,403.64856,1224.079346,403.879578,1223.598511,404.613403C1221.931641,407.157349,1226.086792,410.356598,1228.371826,408.288635M1115.930298,465.490326C1116.913452,464.639709,1116.827148,463.265228,1115.72583,462.233459C1112.737793,459.434448,1109.345947,461.149445,1111.112671,464.565979C1112.150757,466.573212,1114.219604,466.970215,1115.930298,465.490326M1233.118774,417.735718C1234.198364,416.979492,1234.366455,414.679565,1233.411865,413.724976C1231.625854,411.938934,1228.859253,413.041199,1228.978516,415.491333C1229.099609,417.977966,1231.170288,419.100464,1233.118774,417.735718M1322.779785,341.890198C1324.255371,340.414642,1323.596191,338.245911,1321.420776,337.418823C1318.231934,336.20639,1315.919678,340.143372,1318.792114,341.894714C1320.484253,342.926453,1321.744995,342.925018,1322.779785,341.890198M1265.157959,413.030579C1266.817871,412.142151,1266.932495,409.512512,1265.356934,408.46051C1264.461792,407.862793,1262.248535,408.1474,1261.43042,408.965515C1259.106445,411.28949,1262.169434,414.629944,1265.157959,413.030579M1236.481689,401.19458C1238.005127,399.671143,1237.278931,397.785278,1234.893555,397.070618C1231.560181,396.07193,1229.429688,398.777588,1231.811279,400.984894C1233.192261,402.264709,1235.316284,402.360046,1236.481689,401.19458M1140.699951,363.646851C1141.402832,362.738586,1141.011108,360.801697,1139.881226,359.598938C1137.439697,357.000061,1133.657959,360.169434,1135.708008,363.096344C1136.945313,364.862732,1139.537598,365.14859,1140.699951,363.646851M1272.444092,420.637024C1274.296265,419.679199,1274.681885,417.717896,1273.291382,416.327423C1271.468872,414.504913,1267.974365,416.086334,1267.974365,418.733582C1267.974365,421.028473,1270.010376,421.895508,1272.444092,420.637024M1318.839233,351.267426C1320.620605,349.86618,1320.217529,347.913818,1317.995483,347.18045C1316.745361,346.767853,1316.413086,346.811035,1315.475464,347.507874C1314.174561,348.474609,1313.837524,350.476288,1314.811523,351.450317C1315.726929,352.365723,1317.548096,352.283051,1318.839233,351.267426M1331.405029,336.458374C1334.031494,334.688446,1334.029053,331.999573,1331.400757,331.739502C1329.92627,331.593567,1328.431274,332.410522,1327.459961,333.893066C1326.928223,334.704498,1326.901367,335.052856,1327.310913,335.830109C1328.281128,337.67157,1329.359375,337.837036,1331.405029,336.458374M1015.533081,505.669769C1017.390808,504.368561,1016.3703,499.353546,1014.247742,499.353546C1012.312195,499.353546,1009.994385,503.512482,1011.152344,504.907745C1012.309509,506.302032,1014.16864,506.625458,1015.533081,505.669769M1032.311157,487.410858C1033.699463,486.022491,1032.240967,483.811707,1029.936523,483.811707C1028.296875,483.811707,1025.848999,484.527771,1025.848999,485.007416C1025.848999,485.387115,1027.44104,486.834564,1028.507446,487.424377C1029.599121,488.028168,1031.701294,488.020721,1032.311157,487.410858M1324.523193,359.407867C1325.479858,358.276978,1325.860352,356.642456,1325.354858,355.835022C1325.130249,355.476196,1324.300415,355.126953,1323.510864,355.059021C1321.460693,354.882568,1319.414307,356.624268,1319.588257,358.397675C1319.813354,360.692749,1322.901611,361.32489,1324.523193,359.407867M1119.452515,475.493683C1121.035278,474.223511,1120.612671,471.928802,1118.645874,471.114136C1117.130737,470.486542,1115.59436,470.894012,1114.777954,472.140015C1114.219727,472.992004,1114.204346,473.296509,1114.670532,474.268799C1115.62085,476.250641,1117.810303,476.811493,1119.452515,475.493683M1383.665527,380.565796C1384.903076,379.328186,1383.306396,377.079834,1380.730713,376.43338C1379.990723,376.24765,1379.46106,376.415039,1378.847656,377.028381C1377.685913,378.190125,1377.77356,378.95105,1379.237549,380.4151C1380.281494,381.458984,1380.690796,381.616516,1381.78833,381.397003C1382.507446,381.253204,1383.352051,380.87915,1383.665527,380.565796M1262.248535,422.462341C1263.293579,421.417297,1263.284668,420.396118,1262.21875,419.041077C1261.309326,417.884918,1259.585083,417.608887,1258.131592,418.38678C1257.150635,418.911774,1257.066895,421.071777,1257.977173,422.371338C1258.80957,423.559662,1261.102295,423.608521,1262.248535,422.462341M1301.952515,367.279419C1303.564087,365.667786,1303.621338,363.486938,1302.078369,362.476013C1301.129028,361.853943,1300.89209,361.84137,1299.970947,362.364319C1297.712891,363.646088,1296.633179,366.41803,1297.830078,367.860168C1298.678711,368.88269,1300.623169,368.608765,1301.952515,367.279419M1224.180176,398.55249C1226.292603,397.460083,1226.110229,395.230316,1223.811035,394.041382C1222.194214,393.205261,1221.098877,393.26474,1220.121948,394.241638C1219.016479,395.347076,1219.091919,396.929749,1220.307861,398.145691C1221.455811,399.293762,1222.528809,399.406433,1224.180176,398.55249M1311.88623,359.856323C1312.60083,359.29425,1312.963867,358.615295,1312.963867,357.841064C1312.963867,356.486145,1311.335693,354.978088,1309.872681,354.978088C1308.539429,354.978088,1306.419922,356.883392,1306.419922,358.081909C1306.419922,360.466248,1309.740479,361.544189,1311.88623,359.856323M1129.547974,357.655151C1130.766479,356.436646,1130.780762,356.197388,1129.716187,354.843933C1128.823364,353.708893,1126.69104,353.084412,1125.259521,353.538757C1123.999023,353.938843,1123.049072,355.587891,1123.361572,356.833282C1123.864014,358.835022,1127.839844,359.36322,1129.547974,357.655151M1389.466431,389.118713C1390.34375,388.664978,1390.673096,388.197845,1390.673096,387.40683C1390.673096,385.984924,1389.180298,384.425781,1387.818848,384.425781C1386.297729,384.425781,1382.902222,386.663208,1382.902222,387.665527C1382.902222,389.547791,1386.917725,390.436707,1389.466431,389.118713M1268.311035,382.119171C1269.26416,381.035339,1269.283325,379.465424,1268.355225,378.516479C1267.721191,377.868408,1265.068237,378.163574,1263.931885,379.008667C1262.460571,380.102875,1262.375732,381.318298,1263.679688,382.622253C1264.552246,383.494812,1265.003784,383.651794,1266.058838,383.449402C1266.774902,383.312042,1267.788452,382.71344,1268.311035,382.119171M1294.999512,377.9133C1296.583618,376.329285,1296.667236,374.120117,1295.180176,373.145752C1294.233521,372.525452,1294.075439,372.532867,1292.828491,373.256531C1292.093262,373.683228,1291.131836,374.69635,1290.691895,375.507935C1290.023438,376.741333,1289.97168,377.157837,1290.376465,378.046143C1291.085938,379.603455,1293.375244,379.537689,1294.999512,377.9133M1365.081665,281.534149C1365.904907,280.710846,1365.908081,278.531189,1365.087646,277.359894C1364.564087,276.612396,1364.060669,276.450897,1362.253906,276.450897C1359.167969,276.450897,1357.979126,277.887085,1359.190674,280.151093C1360.151733,281.946716,1363.810181,282.805634,1365.081665,281.534149M1129.728027,348.02829C1131.391357,347.138062,1132.258545,340.564026,1130.893066,339.195038C1130.256958,338.557129,1130.144165,338.579834,1129.185303,339.538635C1128.065796,340.658142,1126.87085,344.117249,1126.87085,346.238586C1126.87085,348.055695,1128.163696,348.865479,1129.728027,348.02829M1373.888428,375.350739C1375.535278,373.582916,1374.677368,371.574646,1371.671753,370.161804C1369.499878,369.14093,1368.4646,369.068726,1367.782471,369.890594C1367.106445,370.705139,1367.803711,372.741943,1369.436768,374.723114C1370.922729,376.525879,1372.576294,376.759033,1373.888428,375.350739M1138.316406,331.875549C1140.267578,330.109802,1138.813477,328.060333,1135.356567,327.703552C1133.342285,327.495636,1133.058105,327.567017,1132.451294,328.433228C1131.578613,329.679138,1131.595825,331.194214,1132.493896,332.186584C1133.075562,332.829285,1133.608765,332.943604,1135.350586,332.799164C1136.640991,332.692139,1137.819702,332.325073,1138.316406,331.875549M1182.40332,442.684448C1183.300171,442.056305,1183.584717,440.680481,1182.999268,439.80365C1181.946533,438.22699,1177.795044,437.727356,1176.380981,439.007141C1175.174561,440.098938,1175.378784,442.095245,1176.768311,442.794525C1178.190186,443.51004,1181.311646,443.449066,1182.40332,442.684448M1331.973755,380.994995C1333.166748,379.802002,1333.688965,377.3797,1333.053711,375.985504C1332.66333,375.128723,1332.35437,374.989624,1331.07959,375.096558C1329.883789,375.196899,1329.412354,375.491333,1328.821777,376.50647C1327.928711,378.041748,1327.762573,380.46283,1328.490234,381.33963C1329.260986,382.26828,1330.858398,382.110229,1331.973755,380.994995M1358.669189,309.064087C1359.389893,308.496399,1359.305298,306.081848,1358.53772,305.314331C1358.113037,304.889557,1357.149902,304.6716,1355.697998,304.6716C1353.891235,304.6716,1353.387695,304.833099,1352.864258,305.580597C1351.989746,306.829163,1352.06543,307.650696,1353.147705,308.654419C1354.536011,309.941895,1357.294922,310.146576,1358.669189,309.064087M1135.357544,280.137451C1136.500244,280.130524,1137.913818,278.770447,1137.913818,277.677887C1137.913818,276.049469,1136.496582,275.223907,1133.701172,275.223907C1130.716309,275.223907,1130.142822,275.624481,1130.142822,277.709625C1130.142822,279.700989,1131.505127,280.717285,1133.619385,280.303223C1134.069214,280.215118,1134.85144,280.140533,1135.357544,280.137451M1271.553101,392.201172C1273.043335,391.292572,1273.285889,390.048462,1272.205444,388.854675C1271.327393,387.884338,1268.647583,387.868774,1266.778076,388.82312C1264.789429,389.838257,1264.39563,390.64502,1265.251221,391.950867C1265.855103,392.872437,1266.234131,393.014465,1268.08606,393.013153C1269.495117,393.012146,1270.677002,392.735352,1271.553101,392.201172M1257.105957,378.466919C1257.86792,377.705017,1257.422485,376.579498,1255.996826,375.664368C1254.522949,374.71817,1250.556396,373.733917,1249.393555,374.025787C1248.139771,374.340454,1247.375366,375.540314,1247.725586,376.643768C1248.298096,378.44751,1255.688965,379.883972,1257.105957,378.466919M1358.130859,298.811523C1359.078857,298.118347,1359.086426,296.29068,1358.145752,295.25116C1357.387817,294.413696,1354.809814,294.207977,1352.640137,294.811798C1351.198242,295.213135,1350.662231,296.937012,1351.555664,298.300476C1352.176758,299.248322,1352.505615,299.354675,1354.817261,299.354675C1356.308838,299.354675,1357.699951,299.126648,1358.130859,298.811523M1283.464478,390.791931C1284.889404,390.055084,1286.781494,387.237885,1287.077881,385.411865C1287.299194,384.047638,1286.7229,382.789795,1285.876587,382.789795C1285.044189,382.789795,1279.42627,388.656372,1279.42627,389.525513C1279.42627,391.337036,1281.283936,391.919617,1283.464478,390.791931M1364.824585,270.643158C1365.499268,269.968536,1365.442627,267.658752,1364.737061,267.073242C1364.419067,266.809296,1362.891357,266.487061,1361.342285,266.357178C1359.023926,266.162842,1358.402832,266.244019,1357.830566,266.816254C1356.963623,267.683228,1356.94043,269.037537,1357.772217,270.224976C1358.330444,271.022034,1358.773682,271.133972,1361.371338,271.133972C1363.130127,271.133972,1364.533203,270.93454,1364.824585,270.643158M1137.014038,269.416199C1137.686646,268.74353,1137.630737,267.228363,1136.906494,266.504181C1136.039551,265.637146,1130.138672,264.389618,1129.342407,264.904999C1128.485107,265.45993,1128.606812,268.069519,1129.537964,269.098511C1130.145264,269.769501,1130.801392,269.906982,1133.396484,269.906982C1135.283081,269.906982,1136.717896,269.712311,1137.014038,269.416199M1254.109863,449.456055C1254.290405,449.118652,1254.554199,447.769592,1254.695801,446.45816C1254.925049,444.337158,1255.175781,443.82843,1256.965088,441.852661C1259.186401,439.39978,1259.324219,438.933197,1258.227539,437.578857C1257.654907,436.871704,1257.227905,436.716797,1256.414185,436.921021C1255.053589,437.262512,1254.17749,438.53595,1252.081177,443.219421C1250.335938,447.118744,1250.012207,448.917175,1250.896851,449.801697C1251.563477,450.468384,1253.690552,450.239594,1254.109863,449.456055M1137.932739,352.999939C1138.859375,352.249634,1139.374268,349.74469,1140.223267,341.855743C1140.511353,339.178864,1139.957764,337.800232,1138.594727,337.800232C1137.017822,337.800232,1136.686768,338.561035,1136.686768,342.184631C1136.686768,344.870575,1136.471436,346.117523,1135.664307,348.10379C1134.404541,351.204193,1134.379761,352.294189,1135.550781,353.11438C1136.696899,353.917175,1136.806519,353.911896,1137.932739,352.999939M1352.544434,379.488708C1353.978516,378.96991,1356.5177,378.532166,1359.096069,378.359253C1363.22876,378.082031,1364.062866,377.758698,1364.082153,376.42627C1364.095703,375.487366,1362.938965,374.49826,1361.803955,374.478302C1359.937744,374.445435,1351.805908,375.841858,1349.846436,376.531616C1347.821289,377.244568,1346.861694,378.677856,1347.718506,379.710205C1348.422119,380.558044,1349.758179,380.496735,1352.544434,379.488708M1257.367432,405.679138C1258.27832,405.19165,1258.418701,403.555695,1257.607422,402.882416C1257.304443,402.63092,1255.602051,402.168243,1253.824219,401.854309C1252.046631,401.540375,1249.579834,400.895477,1248.342651,400.421265C1245.441162,399.309082,1243.202393,399.282043,1242.629761,400.352234C1242.293701,400.980164,1242.397339,401.365356,1243.126587,402.197388C1243.838501,403.009674,1244.885498,403.430176,1247.729126,404.045746C1249.753662,404.484009,1252.14624,405.113098,1253.046021,405.443756C1255.028564,406.172241,1256.315063,406.24231,1257.367432,405.679138M1206.651978,400.77121C1207.102539,400.53006,1207.442993,399.917908,1207.442993,399.349121C1207.442993,397.716553,1205.807129,396.991638,1201.367432,396.656799C1199.197754,396.493225,1196.124512,396.227905,1194.537842,396.06723C1192.111816,395.821564,1191.542847,395.885437,1190.959229,396.469086C1190.074463,397.353821,1190.074097,398.490997,1190.95813,399.375092C1191.546143,399.963074,1192.212036,400.032288,1195.354858,399.832031C1198.267456,399.646484,1199.626465,399.757813,1201.717041,400.35321C1204.914307,401.263794,1205.619873,401.323547,1206.651978,400.77121M1353.372437,289.565948C1356.496826,289.203949,1357.953491,288.397888,1357.953491,287.030823C1357.953491,286.620972,1357.510986,285.995728,1356.970215,285.641388C1356.074219,285.054352,1355.760376,285.055786,1353.437744,285.657654C1351.133789,286.254639,1350.588989,286.259064,1347.774902,285.703491C1346.062256,285.365387,1343.832886,284.972229,1342.820557,284.829803C1339.802979,284.405182,1337.692871,285.714325,1339.276489,287.028656C1339.57666,287.277832,1341.187134,287.74826,1342.855225,288.074097C1344.523315,288.399933,1346.624268,288.941833,1347.524048,289.27832C1349.467285,290.005005,1349.54834,290.009003,1353.372437,289.565948M1322.587891,378.557861C1323.429199,377.356689,1323.343506,376.772339,1322.151367,375.580261C1321.166626,374.59549,1320.961914,374.557129,1318.11499,374.823914C1314.576904,375.155457,1314.02478,374.939026,1311.058838,372.057892C1309.559326,370.601349,1308.622314,370.008667,1307.818726,370.008667C1305.786743,370.008667,1304.847778,372.573517,1306.374146,373.954834C1307.262695,374.758972,1310.974121,376.24585,1312.092773,376.24585C1312.508545,376.24585,1313.932983,376.830322,1315.258057,377.544708C1319.835083,380.012207,1321.416138,380.230713,1322.587891,378.557861M1237.678589,442.196411C1238.255859,441.726135,1238.83667,440.358948,1239.37207,438.210388C1240.151978,435.081085,1240.692139,434.053772,1243.437134,430.479187C1245.006226,428.435913,1245.069824,426.720734,1243.601074,426.051575C1241.786865,425.224915,1240.622559,426.260559,1239.129883,430.028778C1238.417114,431.828369,1237.072144,434.681091,1236.141113,436.368225C1234.303101,439.698792,1233.966064,441.779327,1235.152466,442.470398C1236.172607,443.064575,1236.680664,443.00946,1237.678589,442.196411M1005.713806,502.932251C1005.941895,502.651062,1006.353821,501.323029,1006.62915,499.981049C1007.24762,496.966858,1008.945618,495.053406,1011.358704,494.651398C1012.242493,494.504181,1013.447876,494.201141,1014.037292,493.977997C1015.987244,493.239838,1016.556091,490.297577,1014.853394,489.757141C1013.273865,489.255829,1006.815552,492.456451,1005.402649,494.440735C1004.278442,496.019531,1002.12793,500.636108,1002.127563,501.471558C1002.126831,503.061951,1004.743835,504.127899,1005.713806,502.932251M1365.067139,260.671112C1365.491333,259.565643,1365.345581,258.894348,1364.497314,258.046112C1363.807739,257.356506,1363.134033,257.228119,1360.204956,257.228119C1358.294067,257.228119,1354.035889,256.933929,1350.74231,256.574402C1344.355103,255.877121,1342.820557,256.069,1342.820557,257.564941C1342.820557,259.628845,1346.97998,260.648285,1355.573486,260.690613C1358.426025,260.704681,1360.895264,260.851593,1361.060791,261.01712C1361.662476,261.618774,1364.807739,261.347107,1365.067139,260.671112M1254.667114,414.29892C1255.768555,413.081818,1255.212769,411.638794,1253.356567,410.89624C1252.510986,410.557922,1250.066406,409.901459,1247.924316,409.437408C1245.782104,408.973358,1242.970215,408.125183,1241.675415,407.552612C1238.963623,406.353333,1237.623901,406.245728,1236.715454,407.154236C1235.804321,408.065308,1235.917969,409.086487,1237.048584,410.148682C1237.82959,410.882324,1238.752075,411.133698,1241.667114,411.407104C1244.60376,411.682617,1246.019775,412.071716,1248.973389,413.415161C1253.166748,415.322388,1253.670166,415.400543,1254.667114,414.29892M1124.565308,259.189636C1128.536743,258.286438,1130.216431,258.381378,1133.05542,259.669495C1136.125244,261.062378,1138.322754,260.633362,1138.322754,258.641174C1138.322754,257.186707,1137.049316,256.477509,1133.246338,255.814346C1128.075806,254.912659,1126.057983,254.967606,1117.17041,256.252045C1114.30957,256.665497,1114.088745,258.733643,1116.780518,259.903198C1118.199463,260.519775,1119.065308,260.44043,1124.565308,259.189636M1026.005981,508.66394C1026.339844,508.131317,1026.259277,507.262726,1025.683472,505.187469C1024.237183,499.975006,1024.012817,497.914093,1024.550171,494.780121C1025.150635,491.278381,1024.609741,489.946625,1022.586792,489.946625C1021.550476,489.946625,1021.330872,490.153961,1020.962524,491.480377C1020.343872,493.708099,1020.43634,496.940521,1021.177612,498.995361C1021.67511,500.374542,1021.762085,501.603088,1021.556824,504.351654L1021.290527,507.918274L1022.649475,508.755432C1024.208984,509.716156,1025.366211,509.684601,1026.005981,508.66394M1316.63208,414.183716C1317.427734,412.759369,1316.897949,411.802551,1314.964355,411.171234C1314.201538,410.922211,1312.649048,410.421936,1311.514404,410.05957C1309.123779,409.296082,1301.4729,405.189423,1300.643677,404.224731C1300.333984,403.86438,1299.528442,402.437042,1298.853516,401.052856C1297.77124,398.832825,1297.487061,398.536102,1296.443726,398.536102C1294.893433,398.536102,1293.522705,400.268677,1293.896118,401.756348C1294.286499,403.311768,1301.347168,408.635864,1307.93689,412.343781C1314.215332,415.876526,1315.531128,416.154907,1316.63208,414.183716M1213.895996,394.422974C1215.111084,393.571869,1215.054443,392.043274,1213.770386,391.033203C1212.51709,390.047394,1206.59436,388.633667,1201.507813,388.106201C1199.456421,387.893494,1196.628296,387.424896,1195.223022,387.06488C1192.882568,386.465302,1192.584106,386.465179,1191.671021,387.063416C1190.478271,387.84491,1190.417969,388.517578,1191.428467,389.765472C1192.122192,390.622223,1192.736572,390.740417,1199.097046,391.240479C1206.758667,391.842896,1207.188721,391.942169,1210.079346,393.776215C1212.398193,395.247498,1212.65625,395.29126,1213.895996,394.422974M1269.201416,448.241211C1271.78833,447.776062,1275.625366,447.227081,1277.728149,447.021332C1282.125122,446.591125,1283.22168,445.959076,1283.024902,443.968292C1282.941895,443.129944,1282.55188,442.537201,1281.810669,442.123138C1280.800415,441.558777,1280.51123,441.598328,1277.946411,442.651581C1273.842773,444.336853,1268.299072,445.406921,1265.248047,445.102692C1262.035156,444.782288,1260.871704,445.085266,1260.273682,446.398041C1259.643799,447.780334,1259.666016,448.042145,1260.482056,448.858215C1261.254395,449.630524,1261.618774,449.604736,1269.201416,448.241211M1325.415039,389.242706C1327.000488,386.979218,1325.562012,385.563843,1321.323975,385.217163C1319.01062,385.027954,1317.697388,384.652618,1315.734375,383.619507C1314.322998,382.876831,1311.696045,381.757874,1309.896484,381.132965C1308.096924,380.508057,1305.672485,379.582458,1304.508911,379.076019C1302.533936,378.216431,1302.326904,378.198761,1301.393799,378.810181C1300.078003,379.672333,1299.779785,380.944336,1300.643555,382.010925C1301.163208,382.65271,1302.043579,382.945343,1304.184326,383.187866C1305.751343,383.365417,1307.953735,383.882721,1309.078491,384.337433C1310.203247,384.792145,1312.723999,385.809937,1314.680176,386.599182C1316.636475,387.388489,1319.029053,388.508911,1319.997192,389.089111C1322.258057,390.444061,1324.528564,390.508423,1325.415039,389.242706M1305.067871,430.46167C1306.165771,429.506317,1306.188477,429.413788,1305.59314,428.326538C1305.250854,427.701477,1303.4104,426.097351,1301.503174,424.76181C1284.937866,413.161621,1283.745728,412.511353,1280.816406,413.478088C1277.941528,414.42691,1278.899536,417.554413,1282.065063,417.554413C1284.675781,417.554413,1287.136475,418.718994,1292.846558,422.657227C1297.01709,425.533661,1299.055176,427.224304,1300.092529,428.668365C1301.334106,430.396545,1302.534912,431.333771,1303.636475,431.434326C1303.792603,431.448608,1304.436768,431.010895,1305.067871,430.46167M1189.953613,434.30304C1191.960205,433.745789,1192.606201,432.586517,1191.689819,431.187744C1191.023804,430.171417,1190.945313,430.157288,1187.468506,430.429932C1182.904053,430.787842,1181.47644,430.31134,1174.413818,426.072083C1168.437988,422.485199,1167.253784,422.216614,1166.147339,424.197083C1165.224243,425.849396,1165.934814,426.63739,1169.037598,427.402222C1172.272461,428.199585,1173.234253,428.696533,1175.44165,430.71106C1176.399048,431.584808,1177.687378,432.404022,1178.304565,432.531494C1178.921875,432.658997,1180.991211,433.186218,1182.90332,433.703125C1186.956055,434.798706,1187.884399,434.877716,1189.953613,434.30304M1292.105103,443.730133C1292.555054,443.280243,1292.922485,442.682068,1292.921631,442.400879C1292.916992,440.861206,1288.153076,435.633087,1284.765381,433.450012C1282.253174,431.831055,1280.320801,431.893768,1276.477539,433.718933C1274.308228,434.749146,1272.511963,435.26593,1270.173706,435.532623C1266.385864,435.96463,1264.824707,436.56546,1264.453857,437.734131C1264.119873,438.786499,1265.567383,440.049164,1267.107666,440.049164C1268.624756,440.049164,1273.328369,438.701141,1277.147705,437.171844C1279.76001,436.125763,1280.697144,435.934265,1282.142334,436.151001C1284.54834,436.51178,1286.252319,438.054077,1287.624878,441.113281C1289.1521,444.517242,1290.519409,445.315857,1292.105103,443.730133M1367.967529,318.509308C1369.185425,317.551331,1369.194824,317.275085,1368.193848,311.829041C1367.987183,310.704285,1367.80127,306.931305,1367.780762,303.444611C1367.746338,297.60379,1367.017578,289.901794,1366.340576,288.225098C1365.821899,286.940704,1364.434326,286.871216,1363.396606,288.077698C1362.214355,289.452148,1362.214966,290.204468,1363.400513,293.129791C1364.302979,295.356201,1364.352905,296.01001,1364.436401,306.666168C1364.487427,313.18631,1364.695313,318.183136,1364.934082,318.629272C1365.476196,319.64209,1366.58313,319.598328,1367.967529,318.509308M1153.314697,430.261597C1154.24939,429.837189,1156.029907,428.840179,1157.271362,428.046082C1159.253418,426.778107,1159.63623,426.306458,1160.413696,424.174194C1160.900635,422.838745,1162.02002,420.873718,1162.901123,419.807404C1163.826416,418.687622,1164.7771,416.926575,1165.151611,415.638428C1165.508179,414.411774,1166.30835,412.822693,1166.929688,412.107086C1169.113281,409.592377,1169.531372,407.864807,1168.360718,406.193542C1166.934082,404.156708,1165.462158,405.323578,1164.09021,409.578979C1163.071167,412.739868,1158.066162,421.992737,1156.373169,423.845703C1155.780762,424.49408,1153.973633,425.634338,1152.357178,426.379578C1149.876465,427.523438,1148.547607,428.634033,1148.547607,429.56369C1148.547607,429.674866,1148.836914,430.055054,1149.19043,430.408569C1150.032593,431.250793,1151.230103,431.20813,1153.314697,430.261597M1139.885986,321.085236C1139.959473,320.317871,1139.642334,318.834839,1139.170288,317.737457C1138.704102,316.6539,1138.322754,315.150208,1138.322754,314.395935C1138.322754,313.037811,1138.63855,312.309235,1141.119507,307.943573C1142.907349,304.797729,1142.810913,303.399597,1140.325073,296.42157C1137.131226,287.456116,1135.77356,285.448792,1132.903442,285.448792C1131.583984,285.448792,1130.960815,286.187164,1130.960815,287.750397C1130.960815,289.118744,1131.632324,289.851288,1134.157471,291.237854C1136.006348,292.253021,1136.5448,293.380066,1137.668823,298.586334C1138.833984,303.983551,1138.72937,304.941284,1136.60083,308.365479C1135.480957,310.166901,1135.288086,310.931549,1134.977539,314.800385C1134.457397,321.279968,1135.069458,322.807251,1138.097168,322.584717C1139.651245,322.47049,1139.762451,322.377258,1139.885986,321.085236M1270.247803,401.78302C1273.105103,400.371155,1273.401123,400.314514,1279.889648,399.937622C1283.571411,399.723785,1287.043823,399.363159,1287.606201,399.136292C1288.168579,398.909363,1289.088867,398.04129,1289.651123,397.207153C1290.213501,396.373047,1291.569824,394.694275,1292.665039,393.476532C1295.938721,389.837006,1297.125854,385.83255,1295.274902,384.673584C1293.922363,383.826721,1293.183105,384.670013,1291.147095,389.382813C1289.894531,392.282104,1287.67749,394.754181,1285.295654,395.907196C1283.637451,396.7099,1283.054443,396.773804,1279.661255,396.524719C1276.335449,396.280579,1275.608032,396.354126,1273.663574,397.130981C1272.446655,397.617188,1270.091797,398.172119,1268.430786,398.364136C1265.15686,398.742523,1263.884521,399.488708,1263.884521,401.030273C1263.884521,402.069946,1265.269775,403.239563,1266.501221,403.239563C1266.94043,403.239563,1268.626465,402.584106,1270.247803,401.78302M1321.879883,331.497314C1322.487305,331.179993,1323.536499,330.33493,1324.211304,329.619385C1326.142822,327.571381,1328.140991,326.764221,1332.20874,326.388885C1335.332764,326.100647,1336.209595,325.846558,1338.024658,324.703674C1339.200317,323.963501,1341.266357,322.730347,1342.616089,321.963318C1348.714722,318.497437,1352.225708,312.567993,1348.44873,312.113007C1347.625977,312.013916,1346.998779,312.459961,1345.422485,314.264954C1341.333496,318.947205,1337.222778,321.520935,1331.433594,323.023163C1327.731689,323.983765,1320.787842,326.792603,1319.020752,328.044128C1317.427979,329.172241,1317.14502,330.418823,1318.27417,331.333191C1319.37439,332.223999,1320.399658,332.270691,1321.879883,331.497314M1221.783447,433.900574C1222.217773,433.668091,1222.919189,432.793884,1223.342285,431.957825C1224.202881,430.25647,1226.256836,423.731384,1226.256836,422.698303C1226.256836,422.33075,1225.727539,420.97699,1225.080566,419.689972C1224.433716,418.402924,1223.766602,416.714081,1223.598267,415.936951C1223.409302,415.065002,1222.471558,413.65564,1221.149048,412.256012C1218.497559,409.450012,1218.218872,408.917786,1217.69397,405.658325C1217.204834,402.621094,1216.200684,401.044067,1214.637573,400.858276C1212.091064,400.555664,1211.58374,403.124573,1213.601685,406.102539C1214.28772,407.114777,1215.324951,408.863251,1215.906738,409.987976C1216.488525,411.112732,1218.035889,413.71759,1219.345337,415.776581C1221.983887,419.925354,1222.786499,422.355042,1222.464111,425.216461C1222.275757,426.886902,1221.960693,427.399475,1219.958252,429.293213C1218.698608,430.484558,1217.667969,431.814453,1217.667969,432.248535C1217.667969,433.983765,1219.930786,434.89209,1221.783447,433.900574M1200.969116,433.646362C1201.380493,433.274048,1201.713745,432.583862,1201.709595,432.11261C1201.696167,430.570618,1198.867065,424.331543,1197.612061,423.075989L1196.385376,421.848877L1189.951172,421.624878C1184.041992,421.419189,1183.333252,421.311096,1181.267334,420.300507C1180.030151,419.695313,1177.763184,418.185669,1176.229736,416.945801C1172.618896,414.026184,1170.633423,413.987671,1170.633423,416.83725C1170.633423,417.716736,1170.943604,418.171844,1171.901489,418.698181C1172.598999,419.08136,1175.129639,420.548981,1177.525269,421.959534C1182.944214,425.15036,1184.001709,425.444153,1188.799438,425.09198C1195.115234,424.628387,1197.21814,425.903687,1197.21814,430.197449C1197.21814,433.791962,1198.999023,435.429352,1200.969116,433.646362M1041.232056,491.365631C1041.795166,490.506348,1041.862549,489.725128,1041.629517,486.764404C1041.271606,482.216675,1040.801147,480.464813,1039.533081,478.957794C1038.150757,477.314972,1033.321045,475.370209,1029.734375,475.012177C1026.63501,474.702789,1023.950867,473.736237,1023.002808,472.588196C1021.598999,470.888245,1018.896057,471.016907,1018.896057,472.783661C1018.896057,473.837036,1021.752197,476.584503,1023.956543,477.651611C1025.263672,478.284363,1026.507935,478.495758,1028.943359,478.498749C1035.985474,478.507416,1039.310059,481.961029,1037.854492,487.755768C1037.253906,490.146637,1037.255493,490.429962,1037.874756,491.375153C1038.765381,492.734344,1040.338257,492.729889,1041.232056,491.365631M1081.799072,497.899658C1081.896851,496.900482,1081.43103,496.01593,1079.473511,493.482788C1076.539307,489.685883,1075.92334,487.97876,1075.17041,481.55719C1074.854126,478.860596,1074.043091,474.261658,1073.36792,471.337341C1072.692749,468.412994,1072.024292,465.173096,1071.882324,464.137512C1071.454224,461.01358,1069.580444,459.791809,1068.077759,461.656769C1067.32251,462.594147,1067.449951,463.926025,1068.545532,466.543976C1069.794922,469.529449,1071.467651,477.757111,1072.056152,483.811707C1072.582764,489.229584,1073.276855,491.058289,1076.561646,495.68222C1079.07019,499.213531,1079.280762,499.397339,1080.654419,499.254974C1081.466553,499.170837,1081.702026,498.891998,1081.799072,497.899658M1074.694702,504.436768C1075.779175,503.352295,1075.444458,502.493073,1072.462891,498.70813C1068.166992,493.254791,1067.634399,491.888977,1066.924316,484.505768C1066.272949,477.732971,1064.452881,468.992065,1063.340454,467.294312C1062.548706,466.085907,1061.390381,465.915588,1060.438354,466.867584C1059.487061,467.818878,1059.650146,469.205627,1061.02356,471.842621C1062.396606,474.47879,1063.289185,479.394043,1063.713867,486.658051C1064.062256,492.615936,1064.342041,493.446899,1067.364624,497.501068C1068.825317,499.460388,1070.020508,501.203247,1070.020508,501.374115C1070.020508,501.544983,1070.573853,502.448578,1071.25,503.382141C1072.555664,505.184448,1073.62085,505.51059,1074.694702,504.436768M1167.642578,399.237274C1168.748047,398.534424,1169.031616,396.312317,1169.085449,387.934937C1169.147217,378.292877,1168.835815,376.359924,1167.011108,375.060608C1165.27771,373.826355,1161.986694,372.638092,1156.534302,371.277893C1153.828735,370.602966,1150.346436,369.406738,1148.795776,368.61969C1145.771729,367.084778,1144.300415,367.037415,1143.848877,368.460419C1143.527832,369.47168,1144.192749,370.73645,1145.493286,371.588593C1146.047119,371.951416,1149.575195,372.962311,1153.333496,373.834991C1161.006104,375.616577,1163.473877,376.649475,1164.784058,378.627533C1166.126831,380.654846,1166.310303,383.054199,1165.718872,390.852356C1165.21228,397.531616,1165.223633,397.960022,1165.926758,398.737C1166.743896,399.639984,1166.925903,399.693024,1167.642578,399.237274M1133.034668,426.945923C1133.470703,426.712494,1134.384277,425.418823,1135.064575,424.071045C1136.563477,421.101715,1138.441895,419.167114,1142.772217,416.132782C1146.809814,413.303589,1147.834961,412.114471,1149.85083,407.922638C1151.709961,404.056519,1152.202637,401.452087,1151.930176,396.930603C1151.820557,395.114258,1151.92041,392.615906,1152.151855,391.378693C1152.679443,388.558899,1152.139893,387.145264,1150.462646,386.952423C1148.094971,386.680237,1147.664551,388.370514,1148.587158,394.317139C1149.492432,400.151672,1147.638916,406.853119,1144.115967,410.483307C1143.256226,411.369263,1141.090088,413.20755,1139.302368,414.56842C1134.019897,418.58963,1130.142822,423.211456,1130.142822,425.487457C1130.142822,426.167206,1131.224121,427.3703,1131.834961,427.3703C1132.058594,427.3703,1132.598511,427.179321,1133.034668,426.945923M1106.216431,488.981781C1106.993408,487.796082,1106.71936,486.95929,1104.874512,484.88327C1102.866211,482.623505,1101.807007,480.057953,1099.262817,471.291321C1096.598999,462.112274,1096.432983,459.914429,1098.090942,455.772888C1098.842041,453.89679,1099.955444,452.224823,1101.771973,450.245453C1104.214844,447.583405,1104.587158,446.891357,1104.396362,445.366119C1104.307739,444.657898,1103.226074,443.730133,1102.488892,443.730133C1101.40332,443.730133,1099.502197,445.870483,1098.85376,447.822754C1098.484131,448.935699,1097.18811,451.339325,1095.973633,453.164185C1092.599487,458.234436,1092.594971,458.649872,1095.776123,471.252808C1097.417603,477.755737,1098.198364,480.052246,1099.932495,483.478485C1101.106934,485.798737,1102.415649,488.203278,1102.84082,488.821899C1103.814087,490.238007,1105.345825,490.310547,1106.216431,488.981781M1312.978394,424.285339C1313.226074,423.986938,1313.370117,423.132568,1313.298584,422.38681C1313.178955,421.139954,1312.905273,420.898254,1309.896484,419.382019C1304.965942,416.897339,1299.331787,413.319031,1294.868652,409.837555C1288.087891,404.548279,1288.752075,404.874634,1284.785034,404.882813C1279.116455,404.894531,1274.084229,405.552551,1272.899658,406.437042C1271.425659,407.537476,1271.473633,409.382813,1272.994995,410.11203C1274.026001,410.60614,1274.397339,410.532928,1277.041504,409.314148C1279.133057,408.350098,1280.540894,407.973022,1282.04126,407.975037C1285.825806,407.980164,1287.726929,408.840027,1294.282959,413.511658C1297.696533,415.944183,1301.685791,418.628784,1303.148071,419.477478C1304.610229,420.326111,1306.726807,421.871521,1307.85144,422.911621C1310.520386,425.379761,1311.788208,425.719482,1312.978394,424.285339M1195.582153,442.853912C1197.106323,442.59549,1204.174316,442.379913,1212.146484,442.348724C1228.334595,442.28537,1228.0979,442.33493,1229.460693,438.725769C1229.907837,437.541565,1231.393555,434.272095,1232.762329,431.460266C1235.25293,426.343689,1235.68335,424.690491,1234.763916,423.771149C1234.044678,423.05191,1232.616211,423.172424,1231.852051,424.016846C1231.485474,424.421936,1230.714233,426.379456,1230.138306,428.366913C1228.707642,433.303894,1227.344727,436.029175,1225.450684,437.740326C1223.457764,439.540802,1221.542358,439.938202,1218.291504,439.225708C1214.608032,438.418335,1204.916748,438.364746,1201.995972,439.13559C1199.992798,439.664246,1199.087158,439.68689,1196.27002,439.278564C1192.678589,438.757996,1190.788452,439.039917,1189.390869,440.304688C1188.386353,441.213745,1188.429443,441.907776,1189.538208,442.684448C1190.605469,443.431946,1191.950806,443.469666,1195.582153,442.853912M1280.443481,380.233551C1282.581909,378.077606,1284.709473,375.483215,1285.389893,374.201813C1286.046387,372.965149,1287.616211,370.926819,1288.878174,369.672241C1290.70459,367.856689,1291.356323,366.839813,1292.071899,364.689453C1293.314453,360.955566,1294.7854,359.088348,1297.714478,357.527222C1299.237915,356.71521,1300.917969,355.348022,1302.11731,353.944061C1303.184082,352.695435,1304.910645,351.240906,1305.954102,350.711731C1308.563599,349.388428,1309.369385,348.403809,1309.209473,346.734161C1309.094482,345.534119,1308.921265,345.351379,1307.794678,345.241913C1306.676636,345.13324,1306.029053,345.567139,1302.775269,348.604797C1300.720703,350.522949,1297.578613,353.204529,1295.793091,354.563782C1292.006226,357.446472,1291.093384,358.562164,1289.013428,362.849792C1288.168091,364.592346,1286.595703,367.077026,1285.519287,368.371246C1284.442871,369.665466,1282.744141,371.929626,1281.744385,373.40271C1280.744507,374.875793,1279.262939,376.624268,1278.451904,377.288177C1277.640869,377.952118,1276.332031,379.019592,1275.543335,379.660339C1274.038208,380.883148,1273.630127,382.555908,1274.600098,383.52597C1275.645996,384.571808,1276.76709,383.940094,1280.443481,380.233551M1108.011475,438.263733C1108.335693,437.872925,1108.394531,436.117157,1108.207153,432.415253C1107.795532,424.28241,1109.304443,416.523071,1112.489014,410.396973C1114.107178,407.284302,1120.017334,400.978546,1123.803467,398.325348C1125.40979,397.199646,1125.875122,396.619049,1125.972778,395.618286C1126.105469,394.257721,1125.228027,393.014648,1124.134888,393.014648C1123.195679,393.014648,1113.6073,402.600891,1111.30249,405.844177C1107.698975,410.914978,1105.674194,417.923218,1104.811157,428.312805C1104.24707,435.103638,1104.261719,437.726135,1104.866943,438.33136C1105.529907,438.994385,1107.439087,438.953339,1108.011475,438.263733M1331.096802,347.513916C1332.489868,346.107971,1335.007568,343.850281,1336.691406,342.496765C1339.508423,340.232605,1339.923584,339.693176,1341.885498,335.748352C1343.05835,333.390198,1344.424438,331.184753,1344.921265,330.847351C1345.418091,330.509888,1347.219238,329.773712,1348.923828,329.211365L1352.022949,328.188843L1353.25,325.67334C1353.924805,324.289825,1355.546997,322.03656,1356.854858,320.666107C1358.871582,318.552887,1359.213257,317.978271,1359.104248,316.883423C1358.941162,315.242554,1357.967163,314.589905,1356.468262,315.117065C1355.658325,315.401917,1354.893555,316.358521,1353.70166,318.57782C1351.510254,322.658051,1349.126465,324.924133,1344.666748,327.166382C1340.635498,329.193237,1339.431274,330.495605,1338.980225,333.316437C1338.364868,337.164154,1335.675415,340.248108,1330.617065,342.906219C1328.99353,343.759338,1327.210205,344.998138,1326.654053,345.659119C1325.573364,346.94339,1325.330078,348.775879,1326.133545,349.579346C1327.203491,350.649231,1328.54187,350.092285,1331.096802,347.513916M1328.208618,369.804169C1328.564819,369.410522,1329.243896,368.184265,1329.717529,367.079224C1330.191162,365.974182,1331.179199,364.225708,1331.913208,363.193787C1332.647217,362.161804,1334.020874,359.753113,1334.96582,357.841064C1336.543579,354.648254,1337.359619,353.679535,1344.966919,345.969452C1352.380615,338.455475,1353.6073,337.384766,1356.653931,335.76825C1360.752441,333.593689,1362.043457,332.217896,1362.043457,330.024597C1362.043457,325.178223,1359.260498,324.660706,1357.744385,329.225159C1356.834595,331.964355,1355.480591,333.150482,1352.121582,334.150818C1348.853027,335.124268,1347.82959,335.988831,1346.289063,339.07782C1345.488892,340.682495,1343.395142,343.045166,1338.54126,347.820648C1331.973022,354.282959,1331.881348,354.397736,1331.18335,357.023071C1330.331421,360.228058,1328.915039,362.795776,1327.480469,363.735687C1325.305054,365.161102,1324.061768,368.775299,1325.315674,370.029114C1326.02832,370.741821,1327.460938,370.630432,1328.208618,369.804169M1131.519165,435.929535C1133.666016,434.240845,1132.866089,433.279877,1128.0979,431.819458C1125.593994,431.052582,1124.704346,429.372375,1124.953857,425.881897C1125.231445,422.000549,1126.703735,419.279663,1130.643677,415.367004C1132.505249,413.518341,1135.420532,410.942871,1137.122192,409.643768C1142.043945,405.886108,1143.943726,402.04422,1143.498535,396.748535C1143.373169,395.257263,1143.159668,392.564758,1143.02417,390.765198C1142.675781,386.139221,1142.54834,385.743896,1141.176147,385.034271C1140.258301,384.559692,1139.748535,384.509521,1139.141846,384.834137C1137.749268,385.579468,1137.705933,387.095215,1138.986206,390.279358C1139.965576,392.715088,1140.161865,393.791626,1140.155273,396.689392C1140.142578,402.230469,1138.742554,404.460999,1132.275757,409.242737C1126.28418,413.673035,1123.579468,417.343597,1122.213989,422.897491C1121.438843,426.050171,1121.378052,429.673553,1122.079712,430.889771C1122.910034,432.328979,1128.53479,436.777222,1129.524292,436.777222C1130.028809,436.777222,1130.926514,436.395752,1131.519165,435.929535M1274.428223,373.972473C1274.928711,373.621948,1276.072144,372.254425,1276.969238,370.933533C1277.866211,369.612671,1279.512817,367.488953,1280.628296,366.214142C1281.743896,364.939331,1283.519287,362.211792,1284.57373,360.152954C1287.015625,355.385101,1288.552856,353.500916,1292.44458,350.505676C1294.169922,349.177795,1297.198975,346.617493,1299.175781,344.816101C1303.192383,341.155823,1304.785522,340.126953,1309.396973,338.215149C1311.81543,337.212463,1312.727783,336.6073,1313.201294,335.691772C1314.313599,333.54068,1312.874756,331.860779,1310.832153,332.925964C1308.428223,334.179626,1299.168579,340.145203,1297.60083,341.450409C1290.342773,347.492676,1285.060425,352.397949,1284.019531,354.062256C1283.352783,355.128326,1282.000488,357.564972,1281.014526,359.47702C1279.677856,362.069092,1278.424927,363.741699,1276.089478,366.051758C1274.366699,367.755798,1272.572998,369.780334,1272.103271,370.55072C1271.266968,371.922668,1270.977905,373.796021,1271.519043,374.337219C1271.998657,374.816864,1273.489624,374.629944,1274.428223,373.972473M1122.542969,441.027893C1123.710693,440.579803,1123.291382,438.934723,1121.698486,437.714874C1117.062866,434.165009,1116.231445,432.799622,1116.242432,428.754333C1116.251953,425.211853,1117.741821,419.197174,1119.480347,415.682495C1121.352905,411.897034,1123.978638,408.969238,1128.506836,405.617615C1133.977295,401.568665,1135.050781,400.034851,1135.050781,396.267822C1135.050781,394.718719,1134.680298,393.40741,1133.619385,391.201538C1131.87439,387.57373,1131.837646,386.293579,1133.394531,383.376038C1134.63623,381.049133,1134.647217,380.177368,1133.443115,379.532898C1131.579102,378.53537,1128.92688,382.229736,1128.589966,386.292877C1128.43042,388.216125,1128.571045,388.700836,1129.924316,390.893372C1131.846436,394.007385,1132.138062,395.970001,1131.045898,398.439209C1130.380127,399.944183,1129.563843,400.762024,1126.807861,402.685455C1119.44751,407.822205,1115.871948,412.960175,1114.183105,420.826355C1113.047363,426.116974,1112.819946,429.402222,1113.365723,432.638062C1113.932129,435.995728,1114.611572,437.002502,1117.990112,439.489594C1120.363281,441.236633,1121.233154,441.530518,1122.542969,441.027893M1124.775024,449.879669C1125.531372,449.66275,1128.400024,448.011566,1131.14978,446.210388C1136.517334,442.694519,1140.66394,440.640259,1143.628906,440.028076C1144.647095,439.817871,1147.628296,439.480591,1150.253784,439.278625C1154.609497,438.943573,1155.356567,438.759766,1158.788818,437.178711C1162.40979,435.510742,1162.651611,435.457092,1165.262695,435.743225C1170.768066,436.346497,1171.231812,436.295013,1171.373901,435.064575C1171.549561,433.54364,1170.276855,432.806458,1166.123413,432.023071L1162.735229,431.384003L1158.606689,433.434875C1153.364014,436.039185,1153.172363,436.089325,1148.756348,436.012512C1145.984009,435.964294,1144.491211,436.152374,1142.729736,436.77179C1141.441895,437.22467,1140.050659,437.595215,1139.638184,437.595215C1139.225708,437.595215,1137.794678,438.265656,1136.458252,439.085114C1135.121826,439.904541,1132.832031,441.170105,1131.369873,441.8974C1129.907715,442.624664,1128.343262,443.630219,1127.893433,444.131927C1126.625977,445.545319,1124.217163,446.59491,1122.286011,446.575165C1119.952393,446.55127,1117.954102,445.795563,1115.541504,444.024506C1112.873779,442.066254,1111.640381,441.782806,1110.546509,442.876678C1108.710083,444.713165,1109.950562,446.161591,1114.601074,447.61087C1116.513062,448.206726,1118.997803,449.042084,1120.122437,449.467163C1122.51001,450.369507,1122.935425,450.407227,1124.775024,449.879669M1058.096924,509.271698C1058.660645,508.195862,1058.060059,507.137909,1055.569336,504.819366C1051.428711,500.964996,1049.995483,496.653961,1049.985718,488.025024C1049.980713,483.483612,1049.822998,482.120575,1048.992432,479.436127C1048.449463,477.681152,1047.883789,475.6521,1047.735352,474.927094C1047.368896,473.136169,1045.794922,471.922577,1041.742188,470.306122C1039.861816,469.556091,1036.618164,468.054932,1034.53418,466.970184C1031.668335,465.478577,1030.30249,464.997894,1028.929688,464.997894C1026.838379,464.997894,1025.187378,465.636292,1024.822998,466.585846C1024.467163,467.513184,1026.323242,468.997681,1028.202271,469.288635C1032.820313,470.003693,1034.454224,470.454346,1037.886475,471.959656C1042.998901,474.201752,1045.342651,476.690125,1046.056519,480.633514C1046.787476,484.671692,1047.031738,488.760681,1046.698975,491.389069C1046.243896,494.98407,1046.569458,496.270508,1049.402588,502.071747C1052.089722,507.574005,1054.19397,509.987427,1056.304321,509.987427C1057.23877,509.987427,1057.849609,509.74353,1058.096924,509.271698M1062.779419,459.9534C1063.275391,459.428406,1064.207031,458.309052,1064.849976,457.465973C1065.492798,456.622894,1066.797119,455.599487,1067.748291,455.191772C1069.985107,454.232971,1070.450684,453.598022,1075.704346,444.343628C1081.715332,433.755188,1082.587036,431.228546,1083.74353,421.042786C1084.076172,418.111938,1084.455933,415.161804,1084.58728,414.486938C1085.270508,410.977844,1087.473511,403.809845,1088.912354,400.414429C1090.26355,397.225891,1090.46814,396.402649,1090.106323,395.608704C1089.292847,393.82312,1087.213379,394.691284,1085.840576,397.389648C1085.519775,398.020203,1085.041748,399.794067,1084.77832,401.331543C1084.514893,402.869019,1083.753052,405.502075,1083.085449,407.1828C1081.767822,410.499664,1081.242432,413.289307,1080.638306,420.176483C1080.140991,425.844971,1077.425659,434.721436,1074.809326,439.231171C1067.636719,451.594543,1068.327393,450.694672,1063.61377,453.817139C1059.539673,456.5159,1058.665649,458.260986,1060.318115,460.396698C1060.916016,461.16925,1061.777588,461.014069,1062.779419,459.9534M1328.241455,399.123566C1328.831665,398.659363,1330.466797,396.594574,1331.875366,394.535217C1333.283813,392.47583,1336.046631,389.075562,1338.014893,386.979095L1341.593628,383.167297L1341.593628,380.511414C1341.593628,377.266418,1342.242432,375.611267,1344.181763,373.908508C1346.00293,372.30957,1350.628784,370.793152,1355.703979,370.1315C1359.477539,369.639557,1361.225342,368.917908,1361.225342,367.85199C1361.225342,367.214844,1359.819824,365.611938,1359.26123,365.611938C1359.080688,365.611938,1356.365967,366.243408,1353.228516,367.015198C1348.569946,368.161133,1346.849121,368.803009,1343.84314,370.516022C1341.818604,371.669708,1339.867188,372.95755,1339.506836,373.377899C1339.079956,373.875793,1338.774414,375.268799,1338.630005,377.374725C1338.34314,381.560028,1337.352905,383.499512,1334.287231,385.880157C1332.313477,387.412933,1331.663818,388.261841,1330.402588,390.956055C1327.686279,396.759277,1324.974243,397.39679,1317.965698,393.879761C1306.083252,387.91684,1300.694092,387.011597,1300.694092,390.978577C1300.694092,392.591339,1301.504883,392.918518,1304.953369,392.697205C1308.166016,392.491028,1308.587402,392.631165,1313.13269,395.417664C1315.748047,397.021027,1323.82666,399.880127,1325.894409,399.934265C1326.605835,399.952881,1327.642334,399.59491,1328.241455,399.123566M1061.896606,517.534058C1064.050659,516.774109,1066.024658,515.206909,1067.349365,513.2052C1069.293945,510.266632,1069.191406,509.467834,1066.30542,505.079468C1064.900024,502.942474,1063.054443,500.365784,1062.204102,499.353546C1059.499634,496.134064,1058.906006,494.213104,1058.544434,487.511353C1058.187988,480.90451,1057.532104,476.093994,1056.720093,474.130981C1056.039063,472.48465,1054.784546,471.758331,1053.660645,472.359833C1052.555664,472.951202,1052.61731,474.30835,1053.919434,478.055023C1054.848633,480.728699,1055.034912,482.107483,1055.279297,488.117493C1055.621582,496.537781,1056.109741,497.891541,1060.543701,502.719696C1063.973267,506.454132,1064.703613,507.731995,1064.703613,509.998596C1064.703613,512.355591,1063.253784,513.716553,1059.727295,514.670105C1054.270142,516.145691,1050.976318,514.604858,1047.158569,508.790863C1045.834961,506.775116,1044.245728,503.801056,1043.627075,502.181824C1042.542725,499.344116,1041.429932,497.71756,1040.572876,497.71756C1039.819336,497.71756,1038.527832,499.343353,1038.527832,500.29187C1038.527832,500.807953,1039.155029,502.234344,1039.921753,503.461609C1040.688354,504.688843,1042.43103,507.555359,1043.794434,509.831573C1046.392212,514.168823,1048.324951,516.223328,1050.767944,517.244385C1054.04541,518.614197,1058.506104,518.730347,1061.896606,517.534058M1259.369141,387.512848C1260.009766,386.740967,1259.559082,385.365417,1258.475342,384.785461C1258.005371,384.533875,1255.795776,384.184631,1253.565308,384.009369C1250.157227,383.741547,1249.073975,383.471924,1246.779053,382.320068C1244.314453,381.083069,1243.609619,380.928467,1239.549194,380.734436C1235.665771,380.548828,1234.742554,380.361572,1232.800781,379.365479C1229.864868,377.859406,1220.057495,374.408478,1216.997559,373.804749C1215.679077,373.544617,1213.036011,372.89801,1211.124023,372.367767C1209.205078,371.835632,1205.815186,371.290588,1203.557617,371.151184C1201.308105,371.012268,1195.659546,370.422638,1191.005127,369.840881C1186.35083,369.259094,1182.074463,368.900604,1181.502197,369.04425C1179.974854,369.427612,1179.67334,371.098999,1180.896729,372.401215C1181.82251,373.386719,1181.971924,373.410522,1185.568604,373.146515C1189.099121,372.88736,1196.836182,373.581146,1207.026733,375.070648C1212.629028,375.889526,1219.747437,377.988281,1229.171753,381.599762C1232.917847,383.035309,1235.373535,383.704956,1238.113647,384.038086C1240.191284,384.29071,1244.677002,385.2995,1248.082031,386.279877C1254.686523,388.181396,1258.471191,388.594818,1259.369141,387.512848M1141.866699,431.404297C1142.171509,431.151306,1142.718994,429.910034,1143.083374,428.646057C1144.035522,425.342224,1144.863892,424.403748,1148.49585,422.514221C1150.274902,421.588593,1152.285889,420.198853,1152.964478,419.425964C1154.764893,417.375397,1158.504639,410.111023,1159.801636,406.144745C1160.865967,402.89032,1160.901367,402.536987,1160.479736,399.396301C1160.187256,397.218109,1160.16272,395.030731,1160.408203,393.014648C1160.939331,388.651489,1160.901123,383.420746,1160.328857,382.164856C1159.621338,380.611755,1158.473999,380.16571,1151.410645,378.697876C1143.480713,377.049896,1141.691772,376.16333,1139.708618,372.898682C1137.673462,369.548431,1135.713257,368.719604,1134.435913,370.669189C1133.533081,372.046997,1134.160156,373.367981,1136.552124,375.127563C1137.638428,375.926666,1138.987427,377.075989,1139.549805,377.681549C1140.112183,378.287109,1141.809937,379.408142,1143.322754,380.172699C1145.782715,381.415985,1146.430664,381.563721,1149.457764,381.571777C1153.521851,381.582581,1155.930908,382.489563,1156.906494,384.376404C1157.453857,385.434723,1157.514038,386.875549,1157.313721,394.122192C1157.184448,398.799316,1156.907837,403.50824,1156.699097,404.586426C1156.163696,407.352386,1152.892334,413.87793,1150.915039,416.124298C1149.998413,417.165588,1147.854126,418.958466,1146.149902,420.10849C1142.58252,422.515747,1141.351563,423.764404,1139.351074,427.005554C1137.849976,429.437469,1137.560791,430.939056,1138.425049,431.814636C1138.989746,432.386719,1140.966919,432.151001,1141.866699,431.404297M1211.451172,433.014435C1212.349854,432.115814,1211.959717,430.76355,1210.117432,428.391052C1209.114014,427.098755,1207.984253,425.098083,1207.606934,423.945129C1206.104736,419.354675,1203.97876,415.96283,1201.734131,414.575562C1200.48877,413.805908,1199.474976,413.660614,1193.752686,413.431641C1186.550537,413.143433,1184.185913,412.544983,1181.004395,410.205292C1177.324341,407.498901,1176.02356,403.971313,1176.794312,398.787689C1177.04895,397.074707,1177.421021,392.26825,1177.621094,388.10672C1177.821289,383.94519,1178.097412,379.868164,1178.234741,379.046631C1178.432983,377.860901,1178.307617,377.376068,1177.626465,376.694885C1176.631836,375.700256,1175.989136,375.623779,1174.958496,376.37738C1174.286377,376.868835,1174.21167,377.787994,1174.134399,386.5C1174.082153,392.401428,1173.834961,397.294983,1173.490845,399.239563C1172.990967,402.064087,1173.00708,402.715057,1173.643433,405.414612C1174.034668,407.074341,1174.612549,408.800049,1174.927368,409.249573C1175.708862,410.365295,1182.11377,414.978821,1184.017456,415.797241C1185.105225,416.264893,1187.435669,416.536377,1191.901245,416.715576C1198.92395,416.997406,1200.073242,417.344177,1201.893311,419.73053C1203.294556,421.567535,1205.592896,426.629639,1206.35437,429.555664C1206.696411,430.870117,1207.293945,432.296478,1207.682129,432.725403C1208.478027,433.604889,1210.69104,433.774597,1211.451172,433.014435M1098.422485,439.549164C1098.828613,438.969299,1099.059204,437.743042,1099.059204,436.162537C1099.059204,432.750885,1100.486328,420.427094,1101.285156,416.940918C1103.654663,406.599609,1106.232544,402.51236,1116.811401,392.324097L1122.676758,386.675232L1123.755981,383.124512C1124.59082,380.377625,1125.250732,379.086914,1126.671021,377.423035C1127.680786,376.240112,1128.506836,374.883942,1128.506836,374.409363C1128.506836,372.521301,1126.50647,371.973145,1124.726318,373.373413C1124.125244,373.846252,1123.140625,375.586578,1122.354492,377.565613C1119.669312,384.325806,1119.108154,385.134766,1112.357666,391.979431C1103.431763,401.029755,1101.658813,403.678223,1099.314331,411.463501C1098.041992,415.688568,1097.194702,420.3927,1096.596436,426.552307C1096.345215,429.139221,1095.767334,432.872742,1095.3125,434.84903C1094.544922,438.18335,1094.532837,438.514954,1095.14563,439.450226C1095.981079,440.72525,1097.565308,440.773071,1098.422485,439.549164M1112.737305,482.493713C1113.662598,481.172729,1113.535278,480.583923,1112.014404,479.149475C1109.905396,477.160522,1109.262207,475.913239,1108.852051,473.01712C1108.607666,471.290863,1107.949707,469.354156,1107.000488,467.566406C1105.616699,464.960571,1105.536499,464.603973,1105.669556,461.651306C1105.838501,457.903381,1106.654907,456.509277,1109.209473,455.606842C1111.480347,454.804626,1114.635986,455.465118,1117.844482,457.414124C1119.8125,458.609711,1120.623657,458.862976,1122.484619,458.862976C1126.090576,458.862976,1129.619385,457.521149,1134.513062,454.289337C1142.19165,449.218353,1144.028687,448.509308,1151.240356,447.833466C1153.733643,447.599823,1157.230957,446.972443,1159.012207,446.439301C1160.793335,445.906158,1163.446655,445.337158,1164.908325,445.174835C1167.90686,444.841827,1169.406494,444.08783,1169.406494,442.913208C1169.406494,441.896484,1167.45752,440.867157,1165.532471,440.867157C1164.729126,440.867157,1162.379272,441.528564,1160.310547,442.336914C1157.70752,443.354095,1155.411865,443.92688,1152.855225,444.197052C1142.625,445.278229,1141.071045,445.824921,1132.862549,451.23111C1130.354492,452.882904,1127.68689,454.477112,1126.93457,454.773804C1124.402954,455.772156,1121.30249,455.41629,1116.428833,453.567963C1113.961426,452.632172,1111.089355,451.761139,1110.046509,451.632355C1108.245117,451.409851,1108.054443,451.486664,1106.226685,453.171417C1103.045288,456.103973,1101.50647,459.973969,1102.255981,463.15741C1103.158203,466.989349,1106.592651,477.63501,1107.533813,479.517242C1109.441528,483.332611,1111.375122,484.438599,1112.737305,482.493713M1095.140137,390.514038C1095.744751,390.038513,1096.997681,388.612122,1097.924561,387.34433C1098.85144,386.076538,1101.140259,383.465088,1103.01062,381.541107C1105.573853,378.904541,1106.949951,377.040985,1108.597778,373.97467C1109.800171,371.737122,1112.119629,368.002533,1113.751953,365.675598C1117.278564,360.64856,1117.873047,359.346222,1117.873047,356.646606C1117.873047,355.063171,1118.233398,353.923645,1119.486938,351.543518C1120.418579,349.774475,1121.291504,347.389038,1121.551758,345.900391C1122.148438,342.488586,1122.596558,341.076843,1124.295898,337.255157C1125.12207,335.397125,1125.889893,332.820404,1126.124146,331.120239C1126.346191,329.507965,1127.085815,326.914673,1127.7677,325.357361C1128.880249,322.81665,1129.047607,321.875366,1129.397095,316.192261C1129.687256,311.472565,1129.998901,309.328125,1130.620117,307.776398C1131.078613,306.631134,1131.702881,305.049927,1132.007324,304.262604C1133.304443,300.90863,1132.277588,295.627563,1130.272827,295.342133C1128.990845,295.159607,1128.518311,296.333862,1128.117798,300.697266C1127.92749,302.770691,1127.471558,305.38736,1127.104614,306.512085C1126.737671,307.636841,1126.244751,310.857666,1126.009155,313.669495C1125.518555,319.52533,1125.425293,320.031677,1123.410889,327.779846C1121.414917,335.456787,1120.185913,339.437012,1117.844116,345.808167C1116.762695,348.750366,1115.257324,353.271545,1114.498901,355.855225C1112.878784,361.374329,1111.028564,364.869537,1107.901001,368.318848C1106.453613,369.91507,1105.312744,371.674408,1104.750366,373.177307C1104.034424,375.090942,1102.887451,376.587463,1098.642578,381.146484C1092.414673,387.83551,1091.315552,389.606415,1092.597046,390.887878C1093.296265,391.587067,1093.886353,391.500305,1095.140137,390.514038M1305.714966,439.46283C1308.806885,438.371643,1311.550293,436.725708,1315.209229,433.766724C1319.878418,429.990662,1320.789063,428.576477,1323.232178,421.308441C1325.76355,413.777466,1326.312378,407.345154,1324.56311,405.707703C1324.144653,405.315979,1321.409668,404.226868,1318.485352,403.287537C1314.836426,402.115356,1312.272095,401,1310.311279,399.732147C1308.064453,398.279297,1307.147217,397.910614,1306.016846,398.00592C1304.866333,398.102905,1304.55249,398.317444,1304.444336,399.081085C1304.370117,399.605774,1304.64624,400.416412,1305.057861,400.882507C1306.153076,402.122375,1312.764771,405.155273,1316.016235,405.909332C1317.561768,406.267761,1319.344482,406.829041,1319.978027,407.156677C1322.772583,408.601807,1323.118286,412.866516,1320.822754,417.578552C1320.10437,419.053101,1319.34375,421.169312,1319.132568,422.281189C1318.921387,423.393127,1318.540039,424.85498,1318.285156,425.529816C1317.730591,426.997925,1315.644775,429.259094,1314.097412,430.069641C1313.483643,430.391144,1311.828857,431.682709,1310.419922,432.939758C1307.286255,435.735901,1305.193481,436.84491,1302.987671,436.878296C1300.534668,436.915344,1298.857788,435.846558,1296.731201,432.89032C1295.291382,430.888885,1293.797119,429.533905,1290.423828,427.170624C1285.460815,423.693726,1283.554688,422.871338,1280.45874,422.871338C1278.716553,422.871338,1277.997559,423.106384,1276.564941,424.144165C1274.162476,425.884521,1272.74292,426.399658,1269.469971,426.718872C1266.028198,427.054626,1260.341309,428.38269,1259.556641,429.034058C1258.848389,429.621826,1258.799805,431.119934,1259.467285,431.787445C1260.187744,432.507874,1261.897949,432.387329,1263.971558,431.470032C1264.97644,431.025513,1267.30835,430.49292,1269.153564,430.286499C1271.694336,430.002258,1273.273193,429.53717,1275.660645,428.369812C1280.061646,426.217834,1281.996704,426.094666,1285.363525,427.752136C1288.336426,429.215698,1294.245483,434.526886,1296.283447,437.567291C1296.972412,438.59491,1297.821533,439.665741,1298.170654,439.946899C1299.173828,440.754944,1302.693848,440.529053,1305.714966,439.46283M1174.314453,370.519897C1176.351685,368.482574,1174.474243,366.429932,1170.573364,366.429932C1169.6698,366.429932,1167.059082,365.804504,1164.771851,365.0401C1162.484497,364.275635,1158.772583,363.084686,1156.523071,362.393494C1154.27356,361.702301,1151.858154,360.724762,1151.155273,360.221191C1147.947876,357.922974,1147.052979,354.580444,1147.999512,348.434143C1148.404297,345.806091,1148.565063,342.033875,1148.49646,336.777771C1148.440674,332.503754,1148.592651,325.601959,1148.833984,321.44043C1149.215088,314.872528,1149.476929,313.089752,1150.817749,307.931152C1151.820435,304.073242,1152.266479,301.605927,1152.088867,300.898346C1151.938354,300.298859,1151.052856,298.92746,1150.121094,297.85083C1147.844238,295.220154,1147.450928,294.126404,1146.901001,288.896332C1146.642456,286.437805,1146.168701,284.015137,1145.848145,283.512573C1145.120972,282.372406,1143.481445,281.931305,1142.178101,282.525146C1140.922852,283.097076,1140.916138,284.119293,1142.151245,286.587158C1142.682251,287.648163,1143.627808,290.080688,1144.252563,291.992737C1144.877197,293.904785,1146.026611,297.024231,1146.806763,298.924805C1148.64624,303.406219,1148.555664,305.533569,1146.32251,310.292389C1144.843506,313.44397,1144.769409,313.785248,1145.080322,316.008545C1145.518799,319.144135,1145.488037,322.117462,1144.945923,329.006836C1144.658325,332.66153,1144.632935,335.324585,1144.875732,336.368774C1145.422852,338.721649,1145.355835,342.262787,1144.666748,347.411652C1143.754272,354.22998,1143.834229,355.390961,1145.435059,358.567017C1146.197632,360.079773,1147.163818,361.618927,1147.582275,361.987305C1149.19873,363.410278,1153.688232,365.280884,1158.679077,366.61084C1164.202637,368.082764,1167.479248,369.231934,1169.81543,370.516479C1171.675415,371.539246,1173.293823,371.540466,1174.314453,370.519897M1299.878662,450.272766C1300.761841,449.822174,1303.193115,448.979126,1305.281494,448.399353C1307.369873,447.81958,1311.195068,446.314972,1313.781982,445.055786C1318.13855,442.935211,1318.803223,442.44754,1322.796265,438.442535C1325.989258,435.239868,1327.489258,433.376404,1328.581055,431.255768C1330.663086,427.212189,1332.842407,420.072876,1333.387817,415.50943C1334.640991,405.024414,1334.881714,404.369202,1339.781494,398.110321C1344.339111,392.288452,1346.00769,390.651428,1348.70813,389.352722C1353.418823,387.087158,1366.26355,385.51532,1372.173828,386.48114C1376.056885,387.115662,1377.302734,386.145752,1375.518311,383.877289C1374.162964,382.154236,1371.97583,381.795837,1367.395264,382.546265C1365.239014,382.899536,1361.9104,383.296753,1359.998413,383.428986C1358.086426,383.561218,1355.325684,384.00708,1353.863525,384.4198C1352.401367,384.83252,1350.376831,385.290039,1349.364502,385.436432C1348.352295,385.582855,1347.053833,385.882935,1346.479004,386.103271C1345.151123,386.612396,1339.5354,392.69043,1336.692383,396.695618C1335.494751,398.382751,1333.692261,400.815765,1332.686768,402.102386L1330.858643,404.44165L1330.744507,408.646301C1330.681763,410.958862,1330.41333,414.047272,1330.147949,415.50943C1329.438721,419.416992,1326.991699,426.765625,1325.352539,429.910919C1323.553223,433.363525,1318.549683,438.268646,1313.922607,441.116211C1310.023438,443.515778,1304.079956,445.614807,1300.111084,445.993958C1297.747192,446.219788,1297.087646,446.455658,1296.123413,447.419861C1293.333618,450.209686,1296.012695,452.245026,1299.878662,450.272766M1060.081421,534.720215C1065.429321,534.027771,1070.087891,532.881714,1072.447021,531.678223C1073.298706,531.243652,1075.631836,529.106812,1077.631714,526.929565C1086.676514,517.082642,1088.184204,515.671265,1093.53772,512.039551C1097.838745,509.121918,1100.06604,507.20575,1105.194092,502.01181C1108.680786,498.480316,1113.032593,494.327942,1114.864868,492.784302C1116.697021,491.240662,1118.609131,489.280487,1119.113892,488.428406C1119.618652,487.576355,1121.110352,485.855011,1122.428711,484.603271C1123.747192,483.351501,1124.825928,482.122314,1124.825928,481.871735C1124.825928,481.04068,1123.556885,480.130737,1122.397949,480.130737C1120.756592,480.130737,1119.186523,481.547791,1118.096191,484.013245C1117.498779,485.364014,1116.564087,486.592316,1115.567993,487.335724C1114.69873,487.984406,1112.699219,489.826447,1111.124512,491.429138C1109.549927,493.031799,1107.565674,494.752808,1106.715088,495.253601C1105.864502,495.754364,1104.459717,497.203796,1103.593262,498.474548C1101.267944,501.885223,1097.404175,505.364197,1092.106323,508.81781C1085.422363,513.174927,1082.832153,515.479736,1078.403931,521.010559C1072.764771,528.053955,1070.264404,529.669067,1062.820679,531.076233C1056.922974,532.191162,1052.546143,532.012573,1047.9552,530.469849C1045.829468,529.755493,1043.016968,528.598999,1041.7052,527.899841C1038.514038,526.198914,1035.009521,522.371338,1033.156372,518.562866C1031.52478,515.209595,1030.394531,513.930786,1029.253662,514.147339C1028.226563,514.342285,1028.028198,517.2677,1028.924683,519.001221C1029.693848,520.488647,1035.064819,527.427124,1036.27832,528.501099C1037.823975,529.868958,1040.374146,531.210144,1043.844727,532.480652C1045.756836,533.180542,1048.241455,534.104797,1049.366211,534.534424C1051.870972,535.491272,1053.859985,535.525757,1060.081421,534.720215M1216.510986,425.057434C1217.663818,424.01416,1217.408936,422.412354,1215.659546,419.705627C1214.779907,418.344604,1213.00293,415.378448,1211.710693,413.114075C1210.418579,410.849762,1208.847778,408.505157,1208.220215,407.90387C1206.482178,406.23877,1199.994263,404.879364,1194.150635,404.955933C1188.910522,405.024628,1187.072266,404.452454,1185.758789,402.343933C1184.798218,400.802032,1184.800049,397.873535,1185.76355,394.59314C1186.231323,393.000488,1186.233398,392.131744,1185.776245,389.193359C1185.092896,384.800385,1185.601563,383.020813,1187.894775,381.781494C1189.50647,380.910522,1189.474365,380.908386,1199.263184,382.537598C1201.175171,382.855835,1204.252686,383.327515,1206.102051,383.585815C1210.719971,384.230713,1213.740601,385.062256,1216.712891,386.506653C1218.099731,387.180603,1220.379639,387.916382,1221.779297,388.141815C1224.406006,388.564819,1225.584595,389.013367,1228.672852,390.765198C1230.070313,391.557861,1231.056519,391.787659,1233.060303,391.787659C1234.793579,391.787659,1236.506592,392.111938,1238.26001,392.771973C1239.698242,393.313293,1242.140137,393.891724,1243.686279,394.057312C1245.232422,394.22287,1247.76709,394.790222,1249.319092,395.318054C1250.870972,395.845856,1253.517334,396.562073,1255.200073,396.909668C1257.965332,397.480835,1258.352783,397.480377,1259.231445,396.904663C1260.384766,396.148956,1260.530884,394.438385,1259.487793,393.903259C1259.094116,393.701355,1257.504883,393.423401,1255.956177,393.285645C1254.407471,393.147858,1250.450439,392.30127,1247.16272,391.404297C1243.875122,390.507355,1239.363525,389.485779,1237.137085,389.134155C1234.910645,388.782562,1231.873901,388.057037,1230.388672,387.521912C1221.81543,384.432831,1214.194946,381.891296,1211.328491,381.165131C1207.43811,380.179565,1192.892822,378.248535,1188.83374,378.178772C1183.438721,378.085999,1182.988892,378.92691,1182.448242,390.117859C1182.235352,394.522949,1181.954346,398.81842,1181.82373,399.663391C1181.442993,402.12616,1181.983276,403.919067,1183.570557,405.460693C1185.544312,407.377472,1188.035645,408.146851,1192.280762,408.150604C1197.42041,408.155151,1202.262207,408.809692,1204.102905,409.748718C1206.983887,411.218445,1210.122192,415.793152,1212.365967,421.793579C1213.269287,424.209351,1214.39856,425.734314,1215.284058,425.734314C1215.547485,425.734314,1216.099609,425.429718,1216.510986,425.057434M1130.421509,476.249664C1130.89978,475.914673,1134.02356,474.144379,1137.363159,472.315704C1140.702759,470.48703,1144.751221,468.270416,1146.359619,467.389893C1149.605957,465.61264,1152.746216,464.832123,1159.181519,464.20285C1161.8125,463.945618,1165.456421,463.20285,1168.588501,462.285431C1173.654663,460.801422,1173.776733,460.786957,1182.085327,460.683899C1186.696777,460.626709,1193.046387,460.340088,1196.195679,460.046906C1199.74292,459.716736,1209.391602,459.478149,1221.553345,459.419922C1249.481812,459.286163,1259.116699,458.833252,1267.549805,457.257813C1271.25293,456.56601,1275.535156,456,1277.066162,456C1280.058716,456,1287.114624,454.63623,1288.906494,453.711517C1290.199829,453.044006,1290.680664,451.84256,1290.093628,450.745544C1289.327393,449.313812,1287.890747,449.351624,1284.685059,450.887939C1282.250122,452.05484,1281.224365,452.319031,1279.128418,452.319031C1276.382446,452.319031,1269.113037,453.298889,1266.747437,453.987885C1264.400635,454.671417,1255.442871,455.352844,1250.141357,455.251221C1247.12439,455.193329,1244.72876,455.340973,1244.006348,455.629211C1243.1604,455.966766,1237.201416,456.087311,1223.189331,456.050201C1212.391846,456.021606,1201.901123,456.182129,1199.876587,456.40686C1197.852051,456.631622,1191.226318,456.932007,1185.152832,457.074402C1174.116455,457.33313,1174.106201,457.334198,1167.927734,458.885803C1164.527588,459.739685,1159.190186,460.745209,1156.066895,461.1203C1149.205078,461.944336,1147.227295,462.597015,1142.08374,465.734711C1136.026855,469.429626,1133.890625,470.540527,1130.553833,471.730438C1128.867798,472.331665,1127.165283,473.115875,1126.77063,473.473114C1125.942627,474.222412,1125.830322,475.654663,1126.543701,476.367981C1127.223755,477.048065,1129.375366,476.982422,1130.421509,476.249664M1061.654541,526.128113C1065.50354,525.456909,1068.680176,524.105103,1070.578979,522.3302C1071.223511,521.727783,1073.084351,519.486328,1074.714111,517.349365C1078.970947,511.767883,1082.94104,508.274353,1089.960205,503.933594C1094.343018,501.223206,1096.779541,499.169373,1098.266479,496.931702C1099.773315,494.664154,1099.777832,493.458038,1098.288208,491.10907C1095.298096,486.394226,1092.572632,480.541718,1091.913208,477.420135C1091.539185,475.6492,1090.572754,471.623627,1089.765625,468.474365C1088.167725,462.240295,1087.831909,457.762054,1088.762573,455.103149C1089.053345,454.272491,1090.204956,452.355072,1091.321777,450.842255C1092.438477,449.329437,1093.467041,447.633972,1093.607422,447.074585C1094.148071,444.920319,1092.108398,443.824951,1090.584839,445.451355C1090.101929,445.966858,1088.553711,448.597198,1087.144287,451.296539C1083.977051,457.362427,1083.945923,457.956635,1086.286377,467.656372C1087.209229,471.480469,1088.262451,476.339661,1088.627075,478.454559C1089.36792,482.751801,1090.047241,484.321655,1092.519531,487.449219C1095.455933,491.164185,1096.063477,493.773895,1094.625854,496.496948C1094.061646,497.565613,1093.126099,498.300171,1090.885742,499.433807C1087.199829,501.298767,1083.021484,504.160675,1079.657471,507.124451C1078.253174,508.361664,1076.430176,509.888275,1075.606323,510.516907C1074.782471,511.145508,1073.717773,512.433838,1073.240112,513.379883C1069.145264,521.490601,1061.030884,525.065186,1051.705078,522.866455C1046.449341,521.62738,1043.737061,519.498291,1040.305054,513.917969C1039.044678,511.868652,1037.121948,508.84967,1036.032349,507.209106C1033.503174,503.401215,1033.007202,501.763092,1033.449707,498.679291C1033.874023,495.721527,1033.783813,494.89563,1032.933594,493.956116C1032.058594,492.989288,1031.359375,493.025085,1030.293213,494.091278C1029.504028,494.880432,1029.444092,495.262146,1029.666016,498.07901C1029.801147,499.792267,1030.352295,502.700867,1030.890869,504.542572C1031.678345,507.235138,1032.28833,508.39151,1034.004395,510.445313C1035.178223,511.850067,1036.78186,514.276733,1037.567993,515.837769C1039.546387,519.766357,1042.128052,522.400024,1045.671265,524.104248C1051.260986,526.792725,1055.074219,527.275635,1061.654541,526.128113M1089.161499,494.3638C1090.106079,493.41925,1089.634277,492.073639,1087.405273,489.354309C1084.915894,486.317322,1084.326538,484.735718,1083.331055,478.42038C1082.987793,476.242432,1082.049072,471.733276,1081.245117,468.399963C1079.237183,460.075623,1078.983887,458.338959,1079.432251,455.974426C1079.872437,453.653381,1084.206055,445.522522,1086.962891,441.845306C1088.532959,439.751038,1089.006104,438.659668,1089.88916,435.096893C1090.468628,432.759338,1091.303101,427.907898,1091.743774,424.315979C1092.762573,416.011108,1093.433472,412.798462,1095.230713,407.616699C1097.858521,400.040527,1099.192383,398.15976,1109.963623,386.84436C1114.619263,381.9534,1114.960083,381.476746,1116.793213,377.29071C1120.524414,368.771149,1122.06543,367.247925,1126.953125,367.247925C1129.654785,367.247925,1130.55188,366.822083,1130.55188,365.539612C1130.55188,364.1091,1128.781372,363.467896,1125.271484,363.627289C1122.488281,363.753693,1121.870117,363.920288,1120.936035,364.795593C1119.087524,366.527771,1115.66333,371.731659,1113.203003,376.547882C1111.213135,380.443146,1110.358398,381.628632,1107.600586,384.318787C1105.810669,386.064758,1103.317749,388.824158,1102.060791,390.450897C1100.803833,392.077637,1098.994873,394.048157,1098.040894,394.829895C1096.603516,396.00769,1095.950439,397.080322,1094.22937,401.090454C1091.317627,407.874573,1089.778564,413.714874,1088.812866,421.644226C1087.428345,433.012756,1086.388916,436.390503,1082.169678,443.232208C1078.424805,449.304626,1075.337402,455.565704,1075.337402,457.087585C1075.337402,457.853546,1075.606445,459.123962,1075.935181,459.910736C1076.263916,460.69751,1076.735107,462.486053,1076.982178,463.885315C1077.22937,465.284546,1077.964355,468.72998,1078.615601,471.54184C1079.266846,474.353668,1080.000122,478.310699,1080.245117,480.335236C1080.490234,482.359772,1080.861572,484.66037,1081.070313,485.447693C1081.445923,486.864075,1084.83728,492.557556,1086.206909,494.070923C1087.008423,494.956604,1088.427979,495.097321,1089.161499,494.3638M1128.31604,467.037476C1132.593018,465.33847,1134.975098,464.101593,1139.885254,461.030334C1145.23291,457.685333,1147.141968,457.043762,1154.800659,456.017517C1158.222412,455.559021,1163.506714,454.521912,1166.543457,453.71286L1172.064941,452.241821L1184.743774,451.899323C1191.717163,451.710999,1199.079102,451.366699,1201.103638,451.134277C1203.320313,450.879761,1211.943481,450.774109,1222.780396,450.868622C1233.474365,450.961884,1241.398926,450.866577,1242.311035,450.633759C1244.140381,450.166748,1244.790161,449.251556,1245.615356,445.979614C1246.51709,442.40451,1249.279297,436.668701,1251.397949,433.971863C1253.755005,430.971802,1254.337402,428.434509,1253.400513,425.246613C1252.357422,421.696869,1251.279053,420.133484,1249.194946,419.14917C1243.454468,416.43808,1241.414917,415.948853,1239.924316,416.925476C1238.852905,417.627502,1238.539307,419.715149,1239.423218,420.261414C1239.691406,420.427124,1241.445068,420.68457,1243.32019,420.833496C1246.330566,421.072632,1246.877686,421.243591,1247.995483,422.294586C1251.444458,425.537598,1251.11792,429.384552,1246.960327,434.488983C1245.193115,436.658752,1244.757324,437.688171,1243.446045,442.79129C1242.938599,444.7659,1241.403442,446.762482,1239.725342,447.63028C1238.141602,448.449219,1236.248047,448.381683,1233.163086,447.396149C1230.622803,446.584656,1230.448486,446.580872,1226.382446,447.248108C1222.844971,447.828613,1221.224365,447.87088,1215.746338,447.525482C1209.304321,447.119293,1202.371948,447.354919,1194.968628,448.231689C1192.502075,448.523804,1190.368164,448.536713,1188.500122,448.270905C1186.666016,448.009857,1184.847534,448.015228,1183.183228,448.28656C1181.792114,448.513336,1179.089355,448.582001,1177.177368,448.439178C1174.269165,448.221893,1173.306885,448.316925,1171.290039,449.020599C1169.963989,449.483215,1167.66333,450.06189,1166.17749,450.306549C1164.69165,450.551208,1162.187744,451.098816,1160.613037,451.523499C1159.038452,451.948151,1155.314575,452.578339,1152.337891,452.923889C1145.69043,453.695618,1143.795898,454.384674,1138.099609,458.102264C1132.681152,461.63855,1129.38855,463.250427,1126.898804,463.585602C1123.591675,464.030823,1122.394287,464.562073,1122.105591,465.712189C1121.90271,466.520569,1122.05896,466.949524,1122.764648,467.520874C1124.014893,468.533295,1124.700928,468.473541,1128.31604,467.037476"/>
</svg>
