<?xml version="1.0" encoding="UTF-8"?>
<svg xmlns="http://www.w3.org/2000/svg" width="200.036mm" height="200.004mm" viewBox="-900.009277 -600.004395 200.036133 200.003845">
    <path transform="matrix(-1,0,0,-1,0,0)" style="stroke:#000000;stroke-width:0.05mm;fill:none" d="M801.288025,400.007996C833.145447,400.381836,862.910767,415.942352,881.400024,441.888C898.697388,466.112366,904.301575,496.784119,896.687988,525.559998C890.937195,547.315674,878.013306,566.494263,860.007996,579.992004C827.466248,604.399292,783.387512,606.67627,748.504028,585.752014C729.818726,574.529053,715.311829,557.507874,707.192017,537.280029C697.183105,512.415283,697.5896,484.570038,708.320007,460.007996C724.407837,423.118195,761.046448,399.472229,801.288025,400.007996z"/>
    <path transform="matrix(-1,0,0,-1,0,0)" style="stroke:#000000;stroke-width:0.05mm;fill:none" d="M806.231995,582.072021C802.919617,582.131226,799.680298,583.052124,796.83197,584.744019C795.7323,585.490173,794.993835,586.662476,794.791992,587.976013C794.571289,589.200378,794.764343,590.462952,795.335999,591.567993C796.94519,591.656311,798.556458,591.696289,800.16803,591.687988C800.918457,590.627625,801.750366,589.627319,802.656006,588.695984C803.719116,587.759094,805.10437,587.273254,806.52002,587.335999C807.314331,587.351318,808.101807,587.486389,808.856018,587.736023C810.629883,588.394348,812.42865,588.984253,814.247986,589.504028C815.36969,589.808289,816.525757,589.967712,817.687988,589.976013C817.918884,589.955566,818.146851,589.909729,818.367981,589.840027C819.234924,589.733521,820.045654,589.352539,820.679993,588.752014C821.05481,588.496826,821.351013,588.14209,821.536011,587.728027C821.547363,587.554199,821.522034,587.380249,821.463989,587.216003C821.255066,586.541565,820.827209,585.955811,820.247986,585.552002C818.745117,584.627686,817.110413,583.937134,815.400024,583.504028C812.449463,582.501465,809.347717,582.017212,806.231995,582.072021z"/>
    <path transform="matrix(-1,0,0,-1,0,0)" style="stroke:#000000;stroke-width:0.05mm;fill:none" d="M807.096008,570.432007C806.101624,570.643921,805.121155,570.916443,804.159973,571.247986C800.697021,572.444946,797.168457,573.443909,793.59198,574.23999C792.660767,574.494263,791.753357,574.828796,790.880005,575.23999C789.611267,575.984314,788.448792,576.89679,787.424011,577.952026C786.391785,578.943542,785.717651,580.248779,785.504028,581.664001C785.321899,583.623718,784.916199,585.556091,784.296021,587.424011C783.878296,588.304077,783.609924,589.24762,783.504028,590.216003C785.782166,590.624084,788.074341,590.949646,790.375977,591.192017C790.16571,590.262939,789.938904,589.337158,789.695984,588.416016C789.582275,587.839355,789.536316,587.251282,789.559998,586.664001C789.798157,585.3078,790.394165,584.039429,791.288025,582.992004C792.574585,581.36377,794.26947,580.105164,796.200012,579.343994C799.573792,578.155396,803.05365,577.292847,806.59198,576.768005C807.03363,576.725342,807.478333,576.725708,807.919983,576.768005C811.240906,577.205017,814.493225,578.059937,817.599976,579.312012C818.87207,579.800049,820.163818,580.235046,821.471985,580.616028C821.863892,580.702576,822.258789,580.774719,822.656006,580.83197C826.602173,580.833435,830.546448,580.676025,834.47998,580.359985C835.757385,580.250427,837.032288,580.114441,838.304016,579.952026C838.90686,579.738342,839.424011,579.333984,839.776001,578.799988C840.798828,577.426025,841.025452,575.616943,840.375977,574.031982C840.214783,573.684509,839.980469,573.375305,839.687988,573.127991C839.064026,572.728455,838.308411,572.588623,837.583984,572.744019C836.68927,572.883057,835.818787,573.149414,835,573.536011C832.605042,574.759216,829.934937,575.34314,827.247986,575.231995C822.568726,575.122314,817.952271,574.131836,813.640015,572.312012C812.183289,571.607544,810.690491,570.980103,809.16803,570.432007C808.818237,570.318848,808.455139,570.251648,808.088013,570.231995L807.096008,570.432007z"/>
    <path transform="matrix(-1,0,0,-1,0,0)" style="stroke:#000000;stroke-width:0.05mm;fill:none" d="M827.952026,585.031982C826.10083,584.987183,824.311279,585.7005,823,587.007996C822.864685,587.302307,822.866211,587.64093,823,587.935974C823.095398,588.199463,823.225586,588.448792,823.383972,588.679993C826.647827,587.827148,829.860901,586.790955,833.007996,585.575989C832.276123,585.511597,831.549194,585.399475,830.83197,585.23999C829.882324,585.066833,828.916748,584.997009,827.952026,585.031982z"/>
    <path transform="matrix(-1,0,0,-1,0,0)" style="stroke:#000000;stroke-width:0.05mm;fill:none" d="M763.143982,565.088013C760.144897,565.554871,757.2276,566.44635,754.47998,567.736023C753.933899,568.009399,753.421936,568.346008,752.952026,568.736023C750.840088,570.628296,748.916199,572.720581,747.208008,574.984009C748.985596,576.260132,750.819336,577.455994,752.703979,578.567993C752.837158,577.452698,753.199768,576.376892,753.768005,575.40802C755.711914,572.829285,758.723999,571.274353,761.952026,571.184021C763.024902,571.151489,764.080017,571.465515,764.960022,572.080017C766.199219,572.872681,767.305725,573.855713,768.23999,574.992004C770.490601,577.571838,772.272217,580.525696,773.504028,583.719971C773.968628,584.833801,774.596069,585.872314,775.367981,586.799988C776.082336,587.585205,777.173035,587.90863,778.200012,587.640015C778.505554,587.563904,778.792603,587.426941,779.039978,587.231995L779.176025,587.104004C780.17804,585.738892,780.724854,584.093445,780.736023,582.400024C780.679565,581.066162,780.019287,579.831299,778.94397,579.039978C778.275635,578.514771,777.587158,578.015686,776.880005,577.544006C775.286438,576.354187,774.088257,574.712097,773.440002,572.83197C773.133789,572.033386,772.770386,571.257996,772.35199,570.512024C772.245667,570.354736,772.124695,570.207825,771.992004,570.072021C769.830139,568.397644,767.52832,566.912231,765.112,565.632019C764.544128,565.216919,763.84436,565.023254,763.143982,565.088013z"/>
    <path transform="matrix(-1,0,0,-1,0,0)" style="stroke:#000000;stroke-width:0.05mm;fill:none" d="M760.567993,576.320007C760.081299,576.347412,759.6073,576.486267,759.184021,576.728027C758.361267,577.36731,757.717957,578.208435,757.312012,579.16803C757.073303,580.008545,757.325806,580.91156,757.968018,581.504028C761.696533,583.451477,765.562805,585.122681,769.536011,586.504028C768.464966,584.227356,767.252075,582.020386,765.903992,579.895996C765.35791,579.079346,764.75946,578.298889,764.112,577.559998C763.32373,576.716431,762.2005,576.267883,761.047974,576.335999C760.888306,576.323608,760.728149,576.317505,760.567993,576.320007z"/>
    <path transform="matrix(-1,0,0,-1,0,0)" style="stroke:#000000;stroke-width:0.05mm;fill:none" d="M849,573.080017C847.90564,573.201355,846.900757,573.741333,846.192017,574.583984C845.032349,575.852234,844.413147,577.522217,844.463989,579.23999C844.482788,579.535889,844.537659,579.828308,844.624023,580.112C847.398865,578.577942,850.085632,576.890076,852.671997,575.05603C851.994385,573.68158,850.520264,572.887451,849,573.080017z"/>
    <path transform="matrix(-1,0,0,-1,0,0)" style="stroke:#000000;stroke-width:0.05mm;fill:none" d="M779.768005,565.776001C779.041443,565.79541,778.334534,566.012024,777.719971,566.400024C776.990234,566.936157,776.645447,567.851685,776.840027,568.736023C777.558716,571.376831,779.21759,573.663757,781.504028,575.16803C781.996704,575.416626,782.560791,575.478149,783.096008,575.343994C784.555359,574.964417,785.73468,573.889893,786.247986,572.471985C786.480103,571.802979,786.492126,571.078064,786.288025,570.400024C785.551086,568.397522,783.972351,566.819946,781.968018,566.088013C781.261047,565.846008,780.514404,565.740295,779.768005,565.776001z"/>
    <path transform="matrix(-1,0,0,-1,0,0)" style="stroke:#000000;stroke-width:0.05mm;fill:none" d="M760.52002,553.231995C760.07782,553.240112,759.639404,553.312195,759.216003,553.440002C756.955505,554.215881,754.86261,555.41272,753.047974,556.968018C751.31134,558.46936,749.327209,559.657471,747.184021,560.47998C745.93396,560.849976,744.762207,561.446289,743.728027,562.23999C741.723328,563.901489,739.897461,565.767517,738.280029,567.807983C739.892395,569.289856,741.562988,570.707092,743.288025,572.05603C743.973633,571.306396,744.59198,570.497925,745.135986,569.640015C745.800049,568.698547,746.567505,567.834534,747.424011,567.064026C749.322388,565.294556,751.467651,563.810181,753.791992,562.656006C755.704773,561.868469,757.694153,561.281311,759.728027,560.903992C760.554871,560.707642,761.35907,560.425964,762.127991,560.064026C762.897949,559.647461,763.43103,558.896606,763.567993,558.031982C763.735046,556.606018,763.386353,555.166626,762.583984,553.976013L762.47998,553.856018C762.108154,553.464172,761.588257,553.245056,761.047974,553.247986C760.872681,553.229492,760.696228,553.226379,760.52002,553.231995z"/>
    <path transform="matrix(-1,0,0,-1,0,0)" style="stroke:#000000;stroke-width:0.05mm;fill:none" d="M857.552002,555.752014C856.711426,555.80481,855.919189,556.160156,855.320007,556.752014C854.430969,557.444092,853.888184,558.490356,853.840027,559.616028C853.772278,560.320496,853.751465,561.028687,853.776001,561.736023C853.778748,563.276184,853.661072,564.814209,853.424011,566.335999C853.169006,567.186157,853.05957,568.073547,853.104004,568.960022C853.344604,570.719543,854.90863,571.990417,856.679993,571.864014L857,571.823975C857.904785,571.113892,858.792908,570.382996,859.664001,569.632019C859.822083,569.053467,859.89856,568.45575,859.895996,567.856018C859.790039,565.588196,859.994995,563.316467,860.504028,561.104004C860.781433,560.280579,860.897522,559.411499,860.848022,558.544006C860.673767,556.88147,859.220642,555.651367,857.552002,555.752014z"/>
    <path transform="matrix(-1,0,0,-1,0,0)" style="stroke:#000000;stroke-width:0.05mm;fill:none" d="M814.744019,534C813.342346,534.245239,812.179565,535.221741,811.695984,536.559998C811.287598,537.910828,811.377014,539.363708,811.94397,540.656006C812.570129,542.368713,812.7724,544.207825,812.536011,546.015991C812.458923,546.790649,812.322327,547.558167,812.127991,548.312012C811.54187,550.32605,810.901489,552.324341,810.208008,554.304016C809.955566,555.159851,809.855164,556.053467,809.911987,556.94397C810.208252,559.014893,810.520386,561.085571,810.848022,563.151978C810.926575,564.656921,811.752136,566.022705,813.047974,566.791992C817.191223,569.007385,821.791565,570.231628,826.487976,570.367981C827.982666,570.381409,829.471924,570.18457,830.911987,569.783997C832.282166,569.515503,833.622131,569.110596,834.911987,568.575989C836.638,567.46405,837.138733,565.164246,836.023987,563.440002C835.465149,562.612305,834.569153,562.072937,833.575989,561.968018C832.862122,561.952271,832.153137,562.088684,831.495972,562.367981C830.520813,562.749512,829.592346,563.240906,828.728027,563.83197C827.652161,564.489685,826.454834,564.923767,825.208008,565.112C823.861572,565.191467,822.514038,564.970581,821.263977,564.463989C819.556519,563.929932,818.019714,562.956238,816.807983,561.640015C815.946289,560.62384,815.477173,559.332275,815.487976,558C815.572571,557.244263,815.711548,556.495667,815.903992,555.76001C816.533081,553.665527,817.077454,551.546387,817.536011,549.40802C817.798462,547.768799,818.071045,546.101196,818.343994,544.463989C818.780334,542.560303,819.018555,540.616699,819.05603,538.664001C819.015442,537.13855,818.31427,535.70575,817.135986,534.736023C816.451294,534.214355,815.603455,533.952576,814.744019,534z"/>
    <path transform="matrix(-1,0,0,-1,0,0)" style="stroke:#000000;stroke-width:0.05mm;fill:none" d="M846.007996,558.007996C844.918945,558.138672,843.926575,558.700012,843.255981,559.567993C842.283264,560.713257,841.590088,562.068726,841.231995,563.528015C841.095703,564.087769,840.986572,564.653809,840.903992,565.223999C840.785461,566.407349,840.967041,567.601379,841.432007,568.695984C841.812683,569.41748,842.480591,569.946045,843.271973,570.143982C844.238831,570.285522,845.225525,570.096069,846.072021,569.607971C847.193481,569.062561,848.025146,568.059509,848.35199,566.856018C848.677795,565.325378,848.84375,563.764954,848.848022,562.200012C848.929749,561.393616,848.890442,560.579712,848.736023,559.783997C848.279724,558.686646,847.196106,557.980652,846.007996,558.007996z"/>
    <path transform="matrix(-1,0,0,-1,0,0)" style="stroke:#000000;stroke-width:0.05mm;fill:none" d="M803.119995,557.728027C802.976563,557.741638,802.8349,557.772461,802.703979,557.83197C802.020752,558.230652,801.386902,558.708435,800.815979,559.255981C799.579224,560.485962,798.365295,561.739929,797.176025,563.015991C795.439087,562.864136,793.699646,562.728027,791.960022,562.607971C791.493408,562.595459,791.027466,562.649475,790.575989,562.768005C789.679443,563.200684,789.007507,563.990906,788.719971,564.94397C788.674194,565.091736,788.649597,565.245544,788.656006,565.400024C788.701294,566.911072,789.423096,568.321777,790.624023,569.23999C791.146362,569.601746,791.764709,569.800232,792.400024,569.807983C792.702271,569.758423,793.001404,569.691528,793.296021,569.607971C795.838989,568.743591,798.397278,567.921936,800.968018,567.143982C802.464722,566.780823,803.916382,566.252563,805.296021,565.567993C805.452759,565.45697,805.577087,565.30719,805.664001,565.135986C805.901611,564.697205,806.050354,564.216064,806.104004,563.719971C806.368042,561.962097,805.922852,560.171814,804.864014,558.744019C804.678162,558.507813,804.477234,558.283875,804.263977,558.072021C804.041199,557.919373,803.795471,557.80304,803.536011,557.728027C803.397583,557.716187,803.258606,557.718811,803.119995,557.728027z"/>
    <path transform="matrix(-1,0,0,-1,0,0)" style="stroke:#000000;stroke-width:0.05mm;fill:none" d="M867.143982,559.288025C866.525574,559.344116,865.975159,559.702515,865.664001,560.23999C865.334106,560.864929,865.110718,561.540894,865.007996,562.23999C864.912415,563.123413,864.837769,564.009033,864.783997,564.895996C866.337158,563.321411,867.847046,561.704895,869.312012,560.047974C868.743408,559.47644,867.944885,559.195557,867.143982,559.288025z"/>
    <path transform="matrix(-1,0,0,-1,0,0)" style="stroke:#000000;stroke-width:0.05mm;fill:none" d="M770.927979,533.695984C769.120911,533.933228,767.657593,535.276428,767.263977,537.05603C766.947388,538.456665,767.075195,539.921021,767.624023,541.247986C767.99054,542.314941,768.189941,543.43219,768.216003,544.559998C768.141724,546.023071,767.845032,547.46637,767.335999,548.840027C767.163818,549.432495,767.078918,550.047119,767.088013,550.664001C767.181458,551.517944,767.364014,552.359863,767.632019,553.176025C768.04071,554.635193,768.21582,556.150024,768.151978,557.664001C768.054199,558.411926,768.009155,559.16571,768.015991,559.919983C768.089417,561.113525,768.634766,562.228882,769.528015,563.023987C770.852051,564.273682,772.713928,564.777222,774.487976,564.367981L774.687988,564.304016C774.758545,564.258972,774.831116,564.217224,774.903992,564.176025L775.039978,564.05603C775.275635,563.809753,775.437073,563.502258,775.504028,563.16803L775.544006,562.895996C775.523254,561.25177,775.174744,559.628357,774.52002,558.119995C774.034363,556.849243,773.70166,555.525269,773.528015,554.176025C773.246643,550.112305,773.337646,546.031189,773.799988,541.984009C774.053589,540.38916,774.216614,538.781311,774.288025,537.16803C774.309631,535.893127,773.665588,534.699341,772.583984,534.023987C772.079956,533.743347,771.500671,533.62677,770.927979,533.695984z"/>
    <path transform="matrix(-1,0,0,-1,0,0)" style="stroke:#000000;stroke-width:0.05mm;fill:none" d="M733.815979,555.728027C731.956787,555.782959,730.250732,556.773376,729.280029,558.359985C730.973083,560.433716,732.767334,562.422791,734.656006,564.320007C736.085327,563.244324,737.28064,561.889221,738.16803,560.335999C738.630249,559.386169,738.533386,558.259949,737.919983,557.400024C737.090088,556.419067,735.891235,555.825256,734.607971,555.76001C734.345215,555.728149,734.080383,555.716431,733.815979,555.728027z"/>
    <path transform="matrix(-1,0,0,-1,0,0)" style="stroke:#000000;stroke-width:0.05mm;fill:none" d="M781.447998,528.487976C780.224792,528.641541,779.14801,529.368835,778.552002,530.447998C778.38678,530.788025,778.279602,531.153015,778.231995,531.528015C778.145508,532.489807,778.25647,533.459229,778.559998,534.375977C779.076111,536.118286,779.274231,537.939575,779.143982,539.752014C779.083008,541.120056,778.900696,542.480042,778.599976,543.815979C778.127991,546.356384,778.039124,548.953247,778.335999,551.52002C778.635925,554.271606,779.154968,556.994934,779.888,559.664001C780.13916,560.317139,780.593567,560.872437,781.184021,561.247986C782.339111,562.088562,783.812317,562.362427,785.192017,561.992004C786.102722,561.673401,786.763672,560.881348,786.911987,559.927979C786.921631,559.567383,786.868042,559.208191,786.76001,558.864014C785.93634,556.734741,785.020813,554.642029,784.015991,552.59198C784.098267,549.491028,784.197388,546.371399,784.312012,543.271973C784.367676,542.079346,784.439758,540.886597,784.528015,539.695984C784.711304,537.970337,785.081421,536.269714,785.632019,534.624023C785.831604,533.916565,786.002625,533.201355,786.143982,532.47998C786.199402,531.407166,785.766602,530.366516,784.968018,529.64801C784.034485,528.74231,782.737244,528.315796,781.447998,528.487976z"/>
    <path transform="matrix(-1,0,0,-1,0,0)" style="stroke:#000000;stroke-width:0.05mm;fill:none" d="M826.47998,541.119995C825.355591,541.171387,824.346619,541.822998,823.83197,542.823975C823.370544,543.928528,823.09375,545.101501,823.015991,546.296021C822.898499,548.384583,822.536255,550.452087,821.935974,552.455994C821.55896,553.471375,821.240906,554.507751,820.984009,555.559998C820.814453,556.370728,820.793884,557.205383,820.919983,558.023987C821.025696,558.502136,821.252258,558.944641,821.575989,559.312012C822.706238,560.2453,824.224121,560.559631,825.632019,560.151978C826.269897,560,826.859131,559.689392,827.343994,559.247986C828.159485,558.48761,828.512878,557.3526,828.271973,556.263977C828.093384,555.33667,827.920166,554.409119,827.752014,553.47998C827.558228,552.028259,827.854248,550.553223,828.59198,549.288025C829.265808,548.251099,829.921814,547.203186,830.559998,546.143982C830.835632,545.612488,830.944519,545.010315,830.872009,544.416016C830.772278,543.806641,830.540894,543.226807,830.200012,542.711975C829.286987,541.615723,827.90332,541.0224,826.47998,541.119995z"/>
    <path transform="matrix(-1,0,0,-1,0,0)" style="stroke:#000000;stroke-width:0.05mm;fill:none" d="M836.335999,548.359985C835.337952,548.451843,834.432678,548.987854,833.880005,549.823975C833.540771,550.287109,833.303101,550.816101,833.176025,551.375977C832.868103,552.549561,832.755554,553.765686,832.840027,554.976013C832.798157,556.111023,833.358765,557.182495,834.312012,557.799988C835.573792,558.639404,837.201172,558.698608,838.52002,557.952026C839.887878,557.220398,840.835205,555.891846,841.080017,554.359985C841.357422,552.815308,840.973999,551.22522,840.023987,549.976013C839.135254,548.86377,837.756287,548.261047,836.335999,548.359985z"/>
    <path transform="matrix(-1,0,0,-1,0,0)" style="stroke:#000000;stroke-width:0.05mm;fill:none" d="M793.536011,534.031982C792.093079,534.090149,790.825989,535.007446,790.320007,536.359985C790.200684,536.655396,790.107788,536.960693,790.039978,537.271973C789.265381,541.467468,788.975525,545.738342,789.176025,550C789.338013,552.367249,789.853088,554.697021,790.703979,556.911987C791.001953,557.45166,791.506348,557.848755,792.104004,558C793.366821,558.426208,794.757019,558.211914,795.83197,557.424011C796.668945,556.952637,797.158325,556.038025,797.088013,555.080017C797.080627,554.483887,796.971863,553.893311,796.76001,553.335999C796.299438,552.230896,795.800598,551.142273,795.263977,550.072021C794.480286,548.320251,794.317627,546.353394,794.799988,544.495972C795.127258,543.146667,795.626953,541.84491,796.288025,540.624023C796.732971,539.667175,797.07782,538.667053,797.320007,537.640015C797.378479,537.138672,797.328674,536.630493,797.16803,536.151978C796.465088,534.806213,795.053467,533.982178,793.536011,534.031982z"/>
    <path transform="matrix(-1,0,0,-1,0,0)" style="stroke:#000000;stroke-width:0.05mm;fill:none" d="M760.271973,541.16803C759.795898,541.175598,759.324158,541.258728,758.872009,541.40802C757.418152,541.825928,756.030884,542.447937,754.752014,543.255981C752.129517,545.032898,749.436768,546.703552,746.679993,548.263977C745.335022,548.911865,744.049927,549.677429,742.840027,550.552002C742.14563,551.102051,741.535828,551.751404,741.031982,552.47998C740.544739,553.308533,740.423767,554.302124,740.695984,555.223999C741.069946,556.242249,742.069397,556.8927,743.151978,556.823975C744.264221,556.811218,745.350952,556.487305,746.288025,555.888C748.137756,554.677124,749.892334,553.326599,751.536011,551.848022C752.528503,551.0047,753.615906,550.279968,754.776001,549.687988C756.073242,549.146423,757.458862,548.847778,758.864014,548.807983C759.911316,548.749756,760.941711,548.518555,761.911987,548.119995C762.546082,547.773987,762.999207,547.169983,763.151978,546.463989C763.511658,545.20459,763.43927,543.860474,762.94397,542.64801C762.547607,541.744751,761.650391,541.167969,760.664001,541.16803L760.271973,541.16803z"/>
    <path transform="matrix(-1,0,0,-1,0,0)" style="stroke:#000000;stroke-width:0.05mm;fill:none" d="M743.432007,524.280029C742.52594,524.316162,741.659058,524.659546,740.976013,525.255981C740.166687,525.939209,739.44635,526.721252,738.83197,527.583984C738.124146,528.530029,737.277222,529.363403,736.320007,530.05603C733.443237,531.933838,730.497253,533.702942,727.487976,535.359985C725.906494,536.287292,724.37616,537.299377,722.903992,538.392029C721.484863,539.544312,720.560364,541.195862,720.320007,543.007996C720.215027,543.65863,720.129639,544.312256,720.064026,544.968018C722.011169,548.420227,724.181091,551.741821,726.559998,554.911987C726.863098,554.473999,727.054443,553.968628,727.119995,553.440002C727.057007,553.095947,726.992981,552.75177,726.927979,552.40802C726.364197,550.36499,725.712952,548.347107,724.976013,546.359985C725.312988,545.542053,725.678467,544.736206,726.072021,543.94397C726.578857,543.020386,727.280396,542.217651,728.127991,541.59198C728.881165,540.984436,729.683777,540.440918,730.528015,539.968018C735.624573,537.17218,740.550598,534.075989,745.280029,530.695984C745.817688,530.281311,746.345703,529.854675,746.864014,529.416016C747.530945,528.610474,747.63269,527.474915,747.112,526.567993C746.633545,525.631775,745.844177,524.891357,744.880005,524.471985C744.41626,524.307251,743.922852,524.244202,743.432007,524.280029z"/>
    <path transform="matrix(-1,0,0,-1,0,0)" style="stroke:#000000;stroke-width:0.05mm;fill:none" d="M864.447998,546.671997C863.004333,546.758911,861.667358,547.462769,860.783997,548.607971C860.194702,549.505554,860.201294,550.66864,860.799988,551.559998C861.379089,552.438416,862.175598,553.152283,863.112,553.632019C865.223999,554.793152,867.711914,555.064453,870.023987,554.383972C871.164612,554.01593,872.039124,553.092957,872.35199,551.935974C872.572327,551.185547,872.589966,550.390686,872.400024,549.632019C872.188477,548.976807,871.725708,548.43219,871.112,548.119995C869.091736,547.237427,866.923157,546.742981,864.719971,546.664001L864.447998,546.671997z"/>
    <path transform="matrix(-1,0,0,-1,0,0)" style="stroke:#000000;stroke-width:0.05mm;fill:none" d="M847.783997,544.64801C847.173584,544.769287,846.61853,545.083374,846.200012,545.544006C845.184448,546.506836,844.729309,547.921448,844.992004,549.296021C845.199219,550.805481,845.863892,552.215271,846.895996,553.335999C848.323303,554.496582,850.30957,554.682678,851.927979,553.807983C853.385864,553.079102,854.574097,551.905212,855.320007,550.455994L855.359985,550.312012C855.426331,550.002136,855.35907,549.680115,855.184021,549.416016C855.110901,549.278625,855.030273,549.145508,854.94397,549.015991C853.319519,547.170715,851.287048,545.729919,849.007996,544.807983C848.694824,544.711609,848.373779,544.643372,848.047974,544.607971L847.783997,544.64801z"/>
    <path transform="matrix(-1,0,0,-1,0,0)" style="stroke:#000000;stroke-width:0.05mm;fill:none" d="M804.104004,539.856018C803.060181,539.899597,802.094299,540.418945,801.47998,541.263977C801.020203,541.82605,800.67688,542.473755,800.463989,543.16803C799.771484,545.825928,799.88269,548.629456,800.783997,551.223999C801.057922,551.954773,801.417297,552.650574,801.856018,553.296021C802.198792,553.735229,802.656128,554.071594,803.176025,554.271973C803.407288,554.305481,803.642517,554.299866,803.872009,554.255981C804.640747,553.896606,805.266541,553.289917,805.656006,552.536011C807.077148,549.639832,807.702209,546.417297,807.463989,543.200012C807.334839,542.232483,806.895752,541.332703,806.208008,540.640015C805.6427,540.103516,804.882629,539.822876,804.104004,539.856018z"/>
    <path transform="matrix(-1,0,0,-1,0,0)" style="stroke:#000000;stroke-width:0.05mm;fill:none" d="M761.216003,529.687988C761.01239,529.699219,760.809265,529.719116,760.607971,529.752014C757.964294,530.340942,755.331055,530.981201,752.711975,531.671997C751.781494,531.985107,750.911255,532.453735,750.135986,533.05603C749.160583,533.902161,748.140442,534.69519,747.080017,535.432007C743.546509,537.982605,739.85376,540.304565,736.023987,542.383972C734.386536,543.12384,732.872498,544.110962,731.536011,545.312012C730.518677,546.385254,730.160217,547.924133,730.599976,549.335999C731.056213,550.63031,732.275635,551.498779,733.64801,551.504028L733.911987,551.528015C734.536804,551.545105,735.152466,551.371521,735.671997,551.023987C736.705994,550.192627,737.659363,549.265747,738.52002,548.255981C740.275818,546.366333,742.37439,544.827515,744.703979,543.719971C747.061707,542.471313,749.304932,541.017639,751.40802,539.375977C752.607117,538.466003,753.912903,537.706116,755.296021,537.112C756.603088,536.612427,758.019348,536.468262,759.400024,536.695984C760.16333,536.818359,760.944763,536.758789,761.679993,536.52002C762.548218,536.206543,763.282349,535.6026,763.752014,534.807983C764.288391,534.064636,764.489014,533.129822,764.304016,532.231995C764.038147,531.436462,763.533691,530.742249,762.856018,530.247986C762.578491,529.960999,762.21814,529.767883,761.823975,529.703979C761.621704,529.688721,761.418823,529.684143,761.216003,529.687988z"/>
    <path transform="matrix(-1,0,0,-1,0,0)" style="stroke:#000000;stroke-width:0.05mm;fill:none" d="M880.104004,544.072021C879.261047,544.26001,878.453308,544.580872,877.711975,545.023987C877.011841,545.557861,876.59668,546.383606,876.583984,547.263977C876.55304,548.028931,876.800171,548.779419,877.280029,549.375977C878.398071,547.618347,879.459961,545.825195,880.463989,544L880.104004,544.072021z"/>
    <path transform="matrix(-1,0,0,-1,0,0)" style="stroke:#000000;stroke-width:0.05mm;fill:none" d="M848.35199,527.984009C846.690979,528.12561,845.323914,529.348755,845,530.984009C844.85791,531.815857,845.016052,532.670349,845.440002,533.400024C846.714539,536.032227,848.60199,538.320435,850.94397,540.072021C853.043152,541.380493,855.127563,542.717651,857.192017,544.080017C857.583252,544.313477,858.019104,544.462646,858.471985,544.512024C860.253967,544.384277,861.693237,543.007019,861.895996,541.231995C862.003845,540.397461,861.743713,539.556335,861.184021,538.927979C860.814026,538.469849,860.357117,538.089783,859.840027,537.807983C858.816833,537.306519,857.744629,536.911682,856.640015,536.632019C855.472778,536.282898,854.418457,535.631714,853.583984,534.744019C852.920166,533.87915,852.395508,532.915833,852.031982,531.888C851.68811,530.799805,851.230286,529.750854,850.664001,528.76001C850.2948,528.288208,849.734924,528.003479,849.135986,527.992004C848.876831,527.94696,848.611755,527.942932,848.35199,527.984009z"/>
    <path transform="matrix(-1,0,0,-1,0,0)" style="stroke:#000000;stroke-width:0.05mm;fill:none" d="M837.616028,535.263977C836.475525,535.253174,835.402649,535.807251,834.752014,536.744019C834.18634,537.516174,833.86969,538.443115,833.848022,539.400024C833.815674,541.049194,834.716675,542.575195,836.176025,543.343994C837.286743,543.952576,838.542664,544.246216,839.807983,544.192017C840.410278,544.230835,841.014099,544.140259,841.575989,543.919983C842.480225,543.444885,843.230408,542.7229,843.744019,541.840027C843.948364,541.395447,843.975769,540.891602,843.83197,540.424011C843.497986,538.997192,842.772034,537.692444,841.736023,536.656006C840.848145,535.82843,839.699524,535.337341,838.487976,535.263977L837.616028,535.263977z"/>
    <path transform="matrix(-1,0,0,-1,0,0)" style="stroke:#000000;stroke-width:0.05mm;fill:none" d="M868.872009,534.471985C866.826233,534.569641,865.21814,536.25592,865.216003,538.304016C865.239807,538.834229,865.381226,539.35199,865.624023,539.823975C866.080139,540.716675,866.805176,541.444092,867.695984,541.903992C869.320068,542.828369,871.207886,543.18042,873.05603,542.903992C873.296265,542.831665,873.531006,542.742493,873.76001,542.640015C874.562317,542.027954,875.123413,541.152771,875.343994,540.16803C875.377625,539.542664,875.239868,538.919983,874.94397,538.367981C873.825623,536.020264,871.472229,534.509216,868.872009,534.471985z"/>
    <path transform="matrix(-1,0,0,-1,0,0)" style="stroke:#000000;stroke-width:0.05mm;fill:none" d="M881.728027,531.271973C880.516846,531.32489,879.40686,531.966675,878.76001,532.992004C878.432373,533.452209,878.194397,533.970337,878.064026,534.52002C877.866577,535.410583,877.985779,536.343445,878.40802,537.151978C879.204529,538.775208,880.881042,539.777344,882.687988,539.711975C883.695007,537.606812,884.620972,535.46405,885.463989,533.288025C884.742188,531.921509,883.266479,531.125427,881.728027,531.271973z"/>
    <path transform="matrix(-1,0,0,-1,0,0)" style="stroke:#000000;stroke-width:0.05mm;fill:none" d="M732.815979,518.223999C732.079285,518.297119,731.381531,518.588013,730.807983,519.05603C729.754639,519.991211,728.790649,521.022522,727.927979,522.135986C726.81427,523.476013,725.483765,524.619629,723.992004,525.52002L717.112,529.552002C716.009766,530.225281,714.959106,530.979675,713.968018,531.807983C714.752502,533.951294,715.622559,536.062256,716.575989,538.135986C716.900146,537.395142,717.363647,536.723206,717.94397,536.159973C718.384399,535.710938,718.849243,535.286377,719.335999,534.888C721.96344,533.069397,724.667114,531.363953,727.440002,529.776001C729.645325,528.442993,731.814026,527.050476,733.94397,525.599976C734.922791,524.901367,735.733765,523.993958,736.320007,522.94397L736.416016,522.744019C737.062134,521.031799,736.21582,519.115906,734.512024,518.447998C733.970764,518.245972,733.39093,518.166931,732.815979,518.223999z"/>
    <path transform="matrix(-1,0,0,-1,0,0)" style="stroke:#000000;stroke-width:0.05mm;fill:none" d="M826.375977,527.968018C825.645508,528.099609,824.957336,528.404846,824.367981,528.856018C822.954285,529.883118,822.126465,531.532776,822.151978,533.280029C822.282227,535.346069,823.885132,537.016296,825.94397,537.231995C827.940735,537.485535,829.890686,536.501404,830.872009,534.744019C831.283875,533.9328,831.377747,532.99707,831.135986,532.119995C830.864807,531.061829,830.325623,530.090942,829.567993,529.304016C829.073914,528.714294,828.423218,528.274292,827.687988,528.047974C827.261414,527.927429,826.813843,527.898865,826.375977,527.968018z"/>
    <path transform="matrix(-1,0,0,-1,0,0)" style="stroke:#000000;stroke-width:0.05mm;fill:none" d="M804.880005,525.096008C804.44812,525.09906,804.026306,525.232971,803.671997,525.47998C801.840271,526.912903,800.609863,528.978638,800.223999,531.271973C800.164917,531.751343,800.176147,532.237,800.263977,532.711975C800.807861,534.610229,802.54541,535.916016,804.52002,535.911987C805.429382,535.929199,806.306396,535.576599,806.952026,534.935974C807.956299,534.027161,808.657959,532.832336,808.960022,531.512024C808.988403,529.711792,808.387939,527.958496,807.263977,526.552002C806.747925,525.798889,805.958801,525.277405,805.064026,525.096008L804.880005,525.096008z"/>
    <path transform="matrix(-1,0,0,-1,0,0)" style="stroke:#000000;stroke-width:0.05mm;fill:none" d="M858.359985,522.711975C857.539734,522.787354,856.786926,523.19873,856.280029,523.848022C855.598145,524.722473,855.315979,525.84314,855.504028,526.935974C855.907104,529.589417,857.694214,531.826111,860.192017,532.807983C860.704529,533.049927,861.265259,533.171753,861.83197,533.16803C863.032898,532.940063,864.04071,532.129028,864.528015,531.007996C865.102173,529.026917,864.742493,526.892334,863.552002,525.208008C862.349487,523.557678,860.399902,522.61969,858.359985,522.711975z"/>
    <path transform="matrix(-1,0,0,-1,0,0)" style="stroke:#000000;stroke-width:0.05mm;fill:none" d="M873.335999,521.424011C872.891113,521.400574,872.445129,521.448486,872.015991,521.567993C871.46167,521.7771,870.952576,522.091125,870.52002,522.495972C870.308777,522.682068,870.113464,522.885498,869.935974,523.104004C869.532654,523.467407,869.207947,523.909119,868.976013,524.400024C868.638672,526.117432,869.032532,527.89801,870.064026,529.312012C870.872131,530.332153,872.124634,530.896667,873.424011,530.823975C875.081421,530.605042,876.561401,529.676819,877.47998,528.280029C877.79187,527.775391,877.958191,527.193115,877.952026,526.599976C878.020203,525.505066,877.798645,524.411255,877.304016,523.432007C877.021118,522.91803,876.616577,522.48053,876.119995,522.16803C875.273193,521.680359,874.313171,521.424011,873.335999,521.424011z"/>
    <path transform="matrix(-1,0,0,-1,0,0)" style="stroke:#000000;stroke-width:0.05mm;fill:none" d="M837.952026,521.080017C837.232483,521.158203,836.542786,521.413818,835.952026,521.83197C833.92688,523.010559,833.04303,525.474426,833.856018,527.671997C834.278198,528.887024,835.135437,529.902832,836.263977,530.52002C837.468811,530.914673,838.77002,530.902832,839.968018,530.487976C841.695618,529.451355,842.554749,527.415955,842.088013,525.455994C841.750549,523.87854,840.851501,522.478516,839.559998,521.512024L839.335999,521.383972C838.911316,521.156372,838.432861,521.047546,837.952026,521.080017z"/>
    <path transform="matrix(-1,0,0,-1,0,0)" style="stroke:#000000;stroke-width:0.05mm;fill:none" d="M798.919983,497.911987C798.312805,498.046295,797.755676,498.348206,797.312012,498.783997C796.91803,499.070251,796.621277,499.46994,796.455994,499.928009C796.253174,500.56958,796.125793,501.232697,796.080017,501.903992C795.826599,507.521149,795.022705,513.099792,793.679993,518.559998C793.44751,519.421631,793.156189,520.266296,792.807983,521.088013C792.217163,522.220886,791.531982,523.301941,790.76001,524.320007C790.230103,525.073242,789.738892,525.852966,789.288025,526.656006C789.123108,527.027283,789.059204,527.435364,789.096008,527.840027C789.534058,529.602356,791.272034,530.715271,793.05603,530.375977C793.726746,530.272705,794.355469,529.984131,794.872009,529.544006C795.977966,528.078064,796.924683,526.498474,797.695984,524.83197C798.820068,522.788757,799.473145,520.520081,799.607971,518.192017C800.02832,514.983521,800.669678,511.807953,801.528015,508.687988C802.014648,506.828186,802.322571,504.9263,802.447998,503.007996C802.456116,502.106384,802.342102,501.207825,802.112,500.335999C801.668884,499.029419,800.53949,498.074921,799.176025,497.864014L798.919983,497.911987z"/>
    <path transform="matrix(-1,0,0,-1,0,0)" style="stroke:#000000;stroke-width:0.05mm;fill:none" d="M817.343994,519.375977C816.849121,519.383606,816.364746,519.523499,815.94397,519.783997C814.50415,520.830627,813.357727,522.229858,812.616028,523.848022C811.84436,525.797363,812.451477,528.02179,814.104004,529.312012C815.416626,530.254822,817.209717,530.141174,818.400024,529.047974C820.052124,527.569885,820.894165,525.388855,820.664001,523.184021C820.520325,522.014587,819.973999,520.931641,819.119995,520.119995C818.684204,519.738281,818.153931,519.480042,817.583984,519.375977L817.343994,519.375977z"/>
    <path transform="matrix(-1,0,0,-1,0,0)" style="stroke:#000000;stroke-width:0.05mm;fill:none" d="M769.919983,520.711975C768.196167,520.847717,766.60791,521.700928,765.544006,523.064026C764.521729,524.587952,764.894897,526.647583,766.383972,527.719971C767.50354,528.628296,768.868225,529.181702,770.304016,529.312012C771.473755,529.499939,772.672791,529.329956,773.744019,528.823975C775.087524,527.940613,775.885315,526.43158,775.856018,524.823975C775.7948,524.036621,775.461914,523.2948,774.911987,522.728027C773.657471,521.308289,771.808533,520.561646,769.919983,520.711975z"/>
    <path transform="matrix(-1,0,0,-1,0,0)" style="stroke:#000000;stroke-width:0.05mm;fill:none" d="M886.231995,518.719971C885.846252,518.721497,885.464844,518.804016,885.112,518.960022C883.534119,519.580566,882.379272,520.961182,882.047974,522.624023C881.735962,525.408447,883.678589,527.942993,886.447998,528.367981C886.700317,528.396667,886.954102,528.410156,887.208008,528.40802C888.074524,525.793335,888.808838,523.136536,889.40802,520.447998C888.744507,519.442078,887.650269,518.801636,886.447998,518.719971L886.231995,518.719971z"/>
    <path transform="matrix(-1,0,0,-1,0,0)" style="stroke:#000000;stroke-width:0.05mm;fill:none" d="M721.776001,512.872009C721.033691,512.942932,720.334778,513.250244,719.776001,513.744019C719.332092,514.10553,718.919373,514.503723,718.544006,514.935974C717.719177,515.926392,716.892517,516.907288,716.05603,517.888C714.789185,519.010132,713.414368,520.00415,711.952026,520.856018L710.840027,521.528015C711.276428,523.38855,711.780762,525.232361,712.35199,527.05603C714.440125,525.597412,716.59436,524.235962,718.807983,522.976013C720.462402,521.973755,722.069458,520.895081,723.624023,519.744019C724.573181,518.981689,725.254272,517.936279,725.567993,516.76001C725.880981,515.075562,724.848267,513.430298,723.192017,512.992004C722.729736,512.873657,722.251404,512.830444,721.776001,512.872009z"/>
    <path transform="matrix(-1,0,0,-1,0,0)" style="stroke:#000000;stroke-width:0.05mm;fill:none" d="M753.927979,517.823975C751.497375,518.11499,749.727905,520.271545,749.919983,522.711975C750.004883,523.855652,750.531799,524.92157,751.392029,525.679993C751.70282,525.943542,752.089294,526.1026,752.495972,526.127991C754.471558,526.401184,756.484192,526.168213,758.343994,525.447998C758.97229,525.166809,759.524109,524.740723,759.960022,524.208008C760.431152,523.57251,760.591492,522.759521,760.400024,521.992004C759.380981,519.513306,756.998962,517.867737,754.320007,517.791992L753.927979,517.823975z"/>
    <path transform="matrix(-1,0,0,-1,0,0)" style="stroke:#000000;stroke-width:0.05mm;fill:none" d="M791.927979,464.303986C791.032104,464.318329,790.195251,464.750458,789.664001,465.471985C788.774231,466.547424,788.436646,467.976318,788.752014,469.335999C788.871704,470.009399,789.067505,470.666931,789.335999,471.29599C790.156921,473.455017,789.802429,475.884644,788.400024,477.720001C787.246399,479.306671,785.912292,480.753967,784.424011,482.032013C783.677612,482.760345,782.975098,483.532532,782.320007,484.343994C781.83252,485.072113,781.648071,485.961029,781.799988,486.824005C781.881714,487.487274,782.037048,488.139435,782.263977,488.768005C783.128662,490.998627,783.939819,493.250336,784.695984,495.519989C785.270569,497.323883,785.538086,499.211487,785.487976,501.104004C785.323303,504.553314,784.927734,507.987579,784.304016,511.384003C784.100952,512.407104,783.866211,513.423523,783.599976,514.432007C783.188293,515.769226,782.409729,516.964172,781.35199,517.880005C780.596191,518.555725,780.019043,519.40741,779.671997,520.359985C779.218811,521.780945,779.783264,523.329529,781.047974,524.119995C782.316589,524.925842,783.964783,524.797485,785.096008,523.807983C785.68634,523.333801,786.175537,522.745911,786.536011,522.080017C788.798645,517.681824,790.187012,512.886719,790.624023,507.959991C790.667358,505.658661,790.90564,503.365143,791.335999,501.104004C791.530945,499.910706,791.551941,498.695557,791.400024,497.496002C791.212402,496.306885,790.749023,495.17868,790.047974,494.200012C789.231384,492.915894,788.659302,491.492035,788.359985,490C787.954651,487.642456,788.666565,485.230713,790.288025,483.471985C790.590393,483.126038,790.925415,482.810181,791.288025,482.528015C791.949707,482.025421,792.598145,481.50528,793.231995,480.967987C794.113159,480.221039,794.689453,479.176208,794.848022,478.032013C795.103577,475.924622,795.477478,473.833344,795.968018,471.768005C796.157349,470.787903,796.235901,469.789581,796.200012,468.791992C796.102112,467.461975,795.493713,466.221893,794.504028,465.328003C793.81604,464.657623,792.888489,464.290588,791.927979,464.303986z"/>
    <path transform="matrix(-1,0,0,-1,0,0)" style="stroke:#000000;stroke-width:0.05mm;fill:none" d="M834.903992,509.511993C833.680603,509.588287,832.487061,509.921631,831.400024,510.488007C830.849304,510.859161,830.351318,511.303009,829.919983,511.808014C828.315735,514.020081,826.598816,516.148315,824.776001,518.184021C824.568359,518.455872,824.387878,518.747498,824.23999,519.05603C824.059631,519.604004,824.03717,520.192078,824.176025,520.752014C824.313477,522.323242,825.363403,523.666321,826.856018,524.176025C827.601196,524.215027,828.334351,523.97644,828.911987,523.504028C829.388672,523.000671,829.785828,522.427917,830.096008,521.807983C830.541138,520.742981,831.076721,519.71814,831.695984,518.744019C832.368774,517.812683,833.327271,517.126465,834.424011,516.783997C835.070251,516.549255,835.745972,516.405334,836.432007,516.359985C837.425842,516.272217,838.372131,515.894226,839.151978,515.271973L839.280029,515.143982C839.822266,514.55896,840.01416,513.73175,839.783997,512.968018C839.420349,511.159119,837.955078,509.776917,836.127991,509.519989C835.720581,509.490723,835.311768,509.48822,834.903992,509.511993z"/>
    <path transform="matrix(-1,0,0,-1,0,0)" style="stroke:#000000;stroke-width:0.05mm;fill:none" d="M847.088013,514.288025C845.998718,514.33429,844.950684,514.717163,844.088013,515.383972C843.190918,516.177002,842.943115,517.473755,843.47998,518.544006C844.072754,519.956665,844.94043,521.237061,846.031982,522.312012C846.660156,522.917236,847.413147,523.37793,848.23999,523.656006C850.319702,524.251404,852.489807,523.058228,853.104004,520.984009C853.415405,519.919067,853.264099,518.772217,852.687988,517.823975C852.110291,516.810547,851.331787,515.925842,850.400024,515.223999C849.429077,514.556274,848.264893,514.229004,847.088013,514.288025z"/>
    <path transform="matrix(-1,0,0,-1,0,0)" style="stroke:#000000;stroke-width:0.05mm;fill:none" d="M810.015991,484.079987C809.301514,484.116394,808.600037,484.282776,807.94397,484.567993C807.555481,484.757965,807.233582,485.061737,807.023987,485.440002C806.743958,485.965149,806.552307,486.532715,806.455994,487.119995C806.118225,489.645203,805.933899,492.188446,805.903992,494.735992C805.917419,496.210022,806.149353,497.67392,806.59198,499.079987C807.51532,502.602112,807.49353,506.305237,806.528015,509.81601C805.702881,512.74646,804.937256,515.694336,804.231995,518.656006C804.048828,519.773926,804.553711,520.891907,805.512024,521.495972C805.729065,521.625061,805.967896,521.712952,806.216003,521.76001C806.340332,521.782959,806.465881,521.798828,806.59198,521.807983C806.918274,521.820374,807.242798,521.758179,807.544006,521.632019C808.969666,520.983765,810.117493,519.849243,810.783997,518.432007C811.437134,517.077881,811.792847,515.599121,811.823975,514.096008C811.822876,511.946625,812.037354,509.802643,812.463989,507.696014C812.808411,506.443359,813.093872,505.175293,813.320007,503.895996C813.520752,502.519684,813.331848,501.11496,812.776001,499.839996C811.469788,496.934662,811.363342,493.631348,812.47998,490.64801C812.882446,489.678589,813.18512,488.670654,813.383972,487.640015C813.44928,487.063263,813.297852,486.482147,812.952026,486.015991C812.483459,485.326355,811.886292,484.733704,811.192017,484.272003C810.919678,484.119904,810.607117,484.055786,810.296021,484.079987L810.015991,484.079987z"/>
    <path transform="matrix(-1,0,0,-1,0,0)" style="stroke:#000000;stroke-width:0.05mm;fill:none" d="M750.208008,478.40799C748.672241,478.479065,747.326172,479.457397,746.783997,480.895996C746.245178,482.139191,745.920776,483.464539,745.823975,484.81601C745.72345,486.779572,745.288025,488.711395,744.536011,490.528015C743.578918,492.636566,742.658447,494.763062,741.776001,496.903992C740.751526,499.511566,740.193604,502.279114,740.127991,505.079987C740.124084,507.28064,739.990662,509.479065,739.728027,511.664001C739.42157,513.215393,739.279236,514.794739,739.304016,516.375977C739.406372,518.193237,740.708984,519.719055,742.487976,520.104004C744.355164,520.479492,746.201599,519.36969,746.744019,517.544006C746.880371,517.074158,746.927979,516.582886,746.880005,516.096008C746.670471,514.88739,746.324036,513.706543,745.848022,512.575989C745.380493,511.403442,745.124084,510.157806,745.088013,508.895996C745.130432,507.853333,745.26947,506.816803,745.504028,505.799988C746.837341,500.434601,748.414978,495.133331,750.231995,489.911987C750.438049,489.375122,750.65979,488.844299,750.895996,488.320007C751.622498,487.011749,752.4776,485.779175,753.447998,484.640015C754.15448,483.761658,754.61853,482.713806,754.791992,481.600006C754.862793,480.559906,754.294067,479.582886,753.359985,479.119995C752.387939,478.615692,751.302429,478.370209,750.208008,478.40799z"/>
    <path transform="matrix(-1,0,0,-1,0,0)" style="stroke:#000000;stroke-width:0.05mm;fill:none" d="M857.392029,508.40799C856.66571,508.408234,855.949463,508.578857,855.304016,508.911987C854.654968,509.294495,854.234253,509.969543,854.16803,510.720001C854.153076,511.402191,854.312805,512.076904,854.632019,512.679993C855.277893,514.129761,856.349487,515.348694,857.703979,516.176025C859.942993,517.468689,862.256409,518.627991,864.632019,519.64801C865.136963,519.838135,865.668884,519.947205,866.208008,519.968018C867.659119,519.869995,868.926758,518.951538,869.463989,517.599976C869.738342,516.837585,869.713257,515.999817,869.392029,515.255981C869.017883,514.708191,868.521301,514.254822,867.94397,513.927979C867.301941,513.556946,866.605286,513.290161,865.880005,513.135986C864.60321,512.764648,863.408875,512.153259,862.359985,511.335999C861.595825,510.707886,860.843506,510.064941,860.104004,509.40799C859.356018,508.748199,858.389282,508.391876,857.392029,508.40799z"/>
    <path transform="matrix(-1,0,0,-1,0,0)" style="stroke:#000000;stroke-width:0.05mm;fill:none" d="M766.895996,495.480011C766.424744,495.4841,765.966919,495.637268,765.583984,495.911987C764.397827,496.79834,763.544861,498.058197,763.159973,499.488007C762.843323,500.834412,762.66394,502.209442,762.624023,503.59201C762.454224,505.891663,762.09845,508.173828,761.559998,510.415985C761.184937,511.421661,760.875244,512.450562,760.632019,513.495972C760.555481,513.986877,760.558838,514.487244,760.64801,514.976013C760.898743,515.662292,761.316711,516.276001,761.864014,516.76001C762.9328,518.064453,764.836975,518.299805,766.192017,517.296021C766.959229,516.733765,767.437622,515.86084,767.504028,514.911987C767.638672,513.895752,767.650085,512.86676,767.536011,511.847992C767.378845,510.331787,767.516785,508.799225,767.94397,507.335999C768.680847,505.290161,769.329407,503.213531,769.888,501.112C770.274353,499.370819,769.827881,497.549042,768.679993,496.18399C768.210022,495.710632,767.562683,495.458862,766.895996,495.480011z"/>
    <path transform="matrix(-1,0,0,-1,0,0)" style="stroke:#000000;stroke-width:0.05mm;fill:none" d="M878.255981,508.432007C875.921509,508.976563,874.066101,510.74295,873.40802,513.047974L873.367981,513.247986C873.283508,513.792908,873.370911,514.350098,873.607971,514.848022C874.634399,517.226746,877.374939,518.348999,879.776001,517.375977C880.556702,517.047913,881.260925,516.561829,881.840027,515.94397C882.89447,514.759827,883.220947,513.09613,882.695984,511.600006C882.101196,509.662079,880.281921,508.361328,878.255981,508.432007z"/>
    <path transform="matrix(-1,0,0,-1,0,0)" style="stroke:#000000;stroke-width:0.05mm;fill:none" d="M772.960022,484.104004C770.747131,484.218719,768.938232,485.905212,768.664001,488.104004C768.621155,488.6185,768.697632,489.136078,768.888,489.615997C769.145386,490.040619,769.44397,490.438782,769.776001,490.808014C771.057251,491.957153,772.272583,493.177643,773.416016,494.463989C774.230225,495.45639,774.689697,496.692719,774.719971,497.976013C774.911011,500.728882,774.629578,503.494019,773.888,506.152008C773.257385,508.146484,772.691833,510.160767,772.192017,512.192017C772.014648,513.095764,771.977844,514.021606,772.088013,514.935974C772.378906,516.375854,773.746948,517.335632,775.200012,517.119995C775.84375,517.00415,776.433594,516.686462,776.888,516.216003C777.518921,515.626282,778.003418,514.897583,778.304016,514.088013C778.869385,512.384216,779.294861,510.637024,779.575989,508.864014C780.075317,506.046539,780.366699,503.196228,780.447998,500.335999C780.439514,498.68515,780.128052,497.049957,779.528015,495.511993C778.563232,493.163025,777.755981,490.752319,777.112,488.29599C776.814575,487.315308,776.426208,486.364471,775.952026,485.455994C775.262512,484.509918,774.125793,483.99649,772.960022,484.104004z"/>
    <path transform="matrix(-1,0,0,-1,0,0)" style="stroke:#000000;stroke-width:0.05mm;fill:none" d="M711.159973,507.191986C710.194702,507.447418,709.337158,508.005432,708.711975,508.783997C708.95929,511.3573,709.311523,513.919434,709.768005,516.463989C710.473694,515.976685,711.174927,515.483582,711.872009,514.984009C712.895081,514.207886,713.781738,513.267212,714.495972,512.200012C715.097839,511.118073,715.084412,509.799408,714.463989,508.727997C713.624207,507.841003,712.488647,507.292267,711.271973,507.18399L711.159973,507.191986z"/>
    <path transform="matrix(-1,0,0,-1,0,0)" style="stroke:#000000;stroke-width:0.05mm;fill:none" d="M820.856018,503.503998C819.799194,503.575989,818.85144,504.178619,818.335999,505.104004C817.401672,507.128479,816.913574,509.330322,816.903992,511.559998C816.803833,512.686218,816.95813,513.82019,817.35199,514.880005L817.440002,515.007996C817.660889,515.332092,818.005249,515.550964,818.392029,515.616028C819.447876,515.833008,820.545776,515.553101,821.367981,514.856018C822.789368,513.454712,823.97998,511.837341,824.895996,510.063995C825.461609,508.870697,825.485718,507.491425,824.960022,506.279999C824.439087,505.373413,823.702209,504.610809,822.815979,504.056C822.275879,503.752869,821.679749,503.563141,821.064026,503.496002L820.856018,503.503998z"/>
    <path transform="matrix(-1,0,0,-1,0,0)" style="stroke:#000000;stroke-width:0.05mm;fill:none" d="M890.335999,504.343994C889.81842,504.441742,889.331604,504.663391,888.919983,504.992004C888.076782,505.593506,887.431702,506.431702,887.064026,507.399994C886.895996,507.953949,886.850464,508.537292,886.919983,509.112C887.047119,511.029968,887.734497,512.868469,888.895996,514.400024C889.337219,514.84021,889.840698,515.213318,890.392029,515.504028C891.006958,511.863953,891.407593,508.19104,891.59198,504.503998C891.186035,504.376984,890.760803,504.32193,890.335999,504.343994z"/>
    <path transform="matrix(-1,0,0,-1,0,0)" style="stroke:#000000;stroke-width:0.05mm;fill:none" d="M737.575989,482C736.827087,482.133362,736.162292,482.559448,735.728027,483.18399C735.220276,483.854553,734.812927,484.59552,734.52002,485.384003C733.440674,488.765442,732.245361,492.108765,730.935974,495.40799C730.250793,497.38327,729.81543,499.436615,729.640015,501.519989C729.44342,503.398834,729.130981,505.263794,728.703979,507.104004C728.30481,508.145905,728.041748,509.234894,727.919983,510.343994C727.863892,511.604858,728.421753,512.814575,729.416016,513.59198C730.517578,514.658997,732.229004,514.773254,733.463989,513.864014C734.20874,513.337585,734.712036,512.533813,734.848022,511.631989C734.887573,508.954498,735.005005,506.278595,735.200012,503.608002C735.311462,502.281036,735.482361,500.959656,735.711975,499.64801C736.323181,496.876312,737.322388,494.204529,738.679993,491.712006C739.320618,490.40625,739.912964,489.077271,740.455994,487.727997C740.77301,486.80896,740.96167,485.850647,741.015991,484.880005C740.993225,484.285583,740.79834,483.710449,740.455994,483.223999C739.857117,482.564789,739.048584,482.133636,738.16803,482L737.575989,482z"/>
    <path transform="matrix(-1,0,0,-1,0,0)" style="stroke:#000000;stroke-width:0.05mm;fill:none" d="M759.607971,486.463989C758.467651,486.538025,757.426392,487.137604,756.791992,488.088013C755.858643,489.564056,755.103699,491.145721,754.544006,492.799988C753.165588,496.916534,751.938171,501.081757,750.864014,505.287994C750.553772,506.557983,750.320923,507.845642,750.16803,509.144012C750.099731,510.310852,750.330688,511.475983,750.840027,512.528015C751.470398,513.668335,752.834717,514.18396,754.064026,513.752014C754.703125,513.57959,755.281677,513.233459,755.736023,512.752014C756.015686,512.371155,756.223145,511.942596,756.35199,511.488007C756.78894,509.76712,757.072754,508.010925,757.200012,506.23999C757.473328,503.335876,757.873657,500.445038,758.400024,497.575989C758.550232,496.973541,758.834595,496.413025,759.231995,495.936005C760.014526,494.911926,760.916992,493.985382,761.919983,493.175995C762.777039,492.441101,763.542908,491.606079,764.200012,490.687988C764.700562,489.766632,764.506409,488.622498,763.728027,487.920013C762.906372,487.1073,761.824158,486.610046,760.671997,486.519989C760.31897,486.477203,759.963501,486.458313,759.607971,486.463989z"/>
    <path transform="matrix(-1,0,0,-1,0,0)" style="stroke:#000000;stroke-width:0.05mm;fill:none" d="M844.296021,501.480011C843.55249,501.512634,842.819641,501.669098,842.127991,501.944C840.725952,502.595459,840.004578,504.170319,840.432007,505.656006C840.815002,506.901276,841.593018,507.987579,842.64801,508.752014C844.202942,509.901978,846.203979,510.265533,848.064026,509.735992C849.900574,509.447388,851.16449,507.735596,850.895996,505.895996C850.853271,504.592407,850.197754,503.386169,849.127991,502.640015C848.034363,501.944183,846.775269,501.553192,845.47998,501.503998C845.085632,501.486359,844.690796,501.477905,844.296021,501.480011z"/>
    <path transform="matrix(-1,0,0,-1,0,0)" style="stroke:#000000;stroke-width:0.05mm;fill:none" d="M717.271973,460.359985C716.627991,461.692749,716.019775,463.042664,715.447998,464.40799C717.415222,465.641327,719.104736,467.270386,720.40802,469.191986C721.81366,471.185303,723.052429,473.291077,724.112,475.488007C725.052795,477.624268,725.315002,479.997742,724.864014,482.287994C724.600281,483.211975,724.276794,484.117798,723.895996,485C723.079895,486.685486,722.284912,488.382202,721.512024,490.088013C720.424805,492.548615,719.632751,495.129181,719.151978,497.776001C718.787476,499.585205,718.276367,501.361633,717.624023,503.088013C717.278381,504.245758,717.269531,505.477844,717.599976,506.640015C717.777466,507.151001,718.054443,507.621643,718.416016,508.023987C719.749817,509.255402,721.815735,509.214935,723.104004,507.936005C723.465393,507.447632,723.736572,506.898315,723.895996,506.312012C724.305725,504.326141,724.56781,502.312592,724.679993,500.287994C724.849243,498.277618,725.289978,496.299377,725.992004,494.40799C726.906921,492.223389,727.776306,490.020538,728.599976,487.799988C728.687744,487.430237,728.791931,487.064575,728.911987,486.70401C729.909485,484.242065,730.971252,481.806427,732.096008,479.399994C731.657837,478.246155,731.158569,477.116577,730.599976,476.015991C728.168396,471.366364,725.476135,466.858002,722.536011,462.511993C721.320435,460.979614,719.734375,459.782288,717.927979,459.032013L717.271973,460.359985z"/>
    <path transform="matrix(-1,0,0,-1,0,0)" style="stroke:#000000;stroke-width:0.05mm;fill:none" d="M869.552002,498.287994C869.404724,498.308105,869.258057,498.332367,869.112,498.359985C868.336487,498.670227,867.652832,499.172699,867.119995,499.81601C865.814209,501.301208,864.898987,503.088623,864.455994,505.015991C864.347778,505.691711,864.485291,506.382782,864.840027,506.967987C865.352966,507.603851,866.022827,508.095245,866.783997,508.391998C868.248901,509.15921,870.037842,508.926422,871.255981,507.808014C872.187256,506.995514,872.869507,505.935974,873.223999,504.752014C873.355896,504.183136,873.384949,503.595367,873.312012,503.015991C873.21759,501.610321,872.656494,500.27652,871.719971,499.223999C871.209717,498.555908,870.388306,498.202728,869.552002,498.287994z"/>
    <path transform="matrix(-1,0,0,-1,0,0)" style="stroke:#000000;stroke-width:0.05mm;fill:none" d="M832.015991,495.584015C830.313416,495.607361,828.766724,496.579681,828.007996,498.104004C827.04126,499.960968,827.206299,502.20459,828.440002,503.895996C829.462097,505.196045,831.169128,505.747559,832.76001,505.29599L833.616028,505.007996C836.122498,504.025696,837.408142,501.240143,836.528015,498.696014C835.845154,496.79953,834.031372,495.547638,832.015991,495.584015z"/>
    <path transform="matrix(-1,0,0,-1,0,0)" style="stroke:#000000;stroke-width:0.05mm;fill:none" d="M880.872009,493.903992C879.61792,494.108002,878.514343,494.84314,877.840027,495.920013C877.547119,496.370331,877.342712,496.872711,877.23999,497.399994C876.760376,499.406525,877.180603,501.522064,878.392029,503.191986C879.170776,504.163757,880.346741,504.731537,881.59198,504.743988C883.243652,504.844818,884.701721,503.6745,884.960022,502.040009C885.487244,499.385101,884.715332,496.637482,882.880005,494.64801C882.330017,494.152588,881.612,493.883911,880.872009,493.903992z"/>
    <path transform="matrix(-1,0,0,-1,0,0)" style="stroke:#000000;stroke-width:0.05mm;fill:none" d="M844.815979,477.959991C843.613281,478.020447,842.427917,478.271545,841.304016,478.70401C837.235291,480.437256,833.242432,482.342896,829.335999,484.415985C828.457275,484.953033,827.790283,485.775543,827.440002,486.743988C827.412292,487.167145,827.470154,487.591003,827.607971,487.992004C827.820374,488.717896,828.175476,489.393463,828.64801,489.984009C829.496399,490.961121,830.800964,491.410706,832.072021,491.167999C833.05603,491.007874,833.960022,490.52951,834.64801,489.808014C835.817627,488.569916,837.012207,487.356598,838.231995,486.167999C839.366028,485.087891,840.845032,484.442444,842.40802,484.343994C844.21582,484.148346,846.039124,484.143036,847.848022,484.328003C848.559082,484.425232,849.253784,484.61792,849.911987,484.903992C852.606506,486.17865,855.106262,487.829742,857.335999,489.808014C857.64325,490.110962,857.915833,490.446899,858.151978,490.808014C858.561462,491.57547,858.734802,492.446472,858.64801,493.312012C858.584106,493.822845,858.380188,494.305695,858.064026,494.712006C857.693359,495.251404,857.246521,495.734467,856.736023,496.144012C855.821655,496.984619,854.978882,497.899902,854.216003,498.880005C853.572266,499.76004,853.441711,500.914734,853.864014,501.920013C854.163513,502.706024,854.675232,503.393829,855.343994,503.903992C856.488831,504.409515,857.786316,504.450317,858.960022,504.015991C859.143555,503.913574,859.307373,503.780121,859.447998,503.623993C859.7724,503.131439,860.087036,502.632782,860.392029,502.127991C861.844421,499.521667,863.197449,496.860962,864.447998,494.152008C864.175049,492.348145,863.863037,490.550415,863.512024,488.76001C863.334656,487.94986,863.077515,487.159332,862.744019,486.399994C862.689514,486.321991,862.635132,486.244263,862.59198,486.160004C862.537659,486.084625,862.471252,486.020264,862.40802,485.951996C858.20343,483.087891,853.738464,480.626434,849.072021,478.600006C847.710022,478.105896,846.263062,477.887756,844.815979,477.959991z"/>
    <path transform="matrix(-1,0,0,-1,0,0)" style="stroke:#000000;stroke-width:0.05mm;fill:none" d="M713.119995,470.544006C712.614685,472.015289,712.153137,473.501282,711.736023,475C713.55426,476.980896,714.384949,479.674835,714,482.335999C713.869934,483.107178,713.568604,483.839417,713.119995,484.480011C712.227661,485.59787,711.299011,486.686401,710.335999,487.743988C709.326965,489.056671,708.775818,490.664337,708.768005,492.320007C708.777405,493.028259,708.670837,493.733063,708.455994,494.40799C708.292358,497.26889,708.254944,500.135773,708.343994,503C709.756531,503.939453,711.659241,503.606842,712.664001,502.23999C712.800781,502.046387,712.919556,501.840546,713.015991,501.623993C713.444275,500.534424,713.716553,499.389771,713.823975,498.223999C714.30896,494.420776,715.520508,490.746185,717.392029,487.399994C718.328552,485.632965,719.138611,483.801697,719.815979,481.920013C720.32074,480.286652,720.197632,478.523956,719.471985,476.976013C718.961609,475.833374,718.337402,474.744873,717.607971,473.727997C716.54834,471.972137,715.20752,470.402405,713.640015,469.079987L713.119995,470.544006z"/>
    <path transform="matrix(-1,0,0,-1,0,0)" style="stroke:#000000;stroke-width:0.05mm;fill:none" d="M890.94397,490.76001C889.578064,491.613678,888.775146,493.134552,888.840027,494.743988C888.809753,496.528778,889.436157,498.262512,890.599976,499.615997C890.910706,499.952148,891.283997,500.224335,891.695984,500.424011C891.715576,497.14328,891.558105,493.8638,891.223999,490.600006L890.94397,490.76001z"/>
    <path transform="matrix(-1,0,0,-1,0,0)" style="stroke:#000000;stroke-width:0.05mm;fill:none" d="M820.703979,487.463989C819.157532,487.537018,817.845886,488.627869,817.495972,490.135986C817.14386,491.34967,816.939392,492.601318,816.888,493.864014C816.743835,495.122345,816.810974,496.396088,817.088013,497.631989C817.265808,498.30481,817.658203,498.901337,818.208008,499.328003C819.769836,500.250854,821.779846,499.817047,822.815979,498.328003C823.758484,496.8349,824.298401,495.123566,824.383972,493.359985C824.534851,491.854889,824.27533,490.337036,823.632019,488.967987C823.109375,487.99765,822.077026,487.414063,820.976013,487.463989L820.703979,487.463989z"/>
    <path transform="matrix(-1,0,0,-1,0,0)" style="stroke:#000000;stroke-width:0.05mm;fill:none" d="M845.039978,489.279999C844.098877,489.289368,843.163208,489.421753,842.255981,489.671997C840.724426,490.162659,839.485596,491.30072,838.864014,492.783997C838.705627,493.310974,838.740295,493.876129,838.952026,494.384003C839.333252,495.234619,840.005493,495.921234,840.848022,496.320007C841.704224,496.556366,842.592896,496.653473,843.47998,496.608002C845.802246,496.637695,848.125671,496.640381,850.447998,496.615997C850.949646,496.040314,851.435181,495.450684,851.903992,494.847992C852.214661,494.410583,852.426147,493.910736,852.528015,493.384003L852.536011,493.200012C852.563965,492.939056,852.507813,492.674896,852.375977,492.447998C852.144653,491.923706,851.78894,491.463013,851.335999,491.112C849.480164,489.858734,847.278503,489.217621,845.039978,489.279999z"/>
    <path transform="matrix(-1,0,0,-1,0,0)" style="stroke:#000000;stroke-width:0.05mm;fill:none" d="M797.807983,483.687988L797.656006,483.696014C794.583008,484.710754,792.857422,487.967621,793.744019,491.079987C794.169067,492.583954,795.169067,493.860046,796.528015,494.631989C797.006226,494.861053,797.53479,494.967621,798.064026,494.936005C799.22937,494.725342,800.211426,493.943573,800.679993,492.855988C801.587341,490.965881,801.865479,488.835358,801.471985,486.776001C801.373535,486.392639,801.236755,486.020111,801.064026,485.664001C800.280884,484.669952,799.18335,483.972015,797.952026,483.679993L797.807983,483.687988z"/>
    <path transform="matrix(-1,0,0,-1,0,0)" style="stroke:#000000;stroke-width:0.05mm;fill:none" d="M872.05603,482.903992C871.541687,482.982117,871.051819,483.175934,870.624023,483.471985C869.830505,483.972321,869.18042,484.669861,868.736023,485.496002C868.576294,485.809937,868.480713,486.152618,868.455994,486.503998C868.427673,488.133728,868.532532,489.763092,868.768005,491.376007C868.912292,492.125885,869.21167,492.837311,869.64801,493.463989C870.544556,494.532654,872.078613,494.799042,873.288025,494.104004L873.599976,493.928009C875.186218,492.812347,876.140686,491.003082,876.16803,489.063995C876.257324,487.412598,875.8974,485.767914,875.127991,484.303986C874.481689,483.259033,873.269104,482.708771,872.05603,482.903992z"/>
    <path transform="matrix(-1,0,0,-1,0,0)" style="stroke:#000000;stroke-width:0.05mm;fill:none" d="M885.359985,479.343994C884.028625,479.599701,882.819702,480.290863,881.927979,481.312012C880.895935,482.30481,880.321106,483.680023,880.335999,485.112C880.308594,486.632477,880.812378,488.114624,881.76001,489.303986C882.258301,489.852631,882.896729,490.255432,883.607971,490.463989C885.863525,490.158966,887.681946,488.467041,888.151978,486.23999C888.579773,484.551422,888.490601,482.773285,887.895996,481.135986C887.508667,480.283203,886.770813,479.639496,885.872009,479.376007C885.702637,479.347595,885.531311,479.331116,885.359985,479.343994z"/>
    <path transform="matrix(-1,0,0,-1,0,0)" style="stroke:#000000;stroke-width:0.05mm;fill:none" d="M844.176025,466.119995C843.825012,466.134521,843.479126,466.207947,843.151978,466.335999C841.975586,466.879395,840.857788,467.541473,839.815979,468.312012C838.62439,469.152191,837.265259,469.724579,835.83197,469.992004C834.833496,470.145691,833.833252,470.289642,832.83197,470.424011C831.915222,470.612671,831.038147,470.959229,830.23999,471.447998C829.072998,472.262054,827.946411,473.132385,826.864014,474.056C825.920349,474.782806,824.81366,475.268616,823.640015,475.471985C822.790771,475.652008,821.930054,475.772583,821.064026,475.832001C819.134583,475.917023,817.212952,476.130737,815.312012,476.471985C814.90332,476.583221,814.529785,476.795349,814.216003,477.079987C813.522705,477.943604,813.217407,479.05481,813.367981,480.152008C813.490234,480.848419,813.870178,481.474701,814.432007,481.903992C815.065369,482.443268,815.840088,482.789246,816.664001,482.903992C818.215881,483.164795,819.806152,483.077576,821.320007,482.64801C822.644836,482.305054,823.919312,481.790985,825.112,481.119995C827.170654,479.931488,829.270569,478.816193,831.40802,477.776001C834.485229,476.406464,837.544189,475.016693,840.599976,473.600006C841.479797,473.236298,842.411011,473.012238,843.359985,472.936005C844.774719,472.792603,846.199768,472.784973,847.616028,472.911987C848.235046,472.990814,848.843628,473.1362,849.432007,473.343994C853.337463,475.10379,857.133728,477.096741,860.799988,479.312012C861.764404,479.977356,862.762939,480.591705,863.791992,481.152008C864.712158,481.596649,865.77002,481.66156,866.736023,481.328003C867.988403,480.815674,868.814636,479.608673,868.848022,478.256012C868.896484,477.114288,868.395569,476.01889,867.504028,475.303986C866.964661,474.838593,866.343628,474.477509,865.671997,474.23999C864.89624,474.016693,864.11731,473.803223,863.335999,473.600006C860.609497,472.622284,857.957092,471.448639,855.400024,470.088013C852.881104,468.813934,850.280762,467.70752,847.616028,466.776001C846.611328,466.444061,845.573059,466.223602,844.52002,466.119995L844.176025,466.119995z"/>
    <path transform="matrix(-1,0,0,-1,0,0)" style="stroke:#000000;stroke-width:0.05mm;fill:none" d="M763.552002,474.671997C761.43811,475.056305,759.648682,476.456238,758.768005,478.415985C758.494324,479.120331,758.582153,479.914337,759,480.544006C759.300964,480.984985,759.700989,481.349365,760.16803,481.608002C762.004578,482.803223,764.28125,483.108551,766.367981,482.440002C767.68042,481.977173,768.749023,481.001495,769.328003,479.735992C769.531555,479.208099,769.57666,478.632751,769.455994,478.079987C769.222534,476.927399,768.439941,475.961395,767.359985,475.496002C766.173523,474.924286,764.868652,474.641174,763.552002,474.671997z"/>
    <path transform="matrix(-1,0,0,-1,0,0)" style="stroke:#000000;stroke-width:0.05mm;fill:none" d="M804.031982,472C802.643005,472.088043,801.384644,472.852509,800.671997,474.048004C799.80835,475.389404,799.530762,477.024872,799.903992,478.575989C800.077087,479.199219,800.442017,479.752014,800.94397,480.160004C802.179871,481.277954,803.921875,481.643433,805.504028,481.119995C806.993286,480.65683,808.211548,479.575836,808.848022,478.152008C809.624146,476.686035,809.371826,474.885773,808.216003,473.696014C807.136292,472.546265,805.607483,471.926514,804.031982,472z"/>
    <path transform="matrix(-1,0,0,-1,0,0)" style="stroke:#000000;stroke-width:0.05mm;fill:none" d="M781.47998,470.175995C780.827087,470.221802,780.186768,470.376923,779.583984,470.631989C777.34137,471.482391,775.450989,473.063934,774.216003,475.119995C773.88623,475.697235,773.661865,476.328369,773.552002,476.984009C773.511658,477.401062,773.571533,477.822754,773.736023,478.208008C774.176758,479.351379,775.146912,480.208038,776.335999,480.503998C777.329285,480.828217,778.41626,480.691711,779.296021,480.127991C780.946167,478.91153,782.421326,477.474182,783.679993,475.855988C784.514282,474.68515,784.72821,473.181915,784.255981,471.824005C783.777283,470.739166,782.661743,470.078766,781.47998,470.175995z"/>
    <path transform="matrix(-1,0,0,-1,0,0)" style="stroke:#000000;stroke-width:0.05mm;fill:none" d="M877.328003,468.888C875.870422,468.930145,874.501953,469.601532,873.575989,470.727997C872.386719,472.389893,872.150208,474.552277,872.952026,476.432007C873.295898,477.26593,873.842407,478.001007,874.544006,478.567993C875.235413,479.066803,876.117432,479.222351,876.935974,478.984009C879.996582,478.259155,881.915894,475.21756,881.247986,472.144012C881.116028,471.585236,880.909668,471.046539,880.632019,470.544006C879.906616,469.44043,878.646362,468.810242,877.328003,468.888z"/>
    <path transform="matrix(-1,0,0,-1,0,0)" style="stroke:#000000;stroke-width:0.05mm;fill:none" d="M722.392029,451.112C721.639893,452.296753,720.917114,453.499725,720.223999,454.720001C723.392151,455.866547,726.032654,458.131287,727.64801,461.088013C729.112854,463.979828,730.725708,466.794037,732.47998,469.519989C733.738159,471.563385,734.956787,473.630066,736.135986,475.720001C736.811646,476.771179,737.742676,477.634155,738.840027,478.231995C740.471741,479.056915,742.451904,478.708344,743.703979,477.376007C744.355347,476.823273,744.692017,475.986847,744.616028,475.135986C744.66272,474.261505,744.376099,473.401154,743.815979,472.727997C743.086731,471.928894,742.220337,471.266296,741.255981,470.776001C740.035278,470.077545,738.866882,469.291595,737.76001,468.424011C737.650574,468.303223,737.544861,468.179077,737.447998,468.048004C736.554443,466.598816,735.78656,465.075867,735.151978,463.496002C734.22876,461.319,733.173401,459.20047,731.992004,457.152008C730.678772,455.145447,729.152588,453.286652,727.440002,451.608002C726.849365,451.076935,726.147156,450.684021,725.383972,450.463989C724.639282,450.305542,723.897705,450.132324,723.159973,449.944L722.392029,451.112z"/>
    <path transform="matrix(-1,0,0,-1,0,0)" style="stroke:#000000;stroke-width:0.05mm;fill:none" d="M885.447998,468.032013C885.659363,469.916809,885.926147,471.794952,886.247986,473.664001C886.440979,474.479156,886.853455,475.225952,887.440002,475.824005C887.780884,476.081635,888.183899,476.243805,888.607971,476.29599C887.690857,472.848206,886.568909,469.458221,885.247986,466.144012L885.447998,468.032013z"/>
    <path transform="matrix(-1,0,0,-1,0,0)" style="stroke:#000000;stroke-width:0.05mm;fill:none" d="M752.495972,466.511993C751.867065,466.485016,751.237671,466.55661,750.632019,466.727997C750.242432,466.819458,749.874695,466.987335,749.552002,467.223999C747.935547,468.488831,747.600769,470.800537,748.791992,472.471985C749.259338,473.096527,749.916687,473.552338,750.664001,473.776001C752.494629,474.433411,754.500977,474.405457,756.312012,473.696014C757.696289,472.942047,758.827209,471.795624,759.559998,470.399994L759.640015,470.152008C759.716797,469.831573,759.687073,469.495941,759.559998,469.191986C759.354675,468.777405,759.052368,468.418549,758.679993,468.144012C757.079956,467.128845,755.230652,466.576294,753.335999,466.544006C753.056824,466.51767,752.776367,466.506317,752.495972,466.511993z"/>
    <path transform="matrix(-1,0,0,-1,0,0)" style="stroke:#000000;stroke-width:0.05mm;fill:none" d="M823.807983,463.391998C821.625488,463.486023,819.452332,463.731964,817.304016,464.127991C815.773438,464.296173,814.278198,464.700653,812.872009,465.328003C811.59259,465.978027,810.666504,467.161621,810.343994,468.559998C810.325867,469.128113,810.479004,469.688354,810.783997,470.167999C811.155029,471.040497,811.982544,471.633209,812.927979,471.70401C813.718384,471.786652,814.516968,471.749084,815.296021,471.59201C817.642883,470.996582,820.026917,470.558258,822.432007,470.279999C823.716248,470.062347,824.929077,469.53772,825.968018,468.752014C826.71344,468.130554,827.163757,467.225494,827.208008,466.256012C827.217529,465.28537,826.746094,464.374268,825.952026,463.81601C825.288513,463.484985,824.547607,463.339081,823.807983,463.391998z"/>
    <path transform="matrix(-1,0,0,-1,0,0)" style="stroke:#000000;stroke-width:0.05mm;fill:none" d="M769.504028,462.936005C768.479431,462.963745,767.470947,463.195892,766.536011,463.615997C765.309937,464.322083,764.295715,465.343994,763.599976,466.575989C763.41217,466.974609,763.344543,467.418854,763.400024,467.855988C763.979065,469.155334,765.079895,470.150055,766.432007,470.59201C767.453857,470.88208,768.497192,471.090942,769.552002,471.216003C770.35376,471.248993,771.140991,470.999969,771.783997,470.519989C772.885132,469.773102,773.792542,468.77478,774.432007,467.608002C774.997559,466.391846,774.637085,464.945862,773.567993,464.135986C772.700317,463.43515,771.633911,463.025238,770.52002,462.967987C770.182434,462.934875,769.843018,462.923889,769.504028,462.936005z"/>
    <path transform="matrix(-1,0,0,-1,0,0)" style="stroke:#000000;stroke-width:0.05mm;fill:none" d="M845.559998,453.976013L845.367981,454C845.240662,454.023804,845.115356,454.056641,844.992004,454.096008C844.6698,454.215454,844.37854,454.404663,844.135986,454.64801C843.406494,455.362915,842.979736,456.331238,842.94397,457.35199C843.067627,458.40097,843.524658,459.382263,844.247986,460.152008C844.624084,460.527527,845.077148,460.816589,845.575989,461C846.558472,461.284119,847.545471,461.553467,848.536011,461.808014C851.632935,462.9888,854.668579,464.323792,857.632019,465.808014C859.812988,466.847961,862.015686,467.839935,864.23999,468.783997C865.31958,469.19928,866.433228,469.519653,867.567993,469.743988C868.76593,469.953308,869.939941,469.26178,870.335999,468.112C870.651733,467.344482,870.630432,466.480316,870.280029,465.727997C869.345093,463.545227,867.222046,462.10849,864.848022,462.056C863.050293,462.073273,861.269409,461.708374,859.624023,460.984009C857.54364,460.091003,855.618408,458.872986,853.919983,457.376007C851.630493,455.401886,848.773071,454.205902,845.76001,453.959991L845.559998,453.976013z"/>
    <path transform="matrix(-1,0,0,-1,0,0)" style="stroke:#000000;stroke-width:0.05mm;fill:none" d="M825.192017,450.832001C824.895203,450.863861,824.603149,450.929382,824.320007,451.023987C820.746033,452.27417,817.051331,453.148254,813.296021,453.631989C810.616272,454.08609,808.113647,455.270996,806.064026,457.056C804.049072,458.695038,802.163452,460.48703,800.424011,462.415985C800.024109,462.890076,799.747009,463.456085,799.624023,464.063995C799.546326,464.720184,799.620728,465.384705,799.840027,466.007996C800.473694,467.61084,802.23291,468.459564,803.880005,467.951996C804.468079,467.754059,804.994934,467.407806,805.416016,466.951996C806.182556,466.208862,806.792664,465.319489,807.208008,464.335999C808.375061,461.967102,810.54126,460.244202,813.112,459.640015C815.270935,459.033844,817.489258,458.663635,819.728027,458.536011C821.536072,458.461243,823.340271,458.31189,825.135986,458.088013C826.911743,457.754211,828.408264,456.565796,829.135986,454.911987C829.486877,453.989838,829.329895,452.951569,828.719971,452.175995C828.044067,451.407104,827.099365,450.926636,826.080017,450.832001C825.785278,450.790375,825.486145,450.786316,825.192017,450.832001z"/>
    <path transform="matrix(-1,0,0,-1,0,0)" style="stroke:#000000;stroke-width:0.05mm;fill:none" d="M733.559998,443.40799C732.259338,443.574738,731.171631,444.474945,730.76001,445.720001C730.649841,446.180756,730.687988,446.664154,730.864014,447.104004C731.467957,448.390778,732.290283,449.563477,733.296021,450.567993C734.45166,451.842865,735.482666,453.225372,736.375977,454.696014C737.408447,456.601685,738.293701,458.583374,739.023987,460.623993C739.597046,462.15686,740.38916,463.598541,741.375977,464.903992C741.907837,465.579193,742.604553,466.106323,743.400024,466.432007C743.930298,466.596863,744.500244,466.573792,745.015991,466.368011C745.502319,466.188446,745.939514,465.895782,746.288025,465.511993C746.871826,464.89859,747.188477,464.078522,747.16803,463.231995C747.161926,462.960114,747.115234,462.690887,747.031982,462.432007C746.413086,460.950073,745.601318,459.556244,744.616028,458.287994C743.034241,456.022095,741.734192,453.57196,740.744019,450.992004C740.365601,449.76767,739.924866,448.563538,739.424011,447.384003C739.037903,446.556763,738.51355,445.801453,737.872009,445.152008C736.779846,444.194458,735.425598,443.585571,733.984009,443.40799C733.84314,443.391968,733.700806,443.391449,733.559998,443.40799z"/>
    <path transform="matrix(-1,0,0,-1,0,0)" style="stroke:#000000;stroke-width:0.05mm;fill:none" d="M784.559998,448.880005C784.09021,448.902985,783.628357,449.008301,783.192017,449.18399C782.264099,449.412018,781.524536,450.111786,781.23999,451.023987C781.002808,451.666656,780.882996,452.346985,780.888,453.032013C780.86377,453.631683,780.857971,454.231995,780.872009,454.832001C780.844543,456.401703,780.371155,457.931213,779.504028,459.23999C778.866272,460.30368,778.393921,461.45813,778.104004,462.664001C777.976196,463.854279,778.580688,465.003418,779.632019,465.575989C780.931091,466.370209,782.56012,466.391113,783.880005,465.631989C784.781494,465.019104,785.431946,464.101501,785.711975,463.048004C786.041016,462.055878,786.186951,461.01239,786.143982,459.967987C786.167969,457.989624,786.532715,456.029816,787.223999,454.175995C787.498108,453.284912,787.68103,452.368225,787.768005,451.440002C787.758728,450.963928,787.623535,450.499512,787.383972,450.088013C786.707947,449.232941,785.645447,448.780365,784.559998,448.880005z"/>
    <path transform="matrix(-1,0,0,-1,0,0)" style="stroke:#000000;stroke-width:0.05mm;fill:none" d="M834.823975,456.928009C834.069275,456.972778,833.343872,457.233459,832.728027,457.671997C831.776306,458.314545,831.012146,459.198303,830.512024,460.231995C830.071716,460.844635,829.822693,461.574158,829.791992,462.328003C829.841431,463.334656,830.301392,464.2771,831.064026,464.936005C831.978821,465.567719,833.119202,465.780426,834.200012,465.519989C835.723083,465.244843,837.158386,464.609253,838.383972,463.664001C838.800293,463.329163,839.150635,462.919678,839.416016,462.455994C839.762939,461.853394,839.866272,461.140106,839.703979,460.463989C839.562012,459.711487,839.189941,459.020508,838.632019,458.496002C837.674011,457.412445,836.267273,456.834198,834.823975,456.928009z"/>
    <path transform="matrix(-1,0,0,-1,0,0)" style="stroke:#000000;stroke-width:0.05mm;fill:none" d="M875.383972,455.536011C874.587463,455.544586,873.804504,455.740082,873.096008,456.104004C872.396729,456.552856,871.918701,457.276062,871.783997,458.096008C871.638428,458.846436,871.740845,459.623077,872.072021,460.312012C872.577759,461.450623,873.362122,462.443451,874.35199,463.200012C874.931641,463.753174,875.617432,464.183502,876.367981,464.463989C876.935669,464.477509,877.501099,464.54361,878.05603,464.664001C878.482971,464.712067,878.914734,464.692383,879.335999,464.608002C881.145935,463.995209,882.199219,462.109558,881.768005,460.247986C881.05127,457.736603,878.897278,455.901276,876.304016,455.59201C875.99939,455.547577,875.691711,455.527222,875.383972,455.536011z"/>
    <path transform="matrix(-1,0,0,-1,0,0)" style="stroke:#000000;stroke-width:0.05mm;fill:none" d="M735.632019,434.671997C734.467468,435.812195,733.336304,436.986023,732.23999,438.191986C733.198303,438.545074,734.190125,438.799805,735.200012,438.951996C736.261597,439.157623,737.313416,439.411041,738.35199,439.712006C740.392029,440.379303,742.118225,441.766846,743.208008,443.615997C744.136169,445.191986,744.844055,446.887878,745.312012,448.656006C745.820313,450.289398,746.484863,451.869904,747.296021,453.376007C748.406494,455.290619,749.502197,457.212799,750.583984,459.144012C751.132751,460.08429,751.979919,460.814789,752.992004,461.216003C754.87793,461.903137,756.821838,462.419769,758.799988,462.76001C760.622131,463.033813,762.414612,462.103363,763.23999,460.455994C763.434021,460.062622,763.565063,459.641449,763.632019,459.208008C763.666077,458.954834,763.634033,458.696411,763.528015,458.463989C763.108337,457.398926,762.189087,456.610565,761.072021,456.359985C760.11377,456.179474,759.147339,456.04599,758.176025,455.959991C756.978455,455.814362,755.799011,455.545898,754.656006,455.160004C753.818054,454.825165,753.12793,454.200806,752.711975,453.399994C752.199463,451.768799,751.8172,450.099518,751.567993,448.40799C751.33136,447.195251,750.907104,446.026886,750.312012,444.944L748.856018,442.559998C748.189209,441.407715,747.683472,440.169403,747.35199,438.880005C747.037292,437.888428,746.358887,437.052765,745.455994,436.536011C744.029236,435.828217,742.518616,435.304016,740.960022,434.976013C739.540283,434.609314,738.151794,434.130676,736.807983,433.544006L735.632019,434.671997z"/>
    <path transform="matrix(-1,0,0,-1,0,0)" style="stroke:#000000;stroke-width:0.05mm;fill:none" d="M825.015991,439.783997C824.030579,439.82489,823.05957,440.033234,822.143982,440.399994C819.609619,441.568909,816.886841,442.27597,814.104004,442.488007C812.757141,442.642426,811.41333,442.818359,810.072021,443.015991C807.239746,443.452759,804.591309,444.690704,802.440002,446.584015C800.607178,448.30072,798.601746,449.823303,796.455994,451.127991L794.047974,452.440002C793.177979,452.908264,792.444763,453.594849,791.919983,454.432007C791.252869,455.827545,790.99939,457.385284,791.192017,458.920013C791.440857,460.043823,792.440979,460.842529,793.59198,460.832001C794.219177,460.9021,794.851135,460.750458,795.375977,460.399994C796.422119,459.588593,797.379639,458.669067,798.231995,457.656006C800.138306,455.560211,802.244263,453.655334,804.52002,451.967987C806.946289,450.266846,809.719482,449.124847,812.640015,448.623993C815.146973,448.244232,817.632751,447.737,820.088013,447.104004C822.008911,446.432312,824.010315,446.018005,826.039978,445.872009C827.06958,445.80777,828.101379,445.95459,829.072021,446.303986C830.383728,446.802582,831.492615,447.722443,832.223999,448.920013C833.073303,450.130219,834.109619,451.197754,835.296021,452.079987C836.44281,452.868073,837.852356,453.178314,839.223999,452.944C840.376892,452.718018,841.2677,451.79837,841.463989,450.640015C841.652466,449.725311,841.509521,448.772827,841.064026,447.951996C840.437195,446.602203,839.351746,445.518646,838,444.895996C836.1745,444.105865,834.373718,443.260132,832.599976,442.359985C831.255005,441.687439,829.888977,441.057739,828.504028,440.471985C827.522888,440.089325,826.490173,439.854919,825.440002,439.776001L825.015991,439.783997z"/>
    <path transform="matrix(-1,0,0,-1,0,0)" style="stroke:#000000;stroke-width:0.05mm;fill:none" d="M772.960022,449.223999C771.79303,449.264801,770.668213,449.670258,769.744019,450.384003C768.299622,451.394012,767.225952,452.84964,766.687988,454.528015C766.503906,455.348297,766.6875,456.20752,767.192017,456.880005C767.973267,457.699249,768.996643,458.246521,770.112,458.440002C771.17804,458.738312,772.308716,458.714722,773.359985,458.368011L773.567993,458.272003C774.021851,458.048645,774.404236,457.70401,774.679993,457.279999C775.800842,455.734619,776.392029,453.868927,776.367981,451.959991C776.337463,451.43985,776.195007,450.932861,775.952026,450.471985C775.206482,449.609314,774.097717,449.148254,772.960022,449.223999z"/>
    <path transform="matrix(-1,0,0,-1,0,0)" style="stroke:#000000;stroke-width:0.05mm;fill:none" d="M860.080017,448.799988C859.006653,448.90271,858.008911,449.3974,857.280029,450.191986C856.693665,450.898376,856.522278,451.860931,856.823975,452.727997C857.068054,453.506348,857.556152,454.184418,858.216003,454.664001C860.345337,456.305725,862.967529,457.178894,865.656006,457.144012C865.996948,457.137482,866.336731,457.102325,866.671997,457.040009L866.823975,457.023987C866.977722,457.004974,867.128052,456.961731,867.263977,456.888C867.50415,456.753479,867.721924,456.581238,867.895996,456.368011C868.529236,455.680908,868.767395,454.717102,868.52002,453.81601C868.026672,451.817261,866.548706,450.207947,864.599976,449.544006C863.162964,448.978455,861.622498,448.725037,860.080017,448.799988z"/>
    <path transform="matrix(-1,0,0,-1,0,0)" style="stroke:#000000;stroke-width:0.05mm;fill:none" d="M770.072021,438.063995C769.591309,438.102509,769.121521,438.228638,768.687988,438.440002C767.572449,439.047363,766.535583,439.788971,765.599976,440.64801C763.998291,441.99054,762.238464,443.13205,760.359985,444.048004C759.217285,444.481873,758.112366,445.009064,757.05603,445.623993C756.5495,445.936066,756.209473,446.458679,756.127991,447.048004C755.9328,448.133057,756.243652,449.247925,756.976013,450.071991C757.848206,451.140381,759.141357,451.777527,760.52002,451.81601C761.140076,451.936218,761.783386,451.770966,762.255981,451.35199C763.659973,449.953827,764.97699,448.470886,766.200012,446.911987C767.812317,445.083832,770.174255,444.09549,772.607971,444.231995C773.534912,444.276306,774.449707,444.461945,775.320007,444.783997C776.190002,445.066345,777.070618,445.314697,777.960022,445.528015C779.109192,445.759399,780.293274,445.755066,781.440002,445.511993C783.509155,444.995361,785.04895,443.260406,785.312012,441.144012C785.315186,440.247559,784.908752,439.400879,784.216003,438.832001C783.810913,438.62088,783.360779,438.509583,782.903992,438.511993C781.18573,438.65567,779.484924,438.96106,777.823975,439.424011C777.234741,439.549896,776.63446,439.616699,776.031982,439.623993C775.296997,439.508057,774.584045,439.279572,773.919983,438.944C772.882629,438.478088,771.778625,438.177612,770.64801,438.056C770.456055,438.042175,770.263184,438.041595,770.072021,438.063995z"/>
    <path transform="matrix(-1,0,0,-1,0,0)" style="stroke:#000000;stroke-width:0.05mm;fill:none" d="M871.679993,443.200012C870.742371,443.553467,870.037476,444.342529,869.783997,445.312012C869.552917,446.142792,869.64978,447.031372,870.05603,447.791992C870.876099,449.588623,872.58728,450.815063,874.552002,451.015991C875.229736,451.100342,875.916809,451.066254,876.583984,450.920013C876.853271,450.897339,877.118896,450.843201,877.375977,450.76001C875.693359,448.115662,873.875,445.560272,871.927979,443.104004L871.679993,443.200012z"/>
    <path transform="matrix(-1,0,0,-1,0,0)" style="stroke:#000000;stroke-width:0.05mm;fill:none" d="M848.616028,440.712006C847.593994,440.712982,846.607605,441.085205,845.840027,441.76001C845.326172,442.252106,844.979736,442.892822,844.848022,443.59201C844.57666,446.798553,846.899658,449.643158,850.096008,450.015991C850.866028,450.106506,851.646423,450.044708,852.392029,449.832001C853.533936,449.131531,854.320313,447.975464,854.552002,446.656006C854.5896,446.321899,854.571106,445.983704,854.495972,445.656006C854.040344,444.180817,853.217285,442.845764,852.104004,441.776001C851.087097,441.053467,849.863037,440.680084,848.616028,440.712006z"/>
    <path transform="matrix(-1,0,0,-1,0,0)" style="stroke:#000000;stroke-width:0.05mm;fill:none" d="M816.903992,429.696014C816.504639,429.774719,816.114868,429.896179,815.744019,430.063995C813.991638,430.934875,812.265381,431.858124,810.567993,432.832001L802.872009,432.272003C801.244873,433.961578,799.585571,435.620819,797.895996,437.247986C796.698303,438.358154,795.29248,439.219635,793.76001,439.783997C792.476379,440.301636,791.251038,440.953339,790.104004,441.727997C788.892639,442.701904,788.365784,444.296509,788.76001,445.799988C788.976013,446.522827,789.416626,447.157806,790.015991,447.615997C790.274841,447.868866,790.59729,448.048065,790.952026,448.119995C791.069824,448.149139,791.190735,448.164398,791.312012,448.160004C792.351196,447.943176,793.338013,447.524719,794.216003,446.928009C795.492615,446.143402,796.680786,445.22348,797.76001,444.18399C799.005676,443.071594,800.297485,442.012085,801.632019,441.007996C802.625854,440.300171,803.687317,439.692596,804.799988,439.191986C806.972168,438.34848,809.264893,437.856323,811.59198,437.735992C813.818848,437.535858,816.032837,437.21286,818.223999,436.768005C819.270447,436.523438,820.253418,436.062286,821.112,435.415985C822.029602,434.627289,822.277222,433.309784,821.711975,432.23999C820.859619,430.602142,819.149902,429.590363,817.304016,429.631989L816.903992,429.696014z"/>
    <path transform="matrix(-1,0,0,-1,0,0)" style="stroke:#000000;stroke-width:0.05mm;fill:none" d="M727.695984,443.575989C727.155396,444.248138,726.635193,444.936584,726.135986,445.640015C726.948303,445.279572,727.611816,444.651367,728.023987,443.864014C728.16626,443.563995,728.240234,443.236023,728.231995,442.903992L727.695984,443.575989z"/>
    <path transform="matrix(-1,0,0,-1,0,0)" style="stroke:#000000;stroke-width:0.05mm;fill:none" d="M861.440002,435.615997C860.38501,435.651764,859.360596,435.978027,858.47998,436.559998C857.584961,437.2034,857.057739,438.241791,857.072021,439.343994C857.071655,440.420898,857.416626,441.469452,858.05603,442.335999C858.431641,442.961975,858.972046,443.472198,859.616028,443.81601C861.143188,444.411438,862.810059,444.552032,864.416016,444.223999C866.158142,443.787292,867.290283,442.105377,867.031982,440.328003C866.670959,437.54538,864.24353,435.499664,861.440002,435.615997z"/>
    <path transform="matrix(-1,0,0,-1,0,0)" style="stroke:#000000;stroke-width:0.05mm;fill:none" d="M761.624023,416.671997C760.151367,417.346802,758.699951,418.067108,757.271973,418.832001C759.457581,420.420471,761.050659,422.692139,761.799988,425.287994C762.082825,426.332489,762.193665,427.415894,762.127991,428.496002C761.977539,429.961975,761.256653,431.310059,760.119995,432.247986C759.826294,432.429138,759.521301,432.591309,759.208008,432.735992C757.557495,433.375458,755.895752,433.986328,754.223999,434.567993C753.475098,434.839996,752.774841,435.231079,752.151978,435.727997C751.909729,435.945251,751.721375,436.217621,751.624023,436.528015C751.494507,437.289032,751.603638,438.071259,751.935974,438.768005C752.401733,440.001282,753.321106,441.010071,754.504028,441.59201L754.664001,441.631989L754.815979,441.64801C755.457214,441.494385,756.073853,441.252167,756.64801,440.928009C759.639587,439.035706,762.538818,437.001343,765.335999,434.832001C766.761841,433.913513,767.742065,432.444244,768.047974,430.776001C768.520813,428.674133,768.275269,426.474548,767.35199,424.528015C766.209839,422.411499,765.176392,420.237946,764.255981,418.015991C763.927673,417.316223,763.541931,416.644928,763.104004,416.007996L761.624023,416.671997z"/>
    <path transform="matrix(-1,0,0,-1,0,0)" style="stroke:#000000;stroke-width:0.05mm;fill:none" d="M829.583984,428.984009L829.335999,428.992004C827.401489,429.342468,825.857056,430.801788,825.392029,432.712006C825.40448,432.895203,825.464966,433.070404,825.552002,433.231995C825.94397,434.04657,826.602234,434.702332,827.416016,435.096008C828.898071,435.680267,830.422607,436.150604,831.976013,436.503998C833.324341,437.026886,834.620667,437.67511,835.848022,438.440002C836.837769,439.002258,837.849182,439.525269,838.880005,440.007996C839.539185,440.271973,840.235535,440.431763,840.94397,440.480011C841.932373,440.454926,842.777954,439.758972,842.984009,438.791992C843.468811,436.966156,842.864136,435.023926,841.432007,433.791992C840.319336,432.987091,839.039612,432.443024,837.687988,432.200012C836.360901,431.886444,835.074829,431.419495,833.856018,430.808014C832.750854,430.081085,831.560669,429.492676,830.312012,429.056C830.073669,428.99823,829.828674,428.969635,829.583984,428.984009z"/>
    <path transform="matrix(-1,0,0,-1,0,0)" style="stroke:#000000;stroke-width:0.05mm;fill:none" d="M793.52002,408.503998C791.971619,408.608429,790.427063,408.760498,788.888,408.959991C790.676697,412.762024,792.228882,416.670746,793.536011,420.664001C793.878906,421.855164,794.082581,423.08197,794.143982,424.320007C794.123535,425.457764,793.644348,426.539764,792.815979,427.320007C791.954468,428.089813,790.980713,428.723999,789.927979,429.200012C788.947571,429.675018,788.030701,430.271149,787.200012,430.976013C786.217407,431.904388,785.752197,433.255066,785.952026,434.59201C786.119324,435.555939,786.777161,436.362793,787.687988,436.720001C788.037598,436.818726,788.406494,436.827698,788.76001,436.743988C789.632813,436.61618,790.47345,436.324554,791.23999,435.888C793.952637,434.144684,796.40863,432.031128,798.536011,429.608002C799.146301,428.805237,799.504517,427.838898,799.559998,426.832001C799.633179,424.000671,799.646606,421.167786,799.599976,418.335999C798.512573,416.801056,797.46936,415.234924,796.471985,413.640015C795.748352,412.430908,795.331848,411.06308,795.255981,409.656006C795.221436,409.241302,795.156677,408.829712,795.064026,408.424011L793.52002,408.503998z"/>
    <path transform="matrix(-1,0,0,-1,0,0)" style="stroke:#000000;stroke-width:0.05mm;fill:none" d="M848.960022,427.079987C847.03833,427.171326,845.544678,428.78949,845.616028,430.712006C845.656433,432.257629,846.315491,433.723419,847.447998,434.776001C848.816406,436.369537,851.057007,436.897064,852.992004,436.079987C854.026123,435.591095,854.731323,434.601074,854.856018,433.463989C855.14801,431.548859,854.434204,429.618195,852.968018,428.35199C851.818176,427.479492,850.402588,427.031403,848.960022,427.079987z"/>
    <path transform="matrix(-1,0,0,-1,0,0)" style="stroke:#000000;stroke-width:0.05mm;fill:none" d="M776.552002,426.631989C775.19812,426.77005,773.983032,427.524567,773.263977,428.679993C772.821899,429.37207,772.539185,430.153778,772.432007,430.967987C772.317383,431.66391,772.405701,432.377625,772.687988,433.023987C772.881836,433.386169,773.170044,433.688934,773.52002,433.903992C774.13501,434.254639,774.811218,434.484009,775.512024,434.584015C777.100037,434.866516,778.734985,434.696442,780.231995,434.096008C781.42572,433.537476,782.231873,432.385162,782.343994,431.071991C782.382874,430.475372,782.227173,429.881775,781.895996,429.384003C780.783875,427.523834,778.712097,426.455872,776.552002,426.631989z"/>
    <path transform="matrix(-1,0,0,-1,0,0)" style="stroke:#000000;stroke-width:0.05mm;fill:none" d="M753.151978,423.048004C752.020813,423.191162,750.932739,423.573212,749.960022,424.167999C748.934082,424.713226,747.860229,425.163116,746.752014,425.511993L746.359985,425.600006C744.492004,426.957092,742.67218,428.379272,740.903992,429.864014C743.023621,430.610992,745.209412,431.155151,747.432007,431.488007C747.97168,431.539124,748.515808,431.511353,749.047974,431.40799C751.090149,430.997681,753.060913,430.289429,754.895996,429.303986C755.578552,428.912903,756.200928,428.42514,756.744019,427.855988C757.250427,427.261932,757.380981,426.432251,757.080017,425.712006C756.899597,425.167603,756.593018,424.674072,756.192017,424.264008C755.66095,423.56839,754.870117,423.118225,754,423.023987C753.718262,422.980133,753.430908,422.988892,753.151978,423.048004z"/>
    <path transform="matrix(-1,0,0,-1,0,0)" style="stroke:#000000;stroke-width:0.05mm;fill:none" d="M808.263977,418.463989C807.4552,418.4729,806.66571,418.70871,805.984009,419.144012C805.304321,419.613525,804.832825,420.327301,804.664001,421.135986C804.256165,422.620148,804.161133,424.173035,804.383972,425.696014C804.455811,426.023254,804.578979,426.337097,804.752014,426.623993C805.489441,427.467712,806.578186,427.919067,807.695984,427.839996C809.512268,427.772339,811.2547,427.103149,812.64801,425.936005C813.861084,424.794769,814.195679,422.999939,813.47998,421.496002C812.697205,419.73291,810.990295,418.559723,809.064026,418.455994C808.797852,418.430115,808.529602,418.4328,808.263977,418.463989z"/>
    <path transform="matrix(-1,0,0,-1,0,0)" style="stroke:#000000;stroke-width:0.05mm;fill:none" d="M837.807983,418.208008C836.305359,418.266876,834.886353,418.912659,833.856018,420.007996C833.083862,420.885498,832.744934,422.061554,832.927979,423.216003C833.093506,423.972382,833.53833,424.637451,834.16803,425.088013C835.771729,426.388397,837.710144,427.209106,839.76001,427.455994C840.470398,427.494171,841.177002,427.336548,841.807983,427.007996C842.713745,426.428253,843.308228,425.469177,843.424011,424.399994C843.596313,423.093445,843.272705,421.769745,842.52002,420.687988C841.523376,419.059174,839.714783,418.106476,837.807983,418.208008z"/>
    <path transform="matrix(-1,0,0,-1,0,0)" style="stroke:#000000;stroke-width:0.05mm;fill:none" d="M823.216003,418.264008C821.57135,418.364655,820.021667,419.067413,818.864014,420.23999C817.826355,421.461151,817.756042,423.232361,818.687988,424.536011C819.312012,425.488312,820.302551,426.139648,821.424011,426.335999C822.420654,426.671936,823.497314,426.688416,824.504028,426.384003C826.110107,426.094238,827.491211,425.074066,828.23999,423.623993C828.55249,423.018585,828.608643,422.312622,828.400024,421.664001C827.614136,419.816559,825.911011,418.522125,823.919983,418.264008C823.685425,418.253906,823.4505,418.252808,823.216003,418.264008z"/>
    <path transform="matrix(-1,0,0,-1,0,0)" style="stroke:#000000;stroke-width:0.05mm;fill:none" d="M782.495972,409.944C781.028259,410.224548,779.569153,410.54718,778.119995,410.911987C779.260132,412.637146,780.194336,414.489746,780.903992,416.432007C781.183899,417.255493,781.313904,418.12262,781.288025,418.992004C781.302185,420.31134,781.543945,421.61792,782,422.855988C782.569763,424.238403,783.662231,425.338989,785.039978,425.920013C785.72052,426.123962,786.452698,426.062012,787.088013,425.743988C787.395264,425.586853,787.669922,425.372711,787.895996,425.112C788.651611,424.359161,789.050903,423.321442,789,422.256012C788.698364,420.981079,788.275391,419.737976,787.736023,418.544006C786.917542,416.774017,786.14917,414.981323,785.432007,413.167999C785.033203,411.966095,784.540955,410.797241,783.960022,409.671997L782.495972,409.944z"/>
    <path transform="matrix(-1,0,0,-1,0,0)" style="stroke:#000000;stroke-width:0.05mm;fill:none" d="M771.703979,412.735992C770.346924,413.16217,769.004944,413.634552,767.679993,414.152008C768.320801,415.241638,768.853882,416.391052,769.271973,417.584015C769.809509,419.059753,770.445374,420.497742,771.176025,421.888C772.022766,423.343628,773.875,423.856812,775.35199,423.048004C776.337708,422.490845,776.927551,421.426941,776.872009,420.29599C776.72113,419.058258,776.355591,417.856232,775.791992,416.743988C774.970032,415.217224,774.059021,413.740112,773.064026,412.320007L771.703979,412.735992z"/>
    <path transform="matrix(-1,0,0,-1,0,0)" style="stroke:#000000;stroke-width:0.05mm;fill:none" d="M825.632019,412.200012C825.795593,413.021301,826.234863,413.762054,826.880005,414.29599C827.858337,415.156097,829.044128,415.745453,830.320007,416.007996C830.868286,416.081299,831.425537,415.975464,831.911987,415.712006C832.500671,415.449188,833.029602,415.068359,833.463989,414.59201C830.885376,413.557983,828.252197,412.665833,825.575989,411.920013L825.632019,412.200012z"/>
    <path transform="matrix(-1,0,0,-1,0,0)" style="stroke:#000000;stroke-width:0.05mm;fill:none" d="M812.343994,409.567993C811.811646,410.928528,811.826355,412.44165,812.383972,413.791992C812.970947,415.069336,814.220032,415.913116,815.624023,415.984009C816.654602,416.066315,817.684998,415.828308,818.575989,415.303986C820.289063,414.45816,821.347229,412.685059,821.271973,410.776001C818.387146,410.080872,815.468689,409.533539,812.528015,409.135986L812.343994,409.567993z"/>
    <path transform="matrix(-1,0,0,-1,0,0)" style="stroke:#000000;stroke-width:0.05mm;fill:none" d="M799.776001,408.640015C800.011963,410.732117,800.947571,412.683014,802.432007,414.175995C802.819763,414.540558,803.256409,414.849335,803.728027,415.096008C804.177063,415.263733,804.674988,415.245087,805.112,415.048004C806.204285,414.771851,807.074829,413.948273,807.40802,412.872009C807.778137,411.482269,807.868469,410.032715,807.671997,408.608002C805.032532,408.387329,802.384766,408.280548,799.736023,408.287994L799.776001,408.640015z"/>
</svg>
