<?xml version="1.0" encoding="UTF-8"?>
<svg xmlns="http://www.w3.org/2000/svg" width="258.290mm" height="190.981mm" viewBox="444.932373 -385.929291 258.290161 190.981277">
    <path transform="matrix(-0.26455,0,0,-0.26455,709.745361,-154.997009)" style="stroke:#000000;stroke-width:0.05mm;fill:none" d="M781.389832,870.008484C768.277466,866.664856,761.92865,863.638306,753.045837,856.496582C742.721191,848.195679,720.879333,824.697632,714.009216,814.5C706.783508,803.774536,691.441895,785.595703,686.804199,782.263855C681.210266,778.245056,679,774.630127,679,769.5C679,765.591064,677.928467,763.152893,671.528809,752.5C669.215942,748.650024,665.407532,741.800842,663.065735,737.279602C656.869934,725.317627,653.578857,722.722534,641.922729,720.607788C636.740234,719.667542,626.875,717.157104,620,715.029053C580.792542,702.892822,528.635559,690.075073,494,684.064026C488.225006,683.061768,479.674988,681.535889,475,680.673157C462.368805,678.342163,440.892181,674.778931,417,671.05011C398.000244,668.0849,391.609619,667.034546,382.763977,665.423096C378.509186,664.64801,371.084167,663.731934,366.263977,663.387451C361.443787,663.042908,354.799988,662.095703,351.5,661.282471C347.703125,660.346802,336.320374,659.48407,320.5,658.932861C296.704071,658.10376,289.138519,657.511719,272,655.137451C259.139832,653.355835,252.836899,652.255066,242.5,649.985352C225.873749,646.334595,223.502106,646.332275,214.437088,649.957764C193.118683,658.483887,163.268188,677.616394,154.742401,688.21875C144.701904,700.704712,131.358093,726.140686,128.509079,738.22467C126.805603,745.449951,126.574646,756.257629,127.956505,764.083191C128.48259,767.062439,129.614929,774,130.472809,779.5C131.330704,785,132.68457,793.099976,133.481415,797.5C134.278259,801.900024,134.945923,809.247131,134.965118,813.826904C134.998169,821.718445,134.847153,822.306702,132.07692,825.076904C127.527145,829.626709,121.4832,828.76886,118.583672,823.161804C113.452187,813.238586,105.177681,786.131836,102.050438,769C101.397858,765.424988,100.444542,760.61322,99.931961,758.30719C98.646446,752.523743,98.76207,733.897522,100.129036,726.560181C102.454857,714.076111,107.383995,700.137512,114.293953,686.504761C124.764236,665.847778,130.822495,659.880615,172,629.666016C179.187241,624.392334,191.760254,612.231262,193.573318,608.799683C196.161972,603.900024,195.341797,595.502747,191.10228,583.5C186.868988,571.514893,183.715881,563.614075,178.489914,551.896973C174.026596,541.889771,171.355087,531.755432,169.949722,519.5C169.319031,514,167.990982,506.575012,166.99852,503C166.006058,499.424988,164.203964,491.100006,162.993866,484.5C157.024536,451.942749,152.388702,434.293823,144.935226,415.749512C139.756912,402.865845,131.099869,385.633057,124.213181,374.5C117.507828,363.660095,103.182739,348.632751,94,342.805725C76.581696,331.752686,72.025261,328.990692,66.185989,325.945679C59.308033,322.359039,57,319.268463,57,313.645264C57,308.240601,43.419048,290.737335,35.759235,286.269928C29.848501,282.822632,28.189184,280.130005,29.476357,276.074493C30.383066,273.217712,34.001068,272.555786,38.480099,274.427246C40.550381,275.292267,43.019547,276,43.967136,276C46.723961,276,48.956963,272.708618,50.190739,266.826569C51.237877,261.83429,51.057312,260.240143,48.113029,248.483246C44.707573,234.884796,39.993565,222.527924,30.380203,202C24.995459,190.501678,24.537861,188.979126,24.669783,183C24.83173,175.660065,27.446301,159.903107,28.976801,157.04335C29.532608,156.004807,31.175888,154.2202,32.628536,153.077545C37.025902,149.618591,37.777668,149.723572,79.019356,159.556183C86.081207,161.239838,91.700584,161.971573,96.116165,161.782501C103.534668,161.464813,106,162.71698,106,166.802551C106,168.54924,104.562241,170.699127,101.465591,173.58287C98.971664,175.905319,95.394447,179.761765,93.51622,182.152756C91.637993,184.543747,87.040977,188.530228,83.300629,191.011627C74.310272,196.975952,72.701035,200.050934,73.363373,210C75.104797,236.157913,89.621552,260.373566,113.675659,277.245636C126.297852,286.099091,131.902924,288.157135,135.854675,285.389221C138.248947,283.712219,138.722778,279.219025,136.870346,275.757751C135.696472,273.564331,134.206268,260.660583,133.433762,246C133.187424,241.324997,132.244522,234.32016,131.338425,230.433685C128.568451,218.552567,131.040131,214.800293,140.105835,217.123764C144.016968,218.12616,145.959518,218.141312,149.283524,217.195389C159.655685,214.243744,176.907898,211,182.234375,211C189.765961,211,194.477112,213.025177,199.784851,218.544418C203.996155,222.923538,204.181427,223,210.580307,223C218.60968,223,221.463333,225.238403,222.533722,232.376266C223.448013,238.473236,221.819366,240.872238,213.78186,245.267868C210.326843,247.157379,203.899994,250.770172,199.5,253.296295C195.100006,255.822418,190.262497,258.568237,188.75,259.398102C184.838898,261.544037,184.976868,263.201447,190.756424,283.5C191.852615,287.350006,193.285416,293.075317,193.940414,296.2229C196.835999,310.137787,210.681122,331.642334,220.182205,336.982239C223.828094,339.031342,224.927521,339.179901,230.873001,338.426636C234.517853,337.964844,240.649994,337.590027,244.5,337.593719C254.552155,337.603394,264.950592,342.184448,284.648529,355.281311C298.034027,364.181122,302.596191,367.929321,313.974548,379.375092C321.385559,386.830017,327.766418,393.732849,328.154266,394.714752C328.542114,395.696625,328.891052,399.458252,328.929718,403.073853C329.016632,411.204285,331.430969,427.720215,333.601196,435.03067C335.734833,442.217865,340.261841,451.089691,343.923706,455.260315C345.539917,457.101105,349.255768,459.927948,352.181152,461.542175C356.898468,464.145233,358.461304,464.475983,366,464.466644C370.674988,464.460846,378.325012,463.922607,383,463.270538C387.674988,462.618469,397.350006,461.365448,404.5,460.486053C411.649994,459.606628,420.875,458.058502,425,457.045715C429.125,456.032928,436.325012,454.649261,441,453.970886C445.674988,453.292511,454.674988,451.478882,461,449.940613C467.325012,448.402344,476.100006,446.266083,480.5,445.19339C508.944489,438.25882,539.058167,428.981567,560.5,420.547485C600.048157,404.991302,603.497131,403.441498,613.169495,396.880524C624.613586,389.117767,625.907227,384.732971,627.00061,350C628.758057,294.170837,635.019226,268.394135,656.75592,227.5C671.190125,200.344345,676.532471,191.656555,683.420227,184.138321C687.939392,179.20546,701.713684,169.088669,707.678406,166.321396C717.141052,161.93132,743.090332,159.785767,755.075256,162.402496C771.225769,165.928711,784.105957,169.677444,785.760559,171.333359C789.369934,174.945557,787.295776,187.040726,782.089478,192.740921C778.295166,196.895111,775.217468,197.550522,766.886047,195.9785C752.873169,193.334457,746.384338,198.249069,738.22345,217.687531C731.782593,233.029068,729.154785,245.211349,726.93927,270C725.880859,281.842377,724.376709,295.662689,722.85791,307.5C721.243469,320.082642,720.606995,373.130493,721.958069,382.5C722.592529,386.899994,723.553833,393.649994,724.09436,397.5C725.698608,408.926727,731.077759,429.171509,734.100708,435.159332C735.116821,437.171967,738.92041,443.018005,742.553162,448.150513C758.321655,470.428833,763.725037,484.903412,768.068298,516.5C770.300842,532.74176,772.867554,547.598389,776.360962,564.5C777.725098,571.099976,779.378845,580.325012,780.03595,585C780.692993,589.674988,782.345459,597.099976,783.708069,601.5C787.350464,613.261475,798.514343,636.463989,804.397522,644.5C807.216125,648.349976,810.741516,653.299988,812.231689,655.5C813.721802,657.700012,818.893799,663.775024,823.724915,669C828.55603,674.224976,833.82959,680.590881,835.443909,683.146362C838.379333,687.793152,842.432068,691,845.36908,691C848.073914,691,849.214661,687.046265,849.08551,678.119324C848.903931,665.568359,853.333313,639.268311,856.768616,632.5C860.753601,624.648621,877.234619,606.88446,881.79895,605.520935C884.827332,604.616211,888.319458,606.96167,891.540039,612.063416C898.015503,622.321228,905.97522,617.542175,905.994446,603.384888C906.007935,593.411682,917.232788,590.110596,919.562866,599.394531C919.874146,600.634583,919.360535,605.665649,918.42157,610.574585C915.696472,624.821899,915.606445,629.001343,917.94397,632.75C920.29187,636.515198,924.29895,637.178467,925.958984,634.076599C926.525146,633.018799,927.715088,625.931274,928.603394,618.326599C929.999695,606.372559,930.539734,604.166992,932.590881,602.041077L934.963318,599.582092L937.731689,601.643799C941.463562,604.423157,941.889404,608.856445,940.695251,632.5C939.679932,652.603638,940.208679,657.566284,943.84436,662.056091C946.451294,665.275513,950.657654,664.063599,952.543701,659.549622C953.765747,656.624939,953.758301,655.520081,952.488647,651.335205C949.653992,641.992249,951.365356,633.952209,956.613342,631.956909C961.692627,630.025757,964.347839,633.184509,965.47583,642.5C966.620361,651.952148,968.712097,654.185608,972.5,650C973.495483,648.900024,975.332581,648,976.582397,648C979.507385,648,983,652.436707,983,656.152283C983,657.737732,983.863831,663.189514,984.919556,668.267456C985.975342,673.345337,987.39093,681.325012,988.065308,686C990.264771,701.246521,992.869507,713.157288,994.483887,715.35022C1001.242126,724.530945,1001.000488,723.897705,1000.990234,732.397888C1000.979004,741.707947,998.165344,749.351196,993.663452,752.300903C989.829041,754.813354,977.8172,757.058228,969.805359,756.759705C963.309448,756.5177,962.6745,756.685181,960.495178,759.214844C959.141907,760.785706,957.693115,764.367493,957.056946,767.714844C956.452209,770.896667,955.223389,776.424988,954.326172,780C953.428955,783.575012,952.49762,788.599792,952.256592,791.166199C951.905762,794.900879,950.930908,796.872009,947.373474,801.039673C942.935547,806.238831,942.929688,806.256104,943.59375,812.12561L944.25885,818.004333L939.832886,822.252197C937.398621,824.588501,932.521362,828.075012,928.994568,830C925.467834,831.924988,918.063782,836.449524,912.541138,840.054504C907.018494,843.659485,900.474976,847.786011,898,849.224548C895.525024,850.663025,891.025024,853.709534,888,855.994446C880.062683,861.989929,867.986755,867.529419,856.5,870.444214C846.96814,872.862976,845.236023,872.978455,819.5,872.911682C793.250366,872.843506,792.191223,872.762817,781.389832,870.008484z"/>
    <path transform="matrix(-0.26455,0,0,-0.26455,709.745361,-154.997009)" style="stroke:#000000;stroke-width:0.05mm;fill:none" d="M851,857.52533C861.587219,855.344788,868.005798,852.427124,881.347717,843.730164C888.291931,839.203613,901.007751,831,909.605103,825.5C918.202454,820,926.032593,814.491394,927.005432,813.258728C927.97821,812.026001,929.073608,809.325989,929.439575,807.258728C929.805542,805.191406,932.572815,798.549988,935.58905,792.5C942.084839,779.470703,943.451538,772.616028,940.148499,769.63147C937.464722,767.206482,933.752686,768.092712,931.265259,771.75238C930.238098,773.26355,927.639404,778.549988,925.490356,783.5C922.627136,790.094849,920.078003,794.103394,915.951416,798.5C912.854065,801.799988,908.831665,806.75,907.012756,809.5C900.181274,819.828186,894.964905,823.479309,882.604187,826.584229C876.642151,828.081848,875.323303,828.9151,869.244568,835.025269C863.57074,840.728333,861.547424,842.083435,856.5,843.561035C849.371643,845.647766,833.342896,845.845947,821.835388,843.989563C813.521484,842.648376,809.596863,842.945496,800.393372,845.612671C792.66748,847.851685,786.23761,846.641235,777.039795,841.216431C768.595215,836.235901,749.019348,817.439636,744.460083,809.934265C739.935059,802.485352,734.45105,800.551819,729.75,804.747925C725.753723,808.315002,727.134705,810.819824,741.742126,826.5C760.519897,846.656738,771.751038,854.393555,786.5,857.332458C796.140808,859.25354,841.943848,859.390442,851,857.52533z"/>
    <path transform="matrix(-0.26455,0,0,-0.26455,709.745361,-154.997009)" style="stroke:#000000;stroke-width:0.05mm;fill:none" d="M796.434875,832.02478C798.277283,831.32428,799,830.31958,799,828.458984C799,823.46283,799.561768,823.989441,772.375977,803.5C765.653076,798.433105,763.317017,794.06311,765.069519,789.832153C766.486145,786.412109,770.120056,784.647827,773.994751,785.49884C775.450806,785.818665,779.31012,788.805176,782.571045,792.13562C785.83197,795.466064,791.875,800.798035,796,803.984436C805.077698,810.996582,807.946411,814.001831,811.670959,820.400879C815.873474,827.620972,818.171448,828.931519,828.542175,830.022278C846.709473,831.933105,854.08136,830.992249,858.330383,826.220459C860.768616,823.482239,860.131653,820.169861,856.672729,817.600342C854.146729,815.723816,852.702576,815.529358,843.120178,815.775269C826.02124,816.214172,824.560913,815.402588,800.803284,792.256531C784.812439,776.677307,777.928284,772.197937,771.98291,773.503784C768.21875,774.330505,758.770996,781.953003,754.918213,787.271606C750.245911,793.721497,751.11554,797.352173,759.708923,807.272888C766.476563,815.085815,782.484253,828.861938,787.376831,831.08374C792.159729,833.255676,792.97467,833.340332,796.434875,832.02478z"/>
    <path transform="matrix(-0.26455,0,0,-0.26455,709.745361,-154.997009)" style="stroke:#000000;stroke-width:0.05mm;fill:none" d="M884.316223,811.551208C889.529968,809.691711,892,807.222778,892,803.870667C892,800.378967,889.078064,798.694763,879.987244,796.946289C876.41925,796.260071,868.325012,793.789185,862,791.455383C854.277039,788.605835,846.066101,786.481506,837,784.987549C829.575012,783.764038,822.269043,782.133118,820.764465,781.363281C815.959839,778.904907,815.689636,772.047302,820.263367,768.645081L823.026672,766.589539L832.263367,768.793213C837.343506,770.005249,844.932434,771.632324,849.127563,772.408997C853.322754,773.185669,861.197754,775.600342,866.627563,777.774963C872.057434,779.949585,878.974976,782.297485,882,782.992615C885.025024,783.687683,890.1651,785.32373,893.422424,786.628235C904.270691,790.972717,906.910034,789.732117,912.53363,777.645447C914.362183,773.715454,917.23822,768.474976,918.924805,766C924.736816,757.471375,921.96167,751.421387,913.227356,753.579163C909.339844,754.539551,909.16449,754.783813,904.088135,766.30719C901.164124,772.944702,896.977295,774.76178,888.5,773.072449C883.021667,771.980774,879.789612,770.555481,863,761.827698C852.947449,756.602112,839.395569,755.695923,822.570862,759.124451C807.549377,762.185486,800.428589,760.554626,794.627686,752.724487C790.437256,747.068298,793.032593,732.268433,799.276184,726.21698C803.455322,722.166321,808.041138,720.613953,823.689636,717.952698C834.66803,716.085632,838.582031,715.871094,851.058777,716.452209C868.246765,717.252808,869.837891,716.645752,870.696655,708.96051C871.724243,699.763794,865.007446,696.4646,855.216736,701.356934C848.155762,704.885315,845.698181,705.182739,838.025391,703.437561L831.021057,701.844482L821.951294,706.022461C812.699341,710.284302,804.030518,711.977417,798.53009,710.596924C797.073547,710.231323,793.995911,708.247253,791.690918,706.187744C785.068604,700.270935,784.750183,700.109863,776.587158,698.548035C762.483093,695.849487,758.401917,691.160889,759.217346,678.592957C759.476257,674.601624,760.461975,669.969482,761.471497,668C764.160645,662.753662,772.379456,652.957458,777.412109,649C779.860107,647.075012,782.431152,644.46637,783.12561,643.203125C784.744446,640.258057,783.810791,636.995056,777.201904,622.5C770.213318,607.172119,768.146667,600.508545,766.395508,587.65625C765.559448,581.520325,763.579712,570.875,761.996033,564C760.412415,557.125,758.803406,548.125,758.420471,544C757.668579,535.90033,756.560059,531.976379,754.687439,530.785645C752.549438,529.426208,749.319275,529.96106,746.560181,532.131348C742.564392,535.274414,741.792725,538.178345,743.612671,543.223267C744.461243,545.575439,745.499451,551.099976,745.919861,555.5C746.514404,561.72229,747.525574,565.222778,750.470581,571.252808L754.256958,579.005676L753.543945,590.006226L752.830994,601.006714L756.925537,608.108582C759.177551,612.014648,762.327942,618.200623,763.926514,621.855225C770.132263,636.043091,769.198853,641.121033,758.410522,651.862549C751.604065,658.639526,750.810303,659.872375,748.43103,667.362549C746.637146,673.009705,746.038879,676.571106,746.476013,679C746.822449,680.924988,747.491821,686.988586,747.963501,692.47467C749.053223,705.148804,750.165039,706.376648,761.480652,707.402039C786.172668,709.639526,791.822083,721.069702,779.369812,743.59613C773.674133,753.899719,774.901245,756.917664,787.325439,763.162109C794.452148,766.744019,797.294617,769.089417,809.5,781.458679C827.180725,799.37677,830.043213,800.981018,844.44635,801.043884C855.590881,801.092529,860.166931,802.301514,865.601379,806.632874C874.208679,813.492981,876.893311,814.198486,884.316223,811.551208z"/>
    <path transform="matrix(-0.26455,0,0,-0.26455,709.745361,-154.997009)" style="stroke:#000000;stroke-width:0.05mm;fill:none" d="M729.953674,789.897522C736.27002,787.485535,738.681641,785.987549,740.789124,783.166992C744.198425,778.604187,753.286011,769.541687,758.859131,765.14679C762.470154,762.299194,763.065247,761.32019,762.805664,758.653748C762.38385,754.320679,758.260437,752.305786,753.024841,753.87439C750.163757,754.731628,747.965637,756.733887,743.40802,762.634399C735.983765,772.246155,730.708008,776.136536,724.300781,776.723999C720.209412,777.099182,718.835022,776.718689,715,774.148987C707.373718,769.03894,698.534851,755.08551,696.654419,745.187805C695.854614,740.978271,697.911255,735.94342,701.351074,733.689514C705.703308,730.83783,721.481445,726,726.429626,726C732.99292,726,737.782898,723.745972,739.401855,719.89563C742.459595,712.623352,738.718018,710.155029,726.984802,711.704102C720.466858,712.564636,717.766724,713.515686,712.07074,716.957275C705.268005,721.067566,703.935852,721.440979,688.228638,723.640564C683.744385,724.268494,678,729.451172,678,732.86908C678,734.333069,679.128296,737.54895,680.507385,740.015442C686.042786,749.915833,689.809692,757.772827,691.515808,762.976746C692.866638,767.096985,695.068542,770.336182,700.405701,776.054504C704.307556,780.235046,709.330933,785.758057,711.568726,788.327759C716.565247,794.06543,718.586975,794.238098,729.953674,789.897522z"/>
    <path transform="matrix(-0.26455,0,0,-0.26455,709.745361,-154.997009)" style="stroke:#000000;stroke-width:0.05mm;fill:none" d="M729.396423,758.172119C733.429688,754.615906,737,748.652649,737,745.472412C737,740.105164,733.144409,738.546082,723.898987,740.174622C713.711975,741.968994,710.990295,745.962646,714.669983,753.716919C717.843628,760.404907,724.559692,762.436707,729.396423,758.172119z"/>
    <path transform="matrix(-0.26455,0,0,-0.26455,709.745361,-154.997009)" style="stroke:#000000;stroke-width:0.05mm;fill:none" d="M892.799988,756.799988C895.249268,754.350708,894.17511,750.2547,890.25,747.076477C881.28418,739.81665,875.661499,735.357849,873.013062,733.407471C867.126465,729.072449,823.647156,729.777954,812.614929,734.387512C806.290283,737.030151,805.480774,745.078613,811.390442,746.561829C812.742554,746.901245,818.191711,746.175354,823.499634,744.948792C831.785706,743.034058,834.942688,742.798218,845.825195,743.281067C860.927917,743.951111,865.064026,745.222168,876.150635,752.600281C884.507874,758.161926,890.042114,759.557922,892.799988,756.799988z"/>
    <path transform="matrix(-0.26455,0,0,-0.26455,709.745361,-154.997009)" style="stroke:#000000;stroke-width:0.05mm;fill:none" d="M947.959167,753.380859C955.409485,747.111877,955.67926,741.252991,950.507751,698.027527C948.588745,681.987793,947.645935,679.5,943.486511,679.5C936.91272,679.5,935.505066,690.055237,939.552429,709C940.433716,713.125,941.17511,719.984375,941.199951,724.243042C941.240417,731.174683,940.86554,732.754395,937.622559,739.317627C935.630188,743.349976,934,747.437744,934,748.401489C934,751.027222,939.462219,756,942.346375,756C943.721436,756,946.247253,754.821411,947.959167,753.380859z"/>
    <path transform="matrix(-0.26455,0,0,-0.26455,709.745361,-154.997009)" style="stroke:#000000;stroke-width:0.05mm;fill:none" d="M984.201599,739.952271C986.865784,737.288025,987.189392,736.375671,986.772949,732.702271C986.510925,730.390991,984.920044,726.25,983.23761,723.5C979.240295,716.966309,978.519043,714.000244,975.105774,690.059753C972.126038,669.160339,971.034973,666,966.799561,666C964.200684,666,960,670.421021,960,673.15625C960,674.392212,960.881531,679.250122,961.958923,683.951721C964.794189,696.324524,968.003052,721.176636,968.001404,730.75C967.999695,740.91864,969.456726,743,976.576904,743C980.344971,743,981.692444,742.461365,984.201599,739.952271z"/>
    <path transform="matrix(-0.26455,0,0,-0.26455,709.745361,-154.997009)" style="stroke:#000000;stroke-width:0.05mm;fill:none" d="M763.573425,739.533752C766.192505,738.439453,767.601257,736.89502,769.12738,733.444885C771.621887,727.805725,771.002258,724.569641,767.035156,722.518188C760.581604,719.180908,752.75647,721.778748,749.669983,728.283081C747.513428,732.827637,747.565857,734.178406,750.019897,737.298218C752.93396,741.002808,758.041321,741.845215,763.573425,739.533752z"/>
    <path transform="matrix(-0.26455,0,0,-0.26455,709.745361,-154.997009)" style="stroke:#000000;stroke-width:0.05mm;fill:none" d="M920.386902,738.134644C926.889038,734.453003,928.779846,723.711853,925.3396,710C924.414429,706.312561,923.677673,699.172974,923.636963,693.5C923.572632,684.545776,923.867859,682.820251,926.460144,677C928.621765,672.14679,929.334778,669.050903,929.274475,664.780396C929.168335,657.261475,926.480652,651.61322,922.80719,651.189087C919.006897,650.750305,917.567322,654.09082,915.562805,668C914.651306,674.325012,913.462952,681.075012,912.921997,683C912.381042,684.924988,911.66687,691,911.3349,696.5C910.777161,705.740784,910.931335,706.999451,913.365662,713.07843C916.531372,720.983826,916.714233,725.285767,914,728C911.184998,730.815002,905.942261,730.631897,903.112488,727.619751C897.373901,721.511292,895.363281,700.578979,898.826599,683C899.964355,677.224976,901.362244,669.306213,901.932983,665.402649C902.503784,661.499146,903.909302,655.266663,905.056396,651.552795C908.45874,640.537231,905.595825,632.640869,897.217285,629.931396C895.172791,629.270264,891.768982,627.858887,889.65332,626.795044C883.748352,623.825684,880.475769,624.146973,876.397339,628.096558C870.827942,633.48999,867.283875,641.956848,864.926819,655.5C862.05603,671.9953,861.901489,681.109741,864.444824,683.930847C866.891846,686.645081,869.734863,686.258972,872.255188,682.870178C873.737793,680.876709,874.781555,675.915771,876.56842,662.370178C877.864929,652.541565,878.942444,643.972046,878.96283,643.326721C879.043823,640.769897,884.189209,636,886.866394,636C893.948242,636,896.115662,641.476074,893.061951,651.653198C891.932007,655.418945,890.367188,663.450012,889.584534,669.5C888.801941,675.549988,887.257996,682.974976,886.153625,686C884.450928,690.663635,884.152405,693.897278,884.19043,707.264709C884.229553,721.001953,884.471375,723.329529,886.070862,725.362976C889.076782,729.184387,901.684998,739.081604,904.700989,739.987305C908.488831,741.124817,916.850098,740.137207,920.386902,738.134644z"/>
    <path transform="matrix(-0.26455,0,0,-0.26455,709.745361,-154.997009)" style="stroke:#000000;stroke-width:0.05mm;fill:none" d="M120.219254,721.25C121.060333,720.287476,124.773071,713.518494,128.469788,706.207764C138.92157,685.537964,147.9422,674.535522,163.5,663.481506C172.925461,656.784607,197.537994,642.152893,202.997665,640.000916C209.58754,637.403442,211.668045,636.023987,212.824814,633.485168C215.158142,628.364075,210.679672,622,204.742569,622C202.481003,622,200.244843,623.412537,195.541931,627.81189C192.124802,631.008423,180.817459,639.665588,170.41449,647.049927C145.454346,664.767517,134.755936,675.30011,126.788246,690C119.872276,702.759583,116,712.758118,116,717.85614C116,723.250549,117.451118,724.417786,120.219254,721.25z"/>
    <path transform="matrix(-0.26455,0,0,-0.26455,709.745361,-154.997009)" style="stroke:#000000;stroke-width:0.05mm;fill:none" d="M674.499146,714.818665C677.070496,711.762756,677.162781,711.246826,676.838013,701.736633C676.473755,691.066772,675.421875,689,670.355896,689C663.861633,689,660.035828,693.513306,659.257935,702.092346C658.610107,709.236389,660.19342,713.536987,664.420288,716.114502C668.821411,718.798279,671.433044,718.462524,674.499146,714.818665z"/>
    <path transform="matrix(-0.26455,0,0,-0.26455,709.745361,-154.997009)" style="stroke:#000000;stroke-width:0.05mm;fill:none" d="M700.204529,707.959961C707.228455,706.009216,710.149841,698.917358,705.825684,694.314453C702.907898,691.208618,694.971863,691.028137,692,694C688.362488,697.637512,689.635864,706.746338,694,708.30603C696.173767,709.082886,696.158203,709.08374,700.204529,707.959961z"/>
    <path transform="matrix(-0.26455,0,0,-0.26455,709.745361,-154.997009)" style="stroke:#000000;stroke-width:0.05mm;fill:none" d="M644.964844,704.065735C646.608398,700.994629,646.174377,697.240356,643.934448,695.153564C642.77478,694.07312,637.86554,692.295593,632.740051,691.10022C626.829102,689.72168,620.664795,687.378174,615.252808,684.451965C607.379028,680.194641,606.356934,679.90863,597.621887,679.518433C591.015503,679.223328,585.639282,678.24762,578.924622,676.125122C568.601074,672.861938,551.921997,668.053345,542.45697,665.611511C539.13324,664.754028,531.483276,663.323792,525.45697,662.433167C519.430603,661.542542,510.403473,659.505737,505.396576,657.906921C500.389679,656.308105,494.487885,655,492.281433,655C487.339264,655,483.410309,657.855347,482.471619,662.129272C481.341431,667.274902,483.939331,668.870728,496.077301,670.486633C508.114777,672.089172,531.191589,676.765869,548.5,681.110535C583.798706,689.970947,610.919983,697.399536,622.5,701.37915C637.050232,706.379578,643.32489,707.129944,644.964844,704.065735z"/>
    <path transform="matrix(-0.26455,0,0,-0.26455,709.745361,-154.997009)" style="stroke:#000000;stroke-width:0.05mm;fill:none" d="M733.25,695.88623C735.62439,693.026428,735.45874,688.45874,732.887451,685.887451C730.253113,683.253113,724.868408,683.835571,721.356628,687.134705C718.798157,689.538269,718.398865,692.00824,720.065369,695.122131C722.351074,699.392944,729.971802,699.834595,733.25,695.88623z"/>
    <path transform="matrix(-0.26455,0,0,-0.26455,709.745361,-154.997009)" style="stroke:#000000;stroke-width:0.05mm;fill:none" d="M816.075745,693.961365C820.803467,691.549438,821.982178,688.189392,819.485229,684.242737C816.862915,680.0979,813.845886,678.046875,810.334961,678.022217C807.804138,678.004456,806.341675,678.940979,803.036316,682.696106C799.602478,686.597107,798.953247,687.98999,799.201355,690.923096C799.735352,697.236206,807.068481,698.556519,816.075745,693.961365z"/>
    <path transform="matrix(-0.26455,0,0,-0.26455,709.745361,-154.997009)" style="stroke:#000000;stroke-width:0.05mm;fill:none" d="M784.565979,684.23468C785.152283,683.830627,787.023254,681.474976,788.723755,679C790.424194,676.525024,793.656982,672.721191,795.907715,670.547058C801.859924,664.797546,801.289978,659.568726,794.279358,655.60791C790.200623,653.303467,773,672.076904,773,678.833008C773,679.326538,773.932678,680.915955,775.072571,682.365112C777.140015,684.993469,782.059387,685.962219,784.565979,684.23468z"/>
    <path transform="matrix(-0.26455,0,0,-0.26455,709.745361,-154.997009)" style="stroke:#000000;stroke-width:0.05mm;fill:none" d="M660.706055,677.5C668.71283,673.250977,672.830444,673.061462,681.141235,676.559448C686.835754,678.956238,687.898315,679.07666,697.861084,678.454651C706.4552,677.918152,709.653198,677.258484,714.5,675.022705C717.799988,673.500427,722.075012,671.944397,724,671.564941C730.143677,670.35376,733.056274,668.79187,734.54718,665.908813C736.588867,661.960571,736.354309,658.354309,733.895813,655.895813C731.124023,653.124023,727.242188,653.892883,720.113586,658.625549C710.428345,665.055542,695.9953,668.473694,688.698364,666.065491C682.69342,664.083679,681.492432,661.131958,681.551147,648.5C681.581177,642.037537,682.275452,634.612488,683.234192,630.5C684.42865,625.376648,684.627686,622.293579,683.976624,619C683.487366,616.525024,683.067505,611.643005,683.043579,608.151123C682.969543,597.358154,686.820984,592.203064,698.502014,587.460205C705.370667,584.671326,707,582.930664,707,578.38147C707,574.147766,702.80481,570.58905,698.766113,571.39679C695.943237,571.961365,677.708618,584.454468,674.446777,588.058777C673.059875,589.591309,672.467285,592.632751,671.871887,601.274719C671.446533,607.448608,670.406189,614.75,669.560059,617.5C667.629028,623.776123,667.616211,628.163574,669.510803,634.408936C672.954224,645.759888,670.562378,659.377197,664.366516,663.695984C657.674072,668.360962,645.831116,669.469177,638.458618,666.120361C629.464111,662.034668,626.444336,655.162048,627.320984,640.772522C627.993591,629.731934,627.174866,626.683655,623.1203,625.133118C621.679138,624.582031,613.075012,623.917236,604,623.655945C594.924988,623.394592,585.785767,622.66156,583.690552,622.026978C581.595398,621.392395,577.439392,618.661926,574.455017,615.95929C568.277405,610.364807,566.091797,609.578857,558.469299,610.210999C551.817993,610.762573,549,612.977844,549,617.654968C549,621.88446,551.613159,624.555359,557.197266,626.033386C559.563782,626.659729,566.214111,628.740234,571.975769,630.656677C579.836914,633.271362,585.310791,634.374146,593.907043,635.074768C613.158447,636.64386,616.017395,639.383423,616.938965,657.144775C617.655762,670.9599,618.318237,671.726379,634.132751,677.037903C648.72345,681.938293,652.227661,681.999268,660.706055,677.5z"/>
    <path transform="matrix(-0.26455,0,0,-0.26455,709.745361,-154.997009)" style="stroke:#000000;stroke-width:0.05mm;fill:none" d="M602.673096,662.37616C603.717102,660.782837,604.0177,658.907959,603.59259,656.641724C602.537964,651.020081,600.203186,649.774109,589.114014,648.915161C579.254639,648.151428,562.787842,643.638916,547.329468,637.4646C542.226379,635.426392,539.445496,635,531.254517,635C522.469238,635,520.180115,634.593445,510.9953,631.4021C500.925385,627.903259,500.308411,627.814697,488.570251,628.185364C473.954315,628.64679,471.563385,629.669373,467.559509,637.171387C460.304626,650.764526,452.369049,653.290588,436.669678,647.004272C429.46994,644.121399,428.4422,643.968628,420.24469,644.56366C410.231445,645.290466,408.632385,644.83728,401.026917,639.116699C395.758179,635.153687,392.292328,634.183105,388.5448,635.621155C386.128937,636.548218,384,641.375977,384,645.927307C384,650.615662,386.10733,652.463989,392.5,653.382629C410.436005,655.960022,444.783844,661.422546,450.315369,662.577271C459.680603,664.532288,465.325073,664.422913,467.200287,662.25C468.030945,661.287476,469.563171,658.033752,470.605286,655.019409C474.666748,643.271362,485.311005,637.788452,498,640.908264C499.924988,641.381531,505.54892,642.963501,510.497559,644.423706C515.446228,645.883911,524.446228,647.759644,530.497559,648.591919C537.506714,649.555969,550.210693,652.680786,565.5,657.201477C597.881409,666.775879,599.630737,667.019409,602.673096,662.37616z"/>
    <path transform="matrix(-0.26455,0,0,-0.26455,709.745361,-154.997009)" style="stroke:#000000;stroke-width:0.05mm;fill:none" d="M654.765381,652.003967C657.738403,649.234192,658.506226,644.147339,656.629333,639.655273C654.749207,635.155579,651.562256,633.729858,646.505249,635.12616C636.687256,637.837036,639.280945,654,649.533936,654C651.238586,654,653.583008,653.105469,654.765381,652.003967z"/>
    <path transform="matrix(-0.26455,0,0,-0.26455,709.745361,-154.997009)" style="stroke:#000000;stroke-width:0.05mm;fill:none" d="M710.702515,647.952026C722.86615,641.63739,725.300964,637.781311,720.581787,632.305786C718.316101,629.676941,717.684998,629.503906,710.572205,629.561951C704.572754,629.61084,702.406067,630.049927,700.240356,631.655579C695.172241,635.413147,693.256775,646.256775,697,650C699.837585,652.837585,701.879456,652.532349,710.702515,647.952026z"/>
    <path transform="matrix(-0.26455,0,0,-0.26455,709.745361,-154.997009)" style="stroke:#000000;stroke-width:0.05mm;fill:none" d="M368.84491,647.470032C370.19989,645.747498,371.048187,642.635925,371.503052,637.720032C372.095001,631.322327,371.820099,629.407532,369.089355,620.908447C365.019226,608.240662,361.794403,605.32782,357.289246,610.25C354.126801,613.7052,353.75882,616.362549,355.576904,622.616516C356.883057,627.109558,357.099701,630.374634,356.570251,637.58728C355.921387,646.427124,355.988037,646.878235,358.169067,648.405884C361.689758,650.871887,366.500763,650.450134,368.84491,647.470032z"/>
    <path transform="matrix(-0.26455,0,0,-0.26455,709.745361,-154.997009)" style="stroke:#000000;stroke-width:0.05mm;fill:none" d="M340.927429,642.365112C343.353912,639.280334,343.810791,629.169312,341.712097,625C339.456818,620.519714,335.618134,621.125305,329.480896,626.929626C323.04718,633.014343,320.729126,634,312.852509,634C308.309174,634,305.105194,633.240662,299.772583,630.900208C292.85675,627.864807,292.489136,627.814758,282.090668,628.49408C268.616364,629.374329,255.775513,627.314331,244.471298,622.459106C234.598724,618.21875,230.905716,618.033142,228.072586,621.634888C224.900604,625.667358,225.713593,630.705994,229.897522,632.945129C232.702469,634.446289,261.026184,639.816772,272.960388,641.110291C278.757172,641.738586,287.325012,642.810242,292,643.49176C296.674988,644.173279,309.129852,644.791443,319.677429,644.865417L338.854828,645L340.927429,642.365112z"/>
    <path transform="matrix(-0.26455,0,0,-0.26455,709.745361,-154.997009)" style="stroke:#000000;stroke-width:0.05mm;fill:none" d="M747.883118,643.369324C749.163574,642.472412,750.860046,640.185913,751.652954,638.288086C752.918579,635.259094,752.906982,634.206177,751.557983,629.668762C749.529419,622.845764,742.509399,610.363342,739.716797,608.613708C738.497559,607.849854,734.306885,606.771362,730.404175,606.217163C726.22937,605.624268,720.564941,603.886353,716.644043,601.995361C711.267334,599.402222,709.276367,598.913147,706.339417,599.464172C701.261292,600.416809,697,604.904907,697,609.300659C697,614.740051,698.768921,615.5,711.430542,615.5C721.375244,615.5,723.067505,615.768005,727.492615,618.04364C733.713257,621.242615,735.902405,624.946594,736.857971,633.889465C737.945435,644.067139,741.959351,647.518494,747.883118,643.369324z"/>
    <path transform="matrix(-0.26455,0,0,-0.26455,709.745361,-154.997009)" style="stroke:#000000;stroke-width:0.05mm;fill:none" d="M454.358551,631.865173C458.007538,627.857239,457.558411,624.173828,452.574951,617.237244C450.601318,614.490051,447.634583,608.925354,445.982239,604.871155C441.812195,594.639771,437.271454,590.871399,433.571442,594.571411C431.341217,596.801636,431.622284,601.75824,434.397034,609.13092C435.715424,612.633911,437.089081,618.200012,437.449646,621.5C438.483856,630.965881,438.858002,631.940125,442.276825,634.069824C446.496338,636.698242,450.648102,635.940674,454.358551,631.865173z"/>
    <path transform="matrix(-0.26455,0,0,-0.26455,709.745361,-154.997009)" style="stroke:#000000;stroke-width:0.05mm;fill:none" d="M422,629C424.585449,626.414551,424.528931,625.187988,421.330139,614.456787C419.460236,608.183716,418.636261,603.081665,418.580139,597.428894C418.508606,590.224976,418.795593,588.910889,421.251129,585.198669C426.050934,577.942322,436.017792,574.889343,443.044678,578.523071C447.253235,580.699463,452.692566,588.002747,458.903656,599.816772C461.868317,605.455811,465.671692,611.228821,467.35556,612.645691C470.317261,615.137878,470.679382,615.193787,478.458557,614.360962C482.881348,613.88739,490.549988,613.558289,495.5,613.629517C503.164856,613.739868,505.964111,614.296143,514.369263,617.379517C528.763245,622.659851,536.02478,621.892395,535.98468,615.095032C535.954529,609.981201,533.447937,608.407349,519.773682,604.916138C513.573181,603.333069,506.29187,601.427612,503.593079,600.681885C500.2341,599.753662,497.394928,599.596558,494.593079,600.183838C482.199371,602.781616,477.832581,602.412903,473.018707,598.362305C471.346588,596.955322,465.732147,589.430176,460.542145,581.639832C449.35321,564.84491,446.67749,562.034668,441.171967,561.296265C435.267609,560.504272,432.872284,561.417297,426.177429,567.011353C419.797882,572.34198,414.620575,575,410.617157,575C409.27124,575,404.644287,573.127075,400.335022,570.837891L392.5,566.675842L383.190582,567.842957C372.108612,569.2323,369.908478,570.252258,363.718506,576.869812C358.303497,582.658936,357.535187,586.868042,361.072571,591.365112C364.220001,595.366455,366.5047,594.661499,373.320984,587.585815C379.966064,580.687805,383.409485,579.255066,390.921631,580.262634C404.972473,582.147278,410.863342,594.021179,408.020447,614.727661C406.878082,623.048157,406.919373,624.228027,408.43396,626.539551C411.451752,631.145264,418.564667,632.435364,422,629z"/>
    <path transform="matrix(-0.26455,0,0,-0.26455,709.745361,-154.997009)" style="stroke:#000000;stroke-width:0.05mm;fill:none" d="M390.44989,620.840881C393.490723,619.455383,394.992798,614.865784,394.979675,607C394.968597,600.353943,393.36673,596.852966,389.75589,595.58313C384.607117,593.7724,379,599.111328,379,605.824585C379,609.910828,381.66037,617.009583,384.20813,619.721558C386.672638,622.344849,387.014435,622.406189,390.44989,620.840881z"/>
    <path transform="matrix(-0.26455,0,0,-0.26455,709.745361,-154.997009)" style="stroke:#000000;stroke-width:0.05mm;fill:none" d="M650.85498,620.575012C654.405151,618.739136,655.596558,615.991821,657.606201,605.007324C659.130981,596.672974,659.130615,595.848328,657.601379,593.514343C655.481506,590.279053,651.108582,590.154419,648.326599,593.25C645.11615,596.822388,637,612.96936,637,615.784119C637,621.455139,644.28302,623.97345,650.85498,620.575012z"/>
    <path transform="matrix(-0.26455,0,0,-0.26455,709.745361,-154.997009)" style="stroke:#000000;stroke-width:0.05mm;fill:none" d="M320.076019,616.427185C328.016479,608.819763,318.225525,595.250732,309.304535,601.499268C304.572144,604.813965,301.486298,613.218323,303.76532,616.585449C306.684235,620.89801,315.498749,620.8125,320.076019,616.427185z"/>
    <path transform="matrix(-0.26455,0,0,-0.26455,709.745361,-154.997009)" style="stroke:#000000;stroke-width:0.05mm;fill:none" d="M286.43988,612.056458C287.730103,610.84436,289.720581,607.298279,290.863159,604.176331C293.675629,596.491516,297.641785,592.003662,305.175018,587.981812C313.16272,583.717346,319.648651,583.348938,325.264862,586.840759C328.190338,588.659607,329.917297,591.041077,333.010498,597.521973C337.494629,606.917175,339.612671,608.426331,343.861938,605.253784C347.320648,602.671448,348.464508,598.438721,347.086548,593.32135C345.604095,587.81604,342.985413,584.748962,336.754517,581.220276C328.452972,576.518982,327.486664,574.984009,327.580017,566.646851C327.624054,562.716064,328.017273,556.762085,328.453888,553.41571C328.99942,549.234436,328.877197,546.639038,328.063049,545.117859C326.451935,542.107422,322.626312,540.757507,319.605896,542.133728C315.718323,543.904968,314.635101,547.107605,315.28833,554.899048C316.406799,568.240356,312.680023,573.815918,299.939087,577.862915C295.847595,579.162537,291.689392,580.940674,290.698669,581.814331C289.707947,582.688049,287.279297,586.481995,285.301697,590.245422C280.38913,599.594055,275.655548,602.487,266.476929,601.750183C262.083527,601.397522,258.684784,600.419312,255.626831,598.627197C247.279541,593.735352,244.628464,586.471069,242.989761,564C241.871017,548.658875,240.915421,544.2005,237.791656,539.747986C235.11348,535.930542,232.695816,534.843506,223.652679,533.390625C218.537994,532.568909,212.780167,530.692261,207.117844,528.001343C199.944611,524.592468,197.582413,523.92749,193.565781,524.186401C189.686493,524.436462,188.307037,525.029968,186.754868,527.11676C184.96785,529.519226,184.918976,530.124756,186.15802,534.511658C186.99295,537.467773,188.525513,540.049805,190.177124,541.282898C192.548065,543.053101,193.352249,543.148743,197.366165,542.138C210.69046,538.782898,223.207642,543.430603,228.357285,553.645142C229.231659,555.379517,230.422211,561.873047,231.01149,568.121887C232.115677,579.83075,235.976395,597.119873,238.634796,602.260681C240.356018,605.589111,248.822678,609.880249,258.557861,612.358093C267.176147,614.551758,269.723175,614.848083,277.296997,614.53833C282.683105,614.317993,284.580963,613.802856,286.43988,612.056458z"/>
    <path transform="matrix(-0.26455,0,0,-0.26455,709.745361,-154.997009)" style="stroke:#000000;stroke-width:0.05mm;fill:none" d="M222,609C224.631165,606.368835,224.538422,604.749084,221.092484,593.149597C219.493347,587.766724,217.699371,578.537659,217.105865,572.640503C216.51236,566.743408,215.557404,561.041504,214.983734,559.969604C212.766525,555.826721,204.407211,553.641357,199.934265,556.035156C197.010117,557.600159,197.504318,562.644348,201.411087,571.109192C205.63414,580.259338,207.628113,588.032166,208.531113,598.864197C209.048203,605.067139,209.715652,607.715637,211.114182,609.114197C213.653885,611.65387,219.406448,611.593567,222,609z"/>
    <path transform="matrix(-0.26455,0,0,-0.26455,709.745361,-154.997009)" style="stroke:#000000;stroke-width:0.05mm;fill:none" d="M621.315735,608.83667C624.277588,607.259155,625.453613,605.661438,629.660217,597.5C635.39093,586.381653,639.737854,580.132202,643.245056,577.969482C646.010864,576.263977,647.93634,576.002747,656.057617,576.23114L665.615234,576.5L674.057617,570.467407C678.700928,567.149475,684.391174,563.165527,686.702576,561.614258C691.693359,558.264771,693.11676,556.244751,695.437195,549.218994C698.682312,539.393311,705.553284,534.009583,718.140808,531.429565C728.692078,529.266846,728.676147,529.274109,734.474854,524.022766C737.698364,521.103577,741.76239,518.575378,744.914429,517.528442C748.080505,516.476807,750.719421,514.831665,751.740967,513.272583C753.317261,510.866913,753.255737,510.002869,750.591553,497.115479C749.043396,489.626984,747.147339,482.275848,746.378052,480.779633C744.496094,477.119507,741.582947,475.617645,739.022888,476.987732C735.224854,479.020386,734.760925,481.47345,736.532104,490.157532C737.454529,494.679962,737.89801,499.730194,737.540222,501.637451C736.250671,508.511047,729.387939,513.858704,714.813293,519.346802C705.385254,522.897034,691.86438,529.864746,688.77832,532.763489C687.259277,534.190308,685.135681,538.08728,683.972534,541.58252C681.270935,549.700867,675.739136,555.974854,667.772949,559.955566C662.06366,562.808594,660.890625,563.026245,652.02655,562.877319C644.815247,562.756165,641.656311,563.126343,639.240356,564.375671C633.889648,567.142639,629.644531,572.341858,626.74054,579.684631C623.236938,588.543823,618.337463,594.323792,612.413879,596.585999C607.962341,598.286072,607.652405,598.272583,599.929932,596.041138C591.200806,593.518799,587.458313,594.079895,584.460144,598.360352C581.272339,602.91156,583.411072,606.951477,590,608.824585C595.035583,610.256165,618.633484,610.265259,621.315735,608.83667z"/>
    <path transform="matrix(-0.26455,0,0,-0.26455,709.745361,-154.997009)" style="stroke:#000000;stroke-width:0.05mm;fill:none" d="M558.473206,596.003784C567.983887,594.605408,568.698547,594.258545,576.845886,587.086365C586.016174,579.013611,588.110962,573.828491,584.168701,568.960022C581.497437,565.661194,578.099792,566.929932,570.384705,574.107239C561.956604,581.947937,557.488464,583.949951,548.355347,583.978027C539.407837,584.005554,530.623718,581.353333,522,576.02063C518.077271,573.594849,514.272827,572.000916,512.404968,572.000549C504.650696,571.999146,502.591888,583.697388,509.707031,587.330261C511.243164,588.114563,515.712891,589.480225,519.639771,590.365051C523.56665,591.249817,530.31665,593.328003,534.639771,594.983215C542.975708,598.174805,543.542847,598.199097,558.473206,596.003784z"/>
    <path transform="matrix(-0.26455,0,0,-0.26455,709.745361,-154.997009)" style="stroke:#000000;stroke-width:0.05mm;fill:none" d="M738,591C741.025269,587.974731,740.731201,581.0224,737.411133,577.076721C734.527039,573.64917,731.793335,573.223877,726.598572,575.394348C722.607117,577.062073,720,580.481262,720,584.048218C720,590.658569,733.231323,595.768677,738,591z"/>
    <path transform="matrix(-0.26455,0,0,-0.26455,709.745361,-154.997009)" style="stroke:#000000;stroke-width:0.05mm;fill:none" d="M490.75,585.755188C491.4375,585.205139,492,582.823242,492,580.462097C492,576.425293,491.607574,575.824585,485.423981,570.395691C478.064362,563.934326,475.159058,559.138489,474.321808,552.069275C473.616638,546.115295,475.164459,541.183899,479.993286,534C484.466766,527.344788,485.253937,524.503601,483.941467,519.750122C483.237732,517.201416,481.386871,514.889648,477.719849,511.979218C474.848938,509.700623,471.288269,505.960663,469.807251,503.668152C462.746002,492.737915,460.993134,492.045685,446.5,494.463593C441.549988,495.289429,433.990143,495.972931,429.700348,495.982544C421.133575,496.001709,417.461578,497.326477,414.088287,501.614868C411.200958,505.285522,411.467102,508.620941,414.923065,512.076904C418.760956,515.914795,421.901245,515.807373,428.869202,511.599945C441.411072,504.026764,453.438721,504.279205,461.865509,512.292542C469.150208,519.219788,469.854919,527.049683,464.359253,540C462.375366,544.674988,460.545593,550.312256,460.293091,552.527283C459.885651,556.101746,460.36795,557.279846,464.582764,563.005188C467.19455,566.553101,471.587128,573.008789,474.344086,577.351196C480.647278,587.279358,485.644989,589.839417,490.75,585.755188z"/>
    <path transform="matrix(-0.26455,0,0,-0.26455,709.745361,-154.997009)" style="stroke:#000000;stroke-width:0.05mm;fill:none" d="M272.545441,584.545471C274.831757,582.259155,275.480927,579.994629,275.057709,575.781921C274.962769,574.836975,273.335968,571.091797,271.442566,567.45929C267.496857,559.889404,266.964142,553.415588,269.512115,544C270.330719,540.974976,270.71994,537.150024,270.377014,535.5C269.254517,530.098633,265.009216,522.976318,261.714874,520.967712C257.479279,518.385132,251.599945,518.400085,249,521C246.286041,523.713989,246.486832,526.968994,249.654526,531.610474C254.938431,539.352722,255.780457,542.665222,256.98053,560.430725C258.129425,577.439087,259.455963,583.28717,262.723724,585.75C265.41629,587.779297,269.856079,587.234802,272.545441,584.545471z"/>
    <path transform="matrix(-0.26455,0,0,-0.26455,709.745361,-154.997009)" style="stroke:#000000;stroke-width:0.05mm;fill:none" d="M609.783203,581.43927C615.252991,577.608093,616.843018,568.253723,612.507263,565.412842C607.659058,562.236145,599.434937,567.325745,598.346375,574.176514C597.292664,580.807739,604.31665,585.268188,609.783203,581.43927z"/>
    <path transform="matrix(-0.26455,0,0,-0.26455,709.745361,-154.997009)" style="stroke:#000000;stroke-width:0.05mm;fill:none" d="M354.219604,567.015686C358.644226,562.591064,358.631317,562.730957,356.018433,547.5C355.357971,543.650024,354.620117,539.07428,354.378815,537.331726C354.137482,535.589172,351.956726,531.609314,349.532715,528.487671C346.580627,524.685974,344.7612,521.11377,344.02243,517.668945C343.415802,514.840332,342.252197,511.50766,341.436676,510.263031C338.37561,505.591217,331.413757,508.431641,327.533295,515.935608C324.927094,520.975464,326.255463,524.177246,333.644043,530.664063C343.453278,539.276062,344.289886,541.958313,342.518066,559.115784C341.793945,566.128052,341.900757,566.900757,343.865814,568.865784C346.989014,571.989014,349.737396,571.497925,354.219604,567.015686z"/>
    <path transform="matrix(-0.26455,0,0,-0.26455,709.745361,-154.997009)" style="stroke:#000000;stroke-width:0.05mm;fill:none" d="M553.616821,568.515625C555.57074,567.699219,560.690674,564.094299,564.994446,560.504639C573.778503,553.178101,575.010986,550.785828,577.128662,536.952209C578.069092,530.809021,578.079163,527.553467,577.172974,522.635193C576.527832,519.134033,576,513.285095,576,509.637573C576,503.424042,576.227783,502.753662,579.611206,499.008606C588.328674,489.359406,607.826172,489.874084,616.327881,499.977814C622.805359,507.675842,624.113403,516.220398,621.000366,530.5C618.022949,544.157593,617.410645,551.584961,619.09491,553.61438C622.187866,557.341125,627.895813,556.984314,631.652893,552.829346C633.172729,551.148621,633.507385,549.078064,633.541687,541.143372C633.570679,534.452515,634.166321,529.726929,635.487305,525.708801C637.064575,520.911194,637.198303,519.281372,636.266785,516.208801C634.998657,512.026184,632.32782,502.37085,630.89032,496.772583C630.12677,493.798828,628.979614,492.505524,625.216614,490.376068C622.622498,488.90802,617.125,485.778656,613,483.421875C602.832153,477.61261,601.67981,477.437805,592.936951,480.378174C588.846619,481.753815,582.868347,483.397552,579.651855,484.030945C575.315491,484.884857,572.77832,486.108948,569.837097,488.766113C562.280396,495.59317,561.522095,500.176514,564.474915,521.176514C566.636841,536.552002,564.996704,543.842163,557.835327,550.68866C553.826477,554.52124,550.221008,556,544.885254,556C534.305542,556,527.474487,546.587646,520.531799,522.444153C519.117249,517.524841,517.150879,512.399231,516.16217,511.053833C512.614868,506.226776,505.092865,506.72406,500.582916,512.083862C495.886932,517.664673,497.835754,523.760986,505.988098,528.992371C512.125305,532.930603,515.14209,537.797302,518.061646,548.469788C520.876404,558.758911,521.841003,560.103577,529.233582,564.043823C540.33606,569.961365,547.161011,571.213074,553.616821,568.515625z"/>
    <path transform="matrix(-0.26455,0,0,-0.26455,709.745361,-154.997009)" style="stroke:#000000;stroke-width:0.05mm;fill:none" d="M297.814117,563.50293C301.44397,560.448608,302.449982,556.893494,300.961029,552.381897C299.625488,548.335205,295.651306,545.9599,289.827789,545.727661C284.686676,545.522644,282,548.422485,282,554.176514C282,564.578613,290.546021,569.618652,297.814117,563.50293z"/>
    <path transform="matrix(-0.26455,0,0,-0.26455,709.745361,-154.997009)" style="stroke:#000000;stroke-width:0.05mm;fill:none" d="M723.821411,562.460388C730.175354,560.573486,732.515076,557.561646,731.670471,552.356628C731.036804,548.452148,728.801331,545.389099,725.917297,544.473755C720.820313,542.856018,709.911926,549.23053,708.560059,554.616699C707.469971,558.960022,711.81958,563.724487,717.068481,563.936584C717.931152,563.971497,720.969971,563.30719,723.821411,562.460388z"/>
    <path transform="matrix(-0.26455,0,0,-0.26455,709.745361,-154.997009)" style="stroke:#000000;stroke-width:0.05mm;fill:none" d="M503.558868,560.580139C508.937927,556.64563,502.408234,540,495.485748,540C493.00415,540,489.520477,543.490784,488.725311,546.774231C487.286896,552.713989,493.483643,562,498.885803,562C500.388367,562,502.491241,561.361084,503.558868,560.580139z"/>
    <path transform="matrix(-0.26455,0,0,-0.26455,709.745361,-154.997009)" style="stroke:#000000;stroke-width:0.05mm;fill:none" d="M416.923279,556.411133C419.33844,554.378906,419.995758,553.034973,419.980316,550.161133C419.958923,546.17865,417.646667,532.514832,416.541748,529.841553C415.51001,527.345337,410.839661,525.730286,407.892761,526.850647C403.280182,528.60437,402.77005,530.200073,402.689056,543.128113C402.616943,554.641785,402.731934,555.364502,404.917297,557.134094C408.231567,559.817871,413.232513,559.516663,416.923279,556.411133z"/>
    <path transform="matrix(-0.26455,0,0,-0.26455,709.745361,-154.997009)" style="stroke:#000000;stroke-width:0.05mm;fill:none" d="M598.579712,554.114502C600.273499,553.081665,602.139709,550.945801,602.726746,549.368286C604.548096,544.473755,607.421448,525.842834,607.46167,518.666687C607.497986,512.191528,607.328796,511.68045,604.234253,508.916656C600.112488,505.235535,595.841125,505.067963,592.454529,508.454559C589.549988,511.3591,589.527405,511.735565,591.61908,522.381042C593.182251,530.337036,593.165039,530.910339,591.11908,539.001038C589.953552,543.609863,589,548.78009,589,550.490417C589,556.096008,592.906616,557.573975,598.579712,554.114502z"/>
    <path transform="matrix(-0.26455,0,0,-0.26455,709.745361,-154.997009)" style="stroke:#000000;stroke-width:0.05mm;fill:none" d="M383.538483,553.54834C387.490326,551.897156,389,548.886719,389,542.65741C389,537.368896,386.928711,534.350464,382.451324,533.114197C375.027649,531.064392,369,534.906006,369,541.687134C369,552.686035,374.622925,557.273499,383.538483,553.54834z"/>
    <path transform="matrix(-0.26455,0,0,-0.26455,709.745361,-154.997009)" style="stroke:#000000;stroke-width:0.05mm;fill:none" d="M659.684875,547.93866C666.171753,545.493042,672.897034,535.710327,671.611816,530.5896C670.46405,526.016479,667.227112,524,661.033936,524C651.895386,524,647.974365,528.456482,647.669678,539.189392C647.522461,544.376343,647.812439,545.421143,649.860779,547.083801C652.516357,549.239258,655.537781,549.502197,659.684875,547.93866z"/>
    <path transform="matrix(-0.26455,0,0,-0.26455,709.745361,-154.997009)" style="stroke:#000000;stroke-width:0.05mm;fill:none" d="M445.916138,545.237732C448.896362,542.257507,453,532.501648,453,528.396729C453,519.851501,442.034058,517.812134,434.828796,525.017334C432.41037,527.435791,432.008179,528.618958,432.056427,533.173096C432.131195,540.229187,433.932556,545.16156,437,546.709167C440.785248,548.618958,442.880707,548.273132,445.916138,545.237732z"/>
    <path transform="matrix(-0.26455,0,0,-0.26455,709.745361,-154.997009)" style="stroke:#000000;stroke-width:0.05mm;fill:none" d="M549.26709,538.25C551.695313,535.555542,552.216736,531.912354,550.953247,526.469299C550.318848,523.736145,549.448792,516.886169,549.019836,511.247009C548.590881,505.60788,547.680847,500.320374,546.997498,499.497009C544.952209,497.032562,537.757202,497.568939,534.686462,500.414764C530.842041,503.977661,530.609375,506.644409,533.367737,515.529968C534.728455,519.913513,536.60321,526.282166,537.533752,529.682556C538.464355,533.083008,540.092468,536.795471,541.151794,537.932556C543.506287,540.459778,547.147339,540.602234,549.26709,538.25z"/>
    <path transform="matrix(-0.26455,0,0,-0.26455,709.745361,-154.997009)" style="stroke:#000000;stroke-width:0.05mm;fill:none" d="M310.365143,532.927429C313.344421,530.583923,313.917755,526.060608,311.537231,523.680115C310.732727,522.875549,306.680054,521.462158,302.531342,520.539124C282.729767,516.133728,280.706085,502.309113,297.007019,482.800568C299.757721,479.508606,302.301758,475.645844,302.660461,474.216644C303.433838,471.135376,301.97879,465.277618,297.925995,455.15625C292.76123,442.257843,292.112,441.745911,277.572815,439.107056C269.897278,437.713928,264.369568,434.027527,261.943451,428.683868C259.520905,423.347992,259.528809,420.141266,261.985809,411.549622C263.778229,405.28186,263.824677,404.381378,262.462769,402.302826C261.632874,401.036255,260.271332,400,259.437103,400C256.908264,400,250.135315,403.878632,249.017761,405.966797C248.376587,407.164856,248.113602,413.184723,248.341415,421.448395C248.689377,434.070251,248.889847,435.235168,251.355194,438.960541C254.884872,444.29425,257.199463,445.648743,265.918121,447.482788C278.359222,450.099854,285.032928,454.795746,287.827667,462.899231C289.396393,467.447784,289.306549,470.024292,287.380737,475.715057C284.931061,482.953766,279.629181,490.278107,274.92511,492.921936C271.454498,494.872528,269.813293,495.170166,264.956696,494.729797C257.806274,494.081421,249.888565,489.988434,245.698456,484.774414C241.527939,479.584747,238.798553,478.017487,232.034241,476.928101C228.825455,476.411346,223.221191,474.594574,219.580353,472.890808C212.175446,469.425629,209.36348,469.545593,205.413879,473.495209C202.120956,476.788147,202.133942,482.224854,205.442627,485.533539C207.709091,487.799988,208.556519,487.965546,217.192627,487.828918C228.725388,487.646484,233.550751,489.522186,241.80629,497.396637C247.866821,503.177429,251.27298,505,256.015869,505C257.602997,505,261.209198,505.494904,264.029602,506.099762C271.063385,507.608246,275.58078,511.837311,279.618439,520.693542C281.45108,524.713257,283.996765,528.606995,285.388275,529.518738C288.029266,531.249207,300.722717,534.705444,305.115143,534.890076C306.553467,534.9505,308.915955,534.067322,310.365143,532.927429z"/>
    <path transform="matrix(-0.26455,0,0,-0.26455,709.745361,-154.997009)" style="stroke:#000000;stroke-width:0.05mm;fill:none" d="M372.618011,519.331299C377.273041,517.863892,378.747498,517.820251,384.837646,518.96936C393.742615,520.649597,396.594055,519.919128,398.746063,515.406311C400.263,512.22522,400.28244,511.593903,398.937134,509.197052C396.244537,504.399872,393.90741,503.887054,378,504.602966C369.13916,505.00174,362.477631,505.774811,360.871185,506.59079C356.231049,508.947632,355.733826,513.341797,359.588898,517.923279C362.594452,521.495178,364.946869,521.74939,372.618011,519.331299z"/>
    <path transform="matrix(-0.26455,0,0,-0.26455,709.745361,-154.997009)" style="stroke:#000000;stroke-width:0.05mm;fill:none" d="M233.494812,519.363586C236.263168,518.301331,237.20253,514.292358,235.468735,510.939545C231.253281,502.78775,214.646759,498.659851,210.25116,504.671204C208.248047,507.410614,208.774353,511.439392,211.465637,513.967712C215.997787,518.225464,228.488098,521.284851,233.494812,519.363586z"/>
    <path transform="matrix(-0.26455,0,0,-0.26455,709.745361,-154.997009)" style="stroke:#000000;stroke-width:0.05mm;fill:none" d="M693.60376,513.472046C698.172424,510.981659,704.910217,507.814972,708.57666,506.434937C721.682861,501.50177,723.729492,499.164215,722.727295,490.272888C722.098206,484.691772,719.387268,482,714.395508,482C710.908508,482,708.329346,484.646118,703.832275,492.837616C701.74884,496.632599,696.02655,499.605957,687.276611,501.440094C682.31073,502.481018,679.921387,503.552643,678.260193,505.483917C673.961731,510.48111,676.331726,518,682.205261,518C683.982849,518,688.828125,516.075256,693.60376,513.472046z"/>
    <path transform="matrix(-0.26455,0,0,-0.26455,709.745361,-154.997009)" style="stroke:#000000;stroke-width:0.05mm;fill:none" d="M192.4552,510.378815C194.485062,509.599884,197,504.843842,197,501.784058C197,500.510651,196.104172,497.900818,195.009262,495.984406C188.895218,485.282928,188.000076,482.957245,188.003738,477.783234C188.009323,469.898529,190.124802,467.005646,201.826935,458.880371C209.642502,453.453674,211.908157,443.235229,207.65271,432.605286C205.904968,428.239532,204.863922,423.363129,204.503555,417.854401C203.929489,409.078583,203.774323,408.72229,195.80719,397.883972C187.366043,386.400879,185.984558,385,183.101501,385C175.717484,385,176.115921,391.444122,184.356445,405.296967C191.643951,417.54776,195.011795,426.663879,195.739395,436.108521C196.630447,447.67514,194.077713,451.807495,182.21611,458C172.743561,462.945251,172.736069,462.989258,177.397842,486.319305C181.942993,509.065735,182.730316,511,187.443893,511C189.309784,511,191.56488,510.720459,192.4552,510.378815z"/>
    <path transform="matrix(-0.26455,0,0,-0.26455,709.745361,-154.997009)" style="stroke:#000000;stroke-width:0.05mm;fill:none" d="M662.25,507.018951C666.055237,502.797913,666.135864,496.044983,662.425415,492.334473C660.176941,490.086029,659.225586,489.819946,654.915283,490.234131C652.145203,490.500275,649.106689,491.498474,647.989868,492.509155C644.253601,495.890442,646.022522,507.080933,650.75,509.970123C653.707031,511.777313,659.24054,510.3573,662.25,507.018951z"/>
    <path transform="matrix(-0.26455,0,0,-0.26455,709.745361,-154.997009)" style="stroke:#000000;stroke-width:0.05mm;fill:none" d="M319.631592,503.631592C322.967773,500.29538,324,498.50766,324,496.065826C324,491.786591,322.555176,489.33847,318.92038,487.458832C313.945953,484.886444,309.922668,487.027069,304.848694,494.94577C299.797241,502.829285,302.08783,508,310.631592,508C314.766846,508,315.731262,507.531891,319.631592,503.631592z"/>
    <path transform="matrix(-0.26455,0,0,-0.26455,709.745361,-154.997009)" style="stroke:#000000;stroke-width:0.05mm;fill:none" d="M495.69812,498.800293C500.337738,494.470276,499.415253,486.243073,494.040497,484.016785C488.523041,481.731384,479,485.838959,479,490.504211C479,493.422821,482.057007,498.06366,485.298553,500.066071C488.976196,502.33783,492.34729,501.927521,495.69812,498.800293z"/>
    <path transform="matrix(-0.26455,0,0,-0.26455,709.745361,-154.997009)" style="stroke:#000000;stroke-width:0.05mm;fill:none" d="M357,492.791931C362.846069,490.829224,365.646118,490.604156,384.832001,490.55484L406.164032,490.5L409.139404,487.169983C412.891907,482.970215,412.758301,478.632996,408.7854,475.680054C406.135803,473.710663,405.848541,473.701172,396.7854,475.282654C370.998138,479.782532,356.049835,479.97879,347.522461,475.929474C339.803986,472.264282,329.957367,461.906982,325.723511,453C319.598145,440.1138,316,424.126465,316,409.796478C316,401.320404,313.836884,397.981934,299.955475,385.034271C287.03067,372.978821,283.786682,370.973419,280.261841,372.859863C278.081848,374.026581,272,384.848785,272,387.561249C272,391.478394,274.910004,392.999908,282.404999,393.001556C291.080231,393.003448,295.205902,394.862335,299.69574,400.792053C304.358917,406.950714,305.312256,411.566193,304.497467,424.038727L303.803986,434.654541L307.80307,442.608307C310.002533,446.98288,313.020599,454.598114,314.509827,459.531036C317.540314,469.569092,319.403961,472.130981,326.187988,475.584412C331.129883,478.100098,334.399017,481.766663,337.878754,488.696381C339.037689,491.004364,340.776611,493.35318,341.74295,493.915955C344.542542,495.546295,349.991699,495.144836,357,492.791931z"/>
    <path transform="matrix(-0.26455,0,0,-0.26455,709.745361,-154.997009)" style="stroke:#000000;stroke-width:0.05mm;fill:none" d="M525.968262,489.529205C532.825867,483.224792,535.032166,482.441986,542.829407,483.546753C552.197571,484.874084,554.881409,484.576843,557.493286,481.922699C561.050781,478.307617,561.526001,474.938446,558.941833,471.653198L556.77063,468.892944L544.635315,469.560547C531.456299,470.285583,528.327454,471.228699,518.778503,477.354553C510.575043,482.617218,508.890564,487.048584,513.072571,492.365143C516.254883,496.410797,519.183289,495.766815,525.968262,489.529205z"/>
    <path transform="matrix(-0.26455,0,0,-0.26455,709.745361,-154.997009)" style="stroke:#000000;stroke-width:0.05mm;fill:none" d="M688.716919,486.330048C692.388611,484.587708,695.989868,479.810242,695.996277,476.673065C696.001831,473.940826,690.864075,469.332611,686.455017,468.115204C676.344055,465.323425,667.109863,478.165802,673.974304,485.472656C676.854553,488.538544,683.275879,488.911987,688.716919,486.330048z"/>
    <path transform="matrix(-0.26455,0,0,-0.26455,709.745361,-154.997009)" style="stroke:#000000;stroke-width:0.05mm;fill:none" d="M444.337982,480.499817C448.648865,479.674927,455.427277,479,459.401093,479C466.050079,479,467.15152,478.683197,473.212524,475.027649C481.317352,470.139404,486.437256,468.911621,495.548126,469.671509C501.926758,470.203491,503.151459,469.987488,508.440918,467.397491C518.886047,462.28302,522.324158,457.225616,518.345032,452.828735C516.302124,450.57135,511.70401,450.477478,505.875732,452.574097C496.283661,456.024719,453.8909,466.116516,443.038971,467.532715C436.692535,468.360931,430.600006,469.308136,429.5,469.637573C424.262482,471.206177,422.330841,476.498108,425.654999,480.171265C427.72583,482.459534,433.560547,482.562134,444.337982,480.499817z"/>
    <path transform="matrix(-0.26455,0,0,-0.26455,709.745361,-154.997009)" style="stroke:#000000;stroke-width:0.05mm;fill:none" d="M270.327972,477.956665C273.490753,475.468811,274.789642,469.843964,272.981506,466.465424C270.581726,461.981384,260.850098,459.404297,256.039429,461.978882C253.579605,463.295349,251.849716,468.487915,252.938339,471.287415C253.882965,473.716644,258.63208,478.434662,261,479.296295C264.163452,480.447388,267.831146,479.920654,270.327972,477.956665z"/>
    <path transform="matrix(-0.26455,0,0,-0.26455,709.745361,-154.997009)" style="stroke:#000000;stroke-width:0.05mm;fill:none" d="M647.055847,477.839294C655.820068,474.900726,657.438171,473.686493,661.499573,467.000671C668.021606,456.264282,676.03656,451.110596,684.185242,452.413635C689.082581,453.196747,696.824829,457.036926,701.213074,460.859467C706.28418,465.276855,710.382385,466.985168,718.879211,468.223602C726.052368,469.269104,726.973755,469.200012,730.097107,467.38269C734.461731,464.84314,735.049438,460.853027,731.774597,455.9935C728.057922,450.478302,725.283569,449.406952,717.88623,450.630341C708.889099,452.118317,704.448669,450.886414,697.385803,444.942993C688.669739,437.608276,686.200867,436.694244,678.753357,438.044739C669.815979,439.665375,665.576477,442.236847,660.222595,449.284546C649.074829,463.959137,643.213806,467.54184,634.26886,465.149414C624.60376,462.564392,618.830994,455.764099,616.924072,444.717255C615.38916,435.825378,613.47876,431.860199,607.785828,425.75C604.257019,421.962524,602.700623,421,600.105042,421C597.059509,421,566.952698,432.022888,558.828552,436.112396C556.809204,437.128876,550.580444,439.287018,544.986816,440.908264C539.393188,442.529541,533.957825,444.633179,532.908264,445.583008C530.390869,447.861237,530.487793,451.487823,533.137024,454.136993C535.100586,456.100555,535.957275,456.221466,543.693481,455.626831C553.620667,454.86377,557.387756,453.460541,563.769958,448.148407C569.750427,443.170685,576.863525,439.608368,585.066895,437.482666C599.197266,433.821106,604.611511,438.113495,607.621521,455.363831C608.749268,461.826813,609.602539,464.042755,611.77063,466.139191C615.245911,469.499634,635.392944,480,638.365356,480C639.60083,480,643.511536,479.027679,647.055847,477.839294z"/>
    <path transform="matrix(-0.26455,0,0,-0.26455,709.745361,-154.997009)" style="stroke:#000000;stroke-width:0.05mm;fill:none" d="M588.235229,467.675079C593.58783,465.438599,595.581238,461.883453,594.153931,457.119385C592.537476,451.724182,589.276428,450.415314,582.805664,452.564545C577.618958,454.287292,570,460.621155,570,463.210297C570,464.046295,570.976013,465.971069,572.168884,467.48761C574.161377,470.020599,574.756409,470.201752,579.481934,469.71402C582.311157,469.422028,586.250122,468.504486,588.235229,467.675079z"/>
    <path transform="matrix(-0.26455,0,0,-0.26455,709.745361,-154.997009)" style="stroke:#000000;stroke-width:0.05mm;fill:none" d="M240.288361,460.987823C246.447159,456.143311,243.196899,445.616486,234.939072,443.66272C227.883041,441.993286,222,446.867157,222,454.382233C222,457.792358,224.466919,460.575134,229,462.278473C232.391022,463.552673,237.816254,462.932373,240.288361,460.987823z"/>
    <path transform="matrix(-0.26455,0,0,-0.26455,709.745361,-154.997009)" style="stroke:#000000;stroke-width:0.05mm;fill:none" d="M641.453796,449.379364C642.343323,449.038025,645.047424,446.000519,647.462952,442.629364C656.003723,430.709564,662.963745,425.87088,673.5,424.528046C681.242615,423.54126,682.740967,423.11618,684.430054,421.427063C686.441711,419.415436,686.448608,414.08551,684.443298,411.222504C683.097473,409.301086,681.979858,409.000763,676.193298,409.005585C665.841187,409.014191,662.988281,410.248596,653.02887,419.02829C648.07135,423.398621,641.529236,428.377319,638.490784,430.092102C632.161011,433.664429,630,436.255371,630,440.272156C630,443.5224,632.360657,448.57901,634.228943,449.330719C636.072327,450.072357,639.586182,450.096039,641.453796,449.379364z"/>
    <path transform="matrix(-0.26455,0,0,-0.26455,709.745361,-154.997009)" style="stroke:#000000;stroke-width:0.05mm;fill:none" d="M178.234222,444.080719C181.152084,441.472412,181.49202,440.611023,181.42514,435.994934C181.361404,431.595856,180.139984,428.427521,173.201981,414.664215C167.616287,403.583557,164.682953,396.499359,163.874817,392.13858C163.069031,387.790375,161.630478,384.309204,159.329178,381.13858C151.992096,371.029877,149.970688,367.418823,147.505554,360.016693C144.473618,350.912598,143.473236,349.710022,134.629257,344.537842C126.804756,339.961914,117.501396,331.101166,111.971519,322.958069C107.72686,316.70752,106.625542,316,101.140717,316C96.267265,316,93,318.354126,93,321.86557C93,325.52655,94.160347,326.794373,103.032578,332.82724C114.612015,340.700928,130.585449,357.583069,137.258347,369C149.815338,390.484283,161.738892,417.779541,165.567963,433.806C168.787933,447.283081,171.862076,449.776794,178.234222,444.080719z"/>
    <path transform="matrix(-0.26455,0,0,-0.26455,709.745361,-154.997009)" style="stroke:#000000;stroke-width:0.05mm;fill:none" d="M716.428589,435.428558C718.611084,433.246033,718.431702,431.42395,714.988037,420.799622C709.597595,404.169281,707.756165,388.331604,707.26355,354.363617C706.850159,325.862366,706.969421,323.220673,709.46167,305.6763C710.911072,295.473267,712.501953,278.884644,712.99707,268.812683C714.202087,244.296249,716.78064,231.417801,722.97052,219C726.775024,211.367676,727.344849,208.487717,725.429443,206.572327C723.32074,204.463577,720.173828,204.596634,716.300598,206.958282C714.010986,208.354324,711.972229,211.268066,709.131226,217.204544C704.537781,226.802795,696,251.67836,696,255.463364C696,256.880371,697.117249,260.789368,698.482849,264.149994C699.848389,267.510651,701.22699,272.339203,701.546509,274.880127C702.208618,280.146301,697.26123,310.43634,694.013611,321C691.513062,329.133667,691.511353,331.266693,694,338.5C696.454224,345.633331,696.538391,351.307678,694.329956,360.75C692.733887,367.57431,692.734619,368.42569,694.342529,375.25C695.446594,379.935669,695.978394,385.860138,695.846069,392C695.67572,399.90564,696.00708,402.311096,697.820679,406.332916C699.48584,410.025543,700.000854,413.092743,700.003723,419.332916C700.008057,428.804993,701.712097,432.625244,707.121521,435.2901C711.386353,437.391113,714.420898,437.436249,716.428589,435.428558z"/>
    <path transform="matrix(-0.26455,0,0,-0.26455,709.745361,-154.997009)" style="stroke:#000000;stroke-width:0.05mm;fill:none" d="M232.545456,428.545441C234.396774,426.694122,234.996384,425.035278,234.98526,421.795441C234.965454,416.023254,233.135117,412.756989,229.304718,411.658447C221.938553,409.545868,217.295303,413.815063,218.466278,421.623749C219.76181,430.262909,227.180679,433.910217,232.545456,428.545441z"/>
    <path transform="matrix(-0.26455,0,0,-0.26455,709.745361,-154.997009)" style="stroke:#000000;stroke-width:0.05mm;fill:none" d="M287.960571,426.021118C292.783142,423.440155,292.403229,413.035553,287.341034,409.053619C281.24173,404.25589,275,408.254974,275,416.960541C275,420.55191,275.527374,422.131165,277.25,423.698395C280.868561,426.99054,284.626434,427.805481,287.960571,426.021118z"/>
    <path transform="matrix(-0.26455,0,0,-0.26455,709.745361,-154.997009)" style="stroke:#000000;stroke-width:0.05mm;fill:none" d="M637.969971,412.877838C643.51825,408.410645,648.719727,403.810516,649.52887,402.655334C652.860657,397.898499,650.164368,390.832306,644.472351,389.403687C639.944458,388.267273,637.397888,389.753052,633.567017,395.766296C631.341492,399.259674,627.685669,403.135162,624.357117,405.529572C616.27179,411.345825,615.172729,414.263641,619.454529,418.545441C623.756897,422.847778,626.7099,421.943848,637.969971,412.877838z"/>
    <path transform="matrix(-0.26455,0,0,-0.26455,709.745361,-154.997009)" style="stroke:#000000;stroke-width:0.05mm;fill:none" d="M242.132446,393.902771C245.084595,391.924286,249.623703,389.005737,252.21936,387.417053C255.457855,385.434967,257.792358,382.95517,259.659241,379.514313C261.155518,376.756439,263.644318,372.49939,265.18988,370.05423C266.735443,367.609039,268,364.611542,268,363.393127C268,360.185547,262.598145,356,258.458466,356C254.643448,356,253.566956,357.351074,252.468109,363.518402C250.267258,375.870667,239.615112,385,227.40329,385C221.095093,385,217.801544,383.554016,213.361954,378.835327C207.025772,372.10083,205.049942,364.893402,206.984833,355.573059C207.639847,352.417908,207.913956,348.793304,207.593964,347.518372C207.273987,346.243469,204.135056,341.81488,200.618576,337.677063C197.102081,333.539246,192.325119,326.712067,190.003082,322.505585C187.521149,318.009399,184.792038,314.406738,183.381027,313.763824C180.623856,312.507599,164.969818,315.466156,152.01387,319.692139C143.533005,322.458466,138.936478,322.17511,136.528748,318.737579C134.377213,315.665833,134.62709,312.545074,137.27066,309.47171C139.004608,307.455902,141.19104,306.522064,146.52066,305.521027C154.918396,303.943695,169.062866,301.026855,174.2939,299.793671C179.017578,298.680084,180.617355,295.400635,178.930405,290.289124C177.187149,285.006989,174.999268,284.55603,162.964706,286.998291C157.209122,288.166321,151.600006,289.770905,150.5,290.563995C149.399994,291.357117,146.36586,293.543488,143.757462,295.422607C139.963364,298.155945,137.677261,298.982452,132.326096,299.555542C124.320282,300.412872,121,302.964264,121,308.258759C121,317.061676,139.506622,335,148.58844,335C150.055893,335,153.561325,333.690369,156.378281,332.089691C170.127731,324.276794,179.364853,326.543304,187.884705,339.820313C192.508652,347.026123,194.128784,352.579529,194.191055,361.436981C194.221756,365.802338,194.610016,370.640198,195.053864,372.187775C196.034714,375.607819,209.02182,393.085419,212.777496,396.039612C215.219513,397.96051,216.499161,398.132385,226.121704,397.832123C236.436691,397.510254,236.930405,397.389069,242.132446,393.902771z"/>
    <path transform="matrix(-0.26455,0,0,-0.26455,709.745361,-154.997009)" style="stroke:#000000;stroke-width:0.05mm;fill:none" d="M676.23822,394.950653C678.29425,394.379669,680.482117,392.967651,681.100159,391.812836C682.67572,388.868866,681.720215,379.453308,679.609192,377.120636C675.663208,372.760406,667.585266,374.351349,664.025635,380.189819C660.560486,385.873383,662.088379,392.256775,667.475769,394.604065C671.196899,396.225372,671.592102,396.240997,676.23822,394.950653z"/>
    <path transform="matrix(-0.26455,0,0,-0.26455,709.745361,-154.997009)" style="stroke:#000000;stroke-width:0.05mm;fill:none" d="M653.530396,371.941254C655.402649,368.320679,655.393372,364.366364,653.5,359C651.764587,354.08139,651.509949,341.427185,653.063599,337.315094C655.391785,331.153137,661.37616,326.95697,669.886536,325.519165C678.881409,323.999481,680.608521,320.600494,685.442444,294.904358C688.503845,278.630493,688.609009,274.973663,686.104675,271.88092C684.491516,269.888733,683.798401,269.686157,681.449097,270.520142C677.254211,272.009247,675.211182,277.117706,674.058228,289C673.497864,294.774994,672.575867,301.12793,672.009277,303.117645C669.441162,312.135925,662.941833,317.295685,652.689209,318.455658C645.007996,319.324677,643.421631,320.192413,642.079468,324.259186C640.803223,328.12619,639.6521,371.953491,640.780884,373.700195C643.383911,377.72821,651.087402,376.665405,653.530396,371.941254z"/>
    <path transform="matrix(-0.26455,0,0,-0.26455,709.745361,-154.997009)" style="stroke:#000000;stroke-width:0.05mm;fill:none" d="M177.687439,372.214325C179.771149,370.889404,181.126434,365.719421,180.484406,361.544861C178.597549,349.276276,174.363708,343,167.974426,343C159.367081,343,157.513535,349.105835,162.741074,360.239258C167.865128,371.152313,172.950226,375.226501,177.687439,372.214325z"/>
    <path transform="matrix(-0.26455,0,0,-0.26455,709.745361,-154.997009)" style="stroke:#000000;stroke-width:0.05mm;fill:none" d="M234.845016,367.675873C239.849442,363.03241,241.610489,355.578278,238.342331,352.872437C236.087585,351.005646,226.681442,351.323486,223.554825,353.372131C220.205963,355.566376,219.214157,361.128845,221.366852,365.643097C224.081345,371.33548,229.947433,372.220184,234.845016,367.675873z"/>
    <path transform="matrix(-0.26455,0,0,-0.26455,709.745361,-154.997009)" style="stroke:#000000;stroke-width:0.05mm;fill:none" d="M677.342651,360.88974C680.556641,359.425323,682,356.020569,682,349.90329C682,340.516052,677.474182,336.152069,671.137329,339.428986C667.141235,341.495453,665.996704,343.786804,666.014771,349.684265C666.032349,355.440887,667.652527,359.011841,671.019714,360.715546C674.072571,362.260223,674.319824,362.267029,677.342651,360.88974z"/>
    <path transform="matrix(-0.26455,0,0,-0.26455,709.745361,-154.997009)" style="stroke:#000000;stroke-width:0.05mm;fill:none" d="M82.968803,312.733124C84.669464,309.660034,84.367546,308.879303,76.918762,297.088287C74.080528,292.59552,73.5,290.727661,73.5,286.088287C73.5,281.346741,74.021568,279.748535,76.942245,275.540405C81.440575,269.059204,81.281006,266.126221,75.95739,257.438019C67.090843,242.967758,61.303925,224.693359,60.301949,208C59.988335,202.774994,59.351593,197.759827,58.886974,196.855179C58.422352,195.950516,56.035713,193.940948,53.583332,192.38945C46.975754,188.209183,45.143486,182.856522,49,179C52.179623,175.820374,57.074928,176.385223,62,180.5C66.896111,184.590591,69.44339,184.846893,74.102119,181.717697C78.400414,178.830597,79.164948,174.78212,75.810379,172.671814C72.799255,170.777557,52.922295,166.631012,46.5,166.557343C41.774982,166.503159,41.400375,166.69249,39.688492,170C38.261528,172.757019,37.969936,175.092087,38.314877,181C38.687614,187.384125,39.45377,189.958282,43.464329,198.301346C53.535244,219.251648,64.367271,253.760818,64.400253,265C64.416039,270.380341,63.86644,272.571686,61.209663,277.721497C59.444347,281.143311,58,284.782135,58,285.80777C58,286.833435,60.01545,290.783752,62.478775,294.586304C64.942101,298.388824,67.664452,303.595917,68.528442,306.157562C70.765991,312.791718,74.195908,316.205536,78.229065,315.812592C80.515755,315.589813,81.877541,314.705048,82.968803,312.733124z"/>
    <path transform="matrix(-0.26455,0,0,-0.26455,709.745361,-154.997009)" style="stroke:#000000;stroke-width:0.05mm;fill:none" d="M655.341064,302.946381C658.312561,300.608948,659.530701,296.6362,660.470642,286.216492C661.737427,272.174286,665.442749,263.855499,672.634705,258.907318C679.446716,254.220535,680.797424,252.268875,683.5979,243.066223C686.9729,231.975555,694.144836,214.134964,697.594788,208.248016C701.319214,201.892746,707.669128,195.209457,712.159363,192.918701C716.543274,190.682205,720.365601,190.309402,728.155518,191.358597C733.382385,192.062576,734.332214,191.857849,740.687378,188.65744C744.46936,186.752853,749.574402,184.664154,752.03186,184.015884C754.489319,183.367615,757.550415,182.163635,758.834167,181.340378C761.044006,179.923309,761.078003,179.743713,759.472351,177.969452C756.2323,174.389206,747.97406,173.583282,733.526855,175.437408C715.309448,177.775391,711.414063,179.068375,702.477051,185.743607C692.607666,193.115204,686.911316,200.772842,677.366455,219.5C673.161621,227.75,667.097656,239.242447,663.890991,245.038788C656.360413,258.651154,652.837341,267.30246,648.512268,282.803314C644.83197,295.993256,644.193237,301.793243,646.200012,303.799988C648.039856,305.639862,652.439087,305.229034,655.341064,302.946381z"/>
    <path transform="matrix(-0.26455,0,0,-0.26455,709.745361,-154.997009)" style="stroke:#000000;stroke-width:0.05mm;fill:none" d="M106.496529,301.565887C110.366287,299.949005,111.8946,296.25885,110.218262,292.579681C108.951759,289.800018,97.742859,281.224548,94.220581,280.340515C90.515404,279.410583,87.609047,283.2034,88.381111,287.96109C89.153526,292.720917,93.799515,299.121857,98.02549,301.248444C102.221832,303.360138,102.203926,303.359467,106.496529,301.565887z"/>
    <path transform="matrix(-0.26455,0,0,-0.26455,709.745361,-154.997009)" style="stroke:#000000;stroke-width:0.05mm;fill:none" d="M163.941879,272.919037C175.756592,270.385254,176.166092,258.266296,164.546906,255.013138C155.864746,252.582275,152.309036,245.493301,157.174316,240.314453C160.331009,236.9543,165.419617,237.245728,171.554214,241.138C174.274399,242.863892,177.725952,244.703888,179.22435,245.226883C184.601196,247.103577,198,240.519028,198,236C198,234.997787,196.596054,232.996445,194.880127,231.552582C189.346008,226.895935,185.913712,225.629303,179,225.692261C169.899841,225.775146,150.109436,229.890564,147.824875,232.175125C145.427109,234.572891,145.466354,241.62381,147.968582,257.991486C150.469467,274.350342,151.738419,275.536224,163.941879,272.919037z"/>
</svg>
