<?xml version="1.0" encoding="UTF-8"?>
<svg xmlns="http://www.w3.org/2000/svg" width="224.878mm" height="258.416mm" viewBox="-227.041534 -872.621887 224.878403 258.416199">
    <path transform="matrix(-1,0,0,-1,0,0)" style="stroke:none;fill:#000000;fill-rule:evenodd" d="M115.131676,872.189941C113.615913,871.417114,111.517433,869.506226,110.667244,868.124512C110.146858,867.278748,109.364342,866.520508,108.358238,865.887207C104.816223,863.65741,104.115456,862.366516,103.277687,856.528076C103.141556,855.579346,102.738075,853.853149,102.381065,852.692078C100.651993,847.068726,100.577904,846.516174,100.729729,840.377075C100.961411,831.008545,101.27475,826.387024,101.7845,824.819946C102.039001,824.037537,102.181084,823.133911,102.100258,822.811829C102.019417,822.489746,100.866333,821.232788,99.537849,820.018616L97.122414,817.810974L97.243561,816.550232C97.392784,814.997192,97.297455,814.949585,94.447289,815.155029C92.359482,815.305481,92.243164,815.28302,91.020325,814.49353C89.572319,813.558655,88.553673,813.470215,86.333755,814.086548C84.877525,814.490906,83.733276,814.732544,80.513649,815.315552C78.332054,815.710632,72.220695,815.713257,69.799377,815.32019C68.780861,815.154907,67.173721,814.9021,66.227951,814.758484C65.282181,814.614868,64.270287,814.441284,63.979279,814.37262C63.688271,814.304016,62.55732,814.104492,61.466049,813.92926C58.108459,813.390137,55.721336,812.49707,50.222679,809.723145C41.38224,805.263367,37.886551,803.051758,36.411858,800.985474C36.005165,800.415649,34.958138,799.500244,34.085129,798.951111C33.212112,798.402039,31.604967,797.103516,30.5137,796.06543C29.42243,795.027344,27.81529,793.694519,26.942274,793.103577C24.784407,791.642883,21.564165,788.28894,20.099901,785.977173C19.436083,784.929138,18.579996,783.866577,18.197485,783.615967C17.397184,783.091614,14.821314,779.361572,13.651773,777.033447C11.240686,772.233887,8.026951,762.862061,8.026951,760.630432C8.026951,759.35968,7.417803,757.98938,6.620773,757.467163C5.886381,756.985962,5.573524,756.282715,5.14617,754.152588C4.98562,753.352295,4.608414,751.472534,4.307934,749.975281C4.007458,748.478027,3.411884,746.513733,2.98444,745.610229C1.800304,743.107178,1.884226,740.391235,3.292696,735.634094C3.572712,734.688293,3.800091,733.476563,3.797983,732.941345C3.793648,731.840454,4.349258,731.130981,5.201933,731.148682C6.711077,731.179993,10.155733,733.753052,13.927198,737.666138C15.214731,739.002075,17.463583,740.966309,18.924635,742.03125C20.66773,743.301697,21.939558,744.467651,22.623659,745.422424C23.986917,747.325012,26.496805,750.329651,28.739302,752.743591C30.398539,754.529663,31.827665,756.894165,31.833868,757.863525C31.838182,758.538696,32.650223,759.479004,33.555725,759.8573C34.897453,760.417969,39.331276,763.997559,42.846077,767.35791C46.357567,770.715027,49.517853,773.482544,51.503403,774.939331C54.26812,776.967773,54.939842,776.81604,54.059799,774.361938C52.530235,770.096558,51.413155,766.175537,51.413155,765.072083C51.413155,764.689941,50.997955,763.535034,50.490479,762.505615C49.169212,759.825562,48.218559,755.151001,47.715706,748.861572C47.581932,747.188293,47.328239,745.283508,47.151962,744.628784C46.956726,743.903564,46.791222,740.820129,46.728516,736.739563L46.62558,730.040894L47.696617,729.061829C48.285683,728.523376,48.767654,727.982117,48.767654,727.859009C48.767654,727.73584,48.410507,727.228394,47.973999,726.731201C47.21006,725.861145,47.180351,725.732239,47.180351,723.287842C47.180351,721.891113,47.290039,720.317871,47.424103,719.791748C47.558167,719.265625,47.807594,718.001831,47.978386,716.983276C48.633011,713.079407,49.8395,708.753174,50.773399,706.960999C51.719025,705.146362,51.720932,705.135803,51.303246,704.042114C50.686424,702.427002,50.788078,700.822144,51.665939,698.31604C54.935623,688.981628,55.201241,688.407104,56.448387,687.972351C57.220566,687.703186,57.675171,686.928772,57.360184,686.419128C57.004593,685.84375,59.55407,678.757874,60.79303,676.877991C61.138077,676.354492,61.963226,674.845276,62.626701,673.52417C63.350723,672.082581,64.305206,670.656799,65.014061,669.957947C66.458801,668.53363,66.802803,667.493958,66.032196,666.880737C65.282852,666.284424,65.010406,665.664185,64.503708,663.400696C64.260796,662.315613,63.845978,660.475403,63.581879,659.311401C63.042397,656.933533,62.6064,654.737244,62.400253,653.359009C62.324081,652.849731,62.13131,651.659302,61.971893,650.713501C60.921036,644.479492,60.609825,640.402466,60.578506,632.459595C60.538589,622.335754,60.705116,621.781067,65.125679,617.313171L67.940384,614.468262L70.457176,614.638916C72.459435,614.774658,73.271454,614.959656,74.429001,615.54364C76.244438,616.459595,78.197906,618.438904,78.933357,620.107605C79.598534,621.616821,80.090744,621.882751,80.803322,621.11792C81.174332,620.719666,81.646683,620.55481,82.416771,620.55481C83.340813,620.55481,83.656212,620.713135,84.500496,621.600647C85.548149,622.701965,86.333755,624.771301,86.333755,626.429565C86.333755,627.154419,86.595345,627.595825,87.68351,628.707092L89.033264,630.085449L88.877907,632.264587C88.792458,633.463074,88.599419,635.396057,88.448944,636.56012C88.016251,639.906921,87.880821,643.071594,88.114952,644.364319C88.397209,645.922729,89.022278,646.027161,90.646622,644.787292C92.807953,643.137512,93.824905,642.749573,95.80983,642.81781C96.791519,642.851501,97.744583,642.786499,97.927757,642.673279C98.110924,642.56012,98.449753,641.995239,98.68071,641.417969C99.151237,640.242004,100.24173,639.447754,104.19088,637.404724C108.499855,635.175537,109.157845,634.643311,109.650871,632.988647C110.268044,630.917358,111.10421,627.56781,111.467018,625.713562C112.749886,619.156677,114.161339,615.22937,115.505119,614.477661C116.153664,614.114868,116.302269,614.114929,116.951927,614.478333C117.350136,614.701111,117.757256,615.177307,117.856621,615.53656C117.955986,615.895813,118.865089,618.749268,119.876854,621.877563C122.226128,629.141479,122.72126,630.82843,123.203239,633.210693C123.419289,634.278625,123.813225,635.392639,124.078651,635.686401C124.654961,636.324219,126.354286,637.205078,128.529465,637.99353C129.402481,638.309998,131.009628,639.220825,132.100891,640.017639C133.192169,640.814453,134.561203,641.584778,135.143219,641.729431C136.492432,642.064697,138.57016,643.034851,141.127258,644.523438C142.319962,645.217773,143.315033,645.63092,143.56427,645.535278C144.153,645.309387,144.356628,644.491028,143.993118,643.811829C143.8246,643.496948,143.603027,641.970886,143.500717,640.420532C143.398407,638.870178,143.240921,637.4823,143.150696,637.336304C143.060501,637.190369,142.954712,635.961853,142.915619,634.606201L142.844513,632.141479L144.218735,630.871338C145.571732,629.62085,145.592941,629.577515,145.592941,628.061707C145.592941,627.214905,145.84906,625.710632,146.162094,624.71875C146.817596,622.641785,147.788727,621.61853,149.11853,621.603577C150.266602,621.590698,152.702698,620.986877,153.711731,620.465088C154.168945,620.228638,155.064331,619.349365,155.701477,618.511108C157.023758,616.771423,158.522964,615.803589,159.905304,615.797302C160.429214,615.794861,161.235794,615.661194,161.697662,615.500183C163.222595,614.968567,164.162674,615.383789,166.722702,617.719543C171.457306,622.039368,171.885391,623.183899,171.840164,631.401367C171.795074,639.593262,171.028244,649.373535,169.962997,655.34314C169.833191,656.070679,169.645798,657.261108,169.546585,657.988647C169.447388,658.716187,169.147141,660.263794,168.87941,661.427795C168.611664,662.591797,168.24733,664.258484,168.069763,665.13147C167.892197,666.004517,167.583694,667.390747,167.384201,668.212036C166.841644,670.445618,166.900009,670.708679,168.465271,673.085388C170.003967,675.421753,174.129288,683.473206,174.691528,685.237305C174.877014,685.819336,175.360001,686.75177,175.764801,687.309448C176.169617,687.867126,176.945862,689.474243,177.489792,690.880859C178.033722,692.287476,178.823059,694.324219,179.243866,695.406921C180.193954,697.851501,181.042648,700.97522,181.042648,702.027588C181.042648,702.464661,180.900711,703.352966,180.727249,704.001526C180.437271,705.085693,180.467865,705.294006,181.106613,706.584717C181.769302,707.923706,182.916321,712.194214,183.29567,714.734619C183.393417,715.389404,183.588181,716.698914,183.728455,717.644653C183.868713,718.590454,184.045319,720.800354,184.12088,722.555542C184.280487,726.262512,184.278229,726.266785,181.90567,726.735229C181.067245,726.900757,180.381271,727.145203,180.381271,727.278442C180.381271,727.411682,181.083679,727.70929,181.942169,727.939819C184.010025,728.495056,184.527161,729.197449,184.839905,731.875427C184.970871,732.996887,185.067795,734.807373,185.055283,735.898621C185.015945,739.328308,184.552872,748.164673,184.368988,748.993835C184.272186,749.430359,183.950592,751.097046,183.654343,752.69751C182.792236,757.355042,181.845947,760.984741,181.15506,762.284058C180.802231,762.947693,180.51355,763.757141,180.51355,764.082886C180.51355,764.967163,178.536026,772.423096,177.499847,775.445618C176.514221,778.320679,176.564285,779.020264,177.755615,779.020264C178.574951,779.020264,180.211945,778.205627,180.882507,777.464172C181.158173,777.159302,181.991516,776.52533,182.734344,776.055176C185.198364,774.495972,188.836044,771.648315,189.598221,770.682068C190.011459,770.158203,191.201935,769.097107,192.243713,768.324158C193.285492,767.551208,195.319656,765.641479,196.764069,764.080322C198.208496,762.519165,200.011139,760.773071,200.769943,760.200195C201.829453,759.400269,202.345108,758.746521,202.992096,757.383057C203.45546,756.406555,204.344467,754.95282,204.967682,754.152588C205.590897,753.352295,206.343018,752.221375,206.639069,751.639343C207.996353,748.971069,211.359589,745.190613,212.87381,744.631104C215.318253,743.727783,215.301193,743.744385,215.916702,741.680115C216.672653,739.144958,218.285416,736.885742,220.339325,735.484863C221.214325,734.888062,222.158752,733.977112,222.462128,733.437378C223.211227,732.104614,224.120361,731.182617,224.792404,731.074158C225.704636,730.926941,226.801544,731.408264,226.954727,732.022949C227.19574,732.990112,226.888748,750.736206,226.597092,752.69751C226.187637,755.450867,223.549667,765.45752,222.453842,768.414124C221.857315,770.023621,221.601471,770.472229,220.327789,772.141968C219.717346,772.942261,219.004456,774.25177,218.743591,775.052002C218.113174,776.985901,215.628937,781.933594,214.293793,783.914429C209.339523,791.264587,202.812439,798.491821,197.531448,802.474792C189.552826,808.492432,183.123444,811.950867,177.499161,813.250366C172.601425,814.381958,171.578781,814.496704,165.100052,814.641479C159.757111,814.760925,159.547134,814.745544,157.406158,814.078308C154.201263,813.079468,153.525574,812.304321,152.336212,808.26239C151.828476,806.536926,151.41304,805.084839,151.41304,805.035645C151.41304,804.424072,148.854828,805.914063,147.800522,807.139771C147.486938,807.504333,146.633255,808.193481,145.903488,808.671265C144.87944,809.341675,144.387665,809.915955,143.748657,811.187622C143.27829,812.123657,142.343796,813.374878,141.585022,814.084656L140.249359,815.333984L137.960846,815.173523C136.702148,815.085205,135.34494,814.936462,134.944809,814.842896C134.236374,814.677307,134.217255,814.703125,134.216171,815.828003C134.214828,817.194214,133.415024,818.515686,131.473495,820.359741C130.289642,821.484131,130.200195,821.654907,130.374863,822.458069C130.479431,822.938965,130.668381,825.653809,130.794754,828.491089C130.921127,831.32843,131.158585,834.899841,131.322403,836.427612C131.987366,842.628418,131.746674,844.803162,129.697449,851.110168C128.571884,854.574341,127.603554,858.760864,127.603554,860.162842C127.603554,860.651794,127.375496,861.498901,127.096748,862.045288C126.53495,863.146484,124.643349,865.002319,123.457832,865.615356C122.77346,865.969238,121.044899,867.819824,117.995155,871.463623C116.875801,872.801025,116.511528,872.893433,115.131676,872.189941M162.433456,686.277954C163.219025,685.492432,163.160446,684.518311,162.250809,683.240845C160.776291,681.170044,157.253754,682.778442,157.871658,685.240356C158.276978,686.855286,161.192902,687.518494,162.433456,686.277954M102.567902,744.080444C103.84523,743.075684,103.379578,740.185791,101.849129,739.619629C100.566376,739.145142,98.414864,740.78595,98.414864,742.23877C98.414864,744.159119,101.006714,745.308472,102.567902,744.080444M222.453705,754.671753C223.064423,753.996948,223.331848,751.171936,222.840988,750.580505C222.053955,749.632202,219.850845,750.473267,219.230026,751.959045C218.712799,753.19696,218.954468,754.048523,220.00473,754.688904C221.095932,755.354248,221.84079,755.348999,222.453705,754.671753M57.866272,769.095337C58.829102,768.638489,59.614204,767.476685,59.614204,766.508789C59.614204,765.413879,58.814934,764.69873,57.414742,764.540955C55.29776,764.302307,54.578163,765.561157,55.522301,767.851563C55.869949,768.694885,56.547707,769.49646,56.913147,769.49646C56.972473,769.49646,57.401382,769.315979,57.866272,769.095337M59.878754,809.178955C60.608315,808.449402,60.598175,806.582214,59.85955,805.64325C58.946136,804.481995,56.804886,804.87146,55.817513,806.378357C54.980614,807.65564,55.386009,808.484497,57.241127,809.289185C58.499809,809.835083,59.254128,809.803589,59.878754,809.178955M183.295975,792.088135C184.09436,791.565002,185.010895,790.12384,185.010895,789.391541C185.010895,788.039734,183.378464,787.622375,181.613342,788.522827C180.683762,788.99707,179.984451,789.96167,179.984451,790.769531C179.984451,790.961304,180.231186,791.431885,180.532745,791.815247C181.173111,792.629395,182.300095,792.740662,183.295975,792.088135M130.025803,744.771606C131.085007,744.05188,131.609344,742.939941,131.292953,742.084595C130.700684,740.483521,127.819893,739.752258,126.957176,740.983948C126.297768,741.925415,126.428078,743.655151,127.230232,744.608459C128.058685,745.593018,128.756973,745.633789,130.025803,744.771606M62.45443,747.389526C64.976074,745.739258,63.611565,743.30603,60.164482,743.30603C59.047943,743.30603,58.584152,743.435913,58.110092,743.881226C57.440414,744.510376,57.28846,745.85968,57.78318,746.784058C58.438866,748.009277,61.000214,748.341187,62.45443,747.389526M165.692444,693.86554C167.864456,692.291016,165.969635,689.417419,163.243469,690.151489C161.588577,690.597107,160.143188,691.408203,160.143188,691.891357C160.143188,692.496338,161.866898,694.045654,162.869751,694.342041C163.904877,694.647949,164.828125,694.492065,165.692444,693.86554M117.48452,647.127625C118.545433,645.922058,118.190346,644.179626,116.729836,643.424377C115.685829,642.88446,114.602348,643.123596,113.430473,644.152527C112.334496,645.114807,112.235329,646.117126,113.150993,646.977356C114.470589,648.217041,116.464989,648.286194,117.48452,647.127625M125.219765,651.30835C127.723183,650.053894,126.351875,647.274353,123.229576,647.274353C122.001274,647.274353,121.355995,647.633179,120.860268,648.591797C120.320732,649.635193,120.357323,650.246216,121.008995,651.074646C121.475304,651.66748,121.762138,651.771667,122.926994,651.771301C123.701881,651.771057,124.697533,651.570007,125.219765,651.30835M180.903275,800.980591C181.922455,800.59314,182.894501,799.420532,182.894501,798.578613C182.894501,797.561279,181.73764,796.281067,180.522552,795.953857C178.12381,795.307983,176.886185,797.161743,177.97554,799.768921C178.545349,801.13269,179.482773,801.520691,180.903275,800.980591M189.045044,796.231079C190.161346,795.523193,191.095551,794.311523,191.095551,793.571655C191.095551,793.412292,190.803329,792.989746,190.446198,792.632568C189.486465,791.672852,188.241898,791.753784,187.210938,792.843018C185.762115,794.373718,185.393967,795.767639,186.220261,796.593933C186.836212,797.2099,187.670639,797.102722,189.045044,796.231079M116.343178,688.171509C117.90377,687.519409,117.909431,685.812988,116.35601,684.307312C115.055138,683.046509,114.07061,683.10498,112.749199,684.521606C111.32592,686.047424,111.388466,687.400452,112.921028,688.238708C113.662865,688.644409,115.287621,688.612549,116.343178,688.171509M51.647598,789.40387C51.954285,789.149231,52.278397,788.56189,52.367844,788.098633C52.581459,786.992371,51.778824,786.172363,49.733231,785.407043C47.93203,784.733093,47.100151,784.693848,46.537872,785.256104C45.605606,786.188354,46.505234,787.881714,48.558289,789.059082C50.163612,789.979675,50.860382,790.057434,51.647598,789.40387M72.982468,687.631714C73.776054,687.300171,73.899902,687.12616,73.899902,686.342712C73.899902,685.609924,73.675507,685.230103,72.725067,684.354004C71.386574,683.120239,70.446571,682.789612,69.501572,683.220215C68.66362,683.60199,67.993507,685.168091,68.222321,686.209839C68.564209,687.766479,70.952591,688.479858,72.982468,687.631714M116.419701,867.563232C117.360222,867.040649,118.344307,865.512329,118.344307,864.574341C118.344307,863.451172,117.0942,862.353516,115.814949,862.353516C114.538582,862.353516,113.226418,863.556702,113.258842,864.697388C113.288155,865.728394,114.15432,867.192627,114.966591,867.584106C115.729591,867.951904,115.720085,867.952026,116.419701,867.563232M74.561279,628.266846C75.532013,627.717651,76.545403,625.803894,76.545403,624.519897C76.545403,622.671997,75.480064,622.450623,73.662598,623.920898C71.481163,625.685608,70.989853,626.333923,70.989853,627.447937C70.989853,628.133911,71.140556,628.555847,71.452812,628.744019C72.026932,629.090088,73.508217,628.862671,74.561279,628.266846M115.070793,696.843933C116.344521,696.239502,117.021553,695.279907,117.021553,694.079041C117.021553,692.748108,116.313347,692.247864,114.429115,692.247864C113.221992,692.247864,112.900291,692.360168,112.252846,693.007629C110.905708,694.354736,110.879692,696.145508,112.196877,696.860229C113.146614,697.375549,113.960243,697.370911,115.070793,696.843933M160.392776,638.16095C161.069504,637.548523,161.113678,636.137512,160.473877,635.570251C159.820114,634.990601,155.987732,633.970093,155.203644,634.16687C154.425018,634.362305,153.709061,635.865051,153.945587,636.807373C154.294479,638.19751,155.697327,638.827332,158.210236,638.721985C159.364395,638.673645,160.009521,638.507813,160.392776,638.16095M161.429245,630.241821C161.718628,629.635254,161.730698,629.270691,161.488251,628.461426C161.156479,627.354126,158.648041,624.456543,157.513062,623.869629C156.684769,623.441284,155.9104,623.761963,155.9104,624.533264C155.9104,625.193176,156.909531,628.974976,157.284012,629.732544C157.673859,630.52124,159.02063,631.152222,160.141327,631.071289C160.866302,631.018921,161.143753,630.84021,161.429245,630.241821M118.705437,796.196838C119.38726,795.660522,119.578346,794.865723,119.238457,793.979919C119.038582,793.459106,113.755898,790.925049,112.869972,790.925049C112.167091,790.925049,110.936897,792.002319,110.936897,792.617798C110.936897,793.337524,112.102837,794.371826,114.243782,795.551208C116.606361,796.852722,117.675011,797.007385,118.705437,796.196838M223.062378,746.546753C223.194077,746.292114,223.38382,744.521912,223.484009,742.612915C223.641968,739.604004,223.60907,739.0849,223.236954,738.712769C222.852768,738.328613,222.728287,738.324585,222.051819,738.674377C221.049423,739.192749,220.326126,740.251953,219.529709,742.367798C218.658661,744.682007,218.669281,745.752625,219.570358,746.461426C220.486786,747.182251,222.705643,747.236511,223.062378,746.546753M109.713417,642.440979C110.604591,641.505859,111.750389,640.584412,112.259651,640.393311C113.613365,639.885376,114.376045,639.102722,114.376045,638.221558C114.376045,637.401978,113.354454,636.163269,112.678505,636.163269C112.459145,636.163269,111.531105,636.834229,110.616219,637.654236C109.576546,638.586182,108.033119,639.588501,106.500259,640.327271C103.137634,641.947998,102.736931,642.839233,104.91436,643.854553C106.810425,644.738647,107.802147,644.446533,109.713417,642.440979M139.605637,810.95752C139.936981,810.626221,140.610382,809.600281,141.102112,808.677673C141.762131,807.439331,142.380356,806.722168,143.463867,805.937744C144.271103,805.353333,145.080383,804.689819,145.262253,804.463318C146.151337,803.355835,145.001907,801.771606,143.309357,801.771606C142.086899,801.771606,140.506363,803.246094,139.355621,805.460083C138.859726,806.414185,138.155502,807.72876,137.79068,808.381226C137.072067,809.666443,136.942322,810.73999,137.444809,811.242432C137.947723,811.745361,138.949966,811.61322,139.605637,810.95752M18.15793,772.463074C18.546324,772.057678,18.936724,771.362915,19.025488,770.919067C19.165457,770.219238,19.007204,769.90686,17.832861,768.564819C16.854704,767.447021,16.368361,766.608887,16.080828,765.545349C15.861921,764.735657,15.556646,763.606873,15.402441,763.036926C15.029119,761.657104,13.855433,760.50177,12.827028,760.50177C11.250055,760.50177,11.357443,761.628174,13.459093,767.131714C15.664957,772.908203,15.821074,773.200195,16.704168,773.200195C17.176741,773.200195,17.711542,772.929016,18.15793,772.463074M136.574829,717.737122C137.163483,717.324829,137.189011,717.191223,137.03273,715.342407C136.807739,712.680664,137.187805,711.811279,139.000076,710.842224C140.862564,709.846313,141.360138,709.325806,141.360138,708.373413C141.360138,707.43927,140.342148,706.269043,139.529526,706.269043C139.236969,706.269043,138.596939,706.62085,138.107224,707.050781C136.661301,708.320313,133.984894,712.293945,133.536255,713.837158C132.660019,716.851379,134.488647,719.198364,136.574829,717.737122M170.57402,687.334778C170.802673,687.10614,170.989746,686.62561,170.989746,686.267029C170.989746,685.436523,166.963852,677.173218,166.240173,676.518311C165.495712,675.844604,164.483795,676.316833,163.953751,677.585327C163.459503,678.768311,163.646408,679.403442,164.882034,680.739929C166.43486,682.419556,166.499512,682.558411,166.744125,684.739563C166.92807,686.379883,167.096848,686.907227,167.557281,687.280029C168.280975,687.866028,170.011353,687.897461,170.57402,687.334778M113.636101,846.058411C114.056282,845.336121,114.124138,844.377563,114.211098,837.934998C114.316246,830.146179,114.26667,829.789978,113.032234,829.467163C112.655785,829.368713,112.267998,829.516968,111.875755,829.90918C111.300468,830.484497,111.281685,830.69165,111.128014,838.15918C110.993309,844.704834,111.028084,845.908081,111.367027,846.430359C111.930565,847.298706,113.018303,847.120422,113.636101,846.058411M169.427567,745.646301C170.359512,745.04187,172.133926,744.059753,173.370697,743.463745C175.417511,742.477356,175.83931,742.371826,178.069412,742.28833C180.209473,742.20813,180.56929,742.125366,180.91333,741.634216C181.446106,740.873535,181.416718,739.220581,180.860519,738.664307C179.948837,737.752686,176.432938,738.700073,170.447433,741.470215C164.999313,743.991699,164.126022,744.730042,165.005188,746.071777C165.724182,747.169128,167.315521,747.015991,169.427567,745.646301M21.43685,779.483215C21.733397,779.155884,22.478758,778.016235,23.093203,776.950684C24.327219,774.810791,25.757574,773.248535,27.678301,771.942749C29.077036,770.991821,29.324133,770.592224,29.090071,769.659668C28.893656,768.877075,27.303698,768.066772,26.472475,768.325684C25.190763,768.724854,23.893393,770.080566,22.984255,771.970703C21.880766,774.264954,21.356394,774.857422,19.675051,775.709412C18.153708,776.480347,17.887239,777.079407,18.495508,778.361206C19.300642,780.057922,20.50139,780.515991,21.43685,779.483215M149.013168,639.744507C149.996658,639.235901,150.101822,638.891724,150.065399,636.300903C150.031387,633.881592,150.189667,633.440552,151.718521,631.694824C152.774597,630.488953,152.868439,630.12439,152.746872,627.699829C152.636856,625.505615,152.390198,625.052185,151.306519,625.052185C150.004532,625.052185,149.296646,626.020386,149.296646,627.801208C149.296646,629.676819,148.974792,630.628662,147.696152,632.534668L146.592972,634.179138L146.717712,636.631104C146.812408,638.492065,146.956818,639.209412,147.31691,639.6073C147.884293,640.234253,148.041519,640.246948,149.013168,639.744507M201.521759,794.079346C202.744766,792.625854,202.438126,792.090454,199.561142,790.656372C196.895584,789.327576,194.194138,787.346863,192.692093,785.619934C191.446579,784.187927,191.228577,784.046753,190.263382,784.046753C189.444107,784.046753,189.027161,784.222534,188.429703,784.820007C186.932388,786.317322,187.564774,787.464355,190.343887,788.292053C191.877502,788.748779,192.385117,789.065308,193.674667,790.369263C194.511429,791.215332,195.672256,792.152222,196.254272,792.451294C196.836288,792.750366,197.722733,793.422119,198.224152,793.944153C199.427658,795.197083,200.54277,795.242798,201.521759,794.079346M109.205482,747.109924C109.901558,746.842834,110.408104,745.547546,110.403419,744.046692C110.396446,741.810669,107.569984,733.546143,106.372757,732.261047C105.336746,731.149048,103.254715,731.674744,102.886635,733.141296C102.606926,734.255737,103.168358,735.425049,104.696091,736.909912C106.851753,739.005066,107.074654,739.646301,106.854836,743.120239C106.680115,745.881409,106.698975,746.04425,107.263084,746.644714C107.858955,747.278992,108.416786,747.412598,109.205482,747.109924M164.255753,710.381592C165.197083,709.440247,165.091156,708.285156,163.749161,704.856873C163.113388,703.232788,162.33548,701.038635,162.020462,699.981018C161.525848,698.320374,161.299179,697.9505,160.358932,697.269409C159.012543,696.294067,157.270584,696.178711,156.439499,697.009766C155.463257,697.986023,155.818405,698.752136,158.086472,700.562439C159.846603,701.967346,160.597076,703.642822,161.064407,707.210999C161.37439,709.577881,161.547195,710.189331,162.013092,710.567993C162.797363,711.205322,163.489502,711.147827,164.255753,710.381592M120.071449,819.488037C120.338982,819.192444,120.886116,818.106934,121.287315,817.075745C121.688515,816.044556,122.785057,814.054321,123.724083,812.652893C128.649399,805.302368,129.204239,804.132263,128.259506,803.088318C127.178719,801.894043,125.679787,802.986389,124.117287,806.106934C122.335213,809.666077,121.063652,811.70105,119.66671,813.229492C118.11805,814.924011,117.549065,816.128906,117.55471,817.702209C117.559196,818.960083,117.7015,819.269897,118.47657,819.709412C119.230888,820.137146,119.520393,820.096985,120.071449,819.488037M113.388512,818.239807C114.605446,816.889465,114.088951,815.198486,112.01754,813.751282C110.348701,812.585327,109.790169,811.622498,109.24189,808.966431C108.612663,805.918091,105.55098,801.507019,104.0644,801.507019C103.488602,801.507019,102.735855,802.447144,102.735855,803.166321C102.735855,803.800659,103.422249,805.107788,104.383865,806.304688C104.808807,806.833557,105.617401,808.416199,106.180725,809.821594C107.15007,812.23999,109.677666,816.383484,111.154533,817.975281C111.927986,818.808838,112.784294,818.910278,113.388512,818.239807M70.654556,712.802368C70.937897,712.518982,71.058037,711.619385,71.107735,709.409058C71.180374,706.177673,71.376411,705.207275,72.631844,701.864441C73.514114,699.515198,73.492599,698.557922,72.546173,698.051392C71.765953,697.63385,70.267227,697.97821,69.806862,698.680786C69.594925,699.004272,69.2976,700.362854,69.146133,701.69989C68.792915,704.817993,68.251312,707.378052,67.546196,709.262695C66.77668,711.319397,66.78344,712.314697,67.571259,712.952637C68.298096,713.541199,69.998604,713.458313,70.654556,712.802368M119.964561,702.102356C122.124596,699.814636,123.310799,698.274231,123.800087,697.121643C124.342567,695.84375,124.371391,691.031006,123.843132,689.93219C123.10157,688.389709,121.173424,688.143311,120.298134,689.479187C119.887291,690.106201,119.902855,690.247009,120.592018,692.136536C121.803688,695.458679,121.197029,697.186462,118.103279,699.22467C116.238243,700.453369,115.963356,700.806152,115.963356,701.970886C115.963356,702.933594,116.681511,703.623535,117.683647,703.623535C118.369041,703.623535,118.799126,703.33667,119.964561,702.102356M82.574776,640.606873C84.035622,640.247742,84.345322,639.645874,84.867943,636.150696C85.432472,632.375122,85.406425,632.118469,84.266693,630.22876C83.71183,629.308777,83.111061,627.900208,82.931656,627.098572C82.752258,626.296936,82.381447,625.438293,82.107628,625.190491C81.053169,624.236206,79.656738,625.548279,79.612709,627.534668C79.591827,628.476746,79.813026,628.995239,80.960556,630.693909C83.331024,634.202942,83.169868,635.968079,80.352219,637.356812C78.223022,638.40625,77.868149,638.729492,77.868149,639.619812C77.868149,641.158386,79.197395,641.437134,82.574776,640.606873M116.880074,655.183472C118.601173,653.672302,117.740196,651.773499,115.332436,651.770264C113.470695,651.7677,112.252464,651.265747,110.819969,649.911011C109.162956,648.343872,108.482368,648.067993,106.272667,648.067993C104.32164,648.067993,103.848289,647.875427,102.278801,646.443176C101.075394,645.344971,100.288292,645.18103,99.355568,645.834351C98.588936,646.371338,98.593636,647.4646,99.367569,648.624146C100.017319,649.597656,101.272377,650.098083,104.5877,650.705688C106.745903,651.101196,110.355263,652.771179,112.259651,654.25531C114.908913,656.319885,115.459709,656.430542,116.880074,655.183472M111.284981,703.84845C112.065315,703.437744,112.250832,703.110229,112.255592,702.134766C112.260399,701.155457,111.936409,700.845825,109.782585,699.77124C106.67321,698.21991,106.169106,696.182861,108.026848,692.676514C109.186012,690.488647,109.309883,689.760193,108.647224,689.027954C108.042274,688.359497,106.337715,688.38147,105.652626,689.066528C105.072868,689.646301,105.053932,689.715576,104.470764,693.389465C103.92749,696.812073,103.942642,698.550903,104.523308,699.418457C105.2659,700.527954,109.812904,704.152588,110.462105,704.152588C110.59687,704.152588,110.967171,704.015747,111.284981,703.84845M173.274246,783.638123C173.864838,783.047485,173.93277,782.796082,173.828171,781.587891C173.762589,780.830444,173.556931,779.491577,173.37114,778.612671C173.035263,777.023621,173.040161,776.994568,174.244766,773.453979C175.613541,769.430786,177.074402,764.091553,177.074402,763.112122C177.074402,762.192383,176.600037,761.824524,175.413834,761.824524C174.632965,761.824524,174.203644,762.009033,173.614899,762.597839C172.785812,763.42688,172.703873,763.948975,173.119751,765.752502C173.494522,767.377747,173.221283,768.420044,171.888565,770.449158C170.79512,772.113953,170.724442,772.333374,170.71257,774.099182C170.705612,775.132507,170.545578,777.215271,170.356918,778.727539C169.924683,782.192261,170.139374,783.290771,171.386566,783.995972C172.18071,784.445068,172.534363,784.377991,173.274246,783.638123M80.677803,811.543945C82.406296,811.244141,84.765991,810.754028,85.921547,810.454895C88.316368,809.8349,89.795967,809.909302,91.624756,810.741821C93.041542,811.38678,94.226784,811.451904,94.439896,810.896545C94.767075,810.043945,94.220482,808.537842,93.22123,807.538635C91.989197,806.30658,91.307411,806.261902,88.172012,807.207703C86.643906,807.668701,84.890923,807.950317,82.630051,808.098145C80.555473,808.233826,78.906738,808.485168,78.205673,808.772705C76.963516,809.282104,75.360428,809.238037,73.293625,808.637817C71.830467,808.212891,71.388344,808.383545,70.639038,809.662598C70.077843,810.620605,70.227486,811.366089,71.061813,811.768738C72.074005,812.257263,77.264709,812.135925,80.677803,811.543945M125.024193,750.672852C125.750969,749.813965,125.605278,748.567627,124.627357,747.278137C122.58651,744.586975,122.354103,743.735168,122.995583,741.297607C123.487877,739.427002,123.523476,737.903076,123.10006,736.824585C122.928703,736.388062,122.624031,734.802856,122.423012,733.302002C122.221977,731.801086,121.854118,730.22876,121.605507,729.807922C121.023094,728.82196,119.918663,728.337952,119.168022,728.739685C117.789284,729.477539,117.735649,731.220276,119.009071,733.903748C120.368599,736.768738,120.566887,738.161743,120.019829,741.004944L119.569664,743.344604L120.719719,746.819641C122.005669,750.705261,122.664864,751.668396,123.847023,751.388855C124.239845,751.295959,124.769554,750.973755,125.024193,750.672852M50.20768,796.950806C50.434174,796.627441,50.619499,795.933899,50.619499,795.409607C50.619499,794.268127,49.91349,793.52356,48.370827,793.038208C46.312767,792.390686,45.339119,791.703735,43.870361,789.862915C42.635223,788.31488,42.050018,787.835144,40.353302,786.979492C38.754654,786.17334,37.849586,785.461182,36.135239,783.6604C34.186707,781.613647,33.863144,781.376587,33.119072,781.450623C32.577492,781.504456,32.094467,781.790588,31.73987,782.267639C31.210627,782.979614,31.208227,783.027893,31.66044,783.867554C31.942141,784.390686,32.972618,785.298645,34.263557,786.161255C37.001518,787.990784,40.782974,790.989136,44.138023,793.990723C45.593056,795.292542,47.126961,796.623352,47.546715,796.948181C48.538132,797.715393,49.671356,797.716492,50.20768,796.950806M113.542656,803.219421C114.547279,802.374146,114.839516,801.188599,114.260948,800.305664C114.026421,799.947693,112.910179,799.190063,111.780403,798.622009C108.489998,796.967651,106.986351,795.031311,106.974464,792.433044C106.965576,790.491943,107.854683,789.161194,109.826637,788.164124C111.149071,787.495483,111.730553,786.789734,111.730553,785.853271C111.730553,784.799561,111.06855,784.046753,110.141945,784.046753C108.814186,784.046753,106.048691,786.562988,104.763016,788.940918C104.269081,789.854431,104.192085,790.414917,104.199722,793.041443C104.210732,796.822754,104.447983,797.384583,106.492805,798.471497C108.404762,799.487793,109.182472,800.224609,110.175819,801.960754C111.372551,804.052429,112.189674,804.35791,113.542656,803.219421M62.274353,802.292847C63.090233,801.856201,63.527695,800.7052,63.792015,798.299744C63.927856,797.063538,64.259689,795.583008,64.529427,795.009705C65.170525,793.647095,66.948723,791.929016,69.551651,790.157288C73.573189,787.419983,73.709175,787.182007,74.586517,781.345215C75.161377,777.520752,74.983078,776.824707,73.461662,776.954102C71.890274,777.087769,71.42392,777.983276,71.241234,781.21759C71.157455,782.700867,70.95929,784.21875,70.80085,784.590759C70.298737,785.769592,69.162857,786.903503,66.80191,788.582764C64.17337,790.452332,62.374939,792.080444,61.862236,793.054626C61.420403,793.894165,60.143303,799.496277,60.143303,800.594849C60.143303,801.647705,60.646637,802.285522,61.681854,802.544312C61.727798,802.555847,61.994423,802.442627,62.274353,802.292847M204.288422,779.930115C204.581512,779.557495,204.961075,778.575378,205.131882,777.747559C205.54039,775.768066,206.068161,774.780762,207.949875,772.47583C208.809662,771.422729,210.51532,768.869873,211.74025,766.802856C212.965179,764.73584,214.245544,762.71405,214.585495,762.310059C215.458771,761.272217,216.742889,760.971558,218.293091,761.442017C218.975952,761.649231,219.683472,761.820068,219.865356,761.821655C220.51738,761.827271,221.254242,760.779419,221.254242,759.846497C221.254242,758.70697,220.714005,758.316589,218.305267,757.715393C216.656281,757.303833,216.487289,757.304749,215.59169,757.729736C214.513977,758.24115,213.064545,759.987305,209.886871,764.602295C208.684662,766.348328,206.554077,769.182373,205.152252,770.900085C203.750412,772.617859,202.216553,774.502075,201.743683,775.087341C201.20665,775.751953,200.883896,776.445557,200.883896,776.934937C200.883896,778.418152,202.405823,780.607544,203.436783,780.607544C203.612106,780.607544,203.995346,780.302734,204.288422,779.930115M116.482887,811.03595C117.087547,810.712341,118.63607,808.267334,120.423622,804.813904C122.084785,801.604614,122.327782,801.305847,124.462944,799.847107C126.573006,798.405518,126.895195,797.615234,126.756096,794.222046C126.631432,791.180664,126.155693,790.352112,123.557701,788.651611C122.509102,787.965332,120.996422,786.844482,120.196159,786.161011C117.783043,784.099976,117.133766,783.910461,116.083595,784.960632C115.257683,785.78656,115.234718,786.942688,116.029488,787.685181C116.356865,787.990967,117.398537,788.569824,118.344307,788.971436C121.911522,790.486145,123.633003,792.161743,123.828468,794.309204C123.997475,796.166077,123.114922,797.632568,120.970543,799.058105C118.773033,800.518921,118.48156,800.895569,118.116417,802.746216C117.67968,804.959656,117.032555,805.857666,115.211937,806.776672C113.093437,807.84613,112.727821,808.966248,114.002739,810.481445C114.713127,811.325684,115.579552,811.519409,116.482887,811.03595M23.056414,766.311584C24.057825,765.378601,23.821505,764.339722,21.849688,761.006836C19.504293,757.042542,17.289236,754.763733,14.93395,753.892151C12.491091,752.988159,11.783422,752.147156,10.464619,748.580872C9.140596,745.000488,9.045938,743.671326,10.004177,742.11554C10.977053,740.536011,10.880705,739.61615,9.604647,738.30127C7.660606,736.298096,6.649504,736.33905,6.161947,738.440796C5.711279,740.383423,5.877901,742.60498,6.668262,745.191467C7.085007,746.555298,7.630829,748.623474,7.881208,749.787476C8.665613,753.434265,9.076485,754.583496,9.962145,755.608032C10.785191,756.560181,10.910852,756.60968,12.961489,756.789978C14.545763,756.92926,15.319365,757.133057,15.939253,757.574463C17.225519,758.490356,18.554724,760.671814,19.293406,763.079102C20.334723,766.472717,21.660769,767.611816,23.056414,766.311584M102.894577,678.799194C104.464447,677.657593,105.843658,675.996948,106.155922,674.872437C106.310295,674.316528,106.437271,671.810486,106.438072,669.303528C106.440323,662.382446,106.234703,662.100647,99.947342,660.406982C95.353256,659.169495,93.862305,658.581787,92.294495,657.390503C90.573563,656.082886,89.617188,654.47522,89.109322,652.036255C88.634178,649.754517,88.052307,648.969543,87.026833,649.226929C86.155708,649.445557,85.7183,650.280151,85.73951,651.683228C85.76284,653.226257,87.802444,657.473206,89.18335,658.854126C90.540489,660.211243,93.454102,661.630676,96.651199,662.492249C98.033478,662.864746,99.581093,663.281738,100.090355,663.418884C101.591644,663.823303,102.674065,664.637939,103.318642,665.848633C103.844376,666.83606,103.921715,667.361023,103.914604,669.893372C103.908249,672.15387,103.802429,672.997986,103.440575,673.674927C102.912277,674.663208,101.753311,675.458496,100.498283,675.69397C100.029457,675.781921,99.377502,676.139526,99.049492,676.488708C98.343521,677.240173,98.480774,677.986145,99.498543,678.929382C100.416077,679.779724,101.609077,679.734009,102.894577,678.799194M115.963356,741.454163C116.986031,740.431519,116.754631,738.266357,115.282997,735.088196C114.308952,732.984619,114.111504,732.290894,114.111504,730.972107C114.111504,729.625549,114.2528,729.151367,115.047081,727.832336C115.561653,726.977783,116.080345,725.794312,116.19973,725.202393C116.520607,723.61145,116.335106,707.757324,115.988029,707.108765C115.553185,706.296265,114.19796,706.101685,113.352287,706.730286C112.54467,707.330627,112.33326,708.592346,112.777534,710.160583C113.294075,711.98407,113.630165,719.325745,113.324333,722.105103C113.000328,725.049377,112.57177,726.494446,111.297737,728.938721C110.252159,730.944641,110.260567,731.102356,111.579826,734.230408C112.059975,735.368896,112.652397,737.177856,112.896324,738.250244C113.690865,741.743591,114.660774,742.756775,115.963356,741.454163M149.766876,709.825439C150.160965,709.549438,150.354843,709.141296,150.354843,708.587708C150.354843,707.902222,150.000458,707.421265,148.270309,705.758789C146.108444,703.681519,145.232544,702.308472,144.629822,700.052124C143.859604,697.168701,144.363327,695.042542,146.391342,692.616943C147.10849,691.759155,148.41478,690.139038,149.294235,689.016663C150.173691,687.894226,151.417847,686.61499,152.059021,686.173828C152.70018,685.732666,153.471893,685.057617,153.773941,684.673584C154.825409,683.336853,154.261108,681.13678,152.86676,681.13678C151.453796,681.13678,148.643768,683.941406,147.300491,686.692322C146.191833,688.962769,145.465759,689.81842,143.670013,690.970703C141.733017,692.213684,141.545273,692.77002,141.497925,697.406616C141.475647,699.589111,141.551559,701.731995,141.666641,702.168518C141.782532,702.608032,142.42363,703.443298,143.103607,704.040649C144.063522,704.883911,144.45697,705.489868,144.907227,706.81842C145.223953,707.753052,145.597107,708.70343,145.736435,708.930481C146.4935,710.164063,148.611847,710.63446,149.766876,709.825439M100.024216,671.128601C100.466553,670.579651,100.443253,669.112061,99.977913,668.212158C99.507126,667.301758,98.755203,666.948975,95.604813,666.160156C94.229034,665.815674,91.906967,664.949463,90.444649,664.235229C86.156471,662.140747,84.344124,659.927063,82.634483,654.695313C81.800507,652.14325,81.616127,650.04187,82.138504,649.042725C82.304657,648.724854,82.899895,647.961548,83.46125,647.346436C84.609398,646.088257,84.729843,645.405884,83.942711,644.618774C83.322136,643.99823,82.016533,644.098328,80.646515,644.871582C79.298752,645.632324,79.152039,646.214539,79.274467,650.316711C79.396515,654.40564,79.945854,656.669373,81.722504,660.404602C83.343254,663.812073,87.86969,667.097595,92.418404,668.168335C94.3358,668.619629,96.068825,669.514038,97.048027,670.557617C98.294716,671.88623,99.263962,672.072144,100.024216,671.128601M174.320221,803.339294C174.8992,802.858765,174.766891,801.68042,173.873993,799.365051C172.925888,796.906494,172.65361,796.661987,167.81514,793.923096C166.141861,792.975952,164.208038,791.770874,163.517731,791.245239C159.990692,788.559448,158.799088,785.175598,159.701355,780.407715C160.001907,778.819458,160.041702,778.014404,159.847214,777.456482C159.531891,776.552002,158.41185,776.00354,157.399124,776.25769C156.163513,776.56781,156.065811,777.11615,156.413879,781.786804C156.840408,787.509949,156.90979,787.978149,157.518707,789.242859C158.287979,790.840698,163.625504,795.172668,166.948349,796.896057C169.927368,798.441101,170.572327,799.184265,170.847794,801.389038C171.086044,803.295776,171.730881,804.008667,173.027252,803.798279C173.533112,803.716187,174.114944,803.509644,174.320221,803.339294M66.602211,768.483826C67.633141,767.92688,69.423546,767.132141,70.580887,766.717712C72.504967,766.028809,72.917824,765.740723,75.402847,763.353455C78.526306,760.352844,79.726997,759.696167,83.60006,758.870239C85.030838,758.565125,86.677666,758.076904,87.259674,757.785278C88.468147,757.179749,91.510765,754.447815,92.259094,753.296326C92.730965,752.570313,92.735397,752.469727,92.332832,751.625549C91.477928,749.832825,89.751129,750.153076,88.2938,752.374573C86.635773,754.9021,85.726654,755.441284,81.740395,756.261475C77.980286,757.035156,77.065079,757.528809,74.154976,760.352661C71.235176,763.185913,69.556183,764.161255,66.112213,765.025024C63.635139,765.646301,62.788803,766.307495,62.788803,767.62146C62.788803,768.556091,63.481567,769.49646,64.170128,769.49646C64.476845,769.49646,65.571274,769.040771,66.602211,768.483826M168.854141,768.005737C169.549088,767.122314,169.568695,765.694458,168.895096,765.020874C168.562744,764.688538,167.855591,764.460632,166.844833,764.360107C163.759094,764.053284,161.297653,763.612549,159.63382,763.068787C158.075195,762.559448,157.08876,761.970276,152.368988,758.730103C151.479462,758.119385,149.32309,757.00293,147.577072,756.249023C144.436356,754.892883,142.706482,753.875671,140.747772,752.233093C138.915634,750.696716,136.598251,751.318909,136.598251,753.347229C136.598251,753.745056,136.806564,754.253906,137.061203,754.477966C137.315842,754.702026,139.488449,755.804504,141.889252,756.927856C149.876999,760.665405,150.472183,760.985962,152.984131,762.902893C156.085403,765.269653,157.070557,765.708923,160.723663,766.354004C162.720291,766.706543,164.227921,767.156006,165.525314,767.7854C167.795013,768.886475,168.143265,768.909485,168.854141,768.005737M169.595261,753.122437C170.289474,752.848633,171.836487,752.029907,173.033066,751.302979C175.517624,749.793579,176.516632,749.527954,178.249252,749.91626C179.68811,750.238708,180.407669,749.96814,180.790756,748.960571C181.141953,748.036865,181.105301,746.384521,180.725174,746.004456C179.885757,745.165039,175.8069,746.317749,172.075531,748.448975C168.905304,750.259705,167.814438,750.686035,166.311218,750.701782C164.64592,750.719299,163.890045,750.317322,162.13147,748.479126C160.691147,746.973572,160.327759,746.743774,158.550125,746.214783C155.760284,745.384521,153.24173,744.048645,151.510468,742.480835C149.098282,740.296326,147.51535,739.947021,146.408005,741.354736C145.288544,742.777954,146.411301,743.781982,152.437332,746.746826C158.513306,749.736267,158.21402,749.569519,160.275467,751.113037C162.298447,752.627686,163.550323,753.335327,164.772827,753.654968C165.900177,753.949768,168.118378,753.704834,169.595261,753.122437M130.315186,678.760864C131.113068,677.875732,131.241577,677.133789,130.677979,676.666077C130.477386,676.499573,129.504486,676.098145,128.515961,675.773926C125.985573,674.94397,125.644371,674.411438,125.530022,671.113831C125.427559,668.158997,125.739723,666.691223,126.717873,665.528748C127.648964,664.42218,128.745438,663.90802,132.611542,662.765015C134.420166,662.230286,136.238327,661.551819,136.651917,661.257324C137.740036,660.482483,138.315796,659.157227,138.969894,655.921814C139.287933,654.348572,139.777298,652.395447,140.057343,651.581482C140.830338,649.334717,140.746872,648.434753,139.706711,647.800598C137.804108,646.640564,137.228378,647.366699,136.853851,651.398743C136.467484,655.55835,136.009598,656.935364,134.522064,658.411011C133.247009,659.675964,133.111221,659.734375,127.578529,661.397278C123.386559,662.657166,122.980614,663.44165,122.976631,670.290222C122.974159,674.543884,123.02076,675.007324,123.550468,675.997009C124.078499,676.983521,125.827827,678.663452,127.184822,679.487122C128.050568,680.012634,129.487167,679.679321,130.315186,678.760864M116.473381,857.875244C116.766853,857.581787,117.049965,856.823547,117.14016,856.089539C117.468803,853.415161,117.872795,852.085327,119.135063,849.522827C120.85955,846.021973,121.053322,845.033875,121.028648,839.86676C120.98539,830.81189,120.520134,826.621521,119.380302,825.020813C118.696983,824.061157,115.296928,822.150085,114.26461,822.145447C113.204247,822.140625,112.524208,822.827148,112.524208,823.902466C112.524208,825.06665,113.197762,825.700562,114.857689,826.098755C116.463417,826.484009,117.445137,827.381348,117.83181,828.817383C118.013527,829.492188,118.079933,832.711792,118.017937,837.842773C117.906471,847.069458,117.866936,847.263306,115.551613,849.93689C114.75956,850.851501,114.106316,851.668213,114.099983,851.751831C114.093651,851.835388,113.98542,852.437927,113.859505,853.09082C113.548485,854.703125,113.949348,856.988098,114.679604,857.765381C115.387276,858.518677,115.80439,858.54425,116.473381,857.875244M91.063148,732.970825C93.389091,732.471985,94.448265,730.785645,93.212051,729.549438C92.518974,728.856323,91.22525,728.868896,89.452011,729.585815C87.567612,730.347778,84.786888,730.346741,81.877197,729.583008C79.074066,728.84729,77.379807,727.987061,75.239281,726.212524C72.770424,724.165894,72.131493,723.927795,68.476624,723.692749C64.89537,723.462402,63.614304,723.092163,61.335175,721.628967C59.180229,720.245483,58.712685,720.133484,58.012878,720.833313C56.948799,721.897339,57.833252,723.735718,59.925522,724.808777C61.49015,725.611206,64.589439,726.357239,67.517372,726.63623C71.572151,727.022522,72.144852,727.260132,74.290146,729.446167C75.891449,731.077881,76.313293,731.365051,77.33905,731.521912C77.993813,731.622009,79.600952,731.984619,80.910477,732.327637C82.220001,732.670654,83.589043,733.002991,83.952805,733.066162C85.31559,733.302917,89.794823,733.242859,91.063148,732.970825M115.456154,781.114746C115.980553,780.590393,115.996513,780.408325,115.786842,777.344971C115.665672,775.574585,115.566521,771.804688,115.566521,768.967407C115.566521,763.088745,115.590599,762.977295,117.963112,757.868958C118.754768,756.164429,119.402504,754.448914,119.402504,754.056763C119.402504,753.664673,119.048363,752.642334,118.615532,751.784912C118.182716,750.927429,117.590584,749.367065,117.29969,748.317383C116.606972,745.817566,116.162239,745.157837,115.169701,745.157837C114.614708,745.157837,114.254051,745.362671,113.925194,745.864563C113.171486,747.014893,113.332817,748.333923,114.429207,749.985229C116.249901,752.727356,116.289513,754.422241,114.617897,758.054016C112.468315,762.724182,112.18322,764.395081,112.55262,770.157471C112.761269,773.412354,112.744606,775.002014,112.480507,777.036133C112.291588,778.49115,112.167351,779.913391,112.204445,780.196655C112.391243,781.623596,114.384529,782.186401,115.456154,781.114746M206.421936,788.337769C208.747391,785.903564,211.196777,782.096252,213.777832,776.90387C215.188217,774.066589,216.970398,770.816589,217.738266,769.681702C219.200348,767.520752,219.504074,766.784241,219.358185,765.75354C219.290405,765.274597,219.080704,765.112915,218.447281,765.05127C217.187531,764.928589,216.116974,766.025513,214.653702,768.938416C213.951324,770.336609,212.603745,772.63562,211.659073,774.047302C210.714401,775.458984,209.718994,777.177612,209.447083,777.866455C209.175156,778.555298,208.391205,780.286499,207.704971,781.713562C206.029572,785.197632,204.597748,786.072327,202.416473,784.944336C201.156555,784.292847,199.043564,782.198486,198.448044,781.010925C197.758698,779.63623,196.943726,778.755737,196.360733,778.755737C196.106247,778.755737,195.531769,779.063904,195.084091,779.440613C194.140228,780.234802,193.997864,781.442993,194.738983,782.369324C195.587753,783.430176,198.094315,785.409241,200.09024,786.594482C201.181519,787.242493,202.652847,788.184326,203.359863,788.6875C204.066895,789.190613,204.7733,789.602295,204.929672,789.602295C205.086029,789.602295,205.757553,789.033264,206.421936,788.337769M102.651329,721.256042C103.001236,720.579407,103.049438,719.834167,102.929047,716.962708C102.701035,711.524414,102.227493,710.741699,97.062843,707.266602C94.76284,705.718994,94.037453,705.076233,93.534546,704.14032C92.812698,702.796936,92.816132,702.640747,93.723198,695.554749C94.608398,688.639526,94.5047,688.138916,91.828789,686.409424C89.91333,685.171387,88.700943,684.76709,87.259674,684.885681C86.318718,684.963074,86.191948,685.055969,86.115509,685.723633C86.006744,686.673706,86.60527,687.348083,88.317879,688.205139C91.150681,689.622803,91.561203,690.594971,90.992485,694.539001C90.786026,695.970703,90.541786,698.034912,90.449707,699.12616C90.357635,700.217407,90.097939,701.965637,89.872612,703.010986C89.314857,705.598694,89.535591,705.995544,92.483437,707.705017C95.326241,709.353638,98.256104,711.727295,99.189926,713.138367C100.153008,714.59375,100.273933,716.082031,99.587547,718.032349C99.282082,718.900269,99.034798,719.852661,99.03804,720.148743C99.050529,721.291809,100.63298,722.491882,101.744514,722.201172C102.010399,722.131653,102.418472,721.706299,102.651329,721.256042M140.738525,798.713562C141.494781,797.957275,141.491684,797.856384,140.611313,794.572998C140.310486,793.45105,139.92778,790.772522,139.760818,788.620605C139.333801,783.116577,139.197388,782.874207,135.177017,780.475037C130.632111,777.762817,129.43364,776.321106,128.907898,772.933411C128.540634,770.566772,128.723969,768.442627,129.504822,766.018188C129.978088,764.548706,130.025665,764.109436,129.771942,763.552551C129.301422,762.519897,128.317856,762.171387,127.46003,762.733521C126.201103,763.55835,125.94622,764.690063,125.936836,769.49646C125.932137,771.897278,126.019356,774.490662,126.130638,775.259583C126.426323,777.302612,127.586754,778.838684,130.116776,780.536011C135.307816,784.018616,135.9496,784.645142,136.582794,786.848633C136.746216,787.417358,136.994736,790.002869,137.13501,792.594177C137.275314,795.185486,137.524841,797.566467,137.689545,797.885193C138.546066,799.542847,139.617981,799.834106,140.738525,798.713562M131.126221,671.83606C131.444046,671.667786,132.144287,671.078796,132.682312,670.527283C133.992416,669.184265,134.773865,668.816956,137.662537,668.186523C142.751328,667.075867,143.784439,665.716125,145.310257,658.120911C146.8246,650.582947,148.041306,648.342285,151.583786,646.56781C153.871277,645.421997,154.587646,644.66864,154.587646,643.408813C154.587646,642.752136,154.413422,642.410522,153.910446,642.080933C153.25174,641.649353,153.174088,641.66803,151.066528,642.766052C148.390732,644.160095,148.324417,644.213989,147.657364,645.537109C147.359055,646.128845,146.496124,647.267761,145.739746,648.067993L144.364548,649.523071L143.381088,653.755859C142.840179,656.083862,142.21875,658.747192,142.000122,659.674255C141.03186,663.780151,139.918991,664.699707,133.95607,666.321045C130.588135,667.236816,129.791412,667.673584,129.287033,668.880798C128.768463,670.121887,128.838486,670.755554,129.575638,671.492737C130.322144,672.239197,130.352325,672.245911,131.126221,671.83606M140.696732,732.200623C141.425369,731.483093,142.464127,730.712097,143.005081,730.487305C144.194138,729.993103,148.063705,729.941956,151.445633,730.375671C152.720016,730.539124,154.039551,730.603333,154.377914,730.518433C154.716263,730.433472,155.64183,729.880005,156.434708,729.288452C158.802902,727.521545,164.75322,724.546448,168.149353,723.431274C172.852112,721.887024,173.635239,721.343323,173.635239,719.622864C173.635239,717.822998,172.530746,717.744446,169.575439,719.334045C168.389023,719.972168,166.584976,720.762634,165.566467,721.090576C163.220078,721.846191,161.413742,722.750549,158.173096,724.792175C154.254395,727.260986,154.297394,727.250854,147.577072,727.277588L141.756973,727.30072L140.356491,728.038574C138.55069,728.98999,136.333694,731.114624,136.333694,731.893738C136.333694,732.21814,136.639206,732.789063,137.012604,733.162415C137.975906,734.125732,139.018173,733.853638,140.696732,732.200623M138.954315,675.076294C140.495773,674.653076,142.323776,674.161072,143.016541,673.98291C145.509918,673.341675,148.021255,670.913452,149.717514,667.503723C150.610764,665.708191,150.817307,664.87323,152.069336,657.996765C152.808426,653.9375,154.301437,652.077454,157.191544,651.615356C158.967819,651.331421,159.761932,650.480957,160.53447,648.035522C161.638077,644.541992,161.325699,642.247925,159.746368,642.247925C158.777344,642.247925,158.249847,643.126099,158.033157,645.099976C157.754898,647.634949,157.312241,648.181091,154.417374,649.56134C150.827637,651.272949,150.345398,652.126465,148.908615,659.311401C147.576019,665.975342,146.176346,668.776794,143.352585,670.43158C142.541809,670.906738,137.087646,672.406616,136.170547,672.406616C135.767654,672.406616,134.2173,674.171204,134.2173,674.629761C134.2173,676.058716,135.079865,676.140015,138.954315,675.076294M76.727264,805.002869C77.185287,804.71167,77.6036,803.464172,77.6036,802.389587C77.6036,801.065002,78.31559,799.730286,79.427124,798.971069C79.951958,798.61261,81.51963,797.966919,82.910828,797.536255C86.733559,796.352844,86.581429,796.643982,87.156593,789.410828C87.42012,786.096802,87.767296,782.849609,87.928101,782.194885C88.397408,780.283997,89.378807,778.895569,91.465263,777.190674C93.872414,775.223694,94.619003,774.351501,95.201859,772.825317C95.859032,771.104492,95.660019,768.428467,94.807388,767.520874C94.040947,766.705078,93.503357,766.677979,92.574852,767.408325C91.880707,767.954346,91.869743,768.009521,92.035843,770.119995C92.191902,772.102722,92.155334,772.347961,91.576569,773.200195C91.230713,773.709412,89.896904,774.840393,88.612549,775.713379C86.97451,776.826843,86.125694,777.597351,85.769295,778.294373C85.206871,779.394409,84.613266,783.565918,84.343079,788.316895C84.061752,793.263916,83.788551,793.723633,79.931427,795.740601C78.457542,796.511353,76.743973,797.635315,76.123512,798.238281C73.916679,800.382996,72.782944,803.932739,74.016602,804.835083C74.56266,805.234497,76.20327,805.33606,76.727264,805.002869M152.471237,716.077637C154.328995,715.104126,156.599945,713.495422,157.208572,712.72168C157.876617,711.872375,157.902588,710.917969,157.344604,707.72406C156.846573,704.873352,156.409683,704.106628,154.155716,702.127747C152.171402,700.38562,151.677597,699.577576,151.677597,698.072632C151.677597,695.836975,152.861252,694.326477,155.513565,693.177429C158.969727,691.680176,159.147156,691.412964,157.633224,689.985107C156.447128,688.866516,155.114105,688.750854,153.999725,689.6698C152.901443,690.575562,149.099243,695.143433,148.642548,696.105835C148.420288,696.574219,148.239105,697.35614,148.239914,697.843384C148.243073,699.741821,148.745178,700.669312,151.161713,703.240784C155.110428,707.442627,155.709732,709.707336,153.481339,712.00647C151.599289,713.948242,148.181686,714.483765,145.223633,713.300354C143.205368,712.49292,142.457123,712.578186,141.491638,713.725586C140.474213,714.934753,140.727081,716.343933,142.021515,716.67865C142.312515,716.753906,144.514893,716.789795,146.915695,716.758423C150.92749,716.705994,151.377121,716.65094,152.471237,716.077637M66.551414,810.567871C66.774422,810.313232,67.03775,809.542847,67.136589,808.855835C67.251503,808.05719,67.695671,807.038696,68.368385,806.031311C69.203148,804.78125,69.500198,804.002319,69.80645,802.260437C70.018738,801.052979,70.497421,799.441711,70.870178,798.67981C71.730446,796.921509,74.286018,794.556396,76.827797,793.166382C77.884605,792.588379,79.079773,791.785889,79.483711,791.383118C80.294327,790.574768,80.259514,790.752441,80.921074,784.046753C81.375847,779.437134,81.640373,777.718445,82.068352,776.592773C82.490349,775.482849,83.942009,774.008179,85.280159,773.330078C87.943237,771.980652,89.048134,770.331177,88.037247,769.214172C86.912842,767.97168,85.088234,768.824341,81.667145,772.190857C78.676056,775.134277,78.247757,775.91333,78.522522,777.911133C78.726547,779.394653,77.74736,786.888,77.167625,788.279541C76.622444,789.588135,75.69191,790.491333,73.046234,792.279785C68.62159,795.270874,68.027512,796.044739,67.462784,799.553101C67.07106,801.986633,66.646751,803.109375,65.574554,804.549316C64.699974,805.723938,64.071274,807.035156,63.689957,808.479919C63.366417,809.70575,63.379959,809.794189,63.983688,810.397949C64.735588,811.14978,65.970177,811.231506,66.551414,810.567871M130.82692,722.230164C131.544189,721.581055,131.412811,720.496765,130.381317,718.552429C129.27356,716.464355,129.148849,714.5354,129.970428,712.197815C130.651413,710.260376,133.082047,706.903625,135.540039,704.506104L137.52417,702.570862L137.656448,696.792908C137.788193,691.037964,137.791519,691.011292,138.491547,690.094116C138.878098,689.587646,139.914337,688.789551,140.794312,688.320557C142.358459,687.486877,143.476547,686.420776,143.476547,685.763123C143.476547,685.179016,142.639603,684.718262,141.626816,684.744873C139.634033,684.797119,135.567429,687.519348,135.02446,689.164612C134.85289,689.684448,134.750824,691.916077,134.773605,694.64978C134.825073,700.830933,134.785751,700.935059,130.587784,705.73114C129.246323,707.263733,127.817757,709.112915,127.4132,709.840454C126.706596,711.111084,126.679192,711.298584,126.717537,714.602356C126.77433,719.495483,127.127769,721.583618,128.031342,722.364868C128.834793,723.059509,129.970978,723.004761,130.82692,722.230164M70.220924,741.482849C71.007591,741.207642,72.715195,740.467773,74.015587,739.838806C77.40535,738.199158,78.995544,738.123596,81.75856,739.470947C83.696091,740.41571,83.870628,740.452271,85.655586,740.287354C86.683342,740.192383,89.086563,740.015747,90.996094,739.894775C92.905617,739.773804,94.631805,739.578003,94.832069,739.459595C95.666122,738.966553,98.405128,736.846924,98.83374,736.362854C99.447723,735.669434,99.420013,734.699219,98.767601,734.046753C97.926582,733.20575,97.036591,733.384521,95.647804,734.67334C93.736282,736.447266,92.959663,736.739441,89.515358,736.980042C86.228828,737.209656,83.937584,736.997559,80.910477,736.183655C75.979843,734.85791,75.542397,734.886841,73.416557,736.679382C70.726166,738.947937,68.930534,739.09082,64.565407,737.383789C61.092613,736.025757,59.075867,735.512634,58.13707,735.74823C56.952621,736.045532,56.450272,738.181274,57.307343,739.275818C57.4916,739.511169,58.325851,739.596191,60.113052,739.56189C62.859947,739.509155,63.326736,739.652954,65.302025,741.160767C66.584122,742.139465,68.066742,742.236511,70.220924,741.482849M166.767685,804.010498C167.969406,802.922974,167.067062,801.410156,164.414673,800.065674C163.447632,799.575439,161.794586,798.394409,160.741241,797.441101C159.687881,796.487793,158.199799,795.240112,157.434372,794.668579C153.85495,791.995911,153.369919,790.93335,152.857269,784.641602C152.646851,782.059143,152.473923,779.249878,152.472977,778.398865C152.472015,777.547852,152.287933,776.46521,152.063873,775.993042C151.577728,774.968628,143.76355,769.09552,142.144455,768.53772C140.76416,768.062134,139.88176,768.398376,139.641693,769.491333C139.35437,770.7995,140.019272,771.470459,143.03244,772.912964C144.602097,773.664429,146.318344,774.724182,147.091537,775.419312C149.089951,777.216064,149.484985,778.369934,149.827789,783.411865C150.205673,788.969177,150.699905,791.984619,151.4599,793.369751C151.939377,794.243591,152.744263,794.941711,155.046387,796.480591C158.55127,798.823364,159.834106,800.010071,161.233063,802.203491C161.843048,803.159912,162.619034,804.005066,163.123489,804.262451C164.177597,804.800354,166.036987,804.671814,166.767685,804.010498M108.07476,683.980713C108.648888,683.362305,109.91465,682.049377,110.88755,681.063049L112.656471,679.269775L112.808907,669.951965C112.92289,662.983643,112.880714,660.427979,112.641624,659.816589C112.274101,658.876648,109.630348,656.901489,106.968651,655.578125C105.957611,655.0755,103.964584,654.445557,102.131683,654.049316C98.736946,653.31543,97.525833,652.846802,96.719963,651.9552C96.091576,651.26001,95.593002,649.866272,95.593002,648.80481C95.593002,646.952515,94.099266,646.363098,92.771065,647.691284C92.204819,648.257568,92.112717,648.545288,92.226425,649.393005C92.382393,650.555908,93.544472,653.231934,94.216476,653.975708C95.003571,654.846863,97.08532,655.724976,100.556206,656.649902C105.295097,657.91272,106.887543,658.564392,108.207069,659.78064C110.025108,661.456482,110.210594,662.457397,110.096687,669.978027C110.00811,675.827759,109.961845,676.329956,109.398232,677.562073C108.644218,679.210388,108.014915,679.892944,106.175003,681.058105C104.453201,682.148499,104.058601,682.600342,104.058601,683.481323C104.058601,684.49585,104.780464,685.105042,105.982582,685.105042C106.875786,685.105042,107.185349,684.93866,108.07476,683.980713M64.663895,754.292114C65.16037,754.046021,66.697525,752.683533,68.079803,751.264282C71.327797,747.929565,72.319885,747.434998,78.174904,746.231934C80.655128,745.72229,81.80426,744.077148,80.502747,742.899292C79.541496,742.029419,77.802971,742.251709,74.819145,743.626099C73.36779,744.294556,71.70414,744.979553,71.122124,745.148254C68.077477,746.030701,67.864304,746.172058,66.78167,748.025757C65.034256,751.017761,63.969223,751.630615,60.540131,751.617188C57.802521,751.606567,56.494957,751.242676,55.242584,750.143066C53.954849,749.012451,53.694153,747.952942,53.910179,744.728027C54.072754,742.300964,54.025787,741.786499,53.489571,740.121582L52.885948,738.247437L53.383476,736.477783C54.083015,733.989624,54.025246,733.384521,52.985756,732.312012C51.964058,731.257935,51.092728,731.147522,50.494904,731.996521C50.134293,732.508667,50.098557,733.256592,50.239037,737.353638C50.328835,739.972656,50.568504,743.067932,50.771637,744.231934C50.974762,745.395996,51.250725,747.762573,51.38488,749.49115C51.698006,753.525818,51.880135,753.75946,54.651184,753.681824C56.074699,753.641907,57.119713,753.799072,58.688278,754.288818C61.086304,755.037537,63.157898,755.038696,64.663895,754.292114M95.177277,675.430054C96.353745,674.253601,94.915588,672.986572,91.011131,671.759644C87.632828,670.698059,83.489349,668.391113,81.195305,666.294495C79.580933,664.819031,78.06868,662.123474,76.98082,658.782288C75.667,654.747131,75.407654,652.999695,75.371056,647.93573L75.336639,643.173828L74.353722,641.262451C72.686264,638.019897,73.184418,636.297241,76.09343,635.246277C77.663338,634.679138,78.339119,633.784424,77.909576,632.841675C77.360512,631.636597,76.57811,631.523499,74.221298,632.30835C71.859329,633.094971,71.434502,633.448303,71.017624,634.972778C70.568573,636.614929,70.663017,638.039795,71.497849,642.217712C71.965851,644.559814,72.324669,647.340759,72.408096,649.272278C72.688812,655.772217,74.871239,663.369629,77.419754,666.718811C79.030602,668.835693,79.89138,669.572388,81.924103,670.57373C83.063614,671.135071,84.567261,672.004761,85.265556,672.50647C87.05246,673.790222,87.998268,674.24939,90.566551,675.080139C93.156708,675.917908,94.581306,676.026001,95.177277,675.430054M179.859955,785.511169C180.471817,785.152588,181.627716,784.614014,182.428604,784.314392C183.244858,784.008972,184.550385,783.187134,185.399475,782.444092C186.232529,781.715088,187.662445,780.779358,188.577042,780.364624C189.896927,779.766174,190.463852,779.307556,191.325439,778.141235C192.610168,776.402161,193.67775,775.558716,195.412247,774.912354C196.876709,774.366638,197.119553,774.144897,200.925262,769.878845C204.649628,765.703979,205.846863,764.183838,208.820206,759.854797C210.471024,757.451294,211.902985,755.701416,213.054367,754.680603C215.824844,752.224426,217.378418,748.56073,215.969284,747.80658C214.747177,747.152588,213.14917,748.480713,210.641449,752.23468C209.888199,753.362305,208.711914,755.058655,208.027466,756.004395C207.343018,756.950195,206.437866,758.376343,206.015991,759.173645C205.117065,760.872559,197.408081,769.03302,194.389893,771.480591C193.31337,772.353638,191.685287,773.739197,190.771988,774.559692C189.858673,775.380249,187.346664,777.312317,185.189758,778.853271C182.100327,781.060425,180.888199,781.768127,179.478027,782.18811C178.493515,782.481323,177.504501,782.930176,177.280212,783.185547C176.591278,783.970032,176.463821,784.808899,176.926285,785.514709C177.476791,786.354858,178.422226,786.35376,179.859955,785.511169M95.582703,717.859314C96.264313,717.127686,96.271645,715.964966,95.601479,714.880615C94.909935,713.761658,91.545792,711.380493,88.523613,709.870789C86.010155,708.615234,85.275551,707.847107,85.275551,706.474487C85.275551,706.136536,85.56884,704.703857,85.927307,703.290771C86.302055,701.813477,86.717926,699.033752,86.9058,696.750488C87.287056,692.117004,87.291756,692.130249,84.602783,690.245056C82.822975,688.997253,82.20903,687.985107,81.790421,685.608643C81.509232,684.012268,81.378128,683.797852,79.350021,681.617065C78.171234,680.349548,76.721443,678.770569,76.128265,678.108215C74.89769,676.734192,73.771873,676.50293,72.841705,677.433105C71.730286,678.544495,72.341507,679.958435,74.378662,680.988525C74.860245,681.232056,75.716248,681.848633,76.280884,682.358765C77.276222,683.257996,77.542885,683.834717,78.376366,686.890686C78.600868,687.713806,79.214867,688.564087,80.668823,690.065247C84.659004,694.185059,84.843369,695.755371,82.471718,705.421387C81.460564,709.54248,81.856903,710.286377,85.892822,711.842407C87.0811,712.300537,88.50135,712.90387,89.048935,713.183105C90.021233,713.678894,91.624756,715.553101,91.624756,716.193665C91.624756,716.370483,91.879288,716.838684,92.190392,717.234192C93.19809,718.51532,94.711716,718.79425,95.582703,717.859314M86.333755,803.759155C86.988518,803.525024,88.059937,803.217407,88.714699,803.075439C91.394096,802.494629,91.755714,802.111572,92.943977,798.595215C93.418098,797.192078,93.564339,795.932312,93.74218,791.718689C94.047821,784.477173,94.445824,783.492798,98.589012,779.731323C101.616508,776.982788,102.206749,775.807068,102.206749,772.525269C102.206749,769.225769,101.718483,763.453308,101.386986,762.833923C100.975822,762.065674,99.907715,761.75647,98.859734,762.102295C97.178452,762.657227,97.001007,764.149048,98.362206,766.285278C99.460304,768.008606,99.74482,769.812439,99.311249,772.302185C98.847221,774.966858,98.207954,775.973267,94.959892,779.152527C92.700806,781.363831,91.911438,782.316711,91.67263,783.120789C91.499771,783.70282,91.235764,785.905212,91.085945,788.014954C90.936134,790.124756,90.711807,793.049744,90.587448,794.514954C90.217613,798.872437,89.234413,800.11554,85.672287,800.729492C84.653816,800.905029,83.522911,801.159729,83.159149,801.295471C82.180321,801.660706,81.307304,802.577576,81.307304,803.240356C81.307304,804.685547,83.197266,804.880615,86.333755,803.759155M70.969559,733.890991C71.417229,733.514282,71.783501,732.994812,71.783501,732.736572C71.783501,731.927246,70.509544,730.909302,69.313042,730.762573C65.162842,730.253845,63.49942,729.960632,61.538101,729.392273C58.75029,728.584412,57.490471,727.945557,56.02964,726.598999C53.715149,724.465576,53.196373,721.924255,54.495903,719.085754C54.976151,718.036743,55.264824,716.825317,55.410332,715.248413C55.538025,713.864563,55.992455,711.795837,56.547951,710.069519C57.616653,706.748352,58.021484,704.51239,58.026375,701.903931C58.030907,699.490112,58.338966,698.458862,59.617912,696.576111C60.756409,694.900146,60.91053,694.004822,60.272842,692.771667C59.746414,691.753662,58.985954,691.347107,58.297516,691.715515C57.634361,692.070435,57.303284,692.695129,56.703178,694.723816C56.438866,695.61731,55.859108,697.357544,55.41481,698.590942C54.647659,700.720642,54.615044,700.973877,54.766602,703.622803C54.925461,706.399414,54.921867,706.421875,53.974991,708.5755C52.885689,711.05304,50.852226,719.999634,50.819206,722.460083C50.793427,724.380798,52.043106,727.084473,53.455566,728.163757C53.976906,728.562134,55.089516,729.504639,55.928017,730.25824C57.430984,731.60907,58.725739,732.190491,60.237389,732.19342C61.288437,732.195496,63.616203,732.835999,65.963402,733.768982C68.497604,734.776306,69.877441,734.809937,70.969559,733.890991M160.746918,735.011047C161.215134,734.813904,162.128021,734.20813,162.775558,733.664917C164.3918,732.309082,166.888153,731.099121,170.759842,729.795044C172.55957,729.188904,174.389206,728.513489,174.825714,728.294128C175.895569,727.756592,180.187592,723.396179,180.527893,722.501099C180.886856,721.556946,179.215851,712.213684,178.050674,708.649963C177.337662,706.469177,177.225128,705.734314,177.199829,703.094421C177.171173,700.104736,177.147675,699.992554,175.841583,696.612915C175.11058,694.721436,174.304764,692.606934,174.050827,691.914185C173.35907,690.026672,172.126221,689.58313,170.975723,690.807739C170.205582,691.627563,170.12262,693.175232,170.798141,694.120544C171.049911,694.472839,171.668854,695.334717,172.173584,696.035828C173.310013,697.61438,173.505356,698.299194,174.184845,703.086792C174.483688,705.192383,174.902344,707.666016,175.115158,708.583679C175.327988,709.501404,175.608154,711.350098,175.737747,712.691833C175.901138,714.383545,176.187317,715.59491,176.67128,716.64325C177.055115,717.474792,177.437439,718.575745,177.520874,719.089844C177.866348,721.21875,176.376877,723.824219,174.027084,725.201233C173.394012,725.572266,171.451508,726.336914,169.710403,726.900513C166.216187,728.031494,158.447205,731.938477,157.988693,732.795227C157.553528,733.608337,157.95253,734.568848,158.895798,734.979004C159.947937,735.436462,159.745041,735.432922,160.746918,735.011047M75.692886,673.052979C76.774338,672.295532,76.463882,671.41748,74.211418,668.862915C71.73912,666.059082,69.313049,657.624329,68.493614,648.983704C68.272293,646.650024,67.882217,643.792908,67.626778,642.634521C67.282425,641.072937,67.179581,639.587769,67.229042,636.890808C67.338135,630.941895,67.331818,630.045471,67.165085,627.829956C67.016548,625.856201,67.055389,625.62439,67.741219,624.390808C68.286003,623.410889,68.922356,622.77948,70.196205,621.954712C72.930954,620.184082,73.197021,619.934814,73.003433,619.32489C72.660332,618.243835,70.57106,617.829651,69.155029,618.56189C68.079369,619.118164,65.463997,622.066162,64.805298,623.464844C64.294464,624.549622,64.236038,625.207458,64.147423,630.872253C64.040886,637.682922,64.256844,640.681396,65.471657,649.258484C66.503601,656.544556,67.845329,662.564087,68.881004,664.554321C69.321533,665.400879,69.859955,666.939636,70.077492,667.973755C70.295021,669.007874,70.616135,670.041382,70.791069,670.270508C71.928337,671.759888,72.749107,672.597839,73.466476,673.001831C74.478905,673.572083,74.936783,673.582581,75.692886,673.052979M65.463776,761.300842C68.376884,760.390259,69.568306,759.608398,72.312599,756.80658C74.689575,754.379761,76.216408,753.571045,79.810028,752.835632C83.376076,752.105835,83.947525,751.780396,85.661453,749.503235C87.356117,747.251648,88.712791,746.392151,90.584633,746.384094C92.355652,746.376465,93.692955,747.173889,94.888779,748.950684C95.447227,749.780518,96.221039,750.620605,96.608353,750.817688C97.005409,751.019653,98.734169,751.258789,100.571762,751.365845C103.468033,751.534546,103.887802,751.504211,104.341599,751.093567C105.013191,750.485779,104.991669,749.265564,104.297127,748.570984C103.785789,748.059692,103.559288,748.030334,101.425606,748.199219C98.351753,748.442505,97.434669,748.007629,95.917053,745.587219C94.560623,743.423828,94.058792,743.252075,90.104492,743.598083C86.014389,743.955994,85.265671,744.289246,84.243584,746.206909C83.384087,747.819458,82.229393,748.989624,81.057663,749.435486C80.685707,749.577026,79.202721,749.929199,77.762138,750.218079C76.321556,750.506958,74.6549,750.987915,74.058441,751.286926C73.461983,751.585876,71.714172,753.065063,70.174416,754.574097C66.578186,758.098389,65.717644,758.519531,62.127426,758.512268C60.114265,758.508179,59.015182,758.360718,57.529205,757.895508C55.153809,757.151733,53.349457,757.030884,52.994881,757.591736C52.569122,758.265137,52.707909,759.324036,53.345184,760.264221C54.009216,761.243896,54.378098,761.306641,57.10585,760.903381C58.221138,760.738525,58.686569,760.815918,60.0159,761.387207C62.039925,762.257141,62.423927,762.251038,65.463776,761.300842M170.279617,760.464233C170.597443,760.298096,171.356384,759.706848,171.966171,759.150452C173.209229,758.016174,174.035583,757.720642,175.292068,757.96106C178.094208,758.497314,178.320038,758.484436,178.794205,757.760742C179.445679,756.766479,179.7659,755.101685,179.460297,754.297852C179.236755,753.7099,179.047882,753.623474,177.98671,753.623474C177.007843,753.623474,176.19072,753.93158,173.813492,755.197205C169.373199,757.561157,166.657333,758.082764,163.564224,757.16571C161.581085,756.577759,160.322388,755.90625,158.139832,754.271851C157.080994,753.479004,154.028595,751.777161,151.108276,750.351501C146.690628,748.194946,145.711258,747.604431,144.304565,746.249207C143.400818,745.378479,142.338837,744.602295,141.944611,744.524292C141.360901,744.408813,138.077515,744.447388,135.707855,744.597473C135.436386,744.614746,134.421478,745.432373,133.452484,746.41449C132.48349,747.396606,131.135788,748.518311,130.457565,748.907104C129.469772,749.473328,129.159592,749.830444,128.898422,750.702148C128.605789,751.678833,128.627106,751.863892,129.106323,752.508484C129.489899,753.024414,129.919464,753.250183,130.631973,753.310303C131.894028,753.416748,132.382751,752.980896,133.601242,750.662109C134.634979,748.694885,135.448288,748.032593,137.44783,747.529907C139.233871,747.080933,140.856277,747.534302,142.821869,749.031738C145.370682,750.973511,146.897858,751.876953,149.428925,752.940125C152.371277,754.176086,153.608398,754.874084,156.30722,756.821045C159.289154,758.972229,161.306,759.860474,164.058685,760.234924C165.324478,760.407104,166.538681,760.583313,166.756943,760.626465C167.77507,760.82782,169.758881,760.73645,170.279617,760.464233M162.002304,742.333374C162.362076,742.089417,163.100632,741.49646,163.64357,741.015747C164.747269,740.038452,168.01561,738.332947,172.577042,736.354004C175.425476,735.118164,175.792618,735.026001,178.337906,734.906982C180.660614,734.798401,181.095581,734.706726,181.325378,734.277344C182.022385,732.974976,180.543137,730.607605,179.032349,730.607605C178.676529,730.607605,177.465424,731.066345,176.341003,731.627014C175.216599,732.187683,173.10614,733.034973,171.651123,733.509888C168.402283,734.570313,166.946213,735.289734,164.328293,737.12793C162.236496,738.59668,160.58371,739.337769,159.399811,739.337769C158.044754,739.337769,156.470139,738.295654,155.364014,736.66687C154.782623,735.810669,153.978271,734.940247,153.576584,734.732544C152.67926,734.268494,149.321976,733.782227,147.015686,733.782227C145.016891,733.782227,144.125412,734.166199,142.393799,735.772827C140.820221,737.23291,139.630127,737.835632,138.317825,737.837158C136.770996,737.838989,135.406372,737.07373,134.321915,735.596375C133.021988,733.825562,132.208481,733.457031,129.512833,733.417725C127.480095,733.388123,127.251289,733.437805,126.787315,734.009949C126.143867,734.803345,126.15081,735.132935,126.829094,735.995239C127.310036,736.606628,127.567955,736.692261,128.928284,736.692261C131.135468,736.692261,131.761261,737.002686,133.602722,739.010803L135.236862,740.792786L138.337326,740.71521C140.042572,740.672485,141.688171,740.508545,141.994202,740.350769C142.300232,740.193054,143.079498,739.468262,143.725906,738.740173C145.138809,737.148682,146.134811,736.690369,148.163818,736.69812C150.115112,736.705505,151.375076,737.28595,153.417175,739.118164C155.441925,740.934875,156.621933,741.664673,158.512604,742.269287C160.408264,742.875549,161.181839,742.889771,162.002304,742.333374M175.957321,793.158691C176.417465,792.836426,176.545288,792.486877,176.545288,791.551025C176.545288,789.770874,175.652039,788.99231,172.957108,788.423584C170.289017,787.860596,169.116989,787.361328,168.077545,786.345093C166.285751,784.593262,166.155823,783.744263,166.609665,776.752808L166.834137,773.294922L166.068024,772.484375C165.035294,771.391724,162.28685,770.372559,159.007309,769.866211C155.708679,769.356934,154.248978,768.723633,151.677597,766.686279C148.51506,764.180542,148.240112,764.022339,142.476471,761.391235C139.4617,760.015076,136.272476,758.418579,135.389328,757.843567C133.167068,756.396667,131.359406,756.459717,130.772018,758.004639C130.19548,759.521057,131.657394,760.876221,134.19986,761.182129C136.098145,761.410522,137.184021,761.866516,138.833588,763.127808C139.763077,763.838562,140.813736,764.323914,142.286072,764.722839C144.713867,765.380554,145.407639,765.793579,150.758713,769.766235L154.671387,772.671082L157.367813,772.671082C160.269089,772.671082,161.505371,772.95166,162.483154,773.832031C163.6604,774.89209,163.925781,775.761353,163.738586,777.944092C163.24527,783.696289,163.241669,784.30011,163.693649,785.483643C164.318451,787.11969,166.262711,788.820435,169.173431,790.2771C170.536163,790.959045,172.186844,791.903076,172.841599,792.375C174.643951,793.67395,175.069061,793.780884,175.957321,793.158691M100.530365,729.952393C101.949951,728.95813,101.380981,726.836121,99.386887,725.687866C98.682526,725.282288,97.427231,724.329956,96.597343,723.571533C95.467918,722.539429,94.802612,722.143555,93.951843,721.997375C91.996353,721.661316,90.752876,721.81073,89.111526,722.578979C87.877708,723.156433,87.141296,723.321045,85.804649,723.318115C83.561531,723.313293,82.439072,722.791931,77.582344,719.498901C75.460876,718.060547,73.412178,716.805115,73.029694,716.709106C72.647202,716.613098,71.496361,716.684265,70.47226,716.86731C68.393188,717.238892,66.418907,716.956116,64.579964,716.023438C62.562172,715.000122,62.35379,713.389832,63.677116,709.046814C64.762589,705.484375,65.838264,699.717651,65.596771,698.755493C65.360092,697.812439,64.323601,697.335999,63.485077,697.784729C62.439636,698.344238,61.989357,699.732666,61.730217,703.195801C61.579666,705.207764,61.226799,707.337097,60.782539,708.914551C59.441498,713.676086,59.349655,714.059021,59.349655,714.888855C59.349655,716.186829,60.124557,716.884583,63.222778,718.376404L66.09568,719.759766L69.197845,719.870422C72.938866,720.003845,74.099655,720.448059,77.238914,722.947327C79.424759,724.687622,80.823898,725.429504,83.025513,726.015869C84.97982,726.536377,86.506897,726.454773,88.998764,725.696594C91.721367,724.868225,93.741966,724.904419,95.005539,725.804138C95.463669,726.130371,96.220131,727.113281,96.686562,727.988403C97.83625,730.145447,99.23465,730.859985,100.530365,729.952393M87.701813,719.058716C88.989433,717.893433,87.902489,716.634583,84.565399,715.426208C81.833336,714.436951,79.574753,713.012878,78.719994,711.740601C77.660995,710.164246,77.697578,708.745789,78.918304,704.052002C80.687927,697.24762,80.65229,695.879578,78.642021,693.446899C76.563583,690.931702,75.56675,690.536621,73.337929,691.34491C72.701248,691.575806,71.457329,691.769226,70.573662,691.77478C66.813698,691.798462,64.387718,689.442139,64.387718,685.766418C64.387718,683.785461,64.990738,682.400757,66.726112,680.396851C69.295883,677.429443,70.078201,674.879517,68.827339,673.548035C68.510971,673.211243,68.055534,672.93573,67.815254,672.93573C67.183739,672.93573,66.347313,673.929626,65.700211,675.448975C65.390358,676.176453,64.605156,677.680786,63.955322,678.79187C62.586357,681.132507,61.302673,684.479736,61.053444,686.358521C60.853096,687.868835,61.210701,688.756897,62.51947,689.999207C62.979324,690.435669,63.711243,691.459351,64.145943,692.274048C64.688217,693.290283,65.254135,693.933838,65.948837,694.32428C67.138084,694.992676,67.952049,695.027893,69.931648,694.496521C72.947739,693.687012,75.467194,694.14679,76.617088,695.716614C77.465347,696.874634,77.284317,699.574219,76.12767,703.015076C75.286133,705.518494,75.150917,706.281616,75.035461,709.179077C74.913811,712.231689,74.945663,712.539001,75.449669,713.175903C76.007309,713.880615,83.124222,718.760376,84.254562,719.213013C85.288864,719.627197,87.166466,719.543152,87.701813,719.058716M158.857895,679.000366C159.15036,678.843811,159.743881,677.926208,160.176849,676.961243C160.62439,675.963745,161.52887,674.609558,162.273178,673.82251L163.582352,672.438293L163.582352,670.591797C163.582352,669.409424,163.962662,667.030212,164.639755,663.97699C165.221313,661.354431,165.87941,657.862793,166.102173,656.217712C166.324936,654.572693,166.623611,652.631531,166.765869,651.903992C167.319077,649.075012,167.597885,646.120605,167.851807,640.396057C167.99704,637.122253,168.178223,633.218384,168.254456,631.720703C168.418854,628.490906,168.026215,625.180298,167.312958,623.782166C166.658936,622.500183,163.350021,619.363892,162.399887,619.125427C161.482849,618.895264,159.954208,619.390198,159.613007,620.027771C159.207886,620.784729,159.543854,621.267273,161.162582,622.253357C164.202637,624.105225,165.418732,626.072571,165.428375,629.154419C165.43158,630.17395,165.310715,631.42395,165.15979,631.93219C165.008865,632.440491,164.847885,636.189697,164.802048,640.263794L164.718689,647.671204L163.884399,650.216675C163.147415,652.465271,163.0522,653.097717,163.06778,655.639893C163.082153,657.981689,162.95961,658.948425,162.409912,660.829895C162.038345,662.101563,161.451401,664.787415,161.10553,666.798462C160.35939,671.136963,159.91214,672.242615,157.98082,674.52301C157.179825,675.468811,156.386307,676.502625,156.217438,676.820435C155.820297,677.567871,155.825134,678.564758,156.227859,678.967468C156.622406,679.362,158.146484,679.381042,158.857895,679.000366M130.645874,729.631104L133.026825,729.464111L135.174271,727.259521C136.690079,725.703369,137.77948,724.840515,138.877975,724.325989C140.41803,723.604614,140.496185,723.596497,146.386597,723.542725C153.348419,723.479126,153.452484,723.454407,157.263931,720.957153C160.505508,718.833191,161.454575,718.344482,163.458023,717.767578C165.765823,717.102966,170.78302,714.805725,171.320435,714.167542C171.624176,713.806885,171.783401,713.169983,171.783401,712.315796C171.783401,710.397888,169.721924,699.168518,169.21109,698.303772C168.969864,697.895386,168.430466,697.419617,168.012421,697.24646C167.360077,696.976257,167.151627,697.00647,166.541687,697.459839C165.510513,698.226196,165.540756,699.049927,166.706726,701.956116C168.048279,705.299927,168.608795,707.597351,168.608795,709.752075C168.608795,712.788879,167.203934,714.097839,163.505585,714.506836C160.645844,714.82312,160.752518,714.77832,158.51796,716.599609C157.451492,717.468811,155.565414,718.68457,154.326675,719.301208L152.074417,720.422424L145.836807,720.441711L139.599197,720.460999L137.412689,721.487061C135.471954,722.397827,135.094833,722.697205,134.05777,724.150513C132.454483,726.397339,131.659485,726.744385,128.65947,726.506897C126.514931,726.337158,126.289406,726.366211,125.777733,726.877869C124.403633,728.251953,125.435585,730.299255,127.332878,729.963196C127.845512,729.872375,129.336349,729.722961,130.645874,729.631104M57.47921,782.525574C60.10965,780.980469,60.843079,779.717896,61.590096,775.448853C62.048607,772.828491,61.646042,771.890076,60.059776,771.88147C58.215134,771.87146,57.646652,772.804016,58.03096,775.209717C58.49865,778.137329,57.568932,779.751648,55.265663,780.01123C52.172707,780.359863,50.250397,779.058472,39.791069,769.534973C36.461693,766.503479,34.019501,764.537415,30.968908,762.4328C29.940802,761.723511,29.546221,761.179016,28.538187,759.078735C27.847082,757.638794,26.795218,755.972107,26.067286,755.163574C25.370153,754.389282,23.332983,752.05011,21.540236,749.965454C18.028845,745.882324,15.183714,743.30603,14.185854,743.30603C12.60301,743.30603,12.970636,746.419678,14.806746,748.564758C15.337179,749.184448,16.398939,750.045776,17.166216,750.47876C17.933493,750.911804,19.107306,751.746765,19.774691,752.334229C21.624136,753.962158,24.914236,758.499756,26.184706,761.174683C27.449709,763.838135,27.922342,764.372437,29.878683,765.351074C30.701944,765.762878,31.76676,766.648071,32.61055,767.62207C33.371063,768.499939,34.717461,769.658081,35.602547,770.19574C36.48764,770.733398,38.194046,772.029724,39.394554,773.076477C40.595078,774.123169,42.272522,775.52832,43.122215,776.198975C43.971924,776.869629,45.355965,778.191956,46.197884,779.137573C47.543884,780.649292,47.935097,780.920532,49.439278,781.385132C50.380142,781.675781,51.83416,782.27417,52.670425,782.715027C54.651749,783.759399,55.430908,783.728699,57.47921,782.525574M107.743736,727.528809C108.511711,726.55249,109.30407,723.821106,109.614632,721.07959C109.902885,718.534973,109.637901,714.05426,108.975426,710.271179C108.522392,707.684143,108.403847,707.526978,104.907867,704.880127C103.55619,703.85675,101.984573,702.490356,101.415398,701.84375C99.960999,700.191467,99.854706,699.168091,100.611038,694.099731C101.577385,687.623901,101.583237,687.283752,100.758041,685.539429C100.358437,684.694702,99.638611,683.717285,99.118248,683.312805C98.608101,682.91626,97.428436,681.975525,96.496758,681.22229C95.18103,680.158508,94.462769,679.782532,93.279915,679.538208C90.783478,679.022644,86.961494,678.010498,86.010063,677.612976C85.521263,677.408691,84.456642,676.700195,83.644226,676.038513C81.749275,674.495056,80.609612,673.912476,79.855392,674.101807C79.070526,674.298767,78.892242,675.05835,79.389763,676.085632C79.867836,677.072754,83.572639,680.476196,84.590195,680.863098C84.986084,681.013611,86.192383,681.13678,87.270859,681.13678C91.544769,681.13678,97.074623,684.379944,97.98571,687.420898C98.342957,688.613281,98.286407,689.550415,97.445305,696.376404C96.822937,701.427124,96.822868,701.431458,97.344154,702.328735C97.638275,702.835022,98.783684,703.855164,99.970146,704.667603C101.127525,705.460083,102.855301,706.888672,103.809639,707.842163C105.970863,710.001587,106.338409,711.067688,106.701729,716.231201C107.037865,721.00824,106.910126,721.703613,105.246056,724.155762C103.984329,726.015015,104.622292,728.226685,106.420357,728.226685C106.942131,728.226685,107.373894,727.999023,107.743736,727.528809M124.709099,684.82489C125.616554,683.917419,125.315361,682.77594,123.899849,681.757935C121.524773,680.049805,120.626595,679.125427,119.954826,677.697632C119.278603,676.260376,119.270668,676.170776,119.305656,670.37439C119.32711,666.817932,119.467308,663.979919,119.661552,663.170288C120.365623,660.235413,122.24659,658.858887,127.471275,657.454956C131.898621,656.26532,132.551193,655.586975,132.935547,651.775085C133.06044,650.536499,133.411224,648.77417,133.715088,647.858887C134.187546,646.43573,134.216034,646.120422,133.911743,645.681885C133.389404,644.929138,127.98745,641.635803,126.146767,640.947937C122.801781,639.697937,121.481697,638.68988,120.400932,636.56012C119.900459,635.573853,118.216713,629.479187,117.810356,627.182983C117.497124,625.412964,116.668388,623.464844,116.22863,623.464844C115.66172,623.464844,115.166328,624.813599,114.774101,627.424988C114.546196,628.942322,114.297264,630.432678,114.22094,630.736816C113.989281,631.65979,114.541267,632.619934,115.839561,633.552246C117.336266,634.627136,117.754204,635.380676,117.971977,637.397095C118.289238,640.334778,120.608498,642.672241,123.961678,643.433777C127.560661,644.251221,129.331451,645.365234,130.276596,647.406616C130.546051,647.988647,130.767975,648.881531,130.769745,649.390747C130.7742,650.668152,129.711761,652.831421,128.633408,653.740601C127.442207,654.744934,126.533562,655.096558,124.205147,655.454163C121.802376,655.823181,121.34713,656.07019,118.893623,658.335815L116.92971,660.149353L116.698448,663.830933C116.571251,665.855774,116.502632,670.176636,116.545967,673.432861L116.624733,679.353271L118.098976,680.708008C118.909813,681.453064,119.956337,682.626892,120.424583,683.316528C121.775551,685.306152,123.589302,685.944702,124.709099,684.82489M122.822762,725.062195C123.803749,724.53717,123.998375,723.401611,123.491814,721.158691C123.155556,719.6698,123.019478,717.85437,123.000359,714.602356C122.974937,710.27832,123.000465,710.04895,123.662956,708.649963C124.052223,707.827942,125.518761,705.871399,127.033928,704.152588C130.957993,699.701233,130.908035,699.838928,130.921814,693.438354C130.929184,690.029053,131.042587,687.893555,131.240707,687.433655C132.245529,685.101379,136.89212,681.930542,140.485016,681.125366C141.25412,680.953003,142.21431,680.956238,143.333054,681.13501C145.375488,681.461243,145.945511,681.281494,147.804825,679.724609C148.552567,679.09845,149.735367,678.237427,150.433273,677.811218C151.305161,677.278687,152.037399,676.508301,152.773605,675.348877C153.362885,674.420837,154.37822,672.937256,155.029892,672.052002C156.6082,669.90802,156.868942,669.211121,157.500397,665.44873C157.796127,663.686768,158.33316,661.311035,158.693802,660.169373C159.449371,657.777649,159.531433,656.224182,158.933823,655.626587C158.35405,655.046814,157.928787,655.104919,156.993896,655.891541C156.08548,656.655945,155.821198,657.47229,155.391037,660.842896C154.6194,666.889038,153.081955,670.518799,149.770447,674.112671C147.885559,676.158264,145.71225,677.514771,143.777985,677.852966C141.122101,678.317322,135.584991,679.628784,134.941208,679.945984C134.539108,680.144104,133.64624,680.791138,132.957077,681.383911C132.267929,681.976624,131.16835,682.852295,130.513596,683.329773C129.790543,683.857056,129.018982,684.76178,128.548508,685.634033C127.687096,687.231079,127.641426,687.80542,127.991096,692.644714C128.358841,697.734558,127.686913,699.338074,123.168846,704.152588C121.871696,705.534912,120.642418,706.96344,120.437126,707.327209C120.139687,707.854248,120.062431,709.573853,120.05674,715.792847C120.049812,723.384827,120.155373,724.693848,120.807945,725.108765C121.247154,725.388062,122.257545,725.364685,122.822762,725.062195M173.635239,810.383179C177.120682,809.753418,181.213211,808.347534,184.34642,806.703613C187.781738,804.901123,196.278305,799.293518,196.662918,798.57489C197.082138,797.791565,196.78334,796.89032,195.983612,796.52594C194.647003,795.916931,194.12738,796.128296,192.553238,797.921265C191.457169,799.169678,190.724792,799.747192,189.819229,800.077148C187.154617,801.048035,186.353485,801.494141,184.883331,802.8255C183.139038,804.405151,182.377304,804.776794,180.001083,805.207703C179.028351,805.384094,177.464432,805.959534,176.342926,806.553711C174.422226,807.571411,174.329483,807.591675,171.600677,807.591675C169.900116,807.591675,168.18512,807.756592,167.191956,808.015625C166.102768,808.299683,164.861465,808.403442,163.429642,808.330017C160.505234,808.180054,159.724197,807.669373,158.334854,804.998901C156.992584,802.418884,155.722031,801.157471,152.653961,799.358826C151.31868,798.57605,149.832382,797.590576,149.351074,797.168823C147.39563,795.455444,146.777054,793.021667,146.121017,784.460205C145.820602,780.539734,145.3983,779.100952,144.240005,778.051636C143.892838,777.737183,142.41835,776.863159,140.963318,776.109375C137.832596,774.487549,136.731323,773.695557,136.047607,772.57428C135.393097,771.500916,135.406097,770.302795,136.089478,768.714233C136.869995,766.899841,136.707047,766.042847,135.466278,765.436646C134.557831,764.992859,134.410202,764.985229,133.848618,765.353149C133.030243,765.889404,132.62999,767.565369,132.62999,770.455994C132.62999,774.215454,133.457703,775.337952,138.053268,777.810791C142.582642,780.248108,142.984879,780.968018,143.458984,787.48584C143.734283,791.27063,144.66925,796.008545,145.431686,797.482483C145.90361,798.394836,148.750351,801.122192,149.437607,801.320435C149.723846,801.403015,150.624802,801.6026,151.439789,801.763916C153.754745,802.222229,154.765778,803.466858,155.782349,807.109985C156.300369,808.966431,157.00499,809.889832,158.402817,810.544189C159.38678,811.004883,159.994461,811.040039,165.301926,810.943298C169.220337,810.871887,171.943207,810.688843,173.635239,810.383179M122.675377,861.539368C123.680626,860.748657,123.831139,860.355835,124.28051,857.350403C124.521034,855.74176,125.219124,853.069336,126.007545,850.739014C126.73539,848.587769,127.526573,845.669373,127.76577,844.253662C128.170441,841.858337,128.169754,841.374146,127.755913,837.279663C127.511314,834.859741,127.20179,830.791138,127.068077,828.238342C126.934364,825.685608,126.749199,823.33313,126.656639,823.01062C126.315712,821.82312,127.057014,819.86322,128.448532,818.273071C129.17923,817.438049,130.162598,815.91333,130.633759,814.884888C131.104919,813.856445,131.911179,812.514771,132.425446,811.903381C133.114349,811.084412,133.47229,810.29657,133.785355,808.910339C134.019043,807.875549,134.62851,806.280945,135.139694,805.366882C136.322906,803.251099,136.323364,802.445129,135.142197,800.898193C134.632385,800.23053,134.078506,799.350342,133.911377,798.9422C133.744263,798.534058,133.521393,796.116821,133.416153,793.570557C133.310913,791.024231,133.083679,788.58374,132.911179,788.147217C132.435486,786.943542,131.17276,785.762207,128.335175,783.866394C125.41227,781.913513,123.377541,779.848816,122.882805,778.333801C122.288429,776.513489,121.915413,769.195068,122.259911,766.112305C122.652168,762.602051,123.166191,761.474976,125.185402,759.697632C126.999535,758.100769,127.575371,756.9422,127.047493,755.951233C126.589302,755.091187,125.999565,754.699829,125.147163,754.690063C123.960289,754.676514,123.229958,755.36969,122.431892,757.267151C122.020226,758.245911,121.295128,759.761047,120.820564,760.634033C119.560585,762.951904,119.137947,764.89978,119.137947,768.388977C119.137947,772.001282,119.610954,778.766968,119.958717,780.128723C120.247734,781.260559,122.107933,783.037476,125.222603,785.156982C127.752113,786.878296,129.089249,788.137817,129.801254,789.469971C130.294434,790.3927,130.384933,791.104004,130.50824,795.025513L130.649628,799.522888L131.528763,800.882324C132.537048,802.441467,132.807114,803.835083,132.396454,805.360107C132.099075,806.464539,129.492798,811.012756,126.985649,814.802612C126.192238,816.001953,124.973732,818.232178,124.277855,819.758728L123.012611,822.53418L123.612572,824.785156C124.337547,827.505188,124.717522,832.41333,124.78019,839.86676C124.831032,845.914063,124.756187,846.332947,122.811562,850.88446C122.240883,852.220215,121.649513,853.986145,121.497444,854.808777C121.345375,855.631409,120.990364,857.026306,120.708549,857.908447C120.058739,859.942505,120.064781,860.527832,120.744453,861.391907C121.405876,862.232788,121.759483,862.259766,122.675377,861.539368M110.785728,861.673218C111.397194,861.061768,111.293785,859.713989,110.500465,857.9552C109.941536,856.716125,109.767281,855.833862,109.640678,853.602356C109.490456,850.954834,109.42794,850.716248,108.483925,849.187866C107.107666,846.959717,106.876877,845.466309,107.216743,840.988464C107.368477,838.989258,107.475868,835.805908,107.455376,833.914429C107.424797,831.091431,107.516457,830.167175,107.966896,828.755676C108.268715,827.809937,108.596504,825.900879,108.69529,824.513367C108.913857,821.443909,108.793068,821.111938,106.195633,817.644592C105.160164,816.262329,103.971046,814.417053,103.553139,813.544067C103.135239,812.671021,102.364777,811.063904,101.840996,809.972656C101.317215,808.881348,100.471474,807.264893,99.961571,806.380493C98.576958,803.978882,98.496994,802.755188,99.579521,800.533203L100.458366,798.729248L100.472763,793.835083C100.487091,788.970215,100.491837,788.931396,101.264229,787.353577C101.997192,785.856384,103.323608,784.393066,107.047157,780.973755C107.922417,780.170044,108.278252,779.615845,108.406105,778.8573C108.912346,775.853821,109.017662,773.020752,108.76577,769.1828C108.399284,763.598999,108.439537,763.393188,111.343422,756.004395C111.77166,754.914795,111.834435,753.137512,111.477806,752.199463C111.338799,751.833862,110.92144,751.335815,110.550316,751.092651C109.990669,750.725952,109.746513,750.703979,109.118858,750.963989C107.898262,751.469543,107.660347,752.220398,107.864388,754.923096C108.060432,757.520264,107.838585,758.420654,106.603523,760.039856C105.364807,761.66394,105.32621,762.023254,105.76017,767.891235C106.406502,776.630859,106.084396,777.764954,101.782791,781.894653C97.819244,785.699768,97.682442,786.046631,97.447021,792.887512L97.264198,798.200134L96.282982,800.708313C95.652817,802.319153,95.358093,803.440918,95.459198,803.843811C95.545792,804.188782,96.090897,805.099243,96.670555,805.866943C97.463623,806.917358,97.821434,807.727905,98.116219,809.141724C98.381767,810.415283,98.843048,811.539001,99.548004,812.6297C100.12001,813.514709,100.775208,814.802368,101.003983,815.49115C101.288155,816.346741,101.886238,817.2005,102.891792,818.186096C105.722931,820.960938,106.290184,822.883484,105.307968,826.374756C104.779427,828.253357,104.461975,833.739319,104.458328,841.057251L104.455429,846.877319L105.569237,850.448792C106.181839,852.413086,106.815018,855.091614,106.976295,856.401123C107.351143,859.44458,107.664238,860.460449,108.505089,861.36145C109.264732,862.175415,110.161018,862.297974,110.785728,861.673218M52.846764,804.483215C53.343765,803.792053,54.284126,802.747498,54.936455,802.161987C56.255928,800.977539,56.305122,800.837891,57.199303,795.73645C58.058037,790.837341,58.876503,789.584412,63.185631,786.572754C66.88237,783.989014,67.282738,783.381653,67.578201,779.909058C67.69136,778.579041,67.975876,777.031433,68.210457,776.469849C69.056877,774.443604,70.786949,773.201599,72.767075,773.19873C74.996796,773.195435,75.732956,772.763855,78.926353,769.58783C82.608063,765.926147,83.685181,765.322021,87.104141,765.001282C89.156593,764.808777,89.799065,764.622681,91.429489,763.748596C93.063515,762.872559,93.508232,762.471924,94.462013,761.016663C96.4067,758.049438,97.552696,757.546204,100.466896,758.379578C102.067482,758.83728,102.352211,758.852844,103.000053,758.517822C103.401489,758.310242,103.803886,757.947693,103.894264,757.712158C104.186516,756.950562,104.068916,755.813232,103.663109,755.47644C103.135757,755.038757,96.778603,754.829224,95.838753,755.218567C95.460632,755.375183,94.716255,756.07373,94.184563,756.770935C92.721291,758.689697,90.443291,760.733582,89.111237,761.322815C88.4561,761.61261,86.701881,762.081848,85.21299,762.36554C81.515274,763.070129,80.109886,763.813049,77.970345,766.194153C75.782677,768.628845,74.870804,769.233826,71.455284,770.516785C67.880753,771.859436,66.594711,772.533691,66.064255,773.343262C65.824463,773.709229,65.420456,775.289063,65.166458,776.854004C64.912453,778.418945,64.436447,780.322754,64.108681,781.084717C63.396141,782.741089,61.425804,784.638062,59.021378,785.982666C58.103134,786.496216,57.156685,787.133789,56.918152,787.399536C56.679634,787.665283,56.007866,789.013672,55.425354,790.395935C54.507141,792.574768,54.352737,793.230408,54.264801,795.323669C54.178139,797.386597,54.039856,797.989014,53.315086,799.461243C52.297836,801.527588,51.241173,802.201904,49.461433,801.920532C47.926315,801.677856,45.311783,800.050415,42.563972,797.627197C38.55896,794.095215,36.319771,792.257324,33.026924,789.799316C31.280893,788.495972,29.343538,786.938477,28.721685,786.338257C26.462595,784.157715,26.686304,782.204712,29.548018,779.124146C31.132486,777.418457,31.24552,777.349548,32.638878,777.23938C33.923363,777.137817,34.22551,777.218872,35.340225,777.964294C36.03054,778.425903,37.316757,779.596375,38.198502,780.565369C39.080238,781.534363,40.233078,782.654541,40.760361,783.054688C42.200157,784.147217,44.005753,783.962402,44.005753,782.722473C44.005753,782.045776,42.941597,780.78302,41.091248,779.264038C40.147926,778.489624,38.409195,777.046631,37.227394,776.057312C34.677811,773.922974,32.989296,773.07666,32.017532,773.446167C30.859888,773.886292,27.585863,776.921021,26.609533,778.458862C26.090197,779.276917,25.078882,780.592407,24.362162,781.382263C23.240599,782.618225,23.081083,782.928589,23.217272,783.609497C23.526281,785.154541,26.380579,788.310181,29.587774,790.652466C30.460791,791.2901,31.82984,792.404602,32.630096,793.12915C33.430359,793.853699,34.739891,794.929565,35.540154,795.519897C36.340416,796.110291,38.066605,797.609619,39.376122,798.851746C41.117203,800.503235,42.539139,801.548462,44.66713,802.741089C49.447014,805.419861,50.128761,805.739807,51.056168,805.739807C51.811104,805.739807,52.077637,805.552795,52.846764,804.483215"/>
</svg>
