<?xml version="1.0" encoding="UTF-8"?>
<svg xmlns="http://www.w3.org/2000/svg" width="224.741mm" height="258.201mm" viewBox="-776.241333 -708.363037 224.740784 258.201019">
    <path transform="matrix(-0.26455,0,0,-0.26455,-528.330994,-444.077362)" style="stroke:#000000;stroke-width:0.05mm;fill:none" d="M509.334534,996.12738C507.153473,994.547424,502.923462,990.416382,499.934509,986.947266C494.545776,980.692871,492.718719,978.879395,480.57132,967.727661C473.444946,961.185364,471.671814,957.661072,470.143066,947C469.551575,942.875,468.581818,937.474976,467.988098,935C467.394348,932.525024,466.52594,928.924988,466.058319,927C465.590668,925.075012,463.705078,918.099976,461.868103,911.5C458.791779,900.447205,458.542114,898.473877,458.705017,886.5C459.056427,860.674011,460.520142,829.468628,461.447876,828.02533C461.969177,827.214294,462.735199,824.289307,463.150116,821.52533C463.565033,818.761414,464.206696,815.47522,464.576019,814.222717C465.138947,812.31366,463.841187,810.525269,456.549622,803.161743C446.031647,792.5401,446.034454,792.544312,446.01532,787.317383C445.996521,782.187317,444.499786,781.499329,435.463867,782.46698C429.762573,783.077515,428.465179,782.837585,421.909332,779.960205C413.902069,776.445801,410.498322,776.385803,400,779.574097C396.975006,780.492737,391.575012,781.670105,388,782.19043C384.424988,782.710754,379.924988,783.586731,378,784.136963C371.727417,785.930054,336.59668,783.698181,329.676056,781.066956C328.132629,780.480103,325.092316,780,322.9198,780C320.747314,780,316.389099,779.351318,313.234894,778.558472C310.080719,777.765625,303.992462,776.358276,299.705444,775.431091C293.650909,774.121643,286.216003,770.871643,266.399994,760.872375C252.368988,753.792236,237.476685,745.749573,233.305984,742.999695C229.135284,740.249878,225.366638,738,224.931213,738C224.495789,738,222.420639,735.910278,220.319763,733.35614C214.551056,726.342834,210.093842,722.2724,206.115707,720.384644C204.141449,719.447815,199.145279,715.150391,195.013077,710.834778C189.703979,705.290039,185.739883,702.155151,181.5,700.148438C177.027359,698.031494,173.272598,694.965149,166.75,688.102844C161.9375,683.039673,158,678.471252,158,677.950867C158,676.328491,150.794937,666.691895,146.447739,662.5C144.166229,660.299988,140.714157,656.025024,138.776459,653C133.919357,645.417419,122.54792,622.575012,120.605988,616.5C119.726929,613.75,116.927147,605.424988,114.384254,598C111.72612,590.238525,109.34623,581.099365,108.785492,576.5C107.94323,569.591431,107.372375,568.022522,104.601128,565C98.569946,558.421997,98.006187,556.863586,96.023758,541.289185C95.001732,533.259888,93.094864,526.986755,89.76532,520.700439C87.813171,517.014709,87.545937,515.029602,87.584404,504.5C87.616386,495.744812,88.099358,491.161224,89.370522,487.54892C90.328781,484.825836,91.386307,479.669006,91.720581,476.089294C92.39328,468.885559,95.020256,465,99.217896,465C102.395874,465,111.214333,471.011841,119,478.486145C122.574997,481.918182,127.54995,486.099182,130.05545,487.777283C132.560944,489.455383,137.060944,493.640625,140.05545,497.07782C143.049957,500.514984,147.75,504.78067,150.5,506.557098C155.708649,509.921722,164.291519,518.211914,168.218689,523.67157C174.217087,532.010681,179.202286,538.001282,187.115051,546.378845C193.428329,553.062988,196.195816,556.835876,197.473206,560.5C198.431931,563.25,199.661896,566.712524,200.206467,568.194458C200.838882,569.915405,203.599808,572.371582,207.848312,574.992859C219.200378,581.996887,222.320389,584.553894,234.065765,596.479126C240.330704,602.840027,247.266327,609.264465,249.478271,610.755676C251.690231,612.246887,257.957733,617.661621,263.406067,622.788513C274.246094,632.988892,277.753784,635.279358,281.816406,634.809998C284.219818,634.532349,284.47168,634.134583,284.228821,631C284.079681,629.075012,282.808563,625.054199,281.404083,622.064819C277.394531,613.530579,274.031281,601.895752,272.638336,591.740479C272.354706,589.672791,271.265198,586.747803,270.217224,585.240479C267.236023,580.95282,263.334564,567.833008,261.819244,557C261.319153,553.424988,260.588531,544.875,260.195618,538C259.802673,531.125,259.083466,524.87616,258.597382,524.113708C258.111267,523.351318,257.368561,519.976318,256.94696,516.613708C256.52533,513.25116,255.700516,508.700012,255.114044,506.5C253.797852,501.562714,253.651138,466.04776,254.933014,462.676178C255.446167,461.326477,257.344574,458.538208,259.151703,456.47998L262.437408,452.737793L259.718689,447.868378C257.239258,443.42746,257,442.069214,257,432.433746C257,426.622864,257.453003,421.022095,258.006653,419.987579C258.560303,418.953064,259.445984,415.495148,259.974823,412.303314C260.503662,409.111481,261.197449,404.924988,261.516571,403C263.561981,390.661713,267.658112,377.017517,271.065399,371.192841C273.418427,367.17038,273.504089,364.698975,271.401764,361.490417C268.893829,357.662811,270.597229,346.306793,275.225311,336C276.336639,333.524994,278.296631,328.350006,279.580811,324.5C283.901703,311.545959,286.814484,305.552948,290.152588,302.748657C293.336029,300.07431,295.951874,294.051239,295.984833,289.319763C295.993164,288.120636,297.350006,284.22287,299,280.65802C300.649994,277.093201,302,273.75592,302,273.241882C302,271.947266,309.805878,256.091309,311.957855,253.014679C312.925232,251.631607,315.200104,247.800003,317.013062,244.5C318.82605,241.199997,322.010681,236.557205,324.090027,234.182678C328.543213,229.097321,329.880402,224.644791,327.693787,222.182831C325.708252,219.94725,323.096954,213.559219,321.896179,208C318.713104,193.263382,316.886963,183.853394,315.006958,172.5C314.369415,168.649994,313.432068,164.118057,312.92392,162.429001C312.415771,160.73996,311.995117,157.589951,311.989166,155.429001C311.983215,153.268051,311.308228,149.290985,310.489166,146.591064C309.56134,143.532578,309,137.57077,309,130.77533C309,124.170204,308.526581,119.007034,307.799652,117.684258C306.134491,114.654236,305.574036,75.575409,307.088593,68.105995C307.713806,65.022697,308.53476,60.434155,308.912964,57.909233C309.291168,55.384308,310.994843,51.213528,312.698914,48.640827C316.30127,43.202278,331.321533,27.053041,334.398895,25.30979C337.45575,23.578167,354.501129,24.778631,359,27.042385C362.124878,28.614767,372.699097,38.913383,378.753723,46.281208C380.95813,48.963764,381.086548,48.990677,384.625824,47.511871C389.956024,45.284775,392.519012,45.638786,396.524109,49.155319C401.655701,53.660896,404.260864,59.322514,404.929016,67.421005C405.493225,74.26001,405.55307,74.379311,409.978912,77.490456C415.495941,81.36866,416.729523,85.314064,415.062622,93.75013C414.437744,96.91256,413.517578,103.952934,413.017822,109.395409C412.518066,114.837891,411.634613,119.765388,411.054596,120.345413C408.680176,122.71981,410.62735,138.615921,413.594238,141.078201C414.66098,141.963516,416.138153,141.444031,420.233124,138.743515C429.189453,132.837082,431.460297,132,438.527252,132C445.797943,132,446.126526,131.78746,453.869781,122.075645C456.492401,118.786285,459.523804,116.779839,467.541656,113.026382C487.889465,103.500816,491.851135,99.529099,495.497101,85C496.394226,81.425003,497.522461,76.925003,498.004333,75C498.486176,73.074997,499.582336,69.165443,500.440216,66.312103C501.298096,63.458759,502,60.12331,502,58.899994C502,57.676678,502.716705,54.161232,503.592682,51.087891C504.468628,48.014553,505.551941,43.924999,506,42C509.327637,27.703484,512.16156,23,517.447754,23C520.720093,23,524.731018,27.875212,526.086304,33.5C526.748901,36.25,528.829834,43,530.710571,48.5C537.385254,68.019279,542.471497,85.230629,544.008911,93.5C546.038818,104.418388,545.892273,104.203354,554,108.160995C558.125,110.174545,563.299988,112.405762,565.5,113.119263C569.044678,114.268867,573.33905,116.94368,584.173096,124.75C585.890564,125.987503,588.379456,127,589.703979,127C592.094238,127,600.283875,130.72226,607,134.861206C613.347168,138.772751,618.786255,141.019241,620.405334,140.397949C621.714355,139.895645,622,138.035599,622,130.015137C622,124.025032,621.467834,118.939423,620.624695,116.872124C619.868347,115.017456,619.018372,108.351639,618.735901,102.059189L618.222412,90.618378L623.489197,85.059189C628.71521,79.542999,628.761475,79.438118,629.466187,71.5C630.590942,58.829922,634.768494,51.000671,640.404968,50.99918C642.107239,50.99873,646.875,50.308117,651,49.464478C658.464417,47.937878,658.538086,47.891159,666.519775,39.622135C675.885864,29.918869,680.790466,27.662277,692.733459,27.561213L699.966919,27.5L711.907166,39.408295C728.723877,56.179932,728,53.621487,728,96.287575C728,119.76445,727.646118,130.716904,726.823975,132.684906C726.177124,134.2332,725.302002,140.675003,724.879272,147C723.784363,163.380447,722.26001,176.777161,721.324402,178.242004C720.882446,178.933899,720.213745,182.425003,719.83844,186C719.463135,189.574997,718.424683,195.875,717.530762,200C716.636841,204.125,715.479736,210.111496,714.959351,213.303314C714.439026,216.495148,713.634583,219.870148,713.171692,220.803314C711.477112,224.219711,709.748535,233.862,710.379822,236.377136C710.736816,237.799545,712.290283,240.434067,713.832031,242.231659C715.373779,244.029251,718.590149,249.550003,720.979614,254.5C723.36908,259.450012,726.085815,264.399994,727.016785,265.5C729.014832,267.860809,732.205811,274.084412,733.938599,279C737.792542,289.933014,739.24176,293.263245,741.846924,297.172546C745.072144,302.012299,746.455017,304.930176,751.006958,316.5C752.738037,320.899994,755.22229,327.200012,756.527527,330.5C757.832764,333.799988,759.624939,338.975006,760.510132,342C761.395325,345.024994,762.602295,349.149963,763.192322,351.166565C763.782288,353.183197,763.948303,356.108185,763.561157,357.666565C761.689636,365.2005,761.851746,366.896027,765.411621,377.023285C769.370728,388.286072,770.738525,394.43576,771.967651,406.5C772.415894,410.899994,773.281616,416.072021,773.891357,417.993408C775.421021,422.813538,775.295898,441.856873,773.713989,444.983398C773.022949,446.349274,771.117065,447.918427,769.47876,448.470398C765.04541,449.964111,764.640991,451.356262,768.283813,452.583405C770.191467,453.226044,772.713623,455.387177,774.482849,457.895172L777.465698,462.123474L777.194092,494.719879C777.044739,512.647949,776.641907,527.770447,776.298828,528.325439C775.955811,528.880493,775.366333,532.296814,774.988831,535.917297C774.611328,539.537781,773.807068,544.525024,773.201599,547C770.16626,559.407776,766.977356,573.635498,766.987976,574.722656C766.994629,575.395142,765.9198,578.320129,764.599609,581.222656C762.261963,586.362122,760.73407,591.335327,758.984497,599.5C757.036499,608.590759,755.151428,615.785706,753.482605,620.5C752.509155,623.25,751.353333,626.849976,750.914124,628.5C750.474915,630.150024,749.190369,634.154846,748.059631,637.399719C745.581299,644.511292,746.344299,646,752.467468,646C755.516052,646,757.219666,645.40686,758.595032,643.866638C760.496399,641.737244,767.931885,635.963135,775.5,630.73877C784.534668,624.502014,786.9552,622.459839,797,612.599426C802.775024,606.93042,809.075012,601.348328,811,600.194763C816.729309,596.761353,841.533752,571.039612,844.457458,565.5C845.908875,562.75,848.859375,558.025024,851.01416,555C858.386902,544.649841,860.935425,540.700623,866.644287,530.779724C869.430847,525.937134,876.972534,519.556213,883.884766,516.192688C889.997437,513.218262,891.516968,511.987793,892.706116,509.049622C893.496277,507.097321,896.119995,501.390259,898.536621,496.367249C902.320923,488.501617,903.59436,486.808228,907.715271,484.162079C916.241882,478.686951,917.138,477.843933,918.966919,473.577209C921.201477,468.364197,926.213562,464,929.965942,464C934.044373,464,937.304871,467.001343,937.101074,470.567963C937.008911,472.180573,936.723206,489.475006,936.466248,509C936.209229,528.525024,935.577271,546.075012,935.061829,548C934.546387,549.924988,933.401489,554.875,932.517517,559C925.085571,593.681335,918.896545,611.951782,911.854187,620C908.653442,623.657898,905,630.094299,905,632.075195C905,634.255249,893.601501,656.504089,887.297363,666.629028C883.828735,672.199951,878.539917,679.625,875.544495,683.129028C872.549011,686.633057,868.564331,691.299988,866.689636,693.5C864.81488,695.700012,862.14386,699.299988,860.753967,701.5C857.857971,706.083984,842.220947,721.344971,833.601013,728C830.395264,730.474976,825.911072,733.95105,823.636169,735.724548C821.361267,737.498047,815.450012,741.737122,810.5,745.144775C805.549988,748.552429,799.388489,752.823853,796.807739,754.636902C790.313171,759.199341,765.773804,771.211365,758.5,773.388489C755.200012,774.37616,751.118042,775.592834,749.429016,776.092163C747.739929,776.591492,744.796997,777,742.889099,777C740.981201,777,736.828674,777.674988,733.661316,778.5C730.493896,779.325012,725.111877,780.006775,721.701233,780.015076C718.290527,780.023315,713.700012,780.678589,711.5,781.471191C706.773621,783.173889,695.1521,783.392822,689.5,781.88562C687.299988,781.29895,683.25,780.45929,680.5,780.019714C668.325256,778.073669,660.763855,774.417603,658.095276,769.186768C657.032837,767.104248,655.443909,761.822815,654.564209,757.450195C652.562073,747.498047,651.318176,745,648.36438,745C647.100708,745,643.838379,746.912476,641.114807,749.25C638.391235,751.587524,633.473816,755.525024,630.187256,758C626.357483,760.884033,623.391846,764.115967,621.928589,767C618.794678,773.177124,614.246765,778.684387,610.229126,781.167419C607.170471,783.0578,605.955078,783.183533,596.930786,782.543762C589.057617,781.985596,586.923523,782.115356,586.635864,783.1698C586.436279,783.901428,585.744873,786.75,585.099426,789.5C584.149353,793.547729,582.78656,795.624146,577.943726,800.402283C574.653564,803.64856,571.724731,807.248596,571.435181,808.402283C571.14563,809.55603,571.409485,816.349976,572.021484,823.5C572.633484,830.650024,573.470947,843.025024,573.882568,851C574.294128,858.974976,575.163879,867.072021,575.81543,868.993408C577.499023,873.958374,577.310974,888.867188,575.5,894C574.674988,896.338318,574,899.642334,574,901.342285C574,904.063538,572.555786,909.145569,569.976685,915.5C565.717041,925.994934,562.423462,939.992432,561.142395,953.045227C560.789063,956.645142,559.716492,960.785767,558.75885,962.246582C556.42334,965.809326,551.821167,970,550.24408,970C549.000427,970,541.487915,977.277222,527.709656,991.828613C521.600586,998.280579,520.53717,999,517.109741,999C514.501282,999,512.049683,998.094238,509.334534,996.12738z"/>
    <path transform="matrix(-0.26455,0,0,-0.26455,-528.330994,-444.077362)" style="stroke:#000000;stroke-width:0.05mm;fill:none" d="M522.098816,973.894226C526.870178,968.786499,525.899353,964.28125,518.996521,959.49762C514.185791,956.163757,510.631592,950.531311,508.901703,943.5C506.663574,934.402832,503.523621,932,493.87384,932C487.551758,932,485.42038,934.754517,486.371735,941.695435C487.273804,948.276855,490.458527,952.936707,502.811493,965.75C515.115479,978.512512,517.029663,979.32074,522.098816,973.894226z"/>
    <path transform="matrix(-0.26455,0,0,-0.26455,-528.330994,-444.077362)" style="stroke:#000000;stroke-width:0.05mm;fill:none" d="M543.194946,951.41864C544.307373,949.50592,545.386414,944.446533,546.039795,938.079102C547.049622,928.238586,548.754883,922.164978,555.409912,904.704529C561.18103,889.563171,557.348083,884.459778,544.929321,890.75C537.993774,894.262878,536.003723,897.94812,536.001526,907.282104C535.999817,914.905273,534.480103,919.343384,529.884888,925.145325C525.190796,931.072083,524.943726,936.145691,528.934082,944.672791C533.058472,953.48645,534.635071,955.172913,538.400269,954.798523C540.526428,954.587158,541.925842,953.600647,543.194946,951.41864z"/>
    <path transform="matrix(-0.26455,0,0,-0.26455,-528.330994,-444.077362)" style="stroke:#000000;stroke-width:0.05mm;fill:none" d="M515.212341,914.238037C516.154175,913.424133,517.435303,911.211121,518.059326,909.320251C520.491943,901.949402,515.826355,897.977478,503,896.500061C499.975006,896.151672,494.359039,894.996582,490.520111,893.933289C481.399628,891.407104,478.366028,891.447571,476.938782,894.11438C475.484009,896.832703,476.515442,904.192627,479.118774,909.669739C481.462891,914.601501,484.282043,915.809021,491.611145,915.020508C494.422272,914.718079,499.59726,914.937988,503.111145,915.509216C510.239044,916.667908,512.699951,916.409363,515.212341,914.238037z"/>
    <path transform="matrix(-0.26455,0,0,-0.26455,-528.330994,-444.077362)" style="stroke:#000000;stroke-width:0.05mm;fill:none" d="M531.802917,877.893555C537.150757,874.302551,538.950134,873.671692,546.138123,872.867493C550.658997,872.361694,554.905273,871.493591,555.574341,870.938293C557.6203,869.240295,558.029358,864.018738,557.057983,852C554.288269,817.730835,553.681946,812.289673,552.344666,809.70166C551.326599,807.731445,548.670227,805.887817,543.368652,803.471802C533.499817,798.974426,529.295898,795.520569,521.430664,785.447998C513.475037,775.259705,509.733521,772,505.99469,772C495.765472,772,499.295654,788.925476,512.294434,802.203918C514.607483,804.566772,519.424988,808.03833,523,809.918518C532.744263,815.043335,535.676331,817.639099,538.698669,823.816528C540.989197,828.49823,541.512451,831.069824,541.841553,839.263C542.603149,858.22467,536.597351,864.988831,519,864.988831C510.018921,864.988831,505.906281,863.672913,495.5,857.469666C484.405151,850.855896,481.865448,850.134521,479.168884,852.831116C476.872559,855.127441,475.405518,864.0177,476.425629,869.455261C477.519043,875.283691,478.965118,875.994812,489.821442,876.042786C497.74649,876.07782,501.039978,876.603699,508,878.945435C520.385925,883.112732,524.287048,882.940369,531.802917,877.893555z"/>
    <path transform="matrix(-0.26455,0,0,-0.26455,-528.330994,-444.077362)" style="stroke:#000000;stroke-width:0.05mm;fill:none" d="M522.545471,844.545471C528.338745,838.752136,524.362488,831.439392,512.060364,825.26239C507.418549,822.931641,502.104431,819.556641,500.25119,817.76239C496.371613,814.006165,482.730042,787.784912,480.923981,780.612427C479.13916,773.524292,480.86261,769.011353,488.320221,761.244995L494.448395,754.863159L495.123352,741.68158C495.494568,734.431702,496.126434,725.948242,496.527496,722.829407C497.540405,714.952515,496.819824,713.019165,490.013062,705.351135C482.229401,696.582642,479.691711,691.218018,479.654205,683.453064C479.613892,675.103943,482.538879,669.451904,490.531494,662.434753C494.291473,659.133728,497.330811,655.527649,497.959991,653.621155C498.683655,651.428528,498.753448,644.870667,498.177856,633.157288C497.216919,613.602234,497.164703,613.46405,488.104279,606.5C481.106873,601.121643,477.505798,595.480469,476.010254,587.554321C474.69223,580.569031,475.569122,572.307007,478.514557,563.95874C481.019257,556.85968,480.459808,552.125916,476.326172,545.441162C469.966583,535.156677,468,530.776428,468,526.89563C468,518.419739,471.903076,513.610596,483.5,507.797424C494.35733,502.35498,496,500.709747,496,495.277924C496,487.918182,489.153137,483.73996,482.684265,487.152161C481.48291,487.785828,478.024994,490.557831,475,493.312134C471.975006,496.066437,466.210266,500.798004,462.189453,503.826691C453.8172,510.133209,451.989777,513.021057,451.256927,521.103271C450.57254,528.650879,452.281006,535.241028,456.637939,541.859741C463.582642,552.409485,464.228516,557.189819,460.886902,573.307678C457.410065,590.078003,459.29422,597.116028,470.772614,610.234375C474.013489,613.938232,477.977966,619.338257,479.58255,622.234375C482.168732,626.9021,482.498474,628.465149,482.486694,636C482.470825,646.130676,480.302277,651.381592,471.542542,662.5C464.545258,671.381348,460.993988,678.036804,461.021973,682.216736C461.049408,686.318176,463.653412,692.126831,468.983002,699.974976C474.465668,708.048523,478.672852,717.11676,480.099213,723.934998C482.514435,735.480286,478.022339,750.390259,468.329681,763C462.258026,770.898926,460.993469,773.180359,461.021973,776.184265C461.059021,780.09137,464.485352,786.191101,470.467712,793C479.818787,803.643005,480.5,805.464783,480.5,819.828857C480.5,830.878357,480.701447,832.305237,482.441132,833.578857C483.508759,834.360474,485.399109,835,486.641907,835C491.991058,835,499.363525,837.412903,503.766052,840.604431C513.388367,847.580078,518.448853,848.642029,522.545471,844.545471z"/>
    <path transform="matrix(-0.26455,0,0,-0.26455,-528.330994,-444.077362)" style="stroke:#000000;stroke-width:0.05mm;fill:none" d="M565.106201,788.338318C566.539673,786.997986,568.28595,784.163513,568.986938,782.039551C571.653687,773.959167,567.718079,768.996765,556.671082,766.510437C546.891418,764.309265,541.734253,761.641052,537.113525,756.391602C527.659729,745.65155,526.075317,734.339905,532.682434,724.756165C534.102051,722.697021,539.740417,717.580627,545.212219,713.386414C556.509521,704.726807,560.289795,700.128967,562.010925,692.954529C564.330627,683.284729,561.14679,675.854858,548.960449,662.5C530.923279,642.733398,527.713379,632.845703,534.545837,618.098511C535.918701,615.135193,538.610229,610.574402,540.526855,607.963379C549.045105,596.359253,550.333313,590.219604,548.597168,569.5C547.430542,555.576355,547.928406,554.035339,558.446655,539.015198C561.039551,535.3125,561.443359,533.759033,561.810791,526.074768C562.346863,514.861938,561.461914,513.155518,550.259033,503.799866C545.451355,499.784943,538.813782,494.073425,535.508911,491.107605C527.750488,484.145203,524.213196,482.008362,520.438538,482.003723C515.065979,481.997192,510.279663,488.443817,511.507294,494.033173C512.36676,497.946411,516.48175,501.224396,525.204651,504.944611C537.996704,510.400208,544.937439,518.145813,544.968262,527C544.982971,531.223877,541.437561,539.043213,537.033508,544.5C530.475464,552.625671,529.653564,557.051636,532.603394,568.355652C534.693787,576.365967,534.091614,587.808899,531.242798,594.21167C530.089783,596.80304,526.188477,602.072754,522.573181,605.922058L516,612.920837L516.062927,624.210388C516.097534,630.419678,516.487976,639.294189,516.930542,643.931519C517.726929,652.275208,517.780945,652.403015,522.117676,656.203125C536.70874,668.98877,539.084351,671.473083,541.561646,676.536438C545.064575,683.696167,545.067444,690.502869,541.570007,696.470764C538.638123,701.473633,534.399841,705.008972,524.368652,710.819092C515.296082,716.073975,514.482727,717.968201,513.529663,736.061157C512.649231,752.775757,513.353394,754.98175,521.487122,760.990479C524.607239,763.295471,532.196472,770.217773,538.352112,776.373413C549.720398,787.741699,556.744629,792.503662,560.487427,791.3797C561.59436,791.047302,563.672791,789.67865,565.106201,788.338318z"/>
    <path transform="matrix(-0.26455,0,0,-0.26455,-528.330994,-444.077362)" style="stroke:#000000;stroke-width:0.05mm;fill:none" d="M390,764.100159C405.007965,760.406677,413.362915,760.172424,425.671051,763.100037C435.970184,765.549805,443.891663,765.312988,447.042938,762.461121C449.846649,759.923828,458.669525,745.18811,460.51239,739.964905C462.517426,734.281982,462.386292,727.028687,460.174194,721.260742C459.169983,718.642334,455.10434,711.325012,451.139404,705C443.167145,692.282349,440.437408,684.9198,441.418854,678.782043C442.291443,673.325134,444.626038,669.067627,452.900818,657.842468C467.301331,638.307495,467.366333,633.79303,453.481628,617.5C449.731995,613.099976,445.554871,607.078857,444.199097,604.119629C440.887604,596.891846,440.17514,584.646484,442.383972,572.922058C444.536316,561.497314,444.441406,556.236206,442.010956,552.25C440.406952,549.619263,439.387909,549,436.662567,549C429.962738,549,421.442322,557.582214,422.266998,563.5C422.496918,565.150024,423.737732,569.959229,425.024384,574.187195C427.299133,581.66217,427.327789,582.217041,426.062134,594.283813C424.459869,609.559875,425.148254,611.587341,434.15155,618.109802C441.911804,623.731689,445.003265,628.859497,444.990234,636.08783C444.977234,643.283508,441.986908,649.49115,433.444092,660.056335C424.433319,671.200317,422.026855,675.542664,422.012054,680.684875C421.995056,686.588318,423.178406,689.120361,431.111267,700.154785C443.484131,717.365112,448.59967,734.606689,443.428925,741.670654C439.755768,746.68866,435.704102,747.996704,423.828949,747.998474C416.646637,747.999512,410.420074,747.349792,404.78363,746.011108C395.434326,743.790649,394.415985,743.9328,383.876068,748.929993C371.439026,754.826599,361.68573,754.936584,348.807098,749.325439C343.271729,746.913757,341.521149,746.624268,334.5,746.959412C312.676666,748.001282,310.716309,747.461304,300.025787,737.463623C291.621887,729.604431,288.489929,728.268555,280.865143,729.29126C275.564056,730.002258,269.220398,734.273682,268.357086,737.713379C267.367615,741.655762,271.788788,744.901001,287.913116,752.067932C304.010315,759.222778,307.821808,760.265076,329.62796,763.475464C338.907593,764.841614,348.524994,766.395691,351,766.928955C359.230957,768.702454,376.342499,767.461304,390,764.100159z"/>
    <path transform="matrix(-0.26455,0,0,-0.26455,-528.330994,-444.077362)" style="stroke:#000000;stroke-width:0.05mm;fill:none" d="M600.802002,764.602356C604.59613,762.640381,606.876343,759.868347,607.576721,756.366394C608.046021,754.019836,607.585754,752.661133,605.469482,750.146118C598.465271,741.822083,589.641296,741.949829,582.148438,750.483704C577.527222,755.747009,578.101868,762.892456,583.315369,764.993042C586.787415,766.391968,597.817871,766.145508,600.802002,764.602356z"/>
    <path transform="matrix(-0.26455,0,0,-0.26455,-528.330994,-444.077362)" style="stroke:#000000;stroke-width:0.05mm;fill:none" d="M710.073853,763.433167C714.519226,759.410156,710.28833,752.32074,701.034668,748.286682C697.990601,746.959656,693.465759,744.826904,690.979492,743.547302C683.632385,739.765991,679.23407,738.875366,675.536743,740.420166C669.662476,742.874634,668.431885,751.465515,673.103821,757.404846C675.941101,761.011841,678.014465,761.950562,687.899414,764.103516C698.023621,766.308594,707.203186,766.031067,710.073853,763.433167z"/>
    <path transform="matrix(-0.26455,0,0,-0.26455,-528.330994,-444.077362)" style="stroke:#000000;stroke-width:0.05mm;fill:none" d="M750.498169,758.036865C761.224976,753.829163,758.280457,746.442322,741.680176,735.915771C700.194153,709.608704,699.558655,709.040771,692.963013,692.379639C691.247375,688.045837,688.915222,683.503235,687.780457,682.285034C686.64563,681.066772,682.258301,678.918152,678.030701,677.510254C663.448425,672.65387,660.474365,666.679016,661.528931,644.358765C662.492371,623.966858,662.375732,623.788086,639.066772,609.920532C632.228455,605.852173,625.189636,601.036804,623.424866,599.219666C619.460266,595.137451,617.945435,589.401184,618.694397,581.306824C619.243713,575.370483,619.138245,574.984436,616.152283,571.998413C613.491882,569.338013,612.421021,568.928223,608.817871,569.191589C605.213501,569.455078,604.307983,569.999512,602.603271,572.928162C600.975281,575.725037,600.615967,578.121338,600.6521,585.940796C600.714111,599.350769,602.595825,603.408997,611.129333,608.53656C620.129211,613.944397,636.536926,626.614807,640.034241,630.857727C644.222595,635.938904,645.780212,641.65387,647.023254,656.5C649.114929,681.481873,650.692139,684.483398,663.515381,687.885437C669.313843,689.423767,676.089539,694.047546,679.17926,698.574463C680.652893,700.733521,683.080811,706.325012,684.574646,711C688.055847,721.894287,690.301208,723.98407,705.941711,730.886597C720.748779,737.421326,724.22345,740.40918,726.46228,748.531921C729.011047,757.778992,729.649353,758.85199,733.140442,759.756592C736.797913,760.704346,746.029541,759.789734,750.498169,758.036865z"/>
    <path transform="matrix(-0.26455,0,0,-0.26455,-528.330994,-444.077362)" style="stroke:#000000;stroke-width:0.05mm;fill:none" d="M564.606873,745.25C565.91394,743.737488,568.465637,740.474976,570.277222,738C572.266724,735.281982,576.189453,731.939087,580.183167,729.55835C583.819824,727.390442,587.508911,724.408447,588.381226,722.931763C589.25354,721.455017,591.605408,713.328796,593.607544,704.873413C598.212891,685.424255,598.746216,673.025574,595.279602,666C594.020325,663.447937,588.676331,657.171204,582.934265,651.5C571.665405,640.370117,569,636.181885,569,629.604919C569,623.231384,570.185913,620.824646,576.863098,613.647156C580.259644,609.996094,583.069885,605.958435,583.464294,604.162598C583.842041,602.442749,583.604614,597.647949,582.936707,593.507568C581.424927,584.136108,582.152588,577.330139,585.543213,569.129028C588.550781,561.854492,588.316101,557.546265,584.73468,554.284912C576.859985,547.114014,570.011963,548.969421,567.415955,558.977173C566.257568,563.442932,566.217346,566.361755,567.186096,575.655396C568.972351,592.791748,566.546692,602.550171,557.37085,615.142029C550.696472,624.301208,549.316833,631.780334,552.977844,638.956543C554.065613,641.088806,558.003784,646.133362,561.729309,650.166687C578.06311,667.850098,580.975464,673.241577,580.990234,685.823669C580.99762,692.105103,580.376465,696.004822,578.45874,701.717651C574.942566,712.192078,571.031616,717.194336,561.39856,723.538208C551.591736,729.996521,547.99176,733.976563,548.022217,738.326721C548.080444,746.632202,559.347656,751.335693,564.606873,745.25z"/>
    <path transform="matrix(-0.26455,0,0,-0.26455,-528.330994,-444.077362)" style="stroke:#000000;stroke-width:0.05mm;fill:none" d="M782.83136,743.396729C788.550903,740.54657,791.535767,736.355103,790.448792,732.700012C789.427246,729.265015,776.19635,716.217529,769,711.548523C765.424988,709.229065,757.325012,704.782959,751,701.668274C731.037842,691.838135,724.914368,685.96405,724.190002,675.950256C723.822876,670.874695,724.205566,669.191772,727.066895,663.297974C730.238953,656.76416,730.374146,655.994812,730.54541,643.5C730.730347,630.010742,730.742981,629.953125,737.025574,614C739.448792,607.846741,739.812195,602.683533,737.977539,600.472961C734.886658,596.748657,718.649109,600.050049,716.035217,604.934265C715.252808,606.396057,715.106567,611.993713,715.55603,623.269287C716.406982,644.617004,715.236023,653.618164,710.286316,663.776794C705.540527,673.516968,705.432068,678.078796,709.746216,686.5C715.829956,698.375488,724.046509,705.098328,748.366577,718.099182C761.736755,725.246521,765.776917,729.081543,768.930908,737.619202C772.30835,746.761841,774.363953,747.616211,782.83136,743.396729z"/>
    <path transform="matrix(-0.26455,0,0,-0.26455,-528.330994,-444.077362)" style="stroke:#000000;stroke-width:0.05mm;fill:none" d="M627.076904,738.076904C630.623108,734.530701,630.768311,731.641479,627.75,724.685364C626.176147,721.058289,625.5,717.538635,625.5,712.97345C625.5,707.199463,625.939209,705.709656,629.309204,700.052429C631.404297,696.5354,633.370483,692.397461,633.678589,690.856934C633.986694,689.316406,633.300537,683.88092,632.153748,678.778015C631.006958,673.67511,629.60321,664.869507,629.034241,659.210022C627.519897,644.145691,625.988831,641.821289,608.224487,627.617065C601.674133,622.379517,599.239685,621,596.547058,621C590.008484,621,586.620911,629.705811,590.995483,635.267151C592.093018,636.662415,596.080994,640.094727,599.857605,642.894409C612.214233,652.054749,615.517517,659.80188,615.466003,679.5C615.435364,691.210754,615.063477,693.915771,611.716003,706.775513C607.24292,723.959412,607.0578,728.294861,610.569946,733.610474C614.250366,739.180664,616.741333,741,620.687683,741C623.185364,741,624.970581,740.183289,627.076904,738.076904z"/>
    <path transform="matrix(-0.26455,0,0,-0.26455,-528.330994,-444.077362)" style="stroke:#000000;stroke-width:0.05mm;fill:none" d="M375.963409,733.329834C381.448883,731.102783,383,729.17334,383,724.577148C383,719.535278,379.095917,713.313171,375.341064,712.370728C368.572876,710.672058,354.949677,718.854614,353.034271,725.769043C350.741608,734.045288,363.687012,738.314026,375.963409,733.329834z"/>
    <path transform="matrix(-0.26455,0,0,-0.26455,-528.330994,-444.077362)" style="stroke:#000000;stroke-width:0.05mm;fill:none" d="M252.331207,730.894958C253.717224,730.263428,255.752045,727.664429,257.079651,724.829895C261.84436,714.657104,266.641968,712.033264,281.356812,711.552551C286.935577,711.3703,292.754028,710.641663,294.286743,709.93335C295.819458,709.225037,299.328033,705.604309,302.083557,701.887329C308.885681,692.711731,322.335358,680.179626,331.532898,674.447021C341.412598,668.289307,349.048187,665.269592,357.920929,664.01123C370.091492,662.285095,369.450867,662.92157,383.948395,638.152588C388.790741,629.879456,393.460754,623.445068,398.101288,618.652588C406.074738,610.418091,406.668518,608.888672,407.903381,593.405273C408.950043,580.281433,408.115082,574.32135,404.860657,571.686096C399.830261,567.612732,389.717529,572.27356,389.725372,578.661804C389.727295,580.222778,390.070587,585.099976,390.488281,589.5C391.426941,599.388611,390.597687,601.633362,381.106842,614.894714C377.325989,620.177612,372.753967,626.974976,370.946838,630C365.922943,638.409485,361.298553,643.741028,356.687653,646.439636C352.76889,648.733215,318.89624,663.956177,314.5,665.399536C311.178986,666.489929,308.550171,669.204285,302.244324,678.054016C293.23938,690.691772,288.09726,693.763428,265.510071,699.997253C257.455902,702.220093,248.284714,705.341858,245.129639,706.93457C238.524902,710.268616,233,715.058655,233,717.450867C233,722.116821,239.890762,728.949402,246.633636,730.969421C248.210144,731.441711,249.591324,731.86676,249.702942,731.914063C249.814575,731.961304,250.997284,731.502747,252.331207,730.894958z"/>
    <path transform="matrix(-0.26455,0,0,-0.26455,-528.330994,-444.077362)" style="stroke:#000000;stroke-width:0.05mm;fill:none" d="M422.777496,729.443298C427.266754,726.298889,425.372467,721.093994,415.506012,709.463501C412.498352,705.918091,408.573853,700.200928,406.784943,696.758667C403.787781,690.991516,403.531067,689.753906,403.516174,681C403.496185,669.264038,405.177948,665.390442,415.138153,654.230713C423.852692,644.466675,426.582275,639.10907,425.062836,634.750427C423.352936,629.845398,421.129608,628,416.929993,628C413.742401,628,412.586151,628.665039,409.334991,632.368347C407.225739,634.770996,403.312134,640.675537,400.638062,645.489563C397.963989,650.30365,393.590424,657.65387,390.919006,661.823425C384.825684,671.333923,384.285797,674.730042,386.863525,687.334167C388.475037,695.213806,389.700745,698.436096,393.030701,703.547119C395.316498,707.055481,398.066956,712.755127,399.142853,716.212952C400.21875,719.670837,401.786835,723.550232,402.627472,724.833801C406.000702,729.984436,418.064819,732.744202,422.777496,729.443298z"/>
    <path transform="matrix(-0.26455,0,0,-0.26455,-528.330994,-444.077362)" style="stroke:#000000;stroke-width:0.05mm;fill:none" d="M666.076904,728.076904C669.443787,724.710083,669.84375,720.955688,667.44696,715.217896C663.818176,706.530762,655.023376,701.135132,648.5448,703.621155C645.848999,704.65564,643.999817,709.574524,644.003723,715.700317C644.010193,725.678711,649.055115,730.872437,658.826904,730.960876C662.305603,730.99231,663.726868,730.427002,666.076904,728.076904z"/>
    <path transform="matrix(-0.26455,0,0,-0.26455,-528.330994,-444.077362)" style="stroke:#000000;stroke-width:0.05mm;fill:none" d="M332.575562,726.929016C333.998352,725.592346,335.88031,721.759705,337.061676,717.792908C339.202759,710.603577,343.247162,704.957764,348.026825,702.486145C349.52829,701.709656,354.036652,700.165527,358.04538,699.054626C367.064514,696.555298,370,694.043579,370,688.825684C370,680.23938,362.463959,678.594055,350.154968,684.492981C340.959778,688.899658,333.932678,694.366394,322.295166,706.166504C312.248383,716.353699,310.736725,718.94635,312.273468,723.354675C314.472992,729.664185,327.26651,731.916626,332.575562,726.929016z"/>
    <path transform="matrix(-0.26455,0,0,-0.26455,-528.330994,-444.077362)" style="stroke:#000000;stroke-width:0.05mm;fill:none" d="M814.054199,722.173645C819.186768,718.910645,821.519165,715.204773,820.641418,711.70752C820.30127,710.352234,817.603333,707.430786,814.59259,705.157654C811.603394,702.900818,807.209717,698.699707,804.828857,695.821838C794.773499,683.667603,793.086365,682.374817,785.589783,681.07959C776.863708,679.571899,773.946655,678.049072,769.811707,672.842529C761.750854,662.692749,760.752686,662,754.188904,662C748.704224,662,747.95105,662.26947,745.588867,665.076721C742.512024,668.733398,742.305969,672.349487,744.92926,676.651672C746.446045,679.139221,750.120728,681.388367,762.368469,687.325684C786.059937,698.810486,793.003357,704.154968,798.972046,715.5C802.375427,721.969055,805.228699,725,807.914978,725C808.846375,725,811.60907,723.728149,814.054199,722.173645z"/>
    <path transform="matrix(-0.26455,0,0,-0.26455,-528.330994,-444.077362)" style="stroke:#000000;stroke-width:0.05mm;fill:none" d="M223.651505,702.477783C234.670456,688.852539,234.303528,689.081604,251.71228,684.960449C267.695496,681.176697,274.135559,678.833679,280.550262,674.468323C292.567932,666.290161,294.485291,655.295471,284.470245,651.990173C277.375122,649.64856,272.431213,652.293518,267.03598,661.317322C265.780731,663.41687,262.930145,666.341858,260.701355,667.817322C257.053741,670.232117,255.642944,670.520691,246.574524,670.707092C233.391632,670.978088,231.175262,671.47168,227,675.066223C225.074997,676.723511,219.983627,680.803772,215.685822,684.133484C211.388031,687.463257,207.387543,691.250122,206.795837,692.548706C205.272949,695.891113,207.413834,700.529602,211.880203,703.564575C216.995483,707.040466,220.200882,706.744568,223.651505,702.477783z"/>
    <path transform="matrix(-0.26455,0,0,-0.26455,-528.330994,-444.077362)" style="stroke:#000000;stroke-width:0.05mm;fill:none" d="M841.880249,697.489197C849.67041,690.451233,849.861145,685.188354,842.513489,680.012573C839.770935,678.080627,834.55365,673.462524,830.919556,669.75C823.143127,661.805725,820.796326,661.271729,815.537415,666.25C812.291931,669.322266,811.615234,671.00946,811.884827,675.356567C811.948181,676.377686,815.056091,680.427673,818.79126,684.356567C822.526428,688.285461,827.281555,693.637512,829.358215,696.25C834.007141,702.098572,836.504639,702.345764,841.880249,697.489197z"/>
    <path transform="matrix(-0.26455,0,0,-0.26455,-528.330994,-444.077362)" style="stroke:#000000;stroke-width:0.05mm;fill:none" d="M515.930542,696.535889C523.004517,692.877869,525.664001,686.11853,522.464111,679.930603C520.403015,675.944946,513.399048,671,509.814789,671C498.537903,671,494.928436,688.292358,504.614868,695.911682C507.72406,698.357361,511.956696,698.590881,515.930542,696.535889z"/>
    <path transform="matrix(-0.26455,0,0,-0.26455,-528.330994,-444.077362)" style="stroke:#000000;stroke-width:0.05mm;fill:none" d="M194.75,681.1828C195.712494,680.18335,197.940292,677.276672,199.700638,674.723572C201.599182,671.970093,205.735138,668.197205,209.867081,665.449646C217.950607,660.074463,219.962738,656.738464,217.991608,651.979736C216.148407,647.529846,211.475479,644,207.427765,644C204.410248,644,203.345856,644.811707,198.358841,650.916199C194.517166,655.618652,190.805359,658.899414,186.762268,661.166199C177.23555,666.507263,175.641327,668.109558,176.426727,671.553772C178.351379,679.994019,189.999847,686.115356,194.75,681.1828z"/>
    <path transform="matrix(-0.26455,0,0,-0.26455,-528.330994,-444.077362)" style="stroke:#000000;stroke-width:0.05mm;fill:none" d="M867.223145,665.876953C870.838257,661.921509,872.793274,656.509583,871.667114,653.57489C871.363159,652.782776,868.726196,650.598267,865.807251,648.720398C862.888245,646.842529,858.544922,643.662231,856.155396,641.653076C849.705017,636.229431,841.995239,637.240967,838.516907,643.967285C836.302429,648.249695,836.643494,650.816772,839.826965,653.826904C858.335388,671.327759,858.147461,671.178284,860.859131,670.556274C862.311646,670.223145,865.175415,668.117432,867.223145,665.876953z"/>
    <path transform="matrix(-0.26455,0,0,-0.26455,-528.330994,-444.077362)" style="stroke:#000000;stroke-width:0.05mm;fill:none" d="M794.454529,662.838745C795.856323,662.200073,798.806396,659.289185,801.010315,656.370056C803.214294,653.450989,807.754028,649.204285,811.098633,646.932983C814.443298,644.661682,818.601868,640.72583,820.339905,638.186584C825.309265,630.926514,831.783264,624.326355,835.288147,622.947144C846.787231,618.421997,848.741211,617.036621,853.134094,610.29425C855.519348,606.633179,860.316528,600.23175,863.794434,596.068848C868.185486,590.813049,872.269104,584.152283,877.157043,574.273376C889.792297,548.736511,891.949341,546.653809,905.244934,547.15332C909.785217,547.323914,914.108398,547.079224,914.852051,546.60968C917.798767,544.748779,919.145203,538.641235,919.71637,524.544556C920.384521,508.054626,919.76532,503,917.077148,503C914.553894,503,913.259705,504.736664,907.5,515.851318C902.856628,524.811768,902.036377,525.799133,896,529.693298C882.446167,538.437195,881.962158,538.94397,871.350952,555.504944C865.714233,564.302246,859.076477,574.650024,856.600464,578.5C851.55127,586.351074,835.116638,603.418701,824.5,611.836914C820.650024,614.889709,812.775024,621.940613,807,627.505676C801.224976,633.07074,792.575806,640.164795,787.77948,643.270325C781.411987,647.393188,778.87738,649.640381,778.385864,651.598755C777.311462,655.879456,779.090942,659.12561,783.907288,661.670898C788.874268,664.295776,790.790894,664.507996,794.454529,662.838745z"/>
    <path transform="matrix(-0.26455,0,0,-0.26455,-528.330994,-444.077362)" style="stroke:#000000;stroke-width:0.05mm;fill:none" d="M692.863403,659.916199C696.142151,656.396973,697.167114,649.514526,697.07373,631.645569C696.948975,607.768494,696.790649,607.361511,684.976257,600.546936C680.420044,597.918945,672.934387,592.09613,667.099365,586.641296C655.566528,575.859741,651.561462,573.543945,644.403687,573.518311C638.056519,573.495483,636,575.0755,636,579.974548C636,586.083862,639.343872,589.755981,650.192017,595.559509C661.875183,601.809753,668.133789,606.297424,674.175842,612.756897C681.52417,620.612854,681.659241,621.524048,679.405273,648.033508C678.795044,655.21106,678.892639,655.718994,681.471252,658.783508C684.771667,662.70575,689.798889,663.205627,692.863403,659.916199z"/>
    <path transform="matrix(-0.26455,0,0,-0.26455,-528.330994,-444.077362)" style="stroke:#000000;stroke-width:0.05mm;fill:none" d="M173.041794,649.406128C175.493805,646.879517,180.090897,642.800598,183.257553,640.341858C190.825012,634.466187,192.546387,631.243469,190.602432,626.590881C188.763824,622.190491,184.696884,619.545471,179.769562,619.545471C176.292007,619.545471,175.354218,620.146912,170.881927,625.245544C167.870789,628.678345,163.511673,632.208984,159.922653,634.121887C153.072723,637.772888,151.983887,640.056458,154.532318,645.42688C156.894714,650.405273,161.438385,654,165.368515,654C167.875046,654,169.566071,652.98761,173.041794,649.406128z"/>
    <path transform="matrix(-0.26455,0,0,-0.26455,-528.330994,-444.077362)" style="stroke:#000000;stroke-width:0.05mm;fill:none" d="M254.022125,649.478821C257.577362,646.072693,257.87738,642.385132,254.90654,638.608337C253.755142,637.144531,248.242645,632.2677,242.65654,627.770874C237.07045,623.273987,227.841507,614.917786,222.147797,609.201477C215.561111,602.588623,208.286301,596.517883,202.147797,592.511597C190.200897,584.7146,187.258926,581.614746,182.206177,571.5C180.008194,567.099976,174.074051,558.325012,169.019196,552C163.96434,545.674988,157.382355,537.453003,154.392563,533.728943C151.402786,530.004822,145.928864,524.847473,142.228302,522.268188C138.52774,519.688843,130.455063,512.511292,124.289017,506.318054C111.915817,493.89035,108.867073,492.212952,105.715996,496.099243C102.989311,499.462128,103.840912,508.142273,107.934303,518.709839C112.682487,530.967896,113.205826,531.422729,122.819511,531.646973C127.975929,531.767212,132.137054,532.44574,134.45047,533.543518C141.845139,537.052551,150.520737,549.322998,164.048904,575.406616C169.15686,585.255249,174.65094,594.81073,176.25798,596.641052C178.440994,599.12738,180.990433,600.503174,186.33992,602.081909C196.168304,604.982422,199.393326,607.20105,204.174255,614.350891C210.137833,623.269348,211.781265,624.837769,219,628.5C227.034592,632.576111,229.075256,634.733215,232.835388,643.124573C236.632065,651.597595,238.873917,653.263,245.772125,652.735168C249.879517,652.420898,251.702133,651.701477,254.022125,649.478821z"/>
    <path transform="matrix(-0.26455,0,0,-0.26455,-528.330994,-444.077362)" style="stroke:#000000;stroke-width:0.05mm;fill:none" d="M317.859955,645.008362C322.399719,642.812988,329.93396,639.375793,334.602692,637.370117C344.742889,633.013916,351.462646,627.319458,356.647064,618.68927C358.691986,615.285156,362.559784,609.218079,365.242126,605.206848C373.369598,593.052979,375.147125,584.607666,370.672577,579.405762C368.817719,577.249329,367.427338,576.679626,363.824707,576.599976C355.252533,576.4104,351.807678,580.29248,350.602692,591.5C349.574432,601.063965,347.301208,606.509216,341.84436,612.479919C332.887482,622.280151,323.246613,627.225403,308.599548,629.532654C299.948029,630.895508,295.764923,640.855835,301.454559,646.545471C304.882172,649.973083,308.245178,649.657959,317.859955,645.008362z"/>
    <path transform="matrix(-0.26455,0,0,-0.26455,-528.330994,-444.077362)" style="stroke:#000000;stroke-width:0.05mm;fill:none" d="M884.206665,635.232239C885.145325,634.427124,887.278442,630.193665,888.946838,625.824524C890.615295,621.455383,894.007568,614.746765,896.485352,610.916565C902.729614,601.263916,905.23175,596.003357,908.812378,585C914.114746,568.705322,913.980774,563.995789,908.214844,564.003723C901.49646,564.013,897.759521,568.872192,891.528503,585.701599C888.300293,594.420715,883.276428,602.378723,875.54248,611.02417C865.612183,622.124878,864.945679,625.921387,871.759216,632.574097C877.404053,638.085754,880.186829,638.679993,884.206665,635.232239z"/>
    <path transform="matrix(-0.26455,0,0,-0.26455,-528.330994,-444.077362)" style="stroke:#000000;stroke-width:0.05mm;fill:none" d="M153.652176,617.652161C160.96347,610.340881,160.96785,607.518555,153.685959,595.945557C150.763245,591.300476,145.99205,581.875,143.083328,575C135.046967,556.005432,131.445175,551.135254,123.815804,548.947144C116.971687,546.984314,116.297287,551.044006,121.430565,563.305603C125.357384,572.685364,130.741562,588.542358,135.417938,604.5C141.39093,624.882141,144.313904,626.990417,153.652176,617.652161z"/>
    <path transform="matrix(-0.26455,0,0,-0.26455,-528.330994,-444.077362)" style="stroke:#000000;stroke-width:0.05mm;fill:none" d="M313.352661,610.166931C328.148651,603.205872,331.206238,599.002686,333.533325,582.425049C335.544556,568.097412,337.356903,564.915039,345.536591,561.347778C348.738922,559.951233,352.163696,559.650452,363.371735,559.781555C376.490692,559.934998,377.65741,559.7854,384.871735,557.025452C389.067291,555.420349,395.200012,553.367004,398.5,552.462402C403.62326,551.058105,405.38974,549.894958,410.588989,544.502563C414.582458,540.360657,419.056396,536.988525,423.588989,534.703979C427.390045,532.788147,431.227051,530.383484,432.115692,529.360291C436.455383,524.363586,434.99881,515.733093,429.422638,513.403198C422.144318,510.362152,416.932739,512.60083,411.523254,521.09198C402.684418,534.966125,389.48291,541.043701,359.617432,544.987854C351.852844,546.013306,341.450012,547.391174,336.5,548.049866C320.150757,550.225281,319.632172,550.877441,319.54071,569.375427C319.484955,580.654175,319.182556,583.062561,317.390381,586.5C314.737061,591.589233,310.597778,593.992249,303.291168,594.685303C300.106018,594.987366,296.435455,595.901245,295.134369,596.716125C293.012146,598.045166,292.81488,598.754211,293.217285,603.606506C293.782318,610.420288,296.730438,614,301.776947,614C303.668091,614,308.858398,612.281311,313.352661,610.166931z"/>
    <path transform="matrix(-0.26455,0,0,-0.26455,-528.330994,-444.077362)" style="stroke:#000000;stroke-width:0.05mm;fill:none" d="M510.47879,592.721252C516.354431,586.845581,517.674316,571.926697,512.998718,564.238342C509.424835,558.361511,499.611023,558.983948,496.347748,565.294434C495.490906,566.951416,494.550812,571.794312,494.258667,576.056396C493.80246,582.712463,494.042847,584.457031,495.962585,588.422668C498.175262,592.993469,501.773499,595.882568,505.350006,595.959961C506.367493,595.981995,508.675446,594.524536,510.47879,592.721252z"/>
    <path transform="matrix(-0.26455,0,0,-0.26455,-528.330994,-444.077362)" style="stroke:#000000;stroke-width:0.05mm;fill:none" d="M713.697205,584.891113C720.810608,580.964478,721.43689,580.805054,727.820313,581.296631C731.494141,581.579529,736.204712,582.26001,738.288208,582.808777C741.656006,583.695862,742.403076,583.531738,745.020142,581.32959C748.453308,578.440735,750.294312,573.149353,749.829163,567.50708C749.560242,564.245117,748.970459,563.261597,746.607239,562.134094C742.691772,560.266113,733.496399,561.845276,721.240662,566.490479C714.382813,569.089783,710.41925,570,705.958557,570C695.655029,570,691.783081,567.324768,684.5,555.173584C681.720459,550.536194,679.432129,547.982361,677,546.803467C673.244446,544.983154,663.749023,543.301147,638.719421,540.022583C614.514954,536.852112,608.918518,534.313721,601.773071,523.264832C599.495178,519.742615,596.386719,516.217102,594.865417,515.43042C590.525146,513.185974,585.589478,513.633118,582.076721,516.588867C579.512512,518.746521,579,519.89978,579,523.512146C579,528.908936,582.217102,533.062866,589.09668,536.549011C591.756592,537.896851,596.20282,541.015686,598.977112,543.479675C605.30127,549.096436,607.300781,550.103149,618.80542,553.463074C626.800842,555.798096,630.109192,556.203186,642.30542,556.340332C655.690125,556.490906,656.827942,556.661072,662.248352,559.322754C665.915344,561.123413,671.989624,565.919067,679.024719,572.567566C690.719788,583.619995,698.660522,588.97522,703.376892,588.990601C704.959167,588.995789,709.603333,587.151001,713.697205,584.891113z"/>
    <path transform="matrix(-0.26455,0,0,-0.26455,-528.330994,-444.077362)" style="stroke:#000000;stroke-width:0.05mm;fill:none" d="M297.187347,579.123901L300.406281,576.247803L301.166229,561.373901C301.651459,551.876953,301.557861,545.348938,300.907318,543.315979C298.992737,537.332764,289.692993,531.02771,282.75,531.005554C281.787506,531.002502,280.048553,531.951477,278.885651,533.114319C276.380585,535.619385,276.557007,539.598511,279.878113,555.5C281.026825,561,282.457611,567.867737,283.057648,570.761597C284.347198,576.980835,288.150238,582,291.57312,582C292.890533,582,295.416962,580.70575,297.187347,579.123901z"/>
    <path transform="matrix(-0.26455,0,0,-0.26455,-528.330994,-444.077362)" style="stroke:#000000;stroke-width:0.05mm;fill:none" d="M719.744873,547.346558C729.286255,542.63208,734.745667,542.086731,743.439514,544.979858C751.258423,547.581848,754.370605,547.117798,756.481812,543.035156C758.505981,539.120911,758.47467,530.617554,756.428589,528.571411C754.22522,526.368042,729.953918,526.375854,719.207825,528.583374C710.689697,530.333252,702.441772,533.964722,699.75,537.150452C696.912292,540.508911,697.487488,545.390991,701.076721,548.411133C705.536072,552.163391,710.578247,551.875854,719.744873,547.346558z"/>
    <path transform="matrix(-0.26455,0,0,-0.26455,-528.330994,-444.077362)" style="stroke:#000000;stroke-width:0.05mm;fill:none" d="M512.218933,542.955994C517.464478,541.499146,521.760925,537.530029,523.164917,532.843811C524.195862,529.402893,524.115601,528.370117,522.598145,525.552429C518.90802,518.700256,505.759644,515.427063,498,519.428894C489.536682,523.79364,487.247772,529.110046,490.975952,535.743469C494.916412,542.754517,503.027954,545.508606,512.218933,542.955994z"/>
    <path transform="matrix(-0.26455,0,0,-0.26455,-528.330994,-444.077362)" style="stroke:#000000;stroke-width:0.05mm;fill:none" d="M329.700775,531.013672C332.340363,530.471191,340.56076,529.339722,347.968353,528.499329C370.495697,525.943481,383.222382,522.136719,392.783081,515.094421C397.600433,511.54599,400.990662,506.636322,400.996277,503.200348C401.005249,497.668579,395.391602,492,389.90451,492C388.508575,492,385.008514,494.701172,380.288727,499.420959C376.207214,503.502472,370.942596,507.746826,368.5896,508.852875C363.314545,511.332428,350.301971,513.868835,339,514.620422C327.926666,515.356812,320.881805,513.185364,310.305511,505.776031C299.629974,498.29718,297.220093,497.177612,286.993317,494.945587C280.671295,493.565765,277.392273,493.280548,275.615906,493.955933C269.105103,496.431335,271.289124,514.192932,278.225372,515.177246C279.47641,515.354736,283.305481,515.089172,286.734375,514.587036C296.478851,513.160034,300.03595,514.675171,309.071381,524.101257C316.133484,531.468689,316.920532,532,320.772156,532C323.043335,532,327.061218,531.556152,329.700775,531.013672z"/>
    <path transform="matrix(-0.26455,0,0,-0.26455,-528.330994,-444.077362)" style="stroke:#000000;stroke-width:0.05mm;fill:none" d="M683.515381,526.994141C684.970398,526.440918,689.283691,523.544922,693.100403,520.558533C701.088562,514.308289,707.578918,511.606842,719.675598,509.497345C730.416809,507.624237,734.68689,507.637177,743.5,509.56955C756.380981,512.39386,756.59845,512.40155,758.887451,510.112579C761.853699,507.146271,761.863586,498.367554,758.904785,494.60611C756.840637,491.981964,756.681274,491.952209,748.142517,492.596802C743.186401,492.970917,735.793213,492.761047,730.875244,492.106598C717.487671,490.325043,714.32312,491.310608,689.940674,504.855408C681.649292,509.461365,673.025696,511.374115,664,510.609192C650.459717,509.461639,645.031372,507.362488,632.640808,498.482452C624.937012,492.961365,616.113159,494.484222,613.057007,501.862305C611.40686,505.846161,612.266602,509.112762,615.929199,512.775391C620.903748,517.749939,625.667358,519.212463,651,523.542847C678.593689,528.259827,679.838806,528.391968,683.515381,526.994141z"/>
    <path transform="matrix(-0.26455,0,0,-0.26455,-528.330994,-444.077362)" style="stroke:#000000;stroke-width:0.05mm;fill:none" d="M583.918091,497.871338C593.129883,496.291718,596.77771,494.146393,603.887268,486.127136C613.441589,475.350403,622.692017,471.755341,631.450806,475.414978C633.313354,476.193237,638.136414,479.291199,642.16864,482.299377C651.174377,489.017883,654.599548,490.786194,660.934753,491.98764C668.33905,493.391815,676.259766,491.606659,685.556335,486.438385C702.443115,477.050476,709.37854,474.046906,716.439514,473.063568C723.868774,472.028961,732.875488,472.803497,744,475.433655C753.838989,477.759857,757.80249,477.527588,759.161438,474.545074C760.717285,471.130249,758.768982,466.814056,753.721313,462.493469C746.767029,456.540833,742.581848,455.751801,722.27124,456.564178C712.49707,456.955139,703.483948,457.65332,702.242126,458.115753C701.000305,458.578156,696.950317,461.287933,693.242126,464.137451C680.472534,473.950256,668.930115,477.640259,659.374146,474.964752C655.733154,473.945343,653.244751,472.144165,648.103821,466.807068C640.250793,458.654358,638.450378,458.010803,623.5,458.012177C610.624756,458.013336,610.06427,458.272003,601.855408,468C595.594055,475.420105,591.419189,478.540771,585.689758,480.083557C574.941711,482.977692,561.484802,474.566528,553.469543,459.944489C548.461121,450.807709,545.200317,448,539.597595,448C534.482239,448,531.270142,450.868225,529.980164,456.587891C528.594788,462.730438,530.715271,466.191101,539.184021,471.608673C543.207825,474.182739,550.549988,479.938721,555.5,484.399719C568.23291,495.874847,568.450623,496.041443,572.683777,497.551178C577.404297,499.234741,576.172119,499.199615,583.918091,497.871338z"/>
    <path transform="matrix(-0.26455,0,0,-0.26455,-528.330994,-444.077362)" style="stroke:#000000;stroke-width:0.05mm;fill:none" d="M351.95816,494.849182C359.458069,493.24939,365.786682,489.027893,373.619873,480.399811C381.889954,471.290466,385.001709,469.514648,391.425232,470.238678C397.173401,470.886597,400.451843,473.345612,408.439484,483.000488C415.491516,491.524414,419.339386,494.083679,427.799225,495.876801C438.985779,498.247864,442.311615,497.245911,452.815094,488.340424C456.288391,485.395569,461.829529,481.153046,465.128723,478.912598C471.141418,474.829437,474.989258,470.067291,474.996277,466.700348C475.003174,463.369537,472.023987,459.044373,469.231812,458.331604C462.65152,456.651825,459.306183,458.415558,453.415741,466.670288C447.983154,474.283356,443.85791,477.572479,438.127136,478.860107C428.674683,480.983917,418.019104,475.166107,408.946503,462.927856C402.267914,453.918915,399.803253,452.642426,389,452.597351C378.31189,452.552734,375.694092,453.871979,369.642365,462.352692C361.449585,473.833862,353.042999,479.014343,341.361511,479.780487C331.770538,480.409546,325.323059,477.557281,318.517822,469.674805C315.860931,466.597351,312.295013,463.442413,310.593536,462.663849C305.842712,460.489929,280.703125,459.585022,277.082001,461.457611C271.880371,464.147461,269.935059,473.379517,273.763245,477.207672C275.709198,479.153656,276.271912,479.221497,281.59668,478.15213C294.827942,475.494904,301.255585,477.055359,313.443329,485.883575C317.874481,489.093292,322.996887,492.486908,324.826385,493.424896C331.577942,496.886475,340.268585,497.342682,351.95816,494.849182z"/>
    <path transform="matrix(-0.26455,0,0,-0.26455,-528.330994,-444.077362)" style="stroke:#000000;stroke-width:0.05mm;fill:none" d="M507.978546,469.175293C510.33371,466.820129,510.914429,465.199402,511.471893,459.425293C512.32666,450.572083,513.231018,447.830902,517.687378,440.585907C520.09613,436.66983,521.480591,433.053558,521.7854,429.881805C522.199097,425.576172,521.937622,424.783783,519.199768,422.045898C516.858887,419.705017,515.261658,419,512.299438,419C504.990662,419,501.646271,423.377747,500.680939,434.208496C500.114197,440.567078,498.007813,446.195282,494.022369,452C490.920105,456.518402,489.908905,460.947998,491.029602,465.109955C492.327942,469.93158,495.260864,472,500.799438,472C504.244293,472,505.743866,471.409973,507.978546,469.175293z"/>
    <path transform="matrix(-0.26455,0,0,-0.26455,-528.330994,-444.077362)" style="stroke:#000000;stroke-width:0.05mm;fill:none" d="M346.834778,459.08429C351.264496,456.824402,358.950562,448.805664,359.115143,446.272339C359.523438,439.988586,357.321106,436.471924,351.313263,433.814392C344.734558,430.904297,340.938843,431.930695,334.511841,438.357727C325.736267,447.133301,325.227539,453.549286,332.897888,458.712677C337.045898,461.504944,341.839355,461.632782,346.834778,459.08429z"/>
    <path transform="matrix(-0.26455,0,0,-0.26455,-528.330994,-444.077362)" style="stroke:#000000;stroke-width:0.05mm;fill:none" d="M588.099243,457.929321C591.644287,455.405029,594,451.121521,594,447.199707C594,443.88446,589.342346,436.925629,585.390137,434.33606C579.935608,430.762115,572.860291,432.901123,568.955994,439.304321C566.49939,443.333282,566.480774,447.062286,568.893616,451.789825C573.410645,460.640167,580.920715,463.040924,588.099243,457.929321z"/>
    <path transform="matrix(-0.26455,0,0,-0.26455,-528.330994,-444.077362)" style="stroke:#000000;stroke-width:0.05mm;fill:none" d="M439.102112,456.736816C443.723267,453.658844,446.410858,448.003632,445.516968,443.23877C444.54068,438.034729,437.393158,431,433.081909,431C427.175232,431,420.742645,435.923798,419.081238,441.716736C417.555298,447.037384,422.655609,455.346497,429.000519,457.876556C432.95047,459.451599,435.449524,459.169647,439.102112,456.736816z"/>
    <path transform="matrix(-0.26455,0,0,-0.26455,-528.330994,-444.077362)" style="stroke:#000000;stroke-width:0.05mm;fill:none" d="M673.876709,454.970215C680.335144,452.039764,687.838379,446.213226,689.639893,442.729523C691.698486,438.748627,691.059387,429.828064,688.514038,427.015503C686.172852,424.428558,682.006836,424.445709,676.875793,427.063385C671.456604,429.828033,658.320374,442.875366,657.445129,446.362488C656.47998,450.207947,658.381775,453.82782,662.250671,455.50943C666.623962,457.410248,668.712585,457.313354,673.876709,454.970215z"/>
    <path transform="matrix(-0.26455,0,0,-0.26455,-528.330994,-444.077362)" style="stroke:#000000;stroke-width:0.05mm;fill:none" d="M308.397125,441.481781C310.477386,440.494659,313.274536,437.357025,316.393677,432.511932C322.167786,423.542816,327.404144,418.619965,334.745331,415.259064C339.373474,413.140228,341.267517,412.822205,346.865356,413.22406C355.863739,413.870026,361.057587,416.72934,369.5,425.684845C377.15152,433.801422,379.656738,434.936188,390,434.970581C399.911316,435.00351,402.245514,433.784119,409.966614,424.539948C418.898529,413.846161,425.008667,410.450989,433.875,411.254944C444.207458,412.191864,451.516479,417.88913,459.128571,430.939636C464.658844,440.42099,467.711609,443,473.404297,443C480.878479,443,485.559296,433.141144,481.415619,426.126434C480.544189,424.651245,476.831696,421.570496,473.165619,419.280365C469.499512,416.990204,461.784729,410.817719,456.021606,405.563782C443.129974,393.811096,440.692871,392.540955,432.578003,393.345581C421.081757,394.485504,419.179657,395.46106,409.959473,404.946106C400.228668,414.956451,396.375,417.351685,390,417.351685C384.347351,417.351685,381.190338,415.689911,372.870758,408.335388C361.403503,398.198303,351.766846,394.951202,339.019318,396.929047C325.976257,398.952759,319.654053,403.094727,310.283386,415.75531C302.001007,426.945526,297.661469,428.763489,287.99881,425.090973C280.802521,422.355835,277.431061,422.399109,275.604645,425.25C272.761749,429.687561,273.183289,437.2742,276.454559,440.545441C278.811615,442.902527,279.431061,443,292.053406,443C301.735748,443,306.040405,442.600128,308.397125,441.481781z"/>
    <path transform="matrix(-0.26455,0,0,-0.26455,-528.330994,-444.077362)" style="stroke:#000000;stroke-width:0.05mm;fill:none" d="M641.50885,437C642.974121,435.625,646.146729,431.736511,648.559265,428.358948C653.453064,421.507385,660.702881,414.711334,666,412.009735C667.924988,411.027985,672.650024,409.28656,676.5,408.139954C680.349976,406.993317,685.959839,404.467773,688.966248,402.527588C695.924683,398.037048,701.441895,397.7146,705.300171,401.572937C708.749634,405.022369,709.353638,408.515015,707.53656,414.505493C704.448975,424.684875,706.075989,436.364777,710.94458,438.970367C716.803894,442.106171,724,438.084839,724,431.674744C724,423.95755,720.788086,398.428558,719.398804,395.103577C716.014099,387.002808,708.93927,383.303345,698.848999,384.358002C692.66687,385.00415,668.734192,392.747253,659.5,397.088837C654.409912,399.481995,647.315552,406.021515,638.713074,416.250092C628.253967,428.686249,618.82312,426.154999,603.308838,406.74762C597.537659,399.528168,593.646545,397.012238,585.164063,395.015411C577.833801,393.289795,572.052185,394.130188,567.286804,397.613953C565.115479,399.201263,559.344543,403.424988,554.462463,407C541.013611,416.848175,538,420.038513,538,424.427795C538,429.48703,541.578491,433,546.732056,433C551.626099,433,553.762573,431.444092,560.550476,422.936707C567.046509,414.795135,571.761719,412,579,412C587.803406,412,594.881104,416.801971,603.746399,428.789642C611.688171,439.528473,613.001099,440.145081,627.172424,439.791351C638.043457,439.52002,639.027771,439.328339,641.50885,437z"/>
    <path transform="matrix(-0.26455,0,0,-0.26455,-528.330994,-444.077362)" style="stroke:#000000;stroke-width:0.05mm;fill:none" d="M754.479187,437.611725C755.792725,436.298187,757.187927,433.515289,757.57959,431.427521C758.577087,426.110413,753.703308,397.052002,749.896851,385.621613C748.150574,380.377686,746.482971,372.651733,745.97406,367.44754C745.487183,362.468689,744.794189,357.627289,744.434143,356.688904C743.425293,354.059906,739.26239,353.552032,733.531006,355.358704C724.334106,358.257782,719.077332,357.392212,709,351.319489C701.626343,346.876068,697.730591,346.968781,686.422424,351.856781C681.515076,353.977997,672.775024,357.144043,667,358.892456C634.896851,368.611786,616.195923,378.696716,613.822998,387.569458C612.229675,393.527069,618.28833,401,624.711792,401C628.401733,401,629.680115,399.939514,637.918762,390.044281C643.286926,383.596649,647.814087,381.348328,672.251221,372.9935C691.968201,366.252441,699.039246,365.10495,709.566101,366.93811C728.750061,370.27887,734.679382,377.497375,739.107666,402.902679C740.685242,411.953644,740.987549,416.698547,740.484436,424.513306C739.887695,433.782837,739.999695,434.729919,741.992493,437.263306C744.886902,440.942963,750.977966,441.112915,754.479187,437.611725z"/>
    <path transform="matrix(-0.26455,0,0,-0.26455,-528.330994,-444.077362)" style="stroke:#000000;stroke-width:0.05mm;fill:none" d="M291.516846,406.991852C294.237946,405.674591,297.180908,402.891357,300.071014,398.901978C305.503876,391.402679,311.40448,386.97879,321.212555,383.051453C332.092712,378.694824,338.142242,377.63562,347.984283,378.364014C363.02298,379.47702,370.355713,382.312927,380.456726,390.922699C385.570068,395.281128,387.010406,396,390.629791,396C393.967987,396,395.462219,395.383942,397.804108,393.042023C403.659363,387.186798,402.520081,381.667969,394.136047,375.273254C388.758118,371.171356,380.823151,368.801666,360,365.078857C350.924988,363.45639,341.00824,361.577118,337.962769,360.902649C330.623566,359.277313,328.534943,359.950287,320.514374,366.524628C312.154144,373.37735,308.898407,374.775543,298.625397,375.924866C291.224823,376.752838,290.280945,377.116913,287.408142,380.251709C283.783752,384.206604,279.723572,395.405457,279.590332,401.814941C279.443146,408.895477,283.735596,410.758698,291.516846,406.991852z"/>
    <path transform="matrix(-0.26455,0,0,-0.26455,-528.330994,-444.077362)" style="stroke:#000000;stroke-width:0.05mm;fill:none" d="M498.076935,406.076935C500.319,403.834839,501,402.235474,501,399.211792C501,393.740601,498.299896,390.769562,490.273926,387.409424C474.455719,380.786987,469,375.073425,469,365.130035C469,358.771088,470.803558,354.266388,476.223907,347.087219C478.508942,344.060699,480.937897,339.990448,481.621552,338.042236C482.925476,334.326508,482.834442,333.304565,480.312256,323.342682C479.234314,319.085114,478.88855,314.302826,479.191559,307.842682C479.720123,296.574127,481.381531,292.891724,489.497681,285C498.132172,276.604248,498,277.099915,498,253.114761C498,241.42598,497.553223,230.955063,496.991394,229.477402C496.436676,228.018356,493.39917,224.256134,490.241394,221.116928C487.083618,217.977707,482.765472,213.528748,480.645477,211.230331C477.916992,208.272217,475.725952,206.886002,473.145477,206.485199C461.783447,204.720474,458,202.068024,458,195.867203C458,193.337708,458.788422,191.19548,460.414856,189.305771C462.7034,186.64679,463.268097,186.5,471.208679,186.5C480.487396,186.5,484.31958,184.919861,486.044647,180.382599C488.568024,173.745621,485.585571,168.499908,479.35675,168.619492C474.09491,168.72052,449.619843,178.516861,445.422943,182.201782C441.100983,185.996521,440.169556,190.536987,442.474792,196.573166C444.539246,201.978867,450.127747,207.829956,463.652863,218.746368C469.236938,223.253387,475.195892,228.627487,476.89502,230.688797C482.442444,237.418793,484.867126,248.678696,483.000153,259.0401C481.611755,266.745361,478.919189,272.397919,472.50885,281.064728C463.444305,293.320038,462.479401,298.189636,464.397644,322C465.398254,334.420441,464.518494,338.668365,459.496918,345.662598C457.586731,348.323151,455.171722,352.075012,454.130219,354C451.68634,358.517029,450.591217,368.265076,451.883423,374C452.989075,378.907074,454.408875,380.425385,472.456055,396C488.741821,410.054535,492.586975,411.566864,498.076935,406.076935z"/>
    <path transform="matrix(-0.26455,0,0,-0.26455,-528.330994,-444.077362)" style="stroke:#000000;stroke-width:0.05mm;fill:none" d="M531.027466,403.29129C532.38739,402.351501,536.686279,398.864014,540.580627,395.54129C544.474915,392.218597,550.688843,387.354279,554.389282,384.73172C562.768311,378.793365,564.440247,375.3974,563.748047,365.722595C563.300598,359.468964,562.822876,358.297821,557.628357,350.719727C554.52948,346.198883,551.545349,340.927979,550.997009,339.006592C549.669739,334.355988,549.737183,324.700592,551.172241,313.921997C553.019592,300.046967,551.326782,294.545959,540.615601,279.616821C533.238831,269.335083,530.55603,260.904144,531.243591,250.164047C532.227783,234.79129,538.433533,225.173019,556.48114,211.048569C565.947571,203.639908,567.913147,201.583511,570.73114,196.139877C574.688477,188.4953,575.139954,181.15477,572.027893,175.054688C568.045166,167.24794,560.341919,163.841858,541.383728,161.505035C523.415894,159.290283,516.718994,155.908401,511.67041,146.5C509.961243,143.314819,509.521545,140.768494,509.511993,134C509.497101,123.451065,511.630554,119.160965,520.201294,112.505196C523.428589,109.99897,526.550537,106.722519,527.138855,105.224205C529.013062,100.451553,524.642578,78.889069,520.882874,74.358849C517.637085,70.447945,514.827759,74.801056,511.879425,88.309746C509.036621,101.335045,506.911469,105.419769,498.458588,114.105934C489.987549,122.810722,489.720795,123.808189,493.673187,132C496.040375,136.906326,496.309784,138.55896,496.169037,147.310562C495.933502,161.956711,497.590759,164.250168,511.5,168.5271C516.009338,169.913681,522.082886,172.745422,525.419617,175.017029C533.180786,180.300735,534.78064,180.595398,542.165955,178.101334C545.588257,176.945602,549.404785,176,550.647095,176C556.343872,176,561,180.744919,561,186.550339C561,190.979675,555.541687,195.458237,548.459534,196.839828C540.35907,198.420059,538.322998,200.074661,534.879578,207.875412C532.549866,213.153183,530.384277,215.950668,524.227661,221.635437L516.5,228.770874L516.181152,248.635437C515.73938,276.157043,515.670715,275.850555,524.125305,284.122589C532.914856,292.722382,535.226501,297.656342,535.780884,309C536.0979,315.487274,535.687012,319.482513,534.045593,325.872467C532.734863,330.975006,532.149048,335.4021,532.545654,337.207794C532.903564,338.837402,535.964722,344.267792,539.348206,349.27533C545.375854,358.196259,545.5,358.516083,545.5,365.124329C545.5,371.240295,545.22052,372.166809,542.5,375.068512C540.849976,376.82843,535.423462,380.178314,530.441101,382.512726C519.355591,387.706635,515.522766,391.636902,516.367004,396.944672C517.466675,403.858582,525.299805,407.249603,531.027466,403.29129z"/>
    <path transform="matrix(-0.26455,0,0,-0.26455,-528.330994,-444.077362)" style="stroke:#000000;stroke-width:0.05mm;fill:none" d="M599.349976,375.599365C601.08252,373.729004,604.75,369.600311,607.5,366.424469C611.639832,361.643616,614.220337,359.82431,622.5,355.849335C628,353.208832,637.674988,349.427704,644,347.446808C675.883606,337.461304,686.731689,333.172974,690.412781,329.099457C691.464844,327.935272,693.103882,323.396332,694.055176,319.012909C696.706543,306.79538,699.530273,302.782043,708.516235,298.459991C719.632629,293.11322,720.941223,290.288177,716.46344,281.302521C713.079346,274.511475,709.526611,272.893372,704.63623,275.915802C699.349976,279.182892,691.796875,289.114807,684.873352,301.902985C674.797852,320.513092,667.20459,326.955719,652.908875,329.02356C637.694336,331.224335,634.712708,332.00528,629.668701,335.110687C626.825928,336.86087,620.753601,339.559875,616.174622,341.10849C609.450989,343.382446,606.739868,344.951233,602.082886,349.262756C598.911438,352.199005,593.728455,355.910858,590.565186,357.511322C583.290039,361.1922,581,364.048981,581,369.443726C581,375.966522,584.360901,378.917236,591.849976,378.969604C595.532715,378.995331,596.683228,378.478333,599.349976,375.599365z"/>
    <path transform="matrix(-0.26455,0,0,-0.26455,-528.330994,-444.077362)" style="stroke:#000000;stroke-width:0.05mm;fill:none" d="M431.799347,374.972321C434.440521,372.511658,435.447784,368.939423,434.54068,365.25C433.395935,360.594025,431.27713,358.265045,425.273621,355.063721C422.098114,353.370422,416.497803,349.388153,412.828461,346.214233C406.795746,340.996094,405.022888,340.087158,394.313599,336.721771C383.828491,333.426819,381.281128,333,372.101166,333C366.398132,333,359.946503,332.465027,357.764191,331.811188C351.179993,329.838531,345.013855,323.333099,338.945923,311.957367C333.508942,301.764557,325.142242,291.814697,320.86731,290.457886C315.467621,288.74408,311.535034,292.817322,310.367859,301.332916C309.565613,307.185822,310.801483,309.08255,317.873199,312.851715C325.830139,317.092743,328.481171,320.509796,331.504578,330.421997C335.221832,342.608948,335.650055,342.868134,358.007507,346.461731C392.064087,351.93576,398.054382,353.655029,405.303711,360.036133C407.783936,362.219299,410.979919,365.996399,412.405914,368.429657C416.147949,374.814941,419.345184,377,424.946289,377C428.261902,377,430.256256,376.409912,431.799347,374.972321z"/>
    <path transform="matrix(-0.26455,0,0,-0.26455,-528.330994,-444.077362)" style="stroke:#000000;stroke-width:0.05mm;fill:none" d="M511.832581,372.457062C519.139221,370.287231,524,365.815857,524,361.264435C524,356.792755,520.713135,351.420135,516.711365,349.350769C512.98407,347.423279,502.377625,347.212524,498.917816,348.997192C491.449982,352.849335,487.651367,360.491333,490.482788,365.966705C492.091797,369.078217,496.32373,371.804779,501.5,373.064941C505.941864,374.146301,506.194366,374.131439,511.832581,372.457062z"/>
    <path transform="matrix(-0.26455,0,0,-0.26455,-528.330994,-444.077362)" style="stroke:#000000;stroke-width:0.05mm;fill:none" d="M303.617157,356.311188C311.002716,352.694824,316,347.106537,316,342.463867C316,335.101471,306.653107,322.460602,301.751129,323.193451C300.623352,323.362061,298.866211,324.625,297.846344,326C295.056,329.761993,289,347.539978,289,351.96936C289,359.409271,294.159912,360.941956,303.617157,356.311188z"/>
    <path transform="matrix(-0.26455,0,0,-0.26455,-528.330994,-444.077362)" style="stroke:#000000;stroke-width:0.05mm;fill:none" d="M581.930542,342.535919C585.881836,340.492615,590,335.316376,590,332.393127C590,331.043762,588.762512,327.140808,587.25,323.719879C584.553406,317.620789,584.5047,317.161316,584.740723,300.060272C585.015015,280.186676,585.139221,280.59549,576.442993,272.749146C570.194275,267.111084,566.991638,261.055054,567.021973,254.93428C567.065063,246.234222,570.605286,241.557129,587.78595,227.502304C591.793213,224.224106,596.600342,219.282516,598.468445,216.520981C604.048218,208.272446,604.831787,203.798553,605.116333,178.562134L605.370422,156.023209L602.935242,153.393616C601.595825,151.947342,593.974976,147.52063,586,143.556473C578.025024,139.592316,565.046326,133.085434,557.158508,129.096741C538.709839,119.767662,537.249329,119.515396,532.011353,124.753349C528.702637,128.062042,528,129.447006,528,132.659851C528,140.191315,531.133972,142.141541,546.028442,143.878647C567.147522,146.34169,586.512756,158.044769,589.983887,170.442444C590.81012,173.393524,591.101624,178.768982,590.813965,185.750641C590.447876,194.635895,589.913574,197.509094,587.747314,202.240814C583.914551,210.612671,580.8797,214.12294,568.908325,224.031296C553.386902,236.877884,549.75,242.291351,549.75,252.547974C549.75,259.549255,552.195801,265.363892,558.86377,274.214905C568.761292,287.352844,570.988892,296.511017,569.097961,316.290802C567.59314,332.031708,568.490723,337.552246,573.198975,341.513947C576.614746,344.388153,578.028687,344.55365,581.930542,342.535919z"/>
    <path transform="matrix(-0.26455,0,0,-0.26455,-528.330994,-444.077362)" style="stroke:#000000;stroke-width:0.05mm;fill:none" d="M443.286926,338.070831C446.627289,334.101074,447.349274,328.023468,445.930389,315.818634C443.714996,296.762451,445.754608,287.821014,455.484314,273.935699C462.707397,263.627594,464.956085,258.657257,464.956085,253C464.956085,245.921738,462.111298,241.112823,453.380615,233.43251C438.026703,219.925781,429.050842,210.355148,426.541565,204.814941C419.775299,189.875885,421.739014,175.828766,431.531738,169.118683C436.737,165.551987,454.46994,158.120636,464.343353,155.368317C476.018738,152.113678,479,149.381165,479,141.93457C479,139.165924,478.313446,135.573029,477.474335,133.950333C474.987091,129.140564,471.522888,129.91571,463.398346,137.099976C455.419647,144.155273,451.715515,146.241577,443.293243,148.424011C439.945526,149.291489,433.903015,151.407013,429.865417,153.125153C425.82785,154.843292,420.307373,156.907425,417.597656,157.712112C414.88797,158.516815,411.404449,160.441711,409.856476,161.98967L407.041992,164.804153L407.608398,182.652069C408.483276,210.219604,409.839752,213.273621,428.662079,230.053101C443.140198,242.959839,447,248.241257,447,255.145126C447,262.223755,445.078552,265.879486,438.082611,272.111267C430.256378,279.082672,428.786133,282.81958,430.039856,292.553589C431.523834,304.075073,431.189056,311.532623,428.907684,317.774994C424.619232,329.509186,424.632629,329.423584,426.475952,333.308075C430.060638,340.862244,438.844208,343.350739,443.286926,338.070831z"/>
    <path transform="matrix(-0.26455,0,0,-0.26455,-528.330994,-444.077362)" style="stroke:#000000;stroke-width:0.05mm;fill:none" d="M736.065735,337.964813C738.578796,336.619873,738.594177,332.040131,736.109863,324.819366C730.754578,309.253998,725.818115,305.708771,718.475891,312.155334C711.292725,318.462189,708.457764,328.902191,712.76001,333.204437C717.132324,337.576782,731.360474,340.483002,736.065735,337.964813z"/>
    <path transform="matrix(-0.26455,0,0,-0.26455,-528.330994,-444.077362)" style="stroke:#000000;stroke-width:0.05mm;fill:none" d="M513.496582,328.75C519.545898,323.531342,519.453125,304.600739,513.345093,297.819031C506.11203,289.7883,496.970856,297.767548,497.023865,312.065735C497.071747,324.977997,500.403656,331,507.5,331C509.574524,331,511.899811,330.127533,513.496582,328.75z"/>
    <path transform="matrix(-0.26455,0,0,-0.26455,-528.330994,-444.077362)" style="stroke:#000000;stroke-width:0.05mm;fill:none" d="M617.053345,322.309418C621.367188,319.761169,622.651917,315.788666,620.994324,310.123718C620.250244,307.580658,619.457703,303.176056,619.233093,300.335693C618.618713,292.563843,620.822388,288.974121,631.264465,280.737183C641.901184,272.34671,645.799255,267.615356,654.175049,252.929092C657.64325,246.847839,661.755798,240.325577,663.314087,238.43515C667.319946,233.575348,673.742737,230.118057,681.140076,228.839722C689.092285,227.465485,692.575378,225.726288,694.371155,222.233078C695.762756,219.526138,700.903198,198.064835,702.929993,186.5C703.508301,183.199997,705.102905,170.375,706.47345,158C707.843994,145.625,709.349915,132.125,709.819885,128C710.289917,123.875,710.601318,108.349998,710.511963,93.5C710.349548,66.504295,710.349121,66.499207,707.745361,61.5C704.805664,55.855801,698.098694,48.619503,693.69751,46.343575C689.607178,44.22839,684.733521,45.339531,681.560303,49.110729C677.633606,53.77729,678.220398,55.794456,685.609009,63.028889C695.525757,72.738731,696.897949,77.767166,693.012878,90.160904C690.395813,98.50975,690.49585,103.049271,693.483276,111.5C697.490234,122.8349,696.962036,127.913246,689.999084,145L687.757813,150.5L689.488708,161.038727C690.939453,169.871704,691.033691,172.785126,690.071228,179.038727C687.992065,192.547012,684.931763,203.716064,682.075562,208.219803C678.787903,213.403946,675.05835,215.410049,665.670288,217.044235C661.422852,217.783569,657.94104,219.039734,656.461487,220.366531C655.153015,221.539948,651.519287,227,648.386536,232.5C636.232605,253.837982,626.044495,266.654663,614.687134,274.894012C610.184204,278.160706,605.889832,281.841156,605.144043,283.072815C603.446655,285.876038,601.646667,305.783997,602.477417,312.565948C602.818665,315.352203,603.969299,319.064697,605.034241,320.815948C606.63562,323.449188,607.595154,324,610.580994,324C612.566711,324,615.479248,323.239258,617.053345,322.309418z"/>
    <path transform="matrix(-0.26455,0,0,-0.26455,-528.330994,-444.077362)" style="stroke:#000000;stroke-width:0.05mm;fill:none" d="M408.947266,320.052734C412.230011,316.769989,413.293701,310.528381,412.535095,299C411.620575,285.102386,410.237732,282.171295,401.537018,275.688232C392.108795,268.663116,367.840942,241.45488,363.951233,233.548447C362.296906,230.18576,359.86734,222.263962,358.479736,215.708221C357.106995,209.222748,355.046265,200.67276,353.900299,196.708221C352.463348,191.737,351.725403,185.931107,351.5224,178C351.235077,166.773651,351.128326,166.297729,347.035736,158L342.843384,149.5L343.467133,137.5C344.047913,126.327217,343.915436,125.001518,341.545471,118.268784C338.478333,109.555595,338.344604,104.218079,341,96.5C343.690674,88.679459,343.535828,86.139435,339.899323,78.442741C338.193939,74.833321,336.756317,70.386871,336.70459,68.56176C336.497223,61.246864,343.546509,56.530205,350.404053,59.39547C354.194885,60.979378,356.085449,64.056496,358.027039,71.80275C358.620178,74.169258,360.040039,77.040024,361.18222,78.182236C363.063385,80.063393,364.121124,80.213875,372.413757,79.780113C381.100739,79.325729,385.593109,78.058784,387.23468,75.600296C388.585144,73.577797,388.020172,69.398766,386.120605,67.35984C384.248077,65.349892,382.987885,64.763985,373.5,61.492069C369.658569,60.167343,366.762146,57.965469,361,51.989498C352.722748,43.405102,350.615143,42,346.016083,42C336.486664,42,325.545685,56.170856,324.083313,70.407547C322.381165,86.978508,326.140045,137.664581,330.875793,162C332.53479,170.524994,334.813904,182.752289,335.94046,189.171753C337.067047,195.591217,339.41272,204.366211,341.153107,208.671753C343.956635,215.607452,344.351105,217.803223,344.612885,227.930222L344.908325,239.360443L353.704163,247.930222C358.54187,252.6436,364.937408,259.742432,367.916443,263.705383C370.895477,267.668365,377.022369,274.113312,381.531738,278.027557C394.796448,289.541595,396.661407,293.112335,395.505707,304.782898C394.497498,314.964142,394.578064,315.873993,396.696289,318.229919C400.321747,322.262238,405.906769,323.093231,408.947266,320.052734z"/>
    <path transform="matrix(-0.26455,0,0,-0.26455,-528.330994,-444.077362)" style="stroke:#000000;stroke-width:0.05mm;fill:none" d="M376.746735,313.331696C378.712067,310.643921,378.275452,302.964081,375.939453,299.132416C374.810272,297.280273,369.4841,291.430267,364.103485,286.132416C358.7229,280.834595,350.857452,271.929504,346.624725,266.343323C342.391968,260.757172,338.233032,255.919662,337.382629,255.593338C332.515411,253.725616,329.102051,255.919739,325.105316,263.485199C320.95224,271.346649,322.552673,275.022522,331.412262,277.970795C340.61145,281.032104,345.742859,285.945068,351.540771,297.242432C357.946136,309.723419,359.610687,311.910889,364.401062,314.142914C369.137207,316.349701,374.812592,315.976776,376.746735,313.331696z"/>
    <path transform="matrix(-0.26455,0,0,-0.26455,-528.330994,-444.077362)" style="stroke:#000000;stroke-width:0.05mm;fill:none" d="M655.512573,309.545502C660.786072,306.455017,662.985046,303.528717,671.95752,287.661011C680.814026,271.998413,683.60022,268.727386,691.41333,264.819641C694.760986,263.145325,698.287476,261.081207,699.25,260.232727C701.682495,258.088379,701.441528,252.950989,698.719055,248.911087C695.782043,244.552856,692.282898,243.299072,687.258118,244.80452C680.554626,246.812927,675.476257,252.277145,667.223633,266.361084C659.58606,279.395508,654.466858,285.522705,644.639648,293.392029C636.91626,299.57666,634.988342,307.705658,640.329163,311.566956C643.231384,313.665192,650.026611,312.760498,655.512573,309.545502z"/>
    <path transform="matrix(-0.26455,0,0,-0.26455,-528.330994,-444.077362)" style="stroke:#000000;stroke-width:0.05mm;fill:none" d="M604.130676,261.156128C615.640015,251.304611,638.536682,217.873352,639.696411,209.226944C640.012085,206.873077,639.395569,202.473602,638.105957,197.877701C634.726624,185.834488,635.746033,173.571091,641.199097,160.66777C646.557434,147.988464,650.929382,143.953949,662.423157,141.081696C666.692566,140.014786,671.107544,138.322433,672.234131,137.320923C677.011841,133.073639,679.46283,122.647606,676.850281,117.684258C674.17926,112.609665,670.970337,112.810104,662.546997,118.577698C658.869934,121.095428,653.336487,124.024101,650.250427,125.085861C642.905029,127.613045,641.275208,129.233871,639.349976,135.92601C636.928528,144.342911,634.503174,148.453796,629.577209,152.490265C622.325317,158.432632,621.587708,161.596344,622.402466,183.264984C623.195862,204.365051,622.515076,209.415451,617.498596,219.644745C613.230835,228.347351,606.859436,235.607986,597.258606,242.709595C587.056885,250.255722,584.668762,255.766571,589.138123,261.448456C593.332886,266.781281,597.657532,266.69693,604.130676,261.156128z"/>
    <path transform="matrix(-0.26455,0,0,-0.26455,-528.330994,-444.077362)" style="stroke:#000000;stroke-width:0.05mm;fill:none" d="M424.411102,261.923279C429.46936,255.911896,427.510956,251.343079,415.977448,242.248108C402.761688,231.826584,396.102692,223.14679,391.975037,210.961838C390.131775,205.520523,389.801147,202.412857,389.881409,191.284531C389.933868,184.016022,389.534851,176.906754,388.994751,175.48616C386.920288,170.029968,376.071411,168.481644,371.559784,172.997879C369.030151,175.530075,369.008881,181.470566,371.495331,191C372.428101,194.574997,374.230347,202.503174,375.500275,208.618149C376.770203,214.733124,379.052246,222.274872,380.571503,225.377579C383.340057,231.031693,406.896881,258.523621,412.643951,262.807678C416.902679,265.982239,421.272034,265.653839,424.411102,261.923279z"/>
    <path transform="matrix(-0.26455,0,0,-0.26455,-528.330994,-444.077362)" style="stroke:#000000;stroke-width:0.05mm;fill:none" d="M513.516296,207.851563C522.588623,199.885956,522.147095,191.46637,512.444458,187.412354C503.242859,183.567673,494.496979,187.835815,494.503265,196.167969C494.507111,201.284714,498.226593,206.875137,503.28714,209.370316C507.88208,211.63591,509.475616,211.399307,513.516296,207.851563z"/>
    <path transform="matrix(-0.26455,0,0,-0.26455,-528.330994,-444.077362)" style="stroke:#000000;stroke-width:0.05mm;fill:none" d="M665.906799,197.424957C669.937073,194.033722,671.957764,187.120117,672.607239,174.5C673.223389,162.526413,672.207397,159.669403,667.15979,159.18161C664.477661,158.922409,663.256104,159.509003,660.58905,162.336899C656.175354,167.016769,654.5,173.429871,654.5,185.64502C654.5,194.218033,654.795166,196.116196,656.404968,197.89502C658.952087,200.709503,662.19397,200.549118,665.906799,197.424957z"/>
    <path transform="matrix(-0.26455,0,0,-0.26455,-528.330994,-444.077362)" style="stroke:#000000;stroke-width:0.05mm;fill:none" d="M395.035492,151.964493C396.248199,150.751785,397,148.64534,397,146.460159C397,142.244629,393.768677,135.48175,391.062469,134.033432C388.489594,132.656464,370.132385,132.70929,366.128113,134.105179C364.38443,134.713028,362.517273,136.033447,361.978882,137.039444C360.59903,139.617737,360.825409,146.057144,362.395508,148.889923C364.701385,153.050247,367.63205,153.84697,380.785492,153.889389C391.694733,153.924561,393.291077,153.708923,395.035492,151.964493z"/>
    <path transform="matrix(-0.26455,0,0,-0.26455,-528.330994,-444.077362)" style="stroke:#000000;stroke-width:0.05mm;fill:none" d="M392.224335,115.120537C393.52478,114.904121,396.03183,109.105156,396.974976,104.13195C398.069397,98.361031,397.158203,94.180977,394.407654,92.354683C392.66449,91.197258,391.591248,91.437065,385.955475,94.243263C380.381592,97.018639,378.236298,97.507843,370.246552,97.825447C361.746765,98.163338,360.830505,98.400017,358.996552,100.731506C356.384735,104.051918,356.386963,109.950912,359.001282,113.274513L361.002594,115.818741L376.251282,115.529907C384.638092,115.37104,391.825958,115.186829,392.224335,115.120537z"/>
    <path transform="matrix(-0.26455,0,0,-0.26455,-528.330994,-444.077362)" style="stroke:#000000;stroke-width:0.05mm;fill:none" d="M646.610474,107.398132C648.749695,105.96711,651.625,103.749374,653,102.469841C655.519653,100.125122,664.960754,95,666.760376,95C668.986084,95,673.03125,90.62767,674.09729,87.069695C675.65332,81.87606,673.112854,74.254089,668.052856,68.934891C664.938171,65.660683,663.651428,65,660.389221,65C658.232971,65,654.900818,65.833725,652.984375,66.852715C649.448486,68.732826,648.307068,70.974258,645.998474,80.571503C645.459778,82.810829,642.99939,87.760826,640.530945,91.571503C637.058167,96.932564,636.037964,99.44532,636.021423,102.678574C635.983521,110.076439,639.958313,111.848007,646.610474,107.398132z"/>
</svg>
