<?xml version="1.0" encoding="UTF-8"?>
<svg xmlns="http://www.w3.org/2000/svg" width="419.493mm" height="265.145mm" viewBox="-1483.813477 -815.940918 419.493042 265.145142">
    <path transform="matrix(-0.43019,0,0,-0.43019,-1053.767944,-462.969452)" style="stroke:#000000;stroke-width:0.05mm;fill:none" d="M615.5,819.327087C611.946106,818.37793,607.173889,818.169922,599,818.608032C591.552124,819.007202,585.385864,818.798767,581.5,818.016418C578.200012,817.352051,572.125,816.222229,568,815.505676C549.045715,812.213196,520.958862,803.375732,498,793.480286C481.375488,786.315063,479.459229,785.414612,476.29245,783.279785C474.481018,782.058655,470.411682,779.634216,467.249481,777.892151C459.896973,773.841675,446.192108,764.827271,438.557678,759.020081C424.518433,748.341003,412.842896,740.683411,403.5,736.027039C393.156433,730.871887,390.045441,729.00238,374,718.299377C362.043335,710.323792,352.912994,703.487305,346.5,697.708252C343.75,695.230103,338.575012,691.047852,335,688.414368C331.424988,685.780884,325.739532,681.122803,322.365662,678.06311C316.6828,672.909424,307.566956,665.049927,294.456177,654C283.098633,644.427734,273.597656,636.250977,266.859833,630.25C263.000275,626.8125,259.443512,624,258.955963,624C258.468384,624,256.018036,620.962524,253.510712,617.25C251.003403,613.537476,247.140228,608.025024,244.925903,605C242.711578,601.974976,238.424591,595.900024,235.399292,591.5C232.373978,587.099976,227.46785,580.349976,224.496765,576.5C221.525696,572.650024,217.610977,567.522522,215.797409,565.105652C210.692963,558.30304,204.160538,550.589172,196.5,542.318115C190.127426,535.437683,185.266006,531.427551,163.597473,515.177246C150.805801,505.584137,118.579361,474.158569,84.233467,437.785583C54.981979,406.807678,54.711357,406.477478,48.679111,394.401367C40.895607,378.819397,34.185078,361.044312,31.161474,348C27.806993,333.528259,25.060452,321.105865,24.621347,318.419556C24.04355,314.884735,25.953876,310.581879,34.796844,295.5C40.374935,285.98645,40.970036,285.34082,47.030396,282.227631C50.534027,280.427826,55.421021,277.727814,57.890385,276.227631C60.359745,274.727448,68.699417,270.350006,76.422989,266.5L90.465843,259.5L94.270393,253C96.362892,249.425003,100.134987,242.449997,102.652824,237.5C107.845192,227.291931,113.587212,217.455933,116.079651,214.5C117.007172,213.399994,118.515335,211.01799,119.431129,209.20665C121.370125,205.37149,124.825249,203.488342,128.315552,204.364349C131.491699,205.161514,141.546707,212.593887,150.73172,220.933716C154.709183,224.545166,160.013596,229.300003,162.519318,231.5C167.040466,235.469498,171.121017,243.583389,182.635742,271.5C191.784317,293.680054,199.557312,324.935211,204.023468,357.5C204.626907,361.899994,204.981003,373.388489,204.810318,383.029968L204.5,400.559906L208.424866,408.529968C211.773605,415.330109,214.199371,418.334808,224.950851,429C231.88147,435.875,239.737366,443.299988,242.408371,445.5C252.611633,453.903961,274.989136,466.882019,287.153503,471.450378C292.336884,473.397003,291.945282,473.464661,313,466.986115C341.047119,458.356018,334.528412,459.172363,372.5,459.534943L406.5,459.859619L421.5,463.907593C429.75,466.134003,452.700012,472.017914,472.5,476.982971C492.299988,481.948059,510.067413,486.44812,511.983185,486.983154C514.604614,487.71524,518.191956,487.446136,526.483154,485.895355C544.435059,482.537689,546.450806,481.831329,546.809998,478.772644C546.98053,477.320709,546.472778,474.865417,545.681641,473.316406C542.746704,467.569855,540.690186,453.772522,539.001526,428.5C538.487,420.799988,537.763916,410.177338,537.394714,404.894104C536.420837,390.959808,536.906494,389.424591,544.897766,381.175598C548.667603,377.28421,552.842712,373.826599,554.175781,373.492035C555.876038,373.065277,562.554565,375.245605,576.549744,380.796448C587.5224,385.148468,600.879883,390.39917,606.233093,392.464691C616.309692,396.352722,616.882141,396.806,626,408.114868C633.706421,417.673157,639.213745,428.662628,645.737732,447.5C650.038879,459.919037,651.573608,465.871521,652.392151,473.309723C654.0625,488.487671,672.051392,512.452026,699.74115,536.38678C709.407227,544.742065,711.433533,545.919006,716.230957,545.964539C719.361206,545.994324,720.059998,545.609131,720.571228,543.572144C721.585938,539.529358,718.739746,533.760071,711.077271,524.327332C705.024048,516.875793,697.153015,507.399353,692.5,501.96106C676.040161,482.723358,666.283997,465.839294,662.400391,449.870361C660.008057,440.033386,661.795959,434.823334,670.827576,425.312622C674.581543,421.359528,678.825378,417.830933,680.258423,417.471283C681.732544,417.101288,686.475708,417.687408,691.181946,418.821136C695.756897,419.923218,701.479187,421.140137,703.898132,421.525391C711.443848,422.727142,714.227844,424.547852,723.5,434.344971C735.635986,447.16803,740.947876,453.468994,748.5,464C749.880493,465.924988,752.570618,469.524994,754.478088,472C756.385559,474.475006,762.698547,483.475006,768.506897,492C774.315247,500.524994,780.608398,509.552521,782.491699,512.061157C785.715332,516.355164,786.035461,517.518616,787.957947,531.927551C789.081055,540.345398,790,549.330261,790,551.89386C790,554.457458,790.670532,557.512268,791.490051,558.682312C792.99353,560.828918,803.640015,565.025085,807.444153,564.97052C810.824768,564.921997,838.18396,555.317627,839.111572,553.85376C839.583374,553.109192,839.976257,550.340149,839.98468,547.700317C840.005676,541.115417,841.385498,538.95343,852.679199,527.809265C860.781677,519.814087,863.977966,517.408264,870.947083,514.059265C881.841492,508.823944,883.930054,508.86438,891.037292,514.44812C898.91687,520.638672,905.851196,524.152405,909.485107,523.795837C911.882629,523.560608,912.900635,522.680847,914.456299,519.5C916.674316,514.964905,916.794373,510.805328,914.923645,503.305969C913.908325,499.235931,913.886475,497.544617,914.822449,495.490356C917.490967,489.633575,924.989441,495.05896,926.488342,503.931061C926.849304,506.067535,927.778564,508.644531,928.553284,509.657776C930.389587,512.059204,931.560059,510.419312,932.504395,504.121979C934.032471,493.93222,938.393677,488.720642,943.92395,490.475861C946.999146,491.451874,947.378967,494.981445,945.064148,501.071716C942.452209,507.943939,942.376099,512.595703,944.853943,513.921814C945.873596,514.467529,948.634094,516.523376,950.988403,518.490295C955.130127,521.950623,955.332764,522.00885,957.236816,520.285645C958.319214,519.306152,959.902832,517.153687,960.756042,515.50238C963.768005,509.673065,968.69104,508.185638,970.957275,512.420166C972.870605,515.995239,971.539978,520.920349,966.916382,527.377136C962.548401,533.476929,962.397949,536.072205,966.291321,538.155884C974.073853,542.320984,986.961182,558.074585,995.797241,574.224304C999.753174,581.454529,999.987244,582.318054,999.456116,587.724304C998.489685,597.56134,995.881165,611.331787,994.483032,613.977295C993.749756,615.364746,990.146362,619.424988,986.475525,623C974.452454,634.709167,961.890381,653.128418,950.870117,675.206726C946.243774,684.47522,942.175842,691.370728,940.945984,692.028931C939.799683,692.642395,936.428711,695.249329,933.454895,697.822144C930.481079,700.394958,925.304871,704.75,921.952209,707.5C918.599548,710.25,913.438599,714.525024,910.483337,717C907.528137,719.474976,902.151001,723.974976,898.534058,727C894.917175,730.025024,889.320618,734.75,886.097229,737.5C872.514404,749.088074,866.939636,753.057434,849,763.914124C839.078857,769.918213,832.434204,773.096558,818.5,778.503235C815.200012,779.783691,805.299988,783.835327,796.5,787.506897C768.515564,799.182678,766.516235,799.993103,765.687012,799.996582C765.239807,799.998474,762.089844,801.30249,758.687012,802.894409C752.737732,805.677551,745.290527,808.923706,732.5,814.30896C721.246582,819.047058,719.186218,819.269958,693.5,818.527466C675.853455,818.017395,668.176331,818.15863,664.5,819.060913C657.25061,820.84021,621.884705,821.032288,615.5,819.327087z"/>
    <path transform="matrix(-0.43019,0,0,-0.43019,-1053.767944,-462.969452)" style="stroke:#000000;stroke-width:0.05mm;fill:none" d="M629,805C630.196411,803.803589,631,801.666687,631,799.681519C631,793.905518,633.761841,786.622864,637.222595,783.273438C642.742493,777.930969,646.815308,776.792358,657.579407,777.58252C667.858887,778.337036,670,777.618225,670,773.412354C670,772.12384,668.556213,769.425171,666.791504,767.415344L663.583069,763.761108L657.041504,764.324463C642.177246,765.604553,637.898743,766.705811,634.322327,770.17218C626.970337,777.298035,616.032288,795.562073,616.009766,800.75C615.995117,804.12915,619.435608,807,623.5,807C625.666687,807,627.761902,806.238098,629,805z"/>
    <path transform="matrix(-0.43019,0,0,-0.43019,-1053.767944,-462.969452)" style="stroke:#000000;stroke-width:0.05mm;fill:none" d="M661.5,805.410278C668.096924,804.09967,673.660645,803.933044,693.222961,804.460144C709.526978,804.899414,717.579895,804.76001,718.972961,804.014465C721.671326,802.570374,721.59845,798.26593,718.825684,795.314453C716.82843,793.188477,715.820496,793,706.448364,793C700.639954,793,693.139343,792.298584,689.034058,791.371521C682.287537,789.8479,681.342834,789.856018,674.373413,791.497314C668.711975,792.830566,665.011108,793.084778,658.954407,792.556458C651.045349,791.866516,650.962219,791.883911,647.992432,794.853699C643.921265,798.924866,643.92511,804.719971,648,806.271118C650.526611,807.23291,653.176514,807.063904,661.5,805.410278z"/>
    <path transform="matrix(-0.43019,0,0,-0.43019,-1053.767944,-462.969452)" style="stroke:#000000;stroke-width:0.05mm;fill:none" d="M599.387878,803.705627C600.436707,802.938721,601.732178,799.67218,602.567078,795.689209C604.309937,787.374695,606.406555,783.207397,614.301575,772.365356C617.710693,767.683716,621.767944,761.916748,623.317688,759.549927L626.135376,755.246582L624.992493,738.373291C622.601318,703.070251,622.591309,698.276489,624.888489,688.671021C627.724915,676.811035,627.655884,674.255981,624.459717,672.799683C620.603271,671.042603,616.847534,672.799438,614.590759,677.416138C612.932373,680.808655,612.669556,683.764832,612.590759,699.91095C612.540833,710.134949,612.903137,724.601074,613.395813,732.057922C614.655823,751.127686,614.298035,752.250671,600.035645,773.987061C587.121338,793.668945,584.51886,799.705872,587.519104,803.021118C589.620422,805.343018,596.598206,805.745483,599.387878,803.705627z"/>
    <path transform="matrix(-0.43019,0,0,-0.43019,-1053.767944,-462.969452)" style="stroke:#000000;stroke-width:0.05mm;fill:none" d="M571.332275,798.75C572.090393,797.512512,573.244263,793.974182,573.896362,790.887085C575.164307,784.884949,577.360168,780.997192,588.742432,764.60199C600.131042,748.197754,600.521118,746.384277,598.272278,720.295532C596.716003,702.240845,596.720459,700.289246,598.346924,687.698181C600.47821,671.198486,601.360901,667.912964,604.74176,663.895081C608.95166,658.891846,612.45697,657.949646,626.425537,658.066589C639.407654,658.175354,645.030762,656.826355,649.271057,652.58606C653.389526,648.46759,649.544739,641,643.305786,641C641.465759,641,637.22937,642.10968,633.891602,643.465942C630.553772,644.822205,620.35083,647.363586,611.218384,649.113525C589.411987,653.291992,589.95929,652.780701,590.269531,668.684998C590.490112,679.991821,590.375977,680.735779,587.615723,685.981689C584.211792,692.451111,584.128174,694.316528,586.454407,711.885437C587.506226,719.829468,588.064026,728.976135,587.826477,734.385437C587.326721,745.768616,584.612183,751.961853,573.531494,767C565.958008,777.27832,559.918884,787.88623,558.655823,793.129395C557.655884,797.280457,561.150024,801,566.0495,801C569.023438,801,570.28241,800.463806,571.332275,798.75z"/>
    <path transform="matrix(-0.43019,0,0,-0.43019,-1053.767944,-462.969452)" style="stroke:#000000;stroke-width:0.05mm;fill:none" d="M744.365112,793.927429C747.61731,791.369263,747.638855,789.935364,744.548523,781.725098C737.965698,764.236145,741.215881,753.957458,755.562195,746.894775C761.328674,744.055908,762.517456,743.816345,767.726624,744.443176C770.901978,744.825256,780.025024,745.451843,788,745.83551C795.974976,746.219177,803.400024,747.049438,804.5,747.680481C807.192017,749.224915,811.310669,753.788757,813.549011,757.707642C816.115906,762.201599,819.760986,763.544556,824.273987,761.658875C831.049561,758.827881,830.431519,754.426941,822.199951,746.890747C814.006104,739.389099,808.858948,737.355164,793.493103,735.547119C786.346924,734.706238,777.213745,733.328186,773.197266,732.484802C762.627258,730.265259,759.88385,731.140442,745.94165,741.179871C737.242249,747.444153,732.04303,748.728821,724.338013,746.517883C713.254639,743.337524,705.937805,737.487793,701.801208,728.5C699.773987,724.095337,699.5,721.952026,699.5,710.5C699.5,693.12561,700.594055,691.039063,714.156555,682.546631C719.467651,679.221008,725.835449,674.619446,728.307129,672.321045C732.952454,668.001404,738.50647,664.762573,743.202515,663.634766C746.870178,662.753967,750.788635,659.079895,751.558105,655.800293C752.909668,650.040161,744.06897,645.79895,737.684265,649.144531C736.48291,649.774048,730.549988,655.061646,724.5,660.894836C710.581787,674.314148,705.147095,678,699.27887,678C694.011047,678,690.650208,676.367249,686.035095,671.565979C681.799622,667.159668,677.809082,666.007813,665.78656,665.721313C656.992188,665.511719,656.180969,665.673157,650.480164,668.766663C647.169189,670.563354,643.907471,672.918518,643.231812,674.000427C642.556152,675.082336,640.810608,681.937317,639.352783,689.233765C636.792847,702.046448,636.742065,702.961548,637.867859,716C638.508972,723.424988,639.02594,732.427979,639.016724,736.006592C638.998169,743.22113,640.295837,748.935608,642.23175,750.164368C644.602722,751.66925,649.647156,751.047363,651.477844,749.024475C653.47937,746.812805,653.384094,744.961731,650.446777,729C648.002686,715.718201,647.916565,695.170898,650.276733,688.411499C653.557007,679.016785,660.766296,675.059204,671.047791,677.009094C678.253906,678.375671,685.895264,682.846619,688.252136,687.075256C689.95343,690.127747,690.076355,691.641418,689.383057,701C687.855103,721.624146,689.363159,730.610168,696.101868,741.036316C700.796204,748.299377,705.256592,751.293335,715.400085,753.990051C724.66156,756.452209,725.687439,756.94342,729,760.502075C731.396606,763.076782,731.489014,763.649048,731.234192,774.343933C731.088013,780.479736,731.206116,786.883667,731.496643,788.574768C732.669922,795.404175,739.091858,798.075378,744.365112,793.927429z"/>
    <path transform="matrix(-0.43019,0,0,-0.43019,-1053.767944,-462.969452)" style="stroke:#000000;stroke-width:0.05mm;fill:none" d="M543.808411,792.730896C544.387695,792.032837,545.624573,788.424561,546.557007,784.712463C548.531921,776.850464,552.100586,770.593445,560.937012,759.5C568.463135,750.051453,572.521484,741.985291,573.437378,734.65509C574.168457,728.803589,571.768738,706.492065,569.748413,700.35675C568.793457,697.456726,567.00647,695.524414,562.146118,692.136169C554.02887,686.477417,552.008606,683.205505,552.003723,675.710144C551.997009,665.275085,558.330505,657.167175,568.13031,655.065491C577.226257,653.114746,579.496338,648.765808,574.111572,643.606873C570.183411,639.843445,564.413208,639.0896,560.876587,641.877808C553.064758,648.036377,539,671.01532,539,677.619568C539,682.373901,540.124268,684.211731,548.671753,693.429565C552.71582,697.790771,557.256592,703.865784,558.762329,706.929565C561.284973,712.062439,561.5,713.443909,561.5,724.516174C561.5,736.065796,561.374146,736.78418,558.258911,743.016174C556.476318,746.582275,552.027649,752.875,548.372986,757C541.762024,764.461792,535.68866,775.402527,532.89563,784.881592C531.641663,789.137329,531.683655,789.331116,534.358032,791.631592C537.346924,794.202454,542.125732,794.758362,543.808411,792.730896z"/>
    <path transform="matrix(-0.43019,0,0,-0.43019,-1053.767944,-462.969452)" style="stroke:#000000;stroke-width:0.05mm;fill:none" d="M518.2453,783.25C519.100647,782.287476,520.772522,777.869751,521.96051,773.432739C524.632202,763.454346,527.997742,757.590881,536.447083,748.194092C545.699707,737.903931,547.448303,734.226929,547.476807,725C547.507813,714.962952,545.046692,710.149658,533.901123,698.450134C523.098206,687.110229,521.846375,683.985107,524.403748,674.740173C527.545654,663.382385,536.526489,648.241455,549.636414,632.200073C552.973755,628.116455,553.272278,621.869873,550.368713,616.877747C548.759338,614.11084,545.67688,612.143738,533.323059,606C525.028503,601.875,516.647522,597.266235,514.698608,595.758301C508.895935,591.268494,506.108917,584.154114,504.400269,569.470093C503.002838,557.460266,498.110809,533.05188,495.975677,527.436035C495.419403,525.9729,493.531891,524.284546,491.506348,523.438232C488.428833,522.152344,487.57196,522.152039,484.5,523.435547C481.498169,524.689819,481,525.36969,481,528.212341C481,530.298462,482.230682,533.374634,484.321045,536.513367C486.147614,539.255981,488.373535,543.36145,489.267548,545.636475C492.141602,552.9505,494.097809,566.292297,493.841736,576.833496L493.598236,586.85791L499.453278,595.389587C506.881714,606.213867,509.220032,608.348877,516,610.497803C519.025024,611.456543,524.72345,613.5625,528.663208,615.177673C534.598145,617.61084,536.110291,618.712708,537.482361,621.604065C539.700928,626.279358,538.835632,629.495483,533.662476,635.801941C526.671204,644.324768,519.96698,656.329468,516.069519,667.304199C511.253632,680.865112,509.446381,683.230408,500.687134,687.436401C490.377838,692.386658,486.767303,692.947632,465,692.98114C454.274994,692.99762,443.849518,693.469604,441.832275,694.029846C435.846008,695.692566,432.965393,700.068909,428.194611,714.748779C424.336853,726.619324,424.024963,728.276123,425.194611,730.685242C426.691681,733.768738,461.995178,759.467896,466.16333,760.508423C472.127441,761.997314,475.574768,752.369629,470.870514,747.362183C469.689758,746.105347,465.097656,743.935303,460.563232,742.491455C452.223053,739.835815,444.43689,734.878845,440.729004,729.864258C438.59552,726.978882,437.385468,719.584595,438.391113,715.577881C438.741882,714.180237,440.414764,711.458252,442.108582,709.529114C447.651581,703.216003,459.637665,701.468506,476.5,704.515198C487.706696,706.540039,488.992249,706.413635,494.450134,702.75C504.820129,695.789063,506.447754,695.033081,511.099976,695.016479C516.788147,694.996094,521.681396,698.270203,527.63208,706.078247C533.188721,713.369141,534.996521,717.175232,535.691956,723.046875C536.763489,732.094238,534.185486,736.300415,521.147156,746.777893C517.72998,749.523865,516.722412,751.227661,514.937866,757.277893C513.766235,761.250061,511.500946,767.500427,509.903839,771.167603C506.462738,779.068909,506.3638,780.363831,509,783C511.466919,785.466919,516.162231,785.593872,518.2453,783.25z"/>
    <path transform="matrix(-0.43019,0,0,-0.43019,-1053.767944,-462.969452)" style="stroke:#000000;stroke-width:0.05mm;fill:none" d="M770.492676,782.827087C773.167358,780.723206,773.234741,780.435425,772.614685,773.764282C771.433044,761.05011,767.894836,756.93457,761.146118,760.424438C756.656128,762.746277,755.365845,767.810425,757.33905,775.366577C758.174927,778.567566,759.635376,782.044556,760.584412,783.093262C762.872559,785.621643,767.083801,785.508545,770.492676,782.827087z"/>
    <path transform="matrix(-0.43019,0,0,-0.43019,-1053.767944,-462.969452)" style="stroke:#000000;stroke-width:0.05mm;fill:none" d="M715.171265,777.345032C717.554321,775.188354,717.499878,771.76239,715.047302,769.542786C713.973267,768.570862,710.035767,767.135254,706.297302,766.352661C697.667725,764.546143,693.122986,761.51825,687.335449,753.719666C680.846985,744.976624,677.158569,736.606934,675.276062,726.354858C673.908142,718.904968,673.836609,716.089722,674.817932,708.32019C675.45752,703.25647,675.691711,698.300415,675.338379,697.306702C673.416016,691.900024,667.864502,690.277344,664.404968,694.111023C662.769165,695.923767,662.529297,697.608887,662.70752,706.036743C662.821655,711.434875,664.059143,722.728699,665.45752,731.134216C666.855896,739.539734,668,746.816895,668,747.305725C668,747.794495,670.872925,751.188232,674.384338,754.847229C677.895691,758.506226,682.17157,764.301392,683.886292,767.725342C685.990417,771.926941,688.003296,774.467468,690.078308,775.540527C696.886658,779.061218,712.068481,780.153015,715.171265,777.345032z"/>
    <path transform="matrix(-0.43019,0,0,-0.43019,-1053.767944,-462.969452)" style="stroke:#000000;stroke-width:0.05mm;fill:none" d="M799,772.139526C805.009338,767.723083,800.917664,760,792.568481,760C786.903015,760,784.396851,762.971558,785.427795,768.466858C786.636108,774.907593,792.919922,776.608032,799,772.139526z"/>
    <path transform="matrix(-0.43019,0,0,-0.43019,-1053.767944,-462.969452)" style="stroke:#000000;stroke-width:0.05mm;fill:none" d="M494.538177,771.582031C495.409546,770.252197,497.455658,764.531738,499.085114,758.869934C502.457336,747.152649,502.253845,745.461853,496.645813,738.604614C494.79953,736.347107,491.822479,731.897461,490.030121,728.716553C486.24765,722.003723,484.307312,720.807678,473.643036,718.615234C460.514587,715.91626,455,716.758484,455,721.462585C455,724.836121,458.830536,727.463074,466.592682,729.412903C475.46106,731.640564,480.166565,734.167175,483.927948,738.720947C489.708313,745.719116,490.211548,753.433838,485.425507,761.67804C484.091492,763.976013,483,766.865601,483,768.099304C483,773.809509,491.41452,776.349365,494.538177,771.582031z"/>
    <path transform="matrix(-0.43019,0,0,-0.43019,-1053.767944,-462.969452)" style="stroke:#000000;stroke-width:0.05mm;fill:none" d="M857.690002,742.027283C862.535522,738.74231,871.224976,731.974548,877,726.987854C897.186218,709.557068,916.562378,693.357605,924.255798,687.479614C934.955688,679.304688,938.364014,671.870728,932.781921,668.883301C929.51178,667.133118,926.012451,668.803406,919.091919,675.417725C915.46637,678.882874,908.947998,684.321838,904.606628,687.504333C900.26532,690.68689,889.787109,699.862854,881.321716,707.895386C856.872314,731.094727,852.762939,733.928528,845.536255,732.572754C841.209412,731.761047,837.822144,729.027466,832.919189,722.390564C830.732666,719.430847,827.903381,716.327576,826.631836,715.494385C825.25824,714.594421,819.891785,713.570862,813.409912,712.972595C797.366028,711.491699,785.592896,709.291199,775.881287,705.958069C771.141052,704.331116,765.717224,703,763.82843,703C758.879456,703,745.445313,709.837097,738.566345,715.856689C733.717468,720.099854,732.028687,721,728.916992,721C721.567017,721,718.801086,713.033997,724.167542,707.321655C726.522278,704.815186,736.082397,698.961365,745.729675,694.118774C754.911865,689.509705,756.91217,685.085815,752.226746,679.75C749.079041,676.165405,744.81427,677.543701,735.751221,685.074768C732.589417,687.702148,727.639404,691.204529,724.751221,692.857788C721.863037,694.511108,718.150024,697.273743,716.5,698.997009C713.740417,701.87915,713.47522,702.786194,713.190491,710.315125C712.927002,717.281921,713.22467,719.168457,715.190491,722.991943C718.187683,728.821411,722.953857,732,728.697571,732C733.833252,732,736.656372,730.678955,745.839539,723.978699C757.34436,715.584534,762.599731,714.587769,777,718.068726C781.674988,719.198792,790.674988,720.772095,797,721.564941C810.987671,723.318359,817.076233,725.014832,823.084534,728.832825C827.154785,731.419312,829.734375,733.878052,840.173096,745.120972C844.279785,749.544067,847.420654,748.98938,857.690002,742.027283z"/>
    <path transform="matrix(-0.43019,0,0,-0.43019,-1053.767944,-462.969452)" style="stroke:#000000;stroke-width:0.05mm;fill:none" d="M516.840637,731.399109C522.217224,727.633118,521.560791,719.455627,515.451233,714.09137C511.338318,710.480164,508.295013,710.193481,504.634857,713.072571C501.223419,715.756042,501.183563,719.931152,504.515137,725.616028C508.647125,732.666748,512.469971,734.460388,516.840637,731.399109z"/>
    <path transform="matrix(-0.43019,0,0,-0.43019,-1053.767944,-462.969452)" style="stroke:#000000;stroke-width:0.05mm;fill:none" d="M411.361359,719.75C412.135468,718.512512,413.942474,713.329224,415.376892,708.231628C418.343933,697.687378,422.007751,689.797058,425.857452,685.660706C431.272827,679.842224,432.404266,679.616333,459.5,678.944336C495.497681,678.051636,496.874451,677.365967,504.957764,656.30481C506.687683,651.797485,510.554871,644.425476,513.551514,639.922546C516.548218,635.419617,519,630.695496,519,629.424438C519,624.680237,510.823883,622.176086,507.192047,625.807983C506.197662,626.802307,503.273315,633.013245,500.693451,639.609924C495.30191,653.396179,491.610229,659.697632,486.855164,663.230774C480.298859,668.102356,478.196533,668.408325,450.957672,668.455627C428.224426,668.495117,425.117188,668.695251,422.704254,670.275269C419.223267,672.554749,416.33786,677.200867,411.075562,689C408.74527,694.224976,405.074951,701.741333,402.919342,705.702881C398.283142,714.223206,398.024506,717.087524,401.634857,719.927429C405.175293,722.712341,409.558319,722.632385,411.361359,719.75z"/>
    <path transform="matrix(-0.43019,0,0,-0.43019,-1053.767944,-462.969452)" style="stroke:#000000;stroke-width:0.05mm;fill:none" d="M868.723694,699.492554C877.950684,690.413452,889.072754,680.401001,893.439514,677.242554C903.053589,670.288757,914.623657,660.414368,917.16333,656.995605C919.245056,654.193298,921.696045,638.90863,920.699829,634.941345C919.735413,631.100403,904.269104,611.190552,900.894104,609.445251C897.731995,607.810059,896.147034,607.951782,872.5,611.984009C858.029785,614.451416,849.640442,620.181946,840.73114,633.684265C828.231506,652.628052,822.182922,657.627502,807.740601,660.952759C798.296021,663.127319,795,664.984558,795,668.131958C795,672.862305,804.371094,675.04303,814.060791,672.567505C825.301086,669.695923,834.026245,662.348999,848.104736,643.901062C852.973206,637.521667,858.653748,631.131348,860.72821,629.700378C871.249634,622.442627,884.26416,619.143982,893.216064,621.466064C904.791626,624.46875,912.128479,638.607971,907.649841,649.282104C905.629333,654.097656,899.835938,659.169373,890.943176,663.907654C882.411438,668.453552,880.303894,670.279297,869.548706,682.441833C865.725525,686.76532,858.419617,693.401794,853.313416,697.189636C841.329407,706.079468,839.73407,708.959106,844.174316,713.685547C848.667053,718.467834,850.53949,717.385315,868.723694,699.492554z"/>
    <path transform="matrix(-0.43019,0,0,-0.43019,-1053.767944,-462.969452)" style="stroke:#000000;stroke-width:0.05mm;fill:none" d="M387.277893,705.245422C388.151215,704.280396,390.416229,699.892883,392.311218,695.495422C398.787933,680.465698,405.73114,666.502625,408.776703,662.38269C410.532288,660.007813,413.868439,657.25708,416.660126,655.88269C421.207733,653.64386,422.285034,653.530212,434.5,654C460.623749,655.004761,471.070496,654.546204,475.649231,652.193848C480.740967,649.577942,482.37912,646.94635,489.014069,630.723755C494.918427,616.287537,494.974487,614.752075,489.886505,606.82312C484.656677,598.673157,481.950043,597,473.995636,597C463.088074,597,452.283905,595.142944,441.300476,591.380249L431.100952,587.886108L419.300476,588.82959C410.025757,589.571106,406.215759,590.349243,401.5,592.465149C398.200012,593.945862,391.464966,596.047058,386.533295,597.134583C375.487793,599.570251,371.54953,601.382813,368.595062,605.390747C364.422821,611.050537,355.912354,626.851807,350.350494,639.265137C347.062744,646.602905,342.693481,654.346497,339.434296,658.611694C336.445435,662.523132,334,666.544128,334,667.547241C334,670.195801,337.963013,674,340.722076,674C344.715454,674,347.705505,669.451782,359.774048,645.019714C369.875885,624.569153,372.126892,620.761658,377.024109,615.841858C382.377441,610.463867,383.280518,609.984131,395.262634,606.153503C402.196136,603.93689,411.453156,601.574646,415.833832,600.904053C422.946808,599.815186,425.066193,599.912048,435.649353,601.809875C442.167206,602.978699,452.674988,604.642334,459,605.506897C473.19635,607.447449,476.420441,608.447754,478.984375,611.707275C483.321503,617.221008,480.015289,631.166199,472.601654,638.628723C466.611053,644.658813,460.780945,645.685547,444.436127,643.58905C421.441681,640.639648,411.127563,641.939087,404.438263,648.628418C402.214844,650.851807,397.531677,658.931519,391.884308,670.287415C386.930115,680.249329,381.329437,690.507813,379.438354,693.083984C375.454498,698.511108,375.134338,701.449646,378.174316,704.685547C380.761749,707.439758,385.053192,707.703674,387.277893,705.245422z"/>
    <path transform="matrix(-0.43019,0,0,-0.43019,-1053.767944,-462.969452)" style="stroke:#000000;stroke-width:0.05mm;fill:none" d="M832.172241,695.526733C834.55249,693.616455,839.942627,689.355408,844.150269,686.057739C848.357971,682.76001,854.882935,676.579346,858.650269,672.322815C871.930115,657.318665,876.135437,653.587708,882.5,651.163208C889.813782,648.377136,893,645.565308,893,641.897095C893,636.608093,888.046143,634.102661,881.22168,635.940308C874.183228,637.835571,867.902344,643.148621,857.526123,655.98468C846.036072,670.198547,835.188599,679.994019,826.249268,684.228394C811.549072,691.191467,789.819458,687.877441,779.584106,677.111328C777.302246,674.711121,776.571533,672.878479,776.223572,668.6828C775.81958,663.810974,776.059814,663.001465,778.854248,659.818726C782.812744,655.310303,791.260315,650.864807,802.135132,647.567383C815.294617,643.577148,819.128174,640.224304,829.93811,623.250549C836.276978,613.297241,842.044373,608.019104,851.467773,603.547363C860.748413,599.143311,867.719421,597.253357,877.5,596.489685C881.900024,596.146118,886.694641,595.408508,888.154785,594.850647C893.30603,592.882385,892.240784,586.834167,886.306152,584.354553C879.636475,581.56781,869.338806,583.892639,847.348083,593.149963C831.128357,599.977905,828.376587,602.17804,822.5,613.016846C817.396851,622.429077,812.405762,628.763977,807.321716,632.281494C805.110596,633.81134,796.189819,638.18512,787.497681,642.001038C778.805603,645.816895,770.629578,649.938782,769.328857,651.160767C766.880432,653.460938,764,661.443237,764,665.928101C764,668.989868,768.72699,683.6026,770.702393,686.6474C774.580994,692.625732,798.313904,698.488037,820.172241,698.867004C827.519775,698.994385,828.02771,698.852966,832.172241,695.526733z"/>
    <path transform="matrix(-0.43019,0,0,-0.43019,-1053.767944,-462.969452)" style="stroke:#000000;stroke-width:0.05mm;fill:none" d="M366.370178,687.75C367.729736,685.962524,373.371185,675.251038,378.906708,663.946777C384.4422,652.642517,390.590515,641.501831,392.56958,639.189758C397.361115,633.591919,403.310669,630.252869,411.636444,628.488892C421.001129,626.504822,428.125946,626.636292,443.211792,629.071655C455.697968,631.087341,456.145538,631.094055,459.7724,629.321655C462.495422,627.990906,463.583649,626.775757,463.810394,624.812622C464.24884,621.016357,461.053375,619.321411,452,618.548218C447.875,618.195923,439.841278,617.179932,434.147308,616.290527C422.225525,614.428284,415.031006,615.127441,401.219818,619.490356C387.458588,623.837524,386.14444,625.292114,373.5,650.171814C367.450012,662.07605,361.110535,673.5448,359.412323,675.657898C354.248291,682.083618,353.725067,683.567688,355.448608,686.900635C358.121735,692.069824,362.807312,692.434265,366.370178,687.75z"/>
    <path transform="matrix(-0.43019,0,0,-0.43019,-1053.767944,-462.969452)" style="stroke:#000000;stroke-width:0.05mm;fill:none" d="M575.549622,678.564636C577.456299,675.654602,577.124329,671.092346,574.904785,669.703613C570.459961,666.922546,564.670288,672.605225,567.149536,677.315491C569.46051,681.705933,573.133484,682.252136,575.549622,678.564636z"/>
    <path transform="matrix(-0.43019,0,0,-0.43019,-1053.767944,-462.969452)" style="stroke:#000000;stroke-width:0.05mm;fill:none" d="M703.276978,660.919678C704.581055,660.3255,710.318176,654.862671,716.026123,648.780029C730.822083,633.012756,737.82135,630.293884,751.5,635C754.697205,636.099976,758.607422,637,760.189392,637C763.77771,637,791.679443,625.004639,797.656372,620.892395C802.165222,617.790222,805.92395,612.670593,812.337585,600.895813C817.025635,592.28894,821.837891,588.078552,831.563782,584.074158C835.928711,582.276978,843.471008,579.035278,848.324463,576.870361C859.533264,571.870605,871.4151,569.01593,881.05365,569.007019C894.664551,568.994385,903.015991,575.297852,906.677429,588.347107C907.999878,593.060303,909.591492,595.748535,913.715759,600.23468C916.646912,603.423035,920.670715,608.612061,922.657532,611.765869C929.424622,622.507629,932.866089,624.353333,937.685547,619.825684C941.880676,615.884583,940.858459,612.625793,932.75,604.091492C927.751709,598.83075,923.495178,592.895142,919.044922,584.980408C915.218201,578.174561,910.535645,571.439087,907.544922,568.438599C898.44104,559.304871,885.894775,555.241638,875.265259,557.984497C872.644348,558.660828,866.388489,559.537781,861.363281,559.93335C853.263916,560.570862,851.787964,560.997681,848.363281,563.693176C842.854431,568.029053,838.193848,570.16217,823.864624,574.906128C816.9151,577.206848,810.514099,579.879395,809.640137,580.845154C808.766174,581.810852,806.720947,585.82666,805.095215,589.769043C798.280457,606.295105,787.703247,616.081238,770.115906,622.132141C763.448364,624.426147,757.464539,624.486084,744.5,622.388672C729.712036,619.996338,728.432922,620.505981,713.570984,634.710876C706.931946,641.056458,700.051575,647.745422,698.281311,649.575256C694.126648,653.869751,693.18866,657.445984,695.536438,660.040283C697.533813,662.247375,699.79834,662.504639,703.276978,660.919678z"/>
    <path transform="matrix(-0.43019,0,0,-0.43019,-1053.767944,-462.969452)" style="stroke:#000000;stroke-width:0.05mm;fill:none" d="M942.996643,657.00177C944.022461,656.452759,947.030396,652.3573,949.680908,647.900696C956.552368,636.346924,969.052429,620.017395,974.345154,615.680359C980.686646,610.484009,984.036682,603.223938,984.72467,593.186401C985.203918,586.194214,984.977051,584.63269,982.791504,579.882202C979.312317,572.319763,969.369202,559.528381,961.759949,552.825989C957.787048,549.326599,953.701904,544.431335,951.100952,540.053284C946.76825,532.760254,939.06604,525.556641,934.330017,524.367981C930.228394,523.338562,927,525.447388,927,529.156128C927,531.854065,928.186584,533.457275,934.575317,539.391418C938.74176,543.261414,944.447327,549.593994,947.254333,553.463867C950.061401,557.33374,956.11908,564.417725,960.71582,569.206116C970.216064,579.102295,973.400024,584.984802,973.330078,592.512024C973.263123,599.718201,970.260254,604.827026,962.513062,610.915344C957.325806,614.991821,955.406677,617.284607,953.418152,621.780945C950.537964,628.29364,948.292969,630.971558,942.148254,635.224243C934.516602,640.506104,931.64917,650.740051,936.454529,655.545471C939.158875,658.249817,940.222412,658.486511,942.996643,657.00177z"/>
    <path transform="matrix(-0.43019,0,0,-0.43019,-1053.767944,-462.969452)" style="stroke:#000000;stroke-width:0.05mm;fill:none" d="M325.67157,654.25C327.088409,652.737488,331.848785,644.075012,336.250183,635C347.785431,611.216125,358.563568,592.434509,362.321075,589.569702C365.648987,587.03241,372.097473,585.076721,385.490997,582.542603C394.444427,580.848572,398.350647,578.548889,398.811646,574.700562C399.689423,567.372925,394.668976,566.250061,382.31369,571.010681C372.261658,574.88385,364.404572,576.486084,359.74762,575.612427C353.39212,574.420105,332.647186,559.90448,321,548.499939C308.882996,536.635376,305.380981,534.911255,297.453827,536.907288C294.874481,537.556824,291.176636,539.166931,289.23642,540.485352C283.166901,544.60968,270.036774,557.028198,268.400879,560.19165C265.578033,565.650452,269.069397,570.952332,274.57666,569.570129C275.908234,569.235901,279.865204,565.467041,283.510101,561.061401C297.062866,544.679871,306.06604,544.980713,318.217041,562.22113C320.917389,566.05249,323.611938,568.575745,326.374634,569.860107C344.522491,578.296936,346.033752,579.164612,347.491699,581.983948C349.884155,586.610413,349.346252,590.300781,345.501099,595.640808C335.110504,610.070984,332.821533,614.081177,328.948517,624.640381C326.094208,632.42218,323.646454,637.274719,321.089233,640.221008C313.200684,649.309753,312.716217,650.807129,316.454559,654.545471C319.650696,657.741638,322.485931,657.650757,325.67157,654.25z"/>
    <path transform="matrix(-0.43019,0,0,-0.43019,-1053.767944,-462.969452)" style="stroke:#000000;stroke-width:0.05mm;fill:none" d="M678.941345,651.031372C679.936768,650.498657,682.14978,647.911133,683.859131,645.281372C685.568481,642.651611,693.669495,633.861511,701.861389,625.747803C721.680664,606.117615,725.634888,604.416077,744.191956,607.532227C763.339844,610.747559,773.053345,608.192871,782.980957,597.330444C788.216797,591.601624,793,582.973694,793,579.258179C793,575.681458,788.740479,572,784.602173,572C780.205627,572,778.419739,574.378174,776.859009,582.311157C774.129639,596.184387,762.13855,601.159546,744.226624,595.850525C736.588562,593.58667,734.966797,593.685364,715,597.629333C713.571167,597.91156,709.92926,600.979858,706.5,604.790527C693.390076,619.358765,679.190308,633.419006,673.350952,637.614014C665.601807,643.180969,664.175171,646.326111,667.654968,650.171265C669.477722,652.185364,675.874268,652.672852,678.941345,651.031372z"/>
    <path transform="matrix(-0.43019,0,0,-0.43019,-1053.767944,-462.969452)" style="stroke:#000000;stroke-width:0.05mm;fill:none" d="M303.430389,639.026489C307.308258,637.552124,312.713043,628.157898,316.573547,616.182129C319.285919,607.767822,321.008057,604.257874,324.527283,599.971252C329.568542,593.830688,330.437012,591.877258,329.603027,588.554443C328.825104,585.455017,323.739868,583.341858,320.553131,584.793823C319.256927,585.384399,315.227203,590.327698,311.598206,595.778931C304.73291,606.09137,304.211182,607.895142,305.939484,615.342834C307.508484,622.104004,304.505005,627,298.788239,627C294.891968,627,292.123474,624.228943,290.499298,618.703369C288.471588,611.804871,288.444946,611.772644,281.345856,607.618103C273.568237,603.066467,270.441681,599.343628,268.383423,592.183472C265.993927,583.871033,264.312805,581.116821,260.52652,579.311279C257.655945,577.942383,256.672241,577.893127,254.033478,578.986145C250.304306,580.530823,248.634872,583.274231,249.590958,586.286621C249.976929,587.502686,254.00676,593.673157,258.546143,599.99884C265.000366,608.992798,269.872437,614.29187,280.89563,624.307129C292.339783,634.704895,298.938599,639.935669,300.684906,639.993835C300.786591,639.997253,302.022064,639.56189,303.430389,639.026489z"/>
    <path transform="matrix(-0.43019,0,0,-0.43019,-1053.767944,-462.969452)" style="stroke:#000000;stroke-width:0.05mm;fill:none" d="M608.639893,634.984314C622.555908,632.139526,630.266968,629.388855,633.204041,626.22168C634.592285,624.724792,637.248413,620.600342,639.106567,617.056335C641.681824,612.144714,644.139893,609.291687,649.445374,605.056335C666.214294,591.6698,672.263489,584.460449,673.566711,576.30896C674.876465,568.116638,671.3573,562.325378,657.919006,550.558472C640.891113,535.648376,638.21637,534.583679,632.400024,540.400024C626.112915,546.687073,628.20636,551.44989,638,553.140442C648.798645,555.004517,656.070068,560.115784,659.449341,568.217896C663.083679,576.931519,660.314758,582.290833,646.242249,593.780273C640.611145,598.377686,633.43634,605.260254,630.298279,609.074768C620.784119,620.639771,612.380066,625,599.603455,625C593.497192,625,591.325256,624.526917,586.978882,622.25C577.501953,617.285461,575.947937,610.680298,581,596.837402C584.552368,587.10376,584.624878,585.745178,581.97113,578.652405C579.205688,571.261047,576.612366,568.790955,568.271606,565.60376C563.070007,563.61615,560.0578,561.701477,557.122498,558.51709C550.365601,551.186707,548.163269,538.978333,552.424561,532.474792C555.713318,527.455505,567.079956,523.698853,583.727966,522.129028C595.221191,521.045288,598,519.48822,598,514.131958C598,510.166168,596.234802,507.759613,592.5,506.633545C589.107361,505.610626,541.384399,521.783997,539.195557,524.698486C537.572266,526.859924,537.962585,532.767639,540.771179,548.545715C542.711853,559.447937,544.521423,564.528015,547.279846,566.817261C548.056274,567.46167,552.755615,569.981689,557.722717,572.417297C568.922058,577.908752,571.5,581.017029,571.5,589.028809C571.5,593.194641,570.668579,596.361389,568.127258,601.874878C565.316162,607.973633,564.855408,609.928406,565.360474,613.613281C566.187622,619.647766,568.547241,623.853149,572.219299,625.837097C573.91217,626.751709,578.492859,629.634338,582.398621,632.243042C590.782349,637.842468,593.347656,638.110474,608.639893,634.984314z"/>
    <path transform="matrix(-0.43019,0,0,-0.43019,-1053.767944,-462.969452)" style="stroke:#000000;stroke-width:0.05mm;fill:none" d="M660.282104,629.650635C663.958557,628.109009,689.349243,603.190369,695.781067,594.811646C698.563843,591.186584,700.054626,588.231262,700.04071,586.367371C699.908203,568.57666,699.200684,556.141907,698.219238,554.354187C697.571289,553.174011,692.107483,547.870239,686.077454,542.568115C655.915161,516.046692,642.916443,497.243195,637.985596,473C631.978271,443.464386,617.698914,414.513428,605.747131,407.637543C603.411194,406.293701,595.650024,403.091583,588.5,400.521698C581.349976,397.951843,572.499573,394.533142,568.832397,392.924622C560.291626,389.178375,555.855591,389.096832,553.072571,392.634857C551.799866,394.252869,551,396.739471,551,399.078156C551,404.566284,553.515137,406,563.142822,406C571.847412,406,583.265198,409.461243,595.301086,415.748627C609.288208,423.055298,615.514771,434.472473,625.025513,470.252228C627.628723,480.045624,630.990112,489.613739,634.422302,497C637.361328,503.325012,640.328796,510.299988,641.016724,512.5C643.224609,519.561279,644.901001,521.857971,650.759888,525.848755C653.916931,527.999207,662.442871,535.24054,669.706421,541.940613C684.237915,555.344788,687.451294,560.125977,688.589355,570.036316C689.398376,577.081482,687.053711,586.617004,683.111572,592.313354C679.570374,597.430359,667.336731,609.249512,660.364075,614.2901C651.989197,620.344299,649.610596,626.213013,654.222534,629.443298C656.894043,631.314514,656.357971,631.296143,660.282104,629.650635z"/>
    <path transform="matrix(-0.43019,0,0,-0.43019,-1053.767944,-462.969452)" style="stroke:#000000;stroke-width:0.05mm;fill:none" d="M605.433899,609.896606C608.358948,609.084534,612.334167,605.933167,620.933899,597.609131C627.295288,591.45166,634.200623,585.16272,636.279236,583.633728C642.021423,579.409607,644,576.898438,644,573.834473C644,570.134094,640.373657,567.769409,635.336243,568.185059C632.036499,568.457336,631.044189,569.177185,628.009766,573.5C626.079407,576.25,621.991577,581.026672,618.92572,584.114868C614.247986,588.82666,612.159607,590.113403,605.941956,592.114868C599.924927,594.051758,598.106689,595.13855,596.266296,597.897888C593.29657,602.350403,593.277527,607.380554,596.222534,609.443298C598.85199,611.285095,600.194946,611.351196,605.433899,609.896606z"/>
    <path transform="matrix(-0.43019,0,0,-0.43019,-1053.767944,-462.969452)" style="stroke:#000000;stroke-width:0.05mm;fill:none" d="M955.545471,597.545471C960.000366,593.090576,958.239746,586.960815,950.606567,580.350098C948.161499,578.232544,943.160339,572.450012,939.49292,567.5C931.530212,556.752563,918.677002,542.629456,914.5,540.037659C912.849976,539.013855,908.774414,537.645142,905.443115,536.996033C902.111877,536.346863,897.386841,534.73114,894.943115,533.405396C881.727844,526.236206,880.498779,525.838013,876.179138,527.326233C867.453979,530.332275,858.082825,539.446289,859.614075,543.436646C860.399597,545.483643,867.2854,545.516235,873,543.5C879.218018,541.306152,887.410583,541.657715,895.349182,544.459167C911.001099,549.982422,919.97522,558.176453,932.576233,578.450195C941.598206,592.965637,947.568237,600,950.865356,600C952.089417,600,954.195435,598.895447,955.545471,597.545471z"/>
    <path transform="matrix(-0.43019,0,0,-0.43019,-1053.767944,-462.969452)" style="stroke:#000000;stroke-width:0.05mm;fill:none" d="M554.428589,596.428589C555.292847,595.56427,556,593.324646,556,591.451599C556,587.537781,554.20575,586.021362,545.818787,582.847107C534.202698,578.450684,530.210754,572.480225,527.53418,555.5C526.667236,550,525.067383,541.345337,523.978943,536.267456C521.608093,525.206543,521.485413,519.895752,523.510376,515.97998C525.433105,512.261719,527.256653,511.322296,538.274963,508.373596C543.224243,507.049072,552.499634,503.766266,558.886841,501.078461C565.274109,498.390656,573.200012,495.657227,576.5,495.004211C584.89679,493.342529,587,491.800476,587,487.305695C587,483.140015,584.662964,479.990265,581.595032,480.020996C577.036987,480.06662,562.299011,485.170105,558.5,488.018341C549.785889,494.551575,546.625854,495.853027,533,498.520813C525.575012,499.974518,518.450867,501.836426,517.168579,502.658356C514.035889,504.666412,510.021851,513.55426,510.009766,518.509277C510.004395,520.714355,511.383972,528.814392,513.0755,536.509277C514.767029,544.204163,517.01825,556.487244,518.078247,563.805054C520.776733,582.43396,521.454895,583.462341,536.5,591.739563C549.213074,598.733826,551.519958,599.337158,554.428589,596.428589z"/>
    <path transform="matrix(-0.43019,0,0,-0.43019,-1053.767944,-462.969452)" style="stroke:#000000;stroke-width:0.05mm;fill:none" d="M295.242432,593.25C297.85379,590.306213,306.078186,577.925842,306.93631,575.646851C308.012451,572.78894,306.671356,569.486023,303.624237,567.489441C300.308258,565.316711,298.124786,566.552124,290.194366,575.088074C282.835693,583.008606,281.72406,585.438477,283.512909,589.692871C285.701019,594.896851,292.068542,596.827881,295.242432,593.25z"/>
    <path transform="matrix(-0.43019,0,0,-0.43019,-1053.767944,-462.969452)" style="stroke:#000000;stroke-width:0.05mm;fill:none" d="M758.932495,582.534912C764.382568,579.716553,763.613403,573.739563,756.997681,567.5C755.24823,565.849976,752.980713,562.874817,751.95874,560.888489C750.221069,557.511047,749.572937,554.509277,747.024292,538.03479C745.302368,526.903992,743.567444,524.222473,712,483.900085C704.575012,474.415833,695.664551,463.522949,692.199036,459.693695C686.400818,453.286926,685.922119,452.411041,686.199036,448.715698C686.423523,445.720734,687.186584,444.189362,689.20105,442.691284C693.555542,439.452972,697.479492,441.227173,703.5,449.156586C706.25,452.778503,716.399536,465.812469,726.054443,478.120941C758.641479,519.664001,760.389099,522.657166,762.519592,540.57428C763.2995,547.133423,763.95166,552.802979,763.968811,553.173279C763.985962,553.543579,765.164978,555.231079,766.588867,556.923279C768.397217,559.072388,770.062927,560,772.113647,560C776.795044,560,777.486694,556.674683,775.545593,543.5C772.25415,521.160828,772.998108,522.998962,759.055359,502.758789C740.589294,475.952271,714.210266,442.613647,707.780151,437.955719C703.999573,435.217072,693.021667,432,687.456909,432C683.737488,432,679.421997,434.801239,677.422974,438.513123C675.196533,442.6474,675.864014,450.644867,679.045349,457.9505C682.04248,464.833221,694.035095,481.57193,708.45575,499C733.434753,529.188354,733.825623,529.827393,735.119019,542.587708C735.771667,549.026855,736.765747,552.571472,739.370056,557.746094C741.354553,561.689209,743.211182,567.343811,743.831299,571.333313C745.005493,578.88739,746.066284,580.681946,750.499634,582.614075C754.394714,584.311646,755.517029,584.301086,758.932495,582.534912z"/>
    <path transform="matrix(-0.43019,0,0,-0.43019,-1053.767944,-462.969452)" style="stroke:#000000;stroke-width:0.05mm;fill:none" d="M477.687195,580.403748C480.178711,577.912231,480.259949,577.47406,479.7005,569.546631C479.019867,559.902161,474.813171,546.169495,471.41684,542.504761C468.733948,539.609863,463.983337,539.159546,461.571442,541.571411C459.506439,543.636414,459.564087,549.91217,461.676666,553.027466C462.598846,554.38739,464.848846,557.188782,466.676666,559.252869C471.046082,564.187012,471.329132,569.809326,467.365143,572.927429C461.450745,577.579712,456.093567,574.02948,449.769348,561.266663C446.203735,554.070984,445.465149,551.540283,445.158508,545.468079C444.56073,533.630127,447.566864,529.389709,458.592712,526.517883C465.296021,524.771851,467,523.54187,467,520.448975C467,515.776489,460.05603,512.395447,452.263733,513.273743C446.450012,513.929016,444.444458,516.049377,438.084229,528.264709C432.280487,539.411316,431.841187,542.818665,435.053131,551.774963C436.182343,554.923767,437.745453,561.039612,438.526733,565.365723C439.308014,569.691895,440.491516,573.887329,441.156708,574.688843C444.46463,578.674622,458.500427,582.701172,469.795441,582.904602C474.23468,582.984558,475.510712,582.5802,477.687195,580.403748z"/>
    <path transform="matrix(-0.43019,0,0,-0.43019,-1053.767944,-462.969452)" style="stroke:#000000;stroke-width:0.05mm;fill:none" d="M727.545471,579.545471C730.383667,576.707275,730.53418,575.092896,728.569397,568.564392C726.702942,562.36261,724.476868,560,720.5,560C715.513794,560,713.5,562.991638,713.5,570.398987C713.5,578.834839,715.564941,582,721.068481,582C724.005859,582,725.752991,581.337891,727.545471,579.545471z"/>
    <path transform="matrix(-0.43019,0,0,-0.43019,-1053.767944,-462.969452)" style="stroke:#000000;stroke-width:0.05mm;fill:none" d="M604.282104,576.619202C609.818359,574.243652,617.986938,564.883728,617.996277,560.904968C618.003418,557.850586,614.362915,555.679443,610.33136,556.333679C604.552368,557.271484,595.671448,562.138428,594.243164,565.150391C592.529602,568.763916,594.54425,574.961609,598,576.707458C601.064819,578.255859,600.447693,578.264526,604.282104,576.619202z"/>
    <path transform="matrix(-0.43019,0,0,-0.43019,-1053.767944,-462.969452)" style="stroke:#000000;stroke-width:0.05mm;fill:none" d="M423.110199,572.889832C425.749512,570.250488,425.258331,566.219788,420.987183,555.467773C415.757538,542.302856,416.813202,535.229492,426.355103,519.5C430.733032,512.283142,430.985962,508.920715,427.365143,506.072571C424.369171,503.715942,418.800293,503.33078,417.113251,505.363525C416.490875,506.113464,415.107025,510.819672,414.038086,515.821777C410.244965,533.571533,406.199036,537.842163,388,543.305725C370.645538,548.515747,363.078217,548.580017,354.563019,543.589783C347.964142,539.722595,331.69989,524.584656,327.103088,518.031433C324.777374,514.715942,322.032318,511.55249,321.002991,511.001617C319.973663,510.450714,316.514404,510.000824,313.315735,510.001831C305.58017,510.004303,280.355804,512.694397,278.615112,513.702576C277.857819,514.141174,269.381104,522.734924,259.777954,532.799805C250.174774,542.864685,240.558685,552.260803,238.408829,553.680054C231.187653,558.447144,230.235199,561.749207,234.588898,566.923279C239.897797,573.232544,246.770828,569.554321,253.881302,556.598694C256.958618,550.991638,260.491913,546.817139,269.06311,538.661682C281.389221,526.933533,287.090576,523.518494,297.011932,521.920654C309.678833,519.880737,316.955322,523.044312,328.427155,535.578918C336.050446,543.908508,343.314575,549.722351,354.558136,556.492859C359.038147,559.190552,361.476837,560,365.124512,560C370.292847,560,386.380402,555.363403,394.772156,551.455322C400.346924,548.85907,404.921722,548.352539,407.985657,549.99231C410.560272,551.370239,412.190674,556.955322,411.421875,561.763245C409.83783,571.66925,417.262695,578.737305,423.110199,572.889832z"/>
    <path transform="matrix(-0.43019,0,0,-0.43019,-1053.767944,-462.969452)" style="stroke:#000000;stroke-width:0.05mm;fill:none" d="M589,549.54657C592.025024,547.703796,596.974976,545.440857,600,544.517761C612.487061,540.707275,613.912292,539.917725,619.57959,533.670898C622.658691,530.276917,625.825867,526.021057,626.617676,524.21344C628.503784,519.907898,627.466675,516.01355,620.430176,500.97934C616.770569,493.160217,613.079834,482.578888,608.942993,468.04599C602.550964,445.590149,600.019531,439.369751,594.900757,433.539734C591.238098,429.368195,582.427063,424.951599,572.020081,422.070648C558.070129,418.208893,553,419.682373,553,427.598297C553,433.817932,555.258972,435.121674,564.658997,434.327057C573.462952,433.582855,579.236511,435.417755,585.313782,440.891357C590.315247,445.395996,592.969543,451.266144,594.109314,460.343048C594.627869,464.472931,596.236511,470.045258,597.995178,473.803406C599.645752,477.330566,601.46167,483.205231,602.030579,486.858215C602.833069,492.01123,604.039429,494.957001,607.412292,500C612.807983,508.067291,613.577942,509.617767,614.368164,514.007324C615.165833,518.438293,613.707336,523.612854,610.773865,526.759094C605.57074,532.339783,593.099365,536.720764,579.688965,537.678711C566.685303,538.607666,563,542.28125,568.506653,548.8255C571.202881,552.029785,576.958008,554.120789,581,553.364624C582.375,553.107422,585.974976,551.389282,589,549.54657z"/>
    <path transform="matrix(-0.43019,0,0,-0.43019,-1053.767944,-462.969452)" style="stroke:#000000;stroke-width:0.05mm;fill:none" d="M229.660202,542.102295C237.266998,535.976196,261.729614,510.743286,262.462921,508.266663C262.944885,506.638885,262.441803,505.350891,260.607544,503.516663C255.77652,498.685608,253.766739,499.838379,241.49675,514.478394C229.771957,528.467834,227.921494,530,222.750305,530C219.174728,530,217.994507,529.260803,211.135162,522.725098C206.935822,518.723877,200.125,512.536377,196,508.975098C185.967773,500.313812,185.410446,499.633392,181.440948,491.200012C177.69957,483.251251,176.604034,482.447479,166.194733,480.014191C163.27684,479.332092,158.131378,476.93222,154.760376,474.681152C145.701065,468.631561,129.248734,451.802246,122.811302,442C116.056725,431.714813,115.102486,430.6922,105.260017,423.191071C89.372925,411.083221,77.689186,396.399506,67.101799,375.235107C61.411907,363.860931,59,355.995941,59,348.815918C59,345.779541,57.855511,341.2323,55.843845,336.276031C52.095306,327.040497,51.864922,321.198486,54.909904,312.593445C59.199436,300.471344,56.15173,292.916809,49.163502,298.349457C48.428429,298.920898,46.065929,302.891083,43.913502,307.172028C38.846172,317.250458,38.885429,319.642365,44.484081,341.936615C50.016171,363.96579,52.624649,371.341187,60.072895,386.013458C66.868706,399.400543,79.276001,414.638489,95.483589,429.50296C100.879089,434.451324,108.778679,442.774994,113.038223,448C122.63858,459.776337,142.021393,478.798859,152,486.237549C156.125,489.312561,162.875,494.802856,167,498.438141C171.125,502.073456,180.125,509.7117,187,515.412109C193.875,521.112427,203.895966,530.326721,209.268814,535.888184C220.78006,547.803589,222.086487,548.201721,229.660202,542.102295z"/>
    <path transform="matrix(-0.43019,0,0,-0.43019,-1053.767944,-462.969452)" style="stroke:#000000;stroke-width:0.05mm;fill:none" d="M382.644653,529.902283C396.12674,525.776733,397.313843,524.240356,401.877869,505.01001C405.491089,489.78598,407.275757,487.47403,415.355896,487.549683C421.588531,487.608063,428.270782,489.921234,436.253021,494.783569C441.608521,498.045837,442.783173,498.338806,453.253021,499.023071C463.660187,499.703278,465.136566,500.067108,473.02475,503.895691C479.285431,506.934296,483.311615,508.197723,488.184082,508.65274C494.39502,509.232727,494.984039,509.106873,497.409332,506.68158C502.927185,501.163727,500.034485,497.809631,487.436279,495.117767C476.195892,492.716003,455.117462,487.496368,444,484.361633C423.769867,478.657501,405.2966,474.022369,402.75,474.011627C398.131592,473.992096,396.53653,476.67511,395.200409,486.710663C394.532104,491.730042,393.049133,498.867859,391.904907,502.572449C387.919281,515.476379,382.641846,520.458557,373,520.419678C364.169067,520.384094,358.192078,516.227173,353.396942,506.785919C350.769379,501.612457,348.605011,500,344.288239,500C340.248169,500,337,502.57843,337,505.785461C337,507.840698,339.250702,510.679443,346.75,518.082764C352.112488,523.376648,358.299988,528.653809,360.5,529.809814C365.761658,532.574524,373.802063,532.608093,382.644653,529.902283z"/>
    <path transform="matrix(-0.43019,0,0,-0.43019,-1053.767944,-462.969452)" style="stroke:#000000;stroke-width:0.05mm;fill:none" d="M228.350006,507.709991C230.082504,505.900513,233.638351,501.800659,236.251877,498.599243C248.456589,483.64917,257.550568,481.523346,268.555298,491.047852C275.973816,497.468536,278.364868,498.349945,286.451202,497.644714C314.927673,495.161194,322.313934,493.97818,326.926483,491.162018C333.19696,487.333557,334.487,486.903839,342.466248,485.985687C350.013794,485.117218,353,482.983948,353,478.460632C353,471.481995,345.918091,471.347321,325.671692,477.940948C305.176819,484.615479,299.346039,486,291.731384,486C283.713593,486,279.428558,484.516907,266.039856,477.107941C249.954666,468.206787,252.011551,467.826874,237.527725,482.373901C224.096375,495.863861,221.492599,497.340332,216.074921,494.538757C212.506622,492.693512,208.771683,485.875183,204.147644,472.764893C200.192566,461.551239,198.500519,458.344879,195.739655,456.832123C194.507843,456.157166,188.550003,455.312988,182.5,454.956177C168.305511,454.119019,164.035339,452.185669,153.906738,442.010437C144.602966,432.663818,139.388107,423.158051,140.341461,417.283295C141.194168,412.028656,143.556458,409.239777,152.064911,403.44278C164.321472,395.092072,165.17868,390,154.327896,390C146.724762,390,143.707458,391.892731,139.888611,399.057587C136.583237,405.259125,133.167816,408,128.745438,408C122.197021,408,105.263252,392.340546,98.101608,379.662231C95.682495,375.379639,92.410973,367.966187,90.831558,363.187866C89.252144,358.409546,87.422333,353.449097,86.765312,352.164673C85.527367,349.744629,81.199371,347,78.621086,347C76.095543,347,74,349.988983,74,353.591309C74,357.695068,85.684647,381.032562,92.419479,390.380157C98.636765,399.00946,108.372108,408.272888,117.581917,414.322876C125.809265,419.727478,129.179657,423.575043,134.960815,434.16214C139.325882,442.155945,156.601212,459.660339,163.349228,462.927002C165.958633,464.190216,172.01004,465.767334,176.796799,466.431732C181.583557,467.09613,186.524887,468.283295,187.777527,469.069885C190.299545,470.653534,194,477.521912,194,480.619385C194,485.880127,199.220871,493.032593,209.604218,501.996796C221.505737,512.271667,223.422958,512.856018,228.350006,507.709991z"/>
    <path transform="matrix(-0.43019,0,0,-0.43019,-1053.767944,-462.969452)" style="stroke:#000000;stroke-width:0.05mm;fill:none" d="M376.668121,501.383759C377.610962,499.944824,379.189026,494.207336,380.174927,488.633759C382.375061,476.196198,382.390381,477.390381,380,475C377.378021,472.378021,371.892395,472.356445,369.537262,474.958832C367.271271,477.462708,363.696198,492.577789,364.453644,496.451935C365.827759,503.480316,373.313873,506.502991,376.668121,501.383759z"/>
    <path transform="matrix(-0.43019,0,0,-0.43019,-1053.767944,-462.969452)" style="stroke:#000000;stroke-width:0.05mm;fill:none" d="M227.097122,472.948029C230.012848,471.387573,235,464.050812,235,461.321838C235,458.062042,200.785309,424,197.51091,424C196.282059,424,192.401886,425.287262,188.888321,426.860596C177.856522,431.800476,173.841736,431.740479,170.463913,426.585266C166.654526,420.771423,171.441193,414.862396,180.985809,413.596283C183.653839,413.24234,186.885986,412.10321,188.168381,411.06485C190.476273,409.196167,190.501968,408.94455,190.692703,386.33847C190.923019,359.041748,189.565887,346.294403,183.949448,323C179.407486,304.162018,169.452393,274.452393,166.790054,271.790039C164.323669,269.323669,161.690277,269.548309,158.150238,272.527039C152.336807,277.418701,153.04631,281.982208,161.449997,293.751007C166.361267,300.628906,168.791428,307.411591,175.0513,331.712891C179.940079,350.691498,181.321014,361.842773,179.758331,369.722839C179.12822,372.900269,178.585999,380.674988,178.553391,387C178.480591,401.121674,177.48703,403.338898,168.837646,408.681549C156.064682,416.57132,154.097992,421.036133,160.058289,428.612488C167.389786,437.931854,172.082169,440,185.895065,440C191.931168,440,198.020645,440.437561,199.427231,440.972321C203.111954,442.37326,210.757568,449.713074,213.458603,454.442474C214.733124,456.674103,216.326981,460.975006,217.000504,464C219.069824,473.293945,221.848831,475.756836,227.097122,472.948029z"/>
    <path transform="matrix(-0.43019,0,0,-0.43019,-1053.767944,-462.969452)" style="stroke:#000000;stroke-width:0.05mm;fill:none" d="M570.5,467.89856C575.484985,466.539825,579,463.387665,579,460.276031C579,456.635284,576.288269,452.200439,573.032715,450.516937C569.091858,448.479004,559.630493,448.51236,557.571411,450.571442C555.549377,452.593445,555.509216,460.150208,557.5,463.999969C560.068298,468.966522,563.169617,469.896606,570.5,467.89856z"/>
    <path transform="matrix(-0.43019,0,0,-0.43019,-1053.767944,-462.969452)" style="stroke:#000000;stroke-width:0.05mm;fill:none" d="M128.877182,388.373474C132.042252,386.156555,131.157745,382.174805,126.160309,376.143097C120.311584,369.083923,117.533936,363.588623,113.451469,351C107.163795,331.611389,105.480598,329.404816,94,325.5C89.939407,324.118896,85.573196,322.008209,84.297318,320.809601C79.45295,316.258545,79.391808,307.250488,84.130249,296.196136C88.979332,284.883698,83.227112,277.208496,73.989502,282.665283C69.325737,285.420227,68.647751,288.22937,70.623711,296.610931C72.307152,303.751709,72.29718,304.102753,70.1726,312.493256C67.422981,323.352173,67.443771,326.241821,70.295403,329.557037C72.260567,331.841675,73.68718,332.332947,80.21151,332.971741C84.7052,333.411743,89.200226,334.509796,91.166115,335.647766C95.761887,338.308075,100.563423,345.818451,103.087975,354.29541C107.369232,368.671051,116.365868,384.422668,122.395317,388.099335C126.157219,390.39328,126.002815,390.386749,128.877182,388.373474z"/>
    <path transform="matrix(-0.43019,0,0,-0.43019,-1053.767944,-462.969452)" style="stroke:#000000;stroke-width:0.05mm;fill:none" d="M162.977325,374.219452C168.044556,370.116241,167.568634,357.65448,161.498611,335.5C154.704422,310.702515,153.134796,306.863861,146.345673,298.442535C139.316559,289.723511,137.376587,280.852692,140.538849,271.889893C142.462173,266.438599,146.138641,262.508148,152.214096,259.408112C158.295532,256.304993,159.601532,253.95108,158.072754,248.848495C156.758194,244.460907,153.082443,241.521667,150.095505,242.469681C148.994186,242.819229,146.531723,245.219055,144.623383,247.802612C142.715042,250.386169,139.281998,254.300003,136.994415,256.5C131.978729,261.323639,130.479828,264.075439,129.641068,270C129.290665,272.475006,128.260635,277.463104,127.352097,281.084717C126.443558,284.706299,125.978249,288.777191,126.318069,290.131165C126.65789,291.485107,129.946518,296.397003,133.626129,301.046448C141.585449,311.103607,145.670273,319.544525,149.968384,334.816101C151.720062,341.039948,154.23938,348.464935,155.566864,351.316101C158.65947,357.958344,158.653839,361.437073,155.545456,364.545441C150.255508,369.835419,144.221588,366.489349,141.55986,356.789886C137.595718,342.344238,132.593063,327.17688,130.250046,322.5C127.732788,317.475342,121.539566,309.065582,114.962746,301.741455C112.100937,298.554474,110.573326,297.707062,106.962746,297.303619C101.58477,296.702698,97.528732,299.316223,96.488396,304.052826C95.501328,308.546906,97.873871,311.321411,104.892204,313.880432C108.226479,315.096161,112.318672,317.238708,113.985962,318.641632C117.738411,321.799133,123.059547,332.757385,126.299522,344C127.646805,348.674988,129.502975,354.299988,130.424377,356.5C133.115952,362.926666,140.073318,372.970215,142.896744,374.504913C146.873444,376.666473,160.189148,376.477173,162.977325,374.219452z"/>
    <path transform="matrix(-0.43019,0,0,-0.43019,-1053.767944,-462.969452)" style="stroke:#000000;stroke-width:0.05mm;fill:none" d="M109.945488,282.029175C112.48185,280.671753,115,273.836121,115,268.308502C115,259.866913,109.709846,257.444,103.920036,263.233795C96.680832,270.473022,95.184196,276.275116,99.454544,280.545441C102.047318,283.138214,106.655457,283.789948,109.945488,282.029175z"/>
    <path transform="matrix(-0.43019,0,0,-0.43019,-1053.767944,-462.969452)" style="stroke:#000000;stroke-width:0.05mm;fill:none" d="M123.879272,248.562424C128.536423,246.154129,138,234.299881,138,230.874573C138,226.942551,134.042892,223,130.096344,223C126.655518,223,124.132469,225.874695,119.12545,235.5C115.400337,242.661011,115.147224,246.289291,118.222504,248.443298C120.908287,250.324493,120.488907,250.315659,123.879272,248.562424z"/>
</svg>
